{
    "header": {
      "keySignatures": [],
      "meta": [],
      "name": "",
      "ppq": 384,
      "tempos": [
        {
          "bpm": 165.000165000165,
          "ticks": 0
        }
      ],
      "timeSignatures": [
        {
          "ticks": 0,
          "timeSignature": [
            1,
            4
          ],
          "measures": 0
        }
      ]
    },
    "tracks": [
      {
        "channel": 0,
        "controlChanges": {},
        "pitchBends": [],
        "instrument": {
          "family": "piano",
          "number": 0,
          "name": "acoustic grand piano"
        },
        "name": "Elec. Piano (Classic)",
        "notes": [
          {
            "duration": 0.090909,
            "durationTicks": 96,
            "midi": 66,
            "name": "F#4",
            "ticks": 0,
            "time": 0,
            "velocity": 0.47244094488188976
          },
          {
            "duration": 0.09090899999999999,
            "durationTicks": 96,
            "midi": 68,
            "name": "G#4",
            "ticks": 192,
            "time": 0.181818,
            "velocity": 0.47244094488188976
          },
          {
            "duration": 0.09090900000000002,
            "durationTicks": 96,
            "midi": 70,
            "name": "A#4",
            "ticks": 384,
            "time": 0.363636,
            "velocity": 0.47244094488188976
          },
          {
            "duration": 0.09090900000000002,
            "durationTicks": 96,
            "midi": 71,
            "name": "B4",
            "ticks": 576,
            "time": 0.545454,
            "velocity": 0.47244094488188976
          },
          {
            "duration": 0.09090900000000002,
            "durationTicks": 96,
            "midi": 73,
            "name": "C#5",
            "ticks": 768,
            "time": 0.727272,
            "velocity": 0.47244094488188976
          },
          {
            "duration": 0.09090900000000002,
            "durationTicks": 96,
            "midi": 70,
            "name": "A#4",
            "ticks": 768,
            "time": 0.727272,
            "velocity": 0.47244094488188976
          },
          {
            "duration": 0.09090900000000013,
            "durationTicks": 96,
            "midi": 73,
            "name": "C#5",
            "ticks": 1152,
            "time": 1.090908,
            "velocity": 0.47244094488188976
          },
          {
            "duration": 0.09090900000000013,
            "durationTicks": 96,
            "midi": 73,
            "name": "C#5",
            "ticks": 1344,
            "time": 1.272726,
            "velocity": 0.47244094488188976
          },
          {
            "duration": 0.0909089999999999,
            "durationTicks": 96,
            "midi": 73,
            "name": "C#5",
            "ticks": 1728,
            "time": 1.636362,
            "velocity": 0.47244094488188976
          },
          {
            "duration": 0.0909089999999999,
            "durationTicks": 96,
            "midi": 75,
            "name": "D#5",
            "ticks": 1920,
            "time": 1.8181800000000001,
            "velocity": 0.47244094488188976
          },
          {
            "duration": 0.5454539999999999,
            "durationTicks": 576,
            "midi": 73,
            "name": "C#5",
            "ticks": 2112,
            "time": 1.9999980000000002,
            "velocity": 0.47244094488188976
          },
          {
            "duration": 0.0909089999999999,
            "durationTicks": 96,
            "midi": 68,
            "name": "G#4",
            "ticks": 2304,
            "time": 2.181816,
            "velocity": 0.47244094488188976
          },
          {
            "duration": 0.0909089999999999,
            "durationTicks": 96,
            "midi": 65,
            "name": "F4",
            "ticks": 2304,
            "time": 2.181816,
            "velocity": 0.47244094488188976
          },
          {
            "duration": 0.0909089999999999,
            "durationTicks": 96,
            "midi": 73,
            "name": "C#5",
            "ticks": 3072,
            "time": 2.909088,
            "velocity": 0.47244094488188976
          },
          {
            "duration": 0.09090900000000035,
            "durationTicks": 96,
            "midi": 75,
            "name": "D#5",
            "ticks": 3264,
            "time": 3.090906,
            "velocity": 0.47244094488188976
          },
          {
            "duration": 0.0909089999999999,
            "durationTicks": 96,
            "midi": 73,
            "name": "C#5",
            "ticks": 3456,
            "time": 3.272724,
            "velocity": 0.47244094488188976
          },
          {
            "duration": 0.09090900000000035,
            "durationTicks": 96,
            "midi": 71,
            "name": "B4",
            "ticks": 3648,
            "time": 3.454542,
            "velocity": 0.47244094488188976
          },
          {
            "duration": 0.0909089999999999,
            "durationTicks": 96,
            "midi": 70,
            "name": "A#4",
            "ticks": 3840,
            "time": 3.6363600000000003,
            "velocity": 0.47244094488188976
          },
          {
            "duration": 0.0909089999999999,
            "durationTicks": 96,
            "midi": 66,
            "name": "F#4",
            "ticks": 3840,
            "time": 3.6363600000000003,
            "velocity": 0.47244094488188976
          },
          {
            "duration": 0.0909089999999999,
            "durationTicks": 96,
            "midi": 70,
            "name": "A#4",
            "ticks": 4224,
            "time": 3.9999960000000003,
            "velocity": 0.47244094488188976
          },
          {
            "duration": 0.3636359999999996,
            "durationTicks": 384,
            "midi": 70,
            "name": "A#4",
            "ticks": 4416,
            "time": 4.181814,
            "velocity": 0.47244094488188976
          },
          {
            "duration": 0.0909090000000008,
            "durationTicks": 96,
            "midi": 71,
            "name": "B4",
            "ticks": 4800,
            "time": 4.54545,
            "velocity": 0.47244094488188976
          },
          {
            "duration": 0.0909089999999999,
            "durationTicks": 96,
            "midi": 70,
            "name": "A#4",
            "ticks": 4992,
            "time": 4.7272680000000005,
            "velocity": 0.47244094488188976
          },
          {
            "duration": 0.5454540000000003,
            "durationTicks": 576,
            "midi": 66,
            "name": "F#4",
            "ticks": 5184,
            "time": 4.909086,
            "velocity": 0.47244094488188976
          },
          {
            "duration": 0.2727269999999997,
            "durationTicks": 288,
            "midi": 63,
            "name": "D#4",
            "ticks": 5376,
            "time": 5.090904,
            "velocity": 0.47244094488188976
          },
          {
            "duration": 0.0909089999999999,
            "durationTicks": 96,
            "midi": 66,
            "name": "F#4",
            "ticks": 6144,
            "time": 5.818176,
            "velocity": 0.47244094488188976
          },
          {
            "duration": 0.0909089999999999,
            "durationTicks": 96,
            "midi": 68,
            "name": "G#4",
            "ticks": 6336,
            "time": 5.999994,
            "velocity": 0.47244094488188976
          },
          {
            "duration": 0.0909090000000008,
            "durationTicks": 96,
            "midi": 70,
            "name": "A#4",
            "ticks": 6528,
            "time": 6.181812,
            "velocity": 0.47244094488188976
          },
          {
            "duration": 0.0909089999999999,
            "durationTicks": 96,
            "midi": 71,
            "name": "B4",
            "ticks": 6720,
            "time": 6.363630000000001,
            "velocity": 0.47244094488188976
          },
          {
            "duration": 0.0909089999999999,
            "durationTicks": 96,
            "midi": 66,
            "name": "F#4",
            "ticks": 6912,
            "time": 6.545448,
            "velocity": 0.47244094488188976
          },
          {
            "duration": 0.0909089999999999,
            "durationTicks": 96,
            "midi": 70,
            "name": "A#4",
            "ticks": 6912,
            "time": 6.545448,
            "velocity": 0.47244094488188976
          },
          {
            "duration": 0.0909089999999999,
            "durationTicks": 96,
            "midi": 73,
            "name": "C#5",
            "ticks": 6912,
            "time": 6.545448,
            "velocity": 0.47244094488188976
          },
          {
            "duration": 0.0909089999999999,
            "durationTicks": 96,
            "midi": 73,
            "name": "C#5",
            "ticks": 7296,
            "time": 6.909084,
            "velocity": 0.47244094488188976
          },
          {
            "duration": 0.0909089999999999,
            "durationTicks": 96,
            "midi": 73,
            "name": "C#5",
            "ticks": 7488,
            "time": 7.090902000000001,
            "velocity": 0.47244094488188976
          },
          {
            "duration": 0.0909089999999999,
            "durationTicks": 96,
            "midi": 73,
            "name": "C#5",
            "ticks": 7872,
            "time": 7.454538,
            "velocity": 0.47244094488188976
          },
          {
            "duration": 0.0909089999999999,
            "durationTicks": 96,
            "midi": 75,
            "name": "D#5",
            "ticks": 8064,
            "time": 7.636356,
            "velocity": 0.47244094488188976
          },
          {
            "duration": 0.0909090000000008,
            "durationTicks": 96,
            "midi": 73,
            "name": "C#5",
            "ticks": 8256,
            "time": 7.818174,
            "velocity": 0.47244094488188976
          },
          {
            "duration": 0.0909089999999999,
            "durationTicks": 96,
            "midi": 68,
            "name": "G#4",
            "ticks": 8448,
            "time": 7.999992000000001,
            "velocity": 0.47244094488188976
          },
          {
            "duration": 0.0909089999999999,
            "durationTicks": 96,
            "midi": 65,
            "name": "F4",
            "ticks": 8448,
            "time": 7.999992000000001,
            "velocity": 0.47244094488188976
          },
          {
            "duration": 0.0909089999999999,
            "durationTicks": 96,
            "midi": 73,
            "name": "C#5",
            "ticks": 9216,
            "time": 8.727264,
            "velocity": 0.47244094488188976
          },
          {
            "duration": 0.0909089999999999,
            "durationTicks": 96,
            "midi": 75,
            "name": "D#5",
            "ticks": 9408,
            "time": 8.909082,
            "velocity": 0.47244094488188976
          },
          {
            "duration": 0.09090900000000168,
            "durationTicks": 96,
            "midi": 73,
            "name": "C#5",
            "ticks": 9600,
            "time": 9.0909,
            "velocity": 0.47244094488188976
          },
          {
            "duration": 0.0909089999999999,
            "durationTicks": 96,
            "midi": 71,
            "name": "B4",
            "ticks": 9792,
            "time": 9.272718000000001,
            "velocity": 0.47244094488188976
          },
          {
            "duration": 0.0909089999999999,
            "durationTicks": 96,
            "midi": 70,
            "name": "A#4",
            "ticks": 9984,
            "time": 9.454536000000001,
            "velocity": 0.47244094488188976
          },
          {
            "duration": 0.0909089999999999,
            "durationTicks": 96,
            "midi": 66,
            "name": "F#4",
            "ticks": 9984,
            "time": 9.454536000000001,
            "velocity": 0.47244094488188976
          },
          {
            "duration": 0.0909089999999999,
            "durationTicks": 96,
            "midi": 70,
            "name": "A#4",
            "ticks": 10368,
            "time": 9.818172,
            "velocity": 0.47244094488188976
          },
          {
            "duration": 0.3636359999999996,
            "durationTicks": 384,
            "midi": 70,
            "name": "A#4",
            "ticks": 10560,
            "time": 9.99999,
            "velocity": 0.47244094488188976
          },
          {
            "duration": 0.0909089999999999,
            "durationTicks": 96,
            "midi": 71,
            "name": "B4",
            "ticks": 10944,
            "time": 10.363626,
            "velocity": 0.47244094488188976
          },
          {
            "duration": 0.0909089999999999,
            "durationTicks": 96,
            "midi": 70,
            "name": "A#4",
            "ticks": 11136,
            "time": 10.545444,
            "velocity": 0.47244094488188976
          },
          {
            "duration": 0.09090900000000168,
            "durationTicks": 96,
            "midi": 66,
            "name": "F#4",
            "ticks": 11328,
            "time": 10.727262,
            "velocity": 0.47244094488188976
          },
          {
            "duration": 0.0909089999999999,
            "durationTicks": 96,
            "midi": 59,
            "name": "B3",
            "ticks": 11520,
            "time": 10.909080000000001,
            "velocity": 0.47244094488188976
          },
          {
            "duration": 0.0909089999999999,
            "durationTicks": 96,
            "midi": 63,
            "name": "D#4",
            "ticks": 11520,
            "time": 10.909080000000001,
            "velocity": 0.47244094488188976
          },
          {
            "duration": 0.0909089999999999,
            "durationTicks": 96,
            "midi": 49,
            "name": "C#3",
            "ticks": 13056,
            "time": 12.363624,
            "velocity": 0.47244094488188976
          },
          {
            "duration": 0.0909089999999999,
            "durationTicks": 96,
            "midi": 54,
            "name": "F#3",
            "ticks": 13440,
            "time": 12.727260000000001,
            "velocity": 0.47244094488188976
          },
          {
            "duration": 0.0909089999999999,
            "durationTicks": 96,
            "midi": 58,
            "name": "A#3",
            "ticks": 13824,
            "time": 13.090896,
            "velocity": 0.47244094488188976
          },
          {
            "duration": 0.0909089999999999,
            "durationTicks": 96,
            "midi": 61,
            "name": "C#4",
            "ticks": 14208,
            "time": 13.454532,
            "velocity": 0.47244094488188976
          },
          {
            "duration": 0.0909089999999999,
            "durationTicks": 96,
            "midi": 66,
            "name": "F#4",
            "ticks": 14592,
            "time": 13.818168,
            "velocity": 0.47244094488188976
          },
          {
            "duration": 0.0909089999999999,
            "durationTicks": 96,
            "midi": 70,
            "name": "A#4",
            "ticks": 14976,
            "time": 14.181804000000001,
            "velocity": 0.47244094488188976
          },
          {
            "duration": 0.0909089999999999,
            "durationTicks": 96,
            "midi": 73,
            "name": "C#5",
            "ticks": 15360,
            "time": 14.545440000000001,
            "velocity": 0.47244094488188976
          },
          {
            "duration": 0.0909089999999999,
            "durationTicks": 96,
            "midi": 78,
            "name": "F#5",
            "ticks": 15744,
            "time": 14.909076,
            "velocity": 0.47244094488188976
          },
          {
            "duration": 0.0909089999999999,
            "durationTicks": 96,
            "midi": 82,
            "name": "A#5",
            "ticks": 16128,
            "time": 15.272712,
            "velocity": 0.47244094488188976
          },
          {
            "duration": 0.0909089999999999,
            "durationTicks": 96,
            "midi": 78,
            "name": "F#5",
            "ticks": 16128,
            "time": 15.272712,
            "velocity": 0.47244094488188976
          },
          {
            "duration": 0.0909089999999999,
            "durationTicks": 96,
            "midi": 82,
            "name": "A#5",
            "ticks": 16512,
            "time": 15.636348,
            "velocity": 0.47244094488188976
          },
          {
            "duration": 0.0909089999999999,
            "durationTicks": 96,
            "midi": 78,
            "name": "F#5",
            "ticks": 16512,
            "time": 15.636348,
            "velocity": 0.47244094488188976
          },
          {
            "duration": 0.0909089999999999,
            "durationTicks": 96,
            "midi": 78,
            "name": "F#5",
            "ticks": 16704,
            "time": 15.818166000000002,
            "velocity": 0.47244094488188976
          },
          {
            "duration": 0.0909089999999999,
            "durationTicks": 96,
            "midi": 82,
            "name": "A#5",
            "ticks": 16704,
            "time": 15.818166000000002,
            "velocity": 0.47244094488188976
          },
          {
            "duration": 0.0909089999999999,
            "durationTicks": 96,
            "midi": 83,
            "name": "B5",
            "ticks": 17088,
            "time": 16.181802,
            "velocity": 0.47244094488188976
          },
          {
            "duration": 0.0909089999999999,
            "durationTicks": 96,
            "midi": 78,
            "name": "F#5",
            "ticks": 17280,
            "time": 16.36362,
            "velocity": 0.47244094488188976
          },
          {
            "duration": 0.0909089999999999,
            "durationTicks": 96,
            "midi": 82,
            "name": "A#5",
            "ticks": 17472,
            "time": 16.545438,
            "velocity": 0.47244094488188976
          },
          {
            "duration": 0.0909089999999999,
            "durationTicks": 96,
            "midi": 80,
            "name": "G#5",
            "ticks": 17664,
            "time": 16.727256,
            "velocity": 0.47244094488188976
          },
          {
            "duration": 0.0909089999999999,
            "durationTicks": 96,
            "midi": 77,
            "name": "F5",
            "ticks": 17664,
            "time": 16.727256,
            "velocity": 0.47244094488188976
          },
          {
            "duration": 0.0909089999999999,
            "durationTicks": 96,
            "midi": 80,
            "name": "G#5",
            "ticks": 18048,
            "time": 17.090892,
            "velocity": 0.47244094488188976
          },
          {
            "duration": 0.0909089999999999,
            "durationTicks": 96,
            "midi": 77,
            "name": "F5",
            "ticks": 18048,
            "time": 17.090892,
            "velocity": 0.47244094488188976
          },
          {
            "duration": 0.0909089999999999,
            "durationTicks": 96,
            "midi": 77,
            "name": "F5",
            "ticks": 18240,
            "time": 17.27271,
            "velocity": 0.47244094488188976
          },
          {
            "duration": 0.0909089999999999,
            "durationTicks": 96,
            "midi": 80,
            "name": "G#5",
            "ticks": 18240,
            "time": 17.27271,
            "velocity": 0.47244094488188976
          },
          {
            "duration": 0.0909089999999999,
            "durationTicks": 96,
            "midi": 85,
            "name": "C#6",
            "ticks": 18624,
            "time": 17.636346,
            "velocity": 0.47244094488188976
          },
          {
            "duration": 0.0909089999999999,
            "durationTicks": 96,
            "midi": 77,
            "name": "F5",
            "ticks": 18816,
            "time": 17.818164,
            "velocity": 0.47244094488188976
          },
          {
            "duration": 0.0909089999999999,
            "durationTicks": 96,
            "midi": 80,
            "name": "G#5",
            "ticks": 19008,
            "time": 17.999982,
            "velocity": 0.47244094488188976
          },
          {
            "duration": 0.0909089999999999,
            "durationTicks": 96,
            "midi": 75,
            "name": "D#5",
            "ticks": 19200,
            "time": 18.1818,
            "velocity": 0.47244094488188976
          },
          {
            "duration": 0.0909089999999999,
            "durationTicks": 96,
            "midi": 78,
            "name": "F#5",
            "ticks": 19200,
            "time": 18.1818,
            "velocity": 0.47244094488188976
          },
          {
            "duration": 0.0909089999999999,
            "durationTicks": 96,
            "midi": 78,
            "name": "F#5",
            "ticks": 19200,
            "time": 18.1818,
            "velocity": 0.47244094488188976
          },
          {
            "duration": 0.0909089999999999,
            "durationTicks": 96,
            "midi": 78,
            "name": "F#5",
            "ticks": 19584,
            "time": 18.545436000000002,
            "velocity": 0.47244094488188976
          },
          {
            "duration": 0.0909089999999999,
            "durationTicks": 96,
            "midi": 75,
            "name": "D#5",
            "ticks": 19584,
            "time": 18.545436000000002,
            "velocity": 0.47244094488188976
          },
          {
            "duration": 0.0909089999999999,
            "durationTicks": 96,
            "midi": 78,
            "name": "F#5",
            "ticks": 19776,
            "time": 18.727254000000002,
            "velocity": 0.47244094488188976
          },
          {
            "duration": 0.0909089999999999,
            "durationTicks": 96,
            "midi": 75,
            "name": "D#5",
            "ticks": 19776,
            "time": 18.727254000000002,
            "velocity": 0.47244094488188976
          },
          {
            "duration": 0.0909089999999999,
            "durationTicks": 96,
            "midi": 80,
            "name": "G#5",
            "ticks": 20160,
            "time": 19.09089,
            "velocity": 0.47244094488188976
          },
          {
            "duration": 0.0909089999999999,
            "durationTicks": 96,
            "midi": 75,
            "name": "D#5",
            "ticks": 20352,
            "time": 19.272708,
            "velocity": 0.47244094488188976
          },
          {
            "duration": 0.0909089999999999,
            "durationTicks": 96,
            "midi": 77,
            "name": "F5",
            "ticks": 20544,
            "time": 19.454526,
            "velocity": 0.47244094488188976
          },
          {
            "duration": 0.0909089999999999,
            "durationTicks": 96,
            "midi": 78,
            "name": "F#5",
            "ticks": 20736,
            "time": 19.636344,
            "velocity": 0.47244094488188976
          },
          {
            "duration": 0.0909089999999999,
            "durationTicks": 96,
            "midi": 75,
            "name": "D#5",
            "ticks": 20736,
            "time": 19.636344,
            "velocity": 0.47244094488188976
          },
          {
            "duration": 0.0909089999999999,
            "durationTicks": 96,
            "midi": 78,
            "name": "F#5",
            "ticks": 21120,
            "time": 19.99998,
            "velocity": 0.47244094488188976
          },
          {
            "duration": 0.0909089999999999,
            "durationTicks": 96,
            "midi": 75,
            "name": "D#5",
            "ticks": 21120,
            "time": 19.99998,
            "velocity": 0.47244094488188976
          },
          {
            "duration": 0.0909089999999999,
            "durationTicks": 96,
            "midi": 78,
            "name": "F#5",
            "ticks": 21312,
            "time": 20.181798,
            "velocity": 0.47244094488188976
          },
          {
            "duration": 0.0909089999999999,
            "durationTicks": 96,
            "midi": 75,
            "name": "D#5",
            "ticks": 21312,
            "time": 20.181798,
            "velocity": 0.47244094488188976
          },
          {
            "duration": 0.0909089999999999,
            "durationTicks": 96,
            "midi": 77,
            "name": "F5",
            "ticks": 21696,
            "time": 20.545434,
            "velocity": 0.47244094488188976
          },
          {
            "duration": 0.0909089999999999,
            "durationTicks": 96,
            "midi": 78,
            "name": "F#5",
            "ticks": 21888,
            "time": 20.727252,
            "velocity": 0.47244094488188976
          },
          {
            "duration": 0.0909089999999999,
            "durationTicks": 96,
            "midi": 80,
            "name": "G#5",
            "ticks": 22080,
            "time": 20.90907,
            "velocity": 0.47244094488188976
          },
          {
            "duration": 0.0909089999999999,
            "durationTicks": 96,
            "midi": 82,
            "name": "A#5",
            "ticks": 22272,
            "time": 21.090888,
            "velocity": 0.47244094488188976
          },
          {
            "duration": 0.0909089999999999,
            "durationTicks": 96,
            "midi": 78,
            "name": "F#5",
            "ticks": 22272,
            "time": 21.090888,
            "velocity": 0.47244094488188976
          },
          {
            "duration": 0.0909089999999999,
            "durationTicks": 96,
            "midi": 78,
            "name": "F#5",
            "ticks": 22656,
            "time": 21.454524,
            "velocity": 0.47244094488188976
          },
          {
            "duration": 0.0909089999999999,
            "durationTicks": 96,
            "midi": 82,
            "name": "A#5",
            "ticks": 22656,
            "time": 21.454524,
            "velocity": 0.47244094488188976
          },
          {
            "duration": 0.0909089999999999,
            "durationTicks": 96,
            "midi": 82,
            "name": "A#5",
            "ticks": 22848,
            "time": 21.636342000000003,
            "velocity": 0.47244094488188976
          },
          {
            "duration": 0.0909089999999999,
            "durationTicks": 96,
            "midi": 78,
            "name": "F#5",
            "ticks": 22848,
            "time": 21.636342000000003,
            "velocity": 0.47244094488188976
          },
          {
            "duration": 0.0909089999999999,
            "durationTicks": 96,
            "midi": 83,
            "name": "B5",
            "ticks": 23232,
            "time": 21.999978000000002,
            "velocity": 0.47244094488188976
          },
          {
            "duration": 0.0909089999999999,
            "durationTicks": 96,
            "midi": 78,
            "name": "F#5",
            "ticks": 23424,
            "time": 22.181796000000002,
            "velocity": 0.47244094488188976
          },
          {
            "duration": 0.0909089999999999,
            "durationTicks": 96,
            "midi": 82,
            "name": "A#5",
            "ticks": 23616,
            "time": 22.363614000000002,
            "velocity": 0.47244094488188976
          },
          {
            "duration": 0.0909089999999999,
            "durationTicks": 96,
            "midi": 80,
            "name": "G#5",
            "ticks": 23808,
            "time": 22.545432,
            "velocity": 0.47244094488188976
          },
          {
            "duration": 0.0909089999999999,
            "durationTicks": 96,
            "midi": 77,
            "name": "F5",
            "ticks": 23808,
            "time": 22.545432,
            "velocity": 0.47244094488188976
          },
          {
            "duration": 0.0909089999999999,
            "durationTicks": 96,
            "midi": 77,
            "name": "F5",
            "ticks": 24192,
            "time": 22.909068,
            "velocity": 0.47244094488188976
          },
          {
            "duration": 0.0909089999999999,
            "durationTicks": 96,
            "midi": 80,
            "name": "G#5",
            "ticks": 24192,
            "time": 22.909068,
            "velocity": 0.47244094488188976
          },
          {
            "duration": 0.0909089999999999,
            "durationTicks": 96,
            "midi": 80,
            "name": "G#5",
            "ticks": 24384,
            "time": 23.090886,
            "velocity": 0.47244094488188976
          },
          {
            "duration": 0.0909089999999999,
            "durationTicks": 96,
            "midi": 77,
            "name": "F5",
            "ticks": 24384,
            "time": 23.090886,
            "velocity": 0.47244094488188976
          },
          {
            "duration": 0.0909089999999999,
            "durationTicks": 96,
            "midi": 85,
            "name": "C#6",
            "ticks": 24768,
            "time": 23.454522,
            "velocity": 0.47244094488188976
          },
          {
            "duration": 0.0909089999999999,
            "durationTicks": 96,
            "midi": 77,
            "name": "F5",
            "ticks": 24960,
            "time": 23.63634,
            "velocity": 0.47244094488188976
          },
          {
            "duration": 0.0909089999999999,
            "durationTicks": 96,
            "midi": 80,
            "name": "G#5",
            "ticks": 25152,
            "time": 23.818158,
            "velocity": 0.47244094488188976
          },
          {
            "duration": 0.0909089999999999,
            "durationTicks": 96,
            "midi": 78,
            "name": "F#5",
            "ticks": 25344,
            "time": 23.999976,
            "velocity": 0.47244094488188976
          },
          {
            "duration": 0.0909089999999999,
            "durationTicks": 96,
            "midi": 75,
            "name": "D#5",
            "ticks": 25344,
            "time": 23.999976,
            "velocity": 0.47244094488188976
          },
          {
            "duration": 0.0909089999999999,
            "durationTicks": 96,
            "midi": 75,
            "name": "D#5",
            "ticks": 25728,
            "time": 24.363612,
            "velocity": 0.47244094488188976
          },
          {
            "duration": 0.0909089999999999,
            "durationTicks": 96,
            "midi": 78,
            "name": "F#5",
            "ticks": 25728,
            "time": 24.363612,
            "velocity": 0.47244094488188976
          },
          {
            "duration": 0.0909089999999999,
            "durationTicks": 96,
            "midi": 75,
            "name": "D#5",
            "ticks": 25920,
            "time": 24.54543,
            "velocity": 0.47244094488188976
          },
          {
            "duration": 0.0909089999999999,
            "durationTicks": 96,
            "midi": 78,
            "name": "F#5",
            "ticks": 25920,
            "time": 24.54543,
            "velocity": 0.47244094488188976
          },
          {
            "duration": 0.09090900000000346,
            "durationTicks": 96,
            "midi": 80,
            "name": "G#5",
            "ticks": 26304,
            "time": 24.909066,
            "velocity": 0.47244094488188976
          },
          {
            "duration": 0.0909089999999999,
            "durationTicks": 96,
            "midi": 75,
            "name": "D#5",
            "ticks": 26496,
            "time": 25.090884000000003,
            "velocity": 0.47244094488188976
          },
          {
            "duration": 0.0909089999999999,
            "durationTicks": 96,
            "midi": 77,
            "name": "F5",
            "ticks": 26688,
            "time": 25.272702000000002,
            "velocity": 0.47244094488188976
          },
          {
            "duration": 0.0909089999999999,
            "durationTicks": 96,
            "midi": 78,
            "name": "F#5",
            "ticks": 26880,
            "time": 25.454520000000002,
            "velocity": 0.47244094488188976
          },
          {
            "duration": 0.0909089999999999,
            "durationTicks": 96,
            "midi": 75,
            "name": "D#5",
            "ticks": 26880,
            "time": 25.454520000000002,
            "velocity": 0.47244094488188976
          },
          {
            "duration": 0.0909089999999999,
            "durationTicks": 96,
            "midi": 75,
            "name": "D#5",
            "ticks": 27264,
            "time": 25.818156000000002,
            "velocity": 0.47244094488188976
          },
          {
            "duration": 0.0909089999999999,
            "durationTicks": 96,
            "midi": 78,
            "name": "F#5",
            "ticks": 27264,
            "time": 25.818156000000002,
            "velocity": 0.47244094488188976
          },
          {
            "duration": 0.0909089999999999,
            "durationTicks": 96,
            "midi": 78,
            "name": "F#5",
            "ticks": 27456,
            "time": 25.999974,
            "velocity": 0.47244094488188976
          },
          {
            "duration": 0.0909089999999999,
            "durationTicks": 96,
            "midi": 75,
            "name": "D#5",
            "ticks": 27456,
            "time": 25.999974,
            "velocity": 0.47244094488188976
          },
          {
            "duration": 0.0909089999999999,
            "durationTicks": 96,
            "midi": 71,
            "name": "B4",
            "ticks": 27840,
            "time": 26.36361,
            "velocity": 0.47244094488188976
          },
          {
            "duration": 0.0909089999999999,
            "durationTicks": 96,
            "midi": 71,
            "name": "B4",
            "ticks": 27840,
            "time": 26.36361,
            "velocity": 0.47244094488188976
          },
          {
            "duration": 0.0909089999999999,
            "durationTicks": 96,
            "midi": 66,
            "name": "F#4",
            "ticks": 28032,
            "time": 26.545428,
            "velocity": 0.47244094488188976
          },
          {
            "duration": 0.0909089999999999,
            "durationTicks": 96,
            "midi": 61,
            "name": "C#4",
            "ticks": 28224,
            "time": 26.727246,
            "velocity": 0.47244094488188976
          },
          {
            "duration": 0.0909089999999999,
            "durationTicks": 96,
            "midi": 66,
            "name": "F#4",
            "ticks": 28416,
            "time": 26.909064,
            "velocity": 0.47244094488188976
          },
          {
            "duration": 0.0909089999999999,
            "durationTicks": 96,
            "midi": 66,
            "name": "F#4",
            "ticks": 28800,
            "time": 27.2727,
            "velocity": 0.47244094488188976
          },
          {
            "duration": 0.0909089999999999,
            "durationTicks": 96,
            "midi": 66,
            "name": "F#4",
            "ticks": 29184,
            "time": 27.636336,
            "velocity": 0.47244094488188976
          },
          {
            "duration": 0.0909089999999999,
            "durationTicks": 96,
            "midi": 66,
            "name": "F#4",
            "ticks": 29568,
            "time": 27.999972,
            "velocity": 0.47244094488188976
          },
          {
            "duration": 0.09090900000000346,
            "durationTicks": 96,
            "midi": 66,
            "name": "F#4",
            "ticks": 29760,
            "time": 28.18179,
            "velocity": 0.47244094488188976
          },
          {
            "duration": 0.0909089999999999,
            "durationTicks": 96,
            "midi": 68,
            "name": "G#4",
            "ticks": 29952,
            "time": 28.363608000000003,
            "velocity": 0.47244094488188976
          },
          {
            "duration": 0.0909089999999999,
            "durationTicks": 96,
            "midi": 70,
            "name": "A#4",
            "ticks": 30144,
            "time": 28.545426000000003,
            "velocity": 0.47244094488188976
          },
          {
            "duration": 0.0909089999999999,
            "durationTicks": 96,
            "midi": 70,
            "name": "A#4",
            "ticks": 30528,
            "time": 28.909062000000002,
            "velocity": 0.47244094488188976
          },
          {
            "duration": 0.0909089999999999,
            "durationTicks": 96,
            "midi": 73,
            "name": "C#5",
            "ticks": 31296,
            "time": 29.636334,
            "velocity": 0.47244094488188976
          },
          {
            "duration": 0.0909089999999999,
            "durationTicks": 96,
            "midi": 66,
            "name": "F#4",
            "ticks": 31680,
            "time": 29.99997,
            "velocity": 0.47244094488188976
          },
          {
            "duration": 0.0909089999999999,
            "durationTicks": 96,
            "midi": 66,
            "name": "F#4",
            "ticks": 31872,
            "time": 30.181788,
            "velocity": 0.47244094488188976
          },
          {
            "duration": 0.0909089999999999,
            "durationTicks": 96,
            "midi": 66,
            "name": "F#4",
            "ticks": 32064,
            "time": 30.363606,
            "velocity": 0.47244094488188976
          },
          {
            "duration": 0.0909089999999999,
            "durationTicks": 96,
            "midi": 66,
            "name": "F#4",
            "ticks": 32448,
            "time": 30.727242,
            "velocity": 0.47244094488188976
          },
          {
            "duration": 0.0909089999999999,
            "durationTicks": 96,
            "midi": 66,
            "name": "F#4",
            "ticks": 32640,
            "time": 30.90906,
            "velocity": 0.47244094488188976
          },
          {
            "duration": 0.0909089999999999,
            "durationTicks": 96,
            "midi": 70,
            "name": "A#4",
            "ticks": 32832,
            "time": 31.090878,
            "velocity": 0.47244094488188976
          },
          {
            "duration": 0.0909089999999999,
            "durationTicks": 96,
            "midi": 68,
            "name": "G#4",
            "ticks": 33024,
            "time": 31.272696,
            "velocity": 0.47244094488188976
          },
          {
            "duration": 0.0909089999999999,
            "durationTicks": 96,
            "midi": 66,
            "name": "F#4",
            "ticks": 33408,
            "time": 31.636332000000003,
            "velocity": 0.47244094488188976
          },
          {
            "duration": 0.09090899999999635,
            "durationTicks": 96,
            "midi": 65,
            "name": "F4",
            "ticks": 34176,
            "time": 32.363604,
            "velocity": 0.47244094488188976
          },
          {
            "duration": 0.09090899999999635,
            "durationTicks": 96,
            "midi": 63,
            "name": "D#4",
            "ticks": 34560,
            "time": 32.72724,
            "velocity": 0.47244094488188976
          },
          {
            "duration": 0.09090899999999635,
            "durationTicks": 96,
            "midi": 61,
            "name": "C#4",
            "ticks": 34752,
            "time": 32.909058,
            "velocity": 0.47244094488188976
          },
          {
            "duration": 0.09090900000000346,
            "durationTicks": 96,
            "midi": 61,
            "name": "C#4",
            "ticks": 36288,
            "time": 34.363602,
            "velocity": 0.47244094488188976
          },
          {
            "duration": 0.09090900000000346,
            "durationTicks": 96,
            "midi": 61,
            "name": "C#4",
            "ticks": 36672,
            "time": 34.727238,
            "velocity": 0.47244094488188976
          },
          {
            "duration": 0.09090900000000346,
            "durationTicks": 96,
            "midi": 63,
            "name": "D#4",
            "ticks": 36864,
            "time": 34.909056,
            "velocity": 0.47244094488188976
          },
          {
            "duration": 0.09090900000000346,
            "durationTicks": 96,
            "midi": 65,
            "name": "F4",
            "ticks": 37056,
            "time": 35.090874,
            "velocity": 0.47244094488188976
          },
          {
            "duration": 0.09090900000000346,
            "durationTicks": 96,
            "midi": 66,
            "name": "F#4",
            "ticks": 37248,
            "time": 35.272692,
            "velocity": 0.47244094488188976
          },
          {
            "duration": 0.09090900000000346,
            "durationTicks": 96,
            "midi": 63,
            "name": "D#4",
            "ticks": 37632,
            "time": 35.636328,
            "velocity": 0.47244094488188976
          },
          {
            "duration": 0.09090900000000346,
            "durationTicks": 96,
            "midi": 61,
            "name": "C#4",
            "ticks": 37824,
            "time": 35.818146,
            "velocity": 0.47244094488188976
          },
          {
            "duration": 0.09090899999999635,
            "durationTicks": 96,
            "midi": 78,
            "name": "F#5",
            "ticks": 38784,
            "time": 36.727236000000005,
            "velocity": 0.47244094488188976
          },
          {
            "duration": 0.09090899999999635,
            "durationTicks": 96,
            "midi": 75,
            "name": "D#5",
            "ticks": 39168,
            "time": 37.090872000000005,
            "velocity": 0.47244094488188976
          },
          {
            "duration": 0.09090899999999635,
            "durationTicks": 96,
            "midi": 73,
            "name": "C#5",
            "ticks": 39360,
            "time": 37.272690000000004,
            "velocity": 0.47244094488188976
          },
          {
            "duration": 0.09090899999999635,
            "durationTicks": 96,
            "midi": 61,
            "name": "C#4",
            "ticks": 40128,
            "time": 37.999962000000004,
            "velocity": 0.47244094488188976
          },
          {
            "duration": 0.09090899999999635,
            "durationTicks": 96,
            "midi": 66,
            "name": "F#4",
            "ticks": 40320,
            "time": 38.18178,
            "velocity": 0.47244094488188976
          },
          {
            "duration": 0.09090899999999635,
            "durationTicks": 96,
            "midi": 66,
            "name": "F#4",
            "ticks": 40512,
            "time": 38.363598,
            "velocity": 0.47244094488188976
          },
          {
            "duration": 0.09090899999999635,
            "durationTicks": 96,
            "midi": 66,
            "name": "F#4",
            "ticks": 40704,
            "time": 38.545416,
            "velocity": 0.47244094488188976
          },
          {
            "duration": 0.09090899999999635,
            "durationTicks": 96,
            "midi": 66,
            "name": "F#4",
            "ticks": 40896,
            "time": 38.727234,
            "velocity": 0.47244094488188976
          },
          {
            "duration": 0.09090899999999635,
            "durationTicks": 96,
            "midi": 66,
            "name": "F#4",
            "ticks": 41088,
            "time": 38.909052,
            "velocity": 0.47244094488188976
          },
          {
            "duration": 0.09090899999999635,
            "durationTicks": 96,
            "midi": 66,
            "name": "F#4",
            "ticks": 41472,
            "time": 39.272688,
            "velocity": 0.47244094488188976
          },
          {
            "duration": 0.09090899999999635,
            "durationTicks": 96,
            "midi": 68,
            "name": "G#4",
            "ticks": 41856,
            "time": 39.636324,
            "velocity": 0.47244094488188976
          },
          {
            "duration": 0.09090900000000346,
            "durationTicks": 96,
            "midi": 70,
            "name": "A#4",
            "ticks": 42048,
            "time": 39.818142,
            "velocity": 0.47244094488188976
          },
          {
            "duration": 0.09090900000000346,
            "durationTicks": 96,
            "midi": 70,
            "name": "A#4",
            "ticks": 42432,
            "time": 40.181778,
            "velocity": 0.47244094488188976
          },
          {
            "duration": 0.09090900000000346,
            "durationTicks": 96,
            "midi": 61,
            "name": "C#4",
            "ticks": 43200,
            "time": 40.90905,
            "velocity": 0.47244094488188976
          },
          {
            "duration": 0.09090900000000346,
            "durationTicks": 96,
            "midi": 66,
            "name": "F#4",
            "ticks": 43392,
            "time": 41.090868,
            "velocity": 0.47244094488188976
          },
          {
            "duration": 0.09090900000000346,
            "durationTicks": 96,
            "midi": 66,
            "name": "F#4",
            "ticks": 43584,
            "time": 41.272686,
            "velocity": 0.47244094488188976
          },
          {
            "duration": 0.09090900000000346,
            "durationTicks": 96,
            "midi": 66,
            "name": "F#4",
            "ticks": 43776,
            "time": 41.454504,
            "velocity": 0.47244094488188976
          },
          {
            "duration": 0.09090900000000346,
            "durationTicks": 96,
            "midi": 66,
            "name": "F#4",
            "ticks": 43968,
            "time": 41.636322,
            "velocity": 0.47244094488188976
          },
          {
            "duration": 0.09090900000000346,
            "durationTicks": 96,
            "midi": 66,
            "name": "F#4",
            "ticks": 44160,
            "time": 41.81814,
            "velocity": 0.47244094488188976
          },
          {
            "duration": 0.09090900000000346,
            "durationTicks": 96,
            "midi": 66,
            "name": "F#4",
            "ticks": 44544,
            "time": 42.181776,
            "velocity": 0.47244094488188976
          },
          {
            "duration": 0.09090900000000346,
            "durationTicks": 96,
            "midi": 73,
            "name": "C#5",
            "ticks": 44928,
            "time": 42.545412,
            "velocity": 0.47244094488188976
          },
          {
            "duration": 0.09090900000000346,
            "durationTicks": 96,
            "midi": 71,
            "name": "B4",
            "ticks": 45120,
            "time": 42.72723,
            "velocity": 0.47244094488188976
          },
          {
            "duration": 0.09090900000000346,
            "durationTicks": 96,
            "midi": 70,
            "name": "A#4",
            "ticks": 45504,
            "time": 43.090866,
            "velocity": 0.47244094488188976
          },
          {
            "duration": 0.09090899999999635,
            "durationTicks": 96,
            "midi": 65,
            "name": "F4",
            "ticks": 46464,
            "time": 43.999956000000005,
            "velocity": 0.47244094488188976
          },
          {
            "duration": 0.09090899999999635,
            "durationTicks": 96,
            "midi": 68,
            "name": "G#4",
            "ticks": 46848,
            "time": 44.363592000000004,
            "velocity": 0.47244094488188976
          },
          {
            "duration": 0.09090899999999635,
            "durationTicks": 96,
            "midi": 61,
            "name": "C#4",
            "ticks": 47040,
            "time": 44.545410000000004,
            "velocity": 0.47244094488188976
          },
          {
            "duration": 0.09090899999999635,
            "durationTicks": 96,
            "midi": 61,
            "name": "C#4",
            "ticks": 48384,
            "time": 45.818136,
            "velocity": 0.47244094488188976
          },
          {
            "duration": 0.09090899999999635,
            "durationTicks": 96,
            "midi": 61,
            "name": "C#4",
            "ticks": 48576,
            "time": 45.999954,
            "velocity": 0.47244094488188976
          },
          {
            "duration": 0.09090899999999635,
            "durationTicks": 96,
            "midi": 61,
            "name": "C#4",
            "ticks": 48960,
            "time": 46.36359,
            "velocity": 0.47244094488188976
          },
          {
            "duration": 0.09090900000000346,
            "durationTicks": 96,
            "midi": 70,
            "name": "A#4",
            "ticks": 49152,
            "time": 46.545408,
            "velocity": 0.47244094488188976
          },
          {
            "duration": 0.09090900000000346,
            "durationTicks": 96,
            "midi": 68,
            "name": "G#4",
            "ticks": 49344,
            "time": 46.727226,
            "velocity": 0.47244094488188976
          },
          {
            "duration": 0.09090900000000346,
            "durationTicks": 96,
            "midi": 66,
            "name": "F#4",
            "ticks": 49536,
            "time": 46.909044,
            "velocity": 0.47244094488188976
          },
          {
            "duration": 0.09090900000000346,
            "durationTicks": 96,
            "midi": 66,
            "name": "F#4",
            "ticks": 51264,
            "time": 48.545406,
            "velocity": 0.47244094488188976
          },
          {
            "duration": 0.09090900000000346,
            "durationTicks": 96,
            "midi": 61,
            "name": "C#4",
            "ticks": 51264,
            "time": 48.545406,
            "velocity": 0.47244094488188976
          },
          {
            "duration": 0.09090900000000346,
            "durationTicks": 96,
            "midi": 68,
            "name": "G#4",
            "ticks": 51456,
            "time": 48.727224,
            "velocity": 0.47244094488188976
          },
          {
            "duration": 0.09090900000000346,
            "durationTicks": 96,
            "midi": 63,
            "name": "D#4",
            "ticks": 51456,
            "time": 48.727224,
            "velocity": 0.47244094488188976
          },
          {
            "duration": 0.09090900000000346,
            "durationTicks": 96,
            "midi": 61,
            "name": "C#4",
            "ticks": 51648,
            "time": 48.909042,
            "velocity": 0.47244094488188976
          },
          {
            "duration": 0.09090900000000346,
            "durationTicks": 96,
            "midi": 66,
            "name": "F#4",
            "ticks": 51648,
            "time": 48.909042,
            "velocity": 0.47244094488188976
          },
          {
            "duration": 0.09090900000000346,
            "durationTicks": 96,
            "midi": 70,
            "name": "A#4",
            "ticks": 51840,
            "time": 49.09086,
            "velocity": 0.47244094488188976
          },
          {
            "duration": 0.09090900000000346,
            "durationTicks": 96,
            "midi": 66,
            "name": "F#4",
            "ticks": 51840,
            "time": 49.09086,
            "velocity": 0.47244094488188976
          },
          {
            "duration": 0.09090900000000346,
            "durationTicks": 96,
            "midi": 68,
            "name": "G#4",
            "ticks": 52224,
            "time": 49.454496,
            "velocity": 0.47244094488188976
          },
          {
            "duration": 0.09090900000000346,
            "durationTicks": 96,
            "midi": 63,
            "name": "D#4",
            "ticks": 52224,
            "time": 49.454496,
            "velocity": 0.47244094488188976
          },
          {
            "duration": 0.09090900000000346,
            "durationTicks": 96,
            "midi": 66,
            "name": "F#4",
            "ticks": 52416,
            "time": 49.636314,
            "velocity": 0.47244094488188976
          },
          {
            "duration": 0.09090900000000346,
            "durationTicks": 96,
            "midi": 61,
            "name": "C#4",
            "ticks": 52416,
            "time": 49.636314,
            "velocity": 0.47244094488188976
          },
          {
            "duration": 0.09090900000000346,
            "durationTicks": 96,
            "midi": 61,
            "name": "C#4",
            "ticks": 52608,
            "time": 49.818132,
            "velocity": 0.47244094488188976
          },
          {
            "duration": 0.09090899999999635,
            "durationTicks": 96,
            "midi": 70,
            "name": "A#4",
            "ticks": 52992,
            "time": 50.181768000000005,
            "velocity": 0.47244094488188976
          },
          {
            "duration": 0.09090899999999635,
            "durationTicks": 96,
            "midi": 68,
            "name": "G#4",
            "ticks": 53184,
            "time": 50.363586000000005,
            "velocity": 0.47244094488188976
          },
          {
            "duration": 0.09090899999999635,
            "durationTicks": 96,
            "midi": 66,
            "name": "F#4",
            "ticks": 53376,
            "time": 50.545404000000005,
            "velocity": 0.47244094488188976
          },
          {
            "duration": 0.09090899999999635,
            "durationTicks": 96,
            "midi": 68,
            "name": "G#4",
            "ticks": 53952,
            "time": 51.090858000000004,
            "velocity": 0.47244094488188976
          },
          {
            "duration": 0.09090899999999635,
            "durationTicks": 96,
            "midi": 66,
            "name": "F#4",
            "ticks": 54336,
            "time": 51.454494000000004,
            "velocity": 0.47244094488188976
          },
          {
            "duration": 0.09090899999999635,
            "durationTicks": 96,
            "midi": 68,
            "name": "G#4",
            "ticks": 54528,
            "time": 51.636312000000004,
            "velocity": 0.47244094488188976
          },
          {
            "duration": 0.09090899999999635,
            "durationTicks": 96,
            "midi": 66,
            "name": "F#4",
            "ticks": 54720,
            "time": 51.818130000000004,
            "velocity": 0.47244094488188976
          },
          {
            "duration": 0.09090899999999635,
            "durationTicks": 96,
            "midi": 68,
            "name": "G#4",
            "ticks": 54912,
            "time": 51.999948,
            "velocity": 0.47244094488188976
          },
          {
            "duration": 0.09090899999999635,
            "durationTicks": 96,
            "midi": 70,
            "name": "A#4",
            "ticks": 55296,
            "time": 52.363584,
            "velocity": 0.47244094488188976
          },
          {
            "duration": 0.09090899999999635,
            "durationTicks": 96,
            "midi": 63,
            "name": "D#4",
            "ticks": 55680,
            "time": 52.72722,
            "velocity": 0.47244094488188976
          },
          {
            "duration": 0.09090899999999635,
            "durationTicks": 96,
            "midi": 70,
            "name": "A#4",
            "ticks": 56064,
            "time": 53.090856,
            "velocity": 0.47244094488188976
          },
          {
            "duration": 0.09090900000000346,
            "durationTicks": 96,
            "midi": 68,
            "name": "G#4",
            "ticks": 56256,
            "time": 53.272674,
            "velocity": 0.47244094488188976
          },
          {
            "duration": 0.09090900000000346,
            "durationTicks": 96,
            "midi": 66,
            "name": "F#4",
            "ticks": 56448,
            "time": 53.454492,
            "velocity": 0.47244094488188976
          },
          {
            "duration": 0.09090900000000346,
            "durationTicks": 96,
            "midi": 66,
            "name": "F#4",
            "ticks": 56832,
            "time": 53.818128,
            "velocity": 0.47244094488188976
          },
          {
            "duration": 0.09090900000000346,
            "durationTicks": 96,
            "midi": 68,
            "name": "G#4",
            "ticks": 57024,
            "time": 53.999946,
            "velocity": 0.47244094488188976
          },
          {
            "duration": 0.09090900000000346,
            "durationTicks": 96,
            "midi": 66,
            "name": "F#4",
            "ticks": 57408,
            "time": 54.363582,
            "velocity": 0.47244094488188976
          },
          {
            "duration": 0.09090900000000346,
            "durationTicks": 96,
            "midi": 68,
            "name": "G#4",
            "ticks": 57600,
            "time": 54.5454,
            "velocity": 0.47244094488188976
          },
          {
            "duration": 0.09090900000000346,
            "durationTicks": 96,
            "midi": 70,
            "name": "A#4",
            "ticks": 57792,
            "time": 54.727218,
            "velocity": 0.47244094488188976
          },
          {
            "duration": 0.09090900000000346,
            "durationTicks": 96,
            "midi": 68,
            "name": "G#4",
            "ticks": 57984,
            "time": 54.909036,
            "velocity": 0.47244094488188976
          },
          {
            "duration": 0.09090900000000346,
            "durationTicks": 96,
            "midi": 66,
            "name": "F#4",
            "ticks": 58368,
            "time": 55.272672,
            "velocity": 0.47244094488188976
          },
          {
            "duration": 0.09090900000000346,
            "durationTicks": 96,
            "midi": 61,
            "name": "C#4",
            "ticks": 58752,
            "time": 55.636308,
            "velocity": 0.47244094488188976
          },
          {
            "duration": 0.09090900000000346,
            "durationTicks": 96,
            "midi": 70,
            "name": "A#4",
            "ticks": 59136,
            "time": 55.999944,
            "velocity": 0.47244094488188976
          },
          {
            "duration": 0.09090900000000346,
            "durationTicks": 96,
            "midi": 68,
            "name": "G#4",
            "ticks": 59328,
            "time": 56.181762,
            "velocity": 0.47244094488188976
          },
          {
            "duration": 0.09090900000000346,
            "durationTicks": 96,
            "midi": 66,
            "name": "F#4",
            "ticks": 59520,
            "time": 56.36358,
            "velocity": 0.47244094488188976
          },
          {
            "duration": 0.09090899999999635,
            "durationTicks": 96,
            "midi": 68,
            "name": "G#4",
            "ticks": 60096,
            "time": 56.909034000000005,
            "velocity": 0.47244094488188976
          },
          {
            "duration": 0.09090899999999635,
            "durationTicks": 96,
            "midi": 66,
            "name": "F#4",
            "ticks": 60480,
            "time": 57.272670000000005,
            "velocity": 0.47244094488188976
          },
          {
            "duration": 0.09090899999999635,
            "durationTicks": 96,
            "midi": 68,
            "name": "G#4",
            "ticks": 60672,
            "time": 57.454488000000005,
            "velocity": 0.47244094488188976
          },
          {
            "duration": 0.09090899999999635,
            "durationTicks": 96,
            "midi": 68,
            "name": "G#4",
            "ticks": 61056,
            "time": 57.818124000000005,
            "velocity": 0.47244094488188976
          },
          {
            "duration": 0.09090899999999635,
            "durationTicks": 96,
            "midi": 70,
            "name": "A#4",
            "ticks": 61440,
            "time": 58.181760000000004,
            "velocity": 0.47244094488188976
          },
          {
            "duration": 0.09090899999999635,
            "durationTicks": 96,
            "midi": 73,
            "name": "C#5",
            "ticks": 61824,
            "time": 58.545396000000004,
            "velocity": 0.47244094488188976
          },
          {
            "duration": 0.09090899999999635,
            "durationTicks": 96,
            "midi": 71,
            "name": "B4",
            "ticks": 62208,
            "time": 58.909032,
            "velocity": 0.47244094488188976
          },
          {
            "duration": 0.09090899999999635,
            "durationTicks": 96,
            "midi": 70,
            "name": "A#4",
            "ticks": 62400,
            "time": 59.09085,
            "velocity": 0.47244094488188976
          },
          {
            "duration": 0.09090899999999635,
            "durationTicks": 96,
            "midi": 66,
            "name": "F#4",
            "ticks": 62592,
            "time": 59.272668,
            "velocity": 0.47244094488188976
          },
          {
            "duration": 0.09090899999999635,
            "durationTicks": 96,
            "midi": 66,
            "name": "F#4",
            "ticks": 62976,
            "time": 59.636304,
            "velocity": 0.47244094488188976
          },
          {
            "duration": 0.09090900000000346,
            "durationTicks": 96,
            "midi": 68,
            "name": "G#4",
            "ticks": 63168,
            "time": 59.818122,
            "velocity": 0.47244094488188976
          },
          {
            "duration": 0.09090900000000346,
            "durationTicks": 96,
            "midi": 68,
            "name": "G#4",
            "ticks": 63552,
            "time": 60.181758,
            "velocity": 0.47244094488188976
          },
          {
            "duration": 0.09090900000000346,
            "durationTicks": 96,
            "midi": 70,
            "name": "A#4",
            "ticks": 63744,
            "time": 60.363576,
            "velocity": 0.47244094488188976
          },
          {
            "duration": 0.09090900000000346,
            "durationTicks": 96,
            "midi": 68,
            "name": "G#4",
            "ticks": 64128,
            "time": 60.727212,
            "velocity": 0.47244094488188976
          },
          {
            "duration": 0.09090900000000346,
            "durationTicks": 96,
            "midi": 66,
            "name": "F#4",
            "ticks": 64512,
            "time": 61.090848,
            "velocity": 0.47244094488188976
          },
          {
            "duration": 0.09090900000000346,
            "durationTicks": 96,
            "midi": 68,
            "name": "G#4",
            "ticks": 64896,
            "time": 61.454484,
            "velocity": 0.47244094488188976
          },
          {
            "duration": 0.09090900000000346,
            "durationTicks": 96,
            "midi": 68,
            "name": "G#4",
            "ticks": 65280,
            "time": 61.81812,
            "velocity": 0.47244094488188976
          },
          {
            "duration": 0.09090900000000346,
            "durationTicks": 96,
            "midi": 68,
            "name": "G#4",
            "ticks": 65664,
            "time": 62.181756,
            "velocity": 0.47244094488188976
          },
          {
            "duration": 0.09090900000000346,
            "durationTicks": 96,
            "midi": 70,
            "name": "A#4",
            "ticks": 65856,
            "time": 62.363574,
            "velocity": 0.47244094488188976
          },
          {
            "duration": 0.09090900000000346,
            "durationTicks": 96,
            "midi": 61,
            "name": "C#4",
            "ticks": 66048,
            "time": 62.545392,
            "velocity": 0.47244094488188976
          },
          {
            "duration": 0.09090900000000346,
            "durationTicks": 96,
            "midi": 61,
            "name": "C#4",
            "ticks": 66240,
            "time": 62.72721,
            "velocity": 0.47244094488188976
          },
          {
            "duration": 0.09090900000000346,
            "durationTicks": 96,
            "midi": 73,
            "name": "C#5",
            "ticks": 66624,
            "time": 63.090846,
            "velocity": 0.47244094488188976
          },
          {
            "duration": 0.09090899999999635,
            "durationTicks": 96,
            "midi": 73,
            "name": "C#5",
            "ticks": 67008,
            "time": 63.454482000000006,
            "velocity": 0.47244094488188976
          },
          {
            "duration": 0.09090899999999635,
            "durationTicks": 96,
            "midi": 73,
            "name": "C#5",
            "ticks": 67392,
            "time": 63.818118000000005,
            "velocity": 0.47244094488188976
          },
          {
            "duration": 0.09090899999999635,
            "durationTicks": 96,
            "midi": 73,
            "name": "C#5",
            "ticks": 67584,
            "time": 63.999936000000005,
            "velocity": 0.47244094488188976
          },
          {
            "duration": 0.09090899999999635,
            "durationTicks": 96,
            "midi": 68,
            "name": "G#4",
            "ticks": 67968,
            "time": 64.363572,
            "velocity": 0.47244094488188976
          },
          {
            "duration": 0.09090899999999635,
            "durationTicks": 96,
            "midi": 68,
            "name": "G#4",
            "ticks": 68352,
            "time": 64.727208,
            "velocity": 0.47244094488188976
          },
          {
            "duration": 0.09090899999999635,
            "durationTicks": 96,
            "midi": 68,
            "name": "G#4",
            "ticks": 68736,
            "time": 65.090844,
            "velocity": 0.47244094488188976
          },
          {
            "duration": 0.09090900000001056,
            "durationTicks": 96,
            "midi": 70,
            "name": "A#4",
            "ticks": 68928,
            "time": 65.272662,
            "velocity": 0.47244094488188976
          },
          {
            "duration": 0.09090899999999635,
            "durationTicks": 96,
            "midi": 61,
            "name": "C#4",
            "ticks": 69120,
            "time": 65.45448,
            "velocity": 0.47244094488188976
          },
          {
            "duration": 0.09090900000001056,
            "durationTicks": 96,
            "midi": 61,
            "name": "C#4",
            "ticks": 69312,
            "time": 65.636298,
            "velocity": 0.47244094488188976
          },
          {
            "duration": 0.09090900000001056,
            "durationTicks": 96,
            "midi": 63,
            "name": "D#4",
            "ticks": 69696,
            "time": 65.999934,
            "velocity": 0.47244094488188976
          },
          {
            "duration": 0.09090899999999635,
            "durationTicks": 96,
            "midi": 61,
            "name": "C#4",
            "ticks": 69888,
            "time": 66.181752,
            "velocity": 0.47244094488188976
          },
          {
            "duration": 0.09090899999999635,
            "durationTicks": 96,
            "midi": 70,
            "name": "A#4",
            "ticks": 71040,
            "time": 67.27266,
            "velocity": 0.47244094488188976
          },
          {
            "duration": 0.09090899999999635,
            "durationTicks": 96,
            "midi": 70,
            "name": "A#4",
            "ticks": 71424,
            "time": 67.636296,
            "velocity": 0.47244094488188976
          },
          {
            "duration": 0.09090899999999635,
            "durationTicks": 96,
            "midi": 70,
            "name": "A#4",
            "ticks": 71808,
            "time": 67.999932,
            "velocity": 0.47244094488188976
          },
          {
            "duration": 0.09090899999999635,
            "durationTicks": 96,
            "midi": 73,
            "name": "C#5",
            "ticks": 72000,
            "time": 68.18175000000001,
            "velocity": 0.47244094488188976
          },
          {
            "duration": 0.09090899999999635,
            "durationTicks": 96,
            "midi": 70,
            "name": "A#4",
            "ticks": 72192,
            "time": 68.363568,
            "velocity": 0.47244094488188976
          },
          {
            "duration": 0.09090899999999635,
            "durationTicks": 96,
            "midi": 68,
            "name": "G#4",
            "ticks": 72384,
            "time": 68.54538600000001,
            "velocity": 0.47244094488188976
          },
          {
            "duration": 0.09090899999999635,
            "durationTicks": 96,
            "midi": 85,
            "name": "C#6",
            "ticks": 72768,
            "time": 68.90902200000001,
            "velocity": 0.47244094488188976
          },
          {
            "duration": 0.09090899999999635,
            "durationTicks": 96,
            "midi": 85,
            "name": "C#6",
            "ticks": 73152,
            "time": 69.272658,
            "velocity": 0.47244094488188976
          },
          {
            "duration": 0.09090899999999635,
            "durationTicks": 96,
            "midi": 85,
            "name": "C#6",
            "ticks": 73536,
            "time": 69.636294,
            "velocity": 0.47244094488188976
          },
          {
            "duration": 0.09090900000001056,
            "durationTicks": 96,
            "midi": 85,
            "name": "C#6",
            "ticks": 73728,
            "time": 69.818112,
            "velocity": 0.47244094488188976
          },
          {
            "duration": 0.09090900000001056,
            "durationTicks": 96,
            "midi": 68,
            "name": "G#4",
            "ticks": 74112,
            "time": 70.181748,
            "velocity": 0.47244094488188976
          },
          {
            "duration": 0.09090900000001056,
            "durationTicks": 96,
            "midi": 68,
            "name": "G#4",
            "ticks": 74496,
            "time": 70.545384,
            "velocity": 0.47244094488188976
          },
          {
            "duration": 0.09090900000001056,
            "durationTicks": 96,
            "midi": 68,
            "name": "G#4",
            "ticks": 74880,
            "time": 70.90902,
            "velocity": 0.47244094488188976
          },
          {
            "duration": 0.09090899999999635,
            "durationTicks": 96,
            "midi": 70,
            "name": "A#4",
            "ticks": 75072,
            "time": 71.090838,
            "velocity": 0.47244094488188976
          },
          {
            "duration": 0.09090900000001056,
            "durationTicks": 96,
            "midi": 61,
            "name": "C#4",
            "ticks": 75264,
            "time": 71.272656,
            "velocity": 0.47244094488188976
          },
          {
            "duration": 0.09090899999999635,
            "durationTicks": 96,
            "midi": 61,
            "name": "C#4",
            "ticks": 75456,
            "time": 71.454474,
            "velocity": 0.47244094488188976
          },
          {
            "duration": 0.09090899999999635,
            "durationTicks": 96,
            "midi": 63,
            "name": "D#4",
            "ticks": 75840,
            "time": 71.81811,
            "velocity": 0.47244094488188976
          },
          {
            "duration": 0.09090900000001056,
            "durationTicks": 96,
            "midi": 61,
            "name": "C#4",
            "ticks": 76032,
            "time": 71.999928,
            "velocity": 0.47244094488188976
          },
          {
            "duration": 0.09090899999999635,
            "durationTicks": 96,
            "midi": 73,
            "name": "C#5",
            "ticks": 76992,
            "time": 72.909018,
            "velocity": 0.47244094488188976
          },
          {
            "duration": 0.09090900000001056,
            "durationTicks": 96,
            "midi": 78,
            "name": "F#5",
            "ticks": 77184,
            "time": 73.090836,
            "velocity": 0.47244094488188976
          },
          {
            "duration": 0.09090899999999635,
            "durationTicks": 96,
            "midi": 78,
            "name": "F#5",
            "ticks": 77376,
            "time": 73.272654,
            "velocity": 0.47244094488188976
          },
          {
            "duration": 0.09090899999999635,
            "durationTicks": 96,
            "midi": 78,
            "name": "F#5",
            "ticks": 77568,
            "time": 73.45447200000001,
            "velocity": 0.47244094488188976
          },
          {
            "duration": 0.09090899999999635,
            "durationTicks": 96,
            "midi": 78,
            "name": "F#5",
            "ticks": 77760,
            "time": 73.63629,
            "velocity": 0.47244094488188976
          },
          {
            "duration": 0.09090899999999635,
            "durationTicks": 96,
            "midi": 78,
            "name": "F#5",
            "ticks": 77952,
            "time": 73.81810800000001,
            "velocity": 0.47244094488188976
          },
          {
            "duration": 0.09090899999999635,
            "durationTicks": 96,
            "midi": 78,
            "name": "F#5",
            "ticks": 78336,
            "time": 74.18174400000001,
            "velocity": 0.47244094488188976
          },
          {
            "duration": 0.09090899999999635,
            "durationTicks": 96,
            "midi": 78,
            "name": "F#5",
            "ticks": 78528,
            "time": 74.363562,
            "velocity": 0.47244094488188976
          },
          {
            "duration": 0.09090899999999635,
            "durationTicks": 96,
            "midi": 80,
            "name": "G#5",
            "ticks": 78720,
            "time": 74.54538000000001,
            "velocity": 0.47244094488188976
          },
          {
            "duration": 0.09090899999999635,
            "durationTicks": 96,
            "midi": 82,
            "name": "A#5",
            "ticks": 78912,
            "time": 74.727198,
            "velocity": 0.47244094488188976
          },
          {
            "duration": 0.09090899999999635,
            "durationTicks": 96,
            "midi": 82,
            "name": "A#5",
            "ticks": 79296,
            "time": 75.090834,
            "velocity": 0.47244094488188976
          },
          {
            "duration": 0.09090899999999635,
            "durationTicks": 96,
            "midi": 85,
            "name": "C#6",
            "ticks": 80256,
            "time": 75.99992400000001,
            "velocity": 0.47244094488188976
          },
          {
            "duration": 0.09090899999999635,
            "durationTicks": 96,
            "midi": 78,
            "name": "F#5",
            "ticks": 80448,
            "time": 76.181742,
            "velocity": 0.47244094488188976
          },
          {
            "duration": 0.09090899999999635,
            "durationTicks": 96,
            "midi": 78,
            "name": "F#5",
            "ticks": 80640,
            "time": 76.36356,
            "velocity": 0.47244094488188976
          },
          {
            "duration": 0.09090900000001056,
            "durationTicks": 96,
            "midi": 78,
            "name": "F#5",
            "ticks": 80832,
            "time": 76.545378,
            "velocity": 0.47244094488188976
          },
          {
            "duration": 0.09090899999999635,
            "durationTicks": 96,
            "midi": 78,
            "name": "F#5",
            "ticks": 81024,
            "time": 76.727196,
            "velocity": 0.47244094488188976
          },
          {
            "duration": 0.09090899999999635,
            "durationTicks": 96,
            "midi": 78,
            "name": "F#5",
            "ticks": 81408,
            "time": 77.090832,
            "velocity": 0.47244094488188976
          },
          {
            "duration": 0.09090899999999635,
            "durationTicks": 96,
            "midi": 82,
            "name": "A#5",
            "ticks": 81792,
            "time": 77.454468,
            "velocity": 0.47244094488188976
          },
          {
            "duration": 0.09090900000001056,
            "durationTicks": 96,
            "midi": 80,
            "name": "G#5",
            "ticks": 81984,
            "time": 77.636286,
            "velocity": 0.47244094488188976
          },
          {
            "duration": 0.09090900000001056,
            "durationTicks": 96,
            "midi": 78,
            "name": "F#5",
            "ticks": 82368,
            "time": 77.999922,
            "velocity": 0.47244094488188976
          },
          {
            "duration": 0.09090899999999635,
            "durationTicks": 96,
            "midi": 77,
            "name": "F5",
            "ticks": 83328,
            "time": 78.909012,
            "velocity": 0.47244094488188976
          },
          {
            "duration": 0.09090899999999635,
            "durationTicks": 96,
            "midi": 75,
            "name": "D#5",
            "ticks": 83712,
            "time": 79.272648,
            "velocity": 0.47244094488188976
          },
          {
            "duration": 0.09090900000001056,
            "durationTicks": 96,
            "midi": 73,
            "name": "C#5",
            "ticks": 83904,
            "time": 79.454466,
            "velocity": 0.47244094488188976
          },
          {
            "duration": 0.09090899999999635,
            "durationTicks": 96,
            "midi": 73,
            "name": "C#5",
            "ticks": 84672,
            "time": 80.18173800000001,
            "velocity": 0.47244094488188976
          },
          {
            "duration": 0.09090899999999635,
            "durationTicks": 96,
            "midi": 73,
            "name": "C#5",
            "ticks": 84864,
            "time": 80.363556,
            "velocity": 0.47244094488188976
          },
          {
            "duration": 0.09090899999999635,
            "durationTicks": 96,
            "midi": 73,
            "name": "C#5",
            "ticks": 85056,
            "time": 80.54537400000001,
            "velocity": 0.47244094488188976
          },
          {
            "duration": 0.09090899999999635,
            "durationTicks": 96,
            "midi": 73,
            "name": "C#5",
            "ticks": 85440,
            "time": 80.90901000000001,
            "velocity": 0.47244094488188976
          },
          {
            "duration": 0.09090899999999635,
            "durationTicks": 96,
            "midi": 75,
            "name": "D#5",
            "ticks": 85632,
            "time": 81.090828,
            "velocity": 0.47244094488188976
          },
          {
            "duration": 0.09090899999999635,
            "durationTicks": 96,
            "midi": 77,
            "name": "F5",
            "ticks": 85824,
            "time": 81.27264600000001,
            "velocity": 0.47244094488188976
          },
          {
            "duration": 0.09090899999999635,
            "durationTicks": 96,
            "midi": 78,
            "name": "F#5",
            "ticks": 86016,
            "time": 81.454464,
            "velocity": 0.47244094488188976
          },
          {
            "duration": 0.09090899999999635,
            "durationTicks": 96,
            "midi": 75,
            "name": "D#5",
            "ticks": 86400,
            "time": 81.8181,
            "velocity": 0.47244094488188976
          },
          {
            "duration": 0.09090899999999635,
            "durationTicks": 96,
            "midi": 73,
            "name": "C#5",
            "ticks": 86592,
            "time": 81.99991800000001,
            "velocity": 0.47244094488188976
          },
          {
            "duration": 0.09090899999999635,
            "durationTicks": 96,
            "midi": 73,
            "name": "C#5",
            "ticks": 87744,
            "time": 83.090826,
            "velocity": 0.47244094488188976
          },
          {
            "duration": 0.09090900000001056,
            "durationTicks": 96,
            "midi": 75,
            "name": "D#5",
            "ticks": 87936,
            "time": 83.272644,
            "velocity": 0.47244094488188976
          },
          {
            "duration": 0.09090899999999635,
            "durationTicks": 96,
            "midi": 73,
            "name": "C#5",
            "ticks": 88128,
            "time": 83.454462,
            "velocity": 0.47244094488188976
          },
          {
            "duration": 0.09090900000001056,
            "durationTicks": 96,
            "midi": 78,
            "name": "F#5",
            "ticks": 88320,
            "time": 83.63628,
            "velocity": 0.47244094488188976
          },
          {
            "duration": 0.09090900000001056,
            "durationTicks": 96,
            "midi": 75,
            "name": "D#5",
            "ticks": 88704,
            "time": 83.999916,
            "velocity": 0.47244094488188976
          },
          {
            "duration": 0.09090899999999635,
            "durationTicks": 96,
            "midi": 73,
            "name": "C#5",
            "ticks": 88896,
            "time": 84.181734,
            "velocity": 0.47244094488188976
          },
          {
            "duration": 0.09090900000001056,
            "durationTicks": 96,
            "midi": 66,
            "name": "F#4",
            "ticks": 89088,
            "time": 84.363552,
            "velocity": 0.47244094488188976
          },
          {
            "duration": 0.09090899999999635,
            "durationTicks": 96,
            "midi": 66,
            "name": "F#4",
            "ticks": 89280,
            "time": 84.54537,
            "velocity": 0.47244094488188976
          },
          {
            "duration": 0.09090900000001056,
            "durationTicks": 96,
            "midi": 66,
            "name": "F#4",
            "ticks": 89472,
            "time": 84.727188,
            "velocity": 0.47244094488188976
          },
          {
            "duration": 0.09090899999999635,
            "durationTicks": 96,
            "midi": 66,
            "name": "F#4",
            "ticks": 89664,
            "time": 84.909006,
            "velocity": 0.47244094488188976
          },
          {
            "duration": 0.09090900000001056,
            "durationTicks": 96,
            "midi": 66,
            "name": "F#4",
            "ticks": 89856,
            "time": 85.090824,
            "velocity": 0.47244094488188976
          },
          {
            "duration": 0.09090900000001056,
            "durationTicks": 96,
            "midi": 66,
            "name": "F#4",
            "ticks": 90240,
            "time": 85.45446,
            "velocity": 0.47244094488188976
          },
          {
            "duration": 0.09090900000001056,
            "durationTicks": 96,
            "midi": 68,
            "name": "G#4",
            "ticks": 90624,
            "time": 85.818096,
            "velocity": 0.47244094488188976
          },
          {
            "duration": 0.09090899999999635,
            "durationTicks": 96,
            "midi": 70,
            "name": "A#4",
            "ticks": 90816,
            "time": 85.999914,
            "velocity": 0.47244094488188976
          },
          {
            "duration": 0.09090899999999635,
            "durationTicks": 96,
            "midi": 70,
            "name": "A#4",
            "ticks": 91200,
            "time": 86.36355,
            "velocity": 0.47244094488188976
          },
          {
            "duration": 0.09090899999999635,
            "durationTicks": 96,
            "midi": 61,
            "name": "C#4",
            "ticks": 91968,
            "time": 87.090822,
            "velocity": 0.47244094488188976
          },
          {
            "duration": 0.09090899999999635,
            "durationTicks": 96,
            "midi": 66,
            "name": "F#4",
            "ticks": 92160,
            "time": 87.27264000000001,
            "velocity": 0.47244094488188976
          },
          {
            "duration": 0.09090899999999635,
            "durationTicks": 96,
            "midi": 66,
            "name": "F#4",
            "ticks": 92352,
            "time": 87.454458,
            "velocity": 0.47244094488188976
          },
          {
            "duration": 0.09090899999999635,
            "durationTicks": 96,
            "midi": 66,
            "name": "F#4",
            "ticks": 92544,
            "time": 87.63627600000001,
            "velocity": 0.47244094488188976
          },
          {
            "duration": 0.09090899999999635,
            "durationTicks": 96,
            "midi": 66,
            "name": "F#4",
            "ticks": 92736,
            "time": 87.818094,
            "velocity": 0.47244094488188976
          },
          {
            "duration": 0.09090899999999635,
            "durationTicks": 96,
            "midi": 66,
            "name": "F#4",
            "ticks": 92928,
            "time": 87.99991200000001,
            "velocity": 0.47244094488188976
          },
          {
            "duration": 0.09090899999999635,
            "durationTicks": 96,
            "midi": 66,
            "name": "F#4",
            "ticks": 93312,
            "time": 88.36354800000001,
            "velocity": 0.47244094488188976
          },
          {
            "duration": 0.09090899999999635,
            "durationTicks": 96,
            "midi": 73,
            "name": "C#5",
            "ticks": 93696,
            "time": 88.72718400000001,
            "velocity": 0.47244094488188976
          },
          {
            "duration": 0.09090899999999635,
            "durationTicks": 96,
            "midi": 71,
            "name": "B4",
            "ticks": 93888,
            "time": 88.909002,
            "velocity": 0.47244094488188976
          },
          {
            "duration": 0.09090899999999635,
            "durationTicks": 96,
            "midi": 70,
            "name": "A#4",
            "ticks": 94272,
            "time": 89.272638,
            "velocity": 0.47244094488188976
          },
          {
            "duration": 0.09090899999999635,
            "durationTicks": 96,
            "midi": 65,
            "name": "F4",
            "ticks": 95232,
            "time": 90.181728,
            "velocity": 0.47244094488188976
          },
          {
            "duration": 0.09090899999999635,
            "durationTicks": 96,
            "midi": 68,
            "name": "G#4",
            "ticks": 95616,
            "time": 90.545364,
            "velocity": 0.47244094488188976
          },
          {
            "duration": 0.09090900000001056,
            "durationTicks": 96,
            "midi": 61,
            "name": "C#4",
            "ticks": 95808,
            "time": 90.727182,
            "velocity": 0.47244094488188976
          },
          {
            "duration": 0.09090899999999635,
            "durationTicks": 96,
            "midi": 61,
            "name": "C#4",
            "ticks": 97152,
            "time": 91.999908,
            "velocity": 0.47244094488188976
          },
          {
            "duration": 0.09090900000001056,
            "durationTicks": 96,
            "midi": 61,
            "name": "C#4",
            "ticks": 97344,
            "time": 92.181726,
            "velocity": 0.47244094488188976
          },
          {
            "duration": 0.09090900000001056,
            "durationTicks": 96,
            "midi": 61,
            "name": "C#4",
            "ticks": 97728,
            "time": 92.545362,
            "velocity": 0.47244094488188976
          },
          {
            "duration": 0.09090899999999635,
            "durationTicks": 96,
            "midi": 70,
            "name": "A#4",
            "ticks": 97920,
            "time": 92.72718,
            "velocity": 0.47244094488188976
          },
          {
            "duration": 0.09090900000001056,
            "durationTicks": 96,
            "midi": 68,
            "name": "G#4",
            "ticks": 98112,
            "time": 92.908998,
            "velocity": 0.47244094488188976
          },
          {
            "duration": 0.09090899999999635,
            "durationTicks": 96,
            "midi": 66,
            "name": "F#4",
            "ticks": 98304,
            "time": 93.090816,
            "velocity": 0.47244094488188976
          },
          {
            "duration": 0.09090899999999635,
            "durationTicks": 96,
            "midi": 82,
            "name": "A#5",
            "ticks": 100224,
            "time": 94.908996,
            "velocity": 0.47244094488188976
          },
          {
            "duration": 0.09090899999999635,
            "durationTicks": 96,
            "midi": 70,
            "name": "A#4",
            "ticks": 100224,
            "time": 94.908996,
            "velocity": 0.47244094488188976
          },
          {
            "duration": 0.09090899999999635,
            "durationTicks": 96,
            "midi": 82,
            "name": "A#5",
            "ticks": 100608,
            "time": 95.272632,
            "velocity": 0.47244094488188976
          },
          {
            "duration": 0.09090899999999635,
            "durationTicks": 96,
            "midi": 70,
            "name": "A#4",
            "ticks": 100608,
            "time": 95.272632,
            "velocity": 0.47244094488188976
          },
          {
            "duration": 0.09090899999999635,
            "durationTicks": 96,
            "midi": 68,
            "name": "G#4",
            "ticks": 100992,
            "time": 95.636268,
            "velocity": 0.47244094488188976
          },
          {
            "duration": 0.09090899999999635,
            "durationTicks": 96,
            "midi": 80,
            "name": "G#5",
            "ticks": 100992,
            "time": 95.636268,
            "velocity": 0.47244094488188976
          },
          {
            "duration": 0.09090899999999635,
            "durationTicks": 96,
            "midi": 58,
            "name": "A#3",
            "ticks": 101376,
            "time": 95.999904,
            "velocity": 0.47244094488188976
          },
          {
            "duration": 0.09090899999999635,
            "durationTicks": 96,
            "midi": 61,
            "name": "C#4",
            "ticks": 101376,
            "time": 95.999904,
            "velocity": 0.47244094488188976
          },
          {
            "duration": 0.09090900000001056,
            "durationTicks": 96,
            "midi": 66,
            "name": "F#4",
            "ticks": 101760,
            "time": 96.36354,
            "velocity": 0.47244094488188976
          },
          {
            "duration": 0.09090900000001056,
            "durationTicks": 96,
            "midi": 70,
            "name": "A#4",
            "ticks": 101760,
            "time": 96.36354,
            "velocity": 0.47244094488188976
          },
          {
            "duration": 0.09090899999999635,
            "durationTicks": 96,
            "midi": 68,
            "name": "G#4",
            "ticks": 101952,
            "time": 96.54535800000001,
            "velocity": 0.47244094488188976
          },
          {
            "duration": 0.09090900000001056,
            "durationTicks": 96,
            "midi": 66,
            "name": "F#4",
            "ticks": 102144,
            "time": 96.727176,
            "velocity": 0.47244094488188976
          },
          {
            "duration": 0.09090900000001056,
            "durationTicks": 96,
            "midi": 58,
            "name": "A#3",
            "ticks": 102144,
            "time": 96.727176,
            "velocity": 0.47244094488188976
          },
          {
            "duration": 0.09090899999999635,
            "durationTicks": 96,
            "midi": 65,
            "name": "F4",
            "ticks": 102720,
            "time": 97.27263,
            "velocity": 0.47244094488188976
          },
          {
            "duration": 0.09090899999999635,
            "durationTicks": 96,
            "midi": 68,
            "name": "G#4",
            "ticks": 102720,
            "time": 97.27263,
            "velocity": 0.47244094488188976
          },
          {
            "duration": 0.09090899999999635,
            "durationTicks": 96,
            "midi": 63,
            "name": "D#4",
            "ticks": 103104,
            "time": 97.636266,
            "velocity": 0.47244094488188976
          },
          {
            "duration": 0.09090899999999635,
            "durationTicks": 96,
            "midi": 66,
            "name": "F#4",
            "ticks": 103104,
            "time": 97.636266,
            "velocity": 0.47244094488188976
          },
          {
            "duration": 0.09090900000001056,
            "durationTicks": 96,
            "midi": 68,
            "name": "G#4",
            "ticks": 103296,
            "time": 97.818084,
            "velocity": 0.47244094488188976
          },
          {
            "duration": 0.09090900000001056,
            "durationTicks": 96,
            "midi": 65,
            "name": "F4",
            "ticks": 103296,
            "time": 97.818084,
            "velocity": 0.47244094488188976
          },
          {
            "duration": 0.09090899999999635,
            "durationTicks": 96,
            "midi": 63,
            "name": "D#4",
            "ticks": 103488,
            "time": 97.999902,
            "velocity": 0.47244094488188976
          },
          {
            "duration": 0.09090899999999635,
            "durationTicks": 96,
            "midi": 66,
            "name": "F#4",
            "ticks": 103488,
            "time": 97.999902,
            "velocity": 0.47244094488188976
          },
          {
            "duration": 0.09090900000001056,
            "durationTicks": 96,
            "midi": 65,
            "name": "F4",
            "ticks": 103680,
            "time": 98.18172,
            "velocity": 0.47244094488188976
          },
          {
            "duration": 0.09090900000001056,
            "durationTicks": 96,
            "midi": 68,
            "name": "G#4",
            "ticks": 103680,
            "time": 98.18172,
            "velocity": 0.47244094488188976
          },
          {
            "duration": 0.09090900000001056,
            "durationTicks": 96,
            "midi": 66,
            "name": "F#4",
            "ticks": 104064,
            "time": 98.545356,
            "velocity": 0.47244094488188976
          },
          {
            "duration": 0.09090900000001056,
            "durationTicks": 96,
            "midi": 70,
            "name": "A#4",
            "ticks": 104064,
            "time": 98.545356,
            "velocity": 0.47244094488188976
          },
          {
            "duration": 0.09090900000001056,
            "durationTicks": 96,
            "midi": 54,
            "name": "F#3",
            "ticks": 104448,
            "time": 98.908992,
            "velocity": 0.47244094488188976
          },
          {
            "duration": 0.09090900000001056,
            "durationTicks": 96,
            "midi": 63,
            "name": "D#4",
            "ticks": 104448,
            "time": 98.908992,
            "velocity": 0.47244094488188976
          },
          {
            "duration": 0.09090900000001056,
            "durationTicks": 96,
            "midi": 70,
            "name": "A#4",
            "ticks": 104832,
            "time": 99.272628,
            "velocity": 0.47244094488188976
          },
          {
            "duration": 0.09090900000001056,
            "durationTicks": 96,
            "midi": 66,
            "name": "F#4",
            "ticks": 104832,
            "time": 99.272628,
            "velocity": 0.47244094488188976
          },
          {
            "duration": 0.09090899999999635,
            "durationTicks": 96,
            "midi": 68,
            "name": "G#4",
            "ticks": 105024,
            "time": 99.454446,
            "velocity": 0.47244094488188976
          },
          {
            "duration": 0.09090900000001056,
            "durationTicks": 96,
            "midi": 66,
            "name": "F#4",
            "ticks": 105216,
            "time": 99.636264,
            "velocity": 0.47244094488188976
          },
          {
            "duration": 0.09090900000001056,
            "durationTicks": 96,
            "midi": 63,
            "name": "D#4",
            "ticks": 105216,
            "time": 99.636264,
            "velocity": 0.47244094488188976
          },
          {
            "duration": 0.09090899999999635,
            "durationTicks": 96,
            "midi": 66,
            "name": "F#4",
            "ticks": 105600,
            "time": 99.99990000000001,
            "velocity": 0.47244094488188976
          },
          {
            "duration": 0.09090899999999635,
            "durationTicks": 96,
            "midi": 63,
            "name": "D#4",
            "ticks": 105792,
            "time": 100.181718,
            "velocity": 0.47244094488188976
          },
          {
            "duration": 0.09090899999999635,
            "durationTicks": 96,
            "midi": 68,
            "name": "G#4",
            "ticks": 105792,
            "time": 100.181718,
            "velocity": 0.47244094488188976
          },
          {
            "duration": 0.09090899999999635,
            "durationTicks": 96,
            "midi": 66,
            "name": "F#4",
            "ticks": 106176,
            "time": 100.545354,
            "velocity": 0.47244094488188976
          },
          {
            "duration": 0.09090899999999635,
            "durationTicks": 96,
            "midi": 63,
            "name": "D#4",
            "ticks": 106368,
            "time": 100.72717200000001,
            "velocity": 0.47244094488188976
          },
          {
            "duration": 0.09090899999999635,
            "durationTicks": 96,
            "midi": 68,
            "name": "G#4",
            "ticks": 106368,
            "time": 100.72717200000001,
            "velocity": 0.47244094488188976
          },
          {
            "duration": 0.09090899999999635,
            "durationTicks": 96,
            "midi": 70,
            "name": "A#4",
            "ticks": 106560,
            "time": 100.90899,
            "velocity": 0.47244094488188976
          },
          {
            "duration": 0.09090899999999635,
            "durationTicks": 96,
            "midi": 63,
            "name": "D#4",
            "ticks": 106752,
            "time": 101.09080800000001,
            "velocity": 0.47244094488188976
          },
          {
            "duration": 0.09090899999999635,
            "durationTicks": 96,
            "midi": 68,
            "name": "G#4",
            "ticks": 106752,
            "time": 101.09080800000001,
            "velocity": 0.47244094488188976
          },
          {
            "duration": 0.09090899999999635,
            "durationTicks": 96,
            "midi": 63,
            "name": "D#4",
            "ticks": 107136,
            "time": 101.45444400000001,
            "velocity": 0.47244094488188976
          },
          {
            "duration": 0.09090899999999635,
            "durationTicks": 96,
            "midi": 66,
            "name": "F#4",
            "ticks": 107136,
            "time": 101.45444400000001,
            "velocity": 0.47244094488188976
          },
          {
            "duration": 0.09090899999999635,
            "durationTicks": 96,
            "midi": 58,
            "name": "A#3",
            "ticks": 107520,
            "time": 101.81808000000001,
            "velocity": 0.47244094488188976
          },
          {
            "duration": 0.09090899999999635,
            "durationTicks": 96,
            "midi": 61,
            "name": "C#4",
            "ticks": 107520,
            "time": 101.81808000000001,
            "velocity": 0.47244094488188976
          },
          {
            "duration": 0.09090899999999635,
            "durationTicks": 96,
            "midi": 70,
            "name": "A#4",
            "ticks": 107904,
            "time": 102.18171600000001,
            "velocity": 0.47244094488188976
          },
          {
            "duration": 0.09090899999999635,
            "durationTicks": 96,
            "midi": 66,
            "name": "F#4",
            "ticks": 107904,
            "time": 102.18171600000001,
            "velocity": 0.47244094488188976
          },
          {
            "duration": 0.09090899999999635,
            "durationTicks": 96,
            "midi": 68,
            "name": "G#4",
            "ticks": 108096,
            "time": 102.363534,
            "velocity": 0.47244094488188976
          },
          {
            "duration": 0.09090899999999635,
            "durationTicks": 96,
            "midi": 66,
            "name": "F#4",
            "ticks": 108288,
            "time": 102.54535200000001,
            "velocity": 0.47244094488188976
          },
          {
            "duration": 0.09090899999999635,
            "durationTicks": 96,
            "midi": 58,
            "name": "A#3",
            "ticks": 108288,
            "time": 102.54535200000001,
            "velocity": 0.47244094488188976
          },
          {
            "duration": 0.09090900000001056,
            "durationTicks": 96,
            "midi": 65,
            "name": "F4",
            "ticks": 108864,
            "time": 103.090806,
            "velocity": 0.47244094488188976
          },
          {
            "duration": 0.09090900000001056,
            "durationTicks": 96,
            "midi": 68,
            "name": "G#4",
            "ticks": 108864,
            "time": 103.090806,
            "velocity": 0.47244094488188976
          },
          {
            "duration": 0.09090900000001056,
            "durationTicks": 96,
            "midi": 65,
            "name": "F4",
            "ticks": 108864,
            "time": 103.090806,
            "velocity": 0.47244094488188976
          },
          {
            "duration": 0.09090900000001056,
            "durationTicks": 96,
            "midi": 66,
            "name": "F#4",
            "ticks": 109248,
            "time": 103.454442,
            "velocity": 0.47244094488188976
          },
          {
            "duration": 0.09090900000001056,
            "durationTicks": 96,
            "midi": 63,
            "name": "D#4",
            "ticks": 109248,
            "time": 103.454442,
            "velocity": 0.47244094488188976
          },
          {
            "duration": 0.09090899999999635,
            "durationTicks": 96,
            "midi": 65,
            "name": "F4",
            "ticks": 109440,
            "time": 103.63626000000001,
            "velocity": 0.47244094488188976
          },
          {
            "duration": 0.09090899999999635,
            "durationTicks": 96,
            "midi": 68,
            "name": "G#4",
            "ticks": 109440,
            "time": 103.63626000000001,
            "velocity": 0.47244094488188976
          },
          {
            "duration": 0.09090899999999635,
            "durationTicks": 96,
            "midi": 68,
            "name": "G#4",
            "ticks": 109824,
            "time": 103.999896,
            "velocity": 0.47244094488188976
          },
          {
            "duration": 0.09090899999999635,
            "durationTicks": 96,
            "midi": 65,
            "name": "F4",
            "ticks": 109824,
            "time": 103.999896,
            "velocity": 0.47244094488188976
          },
          {
            "duration": 0.09090899999999635,
            "durationTicks": 96,
            "midi": 66,
            "name": "F#4",
            "ticks": 110208,
            "time": 104.363532,
            "velocity": 0.47244094488188976
          },
          {
            "duration": 0.09090899999999635,
            "durationTicks": 96,
            "midi": 70,
            "name": "A#4",
            "ticks": 110208,
            "time": 104.363532,
            "velocity": 0.47244094488188976
          },
          {
            "duration": 0.09090899999999635,
            "durationTicks": 96,
            "midi": 70,
            "name": "A#4",
            "ticks": 110592,
            "time": 104.727168,
            "velocity": 0.47244094488188976
          },
          {
            "duration": 0.09090899999999635,
            "durationTicks": 96,
            "midi": 73,
            "name": "C#5",
            "ticks": 110592,
            "time": 104.727168,
            "velocity": 0.47244094488188976
          },
          {
            "duration": 0.09090899999999635,
            "durationTicks": 96,
            "midi": 68,
            "name": "G#4",
            "ticks": 110976,
            "time": 105.090804,
            "velocity": 0.47244094488188976
          },
          {
            "duration": 0.09090899999999635,
            "durationTicks": 96,
            "midi": 71,
            "name": "B4",
            "ticks": 110976,
            "time": 105.090804,
            "velocity": 0.47244094488188976
          },
          {
            "duration": 0.09090900000001056,
            "durationTicks": 96,
            "midi": 66,
            "name": "F#4",
            "ticks": 111168,
            "time": 105.272622,
            "velocity": 0.47244094488188976
          },
          {
            "duration": 0.09090900000001056,
            "durationTicks": 96,
            "midi": 70,
            "name": "A#4",
            "ticks": 111168,
            "time": 105.272622,
            "velocity": 0.47244094488188976
          },
          {
            "duration": 0.09090899999999635,
            "durationTicks": 96,
            "midi": 63,
            "name": "D#4",
            "ticks": 111360,
            "time": 105.45444,
            "velocity": 0.47244094488188976
          },
          {
            "duration": 0.09090899999999635,
            "durationTicks": 96,
            "midi": 66,
            "name": "F#4",
            "ticks": 111360,
            "time": 105.45444,
            "velocity": 0.47244094488188976
          },
          {
            "duration": 0.09090899999999635,
            "durationTicks": 96,
            "midi": 66,
            "name": "F#4",
            "ticks": 111744,
            "time": 105.818076,
            "velocity": 0.47244094488188976
          },
          {
            "duration": 0.09090900000001056,
            "durationTicks": 96,
            "midi": 68,
            "name": "G#4",
            "ticks": 111936,
            "time": 105.999894,
            "velocity": 0.47244094488188976
          },
          {
            "duration": 0.09090900000001056,
            "durationTicks": 96,
            "midi": 63,
            "name": "D#4",
            "ticks": 111936,
            "time": 105.999894,
            "velocity": 0.47244094488188976
          },
          {
            "duration": 0.09090900000001056,
            "durationTicks": 96,
            "midi": 68,
            "name": "G#4",
            "ticks": 112320,
            "time": 106.36353,
            "velocity": 0.47244094488188976
          },
          {
            "duration": 0.09090899999999635,
            "durationTicks": 96,
            "midi": 70,
            "name": "A#4",
            "ticks": 112512,
            "time": 106.545348,
            "velocity": 0.47244094488188976
          },
          {
            "duration": 0.454544999999996,
            "durationTicks": 480,
            "midi": 63,
            "name": "D#4",
            "ticks": 112896,
            "time": 106.908984,
            "velocity": 0.47244094488188976
          },
          {
            "duration": 0.09090899999999635,
            "durationTicks": 96,
            "midi": 68,
            "name": "G#4",
            "ticks": 112896,
            "time": 106.908984,
            "velocity": 0.47244094488188976
          },
          {
            "duration": 0.09090899999999635,
            "durationTicks": 96,
            "midi": 66,
            "name": "F#4",
            "ticks": 113280,
            "time": 107.27262,
            "velocity": 0.47244094488188976
          },
          {
            "duration": 0.09090899999999635,
            "durationTicks": 96,
            "midi": 70,
            "name": "A#4",
            "ticks": 113664,
            "time": 107.636256,
            "velocity": 0.47244094488188976
          },
          {
            "duration": 0.09090899999999635,
            "durationTicks": 96,
            "midi": 82,
            "name": "A#5",
            "ticks": 113664,
            "time": 107.636256,
            "velocity": 0.47244094488188976
          },
          {
            "duration": 0.09090899999999635,
            "durationTicks": 96,
            "midi": 70,
            "name": "A#4",
            "ticks": 113952,
            "time": 107.908983,
            "velocity": 0.47244094488188976
          },
          {
            "duration": 0.09090899999999635,
            "durationTicks": 96,
            "midi": 82,
            "name": "A#5",
            "ticks": 113952,
            "time": 107.908983,
            "velocity": 0.47244094488188976
          },
          {
            "duration": 0.09090899999999635,
            "durationTicks": 96,
            "midi": 70,
            "name": "A#4",
            "ticks": 114240,
            "time": 108.18171000000001,
            "velocity": 0.47244094488188976
          },
          {
            "duration": 0.09090899999999635,
            "durationTicks": 96,
            "midi": 82,
            "name": "A#5",
            "ticks": 114240,
            "time": 108.18171000000001,
            "velocity": 0.47244094488188976
          },
          {
            "duration": 0.09090900000001056,
            "durationTicks": 96,
            "midi": 83,
            "name": "B5",
            "ticks": 114528,
            "time": 108.454437,
            "velocity": 0.47244094488188976
          },
          {
            "duration": 0.09090900000001056,
            "durationTicks": 96,
            "midi": 71,
            "name": "B4",
            "ticks": 114528,
            "time": 108.454437,
            "velocity": 0.47244094488188976
          },
          {
            "duration": 0.09090899999999635,
            "durationTicks": 96,
            "midi": 66,
            "name": "F#4",
            "ticks": 114816,
            "time": 108.727164,
            "velocity": 0.47244094488188976
          },
          {
            "duration": 0.09090899999999635,
            "durationTicks": 96,
            "midi": 78,
            "name": "F#5",
            "ticks": 114816,
            "time": 108.727164,
            "velocity": 0.47244094488188976
          },
          {
            "duration": 0.09090899999999635,
            "durationTicks": 96,
            "midi": 70,
            "name": "A#4",
            "ticks": 115008,
            "time": 108.90898200000001,
            "velocity": 0.47244094488188976
          },
          {
            "duration": 0.09090899999999635,
            "durationTicks": 96,
            "midi": 82,
            "name": "A#5",
            "ticks": 115008,
            "time": 108.90898200000001,
            "velocity": 0.47244094488188976
          },
          {
            "duration": 0.09090899999999635,
            "durationTicks": 96,
            "midi": 68,
            "name": "G#4",
            "ticks": 115200,
            "time": 109.0908,
            "velocity": 0.47244094488188976
          },
          {
            "duration": 0.09090899999999635,
            "durationTicks": 96,
            "midi": 80,
            "name": "G#5",
            "ticks": 115200,
            "time": 109.0908,
            "velocity": 0.47244094488188976
          },
          {
            "duration": 0.09090899999999635,
            "durationTicks": 96,
            "midi": 80,
            "name": "G#5",
            "ticks": 115488,
            "time": 109.363527,
            "velocity": 0.47244094488188976
          },
          {
            "duration": 0.09090899999999635,
            "durationTicks": 96,
            "midi": 68,
            "name": "G#4",
            "ticks": 115488,
            "time": 109.363527,
            "velocity": 0.47244094488188976
          },
          {
            "duration": 0.09090899999999635,
            "durationTicks": 96,
            "midi": 68,
            "name": "G#4",
            "ticks": 115776,
            "time": 109.63625400000001,
            "velocity": 0.47244094488188976
          },
          {
            "duration": 0.09090899999999635,
            "durationTicks": 96,
            "midi": 80,
            "name": "G#5",
            "ticks": 115776,
            "time": 109.63625400000001,
            "velocity": 0.47244094488188976
          },
          {
            "duration": 0.09090899999999635,
            "durationTicks": 96,
            "midi": 70,
            "name": "A#4",
            "ticks": 116064,
            "time": 109.90898100000001,
            "velocity": 0.47244094488188976
          },
          {
            "duration": 0.09090899999999635,
            "durationTicks": 96,
            "midi": 82,
            "name": "A#5",
            "ticks": 116064,
            "time": 109.90898100000001,
            "velocity": 0.47244094488188976
          },
          {
            "duration": 0.09090900000001056,
            "durationTicks": 96,
            "midi": 73,
            "name": "C#5",
            "ticks": 116352,
            "time": 110.181708,
            "velocity": 0.47244094488188976
          },
          {
            "duration": 0.09090900000001056,
            "durationTicks": 96,
            "midi": 61,
            "name": "C#4",
            "ticks": 116352,
            "time": 110.181708,
            "velocity": 0.47244094488188976
          },
          {
            "duration": 0.09090899999999635,
            "durationTicks": 96,
            "midi": 80,
            "name": "G#5",
            "ticks": 116544,
            "time": 110.36352600000001,
            "velocity": 0.47244094488188976
          },
          {
            "duration": 0.09090899999999635,
            "durationTicks": 96,
            "midi": 68,
            "name": "G#4",
            "ticks": 116544,
            "time": 110.36352600000001,
            "velocity": 0.47244094488188976
          },
          {
            "duration": 0.09090900000001056,
            "durationTicks": 96,
            "midi": 78,
            "name": "F#5",
            "ticks": 116736,
            "time": 110.545344,
            "velocity": 0.47244094488188976
          },
          {
            "duration": 0.09090900000001056,
            "durationTicks": 96,
            "midi": 66,
            "name": "F#4",
            "ticks": 116736,
            "time": 110.545344,
            "velocity": 0.47244094488188976
          },
          {
            "duration": 0.09090899999999635,
            "durationTicks": 96,
            "midi": 78,
            "name": "F#5",
            "ticks": 117024,
            "time": 110.818071,
            "velocity": 0.47244094488188976
          },
          {
            "duration": 0.09090899999999635,
            "durationTicks": 96,
            "midi": 66,
            "name": "F#4",
            "ticks": 117024,
            "time": 110.818071,
            "velocity": 0.47244094488188976
          },
          {
            "duration": 0.09090899999999635,
            "durationTicks": 96,
            "midi": 66,
            "name": "F#4",
            "ticks": 117312,
            "time": 111.090798,
            "velocity": 0.47244094488188976
          },
          {
            "duration": 0.09090899999999635,
            "durationTicks": 96,
            "midi": 78,
            "name": "F#5",
            "ticks": 117312,
            "time": 111.090798,
            "velocity": 0.47244094488188976
          },
          {
            "duration": 0.09090899999999635,
            "durationTicks": 96,
            "midi": 78,
            "name": "F#5",
            "ticks": 117600,
            "time": 111.36352500000001,
            "velocity": 0.47244094488188976
          },
          {
            "duration": 0.09090899999999635,
            "durationTicks": 96,
            "midi": 66,
            "name": "F#4",
            "ticks": 117600,
            "time": 111.36352500000001,
            "velocity": 0.47244094488188976
          },
          {
            "duration": 0.09090900000001056,
            "durationTicks": 96,
            "midi": 73,
            "name": "C#5",
            "ticks": 117888,
            "time": 111.636252,
            "velocity": 0.47244094488188976
          },
          {
            "duration": 0.09090900000001056,
            "durationTicks": 96,
            "midi": 61,
            "name": "C#4",
            "ticks": 117888,
            "time": 111.636252,
            "velocity": 0.47244094488188976
          },
          {
            "duration": 0.09090899999999635,
            "durationTicks": 96,
            "midi": 80,
            "name": "G#5",
            "ticks": 118080,
            "time": 111.81807,
            "velocity": 0.47244094488188976
          },
          {
            "duration": 0.09090899999999635,
            "durationTicks": 96,
            "midi": 68,
            "name": "G#4",
            "ticks": 118080,
            "time": 111.81807,
            "velocity": 0.47244094488188976
          },
          {
            "duration": 0.09090900000001056,
            "durationTicks": 96,
            "midi": 66,
            "name": "F#4",
            "ticks": 118272,
            "time": 111.999888,
            "velocity": 0.47244094488188976
          },
          {
            "duration": 0.09090900000001056,
            "durationTicks": 96,
            "midi": 78,
            "name": "F#5",
            "ticks": 118272,
            "time": 111.999888,
            "velocity": 0.47244094488188976
          },
          {
            "duration": 0.09090899999999635,
            "durationTicks": 96,
            "midi": 78,
            "name": "F#5",
            "ticks": 118560,
            "time": 112.272615,
            "velocity": 0.47244094488188976
          },
          {
            "duration": 0.09090899999999635,
            "durationTicks": 96,
            "midi": 66,
            "name": "F#4",
            "ticks": 118560,
            "time": 112.272615,
            "velocity": 0.47244094488188976
          },
          {
            "duration": 0.09090899999999635,
            "durationTicks": 96,
            "midi": 66,
            "name": "F#4",
            "ticks": 118848,
            "time": 112.545342,
            "velocity": 0.47244094488188976
          },
          {
            "duration": 0.09090899999999635,
            "durationTicks": 96,
            "midi": 78,
            "name": "F#5",
            "ticks": 118848,
            "time": 112.545342,
            "velocity": 0.47244094488188976
          },
          {
            "duration": 0.09090899999999635,
            "durationTicks": 96,
            "midi": 77,
            "name": "F5",
            "ticks": 119136,
            "time": 112.81806900000001,
            "velocity": 0.47244094488188976
          },
          {
            "duration": 0.09090899999999635,
            "durationTicks": 96,
            "midi": 65,
            "name": "F4",
            "ticks": 119136,
            "time": 112.81806900000001,
            "velocity": 0.47244094488188976
          },
          {
            "duration": 0.09090899999999635,
            "durationTicks": 96,
            "midi": 78,
            "name": "F#5",
            "ticks": 119424,
            "time": 113.09079600000001,
            "velocity": 0.47244094488188976
          },
          {
            "duration": 0.09090899999999635,
            "durationTicks": 96,
            "midi": 66,
            "name": "F#4",
            "ticks": 119424,
            "time": 113.09079600000001,
            "velocity": 0.47244094488188976
          },
          {
            "duration": 0.09090899999999635,
            "durationTicks": 96,
            "midi": 68,
            "name": "G#4",
            "ticks": 119616,
            "time": 113.272614,
            "velocity": 0.47244094488188976
          },
          {
            "duration": 0.09090899999999635,
            "durationTicks": 96,
            "midi": 80,
            "name": "G#5",
            "ticks": 119616,
            "time": 113.272614,
            "velocity": 0.47244094488188976
          },
          {
            "duration": 0.09090899999999635,
            "durationTicks": 96,
            "midi": 82,
            "name": "A#5",
            "ticks": 119808,
            "time": 113.45443200000001,
            "velocity": 0.47244094488188976
          },
          {
            "duration": 0.09090899999999635,
            "durationTicks": 96,
            "midi": 70,
            "name": "A#4",
            "ticks": 119808,
            "time": 113.45443200000001,
            "velocity": 0.47244094488188976
          },
          {
            "duration": 0.09090900000001056,
            "durationTicks": 96,
            "midi": 82,
            "name": "A#5",
            "ticks": 120096,
            "time": 113.727159,
            "velocity": 0.47244094488188976
          },
          {
            "duration": 0.09090900000001056,
            "durationTicks": 96,
            "midi": 70,
            "name": "A#4",
            "ticks": 120096,
            "time": 113.727159,
            "velocity": 0.47244094488188976
          },
          {
            "duration": 0.09090899999999635,
            "durationTicks": 96,
            "midi": 82,
            "name": "A#5",
            "ticks": 120384,
            "time": 113.999886,
            "velocity": 0.47244094488188976
          },
          {
            "duration": 0.09090899999999635,
            "durationTicks": 96,
            "midi": 70,
            "name": "A#4",
            "ticks": 120384,
            "time": 113.999886,
            "velocity": 0.47244094488188976
          },
          {
            "duration": 0.09090899999999635,
            "durationTicks": 96,
            "midi": 71,
            "name": "B4",
            "ticks": 120672,
            "time": 114.272613,
            "velocity": 0.47244094488188976
          },
          {
            "duration": 0.09090899999999635,
            "durationTicks": 96,
            "midi": 83,
            "name": "B5",
            "ticks": 120672,
            "time": 114.272613,
            "velocity": 0.47244094488188976
          },
          {
            "duration": 0.09090899999999635,
            "durationTicks": 96,
            "midi": 66,
            "name": "F#4",
            "ticks": 120960,
            "time": 114.54534000000001,
            "velocity": 0.47244094488188976
          },
          {
            "duration": 0.09090899999999635,
            "durationTicks": 96,
            "midi": 78,
            "name": "F#5",
            "ticks": 120960,
            "time": 114.54534000000001,
            "velocity": 0.47244094488188976
          },
          {
            "duration": 0.09090899999999635,
            "durationTicks": 96,
            "midi": 70,
            "name": "A#4",
            "ticks": 121152,
            "time": 114.727158,
            "velocity": 0.47244094488188976
          },
          {
            "duration": 0.09090899999999635,
            "durationTicks": 96,
            "midi": 82,
            "name": "A#5",
            "ticks": 121152,
            "time": 114.727158,
            "velocity": 0.47244094488188976
          },
          {
            "duration": 0.09090899999999635,
            "durationTicks": 96,
            "midi": 68,
            "name": "G#4",
            "ticks": 121344,
            "time": 114.90897600000001,
            "velocity": 0.47244094488188976
          },
          {
            "duration": 0.09090899999999635,
            "durationTicks": 96,
            "midi": 80,
            "name": "G#5",
            "ticks": 121344,
            "time": 114.90897600000001,
            "velocity": 0.47244094488188976
          },
          {
            "duration": 0.09090900000001056,
            "durationTicks": 96,
            "midi": 80,
            "name": "G#5",
            "ticks": 121632,
            "time": 115.181703,
            "velocity": 0.47244094488188976
          },
          {
            "duration": 0.09090900000001056,
            "durationTicks": 96,
            "midi": 68,
            "name": "G#4",
            "ticks": 121632,
            "time": 115.181703,
            "velocity": 0.47244094488188976
          },
          {
            "duration": 0.09090899999999635,
            "durationTicks": 96,
            "midi": 68,
            "name": "G#4",
            "ticks": 121920,
            "time": 115.45443,
            "velocity": 0.47244094488188976
          },
          {
            "duration": 0.09090899999999635,
            "durationTicks": 96,
            "midi": 80,
            "name": "G#5",
            "ticks": 121920,
            "time": 115.45443,
            "velocity": 0.47244094488188976
          },
          {
            "duration": 0.09090899999999635,
            "durationTicks": 96,
            "midi": 85,
            "name": "C#6",
            "ticks": 122208,
            "time": 115.727157,
            "velocity": 0.47244094488188976
          },
          {
            "duration": 0.09090899999999635,
            "durationTicks": 96,
            "midi": 73,
            "name": "C#5",
            "ticks": 122208,
            "time": 115.727157,
            "velocity": 0.47244094488188976
          },
          {
            "duration": 0.09090899999999635,
            "durationTicks": 96,
            "midi": 65,
            "name": "F4",
            "ticks": 122496,
            "time": 115.99988400000001,
            "velocity": 0.47244094488188976
          },
          {
            "duration": 0.09090899999999635,
            "durationTicks": 96,
            "midi": 77,
            "name": "F5",
            "ticks": 122496,
            "time": 115.99988400000001,
            "velocity": 0.47244094488188976
          },
          {
            "duration": 0.09090899999999635,
            "durationTicks": 96,
            "midi": 68,
            "name": "G#4",
            "ticks": 122688,
            "time": 116.181702,
            "velocity": 0.47244094488188976
          },
          {
            "duration": 0.09090899999999635,
            "durationTicks": 96,
            "midi": 80,
            "name": "G#5",
            "ticks": 122688,
            "time": 116.181702,
            "velocity": 0.47244094488188976
          },
          {
            "duration": 0.09090899999999635,
            "durationTicks": 96,
            "midi": 66,
            "name": "F#4",
            "ticks": 122880,
            "time": 116.36352000000001,
            "velocity": 0.47244094488188976
          },
          {
            "duration": 0.09090899999999635,
            "durationTicks": 96,
            "midi": 78,
            "name": "F#5",
            "ticks": 122880,
            "time": 116.36352000000001,
            "velocity": 0.47244094488188976
          },
          {
            "duration": 0.09090899999999635,
            "durationTicks": 96,
            "midi": 78,
            "name": "F#5",
            "ticks": 123168,
            "time": 116.63624700000001,
            "velocity": 0.47244094488188976
          },
          {
            "duration": 0.09090899999999635,
            "durationTicks": 96,
            "midi": 66,
            "name": "F#4",
            "ticks": 123168,
            "time": 116.63624700000001,
            "velocity": 0.47244094488188976
          },
          {
            "duration": 0.09090900000001056,
            "durationTicks": 96,
            "midi": 78,
            "name": "F#5",
            "ticks": 123456,
            "time": 116.908974,
            "velocity": 0.47244094488188976
          },
          {
            "duration": 0.09090900000001056,
            "durationTicks": 96,
            "midi": 66,
            "name": "F#4",
            "ticks": 123456,
            "time": 116.908974,
            "velocity": 0.47244094488188976
          },
          {
            "duration": 0.09090899999999635,
            "durationTicks": 96,
            "midi": 68,
            "name": "G#4",
            "ticks": 123744,
            "time": 117.181701,
            "velocity": 0.47244094488188976
          },
          {
            "duration": 0.09090899999999635,
            "durationTicks": 96,
            "midi": 80,
            "name": "G#5",
            "ticks": 123744,
            "time": 117.181701,
            "velocity": 0.47244094488188976
          },
          {
            "duration": 0.09090899999999635,
            "durationTicks": 96,
            "midi": 75,
            "name": "D#5",
            "ticks": 124032,
            "time": 117.45442800000001,
            "velocity": 0.47244094488188976
          },
          {
            "duration": 0.09090899999999635,
            "durationTicks": 96,
            "midi": 63,
            "name": "D#4",
            "ticks": 124032,
            "time": 117.45442800000001,
            "velocity": 0.47244094488188976
          },
          {
            "duration": 0.09090900000001056,
            "durationTicks": 96,
            "midi": 65,
            "name": "F4",
            "ticks": 124224,
            "time": 117.636246,
            "velocity": 0.47244094488188976
          },
          {
            "duration": 0.09090900000001056,
            "durationTicks": 96,
            "midi": 77,
            "name": "F5",
            "ticks": 124224,
            "time": 117.636246,
            "velocity": 0.47244094488188976
          },
          {
            "duration": 0.09090899999999635,
            "durationTicks": 96,
            "midi": 66,
            "name": "F#4",
            "ticks": 124416,
            "time": 117.818064,
            "velocity": 0.47244094488188976
          },
          {
            "duration": 0.09090899999999635,
            "durationTicks": 96,
            "midi": 78,
            "name": "F#5",
            "ticks": 124416,
            "time": 117.818064,
            "velocity": 0.47244094488188976
          },
          {
            "duration": 0.09090899999999635,
            "durationTicks": 96,
            "midi": 66,
            "name": "F#4",
            "ticks": 124704,
            "time": 118.09079100000001,
            "velocity": 0.47244094488188976
          },
          {
            "duration": 0.09090900000001056,
            "durationTicks": 96,
            "midi": 66,
            "name": "F#4",
            "ticks": 124992,
            "time": 118.363518,
            "velocity": 0.47244094488188976
          },
          {
            "duration": 0.09090899999999635,
            "durationTicks": 96,
            "midi": 65,
            "name": "F4",
            "ticks": 125280,
            "time": 118.636245,
            "velocity": 0.47244094488188976
          },
          {
            "duration": 0.09090899999999635,
            "durationTicks": 96,
            "midi": 66,
            "name": "F#4",
            "ticks": 125568,
            "time": 118.908972,
            "velocity": 0.47244094488188976
          },
          {
            "duration": 0.09090900000001056,
            "durationTicks": 96,
            "midi": 68,
            "name": "G#4",
            "ticks": 125760,
            "time": 119.09079,
            "velocity": 0.47244094488188976
          },
          {
            "duration": 0.09090899999999635,
            "durationTicks": 96,
            "midi": 70,
            "name": "A#4",
            "ticks": 125952,
            "time": 119.272608,
            "velocity": 0.47244094488188976
          },
          {
            "duration": 0.09090899999999635,
            "durationTicks": 96,
            "midi": 70,
            "name": "A#4",
            "ticks": 126336,
            "time": 119.636244,
            "velocity": 0.47244094488188976
          },
          {
            "duration": 0.09090899999999635,
            "durationTicks": 96,
            "midi": 70,
            "name": "A#4",
            "ticks": 126528,
            "time": 119.81806200000001,
            "velocity": 0.47244094488188976
          },
          {
            "duration": 0.09090899999999635,
            "durationTicks": 96,
            "midi": 70,
            "name": "A#4",
            "ticks": 126720,
            "time": 119.99988,
            "velocity": 0.47244094488188976
          },
          {
            "duration": 0.09090899999999635,
            "durationTicks": 96,
            "midi": 68,
            "name": "G#4",
            "ticks": 127296,
            "time": 120.54533400000001,
            "velocity": 0.47244094488188976
          },
          {
            "duration": 0.09090899999999635,
            "durationTicks": 96,
            "midi": 68,
            "name": "G#4",
            "ticks": 127680,
            "time": 120.90897000000001,
            "velocity": 0.47244094488188976
          },
          {
            "duration": 0.09090899999999635,
            "durationTicks": 96,
            "midi": 68,
            "name": "G#4",
            "ticks": 127872,
            "time": 121.090788,
            "velocity": 0.47244094488188976
          },
          {
            "duration": 0.09090899999999635,
            "durationTicks": 96,
            "midi": 66,
            "name": "F#4",
            "ticks": 128064,
            "time": 121.27260600000001,
            "velocity": 0.47244094488188976
          },
          {
            "duration": 0.09090899999999635,
            "durationTicks": 96,
            "midi": 68,
            "name": "G#4",
            "ticks": 128256,
            "time": 121.454424,
            "velocity": 0.47244094488188976
          },
          {
            "duration": 0.09090899999999635,
            "durationTicks": 96,
            "midi": 70,
            "name": "A#4",
            "ticks": 128640,
            "time": 121.81806,
            "velocity": 0.47244094488188976
          },
          {
            "duration": 0.09090899999999635,
            "durationTicks": 96,
            "midi": 66,
            "name": "F#4",
            "ticks": 129024,
            "time": 122.181696,
            "velocity": 0.47244094488188976
          },
          {
            "duration": 0.09090899999999635,
            "durationTicks": 96,
            "midi": 66,
            "name": "F#4",
            "ticks": 129408,
            "time": 122.545332,
            "velocity": 0.47244094488188976
          },
          {
            "duration": 0.09090899999999635,
            "durationTicks": 96,
            "midi": 66,
            "name": "F#4",
            "ticks": 129600,
            "time": 122.72715000000001,
            "velocity": 0.47244094488188976
          },
          {
            "duration": 0.09090899999999635,
            "durationTicks": 96,
            "midi": 66,
            "name": "F#4",
            "ticks": 129792,
            "time": 122.908968,
            "velocity": 0.47244094488188976
          },
          {
            "duration": 0.09090900000001056,
            "durationTicks": 96,
            "midi": 66,
            "name": "F#4",
            "ticks": 130176,
            "time": 123.272604,
            "velocity": 0.47244094488188976
          },
          {
            "duration": 0.09090899999999635,
            "durationTicks": 96,
            "midi": 63,
            "name": "D#4",
            "ticks": 130368,
            "time": 123.45442200000001,
            "velocity": 0.47244094488188976
          },
          {
            "duration": 0.09090899999999635,
            "durationTicks": 96,
            "midi": 63,
            "name": "D#4",
            "ticks": 130752,
            "time": 123.81805800000001,
            "velocity": 0.47244094488188976
          },
          {
            "duration": 0.09090900000001056,
            "durationTicks": 96,
            "midi": 65,
            "name": "F4",
            "ticks": 130944,
            "time": 123.999876,
            "velocity": 0.47244094488188976
          },
          {
            "duration": 0.09090899999999635,
            "durationTicks": 96,
            "midi": 65,
            "name": "F4",
            "ticks": 131136,
            "time": 124.18169400000001,
            "velocity": 0.47244094488188976
          },
          {
            "duration": 0.09090900000001056,
            "durationTicks": 96,
            "midi": 66,
            "name": "F#4",
            "ticks": 131328,
            "time": 124.363512,
            "velocity": 0.47244094488188976
          },
          {
            "duration": 0.09090900000001056,
            "durationTicks": 96,
            "midi": 68,
            "name": "G#4",
            "ticks": 131712,
            "time": 124.727148,
            "velocity": 0.47244094488188976
          },
          {
            "duration": 0.09090900000001056,
            "durationTicks": 96,
            "midi": 70,
            "name": "A#4",
            "ticks": 132096,
            "time": 125.090784,
            "velocity": 0.47244094488188976
          },
          {
            "duration": 0.09090900000001056,
            "durationTicks": 96,
            "midi": 70,
            "name": "A#4",
            "ticks": 132480,
            "time": 125.45442,
            "velocity": 0.47244094488188976
          },
          {
            "duration": 0.09090899999999635,
            "durationTicks": 96,
            "midi": 70,
            "name": "A#4",
            "ticks": 132672,
            "time": 125.636238,
            "velocity": 0.47244094488188976
          },
          {
            "duration": 0.09090900000001056,
            "durationTicks": 96,
            "midi": 70,
            "name": "A#4",
            "ticks": 132864,
            "time": 125.818056,
            "velocity": 0.47244094488188976
          },
          {
            "duration": 0.09090899999999635,
            "durationTicks": 96,
            "midi": 68,
            "name": "G#4",
            "ticks": 133440,
            "time": 126.36351,
            "velocity": 0.47244094488188976
          },
          {
            "duration": 0.09090899999999635,
            "durationTicks": 96,
            "midi": 68,
            "name": "G#4",
            "ticks": 133824,
            "time": 126.727146,
            "velocity": 0.47244094488188976
          },
          {
            "duration": 0.09090899999999635,
            "durationTicks": 96,
            "midi": 73,
            "name": "C#5",
            "ticks": 134016,
            "time": 126.90896400000001,
            "velocity": 0.47244094488188976
          },
          {
            "duration": 0.09090899999999635,
            "durationTicks": 96,
            "midi": 73,
            "name": "C#5",
            "ticks": 134208,
            "time": 127.090782,
            "velocity": 0.47244094488188976
          },
          {
            "duration": 0.09090899999999635,
            "durationTicks": 96,
            "midi": 71,
            "name": "B4",
            "ticks": 134400,
            "time": 127.27260000000001,
            "velocity": 0.47244094488188976
          },
          {
            "duration": 0.09090899999999635,
            "durationTicks": 96,
            "midi": 70,
            "name": "A#4",
            "ticks": 134784,
            "time": 127.63623600000001,
            "velocity": 0.47244094488188976
          },
          {
            "duration": 0.09090899999998214,
            "durationTicks": 96,
            "midi": 66,
            "name": "F#4",
            "ticks": 135168,
            "time": 127.99987200000001,
            "velocity": 0.47244094488188976
          },
          {
            "duration": 0.09090900000001056,
            "durationTicks": 96,
            "midi": 66,
            "name": "F#4",
            "ticks": 135552,
            "time": 128.363508,
            "velocity": 0.47244094488188976
          },
          {
            "duration": 0.09090899999998214,
            "durationTicks": 96,
            "midi": 66,
            "name": "F#4",
            "ticks": 135744,
            "time": 128.54532600000002,
            "velocity": 0.47244094488188976
          },
          {
            "duration": 0.09090899999998214,
            "durationTicks": 96,
            "midi": 66,
            "name": "F#4",
            "ticks": 135936,
            "time": 128.727144,
            "velocity": 0.47244094488188976
          },
          {
            "duration": 0.09090900000001056,
            "durationTicks": 96,
            "midi": 66,
            "name": "F#4",
            "ticks": 136320,
            "time": 129.09078,
            "velocity": 0.47244094488188976
          },
          {
            "duration": 0.09090899999998214,
            "durationTicks": 96,
            "midi": 73,
            "name": "C#5",
            "ticks": 136512,
            "time": 129.27259800000002,
            "velocity": 0.47244094488188976
          },
          {
            "duration": 0.09090900000001056,
            "durationTicks": 96,
            "midi": 73,
            "name": "C#5",
            "ticks": 136896,
            "time": 129.636234,
            "velocity": 0.47244094488188976
          },
          {
            "duration": 0.09090900000001056,
            "durationTicks": 96,
            "midi": 66,
            "name": "F#4",
            "ticks": 137088,
            "time": 129.818052,
            "velocity": 0.47244094488188976
          },
          {
            "duration": 0.09090900000001056,
            "durationTicks": 96,
            "midi": 66,
            "name": "F#4",
            "ticks": 137472,
            "time": 130.181688,
            "velocity": 0.47244094488188976
          },
          {
            "duration": 0.09090900000001056,
            "durationTicks": 96,
            "midi": 65,
            "name": "F4",
            "ticks": 137856,
            "time": 130.545324,
            "velocity": 0.47244094488188976
          },
          {
            "duration": 0.09090900000001056,
            "durationTicks": 96,
            "midi": 68,
            "name": "G#4",
            "ticks": 141312,
            "time": 133.818048,
            "velocity": 0.47244094488188976
          },
          {
            "duration": 0.09090899999998214,
            "durationTicks": 96,
            "midi": 68,
            "name": "G#4",
            "ticks": 141696,
            "time": 134.18168400000002,
            "velocity": 0.47244094488188976
          },
          {
            "duration": 0.09090900000001056,
            "durationTicks": 96,
            "midi": 68,
            "name": "G#4",
            "ticks": 142080,
            "time": 134.54532,
            "velocity": 0.47244094488188976
          },
          {
            "duration": 0.09090900000001056,
            "durationTicks": 96,
            "midi": 70,
            "name": "A#4",
            "ticks": 142272,
            "time": 134.727138,
            "velocity": 0.47244094488188976
          },
          {
            "duration": 0.09090899999998214,
            "durationTicks": 96,
            "midi": 61,
            "name": "C#4",
            "ticks": 142464,
            "time": 134.90895600000002,
            "velocity": 0.47244094488188976
          },
          {
            "duration": 0.09090899999998214,
            "durationTicks": 96,
            "midi": 61,
            "name": "C#4",
            "ticks": 142656,
            "time": 135.090774,
            "velocity": 0.47244094488188976
          },
          {
            "duration": 0.09090900000001056,
            "durationTicks": 96,
            "midi": 73,
            "name": "C#5",
            "ticks": 143040,
            "time": 135.45441,
            "velocity": 0.47244094488188976
          },
          {
            "duration": 0.09090900000001056,
            "durationTicks": 96,
            "midi": 85,
            "name": "C#6",
            "ticks": 143040,
            "time": 135.45441,
            "velocity": 0.47244094488188976
          },
          {
            "duration": 0.09090899999998214,
            "durationTicks": 96,
            "midi": 73,
            "name": "C#5",
            "ticks": 143424,
            "time": 135.818046,
            "velocity": 0.47244094488188976
          },
          {
            "duration": 0.09090899999998214,
            "durationTicks": 96,
            "midi": 85,
            "name": "C#6",
            "ticks": 143424,
            "time": 135.818046,
            "velocity": 0.47244094488188976
          },
          {
            "duration": 0.09090900000001056,
            "durationTicks": 96,
            "midi": 73,
            "name": "C#5",
            "ticks": 143808,
            "time": 136.181682,
            "velocity": 0.47244094488188976
          },
          {
            "duration": 0.09090900000001056,
            "durationTicks": 96,
            "midi": 85,
            "name": "C#6",
            "ticks": 143808,
            "time": 136.181682,
            "velocity": 0.47244094488188976
          },
          {
            "duration": 0.09090899999998214,
            "durationTicks": 96,
            "midi": 73,
            "name": "C#5",
            "ticks": 144000,
            "time": 136.36350000000002,
            "velocity": 0.47244094488188976
          },
          {
            "duration": 0.09090899999998214,
            "durationTicks": 96,
            "midi": 85,
            "name": "C#6",
            "ticks": 144000,
            "time": 136.36350000000002,
            "velocity": 0.47244094488188976
          },
          {
            "duration": 0.09090900000001056,
            "durationTicks": 96,
            "midi": 68,
            "name": "G#4",
            "ticks": 144384,
            "time": 136.727136,
            "velocity": 0.47244094488188976
          },
          {
            "duration": 0.09090899999998214,
            "durationTicks": 96,
            "midi": 68,
            "name": "G#4",
            "ticks": 144768,
            "time": 137.09077200000002,
            "velocity": 0.47244094488188976
          },
          {
            "duration": 0.09090900000001056,
            "durationTicks": 96,
            "midi": 68,
            "name": "G#4",
            "ticks": 145152,
            "time": 137.454408,
            "velocity": 0.47244094488188976
          },
          {
            "duration": 0.09090900000001056,
            "durationTicks": 96,
            "midi": 70,
            "name": "A#4",
            "ticks": 145344,
            "time": 137.636226,
            "velocity": 0.47244094488188976
          },
          {
            "duration": 0.09090899999998214,
            "durationTicks": 96,
            "midi": 61,
            "name": "C#4",
            "ticks": 145536,
            "time": 137.81804400000001,
            "velocity": 0.47244094488188976
          },
          {
            "duration": 0.09090900000001056,
            "durationTicks": 96,
            "midi": 61,
            "name": "C#4",
            "ticks": 145728,
            "time": 137.999862,
            "velocity": 0.47244094488188976
          },
          {
            "duration": 0.09090900000001056,
            "durationTicks": 96,
            "midi": 63,
            "name": "D#4",
            "ticks": 146112,
            "time": 138.363498,
            "velocity": 0.47244094488188976
          },
          {
            "duration": 0.09090899999998214,
            "durationTicks": 96,
            "midi": 61,
            "name": "C#4",
            "ticks": 146304,
            "time": 138.545316,
            "velocity": 0.47244094488188976
          },
          {
            "duration": 0.09090900000001056,
            "durationTicks": 96,
            "midi": 70,
            "name": "A#4",
            "ticks": 147456,
            "time": 139.636224,
            "velocity": 0.47244094488188976
          },
          {
            "duration": 0.09090899999998214,
            "durationTicks": 96,
            "midi": 70,
            "name": "A#4",
            "ticks": 147840,
            "time": 139.99986,
            "velocity": 0.47244094488188976
          },
          {
            "duration": 0.09090900000001056,
            "durationTicks": 96,
            "midi": 70,
            "name": "A#4",
            "ticks": 148224,
            "time": 140.363496,
            "velocity": 0.47244094488188976
          },
          {
            "duration": 0.09090899999998214,
            "durationTicks": 96,
            "midi": 73,
            "name": "C#5",
            "ticks": 148416,
            "time": 140.54531400000002,
            "velocity": 0.47244094488188976
          },
          {
            "duration": 0.09090899999998214,
            "durationTicks": 96,
            "midi": 70,
            "name": "A#4",
            "ticks": 148608,
            "time": 140.727132,
            "velocity": 0.47244094488188976
          },
          {
            "duration": 0.09090900000001056,
            "durationTicks": 96,
            "midi": 68,
            "name": "G#4",
            "ticks": 148800,
            "time": 140.90895,
            "velocity": 0.47244094488188976
          },
          {
            "duration": 0.09090899999998214,
            "durationTicks": 96,
            "midi": 73,
            "name": "C#5",
            "ticks": 149184,
            "time": 141.27258600000002,
            "velocity": 0.47244094488188976
          },
          {
            "duration": 0.09090899999998214,
            "durationTicks": 96,
            "midi": 85,
            "name": "C#6",
            "ticks": 149184,
            "time": 141.27258600000002,
            "velocity": 0.47244094488188976
          },
          {
            "duration": 0.09090900000001056,
            "durationTicks": 96,
            "midi": 85,
            "name": "C#6",
            "ticks": 149568,
            "time": 141.636222,
            "velocity": 0.47244094488188976
          },
          {
            "duration": 0.09090900000001056,
            "durationTicks": 96,
            "midi": 73,
            "name": "C#5",
            "ticks": 149568,
            "time": 141.636222,
            "velocity": 0.47244094488188976
          },
          {
            "duration": 0.09090899999998214,
            "durationTicks": 96,
            "midi": 85,
            "name": "C#6",
            "ticks": 149952,
            "time": 141.99985800000002,
            "velocity": 0.47244094488188976
          },
          {
            "duration": 0.09090899999998214,
            "durationTicks": 96,
            "midi": 73,
            "name": "C#5",
            "ticks": 149952,
            "time": 141.99985800000002,
            "velocity": 0.47244094488188976
          },
          {
            "duration": 0.09090899999998214,
            "durationTicks": 96,
            "midi": 73,
            "name": "C#5",
            "ticks": 150144,
            "time": 142.181676,
            "velocity": 0.47244094488188976
          },
          {
            "duration": 0.09090899999998214,
            "durationTicks": 96,
            "midi": 85,
            "name": "C#6",
            "ticks": 150144,
            "time": 142.181676,
            "velocity": 0.47244094488188976
          },
          {
            "duration": 0.09090900000001056,
            "durationTicks": 96,
            "midi": 68,
            "name": "G#4",
            "ticks": 150528,
            "time": 142.545312,
            "velocity": 0.47244094488188976
          },
          {
            "duration": 0.09090900000001056,
            "durationTicks": 96,
            "midi": 68,
            "name": "G#4",
            "ticks": 150912,
            "time": 142.908948,
            "velocity": 0.47244094488188976
          },
          {
            "duration": 0.09090900000001056,
            "durationTicks": 96,
            "midi": 68,
            "name": "G#4",
            "ticks": 151296,
            "time": 143.272584,
            "velocity": 0.47244094488188976
          },
          {
            "duration": 0.09090899999998214,
            "durationTicks": 96,
            "midi": 70,
            "name": "A#4",
            "ticks": 151488,
            "time": 143.45440200000002,
            "velocity": 0.47244094488188976
          },
          {
            "duration": 0.09090900000001056,
            "durationTicks": 96,
            "midi": 61,
            "name": "C#4",
            "ticks": 151680,
            "time": 143.63622,
            "velocity": 0.47244094488188976
          },
          {
            "duration": 0.09090900000001056,
            "durationTicks": 96,
            "midi": 61,
            "name": "C#4",
            "ticks": 151872,
            "time": 143.818038,
            "velocity": 0.47244094488188976
          },
          {
            "duration": 0.09090900000001056,
            "durationTicks": 96,
            "midi": 70,
            "name": "A#4",
            "ticks": 152448,
            "time": 144.363492,
            "velocity": 0.47244094488188976
          },
          {
            "duration": 0.09090900000001056,
            "durationTicks": 96,
            "midi": 82,
            "name": "A#5",
            "ticks": 152448,
            "time": 144.363492,
            "velocity": 0.47244094488188976
          },
          {
            "duration": 0.09090900000001056,
            "durationTicks": 96,
            "midi": 82,
            "name": "A#5",
            "ticks": 152832,
            "time": 144.727128,
            "velocity": 0.47244094488188976
          },
          {
            "duration": 0.09090900000001056,
            "durationTicks": 96,
            "midi": 70,
            "name": "A#4",
            "ticks": 152832,
            "time": 144.727128,
            "velocity": 0.47244094488188976
          },
          {
            "duration": 0.09090900000001056,
            "durationTicks": 96,
            "midi": 68,
            "name": "G#4",
            "ticks": 153216,
            "time": 145.090764,
            "velocity": 0.47244094488188976
          },
          {
            "duration": 0.09090900000001056,
            "durationTicks": 96,
            "midi": 80,
            "name": "G#5",
            "ticks": 153216,
            "time": 145.090764,
            "velocity": 0.47244094488188976
          },
          {
            "duration": 0.09090900000001056,
            "durationTicks": 96,
            "midi": 73,
            "name": "C#5",
            "ticks": 153600,
            "time": 145.4544,
            "velocity": 0.47244094488188976
          },
          {
            "duration": 0.09090900000001056,
            "durationTicks": 96,
            "midi": 61,
            "name": "C#4",
            "ticks": 153600,
            "time": 145.4544,
            "velocity": 0.47244094488188976
          },
          {
            "duration": 0.09090900000001056,
            "durationTicks": 96,
            "midi": 66,
            "name": "F#4",
            "ticks": 153600,
            "time": 145.4544,
            "velocity": 0.47244094488188976
          },
          {
            "duration": 0.09090900000001056,
            "durationTicks": 96,
            "midi": 82,
            "name": "A#5",
            "ticks": 153984,
            "time": 145.818036,
            "velocity": 0.47244094488188976
          },
          {
            "duration": 0.09090900000001056,
            "durationTicks": 96,
            "midi": 73,
            "name": "C#5",
            "ticks": 153984,
            "time": 145.818036,
            "velocity": 0.47244094488188976
          },
          {
            "duration": 0.09090900000001056,
            "durationTicks": 96,
            "midi": 70,
            "name": "A#4",
            "ticks": 153984,
            "time": 145.818036,
            "velocity": 0.47244094488188976
          },
          {
            "duration": 0.09090900000001056,
            "durationTicks": 96,
            "midi": 68,
            "name": "G#4",
            "ticks": 154176,
            "time": 145.999854,
            "velocity": 0.47244094488188976
          },
          {
            "duration": 0.09090900000001056,
            "durationTicks": 96,
            "midi": 71,
            "name": "B4",
            "ticks": 154176,
            "time": 145.999854,
            "velocity": 0.47244094488188976
          },
          {
            "duration": 0.09090900000001056,
            "durationTicks": 96,
            "midi": 80,
            "name": "G#5",
            "ticks": 154176,
            "time": 145.999854,
            "velocity": 0.47244094488188976
          },
          {
            "duration": 0.09090900000001056,
            "durationTicks": 96,
            "midi": 70,
            "name": "A#4",
            "ticks": 154368,
            "time": 146.181672,
            "velocity": 0.47244094488188976
          },
          {
            "duration": 0.09090900000001056,
            "durationTicks": 96,
            "midi": 66,
            "name": "F#4",
            "ticks": 154368,
            "time": 146.181672,
            "velocity": 0.47244094488188976
          },
          {
            "duration": 0.09090900000001056,
            "durationTicks": 96,
            "midi": 78,
            "name": "F#5",
            "ticks": 154368,
            "time": 146.181672,
            "velocity": 0.47244094488188976
          },
          {
            "duration": 0.09090900000001056,
            "durationTicks": 96,
            "midi": 80,
            "name": "G#5",
            "ticks": 154944,
            "time": 146.727126,
            "velocity": 0.47244094488188976
          },
          {
            "duration": 0.09090900000001056,
            "durationTicks": 96,
            "midi": 78,
            "name": "F#5",
            "ticks": 154944,
            "time": 146.727126,
            "velocity": 0.47244094488188976
          },
          {
            "duration": 0.09090900000001056,
            "durationTicks": 96,
            "midi": 68,
            "name": "G#4",
            "ticks": 154944,
            "time": 146.727126,
            "velocity": 0.47244094488188976
          },
          {
            "duration": 0.09090899999998214,
            "durationTicks": 96,
            "midi": 66,
            "name": "F#4",
            "ticks": 155328,
            "time": 147.090762,
            "velocity": 0.47244094488188976
          },
          {
            "duration": 0.09090899999998214,
            "durationTicks": 96,
            "midi": 78,
            "name": "F#5",
            "ticks": 155328,
            "time": 147.090762,
            "velocity": 0.47244094488188976
          },
          {
            "duration": 0.09090899999998214,
            "durationTicks": 96,
            "midi": 75,
            "name": "D#5",
            "ticks": 155328,
            "time": 147.090762,
            "velocity": 0.47244094488188976
          },
          {
            "duration": 0.09090900000001056,
            "durationTicks": 96,
            "midi": 68,
            "name": "G#4",
            "ticks": 155520,
            "time": 147.27258,
            "velocity": 0.47244094488188976
          },
          {
            "duration": 0.09090900000001056,
            "durationTicks": 96,
            "midi": 80,
            "name": "G#5",
            "ticks": 155520,
            "time": 147.27258,
            "velocity": 0.47244094488188976
          },
          {
            "duration": 0.09090900000001056,
            "durationTicks": 96,
            "midi": 78,
            "name": "F#5",
            "ticks": 155520,
            "time": 147.27258,
            "velocity": 0.47244094488188976
          },
          {
            "duration": 0.09090900000001056,
            "durationTicks": 96,
            "midi": 66,
            "name": "F#4",
            "ticks": 155712,
            "time": 147.454398,
            "velocity": 0.47244094488188976
          },
          {
            "duration": 0.09090900000001056,
            "durationTicks": 96,
            "midi": 78,
            "name": "F#5",
            "ticks": 155712,
            "time": 147.454398,
            "velocity": 0.47244094488188976
          },
          {
            "duration": 0.09090900000001056,
            "durationTicks": 96,
            "midi": 75,
            "name": "D#5",
            "ticks": 155712,
            "time": 147.454398,
            "velocity": 0.47244094488188976
          },
          {
            "duration": 0.09090899999998214,
            "durationTicks": 96,
            "midi": 78,
            "name": "F#5",
            "ticks": 155904,
            "time": 147.63621600000002,
            "velocity": 0.47244094488188976
          },
          {
            "duration": 0.09090899999998214,
            "durationTicks": 96,
            "midi": 68,
            "name": "G#4",
            "ticks": 155904,
            "time": 147.63621600000002,
            "velocity": 0.47244094488188976
          },
          {
            "duration": 0.09090899999998214,
            "durationTicks": 96,
            "midi": 80,
            "name": "G#5",
            "ticks": 155904,
            "time": 147.63621600000002,
            "velocity": 0.47244094488188976
          },
          {
            "duration": 0.09090900000001056,
            "durationTicks": 96,
            "midi": 70,
            "name": "A#4",
            "ticks": 156288,
            "time": 147.999852,
            "velocity": 0.47244094488188976
          },
          {
            "duration": 0.09090900000001056,
            "durationTicks": 96,
            "midi": 82,
            "name": "A#5",
            "ticks": 156288,
            "time": 147.999852,
            "velocity": 0.47244094488188976
          },
          {
            "duration": 0.09090900000001056,
            "durationTicks": 96,
            "midi": 78,
            "name": "F#5",
            "ticks": 156288,
            "time": 147.999852,
            "velocity": 0.47244094488188976
          },
          {
            "duration": 0.09090899999998214,
            "durationTicks": 96,
            "midi": 63,
            "name": "D#4",
            "ticks": 156672,
            "time": 148.36348800000002,
            "velocity": 0.47244094488188976
          },
          {
            "duration": 0.09090899999998214,
            "durationTicks": 96,
            "midi": 75,
            "name": "D#5",
            "ticks": 156672,
            "time": 148.36348800000002,
            "velocity": 0.47244094488188976
          },
          {
            "duration": 0.09090899999998214,
            "durationTicks": 96,
            "midi": 66,
            "name": "F#4",
            "ticks": 156672,
            "time": 148.36348800000002,
            "velocity": 0.47244094488188976
          },
          {
            "duration": 0.09090900000001056,
            "durationTicks": 96,
            "midi": 70,
            "name": "A#4",
            "ticks": 157056,
            "time": 148.727124,
            "velocity": 0.47244094488188976
          },
          {
            "duration": 0.09090900000001056,
            "durationTicks": 96,
            "midi": 78,
            "name": "F#5",
            "ticks": 157056,
            "time": 148.727124,
            "velocity": 0.47244094488188976
          },
          {
            "duration": 0.09090900000001056,
            "durationTicks": 96,
            "midi": 82,
            "name": "A#5",
            "ticks": 157056,
            "time": 148.727124,
            "velocity": 0.47244094488188976
          },
          {
            "duration": 0.09090900000001056,
            "durationTicks": 96,
            "midi": 68,
            "name": "G#4",
            "ticks": 157248,
            "time": 148.908942,
            "velocity": 0.47244094488188976
          },
          {
            "duration": 0.09090900000001056,
            "durationTicks": 96,
            "midi": 80,
            "name": "G#5",
            "ticks": 157248,
            "time": 148.908942,
            "velocity": 0.47244094488188976
          },
          {
            "duration": 0.09090900000001056,
            "durationTicks": 96,
            "midi": 77,
            "name": "F5",
            "ticks": 157248,
            "time": 148.908942,
            "velocity": 0.47244094488188976
          },
          {
            "duration": 0.09090899999998214,
            "durationTicks": 96,
            "midi": 75,
            "name": "D#5",
            "ticks": 157440,
            "time": 149.09076000000002,
            "velocity": 0.47244094488188976
          },
          {
            "duration": 0.09090899999998214,
            "durationTicks": 96,
            "midi": 66,
            "name": "F#4",
            "ticks": 157440,
            "time": 149.09076000000002,
            "velocity": 0.47244094488188976
          },
          {
            "duration": 0.09090899999998214,
            "durationTicks": 96,
            "midi": 78,
            "name": "F#5",
            "ticks": 157440,
            "time": 149.09076000000002,
            "velocity": 0.47244094488188976
          },
          {
            "duration": 0.09090900000001056,
            "durationTicks": 96,
            "midi": 78,
            "name": "F#5",
            "ticks": 157824,
            "time": 149.454396,
            "velocity": 0.47244094488188976
          },
          {
            "duration": 0.09090900000001056,
            "durationTicks": 96,
            "midi": 66,
            "name": "F#4",
            "ticks": 157824,
            "time": 149.454396,
            "velocity": 0.47244094488188976
          },
          {
            "duration": 0.09090900000001056,
            "durationTicks": 96,
            "midi": 68,
            "name": "G#4",
            "ticks": 158016,
            "time": 149.636214,
            "velocity": 0.47244094488188976
          },
          {
            "duration": 0.09090900000001056,
            "durationTicks": 96,
            "midi": 80,
            "name": "G#5",
            "ticks": 158016,
            "time": 149.636214,
            "velocity": 0.47244094488188976
          },
          {
            "duration": 0.09090900000001056,
            "durationTicks": 96,
            "midi": 71,
            "name": "B4",
            "ticks": 158016,
            "time": 149.636214,
            "velocity": 0.47244094488188976
          },
          {
            "duration": 0.09090900000001056,
            "durationTicks": 96,
            "midi": 70,
            "name": "A#4",
            "ticks": 158400,
            "time": 149.99985,
            "velocity": 0.47244094488188976
          },
          {
            "duration": 0.09090900000001056,
            "durationTicks": 96,
            "midi": 66,
            "name": "F#4",
            "ticks": 158400,
            "time": 149.99985,
            "velocity": 0.47244094488188976
          },
          {
            "duration": 0.09090900000001056,
            "durationTicks": 96,
            "midi": 78,
            "name": "F#5",
            "ticks": 158400,
            "time": 149.99985,
            "velocity": 0.47244094488188976
          },
          {
            "duration": 0.09090900000001056,
            "durationTicks": 96,
            "midi": 71,
            "name": "B4",
            "ticks": 158592,
            "time": 150.181668,
            "velocity": 0.47244094488188976
          },
          {
            "duration": 0.09090900000001056,
            "durationTicks": 96,
            "midi": 80,
            "name": "G#5",
            "ticks": 158592,
            "time": 150.181668,
            "velocity": 0.47244094488188976
          },
          {
            "duration": 0.09090900000001056,
            "durationTicks": 96,
            "midi": 68,
            "name": "G#4",
            "ticks": 158592,
            "time": 150.181668,
            "velocity": 0.47244094488188976
          },
          {
            "duration": 0.09090900000001056,
            "durationTicks": 96,
            "midi": 78,
            "name": "F#5",
            "ticks": 158784,
            "time": 150.363486,
            "velocity": 0.47244094488188976
          },
          {
            "duration": 0.09090900000001056,
            "durationTicks": 96,
            "midi": 82,
            "name": "A#5",
            "ticks": 158784,
            "time": 150.363486,
            "velocity": 0.47244094488188976
          },
          {
            "duration": 0.09090900000001056,
            "durationTicks": 96,
            "midi": 70,
            "name": "A#4",
            "ticks": 158784,
            "time": 150.363486,
            "velocity": 0.47244094488188976
          },
          {
            "duration": 0.09090899999998214,
            "durationTicks": 96,
            "midi": 80,
            "name": "G#5",
            "ticks": 158976,
            "time": 150.54530400000002,
            "velocity": 0.47244094488188976
          },
          {
            "duration": 0.09090899999998214,
            "durationTicks": 96,
            "midi": 68,
            "name": "G#4",
            "ticks": 158976,
            "time": 150.54530400000002,
            "velocity": 0.47244094488188976
          },
          {
            "duration": 0.09090899999998214,
            "durationTicks": 96,
            "midi": 77,
            "name": "F5",
            "ticks": 158976,
            "time": 150.54530400000002,
            "velocity": 0.47244094488188976
          },
          {
            "duration": 0.09090900000001056,
            "durationTicks": 96,
            "midi": 75,
            "name": "D#5",
            "ticks": 159360,
            "time": 150.90894,
            "velocity": 0.47244094488188976
          },
          {
            "duration": 0.09090900000001056,
            "durationTicks": 96,
            "midi": 78,
            "name": "F#5",
            "ticks": 159360,
            "time": 150.90894,
            "velocity": 0.47244094488188976
          },
          {
            "duration": 0.09090900000001056,
            "durationTicks": 96,
            "midi": 66,
            "name": "F#4",
            "ticks": 159360,
            "time": 150.90894,
            "velocity": 0.47244094488188976
          },
          {
            "duration": 0.09090899999998214,
            "durationTicks": 96,
            "midi": 61,
            "name": "C#4",
            "ticks": 159744,
            "time": 151.27257600000002,
            "velocity": 0.47244094488188976
          },
          {
            "duration": 0.09090899999998214,
            "durationTicks": 96,
            "midi": 70,
            "name": "A#4",
            "ticks": 159744,
            "time": 151.27257600000002,
            "velocity": 0.47244094488188976
          },
          {
            "duration": 0.09090899999998214,
            "durationTicks": 96,
            "midi": 73,
            "name": "C#5",
            "ticks": 159744,
            "time": 151.27257600000002,
            "velocity": 0.47244094488188976
          },
          {
            "duration": 0.09090900000001056,
            "durationTicks": 96,
            "midi": 78,
            "name": "F#5",
            "ticks": 160128,
            "time": 151.636212,
            "velocity": 0.47244094488188976
          },
          {
            "duration": 0.09090900000001056,
            "durationTicks": 96,
            "midi": 70,
            "name": "A#4",
            "ticks": 160128,
            "time": 151.636212,
            "velocity": 0.47244094488188976
          },
          {
            "duration": 0.09090900000001056,
            "durationTicks": 96,
            "midi": 82,
            "name": "A#5",
            "ticks": 160128,
            "time": 151.636212,
            "velocity": 0.47244094488188976
          },
          {
            "duration": 0.09090900000001056,
            "durationTicks": 96,
            "midi": 68,
            "name": "G#4",
            "ticks": 160320,
            "time": 151.81803,
            "velocity": 0.47244094488188976
          },
          {
            "duration": 0.09090900000001056,
            "durationTicks": 96,
            "midi": 77,
            "name": "F5",
            "ticks": 160320,
            "time": 151.81803,
            "velocity": 0.47244094488188976
          },
          {
            "duration": 0.09090900000001056,
            "durationTicks": 96,
            "midi": 80,
            "name": "G#5",
            "ticks": 160320,
            "time": 151.81803,
            "velocity": 0.47244094488188976
          },
          {
            "duration": 0.09090899999998214,
            "durationTicks": 96,
            "midi": 75,
            "name": "D#5",
            "ticks": 160512,
            "time": 151.99984800000001,
            "velocity": 0.47244094488188976
          },
          {
            "duration": 0.09090899999998214,
            "durationTicks": 96,
            "midi": 78,
            "name": "F#5",
            "ticks": 160512,
            "time": 151.99984800000001,
            "velocity": 0.47244094488188976
          },
          {
            "duration": 0.09090899999998214,
            "durationTicks": 96,
            "midi": 66,
            "name": "F#4",
            "ticks": 160512,
            "time": 151.99984800000001,
            "velocity": 0.47244094488188976
          },
          {
            "duration": 0.09090900000001056,
            "durationTicks": 96,
            "midi": 78,
            "name": "F#5",
            "ticks": 161088,
            "time": 152.545302,
            "velocity": 0.47244094488188976
          },
          {
            "duration": 0.09090900000001056,
            "durationTicks": 96,
            "midi": 80,
            "name": "G#5",
            "ticks": 161088,
            "time": 152.545302,
            "velocity": 0.47244094488188976
          },
          {
            "duration": 0.09090900000001056,
            "durationTicks": 96,
            "midi": 68,
            "name": "G#4",
            "ticks": 161088,
            "time": 152.545302,
            "velocity": 0.47244094488188976
          },
          {
            "duration": 0.09090900000001056,
            "durationTicks": 96,
            "midi": 66,
            "name": "F#4",
            "ticks": 161472,
            "time": 152.908938,
            "velocity": 0.47244094488188976
          },
          {
            "duration": 0.09090900000001056,
            "durationTicks": 96,
            "midi": 75,
            "name": "D#5",
            "ticks": 161472,
            "time": 152.908938,
            "velocity": 0.47244094488188976
          },
          {
            "duration": 0.09090900000001056,
            "durationTicks": 96,
            "midi": 78,
            "name": "F#5",
            "ticks": 161472,
            "time": 152.908938,
            "velocity": 0.47244094488188976
          },
          {
            "duration": 0.09090900000001056,
            "durationTicks": 96,
            "midi": 78,
            "name": "F#5",
            "ticks": 161664,
            "time": 153.090756,
            "velocity": 0.47244094488188976
          },
          {
            "duration": 0.09090900000001056,
            "durationTicks": 96,
            "midi": 68,
            "name": "G#4",
            "ticks": 161664,
            "time": 153.090756,
            "velocity": 0.47244094488188976
          },
          {
            "duration": 0.09090900000001056,
            "durationTicks": 96,
            "midi": 80,
            "name": "G#5",
            "ticks": 161664,
            "time": 153.090756,
            "velocity": 0.47244094488188976
          },
          {
            "duration": 0.09090899999998214,
            "durationTicks": 96,
            "midi": 75,
            "name": "D#5",
            "ticks": 161856,
            "time": 153.27257400000002,
            "velocity": 0.47244094488188976
          },
          {
            "duration": 0.09090899999998214,
            "durationTicks": 96,
            "midi": 78,
            "name": "F#5",
            "ticks": 161856,
            "time": 153.27257400000002,
            "velocity": 0.47244094488188976
          },
          {
            "duration": 0.09090899999998214,
            "durationTicks": 96,
            "midi": 66,
            "name": "F#4",
            "ticks": 161856,
            "time": 153.27257400000002,
            "velocity": 0.47244094488188976
          },
          {
            "duration": 0.09090899999998214,
            "durationTicks": 96,
            "midi": 68,
            "name": "G#4",
            "ticks": 162048,
            "time": 153.454392,
            "velocity": 0.47244094488188976
          },
          {
            "duration": 0.09090899999998214,
            "durationTicks": 96,
            "midi": 80,
            "name": "G#5",
            "ticks": 162048,
            "time": 153.454392,
            "velocity": 0.47244094488188976
          },
          {
            "duration": 0.09090899999998214,
            "durationTicks": 96,
            "midi": 78,
            "name": "F#5",
            "ticks": 162048,
            "time": 153.454392,
            "velocity": 0.47244094488188976
          },
          {
            "duration": 0.09090900000001056,
            "durationTicks": 96,
            "midi": 70,
            "name": "A#4",
            "ticks": 162432,
            "time": 153.818028,
            "velocity": 0.47244094488188976
          },
          {
            "duration": 0.09090900000001056,
            "durationTicks": 96,
            "midi": 78,
            "name": "F#5",
            "ticks": 162432,
            "time": 153.818028,
            "velocity": 0.47244094488188976
          },
          {
            "duration": 0.09090900000001056,
            "durationTicks": 96,
            "midi": 82,
            "name": "A#5",
            "ticks": 162432,
            "time": 153.818028,
            "velocity": 0.47244094488188976
          },
          {
            "duration": 0.09090899999998214,
            "durationTicks": 96,
            "midi": 85,
            "name": "C#6",
            "ticks": 162816,
            "time": 154.181664,
            "velocity": 0.47244094488188976
          },
          {
            "duration": 0.09090899999998214,
            "durationTicks": 96,
            "midi": 73,
            "name": "C#5",
            "ticks": 162816,
            "time": 154.181664,
            "velocity": 0.47244094488188976
          },
          {
            "duration": 0.09090899999998214,
            "durationTicks": 96,
            "midi": 82,
            "name": "A#5",
            "ticks": 162816,
            "time": 154.181664,
            "velocity": 0.47244094488188976
          },
          {
            "duration": 0.09090900000001056,
            "durationTicks": 96,
            "midi": 71,
            "name": "B4",
            "ticks": 163200,
            "time": 154.5453,
            "velocity": 0.47244094488188976
          },
          {
            "duration": 0.09090900000001056,
            "durationTicks": 96,
            "midi": 83,
            "name": "B5",
            "ticks": 163200,
            "time": 154.5453,
            "velocity": 0.47244094488188976
          },
          {
            "duration": 0.09090900000001056,
            "durationTicks": 96,
            "midi": 80,
            "name": "G#5",
            "ticks": 163200,
            "time": 154.5453,
            "velocity": 0.47244094488188976
          },
          {
            "duration": 0.09090899999998214,
            "durationTicks": 96,
            "midi": 82,
            "name": "A#5",
            "ticks": 163392,
            "time": 154.72711800000002,
            "velocity": 0.47244094488188976
          },
          {
            "duration": 0.09090899999998214,
            "durationTicks": 96,
            "midi": 70,
            "name": "A#4",
            "ticks": 163392,
            "time": 154.72711800000002,
            "velocity": 0.47244094488188976
          },
          {
            "duration": 0.09090899999998214,
            "durationTicks": 96,
            "midi": 78,
            "name": "F#5",
            "ticks": 163392,
            "time": 154.72711800000002,
            "velocity": 0.47244094488188976
          },
          {
            "duration": 0.09090899999998214,
            "durationTicks": 96,
            "midi": 78,
            "name": "F#5",
            "ticks": 163584,
            "time": 154.908936,
            "velocity": 0.47244094488188976
          },
          {
            "duration": 0.09090899999998214,
            "durationTicks": 96,
            "midi": 75,
            "name": "D#5",
            "ticks": 163584,
            "time": 154.908936,
            "velocity": 0.47244094488188976
          },
          {
            "duration": 0.09090899999998214,
            "durationTicks": 96,
            "midi": 66,
            "name": "F#4",
            "ticks": 163584,
            "time": 154.908936,
            "velocity": 0.47244094488188976
          },
          {
            "duration": 0.09090900000001056,
            "durationTicks": 96,
            "midi": 66,
            "name": "F#4",
            "ticks": 163968,
            "time": 155.272572,
            "velocity": 0.47244094488188976
          },
          {
            "duration": 0.09090900000001056,
            "durationTicks": 96,
            "midi": 78,
            "name": "F#5",
            "ticks": 163968,
            "time": 155.272572,
            "velocity": 0.47244094488188976
          },
          {
            "duration": 0.09090899999998214,
            "durationTicks": 96,
            "midi": 71,
            "name": "B4",
            "ticks": 164160,
            "time": 155.45439000000002,
            "velocity": 0.47244094488188976
          },
          {
            "duration": 0.09090899999998214,
            "durationTicks": 96,
            "midi": 80,
            "name": "G#5",
            "ticks": 164160,
            "time": 155.45439000000002,
            "velocity": 0.47244094488188976
          },
          {
            "duration": 0.09090899999998214,
            "durationTicks": 96,
            "midi": 68,
            "name": "G#4",
            "ticks": 164160,
            "time": 155.45439000000002,
            "velocity": 0.47244094488188976
          },
          {
            "duration": 0.09090900000001056,
            "durationTicks": 96,
            "midi": 68,
            "name": "G#4",
            "ticks": 164544,
            "time": 155.818026,
            "velocity": 0.47244094488188976
          },
          {
            "duration": 0.09090900000001056,
            "durationTicks": 96,
            "midi": 71,
            "name": "B4",
            "ticks": 164544,
            "time": 155.818026,
            "velocity": 0.47244094488188976
          },
          {
            "duration": 0.09090900000001056,
            "durationTicks": 96,
            "midi": 80,
            "name": "G#5",
            "ticks": 164544,
            "time": 155.818026,
            "velocity": 0.47244094488188976
          },
          {
            "duration": 0.09090900000001056,
            "durationTicks": 96,
            "midi": 78,
            "name": "F#5",
            "ticks": 164736,
            "time": 155.999844,
            "velocity": 0.47244094488188976
          },
          {
            "duration": 0.09090900000001056,
            "durationTicks": 96,
            "midi": 82,
            "name": "A#5",
            "ticks": 164736,
            "time": 155.999844,
            "velocity": 0.47244094488188976
          },
          {
            "duration": 0.09090900000001056,
            "durationTicks": 96,
            "midi": 70,
            "name": "A#4",
            "ticks": 164736,
            "time": 155.999844,
            "velocity": 0.47244094488188976
          },
          {
            "duration": 0.09090900000001056,
            "durationTicks": 96,
            "midi": 80,
            "name": "G#5",
            "ticks": 165120,
            "time": 156.36348,
            "velocity": 0.47244094488188976
          },
          {
            "duration": 0.09090900000001056,
            "durationTicks": 96,
            "midi": 71,
            "name": "B4",
            "ticks": 165120,
            "time": 156.36348,
            "velocity": 0.47244094488188976
          },
          {
            "duration": 0.09090900000001056,
            "durationTicks": 96,
            "midi": 68,
            "name": "G#4",
            "ticks": 165120,
            "time": 156.36348,
            "velocity": 0.47244094488188976
          },
          {
            "duration": 0.454544999999996,
            "durationTicks": 480,
            "midi": 63,
            "name": "D#4",
            "ticks": 165120,
            "time": 156.36348,
            "velocity": 0.47244094488188976
          },
          {
            "duration": 0.09090900000001056,
            "durationTicks": 96,
            "midi": 75,
            "name": "D#5",
            "ticks": 165504,
            "time": 156.727116,
            "velocity": 0.47244094488188976
          },
          {
            "duration": 0.09090900000001056,
            "durationTicks": 96,
            "midi": 66,
            "name": "F#4",
            "ticks": 165504,
            "time": 156.727116,
            "velocity": 0.47244094488188976
          },
          {
            "duration": 0.09090900000001056,
            "durationTicks": 96,
            "midi": 78,
            "name": "F#5",
            "ticks": 165504,
            "time": 156.727116,
            "velocity": 0.47244094488188976
          },
          {
            "duration": 0.09090900000001056,
            "durationTicks": 96,
            "midi": 73,
            "name": "C#5",
            "ticks": 165888,
            "time": 157.090752,
            "velocity": 0.47244094488188976
          },
          {
            "duration": 0.09090900000001056,
            "durationTicks": 96,
            "midi": 85,
            "name": "C#6",
            "ticks": 165888,
            "time": 157.090752,
            "velocity": 0.47244094488188976
          },
          {
            "duration": 0.09090900000001056,
            "durationTicks": 96,
            "midi": 78,
            "name": "F#5",
            "ticks": 165888,
            "time": 157.090752,
            "velocity": 0.47244094488188976
          },
          {
            "duration": 0.09090900000001056,
            "durationTicks": 96,
            "midi": 85,
            "name": "C#6",
            "ticks": 166272,
            "time": 157.454388,
            "velocity": 0.47244094488188976
          },
          {
            "duration": 0.09090900000001056,
            "durationTicks": 96,
            "midi": 82,
            "name": "A#5",
            "ticks": 166272,
            "time": 157.454388,
            "velocity": 0.47244094488188976
          },
          {
            "duration": 0.09090900000001056,
            "durationTicks": 96,
            "midi": 94,
            "name": "A#6",
            "ticks": 166272,
            "time": 157.454388,
            "velocity": 0.47244094488188976
          },
          {
            "duration": 0.09090899999998214,
            "durationTicks": 96,
            "midi": 83,
            "name": "B5",
            "ticks": 166464,
            "time": 157.63620600000002,
            "velocity": 0.47244094488188976
          },
          {
            "duration": 0.09090899999998214,
            "durationTicks": 96,
            "midi": 80,
            "name": "G#5",
            "ticks": 166464,
            "time": 157.63620600000002,
            "velocity": 0.47244094488188976
          },
          {
            "duration": 0.09090899999998214,
            "durationTicks": 96,
            "midi": 92,
            "name": "G#6",
            "ticks": 166464,
            "time": 157.63620600000002,
            "velocity": 0.47244094488188976
          },
          {
            "duration": 0.09090900000001056,
            "durationTicks": 96,
            "midi": 90,
            "name": "F#6",
            "ticks": 166656,
            "time": 157.818024,
            "velocity": 0.47244094488188976
          },
          {
            "duration": 0.09090900000001056,
            "durationTicks": 96,
            "midi": 82,
            "name": "A#5",
            "ticks": 166656,
            "time": 157.818024,
            "velocity": 0.47244094488188976
          },
          {
            "duration": 0.09090900000001056,
            "durationTicks": 96,
            "midi": 78,
            "name": "F#5",
            "ticks": 166656,
            "time": 157.818024,
            "velocity": 0.47244094488188976
          },
          {
            "duration": 0.09090899999998214,
            "durationTicks": 96,
            "midi": 90,
            "name": "F#6",
            "ticks": 167232,
            "time": 158.36347800000001,
            "velocity": 0.47244094488188976
          },
          {
            "duration": 0.09090899999998214,
            "durationTicks": 96,
            "midi": 92,
            "name": "G#6",
            "ticks": 167232,
            "time": 158.36347800000001,
            "velocity": 0.47244094488188976
          },
          {
            "duration": 0.09090899999998214,
            "durationTicks": 96,
            "midi": 80,
            "name": "G#5",
            "ticks": 167232,
            "time": 158.36347800000001,
            "velocity": 0.47244094488188976
          },
          {
            "duration": 0.09090900000001056,
            "durationTicks": 96,
            "midi": 87,
            "name": "D#6",
            "ticks": 167616,
            "time": 158.727114,
            "velocity": 0.47244094488188976
          },
          {
            "duration": 0.09090900000001056,
            "durationTicks": 96,
            "midi": 90,
            "name": "F#6",
            "ticks": 167616,
            "time": 158.727114,
            "velocity": 0.47244094488188976
          },
          {
            "duration": 0.09090900000001056,
            "durationTicks": 96,
            "midi": 78,
            "name": "F#5",
            "ticks": 167616,
            "time": 158.727114,
            "velocity": 0.47244094488188976
          },
          {
            "duration": 0.09090900000001056,
            "durationTicks": 96,
            "midi": 92,
            "name": "G#6",
            "ticks": 167808,
            "time": 158.908932,
            "velocity": 0.47244094488188976
          },
          {
            "duration": 0.09090900000001056,
            "durationTicks": 96,
            "midi": 90,
            "name": "F#6",
            "ticks": 167808,
            "time": 158.908932,
            "velocity": 0.47244094488188976
          },
          {
            "duration": 0.09090900000001056,
            "durationTicks": 96,
            "midi": 80,
            "name": "G#5",
            "ticks": 167808,
            "time": 158.908932,
            "velocity": 0.47244094488188976
          },
          {
            "duration": 0.09090899999998214,
            "durationTicks": 96,
            "midi": 87,
            "name": "D#6",
            "ticks": 168000,
            "time": 159.09075,
            "velocity": 0.47244094488188976
          },
          {
            "duration": 0.09090899999998214,
            "durationTicks": 96,
            "midi": 90,
            "name": "F#6",
            "ticks": 168000,
            "time": 159.09075,
            "velocity": 0.47244094488188976
          },
          {
            "duration": 0.09090899999998214,
            "durationTicks": 96,
            "midi": 78,
            "name": "F#5",
            "ticks": 168000,
            "time": 159.09075,
            "velocity": 0.47244094488188976
          },
          {
            "duration": 0.09090900000001056,
            "durationTicks": 96,
            "midi": 92,
            "name": "G#6",
            "ticks": 168192,
            "time": 159.272568,
            "velocity": 0.47244094488188976
          },
          {
            "duration": 0.09090900000001056,
            "durationTicks": 96,
            "midi": 90,
            "name": "F#6",
            "ticks": 168192,
            "time": 159.272568,
            "velocity": 0.47244094488188976
          },
          {
            "duration": 0.09090900000001056,
            "durationTicks": 96,
            "midi": 80,
            "name": "G#5",
            "ticks": 168192,
            "time": 159.272568,
            "velocity": 0.47244094488188976
          },
          {
            "duration": 0.09090899999998214,
            "durationTicks": 96,
            "midi": 82,
            "name": "A#5",
            "ticks": 168576,
            "time": 159.63620400000002,
            "velocity": 0.47244094488188976
          },
          {
            "duration": 0.09090899999998214,
            "durationTicks": 96,
            "midi": 90,
            "name": "F#6",
            "ticks": 168576,
            "time": 159.63620400000002,
            "velocity": 0.47244094488188976
          },
          {
            "duration": 0.09090899999998214,
            "durationTicks": 96,
            "midi": 94,
            "name": "A#6",
            "ticks": 168576,
            "time": 159.63620400000002,
            "velocity": 0.47244094488188976
          },
          {
            "duration": 0.09090900000001056,
            "durationTicks": 96,
            "midi": 78,
            "name": "F#5",
            "ticks": 168960,
            "time": 159.99984,
            "velocity": 0.47244094488188976
          },
          {
            "duration": 0.09090900000001056,
            "durationTicks": 96,
            "midi": 75,
            "name": "D#5",
            "ticks": 168960,
            "time": 159.99984,
            "velocity": 0.47244094488188976
          },
          {
            "duration": 0.09090900000001056,
            "durationTicks": 96,
            "midi": 87,
            "name": "D#6",
            "ticks": 168960,
            "time": 159.99984,
            "velocity": 0.47244094488188976
          },
          {
            "duration": 0.09090899999998214,
            "durationTicks": 96,
            "midi": 90,
            "name": "F#6",
            "ticks": 169344,
            "time": 160.36347600000002,
            "velocity": 0.47244094488188976
          },
          {
            "duration": 0.09090899999998214,
            "durationTicks": 96,
            "midi": 94,
            "name": "A#6",
            "ticks": 169344,
            "time": 160.36347600000002,
            "velocity": 0.47244094488188976
          },
          {
            "duration": 0.09090899999998214,
            "durationTicks": 96,
            "midi": 82,
            "name": "A#5",
            "ticks": 169344,
            "time": 160.36347600000002,
            "velocity": 0.47244094488188976
          },
          {
            "duration": 0.09090899999998214,
            "durationTicks": 96,
            "midi": 80,
            "name": "G#5",
            "ticks": 169536,
            "time": 160.545294,
            "velocity": 0.47244094488188976
          },
          {
            "duration": 0.09090899999998214,
            "durationTicks": 96,
            "midi": 89,
            "name": "F6",
            "ticks": 169536,
            "time": 160.545294,
            "velocity": 0.47244094488188976
          },
          {
            "duration": 0.09090899999998214,
            "durationTicks": 96,
            "midi": 92,
            "name": "G#6",
            "ticks": 169536,
            "time": 160.545294,
            "velocity": 0.47244094488188976
          },
          {
            "duration": 0.09090900000001056,
            "durationTicks": 96,
            "midi": 90,
            "name": "F#6",
            "ticks": 169728,
            "time": 160.727112,
            "velocity": 0.47244094488188976
          },
          {
            "duration": 0.09090900000001056,
            "durationTicks": 96,
            "midi": 78,
            "name": "F#5",
            "ticks": 169728,
            "time": 160.727112,
            "velocity": 0.47244094488188976
          },
          {
            "duration": 0.09090900000001056,
            "durationTicks": 96,
            "midi": 87,
            "name": "D#6",
            "ticks": 169728,
            "time": 160.727112,
            "velocity": 0.47244094488188976
          },
          {
            "duration": 0.09090899999998214,
            "durationTicks": 96,
            "midi": 90,
            "name": "F#6",
            "ticks": 170112,
            "time": 161.09074800000002,
            "velocity": 0.47244094488188976
          },
          {
            "duration": 0.09090899999998214,
            "durationTicks": 96,
            "midi": 78,
            "name": "F#5",
            "ticks": 170112,
            "time": 161.09074800000002,
            "velocity": 0.47244094488188976
          },
          {
            "duration": 0.09090899999998214,
            "durationTicks": 96,
            "midi": 83,
            "name": "B5",
            "ticks": 170304,
            "time": 161.272566,
            "velocity": 0.47244094488188976
          },
          {
            "duration": 0.09090899999998214,
            "durationTicks": 96,
            "midi": 92,
            "name": "G#6",
            "ticks": 170304,
            "time": 161.272566,
            "velocity": 0.47244094488188976
          },
          {
            "duration": 0.09090899999998214,
            "durationTicks": 96,
            "midi": 80,
            "name": "G#5",
            "ticks": 170304,
            "time": 161.272566,
            "velocity": 0.47244094488188976
          },
          {
            "duration": 0.09090900000001056,
            "durationTicks": 96,
            "midi": 82,
            "name": "A#5",
            "ticks": 170688,
            "time": 161.636202,
            "velocity": 0.47244094488188976
          },
          {
            "duration": 0.09090900000001056,
            "durationTicks": 96,
            "midi": 90,
            "name": "F#6",
            "ticks": 170688,
            "time": 161.636202,
            "velocity": 0.47244094488188976
          },
          {
            "duration": 0.09090900000001056,
            "durationTicks": 96,
            "midi": 78,
            "name": "F#5",
            "ticks": 170688,
            "time": 161.636202,
            "velocity": 0.47244094488188976
          },
          {
            "duration": 0.09090899999998214,
            "durationTicks": 96,
            "midi": 80,
            "name": "G#5",
            "ticks": 170880,
            "time": 161.81802000000002,
            "velocity": 0.47244094488188976
          },
          {
            "duration": 0.09090899999998214,
            "durationTicks": 96,
            "midi": 83,
            "name": "B5",
            "ticks": 170880,
            "time": 161.81802000000002,
            "velocity": 0.47244094488188976
          },
          {
            "duration": 0.09090899999998214,
            "durationTicks": 96,
            "midi": 92,
            "name": "G#6",
            "ticks": 170880,
            "time": 161.81802000000002,
            "velocity": 0.47244094488188976
          },
          {
            "duration": 0.09090899999998214,
            "durationTicks": 96,
            "midi": 90,
            "name": "F#6",
            "ticks": 171072,
            "time": 161.999838,
            "velocity": 0.47244094488188976
          },
          {
            "duration": 0.09090899999998214,
            "durationTicks": 96,
            "midi": 94,
            "name": "A#6",
            "ticks": 171072,
            "time": 161.999838,
            "velocity": 0.47244094488188976
          },
          {
            "duration": 0.09090899999998214,
            "durationTicks": 96,
            "midi": 82,
            "name": "A#5",
            "ticks": 171072,
            "time": 161.999838,
            "velocity": 0.47244094488188976
          },
          {
            "duration": 0.09090900000001056,
            "durationTicks": 96,
            "midi": 89,
            "name": "F6",
            "ticks": 171264,
            "time": 162.181656,
            "velocity": 0.47244094488188976
          },
          {
            "duration": 0.09090900000001056,
            "durationTicks": 96,
            "midi": 92,
            "name": "G#6",
            "ticks": 171264,
            "time": 162.181656,
            "velocity": 0.47244094488188976
          },
          {
            "duration": 0.09090900000001056,
            "durationTicks": 96,
            "midi": 80,
            "name": "G#5",
            "ticks": 171264,
            "time": 162.181656,
            "velocity": 0.47244094488188976
          },
          {
            "duration": 0.09090899999998214,
            "durationTicks": 96,
            "midi": 90,
            "name": "F#6",
            "ticks": 171648,
            "time": 162.54529200000002,
            "velocity": 0.47244094488188976
          },
          {
            "duration": 0.09090899999998214,
            "durationTicks": 96,
            "midi": 78,
            "name": "F#5",
            "ticks": 171648,
            "time": 162.54529200000002,
            "velocity": 0.47244094488188976
          },
          {
            "duration": 0.09090899999998214,
            "durationTicks": 96,
            "midi": 87,
            "name": "D#6",
            "ticks": 171648,
            "time": 162.54529200000002,
            "velocity": 0.47244094488188976
          },
          {
            "duration": 0.09090900000001056,
            "durationTicks": 96,
            "midi": 73,
            "name": "C#5",
            "ticks": 172032,
            "time": 162.908928,
            "velocity": 0.47244094488188976
          },
          {
            "duration": 0.09090900000001056,
            "durationTicks": 96,
            "midi": 82,
            "name": "A#5",
            "ticks": 172032,
            "time": 162.908928,
            "velocity": 0.47244094488188976
          },
          {
            "duration": 0.09090900000001056,
            "durationTicks": 96,
            "midi": 85,
            "name": "C#6",
            "ticks": 172032,
            "time": 162.908928,
            "velocity": 0.47244094488188976
          },
          {
            "duration": 0.09090899999998214,
            "durationTicks": 96,
            "midi": 90,
            "name": "F#6",
            "ticks": 172416,
            "time": 163.27256400000002,
            "velocity": 0.47244094488188976
          },
          {
            "duration": 0.09090899999998214,
            "durationTicks": 96,
            "midi": 94,
            "name": "A#6",
            "ticks": 172416,
            "time": 163.27256400000002,
            "velocity": 0.47244094488188976
          },
          {
            "duration": 0.09090899999998214,
            "durationTicks": 96,
            "midi": 82,
            "name": "A#5",
            "ticks": 172416,
            "time": 163.27256400000002,
            "velocity": 0.47244094488188976
          },
          {
            "duration": 0.09090900000001056,
            "durationTicks": 96,
            "midi": 92,
            "name": "G#6",
            "ticks": 172608,
            "time": 163.454382,
            "velocity": 0.47244094488188976
          },
          {
            "duration": 0.09090900000001056,
            "durationTicks": 96,
            "midi": 80,
            "name": "G#5",
            "ticks": 172608,
            "time": 163.454382,
            "velocity": 0.47244094488188976
          },
          {
            "duration": 0.09090900000001056,
            "durationTicks": 96,
            "midi": 89,
            "name": "F6",
            "ticks": 172608,
            "time": 163.454382,
            "velocity": 0.47244094488188976
          },
          {
            "duration": 0.09090900000001056,
            "durationTicks": 96,
            "midi": 90,
            "name": "F#6",
            "ticks": 172800,
            "time": 163.6362,
            "velocity": 0.47244094488188976
          },
          {
            "duration": 0.09090900000001056,
            "durationTicks": 96,
            "midi": 87,
            "name": "D#6",
            "ticks": 172800,
            "time": 163.6362,
            "velocity": 0.47244094488188976
          },
          {
            "duration": 0.09090900000001056,
            "durationTicks": 96,
            "midi": 78,
            "name": "F#5",
            "ticks": 172800,
            "time": 163.6362,
            "velocity": 0.47244094488188976
          },
          {
            "duration": 0.09090900000001056,
            "durationTicks": 96,
            "midi": 90,
            "name": "F#6",
            "ticks": 173376,
            "time": 164.181654,
            "velocity": 0.47244094488188976
          },
          {
            "duration": 0.09090900000001056,
            "durationTicks": 96,
            "midi": 80,
            "name": "G#5",
            "ticks": 173376,
            "time": 164.181654,
            "velocity": 0.47244094488188976
          },
          {
            "duration": 0.09090900000001056,
            "durationTicks": 96,
            "midi": 92,
            "name": "G#6",
            "ticks": 173376,
            "time": 164.181654,
            "velocity": 0.47244094488188976
          },
          {
            "duration": 0.09090900000001056,
            "durationTicks": 96,
            "midi": 90,
            "name": "F#6",
            "ticks": 173760,
            "time": 164.54529,
            "velocity": 0.47244094488188976
          },
          {
            "duration": 0.09090900000001056,
            "durationTicks": 96,
            "midi": 78,
            "name": "F#5",
            "ticks": 173760,
            "time": 164.54529,
            "velocity": 0.47244094488188976
          },
          {
            "duration": 0.09090900000001056,
            "durationTicks": 96,
            "midi": 87,
            "name": "D#6",
            "ticks": 173760,
            "time": 164.54529,
            "velocity": 0.47244094488188976
          },
          {
            "duration": 0.09090899999998214,
            "durationTicks": 96,
            "midi": 80,
            "name": "G#5",
            "ticks": 173952,
            "time": 164.72710800000002,
            "velocity": 0.47244094488188976
          },
          {
            "duration": 0.09090899999998214,
            "durationTicks": 96,
            "midi": 90,
            "name": "F#6",
            "ticks": 173952,
            "time": 164.72710800000002,
            "velocity": 0.47244094488188976
          },
          {
            "duration": 0.09090899999998214,
            "durationTicks": 96,
            "midi": 92,
            "name": "G#6",
            "ticks": 173952,
            "time": 164.72710800000002,
            "velocity": 0.47244094488188976
          },
          {
            "duration": 0.09090900000001056,
            "durationTicks": 96,
            "midi": 87,
            "name": "D#6",
            "ticks": 174144,
            "time": 164.908926,
            "velocity": 0.47244094488188976
          },
          {
            "duration": 0.09090900000001056,
            "durationTicks": 96,
            "midi": 90,
            "name": "F#6",
            "ticks": 174144,
            "time": 164.908926,
            "velocity": 0.47244094488188976
          },
          {
            "duration": 0.09090900000001056,
            "durationTicks": 96,
            "midi": 78,
            "name": "F#5",
            "ticks": 174144,
            "time": 164.908926,
            "velocity": 0.47244094488188976
          },
          {
            "duration": 0.09090900000001056,
            "durationTicks": 96,
            "midi": 92,
            "name": "G#6",
            "ticks": 174336,
            "time": 165.090744,
            "velocity": 0.47244094488188976
          },
          {
            "duration": 0.09090900000001056,
            "durationTicks": 96,
            "midi": 90,
            "name": "F#6",
            "ticks": 174336,
            "time": 165.090744,
            "velocity": 0.47244094488188976
          },
          {
            "duration": 0.09090900000001056,
            "durationTicks": 96,
            "midi": 80,
            "name": "G#5",
            "ticks": 174336,
            "time": 165.090744,
            "velocity": 0.47244094488188976
          },
          {
            "duration": 0.09090899999998214,
            "durationTicks": 96,
            "midi": 82,
            "name": "A#5",
            "ticks": 174720,
            "time": 165.45438000000001,
            "velocity": 0.47244094488188976
          },
          {
            "duration": 0.09090899999998214,
            "durationTicks": 96,
            "midi": 90,
            "name": "F#6",
            "ticks": 174720,
            "time": 165.45438000000001,
            "velocity": 0.47244094488188976
          },
          {
            "duration": 0.09090899999998214,
            "durationTicks": 96,
            "midi": 94,
            "name": "A#6",
            "ticks": 174720,
            "time": 165.45438000000001,
            "velocity": 0.47244094488188976
          },
          {
            "duration": 0.09090900000001056,
            "durationTicks": 96,
            "midi": 85,
            "name": "C#6",
            "ticks": 175104,
            "time": 165.818016,
            "velocity": 0.47244094488188976
          },
          {
            "duration": 0.09090900000001056,
            "durationTicks": 96,
            "midi": 85,
            "name": "C#6",
            "ticks": 175104,
            "time": 165.818016,
            "velocity": 0.47244094488188976
          },
          {
            "duration": 0.09090900000001056,
            "durationTicks": 96,
            "midi": 94,
            "name": "A#6",
            "ticks": 175104,
            "time": 165.818016,
            "velocity": 0.47244094488188976
          },
          {
            "duration": 0.09090899999998214,
            "durationTicks": 96,
            "midi": 95,
            "name": "B6",
            "ticks": 175488,
            "time": 166.181652,
            "velocity": 0.47244094488188976
          },
          {
            "duration": 0.09090899999998214,
            "durationTicks": 96,
            "midi": 92,
            "name": "G#6",
            "ticks": 175488,
            "time": 166.181652,
            "velocity": 0.47244094488188976
          },
          {
            "duration": 0.09090899999998214,
            "durationTicks": 96,
            "midi": 83,
            "name": "B5",
            "ticks": 175488,
            "time": 166.181652,
            "velocity": 0.47244094488188976
          },
          {
            "duration": 0.09090900000001056,
            "durationTicks": 96,
            "midi": 90,
            "name": "F#6",
            "ticks": 175680,
            "time": 166.36347,
            "velocity": 0.47244094488188976
          },
          {
            "duration": 0.09090900000001056,
            "durationTicks": 96,
            "midi": 94,
            "name": "A#6",
            "ticks": 175680,
            "time": 166.36347,
            "velocity": 0.47244094488188976
          },
          {
            "duration": 0.09090900000001056,
            "durationTicks": 96,
            "midi": 82,
            "name": "A#5",
            "ticks": 175680,
            "time": 166.36347,
            "velocity": 0.47244094488188976
          },
          {
            "duration": 0.09090900000001056,
            "durationTicks": 96,
            "midi": 78,
            "name": "F#5",
            "ticks": 175872,
            "time": 166.545288,
            "velocity": 0.47244094488188976
          },
          {
            "duration": 0.09090900000001056,
            "durationTicks": 96,
            "midi": 87,
            "name": "D#6",
            "ticks": 175872,
            "time": 166.545288,
            "velocity": 0.47244094488188976
          },
          {
            "duration": 0.09090900000001056,
            "durationTicks": 96,
            "midi": 90,
            "name": "F#6",
            "ticks": 175872,
            "time": 166.545288,
            "velocity": 0.47244094488188976
          },
          {
            "duration": 0.09090899999998214,
            "durationTicks": 96,
            "midi": 90,
            "name": "F#6",
            "ticks": 176256,
            "time": 166.908924,
            "velocity": 0.47244094488188976
          },
          {
            "duration": 0.09090899999998214,
            "durationTicks": 96,
            "midi": 78,
            "name": "F#5",
            "ticks": 176256,
            "time": 166.908924,
            "velocity": 0.47244094488188976
          },
          {
            "duration": 0.09090900000001056,
            "durationTicks": 96,
            "midi": 92,
            "name": "G#6",
            "ticks": 176448,
            "time": 167.090742,
            "velocity": 0.47244094488188976
          },
          {
            "duration": 0.09090900000001056,
            "durationTicks": 96,
            "midi": 83,
            "name": "B5",
            "ticks": 176448,
            "time": 167.090742,
            "velocity": 0.47244094488188976
          },
          {
            "duration": 0.09090900000001056,
            "durationTicks": 96,
            "midi": 80,
            "name": "G#5",
            "ticks": 176448,
            "time": 167.090742,
            "velocity": 0.47244094488188976
          },
          {
            "duration": 0.09090899999998214,
            "durationTicks": 96,
            "midi": 80,
            "name": "G#5",
            "ticks": 176832,
            "time": 167.45437800000002,
            "velocity": 0.47244094488188976
          },
          {
            "duration": 0.09090899999998214,
            "durationTicks": 96,
            "midi": 83,
            "name": "B5",
            "ticks": 176832,
            "time": 167.45437800000002,
            "velocity": 0.47244094488188976
          },
          {
            "duration": 0.09090899999998214,
            "durationTicks": 96,
            "midi": 92,
            "name": "G#6",
            "ticks": 176832,
            "time": 167.45437800000002,
            "velocity": 0.47244094488188976
          },
          {
            "duration": 0.09090899999998214,
            "durationTicks": 96,
            "midi": 90,
            "name": "F#6",
            "ticks": 177024,
            "time": 167.636196,
            "velocity": 0.47244094488188976
          },
          {
            "duration": 0.09090899999998214,
            "durationTicks": 96,
            "midi": 94,
            "name": "A#6",
            "ticks": 177024,
            "time": 167.636196,
            "velocity": 0.47244094488188976
          },
          {
            "duration": 0.09090899999998214,
            "durationTicks": 96,
            "midi": 82,
            "name": "A#5",
            "ticks": 177024,
            "time": 167.636196,
            "velocity": 0.47244094488188976
          },
          {
            "duration": 0.09090900000001056,
            "durationTicks": 96,
            "midi": 80,
            "name": "G#5",
            "ticks": 177408,
            "time": 167.999832,
            "velocity": 0.47244094488188976
          },
          {
            "duration": 0.454544999999996,
            "durationTicks": 480,
            "midi": 75,
            "name": "D#5",
            "ticks": 177408,
            "time": 167.999832,
            "velocity": 0.47244094488188976
          },
          {
            "duration": 0.09090900000001056,
            "durationTicks": 96,
            "midi": 92,
            "name": "G#6",
            "ticks": 177408,
            "time": 167.999832,
            "velocity": 0.47244094488188976
          },
          {
            "duration": 0.09090900000001056,
            "durationTicks": 96,
            "midi": 83,
            "name": "B5",
            "ticks": 177408,
            "time": 167.999832,
            "velocity": 0.47244094488188976
          },
          {
            "duration": 0.09090899999998214,
            "durationTicks": 96,
            "midi": 78,
            "name": "F#5",
            "ticks": 177792,
            "time": 168.363468,
            "velocity": 0.47244094488188976
          },
          {
            "duration": 0.09090899999998214,
            "durationTicks": 96,
            "midi": 90,
            "name": "F#6",
            "ticks": 177792,
            "time": 168.363468,
            "velocity": 0.47244094488188976
          },
          {
            "duration": 0.09090899999998214,
            "durationTicks": 96,
            "midi": 87,
            "name": "D#6",
            "ticks": 177792,
            "time": 168.363468,
            "velocity": 0.47244094488188976
          },
          {
            "duration": 1.6363620000000196,
            "durationTicks": 1728,
            "midi": 58,
            "name": "A#3",
            "ticks": 178176,
            "time": 168.727104,
            "velocity": 0.47244094488188976
          },
          {
            "duration": 1.6363620000000196,
            "durationTicks": 1728,
            "midi": 70,
            "name": "A#4",
            "ticks": 178176,
            "time": 168.727104,
            "velocity": 0.47244094488188976
          },
          {
            "duration": 1.6363620000000196,
            "durationTicks": 1728,
            "midi": 61,
            "name": "C#4",
            "ticks": 178176,
            "time": 168.727104,
            "velocity": 0.47244094488188976
          }
        ],
        "endOfTrackTicks": 179904
      },
      {
        "channel": 1,
        "controlChanges": {},
        "pitchBends": [],
        "instrument": {
          "family": "synth lead",
          "number": 80,
          "name": "lead 1 (square)"
        },
        "name": "Smooth Synth",
        "notes": [
          {
            "duration": 0.818181,
            "durationTicks": 864,
            "midi": 54,
            "name": "F#3",
            "ticks": 0,
            "time": 0,
            "velocity": 0.14173228346456693
          },
          {
            "duration": 0.818181,
            "durationTicks": 864,
            "midi": 56,
            "name": "G#3",
            "ticks": 192,
            "time": 0.181818,
            "velocity": 0.14173228346456693
          },
          {
            "duration": 0.818181,
            "durationTicks": 864,
            "midi": 58,
            "name": "A#3",
            "ticks": 384,
            "time": 0.363636,
            "velocity": 0.14173228346456693
          },
          {
            "duration": 0.8181810000000002,
            "durationTicks": 864,
            "midi": 59,
            "name": "B3",
            "ticks": 576,
            "time": 0.545454,
            "velocity": 0.14173228346456693
          },
          {
            "duration": 0.8181809999999999,
            "durationTicks": 864,
            "midi": 58,
            "name": "A#3",
            "ticks": 768,
            "time": 0.727272,
            "velocity": 0.14173228346456693
          },
          {
            "duration": 0.8181809999999999,
            "durationTicks": 864,
            "midi": 61,
            "name": "C#4",
            "ticks": 768,
            "time": 0.727272,
            "velocity": 0.14173228346456693
          },
          {
            "duration": 0.818181,
            "durationTicks": 864,
            "midi": 61,
            "name": "C#4",
            "ticks": 1152,
            "time": 1.090908,
            "velocity": 0.14173228346456693
          },
          {
            "duration": 0.818181,
            "durationTicks": 864,
            "midi": 61,
            "name": "C#4",
            "ticks": 1344,
            "time": 1.272726,
            "velocity": 0.14173228346456693
          },
          {
            "duration": 0.818181,
            "durationTicks": 864,
            "midi": 61,
            "name": "C#4",
            "ticks": 1728,
            "time": 1.636362,
            "velocity": 0.14173228346456693
          },
          {
            "duration": 0.8181809999999998,
            "durationTicks": 864,
            "midi": 63,
            "name": "D#4",
            "ticks": 1920,
            "time": 1.8181800000000001,
            "velocity": 0.14173228346456693
          },
          {
            "duration": 1.272726,
            "durationTicks": 1344,
            "midi": 61,
            "name": "C#4",
            "ticks": 2112,
            "time": 1.9999980000000002,
            "velocity": 0.14173228346456693
          },
          {
            "duration": 0.818181,
            "durationTicks": 864,
            "midi": 56,
            "name": "G#3",
            "ticks": 2304,
            "time": 2.181816,
            "velocity": 0.14173228346456693
          },
          {
            "duration": 0.818181,
            "durationTicks": 864,
            "midi": 53,
            "name": "F3",
            "ticks": 2304,
            "time": 2.181816,
            "velocity": 0.14173228346456693
          },
          {
            "duration": 0.818181,
            "durationTicks": 864,
            "midi": 61,
            "name": "C#4",
            "ticks": 3072,
            "time": 2.909088,
            "velocity": 0.14173228346456693
          },
          {
            "duration": 0.818181,
            "durationTicks": 864,
            "midi": 63,
            "name": "D#4",
            "ticks": 3264,
            "time": 3.090906,
            "velocity": 0.14173228346456693
          },
          {
            "duration": 0.818181,
            "durationTicks": 864,
            "midi": 61,
            "name": "C#4",
            "ticks": 3456,
            "time": 3.272724,
            "velocity": 0.14173228346456693
          },
          {
            "duration": 0.818181,
            "durationTicks": 864,
            "midi": 59,
            "name": "B3",
            "ticks": 3648,
            "time": 3.454542,
            "velocity": 0.14173228346456693
          },
          {
            "duration": 0.8181809999999996,
            "durationTicks": 864,
            "midi": 58,
            "name": "A#3",
            "ticks": 3840,
            "time": 3.6363600000000003,
            "velocity": 0.14173228346456693
          },
          {
            "duration": 0.8181809999999996,
            "durationTicks": 864,
            "midi": 54,
            "name": "F#3",
            "ticks": 3840,
            "time": 3.6363600000000003,
            "velocity": 0.14173228346456693
          },
          {
            "duration": 0.818181,
            "durationTicks": 864,
            "midi": 58,
            "name": "A#3",
            "ticks": 4224,
            "time": 3.9999960000000003,
            "velocity": 0.14173228346456693
          },
          {
            "duration": 1.0909079999999998,
            "durationTicks": 1152,
            "midi": 58,
            "name": "A#3",
            "ticks": 4416,
            "time": 4.181814,
            "velocity": 0.14173228346456693
          },
          {
            "duration": 0.818181,
            "durationTicks": 864,
            "midi": 59,
            "name": "B3",
            "ticks": 4800,
            "time": 4.54545,
            "velocity": 0.14173228346456693
          },
          {
            "duration": 0.818181,
            "durationTicks": 864,
            "midi": 58,
            "name": "A#3",
            "ticks": 4992,
            "time": 4.7272680000000005,
            "velocity": 0.14173228346456693
          },
          {
            "duration": 1.2727259999999996,
            "durationTicks": 1344,
            "midi": 54,
            "name": "F#3",
            "ticks": 5184,
            "time": 4.909086,
            "velocity": 0.14173228346456693
          },
          {
            "duration": 0.9999989999999999,
            "durationTicks": 1056,
            "midi": 51,
            "name": "D#3",
            "ticks": 5376,
            "time": 5.090904,
            "velocity": 0.14173228346456693
          },
          {
            "duration": 0.818181,
            "durationTicks": 864,
            "midi": 54,
            "name": "F#3",
            "ticks": 6144,
            "time": 5.818176,
            "velocity": 0.14173228346456693
          },
          {
            "duration": 0.818181,
            "durationTicks": 864,
            "midi": 56,
            "name": "G#3",
            "ticks": 6336,
            "time": 5.999994,
            "velocity": 0.14173228346456693
          },
          {
            "duration": 0.818181,
            "durationTicks": 864,
            "midi": 58,
            "name": "A#3",
            "ticks": 6528,
            "time": 6.181812,
            "velocity": 0.14173228346456693
          },
          {
            "duration": 0.818181,
            "durationTicks": 864,
            "midi": 59,
            "name": "B3",
            "ticks": 6720,
            "time": 6.363630000000001,
            "velocity": 0.14173228346456693
          },
          {
            "duration": 0.818181,
            "durationTicks": 864,
            "midi": 61,
            "name": "C#4",
            "ticks": 6912,
            "time": 6.545448,
            "velocity": 0.14173228346456693
          },
          {
            "duration": 0.818181,
            "durationTicks": 864,
            "midi": 54,
            "name": "F#3",
            "ticks": 6912,
            "time": 6.545448,
            "velocity": 0.14173228346456693
          },
          {
            "duration": 0.818181,
            "durationTicks": 864,
            "midi": 58,
            "name": "A#3",
            "ticks": 6912,
            "time": 6.545448,
            "velocity": 0.14173228346456693
          },
          {
            "duration": 0.818181,
            "durationTicks": 864,
            "midi": 61,
            "name": "C#4",
            "ticks": 7296,
            "time": 6.909084,
            "velocity": 0.14173228346456693
          },
          {
            "duration": 0.818181,
            "durationTicks": 864,
            "midi": 61,
            "name": "C#4",
            "ticks": 7488,
            "time": 7.090902000000001,
            "velocity": 0.14173228346456693
          },
          {
            "duration": 0.818181,
            "durationTicks": 864,
            "midi": 61,
            "name": "C#4",
            "ticks": 7872,
            "time": 7.454538,
            "velocity": 0.14173228346456693
          },
          {
            "duration": 0.818181,
            "durationTicks": 864,
            "midi": 63,
            "name": "D#4",
            "ticks": 8064,
            "time": 7.636356,
            "velocity": 0.14173228346456693
          },
          {
            "duration": 0.818181,
            "durationTicks": 864,
            "midi": 61,
            "name": "C#4",
            "ticks": 8256,
            "time": 7.818174,
            "velocity": 0.14173228346456693
          },
          {
            "duration": 0.8181809999999992,
            "durationTicks": 864,
            "midi": 56,
            "name": "G#3",
            "ticks": 8448,
            "time": 7.999992000000001,
            "velocity": 0.14173228346456693
          },
          {
            "duration": 0.8181809999999992,
            "durationTicks": 864,
            "midi": 53,
            "name": "F3",
            "ticks": 8448,
            "time": 7.999992000000001,
            "velocity": 0.14173228346456693
          },
          {
            "duration": 0.8181810000000009,
            "durationTicks": 864,
            "midi": 61,
            "name": "C#4",
            "ticks": 9216,
            "time": 8.727264,
            "velocity": 0.14173228346456693
          },
          {
            "duration": 0.8181810000000009,
            "durationTicks": 864,
            "midi": 63,
            "name": "D#4",
            "ticks": 9408,
            "time": 8.909082,
            "velocity": 0.14173228346456693
          },
          {
            "duration": 0.8181810000000009,
            "durationTicks": 864,
            "midi": 61,
            "name": "C#4",
            "ticks": 9600,
            "time": 9.0909,
            "velocity": 0.14173228346456693
          },
          {
            "duration": 0.8181809999999992,
            "durationTicks": 864,
            "midi": 59,
            "name": "B3",
            "ticks": 9792,
            "time": 9.272718000000001,
            "velocity": 0.14173228346456693
          },
          {
            "duration": 0.8181809999999992,
            "durationTicks": 864,
            "midi": 54,
            "name": "F#3",
            "ticks": 9984,
            "time": 9.454536000000001,
            "velocity": 0.14173228346456693
          },
          {
            "duration": 0.8181809999999992,
            "durationTicks": 864,
            "midi": 58,
            "name": "A#3",
            "ticks": 9984,
            "time": 9.454536000000001,
            "velocity": 0.14173228346456693
          },
          {
            "duration": 0.8181809999999992,
            "durationTicks": 864,
            "midi": 58,
            "name": "A#3",
            "ticks": 10368,
            "time": 9.818172,
            "velocity": 0.14173228346456693
          },
          {
            "duration": 1.0909080000000007,
            "durationTicks": 1152,
            "midi": 58,
            "name": "A#3",
            "ticks": 10560,
            "time": 9.99999,
            "velocity": 0.14173228346456693
          },
          {
            "duration": 0.8181810000000009,
            "durationTicks": 864,
            "midi": 59,
            "name": "B3",
            "ticks": 10944,
            "time": 10.363626,
            "velocity": 0.14173228346456693
          },
          {
            "duration": 0.8181810000000009,
            "durationTicks": 864,
            "midi": 58,
            "name": "A#3",
            "ticks": 11136,
            "time": 10.545444,
            "velocity": 0.14173228346456693
          },
          {
            "duration": 0.8181810000000009,
            "durationTicks": 864,
            "midi": 54,
            "name": "F#3",
            "ticks": 11328,
            "time": 10.727262,
            "velocity": 0.14173228346456693
          },
          {
            "duration": 0.8181809999999992,
            "durationTicks": 864,
            "midi": 47,
            "name": "B2",
            "ticks": 11520,
            "time": 10.909080000000001,
            "velocity": 0.14173228346456693
          },
          {
            "duration": 0.8181809999999992,
            "durationTicks": 864,
            "midi": 51,
            "name": "D#3",
            "ticks": 11520,
            "time": 10.909080000000001,
            "velocity": 0.14173228346456693
          },
          {
            "duration": 0.8181810000000009,
            "durationTicks": 864,
            "midi": 37,
            "name": "C#2",
            "ticks": 13056,
            "time": 12.363624,
            "velocity": 0.14173228346456693
          },
          {
            "duration": 0.8181809999999992,
            "durationTicks": 864,
            "midi": 42,
            "name": "F#2",
            "ticks": 13440,
            "time": 12.727260000000001,
            "velocity": 0.14173228346456693
          },
          {
            "duration": 0.8181809999999992,
            "durationTicks": 864,
            "midi": 46,
            "name": "A#2",
            "ticks": 13824,
            "time": 13.090896,
            "velocity": 0.14173228346456693
          },
          {
            "duration": 0.8181810000000009,
            "durationTicks": 864,
            "midi": 49,
            "name": "C#3",
            "ticks": 14208,
            "time": 13.454532,
            "velocity": 0.14173228346456693
          },
          {
            "duration": 0.8181810000000009,
            "durationTicks": 864,
            "midi": 54,
            "name": "F#3",
            "ticks": 14592,
            "time": 13.818168,
            "velocity": 0.14173228346456693
          },
          {
            "duration": 0.8181809999999992,
            "durationTicks": 864,
            "midi": 58,
            "name": "A#3",
            "ticks": 14976,
            "time": 14.181804000000001,
            "velocity": 0.14173228346456693
          },
          {
            "duration": 0.8181809999999992,
            "durationTicks": 864,
            "midi": 61,
            "name": "C#4",
            "ticks": 15360,
            "time": 14.545440000000001,
            "velocity": 0.14173228346456693
          },
          {
            "duration": 0.8181809999999992,
            "durationTicks": 864,
            "midi": 66,
            "name": "F#4",
            "ticks": 15744,
            "time": 14.909076,
            "velocity": 0.14173228346456693
          },
          {
            "duration": 0.8181810000000009,
            "durationTicks": 864,
            "midi": 66,
            "name": "F#4",
            "ticks": 16128,
            "time": 15.272712,
            "velocity": 0.14173228346456693
          },
          {
            "duration": 0.8181810000000009,
            "durationTicks": 864,
            "midi": 70,
            "name": "A#4",
            "ticks": 16128,
            "time": 15.272712,
            "velocity": 0.14173228346456693
          },
          {
            "duration": 0.8181810000000009,
            "durationTicks": 864,
            "midi": 70,
            "name": "A#4",
            "ticks": 16512,
            "time": 15.636348,
            "velocity": 0.14173228346456693
          },
          {
            "duration": 0.8181810000000009,
            "durationTicks": 864,
            "midi": 66,
            "name": "F#4",
            "ticks": 16512,
            "time": 15.636348,
            "velocity": 0.14173228346456693
          },
          {
            "duration": 0.8181809999999992,
            "durationTicks": 864,
            "midi": 70,
            "name": "A#4",
            "ticks": 16704,
            "time": 15.818166000000002,
            "velocity": 0.14173228346456693
          },
          {
            "duration": 0.8181809999999992,
            "durationTicks": 864,
            "midi": 66,
            "name": "F#4",
            "ticks": 16704,
            "time": 15.818166000000002,
            "velocity": 0.14173228346456693
          },
          {
            "duration": 0.8181809999999992,
            "durationTicks": 864,
            "midi": 71,
            "name": "B4",
            "ticks": 17088,
            "time": 16.181802,
            "velocity": 0.14173228346456693
          },
          {
            "duration": 0.8181809999999992,
            "durationTicks": 864,
            "midi": 66,
            "name": "F#4",
            "ticks": 17280,
            "time": 16.36362,
            "velocity": 0.14173228346456693
          },
          {
            "duration": 0.8181809999999992,
            "durationTicks": 864,
            "midi": 70,
            "name": "A#4",
            "ticks": 17472,
            "time": 16.545438,
            "velocity": 0.14173228346456693
          },
          {
            "duration": 0.8181809999999992,
            "durationTicks": 864,
            "midi": 68,
            "name": "G#4",
            "ticks": 17664,
            "time": 16.727256,
            "velocity": 0.14173228346456693
          },
          {
            "duration": 0.8181809999999992,
            "durationTicks": 864,
            "midi": 65,
            "name": "F4",
            "ticks": 17664,
            "time": 16.727256,
            "velocity": 0.14173228346456693
          },
          {
            "duration": 0.8181809999999992,
            "durationTicks": 864,
            "midi": 65,
            "name": "F4",
            "ticks": 18048,
            "time": 17.090892,
            "velocity": 0.14173228346456693
          },
          {
            "duration": 0.8181809999999992,
            "durationTicks": 864,
            "midi": 68,
            "name": "G#4",
            "ticks": 18048,
            "time": 17.090892,
            "velocity": 0.14173228346456693
          },
          {
            "duration": 0.8181809999999992,
            "durationTicks": 864,
            "midi": 65,
            "name": "F4",
            "ticks": 18240,
            "time": 17.27271,
            "velocity": 0.14173228346456693
          },
          {
            "duration": 0.8181809999999992,
            "durationTicks": 864,
            "midi": 68,
            "name": "G#4",
            "ticks": 18240,
            "time": 17.27271,
            "velocity": 0.14173228346456693
          },
          {
            "duration": 0.8181810000000027,
            "durationTicks": 864,
            "midi": 73,
            "name": "C#5",
            "ticks": 18624,
            "time": 17.636346,
            "velocity": 0.14173228346456693
          },
          {
            "duration": 0.8181810000000027,
            "durationTicks": 864,
            "midi": 65,
            "name": "F4",
            "ticks": 18816,
            "time": 17.818164,
            "velocity": 0.14173228346456693
          },
          {
            "duration": 0.8181810000000027,
            "durationTicks": 864,
            "midi": 68,
            "name": "G#4",
            "ticks": 19008,
            "time": 17.999982,
            "velocity": 0.14173228346456693
          },
          {
            "duration": 0.8181810000000027,
            "durationTicks": 864,
            "midi": 63,
            "name": "D#4",
            "ticks": 19200,
            "time": 18.1818,
            "velocity": 0.14173228346456693
          },
          {
            "duration": 0.8181810000000027,
            "durationTicks": 864,
            "midi": 66,
            "name": "F#4",
            "ticks": 19200,
            "time": 18.1818,
            "velocity": 0.14173228346456693
          },
          {
            "duration": 0.8181810000000027,
            "durationTicks": 864,
            "midi": 66,
            "name": "F#4",
            "ticks": 19200,
            "time": 18.1818,
            "velocity": 0.14173228346456693
          },
          {
            "duration": 0.8181809999999992,
            "durationTicks": 864,
            "midi": 66,
            "name": "F#4",
            "ticks": 19584,
            "time": 18.545436000000002,
            "velocity": 0.14173228346456693
          },
          {
            "duration": 0.8181809999999992,
            "durationTicks": 864,
            "midi": 63,
            "name": "D#4",
            "ticks": 19584,
            "time": 18.545436000000002,
            "velocity": 0.14173228346456693
          },
          {
            "duration": 0.8181809999999992,
            "durationTicks": 864,
            "midi": 66,
            "name": "F#4",
            "ticks": 19776,
            "time": 18.727254000000002,
            "velocity": 0.14173228346456693
          },
          {
            "duration": 0.8181809999999992,
            "durationTicks": 864,
            "midi": 63,
            "name": "D#4",
            "ticks": 19776,
            "time": 18.727254000000002,
            "velocity": 0.14173228346456693
          },
          {
            "duration": 0.8181809999999992,
            "durationTicks": 864,
            "midi": 68,
            "name": "G#4",
            "ticks": 20160,
            "time": 19.09089,
            "velocity": 0.14173228346456693
          },
          {
            "duration": 0.8181809999999992,
            "durationTicks": 864,
            "midi": 63,
            "name": "D#4",
            "ticks": 20352,
            "time": 19.272708,
            "velocity": 0.14173228346456693
          },
          {
            "duration": 0.8181809999999992,
            "durationTicks": 864,
            "midi": 65,
            "name": "F4",
            "ticks": 20544,
            "time": 19.454526,
            "velocity": 0.14173228346456693
          },
          {
            "duration": 0.8181809999999992,
            "durationTicks": 864,
            "midi": 63,
            "name": "D#4",
            "ticks": 20736,
            "time": 19.636344,
            "velocity": 0.14173228346456693
          },
          {
            "duration": 0.8181809999999992,
            "durationTicks": 864,
            "midi": 66,
            "name": "F#4",
            "ticks": 20736,
            "time": 19.636344,
            "velocity": 0.14173228346456693
          },
          {
            "duration": 0.8181809999999992,
            "durationTicks": 864,
            "midi": 63,
            "name": "D#4",
            "ticks": 21120,
            "time": 19.99998,
            "velocity": 0.14173228346456693
          },
          {
            "duration": 0.8181809999999992,
            "durationTicks": 864,
            "midi": 66,
            "name": "F#4",
            "ticks": 21120,
            "time": 19.99998,
            "velocity": 0.14173228346456693
          },
          {
            "duration": 0.8181809999999992,
            "durationTicks": 864,
            "midi": 66,
            "name": "F#4",
            "ticks": 21312,
            "time": 20.181798,
            "velocity": 0.14173228346456693
          },
          {
            "duration": 0.8181809999999992,
            "durationTicks": 864,
            "midi": 63,
            "name": "D#4",
            "ticks": 21312,
            "time": 20.181798,
            "velocity": 0.14173228346456693
          },
          {
            "duration": 0.8181809999999992,
            "durationTicks": 864,
            "midi": 65,
            "name": "F4",
            "ticks": 21696,
            "time": 20.545434,
            "velocity": 0.14173228346456693
          },
          {
            "duration": 0.8181809999999992,
            "durationTicks": 864,
            "midi": 66,
            "name": "F#4",
            "ticks": 21888,
            "time": 20.727252,
            "velocity": 0.14173228346456693
          },
          {
            "duration": 0.8181810000000027,
            "durationTicks": 864,
            "midi": 68,
            "name": "G#4",
            "ticks": 22080,
            "time": 20.90907,
            "velocity": 0.14173228346456693
          },
          {
            "duration": 0.8181810000000027,
            "durationTicks": 864,
            "midi": 70,
            "name": "A#4",
            "ticks": 22272,
            "time": 21.090888,
            "velocity": 0.14173228346456693
          },
          {
            "duration": 0.8181810000000027,
            "durationTicks": 864,
            "midi": 66,
            "name": "F#4",
            "ticks": 22272,
            "time": 21.090888,
            "velocity": 0.14173228346456693
          },
          {
            "duration": 0.8181810000000027,
            "durationTicks": 864,
            "midi": 70,
            "name": "A#4",
            "ticks": 22656,
            "time": 21.454524,
            "velocity": 0.14173228346456693
          },
          {
            "duration": 0.8181810000000027,
            "durationTicks": 864,
            "midi": 66,
            "name": "F#4",
            "ticks": 22656,
            "time": 21.454524,
            "velocity": 0.14173228346456693
          },
          {
            "duration": 0.8181809999999992,
            "durationTicks": 864,
            "midi": 70,
            "name": "A#4",
            "ticks": 22848,
            "time": 21.636342000000003,
            "velocity": 0.14173228346456693
          },
          {
            "duration": 0.8181809999999992,
            "durationTicks": 864,
            "midi": 66,
            "name": "F#4",
            "ticks": 22848,
            "time": 21.636342000000003,
            "velocity": 0.14173228346456693
          },
          {
            "duration": 0.8181809999999992,
            "durationTicks": 864,
            "midi": 71,
            "name": "B4",
            "ticks": 23232,
            "time": 21.999978000000002,
            "velocity": 0.14173228346456693
          },
          {
            "duration": 0.8181809999999992,
            "durationTicks": 864,
            "midi": 66,
            "name": "F#4",
            "ticks": 23424,
            "time": 22.181796000000002,
            "velocity": 0.14173228346456693
          },
          {
            "duration": 0.8181809999999992,
            "durationTicks": 864,
            "midi": 70,
            "name": "A#4",
            "ticks": 23616,
            "time": 22.363614000000002,
            "velocity": 0.14173228346456693
          },
          {
            "duration": 0.8181809999999992,
            "durationTicks": 864,
            "midi": 68,
            "name": "G#4",
            "ticks": 23808,
            "time": 22.545432,
            "velocity": 0.14173228346456693
          },
          {
            "duration": 0.8181809999999992,
            "durationTicks": 864,
            "midi": 65,
            "name": "F4",
            "ticks": 23808,
            "time": 22.545432,
            "velocity": 0.14173228346456693
          },
          {
            "duration": 0.8181809999999992,
            "durationTicks": 864,
            "midi": 65,
            "name": "F4",
            "ticks": 24192,
            "time": 22.909068,
            "velocity": 0.14173228346456693
          },
          {
            "duration": 0.8181809999999992,
            "durationTicks": 864,
            "midi": 68,
            "name": "G#4",
            "ticks": 24192,
            "time": 22.909068,
            "velocity": 0.14173228346456693
          },
          {
            "duration": 0.8181809999999992,
            "durationTicks": 864,
            "midi": 65,
            "name": "F4",
            "ticks": 24384,
            "time": 23.090886,
            "velocity": 0.14173228346456693
          },
          {
            "duration": 0.8181809999999992,
            "durationTicks": 864,
            "midi": 68,
            "name": "G#4",
            "ticks": 24384,
            "time": 23.090886,
            "velocity": 0.14173228346456693
          },
          {
            "duration": 0.8181809999999992,
            "durationTicks": 864,
            "midi": 73,
            "name": "C#5",
            "ticks": 24768,
            "time": 23.454522,
            "velocity": 0.14173228346456693
          },
          {
            "duration": 0.8181809999999992,
            "durationTicks": 864,
            "midi": 65,
            "name": "F4",
            "ticks": 24960,
            "time": 23.63634,
            "velocity": 0.14173228346456693
          },
          {
            "duration": 0.8181809999999992,
            "durationTicks": 864,
            "midi": 68,
            "name": "G#4",
            "ticks": 25152,
            "time": 23.818158,
            "velocity": 0.14173228346456693
          },
          {
            "duration": 0.8181809999999992,
            "durationTicks": 864,
            "midi": 66,
            "name": "F#4",
            "ticks": 25344,
            "time": 23.999976,
            "velocity": 0.14173228346456693
          },
          {
            "duration": 0.8181809999999992,
            "durationTicks": 864,
            "midi": 63,
            "name": "D#4",
            "ticks": 25344,
            "time": 23.999976,
            "velocity": 0.14173228346456693
          },
          {
            "duration": 0.8181810000000027,
            "durationTicks": 864,
            "midi": 63,
            "name": "D#4",
            "ticks": 25728,
            "time": 24.363612,
            "velocity": 0.14173228346456693
          },
          {
            "duration": 0.8181810000000027,
            "durationTicks": 864,
            "midi": 66,
            "name": "F#4",
            "ticks": 25728,
            "time": 24.363612,
            "velocity": 0.14173228346456693
          },
          {
            "duration": 0.8181810000000027,
            "durationTicks": 864,
            "midi": 66,
            "name": "F#4",
            "ticks": 25920,
            "time": 24.54543,
            "velocity": 0.14173228346456693
          },
          {
            "duration": 0.8181810000000027,
            "durationTicks": 864,
            "midi": 63,
            "name": "D#4",
            "ticks": 25920,
            "time": 24.54543,
            "velocity": 0.14173228346456693
          },
          {
            "duration": 0.8181810000000027,
            "durationTicks": 864,
            "midi": 68,
            "name": "G#4",
            "ticks": 26304,
            "time": 24.909066,
            "velocity": 0.14173228346456693
          },
          {
            "duration": 0.8181809999999992,
            "durationTicks": 864,
            "midi": 63,
            "name": "D#4",
            "ticks": 26496,
            "time": 25.090884000000003,
            "velocity": 0.14173228346456693
          },
          {
            "duration": 0.8181809999999992,
            "durationTicks": 864,
            "midi": 65,
            "name": "F4",
            "ticks": 26688,
            "time": 25.272702000000002,
            "velocity": 0.14173228346456693
          },
          {
            "duration": 0.8181809999999992,
            "durationTicks": 864,
            "midi": 66,
            "name": "F#4",
            "ticks": 26880,
            "time": 25.454520000000002,
            "velocity": 0.14173228346456693
          },
          {
            "duration": 0.8181809999999992,
            "durationTicks": 864,
            "midi": 63,
            "name": "D#4",
            "ticks": 26880,
            "time": 25.454520000000002,
            "velocity": 0.14173228346456693
          },
          {
            "duration": 0.8181809999999992,
            "durationTicks": 864,
            "midi": 66,
            "name": "F#4",
            "ticks": 27264,
            "time": 25.818156000000002,
            "velocity": 0.14173228346456693
          },
          {
            "duration": 0.8181809999999992,
            "durationTicks": 864,
            "midi": 63,
            "name": "D#4",
            "ticks": 27264,
            "time": 25.818156000000002,
            "velocity": 0.14173228346456693
          },
          {
            "duration": 0.8181809999999992,
            "durationTicks": 864,
            "midi": 66,
            "name": "F#4",
            "ticks": 27456,
            "time": 25.999974,
            "velocity": 0.14173228346456693
          },
          {
            "duration": 0.8181809999999992,
            "durationTicks": 864,
            "midi": 63,
            "name": "D#4",
            "ticks": 27456,
            "time": 25.999974,
            "velocity": 0.14173228346456693
          },
          {
            "duration": 0.8181809999999992,
            "durationTicks": 864,
            "midi": 59,
            "name": "B3",
            "ticks": 27840,
            "time": 26.36361,
            "velocity": 0.14173228346456693
          },
          {
            "duration": 0.8181809999999992,
            "durationTicks": 864,
            "midi": 59,
            "name": "B3",
            "ticks": 27840,
            "time": 26.36361,
            "velocity": 0.14173228346456693
          },
          {
            "duration": 0.8181809999999992,
            "durationTicks": 864,
            "midi": 54,
            "name": "F#3",
            "ticks": 28032,
            "time": 26.545428,
            "velocity": 0.14173228346456693
          },
          {
            "duration": 0.8181809999999992,
            "durationTicks": 864,
            "midi": 49,
            "name": "C#3",
            "ticks": 28224,
            "time": 26.727246,
            "velocity": 0.14173228346456693
          },
          {
            "duration": 0.8181809999999992,
            "durationTicks": 864,
            "midi": 54,
            "name": "F#3",
            "ticks": 28416,
            "time": 26.909064,
            "velocity": 0.14173228346456693
          },
          {
            "duration": 0.8181809999999992,
            "durationTicks": 864,
            "midi": 54,
            "name": "F#3",
            "ticks": 28800,
            "time": 27.2727,
            "velocity": 0.14173228346456693
          },
          {
            "duration": 0.8181810000000027,
            "durationTicks": 864,
            "midi": 54,
            "name": "F#3",
            "ticks": 29184,
            "time": 27.636336,
            "velocity": 0.14173228346456693
          },
          {
            "duration": 0.8181810000000027,
            "durationTicks": 864,
            "midi": 54,
            "name": "F#3",
            "ticks": 29568,
            "time": 27.999972,
            "velocity": 0.14173228346456693
          },
          {
            "duration": 0.8181810000000027,
            "durationTicks": 864,
            "midi": 54,
            "name": "F#3",
            "ticks": 29760,
            "time": 28.18179,
            "velocity": 0.14173228346456693
          },
          {
            "duration": 0.8181809999999992,
            "durationTicks": 864,
            "midi": 56,
            "name": "G#3",
            "ticks": 29952,
            "time": 28.363608000000003,
            "velocity": 0.14173228346456693
          },
          {
            "duration": 0.8181809999999992,
            "durationTicks": 864,
            "midi": 58,
            "name": "A#3",
            "ticks": 30144,
            "time": 28.545426000000003,
            "velocity": 0.14173228346456693
          },
          {
            "duration": 0.8181809999999992,
            "durationTicks": 864,
            "midi": 58,
            "name": "A#3",
            "ticks": 30528,
            "time": 28.909062000000002,
            "velocity": 0.14173228346456693
          },
          {
            "duration": 0.8181809999999992,
            "durationTicks": 864,
            "midi": 61,
            "name": "C#4",
            "ticks": 31296,
            "time": 29.636334,
            "velocity": 0.14173228346456693
          },
          {
            "duration": 0.8181809999999992,
            "durationTicks": 864,
            "midi": 54,
            "name": "F#3",
            "ticks": 31680,
            "time": 29.99997,
            "velocity": 0.14173228346456693
          },
          {
            "duration": 0.8181809999999992,
            "durationTicks": 864,
            "midi": 54,
            "name": "F#3",
            "ticks": 31872,
            "time": 30.181788,
            "velocity": 0.14173228346456693
          },
          {
            "duration": 0.8181809999999992,
            "durationTicks": 864,
            "midi": 54,
            "name": "F#3",
            "ticks": 32064,
            "time": 30.363606,
            "velocity": 0.14173228346456693
          },
          {
            "duration": 0.8181809999999992,
            "durationTicks": 864,
            "midi": 54,
            "name": "F#3",
            "ticks": 32448,
            "time": 30.727242,
            "velocity": 0.14173228346456693
          },
          {
            "duration": 0.8181810000000027,
            "durationTicks": 864,
            "midi": 54,
            "name": "F#3",
            "ticks": 32640,
            "time": 30.90906,
            "velocity": 0.14173228346456693
          },
          {
            "duration": 0.8181810000000027,
            "durationTicks": 864,
            "midi": 58,
            "name": "A#3",
            "ticks": 32832,
            "time": 31.090878,
            "velocity": 0.14173228346456693
          },
          {
            "duration": 0.8181809999999992,
            "durationTicks": 864,
            "midi": 56,
            "name": "G#3",
            "ticks": 33024,
            "time": 31.272696,
            "velocity": 0.14173228346456693
          },
          {
            "duration": 0.8181809999999956,
            "durationTicks": 864,
            "midi": 54,
            "name": "F#3",
            "ticks": 33408,
            "time": 31.636332000000003,
            "velocity": 0.14173228346456693
          },
          {
            "duration": 0.8181809999999956,
            "durationTicks": 864,
            "midi": 53,
            "name": "F3",
            "ticks": 34176,
            "time": 32.363604,
            "velocity": 0.14173228346456693
          },
          {
            "duration": 0.8181810000000027,
            "durationTicks": 864,
            "midi": 51,
            "name": "D#3",
            "ticks": 34560,
            "time": 32.72724,
            "velocity": 0.14173228346456693
          },
          {
            "duration": 0.8181810000000027,
            "durationTicks": 864,
            "midi": 49,
            "name": "C#3",
            "ticks": 34752,
            "time": 32.909058,
            "velocity": 0.14173228346456693
          },
          {
            "duration": 0.8181810000000027,
            "durationTicks": 864,
            "midi": 49,
            "name": "C#3",
            "ticks": 36288,
            "time": 34.363602,
            "velocity": 0.14173228346456693
          },
          {
            "duration": 0.8181810000000027,
            "durationTicks": 864,
            "midi": 49,
            "name": "C#3",
            "ticks": 36672,
            "time": 34.727238,
            "velocity": 0.14173228346456693
          },
          {
            "duration": 0.8181810000000027,
            "durationTicks": 864,
            "midi": 51,
            "name": "D#3",
            "ticks": 36864,
            "time": 34.909056,
            "velocity": 0.14173228346456693
          },
          {
            "duration": 0.8181810000000027,
            "durationTicks": 864,
            "midi": 53,
            "name": "F3",
            "ticks": 37056,
            "time": 35.090874,
            "velocity": 0.14173228346456693
          },
          {
            "duration": 0.8181810000000027,
            "durationTicks": 864,
            "midi": 54,
            "name": "F#3",
            "ticks": 37248,
            "time": 35.272692,
            "velocity": 0.14173228346456693
          },
          {
            "duration": 0.8181810000000027,
            "durationTicks": 864,
            "midi": 51,
            "name": "D#3",
            "ticks": 37632,
            "time": 35.636328,
            "velocity": 0.14173228346456693
          },
          {
            "duration": 0.8181810000000027,
            "durationTicks": 864,
            "midi": 49,
            "name": "C#3",
            "ticks": 37824,
            "time": 35.818146,
            "velocity": 0.14173228346456693
          },
          {
            "duration": 0.8181809999999956,
            "durationTicks": 864,
            "midi": 66,
            "name": "F#4",
            "ticks": 38784,
            "time": 36.727236000000005,
            "velocity": 0.14173228346456693
          },
          {
            "duration": 0.8181809999999956,
            "durationTicks": 864,
            "midi": 63,
            "name": "D#4",
            "ticks": 39168,
            "time": 37.090872000000005,
            "velocity": 0.14173228346456693
          },
          {
            "duration": 0.8181809999999956,
            "durationTicks": 864,
            "midi": 61,
            "name": "C#4",
            "ticks": 39360,
            "time": 37.272690000000004,
            "velocity": 0.14173228346456693
          },
          {
            "duration": 0.8181809999999956,
            "durationTicks": 864,
            "midi": 49,
            "name": "C#3",
            "ticks": 40128,
            "time": 37.999962000000004,
            "velocity": 0.14173228346456693
          },
          {
            "duration": 0.8181809999999956,
            "durationTicks": 864,
            "midi": 54,
            "name": "F#3",
            "ticks": 40320,
            "time": 38.18178,
            "velocity": 0.14173228346456693
          },
          {
            "duration": 0.8181809999999956,
            "durationTicks": 864,
            "midi": 54,
            "name": "F#3",
            "ticks": 40512,
            "time": 38.363598,
            "velocity": 0.14173228346456693
          },
          {
            "duration": 0.8181809999999956,
            "durationTicks": 864,
            "midi": 54,
            "name": "F#3",
            "ticks": 40704,
            "time": 38.545416,
            "velocity": 0.14173228346456693
          },
          {
            "duration": 0.8181809999999956,
            "durationTicks": 864,
            "midi": 54,
            "name": "F#3",
            "ticks": 40896,
            "time": 38.727234,
            "velocity": 0.14173228346456693
          },
          {
            "duration": 0.8181809999999956,
            "durationTicks": 864,
            "midi": 54,
            "name": "F#3",
            "ticks": 41088,
            "time": 38.909052,
            "velocity": 0.14173228346456693
          },
          {
            "duration": 0.8181810000000027,
            "durationTicks": 864,
            "midi": 54,
            "name": "F#3",
            "ticks": 41472,
            "time": 39.272688,
            "velocity": 0.14173228346456693
          },
          {
            "duration": 0.8181810000000027,
            "durationTicks": 864,
            "midi": 56,
            "name": "G#3",
            "ticks": 41856,
            "time": 39.636324,
            "velocity": 0.14173228346456693
          },
          {
            "duration": 0.8181810000000027,
            "durationTicks": 864,
            "midi": 58,
            "name": "A#3",
            "ticks": 42048,
            "time": 39.818142,
            "velocity": 0.14173228346456693
          },
          {
            "duration": 0.8181810000000027,
            "durationTicks": 864,
            "midi": 58,
            "name": "A#3",
            "ticks": 42432,
            "time": 40.181778,
            "velocity": 0.14173228346456693
          },
          {
            "duration": 0.8181810000000027,
            "durationTicks": 864,
            "midi": 49,
            "name": "C#3",
            "ticks": 43200,
            "time": 40.90905,
            "velocity": 0.14173228346456693
          },
          {
            "duration": 0.8181810000000027,
            "durationTicks": 864,
            "midi": 54,
            "name": "F#3",
            "ticks": 43392,
            "time": 41.090868,
            "velocity": 0.14173228346456693
          },
          {
            "duration": 0.8181810000000027,
            "durationTicks": 864,
            "midi": 54,
            "name": "F#3",
            "ticks": 43584,
            "time": 41.272686,
            "velocity": 0.14173228346456693
          },
          {
            "duration": 0.8181810000000027,
            "durationTicks": 864,
            "midi": 54,
            "name": "F#3",
            "ticks": 43776,
            "time": 41.454504,
            "velocity": 0.14173228346456693
          },
          {
            "duration": 0.8181810000000027,
            "durationTicks": 864,
            "midi": 54,
            "name": "F#3",
            "ticks": 43968,
            "time": 41.636322,
            "velocity": 0.14173228346456693
          },
          {
            "duration": 0.8181810000000027,
            "durationTicks": 864,
            "midi": 54,
            "name": "F#3",
            "ticks": 44160,
            "time": 41.81814,
            "velocity": 0.14173228346456693
          },
          {
            "duration": 0.8181810000000027,
            "durationTicks": 864,
            "midi": 54,
            "name": "F#3",
            "ticks": 44544,
            "time": 42.181776,
            "velocity": 0.14173228346456693
          },
          {
            "duration": 0.8181810000000027,
            "durationTicks": 864,
            "midi": 61,
            "name": "C#4",
            "ticks": 44928,
            "time": 42.545412,
            "velocity": 0.14173228346456693
          },
          {
            "duration": 0.8181810000000027,
            "durationTicks": 864,
            "midi": 59,
            "name": "B3",
            "ticks": 45120,
            "time": 42.72723,
            "velocity": 0.14173228346456693
          },
          {
            "duration": 0.8181810000000027,
            "durationTicks": 864,
            "midi": 58,
            "name": "A#3",
            "ticks": 45504,
            "time": 43.090866,
            "velocity": 0.14173228346456693
          },
          {
            "duration": 0.8181809999999956,
            "durationTicks": 864,
            "midi": 53,
            "name": "F3",
            "ticks": 46464,
            "time": 43.999956000000005,
            "velocity": 0.14173228346456693
          },
          {
            "duration": 0.8181809999999956,
            "durationTicks": 864,
            "midi": 56,
            "name": "G#3",
            "ticks": 46848,
            "time": 44.363592000000004,
            "velocity": 0.14173228346456693
          },
          {
            "duration": 0.8181809999999956,
            "durationTicks": 864,
            "midi": 49,
            "name": "C#3",
            "ticks": 47040,
            "time": 44.545410000000004,
            "velocity": 0.14173228346456693
          },
          {
            "duration": 0.8181810000000027,
            "durationTicks": 864,
            "midi": 49,
            "name": "C#3",
            "ticks": 48384,
            "time": 45.818136,
            "velocity": 0.14173228346456693
          },
          {
            "duration": 0.8181810000000027,
            "durationTicks": 864,
            "midi": 49,
            "name": "C#3",
            "ticks": 48576,
            "time": 45.999954,
            "velocity": 0.14173228346456693
          },
          {
            "duration": 0.8181810000000027,
            "durationTicks": 864,
            "midi": 49,
            "name": "C#3",
            "ticks": 48960,
            "time": 46.36359,
            "velocity": 0.14173228346456693
          },
          {
            "duration": 0.8181810000000027,
            "durationTicks": 864,
            "midi": 58,
            "name": "A#3",
            "ticks": 49152,
            "time": 46.545408,
            "velocity": 0.14173228346456693
          },
          {
            "duration": 0.8181810000000027,
            "durationTicks": 864,
            "midi": 56,
            "name": "G#3",
            "ticks": 49344,
            "time": 46.727226,
            "velocity": 0.14173228346456693
          },
          {
            "duration": 0.8181810000000027,
            "durationTicks": 864,
            "midi": 54,
            "name": "F#3",
            "ticks": 49536,
            "time": 46.909044,
            "velocity": 0.14173228346456693
          },
          {
            "duration": 0.8181810000000027,
            "durationTicks": 864,
            "midi": 49,
            "name": "C#3",
            "ticks": 51264,
            "time": 48.545406,
            "velocity": 0.14173228346456693
          },
          {
            "duration": 0.8181810000000027,
            "durationTicks": 864,
            "midi": 54,
            "name": "F#3",
            "ticks": 51264,
            "time": 48.545406,
            "velocity": 0.14173228346456693
          },
          {
            "duration": 0.8181810000000027,
            "durationTicks": 864,
            "midi": 56,
            "name": "G#3",
            "ticks": 51456,
            "time": 48.727224,
            "velocity": 0.14173228346456693
          },
          {
            "duration": 0.8181810000000027,
            "durationTicks": 864,
            "midi": 51,
            "name": "D#3",
            "ticks": 51456,
            "time": 48.727224,
            "velocity": 0.14173228346456693
          },
          {
            "duration": 0.8181810000000027,
            "durationTicks": 864,
            "midi": 54,
            "name": "F#3",
            "ticks": 51648,
            "time": 48.909042,
            "velocity": 0.14173228346456693
          },
          {
            "duration": 0.8181810000000027,
            "durationTicks": 864,
            "midi": 49,
            "name": "C#3",
            "ticks": 51648,
            "time": 48.909042,
            "velocity": 0.14173228346456693
          },
          {
            "duration": 0.8181810000000027,
            "durationTicks": 864,
            "midi": 54,
            "name": "F#3",
            "ticks": 51840,
            "time": 49.09086,
            "velocity": 0.14173228346456693
          },
          {
            "duration": 0.8181810000000027,
            "durationTicks": 864,
            "midi": 58,
            "name": "A#3",
            "ticks": 51840,
            "time": 49.09086,
            "velocity": 0.14173228346456693
          },
          {
            "duration": 0.8181810000000027,
            "durationTicks": 864,
            "midi": 51,
            "name": "D#3",
            "ticks": 52224,
            "time": 49.454496,
            "velocity": 0.14173228346456693
          },
          {
            "duration": 0.8181810000000027,
            "durationTicks": 864,
            "midi": 56,
            "name": "G#3",
            "ticks": 52224,
            "time": 49.454496,
            "velocity": 0.14173228346456693
          },
          {
            "duration": 0.8181810000000027,
            "durationTicks": 864,
            "midi": 49,
            "name": "C#3",
            "ticks": 52416,
            "time": 49.636314,
            "velocity": 0.14173228346456693
          },
          {
            "duration": 0.8181810000000027,
            "durationTicks": 864,
            "midi": 54,
            "name": "F#3",
            "ticks": 52416,
            "time": 49.636314,
            "velocity": 0.14173228346456693
          },
          {
            "duration": 0.8181810000000027,
            "durationTicks": 864,
            "midi": 49,
            "name": "C#3",
            "ticks": 52608,
            "time": 49.818132,
            "velocity": 0.14173228346456693
          },
          {
            "duration": 0.8181809999999956,
            "durationTicks": 864,
            "midi": 58,
            "name": "A#3",
            "ticks": 52992,
            "time": 50.181768000000005,
            "velocity": 0.14173228346456693
          },
          {
            "duration": 0.8181809999999956,
            "durationTicks": 864,
            "midi": 56,
            "name": "G#3",
            "ticks": 53184,
            "time": 50.363586000000005,
            "velocity": 0.14173228346456693
          },
          {
            "duration": 0.8181809999999956,
            "durationTicks": 864,
            "midi": 54,
            "name": "F#3",
            "ticks": 53376,
            "time": 50.545404000000005,
            "velocity": 0.14173228346456693
          },
          {
            "duration": 0.8181809999999956,
            "durationTicks": 864,
            "midi": 56,
            "name": "G#3",
            "ticks": 53952,
            "time": 51.090858000000004,
            "velocity": 0.14173228346456693
          },
          {
            "duration": 0.8181809999999956,
            "durationTicks": 864,
            "midi": 54,
            "name": "F#3",
            "ticks": 54336,
            "time": 51.454494000000004,
            "velocity": 0.14173228346456693
          },
          {
            "duration": 0.8181809999999956,
            "durationTicks": 864,
            "midi": 56,
            "name": "G#3",
            "ticks": 54528,
            "time": 51.636312000000004,
            "velocity": 0.14173228346456693
          },
          {
            "duration": 0.8181809999999956,
            "durationTicks": 864,
            "midi": 54,
            "name": "F#3",
            "ticks": 54720,
            "time": 51.818130000000004,
            "velocity": 0.14173228346456693
          },
          {
            "duration": 0.8181809999999956,
            "durationTicks": 864,
            "midi": 56,
            "name": "G#3",
            "ticks": 54912,
            "time": 51.999948,
            "velocity": 0.14173228346456693
          },
          {
            "duration": 0.8181809999999956,
            "durationTicks": 864,
            "midi": 58,
            "name": "A#3",
            "ticks": 55296,
            "time": 52.363584,
            "velocity": 0.14173228346456693
          },
          {
            "duration": 0.8181810000000027,
            "durationTicks": 864,
            "midi": 51,
            "name": "D#3",
            "ticks": 55680,
            "time": 52.72722,
            "velocity": 0.14173228346456693
          },
          {
            "duration": 0.8181810000000027,
            "durationTicks": 864,
            "midi": 58,
            "name": "A#3",
            "ticks": 56064,
            "time": 53.090856,
            "velocity": 0.14173228346456693
          },
          {
            "duration": 0.8181810000000027,
            "durationTicks": 864,
            "midi": 56,
            "name": "G#3",
            "ticks": 56256,
            "time": 53.272674,
            "velocity": 0.14173228346456693
          },
          {
            "duration": 0.8181810000000027,
            "durationTicks": 864,
            "midi": 54,
            "name": "F#3",
            "ticks": 56448,
            "time": 53.454492,
            "velocity": 0.14173228346456693
          },
          {
            "duration": 0.8181810000000027,
            "durationTicks": 864,
            "midi": 54,
            "name": "F#3",
            "ticks": 56832,
            "time": 53.818128,
            "velocity": 0.14173228346456693
          },
          {
            "duration": 0.8181810000000027,
            "durationTicks": 864,
            "midi": 56,
            "name": "G#3",
            "ticks": 57024,
            "time": 53.999946,
            "velocity": 0.14173228346456693
          },
          {
            "duration": 0.8181810000000027,
            "durationTicks": 864,
            "midi": 54,
            "name": "F#3",
            "ticks": 57408,
            "time": 54.363582,
            "velocity": 0.14173228346456693
          },
          {
            "duration": 0.8181810000000027,
            "durationTicks": 864,
            "midi": 56,
            "name": "G#3",
            "ticks": 57600,
            "time": 54.5454,
            "velocity": 0.14173228346456693
          },
          {
            "duration": 0.8181810000000027,
            "durationTicks": 864,
            "midi": 58,
            "name": "A#3",
            "ticks": 57792,
            "time": 54.727218,
            "velocity": 0.14173228346456693
          },
          {
            "duration": 0.8181810000000027,
            "durationTicks": 864,
            "midi": 56,
            "name": "G#3",
            "ticks": 57984,
            "time": 54.909036,
            "velocity": 0.14173228346456693
          },
          {
            "duration": 0.8181810000000027,
            "durationTicks": 864,
            "midi": 54,
            "name": "F#3",
            "ticks": 58368,
            "time": 55.272672,
            "velocity": 0.14173228346456693
          },
          {
            "duration": 0.8181810000000027,
            "durationTicks": 864,
            "midi": 49,
            "name": "C#3",
            "ticks": 58752,
            "time": 55.636308,
            "velocity": 0.14173228346456693
          },
          {
            "duration": 0.8181810000000027,
            "durationTicks": 864,
            "midi": 58,
            "name": "A#3",
            "ticks": 59136,
            "time": 55.999944,
            "velocity": 0.14173228346456693
          },
          {
            "duration": 0.8181810000000027,
            "durationTicks": 864,
            "midi": 56,
            "name": "G#3",
            "ticks": 59328,
            "time": 56.181762,
            "velocity": 0.14173228346456693
          },
          {
            "duration": 0.8181810000000027,
            "durationTicks": 864,
            "midi": 54,
            "name": "F#3",
            "ticks": 59520,
            "time": 56.36358,
            "velocity": 0.14173228346456693
          },
          {
            "duration": 0.8181809999999956,
            "durationTicks": 864,
            "midi": 56,
            "name": "G#3",
            "ticks": 60096,
            "time": 56.909034000000005,
            "velocity": 0.14173228346456693
          },
          {
            "duration": 0.8181809999999956,
            "durationTicks": 864,
            "midi": 54,
            "name": "F#3",
            "ticks": 60480,
            "time": 57.272670000000005,
            "velocity": 0.14173228346456693
          },
          {
            "duration": 0.8181809999999956,
            "durationTicks": 864,
            "midi": 56,
            "name": "G#3",
            "ticks": 60672,
            "time": 57.454488000000005,
            "velocity": 0.14173228346456693
          },
          {
            "duration": 0.8181809999999956,
            "durationTicks": 864,
            "midi": 56,
            "name": "G#3",
            "ticks": 61056,
            "time": 57.818124000000005,
            "velocity": 0.14173228346456693
          },
          {
            "duration": 0.8181809999999956,
            "durationTicks": 864,
            "midi": 58,
            "name": "A#3",
            "ticks": 61440,
            "time": 58.181760000000004,
            "velocity": 0.14173228346456693
          },
          {
            "duration": 0.8181809999999956,
            "durationTicks": 864,
            "midi": 61,
            "name": "C#4",
            "ticks": 61824,
            "time": 58.545396000000004,
            "velocity": 0.14173228346456693
          },
          {
            "duration": 0.8181809999999956,
            "durationTicks": 864,
            "midi": 59,
            "name": "B3",
            "ticks": 62208,
            "time": 58.909032,
            "velocity": 0.14173228346456693
          },
          {
            "duration": 0.8181810000000027,
            "durationTicks": 864,
            "midi": 58,
            "name": "A#3",
            "ticks": 62400,
            "time": 59.09085,
            "velocity": 0.14173228346456693
          },
          {
            "duration": 0.8181810000000027,
            "durationTicks": 864,
            "midi": 54,
            "name": "F#3",
            "ticks": 62592,
            "time": 59.272668,
            "velocity": 0.14173228346456693
          },
          {
            "duration": 0.8181810000000027,
            "durationTicks": 864,
            "midi": 54,
            "name": "F#3",
            "ticks": 62976,
            "time": 59.636304,
            "velocity": 0.14173228346456693
          },
          {
            "duration": 0.8181810000000027,
            "durationTicks": 864,
            "midi": 56,
            "name": "G#3",
            "ticks": 63168,
            "time": 59.818122,
            "velocity": 0.14173228346456693
          },
          {
            "duration": 0.8181810000000027,
            "durationTicks": 864,
            "midi": 56,
            "name": "G#3",
            "ticks": 63552,
            "time": 60.181758,
            "velocity": 0.14173228346456693
          },
          {
            "duration": 0.8181810000000027,
            "durationTicks": 864,
            "midi": 58,
            "name": "A#3",
            "ticks": 63744,
            "time": 60.363576,
            "velocity": 0.14173228346456693
          },
          {
            "duration": 0.8181810000000027,
            "durationTicks": 864,
            "midi": 56,
            "name": "G#3",
            "ticks": 64128,
            "time": 60.727212,
            "velocity": 0.14173228346456693
          },
          {
            "duration": 0.8181810000000027,
            "durationTicks": 864,
            "midi": 54,
            "name": "F#3",
            "ticks": 64512,
            "time": 61.090848,
            "velocity": 0.14173228346456693
          },
          {
            "duration": 0.8181810000000027,
            "durationTicks": 864,
            "midi": 56,
            "name": "G#3",
            "ticks": 64896,
            "time": 61.454484,
            "velocity": 0.14173228346456693
          },
          {
            "duration": 0.8181810000000027,
            "durationTicks": 864,
            "midi": 56,
            "name": "G#3",
            "ticks": 65280,
            "time": 61.81812,
            "velocity": 0.14173228346456693
          },
          {
            "duration": 0.8181810000000027,
            "durationTicks": 864,
            "midi": 56,
            "name": "G#3",
            "ticks": 65664,
            "time": 62.181756,
            "velocity": 0.14173228346456693
          },
          {
            "duration": 0.8181810000000027,
            "durationTicks": 864,
            "midi": 58,
            "name": "A#3",
            "ticks": 65856,
            "time": 62.363574,
            "velocity": 0.14173228346456693
          },
          {
            "duration": 0.8181810000000027,
            "durationTicks": 864,
            "midi": 49,
            "name": "C#3",
            "ticks": 66048,
            "time": 62.545392,
            "velocity": 0.14173228346456693
          },
          {
            "duration": 0.8181810000000027,
            "durationTicks": 864,
            "midi": 49,
            "name": "C#3",
            "ticks": 66240,
            "time": 62.72721,
            "velocity": 0.14173228346456693
          },
          {
            "duration": 0.8181810000000027,
            "durationTicks": 864,
            "midi": 61,
            "name": "C#4",
            "ticks": 66624,
            "time": 63.090846,
            "velocity": 0.14173228346456693
          },
          {
            "duration": 0.8181810000000027,
            "durationTicks": 864,
            "midi": 61,
            "name": "C#4",
            "ticks": 67008,
            "time": 63.454482000000006,
            "velocity": 0.14173228346456693
          },
          {
            "duration": 0.8181810000000027,
            "durationTicks": 864,
            "midi": 61,
            "name": "C#4",
            "ticks": 67392,
            "time": 63.818118000000005,
            "velocity": 0.14173228346456693
          },
          {
            "duration": 0.8181809999999956,
            "durationTicks": 864,
            "midi": 61,
            "name": "C#4",
            "ticks": 67584,
            "time": 63.999936000000005,
            "velocity": 0.14173228346456693
          },
          {
            "duration": 0.8181809999999956,
            "durationTicks": 864,
            "midi": 56,
            "name": "G#3",
            "ticks": 67968,
            "time": 64.363572,
            "velocity": 0.14173228346456693
          },
          {
            "duration": 0.8181809999999956,
            "durationTicks": 864,
            "midi": 56,
            "name": "G#3",
            "ticks": 68352,
            "time": 64.727208,
            "velocity": 0.14173228346456693
          },
          {
            "duration": 0.8181809999999956,
            "durationTicks": 864,
            "midi": 56,
            "name": "G#3",
            "ticks": 68736,
            "time": 65.090844,
            "velocity": 0.14173228346456693
          },
          {
            "duration": 0.8181810000000098,
            "durationTicks": 864,
            "midi": 58,
            "name": "A#3",
            "ticks": 68928,
            "time": 65.272662,
            "velocity": 0.14173228346456693
          },
          {
            "duration": 0.8181809999999956,
            "durationTicks": 864,
            "midi": 49,
            "name": "C#3",
            "ticks": 69120,
            "time": 65.45448,
            "velocity": 0.14173228346456693
          },
          {
            "duration": 0.8181810000000098,
            "durationTicks": 864,
            "midi": 49,
            "name": "C#3",
            "ticks": 69312,
            "time": 65.636298,
            "velocity": 0.14173228346456693
          },
          {
            "duration": 0.8181810000000098,
            "durationTicks": 864,
            "midi": 51,
            "name": "D#3",
            "ticks": 69696,
            "time": 65.999934,
            "velocity": 0.14173228346456693
          },
          {
            "duration": 0.8181809999999956,
            "durationTicks": 864,
            "midi": 49,
            "name": "C#3",
            "ticks": 69888,
            "time": 66.181752,
            "velocity": 0.14173228346456693
          },
          {
            "duration": 0.8181809999999956,
            "durationTicks": 864,
            "midi": 58,
            "name": "A#3",
            "ticks": 71040,
            "time": 67.27266,
            "velocity": 0.14173228346456693
          },
          {
            "duration": 0.8181809999999956,
            "durationTicks": 864,
            "midi": 58,
            "name": "A#3",
            "ticks": 71424,
            "time": 67.636296,
            "velocity": 0.14173228346456693
          },
          {
            "duration": 0.8181809999999956,
            "durationTicks": 864,
            "midi": 58,
            "name": "A#3",
            "ticks": 71808,
            "time": 67.999932,
            "velocity": 0.14173228346456693
          },
          {
            "duration": 0.8181809999999956,
            "durationTicks": 864,
            "midi": 61,
            "name": "C#4",
            "ticks": 72000,
            "time": 68.18175000000001,
            "velocity": 0.14173228346456693
          },
          {
            "duration": 0.8181809999999956,
            "durationTicks": 864,
            "midi": 58,
            "name": "A#3",
            "ticks": 72192,
            "time": 68.363568,
            "velocity": 0.14173228346456693
          },
          {
            "duration": 0.8181809999999956,
            "durationTicks": 864,
            "midi": 56,
            "name": "G#3",
            "ticks": 72384,
            "time": 68.54538600000001,
            "velocity": 0.14173228346456693
          },
          {
            "duration": 0.8181809999999956,
            "durationTicks": 864,
            "midi": 73,
            "name": "C#5",
            "ticks": 72768,
            "time": 68.90902200000001,
            "velocity": 0.14173228346456693
          },
          {
            "duration": 0.8181809999999956,
            "durationTicks": 864,
            "midi": 73,
            "name": "C#5",
            "ticks": 73152,
            "time": 69.272658,
            "velocity": 0.14173228346456693
          },
          {
            "duration": 0.8181809999999956,
            "durationTicks": 864,
            "midi": 73,
            "name": "C#5",
            "ticks": 73536,
            "time": 69.636294,
            "velocity": 0.14173228346456693
          },
          {
            "duration": 0.8181810000000098,
            "durationTicks": 864,
            "midi": 73,
            "name": "C#5",
            "ticks": 73728,
            "time": 69.818112,
            "velocity": 0.14173228346456693
          },
          {
            "duration": 0.8181810000000098,
            "durationTicks": 864,
            "midi": 56,
            "name": "G#3",
            "ticks": 74112,
            "time": 70.181748,
            "velocity": 0.14173228346456693
          },
          {
            "duration": 0.8181810000000098,
            "durationTicks": 864,
            "midi": 56,
            "name": "G#3",
            "ticks": 74496,
            "time": 70.545384,
            "velocity": 0.14173228346456693
          },
          {
            "duration": 0.8181810000000098,
            "durationTicks": 864,
            "midi": 56,
            "name": "G#3",
            "ticks": 74880,
            "time": 70.90902,
            "velocity": 0.14173228346456693
          },
          {
            "duration": 0.8181809999999956,
            "durationTicks": 864,
            "midi": 58,
            "name": "A#3",
            "ticks": 75072,
            "time": 71.090838,
            "velocity": 0.14173228346456693
          },
          {
            "duration": 0.8181810000000098,
            "durationTicks": 864,
            "midi": 49,
            "name": "C#3",
            "ticks": 75264,
            "time": 71.272656,
            "velocity": 0.14173228346456693
          },
          {
            "duration": 0.8181809999999956,
            "durationTicks": 864,
            "midi": 49,
            "name": "C#3",
            "ticks": 75456,
            "time": 71.454474,
            "velocity": 0.14173228346456693
          },
          {
            "duration": 0.8181809999999956,
            "durationTicks": 864,
            "midi": 51,
            "name": "D#3",
            "ticks": 75840,
            "time": 71.81811,
            "velocity": 0.14173228346456693
          },
          {
            "duration": 0.8181810000000098,
            "durationTicks": 864,
            "midi": 49,
            "name": "C#3",
            "ticks": 76032,
            "time": 71.999928,
            "velocity": 0.14173228346456693
          },
          {
            "duration": 0.8181809999999956,
            "durationTicks": 864,
            "midi": 61,
            "name": "C#4",
            "ticks": 76992,
            "time": 72.909018,
            "velocity": 0.14173228346456693
          },
          {
            "duration": 0.8181810000000098,
            "durationTicks": 864,
            "midi": 66,
            "name": "F#4",
            "ticks": 77184,
            "time": 73.090836,
            "velocity": 0.14173228346456693
          },
          {
            "duration": 0.8181809999999956,
            "durationTicks": 864,
            "midi": 66,
            "name": "F#4",
            "ticks": 77376,
            "time": 73.272654,
            "velocity": 0.14173228346456693
          },
          {
            "duration": 0.8181809999999956,
            "durationTicks": 864,
            "midi": 66,
            "name": "F#4",
            "ticks": 77568,
            "time": 73.45447200000001,
            "velocity": 0.14173228346456693
          },
          {
            "duration": 0.8181809999999956,
            "durationTicks": 864,
            "midi": 66,
            "name": "F#4",
            "ticks": 77760,
            "time": 73.63629,
            "velocity": 0.14173228346456693
          },
          {
            "duration": 0.8181809999999956,
            "durationTicks": 864,
            "midi": 66,
            "name": "F#4",
            "ticks": 77952,
            "time": 73.81810800000001,
            "velocity": 0.14173228346456693
          },
          {
            "duration": 0.8181809999999956,
            "durationTicks": 864,
            "midi": 66,
            "name": "F#4",
            "ticks": 78336,
            "time": 74.18174400000001,
            "velocity": 0.14173228346456693
          },
          {
            "duration": 0.8181809999999956,
            "durationTicks": 864,
            "midi": 66,
            "name": "F#4",
            "ticks": 78528,
            "time": 74.363562,
            "velocity": 0.14173228346456693
          },
          {
            "duration": 0.8181809999999956,
            "durationTicks": 864,
            "midi": 68,
            "name": "G#4",
            "ticks": 78720,
            "time": 74.54538000000001,
            "velocity": 0.14173228346456693
          },
          {
            "duration": 0.8181809999999956,
            "durationTicks": 864,
            "midi": 70,
            "name": "A#4",
            "ticks": 78912,
            "time": 74.727198,
            "velocity": 0.14173228346456693
          },
          {
            "duration": 0.8181809999999956,
            "durationTicks": 864,
            "midi": 70,
            "name": "A#4",
            "ticks": 79296,
            "time": 75.090834,
            "velocity": 0.14173228346456693
          },
          {
            "duration": 0.8181809999999956,
            "durationTicks": 864,
            "midi": 73,
            "name": "C#5",
            "ticks": 80256,
            "time": 75.99992400000001,
            "velocity": 0.14173228346456693
          },
          {
            "duration": 0.8181810000000098,
            "durationTicks": 864,
            "midi": 66,
            "name": "F#4",
            "ticks": 80448,
            "time": 76.181742,
            "velocity": 0.14173228346456693
          },
          {
            "duration": 0.8181809999999956,
            "durationTicks": 864,
            "midi": 66,
            "name": "F#4",
            "ticks": 80640,
            "time": 76.36356,
            "velocity": 0.14173228346456693
          },
          {
            "duration": 0.8181810000000098,
            "durationTicks": 864,
            "midi": 66,
            "name": "F#4",
            "ticks": 80832,
            "time": 76.545378,
            "velocity": 0.14173228346456693
          },
          {
            "duration": 0.8181809999999956,
            "durationTicks": 864,
            "midi": 66,
            "name": "F#4",
            "ticks": 81024,
            "time": 76.727196,
            "velocity": 0.14173228346456693
          },
          {
            "duration": 0.8181809999999956,
            "durationTicks": 864,
            "midi": 66,
            "name": "F#4",
            "ticks": 81408,
            "time": 77.090832,
            "velocity": 0.14173228346456693
          },
          {
            "duration": 0.8181809999999956,
            "durationTicks": 864,
            "midi": 70,
            "name": "A#4",
            "ticks": 81792,
            "time": 77.454468,
            "velocity": 0.14173228346456693
          },
          {
            "duration": 0.8181810000000098,
            "durationTicks": 864,
            "midi": 68,
            "name": "G#4",
            "ticks": 81984,
            "time": 77.636286,
            "velocity": 0.14173228346456693
          },
          {
            "duration": 0.8181810000000098,
            "durationTicks": 864,
            "midi": 66,
            "name": "F#4",
            "ticks": 82368,
            "time": 77.999922,
            "velocity": 0.14173228346456693
          },
          {
            "duration": 0.8181809999999956,
            "durationTicks": 864,
            "midi": 65,
            "name": "F4",
            "ticks": 83328,
            "time": 78.909012,
            "velocity": 0.14173228346456693
          },
          {
            "duration": 0.8181809999999956,
            "durationTicks": 864,
            "midi": 63,
            "name": "D#4",
            "ticks": 83712,
            "time": 79.272648,
            "velocity": 0.14173228346456693
          },
          {
            "duration": 0.8181810000000098,
            "durationTicks": 864,
            "midi": 61,
            "name": "C#4",
            "ticks": 83904,
            "time": 79.454466,
            "velocity": 0.14173228346456693
          },
          {
            "duration": 0.8181809999999956,
            "durationTicks": 864,
            "midi": 61,
            "name": "C#4",
            "ticks": 84672,
            "time": 80.18173800000001,
            "velocity": 0.14173228346456693
          },
          {
            "duration": 0.8181809999999956,
            "durationTicks": 864,
            "midi": 61,
            "name": "C#4",
            "ticks": 84864,
            "time": 80.363556,
            "velocity": 0.14173228346456693
          },
          {
            "duration": 0.8181809999999956,
            "durationTicks": 864,
            "midi": 61,
            "name": "C#4",
            "ticks": 85056,
            "time": 80.54537400000001,
            "velocity": 0.14173228346456693
          },
          {
            "duration": 0.8181809999999956,
            "durationTicks": 864,
            "midi": 61,
            "name": "C#4",
            "ticks": 85440,
            "time": 80.90901000000001,
            "velocity": 0.14173228346456693
          },
          {
            "duration": 0.8181809999999956,
            "durationTicks": 864,
            "midi": 63,
            "name": "D#4",
            "ticks": 85632,
            "time": 81.090828,
            "velocity": 0.14173228346456693
          },
          {
            "duration": 0.8181809999999956,
            "durationTicks": 864,
            "midi": 65,
            "name": "F4",
            "ticks": 85824,
            "time": 81.27264600000001,
            "velocity": 0.14173228346456693
          },
          {
            "duration": 0.8181809999999956,
            "durationTicks": 864,
            "midi": 66,
            "name": "F#4",
            "ticks": 86016,
            "time": 81.454464,
            "velocity": 0.14173228346456693
          },
          {
            "duration": 0.8181809999999956,
            "durationTicks": 864,
            "midi": 63,
            "name": "D#4",
            "ticks": 86400,
            "time": 81.8181,
            "velocity": 0.14173228346456693
          },
          {
            "duration": 0.8181809999999956,
            "durationTicks": 864,
            "midi": 61,
            "name": "C#4",
            "ticks": 86592,
            "time": 81.99991800000001,
            "velocity": 0.14173228346456693
          },
          {
            "duration": 0.8181809999999956,
            "durationTicks": 864,
            "midi": 61,
            "name": "C#4",
            "ticks": 87744,
            "time": 83.090826,
            "velocity": 0.14173228346456693
          },
          {
            "duration": 0.8181810000000098,
            "durationTicks": 864,
            "midi": 63,
            "name": "D#4",
            "ticks": 87936,
            "time": 83.272644,
            "velocity": 0.14173228346456693
          },
          {
            "duration": 0.8181809999999956,
            "durationTicks": 864,
            "midi": 61,
            "name": "C#4",
            "ticks": 88128,
            "time": 83.454462,
            "velocity": 0.14173228346456693
          },
          {
            "duration": 0.8181810000000098,
            "durationTicks": 864,
            "midi": 66,
            "name": "F#4",
            "ticks": 88320,
            "time": 83.63628,
            "velocity": 0.14173228346456693
          },
          {
            "duration": 0.8181810000000098,
            "durationTicks": 864,
            "midi": 63,
            "name": "D#4",
            "ticks": 88704,
            "time": 83.999916,
            "velocity": 0.14173228346456693
          },
          {
            "duration": 0.8181809999999956,
            "durationTicks": 864,
            "midi": 61,
            "name": "C#4",
            "ticks": 88896,
            "time": 84.181734,
            "velocity": 0.14173228346456693
          },
          {
            "duration": 0.8181810000000098,
            "durationTicks": 864,
            "midi": 54,
            "name": "F#3",
            "ticks": 89088,
            "time": 84.363552,
            "velocity": 0.14173228346456693
          },
          {
            "duration": 0.8181809999999956,
            "durationTicks": 864,
            "midi": 54,
            "name": "F#3",
            "ticks": 89280,
            "time": 84.54537,
            "velocity": 0.14173228346456693
          },
          {
            "duration": 0.8181810000000098,
            "durationTicks": 864,
            "midi": 54,
            "name": "F#3",
            "ticks": 89472,
            "time": 84.727188,
            "velocity": 0.14173228346456693
          },
          {
            "duration": 0.8181809999999956,
            "durationTicks": 864,
            "midi": 54,
            "name": "F#3",
            "ticks": 89664,
            "time": 84.909006,
            "velocity": 0.14173228346456693
          },
          {
            "duration": 0.8181810000000098,
            "durationTicks": 864,
            "midi": 54,
            "name": "F#3",
            "ticks": 89856,
            "time": 85.090824,
            "velocity": 0.14173228346456693
          },
          {
            "duration": 0.8181810000000098,
            "durationTicks": 864,
            "midi": 54,
            "name": "F#3",
            "ticks": 90240,
            "time": 85.45446,
            "velocity": 0.14173228346456693
          },
          {
            "duration": 0.8181810000000098,
            "durationTicks": 864,
            "midi": 56,
            "name": "G#3",
            "ticks": 90624,
            "time": 85.818096,
            "velocity": 0.14173228346456693
          },
          {
            "duration": 0.8181809999999956,
            "durationTicks": 864,
            "midi": 58,
            "name": "A#3",
            "ticks": 90816,
            "time": 85.999914,
            "velocity": 0.14173228346456693
          },
          {
            "duration": 0.8181809999999956,
            "durationTicks": 864,
            "midi": 58,
            "name": "A#3",
            "ticks": 91200,
            "time": 86.36355,
            "velocity": 0.14173228346456693
          },
          {
            "duration": 0.8181809999999956,
            "durationTicks": 864,
            "midi": 49,
            "name": "C#3",
            "ticks": 91968,
            "time": 87.090822,
            "velocity": 0.14173228346456693
          },
          {
            "duration": 0.8181809999999956,
            "durationTicks": 864,
            "midi": 54,
            "name": "F#3",
            "ticks": 92160,
            "time": 87.27264000000001,
            "velocity": 0.14173228346456693
          },
          {
            "duration": 0.8181809999999956,
            "durationTicks": 864,
            "midi": 54,
            "name": "F#3",
            "ticks": 92352,
            "time": 87.454458,
            "velocity": 0.14173228346456693
          },
          {
            "duration": 0.8181809999999956,
            "durationTicks": 864,
            "midi": 54,
            "name": "F#3",
            "ticks": 92544,
            "time": 87.63627600000001,
            "velocity": 0.14173228346456693
          },
          {
            "duration": 0.8181809999999956,
            "durationTicks": 864,
            "midi": 54,
            "name": "F#3",
            "ticks": 92736,
            "time": 87.818094,
            "velocity": 0.14173228346456693
          },
          {
            "duration": 0.8181809999999956,
            "durationTicks": 864,
            "midi": 54,
            "name": "F#3",
            "ticks": 92928,
            "time": 87.99991200000001,
            "velocity": 0.14173228346456693
          },
          {
            "duration": 0.8181809999999956,
            "durationTicks": 864,
            "midi": 54,
            "name": "F#3",
            "ticks": 93312,
            "time": 88.36354800000001,
            "velocity": 0.14173228346456693
          },
          {
            "duration": 0.8181809999999956,
            "durationTicks": 864,
            "midi": 61,
            "name": "C#4",
            "ticks": 93696,
            "time": 88.72718400000001,
            "velocity": 0.14173228346456693
          },
          {
            "duration": 0.8181809999999956,
            "durationTicks": 864,
            "midi": 59,
            "name": "B3",
            "ticks": 93888,
            "time": 88.909002,
            "velocity": 0.14173228346456693
          },
          {
            "duration": 0.8181810000000098,
            "durationTicks": 864,
            "midi": 58,
            "name": "A#3",
            "ticks": 94272,
            "time": 89.272638,
            "velocity": 0.14173228346456693
          },
          {
            "duration": 0.8181809999999956,
            "durationTicks": 864,
            "midi": 53,
            "name": "F3",
            "ticks": 95232,
            "time": 90.181728,
            "velocity": 0.14173228346456693
          },
          {
            "duration": 0.8181809999999956,
            "durationTicks": 864,
            "midi": 56,
            "name": "G#3",
            "ticks": 95616,
            "time": 90.545364,
            "velocity": 0.14173228346456693
          },
          {
            "duration": 0.8181810000000098,
            "durationTicks": 864,
            "midi": 49,
            "name": "C#3",
            "ticks": 95808,
            "time": 90.727182,
            "velocity": 0.14173228346456693
          },
          {
            "duration": 0.8181809999999956,
            "durationTicks": 864,
            "midi": 49,
            "name": "C#3",
            "ticks": 97152,
            "time": 91.999908,
            "velocity": 0.14173228346456693
          },
          {
            "duration": 0.8181810000000098,
            "durationTicks": 864,
            "midi": 49,
            "name": "C#3",
            "ticks": 97344,
            "time": 92.181726,
            "velocity": 0.14173228346456693
          },
          {
            "duration": 0.8181810000000098,
            "durationTicks": 864,
            "midi": 49,
            "name": "C#3",
            "ticks": 97728,
            "time": 92.545362,
            "velocity": 0.14173228346456693
          },
          {
            "duration": 0.8181809999999956,
            "durationTicks": 864,
            "midi": 58,
            "name": "A#3",
            "ticks": 97920,
            "time": 92.72718,
            "velocity": 0.14173228346456693
          },
          {
            "duration": 0.8181810000000098,
            "durationTicks": 864,
            "midi": 56,
            "name": "G#3",
            "ticks": 98112,
            "time": 92.908998,
            "velocity": 0.14173228346456693
          },
          {
            "duration": 0.8181809999999956,
            "durationTicks": 864,
            "midi": 54,
            "name": "F#3",
            "ticks": 98304,
            "time": 93.090816,
            "velocity": 0.14173228346456693
          },
          {
            "duration": 0.8181809999999956,
            "durationTicks": 864,
            "midi": 58,
            "name": "A#3",
            "ticks": 100224,
            "time": 94.908996,
            "velocity": 0.14173228346456693
          },
          {
            "duration": 0.8181809999999956,
            "durationTicks": 864,
            "midi": 70,
            "name": "A#4",
            "ticks": 100224,
            "time": 94.908996,
            "velocity": 0.14173228346456693
          },
          {
            "duration": 0.8181809999999956,
            "durationTicks": 864,
            "midi": 70,
            "name": "A#4",
            "ticks": 100608,
            "time": 95.272632,
            "velocity": 0.14173228346456693
          },
          {
            "duration": 0.8181809999999956,
            "durationTicks": 864,
            "midi": 58,
            "name": "A#3",
            "ticks": 100608,
            "time": 95.272632,
            "velocity": 0.14173228346456693
          },
          {
            "duration": 0.8181810000000098,
            "durationTicks": 864,
            "midi": 68,
            "name": "G#4",
            "ticks": 100992,
            "time": 95.636268,
            "velocity": 0.14173228346456693
          },
          {
            "duration": 0.8181810000000098,
            "durationTicks": 864,
            "midi": 56,
            "name": "G#3",
            "ticks": 100992,
            "time": 95.636268,
            "velocity": 0.14173228346456693
          },
          {
            "duration": 0.8181810000000098,
            "durationTicks": 864,
            "midi": 49,
            "name": "C#3",
            "ticks": 101376,
            "time": 95.999904,
            "velocity": 0.14173228346456693
          },
          {
            "duration": 0.8181810000000098,
            "durationTicks": 864,
            "midi": 46,
            "name": "A#2",
            "ticks": 101376,
            "time": 95.999904,
            "velocity": 0.14173228346456693
          },
          {
            "duration": 0.8181810000000098,
            "durationTicks": 864,
            "midi": 54,
            "name": "F#3",
            "ticks": 101760,
            "time": 96.36354,
            "velocity": 0.14173228346456693
          },
          {
            "duration": 0.8181810000000098,
            "durationTicks": 864,
            "midi": 58,
            "name": "A#3",
            "ticks": 101760,
            "time": 96.36354,
            "velocity": 0.14173228346456693
          },
          {
            "duration": 0.8181809999999956,
            "durationTicks": 864,
            "midi": 56,
            "name": "G#3",
            "ticks": 101952,
            "time": 96.54535800000001,
            "velocity": 0.14173228346456693
          },
          {
            "duration": 0.8181810000000098,
            "durationTicks": 864,
            "midi": 54,
            "name": "F#3",
            "ticks": 102144,
            "time": 96.727176,
            "velocity": 0.14173228346456693
          },
          {
            "duration": 0.8181810000000098,
            "durationTicks": 864,
            "midi": 46,
            "name": "A#2",
            "ticks": 102144,
            "time": 96.727176,
            "velocity": 0.14173228346456693
          },
          {
            "duration": 0.8181809999999956,
            "durationTicks": 864,
            "midi": 56,
            "name": "G#3",
            "ticks": 102720,
            "time": 97.27263,
            "velocity": 0.14173228346456693
          },
          {
            "duration": 0.8181809999999956,
            "durationTicks": 864,
            "midi": 53,
            "name": "F3",
            "ticks": 102720,
            "time": 97.27263,
            "velocity": 0.14173228346456693
          },
          {
            "duration": 0.8181809999999956,
            "durationTicks": 864,
            "midi": 51,
            "name": "D#3",
            "ticks": 103104,
            "time": 97.636266,
            "velocity": 0.14173228346456693
          },
          {
            "duration": 0.8181809999999956,
            "durationTicks": 864,
            "midi": 54,
            "name": "F#3",
            "ticks": 103104,
            "time": 97.636266,
            "velocity": 0.14173228346456693
          },
          {
            "duration": 0.8181810000000098,
            "durationTicks": 864,
            "midi": 53,
            "name": "F3",
            "ticks": 103296,
            "time": 97.818084,
            "velocity": 0.14173228346456693
          },
          {
            "duration": 0.8181810000000098,
            "durationTicks": 864,
            "midi": 56,
            "name": "G#3",
            "ticks": 103296,
            "time": 97.818084,
            "velocity": 0.14173228346456693
          },
          {
            "duration": 0.8181809999999956,
            "durationTicks": 864,
            "midi": 51,
            "name": "D#3",
            "ticks": 103488,
            "time": 97.999902,
            "velocity": 0.14173228346456693
          },
          {
            "duration": 0.8181809999999956,
            "durationTicks": 864,
            "midi": 54,
            "name": "F#3",
            "ticks": 103488,
            "time": 97.999902,
            "velocity": 0.14173228346456693
          },
          {
            "duration": 0.8181810000000098,
            "durationTicks": 864,
            "midi": 56,
            "name": "G#3",
            "ticks": 103680,
            "time": 98.18172,
            "velocity": 0.14173228346456693
          },
          {
            "duration": 0.8181810000000098,
            "durationTicks": 864,
            "midi": 53,
            "name": "F3",
            "ticks": 103680,
            "time": 98.18172,
            "velocity": 0.14173228346456693
          },
          {
            "duration": 0.8181810000000098,
            "durationTicks": 864,
            "midi": 54,
            "name": "F#3",
            "ticks": 104064,
            "time": 98.545356,
            "velocity": 0.14173228346456693
          },
          {
            "duration": 0.8181810000000098,
            "durationTicks": 864,
            "midi": 58,
            "name": "A#3",
            "ticks": 104064,
            "time": 98.545356,
            "velocity": 0.14173228346456693
          },
          {
            "duration": 0.8181810000000098,
            "durationTicks": 864,
            "midi": 42,
            "name": "F#2",
            "ticks": 104448,
            "time": 98.908992,
            "velocity": 0.14173228346456693
          },
          {
            "duration": 0.8181810000000098,
            "durationTicks": 864,
            "midi": 51,
            "name": "D#3",
            "ticks": 104448,
            "time": 98.908992,
            "velocity": 0.14173228346456693
          },
          {
            "duration": 0.8181810000000098,
            "durationTicks": 864,
            "midi": 54,
            "name": "F#3",
            "ticks": 104832,
            "time": 99.272628,
            "velocity": 0.14173228346456693
          },
          {
            "duration": 0.8181810000000098,
            "durationTicks": 864,
            "midi": 58,
            "name": "A#3",
            "ticks": 104832,
            "time": 99.272628,
            "velocity": 0.14173228346456693
          },
          {
            "duration": 0.8181809999999956,
            "durationTicks": 864,
            "midi": 56,
            "name": "G#3",
            "ticks": 105024,
            "time": 99.454446,
            "velocity": 0.14173228346456693
          },
          {
            "duration": 0.8181810000000098,
            "durationTicks": 864,
            "midi": 51,
            "name": "D#3",
            "ticks": 105216,
            "time": 99.636264,
            "velocity": 0.14173228346456693
          },
          {
            "duration": 0.8181810000000098,
            "durationTicks": 864,
            "midi": 54,
            "name": "F#3",
            "ticks": 105216,
            "time": 99.636264,
            "velocity": 0.14173228346456693
          },
          {
            "duration": 0.8181809999999956,
            "durationTicks": 864,
            "midi": 54,
            "name": "F#3",
            "ticks": 105600,
            "time": 99.99990000000001,
            "velocity": 0.14173228346456693
          },
          {
            "duration": 0.8181809999999956,
            "durationTicks": 864,
            "midi": 56,
            "name": "G#3",
            "ticks": 105792,
            "time": 100.181718,
            "velocity": 0.14173228346456693
          },
          {
            "duration": 0.8181809999999956,
            "durationTicks": 864,
            "midi": 51,
            "name": "D#3",
            "ticks": 105792,
            "time": 100.181718,
            "velocity": 0.14173228346456693
          },
          {
            "duration": 0.8181809999999956,
            "durationTicks": 864,
            "midi": 54,
            "name": "F#3",
            "ticks": 106176,
            "time": 100.545354,
            "velocity": 0.14173228346456693
          },
          {
            "duration": 0.8181809999999956,
            "durationTicks": 864,
            "midi": 51,
            "name": "D#3",
            "ticks": 106368,
            "time": 100.72717200000001,
            "velocity": 0.14173228346456693
          },
          {
            "duration": 0.8181809999999956,
            "durationTicks": 864,
            "midi": 56,
            "name": "G#3",
            "ticks": 106368,
            "time": 100.72717200000001,
            "velocity": 0.14173228346456693
          },
          {
            "duration": 0.8181809999999956,
            "durationTicks": 864,
            "midi": 58,
            "name": "A#3",
            "ticks": 106560,
            "time": 100.90899,
            "velocity": 0.14173228346456693
          },
          {
            "duration": 0.8181809999999956,
            "durationTicks": 864,
            "midi": 56,
            "name": "G#3",
            "ticks": 106752,
            "time": 101.09080800000001,
            "velocity": 0.14173228346456693
          },
          {
            "duration": 0.8181809999999956,
            "durationTicks": 864,
            "midi": 51,
            "name": "D#3",
            "ticks": 106752,
            "time": 101.09080800000001,
            "velocity": 0.14173228346456693
          },
          {
            "duration": 0.8181809999999956,
            "durationTicks": 864,
            "midi": 54,
            "name": "F#3",
            "ticks": 107136,
            "time": 101.45444400000001,
            "velocity": 0.14173228346456693
          },
          {
            "duration": 0.8181809999999956,
            "durationTicks": 864,
            "midi": 51,
            "name": "D#3",
            "ticks": 107136,
            "time": 101.45444400000001,
            "velocity": 0.14173228346456693
          },
          {
            "duration": 0.8181809999999956,
            "durationTicks": 864,
            "midi": 49,
            "name": "C#3",
            "ticks": 107520,
            "time": 101.81808000000001,
            "velocity": 0.14173228346456693
          },
          {
            "duration": 0.8181809999999956,
            "durationTicks": 864,
            "midi": 46,
            "name": "A#2",
            "ticks": 107520,
            "time": 101.81808000000001,
            "velocity": 0.14173228346456693
          },
          {
            "duration": 0.8181809999999956,
            "durationTicks": 864,
            "midi": 58,
            "name": "A#3",
            "ticks": 107904,
            "time": 102.18171600000001,
            "velocity": 0.14173228346456693
          },
          {
            "duration": 0.8181809999999956,
            "durationTicks": 864,
            "midi": 54,
            "name": "F#3",
            "ticks": 107904,
            "time": 102.18171600000001,
            "velocity": 0.14173228346456693
          },
          {
            "duration": 0.8181810000000098,
            "durationTicks": 864,
            "midi": 56,
            "name": "G#3",
            "ticks": 108096,
            "time": 102.363534,
            "velocity": 0.14173228346456693
          },
          {
            "duration": 0.8181809999999956,
            "durationTicks": 864,
            "midi": 46,
            "name": "A#2",
            "ticks": 108288,
            "time": 102.54535200000001,
            "velocity": 0.14173228346456693
          },
          {
            "duration": 0.8181809999999956,
            "durationTicks": 864,
            "midi": 54,
            "name": "F#3",
            "ticks": 108288,
            "time": 102.54535200000001,
            "velocity": 0.14173228346456693
          },
          {
            "duration": 0.8181810000000098,
            "durationTicks": 864,
            "midi": 56,
            "name": "G#3",
            "ticks": 108864,
            "time": 103.090806,
            "velocity": 0.14173228346456693
          },
          {
            "duration": 0.8181810000000098,
            "durationTicks": 864,
            "midi": 53,
            "name": "F3",
            "ticks": 108864,
            "time": 103.090806,
            "velocity": 0.14173228346456693
          },
          {
            "duration": 0.8181810000000098,
            "durationTicks": 864,
            "midi": 53,
            "name": "F3",
            "ticks": 108864,
            "time": 103.090806,
            "velocity": 0.14173228346456693
          },
          {
            "duration": 0.8181810000000098,
            "durationTicks": 864,
            "midi": 51,
            "name": "D#3",
            "ticks": 109248,
            "time": 103.454442,
            "velocity": 0.14173228346456693
          },
          {
            "duration": 0.8181810000000098,
            "durationTicks": 864,
            "midi": 54,
            "name": "F#3",
            "ticks": 109248,
            "time": 103.454442,
            "velocity": 0.14173228346456693
          },
          {
            "duration": 0.8181809999999956,
            "durationTicks": 864,
            "midi": 53,
            "name": "F3",
            "ticks": 109440,
            "time": 103.63626000000001,
            "velocity": 0.14173228346456693
          },
          {
            "duration": 0.8181809999999956,
            "durationTicks": 864,
            "midi": 56,
            "name": "G#3",
            "ticks": 109440,
            "time": 103.63626000000001,
            "velocity": 0.14173228346456693
          },
          {
            "duration": 0.8181809999999956,
            "durationTicks": 864,
            "midi": 53,
            "name": "F3",
            "ticks": 109824,
            "time": 103.999896,
            "velocity": 0.14173228346456693
          },
          {
            "duration": 0.8181809999999956,
            "durationTicks": 864,
            "midi": 56,
            "name": "G#3",
            "ticks": 109824,
            "time": 103.999896,
            "velocity": 0.14173228346456693
          },
          {
            "duration": 0.8181809999999956,
            "durationTicks": 864,
            "midi": 54,
            "name": "F#3",
            "ticks": 110208,
            "time": 104.363532,
            "velocity": 0.14173228346456693
          },
          {
            "duration": 0.8181809999999956,
            "durationTicks": 864,
            "midi": 58,
            "name": "A#3",
            "ticks": 110208,
            "time": 104.363532,
            "velocity": 0.14173228346456693
          },
          {
            "duration": 0.8181809999999956,
            "durationTicks": 864,
            "midi": 58,
            "name": "A#3",
            "ticks": 110592,
            "time": 104.727168,
            "velocity": 0.14173228346456693
          },
          {
            "duration": 0.8181809999999956,
            "durationTicks": 864,
            "midi": 61,
            "name": "C#4",
            "ticks": 110592,
            "time": 104.727168,
            "velocity": 0.14173228346456693
          },
          {
            "duration": 0.8181809999999956,
            "durationTicks": 864,
            "midi": 56,
            "name": "G#3",
            "ticks": 110976,
            "time": 105.090804,
            "velocity": 0.14173228346456693
          },
          {
            "duration": 0.8181809999999956,
            "durationTicks": 864,
            "midi": 59,
            "name": "B3",
            "ticks": 110976,
            "time": 105.090804,
            "velocity": 0.14173228346456693
          },
          {
            "duration": 0.8181810000000098,
            "durationTicks": 864,
            "midi": 54,
            "name": "F#3",
            "ticks": 111168,
            "time": 105.272622,
            "velocity": 0.14173228346456693
          },
          {
            "duration": 0.8181810000000098,
            "durationTicks": 864,
            "midi": 58,
            "name": "A#3",
            "ticks": 111168,
            "time": 105.272622,
            "velocity": 0.14173228346456693
          },
          {
            "duration": 0.8181809999999956,
            "durationTicks": 864,
            "midi": 54,
            "name": "F#3",
            "ticks": 111360,
            "time": 105.45444,
            "velocity": 0.14173228346456693
          },
          {
            "duration": 0.8181809999999956,
            "durationTicks": 864,
            "midi": 51,
            "name": "D#3",
            "ticks": 111360,
            "time": 105.45444,
            "velocity": 0.14173228346456693
          },
          {
            "duration": 0.8181809999999956,
            "durationTicks": 864,
            "midi": 54,
            "name": "F#3",
            "ticks": 111744,
            "time": 105.818076,
            "velocity": 0.14173228346456693
          },
          {
            "duration": 0.8181810000000098,
            "durationTicks": 864,
            "midi": 51,
            "name": "D#3",
            "ticks": 111936,
            "time": 105.999894,
            "velocity": 0.14173228346456693
          },
          {
            "duration": 0.8181810000000098,
            "durationTicks": 864,
            "midi": 56,
            "name": "G#3",
            "ticks": 111936,
            "time": 105.999894,
            "velocity": 0.14173228346456693
          },
          {
            "duration": 0.8181810000000098,
            "durationTicks": 864,
            "midi": 56,
            "name": "G#3",
            "ticks": 112320,
            "time": 106.36353,
            "velocity": 0.14173228346456693
          },
          {
            "duration": 0.8181809999999956,
            "durationTicks": 864,
            "midi": 58,
            "name": "A#3",
            "ticks": 112512,
            "time": 106.545348,
            "velocity": 0.14173228346456693
          },
          {
            "duration": 1.1818169999999952,
            "durationTicks": 1248,
            "midi": 51,
            "name": "D#3",
            "ticks": 112896,
            "time": 106.908984,
            "velocity": 0.14173228346456693
          },
          {
            "duration": 0.8181809999999956,
            "durationTicks": 864,
            "midi": 56,
            "name": "G#3",
            "ticks": 112896,
            "time": 106.908984,
            "velocity": 0.14173228346456693
          },
          {
            "duration": 0.8181809999999956,
            "durationTicks": 864,
            "midi": 54,
            "name": "F#3",
            "ticks": 113280,
            "time": 107.27262,
            "velocity": 0.14173228346456693
          },
          {
            "duration": 0.8181809999999956,
            "durationTicks": 864,
            "midi": 58,
            "name": "A#3",
            "ticks": 113664,
            "time": 107.636256,
            "velocity": 0.14173228346456693
          },
          {
            "duration": 0.8181809999999956,
            "durationTicks": 864,
            "midi": 70,
            "name": "A#4",
            "ticks": 113664,
            "time": 107.636256,
            "velocity": 0.14173228346456693
          },
          {
            "duration": 0.8181809999999956,
            "durationTicks": 864,
            "midi": 70,
            "name": "A#4",
            "ticks": 113952,
            "time": 107.908983,
            "velocity": 0.14173228346456693
          },
          {
            "duration": 0.8181809999999956,
            "durationTicks": 864,
            "midi": 58,
            "name": "A#3",
            "ticks": 113952,
            "time": 107.908983,
            "velocity": 0.14173228346456693
          },
          {
            "duration": 0.8181809999999956,
            "durationTicks": 864,
            "midi": 70,
            "name": "A#4",
            "ticks": 114240,
            "time": 108.18171000000001,
            "velocity": 0.14173228346456693
          },
          {
            "duration": 0.8181809999999956,
            "durationTicks": 864,
            "midi": 58,
            "name": "A#3",
            "ticks": 114240,
            "time": 108.18171000000001,
            "velocity": 0.14173228346456693
          },
          {
            "duration": 0.8181810000000098,
            "durationTicks": 864,
            "midi": 71,
            "name": "B4",
            "ticks": 114528,
            "time": 108.454437,
            "velocity": 0.14173228346456693
          },
          {
            "duration": 0.8181810000000098,
            "durationTicks": 864,
            "midi": 59,
            "name": "B3",
            "ticks": 114528,
            "time": 108.454437,
            "velocity": 0.14173228346456693
          },
          {
            "duration": 0.8181809999999956,
            "durationTicks": 864,
            "midi": 54,
            "name": "F#3",
            "ticks": 114816,
            "time": 108.727164,
            "velocity": 0.14173228346456693
          },
          {
            "duration": 0.8181809999999956,
            "durationTicks": 864,
            "midi": 66,
            "name": "F#4",
            "ticks": 114816,
            "time": 108.727164,
            "velocity": 0.14173228346456693
          },
          {
            "duration": 0.8181809999999956,
            "durationTicks": 864,
            "midi": 70,
            "name": "A#4",
            "ticks": 115008,
            "time": 108.90898200000001,
            "velocity": 0.14173228346456693
          },
          {
            "duration": 0.8181809999999956,
            "durationTicks": 864,
            "midi": 58,
            "name": "A#3",
            "ticks": 115008,
            "time": 108.90898200000001,
            "velocity": 0.14173228346456693
          },
          {
            "duration": 0.8181810000000098,
            "durationTicks": 864,
            "midi": 68,
            "name": "G#4",
            "ticks": 115200,
            "time": 109.0908,
            "velocity": 0.14173228346456693
          },
          {
            "duration": 0.8181810000000098,
            "durationTicks": 864,
            "midi": 56,
            "name": "G#3",
            "ticks": 115200,
            "time": 109.0908,
            "velocity": 0.14173228346456693
          },
          {
            "duration": 0.8181809999999956,
            "durationTicks": 864,
            "midi": 56,
            "name": "G#3",
            "ticks": 115488,
            "time": 109.363527,
            "velocity": 0.14173228346456693
          },
          {
            "duration": 0.8181809999999956,
            "durationTicks": 864,
            "midi": 68,
            "name": "G#4",
            "ticks": 115488,
            "time": 109.363527,
            "velocity": 0.14173228346456693
          },
          {
            "duration": 0.8181809999999956,
            "durationTicks": 864,
            "midi": 56,
            "name": "G#3",
            "ticks": 115776,
            "time": 109.63625400000001,
            "velocity": 0.14173228346456693
          },
          {
            "duration": 0.8181809999999956,
            "durationTicks": 864,
            "midi": 68,
            "name": "G#4",
            "ticks": 115776,
            "time": 109.63625400000001,
            "velocity": 0.14173228346456693
          },
          {
            "duration": 0.8181809999999956,
            "durationTicks": 864,
            "midi": 58,
            "name": "A#3",
            "ticks": 116064,
            "time": 109.90898100000001,
            "velocity": 0.14173228346456693
          },
          {
            "duration": 0.8181809999999956,
            "durationTicks": 864,
            "midi": 70,
            "name": "A#4",
            "ticks": 116064,
            "time": 109.90898100000001,
            "velocity": 0.14173228346456693
          },
          {
            "duration": 0.8181810000000098,
            "durationTicks": 864,
            "midi": 49,
            "name": "C#3",
            "ticks": 116352,
            "time": 110.181708,
            "velocity": 0.14173228346456693
          },
          {
            "duration": 0.8181810000000098,
            "durationTicks": 864,
            "midi": 61,
            "name": "C#4",
            "ticks": 116352,
            "time": 110.181708,
            "velocity": 0.14173228346456693
          },
          {
            "duration": 0.8181809999999956,
            "durationTicks": 864,
            "midi": 68,
            "name": "G#4",
            "ticks": 116544,
            "time": 110.36352600000001,
            "velocity": 0.14173228346456693
          },
          {
            "duration": 0.8181809999999956,
            "durationTicks": 864,
            "midi": 56,
            "name": "G#3",
            "ticks": 116544,
            "time": 110.36352600000001,
            "velocity": 0.14173228346456693
          },
          {
            "duration": 0.8181810000000098,
            "durationTicks": 864,
            "midi": 66,
            "name": "F#4",
            "ticks": 116736,
            "time": 110.545344,
            "velocity": 0.14173228346456693
          },
          {
            "duration": 0.8181810000000098,
            "durationTicks": 864,
            "midi": 54,
            "name": "F#3",
            "ticks": 116736,
            "time": 110.545344,
            "velocity": 0.14173228346456693
          },
          {
            "duration": 0.8181809999999956,
            "durationTicks": 864,
            "midi": 66,
            "name": "F#4",
            "ticks": 117024,
            "time": 110.818071,
            "velocity": 0.14173228346456693
          },
          {
            "duration": 0.8181809999999956,
            "durationTicks": 864,
            "midi": 54,
            "name": "F#3",
            "ticks": 117024,
            "time": 110.818071,
            "velocity": 0.14173228346456693
          },
          {
            "duration": 0.8181809999999956,
            "durationTicks": 864,
            "midi": 54,
            "name": "F#3",
            "ticks": 117312,
            "time": 111.090798,
            "velocity": 0.14173228346456693
          },
          {
            "duration": 0.8181809999999956,
            "durationTicks": 864,
            "midi": 66,
            "name": "F#4",
            "ticks": 117312,
            "time": 111.090798,
            "velocity": 0.14173228346456693
          },
          {
            "duration": 0.8181809999999956,
            "durationTicks": 864,
            "midi": 54,
            "name": "F#3",
            "ticks": 117600,
            "time": 111.36352500000001,
            "velocity": 0.14173228346456693
          },
          {
            "duration": 0.8181809999999956,
            "durationTicks": 864,
            "midi": 66,
            "name": "F#4",
            "ticks": 117600,
            "time": 111.36352500000001,
            "velocity": 0.14173228346456693
          },
          {
            "duration": 0.8181810000000098,
            "durationTicks": 864,
            "midi": 61,
            "name": "C#4",
            "ticks": 117888,
            "time": 111.636252,
            "velocity": 0.14173228346456693
          },
          {
            "duration": 0.8181810000000098,
            "durationTicks": 864,
            "midi": 49,
            "name": "C#3",
            "ticks": 117888,
            "time": 111.636252,
            "velocity": 0.14173228346456693
          },
          {
            "duration": 0.8181809999999956,
            "durationTicks": 864,
            "midi": 56,
            "name": "G#3",
            "ticks": 118080,
            "time": 111.81807,
            "velocity": 0.14173228346456693
          },
          {
            "duration": 0.8181809999999956,
            "durationTicks": 864,
            "midi": 68,
            "name": "G#4",
            "ticks": 118080,
            "time": 111.81807,
            "velocity": 0.14173228346456693
          },
          {
            "duration": 0.8181810000000098,
            "durationTicks": 864,
            "midi": 54,
            "name": "F#3",
            "ticks": 118272,
            "time": 111.999888,
            "velocity": 0.14173228346456693
          },
          {
            "duration": 0.8181810000000098,
            "durationTicks": 864,
            "midi": 66,
            "name": "F#4",
            "ticks": 118272,
            "time": 111.999888,
            "velocity": 0.14173228346456693
          },
          {
            "duration": 0.8181810000000098,
            "durationTicks": 864,
            "midi": 54,
            "name": "F#3",
            "ticks": 118560,
            "time": 112.272615,
            "velocity": 0.14173228346456693
          },
          {
            "duration": 0.8181810000000098,
            "durationTicks": 864,
            "midi": 66,
            "name": "F#4",
            "ticks": 118560,
            "time": 112.272615,
            "velocity": 0.14173228346456693
          },
          {
            "duration": 0.8181809999999956,
            "durationTicks": 864,
            "midi": 66,
            "name": "F#4",
            "ticks": 118848,
            "time": 112.545342,
            "velocity": 0.14173228346456693
          },
          {
            "duration": 0.8181809999999956,
            "durationTicks": 864,
            "midi": 54,
            "name": "F#3",
            "ticks": 118848,
            "time": 112.545342,
            "velocity": 0.14173228346456693
          },
          {
            "duration": 0.8181809999999956,
            "durationTicks": 864,
            "midi": 53,
            "name": "F3",
            "ticks": 119136,
            "time": 112.81806900000001,
            "velocity": 0.14173228346456693
          },
          {
            "duration": 0.8181809999999956,
            "durationTicks": 864,
            "midi": 65,
            "name": "F4",
            "ticks": 119136,
            "time": 112.81806900000001,
            "velocity": 0.14173228346456693
          },
          {
            "duration": 0.8181809999999956,
            "durationTicks": 864,
            "midi": 66,
            "name": "F#4",
            "ticks": 119424,
            "time": 113.09079600000001,
            "velocity": 0.14173228346456693
          },
          {
            "duration": 0.8181809999999956,
            "durationTicks": 864,
            "midi": 54,
            "name": "F#3",
            "ticks": 119424,
            "time": 113.09079600000001,
            "velocity": 0.14173228346456693
          },
          {
            "duration": 0.8181809999999956,
            "durationTicks": 864,
            "midi": 56,
            "name": "G#3",
            "ticks": 119616,
            "time": 113.272614,
            "velocity": 0.14173228346456693
          },
          {
            "duration": 0.8181809999999956,
            "durationTicks": 864,
            "midi": 68,
            "name": "G#4",
            "ticks": 119616,
            "time": 113.272614,
            "velocity": 0.14173228346456693
          },
          {
            "duration": 0.8181809999999956,
            "durationTicks": 864,
            "midi": 58,
            "name": "A#3",
            "ticks": 119808,
            "time": 113.45443200000001,
            "velocity": 0.14173228346456693
          },
          {
            "duration": 0.8181809999999956,
            "durationTicks": 864,
            "midi": 70,
            "name": "A#4",
            "ticks": 119808,
            "time": 113.45443200000001,
            "velocity": 0.14173228346456693
          },
          {
            "duration": 0.8181810000000098,
            "durationTicks": 864,
            "midi": 70,
            "name": "A#4",
            "ticks": 120096,
            "time": 113.727159,
            "velocity": 0.14173228346456693
          },
          {
            "duration": 0.8181810000000098,
            "durationTicks": 864,
            "midi": 58,
            "name": "A#3",
            "ticks": 120096,
            "time": 113.727159,
            "velocity": 0.14173228346456693
          },
          {
            "duration": 0.8181809999999956,
            "durationTicks": 864,
            "midi": 70,
            "name": "A#4",
            "ticks": 120384,
            "time": 113.999886,
            "velocity": 0.14173228346456693
          },
          {
            "duration": 0.8181809999999956,
            "durationTicks": 864,
            "midi": 58,
            "name": "A#3",
            "ticks": 120384,
            "time": 113.999886,
            "velocity": 0.14173228346456693
          },
          {
            "duration": 0.8181809999999956,
            "durationTicks": 864,
            "midi": 71,
            "name": "B4",
            "ticks": 120672,
            "time": 114.272613,
            "velocity": 0.14173228346456693
          },
          {
            "duration": 0.8181809999999956,
            "durationTicks": 864,
            "midi": 59,
            "name": "B3",
            "ticks": 120672,
            "time": 114.272613,
            "velocity": 0.14173228346456693
          },
          {
            "duration": 0.8181809999999956,
            "durationTicks": 864,
            "midi": 54,
            "name": "F#3",
            "ticks": 120960,
            "time": 114.54534000000001,
            "velocity": 0.14173228346456693
          },
          {
            "duration": 0.8181809999999956,
            "durationTicks": 864,
            "midi": 66,
            "name": "F#4",
            "ticks": 120960,
            "time": 114.54534000000001,
            "velocity": 0.14173228346456693
          },
          {
            "duration": 0.8181809999999956,
            "durationTicks": 864,
            "midi": 58,
            "name": "A#3",
            "ticks": 121152,
            "time": 114.727158,
            "velocity": 0.14173228346456693
          },
          {
            "duration": 0.8181809999999956,
            "durationTicks": 864,
            "midi": 70,
            "name": "A#4",
            "ticks": 121152,
            "time": 114.727158,
            "velocity": 0.14173228346456693
          },
          {
            "duration": 0.8181809999999956,
            "durationTicks": 864,
            "midi": 68,
            "name": "G#4",
            "ticks": 121344,
            "time": 114.90897600000001,
            "velocity": 0.14173228346456693
          },
          {
            "duration": 0.8181809999999956,
            "durationTicks": 864,
            "midi": 56,
            "name": "G#3",
            "ticks": 121344,
            "time": 114.90897600000001,
            "velocity": 0.14173228346456693
          },
          {
            "duration": 0.8181810000000098,
            "durationTicks": 864,
            "midi": 56,
            "name": "G#3",
            "ticks": 121632,
            "time": 115.181703,
            "velocity": 0.14173228346456693
          },
          {
            "duration": 0.8181810000000098,
            "durationTicks": 864,
            "midi": 68,
            "name": "G#4",
            "ticks": 121632,
            "time": 115.181703,
            "velocity": 0.14173228346456693
          },
          {
            "duration": 0.8181809999999956,
            "durationTicks": 864,
            "midi": 56,
            "name": "G#3",
            "ticks": 121920,
            "time": 115.45443,
            "velocity": 0.14173228346456693
          },
          {
            "duration": 0.8181809999999956,
            "durationTicks": 864,
            "midi": 68,
            "name": "G#4",
            "ticks": 121920,
            "time": 115.45443,
            "velocity": 0.14173228346456693
          },
          {
            "duration": 0.8181809999999956,
            "durationTicks": 864,
            "midi": 73,
            "name": "C#5",
            "ticks": 122208,
            "time": 115.727157,
            "velocity": 0.14173228346456693
          },
          {
            "duration": 0.8181809999999956,
            "durationTicks": 864,
            "midi": 61,
            "name": "C#4",
            "ticks": 122208,
            "time": 115.727157,
            "velocity": 0.14173228346456693
          },
          {
            "duration": 0.8181809999999956,
            "durationTicks": 864,
            "midi": 65,
            "name": "F4",
            "ticks": 122496,
            "time": 115.99988400000001,
            "velocity": 0.14173228346456693
          },
          {
            "duration": 0.8181809999999956,
            "durationTicks": 864,
            "midi": 53,
            "name": "F3",
            "ticks": 122496,
            "time": 115.99988400000001,
            "velocity": 0.14173228346456693
          },
          {
            "duration": 0.8181810000000098,
            "durationTicks": 864,
            "midi": 56,
            "name": "G#3",
            "ticks": 122688,
            "time": 116.181702,
            "velocity": 0.14173228346456693
          },
          {
            "duration": 0.8181810000000098,
            "durationTicks": 864,
            "midi": 68,
            "name": "G#4",
            "ticks": 122688,
            "time": 116.181702,
            "velocity": 0.14173228346456693
          },
          {
            "duration": 0.8181809999999956,
            "durationTicks": 864,
            "midi": 54,
            "name": "F#3",
            "ticks": 122880,
            "time": 116.36352000000001,
            "velocity": 0.14173228346456693
          },
          {
            "duration": 0.8181809999999956,
            "durationTicks": 864,
            "midi": 66,
            "name": "F#4",
            "ticks": 122880,
            "time": 116.36352000000001,
            "velocity": 0.14173228346456693
          },
          {
            "duration": 0.8181809999999956,
            "durationTicks": 864,
            "midi": 54,
            "name": "F#3",
            "ticks": 123168,
            "time": 116.63624700000001,
            "velocity": 0.14173228346456693
          },
          {
            "duration": 0.8181809999999956,
            "durationTicks": 864,
            "midi": 66,
            "name": "F#4",
            "ticks": 123168,
            "time": 116.63624700000001,
            "velocity": 0.14173228346456693
          },
          {
            "duration": 0.8181810000000098,
            "durationTicks": 864,
            "midi": 66,
            "name": "F#4",
            "ticks": 123456,
            "time": 116.908974,
            "velocity": 0.14173228346456693
          },
          {
            "duration": 0.8181810000000098,
            "durationTicks": 864,
            "midi": 54,
            "name": "F#3",
            "ticks": 123456,
            "time": 116.908974,
            "velocity": 0.14173228346456693
          },
          {
            "duration": 0.8181809999999956,
            "durationTicks": 864,
            "midi": 68,
            "name": "G#4",
            "ticks": 123744,
            "time": 117.181701,
            "velocity": 0.14173228346456693
          },
          {
            "duration": 0.8181809999999956,
            "durationTicks": 864,
            "midi": 56,
            "name": "G#3",
            "ticks": 123744,
            "time": 117.181701,
            "velocity": 0.14173228346456693
          },
          {
            "duration": 0.8181809999999956,
            "durationTicks": 864,
            "midi": 51,
            "name": "D#3",
            "ticks": 124032,
            "time": 117.45442800000001,
            "velocity": 0.14173228346456693
          },
          {
            "duration": 0.8181809999999956,
            "durationTicks": 864,
            "midi": 63,
            "name": "D#4",
            "ticks": 124032,
            "time": 117.45442800000001,
            "velocity": 0.14173228346456693
          },
          {
            "duration": 0.8181810000000098,
            "durationTicks": 864,
            "midi": 53,
            "name": "F3",
            "ticks": 124224,
            "time": 117.636246,
            "velocity": 0.14173228346456693
          },
          {
            "duration": 0.8181810000000098,
            "durationTicks": 864,
            "midi": 65,
            "name": "F4",
            "ticks": 124224,
            "time": 117.636246,
            "velocity": 0.14173228346456693
          },
          {
            "duration": 0.8181809999999956,
            "durationTicks": 864,
            "midi": 54,
            "name": "F#3",
            "ticks": 124416,
            "time": 117.818064,
            "velocity": 0.14173228346456693
          },
          {
            "duration": 0.8181809999999956,
            "durationTicks": 864,
            "midi": 66,
            "name": "F#4",
            "ticks": 124416,
            "time": 117.818064,
            "velocity": 0.14173228346456693
          },
          {
            "duration": 0.8181809999999956,
            "durationTicks": 864,
            "midi": 54,
            "name": "F#3",
            "ticks": 124704,
            "time": 118.09079100000001,
            "velocity": 0.14173228346456693
          },
          {
            "duration": 0.8181810000000098,
            "durationTicks": 864,
            "midi": 54,
            "name": "F#3",
            "ticks": 124992,
            "time": 118.363518,
            "velocity": 0.14173228346456693
          },
          {
            "duration": 0.8181809999999956,
            "durationTicks": 864,
            "midi": 53,
            "name": "F3",
            "ticks": 125280,
            "time": 118.636245,
            "velocity": 0.14173228346456693
          },
          {
            "duration": 0.8181809999999956,
            "durationTicks": 864,
            "midi": 54,
            "name": "F#3",
            "ticks": 125568,
            "time": 118.908972,
            "velocity": 0.14173228346456693
          },
          {
            "duration": 0.8181810000000098,
            "durationTicks": 864,
            "midi": 56,
            "name": "G#3",
            "ticks": 125760,
            "time": 119.09079,
            "velocity": 0.14173228346456693
          },
          {
            "duration": 0.8181809999999956,
            "durationTicks": 864,
            "midi": 58,
            "name": "A#3",
            "ticks": 125952,
            "time": 119.272608,
            "velocity": 0.14173228346456693
          },
          {
            "duration": 0.8181809999999956,
            "durationTicks": 864,
            "midi": 58,
            "name": "A#3",
            "ticks": 126336,
            "time": 119.636244,
            "velocity": 0.14173228346456693
          },
          {
            "duration": 0.8181809999999956,
            "durationTicks": 864,
            "midi": 58,
            "name": "A#3",
            "ticks": 126528,
            "time": 119.81806200000001,
            "velocity": 0.14173228346456693
          },
          {
            "duration": 0.8181809999999956,
            "durationTicks": 864,
            "midi": 58,
            "name": "A#3",
            "ticks": 126720,
            "time": 119.99988,
            "velocity": 0.14173228346456693
          },
          {
            "duration": 0.8181809999999956,
            "durationTicks": 864,
            "midi": 56,
            "name": "G#3",
            "ticks": 127296,
            "time": 120.54533400000001,
            "velocity": 0.14173228346456693
          },
          {
            "duration": 0.8181809999999956,
            "durationTicks": 864,
            "midi": 56,
            "name": "G#3",
            "ticks": 127680,
            "time": 120.90897000000001,
            "velocity": 0.14173228346456693
          },
          {
            "duration": 0.8181809999999956,
            "durationTicks": 864,
            "midi": 56,
            "name": "G#3",
            "ticks": 127872,
            "time": 121.090788,
            "velocity": 0.14173228346456693
          },
          {
            "duration": 0.8181809999999956,
            "durationTicks": 864,
            "midi": 54,
            "name": "F#3",
            "ticks": 128064,
            "time": 121.27260600000001,
            "velocity": 0.14173228346456693
          },
          {
            "duration": 0.8181809999999956,
            "durationTicks": 864,
            "midi": 56,
            "name": "G#3",
            "ticks": 128256,
            "time": 121.454424,
            "velocity": 0.14173228346456693
          },
          {
            "duration": 0.8181809999999956,
            "durationTicks": 864,
            "midi": 58,
            "name": "A#3",
            "ticks": 128640,
            "time": 121.81806,
            "velocity": 0.14173228346456693
          },
          {
            "duration": 0.8181809999999956,
            "durationTicks": 864,
            "midi": 54,
            "name": "F#3",
            "ticks": 129024,
            "time": 122.181696,
            "velocity": 0.14173228346456693
          },
          {
            "duration": 0.8181810000000098,
            "durationTicks": 864,
            "midi": 54,
            "name": "F#3",
            "ticks": 129408,
            "time": 122.545332,
            "velocity": 0.14173228346456693
          },
          {
            "duration": 0.8181809999999956,
            "durationTicks": 864,
            "midi": 54,
            "name": "F#3",
            "ticks": 129600,
            "time": 122.72715000000001,
            "velocity": 0.14173228346456693
          },
          {
            "duration": 0.8181810000000098,
            "durationTicks": 864,
            "midi": 54,
            "name": "F#3",
            "ticks": 129792,
            "time": 122.908968,
            "velocity": 0.14173228346456693
          },
          {
            "duration": 0.8181810000000098,
            "durationTicks": 864,
            "midi": 54,
            "name": "F#3",
            "ticks": 130176,
            "time": 123.272604,
            "velocity": 0.14173228346456693
          },
          {
            "duration": 0.8181809999999956,
            "durationTicks": 864,
            "midi": 51,
            "name": "D#3",
            "ticks": 130368,
            "time": 123.45442200000001,
            "velocity": 0.14173228346456693
          },
          {
            "duration": 0.8181809999999956,
            "durationTicks": 864,
            "midi": 51,
            "name": "D#3",
            "ticks": 130752,
            "time": 123.81805800000001,
            "velocity": 0.14173228346456693
          },
          {
            "duration": 0.8181810000000098,
            "durationTicks": 864,
            "midi": 53,
            "name": "F3",
            "ticks": 130944,
            "time": 123.999876,
            "velocity": 0.14173228346456693
          },
          {
            "duration": 0.8181809999999956,
            "durationTicks": 864,
            "midi": 53,
            "name": "F3",
            "ticks": 131136,
            "time": 124.18169400000001,
            "velocity": 0.14173228346456693
          },
          {
            "duration": 0.8181810000000098,
            "durationTicks": 864,
            "midi": 54,
            "name": "F#3",
            "ticks": 131328,
            "time": 124.363512,
            "velocity": 0.14173228346456693
          },
          {
            "duration": 0.8181810000000098,
            "durationTicks": 864,
            "midi": 56,
            "name": "G#3",
            "ticks": 131712,
            "time": 124.727148,
            "velocity": 0.14173228346456693
          },
          {
            "duration": 0.8181810000000098,
            "durationTicks": 864,
            "midi": 58,
            "name": "A#3",
            "ticks": 132096,
            "time": 125.090784,
            "velocity": 0.14173228346456693
          },
          {
            "duration": 0.8181810000000098,
            "durationTicks": 864,
            "midi": 58,
            "name": "A#3",
            "ticks": 132480,
            "time": 125.45442,
            "velocity": 0.14173228346456693
          },
          {
            "duration": 0.8181809999999956,
            "durationTicks": 864,
            "midi": 58,
            "name": "A#3",
            "ticks": 132672,
            "time": 125.636238,
            "velocity": 0.14173228346456693
          },
          {
            "duration": 0.8181810000000098,
            "durationTicks": 864,
            "midi": 58,
            "name": "A#3",
            "ticks": 132864,
            "time": 125.818056,
            "velocity": 0.14173228346456693
          },
          {
            "duration": 0.8181809999999956,
            "durationTicks": 864,
            "midi": 56,
            "name": "G#3",
            "ticks": 133440,
            "time": 126.36351,
            "velocity": 0.14173228346456693
          },
          {
            "duration": 0.8181809999999956,
            "durationTicks": 864,
            "midi": 56,
            "name": "G#3",
            "ticks": 133824,
            "time": 126.727146,
            "velocity": 0.14173228346456693
          },
          {
            "duration": 0.8181809999999956,
            "durationTicks": 864,
            "midi": 61,
            "name": "C#4",
            "ticks": 134016,
            "time": 126.90896400000001,
            "velocity": 0.14173228346456693
          },
          {
            "duration": 0.8181809999999956,
            "durationTicks": 864,
            "midi": 61,
            "name": "C#4",
            "ticks": 134208,
            "time": 127.090782,
            "velocity": 0.14173228346456693
          },
          {
            "duration": 0.8181809999999814,
            "durationTicks": 864,
            "midi": 59,
            "name": "B3",
            "ticks": 134400,
            "time": 127.27260000000001,
            "velocity": 0.14173228346456693
          },
          {
            "duration": 0.8181809999999956,
            "durationTicks": 864,
            "midi": 58,
            "name": "A#3",
            "ticks": 134784,
            "time": 127.63623600000001,
            "velocity": 0.14173228346456693
          },
          {
            "duration": 0.8181809999999814,
            "durationTicks": 864,
            "midi": 54,
            "name": "F#3",
            "ticks": 135168,
            "time": 127.99987200000001,
            "velocity": 0.14173228346456693
          },
          {
            "duration": 0.8181810000000098,
            "durationTicks": 864,
            "midi": 54,
            "name": "F#3",
            "ticks": 135552,
            "time": 128.363508,
            "velocity": 0.14173228346456693
          },
          {
            "duration": 0.8181809999999814,
            "durationTicks": 864,
            "midi": 54,
            "name": "F#3",
            "ticks": 135744,
            "time": 128.54532600000002,
            "velocity": 0.14173228346456693
          },
          {
            "duration": 0.8181809999999814,
            "durationTicks": 864,
            "midi": 54,
            "name": "F#3",
            "ticks": 135936,
            "time": 128.727144,
            "velocity": 0.14173228346456693
          },
          {
            "duration": 0.8181810000000098,
            "durationTicks": 864,
            "midi": 54,
            "name": "F#3",
            "ticks": 136320,
            "time": 129.09078,
            "velocity": 0.14173228346456693
          },
          {
            "duration": 0.8181809999999814,
            "durationTicks": 864,
            "midi": 61,
            "name": "C#4",
            "ticks": 136512,
            "time": 129.27259800000002,
            "velocity": 0.14173228346456693
          },
          {
            "duration": 0.8181810000000098,
            "durationTicks": 864,
            "midi": 61,
            "name": "C#4",
            "ticks": 136896,
            "time": 129.636234,
            "velocity": 0.14173228346456693
          },
          {
            "duration": 0.8181810000000098,
            "durationTicks": 864,
            "midi": 54,
            "name": "F#3",
            "ticks": 137088,
            "time": 129.818052,
            "velocity": 0.14173228346456693
          },
          {
            "duration": 0.8181810000000098,
            "durationTicks": 864,
            "midi": 54,
            "name": "F#3",
            "ticks": 137472,
            "time": 130.181688,
            "velocity": 0.14173228346456693
          },
          {
            "duration": 0.8181810000000098,
            "durationTicks": 864,
            "midi": 53,
            "name": "F3",
            "ticks": 137856,
            "time": 130.545324,
            "velocity": 0.14173228346456693
          },
          {
            "duration": 0.8181810000000098,
            "durationTicks": 864,
            "midi": 56,
            "name": "G#3",
            "ticks": 141312,
            "time": 133.818048,
            "velocity": 0.14173228346456693
          },
          {
            "duration": 0.8181809999999814,
            "durationTicks": 864,
            "midi": 56,
            "name": "G#3",
            "ticks": 141696,
            "time": 134.18168400000002,
            "velocity": 0.14173228346456693
          },
          {
            "duration": 0.8181810000000098,
            "durationTicks": 864,
            "midi": 56,
            "name": "G#3",
            "ticks": 142080,
            "time": 134.54532,
            "velocity": 0.14173228346456693
          },
          {
            "duration": 0.8181810000000098,
            "durationTicks": 864,
            "midi": 58,
            "name": "A#3",
            "ticks": 142272,
            "time": 134.727138,
            "velocity": 0.14173228346456693
          },
          {
            "duration": 0.8181809999999814,
            "durationTicks": 864,
            "midi": 49,
            "name": "C#3",
            "ticks": 142464,
            "time": 134.90895600000002,
            "velocity": 0.14173228346456693
          },
          {
            "duration": 0.8181809999999814,
            "durationTicks": 864,
            "midi": 49,
            "name": "C#3",
            "ticks": 142656,
            "time": 135.090774,
            "velocity": 0.14173228346456693
          },
          {
            "duration": 0.8181810000000098,
            "durationTicks": 864,
            "midi": 61,
            "name": "C#4",
            "ticks": 143040,
            "time": 135.45441,
            "velocity": 0.14173228346456693
          },
          {
            "duration": 0.8181810000000098,
            "durationTicks": 864,
            "midi": 73,
            "name": "C#5",
            "ticks": 143040,
            "time": 135.45441,
            "velocity": 0.14173228346456693
          },
          {
            "duration": 0.8181810000000098,
            "durationTicks": 864,
            "midi": 73,
            "name": "C#5",
            "ticks": 143424,
            "time": 135.818046,
            "velocity": 0.14173228346456693
          },
          {
            "duration": 0.8181810000000098,
            "durationTicks": 864,
            "midi": 61,
            "name": "C#4",
            "ticks": 143424,
            "time": 135.818046,
            "velocity": 0.14173228346456693
          },
          {
            "duration": 0.8181810000000098,
            "durationTicks": 864,
            "midi": 73,
            "name": "C#5",
            "ticks": 143808,
            "time": 136.181682,
            "velocity": 0.14173228346456693
          },
          {
            "duration": 0.8181810000000098,
            "durationTicks": 864,
            "midi": 61,
            "name": "C#4",
            "ticks": 143808,
            "time": 136.181682,
            "velocity": 0.14173228346456693
          },
          {
            "duration": 0.8181809999999814,
            "durationTicks": 864,
            "midi": 73,
            "name": "C#5",
            "ticks": 144000,
            "time": 136.36350000000002,
            "velocity": 0.14173228346456693
          },
          {
            "duration": 0.8181809999999814,
            "durationTicks": 864,
            "midi": 61,
            "name": "C#4",
            "ticks": 144000,
            "time": 136.36350000000002,
            "velocity": 0.14173228346456693
          },
          {
            "duration": 0.8181810000000098,
            "durationTicks": 864,
            "midi": 56,
            "name": "G#3",
            "ticks": 144384,
            "time": 136.727136,
            "velocity": 0.14173228346456693
          },
          {
            "duration": 0.8181809999999814,
            "durationTicks": 864,
            "midi": 56,
            "name": "G#3",
            "ticks": 144768,
            "time": 137.09077200000002,
            "velocity": 0.14173228346456693
          },
          {
            "duration": 0.8181810000000098,
            "durationTicks": 864,
            "midi": 56,
            "name": "G#3",
            "ticks": 145152,
            "time": 137.454408,
            "velocity": 0.14173228346456693
          },
          {
            "duration": 0.8181810000000098,
            "durationTicks": 864,
            "midi": 58,
            "name": "A#3",
            "ticks": 145344,
            "time": 137.636226,
            "velocity": 0.14173228346456693
          },
          {
            "duration": 0.8181809999999814,
            "durationTicks": 864,
            "midi": 49,
            "name": "C#3",
            "ticks": 145536,
            "time": 137.81804400000001,
            "velocity": 0.14173228346456693
          },
          {
            "duration": 0.8181810000000098,
            "durationTicks": 864,
            "midi": 49,
            "name": "C#3",
            "ticks": 145728,
            "time": 137.999862,
            "velocity": 0.14173228346456693
          },
          {
            "duration": 0.8181810000000098,
            "durationTicks": 864,
            "midi": 51,
            "name": "D#3",
            "ticks": 146112,
            "time": 138.363498,
            "velocity": 0.14173228346456693
          },
          {
            "duration": 0.8181809999999814,
            "durationTicks": 864,
            "midi": 49,
            "name": "C#3",
            "ticks": 146304,
            "time": 138.545316,
            "velocity": 0.14173228346456693
          },
          {
            "duration": 0.8181810000000098,
            "durationTicks": 864,
            "midi": 58,
            "name": "A#3",
            "ticks": 147456,
            "time": 139.636224,
            "velocity": 0.14173228346456693
          },
          {
            "duration": 0.8181809999999814,
            "durationTicks": 864,
            "midi": 58,
            "name": "A#3",
            "ticks": 147840,
            "time": 139.99986,
            "velocity": 0.14173228346456693
          },
          {
            "duration": 0.8181810000000098,
            "durationTicks": 864,
            "midi": 58,
            "name": "A#3",
            "ticks": 148224,
            "time": 140.363496,
            "velocity": 0.14173228346456693
          },
          {
            "duration": 0.8181809999999814,
            "durationTicks": 864,
            "midi": 61,
            "name": "C#4",
            "ticks": 148416,
            "time": 140.54531400000002,
            "velocity": 0.14173228346456693
          },
          {
            "duration": 0.8181809999999814,
            "durationTicks": 864,
            "midi": 58,
            "name": "A#3",
            "ticks": 148608,
            "time": 140.727132,
            "velocity": 0.14173228346456693
          },
          {
            "duration": 0.8181810000000098,
            "durationTicks": 864,
            "midi": 56,
            "name": "G#3",
            "ticks": 148800,
            "time": 140.90895,
            "velocity": 0.14173228346456693
          },
          {
            "duration": 0.8181809999999814,
            "durationTicks": 864,
            "midi": 73,
            "name": "C#5",
            "ticks": 149184,
            "time": 141.27258600000002,
            "velocity": 0.14173228346456693
          },
          {
            "duration": 0.8181809999999814,
            "durationTicks": 864,
            "midi": 61,
            "name": "C#4",
            "ticks": 149184,
            "time": 141.27258600000002,
            "velocity": 0.14173228346456693
          },
          {
            "duration": 0.8181810000000098,
            "durationTicks": 864,
            "midi": 61,
            "name": "C#4",
            "ticks": 149568,
            "time": 141.636222,
            "velocity": 0.14173228346456693
          },
          {
            "duration": 0.8181810000000098,
            "durationTicks": 864,
            "midi": 73,
            "name": "C#5",
            "ticks": 149568,
            "time": 141.636222,
            "velocity": 0.14173228346456693
          },
          {
            "duration": 0.8181809999999814,
            "durationTicks": 864,
            "midi": 61,
            "name": "C#4",
            "ticks": 149952,
            "time": 141.99985800000002,
            "velocity": 0.14173228346456693
          },
          {
            "duration": 0.8181809999999814,
            "durationTicks": 864,
            "midi": 73,
            "name": "C#5",
            "ticks": 149952,
            "time": 141.99985800000002,
            "velocity": 0.14173228346456693
          },
          {
            "duration": 0.8181810000000098,
            "durationTicks": 864,
            "midi": 73,
            "name": "C#5",
            "ticks": 150144,
            "time": 142.181676,
            "velocity": 0.14173228346456693
          },
          {
            "duration": 0.8181810000000098,
            "durationTicks": 864,
            "midi": 61,
            "name": "C#4",
            "ticks": 150144,
            "time": 142.181676,
            "velocity": 0.14173228346456693
          },
          {
            "duration": 0.8181810000000098,
            "durationTicks": 864,
            "midi": 56,
            "name": "G#3",
            "ticks": 150528,
            "time": 142.545312,
            "velocity": 0.14173228346456693
          },
          {
            "duration": 0.8181810000000098,
            "durationTicks": 864,
            "midi": 56,
            "name": "G#3",
            "ticks": 150912,
            "time": 142.908948,
            "velocity": 0.14173228346456693
          },
          {
            "duration": 0.8181810000000098,
            "durationTicks": 864,
            "midi": 56,
            "name": "G#3",
            "ticks": 151296,
            "time": 143.272584,
            "velocity": 0.14173228346456693
          },
          {
            "duration": 0.8181809999999814,
            "durationTicks": 864,
            "midi": 58,
            "name": "A#3",
            "ticks": 151488,
            "time": 143.45440200000002,
            "velocity": 0.14173228346456693
          },
          {
            "duration": 0.8181810000000098,
            "durationTicks": 864,
            "midi": 49,
            "name": "C#3",
            "ticks": 151680,
            "time": 143.63622,
            "velocity": 0.14173228346456693
          },
          {
            "duration": 0.8181810000000098,
            "durationTicks": 864,
            "midi": 49,
            "name": "C#3",
            "ticks": 151872,
            "time": 143.818038,
            "velocity": 0.14173228346456693
          },
          {
            "duration": 0.8181810000000098,
            "durationTicks": 864,
            "midi": 58,
            "name": "A#3",
            "ticks": 152448,
            "time": 144.363492,
            "velocity": 0.14173228346456693
          },
          {
            "duration": 0.8181810000000098,
            "durationTicks": 864,
            "midi": 70,
            "name": "A#4",
            "ticks": 152448,
            "time": 144.363492,
            "velocity": 0.14173228346456693
          },
          {
            "duration": 0.8181810000000098,
            "durationTicks": 864,
            "midi": 70,
            "name": "A#4",
            "ticks": 152832,
            "time": 144.727128,
            "velocity": 0.14173228346456693
          },
          {
            "duration": 0.8181810000000098,
            "durationTicks": 864,
            "midi": 58,
            "name": "A#3",
            "ticks": 152832,
            "time": 144.727128,
            "velocity": 0.14173228346456693
          },
          {
            "duration": 0.8181810000000098,
            "durationTicks": 864,
            "midi": 68,
            "name": "G#4",
            "ticks": 153216,
            "time": 145.090764,
            "velocity": 0.14173228346456693
          },
          {
            "duration": 0.8181810000000098,
            "durationTicks": 864,
            "midi": 56,
            "name": "G#3",
            "ticks": 153216,
            "time": 145.090764,
            "velocity": 0.14173228346456693
          },
          {
            "duration": 0.8181810000000098,
            "durationTicks": 864,
            "midi": 49,
            "name": "C#3",
            "ticks": 153600,
            "time": 145.4544,
            "velocity": 0.14173228346456693
          },
          {
            "duration": 0.8181810000000098,
            "durationTicks": 864,
            "midi": 61,
            "name": "C#4",
            "ticks": 153600,
            "time": 145.4544,
            "velocity": 0.14173228346456693
          },
          {
            "duration": 0.8181810000000098,
            "durationTicks": 864,
            "midi": 54,
            "name": "F#3",
            "ticks": 153600,
            "time": 145.4544,
            "velocity": 0.14173228346456693
          },
          {
            "duration": 0.8181810000000098,
            "durationTicks": 864,
            "midi": 58,
            "name": "A#3",
            "ticks": 153984,
            "time": 145.818036,
            "velocity": 0.14173228346456693
          },
          {
            "duration": 0.8181810000000098,
            "durationTicks": 864,
            "midi": 61,
            "name": "C#4",
            "ticks": 153984,
            "time": 145.818036,
            "velocity": 0.14173228346456693
          },
          {
            "duration": 0.8181810000000098,
            "durationTicks": 864,
            "midi": 70,
            "name": "A#4",
            "ticks": 153984,
            "time": 145.818036,
            "velocity": 0.14173228346456693
          },
          {
            "duration": 0.8181810000000098,
            "durationTicks": 864,
            "midi": 59,
            "name": "B3",
            "ticks": 154176,
            "time": 145.999854,
            "velocity": 0.14173228346456693
          },
          {
            "duration": 0.8181810000000098,
            "durationTicks": 864,
            "midi": 68,
            "name": "G#4",
            "ticks": 154176,
            "time": 145.999854,
            "velocity": 0.14173228346456693
          },
          {
            "duration": 0.8181810000000098,
            "durationTicks": 864,
            "midi": 56,
            "name": "G#3",
            "ticks": 154176,
            "time": 145.999854,
            "velocity": 0.14173228346456693
          },
          {
            "duration": 0.8181810000000098,
            "durationTicks": 864,
            "midi": 58,
            "name": "A#3",
            "ticks": 154368,
            "time": 146.181672,
            "velocity": 0.14173228346456693
          },
          {
            "duration": 0.8181810000000098,
            "durationTicks": 864,
            "midi": 66,
            "name": "F#4",
            "ticks": 154368,
            "time": 146.181672,
            "velocity": 0.14173228346456693
          },
          {
            "duration": 0.8181810000000098,
            "durationTicks": 864,
            "midi": 54,
            "name": "F#3",
            "ticks": 154368,
            "time": 146.181672,
            "velocity": 0.14173228346456693
          },
          {
            "duration": 0.8181810000000098,
            "durationTicks": 864,
            "midi": 68,
            "name": "G#4",
            "ticks": 154944,
            "time": 146.727126,
            "velocity": 0.14173228346456693
          },
          {
            "duration": 0.8181810000000098,
            "durationTicks": 864,
            "midi": 66,
            "name": "F#4",
            "ticks": 154944,
            "time": 146.727126,
            "velocity": 0.14173228346456693
          },
          {
            "duration": 0.8181810000000098,
            "durationTicks": 864,
            "midi": 56,
            "name": "G#3",
            "ticks": 154944,
            "time": 146.727126,
            "velocity": 0.14173228346456693
          },
          {
            "duration": 0.8181809999999814,
            "durationTicks": 864,
            "midi": 54,
            "name": "F#3",
            "ticks": 155328,
            "time": 147.090762,
            "velocity": 0.14173228346456693
          },
          {
            "duration": 0.8181809999999814,
            "durationTicks": 864,
            "midi": 66,
            "name": "F#4",
            "ticks": 155328,
            "time": 147.090762,
            "velocity": 0.14173228346456693
          },
          {
            "duration": 0.8181809999999814,
            "durationTicks": 864,
            "midi": 63,
            "name": "D#4",
            "ticks": 155328,
            "time": 147.090762,
            "velocity": 0.14173228346456693
          },
          {
            "duration": 0.8181810000000098,
            "durationTicks": 864,
            "midi": 66,
            "name": "F#4",
            "ticks": 155520,
            "time": 147.27258,
            "velocity": 0.14173228346456693
          },
          {
            "duration": 0.8181810000000098,
            "durationTicks": 864,
            "midi": 56,
            "name": "G#3",
            "ticks": 155520,
            "time": 147.27258,
            "velocity": 0.14173228346456693
          },
          {
            "duration": 0.8181810000000098,
            "durationTicks": 864,
            "midi": 68,
            "name": "G#4",
            "ticks": 155520,
            "time": 147.27258,
            "velocity": 0.14173228346456693
          },
          {
            "duration": 0.8181810000000098,
            "durationTicks": 864,
            "midi": 54,
            "name": "F#3",
            "ticks": 155712,
            "time": 147.454398,
            "velocity": 0.14173228346456693
          },
          {
            "duration": 0.8181810000000098,
            "durationTicks": 864,
            "midi": 63,
            "name": "D#4",
            "ticks": 155712,
            "time": 147.454398,
            "velocity": 0.14173228346456693
          },
          {
            "duration": 0.8181810000000098,
            "durationTicks": 864,
            "midi": 66,
            "name": "F#4",
            "ticks": 155712,
            "time": 147.454398,
            "velocity": 0.14173228346456693
          },
          {
            "duration": 0.8181809999999814,
            "durationTicks": 864,
            "midi": 68,
            "name": "G#4",
            "ticks": 155904,
            "time": 147.63621600000002,
            "velocity": 0.14173228346456693
          },
          {
            "duration": 0.8181809999999814,
            "durationTicks": 864,
            "midi": 56,
            "name": "G#3",
            "ticks": 155904,
            "time": 147.63621600000002,
            "velocity": 0.14173228346456693
          },
          {
            "duration": 0.8181809999999814,
            "durationTicks": 864,
            "midi": 66,
            "name": "F#4",
            "ticks": 155904,
            "time": 147.63621600000002,
            "velocity": 0.14173228346456693
          },
          {
            "duration": 0.8181810000000098,
            "durationTicks": 864,
            "midi": 58,
            "name": "A#3",
            "ticks": 156288,
            "time": 147.999852,
            "velocity": 0.14173228346456693
          },
          {
            "duration": 0.8181810000000098,
            "durationTicks": 864,
            "midi": 66,
            "name": "F#4",
            "ticks": 156288,
            "time": 147.999852,
            "velocity": 0.14173228346456693
          },
          {
            "duration": 0.8181810000000098,
            "durationTicks": 864,
            "midi": 70,
            "name": "A#4",
            "ticks": 156288,
            "time": 147.999852,
            "velocity": 0.14173228346456693
          },
          {
            "duration": 0.8181809999999814,
            "durationTicks": 864,
            "midi": 54,
            "name": "F#3",
            "ticks": 156672,
            "time": 148.36348800000002,
            "velocity": 0.14173228346456693
          },
          {
            "duration": 0.8181809999999814,
            "durationTicks": 864,
            "midi": 63,
            "name": "D#4",
            "ticks": 156672,
            "time": 148.36348800000002,
            "velocity": 0.14173228346456693
          },
          {
            "duration": 0.8181809999999814,
            "durationTicks": 864,
            "midi": 51,
            "name": "D#3",
            "ticks": 156672,
            "time": 148.36348800000002,
            "velocity": 0.14173228346456693
          },
          {
            "duration": 0.8181810000000098,
            "durationTicks": 864,
            "midi": 58,
            "name": "A#3",
            "ticks": 157056,
            "time": 148.727124,
            "velocity": 0.14173228346456693
          },
          {
            "duration": 0.8181810000000098,
            "durationTicks": 864,
            "midi": 66,
            "name": "F#4",
            "ticks": 157056,
            "time": 148.727124,
            "velocity": 0.14173228346456693
          },
          {
            "duration": 0.8181810000000098,
            "durationTicks": 864,
            "midi": 70,
            "name": "A#4",
            "ticks": 157056,
            "time": 148.727124,
            "velocity": 0.14173228346456693
          },
          {
            "duration": 0.8181810000000098,
            "durationTicks": 864,
            "midi": 65,
            "name": "F4",
            "ticks": 157248,
            "time": 148.908942,
            "velocity": 0.14173228346456693
          },
          {
            "duration": 0.8181810000000098,
            "durationTicks": 864,
            "midi": 68,
            "name": "G#4",
            "ticks": 157248,
            "time": 148.908942,
            "velocity": 0.14173228346456693
          },
          {
            "duration": 0.8181810000000098,
            "durationTicks": 864,
            "midi": 56,
            "name": "G#3",
            "ticks": 157248,
            "time": 148.908942,
            "velocity": 0.14173228346456693
          },
          {
            "duration": 0.8181809999999814,
            "durationTicks": 864,
            "midi": 63,
            "name": "D#4",
            "ticks": 157440,
            "time": 149.09076000000002,
            "velocity": 0.14173228346456693
          },
          {
            "duration": 0.8181809999999814,
            "durationTicks": 864,
            "midi": 66,
            "name": "F#4",
            "ticks": 157440,
            "time": 149.09076000000002,
            "velocity": 0.14173228346456693
          },
          {
            "duration": 0.8181809999999814,
            "durationTicks": 864,
            "midi": 54,
            "name": "F#3",
            "ticks": 157440,
            "time": 149.09076000000002,
            "velocity": 0.14173228346456693
          },
          {
            "duration": 0.8181810000000098,
            "durationTicks": 864,
            "midi": 66,
            "name": "F#4",
            "ticks": 157824,
            "time": 149.454396,
            "velocity": 0.14173228346456693
          },
          {
            "duration": 0.8181810000000098,
            "durationTicks": 864,
            "midi": 54,
            "name": "F#3",
            "ticks": 157824,
            "time": 149.454396,
            "velocity": 0.14173228346456693
          },
          {
            "duration": 0.8181810000000098,
            "durationTicks": 864,
            "midi": 68,
            "name": "G#4",
            "ticks": 158016,
            "time": 149.636214,
            "velocity": 0.14173228346456693
          },
          {
            "duration": 0.8181810000000098,
            "durationTicks": 864,
            "midi": 56,
            "name": "G#3",
            "ticks": 158016,
            "time": 149.636214,
            "velocity": 0.14173228346456693
          },
          {
            "duration": 0.8181810000000098,
            "durationTicks": 864,
            "midi": 59,
            "name": "B3",
            "ticks": 158016,
            "time": 149.636214,
            "velocity": 0.14173228346456693
          },
          {
            "duration": 0.8181810000000098,
            "durationTicks": 864,
            "midi": 66,
            "name": "F#4",
            "ticks": 158400,
            "time": 149.99985,
            "velocity": 0.14173228346456693
          },
          {
            "duration": 0.8181810000000098,
            "durationTicks": 864,
            "midi": 58,
            "name": "A#3",
            "ticks": 158400,
            "time": 149.99985,
            "velocity": 0.14173228346456693
          },
          {
            "duration": 0.8181810000000098,
            "durationTicks": 864,
            "midi": 54,
            "name": "F#3",
            "ticks": 158400,
            "time": 149.99985,
            "velocity": 0.14173228346456693
          },
          {
            "duration": 0.8181810000000098,
            "durationTicks": 864,
            "midi": 59,
            "name": "B3",
            "ticks": 158592,
            "time": 150.181668,
            "velocity": 0.14173228346456693
          },
          {
            "duration": 0.8181810000000098,
            "durationTicks": 864,
            "midi": 68,
            "name": "G#4",
            "ticks": 158592,
            "time": 150.181668,
            "velocity": 0.14173228346456693
          },
          {
            "duration": 0.8181810000000098,
            "durationTicks": 864,
            "midi": 56,
            "name": "G#3",
            "ticks": 158592,
            "time": 150.181668,
            "velocity": 0.14173228346456693
          },
          {
            "duration": 0.8181810000000098,
            "durationTicks": 864,
            "midi": 58,
            "name": "A#3",
            "ticks": 158784,
            "time": 150.363486,
            "velocity": 0.14173228346456693
          },
          {
            "duration": 0.8181810000000098,
            "durationTicks": 864,
            "midi": 66,
            "name": "F#4",
            "ticks": 158784,
            "time": 150.363486,
            "velocity": 0.14173228346456693
          },
          {
            "duration": 0.8181810000000098,
            "durationTicks": 864,
            "midi": 70,
            "name": "A#4",
            "ticks": 158784,
            "time": 150.363486,
            "velocity": 0.14173228346456693
          },
          {
            "duration": 0.8181809999999814,
            "durationTicks": 864,
            "midi": 68,
            "name": "G#4",
            "ticks": 158976,
            "time": 150.54530400000002,
            "velocity": 0.14173228346456693
          },
          {
            "duration": 0.8181809999999814,
            "durationTicks": 864,
            "midi": 56,
            "name": "G#3",
            "ticks": 158976,
            "time": 150.54530400000002,
            "velocity": 0.14173228346456693
          },
          {
            "duration": 0.8181809999999814,
            "durationTicks": 864,
            "midi": 65,
            "name": "F4",
            "ticks": 158976,
            "time": 150.54530400000002,
            "velocity": 0.14173228346456693
          },
          {
            "duration": 0.8181810000000098,
            "durationTicks": 864,
            "midi": 66,
            "name": "F#4",
            "ticks": 159360,
            "time": 150.90894,
            "velocity": 0.14173228346456693
          },
          {
            "duration": 0.8181810000000098,
            "durationTicks": 864,
            "midi": 63,
            "name": "D#4",
            "ticks": 159360,
            "time": 150.90894,
            "velocity": 0.14173228346456693
          },
          {
            "duration": 0.8181810000000098,
            "durationTicks": 864,
            "midi": 54,
            "name": "F#3",
            "ticks": 159360,
            "time": 150.90894,
            "velocity": 0.14173228346456693
          },
          {
            "duration": 0.8181809999999814,
            "durationTicks": 864,
            "midi": 61,
            "name": "C#4",
            "ticks": 159744,
            "time": 151.27257600000002,
            "velocity": 0.14173228346456693
          },
          {
            "duration": 0.8181809999999814,
            "durationTicks": 864,
            "midi": 58,
            "name": "A#3",
            "ticks": 159744,
            "time": 151.27257600000002,
            "velocity": 0.14173228346456693
          },
          {
            "duration": 0.8181809999999814,
            "durationTicks": 864,
            "midi": 49,
            "name": "C#3",
            "ticks": 159744,
            "time": 151.27257600000002,
            "velocity": 0.14173228346456693
          },
          {
            "duration": 0.8181810000000098,
            "durationTicks": 864,
            "midi": 58,
            "name": "A#3",
            "ticks": 160128,
            "time": 151.636212,
            "velocity": 0.14173228346456693
          },
          {
            "duration": 0.8181810000000098,
            "durationTicks": 864,
            "midi": 70,
            "name": "A#4",
            "ticks": 160128,
            "time": 151.636212,
            "velocity": 0.14173228346456693
          },
          {
            "duration": 0.8181810000000098,
            "durationTicks": 864,
            "midi": 66,
            "name": "F#4",
            "ticks": 160128,
            "time": 151.636212,
            "velocity": 0.14173228346456693
          },
          {
            "duration": 0.8181810000000098,
            "durationTicks": 864,
            "midi": 68,
            "name": "G#4",
            "ticks": 160320,
            "time": 151.81803,
            "velocity": 0.14173228346456693
          },
          {
            "duration": 0.8181810000000098,
            "durationTicks": 864,
            "midi": 56,
            "name": "G#3",
            "ticks": 160320,
            "time": 151.81803,
            "velocity": 0.14173228346456693
          },
          {
            "duration": 0.8181810000000098,
            "durationTicks": 864,
            "midi": 65,
            "name": "F4",
            "ticks": 160320,
            "time": 151.81803,
            "velocity": 0.14173228346456693
          },
          {
            "duration": 0.8181809999999814,
            "durationTicks": 864,
            "midi": 54,
            "name": "F#3",
            "ticks": 160512,
            "time": 151.99984800000001,
            "velocity": 0.14173228346456693
          },
          {
            "duration": 0.8181809999999814,
            "durationTicks": 864,
            "midi": 63,
            "name": "D#4",
            "ticks": 160512,
            "time": 151.99984800000001,
            "velocity": 0.14173228346456693
          },
          {
            "duration": 0.8181809999999814,
            "durationTicks": 864,
            "midi": 66,
            "name": "F#4",
            "ticks": 160512,
            "time": 151.99984800000001,
            "velocity": 0.14173228346456693
          },
          {
            "duration": 0.8181810000000098,
            "durationTicks": 864,
            "midi": 68,
            "name": "G#4",
            "ticks": 161088,
            "time": 152.545302,
            "velocity": 0.14173228346456693
          },
          {
            "duration": 0.8181810000000098,
            "durationTicks": 864,
            "midi": 56,
            "name": "G#3",
            "ticks": 161088,
            "time": 152.545302,
            "velocity": 0.14173228346456693
          },
          {
            "duration": 0.8181810000000098,
            "durationTicks": 864,
            "midi": 66,
            "name": "F#4",
            "ticks": 161088,
            "time": 152.545302,
            "velocity": 0.14173228346456693
          },
          {
            "duration": 0.8181810000000098,
            "durationTicks": 864,
            "midi": 54,
            "name": "F#3",
            "ticks": 161472,
            "time": 152.908938,
            "velocity": 0.14173228346456693
          },
          {
            "duration": 0.8181810000000098,
            "durationTicks": 864,
            "midi": 63,
            "name": "D#4",
            "ticks": 161472,
            "time": 152.908938,
            "velocity": 0.14173228346456693
          },
          {
            "duration": 0.8181810000000098,
            "durationTicks": 864,
            "midi": 66,
            "name": "F#4",
            "ticks": 161472,
            "time": 152.908938,
            "velocity": 0.14173228346456693
          },
          {
            "duration": 0.8181810000000098,
            "durationTicks": 864,
            "midi": 56,
            "name": "G#3",
            "ticks": 161664,
            "time": 153.090756,
            "velocity": 0.14173228346456693
          },
          {
            "duration": 0.8181810000000098,
            "durationTicks": 864,
            "midi": 68,
            "name": "G#4",
            "ticks": 161664,
            "time": 153.090756,
            "velocity": 0.14173228346456693
          },
          {
            "duration": 0.8181810000000098,
            "durationTicks": 864,
            "midi": 66,
            "name": "F#4",
            "ticks": 161664,
            "time": 153.090756,
            "velocity": 0.14173228346456693
          },
          {
            "duration": 0.8181809999999814,
            "durationTicks": 864,
            "midi": 54,
            "name": "F#3",
            "ticks": 161856,
            "time": 153.27257400000002,
            "velocity": 0.14173228346456693
          },
          {
            "duration": 0.8181809999999814,
            "durationTicks": 864,
            "midi": 66,
            "name": "F#4",
            "ticks": 161856,
            "time": 153.27257400000002,
            "velocity": 0.14173228346456693
          },
          {
            "duration": 0.8181809999999814,
            "durationTicks": 864,
            "midi": 63,
            "name": "D#4",
            "ticks": 161856,
            "time": 153.27257400000002,
            "velocity": 0.14173228346456693
          },
          {
            "duration": 0.8181809999999814,
            "durationTicks": 864,
            "midi": 68,
            "name": "G#4",
            "ticks": 162048,
            "time": 153.454392,
            "velocity": 0.14173228346456693
          },
          {
            "duration": 0.8181809999999814,
            "durationTicks": 864,
            "midi": 66,
            "name": "F#4",
            "ticks": 162048,
            "time": 153.454392,
            "velocity": 0.14173228346456693
          },
          {
            "duration": 0.8181809999999814,
            "durationTicks": 864,
            "midi": 56,
            "name": "G#3",
            "ticks": 162048,
            "time": 153.454392,
            "velocity": 0.14173228346456693
          },
          {
            "duration": 0.8181810000000098,
            "durationTicks": 864,
            "midi": 70,
            "name": "A#4",
            "ticks": 162432,
            "time": 153.818028,
            "velocity": 0.14173228346456693
          },
          {
            "duration": 0.8181810000000098,
            "durationTicks": 864,
            "midi": 58,
            "name": "A#3",
            "ticks": 162432,
            "time": 153.818028,
            "velocity": 0.14173228346456693
          },
          {
            "duration": 0.8181810000000098,
            "durationTicks": 864,
            "midi": 66,
            "name": "F#4",
            "ticks": 162432,
            "time": 153.818028,
            "velocity": 0.14173228346456693
          },
          {
            "duration": 0.8181809999999814,
            "durationTicks": 864,
            "midi": 70,
            "name": "A#4",
            "ticks": 162816,
            "time": 154.181664,
            "velocity": 0.14173228346456693
          },
          {
            "duration": 0.8181809999999814,
            "durationTicks": 864,
            "midi": 73,
            "name": "C#5",
            "ticks": 162816,
            "time": 154.181664,
            "velocity": 0.14173228346456693
          },
          {
            "duration": 0.8181809999999814,
            "durationTicks": 864,
            "midi": 61,
            "name": "C#4",
            "ticks": 162816,
            "time": 154.181664,
            "velocity": 0.14173228346456693
          },
          {
            "duration": 0.8181810000000098,
            "durationTicks": 864,
            "midi": 68,
            "name": "G#4",
            "ticks": 163200,
            "time": 154.5453,
            "velocity": 0.14173228346456693
          },
          {
            "duration": 0.8181810000000098,
            "durationTicks": 864,
            "midi": 71,
            "name": "B4",
            "ticks": 163200,
            "time": 154.5453,
            "velocity": 0.14173228346456693
          },
          {
            "duration": 0.8181810000000098,
            "durationTicks": 864,
            "midi": 59,
            "name": "B3",
            "ticks": 163200,
            "time": 154.5453,
            "velocity": 0.14173228346456693
          },
          {
            "duration": 0.8181809999999814,
            "durationTicks": 864,
            "midi": 70,
            "name": "A#4",
            "ticks": 163392,
            "time": 154.72711800000002,
            "velocity": 0.14173228346456693
          },
          {
            "duration": 0.8181809999999814,
            "durationTicks": 864,
            "midi": 58,
            "name": "A#3",
            "ticks": 163392,
            "time": 154.72711800000002,
            "velocity": 0.14173228346456693
          },
          {
            "duration": 0.8181809999999814,
            "durationTicks": 864,
            "midi": 66,
            "name": "F#4",
            "ticks": 163392,
            "time": 154.72711800000002,
            "velocity": 0.14173228346456693
          },
          {
            "duration": 0.8181809999999814,
            "durationTicks": 864,
            "midi": 54,
            "name": "F#3",
            "ticks": 163584,
            "time": 154.908936,
            "velocity": 0.14173228346456693
          },
          {
            "duration": 0.8181809999999814,
            "durationTicks": 864,
            "midi": 66,
            "name": "F#4",
            "ticks": 163584,
            "time": 154.908936,
            "velocity": 0.14173228346456693
          },
          {
            "duration": 0.8181809999999814,
            "durationTicks": 864,
            "midi": 63,
            "name": "D#4",
            "ticks": 163584,
            "time": 154.908936,
            "velocity": 0.14173228346456693
          },
          {
            "duration": 0.8181810000000098,
            "durationTicks": 864,
            "midi": 54,
            "name": "F#3",
            "ticks": 163968,
            "time": 155.272572,
            "velocity": 0.14173228346456693
          },
          {
            "duration": 0.8181810000000098,
            "durationTicks": 864,
            "midi": 66,
            "name": "F#4",
            "ticks": 163968,
            "time": 155.272572,
            "velocity": 0.14173228346456693
          },
          {
            "duration": 0.8181809999999814,
            "durationTicks": 864,
            "midi": 59,
            "name": "B3",
            "ticks": 164160,
            "time": 155.45439000000002,
            "velocity": 0.14173228346456693
          },
          {
            "duration": 0.8181809999999814,
            "durationTicks": 864,
            "midi": 56,
            "name": "G#3",
            "ticks": 164160,
            "time": 155.45439000000002,
            "velocity": 0.14173228346456693
          },
          {
            "duration": 0.8181809999999814,
            "durationTicks": 864,
            "midi": 68,
            "name": "G#4",
            "ticks": 164160,
            "time": 155.45439000000002,
            "velocity": 0.14173228346456693
          },
          {
            "duration": 0.8181810000000098,
            "durationTicks": 864,
            "midi": 56,
            "name": "G#3",
            "ticks": 164544,
            "time": 155.818026,
            "velocity": 0.14173228346456693
          },
          {
            "duration": 0.8181810000000098,
            "durationTicks": 864,
            "midi": 59,
            "name": "B3",
            "ticks": 164544,
            "time": 155.818026,
            "velocity": 0.14173228346456693
          },
          {
            "duration": 0.8181810000000098,
            "durationTicks": 864,
            "midi": 68,
            "name": "G#4",
            "ticks": 164544,
            "time": 155.818026,
            "velocity": 0.14173228346456693
          },
          {
            "duration": 0.8181810000000098,
            "durationTicks": 864,
            "midi": 66,
            "name": "F#4",
            "ticks": 164736,
            "time": 155.999844,
            "velocity": 0.14173228346456693
          },
          {
            "duration": 0.8181810000000098,
            "durationTicks": 864,
            "midi": 70,
            "name": "A#4",
            "ticks": 164736,
            "time": 155.999844,
            "velocity": 0.14173228346456693
          },
          {
            "duration": 0.8181810000000098,
            "durationTicks": 864,
            "midi": 58,
            "name": "A#3",
            "ticks": 164736,
            "time": 155.999844,
            "velocity": 0.14173228346456693
          },
          {
            "duration": 0.8181810000000098,
            "durationTicks": 864,
            "midi": 56,
            "name": "G#3",
            "ticks": 165120,
            "time": 156.36348,
            "velocity": 0.14173228346456693
          },
          {
            "duration": 0.8181810000000098,
            "durationTicks": 864,
            "midi": 68,
            "name": "G#4",
            "ticks": 165120,
            "time": 156.36348,
            "velocity": 0.14173228346456693
          },
          {
            "duration": 1.1818169999999952,
            "durationTicks": 1248,
            "midi": 51,
            "name": "D#3",
            "ticks": 165120,
            "time": 156.36348,
            "velocity": 0.14173228346456693
          },
          {
            "duration": 0.8181810000000098,
            "durationTicks": 864,
            "midi": 59,
            "name": "B3",
            "ticks": 165120,
            "time": 156.36348,
            "velocity": 0.14173228346456693
          },
          {
            "duration": 0.8181810000000098,
            "durationTicks": 864,
            "midi": 54,
            "name": "F#3",
            "ticks": 165504,
            "time": 156.727116,
            "velocity": 0.14173228346456693
          },
          {
            "duration": 0.8181810000000098,
            "durationTicks": 864,
            "midi": 63,
            "name": "D#4",
            "ticks": 165504,
            "time": 156.727116,
            "velocity": 0.14173228346456693
          },
          {
            "duration": 0.8181810000000098,
            "durationTicks": 864,
            "midi": 66,
            "name": "F#4",
            "ticks": 165504,
            "time": 156.727116,
            "velocity": 0.14173228346456693
          },
          {
            "duration": 0.8181810000000098,
            "durationTicks": 864,
            "midi": 73,
            "name": "C#5",
            "ticks": 165888,
            "time": 157.090752,
            "velocity": 0.14173228346456693
          },
          {
            "duration": 0.8181810000000098,
            "durationTicks": 864,
            "midi": 61,
            "name": "C#4",
            "ticks": 165888,
            "time": 157.090752,
            "velocity": 0.14173228346456693
          },
          {
            "duration": 0.8181810000000098,
            "durationTicks": 864,
            "midi": 66,
            "name": "F#4",
            "ticks": 165888,
            "time": 157.090752,
            "velocity": 0.14173228346456693
          },
          {
            "duration": 0.8181810000000098,
            "durationTicks": 864,
            "midi": 82,
            "name": "A#5",
            "ticks": 166272,
            "time": 157.454388,
            "velocity": 0.14173228346456693
          },
          {
            "duration": 0.8181810000000098,
            "durationTicks": 864,
            "midi": 73,
            "name": "C#5",
            "ticks": 166272,
            "time": 157.454388,
            "velocity": 0.14173228346456693
          },
          {
            "duration": 0.8181810000000098,
            "durationTicks": 864,
            "midi": 70,
            "name": "A#4",
            "ticks": 166272,
            "time": 157.454388,
            "velocity": 0.14173228346456693
          },
          {
            "duration": 0.8181809999999814,
            "durationTicks": 864,
            "midi": 71,
            "name": "B4",
            "ticks": 166464,
            "time": 157.63620600000002,
            "velocity": 0.14173228346456693
          },
          {
            "duration": 0.8181809999999814,
            "durationTicks": 864,
            "midi": 80,
            "name": "G#5",
            "ticks": 166464,
            "time": 157.63620600000002,
            "velocity": 0.14173228346456693
          },
          {
            "duration": 0.8181809999999814,
            "durationTicks": 864,
            "midi": 68,
            "name": "G#4",
            "ticks": 166464,
            "time": 157.63620600000002,
            "velocity": 0.14173228346456693
          },
          {
            "duration": 0.8181810000000098,
            "durationTicks": 864,
            "midi": 66,
            "name": "F#4",
            "ticks": 166656,
            "time": 157.818024,
            "velocity": 0.14173228346456693
          },
          {
            "duration": 0.8181810000000098,
            "durationTicks": 864,
            "midi": 70,
            "name": "A#4",
            "ticks": 166656,
            "time": 157.818024,
            "velocity": 0.14173228346456693
          },
          {
            "duration": 0.8181810000000098,
            "durationTicks": 864,
            "midi": 78,
            "name": "F#5",
            "ticks": 166656,
            "time": 157.818024,
            "velocity": 0.14173228346456693
          },
          {
            "duration": 0.8181809999999814,
            "durationTicks": 864,
            "midi": 68,
            "name": "G#4",
            "ticks": 167232,
            "time": 158.36347800000001,
            "velocity": 0.14173228346456693
          },
          {
            "duration": 0.8181809999999814,
            "durationTicks": 864,
            "midi": 80,
            "name": "G#5",
            "ticks": 167232,
            "time": 158.36347800000001,
            "velocity": 0.14173228346456693
          },
          {
            "duration": 0.8181809999999814,
            "durationTicks": 864,
            "midi": 78,
            "name": "F#5",
            "ticks": 167232,
            "time": 158.36347800000001,
            "velocity": 0.14173228346456693
          },
          {
            "duration": 0.8181810000000098,
            "durationTicks": 864,
            "midi": 75,
            "name": "D#5",
            "ticks": 167616,
            "time": 158.727114,
            "velocity": 0.14173228346456693
          },
          {
            "duration": 0.8181810000000098,
            "durationTicks": 864,
            "midi": 78,
            "name": "F#5",
            "ticks": 167616,
            "time": 158.727114,
            "velocity": 0.14173228346456693
          },
          {
            "duration": 0.8181810000000098,
            "durationTicks": 864,
            "midi": 66,
            "name": "F#4",
            "ticks": 167616,
            "time": 158.727114,
            "velocity": 0.14173228346456693
          },
          {
            "duration": 0.8181810000000098,
            "durationTicks": 864,
            "midi": 80,
            "name": "G#5",
            "ticks": 167808,
            "time": 158.908932,
            "velocity": 0.14173228346456693
          },
          {
            "duration": 0.8181810000000098,
            "durationTicks": 864,
            "midi": 78,
            "name": "F#5",
            "ticks": 167808,
            "time": 158.908932,
            "velocity": 0.14173228346456693
          },
          {
            "duration": 0.8181810000000098,
            "durationTicks": 864,
            "midi": 68,
            "name": "G#4",
            "ticks": 167808,
            "time": 158.908932,
            "velocity": 0.14173228346456693
          },
          {
            "duration": 0.8181809999999814,
            "durationTicks": 864,
            "midi": 75,
            "name": "D#5",
            "ticks": 168000,
            "time": 159.09075,
            "velocity": 0.14173228346456693
          },
          {
            "duration": 0.8181809999999814,
            "durationTicks": 864,
            "midi": 78,
            "name": "F#5",
            "ticks": 168000,
            "time": 159.09075,
            "velocity": 0.14173228346456693
          },
          {
            "duration": 0.8181809999999814,
            "durationTicks": 864,
            "midi": 66,
            "name": "F#4",
            "ticks": 168000,
            "time": 159.09075,
            "velocity": 0.14173228346456693
          },
          {
            "duration": 0.8181810000000098,
            "durationTicks": 864,
            "midi": 78,
            "name": "F#5",
            "ticks": 168192,
            "time": 159.272568,
            "velocity": 0.14173228346456693
          },
          {
            "duration": 0.8181810000000098,
            "durationTicks": 864,
            "midi": 68,
            "name": "G#4",
            "ticks": 168192,
            "time": 159.272568,
            "velocity": 0.14173228346456693
          },
          {
            "duration": 0.8181810000000098,
            "durationTicks": 864,
            "midi": 80,
            "name": "G#5",
            "ticks": 168192,
            "time": 159.272568,
            "velocity": 0.14173228346456693
          },
          {
            "duration": 0.8181809999999814,
            "durationTicks": 864,
            "midi": 78,
            "name": "F#5",
            "ticks": 168576,
            "time": 159.63620400000002,
            "velocity": 0.14173228346456693
          },
          {
            "duration": 0.8181809999999814,
            "durationTicks": 864,
            "midi": 70,
            "name": "A#4",
            "ticks": 168576,
            "time": 159.63620400000002,
            "velocity": 0.14173228346456693
          },
          {
            "duration": 0.8181809999999814,
            "durationTicks": 864,
            "midi": 82,
            "name": "A#5",
            "ticks": 168576,
            "time": 159.63620400000002,
            "velocity": 0.14173228346456693
          },
          {
            "duration": 0.8181810000000098,
            "durationTicks": 864,
            "midi": 75,
            "name": "D#5",
            "ticks": 168960,
            "time": 159.99984,
            "velocity": 0.14173228346456693
          },
          {
            "duration": 0.8181810000000098,
            "durationTicks": 864,
            "midi": 63,
            "name": "D#4",
            "ticks": 168960,
            "time": 159.99984,
            "velocity": 0.14173228346456693
          },
          {
            "duration": 0.8181810000000098,
            "durationTicks": 864,
            "midi": 66,
            "name": "F#4",
            "ticks": 168960,
            "time": 159.99984,
            "velocity": 0.14173228346456693
          },
          {
            "duration": 0.8181809999999814,
            "durationTicks": 864,
            "midi": 82,
            "name": "A#5",
            "ticks": 169344,
            "time": 160.36347600000002,
            "velocity": 0.14173228346456693
          },
          {
            "duration": 0.8181809999999814,
            "durationTicks": 864,
            "midi": 70,
            "name": "A#4",
            "ticks": 169344,
            "time": 160.36347600000002,
            "velocity": 0.14173228346456693
          },
          {
            "duration": 0.8181809999999814,
            "durationTicks": 864,
            "midi": 78,
            "name": "F#5",
            "ticks": 169344,
            "time": 160.36347600000002,
            "velocity": 0.14173228346456693
          },
          {
            "duration": 0.8181809999999814,
            "durationTicks": 864,
            "midi": 80,
            "name": "G#5",
            "ticks": 169536,
            "time": 160.545294,
            "velocity": 0.14173228346456693
          },
          {
            "duration": 0.8181809999999814,
            "durationTicks": 864,
            "midi": 77,
            "name": "F5",
            "ticks": 169536,
            "time": 160.545294,
            "velocity": 0.14173228346456693
          },
          {
            "duration": 0.8181809999999814,
            "durationTicks": 864,
            "midi": 68,
            "name": "G#4",
            "ticks": 169536,
            "time": 160.545294,
            "velocity": 0.14173228346456693
          },
          {
            "duration": 0.8181810000000098,
            "durationTicks": 864,
            "midi": 66,
            "name": "F#4",
            "ticks": 169728,
            "time": 160.727112,
            "velocity": 0.14173228346456693
          },
          {
            "duration": 0.8181810000000098,
            "durationTicks": 864,
            "midi": 75,
            "name": "D#5",
            "ticks": 169728,
            "time": 160.727112,
            "velocity": 0.14173228346456693
          },
          {
            "duration": 0.8181810000000098,
            "durationTicks": 864,
            "midi": 78,
            "name": "F#5",
            "ticks": 169728,
            "time": 160.727112,
            "velocity": 0.14173228346456693
          },
          {
            "duration": 0.8181809999999814,
            "durationTicks": 864,
            "midi": 78,
            "name": "F#5",
            "ticks": 170112,
            "time": 161.09074800000002,
            "velocity": 0.14173228346456693
          },
          {
            "duration": 0.8181809999999814,
            "durationTicks": 864,
            "midi": 66,
            "name": "F#4",
            "ticks": 170112,
            "time": 161.09074800000002,
            "velocity": 0.14173228346456693
          },
          {
            "duration": 0.8181809999999814,
            "durationTicks": 864,
            "midi": 80,
            "name": "G#5",
            "ticks": 170304,
            "time": 161.272566,
            "velocity": 0.14173228346456693
          },
          {
            "duration": 0.8181809999999814,
            "durationTicks": 864,
            "midi": 71,
            "name": "B4",
            "ticks": 170304,
            "time": 161.272566,
            "velocity": 0.14173228346456693
          },
          {
            "duration": 0.8181809999999814,
            "durationTicks": 864,
            "midi": 68,
            "name": "G#4",
            "ticks": 170304,
            "time": 161.272566,
            "velocity": 0.14173228346456693
          },
          {
            "duration": 0.8181810000000098,
            "durationTicks": 864,
            "midi": 70,
            "name": "A#4",
            "ticks": 170688,
            "time": 161.636202,
            "velocity": 0.14173228346456693
          },
          {
            "duration": 0.8181810000000098,
            "durationTicks": 864,
            "midi": 66,
            "name": "F#4",
            "ticks": 170688,
            "time": 161.636202,
            "velocity": 0.14173228346456693
          },
          {
            "duration": 0.8181810000000098,
            "durationTicks": 864,
            "midi": 78,
            "name": "F#5",
            "ticks": 170688,
            "time": 161.636202,
            "velocity": 0.14173228346456693
          },
          {
            "duration": 0.8181809999999814,
            "durationTicks": 864,
            "midi": 68,
            "name": "G#4",
            "ticks": 170880,
            "time": 161.81802000000002,
            "velocity": 0.14173228346456693
          },
          {
            "duration": 0.8181809999999814,
            "durationTicks": 864,
            "midi": 71,
            "name": "B4",
            "ticks": 170880,
            "time": 161.81802000000002,
            "velocity": 0.14173228346456693
          },
          {
            "duration": 0.8181809999999814,
            "durationTicks": 864,
            "midi": 80,
            "name": "G#5",
            "ticks": 170880,
            "time": 161.81802000000002,
            "velocity": 0.14173228346456693
          },
          {
            "duration": 0.8181809999999814,
            "durationTicks": 864,
            "midi": 82,
            "name": "A#5",
            "ticks": 171072,
            "time": 161.999838,
            "velocity": 0.14173228346456693
          },
          {
            "duration": 0.8181809999999814,
            "durationTicks": 864,
            "midi": 70,
            "name": "A#4",
            "ticks": 171072,
            "time": 161.999838,
            "velocity": 0.14173228346456693
          },
          {
            "duration": 0.8181809999999814,
            "durationTicks": 864,
            "midi": 78,
            "name": "F#5",
            "ticks": 171072,
            "time": 161.999838,
            "velocity": 0.14173228346456693
          },
          {
            "duration": 0.8181810000000098,
            "durationTicks": 864,
            "midi": 77,
            "name": "F5",
            "ticks": 171264,
            "time": 162.181656,
            "velocity": 0.14173228346456693
          },
          {
            "duration": 0.8181810000000098,
            "durationTicks": 864,
            "midi": 80,
            "name": "G#5",
            "ticks": 171264,
            "time": 162.181656,
            "velocity": 0.14173228346456693
          },
          {
            "duration": 0.8181810000000098,
            "durationTicks": 864,
            "midi": 68,
            "name": "G#4",
            "ticks": 171264,
            "time": 162.181656,
            "velocity": 0.14173228346456693
          },
          {
            "duration": 0.8181809999999814,
            "durationTicks": 864,
            "midi": 66,
            "name": "F#4",
            "ticks": 171648,
            "time": 162.54529200000002,
            "velocity": 0.14173228346456693
          },
          {
            "duration": 0.8181809999999814,
            "durationTicks": 864,
            "midi": 75,
            "name": "D#5",
            "ticks": 171648,
            "time": 162.54529200000002,
            "velocity": 0.14173228346456693
          },
          {
            "duration": 0.8181809999999814,
            "durationTicks": 864,
            "midi": 78,
            "name": "F#5",
            "ticks": 171648,
            "time": 162.54529200000002,
            "velocity": 0.14173228346456693
          },
          {
            "duration": 0.8181810000000098,
            "durationTicks": 864,
            "midi": 73,
            "name": "C#5",
            "ticks": 172032,
            "time": 162.908928,
            "velocity": 0.14173228346456693
          },
          {
            "duration": 0.8181810000000098,
            "durationTicks": 864,
            "midi": 70,
            "name": "A#4",
            "ticks": 172032,
            "time": 162.908928,
            "velocity": 0.14173228346456693
          },
          {
            "duration": 0.8181810000000098,
            "durationTicks": 864,
            "midi": 61,
            "name": "C#4",
            "ticks": 172032,
            "time": 162.908928,
            "velocity": 0.14173228346456693
          },
          {
            "duration": 0.8181809999999814,
            "durationTicks": 864,
            "midi": 78,
            "name": "F#5",
            "ticks": 172416,
            "time": 163.27256400000002,
            "velocity": 0.14173228346456693
          },
          {
            "duration": 0.8181809999999814,
            "durationTicks": 864,
            "midi": 70,
            "name": "A#4",
            "ticks": 172416,
            "time": 163.27256400000002,
            "velocity": 0.14173228346456693
          },
          {
            "duration": 0.8181809999999814,
            "durationTicks": 864,
            "midi": 82,
            "name": "A#5",
            "ticks": 172416,
            "time": 163.27256400000002,
            "velocity": 0.14173228346456693
          },
          {
            "duration": 0.8181810000000098,
            "durationTicks": 864,
            "midi": 77,
            "name": "F5",
            "ticks": 172608,
            "time": 163.454382,
            "velocity": 0.14173228346456693
          },
          {
            "duration": 0.8181810000000098,
            "durationTicks": 864,
            "midi": 80,
            "name": "G#5",
            "ticks": 172608,
            "time": 163.454382,
            "velocity": 0.14173228346456693
          },
          {
            "duration": 0.8181810000000098,
            "durationTicks": 864,
            "midi": 68,
            "name": "G#4",
            "ticks": 172608,
            "time": 163.454382,
            "velocity": 0.14173228346456693
          },
          {
            "duration": 0.8181810000000098,
            "durationTicks": 864,
            "midi": 75,
            "name": "D#5",
            "ticks": 172800,
            "time": 163.6362,
            "velocity": 0.14173228346456693
          },
          {
            "duration": 0.8181810000000098,
            "durationTicks": 864,
            "midi": 66,
            "name": "F#4",
            "ticks": 172800,
            "time": 163.6362,
            "velocity": 0.14173228346456693
          },
          {
            "duration": 0.8181810000000098,
            "durationTicks": 864,
            "midi": 78,
            "name": "F#5",
            "ticks": 172800,
            "time": 163.6362,
            "velocity": 0.14173228346456693
          },
          {
            "duration": 0.8181810000000098,
            "durationTicks": 864,
            "midi": 68,
            "name": "G#4",
            "ticks": 173376,
            "time": 164.181654,
            "velocity": 0.14173228346456693
          },
          {
            "duration": 0.8181810000000098,
            "durationTicks": 864,
            "midi": 78,
            "name": "F#5",
            "ticks": 173376,
            "time": 164.181654,
            "velocity": 0.14173228346456693
          },
          {
            "duration": 0.8181810000000098,
            "durationTicks": 864,
            "midi": 80,
            "name": "G#5",
            "ticks": 173376,
            "time": 164.181654,
            "velocity": 0.14173228346456693
          },
          {
            "duration": 0.8181810000000098,
            "durationTicks": 864,
            "midi": 75,
            "name": "D#5",
            "ticks": 173760,
            "time": 164.54529,
            "velocity": 0.14173228346456693
          },
          {
            "duration": 0.8181810000000098,
            "durationTicks": 864,
            "midi": 66,
            "name": "F#4",
            "ticks": 173760,
            "time": 164.54529,
            "velocity": 0.14173228346456693
          },
          {
            "duration": 0.8181810000000098,
            "durationTicks": 864,
            "midi": 78,
            "name": "F#5",
            "ticks": 173760,
            "time": 164.54529,
            "velocity": 0.14173228346456693
          },
          {
            "duration": 0.8181809999999814,
            "durationTicks": 864,
            "midi": 80,
            "name": "G#5",
            "ticks": 173952,
            "time": 164.72710800000002,
            "velocity": 0.14173228346456693
          },
          {
            "duration": 0.8181809999999814,
            "durationTicks": 864,
            "midi": 68,
            "name": "G#4",
            "ticks": 173952,
            "time": 164.72710800000002,
            "velocity": 0.14173228346456693
          },
          {
            "duration": 0.8181809999999814,
            "durationTicks": 864,
            "midi": 78,
            "name": "F#5",
            "ticks": 173952,
            "time": 164.72710800000002,
            "velocity": 0.14173228346456693
          },
          {
            "duration": 0.8181810000000098,
            "durationTicks": 864,
            "midi": 66,
            "name": "F#4",
            "ticks": 174144,
            "time": 164.908926,
            "velocity": 0.14173228346456693
          },
          {
            "duration": 0.8181810000000098,
            "durationTicks": 864,
            "midi": 75,
            "name": "D#5",
            "ticks": 174144,
            "time": 164.908926,
            "velocity": 0.14173228346456693
          },
          {
            "duration": 0.8181810000000098,
            "durationTicks": 864,
            "midi": 78,
            "name": "F#5",
            "ticks": 174144,
            "time": 164.908926,
            "velocity": 0.14173228346456693
          },
          {
            "duration": 0.8181810000000098,
            "durationTicks": 864,
            "midi": 68,
            "name": "G#4",
            "ticks": 174336,
            "time": 165.090744,
            "velocity": 0.14173228346456693
          },
          {
            "duration": 0.8181810000000098,
            "durationTicks": 864,
            "midi": 80,
            "name": "G#5",
            "ticks": 174336,
            "time": 165.090744,
            "velocity": 0.14173228346456693
          },
          {
            "duration": 0.8181810000000098,
            "durationTicks": 864,
            "midi": 78,
            "name": "F#5",
            "ticks": 174336,
            "time": 165.090744,
            "velocity": 0.14173228346456693
          },
          {
            "duration": 0.8181809999999814,
            "durationTicks": 864,
            "midi": 82,
            "name": "A#5",
            "ticks": 174720,
            "time": 165.45438000000001,
            "velocity": 0.14173228346456693
          },
          {
            "duration": 0.8181809999999814,
            "durationTicks": 864,
            "midi": 78,
            "name": "F#5",
            "ticks": 174720,
            "time": 165.45438000000001,
            "velocity": 0.14173228346456693
          },
          {
            "duration": 0.8181809999999814,
            "durationTicks": 864,
            "midi": 70,
            "name": "A#4",
            "ticks": 174720,
            "time": 165.45438000000001,
            "velocity": 0.14173228346456693
          },
          {
            "duration": 0.8181810000000098,
            "durationTicks": 864,
            "midi": 73,
            "name": "C#5",
            "ticks": 175104,
            "time": 165.818016,
            "velocity": 0.14173228346456693
          },
          {
            "duration": 0.8181810000000098,
            "durationTicks": 864,
            "midi": 73,
            "name": "C#5",
            "ticks": 175104,
            "time": 165.818016,
            "velocity": 0.14173228346456693
          },
          {
            "duration": 0.8181810000000098,
            "durationTicks": 864,
            "midi": 82,
            "name": "A#5",
            "ticks": 175104,
            "time": 165.818016,
            "velocity": 0.14173228346456693
          },
          {
            "duration": 0.8181809999999814,
            "durationTicks": 864,
            "midi": 71,
            "name": "B4",
            "ticks": 175488,
            "time": 166.181652,
            "velocity": 0.14173228346456693
          },
          {
            "duration": 0.8181809999999814,
            "durationTicks": 864,
            "midi": 83,
            "name": "B5",
            "ticks": 175488,
            "time": 166.181652,
            "velocity": 0.14173228346456693
          },
          {
            "duration": 0.8181809999999814,
            "durationTicks": 864,
            "midi": 80,
            "name": "G#5",
            "ticks": 175488,
            "time": 166.181652,
            "velocity": 0.14173228346456693
          },
          {
            "duration": 0.8181810000000098,
            "durationTicks": 864,
            "midi": 70,
            "name": "A#4",
            "ticks": 175680,
            "time": 166.36347,
            "velocity": 0.14173228346456693
          },
          {
            "duration": 0.8181810000000098,
            "durationTicks": 864,
            "midi": 82,
            "name": "A#5",
            "ticks": 175680,
            "time": 166.36347,
            "velocity": 0.14173228346456693
          },
          {
            "duration": 0.8181810000000098,
            "durationTicks": 864,
            "midi": 78,
            "name": "F#5",
            "ticks": 175680,
            "time": 166.36347,
            "velocity": 0.14173228346456693
          },
          {
            "duration": 0.8181810000000098,
            "durationTicks": 864,
            "midi": 78,
            "name": "F#5",
            "ticks": 175872,
            "time": 166.545288,
            "velocity": 0.14173228346456693
          },
          {
            "duration": 0.8181810000000098,
            "durationTicks": 864,
            "midi": 66,
            "name": "F#4",
            "ticks": 175872,
            "time": 166.545288,
            "velocity": 0.14173228346456693
          },
          {
            "duration": 0.8181810000000098,
            "durationTicks": 864,
            "midi": 75,
            "name": "D#5",
            "ticks": 175872,
            "time": 166.545288,
            "velocity": 0.14173228346456693
          },
          {
            "duration": 0.8181809999999814,
            "durationTicks": 864,
            "midi": 78,
            "name": "F#5",
            "ticks": 176256,
            "time": 166.908924,
            "velocity": 0.14173228346456693
          },
          {
            "duration": 0.8181809999999814,
            "durationTicks": 864,
            "midi": 66,
            "name": "F#4",
            "ticks": 176256,
            "time": 166.908924,
            "velocity": 0.14173228346456693
          },
          {
            "duration": 0.8181810000000098,
            "durationTicks": 864,
            "midi": 80,
            "name": "G#5",
            "ticks": 176448,
            "time": 167.090742,
            "velocity": 0.14173228346456693
          },
          {
            "duration": 0.8181810000000098,
            "durationTicks": 864,
            "midi": 71,
            "name": "B4",
            "ticks": 176448,
            "time": 167.090742,
            "velocity": 0.14173228346456693
          },
          {
            "duration": 0.8181810000000098,
            "durationTicks": 864,
            "midi": 68,
            "name": "G#4",
            "ticks": 176448,
            "time": 167.090742,
            "velocity": 0.14173228346456693
          },
          {
            "duration": 0.8181809999999814,
            "durationTicks": 864,
            "midi": 80,
            "name": "G#5",
            "ticks": 176832,
            "time": 167.45437800000002,
            "velocity": 0.14173228346456693
          },
          {
            "duration": 0.8181809999999814,
            "durationTicks": 864,
            "midi": 71,
            "name": "B4",
            "ticks": 176832,
            "time": 167.45437800000002,
            "velocity": 0.14173228346456693
          },
          {
            "duration": 0.8181809999999814,
            "durationTicks": 864,
            "midi": 68,
            "name": "G#4",
            "ticks": 176832,
            "time": 167.45437800000002,
            "velocity": 0.14173228346456693
          },
          {
            "duration": 0.8181809999999814,
            "durationTicks": 864,
            "midi": 70,
            "name": "A#4",
            "ticks": 177024,
            "time": 167.636196,
            "velocity": 0.14173228346456693
          },
          {
            "duration": 0.8181809999999814,
            "durationTicks": 864,
            "midi": 82,
            "name": "A#5",
            "ticks": 177024,
            "time": 167.636196,
            "velocity": 0.14173228346456693
          },
          {
            "duration": 0.8181809999999814,
            "durationTicks": 864,
            "midi": 78,
            "name": "F#5",
            "ticks": 177024,
            "time": 167.636196,
            "velocity": 0.14173228346456693
          },
          {
            "duration": 0.8181810000000098,
            "durationTicks": 864,
            "midi": 71,
            "name": "B4",
            "ticks": 177408,
            "time": 167.999832,
            "velocity": 0.14173228346456693
          },
          {
            "duration": 0.8181810000000098,
            "durationTicks": 864,
            "midi": 80,
            "name": "G#5",
            "ticks": 177408,
            "time": 167.999832,
            "velocity": 0.14173228346456693
          },
          {
            "duration": 1.1818169999999952,
            "durationTicks": 1248,
            "midi": 63,
            "name": "D#4",
            "ticks": 177408,
            "time": 167.999832,
            "velocity": 0.14173228346456693
          },
          {
            "duration": 0.8181810000000098,
            "durationTicks": 864,
            "midi": 68,
            "name": "G#4",
            "ticks": 177408,
            "time": 167.999832,
            "velocity": 0.14173228346456693
          },
          {
            "duration": 0.8181809999999814,
            "durationTicks": 864,
            "midi": 75,
            "name": "D#5",
            "ticks": 177792,
            "time": 168.363468,
            "velocity": 0.14173228346456693
          },
          {
            "duration": 0.8181809999999814,
            "durationTicks": 864,
            "midi": 78,
            "name": "F#5",
            "ticks": 177792,
            "time": 168.363468,
            "velocity": 0.14173228346456693
          },
          {
            "duration": 0.8181809999999814,
            "durationTicks": 864,
            "midi": 66,
            "name": "F#4",
            "ticks": 177792,
            "time": 168.363468,
            "velocity": 0.14173228346456693
          },
          {
            "duration": 2.363634000000019,
            "durationTicks": 2496,
            "midi": 46,
            "name": "A#2",
            "ticks": 178176,
            "time": 168.727104,
            "velocity": 0.14173228346456693
          },
          {
            "duration": 2.363634000000019,
            "durationTicks": 2496,
            "midi": 58,
            "name": "A#3",
            "ticks": 178176,
            "time": 168.727104,
            "velocity": 0.14173228346456693
          }
        ],
        "endOfTrackTicks": 180672
      },
      {
        "channel": 2,
        "controlChanges": {},
        "pitchBends": [],
        "instrument": {
          "family": "synth effects",
          "number": 99,
          "name": "fx 4 (atmosphere)"
        },
        "name": "Scifi",
        "notes": [
          {
            "duration": 1.4545439999999998,
            "durationTicks": 1536,
            "midi": 54,
            "name": "F#3",
            "ticks": 768,
            "time": 0.727272,
            "velocity": 0.2125984251968504
          },
          {
            "duration": 1.4545440000000003,
            "durationTicks": 1536,
            "midi": 49,
            "name": "C#3",
            "ticks": 2304,
            "time": 2.181816,
            "velocity": 0.2125984251968504
          },
          {
            "duration": 1.4545439999999998,
            "durationTicks": 1536,
            "midi": 51,
            "name": "D#3",
            "ticks": 3840,
            "time": 3.6363600000000003,
            "velocity": 0.2125984251968504
          },
          {
            "duration": 1.4545440000000003,
            "durationTicks": 1536,
            "midi": 47,
            "name": "B2",
            "ticks": 5376,
            "time": 5.090904,
            "velocity": 0.2125984251968504
          },
          {
            "duration": 1.4545440000000003,
            "durationTicks": 1536,
            "midi": 66,
            "name": "F#4",
            "ticks": 6912,
            "time": 6.545448,
            "velocity": 0.2125984251968504
          },
          {
            "duration": 1.4545440000000003,
            "durationTicks": 1536,
            "midi": 54,
            "name": "F#3",
            "ticks": 6912,
            "time": 6.545448,
            "velocity": 0.2125984251968504
          },
          {
            "duration": 1.4545440000000003,
            "durationTicks": 1536,
            "midi": 49,
            "name": "C#3",
            "ticks": 8448,
            "time": 7.999992000000001,
            "velocity": 0.2125984251968504
          },
          {
            "duration": 1.4545440000000003,
            "durationTicks": 1536,
            "midi": 61,
            "name": "C#4",
            "ticks": 8448,
            "time": 7.999992000000001,
            "velocity": 0.2125984251968504
          },
          {
            "duration": 1.4545440000000003,
            "durationTicks": 1536,
            "midi": 51,
            "name": "D#3",
            "ticks": 9984,
            "time": 9.454536000000001,
            "velocity": 0.2125984251968504
          },
          {
            "duration": 1.4545440000000003,
            "durationTicks": 1536,
            "midi": 63,
            "name": "D#4",
            "ticks": 9984,
            "time": 9.454536000000001,
            "velocity": 0.2125984251968504
          },
          {
            "duration": 0.0909089999999999,
            "durationTicks": 96,
            "midi": 47,
            "name": "B2",
            "ticks": 11520,
            "time": 10.909080000000001,
            "velocity": 0.2125984251968504
          },
          {
            "duration": 0.0909089999999999,
            "durationTicks": 96,
            "midi": 47,
            "name": "B2",
            "ticks": 11904,
            "time": 11.272716,
            "velocity": 0.2125984251968504
          },
          {
            "duration": 0.0909089999999999,
            "durationTicks": 96,
            "midi": 47,
            "name": "B2",
            "ticks": 12288,
            "time": 11.636352,
            "velocity": 0.2125984251968504
          },
          {
            "duration": 0.0909089999999999,
            "durationTicks": 96,
            "midi": 47,
            "name": "B2",
            "ticks": 12672,
            "time": 11.999988,
            "velocity": 0.2125984251968504
          },
          {
            "duration": 0.3636360000000014,
            "durationTicks": 384,
            "midi": 42,
            "name": "F#2",
            "ticks": 13056,
            "time": 12.363624,
            "velocity": 0.2125984251968504
          },
          {
            "duration": 0.3636359999999996,
            "durationTicks": 384,
            "midi": 42,
            "name": "F#2",
            "ticks": 13440,
            "time": 12.727260000000001,
            "velocity": 0.2125984251968504
          },
          {
            "duration": 0.3636359999999996,
            "durationTicks": 384,
            "midi": 42,
            "name": "F#2",
            "ticks": 13824,
            "time": 13.090896,
            "velocity": 0.2125984251968504
          },
          {
            "duration": 0.3636359999999996,
            "durationTicks": 384,
            "midi": 42,
            "name": "F#2",
            "ticks": 14208,
            "time": 13.454532,
            "velocity": 0.2125984251968504
          },
          {
            "duration": 0.3636360000000014,
            "durationTicks": 384,
            "midi": 42,
            "name": "F#2",
            "ticks": 14592,
            "time": 13.818168,
            "velocity": 0.2125984251968504
          },
          {
            "duration": 0.3636359999999996,
            "durationTicks": 384,
            "midi": 42,
            "name": "F#2",
            "ticks": 14976,
            "time": 14.181804000000001,
            "velocity": 0.2125984251968504
          },
          {
            "duration": 0.0909089999999999,
            "durationTicks": 96,
            "midi": 54,
            "name": "F#3",
            "ticks": 16128,
            "time": 15.272712,
            "velocity": 0.2125984251968504
          },
          {
            "duration": 0.0909089999999999,
            "durationTicks": 96,
            "midi": 54,
            "name": "F#3",
            "ticks": 16512,
            "time": 15.636348,
            "velocity": 0.2125984251968504
          },
          {
            "duration": 0.0909089999999999,
            "durationTicks": 96,
            "midi": 54,
            "name": "F#3",
            "ticks": 16896,
            "time": 15.999984000000001,
            "velocity": 0.2125984251968504
          },
          {
            "duration": 0.0909089999999999,
            "durationTicks": 96,
            "midi": 54,
            "name": "F#3",
            "ticks": 17280,
            "time": 16.36362,
            "velocity": 0.2125984251968504
          },
          {
            "duration": 0.0909089999999999,
            "durationTicks": 96,
            "midi": 49,
            "name": "C#3",
            "ticks": 17664,
            "time": 16.727256,
            "velocity": 0.2125984251968504
          },
          {
            "duration": 0.0909089999999999,
            "durationTicks": 96,
            "midi": 49,
            "name": "C#3",
            "ticks": 18048,
            "time": 17.090892,
            "velocity": 0.2125984251968504
          },
          {
            "duration": 0.0909089999999999,
            "durationTicks": 96,
            "midi": 49,
            "name": "C#3",
            "ticks": 18432,
            "time": 17.454528,
            "velocity": 0.2125984251968504
          },
          {
            "duration": 0.0909089999999999,
            "durationTicks": 96,
            "midi": 49,
            "name": "C#3",
            "ticks": 18816,
            "time": 17.818164,
            "velocity": 0.2125984251968504
          },
          {
            "duration": 0.0909089999999999,
            "durationTicks": 96,
            "midi": 51,
            "name": "D#3",
            "ticks": 19200,
            "time": 18.1818,
            "velocity": 0.2125984251968504
          },
          {
            "duration": 0.0909089999999999,
            "durationTicks": 96,
            "midi": 51,
            "name": "D#3",
            "ticks": 19584,
            "time": 18.545436000000002,
            "velocity": 0.2125984251968504
          },
          {
            "duration": 0.0909089999999999,
            "durationTicks": 96,
            "midi": 51,
            "name": "D#3",
            "ticks": 19968,
            "time": 18.909072000000002,
            "velocity": 0.2125984251968504
          },
          {
            "duration": 0.0909089999999999,
            "durationTicks": 96,
            "midi": 51,
            "name": "D#3",
            "ticks": 20352,
            "time": 19.272708,
            "velocity": 0.2125984251968504
          },
          {
            "duration": 0.0909089999999999,
            "durationTicks": 96,
            "midi": 47,
            "name": "B2",
            "ticks": 20736,
            "time": 19.636344,
            "velocity": 0.2125984251968504
          },
          {
            "duration": 0.0909089999999999,
            "durationTicks": 96,
            "midi": 47,
            "name": "B2",
            "ticks": 21120,
            "time": 19.99998,
            "velocity": 0.2125984251968504
          },
          {
            "duration": 0.0909089999999999,
            "durationTicks": 96,
            "midi": 47,
            "name": "B2",
            "ticks": 21504,
            "time": 20.363616,
            "velocity": 0.2125984251968504
          },
          {
            "duration": 0.0909089999999999,
            "durationTicks": 96,
            "midi": 47,
            "name": "B2",
            "ticks": 21888,
            "time": 20.727252,
            "velocity": 0.2125984251968504
          },
          {
            "duration": 0.0909089999999999,
            "durationTicks": 96,
            "midi": 54,
            "name": "F#3",
            "ticks": 22272,
            "time": 21.090888,
            "velocity": 0.2125984251968504
          },
          {
            "duration": 0.0909089999999999,
            "durationTicks": 96,
            "midi": 54,
            "name": "F#3",
            "ticks": 22656,
            "time": 21.454524,
            "velocity": 0.2125984251968504
          },
          {
            "duration": 0.0909089999999999,
            "durationTicks": 96,
            "midi": 54,
            "name": "F#3",
            "ticks": 23040,
            "time": 21.818160000000002,
            "velocity": 0.2125984251968504
          },
          {
            "duration": 0.0909089999999999,
            "durationTicks": 96,
            "midi": 54,
            "name": "F#3",
            "ticks": 23424,
            "time": 22.181796000000002,
            "velocity": 0.2125984251968504
          },
          {
            "duration": 0.0909089999999999,
            "durationTicks": 96,
            "midi": 49,
            "name": "C#3",
            "ticks": 23808,
            "time": 22.545432,
            "velocity": 0.2125984251968504
          },
          {
            "duration": 0.0909089999999999,
            "durationTicks": 96,
            "midi": 49,
            "name": "C#3",
            "ticks": 24192,
            "time": 22.909068,
            "velocity": 0.2125984251968504
          },
          {
            "duration": 0.0909089999999999,
            "durationTicks": 96,
            "midi": 49,
            "name": "C#3",
            "ticks": 24576,
            "time": 23.272704,
            "velocity": 0.2125984251968504
          },
          {
            "duration": 0.0909089999999999,
            "durationTicks": 96,
            "midi": 49,
            "name": "C#3",
            "ticks": 24960,
            "time": 23.63634,
            "velocity": 0.2125984251968504
          },
          {
            "duration": 0.0909089999999999,
            "durationTicks": 96,
            "midi": 51,
            "name": "D#3",
            "ticks": 25344,
            "time": 23.999976,
            "velocity": 0.2125984251968504
          },
          {
            "duration": 0.0909089999999999,
            "durationTicks": 96,
            "midi": 51,
            "name": "D#3",
            "ticks": 25728,
            "time": 24.363612,
            "velocity": 0.2125984251968504
          },
          {
            "duration": 0.0909089999999999,
            "durationTicks": 96,
            "midi": 51,
            "name": "D#3",
            "ticks": 26112,
            "time": 24.727248,
            "velocity": 0.2125984251968504
          },
          {
            "duration": 0.0909089999999999,
            "durationTicks": 96,
            "midi": 51,
            "name": "D#3",
            "ticks": 26496,
            "time": 25.090884000000003,
            "velocity": 0.2125984251968504
          },
          {
            "duration": 0.0909089999999999,
            "durationTicks": 96,
            "midi": 47,
            "name": "B2",
            "ticks": 26880,
            "time": 25.454520000000002,
            "velocity": 0.2125984251968504
          },
          {
            "duration": 0.0909089999999999,
            "durationTicks": 96,
            "midi": 47,
            "name": "B2",
            "ticks": 27264,
            "time": 25.818156000000002,
            "velocity": 0.2125984251968504
          },
          {
            "duration": 0.0909089999999999,
            "durationTicks": 96,
            "midi": 47,
            "name": "B2",
            "ticks": 27648,
            "time": 26.181792,
            "velocity": 0.2125984251968504
          },
          {
            "duration": 0.0909089999999999,
            "durationTicks": 96,
            "midi": 47,
            "name": "B2",
            "ticks": 28032,
            "time": 26.545428,
            "velocity": 0.2125984251968504
          },
          {
            "duration": 0.0909089999999999,
            "durationTicks": 96,
            "midi": 54,
            "name": "F#3",
            "ticks": 28416,
            "time": 26.909064,
            "velocity": 0.2125984251968504
          },
          {
            "duration": 0.0909089999999999,
            "durationTicks": 96,
            "midi": 54,
            "name": "F#3",
            "ticks": 28800,
            "time": 27.2727,
            "velocity": 0.2125984251968504
          },
          {
            "duration": 0.0909089999999999,
            "durationTicks": 96,
            "midi": 54,
            "name": "F#3",
            "ticks": 29184,
            "time": 27.636336,
            "velocity": 0.2125984251968504
          },
          {
            "duration": 0.0909089999999999,
            "durationTicks": 96,
            "midi": 54,
            "name": "F#3",
            "ticks": 29568,
            "time": 27.999972,
            "velocity": 0.2125984251968504
          },
          {
            "duration": 0.0909089999999999,
            "durationTicks": 96,
            "midi": 54,
            "name": "F#3",
            "ticks": 29952,
            "time": 28.363608000000003,
            "velocity": 0.2125984251968504
          },
          {
            "duration": 0.0909089999999999,
            "durationTicks": 96,
            "midi": 54,
            "name": "F#3",
            "ticks": 30336,
            "time": 28.727244000000002,
            "velocity": 0.2125984251968504
          },
          {
            "duration": 0.0909089999999999,
            "durationTicks": 96,
            "midi": 54,
            "name": "F#3",
            "ticks": 30720,
            "time": 29.090880000000002,
            "velocity": 0.2125984251968504
          },
          {
            "duration": 0.0909089999999999,
            "durationTicks": 96,
            "midi": 54,
            "name": "F#3",
            "ticks": 31104,
            "time": 29.454516,
            "velocity": 0.2125984251968504
          },
          {
            "duration": 0.0909089999999999,
            "durationTicks": 96,
            "midi": 54,
            "name": "F#3",
            "ticks": 31488,
            "time": 29.818152,
            "velocity": 0.2125984251968504
          },
          {
            "duration": 0.0909089999999999,
            "durationTicks": 96,
            "midi": 54,
            "name": "F#3",
            "ticks": 31872,
            "time": 30.181788,
            "velocity": 0.2125984251968504
          },
          {
            "duration": 0.0909089999999999,
            "durationTicks": 96,
            "midi": 54,
            "name": "F#3",
            "ticks": 32256,
            "time": 30.545424,
            "velocity": 0.2125984251968504
          },
          {
            "duration": 0.0909089999999999,
            "durationTicks": 96,
            "midi": 54,
            "name": "F#3",
            "ticks": 32640,
            "time": 30.90906,
            "velocity": 0.2125984251968504
          },
          {
            "duration": 0.0909089999999999,
            "durationTicks": 96,
            "midi": 54,
            "name": "F#3",
            "ticks": 33024,
            "time": 31.272696,
            "velocity": 0.2125984251968504
          },
          {
            "duration": 0.0909089999999999,
            "durationTicks": 96,
            "midi": 54,
            "name": "F#3",
            "ticks": 33408,
            "time": 31.636332000000003,
            "velocity": 0.2125984251968504
          },
          {
            "duration": 0.09090899999999635,
            "durationTicks": 96,
            "midi": 54,
            "name": "F#3",
            "ticks": 33792,
            "time": 31.999968000000003,
            "velocity": 0.2125984251968504
          },
          {
            "duration": 0.09090899999999635,
            "durationTicks": 96,
            "midi": 49,
            "name": "C#3",
            "ticks": 34176,
            "time": 32.363604,
            "velocity": 0.2125984251968504
          },
          {
            "duration": 0.09090899999999635,
            "durationTicks": 96,
            "midi": 49,
            "name": "C#3",
            "ticks": 34560,
            "time": 32.72724,
            "velocity": 0.2125984251968504
          },
          {
            "duration": 0.09090899999999635,
            "durationTicks": 96,
            "midi": 49,
            "name": "C#3",
            "ticks": 34944,
            "time": 33.090876,
            "velocity": 0.2125984251968504
          },
          {
            "duration": 0.09090900000000346,
            "durationTicks": 96,
            "midi": 49,
            "name": "C#3",
            "ticks": 35328,
            "time": 33.454512,
            "velocity": 0.2125984251968504
          },
          {
            "duration": 0.09090900000000346,
            "durationTicks": 96,
            "midi": 49,
            "name": "C#3",
            "ticks": 35712,
            "time": 33.818148,
            "velocity": 0.2125984251968504
          },
          {
            "duration": 0.09090900000000346,
            "durationTicks": 96,
            "midi": 49,
            "name": "C#3",
            "ticks": 36096,
            "time": 34.181784,
            "velocity": 0.2125984251968504
          },
          {
            "duration": 0.09090900000000346,
            "durationTicks": 96,
            "midi": 49,
            "name": "C#3",
            "ticks": 36480,
            "time": 34.54542,
            "velocity": 0.2125984251968504
          },
          {
            "duration": 0.09090900000000346,
            "durationTicks": 96,
            "midi": 49,
            "name": "C#3",
            "ticks": 36864,
            "time": 34.909056,
            "velocity": 0.2125984251968504
          },
          {
            "duration": 0.09090900000000346,
            "durationTicks": 96,
            "midi": 54,
            "name": "F#3",
            "ticks": 37248,
            "time": 35.272692,
            "velocity": 0.2125984251968504
          },
          {
            "duration": 0.09090900000000346,
            "durationTicks": 96,
            "midi": 54,
            "name": "F#3",
            "ticks": 37632,
            "time": 35.636328,
            "velocity": 0.2125984251968504
          },
          {
            "duration": 0.09090900000000346,
            "durationTicks": 96,
            "midi": 54,
            "name": "F#3",
            "ticks": 38016,
            "time": 35.999964,
            "velocity": 0.2125984251968504
          },
          {
            "duration": 0.09090900000000346,
            "durationTicks": 96,
            "midi": 54,
            "name": "F#3",
            "ticks": 38400,
            "time": 36.3636,
            "velocity": 0.2125984251968504
          },
          {
            "duration": 0.09090899999999635,
            "durationTicks": 96,
            "midi": 54,
            "name": "F#3",
            "ticks": 38784,
            "time": 36.727236000000005,
            "velocity": 0.2125984251968504
          },
          {
            "duration": 0.09090899999999635,
            "durationTicks": 96,
            "midi": 54,
            "name": "F#3",
            "ticks": 39168,
            "time": 37.090872000000005,
            "velocity": 0.2125984251968504
          },
          {
            "duration": 0.09090899999999635,
            "durationTicks": 96,
            "midi": 54,
            "name": "F#3",
            "ticks": 39552,
            "time": 37.454508000000004,
            "velocity": 0.2125984251968504
          },
          {
            "duration": 0.09090899999999635,
            "durationTicks": 96,
            "midi": 54,
            "name": "F#3",
            "ticks": 39936,
            "time": 37.818144000000004,
            "velocity": 0.2125984251968504
          },
          {
            "duration": 0.09090899999999635,
            "durationTicks": 96,
            "midi": 54,
            "name": "F#3",
            "ticks": 40320,
            "time": 38.18178,
            "velocity": 0.2125984251968504
          },
          {
            "duration": 0.09090899999999635,
            "durationTicks": 96,
            "midi": 54,
            "name": "F#3",
            "ticks": 40704,
            "time": 38.545416,
            "velocity": 0.2125984251968504
          },
          {
            "duration": 0.09090899999999635,
            "durationTicks": 96,
            "midi": 54,
            "name": "F#3",
            "ticks": 41088,
            "time": 38.909052,
            "velocity": 0.2125984251968504
          },
          {
            "duration": 0.09090899999999635,
            "durationTicks": 96,
            "midi": 54,
            "name": "F#3",
            "ticks": 41472,
            "time": 39.272688,
            "velocity": 0.2125984251968504
          },
          {
            "duration": 0.09090899999999635,
            "durationTicks": 96,
            "midi": 54,
            "name": "F#3",
            "ticks": 41856,
            "time": 39.636324,
            "velocity": 0.2125984251968504
          },
          {
            "duration": 0.09090900000000346,
            "durationTicks": 96,
            "midi": 54,
            "name": "F#3",
            "ticks": 42240,
            "time": 39.99996,
            "velocity": 0.2125984251968504
          },
          {
            "duration": 0.09090900000000346,
            "durationTicks": 96,
            "midi": 54,
            "name": "F#3",
            "ticks": 42624,
            "time": 40.363596,
            "velocity": 0.2125984251968504
          },
          {
            "duration": 0.09090900000000346,
            "durationTicks": 96,
            "midi": 54,
            "name": "F#3",
            "ticks": 43008,
            "time": 40.727232,
            "velocity": 0.2125984251968504
          },
          {
            "duration": 0.09090900000000346,
            "durationTicks": 96,
            "midi": 54,
            "name": "F#3",
            "ticks": 43392,
            "time": 41.090868,
            "velocity": 0.2125984251968504
          },
          {
            "duration": 0.09090900000000346,
            "durationTicks": 96,
            "midi": 54,
            "name": "F#3",
            "ticks": 43776,
            "time": 41.454504,
            "velocity": 0.2125984251968504
          },
          {
            "duration": 0.09090900000000346,
            "durationTicks": 96,
            "midi": 54,
            "name": "F#3",
            "ticks": 44160,
            "time": 41.81814,
            "velocity": 0.2125984251968504
          },
          {
            "duration": 0.09090900000000346,
            "durationTicks": 96,
            "midi": 54,
            "name": "F#3",
            "ticks": 44544,
            "time": 42.181776,
            "velocity": 0.2125984251968504
          },
          {
            "duration": 0.09090900000000346,
            "durationTicks": 96,
            "midi": 54,
            "name": "F#3",
            "ticks": 44928,
            "time": 42.545412,
            "velocity": 0.2125984251968504
          },
          {
            "duration": 0.09090900000000346,
            "durationTicks": 96,
            "midi": 54,
            "name": "F#3",
            "ticks": 45312,
            "time": 42.909048,
            "velocity": 0.2125984251968504
          },
          {
            "duration": 0.09090899999999635,
            "durationTicks": 96,
            "midi": 54,
            "name": "F#3",
            "ticks": 45696,
            "time": 43.272684000000005,
            "velocity": 0.2125984251968504
          },
          {
            "duration": 0.09090899999999635,
            "durationTicks": 96,
            "midi": 54,
            "name": "F#3",
            "ticks": 46080,
            "time": 43.636320000000005,
            "velocity": 0.2125984251968504
          },
          {
            "duration": 0.09090899999999635,
            "durationTicks": 96,
            "midi": 49,
            "name": "C#3",
            "ticks": 46464,
            "time": 43.999956000000005,
            "velocity": 0.2125984251968504
          },
          {
            "duration": 0.09090899999999635,
            "durationTicks": 96,
            "midi": 49,
            "name": "C#3",
            "ticks": 46848,
            "time": 44.363592000000004,
            "velocity": 0.2125984251968504
          },
          {
            "duration": 0.09090899999999635,
            "durationTicks": 96,
            "midi": 49,
            "name": "C#3",
            "ticks": 47232,
            "time": 44.727228000000004,
            "velocity": 0.2125984251968504
          },
          {
            "duration": 0.09090899999999635,
            "durationTicks": 96,
            "midi": 49,
            "name": "C#3",
            "ticks": 47616,
            "time": 45.090864,
            "velocity": 0.2125984251968504
          },
          {
            "duration": 0.09090899999999635,
            "durationTicks": 96,
            "midi": 49,
            "name": "C#3",
            "ticks": 48000,
            "time": 45.4545,
            "velocity": 0.2125984251968504
          },
          {
            "duration": 0.09090899999999635,
            "durationTicks": 96,
            "midi": 49,
            "name": "C#3",
            "ticks": 48384,
            "time": 45.818136,
            "velocity": 0.2125984251968504
          },
          {
            "duration": 0.09090899999999635,
            "durationTicks": 96,
            "midi": 49,
            "name": "C#3",
            "ticks": 48768,
            "time": 46.181772,
            "velocity": 0.2125984251968504
          },
          {
            "duration": 0.09090900000000346,
            "durationTicks": 96,
            "midi": 49,
            "name": "C#3",
            "ticks": 49152,
            "time": 46.545408,
            "velocity": 0.2125984251968504
          },
          {
            "duration": 0.09090900000000346,
            "durationTicks": 96,
            "midi": 54,
            "name": "F#3",
            "ticks": 49536,
            "time": 46.909044,
            "velocity": 0.2125984251968504
          },
          {
            "duration": 0.09090900000000346,
            "durationTicks": 96,
            "midi": 54,
            "name": "F#3",
            "ticks": 49920,
            "time": 47.27268,
            "velocity": 0.2125984251968504
          },
          {
            "duration": 0.09090900000000346,
            "durationTicks": 96,
            "midi": 54,
            "name": "F#3",
            "ticks": 50304,
            "time": 47.636316,
            "velocity": 0.2125984251968504
          },
          {
            "duration": 0.09090900000000346,
            "durationTicks": 96,
            "midi": 54,
            "name": "F#3",
            "ticks": 50688,
            "time": 47.999952,
            "velocity": 0.2125984251968504
          },
          {
            "duration": 0.09090900000000346,
            "durationTicks": 96,
            "midi": 54,
            "name": "F#3",
            "ticks": 51072,
            "time": 48.363588,
            "velocity": 0.2125984251968504
          },
          {
            "duration": 0.09090900000000346,
            "durationTicks": 96,
            "midi": 42,
            "name": "F#2",
            "ticks": 52608,
            "time": 49.818132,
            "velocity": 0.2125984251968504
          },
          {
            "duration": 0.09090899999999635,
            "durationTicks": 96,
            "midi": 49,
            "name": "C#3",
            "ticks": 52800,
            "time": 49.999950000000005,
            "velocity": 0.2125984251968504
          },
          {
            "duration": 0.09090899999999635,
            "durationTicks": 96,
            "midi": 54,
            "name": "F#3",
            "ticks": 52992,
            "time": 50.181768000000005,
            "velocity": 0.2125984251968504
          },
          {
            "duration": 0.09090899999999635,
            "durationTicks": 96,
            "midi": 42,
            "name": "F#2",
            "ticks": 53184,
            "time": 50.363586000000005,
            "velocity": 0.2125984251968504
          },
          {
            "duration": 0.09090899999999635,
            "durationTicks": 96,
            "midi": 49,
            "name": "C#3",
            "ticks": 53376,
            "time": 50.545404000000005,
            "velocity": 0.2125984251968504
          },
          {
            "duration": 0.09090899999999635,
            "durationTicks": 96,
            "midi": 54,
            "name": "F#3",
            "ticks": 53568,
            "time": 50.727222000000005,
            "velocity": 0.2125984251968504
          },
          {
            "duration": 0.09090899999999635,
            "durationTicks": 96,
            "midi": 42,
            "name": "F#2",
            "ticks": 53760,
            "time": 50.909040000000005,
            "velocity": 0.2125984251968504
          },
          {
            "duration": 0.09090899999999635,
            "durationTicks": 96,
            "midi": 37,
            "name": "C#2",
            "ticks": 53952,
            "time": 51.090858000000004,
            "velocity": 0.2125984251968504
          },
          {
            "duration": 0.09090899999999635,
            "durationTicks": 96,
            "midi": 37,
            "name": "C#2",
            "ticks": 53952,
            "time": 51.090858000000004,
            "velocity": 0.2125984251968504
          },
          {
            "duration": 0.09090899999999635,
            "durationTicks": 96,
            "midi": 44,
            "name": "G#2",
            "ticks": 54144,
            "time": 51.272676000000004,
            "velocity": 0.2125984251968504
          },
          {
            "duration": 0.09090899999999635,
            "durationTicks": 96,
            "midi": 49,
            "name": "C#3",
            "ticks": 54336,
            "time": 51.454494000000004,
            "velocity": 0.2125984251968504
          },
          {
            "duration": 0.09090899999999635,
            "durationTicks": 96,
            "midi": 37,
            "name": "C#2",
            "ticks": 54528,
            "time": 51.636312000000004,
            "velocity": 0.2125984251968504
          },
          {
            "duration": 0.09090899999999635,
            "durationTicks": 96,
            "midi": 44,
            "name": "G#2",
            "ticks": 54720,
            "time": 51.818130000000004,
            "velocity": 0.2125984251968504
          },
          {
            "duration": 0.09090899999999635,
            "durationTicks": 96,
            "midi": 49,
            "name": "C#3",
            "ticks": 54912,
            "time": 51.999948,
            "velocity": 0.2125984251968504
          },
          {
            "duration": 0.09090899999999635,
            "durationTicks": 96,
            "midi": 37,
            "name": "C#2",
            "ticks": 55104,
            "time": 52.181766,
            "velocity": 0.2125984251968504
          },
          {
            "duration": 0.09090899999999635,
            "durationTicks": 96,
            "midi": 44,
            "name": "G#2",
            "ticks": 55296,
            "time": 52.363584,
            "velocity": 0.2125984251968504
          },
          {
            "duration": 0.09090899999999635,
            "durationTicks": 96,
            "midi": 49,
            "name": "C#3",
            "ticks": 55488,
            "time": 52.545402,
            "velocity": 0.2125984251968504
          },
          {
            "duration": 0.09090899999999635,
            "durationTicks": 96,
            "midi": 39,
            "name": "D#2",
            "ticks": 55680,
            "time": 52.72722,
            "velocity": 0.2125984251968504
          },
          {
            "duration": 0.09090899999999635,
            "durationTicks": 96,
            "midi": 46,
            "name": "A#2",
            "ticks": 55872,
            "time": 52.909038,
            "velocity": 0.2125984251968504
          },
          {
            "duration": 0.09090899999999635,
            "durationTicks": 96,
            "midi": 51,
            "name": "D#3",
            "ticks": 56064,
            "time": 53.090856,
            "velocity": 0.2125984251968504
          },
          {
            "duration": 0.09090900000000346,
            "durationTicks": 96,
            "midi": 39,
            "name": "D#2",
            "ticks": 56256,
            "time": 53.272674,
            "velocity": 0.2125984251968504
          },
          {
            "duration": 0.09090900000000346,
            "durationTicks": 96,
            "midi": 46,
            "name": "A#2",
            "ticks": 56448,
            "time": 53.454492,
            "velocity": 0.2125984251968504
          },
          {
            "duration": 0.09090900000000346,
            "durationTicks": 96,
            "midi": 51,
            "name": "D#3",
            "ticks": 56640,
            "time": 53.63631,
            "velocity": 0.2125984251968504
          },
          {
            "duration": 0.09090900000000346,
            "durationTicks": 96,
            "midi": 39,
            "name": "D#2",
            "ticks": 56832,
            "time": 53.818128,
            "velocity": 0.2125984251968504
          },
          {
            "duration": 0.09090900000000346,
            "durationTicks": 96,
            "midi": 35,
            "name": "B1",
            "ticks": 57024,
            "time": 53.999946,
            "velocity": 0.2125984251968504
          },
          {
            "duration": 0.09090900000000346,
            "durationTicks": 96,
            "midi": 42,
            "name": "F#2",
            "ticks": 57216,
            "time": 54.181764,
            "velocity": 0.2125984251968504
          },
          {
            "duration": 0.09090900000000346,
            "durationTicks": 96,
            "midi": 47,
            "name": "B2",
            "ticks": 57408,
            "time": 54.363582,
            "velocity": 0.2125984251968504
          },
          {
            "duration": 0.09090900000000346,
            "durationTicks": 96,
            "midi": 35,
            "name": "B1",
            "ticks": 57600,
            "time": 54.5454,
            "velocity": 0.2125984251968504
          },
          {
            "duration": 0.09090900000000346,
            "durationTicks": 96,
            "midi": 42,
            "name": "F#2",
            "ticks": 57792,
            "time": 54.727218,
            "velocity": 0.2125984251968504
          },
          {
            "duration": 0.09090900000000346,
            "durationTicks": 96,
            "midi": 47,
            "name": "B2",
            "ticks": 57984,
            "time": 54.909036,
            "velocity": 0.2125984251968504
          },
          {
            "duration": 0.09090900000000346,
            "durationTicks": 96,
            "midi": 35,
            "name": "B1",
            "ticks": 58176,
            "time": 55.090854,
            "velocity": 0.2125984251968504
          },
          {
            "duration": 0.09090900000000346,
            "durationTicks": 96,
            "midi": 42,
            "name": "F#2",
            "ticks": 58368,
            "time": 55.272672,
            "velocity": 0.2125984251968504
          },
          {
            "duration": 0.09090900000000346,
            "durationTicks": 96,
            "midi": 47,
            "name": "B2",
            "ticks": 58560,
            "time": 55.45449,
            "velocity": 0.2125984251968504
          },
          {
            "duration": 0.09090900000000346,
            "durationTicks": 96,
            "midi": 42,
            "name": "F#2",
            "ticks": 58752,
            "time": 55.636308,
            "velocity": 0.2125984251968504
          },
          {
            "duration": 0.09090900000000346,
            "durationTicks": 96,
            "midi": 49,
            "name": "C#3",
            "ticks": 58944,
            "time": 55.818126,
            "velocity": 0.2125984251968504
          },
          {
            "duration": 0.09090900000000346,
            "durationTicks": 96,
            "midi": 54,
            "name": "F#3",
            "ticks": 59136,
            "time": 55.999944,
            "velocity": 0.2125984251968504
          },
          {
            "duration": 0.09090900000000346,
            "durationTicks": 96,
            "midi": 42,
            "name": "F#2",
            "ticks": 59328,
            "time": 56.181762,
            "velocity": 0.2125984251968504
          },
          {
            "duration": 0.09090900000000346,
            "durationTicks": 96,
            "midi": 49,
            "name": "C#3",
            "ticks": 59520,
            "time": 56.36358,
            "velocity": 0.2125984251968504
          },
          {
            "duration": 0.09090899999999635,
            "durationTicks": 96,
            "midi": 54,
            "name": "F#3",
            "ticks": 59712,
            "time": 56.545398000000006,
            "velocity": 0.2125984251968504
          },
          {
            "duration": 0.09090899999999635,
            "durationTicks": 96,
            "midi": 42,
            "name": "F#2",
            "ticks": 59904,
            "time": 56.727216000000006,
            "velocity": 0.2125984251968504
          },
          {
            "duration": 0.09090899999999635,
            "durationTicks": 96,
            "midi": 37,
            "name": "C#2",
            "ticks": 60096,
            "time": 56.909034000000005,
            "velocity": 0.2125984251968504
          },
          {
            "duration": 0.09090899999999635,
            "durationTicks": 96,
            "midi": 44,
            "name": "G#2",
            "ticks": 60288,
            "time": 57.090852000000005,
            "velocity": 0.2125984251968504
          },
          {
            "duration": 0.09090899999999635,
            "durationTicks": 96,
            "midi": 49,
            "name": "C#3",
            "ticks": 60480,
            "time": 57.272670000000005,
            "velocity": 0.2125984251968504
          },
          {
            "duration": 0.09090899999999635,
            "durationTicks": 96,
            "midi": 37,
            "name": "C#2",
            "ticks": 60672,
            "time": 57.454488000000005,
            "velocity": 0.2125984251968504
          },
          {
            "duration": 0.09090899999999635,
            "durationTicks": 96,
            "midi": 44,
            "name": "G#2",
            "ticks": 60864,
            "time": 57.636306000000005,
            "velocity": 0.2125984251968504
          },
          {
            "duration": 0.09090899999999635,
            "durationTicks": 96,
            "midi": 49,
            "name": "C#3",
            "ticks": 61056,
            "time": 57.818124000000005,
            "velocity": 0.2125984251968504
          },
          {
            "duration": 0.09090899999999635,
            "durationTicks": 96,
            "midi": 37,
            "name": "C#2",
            "ticks": 61248,
            "time": 57.999942000000004,
            "velocity": 0.2125984251968504
          },
          {
            "duration": 0.09090899999999635,
            "durationTicks": 96,
            "midi": 44,
            "name": "G#2",
            "ticks": 61440,
            "time": 58.181760000000004,
            "velocity": 0.2125984251968504
          },
          {
            "duration": 0.09090899999999635,
            "durationTicks": 96,
            "midi": 49,
            "name": "C#3",
            "ticks": 61632,
            "time": 58.363578000000004,
            "velocity": 0.2125984251968504
          },
          {
            "duration": 0.09090899999999635,
            "durationTicks": 96,
            "midi": 39,
            "name": "D#2",
            "ticks": 61824,
            "time": 58.545396000000004,
            "velocity": 0.2125984251968504
          },
          {
            "duration": 0.09090899999999635,
            "durationTicks": 96,
            "midi": 46,
            "name": "A#2",
            "ticks": 62016,
            "time": 58.727214000000004,
            "velocity": 0.2125984251968504
          },
          {
            "duration": 0.09090899999999635,
            "durationTicks": 96,
            "midi": 51,
            "name": "D#3",
            "ticks": 62208,
            "time": 58.909032,
            "velocity": 0.2125984251968504
          },
          {
            "duration": 0.09090899999999635,
            "durationTicks": 96,
            "midi": 39,
            "name": "D#2",
            "ticks": 62400,
            "time": 59.09085,
            "velocity": 0.2125984251968504
          },
          {
            "duration": 0.09090899999999635,
            "durationTicks": 96,
            "midi": 46,
            "name": "A#2",
            "ticks": 62592,
            "time": 59.272668,
            "velocity": 0.2125984251968504
          },
          {
            "duration": 0.09090899999999635,
            "durationTicks": 96,
            "midi": 51,
            "name": "D#3",
            "ticks": 62784,
            "time": 59.454486,
            "velocity": 0.2125984251968504
          },
          {
            "duration": 0.09090899999999635,
            "durationTicks": 96,
            "midi": 42,
            "name": "F#2",
            "ticks": 62976,
            "time": 59.636304,
            "velocity": 0.2125984251968504
          },
          {
            "duration": 0.09090900000000346,
            "durationTicks": 96,
            "midi": 35,
            "name": "B1",
            "ticks": 63168,
            "time": 59.818122,
            "velocity": 0.2125984251968504
          },
          {
            "duration": 0.09090900000000346,
            "durationTicks": 96,
            "midi": 42,
            "name": "F#2",
            "ticks": 63360,
            "time": 59.99994,
            "velocity": 0.2125984251968504
          },
          {
            "duration": 0.09090900000000346,
            "durationTicks": 96,
            "midi": 47,
            "name": "B2",
            "ticks": 63552,
            "time": 60.181758,
            "velocity": 0.2125984251968504
          },
          {
            "duration": 0.09090900000000346,
            "durationTicks": 96,
            "midi": 35,
            "name": "B1",
            "ticks": 63744,
            "time": 60.363576,
            "velocity": 0.2125984251968504
          },
          {
            "duration": 0.09090900000000346,
            "durationTicks": 96,
            "midi": 42,
            "name": "F#2",
            "ticks": 63936,
            "time": 60.545394,
            "velocity": 0.2125984251968504
          },
          {
            "duration": 0.09090900000000346,
            "durationTicks": 96,
            "midi": 47,
            "name": "B2",
            "ticks": 64128,
            "time": 60.727212,
            "velocity": 0.2125984251968504
          },
          {
            "duration": 0.09090900000000346,
            "durationTicks": 96,
            "midi": 42,
            "name": "F#2",
            "ticks": 64320,
            "time": 60.90903,
            "velocity": 0.2125984251968504
          },
          {
            "duration": 0.09090900000000346,
            "durationTicks": 96,
            "midi": 35,
            "name": "B1",
            "ticks": 64512,
            "time": 61.090848,
            "velocity": 0.2125984251968504
          },
          {
            "duration": 0.09090900000000346,
            "durationTicks": 96,
            "midi": 39,
            "name": "D#2",
            "ticks": 64704,
            "time": 61.272666,
            "velocity": 0.2125984251968504
          },
          {
            "duration": 0.09090900000000346,
            "durationTicks": 96,
            "midi": 42,
            "name": "F#2",
            "ticks": 64896,
            "time": 61.454484,
            "velocity": 0.2125984251968504
          },
          {
            "duration": 0.09090900000000346,
            "durationTicks": 96,
            "midi": 49,
            "name": "C#3",
            "ticks": 65088,
            "time": 61.636302,
            "velocity": 0.2125984251968504
          },
          {
            "duration": 0.09090900000000346,
            "durationTicks": 96,
            "midi": 54,
            "name": "F#3",
            "ticks": 65280,
            "time": 61.81812,
            "velocity": 0.2125984251968504
          },
          {
            "duration": 0.09090900000000346,
            "durationTicks": 96,
            "midi": 42,
            "name": "F#2",
            "ticks": 65472,
            "time": 61.999938,
            "velocity": 0.2125984251968504
          },
          {
            "duration": 0.09090900000000346,
            "durationTicks": 96,
            "midi": 49,
            "name": "C#3",
            "ticks": 65664,
            "time": 62.181756,
            "velocity": 0.2125984251968504
          },
          {
            "duration": 0.09090900000000346,
            "durationTicks": 96,
            "midi": 54,
            "name": "F#3",
            "ticks": 65856,
            "time": 62.363574,
            "velocity": 0.2125984251968504
          },
          {
            "duration": 0.09090900000000346,
            "durationTicks": 96,
            "midi": 42,
            "name": "F#2",
            "ticks": 66048,
            "time": 62.545392,
            "velocity": 0.2125984251968504
          },
          {
            "duration": 0.09090900000000346,
            "durationTicks": 96,
            "midi": 49,
            "name": "C#3",
            "ticks": 66240,
            "time": 62.72721,
            "velocity": 0.2125984251968504
          },
          {
            "duration": 0.09090900000000346,
            "durationTicks": 96,
            "midi": 37,
            "name": "C#2",
            "ticks": 66432,
            "time": 62.909028,
            "velocity": 0.2125984251968504
          },
          {
            "duration": 0.09090900000000346,
            "durationTicks": 96,
            "midi": 44,
            "name": "G#2",
            "ticks": 66624,
            "time": 63.090846,
            "velocity": 0.2125984251968504
          },
          {
            "duration": 0.09090899999999635,
            "durationTicks": 96,
            "midi": 49,
            "name": "C#3",
            "ticks": 66816,
            "time": 63.272664000000006,
            "velocity": 0.2125984251968504
          },
          {
            "duration": 0.09090899999999635,
            "durationTicks": 96,
            "midi": 37,
            "name": "C#2",
            "ticks": 67008,
            "time": 63.454482000000006,
            "velocity": 0.2125984251968504
          },
          {
            "duration": 0.09090899999999635,
            "durationTicks": 96,
            "midi": 44,
            "name": "G#2",
            "ticks": 67200,
            "time": 63.636300000000006,
            "velocity": 0.2125984251968504
          },
          {
            "duration": 0.09090899999999635,
            "durationTicks": 96,
            "midi": 49,
            "name": "C#3",
            "ticks": 67392,
            "time": 63.818118000000005,
            "velocity": 0.2125984251968504
          },
          {
            "duration": 0.09090899999999635,
            "durationTicks": 96,
            "midi": 37,
            "name": "C#2",
            "ticks": 67584,
            "time": 63.999936000000005,
            "velocity": 0.2125984251968504
          },
          {
            "duration": 0.09090900000001056,
            "durationTicks": 96,
            "midi": 44,
            "name": "G#2",
            "ticks": 67776,
            "time": 64.181754,
            "velocity": 0.2125984251968504
          },
          {
            "duration": 0.09090899999999635,
            "durationTicks": 96,
            "midi": 39,
            "name": "D#2",
            "ticks": 67968,
            "time": 64.363572,
            "velocity": 0.2125984251968504
          },
          {
            "duration": 0.09090900000001056,
            "durationTicks": 96,
            "midi": 46,
            "name": "A#2",
            "ticks": 68160,
            "time": 64.54539,
            "velocity": 0.2125984251968504
          },
          {
            "duration": 0.09090899999999635,
            "durationTicks": 96,
            "midi": 51,
            "name": "D#3",
            "ticks": 68352,
            "time": 64.727208,
            "velocity": 0.2125984251968504
          },
          {
            "duration": 0.09090900000001056,
            "durationTicks": 96,
            "midi": 39,
            "name": "D#2",
            "ticks": 68544,
            "time": 64.909026,
            "velocity": 0.2125984251968504
          },
          {
            "duration": 0.09090899999999635,
            "durationTicks": 96,
            "midi": 46,
            "name": "A#2",
            "ticks": 68736,
            "time": 65.090844,
            "velocity": 0.2125984251968504
          },
          {
            "duration": 0.09090900000001056,
            "durationTicks": 96,
            "midi": 51,
            "name": "D#3",
            "ticks": 68928,
            "time": 65.272662,
            "velocity": 0.2125984251968504
          },
          {
            "duration": 0.09090899999999635,
            "durationTicks": 96,
            "midi": 39,
            "name": "D#2",
            "ticks": 69120,
            "time": 65.45448,
            "velocity": 0.2125984251968504
          },
          {
            "duration": 0.09090900000001056,
            "durationTicks": 96,
            "midi": 46,
            "name": "A#2",
            "ticks": 69312,
            "time": 65.636298,
            "velocity": 0.2125984251968504
          },
          {
            "duration": 0.09090899999999635,
            "durationTicks": 96,
            "midi": 35,
            "name": "B1",
            "ticks": 69504,
            "time": 65.818116,
            "velocity": 0.2125984251968504
          },
          {
            "duration": 0.09090900000001056,
            "durationTicks": 96,
            "midi": 42,
            "name": "F#2",
            "ticks": 69696,
            "time": 65.999934,
            "velocity": 0.2125984251968504
          },
          {
            "duration": 0.09090899999999635,
            "durationTicks": 96,
            "midi": 47,
            "name": "B2",
            "ticks": 69888,
            "time": 66.181752,
            "velocity": 0.2125984251968504
          },
          {
            "duration": 0.09090900000001056,
            "durationTicks": 96,
            "midi": 35,
            "name": "B1",
            "ticks": 70080,
            "time": 66.36357,
            "velocity": 0.2125984251968504
          },
          {
            "duration": 0.09090899999999635,
            "durationTicks": 96,
            "midi": 42,
            "name": "F#2",
            "ticks": 70272,
            "time": 66.545388,
            "velocity": 0.2125984251968504
          },
          {
            "duration": 0.09090899999999635,
            "durationTicks": 96,
            "midi": 47,
            "name": "B2",
            "ticks": 70464,
            "time": 66.72720600000001,
            "velocity": 0.2125984251968504
          },
          {
            "duration": 0.09090899999999635,
            "durationTicks": 96,
            "midi": 35,
            "name": "B1",
            "ticks": 70656,
            "time": 66.909024,
            "velocity": 0.2125984251968504
          },
          {
            "duration": 0.09090899999999635,
            "durationTicks": 96,
            "midi": 42,
            "name": "F#2",
            "ticks": 70848,
            "time": 67.09084200000001,
            "velocity": 0.2125984251968504
          },
          {
            "duration": 0.09090899999999635,
            "durationTicks": 96,
            "midi": 42,
            "name": "F#2",
            "ticks": 71040,
            "time": 67.27266,
            "velocity": 0.2125984251968504
          },
          {
            "duration": 0.09090899999999635,
            "durationTicks": 96,
            "midi": 49,
            "name": "C#3",
            "ticks": 71232,
            "time": 67.45447800000001,
            "velocity": 0.2125984251968504
          },
          {
            "duration": 0.09090899999999635,
            "durationTicks": 96,
            "midi": 54,
            "name": "F#3",
            "ticks": 71424,
            "time": 67.636296,
            "velocity": 0.2125984251968504
          },
          {
            "duration": 0.09090899999999635,
            "durationTicks": 96,
            "midi": 42,
            "name": "F#2",
            "ticks": 71616,
            "time": 67.81811400000001,
            "velocity": 0.2125984251968504
          },
          {
            "duration": 0.09090899999999635,
            "durationTicks": 96,
            "midi": 49,
            "name": "C#3",
            "ticks": 71808,
            "time": 67.999932,
            "velocity": 0.2125984251968504
          },
          {
            "duration": 0.09090899999999635,
            "durationTicks": 96,
            "midi": 54,
            "name": "F#3",
            "ticks": 72000,
            "time": 68.18175000000001,
            "velocity": 0.2125984251968504
          },
          {
            "duration": 0.09090899999999635,
            "durationTicks": 96,
            "midi": 42,
            "name": "F#2",
            "ticks": 72192,
            "time": 68.363568,
            "velocity": 0.2125984251968504
          },
          {
            "duration": 0.09090899999999635,
            "durationTicks": 96,
            "midi": 49,
            "name": "C#3",
            "ticks": 72384,
            "time": 68.54538600000001,
            "velocity": 0.2125984251968504
          },
          {
            "duration": 0.09090899999999635,
            "durationTicks": 96,
            "midi": 37,
            "name": "C#2",
            "ticks": 72576,
            "time": 68.727204,
            "velocity": 0.2125984251968504
          },
          {
            "duration": 0.09090899999999635,
            "durationTicks": 96,
            "midi": 44,
            "name": "G#2",
            "ticks": 72768,
            "time": 68.90902200000001,
            "velocity": 0.2125984251968504
          },
          {
            "duration": 0.09090899999999635,
            "durationTicks": 96,
            "midi": 49,
            "name": "C#3",
            "ticks": 72960,
            "time": 69.09084,
            "velocity": 0.2125984251968504
          },
          {
            "duration": 0.09090899999999635,
            "durationTicks": 96,
            "midi": 37,
            "name": "C#2",
            "ticks": 73152,
            "time": 69.272658,
            "velocity": 0.2125984251968504
          },
          {
            "duration": 0.09090899999999635,
            "durationTicks": 96,
            "midi": 44,
            "name": "G#2",
            "ticks": 73344,
            "time": 69.454476,
            "velocity": 0.2125984251968504
          },
          {
            "duration": 0.09090899999999635,
            "durationTicks": 96,
            "midi": 49,
            "name": "C#3",
            "ticks": 73536,
            "time": 69.636294,
            "velocity": 0.2125984251968504
          },
          {
            "duration": 0.09090900000001056,
            "durationTicks": 96,
            "midi": 37,
            "name": "C#2",
            "ticks": 73728,
            "time": 69.818112,
            "velocity": 0.2125984251968504
          },
          {
            "duration": 0.09090899999999635,
            "durationTicks": 96,
            "midi": 44,
            "name": "G#2",
            "ticks": 73920,
            "time": 69.99993,
            "velocity": 0.2125984251968504
          },
          {
            "duration": 0.09090900000001056,
            "durationTicks": 96,
            "midi": 39,
            "name": "D#2",
            "ticks": 74112,
            "time": 70.181748,
            "velocity": 0.2125984251968504
          },
          {
            "duration": 0.09090899999999635,
            "durationTicks": 96,
            "midi": 46,
            "name": "A#2",
            "ticks": 74304,
            "time": 70.363566,
            "velocity": 0.2125984251968504
          },
          {
            "duration": 0.09090900000001056,
            "durationTicks": 96,
            "midi": 51,
            "name": "D#3",
            "ticks": 74496,
            "time": 70.545384,
            "velocity": 0.2125984251968504
          },
          {
            "duration": 0.09090899999999635,
            "durationTicks": 96,
            "midi": 39,
            "name": "D#2",
            "ticks": 74688,
            "time": 70.727202,
            "velocity": 0.2125984251968504
          },
          {
            "duration": 0.09090900000001056,
            "durationTicks": 96,
            "midi": 46,
            "name": "A#2",
            "ticks": 74880,
            "time": 70.90902,
            "velocity": 0.2125984251968504
          },
          {
            "duration": 0.09090899999999635,
            "durationTicks": 96,
            "midi": 51,
            "name": "D#3",
            "ticks": 75072,
            "time": 71.090838,
            "velocity": 0.2125984251968504
          },
          {
            "duration": 0.09090900000001056,
            "durationTicks": 96,
            "midi": 39,
            "name": "D#2",
            "ticks": 75264,
            "time": 71.272656,
            "velocity": 0.2125984251968504
          },
          {
            "duration": 0.09090899999999635,
            "durationTicks": 96,
            "midi": 46,
            "name": "A#2",
            "ticks": 75456,
            "time": 71.454474,
            "velocity": 0.2125984251968504
          },
          {
            "duration": 0.09090900000001056,
            "durationTicks": 96,
            "midi": 35,
            "name": "B1",
            "ticks": 75648,
            "time": 71.636292,
            "velocity": 0.2125984251968504
          },
          {
            "duration": 0.09090899999999635,
            "durationTicks": 96,
            "midi": 42,
            "name": "F#2",
            "ticks": 75840,
            "time": 71.81811,
            "velocity": 0.2125984251968504
          },
          {
            "duration": 0.09090900000001056,
            "durationTicks": 96,
            "midi": 47,
            "name": "B2",
            "ticks": 76032,
            "time": 71.999928,
            "velocity": 0.2125984251968504
          },
          {
            "duration": 0.09090899999999635,
            "durationTicks": 96,
            "midi": 35,
            "name": "B1",
            "ticks": 76224,
            "time": 72.181746,
            "velocity": 0.2125984251968504
          },
          {
            "duration": 0.09090900000001056,
            "durationTicks": 96,
            "midi": 47,
            "name": "B2",
            "ticks": 76416,
            "time": 72.363564,
            "velocity": 0.2125984251968504
          },
          {
            "duration": 0.09090900000001056,
            "durationTicks": 96,
            "midi": 35,
            "name": "B1",
            "ticks": 76800,
            "time": 72.7272,
            "velocity": 0.2125984251968504
          },
          {
            "duration": 0.09090900000001056,
            "durationTicks": 96,
            "midi": 42,
            "name": "F#2",
            "ticks": 77184,
            "time": 73.090836,
            "velocity": 0.2125984251968504
          },
          {
            "duration": 0.09090899999999635,
            "durationTicks": 96,
            "midi": 54,
            "name": "F#3",
            "ticks": 77376,
            "time": 73.272654,
            "velocity": 0.2125984251968504
          },
          {
            "duration": 0.09090899999999635,
            "durationTicks": 96,
            "midi": 42,
            "name": "F#2",
            "ticks": 77568,
            "time": 73.45447200000001,
            "velocity": 0.2125984251968504
          },
          {
            "duration": 0.09090899999999635,
            "durationTicks": 96,
            "midi": 54,
            "name": "F#3",
            "ticks": 77760,
            "time": 73.63629,
            "velocity": 0.2125984251968504
          },
          {
            "duration": 0.09090899999999635,
            "durationTicks": 96,
            "midi": 42,
            "name": "F#2",
            "ticks": 77952,
            "time": 73.81810800000001,
            "velocity": 0.2125984251968504
          },
          {
            "duration": 0.09090899999999635,
            "durationTicks": 96,
            "midi": 54,
            "name": "F#3",
            "ticks": 78144,
            "time": 73.999926,
            "velocity": 0.2125984251968504
          },
          {
            "duration": 0.09090899999999635,
            "durationTicks": 96,
            "midi": 42,
            "name": "F#2",
            "ticks": 78336,
            "time": 74.18174400000001,
            "velocity": 0.2125984251968504
          },
          {
            "duration": 0.09090899999999635,
            "durationTicks": 96,
            "midi": 54,
            "name": "F#3",
            "ticks": 78528,
            "time": 74.363562,
            "velocity": 0.2125984251968504
          },
          {
            "duration": 0.09090899999999635,
            "durationTicks": 96,
            "midi": 42,
            "name": "F#2",
            "ticks": 78720,
            "time": 74.54538000000001,
            "velocity": 0.2125984251968504
          },
          {
            "duration": 0.09090899999999635,
            "durationTicks": 96,
            "midi": 54,
            "name": "F#3",
            "ticks": 78912,
            "time": 74.727198,
            "velocity": 0.2125984251968504
          },
          {
            "duration": 0.09090899999999635,
            "durationTicks": 96,
            "midi": 42,
            "name": "F#2",
            "ticks": 79104,
            "time": 74.90901600000001,
            "velocity": 0.2125984251968504
          },
          {
            "duration": 0.09090899999999635,
            "durationTicks": 96,
            "midi": 54,
            "name": "F#3",
            "ticks": 79296,
            "time": 75.090834,
            "velocity": 0.2125984251968504
          },
          {
            "duration": 0.09090899999999635,
            "durationTicks": 96,
            "midi": 42,
            "name": "F#2",
            "ticks": 79488,
            "time": 75.27265200000001,
            "velocity": 0.2125984251968504
          },
          {
            "duration": 0.09090899999999635,
            "durationTicks": 96,
            "midi": 54,
            "name": "F#3",
            "ticks": 79680,
            "time": 75.45447,
            "velocity": 0.2125984251968504
          },
          {
            "duration": 0.09090899999999635,
            "durationTicks": 96,
            "midi": 42,
            "name": "F#2",
            "ticks": 79872,
            "time": 75.63628800000001,
            "velocity": 0.2125984251968504
          },
          {
            "duration": 0.09090899999999635,
            "durationTicks": 96,
            "midi": 54,
            "name": "F#3",
            "ticks": 80064,
            "time": 75.818106,
            "velocity": 0.2125984251968504
          },
          {
            "duration": 0.09090899999999635,
            "durationTicks": 96,
            "midi": 42,
            "name": "F#2",
            "ticks": 80256,
            "time": 75.99992400000001,
            "velocity": 0.2125984251968504
          },
          {
            "duration": 0.09090899999999635,
            "durationTicks": 96,
            "midi": 54,
            "name": "F#3",
            "ticks": 80448,
            "time": 76.181742,
            "velocity": 0.2125984251968504
          },
          {
            "duration": 0.09090899999999635,
            "durationTicks": 96,
            "midi": 42,
            "name": "F#2",
            "ticks": 80640,
            "time": 76.36356,
            "velocity": 0.2125984251968504
          },
          {
            "duration": 0.09090900000001056,
            "durationTicks": 96,
            "midi": 54,
            "name": "F#3",
            "ticks": 80832,
            "time": 76.545378,
            "velocity": 0.2125984251968504
          },
          {
            "duration": 0.09090899999999635,
            "durationTicks": 96,
            "midi": 42,
            "name": "F#2",
            "ticks": 81024,
            "time": 76.727196,
            "velocity": 0.2125984251968504
          },
          {
            "duration": 0.09090900000001056,
            "durationTicks": 96,
            "midi": 54,
            "name": "F#3",
            "ticks": 81216,
            "time": 76.909014,
            "velocity": 0.2125984251968504
          },
          {
            "duration": 0.09090899999999635,
            "durationTicks": 96,
            "midi": 42,
            "name": "F#2",
            "ticks": 81408,
            "time": 77.090832,
            "velocity": 0.2125984251968504
          },
          {
            "duration": 0.09090900000001056,
            "durationTicks": 96,
            "midi": 54,
            "name": "F#3",
            "ticks": 81600,
            "time": 77.27265,
            "velocity": 0.2125984251968504
          },
          {
            "duration": 0.09090899999999635,
            "durationTicks": 96,
            "midi": 42,
            "name": "F#2",
            "ticks": 81792,
            "time": 77.454468,
            "velocity": 0.2125984251968504
          },
          {
            "duration": 0.09090900000001056,
            "durationTicks": 96,
            "midi": 54,
            "name": "F#3",
            "ticks": 81984,
            "time": 77.636286,
            "velocity": 0.2125984251968504
          },
          {
            "duration": 0.09090899999999635,
            "durationTicks": 96,
            "midi": 42,
            "name": "F#2",
            "ticks": 82176,
            "time": 77.818104,
            "velocity": 0.2125984251968504
          },
          {
            "duration": 0.09090900000001056,
            "durationTicks": 96,
            "midi": 54,
            "name": "F#3",
            "ticks": 82368,
            "time": 77.999922,
            "velocity": 0.2125984251968504
          },
          {
            "duration": 0.09090899999999635,
            "durationTicks": 96,
            "midi": 42,
            "name": "F#2",
            "ticks": 82560,
            "time": 78.18174,
            "velocity": 0.2125984251968504
          },
          {
            "duration": 0.09090900000001056,
            "durationTicks": 96,
            "midi": 54,
            "name": "F#3",
            "ticks": 82752,
            "time": 78.363558,
            "velocity": 0.2125984251968504
          },
          {
            "duration": 0.09090899999999635,
            "durationTicks": 96,
            "midi": 42,
            "name": "F#2",
            "ticks": 82944,
            "time": 78.545376,
            "velocity": 0.2125984251968504
          },
          {
            "duration": 0.09090900000001056,
            "durationTicks": 96,
            "midi": 54,
            "name": "F#3",
            "ticks": 83136,
            "time": 78.727194,
            "velocity": 0.2125984251968504
          },
          {
            "duration": 0.09090899999999635,
            "durationTicks": 96,
            "midi": 37,
            "name": "C#2",
            "ticks": 83328,
            "time": 78.909012,
            "velocity": 0.2125984251968504
          },
          {
            "duration": 0.09090900000001056,
            "durationTicks": 96,
            "midi": 49,
            "name": "C#3",
            "ticks": 83520,
            "time": 79.09083,
            "velocity": 0.2125984251968504
          },
          {
            "duration": 0.09090899999999635,
            "durationTicks": 96,
            "midi": 37,
            "name": "C#2",
            "ticks": 83712,
            "time": 79.272648,
            "velocity": 0.2125984251968504
          },
          {
            "duration": 0.09090900000001056,
            "durationTicks": 96,
            "midi": 49,
            "name": "C#3",
            "ticks": 83904,
            "time": 79.454466,
            "velocity": 0.2125984251968504
          },
          {
            "duration": 0.09090899999999635,
            "durationTicks": 96,
            "midi": 37,
            "name": "C#2",
            "ticks": 84096,
            "time": 79.636284,
            "velocity": 0.2125984251968504
          },
          {
            "duration": 0.09090899999999635,
            "durationTicks": 96,
            "midi": 49,
            "name": "C#3",
            "ticks": 84288,
            "time": 79.81810200000001,
            "velocity": 0.2125984251968504
          },
          {
            "duration": 0.09090899999999635,
            "durationTicks": 96,
            "midi": 37,
            "name": "C#2",
            "ticks": 84480,
            "time": 79.99992,
            "velocity": 0.2125984251968504
          },
          {
            "duration": 0.09090899999999635,
            "durationTicks": 96,
            "midi": 49,
            "name": "C#3",
            "ticks": 84672,
            "time": 80.18173800000001,
            "velocity": 0.2125984251968504
          },
          {
            "duration": 0.09090899999999635,
            "durationTicks": 96,
            "midi": 37,
            "name": "C#2",
            "ticks": 84864,
            "time": 80.363556,
            "velocity": 0.2125984251968504
          },
          {
            "duration": 0.09090899999999635,
            "durationTicks": 96,
            "midi": 49,
            "name": "C#3",
            "ticks": 85056,
            "time": 80.54537400000001,
            "velocity": 0.2125984251968504
          },
          {
            "duration": 0.09090899999999635,
            "durationTicks": 96,
            "midi": 37,
            "name": "C#2",
            "ticks": 85248,
            "time": 80.727192,
            "velocity": 0.2125984251968504
          },
          {
            "duration": 0.09090899999999635,
            "durationTicks": 96,
            "midi": 49,
            "name": "C#3",
            "ticks": 85440,
            "time": 80.90901000000001,
            "velocity": 0.2125984251968504
          },
          {
            "duration": 0.09090899999999635,
            "durationTicks": 96,
            "midi": 37,
            "name": "C#2",
            "ticks": 85632,
            "time": 81.090828,
            "velocity": 0.2125984251968504
          },
          {
            "duration": 0.09090899999999635,
            "durationTicks": 96,
            "midi": 49,
            "name": "C#3",
            "ticks": 85824,
            "time": 81.27264600000001,
            "velocity": 0.2125984251968504
          },
          {
            "duration": 0.09090899999999635,
            "durationTicks": 96,
            "midi": 42,
            "name": "F#2",
            "ticks": 86016,
            "time": 81.454464,
            "velocity": 0.2125984251968504
          },
          {
            "duration": 0.09090899999999635,
            "durationTicks": 96,
            "midi": 54,
            "name": "F#3",
            "ticks": 86208,
            "time": 81.63628200000001,
            "velocity": 0.2125984251968504
          },
          {
            "duration": 0.09090899999999635,
            "durationTicks": 96,
            "midi": 42,
            "name": "F#2",
            "ticks": 86400,
            "time": 81.8181,
            "velocity": 0.2125984251968504
          },
          {
            "duration": 0.09090899999999635,
            "durationTicks": 96,
            "midi": 54,
            "name": "F#3",
            "ticks": 86592,
            "time": 81.99991800000001,
            "velocity": 0.2125984251968504
          },
          {
            "duration": 0.09090899999999635,
            "durationTicks": 96,
            "midi": 42,
            "name": "F#2",
            "ticks": 86784,
            "time": 82.181736,
            "velocity": 0.2125984251968504
          },
          {
            "duration": 0.09090899999999635,
            "durationTicks": 96,
            "midi": 54,
            "name": "F#3",
            "ticks": 86976,
            "time": 82.36355400000001,
            "velocity": 0.2125984251968504
          },
          {
            "duration": 0.09090899999999635,
            "durationTicks": 96,
            "midi": 42,
            "name": "F#2",
            "ticks": 87168,
            "time": 82.545372,
            "velocity": 0.2125984251968504
          },
          {
            "duration": 0.09090899999999635,
            "durationTicks": 96,
            "midi": 54,
            "name": "F#3",
            "ticks": 87360,
            "time": 82.72719000000001,
            "velocity": 0.2125984251968504
          },
          {
            "duration": 0.09090899999999635,
            "durationTicks": 96,
            "midi": 42,
            "name": "F#2",
            "ticks": 87552,
            "time": 82.909008,
            "velocity": 0.2125984251968504
          },
          {
            "duration": 0.09090899999999635,
            "durationTicks": 96,
            "midi": 54,
            "name": "F#3",
            "ticks": 87744,
            "time": 83.090826,
            "velocity": 0.2125984251968504
          },
          {
            "duration": 0.09090900000001056,
            "durationTicks": 96,
            "midi": 42,
            "name": "F#2",
            "ticks": 87936,
            "time": 83.272644,
            "velocity": 0.2125984251968504
          },
          {
            "duration": 0.09090899999999635,
            "durationTicks": 96,
            "midi": 54,
            "name": "F#3",
            "ticks": 88128,
            "time": 83.454462,
            "velocity": 0.2125984251968504
          },
          {
            "duration": 0.09090900000001056,
            "durationTicks": 96,
            "midi": 42,
            "name": "F#2",
            "ticks": 88320,
            "time": 83.63628,
            "velocity": 0.2125984251968504
          },
          {
            "duration": 0.09090899999999635,
            "durationTicks": 96,
            "midi": 54,
            "name": "F#3",
            "ticks": 88512,
            "time": 83.818098,
            "velocity": 0.2125984251968504
          },
          {
            "duration": 0.09090900000001056,
            "durationTicks": 96,
            "midi": 42,
            "name": "F#2",
            "ticks": 88704,
            "time": 83.999916,
            "velocity": 0.2125984251968504
          },
          {
            "duration": 0.09090899999999635,
            "durationTicks": 96,
            "midi": 54,
            "name": "F#3",
            "ticks": 88896,
            "time": 84.181734,
            "velocity": 0.2125984251968504
          },
          {
            "duration": 0.09090900000001056,
            "durationTicks": 96,
            "midi": 42,
            "name": "F#2",
            "ticks": 89088,
            "time": 84.363552,
            "velocity": 0.2125984251968504
          },
          {
            "duration": 0.09090899999999635,
            "durationTicks": 96,
            "midi": 54,
            "name": "F#3",
            "ticks": 89280,
            "time": 84.54537,
            "velocity": 0.2125984251968504
          },
          {
            "duration": 0.09090900000001056,
            "durationTicks": 96,
            "midi": 42,
            "name": "F#2",
            "ticks": 89472,
            "time": 84.727188,
            "velocity": 0.2125984251968504
          },
          {
            "duration": 0.09090899999999635,
            "durationTicks": 96,
            "midi": 54,
            "name": "F#3",
            "ticks": 89664,
            "time": 84.909006,
            "velocity": 0.2125984251968504
          },
          {
            "duration": 0.09090900000001056,
            "durationTicks": 96,
            "midi": 42,
            "name": "F#2",
            "ticks": 89856,
            "time": 85.090824,
            "velocity": 0.2125984251968504
          },
          {
            "duration": 0.09090899999999635,
            "durationTicks": 96,
            "midi": 54,
            "name": "F#3",
            "ticks": 90048,
            "time": 85.272642,
            "velocity": 0.2125984251968504
          },
          {
            "duration": 0.09090900000001056,
            "durationTicks": 96,
            "midi": 42,
            "name": "F#2",
            "ticks": 90240,
            "time": 85.45446,
            "velocity": 0.2125984251968504
          },
          {
            "duration": 0.09090899999999635,
            "durationTicks": 96,
            "midi": 54,
            "name": "F#3",
            "ticks": 90432,
            "time": 85.636278,
            "velocity": 0.2125984251968504
          },
          {
            "duration": 0.09090900000001056,
            "durationTicks": 96,
            "midi": 42,
            "name": "F#2",
            "ticks": 90624,
            "time": 85.818096,
            "velocity": 0.2125984251968504
          },
          {
            "duration": 0.09090899999999635,
            "durationTicks": 96,
            "midi": 54,
            "name": "F#3",
            "ticks": 90816,
            "time": 85.999914,
            "velocity": 0.2125984251968504
          },
          {
            "duration": 0.09090900000001056,
            "durationTicks": 96,
            "midi": 42,
            "name": "F#2",
            "ticks": 91008,
            "time": 86.181732,
            "velocity": 0.2125984251968504
          },
          {
            "duration": 0.09090899999999635,
            "durationTicks": 96,
            "midi": 54,
            "name": "F#3",
            "ticks": 91200,
            "time": 86.36355,
            "velocity": 0.2125984251968504
          },
          {
            "duration": 0.09090899999999635,
            "durationTicks": 96,
            "midi": 42,
            "name": "F#2",
            "ticks": 91392,
            "time": 86.54536800000001,
            "velocity": 0.2125984251968504
          },
          {
            "duration": 0.09090899999999635,
            "durationTicks": 96,
            "midi": 54,
            "name": "F#3",
            "ticks": 91584,
            "time": 86.727186,
            "velocity": 0.2125984251968504
          },
          {
            "duration": 0.09090899999999635,
            "durationTicks": 96,
            "midi": 42,
            "name": "F#2",
            "ticks": 91776,
            "time": 86.90900400000001,
            "velocity": 0.2125984251968504
          },
          {
            "duration": 0.09090899999999635,
            "durationTicks": 96,
            "midi": 54,
            "name": "F#3",
            "ticks": 91968,
            "time": 87.090822,
            "velocity": 0.2125984251968504
          },
          {
            "duration": 0.09090899999999635,
            "durationTicks": 96,
            "midi": 42,
            "name": "F#2",
            "ticks": 92160,
            "time": 87.27264000000001,
            "velocity": 0.2125984251968504
          },
          {
            "duration": 0.09090899999999635,
            "durationTicks": 96,
            "midi": 54,
            "name": "F#3",
            "ticks": 92352,
            "time": 87.454458,
            "velocity": 0.2125984251968504
          },
          {
            "duration": 0.09090899999999635,
            "durationTicks": 96,
            "midi": 42,
            "name": "F#2",
            "ticks": 92544,
            "time": 87.63627600000001,
            "velocity": 0.2125984251968504
          },
          {
            "duration": 0.09090899999999635,
            "durationTicks": 96,
            "midi": 54,
            "name": "F#3",
            "ticks": 92736,
            "time": 87.818094,
            "velocity": 0.2125984251968504
          },
          {
            "duration": 0.09090899999999635,
            "durationTicks": 96,
            "midi": 42,
            "name": "F#2",
            "ticks": 92928,
            "time": 87.99991200000001,
            "velocity": 0.2125984251968504
          },
          {
            "duration": 0.09090899999999635,
            "durationTicks": 96,
            "midi": 54,
            "name": "F#3",
            "ticks": 93120,
            "time": 88.18173,
            "velocity": 0.2125984251968504
          },
          {
            "duration": 0.09090899999999635,
            "durationTicks": 96,
            "midi": 42,
            "name": "F#2",
            "ticks": 93312,
            "time": 88.36354800000001,
            "velocity": 0.2125984251968504
          },
          {
            "duration": 0.09090899999999635,
            "durationTicks": 96,
            "midi": 54,
            "name": "F#3",
            "ticks": 93504,
            "time": 88.545366,
            "velocity": 0.2125984251968504
          },
          {
            "duration": 0.09090899999999635,
            "durationTicks": 96,
            "midi": 42,
            "name": "F#2",
            "ticks": 93696,
            "time": 88.72718400000001,
            "velocity": 0.2125984251968504
          },
          {
            "duration": 0.09090899999999635,
            "durationTicks": 96,
            "midi": 54,
            "name": "F#3",
            "ticks": 93888,
            "time": 88.909002,
            "velocity": 0.2125984251968504
          },
          {
            "duration": 0.09090899999999635,
            "durationTicks": 96,
            "midi": 42,
            "name": "F#2",
            "ticks": 94080,
            "time": 89.09082000000001,
            "velocity": 0.2125984251968504
          },
          {
            "duration": 0.09090899999999635,
            "durationTicks": 96,
            "midi": 54,
            "name": "F#3",
            "ticks": 94272,
            "time": 89.272638,
            "velocity": 0.2125984251968504
          },
          {
            "duration": 0.09090899999999635,
            "durationTicks": 96,
            "midi": 42,
            "name": "F#2",
            "ticks": 94464,
            "time": 89.45445600000001,
            "velocity": 0.2125984251968504
          },
          {
            "duration": 0.09090899999999635,
            "durationTicks": 96,
            "midi": 54,
            "name": "F#3",
            "ticks": 94656,
            "time": 89.636274,
            "velocity": 0.2125984251968504
          },
          {
            "duration": 0.09090899999999635,
            "durationTicks": 96,
            "midi": 42,
            "name": "F#2",
            "ticks": 94848,
            "time": 89.81809200000001,
            "velocity": 0.2125984251968504
          },
          {
            "duration": 0.09090900000001056,
            "durationTicks": 96,
            "midi": 54,
            "name": "F#3",
            "ticks": 95040,
            "time": 89.99991,
            "velocity": 0.2125984251968504
          },
          {
            "duration": 0.09090899999999635,
            "durationTicks": 96,
            "midi": 37,
            "name": "C#2",
            "ticks": 95232,
            "time": 90.181728,
            "velocity": 0.2125984251968504
          },
          {
            "duration": 0.09090900000001056,
            "durationTicks": 96,
            "midi": 49,
            "name": "C#3",
            "ticks": 95424,
            "time": 90.363546,
            "velocity": 0.2125984251968504
          },
          {
            "duration": 0.09090899999999635,
            "durationTicks": 96,
            "midi": 37,
            "name": "C#2",
            "ticks": 95616,
            "time": 90.545364,
            "velocity": 0.2125984251968504
          },
          {
            "duration": 0.09090900000001056,
            "durationTicks": 96,
            "midi": 49,
            "name": "C#3",
            "ticks": 95808,
            "time": 90.727182,
            "velocity": 0.2125984251968504
          },
          {
            "duration": 0.09090899999999635,
            "durationTicks": 96,
            "midi": 37,
            "name": "C#2",
            "ticks": 96000,
            "time": 90.909,
            "velocity": 0.2125984251968504
          },
          {
            "duration": 0.09090900000001056,
            "durationTicks": 96,
            "midi": 49,
            "name": "C#3",
            "ticks": 96192,
            "time": 91.090818,
            "velocity": 0.2125984251968504
          },
          {
            "duration": 0.09090899999999635,
            "durationTicks": 96,
            "midi": 37,
            "name": "C#2",
            "ticks": 96384,
            "time": 91.272636,
            "velocity": 0.2125984251968504
          },
          {
            "duration": 0.09090900000001056,
            "durationTicks": 96,
            "midi": 49,
            "name": "C#3",
            "ticks": 96576,
            "time": 91.454454,
            "velocity": 0.2125984251968504
          },
          {
            "duration": 0.09090899999999635,
            "durationTicks": 96,
            "midi": 37,
            "name": "C#2",
            "ticks": 96768,
            "time": 91.636272,
            "velocity": 0.2125984251968504
          },
          {
            "duration": 0.09090900000001056,
            "durationTicks": 96,
            "midi": 49,
            "name": "C#3",
            "ticks": 96960,
            "time": 91.81809,
            "velocity": 0.2125984251968504
          },
          {
            "duration": 0.09090899999999635,
            "durationTicks": 96,
            "midi": 37,
            "name": "C#2",
            "ticks": 97152,
            "time": 91.999908,
            "velocity": 0.2125984251968504
          },
          {
            "duration": 0.09090900000001056,
            "durationTicks": 96,
            "midi": 49,
            "name": "C#3",
            "ticks": 97344,
            "time": 92.181726,
            "velocity": 0.2125984251968504
          },
          {
            "duration": 0.09090899999999635,
            "durationTicks": 96,
            "midi": 37,
            "name": "C#2",
            "ticks": 97536,
            "time": 92.363544,
            "velocity": 0.2125984251968504
          },
          {
            "duration": 0.09090900000001056,
            "durationTicks": 96,
            "midi": 49,
            "name": "C#3",
            "ticks": 97728,
            "time": 92.545362,
            "velocity": 0.2125984251968504
          },
          {
            "duration": 0.09090899999999635,
            "durationTicks": 96,
            "midi": 37,
            "name": "C#2",
            "ticks": 97920,
            "time": 92.72718,
            "velocity": 0.2125984251968504
          },
          {
            "duration": 0.09090900000001056,
            "durationTicks": 96,
            "midi": 49,
            "name": "C#3",
            "ticks": 98112,
            "time": 92.908998,
            "velocity": 0.2125984251968504
          },
          {
            "duration": 0.09090899999999635,
            "durationTicks": 96,
            "midi": 42,
            "name": "F#2",
            "ticks": 98304,
            "time": 93.090816,
            "velocity": 0.2125984251968504
          },
          {
            "duration": 0.09090899999999635,
            "durationTicks": 96,
            "midi": 54,
            "name": "F#3",
            "ticks": 98496,
            "time": 93.27263400000001,
            "velocity": 0.2125984251968504
          },
          {
            "duration": 0.09090899999999635,
            "durationTicks": 96,
            "midi": 42,
            "name": "F#2",
            "ticks": 98688,
            "time": 93.454452,
            "velocity": 0.2125984251968504
          },
          {
            "duration": 0.09090899999999635,
            "durationTicks": 96,
            "midi": 54,
            "name": "F#3",
            "ticks": 98880,
            "time": 93.63627000000001,
            "velocity": 0.2125984251968504
          },
          {
            "duration": 0.09090899999999635,
            "durationTicks": 96,
            "midi": 42,
            "name": "F#2",
            "ticks": 99072,
            "time": 93.818088,
            "velocity": 0.2125984251968504
          },
          {
            "duration": 0.09090899999999635,
            "durationTicks": 96,
            "midi": 54,
            "name": "F#3",
            "ticks": 99264,
            "time": 93.99990600000001,
            "velocity": 0.2125984251968504
          },
          {
            "duration": 0.09090899999999635,
            "durationTicks": 96,
            "midi": 42,
            "name": "F#2",
            "ticks": 99456,
            "time": 94.181724,
            "velocity": 0.2125984251968504
          },
          {
            "duration": 0.09090899999999635,
            "durationTicks": 96,
            "midi": 54,
            "name": "F#3",
            "ticks": 99648,
            "time": 94.36354200000001,
            "velocity": 0.2125984251968504
          },
          {
            "duration": 0.09090899999999635,
            "durationTicks": 96,
            "midi": 42,
            "name": "F#2",
            "ticks": 99840,
            "time": 94.54536,
            "velocity": 0.2125984251968504
          },
          {
            "duration": 0.09090899999999635,
            "durationTicks": 96,
            "midi": 42,
            "name": "F#2",
            "ticks": 101376,
            "time": 95.999904,
            "velocity": 0.2125984251968504
          },
          {
            "duration": 0.09090899999999635,
            "durationTicks": 96,
            "midi": 49,
            "name": "C#3",
            "ticks": 101568,
            "time": 96.18172200000001,
            "velocity": 0.2125984251968504
          },
          {
            "duration": 0.09090900000001056,
            "durationTicks": 96,
            "midi": 54,
            "name": "F#3",
            "ticks": 101760,
            "time": 96.36354,
            "velocity": 0.2125984251968504
          },
          {
            "duration": 0.09090899999999635,
            "durationTicks": 96,
            "midi": 42,
            "name": "F#2",
            "ticks": 101952,
            "time": 96.54535800000001,
            "velocity": 0.2125984251968504
          },
          {
            "duration": 0.09090900000001056,
            "durationTicks": 96,
            "midi": 49,
            "name": "C#3",
            "ticks": 102144,
            "time": 96.727176,
            "velocity": 0.2125984251968504
          },
          {
            "duration": 0.09090899999999635,
            "durationTicks": 96,
            "midi": 54,
            "name": "F#3",
            "ticks": 102336,
            "time": 96.908994,
            "velocity": 0.2125984251968504
          },
          {
            "duration": 0.09090900000001056,
            "durationTicks": 96,
            "midi": 42,
            "name": "F#2",
            "ticks": 102528,
            "time": 97.090812,
            "velocity": 0.2125984251968504
          },
          {
            "duration": 0.09090899999999635,
            "durationTicks": 96,
            "midi": 37,
            "name": "C#2",
            "ticks": 102720,
            "time": 97.27263,
            "velocity": 0.2125984251968504
          },
          {
            "duration": 0.09090899999999635,
            "durationTicks": 96,
            "midi": 37,
            "name": "C#2",
            "ticks": 102720,
            "time": 97.27263,
            "velocity": 0.2125984251968504
          },
          {
            "duration": 0.09090900000001056,
            "durationTicks": 96,
            "midi": 44,
            "name": "G#2",
            "ticks": 102912,
            "time": 97.454448,
            "velocity": 0.2125984251968504
          },
          {
            "duration": 0.09090899999999635,
            "durationTicks": 96,
            "midi": 49,
            "name": "C#3",
            "ticks": 103104,
            "time": 97.636266,
            "velocity": 0.2125984251968504
          },
          {
            "duration": 0.09090900000001056,
            "durationTicks": 96,
            "midi": 37,
            "name": "C#2",
            "ticks": 103296,
            "time": 97.818084,
            "velocity": 0.2125984251968504
          },
          {
            "duration": 0.09090899999999635,
            "durationTicks": 96,
            "midi": 44,
            "name": "G#2",
            "ticks": 103488,
            "time": 97.999902,
            "velocity": 0.2125984251968504
          },
          {
            "duration": 0.09090900000001056,
            "durationTicks": 96,
            "midi": 49,
            "name": "C#3",
            "ticks": 103680,
            "time": 98.18172,
            "velocity": 0.2125984251968504
          },
          {
            "duration": 0.09090899999999635,
            "durationTicks": 96,
            "midi": 37,
            "name": "C#2",
            "ticks": 103872,
            "time": 98.363538,
            "velocity": 0.2125984251968504
          },
          {
            "duration": 0.09090900000001056,
            "durationTicks": 96,
            "midi": 44,
            "name": "G#2",
            "ticks": 104064,
            "time": 98.545356,
            "velocity": 0.2125984251968504
          },
          {
            "duration": 0.09090899999999635,
            "durationTicks": 96,
            "midi": 49,
            "name": "C#3",
            "ticks": 104256,
            "time": 98.727174,
            "velocity": 0.2125984251968504
          },
          {
            "duration": 0.09090900000001056,
            "durationTicks": 96,
            "midi": 39,
            "name": "D#2",
            "ticks": 104448,
            "time": 98.908992,
            "velocity": 0.2125984251968504
          },
          {
            "duration": 0.09090899999999635,
            "durationTicks": 96,
            "midi": 46,
            "name": "A#2",
            "ticks": 104640,
            "time": 99.09081,
            "velocity": 0.2125984251968504
          },
          {
            "duration": 0.09090900000001056,
            "durationTicks": 96,
            "midi": 51,
            "name": "D#3",
            "ticks": 104832,
            "time": 99.272628,
            "velocity": 0.2125984251968504
          },
          {
            "duration": 0.09090899999999635,
            "durationTicks": 96,
            "midi": 39,
            "name": "D#2",
            "ticks": 105024,
            "time": 99.454446,
            "velocity": 0.2125984251968504
          },
          {
            "duration": 0.09090900000001056,
            "durationTicks": 96,
            "midi": 46,
            "name": "A#2",
            "ticks": 105216,
            "time": 99.636264,
            "velocity": 0.2125984251968504
          },
          {
            "duration": 0.09090899999999635,
            "durationTicks": 96,
            "midi": 51,
            "name": "D#3",
            "ticks": 105408,
            "time": 99.818082,
            "velocity": 0.2125984251968504
          },
          {
            "duration": 0.09090899999999635,
            "durationTicks": 96,
            "midi": 39,
            "name": "D#2",
            "ticks": 105600,
            "time": 99.99990000000001,
            "velocity": 0.2125984251968504
          },
          {
            "duration": 0.09090899999999635,
            "durationTicks": 96,
            "midi": 35,
            "name": "B1",
            "ticks": 105792,
            "time": 100.181718,
            "velocity": 0.2125984251968504
          },
          {
            "duration": 0.09090899999999635,
            "durationTicks": 96,
            "midi": 42,
            "name": "F#2",
            "ticks": 105984,
            "time": 100.36353600000001,
            "velocity": 0.2125984251968504
          },
          {
            "duration": 0.09090899999999635,
            "durationTicks": 96,
            "midi": 47,
            "name": "B2",
            "ticks": 106176,
            "time": 100.545354,
            "velocity": 0.2125984251968504
          },
          {
            "duration": 0.09090899999999635,
            "durationTicks": 96,
            "midi": 35,
            "name": "B1",
            "ticks": 106368,
            "time": 100.72717200000001,
            "velocity": 0.2125984251968504
          },
          {
            "duration": 0.09090899999999635,
            "durationTicks": 96,
            "midi": 42,
            "name": "F#2",
            "ticks": 106560,
            "time": 100.90899,
            "velocity": 0.2125984251968504
          },
          {
            "duration": 0.09090899999999635,
            "durationTicks": 96,
            "midi": 47,
            "name": "B2",
            "ticks": 106752,
            "time": 101.09080800000001,
            "velocity": 0.2125984251968504
          },
          {
            "duration": 0.09090899999999635,
            "durationTicks": 96,
            "midi": 35,
            "name": "B1",
            "ticks": 106944,
            "time": 101.272626,
            "velocity": 0.2125984251968504
          },
          {
            "duration": 0.09090899999999635,
            "durationTicks": 96,
            "midi": 42,
            "name": "F#2",
            "ticks": 107136,
            "time": 101.45444400000001,
            "velocity": 0.2125984251968504
          },
          {
            "duration": 0.09090899999999635,
            "durationTicks": 96,
            "midi": 47,
            "name": "B2",
            "ticks": 107328,
            "time": 101.636262,
            "velocity": 0.2125984251968504
          },
          {
            "duration": 0.09090899999999635,
            "durationTicks": 96,
            "midi": 42,
            "name": "F#2",
            "ticks": 107520,
            "time": 101.81808000000001,
            "velocity": 0.2125984251968504
          },
          {
            "duration": 0.09090899999999635,
            "durationTicks": 96,
            "midi": 49,
            "name": "C#3",
            "ticks": 107712,
            "time": 101.999898,
            "velocity": 0.2125984251968504
          },
          {
            "duration": 0.09090899999999635,
            "durationTicks": 96,
            "midi": 54,
            "name": "F#3",
            "ticks": 107904,
            "time": 102.18171600000001,
            "velocity": 0.2125984251968504
          },
          {
            "duration": 0.09090899999999635,
            "durationTicks": 96,
            "midi": 42,
            "name": "F#2",
            "ticks": 108096,
            "time": 102.363534,
            "velocity": 0.2125984251968504
          },
          {
            "duration": 0.09090899999999635,
            "durationTicks": 96,
            "midi": 49,
            "name": "C#3",
            "ticks": 108288,
            "time": 102.54535200000001,
            "velocity": 0.2125984251968504
          },
          {
            "duration": 0.09090899999999635,
            "durationTicks": 96,
            "midi": 54,
            "name": "F#3",
            "ticks": 108480,
            "time": 102.72717,
            "velocity": 0.2125984251968504
          },
          {
            "duration": 0.09090899999999635,
            "durationTicks": 96,
            "midi": 42,
            "name": "F#2",
            "ticks": 108672,
            "time": 102.90898800000001,
            "velocity": 0.2125984251968504
          },
          {
            "duration": 0.09090900000001056,
            "durationTicks": 96,
            "midi": 37,
            "name": "C#2",
            "ticks": 108864,
            "time": 103.090806,
            "velocity": 0.2125984251968504
          },
          {
            "duration": 0.09090899999999635,
            "durationTicks": 96,
            "midi": 44,
            "name": "G#2",
            "ticks": 109056,
            "time": 103.27262400000001,
            "velocity": 0.2125984251968504
          },
          {
            "duration": 0.09090900000001056,
            "durationTicks": 96,
            "midi": 49,
            "name": "C#3",
            "ticks": 109248,
            "time": 103.454442,
            "velocity": 0.2125984251968504
          },
          {
            "duration": 0.09090899999999635,
            "durationTicks": 96,
            "midi": 37,
            "name": "C#2",
            "ticks": 109440,
            "time": 103.63626000000001,
            "velocity": 0.2125984251968504
          },
          {
            "duration": 0.09090900000001056,
            "durationTicks": 96,
            "midi": 44,
            "name": "G#2",
            "ticks": 109632,
            "time": 103.818078,
            "velocity": 0.2125984251968504
          },
          {
            "duration": 0.09090899999999635,
            "durationTicks": 96,
            "midi": 49,
            "name": "C#3",
            "ticks": 109824,
            "time": 103.999896,
            "velocity": 0.2125984251968504
          },
          {
            "duration": 0.09090900000001056,
            "durationTicks": 96,
            "midi": 37,
            "name": "C#2",
            "ticks": 110016,
            "time": 104.181714,
            "velocity": 0.2125984251968504
          },
          {
            "duration": 0.09090899999999635,
            "durationTicks": 96,
            "midi": 44,
            "name": "G#2",
            "ticks": 110208,
            "time": 104.363532,
            "velocity": 0.2125984251968504
          },
          {
            "duration": 0.09090900000001056,
            "durationTicks": 96,
            "midi": 49,
            "name": "C#3",
            "ticks": 110400,
            "time": 104.54535,
            "velocity": 0.2125984251968504
          },
          {
            "duration": 0.09090899999999635,
            "durationTicks": 96,
            "midi": 39,
            "name": "D#2",
            "ticks": 110592,
            "time": 104.727168,
            "velocity": 0.2125984251968504
          },
          {
            "duration": 0.09090900000001056,
            "durationTicks": 96,
            "midi": 46,
            "name": "A#2",
            "ticks": 110784,
            "time": 104.908986,
            "velocity": 0.2125984251968504
          },
          {
            "duration": 0.09090899999999635,
            "durationTicks": 96,
            "midi": 51,
            "name": "D#3",
            "ticks": 110976,
            "time": 105.090804,
            "velocity": 0.2125984251968504
          },
          {
            "duration": 0.09090900000001056,
            "durationTicks": 96,
            "midi": 39,
            "name": "D#2",
            "ticks": 111168,
            "time": 105.272622,
            "velocity": 0.2125984251968504
          },
          {
            "duration": 0.09090899999999635,
            "durationTicks": 96,
            "midi": 46,
            "name": "A#2",
            "ticks": 111360,
            "time": 105.45444,
            "velocity": 0.2125984251968504
          },
          {
            "duration": 0.09090900000001056,
            "durationTicks": 96,
            "midi": 51,
            "name": "D#3",
            "ticks": 111552,
            "time": 105.636258,
            "velocity": 0.2125984251968504
          },
          {
            "duration": 0.09090899999999635,
            "durationTicks": 96,
            "midi": 42,
            "name": "F#2",
            "ticks": 111744,
            "time": 105.818076,
            "velocity": 0.2125984251968504
          },
          {
            "duration": 0.09090900000001056,
            "durationTicks": 96,
            "midi": 35,
            "name": "B1",
            "ticks": 111936,
            "time": 105.999894,
            "velocity": 0.2125984251968504
          },
          {
            "duration": 0.09090899999999635,
            "durationTicks": 96,
            "midi": 42,
            "name": "F#2",
            "ticks": 112128,
            "time": 106.181712,
            "velocity": 0.2125984251968504
          },
          {
            "duration": 0.09090900000001056,
            "durationTicks": 96,
            "midi": 47,
            "name": "B2",
            "ticks": 112320,
            "time": 106.36353,
            "velocity": 0.2125984251968504
          },
          {
            "duration": 0.09090899999999635,
            "durationTicks": 96,
            "midi": 35,
            "name": "B1",
            "ticks": 112512,
            "time": 106.545348,
            "velocity": 0.2125984251968504
          },
          {
            "duration": 0.09090899999999635,
            "durationTicks": 96,
            "midi": 42,
            "name": "F#2",
            "ticks": 112704,
            "time": 106.72716600000001,
            "velocity": 0.2125984251968504
          },
          {
            "duration": 0.09090899999999635,
            "durationTicks": 96,
            "midi": 47,
            "name": "B2",
            "ticks": 112896,
            "time": 106.908984,
            "velocity": 0.2125984251968504
          },
          {
            "duration": 0.09090899999999635,
            "durationTicks": 96,
            "midi": 42,
            "name": "F#2",
            "ticks": 113088,
            "time": 107.09080200000001,
            "velocity": 0.2125984251968504
          },
          {
            "duration": 0.09090899999999635,
            "durationTicks": 96,
            "midi": 35,
            "name": "B1",
            "ticks": 113280,
            "time": 107.27262,
            "velocity": 0.2125984251968504
          },
          {
            "duration": 0.09090899999999635,
            "durationTicks": 96,
            "midi": 42,
            "name": "F#2",
            "ticks": 113664,
            "time": 107.636256,
            "velocity": 0.2125984251968504
          },
          {
            "duration": 0.09090899999999635,
            "durationTicks": 96,
            "midi": 49,
            "name": "C#3",
            "ticks": 113856,
            "time": 107.81807400000001,
            "velocity": 0.2125984251968504
          },
          {
            "duration": 0.09090899999999635,
            "durationTicks": 96,
            "midi": 54,
            "name": "F#3",
            "ticks": 114048,
            "time": 107.999892,
            "velocity": 0.2125984251968504
          },
          {
            "duration": 0.09090899999999635,
            "durationTicks": 96,
            "midi": 42,
            "name": "F#2",
            "ticks": 114240,
            "time": 108.18171000000001,
            "velocity": 0.2125984251968504
          },
          {
            "duration": 0.09090899999999635,
            "durationTicks": 96,
            "midi": 49,
            "name": "C#3",
            "ticks": 114432,
            "time": 108.363528,
            "velocity": 0.2125984251968504
          },
          {
            "duration": 0.09090899999999635,
            "durationTicks": 96,
            "midi": 54,
            "name": "F#3",
            "ticks": 114624,
            "time": 108.54534600000001,
            "velocity": 0.2125984251968504
          },
          {
            "duration": 0.09090899999999635,
            "durationTicks": 96,
            "midi": 42,
            "name": "F#2",
            "ticks": 114816,
            "time": 108.727164,
            "velocity": 0.2125984251968504
          },
          {
            "duration": 0.09090899999999635,
            "durationTicks": 96,
            "midi": 49,
            "name": "C#3",
            "ticks": 115008,
            "time": 108.90898200000001,
            "velocity": 0.2125984251968504
          },
          {
            "duration": 0.09090899999999635,
            "durationTicks": 96,
            "midi": 37,
            "name": "C#2",
            "ticks": 115200,
            "time": 109.0908,
            "velocity": 0.2125984251968504
          },
          {
            "duration": 0.09090899999999635,
            "durationTicks": 96,
            "midi": 44,
            "name": "G#2",
            "ticks": 115392,
            "time": 109.27261800000001,
            "velocity": 0.2125984251968504
          },
          {
            "duration": 0.09090899999999635,
            "durationTicks": 96,
            "midi": 49,
            "name": "C#3",
            "ticks": 115584,
            "time": 109.454436,
            "velocity": 0.2125984251968504
          },
          {
            "duration": 0.09090899999999635,
            "durationTicks": 96,
            "midi": 37,
            "name": "C#2",
            "ticks": 115776,
            "time": 109.63625400000001,
            "velocity": 0.2125984251968504
          },
          {
            "duration": 0.09090900000001056,
            "durationTicks": 96,
            "midi": 44,
            "name": "G#2",
            "ticks": 115968,
            "time": 109.818072,
            "velocity": 0.2125984251968504
          },
          {
            "duration": 0.09090899999999635,
            "durationTicks": 96,
            "midi": 49,
            "name": "C#3",
            "ticks": 116160,
            "time": 109.99989000000001,
            "velocity": 0.2125984251968504
          },
          {
            "duration": 0.09090900000001056,
            "durationTicks": 96,
            "midi": 37,
            "name": "C#2",
            "ticks": 116352,
            "time": 110.181708,
            "velocity": 0.2125984251968504
          },
          {
            "duration": 0.09090899999999635,
            "durationTicks": 96,
            "midi": 44,
            "name": "G#2",
            "ticks": 116544,
            "time": 110.36352600000001,
            "velocity": 0.2125984251968504
          },
          {
            "duration": 0.09090900000001056,
            "durationTicks": 96,
            "midi": 39,
            "name": "D#2",
            "ticks": 116736,
            "time": 110.545344,
            "velocity": 0.2125984251968504
          },
          {
            "duration": 0.09090899999999635,
            "durationTicks": 96,
            "midi": 46,
            "name": "A#2",
            "ticks": 116928,
            "time": 110.727162,
            "velocity": 0.2125984251968504
          },
          {
            "duration": 0.09090900000001056,
            "durationTicks": 96,
            "midi": 51,
            "name": "D#3",
            "ticks": 117120,
            "time": 110.90898,
            "velocity": 0.2125984251968504
          },
          {
            "duration": 0.09090899999999635,
            "durationTicks": 96,
            "midi": 39,
            "name": "D#2",
            "ticks": 117312,
            "time": 111.090798,
            "velocity": 0.2125984251968504
          },
          {
            "duration": 0.09090900000001056,
            "durationTicks": 96,
            "midi": 46,
            "name": "A#2",
            "ticks": 117504,
            "time": 111.272616,
            "velocity": 0.2125984251968504
          },
          {
            "duration": 0.09090899999999635,
            "durationTicks": 96,
            "midi": 51,
            "name": "D#3",
            "ticks": 117696,
            "time": 111.454434,
            "velocity": 0.2125984251968504
          },
          {
            "duration": 0.09090900000001056,
            "durationTicks": 96,
            "midi": 39,
            "name": "D#2",
            "ticks": 117888,
            "time": 111.636252,
            "velocity": 0.2125984251968504
          },
          {
            "duration": 0.09090899999999635,
            "durationTicks": 96,
            "midi": 46,
            "name": "A#2",
            "ticks": 118080,
            "time": 111.81807,
            "velocity": 0.2125984251968504
          },
          {
            "duration": 0.09090900000001056,
            "durationTicks": 96,
            "midi": 35,
            "name": "B1",
            "ticks": 118272,
            "time": 111.999888,
            "velocity": 0.2125984251968504
          },
          {
            "duration": 0.09090899999999635,
            "durationTicks": 96,
            "midi": 42,
            "name": "F#2",
            "ticks": 118464,
            "time": 112.181706,
            "velocity": 0.2125984251968504
          },
          {
            "duration": 0.09090900000001056,
            "durationTicks": 96,
            "midi": 47,
            "name": "B2",
            "ticks": 118656,
            "time": 112.363524,
            "velocity": 0.2125984251968504
          },
          {
            "duration": 0.09090899999999635,
            "durationTicks": 96,
            "midi": 35,
            "name": "B1",
            "ticks": 118848,
            "time": 112.545342,
            "velocity": 0.2125984251968504
          },
          {
            "duration": 0.09090900000001056,
            "durationTicks": 96,
            "midi": 42,
            "name": "F#2",
            "ticks": 119040,
            "time": 112.72716,
            "velocity": 0.2125984251968504
          },
          {
            "duration": 0.09090899999999635,
            "durationTicks": 96,
            "midi": 47,
            "name": "B2",
            "ticks": 119232,
            "time": 112.908978,
            "velocity": 0.2125984251968504
          },
          {
            "duration": 0.09090899999999635,
            "durationTicks": 96,
            "midi": 35,
            "name": "B1",
            "ticks": 119424,
            "time": 113.09079600000001,
            "velocity": 0.2125984251968504
          },
          {
            "duration": 0.09090899999999635,
            "durationTicks": 96,
            "midi": 42,
            "name": "F#2",
            "ticks": 119616,
            "time": 113.272614,
            "velocity": 0.2125984251968504
          },
          {
            "duration": 0.09090899999999635,
            "durationTicks": 96,
            "midi": 42,
            "name": "F#2",
            "ticks": 119808,
            "time": 113.45443200000001,
            "velocity": 0.2125984251968504
          },
          {
            "duration": 0.09090899999999635,
            "durationTicks": 96,
            "midi": 49,
            "name": "C#3",
            "ticks": 120000,
            "time": 113.63625,
            "velocity": 0.2125984251968504
          },
          {
            "duration": 0.09090899999999635,
            "durationTicks": 96,
            "midi": 54,
            "name": "F#3",
            "ticks": 120192,
            "time": 113.81806800000001,
            "velocity": 0.2125984251968504
          },
          {
            "duration": 0.09090899999999635,
            "durationTicks": 96,
            "midi": 42,
            "name": "F#2",
            "ticks": 120384,
            "time": 113.999886,
            "velocity": 0.2125984251968504
          },
          {
            "duration": 0.09090899999999635,
            "durationTicks": 96,
            "midi": 49,
            "name": "C#3",
            "ticks": 120576,
            "time": 114.18170400000001,
            "velocity": 0.2125984251968504
          },
          {
            "duration": 0.09090899999999635,
            "durationTicks": 96,
            "midi": 54,
            "name": "F#3",
            "ticks": 120768,
            "time": 114.363522,
            "velocity": 0.2125984251968504
          },
          {
            "duration": 0.09090899999999635,
            "durationTicks": 96,
            "midi": 42,
            "name": "F#2",
            "ticks": 120960,
            "time": 114.54534000000001,
            "velocity": 0.2125984251968504
          },
          {
            "duration": 0.09090899999999635,
            "durationTicks": 96,
            "midi": 49,
            "name": "C#3",
            "ticks": 121152,
            "time": 114.727158,
            "velocity": 0.2125984251968504
          },
          {
            "duration": 0.09090899999999635,
            "durationTicks": 96,
            "midi": 37,
            "name": "C#2",
            "ticks": 121344,
            "time": 114.90897600000001,
            "velocity": 0.2125984251968504
          },
          {
            "duration": 0.09090899999999635,
            "durationTicks": 96,
            "midi": 44,
            "name": "G#2",
            "ticks": 121536,
            "time": 115.090794,
            "velocity": 0.2125984251968504
          },
          {
            "duration": 0.09090899999999635,
            "durationTicks": 96,
            "midi": 49,
            "name": "C#3",
            "ticks": 121728,
            "time": 115.27261200000001,
            "velocity": 0.2125984251968504
          },
          {
            "duration": 0.09090899999999635,
            "durationTicks": 96,
            "midi": 37,
            "name": "C#2",
            "ticks": 121920,
            "time": 115.45443,
            "velocity": 0.2125984251968504
          },
          {
            "duration": 0.09090899999999635,
            "durationTicks": 96,
            "midi": 44,
            "name": "G#2",
            "ticks": 122112,
            "time": 115.63624800000001,
            "velocity": 0.2125984251968504
          },
          {
            "duration": 0.09090899999999635,
            "durationTicks": 96,
            "midi": 49,
            "name": "C#3",
            "ticks": 122304,
            "time": 115.818066,
            "velocity": 0.2125984251968504
          },
          {
            "duration": 0.09090899999999635,
            "durationTicks": 96,
            "midi": 37,
            "name": "C#2",
            "ticks": 122496,
            "time": 115.99988400000001,
            "velocity": 0.2125984251968504
          },
          {
            "duration": 0.09090899999999635,
            "durationTicks": 96,
            "midi": 44,
            "name": "G#2",
            "ticks": 122688,
            "time": 116.181702,
            "velocity": 0.2125984251968504
          },
          {
            "duration": 0.09090899999999635,
            "durationTicks": 96,
            "midi": 39,
            "name": "D#2",
            "ticks": 122880,
            "time": 116.36352000000001,
            "velocity": 0.2125984251968504
          },
          {
            "duration": 0.09090900000001056,
            "durationTicks": 96,
            "midi": 46,
            "name": "A#2",
            "ticks": 123072,
            "time": 116.545338,
            "velocity": 0.2125984251968504
          },
          {
            "duration": 0.09090899999999635,
            "durationTicks": 96,
            "midi": 51,
            "name": "D#3",
            "ticks": 123264,
            "time": 116.72715600000001,
            "velocity": 0.2125984251968504
          },
          {
            "duration": 0.09090900000001056,
            "durationTicks": 96,
            "midi": 39,
            "name": "D#2",
            "ticks": 123456,
            "time": 116.908974,
            "velocity": 0.2125984251968504
          },
          {
            "duration": 0.09090899999999635,
            "durationTicks": 96,
            "midi": 46,
            "name": "A#2",
            "ticks": 123648,
            "time": 117.09079200000001,
            "velocity": 0.2125984251968504
          },
          {
            "duration": 0.09090900000001056,
            "durationTicks": 96,
            "midi": 51,
            "name": "D#3",
            "ticks": 123840,
            "time": 117.27261,
            "velocity": 0.2125984251968504
          },
          {
            "duration": 0.09090899999999635,
            "durationTicks": 96,
            "midi": 39,
            "name": "D#2",
            "ticks": 124032,
            "time": 117.45442800000001,
            "velocity": 0.2125984251968504
          },
          {
            "duration": 0.09090900000001056,
            "durationTicks": 96,
            "midi": 46,
            "name": "A#2",
            "ticks": 124224,
            "time": 117.636246,
            "velocity": 0.2125984251968504
          },
          {
            "duration": 0.09090899999999635,
            "durationTicks": 96,
            "midi": 35,
            "name": "B1",
            "ticks": 124416,
            "time": 117.818064,
            "velocity": 0.2125984251968504
          },
          {
            "duration": 0.09090900000001056,
            "durationTicks": 96,
            "midi": 42,
            "name": "F#2",
            "ticks": 124608,
            "time": 117.999882,
            "velocity": 0.2125984251968504
          },
          {
            "duration": 0.09090899999999635,
            "durationTicks": 96,
            "midi": 47,
            "name": "B2",
            "ticks": 124800,
            "time": 118.1817,
            "velocity": 0.2125984251968504
          },
          {
            "duration": 0.09090900000001056,
            "durationTicks": 96,
            "midi": 35,
            "name": "B1",
            "ticks": 124992,
            "time": 118.363518,
            "velocity": 0.2125984251968504
          },
          {
            "duration": 0.09090899999999635,
            "durationTicks": 96,
            "midi": 47,
            "name": "B2",
            "ticks": 125184,
            "time": 118.545336,
            "velocity": 0.2125984251968504
          },
          {
            "duration": 0.09090899999999635,
            "durationTicks": 96,
            "midi": 35,
            "name": "B1",
            "ticks": 125568,
            "time": 118.908972,
            "velocity": 0.2125984251968504
          },
          {
            "duration": 0.09090900000001056,
            "durationTicks": 96,
            "midi": 49,
            "name": "C#3",
            "ticks": 138240,
            "time": 130.90896,
            "velocity": 0.2125984251968504
          },
          {
            "duration": 0.09090900000001056,
            "durationTicks": 96,
            "midi": 49,
            "name": "C#3",
            "ticks": 138432,
            "time": 131.090778,
            "velocity": 0.2125984251968504
          },
          {
            "duration": 0.09090900000001056,
            "durationTicks": 96,
            "midi": 49,
            "name": "C#3",
            "ticks": 138624,
            "time": 131.272596,
            "velocity": 0.2125984251968504
          },
          {
            "duration": 0.09090899999998214,
            "durationTicks": 96,
            "midi": 49,
            "name": "C#3",
            "ticks": 138816,
            "time": 131.454414,
            "velocity": 0.2125984251968504
          },
          {
            "duration": 0.09090900000001056,
            "durationTicks": 96,
            "midi": 49,
            "name": "C#3",
            "ticks": 139008,
            "time": 131.636232,
            "velocity": 0.2125984251968504
          },
          {
            "duration": 0.09090900000001056,
            "durationTicks": 96,
            "midi": 49,
            "name": "C#3",
            "ticks": 139200,
            "time": 131.81805,
            "velocity": 0.2125984251968504
          },
          {
            "duration": 0.09090900000001056,
            "durationTicks": 96,
            "midi": 49,
            "name": "C#3",
            "ticks": 139392,
            "time": 131.999868,
            "velocity": 0.2125984251968504
          },
          {
            "duration": 0.09090899999998214,
            "durationTicks": 96,
            "midi": 49,
            "name": "C#3",
            "ticks": 139584,
            "time": 132.181686,
            "velocity": 0.2125984251968504
          },
          {
            "duration": 0.09090900000001056,
            "durationTicks": 96,
            "midi": 37,
            "name": "C#2",
            "ticks": 139776,
            "time": 132.363504,
            "velocity": 0.2125984251968504
          },
          {
            "duration": 0.09090900000001056,
            "durationTicks": 96,
            "midi": 49,
            "name": "C#3",
            "ticks": 139776,
            "time": 132.363504,
            "velocity": 0.2125984251968504
          },
          {
            "duration": 0.09090900000001056,
            "durationTicks": 96,
            "midi": 49,
            "name": "C#3",
            "ticks": 139968,
            "time": 132.545322,
            "velocity": 0.2125984251968504
          },
          {
            "duration": 0.09090900000001056,
            "durationTicks": 96,
            "midi": 37,
            "name": "C#2",
            "ticks": 139968,
            "time": 132.545322,
            "velocity": 0.2125984251968504
          },
          {
            "duration": 0.09090900000001056,
            "durationTicks": 96,
            "midi": 37,
            "name": "C#2",
            "ticks": 140160,
            "time": 132.72714,
            "velocity": 0.2125984251968504
          },
          {
            "duration": 0.09090900000001056,
            "durationTicks": 96,
            "midi": 49,
            "name": "C#3",
            "ticks": 140160,
            "time": 132.72714,
            "velocity": 0.2125984251968504
          },
          {
            "duration": 0.09090899999998214,
            "durationTicks": 96,
            "midi": 37,
            "name": "C#2",
            "ticks": 140352,
            "time": 132.908958,
            "velocity": 0.2125984251968504
          },
          {
            "duration": 0.09090899999998214,
            "durationTicks": 96,
            "midi": 49,
            "name": "C#3",
            "ticks": 140352,
            "time": 132.908958,
            "velocity": 0.2125984251968504
          },
          {
            "duration": 0.09090900000001056,
            "durationTicks": 96,
            "midi": 49,
            "name": "C#3",
            "ticks": 140544,
            "time": 133.090776,
            "velocity": 0.2125984251968504
          },
          {
            "duration": 0.09090900000001056,
            "durationTicks": 96,
            "midi": 37,
            "name": "C#2",
            "ticks": 140544,
            "time": 133.090776,
            "velocity": 0.2125984251968504
          },
          {
            "duration": 0.09090899999998214,
            "durationTicks": 96,
            "midi": 37,
            "name": "C#2",
            "ticks": 140928,
            "time": 133.45441200000002,
            "velocity": 0.2125984251968504
          },
          {
            "duration": 0.09090899999998214,
            "durationTicks": 96,
            "midi": 49,
            "name": "C#3",
            "ticks": 140928,
            "time": 133.45441200000002,
            "velocity": 0.2125984251968504
          },
          {
            "duration": 0.09090900000001056,
            "durationTicks": 96,
            "midi": 42,
            "name": "F#2",
            "ticks": 141312,
            "time": 133.818048,
            "velocity": 0.2125984251968504
          },
          {
            "duration": 0.09090900000001056,
            "durationTicks": 96,
            "midi": 49,
            "name": "C#3",
            "ticks": 141504,
            "time": 133.999866,
            "velocity": 0.2125984251968504
          },
          {
            "duration": 0.09090899999998214,
            "durationTicks": 96,
            "midi": 54,
            "name": "F#3",
            "ticks": 141696,
            "time": 134.18168400000002,
            "velocity": 0.2125984251968504
          },
          {
            "duration": 0.09090899999998214,
            "durationTicks": 96,
            "midi": 42,
            "name": "F#2",
            "ticks": 141888,
            "time": 134.363502,
            "velocity": 0.2125984251968504
          },
          {
            "duration": 0.09090900000001056,
            "durationTicks": 96,
            "midi": 49,
            "name": "C#3",
            "ticks": 142080,
            "time": 134.54532,
            "velocity": 0.2125984251968504
          },
          {
            "duration": 0.09090900000001056,
            "durationTicks": 96,
            "midi": 54,
            "name": "F#3",
            "ticks": 142272,
            "time": 134.727138,
            "velocity": 0.2125984251968504
          },
          {
            "duration": 0.09090899999998214,
            "durationTicks": 96,
            "midi": 42,
            "name": "F#2",
            "ticks": 142464,
            "time": 134.90895600000002,
            "velocity": 0.2125984251968504
          },
          {
            "duration": 0.09090899999998214,
            "durationTicks": 96,
            "midi": 49,
            "name": "C#3",
            "ticks": 142656,
            "time": 135.090774,
            "velocity": 0.2125984251968504
          },
          {
            "duration": 0.09090900000001056,
            "durationTicks": 96,
            "midi": 37,
            "name": "C#2",
            "ticks": 142848,
            "time": 135.272592,
            "velocity": 0.2125984251968504
          },
          {
            "duration": 0.09090900000001056,
            "durationTicks": 96,
            "midi": 44,
            "name": "G#2",
            "ticks": 143040,
            "time": 135.45441,
            "velocity": 0.2125984251968504
          },
          {
            "duration": 0.09090899999998214,
            "durationTicks": 96,
            "midi": 49,
            "name": "C#3",
            "ticks": 143232,
            "time": 135.63622800000002,
            "velocity": 0.2125984251968504
          },
          {
            "duration": 0.09090899999998214,
            "durationTicks": 96,
            "midi": 37,
            "name": "C#2",
            "ticks": 143424,
            "time": 135.818046,
            "velocity": 0.2125984251968504
          },
          {
            "duration": 0.09090900000001056,
            "durationTicks": 96,
            "midi": 44,
            "name": "G#2",
            "ticks": 143616,
            "time": 135.999864,
            "velocity": 0.2125984251968504
          },
          {
            "duration": 0.09090900000001056,
            "durationTicks": 96,
            "midi": 49,
            "name": "C#3",
            "ticks": 143808,
            "time": 136.181682,
            "velocity": 0.2125984251968504
          },
          {
            "duration": 0.09090899999998214,
            "durationTicks": 96,
            "midi": 37,
            "name": "C#2",
            "ticks": 144000,
            "time": 136.36350000000002,
            "velocity": 0.2125984251968504
          },
          {
            "duration": 0.09090900000001056,
            "durationTicks": 96,
            "midi": 44,
            "name": "G#2",
            "ticks": 144192,
            "time": 136.545318,
            "velocity": 0.2125984251968504
          },
          {
            "duration": 0.09090900000001056,
            "durationTicks": 96,
            "midi": 39,
            "name": "D#2",
            "ticks": 144384,
            "time": 136.727136,
            "velocity": 0.2125984251968504
          },
          {
            "duration": 0.09090900000001056,
            "durationTicks": 96,
            "midi": 46,
            "name": "A#2",
            "ticks": 144576,
            "time": 136.908954,
            "velocity": 0.2125984251968504
          },
          {
            "duration": 0.09090899999998214,
            "durationTicks": 96,
            "midi": 51,
            "name": "D#3",
            "ticks": 144768,
            "time": 137.09077200000002,
            "velocity": 0.2125984251968504
          },
          {
            "duration": 0.09090900000001056,
            "durationTicks": 96,
            "midi": 39,
            "name": "D#2",
            "ticks": 144960,
            "time": 137.27259,
            "velocity": 0.2125984251968504
          },
          {
            "duration": 0.09090900000001056,
            "durationTicks": 96,
            "midi": 46,
            "name": "A#2",
            "ticks": 145152,
            "time": 137.454408,
            "velocity": 0.2125984251968504
          },
          {
            "duration": 0.09090900000001056,
            "durationTicks": 96,
            "midi": 51,
            "name": "D#3",
            "ticks": 145344,
            "time": 137.636226,
            "velocity": 0.2125984251968504
          },
          {
            "duration": 0.09090899999998214,
            "durationTicks": 96,
            "midi": 39,
            "name": "D#2",
            "ticks": 145536,
            "time": 137.81804400000001,
            "velocity": 0.2125984251968504
          },
          {
            "duration": 0.09090900000001056,
            "durationTicks": 96,
            "midi": 46,
            "name": "A#2",
            "ticks": 145728,
            "time": 137.999862,
            "velocity": 0.2125984251968504
          },
          {
            "duration": 0.09090900000001056,
            "durationTicks": 96,
            "midi": 35,
            "name": "B1",
            "ticks": 145920,
            "time": 138.18168,
            "velocity": 0.2125984251968504
          },
          {
            "duration": 0.09090900000001056,
            "durationTicks": 96,
            "midi": 42,
            "name": "F#2",
            "ticks": 146112,
            "time": 138.363498,
            "velocity": 0.2125984251968504
          },
          {
            "duration": 0.09090899999998214,
            "durationTicks": 96,
            "midi": 47,
            "name": "B2",
            "ticks": 146304,
            "time": 138.545316,
            "velocity": 0.2125984251968504
          },
          {
            "duration": 0.09090900000001056,
            "durationTicks": 96,
            "midi": 35,
            "name": "B1",
            "ticks": 146496,
            "time": 138.727134,
            "velocity": 0.2125984251968504
          },
          {
            "duration": 0.09090900000001056,
            "durationTicks": 96,
            "midi": 42,
            "name": "F#2",
            "ticks": 146688,
            "time": 138.908952,
            "velocity": 0.2125984251968504
          },
          {
            "duration": 0.09090900000001056,
            "durationTicks": 96,
            "midi": 47,
            "name": "B2",
            "ticks": 146880,
            "time": 139.09077,
            "velocity": 0.2125984251968504
          },
          {
            "duration": 0.09090899999998214,
            "durationTicks": 96,
            "midi": 35,
            "name": "B1",
            "ticks": 147072,
            "time": 139.272588,
            "velocity": 0.2125984251968504
          },
          {
            "duration": 0.09090900000001056,
            "durationTicks": 96,
            "midi": 42,
            "name": "F#2",
            "ticks": 147264,
            "time": 139.454406,
            "velocity": 0.2125984251968504
          },
          {
            "duration": 0.09090900000001056,
            "durationTicks": 96,
            "midi": 42,
            "name": "F#2",
            "ticks": 147456,
            "time": 139.636224,
            "velocity": 0.2125984251968504
          },
          {
            "duration": 0.09090899999998214,
            "durationTicks": 96,
            "midi": 49,
            "name": "C#3",
            "ticks": 147648,
            "time": 139.81804200000002,
            "velocity": 0.2125984251968504
          },
          {
            "duration": 0.09090899999998214,
            "durationTicks": 96,
            "midi": 54,
            "name": "F#3",
            "ticks": 147840,
            "time": 139.99986,
            "velocity": 0.2125984251968504
          },
          {
            "duration": 0.09090900000001056,
            "durationTicks": 96,
            "midi": 42,
            "name": "F#2",
            "ticks": 148032,
            "time": 140.181678,
            "velocity": 0.2125984251968504
          },
          {
            "duration": 0.09090900000001056,
            "durationTicks": 96,
            "midi": 49,
            "name": "C#3",
            "ticks": 148224,
            "time": 140.363496,
            "velocity": 0.2125984251968504
          },
          {
            "duration": 0.09090899999998214,
            "durationTicks": 96,
            "midi": 54,
            "name": "F#3",
            "ticks": 148416,
            "time": 140.54531400000002,
            "velocity": 0.2125984251968504
          },
          {
            "duration": 0.09090899999998214,
            "durationTicks": 96,
            "midi": 42,
            "name": "F#2",
            "ticks": 148608,
            "time": 140.727132,
            "velocity": 0.2125984251968504
          },
          {
            "duration": 0.09090900000001056,
            "durationTicks": 96,
            "midi": 49,
            "name": "C#3",
            "ticks": 148800,
            "time": 140.90895,
            "velocity": 0.2125984251968504
          },
          {
            "duration": 0.09090900000001056,
            "durationTicks": 96,
            "midi": 37,
            "name": "C#2",
            "ticks": 148992,
            "time": 141.090768,
            "velocity": 0.2125984251968504
          },
          {
            "duration": 0.09090899999998214,
            "durationTicks": 96,
            "midi": 44,
            "name": "G#2",
            "ticks": 149184,
            "time": 141.27258600000002,
            "velocity": 0.2125984251968504
          },
          {
            "duration": 0.09090899999998214,
            "durationTicks": 96,
            "midi": 49,
            "name": "C#3",
            "ticks": 149376,
            "time": 141.454404,
            "velocity": 0.2125984251968504
          },
          {
            "duration": 0.09090900000001056,
            "durationTicks": 96,
            "midi": 37,
            "name": "C#2",
            "ticks": 149568,
            "time": 141.636222,
            "velocity": 0.2125984251968504
          },
          {
            "duration": 0.09090900000001056,
            "durationTicks": 96,
            "midi": 44,
            "name": "G#2",
            "ticks": 149760,
            "time": 141.81804,
            "velocity": 0.2125984251968504
          },
          {
            "duration": 0.09090899999998214,
            "durationTicks": 96,
            "midi": 49,
            "name": "C#3",
            "ticks": 149952,
            "time": 141.99985800000002,
            "velocity": 0.2125984251968504
          },
          {
            "duration": 0.09090899999998214,
            "durationTicks": 96,
            "midi": 37,
            "name": "C#2",
            "ticks": 150144,
            "time": 142.181676,
            "velocity": 0.2125984251968504
          },
          {
            "duration": 0.09090900000001056,
            "durationTicks": 96,
            "midi": 44,
            "name": "G#2",
            "ticks": 150336,
            "time": 142.363494,
            "velocity": 0.2125984251968504
          },
          {
            "duration": 0.09090900000001056,
            "durationTicks": 96,
            "midi": 39,
            "name": "D#2",
            "ticks": 150528,
            "time": 142.545312,
            "velocity": 0.2125984251968504
          },
          {
            "duration": 0.09090899999998214,
            "durationTicks": 96,
            "midi": 46,
            "name": "A#2",
            "ticks": 150720,
            "time": 142.72713000000002,
            "velocity": 0.2125984251968504
          },
          {
            "duration": 0.09090900000001056,
            "durationTicks": 96,
            "midi": 51,
            "name": "D#3",
            "ticks": 150912,
            "time": 142.908948,
            "velocity": 0.2125984251968504
          },
          {
            "duration": 0.09090900000001056,
            "durationTicks": 96,
            "midi": 39,
            "name": "D#2",
            "ticks": 151104,
            "time": 143.090766,
            "velocity": 0.2125984251968504
          },
          {
            "duration": 0.09090900000001056,
            "durationTicks": 96,
            "midi": 46,
            "name": "A#2",
            "ticks": 151296,
            "time": 143.272584,
            "velocity": 0.2125984251968504
          },
          {
            "duration": 0.09090899999998214,
            "durationTicks": 96,
            "midi": 51,
            "name": "D#3",
            "ticks": 151488,
            "time": 143.45440200000002,
            "velocity": 0.2125984251968504
          },
          {
            "duration": 0.09090900000001056,
            "durationTicks": 96,
            "midi": 39,
            "name": "D#2",
            "ticks": 151680,
            "time": 143.63622,
            "velocity": 0.2125984251968504
          },
          {
            "duration": 0.09090900000001056,
            "durationTicks": 96,
            "midi": 46,
            "name": "A#2",
            "ticks": 151872,
            "time": 143.818038,
            "velocity": 0.2125984251968504
          },
          {
            "duration": 0.09090900000001056,
            "durationTicks": 96,
            "midi": 35,
            "name": "B1",
            "ticks": 152064,
            "time": 143.999856,
            "velocity": 0.2125984251968504
          },
          {
            "duration": 0.09090900000001056,
            "durationTicks": 96,
            "midi": 35,
            "name": "B1",
            "ticks": 152064,
            "time": 143.999856,
            "velocity": 0.2125984251968504
          },
          {
            "duration": 0.09090899999998214,
            "durationTicks": 96,
            "midi": 47,
            "name": "B2",
            "ticks": 152256,
            "time": 144.18167400000002,
            "velocity": 0.2125984251968504
          },
          {
            "duration": 0.09090899999998214,
            "durationTicks": 96,
            "midi": 47,
            "name": "B2",
            "ticks": 152256,
            "time": 144.18167400000002,
            "velocity": 0.2125984251968504
          },
          {
            "duration": 0.09090900000001056,
            "durationTicks": 96,
            "midi": 35,
            "name": "B1",
            "ticks": 152448,
            "time": 144.363492,
            "velocity": 0.2125984251968504
          },
          {
            "duration": 0.09090900000001056,
            "durationTicks": 96,
            "midi": 35,
            "name": "B1",
            "ticks": 152448,
            "time": 144.363492,
            "velocity": 0.2125984251968504
          },
          {
            "duration": 0.09090900000001056,
            "durationTicks": 96,
            "midi": 47,
            "name": "B2",
            "ticks": 152640,
            "time": 144.54531,
            "velocity": 0.2125984251968504
          },
          {
            "duration": 0.09090900000001056,
            "durationTicks": 96,
            "midi": 47,
            "name": "B2",
            "ticks": 152640,
            "time": 144.54531,
            "velocity": 0.2125984251968504
          },
          {
            "duration": 0.09090900000001056,
            "durationTicks": 96,
            "midi": 35,
            "name": "B1",
            "ticks": 152832,
            "time": 144.727128,
            "velocity": 0.2125984251968504
          },
          {
            "duration": 0.09090900000001056,
            "durationTicks": 96,
            "midi": 35,
            "name": "B1",
            "ticks": 152832,
            "time": 144.727128,
            "velocity": 0.2125984251968504
          },
          {
            "duration": 0.09090899999998214,
            "durationTicks": 96,
            "midi": 47,
            "name": "B2",
            "ticks": 153024,
            "time": 144.90894600000001,
            "velocity": 0.2125984251968504
          },
          {
            "duration": 0.09090899999998214,
            "durationTicks": 96,
            "midi": 47,
            "name": "B2",
            "ticks": 153024,
            "time": 144.90894600000001,
            "velocity": 0.2125984251968504
          },
          {
            "duration": 0.09090900000001056,
            "durationTicks": 96,
            "midi": 35,
            "name": "B1",
            "ticks": 153216,
            "time": 145.090764,
            "velocity": 0.2125984251968504
          },
          {
            "duration": 0.09090900000001056,
            "durationTicks": 96,
            "midi": 35,
            "name": "B1",
            "ticks": 153216,
            "time": 145.090764,
            "velocity": 0.2125984251968504
          },
          {
            "duration": 0.09090900000001056,
            "durationTicks": 96,
            "midi": 47,
            "name": "B2",
            "ticks": 153408,
            "time": 145.272582,
            "velocity": 0.2125984251968504
          },
          {
            "duration": 0.09090900000001056,
            "durationTicks": 96,
            "midi": 47,
            "name": "B2",
            "ticks": 153408,
            "time": 145.272582,
            "velocity": 0.2125984251968504
          },
          {
            "duration": 0.09090900000001056,
            "durationTicks": 96,
            "midi": 42,
            "name": "F#2",
            "ticks": 153600,
            "time": 145.4544,
            "velocity": 0.2125984251968504
          },
          {
            "duration": 0.09090899999998214,
            "durationTicks": 96,
            "midi": 49,
            "name": "C#3",
            "ticks": 153792,
            "time": 145.636218,
            "velocity": 0.2125984251968504
          },
          {
            "duration": 0.09090900000001056,
            "durationTicks": 96,
            "midi": 54,
            "name": "F#3",
            "ticks": 153984,
            "time": 145.818036,
            "velocity": 0.2125984251968504
          },
          {
            "duration": 0.09090900000001056,
            "durationTicks": 96,
            "midi": 42,
            "name": "F#2",
            "ticks": 154176,
            "time": 145.999854,
            "velocity": 0.2125984251968504
          },
          {
            "duration": 0.09090900000001056,
            "durationTicks": 96,
            "midi": 49,
            "name": "C#3",
            "ticks": 154368,
            "time": 146.181672,
            "velocity": 0.2125984251968504
          },
          {
            "duration": 0.09090899999998214,
            "durationTicks": 96,
            "midi": 54,
            "name": "F#3",
            "ticks": 154560,
            "time": 146.36349,
            "velocity": 0.2125984251968504
          },
          {
            "duration": 0.09090900000001056,
            "durationTicks": 96,
            "midi": 42,
            "name": "F#2",
            "ticks": 154752,
            "time": 146.545308,
            "velocity": 0.2125984251968504
          },
          {
            "duration": 0.09090900000001056,
            "durationTicks": 96,
            "midi": 37,
            "name": "C#2",
            "ticks": 154944,
            "time": 146.727126,
            "velocity": 0.2125984251968504
          },
          {
            "duration": 0.09090900000001056,
            "durationTicks": 96,
            "midi": 37,
            "name": "C#2",
            "ticks": 154944,
            "time": 146.727126,
            "velocity": 0.2125984251968504
          },
          {
            "duration": 0.09090899999998214,
            "durationTicks": 96,
            "midi": 44,
            "name": "G#2",
            "ticks": 155136,
            "time": 146.90894400000002,
            "velocity": 0.2125984251968504
          },
          {
            "duration": 0.09090899999998214,
            "durationTicks": 96,
            "midi": 49,
            "name": "C#3",
            "ticks": 155328,
            "time": 147.090762,
            "velocity": 0.2125984251968504
          },
          {
            "duration": 0.09090900000001056,
            "durationTicks": 96,
            "midi": 37,
            "name": "C#2",
            "ticks": 155520,
            "time": 147.27258,
            "velocity": 0.2125984251968504
          },
          {
            "duration": 0.09090900000001056,
            "durationTicks": 96,
            "midi": 44,
            "name": "G#2",
            "ticks": 155712,
            "time": 147.454398,
            "velocity": 0.2125984251968504
          },
          {
            "duration": 0.09090899999998214,
            "durationTicks": 96,
            "midi": 49,
            "name": "C#3",
            "ticks": 155904,
            "time": 147.63621600000002,
            "velocity": 0.2125984251968504
          },
          {
            "duration": 0.09090899999998214,
            "durationTicks": 96,
            "midi": 37,
            "name": "C#2",
            "ticks": 156096,
            "time": 147.818034,
            "velocity": 0.2125984251968504
          },
          {
            "duration": 0.09090900000001056,
            "durationTicks": 96,
            "midi": 44,
            "name": "G#2",
            "ticks": 156288,
            "time": 147.999852,
            "velocity": 0.2125984251968504
          },
          {
            "duration": 0.09090900000001056,
            "durationTicks": 96,
            "midi": 49,
            "name": "C#3",
            "ticks": 156480,
            "time": 148.18167,
            "velocity": 0.2125984251968504
          },
          {
            "duration": 0.09090899999998214,
            "durationTicks": 96,
            "midi": 39,
            "name": "D#2",
            "ticks": 156672,
            "time": 148.36348800000002,
            "velocity": 0.2125984251968504
          },
          {
            "duration": 0.09090899999998214,
            "durationTicks": 96,
            "midi": 46,
            "name": "A#2",
            "ticks": 156864,
            "time": 148.545306,
            "velocity": 0.2125984251968504
          },
          {
            "duration": 0.09090900000001056,
            "durationTicks": 96,
            "midi": 51,
            "name": "D#3",
            "ticks": 157056,
            "time": 148.727124,
            "velocity": 0.2125984251968504
          },
          {
            "duration": 0.09090900000001056,
            "durationTicks": 96,
            "midi": 39,
            "name": "D#2",
            "ticks": 157248,
            "time": 148.908942,
            "velocity": 0.2125984251968504
          },
          {
            "duration": 0.09090899999998214,
            "durationTicks": 96,
            "midi": 46,
            "name": "A#2",
            "ticks": 157440,
            "time": 149.09076000000002,
            "velocity": 0.2125984251968504
          },
          {
            "duration": 0.09090899999998214,
            "durationTicks": 96,
            "midi": 51,
            "name": "D#3",
            "ticks": 157632,
            "time": 149.272578,
            "velocity": 0.2125984251968504
          },
          {
            "duration": 0.09090900000001056,
            "durationTicks": 96,
            "midi": 39,
            "name": "D#2",
            "ticks": 157824,
            "time": 149.454396,
            "velocity": 0.2125984251968504
          },
          {
            "duration": 0.09090900000001056,
            "durationTicks": 96,
            "midi": 35,
            "name": "B1",
            "ticks": 158016,
            "time": 149.636214,
            "velocity": 0.2125984251968504
          },
          {
            "duration": 0.09090899999998214,
            "durationTicks": 96,
            "midi": 42,
            "name": "F#2",
            "ticks": 158208,
            "time": 149.81803200000002,
            "velocity": 0.2125984251968504
          },
          {
            "duration": 0.09090900000001056,
            "durationTicks": 96,
            "midi": 47,
            "name": "B2",
            "ticks": 158400,
            "time": 149.99985,
            "velocity": 0.2125984251968504
          },
          {
            "duration": 0.09090900000001056,
            "durationTicks": 96,
            "midi": 35,
            "name": "B1",
            "ticks": 158592,
            "time": 150.181668,
            "velocity": 0.2125984251968504
          },
          {
            "duration": 0.09090900000001056,
            "durationTicks": 96,
            "midi": 42,
            "name": "F#2",
            "ticks": 158784,
            "time": 150.363486,
            "velocity": 0.2125984251968504
          },
          {
            "duration": 0.09090899999998214,
            "durationTicks": 96,
            "midi": 47,
            "name": "B2",
            "ticks": 158976,
            "time": 150.54530400000002,
            "velocity": 0.2125984251968504
          },
          {
            "duration": 0.09090900000001056,
            "durationTicks": 96,
            "midi": 35,
            "name": "B1",
            "ticks": 159168,
            "time": 150.727122,
            "velocity": 0.2125984251968504
          },
          {
            "duration": 0.09090900000001056,
            "durationTicks": 96,
            "midi": 42,
            "name": "F#2",
            "ticks": 159360,
            "time": 150.90894,
            "velocity": 0.2125984251968504
          },
          {
            "duration": 0.09090900000001056,
            "durationTicks": 96,
            "midi": 47,
            "name": "B2",
            "ticks": 159552,
            "time": 151.090758,
            "velocity": 0.2125984251968504
          },
          {
            "duration": 0.09090899999998214,
            "durationTicks": 96,
            "midi": 42,
            "name": "F#2",
            "ticks": 159744,
            "time": 151.27257600000002,
            "velocity": 0.2125984251968504
          },
          {
            "duration": 0.09090900000001056,
            "durationTicks": 96,
            "midi": 49,
            "name": "C#3",
            "ticks": 159936,
            "time": 151.454394,
            "velocity": 0.2125984251968504
          },
          {
            "duration": 0.09090900000001056,
            "durationTicks": 96,
            "midi": 54,
            "name": "F#3",
            "ticks": 160128,
            "time": 151.636212,
            "velocity": 0.2125984251968504
          },
          {
            "duration": 0.09090900000001056,
            "durationTicks": 96,
            "midi": 42,
            "name": "F#2",
            "ticks": 160320,
            "time": 151.81803,
            "velocity": 0.2125984251968504
          },
          {
            "duration": 0.09090899999998214,
            "durationTicks": 96,
            "midi": 49,
            "name": "C#3",
            "ticks": 160512,
            "time": 151.99984800000001,
            "velocity": 0.2125984251968504
          },
          {
            "duration": 0.09090900000001056,
            "durationTicks": 96,
            "midi": 54,
            "name": "F#3",
            "ticks": 160704,
            "time": 152.181666,
            "velocity": 0.2125984251968504
          },
          {
            "duration": 0.09090900000001056,
            "durationTicks": 96,
            "midi": 42,
            "name": "F#2",
            "ticks": 160896,
            "time": 152.363484,
            "velocity": 0.2125984251968504
          },
          {
            "duration": 0.09090900000001056,
            "durationTicks": 96,
            "midi": 37,
            "name": "C#2",
            "ticks": 161088,
            "time": 152.545302,
            "velocity": 0.2125984251968504
          },
          {
            "duration": 0.09090899999998214,
            "durationTicks": 96,
            "midi": 44,
            "name": "G#2",
            "ticks": 161280,
            "time": 152.72712,
            "velocity": 0.2125984251968504
          },
          {
            "duration": 0.09090900000001056,
            "durationTicks": 96,
            "midi": 49,
            "name": "C#3",
            "ticks": 161472,
            "time": 152.908938,
            "velocity": 0.2125984251968504
          },
          {
            "duration": 0.09090900000001056,
            "durationTicks": 96,
            "midi": 37,
            "name": "C#2",
            "ticks": 161664,
            "time": 153.090756,
            "velocity": 0.2125984251968504
          },
          {
            "duration": 0.09090899999998214,
            "durationTicks": 96,
            "midi": 44,
            "name": "G#2",
            "ticks": 161856,
            "time": 153.27257400000002,
            "velocity": 0.2125984251968504
          },
          {
            "duration": 0.09090899999998214,
            "durationTicks": 96,
            "midi": 49,
            "name": "C#3",
            "ticks": 162048,
            "time": 153.454392,
            "velocity": 0.2125984251968504
          },
          {
            "duration": 0.09090900000001056,
            "durationTicks": 96,
            "midi": 37,
            "name": "C#2",
            "ticks": 162240,
            "time": 153.63621,
            "velocity": 0.2125984251968504
          },
          {
            "duration": 0.09090900000001056,
            "durationTicks": 96,
            "midi": 44,
            "name": "G#2",
            "ticks": 162432,
            "time": 153.818028,
            "velocity": 0.2125984251968504
          },
          {
            "duration": 0.09090899999998214,
            "durationTicks": 96,
            "midi": 49,
            "name": "C#3",
            "ticks": 162624,
            "time": 153.99984600000002,
            "velocity": 0.2125984251968504
          },
          {
            "duration": 0.09090899999998214,
            "durationTicks": 96,
            "midi": 39,
            "name": "D#2",
            "ticks": 162816,
            "time": 154.181664,
            "velocity": 0.2125984251968504
          },
          {
            "duration": 0.09090900000001056,
            "durationTicks": 96,
            "midi": 46,
            "name": "A#2",
            "ticks": 163008,
            "time": 154.363482,
            "velocity": 0.2125984251968504
          },
          {
            "duration": 0.09090900000001056,
            "durationTicks": 96,
            "midi": 51,
            "name": "D#3",
            "ticks": 163200,
            "time": 154.5453,
            "velocity": 0.2125984251968504
          },
          {
            "duration": 0.09090899999998214,
            "durationTicks": 96,
            "midi": 39,
            "name": "D#2",
            "ticks": 163392,
            "time": 154.72711800000002,
            "velocity": 0.2125984251968504
          },
          {
            "duration": 0.09090899999998214,
            "durationTicks": 96,
            "midi": 46,
            "name": "A#2",
            "ticks": 163584,
            "time": 154.908936,
            "velocity": 0.2125984251968504
          },
          {
            "duration": 0.09090900000001056,
            "durationTicks": 96,
            "midi": 51,
            "name": "D#3",
            "ticks": 163776,
            "time": 155.090754,
            "velocity": 0.2125984251968504
          },
          {
            "duration": 0.09090900000001056,
            "durationTicks": 96,
            "midi": 42,
            "name": "F#2",
            "ticks": 163968,
            "time": 155.272572,
            "velocity": 0.2125984251968504
          },
          {
            "duration": 0.09090899999998214,
            "durationTicks": 96,
            "midi": 35,
            "name": "B1",
            "ticks": 164160,
            "time": 155.45439000000002,
            "velocity": 0.2125984251968504
          },
          {
            "duration": 0.09090899999998214,
            "durationTicks": 96,
            "midi": 42,
            "name": "F#2",
            "ticks": 164352,
            "time": 155.636208,
            "velocity": 0.2125984251968504
          },
          {
            "duration": 0.09090900000001056,
            "durationTicks": 96,
            "midi": 47,
            "name": "B2",
            "ticks": 164544,
            "time": 155.818026,
            "velocity": 0.2125984251968504
          },
          {
            "duration": 0.09090900000001056,
            "durationTicks": 96,
            "midi": 35,
            "name": "B1",
            "ticks": 164736,
            "time": 155.999844,
            "velocity": 0.2125984251968504
          },
          {
            "duration": 0.09090899999998214,
            "durationTicks": 96,
            "midi": 42,
            "name": "F#2",
            "ticks": 164928,
            "time": 156.18166200000002,
            "velocity": 0.2125984251968504
          },
          {
            "duration": 0.09090900000001056,
            "durationTicks": 96,
            "midi": 47,
            "name": "B2",
            "ticks": 165120,
            "time": 156.36348,
            "velocity": 0.2125984251968504
          },
          {
            "duration": 0.09090900000001056,
            "durationTicks": 96,
            "midi": 42,
            "name": "F#2",
            "ticks": 165312,
            "time": 156.545298,
            "velocity": 0.2125984251968504
          },
          {
            "duration": 0.09090900000001056,
            "durationTicks": 96,
            "midi": 35,
            "name": "B1",
            "ticks": 165504,
            "time": 156.727116,
            "velocity": 0.2125984251968504
          },
          {
            "duration": 0.09090899999998214,
            "durationTicks": 96,
            "midi": 39,
            "name": "D#2",
            "ticks": 165696,
            "time": 156.90893400000002,
            "velocity": 0.2125984251968504
          },
          {
            "duration": 0.09090900000001056,
            "durationTicks": 96,
            "midi": 42,
            "name": "F#2",
            "ticks": 165888,
            "time": 157.090752,
            "velocity": 0.2125984251968504
          },
          {
            "duration": 0.09090900000001056,
            "durationTicks": 96,
            "midi": 49,
            "name": "C#3",
            "ticks": 166080,
            "time": 157.27257,
            "velocity": 0.2125984251968504
          },
          {
            "duration": 0.09090900000001056,
            "durationTicks": 96,
            "midi": 54,
            "name": "F#3",
            "ticks": 166272,
            "time": 157.454388,
            "velocity": 0.2125984251968504
          },
          {
            "duration": 0.09090899999998214,
            "durationTicks": 96,
            "midi": 42,
            "name": "F#2",
            "ticks": 166464,
            "time": 157.63620600000002,
            "velocity": 0.2125984251968504
          },
          {
            "duration": 0.09090900000001056,
            "durationTicks": 96,
            "midi": 49,
            "name": "C#3",
            "ticks": 166656,
            "time": 157.818024,
            "velocity": 0.2125984251968504
          },
          {
            "duration": 0.09090900000001056,
            "durationTicks": 96,
            "midi": 54,
            "name": "F#3",
            "ticks": 166848,
            "time": 157.999842,
            "velocity": 0.2125984251968504
          },
          {
            "duration": 0.09090900000001056,
            "durationTicks": 96,
            "midi": 42,
            "name": "F#2",
            "ticks": 167040,
            "time": 158.18166,
            "velocity": 0.2125984251968504
          },
          {
            "duration": 0.09090899999998214,
            "durationTicks": 96,
            "midi": 37,
            "name": "C#2",
            "ticks": 167232,
            "time": 158.36347800000001,
            "velocity": 0.2125984251968504
          },
          {
            "duration": 0.09090899999998214,
            "durationTicks": 96,
            "midi": 37,
            "name": "C#2",
            "ticks": 167232,
            "time": 158.36347800000001,
            "velocity": 0.2125984251968504
          },
          {
            "duration": 0.09090900000001056,
            "durationTicks": 96,
            "midi": 44,
            "name": "G#2",
            "ticks": 167424,
            "time": 158.545296,
            "velocity": 0.2125984251968504
          },
          {
            "duration": 0.09090900000001056,
            "durationTicks": 96,
            "midi": 49,
            "name": "C#3",
            "ticks": 167616,
            "time": 158.727114,
            "velocity": 0.2125984251968504
          },
          {
            "duration": 0.09090900000001056,
            "durationTicks": 96,
            "midi": 37,
            "name": "C#2",
            "ticks": 167808,
            "time": 158.908932,
            "velocity": 0.2125984251968504
          },
          {
            "duration": 0.09090899999998214,
            "durationTicks": 96,
            "midi": 44,
            "name": "G#2",
            "ticks": 168000,
            "time": 159.09075,
            "velocity": 0.2125984251968504
          },
          {
            "duration": 0.09090900000001056,
            "durationTicks": 96,
            "midi": 49,
            "name": "C#3",
            "ticks": 168192,
            "time": 159.272568,
            "velocity": 0.2125984251968504
          },
          {
            "duration": 0.09090900000001056,
            "durationTicks": 96,
            "midi": 37,
            "name": "C#2",
            "ticks": 168384,
            "time": 159.454386,
            "velocity": 0.2125984251968504
          },
          {
            "duration": 0.09090899999998214,
            "durationTicks": 96,
            "midi": 44,
            "name": "G#2",
            "ticks": 168576,
            "time": 159.63620400000002,
            "velocity": 0.2125984251968504
          },
          {
            "duration": 0.09090899999998214,
            "durationTicks": 96,
            "midi": 49,
            "name": "C#3",
            "ticks": 168768,
            "time": 159.818022,
            "velocity": 0.2125984251968504
          },
          {
            "duration": 0.09090900000001056,
            "durationTicks": 96,
            "midi": 39,
            "name": "D#2",
            "ticks": 168960,
            "time": 159.99984,
            "velocity": 0.2125984251968504
          },
          {
            "duration": 0.09090900000001056,
            "durationTicks": 96,
            "midi": 46,
            "name": "A#2",
            "ticks": 169152,
            "time": 160.181658,
            "velocity": 0.2125984251968504
          },
          {
            "duration": 0.09090899999998214,
            "durationTicks": 96,
            "midi": 51,
            "name": "D#3",
            "ticks": 169344,
            "time": 160.36347600000002,
            "velocity": 0.2125984251968504
          },
          {
            "duration": 0.09090899999998214,
            "durationTicks": 96,
            "midi": 39,
            "name": "D#2",
            "ticks": 169536,
            "time": 160.545294,
            "velocity": 0.2125984251968504
          },
          {
            "duration": 0.09090900000001056,
            "durationTicks": 96,
            "midi": 46,
            "name": "A#2",
            "ticks": 169728,
            "time": 160.727112,
            "velocity": 0.2125984251968504
          },
          {
            "duration": 0.09090900000001056,
            "durationTicks": 96,
            "midi": 51,
            "name": "D#3",
            "ticks": 169920,
            "time": 160.90893,
            "velocity": 0.2125984251968504
          },
          {
            "duration": 0.09090899999998214,
            "durationTicks": 96,
            "midi": 39,
            "name": "D#2",
            "ticks": 170112,
            "time": 161.09074800000002,
            "velocity": 0.2125984251968504
          },
          {
            "duration": 0.09090899999998214,
            "durationTicks": 96,
            "midi": 35,
            "name": "B1",
            "ticks": 170304,
            "time": 161.272566,
            "velocity": 0.2125984251968504
          },
          {
            "duration": 0.09090900000001056,
            "durationTicks": 96,
            "midi": 42,
            "name": "F#2",
            "ticks": 170496,
            "time": 161.454384,
            "velocity": 0.2125984251968504
          },
          {
            "duration": 0.09090900000001056,
            "durationTicks": 96,
            "midi": 47,
            "name": "B2",
            "ticks": 170688,
            "time": 161.636202,
            "velocity": 0.2125984251968504
          },
          {
            "duration": 0.09090899999998214,
            "durationTicks": 96,
            "midi": 35,
            "name": "B1",
            "ticks": 170880,
            "time": 161.81802000000002,
            "velocity": 0.2125984251968504
          },
          {
            "duration": 0.09090899999998214,
            "durationTicks": 96,
            "midi": 42,
            "name": "F#2",
            "ticks": 171072,
            "time": 161.999838,
            "velocity": 0.2125984251968504
          },
          {
            "duration": 0.09090900000001056,
            "durationTicks": 96,
            "midi": 47,
            "name": "B2",
            "ticks": 171264,
            "time": 162.181656,
            "velocity": 0.2125984251968504
          },
          {
            "duration": 0.09090900000001056,
            "durationTicks": 96,
            "midi": 35,
            "name": "B1",
            "ticks": 171456,
            "time": 162.363474,
            "velocity": 0.2125984251968504
          },
          {
            "duration": 0.09090899999998214,
            "durationTicks": 96,
            "midi": 42,
            "name": "F#2",
            "ticks": 171648,
            "time": 162.54529200000002,
            "velocity": 0.2125984251968504
          },
          {
            "duration": 0.09090899999998214,
            "durationTicks": 96,
            "midi": 47,
            "name": "B2",
            "ticks": 171840,
            "time": 162.72711,
            "velocity": 0.2125984251968504
          },
          {
            "duration": 0.09090900000001056,
            "durationTicks": 96,
            "midi": 42,
            "name": "F#2",
            "ticks": 172032,
            "time": 162.908928,
            "velocity": 0.2125984251968504
          },
          {
            "duration": 0.09090900000001056,
            "durationTicks": 96,
            "midi": 49,
            "name": "C#3",
            "ticks": 172224,
            "time": 163.090746,
            "velocity": 0.2125984251968504
          },
          {
            "duration": 0.09090899999998214,
            "durationTicks": 96,
            "midi": 54,
            "name": "F#3",
            "ticks": 172416,
            "time": 163.27256400000002,
            "velocity": 0.2125984251968504
          },
          {
            "duration": 0.09090900000001056,
            "durationTicks": 96,
            "midi": 42,
            "name": "F#2",
            "ticks": 172608,
            "time": 163.454382,
            "velocity": 0.2125984251968504
          },
          {
            "duration": 0.09090900000001056,
            "durationTicks": 96,
            "midi": 49,
            "name": "C#3",
            "ticks": 172800,
            "time": 163.6362,
            "velocity": 0.2125984251968504
          },
          {
            "duration": 0.09090900000001056,
            "durationTicks": 96,
            "midi": 54,
            "name": "F#3",
            "ticks": 172992,
            "time": 163.818018,
            "velocity": 0.2125984251968504
          },
          {
            "duration": 0.09090899999998214,
            "durationTicks": 96,
            "midi": 42,
            "name": "F#2",
            "ticks": 173184,
            "time": 163.99983600000002,
            "velocity": 0.2125984251968504
          },
          {
            "duration": 0.09090900000001056,
            "durationTicks": 96,
            "midi": 37,
            "name": "C#2",
            "ticks": 173376,
            "time": 164.181654,
            "velocity": 0.2125984251968504
          },
          {
            "duration": 0.09090900000001056,
            "durationTicks": 96,
            "midi": 44,
            "name": "G#2",
            "ticks": 173568,
            "time": 164.363472,
            "velocity": 0.2125984251968504
          },
          {
            "duration": 0.09090900000001056,
            "durationTicks": 96,
            "midi": 49,
            "name": "C#3",
            "ticks": 173760,
            "time": 164.54529,
            "velocity": 0.2125984251968504
          },
          {
            "duration": 0.09090899999998214,
            "durationTicks": 96,
            "midi": 37,
            "name": "C#2",
            "ticks": 173952,
            "time": 164.72710800000002,
            "velocity": 0.2125984251968504
          },
          {
            "duration": 0.09090900000001056,
            "durationTicks": 96,
            "midi": 44,
            "name": "G#2",
            "ticks": 174144,
            "time": 164.908926,
            "velocity": 0.2125984251968504
          },
          {
            "duration": 0.09090900000001056,
            "durationTicks": 96,
            "midi": 49,
            "name": "C#3",
            "ticks": 174336,
            "time": 165.090744,
            "velocity": 0.2125984251968504
          },
          {
            "duration": 0.09090900000001056,
            "durationTicks": 96,
            "midi": 37,
            "name": "C#2",
            "ticks": 174528,
            "time": 165.272562,
            "velocity": 0.2125984251968504
          },
          {
            "duration": 0.09090899999998214,
            "durationTicks": 96,
            "midi": 44,
            "name": "G#2",
            "ticks": 174720,
            "time": 165.45438000000001,
            "velocity": 0.2125984251968504
          },
          {
            "duration": 0.09090900000001056,
            "durationTicks": 96,
            "midi": 49,
            "name": "C#3",
            "ticks": 174912,
            "time": 165.636198,
            "velocity": 0.2125984251968504
          },
          {
            "duration": 0.09090900000001056,
            "durationTicks": 96,
            "midi": 39,
            "name": "D#2",
            "ticks": 175104,
            "time": 165.818016,
            "velocity": 0.2125984251968504
          },
          {
            "duration": 0.09090900000001056,
            "durationTicks": 96,
            "midi": 46,
            "name": "A#2",
            "ticks": 175296,
            "time": 165.999834,
            "velocity": 0.2125984251968504
          },
          {
            "duration": 0.09090899999998214,
            "durationTicks": 96,
            "midi": 51,
            "name": "D#3",
            "ticks": 175488,
            "time": 166.181652,
            "velocity": 0.2125984251968504
          },
          {
            "duration": 0.09090900000001056,
            "durationTicks": 96,
            "midi": 39,
            "name": "D#2",
            "ticks": 175680,
            "time": 166.36347,
            "velocity": 0.2125984251968504
          },
          {
            "duration": 0.09090900000001056,
            "durationTicks": 96,
            "midi": 46,
            "name": "A#2",
            "ticks": 175872,
            "time": 166.545288,
            "velocity": 0.2125984251968504
          },
          {
            "duration": 0.09090899999998214,
            "durationTicks": 96,
            "midi": 51,
            "name": "D#3",
            "ticks": 176064,
            "time": 166.72710600000002,
            "velocity": 0.2125984251968504
          },
          {
            "duration": 0.09090899999998214,
            "durationTicks": 96,
            "midi": 42,
            "name": "F#2",
            "ticks": 176256,
            "time": 166.908924,
            "velocity": 0.2125984251968504
          },
          {
            "duration": 0.09090900000001056,
            "durationTicks": 96,
            "midi": 35,
            "name": "B1",
            "ticks": 176448,
            "time": 167.090742,
            "velocity": 0.2125984251968504
          },
          {
            "duration": 0.09090900000001056,
            "durationTicks": 96,
            "midi": 42,
            "name": "F#2",
            "ticks": 176640,
            "time": 167.27256,
            "velocity": 0.2125984251968504
          },
          {
            "duration": 0.09090899999998214,
            "durationTicks": 96,
            "midi": 47,
            "name": "B2",
            "ticks": 176832,
            "time": 167.45437800000002,
            "velocity": 0.2125984251968504
          },
          {
            "duration": 0.09090899999998214,
            "durationTicks": 96,
            "midi": 35,
            "name": "B1",
            "ticks": 177024,
            "time": 167.636196,
            "velocity": 0.2125984251968504
          },
          {
            "duration": 0.09090900000001056,
            "durationTicks": 96,
            "midi": 42,
            "name": "F#2",
            "ticks": 177216,
            "time": 167.818014,
            "velocity": 0.2125984251968504
          },
          {
            "duration": 0.09090900000001056,
            "durationTicks": 96,
            "midi": 47,
            "name": "B2",
            "ticks": 177408,
            "time": 167.999832,
            "velocity": 0.2125984251968504
          },
          {
            "duration": 0.09090899999998214,
            "durationTicks": 96,
            "midi": 42,
            "name": "F#2",
            "ticks": 177600,
            "time": 168.18165000000002,
            "velocity": 0.2125984251968504
          },
          {
            "duration": 0.09090899999998214,
            "durationTicks": 96,
            "midi": 35,
            "name": "B1",
            "ticks": 177792,
            "time": 168.363468,
            "velocity": 0.2125984251968504
          },
          {
            "duration": 1.6363620000000196,
            "durationTicks": 1728,
            "midi": 42,
            "name": "F#2",
            "ticks": 178176,
            "time": 168.727104,
            "velocity": 0.2125984251968504
          },
          {
            "duration": 1.6363620000000196,
            "durationTicks": 1728,
            "midi": 49,
            "name": "C#3",
            "ticks": 178176,
            "time": 168.727104,
            "velocity": 0.2125984251968504
          }
        ],
        "endOfTrackTicks": 179904
      },
      {
        "channel": 3,
        "controlChanges": {},
        "pitchBends": [],
        "instrument": {
          "family": "piano",
          "number": 0,
          "name": "acoustic grand piano"
        },
        "name": "Grand Piano (Classic)",
        "notes": [
          {
            "duration": 1.4545439999999998,
            "durationTicks": 1536,
            "midi": 42,
            "name": "F#2",
            "ticks": 768,
            "time": 0.727272,
            "velocity": 0.28346456692913385
          },
          {
            "duration": 1.4545440000000003,
            "durationTicks": 1536,
            "midi": 37,
            "name": "C#2",
            "ticks": 2304,
            "time": 2.181816,
            "velocity": 0.28346456692913385
          },
          {
            "duration": 1.4545439999999998,
            "durationTicks": 1536,
            "midi": 39,
            "name": "D#2",
            "ticks": 3840,
            "time": 3.6363600000000003,
            "velocity": 0.28346456692913385
          },
          {
            "duration": 1.4545440000000003,
            "durationTicks": 1536,
            "midi": 35,
            "name": "B1",
            "ticks": 5376,
            "time": 5.090904,
            "velocity": 0.28346456692913385
          },
          {
            "duration": 1.4545440000000003,
            "durationTicks": 1536,
            "midi": 42,
            "name": "F#2",
            "ticks": 6912,
            "time": 6.545448,
            "velocity": 0.28346456692913385
          },
          {
            "duration": 1.4545440000000003,
            "durationTicks": 1536,
            "midi": 54,
            "name": "F#3",
            "ticks": 6912,
            "time": 6.545448,
            "velocity": 0.28346456692913385
          },
          {
            "duration": 1.4545440000000003,
            "durationTicks": 1536,
            "midi": 49,
            "name": "C#3",
            "ticks": 8448,
            "time": 7.999992000000001,
            "velocity": 0.28346456692913385
          },
          {
            "duration": 1.4545440000000003,
            "durationTicks": 1536,
            "midi": 37,
            "name": "C#2",
            "ticks": 8448,
            "time": 7.999992000000001,
            "velocity": 0.28346456692913385
          },
          {
            "duration": 1.4545440000000003,
            "durationTicks": 1536,
            "midi": 39,
            "name": "D#2",
            "ticks": 9984,
            "time": 9.454536000000001,
            "velocity": 0.28346456692913385
          },
          {
            "duration": 1.4545440000000003,
            "durationTicks": 1536,
            "midi": 51,
            "name": "D#3",
            "ticks": 9984,
            "time": 9.454536000000001,
            "velocity": 0.28346456692913385
          },
          {
            "duration": 0.0909089999999999,
            "durationTicks": 96,
            "midi": 35,
            "name": "B1",
            "ticks": 11520,
            "time": 10.909080000000001,
            "velocity": 0.28346456692913385
          },
          {
            "duration": 0.0909089999999999,
            "durationTicks": 96,
            "midi": 47,
            "name": "B2",
            "ticks": 11520,
            "time": 10.909080000000001,
            "velocity": 0.28346456692913385
          },
          {
            "duration": 0.0909089999999999,
            "durationTicks": 96,
            "midi": 35,
            "name": "B1",
            "ticks": 11904,
            "time": 11.272716,
            "velocity": 0.28346456692913385
          },
          {
            "duration": 0.0909089999999999,
            "durationTicks": 96,
            "midi": 47,
            "name": "B2",
            "ticks": 11904,
            "time": 11.272716,
            "velocity": 0.28346456692913385
          },
          {
            "duration": 0.0909089999999999,
            "durationTicks": 96,
            "midi": 47,
            "name": "B2",
            "ticks": 12288,
            "time": 11.636352,
            "velocity": 0.28346456692913385
          },
          {
            "duration": 0.0909089999999999,
            "durationTicks": 96,
            "midi": 35,
            "name": "B1",
            "ticks": 12288,
            "time": 11.636352,
            "velocity": 0.28346456692913385
          },
          {
            "duration": 0.0909089999999999,
            "durationTicks": 96,
            "midi": 47,
            "name": "B2",
            "ticks": 12672,
            "time": 11.999988,
            "velocity": 0.28346456692913385
          },
          {
            "duration": 0.0909089999999999,
            "durationTicks": 96,
            "midi": 35,
            "name": "B1",
            "ticks": 12672,
            "time": 11.999988,
            "velocity": 0.28346456692913385
          },
          {
            "duration": 0.3636360000000014,
            "durationTicks": 384,
            "midi": 42,
            "name": "F#2",
            "ticks": 13056,
            "time": 12.363624,
            "velocity": 0.28346456692913385
          },
          {
            "duration": 0.3636360000000014,
            "durationTicks": 384,
            "midi": 30,
            "name": "F#1",
            "ticks": 13056,
            "time": 12.363624,
            "velocity": 0.28346456692913385
          },
          {
            "duration": 0.3636359999999996,
            "durationTicks": 384,
            "midi": 42,
            "name": "F#2",
            "ticks": 13440,
            "time": 12.727260000000001,
            "velocity": 0.28346456692913385
          },
          {
            "duration": 0.3636359999999996,
            "durationTicks": 384,
            "midi": 30,
            "name": "F#1",
            "ticks": 13440,
            "time": 12.727260000000001,
            "velocity": 0.28346456692913385
          },
          {
            "duration": 0.3636359999999996,
            "durationTicks": 384,
            "midi": 42,
            "name": "F#2",
            "ticks": 13824,
            "time": 13.090896,
            "velocity": 0.28346456692913385
          },
          {
            "duration": 0.3636359999999996,
            "durationTicks": 384,
            "midi": 30,
            "name": "F#1",
            "ticks": 13824,
            "time": 13.090896,
            "velocity": 0.28346456692913385
          },
          {
            "duration": 0.3636359999999996,
            "durationTicks": 384,
            "midi": 42,
            "name": "F#2",
            "ticks": 14208,
            "time": 13.454532,
            "velocity": 0.28346456692913385
          },
          {
            "duration": 0.3636359999999996,
            "durationTicks": 384,
            "midi": 30,
            "name": "F#1",
            "ticks": 14208,
            "time": 13.454532,
            "velocity": 0.28346456692913385
          },
          {
            "duration": 0.3636360000000014,
            "durationTicks": 384,
            "midi": 42,
            "name": "F#2",
            "ticks": 14592,
            "time": 13.818168,
            "velocity": 0.28346456692913385
          },
          {
            "duration": 0.3636360000000014,
            "durationTicks": 384,
            "midi": 30,
            "name": "F#1",
            "ticks": 14592,
            "time": 13.818168,
            "velocity": 0.28346456692913385
          },
          {
            "duration": 0.3636359999999996,
            "durationTicks": 384,
            "midi": 42,
            "name": "F#2",
            "ticks": 14976,
            "time": 14.181804000000001,
            "velocity": 0.28346456692913385
          },
          {
            "duration": 0.3636359999999996,
            "durationTicks": 384,
            "midi": 30,
            "name": "F#1",
            "ticks": 14976,
            "time": 14.181804000000001,
            "velocity": 0.28346456692913385
          },
          {
            "duration": 0.0909089999999999,
            "durationTicks": 96,
            "midi": 42,
            "name": "F#2",
            "ticks": 16128,
            "time": 15.272712,
            "velocity": 0.28346456692913385
          },
          {
            "duration": 0.0909089999999999,
            "durationTicks": 96,
            "midi": 54,
            "name": "F#3",
            "ticks": 16320,
            "time": 15.45453,
            "velocity": 0.28346456692913385
          },
          {
            "duration": 0.0909089999999999,
            "durationTicks": 96,
            "midi": 42,
            "name": "F#2",
            "ticks": 16512,
            "time": 15.636348,
            "velocity": 0.28346456692913385
          },
          {
            "duration": 0.0909089999999999,
            "durationTicks": 96,
            "midi": 54,
            "name": "F#3",
            "ticks": 16704,
            "time": 15.818166000000002,
            "velocity": 0.28346456692913385
          },
          {
            "duration": 0.0909089999999999,
            "durationTicks": 96,
            "midi": 42,
            "name": "F#2",
            "ticks": 16896,
            "time": 15.999984000000001,
            "velocity": 0.28346456692913385
          },
          {
            "duration": 0.0909089999999999,
            "durationTicks": 96,
            "midi": 54,
            "name": "F#3",
            "ticks": 17088,
            "time": 16.181802,
            "velocity": 0.28346456692913385
          },
          {
            "duration": 0.0909089999999999,
            "durationTicks": 96,
            "midi": 42,
            "name": "F#2",
            "ticks": 17280,
            "time": 16.36362,
            "velocity": 0.28346456692913385
          },
          {
            "duration": 0.0909089999999999,
            "durationTicks": 96,
            "midi": 54,
            "name": "F#3",
            "ticks": 17472,
            "time": 16.545438,
            "velocity": 0.28346456692913385
          },
          {
            "duration": 0.0909089999999999,
            "durationTicks": 96,
            "midi": 37,
            "name": "C#2",
            "ticks": 17664,
            "time": 16.727256,
            "velocity": 0.28346456692913385
          },
          {
            "duration": 0.0909089999999999,
            "durationTicks": 96,
            "midi": 49,
            "name": "C#3",
            "ticks": 17856,
            "time": 16.909074,
            "velocity": 0.28346456692913385
          },
          {
            "duration": 0.0909089999999999,
            "durationTicks": 96,
            "midi": 37,
            "name": "C#2",
            "ticks": 18048,
            "time": 17.090892,
            "velocity": 0.28346456692913385
          },
          {
            "duration": 0.0909089999999999,
            "durationTicks": 96,
            "midi": 49,
            "name": "C#3",
            "ticks": 18240,
            "time": 17.27271,
            "velocity": 0.28346456692913385
          },
          {
            "duration": 0.0909089999999999,
            "durationTicks": 96,
            "midi": 37,
            "name": "C#2",
            "ticks": 18432,
            "time": 17.454528,
            "velocity": 0.28346456692913385
          },
          {
            "duration": 0.0909089999999999,
            "durationTicks": 96,
            "midi": 49,
            "name": "C#3",
            "ticks": 18624,
            "time": 17.636346,
            "velocity": 0.28346456692913385
          },
          {
            "duration": 0.0909089999999999,
            "durationTicks": 96,
            "midi": 37,
            "name": "C#2",
            "ticks": 18816,
            "time": 17.818164,
            "velocity": 0.28346456692913385
          },
          {
            "duration": 0.0909089999999999,
            "durationTicks": 96,
            "midi": 49,
            "name": "C#3",
            "ticks": 19008,
            "time": 17.999982,
            "velocity": 0.28346456692913385
          },
          {
            "duration": 0.0909089999999999,
            "durationTicks": 96,
            "midi": 39,
            "name": "D#2",
            "ticks": 19200,
            "time": 18.1818,
            "velocity": 0.28346456692913385
          },
          {
            "duration": 0.0909089999999999,
            "durationTicks": 96,
            "midi": 51,
            "name": "D#3",
            "ticks": 19392,
            "time": 18.363618000000002,
            "velocity": 0.28346456692913385
          },
          {
            "duration": 0.0909089999999999,
            "durationTicks": 96,
            "midi": 39,
            "name": "D#2",
            "ticks": 19584,
            "time": 18.545436000000002,
            "velocity": 0.28346456692913385
          },
          {
            "duration": 0.0909089999999999,
            "durationTicks": 96,
            "midi": 51,
            "name": "D#3",
            "ticks": 19776,
            "time": 18.727254000000002,
            "velocity": 0.28346456692913385
          },
          {
            "duration": 0.0909089999999999,
            "durationTicks": 96,
            "midi": 39,
            "name": "D#2",
            "ticks": 19968,
            "time": 18.909072000000002,
            "velocity": 0.28346456692913385
          },
          {
            "duration": 0.0909089999999999,
            "durationTicks": 96,
            "midi": 51,
            "name": "D#3",
            "ticks": 20160,
            "time": 19.09089,
            "velocity": 0.28346456692913385
          },
          {
            "duration": 0.0909089999999999,
            "durationTicks": 96,
            "midi": 39,
            "name": "D#2",
            "ticks": 20352,
            "time": 19.272708,
            "velocity": 0.28346456692913385
          },
          {
            "duration": 0.0909089999999999,
            "durationTicks": 96,
            "midi": 51,
            "name": "D#3",
            "ticks": 20544,
            "time": 19.454526,
            "velocity": 0.28346456692913385
          },
          {
            "duration": 0.0909089999999999,
            "durationTicks": 96,
            "midi": 35,
            "name": "B1",
            "ticks": 20736,
            "time": 19.636344,
            "velocity": 0.28346456692913385
          },
          {
            "duration": 0.0909089999999999,
            "durationTicks": 96,
            "midi": 47,
            "name": "B2",
            "ticks": 20928,
            "time": 19.818162,
            "velocity": 0.28346456692913385
          },
          {
            "duration": 0.0909089999999999,
            "durationTicks": 96,
            "midi": 35,
            "name": "B1",
            "ticks": 21120,
            "time": 19.99998,
            "velocity": 0.28346456692913385
          },
          {
            "duration": 0.0909089999999999,
            "durationTicks": 96,
            "midi": 47,
            "name": "B2",
            "ticks": 21312,
            "time": 20.181798,
            "velocity": 0.28346456692913385
          },
          {
            "duration": 0.0909089999999999,
            "durationTicks": 96,
            "midi": 35,
            "name": "B1",
            "ticks": 21504,
            "time": 20.363616,
            "velocity": 0.28346456692913385
          },
          {
            "duration": 0.0909089999999999,
            "durationTicks": 96,
            "midi": 47,
            "name": "B2",
            "ticks": 21696,
            "time": 20.545434,
            "velocity": 0.28346456692913385
          },
          {
            "duration": 0.0909089999999999,
            "durationTicks": 96,
            "midi": 35,
            "name": "B1",
            "ticks": 21888,
            "time": 20.727252,
            "velocity": 0.28346456692913385
          },
          {
            "duration": 0.0909089999999999,
            "durationTicks": 96,
            "midi": 47,
            "name": "B2",
            "ticks": 22080,
            "time": 20.90907,
            "velocity": 0.28346456692913385
          },
          {
            "duration": 0.0909089999999999,
            "durationTicks": 96,
            "midi": 42,
            "name": "F#2",
            "ticks": 22272,
            "time": 21.090888,
            "velocity": 0.28346456692913385
          },
          {
            "duration": 0.0909089999999999,
            "durationTicks": 96,
            "midi": 54,
            "name": "F#3",
            "ticks": 22464,
            "time": 21.272706,
            "velocity": 0.28346456692913385
          },
          {
            "duration": 0.0909089999999999,
            "durationTicks": 96,
            "midi": 42,
            "name": "F#2",
            "ticks": 22656,
            "time": 21.454524,
            "velocity": 0.28346456692913385
          },
          {
            "duration": 0.0909089999999999,
            "durationTicks": 96,
            "midi": 54,
            "name": "F#3",
            "ticks": 22848,
            "time": 21.636342000000003,
            "velocity": 0.28346456692913385
          },
          {
            "duration": 0.0909089999999999,
            "durationTicks": 96,
            "midi": 42,
            "name": "F#2",
            "ticks": 23040,
            "time": 21.818160000000002,
            "velocity": 0.28346456692913385
          },
          {
            "duration": 0.0909089999999999,
            "durationTicks": 96,
            "midi": 54,
            "name": "F#3",
            "ticks": 23232,
            "time": 21.999978000000002,
            "velocity": 0.28346456692913385
          },
          {
            "duration": 0.0909089999999999,
            "durationTicks": 96,
            "midi": 42,
            "name": "F#2",
            "ticks": 23424,
            "time": 22.181796000000002,
            "velocity": 0.28346456692913385
          },
          {
            "duration": 0.0909089999999999,
            "durationTicks": 96,
            "midi": 54,
            "name": "F#3",
            "ticks": 23616,
            "time": 22.363614000000002,
            "velocity": 0.28346456692913385
          },
          {
            "duration": 0.0909089999999999,
            "durationTicks": 96,
            "midi": 37,
            "name": "C#2",
            "ticks": 23808,
            "time": 22.545432,
            "velocity": 0.28346456692913385
          },
          {
            "duration": 0.0909089999999999,
            "durationTicks": 96,
            "midi": 49,
            "name": "C#3",
            "ticks": 24000,
            "time": 22.72725,
            "velocity": 0.28346456692913385
          },
          {
            "duration": 0.0909089999999999,
            "durationTicks": 96,
            "midi": 37,
            "name": "C#2",
            "ticks": 24192,
            "time": 22.909068,
            "velocity": 0.28346456692913385
          },
          {
            "duration": 0.0909089999999999,
            "durationTicks": 96,
            "midi": 49,
            "name": "C#3",
            "ticks": 24384,
            "time": 23.090886,
            "velocity": 0.28346456692913385
          },
          {
            "duration": 0.0909089999999999,
            "durationTicks": 96,
            "midi": 37,
            "name": "C#2",
            "ticks": 24576,
            "time": 23.272704,
            "velocity": 0.28346456692913385
          },
          {
            "duration": 0.0909089999999999,
            "durationTicks": 96,
            "midi": 49,
            "name": "C#3",
            "ticks": 24768,
            "time": 23.454522,
            "velocity": 0.28346456692913385
          },
          {
            "duration": 0.0909089999999999,
            "durationTicks": 96,
            "midi": 37,
            "name": "C#2",
            "ticks": 24960,
            "time": 23.63634,
            "velocity": 0.28346456692913385
          },
          {
            "duration": 0.0909089999999999,
            "durationTicks": 96,
            "midi": 49,
            "name": "C#3",
            "ticks": 25152,
            "time": 23.818158,
            "velocity": 0.28346456692913385
          },
          {
            "duration": 0.0909089999999999,
            "durationTicks": 96,
            "midi": 39,
            "name": "D#2",
            "ticks": 25344,
            "time": 23.999976,
            "velocity": 0.28346456692913385
          },
          {
            "duration": 0.0909089999999999,
            "durationTicks": 96,
            "midi": 51,
            "name": "D#3",
            "ticks": 25536,
            "time": 24.181794,
            "velocity": 0.28346456692913385
          },
          {
            "duration": 0.0909089999999999,
            "durationTicks": 96,
            "midi": 39,
            "name": "D#2",
            "ticks": 25728,
            "time": 24.363612,
            "velocity": 0.28346456692913385
          },
          {
            "duration": 0.0909089999999999,
            "durationTicks": 96,
            "midi": 51,
            "name": "D#3",
            "ticks": 25920,
            "time": 24.54543,
            "velocity": 0.28346456692913385
          },
          {
            "duration": 0.0909089999999999,
            "durationTicks": 96,
            "midi": 39,
            "name": "D#2",
            "ticks": 26112,
            "time": 24.727248,
            "velocity": 0.28346456692913385
          },
          {
            "duration": 0.09090900000000346,
            "durationTicks": 96,
            "midi": 51,
            "name": "D#3",
            "ticks": 26304,
            "time": 24.909066,
            "velocity": 0.28346456692913385
          },
          {
            "duration": 0.0909089999999999,
            "durationTicks": 96,
            "midi": 39,
            "name": "D#2",
            "ticks": 26496,
            "time": 25.090884000000003,
            "velocity": 0.28346456692913385
          },
          {
            "duration": 0.0909089999999999,
            "durationTicks": 96,
            "midi": 51,
            "name": "D#3",
            "ticks": 26688,
            "time": 25.272702000000002,
            "velocity": 0.28346456692913385
          },
          {
            "duration": 0.0909089999999999,
            "durationTicks": 96,
            "midi": 35,
            "name": "B1",
            "ticks": 26880,
            "time": 25.454520000000002,
            "velocity": 0.28346456692913385
          },
          {
            "duration": 0.0909089999999999,
            "durationTicks": 96,
            "midi": 47,
            "name": "B2",
            "ticks": 27072,
            "time": 25.636338000000002,
            "velocity": 0.28346456692913385
          },
          {
            "duration": 0.0909089999999999,
            "durationTicks": 96,
            "midi": 35,
            "name": "B1",
            "ticks": 27264,
            "time": 25.818156000000002,
            "velocity": 0.28346456692913385
          },
          {
            "duration": 0.0909089999999999,
            "durationTicks": 96,
            "midi": 47,
            "name": "B2",
            "ticks": 27456,
            "time": 25.999974,
            "velocity": 0.28346456692913385
          },
          {
            "duration": 0.0909089999999999,
            "durationTicks": 96,
            "midi": 35,
            "name": "B1",
            "ticks": 27648,
            "time": 26.181792,
            "velocity": 0.28346456692913385
          },
          {
            "duration": 0.0909089999999999,
            "durationTicks": 96,
            "midi": 47,
            "name": "B2",
            "ticks": 27840,
            "time": 26.36361,
            "velocity": 0.28346456692913385
          },
          {
            "duration": 0.0909089999999999,
            "durationTicks": 96,
            "midi": 35,
            "name": "B1",
            "ticks": 28032,
            "time": 26.545428,
            "velocity": 0.28346456692913385
          },
          {
            "duration": 0.0909089999999999,
            "durationTicks": 96,
            "midi": 47,
            "name": "B2",
            "ticks": 28224,
            "time": 26.727246,
            "velocity": 0.28346456692913385
          },
          {
            "duration": 0.0909089999999999,
            "durationTicks": 96,
            "midi": 42,
            "name": "F#2",
            "ticks": 28416,
            "time": 26.909064,
            "velocity": 0.28346456692913385
          },
          {
            "duration": 0.0909089999999999,
            "durationTicks": 96,
            "midi": 54,
            "name": "F#3",
            "ticks": 28608,
            "time": 27.090882,
            "velocity": 0.28346456692913385
          },
          {
            "duration": 0.0909089999999999,
            "durationTicks": 96,
            "midi": 42,
            "name": "F#2",
            "ticks": 28800,
            "time": 27.2727,
            "velocity": 0.28346456692913385
          },
          {
            "duration": 0.0909089999999999,
            "durationTicks": 96,
            "midi": 54,
            "name": "F#3",
            "ticks": 28992,
            "time": 27.454518,
            "velocity": 0.28346456692913385
          },
          {
            "duration": 0.0909089999999999,
            "durationTicks": 96,
            "midi": 42,
            "name": "F#2",
            "ticks": 29184,
            "time": 27.636336,
            "velocity": 0.28346456692913385
          },
          {
            "duration": 0.0909089999999999,
            "durationTicks": 96,
            "midi": 54,
            "name": "F#3",
            "ticks": 29376,
            "time": 27.818154,
            "velocity": 0.28346456692913385
          },
          {
            "duration": 0.0909089999999999,
            "durationTicks": 96,
            "midi": 42,
            "name": "F#2",
            "ticks": 29568,
            "time": 27.999972,
            "velocity": 0.28346456692913385
          },
          {
            "duration": 0.09090900000000346,
            "durationTicks": 96,
            "midi": 54,
            "name": "F#3",
            "ticks": 29760,
            "time": 28.18179,
            "velocity": 0.28346456692913385
          },
          {
            "duration": 0.0909089999999999,
            "durationTicks": 96,
            "midi": 42,
            "name": "F#2",
            "ticks": 29952,
            "time": 28.363608000000003,
            "velocity": 0.28346456692913385
          },
          {
            "duration": 0.0909089999999999,
            "durationTicks": 96,
            "midi": 54,
            "name": "F#3",
            "ticks": 30144,
            "time": 28.545426000000003,
            "velocity": 0.28346456692913385
          },
          {
            "duration": 0.0909089999999999,
            "durationTicks": 96,
            "midi": 42,
            "name": "F#2",
            "ticks": 30336,
            "time": 28.727244000000002,
            "velocity": 0.28346456692913385
          },
          {
            "duration": 0.0909089999999999,
            "durationTicks": 96,
            "midi": 54,
            "name": "F#3",
            "ticks": 30528,
            "time": 28.909062000000002,
            "velocity": 0.28346456692913385
          },
          {
            "duration": 0.0909089999999999,
            "durationTicks": 96,
            "midi": 42,
            "name": "F#2",
            "ticks": 30720,
            "time": 29.090880000000002,
            "velocity": 0.28346456692913385
          },
          {
            "duration": 0.0909089999999999,
            "durationTicks": 96,
            "midi": 54,
            "name": "F#3",
            "ticks": 30912,
            "time": 29.272698000000002,
            "velocity": 0.28346456692913385
          },
          {
            "duration": 0.0909089999999999,
            "durationTicks": 96,
            "midi": 42,
            "name": "F#2",
            "ticks": 31104,
            "time": 29.454516,
            "velocity": 0.28346456692913385
          },
          {
            "duration": 0.0909089999999999,
            "durationTicks": 96,
            "midi": 42,
            "name": "F#2",
            "ticks": 31488,
            "time": 29.818152,
            "velocity": 0.28346456692913385
          },
          {
            "duration": 0.0909089999999999,
            "durationTicks": 96,
            "midi": 54,
            "name": "F#3",
            "ticks": 31680,
            "time": 29.99997,
            "velocity": 0.28346456692913385
          },
          {
            "duration": 0.0909089999999999,
            "durationTicks": 96,
            "midi": 42,
            "name": "F#2",
            "ticks": 31872,
            "time": 30.181788,
            "velocity": 0.28346456692913385
          },
          {
            "duration": 0.0909089999999999,
            "durationTicks": 96,
            "midi": 54,
            "name": "F#3",
            "ticks": 32064,
            "time": 30.363606,
            "velocity": 0.28346456692913385
          },
          {
            "duration": 0.0909089999999999,
            "durationTicks": 96,
            "midi": 42,
            "name": "F#2",
            "ticks": 32256,
            "time": 30.545424,
            "velocity": 0.28346456692913385
          },
          {
            "duration": 0.0909089999999999,
            "durationTicks": 96,
            "midi": 54,
            "name": "F#3",
            "ticks": 32448,
            "time": 30.727242,
            "velocity": 0.28346456692913385
          },
          {
            "duration": 0.0909089999999999,
            "durationTicks": 96,
            "midi": 42,
            "name": "F#2",
            "ticks": 32640,
            "time": 30.90906,
            "velocity": 0.28346456692913385
          },
          {
            "duration": 0.0909089999999999,
            "durationTicks": 96,
            "midi": 54,
            "name": "F#3",
            "ticks": 32832,
            "time": 31.090878,
            "velocity": 0.28346456692913385
          },
          {
            "duration": 0.0909089999999999,
            "durationTicks": 96,
            "midi": 42,
            "name": "F#2",
            "ticks": 33024,
            "time": 31.272696,
            "velocity": 0.28346456692913385
          },
          {
            "duration": 0.0909089999999999,
            "durationTicks": 96,
            "midi": 54,
            "name": "F#3",
            "ticks": 33216,
            "time": 31.454514,
            "velocity": 0.28346456692913385
          },
          {
            "duration": 0.0909089999999999,
            "durationTicks": 96,
            "midi": 42,
            "name": "F#2",
            "ticks": 33408,
            "time": 31.636332000000003,
            "velocity": 0.28346456692913385
          },
          {
            "duration": 0.0909089999999999,
            "durationTicks": 96,
            "midi": 54,
            "name": "F#3",
            "ticks": 33600,
            "time": 31.818150000000003,
            "velocity": 0.28346456692913385
          },
          {
            "duration": 0.09090899999999635,
            "durationTicks": 96,
            "midi": 42,
            "name": "F#2",
            "ticks": 33792,
            "time": 31.999968000000003,
            "velocity": 0.28346456692913385
          },
          {
            "duration": 0.09090899999999635,
            "durationTicks": 96,
            "midi": 54,
            "name": "F#3",
            "ticks": 33984,
            "time": 32.181786,
            "velocity": 0.28346456692913385
          },
          {
            "duration": 0.09090899999999635,
            "durationTicks": 96,
            "midi": 37,
            "name": "C#2",
            "ticks": 34176,
            "time": 32.363604,
            "velocity": 0.28346456692913385
          },
          {
            "duration": 0.09090899999999635,
            "durationTicks": 96,
            "midi": 49,
            "name": "C#3",
            "ticks": 34368,
            "time": 32.545422,
            "velocity": 0.28346456692913385
          },
          {
            "duration": 0.09090899999999635,
            "durationTicks": 96,
            "midi": 37,
            "name": "C#2",
            "ticks": 34560,
            "time": 32.72724,
            "velocity": 0.28346456692913385
          },
          {
            "duration": 0.09090899999999635,
            "durationTicks": 96,
            "midi": 49,
            "name": "C#3",
            "ticks": 34752,
            "time": 32.909058,
            "velocity": 0.28346456692913385
          },
          {
            "duration": 0.09090899999999635,
            "durationTicks": 96,
            "midi": 37,
            "name": "C#2",
            "ticks": 34944,
            "time": 33.090876,
            "velocity": 0.28346456692913385
          },
          {
            "duration": 0.09090900000000346,
            "durationTicks": 96,
            "midi": 49,
            "name": "C#3",
            "ticks": 35136,
            "time": 33.272694,
            "velocity": 0.28346456692913385
          },
          {
            "duration": 0.09090900000000346,
            "durationTicks": 96,
            "midi": 37,
            "name": "C#2",
            "ticks": 35328,
            "time": 33.454512,
            "velocity": 0.28346456692913385
          },
          {
            "duration": 0.09090900000000346,
            "durationTicks": 96,
            "midi": 49,
            "name": "C#3",
            "ticks": 35520,
            "time": 33.63633,
            "velocity": 0.28346456692913385
          },
          {
            "duration": 0.09090900000000346,
            "durationTicks": 96,
            "midi": 37,
            "name": "C#2",
            "ticks": 35712,
            "time": 33.818148,
            "velocity": 0.28346456692913385
          },
          {
            "duration": 0.09090900000000346,
            "durationTicks": 96,
            "midi": 49,
            "name": "C#3",
            "ticks": 35904,
            "time": 33.999966,
            "velocity": 0.28346456692913385
          },
          {
            "duration": 0.09090900000000346,
            "durationTicks": 96,
            "midi": 37,
            "name": "C#2",
            "ticks": 36096,
            "time": 34.181784,
            "velocity": 0.28346456692913385
          },
          {
            "duration": 0.09090900000000346,
            "durationTicks": 96,
            "midi": 49,
            "name": "C#3",
            "ticks": 36288,
            "time": 34.363602,
            "velocity": 0.28346456692913385
          },
          {
            "duration": 0.09090900000000346,
            "durationTicks": 96,
            "midi": 37,
            "name": "C#2",
            "ticks": 36480,
            "time": 34.54542,
            "velocity": 0.28346456692913385
          },
          {
            "duration": 0.09090900000000346,
            "durationTicks": 96,
            "midi": 49,
            "name": "C#3",
            "ticks": 36672,
            "time": 34.727238,
            "velocity": 0.28346456692913385
          },
          {
            "duration": 0.09090900000000346,
            "durationTicks": 96,
            "midi": 37,
            "name": "C#2",
            "ticks": 36864,
            "time": 34.909056,
            "velocity": 0.28346456692913385
          },
          {
            "duration": 0.09090900000000346,
            "durationTicks": 96,
            "midi": 49,
            "name": "C#3",
            "ticks": 37056,
            "time": 35.090874,
            "velocity": 0.28346456692913385
          },
          {
            "duration": 0.09090900000000346,
            "durationTicks": 96,
            "midi": 42,
            "name": "F#2",
            "ticks": 37248,
            "time": 35.272692,
            "velocity": 0.28346456692913385
          },
          {
            "duration": 0.09090900000000346,
            "durationTicks": 96,
            "midi": 54,
            "name": "F#3",
            "ticks": 37440,
            "time": 35.45451,
            "velocity": 0.28346456692913385
          },
          {
            "duration": 0.09090900000000346,
            "durationTicks": 96,
            "midi": 42,
            "name": "F#2",
            "ticks": 37632,
            "time": 35.636328,
            "velocity": 0.28346456692913385
          },
          {
            "duration": 0.09090900000000346,
            "durationTicks": 96,
            "midi": 54,
            "name": "F#3",
            "ticks": 37824,
            "time": 35.818146,
            "velocity": 0.28346456692913385
          },
          {
            "duration": 0.09090900000000346,
            "durationTicks": 96,
            "midi": 42,
            "name": "F#2",
            "ticks": 38016,
            "time": 35.999964,
            "velocity": 0.28346456692913385
          },
          {
            "duration": 0.09090900000000346,
            "durationTicks": 96,
            "midi": 54,
            "name": "F#3",
            "ticks": 38208,
            "time": 36.181782,
            "velocity": 0.28346456692913385
          },
          {
            "duration": 0.09090900000000346,
            "durationTicks": 96,
            "midi": 42,
            "name": "F#2",
            "ticks": 38400,
            "time": 36.3636,
            "velocity": 0.28346456692913385
          },
          {
            "duration": 0.09090900000000346,
            "durationTicks": 96,
            "midi": 54,
            "name": "F#3",
            "ticks": 38592,
            "time": 36.545418,
            "velocity": 0.28346456692913385
          },
          {
            "duration": 0.09090899999999635,
            "durationTicks": 96,
            "midi": 42,
            "name": "F#2",
            "ticks": 38784,
            "time": 36.727236000000005,
            "velocity": 0.28346456692913385
          },
          {
            "duration": 0.09090899999999635,
            "durationTicks": 96,
            "midi": 54,
            "name": "F#3",
            "ticks": 38976,
            "time": 36.909054000000005,
            "velocity": 0.28346456692913385
          },
          {
            "duration": 0.09090899999999635,
            "durationTicks": 96,
            "midi": 42,
            "name": "F#2",
            "ticks": 39168,
            "time": 37.090872000000005,
            "velocity": 0.28346456692913385
          },
          {
            "duration": 0.09090899999999635,
            "durationTicks": 96,
            "midi": 54,
            "name": "F#3",
            "ticks": 39360,
            "time": 37.272690000000004,
            "velocity": 0.28346456692913385
          },
          {
            "duration": 0.09090899999999635,
            "durationTicks": 96,
            "midi": 42,
            "name": "F#2",
            "ticks": 39552,
            "time": 37.454508000000004,
            "velocity": 0.28346456692913385
          },
          {
            "duration": 0.09090899999999635,
            "durationTicks": 96,
            "midi": 54,
            "name": "F#3",
            "ticks": 39744,
            "time": 37.636326000000004,
            "velocity": 0.28346456692913385
          },
          {
            "duration": 0.09090899999999635,
            "durationTicks": 96,
            "midi": 42,
            "name": "F#2",
            "ticks": 39936,
            "time": 37.818144000000004,
            "velocity": 0.28346456692913385
          },
          {
            "duration": 0.09090899999999635,
            "durationTicks": 96,
            "midi": 54,
            "name": "F#3",
            "ticks": 40128,
            "time": 37.999962000000004,
            "velocity": 0.28346456692913385
          },
          {
            "duration": 0.09090899999999635,
            "durationTicks": 96,
            "midi": 42,
            "name": "F#2",
            "ticks": 40320,
            "time": 38.18178,
            "velocity": 0.28346456692913385
          },
          {
            "duration": 0.09090899999999635,
            "durationTicks": 96,
            "midi": 54,
            "name": "F#3",
            "ticks": 40512,
            "time": 38.363598,
            "velocity": 0.28346456692913385
          },
          {
            "duration": 0.09090899999999635,
            "durationTicks": 96,
            "midi": 42,
            "name": "F#2",
            "ticks": 40704,
            "time": 38.545416,
            "velocity": 0.28346456692913385
          },
          {
            "duration": 0.09090899999999635,
            "durationTicks": 96,
            "midi": 54,
            "name": "F#3",
            "ticks": 40896,
            "time": 38.727234,
            "velocity": 0.28346456692913385
          },
          {
            "duration": 0.09090899999999635,
            "durationTicks": 96,
            "midi": 42,
            "name": "F#2",
            "ticks": 41088,
            "time": 38.909052,
            "velocity": 0.28346456692913385
          },
          {
            "duration": 0.09090899999999635,
            "durationTicks": 96,
            "midi": 54,
            "name": "F#3",
            "ticks": 41280,
            "time": 39.09087,
            "velocity": 0.28346456692913385
          },
          {
            "duration": 0.09090899999999635,
            "durationTicks": 96,
            "midi": 42,
            "name": "F#2",
            "ticks": 41472,
            "time": 39.272688,
            "velocity": 0.28346456692913385
          },
          {
            "duration": 0.09090899999999635,
            "durationTicks": 96,
            "midi": 54,
            "name": "F#3",
            "ticks": 41664,
            "time": 39.454506,
            "velocity": 0.28346456692913385
          },
          {
            "duration": 0.09090899999999635,
            "durationTicks": 96,
            "midi": 42,
            "name": "F#2",
            "ticks": 41856,
            "time": 39.636324,
            "velocity": 0.28346456692913385
          },
          {
            "duration": 0.09090900000000346,
            "durationTicks": 96,
            "midi": 54,
            "name": "F#3",
            "ticks": 42048,
            "time": 39.818142,
            "velocity": 0.28346456692913385
          },
          {
            "duration": 0.09090900000000346,
            "durationTicks": 96,
            "midi": 42,
            "name": "F#2",
            "ticks": 42240,
            "time": 39.99996,
            "velocity": 0.28346456692913385
          },
          {
            "duration": 0.09090900000000346,
            "durationTicks": 96,
            "midi": 54,
            "name": "F#3",
            "ticks": 42432,
            "time": 40.181778,
            "velocity": 0.28346456692913385
          },
          {
            "duration": 0.09090900000000346,
            "durationTicks": 96,
            "midi": 42,
            "name": "F#2",
            "ticks": 42624,
            "time": 40.363596,
            "velocity": 0.28346456692913385
          },
          {
            "duration": 0.09090900000000346,
            "durationTicks": 96,
            "midi": 54,
            "name": "F#3",
            "ticks": 42816,
            "time": 40.545414,
            "velocity": 0.28346456692913385
          },
          {
            "duration": 0.09090900000000346,
            "durationTicks": 96,
            "midi": 42,
            "name": "F#2",
            "ticks": 43008,
            "time": 40.727232,
            "velocity": 0.28346456692913385
          },
          {
            "duration": 0.09090900000000346,
            "durationTicks": 96,
            "midi": 54,
            "name": "F#3",
            "ticks": 43200,
            "time": 40.90905,
            "velocity": 0.28346456692913385
          },
          {
            "duration": 0.09090900000000346,
            "durationTicks": 96,
            "midi": 42,
            "name": "F#2",
            "ticks": 43392,
            "time": 41.090868,
            "velocity": 0.28346456692913385
          },
          {
            "duration": 0.09090900000000346,
            "durationTicks": 96,
            "midi": 54,
            "name": "F#3",
            "ticks": 43584,
            "time": 41.272686,
            "velocity": 0.28346456692913385
          },
          {
            "duration": 0.09090900000000346,
            "durationTicks": 96,
            "midi": 42,
            "name": "F#2",
            "ticks": 43776,
            "time": 41.454504,
            "velocity": 0.28346456692913385
          },
          {
            "duration": 0.09090900000000346,
            "durationTicks": 96,
            "midi": 54,
            "name": "F#3",
            "ticks": 43968,
            "time": 41.636322,
            "velocity": 0.28346456692913385
          },
          {
            "duration": 0.09090900000000346,
            "durationTicks": 96,
            "midi": 42,
            "name": "F#2",
            "ticks": 44160,
            "time": 41.81814,
            "velocity": 0.28346456692913385
          },
          {
            "duration": 0.09090900000000346,
            "durationTicks": 96,
            "midi": 54,
            "name": "F#3",
            "ticks": 44352,
            "time": 41.999958,
            "velocity": 0.28346456692913385
          },
          {
            "duration": 0.09090900000000346,
            "durationTicks": 96,
            "midi": 42,
            "name": "F#2",
            "ticks": 44544,
            "time": 42.181776,
            "velocity": 0.28346456692913385
          },
          {
            "duration": 0.09090900000000346,
            "durationTicks": 96,
            "midi": 54,
            "name": "F#3",
            "ticks": 44736,
            "time": 42.363594,
            "velocity": 0.28346456692913385
          },
          {
            "duration": 0.09090900000000346,
            "durationTicks": 96,
            "midi": 42,
            "name": "F#2",
            "ticks": 44928,
            "time": 42.545412,
            "velocity": 0.28346456692913385
          },
          {
            "duration": 0.09090900000000346,
            "durationTicks": 96,
            "midi": 54,
            "name": "F#3",
            "ticks": 45120,
            "time": 42.72723,
            "velocity": 0.28346456692913385
          },
          {
            "duration": 0.09090900000000346,
            "durationTicks": 96,
            "midi": 42,
            "name": "F#2",
            "ticks": 45312,
            "time": 42.909048,
            "velocity": 0.28346456692913385
          },
          {
            "duration": 0.09090900000000346,
            "durationTicks": 96,
            "midi": 54,
            "name": "F#3",
            "ticks": 45504,
            "time": 43.090866,
            "velocity": 0.28346456692913385
          },
          {
            "duration": 0.09090899999999635,
            "durationTicks": 96,
            "midi": 42,
            "name": "F#2",
            "ticks": 45696,
            "time": 43.272684000000005,
            "velocity": 0.28346456692913385
          },
          {
            "duration": 0.09090899999999635,
            "durationTicks": 96,
            "midi": 54,
            "name": "F#3",
            "ticks": 45888,
            "time": 43.454502000000005,
            "velocity": 0.28346456692913385
          },
          {
            "duration": 0.09090899999999635,
            "durationTicks": 96,
            "midi": 42,
            "name": "F#2",
            "ticks": 46080,
            "time": 43.636320000000005,
            "velocity": 0.28346456692913385
          },
          {
            "duration": 0.09090899999999635,
            "durationTicks": 96,
            "midi": 54,
            "name": "F#3",
            "ticks": 46272,
            "time": 43.818138000000005,
            "velocity": 0.28346456692913385
          },
          {
            "duration": 0.09090899999999635,
            "durationTicks": 96,
            "midi": 37,
            "name": "C#2",
            "ticks": 46464,
            "time": 43.999956000000005,
            "velocity": 0.28346456692913385
          },
          {
            "duration": 0.09090899999999635,
            "durationTicks": 96,
            "midi": 49,
            "name": "C#3",
            "ticks": 46656,
            "time": 44.181774000000004,
            "velocity": 0.28346456692913385
          },
          {
            "duration": 0.09090899999999635,
            "durationTicks": 96,
            "midi": 37,
            "name": "C#2",
            "ticks": 46848,
            "time": 44.363592000000004,
            "velocity": 0.28346456692913385
          },
          {
            "duration": 0.09090899999999635,
            "durationTicks": 96,
            "midi": 49,
            "name": "C#3",
            "ticks": 47040,
            "time": 44.545410000000004,
            "velocity": 0.28346456692913385
          },
          {
            "duration": 0.09090899999999635,
            "durationTicks": 96,
            "midi": 37,
            "name": "C#2",
            "ticks": 47232,
            "time": 44.727228000000004,
            "velocity": 0.28346456692913385
          },
          {
            "duration": 0.09090899999999635,
            "durationTicks": 96,
            "midi": 49,
            "name": "C#3",
            "ticks": 47424,
            "time": 44.909046000000004,
            "velocity": 0.28346456692913385
          },
          {
            "duration": 0.09090899999999635,
            "durationTicks": 96,
            "midi": 37,
            "name": "C#2",
            "ticks": 47616,
            "time": 45.090864,
            "velocity": 0.28346456692913385
          },
          {
            "duration": 0.09090899999999635,
            "durationTicks": 96,
            "midi": 49,
            "name": "C#3",
            "ticks": 47808,
            "time": 45.272682,
            "velocity": 0.28346456692913385
          },
          {
            "duration": 0.09090899999999635,
            "durationTicks": 96,
            "midi": 37,
            "name": "C#2",
            "ticks": 48000,
            "time": 45.4545,
            "velocity": 0.28346456692913385
          },
          {
            "duration": 0.09090899999999635,
            "durationTicks": 96,
            "midi": 49,
            "name": "C#3",
            "ticks": 48192,
            "time": 45.636318,
            "velocity": 0.28346456692913385
          },
          {
            "duration": 0.09090899999999635,
            "durationTicks": 96,
            "midi": 37,
            "name": "C#2",
            "ticks": 48384,
            "time": 45.818136,
            "velocity": 0.28346456692913385
          },
          {
            "duration": 0.09090899999999635,
            "durationTicks": 96,
            "midi": 49,
            "name": "C#3",
            "ticks": 48576,
            "time": 45.999954,
            "velocity": 0.28346456692913385
          },
          {
            "duration": 0.09090899999999635,
            "durationTicks": 96,
            "midi": 37,
            "name": "C#2",
            "ticks": 48768,
            "time": 46.181772,
            "velocity": 0.28346456692913385
          },
          {
            "duration": 0.09090899999999635,
            "durationTicks": 96,
            "midi": 49,
            "name": "C#3",
            "ticks": 48960,
            "time": 46.36359,
            "velocity": 0.28346456692913385
          },
          {
            "duration": 0.09090900000000346,
            "durationTicks": 96,
            "midi": 37,
            "name": "C#2",
            "ticks": 49152,
            "time": 46.545408,
            "velocity": 0.28346456692913385
          },
          {
            "duration": 0.09090900000000346,
            "durationTicks": 96,
            "midi": 49,
            "name": "C#3",
            "ticks": 49344,
            "time": 46.727226,
            "velocity": 0.28346456692913385
          },
          {
            "duration": 0.09090900000000346,
            "durationTicks": 96,
            "midi": 42,
            "name": "F#2",
            "ticks": 49536,
            "time": 46.909044,
            "velocity": 0.28346456692913385
          },
          {
            "duration": 0.09090900000000346,
            "durationTicks": 96,
            "midi": 54,
            "name": "F#3",
            "ticks": 49728,
            "time": 47.090862,
            "velocity": 0.28346456692913385
          },
          {
            "duration": 0.09090900000000346,
            "durationTicks": 96,
            "midi": 42,
            "name": "F#2",
            "ticks": 49920,
            "time": 47.27268,
            "velocity": 0.28346456692913385
          },
          {
            "duration": 0.09090900000000346,
            "durationTicks": 96,
            "midi": 54,
            "name": "F#3",
            "ticks": 50112,
            "time": 47.454498,
            "velocity": 0.28346456692913385
          },
          {
            "duration": 0.09090900000000346,
            "durationTicks": 96,
            "midi": 42,
            "name": "F#2",
            "ticks": 50304,
            "time": 47.636316,
            "velocity": 0.28346456692913385
          },
          {
            "duration": 0.09090900000000346,
            "durationTicks": 96,
            "midi": 54,
            "name": "F#3",
            "ticks": 50496,
            "time": 47.818134,
            "velocity": 0.28346456692913385
          },
          {
            "duration": 0.09090900000000346,
            "durationTicks": 96,
            "midi": 42,
            "name": "F#2",
            "ticks": 50688,
            "time": 47.999952,
            "velocity": 0.28346456692913385
          },
          {
            "duration": 0.09090900000000346,
            "durationTicks": 96,
            "midi": 54,
            "name": "F#3",
            "ticks": 50880,
            "time": 48.18177,
            "velocity": 0.28346456692913385
          },
          {
            "duration": 0.09090900000000346,
            "durationTicks": 96,
            "midi": 42,
            "name": "F#2",
            "ticks": 51072,
            "time": 48.363588,
            "velocity": 0.28346456692913385
          },
          {
            "duration": 0.09090900000000346,
            "durationTicks": 96,
            "midi": 42,
            "name": "F#2",
            "ticks": 52608,
            "time": 49.818132,
            "velocity": 0.28346456692913385
          },
          {
            "duration": 0.09090899999999635,
            "durationTicks": 96,
            "midi": 49,
            "name": "C#3",
            "ticks": 52800,
            "time": 49.999950000000005,
            "velocity": 0.28346456692913385
          },
          {
            "duration": 0.09090899999999635,
            "durationTicks": 96,
            "midi": 54,
            "name": "F#3",
            "ticks": 52992,
            "time": 50.181768000000005,
            "velocity": 0.28346456692913385
          },
          {
            "duration": 0.09090899999999635,
            "durationTicks": 96,
            "midi": 42,
            "name": "F#2",
            "ticks": 53184,
            "time": 50.363586000000005,
            "velocity": 0.28346456692913385
          },
          {
            "duration": 0.09090899999999635,
            "durationTicks": 96,
            "midi": 49,
            "name": "C#3",
            "ticks": 53376,
            "time": 50.545404000000005,
            "velocity": 0.28346456692913385
          },
          {
            "duration": 0.09090899999999635,
            "durationTicks": 96,
            "midi": 54,
            "name": "F#3",
            "ticks": 53568,
            "time": 50.727222000000005,
            "velocity": 0.28346456692913385
          },
          {
            "duration": 0.09090899999999635,
            "durationTicks": 96,
            "midi": 42,
            "name": "F#2",
            "ticks": 53760,
            "time": 50.909040000000005,
            "velocity": 0.28346456692913385
          },
          {
            "duration": 0.09090899999999635,
            "durationTicks": 96,
            "midi": 37,
            "name": "C#2",
            "ticks": 53952,
            "time": 51.090858000000004,
            "velocity": 0.28346456692913385
          },
          {
            "duration": 0.09090899999999635,
            "durationTicks": 96,
            "midi": 37,
            "name": "C#2",
            "ticks": 53952,
            "time": 51.090858000000004,
            "velocity": 0.28346456692913385
          },
          {
            "duration": 0.09090899999999635,
            "durationTicks": 96,
            "midi": 44,
            "name": "G#2",
            "ticks": 54144,
            "time": 51.272676000000004,
            "velocity": 0.28346456692913385
          },
          {
            "duration": 0.09090899999999635,
            "durationTicks": 96,
            "midi": 49,
            "name": "C#3",
            "ticks": 54336,
            "time": 51.454494000000004,
            "velocity": 0.28346456692913385
          },
          {
            "duration": 0.09090899999999635,
            "durationTicks": 96,
            "midi": 37,
            "name": "C#2",
            "ticks": 54528,
            "time": 51.636312000000004,
            "velocity": 0.28346456692913385
          },
          {
            "duration": 0.09090899999999635,
            "durationTicks": 96,
            "midi": 44,
            "name": "G#2",
            "ticks": 54720,
            "time": 51.818130000000004,
            "velocity": 0.28346456692913385
          },
          {
            "duration": 0.09090899999999635,
            "durationTicks": 96,
            "midi": 49,
            "name": "C#3",
            "ticks": 54912,
            "time": 51.999948,
            "velocity": 0.28346456692913385
          },
          {
            "duration": 0.09090899999999635,
            "durationTicks": 96,
            "midi": 37,
            "name": "C#2",
            "ticks": 55104,
            "time": 52.181766,
            "velocity": 0.28346456692913385
          },
          {
            "duration": 0.09090899999999635,
            "durationTicks": 96,
            "midi": 44,
            "name": "G#2",
            "ticks": 55296,
            "time": 52.363584,
            "velocity": 0.28346456692913385
          },
          {
            "duration": 0.09090899999999635,
            "durationTicks": 96,
            "midi": 49,
            "name": "C#3",
            "ticks": 55488,
            "time": 52.545402,
            "velocity": 0.28346456692913385
          },
          {
            "duration": 0.09090899999999635,
            "durationTicks": 96,
            "midi": 39,
            "name": "D#2",
            "ticks": 55680,
            "time": 52.72722,
            "velocity": 0.28346456692913385
          },
          {
            "duration": 0.09090899999999635,
            "durationTicks": 96,
            "midi": 46,
            "name": "A#2",
            "ticks": 55872,
            "time": 52.909038,
            "velocity": 0.28346456692913385
          },
          {
            "duration": 0.09090899999999635,
            "durationTicks": 96,
            "midi": 51,
            "name": "D#3",
            "ticks": 56064,
            "time": 53.090856,
            "velocity": 0.28346456692913385
          },
          {
            "duration": 0.09090900000000346,
            "durationTicks": 96,
            "midi": 39,
            "name": "D#2",
            "ticks": 56256,
            "time": 53.272674,
            "velocity": 0.28346456692913385
          },
          {
            "duration": 0.09090900000000346,
            "durationTicks": 96,
            "midi": 46,
            "name": "A#2",
            "ticks": 56448,
            "time": 53.454492,
            "velocity": 0.28346456692913385
          },
          {
            "duration": 0.09090900000000346,
            "durationTicks": 96,
            "midi": 51,
            "name": "D#3",
            "ticks": 56640,
            "time": 53.63631,
            "velocity": 0.28346456692913385
          },
          {
            "duration": 0.09090900000000346,
            "durationTicks": 96,
            "midi": 39,
            "name": "D#2",
            "ticks": 56832,
            "time": 53.818128,
            "velocity": 0.28346456692913385
          },
          {
            "duration": 0.09090900000000346,
            "durationTicks": 96,
            "midi": 35,
            "name": "B1",
            "ticks": 57024,
            "time": 53.999946,
            "velocity": 0.28346456692913385
          },
          {
            "duration": 0.09090900000000346,
            "durationTicks": 96,
            "midi": 42,
            "name": "F#2",
            "ticks": 57216,
            "time": 54.181764,
            "velocity": 0.28346456692913385
          },
          {
            "duration": 0.09090900000000346,
            "durationTicks": 96,
            "midi": 47,
            "name": "B2",
            "ticks": 57408,
            "time": 54.363582,
            "velocity": 0.28346456692913385
          },
          {
            "duration": 0.09090900000000346,
            "durationTicks": 96,
            "midi": 35,
            "name": "B1",
            "ticks": 57600,
            "time": 54.5454,
            "velocity": 0.28346456692913385
          },
          {
            "duration": 0.09090900000000346,
            "durationTicks": 96,
            "midi": 42,
            "name": "F#2",
            "ticks": 57792,
            "time": 54.727218,
            "velocity": 0.28346456692913385
          },
          {
            "duration": 0.09090900000000346,
            "durationTicks": 96,
            "midi": 47,
            "name": "B2",
            "ticks": 57984,
            "time": 54.909036,
            "velocity": 0.28346456692913385
          },
          {
            "duration": 0.09090900000000346,
            "durationTicks": 96,
            "midi": 35,
            "name": "B1",
            "ticks": 58176,
            "time": 55.090854,
            "velocity": 0.28346456692913385
          },
          {
            "duration": 0.09090900000000346,
            "durationTicks": 96,
            "midi": 42,
            "name": "F#2",
            "ticks": 58368,
            "time": 55.272672,
            "velocity": 0.28346456692913385
          },
          {
            "duration": 0.09090900000000346,
            "durationTicks": 96,
            "midi": 47,
            "name": "B2",
            "ticks": 58560,
            "time": 55.45449,
            "velocity": 0.28346456692913385
          },
          {
            "duration": 0.09090900000000346,
            "durationTicks": 96,
            "midi": 42,
            "name": "F#2",
            "ticks": 58752,
            "time": 55.636308,
            "velocity": 0.28346456692913385
          },
          {
            "duration": 0.09090900000000346,
            "durationTicks": 96,
            "midi": 49,
            "name": "C#3",
            "ticks": 58944,
            "time": 55.818126,
            "velocity": 0.28346456692913385
          },
          {
            "duration": 0.09090900000000346,
            "durationTicks": 96,
            "midi": 54,
            "name": "F#3",
            "ticks": 59136,
            "time": 55.999944,
            "velocity": 0.28346456692913385
          },
          {
            "duration": 0.09090900000000346,
            "durationTicks": 96,
            "midi": 42,
            "name": "F#2",
            "ticks": 59328,
            "time": 56.181762,
            "velocity": 0.28346456692913385
          },
          {
            "duration": 0.09090900000000346,
            "durationTicks": 96,
            "midi": 49,
            "name": "C#3",
            "ticks": 59520,
            "time": 56.36358,
            "velocity": 0.28346456692913385
          },
          {
            "duration": 0.09090899999999635,
            "durationTicks": 96,
            "midi": 54,
            "name": "F#3",
            "ticks": 59712,
            "time": 56.545398000000006,
            "velocity": 0.28346456692913385
          },
          {
            "duration": 0.09090899999999635,
            "durationTicks": 96,
            "midi": 42,
            "name": "F#2",
            "ticks": 59904,
            "time": 56.727216000000006,
            "velocity": 0.28346456692913385
          },
          {
            "duration": 0.09090899999999635,
            "durationTicks": 96,
            "midi": 37,
            "name": "C#2",
            "ticks": 60096,
            "time": 56.909034000000005,
            "velocity": 0.28346456692913385
          },
          {
            "duration": 0.09090899999999635,
            "durationTicks": 96,
            "midi": 44,
            "name": "G#2",
            "ticks": 60288,
            "time": 57.090852000000005,
            "velocity": 0.28346456692913385
          },
          {
            "duration": 0.09090899999999635,
            "durationTicks": 96,
            "midi": 49,
            "name": "C#3",
            "ticks": 60480,
            "time": 57.272670000000005,
            "velocity": 0.28346456692913385
          },
          {
            "duration": 0.09090899999999635,
            "durationTicks": 96,
            "midi": 37,
            "name": "C#2",
            "ticks": 60672,
            "time": 57.454488000000005,
            "velocity": 0.28346456692913385
          },
          {
            "duration": 0.09090899999999635,
            "durationTicks": 96,
            "midi": 44,
            "name": "G#2",
            "ticks": 60864,
            "time": 57.636306000000005,
            "velocity": 0.28346456692913385
          },
          {
            "duration": 0.09090899999999635,
            "durationTicks": 96,
            "midi": 49,
            "name": "C#3",
            "ticks": 61056,
            "time": 57.818124000000005,
            "velocity": 0.28346456692913385
          },
          {
            "duration": 0.09090899999999635,
            "durationTicks": 96,
            "midi": 37,
            "name": "C#2",
            "ticks": 61248,
            "time": 57.999942000000004,
            "velocity": 0.28346456692913385
          },
          {
            "duration": 0.09090899999999635,
            "durationTicks": 96,
            "midi": 44,
            "name": "G#2",
            "ticks": 61440,
            "time": 58.181760000000004,
            "velocity": 0.28346456692913385
          },
          {
            "duration": 0.09090899999999635,
            "durationTicks": 96,
            "midi": 49,
            "name": "C#3",
            "ticks": 61632,
            "time": 58.363578000000004,
            "velocity": 0.28346456692913385
          },
          {
            "duration": 0.09090899999999635,
            "durationTicks": 96,
            "midi": 39,
            "name": "D#2",
            "ticks": 61824,
            "time": 58.545396000000004,
            "velocity": 0.28346456692913385
          },
          {
            "duration": 0.09090899999999635,
            "durationTicks": 96,
            "midi": 46,
            "name": "A#2",
            "ticks": 62016,
            "time": 58.727214000000004,
            "velocity": 0.28346456692913385
          },
          {
            "duration": 0.09090899999999635,
            "durationTicks": 96,
            "midi": 51,
            "name": "D#3",
            "ticks": 62208,
            "time": 58.909032,
            "velocity": 0.28346456692913385
          },
          {
            "duration": 0.09090899999999635,
            "durationTicks": 96,
            "midi": 39,
            "name": "D#2",
            "ticks": 62400,
            "time": 59.09085,
            "velocity": 0.28346456692913385
          },
          {
            "duration": 0.09090899999999635,
            "durationTicks": 96,
            "midi": 46,
            "name": "A#2",
            "ticks": 62592,
            "time": 59.272668,
            "velocity": 0.28346456692913385
          },
          {
            "duration": 0.09090899999999635,
            "durationTicks": 96,
            "midi": 51,
            "name": "D#3",
            "ticks": 62784,
            "time": 59.454486,
            "velocity": 0.28346456692913385
          },
          {
            "duration": 0.09090899999999635,
            "durationTicks": 96,
            "midi": 42,
            "name": "F#2",
            "ticks": 62976,
            "time": 59.636304,
            "velocity": 0.28346456692913385
          },
          {
            "duration": 0.09090900000000346,
            "durationTicks": 96,
            "midi": 35,
            "name": "B1",
            "ticks": 63168,
            "time": 59.818122,
            "velocity": 0.28346456692913385
          },
          {
            "duration": 0.09090900000000346,
            "durationTicks": 96,
            "midi": 42,
            "name": "F#2",
            "ticks": 63360,
            "time": 59.99994,
            "velocity": 0.28346456692913385
          },
          {
            "duration": 0.09090900000000346,
            "durationTicks": 96,
            "midi": 47,
            "name": "B2",
            "ticks": 63552,
            "time": 60.181758,
            "velocity": 0.28346456692913385
          },
          {
            "duration": 0.09090900000000346,
            "durationTicks": 96,
            "midi": 35,
            "name": "B1",
            "ticks": 63744,
            "time": 60.363576,
            "velocity": 0.28346456692913385
          },
          {
            "duration": 0.09090900000000346,
            "durationTicks": 96,
            "midi": 42,
            "name": "F#2",
            "ticks": 63936,
            "time": 60.545394,
            "velocity": 0.28346456692913385
          },
          {
            "duration": 0.09090900000000346,
            "durationTicks": 96,
            "midi": 47,
            "name": "B2",
            "ticks": 64128,
            "time": 60.727212,
            "velocity": 0.28346456692913385
          },
          {
            "duration": 0.09090900000000346,
            "durationTicks": 96,
            "midi": 42,
            "name": "F#2",
            "ticks": 64320,
            "time": 60.90903,
            "velocity": 0.28346456692913385
          },
          {
            "duration": 0.09090900000000346,
            "durationTicks": 96,
            "midi": 35,
            "name": "B1",
            "ticks": 64512,
            "time": 61.090848,
            "velocity": 0.28346456692913385
          },
          {
            "duration": 0.09090900000000346,
            "durationTicks": 96,
            "midi": 39,
            "name": "D#2",
            "ticks": 64704,
            "time": 61.272666,
            "velocity": 0.28346456692913385
          },
          {
            "duration": 0.09090900000000346,
            "durationTicks": 96,
            "midi": 42,
            "name": "F#2",
            "ticks": 64896,
            "time": 61.454484,
            "velocity": 0.28346456692913385
          },
          {
            "duration": 0.09090900000000346,
            "durationTicks": 96,
            "midi": 49,
            "name": "C#3",
            "ticks": 65088,
            "time": 61.636302,
            "velocity": 0.28346456692913385
          },
          {
            "duration": 0.09090900000000346,
            "durationTicks": 96,
            "midi": 54,
            "name": "F#3",
            "ticks": 65280,
            "time": 61.81812,
            "velocity": 0.28346456692913385
          },
          {
            "duration": 0.09090900000000346,
            "durationTicks": 96,
            "midi": 42,
            "name": "F#2",
            "ticks": 65472,
            "time": 61.999938,
            "velocity": 0.28346456692913385
          },
          {
            "duration": 0.09090900000000346,
            "durationTicks": 96,
            "midi": 49,
            "name": "C#3",
            "ticks": 65664,
            "time": 62.181756,
            "velocity": 0.28346456692913385
          },
          {
            "duration": 0.09090900000000346,
            "durationTicks": 96,
            "midi": 54,
            "name": "F#3",
            "ticks": 65856,
            "time": 62.363574,
            "velocity": 0.28346456692913385
          },
          {
            "duration": 0.09090900000000346,
            "durationTicks": 96,
            "midi": 42,
            "name": "F#2",
            "ticks": 66048,
            "time": 62.545392,
            "velocity": 0.28346456692913385
          },
          {
            "duration": 0.09090900000000346,
            "durationTicks": 96,
            "midi": 49,
            "name": "C#3",
            "ticks": 66240,
            "time": 62.72721,
            "velocity": 0.28346456692913385
          },
          {
            "duration": 0.09090900000000346,
            "durationTicks": 96,
            "midi": 37,
            "name": "C#2",
            "ticks": 66432,
            "time": 62.909028,
            "velocity": 0.28346456692913385
          },
          {
            "duration": 0.09090900000000346,
            "durationTicks": 96,
            "midi": 44,
            "name": "G#2",
            "ticks": 66624,
            "time": 63.090846,
            "velocity": 0.28346456692913385
          },
          {
            "duration": 0.09090899999999635,
            "durationTicks": 96,
            "midi": 49,
            "name": "C#3",
            "ticks": 66816,
            "time": 63.272664000000006,
            "velocity": 0.28346456692913385
          },
          {
            "duration": 0.09090899999999635,
            "durationTicks": 96,
            "midi": 37,
            "name": "C#2",
            "ticks": 67008,
            "time": 63.454482000000006,
            "velocity": 0.28346456692913385
          },
          {
            "duration": 0.09090899999999635,
            "durationTicks": 96,
            "midi": 44,
            "name": "G#2",
            "ticks": 67200,
            "time": 63.636300000000006,
            "velocity": 0.28346456692913385
          },
          {
            "duration": 0.09090899999999635,
            "durationTicks": 96,
            "midi": 49,
            "name": "C#3",
            "ticks": 67392,
            "time": 63.818118000000005,
            "velocity": 0.28346456692913385
          },
          {
            "duration": 0.09090899999999635,
            "durationTicks": 96,
            "midi": 37,
            "name": "C#2",
            "ticks": 67584,
            "time": 63.999936000000005,
            "velocity": 0.28346456692913385
          },
          {
            "duration": 0.09090900000001056,
            "durationTicks": 96,
            "midi": 44,
            "name": "G#2",
            "ticks": 67776,
            "time": 64.181754,
            "velocity": 0.28346456692913385
          },
          {
            "duration": 0.09090899999999635,
            "durationTicks": 96,
            "midi": 39,
            "name": "D#2",
            "ticks": 67968,
            "time": 64.363572,
            "velocity": 0.28346456692913385
          },
          {
            "duration": 0.09090900000001056,
            "durationTicks": 96,
            "midi": 46,
            "name": "A#2",
            "ticks": 68160,
            "time": 64.54539,
            "velocity": 0.28346456692913385
          },
          {
            "duration": 0.09090899999999635,
            "durationTicks": 96,
            "midi": 51,
            "name": "D#3",
            "ticks": 68352,
            "time": 64.727208,
            "velocity": 0.28346456692913385
          },
          {
            "duration": 0.09090900000001056,
            "durationTicks": 96,
            "midi": 39,
            "name": "D#2",
            "ticks": 68544,
            "time": 64.909026,
            "velocity": 0.28346456692913385
          },
          {
            "duration": 0.09090899999999635,
            "durationTicks": 96,
            "midi": 46,
            "name": "A#2",
            "ticks": 68736,
            "time": 65.090844,
            "velocity": 0.28346456692913385
          },
          {
            "duration": 0.09090900000001056,
            "durationTicks": 96,
            "midi": 51,
            "name": "D#3",
            "ticks": 68928,
            "time": 65.272662,
            "velocity": 0.28346456692913385
          },
          {
            "duration": 0.09090899999999635,
            "durationTicks": 96,
            "midi": 39,
            "name": "D#2",
            "ticks": 69120,
            "time": 65.45448,
            "velocity": 0.28346456692913385
          },
          {
            "duration": 0.09090900000001056,
            "durationTicks": 96,
            "midi": 46,
            "name": "A#2",
            "ticks": 69312,
            "time": 65.636298,
            "velocity": 0.28346456692913385
          },
          {
            "duration": 0.09090899999999635,
            "durationTicks": 96,
            "midi": 35,
            "name": "B1",
            "ticks": 69504,
            "time": 65.818116,
            "velocity": 0.28346456692913385
          },
          {
            "duration": 0.09090900000001056,
            "durationTicks": 96,
            "midi": 42,
            "name": "F#2",
            "ticks": 69696,
            "time": 65.999934,
            "velocity": 0.28346456692913385
          },
          {
            "duration": 0.09090899999999635,
            "durationTicks": 96,
            "midi": 47,
            "name": "B2",
            "ticks": 69888,
            "time": 66.181752,
            "velocity": 0.28346456692913385
          },
          {
            "duration": 0.09090900000001056,
            "durationTicks": 96,
            "midi": 35,
            "name": "B1",
            "ticks": 70080,
            "time": 66.36357,
            "velocity": 0.28346456692913385
          },
          {
            "duration": 0.09090899999999635,
            "durationTicks": 96,
            "midi": 42,
            "name": "F#2",
            "ticks": 70272,
            "time": 66.545388,
            "velocity": 0.28346456692913385
          },
          {
            "duration": 0.09090899999999635,
            "durationTicks": 96,
            "midi": 47,
            "name": "B2",
            "ticks": 70464,
            "time": 66.72720600000001,
            "velocity": 0.28346456692913385
          },
          {
            "duration": 0.09090899999999635,
            "durationTicks": 96,
            "midi": 35,
            "name": "B1",
            "ticks": 70656,
            "time": 66.909024,
            "velocity": 0.28346456692913385
          },
          {
            "duration": 0.09090899999999635,
            "durationTicks": 96,
            "midi": 42,
            "name": "F#2",
            "ticks": 70848,
            "time": 67.09084200000001,
            "velocity": 0.28346456692913385
          },
          {
            "duration": 0.09090899999999635,
            "durationTicks": 96,
            "midi": 42,
            "name": "F#2",
            "ticks": 71040,
            "time": 67.27266,
            "velocity": 0.28346456692913385
          },
          {
            "duration": 0.09090899999999635,
            "durationTicks": 96,
            "midi": 49,
            "name": "C#3",
            "ticks": 71232,
            "time": 67.45447800000001,
            "velocity": 0.28346456692913385
          },
          {
            "duration": 0.09090899999999635,
            "durationTicks": 96,
            "midi": 54,
            "name": "F#3",
            "ticks": 71424,
            "time": 67.636296,
            "velocity": 0.28346456692913385
          },
          {
            "duration": 0.09090899999999635,
            "durationTicks": 96,
            "midi": 42,
            "name": "F#2",
            "ticks": 71616,
            "time": 67.81811400000001,
            "velocity": 0.28346456692913385
          },
          {
            "duration": 0.09090899999999635,
            "durationTicks": 96,
            "midi": 49,
            "name": "C#3",
            "ticks": 71808,
            "time": 67.999932,
            "velocity": 0.28346456692913385
          },
          {
            "duration": 0.09090899999999635,
            "durationTicks": 96,
            "midi": 54,
            "name": "F#3",
            "ticks": 72000,
            "time": 68.18175000000001,
            "velocity": 0.28346456692913385
          },
          {
            "duration": 0.09090899999999635,
            "durationTicks": 96,
            "midi": 42,
            "name": "F#2",
            "ticks": 72192,
            "time": 68.363568,
            "velocity": 0.28346456692913385
          },
          {
            "duration": 0.09090899999999635,
            "durationTicks": 96,
            "midi": 49,
            "name": "C#3",
            "ticks": 72384,
            "time": 68.54538600000001,
            "velocity": 0.28346456692913385
          },
          {
            "duration": 0.09090899999999635,
            "durationTicks": 96,
            "midi": 37,
            "name": "C#2",
            "ticks": 72576,
            "time": 68.727204,
            "velocity": 0.28346456692913385
          },
          {
            "duration": 0.09090899999999635,
            "durationTicks": 96,
            "midi": 44,
            "name": "G#2",
            "ticks": 72768,
            "time": 68.90902200000001,
            "velocity": 0.28346456692913385
          },
          {
            "duration": 0.09090899999999635,
            "durationTicks": 96,
            "midi": 49,
            "name": "C#3",
            "ticks": 72960,
            "time": 69.09084,
            "velocity": 0.28346456692913385
          },
          {
            "duration": 0.09090899999999635,
            "durationTicks": 96,
            "midi": 37,
            "name": "C#2",
            "ticks": 73152,
            "time": 69.272658,
            "velocity": 0.28346456692913385
          },
          {
            "duration": 0.09090899999999635,
            "durationTicks": 96,
            "midi": 44,
            "name": "G#2",
            "ticks": 73344,
            "time": 69.454476,
            "velocity": 0.28346456692913385
          },
          {
            "duration": 0.09090899999999635,
            "durationTicks": 96,
            "midi": 49,
            "name": "C#3",
            "ticks": 73536,
            "time": 69.636294,
            "velocity": 0.28346456692913385
          },
          {
            "duration": 0.09090900000001056,
            "durationTicks": 96,
            "midi": 37,
            "name": "C#2",
            "ticks": 73728,
            "time": 69.818112,
            "velocity": 0.28346456692913385
          },
          {
            "duration": 0.09090899999999635,
            "durationTicks": 96,
            "midi": 44,
            "name": "G#2",
            "ticks": 73920,
            "time": 69.99993,
            "velocity": 0.28346456692913385
          },
          {
            "duration": 0.09090900000001056,
            "durationTicks": 96,
            "midi": 39,
            "name": "D#2",
            "ticks": 74112,
            "time": 70.181748,
            "velocity": 0.28346456692913385
          },
          {
            "duration": 0.09090899999999635,
            "durationTicks": 96,
            "midi": 46,
            "name": "A#2",
            "ticks": 74304,
            "time": 70.363566,
            "velocity": 0.28346456692913385
          },
          {
            "duration": 0.09090900000001056,
            "durationTicks": 96,
            "midi": 51,
            "name": "D#3",
            "ticks": 74496,
            "time": 70.545384,
            "velocity": 0.28346456692913385
          },
          {
            "duration": 0.09090899999999635,
            "durationTicks": 96,
            "midi": 39,
            "name": "D#2",
            "ticks": 74688,
            "time": 70.727202,
            "velocity": 0.28346456692913385
          },
          {
            "duration": 0.09090900000001056,
            "durationTicks": 96,
            "midi": 46,
            "name": "A#2",
            "ticks": 74880,
            "time": 70.90902,
            "velocity": 0.28346456692913385
          },
          {
            "duration": 0.09090899999999635,
            "durationTicks": 96,
            "midi": 51,
            "name": "D#3",
            "ticks": 75072,
            "time": 71.090838,
            "velocity": 0.28346456692913385
          },
          {
            "duration": 0.09090900000001056,
            "durationTicks": 96,
            "midi": 39,
            "name": "D#2",
            "ticks": 75264,
            "time": 71.272656,
            "velocity": 0.28346456692913385
          },
          {
            "duration": 0.09090899999999635,
            "durationTicks": 96,
            "midi": 46,
            "name": "A#2",
            "ticks": 75456,
            "time": 71.454474,
            "velocity": 0.28346456692913385
          },
          {
            "duration": 0.09090900000001056,
            "durationTicks": 96,
            "midi": 35,
            "name": "B1",
            "ticks": 75648,
            "time": 71.636292,
            "velocity": 0.28346456692913385
          },
          {
            "duration": 0.09090899999999635,
            "durationTicks": 96,
            "midi": 42,
            "name": "F#2",
            "ticks": 75840,
            "time": 71.81811,
            "velocity": 0.28346456692913385
          },
          {
            "duration": 0.09090900000001056,
            "durationTicks": 96,
            "midi": 47,
            "name": "B2",
            "ticks": 76032,
            "time": 71.999928,
            "velocity": 0.28346456692913385
          },
          {
            "duration": 0.09090899999999635,
            "durationTicks": 96,
            "midi": 35,
            "name": "B1",
            "ticks": 76224,
            "time": 72.181746,
            "velocity": 0.28346456692913385
          },
          {
            "duration": 0.09090900000001056,
            "durationTicks": 96,
            "midi": 47,
            "name": "B2",
            "ticks": 76416,
            "time": 72.363564,
            "velocity": 0.28346456692913385
          },
          {
            "duration": 0.09090900000001056,
            "durationTicks": 96,
            "midi": 35,
            "name": "B1",
            "ticks": 76800,
            "time": 72.7272,
            "velocity": 0.28346456692913385
          },
          {
            "duration": 0.09090900000001056,
            "durationTicks": 96,
            "midi": 42,
            "name": "F#2",
            "ticks": 77184,
            "time": 73.090836,
            "velocity": 0.28346456692913385
          },
          {
            "duration": 0.09090899999999635,
            "durationTicks": 96,
            "midi": 54,
            "name": "F#3",
            "ticks": 77376,
            "time": 73.272654,
            "velocity": 0.28346456692913385
          },
          {
            "duration": 0.09090899999999635,
            "durationTicks": 96,
            "midi": 42,
            "name": "F#2",
            "ticks": 77568,
            "time": 73.45447200000001,
            "velocity": 0.28346456692913385
          },
          {
            "duration": 0.09090899999999635,
            "durationTicks": 96,
            "midi": 54,
            "name": "F#3",
            "ticks": 77760,
            "time": 73.63629,
            "velocity": 0.28346456692913385
          },
          {
            "duration": 0.09090899999999635,
            "durationTicks": 96,
            "midi": 42,
            "name": "F#2",
            "ticks": 77952,
            "time": 73.81810800000001,
            "velocity": 0.28346456692913385
          },
          {
            "duration": 0.09090899999999635,
            "durationTicks": 96,
            "midi": 54,
            "name": "F#3",
            "ticks": 78144,
            "time": 73.999926,
            "velocity": 0.28346456692913385
          },
          {
            "duration": 0.09090899999999635,
            "durationTicks": 96,
            "midi": 42,
            "name": "F#2",
            "ticks": 78336,
            "time": 74.18174400000001,
            "velocity": 0.28346456692913385
          },
          {
            "duration": 0.09090899999999635,
            "durationTicks": 96,
            "midi": 54,
            "name": "F#3",
            "ticks": 78528,
            "time": 74.363562,
            "velocity": 0.28346456692913385
          },
          {
            "duration": 0.09090899999999635,
            "durationTicks": 96,
            "midi": 42,
            "name": "F#2",
            "ticks": 78720,
            "time": 74.54538000000001,
            "velocity": 0.28346456692913385
          },
          {
            "duration": 0.09090899999999635,
            "durationTicks": 96,
            "midi": 54,
            "name": "F#3",
            "ticks": 78912,
            "time": 74.727198,
            "velocity": 0.28346456692913385
          },
          {
            "duration": 0.09090899999999635,
            "durationTicks": 96,
            "midi": 42,
            "name": "F#2",
            "ticks": 79104,
            "time": 74.90901600000001,
            "velocity": 0.28346456692913385
          },
          {
            "duration": 0.09090899999999635,
            "durationTicks": 96,
            "midi": 54,
            "name": "F#3",
            "ticks": 79296,
            "time": 75.090834,
            "velocity": 0.28346456692913385
          },
          {
            "duration": 0.09090899999999635,
            "durationTicks": 96,
            "midi": 42,
            "name": "F#2",
            "ticks": 79488,
            "time": 75.27265200000001,
            "velocity": 0.28346456692913385
          },
          {
            "duration": 0.09090899999999635,
            "durationTicks": 96,
            "midi": 54,
            "name": "F#3",
            "ticks": 79680,
            "time": 75.45447,
            "velocity": 0.28346456692913385
          },
          {
            "duration": 0.09090899999999635,
            "durationTicks": 96,
            "midi": 42,
            "name": "F#2",
            "ticks": 79872,
            "time": 75.63628800000001,
            "velocity": 0.28346456692913385
          },
          {
            "duration": 0.09090899999999635,
            "durationTicks": 96,
            "midi": 54,
            "name": "F#3",
            "ticks": 80064,
            "time": 75.818106,
            "velocity": 0.28346456692913385
          },
          {
            "duration": 0.09090899999999635,
            "durationTicks": 96,
            "midi": 42,
            "name": "F#2",
            "ticks": 80256,
            "time": 75.99992400000001,
            "velocity": 0.28346456692913385
          },
          {
            "duration": 0.09090899999999635,
            "durationTicks": 96,
            "midi": 54,
            "name": "F#3",
            "ticks": 80448,
            "time": 76.181742,
            "velocity": 0.28346456692913385
          },
          {
            "duration": 0.09090899999999635,
            "durationTicks": 96,
            "midi": 42,
            "name": "F#2",
            "ticks": 80640,
            "time": 76.36356,
            "velocity": 0.28346456692913385
          },
          {
            "duration": 0.09090900000001056,
            "durationTicks": 96,
            "midi": 54,
            "name": "F#3",
            "ticks": 80832,
            "time": 76.545378,
            "velocity": 0.28346456692913385
          },
          {
            "duration": 0.09090899999999635,
            "durationTicks": 96,
            "midi": 42,
            "name": "F#2",
            "ticks": 81024,
            "time": 76.727196,
            "velocity": 0.28346456692913385
          },
          {
            "duration": 0.09090900000001056,
            "durationTicks": 96,
            "midi": 54,
            "name": "F#3",
            "ticks": 81216,
            "time": 76.909014,
            "velocity": 0.28346456692913385
          },
          {
            "duration": 0.09090899999999635,
            "durationTicks": 96,
            "midi": 42,
            "name": "F#2",
            "ticks": 81408,
            "time": 77.090832,
            "velocity": 0.28346456692913385
          },
          {
            "duration": 0.09090900000001056,
            "durationTicks": 96,
            "midi": 54,
            "name": "F#3",
            "ticks": 81600,
            "time": 77.27265,
            "velocity": 0.28346456692913385
          },
          {
            "duration": 0.09090899999999635,
            "durationTicks": 96,
            "midi": 42,
            "name": "F#2",
            "ticks": 81792,
            "time": 77.454468,
            "velocity": 0.28346456692913385
          },
          {
            "duration": 0.09090900000001056,
            "durationTicks": 96,
            "midi": 54,
            "name": "F#3",
            "ticks": 81984,
            "time": 77.636286,
            "velocity": 0.28346456692913385
          },
          {
            "duration": 0.09090899999999635,
            "durationTicks": 96,
            "midi": 42,
            "name": "F#2",
            "ticks": 82176,
            "time": 77.818104,
            "velocity": 0.28346456692913385
          },
          {
            "duration": 0.09090900000001056,
            "durationTicks": 96,
            "midi": 54,
            "name": "F#3",
            "ticks": 82368,
            "time": 77.999922,
            "velocity": 0.28346456692913385
          },
          {
            "duration": 0.09090899999999635,
            "durationTicks": 96,
            "midi": 42,
            "name": "F#2",
            "ticks": 82560,
            "time": 78.18174,
            "velocity": 0.28346456692913385
          },
          {
            "duration": 0.09090900000001056,
            "durationTicks": 96,
            "midi": 54,
            "name": "F#3",
            "ticks": 82752,
            "time": 78.363558,
            "velocity": 0.28346456692913385
          },
          {
            "duration": 0.09090899999999635,
            "durationTicks": 96,
            "midi": 42,
            "name": "F#2",
            "ticks": 82944,
            "time": 78.545376,
            "velocity": 0.28346456692913385
          },
          {
            "duration": 0.09090900000001056,
            "durationTicks": 96,
            "midi": 54,
            "name": "F#3",
            "ticks": 83136,
            "time": 78.727194,
            "velocity": 0.28346456692913385
          },
          {
            "duration": 0.09090899999999635,
            "durationTicks": 96,
            "midi": 37,
            "name": "C#2",
            "ticks": 83328,
            "time": 78.909012,
            "velocity": 0.28346456692913385
          },
          {
            "duration": 0.09090900000001056,
            "durationTicks": 96,
            "midi": 49,
            "name": "C#3",
            "ticks": 83520,
            "time": 79.09083,
            "velocity": 0.28346456692913385
          },
          {
            "duration": 0.09090899999999635,
            "durationTicks": 96,
            "midi": 37,
            "name": "C#2",
            "ticks": 83712,
            "time": 79.272648,
            "velocity": 0.28346456692913385
          },
          {
            "duration": 0.09090900000001056,
            "durationTicks": 96,
            "midi": 49,
            "name": "C#3",
            "ticks": 83904,
            "time": 79.454466,
            "velocity": 0.28346456692913385
          },
          {
            "duration": 0.09090899999999635,
            "durationTicks": 96,
            "midi": 37,
            "name": "C#2",
            "ticks": 84096,
            "time": 79.636284,
            "velocity": 0.28346456692913385
          },
          {
            "duration": 0.09090899999999635,
            "durationTicks": 96,
            "midi": 49,
            "name": "C#3",
            "ticks": 84288,
            "time": 79.81810200000001,
            "velocity": 0.28346456692913385
          },
          {
            "duration": 0.09090899999999635,
            "durationTicks": 96,
            "midi": 37,
            "name": "C#2",
            "ticks": 84480,
            "time": 79.99992,
            "velocity": 0.28346456692913385
          },
          {
            "duration": 0.09090899999999635,
            "durationTicks": 96,
            "midi": 49,
            "name": "C#3",
            "ticks": 84672,
            "time": 80.18173800000001,
            "velocity": 0.28346456692913385
          },
          {
            "duration": 0.09090899999999635,
            "durationTicks": 96,
            "midi": 37,
            "name": "C#2",
            "ticks": 84864,
            "time": 80.363556,
            "velocity": 0.28346456692913385
          },
          {
            "duration": 0.09090899999999635,
            "durationTicks": 96,
            "midi": 49,
            "name": "C#3",
            "ticks": 85056,
            "time": 80.54537400000001,
            "velocity": 0.28346456692913385
          },
          {
            "duration": 0.09090899999999635,
            "durationTicks": 96,
            "midi": 37,
            "name": "C#2",
            "ticks": 85248,
            "time": 80.727192,
            "velocity": 0.28346456692913385
          },
          {
            "duration": 0.09090899999999635,
            "durationTicks": 96,
            "midi": 49,
            "name": "C#3",
            "ticks": 85440,
            "time": 80.90901000000001,
            "velocity": 0.28346456692913385
          },
          {
            "duration": 0.09090899999999635,
            "durationTicks": 96,
            "midi": 37,
            "name": "C#2",
            "ticks": 85632,
            "time": 81.090828,
            "velocity": 0.28346456692913385
          },
          {
            "duration": 0.09090899999999635,
            "durationTicks": 96,
            "midi": 49,
            "name": "C#3",
            "ticks": 85824,
            "time": 81.27264600000001,
            "velocity": 0.28346456692913385
          },
          {
            "duration": 0.09090899999999635,
            "durationTicks": 96,
            "midi": 42,
            "name": "F#2",
            "ticks": 86016,
            "time": 81.454464,
            "velocity": 0.28346456692913385
          },
          {
            "duration": 0.09090899999999635,
            "durationTicks": 96,
            "midi": 54,
            "name": "F#3",
            "ticks": 86208,
            "time": 81.63628200000001,
            "velocity": 0.28346456692913385
          },
          {
            "duration": 0.09090899999999635,
            "durationTicks": 96,
            "midi": 42,
            "name": "F#2",
            "ticks": 86400,
            "time": 81.8181,
            "velocity": 0.28346456692913385
          },
          {
            "duration": 0.09090899999999635,
            "durationTicks": 96,
            "midi": 54,
            "name": "F#3",
            "ticks": 86592,
            "time": 81.99991800000001,
            "velocity": 0.28346456692913385
          },
          {
            "duration": 0.09090899999999635,
            "durationTicks": 96,
            "midi": 42,
            "name": "F#2",
            "ticks": 86784,
            "time": 82.181736,
            "velocity": 0.28346456692913385
          },
          {
            "duration": 0.09090899999999635,
            "durationTicks": 96,
            "midi": 54,
            "name": "F#3",
            "ticks": 86976,
            "time": 82.36355400000001,
            "velocity": 0.28346456692913385
          },
          {
            "duration": 0.09090899999999635,
            "durationTicks": 96,
            "midi": 42,
            "name": "F#2",
            "ticks": 87168,
            "time": 82.545372,
            "velocity": 0.28346456692913385
          },
          {
            "duration": 0.09090899999999635,
            "durationTicks": 96,
            "midi": 54,
            "name": "F#3",
            "ticks": 87360,
            "time": 82.72719000000001,
            "velocity": 0.28346456692913385
          },
          {
            "duration": 0.09090899999999635,
            "durationTicks": 96,
            "midi": 42,
            "name": "F#2",
            "ticks": 87552,
            "time": 82.909008,
            "velocity": 0.28346456692913385
          },
          {
            "duration": 0.09090899999999635,
            "durationTicks": 96,
            "midi": 54,
            "name": "F#3",
            "ticks": 87744,
            "time": 83.090826,
            "velocity": 0.28346456692913385
          },
          {
            "duration": 0.09090900000001056,
            "durationTicks": 96,
            "midi": 42,
            "name": "F#2",
            "ticks": 87936,
            "time": 83.272644,
            "velocity": 0.28346456692913385
          },
          {
            "duration": 0.09090899999999635,
            "durationTicks": 96,
            "midi": 54,
            "name": "F#3",
            "ticks": 88128,
            "time": 83.454462,
            "velocity": 0.28346456692913385
          },
          {
            "duration": 0.09090900000001056,
            "durationTicks": 96,
            "midi": 42,
            "name": "F#2",
            "ticks": 88320,
            "time": 83.63628,
            "velocity": 0.28346456692913385
          },
          {
            "duration": 0.09090899999999635,
            "durationTicks": 96,
            "midi": 54,
            "name": "F#3",
            "ticks": 88512,
            "time": 83.818098,
            "velocity": 0.28346456692913385
          },
          {
            "duration": 0.09090900000001056,
            "durationTicks": 96,
            "midi": 42,
            "name": "F#2",
            "ticks": 88704,
            "time": 83.999916,
            "velocity": 0.28346456692913385
          },
          {
            "duration": 0.09090899999999635,
            "durationTicks": 96,
            "midi": 54,
            "name": "F#3",
            "ticks": 88896,
            "time": 84.181734,
            "velocity": 0.28346456692913385
          },
          {
            "duration": 0.09090900000001056,
            "durationTicks": 96,
            "midi": 42,
            "name": "F#2",
            "ticks": 89088,
            "time": 84.363552,
            "velocity": 0.28346456692913385
          },
          {
            "duration": 0.09090899999999635,
            "durationTicks": 96,
            "midi": 54,
            "name": "F#3",
            "ticks": 89280,
            "time": 84.54537,
            "velocity": 0.28346456692913385
          },
          {
            "duration": 0.09090900000001056,
            "durationTicks": 96,
            "midi": 42,
            "name": "F#2",
            "ticks": 89472,
            "time": 84.727188,
            "velocity": 0.28346456692913385
          },
          {
            "duration": 0.09090899999999635,
            "durationTicks": 96,
            "midi": 54,
            "name": "F#3",
            "ticks": 89664,
            "time": 84.909006,
            "velocity": 0.28346456692913385
          },
          {
            "duration": 0.09090900000001056,
            "durationTicks": 96,
            "midi": 42,
            "name": "F#2",
            "ticks": 89856,
            "time": 85.090824,
            "velocity": 0.28346456692913385
          },
          {
            "duration": 0.09090899999999635,
            "durationTicks": 96,
            "midi": 54,
            "name": "F#3",
            "ticks": 90048,
            "time": 85.272642,
            "velocity": 0.28346456692913385
          },
          {
            "duration": 0.09090900000001056,
            "durationTicks": 96,
            "midi": 42,
            "name": "F#2",
            "ticks": 90240,
            "time": 85.45446,
            "velocity": 0.28346456692913385
          },
          {
            "duration": 0.09090899999999635,
            "durationTicks": 96,
            "midi": 54,
            "name": "F#3",
            "ticks": 90432,
            "time": 85.636278,
            "velocity": 0.28346456692913385
          },
          {
            "duration": 0.09090900000001056,
            "durationTicks": 96,
            "midi": 42,
            "name": "F#2",
            "ticks": 90624,
            "time": 85.818096,
            "velocity": 0.28346456692913385
          },
          {
            "duration": 0.09090899999999635,
            "durationTicks": 96,
            "midi": 54,
            "name": "F#3",
            "ticks": 90816,
            "time": 85.999914,
            "velocity": 0.28346456692913385
          },
          {
            "duration": 0.09090900000001056,
            "durationTicks": 96,
            "midi": 42,
            "name": "F#2",
            "ticks": 91008,
            "time": 86.181732,
            "velocity": 0.28346456692913385
          },
          {
            "duration": 0.09090899999999635,
            "durationTicks": 96,
            "midi": 54,
            "name": "F#3",
            "ticks": 91200,
            "time": 86.36355,
            "velocity": 0.28346456692913385
          },
          {
            "duration": 0.09090899999999635,
            "durationTicks": 96,
            "midi": 42,
            "name": "F#2",
            "ticks": 91392,
            "time": 86.54536800000001,
            "velocity": 0.28346456692913385
          },
          {
            "duration": 0.09090899999999635,
            "durationTicks": 96,
            "midi": 54,
            "name": "F#3",
            "ticks": 91584,
            "time": 86.727186,
            "velocity": 0.28346456692913385
          },
          {
            "duration": 0.09090899999999635,
            "durationTicks": 96,
            "midi": 42,
            "name": "F#2",
            "ticks": 91776,
            "time": 86.90900400000001,
            "velocity": 0.28346456692913385
          },
          {
            "duration": 0.09090899999999635,
            "durationTicks": 96,
            "midi": 54,
            "name": "F#3",
            "ticks": 91968,
            "time": 87.090822,
            "velocity": 0.28346456692913385
          },
          {
            "duration": 0.09090899999999635,
            "durationTicks": 96,
            "midi": 42,
            "name": "F#2",
            "ticks": 92160,
            "time": 87.27264000000001,
            "velocity": 0.28346456692913385
          },
          {
            "duration": 0.09090899999999635,
            "durationTicks": 96,
            "midi": 54,
            "name": "F#3",
            "ticks": 92352,
            "time": 87.454458,
            "velocity": 0.28346456692913385
          },
          {
            "duration": 0.09090899999999635,
            "durationTicks": 96,
            "midi": 42,
            "name": "F#2",
            "ticks": 92544,
            "time": 87.63627600000001,
            "velocity": 0.28346456692913385
          },
          {
            "duration": 0.09090899999999635,
            "durationTicks": 96,
            "midi": 54,
            "name": "F#3",
            "ticks": 92736,
            "time": 87.818094,
            "velocity": 0.28346456692913385
          },
          {
            "duration": 0.09090899999999635,
            "durationTicks": 96,
            "midi": 42,
            "name": "F#2",
            "ticks": 92928,
            "time": 87.99991200000001,
            "velocity": 0.28346456692913385
          },
          {
            "duration": 0.09090899999999635,
            "durationTicks": 96,
            "midi": 54,
            "name": "F#3",
            "ticks": 93120,
            "time": 88.18173,
            "velocity": 0.28346456692913385
          },
          {
            "duration": 0.09090899999999635,
            "durationTicks": 96,
            "midi": 42,
            "name": "F#2",
            "ticks": 93312,
            "time": 88.36354800000001,
            "velocity": 0.28346456692913385
          },
          {
            "duration": 0.09090899999999635,
            "durationTicks": 96,
            "midi": 54,
            "name": "F#3",
            "ticks": 93504,
            "time": 88.545366,
            "velocity": 0.28346456692913385
          },
          {
            "duration": 0.09090899999999635,
            "durationTicks": 96,
            "midi": 42,
            "name": "F#2",
            "ticks": 93696,
            "time": 88.72718400000001,
            "velocity": 0.28346456692913385
          },
          {
            "duration": 0.09090899999999635,
            "durationTicks": 96,
            "midi": 54,
            "name": "F#3",
            "ticks": 93888,
            "time": 88.909002,
            "velocity": 0.28346456692913385
          },
          {
            "duration": 0.09090899999999635,
            "durationTicks": 96,
            "midi": 42,
            "name": "F#2",
            "ticks": 94080,
            "time": 89.09082000000001,
            "velocity": 0.28346456692913385
          },
          {
            "duration": 0.09090899999999635,
            "durationTicks": 96,
            "midi": 54,
            "name": "F#3",
            "ticks": 94272,
            "time": 89.272638,
            "velocity": 0.28346456692913385
          },
          {
            "duration": 0.09090899999999635,
            "durationTicks": 96,
            "midi": 42,
            "name": "F#2",
            "ticks": 94464,
            "time": 89.45445600000001,
            "velocity": 0.28346456692913385
          },
          {
            "duration": 0.09090899999999635,
            "durationTicks": 96,
            "midi": 54,
            "name": "F#3",
            "ticks": 94656,
            "time": 89.636274,
            "velocity": 0.28346456692913385
          },
          {
            "duration": 0.09090899999999635,
            "durationTicks": 96,
            "midi": 42,
            "name": "F#2",
            "ticks": 94848,
            "time": 89.81809200000001,
            "velocity": 0.28346456692913385
          },
          {
            "duration": 0.09090900000001056,
            "durationTicks": 96,
            "midi": 54,
            "name": "F#3",
            "ticks": 95040,
            "time": 89.99991,
            "velocity": 0.28346456692913385
          },
          {
            "duration": 0.09090899999999635,
            "durationTicks": 96,
            "midi": 37,
            "name": "C#2",
            "ticks": 95232,
            "time": 90.181728,
            "velocity": 0.28346456692913385
          },
          {
            "duration": 0.09090900000001056,
            "durationTicks": 96,
            "midi": 49,
            "name": "C#3",
            "ticks": 95424,
            "time": 90.363546,
            "velocity": 0.28346456692913385
          },
          {
            "duration": 0.09090899999999635,
            "durationTicks": 96,
            "midi": 37,
            "name": "C#2",
            "ticks": 95616,
            "time": 90.545364,
            "velocity": 0.28346456692913385
          },
          {
            "duration": 0.09090900000001056,
            "durationTicks": 96,
            "midi": 49,
            "name": "C#3",
            "ticks": 95808,
            "time": 90.727182,
            "velocity": 0.28346456692913385
          },
          {
            "duration": 0.09090899999999635,
            "durationTicks": 96,
            "midi": 37,
            "name": "C#2",
            "ticks": 96000,
            "time": 90.909,
            "velocity": 0.28346456692913385
          },
          {
            "duration": 0.09090900000001056,
            "durationTicks": 96,
            "midi": 49,
            "name": "C#3",
            "ticks": 96192,
            "time": 91.090818,
            "velocity": 0.28346456692913385
          },
          {
            "duration": 0.09090899999999635,
            "durationTicks": 96,
            "midi": 37,
            "name": "C#2",
            "ticks": 96384,
            "time": 91.272636,
            "velocity": 0.28346456692913385
          },
          {
            "duration": 0.09090900000001056,
            "durationTicks": 96,
            "midi": 49,
            "name": "C#3",
            "ticks": 96576,
            "time": 91.454454,
            "velocity": 0.28346456692913385
          },
          {
            "duration": 0.09090899999999635,
            "durationTicks": 96,
            "midi": 37,
            "name": "C#2",
            "ticks": 96768,
            "time": 91.636272,
            "velocity": 0.28346456692913385
          },
          {
            "duration": 0.09090900000001056,
            "durationTicks": 96,
            "midi": 49,
            "name": "C#3",
            "ticks": 96960,
            "time": 91.81809,
            "velocity": 0.28346456692913385
          },
          {
            "duration": 0.09090899999999635,
            "durationTicks": 96,
            "midi": 37,
            "name": "C#2",
            "ticks": 97152,
            "time": 91.999908,
            "velocity": 0.28346456692913385
          },
          {
            "duration": 0.09090900000001056,
            "durationTicks": 96,
            "midi": 49,
            "name": "C#3",
            "ticks": 97344,
            "time": 92.181726,
            "velocity": 0.28346456692913385
          },
          {
            "duration": 0.09090899999999635,
            "durationTicks": 96,
            "midi": 37,
            "name": "C#2",
            "ticks": 97536,
            "time": 92.363544,
            "velocity": 0.28346456692913385
          },
          {
            "duration": 0.09090900000001056,
            "durationTicks": 96,
            "midi": 49,
            "name": "C#3",
            "ticks": 97728,
            "time": 92.545362,
            "velocity": 0.28346456692913385
          },
          {
            "duration": 0.09090899999999635,
            "durationTicks": 96,
            "midi": 37,
            "name": "C#2",
            "ticks": 97920,
            "time": 92.72718,
            "velocity": 0.28346456692913385
          },
          {
            "duration": 0.09090900000001056,
            "durationTicks": 96,
            "midi": 49,
            "name": "C#3",
            "ticks": 98112,
            "time": 92.908998,
            "velocity": 0.28346456692913385
          },
          {
            "duration": 0.09090899999999635,
            "durationTicks": 96,
            "midi": 42,
            "name": "F#2",
            "ticks": 98304,
            "time": 93.090816,
            "velocity": 0.28346456692913385
          },
          {
            "duration": 0.09090899999999635,
            "durationTicks": 96,
            "midi": 54,
            "name": "F#3",
            "ticks": 98496,
            "time": 93.27263400000001,
            "velocity": 0.28346456692913385
          },
          {
            "duration": 0.09090899999999635,
            "durationTicks": 96,
            "midi": 42,
            "name": "F#2",
            "ticks": 98688,
            "time": 93.454452,
            "velocity": 0.28346456692913385
          },
          {
            "duration": 0.09090899999999635,
            "durationTicks": 96,
            "midi": 54,
            "name": "F#3",
            "ticks": 98880,
            "time": 93.63627000000001,
            "velocity": 0.28346456692913385
          },
          {
            "duration": 0.09090899999999635,
            "durationTicks": 96,
            "midi": 42,
            "name": "F#2",
            "ticks": 99072,
            "time": 93.818088,
            "velocity": 0.28346456692913385
          },
          {
            "duration": 0.09090899999999635,
            "durationTicks": 96,
            "midi": 54,
            "name": "F#3",
            "ticks": 99264,
            "time": 93.99990600000001,
            "velocity": 0.28346456692913385
          },
          {
            "duration": 0.09090899999999635,
            "durationTicks": 96,
            "midi": 42,
            "name": "F#2",
            "ticks": 99456,
            "time": 94.181724,
            "velocity": 0.28346456692913385
          },
          {
            "duration": 0.09090899999999635,
            "durationTicks": 96,
            "midi": 54,
            "name": "F#3",
            "ticks": 99648,
            "time": 94.36354200000001,
            "velocity": 0.28346456692913385
          },
          {
            "duration": 0.09090899999999635,
            "durationTicks": 96,
            "midi": 42,
            "name": "F#2",
            "ticks": 99840,
            "time": 94.54536,
            "velocity": 0.28346456692913385
          },
          {
            "duration": 0.09090899999999635,
            "durationTicks": 96,
            "midi": 42,
            "name": "F#2",
            "ticks": 101376,
            "time": 95.999904,
            "velocity": 0.28346456692913385
          },
          {
            "duration": 0.09090899999999635,
            "durationTicks": 96,
            "midi": 49,
            "name": "C#3",
            "ticks": 101568,
            "time": 96.18172200000001,
            "velocity": 0.28346456692913385
          },
          {
            "duration": 0.09090900000001056,
            "durationTicks": 96,
            "midi": 54,
            "name": "F#3",
            "ticks": 101760,
            "time": 96.36354,
            "velocity": 0.28346456692913385
          },
          {
            "duration": 0.09090899999999635,
            "durationTicks": 96,
            "midi": 42,
            "name": "F#2",
            "ticks": 101952,
            "time": 96.54535800000001,
            "velocity": 0.28346456692913385
          },
          {
            "duration": 0.09090900000001056,
            "durationTicks": 96,
            "midi": 49,
            "name": "C#3",
            "ticks": 102144,
            "time": 96.727176,
            "velocity": 0.28346456692913385
          },
          {
            "duration": 0.09090899999999635,
            "durationTicks": 96,
            "midi": 54,
            "name": "F#3",
            "ticks": 102336,
            "time": 96.908994,
            "velocity": 0.28346456692913385
          },
          {
            "duration": 0.09090900000001056,
            "durationTicks": 96,
            "midi": 42,
            "name": "F#2",
            "ticks": 102528,
            "time": 97.090812,
            "velocity": 0.28346456692913385
          },
          {
            "duration": 0.09090899999999635,
            "durationTicks": 96,
            "midi": 37,
            "name": "C#2",
            "ticks": 102720,
            "time": 97.27263,
            "velocity": 0.28346456692913385
          },
          {
            "duration": 0.09090899999999635,
            "durationTicks": 96,
            "midi": 37,
            "name": "C#2",
            "ticks": 102720,
            "time": 97.27263,
            "velocity": 0.28346456692913385
          },
          {
            "duration": 0.09090900000001056,
            "durationTicks": 96,
            "midi": 44,
            "name": "G#2",
            "ticks": 102912,
            "time": 97.454448,
            "velocity": 0.28346456692913385
          },
          {
            "duration": 0.09090899999999635,
            "durationTicks": 96,
            "midi": 49,
            "name": "C#3",
            "ticks": 103104,
            "time": 97.636266,
            "velocity": 0.28346456692913385
          },
          {
            "duration": 0.09090900000001056,
            "durationTicks": 96,
            "midi": 37,
            "name": "C#2",
            "ticks": 103296,
            "time": 97.818084,
            "velocity": 0.28346456692913385
          },
          {
            "duration": 0.09090899999999635,
            "durationTicks": 96,
            "midi": 44,
            "name": "G#2",
            "ticks": 103488,
            "time": 97.999902,
            "velocity": 0.28346456692913385
          },
          {
            "duration": 0.09090900000001056,
            "durationTicks": 96,
            "midi": 49,
            "name": "C#3",
            "ticks": 103680,
            "time": 98.18172,
            "velocity": 0.28346456692913385
          },
          {
            "duration": 0.09090899999999635,
            "durationTicks": 96,
            "midi": 37,
            "name": "C#2",
            "ticks": 103872,
            "time": 98.363538,
            "velocity": 0.28346456692913385
          },
          {
            "duration": 0.09090900000001056,
            "durationTicks": 96,
            "midi": 44,
            "name": "G#2",
            "ticks": 104064,
            "time": 98.545356,
            "velocity": 0.28346456692913385
          },
          {
            "duration": 0.09090899999999635,
            "durationTicks": 96,
            "midi": 49,
            "name": "C#3",
            "ticks": 104256,
            "time": 98.727174,
            "velocity": 0.28346456692913385
          },
          {
            "duration": 0.09090900000001056,
            "durationTicks": 96,
            "midi": 39,
            "name": "D#2",
            "ticks": 104448,
            "time": 98.908992,
            "velocity": 0.28346456692913385
          },
          {
            "duration": 0.09090899999999635,
            "durationTicks": 96,
            "midi": 46,
            "name": "A#2",
            "ticks": 104640,
            "time": 99.09081,
            "velocity": 0.28346456692913385
          },
          {
            "duration": 0.09090900000001056,
            "durationTicks": 96,
            "midi": 51,
            "name": "D#3",
            "ticks": 104832,
            "time": 99.272628,
            "velocity": 0.28346456692913385
          },
          {
            "duration": 0.09090899999999635,
            "durationTicks": 96,
            "midi": 39,
            "name": "D#2",
            "ticks": 105024,
            "time": 99.454446,
            "velocity": 0.28346456692913385
          },
          {
            "duration": 0.09090900000001056,
            "durationTicks": 96,
            "midi": 46,
            "name": "A#2",
            "ticks": 105216,
            "time": 99.636264,
            "velocity": 0.28346456692913385
          },
          {
            "duration": 0.09090899999999635,
            "durationTicks": 96,
            "midi": 51,
            "name": "D#3",
            "ticks": 105408,
            "time": 99.818082,
            "velocity": 0.28346456692913385
          },
          {
            "duration": 0.09090899999999635,
            "durationTicks": 96,
            "midi": 39,
            "name": "D#2",
            "ticks": 105600,
            "time": 99.99990000000001,
            "velocity": 0.28346456692913385
          },
          {
            "duration": 0.09090899999999635,
            "durationTicks": 96,
            "midi": 35,
            "name": "B1",
            "ticks": 105792,
            "time": 100.181718,
            "velocity": 0.28346456692913385
          },
          {
            "duration": 0.09090899999999635,
            "durationTicks": 96,
            "midi": 42,
            "name": "F#2",
            "ticks": 105984,
            "time": 100.36353600000001,
            "velocity": 0.28346456692913385
          },
          {
            "duration": 0.09090899999999635,
            "durationTicks": 96,
            "midi": 47,
            "name": "B2",
            "ticks": 106176,
            "time": 100.545354,
            "velocity": 0.28346456692913385
          },
          {
            "duration": 0.09090899999999635,
            "durationTicks": 96,
            "midi": 35,
            "name": "B1",
            "ticks": 106368,
            "time": 100.72717200000001,
            "velocity": 0.28346456692913385
          },
          {
            "duration": 0.09090899999999635,
            "durationTicks": 96,
            "midi": 42,
            "name": "F#2",
            "ticks": 106560,
            "time": 100.90899,
            "velocity": 0.28346456692913385
          },
          {
            "duration": 0.09090899999999635,
            "durationTicks": 96,
            "midi": 47,
            "name": "B2",
            "ticks": 106752,
            "time": 101.09080800000001,
            "velocity": 0.28346456692913385
          },
          {
            "duration": 0.09090899999999635,
            "durationTicks": 96,
            "midi": 35,
            "name": "B1",
            "ticks": 106944,
            "time": 101.272626,
            "velocity": 0.28346456692913385
          },
          {
            "duration": 0.09090899999999635,
            "durationTicks": 96,
            "midi": 42,
            "name": "F#2",
            "ticks": 107136,
            "time": 101.45444400000001,
            "velocity": 0.28346456692913385
          },
          {
            "duration": 0.09090899999999635,
            "durationTicks": 96,
            "midi": 47,
            "name": "B2",
            "ticks": 107328,
            "time": 101.636262,
            "velocity": 0.28346456692913385
          },
          {
            "duration": 0.09090899999999635,
            "durationTicks": 96,
            "midi": 42,
            "name": "F#2",
            "ticks": 107520,
            "time": 101.81808000000001,
            "velocity": 0.28346456692913385
          },
          {
            "duration": 0.09090899999999635,
            "durationTicks": 96,
            "midi": 49,
            "name": "C#3",
            "ticks": 107712,
            "time": 101.999898,
            "velocity": 0.28346456692913385
          },
          {
            "duration": 0.09090899999999635,
            "durationTicks": 96,
            "midi": 54,
            "name": "F#3",
            "ticks": 107904,
            "time": 102.18171600000001,
            "velocity": 0.28346456692913385
          },
          {
            "duration": 0.09090899999999635,
            "durationTicks": 96,
            "midi": 42,
            "name": "F#2",
            "ticks": 108096,
            "time": 102.363534,
            "velocity": 0.28346456692913385
          },
          {
            "duration": 0.09090899999999635,
            "durationTicks": 96,
            "midi": 49,
            "name": "C#3",
            "ticks": 108288,
            "time": 102.54535200000001,
            "velocity": 0.28346456692913385
          },
          {
            "duration": 0.09090899999999635,
            "durationTicks": 96,
            "midi": 54,
            "name": "F#3",
            "ticks": 108480,
            "time": 102.72717,
            "velocity": 0.28346456692913385
          },
          {
            "duration": 0.09090899999999635,
            "durationTicks": 96,
            "midi": 42,
            "name": "F#2",
            "ticks": 108672,
            "time": 102.90898800000001,
            "velocity": 0.28346456692913385
          },
          {
            "duration": 0.09090900000001056,
            "durationTicks": 96,
            "midi": 37,
            "name": "C#2",
            "ticks": 108864,
            "time": 103.090806,
            "velocity": 0.28346456692913385
          },
          {
            "duration": 0.09090899999999635,
            "durationTicks": 96,
            "midi": 44,
            "name": "G#2",
            "ticks": 109056,
            "time": 103.27262400000001,
            "velocity": 0.28346456692913385
          },
          {
            "duration": 0.09090900000001056,
            "durationTicks": 96,
            "midi": 49,
            "name": "C#3",
            "ticks": 109248,
            "time": 103.454442,
            "velocity": 0.28346456692913385
          },
          {
            "duration": 0.09090899999999635,
            "durationTicks": 96,
            "midi": 37,
            "name": "C#2",
            "ticks": 109440,
            "time": 103.63626000000001,
            "velocity": 0.28346456692913385
          },
          {
            "duration": 0.09090900000001056,
            "durationTicks": 96,
            "midi": 44,
            "name": "G#2",
            "ticks": 109632,
            "time": 103.818078,
            "velocity": 0.28346456692913385
          },
          {
            "duration": 0.09090899999999635,
            "durationTicks": 96,
            "midi": 49,
            "name": "C#3",
            "ticks": 109824,
            "time": 103.999896,
            "velocity": 0.28346456692913385
          },
          {
            "duration": 0.09090900000001056,
            "durationTicks": 96,
            "midi": 37,
            "name": "C#2",
            "ticks": 110016,
            "time": 104.181714,
            "velocity": 0.28346456692913385
          },
          {
            "duration": 0.09090899999999635,
            "durationTicks": 96,
            "midi": 44,
            "name": "G#2",
            "ticks": 110208,
            "time": 104.363532,
            "velocity": 0.28346456692913385
          },
          {
            "duration": 0.09090900000001056,
            "durationTicks": 96,
            "midi": 49,
            "name": "C#3",
            "ticks": 110400,
            "time": 104.54535,
            "velocity": 0.28346456692913385
          },
          {
            "duration": 0.09090899999999635,
            "durationTicks": 96,
            "midi": 39,
            "name": "D#2",
            "ticks": 110592,
            "time": 104.727168,
            "velocity": 0.28346456692913385
          },
          {
            "duration": 0.09090900000001056,
            "durationTicks": 96,
            "midi": 46,
            "name": "A#2",
            "ticks": 110784,
            "time": 104.908986,
            "velocity": 0.28346456692913385
          },
          {
            "duration": 0.09090899999999635,
            "durationTicks": 96,
            "midi": 51,
            "name": "D#3",
            "ticks": 110976,
            "time": 105.090804,
            "velocity": 0.28346456692913385
          },
          {
            "duration": 0.09090900000001056,
            "durationTicks": 96,
            "midi": 39,
            "name": "D#2",
            "ticks": 111168,
            "time": 105.272622,
            "velocity": 0.28346456692913385
          },
          {
            "duration": 0.09090899999999635,
            "durationTicks": 96,
            "midi": 46,
            "name": "A#2",
            "ticks": 111360,
            "time": 105.45444,
            "velocity": 0.28346456692913385
          },
          {
            "duration": 0.09090900000001056,
            "durationTicks": 96,
            "midi": 51,
            "name": "D#3",
            "ticks": 111552,
            "time": 105.636258,
            "velocity": 0.28346456692913385
          },
          {
            "duration": 0.09090899999999635,
            "durationTicks": 96,
            "midi": 42,
            "name": "F#2",
            "ticks": 111744,
            "time": 105.818076,
            "velocity": 0.28346456692913385
          },
          {
            "duration": 0.09090900000001056,
            "durationTicks": 96,
            "midi": 35,
            "name": "B1",
            "ticks": 111936,
            "time": 105.999894,
            "velocity": 0.28346456692913385
          },
          {
            "duration": 0.09090899999999635,
            "durationTicks": 96,
            "midi": 42,
            "name": "F#2",
            "ticks": 112128,
            "time": 106.181712,
            "velocity": 0.28346456692913385
          },
          {
            "duration": 0.09090900000001056,
            "durationTicks": 96,
            "midi": 47,
            "name": "B2",
            "ticks": 112320,
            "time": 106.36353,
            "velocity": 0.28346456692913385
          },
          {
            "duration": 0.09090899999999635,
            "durationTicks": 96,
            "midi": 35,
            "name": "B1",
            "ticks": 112512,
            "time": 106.545348,
            "velocity": 0.28346456692913385
          },
          {
            "duration": 0.09090899999999635,
            "durationTicks": 96,
            "midi": 42,
            "name": "F#2",
            "ticks": 112704,
            "time": 106.72716600000001,
            "velocity": 0.28346456692913385
          },
          {
            "duration": 0.09090899999999635,
            "durationTicks": 96,
            "midi": 47,
            "name": "B2",
            "ticks": 112896,
            "time": 106.908984,
            "velocity": 0.28346456692913385
          },
          {
            "duration": 0.09090899999999635,
            "durationTicks": 96,
            "midi": 42,
            "name": "F#2",
            "ticks": 113088,
            "time": 107.09080200000001,
            "velocity": 0.28346456692913385
          },
          {
            "duration": 0.09090899999999635,
            "durationTicks": 96,
            "midi": 35,
            "name": "B1",
            "ticks": 113280,
            "time": 107.27262,
            "velocity": 0.28346456692913385
          },
          {
            "duration": 0.09090899999999635,
            "durationTicks": 96,
            "midi": 42,
            "name": "F#2",
            "ticks": 113664,
            "time": 107.636256,
            "velocity": 0.28346456692913385
          },
          {
            "duration": 0.09090899999999635,
            "durationTicks": 96,
            "midi": 49,
            "name": "C#3",
            "ticks": 113856,
            "time": 107.81807400000001,
            "velocity": 0.28346456692913385
          },
          {
            "duration": 0.09090899999999635,
            "durationTicks": 96,
            "midi": 54,
            "name": "F#3",
            "ticks": 114048,
            "time": 107.999892,
            "velocity": 0.28346456692913385
          },
          {
            "duration": 0.09090899999999635,
            "durationTicks": 96,
            "midi": 42,
            "name": "F#2",
            "ticks": 114240,
            "time": 108.18171000000001,
            "velocity": 0.28346456692913385
          },
          {
            "duration": 0.09090899999999635,
            "durationTicks": 96,
            "midi": 49,
            "name": "C#3",
            "ticks": 114432,
            "time": 108.363528,
            "velocity": 0.28346456692913385
          },
          {
            "duration": 0.09090899999999635,
            "durationTicks": 96,
            "midi": 54,
            "name": "F#3",
            "ticks": 114624,
            "time": 108.54534600000001,
            "velocity": 0.28346456692913385
          },
          {
            "duration": 0.09090899999999635,
            "durationTicks": 96,
            "midi": 42,
            "name": "F#2",
            "ticks": 114816,
            "time": 108.727164,
            "velocity": 0.28346456692913385
          },
          {
            "duration": 0.09090899999999635,
            "durationTicks": 96,
            "midi": 49,
            "name": "C#3",
            "ticks": 115008,
            "time": 108.90898200000001,
            "velocity": 0.28346456692913385
          },
          {
            "duration": 0.09090899999999635,
            "durationTicks": 96,
            "midi": 37,
            "name": "C#2",
            "ticks": 115200,
            "time": 109.0908,
            "velocity": 0.28346456692913385
          },
          {
            "duration": 0.09090899999999635,
            "durationTicks": 96,
            "midi": 44,
            "name": "G#2",
            "ticks": 115392,
            "time": 109.27261800000001,
            "velocity": 0.28346456692913385
          },
          {
            "duration": 0.09090899999999635,
            "durationTicks": 96,
            "midi": 49,
            "name": "C#3",
            "ticks": 115584,
            "time": 109.454436,
            "velocity": 0.28346456692913385
          },
          {
            "duration": 0.09090899999999635,
            "durationTicks": 96,
            "midi": 37,
            "name": "C#2",
            "ticks": 115776,
            "time": 109.63625400000001,
            "velocity": 0.28346456692913385
          },
          {
            "duration": 0.09090900000001056,
            "durationTicks": 96,
            "midi": 44,
            "name": "G#2",
            "ticks": 115968,
            "time": 109.818072,
            "velocity": 0.28346456692913385
          },
          {
            "duration": 0.09090899999999635,
            "durationTicks": 96,
            "midi": 49,
            "name": "C#3",
            "ticks": 116160,
            "time": 109.99989000000001,
            "velocity": 0.28346456692913385
          },
          {
            "duration": 0.09090900000001056,
            "durationTicks": 96,
            "midi": 37,
            "name": "C#2",
            "ticks": 116352,
            "time": 110.181708,
            "velocity": 0.28346456692913385
          },
          {
            "duration": 0.09090899999999635,
            "durationTicks": 96,
            "midi": 44,
            "name": "G#2",
            "ticks": 116544,
            "time": 110.36352600000001,
            "velocity": 0.28346456692913385
          },
          {
            "duration": 0.09090900000001056,
            "durationTicks": 96,
            "midi": 39,
            "name": "D#2",
            "ticks": 116736,
            "time": 110.545344,
            "velocity": 0.28346456692913385
          },
          {
            "duration": 0.09090899999999635,
            "durationTicks": 96,
            "midi": 46,
            "name": "A#2",
            "ticks": 116928,
            "time": 110.727162,
            "velocity": 0.28346456692913385
          },
          {
            "duration": 0.09090900000001056,
            "durationTicks": 96,
            "midi": 51,
            "name": "D#3",
            "ticks": 117120,
            "time": 110.90898,
            "velocity": 0.28346456692913385
          },
          {
            "duration": 0.09090899999999635,
            "durationTicks": 96,
            "midi": 39,
            "name": "D#2",
            "ticks": 117312,
            "time": 111.090798,
            "velocity": 0.28346456692913385
          },
          {
            "duration": 0.09090900000001056,
            "durationTicks": 96,
            "midi": 46,
            "name": "A#2",
            "ticks": 117504,
            "time": 111.272616,
            "velocity": 0.28346456692913385
          },
          {
            "duration": 0.09090899999999635,
            "durationTicks": 96,
            "midi": 51,
            "name": "D#3",
            "ticks": 117696,
            "time": 111.454434,
            "velocity": 0.28346456692913385
          },
          {
            "duration": 0.09090900000001056,
            "durationTicks": 96,
            "midi": 39,
            "name": "D#2",
            "ticks": 117888,
            "time": 111.636252,
            "velocity": 0.28346456692913385
          },
          {
            "duration": 0.09090899999999635,
            "durationTicks": 96,
            "midi": 46,
            "name": "A#2",
            "ticks": 118080,
            "time": 111.81807,
            "velocity": 0.28346456692913385
          },
          {
            "duration": 0.09090900000001056,
            "durationTicks": 96,
            "midi": 35,
            "name": "B1",
            "ticks": 118272,
            "time": 111.999888,
            "velocity": 0.28346456692913385
          },
          {
            "duration": 0.09090899999999635,
            "durationTicks": 96,
            "midi": 42,
            "name": "F#2",
            "ticks": 118464,
            "time": 112.181706,
            "velocity": 0.28346456692913385
          },
          {
            "duration": 0.09090900000001056,
            "durationTicks": 96,
            "midi": 47,
            "name": "B2",
            "ticks": 118656,
            "time": 112.363524,
            "velocity": 0.28346456692913385
          },
          {
            "duration": 0.09090899999999635,
            "durationTicks": 96,
            "midi": 35,
            "name": "B1",
            "ticks": 118848,
            "time": 112.545342,
            "velocity": 0.28346456692913385
          },
          {
            "duration": 0.09090900000001056,
            "durationTicks": 96,
            "midi": 42,
            "name": "F#2",
            "ticks": 119040,
            "time": 112.72716,
            "velocity": 0.28346456692913385
          },
          {
            "duration": 0.09090899999999635,
            "durationTicks": 96,
            "midi": 47,
            "name": "B2",
            "ticks": 119232,
            "time": 112.908978,
            "velocity": 0.28346456692913385
          },
          {
            "duration": 0.09090899999999635,
            "durationTicks": 96,
            "midi": 35,
            "name": "B1",
            "ticks": 119424,
            "time": 113.09079600000001,
            "velocity": 0.28346456692913385
          },
          {
            "duration": 0.09090899999999635,
            "durationTicks": 96,
            "midi": 42,
            "name": "F#2",
            "ticks": 119616,
            "time": 113.272614,
            "velocity": 0.28346456692913385
          },
          {
            "duration": 0.09090899999999635,
            "durationTicks": 96,
            "midi": 42,
            "name": "F#2",
            "ticks": 119808,
            "time": 113.45443200000001,
            "velocity": 0.28346456692913385
          },
          {
            "duration": 0.09090899999999635,
            "durationTicks": 96,
            "midi": 49,
            "name": "C#3",
            "ticks": 120000,
            "time": 113.63625,
            "velocity": 0.28346456692913385
          },
          {
            "duration": 0.09090899999999635,
            "durationTicks": 96,
            "midi": 54,
            "name": "F#3",
            "ticks": 120192,
            "time": 113.81806800000001,
            "velocity": 0.28346456692913385
          },
          {
            "duration": 0.09090899999999635,
            "durationTicks": 96,
            "midi": 42,
            "name": "F#2",
            "ticks": 120384,
            "time": 113.999886,
            "velocity": 0.28346456692913385
          },
          {
            "duration": 0.09090899999999635,
            "durationTicks": 96,
            "midi": 49,
            "name": "C#3",
            "ticks": 120576,
            "time": 114.18170400000001,
            "velocity": 0.28346456692913385
          },
          {
            "duration": 0.09090899999999635,
            "durationTicks": 96,
            "midi": 54,
            "name": "F#3",
            "ticks": 120768,
            "time": 114.363522,
            "velocity": 0.28346456692913385
          },
          {
            "duration": 0.09090899999999635,
            "durationTicks": 96,
            "midi": 42,
            "name": "F#2",
            "ticks": 120960,
            "time": 114.54534000000001,
            "velocity": 0.28346456692913385
          },
          {
            "duration": 0.09090899999999635,
            "durationTicks": 96,
            "midi": 49,
            "name": "C#3",
            "ticks": 121152,
            "time": 114.727158,
            "velocity": 0.28346456692913385
          },
          {
            "duration": 0.09090899999999635,
            "durationTicks": 96,
            "midi": 37,
            "name": "C#2",
            "ticks": 121344,
            "time": 114.90897600000001,
            "velocity": 0.28346456692913385
          },
          {
            "duration": 0.09090899999999635,
            "durationTicks": 96,
            "midi": 44,
            "name": "G#2",
            "ticks": 121536,
            "time": 115.090794,
            "velocity": 0.28346456692913385
          },
          {
            "duration": 0.09090899999999635,
            "durationTicks": 96,
            "midi": 49,
            "name": "C#3",
            "ticks": 121728,
            "time": 115.27261200000001,
            "velocity": 0.28346456692913385
          },
          {
            "duration": 0.09090899999999635,
            "durationTicks": 96,
            "midi": 37,
            "name": "C#2",
            "ticks": 121920,
            "time": 115.45443,
            "velocity": 0.28346456692913385
          },
          {
            "duration": 0.09090899999999635,
            "durationTicks": 96,
            "midi": 44,
            "name": "G#2",
            "ticks": 122112,
            "time": 115.63624800000001,
            "velocity": 0.28346456692913385
          },
          {
            "duration": 0.09090899999999635,
            "durationTicks": 96,
            "midi": 49,
            "name": "C#3",
            "ticks": 122304,
            "time": 115.818066,
            "velocity": 0.28346456692913385
          },
          {
            "duration": 0.09090899999999635,
            "durationTicks": 96,
            "midi": 37,
            "name": "C#2",
            "ticks": 122496,
            "time": 115.99988400000001,
            "velocity": 0.28346456692913385
          },
          {
            "duration": 0.09090899999999635,
            "durationTicks": 96,
            "midi": 44,
            "name": "G#2",
            "ticks": 122688,
            "time": 116.181702,
            "velocity": 0.28346456692913385
          },
          {
            "duration": 0.09090899999999635,
            "durationTicks": 96,
            "midi": 39,
            "name": "D#2",
            "ticks": 122880,
            "time": 116.36352000000001,
            "velocity": 0.28346456692913385
          },
          {
            "duration": 0.09090900000001056,
            "durationTicks": 96,
            "midi": 46,
            "name": "A#2",
            "ticks": 123072,
            "time": 116.545338,
            "velocity": 0.28346456692913385
          },
          {
            "duration": 0.09090899999999635,
            "durationTicks": 96,
            "midi": 51,
            "name": "D#3",
            "ticks": 123264,
            "time": 116.72715600000001,
            "velocity": 0.28346456692913385
          },
          {
            "duration": 0.09090900000001056,
            "durationTicks": 96,
            "midi": 39,
            "name": "D#2",
            "ticks": 123456,
            "time": 116.908974,
            "velocity": 0.28346456692913385
          },
          {
            "duration": 0.09090899999999635,
            "durationTicks": 96,
            "midi": 46,
            "name": "A#2",
            "ticks": 123648,
            "time": 117.09079200000001,
            "velocity": 0.28346456692913385
          },
          {
            "duration": 0.09090900000001056,
            "durationTicks": 96,
            "midi": 51,
            "name": "D#3",
            "ticks": 123840,
            "time": 117.27261,
            "velocity": 0.28346456692913385
          },
          {
            "duration": 0.09090899999999635,
            "durationTicks": 96,
            "midi": 39,
            "name": "D#2",
            "ticks": 124032,
            "time": 117.45442800000001,
            "velocity": 0.28346456692913385
          },
          {
            "duration": 0.09090900000001056,
            "durationTicks": 96,
            "midi": 46,
            "name": "A#2",
            "ticks": 124224,
            "time": 117.636246,
            "velocity": 0.28346456692913385
          },
          {
            "duration": 0.09090899999999635,
            "durationTicks": 96,
            "midi": 35,
            "name": "B1",
            "ticks": 124416,
            "time": 117.818064,
            "velocity": 0.28346456692913385
          },
          {
            "duration": 0.09090900000001056,
            "durationTicks": 96,
            "midi": 42,
            "name": "F#2",
            "ticks": 124608,
            "time": 117.999882,
            "velocity": 0.28346456692913385
          },
          {
            "duration": 0.09090899999999635,
            "durationTicks": 96,
            "midi": 47,
            "name": "B2",
            "ticks": 124800,
            "time": 118.1817,
            "velocity": 0.28346456692913385
          },
          {
            "duration": 0.09090900000001056,
            "durationTicks": 96,
            "midi": 35,
            "name": "B1",
            "ticks": 124992,
            "time": 118.363518,
            "velocity": 0.28346456692913385
          },
          {
            "duration": 0.09090899999999635,
            "durationTicks": 96,
            "midi": 47,
            "name": "B2",
            "ticks": 125184,
            "time": 118.545336,
            "velocity": 0.28346456692913385
          },
          {
            "duration": 0.09090899999999635,
            "durationTicks": 96,
            "midi": 35,
            "name": "B1",
            "ticks": 125568,
            "time": 118.908972,
            "velocity": 0.28346456692913385
          },
          {
            "duration": 0.09090899999999635,
            "durationTicks": 96,
            "midi": 54,
            "name": "F#3",
            "ticks": 125952,
            "time": 119.272608,
            "velocity": 0.28346456692913385
          },
          {
            "duration": 0.09090899999999635,
            "durationTicks": 96,
            "midi": 58,
            "name": "A#3",
            "ticks": 125952,
            "time": 119.272608,
            "velocity": 0.28346456692913385
          },
          {
            "duration": 0.09090899999999635,
            "durationTicks": 96,
            "midi": 66,
            "name": "F#4",
            "ticks": 125952,
            "time": 119.272608,
            "velocity": 0.28346456692913385
          },
          {
            "duration": 0.09090899999999635,
            "durationTicks": 96,
            "midi": 56,
            "name": "G#3",
            "ticks": 127488,
            "time": 120.727152,
            "velocity": 0.28346456692913385
          },
          {
            "duration": 0.09090899999999635,
            "durationTicks": 96,
            "midi": 66,
            "name": "F#4",
            "ticks": 127488,
            "time": 120.727152,
            "velocity": 0.28346456692913385
          },
          {
            "duration": 0.09090899999999635,
            "durationTicks": 96,
            "midi": 53,
            "name": "F3",
            "ticks": 127488,
            "time": 120.727152,
            "velocity": 0.28346456692913385
          },
          {
            "duration": 0.09090899999999635,
            "durationTicks": 96,
            "midi": 51,
            "name": "D#3",
            "ticks": 129024,
            "time": 122.181696,
            "velocity": 0.28346456692913385
          },
          {
            "duration": 0.09090899999999635,
            "durationTicks": 96,
            "midi": 58,
            "name": "A#3",
            "ticks": 129024,
            "time": 122.181696,
            "velocity": 0.28346456692913385
          },
          {
            "duration": 0.09090899999999635,
            "durationTicks": 96,
            "midi": 54,
            "name": "F#3",
            "ticks": 129024,
            "time": 122.181696,
            "velocity": 0.28346456692913385
          },
          {
            "duration": 0.09090900000001056,
            "durationTicks": 96,
            "midi": 59,
            "name": "B3",
            "ticks": 130560,
            "time": 123.63624,
            "velocity": 0.28346456692913385
          },
          {
            "duration": 0.09090900000001056,
            "durationTicks": 96,
            "midi": 54,
            "name": "F#3",
            "ticks": 130560,
            "time": 123.63624,
            "velocity": 0.28346456692913385
          },
          {
            "duration": 0.09090900000001056,
            "durationTicks": 96,
            "midi": 51,
            "name": "D#3",
            "ticks": 130560,
            "time": 123.63624,
            "velocity": 0.28346456692913385
          },
          {
            "duration": 0.09090900000001056,
            "durationTicks": 96,
            "midi": 66,
            "name": "F#4",
            "ticks": 132096,
            "time": 125.090784,
            "velocity": 0.28346456692913385
          },
          {
            "duration": 0.09090900000001056,
            "durationTicks": 96,
            "midi": 58,
            "name": "A#3",
            "ticks": 132096,
            "time": 125.090784,
            "velocity": 0.28346456692913385
          },
          {
            "duration": 0.09090900000001056,
            "durationTicks": 96,
            "midi": 54,
            "name": "F#3",
            "ticks": 132096,
            "time": 125.090784,
            "velocity": 0.28346456692913385
          },
          {
            "duration": 0.09090899999999635,
            "durationTicks": 96,
            "midi": 53,
            "name": "F3",
            "ticks": 133632,
            "time": 126.54532800000001,
            "velocity": 0.28346456692913385
          },
          {
            "duration": 0.09090899999999635,
            "durationTicks": 96,
            "midi": 56,
            "name": "G#3",
            "ticks": 133632,
            "time": 126.54532800000001,
            "velocity": 0.28346456692913385
          },
          {
            "duration": 0.09090899999999635,
            "durationTicks": 96,
            "midi": 66,
            "name": "F#4",
            "ticks": 133632,
            "time": 126.54532800000001,
            "velocity": 0.28346456692913385
          },
          {
            "duration": 0.09090899999998214,
            "durationTicks": 96,
            "midi": 58,
            "name": "A#3",
            "ticks": 135168,
            "time": 127.99987200000001,
            "velocity": 0.28346456692913385
          },
          {
            "duration": 0.09090899999998214,
            "durationTicks": 96,
            "midi": 51,
            "name": "D#3",
            "ticks": 135168,
            "time": 127.99987200000001,
            "velocity": 0.28346456692913385
          },
          {
            "duration": 0.09090899999998214,
            "durationTicks": 96,
            "midi": 54,
            "name": "F#3",
            "ticks": 135168,
            "time": 127.99987200000001,
            "velocity": 0.28346456692913385
          },
          {
            "duration": 0.09090899999998214,
            "durationTicks": 96,
            "midi": 59,
            "name": "B3",
            "ticks": 136704,
            "time": 129.454416,
            "velocity": 0.28346456692913385
          },
          {
            "duration": 0.09090899999998214,
            "durationTicks": 96,
            "midi": 54,
            "name": "F#3",
            "ticks": 136704,
            "time": 129.454416,
            "velocity": 0.28346456692913385
          },
          {
            "duration": 0.09090899999998214,
            "durationTicks": 96,
            "midi": 51,
            "name": "D#3",
            "ticks": 136704,
            "time": 129.454416,
            "velocity": 0.28346456692913385
          },
          {
            "duration": 0.09090900000001056,
            "durationTicks": 96,
            "midi": 49,
            "name": "C#3",
            "ticks": 138240,
            "time": 130.90896,
            "velocity": 0.28346456692913385
          },
          {
            "duration": 0.09090900000001056,
            "durationTicks": 96,
            "midi": 49,
            "name": "C#3",
            "ticks": 138432,
            "time": 131.090778,
            "velocity": 0.28346456692913385
          },
          {
            "duration": 0.09090900000001056,
            "durationTicks": 96,
            "midi": 49,
            "name": "C#3",
            "ticks": 138624,
            "time": 131.272596,
            "velocity": 0.28346456692913385
          },
          {
            "duration": 0.09090899999998214,
            "durationTicks": 96,
            "midi": 49,
            "name": "C#3",
            "ticks": 138816,
            "time": 131.454414,
            "velocity": 0.28346456692913385
          },
          {
            "duration": 0.09090900000001056,
            "durationTicks": 96,
            "midi": 49,
            "name": "C#3",
            "ticks": 139008,
            "time": 131.636232,
            "velocity": 0.28346456692913385
          },
          {
            "duration": 0.09090900000001056,
            "durationTicks": 96,
            "midi": 49,
            "name": "C#3",
            "ticks": 139200,
            "time": 131.81805,
            "velocity": 0.28346456692913385
          },
          {
            "duration": 0.09090900000001056,
            "durationTicks": 96,
            "midi": 49,
            "name": "C#3",
            "ticks": 139392,
            "time": 131.999868,
            "velocity": 0.28346456692913385
          },
          {
            "duration": 0.09090899999998214,
            "durationTicks": 96,
            "midi": 49,
            "name": "C#3",
            "ticks": 139584,
            "time": 132.181686,
            "velocity": 0.28346456692913385
          },
          {
            "duration": 0.09090900000001056,
            "durationTicks": 96,
            "midi": 37,
            "name": "C#2",
            "ticks": 139776,
            "time": 132.363504,
            "velocity": 0.28346456692913385
          },
          {
            "duration": 0.09090900000001056,
            "durationTicks": 96,
            "midi": 49,
            "name": "C#3",
            "ticks": 139776,
            "time": 132.363504,
            "velocity": 0.28346456692913385
          },
          {
            "duration": 0.09090900000001056,
            "durationTicks": 96,
            "midi": 49,
            "name": "C#3",
            "ticks": 139968,
            "time": 132.545322,
            "velocity": 0.28346456692913385
          },
          {
            "duration": 0.09090900000001056,
            "durationTicks": 96,
            "midi": 37,
            "name": "C#2",
            "ticks": 139968,
            "time": 132.545322,
            "velocity": 0.28346456692913385
          },
          {
            "duration": 0.09090900000001056,
            "durationTicks": 96,
            "midi": 49,
            "name": "C#3",
            "ticks": 140160,
            "time": 132.72714,
            "velocity": 0.28346456692913385
          },
          {
            "duration": 0.09090900000001056,
            "durationTicks": 96,
            "midi": 37,
            "name": "C#2",
            "ticks": 140160,
            "time": 132.72714,
            "velocity": 0.28346456692913385
          },
          {
            "duration": 0.09090899999998214,
            "durationTicks": 96,
            "midi": 49,
            "name": "C#3",
            "ticks": 140352,
            "time": 132.908958,
            "velocity": 0.28346456692913385
          },
          {
            "duration": 0.09090899999998214,
            "durationTicks": 96,
            "midi": 37,
            "name": "C#2",
            "ticks": 140352,
            "time": 132.908958,
            "velocity": 0.28346456692913385
          },
          {
            "duration": 0.09090900000001056,
            "durationTicks": 96,
            "midi": 37,
            "name": "C#2",
            "ticks": 140544,
            "time": 133.090776,
            "velocity": 0.28346456692913385
          },
          {
            "duration": 0.09090900000001056,
            "durationTicks": 96,
            "midi": 49,
            "name": "C#3",
            "ticks": 140544,
            "time": 133.090776,
            "velocity": 0.28346456692913385
          },
          {
            "duration": 0.09090899999998214,
            "durationTicks": 96,
            "midi": 37,
            "name": "C#2",
            "ticks": 140928,
            "time": 133.45441200000002,
            "velocity": 0.28346456692913385
          },
          {
            "duration": 0.09090899999998214,
            "durationTicks": 96,
            "midi": 49,
            "name": "C#3",
            "ticks": 140928,
            "time": 133.45441200000002,
            "velocity": 0.28346456692913385
          },
          {
            "duration": 0.09090900000001056,
            "durationTicks": 96,
            "midi": 42,
            "name": "F#2",
            "ticks": 141312,
            "time": 133.818048,
            "velocity": 0.28346456692913385
          },
          {
            "duration": 0.09090900000001056,
            "durationTicks": 96,
            "midi": 49,
            "name": "C#3",
            "ticks": 141504,
            "time": 133.999866,
            "velocity": 0.28346456692913385
          },
          {
            "duration": 0.09090899999998214,
            "durationTicks": 96,
            "midi": 54,
            "name": "F#3",
            "ticks": 141696,
            "time": 134.18168400000002,
            "velocity": 0.28346456692913385
          },
          {
            "duration": 0.09090899999998214,
            "durationTicks": 96,
            "midi": 42,
            "name": "F#2",
            "ticks": 141888,
            "time": 134.363502,
            "velocity": 0.28346456692913385
          },
          {
            "duration": 0.09090900000001056,
            "durationTicks": 96,
            "midi": 49,
            "name": "C#3",
            "ticks": 142080,
            "time": 134.54532,
            "velocity": 0.28346456692913385
          },
          {
            "duration": 0.09090900000001056,
            "durationTicks": 96,
            "midi": 54,
            "name": "F#3",
            "ticks": 142272,
            "time": 134.727138,
            "velocity": 0.28346456692913385
          },
          {
            "duration": 0.09090899999998214,
            "durationTicks": 96,
            "midi": 42,
            "name": "F#2",
            "ticks": 142464,
            "time": 134.90895600000002,
            "velocity": 0.28346456692913385
          },
          {
            "duration": 0.09090899999998214,
            "durationTicks": 96,
            "midi": 49,
            "name": "C#3",
            "ticks": 142656,
            "time": 135.090774,
            "velocity": 0.28346456692913385
          },
          {
            "duration": 0.09090900000001056,
            "durationTicks": 96,
            "midi": 37,
            "name": "C#2",
            "ticks": 142848,
            "time": 135.272592,
            "velocity": 0.28346456692913385
          },
          {
            "duration": 0.09090900000001056,
            "durationTicks": 96,
            "midi": 44,
            "name": "G#2",
            "ticks": 143040,
            "time": 135.45441,
            "velocity": 0.28346456692913385
          },
          {
            "duration": 0.09090899999998214,
            "durationTicks": 96,
            "midi": 49,
            "name": "C#3",
            "ticks": 143232,
            "time": 135.63622800000002,
            "velocity": 0.28346456692913385
          },
          {
            "duration": 0.09090899999998214,
            "durationTicks": 96,
            "midi": 37,
            "name": "C#2",
            "ticks": 143424,
            "time": 135.818046,
            "velocity": 0.28346456692913385
          },
          {
            "duration": 0.09090900000001056,
            "durationTicks": 96,
            "midi": 44,
            "name": "G#2",
            "ticks": 143616,
            "time": 135.999864,
            "velocity": 0.28346456692913385
          },
          {
            "duration": 0.09090900000001056,
            "durationTicks": 96,
            "midi": 49,
            "name": "C#3",
            "ticks": 143808,
            "time": 136.181682,
            "velocity": 0.28346456692913385
          },
          {
            "duration": 0.09090899999998214,
            "durationTicks": 96,
            "midi": 37,
            "name": "C#2",
            "ticks": 144000,
            "time": 136.36350000000002,
            "velocity": 0.28346456692913385
          },
          {
            "duration": 0.09090900000001056,
            "durationTicks": 96,
            "midi": 44,
            "name": "G#2",
            "ticks": 144192,
            "time": 136.545318,
            "velocity": 0.28346456692913385
          },
          {
            "duration": 0.09090900000001056,
            "durationTicks": 96,
            "midi": 39,
            "name": "D#2",
            "ticks": 144384,
            "time": 136.727136,
            "velocity": 0.28346456692913385
          },
          {
            "duration": 0.09090900000001056,
            "durationTicks": 96,
            "midi": 46,
            "name": "A#2",
            "ticks": 144576,
            "time": 136.908954,
            "velocity": 0.28346456692913385
          },
          {
            "duration": 0.09090899999998214,
            "durationTicks": 96,
            "midi": 51,
            "name": "D#3",
            "ticks": 144768,
            "time": 137.09077200000002,
            "velocity": 0.28346456692913385
          },
          {
            "duration": 0.09090900000001056,
            "durationTicks": 96,
            "midi": 39,
            "name": "D#2",
            "ticks": 144960,
            "time": 137.27259,
            "velocity": 0.28346456692913385
          },
          {
            "duration": 0.09090900000001056,
            "durationTicks": 96,
            "midi": 46,
            "name": "A#2",
            "ticks": 145152,
            "time": 137.454408,
            "velocity": 0.28346456692913385
          },
          {
            "duration": 0.09090900000001056,
            "durationTicks": 96,
            "midi": 51,
            "name": "D#3",
            "ticks": 145344,
            "time": 137.636226,
            "velocity": 0.28346456692913385
          },
          {
            "duration": 0.09090899999998214,
            "durationTicks": 96,
            "midi": 39,
            "name": "D#2",
            "ticks": 145536,
            "time": 137.81804400000001,
            "velocity": 0.28346456692913385
          },
          {
            "duration": 0.09090900000001056,
            "durationTicks": 96,
            "midi": 46,
            "name": "A#2",
            "ticks": 145728,
            "time": 137.999862,
            "velocity": 0.28346456692913385
          },
          {
            "duration": 0.09090900000001056,
            "durationTicks": 96,
            "midi": 35,
            "name": "B1",
            "ticks": 145920,
            "time": 138.18168,
            "velocity": 0.28346456692913385
          },
          {
            "duration": 0.09090900000001056,
            "durationTicks": 96,
            "midi": 42,
            "name": "F#2",
            "ticks": 146112,
            "time": 138.363498,
            "velocity": 0.28346456692913385
          },
          {
            "duration": 0.09090899999998214,
            "durationTicks": 96,
            "midi": 47,
            "name": "B2",
            "ticks": 146304,
            "time": 138.545316,
            "velocity": 0.28346456692913385
          },
          {
            "duration": 0.09090900000001056,
            "durationTicks": 96,
            "midi": 35,
            "name": "B1",
            "ticks": 146496,
            "time": 138.727134,
            "velocity": 0.28346456692913385
          },
          {
            "duration": 0.09090900000001056,
            "durationTicks": 96,
            "midi": 42,
            "name": "F#2",
            "ticks": 146688,
            "time": 138.908952,
            "velocity": 0.28346456692913385
          },
          {
            "duration": 0.09090900000001056,
            "durationTicks": 96,
            "midi": 47,
            "name": "B2",
            "ticks": 146880,
            "time": 139.09077,
            "velocity": 0.28346456692913385
          },
          {
            "duration": 0.09090899999998214,
            "durationTicks": 96,
            "midi": 35,
            "name": "B1",
            "ticks": 147072,
            "time": 139.272588,
            "velocity": 0.28346456692913385
          },
          {
            "duration": 0.09090900000001056,
            "durationTicks": 96,
            "midi": 42,
            "name": "F#2",
            "ticks": 147264,
            "time": 139.454406,
            "velocity": 0.28346456692913385
          },
          {
            "duration": 0.09090900000001056,
            "durationTicks": 96,
            "midi": 42,
            "name": "F#2",
            "ticks": 147456,
            "time": 139.636224,
            "velocity": 0.28346456692913385
          },
          {
            "duration": 0.09090899999998214,
            "durationTicks": 96,
            "midi": 49,
            "name": "C#3",
            "ticks": 147648,
            "time": 139.81804200000002,
            "velocity": 0.28346456692913385
          },
          {
            "duration": 0.09090899999998214,
            "durationTicks": 96,
            "midi": 54,
            "name": "F#3",
            "ticks": 147840,
            "time": 139.99986,
            "velocity": 0.28346456692913385
          },
          {
            "duration": 0.09090900000001056,
            "durationTicks": 96,
            "midi": 42,
            "name": "F#2",
            "ticks": 148032,
            "time": 140.181678,
            "velocity": 0.28346456692913385
          },
          {
            "duration": 0.09090900000001056,
            "durationTicks": 96,
            "midi": 49,
            "name": "C#3",
            "ticks": 148224,
            "time": 140.363496,
            "velocity": 0.28346456692913385
          },
          {
            "duration": 0.09090899999998214,
            "durationTicks": 96,
            "midi": 54,
            "name": "F#3",
            "ticks": 148416,
            "time": 140.54531400000002,
            "velocity": 0.28346456692913385
          },
          {
            "duration": 0.09090899999998214,
            "durationTicks": 96,
            "midi": 42,
            "name": "F#2",
            "ticks": 148608,
            "time": 140.727132,
            "velocity": 0.28346456692913385
          },
          {
            "duration": 0.09090900000001056,
            "durationTicks": 96,
            "midi": 49,
            "name": "C#3",
            "ticks": 148800,
            "time": 140.90895,
            "velocity": 0.28346456692913385
          },
          {
            "duration": 0.09090900000001056,
            "durationTicks": 96,
            "midi": 37,
            "name": "C#2",
            "ticks": 148992,
            "time": 141.090768,
            "velocity": 0.28346456692913385
          },
          {
            "duration": 0.09090899999998214,
            "durationTicks": 96,
            "midi": 44,
            "name": "G#2",
            "ticks": 149184,
            "time": 141.27258600000002,
            "velocity": 0.28346456692913385
          },
          {
            "duration": 0.09090899999998214,
            "durationTicks": 96,
            "midi": 49,
            "name": "C#3",
            "ticks": 149376,
            "time": 141.454404,
            "velocity": 0.28346456692913385
          },
          {
            "duration": 0.09090900000001056,
            "durationTicks": 96,
            "midi": 37,
            "name": "C#2",
            "ticks": 149568,
            "time": 141.636222,
            "velocity": 0.28346456692913385
          },
          {
            "duration": 0.09090900000001056,
            "durationTicks": 96,
            "midi": 44,
            "name": "G#2",
            "ticks": 149760,
            "time": 141.81804,
            "velocity": 0.28346456692913385
          },
          {
            "duration": 0.09090899999998214,
            "durationTicks": 96,
            "midi": 49,
            "name": "C#3",
            "ticks": 149952,
            "time": 141.99985800000002,
            "velocity": 0.28346456692913385
          },
          {
            "duration": 0.09090899999998214,
            "durationTicks": 96,
            "midi": 37,
            "name": "C#2",
            "ticks": 150144,
            "time": 142.181676,
            "velocity": 0.28346456692913385
          },
          {
            "duration": 0.09090900000001056,
            "durationTicks": 96,
            "midi": 44,
            "name": "G#2",
            "ticks": 150336,
            "time": 142.363494,
            "velocity": 0.28346456692913385
          },
          {
            "duration": 0.09090900000001056,
            "durationTicks": 96,
            "midi": 39,
            "name": "D#2",
            "ticks": 150528,
            "time": 142.545312,
            "velocity": 0.28346456692913385
          },
          {
            "duration": 0.09090899999998214,
            "durationTicks": 96,
            "midi": 46,
            "name": "A#2",
            "ticks": 150720,
            "time": 142.72713000000002,
            "velocity": 0.28346456692913385
          },
          {
            "duration": 0.09090900000001056,
            "durationTicks": 96,
            "midi": 51,
            "name": "D#3",
            "ticks": 150912,
            "time": 142.908948,
            "velocity": 0.28346456692913385
          },
          {
            "duration": 0.09090900000001056,
            "durationTicks": 96,
            "midi": 39,
            "name": "D#2",
            "ticks": 151104,
            "time": 143.090766,
            "velocity": 0.28346456692913385
          },
          {
            "duration": 0.09090900000001056,
            "durationTicks": 96,
            "midi": 46,
            "name": "A#2",
            "ticks": 151296,
            "time": 143.272584,
            "velocity": 0.28346456692913385
          },
          {
            "duration": 0.09090899999998214,
            "durationTicks": 96,
            "midi": 51,
            "name": "D#3",
            "ticks": 151488,
            "time": 143.45440200000002,
            "velocity": 0.28346456692913385
          },
          {
            "duration": 0.09090900000001056,
            "durationTicks": 96,
            "midi": 39,
            "name": "D#2",
            "ticks": 151680,
            "time": 143.63622,
            "velocity": 0.28346456692913385
          },
          {
            "duration": 0.09090900000001056,
            "durationTicks": 96,
            "midi": 46,
            "name": "A#2",
            "ticks": 151872,
            "time": 143.818038,
            "velocity": 0.28346456692913385
          },
          {
            "duration": 0.09090900000001056,
            "durationTicks": 96,
            "midi": 35,
            "name": "B1",
            "ticks": 152064,
            "time": 143.999856,
            "velocity": 0.28346456692913385
          },
          {
            "duration": 0.09090900000001056,
            "durationTicks": 96,
            "midi": 35,
            "name": "B1",
            "ticks": 152064,
            "time": 143.999856,
            "velocity": 0.28346456692913385
          },
          {
            "duration": 0.09090899999998214,
            "durationTicks": 96,
            "midi": 47,
            "name": "B2",
            "ticks": 152256,
            "time": 144.18167400000002,
            "velocity": 0.28346456692913385
          },
          {
            "duration": 0.09090899999998214,
            "durationTicks": 96,
            "midi": 47,
            "name": "B2",
            "ticks": 152256,
            "time": 144.18167400000002,
            "velocity": 0.28346456692913385
          },
          {
            "duration": 0.09090900000001056,
            "durationTicks": 96,
            "midi": 35,
            "name": "B1",
            "ticks": 152448,
            "time": 144.363492,
            "velocity": 0.28346456692913385
          },
          {
            "duration": 0.09090900000001056,
            "durationTicks": 96,
            "midi": 35,
            "name": "B1",
            "ticks": 152448,
            "time": 144.363492,
            "velocity": 0.28346456692913385
          },
          {
            "duration": 0.09090900000001056,
            "durationTicks": 96,
            "midi": 47,
            "name": "B2",
            "ticks": 152640,
            "time": 144.54531,
            "velocity": 0.28346456692913385
          },
          {
            "duration": 0.09090900000001056,
            "durationTicks": 96,
            "midi": 47,
            "name": "B2",
            "ticks": 152640,
            "time": 144.54531,
            "velocity": 0.28346456692913385
          },
          {
            "duration": 0.09090900000001056,
            "durationTicks": 96,
            "midi": 35,
            "name": "B1",
            "ticks": 152832,
            "time": 144.727128,
            "velocity": 0.28346456692913385
          },
          {
            "duration": 0.09090900000001056,
            "durationTicks": 96,
            "midi": 35,
            "name": "B1",
            "ticks": 152832,
            "time": 144.727128,
            "velocity": 0.28346456692913385
          },
          {
            "duration": 0.09090899999998214,
            "durationTicks": 96,
            "midi": 47,
            "name": "B2",
            "ticks": 153024,
            "time": 144.90894600000001,
            "velocity": 0.28346456692913385
          },
          {
            "duration": 0.09090899999998214,
            "durationTicks": 96,
            "midi": 47,
            "name": "B2",
            "ticks": 153024,
            "time": 144.90894600000001,
            "velocity": 0.28346456692913385
          },
          {
            "duration": 0.09090900000001056,
            "durationTicks": 96,
            "midi": 35,
            "name": "B1",
            "ticks": 153216,
            "time": 145.090764,
            "velocity": 0.28346456692913385
          },
          {
            "duration": 0.09090900000001056,
            "durationTicks": 96,
            "midi": 35,
            "name": "B1",
            "ticks": 153216,
            "time": 145.090764,
            "velocity": 0.28346456692913385
          },
          {
            "duration": 0.09090900000001056,
            "durationTicks": 96,
            "midi": 47,
            "name": "B2",
            "ticks": 153408,
            "time": 145.272582,
            "velocity": 0.28346456692913385
          },
          {
            "duration": 0.09090900000001056,
            "durationTicks": 96,
            "midi": 47,
            "name": "B2",
            "ticks": 153408,
            "time": 145.272582,
            "velocity": 0.28346456692913385
          },
          {
            "duration": 0.09090900000001056,
            "durationTicks": 96,
            "midi": 42,
            "name": "F#2",
            "ticks": 153600,
            "time": 145.4544,
            "velocity": 0.28346456692913385
          },
          {
            "duration": 0.09090899999998214,
            "durationTicks": 96,
            "midi": 49,
            "name": "C#3",
            "ticks": 153792,
            "time": 145.636218,
            "velocity": 0.28346456692913385
          },
          {
            "duration": 0.09090900000001056,
            "durationTicks": 96,
            "midi": 54,
            "name": "F#3",
            "ticks": 153984,
            "time": 145.818036,
            "velocity": 0.28346456692913385
          },
          {
            "duration": 0.09090900000001056,
            "durationTicks": 96,
            "midi": 42,
            "name": "F#2",
            "ticks": 154176,
            "time": 145.999854,
            "velocity": 0.28346456692913385
          },
          {
            "duration": 0.09090900000001056,
            "durationTicks": 96,
            "midi": 49,
            "name": "C#3",
            "ticks": 154368,
            "time": 146.181672,
            "velocity": 0.28346456692913385
          },
          {
            "duration": 0.09090899999998214,
            "durationTicks": 96,
            "midi": 54,
            "name": "F#3",
            "ticks": 154560,
            "time": 146.36349,
            "velocity": 0.28346456692913385
          },
          {
            "duration": 0.09090900000001056,
            "durationTicks": 96,
            "midi": 42,
            "name": "F#2",
            "ticks": 154752,
            "time": 146.545308,
            "velocity": 0.28346456692913385
          },
          {
            "duration": 0.09090900000001056,
            "durationTicks": 96,
            "midi": 37,
            "name": "C#2",
            "ticks": 154944,
            "time": 146.727126,
            "velocity": 0.28346456692913385
          },
          {
            "duration": 0.09090900000001056,
            "durationTicks": 96,
            "midi": 37,
            "name": "C#2",
            "ticks": 154944,
            "time": 146.727126,
            "velocity": 0.28346456692913385
          },
          {
            "duration": 0.09090899999998214,
            "durationTicks": 96,
            "midi": 44,
            "name": "G#2",
            "ticks": 155136,
            "time": 146.90894400000002,
            "velocity": 0.28346456692913385
          },
          {
            "duration": 0.09090899999998214,
            "durationTicks": 96,
            "midi": 49,
            "name": "C#3",
            "ticks": 155328,
            "time": 147.090762,
            "velocity": 0.28346456692913385
          },
          {
            "duration": 0.09090900000001056,
            "durationTicks": 96,
            "midi": 37,
            "name": "C#2",
            "ticks": 155520,
            "time": 147.27258,
            "velocity": 0.28346456692913385
          },
          {
            "duration": 0.09090900000001056,
            "durationTicks": 96,
            "midi": 44,
            "name": "G#2",
            "ticks": 155712,
            "time": 147.454398,
            "velocity": 0.28346456692913385
          },
          {
            "duration": 0.09090899999998214,
            "durationTicks": 96,
            "midi": 49,
            "name": "C#3",
            "ticks": 155904,
            "time": 147.63621600000002,
            "velocity": 0.28346456692913385
          },
          {
            "duration": 0.09090899999998214,
            "durationTicks": 96,
            "midi": 37,
            "name": "C#2",
            "ticks": 156096,
            "time": 147.818034,
            "velocity": 0.28346456692913385
          },
          {
            "duration": 0.09090900000001056,
            "durationTicks": 96,
            "midi": 44,
            "name": "G#2",
            "ticks": 156288,
            "time": 147.999852,
            "velocity": 0.28346456692913385
          },
          {
            "duration": 0.09090900000001056,
            "durationTicks": 96,
            "midi": 49,
            "name": "C#3",
            "ticks": 156480,
            "time": 148.18167,
            "velocity": 0.28346456692913385
          },
          {
            "duration": 0.09090899999998214,
            "durationTicks": 96,
            "midi": 39,
            "name": "D#2",
            "ticks": 156672,
            "time": 148.36348800000002,
            "velocity": 0.28346456692913385
          },
          {
            "duration": 0.09090899999998214,
            "durationTicks": 96,
            "midi": 46,
            "name": "A#2",
            "ticks": 156864,
            "time": 148.545306,
            "velocity": 0.28346456692913385
          },
          {
            "duration": 0.09090900000001056,
            "durationTicks": 96,
            "midi": 51,
            "name": "D#3",
            "ticks": 157056,
            "time": 148.727124,
            "velocity": 0.28346456692913385
          },
          {
            "duration": 0.09090900000001056,
            "durationTicks": 96,
            "midi": 39,
            "name": "D#2",
            "ticks": 157248,
            "time": 148.908942,
            "velocity": 0.28346456692913385
          },
          {
            "duration": 0.09090899999998214,
            "durationTicks": 96,
            "midi": 46,
            "name": "A#2",
            "ticks": 157440,
            "time": 149.09076000000002,
            "velocity": 0.28346456692913385
          },
          {
            "duration": 0.09090899999998214,
            "durationTicks": 96,
            "midi": 51,
            "name": "D#3",
            "ticks": 157632,
            "time": 149.272578,
            "velocity": 0.28346456692913385
          },
          {
            "duration": 0.09090900000001056,
            "durationTicks": 96,
            "midi": 39,
            "name": "D#2",
            "ticks": 157824,
            "time": 149.454396,
            "velocity": 0.28346456692913385
          },
          {
            "duration": 0.09090900000001056,
            "durationTicks": 96,
            "midi": 35,
            "name": "B1",
            "ticks": 158016,
            "time": 149.636214,
            "velocity": 0.28346456692913385
          },
          {
            "duration": 0.09090899999998214,
            "durationTicks": 96,
            "midi": 42,
            "name": "F#2",
            "ticks": 158208,
            "time": 149.81803200000002,
            "velocity": 0.28346456692913385
          },
          {
            "duration": 0.09090900000001056,
            "durationTicks": 96,
            "midi": 47,
            "name": "B2",
            "ticks": 158400,
            "time": 149.99985,
            "velocity": 0.28346456692913385
          },
          {
            "duration": 0.09090900000001056,
            "durationTicks": 96,
            "midi": 35,
            "name": "B1",
            "ticks": 158592,
            "time": 150.181668,
            "velocity": 0.28346456692913385
          },
          {
            "duration": 0.09090900000001056,
            "durationTicks": 96,
            "midi": 42,
            "name": "F#2",
            "ticks": 158784,
            "time": 150.363486,
            "velocity": 0.28346456692913385
          },
          {
            "duration": 0.09090899999998214,
            "durationTicks": 96,
            "midi": 47,
            "name": "B2",
            "ticks": 158976,
            "time": 150.54530400000002,
            "velocity": 0.28346456692913385
          },
          {
            "duration": 0.09090900000001056,
            "durationTicks": 96,
            "midi": 35,
            "name": "B1",
            "ticks": 159168,
            "time": 150.727122,
            "velocity": 0.28346456692913385
          },
          {
            "duration": 0.09090900000001056,
            "durationTicks": 96,
            "midi": 42,
            "name": "F#2",
            "ticks": 159360,
            "time": 150.90894,
            "velocity": 0.28346456692913385
          },
          {
            "duration": 0.09090900000001056,
            "durationTicks": 96,
            "midi": 47,
            "name": "B2",
            "ticks": 159552,
            "time": 151.090758,
            "velocity": 0.28346456692913385
          },
          {
            "duration": 0.09090899999998214,
            "durationTicks": 96,
            "midi": 42,
            "name": "F#2",
            "ticks": 159744,
            "time": 151.27257600000002,
            "velocity": 0.28346456692913385
          },
          {
            "duration": 0.09090900000001056,
            "durationTicks": 96,
            "midi": 49,
            "name": "C#3",
            "ticks": 159936,
            "time": 151.454394,
            "velocity": 0.28346456692913385
          },
          {
            "duration": 0.09090900000001056,
            "durationTicks": 96,
            "midi": 54,
            "name": "F#3",
            "ticks": 160128,
            "time": 151.636212,
            "velocity": 0.28346456692913385
          },
          {
            "duration": 0.09090900000001056,
            "durationTicks": 96,
            "midi": 42,
            "name": "F#2",
            "ticks": 160320,
            "time": 151.81803,
            "velocity": 0.28346456692913385
          },
          {
            "duration": 0.09090899999998214,
            "durationTicks": 96,
            "midi": 49,
            "name": "C#3",
            "ticks": 160512,
            "time": 151.99984800000001,
            "velocity": 0.28346456692913385
          },
          {
            "duration": 0.09090900000001056,
            "durationTicks": 96,
            "midi": 54,
            "name": "F#3",
            "ticks": 160704,
            "time": 152.181666,
            "velocity": 0.28346456692913385
          },
          {
            "duration": 0.09090900000001056,
            "durationTicks": 96,
            "midi": 42,
            "name": "F#2",
            "ticks": 160896,
            "time": 152.363484,
            "velocity": 0.28346456692913385
          },
          {
            "duration": 0.09090900000001056,
            "durationTicks": 96,
            "midi": 37,
            "name": "C#2",
            "ticks": 161088,
            "time": 152.545302,
            "velocity": 0.28346456692913385
          },
          {
            "duration": 0.09090899999998214,
            "durationTicks": 96,
            "midi": 44,
            "name": "G#2",
            "ticks": 161280,
            "time": 152.72712,
            "velocity": 0.28346456692913385
          },
          {
            "duration": 0.09090900000001056,
            "durationTicks": 96,
            "midi": 49,
            "name": "C#3",
            "ticks": 161472,
            "time": 152.908938,
            "velocity": 0.28346456692913385
          },
          {
            "duration": 0.09090900000001056,
            "durationTicks": 96,
            "midi": 37,
            "name": "C#2",
            "ticks": 161664,
            "time": 153.090756,
            "velocity": 0.28346456692913385
          },
          {
            "duration": 0.09090899999998214,
            "durationTicks": 96,
            "midi": 44,
            "name": "G#2",
            "ticks": 161856,
            "time": 153.27257400000002,
            "velocity": 0.28346456692913385
          },
          {
            "duration": 0.09090899999998214,
            "durationTicks": 96,
            "midi": 49,
            "name": "C#3",
            "ticks": 162048,
            "time": 153.454392,
            "velocity": 0.28346456692913385
          },
          {
            "duration": 0.09090900000001056,
            "durationTicks": 96,
            "midi": 37,
            "name": "C#2",
            "ticks": 162240,
            "time": 153.63621,
            "velocity": 0.28346456692913385
          },
          {
            "duration": 0.09090900000001056,
            "durationTicks": 96,
            "midi": 44,
            "name": "G#2",
            "ticks": 162432,
            "time": 153.818028,
            "velocity": 0.28346456692913385
          },
          {
            "duration": 0.09090899999998214,
            "durationTicks": 96,
            "midi": 49,
            "name": "C#3",
            "ticks": 162624,
            "time": 153.99984600000002,
            "velocity": 0.28346456692913385
          },
          {
            "duration": 0.09090899999998214,
            "durationTicks": 96,
            "midi": 39,
            "name": "D#2",
            "ticks": 162816,
            "time": 154.181664,
            "velocity": 0.28346456692913385
          },
          {
            "duration": 0.09090900000001056,
            "durationTicks": 96,
            "midi": 46,
            "name": "A#2",
            "ticks": 163008,
            "time": 154.363482,
            "velocity": 0.28346456692913385
          },
          {
            "duration": 0.09090900000001056,
            "durationTicks": 96,
            "midi": 51,
            "name": "D#3",
            "ticks": 163200,
            "time": 154.5453,
            "velocity": 0.28346456692913385
          },
          {
            "duration": 0.09090899999998214,
            "durationTicks": 96,
            "midi": 39,
            "name": "D#2",
            "ticks": 163392,
            "time": 154.72711800000002,
            "velocity": 0.28346456692913385
          },
          {
            "duration": 0.09090899999998214,
            "durationTicks": 96,
            "midi": 46,
            "name": "A#2",
            "ticks": 163584,
            "time": 154.908936,
            "velocity": 0.28346456692913385
          },
          {
            "duration": 0.09090900000001056,
            "durationTicks": 96,
            "midi": 51,
            "name": "D#3",
            "ticks": 163776,
            "time": 155.090754,
            "velocity": 0.28346456692913385
          },
          {
            "duration": 0.09090900000001056,
            "durationTicks": 96,
            "midi": 42,
            "name": "F#2",
            "ticks": 163968,
            "time": 155.272572,
            "velocity": 0.28346456692913385
          },
          {
            "duration": 0.09090899999998214,
            "durationTicks": 96,
            "midi": 35,
            "name": "B1",
            "ticks": 164160,
            "time": 155.45439000000002,
            "velocity": 0.28346456692913385
          },
          {
            "duration": 0.09090899999998214,
            "durationTicks": 96,
            "midi": 42,
            "name": "F#2",
            "ticks": 164352,
            "time": 155.636208,
            "velocity": 0.28346456692913385
          },
          {
            "duration": 0.09090900000001056,
            "durationTicks": 96,
            "midi": 47,
            "name": "B2",
            "ticks": 164544,
            "time": 155.818026,
            "velocity": 0.28346456692913385
          },
          {
            "duration": 0.09090900000001056,
            "durationTicks": 96,
            "midi": 35,
            "name": "B1",
            "ticks": 164736,
            "time": 155.999844,
            "velocity": 0.28346456692913385
          },
          {
            "duration": 0.09090899999998214,
            "durationTicks": 96,
            "midi": 42,
            "name": "F#2",
            "ticks": 164928,
            "time": 156.18166200000002,
            "velocity": 0.28346456692913385
          },
          {
            "duration": 0.09090900000001056,
            "durationTicks": 96,
            "midi": 47,
            "name": "B2",
            "ticks": 165120,
            "time": 156.36348,
            "velocity": 0.28346456692913385
          },
          {
            "duration": 0.09090900000001056,
            "durationTicks": 96,
            "midi": 42,
            "name": "F#2",
            "ticks": 165312,
            "time": 156.545298,
            "velocity": 0.28346456692913385
          },
          {
            "duration": 0.09090900000001056,
            "durationTicks": 96,
            "midi": 35,
            "name": "B1",
            "ticks": 165504,
            "time": 156.727116,
            "velocity": 0.28346456692913385
          },
          {
            "duration": 0.09090899999998214,
            "durationTicks": 96,
            "midi": 39,
            "name": "D#2",
            "ticks": 165696,
            "time": 156.90893400000002,
            "velocity": 0.28346456692913385
          },
          {
            "duration": 0.09090900000001056,
            "durationTicks": 96,
            "midi": 42,
            "name": "F#2",
            "ticks": 165888,
            "time": 157.090752,
            "velocity": 0.28346456692913385
          },
          {
            "duration": 0.09090900000001056,
            "durationTicks": 96,
            "midi": 49,
            "name": "C#3",
            "ticks": 166080,
            "time": 157.27257,
            "velocity": 0.28346456692913385
          },
          {
            "duration": 0.09090900000001056,
            "durationTicks": 96,
            "midi": 54,
            "name": "F#3",
            "ticks": 166272,
            "time": 157.454388,
            "velocity": 0.28346456692913385
          },
          {
            "duration": 0.09090899999998214,
            "durationTicks": 96,
            "midi": 42,
            "name": "F#2",
            "ticks": 166464,
            "time": 157.63620600000002,
            "velocity": 0.28346456692913385
          },
          {
            "duration": 0.09090900000001056,
            "durationTicks": 96,
            "midi": 49,
            "name": "C#3",
            "ticks": 166656,
            "time": 157.818024,
            "velocity": 0.28346456692913385
          },
          {
            "duration": 0.09090900000001056,
            "durationTicks": 96,
            "midi": 54,
            "name": "F#3",
            "ticks": 166848,
            "time": 157.999842,
            "velocity": 0.28346456692913385
          },
          {
            "duration": 0.09090900000001056,
            "durationTicks": 96,
            "midi": 42,
            "name": "F#2",
            "ticks": 167040,
            "time": 158.18166,
            "velocity": 0.28346456692913385
          },
          {
            "duration": 0.09090899999998214,
            "durationTicks": 96,
            "midi": 37,
            "name": "C#2",
            "ticks": 167232,
            "time": 158.36347800000001,
            "velocity": 0.28346456692913385
          },
          {
            "duration": 0.09090899999998214,
            "durationTicks": 96,
            "midi": 37,
            "name": "C#2",
            "ticks": 167232,
            "time": 158.36347800000001,
            "velocity": 0.28346456692913385
          },
          {
            "duration": 0.09090900000001056,
            "durationTicks": 96,
            "midi": 44,
            "name": "G#2",
            "ticks": 167424,
            "time": 158.545296,
            "velocity": 0.28346456692913385
          },
          {
            "duration": 0.09090900000001056,
            "durationTicks": 96,
            "midi": 49,
            "name": "C#3",
            "ticks": 167616,
            "time": 158.727114,
            "velocity": 0.28346456692913385
          },
          {
            "duration": 0.09090900000001056,
            "durationTicks": 96,
            "midi": 37,
            "name": "C#2",
            "ticks": 167808,
            "time": 158.908932,
            "velocity": 0.28346456692913385
          },
          {
            "duration": 0.09090899999998214,
            "durationTicks": 96,
            "midi": 44,
            "name": "G#2",
            "ticks": 168000,
            "time": 159.09075,
            "velocity": 0.28346456692913385
          },
          {
            "duration": 0.09090900000001056,
            "durationTicks": 96,
            "midi": 49,
            "name": "C#3",
            "ticks": 168192,
            "time": 159.272568,
            "velocity": 0.28346456692913385
          },
          {
            "duration": 0.09090900000001056,
            "durationTicks": 96,
            "midi": 37,
            "name": "C#2",
            "ticks": 168384,
            "time": 159.454386,
            "velocity": 0.28346456692913385
          },
          {
            "duration": 0.09090899999998214,
            "durationTicks": 96,
            "midi": 44,
            "name": "G#2",
            "ticks": 168576,
            "time": 159.63620400000002,
            "velocity": 0.28346456692913385
          },
          {
            "duration": 0.09090899999998214,
            "durationTicks": 96,
            "midi": 49,
            "name": "C#3",
            "ticks": 168768,
            "time": 159.818022,
            "velocity": 0.28346456692913385
          },
          {
            "duration": 0.09090900000001056,
            "durationTicks": 96,
            "midi": 39,
            "name": "D#2",
            "ticks": 168960,
            "time": 159.99984,
            "velocity": 0.28346456692913385
          },
          {
            "duration": 0.09090900000001056,
            "durationTicks": 96,
            "midi": 46,
            "name": "A#2",
            "ticks": 169152,
            "time": 160.181658,
            "velocity": 0.28346456692913385
          },
          {
            "duration": 0.09090899999998214,
            "durationTicks": 96,
            "midi": 51,
            "name": "D#3",
            "ticks": 169344,
            "time": 160.36347600000002,
            "velocity": 0.28346456692913385
          },
          {
            "duration": 0.09090899999998214,
            "durationTicks": 96,
            "midi": 39,
            "name": "D#2",
            "ticks": 169536,
            "time": 160.545294,
            "velocity": 0.28346456692913385
          },
          {
            "duration": 0.09090900000001056,
            "durationTicks": 96,
            "midi": 46,
            "name": "A#2",
            "ticks": 169728,
            "time": 160.727112,
            "velocity": 0.28346456692913385
          },
          {
            "duration": 0.09090900000001056,
            "durationTicks": 96,
            "midi": 51,
            "name": "D#3",
            "ticks": 169920,
            "time": 160.90893,
            "velocity": 0.28346456692913385
          },
          {
            "duration": 0.09090899999998214,
            "durationTicks": 96,
            "midi": 39,
            "name": "D#2",
            "ticks": 170112,
            "time": 161.09074800000002,
            "velocity": 0.28346456692913385
          },
          {
            "duration": 0.09090899999998214,
            "durationTicks": 96,
            "midi": 35,
            "name": "B1",
            "ticks": 170304,
            "time": 161.272566,
            "velocity": 0.28346456692913385
          },
          {
            "duration": 0.09090900000001056,
            "durationTicks": 96,
            "midi": 42,
            "name": "F#2",
            "ticks": 170496,
            "time": 161.454384,
            "velocity": 0.28346456692913385
          },
          {
            "duration": 0.09090900000001056,
            "durationTicks": 96,
            "midi": 47,
            "name": "B2",
            "ticks": 170688,
            "time": 161.636202,
            "velocity": 0.28346456692913385
          },
          {
            "duration": 0.09090899999998214,
            "durationTicks": 96,
            "midi": 35,
            "name": "B1",
            "ticks": 170880,
            "time": 161.81802000000002,
            "velocity": 0.28346456692913385
          },
          {
            "duration": 0.09090899999998214,
            "durationTicks": 96,
            "midi": 42,
            "name": "F#2",
            "ticks": 171072,
            "time": 161.999838,
            "velocity": 0.28346456692913385
          },
          {
            "duration": 0.09090900000001056,
            "durationTicks": 96,
            "midi": 47,
            "name": "B2",
            "ticks": 171264,
            "time": 162.181656,
            "velocity": 0.28346456692913385
          },
          {
            "duration": 0.09090900000001056,
            "durationTicks": 96,
            "midi": 35,
            "name": "B1",
            "ticks": 171456,
            "time": 162.363474,
            "velocity": 0.28346456692913385
          },
          {
            "duration": 0.09090899999998214,
            "durationTicks": 96,
            "midi": 42,
            "name": "F#2",
            "ticks": 171648,
            "time": 162.54529200000002,
            "velocity": 0.28346456692913385
          },
          {
            "duration": 0.09090899999998214,
            "durationTicks": 96,
            "midi": 47,
            "name": "B2",
            "ticks": 171840,
            "time": 162.72711,
            "velocity": 0.28346456692913385
          },
          {
            "duration": 0.09090900000001056,
            "durationTicks": 96,
            "midi": 42,
            "name": "F#2",
            "ticks": 172032,
            "time": 162.908928,
            "velocity": 0.28346456692913385
          },
          {
            "duration": 0.09090900000001056,
            "durationTicks": 96,
            "midi": 49,
            "name": "C#3",
            "ticks": 172224,
            "time": 163.090746,
            "velocity": 0.28346456692913385
          },
          {
            "duration": 0.09090899999998214,
            "durationTicks": 96,
            "midi": 54,
            "name": "F#3",
            "ticks": 172416,
            "time": 163.27256400000002,
            "velocity": 0.28346456692913385
          },
          {
            "duration": 0.09090900000001056,
            "durationTicks": 96,
            "midi": 42,
            "name": "F#2",
            "ticks": 172608,
            "time": 163.454382,
            "velocity": 0.28346456692913385
          },
          {
            "duration": 0.09090900000001056,
            "durationTicks": 96,
            "midi": 49,
            "name": "C#3",
            "ticks": 172800,
            "time": 163.6362,
            "velocity": 0.28346456692913385
          },
          {
            "duration": 0.09090900000001056,
            "durationTicks": 96,
            "midi": 54,
            "name": "F#3",
            "ticks": 172992,
            "time": 163.818018,
            "velocity": 0.28346456692913385
          },
          {
            "duration": 0.09090899999998214,
            "durationTicks": 96,
            "midi": 42,
            "name": "F#2",
            "ticks": 173184,
            "time": 163.99983600000002,
            "velocity": 0.28346456692913385
          },
          {
            "duration": 0.09090900000001056,
            "durationTicks": 96,
            "midi": 37,
            "name": "C#2",
            "ticks": 173376,
            "time": 164.181654,
            "velocity": 0.28346456692913385
          },
          {
            "duration": 0.09090900000001056,
            "durationTicks": 96,
            "midi": 44,
            "name": "G#2",
            "ticks": 173568,
            "time": 164.363472,
            "velocity": 0.28346456692913385
          },
          {
            "duration": 0.09090900000001056,
            "durationTicks": 96,
            "midi": 49,
            "name": "C#3",
            "ticks": 173760,
            "time": 164.54529,
            "velocity": 0.28346456692913385
          },
          {
            "duration": 0.09090899999998214,
            "durationTicks": 96,
            "midi": 37,
            "name": "C#2",
            "ticks": 173952,
            "time": 164.72710800000002,
            "velocity": 0.28346456692913385
          },
          {
            "duration": 0.09090900000001056,
            "durationTicks": 96,
            "midi": 44,
            "name": "G#2",
            "ticks": 174144,
            "time": 164.908926,
            "velocity": 0.28346456692913385
          },
          {
            "duration": 0.09090900000001056,
            "durationTicks": 96,
            "midi": 49,
            "name": "C#3",
            "ticks": 174336,
            "time": 165.090744,
            "velocity": 0.28346456692913385
          },
          {
            "duration": 0.09090900000001056,
            "durationTicks": 96,
            "midi": 37,
            "name": "C#2",
            "ticks": 174528,
            "time": 165.272562,
            "velocity": 0.28346456692913385
          },
          {
            "duration": 0.09090899999998214,
            "durationTicks": 96,
            "midi": 44,
            "name": "G#2",
            "ticks": 174720,
            "time": 165.45438000000001,
            "velocity": 0.28346456692913385
          },
          {
            "duration": 0.09090900000001056,
            "durationTicks": 96,
            "midi": 49,
            "name": "C#3",
            "ticks": 174912,
            "time": 165.636198,
            "velocity": 0.28346456692913385
          },
          {
            "duration": 0.09090900000001056,
            "durationTicks": 96,
            "midi": 39,
            "name": "D#2",
            "ticks": 175104,
            "time": 165.818016,
            "velocity": 0.28346456692913385
          },
          {
            "duration": 0.09090900000001056,
            "durationTicks": 96,
            "midi": 46,
            "name": "A#2",
            "ticks": 175296,
            "time": 165.999834,
            "velocity": 0.28346456692913385
          },
          {
            "duration": 0.09090899999998214,
            "durationTicks": 96,
            "midi": 51,
            "name": "D#3",
            "ticks": 175488,
            "time": 166.181652,
            "velocity": 0.28346456692913385
          },
          {
            "duration": 0.09090900000001056,
            "durationTicks": 96,
            "midi": 39,
            "name": "D#2",
            "ticks": 175680,
            "time": 166.36347,
            "velocity": 0.28346456692913385
          },
          {
            "duration": 0.09090900000001056,
            "durationTicks": 96,
            "midi": 46,
            "name": "A#2",
            "ticks": 175872,
            "time": 166.545288,
            "velocity": 0.28346456692913385
          },
          {
            "duration": 0.09090899999998214,
            "durationTicks": 96,
            "midi": 51,
            "name": "D#3",
            "ticks": 176064,
            "time": 166.72710600000002,
            "velocity": 0.28346456692913385
          },
          {
            "duration": 0.09090899999998214,
            "durationTicks": 96,
            "midi": 42,
            "name": "F#2",
            "ticks": 176256,
            "time": 166.908924,
            "velocity": 0.28346456692913385
          },
          {
            "duration": 0.09090900000001056,
            "durationTicks": 96,
            "midi": 35,
            "name": "B1",
            "ticks": 176448,
            "time": 167.090742,
            "velocity": 0.28346456692913385
          },
          {
            "duration": 0.09090900000001056,
            "durationTicks": 96,
            "midi": 42,
            "name": "F#2",
            "ticks": 176640,
            "time": 167.27256,
            "velocity": 0.28346456692913385
          },
          {
            "duration": 0.09090899999998214,
            "durationTicks": 96,
            "midi": 47,
            "name": "B2",
            "ticks": 176832,
            "time": 167.45437800000002,
            "velocity": 0.28346456692913385
          },
          {
            "duration": 0.09090899999998214,
            "durationTicks": 96,
            "midi": 35,
            "name": "B1",
            "ticks": 177024,
            "time": 167.636196,
            "velocity": 0.28346456692913385
          },
          {
            "duration": 0.09090900000001056,
            "durationTicks": 96,
            "midi": 42,
            "name": "F#2",
            "ticks": 177216,
            "time": 167.818014,
            "velocity": 0.28346456692913385
          },
          {
            "duration": 0.09090900000001056,
            "durationTicks": 96,
            "midi": 47,
            "name": "B2",
            "ticks": 177408,
            "time": 167.999832,
            "velocity": 0.28346456692913385
          },
          {
            "duration": 0.09090899999998214,
            "durationTicks": 96,
            "midi": 42,
            "name": "F#2",
            "ticks": 177600,
            "time": 168.18165000000002,
            "velocity": 0.28346456692913385
          },
          {
            "duration": 0.09090899999998214,
            "durationTicks": 96,
            "midi": 35,
            "name": "B1",
            "ticks": 177792,
            "time": 168.363468,
            "velocity": 0.28346456692913385
          },
          {
            "duration": 1.6363620000000196,
            "durationTicks": 1728,
            "midi": 42,
            "name": "F#2",
            "ticks": 178176,
            "time": 168.727104,
            "velocity": 0.28346456692913385
          },
          {
            "duration": 1.6363620000000196,
            "durationTicks": 1728,
            "midi": 49,
            "name": "C#3",
            "ticks": 178176,
            "time": 168.727104,
            "velocity": 0.28346456692913385
          }
        ],
        "endOfTrackTicks": 179904
      },
      {
        "channel": 0,
        "controlChanges": {},
        "pitchBends": [],
        "instrument": {
          "family": "strings",
          "number": 42,
          "name": "cello"
        },
        "name": "Cello",
        "notes": [],
        "endOfTrackTicks": 185952
      },
      {
        "channel": 5,
        "controlChanges": {},
        "pitchBends": [],
        "instrument": {
          "family": "synth lead",
          "number": 82,
          "name": "lead 3 (calliope)"
        },
        "name": "8-Bit Sine",
        "notes": [
          {
            "duration": 0.363636,
            "durationTicks": 384,
            "midi": 42,
            "name": "F#2",
            "ticks": 0,
            "time": 0,
            "velocity": 0.1732283464566929
          },
          {
            "duration": 0.36363599999999996,
            "durationTicks": 384,
            "midi": 44,
            "name": "G#2",
            "ticks": 192,
            "time": 0.181818,
            "velocity": 0.1732283464566929
          },
          {
            "duration": 0.363636,
            "durationTicks": 384,
            "midi": 46,
            "name": "A#2",
            "ticks": 384,
            "time": 0.363636,
            "velocity": 0.1732283464566929
          },
          {
            "duration": 0.36363600000000007,
            "durationTicks": 384,
            "midi": 47,
            "name": "B2",
            "ticks": 576,
            "time": 0.545454,
            "velocity": 0.1732283464566929
          },
          {
            "duration": 0.36363599999999996,
            "durationTicks": 384,
            "midi": 46,
            "name": "A#2",
            "ticks": 768,
            "time": 0.727272,
            "velocity": 0.1732283464566929
          },
          {
            "duration": 0.36363599999999996,
            "durationTicks": 384,
            "midi": 49,
            "name": "C#3",
            "ticks": 768,
            "time": 0.727272,
            "velocity": 0.1732283464566929
          },
          {
            "duration": 0.36363600000000007,
            "durationTicks": 384,
            "midi": 49,
            "name": "C#3",
            "ticks": 1152,
            "time": 1.090908,
            "velocity": 0.1732283464566929
          },
          {
            "duration": 0.36363600000000007,
            "durationTicks": 384,
            "midi": 49,
            "name": "C#3",
            "ticks": 1344,
            "time": 1.272726,
            "velocity": 0.1732283464566929
          },
          {
            "duration": 0.36363600000000007,
            "durationTicks": 384,
            "midi": 49,
            "name": "C#3",
            "ticks": 1728,
            "time": 1.636362,
            "velocity": 0.1732283464566929
          },
          {
            "duration": 0.36363599999999985,
            "durationTicks": 384,
            "midi": 51,
            "name": "D#3",
            "ticks": 1920,
            "time": 1.8181800000000001,
            "velocity": 0.1732283464566929
          },
          {
            "duration": 0.818181,
            "durationTicks": 864,
            "midi": 49,
            "name": "C#3",
            "ticks": 2112,
            "time": 1.9999980000000002,
            "velocity": 0.1732283464566929
          },
          {
            "duration": 0.36363600000000007,
            "durationTicks": 384,
            "midi": 41,
            "name": "F2",
            "ticks": 2304,
            "time": 2.181816,
            "velocity": 0.1732283464566929
          },
          {
            "duration": 0.36363600000000007,
            "durationTicks": 384,
            "midi": 44,
            "name": "G#2",
            "ticks": 2304,
            "time": 2.181816,
            "velocity": 0.1732283464566929
          },
          {
            "duration": 0.36363600000000007,
            "durationTicks": 384,
            "midi": 49,
            "name": "C#3",
            "ticks": 3072,
            "time": 2.909088,
            "velocity": 0.1732283464566929
          },
          {
            "duration": 0.36363600000000007,
            "durationTicks": 384,
            "midi": 51,
            "name": "D#3",
            "ticks": 3264,
            "time": 3.090906,
            "velocity": 0.1732283464566929
          },
          {
            "duration": 0.36363600000000007,
            "durationTicks": 384,
            "midi": 49,
            "name": "C#3",
            "ticks": 3456,
            "time": 3.272724,
            "velocity": 0.1732283464566929
          },
          {
            "duration": 0.36363600000000007,
            "durationTicks": 384,
            "midi": 47,
            "name": "B2",
            "ticks": 3648,
            "time": 3.454542,
            "velocity": 0.1732283464566929
          },
          {
            "duration": 0.36363600000000007,
            "durationTicks": 384,
            "midi": 42,
            "name": "F#2",
            "ticks": 3840,
            "time": 3.6363600000000003,
            "velocity": 0.1732283464566929
          },
          {
            "duration": 0.36363600000000007,
            "durationTicks": 384,
            "midi": 46,
            "name": "A#2",
            "ticks": 3840,
            "time": 3.6363600000000003,
            "velocity": 0.1732283464566929
          },
          {
            "duration": 0.3636359999999996,
            "durationTicks": 384,
            "midi": 46,
            "name": "A#2",
            "ticks": 4224,
            "time": 3.9999960000000003,
            "velocity": 0.1732283464566929
          },
          {
            "duration": 0.6363630000000002,
            "durationTicks": 672,
            "midi": 46,
            "name": "A#2",
            "ticks": 4416,
            "time": 4.181814,
            "velocity": 0.1732283464566929
          },
          {
            "duration": 0.3636360000000005,
            "durationTicks": 384,
            "midi": 47,
            "name": "B2",
            "ticks": 4800,
            "time": 4.54545,
            "velocity": 0.1732283464566929
          },
          {
            "duration": 0.3636359999999996,
            "durationTicks": 384,
            "midi": 46,
            "name": "A#2",
            "ticks": 4992,
            "time": 4.7272680000000005,
            "velocity": 0.1732283464566929
          },
          {
            "duration": 0.818181,
            "durationTicks": 864,
            "midi": 42,
            "name": "F#2",
            "ticks": 5184,
            "time": 4.909086,
            "velocity": 0.1732283464566929
          },
          {
            "duration": 0.5454540000000003,
            "durationTicks": 576,
            "midi": 39,
            "name": "D#2",
            "ticks": 5376,
            "time": 5.090904,
            "velocity": 0.1732283464566929
          },
          {
            "duration": 0.3636359999999996,
            "durationTicks": 384,
            "midi": 42,
            "name": "F#2",
            "ticks": 6144,
            "time": 5.818176,
            "velocity": 0.1732283464566929
          },
          {
            "duration": 0.3636360000000005,
            "durationTicks": 384,
            "midi": 44,
            "name": "G#2",
            "ticks": 6336,
            "time": 5.999994,
            "velocity": 0.1732283464566929
          },
          {
            "duration": 0.3636360000000005,
            "durationTicks": 384,
            "midi": 46,
            "name": "A#2",
            "ticks": 6528,
            "time": 6.181812,
            "velocity": 0.1732283464566929
          },
          {
            "duration": 0.3636359999999996,
            "durationTicks": 384,
            "midi": 47,
            "name": "B2",
            "ticks": 6720,
            "time": 6.363630000000001,
            "velocity": 0.1732283464566929
          },
          {
            "duration": 0.3636359999999996,
            "durationTicks": 384,
            "midi": 49,
            "name": "C#3",
            "ticks": 6912,
            "time": 6.545448,
            "velocity": 0.1732283464566929
          },
          {
            "duration": 0.3636359999999996,
            "durationTicks": 384,
            "midi": 42,
            "name": "F#2",
            "ticks": 6912,
            "time": 6.545448,
            "velocity": 0.1732283464566929
          },
          {
            "duration": 0.3636359999999996,
            "durationTicks": 384,
            "midi": 46,
            "name": "A#2",
            "ticks": 6912,
            "time": 6.545448,
            "velocity": 0.1732283464566929
          },
          {
            "duration": 0.3636360000000005,
            "durationTicks": 384,
            "midi": 49,
            "name": "C#3",
            "ticks": 7296,
            "time": 6.909084,
            "velocity": 0.1732283464566929
          },
          {
            "duration": 0.3636359999999996,
            "durationTicks": 384,
            "midi": 49,
            "name": "C#3",
            "ticks": 7488,
            "time": 7.090902000000001,
            "velocity": 0.1732283464566929
          },
          {
            "duration": 0.3636359999999996,
            "durationTicks": 384,
            "midi": 49,
            "name": "C#3",
            "ticks": 7872,
            "time": 7.454538,
            "velocity": 0.1732283464566929
          },
          {
            "duration": 0.3636360000000005,
            "durationTicks": 384,
            "midi": 51,
            "name": "D#3",
            "ticks": 8064,
            "time": 7.636356,
            "velocity": 0.1732283464566929
          },
          {
            "duration": 0.3636360000000005,
            "durationTicks": 384,
            "midi": 49,
            "name": "C#3",
            "ticks": 8256,
            "time": 7.818174,
            "velocity": 0.1732283464566929
          },
          {
            "duration": 0.3636359999999996,
            "durationTicks": 384,
            "midi": 44,
            "name": "G#2",
            "ticks": 8448,
            "time": 7.999992000000001,
            "velocity": 0.1732283464566929
          },
          {
            "duration": 0.3636359999999996,
            "durationTicks": 384,
            "midi": 41,
            "name": "F2",
            "ticks": 8448,
            "time": 7.999992000000001,
            "velocity": 0.1732283464566929
          },
          {
            "duration": 0.3636359999999996,
            "durationTicks": 384,
            "midi": 49,
            "name": "C#3",
            "ticks": 9216,
            "time": 8.727264,
            "velocity": 0.1732283464566929
          },
          {
            "duration": 0.3636360000000014,
            "durationTicks": 384,
            "midi": 51,
            "name": "D#3",
            "ticks": 9408,
            "time": 8.909082,
            "velocity": 0.1732283464566929
          },
          {
            "duration": 0.3636360000000014,
            "durationTicks": 384,
            "midi": 49,
            "name": "C#3",
            "ticks": 9600,
            "time": 9.0909,
            "velocity": 0.1732283464566929
          },
          {
            "duration": 0.3636359999999996,
            "durationTicks": 384,
            "midi": 47,
            "name": "B2",
            "ticks": 9792,
            "time": 9.272718000000001,
            "velocity": 0.1732283464566929
          },
          {
            "duration": 0.3636359999999996,
            "durationTicks": 384,
            "midi": 46,
            "name": "A#2",
            "ticks": 9984,
            "time": 9.454536000000001,
            "velocity": 0.1732283464566929
          },
          {
            "duration": 0.3636359999999996,
            "durationTicks": 384,
            "midi": 42,
            "name": "F#2",
            "ticks": 9984,
            "time": 9.454536000000001,
            "velocity": 0.1732283464566929
          },
          {
            "duration": 0.3636359999999996,
            "durationTicks": 384,
            "midi": 46,
            "name": "A#2",
            "ticks": 10368,
            "time": 9.818172,
            "velocity": 0.1732283464566929
          },
          {
            "duration": 0.6363629999999993,
            "durationTicks": 672,
            "midi": 46,
            "name": "A#2",
            "ticks": 10560,
            "time": 9.99999,
            "velocity": 0.1732283464566929
          },
          {
            "duration": 0.3636359999999996,
            "durationTicks": 384,
            "midi": 47,
            "name": "B2",
            "ticks": 10944,
            "time": 10.363626,
            "velocity": 0.1732283464566929
          },
          {
            "duration": 0.3636360000000014,
            "durationTicks": 384,
            "midi": 46,
            "name": "A#2",
            "ticks": 11136,
            "time": 10.545444,
            "velocity": 0.1732283464566929
          },
          {
            "duration": 0.3636360000000014,
            "durationTicks": 384,
            "midi": 42,
            "name": "F#2",
            "ticks": 11328,
            "time": 10.727262,
            "velocity": 0.1732283464566929
          },
          {
            "duration": 0.3636359999999996,
            "durationTicks": 384,
            "midi": 35,
            "name": "B1",
            "ticks": 11520,
            "time": 10.909080000000001,
            "velocity": 0.1732283464566929
          },
          {
            "duration": 0.3636359999999996,
            "durationTicks": 384,
            "midi": 39,
            "name": "D#2",
            "ticks": 11520,
            "time": 10.909080000000001,
            "velocity": 0.1732283464566929
          },
          {
            "duration": 0.3636360000000014,
            "durationTicks": 384,
            "midi": 25,
            "name": "C#1",
            "ticks": 13056,
            "time": 12.363624,
            "velocity": 0.1732283464566929
          },
          {
            "duration": 0.3636359999999996,
            "durationTicks": 384,
            "midi": 30,
            "name": "F#1",
            "ticks": 13440,
            "time": 12.727260000000001,
            "velocity": 0.1732283464566929
          },
          {
            "duration": 0.3636359999999996,
            "durationTicks": 384,
            "midi": 34,
            "name": "A#1",
            "ticks": 13824,
            "time": 13.090896,
            "velocity": 0.1732283464566929
          },
          {
            "duration": 0.3636359999999996,
            "durationTicks": 384,
            "midi": 37,
            "name": "C#2",
            "ticks": 14208,
            "time": 13.454532,
            "velocity": 0.1732283464566929
          },
          {
            "duration": 0.3636360000000014,
            "durationTicks": 384,
            "midi": 42,
            "name": "F#2",
            "ticks": 14592,
            "time": 13.818168,
            "velocity": 0.1732283464566929
          },
          {
            "duration": 0.3636359999999996,
            "durationTicks": 384,
            "midi": 46,
            "name": "A#2",
            "ticks": 14976,
            "time": 14.181804000000001,
            "velocity": 0.1732283464566929
          },
          {
            "duration": 0.3636359999999996,
            "durationTicks": 384,
            "midi": 49,
            "name": "C#3",
            "ticks": 15360,
            "time": 14.545440000000001,
            "velocity": 0.1732283464566929
          },
          {
            "duration": 0.3636359999999996,
            "durationTicks": 384,
            "midi": 54,
            "name": "F#3",
            "ticks": 15744,
            "time": 14.909076,
            "velocity": 0.1732283464566929
          },
          {
            "duration": 0.3636359999999996,
            "durationTicks": 384,
            "midi": 58,
            "name": "A#3",
            "ticks": 16128,
            "time": 15.272712,
            "velocity": 0.1732283464566929
          },
          {
            "duration": 0.3636359999999996,
            "durationTicks": 384,
            "midi": 54,
            "name": "F#3",
            "ticks": 16128,
            "time": 15.272712,
            "velocity": 0.1732283464566929
          },
          {
            "duration": 0.3636360000000014,
            "durationTicks": 384,
            "midi": 58,
            "name": "A#3",
            "ticks": 16512,
            "time": 15.636348,
            "velocity": 0.1732283464566929
          },
          {
            "duration": 0.3636360000000014,
            "durationTicks": 384,
            "midi": 54,
            "name": "F#3",
            "ticks": 16512,
            "time": 15.636348,
            "velocity": 0.1732283464566929
          },
          {
            "duration": 0.3636359999999996,
            "durationTicks": 384,
            "midi": 58,
            "name": "A#3",
            "ticks": 16704,
            "time": 15.818166000000002,
            "velocity": 0.1732283464566929
          },
          {
            "duration": 0.3636359999999996,
            "durationTicks": 384,
            "midi": 54,
            "name": "F#3",
            "ticks": 16704,
            "time": 15.818166000000002,
            "velocity": 0.1732283464566929
          },
          {
            "duration": 0.3636359999999996,
            "durationTicks": 384,
            "midi": 59,
            "name": "B3",
            "ticks": 17088,
            "time": 16.181802,
            "velocity": 0.1732283464566929
          },
          {
            "duration": 0.3636359999999996,
            "durationTicks": 384,
            "midi": 54,
            "name": "F#3",
            "ticks": 17280,
            "time": 16.36362,
            "velocity": 0.1732283464566929
          },
          {
            "duration": 0.3636359999999996,
            "durationTicks": 384,
            "midi": 58,
            "name": "A#3",
            "ticks": 17472,
            "time": 16.545438,
            "velocity": 0.1732283464566929
          },
          {
            "duration": 0.3636359999999996,
            "durationTicks": 384,
            "midi": 56,
            "name": "G#3",
            "ticks": 17664,
            "time": 16.727256,
            "velocity": 0.1732283464566929
          },
          {
            "duration": 0.3636359999999996,
            "durationTicks": 384,
            "midi": 53,
            "name": "F3",
            "ticks": 17664,
            "time": 16.727256,
            "velocity": 0.1732283464566929
          },
          {
            "duration": 0.3636359999999996,
            "durationTicks": 384,
            "midi": 56,
            "name": "G#3",
            "ticks": 18048,
            "time": 17.090892,
            "velocity": 0.1732283464566929
          },
          {
            "duration": 0.3636359999999996,
            "durationTicks": 384,
            "midi": 53,
            "name": "F3",
            "ticks": 18048,
            "time": 17.090892,
            "velocity": 0.1732283464566929
          },
          {
            "duration": 0.3636359999999996,
            "durationTicks": 384,
            "midi": 56,
            "name": "G#3",
            "ticks": 18240,
            "time": 17.27271,
            "velocity": 0.1732283464566929
          },
          {
            "duration": 0.3636359999999996,
            "durationTicks": 384,
            "midi": 53,
            "name": "F3",
            "ticks": 18240,
            "time": 17.27271,
            "velocity": 0.1732283464566929
          },
          {
            "duration": 0.3636359999999996,
            "durationTicks": 384,
            "midi": 61,
            "name": "C#4",
            "ticks": 18624,
            "time": 17.636346,
            "velocity": 0.1732283464566929
          },
          {
            "duration": 0.3636359999999996,
            "durationTicks": 384,
            "midi": 53,
            "name": "F3",
            "ticks": 18816,
            "time": 17.818164,
            "velocity": 0.1732283464566929
          },
          {
            "duration": 0.3636360000000032,
            "durationTicks": 384,
            "midi": 56,
            "name": "G#3",
            "ticks": 19008,
            "time": 17.999982,
            "velocity": 0.1732283464566929
          },
          {
            "duration": 0.3636360000000032,
            "durationTicks": 384,
            "midi": 54,
            "name": "F#3",
            "ticks": 19200,
            "time": 18.1818,
            "velocity": 0.1732283464566929
          },
          {
            "duration": 0.3636360000000032,
            "durationTicks": 384,
            "midi": 54,
            "name": "F#3",
            "ticks": 19200,
            "time": 18.1818,
            "velocity": 0.1732283464566929
          },
          {
            "duration": 0.3636360000000032,
            "durationTicks": 384,
            "midi": 51,
            "name": "D#3",
            "ticks": 19200,
            "time": 18.1818,
            "velocity": 0.1732283464566929
          },
          {
            "duration": 0.3636359999999996,
            "durationTicks": 384,
            "midi": 51,
            "name": "D#3",
            "ticks": 19584,
            "time": 18.545436000000002,
            "velocity": 0.1732283464566929
          },
          {
            "duration": 0.3636359999999996,
            "durationTicks": 384,
            "midi": 54,
            "name": "F#3",
            "ticks": 19584,
            "time": 18.545436000000002,
            "velocity": 0.1732283464566929
          },
          {
            "duration": 0.3636359999999996,
            "durationTicks": 384,
            "midi": 51,
            "name": "D#3",
            "ticks": 19776,
            "time": 18.727254000000002,
            "velocity": 0.1732283464566929
          },
          {
            "duration": 0.3636359999999996,
            "durationTicks": 384,
            "midi": 54,
            "name": "F#3",
            "ticks": 19776,
            "time": 18.727254000000002,
            "velocity": 0.1732283464566929
          },
          {
            "duration": 0.3636359999999996,
            "durationTicks": 384,
            "midi": 56,
            "name": "G#3",
            "ticks": 20160,
            "time": 19.09089,
            "velocity": 0.1732283464566929
          },
          {
            "duration": 0.3636359999999996,
            "durationTicks": 384,
            "midi": 51,
            "name": "D#3",
            "ticks": 20352,
            "time": 19.272708,
            "velocity": 0.1732283464566929
          },
          {
            "duration": 0.3636359999999996,
            "durationTicks": 384,
            "midi": 53,
            "name": "F3",
            "ticks": 20544,
            "time": 19.454526,
            "velocity": 0.1732283464566929
          },
          {
            "duration": 0.3636359999999996,
            "durationTicks": 384,
            "midi": 54,
            "name": "F#3",
            "ticks": 20736,
            "time": 19.636344,
            "velocity": 0.1732283464566929
          },
          {
            "duration": 0.3636359999999996,
            "durationTicks": 384,
            "midi": 51,
            "name": "D#3",
            "ticks": 20736,
            "time": 19.636344,
            "velocity": 0.1732283464566929
          },
          {
            "duration": 0.3636359999999996,
            "durationTicks": 384,
            "midi": 51,
            "name": "D#3",
            "ticks": 21120,
            "time": 19.99998,
            "velocity": 0.1732283464566929
          },
          {
            "duration": 0.3636359999999996,
            "durationTicks": 384,
            "midi": 54,
            "name": "F#3",
            "ticks": 21120,
            "time": 19.99998,
            "velocity": 0.1732283464566929
          },
          {
            "duration": 0.3636359999999996,
            "durationTicks": 384,
            "midi": 54,
            "name": "F#3",
            "ticks": 21312,
            "time": 20.181798,
            "velocity": 0.1732283464566929
          },
          {
            "duration": 0.3636359999999996,
            "durationTicks": 384,
            "midi": 51,
            "name": "D#3",
            "ticks": 21312,
            "time": 20.181798,
            "velocity": 0.1732283464566929
          },
          {
            "duration": 0.3636359999999996,
            "durationTicks": 384,
            "midi": 53,
            "name": "F3",
            "ticks": 21696,
            "time": 20.545434,
            "velocity": 0.1732283464566929
          },
          {
            "duration": 0.3636359999999996,
            "durationTicks": 384,
            "midi": 54,
            "name": "F#3",
            "ticks": 21888,
            "time": 20.727252,
            "velocity": 0.1732283464566929
          },
          {
            "duration": 0.3636359999999996,
            "durationTicks": 384,
            "midi": 56,
            "name": "G#3",
            "ticks": 22080,
            "time": 20.90907,
            "velocity": 0.1732283464566929
          },
          {
            "duration": 0.3636359999999996,
            "durationTicks": 384,
            "midi": 54,
            "name": "F#3",
            "ticks": 22272,
            "time": 21.090888,
            "velocity": 0.1732283464566929
          },
          {
            "duration": 0.3636359999999996,
            "durationTicks": 384,
            "midi": 58,
            "name": "A#3",
            "ticks": 22272,
            "time": 21.090888,
            "velocity": 0.1732283464566929
          },
          {
            "duration": 0.3636360000000032,
            "durationTicks": 384,
            "midi": 58,
            "name": "A#3",
            "ticks": 22656,
            "time": 21.454524,
            "velocity": 0.1732283464566929
          },
          {
            "duration": 0.3636360000000032,
            "durationTicks": 384,
            "midi": 54,
            "name": "F#3",
            "ticks": 22656,
            "time": 21.454524,
            "velocity": 0.1732283464566929
          },
          {
            "duration": 0.3636359999999996,
            "durationTicks": 384,
            "midi": 58,
            "name": "A#3",
            "ticks": 22848,
            "time": 21.636342000000003,
            "velocity": 0.1732283464566929
          },
          {
            "duration": 0.3636359999999996,
            "durationTicks": 384,
            "midi": 54,
            "name": "F#3",
            "ticks": 22848,
            "time": 21.636342000000003,
            "velocity": 0.1732283464566929
          },
          {
            "duration": 0.3636359999999996,
            "durationTicks": 384,
            "midi": 59,
            "name": "B3",
            "ticks": 23232,
            "time": 21.999978000000002,
            "velocity": 0.1732283464566929
          },
          {
            "duration": 0.3636359999999996,
            "durationTicks": 384,
            "midi": 54,
            "name": "F#3",
            "ticks": 23424,
            "time": 22.181796000000002,
            "velocity": 0.1732283464566929
          },
          {
            "duration": 0.3636359999999996,
            "durationTicks": 384,
            "midi": 58,
            "name": "A#3",
            "ticks": 23616,
            "time": 22.363614000000002,
            "velocity": 0.1732283464566929
          },
          {
            "duration": 0.3636359999999996,
            "durationTicks": 384,
            "midi": 56,
            "name": "G#3",
            "ticks": 23808,
            "time": 22.545432,
            "velocity": 0.1732283464566929
          },
          {
            "duration": 0.3636359999999996,
            "durationTicks": 384,
            "midi": 53,
            "name": "F3",
            "ticks": 23808,
            "time": 22.545432,
            "velocity": 0.1732283464566929
          },
          {
            "duration": 0.3636359999999996,
            "durationTicks": 384,
            "midi": 53,
            "name": "F3",
            "ticks": 24192,
            "time": 22.909068,
            "velocity": 0.1732283464566929
          },
          {
            "duration": 0.3636359999999996,
            "durationTicks": 384,
            "midi": 56,
            "name": "G#3",
            "ticks": 24192,
            "time": 22.909068,
            "velocity": 0.1732283464566929
          },
          {
            "duration": 0.3636359999999996,
            "durationTicks": 384,
            "midi": 56,
            "name": "G#3",
            "ticks": 24384,
            "time": 23.090886,
            "velocity": 0.1732283464566929
          },
          {
            "duration": 0.3636359999999996,
            "durationTicks": 384,
            "midi": 53,
            "name": "F3",
            "ticks": 24384,
            "time": 23.090886,
            "velocity": 0.1732283464566929
          },
          {
            "duration": 0.3636359999999996,
            "durationTicks": 384,
            "midi": 61,
            "name": "C#4",
            "ticks": 24768,
            "time": 23.454522,
            "velocity": 0.1732283464566929
          },
          {
            "duration": 0.3636359999999996,
            "durationTicks": 384,
            "midi": 53,
            "name": "F3",
            "ticks": 24960,
            "time": 23.63634,
            "velocity": 0.1732283464566929
          },
          {
            "duration": 0.3636359999999996,
            "durationTicks": 384,
            "midi": 56,
            "name": "G#3",
            "ticks": 25152,
            "time": 23.818158,
            "velocity": 0.1732283464566929
          },
          {
            "duration": 0.3636359999999996,
            "durationTicks": 384,
            "midi": 54,
            "name": "F#3",
            "ticks": 25344,
            "time": 23.999976,
            "velocity": 0.1732283464566929
          },
          {
            "duration": 0.3636359999999996,
            "durationTicks": 384,
            "midi": 51,
            "name": "D#3",
            "ticks": 25344,
            "time": 23.999976,
            "velocity": 0.1732283464566929
          },
          {
            "duration": 0.3636359999999996,
            "durationTicks": 384,
            "midi": 51,
            "name": "D#3",
            "ticks": 25728,
            "time": 24.363612,
            "velocity": 0.1732283464566929
          },
          {
            "duration": 0.3636359999999996,
            "durationTicks": 384,
            "midi": 54,
            "name": "F#3",
            "ticks": 25728,
            "time": 24.363612,
            "velocity": 0.1732283464566929
          },
          {
            "duration": 0.3636359999999996,
            "durationTicks": 384,
            "midi": 51,
            "name": "D#3",
            "ticks": 25920,
            "time": 24.54543,
            "velocity": 0.1732283464566929
          },
          {
            "duration": 0.3636359999999996,
            "durationTicks": 384,
            "midi": 54,
            "name": "F#3",
            "ticks": 25920,
            "time": 24.54543,
            "velocity": 0.1732283464566929
          },
          {
            "duration": 0.3636360000000032,
            "durationTicks": 384,
            "midi": 56,
            "name": "G#3",
            "ticks": 26304,
            "time": 24.909066,
            "velocity": 0.1732283464566929
          },
          {
            "duration": 0.3636359999999996,
            "durationTicks": 384,
            "midi": 51,
            "name": "D#3",
            "ticks": 26496,
            "time": 25.090884000000003,
            "velocity": 0.1732283464566929
          },
          {
            "duration": 0.3636359999999996,
            "durationTicks": 384,
            "midi": 53,
            "name": "F3",
            "ticks": 26688,
            "time": 25.272702000000002,
            "velocity": 0.1732283464566929
          },
          {
            "duration": 0.3636359999999996,
            "durationTicks": 384,
            "midi": 51,
            "name": "D#3",
            "ticks": 26880,
            "time": 25.454520000000002,
            "velocity": 0.1732283464566929
          },
          {
            "duration": 0.3636359999999996,
            "durationTicks": 384,
            "midi": 54,
            "name": "F#3",
            "ticks": 26880,
            "time": 25.454520000000002,
            "velocity": 0.1732283464566929
          },
          {
            "duration": 0.3636359999999996,
            "durationTicks": 384,
            "midi": 54,
            "name": "F#3",
            "ticks": 27264,
            "time": 25.818156000000002,
            "velocity": 0.1732283464566929
          },
          {
            "duration": 0.3636359999999996,
            "durationTicks": 384,
            "midi": 51,
            "name": "D#3",
            "ticks": 27264,
            "time": 25.818156000000002,
            "velocity": 0.1732283464566929
          },
          {
            "duration": 0.3636359999999996,
            "durationTicks": 384,
            "midi": 54,
            "name": "F#3",
            "ticks": 27456,
            "time": 25.999974,
            "velocity": 0.1732283464566929
          },
          {
            "duration": 0.3636359999999996,
            "durationTicks": 384,
            "midi": 51,
            "name": "D#3",
            "ticks": 27456,
            "time": 25.999974,
            "velocity": 0.1732283464566929
          },
          {
            "duration": 0.3636359999999996,
            "durationTicks": 384,
            "midi": 47,
            "name": "B2",
            "ticks": 27840,
            "time": 26.36361,
            "velocity": 0.1732283464566929
          },
          {
            "duration": 0.3636359999999996,
            "durationTicks": 384,
            "midi": 47,
            "name": "B2",
            "ticks": 27840,
            "time": 26.36361,
            "velocity": 0.1732283464566929
          },
          {
            "duration": 0.3636359999999996,
            "durationTicks": 384,
            "midi": 42,
            "name": "F#2",
            "ticks": 28032,
            "time": 26.545428,
            "velocity": 0.1732283464566929
          },
          {
            "duration": 0.3636359999999996,
            "durationTicks": 384,
            "midi": 37,
            "name": "C#2",
            "ticks": 28224,
            "time": 26.727246,
            "velocity": 0.1732283464566929
          },
          {
            "duration": 0.3636359999999996,
            "durationTicks": 384,
            "midi": 42,
            "name": "F#2",
            "ticks": 28416,
            "time": 26.909064,
            "velocity": 0.1732283464566929
          },
          {
            "duration": 0.3636359999999996,
            "durationTicks": 384,
            "midi": 42,
            "name": "F#2",
            "ticks": 28800,
            "time": 27.2727,
            "velocity": 0.1732283464566929
          },
          {
            "duration": 0.3636359999999996,
            "durationTicks": 384,
            "midi": 42,
            "name": "F#2",
            "ticks": 29184,
            "time": 27.636336,
            "velocity": 0.1732283464566929
          },
          {
            "duration": 0.3636360000000032,
            "durationTicks": 384,
            "midi": 42,
            "name": "F#2",
            "ticks": 29568,
            "time": 27.999972,
            "velocity": 0.1732283464566929
          },
          {
            "duration": 0.3636360000000032,
            "durationTicks": 384,
            "midi": 42,
            "name": "F#2",
            "ticks": 29760,
            "time": 28.18179,
            "velocity": 0.1732283464566929
          },
          {
            "duration": 0.3636359999999996,
            "durationTicks": 384,
            "midi": 44,
            "name": "G#2",
            "ticks": 29952,
            "time": 28.363608000000003,
            "velocity": 0.1732283464566929
          },
          {
            "duration": 0.3636359999999996,
            "durationTicks": 384,
            "midi": 46,
            "name": "A#2",
            "ticks": 30144,
            "time": 28.545426000000003,
            "velocity": 0.1732283464566929
          },
          {
            "duration": 0.3636359999999996,
            "durationTicks": 384,
            "midi": 46,
            "name": "A#2",
            "ticks": 30528,
            "time": 28.909062000000002,
            "velocity": 0.1732283464566929
          },
          {
            "duration": 0.3636359999999996,
            "durationTicks": 384,
            "midi": 49,
            "name": "C#3",
            "ticks": 31296,
            "time": 29.636334,
            "velocity": 0.1732283464566929
          },
          {
            "duration": 0.3636359999999996,
            "durationTicks": 384,
            "midi": 42,
            "name": "F#2",
            "ticks": 31680,
            "time": 29.99997,
            "velocity": 0.1732283464566929
          },
          {
            "duration": 0.3636359999999996,
            "durationTicks": 384,
            "midi": 42,
            "name": "F#2",
            "ticks": 31872,
            "time": 30.181788,
            "velocity": 0.1732283464566929
          },
          {
            "duration": 0.3636359999999996,
            "durationTicks": 384,
            "midi": 42,
            "name": "F#2",
            "ticks": 32064,
            "time": 30.363606,
            "velocity": 0.1732283464566929
          },
          {
            "duration": 0.3636359999999996,
            "durationTicks": 384,
            "midi": 42,
            "name": "F#2",
            "ticks": 32448,
            "time": 30.727242,
            "velocity": 0.1732283464566929
          },
          {
            "duration": 0.3636359999999996,
            "durationTicks": 384,
            "midi": 42,
            "name": "F#2",
            "ticks": 32640,
            "time": 30.90906,
            "velocity": 0.1732283464566929
          },
          {
            "duration": 0.3636359999999996,
            "durationTicks": 384,
            "midi": 46,
            "name": "A#2",
            "ticks": 32832,
            "time": 31.090878,
            "velocity": 0.1732283464566929
          },
          {
            "duration": 0.3636360000000032,
            "durationTicks": 384,
            "midi": 44,
            "name": "G#2",
            "ticks": 33024,
            "time": 31.272696,
            "velocity": 0.1732283464566929
          },
          {
            "duration": 0.3636359999999996,
            "durationTicks": 384,
            "midi": 42,
            "name": "F#2",
            "ticks": 33408,
            "time": 31.636332000000003,
            "velocity": 0.1732283464566929
          },
          {
            "duration": 0.3636359999999996,
            "durationTicks": 384,
            "midi": 41,
            "name": "F2",
            "ticks": 34176,
            "time": 32.363604,
            "velocity": 0.1732283464566929
          },
          {
            "duration": 0.3636359999999996,
            "durationTicks": 384,
            "midi": 39,
            "name": "D#2",
            "ticks": 34560,
            "time": 32.72724,
            "velocity": 0.1732283464566929
          },
          {
            "duration": 0.3636359999999996,
            "durationTicks": 384,
            "midi": 37,
            "name": "C#2",
            "ticks": 34752,
            "time": 32.909058,
            "velocity": 0.1732283464566929
          },
          {
            "duration": 0.3636359999999996,
            "durationTicks": 384,
            "midi": 37,
            "name": "C#2",
            "ticks": 36288,
            "time": 34.363602,
            "velocity": 0.1732283464566929
          },
          {
            "duration": 0.3636359999999996,
            "durationTicks": 384,
            "midi": 37,
            "name": "C#2",
            "ticks": 36672,
            "time": 34.727238,
            "velocity": 0.1732283464566929
          },
          {
            "duration": 0.3636359999999996,
            "durationTicks": 384,
            "midi": 39,
            "name": "D#2",
            "ticks": 36864,
            "time": 34.909056,
            "velocity": 0.1732283464566929
          },
          {
            "duration": 0.3636359999999996,
            "durationTicks": 384,
            "midi": 41,
            "name": "F2",
            "ticks": 37056,
            "time": 35.090874,
            "velocity": 0.1732283464566929
          },
          {
            "duration": 0.3636359999999996,
            "durationTicks": 384,
            "midi": 42,
            "name": "F#2",
            "ticks": 37248,
            "time": 35.272692,
            "velocity": 0.1732283464566929
          },
          {
            "duration": 0.3636359999999996,
            "durationTicks": 384,
            "midi": 39,
            "name": "D#2",
            "ticks": 37632,
            "time": 35.636328,
            "velocity": 0.1732283464566929
          },
          {
            "duration": 0.3636359999999996,
            "durationTicks": 384,
            "midi": 37,
            "name": "C#2",
            "ticks": 37824,
            "time": 35.818146,
            "velocity": 0.1732283464566929
          },
          {
            "duration": 0.3636359999999996,
            "durationTicks": 384,
            "midi": 54,
            "name": "F#3",
            "ticks": 38784,
            "time": 36.727236000000005,
            "velocity": 0.1732283464566929
          },
          {
            "duration": 0.3636359999999996,
            "durationTicks": 384,
            "midi": 51,
            "name": "D#3",
            "ticks": 39168,
            "time": 37.090872000000005,
            "velocity": 0.1732283464566929
          },
          {
            "duration": 0.3636359999999996,
            "durationTicks": 384,
            "midi": 49,
            "name": "C#3",
            "ticks": 39360,
            "time": 37.272690000000004,
            "velocity": 0.1732283464566929
          },
          {
            "duration": 0.3636359999999996,
            "durationTicks": 384,
            "midi": 37,
            "name": "C#2",
            "ticks": 40128,
            "time": 37.999962000000004,
            "velocity": 0.1732283464566929
          },
          {
            "duration": 0.3636359999999996,
            "durationTicks": 384,
            "midi": 42,
            "name": "F#2",
            "ticks": 40320,
            "time": 38.18178,
            "velocity": 0.1732283464566929
          },
          {
            "duration": 0.3636359999999996,
            "durationTicks": 384,
            "midi": 42,
            "name": "F#2",
            "ticks": 40512,
            "time": 38.363598,
            "velocity": 0.1732283464566929
          },
          {
            "duration": 0.3636359999999996,
            "durationTicks": 384,
            "midi": 42,
            "name": "F#2",
            "ticks": 40704,
            "time": 38.545416,
            "velocity": 0.1732283464566929
          },
          {
            "duration": 0.3636359999999996,
            "durationTicks": 384,
            "midi": 42,
            "name": "F#2",
            "ticks": 40896,
            "time": 38.727234,
            "velocity": 0.1732283464566929
          },
          {
            "duration": 0.3636359999999996,
            "durationTicks": 384,
            "midi": 42,
            "name": "F#2",
            "ticks": 41088,
            "time": 38.909052,
            "velocity": 0.1732283464566929
          },
          {
            "duration": 0.3636359999999996,
            "durationTicks": 384,
            "midi": 42,
            "name": "F#2",
            "ticks": 41472,
            "time": 39.272688,
            "velocity": 0.1732283464566929
          },
          {
            "duration": 0.3636359999999996,
            "durationTicks": 384,
            "midi": 44,
            "name": "G#2",
            "ticks": 41856,
            "time": 39.636324,
            "velocity": 0.1732283464566929
          },
          {
            "duration": 0.3636359999999996,
            "durationTicks": 384,
            "midi": 46,
            "name": "A#2",
            "ticks": 42048,
            "time": 39.818142,
            "velocity": 0.1732283464566929
          },
          {
            "duration": 0.3636359999999996,
            "durationTicks": 384,
            "midi": 46,
            "name": "A#2",
            "ticks": 42432,
            "time": 40.181778,
            "velocity": 0.1732283464566929
          },
          {
            "duration": 0.3636359999999996,
            "durationTicks": 384,
            "midi": 37,
            "name": "C#2",
            "ticks": 43200,
            "time": 40.90905,
            "velocity": 0.1732283464566929
          },
          {
            "duration": 0.3636359999999996,
            "durationTicks": 384,
            "midi": 42,
            "name": "F#2",
            "ticks": 43392,
            "time": 41.090868,
            "velocity": 0.1732283464566929
          },
          {
            "duration": 0.3636359999999996,
            "durationTicks": 384,
            "midi": 42,
            "name": "F#2",
            "ticks": 43584,
            "time": 41.272686,
            "velocity": 0.1732283464566929
          },
          {
            "duration": 0.3636359999999996,
            "durationTicks": 384,
            "midi": 42,
            "name": "F#2",
            "ticks": 43776,
            "time": 41.454504,
            "velocity": 0.1732283464566929
          },
          {
            "duration": 0.3636359999999996,
            "durationTicks": 384,
            "midi": 42,
            "name": "F#2",
            "ticks": 43968,
            "time": 41.636322,
            "velocity": 0.1732283464566929
          },
          {
            "duration": 0.3636359999999996,
            "durationTicks": 384,
            "midi": 42,
            "name": "F#2",
            "ticks": 44160,
            "time": 41.81814,
            "velocity": 0.1732283464566929
          },
          {
            "duration": 0.3636359999999996,
            "durationTicks": 384,
            "midi": 42,
            "name": "F#2",
            "ticks": 44544,
            "time": 42.181776,
            "velocity": 0.1732283464566929
          },
          {
            "duration": 0.3636359999999996,
            "durationTicks": 384,
            "midi": 49,
            "name": "C#3",
            "ticks": 44928,
            "time": 42.545412,
            "velocity": 0.1732283464566929
          },
          {
            "duration": 0.3636359999999996,
            "durationTicks": 384,
            "midi": 47,
            "name": "B2",
            "ticks": 45120,
            "time": 42.72723,
            "velocity": 0.1732283464566929
          },
          {
            "duration": 0.36363600000000673,
            "durationTicks": 384,
            "midi": 46,
            "name": "A#2",
            "ticks": 45504,
            "time": 43.090866,
            "velocity": 0.1732283464566929
          },
          {
            "duration": 0.3636359999999996,
            "durationTicks": 384,
            "midi": 41,
            "name": "F2",
            "ticks": 46464,
            "time": 43.999956000000005,
            "velocity": 0.1732283464566929
          },
          {
            "duration": 0.3636359999999996,
            "durationTicks": 384,
            "midi": 44,
            "name": "G#2",
            "ticks": 46848,
            "time": 44.363592000000004,
            "velocity": 0.1732283464566929
          },
          {
            "duration": 0.3636359999999996,
            "durationTicks": 384,
            "midi": 37,
            "name": "C#2",
            "ticks": 47040,
            "time": 44.545410000000004,
            "velocity": 0.1732283464566929
          },
          {
            "duration": 0.3636359999999996,
            "durationTicks": 384,
            "midi": 37,
            "name": "C#2",
            "ticks": 48384,
            "time": 45.818136,
            "velocity": 0.1732283464566929
          },
          {
            "duration": 0.3636359999999996,
            "durationTicks": 384,
            "midi": 37,
            "name": "C#2",
            "ticks": 48576,
            "time": 45.999954,
            "velocity": 0.1732283464566929
          },
          {
            "duration": 0.3636359999999996,
            "durationTicks": 384,
            "midi": 37,
            "name": "C#2",
            "ticks": 48960,
            "time": 46.36359,
            "velocity": 0.1732283464566929
          },
          {
            "duration": 0.3636359999999996,
            "durationTicks": 384,
            "midi": 46,
            "name": "A#2",
            "ticks": 49152,
            "time": 46.545408,
            "velocity": 0.1732283464566929
          },
          {
            "duration": 0.3636359999999996,
            "durationTicks": 384,
            "midi": 44,
            "name": "G#2",
            "ticks": 49344,
            "time": 46.727226,
            "velocity": 0.1732283464566929
          },
          {
            "duration": 0.3636359999999996,
            "durationTicks": 384,
            "midi": 42,
            "name": "F#2",
            "ticks": 49536,
            "time": 46.909044,
            "velocity": 0.1732283464566929
          },
          {
            "duration": 0.3636359999999996,
            "durationTicks": 384,
            "midi": 37,
            "name": "C#2",
            "ticks": 51264,
            "time": 48.545406,
            "velocity": 0.1732283464566929
          },
          {
            "duration": 0.3636359999999996,
            "durationTicks": 384,
            "midi": 42,
            "name": "F#2",
            "ticks": 51264,
            "time": 48.545406,
            "velocity": 0.1732283464566929
          },
          {
            "duration": 0.3636359999999996,
            "durationTicks": 384,
            "midi": 39,
            "name": "D#2",
            "ticks": 51456,
            "time": 48.727224,
            "velocity": 0.1732283464566929
          },
          {
            "duration": 0.3636359999999996,
            "durationTicks": 384,
            "midi": 44,
            "name": "G#2",
            "ticks": 51456,
            "time": 48.727224,
            "velocity": 0.1732283464566929
          },
          {
            "duration": 0.3636359999999996,
            "durationTicks": 384,
            "midi": 42,
            "name": "F#2",
            "ticks": 51648,
            "time": 48.909042,
            "velocity": 0.1732283464566929
          },
          {
            "duration": 0.3636359999999996,
            "durationTicks": 384,
            "midi": 37,
            "name": "C#2",
            "ticks": 51648,
            "time": 48.909042,
            "velocity": 0.1732283464566929
          },
          {
            "duration": 0.3636359999999996,
            "durationTicks": 384,
            "midi": 42,
            "name": "F#2",
            "ticks": 51840,
            "time": 49.09086,
            "velocity": 0.1732283464566929
          },
          {
            "duration": 0.3636359999999996,
            "durationTicks": 384,
            "midi": 46,
            "name": "A#2",
            "ticks": 51840,
            "time": 49.09086,
            "velocity": 0.1732283464566929
          },
          {
            "duration": 0.3636359999999996,
            "durationTicks": 384,
            "midi": 44,
            "name": "G#2",
            "ticks": 52224,
            "time": 49.454496,
            "velocity": 0.1732283464566929
          },
          {
            "duration": 0.3636359999999996,
            "durationTicks": 384,
            "midi": 39,
            "name": "D#2",
            "ticks": 52224,
            "time": 49.454496,
            "velocity": 0.1732283464566929
          },
          {
            "duration": 0.36363600000000673,
            "durationTicks": 384,
            "midi": 42,
            "name": "F#2",
            "ticks": 52416,
            "time": 49.636314,
            "velocity": 0.1732283464566929
          },
          {
            "duration": 0.36363600000000673,
            "durationTicks": 384,
            "midi": 37,
            "name": "C#2",
            "ticks": 52416,
            "time": 49.636314,
            "velocity": 0.1732283464566929
          },
          {
            "duration": 0.36363600000000673,
            "durationTicks": 384,
            "midi": 37,
            "name": "C#2",
            "ticks": 52608,
            "time": 49.818132,
            "velocity": 0.1732283464566929
          },
          {
            "duration": 0.3636359999999996,
            "durationTicks": 384,
            "midi": 46,
            "name": "A#2",
            "ticks": 52992,
            "time": 50.181768000000005,
            "velocity": 0.1732283464566929
          },
          {
            "duration": 0.3636359999999996,
            "durationTicks": 384,
            "midi": 44,
            "name": "G#2",
            "ticks": 53184,
            "time": 50.363586000000005,
            "velocity": 0.1732283464566929
          },
          {
            "duration": 0.3636359999999996,
            "durationTicks": 384,
            "midi": 42,
            "name": "F#2",
            "ticks": 53376,
            "time": 50.545404000000005,
            "velocity": 0.1732283464566929
          },
          {
            "duration": 0.3636359999999996,
            "durationTicks": 384,
            "midi": 44,
            "name": "G#2",
            "ticks": 53952,
            "time": 51.090858000000004,
            "velocity": 0.1732283464566929
          },
          {
            "duration": 0.3636359999999996,
            "durationTicks": 384,
            "midi": 42,
            "name": "F#2",
            "ticks": 54336,
            "time": 51.454494000000004,
            "velocity": 0.1732283464566929
          },
          {
            "duration": 0.3636359999999996,
            "durationTicks": 384,
            "midi": 44,
            "name": "G#2",
            "ticks": 54528,
            "time": 51.636312000000004,
            "velocity": 0.1732283464566929
          },
          {
            "duration": 0.3636359999999996,
            "durationTicks": 384,
            "midi": 42,
            "name": "F#2",
            "ticks": 54720,
            "time": 51.818130000000004,
            "velocity": 0.1732283464566929
          },
          {
            "duration": 0.3636359999999996,
            "durationTicks": 384,
            "midi": 44,
            "name": "G#2",
            "ticks": 54912,
            "time": 51.999948,
            "velocity": 0.1732283464566929
          },
          {
            "duration": 0.3636359999999996,
            "durationTicks": 384,
            "midi": 46,
            "name": "A#2",
            "ticks": 55296,
            "time": 52.363584,
            "velocity": 0.1732283464566929
          },
          {
            "duration": 0.3636359999999996,
            "durationTicks": 384,
            "midi": 39,
            "name": "D#2",
            "ticks": 55680,
            "time": 52.72722,
            "velocity": 0.1732283464566929
          },
          {
            "duration": 0.3636359999999996,
            "durationTicks": 384,
            "midi": 46,
            "name": "A#2",
            "ticks": 56064,
            "time": 53.090856,
            "velocity": 0.1732283464566929
          },
          {
            "duration": 0.3636359999999996,
            "durationTicks": 384,
            "midi": 44,
            "name": "G#2",
            "ticks": 56256,
            "time": 53.272674,
            "velocity": 0.1732283464566929
          },
          {
            "duration": 0.3636359999999996,
            "durationTicks": 384,
            "midi": 42,
            "name": "F#2",
            "ticks": 56448,
            "time": 53.454492,
            "velocity": 0.1732283464566929
          },
          {
            "duration": 0.3636359999999996,
            "durationTicks": 384,
            "midi": 42,
            "name": "F#2",
            "ticks": 56832,
            "time": 53.818128,
            "velocity": 0.1732283464566929
          },
          {
            "duration": 0.3636359999999996,
            "durationTicks": 384,
            "midi": 44,
            "name": "G#2",
            "ticks": 57024,
            "time": 53.999946,
            "velocity": 0.1732283464566929
          },
          {
            "duration": 0.3636359999999996,
            "durationTicks": 384,
            "midi": 42,
            "name": "F#2",
            "ticks": 57408,
            "time": 54.363582,
            "velocity": 0.1732283464566929
          },
          {
            "duration": 0.3636359999999996,
            "durationTicks": 384,
            "midi": 44,
            "name": "G#2",
            "ticks": 57600,
            "time": 54.5454,
            "velocity": 0.1732283464566929
          },
          {
            "duration": 0.3636359999999996,
            "durationTicks": 384,
            "midi": 46,
            "name": "A#2",
            "ticks": 57792,
            "time": 54.727218,
            "velocity": 0.1732283464566929
          },
          {
            "duration": 0.3636359999999996,
            "durationTicks": 384,
            "midi": 44,
            "name": "G#2",
            "ticks": 57984,
            "time": 54.909036,
            "velocity": 0.1732283464566929
          },
          {
            "duration": 0.3636359999999996,
            "durationTicks": 384,
            "midi": 42,
            "name": "F#2",
            "ticks": 58368,
            "time": 55.272672,
            "velocity": 0.1732283464566929
          },
          {
            "duration": 0.3636359999999996,
            "durationTicks": 384,
            "midi": 37,
            "name": "C#2",
            "ticks": 58752,
            "time": 55.636308,
            "velocity": 0.1732283464566929
          },
          {
            "duration": 0.3636359999999996,
            "durationTicks": 384,
            "midi": 46,
            "name": "A#2",
            "ticks": 59136,
            "time": 55.999944,
            "velocity": 0.1732283464566929
          },
          {
            "duration": 0.36363600000000673,
            "durationTicks": 384,
            "midi": 44,
            "name": "G#2",
            "ticks": 59328,
            "time": 56.181762,
            "velocity": 0.1732283464566929
          },
          {
            "duration": 0.36363600000000673,
            "durationTicks": 384,
            "midi": 42,
            "name": "F#2",
            "ticks": 59520,
            "time": 56.36358,
            "velocity": 0.1732283464566929
          },
          {
            "duration": 0.3636359999999996,
            "durationTicks": 384,
            "midi": 44,
            "name": "G#2",
            "ticks": 60096,
            "time": 56.909034000000005,
            "velocity": 0.1732283464566929
          },
          {
            "duration": 0.3636359999999996,
            "durationTicks": 384,
            "midi": 42,
            "name": "F#2",
            "ticks": 60480,
            "time": 57.272670000000005,
            "velocity": 0.1732283464566929
          },
          {
            "duration": 0.3636359999999996,
            "durationTicks": 384,
            "midi": 44,
            "name": "G#2",
            "ticks": 60672,
            "time": 57.454488000000005,
            "velocity": 0.1732283464566929
          },
          {
            "duration": 0.3636359999999996,
            "durationTicks": 384,
            "midi": 44,
            "name": "G#2",
            "ticks": 61056,
            "time": 57.818124000000005,
            "velocity": 0.1732283464566929
          },
          {
            "duration": 0.3636359999999996,
            "durationTicks": 384,
            "midi": 46,
            "name": "A#2",
            "ticks": 61440,
            "time": 58.181760000000004,
            "velocity": 0.1732283464566929
          },
          {
            "duration": 0.3636359999999996,
            "durationTicks": 384,
            "midi": 49,
            "name": "C#3",
            "ticks": 61824,
            "time": 58.545396000000004,
            "velocity": 0.1732283464566929
          },
          {
            "duration": 0.3636359999999996,
            "durationTicks": 384,
            "midi": 47,
            "name": "B2",
            "ticks": 62208,
            "time": 58.909032,
            "velocity": 0.1732283464566929
          },
          {
            "duration": 0.3636359999999996,
            "durationTicks": 384,
            "midi": 46,
            "name": "A#2",
            "ticks": 62400,
            "time": 59.09085,
            "velocity": 0.1732283464566929
          },
          {
            "duration": 0.3636359999999996,
            "durationTicks": 384,
            "midi": 42,
            "name": "F#2",
            "ticks": 62592,
            "time": 59.272668,
            "velocity": 0.1732283464566929
          },
          {
            "duration": 0.3636359999999996,
            "durationTicks": 384,
            "midi": 42,
            "name": "F#2",
            "ticks": 62976,
            "time": 59.636304,
            "velocity": 0.1732283464566929
          },
          {
            "duration": 0.3636359999999996,
            "durationTicks": 384,
            "midi": 44,
            "name": "G#2",
            "ticks": 63168,
            "time": 59.818122,
            "velocity": 0.1732283464566929
          },
          {
            "duration": 0.3636359999999996,
            "durationTicks": 384,
            "midi": 44,
            "name": "G#2",
            "ticks": 63552,
            "time": 60.181758,
            "velocity": 0.1732283464566929
          },
          {
            "duration": 0.3636359999999996,
            "durationTicks": 384,
            "midi": 46,
            "name": "A#2",
            "ticks": 63744,
            "time": 60.363576,
            "velocity": 0.1732283464566929
          },
          {
            "duration": 0.3636359999999996,
            "durationTicks": 384,
            "midi": 44,
            "name": "G#2",
            "ticks": 64128,
            "time": 60.727212,
            "velocity": 0.1732283464566929
          },
          {
            "duration": 0.3636359999999996,
            "durationTicks": 384,
            "midi": 42,
            "name": "F#2",
            "ticks": 64512,
            "time": 61.090848,
            "velocity": 0.1732283464566929
          },
          {
            "duration": 0.3636359999999996,
            "durationTicks": 384,
            "midi": 44,
            "name": "G#2",
            "ticks": 64896,
            "time": 61.454484,
            "velocity": 0.1732283464566929
          },
          {
            "duration": 0.3636359999999996,
            "durationTicks": 384,
            "midi": 44,
            "name": "G#2",
            "ticks": 65280,
            "time": 61.81812,
            "velocity": 0.1732283464566929
          },
          {
            "duration": 0.3636359999999996,
            "durationTicks": 384,
            "midi": 44,
            "name": "G#2",
            "ticks": 65664,
            "time": 62.181756,
            "velocity": 0.1732283464566929
          },
          {
            "duration": 0.3636359999999996,
            "durationTicks": 384,
            "midi": 46,
            "name": "A#2",
            "ticks": 65856,
            "time": 62.363574,
            "velocity": 0.1732283464566929
          },
          {
            "duration": 0.3636359999999996,
            "durationTicks": 384,
            "midi": 37,
            "name": "C#2",
            "ticks": 66048,
            "time": 62.545392,
            "velocity": 0.1732283464566929
          },
          {
            "duration": 0.3636359999999996,
            "durationTicks": 384,
            "midi": 37,
            "name": "C#2",
            "ticks": 66240,
            "time": 62.72721,
            "velocity": 0.1732283464566929
          },
          {
            "duration": 0.36363600000000673,
            "durationTicks": 384,
            "midi": 49,
            "name": "C#3",
            "ticks": 66624,
            "time": 63.090846,
            "velocity": 0.1732283464566929
          },
          {
            "duration": 0.3636359999999996,
            "durationTicks": 384,
            "midi": 49,
            "name": "C#3",
            "ticks": 67008,
            "time": 63.454482000000006,
            "velocity": 0.1732283464566929
          },
          {
            "duration": 0.3636359999999925,
            "durationTicks": 384,
            "midi": 49,
            "name": "C#3",
            "ticks": 67392,
            "time": 63.818118000000005,
            "velocity": 0.1732283464566929
          },
          {
            "duration": 0.3636359999999996,
            "durationTicks": 384,
            "midi": 49,
            "name": "C#3",
            "ticks": 67584,
            "time": 63.999936000000005,
            "velocity": 0.1732283464566929
          },
          {
            "duration": 0.3636359999999996,
            "durationTicks": 384,
            "midi": 44,
            "name": "G#2",
            "ticks": 67968,
            "time": 64.363572,
            "velocity": 0.1732283464566929
          },
          {
            "duration": 0.3636359999999996,
            "durationTicks": 384,
            "midi": 44,
            "name": "G#2",
            "ticks": 68352,
            "time": 64.727208,
            "velocity": 0.1732283464566929
          },
          {
            "duration": 0.3636359999999996,
            "durationTicks": 384,
            "midi": 44,
            "name": "G#2",
            "ticks": 68736,
            "time": 65.090844,
            "velocity": 0.1732283464566929
          },
          {
            "duration": 0.3636359999999996,
            "durationTicks": 384,
            "midi": 46,
            "name": "A#2",
            "ticks": 68928,
            "time": 65.272662,
            "velocity": 0.1732283464566929
          },
          {
            "duration": 0.3636359999999996,
            "durationTicks": 384,
            "midi": 37,
            "name": "C#2",
            "ticks": 69120,
            "time": 65.45448,
            "velocity": 0.1732283464566929
          },
          {
            "duration": 0.3636359999999996,
            "durationTicks": 384,
            "midi": 37,
            "name": "C#2",
            "ticks": 69312,
            "time": 65.636298,
            "velocity": 0.1732283464566929
          },
          {
            "duration": 0.3636359999999996,
            "durationTicks": 384,
            "midi": 39,
            "name": "D#2",
            "ticks": 69696,
            "time": 65.999934,
            "velocity": 0.1732283464566929
          },
          {
            "duration": 0.3636359999999996,
            "durationTicks": 384,
            "midi": 37,
            "name": "C#2",
            "ticks": 69888,
            "time": 66.181752,
            "velocity": 0.1732283464566929
          },
          {
            "duration": 0.3636359999999996,
            "durationTicks": 384,
            "midi": 46,
            "name": "A#2",
            "ticks": 71040,
            "time": 67.27266,
            "velocity": 0.1732283464566929
          },
          {
            "duration": 0.3636359999999996,
            "durationTicks": 384,
            "midi": 46,
            "name": "A#2",
            "ticks": 71424,
            "time": 67.636296,
            "velocity": 0.1732283464566929
          },
          {
            "duration": 0.3636359999999996,
            "durationTicks": 384,
            "midi": 46,
            "name": "A#2",
            "ticks": 71808,
            "time": 67.999932,
            "velocity": 0.1732283464566929
          },
          {
            "duration": 0.3636359999999996,
            "durationTicks": 384,
            "midi": 49,
            "name": "C#3",
            "ticks": 72000,
            "time": 68.18175000000001,
            "velocity": 0.1732283464566929
          },
          {
            "duration": 0.3636359999999996,
            "durationTicks": 384,
            "midi": 46,
            "name": "A#2",
            "ticks": 72192,
            "time": 68.363568,
            "velocity": 0.1732283464566929
          },
          {
            "duration": 0.3636359999999996,
            "durationTicks": 384,
            "midi": 44,
            "name": "G#2",
            "ticks": 72384,
            "time": 68.54538600000001,
            "velocity": 0.1732283464566929
          },
          {
            "duration": 0.3636359999999996,
            "durationTicks": 384,
            "midi": 61,
            "name": "C#4",
            "ticks": 72768,
            "time": 68.90902200000001,
            "velocity": 0.1732283464566929
          },
          {
            "duration": 0.3636359999999996,
            "durationTicks": 384,
            "midi": 61,
            "name": "C#4",
            "ticks": 73152,
            "time": 69.272658,
            "velocity": 0.1732283464566929
          },
          {
            "duration": 0.3636359999999996,
            "durationTicks": 384,
            "midi": 61,
            "name": "C#4",
            "ticks": 73536,
            "time": 69.636294,
            "velocity": 0.1732283464566929
          },
          {
            "duration": 0.3636359999999996,
            "durationTicks": 384,
            "midi": 61,
            "name": "C#4",
            "ticks": 73728,
            "time": 69.818112,
            "velocity": 0.1732283464566929
          },
          {
            "duration": 0.3636359999999996,
            "durationTicks": 384,
            "midi": 44,
            "name": "G#2",
            "ticks": 74112,
            "time": 70.181748,
            "velocity": 0.1732283464566929
          },
          {
            "duration": 0.3636359999999996,
            "durationTicks": 384,
            "midi": 44,
            "name": "G#2",
            "ticks": 74496,
            "time": 70.545384,
            "velocity": 0.1732283464566929
          },
          {
            "duration": 0.3636359999999996,
            "durationTicks": 384,
            "midi": 44,
            "name": "G#2",
            "ticks": 74880,
            "time": 70.90902,
            "velocity": 0.1732283464566929
          },
          {
            "duration": 0.3636359999999996,
            "durationTicks": 384,
            "midi": 46,
            "name": "A#2",
            "ticks": 75072,
            "time": 71.090838,
            "velocity": 0.1732283464566929
          },
          {
            "duration": 0.3636359999999996,
            "durationTicks": 384,
            "midi": 37,
            "name": "C#2",
            "ticks": 75264,
            "time": 71.272656,
            "velocity": 0.1732283464566929
          },
          {
            "duration": 0.3636359999999996,
            "durationTicks": 384,
            "midi": 37,
            "name": "C#2",
            "ticks": 75456,
            "time": 71.454474,
            "velocity": 0.1732283464566929
          },
          {
            "duration": 0.3636359999999996,
            "durationTicks": 384,
            "midi": 39,
            "name": "D#2",
            "ticks": 75840,
            "time": 71.81811,
            "velocity": 0.1732283464566929
          },
          {
            "duration": 0.3636359999999996,
            "durationTicks": 384,
            "midi": 37,
            "name": "C#2",
            "ticks": 76032,
            "time": 71.999928,
            "velocity": 0.1732283464566929
          },
          {
            "duration": 0.3636359999999996,
            "durationTicks": 384,
            "midi": 49,
            "name": "C#3",
            "ticks": 76992,
            "time": 72.909018,
            "velocity": 0.1732283464566929
          },
          {
            "duration": 0.36363600000001384,
            "durationTicks": 384,
            "midi": 54,
            "name": "F#3",
            "ticks": 77184,
            "time": 73.090836,
            "velocity": 0.1732283464566929
          },
          {
            "duration": 0.3636359999999996,
            "durationTicks": 384,
            "midi": 54,
            "name": "F#3",
            "ticks": 77376,
            "time": 73.272654,
            "velocity": 0.1732283464566929
          },
          {
            "duration": 0.3636359999999996,
            "durationTicks": 384,
            "midi": 54,
            "name": "F#3",
            "ticks": 77568,
            "time": 73.45447200000001,
            "velocity": 0.1732283464566929
          },
          {
            "duration": 0.3636359999999996,
            "durationTicks": 384,
            "midi": 54,
            "name": "F#3",
            "ticks": 77760,
            "time": 73.63629,
            "velocity": 0.1732283464566929
          },
          {
            "duration": 0.3636359999999996,
            "durationTicks": 384,
            "midi": 54,
            "name": "F#3",
            "ticks": 77952,
            "time": 73.81810800000001,
            "velocity": 0.1732283464566929
          },
          {
            "duration": 0.3636359999999996,
            "durationTicks": 384,
            "midi": 54,
            "name": "F#3",
            "ticks": 78336,
            "time": 74.18174400000001,
            "velocity": 0.1732283464566929
          },
          {
            "duration": 0.3636359999999996,
            "durationTicks": 384,
            "midi": 54,
            "name": "F#3",
            "ticks": 78528,
            "time": 74.363562,
            "velocity": 0.1732283464566929
          },
          {
            "duration": 0.3636359999999996,
            "durationTicks": 384,
            "midi": 56,
            "name": "G#3",
            "ticks": 78720,
            "time": 74.54538000000001,
            "velocity": 0.1732283464566929
          },
          {
            "duration": 0.3636359999999996,
            "durationTicks": 384,
            "midi": 58,
            "name": "A#3",
            "ticks": 78912,
            "time": 74.727198,
            "velocity": 0.1732283464566929
          },
          {
            "duration": 0.3636359999999996,
            "durationTicks": 384,
            "midi": 58,
            "name": "A#3",
            "ticks": 79296,
            "time": 75.090834,
            "velocity": 0.1732283464566929
          },
          {
            "duration": 0.3636359999999996,
            "durationTicks": 384,
            "midi": 61,
            "name": "C#4",
            "ticks": 80256,
            "time": 75.99992400000001,
            "velocity": 0.1732283464566929
          },
          {
            "duration": 0.3636359999999996,
            "durationTicks": 384,
            "midi": 54,
            "name": "F#3",
            "ticks": 80448,
            "time": 76.181742,
            "velocity": 0.1732283464566929
          },
          {
            "duration": 0.3636359999999996,
            "durationTicks": 384,
            "midi": 54,
            "name": "F#3",
            "ticks": 80640,
            "time": 76.36356,
            "velocity": 0.1732283464566929
          },
          {
            "duration": 0.3636359999999996,
            "durationTicks": 384,
            "midi": 54,
            "name": "F#3",
            "ticks": 80832,
            "time": 76.545378,
            "velocity": 0.1732283464566929
          },
          {
            "duration": 0.3636359999999996,
            "durationTicks": 384,
            "midi": 54,
            "name": "F#3",
            "ticks": 81024,
            "time": 76.727196,
            "velocity": 0.1732283464566929
          },
          {
            "duration": 0.3636359999999996,
            "durationTicks": 384,
            "midi": 54,
            "name": "F#3",
            "ticks": 81408,
            "time": 77.090832,
            "velocity": 0.1732283464566929
          },
          {
            "duration": 0.3636359999999996,
            "durationTicks": 384,
            "midi": 58,
            "name": "A#3",
            "ticks": 81792,
            "time": 77.454468,
            "velocity": 0.1732283464566929
          },
          {
            "duration": 0.3636359999999996,
            "durationTicks": 384,
            "midi": 56,
            "name": "G#3",
            "ticks": 81984,
            "time": 77.636286,
            "velocity": 0.1732283464566929
          },
          {
            "duration": 0.3636359999999996,
            "durationTicks": 384,
            "midi": 54,
            "name": "F#3",
            "ticks": 82368,
            "time": 77.999922,
            "velocity": 0.1732283464566929
          },
          {
            "duration": 0.3636359999999996,
            "durationTicks": 384,
            "midi": 53,
            "name": "F3",
            "ticks": 83328,
            "time": 78.909012,
            "velocity": 0.1732283464566929
          },
          {
            "duration": 0.3636359999999996,
            "durationTicks": 384,
            "midi": 51,
            "name": "D#3",
            "ticks": 83712,
            "time": 79.272648,
            "velocity": 0.1732283464566929
          },
          {
            "duration": 0.36363600000001384,
            "durationTicks": 384,
            "midi": 49,
            "name": "C#3",
            "ticks": 83904,
            "time": 79.454466,
            "velocity": 0.1732283464566929
          },
          {
            "duration": 0.3636359999999996,
            "durationTicks": 384,
            "midi": 49,
            "name": "C#3",
            "ticks": 84672,
            "time": 80.18173800000001,
            "velocity": 0.1732283464566929
          },
          {
            "duration": 0.3636359999999996,
            "durationTicks": 384,
            "midi": 49,
            "name": "C#3",
            "ticks": 84864,
            "time": 80.363556,
            "velocity": 0.1732283464566929
          },
          {
            "duration": 0.3636359999999996,
            "durationTicks": 384,
            "midi": 49,
            "name": "C#3",
            "ticks": 85056,
            "time": 80.54537400000001,
            "velocity": 0.1732283464566929
          },
          {
            "duration": 0.3636359999999996,
            "durationTicks": 384,
            "midi": 49,
            "name": "C#3",
            "ticks": 85440,
            "time": 80.90901000000001,
            "velocity": 0.1732283464566929
          },
          {
            "duration": 0.3636359999999996,
            "durationTicks": 384,
            "midi": 51,
            "name": "D#3",
            "ticks": 85632,
            "time": 81.090828,
            "velocity": 0.1732283464566929
          },
          {
            "duration": 0.3636359999999996,
            "durationTicks": 384,
            "midi": 53,
            "name": "F3",
            "ticks": 85824,
            "time": 81.27264600000001,
            "velocity": 0.1732283464566929
          },
          {
            "duration": 0.3636359999999996,
            "durationTicks": 384,
            "midi": 54,
            "name": "F#3",
            "ticks": 86016,
            "time": 81.454464,
            "velocity": 0.1732283464566929
          },
          {
            "duration": 0.3636359999999996,
            "durationTicks": 384,
            "midi": 51,
            "name": "D#3",
            "ticks": 86400,
            "time": 81.8181,
            "velocity": 0.1732283464566929
          },
          {
            "duration": 0.3636359999999996,
            "durationTicks": 384,
            "midi": 49,
            "name": "C#3",
            "ticks": 86592,
            "time": 81.99991800000001,
            "velocity": 0.1732283464566929
          },
          {
            "duration": 0.3636359999999996,
            "durationTicks": 384,
            "midi": 49,
            "name": "C#3",
            "ticks": 87744,
            "time": 83.090826,
            "velocity": 0.1732283464566929
          },
          {
            "duration": 0.3636359999999996,
            "durationTicks": 384,
            "midi": 51,
            "name": "D#3",
            "ticks": 87936,
            "time": 83.272644,
            "velocity": 0.1732283464566929
          },
          {
            "duration": 0.3636359999999996,
            "durationTicks": 384,
            "midi": 49,
            "name": "C#3",
            "ticks": 88128,
            "time": 83.454462,
            "velocity": 0.1732283464566929
          },
          {
            "duration": 0.3636359999999996,
            "durationTicks": 384,
            "midi": 54,
            "name": "F#3",
            "ticks": 88320,
            "time": 83.63628,
            "velocity": 0.1732283464566929
          },
          {
            "duration": 0.3636359999999996,
            "durationTicks": 384,
            "midi": 51,
            "name": "D#3",
            "ticks": 88704,
            "time": 83.999916,
            "velocity": 0.1732283464566929
          },
          {
            "duration": 0.3636359999999996,
            "durationTicks": 384,
            "midi": 49,
            "name": "C#3",
            "ticks": 88896,
            "time": 84.181734,
            "velocity": 0.1732283464566929
          },
          {
            "duration": 0.3636359999999996,
            "durationTicks": 384,
            "midi": 42,
            "name": "F#2",
            "ticks": 89088,
            "time": 84.363552,
            "velocity": 0.1732283464566929
          },
          {
            "duration": 0.3636359999999996,
            "durationTicks": 384,
            "midi": 42,
            "name": "F#2",
            "ticks": 89280,
            "time": 84.54537,
            "velocity": 0.1732283464566929
          },
          {
            "duration": 0.3636359999999996,
            "durationTicks": 384,
            "midi": 42,
            "name": "F#2",
            "ticks": 89472,
            "time": 84.727188,
            "velocity": 0.1732283464566929
          },
          {
            "duration": 0.3636359999999996,
            "durationTicks": 384,
            "midi": 42,
            "name": "F#2",
            "ticks": 89664,
            "time": 84.909006,
            "velocity": 0.1732283464566929
          },
          {
            "duration": 0.3636359999999996,
            "durationTicks": 384,
            "midi": 42,
            "name": "F#2",
            "ticks": 89856,
            "time": 85.090824,
            "velocity": 0.1732283464566929
          },
          {
            "duration": 0.3636359999999996,
            "durationTicks": 384,
            "midi": 42,
            "name": "F#2",
            "ticks": 90240,
            "time": 85.45446,
            "velocity": 0.1732283464566929
          },
          {
            "duration": 0.3636359999999996,
            "durationTicks": 384,
            "midi": 44,
            "name": "G#2",
            "ticks": 90624,
            "time": 85.818096,
            "velocity": 0.1732283464566929
          },
          {
            "duration": 0.3636359999999996,
            "durationTicks": 384,
            "midi": 46,
            "name": "A#2",
            "ticks": 90816,
            "time": 85.999914,
            "velocity": 0.1732283464566929
          },
          {
            "duration": 0.3636359999999996,
            "durationTicks": 384,
            "midi": 46,
            "name": "A#2",
            "ticks": 91200,
            "time": 86.36355,
            "velocity": 0.1732283464566929
          },
          {
            "duration": 0.3636359999999996,
            "durationTicks": 384,
            "midi": 37,
            "name": "C#2",
            "ticks": 91968,
            "time": 87.090822,
            "velocity": 0.1732283464566929
          },
          {
            "duration": 0.3636359999999996,
            "durationTicks": 384,
            "midi": 42,
            "name": "F#2",
            "ticks": 92160,
            "time": 87.27264000000001,
            "velocity": 0.1732283464566929
          },
          {
            "duration": 0.3636359999999996,
            "durationTicks": 384,
            "midi": 42,
            "name": "F#2",
            "ticks": 92352,
            "time": 87.454458,
            "velocity": 0.1732283464566929
          },
          {
            "duration": 0.3636359999999996,
            "durationTicks": 384,
            "midi": 42,
            "name": "F#2",
            "ticks": 92544,
            "time": 87.63627600000001,
            "velocity": 0.1732283464566929
          },
          {
            "duration": 0.3636359999999996,
            "durationTicks": 384,
            "midi": 42,
            "name": "F#2",
            "ticks": 92736,
            "time": 87.818094,
            "velocity": 0.1732283464566929
          },
          {
            "duration": 0.3636359999999996,
            "durationTicks": 384,
            "midi": 42,
            "name": "F#2",
            "ticks": 92928,
            "time": 87.99991200000001,
            "velocity": 0.1732283464566929
          },
          {
            "duration": 0.3636359999999996,
            "durationTicks": 384,
            "midi": 42,
            "name": "F#2",
            "ticks": 93312,
            "time": 88.36354800000001,
            "velocity": 0.1732283464566929
          },
          {
            "duration": 0.3636359999999996,
            "durationTicks": 384,
            "midi": 49,
            "name": "C#3",
            "ticks": 93696,
            "time": 88.72718400000001,
            "velocity": 0.1732283464566929
          },
          {
            "duration": 0.3636359999999996,
            "durationTicks": 384,
            "midi": 47,
            "name": "B2",
            "ticks": 93888,
            "time": 88.909002,
            "velocity": 0.1732283464566929
          },
          {
            "duration": 0.3636359999999996,
            "durationTicks": 384,
            "midi": 46,
            "name": "A#2",
            "ticks": 94272,
            "time": 89.272638,
            "velocity": 0.1732283464566929
          },
          {
            "duration": 0.3636359999999996,
            "durationTicks": 384,
            "midi": 41,
            "name": "F2",
            "ticks": 95232,
            "time": 90.181728,
            "velocity": 0.1732283464566929
          },
          {
            "duration": 0.3636359999999996,
            "durationTicks": 384,
            "midi": 44,
            "name": "G#2",
            "ticks": 95616,
            "time": 90.545364,
            "velocity": 0.1732283464566929
          },
          {
            "duration": 0.3636359999999996,
            "durationTicks": 384,
            "midi": 37,
            "name": "C#2",
            "ticks": 95808,
            "time": 90.727182,
            "velocity": 0.1732283464566929
          },
          {
            "duration": 0.3636359999999996,
            "durationTicks": 384,
            "midi": 37,
            "name": "C#2",
            "ticks": 97152,
            "time": 91.999908,
            "velocity": 0.1732283464566929
          },
          {
            "duration": 0.3636359999999996,
            "durationTicks": 384,
            "midi": 37,
            "name": "C#2",
            "ticks": 97344,
            "time": 92.181726,
            "velocity": 0.1732283464566929
          },
          {
            "duration": 0.3636359999999996,
            "durationTicks": 384,
            "midi": 37,
            "name": "C#2",
            "ticks": 97728,
            "time": 92.545362,
            "velocity": 0.1732283464566929
          },
          {
            "duration": 0.3636359999999996,
            "durationTicks": 384,
            "midi": 46,
            "name": "A#2",
            "ticks": 97920,
            "time": 92.72718,
            "velocity": 0.1732283464566929
          },
          {
            "duration": 0.36363600000001384,
            "durationTicks": 384,
            "midi": 44,
            "name": "G#2",
            "ticks": 98112,
            "time": 92.908998,
            "velocity": 0.1732283464566929
          },
          {
            "duration": 0.3636359999999996,
            "durationTicks": 384,
            "midi": 42,
            "name": "F#2",
            "ticks": 98304,
            "time": 93.090816,
            "velocity": 0.1732283464566929
          },
          {
            "duration": 0.3636359999999996,
            "durationTicks": 384,
            "midi": 46,
            "name": "A#2",
            "ticks": 100224,
            "time": 94.908996,
            "velocity": 0.1732283464566929
          },
          {
            "duration": 0.3636359999999996,
            "durationTicks": 384,
            "midi": 58,
            "name": "A#3",
            "ticks": 100224,
            "time": 94.908996,
            "velocity": 0.1732283464566929
          },
          {
            "duration": 0.3636359999999996,
            "durationTicks": 384,
            "midi": 58,
            "name": "A#3",
            "ticks": 100608,
            "time": 95.272632,
            "velocity": 0.1732283464566929
          },
          {
            "duration": 0.3636359999999996,
            "durationTicks": 384,
            "midi": 46,
            "name": "A#2",
            "ticks": 100608,
            "time": 95.272632,
            "velocity": 0.1732283464566929
          },
          {
            "duration": 0.3636359999999996,
            "durationTicks": 384,
            "midi": 44,
            "name": "G#2",
            "ticks": 100992,
            "time": 95.636268,
            "velocity": 0.1732283464566929
          },
          {
            "duration": 0.3636359999999996,
            "durationTicks": 384,
            "midi": 56,
            "name": "G#3",
            "ticks": 100992,
            "time": 95.636268,
            "velocity": 0.1732283464566929
          },
          {
            "duration": 0.3636359999999996,
            "durationTicks": 384,
            "midi": 34,
            "name": "A#1",
            "ticks": 101376,
            "time": 95.999904,
            "velocity": 0.1732283464566929
          },
          {
            "duration": 0.3636359999999996,
            "durationTicks": 384,
            "midi": 37,
            "name": "C#2",
            "ticks": 101376,
            "time": 95.999904,
            "velocity": 0.1732283464566929
          },
          {
            "duration": 0.3636359999999996,
            "durationTicks": 384,
            "midi": 42,
            "name": "F#2",
            "ticks": 101760,
            "time": 96.36354,
            "velocity": 0.1732283464566929
          },
          {
            "duration": 0.3636359999999996,
            "durationTicks": 384,
            "midi": 46,
            "name": "A#2",
            "ticks": 101760,
            "time": 96.36354,
            "velocity": 0.1732283464566929
          },
          {
            "duration": 0.3636359999999996,
            "durationTicks": 384,
            "midi": 44,
            "name": "G#2",
            "ticks": 101952,
            "time": 96.54535800000001,
            "velocity": 0.1732283464566929
          },
          {
            "duration": 0.3636359999999996,
            "durationTicks": 384,
            "midi": 34,
            "name": "A#1",
            "ticks": 102144,
            "time": 96.727176,
            "velocity": 0.1732283464566929
          },
          {
            "duration": 0.3636359999999996,
            "durationTicks": 384,
            "midi": 42,
            "name": "F#2",
            "ticks": 102144,
            "time": 96.727176,
            "velocity": 0.1732283464566929
          },
          {
            "duration": 0.3636359999999996,
            "durationTicks": 384,
            "midi": 41,
            "name": "F2",
            "ticks": 102720,
            "time": 97.27263,
            "velocity": 0.1732283464566929
          },
          {
            "duration": 0.3636359999999996,
            "durationTicks": 384,
            "midi": 44,
            "name": "G#2",
            "ticks": 102720,
            "time": 97.27263,
            "velocity": 0.1732283464566929
          },
          {
            "duration": 0.3636359999999996,
            "durationTicks": 384,
            "midi": 42,
            "name": "F#2",
            "ticks": 103104,
            "time": 97.636266,
            "velocity": 0.1732283464566929
          },
          {
            "duration": 0.3636359999999996,
            "durationTicks": 384,
            "midi": 39,
            "name": "D#2",
            "ticks": 103104,
            "time": 97.636266,
            "velocity": 0.1732283464566929
          },
          {
            "duration": 0.3636359999999996,
            "durationTicks": 384,
            "midi": 41,
            "name": "F2",
            "ticks": 103296,
            "time": 97.818084,
            "velocity": 0.1732283464566929
          },
          {
            "duration": 0.3636359999999996,
            "durationTicks": 384,
            "midi": 44,
            "name": "G#2",
            "ticks": 103296,
            "time": 97.818084,
            "velocity": 0.1732283464566929
          },
          {
            "duration": 0.3636359999999996,
            "durationTicks": 384,
            "midi": 39,
            "name": "D#2",
            "ticks": 103488,
            "time": 97.999902,
            "velocity": 0.1732283464566929
          },
          {
            "duration": 0.3636359999999996,
            "durationTicks": 384,
            "midi": 42,
            "name": "F#2",
            "ticks": 103488,
            "time": 97.999902,
            "velocity": 0.1732283464566929
          },
          {
            "duration": 0.3636359999999996,
            "durationTicks": 384,
            "midi": 41,
            "name": "F2",
            "ticks": 103680,
            "time": 98.18172,
            "velocity": 0.1732283464566929
          },
          {
            "duration": 0.3636359999999996,
            "durationTicks": 384,
            "midi": 44,
            "name": "G#2",
            "ticks": 103680,
            "time": 98.18172,
            "velocity": 0.1732283464566929
          },
          {
            "duration": 0.3636359999999996,
            "durationTicks": 384,
            "midi": 42,
            "name": "F#2",
            "ticks": 104064,
            "time": 98.545356,
            "velocity": 0.1732283464566929
          },
          {
            "duration": 0.3636359999999996,
            "durationTicks": 384,
            "midi": 46,
            "name": "A#2",
            "ticks": 104064,
            "time": 98.545356,
            "velocity": 0.1732283464566929
          },
          {
            "duration": 0.3636359999999996,
            "durationTicks": 384,
            "midi": 39,
            "name": "D#2",
            "ticks": 104448,
            "time": 98.908992,
            "velocity": 0.1732283464566929
          },
          {
            "duration": 0.3636359999999996,
            "durationTicks": 384,
            "midi": 30,
            "name": "F#1",
            "ticks": 104448,
            "time": 98.908992,
            "velocity": 0.1732283464566929
          },
          {
            "duration": 0.3636359999999996,
            "durationTicks": 384,
            "midi": 42,
            "name": "F#2",
            "ticks": 104832,
            "time": 99.272628,
            "velocity": 0.1732283464566929
          },
          {
            "duration": 0.3636359999999996,
            "durationTicks": 384,
            "midi": 46,
            "name": "A#2",
            "ticks": 104832,
            "time": 99.272628,
            "velocity": 0.1732283464566929
          },
          {
            "duration": 0.3636359999999996,
            "durationTicks": 384,
            "midi": 44,
            "name": "G#2",
            "ticks": 105024,
            "time": 99.454446,
            "velocity": 0.1732283464566929
          },
          {
            "duration": 0.36363600000001384,
            "durationTicks": 384,
            "midi": 42,
            "name": "F#2",
            "ticks": 105216,
            "time": 99.636264,
            "velocity": 0.1732283464566929
          },
          {
            "duration": 0.36363600000001384,
            "durationTicks": 384,
            "midi": 39,
            "name": "D#2",
            "ticks": 105216,
            "time": 99.636264,
            "velocity": 0.1732283464566929
          },
          {
            "duration": 0.3636359999999996,
            "durationTicks": 384,
            "midi": 42,
            "name": "F#2",
            "ticks": 105600,
            "time": 99.99990000000001,
            "velocity": 0.1732283464566929
          },
          {
            "duration": 0.3636359999999996,
            "durationTicks": 384,
            "midi": 44,
            "name": "G#2",
            "ticks": 105792,
            "time": 100.181718,
            "velocity": 0.1732283464566929
          },
          {
            "duration": 0.3636359999999996,
            "durationTicks": 384,
            "midi": 39,
            "name": "D#2",
            "ticks": 105792,
            "time": 100.181718,
            "velocity": 0.1732283464566929
          },
          {
            "duration": 0.3636359999999996,
            "durationTicks": 384,
            "midi": 42,
            "name": "F#2",
            "ticks": 106176,
            "time": 100.545354,
            "velocity": 0.1732283464566929
          },
          {
            "duration": 0.3636359999999996,
            "durationTicks": 384,
            "midi": 39,
            "name": "D#2",
            "ticks": 106368,
            "time": 100.72717200000001,
            "velocity": 0.1732283464566929
          },
          {
            "duration": 0.3636359999999996,
            "durationTicks": 384,
            "midi": 44,
            "name": "G#2",
            "ticks": 106368,
            "time": 100.72717200000001,
            "velocity": 0.1732283464566929
          },
          {
            "duration": 0.3636359999999996,
            "durationTicks": 384,
            "midi": 46,
            "name": "A#2",
            "ticks": 106560,
            "time": 100.90899,
            "velocity": 0.1732283464566929
          },
          {
            "duration": 0.3636359999999996,
            "durationTicks": 384,
            "midi": 44,
            "name": "G#2",
            "ticks": 106752,
            "time": 101.09080800000001,
            "velocity": 0.1732283464566929
          },
          {
            "duration": 0.3636359999999996,
            "durationTicks": 384,
            "midi": 39,
            "name": "D#2",
            "ticks": 106752,
            "time": 101.09080800000001,
            "velocity": 0.1732283464566929
          },
          {
            "duration": 0.3636359999999996,
            "durationTicks": 384,
            "midi": 39,
            "name": "D#2",
            "ticks": 107136,
            "time": 101.45444400000001,
            "velocity": 0.1732283464566929
          },
          {
            "duration": 0.3636359999999996,
            "durationTicks": 384,
            "midi": 42,
            "name": "F#2",
            "ticks": 107136,
            "time": 101.45444400000001,
            "velocity": 0.1732283464566929
          },
          {
            "duration": 0.3636359999999996,
            "durationTicks": 384,
            "midi": 34,
            "name": "A#1",
            "ticks": 107520,
            "time": 101.81808000000001,
            "velocity": 0.1732283464566929
          },
          {
            "duration": 0.3636359999999996,
            "durationTicks": 384,
            "midi": 37,
            "name": "C#2",
            "ticks": 107520,
            "time": 101.81808000000001,
            "velocity": 0.1732283464566929
          },
          {
            "duration": 0.3636359999999996,
            "durationTicks": 384,
            "midi": 42,
            "name": "F#2",
            "ticks": 107904,
            "time": 102.18171600000001,
            "velocity": 0.1732283464566929
          },
          {
            "duration": 0.3636359999999996,
            "durationTicks": 384,
            "midi": 46,
            "name": "A#2",
            "ticks": 107904,
            "time": 102.18171600000001,
            "velocity": 0.1732283464566929
          },
          {
            "duration": 0.3636359999999996,
            "durationTicks": 384,
            "midi": 44,
            "name": "G#2",
            "ticks": 108096,
            "time": 102.363534,
            "velocity": 0.1732283464566929
          },
          {
            "duration": 0.3636359999999996,
            "durationTicks": 384,
            "midi": 42,
            "name": "F#2",
            "ticks": 108288,
            "time": 102.54535200000001,
            "velocity": 0.1732283464566929
          },
          {
            "duration": 0.3636359999999996,
            "durationTicks": 384,
            "midi": 34,
            "name": "A#1",
            "ticks": 108288,
            "time": 102.54535200000001,
            "velocity": 0.1732283464566929
          },
          {
            "duration": 0.3636359999999996,
            "durationTicks": 384,
            "midi": 41,
            "name": "F2",
            "ticks": 108864,
            "time": 103.090806,
            "velocity": 0.1732283464566929
          },
          {
            "duration": 0.3636359999999996,
            "durationTicks": 384,
            "midi": 44,
            "name": "G#2",
            "ticks": 108864,
            "time": 103.090806,
            "velocity": 0.1732283464566929
          },
          {
            "duration": 0.3636359999999996,
            "durationTicks": 384,
            "midi": 41,
            "name": "F2",
            "ticks": 108864,
            "time": 103.090806,
            "velocity": 0.1732283464566929
          },
          {
            "duration": 0.3636359999999996,
            "durationTicks": 384,
            "midi": 39,
            "name": "D#2",
            "ticks": 109248,
            "time": 103.454442,
            "velocity": 0.1732283464566929
          },
          {
            "duration": 0.3636359999999996,
            "durationTicks": 384,
            "midi": 42,
            "name": "F#2",
            "ticks": 109248,
            "time": 103.454442,
            "velocity": 0.1732283464566929
          },
          {
            "duration": 0.3636359999999996,
            "durationTicks": 384,
            "midi": 41,
            "name": "F2",
            "ticks": 109440,
            "time": 103.63626000000001,
            "velocity": 0.1732283464566929
          },
          {
            "duration": 0.3636359999999996,
            "durationTicks": 384,
            "midi": 44,
            "name": "G#2",
            "ticks": 109440,
            "time": 103.63626000000001,
            "velocity": 0.1732283464566929
          },
          {
            "duration": 0.3636359999999996,
            "durationTicks": 384,
            "midi": 44,
            "name": "G#2",
            "ticks": 109824,
            "time": 103.999896,
            "velocity": 0.1732283464566929
          },
          {
            "duration": 0.3636359999999996,
            "durationTicks": 384,
            "midi": 41,
            "name": "F2",
            "ticks": 109824,
            "time": 103.999896,
            "velocity": 0.1732283464566929
          },
          {
            "duration": 0.3636359999999996,
            "durationTicks": 384,
            "midi": 42,
            "name": "F#2",
            "ticks": 110208,
            "time": 104.363532,
            "velocity": 0.1732283464566929
          },
          {
            "duration": 0.3636359999999996,
            "durationTicks": 384,
            "midi": 46,
            "name": "A#2",
            "ticks": 110208,
            "time": 104.363532,
            "velocity": 0.1732283464566929
          },
          {
            "duration": 0.3636359999999996,
            "durationTicks": 384,
            "midi": 46,
            "name": "A#2",
            "ticks": 110592,
            "time": 104.727168,
            "velocity": 0.1732283464566929
          },
          {
            "duration": 0.3636359999999996,
            "durationTicks": 384,
            "midi": 49,
            "name": "C#3",
            "ticks": 110592,
            "time": 104.727168,
            "velocity": 0.1732283464566929
          },
          {
            "duration": 0.3636359999999996,
            "durationTicks": 384,
            "midi": 47,
            "name": "B2",
            "ticks": 110976,
            "time": 105.090804,
            "velocity": 0.1732283464566929
          },
          {
            "duration": 0.3636359999999996,
            "durationTicks": 384,
            "midi": 44,
            "name": "G#2",
            "ticks": 110976,
            "time": 105.090804,
            "velocity": 0.1732283464566929
          },
          {
            "duration": 0.3636359999999996,
            "durationTicks": 384,
            "midi": 46,
            "name": "A#2",
            "ticks": 111168,
            "time": 105.272622,
            "velocity": 0.1732283464566929
          },
          {
            "duration": 0.3636359999999996,
            "durationTicks": 384,
            "midi": 42,
            "name": "F#2",
            "ticks": 111168,
            "time": 105.272622,
            "velocity": 0.1732283464566929
          },
          {
            "duration": 0.3636359999999996,
            "durationTicks": 384,
            "midi": 39,
            "name": "D#2",
            "ticks": 111360,
            "time": 105.45444,
            "velocity": 0.1732283464566929
          },
          {
            "duration": 0.3636359999999996,
            "durationTicks": 384,
            "midi": 42,
            "name": "F#2",
            "ticks": 111360,
            "time": 105.45444,
            "velocity": 0.1732283464566929
          },
          {
            "duration": 0.3636359999999996,
            "durationTicks": 384,
            "midi": 42,
            "name": "F#2",
            "ticks": 111744,
            "time": 105.818076,
            "velocity": 0.1732283464566929
          },
          {
            "duration": 0.3636359999999996,
            "durationTicks": 384,
            "midi": 44,
            "name": "G#2",
            "ticks": 111936,
            "time": 105.999894,
            "velocity": 0.1732283464566929
          },
          {
            "duration": 0.3636359999999996,
            "durationTicks": 384,
            "midi": 39,
            "name": "D#2",
            "ticks": 111936,
            "time": 105.999894,
            "velocity": 0.1732283464566929
          },
          {
            "duration": 0.36363600000001384,
            "durationTicks": 384,
            "midi": 44,
            "name": "G#2",
            "ticks": 112320,
            "time": 106.36353,
            "velocity": 0.1732283464566929
          },
          {
            "duration": 0.3636359999999996,
            "durationTicks": 384,
            "midi": 46,
            "name": "A#2",
            "ticks": 112512,
            "time": 106.545348,
            "velocity": 0.1732283464566929
          },
          {
            "duration": 0.7272719999999993,
            "durationTicks": 768,
            "midi": 39,
            "name": "D#2",
            "ticks": 112896,
            "time": 106.908984,
            "velocity": 0.1732283464566929
          },
          {
            "duration": 0.3636359999999996,
            "durationTicks": 384,
            "midi": 44,
            "name": "G#2",
            "ticks": 112896,
            "time": 106.908984,
            "velocity": 0.1732283464566929
          },
          {
            "duration": 0.3636359999999996,
            "durationTicks": 384,
            "midi": 42,
            "name": "F#2",
            "ticks": 113280,
            "time": 107.27262,
            "velocity": 0.1732283464566929
          },
          {
            "duration": 0.3636359999999996,
            "durationTicks": 384,
            "midi": 58,
            "name": "A#3",
            "ticks": 113664,
            "time": 107.636256,
            "velocity": 0.1732283464566929
          },
          {
            "duration": 0.3636359999999996,
            "durationTicks": 384,
            "midi": 46,
            "name": "A#2",
            "ticks": 113664,
            "time": 107.636256,
            "velocity": 0.1732283464566929
          },
          {
            "duration": 0.3636359999999996,
            "durationTicks": 384,
            "midi": 46,
            "name": "A#2",
            "ticks": 113952,
            "time": 107.908983,
            "velocity": 0.1732283464566929
          },
          {
            "duration": 0.3636359999999996,
            "durationTicks": 384,
            "midi": 58,
            "name": "A#3",
            "ticks": 113952,
            "time": 107.908983,
            "velocity": 0.1732283464566929
          },
          {
            "duration": 0.3636359999999996,
            "durationTicks": 384,
            "midi": 46,
            "name": "A#2",
            "ticks": 114240,
            "time": 108.18171000000001,
            "velocity": 0.1732283464566929
          },
          {
            "duration": 0.3636359999999996,
            "durationTicks": 384,
            "midi": 58,
            "name": "A#3",
            "ticks": 114240,
            "time": 108.18171000000001,
            "velocity": 0.1732283464566929
          },
          {
            "duration": 0.3636359999999996,
            "durationTicks": 384,
            "midi": 47,
            "name": "B2",
            "ticks": 114528,
            "time": 108.454437,
            "velocity": 0.1732283464566929
          },
          {
            "duration": 0.3636359999999996,
            "durationTicks": 384,
            "midi": 59,
            "name": "B3",
            "ticks": 114528,
            "time": 108.454437,
            "velocity": 0.1732283464566929
          },
          {
            "duration": 0.3636359999999996,
            "durationTicks": 384,
            "midi": 42,
            "name": "F#2",
            "ticks": 114816,
            "time": 108.727164,
            "velocity": 0.1732283464566929
          },
          {
            "duration": 0.3636359999999996,
            "durationTicks": 384,
            "midi": 54,
            "name": "F#3",
            "ticks": 114816,
            "time": 108.727164,
            "velocity": 0.1732283464566929
          },
          {
            "duration": 0.3636359999999996,
            "durationTicks": 384,
            "midi": 46,
            "name": "A#2",
            "ticks": 115008,
            "time": 108.90898200000001,
            "velocity": 0.1732283464566929
          },
          {
            "duration": 0.3636359999999996,
            "durationTicks": 384,
            "midi": 58,
            "name": "A#3",
            "ticks": 115008,
            "time": 108.90898200000001,
            "velocity": 0.1732283464566929
          },
          {
            "duration": 0.3636359999999996,
            "durationTicks": 384,
            "midi": 44,
            "name": "G#2",
            "ticks": 115200,
            "time": 109.0908,
            "velocity": 0.1732283464566929
          },
          {
            "duration": 0.3636359999999996,
            "durationTicks": 384,
            "midi": 56,
            "name": "G#3",
            "ticks": 115200,
            "time": 109.0908,
            "velocity": 0.1732283464566929
          },
          {
            "duration": 0.3636359999999996,
            "durationTicks": 384,
            "midi": 44,
            "name": "G#2",
            "ticks": 115488,
            "time": 109.363527,
            "velocity": 0.1732283464566929
          },
          {
            "duration": 0.3636359999999996,
            "durationTicks": 384,
            "midi": 56,
            "name": "G#3",
            "ticks": 115488,
            "time": 109.363527,
            "velocity": 0.1732283464566929
          },
          {
            "duration": 0.3636359999999996,
            "durationTicks": 384,
            "midi": 44,
            "name": "G#2",
            "ticks": 115776,
            "time": 109.63625400000001,
            "velocity": 0.1732283464566929
          },
          {
            "duration": 0.3636359999999996,
            "durationTicks": 384,
            "midi": 56,
            "name": "G#3",
            "ticks": 115776,
            "time": 109.63625400000001,
            "velocity": 0.1732283464566929
          },
          {
            "duration": 0.3636359999999996,
            "durationTicks": 384,
            "midi": 58,
            "name": "A#3",
            "ticks": 116064,
            "time": 109.90898100000001,
            "velocity": 0.1732283464566929
          },
          {
            "duration": 0.3636359999999996,
            "durationTicks": 384,
            "midi": 46,
            "name": "A#2",
            "ticks": 116064,
            "time": 109.90898100000001,
            "velocity": 0.1732283464566929
          },
          {
            "duration": 0.3636359999999996,
            "durationTicks": 384,
            "midi": 49,
            "name": "C#3",
            "ticks": 116352,
            "time": 110.181708,
            "velocity": 0.1732283464566929
          },
          {
            "duration": 0.3636359999999996,
            "durationTicks": 384,
            "midi": 37,
            "name": "C#2",
            "ticks": 116352,
            "time": 110.181708,
            "velocity": 0.1732283464566929
          },
          {
            "duration": 0.3636359999999996,
            "durationTicks": 384,
            "midi": 44,
            "name": "G#2",
            "ticks": 116544,
            "time": 110.36352600000001,
            "velocity": 0.1732283464566929
          },
          {
            "duration": 0.3636359999999996,
            "durationTicks": 384,
            "midi": 56,
            "name": "G#3",
            "ticks": 116544,
            "time": 110.36352600000001,
            "velocity": 0.1732283464566929
          },
          {
            "duration": 0.3636359999999996,
            "durationTicks": 384,
            "midi": 54,
            "name": "F#3",
            "ticks": 116736,
            "time": 110.545344,
            "velocity": 0.1732283464566929
          },
          {
            "duration": 0.3636359999999996,
            "durationTicks": 384,
            "midi": 42,
            "name": "F#2",
            "ticks": 116736,
            "time": 110.545344,
            "velocity": 0.1732283464566929
          },
          {
            "duration": 0.3636359999999996,
            "durationTicks": 384,
            "midi": 42,
            "name": "F#2",
            "ticks": 117024,
            "time": 110.818071,
            "velocity": 0.1732283464566929
          },
          {
            "duration": 0.3636359999999996,
            "durationTicks": 384,
            "midi": 54,
            "name": "F#3",
            "ticks": 117024,
            "time": 110.818071,
            "velocity": 0.1732283464566929
          },
          {
            "duration": 0.3636359999999996,
            "durationTicks": 384,
            "midi": 54,
            "name": "F#3",
            "ticks": 117312,
            "time": 111.090798,
            "velocity": 0.1732283464566929
          },
          {
            "duration": 0.3636359999999996,
            "durationTicks": 384,
            "midi": 42,
            "name": "F#2",
            "ticks": 117312,
            "time": 111.090798,
            "velocity": 0.1732283464566929
          },
          {
            "duration": 0.3636359999999996,
            "durationTicks": 384,
            "midi": 54,
            "name": "F#3",
            "ticks": 117600,
            "time": 111.36352500000001,
            "velocity": 0.1732283464566929
          },
          {
            "duration": 0.3636359999999996,
            "durationTicks": 384,
            "midi": 42,
            "name": "F#2",
            "ticks": 117600,
            "time": 111.36352500000001,
            "velocity": 0.1732283464566929
          },
          {
            "duration": 0.3636359999999996,
            "durationTicks": 384,
            "midi": 37,
            "name": "C#2",
            "ticks": 117888,
            "time": 111.636252,
            "velocity": 0.1732283464566929
          },
          {
            "duration": 0.3636359999999996,
            "durationTicks": 384,
            "midi": 49,
            "name": "C#3",
            "ticks": 117888,
            "time": 111.636252,
            "velocity": 0.1732283464566929
          },
          {
            "duration": 0.3636359999999996,
            "durationTicks": 384,
            "midi": 56,
            "name": "G#3",
            "ticks": 118080,
            "time": 111.81807,
            "velocity": 0.1732283464566929
          },
          {
            "duration": 0.3636359999999996,
            "durationTicks": 384,
            "midi": 44,
            "name": "G#2",
            "ticks": 118080,
            "time": 111.81807,
            "velocity": 0.1732283464566929
          },
          {
            "duration": 0.3636359999999996,
            "durationTicks": 384,
            "midi": 54,
            "name": "F#3",
            "ticks": 118272,
            "time": 111.999888,
            "velocity": 0.1732283464566929
          },
          {
            "duration": 0.3636359999999996,
            "durationTicks": 384,
            "midi": 42,
            "name": "F#2",
            "ticks": 118272,
            "time": 111.999888,
            "velocity": 0.1732283464566929
          },
          {
            "duration": 0.3636359999999996,
            "durationTicks": 384,
            "midi": 54,
            "name": "F#3",
            "ticks": 118560,
            "time": 112.272615,
            "velocity": 0.1732283464566929
          },
          {
            "duration": 0.3636359999999996,
            "durationTicks": 384,
            "midi": 42,
            "name": "F#2",
            "ticks": 118560,
            "time": 112.272615,
            "velocity": 0.1732283464566929
          },
          {
            "duration": 0.3636359999999996,
            "durationTicks": 384,
            "midi": 54,
            "name": "F#3",
            "ticks": 118848,
            "time": 112.545342,
            "velocity": 0.1732283464566929
          },
          {
            "duration": 0.3636359999999996,
            "durationTicks": 384,
            "midi": 42,
            "name": "F#2",
            "ticks": 118848,
            "time": 112.545342,
            "velocity": 0.1732283464566929
          },
          {
            "duration": 0.3636359999999996,
            "durationTicks": 384,
            "midi": 41,
            "name": "F2",
            "ticks": 119136,
            "time": 112.81806900000001,
            "velocity": 0.1732283464566929
          },
          {
            "duration": 0.3636359999999996,
            "durationTicks": 384,
            "midi": 53,
            "name": "F3",
            "ticks": 119136,
            "time": 112.81806900000001,
            "velocity": 0.1732283464566929
          },
          {
            "duration": 0.3636359999999996,
            "durationTicks": 384,
            "midi": 54,
            "name": "F#3",
            "ticks": 119424,
            "time": 113.09079600000001,
            "velocity": 0.1732283464566929
          },
          {
            "duration": 0.3636359999999996,
            "durationTicks": 384,
            "midi": 42,
            "name": "F#2",
            "ticks": 119424,
            "time": 113.09079600000001,
            "velocity": 0.1732283464566929
          },
          {
            "duration": 0.3636359999999996,
            "durationTicks": 384,
            "midi": 44,
            "name": "G#2",
            "ticks": 119616,
            "time": 113.272614,
            "velocity": 0.1732283464566929
          },
          {
            "duration": 0.3636359999999996,
            "durationTicks": 384,
            "midi": 56,
            "name": "G#3",
            "ticks": 119616,
            "time": 113.272614,
            "velocity": 0.1732283464566929
          },
          {
            "duration": 0.3636359999999996,
            "durationTicks": 384,
            "midi": 46,
            "name": "A#2",
            "ticks": 119808,
            "time": 113.45443200000001,
            "velocity": 0.1732283464566929
          },
          {
            "duration": 0.3636359999999996,
            "durationTicks": 384,
            "midi": 58,
            "name": "A#3",
            "ticks": 119808,
            "time": 113.45443200000001,
            "velocity": 0.1732283464566929
          },
          {
            "duration": 0.3636359999999996,
            "durationTicks": 384,
            "midi": 46,
            "name": "A#2",
            "ticks": 120096,
            "time": 113.727159,
            "velocity": 0.1732283464566929
          },
          {
            "duration": 0.3636359999999996,
            "durationTicks": 384,
            "midi": 58,
            "name": "A#3",
            "ticks": 120096,
            "time": 113.727159,
            "velocity": 0.1732283464566929
          },
          {
            "duration": 0.3636359999999996,
            "durationTicks": 384,
            "midi": 46,
            "name": "A#2",
            "ticks": 120384,
            "time": 113.999886,
            "velocity": 0.1732283464566929
          },
          {
            "duration": 0.3636359999999996,
            "durationTicks": 384,
            "midi": 58,
            "name": "A#3",
            "ticks": 120384,
            "time": 113.999886,
            "velocity": 0.1732283464566929
          },
          {
            "duration": 0.3636359999999996,
            "durationTicks": 384,
            "midi": 47,
            "name": "B2",
            "ticks": 120672,
            "time": 114.272613,
            "velocity": 0.1732283464566929
          },
          {
            "duration": 0.3636359999999996,
            "durationTicks": 384,
            "midi": 59,
            "name": "B3",
            "ticks": 120672,
            "time": 114.272613,
            "velocity": 0.1732283464566929
          },
          {
            "duration": 0.3636359999999996,
            "durationTicks": 384,
            "midi": 54,
            "name": "F#3",
            "ticks": 120960,
            "time": 114.54534000000001,
            "velocity": 0.1732283464566929
          },
          {
            "duration": 0.3636359999999996,
            "durationTicks": 384,
            "midi": 42,
            "name": "F#2",
            "ticks": 120960,
            "time": 114.54534000000001,
            "velocity": 0.1732283464566929
          },
          {
            "duration": 0.3636359999999996,
            "durationTicks": 384,
            "midi": 46,
            "name": "A#2",
            "ticks": 121152,
            "time": 114.727158,
            "velocity": 0.1732283464566929
          },
          {
            "duration": 0.3636359999999996,
            "durationTicks": 384,
            "midi": 58,
            "name": "A#3",
            "ticks": 121152,
            "time": 114.727158,
            "velocity": 0.1732283464566929
          },
          {
            "duration": 0.3636359999999996,
            "durationTicks": 384,
            "midi": 44,
            "name": "G#2",
            "ticks": 121344,
            "time": 114.90897600000001,
            "velocity": 0.1732283464566929
          },
          {
            "duration": 0.3636359999999996,
            "durationTicks": 384,
            "midi": 56,
            "name": "G#3",
            "ticks": 121344,
            "time": 114.90897600000001,
            "velocity": 0.1732283464566929
          },
          {
            "duration": 0.3636359999999996,
            "durationTicks": 384,
            "midi": 44,
            "name": "G#2",
            "ticks": 121632,
            "time": 115.181703,
            "velocity": 0.1732283464566929
          },
          {
            "duration": 0.3636359999999996,
            "durationTicks": 384,
            "midi": 56,
            "name": "G#3",
            "ticks": 121632,
            "time": 115.181703,
            "velocity": 0.1732283464566929
          },
          {
            "duration": 0.3636359999999996,
            "durationTicks": 384,
            "midi": 44,
            "name": "G#2",
            "ticks": 121920,
            "time": 115.45443,
            "velocity": 0.1732283464566929
          },
          {
            "duration": 0.3636359999999996,
            "durationTicks": 384,
            "midi": 56,
            "name": "G#3",
            "ticks": 121920,
            "time": 115.45443,
            "velocity": 0.1732283464566929
          },
          {
            "duration": 0.3636359999999996,
            "durationTicks": 384,
            "midi": 49,
            "name": "C#3",
            "ticks": 122208,
            "time": 115.727157,
            "velocity": 0.1732283464566929
          },
          {
            "duration": 0.3636359999999996,
            "durationTicks": 384,
            "midi": 61,
            "name": "C#4",
            "ticks": 122208,
            "time": 115.727157,
            "velocity": 0.1732283464566929
          },
          {
            "duration": 0.3636359999999996,
            "durationTicks": 384,
            "midi": 53,
            "name": "F3",
            "ticks": 122496,
            "time": 115.99988400000001,
            "velocity": 0.1732283464566929
          },
          {
            "duration": 0.3636359999999996,
            "durationTicks": 384,
            "midi": 41,
            "name": "F2",
            "ticks": 122496,
            "time": 115.99988400000001,
            "velocity": 0.1732283464566929
          },
          {
            "duration": 0.3636359999999996,
            "durationTicks": 384,
            "midi": 56,
            "name": "G#3",
            "ticks": 122688,
            "time": 116.181702,
            "velocity": 0.1732283464566929
          },
          {
            "duration": 0.3636359999999996,
            "durationTicks": 384,
            "midi": 44,
            "name": "G#2",
            "ticks": 122688,
            "time": 116.181702,
            "velocity": 0.1732283464566929
          },
          {
            "duration": 0.3636359999999996,
            "durationTicks": 384,
            "midi": 54,
            "name": "F#3",
            "ticks": 122880,
            "time": 116.36352000000001,
            "velocity": 0.1732283464566929
          },
          {
            "duration": 0.3636359999999996,
            "durationTicks": 384,
            "midi": 42,
            "name": "F#2",
            "ticks": 122880,
            "time": 116.36352000000001,
            "velocity": 0.1732283464566929
          },
          {
            "duration": 0.3636359999999996,
            "durationTicks": 384,
            "midi": 54,
            "name": "F#3",
            "ticks": 123168,
            "time": 116.63624700000001,
            "velocity": 0.1732283464566929
          },
          {
            "duration": 0.3636359999999996,
            "durationTicks": 384,
            "midi": 42,
            "name": "F#2",
            "ticks": 123168,
            "time": 116.63624700000001,
            "velocity": 0.1732283464566929
          },
          {
            "duration": 0.3636359999999996,
            "durationTicks": 384,
            "midi": 54,
            "name": "F#3",
            "ticks": 123456,
            "time": 116.908974,
            "velocity": 0.1732283464566929
          },
          {
            "duration": 0.3636359999999996,
            "durationTicks": 384,
            "midi": 42,
            "name": "F#2",
            "ticks": 123456,
            "time": 116.908974,
            "velocity": 0.1732283464566929
          },
          {
            "duration": 0.3636359999999996,
            "durationTicks": 384,
            "midi": 56,
            "name": "G#3",
            "ticks": 123744,
            "time": 117.181701,
            "velocity": 0.1732283464566929
          },
          {
            "duration": 0.3636359999999996,
            "durationTicks": 384,
            "midi": 44,
            "name": "G#2",
            "ticks": 123744,
            "time": 117.181701,
            "velocity": 0.1732283464566929
          },
          {
            "duration": 0.3636359999999996,
            "durationTicks": 384,
            "midi": 51,
            "name": "D#3",
            "ticks": 124032,
            "time": 117.45442800000001,
            "velocity": 0.1732283464566929
          },
          {
            "duration": 0.3636359999999996,
            "durationTicks": 384,
            "midi": 39,
            "name": "D#2",
            "ticks": 124032,
            "time": 117.45442800000001,
            "velocity": 0.1732283464566929
          },
          {
            "duration": 0.3636359999999996,
            "durationTicks": 384,
            "midi": 53,
            "name": "F3",
            "ticks": 124224,
            "time": 117.636246,
            "velocity": 0.1732283464566929
          },
          {
            "duration": 0.3636359999999996,
            "durationTicks": 384,
            "midi": 41,
            "name": "F2",
            "ticks": 124224,
            "time": 117.636246,
            "velocity": 0.1732283464566929
          },
          {
            "duration": 0.3636359999999996,
            "durationTicks": 384,
            "midi": 54,
            "name": "F#3",
            "ticks": 124416,
            "time": 117.818064,
            "velocity": 0.1732283464566929
          },
          {
            "duration": 0.3636359999999996,
            "durationTicks": 384,
            "midi": 42,
            "name": "F#2",
            "ticks": 124416,
            "time": 117.818064,
            "velocity": 0.1732283464566929
          },
          {
            "duration": 0.3636359999999996,
            "durationTicks": 384,
            "midi": 42,
            "name": "F#2",
            "ticks": 124704,
            "time": 118.09079100000001,
            "velocity": 0.1732283464566929
          },
          {
            "duration": 0.3636359999999996,
            "durationTicks": 384,
            "midi": 42,
            "name": "F#2",
            "ticks": 124992,
            "time": 118.363518,
            "velocity": 0.1732283464566929
          },
          {
            "duration": 0.3636359999999996,
            "durationTicks": 384,
            "midi": 41,
            "name": "F2",
            "ticks": 125280,
            "time": 118.636245,
            "velocity": 0.1732283464566929
          },
          {
            "duration": 0.3636359999999996,
            "durationTicks": 384,
            "midi": 42,
            "name": "F#2",
            "ticks": 125568,
            "time": 118.908972,
            "velocity": 0.1732283464566929
          },
          {
            "duration": 0.3636359999999996,
            "durationTicks": 384,
            "midi": 44,
            "name": "G#2",
            "ticks": 125760,
            "time": 119.09079,
            "velocity": 0.1732283464566929
          },
          {
            "duration": 0.3636359999999996,
            "durationTicks": 384,
            "midi": 46,
            "name": "A#2",
            "ticks": 125952,
            "time": 119.272608,
            "velocity": 0.1732283464566929
          },
          {
            "duration": 0.3636359999999996,
            "durationTicks": 384,
            "midi": 46,
            "name": "A#2",
            "ticks": 126336,
            "time": 119.636244,
            "velocity": 0.1732283464566929
          },
          {
            "duration": 0.3636359999999996,
            "durationTicks": 384,
            "midi": 46,
            "name": "A#2",
            "ticks": 126528,
            "time": 119.81806200000001,
            "velocity": 0.1732283464566929
          },
          {
            "duration": 0.3636359999999996,
            "durationTicks": 384,
            "midi": 46,
            "name": "A#2",
            "ticks": 126720,
            "time": 119.99988,
            "velocity": 0.1732283464566929
          },
          {
            "duration": 0.3636359999999996,
            "durationTicks": 384,
            "midi": 44,
            "name": "G#2",
            "ticks": 127296,
            "time": 120.54533400000001,
            "velocity": 0.1732283464566929
          },
          {
            "duration": 0.3636359999999996,
            "durationTicks": 384,
            "midi": 44,
            "name": "G#2",
            "ticks": 127680,
            "time": 120.90897000000001,
            "velocity": 0.1732283464566929
          },
          {
            "duration": 0.3636359999999996,
            "durationTicks": 384,
            "midi": 44,
            "name": "G#2",
            "ticks": 127872,
            "time": 121.090788,
            "velocity": 0.1732283464566929
          },
          {
            "duration": 0.3636359999999996,
            "durationTicks": 384,
            "midi": 42,
            "name": "F#2",
            "ticks": 128064,
            "time": 121.27260600000001,
            "velocity": 0.1732283464566929
          },
          {
            "duration": 0.3636359999999996,
            "durationTicks": 384,
            "midi": 44,
            "name": "G#2",
            "ticks": 128256,
            "time": 121.454424,
            "velocity": 0.1732283464566929
          },
          {
            "duration": 0.3636359999999996,
            "durationTicks": 384,
            "midi": 46,
            "name": "A#2",
            "ticks": 128640,
            "time": 121.81806,
            "velocity": 0.1732283464566929
          },
          {
            "duration": 0.3636359999999996,
            "durationTicks": 384,
            "midi": 42,
            "name": "F#2",
            "ticks": 129024,
            "time": 122.181696,
            "velocity": 0.1732283464566929
          },
          {
            "duration": 0.3636359999999996,
            "durationTicks": 384,
            "midi": 42,
            "name": "F#2",
            "ticks": 129408,
            "time": 122.545332,
            "velocity": 0.1732283464566929
          },
          {
            "duration": 0.3636359999999996,
            "durationTicks": 384,
            "midi": 42,
            "name": "F#2",
            "ticks": 129600,
            "time": 122.72715000000001,
            "velocity": 0.1732283464566929
          },
          {
            "duration": 0.3636359999999996,
            "durationTicks": 384,
            "midi": 42,
            "name": "F#2",
            "ticks": 129792,
            "time": 122.908968,
            "velocity": 0.1732283464566929
          },
          {
            "duration": 0.3636359999999996,
            "durationTicks": 384,
            "midi": 42,
            "name": "F#2",
            "ticks": 130176,
            "time": 123.272604,
            "velocity": 0.1732283464566929
          },
          {
            "duration": 0.3636359999999996,
            "durationTicks": 384,
            "midi": 39,
            "name": "D#2",
            "ticks": 130368,
            "time": 123.45442200000001,
            "velocity": 0.1732283464566929
          },
          {
            "duration": 0.3636359999999996,
            "durationTicks": 384,
            "midi": 39,
            "name": "D#2",
            "ticks": 130752,
            "time": 123.81805800000001,
            "velocity": 0.1732283464566929
          },
          {
            "duration": 0.3636359999999996,
            "durationTicks": 384,
            "midi": 41,
            "name": "F2",
            "ticks": 130944,
            "time": 123.999876,
            "velocity": 0.1732283464566929
          },
          {
            "duration": 0.3636359999999996,
            "durationTicks": 384,
            "midi": 41,
            "name": "F2",
            "ticks": 131136,
            "time": 124.18169400000001,
            "velocity": 0.1732283464566929
          },
          {
            "duration": 0.3636359999999996,
            "durationTicks": 384,
            "midi": 42,
            "name": "F#2",
            "ticks": 131328,
            "time": 124.363512,
            "velocity": 0.1732283464566929
          },
          {
            "duration": 0.3636359999999996,
            "durationTicks": 384,
            "midi": 44,
            "name": "G#2",
            "ticks": 131712,
            "time": 124.727148,
            "velocity": 0.1732283464566929
          },
          {
            "duration": 0.3636359999999996,
            "durationTicks": 384,
            "midi": 46,
            "name": "A#2",
            "ticks": 132096,
            "time": 125.090784,
            "velocity": 0.1732283464566929
          },
          {
            "duration": 0.3636359999999996,
            "durationTicks": 384,
            "midi": 46,
            "name": "A#2",
            "ticks": 132480,
            "time": 125.45442,
            "velocity": 0.1732283464566929
          },
          {
            "duration": 0.3636359999999996,
            "durationTicks": 384,
            "midi": 46,
            "name": "A#2",
            "ticks": 132672,
            "time": 125.636238,
            "velocity": 0.1732283464566929
          },
          {
            "duration": 0.3636359999999996,
            "durationTicks": 384,
            "midi": 46,
            "name": "A#2",
            "ticks": 132864,
            "time": 125.818056,
            "velocity": 0.1732283464566929
          },
          {
            "duration": 0.3636359999999996,
            "durationTicks": 384,
            "midi": 44,
            "name": "G#2",
            "ticks": 133440,
            "time": 126.36351,
            "velocity": 0.1732283464566929
          },
          {
            "duration": 0.3636359999999996,
            "durationTicks": 384,
            "midi": 44,
            "name": "G#2",
            "ticks": 133824,
            "time": 126.727146,
            "velocity": 0.1732283464566929
          },
          {
            "duration": 0.3636359999999996,
            "durationTicks": 384,
            "midi": 49,
            "name": "C#3",
            "ticks": 134016,
            "time": 126.90896400000001,
            "velocity": 0.1732283464566929
          },
          {
            "duration": 0.3636359999999996,
            "durationTicks": 384,
            "midi": 49,
            "name": "C#3",
            "ticks": 134208,
            "time": 127.090782,
            "velocity": 0.1732283464566929
          },
          {
            "duration": 0.3636359999999996,
            "durationTicks": 384,
            "midi": 47,
            "name": "B2",
            "ticks": 134400,
            "time": 127.27260000000001,
            "velocity": 0.1732283464566929
          },
          {
            "duration": 0.3636359999999996,
            "durationTicks": 384,
            "midi": 46,
            "name": "A#2",
            "ticks": 134784,
            "time": 127.63623600000001,
            "velocity": 0.1732283464566929
          },
          {
            "duration": 0.3636359999999854,
            "durationTicks": 384,
            "midi": 42,
            "name": "F#2",
            "ticks": 135168,
            "time": 127.99987200000001,
            "velocity": 0.1732283464566929
          },
          {
            "duration": 0.36363600000001384,
            "durationTicks": 384,
            "midi": 42,
            "name": "F#2",
            "ticks": 135552,
            "time": 128.363508,
            "velocity": 0.1732283464566929
          },
          {
            "duration": 0.3636359999999854,
            "durationTicks": 384,
            "midi": 42,
            "name": "F#2",
            "ticks": 135744,
            "time": 128.54532600000002,
            "velocity": 0.1732283464566929
          },
          {
            "duration": 0.3636359999999854,
            "durationTicks": 384,
            "midi": 42,
            "name": "F#2",
            "ticks": 135936,
            "time": 128.727144,
            "velocity": 0.1732283464566929
          },
          {
            "duration": 0.36363600000001384,
            "durationTicks": 384,
            "midi": 42,
            "name": "F#2",
            "ticks": 136320,
            "time": 129.09078,
            "velocity": 0.1732283464566929
          },
          {
            "duration": 0.3636359999999854,
            "durationTicks": 384,
            "midi": 49,
            "name": "C#3",
            "ticks": 136512,
            "time": 129.27259800000002,
            "velocity": 0.1732283464566929
          },
          {
            "duration": 0.36363600000001384,
            "durationTicks": 384,
            "midi": 49,
            "name": "C#3",
            "ticks": 136896,
            "time": 129.636234,
            "velocity": 0.1732283464566929
          },
          {
            "duration": 0.36363600000001384,
            "durationTicks": 384,
            "midi": 42,
            "name": "F#2",
            "ticks": 137088,
            "time": 129.818052,
            "velocity": 0.1732283464566929
          },
          {
            "duration": 0.3636359999999854,
            "durationTicks": 384,
            "midi": 42,
            "name": "F#2",
            "ticks": 137472,
            "time": 130.181688,
            "velocity": 0.1732283464566929
          },
          {
            "duration": 0.36363600000001384,
            "durationTicks": 384,
            "midi": 41,
            "name": "F2",
            "ticks": 137856,
            "time": 130.545324,
            "velocity": 0.1732283464566929
          },
          {
            "duration": 0.36363600000001384,
            "durationTicks": 384,
            "midi": 44,
            "name": "G#2",
            "ticks": 141312,
            "time": 133.818048,
            "velocity": 0.1732283464566929
          },
          {
            "duration": 0.3636359999999854,
            "durationTicks": 384,
            "midi": 44,
            "name": "G#2",
            "ticks": 141696,
            "time": 134.18168400000002,
            "velocity": 0.1732283464566929
          },
          {
            "duration": 0.36363600000001384,
            "durationTicks": 384,
            "midi": 44,
            "name": "G#2",
            "ticks": 142080,
            "time": 134.54532,
            "velocity": 0.1732283464566929
          },
          {
            "duration": 0.36363600000001384,
            "durationTicks": 384,
            "midi": 46,
            "name": "A#2",
            "ticks": 142272,
            "time": 134.727138,
            "velocity": 0.1732283464566929
          },
          {
            "duration": 0.3636359999999854,
            "durationTicks": 384,
            "midi": 37,
            "name": "C#2",
            "ticks": 142464,
            "time": 134.90895600000002,
            "velocity": 0.1732283464566929
          },
          {
            "duration": 0.3636359999999854,
            "durationTicks": 384,
            "midi": 37,
            "name": "C#2",
            "ticks": 142656,
            "time": 135.090774,
            "velocity": 0.1732283464566929
          },
          {
            "duration": 0.36363600000001384,
            "durationTicks": 384,
            "midi": 49,
            "name": "C#3",
            "ticks": 143040,
            "time": 135.45441,
            "velocity": 0.1732283464566929
          },
          {
            "duration": 0.36363600000001384,
            "durationTicks": 384,
            "midi": 61,
            "name": "C#4",
            "ticks": 143040,
            "time": 135.45441,
            "velocity": 0.1732283464566929
          },
          {
            "duration": 0.3636359999999854,
            "durationTicks": 384,
            "midi": 49,
            "name": "C#3",
            "ticks": 143424,
            "time": 135.818046,
            "velocity": 0.1732283464566929
          },
          {
            "duration": 0.3636359999999854,
            "durationTicks": 384,
            "midi": 61,
            "name": "C#4",
            "ticks": 143424,
            "time": 135.818046,
            "velocity": 0.1732283464566929
          },
          {
            "duration": 0.36363600000001384,
            "durationTicks": 384,
            "midi": 61,
            "name": "C#4",
            "ticks": 143808,
            "time": 136.181682,
            "velocity": 0.1732283464566929
          },
          {
            "duration": 0.36363600000001384,
            "durationTicks": 384,
            "midi": 49,
            "name": "C#3",
            "ticks": 143808,
            "time": 136.181682,
            "velocity": 0.1732283464566929
          },
          {
            "duration": 0.3636359999999854,
            "durationTicks": 384,
            "midi": 49,
            "name": "C#3",
            "ticks": 144000,
            "time": 136.36350000000002,
            "velocity": 0.1732283464566929
          },
          {
            "duration": 0.3636359999999854,
            "durationTicks": 384,
            "midi": 61,
            "name": "C#4",
            "ticks": 144000,
            "time": 136.36350000000002,
            "velocity": 0.1732283464566929
          },
          {
            "duration": 0.36363600000001384,
            "durationTicks": 384,
            "midi": 44,
            "name": "G#2",
            "ticks": 144384,
            "time": 136.727136,
            "velocity": 0.1732283464566929
          },
          {
            "duration": 0.3636359999999854,
            "durationTicks": 384,
            "midi": 44,
            "name": "G#2",
            "ticks": 144768,
            "time": 137.09077200000002,
            "velocity": 0.1732283464566929
          },
          {
            "duration": 0.36363600000001384,
            "durationTicks": 384,
            "midi": 44,
            "name": "G#2",
            "ticks": 145152,
            "time": 137.454408,
            "velocity": 0.1732283464566929
          },
          {
            "duration": 0.36363600000001384,
            "durationTicks": 384,
            "midi": 46,
            "name": "A#2",
            "ticks": 145344,
            "time": 137.636226,
            "velocity": 0.1732283464566929
          },
          {
            "duration": 0.3636359999999854,
            "durationTicks": 384,
            "midi": 37,
            "name": "C#2",
            "ticks": 145536,
            "time": 137.81804400000001,
            "velocity": 0.1732283464566929
          },
          {
            "duration": 0.3636359999999854,
            "durationTicks": 384,
            "midi": 37,
            "name": "C#2",
            "ticks": 145728,
            "time": 137.999862,
            "velocity": 0.1732283464566929
          },
          {
            "duration": 0.36363600000001384,
            "durationTicks": 384,
            "midi": 39,
            "name": "D#2",
            "ticks": 146112,
            "time": 138.363498,
            "velocity": 0.1732283464566929
          },
          {
            "duration": 0.3636359999999854,
            "durationTicks": 384,
            "midi": 37,
            "name": "C#2",
            "ticks": 146304,
            "time": 138.545316,
            "velocity": 0.1732283464566929
          },
          {
            "duration": 0.36363600000001384,
            "durationTicks": 384,
            "midi": 46,
            "name": "A#2",
            "ticks": 147456,
            "time": 139.636224,
            "velocity": 0.1732283464566929
          },
          {
            "duration": 0.3636359999999854,
            "durationTicks": 384,
            "midi": 46,
            "name": "A#2",
            "ticks": 147840,
            "time": 139.99986,
            "velocity": 0.1732283464566929
          },
          {
            "duration": 0.36363600000001384,
            "durationTicks": 384,
            "midi": 46,
            "name": "A#2",
            "ticks": 148224,
            "time": 140.363496,
            "velocity": 0.1732283464566929
          },
          {
            "duration": 0.3636359999999854,
            "durationTicks": 384,
            "midi": 49,
            "name": "C#3",
            "ticks": 148416,
            "time": 140.54531400000002,
            "velocity": 0.1732283464566929
          },
          {
            "duration": 0.3636359999999854,
            "durationTicks": 384,
            "midi": 46,
            "name": "A#2",
            "ticks": 148608,
            "time": 140.727132,
            "velocity": 0.1732283464566929
          },
          {
            "duration": 0.36363600000001384,
            "durationTicks": 384,
            "midi": 44,
            "name": "G#2",
            "ticks": 148800,
            "time": 140.90895,
            "velocity": 0.1732283464566929
          },
          {
            "duration": 0.3636359999999854,
            "durationTicks": 384,
            "midi": 61,
            "name": "C#4",
            "ticks": 149184,
            "time": 141.27258600000002,
            "velocity": 0.1732283464566929
          },
          {
            "duration": 0.3636359999999854,
            "durationTicks": 384,
            "midi": 49,
            "name": "C#3",
            "ticks": 149184,
            "time": 141.27258600000002,
            "velocity": 0.1732283464566929
          },
          {
            "duration": 0.36363600000001384,
            "durationTicks": 384,
            "midi": 61,
            "name": "C#4",
            "ticks": 149568,
            "time": 141.636222,
            "velocity": 0.1732283464566929
          },
          {
            "duration": 0.36363600000001384,
            "durationTicks": 384,
            "midi": 49,
            "name": "C#3",
            "ticks": 149568,
            "time": 141.636222,
            "velocity": 0.1732283464566929
          },
          {
            "duration": 0.3636359999999854,
            "durationTicks": 384,
            "midi": 49,
            "name": "C#3",
            "ticks": 149952,
            "time": 141.99985800000002,
            "velocity": 0.1732283464566929
          },
          {
            "duration": 0.3636359999999854,
            "durationTicks": 384,
            "midi": 61,
            "name": "C#4",
            "ticks": 149952,
            "time": 141.99985800000002,
            "velocity": 0.1732283464566929
          },
          {
            "duration": 0.3636359999999854,
            "durationTicks": 384,
            "midi": 49,
            "name": "C#3",
            "ticks": 150144,
            "time": 142.181676,
            "velocity": 0.1732283464566929
          },
          {
            "duration": 0.3636359999999854,
            "durationTicks": 384,
            "midi": 61,
            "name": "C#4",
            "ticks": 150144,
            "time": 142.181676,
            "velocity": 0.1732283464566929
          },
          {
            "duration": 0.36363600000001384,
            "durationTicks": 384,
            "midi": 44,
            "name": "G#2",
            "ticks": 150528,
            "time": 142.545312,
            "velocity": 0.1732283464566929
          },
          {
            "duration": 0.3636359999999854,
            "durationTicks": 384,
            "midi": 44,
            "name": "G#2",
            "ticks": 150912,
            "time": 142.908948,
            "velocity": 0.1732283464566929
          },
          {
            "duration": 0.36363600000001384,
            "durationTicks": 384,
            "midi": 44,
            "name": "G#2",
            "ticks": 151296,
            "time": 143.272584,
            "velocity": 0.1732283464566929
          },
          {
            "duration": 0.3636359999999854,
            "durationTicks": 384,
            "midi": 46,
            "name": "A#2",
            "ticks": 151488,
            "time": 143.45440200000002,
            "velocity": 0.1732283464566929
          },
          {
            "duration": 0.3636359999999854,
            "durationTicks": 384,
            "midi": 37,
            "name": "C#2",
            "ticks": 151680,
            "time": 143.63622,
            "velocity": 0.1732283464566929
          },
          {
            "duration": 0.36363600000001384,
            "durationTicks": 384,
            "midi": 37,
            "name": "C#2",
            "ticks": 151872,
            "time": 143.818038,
            "velocity": 0.1732283464566929
          },
          {
            "duration": 0.3636359999999854,
            "durationTicks": 384,
            "midi": 46,
            "name": "A#2",
            "ticks": 152448,
            "time": 144.363492,
            "velocity": 0.1732283464566929
          },
          {
            "duration": 0.3636359999999854,
            "durationTicks": 384,
            "midi": 58,
            "name": "A#3",
            "ticks": 152448,
            "time": 144.363492,
            "velocity": 0.1732283464566929
          },
          {
            "duration": 0.36363600000001384,
            "durationTicks": 384,
            "midi": 46,
            "name": "A#2",
            "ticks": 152832,
            "time": 144.727128,
            "velocity": 0.1732283464566929
          },
          {
            "duration": 0.36363600000001384,
            "durationTicks": 384,
            "midi": 58,
            "name": "A#3",
            "ticks": 152832,
            "time": 144.727128,
            "velocity": 0.1732283464566929
          },
          {
            "duration": 0.3636359999999854,
            "durationTicks": 384,
            "midi": 56,
            "name": "G#3",
            "ticks": 153216,
            "time": 145.090764,
            "velocity": 0.1732283464566929
          },
          {
            "duration": 0.3636359999999854,
            "durationTicks": 384,
            "midi": 44,
            "name": "G#2",
            "ticks": 153216,
            "time": 145.090764,
            "velocity": 0.1732283464566929
          },
          {
            "duration": 0.36363600000001384,
            "durationTicks": 384,
            "midi": 42,
            "name": "F#2",
            "ticks": 153600,
            "time": 145.4544,
            "velocity": 0.1732283464566929
          },
          {
            "duration": 0.36363600000001384,
            "durationTicks": 384,
            "midi": 49,
            "name": "C#3",
            "ticks": 153600,
            "time": 145.4544,
            "velocity": 0.1732283464566929
          },
          {
            "duration": 0.36363600000001384,
            "durationTicks": 384,
            "midi": 37,
            "name": "C#2",
            "ticks": 153600,
            "time": 145.4544,
            "velocity": 0.1732283464566929
          },
          {
            "duration": 0.3636359999999854,
            "durationTicks": 384,
            "midi": 58,
            "name": "A#3",
            "ticks": 153984,
            "time": 145.818036,
            "velocity": 0.1732283464566929
          },
          {
            "duration": 0.3636359999999854,
            "durationTicks": 384,
            "midi": 46,
            "name": "A#2",
            "ticks": 153984,
            "time": 145.818036,
            "velocity": 0.1732283464566929
          },
          {
            "duration": 0.3636359999999854,
            "durationTicks": 384,
            "midi": 49,
            "name": "C#3",
            "ticks": 153984,
            "time": 145.818036,
            "velocity": 0.1732283464566929
          },
          {
            "duration": 0.36363600000001384,
            "durationTicks": 384,
            "midi": 47,
            "name": "B2",
            "ticks": 154176,
            "time": 145.999854,
            "velocity": 0.1732283464566929
          },
          {
            "duration": 0.36363600000001384,
            "durationTicks": 384,
            "midi": 44,
            "name": "G#2",
            "ticks": 154176,
            "time": 145.999854,
            "velocity": 0.1732283464566929
          },
          {
            "duration": 0.36363600000001384,
            "durationTicks": 384,
            "midi": 56,
            "name": "G#3",
            "ticks": 154176,
            "time": 145.999854,
            "velocity": 0.1732283464566929
          },
          {
            "duration": 0.36363600000001384,
            "durationTicks": 384,
            "midi": 46,
            "name": "A#2",
            "ticks": 154368,
            "time": 146.181672,
            "velocity": 0.1732283464566929
          },
          {
            "duration": 0.36363600000001384,
            "durationTicks": 384,
            "midi": 54,
            "name": "F#3",
            "ticks": 154368,
            "time": 146.181672,
            "velocity": 0.1732283464566929
          },
          {
            "duration": 0.36363600000001384,
            "durationTicks": 384,
            "midi": 42,
            "name": "F#2",
            "ticks": 154368,
            "time": 146.181672,
            "velocity": 0.1732283464566929
          },
          {
            "duration": 0.36363600000001384,
            "durationTicks": 384,
            "midi": 44,
            "name": "G#2",
            "ticks": 154944,
            "time": 146.727126,
            "velocity": 0.1732283464566929
          },
          {
            "duration": 0.36363600000001384,
            "durationTicks": 384,
            "midi": 56,
            "name": "G#3",
            "ticks": 154944,
            "time": 146.727126,
            "velocity": 0.1732283464566929
          },
          {
            "duration": 0.36363600000001384,
            "durationTicks": 384,
            "midi": 54,
            "name": "F#3",
            "ticks": 154944,
            "time": 146.727126,
            "velocity": 0.1732283464566929
          },
          {
            "duration": 0.3636359999999854,
            "durationTicks": 384,
            "midi": 51,
            "name": "D#3",
            "ticks": 155328,
            "time": 147.090762,
            "velocity": 0.1732283464566929
          },
          {
            "duration": 0.3636359999999854,
            "durationTicks": 384,
            "midi": 54,
            "name": "F#3",
            "ticks": 155328,
            "time": 147.090762,
            "velocity": 0.1732283464566929
          },
          {
            "duration": 0.3636359999999854,
            "durationTicks": 384,
            "midi": 42,
            "name": "F#2",
            "ticks": 155328,
            "time": 147.090762,
            "velocity": 0.1732283464566929
          },
          {
            "duration": 0.36363600000001384,
            "durationTicks": 384,
            "midi": 54,
            "name": "F#3",
            "ticks": 155520,
            "time": 147.27258,
            "velocity": 0.1732283464566929
          },
          {
            "duration": 0.36363600000001384,
            "durationTicks": 384,
            "midi": 56,
            "name": "G#3",
            "ticks": 155520,
            "time": 147.27258,
            "velocity": 0.1732283464566929
          },
          {
            "duration": 0.36363600000001384,
            "durationTicks": 384,
            "midi": 44,
            "name": "G#2",
            "ticks": 155520,
            "time": 147.27258,
            "velocity": 0.1732283464566929
          },
          {
            "duration": 0.36363600000001384,
            "durationTicks": 384,
            "midi": 54,
            "name": "F#3",
            "ticks": 155712,
            "time": 147.454398,
            "velocity": 0.1732283464566929
          },
          {
            "duration": 0.36363600000001384,
            "durationTicks": 384,
            "midi": 42,
            "name": "F#2",
            "ticks": 155712,
            "time": 147.454398,
            "velocity": 0.1732283464566929
          },
          {
            "duration": 0.36363600000001384,
            "durationTicks": 384,
            "midi": 51,
            "name": "D#3",
            "ticks": 155712,
            "time": 147.454398,
            "velocity": 0.1732283464566929
          },
          {
            "duration": 0.3636359999999854,
            "durationTicks": 384,
            "midi": 54,
            "name": "F#3",
            "ticks": 155904,
            "time": 147.63621600000002,
            "velocity": 0.1732283464566929
          },
          {
            "duration": 0.3636359999999854,
            "durationTicks": 384,
            "midi": 44,
            "name": "G#2",
            "ticks": 155904,
            "time": 147.63621600000002,
            "velocity": 0.1732283464566929
          },
          {
            "duration": 0.3636359999999854,
            "durationTicks": 384,
            "midi": 56,
            "name": "G#3",
            "ticks": 155904,
            "time": 147.63621600000002,
            "velocity": 0.1732283464566929
          },
          {
            "duration": 0.36363600000001384,
            "durationTicks": 384,
            "midi": 58,
            "name": "A#3",
            "ticks": 156288,
            "time": 147.999852,
            "velocity": 0.1732283464566929
          },
          {
            "duration": 0.36363600000001384,
            "durationTicks": 384,
            "midi": 46,
            "name": "A#2",
            "ticks": 156288,
            "time": 147.999852,
            "velocity": 0.1732283464566929
          },
          {
            "duration": 0.36363600000001384,
            "durationTicks": 384,
            "midi": 54,
            "name": "F#3",
            "ticks": 156288,
            "time": 147.999852,
            "velocity": 0.1732283464566929
          },
          {
            "duration": 0.3636359999999854,
            "durationTicks": 384,
            "midi": 51,
            "name": "D#3",
            "ticks": 156672,
            "time": 148.36348800000002,
            "velocity": 0.1732283464566929
          },
          {
            "duration": 0.3636359999999854,
            "durationTicks": 384,
            "midi": 42,
            "name": "F#2",
            "ticks": 156672,
            "time": 148.36348800000002,
            "velocity": 0.1732283464566929
          },
          {
            "duration": 0.3636359999999854,
            "durationTicks": 384,
            "midi": 39,
            "name": "D#2",
            "ticks": 156672,
            "time": 148.36348800000002,
            "velocity": 0.1732283464566929
          },
          {
            "duration": 0.36363600000001384,
            "durationTicks": 384,
            "midi": 54,
            "name": "F#3",
            "ticks": 157056,
            "time": 148.727124,
            "velocity": 0.1732283464566929
          },
          {
            "duration": 0.36363600000001384,
            "durationTicks": 384,
            "midi": 58,
            "name": "A#3",
            "ticks": 157056,
            "time": 148.727124,
            "velocity": 0.1732283464566929
          },
          {
            "duration": 0.36363600000001384,
            "durationTicks": 384,
            "midi": 46,
            "name": "A#2",
            "ticks": 157056,
            "time": 148.727124,
            "velocity": 0.1732283464566929
          },
          {
            "duration": 0.36363600000001384,
            "durationTicks": 384,
            "midi": 44,
            "name": "G#2",
            "ticks": 157248,
            "time": 148.908942,
            "velocity": 0.1732283464566929
          },
          {
            "duration": 0.36363600000001384,
            "durationTicks": 384,
            "midi": 56,
            "name": "G#3",
            "ticks": 157248,
            "time": 148.908942,
            "velocity": 0.1732283464566929
          },
          {
            "duration": 0.36363600000001384,
            "durationTicks": 384,
            "midi": 53,
            "name": "F3",
            "ticks": 157248,
            "time": 148.908942,
            "velocity": 0.1732283464566929
          },
          {
            "duration": 0.3636359999999854,
            "durationTicks": 384,
            "midi": 51,
            "name": "D#3",
            "ticks": 157440,
            "time": 149.09076000000002,
            "velocity": 0.1732283464566929
          },
          {
            "duration": 0.3636359999999854,
            "durationTicks": 384,
            "midi": 42,
            "name": "F#2",
            "ticks": 157440,
            "time": 149.09076000000002,
            "velocity": 0.1732283464566929
          },
          {
            "duration": 0.3636359999999854,
            "durationTicks": 384,
            "midi": 54,
            "name": "F#3",
            "ticks": 157440,
            "time": 149.09076000000002,
            "velocity": 0.1732283464566929
          },
          {
            "duration": 0.36363600000001384,
            "durationTicks": 384,
            "midi": 42,
            "name": "F#2",
            "ticks": 157824,
            "time": 149.454396,
            "velocity": 0.1732283464566929
          },
          {
            "duration": 0.36363600000001384,
            "durationTicks": 384,
            "midi": 54,
            "name": "F#3",
            "ticks": 157824,
            "time": 149.454396,
            "velocity": 0.1732283464566929
          },
          {
            "duration": 0.36363600000001384,
            "durationTicks": 384,
            "midi": 44,
            "name": "G#2",
            "ticks": 158016,
            "time": 149.636214,
            "velocity": 0.1732283464566929
          },
          {
            "duration": 0.36363600000001384,
            "durationTicks": 384,
            "midi": 56,
            "name": "G#3",
            "ticks": 158016,
            "time": 149.636214,
            "velocity": 0.1732283464566929
          },
          {
            "duration": 0.36363600000001384,
            "durationTicks": 384,
            "midi": 47,
            "name": "B2",
            "ticks": 158016,
            "time": 149.636214,
            "velocity": 0.1732283464566929
          },
          {
            "duration": 0.3636359999999854,
            "durationTicks": 384,
            "midi": 42,
            "name": "F#2",
            "ticks": 158400,
            "time": 149.99985,
            "velocity": 0.1732283464566929
          },
          {
            "duration": 0.3636359999999854,
            "durationTicks": 384,
            "midi": 54,
            "name": "F#3",
            "ticks": 158400,
            "time": 149.99985,
            "velocity": 0.1732283464566929
          },
          {
            "duration": 0.3636359999999854,
            "durationTicks": 384,
            "midi": 46,
            "name": "A#2",
            "ticks": 158400,
            "time": 149.99985,
            "velocity": 0.1732283464566929
          },
          {
            "duration": 0.36363600000001384,
            "durationTicks": 384,
            "midi": 56,
            "name": "G#3",
            "ticks": 158592,
            "time": 150.181668,
            "velocity": 0.1732283464566929
          },
          {
            "duration": 0.36363600000001384,
            "durationTicks": 384,
            "midi": 47,
            "name": "B2",
            "ticks": 158592,
            "time": 150.181668,
            "velocity": 0.1732283464566929
          },
          {
            "duration": 0.36363600000001384,
            "durationTicks": 384,
            "midi": 44,
            "name": "G#2",
            "ticks": 158592,
            "time": 150.181668,
            "velocity": 0.1732283464566929
          },
          {
            "duration": 0.36363600000001384,
            "durationTicks": 384,
            "midi": 58,
            "name": "A#3",
            "ticks": 158784,
            "time": 150.363486,
            "velocity": 0.1732283464566929
          },
          {
            "duration": 0.36363600000001384,
            "durationTicks": 384,
            "midi": 46,
            "name": "A#2",
            "ticks": 158784,
            "time": 150.363486,
            "velocity": 0.1732283464566929
          },
          {
            "duration": 0.36363600000001384,
            "durationTicks": 384,
            "midi": 54,
            "name": "F#3",
            "ticks": 158784,
            "time": 150.363486,
            "velocity": 0.1732283464566929
          },
          {
            "duration": 0.3636359999999854,
            "durationTicks": 384,
            "midi": 44,
            "name": "G#2",
            "ticks": 158976,
            "time": 150.54530400000002,
            "velocity": 0.1732283464566929
          },
          {
            "duration": 0.3636359999999854,
            "durationTicks": 384,
            "midi": 53,
            "name": "F3",
            "ticks": 158976,
            "time": 150.54530400000002,
            "velocity": 0.1732283464566929
          },
          {
            "duration": 0.3636359999999854,
            "durationTicks": 384,
            "midi": 56,
            "name": "G#3",
            "ticks": 158976,
            "time": 150.54530400000002,
            "velocity": 0.1732283464566929
          },
          {
            "duration": 0.36363600000001384,
            "durationTicks": 384,
            "midi": 54,
            "name": "F#3",
            "ticks": 159360,
            "time": 150.90894,
            "velocity": 0.1732283464566929
          },
          {
            "duration": 0.36363600000001384,
            "durationTicks": 384,
            "midi": 51,
            "name": "D#3",
            "ticks": 159360,
            "time": 150.90894,
            "velocity": 0.1732283464566929
          },
          {
            "duration": 0.36363600000001384,
            "durationTicks": 384,
            "midi": 42,
            "name": "F#2",
            "ticks": 159360,
            "time": 150.90894,
            "velocity": 0.1732283464566929
          },
          {
            "duration": 0.3636359999999854,
            "durationTicks": 384,
            "midi": 46,
            "name": "A#2",
            "ticks": 159744,
            "time": 151.27257600000002,
            "velocity": 0.1732283464566929
          },
          {
            "duration": 0.3636359999999854,
            "durationTicks": 384,
            "midi": 37,
            "name": "C#2",
            "ticks": 159744,
            "time": 151.27257600000002,
            "velocity": 0.1732283464566929
          },
          {
            "duration": 0.3636359999999854,
            "durationTicks": 384,
            "midi": 49,
            "name": "C#3",
            "ticks": 159744,
            "time": 151.27257600000002,
            "velocity": 0.1732283464566929
          },
          {
            "duration": 0.36363600000001384,
            "durationTicks": 384,
            "midi": 58,
            "name": "A#3",
            "ticks": 160128,
            "time": 151.636212,
            "velocity": 0.1732283464566929
          },
          {
            "duration": 0.36363600000001384,
            "durationTicks": 384,
            "midi": 46,
            "name": "A#2",
            "ticks": 160128,
            "time": 151.636212,
            "velocity": 0.1732283464566929
          },
          {
            "duration": 0.36363600000001384,
            "durationTicks": 384,
            "midi": 54,
            "name": "F#3",
            "ticks": 160128,
            "time": 151.636212,
            "velocity": 0.1732283464566929
          },
          {
            "duration": 0.36363600000001384,
            "durationTicks": 384,
            "midi": 44,
            "name": "G#2",
            "ticks": 160320,
            "time": 151.81803,
            "velocity": 0.1732283464566929
          },
          {
            "duration": 0.36363600000001384,
            "durationTicks": 384,
            "midi": 53,
            "name": "F3",
            "ticks": 160320,
            "time": 151.81803,
            "velocity": 0.1732283464566929
          },
          {
            "duration": 0.36363600000001384,
            "durationTicks": 384,
            "midi": 56,
            "name": "G#3",
            "ticks": 160320,
            "time": 151.81803,
            "velocity": 0.1732283464566929
          },
          {
            "duration": 0.3636359999999854,
            "durationTicks": 384,
            "midi": 54,
            "name": "F#3",
            "ticks": 160512,
            "time": 151.99984800000001,
            "velocity": 0.1732283464566929
          },
          {
            "duration": 0.3636359999999854,
            "durationTicks": 384,
            "midi": 51,
            "name": "D#3",
            "ticks": 160512,
            "time": 151.99984800000001,
            "velocity": 0.1732283464566929
          },
          {
            "duration": 0.3636359999999854,
            "durationTicks": 384,
            "midi": 42,
            "name": "F#2",
            "ticks": 160512,
            "time": 151.99984800000001,
            "velocity": 0.1732283464566929
          },
          {
            "duration": 0.36363600000001384,
            "durationTicks": 384,
            "midi": 44,
            "name": "G#2",
            "ticks": 161088,
            "time": 152.545302,
            "velocity": 0.1732283464566929
          },
          {
            "duration": 0.36363600000001384,
            "durationTicks": 384,
            "midi": 54,
            "name": "F#3",
            "ticks": 161088,
            "time": 152.545302,
            "velocity": 0.1732283464566929
          },
          {
            "duration": 0.36363600000001384,
            "durationTicks": 384,
            "midi": 56,
            "name": "G#3",
            "ticks": 161088,
            "time": 152.545302,
            "velocity": 0.1732283464566929
          },
          {
            "duration": 0.36363600000001384,
            "durationTicks": 384,
            "midi": 54,
            "name": "F#3",
            "ticks": 161472,
            "time": 152.908938,
            "velocity": 0.1732283464566929
          },
          {
            "duration": 0.36363600000001384,
            "durationTicks": 384,
            "midi": 42,
            "name": "F#2",
            "ticks": 161472,
            "time": 152.908938,
            "velocity": 0.1732283464566929
          },
          {
            "duration": 0.36363600000001384,
            "durationTicks": 384,
            "midi": 51,
            "name": "D#3",
            "ticks": 161472,
            "time": 152.908938,
            "velocity": 0.1732283464566929
          },
          {
            "duration": 0.36363600000001384,
            "durationTicks": 384,
            "midi": 54,
            "name": "F#3",
            "ticks": 161664,
            "time": 153.090756,
            "velocity": 0.1732283464566929
          },
          {
            "duration": 0.36363600000001384,
            "durationTicks": 384,
            "midi": 44,
            "name": "G#2",
            "ticks": 161664,
            "time": 153.090756,
            "velocity": 0.1732283464566929
          },
          {
            "duration": 0.36363600000001384,
            "durationTicks": 384,
            "midi": 56,
            "name": "G#3",
            "ticks": 161664,
            "time": 153.090756,
            "velocity": 0.1732283464566929
          },
          {
            "duration": 0.3636359999999854,
            "durationTicks": 384,
            "midi": 54,
            "name": "F#3",
            "ticks": 161856,
            "time": 153.27257400000002,
            "velocity": 0.1732283464566929
          },
          {
            "duration": 0.3636359999999854,
            "durationTicks": 384,
            "midi": 51,
            "name": "D#3",
            "ticks": 161856,
            "time": 153.27257400000002,
            "velocity": 0.1732283464566929
          },
          {
            "duration": 0.3636359999999854,
            "durationTicks": 384,
            "midi": 42,
            "name": "F#2",
            "ticks": 161856,
            "time": 153.27257400000002,
            "velocity": 0.1732283464566929
          },
          {
            "duration": 0.3636359999999854,
            "durationTicks": 384,
            "midi": 54,
            "name": "F#3",
            "ticks": 162048,
            "time": 153.454392,
            "velocity": 0.1732283464566929
          },
          {
            "duration": 0.3636359999999854,
            "durationTicks": 384,
            "midi": 44,
            "name": "G#2",
            "ticks": 162048,
            "time": 153.454392,
            "velocity": 0.1732283464566929
          },
          {
            "duration": 0.3636359999999854,
            "durationTicks": 384,
            "midi": 56,
            "name": "G#3",
            "ticks": 162048,
            "time": 153.454392,
            "velocity": 0.1732283464566929
          },
          {
            "duration": 0.36363600000001384,
            "durationTicks": 384,
            "midi": 46,
            "name": "A#2",
            "ticks": 162432,
            "time": 153.818028,
            "velocity": 0.1732283464566929
          },
          {
            "duration": 0.36363600000001384,
            "durationTicks": 384,
            "midi": 54,
            "name": "F#3",
            "ticks": 162432,
            "time": 153.818028,
            "velocity": 0.1732283464566929
          },
          {
            "duration": 0.36363600000001384,
            "durationTicks": 384,
            "midi": 58,
            "name": "A#3",
            "ticks": 162432,
            "time": 153.818028,
            "velocity": 0.1732283464566929
          },
          {
            "duration": 0.3636359999999854,
            "durationTicks": 384,
            "midi": 49,
            "name": "C#3",
            "ticks": 162816,
            "time": 154.181664,
            "velocity": 0.1732283464566929
          },
          {
            "duration": 0.3636359999999854,
            "durationTicks": 384,
            "midi": 58,
            "name": "A#3",
            "ticks": 162816,
            "time": 154.181664,
            "velocity": 0.1732283464566929
          },
          {
            "duration": 0.3636359999999854,
            "durationTicks": 384,
            "midi": 61,
            "name": "C#4",
            "ticks": 162816,
            "time": 154.181664,
            "velocity": 0.1732283464566929
          },
          {
            "duration": 0.36363600000001384,
            "durationTicks": 384,
            "midi": 47,
            "name": "B2",
            "ticks": 163200,
            "time": 154.5453,
            "velocity": 0.1732283464566929
          },
          {
            "duration": 0.36363600000001384,
            "durationTicks": 384,
            "midi": 59,
            "name": "B3",
            "ticks": 163200,
            "time": 154.5453,
            "velocity": 0.1732283464566929
          },
          {
            "duration": 0.36363600000001384,
            "durationTicks": 384,
            "midi": 56,
            "name": "G#3",
            "ticks": 163200,
            "time": 154.5453,
            "velocity": 0.1732283464566929
          },
          {
            "duration": 0.3636359999999854,
            "durationTicks": 384,
            "midi": 54,
            "name": "F#3",
            "ticks": 163392,
            "time": 154.72711800000002,
            "velocity": 0.1732283464566929
          },
          {
            "duration": 0.3636359999999854,
            "durationTicks": 384,
            "midi": 58,
            "name": "A#3",
            "ticks": 163392,
            "time": 154.72711800000002,
            "velocity": 0.1732283464566929
          },
          {
            "duration": 0.3636359999999854,
            "durationTicks": 384,
            "midi": 46,
            "name": "A#2",
            "ticks": 163392,
            "time": 154.72711800000002,
            "velocity": 0.1732283464566929
          },
          {
            "duration": 0.3636359999999854,
            "durationTicks": 384,
            "midi": 51,
            "name": "D#3",
            "ticks": 163584,
            "time": 154.908936,
            "velocity": 0.1732283464566929
          },
          {
            "duration": 0.3636359999999854,
            "durationTicks": 384,
            "midi": 54,
            "name": "F#3",
            "ticks": 163584,
            "time": 154.908936,
            "velocity": 0.1732283464566929
          },
          {
            "duration": 0.3636359999999854,
            "durationTicks": 384,
            "midi": 42,
            "name": "F#2",
            "ticks": 163584,
            "time": 154.908936,
            "velocity": 0.1732283464566929
          },
          {
            "duration": 0.36363600000001384,
            "durationTicks": 384,
            "midi": 54,
            "name": "F#3",
            "ticks": 163968,
            "time": 155.272572,
            "velocity": 0.1732283464566929
          },
          {
            "duration": 0.36363600000001384,
            "durationTicks": 384,
            "midi": 42,
            "name": "F#2",
            "ticks": 163968,
            "time": 155.272572,
            "velocity": 0.1732283464566929
          },
          {
            "duration": 0.3636359999999854,
            "durationTicks": 384,
            "midi": 56,
            "name": "G#3",
            "ticks": 164160,
            "time": 155.45439000000002,
            "velocity": 0.1732283464566929
          },
          {
            "duration": 0.3636359999999854,
            "durationTicks": 384,
            "midi": 44,
            "name": "G#2",
            "ticks": 164160,
            "time": 155.45439000000002,
            "velocity": 0.1732283464566929
          },
          {
            "duration": 0.3636359999999854,
            "durationTicks": 384,
            "midi": 47,
            "name": "B2",
            "ticks": 164160,
            "time": 155.45439000000002,
            "velocity": 0.1732283464566929
          },
          {
            "duration": 0.36363600000001384,
            "durationTicks": 384,
            "midi": 44,
            "name": "G#2",
            "ticks": 164544,
            "time": 155.818026,
            "velocity": 0.1732283464566929
          },
          {
            "duration": 0.36363600000001384,
            "durationTicks": 384,
            "midi": 56,
            "name": "G#3",
            "ticks": 164544,
            "time": 155.818026,
            "velocity": 0.1732283464566929
          },
          {
            "duration": 0.36363600000001384,
            "durationTicks": 384,
            "midi": 47,
            "name": "B2",
            "ticks": 164544,
            "time": 155.818026,
            "velocity": 0.1732283464566929
          },
          {
            "duration": 0.36363600000001384,
            "durationTicks": 384,
            "midi": 58,
            "name": "A#3",
            "ticks": 164736,
            "time": 155.999844,
            "velocity": 0.1732283464566929
          },
          {
            "duration": 0.36363600000001384,
            "durationTicks": 384,
            "midi": 54,
            "name": "F#3",
            "ticks": 164736,
            "time": 155.999844,
            "velocity": 0.1732283464566929
          },
          {
            "duration": 0.36363600000001384,
            "durationTicks": 384,
            "midi": 46,
            "name": "A#2",
            "ticks": 164736,
            "time": 155.999844,
            "velocity": 0.1732283464566929
          },
          {
            "duration": 0.7272719999999993,
            "durationTicks": 768,
            "midi": 39,
            "name": "D#2",
            "ticks": 165120,
            "time": 156.36348,
            "velocity": 0.1732283464566929
          },
          {
            "duration": 0.3636359999999854,
            "durationTicks": 384,
            "midi": 56,
            "name": "G#3",
            "ticks": 165120,
            "time": 156.36348,
            "velocity": 0.1732283464566929
          },
          {
            "duration": 0.3636359999999854,
            "durationTicks": 384,
            "midi": 47,
            "name": "B2",
            "ticks": 165120,
            "time": 156.36348,
            "velocity": 0.1732283464566929
          },
          {
            "duration": 0.3636359999999854,
            "durationTicks": 384,
            "midi": 44,
            "name": "G#2",
            "ticks": 165120,
            "time": 156.36348,
            "velocity": 0.1732283464566929
          },
          {
            "duration": 0.36363600000001384,
            "durationTicks": 384,
            "midi": 42,
            "name": "F#2",
            "ticks": 165504,
            "time": 156.727116,
            "velocity": 0.1732283464566929
          },
          {
            "duration": 0.36363600000001384,
            "durationTicks": 384,
            "midi": 51,
            "name": "D#3",
            "ticks": 165504,
            "time": 156.727116,
            "velocity": 0.1732283464566929
          },
          {
            "duration": 0.36363600000001384,
            "durationTicks": 384,
            "midi": 54,
            "name": "F#3",
            "ticks": 165504,
            "time": 156.727116,
            "velocity": 0.1732283464566929
          },
          {
            "duration": 0.3636359999999854,
            "durationTicks": 384,
            "midi": 49,
            "name": "C#3",
            "ticks": 165888,
            "time": 157.090752,
            "velocity": 0.1732283464566929
          },
          {
            "duration": 0.3636359999999854,
            "durationTicks": 384,
            "midi": 61,
            "name": "C#4",
            "ticks": 165888,
            "time": 157.090752,
            "velocity": 0.1732283464566929
          },
          {
            "duration": 0.3636359999999854,
            "durationTicks": 384,
            "midi": 54,
            "name": "F#3",
            "ticks": 165888,
            "time": 157.090752,
            "velocity": 0.1732283464566929
          },
          {
            "duration": 0.36363600000001384,
            "durationTicks": 384,
            "midi": 61,
            "name": "C#4",
            "ticks": 166272,
            "time": 157.454388,
            "velocity": 0.1732283464566929
          },
          {
            "duration": 0.36363600000001384,
            "durationTicks": 384,
            "midi": 58,
            "name": "A#3",
            "ticks": 166272,
            "time": 157.454388,
            "velocity": 0.1732283464566929
          },
          {
            "duration": 0.36363600000001384,
            "durationTicks": 384,
            "midi": 70,
            "name": "A#4",
            "ticks": 166272,
            "time": 157.454388,
            "velocity": 0.1732283464566929
          },
          {
            "duration": 0.3636359999999854,
            "durationTicks": 384,
            "midi": 59,
            "name": "B3",
            "ticks": 166464,
            "time": 157.63620600000002,
            "velocity": 0.1732283464566929
          },
          {
            "duration": 0.3636359999999854,
            "durationTicks": 384,
            "midi": 68,
            "name": "G#4",
            "ticks": 166464,
            "time": 157.63620600000002,
            "velocity": 0.1732283464566929
          },
          {
            "duration": 0.3636359999999854,
            "durationTicks": 384,
            "midi": 56,
            "name": "G#3",
            "ticks": 166464,
            "time": 157.63620600000002,
            "velocity": 0.1732283464566929
          },
          {
            "duration": 0.3636359999999854,
            "durationTicks": 384,
            "midi": 54,
            "name": "F#3",
            "ticks": 166656,
            "time": 157.818024,
            "velocity": 0.1732283464566929
          },
          {
            "duration": 0.3636359999999854,
            "durationTicks": 384,
            "midi": 58,
            "name": "A#3",
            "ticks": 166656,
            "time": 157.818024,
            "velocity": 0.1732283464566929
          },
          {
            "duration": 0.3636359999999854,
            "durationTicks": 384,
            "midi": 66,
            "name": "F#4",
            "ticks": 166656,
            "time": 157.818024,
            "velocity": 0.1732283464566929
          },
          {
            "duration": 0.3636359999999854,
            "durationTicks": 384,
            "midi": 56,
            "name": "G#3",
            "ticks": 167232,
            "time": 158.36347800000001,
            "velocity": 0.1732283464566929
          },
          {
            "duration": 0.3636359999999854,
            "durationTicks": 384,
            "midi": 66,
            "name": "F#4",
            "ticks": 167232,
            "time": 158.36347800000001,
            "velocity": 0.1732283464566929
          },
          {
            "duration": 0.3636359999999854,
            "durationTicks": 384,
            "midi": 68,
            "name": "G#4",
            "ticks": 167232,
            "time": 158.36347800000001,
            "velocity": 0.1732283464566929
          },
          {
            "duration": 0.36363600000001384,
            "durationTicks": 384,
            "midi": 66,
            "name": "F#4",
            "ticks": 167616,
            "time": 158.727114,
            "velocity": 0.1732283464566929
          },
          {
            "duration": 0.36363600000001384,
            "durationTicks": 384,
            "midi": 63,
            "name": "D#4",
            "ticks": 167616,
            "time": 158.727114,
            "velocity": 0.1732283464566929
          },
          {
            "duration": 0.36363600000001384,
            "durationTicks": 384,
            "midi": 54,
            "name": "F#3",
            "ticks": 167616,
            "time": 158.727114,
            "velocity": 0.1732283464566929
          },
          {
            "duration": 0.36363600000001384,
            "durationTicks": 384,
            "midi": 56,
            "name": "G#3",
            "ticks": 167808,
            "time": 158.908932,
            "velocity": 0.1732283464566929
          },
          {
            "duration": 0.36363600000001384,
            "durationTicks": 384,
            "midi": 68,
            "name": "G#4",
            "ticks": 167808,
            "time": 158.908932,
            "velocity": 0.1732283464566929
          },
          {
            "duration": 0.36363600000001384,
            "durationTicks": 384,
            "midi": 66,
            "name": "F#4",
            "ticks": 167808,
            "time": 158.908932,
            "velocity": 0.1732283464566929
          },
          {
            "duration": 0.3636359999999854,
            "durationTicks": 384,
            "midi": 63,
            "name": "D#4",
            "ticks": 168000,
            "time": 159.09075,
            "velocity": 0.1732283464566929
          },
          {
            "duration": 0.3636359999999854,
            "durationTicks": 384,
            "midi": 54,
            "name": "F#3",
            "ticks": 168000,
            "time": 159.09075,
            "velocity": 0.1732283464566929
          },
          {
            "duration": 0.3636359999999854,
            "durationTicks": 384,
            "midi": 66,
            "name": "F#4",
            "ticks": 168000,
            "time": 159.09075,
            "velocity": 0.1732283464566929
          },
          {
            "duration": 0.36363600000001384,
            "durationTicks": 384,
            "midi": 68,
            "name": "G#4",
            "ticks": 168192,
            "time": 159.272568,
            "velocity": 0.1732283464566929
          },
          {
            "duration": 0.36363600000001384,
            "durationTicks": 384,
            "midi": 66,
            "name": "F#4",
            "ticks": 168192,
            "time": 159.272568,
            "velocity": 0.1732283464566929
          },
          {
            "duration": 0.36363600000001384,
            "durationTicks": 384,
            "midi": 56,
            "name": "G#3",
            "ticks": 168192,
            "time": 159.272568,
            "velocity": 0.1732283464566929
          },
          {
            "duration": 0.3636359999999854,
            "durationTicks": 384,
            "midi": 70,
            "name": "A#4",
            "ticks": 168576,
            "time": 159.63620400000002,
            "velocity": 0.1732283464566929
          },
          {
            "duration": 0.3636359999999854,
            "durationTicks": 384,
            "midi": 58,
            "name": "A#3",
            "ticks": 168576,
            "time": 159.63620400000002,
            "velocity": 0.1732283464566929
          },
          {
            "duration": 0.3636359999999854,
            "durationTicks": 384,
            "midi": 66,
            "name": "F#4",
            "ticks": 168576,
            "time": 159.63620400000002,
            "velocity": 0.1732283464566929
          },
          {
            "duration": 0.36363600000001384,
            "durationTicks": 384,
            "midi": 51,
            "name": "D#3",
            "ticks": 168960,
            "time": 159.99984,
            "velocity": 0.1732283464566929
          },
          {
            "duration": 0.36363600000001384,
            "durationTicks": 384,
            "midi": 63,
            "name": "D#4",
            "ticks": 168960,
            "time": 159.99984,
            "velocity": 0.1732283464566929
          },
          {
            "duration": 0.36363600000001384,
            "durationTicks": 384,
            "midi": 54,
            "name": "F#3",
            "ticks": 168960,
            "time": 159.99984,
            "velocity": 0.1732283464566929
          },
          {
            "duration": 0.3636359999999854,
            "durationTicks": 384,
            "midi": 70,
            "name": "A#4",
            "ticks": 169344,
            "time": 160.36347600000002,
            "velocity": 0.1732283464566929
          },
          {
            "duration": 0.3636359999999854,
            "durationTicks": 384,
            "midi": 66,
            "name": "F#4",
            "ticks": 169344,
            "time": 160.36347600000002,
            "velocity": 0.1732283464566929
          },
          {
            "duration": 0.3636359999999854,
            "durationTicks": 384,
            "midi": 58,
            "name": "A#3",
            "ticks": 169344,
            "time": 160.36347600000002,
            "velocity": 0.1732283464566929
          },
          {
            "duration": 0.3636359999999854,
            "durationTicks": 384,
            "midi": 56,
            "name": "G#3",
            "ticks": 169536,
            "time": 160.545294,
            "velocity": 0.1732283464566929
          },
          {
            "duration": 0.3636359999999854,
            "durationTicks": 384,
            "midi": 68,
            "name": "G#4",
            "ticks": 169536,
            "time": 160.545294,
            "velocity": 0.1732283464566929
          },
          {
            "duration": 0.3636359999999854,
            "durationTicks": 384,
            "midi": 65,
            "name": "F4",
            "ticks": 169536,
            "time": 160.545294,
            "velocity": 0.1732283464566929
          },
          {
            "duration": 0.36363600000001384,
            "durationTicks": 384,
            "midi": 63,
            "name": "D#4",
            "ticks": 169728,
            "time": 160.727112,
            "velocity": 0.1732283464566929
          },
          {
            "duration": 0.36363600000001384,
            "durationTicks": 384,
            "midi": 54,
            "name": "F#3",
            "ticks": 169728,
            "time": 160.727112,
            "velocity": 0.1732283464566929
          },
          {
            "duration": 0.36363600000001384,
            "durationTicks": 384,
            "midi": 66,
            "name": "F#4",
            "ticks": 169728,
            "time": 160.727112,
            "velocity": 0.1732283464566929
          },
          {
            "duration": 0.3636359999999854,
            "durationTicks": 384,
            "midi": 66,
            "name": "F#4",
            "ticks": 170112,
            "time": 161.09074800000002,
            "velocity": 0.1732283464566929
          },
          {
            "duration": 0.3636359999999854,
            "durationTicks": 384,
            "midi": 54,
            "name": "F#3",
            "ticks": 170112,
            "time": 161.09074800000002,
            "velocity": 0.1732283464566929
          },
          {
            "duration": 0.3636359999999854,
            "durationTicks": 384,
            "midi": 59,
            "name": "B3",
            "ticks": 170304,
            "time": 161.272566,
            "velocity": 0.1732283464566929
          },
          {
            "duration": 0.3636359999999854,
            "durationTicks": 384,
            "midi": 68,
            "name": "G#4",
            "ticks": 170304,
            "time": 161.272566,
            "velocity": 0.1732283464566929
          },
          {
            "duration": 0.3636359999999854,
            "durationTicks": 384,
            "midi": 56,
            "name": "G#3",
            "ticks": 170304,
            "time": 161.272566,
            "velocity": 0.1732283464566929
          },
          {
            "duration": 0.36363600000001384,
            "durationTicks": 384,
            "midi": 58,
            "name": "A#3",
            "ticks": 170688,
            "time": 161.636202,
            "velocity": 0.1732283464566929
          },
          {
            "duration": 0.36363600000001384,
            "durationTicks": 384,
            "midi": 66,
            "name": "F#4",
            "ticks": 170688,
            "time": 161.636202,
            "velocity": 0.1732283464566929
          },
          {
            "duration": 0.36363600000001384,
            "durationTicks": 384,
            "midi": 54,
            "name": "F#3",
            "ticks": 170688,
            "time": 161.636202,
            "velocity": 0.1732283464566929
          },
          {
            "duration": 0.3636359999999854,
            "durationTicks": 384,
            "midi": 59,
            "name": "B3",
            "ticks": 170880,
            "time": 161.81802000000002,
            "velocity": 0.1732283464566929
          },
          {
            "duration": 0.3636359999999854,
            "durationTicks": 384,
            "midi": 68,
            "name": "G#4",
            "ticks": 170880,
            "time": 161.81802000000002,
            "velocity": 0.1732283464566929
          },
          {
            "duration": 0.3636359999999854,
            "durationTicks": 384,
            "midi": 56,
            "name": "G#3",
            "ticks": 170880,
            "time": 161.81802000000002,
            "velocity": 0.1732283464566929
          },
          {
            "duration": 0.3636359999999854,
            "durationTicks": 384,
            "midi": 66,
            "name": "F#4",
            "ticks": 171072,
            "time": 161.999838,
            "velocity": 0.1732283464566929
          },
          {
            "duration": 0.3636359999999854,
            "durationTicks": 384,
            "midi": 70,
            "name": "A#4",
            "ticks": 171072,
            "time": 161.999838,
            "velocity": 0.1732283464566929
          },
          {
            "duration": 0.3636359999999854,
            "durationTicks": 384,
            "midi": 58,
            "name": "A#3",
            "ticks": 171072,
            "time": 161.999838,
            "velocity": 0.1732283464566929
          },
          {
            "duration": 0.36363600000001384,
            "durationTicks": 384,
            "midi": 65,
            "name": "F4",
            "ticks": 171264,
            "time": 162.181656,
            "velocity": 0.1732283464566929
          },
          {
            "duration": 0.36363600000001384,
            "durationTicks": 384,
            "midi": 68,
            "name": "G#4",
            "ticks": 171264,
            "time": 162.181656,
            "velocity": 0.1732283464566929
          },
          {
            "duration": 0.36363600000001384,
            "durationTicks": 384,
            "midi": 56,
            "name": "G#3",
            "ticks": 171264,
            "time": 162.181656,
            "velocity": 0.1732283464566929
          },
          {
            "duration": 0.3636359999999854,
            "durationTicks": 384,
            "midi": 54,
            "name": "F#3",
            "ticks": 171648,
            "time": 162.54529200000002,
            "velocity": 0.1732283464566929
          },
          {
            "duration": 0.3636359999999854,
            "durationTicks": 384,
            "midi": 66,
            "name": "F#4",
            "ticks": 171648,
            "time": 162.54529200000002,
            "velocity": 0.1732283464566929
          },
          {
            "duration": 0.3636359999999854,
            "durationTicks": 384,
            "midi": 63,
            "name": "D#4",
            "ticks": 171648,
            "time": 162.54529200000002,
            "velocity": 0.1732283464566929
          },
          {
            "duration": 0.36363600000001384,
            "durationTicks": 384,
            "midi": 49,
            "name": "C#3",
            "ticks": 172032,
            "time": 162.908928,
            "velocity": 0.1732283464566929
          },
          {
            "duration": 0.36363600000001384,
            "durationTicks": 384,
            "midi": 58,
            "name": "A#3",
            "ticks": 172032,
            "time": 162.908928,
            "velocity": 0.1732283464566929
          },
          {
            "duration": 0.36363600000001384,
            "durationTicks": 384,
            "midi": 61,
            "name": "C#4",
            "ticks": 172032,
            "time": 162.908928,
            "velocity": 0.1732283464566929
          },
          {
            "duration": 0.3636359999999854,
            "durationTicks": 384,
            "midi": 66,
            "name": "F#4",
            "ticks": 172416,
            "time": 163.27256400000002,
            "velocity": 0.1732283464566929
          },
          {
            "duration": 0.3636359999999854,
            "durationTicks": 384,
            "midi": 58,
            "name": "A#3",
            "ticks": 172416,
            "time": 163.27256400000002,
            "velocity": 0.1732283464566929
          },
          {
            "duration": 0.3636359999999854,
            "durationTicks": 384,
            "midi": 70,
            "name": "A#4",
            "ticks": 172416,
            "time": 163.27256400000002,
            "velocity": 0.1732283464566929
          },
          {
            "duration": 0.3636359999999854,
            "durationTicks": 384,
            "midi": 65,
            "name": "F4",
            "ticks": 172608,
            "time": 163.454382,
            "velocity": 0.1732283464566929
          },
          {
            "duration": 0.3636359999999854,
            "durationTicks": 384,
            "midi": 68,
            "name": "G#4",
            "ticks": 172608,
            "time": 163.454382,
            "velocity": 0.1732283464566929
          },
          {
            "duration": 0.3636359999999854,
            "durationTicks": 384,
            "midi": 56,
            "name": "G#3",
            "ticks": 172608,
            "time": 163.454382,
            "velocity": 0.1732283464566929
          },
          {
            "duration": 0.36363600000001384,
            "durationTicks": 384,
            "midi": 63,
            "name": "D#4",
            "ticks": 172800,
            "time": 163.6362,
            "velocity": 0.1732283464566929
          },
          {
            "duration": 0.36363600000001384,
            "durationTicks": 384,
            "midi": 54,
            "name": "F#3",
            "ticks": 172800,
            "time": 163.6362,
            "velocity": 0.1732283464566929
          },
          {
            "duration": 0.36363600000001384,
            "durationTicks": 384,
            "midi": 66,
            "name": "F#4",
            "ticks": 172800,
            "time": 163.6362,
            "velocity": 0.1732283464566929
          },
          {
            "duration": 0.3636359999999854,
            "durationTicks": 384,
            "midi": 68,
            "name": "G#4",
            "ticks": 173376,
            "time": 164.181654,
            "velocity": 0.1732283464566929
          },
          {
            "duration": 0.3636359999999854,
            "durationTicks": 384,
            "midi": 66,
            "name": "F#4",
            "ticks": 173376,
            "time": 164.181654,
            "velocity": 0.1732283464566929
          },
          {
            "duration": 0.3636359999999854,
            "durationTicks": 384,
            "midi": 56,
            "name": "G#3",
            "ticks": 173376,
            "time": 164.181654,
            "velocity": 0.1732283464566929
          },
          {
            "duration": 0.36363600000001384,
            "durationTicks": 384,
            "midi": 66,
            "name": "F#4",
            "ticks": 173760,
            "time": 164.54529,
            "velocity": 0.1732283464566929
          },
          {
            "duration": 0.36363600000001384,
            "durationTicks": 384,
            "midi": 54,
            "name": "F#3",
            "ticks": 173760,
            "time": 164.54529,
            "velocity": 0.1732283464566929
          },
          {
            "duration": 0.36363600000001384,
            "durationTicks": 384,
            "midi": 63,
            "name": "D#4",
            "ticks": 173760,
            "time": 164.54529,
            "velocity": 0.1732283464566929
          },
          {
            "duration": 0.3636359999999854,
            "durationTicks": 384,
            "midi": 66,
            "name": "F#4",
            "ticks": 173952,
            "time": 164.72710800000002,
            "velocity": 0.1732283464566929
          },
          {
            "duration": 0.3636359999999854,
            "durationTicks": 384,
            "midi": 56,
            "name": "G#3",
            "ticks": 173952,
            "time": 164.72710800000002,
            "velocity": 0.1732283464566929
          },
          {
            "duration": 0.3636359999999854,
            "durationTicks": 384,
            "midi": 68,
            "name": "G#4",
            "ticks": 173952,
            "time": 164.72710800000002,
            "velocity": 0.1732283464566929
          },
          {
            "duration": 0.3636359999999854,
            "durationTicks": 384,
            "midi": 66,
            "name": "F#4",
            "ticks": 174144,
            "time": 164.908926,
            "velocity": 0.1732283464566929
          },
          {
            "duration": 0.3636359999999854,
            "durationTicks": 384,
            "midi": 54,
            "name": "F#3",
            "ticks": 174144,
            "time": 164.908926,
            "velocity": 0.1732283464566929
          },
          {
            "duration": 0.3636359999999854,
            "durationTicks": 384,
            "midi": 63,
            "name": "D#4",
            "ticks": 174144,
            "time": 164.908926,
            "velocity": 0.1732283464566929
          },
          {
            "duration": 0.36363600000001384,
            "durationTicks": 384,
            "midi": 56,
            "name": "G#3",
            "ticks": 174336,
            "time": 165.090744,
            "velocity": 0.1732283464566929
          },
          {
            "duration": 0.36363600000001384,
            "durationTicks": 384,
            "midi": 68,
            "name": "G#4",
            "ticks": 174336,
            "time": 165.090744,
            "velocity": 0.1732283464566929
          },
          {
            "duration": 0.36363600000001384,
            "durationTicks": 384,
            "midi": 66,
            "name": "F#4",
            "ticks": 174336,
            "time": 165.090744,
            "velocity": 0.1732283464566929
          },
          {
            "duration": 0.3636359999999854,
            "durationTicks": 384,
            "midi": 58,
            "name": "A#3",
            "ticks": 174720,
            "time": 165.45438000000001,
            "velocity": 0.1732283464566929
          },
          {
            "duration": 0.3636359999999854,
            "durationTicks": 384,
            "midi": 70,
            "name": "A#4",
            "ticks": 174720,
            "time": 165.45438000000001,
            "velocity": 0.1732283464566929
          },
          {
            "duration": 0.3636359999999854,
            "durationTicks": 384,
            "midi": 66,
            "name": "F#4",
            "ticks": 174720,
            "time": 165.45438000000001,
            "velocity": 0.1732283464566929
          },
          {
            "duration": 0.36363600000001384,
            "durationTicks": 384,
            "midi": 70,
            "name": "A#4",
            "ticks": 175104,
            "time": 165.818016,
            "velocity": 0.1732283464566929
          },
          {
            "duration": 0.36363600000001384,
            "durationTicks": 384,
            "midi": 61,
            "name": "C#4",
            "ticks": 175104,
            "time": 165.818016,
            "velocity": 0.1732283464566929
          },
          {
            "duration": 0.36363600000001384,
            "durationTicks": 384,
            "midi": 61,
            "name": "C#4",
            "ticks": 175104,
            "time": 165.818016,
            "velocity": 0.1732283464566929
          },
          {
            "duration": 0.3636359999999854,
            "durationTicks": 384,
            "midi": 59,
            "name": "B3",
            "ticks": 175488,
            "time": 166.181652,
            "velocity": 0.1732283464566929
          },
          {
            "duration": 0.3636359999999854,
            "durationTicks": 384,
            "midi": 71,
            "name": "B4",
            "ticks": 175488,
            "time": 166.181652,
            "velocity": 0.1732283464566929
          },
          {
            "duration": 0.3636359999999854,
            "durationTicks": 384,
            "midi": 68,
            "name": "G#4",
            "ticks": 175488,
            "time": 166.181652,
            "velocity": 0.1732283464566929
          },
          {
            "duration": 0.36363600000001384,
            "durationTicks": 384,
            "midi": 66,
            "name": "F#4",
            "ticks": 175680,
            "time": 166.36347,
            "velocity": 0.1732283464566929
          },
          {
            "duration": 0.36363600000001384,
            "durationTicks": 384,
            "midi": 58,
            "name": "A#3",
            "ticks": 175680,
            "time": 166.36347,
            "velocity": 0.1732283464566929
          },
          {
            "duration": 0.36363600000001384,
            "durationTicks": 384,
            "midi": 70,
            "name": "A#4",
            "ticks": 175680,
            "time": 166.36347,
            "velocity": 0.1732283464566929
          },
          {
            "duration": 0.36363600000001384,
            "durationTicks": 384,
            "midi": 66,
            "name": "F#4",
            "ticks": 175872,
            "time": 166.545288,
            "velocity": 0.1732283464566929
          },
          {
            "duration": 0.36363600000001384,
            "durationTicks": 384,
            "midi": 63,
            "name": "D#4",
            "ticks": 175872,
            "time": 166.545288,
            "velocity": 0.1732283464566929
          },
          {
            "duration": 0.36363600000001384,
            "durationTicks": 384,
            "midi": 54,
            "name": "F#3",
            "ticks": 175872,
            "time": 166.545288,
            "velocity": 0.1732283464566929
          },
          {
            "duration": 0.3636359999999854,
            "durationTicks": 384,
            "midi": 54,
            "name": "F#3",
            "ticks": 176256,
            "time": 166.908924,
            "velocity": 0.1732283464566929
          },
          {
            "duration": 0.3636359999999854,
            "durationTicks": 384,
            "midi": 66,
            "name": "F#4",
            "ticks": 176256,
            "time": 166.908924,
            "velocity": 0.1732283464566929
          },
          {
            "duration": 0.36363600000001384,
            "durationTicks": 384,
            "midi": 59,
            "name": "B3",
            "ticks": 176448,
            "time": 167.090742,
            "velocity": 0.1732283464566929
          },
          {
            "duration": 0.36363600000001384,
            "durationTicks": 384,
            "midi": 56,
            "name": "G#3",
            "ticks": 176448,
            "time": 167.090742,
            "velocity": 0.1732283464566929
          },
          {
            "duration": 0.36363600000001384,
            "durationTicks": 384,
            "midi": 68,
            "name": "G#4",
            "ticks": 176448,
            "time": 167.090742,
            "velocity": 0.1732283464566929
          },
          {
            "duration": 0.3636359999999854,
            "durationTicks": 384,
            "midi": 56,
            "name": "G#3",
            "ticks": 176832,
            "time": 167.45437800000002,
            "velocity": 0.1732283464566929
          },
          {
            "duration": 0.3636359999999854,
            "durationTicks": 384,
            "midi": 59,
            "name": "B3",
            "ticks": 176832,
            "time": 167.45437800000002,
            "velocity": 0.1732283464566929
          },
          {
            "duration": 0.3636359999999854,
            "durationTicks": 384,
            "midi": 68,
            "name": "G#4",
            "ticks": 176832,
            "time": 167.45437800000002,
            "velocity": 0.1732283464566929
          },
          {
            "duration": 0.3636359999999854,
            "durationTicks": 384,
            "midi": 66,
            "name": "F#4",
            "ticks": 177024,
            "time": 167.636196,
            "velocity": 0.1732283464566929
          },
          {
            "duration": 0.3636359999999854,
            "durationTicks": 384,
            "midi": 58,
            "name": "A#3",
            "ticks": 177024,
            "time": 167.636196,
            "velocity": 0.1732283464566929
          },
          {
            "duration": 0.3636359999999854,
            "durationTicks": 384,
            "midi": 70,
            "name": "A#4",
            "ticks": 177024,
            "time": 167.636196,
            "velocity": 0.1732283464566929
          },
          {
            "duration": 0.36363600000001384,
            "durationTicks": 384,
            "midi": 56,
            "name": "G#3",
            "ticks": 177408,
            "time": 167.999832,
            "velocity": 0.1732283464566929
          },
          {
            "duration": 0.7272719999999993,
            "durationTicks": 768,
            "midi": 51,
            "name": "D#3",
            "ticks": 177408,
            "time": 167.999832,
            "velocity": 0.1732283464566929
          },
          {
            "duration": 0.36363600000001384,
            "durationTicks": 384,
            "midi": 59,
            "name": "B3",
            "ticks": 177408,
            "time": 167.999832,
            "velocity": 0.1732283464566929
          },
          {
            "duration": 0.36363600000001384,
            "durationTicks": 384,
            "midi": 68,
            "name": "G#4",
            "ticks": 177408,
            "time": 167.999832,
            "velocity": 0.1732283464566929
          },
          {
            "duration": 0.3636359999999854,
            "durationTicks": 384,
            "midi": 66,
            "name": "F#4",
            "ticks": 177792,
            "time": 168.363468,
            "velocity": 0.1732283464566929
          },
          {
            "duration": 0.3636359999999854,
            "durationTicks": 384,
            "midi": 63,
            "name": "D#4",
            "ticks": 177792,
            "time": 168.363468,
            "velocity": 0.1732283464566929
          },
          {
            "duration": 0.3636359999999854,
            "durationTicks": 384,
            "midi": 54,
            "name": "F#3",
            "ticks": 177792,
            "time": 168.363468,
            "velocity": 0.1732283464566929
          },
          {
            "duration": 1.909089000000023,
            "durationTicks": 2016,
            "midi": 46,
            "name": "A#2",
            "ticks": 178176,
            "time": 168.727104,
            "velocity": 0.1732283464566929
          }
        ],
        "endOfTrackTicks": 180192
      },
      {
        "channel": 6,
        "controlChanges": {},
        "pitchBends": [],
        "instrument": {
          "family": "strings",
          "number": 45,
          "name": "pizzicato strings"
        },
        "name": "Pizzicato",
        "notes": [
          {
            "duration": 1.4545439999999998,
            "durationTicks": 1536,
            "midi": 42,
            "name": "F#2",
            "ticks": 816,
            "time": 0.7727265,
            "velocity": 0.2125984251968504
          },
          {
            "duration": 1.4545440000000003,
            "durationTicks": 1536,
            "midi": 37,
            "name": "C#2",
            "ticks": 2352,
            "time": 2.2272705,
            "velocity": 0.2125984251968504
          },
          {
            "duration": 1.4545439999999998,
            "durationTicks": 1536,
            "midi": 39,
            "name": "D#2",
            "ticks": 3888,
            "time": 3.6818145,
            "velocity": 0.2125984251968504
          },
          {
            "duration": 1.4545440000000003,
            "durationTicks": 1536,
            "midi": 35,
            "name": "B1",
            "ticks": 5424,
            "time": 5.1363585,
            "velocity": 0.2125984251968504
          },
          {
            "duration": 1.4545440000000003,
            "durationTicks": 1536,
            "midi": 42,
            "name": "F#2",
            "ticks": 6960,
            "time": 6.5909025,
            "velocity": 0.2125984251968504
          },
          {
            "duration": 1.4545440000000003,
            "durationTicks": 1536,
            "midi": 54,
            "name": "F#3",
            "ticks": 6960,
            "time": 6.5909025,
            "velocity": 0.2125984251968504
          },
          {
            "duration": 1.4545440000000003,
            "durationTicks": 1536,
            "midi": 49,
            "name": "C#3",
            "ticks": 8496,
            "time": 8.0454465,
            "velocity": 0.2125984251968504
          },
          {
            "duration": 1.4545440000000003,
            "durationTicks": 1536,
            "midi": 37,
            "name": "C#2",
            "ticks": 8496,
            "time": 8.0454465,
            "velocity": 0.2125984251968504
          },
          {
            "duration": 1.4545440000000003,
            "durationTicks": 1536,
            "midi": 39,
            "name": "D#2",
            "ticks": 10032,
            "time": 9.499990500000001,
            "velocity": 0.2125984251968504
          },
          {
            "duration": 1.4545440000000003,
            "durationTicks": 1536,
            "midi": 51,
            "name": "D#3",
            "ticks": 10032,
            "time": 9.499990500000001,
            "velocity": 0.2125984251968504
          },
          {
            "duration": 0.0909089999999999,
            "durationTicks": 96,
            "midi": 35,
            "name": "B1",
            "ticks": 11568,
            "time": 10.954534500000001,
            "velocity": 0.2125984251968504
          },
          {
            "duration": 0.0909089999999999,
            "durationTicks": 96,
            "midi": 47,
            "name": "B2",
            "ticks": 11568,
            "time": 10.954534500000001,
            "velocity": 0.2125984251968504
          },
          {
            "duration": 0.0909089999999999,
            "durationTicks": 96,
            "midi": 35,
            "name": "B1",
            "ticks": 11952,
            "time": 11.3181705,
            "velocity": 0.2125984251968504
          },
          {
            "duration": 0.0909089999999999,
            "durationTicks": 96,
            "midi": 47,
            "name": "B2",
            "ticks": 11952,
            "time": 11.3181705,
            "velocity": 0.2125984251968504
          },
          {
            "duration": 0.0909089999999999,
            "durationTicks": 96,
            "midi": 47,
            "name": "B2",
            "ticks": 12336,
            "time": 11.6818065,
            "velocity": 0.2125984251968504
          },
          {
            "duration": 0.0909089999999999,
            "durationTicks": 96,
            "midi": 35,
            "name": "B1",
            "ticks": 12336,
            "time": 11.6818065,
            "velocity": 0.2125984251968504
          },
          {
            "duration": 0.0909089999999999,
            "durationTicks": 96,
            "midi": 47,
            "name": "B2",
            "ticks": 12720,
            "time": 12.0454425,
            "velocity": 0.2125984251968504
          },
          {
            "duration": 0.0909089999999999,
            "durationTicks": 96,
            "midi": 35,
            "name": "B1",
            "ticks": 12720,
            "time": 12.0454425,
            "velocity": 0.2125984251968504
          },
          {
            "duration": 0.3636360000000014,
            "durationTicks": 384,
            "midi": 42,
            "name": "F#2",
            "ticks": 13104,
            "time": 12.4090785,
            "velocity": 0.2125984251968504
          },
          {
            "duration": 0.3636360000000014,
            "durationTicks": 384,
            "midi": 30,
            "name": "F#1",
            "ticks": 13104,
            "time": 12.4090785,
            "velocity": 0.2125984251968504
          },
          {
            "duration": 0.3636359999999996,
            "durationTicks": 384,
            "midi": 42,
            "name": "F#2",
            "ticks": 13488,
            "time": 12.772714500000001,
            "velocity": 0.2125984251968504
          },
          {
            "duration": 0.3636359999999996,
            "durationTicks": 384,
            "midi": 30,
            "name": "F#1",
            "ticks": 13488,
            "time": 12.772714500000001,
            "velocity": 0.2125984251968504
          },
          {
            "duration": 0.3636359999999996,
            "durationTicks": 384,
            "midi": 42,
            "name": "F#2",
            "ticks": 13872,
            "time": 13.1363505,
            "velocity": 0.2125984251968504
          },
          {
            "duration": 0.3636359999999996,
            "durationTicks": 384,
            "midi": 30,
            "name": "F#1",
            "ticks": 13872,
            "time": 13.1363505,
            "velocity": 0.2125984251968504
          },
          {
            "duration": 0.3636359999999996,
            "durationTicks": 384,
            "midi": 42,
            "name": "F#2",
            "ticks": 14256,
            "time": 13.4999865,
            "velocity": 0.2125984251968504
          },
          {
            "duration": 0.3636359999999996,
            "durationTicks": 384,
            "midi": 30,
            "name": "F#1",
            "ticks": 14256,
            "time": 13.4999865,
            "velocity": 0.2125984251968504
          },
          {
            "duration": 0.3636360000000014,
            "durationTicks": 384,
            "midi": 42,
            "name": "F#2",
            "ticks": 14640,
            "time": 13.8636225,
            "velocity": 0.2125984251968504
          },
          {
            "duration": 0.3636360000000014,
            "durationTicks": 384,
            "midi": 30,
            "name": "F#1",
            "ticks": 14640,
            "time": 13.8636225,
            "velocity": 0.2125984251968504
          },
          {
            "duration": 0.3636359999999996,
            "durationTicks": 384,
            "midi": 42,
            "name": "F#2",
            "ticks": 15024,
            "time": 14.227258500000001,
            "velocity": 0.2125984251968504
          },
          {
            "duration": 0.3636359999999996,
            "durationTicks": 384,
            "midi": 30,
            "name": "F#1",
            "ticks": 15024,
            "time": 14.227258500000001,
            "velocity": 0.2125984251968504
          },
          {
            "duration": 0.0909089999999999,
            "durationTicks": 96,
            "midi": 42,
            "name": "F#2",
            "ticks": 16176,
            "time": 15.3181665,
            "velocity": 0.2125984251968504
          },
          {
            "duration": 0.0909089999999999,
            "durationTicks": 96,
            "midi": 54,
            "name": "F#3",
            "ticks": 16368,
            "time": 15.4999845,
            "velocity": 0.2125984251968504
          },
          {
            "duration": 0.0909089999999999,
            "durationTicks": 96,
            "midi": 42,
            "name": "F#2",
            "ticks": 16560,
            "time": 15.6818025,
            "velocity": 0.2125984251968504
          },
          {
            "duration": 0.0909089999999999,
            "durationTicks": 96,
            "midi": 54,
            "name": "F#3",
            "ticks": 16752,
            "time": 15.863620500000001,
            "velocity": 0.2125984251968504
          },
          {
            "duration": 0.0909089999999999,
            "durationTicks": 96,
            "midi": 42,
            "name": "F#2",
            "ticks": 16944,
            "time": 16.0454385,
            "velocity": 0.2125984251968504
          },
          {
            "duration": 0.0909089999999999,
            "durationTicks": 96,
            "midi": 54,
            "name": "F#3",
            "ticks": 17136,
            "time": 16.2272565,
            "velocity": 0.2125984251968504
          },
          {
            "duration": 0.0909089999999999,
            "durationTicks": 96,
            "midi": 42,
            "name": "F#2",
            "ticks": 17328,
            "time": 16.4090745,
            "velocity": 0.2125984251968504
          },
          {
            "duration": 0.09090900000000346,
            "durationTicks": 96,
            "midi": 54,
            "name": "F#3",
            "ticks": 17520,
            "time": 16.5908925,
            "velocity": 0.2125984251968504
          },
          {
            "duration": 0.0909089999999999,
            "durationTicks": 96,
            "midi": 37,
            "name": "C#2",
            "ticks": 17712,
            "time": 16.772710500000002,
            "velocity": 0.2125984251968504
          },
          {
            "duration": 0.0909089999999999,
            "durationTicks": 96,
            "midi": 49,
            "name": "C#3",
            "ticks": 17904,
            "time": 16.954528500000002,
            "velocity": 0.2125984251968504
          },
          {
            "duration": 0.0909089999999999,
            "durationTicks": 96,
            "midi": 37,
            "name": "C#2",
            "ticks": 18096,
            "time": 17.136346500000002,
            "velocity": 0.2125984251968504
          },
          {
            "duration": 0.0909089999999999,
            "durationTicks": 96,
            "midi": 49,
            "name": "C#3",
            "ticks": 18288,
            "time": 17.3181645,
            "velocity": 0.2125984251968504
          },
          {
            "duration": 0.0909089999999999,
            "durationTicks": 96,
            "midi": 37,
            "name": "C#2",
            "ticks": 18480,
            "time": 17.4999825,
            "velocity": 0.2125984251968504
          },
          {
            "duration": 0.0909089999999999,
            "durationTicks": 96,
            "midi": 49,
            "name": "C#3",
            "ticks": 18672,
            "time": 17.6818005,
            "velocity": 0.2125984251968504
          },
          {
            "duration": 0.0909089999999999,
            "durationTicks": 96,
            "midi": 37,
            "name": "C#2",
            "ticks": 18864,
            "time": 17.8636185,
            "velocity": 0.2125984251968504
          },
          {
            "duration": 0.0909089999999999,
            "durationTicks": 96,
            "midi": 49,
            "name": "C#3",
            "ticks": 19056,
            "time": 18.0454365,
            "velocity": 0.2125984251968504
          },
          {
            "duration": 0.0909089999999999,
            "durationTicks": 96,
            "midi": 39,
            "name": "D#2",
            "ticks": 19248,
            "time": 18.2272545,
            "velocity": 0.2125984251968504
          },
          {
            "duration": 0.0909089999999999,
            "durationTicks": 96,
            "midi": 51,
            "name": "D#3",
            "ticks": 19440,
            "time": 18.4090725,
            "velocity": 0.2125984251968504
          },
          {
            "duration": 0.0909089999999999,
            "durationTicks": 96,
            "midi": 39,
            "name": "D#2",
            "ticks": 19632,
            "time": 18.5908905,
            "velocity": 0.2125984251968504
          },
          {
            "duration": 0.0909089999999999,
            "durationTicks": 96,
            "midi": 51,
            "name": "D#3",
            "ticks": 19824,
            "time": 18.7727085,
            "velocity": 0.2125984251968504
          },
          {
            "duration": 0.0909089999999999,
            "durationTicks": 96,
            "midi": 39,
            "name": "D#2",
            "ticks": 20016,
            "time": 18.9545265,
            "velocity": 0.2125984251968504
          },
          {
            "duration": 0.0909089999999999,
            "durationTicks": 96,
            "midi": 51,
            "name": "D#3",
            "ticks": 20208,
            "time": 19.1363445,
            "velocity": 0.2125984251968504
          },
          {
            "duration": 0.0909089999999999,
            "durationTicks": 96,
            "midi": 39,
            "name": "D#2",
            "ticks": 20400,
            "time": 19.3181625,
            "velocity": 0.2125984251968504
          },
          {
            "duration": 0.0909089999999999,
            "durationTicks": 96,
            "midi": 51,
            "name": "D#3",
            "ticks": 20592,
            "time": 19.4999805,
            "velocity": 0.2125984251968504
          },
          {
            "duration": 0.0909089999999999,
            "durationTicks": 96,
            "midi": 35,
            "name": "B1",
            "ticks": 20784,
            "time": 19.6817985,
            "velocity": 0.2125984251968504
          },
          {
            "duration": 0.09090900000000346,
            "durationTicks": 96,
            "midi": 47,
            "name": "B2",
            "ticks": 20976,
            "time": 19.8636165,
            "velocity": 0.2125984251968504
          },
          {
            "duration": 0.0909089999999999,
            "durationTicks": 96,
            "midi": 35,
            "name": "B1",
            "ticks": 21168,
            "time": 20.045434500000002,
            "velocity": 0.2125984251968504
          },
          {
            "duration": 0.0909089999999999,
            "durationTicks": 96,
            "midi": 47,
            "name": "B2",
            "ticks": 21360,
            "time": 20.227252500000002,
            "velocity": 0.2125984251968504
          },
          {
            "duration": 0.0909089999999999,
            "durationTicks": 96,
            "midi": 35,
            "name": "B1",
            "ticks": 21552,
            "time": 20.409070500000002,
            "velocity": 0.2125984251968504
          },
          {
            "duration": 0.0909089999999999,
            "durationTicks": 96,
            "midi": 47,
            "name": "B2",
            "ticks": 21744,
            "time": 20.590888500000002,
            "velocity": 0.2125984251968504
          },
          {
            "duration": 0.0909089999999999,
            "durationTicks": 96,
            "midi": 35,
            "name": "B1",
            "ticks": 21936,
            "time": 20.7727065,
            "velocity": 0.2125984251968504
          },
          {
            "duration": 0.0909089999999999,
            "durationTicks": 96,
            "midi": 47,
            "name": "B2",
            "ticks": 22128,
            "time": 20.9545245,
            "velocity": 0.2125984251968504
          },
          {
            "duration": 0.0909089999999999,
            "durationTicks": 96,
            "midi": 42,
            "name": "F#2",
            "ticks": 22320,
            "time": 21.1363425,
            "velocity": 0.2125984251968504
          },
          {
            "duration": 0.0909089999999999,
            "durationTicks": 96,
            "midi": 54,
            "name": "F#3",
            "ticks": 22512,
            "time": 21.3181605,
            "velocity": 0.2125984251968504
          },
          {
            "duration": 0.0909089999999999,
            "durationTicks": 96,
            "midi": 42,
            "name": "F#2",
            "ticks": 22704,
            "time": 21.4999785,
            "velocity": 0.2125984251968504
          },
          {
            "duration": 0.0909089999999999,
            "durationTicks": 96,
            "midi": 54,
            "name": "F#3",
            "ticks": 22896,
            "time": 21.6817965,
            "velocity": 0.2125984251968504
          },
          {
            "duration": 0.0909089999999999,
            "durationTicks": 96,
            "midi": 42,
            "name": "F#2",
            "ticks": 23088,
            "time": 21.8636145,
            "velocity": 0.2125984251968504
          },
          {
            "duration": 0.0909089999999999,
            "durationTicks": 96,
            "midi": 54,
            "name": "F#3",
            "ticks": 23280,
            "time": 22.0454325,
            "velocity": 0.2125984251968504
          },
          {
            "duration": 0.0909089999999999,
            "durationTicks": 96,
            "midi": 42,
            "name": "F#2",
            "ticks": 23472,
            "time": 22.2272505,
            "velocity": 0.2125984251968504
          },
          {
            "duration": 0.0909089999999999,
            "durationTicks": 96,
            "midi": 54,
            "name": "F#3",
            "ticks": 23664,
            "time": 22.4090685,
            "velocity": 0.2125984251968504
          },
          {
            "duration": 0.0909089999999999,
            "durationTicks": 96,
            "midi": 37,
            "name": "C#2",
            "ticks": 23856,
            "time": 22.5908865,
            "velocity": 0.2125984251968504
          },
          {
            "duration": 0.0909089999999999,
            "durationTicks": 96,
            "midi": 49,
            "name": "C#3",
            "ticks": 24048,
            "time": 22.7727045,
            "velocity": 0.2125984251968504
          },
          {
            "duration": 0.0909089999999999,
            "durationTicks": 96,
            "midi": 37,
            "name": "C#2",
            "ticks": 24240,
            "time": 22.9545225,
            "velocity": 0.2125984251968504
          },
          {
            "duration": 0.0909089999999999,
            "durationTicks": 96,
            "midi": 49,
            "name": "C#3",
            "ticks": 24432,
            "time": 23.1363405,
            "velocity": 0.2125984251968504
          },
          {
            "duration": 0.0909089999999999,
            "durationTicks": 96,
            "midi": 37,
            "name": "C#2",
            "ticks": 24624,
            "time": 23.318158500000003,
            "velocity": 0.2125984251968504
          },
          {
            "duration": 0.0909089999999999,
            "durationTicks": 96,
            "midi": 49,
            "name": "C#3",
            "ticks": 24816,
            "time": 23.499976500000002,
            "velocity": 0.2125984251968504
          },
          {
            "duration": 0.0909089999999999,
            "durationTicks": 96,
            "midi": 37,
            "name": "C#2",
            "ticks": 25008,
            "time": 23.681794500000002,
            "velocity": 0.2125984251968504
          },
          {
            "duration": 0.0909089999999999,
            "durationTicks": 96,
            "midi": 49,
            "name": "C#3",
            "ticks": 25200,
            "time": 23.863612500000002,
            "velocity": 0.2125984251968504
          },
          {
            "duration": 0.0909089999999999,
            "durationTicks": 96,
            "midi": 39,
            "name": "D#2",
            "ticks": 25392,
            "time": 24.045430500000002,
            "velocity": 0.2125984251968504
          },
          {
            "duration": 0.0909089999999999,
            "durationTicks": 96,
            "midi": 51,
            "name": "D#3",
            "ticks": 25584,
            "time": 24.2272485,
            "velocity": 0.2125984251968504
          },
          {
            "duration": 0.0909089999999999,
            "durationTicks": 96,
            "midi": 39,
            "name": "D#2",
            "ticks": 25776,
            "time": 24.4090665,
            "velocity": 0.2125984251968504
          },
          {
            "duration": 0.0909089999999999,
            "durationTicks": 96,
            "midi": 51,
            "name": "D#3",
            "ticks": 25968,
            "time": 24.5908845,
            "velocity": 0.2125984251968504
          },
          {
            "duration": 0.0909089999999999,
            "durationTicks": 96,
            "midi": 39,
            "name": "D#2",
            "ticks": 26160,
            "time": 24.7727025,
            "velocity": 0.2125984251968504
          },
          {
            "duration": 0.0909089999999999,
            "durationTicks": 96,
            "midi": 51,
            "name": "D#3",
            "ticks": 26352,
            "time": 24.9545205,
            "velocity": 0.2125984251968504
          },
          {
            "duration": 0.0909089999999999,
            "durationTicks": 96,
            "midi": 39,
            "name": "D#2",
            "ticks": 26544,
            "time": 25.1363385,
            "velocity": 0.2125984251968504
          },
          {
            "duration": 0.0909089999999999,
            "durationTicks": 96,
            "midi": 51,
            "name": "D#3",
            "ticks": 26736,
            "time": 25.3181565,
            "velocity": 0.2125984251968504
          },
          {
            "duration": 0.0909089999999999,
            "durationTicks": 96,
            "midi": 35,
            "name": "B1",
            "ticks": 26928,
            "time": 25.4999745,
            "velocity": 0.2125984251968504
          },
          {
            "duration": 0.0909089999999999,
            "durationTicks": 96,
            "midi": 47,
            "name": "B2",
            "ticks": 27120,
            "time": 25.6817925,
            "velocity": 0.2125984251968504
          },
          {
            "duration": 0.0909089999999999,
            "durationTicks": 96,
            "midi": 35,
            "name": "B1",
            "ticks": 27312,
            "time": 25.8636105,
            "velocity": 0.2125984251968504
          },
          {
            "duration": 0.0909089999999999,
            "durationTicks": 96,
            "midi": 47,
            "name": "B2",
            "ticks": 27504,
            "time": 26.0454285,
            "velocity": 0.2125984251968504
          },
          {
            "duration": 0.0909089999999999,
            "durationTicks": 96,
            "midi": 35,
            "name": "B1",
            "ticks": 27696,
            "time": 26.2272465,
            "velocity": 0.2125984251968504
          },
          {
            "duration": 0.0909089999999999,
            "durationTicks": 96,
            "midi": 47,
            "name": "B2",
            "ticks": 27888,
            "time": 26.4090645,
            "velocity": 0.2125984251968504
          },
          {
            "duration": 0.09090900000000346,
            "durationTicks": 96,
            "midi": 35,
            "name": "B1",
            "ticks": 28080,
            "time": 26.5908825,
            "velocity": 0.2125984251968504
          },
          {
            "duration": 0.0909089999999999,
            "durationTicks": 96,
            "midi": 47,
            "name": "B2",
            "ticks": 28272,
            "time": 26.772700500000003,
            "velocity": 0.2125984251968504
          },
          {
            "duration": 0.0909089999999999,
            "durationTicks": 96,
            "midi": 42,
            "name": "F#2",
            "ticks": 28464,
            "time": 26.954518500000002,
            "velocity": 0.2125984251968504
          },
          {
            "duration": 0.0909089999999999,
            "durationTicks": 96,
            "midi": 54,
            "name": "F#3",
            "ticks": 28656,
            "time": 27.136336500000002,
            "velocity": 0.2125984251968504
          },
          {
            "duration": 0.0909089999999999,
            "durationTicks": 96,
            "midi": 42,
            "name": "F#2",
            "ticks": 28848,
            "time": 27.318154500000002,
            "velocity": 0.2125984251968504
          },
          {
            "duration": 0.0909089999999999,
            "durationTicks": 96,
            "midi": 54,
            "name": "F#3",
            "ticks": 29040,
            "time": 27.499972500000002,
            "velocity": 0.2125984251968504
          },
          {
            "duration": 0.0909089999999999,
            "durationTicks": 96,
            "midi": 42,
            "name": "F#2",
            "ticks": 29232,
            "time": 27.6817905,
            "velocity": 0.2125984251968504
          },
          {
            "duration": 0.0909089999999999,
            "durationTicks": 96,
            "midi": 54,
            "name": "F#3",
            "ticks": 29424,
            "time": 27.8636085,
            "velocity": 0.2125984251968504
          },
          {
            "duration": 0.0909089999999999,
            "durationTicks": 96,
            "midi": 42,
            "name": "F#2",
            "ticks": 29616,
            "time": 28.0454265,
            "velocity": 0.2125984251968504
          },
          {
            "duration": 0.0909089999999999,
            "durationTicks": 96,
            "midi": 54,
            "name": "F#3",
            "ticks": 29808,
            "time": 28.2272445,
            "velocity": 0.2125984251968504
          },
          {
            "duration": 0.0909089999999999,
            "durationTicks": 96,
            "midi": 42,
            "name": "F#2",
            "ticks": 30000,
            "time": 28.4090625,
            "velocity": 0.2125984251968504
          },
          {
            "duration": 0.0909089999999999,
            "durationTicks": 96,
            "midi": 54,
            "name": "F#3",
            "ticks": 30192,
            "time": 28.5908805,
            "velocity": 0.2125984251968504
          },
          {
            "duration": 0.0909089999999999,
            "durationTicks": 96,
            "midi": 42,
            "name": "F#2",
            "ticks": 30384,
            "time": 28.7726985,
            "velocity": 0.2125984251968504
          },
          {
            "duration": 0.0909089999999999,
            "durationTicks": 96,
            "midi": 54,
            "name": "F#3",
            "ticks": 30576,
            "time": 28.9545165,
            "velocity": 0.2125984251968504
          },
          {
            "duration": 0.0909089999999999,
            "durationTicks": 96,
            "midi": 42,
            "name": "F#2",
            "ticks": 30768,
            "time": 29.1363345,
            "velocity": 0.2125984251968504
          },
          {
            "duration": 0.0909089999999999,
            "durationTicks": 96,
            "midi": 54,
            "name": "F#3",
            "ticks": 30960,
            "time": 29.3181525,
            "velocity": 0.2125984251968504
          },
          {
            "duration": 0.0909089999999999,
            "durationTicks": 96,
            "midi": 42,
            "name": "F#2",
            "ticks": 31152,
            "time": 29.4999705,
            "velocity": 0.2125984251968504
          },
          {
            "duration": 0.09090900000000346,
            "durationTicks": 96,
            "midi": 42,
            "name": "F#2",
            "ticks": 31536,
            "time": 29.8636065,
            "velocity": 0.2125984251968504
          },
          {
            "duration": 0.0909089999999999,
            "durationTicks": 96,
            "midi": 54,
            "name": "F#3",
            "ticks": 31728,
            "time": 30.045424500000003,
            "velocity": 0.2125984251968504
          },
          {
            "duration": 0.0909089999999999,
            "durationTicks": 96,
            "midi": 42,
            "name": "F#2",
            "ticks": 31920,
            "time": 30.227242500000003,
            "velocity": 0.2125984251968504
          },
          {
            "duration": 0.0909089999999999,
            "durationTicks": 96,
            "midi": 54,
            "name": "F#3",
            "ticks": 32112,
            "time": 30.409060500000002,
            "velocity": 0.2125984251968504
          },
          {
            "duration": 0.0909089999999999,
            "durationTicks": 96,
            "midi": 42,
            "name": "F#2",
            "ticks": 32304,
            "time": 30.590878500000002,
            "velocity": 0.2125984251968504
          },
          {
            "duration": 0.0909089999999999,
            "durationTicks": 96,
            "midi": 54,
            "name": "F#3",
            "ticks": 32496,
            "time": 30.772696500000002,
            "velocity": 0.2125984251968504
          },
          {
            "duration": 0.0909089999999999,
            "durationTicks": 96,
            "midi": 42,
            "name": "F#2",
            "ticks": 32688,
            "time": 30.954514500000002,
            "velocity": 0.2125984251968504
          },
          {
            "duration": 0.0909089999999999,
            "durationTicks": 96,
            "midi": 54,
            "name": "F#3",
            "ticks": 32880,
            "time": 31.1363325,
            "velocity": 0.2125984251968504
          },
          {
            "duration": 0.0909089999999999,
            "durationTicks": 96,
            "midi": 42,
            "name": "F#2",
            "ticks": 33072,
            "time": 31.3181505,
            "velocity": 0.2125984251968504
          },
          {
            "duration": 0.0909089999999999,
            "durationTicks": 96,
            "midi": 54,
            "name": "F#3",
            "ticks": 33264,
            "time": 31.4999685,
            "velocity": 0.2125984251968504
          },
          {
            "duration": 0.0909089999999999,
            "durationTicks": 96,
            "midi": 42,
            "name": "F#2",
            "ticks": 33456,
            "time": 31.6817865,
            "velocity": 0.2125984251968504
          },
          {
            "duration": 0.0909089999999999,
            "durationTicks": 96,
            "midi": 54,
            "name": "F#3",
            "ticks": 33648,
            "time": 31.8636045,
            "velocity": 0.2125984251968504
          },
          {
            "duration": 0.09090900000000346,
            "durationTicks": 96,
            "midi": 42,
            "name": "F#2",
            "ticks": 33840,
            "time": 32.0454225,
            "velocity": 0.2125984251968504
          },
          {
            "duration": 0.09090900000000346,
            "durationTicks": 96,
            "midi": 54,
            "name": "F#3",
            "ticks": 34032,
            "time": 32.2272405,
            "velocity": 0.2125984251968504
          },
          {
            "duration": 0.09090900000000346,
            "durationTicks": 96,
            "midi": 37,
            "name": "C#2",
            "ticks": 34224,
            "time": 32.4090585,
            "velocity": 0.2125984251968504
          },
          {
            "duration": 0.09090900000000346,
            "durationTicks": 96,
            "midi": 49,
            "name": "C#3",
            "ticks": 34416,
            "time": 32.5908765,
            "velocity": 0.2125984251968504
          },
          {
            "duration": 0.09090900000000346,
            "durationTicks": 96,
            "midi": 37,
            "name": "C#2",
            "ticks": 34608,
            "time": 32.7726945,
            "velocity": 0.2125984251968504
          },
          {
            "duration": 0.09090900000000346,
            "durationTicks": 96,
            "midi": 49,
            "name": "C#3",
            "ticks": 34800,
            "time": 32.9545125,
            "velocity": 0.2125984251968504
          },
          {
            "duration": 0.09090900000000346,
            "durationTicks": 96,
            "midi": 37,
            "name": "C#2",
            "ticks": 34992,
            "time": 33.1363305,
            "velocity": 0.2125984251968504
          },
          {
            "duration": 0.09090900000000346,
            "durationTicks": 96,
            "midi": 49,
            "name": "C#3",
            "ticks": 35184,
            "time": 33.3181485,
            "velocity": 0.2125984251968504
          },
          {
            "duration": 0.09090900000000346,
            "durationTicks": 96,
            "midi": 37,
            "name": "C#2",
            "ticks": 35376,
            "time": 33.4999665,
            "velocity": 0.2125984251968504
          },
          {
            "duration": 0.09090900000000346,
            "durationTicks": 96,
            "midi": 49,
            "name": "C#3",
            "ticks": 35568,
            "time": 33.6817845,
            "velocity": 0.2125984251968504
          },
          {
            "duration": 0.09090900000000346,
            "durationTicks": 96,
            "midi": 37,
            "name": "C#2",
            "ticks": 35760,
            "time": 33.8636025,
            "velocity": 0.2125984251968504
          },
          {
            "duration": 0.09090900000000346,
            "durationTicks": 96,
            "midi": 49,
            "name": "C#3",
            "ticks": 35952,
            "time": 34.0454205,
            "velocity": 0.2125984251968504
          },
          {
            "duration": 0.09090900000000346,
            "durationTicks": 96,
            "midi": 37,
            "name": "C#2",
            "ticks": 36144,
            "time": 34.2272385,
            "velocity": 0.2125984251968504
          },
          {
            "duration": 0.09090900000000346,
            "durationTicks": 96,
            "midi": 49,
            "name": "C#3",
            "ticks": 36336,
            "time": 34.4090565,
            "velocity": 0.2125984251968504
          },
          {
            "duration": 0.09090900000000346,
            "durationTicks": 96,
            "midi": 37,
            "name": "C#2",
            "ticks": 36528,
            "time": 34.5908745,
            "velocity": 0.2125984251968504
          },
          {
            "duration": 0.09090900000000346,
            "durationTicks": 96,
            "midi": 49,
            "name": "C#3",
            "ticks": 36720,
            "time": 34.7726925,
            "velocity": 0.2125984251968504
          },
          {
            "duration": 0.09090899999999635,
            "durationTicks": 96,
            "midi": 37,
            "name": "C#2",
            "ticks": 36912,
            "time": 34.954510500000005,
            "velocity": 0.2125984251968504
          },
          {
            "duration": 0.09090899999999635,
            "durationTicks": 96,
            "midi": 49,
            "name": "C#3",
            "ticks": 37104,
            "time": 35.136328500000005,
            "velocity": 0.2125984251968504
          },
          {
            "duration": 0.09090899999999635,
            "durationTicks": 96,
            "midi": 42,
            "name": "F#2",
            "ticks": 37296,
            "time": 35.318146500000005,
            "velocity": 0.2125984251968504
          },
          {
            "duration": 0.09090899999999635,
            "durationTicks": 96,
            "midi": 54,
            "name": "F#3",
            "ticks": 37488,
            "time": 35.499964500000004,
            "velocity": 0.2125984251968504
          },
          {
            "duration": 0.09090899999999635,
            "durationTicks": 96,
            "midi": 42,
            "name": "F#2",
            "ticks": 37680,
            "time": 35.681782500000004,
            "velocity": 0.2125984251968504
          },
          {
            "duration": 0.09090899999999635,
            "durationTicks": 96,
            "midi": 54,
            "name": "F#3",
            "ticks": 37872,
            "time": 35.863600500000004,
            "velocity": 0.2125984251968504
          },
          {
            "duration": 0.09090899999999635,
            "durationTicks": 96,
            "midi": 42,
            "name": "F#2",
            "ticks": 38064,
            "time": 36.045418500000004,
            "velocity": 0.2125984251968504
          },
          {
            "duration": 0.09090899999999635,
            "durationTicks": 96,
            "midi": 54,
            "name": "F#3",
            "ticks": 38256,
            "time": 36.227236500000004,
            "velocity": 0.2125984251968504
          },
          {
            "duration": 0.09090899999999635,
            "durationTicks": 96,
            "midi": 42,
            "name": "F#2",
            "ticks": 38448,
            "time": 36.4090545,
            "velocity": 0.2125984251968504
          },
          {
            "duration": 0.09090899999999635,
            "durationTicks": 96,
            "midi": 54,
            "name": "F#3",
            "ticks": 38640,
            "time": 36.5908725,
            "velocity": 0.2125984251968504
          },
          {
            "duration": 0.09090899999999635,
            "durationTicks": 96,
            "midi": 42,
            "name": "F#2",
            "ticks": 38832,
            "time": 36.7726905,
            "velocity": 0.2125984251968504
          },
          {
            "duration": 0.09090899999999635,
            "durationTicks": 96,
            "midi": 54,
            "name": "F#3",
            "ticks": 39024,
            "time": 36.9545085,
            "velocity": 0.2125984251968504
          },
          {
            "duration": 0.09090899999999635,
            "durationTicks": 96,
            "midi": 42,
            "name": "F#2",
            "ticks": 39216,
            "time": 37.1363265,
            "velocity": 0.2125984251968504
          },
          {
            "duration": 0.09090899999999635,
            "durationTicks": 96,
            "midi": 54,
            "name": "F#3",
            "ticks": 39408,
            "time": 37.3181445,
            "velocity": 0.2125984251968504
          },
          {
            "duration": 0.09090899999999635,
            "durationTicks": 96,
            "midi": 42,
            "name": "F#2",
            "ticks": 39600,
            "time": 37.4999625,
            "velocity": 0.2125984251968504
          },
          {
            "duration": 0.09090899999999635,
            "durationTicks": 96,
            "midi": 54,
            "name": "F#3",
            "ticks": 39792,
            "time": 37.6817805,
            "velocity": 0.2125984251968504
          },
          {
            "duration": 0.09090899999999635,
            "durationTicks": 96,
            "midi": 42,
            "name": "F#2",
            "ticks": 39984,
            "time": 37.8635985,
            "velocity": 0.2125984251968504
          },
          {
            "duration": 0.09090899999999635,
            "durationTicks": 96,
            "midi": 54,
            "name": "F#3",
            "ticks": 40176,
            "time": 38.0454165,
            "velocity": 0.2125984251968504
          },
          {
            "duration": 0.09090900000000346,
            "durationTicks": 96,
            "midi": 42,
            "name": "F#2",
            "ticks": 40368,
            "time": 38.2272345,
            "velocity": 0.2125984251968504
          },
          {
            "duration": 0.09090900000000346,
            "durationTicks": 96,
            "midi": 54,
            "name": "F#3",
            "ticks": 40560,
            "time": 38.4090525,
            "velocity": 0.2125984251968504
          },
          {
            "duration": 0.09090900000000346,
            "durationTicks": 96,
            "midi": 42,
            "name": "F#2",
            "ticks": 40752,
            "time": 38.5908705,
            "velocity": 0.2125984251968504
          },
          {
            "duration": 0.09090900000000346,
            "durationTicks": 96,
            "midi": 54,
            "name": "F#3",
            "ticks": 40944,
            "time": 38.7726885,
            "velocity": 0.2125984251968504
          },
          {
            "duration": 0.09090900000000346,
            "durationTicks": 96,
            "midi": 42,
            "name": "F#2",
            "ticks": 41136,
            "time": 38.9545065,
            "velocity": 0.2125984251968504
          },
          {
            "duration": 0.09090900000000346,
            "durationTicks": 96,
            "midi": 54,
            "name": "F#3",
            "ticks": 41328,
            "time": 39.1363245,
            "velocity": 0.2125984251968504
          },
          {
            "duration": 0.09090900000000346,
            "durationTicks": 96,
            "midi": 42,
            "name": "F#2",
            "ticks": 41520,
            "time": 39.3181425,
            "velocity": 0.2125984251968504
          },
          {
            "duration": 0.09090900000000346,
            "durationTicks": 96,
            "midi": 54,
            "name": "F#3",
            "ticks": 41712,
            "time": 39.4999605,
            "velocity": 0.2125984251968504
          },
          {
            "duration": 0.09090900000000346,
            "durationTicks": 96,
            "midi": 42,
            "name": "F#2",
            "ticks": 41904,
            "time": 39.6817785,
            "velocity": 0.2125984251968504
          },
          {
            "duration": 0.09090900000000346,
            "durationTicks": 96,
            "midi": 54,
            "name": "F#3",
            "ticks": 42096,
            "time": 39.8635965,
            "velocity": 0.2125984251968504
          },
          {
            "duration": 0.09090900000000346,
            "durationTicks": 96,
            "midi": 42,
            "name": "F#2",
            "ticks": 42288,
            "time": 40.0454145,
            "velocity": 0.2125984251968504
          },
          {
            "duration": 0.09090900000000346,
            "durationTicks": 96,
            "midi": 54,
            "name": "F#3",
            "ticks": 42480,
            "time": 40.2272325,
            "velocity": 0.2125984251968504
          },
          {
            "duration": 0.09090900000000346,
            "durationTicks": 96,
            "midi": 42,
            "name": "F#2",
            "ticks": 42672,
            "time": 40.4090505,
            "velocity": 0.2125984251968504
          },
          {
            "duration": 0.09090900000000346,
            "durationTicks": 96,
            "midi": 54,
            "name": "F#3",
            "ticks": 42864,
            "time": 40.5908685,
            "velocity": 0.2125984251968504
          },
          {
            "duration": 0.09090900000000346,
            "durationTicks": 96,
            "midi": 42,
            "name": "F#2",
            "ticks": 43056,
            "time": 40.7726865,
            "velocity": 0.2125984251968504
          },
          {
            "duration": 0.09090900000000346,
            "durationTicks": 96,
            "midi": 54,
            "name": "F#3",
            "ticks": 43248,
            "time": 40.9545045,
            "velocity": 0.2125984251968504
          },
          {
            "duration": 0.09090900000000346,
            "durationTicks": 96,
            "midi": 42,
            "name": "F#2",
            "ticks": 43440,
            "time": 41.1363225,
            "velocity": 0.2125984251968504
          },
          {
            "duration": 0.09090900000000346,
            "durationTicks": 96,
            "midi": 54,
            "name": "F#3",
            "ticks": 43632,
            "time": 41.3181405,
            "velocity": 0.2125984251968504
          },
          {
            "duration": 0.09090900000000346,
            "durationTicks": 96,
            "midi": 42,
            "name": "F#2",
            "ticks": 43824,
            "time": 41.4999585,
            "velocity": 0.2125984251968504
          },
          {
            "duration": 0.09090899999999635,
            "durationTicks": 96,
            "midi": 54,
            "name": "F#3",
            "ticks": 44016,
            "time": 41.681776500000005,
            "velocity": 0.2125984251968504
          },
          {
            "duration": 0.09090899999999635,
            "durationTicks": 96,
            "midi": 42,
            "name": "F#2",
            "ticks": 44208,
            "time": 41.863594500000005,
            "velocity": 0.2125984251968504
          },
          {
            "duration": 0.09090899999999635,
            "durationTicks": 96,
            "midi": 54,
            "name": "F#3",
            "ticks": 44400,
            "time": 42.045412500000005,
            "velocity": 0.2125984251968504
          },
          {
            "duration": 0.09090899999999635,
            "durationTicks": 96,
            "midi": 42,
            "name": "F#2",
            "ticks": 44592,
            "time": 42.227230500000005,
            "velocity": 0.2125984251968504
          },
          {
            "duration": 0.09090899999999635,
            "durationTicks": 96,
            "midi": 54,
            "name": "F#3",
            "ticks": 44784,
            "time": 42.409048500000004,
            "velocity": 0.2125984251968504
          },
          {
            "duration": 0.09090899999999635,
            "durationTicks": 96,
            "midi": 42,
            "name": "F#2",
            "ticks": 44976,
            "time": 42.590866500000004,
            "velocity": 0.2125984251968504
          },
          {
            "duration": 0.09090899999999635,
            "durationTicks": 96,
            "midi": 54,
            "name": "F#3",
            "ticks": 45168,
            "time": 42.772684500000004,
            "velocity": 0.2125984251968504
          },
          {
            "duration": 0.09090899999999635,
            "durationTicks": 96,
            "midi": 42,
            "name": "F#2",
            "ticks": 45360,
            "time": 42.954502500000004,
            "velocity": 0.2125984251968504
          },
          {
            "duration": 0.09090899999999635,
            "durationTicks": 96,
            "midi": 54,
            "name": "F#3",
            "ticks": 45552,
            "time": 43.136320500000004,
            "velocity": 0.2125984251968504
          },
          {
            "duration": 0.09090899999999635,
            "durationTicks": 96,
            "midi": 42,
            "name": "F#2",
            "ticks": 45744,
            "time": 43.3181385,
            "velocity": 0.2125984251968504
          },
          {
            "duration": 0.09090899999999635,
            "durationTicks": 96,
            "midi": 54,
            "name": "F#3",
            "ticks": 45936,
            "time": 43.4999565,
            "velocity": 0.2125984251968504
          },
          {
            "duration": 0.09090899999999635,
            "durationTicks": 96,
            "midi": 42,
            "name": "F#2",
            "ticks": 46128,
            "time": 43.6817745,
            "velocity": 0.2125984251968504
          },
          {
            "duration": 0.09090899999999635,
            "durationTicks": 96,
            "midi": 54,
            "name": "F#3",
            "ticks": 46320,
            "time": 43.8635925,
            "velocity": 0.2125984251968504
          },
          {
            "duration": 0.09090899999999635,
            "durationTicks": 96,
            "midi": 37,
            "name": "C#2",
            "ticks": 46512,
            "time": 44.0454105,
            "velocity": 0.2125984251968504
          },
          {
            "duration": 0.09090899999999635,
            "durationTicks": 96,
            "midi": 49,
            "name": "C#3",
            "ticks": 46704,
            "time": 44.2272285,
            "velocity": 0.2125984251968504
          },
          {
            "duration": 0.09090899999999635,
            "durationTicks": 96,
            "midi": 37,
            "name": "C#2",
            "ticks": 46896,
            "time": 44.4090465,
            "velocity": 0.2125984251968504
          },
          {
            "duration": 0.09090899999999635,
            "durationTicks": 96,
            "midi": 49,
            "name": "C#3",
            "ticks": 47088,
            "time": 44.5908645,
            "velocity": 0.2125984251968504
          },
          {
            "duration": 0.09090899999999635,
            "durationTicks": 96,
            "midi": 37,
            "name": "C#2",
            "ticks": 47280,
            "time": 44.7726825,
            "velocity": 0.2125984251968504
          },
          {
            "duration": 0.09090900000000346,
            "durationTicks": 96,
            "midi": 49,
            "name": "C#3",
            "ticks": 47472,
            "time": 44.9545005,
            "velocity": 0.2125984251968504
          },
          {
            "duration": 0.09090900000000346,
            "durationTicks": 96,
            "midi": 37,
            "name": "C#2",
            "ticks": 47664,
            "time": 45.1363185,
            "velocity": 0.2125984251968504
          },
          {
            "duration": 0.09090900000000346,
            "durationTicks": 96,
            "midi": 49,
            "name": "C#3",
            "ticks": 47856,
            "time": 45.3181365,
            "velocity": 0.2125984251968504
          },
          {
            "duration": 0.09090900000000346,
            "durationTicks": 96,
            "midi": 37,
            "name": "C#2",
            "ticks": 48048,
            "time": 45.4999545,
            "velocity": 0.2125984251968504
          },
          {
            "duration": 0.09090900000000346,
            "durationTicks": 96,
            "midi": 49,
            "name": "C#3",
            "ticks": 48240,
            "time": 45.6817725,
            "velocity": 0.2125984251968504
          },
          {
            "duration": 0.09090900000000346,
            "durationTicks": 96,
            "midi": 37,
            "name": "C#2",
            "ticks": 48432,
            "time": 45.8635905,
            "velocity": 0.2125984251968504
          },
          {
            "duration": 0.09090900000000346,
            "durationTicks": 96,
            "midi": 49,
            "name": "C#3",
            "ticks": 48624,
            "time": 46.0454085,
            "velocity": 0.2125984251968504
          },
          {
            "duration": 0.09090900000000346,
            "durationTicks": 96,
            "midi": 37,
            "name": "C#2",
            "ticks": 48816,
            "time": 46.2272265,
            "velocity": 0.2125984251968504
          },
          {
            "duration": 0.09090900000000346,
            "durationTicks": 96,
            "midi": 49,
            "name": "C#3",
            "ticks": 49008,
            "time": 46.4090445,
            "velocity": 0.2125984251968504
          },
          {
            "duration": 0.09090900000000346,
            "durationTicks": 96,
            "midi": 37,
            "name": "C#2",
            "ticks": 49200,
            "time": 46.5908625,
            "velocity": 0.2125984251968504
          },
          {
            "duration": 0.09090900000000346,
            "durationTicks": 96,
            "midi": 49,
            "name": "C#3",
            "ticks": 49392,
            "time": 46.7726805,
            "velocity": 0.2125984251968504
          },
          {
            "duration": 0.09090900000000346,
            "durationTicks": 96,
            "midi": 42,
            "name": "F#2",
            "ticks": 49584,
            "time": 46.9544985,
            "velocity": 0.2125984251968504
          },
          {
            "duration": 0.09090900000000346,
            "durationTicks": 96,
            "midi": 54,
            "name": "F#3",
            "ticks": 49776,
            "time": 47.1363165,
            "velocity": 0.2125984251968504
          },
          {
            "duration": 0.09090900000000346,
            "durationTicks": 96,
            "midi": 42,
            "name": "F#2",
            "ticks": 49968,
            "time": 47.3181345,
            "velocity": 0.2125984251968504
          },
          {
            "duration": 0.09090900000000346,
            "durationTicks": 96,
            "midi": 54,
            "name": "F#3",
            "ticks": 50160,
            "time": 47.4999525,
            "velocity": 0.2125984251968504
          },
          {
            "duration": 0.09090900000000346,
            "durationTicks": 96,
            "midi": 42,
            "name": "F#2",
            "ticks": 50352,
            "time": 47.6817705,
            "velocity": 0.2125984251968504
          },
          {
            "duration": 0.09090900000000346,
            "durationTicks": 96,
            "midi": 54,
            "name": "F#3",
            "ticks": 50544,
            "time": 47.8635885,
            "velocity": 0.2125984251968504
          },
          {
            "duration": 0.09090900000000346,
            "durationTicks": 96,
            "midi": 42,
            "name": "F#2",
            "ticks": 50736,
            "time": 48.0454065,
            "velocity": 0.2125984251968504
          },
          {
            "duration": 0.09090899999999635,
            "durationTicks": 96,
            "midi": 54,
            "name": "F#3",
            "ticks": 50928,
            "time": 48.227224500000005,
            "velocity": 0.2125984251968504
          },
          {
            "duration": 0.09090899999999635,
            "durationTicks": 96,
            "midi": 42,
            "name": "F#2",
            "ticks": 51120,
            "time": 48.409042500000005,
            "velocity": 0.2125984251968504
          },
          {
            "duration": 0.09090899999999635,
            "durationTicks": 96,
            "midi": 42,
            "name": "F#2",
            "ticks": 52656,
            "time": 49.863586500000004,
            "velocity": 0.2125984251968504
          },
          {
            "duration": 0.09090899999999635,
            "durationTicks": 96,
            "midi": 49,
            "name": "C#3",
            "ticks": 52848,
            "time": 50.045404500000004,
            "velocity": 0.2125984251968504
          },
          {
            "duration": 0.09090899999999635,
            "durationTicks": 96,
            "midi": 54,
            "name": "F#3",
            "ticks": 53040,
            "time": 50.2272225,
            "velocity": 0.2125984251968504
          },
          {
            "duration": 0.09090899999999635,
            "durationTicks": 96,
            "midi": 42,
            "name": "F#2",
            "ticks": 53232,
            "time": 50.4090405,
            "velocity": 0.2125984251968504
          },
          {
            "duration": 0.09090899999999635,
            "durationTicks": 96,
            "midi": 49,
            "name": "C#3",
            "ticks": 53424,
            "time": 50.5908585,
            "velocity": 0.2125984251968504
          },
          {
            "duration": 0.09090899999999635,
            "durationTicks": 96,
            "midi": 54,
            "name": "F#3",
            "ticks": 53616,
            "time": 50.7726765,
            "velocity": 0.2125984251968504
          },
          {
            "duration": 0.09090899999999635,
            "durationTicks": 96,
            "midi": 42,
            "name": "F#2",
            "ticks": 53808,
            "time": 50.9544945,
            "velocity": 0.2125984251968504
          },
          {
            "duration": 0.09090899999999635,
            "durationTicks": 96,
            "midi": 37,
            "name": "C#2",
            "ticks": 54000,
            "time": 51.1363125,
            "velocity": 0.2125984251968504
          },
          {
            "duration": 0.09090899999999635,
            "durationTicks": 96,
            "midi": 37,
            "name": "C#2",
            "ticks": 54000,
            "time": 51.1363125,
            "velocity": 0.2125984251968504
          },
          {
            "duration": 0.09090899999999635,
            "durationTicks": 96,
            "midi": 44,
            "name": "G#2",
            "ticks": 54192,
            "time": 51.3181305,
            "velocity": 0.2125984251968504
          },
          {
            "duration": 0.09090900000000346,
            "durationTicks": 96,
            "midi": 49,
            "name": "C#3",
            "ticks": 54384,
            "time": 51.4999485,
            "velocity": 0.2125984251968504
          },
          {
            "duration": 0.09090900000000346,
            "durationTicks": 96,
            "midi": 37,
            "name": "C#2",
            "ticks": 54576,
            "time": 51.6817665,
            "velocity": 0.2125984251968504
          },
          {
            "duration": 0.09090900000000346,
            "durationTicks": 96,
            "midi": 44,
            "name": "G#2",
            "ticks": 54768,
            "time": 51.8635845,
            "velocity": 0.2125984251968504
          },
          {
            "duration": 0.09090900000000346,
            "durationTicks": 96,
            "midi": 49,
            "name": "C#3",
            "ticks": 54960,
            "time": 52.0454025,
            "velocity": 0.2125984251968504
          },
          {
            "duration": 0.09090900000000346,
            "durationTicks": 96,
            "midi": 37,
            "name": "C#2",
            "ticks": 55152,
            "time": 52.2272205,
            "velocity": 0.2125984251968504
          },
          {
            "duration": 0.09090900000000346,
            "durationTicks": 96,
            "midi": 44,
            "name": "G#2",
            "ticks": 55344,
            "time": 52.4090385,
            "velocity": 0.2125984251968504
          },
          {
            "duration": 0.09090900000000346,
            "durationTicks": 96,
            "midi": 49,
            "name": "C#3",
            "ticks": 55536,
            "time": 52.5908565,
            "velocity": 0.2125984251968504
          },
          {
            "duration": 0.09090900000000346,
            "durationTicks": 96,
            "midi": 39,
            "name": "D#2",
            "ticks": 55728,
            "time": 52.7726745,
            "velocity": 0.2125984251968504
          },
          {
            "duration": 0.09090900000000346,
            "durationTicks": 96,
            "midi": 46,
            "name": "A#2",
            "ticks": 55920,
            "time": 52.9544925,
            "velocity": 0.2125984251968504
          },
          {
            "duration": 0.09090900000000346,
            "durationTicks": 96,
            "midi": 51,
            "name": "D#3",
            "ticks": 56112,
            "time": 53.1363105,
            "velocity": 0.2125984251968504
          },
          {
            "duration": 0.09090900000000346,
            "durationTicks": 96,
            "midi": 39,
            "name": "D#2",
            "ticks": 56304,
            "time": 53.3181285,
            "velocity": 0.2125984251968504
          },
          {
            "duration": 0.09090900000000346,
            "durationTicks": 96,
            "midi": 46,
            "name": "A#2",
            "ticks": 56496,
            "time": 53.4999465,
            "velocity": 0.2125984251968504
          },
          {
            "duration": 0.09090900000000346,
            "durationTicks": 96,
            "midi": 51,
            "name": "D#3",
            "ticks": 56688,
            "time": 53.6817645,
            "velocity": 0.2125984251968504
          },
          {
            "duration": 0.09090900000000346,
            "durationTicks": 96,
            "midi": 39,
            "name": "D#2",
            "ticks": 56880,
            "time": 53.8635825,
            "velocity": 0.2125984251968504
          },
          {
            "duration": 0.09090900000000346,
            "durationTicks": 96,
            "midi": 35,
            "name": "B1",
            "ticks": 57072,
            "time": 54.0454005,
            "velocity": 0.2125984251968504
          },
          {
            "duration": 0.09090900000000346,
            "durationTicks": 96,
            "midi": 42,
            "name": "F#2",
            "ticks": 57264,
            "time": 54.2272185,
            "velocity": 0.2125984251968504
          },
          {
            "duration": 0.09090900000000346,
            "durationTicks": 96,
            "midi": 47,
            "name": "B2",
            "ticks": 57456,
            "time": 54.4090365,
            "velocity": 0.2125984251968504
          },
          {
            "duration": 0.09090900000000346,
            "durationTicks": 96,
            "midi": 35,
            "name": "B1",
            "ticks": 57648,
            "time": 54.5908545,
            "velocity": 0.2125984251968504
          },
          {
            "duration": 0.09090900000000346,
            "durationTicks": 96,
            "midi": 42,
            "name": "F#2",
            "ticks": 57840,
            "time": 54.7726725,
            "velocity": 0.2125984251968504
          },
          {
            "duration": 0.09090899999999635,
            "durationTicks": 96,
            "midi": 47,
            "name": "B2",
            "ticks": 58032,
            "time": 54.954490500000006,
            "velocity": 0.2125984251968504
          },
          {
            "duration": 0.09090899999999635,
            "durationTicks": 96,
            "midi": 35,
            "name": "B1",
            "ticks": 58224,
            "time": 55.136308500000005,
            "velocity": 0.2125984251968504
          },
          {
            "duration": 0.09090899999999635,
            "durationTicks": 96,
            "midi": 42,
            "name": "F#2",
            "ticks": 58416,
            "time": 55.318126500000005,
            "velocity": 0.2125984251968504
          },
          {
            "duration": 0.09090899999999635,
            "durationTicks": 96,
            "midi": 47,
            "name": "B2",
            "ticks": 58608,
            "time": 55.499944500000005,
            "velocity": 0.2125984251968504
          },
          {
            "duration": 0.09090899999999635,
            "durationTicks": 96,
            "midi": 42,
            "name": "F#2",
            "ticks": 58800,
            "time": 55.681762500000005,
            "velocity": 0.2125984251968504
          },
          {
            "duration": 0.09090899999999635,
            "durationTicks": 96,
            "midi": 49,
            "name": "C#3",
            "ticks": 58992,
            "time": 55.863580500000005,
            "velocity": 0.2125984251968504
          },
          {
            "duration": 0.09090899999999635,
            "durationTicks": 96,
            "midi": 54,
            "name": "F#3",
            "ticks": 59184,
            "time": 56.045398500000005,
            "velocity": 0.2125984251968504
          },
          {
            "duration": 0.09090899999999635,
            "durationTicks": 96,
            "midi": 42,
            "name": "F#2",
            "ticks": 59376,
            "time": 56.227216500000004,
            "velocity": 0.2125984251968504
          },
          {
            "duration": 0.09090899999999635,
            "durationTicks": 96,
            "midi": 49,
            "name": "C#3",
            "ticks": 59568,
            "time": 56.409034500000004,
            "velocity": 0.2125984251968504
          },
          {
            "duration": 0.09090899999999635,
            "durationTicks": 96,
            "midi": 54,
            "name": "F#3",
            "ticks": 59760,
            "time": 56.590852500000004,
            "velocity": 0.2125984251968504
          },
          {
            "duration": 0.09090899999999635,
            "durationTicks": 96,
            "midi": 42,
            "name": "F#2",
            "ticks": 59952,
            "time": 56.772670500000004,
            "velocity": 0.2125984251968504
          },
          {
            "duration": 0.09090899999999635,
            "durationTicks": 96,
            "midi": 37,
            "name": "C#2",
            "ticks": 60144,
            "time": 56.954488500000004,
            "velocity": 0.2125984251968504
          },
          {
            "duration": 0.09090899999999635,
            "durationTicks": 96,
            "midi": 44,
            "name": "G#2",
            "ticks": 60336,
            "time": 57.1363065,
            "velocity": 0.2125984251968504
          },
          {
            "duration": 0.09090899999999635,
            "durationTicks": 96,
            "midi": 49,
            "name": "C#3",
            "ticks": 60528,
            "time": 57.3181245,
            "velocity": 0.2125984251968504
          },
          {
            "duration": 0.09090899999999635,
            "durationTicks": 96,
            "midi": 37,
            "name": "C#2",
            "ticks": 60720,
            "time": 57.4999425,
            "velocity": 0.2125984251968504
          },
          {
            "duration": 0.09090899999999635,
            "durationTicks": 96,
            "midi": 44,
            "name": "G#2",
            "ticks": 60912,
            "time": 57.6817605,
            "velocity": 0.2125984251968504
          },
          {
            "duration": 0.09090899999999635,
            "durationTicks": 96,
            "midi": 49,
            "name": "C#3",
            "ticks": 61104,
            "time": 57.8635785,
            "velocity": 0.2125984251968504
          },
          {
            "duration": 0.09090899999999635,
            "durationTicks": 96,
            "midi": 37,
            "name": "C#2",
            "ticks": 61296,
            "time": 58.0453965,
            "velocity": 0.2125984251968504
          },
          {
            "duration": 0.09090900000000346,
            "durationTicks": 96,
            "midi": 44,
            "name": "G#2",
            "ticks": 61488,
            "time": 58.2272145,
            "velocity": 0.2125984251968504
          },
          {
            "duration": 0.09090900000000346,
            "durationTicks": 96,
            "midi": 49,
            "name": "C#3",
            "ticks": 61680,
            "time": 58.4090325,
            "velocity": 0.2125984251968504
          },
          {
            "duration": 0.09090900000000346,
            "durationTicks": 96,
            "midi": 39,
            "name": "D#2",
            "ticks": 61872,
            "time": 58.5908505,
            "velocity": 0.2125984251968504
          },
          {
            "duration": 0.09090900000000346,
            "durationTicks": 96,
            "midi": 46,
            "name": "A#2",
            "ticks": 62064,
            "time": 58.7726685,
            "velocity": 0.2125984251968504
          },
          {
            "duration": 0.09090900000000346,
            "durationTicks": 96,
            "midi": 51,
            "name": "D#3",
            "ticks": 62256,
            "time": 58.9544865,
            "velocity": 0.2125984251968504
          },
          {
            "duration": 0.09090900000000346,
            "durationTicks": 96,
            "midi": 39,
            "name": "D#2",
            "ticks": 62448,
            "time": 59.1363045,
            "velocity": 0.2125984251968504
          },
          {
            "duration": 0.09090900000000346,
            "durationTicks": 96,
            "midi": 46,
            "name": "A#2",
            "ticks": 62640,
            "time": 59.3181225,
            "velocity": 0.2125984251968504
          },
          {
            "duration": 0.09090900000000346,
            "durationTicks": 96,
            "midi": 51,
            "name": "D#3",
            "ticks": 62832,
            "time": 59.4999405,
            "velocity": 0.2125984251968504
          },
          {
            "duration": 0.09090900000000346,
            "durationTicks": 96,
            "midi": 42,
            "name": "F#2",
            "ticks": 63024,
            "time": 59.6817585,
            "velocity": 0.2125984251968504
          },
          {
            "duration": 0.09090900000000346,
            "durationTicks": 96,
            "midi": 35,
            "name": "B1",
            "ticks": 63216,
            "time": 59.8635765,
            "velocity": 0.2125984251968504
          },
          {
            "duration": 0.09090900000000346,
            "durationTicks": 96,
            "midi": 42,
            "name": "F#2",
            "ticks": 63408,
            "time": 60.0453945,
            "velocity": 0.2125984251968504
          },
          {
            "duration": 0.09090900000000346,
            "durationTicks": 96,
            "midi": 47,
            "name": "B2",
            "ticks": 63600,
            "time": 60.2272125,
            "velocity": 0.2125984251968504
          },
          {
            "duration": 0.09090900000000346,
            "durationTicks": 96,
            "midi": 35,
            "name": "B1",
            "ticks": 63792,
            "time": 60.4090305,
            "velocity": 0.2125984251968504
          },
          {
            "duration": 0.09090900000000346,
            "durationTicks": 96,
            "midi": 42,
            "name": "F#2",
            "ticks": 63984,
            "time": 60.5908485,
            "velocity": 0.2125984251968504
          },
          {
            "duration": 0.09090900000000346,
            "durationTicks": 96,
            "midi": 47,
            "name": "B2",
            "ticks": 64176,
            "time": 60.7726665,
            "velocity": 0.2125984251968504
          },
          {
            "duration": 0.09090900000000346,
            "durationTicks": 96,
            "midi": 42,
            "name": "F#2",
            "ticks": 64368,
            "time": 60.9544845,
            "velocity": 0.2125984251968504
          },
          {
            "duration": 0.09090900000000346,
            "durationTicks": 96,
            "midi": 35,
            "name": "B1",
            "ticks": 64560,
            "time": 61.1363025,
            "velocity": 0.2125984251968504
          },
          {
            "duration": 0.09090900000000346,
            "durationTicks": 96,
            "midi": 39,
            "name": "D#2",
            "ticks": 64752,
            "time": 61.3181205,
            "velocity": 0.2125984251968504
          },
          {
            "duration": 0.09090900000000346,
            "durationTicks": 96,
            "midi": 42,
            "name": "F#2",
            "ticks": 64944,
            "time": 61.4999385,
            "velocity": 0.2125984251968504
          },
          {
            "duration": 0.09090899999999635,
            "durationTicks": 96,
            "midi": 49,
            "name": "C#3",
            "ticks": 65136,
            "time": 61.681756500000006,
            "velocity": 0.2125984251968504
          },
          {
            "duration": 0.09090899999999635,
            "durationTicks": 96,
            "midi": 54,
            "name": "F#3",
            "ticks": 65328,
            "time": 61.863574500000006,
            "velocity": 0.2125984251968504
          },
          {
            "duration": 0.09090899999999635,
            "durationTicks": 96,
            "midi": 42,
            "name": "F#2",
            "ticks": 65520,
            "time": 62.045392500000005,
            "velocity": 0.2125984251968504
          },
          {
            "duration": 0.09090899999999635,
            "durationTicks": 96,
            "midi": 49,
            "name": "C#3",
            "ticks": 65712,
            "time": 62.227210500000005,
            "velocity": 0.2125984251968504
          },
          {
            "duration": 0.09090899999999635,
            "durationTicks": 96,
            "midi": 54,
            "name": "F#3",
            "ticks": 65904,
            "time": 62.409028500000005,
            "velocity": 0.2125984251968504
          },
          {
            "duration": 0.09090899999999635,
            "durationTicks": 96,
            "midi": 42,
            "name": "F#2",
            "ticks": 66096,
            "time": 62.590846500000005,
            "velocity": 0.2125984251968504
          },
          {
            "duration": 0.09090899999999635,
            "durationTicks": 96,
            "midi": 49,
            "name": "C#3",
            "ticks": 66288,
            "time": 62.772664500000005,
            "velocity": 0.2125984251968504
          },
          {
            "duration": 0.09090899999999635,
            "durationTicks": 96,
            "midi": 37,
            "name": "C#2",
            "ticks": 66480,
            "time": 62.954482500000005,
            "velocity": 0.2125984251968504
          },
          {
            "duration": 0.09090899999999635,
            "durationTicks": 96,
            "midi": 44,
            "name": "G#2",
            "ticks": 66672,
            "time": 63.136300500000004,
            "velocity": 0.2125984251968504
          },
          {
            "duration": 0.09090899999999635,
            "durationTicks": 96,
            "midi": 49,
            "name": "C#3",
            "ticks": 66864,
            "time": 63.318118500000004,
            "velocity": 0.2125984251968504
          },
          {
            "duration": 0.09090899999999635,
            "durationTicks": 96,
            "midi": 37,
            "name": "C#2",
            "ticks": 67056,
            "time": 63.499936500000004,
            "velocity": 0.2125984251968504
          },
          {
            "duration": 0.09090899999999635,
            "durationTicks": 96,
            "midi": 44,
            "name": "G#2",
            "ticks": 67248,
            "time": 63.681754500000004,
            "velocity": 0.2125984251968504
          },
          {
            "duration": 0.09090899999999635,
            "durationTicks": 96,
            "midi": 49,
            "name": "C#3",
            "ticks": 67440,
            "time": 63.863572500000004,
            "velocity": 0.2125984251968504
          },
          {
            "duration": 0.09090900000001056,
            "durationTicks": 96,
            "midi": 37,
            "name": "C#2",
            "ticks": 67632,
            "time": 64.0453905,
            "velocity": 0.2125984251968504
          },
          {
            "duration": 0.09090899999999635,
            "durationTicks": 96,
            "midi": 44,
            "name": "G#2",
            "ticks": 67824,
            "time": 64.2272085,
            "velocity": 0.2125984251968504
          },
          {
            "duration": 0.09090900000001056,
            "durationTicks": 96,
            "midi": 39,
            "name": "D#2",
            "ticks": 68016,
            "time": 64.4090265,
            "velocity": 0.2125984251968504
          },
          {
            "duration": 0.09090899999999635,
            "durationTicks": 96,
            "midi": 46,
            "name": "A#2",
            "ticks": 68208,
            "time": 64.5908445,
            "velocity": 0.2125984251968504
          },
          {
            "duration": 0.09090900000001056,
            "durationTicks": 96,
            "midi": 51,
            "name": "D#3",
            "ticks": 68400,
            "time": 64.7726625,
            "velocity": 0.2125984251968504
          },
          {
            "duration": 0.09090899999999635,
            "durationTicks": 96,
            "midi": 39,
            "name": "D#2",
            "ticks": 68592,
            "time": 64.9544805,
            "velocity": 0.2125984251968504
          },
          {
            "duration": 0.09090899999999635,
            "durationTicks": 96,
            "midi": 46,
            "name": "A#2",
            "ticks": 68784,
            "time": 65.13629850000001,
            "velocity": 0.2125984251968504
          },
          {
            "duration": 0.09090899999999635,
            "durationTicks": 96,
            "midi": 51,
            "name": "D#3",
            "ticks": 68976,
            "time": 65.3181165,
            "velocity": 0.2125984251968504
          },
          {
            "duration": 0.09090899999999635,
            "durationTicks": 96,
            "midi": 39,
            "name": "D#2",
            "ticks": 69168,
            "time": 65.49993450000001,
            "velocity": 0.2125984251968504
          },
          {
            "duration": 0.09090899999999635,
            "durationTicks": 96,
            "midi": 46,
            "name": "A#2",
            "ticks": 69360,
            "time": 65.6817525,
            "velocity": 0.2125984251968504
          },
          {
            "duration": 0.09090899999999635,
            "durationTicks": 96,
            "midi": 35,
            "name": "B1",
            "ticks": 69552,
            "time": 65.86357050000001,
            "velocity": 0.2125984251968504
          },
          {
            "duration": 0.09090899999999635,
            "durationTicks": 96,
            "midi": 42,
            "name": "F#2",
            "ticks": 69744,
            "time": 66.0453885,
            "velocity": 0.2125984251968504
          },
          {
            "duration": 0.09090899999999635,
            "durationTicks": 96,
            "midi": 47,
            "name": "B2",
            "ticks": 69936,
            "time": 66.22720650000001,
            "velocity": 0.2125984251968504
          },
          {
            "duration": 0.09090899999999635,
            "durationTicks": 96,
            "midi": 35,
            "name": "B1",
            "ticks": 70128,
            "time": 66.4090245,
            "velocity": 0.2125984251968504
          },
          {
            "duration": 0.09090899999999635,
            "durationTicks": 96,
            "midi": 42,
            "name": "F#2",
            "ticks": 70320,
            "time": 66.59084250000001,
            "velocity": 0.2125984251968504
          },
          {
            "duration": 0.09090899999999635,
            "durationTicks": 96,
            "midi": 47,
            "name": "B2",
            "ticks": 70512,
            "time": 66.7726605,
            "velocity": 0.2125984251968504
          },
          {
            "duration": 0.09090899999999635,
            "durationTicks": 96,
            "midi": 35,
            "name": "B1",
            "ticks": 70704,
            "time": 66.95447850000001,
            "velocity": 0.2125984251968504
          },
          {
            "duration": 0.09090899999999635,
            "durationTicks": 96,
            "midi": 42,
            "name": "F#2",
            "ticks": 70896,
            "time": 67.1362965,
            "velocity": 0.2125984251968504
          },
          {
            "duration": 0.09090899999999635,
            "durationTicks": 96,
            "midi": 42,
            "name": "F#2",
            "ticks": 71088,
            "time": 67.31811450000001,
            "velocity": 0.2125984251968504
          },
          {
            "duration": 0.09090899999999635,
            "durationTicks": 96,
            "midi": 49,
            "name": "C#3",
            "ticks": 71280,
            "time": 67.4999325,
            "velocity": 0.2125984251968504
          },
          {
            "duration": 0.09090899999999635,
            "durationTicks": 96,
            "midi": 54,
            "name": "F#3",
            "ticks": 71472,
            "time": 67.6817505,
            "velocity": 0.2125984251968504
          },
          {
            "duration": 0.09090899999999635,
            "durationTicks": 96,
            "midi": 42,
            "name": "F#2",
            "ticks": 71664,
            "time": 67.8635685,
            "velocity": 0.2125984251968504
          },
          {
            "duration": 0.09090899999999635,
            "durationTicks": 96,
            "midi": 49,
            "name": "C#3",
            "ticks": 71856,
            "time": 68.0453865,
            "velocity": 0.2125984251968504
          },
          {
            "duration": 0.09090900000001056,
            "durationTicks": 96,
            "midi": 54,
            "name": "F#3",
            "ticks": 72048,
            "time": 68.2272045,
            "velocity": 0.2125984251968504
          },
          {
            "duration": 0.09090899999999635,
            "durationTicks": 96,
            "midi": 42,
            "name": "F#2",
            "ticks": 72240,
            "time": 68.4090225,
            "velocity": 0.2125984251968504
          },
          {
            "duration": 0.09090900000001056,
            "durationTicks": 96,
            "midi": 49,
            "name": "C#3",
            "ticks": 72432,
            "time": 68.5908405,
            "velocity": 0.2125984251968504
          },
          {
            "duration": 0.09090899999999635,
            "durationTicks": 96,
            "midi": 37,
            "name": "C#2",
            "ticks": 72624,
            "time": 68.7726585,
            "velocity": 0.2125984251968504
          },
          {
            "duration": 0.09090900000001056,
            "durationTicks": 96,
            "midi": 44,
            "name": "G#2",
            "ticks": 72816,
            "time": 68.9544765,
            "velocity": 0.2125984251968504
          },
          {
            "duration": 0.09090899999999635,
            "durationTicks": 96,
            "midi": 49,
            "name": "C#3",
            "ticks": 73008,
            "time": 69.1362945,
            "velocity": 0.2125984251968504
          },
          {
            "duration": 0.09090900000001056,
            "durationTicks": 96,
            "midi": 37,
            "name": "C#2",
            "ticks": 73200,
            "time": 69.3181125,
            "velocity": 0.2125984251968504
          },
          {
            "duration": 0.09090899999999635,
            "durationTicks": 96,
            "midi": 44,
            "name": "G#2",
            "ticks": 73392,
            "time": 69.4999305,
            "velocity": 0.2125984251968504
          },
          {
            "duration": 0.09090900000001056,
            "durationTicks": 96,
            "midi": 49,
            "name": "C#3",
            "ticks": 73584,
            "time": 69.6817485,
            "velocity": 0.2125984251968504
          },
          {
            "duration": 0.09090899999999635,
            "durationTicks": 96,
            "midi": 37,
            "name": "C#2",
            "ticks": 73776,
            "time": 69.8635665,
            "velocity": 0.2125984251968504
          },
          {
            "duration": 0.09090900000001056,
            "durationTicks": 96,
            "midi": 44,
            "name": "G#2",
            "ticks": 73968,
            "time": 70.0453845,
            "velocity": 0.2125984251968504
          },
          {
            "duration": 0.09090899999999635,
            "durationTicks": 96,
            "midi": 39,
            "name": "D#2",
            "ticks": 74160,
            "time": 70.2272025,
            "velocity": 0.2125984251968504
          },
          {
            "duration": 0.09090900000001056,
            "durationTicks": 96,
            "midi": 46,
            "name": "A#2",
            "ticks": 74352,
            "time": 70.4090205,
            "velocity": 0.2125984251968504
          },
          {
            "duration": 0.09090899999999635,
            "durationTicks": 96,
            "midi": 51,
            "name": "D#3",
            "ticks": 74544,
            "time": 70.5908385,
            "velocity": 0.2125984251968504
          },
          {
            "duration": 0.09090900000001056,
            "durationTicks": 96,
            "midi": 39,
            "name": "D#2",
            "ticks": 74736,
            "time": 70.7726565,
            "velocity": 0.2125984251968504
          },
          {
            "duration": 0.09090899999999635,
            "durationTicks": 96,
            "midi": 46,
            "name": "A#2",
            "ticks": 74928,
            "time": 70.9544745,
            "velocity": 0.2125984251968504
          },
          {
            "duration": 0.09090900000001056,
            "durationTicks": 96,
            "midi": 51,
            "name": "D#3",
            "ticks": 75120,
            "time": 71.1362925,
            "velocity": 0.2125984251968504
          },
          {
            "duration": 0.09090899999999635,
            "durationTicks": 96,
            "midi": 39,
            "name": "D#2",
            "ticks": 75312,
            "time": 71.3181105,
            "velocity": 0.2125984251968504
          },
          {
            "duration": 0.09090899999999635,
            "durationTicks": 96,
            "midi": 46,
            "name": "A#2",
            "ticks": 75504,
            "time": 71.49992850000001,
            "velocity": 0.2125984251968504
          },
          {
            "duration": 0.09090899999999635,
            "durationTicks": 96,
            "midi": 35,
            "name": "B1",
            "ticks": 75696,
            "time": 71.6817465,
            "velocity": 0.2125984251968504
          },
          {
            "duration": 0.09090899999999635,
            "durationTicks": 96,
            "midi": 42,
            "name": "F#2",
            "ticks": 75888,
            "time": 71.86356450000001,
            "velocity": 0.2125984251968504
          },
          {
            "duration": 0.09090899999999635,
            "durationTicks": 96,
            "midi": 47,
            "name": "B2",
            "ticks": 76080,
            "time": 72.0453825,
            "velocity": 0.2125984251968504
          },
          {
            "duration": 0.09090899999999635,
            "durationTicks": 96,
            "midi": 35,
            "name": "B1",
            "ticks": 76272,
            "time": 72.22720050000001,
            "velocity": 0.2125984251968504
          },
          {
            "duration": 0.09090899999999635,
            "durationTicks": 96,
            "midi": 47,
            "name": "B2",
            "ticks": 76464,
            "time": 72.4090185,
            "velocity": 0.2125984251968504
          },
          {
            "duration": 0.09090899999999635,
            "durationTicks": 96,
            "midi": 35,
            "name": "B1",
            "ticks": 76848,
            "time": 72.7726545,
            "velocity": 0.2125984251968504
          },
          {
            "duration": 0.09090899999999635,
            "durationTicks": 96,
            "midi": 42,
            "name": "F#2",
            "ticks": 77232,
            "time": 73.1362905,
            "velocity": 0.2125984251968504
          },
          {
            "duration": 0.09090899999999635,
            "durationTicks": 96,
            "midi": 54,
            "name": "F#3",
            "ticks": 77424,
            "time": 73.31810850000001,
            "velocity": 0.2125984251968504
          },
          {
            "duration": 0.09090899999999635,
            "durationTicks": 96,
            "midi": 42,
            "name": "F#2",
            "ticks": 77616,
            "time": 73.4999265,
            "velocity": 0.2125984251968504
          },
          {
            "duration": 0.09090899999999635,
            "durationTicks": 96,
            "midi": 54,
            "name": "F#3",
            "ticks": 77808,
            "time": 73.68174450000001,
            "velocity": 0.2125984251968504
          },
          {
            "duration": 0.09090899999999635,
            "durationTicks": 96,
            "midi": 42,
            "name": "F#2",
            "ticks": 78000,
            "time": 73.8635625,
            "velocity": 0.2125984251968504
          },
          {
            "duration": 0.09090899999999635,
            "durationTicks": 96,
            "midi": 54,
            "name": "F#3",
            "ticks": 78192,
            "time": 74.04538050000001,
            "velocity": 0.2125984251968504
          },
          {
            "duration": 0.09090899999999635,
            "durationTicks": 96,
            "midi": 42,
            "name": "F#2",
            "ticks": 78384,
            "time": 74.2271985,
            "velocity": 0.2125984251968504
          },
          {
            "duration": 0.09090899999999635,
            "durationTicks": 96,
            "midi": 54,
            "name": "F#3",
            "ticks": 78576,
            "time": 74.4090165,
            "velocity": 0.2125984251968504
          },
          {
            "duration": 0.09090899999999635,
            "durationTicks": 96,
            "midi": 42,
            "name": "F#2",
            "ticks": 78768,
            "time": 74.5908345,
            "velocity": 0.2125984251968504
          },
          {
            "duration": 0.09090899999999635,
            "durationTicks": 96,
            "midi": 54,
            "name": "F#3",
            "ticks": 78960,
            "time": 74.7726525,
            "velocity": 0.2125984251968504
          },
          {
            "duration": 0.09090900000001056,
            "durationTicks": 96,
            "midi": 42,
            "name": "F#2",
            "ticks": 79152,
            "time": 74.9544705,
            "velocity": 0.2125984251968504
          },
          {
            "duration": 0.09090899999999635,
            "durationTicks": 96,
            "midi": 54,
            "name": "F#3",
            "ticks": 79344,
            "time": 75.1362885,
            "velocity": 0.2125984251968504
          },
          {
            "duration": 0.09090900000001056,
            "durationTicks": 96,
            "midi": 42,
            "name": "F#2",
            "ticks": 79536,
            "time": 75.3181065,
            "velocity": 0.2125984251968504
          },
          {
            "duration": 0.09090899999999635,
            "durationTicks": 96,
            "midi": 54,
            "name": "F#3",
            "ticks": 79728,
            "time": 75.4999245,
            "velocity": 0.2125984251968504
          },
          {
            "duration": 0.09090900000001056,
            "durationTicks": 96,
            "midi": 42,
            "name": "F#2",
            "ticks": 79920,
            "time": 75.6817425,
            "velocity": 0.2125984251968504
          },
          {
            "duration": 0.09090899999999635,
            "durationTicks": 96,
            "midi": 54,
            "name": "F#3",
            "ticks": 80112,
            "time": 75.8635605,
            "velocity": 0.2125984251968504
          },
          {
            "duration": 0.09090900000001056,
            "durationTicks": 96,
            "midi": 42,
            "name": "F#2",
            "ticks": 80304,
            "time": 76.0453785,
            "velocity": 0.2125984251968504
          },
          {
            "duration": 0.09090899999999635,
            "durationTicks": 96,
            "midi": 54,
            "name": "F#3",
            "ticks": 80496,
            "time": 76.2271965,
            "velocity": 0.2125984251968504
          },
          {
            "duration": 0.09090900000001056,
            "durationTicks": 96,
            "midi": 42,
            "name": "F#2",
            "ticks": 80688,
            "time": 76.4090145,
            "velocity": 0.2125984251968504
          },
          {
            "duration": 0.09090899999999635,
            "durationTicks": 96,
            "midi": 54,
            "name": "F#3",
            "ticks": 80880,
            "time": 76.5908325,
            "velocity": 0.2125984251968504
          },
          {
            "duration": 0.09090900000001056,
            "durationTicks": 96,
            "midi": 42,
            "name": "F#2",
            "ticks": 81072,
            "time": 76.7726505,
            "velocity": 0.2125984251968504
          },
          {
            "duration": 0.09090899999999635,
            "durationTicks": 96,
            "midi": 54,
            "name": "F#3",
            "ticks": 81264,
            "time": 76.9544685,
            "velocity": 0.2125984251968504
          },
          {
            "duration": 0.09090900000001056,
            "durationTicks": 96,
            "midi": 42,
            "name": "F#2",
            "ticks": 81456,
            "time": 77.1362865,
            "velocity": 0.2125984251968504
          },
          {
            "duration": 0.09090899999999635,
            "durationTicks": 96,
            "midi": 54,
            "name": "F#3",
            "ticks": 81648,
            "time": 77.3181045,
            "velocity": 0.2125984251968504
          },
          {
            "duration": 0.09090900000001056,
            "durationTicks": 96,
            "midi": 42,
            "name": "F#2",
            "ticks": 81840,
            "time": 77.4999225,
            "velocity": 0.2125984251968504
          },
          {
            "duration": 0.09090899999999635,
            "durationTicks": 96,
            "midi": 54,
            "name": "F#3",
            "ticks": 82032,
            "time": 77.6817405,
            "velocity": 0.2125984251968504
          },
          {
            "duration": 0.09090900000001056,
            "durationTicks": 96,
            "midi": 42,
            "name": "F#2",
            "ticks": 82224,
            "time": 77.8635585,
            "velocity": 0.2125984251968504
          },
          {
            "duration": 0.09090899999999635,
            "durationTicks": 96,
            "midi": 54,
            "name": "F#3",
            "ticks": 82416,
            "time": 78.0453765,
            "velocity": 0.2125984251968504
          },
          {
            "duration": 0.09090899999999635,
            "durationTicks": 96,
            "midi": 42,
            "name": "F#2",
            "ticks": 82608,
            "time": 78.22719450000001,
            "velocity": 0.2125984251968504
          },
          {
            "duration": 0.09090899999999635,
            "durationTicks": 96,
            "midi": 54,
            "name": "F#3",
            "ticks": 82800,
            "time": 78.4090125,
            "velocity": 0.2125984251968504
          },
          {
            "duration": 0.09090899999999635,
            "durationTicks": 96,
            "midi": 42,
            "name": "F#2",
            "ticks": 82992,
            "time": 78.59083050000001,
            "velocity": 0.2125984251968504
          },
          {
            "duration": 0.09090899999999635,
            "durationTicks": 96,
            "midi": 54,
            "name": "F#3",
            "ticks": 83184,
            "time": 78.7726485,
            "velocity": 0.2125984251968504
          },
          {
            "duration": 0.09090899999999635,
            "durationTicks": 96,
            "midi": 37,
            "name": "C#2",
            "ticks": 83376,
            "time": 78.95446650000001,
            "velocity": 0.2125984251968504
          },
          {
            "duration": 0.09090899999999635,
            "durationTicks": 96,
            "midi": 49,
            "name": "C#3",
            "ticks": 83568,
            "time": 79.1362845,
            "velocity": 0.2125984251968504
          },
          {
            "duration": 0.09090899999999635,
            "durationTicks": 96,
            "midi": 37,
            "name": "C#2",
            "ticks": 83760,
            "time": 79.31810250000001,
            "velocity": 0.2125984251968504
          },
          {
            "duration": 0.09090899999999635,
            "durationTicks": 96,
            "midi": 49,
            "name": "C#3",
            "ticks": 83952,
            "time": 79.4999205,
            "velocity": 0.2125984251968504
          },
          {
            "duration": 0.09090899999999635,
            "durationTicks": 96,
            "midi": 37,
            "name": "C#2",
            "ticks": 84144,
            "time": 79.68173850000001,
            "velocity": 0.2125984251968504
          },
          {
            "duration": 0.09090899999999635,
            "durationTicks": 96,
            "midi": 49,
            "name": "C#3",
            "ticks": 84336,
            "time": 79.8635565,
            "velocity": 0.2125984251968504
          },
          {
            "duration": 0.09090899999999635,
            "durationTicks": 96,
            "midi": 37,
            "name": "C#2",
            "ticks": 84528,
            "time": 80.04537450000001,
            "velocity": 0.2125984251968504
          },
          {
            "duration": 0.09090899999999635,
            "durationTicks": 96,
            "midi": 49,
            "name": "C#3",
            "ticks": 84720,
            "time": 80.2271925,
            "velocity": 0.2125984251968504
          },
          {
            "duration": 0.09090899999999635,
            "durationTicks": 96,
            "midi": 37,
            "name": "C#2",
            "ticks": 84912,
            "time": 80.40901050000001,
            "velocity": 0.2125984251968504
          },
          {
            "duration": 0.09090899999999635,
            "durationTicks": 96,
            "midi": 49,
            "name": "C#3",
            "ticks": 85104,
            "time": 80.5908285,
            "velocity": 0.2125984251968504
          },
          {
            "duration": 0.09090899999999635,
            "durationTicks": 96,
            "midi": 37,
            "name": "C#2",
            "ticks": 85296,
            "time": 80.77264650000001,
            "velocity": 0.2125984251968504
          },
          {
            "duration": 0.09090899999999635,
            "durationTicks": 96,
            "midi": 49,
            "name": "C#3",
            "ticks": 85488,
            "time": 80.9544645,
            "velocity": 0.2125984251968504
          },
          {
            "duration": 0.09090899999999635,
            "durationTicks": 96,
            "midi": 37,
            "name": "C#2",
            "ticks": 85680,
            "time": 81.13628250000001,
            "velocity": 0.2125984251968504
          },
          {
            "duration": 0.09090899999999635,
            "durationTicks": 96,
            "midi": 49,
            "name": "C#3",
            "ticks": 85872,
            "time": 81.3181005,
            "velocity": 0.2125984251968504
          },
          {
            "duration": 0.09090899999999635,
            "durationTicks": 96,
            "midi": 42,
            "name": "F#2",
            "ticks": 86064,
            "time": 81.4999185,
            "velocity": 0.2125984251968504
          },
          {
            "duration": 0.09090900000001056,
            "durationTicks": 96,
            "midi": 54,
            "name": "F#3",
            "ticks": 86256,
            "time": 81.6817365,
            "velocity": 0.2125984251968504
          },
          {
            "duration": 0.09090899999999635,
            "durationTicks": 96,
            "midi": 42,
            "name": "F#2",
            "ticks": 86448,
            "time": 81.8635545,
            "velocity": 0.2125984251968504
          },
          {
            "duration": 0.09090900000001056,
            "durationTicks": 96,
            "midi": 54,
            "name": "F#3",
            "ticks": 86640,
            "time": 82.0453725,
            "velocity": 0.2125984251968504
          },
          {
            "duration": 0.09090899999999635,
            "durationTicks": 96,
            "midi": 42,
            "name": "F#2",
            "ticks": 86832,
            "time": 82.2271905,
            "velocity": 0.2125984251968504
          },
          {
            "duration": 0.09090900000001056,
            "durationTicks": 96,
            "midi": 54,
            "name": "F#3",
            "ticks": 87024,
            "time": 82.4090085,
            "velocity": 0.2125984251968504
          },
          {
            "duration": 0.09090899999999635,
            "durationTicks": 96,
            "midi": 42,
            "name": "F#2",
            "ticks": 87216,
            "time": 82.5908265,
            "velocity": 0.2125984251968504
          },
          {
            "duration": 0.09090900000001056,
            "durationTicks": 96,
            "midi": 54,
            "name": "F#3",
            "ticks": 87408,
            "time": 82.7726445,
            "velocity": 0.2125984251968504
          },
          {
            "duration": 0.09090899999999635,
            "durationTicks": 96,
            "midi": 42,
            "name": "F#2",
            "ticks": 87600,
            "time": 82.9544625,
            "velocity": 0.2125984251968504
          },
          {
            "duration": 0.09090900000001056,
            "durationTicks": 96,
            "midi": 54,
            "name": "F#3",
            "ticks": 87792,
            "time": 83.1362805,
            "velocity": 0.2125984251968504
          },
          {
            "duration": 0.09090899999999635,
            "durationTicks": 96,
            "midi": 42,
            "name": "F#2",
            "ticks": 87984,
            "time": 83.3180985,
            "velocity": 0.2125984251968504
          },
          {
            "duration": 0.09090900000001056,
            "durationTicks": 96,
            "midi": 54,
            "name": "F#3",
            "ticks": 88176,
            "time": 83.4999165,
            "velocity": 0.2125984251968504
          },
          {
            "duration": 0.09090899999999635,
            "durationTicks": 96,
            "midi": 42,
            "name": "F#2",
            "ticks": 88368,
            "time": 83.6817345,
            "velocity": 0.2125984251968504
          },
          {
            "duration": 0.09090900000001056,
            "durationTicks": 96,
            "midi": 54,
            "name": "F#3",
            "ticks": 88560,
            "time": 83.8635525,
            "velocity": 0.2125984251968504
          },
          {
            "duration": 0.09090899999999635,
            "durationTicks": 96,
            "midi": 42,
            "name": "F#2",
            "ticks": 88752,
            "time": 84.0453705,
            "velocity": 0.2125984251968504
          },
          {
            "duration": 0.09090900000001056,
            "durationTicks": 96,
            "midi": 54,
            "name": "F#3",
            "ticks": 88944,
            "time": 84.2271885,
            "velocity": 0.2125984251968504
          },
          {
            "duration": 0.09090899999999635,
            "durationTicks": 96,
            "midi": 42,
            "name": "F#2",
            "ticks": 89136,
            "time": 84.4090065,
            "velocity": 0.2125984251968504
          },
          {
            "duration": 0.09090900000001056,
            "durationTicks": 96,
            "midi": 54,
            "name": "F#3",
            "ticks": 89328,
            "time": 84.5908245,
            "velocity": 0.2125984251968504
          },
          {
            "duration": 0.09090899999999635,
            "durationTicks": 96,
            "midi": 42,
            "name": "F#2",
            "ticks": 89520,
            "time": 84.7726425,
            "velocity": 0.2125984251968504
          },
          {
            "duration": 0.09090899999999635,
            "durationTicks": 96,
            "midi": 54,
            "name": "F#3",
            "ticks": 89712,
            "time": 84.95446050000001,
            "velocity": 0.2125984251968504
          },
          {
            "duration": 0.09090899999999635,
            "durationTicks": 96,
            "midi": 42,
            "name": "F#2",
            "ticks": 89904,
            "time": 85.1362785,
            "velocity": 0.2125984251968504
          },
          {
            "duration": 0.09090899999999635,
            "durationTicks": 96,
            "midi": 54,
            "name": "F#3",
            "ticks": 90096,
            "time": 85.31809650000001,
            "velocity": 0.2125984251968504
          },
          {
            "duration": 0.09090899999999635,
            "durationTicks": 96,
            "midi": 42,
            "name": "F#2",
            "ticks": 90288,
            "time": 85.4999145,
            "velocity": 0.2125984251968504
          },
          {
            "duration": 0.09090899999999635,
            "durationTicks": 96,
            "midi": 54,
            "name": "F#3",
            "ticks": 90480,
            "time": 85.68173250000001,
            "velocity": 0.2125984251968504
          },
          {
            "duration": 0.09090899999999635,
            "durationTicks": 96,
            "midi": 42,
            "name": "F#2",
            "ticks": 90672,
            "time": 85.8635505,
            "velocity": 0.2125984251968504
          },
          {
            "duration": 0.09090899999999635,
            "durationTicks": 96,
            "midi": 54,
            "name": "F#3",
            "ticks": 90864,
            "time": 86.04536850000001,
            "velocity": 0.2125984251968504
          },
          {
            "duration": 0.09090899999999635,
            "durationTicks": 96,
            "midi": 42,
            "name": "F#2",
            "ticks": 91056,
            "time": 86.2271865,
            "velocity": 0.2125984251968504
          },
          {
            "duration": 0.09090899999999635,
            "durationTicks": 96,
            "midi": 54,
            "name": "F#3",
            "ticks": 91248,
            "time": 86.40900450000001,
            "velocity": 0.2125984251968504
          },
          {
            "duration": 0.09090899999999635,
            "durationTicks": 96,
            "midi": 42,
            "name": "F#2",
            "ticks": 91440,
            "time": 86.5908225,
            "velocity": 0.2125984251968504
          },
          {
            "duration": 0.09090899999999635,
            "durationTicks": 96,
            "midi": 54,
            "name": "F#3",
            "ticks": 91632,
            "time": 86.77264050000001,
            "velocity": 0.2125984251968504
          },
          {
            "duration": 0.09090899999999635,
            "durationTicks": 96,
            "midi": 42,
            "name": "F#2",
            "ticks": 91824,
            "time": 86.9544585,
            "velocity": 0.2125984251968504
          },
          {
            "duration": 0.09090899999999635,
            "durationTicks": 96,
            "midi": 54,
            "name": "F#3",
            "ticks": 92016,
            "time": 87.13627650000001,
            "velocity": 0.2125984251968504
          },
          {
            "duration": 0.09090899999999635,
            "durationTicks": 96,
            "midi": 42,
            "name": "F#2",
            "ticks": 92208,
            "time": 87.3180945,
            "velocity": 0.2125984251968504
          },
          {
            "duration": 0.09090899999999635,
            "durationTicks": 96,
            "midi": 54,
            "name": "F#3",
            "ticks": 92400,
            "time": 87.49991250000001,
            "velocity": 0.2125984251968504
          },
          {
            "duration": 0.09090899999999635,
            "durationTicks": 96,
            "midi": 42,
            "name": "F#2",
            "ticks": 92592,
            "time": 87.6817305,
            "velocity": 0.2125984251968504
          },
          {
            "duration": 0.09090899999999635,
            "durationTicks": 96,
            "midi": 54,
            "name": "F#3",
            "ticks": 92784,
            "time": 87.86354850000001,
            "velocity": 0.2125984251968504
          },
          {
            "duration": 0.09090900000001056,
            "durationTicks": 96,
            "midi": 42,
            "name": "F#2",
            "ticks": 92976,
            "time": 88.0453665,
            "velocity": 0.2125984251968504
          },
          {
            "duration": 0.09090899999999635,
            "durationTicks": 96,
            "midi": 54,
            "name": "F#3",
            "ticks": 93168,
            "time": 88.2271845,
            "velocity": 0.2125984251968504
          },
          {
            "duration": 0.09090900000001056,
            "durationTicks": 96,
            "midi": 42,
            "name": "F#2",
            "ticks": 93360,
            "time": 88.4090025,
            "velocity": 0.2125984251968504
          },
          {
            "duration": 0.09090899999999635,
            "durationTicks": 96,
            "midi": 54,
            "name": "F#3",
            "ticks": 93552,
            "time": 88.5908205,
            "velocity": 0.2125984251968504
          },
          {
            "duration": 0.09090900000001056,
            "durationTicks": 96,
            "midi": 42,
            "name": "F#2",
            "ticks": 93744,
            "time": 88.7726385,
            "velocity": 0.2125984251968504
          },
          {
            "duration": 0.09090899999999635,
            "durationTicks": 96,
            "midi": 54,
            "name": "F#3",
            "ticks": 93936,
            "time": 88.9544565,
            "velocity": 0.2125984251968504
          },
          {
            "duration": 0.09090900000001056,
            "durationTicks": 96,
            "midi": 42,
            "name": "F#2",
            "ticks": 94128,
            "time": 89.1362745,
            "velocity": 0.2125984251968504
          },
          {
            "duration": 0.09090899999999635,
            "durationTicks": 96,
            "midi": 54,
            "name": "F#3",
            "ticks": 94320,
            "time": 89.3180925,
            "velocity": 0.2125984251968504
          },
          {
            "duration": 0.09090900000001056,
            "durationTicks": 96,
            "midi": 42,
            "name": "F#2",
            "ticks": 94512,
            "time": 89.4999105,
            "velocity": 0.2125984251968504
          },
          {
            "duration": 0.09090899999999635,
            "durationTicks": 96,
            "midi": 54,
            "name": "F#3",
            "ticks": 94704,
            "time": 89.6817285,
            "velocity": 0.2125984251968504
          },
          {
            "duration": 0.09090900000001056,
            "durationTicks": 96,
            "midi": 42,
            "name": "F#2",
            "ticks": 94896,
            "time": 89.8635465,
            "velocity": 0.2125984251968504
          },
          {
            "duration": 0.09090899999999635,
            "durationTicks": 96,
            "midi": 54,
            "name": "F#3",
            "ticks": 95088,
            "time": 90.0453645,
            "velocity": 0.2125984251968504
          },
          {
            "duration": 0.09090900000001056,
            "durationTicks": 96,
            "midi": 37,
            "name": "C#2",
            "ticks": 95280,
            "time": 90.2271825,
            "velocity": 0.2125984251968504
          },
          {
            "duration": 0.09090899999999635,
            "durationTicks": 96,
            "midi": 49,
            "name": "C#3",
            "ticks": 95472,
            "time": 90.4090005,
            "velocity": 0.2125984251968504
          },
          {
            "duration": 0.09090900000001056,
            "durationTicks": 96,
            "midi": 37,
            "name": "C#2",
            "ticks": 95664,
            "time": 90.5908185,
            "velocity": 0.2125984251968504
          },
          {
            "duration": 0.09090899999999635,
            "durationTicks": 96,
            "midi": 49,
            "name": "C#3",
            "ticks": 95856,
            "time": 90.7726365,
            "velocity": 0.2125984251968504
          },
          {
            "duration": 0.09090900000001056,
            "durationTicks": 96,
            "midi": 37,
            "name": "C#2",
            "ticks": 96048,
            "time": 90.9544545,
            "velocity": 0.2125984251968504
          },
          {
            "duration": 0.09090899999999635,
            "durationTicks": 96,
            "midi": 49,
            "name": "C#3",
            "ticks": 96240,
            "time": 91.1362725,
            "velocity": 0.2125984251968504
          },
          {
            "duration": 0.09090900000001056,
            "durationTicks": 96,
            "midi": 37,
            "name": "C#2",
            "ticks": 96432,
            "time": 91.3180905,
            "velocity": 0.2125984251968504
          },
          {
            "duration": 0.09090899999999635,
            "durationTicks": 96,
            "midi": 49,
            "name": "C#3",
            "ticks": 96624,
            "time": 91.4999085,
            "velocity": 0.2125984251968504
          },
          {
            "duration": 0.09090899999999635,
            "durationTicks": 96,
            "midi": 37,
            "name": "C#2",
            "ticks": 96816,
            "time": 91.68172650000001,
            "velocity": 0.2125984251968504
          },
          {
            "duration": 0.09090899999999635,
            "durationTicks": 96,
            "midi": 49,
            "name": "C#3",
            "ticks": 97008,
            "time": 91.8635445,
            "velocity": 0.2125984251968504
          },
          {
            "duration": 0.09090899999999635,
            "durationTicks": 96,
            "midi": 37,
            "name": "C#2",
            "ticks": 97200,
            "time": 92.04536250000001,
            "velocity": 0.2125984251968504
          },
          {
            "duration": 0.09090899999999635,
            "durationTicks": 96,
            "midi": 49,
            "name": "C#3",
            "ticks": 97392,
            "time": 92.2271805,
            "velocity": 0.2125984251968504
          },
          {
            "duration": 0.09090899999999635,
            "durationTicks": 96,
            "midi": 37,
            "name": "C#2",
            "ticks": 97584,
            "time": 92.40899850000001,
            "velocity": 0.2125984251968504
          },
          {
            "duration": 0.09090899999999635,
            "durationTicks": 96,
            "midi": 49,
            "name": "C#3",
            "ticks": 97776,
            "time": 92.5908165,
            "velocity": 0.2125984251968504
          },
          {
            "duration": 0.09090899999999635,
            "durationTicks": 96,
            "midi": 37,
            "name": "C#2",
            "ticks": 97968,
            "time": 92.77263450000001,
            "velocity": 0.2125984251968504
          },
          {
            "duration": 0.09090899999999635,
            "durationTicks": 96,
            "midi": 49,
            "name": "C#3",
            "ticks": 98160,
            "time": 92.9544525,
            "velocity": 0.2125984251968504
          },
          {
            "duration": 0.09090899999999635,
            "durationTicks": 96,
            "midi": 42,
            "name": "F#2",
            "ticks": 98352,
            "time": 93.13627050000001,
            "velocity": 0.2125984251968504
          },
          {
            "duration": 0.09090899999999635,
            "durationTicks": 96,
            "midi": 54,
            "name": "F#3",
            "ticks": 98544,
            "time": 93.3180885,
            "velocity": 0.2125984251968504
          },
          {
            "duration": 0.09090899999999635,
            "durationTicks": 96,
            "midi": 42,
            "name": "F#2",
            "ticks": 98736,
            "time": 93.49990650000001,
            "velocity": 0.2125984251968504
          },
          {
            "duration": 0.09090899999999635,
            "durationTicks": 96,
            "midi": 54,
            "name": "F#3",
            "ticks": 98928,
            "time": 93.6817245,
            "velocity": 0.2125984251968504
          },
          {
            "duration": 0.09090899999999635,
            "durationTicks": 96,
            "midi": 42,
            "name": "F#2",
            "ticks": 99120,
            "time": 93.86354250000001,
            "velocity": 0.2125984251968504
          },
          {
            "duration": 0.09090899999999635,
            "durationTicks": 96,
            "midi": 54,
            "name": "F#3",
            "ticks": 99312,
            "time": 94.0453605,
            "velocity": 0.2125984251968504
          },
          {
            "duration": 0.09090899999999635,
            "durationTicks": 96,
            "midi": 42,
            "name": "F#2",
            "ticks": 99504,
            "time": 94.22717850000001,
            "velocity": 0.2125984251968504
          },
          {
            "duration": 0.09090899999999635,
            "durationTicks": 96,
            "midi": 54,
            "name": "F#3",
            "ticks": 99696,
            "time": 94.4089965,
            "velocity": 0.2125984251968504
          },
          {
            "duration": 0.09090899999999635,
            "durationTicks": 96,
            "midi": 42,
            "name": "F#2",
            "ticks": 99888,
            "time": 94.59081450000001,
            "velocity": 0.2125984251968504
          },
          {
            "duration": 0.09090899999999635,
            "durationTicks": 96,
            "midi": 42,
            "name": "F#2",
            "ticks": 101424,
            "time": 96.0453585,
            "velocity": 0.2125984251968504
          },
          {
            "duration": 0.09090900000001056,
            "durationTicks": 96,
            "midi": 49,
            "name": "C#3",
            "ticks": 101616,
            "time": 96.2271765,
            "velocity": 0.2125984251968504
          },
          {
            "duration": 0.09090899999999635,
            "durationTicks": 96,
            "midi": 54,
            "name": "F#3",
            "ticks": 101808,
            "time": 96.4089945,
            "velocity": 0.2125984251968504
          },
          {
            "duration": 0.09090900000001056,
            "durationTicks": 96,
            "midi": 42,
            "name": "F#2",
            "ticks": 102000,
            "time": 96.5908125,
            "velocity": 0.2125984251968504
          },
          {
            "duration": 0.09090899999999635,
            "durationTicks": 96,
            "midi": 49,
            "name": "C#3",
            "ticks": 102192,
            "time": 96.7726305,
            "velocity": 0.2125984251968504
          },
          {
            "duration": 0.09090900000001056,
            "durationTicks": 96,
            "midi": 54,
            "name": "F#3",
            "ticks": 102384,
            "time": 96.9544485,
            "velocity": 0.2125984251968504
          },
          {
            "duration": 0.09090899999999635,
            "durationTicks": 96,
            "midi": 42,
            "name": "F#2",
            "ticks": 102576,
            "time": 97.1362665,
            "velocity": 0.2125984251968504
          },
          {
            "duration": 0.09090900000001056,
            "durationTicks": 96,
            "midi": 37,
            "name": "C#2",
            "ticks": 102768,
            "time": 97.3180845,
            "velocity": 0.2125984251968504
          },
          {
            "duration": 0.09090900000001056,
            "durationTicks": 96,
            "midi": 37,
            "name": "C#2",
            "ticks": 102768,
            "time": 97.3180845,
            "velocity": 0.2125984251968504
          },
          {
            "duration": 0.09090899999999635,
            "durationTicks": 96,
            "midi": 44,
            "name": "G#2",
            "ticks": 102960,
            "time": 97.4999025,
            "velocity": 0.2125984251968504
          },
          {
            "duration": 0.09090900000001056,
            "durationTicks": 96,
            "midi": 49,
            "name": "C#3",
            "ticks": 103152,
            "time": 97.6817205,
            "velocity": 0.2125984251968504
          },
          {
            "duration": 0.09090899999999635,
            "durationTicks": 96,
            "midi": 37,
            "name": "C#2",
            "ticks": 103344,
            "time": 97.8635385,
            "velocity": 0.2125984251968504
          },
          {
            "duration": 0.09090900000001056,
            "durationTicks": 96,
            "midi": 44,
            "name": "G#2",
            "ticks": 103536,
            "time": 98.0453565,
            "velocity": 0.2125984251968504
          },
          {
            "duration": 0.09090899999999635,
            "durationTicks": 96,
            "midi": 49,
            "name": "C#3",
            "ticks": 103728,
            "time": 98.2271745,
            "velocity": 0.2125984251968504
          },
          {
            "duration": 0.09090899999999635,
            "durationTicks": 96,
            "midi": 37,
            "name": "C#2",
            "ticks": 103920,
            "time": 98.40899250000001,
            "velocity": 0.2125984251968504
          },
          {
            "duration": 0.09090899999999635,
            "durationTicks": 96,
            "midi": 44,
            "name": "G#2",
            "ticks": 104112,
            "time": 98.5908105,
            "velocity": 0.2125984251968504
          },
          {
            "duration": 0.09090899999999635,
            "durationTicks": 96,
            "midi": 49,
            "name": "C#3",
            "ticks": 104304,
            "time": 98.77262850000001,
            "velocity": 0.2125984251968504
          },
          {
            "duration": 0.09090899999999635,
            "durationTicks": 96,
            "midi": 39,
            "name": "D#2",
            "ticks": 104496,
            "time": 98.9544465,
            "velocity": 0.2125984251968504
          },
          {
            "duration": 0.09090899999999635,
            "durationTicks": 96,
            "midi": 46,
            "name": "A#2",
            "ticks": 104688,
            "time": 99.13626450000001,
            "velocity": 0.2125984251968504
          },
          {
            "duration": 0.09090899999999635,
            "durationTicks": 96,
            "midi": 51,
            "name": "D#3",
            "ticks": 104880,
            "time": 99.3180825,
            "velocity": 0.2125984251968504
          },
          {
            "duration": 0.09090899999999635,
            "durationTicks": 96,
            "midi": 39,
            "name": "D#2",
            "ticks": 105072,
            "time": 99.49990050000001,
            "velocity": 0.2125984251968504
          },
          {
            "duration": 0.09090899999999635,
            "durationTicks": 96,
            "midi": 46,
            "name": "A#2",
            "ticks": 105264,
            "time": 99.6817185,
            "velocity": 0.2125984251968504
          },
          {
            "duration": 0.09090899999999635,
            "durationTicks": 96,
            "midi": 51,
            "name": "D#3",
            "ticks": 105456,
            "time": 99.86353650000001,
            "velocity": 0.2125984251968504
          },
          {
            "duration": 0.09090899999999635,
            "durationTicks": 96,
            "midi": 39,
            "name": "D#2",
            "ticks": 105648,
            "time": 100.0453545,
            "velocity": 0.2125984251968504
          },
          {
            "duration": 0.09090899999999635,
            "durationTicks": 96,
            "midi": 35,
            "name": "B1",
            "ticks": 105840,
            "time": 100.22717250000001,
            "velocity": 0.2125984251968504
          },
          {
            "duration": 0.09090899999999635,
            "durationTicks": 96,
            "midi": 42,
            "name": "F#2",
            "ticks": 106032,
            "time": 100.4089905,
            "velocity": 0.2125984251968504
          },
          {
            "duration": 0.09090899999999635,
            "durationTicks": 96,
            "midi": 47,
            "name": "B2",
            "ticks": 106224,
            "time": 100.59080850000001,
            "velocity": 0.2125984251968504
          },
          {
            "duration": 0.09090899999999635,
            "durationTicks": 96,
            "midi": 35,
            "name": "B1",
            "ticks": 106416,
            "time": 100.7726265,
            "velocity": 0.2125984251968504
          },
          {
            "duration": 0.09090899999999635,
            "durationTicks": 96,
            "midi": 42,
            "name": "F#2",
            "ticks": 106608,
            "time": 100.95444450000001,
            "velocity": 0.2125984251968504
          },
          {
            "duration": 0.09090899999999635,
            "durationTicks": 96,
            "midi": 47,
            "name": "B2",
            "ticks": 106800,
            "time": 101.1362625,
            "velocity": 0.2125984251968504
          },
          {
            "duration": 0.09090899999999635,
            "durationTicks": 96,
            "midi": 35,
            "name": "B1",
            "ticks": 106992,
            "time": 101.31808050000001,
            "velocity": 0.2125984251968504
          },
          {
            "duration": 0.09090900000001056,
            "durationTicks": 96,
            "midi": 42,
            "name": "F#2",
            "ticks": 107184,
            "time": 101.4998985,
            "velocity": 0.2125984251968504
          },
          {
            "duration": 0.09090899999999635,
            "durationTicks": 96,
            "midi": 47,
            "name": "B2",
            "ticks": 107376,
            "time": 101.68171650000001,
            "velocity": 0.2125984251968504
          },
          {
            "duration": 0.09090900000001056,
            "durationTicks": 96,
            "midi": 42,
            "name": "F#2",
            "ticks": 107568,
            "time": 101.8635345,
            "velocity": 0.2125984251968504
          },
          {
            "duration": 0.09090899999999635,
            "durationTicks": 96,
            "midi": 49,
            "name": "C#3",
            "ticks": 107760,
            "time": 102.0453525,
            "velocity": 0.2125984251968504
          },
          {
            "duration": 0.09090900000001056,
            "durationTicks": 96,
            "midi": 54,
            "name": "F#3",
            "ticks": 107952,
            "time": 102.2271705,
            "velocity": 0.2125984251968504
          },
          {
            "duration": 0.09090899999999635,
            "durationTicks": 96,
            "midi": 42,
            "name": "F#2",
            "ticks": 108144,
            "time": 102.4089885,
            "velocity": 0.2125984251968504
          },
          {
            "duration": 0.09090900000001056,
            "durationTicks": 96,
            "midi": 49,
            "name": "C#3",
            "ticks": 108336,
            "time": 102.5908065,
            "velocity": 0.2125984251968504
          },
          {
            "duration": 0.09090899999999635,
            "durationTicks": 96,
            "midi": 54,
            "name": "F#3",
            "ticks": 108528,
            "time": 102.7726245,
            "velocity": 0.2125984251968504
          },
          {
            "duration": 0.09090900000001056,
            "durationTicks": 96,
            "midi": 42,
            "name": "F#2",
            "ticks": 108720,
            "time": 102.9544425,
            "velocity": 0.2125984251968504
          },
          {
            "duration": 0.09090899999999635,
            "durationTicks": 96,
            "midi": 37,
            "name": "C#2",
            "ticks": 108912,
            "time": 103.1362605,
            "velocity": 0.2125984251968504
          },
          {
            "duration": 0.09090900000001056,
            "durationTicks": 96,
            "midi": 44,
            "name": "G#2",
            "ticks": 109104,
            "time": 103.3180785,
            "velocity": 0.2125984251968504
          },
          {
            "duration": 0.09090899999999635,
            "durationTicks": 96,
            "midi": 49,
            "name": "C#3",
            "ticks": 109296,
            "time": 103.4998965,
            "velocity": 0.2125984251968504
          },
          {
            "duration": 0.09090900000001056,
            "durationTicks": 96,
            "midi": 37,
            "name": "C#2",
            "ticks": 109488,
            "time": 103.6817145,
            "velocity": 0.2125984251968504
          },
          {
            "duration": 0.09090899999999635,
            "durationTicks": 96,
            "midi": 44,
            "name": "G#2",
            "ticks": 109680,
            "time": 103.8635325,
            "velocity": 0.2125984251968504
          },
          {
            "duration": 0.09090900000001056,
            "durationTicks": 96,
            "midi": 49,
            "name": "C#3",
            "ticks": 109872,
            "time": 104.0453505,
            "velocity": 0.2125984251968504
          },
          {
            "duration": 0.09090899999999635,
            "durationTicks": 96,
            "midi": 37,
            "name": "C#2",
            "ticks": 110064,
            "time": 104.2271685,
            "velocity": 0.2125984251968504
          },
          {
            "duration": 0.09090900000001056,
            "durationTicks": 96,
            "midi": 44,
            "name": "G#2",
            "ticks": 110256,
            "time": 104.4089865,
            "velocity": 0.2125984251968504
          },
          {
            "duration": 0.09090899999999635,
            "durationTicks": 96,
            "midi": 49,
            "name": "C#3",
            "ticks": 110448,
            "time": 104.5908045,
            "velocity": 0.2125984251968504
          },
          {
            "duration": 0.09090899999999635,
            "durationTicks": 96,
            "midi": 39,
            "name": "D#2",
            "ticks": 110640,
            "time": 104.77262250000001,
            "velocity": 0.2125984251968504
          },
          {
            "duration": 0.09090899999999635,
            "durationTicks": 96,
            "midi": 46,
            "name": "A#2",
            "ticks": 110832,
            "time": 104.9544405,
            "velocity": 0.2125984251968504
          },
          {
            "duration": 0.09090899999999635,
            "durationTicks": 96,
            "midi": 51,
            "name": "D#3",
            "ticks": 111024,
            "time": 105.13625850000001,
            "velocity": 0.2125984251968504
          },
          {
            "duration": 0.09090899999999635,
            "durationTicks": 96,
            "midi": 39,
            "name": "D#2",
            "ticks": 111216,
            "time": 105.3180765,
            "velocity": 0.2125984251968504
          },
          {
            "duration": 0.09090899999999635,
            "durationTicks": 96,
            "midi": 46,
            "name": "A#2",
            "ticks": 111408,
            "time": 105.49989450000001,
            "velocity": 0.2125984251968504
          },
          {
            "duration": 0.09090899999999635,
            "durationTicks": 96,
            "midi": 51,
            "name": "D#3",
            "ticks": 111600,
            "time": 105.6817125,
            "velocity": 0.2125984251968504
          },
          {
            "duration": 0.09090899999999635,
            "durationTicks": 96,
            "midi": 42,
            "name": "F#2",
            "ticks": 111792,
            "time": 105.86353050000001,
            "velocity": 0.2125984251968504
          },
          {
            "duration": 0.09090899999999635,
            "durationTicks": 96,
            "midi": 35,
            "name": "B1",
            "ticks": 111984,
            "time": 106.0453485,
            "velocity": 0.2125984251968504
          },
          {
            "duration": 0.09090899999999635,
            "durationTicks": 96,
            "midi": 42,
            "name": "F#2",
            "ticks": 112176,
            "time": 106.22716650000001,
            "velocity": 0.2125984251968504
          },
          {
            "duration": 0.09090899999999635,
            "durationTicks": 96,
            "midi": 47,
            "name": "B2",
            "ticks": 112368,
            "time": 106.4089845,
            "velocity": 0.2125984251968504
          },
          {
            "duration": 0.09090899999999635,
            "durationTicks": 96,
            "midi": 35,
            "name": "B1",
            "ticks": 112560,
            "time": 106.59080250000001,
            "velocity": 0.2125984251968504
          },
          {
            "duration": 0.09090899999999635,
            "durationTicks": 96,
            "midi": 42,
            "name": "F#2",
            "ticks": 112752,
            "time": 106.7726205,
            "velocity": 0.2125984251968504
          },
          {
            "duration": 0.09090899999999635,
            "durationTicks": 96,
            "midi": 47,
            "name": "B2",
            "ticks": 112944,
            "time": 106.95443850000001,
            "velocity": 0.2125984251968504
          },
          {
            "duration": 0.09090899999999635,
            "durationTicks": 96,
            "midi": 42,
            "name": "F#2",
            "ticks": 113136,
            "time": 107.1362565,
            "velocity": 0.2125984251968504
          },
          {
            "duration": 0.09090899999999635,
            "durationTicks": 96,
            "midi": 35,
            "name": "B1",
            "ticks": 113328,
            "time": 107.31807450000001,
            "velocity": 0.2125984251968504
          },
          {
            "duration": 0.09090899999999635,
            "durationTicks": 96,
            "midi": 42,
            "name": "F#2",
            "ticks": 113712,
            "time": 107.68171050000001,
            "velocity": 0.2125984251968504
          },
          {
            "duration": 0.09090899999999635,
            "durationTicks": 96,
            "midi": 49,
            "name": "C#3",
            "ticks": 113904,
            "time": 107.8635285,
            "velocity": 0.2125984251968504
          },
          {
            "duration": 0.09090899999999635,
            "durationTicks": 96,
            "midi": 54,
            "name": "F#3",
            "ticks": 114096,
            "time": 108.04534650000001,
            "velocity": 0.2125984251968504
          },
          {
            "duration": 0.09090900000001056,
            "durationTicks": 96,
            "midi": 42,
            "name": "F#2",
            "ticks": 114288,
            "time": 108.2271645,
            "velocity": 0.2125984251968504
          },
          {
            "duration": 0.09090899999999635,
            "durationTicks": 96,
            "midi": 49,
            "name": "C#3",
            "ticks": 114480,
            "time": 108.40898250000001,
            "velocity": 0.2125984251968504
          },
          {
            "duration": 0.09090900000001056,
            "durationTicks": 96,
            "midi": 54,
            "name": "F#3",
            "ticks": 114672,
            "time": 108.5908005,
            "velocity": 0.2125984251968504
          },
          {
            "duration": 0.09090899999999635,
            "durationTicks": 96,
            "midi": 42,
            "name": "F#2",
            "ticks": 114864,
            "time": 108.77261850000001,
            "velocity": 0.2125984251968504
          },
          {
            "duration": 0.09090900000001056,
            "durationTicks": 96,
            "midi": 49,
            "name": "C#3",
            "ticks": 115056,
            "time": 108.9544365,
            "velocity": 0.2125984251968504
          },
          {
            "duration": 0.09090899999999635,
            "durationTicks": 96,
            "midi": 37,
            "name": "C#2",
            "ticks": 115248,
            "time": 109.1362545,
            "velocity": 0.2125984251968504
          },
          {
            "duration": 0.09090900000001056,
            "durationTicks": 96,
            "midi": 44,
            "name": "G#2",
            "ticks": 115440,
            "time": 109.3180725,
            "velocity": 0.2125984251968504
          },
          {
            "duration": 0.09090899999999635,
            "durationTicks": 96,
            "midi": 49,
            "name": "C#3",
            "ticks": 115632,
            "time": 109.4998905,
            "velocity": 0.2125984251968504
          },
          {
            "duration": 0.09090900000001056,
            "durationTicks": 96,
            "midi": 37,
            "name": "C#2",
            "ticks": 115824,
            "time": 109.6817085,
            "velocity": 0.2125984251968504
          },
          {
            "duration": 0.09090899999999635,
            "durationTicks": 96,
            "midi": 44,
            "name": "G#2",
            "ticks": 116016,
            "time": 109.8635265,
            "velocity": 0.2125984251968504
          },
          {
            "duration": 0.09090900000001056,
            "durationTicks": 96,
            "midi": 49,
            "name": "C#3",
            "ticks": 116208,
            "time": 110.0453445,
            "velocity": 0.2125984251968504
          },
          {
            "duration": 0.09090899999999635,
            "durationTicks": 96,
            "midi": 37,
            "name": "C#2",
            "ticks": 116400,
            "time": 110.2271625,
            "velocity": 0.2125984251968504
          },
          {
            "duration": 0.09090900000001056,
            "durationTicks": 96,
            "midi": 44,
            "name": "G#2",
            "ticks": 116592,
            "time": 110.4089805,
            "velocity": 0.2125984251968504
          },
          {
            "duration": 0.09090899999999635,
            "durationTicks": 96,
            "midi": 39,
            "name": "D#2",
            "ticks": 116784,
            "time": 110.5907985,
            "velocity": 0.2125984251968504
          },
          {
            "duration": 0.09090900000001056,
            "durationTicks": 96,
            "midi": 46,
            "name": "A#2",
            "ticks": 116976,
            "time": 110.7726165,
            "velocity": 0.2125984251968504
          },
          {
            "duration": 0.09090899999999635,
            "durationTicks": 96,
            "midi": 51,
            "name": "D#3",
            "ticks": 117168,
            "time": 110.9544345,
            "velocity": 0.2125984251968504
          },
          {
            "duration": 0.09090900000001056,
            "durationTicks": 96,
            "midi": 39,
            "name": "D#2",
            "ticks": 117360,
            "time": 111.1362525,
            "velocity": 0.2125984251968504
          },
          {
            "duration": 0.09090899999999635,
            "durationTicks": 96,
            "midi": 46,
            "name": "A#2",
            "ticks": 117552,
            "time": 111.3180705,
            "velocity": 0.2125984251968504
          },
          {
            "duration": 0.09090899999999635,
            "durationTicks": 96,
            "midi": 51,
            "name": "D#3",
            "ticks": 117744,
            "time": 111.49988850000001,
            "velocity": 0.2125984251968504
          },
          {
            "duration": 0.09090899999999635,
            "durationTicks": 96,
            "midi": 39,
            "name": "D#2",
            "ticks": 117936,
            "time": 111.6817065,
            "velocity": 0.2125984251968504
          },
          {
            "duration": 0.09090899999999635,
            "durationTicks": 96,
            "midi": 46,
            "name": "A#2",
            "ticks": 118128,
            "time": 111.86352450000001,
            "velocity": 0.2125984251968504
          },
          {
            "duration": 0.09090899999999635,
            "durationTicks": 96,
            "midi": 35,
            "name": "B1",
            "ticks": 118320,
            "time": 112.0453425,
            "velocity": 0.2125984251968504
          },
          {
            "duration": 0.09090899999999635,
            "durationTicks": 96,
            "midi": 42,
            "name": "F#2",
            "ticks": 118512,
            "time": 112.22716050000001,
            "velocity": 0.2125984251968504
          },
          {
            "duration": 0.09090899999999635,
            "durationTicks": 96,
            "midi": 47,
            "name": "B2",
            "ticks": 118704,
            "time": 112.4089785,
            "velocity": 0.2125984251968504
          },
          {
            "duration": 0.09090899999999635,
            "durationTicks": 96,
            "midi": 35,
            "name": "B1",
            "ticks": 118896,
            "time": 112.59079650000001,
            "velocity": 0.2125984251968504
          },
          {
            "duration": 0.09090899999999635,
            "durationTicks": 96,
            "midi": 42,
            "name": "F#2",
            "ticks": 119088,
            "time": 112.7726145,
            "velocity": 0.2125984251968504
          },
          {
            "duration": 0.09090899999999635,
            "durationTicks": 96,
            "midi": 47,
            "name": "B2",
            "ticks": 119280,
            "time": 112.95443250000001,
            "velocity": 0.2125984251968504
          },
          {
            "duration": 0.09090899999999635,
            "durationTicks": 96,
            "midi": 35,
            "name": "B1",
            "ticks": 119472,
            "time": 113.1362505,
            "velocity": 0.2125984251968504
          },
          {
            "duration": 0.09090899999999635,
            "durationTicks": 96,
            "midi": 42,
            "name": "F#2",
            "ticks": 119664,
            "time": 113.31806850000001,
            "velocity": 0.2125984251968504
          },
          {
            "duration": 0.09090899999999635,
            "durationTicks": 96,
            "midi": 42,
            "name": "F#2",
            "ticks": 119856,
            "time": 113.4998865,
            "velocity": 0.2125984251968504
          },
          {
            "duration": 0.09090899999999635,
            "durationTicks": 96,
            "midi": 49,
            "name": "C#3",
            "ticks": 120048,
            "time": 113.68170450000001,
            "velocity": 0.2125984251968504
          },
          {
            "duration": 0.09090899999999635,
            "durationTicks": 96,
            "midi": 54,
            "name": "F#3",
            "ticks": 120240,
            "time": 113.8635225,
            "velocity": 0.2125984251968504
          },
          {
            "duration": 0.09090899999999635,
            "durationTicks": 96,
            "midi": 42,
            "name": "F#2",
            "ticks": 120432,
            "time": 114.04534050000001,
            "velocity": 0.2125984251968504
          },
          {
            "duration": 0.09090899999999635,
            "durationTicks": 96,
            "midi": 49,
            "name": "C#3",
            "ticks": 120624,
            "time": 114.2271585,
            "velocity": 0.2125984251968504
          },
          {
            "duration": 0.09090899999999635,
            "durationTicks": 96,
            "midi": 54,
            "name": "F#3",
            "ticks": 120816,
            "time": 114.40897650000001,
            "velocity": 0.2125984251968504
          },
          {
            "duration": 0.09090899999999635,
            "durationTicks": 96,
            "midi": 42,
            "name": "F#2",
            "ticks": 121008,
            "time": 114.5907945,
            "velocity": 0.2125984251968504
          },
          {
            "duration": 0.09090899999999635,
            "durationTicks": 96,
            "midi": 49,
            "name": "C#3",
            "ticks": 121200,
            "time": 114.77261250000001,
            "velocity": 0.2125984251968504
          },
          {
            "duration": 0.09090900000001056,
            "durationTicks": 96,
            "midi": 37,
            "name": "C#2",
            "ticks": 121392,
            "time": 114.9544305,
            "velocity": 0.2125984251968504
          },
          {
            "duration": 0.09090899999999635,
            "durationTicks": 96,
            "midi": 44,
            "name": "G#2",
            "ticks": 121584,
            "time": 115.13624850000001,
            "velocity": 0.2125984251968504
          },
          {
            "duration": 0.09090900000001056,
            "durationTicks": 96,
            "midi": 49,
            "name": "C#3",
            "ticks": 121776,
            "time": 115.3180665,
            "velocity": 0.2125984251968504
          },
          {
            "duration": 0.09090899999999635,
            "durationTicks": 96,
            "midi": 37,
            "name": "C#2",
            "ticks": 121968,
            "time": 115.49988450000001,
            "velocity": 0.2125984251968504
          },
          {
            "duration": 0.09090900000001056,
            "durationTicks": 96,
            "midi": 44,
            "name": "G#2",
            "ticks": 122160,
            "time": 115.6817025,
            "velocity": 0.2125984251968504
          },
          {
            "duration": 0.09090899999999635,
            "durationTicks": 96,
            "midi": 49,
            "name": "C#3",
            "ticks": 122352,
            "time": 115.8635205,
            "velocity": 0.2125984251968504
          },
          {
            "duration": 0.09090900000001056,
            "durationTicks": 96,
            "midi": 37,
            "name": "C#2",
            "ticks": 122544,
            "time": 116.0453385,
            "velocity": 0.2125984251968504
          },
          {
            "duration": 0.09090899999999635,
            "durationTicks": 96,
            "midi": 44,
            "name": "G#2",
            "ticks": 122736,
            "time": 116.2271565,
            "velocity": 0.2125984251968504
          },
          {
            "duration": 0.09090900000001056,
            "durationTicks": 96,
            "midi": 39,
            "name": "D#2",
            "ticks": 122928,
            "time": 116.4089745,
            "velocity": 0.2125984251968504
          },
          {
            "duration": 0.09090899999999635,
            "durationTicks": 96,
            "midi": 46,
            "name": "A#2",
            "ticks": 123120,
            "time": 116.5907925,
            "velocity": 0.2125984251968504
          },
          {
            "duration": 0.09090900000001056,
            "durationTicks": 96,
            "midi": 51,
            "name": "D#3",
            "ticks": 123312,
            "time": 116.7726105,
            "velocity": 0.2125984251968504
          },
          {
            "duration": 0.09090899999999635,
            "durationTicks": 96,
            "midi": 39,
            "name": "D#2",
            "ticks": 123504,
            "time": 116.9544285,
            "velocity": 0.2125984251968504
          },
          {
            "duration": 0.09090900000001056,
            "durationTicks": 96,
            "midi": 46,
            "name": "A#2",
            "ticks": 123696,
            "time": 117.1362465,
            "velocity": 0.2125984251968504
          },
          {
            "duration": 0.09090899999999635,
            "durationTicks": 96,
            "midi": 51,
            "name": "D#3",
            "ticks": 123888,
            "time": 117.3180645,
            "velocity": 0.2125984251968504
          },
          {
            "duration": 0.09090900000001056,
            "durationTicks": 96,
            "midi": 39,
            "name": "D#2",
            "ticks": 124080,
            "time": 117.4998825,
            "velocity": 0.2125984251968504
          },
          {
            "duration": 0.09090899999999635,
            "durationTicks": 96,
            "midi": 46,
            "name": "A#2",
            "ticks": 124272,
            "time": 117.6817005,
            "velocity": 0.2125984251968504
          },
          {
            "duration": 0.09090900000001056,
            "durationTicks": 96,
            "midi": 35,
            "name": "B1",
            "ticks": 124464,
            "time": 117.8635185,
            "velocity": 0.2125984251968504
          },
          {
            "duration": 0.09090899999999635,
            "durationTicks": 96,
            "midi": 42,
            "name": "F#2",
            "ticks": 124656,
            "time": 118.0453365,
            "velocity": 0.2125984251968504
          },
          {
            "duration": 0.09090899999999635,
            "durationTicks": 96,
            "midi": 47,
            "name": "B2",
            "ticks": 124848,
            "time": 118.22715450000001,
            "velocity": 0.2125984251968504
          },
          {
            "duration": 0.09090899999999635,
            "durationTicks": 96,
            "midi": 35,
            "name": "B1",
            "ticks": 125040,
            "time": 118.4089725,
            "velocity": 0.2125984251968504
          },
          {
            "duration": 0.09090899999999635,
            "durationTicks": 96,
            "midi": 47,
            "name": "B2",
            "ticks": 125232,
            "time": 118.59079050000001,
            "velocity": 0.2125984251968504
          },
          {
            "duration": 0.09090899999999635,
            "durationTicks": 96,
            "midi": 35,
            "name": "B1",
            "ticks": 125616,
            "time": 118.95442650000001,
            "velocity": 0.2125984251968504
          },
          {
            "duration": 0.09090899999999635,
            "durationTicks": 96,
            "midi": 54,
            "name": "F#3",
            "ticks": 126000,
            "time": 119.31806250000001,
            "velocity": 0.2125984251968504
          },
          {
            "duration": 0.09090899999999635,
            "durationTicks": 96,
            "midi": 58,
            "name": "A#3",
            "ticks": 126000,
            "time": 119.31806250000001,
            "velocity": 0.2125984251968504
          },
          {
            "duration": 0.09090899999999635,
            "durationTicks": 96,
            "midi": 66,
            "name": "F#4",
            "ticks": 126000,
            "time": 119.31806250000001,
            "velocity": 0.2125984251968504
          },
          {
            "duration": 0.09090899999999635,
            "durationTicks": 96,
            "midi": 56,
            "name": "G#3",
            "ticks": 127536,
            "time": 120.77260650000001,
            "velocity": 0.2125984251968504
          },
          {
            "duration": 0.09090899999999635,
            "durationTicks": 96,
            "midi": 66,
            "name": "F#4",
            "ticks": 127536,
            "time": 120.77260650000001,
            "velocity": 0.2125984251968504
          },
          {
            "duration": 0.09090899999999635,
            "durationTicks": 96,
            "midi": 53,
            "name": "F3",
            "ticks": 127536,
            "time": 120.77260650000001,
            "velocity": 0.2125984251968504
          },
          {
            "duration": 0.09090899999999635,
            "durationTicks": 96,
            "midi": 51,
            "name": "D#3",
            "ticks": 129072,
            "time": 122.22715050000001,
            "velocity": 0.2125984251968504
          },
          {
            "duration": 0.09090899999999635,
            "durationTicks": 96,
            "midi": 58,
            "name": "A#3",
            "ticks": 129072,
            "time": 122.22715050000001,
            "velocity": 0.2125984251968504
          },
          {
            "duration": 0.09090899999999635,
            "durationTicks": 96,
            "midi": 54,
            "name": "F#3",
            "ticks": 129072,
            "time": 122.22715050000001,
            "velocity": 0.2125984251968504
          },
          {
            "duration": 0.09090899999999635,
            "durationTicks": 96,
            "midi": 59,
            "name": "B3",
            "ticks": 130608,
            "time": 123.6816945,
            "velocity": 0.2125984251968504
          },
          {
            "duration": 0.09090899999999635,
            "durationTicks": 96,
            "midi": 54,
            "name": "F#3",
            "ticks": 130608,
            "time": 123.6816945,
            "velocity": 0.2125984251968504
          },
          {
            "duration": 0.09090899999999635,
            "durationTicks": 96,
            "midi": 51,
            "name": "D#3",
            "ticks": 130608,
            "time": 123.6816945,
            "velocity": 0.2125984251968504
          },
          {
            "duration": 0.09090899999999635,
            "durationTicks": 96,
            "midi": 66,
            "name": "F#4",
            "ticks": 132144,
            "time": 125.1362385,
            "velocity": 0.2125984251968504
          },
          {
            "duration": 0.09090899999999635,
            "durationTicks": 96,
            "midi": 58,
            "name": "A#3",
            "ticks": 132144,
            "time": 125.1362385,
            "velocity": 0.2125984251968504
          },
          {
            "duration": 0.09090899999999635,
            "durationTicks": 96,
            "midi": 54,
            "name": "F#3",
            "ticks": 132144,
            "time": 125.1362385,
            "velocity": 0.2125984251968504
          },
          {
            "duration": 0.09090899999999635,
            "durationTicks": 96,
            "midi": 53,
            "name": "F3",
            "ticks": 133680,
            "time": 126.5907825,
            "velocity": 0.2125984251968504
          },
          {
            "duration": 0.09090899999999635,
            "durationTicks": 96,
            "midi": 56,
            "name": "G#3",
            "ticks": 133680,
            "time": 126.5907825,
            "velocity": 0.2125984251968504
          },
          {
            "duration": 0.09090899999999635,
            "durationTicks": 96,
            "midi": 66,
            "name": "F#4",
            "ticks": 133680,
            "time": 126.5907825,
            "velocity": 0.2125984251968504
          },
          {
            "duration": 0.09090899999998214,
            "durationTicks": 96,
            "midi": 58,
            "name": "A#3",
            "ticks": 135216,
            "time": 128.04532650000002,
            "velocity": 0.2125984251968504
          },
          {
            "duration": 0.09090899999998214,
            "durationTicks": 96,
            "midi": 51,
            "name": "D#3",
            "ticks": 135216,
            "time": 128.04532650000002,
            "velocity": 0.2125984251968504
          },
          {
            "duration": 0.09090899999998214,
            "durationTicks": 96,
            "midi": 54,
            "name": "F#3",
            "ticks": 135216,
            "time": 128.04532650000002,
            "velocity": 0.2125984251968504
          },
          {
            "duration": 0.09090899999998214,
            "durationTicks": 96,
            "midi": 59,
            "name": "B3",
            "ticks": 136752,
            "time": 129.49987050000001,
            "velocity": 0.2125984251968504
          },
          {
            "duration": 0.09090899999998214,
            "durationTicks": 96,
            "midi": 54,
            "name": "F#3",
            "ticks": 136752,
            "time": 129.49987050000001,
            "velocity": 0.2125984251968504
          },
          {
            "duration": 0.09090899999998214,
            "durationTicks": 96,
            "midi": 51,
            "name": "D#3",
            "ticks": 136752,
            "time": 129.49987050000001,
            "velocity": 0.2125984251968504
          },
          {
            "duration": 0.09090899999998214,
            "durationTicks": 96,
            "midi": 49,
            "name": "C#3",
            "ticks": 138288,
            "time": 130.9544145,
            "velocity": 0.2125984251968504
          },
          {
            "duration": 0.09090900000001056,
            "durationTicks": 96,
            "midi": 49,
            "name": "C#3",
            "ticks": 138480,
            "time": 131.1362325,
            "velocity": 0.2125984251968504
          },
          {
            "duration": 0.09090900000001056,
            "durationTicks": 96,
            "midi": 49,
            "name": "C#3",
            "ticks": 138672,
            "time": 131.3180505,
            "velocity": 0.2125984251968504
          },
          {
            "duration": 0.09090899999998214,
            "durationTicks": 96,
            "midi": 49,
            "name": "C#3",
            "ticks": 138864,
            "time": 131.49986850000002,
            "velocity": 0.2125984251968504
          },
          {
            "duration": 0.09090899999998214,
            "durationTicks": 96,
            "midi": 49,
            "name": "C#3",
            "ticks": 139056,
            "time": 131.6816865,
            "velocity": 0.2125984251968504
          },
          {
            "duration": 0.09090900000001056,
            "durationTicks": 96,
            "midi": 49,
            "name": "C#3",
            "ticks": 139248,
            "time": 131.8635045,
            "velocity": 0.2125984251968504
          },
          {
            "duration": 0.09090900000001056,
            "durationTicks": 96,
            "midi": 49,
            "name": "C#3",
            "ticks": 139440,
            "time": 132.0453225,
            "velocity": 0.2125984251968504
          },
          {
            "duration": 0.09090899999998214,
            "durationTicks": 96,
            "midi": 49,
            "name": "C#3",
            "ticks": 139632,
            "time": 132.22714050000002,
            "velocity": 0.2125984251968504
          },
          {
            "duration": 0.09090899999998214,
            "durationTicks": 96,
            "midi": 37,
            "name": "C#2",
            "ticks": 139824,
            "time": 132.4089585,
            "velocity": 0.2125984251968504
          },
          {
            "duration": 0.09090899999998214,
            "durationTicks": 96,
            "midi": 49,
            "name": "C#3",
            "ticks": 139824,
            "time": 132.4089585,
            "velocity": 0.2125984251968504
          },
          {
            "duration": 0.09090900000001056,
            "durationTicks": 96,
            "midi": 49,
            "name": "C#3",
            "ticks": 140016,
            "time": 132.5907765,
            "velocity": 0.2125984251968504
          },
          {
            "duration": 0.09090900000001056,
            "durationTicks": 96,
            "midi": 37,
            "name": "C#2",
            "ticks": 140016,
            "time": 132.5907765,
            "velocity": 0.2125984251968504
          },
          {
            "duration": 0.09090900000001056,
            "durationTicks": 96,
            "midi": 49,
            "name": "C#3",
            "ticks": 140208,
            "time": 132.7725945,
            "velocity": 0.2125984251968504
          },
          {
            "duration": 0.09090900000001056,
            "durationTicks": 96,
            "midi": 37,
            "name": "C#2",
            "ticks": 140208,
            "time": 132.7725945,
            "velocity": 0.2125984251968504
          },
          {
            "duration": 0.09090899999998214,
            "durationTicks": 96,
            "midi": 49,
            "name": "C#3",
            "ticks": 140400,
            "time": 132.95441250000002,
            "velocity": 0.2125984251968504
          },
          {
            "duration": 0.09090899999998214,
            "durationTicks": 96,
            "midi": 37,
            "name": "C#2",
            "ticks": 140400,
            "time": 132.95441250000002,
            "velocity": 0.2125984251968504
          },
          {
            "duration": 0.09090899999998214,
            "durationTicks": 96,
            "midi": 37,
            "name": "C#2",
            "ticks": 140592,
            "time": 133.1362305,
            "velocity": 0.2125984251968504
          },
          {
            "duration": 0.09090899999998214,
            "durationTicks": 96,
            "midi": 49,
            "name": "C#3",
            "ticks": 140592,
            "time": 133.1362305,
            "velocity": 0.2125984251968504
          },
          {
            "duration": 0.09090900000001056,
            "durationTicks": 96,
            "midi": 37,
            "name": "C#2",
            "ticks": 140976,
            "time": 133.4998665,
            "velocity": 0.2125984251968504
          },
          {
            "duration": 0.09090900000001056,
            "durationTicks": 96,
            "midi": 49,
            "name": "C#3",
            "ticks": 140976,
            "time": 133.4998665,
            "velocity": 0.2125984251968504
          },
          {
            "duration": 0.09090899999998214,
            "durationTicks": 96,
            "midi": 42,
            "name": "F#2",
            "ticks": 141360,
            "time": 133.8635025,
            "velocity": 0.2125984251968504
          },
          {
            "duration": 0.09090900000001056,
            "durationTicks": 96,
            "midi": 49,
            "name": "C#3",
            "ticks": 141552,
            "time": 134.0453205,
            "velocity": 0.2125984251968504
          },
          {
            "duration": 0.09090900000001056,
            "durationTicks": 96,
            "midi": 54,
            "name": "F#3",
            "ticks": 141744,
            "time": 134.2271385,
            "velocity": 0.2125984251968504
          },
          {
            "duration": 0.09090899999998214,
            "durationTicks": 96,
            "midi": 42,
            "name": "F#2",
            "ticks": 141936,
            "time": 134.40895650000002,
            "velocity": 0.2125984251968504
          },
          {
            "duration": 0.09090900000001056,
            "durationTicks": 96,
            "midi": 49,
            "name": "C#3",
            "ticks": 142128,
            "time": 134.5907745,
            "velocity": 0.2125984251968504
          },
          {
            "duration": 0.09090900000001056,
            "durationTicks": 96,
            "midi": 54,
            "name": "F#3",
            "ticks": 142320,
            "time": 134.7725925,
            "velocity": 0.2125984251968504
          },
          {
            "duration": 0.09090900000001056,
            "durationTicks": 96,
            "midi": 42,
            "name": "F#2",
            "ticks": 142512,
            "time": 134.9544105,
            "velocity": 0.2125984251968504
          },
          {
            "duration": 0.09090899999998214,
            "durationTicks": 96,
            "midi": 49,
            "name": "C#3",
            "ticks": 142704,
            "time": 135.13622850000002,
            "velocity": 0.2125984251968504
          },
          {
            "duration": 0.09090900000001056,
            "durationTicks": 96,
            "midi": 37,
            "name": "C#2",
            "ticks": 142896,
            "time": 135.3180465,
            "velocity": 0.2125984251968504
          },
          {
            "duration": 0.09090900000001056,
            "durationTicks": 96,
            "midi": 44,
            "name": "G#2",
            "ticks": 143088,
            "time": 135.4998645,
            "velocity": 0.2125984251968504
          },
          {
            "duration": 0.09090900000001056,
            "durationTicks": 96,
            "midi": 49,
            "name": "C#3",
            "ticks": 143280,
            "time": 135.6816825,
            "velocity": 0.2125984251968504
          },
          {
            "duration": 0.09090899999998214,
            "durationTicks": 96,
            "midi": 37,
            "name": "C#2",
            "ticks": 143472,
            "time": 135.86350050000001,
            "velocity": 0.2125984251968504
          },
          {
            "duration": 0.09090900000001056,
            "durationTicks": 96,
            "midi": 44,
            "name": "G#2",
            "ticks": 143664,
            "time": 136.0453185,
            "velocity": 0.2125984251968504
          },
          {
            "duration": 0.09090900000001056,
            "durationTicks": 96,
            "midi": 49,
            "name": "C#3",
            "ticks": 143856,
            "time": 136.2271365,
            "velocity": 0.2125984251968504
          },
          {
            "duration": 0.09090900000001056,
            "durationTicks": 96,
            "midi": 37,
            "name": "C#2",
            "ticks": 144048,
            "time": 136.4089545,
            "velocity": 0.2125984251968504
          },
          {
            "duration": 0.09090899999998214,
            "durationTicks": 96,
            "midi": 44,
            "name": "G#2",
            "ticks": 144240,
            "time": 136.5907725,
            "velocity": 0.2125984251968504
          },
          {
            "duration": 0.09090900000001056,
            "durationTicks": 96,
            "midi": 39,
            "name": "D#2",
            "ticks": 144432,
            "time": 136.7725905,
            "velocity": 0.2125984251968504
          },
          {
            "duration": 0.09090900000001056,
            "durationTicks": 96,
            "midi": 46,
            "name": "A#2",
            "ticks": 144624,
            "time": 136.9544085,
            "velocity": 0.2125984251968504
          },
          {
            "duration": 0.09090900000001056,
            "durationTicks": 96,
            "midi": 51,
            "name": "D#3",
            "ticks": 144816,
            "time": 137.1362265,
            "velocity": 0.2125984251968504
          },
          {
            "duration": 0.09090899999998214,
            "durationTicks": 96,
            "midi": 39,
            "name": "D#2",
            "ticks": 145008,
            "time": 137.3180445,
            "velocity": 0.2125984251968504
          },
          {
            "duration": 0.09090900000001056,
            "durationTicks": 96,
            "midi": 46,
            "name": "A#2",
            "ticks": 145200,
            "time": 137.4998625,
            "velocity": 0.2125984251968504
          },
          {
            "duration": 0.09090900000001056,
            "durationTicks": 96,
            "midi": 51,
            "name": "D#3",
            "ticks": 145392,
            "time": 137.6816805,
            "velocity": 0.2125984251968504
          },
          {
            "duration": 0.09090900000001056,
            "durationTicks": 96,
            "midi": 39,
            "name": "D#2",
            "ticks": 145584,
            "time": 137.8634985,
            "velocity": 0.2125984251968504
          },
          {
            "duration": 0.09090899999998214,
            "durationTicks": 96,
            "midi": 46,
            "name": "A#2",
            "ticks": 145776,
            "time": 138.0453165,
            "velocity": 0.2125984251968504
          },
          {
            "duration": 0.09090900000001056,
            "durationTicks": 96,
            "midi": 35,
            "name": "B1",
            "ticks": 145968,
            "time": 138.2271345,
            "velocity": 0.2125984251968504
          },
          {
            "duration": 0.09090900000001056,
            "durationTicks": 96,
            "midi": 42,
            "name": "F#2",
            "ticks": 146160,
            "time": 138.4089525,
            "velocity": 0.2125984251968504
          },
          {
            "duration": 0.09090899999998214,
            "durationTicks": 96,
            "midi": 47,
            "name": "B2",
            "ticks": 146352,
            "time": 138.59077050000002,
            "velocity": 0.2125984251968504
          },
          {
            "duration": 0.09090899999998214,
            "durationTicks": 96,
            "midi": 35,
            "name": "B1",
            "ticks": 146544,
            "time": 138.7725885,
            "velocity": 0.2125984251968504
          },
          {
            "duration": 0.09090900000001056,
            "durationTicks": 96,
            "midi": 42,
            "name": "F#2",
            "ticks": 146736,
            "time": 138.9544065,
            "velocity": 0.2125984251968504
          },
          {
            "duration": 0.09090900000001056,
            "durationTicks": 96,
            "midi": 47,
            "name": "B2",
            "ticks": 146928,
            "time": 139.1362245,
            "velocity": 0.2125984251968504
          },
          {
            "duration": 0.09090899999998214,
            "durationTicks": 96,
            "midi": 35,
            "name": "B1",
            "ticks": 147120,
            "time": 139.31804250000002,
            "velocity": 0.2125984251968504
          },
          {
            "duration": 0.09090899999998214,
            "durationTicks": 96,
            "midi": 42,
            "name": "F#2",
            "ticks": 147312,
            "time": 139.4998605,
            "velocity": 0.2125984251968504
          },
          {
            "duration": 0.09090900000001056,
            "durationTicks": 96,
            "midi": 42,
            "name": "F#2",
            "ticks": 147504,
            "time": 139.6816785,
            "velocity": 0.2125984251968504
          },
          {
            "duration": 0.09090900000001056,
            "durationTicks": 96,
            "midi": 49,
            "name": "C#3",
            "ticks": 147696,
            "time": 139.8634965,
            "velocity": 0.2125984251968504
          },
          {
            "duration": 0.09090899999998214,
            "durationTicks": 96,
            "midi": 54,
            "name": "F#3",
            "ticks": 147888,
            "time": 140.04531450000002,
            "velocity": 0.2125984251968504
          },
          {
            "duration": 0.09090899999998214,
            "durationTicks": 96,
            "midi": 42,
            "name": "F#2",
            "ticks": 148080,
            "time": 140.2271325,
            "velocity": 0.2125984251968504
          },
          {
            "duration": 0.09090900000001056,
            "durationTicks": 96,
            "midi": 49,
            "name": "C#3",
            "ticks": 148272,
            "time": 140.4089505,
            "velocity": 0.2125984251968504
          },
          {
            "duration": 0.09090900000001056,
            "durationTicks": 96,
            "midi": 54,
            "name": "F#3",
            "ticks": 148464,
            "time": 140.5907685,
            "velocity": 0.2125984251968504
          },
          {
            "duration": 0.09090899999998214,
            "durationTicks": 96,
            "midi": 42,
            "name": "F#2",
            "ticks": 148656,
            "time": 140.77258650000002,
            "velocity": 0.2125984251968504
          },
          {
            "duration": 0.09090899999998214,
            "durationTicks": 96,
            "midi": 49,
            "name": "C#3",
            "ticks": 148848,
            "time": 140.9544045,
            "velocity": 0.2125984251968504
          },
          {
            "duration": 0.09090900000001056,
            "durationTicks": 96,
            "midi": 37,
            "name": "C#2",
            "ticks": 149040,
            "time": 141.1362225,
            "velocity": 0.2125984251968504
          },
          {
            "duration": 0.09090900000001056,
            "durationTicks": 96,
            "midi": 44,
            "name": "G#2",
            "ticks": 149232,
            "time": 141.3180405,
            "velocity": 0.2125984251968504
          },
          {
            "duration": 0.09090899999998214,
            "durationTicks": 96,
            "midi": 49,
            "name": "C#3",
            "ticks": 149424,
            "time": 141.49985850000002,
            "velocity": 0.2125984251968504
          },
          {
            "duration": 0.09090900000001056,
            "durationTicks": 96,
            "midi": 37,
            "name": "C#2",
            "ticks": 149616,
            "time": 141.6816765,
            "velocity": 0.2125984251968504
          },
          {
            "duration": 0.09090900000001056,
            "durationTicks": 96,
            "midi": 44,
            "name": "G#2",
            "ticks": 149808,
            "time": 141.8634945,
            "velocity": 0.2125984251968504
          },
          {
            "duration": 0.09090900000001056,
            "durationTicks": 96,
            "midi": 49,
            "name": "C#3",
            "ticks": 150000,
            "time": 142.0453125,
            "velocity": 0.2125984251968504
          },
          {
            "duration": 0.09090899999998214,
            "durationTicks": 96,
            "midi": 37,
            "name": "C#2",
            "ticks": 150192,
            "time": 142.22713050000002,
            "velocity": 0.2125984251968504
          },
          {
            "duration": 0.09090900000001056,
            "durationTicks": 96,
            "midi": 44,
            "name": "G#2",
            "ticks": 150384,
            "time": 142.4089485,
            "velocity": 0.2125984251968504
          },
          {
            "duration": 0.09090900000001056,
            "durationTicks": 96,
            "midi": 39,
            "name": "D#2",
            "ticks": 150576,
            "time": 142.5907665,
            "velocity": 0.2125984251968504
          },
          {
            "duration": 0.09090900000001056,
            "durationTicks": 96,
            "midi": 46,
            "name": "A#2",
            "ticks": 150768,
            "time": 142.7725845,
            "velocity": 0.2125984251968504
          },
          {
            "duration": 0.09090899999998214,
            "durationTicks": 96,
            "midi": 51,
            "name": "D#3",
            "ticks": 150960,
            "time": 142.95440250000001,
            "velocity": 0.2125984251968504
          },
          {
            "duration": 0.09090900000001056,
            "durationTicks": 96,
            "midi": 39,
            "name": "D#2",
            "ticks": 151152,
            "time": 143.1362205,
            "velocity": 0.2125984251968504
          },
          {
            "duration": 0.09090900000001056,
            "durationTicks": 96,
            "midi": 46,
            "name": "A#2",
            "ticks": 151344,
            "time": 143.3180385,
            "velocity": 0.2125984251968504
          },
          {
            "duration": 0.09090900000001056,
            "durationTicks": 96,
            "midi": 51,
            "name": "D#3",
            "ticks": 151536,
            "time": 143.4998565,
            "velocity": 0.2125984251968504
          },
          {
            "duration": 0.09090899999998214,
            "durationTicks": 96,
            "midi": 39,
            "name": "D#2",
            "ticks": 151728,
            "time": 143.6816745,
            "velocity": 0.2125984251968504
          },
          {
            "duration": 0.09090900000001056,
            "durationTicks": 96,
            "midi": 46,
            "name": "A#2",
            "ticks": 151920,
            "time": 143.8634925,
            "velocity": 0.2125984251968504
          },
          {
            "duration": 0.09090900000001056,
            "durationTicks": 96,
            "midi": 35,
            "name": "B1",
            "ticks": 152112,
            "time": 144.0453105,
            "velocity": 0.2125984251968504
          },
          {
            "duration": 0.09090900000001056,
            "durationTicks": 96,
            "midi": 35,
            "name": "B1",
            "ticks": 152112,
            "time": 144.0453105,
            "velocity": 0.2125984251968504
          },
          {
            "duration": 0.09090900000001056,
            "durationTicks": 96,
            "midi": 47,
            "name": "B2",
            "ticks": 152304,
            "time": 144.2271285,
            "velocity": 0.2125984251968504
          },
          {
            "duration": 0.09090900000001056,
            "durationTicks": 96,
            "midi": 47,
            "name": "B2",
            "ticks": 152304,
            "time": 144.2271285,
            "velocity": 0.2125984251968504
          },
          {
            "duration": 0.09090899999998214,
            "durationTicks": 96,
            "midi": 35,
            "name": "B1",
            "ticks": 152496,
            "time": 144.4089465,
            "velocity": 0.2125984251968504
          },
          {
            "duration": 0.09090899999998214,
            "durationTicks": 96,
            "midi": 35,
            "name": "B1",
            "ticks": 152496,
            "time": 144.4089465,
            "velocity": 0.2125984251968504
          },
          {
            "duration": 0.09090900000001056,
            "durationTicks": 96,
            "midi": 47,
            "name": "B2",
            "ticks": 152688,
            "time": 144.5907645,
            "velocity": 0.2125984251968504
          },
          {
            "duration": 0.09090900000001056,
            "durationTicks": 96,
            "midi": 47,
            "name": "B2",
            "ticks": 152688,
            "time": 144.5907645,
            "velocity": 0.2125984251968504
          },
          {
            "duration": 0.09090900000001056,
            "durationTicks": 96,
            "midi": 35,
            "name": "B1",
            "ticks": 152880,
            "time": 144.7725825,
            "velocity": 0.2125984251968504
          },
          {
            "duration": 0.09090900000001056,
            "durationTicks": 96,
            "midi": 35,
            "name": "B1",
            "ticks": 152880,
            "time": 144.7725825,
            "velocity": 0.2125984251968504
          },
          {
            "duration": 0.09090899999998214,
            "durationTicks": 96,
            "midi": 47,
            "name": "B2",
            "ticks": 153072,
            "time": 144.95440050000002,
            "velocity": 0.2125984251968504
          },
          {
            "duration": 0.09090899999998214,
            "durationTicks": 96,
            "midi": 47,
            "name": "B2",
            "ticks": 153072,
            "time": 144.95440050000002,
            "velocity": 0.2125984251968504
          },
          {
            "duration": 0.09090899999998214,
            "durationTicks": 96,
            "midi": 35,
            "name": "B1",
            "ticks": 153264,
            "time": 145.1362185,
            "velocity": 0.2125984251968504
          },
          {
            "duration": 0.09090899999998214,
            "durationTicks": 96,
            "midi": 35,
            "name": "B1",
            "ticks": 153264,
            "time": 145.1362185,
            "velocity": 0.2125984251968504
          },
          {
            "duration": 0.09090900000001056,
            "durationTicks": 96,
            "midi": 47,
            "name": "B2",
            "ticks": 153456,
            "time": 145.3180365,
            "velocity": 0.2125984251968504
          },
          {
            "duration": 0.09090900000001056,
            "durationTicks": 96,
            "midi": 47,
            "name": "B2",
            "ticks": 153456,
            "time": 145.3180365,
            "velocity": 0.2125984251968504
          },
          {
            "duration": 0.09090900000001056,
            "durationTicks": 96,
            "midi": 42,
            "name": "F#2",
            "ticks": 153648,
            "time": 145.4998545,
            "velocity": 0.2125984251968504
          },
          {
            "duration": 0.09090899999998214,
            "durationTicks": 96,
            "midi": 49,
            "name": "C#3",
            "ticks": 153840,
            "time": 145.68167250000002,
            "velocity": 0.2125984251968504
          },
          {
            "duration": 0.09090899999998214,
            "durationTicks": 96,
            "midi": 54,
            "name": "F#3",
            "ticks": 154032,
            "time": 145.8634905,
            "velocity": 0.2125984251968504
          },
          {
            "duration": 0.09090900000001056,
            "durationTicks": 96,
            "midi": 42,
            "name": "F#2",
            "ticks": 154224,
            "time": 146.0453085,
            "velocity": 0.2125984251968504
          },
          {
            "duration": 0.09090900000001056,
            "durationTicks": 96,
            "midi": 49,
            "name": "C#3",
            "ticks": 154416,
            "time": 146.2271265,
            "velocity": 0.2125984251968504
          },
          {
            "duration": 0.09090899999998214,
            "durationTicks": 96,
            "midi": 54,
            "name": "F#3",
            "ticks": 154608,
            "time": 146.40894450000002,
            "velocity": 0.2125984251968504
          },
          {
            "duration": 0.09090899999998214,
            "durationTicks": 96,
            "midi": 42,
            "name": "F#2",
            "ticks": 154800,
            "time": 146.5907625,
            "velocity": 0.2125984251968504
          },
          {
            "duration": 0.09090900000001056,
            "durationTicks": 96,
            "midi": 37,
            "name": "C#2",
            "ticks": 154992,
            "time": 146.7725805,
            "velocity": 0.2125984251968504
          },
          {
            "duration": 0.09090900000001056,
            "durationTicks": 96,
            "midi": 37,
            "name": "C#2",
            "ticks": 154992,
            "time": 146.7725805,
            "velocity": 0.2125984251968504
          },
          {
            "duration": 0.09090900000001056,
            "durationTicks": 96,
            "midi": 44,
            "name": "G#2",
            "ticks": 155184,
            "time": 146.9543985,
            "velocity": 0.2125984251968504
          },
          {
            "duration": 0.09090899999998214,
            "durationTicks": 96,
            "midi": 49,
            "name": "C#3",
            "ticks": 155376,
            "time": 147.13621650000002,
            "velocity": 0.2125984251968504
          },
          {
            "duration": 0.09090899999998214,
            "durationTicks": 96,
            "midi": 37,
            "name": "C#2",
            "ticks": 155568,
            "time": 147.3180345,
            "velocity": 0.2125984251968504
          },
          {
            "duration": 0.09090900000001056,
            "durationTicks": 96,
            "midi": 44,
            "name": "G#2",
            "ticks": 155760,
            "time": 147.4998525,
            "velocity": 0.2125984251968504
          },
          {
            "duration": 0.09090900000001056,
            "durationTicks": 96,
            "midi": 49,
            "name": "C#3",
            "ticks": 155952,
            "time": 147.6816705,
            "velocity": 0.2125984251968504
          },
          {
            "duration": 0.09090899999998214,
            "durationTicks": 96,
            "midi": 37,
            "name": "C#2",
            "ticks": 156144,
            "time": 147.86348850000002,
            "velocity": 0.2125984251968504
          },
          {
            "duration": 0.09090900000001056,
            "durationTicks": 96,
            "midi": 44,
            "name": "G#2",
            "ticks": 156336,
            "time": 148.0453065,
            "velocity": 0.2125984251968504
          },
          {
            "duration": 0.09090900000001056,
            "durationTicks": 96,
            "midi": 49,
            "name": "C#3",
            "ticks": 156528,
            "time": 148.2271245,
            "velocity": 0.2125984251968504
          },
          {
            "duration": 0.09090900000001056,
            "durationTicks": 96,
            "midi": 39,
            "name": "D#2",
            "ticks": 156720,
            "time": 148.4089425,
            "velocity": 0.2125984251968504
          },
          {
            "duration": 0.09090899999998214,
            "durationTicks": 96,
            "midi": 46,
            "name": "A#2",
            "ticks": 156912,
            "time": 148.59076050000002,
            "velocity": 0.2125984251968504
          },
          {
            "duration": 0.09090900000001056,
            "durationTicks": 96,
            "midi": 51,
            "name": "D#3",
            "ticks": 157104,
            "time": 148.7725785,
            "velocity": 0.2125984251968504
          },
          {
            "duration": 0.09090900000001056,
            "durationTicks": 96,
            "midi": 39,
            "name": "D#2",
            "ticks": 157296,
            "time": 148.9543965,
            "velocity": 0.2125984251968504
          },
          {
            "duration": 0.09090900000001056,
            "durationTicks": 96,
            "midi": 46,
            "name": "A#2",
            "ticks": 157488,
            "time": 149.1362145,
            "velocity": 0.2125984251968504
          },
          {
            "duration": 0.09090899999998214,
            "durationTicks": 96,
            "midi": 51,
            "name": "D#3",
            "ticks": 157680,
            "time": 149.31803250000002,
            "velocity": 0.2125984251968504
          },
          {
            "duration": 0.09090900000001056,
            "durationTicks": 96,
            "midi": 39,
            "name": "D#2",
            "ticks": 157872,
            "time": 149.4998505,
            "velocity": 0.2125984251968504
          },
          {
            "duration": 0.09090900000001056,
            "durationTicks": 96,
            "midi": 35,
            "name": "B1",
            "ticks": 158064,
            "time": 149.6816685,
            "velocity": 0.2125984251968504
          },
          {
            "duration": 0.09090900000001056,
            "durationTicks": 96,
            "midi": 42,
            "name": "F#2",
            "ticks": 158256,
            "time": 149.8634865,
            "velocity": 0.2125984251968504
          },
          {
            "duration": 0.09090899999998214,
            "durationTicks": 96,
            "midi": 47,
            "name": "B2",
            "ticks": 158448,
            "time": 150.04530450000001,
            "velocity": 0.2125984251968504
          },
          {
            "duration": 0.09090900000001056,
            "durationTicks": 96,
            "midi": 35,
            "name": "B1",
            "ticks": 158640,
            "time": 150.2271225,
            "velocity": 0.2125984251968504
          },
          {
            "duration": 0.09090900000001056,
            "durationTicks": 96,
            "midi": 42,
            "name": "F#2",
            "ticks": 158832,
            "time": 150.4089405,
            "velocity": 0.2125984251968504
          },
          {
            "duration": 0.09090900000001056,
            "durationTicks": 96,
            "midi": 47,
            "name": "B2",
            "ticks": 159024,
            "time": 150.5907585,
            "velocity": 0.2125984251968504
          },
          {
            "duration": 0.09090899999998214,
            "durationTicks": 96,
            "midi": 35,
            "name": "B1",
            "ticks": 159216,
            "time": 150.7725765,
            "velocity": 0.2125984251968504
          },
          {
            "duration": 0.09090900000001056,
            "durationTicks": 96,
            "midi": 42,
            "name": "F#2",
            "ticks": 159408,
            "time": 150.9543945,
            "velocity": 0.2125984251968504
          },
          {
            "duration": 0.09090900000001056,
            "durationTicks": 96,
            "midi": 47,
            "name": "B2",
            "ticks": 159600,
            "time": 151.1362125,
            "velocity": 0.2125984251968504
          },
          {
            "duration": 0.09090899999998214,
            "durationTicks": 96,
            "midi": 42,
            "name": "F#2",
            "ticks": 159792,
            "time": 151.31803050000002,
            "velocity": 0.2125984251968504
          },
          {
            "duration": 0.09090899999998214,
            "durationTicks": 96,
            "midi": 49,
            "name": "C#3",
            "ticks": 159984,
            "time": 151.4998485,
            "velocity": 0.2125984251968504
          },
          {
            "duration": 0.09090900000001056,
            "durationTicks": 96,
            "midi": 54,
            "name": "F#3",
            "ticks": 160176,
            "time": 151.6816665,
            "velocity": 0.2125984251968504
          },
          {
            "duration": 0.09090900000001056,
            "durationTicks": 96,
            "midi": 42,
            "name": "F#2",
            "ticks": 160368,
            "time": 151.8634845,
            "velocity": 0.2125984251968504
          },
          {
            "duration": 0.09090899999998214,
            "durationTicks": 96,
            "midi": 49,
            "name": "C#3",
            "ticks": 160560,
            "time": 152.04530250000002,
            "velocity": 0.2125984251968504
          },
          {
            "duration": 0.09090899999998214,
            "durationTicks": 96,
            "midi": 54,
            "name": "F#3",
            "ticks": 160752,
            "time": 152.2271205,
            "velocity": 0.2125984251968504
          },
          {
            "duration": 0.09090900000001056,
            "durationTicks": 96,
            "midi": 42,
            "name": "F#2",
            "ticks": 160944,
            "time": 152.4089385,
            "velocity": 0.2125984251968504
          },
          {
            "duration": 0.09090900000001056,
            "durationTicks": 96,
            "midi": 37,
            "name": "C#2",
            "ticks": 161136,
            "time": 152.5907565,
            "velocity": 0.2125984251968504
          },
          {
            "duration": 0.09090899999998214,
            "durationTicks": 96,
            "midi": 44,
            "name": "G#2",
            "ticks": 161328,
            "time": 152.77257450000002,
            "velocity": 0.2125984251968504
          },
          {
            "duration": 0.09090899999998214,
            "durationTicks": 96,
            "midi": 49,
            "name": "C#3",
            "ticks": 161520,
            "time": 152.9543925,
            "velocity": 0.2125984251968504
          },
          {
            "duration": 0.09090900000001056,
            "durationTicks": 96,
            "midi": 37,
            "name": "C#2",
            "ticks": 161712,
            "time": 153.1362105,
            "velocity": 0.2125984251968504
          },
          {
            "duration": 0.09090900000001056,
            "durationTicks": 96,
            "midi": 44,
            "name": "G#2",
            "ticks": 161904,
            "time": 153.3180285,
            "velocity": 0.2125984251968504
          },
          {
            "duration": 0.09090899999998214,
            "durationTicks": 96,
            "midi": 49,
            "name": "C#3",
            "ticks": 162096,
            "time": 153.49984650000002,
            "velocity": 0.2125984251968504
          },
          {
            "duration": 0.09090899999998214,
            "durationTicks": 96,
            "midi": 37,
            "name": "C#2",
            "ticks": 162288,
            "time": 153.6816645,
            "velocity": 0.2125984251968504
          },
          {
            "duration": 0.09090900000001056,
            "durationTicks": 96,
            "midi": 44,
            "name": "G#2",
            "ticks": 162480,
            "time": 153.8634825,
            "velocity": 0.2125984251968504
          },
          {
            "duration": 0.09090900000001056,
            "durationTicks": 96,
            "midi": 49,
            "name": "C#3",
            "ticks": 162672,
            "time": 154.0453005,
            "velocity": 0.2125984251968504
          },
          {
            "duration": 0.09090899999998214,
            "durationTicks": 96,
            "midi": 39,
            "name": "D#2",
            "ticks": 162864,
            "time": 154.22711850000002,
            "velocity": 0.2125984251968504
          },
          {
            "duration": 0.09090899999998214,
            "durationTicks": 96,
            "midi": 46,
            "name": "A#2",
            "ticks": 163056,
            "time": 154.4089365,
            "velocity": 0.2125984251968504
          },
          {
            "duration": 0.09090900000001056,
            "durationTicks": 96,
            "midi": 51,
            "name": "D#3",
            "ticks": 163248,
            "time": 154.5907545,
            "velocity": 0.2125984251968504
          },
          {
            "duration": 0.09090900000001056,
            "durationTicks": 96,
            "midi": 39,
            "name": "D#2",
            "ticks": 163440,
            "time": 154.7725725,
            "velocity": 0.2125984251968504
          },
          {
            "duration": 0.09090899999998214,
            "durationTicks": 96,
            "midi": 46,
            "name": "A#2",
            "ticks": 163632,
            "time": 154.95439050000002,
            "velocity": 0.2125984251968504
          },
          {
            "duration": 0.09090900000001056,
            "durationTicks": 96,
            "midi": 51,
            "name": "D#3",
            "ticks": 163824,
            "time": 155.1362085,
            "velocity": 0.2125984251968504
          },
          {
            "duration": 0.09090900000001056,
            "durationTicks": 96,
            "midi": 42,
            "name": "F#2",
            "ticks": 164016,
            "time": 155.3180265,
            "velocity": 0.2125984251968504
          },
          {
            "duration": 0.09090900000001056,
            "durationTicks": 96,
            "midi": 35,
            "name": "B1",
            "ticks": 164208,
            "time": 155.4998445,
            "velocity": 0.2125984251968504
          },
          {
            "duration": 0.09090899999998214,
            "durationTicks": 96,
            "midi": 42,
            "name": "F#2",
            "ticks": 164400,
            "time": 155.68166250000002,
            "velocity": 0.2125984251968504
          },
          {
            "duration": 0.09090900000001056,
            "durationTicks": 96,
            "midi": 47,
            "name": "B2",
            "ticks": 164592,
            "time": 155.8634805,
            "velocity": 0.2125984251968504
          },
          {
            "duration": 0.09090900000001056,
            "durationTicks": 96,
            "midi": 35,
            "name": "B1",
            "ticks": 164784,
            "time": 156.0452985,
            "velocity": 0.2125984251968504
          },
          {
            "duration": 0.09090900000001056,
            "durationTicks": 96,
            "midi": 42,
            "name": "F#2",
            "ticks": 164976,
            "time": 156.2271165,
            "velocity": 0.2125984251968504
          },
          {
            "duration": 0.09090899999998214,
            "durationTicks": 96,
            "midi": 47,
            "name": "B2",
            "ticks": 165168,
            "time": 156.40893450000002,
            "velocity": 0.2125984251968504
          },
          {
            "duration": 0.09090900000001056,
            "durationTicks": 96,
            "midi": 42,
            "name": "F#2",
            "ticks": 165360,
            "time": 156.5907525,
            "velocity": 0.2125984251968504
          },
          {
            "duration": 0.09090900000001056,
            "durationTicks": 96,
            "midi": 35,
            "name": "B1",
            "ticks": 165552,
            "time": 156.7725705,
            "velocity": 0.2125984251968504
          },
          {
            "duration": 0.09090900000001056,
            "durationTicks": 96,
            "midi": 39,
            "name": "D#2",
            "ticks": 165744,
            "time": 156.9543885,
            "velocity": 0.2125984251968504
          },
          {
            "duration": 0.09090899999998214,
            "durationTicks": 96,
            "midi": 42,
            "name": "F#2",
            "ticks": 165936,
            "time": 157.13620650000001,
            "velocity": 0.2125984251968504
          },
          {
            "duration": 0.09090900000001056,
            "durationTicks": 96,
            "midi": 49,
            "name": "C#3",
            "ticks": 166128,
            "time": 157.3180245,
            "velocity": 0.2125984251968504
          },
          {
            "duration": 0.09090900000001056,
            "durationTicks": 96,
            "midi": 54,
            "name": "F#3",
            "ticks": 166320,
            "time": 157.4998425,
            "velocity": 0.2125984251968504
          },
          {
            "duration": 0.09090900000001056,
            "durationTicks": 96,
            "midi": 42,
            "name": "F#2",
            "ticks": 166512,
            "time": 157.6816605,
            "velocity": 0.2125984251968504
          },
          {
            "duration": 0.09090899999998214,
            "durationTicks": 96,
            "midi": 49,
            "name": "C#3",
            "ticks": 166704,
            "time": 157.8634785,
            "velocity": 0.2125984251968504
          },
          {
            "duration": 0.09090900000001056,
            "durationTicks": 96,
            "midi": 54,
            "name": "F#3",
            "ticks": 166896,
            "time": 158.0452965,
            "velocity": 0.2125984251968504
          },
          {
            "duration": 0.09090900000001056,
            "durationTicks": 96,
            "midi": 42,
            "name": "F#2",
            "ticks": 167088,
            "time": 158.2271145,
            "velocity": 0.2125984251968504
          },
          {
            "duration": 0.09090899999998214,
            "durationTicks": 96,
            "midi": 37,
            "name": "C#2",
            "ticks": 167280,
            "time": 158.40893250000002,
            "velocity": 0.2125984251968504
          },
          {
            "duration": 0.09090899999998214,
            "durationTicks": 96,
            "midi": 37,
            "name": "C#2",
            "ticks": 167280,
            "time": 158.40893250000002,
            "velocity": 0.2125984251968504
          },
          {
            "duration": 0.09090899999998214,
            "durationTicks": 96,
            "midi": 44,
            "name": "G#2",
            "ticks": 167472,
            "time": 158.5907505,
            "velocity": 0.2125984251968504
          },
          {
            "duration": 0.09090900000001056,
            "durationTicks": 96,
            "midi": 49,
            "name": "C#3",
            "ticks": 167664,
            "time": 158.7725685,
            "velocity": 0.2125984251968504
          },
          {
            "duration": 0.09090900000001056,
            "durationTicks": 96,
            "midi": 37,
            "name": "C#2",
            "ticks": 167856,
            "time": 158.9543865,
            "velocity": 0.2125984251968504
          },
          {
            "duration": 0.09090899999998214,
            "durationTicks": 96,
            "midi": 44,
            "name": "G#2",
            "ticks": 168048,
            "time": 159.13620450000002,
            "velocity": 0.2125984251968504
          },
          {
            "duration": 0.09090899999998214,
            "durationTicks": 96,
            "midi": 49,
            "name": "C#3",
            "ticks": 168240,
            "time": 159.3180225,
            "velocity": 0.2125984251968504
          },
          {
            "duration": 0.09090900000001056,
            "durationTicks": 96,
            "midi": 37,
            "name": "C#2",
            "ticks": 168432,
            "time": 159.4998405,
            "velocity": 0.2125984251968504
          },
          {
            "duration": 0.09090900000001056,
            "durationTicks": 96,
            "midi": 44,
            "name": "G#2",
            "ticks": 168624,
            "time": 159.6816585,
            "velocity": 0.2125984251968504
          },
          {
            "duration": 0.09090899999998214,
            "durationTicks": 96,
            "midi": 49,
            "name": "C#3",
            "ticks": 168816,
            "time": 159.86347650000002,
            "velocity": 0.2125984251968504
          },
          {
            "duration": 0.09090899999998214,
            "durationTicks": 96,
            "midi": 39,
            "name": "D#2",
            "ticks": 169008,
            "time": 160.0452945,
            "velocity": 0.2125984251968504
          },
          {
            "duration": 0.09090900000001056,
            "durationTicks": 96,
            "midi": 46,
            "name": "A#2",
            "ticks": 169200,
            "time": 160.2271125,
            "velocity": 0.2125984251968504
          },
          {
            "duration": 0.09090900000001056,
            "durationTicks": 96,
            "midi": 51,
            "name": "D#3",
            "ticks": 169392,
            "time": 160.4089305,
            "velocity": 0.2125984251968504
          },
          {
            "duration": 0.09090899999998214,
            "durationTicks": 96,
            "midi": 39,
            "name": "D#2",
            "ticks": 169584,
            "time": 160.59074850000002,
            "velocity": 0.2125984251968504
          },
          {
            "duration": 0.09090899999998214,
            "durationTicks": 96,
            "midi": 46,
            "name": "A#2",
            "ticks": 169776,
            "time": 160.7725665,
            "velocity": 0.2125984251968504
          },
          {
            "duration": 0.09090900000001056,
            "durationTicks": 96,
            "midi": 51,
            "name": "D#3",
            "ticks": 169968,
            "time": 160.9543845,
            "velocity": 0.2125984251968504
          },
          {
            "duration": 0.09090900000001056,
            "durationTicks": 96,
            "midi": 39,
            "name": "D#2",
            "ticks": 170160,
            "time": 161.1362025,
            "velocity": 0.2125984251968504
          },
          {
            "duration": 0.09090899999998214,
            "durationTicks": 96,
            "midi": 35,
            "name": "B1",
            "ticks": 170352,
            "time": 161.31802050000002,
            "velocity": 0.2125984251968504
          },
          {
            "duration": 0.09090900000001056,
            "durationTicks": 96,
            "midi": 42,
            "name": "F#2",
            "ticks": 170544,
            "time": 161.4998385,
            "velocity": 0.2125984251968504
          },
          {
            "duration": 0.09090900000001056,
            "durationTicks": 96,
            "midi": 47,
            "name": "B2",
            "ticks": 170736,
            "time": 161.6816565,
            "velocity": 0.2125984251968504
          },
          {
            "duration": 0.09090900000001056,
            "durationTicks": 96,
            "midi": 35,
            "name": "B1",
            "ticks": 170928,
            "time": 161.8634745,
            "velocity": 0.2125984251968504
          },
          {
            "duration": 0.09090899999998214,
            "durationTicks": 96,
            "midi": 42,
            "name": "F#2",
            "ticks": 171120,
            "time": 162.04529250000002,
            "velocity": 0.2125984251968504
          },
          {
            "duration": 0.09090900000001056,
            "durationTicks": 96,
            "midi": 47,
            "name": "B2",
            "ticks": 171312,
            "time": 162.2271105,
            "velocity": 0.2125984251968504
          },
          {
            "duration": 0.09090900000001056,
            "durationTicks": 96,
            "midi": 35,
            "name": "B1",
            "ticks": 171504,
            "time": 162.4089285,
            "velocity": 0.2125984251968504
          },
          {
            "duration": 0.09090900000001056,
            "durationTicks": 96,
            "midi": 42,
            "name": "F#2",
            "ticks": 171696,
            "time": 162.5907465,
            "velocity": 0.2125984251968504
          },
          {
            "duration": 0.09090899999998214,
            "durationTicks": 96,
            "midi": 47,
            "name": "B2",
            "ticks": 171888,
            "time": 162.77256450000002,
            "velocity": 0.2125984251968504
          },
          {
            "duration": 0.09090900000001056,
            "durationTicks": 96,
            "midi": 42,
            "name": "F#2",
            "ticks": 172080,
            "time": 162.9543825,
            "velocity": 0.2125984251968504
          },
          {
            "duration": 0.09090900000001056,
            "durationTicks": 96,
            "midi": 49,
            "name": "C#3",
            "ticks": 172272,
            "time": 163.1362005,
            "velocity": 0.2125984251968504
          },
          {
            "duration": 0.09090900000001056,
            "durationTicks": 96,
            "midi": 54,
            "name": "F#3",
            "ticks": 172464,
            "time": 163.3180185,
            "velocity": 0.2125984251968504
          },
          {
            "duration": 0.09090899999998214,
            "durationTicks": 96,
            "midi": 42,
            "name": "F#2",
            "ticks": 172656,
            "time": 163.49983650000001,
            "velocity": 0.2125984251968504
          },
          {
            "duration": 0.09090900000001056,
            "durationTicks": 96,
            "midi": 49,
            "name": "C#3",
            "ticks": 172848,
            "time": 163.6816545,
            "velocity": 0.2125984251968504
          },
          {
            "duration": 0.09090900000001056,
            "durationTicks": 96,
            "midi": 54,
            "name": "F#3",
            "ticks": 173040,
            "time": 163.8634725,
            "velocity": 0.2125984251968504
          },
          {
            "duration": 0.09090900000001056,
            "durationTicks": 96,
            "midi": 42,
            "name": "F#2",
            "ticks": 173232,
            "time": 164.0452905,
            "velocity": 0.2125984251968504
          },
          {
            "duration": 0.09090899999998214,
            "durationTicks": 96,
            "midi": 37,
            "name": "C#2",
            "ticks": 173424,
            "time": 164.2271085,
            "velocity": 0.2125984251968504
          },
          {
            "duration": 0.09090900000001056,
            "durationTicks": 96,
            "midi": 44,
            "name": "G#2",
            "ticks": 173616,
            "time": 164.4089265,
            "velocity": 0.2125984251968504
          },
          {
            "duration": 0.09090900000001056,
            "durationTicks": 96,
            "midi": 49,
            "name": "C#3",
            "ticks": 173808,
            "time": 164.5907445,
            "velocity": 0.2125984251968504
          },
          {
            "duration": 0.09090899999998214,
            "durationTicks": 96,
            "midi": 37,
            "name": "C#2",
            "ticks": 174000,
            "time": 164.77256250000002,
            "velocity": 0.2125984251968504
          },
          {
            "duration": 0.09090899999998214,
            "durationTicks": 96,
            "midi": 44,
            "name": "G#2",
            "ticks": 174192,
            "time": 164.9543805,
            "velocity": 0.2125984251968504
          },
          {
            "duration": 0.09090900000001056,
            "durationTicks": 96,
            "midi": 49,
            "name": "C#3",
            "ticks": 174384,
            "time": 165.1361985,
            "velocity": 0.2125984251968504
          },
          {
            "duration": 0.09090900000001056,
            "durationTicks": 96,
            "midi": 37,
            "name": "C#2",
            "ticks": 174576,
            "time": 165.3180165,
            "velocity": 0.2125984251968504
          },
          {
            "duration": 0.09090899999998214,
            "durationTicks": 96,
            "midi": 44,
            "name": "G#2",
            "ticks": 174768,
            "time": 165.49983450000002,
            "velocity": 0.2125984251968504
          },
          {
            "duration": 0.09090899999998214,
            "durationTicks": 96,
            "midi": 49,
            "name": "C#3",
            "ticks": 174960,
            "time": 165.6816525,
            "velocity": 0.2125984251968504
          },
          {
            "duration": 0.09090900000001056,
            "durationTicks": 96,
            "midi": 39,
            "name": "D#2",
            "ticks": 175152,
            "time": 165.8634705,
            "velocity": 0.2125984251968504
          },
          {
            "duration": 0.09090900000001056,
            "durationTicks": 96,
            "midi": 46,
            "name": "A#2",
            "ticks": 175344,
            "time": 166.0452885,
            "velocity": 0.2125984251968504
          },
          {
            "duration": 0.09090899999998214,
            "durationTicks": 96,
            "midi": 51,
            "name": "D#3",
            "ticks": 175536,
            "time": 166.22710650000002,
            "velocity": 0.2125984251968504
          },
          {
            "duration": 0.09090899999998214,
            "durationTicks": 96,
            "midi": 39,
            "name": "D#2",
            "ticks": 175728,
            "time": 166.4089245,
            "velocity": 0.2125984251968504
          },
          {
            "duration": 0.09090900000001056,
            "durationTicks": 96,
            "midi": 46,
            "name": "A#2",
            "ticks": 175920,
            "time": 166.5907425,
            "velocity": 0.2125984251968504
          },
          {
            "duration": 0.09090900000001056,
            "durationTicks": 96,
            "midi": 51,
            "name": "D#3",
            "ticks": 176112,
            "time": 166.7725605,
            "velocity": 0.2125984251968504
          },
          {
            "duration": 0.09090899999998214,
            "durationTicks": 96,
            "midi": 42,
            "name": "F#2",
            "ticks": 176304,
            "time": 166.95437850000002,
            "velocity": 0.2125984251968504
          },
          {
            "duration": 0.09090899999998214,
            "durationTicks": 96,
            "midi": 35,
            "name": "B1",
            "ticks": 176496,
            "time": 167.1361965,
            "velocity": 0.2125984251968504
          },
          {
            "duration": 0.09090900000001056,
            "durationTicks": 96,
            "midi": 42,
            "name": "F#2",
            "ticks": 176688,
            "time": 167.3180145,
            "velocity": 0.2125984251968504
          },
          {
            "duration": 0.09090900000001056,
            "durationTicks": 96,
            "midi": 47,
            "name": "B2",
            "ticks": 176880,
            "time": 167.4998325,
            "velocity": 0.2125984251968504
          },
          {
            "duration": 0.09090899999998214,
            "durationTicks": 96,
            "midi": 35,
            "name": "B1",
            "ticks": 177072,
            "time": 167.68165050000002,
            "velocity": 0.2125984251968504
          },
          {
            "duration": 0.09090900000001056,
            "durationTicks": 96,
            "midi": 42,
            "name": "F#2",
            "ticks": 177264,
            "time": 167.8634685,
            "velocity": 0.2125984251968504
          },
          {
            "duration": 0.09090900000001056,
            "durationTicks": 96,
            "midi": 47,
            "name": "B2",
            "ticks": 177456,
            "time": 168.0452865,
            "velocity": 0.2125984251968504
          },
          {
            "duration": 0.09090900000001056,
            "durationTicks": 96,
            "midi": 42,
            "name": "F#2",
            "ticks": 177648,
            "time": 168.2271045,
            "velocity": 0.2125984251968504
          },
          {
            "duration": 0.09090899999998214,
            "durationTicks": 96,
            "midi": 35,
            "name": "B1",
            "ticks": 177840,
            "time": 168.40892250000002,
            "velocity": 0.2125984251968504
          },
          {
            "duration": 1.6363619999999912,
            "durationTicks": 1728,
            "midi": 42,
            "name": "F#2",
            "ticks": 178224,
            "time": 168.7725585,
            "velocity": 0.2125984251968504
          },
          {
            "duration": 1.6363619999999912,
            "durationTicks": 1728,
            "midi": 49,
            "name": "C#3",
            "ticks": 178224,
            "time": 168.7725585,
            "velocity": 0.2125984251968504
          }
        ],
        "endOfTrackTicks": 179952
      },
      {
        "channel": 7,
        "controlChanges": {},
        "pitchBends": [],
        "instrument": {
          "family": "piano",
          "number": 3,
          "name": "honky-tonk piano"
        },
        "name": "Ragtime Piano",
        "notes": [
          {
            "duration": 0.181818,
            "durationTicks": 192,
            "midi": 54,
            "name": "F#3",
            "ticks": 0,
            "time": 0,
            "velocity": 0.2440944881889764
          },
          {
            "duration": 0.181818,
            "durationTicks": 192,
            "midi": 56,
            "name": "G#3",
            "ticks": 192,
            "time": 0.181818,
            "velocity": 0.2440944881889764
          },
          {
            "duration": 0.18181799999999998,
            "durationTicks": 192,
            "midi": 58,
            "name": "A#3",
            "ticks": 384,
            "time": 0.363636,
            "velocity": 0.2440944881889764
          },
          {
            "duration": 0.18181800000000004,
            "durationTicks": 192,
            "midi": 59,
            "name": "B3",
            "ticks": 576,
            "time": 0.545454,
            "velocity": 0.2440944881889764
          },
          {
            "duration": 0.18181800000000004,
            "durationTicks": 192,
            "midi": 61,
            "name": "C#4",
            "ticks": 768,
            "time": 0.727272,
            "velocity": 0.2440944881889764
          },
          {
            "duration": 0.18181800000000004,
            "durationTicks": 192,
            "midi": 58,
            "name": "A#3",
            "ticks": 768,
            "time": 0.727272,
            "velocity": 0.2440944881889764
          },
          {
            "duration": 0.18181800000000004,
            "durationTicks": 192,
            "midi": 61,
            "name": "C#4",
            "ticks": 1152,
            "time": 1.090908,
            "velocity": 0.2440944881889764
          },
          {
            "duration": 0.18181800000000004,
            "durationTicks": 192,
            "midi": 61,
            "name": "C#4",
            "ticks": 1344,
            "time": 1.272726,
            "velocity": 0.2440944881889764
          },
          {
            "duration": 0.18181800000000004,
            "durationTicks": 192,
            "midi": 61,
            "name": "C#4",
            "ticks": 1728,
            "time": 1.636362,
            "velocity": 0.2440944881889764
          },
          {
            "duration": 0.18181800000000004,
            "durationTicks": 192,
            "midi": 63,
            "name": "D#4",
            "ticks": 1920,
            "time": 1.8181800000000001,
            "velocity": 0.2440944881889764
          },
          {
            "duration": 0.6363629999999998,
            "durationTicks": 672,
            "midi": 61,
            "name": "C#4",
            "ticks": 2112,
            "time": 1.9999980000000002,
            "velocity": 0.2440944881889764
          },
          {
            "duration": 0.18181800000000026,
            "durationTicks": 192,
            "midi": 56,
            "name": "G#3",
            "ticks": 2304,
            "time": 2.181816,
            "velocity": 0.2440944881889764
          },
          {
            "duration": 0.18181800000000026,
            "durationTicks": 192,
            "midi": 53,
            "name": "F3",
            "ticks": 2304,
            "time": 2.181816,
            "velocity": 0.2440944881889764
          },
          {
            "duration": 0.1818179999999998,
            "durationTicks": 192,
            "midi": 61,
            "name": "C#4",
            "ticks": 3072,
            "time": 2.909088,
            "velocity": 0.2440944881889764
          },
          {
            "duration": 0.18181800000000026,
            "durationTicks": 192,
            "midi": 63,
            "name": "D#4",
            "ticks": 3264,
            "time": 3.090906,
            "velocity": 0.2440944881889764
          },
          {
            "duration": 0.1818179999999998,
            "durationTicks": 192,
            "midi": 61,
            "name": "C#4",
            "ticks": 3456,
            "time": 3.272724,
            "velocity": 0.2440944881889764
          },
          {
            "duration": 0.18181800000000026,
            "durationTicks": 192,
            "midi": 59,
            "name": "B3",
            "ticks": 3648,
            "time": 3.454542,
            "velocity": 0.2440944881889764
          },
          {
            "duration": 0.1818179999999998,
            "durationTicks": 192,
            "midi": 58,
            "name": "A#3",
            "ticks": 3840,
            "time": 3.6363600000000003,
            "velocity": 0.2440944881889764
          },
          {
            "duration": 0.1818179999999998,
            "durationTicks": 192,
            "midi": 54,
            "name": "F#3",
            "ticks": 3840,
            "time": 3.6363600000000003,
            "velocity": 0.2440944881889764
          },
          {
            "duration": 0.1818179999999998,
            "durationTicks": 192,
            "midi": 58,
            "name": "A#3",
            "ticks": 4224,
            "time": 3.9999960000000003,
            "velocity": 0.2440944881889764
          },
          {
            "duration": 0.4545450000000004,
            "durationTicks": 480,
            "midi": 58,
            "name": "A#3",
            "ticks": 4416,
            "time": 4.181814,
            "velocity": 0.2440944881889764
          },
          {
            "duration": 0.1818180000000007,
            "durationTicks": 192,
            "midi": 59,
            "name": "B3",
            "ticks": 4800,
            "time": 4.54545,
            "velocity": 0.2440944881889764
          },
          {
            "duration": 0.1818179999999998,
            "durationTicks": 192,
            "midi": 58,
            "name": "A#3",
            "ticks": 4992,
            "time": 4.7272680000000005,
            "velocity": 0.2440944881889764
          },
          {
            "duration": 0.6363630000000002,
            "durationTicks": 672,
            "midi": 54,
            "name": "F#3",
            "ticks": 5184,
            "time": 4.909086,
            "velocity": 0.2440944881889764
          },
          {
            "duration": 0.3636360000000005,
            "durationTicks": 384,
            "midi": 51,
            "name": "D#3",
            "ticks": 5376,
            "time": 5.090904,
            "velocity": 0.2440944881889764
          },
          {
            "duration": 0.1818179999999998,
            "durationTicks": 192,
            "midi": 54,
            "name": "F#3",
            "ticks": 6144,
            "time": 5.818176,
            "velocity": 0.2440944881889764
          },
          {
            "duration": 0.1818179999999998,
            "durationTicks": 192,
            "midi": 56,
            "name": "G#3",
            "ticks": 6336,
            "time": 5.999994,
            "velocity": 0.2440944881889764
          },
          {
            "duration": 0.1818180000000007,
            "durationTicks": 192,
            "midi": 58,
            "name": "A#3",
            "ticks": 6528,
            "time": 6.181812,
            "velocity": 0.2440944881889764
          },
          {
            "duration": 0.1818179999999998,
            "durationTicks": 192,
            "midi": 59,
            "name": "B3",
            "ticks": 6720,
            "time": 6.363630000000001,
            "velocity": 0.2440944881889764
          },
          {
            "duration": 0.1818179999999998,
            "durationTicks": 192,
            "midi": 54,
            "name": "F#3",
            "ticks": 6912,
            "time": 6.545448,
            "velocity": 0.2440944881889764
          },
          {
            "duration": 0.1818179999999998,
            "durationTicks": 192,
            "midi": 58,
            "name": "A#3",
            "ticks": 6912,
            "time": 6.545448,
            "velocity": 0.2440944881889764
          },
          {
            "duration": 0.1818179999999998,
            "durationTicks": 192,
            "midi": 61,
            "name": "C#4",
            "ticks": 6912,
            "time": 6.545448,
            "velocity": 0.2440944881889764
          },
          {
            "duration": 0.1818180000000007,
            "durationTicks": 192,
            "midi": 61,
            "name": "C#4",
            "ticks": 7296,
            "time": 6.909084,
            "velocity": 0.2440944881889764
          },
          {
            "duration": 0.1818179999999998,
            "durationTicks": 192,
            "midi": 61,
            "name": "C#4",
            "ticks": 7488,
            "time": 7.090902000000001,
            "velocity": 0.2440944881889764
          },
          {
            "duration": 0.1818179999999998,
            "durationTicks": 192,
            "midi": 61,
            "name": "C#4",
            "ticks": 7872,
            "time": 7.454538,
            "velocity": 0.2440944881889764
          },
          {
            "duration": 0.1818179999999998,
            "durationTicks": 192,
            "midi": 63,
            "name": "D#4",
            "ticks": 8064,
            "time": 7.636356,
            "velocity": 0.2440944881889764
          },
          {
            "duration": 0.1818180000000007,
            "durationTicks": 192,
            "midi": 61,
            "name": "C#4",
            "ticks": 8256,
            "time": 7.818174,
            "velocity": 0.2440944881889764
          },
          {
            "duration": 0.1818179999999998,
            "durationTicks": 192,
            "midi": 56,
            "name": "G#3",
            "ticks": 8448,
            "time": 7.999992000000001,
            "velocity": 0.2440944881889764
          },
          {
            "duration": 0.1818179999999998,
            "durationTicks": 192,
            "midi": 53,
            "name": "F3",
            "ticks": 8448,
            "time": 7.999992000000001,
            "velocity": 0.2440944881889764
          },
          {
            "duration": 0.1818179999999998,
            "durationTicks": 192,
            "midi": 61,
            "name": "C#4",
            "ticks": 9216,
            "time": 8.727264,
            "velocity": 0.2440944881889764
          },
          {
            "duration": 0.1818179999999998,
            "durationTicks": 192,
            "midi": 63,
            "name": "D#4",
            "ticks": 9408,
            "time": 8.909082,
            "velocity": 0.2440944881889764
          },
          {
            "duration": 0.1818180000000016,
            "durationTicks": 192,
            "midi": 61,
            "name": "C#4",
            "ticks": 9600,
            "time": 9.0909,
            "velocity": 0.2440944881889764
          },
          {
            "duration": 0.1818179999999998,
            "durationTicks": 192,
            "midi": 59,
            "name": "B3",
            "ticks": 9792,
            "time": 9.272718000000001,
            "velocity": 0.2440944881889764
          },
          {
            "duration": 0.1818179999999998,
            "durationTicks": 192,
            "midi": 58,
            "name": "A#3",
            "ticks": 9984,
            "time": 9.454536000000001,
            "velocity": 0.2440944881889764
          },
          {
            "duration": 0.1818179999999998,
            "durationTicks": 192,
            "midi": 54,
            "name": "F#3",
            "ticks": 9984,
            "time": 9.454536000000001,
            "velocity": 0.2440944881889764
          },
          {
            "duration": 0.1818179999999998,
            "durationTicks": 192,
            "midi": 58,
            "name": "A#3",
            "ticks": 10368,
            "time": 9.818172,
            "velocity": 0.2440944881889764
          },
          {
            "duration": 0.45454499999999953,
            "durationTicks": 480,
            "midi": 58,
            "name": "A#3",
            "ticks": 10560,
            "time": 9.99999,
            "velocity": 0.2440944881889764
          },
          {
            "duration": 0.1818179999999998,
            "durationTicks": 192,
            "midi": 59,
            "name": "B3",
            "ticks": 10944,
            "time": 10.363626,
            "velocity": 0.2440944881889764
          },
          {
            "duration": 0.1818179999999998,
            "durationTicks": 192,
            "midi": 58,
            "name": "A#3",
            "ticks": 11136,
            "time": 10.545444,
            "velocity": 0.2440944881889764
          },
          {
            "duration": 0.1818180000000016,
            "durationTicks": 192,
            "midi": 54,
            "name": "F#3",
            "ticks": 11328,
            "time": 10.727262,
            "velocity": 0.2440944881889764
          },
          {
            "duration": 0.1818179999999998,
            "durationTicks": 192,
            "midi": 47,
            "name": "B2",
            "ticks": 11520,
            "time": 10.909080000000001,
            "velocity": 0.2440944881889764
          },
          {
            "duration": 0.1818179999999998,
            "durationTicks": 192,
            "midi": 51,
            "name": "D#3",
            "ticks": 11520,
            "time": 10.909080000000001,
            "velocity": 0.2440944881889764
          },
          {
            "duration": 0.1818180000000016,
            "durationTicks": 192,
            "midi": 37,
            "name": "C#2",
            "ticks": 13056,
            "time": 12.363624,
            "velocity": 0.2440944881889764
          },
          {
            "duration": 0.1818179999999998,
            "durationTicks": 192,
            "midi": 42,
            "name": "F#2",
            "ticks": 13440,
            "time": 12.727260000000001,
            "velocity": 0.2440944881889764
          },
          {
            "duration": 0.1818179999999998,
            "durationTicks": 192,
            "midi": 46,
            "name": "A#2",
            "ticks": 13824,
            "time": 13.090896,
            "velocity": 0.2440944881889764
          },
          {
            "duration": 0.1818179999999998,
            "durationTicks": 192,
            "midi": 49,
            "name": "C#3",
            "ticks": 14208,
            "time": 13.454532,
            "velocity": 0.2440944881889764
          },
          {
            "duration": 0.1818179999999998,
            "durationTicks": 192,
            "midi": 54,
            "name": "F#3",
            "ticks": 14592,
            "time": 13.818168,
            "velocity": 0.2440944881889764
          },
          {
            "duration": 0.1818179999999998,
            "durationTicks": 192,
            "midi": 58,
            "name": "A#3",
            "ticks": 14976,
            "time": 14.181804000000001,
            "velocity": 0.2440944881889764
          },
          {
            "duration": 0.1818179999999998,
            "durationTicks": 192,
            "midi": 61,
            "name": "C#4",
            "ticks": 15360,
            "time": 14.545440000000001,
            "velocity": 0.2440944881889764
          },
          {
            "duration": 0.1818179999999998,
            "durationTicks": 192,
            "midi": 66,
            "name": "F#4",
            "ticks": 15744,
            "time": 14.909076,
            "velocity": 0.2440944881889764
          },
          {
            "duration": 0.1818179999999998,
            "durationTicks": 192,
            "midi": 70,
            "name": "A#4",
            "ticks": 16128,
            "time": 15.272712,
            "velocity": 0.2440944881889764
          },
          {
            "duration": 0.1818179999999998,
            "durationTicks": 192,
            "midi": 66,
            "name": "F#4",
            "ticks": 16128,
            "time": 15.272712,
            "velocity": 0.2440944881889764
          },
          {
            "duration": 0.1818180000000016,
            "durationTicks": 192,
            "midi": 70,
            "name": "A#4",
            "ticks": 16512,
            "time": 15.636348,
            "velocity": 0.2440944881889764
          },
          {
            "duration": 0.1818180000000016,
            "durationTicks": 192,
            "midi": 66,
            "name": "F#4",
            "ticks": 16512,
            "time": 15.636348,
            "velocity": 0.2440944881889764
          },
          {
            "duration": 0.1818179999999998,
            "durationTicks": 192,
            "midi": 66,
            "name": "F#4",
            "ticks": 16704,
            "time": 15.818166000000002,
            "velocity": 0.2440944881889764
          },
          {
            "duration": 0.1818179999999998,
            "durationTicks": 192,
            "midi": 70,
            "name": "A#4",
            "ticks": 16704,
            "time": 15.818166000000002,
            "velocity": 0.2440944881889764
          },
          {
            "duration": 0.1818179999999998,
            "durationTicks": 192,
            "midi": 71,
            "name": "B4",
            "ticks": 17088,
            "time": 16.181802,
            "velocity": 0.2440944881889764
          },
          {
            "duration": 0.1818179999999998,
            "durationTicks": 192,
            "midi": 66,
            "name": "F#4",
            "ticks": 17280,
            "time": 16.36362,
            "velocity": 0.2440944881889764
          },
          {
            "duration": 0.1818179999999998,
            "durationTicks": 192,
            "midi": 70,
            "name": "A#4",
            "ticks": 17472,
            "time": 16.545438,
            "velocity": 0.2440944881889764
          },
          {
            "duration": 0.1818179999999998,
            "durationTicks": 192,
            "midi": 68,
            "name": "G#4",
            "ticks": 17664,
            "time": 16.727256,
            "velocity": 0.2440944881889764
          },
          {
            "duration": 0.1818179999999998,
            "durationTicks": 192,
            "midi": 65,
            "name": "F4",
            "ticks": 17664,
            "time": 16.727256,
            "velocity": 0.2440944881889764
          },
          {
            "duration": 0.1818179999999998,
            "durationTicks": 192,
            "midi": 68,
            "name": "G#4",
            "ticks": 18048,
            "time": 17.090892,
            "velocity": 0.2440944881889764
          },
          {
            "duration": 0.1818179999999998,
            "durationTicks": 192,
            "midi": 65,
            "name": "F4",
            "ticks": 18048,
            "time": 17.090892,
            "velocity": 0.2440944881889764
          },
          {
            "duration": 0.1818179999999998,
            "durationTicks": 192,
            "midi": 65,
            "name": "F4",
            "ticks": 18240,
            "time": 17.27271,
            "velocity": 0.2440944881889764
          },
          {
            "duration": 0.1818179999999998,
            "durationTicks": 192,
            "midi": 68,
            "name": "G#4",
            "ticks": 18240,
            "time": 17.27271,
            "velocity": 0.2440944881889764
          },
          {
            "duration": 0.1818179999999998,
            "durationTicks": 192,
            "midi": 73,
            "name": "C#5",
            "ticks": 18624,
            "time": 17.636346,
            "velocity": 0.2440944881889764
          },
          {
            "duration": 0.1818179999999998,
            "durationTicks": 192,
            "midi": 65,
            "name": "F4",
            "ticks": 18816,
            "time": 17.818164,
            "velocity": 0.2440944881889764
          },
          {
            "duration": 0.1818179999999998,
            "durationTicks": 192,
            "midi": 68,
            "name": "G#4",
            "ticks": 19008,
            "time": 17.999982,
            "velocity": 0.2440944881889764
          },
          {
            "duration": 0.18181800000000337,
            "durationTicks": 192,
            "midi": 63,
            "name": "D#4",
            "ticks": 19200,
            "time": 18.1818,
            "velocity": 0.2440944881889764
          },
          {
            "duration": 0.18181800000000337,
            "durationTicks": 192,
            "midi": 66,
            "name": "F#4",
            "ticks": 19200,
            "time": 18.1818,
            "velocity": 0.2440944881889764
          },
          {
            "duration": 0.18181800000000337,
            "durationTicks": 192,
            "midi": 66,
            "name": "F#4",
            "ticks": 19200,
            "time": 18.1818,
            "velocity": 0.2440944881889764
          },
          {
            "duration": 0.1818179999999998,
            "durationTicks": 192,
            "midi": 66,
            "name": "F#4",
            "ticks": 19584,
            "time": 18.545436000000002,
            "velocity": 0.2440944881889764
          },
          {
            "duration": 0.1818179999999998,
            "durationTicks": 192,
            "midi": 63,
            "name": "D#4",
            "ticks": 19584,
            "time": 18.545436000000002,
            "velocity": 0.2440944881889764
          },
          {
            "duration": 0.1818179999999998,
            "durationTicks": 192,
            "midi": 66,
            "name": "F#4",
            "ticks": 19776,
            "time": 18.727254000000002,
            "velocity": 0.2440944881889764
          },
          {
            "duration": 0.1818179999999998,
            "durationTicks": 192,
            "midi": 63,
            "name": "D#4",
            "ticks": 19776,
            "time": 18.727254000000002,
            "velocity": 0.2440944881889764
          },
          {
            "duration": 0.1818179999999998,
            "durationTicks": 192,
            "midi": 68,
            "name": "G#4",
            "ticks": 20160,
            "time": 19.09089,
            "velocity": 0.2440944881889764
          },
          {
            "duration": 0.1818179999999998,
            "durationTicks": 192,
            "midi": 63,
            "name": "D#4",
            "ticks": 20352,
            "time": 19.272708,
            "velocity": 0.2440944881889764
          },
          {
            "duration": 0.1818179999999998,
            "durationTicks": 192,
            "midi": 65,
            "name": "F4",
            "ticks": 20544,
            "time": 19.454526,
            "velocity": 0.2440944881889764
          },
          {
            "duration": 0.1818179999999998,
            "durationTicks": 192,
            "midi": 66,
            "name": "F#4",
            "ticks": 20736,
            "time": 19.636344,
            "velocity": 0.2440944881889764
          },
          {
            "duration": 0.1818179999999998,
            "durationTicks": 192,
            "midi": 63,
            "name": "D#4",
            "ticks": 20736,
            "time": 19.636344,
            "velocity": 0.2440944881889764
          },
          {
            "duration": 0.1818179999999998,
            "durationTicks": 192,
            "midi": 66,
            "name": "F#4",
            "ticks": 21120,
            "time": 19.99998,
            "velocity": 0.2440944881889764
          },
          {
            "duration": 0.1818179999999998,
            "durationTicks": 192,
            "midi": 63,
            "name": "D#4",
            "ticks": 21120,
            "time": 19.99998,
            "velocity": 0.2440944881889764
          },
          {
            "duration": 0.1818179999999998,
            "durationTicks": 192,
            "midi": 66,
            "name": "F#4",
            "ticks": 21312,
            "time": 20.181798,
            "velocity": 0.2440944881889764
          },
          {
            "duration": 0.1818179999999998,
            "durationTicks": 192,
            "midi": 63,
            "name": "D#4",
            "ticks": 21312,
            "time": 20.181798,
            "velocity": 0.2440944881889764
          },
          {
            "duration": 0.1818179999999998,
            "durationTicks": 192,
            "midi": 65,
            "name": "F4",
            "ticks": 21696,
            "time": 20.545434,
            "velocity": 0.2440944881889764
          },
          {
            "duration": 0.1818179999999998,
            "durationTicks": 192,
            "midi": 66,
            "name": "F#4",
            "ticks": 21888,
            "time": 20.727252,
            "velocity": 0.2440944881889764
          },
          {
            "duration": 0.1818179999999998,
            "durationTicks": 192,
            "midi": 68,
            "name": "G#4",
            "ticks": 22080,
            "time": 20.90907,
            "velocity": 0.2440944881889764
          },
          {
            "duration": 0.1818179999999998,
            "durationTicks": 192,
            "midi": 70,
            "name": "A#4",
            "ticks": 22272,
            "time": 21.090888,
            "velocity": 0.2440944881889764
          },
          {
            "duration": 0.1818179999999998,
            "durationTicks": 192,
            "midi": 66,
            "name": "F#4",
            "ticks": 22272,
            "time": 21.090888,
            "velocity": 0.2440944881889764
          },
          {
            "duration": 0.18181800000000337,
            "durationTicks": 192,
            "midi": 66,
            "name": "F#4",
            "ticks": 22656,
            "time": 21.454524,
            "velocity": 0.2440944881889764
          },
          {
            "duration": 0.18181800000000337,
            "durationTicks": 192,
            "midi": 70,
            "name": "A#4",
            "ticks": 22656,
            "time": 21.454524,
            "velocity": 0.2440944881889764
          },
          {
            "duration": 0.1818179999999998,
            "durationTicks": 192,
            "midi": 70,
            "name": "A#4",
            "ticks": 22848,
            "time": 21.636342000000003,
            "velocity": 0.2440944881889764
          },
          {
            "duration": 0.1818179999999998,
            "durationTicks": 192,
            "midi": 66,
            "name": "F#4",
            "ticks": 22848,
            "time": 21.636342000000003,
            "velocity": 0.2440944881889764
          },
          {
            "duration": 0.1818179999999998,
            "durationTicks": 192,
            "midi": 71,
            "name": "B4",
            "ticks": 23232,
            "time": 21.999978000000002,
            "velocity": 0.2440944881889764
          },
          {
            "duration": 0.1818179999999998,
            "durationTicks": 192,
            "midi": 66,
            "name": "F#4",
            "ticks": 23424,
            "time": 22.181796000000002,
            "velocity": 0.2440944881889764
          },
          {
            "duration": 0.1818179999999998,
            "durationTicks": 192,
            "midi": 70,
            "name": "A#4",
            "ticks": 23616,
            "time": 22.363614000000002,
            "velocity": 0.2440944881889764
          },
          {
            "duration": 0.1818179999999998,
            "durationTicks": 192,
            "midi": 68,
            "name": "G#4",
            "ticks": 23808,
            "time": 22.545432,
            "velocity": 0.2440944881889764
          },
          {
            "duration": 0.1818179999999998,
            "durationTicks": 192,
            "midi": 65,
            "name": "F4",
            "ticks": 23808,
            "time": 22.545432,
            "velocity": 0.2440944881889764
          },
          {
            "duration": 0.1818179999999998,
            "durationTicks": 192,
            "midi": 65,
            "name": "F4",
            "ticks": 24192,
            "time": 22.909068,
            "velocity": 0.2440944881889764
          },
          {
            "duration": 0.1818179999999998,
            "durationTicks": 192,
            "midi": 68,
            "name": "G#4",
            "ticks": 24192,
            "time": 22.909068,
            "velocity": 0.2440944881889764
          },
          {
            "duration": 0.1818179999999998,
            "durationTicks": 192,
            "midi": 68,
            "name": "G#4",
            "ticks": 24384,
            "time": 23.090886,
            "velocity": 0.2440944881889764
          },
          {
            "duration": 0.1818179999999998,
            "durationTicks": 192,
            "midi": 65,
            "name": "F4",
            "ticks": 24384,
            "time": 23.090886,
            "velocity": 0.2440944881889764
          },
          {
            "duration": 0.1818179999999998,
            "durationTicks": 192,
            "midi": 73,
            "name": "C#5",
            "ticks": 24768,
            "time": 23.454522,
            "velocity": 0.2440944881889764
          },
          {
            "duration": 0.1818179999999998,
            "durationTicks": 192,
            "midi": 65,
            "name": "F4",
            "ticks": 24960,
            "time": 23.63634,
            "velocity": 0.2440944881889764
          },
          {
            "duration": 0.1818179999999998,
            "durationTicks": 192,
            "midi": 68,
            "name": "G#4",
            "ticks": 25152,
            "time": 23.818158,
            "velocity": 0.2440944881889764
          },
          {
            "duration": 0.1818179999999998,
            "durationTicks": 192,
            "midi": 66,
            "name": "F#4",
            "ticks": 25344,
            "time": 23.999976,
            "velocity": 0.2440944881889764
          },
          {
            "duration": 0.1818179999999998,
            "durationTicks": 192,
            "midi": 63,
            "name": "D#4",
            "ticks": 25344,
            "time": 23.999976,
            "velocity": 0.2440944881889764
          },
          {
            "duration": 0.1818179999999998,
            "durationTicks": 192,
            "midi": 63,
            "name": "D#4",
            "ticks": 25728,
            "time": 24.363612,
            "velocity": 0.2440944881889764
          },
          {
            "duration": 0.1818179999999998,
            "durationTicks": 192,
            "midi": 66,
            "name": "F#4",
            "ticks": 25728,
            "time": 24.363612,
            "velocity": 0.2440944881889764
          },
          {
            "duration": 0.1818179999999998,
            "durationTicks": 192,
            "midi": 63,
            "name": "D#4",
            "ticks": 25920,
            "time": 24.54543,
            "velocity": 0.2440944881889764
          },
          {
            "duration": 0.1818179999999998,
            "durationTicks": 192,
            "midi": 66,
            "name": "F#4",
            "ticks": 25920,
            "time": 24.54543,
            "velocity": 0.2440944881889764
          },
          {
            "duration": 0.18181800000000337,
            "durationTicks": 192,
            "midi": 68,
            "name": "G#4",
            "ticks": 26304,
            "time": 24.909066,
            "velocity": 0.2440944881889764
          },
          {
            "duration": 0.1818179999999998,
            "durationTicks": 192,
            "midi": 63,
            "name": "D#4",
            "ticks": 26496,
            "time": 25.090884000000003,
            "velocity": 0.2440944881889764
          },
          {
            "duration": 0.1818179999999998,
            "durationTicks": 192,
            "midi": 65,
            "name": "F4",
            "ticks": 26688,
            "time": 25.272702000000002,
            "velocity": 0.2440944881889764
          },
          {
            "duration": 0.1818179999999998,
            "durationTicks": 192,
            "midi": 66,
            "name": "F#4",
            "ticks": 26880,
            "time": 25.454520000000002,
            "velocity": 0.2440944881889764
          },
          {
            "duration": 0.1818179999999998,
            "durationTicks": 192,
            "midi": 63,
            "name": "D#4",
            "ticks": 26880,
            "time": 25.454520000000002,
            "velocity": 0.2440944881889764
          },
          {
            "duration": 0.1818179999999998,
            "durationTicks": 192,
            "midi": 63,
            "name": "D#4",
            "ticks": 27264,
            "time": 25.818156000000002,
            "velocity": 0.2440944881889764
          },
          {
            "duration": 0.1818179999999998,
            "durationTicks": 192,
            "midi": 66,
            "name": "F#4",
            "ticks": 27264,
            "time": 25.818156000000002,
            "velocity": 0.2440944881889764
          },
          {
            "duration": 0.1818179999999998,
            "durationTicks": 192,
            "midi": 66,
            "name": "F#4",
            "ticks": 27456,
            "time": 25.999974,
            "velocity": 0.2440944881889764
          },
          {
            "duration": 0.1818179999999998,
            "durationTicks": 192,
            "midi": 63,
            "name": "D#4",
            "ticks": 27456,
            "time": 25.999974,
            "velocity": 0.2440944881889764
          },
          {
            "duration": 0.1818179999999998,
            "durationTicks": 192,
            "midi": 59,
            "name": "B3",
            "ticks": 27840,
            "time": 26.36361,
            "velocity": 0.2440944881889764
          },
          {
            "duration": 0.1818179999999998,
            "durationTicks": 192,
            "midi": 59,
            "name": "B3",
            "ticks": 27840,
            "time": 26.36361,
            "velocity": 0.2440944881889764
          },
          {
            "duration": 0.1818179999999998,
            "durationTicks": 192,
            "midi": 54,
            "name": "F#3",
            "ticks": 28032,
            "time": 26.545428,
            "velocity": 0.2440944881889764
          },
          {
            "duration": 0.1818179999999998,
            "durationTicks": 192,
            "midi": 49,
            "name": "C#3",
            "ticks": 28224,
            "time": 26.727246,
            "velocity": 0.2440944881889764
          },
          {
            "duration": 0.1818179999999998,
            "durationTicks": 192,
            "midi": 54,
            "name": "F#3",
            "ticks": 28416,
            "time": 26.909064,
            "velocity": 0.2440944881889764
          },
          {
            "duration": 0.1818179999999998,
            "durationTicks": 192,
            "midi": 54,
            "name": "F#3",
            "ticks": 28800,
            "time": 27.2727,
            "velocity": 0.2440944881889764
          },
          {
            "duration": 0.1818179999999998,
            "durationTicks": 192,
            "midi": 54,
            "name": "F#3",
            "ticks": 29184,
            "time": 27.636336,
            "velocity": 0.2440944881889764
          },
          {
            "duration": 0.1818179999999998,
            "durationTicks": 192,
            "midi": 54,
            "name": "F#3",
            "ticks": 29568,
            "time": 27.999972,
            "velocity": 0.2440944881889764
          },
          {
            "duration": 0.18181800000000337,
            "durationTicks": 192,
            "midi": 54,
            "name": "F#3",
            "ticks": 29760,
            "time": 28.18179,
            "velocity": 0.2440944881889764
          },
          {
            "duration": 0.1818179999999998,
            "durationTicks": 192,
            "midi": 56,
            "name": "G#3",
            "ticks": 29952,
            "time": 28.363608000000003,
            "velocity": 0.2440944881889764
          },
          {
            "duration": 0.1818179999999998,
            "durationTicks": 192,
            "midi": 58,
            "name": "A#3",
            "ticks": 30144,
            "time": 28.545426000000003,
            "velocity": 0.2440944881889764
          },
          {
            "duration": 0.1818179999999998,
            "durationTicks": 192,
            "midi": 58,
            "name": "A#3",
            "ticks": 30528,
            "time": 28.909062000000002,
            "velocity": 0.2440944881889764
          },
          {
            "duration": 0.1818179999999998,
            "durationTicks": 192,
            "midi": 61,
            "name": "C#4",
            "ticks": 31296,
            "time": 29.636334,
            "velocity": 0.2440944881889764
          },
          {
            "duration": 0.1818179999999998,
            "durationTicks": 192,
            "midi": 54,
            "name": "F#3",
            "ticks": 31680,
            "time": 29.99997,
            "velocity": 0.2440944881889764
          },
          {
            "duration": 0.1818179999999998,
            "durationTicks": 192,
            "midi": 54,
            "name": "F#3",
            "ticks": 31872,
            "time": 30.181788,
            "velocity": 0.2440944881889764
          },
          {
            "duration": 0.1818179999999998,
            "durationTicks": 192,
            "midi": 54,
            "name": "F#3",
            "ticks": 32064,
            "time": 30.363606,
            "velocity": 0.2440944881889764
          },
          {
            "duration": 0.1818179999999998,
            "durationTicks": 192,
            "midi": 54,
            "name": "F#3",
            "ticks": 32448,
            "time": 30.727242,
            "velocity": 0.2440944881889764
          },
          {
            "duration": 0.1818179999999998,
            "durationTicks": 192,
            "midi": 54,
            "name": "F#3",
            "ticks": 32640,
            "time": 30.90906,
            "velocity": 0.2440944881889764
          },
          {
            "duration": 0.1818179999999998,
            "durationTicks": 192,
            "midi": 58,
            "name": "A#3",
            "ticks": 32832,
            "time": 31.090878,
            "velocity": 0.2440944881889764
          },
          {
            "duration": 0.1818179999999998,
            "durationTicks": 192,
            "midi": 56,
            "name": "G#3",
            "ticks": 33024,
            "time": 31.272696,
            "velocity": 0.2440944881889764
          },
          {
            "duration": 0.1818179999999998,
            "durationTicks": 192,
            "midi": 54,
            "name": "F#3",
            "ticks": 33408,
            "time": 31.636332000000003,
            "velocity": 0.2440944881889764
          },
          {
            "duration": 0.1818179999999998,
            "durationTicks": 192,
            "midi": 53,
            "name": "F3",
            "ticks": 34176,
            "time": 32.363604,
            "velocity": 0.2440944881889764
          },
          {
            "duration": 0.1818179999999998,
            "durationTicks": 192,
            "midi": 51,
            "name": "D#3",
            "ticks": 34560,
            "time": 32.72724,
            "velocity": 0.2440944881889764
          },
          {
            "duration": 0.1818179999999998,
            "durationTicks": 192,
            "midi": 49,
            "name": "C#3",
            "ticks": 34752,
            "time": 32.909058,
            "velocity": 0.2440944881889764
          },
          {
            "duration": 0.1818179999999998,
            "durationTicks": 192,
            "midi": 49,
            "name": "C#3",
            "ticks": 36288,
            "time": 34.363602,
            "velocity": 0.2440944881889764
          },
          {
            "duration": 0.1818179999999998,
            "durationTicks": 192,
            "midi": 49,
            "name": "C#3",
            "ticks": 36672,
            "time": 34.727238,
            "velocity": 0.2440944881889764
          },
          {
            "duration": 0.1818179999999998,
            "durationTicks": 192,
            "midi": 51,
            "name": "D#3",
            "ticks": 36864,
            "time": 34.909056,
            "velocity": 0.2440944881889764
          },
          {
            "duration": 0.1818179999999998,
            "durationTicks": 192,
            "midi": 53,
            "name": "F3",
            "ticks": 37056,
            "time": 35.090874,
            "velocity": 0.2440944881889764
          },
          {
            "duration": 0.1818179999999998,
            "durationTicks": 192,
            "midi": 54,
            "name": "F#3",
            "ticks": 37248,
            "time": 35.272692,
            "velocity": 0.2440944881889764
          },
          {
            "duration": 0.1818179999999998,
            "durationTicks": 192,
            "midi": 51,
            "name": "D#3",
            "ticks": 37632,
            "time": 35.636328,
            "velocity": 0.2440944881889764
          },
          {
            "duration": 0.1818179999999998,
            "durationTicks": 192,
            "midi": 49,
            "name": "C#3",
            "ticks": 37824,
            "time": 35.818146,
            "velocity": 0.2440944881889764
          },
          {
            "duration": 0.1818179999999998,
            "durationTicks": 192,
            "midi": 66,
            "name": "F#4",
            "ticks": 38784,
            "time": 36.727236000000005,
            "velocity": 0.2440944881889764
          },
          {
            "duration": 0.1818179999999998,
            "durationTicks": 192,
            "midi": 63,
            "name": "D#4",
            "ticks": 39168,
            "time": 37.090872000000005,
            "velocity": 0.2440944881889764
          },
          {
            "duration": 0.1818179999999998,
            "durationTicks": 192,
            "midi": 61,
            "name": "C#4",
            "ticks": 39360,
            "time": 37.272690000000004,
            "velocity": 0.2440944881889764
          },
          {
            "duration": 0.1818179999999998,
            "durationTicks": 192,
            "midi": 49,
            "name": "C#3",
            "ticks": 40128,
            "time": 37.999962000000004,
            "velocity": 0.2440944881889764
          },
          {
            "duration": 0.1818179999999998,
            "durationTicks": 192,
            "midi": 54,
            "name": "F#3",
            "ticks": 40320,
            "time": 38.18178,
            "velocity": 0.2440944881889764
          },
          {
            "duration": 0.1818179999999998,
            "durationTicks": 192,
            "midi": 54,
            "name": "F#3",
            "ticks": 40512,
            "time": 38.363598,
            "velocity": 0.2440944881889764
          },
          {
            "duration": 0.1818179999999998,
            "durationTicks": 192,
            "midi": 54,
            "name": "F#3",
            "ticks": 40704,
            "time": 38.545416,
            "velocity": 0.2440944881889764
          },
          {
            "duration": 0.1818179999999998,
            "durationTicks": 192,
            "midi": 54,
            "name": "F#3",
            "ticks": 40896,
            "time": 38.727234,
            "velocity": 0.2440944881889764
          },
          {
            "duration": 0.1818179999999998,
            "durationTicks": 192,
            "midi": 54,
            "name": "F#3",
            "ticks": 41088,
            "time": 38.909052,
            "velocity": 0.2440944881889764
          },
          {
            "duration": 0.1818179999999998,
            "durationTicks": 192,
            "midi": 54,
            "name": "F#3",
            "ticks": 41472,
            "time": 39.272688,
            "velocity": 0.2440944881889764
          },
          {
            "duration": 0.1818179999999998,
            "durationTicks": 192,
            "midi": 56,
            "name": "G#3",
            "ticks": 41856,
            "time": 39.636324,
            "velocity": 0.2440944881889764
          },
          {
            "duration": 0.1818179999999998,
            "durationTicks": 192,
            "midi": 58,
            "name": "A#3",
            "ticks": 42048,
            "time": 39.818142,
            "velocity": 0.2440944881889764
          },
          {
            "duration": 0.1818179999999998,
            "durationTicks": 192,
            "midi": 58,
            "name": "A#3",
            "ticks": 42432,
            "time": 40.181778,
            "velocity": 0.2440944881889764
          },
          {
            "duration": 0.1818179999999998,
            "durationTicks": 192,
            "midi": 49,
            "name": "C#3",
            "ticks": 43200,
            "time": 40.90905,
            "velocity": 0.2440944881889764
          },
          {
            "duration": 0.1818179999999998,
            "durationTicks": 192,
            "midi": 54,
            "name": "F#3",
            "ticks": 43392,
            "time": 41.090868,
            "velocity": 0.2440944881889764
          },
          {
            "duration": 0.1818179999999998,
            "durationTicks": 192,
            "midi": 54,
            "name": "F#3",
            "ticks": 43584,
            "time": 41.272686,
            "velocity": 0.2440944881889764
          },
          {
            "duration": 0.1818179999999998,
            "durationTicks": 192,
            "midi": 54,
            "name": "F#3",
            "ticks": 43776,
            "time": 41.454504,
            "velocity": 0.2440944881889764
          },
          {
            "duration": 0.1818179999999998,
            "durationTicks": 192,
            "midi": 54,
            "name": "F#3",
            "ticks": 43968,
            "time": 41.636322,
            "velocity": 0.2440944881889764
          },
          {
            "duration": 0.1818179999999998,
            "durationTicks": 192,
            "midi": 54,
            "name": "F#3",
            "ticks": 44160,
            "time": 41.81814,
            "velocity": 0.2440944881889764
          },
          {
            "duration": 0.1818179999999998,
            "durationTicks": 192,
            "midi": 54,
            "name": "F#3",
            "ticks": 44544,
            "time": 42.181776,
            "velocity": 0.2440944881889764
          },
          {
            "duration": 0.1818179999999998,
            "durationTicks": 192,
            "midi": 61,
            "name": "C#4",
            "ticks": 44928,
            "time": 42.545412,
            "velocity": 0.2440944881889764
          },
          {
            "duration": 0.1818179999999998,
            "durationTicks": 192,
            "midi": 59,
            "name": "B3",
            "ticks": 45120,
            "time": 42.72723,
            "velocity": 0.2440944881889764
          },
          {
            "duration": 0.18181800000000692,
            "durationTicks": 192,
            "midi": 58,
            "name": "A#3",
            "ticks": 45504,
            "time": 43.090866,
            "velocity": 0.2440944881889764
          },
          {
            "duration": 0.1818179999999998,
            "durationTicks": 192,
            "midi": 53,
            "name": "F3",
            "ticks": 46464,
            "time": 43.999956000000005,
            "velocity": 0.2440944881889764
          },
          {
            "duration": 0.1818179999999998,
            "durationTicks": 192,
            "midi": 56,
            "name": "G#3",
            "ticks": 46848,
            "time": 44.363592000000004,
            "velocity": 0.2440944881889764
          },
          {
            "duration": 0.1818179999999998,
            "durationTicks": 192,
            "midi": 49,
            "name": "C#3",
            "ticks": 47040,
            "time": 44.545410000000004,
            "velocity": 0.2440944881889764
          },
          {
            "duration": 0.1818179999999998,
            "durationTicks": 192,
            "midi": 49,
            "name": "C#3",
            "ticks": 48384,
            "time": 45.818136,
            "velocity": 0.2440944881889764
          },
          {
            "duration": 0.1818179999999998,
            "durationTicks": 192,
            "midi": 49,
            "name": "C#3",
            "ticks": 48576,
            "time": 45.999954,
            "velocity": 0.2440944881889764
          },
          {
            "duration": 0.1818179999999998,
            "durationTicks": 192,
            "midi": 49,
            "name": "C#3",
            "ticks": 48960,
            "time": 46.36359,
            "velocity": 0.2440944881889764
          },
          {
            "duration": 0.1818179999999998,
            "durationTicks": 192,
            "midi": 58,
            "name": "A#3",
            "ticks": 49152,
            "time": 46.545408,
            "velocity": 0.2440944881889764
          },
          {
            "duration": 0.1818179999999998,
            "durationTicks": 192,
            "midi": 56,
            "name": "G#3",
            "ticks": 49344,
            "time": 46.727226,
            "velocity": 0.2440944881889764
          },
          {
            "duration": 0.1818179999999998,
            "durationTicks": 192,
            "midi": 54,
            "name": "F#3",
            "ticks": 49536,
            "time": 46.909044,
            "velocity": 0.2440944881889764
          },
          {
            "duration": 0.1818179999999998,
            "durationTicks": 192,
            "midi": 54,
            "name": "F#3",
            "ticks": 51264,
            "time": 48.545406,
            "velocity": 0.2440944881889764
          },
          {
            "duration": 0.1818179999999998,
            "durationTicks": 192,
            "midi": 49,
            "name": "C#3",
            "ticks": 51264,
            "time": 48.545406,
            "velocity": 0.2440944881889764
          },
          {
            "duration": 0.1818179999999998,
            "durationTicks": 192,
            "midi": 56,
            "name": "G#3",
            "ticks": 51456,
            "time": 48.727224,
            "velocity": 0.2440944881889764
          },
          {
            "duration": 0.1818179999999998,
            "durationTicks": 192,
            "midi": 51,
            "name": "D#3",
            "ticks": 51456,
            "time": 48.727224,
            "velocity": 0.2440944881889764
          },
          {
            "duration": 0.1818179999999998,
            "durationTicks": 192,
            "midi": 49,
            "name": "C#3",
            "ticks": 51648,
            "time": 48.909042,
            "velocity": 0.2440944881889764
          },
          {
            "duration": 0.1818179999999998,
            "durationTicks": 192,
            "midi": 54,
            "name": "F#3",
            "ticks": 51648,
            "time": 48.909042,
            "velocity": 0.2440944881889764
          },
          {
            "duration": 0.1818179999999998,
            "durationTicks": 192,
            "midi": 58,
            "name": "A#3",
            "ticks": 51840,
            "time": 49.09086,
            "velocity": 0.2440944881889764
          },
          {
            "duration": 0.1818179999999998,
            "durationTicks": 192,
            "midi": 54,
            "name": "F#3",
            "ticks": 51840,
            "time": 49.09086,
            "velocity": 0.2440944881889764
          },
          {
            "duration": 0.1818179999999998,
            "durationTicks": 192,
            "midi": 56,
            "name": "G#3",
            "ticks": 52224,
            "time": 49.454496,
            "velocity": 0.2440944881889764
          },
          {
            "duration": 0.1818179999999998,
            "durationTicks": 192,
            "midi": 51,
            "name": "D#3",
            "ticks": 52224,
            "time": 49.454496,
            "velocity": 0.2440944881889764
          },
          {
            "duration": 0.1818179999999998,
            "durationTicks": 192,
            "midi": 54,
            "name": "F#3",
            "ticks": 52416,
            "time": 49.636314,
            "velocity": 0.2440944881889764
          },
          {
            "duration": 0.1818179999999998,
            "durationTicks": 192,
            "midi": 49,
            "name": "C#3",
            "ticks": 52416,
            "time": 49.636314,
            "velocity": 0.2440944881889764
          },
          {
            "duration": 0.18181800000000692,
            "durationTicks": 192,
            "midi": 49,
            "name": "C#3",
            "ticks": 52608,
            "time": 49.818132,
            "velocity": 0.2440944881889764
          },
          {
            "duration": 0.1818179999999998,
            "durationTicks": 192,
            "midi": 58,
            "name": "A#3",
            "ticks": 52992,
            "time": 50.181768000000005,
            "velocity": 0.2440944881889764
          },
          {
            "duration": 0.1818179999999998,
            "durationTicks": 192,
            "midi": 56,
            "name": "G#3",
            "ticks": 53184,
            "time": 50.363586000000005,
            "velocity": 0.2440944881889764
          },
          {
            "duration": 0.1818179999999998,
            "durationTicks": 192,
            "midi": 54,
            "name": "F#3",
            "ticks": 53376,
            "time": 50.545404000000005,
            "velocity": 0.2440944881889764
          },
          {
            "duration": 0.1818179999999998,
            "durationTicks": 192,
            "midi": 56,
            "name": "G#3",
            "ticks": 53952,
            "time": 51.090858000000004,
            "velocity": 0.2440944881889764
          },
          {
            "duration": 0.1818179999999998,
            "durationTicks": 192,
            "midi": 54,
            "name": "F#3",
            "ticks": 54336,
            "time": 51.454494000000004,
            "velocity": 0.2440944881889764
          },
          {
            "duration": 0.1818179999999998,
            "durationTicks": 192,
            "midi": 56,
            "name": "G#3",
            "ticks": 54528,
            "time": 51.636312000000004,
            "velocity": 0.2440944881889764
          },
          {
            "duration": 0.1818179999999998,
            "durationTicks": 192,
            "midi": 54,
            "name": "F#3",
            "ticks": 54720,
            "time": 51.818130000000004,
            "velocity": 0.2440944881889764
          },
          {
            "duration": 0.1818179999999998,
            "durationTicks": 192,
            "midi": 56,
            "name": "G#3",
            "ticks": 54912,
            "time": 51.999948,
            "velocity": 0.2440944881889764
          },
          {
            "duration": 0.1818179999999998,
            "durationTicks": 192,
            "midi": 58,
            "name": "A#3",
            "ticks": 55296,
            "time": 52.363584,
            "velocity": 0.2440944881889764
          },
          {
            "duration": 0.1818179999999998,
            "durationTicks": 192,
            "midi": 51,
            "name": "D#3",
            "ticks": 55680,
            "time": 52.72722,
            "velocity": 0.2440944881889764
          },
          {
            "duration": 0.1818179999999998,
            "durationTicks": 192,
            "midi": 58,
            "name": "A#3",
            "ticks": 56064,
            "time": 53.090856,
            "velocity": 0.2440944881889764
          },
          {
            "duration": 0.1818179999999998,
            "durationTicks": 192,
            "midi": 56,
            "name": "G#3",
            "ticks": 56256,
            "time": 53.272674,
            "velocity": 0.2440944881889764
          },
          {
            "duration": 0.1818179999999998,
            "durationTicks": 192,
            "midi": 54,
            "name": "F#3",
            "ticks": 56448,
            "time": 53.454492,
            "velocity": 0.2440944881889764
          },
          {
            "duration": 0.1818179999999998,
            "durationTicks": 192,
            "midi": 54,
            "name": "F#3",
            "ticks": 56832,
            "time": 53.818128,
            "velocity": 0.2440944881889764
          },
          {
            "duration": 0.1818179999999998,
            "durationTicks": 192,
            "midi": 56,
            "name": "G#3",
            "ticks": 57024,
            "time": 53.999946,
            "velocity": 0.2440944881889764
          },
          {
            "duration": 0.1818179999999998,
            "durationTicks": 192,
            "midi": 54,
            "name": "F#3",
            "ticks": 57408,
            "time": 54.363582,
            "velocity": 0.2440944881889764
          },
          {
            "duration": 0.1818179999999998,
            "durationTicks": 192,
            "midi": 56,
            "name": "G#3",
            "ticks": 57600,
            "time": 54.5454,
            "velocity": 0.2440944881889764
          },
          {
            "duration": 0.1818179999999998,
            "durationTicks": 192,
            "midi": 58,
            "name": "A#3",
            "ticks": 57792,
            "time": 54.727218,
            "velocity": 0.2440944881889764
          },
          {
            "duration": 0.1818179999999998,
            "durationTicks": 192,
            "midi": 56,
            "name": "G#3",
            "ticks": 57984,
            "time": 54.909036,
            "velocity": 0.2440944881889764
          },
          {
            "duration": 0.1818179999999998,
            "durationTicks": 192,
            "midi": 54,
            "name": "F#3",
            "ticks": 58368,
            "time": 55.272672,
            "velocity": 0.2440944881889764
          },
          {
            "duration": 0.1818179999999998,
            "durationTicks": 192,
            "midi": 49,
            "name": "C#3",
            "ticks": 58752,
            "time": 55.636308,
            "velocity": 0.2440944881889764
          },
          {
            "duration": 0.1818179999999998,
            "durationTicks": 192,
            "midi": 58,
            "name": "A#3",
            "ticks": 59136,
            "time": 55.999944,
            "velocity": 0.2440944881889764
          },
          {
            "duration": 0.1818179999999998,
            "durationTicks": 192,
            "midi": 56,
            "name": "G#3",
            "ticks": 59328,
            "time": 56.181762,
            "velocity": 0.2440944881889764
          },
          {
            "duration": 0.18181800000000692,
            "durationTicks": 192,
            "midi": 54,
            "name": "F#3",
            "ticks": 59520,
            "time": 56.36358,
            "velocity": 0.2440944881889764
          },
          {
            "duration": 0.1818179999999998,
            "durationTicks": 192,
            "midi": 56,
            "name": "G#3",
            "ticks": 60096,
            "time": 56.909034000000005,
            "velocity": 0.2440944881889764
          },
          {
            "duration": 0.1818179999999998,
            "durationTicks": 192,
            "midi": 54,
            "name": "F#3",
            "ticks": 60480,
            "time": 57.272670000000005,
            "velocity": 0.2440944881889764
          },
          {
            "duration": 0.1818179999999998,
            "durationTicks": 192,
            "midi": 56,
            "name": "G#3",
            "ticks": 60672,
            "time": 57.454488000000005,
            "velocity": 0.2440944881889764
          },
          {
            "duration": 0.1818179999999998,
            "durationTicks": 192,
            "midi": 56,
            "name": "G#3",
            "ticks": 61056,
            "time": 57.818124000000005,
            "velocity": 0.2440944881889764
          },
          {
            "duration": 0.1818179999999998,
            "durationTicks": 192,
            "midi": 58,
            "name": "A#3",
            "ticks": 61440,
            "time": 58.181760000000004,
            "velocity": 0.2440944881889764
          },
          {
            "duration": 0.1818179999999998,
            "durationTicks": 192,
            "midi": 61,
            "name": "C#4",
            "ticks": 61824,
            "time": 58.545396000000004,
            "velocity": 0.2440944881889764
          },
          {
            "duration": 0.1818179999999998,
            "durationTicks": 192,
            "midi": 59,
            "name": "B3",
            "ticks": 62208,
            "time": 58.909032,
            "velocity": 0.2440944881889764
          },
          {
            "duration": 0.1818179999999998,
            "durationTicks": 192,
            "midi": 58,
            "name": "A#3",
            "ticks": 62400,
            "time": 59.09085,
            "velocity": 0.2440944881889764
          },
          {
            "duration": 0.1818179999999998,
            "durationTicks": 192,
            "midi": 54,
            "name": "F#3",
            "ticks": 62592,
            "time": 59.272668,
            "velocity": 0.2440944881889764
          },
          {
            "duration": 0.1818179999999998,
            "durationTicks": 192,
            "midi": 54,
            "name": "F#3",
            "ticks": 62976,
            "time": 59.636304,
            "velocity": 0.2440944881889764
          },
          {
            "duration": 0.1818179999999998,
            "durationTicks": 192,
            "midi": 56,
            "name": "G#3",
            "ticks": 63168,
            "time": 59.818122,
            "velocity": 0.2440944881889764
          },
          {
            "duration": 0.1818179999999998,
            "durationTicks": 192,
            "midi": 56,
            "name": "G#3",
            "ticks": 63552,
            "time": 60.181758,
            "velocity": 0.2440944881889764
          },
          {
            "duration": 0.1818179999999998,
            "durationTicks": 192,
            "midi": 58,
            "name": "A#3",
            "ticks": 63744,
            "time": 60.363576,
            "velocity": 0.2440944881889764
          },
          {
            "duration": 0.1818179999999998,
            "durationTicks": 192,
            "midi": 56,
            "name": "G#3",
            "ticks": 64128,
            "time": 60.727212,
            "velocity": 0.2440944881889764
          },
          {
            "duration": 0.1818179999999998,
            "durationTicks": 192,
            "midi": 54,
            "name": "F#3",
            "ticks": 64512,
            "time": 61.090848,
            "velocity": 0.2440944881889764
          },
          {
            "duration": 0.1818179999999998,
            "durationTicks": 192,
            "midi": 56,
            "name": "G#3",
            "ticks": 64896,
            "time": 61.454484,
            "velocity": 0.2440944881889764
          },
          {
            "duration": 0.1818179999999998,
            "durationTicks": 192,
            "midi": 56,
            "name": "G#3",
            "ticks": 65280,
            "time": 61.81812,
            "velocity": 0.2440944881889764
          },
          {
            "duration": 0.1818179999999998,
            "durationTicks": 192,
            "midi": 56,
            "name": "G#3",
            "ticks": 65664,
            "time": 62.181756,
            "velocity": 0.2440944881889764
          },
          {
            "duration": 0.1818179999999998,
            "durationTicks": 192,
            "midi": 58,
            "name": "A#3",
            "ticks": 65856,
            "time": 62.363574,
            "velocity": 0.2440944881889764
          },
          {
            "duration": 0.1818179999999998,
            "durationTicks": 192,
            "midi": 49,
            "name": "C#3",
            "ticks": 66048,
            "time": 62.545392,
            "velocity": 0.2440944881889764
          },
          {
            "duration": 0.1818179999999998,
            "durationTicks": 192,
            "midi": 49,
            "name": "C#3",
            "ticks": 66240,
            "time": 62.72721,
            "velocity": 0.2440944881889764
          },
          {
            "duration": 0.18181800000000692,
            "durationTicks": 192,
            "midi": 61,
            "name": "C#4",
            "ticks": 66624,
            "time": 63.090846,
            "velocity": 0.2440944881889764
          },
          {
            "duration": 0.1818179999999998,
            "durationTicks": 192,
            "midi": 61,
            "name": "C#4",
            "ticks": 67008,
            "time": 63.454482000000006,
            "velocity": 0.2440944881889764
          },
          {
            "duration": 0.1818179999999998,
            "durationTicks": 192,
            "midi": 61,
            "name": "C#4",
            "ticks": 67392,
            "time": 63.818118000000005,
            "velocity": 0.2440944881889764
          },
          {
            "duration": 0.1818179999999927,
            "durationTicks": 192,
            "midi": 61,
            "name": "C#4",
            "ticks": 67584,
            "time": 63.999936000000005,
            "velocity": 0.2440944881889764
          },
          {
            "duration": 0.1818179999999927,
            "durationTicks": 192,
            "midi": 56,
            "name": "G#3",
            "ticks": 67968,
            "time": 64.363572,
            "velocity": 0.2440944881889764
          },
          {
            "duration": 0.1818179999999927,
            "durationTicks": 192,
            "midi": 56,
            "name": "G#3",
            "ticks": 68352,
            "time": 64.727208,
            "velocity": 0.2440944881889764
          },
          {
            "duration": 0.1818179999999927,
            "durationTicks": 192,
            "midi": 56,
            "name": "G#3",
            "ticks": 68736,
            "time": 65.090844,
            "velocity": 0.2440944881889764
          },
          {
            "duration": 0.18181800000000692,
            "durationTicks": 192,
            "midi": 58,
            "name": "A#3",
            "ticks": 68928,
            "time": 65.272662,
            "velocity": 0.2440944881889764
          },
          {
            "duration": 0.1818179999999927,
            "durationTicks": 192,
            "midi": 49,
            "name": "C#3",
            "ticks": 69120,
            "time": 65.45448,
            "velocity": 0.2440944881889764
          },
          {
            "duration": 0.18181800000000692,
            "durationTicks": 192,
            "midi": 49,
            "name": "C#3",
            "ticks": 69312,
            "time": 65.636298,
            "velocity": 0.2440944881889764
          },
          {
            "duration": 0.18181800000000692,
            "durationTicks": 192,
            "midi": 51,
            "name": "D#3",
            "ticks": 69696,
            "time": 65.999934,
            "velocity": 0.2440944881889764
          },
          {
            "duration": 0.1818179999999927,
            "durationTicks": 192,
            "midi": 49,
            "name": "C#3",
            "ticks": 69888,
            "time": 66.181752,
            "velocity": 0.2440944881889764
          },
          {
            "duration": 0.18181800000000692,
            "durationTicks": 192,
            "midi": 58,
            "name": "A#3",
            "ticks": 71040,
            "time": 67.27266,
            "velocity": 0.2440944881889764
          },
          {
            "duration": 0.18181800000000692,
            "durationTicks": 192,
            "midi": 58,
            "name": "A#3",
            "ticks": 71424,
            "time": 67.636296,
            "velocity": 0.2440944881889764
          },
          {
            "duration": 0.18181800000000692,
            "durationTicks": 192,
            "midi": 58,
            "name": "A#3",
            "ticks": 71808,
            "time": 67.999932,
            "velocity": 0.2440944881889764
          },
          {
            "duration": 0.1818179999999927,
            "durationTicks": 192,
            "midi": 61,
            "name": "C#4",
            "ticks": 72000,
            "time": 68.18175000000001,
            "velocity": 0.2440944881889764
          },
          {
            "duration": 0.18181800000000692,
            "durationTicks": 192,
            "midi": 58,
            "name": "A#3",
            "ticks": 72192,
            "time": 68.363568,
            "velocity": 0.2440944881889764
          },
          {
            "duration": 0.1818179999999927,
            "durationTicks": 192,
            "midi": 56,
            "name": "G#3",
            "ticks": 72384,
            "time": 68.54538600000001,
            "velocity": 0.2440944881889764
          },
          {
            "duration": 0.1818179999999927,
            "durationTicks": 192,
            "midi": 73,
            "name": "C#5",
            "ticks": 72768,
            "time": 68.90902200000001,
            "velocity": 0.2440944881889764
          },
          {
            "duration": 0.1818179999999927,
            "durationTicks": 192,
            "midi": 73,
            "name": "C#5",
            "ticks": 73152,
            "time": 69.272658,
            "velocity": 0.2440944881889764
          },
          {
            "duration": 0.1818179999999927,
            "durationTicks": 192,
            "midi": 73,
            "name": "C#5",
            "ticks": 73536,
            "time": 69.636294,
            "velocity": 0.2440944881889764
          },
          {
            "duration": 0.18181800000000692,
            "durationTicks": 192,
            "midi": 73,
            "name": "C#5",
            "ticks": 73728,
            "time": 69.818112,
            "velocity": 0.2440944881889764
          },
          {
            "duration": 0.18181800000000692,
            "durationTicks": 192,
            "midi": 56,
            "name": "G#3",
            "ticks": 74112,
            "time": 70.181748,
            "velocity": 0.2440944881889764
          },
          {
            "duration": 0.18181800000000692,
            "durationTicks": 192,
            "midi": 56,
            "name": "G#3",
            "ticks": 74496,
            "time": 70.545384,
            "velocity": 0.2440944881889764
          },
          {
            "duration": 0.18181800000000692,
            "durationTicks": 192,
            "midi": 56,
            "name": "G#3",
            "ticks": 74880,
            "time": 70.90902,
            "velocity": 0.2440944881889764
          },
          {
            "duration": 0.1818179999999927,
            "durationTicks": 192,
            "midi": 58,
            "name": "A#3",
            "ticks": 75072,
            "time": 71.090838,
            "velocity": 0.2440944881889764
          },
          {
            "duration": 0.18181800000000692,
            "durationTicks": 192,
            "midi": 49,
            "name": "C#3",
            "ticks": 75264,
            "time": 71.272656,
            "velocity": 0.2440944881889764
          },
          {
            "duration": 0.1818179999999927,
            "durationTicks": 192,
            "midi": 49,
            "name": "C#3",
            "ticks": 75456,
            "time": 71.454474,
            "velocity": 0.2440944881889764
          },
          {
            "duration": 0.1818179999999927,
            "durationTicks": 192,
            "midi": 51,
            "name": "D#3",
            "ticks": 75840,
            "time": 71.81811,
            "velocity": 0.2440944881889764
          },
          {
            "duration": 0.18181800000000692,
            "durationTicks": 192,
            "midi": 49,
            "name": "C#3",
            "ticks": 76032,
            "time": 71.999928,
            "velocity": 0.2440944881889764
          },
          {
            "duration": 0.1818179999999927,
            "durationTicks": 192,
            "midi": 61,
            "name": "C#4",
            "ticks": 76992,
            "time": 72.909018,
            "velocity": 0.2440944881889764
          },
          {
            "duration": 0.18181800000000692,
            "durationTicks": 192,
            "midi": 66,
            "name": "F#4",
            "ticks": 77184,
            "time": 73.090836,
            "velocity": 0.2440944881889764
          },
          {
            "duration": 0.18181800000000692,
            "durationTicks": 192,
            "midi": 66,
            "name": "F#4",
            "ticks": 77376,
            "time": 73.272654,
            "velocity": 0.2440944881889764
          },
          {
            "duration": 0.1818179999999927,
            "durationTicks": 192,
            "midi": 66,
            "name": "F#4",
            "ticks": 77568,
            "time": 73.45447200000001,
            "velocity": 0.2440944881889764
          },
          {
            "duration": 0.18181800000000692,
            "durationTicks": 192,
            "midi": 66,
            "name": "F#4",
            "ticks": 77760,
            "time": 73.63629,
            "velocity": 0.2440944881889764
          },
          {
            "duration": 0.1818179999999927,
            "durationTicks": 192,
            "midi": 66,
            "name": "F#4",
            "ticks": 77952,
            "time": 73.81810800000001,
            "velocity": 0.2440944881889764
          },
          {
            "duration": 0.1818179999999927,
            "durationTicks": 192,
            "midi": 66,
            "name": "F#4",
            "ticks": 78336,
            "time": 74.18174400000001,
            "velocity": 0.2440944881889764
          },
          {
            "duration": 0.18181800000000692,
            "durationTicks": 192,
            "midi": 66,
            "name": "F#4",
            "ticks": 78528,
            "time": 74.363562,
            "velocity": 0.2440944881889764
          },
          {
            "duration": 0.1818179999999927,
            "durationTicks": 192,
            "midi": 68,
            "name": "G#4",
            "ticks": 78720,
            "time": 74.54538000000001,
            "velocity": 0.2440944881889764
          },
          {
            "duration": 0.18181800000000692,
            "durationTicks": 192,
            "midi": 70,
            "name": "A#4",
            "ticks": 78912,
            "time": 74.727198,
            "velocity": 0.2440944881889764
          },
          {
            "duration": 0.18181800000000692,
            "durationTicks": 192,
            "midi": 70,
            "name": "A#4",
            "ticks": 79296,
            "time": 75.090834,
            "velocity": 0.2440944881889764
          },
          {
            "duration": 0.1818179999999927,
            "durationTicks": 192,
            "midi": 73,
            "name": "C#5",
            "ticks": 80256,
            "time": 75.99992400000001,
            "velocity": 0.2440944881889764
          },
          {
            "duration": 0.18181800000000692,
            "durationTicks": 192,
            "midi": 66,
            "name": "F#4",
            "ticks": 80448,
            "time": 76.181742,
            "velocity": 0.2440944881889764
          },
          {
            "duration": 0.1818179999999927,
            "durationTicks": 192,
            "midi": 66,
            "name": "F#4",
            "ticks": 80640,
            "time": 76.36356,
            "velocity": 0.2440944881889764
          },
          {
            "duration": 0.18181800000000692,
            "durationTicks": 192,
            "midi": 66,
            "name": "F#4",
            "ticks": 80832,
            "time": 76.545378,
            "velocity": 0.2440944881889764
          },
          {
            "duration": 0.1818179999999927,
            "durationTicks": 192,
            "midi": 66,
            "name": "F#4",
            "ticks": 81024,
            "time": 76.727196,
            "velocity": 0.2440944881889764
          },
          {
            "duration": 0.1818179999999927,
            "durationTicks": 192,
            "midi": 66,
            "name": "F#4",
            "ticks": 81408,
            "time": 77.090832,
            "velocity": 0.2440944881889764
          },
          {
            "duration": 0.1818179999999927,
            "durationTicks": 192,
            "midi": 70,
            "name": "A#4",
            "ticks": 81792,
            "time": 77.454468,
            "velocity": 0.2440944881889764
          },
          {
            "duration": 0.18181800000000692,
            "durationTicks": 192,
            "midi": 68,
            "name": "G#4",
            "ticks": 81984,
            "time": 77.636286,
            "velocity": 0.2440944881889764
          },
          {
            "duration": 0.18181800000000692,
            "durationTicks": 192,
            "midi": 66,
            "name": "F#4",
            "ticks": 82368,
            "time": 77.999922,
            "velocity": 0.2440944881889764
          },
          {
            "duration": 0.1818179999999927,
            "durationTicks": 192,
            "midi": 65,
            "name": "F4",
            "ticks": 83328,
            "time": 78.909012,
            "velocity": 0.2440944881889764
          },
          {
            "duration": 0.1818179999999927,
            "durationTicks": 192,
            "midi": 63,
            "name": "D#4",
            "ticks": 83712,
            "time": 79.272648,
            "velocity": 0.2440944881889764
          },
          {
            "duration": 0.18181800000000692,
            "durationTicks": 192,
            "midi": 61,
            "name": "C#4",
            "ticks": 83904,
            "time": 79.454466,
            "velocity": 0.2440944881889764
          },
          {
            "duration": 0.1818179999999927,
            "durationTicks": 192,
            "midi": 61,
            "name": "C#4",
            "ticks": 84672,
            "time": 80.18173800000001,
            "velocity": 0.2440944881889764
          },
          {
            "duration": 0.18181800000000692,
            "durationTicks": 192,
            "midi": 61,
            "name": "C#4",
            "ticks": 84864,
            "time": 80.363556,
            "velocity": 0.2440944881889764
          },
          {
            "duration": 0.1818179999999927,
            "durationTicks": 192,
            "midi": 61,
            "name": "C#4",
            "ticks": 85056,
            "time": 80.54537400000001,
            "velocity": 0.2440944881889764
          },
          {
            "duration": 0.1818179999999927,
            "durationTicks": 192,
            "midi": 61,
            "name": "C#4",
            "ticks": 85440,
            "time": 80.90901000000001,
            "velocity": 0.2440944881889764
          },
          {
            "duration": 0.18181800000000692,
            "durationTicks": 192,
            "midi": 63,
            "name": "D#4",
            "ticks": 85632,
            "time": 81.090828,
            "velocity": 0.2440944881889764
          },
          {
            "duration": 0.1818179999999927,
            "durationTicks": 192,
            "midi": 65,
            "name": "F4",
            "ticks": 85824,
            "time": 81.27264600000001,
            "velocity": 0.2440944881889764
          },
          {
            "duration": 0.18181800000000692,
            "durationTicks": 192,
            "midi": 66,
            "name": "F#4",
            "ticks": 86016,
            "time": 81.454464,
            "velocity": 0.2440944881889764
          },
          {
            "duration": 0.18181800000000692,
            "durationTicks": 192,
            "midi": 63,
            "name": "D#4",
            "ticks": 86400,
            "time": 81.8181,
            "velocity": 0.2440944881889764
          },
          {
            "duration": 0.1818179999999927,
            "durationTicks": 192,
            "midi": 61,
            "name": "C#4",
            "ticks": 86592,
            "time": 81.99991800000001,
            "velocity": 0.2440944881889764
          },
          {
            "duration": 0.1818179999999927,
            "durationTicks": 192,
            "midi": 61,
            "name": "C#4",
            "ticks": 87744,
            "time": 83.090826,
            "velocity": 0.2440944881889764
          },
          {
            "duration": 0.18181800000000692,
            "durationTicks": 192,
            "midi": 63,
            "name": "D#4",
            "ticks": 87936,
            "time": 83.272644,
            "velocity": 0.2440944881889764
          },
          {
            "duration": 0.1818179999999927,
            "durationTicks": 192,
            "midi": 61,
            "name": "C#4",
            "ticks": 88128,
            "time": 83.454462,
            "velocity": 0.2440944881889764
          },
          {
            "duration": 0.18181800000000692,
            "durationTicks": 192,
            "midi": 66,
            "name": "F#4",
            "ticks": 88320,
            "time": 83.63628,
            "velocity": 0.2440944881889764
          },
          {
            "duration": 0.18181800000000692,
            "durationTicks": 192,
            "midi": 63,
            "name": "D#4",
            "ticks": 88704,
            "time": 83.999916,
            "velocity": 0.2440944881889764
          },
          {
            "duration": 0.1818179999999927,
            "durationTicks": 192,
            "midi": 61,
            "name": "C#4",
            "ticks": 88896,
            "time": 84.181734,
            "velocity": 0.2440944881889764
          },
          {
            "duration": 0.18181800000000692,
            "durationTicks": 192,
            "midi": 54,
            "name": "F#3",
            "ticks": 89088,
            "time": 84.363552,
            "velocity": 0.2440944881889764
          },
          {
            "duration": 0.1818179999999927,
            "durationTicks": 192,
            "midi": 54,
            "name": "F#3",
            "ticks": 89280,
            "time": 84.54537,
            "velocity": 0.2440944881889764
          },
          {
            "duration": 0.18181800000000692,
            "durationTicks": 192,
            "midi": 54,
            "name": "F#3",
            "ticks": 89472,
            "time": 84.727188,
            "velocity": 0.2440944881889764
          },
          {
            "duration": 0.1818179999999927,
            "durationTicks": 192,
            "midi": 54,
            "name": "F#3",
            "ticks": 89664,
            "time": 84.909006,
            "velocity": 0.2440944881889764
          },
          {
            "duration": 0.18181800000000692,
            "durationTicks": 192,
            "midi": 54,
            "name": "F#3",
            "ticks": 89856,
            "time": 85.090824,
            "velocity": 0.2440944881889764
          },
          {
            "duration": 0.18181800000000692,
            "durationTicks": 192,
            "midi": 54,
            "name": "F#3",
            "ticks": 90240,
            "time": 85.45446,
            "velocity": 0.2440944881889764
          },
          {
            "duration": 0.18181800000000692,
            "durationTicks": 192,
            "midi": 56,
            "name": "G#3",
            "ticks": 90624,
            "time": 85.818096,
            "velocity": 0.2440944881889764
          },
          {
            "duration": 0.1818179999999927,
            "durationTicks": 192,
            "midi": 58,
            "name": "A#3",
            "ticks": 90816,
            "time": 85.999914,
            "velocity": 0.2440944881889764
          },
          {
            "duration": 0.18181800000000692,
            "durationTicks": 192,
            "midi": 58,
            "name": "A#3",
            "ticks": 91200,
            "time": 86.36355,
            "velocity": 0.2440944881889764
          },
          {
            "duration": 0.18181800000000692,
            "durationTicks": 192,
            "midi": 49,
            "name": "C#3",
            "ticks": 91968,
            "time": 87.090822,
            "velocity": 0.2440944881889764
          },
          {
            "duration": 0.1818179999999927,
            "durationTicks": 192,
            "midi": 54,
            "name": "F#3",
            "ticks": 92160,
            "time": 87.27264000000001,
            "velocity": 0.2440944881889764
          },
          {
            "duration": 0.18181800000000692,
            "durationTicks": 192,
            "midi": 54,
            "name": "F#3",
            "ticks": 92352,
            "time": 87.454458,
            "velocity": 0.2440944881889764
          },
          {
            "duration": 0.1818179999999927,
            "durationTicks": 192,
            "midi": 54,
            "name": "F#3",
            "ticks": 92544,
            "time": 87.63627600000001,
            "velocity": 0.2440944881889764
          },
          {
            "duration": 0.18181800000000692,
            "durationTicks": 192,
            "midi": 54,
            "name": "F#3",
            "ticks": 92736,
            "time": 87.818094,
            "velocity": 0.2440944881889764
          },
          {
            "duration": 0.1818179999999927,
            "durationTicks": 192,
            "midi": 54,
            "name": "F#3",
            "ticks": 92928,
            "time": 87.99991200000001,
            "velocity": 0.2440944881889764
          },
          {
            "duration": 0.1818179999999927,
            "durationTicks": 192,
            "midi": 54,
            "name": "F#3",
            "ticks": 93312,
            "time": 88.36354800000001,
            "velocity": 0.2440944881889764
          },
          {
            "duration": 0.1818179999999927,
            "durationTicks": 192,
            "midi": 61,
            "name": "C#4",
            "ticks": 93696,
            "time": 88.72718400000001,
            "velocity": 0.2440944881889764
          },
          {
            "duration": 0.18181800000000692,
            "durationTicks": 192,
            "midi": 59,
            "name": "B3",
            "ticks": 93888,
            "time": 88.909002,
            "velocity": 0.2440944881889764
          },
          {
            "duration": 0.18181800000000692,
            "durationTicks": 192,
            "midi": 58,
            "name": "A#3",
            "ticks": 94272,
            "time": 89.272638,
            "velocity": 0.2440944881889764
          },
          {
            "duration": 0.1818179999999927,
            "durationTicks": 192,
            "midi": 53,
            "name": "F3",
            "ticks": 95232,
            "time": 90.181728,
            "velocity": 0.2440944881889764
          },
          {
            "duration": 0.1818179999999927,
            "durationTicks": 192,
            "midi": 56,
            "name": "G#3",
            "ticks": 95616,
            "time": 90.545364,
            "velocity": 0.2440944881889764
          },
          {
            "duration": 0.18181800000000692,
            "durationTicks": 192,
            "midi": 49,
            "name": "C#3",
            "ticks": 95808,
            "time": 90.727182,
            "velocity": 0.2440944881889764
          },
          {
            "duration": 0.1818179999999927,
            "durationTicks": 192,
            "midi": 49,
            "name": "C#3",
            "ticks": 97152,
            "time": 91.999908,
            "velocity": 0.2440944881889764
          },
          {
            "duration": 0.18181800000000692,
            "durationTicks": 192,
            "midi": 49,
            "name": "C#3",
            "ticks": 97344,
            "time": 92.181726,
            "velocity": 0.2440944881889764
          },
          {
            "duration": 0.18181800000000692,
            "durationTicks": 192,
            "midi": 49,
            "name": "C#3",
            "ticks": 97728,
            "time": 92.545362,
            "velocity": 0.2440944881889764
          },
          {
            "duration": 0.1818179999999927,
            "durationTicks": 192,
            "midi": 58,
            "name": "A#3",
            "ticks": 97920,
            "time": 92.72718,
            "velocity": 0.2440944881889764
          },
          {
            "duration": 0.18181800000000692,
            "durationTicks": 192,
            "midi": 56,
            "name": "G#3",
            "ticks": 98112,
            "time": 92.908998,
            "velocity": 0.2440944881889764
          },
          {
            "duration": 0.18181800000000692,
            "durationTicks": 192,
            "midi": 54,
            "name": "F#3",
            "ticks": 98304,
            "time": 93.090816,
            "velocity": 0.2440944881889764
          },
          {
            "duration": 0.18181800000000692,
            "durationTicks": 192,
            "midi": 70,
            "name": "A#4",
            "ticks": 100224,
            "time": 94.908996,
            "velocity": 0.2440944881889764
          },
          {
            "duration": 0.18181800000000692,
            "durationTicks": 192,
            "midi": 58,
            "name": "A#3",
            "ticks": 100224,
            "time": 94.908996,
            "velocity": 0.2440944881889764
          },
          {
            "duration": 0.18181800000000692,
            "durationTicks": 192,
            "midi": 70,
            "name": "A#4",
            "ticks": 100608,
            "time": 95.272632,
            "velocity": 0.2440944881889764
          },
          {
            "duration": 0.18181800000000692,
            "durationTicks": 192,
            "midi": 58,
            "name": "A#3",
            "ticks": 100608,
            "time": 95.272632,
            "velocity": 0.2440944881889764
          },
          {
            "duration": 0.18181800000000692,
            "durationTicks": 192,
            "midi": 56,
            "name": "G#3",
            "ticks": 100992,
            "time": 95.636268,
            "velocity": 0.2440944881889764
          },
          {
            "duration": 0.18181800000000692,
            "durationTicks": 192,
            "midi": 68,
            "name": "G#4",
            "ticks": 100992,
            "time": 95.636268,
            "velocity": 0.2440944881889764
          },
          {
            "duration": 0.18181800000000692,
            "durationTicks": 192,
            "midi": 46,
            "name": "A#2",
            "ticks": 101376,
            "time": 95.999904,
            "velocity": 0.2440944881889764
          },
          {
            "duration": 0.18181800000000692,
            "durationTicks": 192,
            "midi": 49,
            "name": "C#3",
            "ticks": 101376,
            "time": 95.999904,
            "velocity": 0.2440944881889764
          },
          {
            "duration": 0.18181800000000692,
            "durationTicks": 192,
            "midi": 54,
            "name": "F#3",
            "ticks": 101760,
            "time": 96.36354,
            "velocity": 0.2440944881889764
          },
          {
            "duration": 0.18181800000000692,
            "durationTicks": 192,
            "midi": 58,
            "name": "A#3",
            "ticks": 101760,
            "time": 96.36354,
            "velocity": 0.2440944881889764
          },
          {
            "duration": 0.1818179999999927,
            "durationTicks": 192,
            "midi": 56,
            "name": "G#3",
            "ticks": 101952,
            "time": 96.54535800000001,
            "velocity": 0.2440944881889764
          },
          {
            "duration": 0.18181800000000692,
            "durationTicks": 192,
            "midi": 54,
            "name": "F#3",
            "ticks": 102144,
            "time": 96.727176,
            "velocity": 0.2440944881889764
          },
          {
            "duration": 0.18181800000000692,
            "durationTicks": 192,
            "midi": 46,
            "name": "A#2",
            "ticks": 102144,
            "time": 96.727176,
            "velocity": 0.2440944881889764
          },
          {
            "duration": 0.1818179999999927,
            "durationTicks": 192,
            "midi": 53,
            "name": "F3",
            "ticks": 102720,
            "time": 97.27263,
            "velocity": 0.2440944881889764
          },
          {
            "duration": 0.1818179999999927,
            "durationTicks": 192,
            "midi": 56,
            "name": "G#3",
            "ticks": 102720,
            "time": 97.27263,
            "velocity": 0.2440944881889764
          },
          {
            "duration": 0.1818179999999927,
            "durationTicks": 192,
            "midi": 51,
            "name": "D#3",
            "ticks": 103104,
            "time": 97.636266,
            "velocity": 0.2440944881889764
          },
          {
            "duration": 0.1818179999999927,
            "durationTicks": 192,
            "midi": 54,
            "name": "F#3",
            "ticks": 103104,
            "time": 97.636266,
            "velocity": 0.2440944881889764
          },
          {
            "duration": 0.18181800000000692,
            "durationTicks": 192,
            "midi": 56,
            "name": "G#3",
            "ticks": 103296,
            "time": 97.818084,
            "velocity": 0.2440944881889764
          },
          {
            "duration": 0.18181800000000692,
            "durationTicks": 192,
            "midi": 53,
            "name": "F3",
            "ticks": 103296,
            "time": 97.818084,
            "velocity": 0.2440944881889764
          },
          {
            "duration": 0.1818179999999927,
            "durationTicks": 192,
            "midi": 51,
            "name": "D#3",
            "ticks": 103488,
            "time": 97.999902,
            "velocity": 0.2440944881889764
          },
          {
            "duration": 0.1818179999999927,
            "durationTicks": 192,
            "midi": 54,
            "name": "F#3",
            "ticks": 103488,
            "time": 97.999902,
            "velocity": 0.2440944881889764
          },
          {
            "duration": 0.18181800000000692,
            "durationTicks": 192,
            "midi": 53,
            "name": "F3",
            "ticks": 103680,
            "time": 98.18172,
            "velocity": 0.2440944881889764
          },
          {
            "duration": 0.18181800000000692,
            "durationTicks": 192,
            "midi": 56,
            "name": "G#3",
            "ticks": 103680,
            "time": 98.18172,
            "velocity": 0.2440944881889764
          },
          {
            "duration": 0.18181800000000692,
            "durationTicks": 192,
            "midi": 54,
            "name": "F#3",
            "ticks": 104064,
            "time": 98.545356,
            "velocity": 0.2440944881889764
          },
          {
            "duration": 0.18181800000000692,
            "durationTicks": 192,
            "midi": 58,
            "name": "A#3",
            "ticks": 104064,
            "time": 98.545356,
            "velocity": 0.2440944881889764
          },
          {
            "duration": 0.18181800000000692,
            "durationTicks": 192,
            "midi": 42,
            "name": "F#2",
            "ticks": 104448,
            "time": 98.908992,
            "velocity": 0.2440944881889764
          },
          {
            "duration": 0.18181800000000692,
            "durationTicks": 192,
            "midi": 51,
            "name": "D#3",
            "ticks": 104448,
            "time": 98.908992,
            "velocity": 0.2440944881889764
          },
          {
            "duration": 0.18181800000000692,
            "durationTicks": 192,
            "midi": 58,
            "name": "A#3",
            "ticks": 104832,
            "time": 99.272628,
            "velocity": 0.2440944881889764
          },
          {
            "duration": 0.18181800000000692,
            "durationTicks": 192,
            "midi": 54,
            "name": "F#3",
            "ticks": 104832,
            "time": 99.272628,
            "velocity": 0.2440944881889764
          },
          {
            "duration": 0.1818179999999927,
            "durationTicks": 192,
            "midi": 56,
            "name": "G#3",
            "ticks": 105024,
            "time": 99.454446,
            "velocity": 0.2440944881889764
          },
          {
            "duration": 0.18181800000000692,
            "durationTicks": 192,
            "midi": 54,
            "name": "F#3",
            "ticks": 105216,
            "time": 99.636264,
            "velocity": 0.2440944881889764
          },
          {
            "duration": 0.18181800000000692,
            "durationTicks": 192,
            "midi": 51,
            "name": "D#3",
            "ticks": 105216,
            "time": 99.636264,
            "velocity": 0.2440944881889764
          },
          {
            "duration": 0.1818179999999927,
            "durationTicks": 192,
            "midi": 54,
            "name": "F#3",
            "ticks": 105600,
            "time": 99.99990000000001,
            "velocity": 0.2440944881889764
          },
          {
            "duration": 0.18181800000000692,
            "durationTicks": 192,
            "midi": 51,
            "name": "D#3",
            "ticks": 105792,
            "time": 100.181718,
            "velocity": 0.2440944881889764
          },
          {
            "duration": 0.18181800000000692,
            "durationTicks": 192,
            "midi": 56,
            "name": "G#3",
            "ticks": 105792,
            "time": 100.181718,
            "velocity": 0.2440944881889764
          },
          {
            "duration": 0.18181800000000692,
            "durationTicks": 192,
            "midi": 54,
            "name": "F#3",
            "ticks": 106176,
            "time": 100.545354,
            "velocity": 0.2440944881889764
          },
          {
            "duration": 0.1818179999999927,
            "durationTicks": 192,
            "midi": 51,
            "name": "D#3",
            "ticks": 106368,
            "time": 100.72717200000001,
            "velocity": 0.2440944881889764
          },
          {
            "duration": 0.1818179999999927,
            "durationTicks": 192,
            "midi": 56,
            "name": "G#3",
            "ticks": 106368,
            "time": 100.72717200000001,
            "velocity": 0.2440944881889764
          },
          {
            "duration": 0.18181800000000692,
            "durationTicks": 192,
            "midi": 58,
            "name": "A#3",
            "ticks": 106560,
            "time": 100.90899,
            "velocity": 0.2440944881889764
          },
          {
            "duration": 0.1818179999999927,
            "durationTicks": 192,
            "midi": 51,
            "name": "D#3",
            "ticks": 106752,
            "time": 101.09080800000001,
            "velocity": 0.2440944881889764
          },
          {
            "duration": 0.1818179999999927,
            "durationTicks": 192,
            "midi": 56,
            "name": "G#3",
            "ticks": 106752,
            "time": 101.09080800000001,
            "velocity": 0.2440944881889764
          },
          {
            "duration": 0.1818179999999927,
            "durationTicks": 192,
            "midi": 51,
            "name": "D#3",
            "ticks": 107136,
            "time": 101.45444400000001,
            "velocity": 0.2440944881889764
          },
          {
            "duration": 0.1818179999999927,
            "durationTicks": 192,
            "midi": 54,
            "name": "F#3",
            "ticks": 107136,
            "time": 101.45444400000001,
            "velocity": 0.2440944881889764
          },
          {
            "duration": 0.1818179999999927,
            "durationTicks": 192,
            "midi": 46,
            "name": "A#2",
            "ticks": 107520,
            "time": 101.81808000000001,
            "velocity": 0.2440944881889764
          },
          {
            "duration": 0.1818179999999927,
            "durationTicks": 192,
            "midi": 49,
            "name": "C#3",
            "ticks": 107520,
            "time": 101.81808000000001,
            "velocity": 0.2440944881889764
          },
          {
            "duration": 0.1818179999999927,
            "durationTicks": 192,
            "midi": 58,
            "name": "A#3",
            "ticks": 107904,
            "time": 102.18171600000001,
            "velocity": 0.2440944881889764
          },
          {
            "duration": 0.1818179999999927,
            "durationTicks": 192,
            "midi": 54,
            "name": "F#3",
            "ticks": 107904,
            "time": 102.18171600000001,
            "velocity": 0.2440944881889764
          },
          {
            "duration": 0.18181800000000692,
            "durationTicks": 192,
            "midi": 56,
            "name": "G#3",
            "ticks": 108096,
            "time": 102.363534,
            "velocity": 0.2440944881889764
          },
          {
            "duration": 0.1818179999999927,
            "durationTicks": 192,
            "midi": 54,
            "name": "F#3",
            "ticks": 108288,
            "time": 102.54535200000001,
            "velocity": 0.2440944881889764
          },
          {
            "duration": 0.1818179999999927,
            "durationTicks": 192,
            "midi": 46,
            "name": "A#2",
            "ticks": 108288,
            "time": 102.54535200000001,
            "velocity": 0.2440944881889764
          },
          {
            "duration": 0.18181800000000692,
            "durationTicks": 192,
            "midi": 53,
            "name": "F3",
            "ticks": 108864,
            "time": 103.090806,
            "velocity": 0.2440944881889764
          },
          {
            "duration": 0.18181800000000692,
            "durationTicks": 192,
            "midi": 56,
            "name": "G#3",
            "ticks": 108864,
            "time": 103.090806,
            "velocity": 0.2440944881889764
          },
          {
            "duration": 0.18181800000000692,
            "durationTicks": 192,
            "midi": 53,
            "name": "F3",
            "ticks": 108864,
            "time": 103.090806,
            "velocity": 0.2440944881889764
          },
          {
            "duration": 0.18181800000000692,
            "durationTicks": 192,
            "midi": 54,
            "name": "F#3",
            "ticks": 109248,
            "time": 103.454442,
            "velocity": 0.2440944881889764
          },
          {
            "duration": 0.18181800000000692,
            "durationTicks": 192,
            "midi": 51,
            "name": "D#3",
            "ticks": 109248,
            "time": 103.454442,
            "velocity": 0.2440944881889764
          },
          {
            "duration": 0.1818179999999927,
            "durationTicks": 192,
            "midi": 53,
            "name": "F3",
            "ticks": 109440,
            "time": 103.63626000000001,
            "velocity": 0.2440944881889764
          },
          {
            "duration": 0.1818179999999927,
            "durationTicks": 192,
            "midi": 56,
            "name": "G#3",
            "ticks": 109440,
            "time": 103.63626000000001,
            "velocity": 0.2440944881889764
          },
          {
            "duration": 0.1818179999999927,
            "durationTicks": 192,
            "midi": 56,
            "name": "G#3",
            "ticks": 109824,
            "time": 103.999896,
            "velocity": 0.2440944881889764
          },
          {
            "duration": 0.1818179999999927,
            "durationTicks": 192,
            "midi": 53,
            "name": "F3",
            "ticks": 109824,
            "time": 103.999896,
            "velocity": 0.2440944881889764
          },
          {
            "duration": 0.1818179999999927,
            "durationTicks": 192,
            "midi": 54,
            "name": "F#3",
            "ticks": 110208,
            "time": 104.363532,
            "velocity": 0.2440944881889764
          },
          {
            "duration": 0.1818179999999927,
            "durationTicks": 192,
            "midi": 58,
            "name": "A#3",
            "ticks": 110208,
            "time": 104.363532,
            "velocity": 0.2440944881889764
          },
          {
            "duration": 0.1818179999999927,
            "durationTicks": 192,
            "midi": 58,
            "name": "A#3",
            "ticks": 110592,
            "time": 104.727168,
            "velocity": 0.2440944881889764
          },
          {
            "duration": 0.1818179999999927,
            "durationTicks": 192,
            "midi": 61,
            "name": "C#4",
            "ticks": 110592,
            "time": 104.727168,
            "velocity": 0.2440944881889764
          },
          {
            "duration": 0.1818179999999927,
            "durationTicks": 192,
            "midi": 56,
            "name": "G#3",
            "ticks": 110976,
            "time": 105.090804,
            "velocity": 0.2440944881889764
          },
          {
            "duration": 0.1818179999999927,
            "durationTicks": 192,
            "midi": 59,
            "name": "B3",
            "ticks": 110976,
            "time": 105.090804,
            "velocity": 0.2440944881889764
          },
          {
            "duration": 0.18181800000000692,
            "durationTicks": 192,
            "midi": 54,
            "name": "F#3",
            "ticks": 111168,
            "time": 105.272622,
            "velocity": 0.2440944881889764
          },
          {
            "duration": 0.18181800000000692,
            "durationTicks": 192,
            "midi": 58,
            "name": "A#3",
            "ticks": 111168,
            "time": 105.272622,
            "velocity": 0.2440944881889764
          },
          {
            "duration": 0.1818179999999927,
            "durationTicks": 192,
            "midi": 51,
            "name": "D#3",
            "ticks": 111360,
            "time": 105.45444,
            "velocity": 0.2440944881889764
          },
          {
            "duration": 0.1818179999999927,
            "durationTicks": 192,
            "midi": 54,
            "name": "F#3",
            "ticks": 111360,
            "time": 105.45444,
            "velocity": 0.2440944881889764
          },
          {
            "duration": 0.1818179999999927,
            "durationTicks": 192,
            "midi": 54,
            "name": "F#3",
            "ticks": 111744,
            "time": 105.818076,
            "velocity": 0.2440944881889764
          },
          {
            "duration": 0.18181800000000692,
            "durationTicks": 192,
            "midi": 56,
            "name": "G#3",
            "ticks": 111936,
            "time": 105.999894,
            "velocity": 0.2440944881889764
          },
          {
            "duration": 0.18181800000000692,
            "durationTicks": 192,
            "midi": 51,
            "name": "D#3",
            "ticks": 111936,
            "time": 105.999894,
            "velocity": 0.2440944881889764
          },
          {
            "duration": 0.18181800000000692,
            "durationTicks": 192,
            "midi": 56,
            "name": "G#3",
            "ticks": 112320,
            "time": 106.36353,
            "velocity": 0.2440944881889764
          },
          {
            "duration": 0.18181800000000692,
            "durationTicks": 192,
            "midi": 58,
            "name": "A#3",
            "ticks": 112512,
            "time": 106.545348,
            "velocity": 0.2440944881889764
          },
          {
            "duration": 0.5454540000000065,
            "durationTicks": 576,
            "midi": 51,
            "name": "D#3",
            "ticks": 112896,
            "time": 106.908984,
            "velocity": 0.2440944881889764
          },
          {
            "duration": 0.18181800000000692,
            "durationTicks": 192,
            "midi": 56,
            "name": "G#3",
            "ticks": 112896,
            "time": 106.908984,
            "velocity": 0.2440944881889764
          },
          {
            "duration": 0.18181800000000692,
            "durationTicks": 192,
            "midi": 54,
            "name": "F#3",
            "ticks": 113280,
            "time": 107.27262,
            "velocity": 0.2440944881889764
          },
          {
            "duration": 0.18181800000000692,
            "durationTicks": 192,
            "midi": 58,
            "name": "A#3",
            "ticks": 113664,
            "time": 107.636256,
            "velocity": 0.2440944881889764
          },
          {
            "duration": 0.18181800000000692,
            "durationTicks": 192,
            "midi": 70,
            "name": "A#4",
            "ticks": 113664,
            "time": 107.636256,
            "velocity": 0.2440944881889764
          },
          {
            "duration": 0.1818179999999927,
            "durationTicks": 192,
            "midi": 58,
            "name": "A#3",
            "ticks": 113952,
            "time": 107.908983,
            "velocity": 0.2440944881889764
          },
          {
            "duration": 0.1818179999999927,
            "durationTicks": 192,
            "midi": 70,
            "name": "A#4",
            "ticks": 113952,
            "time": 107.908983,
            "velocity": 0.2440944881889764
          },
          {
            "duration": 0.1818179999999927,
            "durationTicks": 192,
            "midi": 58,
            "name": "A#3",
            "ticks": 114240,
            "time": 108.18171000000001,
            "velocity": 0.2440944881889764
          },
          {
            "duration": 0.1818179999999927,
            "durationTicks": 192,
            "midi": 70,
            "name": "A#4",
            "ticks": 114240,
            "time": 108.18171000000001,
            "velocity": 0.2440944881889764
          },
          {
            "duration": 0.18181800000000692,
            "durationTicks": 192,
            "midi": 71,
            "name": "B4",
            "ticks": 114528,
            "time": 108.454437,
            "velocity": 0.2440944881889764
          },
          {
            "duration": 0.18181800000000692,
            "durationTicks": 192,
            "midi": 59,
            "name": "B3",
            "ticks": 114528,
            "time": 108.454437,
            "velocity": 0.2440944881889764
          },
          {
            "duration": 0.18181800000000692,
            "durationTicks": 192,
            "midi": 54,
            "name": "F#3",
            "ticks": 114816,
            "time": 108.727164,
            "velocity": 0.2440944881889764
          },
          {
            "duration": 0.18181800000000692,
            "durationTicks": 192,
            "midi": 66,
            "name": "F#4",
            "ticks": 114816,
            "time": 108.727164,
            "velocity": 0.2440944881889764
          },
          {
            "duration": 0.1818179999999927,
            "durationTicks": 192,
            "midi": 58,
            "name": "A#3",
            "ticks": 115008,
            "time": 108.90898200000001,
            "velocity": 0.2440944881889764
          },
          {
            "duration": 0.1818179999999927,
            "durationTicks": 192,
            "midi": 70,
            "name": "A#4",
            "ticks": 115008,
            "time": 108.90898200000001,
            "velocity": 0.2440944881889764
          },
          {
            "duration": 0.18181800000000692,
            "durationTicks": 192,
            "midi": 56,
            "name": "G#3",
            "ticks": 115200,
            "time": 109.0908,
            "velocity": 0.2440944881889764
          },
          {
            "duration": 0.18181800000000692,
            "durationTicks": 192,
            "midi": 68,
            "name": "G#4",
            "ticks": 115200,
            "time": 109.0908,
            "velocity": 0.2440944881889764
          },
          {
            "duration": 0.1818179999999927,
            "durationTicks": 192,
            "midi": 68,
            "name": "G#4",
            "ticks": 115488,
            "time": 109.363527,
            "velocity": 0.2440944881889764
          },
          {
            "duration": 0.1818179999999927,
            "durationTicks": 192,
            "midi": 56,
            "name": "G#3",
            "ticks": 115488,
            "time": 109.363527,
            "velocity": 0.2440944881889764
          },
          {
            "duration": 0.1818179999999927,
            "durationTicks": 192,
            "midi": 56,
            "name": "G#3",
            "ticks": 115776,
            "time": 109.63625400000001,
            "velocity": 0.2440944881889764
          },
          {
            "duration": 0.1818179999999927,
            "durationTicks": 192,
            "midi": 68,
            "name": "G#4",
            "ticks": 115776,
            "time": 109.63625400000001,
            "velocity": 0.2440944881889764
          },
          {
            "duration": 0.1818179999999927,
            "durationTicks": 192,
            "midi": 58,
            "name": "A#3",
            "ticks": 116064,
            "time": 109.90898100000001,
            "velocity": 0.2440944881889764
          },
          {
            "duration": 0.1818179999999927,
            "durationTicks": 192,
            "midi": 70,
            "name": "A#4",
            "ticks": 116064,
            "time": 109.90898100000001,
            "velocity": 0.2440944881889764
          },
          {
            "duration": 0.18181800000000692,
            "durationTicks": 192,
            "midi": 61,
            "name": "C#4",
            "ticks": 116352,
            "time": 110.181708,
            "velocity": 0.2440944881889764
          },
          {
            "duration": 0.18181800000000692,
            "durationTicks": 192,
            "midi": 49,
            "name": "C#3",
            "ticks": 116352,
            "time": 110.181708,
            "velocity": 0.2440944881889764
          },
          {
            "duration": 0.1818179999999927,
            "durationTicks": 192,
            "midi": 68,
            "name": "G#4",
            "ticks": 116544,
            "time": 110.36352600000001,
            "velocity": 0.2440944881889764
          },
          {
            "duration": 0.1818179999999927,
            "durationTicks": 192,
            "midi": 56,
            "name": "G#3",
            "ticks": 116544,
            "time": 110.36352600000001,
            "velocity": 0.2440944881889764
          },
          {
            "duration": 0.18181800000000692,
            "durationTicks": 192,
            "midi": 66,
            "name": "F#4",
            "ticks": 116736,
            "time": 110.545344,
            "velocity": 0.2440944881889764
          },
          {
            "duration": 0.18181800000000692,
            "durationTicks": 192,
            "midi": 54,
            "name": "F#3",
            "ticks": 116736,
            "time": 110.545344,
            "velocity": 0.2440944881889764
          },
          {
            "duration": 0.18181800000000692,
            "durationTicks": 192,
            "midi": 66,
            "name": "F#4",
            "ticks": 117024,
            "time": 110.818071,
            "velocity": 0.2440944881889764
          },
          {
            "duration": 0.18181800000000692,
            "durationTicks": 192,
            "midi": 54,
            "name": "F#3",
            "ticks": 117024,
            "time": 110.818071,
            "velocity": 0.2440944881889764
          },
          {
            "duration": 0.1818179999999927,
            "durationTicks": 192,
            "midi": 54,
            "name": "F#3",
            "ticks": 117312,
            "time": 111.090798,
            "velocity": 0.2440944881889764
          },
          {
            "duration": 0.1818179999999927,
            "durationTicks": 192,
            "midi": 66,
            "name": "F#4",
            "ticks": 117312,
            "time": 111.090798,
            "velocity": 0.2440944881889764
          },
          {
            "duration": 0.1818179999999927,
            "durationTicks": 192,
            "midi": 66,
            "name": "F#4",
            "ticks": 117600,
            "time": 111.36352500000001,
            "velocity": 0.2440944881889764
          },
          {
            "duration": 0.1818179999999927,
            "durationTicks": 192,
            "midi": 54,
            "name": "F#3",
            "ticks": 117600,
            "time": 111.36352500000001,
            "velocity": 0.2440944881889764
          },
          {
            "duration": 0.18181800000000692,
            "durationTicks": 192,
            "midi": 61,
            "name": "C#4",
            "ticks": 117888,
            "time": 111.636252,
            "velocity": 0.2440944881889764
          },
          {
            "duration": 0.18181800000000692,
            "durationTicks": 192,
            "midi": 49,
            "name": "C#3",
            "ticks": 117888,
            "time": 111.636252,
            "velocity": 0.2440944881889764
          },
          {
            "duration": 0.1818179999999927,
            "durationTicks": 192,
            "midi": 68,
            "name": "G#4",
            "ticks": 118080,
            "time": 111.81807,
            "velocity": 0.2440944881889764
          },
          {
            "duration": 0.1818179999999927,
            "durationTicks": 192,
            "midi": 56,
            "name": "G#3",
            "ticks": 118080,
            "time": 111.81807,
            "velocity": 0.2440944881889764
          },
          {
            "duration": 0.18181800000000692,
            "durationTicks": 192,
            "midi": 54,
            "name": "F#3",
            "ticks": 118272,
            "time": 111.999888,
            "velocity": 0.2440944881889764
          },
          {
            "duration": 0.18181800000000692,
            "durationTicks": 192,
            "midi": 66,
            "name": "F#4",
            "ticks": 118272,
            "time": 111.999888,
            "velocity": 0.2440944881889764
          },
          {
            "duration": 0.18181800000000692,
            "durationTicks": 192,
            "midi": 66,
            "name": "F#4",
            "ticks": 118560,
            "time": 112.272615,
            "velocity": 0.2440944881889764
          },
          {
            "duration": 0.18181800000000692,
            "durationTicks": 192,
            "midi": 54,
            "name": "F#3",
            "ticks": 118560,
            "time": 112.272615,
            "velocity": 0.2440944881889764
          },
          {
            "duration": 0.1818179999999927,
            "durationTicks": 192,
            "midi": 54,
            "name": "F#3",
            "ticks": 118848,
            "time": 112.545342,
            "velocity": 0.2440944881889764
          },
          {
            "duration": 0.1818179999999927,
            "durationTicks": 192,
            "midi": 66,
            "name": "F#4",
            "ticks": 118848,
            "time": 112.545342,
            "velocity": 0.2440944881889764
          },
          {
            "duration": 0.1818179999999927,
            "durationTicks": 192,
            "midi": 65,
            "name": "F4",
            "ticks": 119136,
            "time": 112.81806900000001,
            "velocity": 0.2440944881889764
          },
          {
            "duration": 0.1818179999999927,
            "durationTicks": 192,
            "midi": 53,
            "name": "F3",
            "ticks": 119136,
            "time": 112.81806900000001,
            "velocity": 0.2440944881889764
          },
          {
            "duration": 0.1818179999999927,
            "durationTicks": 192,
            "midi": 66,
            "name": "F#4",
            "ticks": 119424,
            "time": 113.09079600000001,
            "velocity": 0.2440944881889764
          },
          {
            "duration": 0.1818179999999927,
            "durationTicks": 192,
            "midi": 54,
            "name": "F#3",
            "ticks": 119424,
            "time": 113.09079600000001,
            "velocity": 0.2440944881889764
          },
          {
            "duration": 0.18181800000000692,
            "durationTicks": 192,
            "midi": 56,
            "name": "G#3",
            "ticks": 119616,
            "time": 113.272614,
            "velocity": 0.2440944881889764
          },
          {
            "duration": 0.18181800000000692,
            "durationTicks": 192,
            "midi": 68,
            "name": "G#4",
            "ticks": 119616,
            "time": 113.272614,
            "velocity": 0.2440944881889764
          },
          {
            "duration": 0.1818179999999927,
            "durationTicks": 192,
            "midi": 70,
            "name": "A#4",
            "ticks": 119808,
            "time": 113.45443200000001,
            "velocity": 0.2440944881889764
          },
          {
            "duration": 0.1818179999999927,
            "durationTicks": 192,
            "midi": 58,
            "name": "A#3",
            "ticks": 119808,
            "time": 113.45443200000001,
            "velocity": 0.2440944881889764
          },
          {
            "duration": 0.18181800000000692,
            "durationTicks": 192,
            "midi": 70,
            "name": "A#4",
            "ticks": 120096,
            "time": 113.727159,
            "velocity": 0.2440944881889764
          },
          {
            "duration": 0.18181800000000692,
            "durationTicks": 192,
            "midi": 58,
            "name": "A#3",
            "ticks": 120096,
            "time": 113.727159,
            "velocity": 0.2440944881889764
          },
          {
            "duration": 0.18181800000000692,
            "durationTicks": 192,
            "midi": 70,
            "name": "A#4",
            "ticks": 120384,
            "time": 113.999886,
            "velocity": 0.2440944881889764
          },
          {
            "duration": 0.18181800000000692,
            "durationTicks": 192,
            "midi": 58,
            "name": "A#3",
            "ticks": 120384,
            "time": 113.999886,
            "velocity": 0.2440944881889764
          },
          {
            "duration": 0.1818179999999927,
            "durationTicks": 192,
            "midi": 59,
            "name": "B3",
            "ticks": 120672,
            "time": 114.272613,
            "velocity": 0.2440944881889764
          },
          {
            "duration": 0.1818179999999927,
            "durationTicks": 192,
            "midi": 71,
            "name": "B4",
            "ticks": 120672,
            "time": 114.272613,
            "velocity": 0.2440944881889764
          },
          {
            "duration": 0.1818179999999927,
            "durationTicks": 192,
            "midi": 54,
            "name": "F#3",
            "ticks": 120960,
            "time": 114.54534000000001,
            "velocity": 0.2440944881889764
          },
          {
            "duration": 0.1818179999999927,
            "durationTicks": 192,
            "midi": 66,
            "name": "F#4",
            "ticks": 120960,
            "time": 114.54534000000001,
            "velocity": 0.2440944881889764
          },
          {
            "duration": 0.18181800000000692,
            "durationTicks": 192,
            "midi": 58,
            "name": "A#3",
            "ticks": 121152,
            "time": 114.727158,
            "velocity": 0.2440944881889764
          },
          {
            "duration": 0.18181800000000692,
            "durationTicks": 192,
            "midi": 70,
            "name": "A#4",
            "ticks": 121152,
            "time": 114.727158,
            "velocity": 0.2440944881889764
          },
          {
            "duration": 0.1818179999999927,
            "durationTicks": 192,
            "midi": 56,
            "name": "G#3",
            "ticks": 121344,
            "time": 114.90897600000001,
            "velocity": 0.2440944881889764
          },
          {
            "duration": 0.1818179999999927,
            "durationTicks": 192,
            "midi": 68,
            "name": "G#4",
            "ticks": 121344,
            "time": 114.90897600000001,
            "velocity": 0.2440944881889764
          },
          {
            "duration": 0.18181800000000692,
            "durationTicks": 192,
            "midi": 68,
            "name": "G#4",
            "ticks": 121632,
            "time": 115.181703,
            "velocity": 0.2440944881889764
          },
          {
            "duration": 0.18181800000000692,
            "durationTicks": 192,
            "midi": 56,
            "name": "G#3",
            "ticks": 121632,
            "time": 115.181703,
            "velocity": 0.2440944881889764
          },
          {
            "duration": 0.18181800000000692,
            "durationTicks": 192,
            "midi": 56,
            "name": "G#3",
            "ticks": 121920,
            "time": 115.45443,
            "velocity": 0.2440944881889764
          },
          {
            "duration": 0.18181800000000692,
            "durationTicks": 192,
            "midi": 68,
            "name": "G#4",
            "ticks": 121920,
            "time": 115.45443,
            "velocity": 0.2440944881889764
          },
          {
            "duration": 0.1818179999999927,
            "durationTicks": 192,
            "midi": 73,
            "name": "C#5",
            "ticks": 122208,
            "time": 115.727157,
            "velocity": 0.2440944881889764
          },
          {
            "duration": 0.1818179999999927,
            "durationTicks": 192,
            "midi": 61,
            "name": "C#4",
            "ticks": 122208,
            "time": 115.727157,
            "velocity": 0.2440944881889764
          },
          {
            "duration": 0.1818179999999927,
            "durationTicks": 192,
            "midi": 53,
            "name": "F3",
            "ticks": 122496,
            "time": 115.99988400000001,
            "velocity": 0.2440944881889764
          },
          {
            "duration": 0.1818179999999927,
            "durationTicks": 192,
            "midi": 65,
            "name": "F4",
            "ticks": 122496,
            "time": 115.99988400000001,
            "velocity": 0.2440944881889764
          },
          {
            "duration": 0.18181800000000692,
            "durationTicks": 192,
            "midi": 56,
            "name": "G#3",
            "ticks": 122688,
            "time": 116.181702,
            "velocity": 0.2440944881889764
          },
          {
            "duration": 0.18181800000000692,
            "durationTicks": 192,
            "midi": 68,
            "name": "G#4",
            "ticks": 122688,
            "time": 116.181702,
            "velocity": 0.2440944881889764
          },
          {
            "duration": 0.1818179999999927,
            "durationTicks": 192,
            "midi": 54,
            "name": "F#3",
            "ticks": 122880,
            "time": 116.36352000000001,
            "velocity": 0.2440944881889764
          },
          {
            "duration": 0.1818179999999927,
            "durationTicks": 192,
            "midi": 66,
            "name": "F#4",
            "ticks": 122880,
            "time": 116.36352000000001,
            "velocity": 0.2440944881889764
          },
          {
            "duration": 0.1818179999999927,
            "durationTicks": 192,
            "midi": 66,
            "name": "F#4",
            "ticks": 123168,
            "time": 116.63624700000001,
            "velocity": 0.2440944881889764
          },
          {
            "duration": 0.1818179999999927,
            "durationTicks": 192,
            "midi": 54,
            "name": "F#3",
            "ticks": 123168,
            "time": 116.63624700000001,
            "velocity": 0.2440944881889764
          },
          {
            "duration": 0.18181800000000692,
            "durationTicks": 192,
            "midi": 66,
            "name": "F#4",
            "ticks": 123456,
            "time": 116.908974,
            "velocity": 0.2440944881889764
          },
          {
            "duration": 0.18181800000000692,
            "durationTicks": 192,
            "midi": 54,
            "name": "F#3",
            "ticks": 123456,
            "time": 116.908974,
            "velocity": 0.2440944881889764
          },
          {
            "duration": 0.18181800000000692,
            "durationTicks": 192,
            "midi": 56,
            "name": "G#3",
            "ticks": 123744,
            "time": 117.181701,
            "velocity": 0.2440944881889764
          },
          {
            "duration": 0.18181800000000692,
            "durationTicks": 192,
            "midi": 68,
            "name": "G#4",
            "ticks": 123744,
            "time": 117.181701,
            "velocity": 0.2440944881889764
          },
          {
            "duration": 0.1818179999999927,
            "durationTicks": 192,
            "midi": 63,
            "name": "D#4",
            "ticks": 124032,
            "time": 117.45442800000001,
            "velocity": 0.2440944881889764
          },
          {
            "duration": 0.1818179999999927,
            "durationTicks": 192,
            "midi": 51,
            "name": "D#3",
            "ticks": 124032,
            "time": 117.45442800000001,
            "velocity": 0.2440944881889764
          },
          {
            "duration": 0.18181800000000692,
            "durationTicks": 192,
            "midi": 53,
            "name": "F3",
            "ticks": 124224,
            "time": 117.636246,
            "velocity": 0.2440944881889764
          },
          {
            "duration": 0.18181800000000692,
            "durationTicks": 192,
            "midi": 65,
            "name": "F4",
            "ticks": 124224,
            "time": 117.636246,
            "velocity": 0.2440944881889764
          },
          {
            "duration": 0.1818179999999927,
            "durationTicks": 192,
            "midi": 54,
            "name": "F#3",
            "ticks": 124416,
            "time": 117.818064,
            "velocity": 0.2440944881889764
          },
          {
            "duration": 0.1818179999999927,
            "durationTicks": 192,
            "midi": 66,
            "name": "F#4",
            "ticks": 124416,
            "time": 117.818064,
            "velocity": 0.2440944881889764
          },
          {
            "duration": 0.1818179999999927,
            "durationTicks": 192,
            "midi": 54,
            "name": "F#3",
            "ticks": 124704,
            "time": 118.09079100000001,
            "velocity": 0.2440944881889764
          },
          {
            "duration": 0.18181800000000692,
            "durationTicks": 192,
            "midi": 54,
            "name": "F#3",
            "ticks": 124992,
            "time": 118.363518,
            "velocity": 0.2440944881889764
          },
          {
            "duration": 0.18181800000000692,
            "durationTicks": 192,
            "midi": 53,
            "name": "F3",
            "ticks": 125280,
            "time": 118.636245,
            "velocity": 0.2440944881889764
          },
          {
            "duration": 0.1818179999999927,
            "durationTicks": 192,
            "midi": 54,
            "name": "F#3",
            "ticks": 125568,
            "time": 118.908972,
            "velocity": 0.2440944881889764
          },
          {
            "duration": 0.18181800000000692,
            "durationTicks": 192,
            "midi": 56,
            "name": "G#3",
            "ticks": 125760,
            "time": 119.09079,
            "velocity": 0.2440944881889764
          },
          {
            "duration": 0.1818179999999927,
            "durationTicks": 192,
            "midi": 58,
            "name": "A#3",
            "ticks": 125952,
            "time": 119.272608,
            "velocity": 0.2440944881889764
          },
          {
            "duration": 0.18181800000000692,
            "durationTicks": 192,
            "midi": 58,
            "name": "A#3",
            "ticks": 126336,
            "time": 119.636244,
            "velocity": 0.2440944881889764
          },
          {
            "duration": 0.1818179999999927,
            "durationTicks": 192,
            "midi": 58,
            "name": "A#3",
            "ticks": 126528,
            "time": 119.81806200000001,
            "velocity": 0.2440944881889764
          },
          {
            "duration": 0.18181800000000692,
            "durationTicks": 192,
            "midi": 58,
            "name": "A#3",
            "ticks": 126720,
            "time": 119.99988,
            "velocity": 0.2440944881889764
          },
          {
            "duration": 0.1818179999999927,
            "durationTicks": 192,
            "midi": 56,
            "name": "G#3",
            "ticks": 127296,
            "time": 120.54533400000001,
            "velocity": 0.2440944881889764
          },
          {
            "duration": 0.1818179999999927,
            "durationTicks": 192,
            "midi": 56,
            "name": "G#3",
            "ticks": 127680,
            "time": 120.90897000000001,
            "velocity": 0.2440944881889764
          },
          {
            "duration": 0.18181800000000692,
            "durationTicks": 192,
            "midi": 56,
            "name": "G#3",
            "ticks": 127872,
            "time": 121.090788,
            "velocity": 0.2440944881889764
          },
          {
            "duration": 0.1818179999999927,
            "durationTicks": 192,
            "midi": 54,
            "name": "F#3",
            "ticks": 128064,
            "time": 121.27260600000001,
            "velocity": 0.2440944881889764
          },
          {
            "duration": 0.18181800000000692,
            "durationTicks": 192,
            "midi": 56,
            "name": "G#3",
            "ticks": 128256,
            "time": 121.454424,
            "velocity": 0.2440944881889764
          },
          {
            "duration": 0.18181800000000692,
            "durationTicks": 192,
            "midi": 58,
            "name": "A#3",
            "ticks": 128640,
            "time": 121.81806,
            "velocity": 0.2440944881889764
          },
          {
            "duration": 0.18181800000000692,
            "durationTicks": 192,
            "midi": 54,
            "name": "F#3",
            "ticks": 129024,
            "time": 122.181696,
            "velocity": 0.2440944881889764
          },
          {
            "duration": 0.18181800000000692,
            "durationTicks": 192,
            "midi": 54,
            "name": "F#3",
            "ticks": 129408,
            "time": 122.545332,
            "velocity": 0.2440944881889764
          },
          {
            "duration": 0.1818179999999927,
            "durationTicks": 192,
            "midi": 54,
            "name": "F#3",
            "ticks": 129600,
            "time": 122.72715000000001,
            "velocity": 0.2440944881889764
          },
          {
            "duration": 0.18181800000000692,
            "durationTicks": 192,
            "midi": 54,
            "name": "F#3",
            "ticks": 129792,
            "time": 122.908968,
            "velocity": 0.2440944881889764
          },
          {
            "duration": 0.18181800000000692,
            "durationTicks": 192,
            "midi": 54,
            "name": "F#3",
            "ticks": 130176,
            "time": 123.272604,
            "velocity": 0.2440944881889764
          },
          {
            "duration": 0.1818179999999927,
            "durationTicks": 192,
            "midi": 51,
            "name": "D#3",
            "ticks": 130368,
            "time": 123.45442200000001,
            "velocity": 0.2440944881889764
          },
          {
            "duration": 0.1818179999999927,
            "durationTicks": 192,
            "midi": 51,
            "name": "D#3",
            "ticks": 130752,
            "time": 123.81805800000001,
            "velocity": 0.2440944881889764
          },
          {
            "duration": 0.18181800000000692,
            "durationTicks": 192,
            "midi": 53,
            "name": "F3",
            "ticks": 130944,
            "time": 123.999876,
            "velocity": 0.2440944881889764
          },
          {
            "duration": 0.1818179999999927,
            "durationTicks": 192,
            "midi": 53,
            "name": "F3",
            "ticks": 131136,
            "time": 124.18169400000001,
            "velocity": 0.2440944881889764
          },
          {
            "duration": 0.18181800000000692,
            "durationTicks": 192,
            "midi": 54,
            "name": "F#3",
            "ticks": 131328,
            "time": 124.363512,
            "velocity": 0.2440944881889764
          },
          {
            "duration": 0.18181800000000692,
            "durationTicks": 192,
            "midi": 56,
            "name": "G#3",
            "ticks": 131712,
            "time": 124.727148,
            "velocity": 0.2440944881889764
          },
          {
            "duration": 0.18181800000000692,
            "durationTicks": 192,
            "midi": 58,
            "name": "A#3",
            "ticks": 132096,
            "time": 125.090784,
            "velocity": 0.2440944881889764
          },
          {
            "duration": 0.18181800000000692,
            "durationTicks": 192,
            "midi": 58,
            "name": "A#3",
            "ticks": 132480,
            "time": 125.45442,
            "velocity": 0.2440944881889764
          },
          {
            "duration": 0.1818179999999927,
            "durationTicks": 192,
            "midi": 58,
            "name": "A#3",
            "ticks": 132672,
            "time": 125.636238,
            "velocity": 0.2440944881889764
          },
          {
            "duration": 0.18181800000000692,
            "durationTicks": 192,
            "midi": 58,
            "name": "A#3",
            "ticks": 132864,
            "time": 125.818056,
            "velocity": 0.2440944881889764
          },
          {
            "duration": 0.18181800000000692,
            "durationTicks": 192,
            "midi": 56,
            "name": "G#3",
            "ticks": 133440,
            "time": 126.36351,
            "velocity": 0.2440944881889764
          },
          {
            "duration": 0.18181800000000692,
            "durationTicks": 192,
            "midi": 56,
            "name": "G#3",
            "ticks": 133824,
            "time": 126.727146,
            "velocity": 0.2440944881889764
          },
          {
            "duration": 0.1818179999999927,
            "durationTicks": 192,
            "midi": 61,
            "name": "C#4",
            "ticks": 134016,
            "time": 126.90896400000001,
            "velocity": 0.2440944881889764
          },
          {
            "duration": 0.18181800000000692,
            "durationTicks": 192,
            "midi": 61,
            "name": "C#4",
            "ticks": 134208,
            "time": 127.090782,
            "velocity": 0.2440944881889764
          },
          {
            "duration": 0.1818179999999927,
            "durationTicks": 192,
            "midi": 59,
            "name": "B3",
            "ticks": 134400,
            "time": 127.27260000000001,
            "velocity": 0.2440944881889764
          },
          {
            "duration": 0.1818179999999927,
            "durationTicks": 192,
            "midi": 58,
            "name": "A#3",
            "ticks": 134784,
            "time": 127.63623600000001,
            "velocity": 0.2440944881889764
          },
          {
            "duration": 0.1818179999999927,
            "durationTicks": 192,
            "midi": 54,
            "name": "F#3",
            "ticks": 135168,
            "time": 127.99987200000001,
            "velocity": 0.2440944881889764
          },
          {
            "duration": 0.18181800000002113,
            "durationTicks": 192,
            "midi": 54,
            "name": "F#3",
            "ticks": 135552,
            "time": 128.363508,
            "velocity": 0.2440944881889764
          },
          {
            "duration": 0.1818179999999927,
            "durationTicks": 192,
            "midi": 54,
            "name": "F#3",
            "ticks": 135744,
            "time": 128.54532600000002,
            "velocity": 0.2440944881889764
          },
          {
            "duration": 0.1818179999999927,
            "durationTicks": 192,
            "midi": 54,
            "name": "F#3",
            "ticks": 135936,
            "time": 128.727144,
            "velocity": 0.2440944881889764
          },
          {
            "duration": 0.18181800000002113,
            "durationTicks": 192,
            "midi": 54,
            "name": "F#3",
            "ticks": 136320,
            "time": 129.09078,
            "velocity": 0.2440944881889764
          },
          {
            "duration": 0.1818179999999927,
            "durationTicks": 192,
            "midi": 61,
            "name": "C#4",
            "ticks": 136512,
            "time": 129.27259800000002,
            "velocity": 0.2440944881889764
          },
          {
            "duration": 0.1818179999999927,
            "durationTicks": 192,
            "midi": 61,
            "name": "C#4",
            "ticks": 136896,
            "time": 129.636234,
            "velocity": 0.2440944881889764
          },
          {
            "duration": 0.18181800000002113,
            "durationTicks": 192,
            "midi": 54,
            "name": "F#3",
            "ticks": 137088,
            "time": 129.818052,
            "velocity": 0.2440944881889764
          },
          {
            "duration": 0.1818179999999927,
            "durationTicks": 192,
            "midi": 54,
            "name": "F#3",
            "ticks": 137472,
            "time": 130.181688,
            "velocity": 0.2440944881889764
          },
          {
            "duration": 0.18181800000002113,
            "durationTicks": 192,
            "midi": 53,
            "name": "F3",
            "ticks": 137856,
            "time": 130.545324,
            "velocity": 0.2440944881889764
          },
          {
            "duration": 0.1818179999999927,
            "durationTicks": 192,
            "midi": 56,
            "name": "G#3",
            "ticks": 141312,
            "time": 133.818048,
            "velocity": 0.2440944881889764
          },
          {
            "duration": 0.1818179999999927,
            "durationTicks": 192,
            "midi": 56,
            "name": "G#3",
            "ticks": 141696,
            "time": 134.18168400000002,
            "velocity": 0.2440944881889764
          },
          {
            "duration": 0.1818179999999927,
            "durationTicks": 192,
            "midi": 56,
            "name": "G#3",
            "ticks": 142080,
            "time": 134.54532,
            "velocity": 0.2440944881889764
          },
          {
            "duration": 0.18181800000002113,
            "durationTicks": 192,
            "midi": 58,
            "name": "A#3",
            "ticks": 142272,
            "time": 134.727138,
            "velocity": 0.2440944881889764
          },
          {
            "duration": 0.1818179999999927,
            "durationTicks": 192,
            "midi": 49,
            "name": "C#3",
            "ticks": 142464,
            "time": 134.90895600000002,
            "velocity": 0.2440944881889764
          },
          {
            "duration": 0.1818179999999927,
            "durationTicks": 192,
            "midi": 49,
            "name": "C#3",
            "ticks": 142656,
            "time": 135.090774,
            "velocity": 0.2440944881889764
          },
          {
            "duration": 0.18181800000002113,
            "durationTicks": 192,
            "midi": 61,
            "name": "C#4",
            "ticks": 143040,
            "time": 135.45441,
            "velocity": 0.2440944881889764
          },
          {
            "duration": 0.18181800000002113,
            "durationTicks": 192,
            "midi": 73,
            "name": "C#5",
            "ticks": 143040,
            "time": 135.45441,
            "velocity": 0.2440944881889764
          },
          {
            "duration": 0.1818179999999927,
            "durationTicks": 192,
            "midi": 61,
            "name": "C#4",
            "ticks": 143424,
            "time": 135.818046,
            "velocity": 0.2440944881889764
          },
          {
            "duration": 0.1818179999999927,
            "durationTicks": 192,
            "midi": 73,
            "name": "C#5",
            "ticks": 143424,
            "time": 135.818046,
            "velocity": 0.2440944881889764
          },
          {
            "duration": 0.18181800000002113,
            "durationTicks": 192,
            "midi": 61,
            "name": "C#4",
            "ticks": 143808,
            "time": 136.181682,
            "velocity": 0.2440944881889764
          },
          {
            "duration": 0.18181800000002113,
            "durationTicks": 192,
            "midi": 73,
            "name": "C#5",
            "ticks": 143808,
            "time": 136.181682,
            "velocity": 0.2440944881889764
          },
          {
            "duration": 0.1818179999999927,
            "durationTicks": 192,
            "midi": 61,
            "name": "C#4",
            "ticks": 144000,
            "time": 136.36350000000002,
            "velocity": 0.2440944881889764
          },
          {
            "duration": 0.1818179999999927,
            "durationTicks": 192,
            "midi": 73,
            "name": "C#5",
            "ticks": 144000,
            "time": 136.36350000000002,
            "velocity": 0.2440944881889764
          },
          {
            "duration": 0.1818179999999927,
            "durationTicks": 192,
            "midi": 56,
            "name": "G#3",
            "ticks": 144384,
            "time": 136.727136,
            "velocity": 0.2440944881889764
          },
          {
            "duration": 0.1818179999999927,
            "durationTicks": 192,
            "midi": 56,
            "name": "G#3",
            "ticks": 144768,
            "time": 137.09077200000002,
            "velocity": 0.2440944881889764
          },
          {
            "duration": 0.1818179999999927,
            "durationTicks": 192,
            "midi": 56,
            "name": "G#3",
            "ticks": 145152,
            "time": 137.454408,
            "velocity": 0.2440944881889764
          },
          {
            "duration": 0.18181800000002113,
            "durationTicks": 192,
            "midi": 58,
            "name": "A#3",
            "ticks": 145344,
            "time": 137.636226,
            "velocity": 0.2440944881889764
          },
          {
            "duration": 0.1818179999999927,
            "durationTicks": 192,
            "midi": 49,
            "name": "C#3",
            "ticks": 145536,
            "time": 137.81804400000001,
            "velocity": 0.2440944881889764
          },
          {
            "duration": 0.1818179999999927,
            "durationTicks": 192,
            "midi": 49,
            "name": "C#3",
            "ticks": 145728,
            "time": 137.999862,
            "velocity": 0.2440944881889764
          },
          {
            "duration": 0.18181800000002113,
            "durationTicks": 192,
            "midi": 51,
            "name": "D#3",
            "ticks": 146112,
            "time": 138.363498,
            "velocity": 0.2440944881889764
          },
          {
            "duration": 0.1818179999999927,
            "durationTicks": 192,
            "midi": 49,
            "name": "C#3",
            "ticks": 146304,
            "time": 138.545316,
            "velocity": 0.2440944881889764
          },
          {
            "duration": 0.18181800000002113,
            "durationTicks": 192,
            "midi": 58,
            "name": "A#3",
            "ticks": 147456,
            "time": 139.636224,
            "velocity": 0.2440944881889764
          },
          {
            "duration": 0.1818179999999927,
            "durationTicks": 192,
            "midi": 58,
            "name": "A#3",
            "ticks": 147840,
            "time": 139.99986,
            "velocity": 0.2440944881889764
          },
          {
            "duration": 0.18181800000002113,
            "durationTicks": 192,
            "midi": 58,
            "name": "A#3",
            "ticks": 148224,
            "time": 140.363496,
            "velocity": 0.2440944881889764
          },
          {
            "duration": 0.1818179999999927,
            "durationTicks": 192,
            "midi": 61,
            "name": "C#4",
            "ticks": 148416,
            "time": 140.54531400000002,
            "velocity": 0.2440944881889764
          },
          {
            "duration": 0.1818179999999927,
            "durationTicks": 192,
            "midi": 58,
            "name": "A#3",
            "ticks": 148608,
            "time": 140.727132,
            "velocity": 0.2440944881889764
          },
          {
            "duration": 0.1818179999999927,
            "durationTicks": 192,
            "midi": 56,
            "name": "G#3",
            "ticks": 148800,
            "time": 140.90895,
            "velocity": 0.2440944881889764
          },
          {
            "duration": 0.1818179999999927,
            "durationTicks": 192,
            "midi": 61,
            "name": "C#4",
            "ticks": 149184,
            "time": 141.27258600000002,
            "velocity": 0.2440944881889764
          },
          {
            "duration": 0.1818179999999927,
            "durationTicks": 192,
            "midi": 73,
            "name": "C#5",
            "ticks": 149184,
            "time": 141.27258600000002,
            "velocity": 0.2440944881889764
          },
          {
            "duration": 0.1818179999999927,
            "durationTicks": 192,
            "midi": 73,
            "name": "C#5",
            "ticks": 149568,
            "time": 141.636222,
            "velocity": 0.2440944881889764
          },
          {
            "duration": 0.1818179999999927,
            "durationTicks": 192,
            "midi": 61,
            "name": "C#4",
            "ticks": 149568,
            "time": 141.636222,
            "velocity": 0.2440944881889764
          },
          {
            "duration": 0.1818179999999927,
            "durationTicks": 192,
            "midi": 73,
            "name": "C#5",
            "ticks": 149952,
            "time": 141.99985800000002,
            "velocity": 0.2440944881889764
          },
          {
            "duration": 0.1818179999999927,
            "durationTicks": 192,
            "midi": 61,
            "name": "C#4",
            "ticks": 149952,
            "time": 141.99985800000002,
            "velocity": 0.2440944881889764
          },
          {
            "duration": 0.1818179999999927,
            "durationTicks": 192,
            "midi": 61,
            "name": "C#4",
            "ticks": 150144,
            "time": 142.181676,
            "velocity": 0.2440944881889764
          },
          {
            "duration": 0.1818179999999927,
            "durationTicks": 192,
            "midi": 73,
            "name": "C#5",
            "ticks": 150144,
            "time": 142.181676,
            "velocity": 0.2440944881889764
          },
          {
            "duration": 0.18181800000002113,
            "durationTicks": 192,
            "midi": 56,
            "name": "G#3",
            "ticks": 150528,
            "time": 142.545312,
            "velocity": 0.2440944881889764
          },
          {
            "duration": 0.1818179999999927,
            "durationTicks": 192,
            "midi": 56,
            "name": "G#3",
            "ticks": 150912,
            "time": 142.908948,
            "velocity": 0.2440944881889764
          },
          {
            "duration": 0.18181800000002113,
            "durationTicks": 192,
            "midi": 56,
            "name": "G#3",
            "ticks": 151296,
            "time": 143.272584,
            "velocity": 0.2440944881889764
          },
          {
            "duration": 0.1818179999999927,
            "durationTicks": 192,
            "midi": 58,
            "name": "A#3",
            "ticks": 151488,
            "time": 143.45440200000002,
            "velocity": 0.2440944881889764
          },
          {
            "duration": 0.1818179999999927,
            "durationTicks": 192,
            "midi": 49,
            "name": "C#3",
            "ticks": 151680,
            "time": 143.63622,
            "velocity": 0.2440944881889764
          },
          {
            "duration": 0.1818179999999927,
            "durationTicks": 192,
            "midi": 49,
            "name": "C#3",
            "ticks": 151872,
            "time": 143.818038,
            "velocity": 0.2440944881889764
          },
          {
            "duration": 0.1818179999999927,
            "durationTicks": 192,
            "midi": 58,
            "name": "A#3",
            "ticks": 152448,
            "time": 144.363492,
            "velocity": 0.2440944881889764
          },
          {
            "duration": 0.1818179999999927,
            "durationTicks": 192,
            "midi": 70,
            "name": "A#4",
            "ticks": 152448,
            "time": 144.363492,
            "velocity": 0.2440944881889764
          },
          {
            "duration": 0.18181800000002113,
            "durationTicks": 192,
            "midi": 70,
            "name": "A#4",
            "ticks": 152832,
            "time": 144.727128,
            "velocity": 0.2440944881889764
          },
          {
            "duration": 0.18181800000002113,
            "durationTicks": 192,
            "midi": 58,
            "name": "A#3",
            "ticks": 152832,
            "time": 144.727128,
            "velocity": 0.2440944881889764
          },
          {
            "duration": 0.1818179999999927,
            "durationTicks": 192,
            "midi": 56,
            "name": "G#3",
            "ticks": 153216,
            "time": 145.090764,
            "velocity": 0.2440944881889764
          },
          {
            "duration": 0.1818179999999927,
            "durationTicks": 192,
            "midi": 68,
            "name": "G#4",
            "ticks": 153216,
            "time": 145.090764,
            "velocity": 0.2440944881889764
          },
          {
            "duration": 0.18181800000002113,
            "durationTicks": 192,
            "midi": 61,
            "name": "C#4",
            "ticks": 153600,
            "time": 145.4544,
            "velocity": 0.2440944881889764
          },
          {
            "duration": 0.18181800000002113,
            "durationTicks": 192,
            "midi": 49,
            "name": "C#3",
            "ticks": 153600,
            "time": 145.4544,
            "velocity": 0.2440944881889764
          },
          {
            "duration": 0.18181800000002113,
            "durationTicks": 192,
            "midi": 54,
            "name": "F#3",
            "ticks": 153600,
            "time": 145.4544,
            "velocity": 0.2440944881889764
          },
          {
            "duration": 0.1818179999999927,
            "durationTicks": 192,
            "midi": 70,
            "name": "A#4",
            "ticks": 153984,
            "time": 145.818036,
            "velocity": 0.2440944881889764
          },
          {
            "duration": 0.1818179999999927,
            "durationTicks": 192,
            "midi": 61,
            "name": "C#4",
            "ticks": 153984,
            "time": 145.818036,
            "velocity": 0.2440944881889764
          },
          {
            "duration": 0.1818179999999927,
            "durationTicks": 192,
            "midi": 58,
            "name": "A#3",
            "ticks": 153984,
            "time": 145.818036,
            "velocity": 0.2440944881889764
          },
          {
            "duration": 0.1818179999999927,
            "durationTicks": 192,
            "midi": 56,
            "name": "G#3",
            "ticks": 154176,
            "time": 145.999854,
            "velocity": 0.2440944881889764
          },
          {
            "duration": 0.1818179999999927,
            "durationTicks": 192,
            "midi": 59,
            "name": "B3",
            "ticks": 154176,
            "time": 145.999854,
            "velocity": 0.2440944881889764
          },
          {
            "duration": 0.1818179999999927,
            "durationTicks": 192,
            "midi": 68,
            "name": "G#4",
            "ticks": 154176,
            "time": 145.999854,
            "velocity": 0.2440944881889764
          },
          {
            "duration": 0.18181800000002113,
            "durationTicks": 192,
            "midi": 58,
            "name": "A#3",
            "ticks": 154368,
            "time": 146.181672,
            "velocity": 0.2440944881889764
          },
          {
            "duration": 0.18181800000002113,
            "durationTicks": 192,
            "midi": 54,
            "name": "F#3",
            "ticks": 154368,
            "time": 146.181672,
            "velocity": 0.2440944881889764
          },
          {
            "duration": 0.18181800000002113,
            "durationTicks": 192,
            "midi": 66,
            "name": "F#4",
            "ticks": 154368,
            "time": 146.181672,
            "velocity": 0.2440944881889764
          },
          {
            "duration": 0.18181800000002113,
            "durationTicks": 192,
            "midi": 68,
            "name": "G#4",
            "ticks": 154944,
            "time": 146.727126,
            "velocity": 0.2440944881889764
          },
          {
            "duration": 0.18181800000002113,
            "durationTicks": 192,
            "midi": 66,
            "name": "F#4",
            "ticks": 154944,
            "time": 146.727126,
            "velocity": 0.2440944881889764
          },
          {
            "duration": 0.18181800000002113,
            "durationTicks": 192,
            "midi": 56,
            "name": "G#3",
            "ticks": 154944,
            "time": 146.727126,
            "velocity": 0.2440944881889764
          },
          {
            "duration": 0.1818179999999927,
            "durationTicks": 192,
            "midi": 54,
            "name": "F#3",
            "ticks": 155328,
            "time": 147.090762,
            "velocity": 0.2440944881889764
          },
          {
            "duration": 0.1818179999999927,
            "durationTicks": 192,
            "midi": 66,
            "name": "F#4",
            "ticks": 155328,
            "time": 147.090762,
            "velocity": 0.2440944881889764
          },
          {
            "duration": 0.1818179999999927,
            "durationTicks": 192,
            "midi": 63,
            "name": "D#4",
            "ticks": 155328,
            "time": 147.090762,
            "velocity": 0.2440944881889764
          },
          {
            "duration": 0.1818179999999927,
            "durationTicks": 192,
            "midi": 56,
            "name": "G#3",
            "ticks": 155520,
            "time": 147.27258,
            "velocity": 0.2440944881889764
          },
          {
            "duration": 0.1818179999999927,
            "durationTicks": 192,
            "midi": 68,
            "name": "G#4",
            "ticks": 155520,
            "time": 147.27258,
            "velocity": 0.2440944881889764
          },
          {
            "duration": 0.1818179999999927,
            "durationTicks": 192,
            "midi": 66,
            "name": "F#4",
            "ticks": 155520,
            "time": 147.27258,
            "velocity": 0.2440944881889764
          },
          {
            "duration": 0.18181800000002113,
            "durationTicks": 192,
            "midi": 54,
            "name": "F#3",
            "ticks": 155712,
            "time": 147.454398,
            "velocity": 0.2440944881889764
          },
          {
            "duration": 0.18181800000002113,
            "durationTicks": 192,
            "midi": 66,
            "name": "F#4",
            "ticks": 155712,
            "time": 147.454398,
            "velocity": 0.2440944881889764
          },
          {
            "duration": 0.18181800000002113,
            "durationTicks": 192,
            "midi": 63,
            "name": "D#4",
            "ticks": 155712,
            "time": 147.454398,
            "velocity": 0.2440944881889764
          },
          {
            "duration": 0.1818179999999927,
            "durationTicks": 192,
            "midi": 66,
            "name": "F#4",
            "ticks": 155904,
            "time": 147.63621600000002,
            "velocity": 0.2440944881889764
          },
          {
            "duration": 0.1818179999999927,
            "durationTicks": 192,
            "midi": 56,
            "name": "G#3",
            "ticks": 155904,
            "time": 147.63621600000002,
            "velocity": 0.2440944881889764
          },
          {
            "duration": 0.1818179999999927,
            "durationTicks": 192,
            "midi": 68,
            "name": "G#4",
            "ticks": 155904,
            "time": 147.63621600000002,
            "velocity": 0.2440944881889764
          },
          {
            "duration": 0.1818179999999927,
            "durationTicks": 192,
            "midi": 58,
            "name": "A#3",
            "ticks": 156288,
            "time": 147.999852,
            "velocity": 0.2440944881889764
          },
          {
            "duration": 0.1818179999999927,
            "durationTicks": 192,
            "midi": 70,
            "name": "A#4",
            "ticks": 156288,
            "time": 147.999852,
            "velocity": 0.2440944881889764
          },
          {
            "duration": 0.1818179999999927,
            "durationTicks": 192,
            "midi": 66,
            "name": "F#4",
            "ticks": 156288,
            "time": 147.999852,
            "velocity": 0.2440944881889764
          },
          {
            "duration": 0.1818179999999927,
            "durationTicks": 192,
            "midi": 51,
            "name": "D#3",
            "ticks": 156672,
            "time": 148.36348800000002,
            "velocity": 0.2440944881889764
          },
          {
            "duration": 0.1818179999999927,
            "durationTicks": 192,
            "midi": 63,
            "name": "D#4",
            "ticks": 156672,
            "time": 148.36348800000002,
            "velocity": 0.2440944881889764
          },
          {
            "duration": 0.1818179999999927,
            "durationTicks": 192,
            "midi": 54,
            "name": "F#3",
            "ticks": 156672,
            "time": 148.36348800000002,
            "velocity": 0.2440944881889764
          },
          {
            "duration": 0.1818179999999927,
            "durationTicks": 192,
            "midi": 58,
            "name": "A#3",
            "ticks": 157056,
            "time": 148.727124,
            "velocity": 0.2440944881889764
          },
          {
            "duration": 0.1818179999999927,
            "durationTicks": 192,
            "midi": 66,
            "name": "F#4",
            "ticks": 157056,
            "time": 148.727124,
            "velocity": 0.2440944881889764
          },
          {
            "duration": 0.1818179999999927,
            "durationTicks": 192,
            "midi": 70,
            "name": "A#4",
            "ticks": 157056,
            "time": 148.727124,
            "velocity": 0.2440944881889764
          },
          {
            "duration": 0.18181800000002113,
            "durationTicks": 192,
            "midi": 56,
            "name": "G#3",
            "ticks": 157248,
            "time": 148.908942,
            "velocity": 0.2440944881889764
          },
          {
            "duration": 0.18181800000002113,
            "durationTicks": 192,
            "midi": 68,
            "name": "G#4",
            "ticks": 157248,
            "time": 148.908942,
            "velocity": 0.2440944881889764
          },
          {
            "duration": 0.18181800000002113,
            "durationTicks": 192,
            "midi": 65,
            "name": "F4",
            "ticks": 157248,
            "time": 148.908942,
            "velocity": 0.2440944881889764
          },
          {
            "duration": 0.1818179999999927,
            "durationTicks": 192,
            "midi": 63,
            "name": "D#4",
            "ticks": 157440,
            "time": 149.09076000000002,
            "velocity": 0.2440944881889764
          },
          {
            "duration": 0.1818179999999927,
            "durationTicks": 192,
            "midi": 54,
            "name": "F#3",
            "ticks": 157440,
            "time": 149.09076000000002,
            "velocity": 0.2440944881889764
          },
          {
            "duration": 0.1818179999999927,
            "durationTicks": 192,
            "midi": 66,
            "name": "F#4",
            "ticks": 157440,
            "time": 149.09076000000002,
            "velocity": 0.2440944881889764
          },
          {
            "duration": 0.1818179999999927,
            "durationTicks": 192,
            "midi": 66,
            "name": "F#4",
            "ticks": 157824,
            "time": 149.454396,
            "velocity": 0.2440944881889764
          },
          {
            "duration": 0.1818179999999927,
            "durationTicks": 192,
            "midi": 54,
            "name": "F#3",
            "ticks": 157824,
            "time": 149.454396,
            "velocity": 0.2440944881889764
          },
          {
            "duration": 0.18181800000002113,
            "durationTicks": 192,
            "midi": 56,
            "name": "G#3",
            "ticks": 158016,
            "time": 149.636214,
            "velocity": 0.2440944881889764
          },
          {
            "duration": 0.18181800000002113,
            "durationTicks": 192,
            "midi": 68,
            "name": "G#4",
            "ticks": 158016,
            "time": 149.636214,
            "velocity": 0.2440944881889764
          },
          {
            "duration": 0.18181800000002113,
            "durationTicks": 192,
            "midi": 59,
            "name": "B3",
            "ticks": 158016,
            "time": 149.636214,
            "velocity": 0.2440944881889764
          },
          {
            "duration": 0.1818179999999927,
            "durationTicks": 192,
            "midi": 58,
            "name": "A#3",
            "ticks": 158400,
            "time": 149.99985,
            "velocity": 0.2440944881889764
          },
          {
            "duration": 0.1818179999999927,
            "durationTicks": 192,
            "midi": 54,
            "name": "F#3",
            "ticks": 158400,
            "time": 149.99985,
            "velocity": 0.2440944881889764
          },
          {
            "duration": 0.1818179999999927,
            "durationTicks": 192,
            "midi": 66,
            "name": "F#4",
            "ticks": 158400,
            "time": 149.99985,
            "velocity": 0.2440944881889764
          },
          {
            "duration": 0.1818179999999927,
            "durationTicks": 192,
            "midi": 59,
            "name": "B3",
            "ticks": 158592,
            "time": 150.181668,
            "velocity": 0.2440944881889764
          },
          {
            "duration": 0.1818179999999927,
            "durationTicks": 192,
            "midi": 68,
            "name": "G#4",
            "ticks": 158592,
            "time": 150.181668,
            "velocity": 0.2440944881889764
          },
          {
            "duration": 0.1818179999999927,
            "durationTicks": 192,
            "midi": 56,
            "name": "G#3",
            "ticks": 158592,
            "time": 150.181668,
            "velocity": 0.2440944881889764
          },
          {
            "duration": 0.18181800000002113,
            "durationTicks": 192,
            "midi": 66,
            "name": "F#4",
            "ticks": 158784,
            "time": 150.363486,
            "velocity": 0.2440944881889764
          },
          {
            "duration": 0.18181800000002113,
            "durationTicks": 192,
            "midi": 70,
            "name": "A#4",
            "ticks": 158784,
            "time": 150.363486,
            "velocity": 0.2440944881889764
          },
          {
            "duration": 0.18181800000002113,
            "durationTicks": 192,
            "midi": 58,
            "name": "A#3",
            "ticks": 158784,
            "time": 150.363486,
            "velocity": 0.2440944881889764
          },
          {
            "duration": 0.1818179999999927,
            "durationTicks": 192,
            "midi": 68,
            "name": "G#4",
            "ticks": 158976,
            "time": 150.54530400000002,
            "velocity": 0.2440944881889764
          },
          {
            "duration": 0.1818179999999927,
            "durationTicks": 192,
            "midi": 56,
            "name": "G#3",
            "ticks": 158976,
            "time": 150.54530400000002,
            "velocity": 0.2440944881889764
          },
          {
            "duration": 0.1818179999999927,
            "durationTicks": 192,
            "midi": 65,
            "name": "F4",
            "ticks": 158976,
            "time": 150.54530400000002,
            "velocity": 0.2440944881889764
          },
          {
            "duration": 0.1818179999999927,
            "durationTicks": 192,
            "midi": 63,
            "name": "D#4",
            "ticks": 159360,
            "time": 150.90894,
            "velocity": 0.2440944881889764
          },
          {
            "duration": 0.1818179999999927,
            "durationTicks": 192,
            "midi": 66,
            "name": "F#4",
            "ticks": 159360,
            "time": 150.90894,
            "velocity": 0.2440944881889764
          },
          {
            "duration": 0.1818179999999927,
            "durationTicks": 192,
            "midi": 54,
            "name": "F#3",
            "ticks": 159360,
            "time": 150.90894,
            "velocity": 0.2440944881889764
          },
          {
            "duration": 0.1818179999999927,
            "durationTicks": 192,
            "midi": 49,
            "name": "C#3",
            "ticks": 159744,
            "time": 151.27257600000002,
            "velocity": 0.2440944881889764
          },
          {
            "duration": 0.1818179999999927,
            "durationTicks": 192,
            "midi": 58,
            "name": "A#3",
            "ticks": 159744,
            "time": 151.27257600000002,
            "velocity": 0.2440944881889764
          },
          {
            "duration": 0.1818179999999927,
            "durationTicks": 192,
            "midi": 61,
            "name": "C#4",
            "ticks": 159744,
            "time": 151.27257600000002,
            "velocity": 0.2440944881889764
          },
          {
            "duration": 0.1818179999999927,
            "durationTicks": 192,
            "midi": 66,
            "name": "F#4",
            "ticks": 160128,
            "time": 151.636212,
            "velocity": 0.2440944881889764
          },
          {
            "duration": 0.1818179999999927,
            "durationTicks": 192,
            "midi": 58,
            "name": "A#3",
            "ticks": 160128,
            "time": 151.636212,
            "velocity": 0.2440944881889764
          },
          {
            "duration": 0.1818179999999927,
            "durationTicks": 192,
            "midi": 70,
            "name": "A#4",
            "ticks": 160128,
            "time": 151.636212,
            "velocity": 0.2440944881889764
          },
          {
            "duration": 0.18181800000002113,
            "durationTicks": 192,
            "midi": 56,
            "name": "G#3",
            "ticks": 160320,
            "time": 151.81803,
            "velocity": 0.2440944881889764
          },
          {
            "duration": 0.18181800000002113,
            "durationTicks": 192,
            "midi": 65,
            "name": "F4",
            "ticks": 160320,
            "time": 151.81803,
            "velocity": 0.2440944881889764
          },
          {
            "duration": 0.18181800000002113,
            "durationTicks": 192,
            "midi": 68,
            "name": "G#4",
            "ticks": 160320,
            "time": 151.81803,
            "velocity": 0.2440944881889764
          },
          {
            "duration": 0.1818179999999927,
            "durationTicks": 192,
            "midi": 63,
            "name": "D#4",
            "ticks": 160512,
            "time": 151.99984800000001,
            "velocity": 0.2440944881889764
          },
          {
            "duration": 0.1818179999999927,
            "durationTicks": 192,
            "midi": 66,
            "name": "F#4",
            "ticks": 160512,
            "time": 151.99984800000001,
            "velocity": 0.2440944881889764
          },
          {
            "duration": 0.1818179999999927,
            "durationTicks": 192,
            "midi": 54,
            "name": "F#3",
            "ticks": 160512,
            "time": 151.99984800000001,
            "velocity": 0.2440944881889764
          },
          {
            "duration": 0.18181800000002113,
            "durationTicks": 192,
            "midi": 66,
            "name": "F#4",
            "ticks": 161088,
            "time": 152.545302,
            "velocity": 0.2440944881889764
          },
          {
            "duration": 0.18181800000002113,
            "durationTicks": 192,
            "midi": 68,
            "name": "G#4",
            "ticks": 161088,
            "time": 152.545302,
            "velocity": 0.2440944881889764
          },
          {
            "duration": 0.18181800000002113,
            "durationTicks": 192,
            "midi": 56,
            "name": "G#3",
            "ticks": 161088,
            "time": 152.545302,
            "velocity": 0.2440944881889764
          },
          {
            "duration": 0.1818179999999927,
            "durationTicks": 192,
            "midi": 54,
            "name": "F#3",
            "ticks": 161472,
            "time": 152.908938,
            "velocity": 0.2440944881889764
          },
          {
            "duration": 0.1818179999999927,
            "durationTicks": 192,
            "midi": 63,
            "name": "D#4",
            "ticks": 161472,
            "time": 152.908938,
            "velocity": 0.2440944881889764
          },
          {
            "duration": 0.1818179999999927,
            "durationTicks": 192,
            "midi": 66,
            "name": "F#4",
            "ticks": 161472,
            "time": 152.908938,
            "velocity": 0.2440944881889764
          },
          {
            "duration": 0.18181800000002113,
            "durationTicks": 192,
            "midi": 66,
            "name": "F#4",
            "ticks": 161664,
            "time": 153.090756,
            "velocity": 0.2440944881889764
          },
          {
            "duration": 0.18181800000002113,
            "durationTicks": 192,
            "midi": 56,
            "name": "G#3",
            "ticks": 161664,
            "time": 153.090756,
            "velocity": 0.2440944881889764
          },
          {
            "duration": 0.18181800000002113,
            "durationTicks": 192,
            "midi": 68,
            "name": "G#4",
            "ticks": 161664,
            "time": 153.090756,
            "velocity": 0.2440944881889764
          },
          {
            "duration": 0.1818179999999927,
            "durationTicks": 192,
            "midi": 63,
            "name": "D#4",
            "ticks": 161856,
            "time": 153.27257400000002,
            "velocity": 0.2440944881889764
          },
          {
            "duration": 0.1818179999999927,
            "durationTicks": 192,
            "midi": 66,
            "name": "F#4",
            "ticks": 161856,
            "time": 153.27257400000002,
            "velocity": 0.2440944881889764
          },
          {
            "duration": 0.1818179999999927,
            "durationTicks": 192,
            "midi": 54,
            "name": "F#3",
            "ticks": 161856,
            "time": 153.27257400000002,
            "velocity": 0.2440944881889764
          },
          {
            "duration": 0.1818179999999927,
            "durationTicks": 192,
            "midi": 56,
            "name": "G#3",
            "ticks": 162048,
            "time": 153.454392,
            "velocity": 0.2440944881889764
          },
          {
            "duration": 0.1818179999999927,
            "durationTicks": 192,
            "midi": 68,
            "name": "G#4",
            "ticks": 162048,
            "time": 153.454392,
            "velocity": 0.2440944881889764
          },
          {
            "duration": 0.1818179999999927,
            "durationTicks": 192,
            "midi": 66,
            "name": "F#4",
            "ticks": 162048,
            "time": 153.454392,
            "velocity": 0.2440944881889764
          },
          {
            "duration": 0.18181800000002113,
            "durationTicks": 192,
            "midi": 58,
            "name": "A#3",
            "ticks": 162432,
            "time": 153.818028,
            "velocity": 0.2440944881889764
          },
          {
            "duration": 0.18181800000002113,
            "durationTicks": 192,
            "midi": 66,
            "name": "F#4",
            "ticks": 162432,
            "time": 153.818028,
            "velocity": 0.2440944881889764
          },
          {
            "duration": 0.18181800000002113,
            "durationTicks": 192,
            "midi": 70,
            "name": "A#4",
            "ticks": 162432,
            "time": 153.818028,
            "velocity": 0.2440944881889764
          },
          {
            "duration": 0.1818179999999927,
            "durationTicks": 192,
            "midi": 73,
            "name": "C#5",
            "ticks": 162816,
            "time": 154.181664,
            "velocity": 0.2440944881889764
          },
          {
            "duration": 0.1818179999999927,
            "durationTicks": 192,
            "midi": 61,
            "name": "C#4",
            "ticks": 162816,
            "time": 154.181664,
            "velocity": 0.2440944881889764
          },
          {
            "duration": 0.1818179999999927,
            "durationTicks": 192,
            "midi": 70,
            "name": "A#4",
            "ticks": 162816,
            "time": 154.181664,
            "velocity": 0.2440944881889764
          },
          {
            "duration": 0.18181800000002113,
            "durationTicks": 192,
            "midi": 59,
            "name": "B3",
            "ticks": 163200,
            "time": 154.5453,
            "velocity": 0.2440944881889764
          },
          {
            "duration": 0.18181800000002113,
            "durationTicks": 192,
            "midi": 71,
            "name": "B4",
            "ticks": 163200,
            "time": 154.5453,
            "velocity": 0.2440944881889764
          },
          {
            "duration": 0.18181800000002113,
            "durationTicks": 192,
            "midi": 68,
            "name": "G#4",
            "ticks": 163200,
            "time": 154.5453,
            "velocity": 0.2440944881889764
          },
          {
            "duration": 0.1818179999999927,
            "durationTicks": 192,
            "midi": 70,
            "name": "A#4",
            "ticks": 163392,
            "time": 154.72711800000002,
            "velocity": 0.2440944881889764
          },
          {
            "duration": 0.1818179999999927,
            "durationTicks": 192,
            "midi": 58,
            "name": "A#3",
            "ticks": 163392,
            "time": 154.72711800000002,
            "velocity": 0.2440944881889764
          },
          {
            "duration": 0.1818179999999927,
            "durationTicks": 192,
            "midi": 66,
            "name": "F#4",
            "ticks": 163392,
            "time": 154.72711800000002,
            "velocity": 0.2440944881889764
          },
          {
            "duration": 0.1818179999999927,
            "durationTicks": 192,
            "midi": 66,
            "name": "F#4",
            "ticks": 163584,
            "time": 154.908936,
            "velocity": 0.2440944881889764
          },
          {
            "duration": 0.1818179999999927,
            "durationTicks": 192,
            "midi": 63,
            "name": "D#4",
            "ticks": 163584,
            "time": 154.908936,
            "velocity": 0.2440944881889764
          },
          {
            "duration": 0.1818179999999927,
            "durationTicks": 192,
            "midi": 54,
            "name": "F#3",
            "ticks": 163584,
            "time": 154.908936,
            "velocity": 0.2440944881889764
          },
          {
            "duration": 0.18181800000002113,
            "durationTicks": 192,
            "midi": 54,
            "name": "F#3",
            "ticks": 163968,
            "time": 155.272572,
            "velocity": 0.2440944881889764
          },
          {
            "duration": 0.18181800000002113,
            "durationTicks": 192,
            "midi": 66,
            "name": "F#4",
            "ticks": 163968,
            "time": 155.272572,
            "velocity": 0.2440944881889764
          },
          {
            "duration": 0.1818179999999927,
            "durationTicks": 192,
            "midi": 59,
            "name": "B3",
            "ticks": 164160,
            "time": 155.45439000000002,
            "velocity": 0.2440944881889764
          },
          {
            "duration": 0.1818179999999927,
            "durationTicks": 192,
            "midi": 68,
            "name": "G#4",
            "ticks": 164160,
            "time": 155.45439000000002,
            "velocity": 0.2440944881889764
          },
          {
            "duration": 0.1818179999999927,
            "durationTicks": 192,
            "midi": 56,
            "name": "G#3",
            "ticks": 164160,
            "time": 155.45439000000002,
            "velocity": 0.2440944881889764
          },
          {
            "duration": 0.1818179999999927,
            "durationTicks": 192,
            "midi": 56,
            "name": "G#3",
            "ticks": 164544,
            "time": 155.818026,
            "velocity": 0.2440944881889764
          },
          {
            "duration": 0.1818179999999927,
            "durationTicks": 192,
            "midi": 59,
            "name": "B3",
            "ticks": 164544,
            "time": 155.818026,
            "velocity": 0.2440944881889764
          },
          {
            "duration": 0.1818179999999927,
            "durationTicks": 192,
            "midi": 68,
            "name": "G#4",
            "ticks": 164544,
            "time": 155.818026,
            "velocity": 0.2440944881889764
          },
          {
            "duration": 0.18181800000002113,
            "durationTicks": 192,
            "midi": 66,
            "name": "F#4",
            "ticks": 164736,
            "time": 155.999844,
            "velocity": 0.2440944881889764
          },
          {
            "duration": 0.18181800000002113,
            "durationTicks": 192,
            "midi": 70,
            "name": "A#4",
            "ticks": 164736,
            "time": 155.999844,
            "velocity": 0.2440944881889764
          },
          {
            "duration": 0.18181800000002113,
            "durationTicks": 192,
            "midi": 58,
            "name": "A#3",
            "ticks": 164736,
            "time": 155.999844,
            "velocity": 0.2440944881889764
          },
          {
            "duration": 0.1818179999999927,
            "durationTicks": 192,
            "midi": 68,
            "name": "G#4",
            "ticks": 165120,
            "time": 156.36348,
            "velocity": 0.2440944881889764
          },
          {
            "duration": 0.1818179999999927,
            "durationTicks": 192,
            "midi": 59,
            "name": "B3",
            "ticks": 165120,
            "time": 156.36348,
            "velocity": 0.2440944881889764
          },
          {
            "duration": 0.1818179999999927,
            "durationTicks": 192,
            "midi": 56,
            "name": "G#3",
            "ticks": 165120,
            "time": 156.36348,
            "velocity": 0.2440944881889764
          },
          {
            "duration": 0.5454540000000065,
            "durationTicks": 576,
            "midi": 51,
            "name": "D#3",
            "ticks": 165120,
            "time": 156.36348,
            "velocity": 0.2440944881889764
          },
          {
            "duration": 0.18181800000002113,
            "durationTicks": 192,
            "midi": 63,
            "name": "D#4",
            "ticks": 165504,
            "time": 156.727116,
            "velocity": 0.2440944881889764
          },
          {
            "duration": 0.18181800000002113,
            "durationTicks": 192,
            "midi": 54,
            "name": "F#3",
            "ticks": 165504,
            "time": 156.727116,
            "velocity": 0.2440944881889764
          },
          {
            "duration": 0.18181800000002113,
            "durationTicks": 192,
            "midi": 66,
            "name": "F#4",
            "ticks": 165504,
            "time": 156.727116,
            "velocity": 0.2440944881889764
          },
          {
            "duration": 0.1818179999999927,
            "durationTicks": 192,
            "midi": 61,
            "name": "C#4",
            "ticks": 165888,
            "time": 157.090752,
            "velocity": 0.2440944881889764
          },
          {
            "duration": 0.1818179999999927,
            "durationTicks": 192,
            "midi": 73,
            "name": "C#5",
            "ticks": 165888,
            "time": 157.090752,
            "velocity": 0.2440944881889764
          },
          {
            "duration": 0.1818179999999927,
            "durationTicks": 192,
            "midi": 66,
            "name": "F#4",
            "ticks": 165888,
            "time": 157.090752,
            "velocity": 0.2440944881889764
          },
          {
            "duration": 0.18181800000002113,
            "durationTicks": 192,
            "midi": 73,
            "name": "C#5",
            "ticks": 166272,
            "time": 157.454388,
            "velocity": 0.2440944881889764
          },
          {
            "duration": 0.18181800000002113,
            "durationTicks": 192,
            "midi": 70,
            "name": "A#4",
            "ticks": 166272,
            "time": 157.454388,
            "velocity": 0.2440944881889764
          },
          {
            "duration": 0.18181800000002113,
            "durationTicks": 192,
            "midi": 82,
            "name": "A#5",
            "ticks": 166272,
            "time": 157.454388,
            "velocity": 0.2440944881889764
          },
          {
            "duration": 0.1818179999999927,
            "durationTicks": 192,
            "midi": 71,
            "name": "B4",
            "ticks": 166464,
            "time": 157.63620600000002,
            "velocity": 0.2440944881889764
          },
          {
            "duration": 0.1818179999999927,
            "durationTicks": 192,
            "midi": 68,
            "name": "G#4",
            "ticks": 166464,
            "time": 157.63620600000002,
            "velocity": 0.2440944881889764
          },
          {
            "duration": 0.1818179999999927,
            "durationTicks": 192,
            "midi": 80,
            "name": "G#5",
            "ticks": 166464,
            "time": 157.63620600000002,
            "velocity": 0.2440944881889764
          },
          {
            "duration": 0.1818179999999927,
            "durationTicks": 192,
            "midi": 78,
            "name": "F#5",
            "ticks": 166656,
            "time": 157.818024,
            "velocity": 0.2440944881889764
          },
          {
            "duration": 0.1818179999999927,
            "durationTicks": 192,
            "midi": 70,
            "name": "A#4",
            "ticks": 166656,
            "time": 157.818024,
            "velocity": 0.2440944881889764
          },
          {
            "duration": 0.1818179999999927,
            "durationTicks": 192,
            "midi": 66,
            "name": "F#4",
            "ticks": 166656,
            "time": 157.818024,
            "velocity": 0.2440944881889764
          },
          {
            "duration": 0.1818179999999927,
            "durationTicks": 192,
            "midi": 78,
            "name": "F#5",
            "ticks": 167232,
            "time": 158.36347800000001,
            "velocity": 0.2440944881889764
          },
          {
            "duration": 0.1818179999999927,
            "durationTicks": 192,
            "midi": 80,
            "name": "G#5",
            "ticks": 167232,
            "time": 158.36347800000001,
            "velocity": 0.2440944881889764
          },
          {
            "duration": 0.1818179999999927,
            "durationTicks": 192,
            "midi": 68,
            "name": "G#4",
            "ticks": 167232,
            "time": 158.36347800000001,
            "velocity": 0.2440944881889764
          },
          {
            "duration": 0.1818179999999927,
            "durationTicks": 192,
            "midi": 75,
            "name": "D#5",
            "ticks": 167616,
            "time": 158.727114,
            "velocity": 0.2440944881889764
          },
          {
            "duration": 0.1818179999999927,
            "durationTicks": 192,
            "midi": 78,
            "name": "F#5",
            "ticks": 167616,
            "time": 158.727114,
            "velocity": 0.2440944881889764
          },
          {
            "duration": 0.1818179999999927,
            "durationTicks": 192,
            "midi": 66,
            "name": "F#4",
            "ticks": 167616,
            "time": 158.727114,
            "velocity": 0.2440944881889764
          },
          {
            "duration": 0.18181800000002113,
            "durationTicks": 192,
            "midi": 80,
            "name": "G#5",
            "ticks": 167808,
            "time": 158.908932,
            "velocity": 0.2440944881889764
          },
          {
            "duration": 0.18181800000002113,
            "durationTicks": 192,
            "midi": 78,
            "name": "F#5",
            "ticks": 167808,
            "time": 158.908932,
            "velocity": 0.2440944881889764
          },
          {
            "duration": 0.18181800000002113,
            "durationTicks": 192,
            "midi": 68,
            "name": "G#4",
            "ticks": 167808,
            "time": 158.908932,
            "velocity": 0.2440944881889764
          },
          {
            "duration": 0.1818179999999927,
            "durationTicks": 192,
            "midi": 75,
            "name": "D#5",
            "ticks": 168000,
            "time": 159.09075,
            "velocity": 0.2440944881889764
          },
          {
            "duration": 0.1818179999999927,
            "durationTicks": 192,
            "midi": 78,
            "name": "F#5",
            "ticks": 168000,
            "time": 159.09075,
            "velocity": 0.2440944881889764
          },
          {
            "duration": 0.1818179999999927,
            "durationTicks": 192,
            "midi": 66,
            "name": "F#4",
            "ticks": 168000,
            "time": 159.09075,
            "velocity": 0.2440944881889764
          },
          {
            "duration": 0.1818179999999927,
            "durationTicks": 192,
            "midi": 80,
            "name": "G#5",
            "ticks": 168192,
            "time": 159.272568,
            "velocity": 0.2440944881889764
          },
          {
            "duration": 0.1818179999999927,
            "durationTicks": 192,
            "midi": 78,
            "name": "F#5",
            "ticks": 168192,
            "time": 159.272568,
            "velocity": 0.2440944881889764
          },
          {
            "duration": 0.1818179999999927,
            "durationTicks": 192,
            "midi": 68,
            "name": "G#4",
            "ticks": 168192,
            "time": 159.272568,
            "velocity": 0.2440944881889764
          },
          {
            "duration": 0.1818179999999927,
            "durationTicks": 192,
            "midi": 70,
            "name": "A#4",
            "ticks": 168576,
            "time": 159.63620400000002,
            "velocity": 0.2440944881889764
          },
          {
            "duration": 0.1818179999999927,
            "durationTicks": 192,
            "midi": 78,
            "name": "F#5",
            "ticks": 168576,
            "time": 159.63620400000002,
            "velocity": 0.2440944881889764
          },
          {
            "duration": 0.1818179999999927,
            "durationTicks": 192,
            "midi": 82,
            "name": "A#5",
            "ticks": 168576,
            "time": 159.63620400000002,
            "velocity": 0.2440944881889764
          },
          {
            "duration": 0.1818179999999927,
            "durationTicks": 192,
            "midi": 66,
            "name": "F#4",
            "ticks": 168960,
            "time": 159.99984,
            "velocity": 0.2440944881889764
          },
          {
            "duration": 0.1818179999999927,
            "durationTicks": 192,
            "midi": 63,
            "name": "D#4",
            "ticks": 168960,
            "time": 159.99984,
            "velocity": 0.2440944881889764
          },
          {
            "duration": 0.1818179999999927,
            "durationTicks": 192,
            "midi": 75,
            "name": "D#5",
            "ticks": 168960,
            "time": 159.99984,
            "velocity": 0.2440944881889764
          },
          {
            "duration": 0.1818179999999927,
            "durationTicks": 192,
            "midi": 78,
            "name": "F#5",
            "ticks": 169344,
            "time": 160.36347600000002,
            "velocity": 0.2440944881889764
          },
          {
            "duration": 0.1818179999999927,
            "durationTicks": 192,
            "midi": 82,
            "name": "A#5",
            "ticks": 169344,
            "time": 160.36347600000002,
            "velocity": 0.2440944881889764
          },
          {
            "duration": 0.1818179999999927,
            "durationTicks": 192,
            "midi": 70,
            "name": "A#4",
            "ticks": 169344,
            "time": 160.36347600000002,
            "velocity": 0.2440944881889764
          },
          {
            "duration": 0.1818179999999927,
            "durationTicks": 192,
            "midi": 68,
            "name": "G#4",
            "ticks": 169536,
            "time": 160.545294,
            "velocity": 0.2440944881889764
          },
          {
            "duration": 0.1818179999999927,
            "durationTicks": 192,
            "midi": 77,
            "name": "F5",
            "ticks": 169536,
            "time": 160.545294,
            "velocity": 0.2440944881889764
          },
          {
            "duration": 0.1818179999999927,
            "durationTicks": 192,
            "midi": 80,
            "name": "G#5",
            "ticks": 169536,
            "time": 160.545294,
            "velocity": 0.2440944881889764
          },
          {
            "duration": 0.1818179999999927,
            "durationTicks": 192,
            "midi": 78,
            "name": "F#5",
            "ticks": 169728,
            "time": 160.727112,
            "velocity": 0.2440944881889764
          },
          {
            "duration": 0.1818179999999927,
            "durationTicks": 192,
            "midi": 66,
            "name": "F#4",
            "ticks": 169728,
            "time": 160.727112,
            "velocity": 0.2440944881889764
          },
          {
            "duration": 0.1818179999999927,
            "durationTicks": 192,
            "midi": 75,
            "name": "D#5",
            "ticks": 169728,
            "time": 160.727112,
            "velocity": 0.2440944881889764
          },
          {
            "duration": 0.1818179999999927,
            "durationTicks": 192,
            "midi": 78,
            "name": "F#5",
            "ticks": 170112,
            "time": 161.09074800000002,
            "velocity": 0.2440944881889764
          },
          {
            "duration": 0.1818179999999927,
            "durationTicks": 192,
            "midi": 66,
            "name": "F#4",
            "ticks": 170112,
            "time": 161.09074800000002,
            "velocity": 0.2440944881889764
          },
          {
            "duration": 0.1818179999999927,
            "durationTicks": 192,
            "midi": 71,
            "name": "B4",
            "ticks": 170304,
            "time": 161.272566,
            "velocity": 0.2440944881889764
          },
          {
            "duration": 0.1818179999999927,
            "durationTicks": 192,
            "midi": 80,
            "name": "G#5",
            "ticks": 170304,
            "time": 161.272566,
            "velocity": 0.2440944881889764
          },
          {
            "duration": 0.1818179999999927,
            "durationTicks": 192,
            "midi": 68,
            "name": "G#4",
            "ticks": 170304,
            "time": 161.272566,
            "velocity": 0.2440944881889764
          },
          {
            "duration": 0.18181800000002113,
            "durationTicks": 192,
            "midi": 70,
            "name": "A#4",
            "ticks": 170688,
            "time": 161.636202,
            "velocity": 0.2440944881889764
          },
          {
            "duration": 0.18181800000002113,
            "durationTicks": 192,
            "midi": 78,
            "name": "F#5",
            "ticks": 170688,
            "time": 161.636202,
            "velocity": 0.2440944881889764
          },
          {
            "duration": 0.18181800000002113,
            "durationTicks": 192,
            "midi": 66,
            "name": "F#4",
            "ticks": 170688,
            "time": 161.636202,
            "velocity": 0.2440944881889764
          },
          {
            "duration": 0.1818179999999927,
            "durationTicks": 192,
            "midi": 68,
            "name": "G#4",
            "ticks": 170880,
            "time": 161.81802000000002,
            "velocity": 0.2440944881889764
          },
          {
            "duration": 0.1818179999999927,
            "durationTicks": 192,
            "midi": 71,
            "name": "B4",
            "ticks": 170880,
            "time": 161.81802000000002,
            "velocity": 0.2440944881889764
          },
          {
            "duration": 0.1818179999999927,
            "durationTicks": 192,
            "midi": 80,
            "name": "G#5",
            "ticks": 170880,
            "time": 161.81802000000002,
            "velocity": 0.2440944881889764
          },
          {
            "duration": 0.1818179999999927,
            "durationTicks": 192,
            "midi": 78,
            "name": "F#5",
            "ticks": 171072,
            "time": 161.999838,
            "velocity": 0.2440944881889764
          },
          {
            "duration": 0.1818179999999927,
            "durationTicks": 192,
            "midi": 82,
            "name": "A#5",
            "ticks": 171072,
            "time": 161.999838,
            "velocity": 0.2440944881889764
          },
          {
            "duration": 0.1818179999999927,
            "durationTicks": 192,
            "midi": 70,
            "name": "A#4",
            "ticks": 171072,
            "time": 161.999838,
            "velocity": 0.2440944881889764
          },
          {
            "duration": 0.1818179999999927,
            "durationTicks": 192,
            "midi": 77,
            "name": "F5",
            "ticks": 171264,
            "time": 162.181656,
            "velocity": 0.2440944881889764
          },
          {
            "duration": 0.1818179999999927,
            "durationTicks": 192,
            "midi": 80,
            "name": "G#5",
            "ticks": 171264,
            "time": 162.181656,
            "velocity": 0.2440944881889764
          },
          {
            "duration": 0.1818179999999927,
            "durationTicks": 192,
            "midi": 68,
            "name": "G#4",
            "ticks": 171264,
            "time": 162.181656,
            "velocity": 0.2440944881889764
          },
          {
            "duration": 0.1818179999999927,
            "durationTicks": 192,
            "midi": 78,
            "name": "F#5",
            "ticks": 171648,
            "time": 162.54529200000002,
            "velocity": 0.2440944881889764
          },
          {
            "duration": 0.1818179999999927,
            "durationTicks": 192,
            "midi": 66,
            "name": "F#4",
            "ticks": 171648,
            "time": 162.54529200000002,
            "velocity": 0.2440944881889764
          },
          {
            "duration": 0.1818179999999927,
            "durationTicks": 192,
            "midi": 75,
            "name": "D#5",
            "ticks": 171648,
            "time": 162.54529200000002,
            "velocity": 0.2440944881889764
          },
          {
            "duration": 0.1818179999999927,
            "durationTicks": 192,
            "midi": 61,
            "name": "C#4",
            "ticks": 172032,
            "time": 162.908928,
            "velocity": 0.2440944881889764
          },
          {
            "duration": 0.1818179999999927,
            "durationTicks": 192,
            "midi": 70,
            "name": "A#4",
            "ticks": 172032,
            "time": 162.908928,
            "velocity": 0.2440944881889764
          },
          {
            "duration": 0.1818179999999927,
            "durationTicks": 192,
            "midi": 73,
            "name": "C#5",
            "ticks": 172032,
            "time": 162.908928,
            "velocity": 0.2440944881889764
          },
          {
            "duration": 0.1818179999999927,
            "durationTicks": 192,
            "midi": 78,
            "name": "F#5",
            "ticks": 172416,
            "time": 163.27256400000002,
            "velocity": 0.2440944881889764
          },
          {
            "duration": 0.1818179999999927,
            "durationTicks": 192,
            "midi": 82,
            "name": "A#5",
            "ticks": 172416,
            "time": 163.27256400000002,
            "velocity": 0.2440944881889764
          },
          {
            "duration": 0.1818179999999927,
            "durationTicks": 192,
            "midi": 70,
            "name": "A#4",
            "ticks": 172416,
            "time": 163.27256400000002,
            "velocity": 0.2440944881889764
          },
          {
            "duration": 0.1818179999999927,
            "durationTicks": 192,
            "midi": 80,
            "name": "G#5",
            "ticks": 172608,
            "time": 163.454382,
            "velocity": 0.2440944881889764
          },
          {
            "duration": 0.1818179999999927,
            "durationTicks": 192,
            "midi": 68,
            "name": "G#4",
            "ticks": 172608,
            "time": 163.454382,
            "velocity": 0.2440944881889764
          },
          {
            "duration": 0.1818179999999927,
            "durationTicks": 192,
            "midi": 77,
            "name": "F5",
            "ticks": 172608,
            "time": 163.454382,
            "velocity": 0.2440944881889764
          },
          {
            "duration": 0.1818179999999927,
            "durationTicks": 192,
            "midi": 78,
            "name": "F#5",
            "ticks": 172800,
            "time": 163.6362,
            "velocity": 0.2440944881889764
          },
          {
            "duration": 0.1818179999999927,
            "durationTicks": 192,
            "midi": 75,
            "name": "D#5",
            "ticks": 172800,
            "time": 163.6362,
            "velocity": 0.2440944881889764
          },
          {
            "duration": 0.1818179999999927,
            "durationTicks": 192,
            "midi": 66,
            "name": "F#4",
            "ticks": 172800,
            "time": 163.6362,
            "velocity": 0.2440944881889764
          },
          {
            "duration": 0.1818179999999927,
            "durationTicks": 192,
            "midi": 78,
            "name": "F#5",
            "ticks": 173376,
            "time": 164.181654,
            "velocity": 0.2440944881889764
          },
          {
            "duration": 0.1818179999999927,
            "durationTicks": 192,
            "midi": 68,
            "name": "G#4",
            "ticks": 173376,
            "time": 164.181654,
            "velocity": 0.2440944881889764
          },
          {
            "duration": 0.1818179999999927,
            "durationTicks": 192,
            "midi": 80,
            "name": "G#5",
            "ticks": 173376,
            "time": 164.181654,
            "velocity": 0.2440944881889764
          },
          {
            "duration": 0.18181800000002113,
            "durationTicks": 192,
            "midi": 78,
            "name": "F#5",
            "ticks": 173760,
            "time": 164.54529,
            "velocity": 0.2440944881889764
          },
          {
            "duration": 0.18181800000002113,
            "durationTicks": 192,
            "midi": 66,
            "name": "F#4",
            "ticks": 173760,
            "time": 164.54529,
            "velocity": 0.2440944881889764
          },
          {
            "duration": 0.18181800000002113,
            "durationTicks": 192,
            "midi": 75,
            "name": "D#5",
            "ticks": 173760,
            "time": 164.54529,
            "velocity": 0.2440944881889764
          },
          {
            "duration": 0.1818179999999927,
            "durationTicks": 192,
            "midi": 68,
            "name": "G#4",
            "ticks": 173952,
            "time": 164.72710800000002,
            "velocity": 0.2440944881889764
          },
          {
            "duration": 0.1818179999999927,
            "durationTicks": 192,
            "midi": 78,
            "name": "F#5",
            "ticks": 173952,
            "time": 164.72710800000002,
            "velocity": 0.2440944881889764
          },
          {
            "duration": 0.1818179999999927,
            "durationTicks": 192,
            "midi": 80,
            "name": "G#5",
            "ticks": 173952,
            "time": 164.72710800000002,
            "velocity": 0.2440944881889764
          },
          {
            "duration": 0.1818179999999927,
            "durationTicks": 192,
            "midi": 75,
            "name": "D#5",
            "ticks": 174144,
            "time": 164.908926,
            "velocity": 0.2440944881889764
          },
          {
            "duration": 0.1818179999999927,
            "durationTicks": 192,
            "midi": 78,
            "name": "F#5",
            "ticks": 174144,
            "time": 164.908926,
            "velocity": 0.2440944881889764
          },
          {
            "duration": 0.1818179999999927,
            "durationTicks": 192,
            "midi": 66,
            "name": "F#4",
            "ticks": 174144,
            "time": 164.908926,
            "velocity": 0.2440944881889764
          },
          {
            "duration": 0.1818179999999927,
            "durationTicks": 192,
            "midi": 80,
            "name": "G#5",
            "ticks": 174336,
            "time": 165.090744,
            "velocity": 0.2440944881889764
          },
          {
            "duration": 0.1818179999999927,
            "durationTicks": 192,
            "midi": 78,
            "name": "F#5",
            "ticks": 174336,
            "time": 165.090744,
            "velocity": 0.2440944881889764
          },
          {
            "duration": 0.1818179999999927,
            "durationTicks": 192,
            "midi": 68,
            "name": "G#4",
            "ticks": 174336,
            "time": 165.090744,
            "velocity": 0.2440944881889764
          },
          {
            "duration": 0.1818179999999927,
            "durationTicks": 192,
            "midi": 70,
            "name": "A#4",
            "ticks": 174720,
            "time": 165.45438000000001,
            "velocity": 0.2440944881889764
          },
          {
            "duration": 0.1818179999999927,
            "durationTicks": 192,
            "midi": 78,
            "name": "F#5",
            "ticks": 174720,
            "time": 165.45438000000001,
            "velocity": 0.2440944881889764
          },
          {
            "duration": 0.1818179999999927,
            "durationTicks": 192,
            "midi": 82,
            "name": "A#5",
            "ticks": 174720,
            "time": 165.45438000000001,
            "velocity": 0.2440944881889764
          },
          {
            "duration": 0.1818179999999927,
            "durationTicks": 192,
            "midi": 73,
            "name": "C#5",
            "ticks": 175104,
            "time": 165.818016,
            "velocity": 0.2440944881889764
          },
          {
            "duration": 0.1818179999999927,
            "durationTicks": 192,
            "midi": 73,
            "name": "C#5",
            "ticks": 175104,
            "time": 165.818016,
            "velocity": 0.2440944881889764
          },
          {
            "duration": 0.1818179999999927,
            "durationTicks": 192,
            "midi": 82,
            "name": "A#5",
            "ticks": 175104,
            "time": 165.818016,
            "velocity": 0.2440944881889764
          },
          {
            "duration": 0.1818179999999927,
            "durationTicks": 192,
            "midi": 83,
            "name": "B5",
            "ticks": 175488,
            "time": 166.181652,
            "velocity": 0.2440944881889764
          },
          {
            "duration": 0.1818179999999927,
            "durationTicks": 192,
            "midi": 80,
            "name": "G#5",
            "ticks": 175488,
            "time": 166.181652,
            "velocity": 0.2440944881889764
          },
          {
            "duration": 0.1818179999999927,
            "durationTicks": 192,
            "midi": 71,
            "name": "B4",
            "ticks": 175488,
            "time": 166.181652,
            "velocity": 0.2440944881889764
          },
          {
            "duration": 0.1818179999999927,
            "durationTicks": 192,
            "midi": 78,
            "name": "F#5",
            "ticks": 175680,
            "time": 166.36347,
            "velocity": 0.2440944881889764
          },
          {
            "duration": 0.1818179999999927,
            "durationTicks": 192,
            "midi": 82,
            "name": "A#5",
            "ticks": 175680,
            "time": 166.36347,
            "velocity": 0.2440944881889764
          },
          {
            "duration": 0.1818179999999927,
            "durationTicks": 192,
            "midi": 70,
            "name": "A#4",
            "ticks": 175680,
            "time": 166.36347,
            "velocity": 0.2440944881889764
          },
          {
            "duration": 0.18181800000002113,
            "durationTicks": 192,
            "midi": 66,
            "name": "F#4",
            "ticks": 175872,
            "time": 166.545288,
            "velocity": 0.2440944881889764
          },
          {
            "duration": 0.18181800000002113,
            "durationTicks": 192,
            "midi": 75,
            "name": "D#5",
            "ticks": 175872,
            "time": 166.545288,
            "velocity": 0.2440944881889764
          },
          {
            "duration": 0.18181800000002113,
            "durationTicks": 192,
            "midi": 78,
            "name": "F#5",
            "ticks": 175872,
            "time": 166.545288,
            "velocity": 0.2440944881889764
          },
          {
            "duration": 0.1818179999999927,
            "durationTicks": 192,
            "midi": 78,
            "name": "F#5",
            "ticks": 176256,
            "time": 166.908924,
            "velocity": 0.2440944881889764
          },
          {
            "duration": 0.1818179999999927,
            "durationTicks": 192,
            "midi": 66,
            "name": "F#4",
            "ticks": 176256,
            "time": 166.908924,
            "velocity": 0.2440944881889764
          },
          {
            "duration": 0.1818179999999927,
            "durationTicks": 192,
            "midi": 80,
            "name": "G#5",
            "ticks": 176448,
            "time": 167.090742,
            "velocity": 0.2440944881889764
          },
          {
            "duration": 0.1818179999999927,
            "durationTicks": 192,
            "midi": 71,
            "name": "B4",
            "ticks": 176448,
            "time": 167.090742,
            "velocity": 0.2440944881889764
          },
          {
            "duration": 0.1818179999999927,
            "durationTicks": 192,
            "midi": 68,
            "name": "G#4",
            "ticks": 176448,
            "time": 167.090742,
            "velocity": 0.2440944881889764
          },
          {
            "duration": 0.1818179999999927,
            "durationTicks": 192,
            "midi": 68,
            "name": "G#4",
            "ticks": 176832,
            "time": 167.45437800000002,
            "velocity": 0.2440944881889764
          },
          {
            "duration": 0.1818179999999927,
            "durationTicks": 192,
            "midi": 71,
            "name": "B4",
            "ticks": 176832,
            "time": 167.45437800000002,
            "velocity": 0.2440944881889764
          },
          {
            "duration": 0.1818179999999927,
            "durationTicks": 192,
            "midi": 80,
            "name": "G#5",
            "ticks": 176832,
            "time": 167.45437800000002,
            "velocity": 0.2440944881889764
          },
          {
            "duration": 0.1818179999999927,
            "durationTicks": 192,
            "midi": 78,
            "name": "F#5",
            "ticks": 177024,
            "time": 167.636196,
            "velocity": 0.2440944881889764
          },
          {
            "duration": 0.1818179999999927,
            "durationTicks": 192,
            "midi": 82,
            "name": "A#5",
            "ticks": 177024,
            "time": 167.636196,
            "velocity": 0.2440944881889764
          },
          {
            "duration": 0.1818179999999927,
            "durationTicks": 192,
            "midi": 70,
            "name": "A#4",
            "ticks": 177024,
            "time": 167.636196,
            "velocity": 0.2440944881889764
          },
          {
            "duration": 0.18181800000002113,
            "durationTicks": 192,
            "midi": 68,
            "name": "G#4",
            "ticks": 177408,
            "time": 167.999832,
            "velocity": 0.2440944881889764
          },
          {
            "duration": 0.5454540000000065,
            "durationTicks": 576,
            "midi": 63,
            "name": "D#4",
            "ticks": 177408,
            "time": 167.999832,
            "velocity": 0.2440944881889764
          },
          {
            "duration": 0.18181800000002113,
            "durationTicks": 192,
            "midi": 80,
            "name": "G#5",
            "ticks": 177408,
            "time": 167.999832,
            "velocity": 0.2440944881889764
          },
          {
            "duration": 0.18181800000002113,
            "durationTicks": 192,
            "midi": 71,
            "name": "B4",
            "ticks": 177408,
            "time": 167.999832,
            "velocity": 0.2440944881889764
          },
          {
            "duration": 0.1818179999999927,
            "durationTicks": 192,
            "midi": 66,
            "name": "F#4",
            "ticks": 177792,
            "time": 168.363468,
            "velocity": 0.2440944881889764
          },
          {
            "duration": 0.1818179999999927,
            "durationTicks": 192,
            "midi": 78,
            "name": "F#5",
            "ticks": 177792,
            "time": 168.363468,
            "velocity": 0.2440944881889764
          },
          {
            "duration": 0.1818179999999927,
            "durationTicks": 192,
            "midi": 75,
            "name": "D#5",
            "ticks": 177792,
            "time": 168.363468,
            "velocity": 0.2440944881889764
          },
          {
            "duration": 1.7272710000000018,
            "durationTicks": 1824,
            "midi": 46,
            "name": "A#2",
            "ticks": 178176,
            "time": 168.727104,
            "velocity": 0.2440944881889764
          },
          {
            "duration": 1.7272710000000018,
            "durationTicks": 1824,
            "midi": 58,
            "name": "A#3",
            "ticks": 178176,
            "time": 168.727104,
            "velocity": 0.2440944881889764
          },
          {
            "duration": 1.7272710000000018,
            "durationTicks": 1824,
            "midi": 49,
            "name": "C#3",
            "ticks": 178176,
            "time": 168.727104,
            "velocity": 0.2440944881889764
          }
        ],
        "endOfTrackTicks": 180000
      },
      {
        "channel": 8,
        "controlChanges": {},
        "pitchBends": [],
        "instrument": {
          "family": "chromatic percussion",
          "number": 11,
          "name": "vibraphone"
        },
        "name": "Vibraphone",
        "notes": [
          {
            "duration": 0.0454545,
            "durationTicks": 48,
            "midi": 66,
            "name": "F#4",
            "ticks": 0,
            "time": 0,
            "velocity": 0.1889763779527559
          },
          {
            "duration": 0.04545450000000001,
            "durationTicks": 48,
            "midi": 68,
            "name": "G#4",
            "ticks": 192,
            "time": 0.181818,
            "velocity": 0.1889763779527559
          },
          {
            "duration": 0.04545450000000001,
            "durationTicks": 48,
            "midi": 70,
            "name": "A#4",
            "ticks": 384,
            "time": 0.363636,
            "velocity": 0.1889763779527559
          },
          {
            "duration": 0.045454500000000064,
            "durationTicks": 48,
            "midi": 71,
            "name": "B4",
            "ticks": 576,
            "time": 0.545454,
            "velocity": 0.1889763779527559
          },
          {
            "duration": 0.04545449999999995,
            "durationTicks": 48,
            "midi": 73,
            "name": "C#5",
            "ticks": 768,
            "time": 0.727272,
            "velocity": 0.1889763779527559
          },
          {
            "duration": 0.04545449999999995,
            "durationTicks": 48,
            "midi": 70,
            "name": "A#4",
            "ticks": 768,
            "time": 0.727272,
            "velocity": 0.1889763779527559
          },
          {
            "duration": 0.04545449999999995,
            "durationTicks": 48,
            "midi": 73,
            "name": "C#5",
            "ticks": 1152,
            "time": 1.090908,
            "velocity": 0.1889763779527559
          },
          {
            "duration": 0.04545449999999995,
            "durationTicks": 48,
            "midi": 73,
            "name": "C#5",
            "ticks": 1344,
            "time": 1.272726,
            "velocity": 0.1889763779527559
          },
          {
            "duration": 0.04545449999999995,
            "durationTicks": 48,
            "midi": 73,
            "name": "C#5",
            "ticks": 1728,
            "time": 1.636362,
            "velocity": 0.1889763779527559
          },
          {
            "duration": 0.04545449999999995,
            "durationTicks": 48,
            "midi": 75,
            "name": "D#5",
            "ticks": 1920,
            "time": 1.8181800000000001,
            "velocity": 0.1889763779527559
          },
          {
            "duration": 0.49999949999999993,
            "durationTicks": 528,
            "midi": 73,
            "name": "C#5",
            "ticks": 2112,
            "time": 1.9999980000000002,
            "velocity": 0.1889763779527559
          },
          {
            "duration": 0.04545449999999995,
            "durationTicks": 48,
            "midi": 68,
            "name": "G#4",
            "ticks": 2304,
            "time": 2.181816,
            "velocity": 0.1889763779527559
          },
          {
            "duration": 0.04545449999999995,
            "durationTicks": 48,
            "midi": 65,
            "name": "F4",
            "ticks": 2304,
            "time": 2.181816,
            "velocity": 0.1889763779527559
          },
          {
            "duration": 0.04545449999999995,
            "durationTicks": 48,
            "midi": 73,
            "name": "C#5",
            "ticks": 3072,
            "time": 2.909088,
            "velocity": 0.1889763779527559
          },
          {
            "duration": 0.0454545000000004,
            "durationTicks": 48,
            "midi": 75,
            "name": "D#5",
            "ticks": 3264,
            "time": 3.090906,
            "velocity": 0.1889763779527559
          },
          {
            "duration": 0.04545449999999995,
            "durationTicks": 48,
            "midi": 73,
            "name": "C#5",
            "ticks": 3456,
            "time": 3.272724,
            "velocity": 0.1889763779527559
          },
          {
            "duration": 0.04545449999999995,
            "durationTicks": 48,
            "midi": 71,
            "name": "B4",
            "ticks": 3648,
            "time": 3.454542,
            "velocity": 0.1889763779527559
          },
          {
            "duration": 0.04545449999999995,
            "durationTicks": 48,
            "midi": 70,
            "name": "A#4",
            "ticks": 3840,
            "time": 3.6363600000000003,
            "velocity": 0.1889763779527559
          },
          {
            "duration": 0.04545449999999995,
            "durationTicks": 48,
            "midi": 66,
            "name": "F#4",
            "ticks": 3840,
            "time": 3.6363600000000003,
            "velocity": 0.1889763779527559
          },
          {
            "duration": 0.04545449999999995,
            "durationTicks": 48,
            "midi": 70,
            "name": "A#4",
            "ticks": 4224,
            "time": 3.9999960000000003,
            "velocity": 0.1889763779527559
          },
          {
            "duration": 0.3181814999999997,
            "durationTicks": 336,
            "midi": 70,
            "name": "A#4",
            "ticks": 4416,
            "time": 4.181814,
            "velocity": 0.1889763779527559
          },
          {
            "duration": 0.04545450000000084,
            "durationTicks": 48,
            "midi": 71,
            "name": "B4",
            "ticks": 4800,
            "time": 4.54545,
            "velocity": 0.1889763779527559
          },
          {
            "duration": 0.04545449999999995,
            "durationTicks": 48,
            "midi": 70,
            "name": "A#4",
            "ticks": 4992,
            "time": 4.7272680000000005,
            "velocity": 0.1889763779527559
          },
          {
            "duration": 0.4999995000000004,
            "durationTicks": 528,
            "midi": 66,
            "name": "F#4",
            "ticks": 5184,
            "time": 4.909086,
            "velocity": 0.1889763779527559
          },
          {
            "duration": 0.22727249999999977,
            "durationTicks": 240,
            "midi": 63,
            "name": "D#4",
            "ticks": 5376,
            "time": 5.090904,
            "velocity": 0.1889763779527559
          },
          {
            "duration": 0.04545449999999995,
            "durationTicks": 48,
            "midi": 66,
            "name": "F#4",
            "ticks": 6144,
            "time": 5.818176,
            "velocity": 0.1889763779527559
          },
          {
            "duration": 0.04545449999999995,
            "durationTicks": 48,
            "midi": 68,
            "name": "G#4",
            "ticks": 6336,
            "time": 5.999994,
            "velocity": 0.1889763779527559
          },
          {
            "duration": 0.04545449999999995,
            "durationTicks": 48,
            "midi": 70,
            "name": "A#4",
            "ticks": 6528,
            "time": 6.181812,
            "velocity": 0.1889763779527559
          },
          {
            "duration": 0.04545449999999995,
            "durationTicks": 48,
            "midi": 71,
            "name": "B4",
            "ticks": 6720,
            "time": 6.363630000000001,
            "velocity": 0.1889763779527559
          },
          {
            "duration": 0.04545449999999995,
            "durationTicks": 48,
            "midi": 66,
            "name": "F#4",
            "ticks": 6912,
            "time": 6.545448,
            "velocity": 0.1889763779527559
          },
          {
            "duration": 0.04545449999999995,
            "durationTicks": 48,
            "midi": 70,
            "name": "A#4",
            "ticks": 6912,
            "time": 6.545448,
            "velocity": 0.1889763779527559
          },
          {
            "duration": 0.04545449999999995,
            "durationTicks": 48,
            "midi": 73,
            "name": "C#5",
            "ticks": 6912,
            "time": 6.545448,
            "velocity": 0.1889763779527559
          },
          {
            "duration": 0.04545449999999995,
            "durationTicks": 48,
            "midi": 73,
            "name": "C#5",
            "ticks": 7296,
            "time": 6.909084,
            "velocity": 0.1889763779527559
          },
          {
            "duration": 0.04545449999999995,
            "durationTicks": 48,
            "midi": 73,
            "name": "C#5",
            "ticks": 7488,
            "time": 7.090902000000001,
            "velocity": 0.1889763779527559
          },
          {
            "duration": 0.04545449999999995,
            "durationTicks": 48,
            "midi": 73,
            "name": "C#5",
            "ticks": 7872,
            "time": 7.454538,
            "velocity": 0.1889763779527559
          },
          {
            "duration": 0.04545449999999995,
            "durationTicks": 48,
            "midi": 75,
            "name": "D#5",
            "ticks": 8064,
            "time": 7.636356,
            "velocity": 0.1889763779527559
          },
          {
            "duration": 0.04545449999999995,
            "durationTicks": 48,
            "midi": 73,
            "name": "C#5",
            "ticks": 8256,
            "time": 7.818174,
            "velocity": 0.1889763779527559
          },
          {
            "duration": 0.04545449999999995,
            "durationTicks": 48,
            "midi": 68,
            "name": "G#4",
            "ticks": 8448,
            "time": 7.999992000000001,
            "velocity": 0.1889763779527559
          },
          {
            "duration": 0.04545449999999995,
            "durationTicks": 48,
            "midi": 65,
            "name": "F4",
            "ticks": 8448,
            "time": 7.999992000000001,
            "velocity": 0.1889763779527559
          },
          {
            "duration": 0.04545449999999995,
            "durationTicks": 48,
            "midi": 73,
            "name": "C#5",
            "ticks": 9216,
            "time": 8.727264,
            "velocity": 0.1889763779527559
          },
          {
            "duration": 0.04545449999999995,
            "durationTicks": 48,
            "midi": 75,
            "name": "D#5",
            "ticks": 9408,
            "time": 8.909082,
            "velocity": 0.1889763779527559
          },
          {
            "duration": 0.04545449999999995,
            "durationTicks": 48,
            "midi": 73,
            "name": "C#5",
            "ticks": 9600,
            "time": 9.0909,
            "velocity": 0.1889763779527559
          },
          {
            "duration": 0.04545449999999995,
            "durationTicks": 48,
            "midi": 71,
            "name": "B4",
            "ticks": 9792,
            "time": 9.272718000000001,
            "velocity": 0.1889763779527559
          },
          {
            "duration": 0.04545449999999995,
            "durationTicks": 48,
            "midi": 70,
            "name": "A#4",
            "ticks": 9984,
            "time": 9.454536000000001,
            "velocity": 0.1889763779527559
          },
          {
            "duration": 0.04545449999999995,
            "durationTicks": 48,
            "midi": 66,
            "name": "F#4",
            "ticks": 9984,
            "time": 9.454536000000001,
            "velocity": 0.1889763779527559
          },
          {
            "duration": 0.04545449999999995,
            "durationTicks": 48,
            "midi": 70,
            "name": "A#4",
            "ticks": 10368,
            "time": 9.818172,
            "velocity": 0.1889763779527559
          },
          {
            "duration": 0.3181814999999997,
            "durationTicks": 336,
            "midi": 70,
            "name": "A#4",
            "ticks": 10560,
            "time": 9.99999,
            "velocity": 0.1889763779527559
          },
          {
            "duration": 0.04545449999999995,
            "durationTicks": 48,
            "midi": 71,
            "name": "B4",
            "ticks": 10944,
            "time": 10.363626,
            "velocity": 0.1889763779527559
          },
          {
            "duration": 0.04545449999999995,
            "durationTicks": 48,
            "midi": 70,
            "name": "A#4",
            "ticks": 11136,
            "time": 10.545444,
            "velocity": 0.1889763779527559
          },
          {
            "duration": 0.04545449999999995,
            "durationTicks": 48,
            "midi": 66,
            "name": "F#4",
            "ticks": 11328,
            "time": 10.727262,
            "velocity": 0.1889763779527559
          },
          {
            "duration": 0.04545449999999995,
            "durationTicks": 48,
            "midi": 59,
            "name": "B3",
            "ticks": 11520,
            "time": 10.909080000000001,
            "velocity": 0.1889763779527559
          },
          {
            "duration": 0.04545449999999995,
            "durationTicks": 48,
            "midi": 63,
            "name": "D#4",
            "ticks": 11520,
            "time": 10.909080000000001,
            "velocity": 0.1889763779527559
          },
          {
            "duration": 0.04545449999999995,
            "durationTicks": 48,
            "midi": 49,
            "name": "C#3",
            "ticks": 13056,
            "time": 12.363624,
            "velocity": 0.1889763779527559
          },
          {
            "duration": 0.04545449999999995,
            "durationTicks": 48,
            "midi": 54,
            "name": "F#3",
            "ticks": 13440,
            "time": 12.727260000000001,
            "velocity": 0.1889763779527559
          },
          {
            "duration": 0.04545449999999995,
            "durationTicks": 48,
            "midi": 58,
            "name": "A#3",
            "ticks": 13824,
            "time": 13.090896,
            "velocity": 0.1889763779527559
          },
          {
            "duration": 0.04545449999999995,
            "durationTicks": 48,
            "midi": 61,
            "name": "C#4",
            "ticks": 14208,
            "time": 13.454532,
            "velocity": 0.1889763779527559
          },
          {
            "duration": 0.04545449999999995,
            "durationTicks": 48,
            "midi": 66,
            "name": "F#4",
            "ticks": 14592,
            "time": 13.818168,
            "velocity": 0.1889763779527559
          },
          {
            "duration": 0.04545449999999995,
            "durationTicks": 48,
            "midi": 70,
            "name": "A#4",
            "ticks": 14976,
            "time": 14.181804000000001,
            "velocity": 0.1889763779527559
          },
          {
            "duration": 0.04545449999999995,
            "durationTicks": 48,
            "midi": 73,
            "name": "C#5",
            "ticks": 15360,
            "time": 14.545440000000001,
            "velocity": 0.1889763779527559
          },
          {
            "duration": 0.04545449999999995,
            "durationTicks": 48,
            "midi": 78,
            "name": "F#5",
            "ticks": 15744,
            "time": 14.909076,
            "velocity": 0.1889763779527559
          },
          {
            "duration": 0.04545449999999995,
            "durationTicks": 48,
            "midi": 82,
            "name": "A#5",
            "ticks": 16128,
            "time": 15.272712,
            "velocity": 0.1889763779527559
          },
          {
            "duration": 0.04545449999999995,
            "durationTicks": 48,
            "midi": 78,
            "name": "F#5",
            "ticks": 16128,
            "time": 15.272712,
            "velocity": 0.1889763779527559
          },
          {
            "duration": 0.04545449999999995,
            "durationTicks": 48,
            "midi": 82,
            "name": "A#5",
            "ticks": 16512,
            "time": 15.636348,
            "velocity": 0.1889763779527559
          },
          {
            "duration": 0.04545449999999995,
            "durationTicks": 48,
            "midi": 78,
            "name": "F#5",
            "ticks": 16512,
            "time": 15.636348,
            "velocity": 0.1889763779527559
          },
          {
            "duration": 0.04545449999999995,
            "durationTicks": 48,
            "midi": 78,
            "name": "F#5",
            "ticks": 16704,
            "time": 15.818166000000002,
            "velocity": 0.1889763779527559
          },
          {
            "duration": 0.04545449999999995,
            "durationTicks": 48,
            "midi": 82,
            "name": "A#5",
            "ticks": 16704,
            "time": 15.818166000000002,
            "velocity": 0.1889763779527559
          },
          {
            "duration": 0.04545449999999818,
            "durationTicks": 48,
            "midi": 83,
            "name": "B5",
            "ticks": 17088,
            "time": 16.181802,
            "velocity": 0.1889763779527559
          },
          {
            "duration": 0.04545449999999818,
            "durationTicks": 48,
            "midi": 78,
            "name": "F#5",
            "ticks": 17280,
            "time": 16.36362,
            "velocity": 0.1889763779527559
          },
          {
            "duration": 0.04545449999999818,
            "durationTicks": 48,
            "midi": 82,
            "name": "A#5",
            "ticks": 17472,
            "time": 16.545438,
            "velocity": 0.1889763779527559
          },
          {
            "duration": 0.04545450000000173,
            "durationTicks": 48,
            "midi": 80,
            "name": "G#5",
            "ticks": 17664,
            "time": 16.727256,
            "velocity": 0.1889763779527559
          },
          {
            "duration": 0.04545450000000173,
            "durationTicks": 48,
            "midi": 77,
            "name": "F5",
            "ticks": 17664,
            "time": 16.727256,
            "velocity": 0.1889763779527559
          },
          {
            "duration": 0.04545450000000173,
            "durationTicks": 48,
            "midi": 80,
            "name": "G#5",
            "ticks": 18048,
            "time": 17.090892,
            "velocity": 0.1889763779527559
          },
          {
            "duration": 0.04545450000000173,
            "durationTicks": 48,
            "midi": 77,
            "name": "F5",
            "ticks": 18048,
            "time": 17.090892,
            "velocity": 0.1889763779527559
          },
          {
            "duration": 0.04545450000000173,
            "durationTicks": 48,
            "midi": 77,
            "name": "F5",
            "ticks": 18240,
            "time": 17.27271,
            "velocity": 0.1889763779527559
          },
          {
            "duration": 0.04545450000000173,
            "durationTicks": 48,
            "midi": 80,
            "name": "G#5",
            "ticks": 18240,
            "time": 17.27271,
            "velocity": 0.1889763779527559
          },
          {
            "duration": 0.04545450000000173,
            "durationTicks": 48,
            "midi": 85,
            "name": "C#6",
            "ticks": 18624,
            "time": 17.636346,
            "velocity": 0.1889763779527559
          },
          {
            "duration": 0.04545450000000173,
            "durationTicks": 48,
            "midi": 77,
            "name": "F5",
            "ticks": 18816,
            "time": 17.818164,
            "velocity": 0.1889763779527559
          },
          {
            "duration": 0.04545450000000173,
            "durationTicks": 48,
            "midi": 80,
            "name": "G#5",
            "ticks": 19008,
            "time": 17.999982,
            "velocity": 0.1889763779527559
          },
          {
            "duration": 0.04545450000000173,
            "durationTicks": 48,
            "midi": 75,
            "name": "D#5",
            "ticks": 19200,
            "time": 18.1818,
            "velocity": 0.1889763779527559
          },
          {
            "duration": 0.04545450000000173,
            "durationTicks": 48,
            "midi": 78,
            "name": "F#5",
            "ticks": 19200,
            "time": 18.1818,
            "velocity": 0.1889763779527559
          },
          {
            "duration": 0.04545450000000173,
            "durationTicks": 48,
            "midi": 78,
            "name": "F#5",
            "ticks": 19200,
            "time": 18.1818,
            "velocity": 0.1889763779527559
          },
          {
            "duration": 0.04545449999999818,
            "durationTicks": 48,
            "midi": 78,
            "name": "F#5",
            "ticks": 19584,
            "time": 18.545436000000002,
            "velocity": 0.1889763779527559
          },
          {
            "duration": 0.04545449999999818,
            "durationTicks": 48,
            "midi": 75,
            "name": "D#5",
            "ticks": 19584,
            "time": 18.545436000000002,
            "velocity": 0.1889763779527559
          },
          {
            "duration": 0.04545449999999818,
            "durationTicks": 48,
            "midi": 78,
            "name": "F#5",
            "ticks": 19776,
            "time": 18.727254000000002,
            "velocity": 0.1889763779527559
          },
          {
            "duration": 0.04545449999999818,
            "durationTicks": 48,
            "midi": 75,
            "name": "D#5",
            "ticks": 19776,
            "time": 18.727254000000002,
            "velocity": 0.1889763779527559
          },
          {
            "duration": 0.04545449999999818,
            "durationTicks": 48,
            "midi": 80,
            "name": "G#5",
            "ticks": 20160,
            "time": 19.09089,
            "velocity": 0.1889763779527559
          },
          {
            "duration": 0.04545449999999818,
            "durationTicks": 48,
            "midi": 75,
            "name": "D#5",
            "ticks": 20352,
            "time": 19.272708,
            "velocity": 0.1889763779527559
          },
          {
            "duration": 0.04545449999999818,
            "durationTicks": 48,
            "midi": 77,
            "name": "F5",
            "ticks": 20544,
            "time": 19.454526,
            "velocity": 0.1889763779527559
          },
          {
            "duration": 0.04545449999999818,
            "durationTicks": 48,
            "midi": 78,
            "name": "F#5",
            "ticks": 20736,
            "time": 19.636344,
            "velocity": 0.1889763779527559
          },
          {
            "duration": 0.04545449999999818,
            "durationTicks": 48,
            "midi": 75,
            "name": "D#5",
            "ticks": 20736,
            "time": 19.636344,
            "velocity": 0.1889763779527559
          },
          {
            "duration": 0.04545450000000173,
            "durationTicks": 48,
            "midi": 78,
            "name": "F#5",
            "ticks": 21120,
            "time": 19.99998,
            "velocity": 0.1889763779527559
          },
          {
            "duration": 0.04545450000000173,
            "durationTicks": 48,
            "midi": 75,
            "name": "D#5",
            "ticks": 21120,
            "time": 19.99998,
            "velocity": 0.1889763779527559
          },
          {
            "duration": 0.04545450000000173,
            "durationTicks": 48,
            "midi": 78,
            "name": "F#5",
            "ticks": 21312,
            "time": 20.181798,
            "velocity": 0.1889763779527559
          },
          {
            "duration": 0.04545450000000173,
            "durationTicks": 48,
            "midi": 75,
            "name": "D#5",
            "ticks": 21312,
            "time": 20.181798,
            "velocity": 0.1889763779527559
          },
          {
            "duration": 0.04545450000000173,
            "durationTicks": 48,
            "midi": 77,
            "name": "F5",
            "ticks": 21696,
            "time": 20.545434,
            "velocity": 0.1889763779527559
          },
          {
            "duration": 0.04545450000000173,
            "durationTicks": 48,
            "midi": 78,
            "name": "F#5",
            "ticks": 21888,
            "time": 20.727252,
            "velocity": 0.1889763779527559
          },
          {
            "duration": 0.04545450000000173,
            "durationTicks": 48,
            "midi": 80,
            "name": "G#5",
            "ticks": 22080,
            "time": 20.90907,
            "velocity": 0.1889763779527559
          },
          {
            "duration": 0.04545450000000173,
            "durationTicks": 48,
            "midi": 82,
            "name": "A#5",
            "ticks": 22272,
            "time": 21.090888,
            "velocity": 0.1889763779527559
          },
          {
            "duration": 0.04545450000000173,
            "durationTicks": 48,
            "midi": 78,
            "name": "F#5",
            "ticks": 22272,
            "time": 21.090888,
            "velocity": 0.1889763779527559
          },
          {
            "duration": 0.04545450000000173,
            "durationTicks": 48,
            "midi": 78,
            "name": "F#5",
            "ticks": 22656,
            "time": 21.454524,
            "velocity": 0.1889763779527559
          },
          {
            "duration": 0.04545450000000173,
            "durationTicks": 48,
            "midi": 82,
            "name": "A#5",
            "ticks": 22656,
            "time": 21.454524,
            "velocity": 0.1889763779527559
          },
          {
            "duration": 0.04545449999999818,
            "durationTicks": 48,
            "midi": 82,
            "name": "A#5",
            "ticks": 22848,
            "time": 21.636342000000003,
            "velocity": 0.1889763779527559
          },
          {
            "duration": 0.04545449999999818,
            "durationTicks": 48,
            "midi": 78,
            "name": "F#5",
            "ticks": 22848,
            "time": 21.636342000000003,
            "velocity": 0.1889763779527559
          },
          {
            "duration": 0.04545449999999818,
            "durationTicks": 48,
            "midi": 83,
            "name": "B5",
            "ticks": 23232,
            "time": 21.999978000000002,
            "velocity": 0.1889763779527559
          },
          {
            "duration": 0.04545449999999818,
            "durationTicks": 48,
            "midi": 78,
            "name": "F#5",
            "ticks": 23424,
            "time": 22.181796000000002,
            "velocity": 0.1889763779527559
          },
          {
            "duration": 0.04545449999999818,
            "durationTicks": 48,
            "midi": 82,
            "name": "A#5",
            "ticks": 23616,
            "time": 22.363614000000002,
            "velocity": 0.1889763779527559
          },
          {
            "duration": 0.04545449999999818,
            "durationTicks": 48,
            "midi": 80,
            "name": "G#5",
            "ticks": 23808,
            "time": 22.545432,
            "velocity": 0.1889763779527559
          },
          {
            "duration": 0.04545449999999818,
            "durationTicks": 48,
            "midi": 77,
            "name": "F5",
            "ticks": 23808,
            "time": 22.545432,
            "velocity": 0.1889763779527559
          },
          {
            "duration": 0.04545449999999818,
            "durationTicks": 48,
            "midi": 77,
            "name": "F5",
            "ticks": 24192,
            "time": 22.909068,
            "velocity": 0.1889763779527559
          },
          {
            "duration": 0.04545449999999818,
            "durationTicks": 48,
            "midi": 80,
            "name": "G#5",
            "ticks": 24192,
            "time": 22.909068,
            "velocity": 0.1889763779527559
          },
          {
            "duration": 0.04545449999999818,
            "durationTicks": 48,
            "midi": 80,
            "name": "G#5",
            "ticks": 24384,
            "time": 23.090886,
            "velocity": 0.1889763779527559
          },
          {
            "duration": 0.04545449999999818,
            "durationTicks": 48,
            "midi": 77,
            "name": "F5",
            "ticks": 24384,
            "time": 23.090886,
            "velocity": 0.1889763779527559
          },
          {
            "duration": 0.04545450000000173,
            "durationTicks": 48,
            "midi": 85,
            "name": "C#6",
            "ticks": 24768,
            "time": 23.454522,
            "velocity": 0.1889763779527559
          },
          {
            "duration": 0.04545450000000173,
            "durationTicks": 48,
            "midi": 77,
            "name": "F5",
            "ticks": 24960,
            "time": 23.63634,
            "velocity": 0.1889763779527559
          },
          {
            "duration": 0.04545450000000173,
            "durationTicks": 48,
            "midi": 80,
            "name": "G#5",
            "ticks": 25152,
            "time": 23.818158,
            "velocity": 0.1889763779527559
          },
          {
            "duration": 0.04545450000000173,
            "durationTicks": 48,
            "midi": 78,
            "name": "F#5",
            "ticks": 25344,
            "time": 23.999976,
            "velocity": 0.1889763779527559
          },
          {
            "duration": 0.04545450000000173,
            "durationTicks": 48,
            "midi": 75,
            "name": "D#5",
            "ticks": 25344,
            "time": 23.999976,
            "velocity": 0.1889763779527559
          },
          {
            "duration": 0.04545450000000173,
            "durationTicks": 48,
            "midi": 75,
            "name": "D#5",
            "ticks": 25728,
            "time": 24.363612,
            "velocity": 0.1889763779527559
          },
          {
            "duration": 0.04545450000000173,
            "durationTicks": 48,
            "midi": 78,
            "name": "F#5",
            "ticks": 25728,
            "time": 24.363612,
            "velocity": 0.1889763779527559
          },
          {
            "duration": 0.04545450000000173,
            "durationTicks": 48,
            "midi": 75,
            "name": "D#5",
            "ticks": 25920,
            "time": 24.54543,
            "velocity": 0.1889763779527559
          },
          {
            "duration": 0.04545450000000173,
            "durationTicks": 48,
            "midi": 78,
            "name": "F#5",
            "ticks": 25920,
            "time": 24.54543,
            "velocity": 0.1889763779527559
          },
          {
            "duration": 0.04545450000000173,
            "durationTicks": 48,
            "midi": 80,
            "name": "G#5",
            "ticks": 26304,
            "time": 24.909066,
            "velocity": 0.1889763779527559
          },
          {
            "duration": 0.04545449999999818,
            "durationTicks": 48,
            "midi": 75,
            "name": "D#5",
            "ticks": 26496,
            "time": 25.090884000000003,
            "velocity": 0.1889763779527559
          },
          {
            "duration": 0.04545449999999818,
            "durationTicks": 48,
            "midi": 77,
            "name": "F5",
            "ticks": 26688,
            "time": 25.272702000000002,
            "velocity": 0.1889763779527559
          },
          {
            "duration": 0.04545449999999818,
            "durationTicks": 48,
            "midi": 78,
            "name": "F#5",
            "ticks": 26880,
            "time": 25.454520000000002,
            "velocity": 0.1889763779527559
          },
          {
            "duration": 0.04545449999999818,
            "durationTicks": 48,
            "midi": 75,
            "name": "D#5",
            "ticks": 26880,
            "time": 25.454520000000002,
            "velocity": 0.1889763779527559
          },
          {
            "duration": 0.04545449999999818,
            "durationTicks": 48,
            "midi": 75,
            "name": "D#5",
            "ticks": 27264,
            "time": 25.818156000000002,
            "velocity": 0.1889763779527559
          },
          {
            "duration": 0.04545449999999818,
            "durationTicks": 48,
            "midi": 78,
            "name": "F#5",
            "ticks": 27264,
            "time": 25.818156000000002,
            "velocity": 0.1889763779527559
          },
          {
            "duration": 0.04545449999999818,
            "durationTicks": 48,
            "midi": 78,
            "name": "F#5",
            "ticks": 27456,
            "time": 25.999974,
            "velocity": 0.1889763779527559
          },
          {
            "duration": 0.04545449999999818,
            "durationTicks": 48,
            "midi": 75,
            "name": "D#5",
            "ticks": 27456,
            "time": 25.999974,
            "velocity": 0.1889763779527559
          },
          {
            "duration": 0.04545449999999818,
            "durationTicks": 48,
            "midi": 71,
            "name": "B4",
            "ticks": 27840,
            "time": 26.36361,
            "velocity": 0.1889763779527559
          },
          {
            "duration": 0.04545449999999818,
            "durationTicks": 48,
            "midi": 71,
            "name": "B4",
            "ticks": 27840,
            "time": 26.36361,
            "velocity": 0.1889763779527559
          },
          {
            "duration": 0.04545449999999818,
            "durationTicks": 48,
            "midi": 66,
            "name": "F#4",
            "ticks": 28032,
            "time": 26.545428,
            "velocity": 0.1889763779527559
          },
          {
            "duration": 0.04545450000000173,
            "durationTicks": 48,
            "midi": 61,
            "name": "C#4",
            "ticks": 28224,
            "time": 26.727246,
            "velocity": 0.1889763779527559
          },
          {
            "duration": 0.04545450000000173,
            "durationTicks": 48,
            "midi": 66,
            "name": "F#4",
            "ticks": 28416,
            "time": 26.909064,
            "velocity": 0.1889763779527559
          },
          {
            "duration": 0.04545450000000173,
            "durationTicks": 48,
            "midi": 66,
            "name": "F#4",
            "ticks": 28800,
            "time": 27.2727,
            "velocity": 0.1889763779527559
          },
          {
            "duration": 0.04545450000000173,
            "durationTicks": 48,
            "midi": 66,
            "name": "F#4",
            "ticks": 29184,
            "time": 27.636336,
            "velocity": 0.1889763779527559
          },
          {
            "duration": 0.04545450000000173,
            "durationTicks": 48,
            "midi": 66,
            "name": "F#4",
            "ticks": 29568,
            "time": 27.999972,
            "velocity": 0.1889763779527559
          },
          {
            "duration": 0.04545450000000173,
            "durationTicks": 48,
            "midi": 66,
            "name": "F#4",
            "ticks": 29760,
            "time": 28.18179,
            "velocity": 0.1889763779527559
          },
          {
            "duration": 0.04545449999999818,
            "durationTicks": 48,
            "midi": 68,
            "name": "G#4",
            "ticks": 29952,
            "time": 28.363608000000003,
            "velocity": 0.1889763779527559
          },
          {
            "duration": 0.04545449999999818,
            "durationTicks": 48,
            "midi": 70,
            "name": "A#4",
            "ticks": 30144,
            "time": 28.545426000000003,
            "velocity": 0.1889763779527559
          },
          {
            "duration": 0.04545449999999818,
            "durationTicks": 48,
            "midi": 70,
            "name": "A#4",
            "ticks": 30528,
            "time": 28.909062000000002,
            "velocity": 0.1889763779527559
          },
          {
            "duration": 0.04545449999999818,
            "durationTicks": 48,
            "midi": 73,
            "name": "C#5",
            "ticks": 31296,
            "time": 29.636334,
            "velocity": 0.1889763779527559
          },
          {
            "duration": 0.04545450000000173,
            "durationTicks": 48,
            "midi": 66,
            "name": "F#4",
            "ticks": 31680,
            "time": 29.99997,
            "velocity": 0.1889763779527559
          },
          {
            "duration": 0.04545450000000173,
            "durationTicks": 48,
            "midi": 66,
            "name": "F#4",
            "ticks": 31872,
            "time": 30.181788,
            "velocity": 0.1889763779527559
          },
          {
            "duration": 0.04545450000000173,
            "durationTicks": 48,
            "midi": 66,
            "name": "F#4",
            "ticks": 32064,
            "time": 30.363606,
            "velocity": 0.1889763779527559
          },
          {
            "duration": 0.04545450000000173,
            "durationTicks": 48,
            "midi": 66,
            "name": "F#4",
            "ticks": 32448,
            "time": 30.727242,
            "velocity": 0.1889763779527559
          },
          {
            "duration": 0.04545450000000173,
            "durationTicks": 48,
            "midi": 66,
            "name": "F#4",
            "ticks": 32640,
            "time": 30.90906,
            "velocity": 0.1889763779527559
          },
          {
            "duration": 0.04545450000000173,
            "durationTicks": 48,
            "midi": 70,
            "name": "A#4",
            "ticks": 32832,
            "time": 31.090878,
            "velocity": 0.1889763779527559
          },
          {
            "duration": 0.04545450000000173,
            "durationTicks": 48,
            "midi": 68,
            "name": "G#4",
            "ticks": 33024,
            "time": 31.272696,
            "velocity": 0.1889763779527559
          },
          {
            "duration": 0.04545449999999818,
            "durationTicks": 48,
            "midi": 66,
            "name": "F#4",
            "ticks": 33408,
            "time": 31.636332000000003,
            "velocity": 0.1889763779527559
          },
          {
            "duration": 0.04545449999999818,
            "durationTicks": 48,
            "midi": 65,
            "name": "F4",
            "ticks": 34176,
            "time": 32.363604,
            "velocity": 0.1889763779527559
          },
          {
            "duration": 0.04545449999999818,
            "durationTicks": 48,
            "midi": 63,
            "name": "D#4",
            "ticks": 34560,
            "time": 32.72724,
            "velocity": 0.1889763779527559
          },
          {
            "duration": 0.04545449999999818,
            "durationTicks": 48,
            "midi": 61,
            "name": "C#4",
            "ticks": 34752,
            "time": 32.909058,
            "velocity": 0.1889763779527559
          },
          {
            "duration": 0.04545449999999818,
            "durationTicks": 48,
            "midi": 61,
            "name": "C#4",
            "ticks": 36288,
            "time": 34.363602,
            "velocity": 0.1889763779527559
          },
          {
            "duration": 0.04545449999999818,
            "durationTicks": 48,
            "midi": 61,
            "name": "C#4",
            "ticks": 36672,
            "time": 34.727238,
            "velocity": 0.1889763779527559
          },
          {
            "duration": 0.04545450000000528,
            "durationTicks": 48,
            "midi": 63,
            "name": "D#4",
            "ticks": 36864,
            "time": 34.909056,
            "velocity": 0.1889763779527559
          },
          {
            "duration": 0.04545450000000528,
            "durationTicks": 48,
            "midi": 65,
            "name": "F4",
            "ticks": 37056,
            "time": 35.090874,
            "velocity": 0.1889763779527559
          },
          {
            "duration": 0.04545450000000528,
            "durationTicks": 48,
            "midi": 66,
            "name": "F#4",
            "ticks": 37248,
            "time": 35.272692,
            "velocity": 0.1889763779527559
          },
          {
            "duration": 0.04545450000000528,
            "durationTicks": 48,
            "midi": 63,
            "name": "D#4",
            "ticks": 37632,
            "time": 35.636328,
            "velocity": 0.1889763779527559
          },
          {
            "duration": 0.04545450000000528,
            "durationTicks": 48,
            "midi": 61,
            "name": "C#4",
            "ticks": 37824,
            "time": 35.818146,
            "velocity": 0.1889763779527559
          },
          {
            "duration": 0.04545449999999818,
            "durationTicks": 48,
            "midi": 78,
            "name": "F#5",
            "ticks": 38784,
            "time": 36.727236000000005,
            "velocity": 0.1889763779527559
          },
          {
            "duration": 0.04545449999999818,
            "durationTicks": 48,
            "midi": 75,
            "name": "D#5",
            "ticks": 39168,
            "time": 37.090872000000005,
            "velocity": 0.1889763779527559
          },
          {
            "duration": 0.04545449999999818,
            "durationTicks": 48,
            "midi": 73,
            "name": "C#5",
            "ticks": 39360,
            "time": 37.272690000000004,
            "velocity": 0.1889763779527559
          },
          {
            "duration": 0.04545449999999818,
            "durationTicks": 48,
            "midi": 61,
            "name": "C#4",
            "ticks": 40128,
            "time": 37.999962000000004,
            "velocity": 0.1889763779527559
          },
          {
            "duration": 0.04545449999999818,
            "durationTicks": 48,
            "midi": 66,
            "name": "F#4",
            "ticks": 40320,
            "time": 38.18178,
            "velocity": 0.1889763779527559
          },
          {
            "duration": 0.04545449999999818,
            "durationTicks": 48,
            "midi": 66,
            "name": "F#4",
            "ticks": 40512,
            "time": 38.363598,
            "velocity": 0.1889763779527559
          },
          {
            "duration": 0.04545449999999818,
            "durationTicks": 48,
            "midi": 66,
            "name": "F#4",
            "ticks": 40704,
            "time": 38.545416,
            "velocity": 0.1889763779527559
          },
          {
            "duration": 0.04545449999999818,
            "durationTicks": 48,
            "midi": 66,
            "name": "F#4",
            "ticks": 40896,
            "time": 38.727234,
            "velocity": 0.1889763779527559
          },
          {
            "duration": 0.04545449999999818,
            "durationTicks": 48,
            "midi": 66,
            "name": "F#4",
            "ticks": 41088,
            "time": 38.909052,
            "velocity": 0.1889763779527559
          },
          {
            "duration": 0.04545449999999818,
            "durationTicks": 48,
            "midi": 66,
            "name": "F#4",
            "ticks": 41472,
            "time": 39.272688,
            "velocity": 0.1889763779527559
          },
          {
            "duration": 0.04545449999999818,
            "durationTicks": 48,
            "midi": 68,
            "name": "G#4",
            "ticks": 41856,
            "time": 39.636324,
            "velocity": 0.1889763779527559
          },
          {
            "duration": 0.04545449999999818,
            "durationTicks": 48,
            "midi": 70,
            "name": "A#4",
            "ticks": 42048,
            "time": 39.818142,
            "velocity": 0.1889763779527559
          },
          {
            "duration": 0.04545449999999818,
            "durationTicks": 48,
            "midi": 70,
            "name": "A#4",
            "ticks": 42432,
            "time": 40.181778,
            "velocity": 0.1889763779527559
          },
          {
            "duration": 0.04545449999999818,
            "durationTicks": 48,
            "midi": 61,
            "name": "C#4",
            "ticks": 43200,
            "time": 40.90905,
            "velocity": 0.1889763779527559
          },
          {
            "duration": 0.04545449999999818,
            "durationTicks": 48,
            "midi": 66,
            "name": "F#4",
            "ticks": 43392,
            "time": 41.090868,
            "velocity": 0.1889763779527559
          },
          {
            "duration": 0.04545449999999818,
            "durationTicks": 48,
            "midi": 66,
            "name": "F#4",
            "ticks": 43584,
            "time": 41.272686,
            "velocity": 0.1889763779527559
          },
          {
            "duration": 0.04545449999999818,
            "durationTicks": 48,
            "midi": 66,
            "name": "F#4",
            "ticks": 43776,
            "time": 41.454504,
            "velocity": 0.1889763779527559
          },
          {
            "duration": 0.04545450000000528,
            "durationTicks": 48,
            "midi": 66,
            "name": "F#4",
            "ticks": 43968,
            "time": 41.636322,
            "velocity": 0.1889763779527559
          },
          {
            "duration": 0.04545450000000528,
            "durationTicks": 48,
            "midi": 66,
            "name": "F#4",
            "ticks": 44160,
            "time": 41.81814,
            "velocity": 0.1889763779527559
          },
          {
            "duration": 0.04545450000000528,
            "durationTicks": 48,
            "midi": 66,
            "name": "F#4",
            "ticks": 44544,
            "time": 42.181776,
            "velocity": 0.1889763779527559
          },
          {
            "duration": 0.04545450000000528,
            "durationTicks": 48,
            "midi": 73,
            "name": "C#5",
            "ticks": 44928,
            "time": 42.545412,
            "velocity": 0.1889763779527559
          },
          {
            "duration": 0.04545450000000528,
            "durationTicks": 48,
            "midi": 71,
            "name": "B4",
            "ticks": 45120,
            "time": 42.72723,
            "velocity": 0.1889763779527559
          },
          {
            "duration": 0.04545450000000528,
            "durationTicks": 48,
            "midi": 70,
            "name": "A#4",
            "ticks": 45504,
            "time": 43.090866,
            "velocity": 0.1889763779527559
          },
          {
            "duration": 0.04545449999999818,
            "durationTicks": 48,
            "midi": 65,
            "name": "F4",
            "ticks": 46464,
            "time": 43.999956000000005,
            "velocity": 0.1889763779527559
          },
          {
            "duration": 0.04545449999999818,
            "durationTicks": 48,
            "midi": 68,
            "name": "G#4",
            "ticks": 46848,
            "time": 44.363592000000004,
            "velocity": 0.1889763779527559
          },
          {
            "duration": 0.04545449999999818,
            "durationTicks": 48,
            "midi": 61,
            "name": "C#4",
            "ticks": 47040,
            "time": 44.545410000000004,
            "velocity": 0.1889763779527559
          },
          {
            "duration": 0.04545449999999818,
            "durationTicks": 48,
            "midi": 61,
            "name": "C#4",
            "ticks": 48384,
            "time": 45.818136,
            "velocity": 0.1889763779527559
          },
          {
            "duration": 0.04545449999999818,
            "durationTicks": 48,
            "midi": 61,
            "name": "C#4",
            "ticks": 48576,
            "time": 45.999954,
            "velocity": 0.1889763779527559
          },
          {
            "duration": 0.04545449999999818,
            "durationTicks": 48,
            "midi": 61,
            "name": "C#4",
            "ticks": 48960,
            "time": 46.36359,
            "velocity": 0.1889763779527559
          },
          {
            "duration": 0.04545449999999818,
            "durationTicks": 48,
            "midi": 70,
            "name": "A#4",
            "ticks": 49152,
            "time": 46.545408,
            "velocity": 0.1889763779527559
          },
          {
            "duration": 0.04545449999999818,
            "durationTicks": 48,
            "midi": 68,
            "name": "G#4",
            "ticks": 49344,
            "time": 46.727226,
            "velocity": 0.1889763779527559
          },
          {
            "duration": 0.04545449999999818,
            "durationTicks": 48,
            "midi": 66,
            "name": "F#4",
            "ticks": 49536,
            "time": 46.909044,
            "velocity": 0.1889763779527559
          },
          {
            "duration": 0.04545450000000528,
            "durationTicks": 48,
            "midi": 66,
            "name": "F#4",
            "ticks": 51264,
            "time": 48.545406,
            "velocity": 0.1889763779527559
          },
          {
            "duration": 0.04545450000000528,
            "durationTicks": 48,
            "midi": 61,
            "name": "C#4",
            "ticks": 51264,
            "time": 48.545406,
            "velocity": 0.1889763779527559
          },
          {
            "duration": 0.04545450000000528,
            "durationTicks": 48,
            "midi": 68,
            "name": "G#4",
            "ticks": 51456,
            "time": 48.727224,
            "velocity": 0.1889763779527559
          },
          {
            "duration": 0.04545450000000528,
            "durationTicks": 48,
            "midi": 63,
            "name": "D#4",
            "ticks": 51456,
            "time": 48.727224,
            "velocity": 0.1889763779527559
          },
          {
            "duration": 0.04545450000000528,
            "durationTicks": 48,
            "midi": 61,
            "name": "C#4",
            "ticks": 51648,
            "time": 48.909042,
            "velocity": 0.1889763779527559
          },
          {
            "duration": 0.04545450000000528,
            "durationTicks": 48,
            "midi": 66,
            "name": "F#4",
            "ticks": 51648,
            "time": 48.909042,
            "velocity": 0.1889763779527559
          },
          {
            "duration": 0.04545450000000528,
            "durationTicks": 48,
            "midi": 70,
            "name": "A#4",
            "ticks": 51840,
            "time": 49.09086,
            "velocity": 0.1889763779527559
          },
          {
            "duration": 0.04545450000000528,
            "durationTicks": 48,
            "midi": 66,
            "name": "F#4",
            "ticks": 51840,
            "time": 49.09086,
            "velocity": 0.1889763779527559
          },
          {
            "duration": 0.04545450000000528,
            "durationTicks": 48,
            "midi": 68,
            "name": "G#4",
            "ticks": 52224,
            "time": 49.454496,
            "velocity": 0.1889763779527559
          },
          {
            "duration": 0.04545450000000528,
            "durationTicks": 48,
            "midi": 63,
            "name": "D#4",
            "ticks": 52224,
            "time": 49.454496,
            "velocity": 0.1889763779527559
          },
          {
            "duration": 0.04545450000000528,
            "durationTicks": 48,
            "midi": 66,
            "name": "F#4",
            "ticks": 52416,
            "time": 49.636314,
            "velocity": 0.1889763779527559
          },
          {
            "duration": 0.04545450000000528,
            "durationTicks": 48,
            "midi": 61,
            "name": "C#4",
            "ticks": 52416,
            "time": 49.636314,
            "velocity": 0.1889763779527559
          },
          {
            "duration": 0.04545450000000528,
            "durationTicks": 48,
            "midi": 61,
            "name": "C#4",
            "ticks": 52608,
            "time": 49.818132,
            "velocity": 0.1889763779527559
          },
          {
            "duration": 0.04545449999999818,
            "durationTicks": 48,
            "midi": 70,
            "name": "A#4",
            "ticks": 52992,
            "time": 50.181768000000005,
            "velocity": 0.1889763779527559
          },
          {
            "duration": 0.04545449999999818,
            "durationTicks": 48,
            "midi": 68,
            "name": "G#4",
            "ticks": 53184,
            "time": 50.363586000000005,
            "velocity": 0.1889763779527559
          },
          {
            "duration": 0.04545449999999818,
            "durationTicks": 48,
            "midi": 66,
            "name": "F#4",
            "ticks": 53376,
            "time": 50.545404000000005,
            "velocity": 0.1889763779527559
          },
          {
            "duration": 0.04545449999999818,
            "durationTicks": 48,
            "midi": 68,
            "name": "G#4",
            "ticks": 53952,
            "time": 51.090858000000004,
            "velocity": 0.1889763779527559
          },
          {
            "duration": 0.04545449999999818,
            "durationTicks": 48,
            "midi": 66,
            "name": "F#4",
            "ticks": 54336,
            "time": 51.454494000000004,
            "velocity": 0.1889763779527559
          },
          {
            "duration": 0.04545449999999818,
            "durationTicks": 48,
            "midi": 68,
            "name": "G#4",
            "ticks": 54528,
            "time": 51.636312000000004,
            "velocity": 0.1889763779527559
          },
          {
            "duration": 0.04545449999999818,
            "durationTicks": 48,
            "midi": 66,
            "name": "F#4",
            "ticks": 54720,
            "time": 51.818130000000004,
            "velocity": 0.1889763779527559
          },
          {
            "duration": 0.04545449999999818,
            "durationTicks": 48,
            "midi": 68,
            "name": "G#4",
            "ticks": 54912,
            "time": 51.999948,
            "velocity": 0.1889763779527559
          },
          {
            "duration": 0.04545449999999818,
            "durationTicks": 48,
            "midi": 70,
            "name": "A#4",
            "ticks": 55296,
            "time": 52.363584,
            "velocity": 0.1889763779527559
          },
          {
            "duration": 0.04545449999999818,
            "durationTicks": 48,
            "midi": 63,
            "name": "D#4",
            "ticks": 55680,
            "time": 52.72722,
            "velocity": 0.1889763779527559
          },
          {
            "duration": 0.04545449999999818,
            "durationTicks": 48,
            "midi": 70,
            "name": "A#4",
            "ticks": 56064,
            "time": 53.090856,
            "velocity": 0.1889763779527559
          },
          {
            "duration": 0.04545449999999818,
            "durationTicks": 48,
            "midi": 68,
            "name": "G#4",
            "ticks": 56256,
            "time": 53.272674,
            "velocity": 0.1889763779527559
          },
          {
            "duration": 0.04545449999999818,
            "durationTicks": 48,
            "midi": 66,
            "name": "F#4",
            "ticks": 56448,
            "time": 53.454492,
            "velocity": 0.1889763779527559
          },
          {
            "duration": 0.04545449999999818,
            "durationTicks": 48,
            "midi": 66,
            "name": "F#4",
            "ticks": 56832,
            "time": 53.818128,
            "velocity": 0.1889763779527559
          },
          {
            "duration": 0.04545449999999818,
            "durationTicks": 48,
            "midi": 68,
            "name": "G#4",
            "ticks": 57024,
            "time": 53.999946,
            "velocity": 0.1889763779527559
          },
          {
            "duration": 0.04545449999999818,
            "durationTicks": 48,
            "midi": 66,
            "name": "F#4",
            "ticks": 57408,
            "time": 54.363582,
            "velocity": 0.1889763779527559
          },
          {
            "duration": 0.04545449999999818,
            "durationTicks": 48,
            "midi": 68,
            "name": "G#4",
            "ticks": 57600,
            "time": 54.5454,
            "velocity": 0.1889763779527559
          },
          {
            "duration": 0.04545449999999818,
            "durationTicks": 48,
            "midi": 70,
            "name": "A#4",
            "ticks": 57792,
            "time": 54.727218,
            "velocity": 0.1889763779527559
          },
          {
            "duration": 0.04545450000000528,
            "durationTicks": 48,
            "midi": 68,
            "name": "G#4",
            "ticks": 57984,
            "time": 54.909036,
            "velocity": 0.1889763779527559
          },
          {
            "duration": 0.04545450000000528,
            "durationTicks": 48,
            "midi": 66,
            "name": "F#4",
            "ticks": 58368,
            "time": 55.272672,
            "velocity": 0.1889763779527559
          },
          {
            "duration": 0.04545450000000528,
            "durationTicks": 48,
            "midi": 61,
            "name": "C#4",
            "ticks": 58752,
            "time": 55.636308,
            "velocity": 0.1889763779527559
          },
          {
            "duration": 0.04545450000000528,
            "durationTicks": 48,
            "midi": 70,
            "name": "A#4",
            "ticks": 59136,
            "time": 55.999944,
            "velocity": 0.1889763779527559
          },
          {
            "duration": 0.04545450000000528,
            "durationTicks": 48,
            "midi": 68,
            "name": "G#4",
            "ticks": 59328,
            "time": 56.181762,
            "velocity": 0.1889763779527559
          },
          {
            "duration": 0.04545450000000528,
            "durationTicks": 48,
            "midi": 66,
            "name": "F#4",
            "ticks": 59520,
            "time": 56.36358,
            "velocity": 0.1889763779527559
          },
          {
            "duration": 0.04545449999999818,
            "durationTicks": 48,
            "midi": 68,
            "name": "G#4",
            "ticks": 60096,
            "time": 56.909034000000005,
            "velocity": 0.1889763779527559
          },
          {
            "duration": 0.04545449999999818,
            "durationTicks": 48,
            "midi": 66,
            "name": "F#4",
            "ticks": 60480,
            "time": 57.272670000000005,
            "velocity": 0.1889763779527559
          },
          {
            "duration": 0.04545449999999818,
            "durationTicks": 48,
            "midi": 68,
            "name": "G#4",
            "ticks": 60672,
            "time": 57.454488000000005,
            "velocity": 0.1889763779527559
          },
          {
            "duration": 0.04545449999999818,
            "durationTicks": 48,
            "midi": 68,
            "name": "G#4",
            "ticks": 61056,
            "time": 57.818124000000005,
            "velocity": 0.1889763779527559
          },
          {
            "duration": 0.04545449999999818,
            "durationTicks": 48,
            "midi": 70,
            "name": "A#4",
            "ticks": 61440,
            "time": 58.181760000000004,
            "velocity": 0.1889763779527559
          },
          {
            "duration": 0.04545449999999818,
            "durationTicks": 48,
            "midi": 73,
            "name": "C#5",
            "ticks": 61824,
            "time": 58.545396000000004,
            "velocity": 0.1889763779527559
          },
          {
            "duration": 0.04545449999999818,
            "durationTicks": 48,
            "midi": 71,
            "name": "B4",
            "ticks": 62208,
            "time": 58.909032,
            "velocity": 0.1889763779527559
          },
          {
            "duration": 0.04545449999999818,
            "durationTicks": 48,
            "midi": 70,
            "name": "A#4",
            "ticks": 62400,
            "time": 59.09085,
            "velocity": 0.1889763779527559
          },
          {
            "duration": 0.04545449999999818,
            "durationTicks": 48,
            "midi": 66,
            "name": "F#4",
            "ticks": 62592,
            "time": 59.272668,
            "velocity": 0.1889763779527559
          },
          {
            "duration": 0.04545449999999818,
            "durationTicks": 48,
            "midi": 66,
            "name": "F#4",
            "ticks": 62976,
            "time": 59.636304,
            "velocity": 0.1889763779527559
          },
          {
            "duration": 0.04545449999999818,
            "durationTicks": 48,
            "midi": 68,
            "name": "G#4",
            "ticks": 63168,
            "time": 59.818122,
            "velocity": 0.1889763779527559
          },
          {
            "duration": 0.04545449999999818,
            "durationTicks": 48,
            "midi": 68,
            "name": "G#4",
            "ticks": 63552,
            "time": 60.181758,
            "velocity": 0.1889763779527559
          },
          {
            "duration": 0.04545449999999818,
            "durationTicks": 48,
            "midi": 70,
            "name": "A#4",
            "ticks": 63744,
            "time": 60.363576,
            "velocity": 0.1889763779527559
          },
          {
            "duration": 0.04545449999999818,
            "durationTicks": 48,
            "midi": 68,
            "name": "G#4",
            "ticks": 64128,
            "time": 60.727212,
            "velocity": 0.1889763779527559
          },
          {
            "duration": 0.04545449999999818,
            "durationTicks": 48,
            "midi": 66,
            "name": "F#4",
            "ticks": 64512,
            "time": 61.090848,
            "velocity": 0.1889763779527559
          },
          {
            "duration": 0.04545449999999818,
            "durationTicks": 48,
            "midi": 68,
            "name": "G#4",
            "ticks": 64896,
            "time": 61.454484,
            "velocity": 0.1889763779527559
          },
          {
            "duration": 0.04545450000000528,
            "durationTicks": 48,
            "midi": 68,
            "name": "G#4",
            "ticks": 65280,
            "time": 61.81812,
            "velocity": 0.1889763779527559
          },
          {
            "duration": 0.04545450000000528,
            "durationTicks": 48,
            "midi": 68,
            "name": "G#4",
            "ticks": 65664,
            "time": 62.181756,
            "velocity": 0.1889763779527559
          },
          {
            "duration": 0.04545450000000528,
            "durationTicks": 48,
            "midi": 70,
            "name": "A#4",
            "ticks": 65856,
            "time": 62.363574,
            "velocity": 0.1889763779527559
          },
          {
            "duration": 0.04545450000000528,
            "durationTicks": 48,
            "midi": 61,
            "name": "C#4",
            "ticks": 66048,
            "time": 62.545392,
            "velocity": 0.1889763779527559
          },
          {
            "duration": 0.04545450000000528,
            "durationTicks": 48,
            "midi": 61,
            "name": "C#4",
            "ticks": 66240,
            "time": 62.72721,
            "velocity": 0.1889763779527559
          },
          {
            "duration": 0.04545450000000528,
            "durationTicks": 48,
            "midi": 73,
            "name": "C#5",
            "ticks": 66624,
            "time": 63.090846,
            "velocity": 0.1889763779527559
          },
          {
            "duration": 0.04545449999999818,
            "durationTicks": 48,
            "midi": 73,
            "name": "C#5",
            "ticks": 67008,
            "time": 63.454482000000006,
            "velocity": 0.1889763779527559
          },
          {
            "duration": 0.04545449999999818,
            "durationTicks": 48,
            "midi": 73,
            "name": "C#5",
            "ticks": 67392,
            "time": 63.818118000000005,
            "velocity": 0.1889763779527559
          },
          {
            "duration": 0.04545449999999107,
            "durationTicks": 48,
            "midi": 73,
            "name": "C#5",
            "ticks": 67584,
            "time": 63.999936000000005,
            "velocity": 0.1889763779527559
          },
          {
            "duration": 0.04545449999999107,
            "durationTicks": 48,
            "midi": 68,
            "name": "G#4",
            "ticks": 67968,
            "time": 64.363572,
            "velocity": 0.1889763779527559
          },
          {
            "duration": 0.04545449999999107,
            "durationTicks": 48,
            "midi": 68,
            "name": "G#4",
            "ticks": 68352,
            "time": 64.727208,
            "velocity": 0.1889763779527559
          },
          {
            "duration": 0.04545450000000528,
            "durationTicks": 48,
            "midi": 68,
            "name": "G#4",
            "ticks": 68736,
            "time": 65.090844,
            "velocity": 0.1889763779527559
          },
          {
            "duration": 0.04545450000000528,
            "durationTicks": 48,
            "midi": 70,
            "name": "A#4",
            "ticks": 68928,
            "time": 65.272662,
            "velocity": 0.1889763779527559
          },
          {
            "duration": 0.04545450000000528,
            "durationTicks": 48,
            "midi": 61,
            "name": "C#4",
            "ticks": 69120,
            "time": 65.45448,
            "velocity": 0.1889763779527559
          },
          {
            "duration": 0.04545450000000528,
            "durationTicks": 48,
            "midi": 61,
            "name": "C#4",
            "ticks": 69312,
            "time": 65.636298,
            "velocity": 0.1889763779527559
          },
          {
            "duration": 0.04545450000000528,
            "durationTicks": 48,
            "midi": 63,
            "name": "D#4",
            "ticks": 69696,
            "time": 65.999934,
            "velocity": 0.1889763779527559
          },
          {
            "duration": 0.04545450000000528,
            "durationTicks": 48,
            "midi": 61,
            "name": "C#4",
            "ticks": 69888,
            "time": 66.181752,
            "velocity": 0.1889763779527559
          },
          {
            "duration": 0.04545450000000528,
            "durationTicks": 48,
            "midi": 70,
            "name": "A#4",
            "ticks": 71040,
            "time": 67.27266,
            "velocity": 0.1889763779527559
          },
          {
            "duration": 0.04545450000000528,
            "durationTicks": 48,
            "midi": 70,
            "name": "A#4",
            "ticks": 71424,
            "time": 67.636296,
            "velocity": 0.1889763779527559
          },
          {
            "duration": 0.04545450000000528,
            "durationTicks": 48,
            "midi": 70,
            "name": "A#4",
            "ticks": 71808,
            "time": 67.999932,
            "velocity": 0.1889763779527559
          },
          {
            "duration": 0.04545449999999107,
            "durationTicks": 48,
            "midi": 73,
            "name": "C#5",
            "ticks": 72000,
            "time": 68.18175000000001,
            "velocity": 0.1889763779527559
          },
          {
            "duration": 0.04545450000000528,
            "durationTicks": 48,
            "midi": 70,
            "name": "A#4",
            "ticks": 72192,
            "time": 68.363568,
            "velocity": 0.1889763779527559
          },
          {
            "duration": 0.04545449999999107,
            "durationTicks": 48,
            "midi": 68,
            "name": "G#4",
            "ticks": 72384,
            "time": 68.54538600000001,
            "velocity": 0.1889763779527559
          },
          {
            "duration": 0.04545449999999107,
            "durationTicks": 48,
            "midi": 85,
            "name": "C#6",
            "ticks": 72768,
            "time": 68.90902200000001,
            "velocity": 0.1889763779527559
          },
          {
            "duration": 0.04545449999999107,
            "durationTicks": 48,
            "midi": 85,
            "name": "C#6",
            "ticks": 73152,
            "time": 69.272658,
            "velocity": 0.1889763779527559
          },
          {
            "duration": 0.04545449999999107,
            "durationTicks": 48,
            "midi": 85,
            "name": "C#6",
            "ticks": 73536,
            "time": 69.636294,
            "velocity": 0.1889763779527559
          },
          {
            "duration": 0.04545450000000528,
            "durationTicks": 48,
            "midi": 85,
            "name": "C#6",
            "ticks": 73728,
            "time": 69.818112,
            "velocity": 0.1889763779527559
          },
          {
            "duration": 0.04545450000000528,
            "durationTicks": 48,
            "midi": 68,
            "name": "G#4",
            "ticks": 74112,
            "time": 70.181748,
            "velocity": 0.1889763779527559
          },
          {
            "duration": 0.04545450000000528,
            "durationTicks": 48,
            "midi": 68,
            "name": "G#4",
            "ticks": 74496,
            "time": 70.545384,
            "velocity": 0.1889763779527559
          },
          {
            "duration": 0.04545450000000528,
            "durationTicks": 48,
            "midi": 68,
            "name": "G#4",
            "ticks": 74880,
            "time": 70.90902,
            "velocity": 0.1889763779527559
          },
          {
            "duration": 0.04545449999999107,
            "durationTicks": 48,
            "midi": 70,
            "name": "A#4",
            "ticks": 75072,
            "time": 71.090838,
            "velocity": 0.1889763779527559
          },
          {
            "duration": 0.04545450000000528,
            "durationTicks": 48,
            "midi": 61,
            "name": "C#4",
            "ticks": 75264,
            "time": 71.272656,
            "velocity": 0.1889763779527559
          },
          {
            "duration": 0.04545450000000528,
            "durationTicks": 48,
            "midi": 61,
            "name": "C#4",
            "ticks": 75456,
            "time": 71.454474,
            "velocity": 0.1889763779527559
          },
          {
            "duration": 0.04545450000000528,
            "durationTicks": 48,
            "midi": 63,
            "name": "D#4",
            "ticks": 75840,
            "time": 71.81811,
            "velocity": 0.1889763779527559
          },
          {
            "duration": 0.04545450000000528,
            "durationTicks": 48,
            "midi": 61,
            "name": "C#4",
            "ticks": 76032,
            "time": 71.999928,
            "velocity": 0.1889763779527559
          },
          {
            "duration": 0.04545450000000528,
            "durationTicks": 48,
            "midi": 73,
            "name": "C#5",
            "ticks": 76992,
            "time": 72.909018,
            "velocity": 0.1889763779527559
          },
          {
            "duration": 0.04545450000000528,
            "durationTicks": 48,
            "midi": 78,
            "name": "F#5",
            "ticks": 77184,
            "time": 73.090836,
            "velocity": 0.1889763779527559
          },
          {
            "duration": 0.04545450000000528,
            "durationTicks": 48,
            "midi": 78,
            "name": "F#5",
            "ticks": 77376,
            "time": 73.272654,
            "velocity": 0.1889763779527559
          },
          {
            "duration": 0.04545449999999107,
            "durationTicks": 48,
            "midi": 78,
            "name": "F#5",
            "ticks": 77568,
            "time": 73.45447200000001,
            "velocity": 0.1889763779527559
          },
          {
            "duration": 0.04545450000000528,
            "durationTicks": 48,
            "midi": 78,
            "name": "F#5",
            "ticks": 77760,
            "time": 73.63629,
            "velocity": 0.1889763779527559
          },
          {
            "duration": 0.04545449999999107,
            "durationTicks": 48,
            "midi": 78,
            "name": "F#5",
            "ticks": 77952,
            "time": 73.81810800000001,
            "velocity": 0.1889763779527559
          },
          {
            "duration": 0.04545449999999107,
            "durationTicks": 48,
            "midi": 78,
            "name": "F#5",
            "ticks": 78336,
            "time": 74.18174400000001,
            "velocity": 0.1889763779527559
          },
          {
            "duration": 0.04545450000000528,
            "durationTicks": 48,
            "midi": 78,
            "name": "F#5",
            "ticks": 78528,
            "time": 74.363562,
            "velocity": 0.1889763779527559
          },
          {
            "duration": 0.04545449999999107,
            "durationTicks": 48,
            "midi": 80,
            "name": "G#5",
            "ticks": 78720,
            "time": 74.54538000000001,
            "velocity": 0.1889763779527559
          },
          {
            "duration": 0.04545450000000528,
            "durationTicks": 48,
            "midi": 82,
            "name": "A#5",
            "ticks": 78912,
            "time": 74.727198,
            "velocity": 0.1889763779527559
          },
          {
            "duration": 0.04545450000000528,
            "durationTicks": 48,
            "midi": 82,
            "name": "A#5",
            "ticks": 79296,
            "time": 75.090834,
            "velocity": 0.1889763779527559
          },
          {
            "duration": 0.04545449999999107,
            "durationTicks": 48,
            "midi": 85,
            "name": "C#6",
            "ticks": 80256,
            "time": 75.99992400000001,
            "velocity": 0.1889763779527559
          },
          {
            "duration": 0.04545450000000528,
            "durationTicks": 48,
            "midi": 78,
            "name": "F#5",
            "ticks": 80448,
            "time": 76.181742,
            "velocity": 0.1889763779527559
          },
          {
            "duration": 0.04545449999999107,
            "durationTicks": 48,
            "midi": 78,
            "name": "F#5",
            "ticks": 80640,
            "time": 76.36356,
            "velocity": 0.1889763779527559
          },
          {
            "duration": 0.04545450000000528,
            "durationTicks": 48,
            "midi": 78,
            "name": "F#5",
            "ticks": 80832,
            "time": 76.545378,
            "velocity": 0.1889763779527559
          },
          {
            "duration": 0.04545449999999107,
            "durationTicks": 48,
            "midi": 78,
            "name": "F#5",
            "ticks": 81024,
            "time": 76.727196,
            "velocity": 0.1889763779527559
          },
          {
            "duration": 0.04545449999999107,
            "durationTicks": 48,
            "midi": 78,
            "name": "F#5",
            "ticks": 81408,
            "time": 77.090832,
            "velocity": 0.1889763779527559
          },
          {
            "duration": 0.04545449999999107,
            "durationTicks": 48,
            "midi": 82,
            "name": "A#5",
            "ticks": 81792,
            "time": 77.454468,
            "velocity": 0.1889763779527559
          },
          {
            "duration": 0.04545450000000528,
            "durationTicks": 48,
            "midi": 80,
            "name": "G#5",
            "ticks": 81984,
            "time": 77.636286,
            "velocity": 0.1889763779527559
          },
          {
            "duration": 0.04545450000000528,
            "durationTicks": 48,
            "midi": 78,
            "name": "F#5",
            "ticks": 82368,
            "time": 77.999922,
            "velocity": 0.1889763779527559
          },
          {
            "duration": 0.04545450000000528,
            "durationTicks": 48,
            "midi": 77,
            "name": "F5",
            "ticks": 83328,
            "time": 78.909012,
            "velocity": 0.1889763779527559
          },
          {
            "duration": 0.04545450000000528,
            "durationTicks": 48,
            "midi": 75,
            "name": "D#5",
            "ticks": 83712,
            "time": 79.272648,
            "velocity": 0.1889763779527559
          },
          {
            "duration": 0.04545450000000528,
            "durationTicks": 48,
            "midi": 73,
            "name": "C#5",
            "ticks": 83904,
            "time": 79.454466,
            "velocity": 0.1889763779527559
          },
          {
            "duration": 0.04545449999999107,
            "durationTicks": 48,
            "midi": 73,
            "name": "C#5",
            "ticks": 84672,
            "time": 80.18173800000001,
            "velocity": 0.1889763779527559
          },
          {
            "duration": 0.04545450000000528,
            "durationTicks": 48,
            "midi": 73,
            "name": "C#5",
            "ticks": 84864,
            "time": 80.363556,
            "velocity": 0.1889763779527559
          },
          {
            "duration": 0.04545449999999107,
            "durationTicks": 48,
            "midi": 73,
            "name": "C#5",
            "ticks": 85056,
            "time": 80.54537400000001,
            "velocity": 0.1889763779527559
          },
          {
            "duration": 0.04545449999999107,
            "durationTicks": 48,
            "midi": 73,
            "name": "C#5",
            "ticks": 85440,
            "time": 80.90901000000001,
            "velocity": 0.1889763779527559
          },
          {
            "duration": 0.04545450000000528,
            "durationTicks": 48,
            "midi": 75,
            "name": "D#5",
            "ticks": 85632,
            "time": 81.090828,
            "velocity": 0.1889763779527559
          },
          {
            "duration": 0.04545449999999107,
            "durationTicks": 48,
            "midi": 77,
            "name": "F5",
            "ticks": 85824,
            "time": 81.27264600000001,
            "velocity": 0.1889763779527559
          },
          {
            "duration": 0.04545450000000528,
            "durationTicks": 48,
            "midi": 78,
            "name": "F#5",
            "ticks": 86016,
            "time": 81.454464,
            "velocity": 0.1889763779527559
          },
          {
            "duration": 0.04545450000000528,
            "durationTicks": 48,
            "midi": 75,
            "name": "D#5",
            "ticks": 86400,
            "time": 81.8181,
            "velocity": 0.1889763779527559
          },
          {
            "duration": 0.04545449999999107,
            "durationTicks": 48,
            "midi": 73,
            "name": "C#5",
            "ticks": 86592,
            "time": 81.99991800000001,
            "velocity": 0.1889763779527559
          },
          {
            "duration": 0.04545449999999107,
            "durationTicks": 48,
            "midi": 73,
            "name": "C#5",
            "ticks": 87744,
            "time": 83.090826,
            "velocity": 0.1889763779527559
          },
          {
            "duration": 0.04545450000000528,
            "durationTicks": 48,
            "midi": 75,
            "name": "D#5",
            "ticks": 87936,
            "time": 83.272644,
            "velocity": 0.1889763779527559
          },
          {
            "duration": 0.04545449999999107,
            "durationTicks": 48,
            "midi": 73,
            "name": "C#5",
            "ticks": 88128,
            "time": 83.454462,
            "velocity": 0.1889763779527559
          },
          {
            "duration": 0.04545450000000528,
            "durationTicks": 48,
            "midi": 78,
            "name": "F#5",
            "ticks": 88320,
            "time": 83.63628,
            "velocity": 0.1889763779527559
          },
          {
            "duration": 0.04545450000000528,
            "durationTicks": 48,
            "midi": 75,
            "name": "D#5",
            "ticks": 88704,
            "time": 83.999916,
            "velocity": 0.1889763779527559
          },
          {
            "duration": 0.04545449999999107,
            "durationTicks": 48,
            "midi": 73,
            "name": "C#5",
            "ticks": 88896,
            "time": 84.181734,
            "velocity": 0.1889763779527559
          },
          {
            "duration": 0.04545450000000528,
            "durationTicks": 48,
            "midi": 66,
            "name": "F#4",
            "ticks": 89088,
            "time": 84.363552,
            "velocity": 0.1889763779527559
          },
          {
            "duration": 0.04545449999999107,
            "durationTicks": 48,
            "midi": 66,
            "name": "F#4",
            "ticks": 89280,
            "time": 84.54537,
            "velocity": 0.1889763779527559
          },
          {
            "duration": 0.04545450000000528,
            "durationTicks": 48,
            "midi": 66,
            "name": "F#4",
            "ticks": 89472,
            "time": 84.727188,
            "velocity": 0.1889763779527559
          },
          {
            "duration": 0.04545450000000528,
            "durationTicks": 48,
            "midi": 66,
            "name": "F#4",
            "ticks": 89664,
            "time": 84.909006,
            "velocity": 0.1889763779527559
          },
          {
            "duration": 0.04545450000000528,
            "durationTicks": 48,
            "midi": 66,
            "name": "F#4",
            "ticks": 89856,
            "time": 85.090824,
            "velocity": 0.1889763779527559
          },
          {
            "duration": 0.04545450000000528,
            "durationTicks": 48,
            "midi": 66,
            "name": "F#4",
            "ticks": 90240,
            "time": 85.45446,
            "velocity": 0.1889763779527559
          },
          {
            "duration": 0.04545450000000528,
            "durationTicks": 48,
            "midi": 68,
            "name": "G#4",
            "ticks": 90624,
            "time": 85.818096,
            "velocity": 0.1889763779527559
          },
          {
            "duration": 0.04545450000000528,
            "durationTicks": 48,
            "midi": 70,
            "name": "A#4",
            "ticks": 90816,
            "time": 85.999914,
            "velocity": 0.1889763779527559
          },
          {
            "duration": 0.04545450000000528,
            "durationTicks": 48,
            "midi": 70,
            "name": "A#4",
            "ticks": 91200,
            "time": 86.36355,
            "velocity": 0.1889763779527559
          },
          {
            "duration": 0.04545450000000528,
            "durationTicks": 48,
            "midi": 61,
            "name": "C#4",
            "ticks": 91968,
            "time": 87.090822,
            "velocity": 0.1889763779527559
          },
          {
            "duration": 0.04545449999999107,
            "durationTicks": 48,
            "midi": 66,
            "name": "F#4",
            "ticks": 92160,
            "time": 87.27264000000001,
            "velocity": 0.1889763779527559
          },
          {
            "duration": 0.04545450000000528,
            "durationTicks": 48,
            "midi": 66,
            "name": "F#4",
            "ticks": 92352,
            "time": 87.454458,
            "velocity": 0.1889763779527559
          },
          {
            "duration": 0.04545449999999107,
            "durationTicks": 48,
            "midi": 66,
            "name": "F#4",
            "ticks": 92544,
            "time": 87.63627600000001,
            "velocity": 0.1889763779527559
          },
          {
            "duration": 0.04545450000000528,
            "durationTicks": 48,
            "midi": 66,
            "name": "F#4",
            "ticks": 92736,
            "time": 87.818094,
            "velocity": 0.1889763779527559
          },
          {
            "duration": 0.04545449999999107,
            "durationTicks": 48,
            "midi": 66,
            "name": "F#4",
            "ticks": 92928,
            "time": 87.99991200000001,
            "velocity": 0.1889763779527559
          },
          {
            "duration": 0.04545449999999107,
            "durationTicks": 48,
            "midi": 66,
            "name": "F#4",
            "ticks": 93312,
            "time": 88.36354800000001,
            "velocity": 0.1889763779527559
          },
          {
            "duration": 0.04545449999999107,
            "durationTicks": 48,
            "midi": 73,
            "name": "C#5",
            "ticks": 93696,
            "time": 88.72718400000001,
            "velocity": 0.1889763779527559
          },
          {
            "duration": 0.04545450000000528,
            "durationTicks": 48,
            "midi": 71,
            "name": "B4",
            "ticks": 93888,
            "time": 88.909002,
            "velocity": 0.1889763779527559
          },
          {
            "duration": 0.04545450000000528,
            "durationTicks": 48,
            "midi": 70,
            "name": "A#4",
            "ticks": 94272,
            "time": 89.272638,
            "velocity": 0.1889763779527559
          },
          {
            "duration": 0.04545449999999107,
            "durationTicks": 48,
            "midi": 65,
            "name": "F4",
            "ticks": 95232,
            "time": 90.181728,
            "velocity": 0.1889763779527559
          },
          {
            "duration": 0.04545449999999107,
            "durationTicks": 48,
            "midi": 68,
            "name": "G#4",
            "ticks": 95616,
            "time": 90.545364,
            "velocity": 0.1889763779527559
          },
          {
            "duration": 0.04545450000000528,
            "durationTicks": 48,
            "midi": 61,
            "name": "C#4",
            "ticks": 95808,
            "time": 90.727182,
            "velocity": 0.1889763779527559
          },
          {
            "duration": 0.04545450000000528,
            "durationTicks": 48,
            "midi": 61,
            "name": "C#4",
            "ticks": 97152,
            "time": 91.999908,
            "velocity": 0.1889763779527559
          },
          {
            "duration": 0.04545450000000528,
            "durationTicks": 48,
            "midi": 61,
            "name": "C#4",
            "ticks": 97344,
            "time": 92.181726,
            "velocity": 0.1889763779527559
          },
          {
            "duration": 0.04545450000000528,
            "durationTicks": 48,
            "midi": 61,
            "name": "C#4",
            "ticks": 97728,
            "time": 92.545362,
            "velocity": 0.1889763779527559
          },
          {
            "duration": 0.04545450000000528,
            "durationTicks": 48,
            "midi": 70,
            "name": "A#4",
            "ticks": 97920,
            "time": 92.72718,
            "velocity": 0.1889763779527559
          },
          {
            "duration": 0.04545450000000528,
            "durationTicks": 48,
            "midi": 68,
            "name": "G#4",
            "ticks": 98112,
            "time": 92.908998,
            "velocity": 0.1889763779527559
          },
          {
            "duration": 0.04545450000000528,
            "durationTicks": 48,
            "midi": 66,
            "name": "F#4",
            "ticks": 98304,
            "time": 93.090816,
            "velocity": 0.1889763779527559
          },
          {
            "duration": 0.04545450000000528,
            "durationTicks": 48,
            "midi": 82,
            "name": "A#5",
            "ticks": 100224,
            "time": 94.908996,
            "velocity": 0.1889763779527559
          },
          {
            "duration": 0.04545450000000528,
            "durationTicks": 48,
            "midi": 70,
            "name": "A#4",
            "ticks": 100224,
            "time": 94.908996,
            "velocity": 0.1889763779527559
          },
          {
            "duration": 0.04545450000000528,
            "durationTicks": 48,
            "midi": 82,
            "name": "A#5",
            "ticks": 100608,
            "time": 95.272632,
            "velocity": 0.1889763779527559
          },
          {
            "duration": 0.04545450000000528,
            "durationTicks": 48,
            "midi": 70,
            "name": "A#4",
            "ticks": 100608,
            "time": 95.272632,
            "velocity": 0.1889763779527559
          },
          {
            "duration": 0.04545450000000528,
            "durationTicks": 48,
            "midi": 68,
            "name": "G#4",
            "ticks": 100992,
            "time": 95.636268,
            "velocity": 0.1889763779527559
          },
          {
            "duration": 0.04545450000000528,
            "durationTicks": 48,
            "midi": 80,
            "name": "G#5",
            "ticks": 100992,
            "time": 95.636268,
            "velocity": 0.1889763779527559
          },
          {
            "duration": 0.04545450000000528,
            "durationTicks": 48,
            "midi": 58,
            "name": "A#3",
            "ticks": 101376,
            "time": 95.999904,
            "velocity": 0.1889763779527559
          },
          {
            "duration": 0.04545450000000528,
            "durationTicks": 48,
            "midi": 61,
            "name": "C#4",
            "ticks": 101376,
            "time": 95.999904,
            "velocity": 0.1889763779527559
          },
          {
            "duration": 0.04545450000000528,
            "durationTicks": 48,
            "midi": 66,
            "name": "F#4",
            "ticks": 101760,
            "time": 96.36354,
            "velocity": 0.1889763779527559
          },
          {
            "duration": 0.04545450000000528,
            "durationTicks": 48,
            "midi": 70,
            "name": "A#4",
            "ticks": 101760,
            "time": 96.36354,
            "velocity": 0.1889763779527559
          },
          {
            "duration": 0.04545449999999107,
            "durationTicks": 48,
            "midi": 68,
            "name": "G#4",
            "ticks": 101952,
            "time": 96.54535800000001,
            "velocity": 0.1889763779527559
          },
          {
            "duration": 0.04545450000000528,
            "durationTicks": 48,
            "midi": 66,
            "name": "F#4",
            "ticks": 102144,
            "time": 96.727176,
            "velocity": 0.1889763779527559
          },
          {
            "duration": 0.04545450000000528,
            "durationTicks": 48,
            "midi": 58,
            "name": "A#3",
            "ticks": 102144,
            "time": 96.727176,
            "velocity": 0.1889763779527559
          },
          {
            "duration": 0.04545449999999107,
            "durationTicks": 48,
            "midi": 65,
            "name": "F4",
            "ticks": 102720,
            "time": 97.27263,
            "velocity": 0.1889763779527559
          },
          {
            "duration": 0.04545449999999107,
            "durationTicks": 48,
            "midi": 68,
            "name": "G#4",
            "ticks": 102720,
            "time": 97.27263,
            "velocity": 0.1889763779527559
          },
          {
            "duration": 0.04545449999999107,
            "durationTicks": 48,
            "midi": 63,
            "name": "D#4",
            "ticks": 103104,
            "time": 97.636266,
            "velocity": 0.1889763779527559
          },
          {
            "duration": 0.04545449999999107,
            "durationTicks": 48,
            "midi": 66,
            "name": "F#4",
            "ticks": 103104,
            "time": 97.636266,
            "velocity": 0.1889763779527559
          },
          {
            "duration": 0.04545450000000528,
            "durationTicks": 48,
            "midi": 68,
            "name": "G#4",
            "ticks": 103296,
            "time": 97.818084,
            "velocity": 0.1889763779527559
          },
          {
            "duration": 0.04545450000000528,
            "durationTicks": 48,
            "midi": 65,
            "name": "F4",
            "ticks": 103296,
            "time": 97.818084,
            "velocity": 0.1889763779527559
          },
          {
            "duration": 0.04545449999999107,
            "durationTicks": 48,
            "midi": 63,
            "name": "D#4",
            "ticks": 103488,
            "time": 97.999902,
            "velocity": 0.1889763779527559
          },
          {
            "duration": 0.04545449999999107,
            "durationTicks": 48,
            "midi": 66,
            "name": "F#4",
            "ticks": 103488,
            "time": 97.999902,
            "velocity": 0.1889763779527559
          },
          {
            "duration": 0.04545450000000528,
            "durationTicks": 48,
            "midi": 65,
            "name": "F4",
            "ticks": 103680,
            "time": 98.18172,
            "velocity": 0.1889763779527559
          },
          {
            "duration": 0.04545450000000528,
            "durationTicks": 48,
            "midi": 68,
            "name": "G#4",
            "ticks": 103680,
            "time": 98.18172,
            "velocity": 0.1889763779527559
          },
          {
            "duration": 0.04545450000000528,
            "durationTicks": 48,
            "midi": 66,
            "name": "F#4",
            "ticks": 104064,
            "time": 98.545356,
            "velocity": 0.1889763779527559
          },
          {
            "duration": 0.04545450000000528,
            "durationTicks": 48,
            "midi": 70,
            "name": "A#4",
            "ticks": 104064,
            "time": 98.545356,
            "velocity": 0.1889763779527559
          },
          {
            "duration": 0.04545450000000528,
            "durationTicks": 48,
            "midi": 54,
            "name": "F#3",
            "ticks": 104448,
            "time": 98.908992,
            "velocity": 0.1889763779527559
          },
          {
            "duration": 0.04545450000000528,
            "durationTicks": 48,
            "midi": 63,
            "name": "D#4",
            "ticks": 104448,
            "time": 98.908992,
            "velocity": 0.1889763779527559
          },
          {
            "duration": 0.04545450000000528,
            "durationTicks": 48,
            "midi": 70,
            "name": "A#4",
            "ticks": 104832,
            "time": 99.272628,
            "velocity": 0.1889763779527559
          },
          {
            "duration": 0.04545450000000528,
            "durationTicks": 48,
            "midi": 66,
            "name": "F#4",
            "ticks": 104832,
            "time": 99.272628,
            "velocity": 0.1889763779527559
          },
          {
            "duration": 0.04545450000000528,
            "durationTicks": 48,
            "midi": 68,
            "name": "G#4",
            "ticks": 105024,
            "time": 99.454446,
            "velocity": 0.1889763779527559
          },
          {
            "duration": 0.04545450000000528,
            "durationTicks": 48,
            "midi": 66,
            "name": "F#4",
            "ticks": 105216,
            "time": 99.636264,
            "velocity": 0.1889763779527559
          },
          {
            "duration": 0.04545450000000528,
            "durationTicks": 48,
            "midi": 63,
            "name": "D#4",
            "ticks": 105216,
            "time": 99.636264,
            "velocity": 0.1889763779527559
          },
          {
            "duration": 0.04545449999999107,
            "durationTicks": 48,
            "midi": 66,
            "name": "F#4",
            "ticks": 105600,
            "time": 99.99990000000001,
            "velocity": 0.1889763779527559
          },
          {
            "duration": 0.04545450000000528,
            "durationTicks": 48,
            "midi": 63,
            "name": "D#4",
            "ticks": 105792,
            "time": 100.181718,
            "velocity": 0.1889763779527559
          },
          {
            "duration": 0.04545450000000528,
            "durationTicks": 48,
            "midi": 68,
            "name": "G#4",
            "ticks": 105792,
            "time": 100.181718,
            "velocity": 0.1889763779527559
          },
          {
            "duration": 0.04545450000000528,
            "durationTicks": 48,
            "midi": 66,
            "name": "F#4",
            "ticks": 106176,
            "time": 100.545354,
            "velocity": 0.1889763779527559
          },
          {
            "duration": 0.04545449999999107,
            "durationTicks": 48,
            "midi": 63,
            "name": "D#4",
            "ticks": 106368,
            "time": 100.72717200000001,
            "velocity": 0.1889763779527559
          },
          {
            "duration": 0.04545449999999107,
            "durationTicks": 48,
            "midi": 68,
            "name": "G#4",
            "ticks": 106368,
            "time": 100.72717200000001,
            "velocity": 0.1889763779527559
          },
          {
            "duration": 0.04545450000000528,
            "durationTicks": 48,
            "midi": 70,
            "name": "A#4",
            "ticks": 106560,
            "time": 100.90899,
            "velocity": 0.1889763779527559
          },
          {
            "duration": 0.04545449999999107,
            "durationTicks": 48,
            "midi": 63,
            "name": "D#4",
            "ticks": 106752,
            "time": 101.09080800000001,
            "velocity": 0.1889763779527559
          },
          {
            "duration": 0.04545449999999107,
            "durationTicks": 48,
            "midi": 68,
            "name": "G#4",
            "ticks": 106752,
            "time": 101.09080800000001,
            "velocity": 0.1889763779527559
          },
          {
            "duration": 0.04545449999999107,
            "durationTicks": 48,
            "midi": 63,
            "name": "D#4",
            "ticks": 107136,
            "time": 101.45444400000001,
            "velocity": 0.1889763779527559
          },
          {
            "duration": 0.04545449999999107,
            "durationTicks": 48,
            "midi": 66,
            "name": "F#4",
            "ticks": 107136,
            "time": 101.45444400000001,
            "velocity": 0.1889763779527559
          },
          {
            "duration": 0.04545449999999107,
            "durationTicks": 48,
            "midi": 58,
            "name": "A#3",
            "ticks": 107520,
            "time": 101.81808000000001,
            "velocity": 0.1889763779527559
          },
          {
            "duration": 0.04545449999999107,
            "durationTicks": 48,
            "midi": 61,
            "name": "C#4",
            "ticks": 107520,
            "time": 101.81808000000001,
            "velocity": 0.1889763779527559
          },
          {
            "duration": 0.04545449999999107,
            "durationTicks": 48,
            "midi": 70,
            "name": "A#4",
            "ticks": 107904,
            "time": 102.18171600000001,
            "velocity": 0.1889763779527559
          },
          {
            "duration": 0.04545449999999107,
            "durationTicks": 48,
            "midi": 66,
            "name": "F#4",
            "ticks": 107904,
            "time": 102.18171600000001,
            "velocity": 0.1889763779527559
          },
          {
            "duration": 0.04545450000000528,
            "durationTicks": 48,
            "midi": 68,
            "name": "G#4",
            "ticks": 108096,
            "time": 102.363534,
            "velocity": 0.1889763779527559
          },
          {
            "duration": 0.04545449999999107,
            "durationTicks": 48,
            "midi": 66,
            "name": "F#4",
            "ticks": 108288,
            "time": 102.54535200000001,
            "velocity": 0.1889763779527559
          },
          {
            "duration": 0.04545449999999107,
            "durationTicks": 48,
            "midi": 58,
            "name": "A#3",
            "ticks": 108288,
            "time": 102.54535200000001,
            "velocity": 0.1889763779527559
          },
          {
            "duration": 0.04545450000000528,
            "durationTicks": 48,
            "midi": 65,
            "name": "F4",
            "ticks": 108864,
            "time": 103.090806,
            "velocity": 0.1889763779527559
          },
          {
            "duration": 0.04545450000000528,
            "durationTicks": 48,
            "midi": 68,
            "name": "G#4",
            "ticks": 108864,
            "time": 103.090806,
            "velocity": 0.1889763779527559
          },
          {
            "duration": 0.04545450000000528,
            "durationTicks": 48,
            "midi": 65,
            "name": "F4",
            "ticks": 108864,
            "time": 103.090806,
            "velocity": 0.1889763779527559
          },
          {
            "duration": 0.04545450000000528,
            "durationTicks": 48,
            "midi": 66,
            "name": "F#4",
            "ticks": 109248,
            "time": 103.454442,
            "velocity": 0.1889763779527559
          },
          {
            "duration": 0.04545450000000528,
            "durationTicks": 48,
            "midi": 63,
            "name": "D#4",
            "ticks": 109248,
            "time": 103.454442,
            "velocity": 0.1889763779527559
          },
          {
            "duration": 0.04545449999999107,
            "durationTicks": 48,
            "midi": 65,
            "name": "F4",
            "ticks": 109440,
            "time": 103.63626000000001,
            "velocity": 0.1889763779527559
          },
          {
            "duration": 0.04545449999999107,
            "durationTicks": 48,
            "midi": 68,
            "name": "G#4",
            "ticks": 109440,
            "time": 103.63626000000001,
            "velocity": 0.1889763779527559
          },
          {
            "duration": 0.04545449999999107,
            "durationTicks": 48,
            "midi": 68,
            "name": "G#4",
            "ticks": 109824,
            "time": 103.999896,
            "velocity": 0.1889763779527559
          },
          {
            "duration": 0.04545449999999107,
            "durationTicks": 48,
            "midi": 65,
            "name": "F4",
            "ticks": 109824,
            "time": 103.999896,
            "velocity": 0.1889763779527559
          },
          {
            "duration": 0.04545449999999107,
            "durationTicks": 48,
            "midi": 66,
            "name": "F#4",
            "ticks": 110208,
            "time": 104.363532,
            "velocity": 0.1889763779527559
          },
          {
            "duration": 0.04545449999999107,
            "durationTicks": 48,
            "midi": 70,
            "name": "A#4",
            "ticks": 110208,
            "time": 104.363532,
            "velocity": 0.1889763779527559
          },
          {
            "duration": 0.04545450000000528,
            "durationTicks": 48,
            "midi": 70,
            "name": "A#4",
            "ticks": 110592,
            "time": 104.727168,
            "velocity": 0.1889763779527559
          },
          {
            "duration": 0.04545450000000528,
            "durationTicks": 48,
            "midi": 73,
            "name": "C#5",
            "ticks": 110592,
            "time": 104.727168,
            "velocity": 0.1889763779527559
          },
          {
            "duration": 0.04545450000000528,
            "durationTicks": 48,
            "midi": 68,
            "name": "G#4",
            "ticks": 110976,
            "time": 105.090804,
            "velocity": 0.1889763779527559
          },
          {
            "duration": 0.04545450000000528,
            "durationTicks": 48,
            "midi": 71,
            "name": "B4",
            "ticks": 110976,
            "time": 105.090804,
            "velocity": 0.1889763779527559
          },
          {
            "duration": 0.04545450000000528,
            "durationTicks": 48,
            "midi": 66,
            "name": "F#4",
            "ticks": 111168,
            "time": 105.272622,
            "velocity": 0.1889763779527559
          },
          {
            "duration": 0.04545450000000528,
            "durationTicks": 48,
            "midi": 70,
            "name": "A#4",
            "ticks": 111168,
            "time": 105.272622,
            "velocity": 0.1889763779527559
          },
          {
            "duration": 0.04545450000000528,
            "durationTicks": 48,
            "midi": 63,
            "name": "D#4",
            "ticks": 111360,
            "time": 105.45444,
            "velocity": 0.1889763779527559
          },
          {
            "duration": 0.04545450000000528,
            "durationTicks": 48,
            "midi": 66,
            "name": "F#4",
            "ticks": 111360,
            "time": 105.45444,
            "velocity": 0.1889763779527559
          },
          {
            "duration": 0.04545450000000528,
            "durationTicks": 48,
            "midi": 66,
            "name": "F#4",
            "ticks": 111744,
            "time": 105.818076,
            "velocity": 0.1889763779527559
          },
          {
            "duration": 0.04545450000000528,
            "durationTicks": 48,
            "midi": 68,
            "name": "G#4",
            "ticks": 111936,
            "time": 105.999894,
            "velocity": 0.1889763779527559
          },
          {
            "duration": 0.04545450000000528,
            "durationTicks": 48,
            "midi": 63,
            "name": "D#4",
            "ticks": 111936,
            "time": 105.999894,
            "velocity": 0.1889763779527559
          },
          {
            "duration": 0.04545450000000528,
            "durationTicks": 48,
            "midi": 68,
            "name": "G#4",
            "ticks": 112320,
            "time": 106.36353,
            "velocity": 0.1889763779527559
          },
          {
            "duration": 0.04545450000000528,
            "durationTicks": 48,
            "midi": 70,
            "name": "A#4",
            "ticks": 112512,
            "time": 106.545348,
            "velocity": 0.1889763779527559
          },
          {
            "duration": 0.4090905000000049,
            "durationTicks": 432,
            "midi": 63,
            "name": "D#4",
            "ticks": 112896,
            "time": 106.908984,
            "velocity": 0.1889763779527559
          },
          {
            "duration": 0.04545450000000528,
            "durationTicks": 48,
            "midi": 68,
            "name": "G#4",
            "ticks": 112896,
            "time": 106.908984,
            "velocity": 0.1889763779527559
          },
          {
            "duration": 0.04545450000000528,
            "durationTicks": 48,
            "midi": 66,
            "name": "F#4",
            "ticks": 113280,
            "time": 107.27262,
            "velocity": 0.1889763779527559
          },
          {
            "duration": 0.04545450000000528,
            "durationTicks": 48,
            "midi": 70,
            "name": "A#4",
            "ticks": 113664,
            "time": 107.636256,
            "velocity": 0.1889763779527559
          },
          {
            "duration": 0.04545450000000528,
            "durationTicks": 48,
            "midi": 82,
            "name": "A#5",
            "ticks": 113664,
            "time": 107.636256,
            "velocity": 0.1889763779527559
          },
          {
            "duration": 0.04545449999999107,
            "durationTicks": 48,
            "midi": 70,
            "name": "A#4",
            "ticks": 113952,
            "time": 107.908983,
            "velocity": 0.1889763779527559
          },
          {
            "duration": 0.04545449999999107,
            "durationTicks": 48,
            "midi": 82,
            "name": "A#5",
            "ticks": 113952,
            "time": 107.908983,
            "velocity": 0.1889763779527559
          },
          {
            "duration": 0.04545449999999107,
            "durationTicks": 48,
            "midi": 70,
            "name": "A#4",
            "ticks": 114240,
            "time": 108.18171000000001,
            "velocity": 0.1889763779527559
          },
          {
            "duration": 0.04545449999999107,
            "durationTicks": 48,
            "midi": 82,
            "name": "A#5",
            "ticks": 114240,
            "time": 108.18171000000001,
            "velocity": 0.1889763779527559
          },
          {
            "duration": 0.04545450000000528,
            "durationTicks": 48,
            "midi": 83,
            "name": "B5",
            "ticks": 114528,
            "time": 108.454437,
            "velocity": 0.1889763779527559
          },
          {
            "duration": 0.04545450000000528,
            "durationTicks": 48,
            "midi": 71,
            "name": "B4",
            "ticks": 114528,
            "time": 108.454437,
            "velocity": 0.1889763779527559
          },
          {
            "duration": 0.04545450000000528,
            "durationTicks": 48,
            "midi": 66,
            "name": "F#4",
            "ticks": 114816,
            "time": 108.727164,
            "velocity": 0.1889763779527559
          },
          {
            "duration": 0.04545450000000528,
            "durationTicks": 48,
            "midi": 78,
            "name": "F#5",
            "ticks": 114816,
            "time": 108.727164,
            "velocity": 0.1889763779527559
          },
          {
            "duration": 0.04545449999999107,
            "durationTicks": 48,
            "midi": 70,
            "name": "A#4",
            "ticks": 115008,
            "time": 108.90898200000001,
            "velocity": 0.1889763779527559
          },
          {
            "duration": 0.04545449999999107,
            "durationTicks": 48,
            "midi": 82,
            "name": "A#5",
            "ticks": 115008,
            "time": 108.90898200000001,
            "velocity": 0.1889763779527559
          },
          {
            "duration": 0.04545450000000528,
            "durationTicks": 48,
            "midi": 68,
            "name": "G#4",
            "ticks": 115200,
            "time": 109.0908,
            "velocity": 0.1889763779527559
          },
          {
            "duration": 0.04545450000000528,
            "durationTicks": 48,
            "midi": 80,
            "name": "G#5",
            "ticks": 115200,
            "time": 109.0908,
            "velocity": 0.1889763779527559
          },
          {
            "duration": 0.04545450000000528,
            "durationTicks": 48,
            "midi": 80,
            "name": "G#5",
            "ticks": 115488,
            "time": 109.363527,
            "velocity": 0.1889763779527559
          },
          {
            "duration": 0.04545450000000528,
            "durationTicks": 48,
            "midi": 68,
            "name": "G#4",
            "ticks": 115488,
            "time": 109.363527,
            "velocity": 0.1889763779527559
          },
          {
            "duration": 0.04545449999999107,
            "durationTicks": 48,
            "midi": 68,
            "name": "G#4",
            "ticks": 115776,
            "time": 109.63625400000001,
            "velocity": 0.1889763779527559
          },
          {
            "duration": 0.04545449999999107,
            "durationTicks": 48,
            "midi": 80,
            "name": "G#5",
            "ticks": 115776,
            "time": 109.63625400000001,
            "velocity": 0.1889763779527559
          },
          {
            "duration": 0.04545449999999107,
            "durationTicks": 48,
            "midi": 70,
            "name": "A#4",
            "ticks": 116064,
            "time": 109.90898100000001,
            "velocity": 0.1889763779527559
          },
          {
            "duration": 0.04545449999999107,
            "durationTicks": 48,
            "midi": 82,
            "name": "A#5",
            "ticks": 116064,
            "time": 109.90898100000001,
            "velocity": 0.1889763779527559
          },
          {
            "duration": 0.04545450000000528,
            "durationTicks": 48,
            "midi": 73,
            "name": "C#5",
            "ticks": 116352,
            "time": 110.181708,
            "velocity": 0.1889763779527559
          },
          {
            "duration": 0.04545450000000528,
            "durationTicks": 48,
            "midi": 61,
            "name": "C#4",
            "ticks": 116352,
            "time": 110.181708,
            "velocity": 0.1889763779527559
          },
          {
            "duration": 0.04545449999999107,
            "durationTicks": 48,
            "midi": 80,
            "name": "G#5",
            "ticks": 116544,
            "time": 110.36352600000001,
            "velocity": 0.1889763779527559
          },
          {
            "duration": 0.04545449999999107,
            "durationTicks": 48,
            "midi": 68,
            "name": "G#4",
            "ticks": 116544,
            "time": 110.36352600000001,
            "velocity": 0.1889763779527559
          },
          {
            "duration": 0.04545450000000528,
            "durationTicks": 48,
            "midi": 78,
            "name": "F#5",
            "ticks": 116736,
            "time": 110.545344,
            "velocity": 0.1889763779527559
          },
          {
            "duration": 0.04545450000000528,
            "durationTicks": 48,
            "midi": 66,
            "name": "F#4",
            "ticks": 116736,
            "time": 110.545344,
            "velocity": 0.1889763779527559
          },
          {
            "duration": 0.04545450000000528,
            "durationTicks": 48,
            "midi": 78,
            "name": "F#5",
            "ticks": 117024,
            "time": 110.818071,
            "velocity": 0.1889763779527559
          },
          {
            "duration": 0.04545450000000528,
            "durationTicks": 48,
            "midi": 66,
            "name": "F#4",
            "ticks": 117024,
            "time": 110.818071,
            "velocity": 0.1889763779527559
          },
          {
            "duration": 0.04545449999999107,
            "durationTicks": 48,
            "midi": 66,
            "name": "F#4",
            "ticks": 117312,
            "time": 111.090798,
            "velocity": 0.1889763779527559
          },
          {
            "duration": 0.04545449999999107,
            "durationTicks": 48,
            "midi": 78,
            "name": "F#5",
            "ticks": 117312,
            "time": 111.090798,
            "velocity": 0.1889763779527559
          },
          {
            "duration": 0.04545449999999107,
            "durationTicks": 48,
            "midi": 78,
            "name": "F#5",
            "ticks": 117600,
            "time": 111.36352500000001,
            "velocity": 0.1889763779527559
          },
          {
            "duration": 0.04545449999999107,
            "durationTicks": 48,
            "midi": 66,
            "name": "F#4",
            "ticks": 117600,
            "time": 111.36352500000001,
            "velocity": 0.1889763779527559
          },
          {
            "duration": 0.04545450000000528,
            "durationTicks": 48,
            "midi": 73,
            "name": "C#5",
            "ticks": 117888,
            "time": 111.636252,
            "velocity": 0.1889763779527559
          },
          {
            "duration": 0.04545450000000528,
            "durationTicks": 48,
            "midi": 61,
            "name": "C#4",
            "ticks": 117888,
            "time": 111.636252,
            "velocity": 0.1889763779527559
          },
          {
            "duration": 0.04545450000000528,
            "durationTicks": 48,
            "midi": 80,
            "name": "G#5",
            "ticks": 118080,
            "time": 111.81807,
            "velocity": 0.1889763779527559
          },
          {
            "duration": 0.04545450000000528,
            "durationTicks": 48,
            "midi": 68,
            "name": "G#4",
            "ticks": 118080,
            "time": 111.81807,
            "velocity": 0.1889763779527559
          },
          {
            "duration": 0.04545450000000528,
            "durationTicks": 48,
            "midi": 66,
            "name": "F#4",
            "ticks": 118272,
            "time": 111.999888,
            "velocity": 0.1889763779527559
          },
          {
            "duration": 0.04545450000000528,
            "durationTicks": 48,
            "midi": 78,
            "name": "F#5",
            "ticks": 118272,
            "time": 111.999888,
            "velocity": 0.1889763779527559
          },
          {
            "duration": 0.04545450000000528,
            "durationTicks": 48,
            "midi": 78,
            "name": "F#5",
            "ticks": 118560,
            "time": 112.272615,
            "velocity": 0.1889763779527559
          },
          {
            "duration": 0.04545450000000528,
            "durationTicks": 48,
            "midi": 66,
            "name": "F#4",
            "ticks": 118560,
            "time": 112.272615,
            "velocity": 0.1889763779527559
          },
          {
            "duration": 0.04545450000000528,
            "durationTicks": 48,
            "midi": 66,
            "name": "F#4",
            "ticks": 118848,
            "time": 112.545342,
            "velocity": 0.1889763779527559
          },
          {
            "duration": 0.04545450000000528,
            "durationTicks": 48,
            "midi": 78,
            "name": "F#5",
            "ticks": 118848,
            "time": 112.545342,
            "velocity": 0.1889763779527559
          },
          {
            "duration": 0.04545449999999107,
            "durationTicks": 48,
            "midi": 77,
            "name": "F5",
            "ticks": 119136,
            "time": 112.81806900000001,
            "velocity": 0.1889763779527559
          },
          {
            "duration": 0.04545449999999107,
            "durationTicks": 48,
            "midi": 65,
            "name": "F4",
            "ticks": 119136,
            "time": 112.81806900000001,
            "velocity": 0.1889763779527559
          },
          {
            "duration": 0.04545449999999107,
            "durationTicks": 48,
            "midi": 78,
            "name": "F#5",
            "ticks": 119424,
            "time": 113.09079600000001,
            "velocity": 0.1889763779527559
          },
          {
            "duration": 0.04545449999999107,
            "durationTicks": 48,
            "midi": 66,
            "name": "F#4",
            "ticks": 119424,
            "time": 113.09079600000001,
            "velocity": 0.1889763779527559
          },
          {
            "duration": 0.04545450000000528,
            "durationTicks": 48,
            "midi": 68,
            "name": "G#4",
            "ticks": 119616,
            "time": 113.272614,
            "velocity": 0.1889763779527559
          },
          {
            "duration": 0.04545450000000528,
            "durationTicks": 48,
            "midi": 80,
            "name": "G#5",
            "ticks": 119616,
            "time": 113.272614,
            "velocity": 0.1889763779527559
          },
          {
            "duration": 0.04545449999999107,
            "durationTicks": 48,
            "midi": 82,
            "name": "A#5",
            "ticks": 119808,
            "time": 113.45443200000001,
            "velocity": 0.1889763779527559
          },
          {
            "duration": 0.04545449999999107,
            "durationTicks": 48,
            "midi": 70,
            "name": "A#4",
            "ticks": 119808,
            "time": 113.45443200000001,
            "velocity": 0.1889763779527559
          },
          {
            "duration": 0.04545450000000528,
            "durationTicks": 48,
            "midi": 82,
            "name": "A#5",
            "ticks": 120096,
            "time": 113.727159,
            "velocity": 0.1889763779527559
          },
          {
            "duration": 0.04545450000000528,
            "durationTicks": 48,
            "midi": 70,
            "name": "A#4",
            "ticks": 120096,
            "time": 113.727159,
            "velocity": 0.1889763779527559
          },
          {
            "duration": 0.04545450000000528,
            "durationTicks": 48,
            "midi": 82,
            "name": "A#5",
            "ticks": 120384,
            "time": 113.999886,
            "velocity": 0.1889763779527559
          },
          {
            "duration": 0.04545450000000528,
            "durationTicks": 48,
            "midi": 70,
            "name": "A#4",
            "ticks": 120384,
            "time": 113.999886,
            "velocity": 0.1889763779527559
          },
          {
            "duration": 0.04545449999999107,
            "durationTicks": 48,
            "midi": 71,
            "name": "B4",
            "ticks": 120672,
            "time": 114.272613,
            "velocity": 0.1889763779527559
          },
          {
            "duration": 0.04545449999999107,
            "durationTicks": 48,
            "midi": 83,
            "name": "B5",
            "ticks": 120672,
            "time": 114.272613,
            "velocity": 0.1889763779527559
          },
          {
            "duration": 0.04545449999999107,
            "durationTicks": 48,
            "midi": 66,
            "name": "F#4",
            "ticks": 120960,
            "time": 114.54534000000001,
            "velocity": 0.1889763779527559
          },
          {
            "duration": 0.04545449999999107,
            "durationTicks": 48,
            "midi": 78,
            "name": "F#5",
            "ticks": 120960,
            "time": 114.54534000000001,
            "velocity": 0.1889763779527559
          },
          {
            "duration": 0.04545450000000528,
            "durationTicks": 48,
            "midi": 70,
            "name": "A#4",
            "ticks": 121152,
            "time": 114.727158,
            "velocity": 0.1889763779527559
          },
          {
            "duration": 0.04545450000000528,
            "durationTicks": 48,
            "midi": 82,
            "name": "A#5",
            "ticks": 121152,
            "time": 114.727158,
            "velocity": 0.1889763779527559
          },
          {
            "duration": 0.04545449999999107,
            "durationTicks": 48,
            "midi": 68,
            "name": "G#4",
            "ticks": 121344,
            "time": 114.90897600000001,
            "velocity": 0.1889763779527559
          },
          {
            "duration": 0.04545449999999107,
            "durationTicks": 48,
            "midi": 80,
            "name": "G#5",
            "ticks": 121344,
            "time": 114.90897600000001,
            "velocity": 0.1889763779527559
          },
          {
            "duration": 0.04545450000000528,
            "durationTicks": 48,
            "midi": 80,
            "name": "G#5",
            "ticks": 121632,
            "time": 115.181703,
            "velocity": 0.1889763779527559
          },
          {
            "duration": 0.04545450000000528,
            "durationTicks": 48,
            "midi": 68,
            "name": "G#4",
            "ticks": 121632,
            "time": 115.181703,
            "velocity": 0.1889763779527559
          },
          {
            "duration": 0.04545450000000528,
            "durationTicks": 48,
            "midi": 68,
            "name": "G#4",
            "ticks": 121920,
            "time": 115.45443,
            "velocity": 0.1889763779527559
          },
          {
            "duration": 0.04545450000000528,
            "durationTicks": 48,
            "midi": 80,
            "name": "G#5",
            "ticks": 121920,
            "time": 115.45443,
            "velocity": 0.1889763779527559
          },
          {
            "duration": 0.04545450000000528,
            "durationTicks": 48,
            "midi": 85,
            "name": "C#6",
            "ticks": 122208,
            "time": 115.727157,
            "velocity": 0.1889763779527559
          },
          {
            "duration": 0.04545450000000528,
            "durationTicks": 48,
            "midi": 73,
            "name": "C#5",
            "ticks": 122208,
            "time": 115.727157,
            "velocity": 0.1889763779527559
          },
          {
            "duration": 0.04545449999999107,
            "durationTicks": 48,
            "midi": 65,
            "name": "F4",
            "ticks": 122496,
            "time": 115.99988400000001,
            "velocity": 0.1889763779527559
          },
          {
            "duration": 0.04545449999999107,
            "durationTicks": 48,
            "midi": 77,
            "name": "F5",
            "ticks": 122496,
            "time": 115.99988400000001,
            "velocity": 0.1889763779527559
          },
          {
            "duration": 0.04545450000000528,
            "durationTicks": 48,
            "midi": 68,
            "name": "G#4",
            "ticks": 122688,
            "time": 116.181702,
            "velocity": 0.1889763779527559
          },
          {
            "duration": 0.04545450000000528,
            "durationTicks": 48,
            "midi": 80,
            "name": "G#5",
            "ticks": 122688,
            "time": 116.181702,
            "velocity": 0.1889763779527559
          },
          {
            "duration": 0.04545449999999107,
            "durationTicks": 48,
            "midi": 66,
            "name": "F#4",
            "ticks": 122880,
            "time": 116.36352000000001,
            "velocity": 0.1889763779527559
          },
          {
            "duration": 0.04545449999999107,
            "durationTicks": 48,
            "midi": 78,
            "name": "F#5",
            "ticks": 122880,
            "time": 116.36352000000001,
            "velocity": 0.1889763779527559
          },
          {
            "duration": 0.04545449999999107,
            "durationTicks": 48,
            "midi": 78,
            "name": "F#5",
            "ticks": 123168,
            "time": 116.63624700000001,
            "velocity": 0.1889763779527559
          },
          {
            "duration": 0.04545449999999107,
            "durationTicks": 48,
            "midi": 66,
            "name": "F#4",
            "ticks": 123168,
            "time": 116.63624700000001,
            "velocity": 0.1889763779527559
          },
          {
            "duration": 0.04545450000000528,
            "durationTicks": 48,
            "midi": 78,
            "name": "F#5",
            "ticks": 123456,
            "time": 116.908974,
            "velocity": 0.1889763779527559
          },
          {
            "duration": 0.04545450000000528,
            "durationTicks": 48,
            "midi": 66,
            "name": "F#4",
            "ticks": 123456,
            "time": 116.908974,
            "velocity": 0.1889763779527559
          },
          {
            "duration": 0.04545450000000528,
            "durationTicks": 48,
            "midi": 68,
            "name": "G#4",
            "ticks": 123744,
            "time": 117.181701,
            "velocity": 0.1889763779527559
          },
          {
            "duration": 0.04545450000000528,
            "durationTicks": 48,
            "midi": 80,
            "name": "G#5",
            "ticks": 123744,
            "time": 117.181701,
            "velocity": 0.1889763779527559
          },
          {
            "duration": 0.04545449999999107,
            "durationTicks": 48,
            "midi": 75,
            "name": "D#5",
            "ticks": 124032,
            "time": 117.45442800000001,
            "velocity": 0.1889763779527559
          },
          {
            "duration": 0.04545449999999107,
            "durationTicks": 48,
            "midi": 63,
            "name": "D#4",
            "ticks": 124032,
            "time": 117.45442800000001,
            "velocity": 0.1889763779527559
          },
          {
            "duration": 0.04545450000000528,
            "durationTicks": 48,
            "midi": 65,
            "name": "F4",
            "ticks": 124224,
            "time": 117.636246,
            "velocity": 0.1889763779527559
          },
          {
            "duration": 0.04545450000000528,
            "durationTicks": 48,
            "midi": 77,
            "name": "F5",
            "ticks": 124224,
            "time": 117.636246,
            "velocity": 0.1889763779527559
          },
          {
            "duration": 0.04545449999999107,
            "durationTicks": 48,
            "midi": 66,
            "name": "F#4",
            "ticks": 124416,
            "time": 117.818064,
            "velocity": 0.1889763779527559
          },
          {
            "duration": 0.04545449999999107,
            "durationTicks": 48,
            "midi": 78,
            "name": "F#5",
            "ticks": 124416,
            "time": 117.818064,
            "velocity": 0.1889763779527559
          },
          {
            "duration": 0.04545449999999107,
            "durationTicks": 48,
            "midi": 66,
            "name": "F#4",
            "ticks": 124704,
            "time": 118.09079100000001,
            "velocity": 0.1889763779527559
          },
          {
            "duration": 0.04545450000000528,
            "durationTicks": 48,
            "midi": 66,
            "name": "F#4",
            "ticks": 124992,
            "time": 118.363518,
            "velocity": 0.1889763779527559
          },
          {
            "duration": 0.04545450000000528,
            "durationTicks": 48,
            "midi": 65,
            "name": "F4",
            "ticks": 125280,
            "time": 118.636245,
            "velocity": 0.1889763779527559
          },
          {
            "duration": 0.04545450000000528,
            "durationTicks": 48,
            "midi": 66,
            "name": "F#4",
            "ticks": 125568,
            "time": 118.908972,
            "velocity": 0.1889763779527559
          },
          {
            "duration": 0.04545450000000528,
            "durationTicks": 48,
            "midi": 68,
            "name": "G#4",
            "ticks": 125760,
            "time": 119.09079,
            "velocity": 0.1889763779527559
          },
          {
            "duration": 0.04545450000000528,
            "durationTicks": 48,
            "midi": 70,
            "name": "A#4",
            "ticks": 125952,
            "time": 119.272608,
            "velocity": 0.1889763779527559
          },
          {
            "duration": 0.04545450000000528,
            "durationTicks": 48,
            "midi": 70,
            "name": "A#4",
            "ticks": 126336,
            "time": 119.636244,
            "velocity": 0.1889763779527559
          },
          {
            "duration": 0.04545449999999107,
            "durationTicks": 48,
            "midi": 70,
            "name": "A#4",
            "ticks": 126528,
            "time": 119.81806200000001,
            "velocity": 0.1889763779527559
          },
          {
            "duration": 0.04545450000000528,
            "durationTicks": 48,
            "midi": 70,
            "name": "A#4",
            "ticks": 126720,
            "time": 119.99988,
            "velocity": 0.1889763779527559
          },
          {
            "duration": 0.04545449999999107,
            "durationTicks": 48,
            "midi": 68,
            "name": "G#4",
            "ticks": 127296,
            "time": 120.54533400000001,
            "velocity": 0.1889763779527559
          },
          {
            "duration": 0.04545449999999107,
            "durationTicks": 48,
            "midi": 68,
            "name": "G#4",
            "ticks": 127680,
            "time": 120.90897000000001,
            "velocity": 0.1889763779527559
          },
          {
            "duration": 0.04545450000000528,
            "durationTicks": 48,
            "midi": 68,
            "name": "G#4",
            "ticks": 127872,
            "time": 121.090788,
            "velocity": 0.1889763779527559
          },
          {
            "duration": 0.04545449999999107,
            "durationTicks": 48,
            "midi": 66,
            "name": "F#4",
            "ticks": 128064,
            "time": 121.27260600000001,
            "velocity": 0.1889763779527559
          },
          {
            "duration": 0.04545450000000528,
            "durationTicks": 48,
            "midi": 68,
            "name": "G#4",
            "ticks": 128256,
            "time": 121.454424,
            "velocity": 0.1889763779527559
          },
          {
            "duration": 0.04545450000000528,
            "durationTicks": 48,
            "midi": 70,
            "name": "A#4",
            "ticks": 128640,
            "time": 121.81806,
            "velocity": 0.1889763779527559
          },
          {
            "duration": 0.04545450000000528,
            "durationTicks": 48,
            "midi": 66,
            "name": "F#4",
            "ticks": 129024,
            "time": 122.181696,
            "velocity": 0.1889763779527559
          },
          {
            "duration": 0.04545450000000528,
            "durationTicks": 48,
            "midi": 66,
            "name": "F#4",
            "ticks": 129408,
            "time": 122.545332,
            "velocity": 0.1889763779527559
          },
          {
            "duration": 0.04545449999999107,
            "durationTicks": 48,
            "midi": 66,
            "name": "F#4",
            "ticks": 129600,
            "time": 122.72715000000001,
            "velocity": 0.1889763779527559
          },
          {
            "duration": 0.04545450000000528,
            "durationTicks": 48,
            "midi": 66,
            "name": "F#4",
            "ticks": 129792,
            "time": 122.908968,
            "velocity": 0.1889763779527559
          },
          {
            "duration": 0.04545450000000528,
            "durationTicks": 48,
            "midi": 66,
            "name": "F#4",
            "ticks": 130176,
            "time": 123.272604,
            "velocity": 0.1889763779527559
          },
          {
            "duration": 0.04545449999999107,
            "durationTicks": 48,
            "midi": 63,
            "name": "D#4",
            "ticks": 130368,
            "time": 123.45442200000001,
            "velocity": 0.1889763779527559
          },
          {
            "duration": 0.04545449999999107,
            "durationTicks": 48,
            "midi": 63,
            "name": "D#4",
            "ticks": 130752,
            "time": 123.81805800000001,
            "velocity": 0.1889763779527559
          },
          {
            "duration": 0.04545450000000528,
            "durationTicks": 48,
            "midi": 65,
            "name": "F4",
            "ticks": 130944,
            "time": 123.999876,
            "velocity": 0.1889763779527559
          },
          {
            "duration": 0.04545449999999107,
            "durationTicks": 48,
            "midi": 65,
            "name": "F4",
            "ticks": 131136,
            "time": 124.18169400000001,
            "velocity": 0.1889763779527559
          },
          {
            "duration": 0.04545450000000528,
            "durationTicks": 48,
            "midi": 66,
            "name": "F#4",
            "ticks": 131328,
            "time": 124.363512,
            "velocity": 0.1889763779527559
          },
          {
            "duration": 0.04545450000000528,
            "durationTicks": 48,
            "midi": 68,
            "name": "G#4",
            "ticks": 131712,
            "time": 124.727148,
            "velocity": 0.1889763779527559
          },
          {
            "duration": 0.04545450000000528,
            "durationTicks": 48,
            "midi": 70,
            "name": "A#4",
            "ticks": 132096,
            "time": 125.090784,
            "velocity": 0.1889763779527559
          },
          {
            "duration": 0.04545450000000528,
            "durationTicks": 48,
            "midi": 70,
            "name": "A#4",
            "ticks": 132480,
            "time": 125.45442,
            "velocity": 0.1889763779527559
          },
          {
            "duration": 0.04545450000000528,
            "durationTicks": 48,
            "midi": 70,
            "name": "A#4",
            "ticks": 132672,
            "time": 125.636238,
            "velocity": 0.1889763779527559
          },
          {
            "duration": 0.04545450000000528,
            "durationTicks": 48,
            "midi": 70,
            "name": "A#4",
            "ticks": 132864,
            "time": 125.818056,
            "velocity": 0.1889763779527559
          },
          {
            "duration": 0.04545450000000528,
            "durationTicks": 48,
            "midi": 68,
            "name": "G#4",
            "ticks": 133440,
            "time": 126.36351,
            "velocity": 0.1889763779527559
          },
          {
            "duration": 0.04545450000000528,
            "durationTicks": 48,
            "midi": 68,
            "name": "G#4",
            "ticks": 133824,
            "time": 126.727146,
            "velocity": 0.1889763779527559
          },
          {
            "duration": 0.04545449999999107,
            "durationTicks": 48,
            "midi": 73,
            "name": "C#5",
            "ticks": 134016,
            "time": 126.90896400000001,
            "velocity": 0.1889763779527559
          },
          {
            "duration": 0.04545450000000528,
            "durationTicks": 48,
            "midi": 73,
            "name": "C#5",
            "ticks": 134208,
            "time": 127.090782,
            "velocity": 0.1889763779527559
          },
          {
            "duration": 0.04545449999999107,
            "durationTicks": 48,
            "midi": 71,
            "name": "B4",
            "ticks": 134400,
            "time": 127.27260000000001,
            "velocity": 0.1889763779527559
          },
          {
            "duration": 0.04545449999999107,
            "durationTicks": 48,
            "midi": 70,
            "name": "A#4",
            "ticks": 134784,
            "time": 127.63623600000001,
            "velocity": 0.1889763779527559
          },
          {
            "duration": 0.04545450000000528,
            "durationTicks": 48,
            "midi": 66,
            "name": "F#4",
            "ticks": 135168,
            "time": 127.99987200000001,
            "velocity": 0.1889763779527559
          },
          {
            "duration": 0.04545450000000528,
            "durationTicks": 48,
            "midi": 66,
            "name": "F#4",
            "ticks": 135552,
            "time": 128.363508,
            "velocity": 0.1889763779527559
          },
          {
            "duration": 0.04545449999997686,
            "durationTicks": 48,
            "midi": 66,
            "name": "F#4",
            "ticks": 135744,
            "time": 128.54532600000002,
            "velocity": 0.1889763779527559
          },
          {
            "duration": 0.04545450000000528,
            "durationTicks": 48,
            "midi": 66,
            "name": "F#4",
            "ticks": 135936,
            "time": 128.727144,
            "velocity": 0.1889763779527559
          },
          {
            "duration": 0.04545450000000528,
            "durationTicks": 48,
            "midi": 66,
            "name": "F#4",
            "ticks": 136320,
            "time": 129.09078,
            "velocity": 0.1889763779527559
          },
          {
            "duration": 0.04545449999997686,
            "durationTicks": 48,
            "midi": 73,
            "name": "C#5",
            "ticks": 136512,
            "time": 129.27259800000002,
            "velocity": 0.1889763779527559
          },
          {
            "duration": 0.04545450000000528,
            "durationTicks": 48,
            "midi": 73,
            "name": "C#5",
            "ticks": 136896,
            "time": 129.636234,
            "velocity": 0.1889763779527559
          },
          {
            "duration": 0.04545450000000528,
            "durationTicks": 48,
            "midi": 66,
            "name": "F#4",
            "ticks": 137088,
            "time": 129.818052,
            "velocity": 0.1889763779527559
          },
          {
            "duration": 0.04545450000000528,
            "durationTicks": 48,
            "midi": 66,
            "name": "F#4",
            "ticks": 137472,
            "time": 130.181688,
            "velocity": 0.1889763779527559
          },
          {
            "duration": 0.04545450000000528,
            "durationTicks": 48,
            "midi": 65,
            "name": "F4",
            "ticks": 137856,
            "time": 130.545324,
            "velocity": 0.1889763779527559
          },
          {
            "duration": 0.04545450000000528,
            "durationTicks": 48,
            "midi": 68,
            "name": "G#4",
            "ticks": 141312,
            "time": 133.818048,
            "velocity": 0.1889763779527559
          },
          {
            "duration": 0.04545449999997686,
            "durationTicks": 48,
            "midi": 68,
            "name": "G#4",
            "ticks": 141696,
            "time": 134.18168400000002,
            "velocity": 0.1889763779527559
          },
          {
            "duration": 0.04545450000000528,
            "durationTicks": 48,
            "midi": 68,
            "name": "G#4",
            "ticks": 142080,
            "time": 134.54532,
            "velocity": 0.1889763779527559
          },
          {
            "duration": 0.04545450000000528,
            "durationTicks": 48,
            "midi": 70,
            "name": "A#4",
            "ticks": 142272,
            "time": 134.727138,
            "velocity": 0.1889763779527559
          },
          {
            "duration": 0.04545449999997686,
            "durationTicks": 48,
            "midi": 61,
            "name": "C#4",
            "ticks": 142464,
            "time": 134.90895600000002,
            "velocity": 0.1889763779527559
          },
          {
            "duration": 0.04545450000000528,
            "durationTicks": 48,
            "midi": 61,
            "name": "C#4",
            "ticks": 142656,
            "time": 135.090774,
            "velocity": 0.1889763779527559
          },
          {
            "duration": 0.04545450000000528,
            "durationTicks": 48,
            "midi": 73,
            "name": "C#5",
            "ticks": 143040,
            "time": 135.45441,
            "velocity": 0.1889763779527559
          },
          {
            "duration": 0.04545450000000528,
            "durationTicks": 48,
            "midi": 85,
            "name": "C#6",
            "ticks": 143040,
            "time": 135.45441,
            "velocity": 0.1889763779527559
          },
          {
            "duration": 0.04545450000000528,
            "durationTicks": 48,
            "midi": 73,
            "name": "C#5",
            "ticks": 143424,
            "time": 135.818046,
            "velocity": 0.1889763779527559
          },
          {
            "duration": 0.04545450000000528,
            "durationTicks": 48,
            "midi": 85,
            "name": "C#6",
            "ticks": 143424,
            "time": 135.818046,
            "velocity": 0.1889763779527559
          },
          {
            "duration": 0.04545450000000528,
            "durationTicks": 48,
            "midi": 73,
            "name": "C#5",
            "ticks": 143808,
            "time": 136.181682,
            "velocity": 0.1889763779527559
          },
          {
            "duration": 0.04545450000000528,
            "durationTicks": 48,
            "midi": 85,
            "name": "C#6",
            "ticks": 143808,
            "time": 136.181682,
            "velocity": 0.1889763779527559
          },
          {
            "duration": 0.04545449999997686,
            "durationTicks": 48,
            "midi": 73,
            "name": "C#5",
            "ticks": 144000,
            "time": 136.36350000000002,
            "velocity": 0.1889763779527559
          },
          {
            "duration": 0.04545449999997686,
            "durationTicks": 48,
            "midi": 85,
            "name": "C#6",
            "ticks": 144000,
            "time": 136.36350000000002,
            "velocity": 0.1889763779527559
          },
          {
            "duration": 0.04545450000000528,
            "durationTicks": 48,
            "midi": 68,
            "name": "G#4",
            "ticks": 144384,
            "time": 136.727136,
            "velocity": 0.1889763779527559
          },
          {
            "duration": 0.04545449999997686,
            "durationTicks": 48,
            "midi": 68,
            "name": "G#4",
            "ticks": 144768,
            "time": 137.09077200000002,
            "velocity": 0.1889763779527559
          },
          {
            "duration": 0.04545450000000528,
            "durationTicks": 48,
            "midi": 68,
            "name": "G#4",
            "ticks": 145152,
            "time": 137.454408,
            "velocity": 0.1889763779527559
          },
          {
            "duration": 0.04545450000000528,
            "durationTicks": 48,
            "midi": 70,
            "name": "A#4",
            "ticks": 145344,
            "time": 137.636226,
            "velocity": 0.1889763779527559
          },
          {
            "duration": 0.04545449999997686,
            "durationTicks": 48,
            "midi": 61,
            "name": "C#4",
            "ticks": 145536,
            "time": 137.81804400000001,
            "velocity": 0.1889763779527559
          },
          {
            "duration": 0.04545450000000528,
            "durationTicks": 48,
            "midi": 61,
            "name": "C#4",
            "ticks": 145728,
            "time": 137.999862,
            "velocity": 0.1889763779527559
          },
          {
            "duration": 0.04545450000000528,
            "durationTicks": 48,
            "midi": 63,
            "name": "D#4",
            "ticks": 146112,
            "time": 138.363498,
            "velocity": 0.1889763779527559
          },
          {
            "duration": 0.04545450000000528,
            "durationTicks": 48,
            "midi": 61,
            "name": "C#4",
            "ticks": 146304,
            "time": 138.545316,
            "velocity": 0.1889763779527559
          },
          {
            "duration": 0.04545450000000528,
            "durationTicks": 48,
            "midi": 70,
            "name": "A#4",
            "ticks": 147456,
            "time": 139.636224,
            "velocity": 0.1889763779527559
          },
          {
            "duration": 0.04545450000000528,
            "durationTicks": 48,
            "midi": 70,
            "name": "A#4",
            "ticks": 147840,
            "time": 139.99986,
            "velocity": 0.1889763779527559
          },
          {
            "duration": 0.04545450000000528,
            "durationTicks": 48,
            "midi": 70,
            "name": "A#4",
            "ticks": 148224,
            "time": 140.363496,
            "velocity": 0.1889763779527559
          },
          {
            "duration": 0.04545449999997686,
            "durationTicks": 48,
            "midi": 73,
            "name": "C#5",
            "ticks": 148416,
            "time": 140.54531400000002,
            "velocity": 0.1889763779527559
          },
          {
            "duration": 0.04545450000000528,
            "durationTicks": 48,
            "midi": 70,
            "name": "A#4",
            "ticks": 148608,
            "time": 140.727132,
            "velocity": 0.1889763779527559
          },
          {
            "duration": 0.04545450000000528,
            "durationTicks": 48,
            "midi": 68,
            "name": "G#4",
            "ticks": 148800,
            "time": 140.90895,
            "velocity": 0.1889763779527559
          },
          {
            "duration": 0.04545449999997686,
            "durationTicks": 48,
            "midi": 73,
            "name": "C#5",
            "ticks": 149184,
            "time": 141.27258600000002,
            "velocity": 0.1889763779527559
          },
          {
            "duration": 0.04545449999997686,
            "durationTicks": 48,
            "midi": 85,
            "name": "C#6",
            "ticks": 149184,
            "time": 141.27258600000002,
            "velocity": 0.1889763779527559
          },
          {
            "duration": 0.04545450000000528,
            "durationTicks": 48,
            "midi": 85,
            "name": "C#6",
            "ticks": 149568,
            "time": 141.636222,
            "velocity": 0.1889763779527559
          },
          {
            "duration": 0.04545450000000528,
            "durationTicks": 48,
            "midi": 73,
            "name": "C#5",
            "ticks": 149568,
            "time": 141.636222,
            "velocity": 0.1889763779527559
          },
          {
            "duration": 0.04545449999997686,
            "durationTicks": 48,
            "midi": 85,
            "name": "C#6",
            "ticks": 149952,
            "time": 141.99985800000002,
            "velocity": 0.1889763779527559
          },
          {
            "duration": 0.04545449999997686,
            "durationTicks": 48,
            "midi": 73,
            "name": "C#5",
            "ticks": 149952,
            "time": 141.99985800000002,
            "velocity": 0.1889763779527559
          },
          {
            "duration": 0.04545450000000528,
            "durationTicks": 48,
            "midi": 73,
            "name": "C#5",
            "ticks": 150144,
            "time": 142.181676,
            "velocity": 0.1889763779527559
          },
          {
            "duration": 0.04545450000000528,
            "durationTicks": 48,
            "midi": 85,
            "name": "C#6",
            "ticks": 150144,
            "time": 142.181676,
            "velocity": 0.1889763779527559
          },
          {
            "duration": 0.04545450000000528,
            "durationTicks": 48,
            "midi": 68,
            "name": "G#4",
            "ticks": 150528,
            "time": 142.545312,
            "velocity": 0.1889763779527559
          },
          {
            "duration": 0.04545450000000528,
            "durationTicks": 48,
            "midi": 68,
            "name": "G#4",
            "ticks": 150912,
            "time": 142.908948,
            "velocity": 0.1889763779527559
          },
          {
            "duration": 0.04545450000000528,
            "durationTicks": 48,
            "midi": 68,
            "name": "G#4",
            "ticks": 151296,
            "time": 143.272584,
            "velocity": 0.1889763779527559
          },
          {
            "duration": 0.04545449999997686,
            "durationTicks": 48,
            "midi": 70,
            "name": "A#4",
            "ticks": 151488,
            "time": 143.45440200000002,
            "velocity": 0.1889763779527559
          },
          {
            "duration": 0.04545450000000528,
            "durationTicks": 48,
            "midi": 61,
            "name": "C#4",
            "ticks": 151680,
            "time": 143.63622,
            "velocity": 0.1889763779527559
          },
          {
            "duration": 0.04545450000000528,
            "durationTicks": 48,
            "midi": 61,
            "name": "C#4",
            "ticks": 151872,
            "time": 143.818038,
            "velocity": 0.1889763779527559
          },
          {
            "duration": 0.04545450000000528,
            "durationTicks": 48,
            "midi": 70,
            "name": "A#4",
            "ticks": 152448,
            "time": 144.363492,
            "velocity": 0.1889763779527559
          },
          {
            "duration": 0.04545450000000528,
            "durationTicks": 48,
            "midi": 82,
            "name": "A#5",
            "ticks": 152448,
            "time": 144.363492,
            "velocity": 0.1889763779527559
          },
          {
            "duration": 0.04545450000000528,
            "durationTicks": 48,
            "midi": 82,
            "name": "A#5",
            "ticks": 152832,
            "time": 144.727128,
            "velocity": 0.1889763779527559
          },
          {
            "duration": 0.04545450000000528,
            "durationTicks": 48,
            "midi": 70,
            "name": "A#4",
            "ticks": 152832,
            "time": 144.727128,
            "velocity": 0.1889763779527559
          },
          {
            "duration": 0.04545450000000528,
            "durationTicks": 48,
            "midi": 68,
            "name": "G#4",
            "ticks": 153216,
            "time": 145.090764,
            "velocity": 0.1889763779527559
          },
          {
            "duration": 0.04545450000000528,
            "durationTicks": 48,
            "midi": 80,
            "name": "G#5",
            "ticks": 153216,
            "time": 145.090764,
            "velocity": 0.1889763779527559
          },
          {
            "duration": 0.04545450000000528,
            "durationTicks": 48,
            "midi": 73,
            "name": "C#5",
            "ticks": 153600,
            "time": 145.4544,
            "velocity": 0.1889763779527559
          },
          {
            "duration": 0.04545450000000528,
            "durationTicks": 48,
            "midi": 61,
            "name": "C#4",
            "ticks": 153600,
            "time": 145.4544,
            "velocity": 0.1889763779527559
          },
          {
            "duration": 0.04545450000000528,
            "durationTicks": 48,
            "midi": 66,
            "name": "F#4",
            "ticks": 153600,
            "time": 145.4544,
            "velocity": 0.1889763779527559
          },
          {
            "duration": 0.04545450000000528,
            "durationTicks": 48,
            "midi": 82,
            "name": "A#5",
            "ticks": 153984,
            "time": 145.818036,
            "velocity": 0.1889763779527559
          },
          {
            "duration": 0.04545450000000528,
            "durationTicks": 48,
            "midi": 73,
            "name": "C#5",
            "ticks": 153984,
            "time": 145.818036,
            "velocity": 0.1889763779527559
          },
          {
            "duration": 0.04545450000000528,
            "durationTicks": 48,
            "midi": 70,
            "name": "A#4",
            "ticks": 153984,
            "time": 145.818036,
            "velocity": 0.1889763779527559
          },
          {
            "duration": 0.04545450000000528,
            "durationTicks": 48,
            "midi": 68,
            "name": "G#4",
            "ticks": 154176,
            "time": 145.999854,
            "velocity": 0.1889763779527559
          },
          {
            "duration": 0.04545450000000528,
            "durationTicks": 48,
            "midi": 71,
            "name": "B4",
            "ticks": 154176,
            "time": 145.999854,
            "velocity": 0.1889763779527559
          },
          {
            "duration": 0.04545450000000528,
            "durationTicks": 48,
            "midi": 80,
            "name": "G#5",
            "ticks": 154176,
            "time": 145.999854,
            "velocity": 0.1889763779527559
          },
          {
            "duration": 0.04545450000000528,
            "durationTicks": 48,
            "midi": 70,
            "name": "A#4",
            "ticks": 154368,
            "time": 146.181672,
            "velocity": 0.1889763779527559
          },
          {
            "duration": 0.04545450000000528,
            "durationTicks": 48,
            "midi": 66,
            "name": "F#4",
            "ticks": 154368,
            "time": 146.181672,
            "velocity": 0.1889763779527559
          },
          {
            "duration": 0.04545450000000528,
            "durationTicks": 48,
            "midi": 78,
            "name": "F#5",
            "ticks": 154368,
            "time": 146.181672,
            "velocity": 0.1889763779527559
          },
          {
            "duration": 0.04545450000000528,
            "durationTicks": 48,
            "midi": 80,
            "name": "G#5",
            "ticks": 154944,
            "time": 146.727126,
            "velocity": 0.1889763779527559
          },
          {
            "duration": 0.04545450000000528,
            "durationTicks": 48,
            "midi": 78,
            "name": "F#5",
            "ticks": 154944,
            "time": 146.727126,
            "velocity": 0.1889763779527559
          },
          {
            "duration": 0.04545450000000528,
            "durationTicks": 48,
            "midi": 68,
            "name": "G#4",
            "ticks": 154944,
            "time": 146.727126,
            "velocity": 0.1889763779527559
          },
          {
            "duration": 0.04545450000000528,
            "durationTicks": 48,
            "midi": 66,
            "name": "F#4",
            "ticks": 155328,
            "time": 147.090762,
            "velocity": 0.1889763779527559
          },
          {
            "duration": 0.04545450000000528,
            "durationTicks": 48,
            "midi": 78,
            "name": "F#5",
            "ticks": 155328,
            "time": 147.090762,
            "velocity": 0.1889763779527559
          },
          {
            "duration": 0.04545450000000528,
            "durationTicks": 48,
            "midi": 75,
            "name": "D#5",
            "ticks": 155328,
            "time": 147.090762,
            "velocity": 0.1889763779527559
          },
          {
            "duration": 0.04545450000000528,
            "durationTicks": 48,
            "midi": 68,
            "name": "G#4",
            "ticks": 155520,
            "time": 147.27258,
            "velocity": 0.1889763779527559
          },
          {
            "duration": 0.04545450000000528,
            "durationTicks": 48,
            "midi": 80,
            "name": "G#5",
            "ticks": 155520,
            "time": 147.27258,
            "velocity": 0.1889763779527559
          },
          {
            "duration": 0.04545450000000528,
            "durationTicks": 48,
            "midi": 78,
            "name": "F#5",
            "ticks": 155520,
            "time": 147.27258,
            "velocity": 0.1889763779527559
          },
          {
            "duration": 0.04545450000000528,
            "durationTicks": 48,
            "midi": 66,
            "name": "F#4",
            "ticks": 155712,
            "time": 147.454398,
            "velocity": 0.1889763779527559
          },
          {
            "duration": 0.04545450000000528,
            "durationTicks": 48,
            "midi": 78,
            "name": "F#5",
            "ticks": 155712,
            "time": 147.454398,
            "velocity": 0.1889763779527559
          },
          {
            "duration": 0.04545450000000528,
            "durationTicks": 48,
            "midi": 75,
            "name": "D#5",
            "ticks": 155712,
            "time": 147.454398,
            "velocity": 0.1889763779527559
          },
          {
            "duration": 0.04545449999997686,
            "durationTicks": 48,
            "midi": 78,
            "name": "F#5",
            "ticks": 155904,
            "time": 147.63621600000002,
            "velocity": 0.1889763779527559
          },
          {
            "duration": 0.04545449999997686,
            "durationTicks": 48,
            "midi": 68,
            "name": "G#4",
            "ticks": 155904,
            "time": 147.63621600000002,
            "velocity": 0.1889763779527559
          },
          {
            "duration": 0.04545449999997686,
            "durationTicks": 48,
            "midi": 80,
            "name": "G#5",
            "ticks": 155904,
            "time": 147.63621600000002,
            "velocity": 0.1889763779527559
          },
          {
            "duration": 0.04545450000000528,
            "durationTicks": 48,
            "midi": 70,
            "name": "A#4",
            "ticks": 156288,
            "time": 147.999852,
            "velocity": 0.1889763779527559
          },
          {
            "duration": 0.04545450000000528,
            "durationTicks": 48,
            "midi": 82,
            "name": "A#5",
            "ticks": 156288,
            "time": 147.999852,
            "velocity": 0.1889763779527559
          },
          {
            "duration": 0.04545450000000528,
            "durationTicks": 48,
            "midi": 78,
            "name": "F#5",
            "ticks": 156288,
            "time": 147.999852,
            "velocity": 0.1889763779527559
          },
          {
            "duration": 0.04545449999997686,
            "durationTicks": 48,
            "midi": 63,
            "name": "D#4",
            "ticks": 156672,
            "time": 148.36348800000002,
            "velocity": 0.1889763779527559
          },
          {
            "duration": 0.04545449999997686,
            "durationTicks": 48,
            "midi": 75,
            "name": "D#5",
            "ticks": 156672,
            "time": 148.36348800000002,
            "velocity": 0.1889763779527559
          },
          {
            "duration": 0.04545449999997686,
            "durationTicks": 48,
            "midi": 66,
            "name": "F#4",
            "ticks": 156672,
            "time": 148.36348800000002,
            "velocity": 0.1889763779527559
          },
          {
            "duration": 0.04545450000000528,
            "durationTicks": 48,
            "midi": 70,
            "name": "A#4",
            "ticks": 157056,
            "time": 148.727124,
            "velocity": 0.1889763779527559
          },
          {
            "duration": 0.04545450000000528,
            "durationTicks": 48,
            "midi": 78,
            "name": "F#5",
            "ticks": 157056,
            "time": 148.727124,
            "velocity": 0.1889763779527559
          },
          {
            "duration": 0.04545450000000528,
            "durationTicks": 48,
            "midi": 82,
            "name": "A#5",
            "ticks": 157056,
            "time": 148.727124,
            "velocity": 0.1889763779527559
          },
          {
            "duration": 0.04545450000000528,
            "durationTicks": 48,
            "midi": 68,
            "name": "G#4",
            "ticks": 157248,
            "time": 148.908942,
            "velocity": 0.1889763779527559
          },
          {
            "duration": 0.04545450000000528,
            "durationTicks": 48,
            "midi": 80,
            "name": "G#5",
            "ticks": 157248,
            "time": 148.908942,
            "velocity": 0.1889763779527559
          },
          {
            "duration": 0.04545450000000528,
            "durationTicks": 48,
            "midi": 77,
            "name": "F5",
            "ticks": 157248,
            "time": 148.908942,
            "velocity": 0.1889763779527559
          },
          {
            "duration": 0.04545449999997686,
            "durationTicks": 48,
            "midi": 75,
            "name": "D#5",
            "ticks": 157440,
            "time": 149.09076000000002,
            "velocity": 0.1889763779527559
          },
          {
            "duration": 0.04545449999997686,
            "durationTicks": 48,
            "midi": 66,
            "name": "F#4",
            "ticks": 157440,
            "time": 149.09076000000002,
            "velocity": 0.1889763779527559
          },
          {
            "duration": 0.04545449999997686,
            "durationTicks": 48,
            "midi": 78,
            "name": "F#5",
            "ticks": 157440,
            "time": 149.09076000000002,
            "velocity": 0.1889763779527559
          },
          {
            "duration": 0.04545450000000528,
            "durationTicks": 48,
            "midi": 78,
            "name": "F#5",
            "ticks": 157824,
            "time": 149.454396,
            "velocity": 0.1889763779527559
          },
          {
            "duration": 0.04545450000000528,
            "durationTicks": 48,
            "midi": 66,
            "name": "F#4",
            "ticks": 157824,
            "time": 149.454396,
            "velocity": 0.1889763779527559
          },
          {
            "duration": 0.04545450000000528,
            "durationTicks": 48,
            "midi": 68,
            "name": "G#4",
            "ticks": 158016,
            "time": 149.636214,
            "velocity": 0.1889763779527559
          },
          {
            "duration": 0.04545450000000528,
            "durationTicks": 48,
            "midi": 80,
            "name": "G#5",
            "ticks": 158016,
            "time": 149.636214,
            "velocity": 0.1889763779527559
          },
          {
            "duration": 0.04545450000000528,
            "durationTicks": 48,
            "midi": 71,
            "name": "B4",
            "ticks": 158016,
            "time": 149.636214,
            "velocity": 0.1889763779527559
          },
          {
            "duration": 0.04545450000000528,
            "durationTicks": 48,
            "midi": 70,
            "name": "A#4",
            "ticks": 158400,
            "time": 149.99985,
            "velocity": 0.1889763779527559
          },
          {
            "duration": 0.04545450000000528,
            "durationTicks": 48,
            "midi": 66,
            "name": "F#4",
            "ticks": 158400,
            "time": 149.99985,
            "velocity": 0.1889763779527559
          },
          {
            "duration": 0.04545450000000528,
            "durationTicks": 48,
            "midi": 78,
            "name": "F#5",
            "ticks": 158400,
            "time": 149.99985,
            "velocity": 0.1889763779527559
          },
          {
            "duration": 0.04545450000000528,
            "durationTicks": 48,
            "midi": 71,
            "name": "B4",
            "ticks": 158592,
            "time": 150.181668,
            "velocity": 0.1889763779527559
          },
          {
            "duration": 0.04545450000000528,
            "durationTicks": 48,
            "midi": 80,
            "name": "G#5",
            "ticks": 158592,
            "time": 150.181668,
            "velocity": 0.1889763779527559
          },
          {
            "duration": 0.04545450000000528,
            "durationTicks": 48,
            "midi": 68,
            "name": "G#4",
            "ticks": 158592,
            "time": 150.181668,
            "velocity": 0.1889763779527559
          },
          {
            "duration": 0.04545450000000528,
            "durationTicks": 48,
            "midi": 78,
            "name": "F#5",
            "ticks": 158784,
            "time": 150.363486,
            "velocity": 0.1889763779527559
          },
          {
            "duration": 0.04545450000000528,
            "durationTicks": 48,
            "midi": 82,
            "name": "A#5",
            "ticks": 158784,
            "time": 150.363486,
            "velocity": 0.1889763779527559
          },
          {
            "duration": 0.04545450000000528,
            "durationTicks": 48,
            "midi": 70,
            "name": "A#4",
            "ticks": 158784,
            "time": 150.363486,
            "velocity": 0.1889763779527559
          },
          {
            "duration": 0.04545449999997686,
            "durationTicks": 48,
            "midi": 80,
            "name": "G#5",
            "ticks": 158976,
            "time": 150.54530400000002,
            "velocity": 0.1889763779527559
          },
          {
            "duration": 0.04545449999997686,
            "durationTicks": 48,
            "midi": 68,
            "name": "G#4",
            "ticks": 158976,
            "time": 150.54530400000002,
            "velocity": 0.1889763779527559
          },
          {
            "duration": 0.04545449999997686,
            "durationTicks": 48,
            "midi": 77,
            "name": "F5",
            "ticks": 158976,
            "time": 150.54530400000002,
            "velocity": 0.1889763779527559
          },
          {
            "duration": 0.04545450000000528,
            "durationTicks": 48,
            "midi": 75,
            "name": "D#5",
            "ticks": 159360,
            "time": 150.90894,
            "velocity": 0.1889763779527559
          },
          {
            "duration": 0.04545450000000528,
            "durationTicks": 48,
            "midi": 78,
            "name": "F#5",
            "ticks": 159360,
            "time": 150.90894,
            "velocity": 0.1889763779527559
          },
          {
            "duration": 0.04545450000000528,
            "durationTicks": 48,
            "midi": 66,
            "name": "F#4",
            "ticks": 159360,
            "time": 150.90894,
            "velocity": 0.1889763779527559
          },
          {
            "duration": 0.04545450000000528,
            "durationTicks": 48,
            "midi": 61,
            "name": "C#4",
            "ticks": 159744,
            "time": 151.27257600000002,
            "velocity": 0.1889763779527559
          },
          {
            "duration": 0.04545450000000528,
            "durationTicks": 48,
            "midi": 70,
            "name": "A#4",
            "ticks": 159744,
            "time": 151.27257600000002,
            "velocity": 0.1889763779527559
          },
          {
            "duration": 0.04545450000000528,
            "durationTicks": 48,
            "midi": 73,
            "name": "C#5",
            "ticks": 159744,
            "time": 151.27257600000002,
            "velocity": 0.1889763779527559
          },
          {
            "duration": 0.04545450000000528,
            "durationTicks": 48,
            "midi": 78,
            "name": "F#5",
            "ticks": 160128,
            "time": 151.636212,
            "velocity": 0.1889763779527559
          },
          {
            "duration": 0.04545450000000528,
            "durationTicks": 48,
            "midi": 70,
            "name": "A#4",
            "ticks": 160128,
            "time": 151.636212,
            "velocity": 0.1889763779527559
          },
          {
            "duration": 0.04545450000000528,
            "durationTicks": 48,
            "midi": 82,
            "name": "A#5",
            "ticks": 160128,
            "time": 151.636212,
            "velocity": 0.1889763779527559
          },
          {
            "duration": 0.04545450000000528,
            "durationTicks": 48,
            "midi": 68,
            "name": "G#4",
            "ticks": 160320,
            "time": 151.81803,
            "velocity": 0.1889763779527559
          },
          {
            "duration": 0.04545450000000528,
            "durationTicks": 48,
            "midi": 77,
            "name": "F5",
            "ticks": 160320,
            "time": 151.81803,
            "velocity": 0.1889763779527559
          },
          {
            "duration": 0.04545450000000528,
            "durationTicks": 48,
            "midi": 80,
            "name": "G#5",
            "ticks": 160320,
            "time": 151.81803,
            "velocity": 0.1889763779527559
          },
          {
            "duration": 0.04545450000000528,
            "durationTicks": 48,
            "midi": 75,
            "name": "D#5",
            "ticks": 160512,
            "time": 151.99984800000001,
            "velocity": 0.1889763779527559
          },
          {
            "duration": 0.04545450000000528,
            "durationTicks": 48,
            "midi": 78,
            "name": "F#5",
            "ticks": 160512,
            "time": 151.99984800000001,
            "velocity": 0.1889763779527559
          },
          {
            "duration": 0.04545450000000528,
            "durationTicks": 48,
            "midi": 66,
            "name": "F#4",
            "ticks": 160512,
            "time": 151.99984800000001,
            "velocity": 0.1889763779527559
          },
          {
            "duration": 0.04545450000000528,
            "durationTicks": 48,
            "midi": 78,
            "name": "F#5",
            "ticks": 161088,
            "time": 152.545302,
            "velocity": 0.1889763779527559
          },
          {
            "duration": 0.04545450000000528,
            "durationTicks": 48,
            "midi": 80,
            "name": "G#5",
            "ticks": 161088,
            "time": 152.545302,
            "velocity": 0.1889763779527559
          },
          {
            "duration": 0.04545450000000528,
            "durationTicks": 48,
            "midi": 68,
            "name": "G#4",
            "ticks": 161088,
            "time": 152.545302,
            "velocity": 0.1889763779527559
          },
          {
            "duration": 0.04545450000000528,
            "durationTicks": 48,
            "midi": 66,
            "name": "F#4",
            "ticks": 161472,
            "time": 152.908938,
            "velocity": 0.1889763779527559
          },
          {
            "duration": 0.04545450000000528,
            "durationTicks": 48,
            "midi": 75,
            "name": "D#5",
            "ticks": 161472,
            "time": 152.908938,
            "velocity": 0.1889763779527559
          },
          {
            "duration": 0.04545450000000528,
            "durationTicks": 48,
            "midi": 78,
            "name": "F#5",
            "ticks": 161472,
            "time": 152.908938,
            "velocity": 0.1889763779527559
          },
          {
            "duration": 0.04545450000000528,
            "durationTicks": 48,
            "midi": 78,
            "name": "F#5",
            "ticks": 161664,
            "time": 153.090756,
            "velocity": 0.1889763779527559
          },
          {
            "duration": 0.04545450000000528,
            "durationTicks": 48,
            "midi": 68,
            "name": "G#4",
            "ticks": 161664,
            "time": 153.090756,
            "velocity": 0.1889763779527559
          },
          {
            "duration": 0.04545450000000528,
            "durationTicks": 48,
            "midi": 80,
            "name": "G#5",
            "ticks": 161664,
            "time": 153.090756,
            "velocity": 0.1889763779527559
          },
          {
            "duration": 0.04545449999997686,
            "durationTicks": 48,
            "midi": 75,
            "name": "D#5",
            "ticks": 161856,
            "time": 153.27257400000002,
            "velocity": 0.1889763779527559
          },
          {
            "duration": 0.04545449999997686,
            "durationTicks": 48,
            "midi": 78,
            "name": "F#5",
            "ticks": 161856,
            "time": 153.27257400000002,
            "velocity": 0.1889763779527559
          },
          {
            "duration": 0.04545449999997686,
            "durationTicks": 48,
            "midi": 66,
            "name": "F#4",
            "ticks": 161856,
            "time": 153.27257400000002,
            "velocity": 0.1889763779527559
          },
          {
            "duration": 0.04545450000000528,
            "durationTicks": 48,
            "midi": 68,
            "name": "G#4",
            "ticks": 162048,
            "time": 153.454392,
            "velocity": 0.1889763779527559
          },
          {
            "duration": 0.04545450000000528,
            "durationTicks": 48,
            "midi": 80,
            "name": "G#5",
            "ticks": 162048,
            "time": 153.454392,
            "velocity": 0.1889763779527559
          },
          {
            "duration": 0.04545450000000528,
            "durationTicks": 48,
            "midi": 78,
            "name": "F#5",
            "ticks": 162048,
            "time": 153.454392,
            "velocity": 0.1889763779527559
          },
          {
            "duration": 0.04545450000000528,
            "durationTicks": 48,
            "midi": 70,
            "name": "A#4",
            "ticks": 162432,
            "time": 153.818028,
            "velocity": 0.1889763779527559
          },
          {
            "duration": 0.04545450000000528,
            "durationTicks": 48,
            "midi": 78,
            "name": "F#5",
            "ticks": 162432,
            "time": 153.818028,
            "velocity": 0.1889763779527559
          },
          {
            "duration": 0.04545450000000528,
            "durationTicks": 48,
            "midi": 82,
            "name": "A#5",
            "ticks": 162432,
            "time": 153.818028,
            "velocity": 0.1889763779527559
          },
          {
            "duration": 0.04545450000000528,
            "durationTicks": 48,
            "midi": 85,
            "name": "C#6",
            "ticks": 162816,
            "time": 154.181664,
            "velocity": 0.1889763779527559
          },
          {
            "duration": 0.04545450000000528,
            "durationTicks": 48,
            "midi": 73,
            "name": "C#5",
            "ticks": 162816,
            "time": 154.181664,
            "velocity": 0.1889763779527559
          },
          {
            "duration": 0.04545450000000528,
            "durationTicks": 48,
            "midi": 82,
            "name": "A#5",
            "ticks": 162816,
            "time": 154.181664,
            "velocity": 0.1889763779527559
          },
          {
            "duration": 0.04545450000000528,
            "durationTicks": 48,
            "midi": 71,
            "name": "B4",
            "ticks": 163200,
            "time": 154.5453,
            "velocity": 0.1889763779527559
          },
          {
            "duration": 0.04545450000000528,
            "durationTicks": 48,
            "midi": 83,
            "name": "B5",
            "ticks": 163200,
            "time": 154.5453,
            "velocity": 0.1889763779527559
          },
          {
            "duration": 0.04545450000000528,
            "durationTicks": 48,
            "midi": 80,
            "name": "G#5",
            "ticks": 163200,
            "time": 154.5453,
            "velocity": 0.1889763779527559
          },
          {
            "duration": 0.04545449999997686,
            "durationTicks": 48,
            "midi": 82,
            "name": "A#5",
            "ticks": 163392,
            "time": 154.72711800000002,
            "velocity": 0.1889763779527559
          },
          {
            "duration": 0.04545449999997686,
            "durationTicks": 48,
            "midi": 70,
            "name": "A#4",
            "ticks": 163392,
            "time": 154.72711800000002,
            "velocity": 0.1889763779527559
          },
          {
            "duration": 0.04545449999997686,
            "durationTicks": 48,
            "midi": 78,
            "name": "F#5",
            "ticks": 163392,
            "time": 154.72711800000002,
            "velocity": 0.1889763779527559
          },
          {
            "duration": 0.04545450000000528,
            "durationTicks": 48,
            "midi": 78,
            "name": "F#5",
            "ticks": 163584,
            "time": 154.908936,
            "velocity": 0.1889763779527559
          },
          {
            "duration": 0.04545450000000528,
            "durationTicks": 48,
            "midi": 75,
            "name": "D#5",
            "ticks": 163584,
            "time": 154.908936,
            "velocity": 0.1889763779527559
          },
          {
            "duration": 0.04545450000000528,
            "durationTicks": 48,
            "midi": 66,
            "name": "F#4",
            "ticks": 163584,
            "time": 154.908936,
            "velocity": 0.1889763779527559
          },
          {
            "duration": 0.04545450000000528,
            "durationTicks": 48,
            "midi": 66,
            "name": "F#4",
            "ticks": 163968,
            "time": 155.272572,
            "velocity": 0.1889763779527559
          },
          {
            "duration": 0.04545450000000528,
            "durationTicks": 48,
            "midi": 78,
            "name": "F#5",
            "ticks": 163968,
            "time": 155.272572,
            "velocity": 0.1889763779527559
          },
          {
            "duration": 0.04545449999997686,
            "durationTicks": 48,
            "midi": 71,
            "name": "B4",
            "ticks": 164160,
            "time": 155.45439000000002,
            "velocity": 0.1889763779527559
          },
          {
            "duration": 0.04545449999997686,
            "durationTicks": 48,
            "midi": 80,
            "name": "G#5",
            "ticks": 164160,
            "time": 155.45439000000002,
            "velocity": 0.1889763779527559
          },
          {
            "duration": 0.04545449999997686,
            "durationTicks": 48,
            "midi": 68,
            "name": "G#4",
            "ticks": 164160,
            "time": 155.45439000000002,
            "velocity": 0.1889763779527559
          },
          {
            "duration": 0.04545450000000528,
            "durationTicks": 48,
            "midi": 68,
            "name": "G#4",
            "ticks": 164544,
            "time": 155.818026,
            "velocity": 0.1889763779527559
          },
          {
            "duration": 0.04545450000000528,
            "durationTicks": 48,
            "midi": 71,
            "name": "B4",
            "ticks": 164544,
            "time": 155.818026,
            "velocity": 0.1889763779527559
          },
          {
            "duration": 0.04545450000000528,
            "durationTicks": 48,
            "midi": 80,
            "name": "G#5",
            "ticks": 164544,
            "time": 155.818026,
            "velocity": 0.1889763779527559
          },
          {
            "duration": 0.04545450000000528,
            "durationTicks": 48,
            "midi": 78,
            "name": "F#5",
            "ticks": 164736,
            "time": 155.999844,
            "velocity": 0.1889763779527559
          },
          {
            "duration": 0.04545450000000528,
            "durationTicks": 48,
            "midi": 82,
            "name": "A#5",
            "ticks": 164736,
            "time": 155.999844,
            "velocity": 0.1889763779527559
          },
          {
            "duration": 0.04545450000000528,
            "durationTicks": 48,
            "midi": 70,
            "name": "A#4",
            "ticks": 164736,
            "time": 155.999844,
            "velocity": 0.1889763779527559
          },
          {
            "duration": 0.04545450000000528,
            "durationTicks": 48,
            "midi": 80,
            "name": "G#5",
            "ticks": 165120,
            "time": 156.36348,
            "velocity": 0.1889763779527559
          },
          {
            "duration": 0.04545450000000528,
            "durationTicks": 48,
            "midi": 71,
            "name": "B4",
            "ticks": 165120,
            "time": 156.36348,
            "velocity": 0.1889763779527559
          },
          {
            "duration": 0.04545450000000528,
            "durationTicks": 48,
            "midi": 68,
            "name": "G#4",
            "ticks": 165120,
            "time": 156.36348,
            "velocity": 0.1889763779527559
          },
          {
            "duration": 0.4090904999999907,
            "durationTicks": 432,
            "midi": 63,
            "name": "D#4",
            "ticks": 165120,
            "time": 156.36348,
            "velocity": 0.1889763779527559
          },
          {
            "duration": 0.04545450000000528,
            "durationTicks": 48,
            "midi": 75,
            "name": "D#5",
            "ticks": 165504,
            "time": 156.727116,
            "velocity": 0.1889763779527559
          },
          {
            "duration": 0.04545450000000528,
            "durationTicks": 48,
            "midi": 66,
            "name": "F#4",
            "ticks": 165504,
            "time": 156.727116,
            "velocity": 0.1889763779527559
          },
          {
            "duration": 0.04545450000000528,
            "durationTicks": 48,
            "midi": 78,
            "name": "F#5",
            "ticks": 165504,
            "time": 156.727116,
            "velocity": 0.1889763779527559
          },
          {
            "duration": 0.04545450000000528,
            "durationTicks": 48,
            "midi": 73,
            "name": "C#5",
            "ticks": 165888,
            "time": 157.090752,
            "velocity": 0.1889763779527559
          },
          {
            "duration": 0.04545450000000528,
            "durationTicks": 48,
            "midi": 85,
            "name": "C#6",
            "ticks": 165888,
            "time": 157.090752,
            "velocity": 0.1889763779527559
          },
          {
            "duration": 0.04545450000000528,
            "durationTicks": 48,
            "midi": 78,
            "name": "F#5",
            "ticks": 165888,
            "time": 157.090752,
            "velocity": 0.1889763779527559
          },
          {
            "duration": 0.04545450000000528,
            "durationTicks": 48,
            "midi": 85,
            "name": "C#6",
            "ticks": 166272,
            "time": 157.454388,
            "velocity": 0.1889763779527559
          },
          {
            "duration": 0.04545450000000528,
            "durationTicks": 48,
            "midi": 82,
            "name": "A#5",
            "ticks": 166272,
            "time": 157.454388,
            "velocity": 0.1889763779527559
          },
          {
            "duration": 0.04545450000000528,
            "durationTicks": 48,
            "midi": 94,
            "name": "A#6",
            "ticks": 166272,
            "time": 157.454388,
            "velocity": 0.1889763779527559
          },
          {
            "duration": 0.04545449999997686,
            "durationTicks": 48,
            "midi": 83,
            "name": "B5",
            "ticks": 166464,
            "time": 157.63620600000002,
            "velocity": 0.1889763779527559
          },
          {
            "duration": 0.04545449999997686,
            "durationTicks": 48,
            "midi": 80,
            "name": "G#5",
            "ticks": 166464,
            "time": 157.63620600000002,
            "velocity": 0.1889763779527559
          },
          {
            "duration": 0.04545449999997686,
            "durationTicks": 48,
            "midi": 92,
            "name": "G#6",
            "ticks": 166464,
            "time": 157.63620600000002,
            "velocity": 0.1889763779527559
          },
          {
            "duration": 0.04545450000000528,
            "durationTicks": 48,
            "midi": 90,
            "name": "F#6",
            "ticks": 166656,
            "time": 157.818024,
            "velocity": 0.1889763779527559
          },
          {
            "duration": 0.04545450000000528,
            "durationTicks": 48,
            "midi": 82,
            "name": "A#5",
            "ticks": 166656,
            "time": 157.818024,
            "velocity": 0.1889763779527559
          },
          {
            "duration": 0.04545450000000528,
            "durationTicks": 48,
            "midi": 78,
            "name": "F#5",
            "ticks": 166656,
            "time": 157.818024,
            "velocity": 0.1889763779527559
          },
          {
            "duration": 0.04545450000000528,
            "durationTicks": 48,
            "midi": 90,
            "name": "F#6",
            "ticks": 167232,
            "time": 158.36347800000001,
            "velocity": 0.1889763779527559
          },
          {
            "duration": 0.04545450000000528,
            "durationTicks": 48,
            "midi": 92,
            "name": "G#6",
            "ticks": 167232,
            "time": 158.36347800000001,
            "velocity": 0.1889763779527559
          },
          {
            "duration": 0.04545450000000528,
            "durationTicks": 48,
            "midi": 80,
            "name": "G#5",
            "ticks": 167232,
            "time": 158.36347800000001,
            "velocity": 0.1889763779527559
          },
          {
            "duration": 0.04545450000000528,
            "durationTicks": 48,
            "midi": 87,
            "name": "D#6",
            "ticks": 167616,
            "time": 158.727114,
            "velocity": 0.1889763779527559
          },
          {
            "duration": 0.04545450000000528,
            "durationTicks": 48,
            "midi": 90,
            "name": "F#6",
            "ticks": 167616,
            "time": 158.727114,
            "velocity": 0.1889763779527559
          },
          {
            "duration": 0.04545450000000528,
            "durationTicks": 48,
            "midi": 78,
            "name": "F#5",
            "ticks": 167616,
            "time": 158.727114,
            "velocity": 0.1889763779527559
          },
          {
            "duration": 0.04545450000000528,
            "durationTicks": 48,
            "midi": 92,
            "name": "G#6",
            "ticks": 167808,
            "time": 158.908932,
            "velocity": 0.1889763779527559
          },
          {
            "duration": 0.04545450000000528,
            "durationTicks": 48,
            "midi": 90,
            "name": "F#6",
            "ticks": 167808,
            "time": 158.908932,
            "velocity": 0.1889763779527559
          },
          {
            "duration": 0.04545450000000528,
            "durationTicks": 48,
            "midi": 80,
            "name": "G#5",
            "ticks": 167808,
            "time": 158.908932,
            "velocity": 0.1889763779527559
          },
          {
            "duration": 0.04545450000000528,
            "durationTicks": 48,
            "midi": 87,
            "name": "D#6",
            "ticks": 168000,
            "time": 159.09075,
            "velocity": 0.1889763779527559
          },
          {
            "duration": 0.04545450000000528,
            "durationTicks": 48,
            "midi": 90,
            "name": "F#6",
            "ticks": 168000,
            "time": 159.09075,
            "velocity": 0.1889763779527559
          },
          {
            "duration": 0.04545450000000528,
            "durationTicks": 48,
            "midi": 78,
            "name": "F#5",
            "ticks": 168000,
            "time": 159.09075,
            "velocity": 0.1889763779527559
          },
          {
            "duration": 0.04545450000000528,
            "durationTicks": 48,
            "midi": 92,
            "name": "G#6",
            "ticks": 168192,
            "time": 159.272568,
            "velocity": 0.1889763779527559
          },
          {
            "duration": 0.04545450000000528,
            "durationTicks": 48,
            "midi": 90,
            "name": "F#6",
            "ticks": 168192,
            "time": 159.272568,
            "velocity": 0.1889763779527559
          },
          {
            "duration": 0.04545450000000528,
            "durationTicks": 48,
            "midi": 80,
            "name": "G#5",
            "ticks": 168192,
            "time": 159.272568,
            "velocity": 0.1889763779527559
          },
          {
            "duration": 0.04545449999997686,
            "durationTicks": 48,
            "midi": 82,
            "name": "A#5",
            "ticks": 168576,
            "time": 159.63620400000002,
            "velocity": 0.1889763779527559
          },
          {
            "duration": 0.04545449999997686,
            "durationTicks": 48,
            "midi": 90,
            "name": "F#6",
            "ticks": 168576,
            "time": 159.63620400000002,
            "velocity": 0.1889763779527559
          },
          {
            "duration": 0.04545449999997686,
            "durationTicks": 48,
            "midi": 94,
            "name": "A#6",
            "ticks": 168576,
            "time": 159.63620400000002,
            "velocity": 0.1889763779527559
          },
          {
            "duration": 0.04545450000000528,
            "durationTicks": 48,
            "midi": 78,
            "name": "F#5",
            "ticks": 168960,
            "time": 159.99984,
            "velocity": 0.1889763779527559
          },
          {
            "duration": 0.04545450000000528,
            "durationTicks": 48,
            "midi": 75,
            "name": "D#5",
            "ticks": 168960,
            "time": 159.99984,
            "velocity": 0.1889763779527559
          },
          {
            "duration": 0.04545450000000528,
            "durationTicks": 48,
            "midi": 87,
            "name": "D#6",
            "ticks": 168960,
            "time": 159.99984,
            "velocity": 0.1889763779527559
          },
          {
            "duration": 0.04545449999997686,
            "durationTicks": 48,
            "midi": 90,
            "name": "F#6",
            "ticks": 169344,
            "time": 160.36347600000002,
            "velocity": 0.1889763779527559
          },
          {
            "duration": 0.04545449999997686,
            "durationTicks": 48,
            "midi": 94,
            "name": "A#6",
            "ticks": 169344,
            "time": 160.36347600000002,
            "velocity": 0.1889763779527559
          },
          {
            "duration": 0.04545449999997686,
            "durationTicks": 48,
            "midi": 82,
            "name": "A#5",
            "ticks": 169344,
            "time": 160.36347600000002,
            "velocity": 0.1889763779527559
          },
          {
            "duration": 0.04545450000000528,
            "durationTicks": 48,
            "midi": 80,
            "name": "G#5",
            "ticks": 169536,
            "time": 160.545294,
            "velocity": 0.1889763779527559
          },
          {
            "duration": 0.04545450000000528,
            "durationTicks": 48,
            "midi": 89,
            "name": "F6",
            "ticks": 169536,
            "time": 160.545294,
            "velocity": 0.1889763779527559
          },
          {
            "duration": 0.04545450000000528,
            "durationTicks": 48,
            "midi": 92,
            "name": "G#6",
            "ticks": 169536,
            "time": 160.545294,
            "velocity": 0.1889763779527559
          },
          {
            "duration": 0.04545450000000528,
            "durationTicks": 48,
            "midi": 90,
            "name": "F#6",
            "ticks": 169728,
            "time": 160.727112,
            "velocity": 0.1889763779527559
          },
          {
            "duration": 0.04545450000000528,
            "durationTicks": 48,
            "midi": 78,
            "name": "F#5",
            "ticks": 169728,
            "time": 160.727112,
            "velocity": 0.1889763779527559
          },
          {
            "duration": 0.04545450000000528,
            "durationTicks": 48,
            "midi": 87,
            "name": "D#6",
            "ticks": 169728,
            "time": 160.727112,
            "velocity": 0.1889763779527559
          },
          {
            "duration": 0.04545449999997686,
            "durationTicks": 48,
            "midi": 90,
            "name": "F#6",
            "ticks": 170112,
            "time": 161.09074800000002,
            "velocity": 0.1889763779527559
          },
          {
            "duration": 0.04545449999997686,
            "durationTicks": 48,
            "midi": 78,
            "name": "F#5",
            "ticks": 170112,
            "time": 161.09074800000002,
            "velocity": 0.1889763779527559
          },
          {
            "duration": 0.04545450000000528,
            "durationTicks": 48,
            "midi": 83,
            "name": "B5",
            "ticks": 170304,
            "time": 161.272566,
            "velocity": 0.1889763779527559
          },
          {
            "duration": 0.04545450000000528,
            "durationTicks": 48,
            "midi": 92,
            "name": "G#6",
            "ticks": 170304,
            "time": 161.272566,
            "velocity": 0.1889763779527559
          },
          {
            "duration": 0.04545450000000528,
            "durationTicks": 48,
            "midi": 80,
            "name": "G#5",
            "ticks": 170304,
            "time": 161.272566,
            "velocity": 0.1889763779527559
          },
          {
            "duration": 0.04545450000000528,
            "durationTicks": 48,
            "midi": 82,
            "name": "A#5",
            "ticks": 170688,
            "time": 161.636202,
            "velocity": 0.1889763779527559
          },
          {
            "duration": 0.04545450000000528,
            "durationTicks": 48,
            "midi": 90,
            "name": "F#6",
            "ticks": 170688,
            "time": 161.636202,
            "velocity": 0.1889763779527559
          },
          {
            "duration": 0.04545450000000528,
            "durationTicks": 48,
            "midi": 78,
            "name": "F#5",
            "ticks": 170688,
            "time": 161.636202,
            "velocity": 0.1889763779527559
          },
          {
            "duration": 0.04545449999997686,
            "durationTicks": 48,
            "midi": 80,
            "name": "G#5",
            "ticks": 170880,
            "time": 161.81802000000002,
            "velocity": 0.1889763779527559
          },
          {
            "duration": 0.04545449999997686,
            "durationTicks": 48,
            "midi": 83,
            "name": "B5",
            "ticks": 170880,
            "time": 161.81802000000002,
            "velocity": 0.1889763779527559
          },
          {
            "duration": 0.04545449999997686,
            "durationTicks": 48,
            "midi": 92,
            "name": "G#6",
            "ticks": 170880,
            "time": 161.81802000000002,
            "velocity": 0.1889763779527559
          },
          {
            "duration": 0.04545450000000528,
            "durationTicks": 48,
            "midi": 90,
            "name": "F#6",
            "ticks": 171072,
            "time": 161.999838,
            "velocity": 0.1889763779527559
          },
          {
            "duration": 0.04545450000000528,
            "durationTicks": 48,
            "midi": 94,
            "name": "A#6",
            "ticks": 171072,
            "time": 161.999838,
            "velocity": 0.1889763779527559
          },
          {
            "duration": 0.04545450000000528,
            "durationTicks": 48,
            "midi": 82,
            "name": "A#5",
            "ticks": 171072,
            "time": 161.999838,
            "velocity": 0.1889763779527559
          },
          {
            "duration": 0.04545450000000528,
            "durationTicks": 48,
            "midi": 89,
            "name": "F6",
            "ticks": 171264,
            "time": 162.181656,
            "velocity": 0.1889763779527559
          },
          {
            "duration": 0.04545450000000528,
            "durationTicks": 48,
            "midi": 92,
            "name": "G#6",
            "ticks": 171264,
            "time": 162.181656,
            "velocity": 0.1889763779527559
          },
          {
            "duration": 0.04545450000000528,
            "durationTicks": 48,
            "midi": 80,
            "name": "G#5",
            "ticks": 171264,
            "time": 162.181656,
            "velocity": 0.1889763779527559
          },
          {
            "duration": 0.04545449999997686,
            "durationTicks": 48,
            "midi": 90,
            "name": "F#6",
            "ticks": 171648,
            "time": 162.54529200000002,
            "velocity": 0.1889763779527559
          },
          {
            "duration": 0.04545449999997686,
            "durationTicks": 48,
            "midi": 78,
            "name": "F#5",
            "ticks": 171648,
            "time": 162.54529200000002,
            "velocity": 0.1889763779527559
          },
          {
            "duration": 0.04545449999997686,
            "durationTicks": 48,
            "midi": 87,
            "name": "D#6",
            "ticks": 171648,
            "time": 162.54529200000002,
            "velocity": 0.1889763779527559
          },
          {
            "duration": 0.04545450000000528,
            "durationTicks": 48,
            "midi": 73,
            "name": "C#5",
            "ticks": 172032,
            "time": 162.908928,
            "velocity": 0.1889763779527559
          },
          {
            "duration": 0.04545450000000528,
            "durationTicks": 48,
            "midi": 82,
            "name": "A#5",
            "ticks": 172032,
            "time": 162.908928,
            "velocity": 0.1889763779527559
          },
          {
            "duration": 0.04545450000000528,
            "durationTicks": 48,
            "midi": 85,
            "name": "C#6",
            "ticks": 172032,
            "time": 162.908928,
            "velocity": 0.1889763779527559
          },
          {
            "duration": 0.04545449999997686,
            "durationTicks": 48,
            "midi": 90,
            "name": "F#6",
            "ticks": 172416,
            "time": 163.27256400000002,
            "velocity": 0.1889763779527559
          },
          {
            "duration": 0.04545449999997686,
            "durationTicks": 48,
            "midi": 94,
            "name": "A#6",
            "ticks": 172416,
            "time": 163.27256400000002,
            "velocity": 0.1889763779527559
          },
          {
            "duration": 0.04545449999997686,
            "durationTicks": 48,
            "midi": 82,
            "name": "A#5",
            "ticks": 172416,
            "time": 163.27256400000002,
            "velocity": 0.1889763779527559
          },
          {
            "duration": 0.04545450000000528,
            "durationTicks": 48,
            "midi": 92,
            "name": "G#6",
            "ticks": 172608,
            "time": 163.454382,
            "velocity": 0.1889763779527559
          },
          {
            "duration": 0.04545450000000528,
            "durationTicks": 48,
            "midi": 80,
            "name": "G#5",
            "ticks": 172608,
            "time": 163.454382,
            "velocity": 0.1889763779527559
          },
          {
            "duration": 0.04545450000000528,
            "durationTicks": 48,
            "midi": 89,
            "name": "F6",
            "ticks": 172608,
            "time": 163.454382,
            "velocity": 0.1889763779527559
          },
          {
            "duration": 0.04545450000000528,
            "durationTicks": 48,
            "midi": 90,
            "name": "F#6",
            "ticks": 172800,
            "time": 163.6362,
            "velocity": 0.1889763779527559
          },
          {
            "duration": 0.04545450000000528,
            "durationTicks": 48,
            "midi": 87,
            "name": "D#6",
            "ticks": 172800,
            "time": 163.6362,
            "velocity": 0.1889763779527559
          },
          {
            "duration": 0.04545450000000528,
            "durationTicks": 48,
            "midi": 78,
            "name": "F#5",
            "ticks": 172800,
            "time": 163.6362,
            "velocity": 0.1889763779527559
          },
          {
            "duration": 0.04545450000000528,
            "durationTicks": 48,
            "midi": 90,
            "name": "F#6",
            "ticks": 173376,
            "time": 164.181654,
            "velocity": 0.1889763779527559
          },
          {
            "duration": 0.04545450000000528,
            "durationTicks": 48,
            "midi": 80,
            "name": "G#5",
            "ticks": 173376,
            "time": 164.181654,
            "velocity": 0.1889763779527559
          },
          {
            "duration": 0.04545450000000528,
            "durationTicks": 48,
            "midi": 92,
            "name": "G#6",
            "ticks": 173376,
            "time": 164.181654,
            "velocity": 0.1889763779527559
          },
          {
            "duration": 0.04545450000000528,
            "durationTicks": 48,
            "midi": 90,
            "name": "F#6",
            "ticks": 173760,
            "time": 164.54529,
            "velocity": 0.1889763779527559
          },
          {
            "duration": 0.04545450000000528,
            "durationTicks": 48,
            "midi": 78,
            "name": "F#5",
            "ticks": 173760,
            "time": 164.54529,
            "velocity": 0.1889763779527559
          },
          {
            "duration": 0.04545450000000528,
            "durationTicks": 48,
            "midi": 87,
            "name": "D#6",
            "ticks": 173760,
            "time": 164.54529,
            "velocity": 0.1889763779527559
          },
          {
            "duration": 0.04545450000000528,
            "durationTicks": 48,
            "midi": 80,
            "name": "G#5",
            "ticks": 173952,
            "time": 164.72710800000002,
            "velocity": 0.1889763779527559
          },
          {
            "duration": 0.04545450000000528,
            "durationTicks": 48,
            "midi": 90,
            "name": "F#6",
            "ticks": 173952,
            "time": 164.72710800000002,
            "velocity": 0.1889763779527559
          },
          {
            "duration": 0.04545450000000528,
            "durationTicks": 48,
            "midi": 92,
            "name": "G#6",
            "ticks": 173952,
            "time": 164.72710800000002,
            "velocity": 0.1889763779527559
          },
          {
            "duration": 0.04545450000000528,
            "durationTicks": 48,
            "midi": 87,
            "name": "D#6",
            "ticks": 174144,
            "time": 164.908926,
            "velocity": 0.1889763779527559
          },
          {
            "duration": 0.04545450000000528,
            "durationTicks": 48,
            "midi": 90,
            "name": "F#6",
            "ticks": 174144,
            "time": 164.908926,
            "velocity": 0.1889763779527559
          },
          {
            "duration": 0.04545450000000528,
            "durationTicks": 48,
            "midi": 78,
            "name": "F#5",
            "ticks": 174144,
            "time": 164.908926,
            "velocity": 0.1889763779527559
          },
          {
            "duration": 0.04545450000000528,
            "durationTicks": 48,
            "midi": 92,
            "name": "G#6",
            "ticks": 174336,
            "time": 165.090744,
            "velocity": 0.1889763779527559
          },
          {
            "duration": 0.04545450000000528,
            "durationTicks": 48,
            "midi": 90,
            "name": "F#6",
            "ticks": 174336,
            "time": 165.090744,
            "velocity": 0.1889763779527559
          },
          {
            "duration": 0.04545450000000528,
            "durationTicks": 48,
            "midi": 80,
            "name": "G#5",
            "ticks": 174336,
            "time": 165.090744,
            "velocity": 0.1889763779527559
          },
          {
            "duration": 0.04545450000000528,
            "durationTicks": 48,
            "midi": 82,
            "name": "A#5",
            "ticks": 174720,
            "time": 165.45438000000001,
            "velocity": 0.1889763779527559
          },
          {
            "duration": 0.04545450000000528,
            "durationTicks": 48,
            "midi": 90,
            "name": "F#6",
            "ticks": 174720,
            "time": 165.45438000000001,
            "velocity": 0.1889763779527559
          },
          {
            "duration": 0.04545450000000528,
            "durationTicks": 48,
            "midi": 94,
            "name": "A#6",
            "ticks": 174720,
            "time": 165.45438000000001,
            "velocity": 0.1889763779527559
          },
          {
            "duration": 0.04545450000000528,
            "durationTicks": 48,
            "midi": 85,
            "name": "C#6",
            "ticks": 175104,
            "time": 165.818016,
            "velocity": 0.1889763779527559
          },
          {
            "duration": 0.04545450000000528,
            "durationTicks": 48,
            "midi": 85,
            "name": "C#6",
            "ticks": 175104,
            "time": 165.818016,
            "velocity": 0.1889763779527559
          },
          {
            "duration": 0.04545450000000528,
            "durationTicks": 48,
            "midi": 94,
            "name": "A#6",
            "ticks": 175104,
            "time": 165.818016,
            "velocity": 0.1889763779527559
          },
          {
            "duration": 0.04545450000000528,
            "durationTicks": 48,
            "midi": 95,
            "name": "B6",
            "ticks": 175488,
            "time": 166.181652,
            "velocity": 0.1889763779527559
          },
          {
            "duration": 0.04545450000000528,
            "durationTicks": 48,
            "midi": 92,
            "name": "G#6",
            "ticks": 175488,
            "time": 166.181652,
            "velocity": 0.1889763779527559
          },
          {
            "duration": 0.04545450000000528,
            "durationTicks": 48,
            "midi": 83,
            "name": "B5",
            "ticks": 175488,
            "time": 166.181652,
            "velocity": 0.1889763779527559
          },
          {
            "duration": 0.04545450000000528,
            "durationTicks": 48,
            "midi": 90,
            "name": "F#6",
            "ticks": 175680,
            "time": 166.36347,
            "velocity": 0.1889763779527559
          },
          {
            "duration": 0.04545450000000528,
            "durationTicks": 48,
            "midi": 94,
            "name": "A#6",
            "ticks": 175680,
            "time": 166.36347,
            "velocity": 0.1889763779527559
          },
          {
            "duration": 0.04545450000000528,
            "durationTicks": 48,
            "midi": 82,
            "name": "A#5",
            "ticks": 175680,
            "time": 166.36347,
            "velocity": 0.1889763779527559
          },
          {
            "duration": 0.04545450000000528,
            "durationTicks": 48,
            "midi": 78,
            "name": "F#5",
            "ticks": 175872,
            "time": 166.545288,
            "velocity": 0.1889763779527559
          },
          {
            "duration": 0.04545450000000528,
            "durationTicks": 48,
            "midi": 87,
            "name": "D#6",
            "ticks": 175872,
            "time": 166.545288,
            "velocity": 0.1889763779527559
          },
          {
            "duration": 0.04545450000000528,
            "durationTicks": 48,
            "midi": 90,
            "name": "F#6",
            "ticks": 175872,
            "time": 166.545288,
            "velocity": 0.1889763779527559
          },
          {
            "duration": 0.04545450000000528,
            "durationTicks": 48,
            "midi": 90,
            "name": "F#6",
            "ticks": 176256,
            "time": 166.908924,
            "velocity": 0.1889763779527559
          },
          {
            "duration": 0.04545450000000528,
            "durationTicks": 48,
            "midi": 78,
            "name": "F#5",
            "ticks": 176256,
            "time": 166.908924,
            "velocity": 0.1889763779527559
          },
          {
            "duration": 0.04545450000000528,
            "durationTicks": 48,
            "midi": 92,
            "name": "G#6",
            "ticks": 176448,
            "time": 167.090742,
            "velocity": 0.1889763779527559
          },
          {
            "duration": 0.04545450000000528,
            "durationTicks": 48,
            "midi": 83,
            "name": "B5",
            "ticks": 176448,
            "time": 167.090742,
            "velocity": 0.1889763779527559
          },
          {
            "duration": 0.04545450000000528,
            "durationTicks": 48,
            "midi": 80,
            "name": "G#5",
            "ticks": 176448,
            "time": 167.090742,
            "velocity": 0.1889763779527559
          },
          {
            "duration": 0.04545449999997686,
            "durationTicks": 48,
            "midi": 80,
            "name": "G#5",
            "ticks": 176832,
            "time": 167.45437800000002,
            "velocity": 0.1889763779527559
          },
          {
            "duration": 0.04545449999997686,
            "durationTicks": 48,
            "midi": 83,
            "name": "B5",
            "ticks": 176832,
            "time": 167.45437800000002,
            "velocity": 0.1889763779527559
          },
          {
            "duration": 0.04545449999997686,
            "durationTicks": 48,
            "midi": 92,
            "name": "G#6",
            "ticks": 176832,
            "time": 167.45437800000002,
            "velocity": 0.1889763779527559
          },
          {
            "duration": 0.04545450000000528,
            "durationTicks": 48,
            "midi": 90,
            "name": "F#6",
            "ticks": 177024,
            "time": 167.636196,
            "velocity": 0.1889763779527559
          },
          {
            "duration": 0.04545450000000528,
            "durationTicks": 48,
            "midi": 94,
            "name": "A#6",
            "ticks": 177024,
            "time": 167.636196,
            "velocity": 0.1889763779527559
          },
          {
            "duration": 0.04545450000000528,
            "durationTicks": 48,
            "midi": 82,
            "name": "A#5",
            "ticks": 177024,
            "time": 167.636196,
            "velocity": 0.1889763779527559
          },
          {
            "duration": 0.04545450000000528,
            "durationTicks": 48,
            "midi": 80,
            "name": "G#5",
            "ticks": 177408,
            "time": 167.999832,
            "velocity": 0.1889763779527559
          },
          {
            "duration": 0.4090905000000191,
            "durationTicks": 432,
            "midi": 75,
            "name": "D#5",
            "ticks": 177408,
            "time": 167.999832,
            "velocity": 0.1889763779527559
          },
          {
            "duration": 0.04545450000000528,
            "durationTicks": 48,
            "midi": 92,
            "name": "G#6",
            "ticks": 177408,
            "time": 167.999832,
            "velocity": 0.1889763779527559
          },
          {
            "duration": 0.04545450000000528,
            "durationTicks": 48,
            "midi": 83,
            "name": "B5",
            "ticks": 177408,
            "time": 167.999832,
            "velocity": 0.1889763779527559
          },
          {
            "duration": 0.04545450000000528,
            "durationTicks": 48,
            "midi": 78,
            "name": "F#5",
            "ticks": 177792,
            "time": 168.363468,
            "velocity": 0.1889763779527559
          },
          {
            "duration": 0.04545450000000528,
            "durationTicks": 48,
            "midi": 90,
            "name": "F#6",
            "ticks": 177792,
            "time": 168.363468,
            "velocity": 0.1889763779527559
          },
          {
            "duration": 0.04545450000000528,
            "durationTicks": 48,
            "midi": 87,
            "name": "D#6",
            "ticks": 177792,
            "time": 168.363468,
            "velocity": 0.1889763779527559
          },
          {
            "duration": 1.5909075000000144,
            "durationTicks": 1680,
            "midi": 58,
            "name": "A#3",
            "ticks": 178176,
            "time": 168.727104,
            "velocity": 0.1889763779527559
          },
          {
            "duration": 1.5909075000000144,
            "durationTicks": 1680,
            "midi": 70,
            "name": "A#4",
            "ticks": 178176,
            "time": 168.727104,
            "velocity": 0.1889763779527559
          },
          {
            "duration": 1.5909075000000144,
            "durationTicks": 1680,
            "midi": 61,
            "name": "C#4",
            "ticks": 178176,
            "time": 168.727104,
            "velocity": 0.1889763779527559
          }
        ],
        "endOfTrackTicks": 179856
      }
    ]
  }