{
    "header": {
      "keySignatures": [],
      "meta": [],
      "name": "",
      "ppq": 384,
      "tempos": [
        {
          "bpm": 120,
          "ticks": 0
        }
      ],
      "timeSignatures": [
        {
          "ticks": 0,
          "timeSignature": [
            1,
            4
          ],
          "measures": 0
        }
      ]
    },
    "tracks": [
      {
        "channel": 0,
        "controlChanges": {},
        "pitchBends": [],
        "instrument": {
          "family": "synth lead",
          "number": 80,
          "name": "lead 1 (square)"
        },
        "name": "Smooth Synth",
        "notes": [
          {
            "duration": 0.9375,
            "durationTicks": 720,
            "midi": 59,
            "name": "B3",
            "ticks": 25344,
            "time": 33,
            "velocity": 0.3937007874015748
          },
          {
            "duration": 0.9375,
            "durationTicks": 720,
            "midi": 50,
            "name": "D3",
            "ticks": 25344,
            "time": 33,
            "velocity": 0.3937007874015748
          },
          {
            "duration": 0.9375,
            "durationTicks": 720,
            "midi": 55,
            "name": "G3",
            "ticks": 25344,
            "time": 33,
            "velocity": 0.3937007874015748
          },
          {
            "duration": 0.1875,
            "durationTicks": 144,
            "midi": 52,
            "name": "E3",
            "ticks": 26064,
            "time": 33.9375,
            "velocity": 0.3937007874015748
          },
          {
            "duration": 0.1875,
            "durationTicks": 144,
            "midi": 57,
            "name": "A3",
            "ticks": 26064,
            "time": 33.9375,
            "velocity": 0.3937007874015748
          },
          {
            "duration": 0.1875,
            "durationTicks": 144,
            "midi": 48,
            "name": "C3",
            "ticks": 26064,
            "time": 33.9375,
            "velocity": 0.3937007874015748
          },
          {
            "duration": 0.375,
            "durationTicks": 288,
            "midi": 55,
            "name": "G3",
            "ticks": 26208,
            "time": 34.125,
            "velocity": 0.3937007874015748
          },
          {
            "duration": 0.375,
            "durationTicks": 288,
            "midi": 59,
            "name": "B3",
            "ticks": 26208,
            "time": 34.125,
            "velocity": 0.3937007874015748
          },
          {
            "duration": 0.375,
            "durationTicks": 288,
            "midi": 50,
            "name": "D3",
            "ticks": 26208,
            "time": 34.125,
            "velocity": 0.3937007874015748
          },
          {
            "duration": 2.125,
            "durationTicks": 1632,
            "midi": 48,
            "name": "C3",
            "ticks": 26496,
            "time": 34.5,
            "velocity": 0.3937007874015748
          },
          {
            "duration": 2.125,
            "durationTicks": 1632,
            "midi": 52,
            "name": "E3",
            "ticks": 26496,
            "time": 34.5,
            "velocity": 0.3937007874015748
          },
          {
            "duration": 2.125,
            "durationTicks": 1632,
            "midi": 57,
            "name": "A3",
            "ticks": 26496,
            "time": 34.5,
            "velocity": 0.3937007874015748
          },
          {
            "duration": 0.375,
            "durationTicks": 288,
            "midi": 55,
            "name": "G3",
            "ticks": 28800,
            "time": 37.5,
            "velocity": 0.3937007874015748
          },
          {
            "duration": 0.375,
            "durationTicks": 288,
            "midi": 50,
            "name": "D3",
            "ticks": 28800,
            "time": 37.5,
            "velocity": 0.3937007874015748
          },
          {
            "duration": 0.375,
            "durationTicks": 288,
            "midi": 59,
            "name": "B3",
            "ticks": 28800,
            "time": 37.5,
            "velocity": 0.3937007874015748
          },
          {
            "duration": 0.1875,
            "durationTicks": 144,
            "midi": 50,
            "name": "D3",
            "ticks": 29088,
            "time": 37.875,
            "velocity": 0.3937007874015748
          },
          {
            "duration": 0.1875,
            "durationTicks": 144,
            "midi": 54,
            "name": "F#3",
            "ticks": 29088,
            "time": 37.875,
            "velocity": 0.3937007874015748
          },
          {
            "duration": 0.1875,
            "durationTicks": 144,
            "midi": 50,
            "name": "D3",
            "ticks": 29088,
            "time": 37.875,
            "velocity": 0.3937007874015748
          },
          {
            "duration": 0.1875,
            "durationTicks": 144,
            "midi": 57,
            "name": "A3",
            "ticks": 29088,
            "time": 37.875,
            "velocity": 0.3937007874015748
          },
          {
            "duration": 0.1875,
            "durationTicks": 144,
            "midi": 50,
            "name": "D3",
            "ticks": 29232,
            "time": 38.0625,
            "velocity": 0.3937007874015748
          },
          {
            "duration": 0.1875,
            "durationTicks": 144,
            "midi": 55,
            "name": "G3",
            "ticks": 29232,
            "time": 38.0625,
            "velocity": 0.3937007874015748
          },
          {
            "duration": 0.1875,
            "durationTicks": 144,
            "midi": 52,
            "name": "E3",
            "ticks": 29232,
            "time": 38.0625,
            "velocity": 0.3937007874015748
          },
          {
            "duration": 1.75,
            "durationTicks": 1344,
            "midi": 52,
            "name": "E3",
            "ticks": 29376,
            "time": 38.25,
            "velocity": 0.3937007874015748
          },
          {
            "duration": 1.75,
            "durationTicks": 1344,
            "midi": 55,
            "name": "G3",
            "ticks": 29376,
            "time": 38.25,
            "velocity": 0.3937007874015748
          },
          {
            "duration": 1.75,
            "durationTicks": 1344,
            "midi": 52,
            "name": "E3",
            "ticks": 29376,
            "time": 38.25,
            "velocity": 0.3937007874015748
          },
          {
            "duration": 0.1875,
            "durationTicks": 144,
            "midi": 50,
            "name": "D3",
            "ticks": 29376,
            "time": 38.25,
            "velocity": 0.3937007874015748
          },
          {
            "duration": 0.9375,
            "durationTicks": 720,
            "midi": 50,
            "name": "D3",
            "ticks": 31680,
            "time": 41.25,
            "velocity": 0.3937007874015748
          },
          {
            "duration": 0.9375,
            "durationTicks": 720,
            "midi": 59,
            "name": "B3",
            "ticks": 31680,
            "time": 41.25,
            "velocity": 0.3937007874015748
          },
          {
            "duration": 0.9375,
            "durationTicks": 720,
            "midi": 55,
            "name": "G3",
            "ticks": 31680,
            "time": 41.25,
            "velocity": 0.3937007874015748
          },
          {
            "duration": 0.1875,
            "durationTicks": 144,
            "midi": 48,
            "name": "C3",
            "ticks": 32400,
            "time": 42.1875,
            "velocity": 0.3937007874015748
          },
          {
            "duration": 0.1875,
            "durationTicks": 144,
            "midi": 57,
            "name": "A3",
            "ticks": 32400,
            "time": 42.1875,
            "velocity": 0.3937007874015748
          },
          {
            "duration": 0.1875,
            "durationTicks": 144,
            "midi": 52,
            "name": "E3",
            "ticks": 32400,
            "time": 42.1875,
            "velocity": 0.3937007874015748
          },
          {
            "duration": 0.375,
            "durationTicks": 288,
            "midi": 50,
            "name": "D3",
            "ticks": 32544,
            "time": 42.375,
            "velocity": 0.3937007874015748
          },
          {
            "duration": 0.375,
            "durationTicks": 288,
            "midi": 55,
            "name": "G3",
            "ticks": 32544,
            "time": 42.375,
            "velocity": 0.3937007874015748
          },
          {
            "duration": 0.375,
            "durationTicks": 288,
            "midi": 59,
            "name": "B3",
            "ticks": 32544,
            "time": 42.375,
            "velocity": 0.3937007874015748
          },
          {
            "duration": 2.125,
            "durationTicks": 1632,
            "midi": 57,
            "name": "A3",
            "ticks": 32832,
            "time": 42.75,
            "velocity": 0.3937007874015748
          },
          {
            "duration": 2.125,
            "durationTicks": 1632,
            "midi": 52,
            "name": "E3",
            "ticks": 32832,
            "time": 42.75,
            "velocity": 0.3937007874015748
          },
          {
            "duration": 2.125,
            "durationTicks": 1632,
            "midi": 48,
            "name": "C3",
            "ticks": 32832,
            "time": 42.75,
            "velocity": 0.3937007874015748
          },
          {
            "duration": 0.375,
            "durationTicks": 288,
            "midi": 55,
            "name": "G3",
            "ticks": 35136,
            "time": 45.75,
            "velocity": 0.3937007874015748
          },
          {
            "duration": 0.375,
            "durationTicks": 288,
            "midi": 59,
            "name": "B3",
            "ticks": 35136,
            "time": 45.75,
            "velocity": 0.3937007874015748
          },
          {
            "duration": 0.375,
            "durationTicks": 288,
            "midi": 50,
            "name": "D3",
            "ticks": 35136,
            "time": 45.75,
            "velocity": 0.3937007874015748
          },
          {
            "duration": 0.1875,
            "durationTicks": 144,
            "midi": 57,
            "name": "A3",
            "ticks": 35424,
            "time": 46.125,
            "velocity": 0.3937007874015748
          },
          {
            "duration": 0.1875,
            "durationTicks": 144,
            "midi": 54,
            "name": "F#3",
            "ticks": 35424,
            "time": 46.125,
            "velocity": 0.3937007874015748
          },
          {
            "duration": 0.1875,
            "durationTicks": 144,
            "midi": 50,
            "name": "D3",
            "ticks": 35424,
            "time": 46.125,
            "velocity": 0.3937007874015748
          },
          {
            "duration": 0.1875,
            "durationTicks": 144,
            "midi": 55,
            "name": "G3",
            "ticks": 35568,
            "time": 46.3125,
            "velocity": 0.3937007874015748
          },
          {
            "duration": 0.1875,
            "durationTicks": 144,
            "midi": 50,
            "name": "D3",
            "ticks": 35568,
            "time": 46.3125,
            "velocity": 0.3937007874015748
          },
          {
            "duration": 0.1875,
            "durationTicks": 144,
            "midi": 52,
            "name": "E3",
            "ticks": 35568,
            "time": 46.3125,
            "velocity": 0.3937007874015748
          },
          {
            "duration": 1.75,
            "durationTicks": 1344,
            "midi": 52,
            "name": "E3",
            "ticks": 35712,
            "time": 46.5,
            "velocity": 0.3937007874015748
          },
          {
            "duration": 1.75,
            "durationTicks": 1344,
            "midi": 52,
            "name": "E3",
            "ticks": 35712,
            "time": 46.5,
            "velocity": 0.3937007874015748
          },
          {
            "duration": 0.1875,
            "durationTicks": 144,
            "midi": 50,
            "name": "D3",
            "ticks": 35712,
            "time": 46.5,
            "velocity": 0.3937007874015748
          },
          {
            "duration": 1.75,
            "durationTicks": 1344,
            "midi": 55,
            "name": "G3",
            "ticks": 35712,
            "time": 46.5,
            "velocity": 0.3937007874015748
          },
          {
            "duration": 0.9375,
            "durationTicks": 720,
            "midi": 59,
            "name": "B3",
            "ticks": 38016,
            "time": 49.5,
            "velocity": 0.3937007874015748
          },
          {
            "duration": 0.9375,
            "durationTicks": 720,
            "midi": 55,
            "name": "G3",
            "ticks": 38016,
            "time": 49.5,
            "velocity": 0.3937007874015748
          },
          {
            "duration": 0.9375,
            "durationTicks": 720,
            "midi": 50,
            "name": "D3",
            "ticks": 38016,
            "time": 49.5,
            "velocity": 0.3937007874015748
          },
          {
            "duration": 0.1875,
            "durationTicks": 144,
            "midi": 57,
            "name": "A3",
            "ticks": 38736,
            "time": 50.4375,
            "velocity": 0.3937007874015748
          },
          {
            "duration": 0.1875,
            "durationTicks": 144,
            "midi": 48,
            "name": "C3",
            "ticks": 38736,
            "time": 50.4375,
            "velocity": 0.3937007874015748
          },
          {
            "duration": 0.1875,
            "durationTicks": 144,
            "midi": 52,
            "name": "E3",
            "ticks": 38736,
            "time": 50.4375,
            "velocity": 0.3937007874015748
          },
          {
            "duration": 0.375,
            "durationTicks": 288,
            "midi": 50,
            "name": "D3",
            "ticks": 38880,
            "time": 50.625,
            "velocity": 0.3937007874015748
          },
          {
            "duration": 0.375,
            "durationTicks": 288,
            "midi": 55,
            "name": "G3",
            "ticks": 38880,
            "time": 50.625,
            "velocity": 0.3937007874015748
          },
          {
            "duration": 0.375,
            "durationTicks": 288,
            "midi": 59,
            "name": "B3",
            "ticks": 38880,
            "time": 50.625,
            "velocity": 0.3937007874015748
          },
          {
            "duration": 2.125,
            "durationTicks": 1632,
            "midi": 52,
            "name": "E3",
            "ticks": 39168,
            "time": 51,
            "velocity": 0.3937007874015748
          },
          {
            "duration": 2.125,
            "durationTicks": 1632,
            "midi": 57,
            "name": "A3",
            "ticks": 39168,
            "time": 51,
            "velocity": 0.3937007874015748
          },
          {
            "duration": 2.125,
            "durationTicks": 1632,
            "midi": 48,
            "name": "C3",
            "ticks": 39168,
            "time": 51,
            "velocity": 0.3937007874015748
          },
          {
            "duration": 0.375,
            "durationTicks": 288,
            "midi": 55,
            "name": "G3",
            "ticks": 41472,
            "time": 54,
            "velocity": 0.3937007874015748
          },
          {
            "duration": 0.375,
            "durationTicks": 288,
            "midi": 59,
            "name": "B3",
            "ticks": 41472,
            "time": 54,
            "velocity": 0.3937007874015748
          },
          {
            "duration": 0.375,
            "durationTicks": 288,
            "midi": 50,
            "name": "D3",
            "ticks": 41472,
            "time": 54,
            "velocity": 0.3937007874015748
          },
          {
            "duration": 0.1875,
            "durationTicks": 144,
            "midi": 54,
            "name": "F#3",
            "ticks": 41760,
            "time": 54.375,
            "velocity": 0.3937007874015748
          },
          {
            "duration": 0.1875,
            "durationTicks": 144,
            "midi": 50,
            "name": "D3",
            "ticks": 41760,
            "time": 54.375,
            "velocity": 0.3937007874015748
          },
          {
            "duration": 0.1875,
            "durationTicks": 144,
            "midi": 57,
            "name": "A3",
            "ticks": 41760,
            "time": 54.375,
            "velocity": 0.3937007874015748
          },
          {
            "duration": 0.1875,
            "durationTicks": 144,
            "midi": 50,
            "name": "D3",
            "ticks": 41760,
            "time": 54.375,
            "velocity": 0.3937007874015748
          },
          {
            "duration": 0.1875,
            "durationTicks": 144,
            "midi": 55,
            "name": "G3",
            "ticks": 41904,
            "time": 54.5625,
            "velocity": 0.3937007874015748
          },
          {
            "duration": 0.1875,
            "durationTicks": 144,
            "midi": 50,
            "name": "D3",
            "ticks": 41904,
            "time": 54.5625,
            "velocity": 0.3937007874015748
          },
          {
            "duration": 0.1875,
            "durationTicks": 144,
            "midi": 52,
            "name": "E3",
            "ticks": 41904,
            "time": 54.5625,
            "velocity": 0.3937007874015748
          },
          {
            "duration": 0.1875,
            "durationTicks": 144,
            "midi": 50,
            "name": "D3",
            "ticks": 42048,
            "time": 54.75,
            "velocity": 0.3937007874015748
          },
          {
            "duration": 1.75,
            "durationTicks": 1344,
            "midi": 52,
            "name": "E3",
            "ticks": 42048,
            "time": 54.75,
            "velocity": 0.3937007874015748
          },
          {
            "duration": 1.75,
            "durationTicks": 1344,
            "midi": 55,
            "name": "G3",
            "ticks": 42048,
            "time": 54.75,
            "velocity": 0.3937007874015748
          },
          {
            "duration": 1.75,
            "durationTicks": 1344,
            "midi": 52,
            "name": "E3",
            "ticks": 42048,
            "time": 54.75,
            "velocity": 0.3937007874015748
          },
          {
            "duration": 0.9375,
            "durationTicks": 720,
            "midi": 55,
            "name": "G3",
            "ticks": 44352,
            "time": 57.75,
            "velocity": 0.3937007874015748
          },
          {
            "duration": 0.9375,
            "durationTicks": 720,
            "midi": 59,
            "name": "B3",
            "ticks": 44352,
            "time": 57.75,
            "velocity": 0.3937007874015748
          },
          {
            "duration": 0.9375,
            "durationTicks": 720,
            "midi": 50,
            "name": "D3",
            "ticks": 44352,
            "time": 57.75,
            "velocity": 0.3937007874015748
          },
          {
            "duration": 0.1875,
            "durationTicks": 144,
            "midi": 52,
            "name": "E3",
            "ticks": 45072,
            "time": 58.6875,
            "velocity": 0.3937007874015748
          },
          {
            "duration": 0.1875,
            "durationTicks": 144,
            "midi": 48,
            "name": "C3",
            "ticks": 45072,
            "time": 58.6875,
            "velocity": 0.3937007874015748
          },
          {
            "duration": 0.1875,
            "durationTicks": 144,
            "midi": 57,
            "name": "A3",
            "ticks": 45072,
            "time": 58.6875,
            "velocity": 0.3937007874015748
          },
          {
            "duration": 0.375,
            "durationTicks": 288,
            "midi": 55,
            "name": "G3",
            "ticks": 45216,
            "time": 58.875,
            "velocity": 0.3937007874015748
          },
          {
            "duration": 0.375,
            "durationTicks": 288,
            "midi": 50,
            "name": "D3",
            "ticks": 45216,
            "time": 58.875,
            "velocity": 0.3937007874015748
          },
          {
            "duration": 0.375,
            "durationTicks": 288,
            "midi": 59,
            "name": "B3",
            "ticks": 45216,
            "time": 58.875,
            "velocity": 0.3937007874015748
          },
          {
            "duration": 2.125,
            "durationTicks": 1632,
            "midi": 57,
            "name": "A3",
            "ticks": 45504,
            "time": 59.25,
            "velocity": 0.3937007874015748
          },
          {
            "duration": 2.125,
            "durationTicks": 1632,
            "midi": 48,
            "name": "C3",
            "ticks": 45504,
            "time": 59.25,
            "velocity": 0.3937007874015748
          },
          {
            "duration": 2.125,
            "durationTicks": 1632,
            "midi": 52,
            "name": "E3",
            "ticks": 45504,
            "time": 59.25,
            "velocity": 0.3937007874015748
          },
          {
            "duration": 0.375,
            "durationTicks": 288,
            "midi": 50,
            "name": "D3",
            "ticks": 47808,
            "time": 62.25,
            "velocity": 0.3937007874015748
          },
          {
            "duration": 0.375,
            "durationTicks": 288,
            "midi": 59,
            "name": "B3",
            "ticks": 47808,
            "time": 62.25,
            "velocity": 0.3937007874015748
          },
          {
            "duration": 0.375,
            "durationTicks": 288,
            "midi": 55,
            "name": "G3",
            "ticks": 47808,
            "time": 62.25,
            "velocity": 0.3937007874015748
          },
          {
            "duration": 0.1875,
            "durationTicks": 144,
            "midi": 57,
            "name": "A3",
            "ticks": 48096,
            "time": 62.625,
            "velocity": 0.3937007874015748
          },
          {
            "duration": 0.1875,
            "durationTicks": 144,
            "midi": 50,
            "name": "D3",
            "ticks": 48096,
            "time": 62.625,
            "velocity": 0.3937007874015748
          },
          {
            "duration": 0.1875,
            "durationTicks": 144,
            "midi": 54,
            "name": "F#3",
            "ticks": 48096,
            "time": 62.625,
            "velocity": 0.3937007874015748
          },
          {
            "duration": 0.1875,
            "durationTicks": 144,
            "midi": 52,
            "name": "E3",
            "ticks": 48240,
            "time": 62.8125,
            "velocity": 0.3937007874015748
          },
          {
            "duration": 0.1875,
            "durationTicks": 144,
            "midi": 55,
            "name": "G3",
            "ticks": 48240,
            "time": 62.8125,
            "velocity": 0.3937007874015748
          },
          {
            "duration": 0.1875,
            "durationTicks": 144,
            "midi": 50,
            "name": "D3",
            "ticks": 48240,
            "time": 62.8125,
            "velocity": 0.3937007874015748
          },
          {
            "duration": 1.75,
            "durationTicks": 1344,
            "midi": 52,
            "name": "E3",
            "ticks": 48384,
            "time": 63,
            "velocity": 0.3937007874015748
          },
          {
            "duration": 1.75,
            "durationTicks": 1344,
            "midi": 52,
            "name": "E3",
            "ticks": 48384,
            "time": 63,
            "velocity": 0.3937007874015748
          },
          {
            "duration": 1.75,
            "durationTicks": 1344,
            "midi": 55,
            "name": "G3",
            "ticks": 48384,
            "time": 63,
            "velocity": 0.3937007874015748
          },
          {
            "duration": 0.1875,
            "durationTicks": 144,
            "midi": 50,
            "name": "D3",
            "ticks": 48384,
            "time": 63,
            "velocity": 0.3937007874015748
          },
          {
            "duration": 0.375,
            "durationTicks": 288,
            "midi": 55,
            "name": "G3",
            "ticks": 64368,
            "time": 83.8125,
            "velocity": 0.3937007874015748
          },
          {
            "duration": 0.1875,
            "durationTicks": 144,
            "midi": 54,
            "name": "F#3",
            "ticks": 64656,
            "time": 84.1875,
            "velocity": 0.3937007874015748
          },
          {
            "duration": 0.1875,
            "durationTicks": 144,
            "midi": 52,
            "name": "E3",
            "ticks": 64800,
            "time": 84.375,
            "velocity": 0.3937007874015748
          },
          {
            "duration": 0.1875,
            "durationTicks": 144,
            "midi": 54,
            "name": "F#3",
            "ticks": 64944,
            "time": 84.5625,
            "velocity": 0.3937007874015748
          },
          {
            "duration": 0.375,
            "durationTicks": 288,
            "midi": 52,
            "name": "E3",
            "ticks": 65088,
            "time": 84.75,
            "velocity": 0.3937007874015748
          },
          {
            "duration": 0.1875,
            "durationTicks": 144,
            "midi": 50,
            "name": "D3",
            "ticks": 65376,
            "time": 85.125,
            "velocity": 0.3937007874015748
          },
          {
            "duration": 0.375,
            "durationTicks": 288,
            "midi": 47,
            "name": "B2",
            "ticks": 68544,
            "time": 89.25,
            "velocity": 0.3937007874015748
          },
          {
            "duration": 0.375,
            "durationTicks": 288,
            "midi": 50,
            "name": "D3",
            "ticks": 68832,
            "time": 89.625,
            "velocity": 0.3937007874015748
          },
          {
            "duration": 0.375,
            "durationTicks": 288,
            "midi": 52,
            "name": "E3",
            "ticks": 69120,
            "time": 90,
            "velocity": 0.3937007874015748
          },
          {
            "duration": 0.1875,
            "durationTicks": 144,
            "midi": 54,
            "name": "F#3",
            "ticks": 69408,
            "time": 90.375,
            "velocity": 0.3937007874015748
          },
          {
            "duration": 0.1875,
            "durationTicks": 144,
            "midi": 50,
            "name": "D3",
            "ticks": 69552,
            "time": 90.5625,
            "velocity": 0.3937007874015748
          },
          {
            "duration": 0.9375,
            "durationTicks": 720,
            "midi": 50,
            "name": "D3",
            "ticks": 76032,
            "time": 99,
            "velocity": 0.3937007874015748
          },
          {
            "duration": 0.9375,
            "durationTicks": 720,
            "midi": 59,
            "name": "B3",
            "ticks": 76032,
            "time": 99,
            "velocity": 0.3937007874015748
          },
          {
            "duration": 0.9375,
            "durationTicks": 720,
            "midi": 55,
            "name": "G3",
            "ticks": 76032,
            "time": 99,
            "velocity": 0.3937007874015748
          },
          {
            "duration": 0.1875,
            "durationTicks": 144,
            "midi": 57,
            "name": "A3",
            "ticks": 76752,
            "time": 99.9375,
            "velocity": 0.3937007874015748
          },
          {
            "duration": 0.1875,
            "durationTicks": 144,
            "midi": 52,
            "name": "E3",
            "ticks": 76752,
            "time": 99.9375,
            "velocity": 0.3937007874015748
          },
          {
            "duration": 0.1875,
            "durationTicks": 144,
            "midi": 48,
            "name": "C3",
            "ticks": 76752,
            "time": 99.9375,
            "velocity": 0.3937007874015748
          },
          {
            "duration": 0.375,
            "durationTicks": 288,
            "midi": 55,
            "name": "G3",
            "ticks": 76896,
            "time": 100.125,
            "velocity": 0.3937007874015748
          },
          {
            "duration": 0.375,
            "durationTicks": 288,
            "midi": 50,
            "name": "D3",
            "ticks": 76896,
            "time": 100.125,
            "velocity": 0.3937007874015748
          },
          {
            "duration": 0.375,
            "durationTicks": 288,
            "midi": 59,
            "name": "B3",
            "ticks": 76896,
            "time": 100.125,
            "velocity": 0.3937007874015748
          },
          {
            "duration": 2.125,
            "durationTicks": 1632,
            "midi": 57,
            "name": "A3",
            "ticks": 77184,
            "time": 100.5,
            "velocity": 0.3937007874015748
          },
          {
            "duration": 2.125,
            "durationTicks": 1632,
            "midi": 48,
            "name": "C3",
            "ticks": 77184,
            "time": 100.5,
            "velocity": 0.3937007874015748
          },
          {
            "duration": 2.125,
            "durationTicks": 1632,
            "midi": 52,
            "name": "E3",
            "ticks": 77184,
            "time": 100.5,
            "velocity": 0.3937007874015748
          },
          {
            "duration": 0.375,
            "durationTicks": 288,
            "midi": 55,
            "name": "G3",
            "ticks": 79488,
            "time": 103.5,
            "velocity": 0.3937007874015748
          },
          {
            "duration": 0.375,
            "durationTicks": 288,
            "midi": 59,
            "name": "B3",
            "ticks": 79488,
            "time": 103.5,
            "velocity": 0.3937007874015748
          },
          {
            "duration": 0.375,
            "durationTicks": 288,
            "midi": 50,
            "name": "D3",
            "ticks": 79488,
            "time": 103.5,
            "velocity": 0.3937007874015748
          },
          {
            "duration": 0.1875,
            "durationTicks": 144,
            "midi": 57,
            "name": "A3",
            "ticks": 79776,
            "time": 103.875,
            "velocity": 0.3937007874015748
          },
          {
            "duration": 0.1875,
            "durationTicks": 144,
            "midi": 50,
            "name": "D3",
            "ticks": 79776,
            "time": 103.875,
            "velocity": 0.3937007874015748
          },
          {
            "duration": 0.1875,
            "durationTicks": 144,
            "midi": 54,
            "name": "F#3",
            "ticks": 79776,
            "time": 103.875,
            "velocity": 0.3937007874015748
          },
          {
            "duration": 0.1875,
            "durationTicks": 144,
            "midi": 50,
            "name": "D3",
            "ticks": 79776,
            "time": 103.875,
            "velocity": 0.3937007874015748
          },
          {
            "duration": 0.1875,
            "durationTicks": 144,
            "midi": 52,
            "name": "E3",
            "ticks": 79920,
            "time": 104.0625,
            "velocity": 0.3937007874015748
          },
          {
            "duration": 0.1875,
            "durationTicks": 144,
            "midi": 50,
            "name": "D3",
            "ticks": 79920,
            "time": 104.0625,
            "velocity": 0.3937007874015748
          },
          {
            "duration": 0.1875,
            "durationTicks": 144,
            "midi": 55,
            "name": "G3",
            "ticks": 79920,
            "time": 104.0625,
            "velocity": 0.3937007874015748
          },
          {
            "duration": 1.75,
            "durationTicks": 1344,
            "midi": 55,
            "name": "G3",
            "ticks": 80064,
            "time": 104.25,
            "velocity": 0.3937007874015748
          },
          {
            "duration": 0.1875,
            "durationTicks": 144,
            "midi": 50,
            "name": "D3",
            "ticks": 80064,
            "time": 104.25,
            "velocity": 0.3937007874015748
          },
          {
            "duration": 1.75,
            "durationTicks": 1344,
            "midi": 52,
            "name": "E3",
            "ticks": 80064,
            "time": 104.25,
            "velocity": 0.3937007874015748
          },
          {
            "duration": 1.75,
            "durationTicks": 1344,
            "midi": 52,
            "name": "E3",
            "ticks": 80064,
            "time": 104.25,
            "velocity": 0.3937007874015748
          },
          {
            "duration": 0.9375,
            "durationTicks": 720,
            "midi": 50,
            "name": "D3",
            "ticks": 82368,
            "time": 107.25,
            "velocity": 0.3937007874015748
          },
          {
            "duration": 0.9375,
            "durationTicks": 720,
            "midi": 59,
            "name": "B3",
            "ticks": 82368,
            "time": 107.25,
            "velocity": 0.3937007874015748
          },
          {
            "duration": 0.9375,
            "durationTicks": 720,
            "midi": 55,
            "name": "G3",
            "ticks": 82368,
            "time": 107.25,
            "velocity": 0.3937007874015748
          },
          {
            "duration": 0.1875,
            "durationTicks": 144,
            "midi": 57,
            "name": "A3",
            "ticks": 83088,
            "time": 108.1875,
            "velocity": 0.3937007874015748
          },
          {
            "duration": 0.1875,
            "durationTicks": 144,
            "midi": 52,
            "name": "E3",
            "ticks": 83088,
            "time": 108.1875,
            "velocity": 0.3937007874015748
          },
          {
            "duration": 0.1875,
            "durationTicks": 144,
            "midi": 48,
            "name": "C3",
            "ticks": 83088,
            "time": 108.1875,
            "velocity": 0.3937007874015748
          },
          {
            "duration": 0.375,
            "durationTicks": 288,
            "midi": 55,
            "name": "G3",
            "ticks": 83232,
            "time": 108.375,
            "velocity": 0.3937007874015748
          },
          {
            "duration": 0.375,
            "durationTicks": 288,
            "midi": 50,
            "name": "D3",
            "ticks": 83232,
            "time": 108.375,
            "velocity": 0.3937007874015748
          },
          {
            "duration": 0.375,
            "durationTicks": 288,
            "midi": 59,
            "name": "B3",
            "ticks": 83232,
            "time": 108.375,
            "velocity": 0.3937007874015748
          },
          {
            "duration": 2.125,
            "durationTicks": 1632,
            "midi": 48,
            "name": "C3",
            "ticks": 83520,
            "time": 108.75,
            "velocity": 0.3937007874015748
          },
          {
            "duration": 2.125,
            "durationTicks": 1632,
            "midi": 57,
            "name": "A3",
            "ticks": 83520,
            "time": 108.75,
            "velocity": 0.3937007874015748
          },
          {
            "duration": 2.125,
            "durationTicks": 1632,
            "midi": 52,
            "name": "E3",
            "ticks": 83520,
            "time": 108.75,
            "velocity": 0.3937007874015748
          },
          {
            "duration": 0.375,
            "durationTicks": 288,
            "midi": 50,
            "name": "D3",
            "ticks": 85824,
            "time": 111.75,
            "velocity": 0.3937007874015748
          },
          {
            "duration": 0.375,
            "durationTicks": 288,
            "midi": 59,
            "name": "B3",
            "ticks": 85824,
            "time": 111.75,
            "velocity": 0.3937007874015748
          },
          {
            "duration": 0.375,
            "durationTicks": 288,
            "midi": 55,
            "name": "G3",
            "ticks": 85824,
            "time": 111.75,
            "velocity": 0.3937007874015748
          },
          {
            "duration": 0.1875,
            "durationTicks": 144,
            "midi": 57,
            "name": "A3",
            "ticks": 86112,
            "time": 112.125,
            "velocity": 0.3937007874015748
          },
          {
            "duration": 0.1875,
            "durationTicks": 144,
            "midi": 54,
            "name": "F#3",
            "ticks": 86112,
            "time": 112.125,
            "velocity": 0.3937007874015748
          },
          {
            "duration": 0.1875,
            "durationTicks": 144,
            "midi": 50,
            "name": "D3",
            "ticks": 86112,
            "time": 112.125,
            "velocity": 0.3937007874015748
          },
          {
            "duration": 0.1875,
            "durationTicks": 144,
            "midi": 50,
            "name": "D3",
            "ticks": 86256,
            "time": 112.3125,
            "velocity": 0.3937007874015748
          },
          {
            "duration": 0.1875,
            "durationTicks": 144,
            "midi": 55,
            "name": "G3",
            "ticks": 86256,
            "time": 112.3125,
            "velocity": 0.3937007874015748
          },
          {
            "duration": 0.1875,
            "durationTicks": 144,
            "midi": 52,
            "name": "E3",
            "ticks": 86256,
            "time": 112.3125,
            "velocity": 0.3937007874015748
          },
          {
            "duration": 1.75,
            "durationTicks": 1344,
            "midi": 52,
            "name": "E3",
            "ticks": 86400,
            "time": 112.5,
            "velocity": 0.3937007874015748
          },
          {
            "duration": 1.75,
            "durationTicks": 1344,
            "midi": 52,
            "name": "E3",
            "ticks": 86400,
            "time": 112.5,
            "velocity": 0.3937007874015748
          },
          {
            "duration": 0.1875,
            "durationTicks": 144,
            "midi": 50,
            "name": "D3",
            "ticks": 86400,
            "time": 112.5,
            "velocity": 0.3937007874015748
          },
          {
            "duration": 1.75,
            "durationTicks": 1344,
            "midi": 55,
            "name": "G3",
            "ticks": 86400,
            "time": 112.5,
            "velocity": 0.3937007874015748
          },
          {
            "duration": 0.9375,
            "durationTicks": 720,
            "midi": 59,
            "name": "B3",
            "ticks": 88704,
            "time": 115.5,
            "velocity": 0.3937007874015748
          },
          {
            "duration": 0.9375,
            "durationTicks": 720,
            "midi": 55,
            "name": "G3",
            "ticks": 88704,
            "time": 115.5,
            "velocity": 0.3937007874015748
          },
          {
            "duration": 0.9375,
            "durationTicks": 720,
            "midi": 50,
            "name": "D3",
            "ticks": 88704,
            "time": 115.5,
            "velocity": 0.3937007874015748
          },
          {
            "duration": 0.1875,
            "durationTicks": 144,
            "midi": 52,
            "name": "E3",
            "ticks": 89424,
            "time": 116.4375,
            "velocity": 0.3937007874015748
          },
          {
            "duration": 0.1875,
            "durationTicks": 144,
            "midi": 48,
            "name": "C3",
            "ticks": 89424,
            "time": 116.4375,
            "velocity": 0.3937007874015748
          },
          {
            "duration": 0.1875,
            "durationTicks": 144,
            "midi": 57,
            "name": "A3",
            "ticks": 89424,
            "time": 116.4375,
            "velocity": 0.3937007874015748
          },
          {
            "duration": 0.375,
            "durationTicks": 288,
            "midi": 59,
            "name": "B3",
            "ticks": 89568,
            "time": 116.625,
            "velocity": 0.3937007874015748
          },
          {
            "duration": 0.375,
            "durationTicks": 288,
            "midi": 55,
            "name": "G3",
            "ticks": 89568,
            "time": 116.625,
            "velocity": 0.3937007874015748
          },
          {
            "duration": 0.375,
            "durationTicks": 288,
            "midi": 50,
            "name": "D3",
            "ticks": 89568,
            "time": 116.625,
            "velocity": 0.3937007874015748
          },
          {
            "duration": 2.125,
            "durationTicks": 1632,
            "midi": 48,
            "name": "C3",
            "ticks": 89856,
            "time": 117,
            "velocity": 0.3937007874015748
          },
          {
            "duration": 2.125,
            "durationTicks": 1632,
            "midi": 57,
            "name": "A3",
            "ticks": 89856,
            "time": 117,
            "velocity": 0.3937007874015748
          },
          {
            "duration": 2.125,
            "durationTicks": 1632,
            "midi": 52,
            "name": "E3",
            "ticks": 89856,
            "time": 117,
            "velocity": 0.3937007874015748
          },
          {
            "duration": 0.375,
            "durationTicks": 288,
            "midi": 55,
            "name": "G3",
            "ticks": 92160,
            "time": 120,
            "velocity": 0.3937007874015748
          },
          {
            "duration": 0.375,
            "durationTicks": 288,
            "midi": 50,
            "name": "D3",
            "ticks": 92160,
            "time": 120,
            "velocity": 0.3937007874015748
          },
          {
            "duration": 0.375,
            "durationTicks": 288,
            "midi": 59,
            "name": "B3",
            "ticks": 92160,
            "time": 120,
            "velocity": 0.3937007874015748
          },
          {
            "duration": 0.1875,
            "durationTicks": 144,
            "midi": 50,
            "name": "D3",
            "ticks": 92448,
            "time": 120.375,
            "velocity": 0.3937007874015748
          },
          {
            "duration": 0.1875,
            "durationTicks": 144,
            "midi": 57,
            "name": "A3",
            "ticks": 92448,
            "time": 120.375,
            "velocity": 0.3937007874015748
          },
          {
            "duration": 0.1875,
            "durationTicks": 144,
            "midi": 50,
            "name": "D3",
            "ticks": 92448,
            "time": 120.375,
            "velocity": 0.3937007874015748
          },
          {
            "duration": 0.1875,
            "durationTicks": 144,
            "midi": 54,
            "name": "F#3",
            "ticks": 92448,
            "time": 120.375,
            "velocity": 0.3937007874015748
          },
          {
            "duration": 0.1875,
            "durationTicks": 144,
            "midi": 50,
            "name": "D3",
            "ticks": 92592,
            "time": 120.5625,
            "velocity": 0.3937007874015748
          },
          {
            "duration": 0.1875,
            "durationTicks": 144,
            "midi": 52,
            "name": "E3",
            "ticks": 92592,
            "time": 120.5625,
            "velocity": 0.3937007874015748
          },
          {
            "duration": 0.1875,
            "durationTicks": 144,
            "midi": 55,
            "name": "G3",
            "ticks": 92592,
            "time": 120.5625,
            "velocity": 0.3937007874015748
          },
          {
            "duration": 1.75,
            "durationTicks": 1344,
            "midi": 55,
            "name": "G3",
            "ticks": 92736,
            "time": 120.75,
            "velocity": 0.3937007874015748
          },
          {
            "duration": 1.75,
            "durationTicks": 1344,
            "midi": 52,
            "name": "E3",
            "ticks": 92736,
            "time": 120.75,
            "velocity": 0.3937007874015748
          },
          {
            "duration": 1.75,
            "durationTicks": 1344,
            "midi": 52,
            "name": "E3",
            "ticks": 92736,
            "time": 120.75,
            "velocity": 0.3937007874015748
          },
          {
            "duration": 0.1875,
            "durationTicks": 144,
            "midi": 50,
            "name": "D3",
            "ticks": 92736,
            "time": 120.75,
            "velocity": 0.3937007874015748
          },
          {
            "duration": 0.9375,
            "durationTicks": 720,
            "midi": 50,
            "name": "D3",
            "ticks": 95040,
            "time": 123.75,
            "velocity": 0.3937007874015748
          },
          {
            "duration": 0.9375,
            "durationTicks": 720,
            "midi": 55,
            "name": "G3",
            "ticks": 95040,
            "time": 123.75,
            "velocity": 0.3937007874015748
          },
          {
            "duration": 0.9375,
            "durationTicks": 720,
            "midi": 59,
            "name": "B3",
            "ticks": 95040,
            "time": 123.75,
            "velocity": 0.3937007874015748
          },
          {
            "duration": 0.1875,
            "durationTicks": 144,
            "midi": 52,
            "name": "E3",
            "ticks": 95760,
            "time": 124.6875,
            "velocity": 0.3937007874015748
          },
          {
            "duration": 0.1875,
            "durationTicks": 144,
            "midi": 48,
            "name": "C3",
            "ticks": 95760,
            "time": 124.6875,
            "velocity": 0.3937007874015748
          },
          {
            "duration": 0.1875,
            "durationTicks": 144,
            "midi": 57,
            "name": "A3",
            "ticks": 95760,
            "time": 124.6875,
            "velocity": 0.3937007874015748
          },
          {
            "duration": 0.375,
            "durationTicks": 288,
            "midi": 55,
            "name": "G3",
            "ticks": 95904,
            "time": 124.875,
            "velocity": 0.3937007874015748
          },
          {
            "duration": 0.375,
            "durationTicks": 288,
            "midi": 59,
            "name": "B3",
            "ticks": 95904,
            "time": 124.875,
            "velocity": 0.3937007874015748
          },
          {
            "duration": 0.375,
            "durationTicks": 288,
            "midi": 50,
            "name": "D3",
            "ticks": 95904,
            "time": 124.875,
            "velocity": 0.3937007874015748
          },
          {
            "duration": 2.125,
            "durationTicks": 1632,
            "midi": 48,
            "name": "C3",
            "ticks": 96192,
            "time": 125.25,
            "velocity": 0.3937007874015748
          },
          {
            "duration": 2.125,
            "durationTicks": 1632,
            "midi": 57,
            "name": "A3",
            "ticks": 96192,
            "time": 125.25,
            "velocity": 0.3937007874015748
          },
          {
            "duration": 2.125,
            "durationTicks": 1632,
            "midi": 52,
            "name": "E3",
            "ticks": 96192,
            "time": 125.25,
            "velocity": 0.3937007874015748
          },
          {
            "duration": 0.375,
            "durationTicks": 288,
            "midi": 59,
            "name": "B3",
            "ticks": 98496,
            "time": 128.25,
            "velocity": 0.3937007874015748
          },
          {
            "duration": 0.375,
            "durationTicks": 288,
            "midi": 50,
            "name": "D3",
            "ticks": 98496,
            "time": 128.25,
            "velocity": 0.3937007874015748
          },
          {
            "duration": 0.375,
            "durationTicks": 288,
            "midi": 55,
            "name": "G3",
            "ticks": 98496,
            "time": 128.25,
            "velocity": 0.3937007874015748
          },
          {
            "duration": 0.1875,
            "durationTicks": 144,
            "midi": 54,
            "name": "F#3",
            "ticks": 98784,
            "time": 128.625,
            "velocity": 0.3937007874015748
          },
          {
            "duration": 0.1875,
            "durationTicks": 144,
            "midi": 50,
            "name": "D3",
            "ticks": 98784,
            "time": 128.625,
            "velocity": 0.3937007874015748
          },
          {
            "duration": 0.1875,
            "durationTicks": 144,
            "midi": 57,
            "name": "A3",
            "ticks": 98784,
            "time": 128.625,
            "velocity": 0.3937007874015748
          },
          {
            "duration": 0.1875,
            "durationTicks": 144,
            "midi": 52,
            "name": "E3",
            "ticks": 98928,
            "time": 128.8125,
            "velocity": 0.3937007874015748
          },
          {
            "duration": 0.1875,
            "durationTicks": 144,
            "midi": 55,
            "name": "G3",
            "ticks": 98928,
            "time": 128.8125,
            "velocity": 0.3937007874015748
          },
          {
            "duration": 0.1875,
            "durationTicks": 144,
            "midi": 50,
            "name": "D3",
            "ticks": 98928,
            "time": 128.8125,
            "velocity": 0.3937007874015748
          },
          {
            "duration": 1.75,
            "durationTicks": 1344,
            "midi": 52,
            "name": "E3",
            "ticks": 99072,
            "time": 129,
            "velocity": 0.3937007874015748
          },
          {
            "duration": 1.75,
            "durationTicks": 1344,
            "midi": 55,
            "name": "G3",
            "ticks": 99072,
            "time": 129,
            "velocity": 0.3937007874015748
          },
          {
            "duration": 1.75,
            "durationTicks": 1344,
            "midi": 52,
            "name": "E3",
            "ticks": 99072,
            "time": 129,
            "velocity": 0.3937007874015748
          },
          {
            "duration": 0.1875,
            "durationTicks": 144,
            "midi": 50,
            "name": "D3",
            "ticks": 99072,
            "time": 129,
            "velocity": 0.3937007874015748
          },
          {
            "duration": 0.0625,
            "durationTicks": 48,
            "midi": 45,
            "name": "A2",
            "ticks": 126720,
            "time": 165,
            "velocity": 0.3937007874015748
          },
          {
            "duration": 0.0625,
            "durationTicks": 48,
            "midi": 50,
            "name": "D3",
            "ticks": 126720,
            "time": 165,
            "velocity": 0.3937007874015748
          },
          {
            "duration": 0.0625,
            "durationTicks": 48,
            "midi": 52,
            "name": "E3",
            "ticks": 126864,
            "time": 165.1875,
            "velocity": 0.3937007874015748
          },
          {
            "duration": 0.0625,
            "durationTicks": 48,
            "midi": 47,
            "name": "B2",
            "ticks": 126864,
            "time": 165.1875,
            "velocity": 0.3937007874015748
          },
          {
            "duration": 0.0625,
            "durationTicks": 48,
            "midi": 47,
            "name": "B2",
            "ticks": 127152,
            "time": 165.5625,
            "velocity": 0.3937007874015748
          },
          {
            "duration": 0.0625,
            "durationTicks": 48,
            "midi": 52,
            "name": "E3",
            "ticks": 127152,
            "time": 165.5625,
            "velocity": 0.3937007874015748
          },
          {
            "duration": 0.0625,
            "durationTicks": 48,
            "midi": 50,
            "name": "D3",
            "ticks": 127440,
            "time": 165.9375,
            "velocity": 0.3937007874015748
          },
          {
            "duration": 0.0625,
            "durationTicks": 48,
            "midi": 45,
            "name": "A2",
            "ticks": 127440,
            "time": 165.9375,
            "velocity": 0.3937007874015748
          },
          {
            "duration": 0.0625,
            "durationTicks": 48,
            "midi": 52,
            "name": "E3",
            "ticks": 127584,
            "time": 166.125,
            "velocity": 0.3937007874015748
          },
          {
            "duration": 0.0625,
            "durationTicks": 48,
            "midi": 47,
            "name": "B2",
            "ticks": 127584,
            "time": 166.125,
            "velocity": 0.3937007874015748
          },
          {
            "duration": 0.0625,
            "durationTicks": 48,
            "midi": 45,
            "name": "A2",
            "ticks": 127872,
            "time": 166.5,
            "velocity": 0.3937007874015748
          },
          {
            "duration": 0.0625,
            "durationTicks": 48,
            "midi": 50,
            "name": "D3",
            "ticks": 127872,
            "time": 166.5,
            "velocity": 0.3937007874015748
          },
          {
            "duration": 0.0625,
            "durationTicks": 48,
            "midi": 47,
            "name": "B2",
            "ticks": 128016,
            "time": 166.6875,
            "velocity": 0.3937007874015748
          },
          {
            "duration": 0.0625,
            "durationTicks": 48,
            "midi": 52,
            "name": "E3",
            "ticks": 128016,
            "time": 166.6875,
            "velocity": 0.3937007874015748
          },
          {
            "duration": 0.0625,
            "durationTicks": 48,
            "midi": 52,
            "name": "E3",
            "ticks": 128304,
            "time": 167.0625,
            "velocity": 0.3937007874015748
          },
          {
            "duration": 0.0625,
            "durationTicks": 48,
            "midi": 47,
            "name": "B2",
            "ticks": 128304,
            "time": 167.0625,
            "velocity": 0.3937007874015748
          },
          {
            "duration": 0.0625,
            "durationTicks": 48,
            "midi": 45,
            "name": "A2",
            "ticks": 128592,
            "time": 167.4375,
            "velocity": 0.3937007874015748
          },
          {
            "duration": 0.0625,
            "durationTicks": 48,
            "midi": 50,
            "name": "D3",
            "ticks": 128592,
            "time": 167.4375,
            "velocity": 0.3937007874015748
          },
          {
            "duration": 0.0625,
            "durationTicks": 48,
            "midi": 52,
            "name": "E3",
            "ticks": 128736,
            "time": 167.625,
            "velocity": 0.3937007874015748
          },
          {
            "duration": 0.0625,
            "durationTicks": 48,
            "midi": 47,
            "name": "B2",
            "ticks": 128736,
            "time": 167.625,
            "velocity": 0.3937007874015748
          },
          {
            "duration": 0.0625,
            "durationTicks": 48,
            "midi": 50,
            "name": "D3",
            "ticks": 129024,
            "time": 168,
            "velocity": 0.3937007874015748
          },
          {
            "duration": 0.0625,
            "durationTicks": 48,
            "midi": 45,
            "name": "A2",
            "ticks": 129024,
            "time": 168,
            "velocity": 0.3937007874015748
          },
          {
            "duration": 0.0625,
            "durationTicks": 48,
            "midi": 52,
            "name": "E3",
            "ticks": 129168,
            "time": 168.1875,
            "velocity": 0.3937007874015748
          },
          {
            "duration": 0.0625,
            "durationTicks": 48,
            "midi": 47,
            "name": "B2",
            "ticks": 129168,
            "time": 168.1875,
            "velocity": 0.3937007874015748
          },
          {
            "duration": 0.0625,
            "durationTicks": 48,
            "midi": 52,
            "name": "E3",
            "ticks": 129456,
            "time": 168.5625,
            "velocity": 0.3937007874015748
          },
          {
            "duration": 0.0625,
            "durationTicks": 48,
            "midi": 47,
            "name": "B2",
            "ticks": 129456,
            "time": 168.5625,
            "velocity": 0.3937007874015748
          },
          {
            "duration": 0.0625,
            "durationTicks": 48,
            "midi": 45,
            "name": "A2",
            "ticks": 129744,
            "time": 168.9375,
            "velocity": 0.3937007874015748
          },
          {
            "duration": 0.0625,
            "durationTicks": 48,
            "midi": 50,
            "name": "D3",
            "ticks": 129744,
            "time": 168.9375,
            "velocity": 0.3937007874015748
          },
          {
            "duration": 0.0625,
            "durationTicks": 48,
            "midi": 47,
            "name": "B2",
            "ticks": 129888,
            "time": 169.125,
            "velocity": 0.3937007874015748
          },
          {
            "duration": 0.0625,
            "durationTicks": 48,
            "midi": 52,
            "name": "E3",
            "ticks": 129888,
            "time": 169.125,
            "velocity": 0.3937007874015748
          },
          {
            "duration": 0.0625,
            "durationTicks": 48,
            "midi": 50,
            "name": "D3",
            "ticks": 130176,
            "time": 169.5,
            "velocity": 0.3937007874015748
          },
          {
            "duration": 0.0625,
            "durationTicks": 48,
            "midi": 45,
            "name": "A2",
            "ticks": 130176,
            "time": 169.5,
            "velocity": 0.3937007874015748
          },
          {
            "duration": 0.0625,
            "durationTicks": 48,
            "midi": 47,
            "name": "B2",
            "ticks": 130320,
            "time": 169.6875,
            "velocity": 0.3937007874015748
          },
          {
            "duration": 0.0625,
            "durationTicks": 48,
            "midi": 52,
            "name": "E3",
            "ticks": 130320,
            "time": 169.6875,
            "velocity": 0.3937007874015748
          },
          {
            "duration": 0.0625,
            "durationTicks": 48,
            "midi": 45,
            "name": "A2",
            "ticks": 130752,
            "time": 170.25,
            "velocity": 0.3937007874015748
          },
          {
            "duration": 0.0625,
            "durationTicks": 48,
            "midi": 50,
            "name": "D3",
            "ticks": 130752,
            "time": 170.25,
            "velocity": 0.3937007874015748
          },
          {
            "duration": 0.0625,
            "durationTicks": 48,
            "midi": 52,
            "name": "E3",
            "ticks": 130896,
            "time": 170.4375,
            "velocity": 0.3937007874015748
          },
          {
            "duration": 0.0625,
            "durationTicks": 48,
            "midi": 47,
            "name": "B2",
            "ticks": 130896,
            "time": 170.4375,
            "velocity": 0.3937007874015748
          },
          {
            "duration": 0.0625,
            "durationTicks": 48,
            "midi": 52,
            "name": "E3",
            "ticks": 131184,
            "time": 170.8125,
            "velocity": 0.3937007874015748
          },
          {
            "duration": 0.0625,
            "durationTicks": 48,
            "midi": 47,
            "name": "B2",
            "ticks": 131184,
            "time": 170.8125,
            "velocity": 0.3937007874015748
          },
          {
            "duration": 0.0625,
            "durationTicks": 48,
            "midi": 50,
            "name": "D3",
            "ticks": 131472,
            "time": 171.1875,
            "velocity": 0.3937007874015748
          },
          {
            "duration": 0.0625,
            "durationTicks": 48,
            "midi": 45,
            "name": "A2",
            "ticks": 131472,
            "time": 171.1875,
            "velocity": 0.3937007874015748
          },
          {
            "duration": 0.0625,
            "durationTicks": 48,
            "midi": 52,
            "name": "E3",
            "ticks": 131616,
            "time": 171.375,
            "velocity": 0.3937007874015748
          },
          {
            "duration": 0.0625,
            "durationTicks": 48,
            "midi": 47,
            "name": "B2",
            "ticks": 131616,
            "time": 171.375,
            "velocity": 0.3937007874015748
          },
          {
            "duration": 0.0625,
            "durationTicks": 48,
            "midi": 52,
            "name": "E3",
            "ticks": 131904,
            "time": 171.75,
            "velocity": 0.3937007874015748
          },
          {
            "duration": 0.0625,
            "durationTicks": 48,
            "midi": 47,
            "name": "B2",
            "ticks": 131904,
            "time": 171.75,
            "velocity": 0.3937007874015748
          },
          {
            "duration": 0.0625,
            "durationTicks": 48,
            "midi": 47,
            "name": "B2",
            "ticks": 132048,
            "time": 171.9375,
            "velocity": 0.3937007874015748
          },
          {
            "duration": 0.0625,
            "durationTicks": 48,
            "midi": 52,
            "name": "E3",
            "ticks": 132048,
            "time": 171.9375,
            "velocity": 0.3937007874015748
          },
          {
            "duration": 0.0625,
            "durationTicks": 48,
            "midi": 52,
            "name": "E3",
            "ticks": 132192,
            "time": 172.125,
            "velocity": 0.3937007874015748
          },
          {
            "duration": 0.0625,
            "durationTicks": 48,
            "midi": 47,
            "name": "B2",
            "ticks": 132192,
            "time": 172.125,
            "velocity": 0.3937007874015748
          },
          {
            "duration": 0.0625,
            "durationTicks": 48,
            "midi": 47,
            "name": "B2",
            "ticks": 132336,
            "time": 172.3125,
            "velocity": 0.3937007874015748
          },
          {
            "duration": 0.0625,
            "durationTicks": 48,
            "midi": 52,
            "name": "E3",
            "ticks": 132336,
            "time": 172.3125,
            "velocity": 0.3937007874015748
          },
          {
            "duration": 0.0625,
            "durationTicks": 48,
            "midi": 52,
            "name": "E3",
            "ticks": 132480,
            "time": 172.5,
            "velocity": 0.3937007874015748
          },
          {
            "duration": 0.0625,
            "durationTicks": 48,
            "midi": 47,
            "name": "B2",
            "ticks": 132480,
            "time": 172.5,
            "velocity": 0.3937007874015748
          },
          {
            "duration": 0.0625,
            "durationTicks": 48,
            "midi": 47,
            "name": "B2",
            "ticks": 132624,
            "time": 172.6875,
            "velocity": 0.3937007874015748
          },
          {
            "duration": 0.0625,
            "durationTicks": 48,
            "midi": 52,
            "name": "E3",
            "ticks": 132624,
            "time": 172.6875,
            "velocity": 0.3937007874015748
          },
          {
            "duration": 0.0625,
            "durationTicks": 48,
            "midi": 47,
            "name": "B2",
            "ticks": 132768,
            "time": 172.875,
            "velocity": 0.3937007874015748
          },
          {
            "duration": 0.0625,
            "durationTicks": 48,
            "midi": 52,
            "name": "E3",
            "ticks": 132768,
            "time": 172.875,
            "velocity": 0.3937007874015748
          },
          {
            "duration": 0.0625,
            "durationTicks": 48,
            "midi": 47,
            "name": "B2",
            "ticks": 133056,
            "time": 173.25,
            "velocity": 0.3937007874015748
          },
          {
            "duration": 0.0625,
            "durationTicks": 48,
            "midi": 52,
            "name": "E3",
            "ticks": 133056,
            "time": 173.25,
            "velocity": 0.3937007874015748
          },
          {
            "duration": 0.0625,
            "durationTicks": 48,
            "midi": 50,
            "name": "D3",
            "ticks": 133344,
            "time": 173.625,
            "velocity": 0.3937007874015748
          },
          {
            "duration": 0.0625,
            "durationTicks": 48,
            "midi": 43,
            "name": "G2",
            "ticks": 133344,
            "time": 173.625,
            "velocity": 0.3937007874015748
          },
          {
            "duration": 0.0625,
            "durationTicks": 48,
            "midi": 50,
            "name": "D3",
            "ticks": 133776,
            "time": 174.1875,
            "velocity": 0.3937007874015748
          },
          {
            "duration": 0.0625,
            "durationTicks": 48,
            "midi": 45,
            "name": "A2",
            "ticks": 133776,
            "time": 174.1875,
            "velocity": 0.3937007874015748
          },
          {
            "duration": 0.0625,
            "durationTicks": 48,
            "midi": 47,
            "name": "B2",
            "ticks": 133920,
            "time": 174.375,
            "velocity": 0.3937007874015748
          },
          {
            "duration": 0.0625,
            "durationTicks": 48,
            "midi": 52,
            "name": "E3",
            "ticks": 133920,
            "time": 174.375,
            "velocity": 0.3937007874015748
          },
          {
            "duration": 0.0625,
            "durationTicks": 48,
            "midi": 50,
            "name": "D3",
            "ticks": 134208,
            "time": 174.75,
            "velocity": 0.3937007874015748
          },
          {
            "duration": 0.0625,
            "durationTicks": 48,
            "midi": 45,
            "name": "A2",
            "ticks": 134208,
            "time": 174.75,
            "velocity": 0.3937007874015748
          },
          {
            "duration": 0.0625,
            "durationTicks": 48,
            "midi": 47,
            "name": "B2",
            "ticks": 134352,
            "time": 174.9375,
            "velocity": 0.3937007874015748
          },
          {
            "duration": 0.0625,
            "durationTicks": 48,
            "midi": 52,
            "name": "E3",
            "ticks": 134352,
            "time": 174.9375,
            "velocity": 0.3937007874015748
          },
          {
            "duration": 0.0625,
            "durationTicks": 48,
            "midi": 52,
            "name": "E3",
            "ticks": 134640,
            "time": 175.3125,
            "velocity": 0.3937007874015748
          },
          {
            "duration": 0.0625,
            "durationTicks": 48,
            "midi": 47,
            "name": "B2",
            "ticks": 134640,
            "time": 175.3125,
            "velocity": 0.3937007874015748
          },
          {
            "duration": 0.0625,
            "durationTicks": 48,
            "midi": 45,
            "name": "A2",
            "ticks": 134928,
            "time": 175.6875,
            "velocity": 0.3937007874015748
          },
          {
            "duration": 0.0625,
            "durationTicks": 48,
            "midi": 50,
            "name": "D3",
            "ticks": 134928,
            "time": 175.6875,
            "velocity": 0.3937007874015748
          },
          {
            "duration": 0.0625,
            "durationTicks": 48,
            "midi": 52,
            "name": "E3",
            "ticks": 135072,
            "time": 175.875,
            "velocity": 0.3937007874015748
          },
          {
            "duration": 0.0625,
            "durationTicks": 48,
            "midi": 47,
            "name": "B2",
            "ticks": 135072,
            "time": 175.875,
            "velocity": 0.3937007874015748
          },
          {
            "duration": 0.0625,
            "durationTicks": 48,
            "midi": 50,
            "name": "D3",
            "ticks": 135360,
            "time": 176.25,
            "velocity": 0.3937007874015748
          },
          {
            "duration": 0.0625,
            "durationTicks": 48,
            "midi": 45,
            "name": "A2",
            "ticks": 135360,
            "time": 176.25,
            "velocity": 0.3937007874015748
          },
          {
            "duration": 0.0625,
            "durationTicks": 48,
            "midi": 47,
            "name": "B2",
            "ticks": 135504,
            "time": 176.4375,
            "velocity": 0.3937007874015748
          },
          {
            "duration": 0.0625,
            "durationTicks": 48,
            "midi": 52,
            "name": "E3",
            "ticks": 135504,
            "time": 176.4375,
            "velocity": 0.3937007874015748
          },
          {
            "duration": 0.0625,
            "durationTicks": 48,
            "midi": 52,
            "name": "E3",
            "ticks": 135792,
            "time": 176.8125,
            "velocity": 0.3937007874015748
          },
          {
            "duration": 0.0625,
            "durationTicks": 48,
            "midi": 47,
            "name": "B2",
            "ticks": 135792,
            "time": 176.8125,
            "velocity": 0.3937007874015748
          },
          {
            "duration": 0.0625,
            "durationTicks": 48,
            "midi": 50,
            "name": "D3",
            "ticks": 136080,
            "time": 177.1875,
            "velocity": 0.3937007874015748
          },
          {
            "duration": 0.0625,
            "durationTicks": 48,
            "midi": 45,
            "name": "A2",
            "ticks": 136080,
            "time": 177.1875,
            "velocity": 0.3937007874015748
          },
          {
            "duration": 0.0625,
            "durationTicks": 48,
            "midi": 52,
            "name": "E3",
            "ticks": 136224,
            "time": 177.375,
            "velocity": 0.3937007874015748
          },
          {
            "duration": 0.0625,
            "durationTicks": 48,
            "midi": 47,
            "name": "B2",
            "ticks": 136224,
            "time": 177.375,
            "velocity": 0.3937007874015748
          },
          {
            "duration": 0.0625,
            "durationTicks": 48,
            "midi": 50,
            "name": "D3",
            "ticks": 136512,
            "time": 177.75,
            "velocity": 0.3937007874015748
          },
          {
            "duration": 0.0625,
            "durationTicks": 48,
            "midi": 45,
            "name": "A2",
            "ticks": 136512,
            "time": 177.75,
            "velocity": 0.3937007874015748
          },
          {
            "duration": 0.0625,
            "durationTicks": 48,
            "midi": 47,
            "name": "B2",
            "ticks": 136656,
            "time": 177.9375,
            "velocity": 0.3937007874015748
          },
          {
            "duration": 0.0625,
            "durationTicks": 48,
            "midi": 52,
            "name": "E3",
            "ticks": 136656,
            "time": 177.9375,
            "velocity": 0.3937007874015748
          },
          {
            "duration": 0.0625,
            "durationTicks": 48,
            "midi": 50,
            "name": "D3",
            "ticks": 137088,
            "time": 178.5,
            "velocity": 0.3937007874015748
          },
          {
            "duration": 0.0625,
            "durationTicks": 48,
            "midi": 45,
            "name": "A2",
            "ticks": 137088,
            "time": 178.5,
            "velocity": 0.3937007874015748
          },
          {
            "duration": 0.0625,
            "durationTicks": 48,
            "midi": 47,
            "name": "B2",
            "ticks": 137232,
            "time": 178.6875,
            "velocity": 0.3937007874015748
          },
          {
            "duration": 0.0625,
            "durationTicks": 48,
            "midi": 52,
            "name": "E3",
            "ticks": 137232,
            "time": 178.6875,
            "velocity": 0.3937007874015748
          },
          {
            "duration": 0.0625,
            "durationTicks": 48,
            "midi": 52,
            "name": "E3",
            "ticks": 137520,
            "time": 179.0625,
            "velocity": 0.3937007874015748
          },
          {
            "duration": 0.0625,
            "durationTicks": 48,
            "midi": 47,
            "name": "B2",
            "ticks": 137520,
            "time": 179.0625,
            "velocity": 0.3937007874015748
          },
          {
            "duration": 0.0625,
            "durationTicks": 48,
            "midi": 50,
            "name": "D3",
            "ticks": 137808,
            "time": 179.4375,
            "velocity": 0.3937007874015748
          },
          {
            "duration": 0.0625,
            "durationTicks": 48,
            "midi": 45,
            "name": "A2",
            "ticks": 137808,
            "time": 179.4375,
            "velocity": 0.3937007874015748
          },
          {
            "duration": 0.0625,
            "durationTicks": 48,
            "midi": 47,
            "name": "B2",
            "ticks": 137952,
            "time": 179.625,
            "velocity": 0.3937007874015748
          },
          {
            "duration": 0.0625,
            "durationTicks": 48,
            "midi": 52,
            "name": "E3",
            "ticks": 137952,
            "time": 179.625,
            "velocity": 0.3937007874015748
          },
          {
            "duration": 0.0625,
            "durationTicks": 48,
            "midi": 52,
            "name": "E3",
            "ticks": 138240,
            "time": 180,
            "velocity": 0.3937007874015748
          },
          {
            "duration": 0.0625,
            "durationTicks": 48,
            "midi": 47,
            "name": "B2",
            "ticks": 138240,
            "time": 180,
            "velocity": 0.3937007874015748
          },
          {
            "duration": 0.0625,
            "durationTicks": 48,
            "midi": 52,
            "name": "E3",
            "ticks": 138384,
            "time": 180.1875,
            "velocity": 0.3937007874015748
          },
          {
            "duration": 0.0625,
            "durationTicks": 48,
            "midi": 47,
            "name": "B2",
            "ticks": 138384,
            "time": 180.1875,
            "velocity": 0.3937007874015748
          },
          {
            "duration": 0.0625,
            "durationTicks": 48,
            "midi": 47,
            "name": "B2",
            "ticks": 138528,
            "time": 180.375,
            "velocity": 0.3937007874015748
          },
          {
            "duration": 0.0625,
            "durationTicks": 48,
            "midi": 52,
            "name": "E3",
            "ticks": 138528,
            "time": 180.375,
            "velocity": 0.3937007874015748
          },
          {
            "duration": 0.0625,
            "durationTicks": 48,
            "midi": 52,
            "name": "E3",
            "ticks": 138672,
            "time": 180.5625,
            "velocity": 0.3937007874015748
          },
          {
            "duration": 0.0625,
            "durationTicks": 48,
            "midi": 47,
            "name": "B2",
            "ticks": 138672,
            "time": 180.5625,
            "velocity": 0.3937007874015748
          },
          {
            "duration": 0.0625,
            "durationTicks": 48,
            "midi": 52,
            "name": "E3",
            "ticks": 138816,
            "time": 180.75,
            "velocity": 0.3937007874015748
          },
          {
            "duration": 0.0625,
            "durationTicks": 48,
            "midi": 47,
            "name": "B2",
            "ticks": 138816,
            "time": 180.75,
            "velocity": 0.3937007874015748
          },
          {
            "duration": 0.0625,
            "durationTicks": 48,
            "midi": 52,
            "name": "E3",
            "ticks": 138960,
            "time": 180.9375,
            "velocity": 0.3937007874015748
          },
          {
            "duration": 0.0625,
            "durationTicks": 48,
            "midi": 47,
            "name": "B2",
            "ticks": 138960,
            "time": 180.9375,
            "velocity": 0.3937007874015748
          },
          {
            "duration": 0.0625,
            "durationTicks": 48,
            "midi": 47,
            "name": "B2",
            "ticks": 139104,
            "time": 181.125,
            "velocity": 0.3937007874015748
          },
          {
            "duration": 0.0625,
            "durationTicks": 48,
            "midi": 52,
            "name": "E3",
            "ticks": 139104,
            "time": 181.125,
            "velocity": 0.3937007874015748
          },
          {
            "duration": 0.0625,
            "durationTicks": 48,
            "midi": 52,
            "name": "E3",
            "ticks": 139392,
            "time": 181.5,
            "velocity": 0.3937007874015748
          },
          {
            "duration": 0.0625,
            "durationTicks": 48,
            "midi": 47,
            "name": "B2",
            "ticks": 139392,
            "time": 181.5,
            "velocity": 0.3937007874015748
          },
          {
            "duration": 0.0625,
            "durationTicks": 48,
            "midi": 43,
            "name": "G2",
            "ticks": 139680,
            "time": 181.875,
            "velocity": 0.3937007874015748
          },
          {
            "duration": 0.0625,
            "durationTicks": 48,
            "midi": 50,
            "name": "D3",
            "ticks": 139680,
            "time": 181.875,
            "velocity": 0.3937007874015748
          },
          {
            "duration": 0.0625,
            "durationTicks": 48,
            "midi": 50,
            "name": "D3",
            "ticks": 140112,
            "time": 182.4375,
            "velocity": 0.3937007874015748
          },
          {
            "duration": 0.0625,
            "durationTicks": 48,
            "midi": 45,
            "name": "A2",
            "ticks": 140112,
            "time": 182.4375,
            "velocity": 0.3937007874015748
          },
          {
            "duration": 0.0625,
            "durationTicks": 48,
            "midi": 52,
            "name": "E3",
            "ticks": 140256,
            "time": 182.625,
            "velocity": 0.3937007874015748
          },
          {
            "duration": 0.0625,
            "durationTicks": 48,
            "midi": 47,
            "name": "B2",
            "ticks": 140256,
            "time": 182.625,
            "velocity": 0.3937007874015748
          },
          {
            "duration": 0.0625,
            "durationTicks": 48,
            "midi": 45,
            "name": "A2",
            "ticks": 140544,
            "time": 183,
            "velocity": 0.3937007874015748
          },
          {
            "duration": 0.0625,
            "durationTicks": 48,
            "midi": 50,
            "name": "D3",
            "ticks": 140544,
            "time": 183,
            "velocity": 0.3937007874015748
          },
          {
            "duration": 0.0625,
            "durationTicks": 48,
            "midi": 52,
            "name": "E3",
            "ticks": 140688,
            "time": 183.1875,
            "velocity": 0.3937007874015748
          },
          {
            "duration": 0.0625,
            "durationTicks": 48,
            "midi": 47,
            "name": "B2",
            "ticks": 140688,
            "time": 183.1875,
            "velocity": 0.3937007874015748
          },
          {
            "duration": 0.0625,
            "durationTicks": 48,
            "midi": 47,
            "name": "B2",
            "ticks": 140976,
            "time": 183.5625,
            "velocity": 0.3937007874015748
          },
          {
            "duration": 0.0625,
            "durationTicks": 48,
            "midi": 52,
            "name": "E3",
            "ticks": 140976,
            "time": 183.5625,
            "velocity": 0.3937007874015748
          },
          {
            "duration": 0.0625,
            "durationTicks": 48,
            "midi": 45,
            "name": "A2",
            "ticks": 141264,
            "time": 183.9375,
            "velocity": 0.3937007874015748
          },
          {
            "duration": 0.0625,
            "durationTicks": 48,
            "midi": 50,
            "name": "D3",
            "ticks": 141264,
            "time": 183.9375,
            "velocity": 0.3937007874015748
          },
          {
            "duration": 0.0625,
            "durationTicks": 48,
            "midi": 52,
            "name": "E3",
            "ticks": 141408,
            "time": 184.125,
            "velocity": 0.3937007874015748
          },
          {
            "duration": 0.0625,
            "durationTicks": 48,
            "midi": 47,
            "name": "B2",
            "ticks": 141408,
            "time": 184.125,
            "velocity": 0.3937007874015748
          },
          {
            "duration": 0.0625,
            "durationTicks": 48,
            "midi": 45,
            "name": "A2",
            "ticks": 141696,
            "time": 184.5,
            "velocity": 0.3937007874015748
          },
          {
            "duration": 0.0625,
            "durationTicks": 48,
            "midi": 50,
            "name": "D3",
            "ticks": 141696,
            "time": 184.5,
            "velocity": 0.3937007874015748
          },
          {
            "duration": 0.0625,
            "durationTicks": 48,
            "midi": 47,
            "name": "B2",
            "ticks": 141840,
            "time": 184.6875,
            "velocity": 0.3937007874015748
          },
          {
            "duration": 0.0625,
            "durationTicks": 48,
            "midi": 52,
            "name": "E3",
            "ticks": 141840,
            "time": 184.6875,
            "velocity": 0.3937007874015748
          },
          {
            "duration": 0.0625,
            "durationTicks": 48,
            "midi": 47,
            "name": "B2",
            "ticks": 142128,
            "time": 185.0625,
            "velocity": 0.3937007874015748
          },
          {
            "duration": 0.0625,
            "durationTicks": 48,
            "midi": 52,
            "name": "E3",
            "ticks": 142128,
            "time": 185.0625,
            "velocity": 0.3937007874015748
          },
          {
            "duration": 0.0625,
            "durationTicks": 48,
            "midi": 45,
            "name": "A2",
            "ticks": 142416,
            "time": 185.4375,
            "velocity": 0.3937007874015748
          },
          {
            "duration": 0.0625,
            "durationTicks": 48,
            "midi": 50,
            "name": "D3",
            "ticks": 142416,
            "time": 185.4375,
            "velocity": 0.3937007874015748
          },
          {
            "duration": 0.0625,
            "durationTicks": 48,
            "midi": 52,
            "name": "E3",
            "ticks": 142560,
            "time": 185.625,
            "velocity": 0.3937007874015748
          },
          {
            "duration": 0.0625,
            "durationTicks": 48,
            "midi": 47,
            "name": "B2",
            "ticks": 142560,
            "time": 185.625,
            "velocity": 0.3937007874015748
          },
          {
            "duration": 0.0625,
            "durationTicks": 48,
            "midi": 50,
            "name": "D3",
            "ticks": 142848,
            "time": 186,
            "velocity": 0.3937007874015748
          },
          {
            "duration": 0.0625,
            "durationTicks": 48,
            "midi": 45,
            "name": "A2",
            "ticks": 142848,
            "time": 186,
            "velocity": 0.3937007874015748
          },
          {
            "duration": 0.0625,
            "durationTicks": 48,
            "midi": 47,
            "name": "B2",
            "ticks": 142992,
            "time": 186.1875,
            "velocity": 0.3937007874015748
          },
          {
            "duration": 0.0625,
            "durationTicks": 48,
            "midi": 52,
            "name": "E3",
            "ticks": 142992,
            "time": 186.1875,
            "velocity": 0.3937007874015748
          },
          {
            "duration": 0.0625,
            "durationTicks": 48,
            "midi": 45,
            "name": "A2",
            "ticks": 143424,
            "time": 186.75,
            "velocity": 0.3937007874015748
          },
          {
            "duration": 0.0625,
            "durationTicks": 48,
            "midi": 50,
            "name": "D3",
            "ticks": 143424,
            "time": 186.75,
            "velocity": 0.3937007874015748
          },
          {
            "duration": 0.0625,
            "durationTicks": 48,
            "midi": 52,
            "name": "E3",
            "ticks": 143568,
            "time": 186.9375,
            "velocity": 0.3937007874015748
          },
          {
            "duration": 0.0625,
            "durationTicks": 48,
            "midi": 47,
            "name": "B2",
            "ticks": 143568,
            "time": 186.9375,
            "velocity": 0.3937007874015748
          },
          {
            "duration": 0.0625,
            "durationTicks": 48,
            "midi": 47,
            "name": "B2",
            "ticks": 143856,
            "time": 187.3125,
            "velocity": 0.3937007874015748
          },
          {
            "duration": 0.0625,
            "durationTicks": 48,
            "midi": 52,
            "name": "E3",
            "ticks": 143856,
            "time": 187.3125,
            "velocity": 0.3937007874015748
          },
          {
            "duration": 0.0625,
            "durationTicks": 48,
            "midi": 45,
            "name": "A2",
            "ticks": 144144,
            "time": 187.6875,
            "velocity": 0.3937007874015748
          },
          {
            "duration": 0.0625,
            "durationTicks": 48,
            "midi": 50,
            "name": "D3",
            "ticks": 144144,
            "time": 187.6875,
            "velocity": 0.3937007874015748
          },
          {
            "duration": 0.0625,
            "durationTicks": 48,
            "midi": 52,
            "name": "E3",
            "ticks": 144288,
            "time": 187.875,
            "velocity": 0.3937007874015748
          },
          {
            "duration": 0.0625,
            "durationTicks": 48,
            "midi": 47,
            "name": "B2",
            "ticks": 144288,
            "time": 187.875,
            "velocity": 0.3937007874015748
          },
          {
            "duration": 0.0625,
            "durationTicks": 48,
            "midi": 47,
            "name": "B2",
            "ticks": 144576,
            "time": 188.25,
            "velocity": 0.3937007874015748
          },
          {
            "duration": 0.0625,
            "durationTicks": 48,
            "midi": 52,
            "name": "E3",
            "ticks": 144576,
            "time": 188.25,
            "velocity": 0.3937007874015748
          },
          {
            "duration": 0.0625,
            "durationTicks": 48,
            "midi": 47,
            "name": "B2",
            "ticks": 144720,
            "time": 188.4375,
            "velocity": 0.3937007874015748
          },
          {
            "duration": 0.0625,
            "durationTicks": 48,
            "midi": 52,
            "name": "E3",
            "ticks": 144720,
            "time": 188.4375,
            "velocity": 0.3937007874015748
          },
          {
            "duration": 0.0625,
            "durationTicks": 48,
            "midi": 47,
            "name": "B2",
            "ticks": 144864,
            "time": 188.625,
            "velocity": 0.3937007874015748
          },
          {
            "duration": 0.0625,
            "durationTicks": 48,
            "midi": 52,
            "name": "E3",
            "ticks": 144864,
            "time": 188.625,
            "velocity": 0.3937007874015748
          },
          {
            "duration": 0.0625,
            "durationTicks": 48,
            "midi": 47,
            "name": "B2",
            "ticks": 145008,
            "time": 188.8125,
            "velocity": 0.3937007874015748
          },
          {
            "duration": 0.0625,
            "durationTicks": 48,
            "midi": 52,
            "name": "E3",
            "ticks": 145008,
            "time": 188.8125,
            "velocity": 0.3937007874015748
          },
          {
            "duration": 0.0625,
            "durationTicks": 48,
            "midi": 47,
            "name": "B2",
            "ticks": 145152,
            "time": 189,
            "velocity": 0.3937007874015748
          },
          {
            "duration": 0.0625,
            "durationTicks": 48,
            "midi": 52,
            "name": "E3",
            "ticks": 145152,
            "time": 189,
            "velocity": 0.3937007874015748
          },
          {
            "duration": 0.0625,
            "durationTicks": 48,
            "midi": 47,
            "name": "B2",
            "ticks": 145296,
            "time": 189.1875,
            "velocity": 0.3937007874015748
          },
          {
            "duration": 0.0625,
            "durationTicks": 48,
            "midi": 52,
            "name": "E3",
            "ticks": 145296,
            "time": 189.1875,
            "velocity": 0.3937007874015748
          },
          {
            "duration": 0.0625,
            "durationTicks": 48,
            "midi": 47,
            "name": "B2",
            "ticks": 145440,
            "time": 189.375,
            "velocity": 0.3937007874015748
          },
          {
            "duration": 0.0625,
            "durationTicks": 48,
            "midi": 52,
            "name": "E3",
            "ticks": 145440,
            "time": 189.375,
            "velocity": 0.3937007874015748
          },
          {
            "duration": 0.0625,
            "durationTicks": 48,
            "midi": 52,
            "name": "E3",
            "ticks": 145728,
            "time": 189.75,
            "velocity": 0.3937007874015748
          },
          {
            "duration": 0.0625,
            "durationTicks": 48,
            "midi": 47,
            "name": "B2",
            "ticks": 145728,
            "time": 189.75,
            "velocity": 0.3937007874015748
          },
          {
            "duration": 0.0625,
            "durationTicks": 48,
            "midi": 43,
            "name": "G2",
            "ticks": 146016,
            "time": 190.125,
            "velocity": 0.3937007874015748
          },
          {
            "duration": 0.0625,
            "durationTicks": 48,
            "midi": 50,
            "name": "D3",
            "ticks": 146016,
            "time": 190.125,
            "velocity": 0.3937007874015748
          },
          {
            "duration": 0.0625,
            "durationTicks": 48,
            "midi": 50,
            "name": "D3",
            "ticks": 146448,
            "time": 190.6875,
            "velocity": 0.3937007874015748
          },
          {
            "duration": 0.0625,
            "durationTicks": 48,
            "midi": 45,
            "name": "A2",
            "ticks": 146448,
            "time": 190.6875,
            "velocity": 0.3937007874015748
          },
          {
            "duration": 0.0625,
            "durationTicks": 48,
            "midi": 52,
            "name": "E3",
            "ticks": 146592,
            "time": 190.875,
            "velocity": 0.3937007874015748
          },
          {
            "duration": 0.0625,
            "durationTicks": 48,
            "midi": 47,
            "name": "B2",
            "ticks": 146592,
            "time": 190.875,
            "velocity": 0.3937007874015748
          },
          {
            "duration": 0.0625,
            "durationTicks": 48,
            "midi": 45,
            "name": "A2",
            "ticks": 146880,
            "time": 191.25,
            "velocity": 0.3937007874015748
          },
          {
            "duration": 0.0625,
            "durationTicks": 48,
            "midi": 50,
            "name": "D3",
            "ticks": 146880,
            "time": 191.25,
            "velocity": 0.3937007874015748
          },
          {
            "duration": 0.0625,
            "durationTicks": 48,
            "midi": 47,
            "name": "B2",
            "ticks": 147024,
            "time": 191.4375,
            "velocity": 0.3937007874015748
          },
          {
            "duration": 0.0625,
            "durationTicks": 48,
            "midi": 52,
            "name": "E3",
            "ticks": 147024,
            "time": 191.4375,
            "velocity": 0.3937007874015748
          },
          {
            "duration": 0.0625,
            "durationTicks": 48,
            "midi": 47,
            "name": "B2",
            "ticks": 147312,
            "time": 191.8125,
            "velocity": 0.3937007874015748
          },
          {
            "duration": 0.0625,
            "durationTicks": 48,
            "midi": 52,
            "name": "E3",
            "ticks": 147312,
            "time": 191.8125,
            "velocity": 0.3937007874015748
          },
          {
            "duration": 0.0625,
            "durationTicks": 48,
            "midi": 45,
            "name": "A2",
            "ticks": 147600,
            "time": 192.1875,
            "velocity": 0.3937007874015748
          },
          {
            "duration": 0.0625,
            "durationTicks": 48,
            "midi": 50,
            "name": "D3",
            "ticks": 147600,
            "time": 192.1875,
            "velocity": 0.3937007874015748
          },
          {
            "duration": 0.0625,
            "durationTicks": 48,
            "midi": 52,
            "name": "E3",
            "ticks": 147744,
            "time": 192.375,
            "velocity": 0.3937007874015748
          },
          {
            "duration": 0.0625,
            "durationTicks": 48,
            "midi": 47,
            "name": "B2",
            "ticks": 147744,
            "time": 192.375,
            "velocity": 0.3937007874015748
          },
          {
            "duration": 0.0625,
            "durationTicks": 48,
            "midi": 50,
            "name": "D3",
            "ticks": 148032,
            "time": 192.75,
            "velocity": 0.3937007874015748
          },
          {
            "duration": 0.0625,
            "durationTicks": 48,
            "midi": 45,
            "name": "A2",
            "ticks": 148032,
            "time": 192.75,
            "velocity": 0.3937007874015748
          },
          {
            "duration": 0.0625,
            "durationTicks": 48,
            "midi": 47,
            "name": "B2",
            "ticks": 148176,
            "time": 192.9375,
            "velocity": 0.3937007874015748
          },
          {
            "duration": 0.0625,
            "durationTicks": 48,
            "midi": 52,
            "name": "E3",
            "ticks": 148176,
            "time": 192.9375,
            "velocity": 0.3937007874015748
          },
          {
            "duration": 0.0625,
            "durationTicks": 48,
            "midi": 52,
            "name": "E3",
            "ticks": 148464,
            "time": 193.3125,
            "velocity": 0.3937007874015748
          },
          {
            "duration": 0.0625,
            "durationTicks": 48,
            "midi": 47,
            "name": "B2",
            "ticks": 148464,
            "time": 193.3125,
            "velocity": 0.3937007874015748
          },
          {
            "duration": 0.0625,
            "durationTicks": 48,
            "midi": 45,
            "name": "A2",
            "ticks": 148752,
            "time": 193.6875,
            "velocity": 0.3937007874015748
          },
          {
            "duration": 0.0625,
            "durationTicks": 48,
            "midi": 50,
            "name": "D3",
            "ticks": 148752,
            "time": 193.6875,
            "velocity": 0.3937007874015748
          },
          {
            "duration": 0.0625,
            "durationTicks": 48,
            "midi": 52,
            "name": "E3",
            "ticks": 148896,
            "time": 193.875,
            "velocity": 0.3937007874015748
          },
          {
            "duration": 0.0625,
            "durationTicks": 48,
            "midi": 47,
            "name": "B2",
            "ticks": 148896,
            "time": 193.875,
            "velocity": 0.3937007874015748
          },
          {
            "duration": 0.0625,
            "durationTicks": 48,
            "midi": 50,
            "name": "D3",
            "ticks": 149184,
            "time": 194.25,
            "velocity": 0.3937007874015748
          },
          {
            "duration": 0.0625,
            "durationTicks": 48,
            "midi": 45,
            "name": "A2",
            "ticks": 149184,
            "time": 194.25,
            "velocity": 0.3937007874015748
          },
          {
            "duration": 0.0625,
            "durationTicks": 48,
            "midi": 47,
            "name": "B2",
            "ticks": 149328,
            "time": 194.4375,
            "velocity": 0.3937007874015748
          },
          {
            "duration": 0.0625,
            "durationTicks": 48,
            "midi": 52,
            "name": "E3",
            "ticks": 149328,
            "time": 194.4375,
            "velocity": 0.3937007874015748
          },
          {
            "duration": 0.0625,
            "durationTicks": 48,
            "midi": 50,
            "name": "D3",
            "ticks": 149760,
            "time": 195,
            "velocity": 0.3937007874015748
          },
          {
            "duration": 0.0625,
            "durationTicks": 48,
            "midi": 45,
            "name": "A2",
            "ticks": 149760,
            "time": 195,
            "velocity": 0.3937007874015748
          },
          {
            "duration": 0.0625,
            "durationTicks": 48,
            "midi": 47,
            "name": "B2",
            "ticks": 149904,
            "time": 195.1875,
            "velocity": 0.3937007874015748
          },
          {
            "duration": 0.0625,
            "durationTicks": 48,
            "midi": 52,
            "name": "E3",
            "ticks": 149904,
            "time": 195.1875,
            "velocity": 0.3937007874015748
          },
          {
            "duration": 0.0625,
            "durationTicks": 48,
            "midi": 52,
            "name": "E3",
            "ticks": 150192,
            "time": 195.5625,
            "velocity": 0.3937007874015748
          },
          {
            "duration": 0.0625,
            "durationTicks": 48,
            "midi": 47,
            "name": "B2",
            "ticks": 150192,
            "time": 195.5625,
            "velocity": 0.3937007874015748
          },
          {
            "duration": 0.0625,
            "durationTicks": 48,
            "midi": 50,
            "name": "D3",
            "ticks": 150480,
            "time": 195.9375,
            "velocity": 0.3937007874015748
          },
          {
            "duration": 0.0625,
            "durationTicks": 48,
            "midi": 45,
            "name": "A2",
            "ticks": 150480,
            "time": 195.9375,
            "velocity": 0.3937007874015748
          },
          {
            "duration": 0.0625,
            "durationTicks": 48,
            "midi": 47,
            "name": "B2",
            "ticks": 150624,
            "time": 196.125,
            "velocity": 0.3937007874015748
          },
          {
            "duration": 0.0625,
            "durationTicks": 48,
            "midi": 52,
            "name": "E3",
            "ticks": 150624,
            "time": 196.125,
            "velocity": 0.3937007874015748
          },
          {
            "duration": 0.0625,
            "durationTicks": 48,
            "midi": 52,
            "name": "E3",
            "ticks": 150912,
            "time": 196.5,
            "velocity": 0.3937007874015748
          },
          {
            "duration": 0.0625,
            "durationTicks": 48,
            "midi": 47,
            "name": "B2",
            "ticks": 150912,
            "time": 196.5,
            "velocity": 0.3937007874015748
          },
          {
            "duration": 0.0625,
            "durationTicks": 48,
            "midi": 47,
            "name": "B2",
            "ticks": 151056,
            "time": 196.6875,
            "velocity": 0.3937007874015748
          },
          {
            "duration": 0.0625,
            "durationTicks": 48,
            "midi": 52,
            "name": "E3",
            "ticks": 151056,
            "time": 196.6875,
            "velocity": 0.3937007874015748
          },
          {
            "duration": 0.0625,
            "durationTicks": 48,
            "midi": 52,
            "name": "E3",
            "ticks": 151200,
            "time": 196.875,
            "velocity": 0.3937007874015748
          },
          {
            "duration": 0.0625,
            "durationTicks": 48,
            "midi": 47,
            "name": "B2",
            "ticks": 151200,
            "time": 196.875,
            "velocity": 0.3937007874015748
          },
          {
            "duration": 0.0625,
            "durationTicks": 48,
            "midi": 47,
            "name": "B2",
            "ticks": 151344,
            "time": 197.0625,
            "velocity": 0.3937007874015748
          },
          {
            "duration": 0.0625,
            "durationTicks": 48,
            "midi": 52,
            "name": "E3",
            "ticks": 151344,
            "time": 197.0625,
            "velocity": 0.3937007874015748
          },
          {
            "duration": 0.0625,
            "durationTicks": 48,
            "midi": 47,
            "name": "B2",
            "ticks": 151488,
            "time": 197.25,
            "velocity": 0.3937007874015748
          },
          {
            "duration": 0.0625,
            "durationTicks": 48,
            "midi": 52,
            "name": "E3",
            "ticks": 151488,
            "time": 197.25,
            "velocity": 0.3937007874015748
          },
          {
            "duration": 0.0625,
            "durationTicks": 48,
            "midi": 47,
            "name": "B2",
            "ticks": 151632,
            "time": 197.4375,
            "velocity": 0.3937007874015748
          },
          {
            "duration": 0.0625,
            "durationTicks": 48,
            "midi": 52,
            "name": "E3",
            "ticks": 151632,
            "time": 197.4375,
            "velocity": 0.3937007874015748
          },
          {
            "duration": 0.0625,
            "durationTicks": 48,
            "midi": 52,
            "name": "E3",
            "ticks": 151776,
            "time": 197.625,
            "velocity": 0.3937007874015748
          },
          {
            "duration": 0.0625,
            "durationTicks": 48,
            "midi": 47,
            "name": "B2",
            "ticks": 151776,
            "time": 197.625,
            "velocity": 0.3937007874015748
          },
          {
            "duration": 0.4375,
            "durationTicks": 336,
            "midi": 50,
            "name": "D3",
            "ticks": 152064,
            "time": 198,
            "velocity": 0.3937007874015748
          },
          {
            "duration": 0.9375,
            "durationTicks": 720,
            "midi": 55,
            "name": "G3",
            "ticks": 152064,
            "time": 198,
            "velocity": 0.3937007874015748
          },
          {
            "duration": 0.0625,
            "durationTicks": 48,
            "midi": 47,
            "name": "B2",
            "ticks": 152064,
            "time": 198,
            "velocity": 0.3937007874015748
          },
          {
            "duration": 0.0625,
            "durationTicks": 48,
            "midi": 52,
            "name": "E3",
            "ticks": 152064,
            "time": 198,
            "velocity": 0.3937007874015748
          },
          {
            "duration": 0.9375,
            "durationTicks": 720,
            "midi": 59,
            "name": "B3",
            "ticks": 152064,
            "time": 198,
            "velocity": 0.3937007874015748
          },
          {
            "duration": 0.0625,
            "durationTicks": 48,
            "midi": 43,
            "name": "G2",
            "ticks": 152352,
            "time": 198.375,
            "velocity": 0.3937007874015748
          },
          {
            "duration": 0.5625,
            "durationTicks": 432,
            "midi": 50,
            "name": "D3",
            "ticks": 152352,
            "time": 198.375,
            "velocity": 0.3937007874015748
          },
          {
            "duration": 0.1875,
            "durationTicks": 144,
            "midi": 48,
            "name": "C3",
            "ticks": 152784,
            "time": 198.9375,
            "velocity": 0.3937007874015748
          },
          {
            "duration": 0.1875,
            "durationTicks": 144,
            "midi": 57,
            "name": "A3",
            "ticks": 152784,
            "time": 198.9375,
            "velocity": 0.3937007874015748
          },
          {
            "duration": 0.1875,
            "durationTicks": 144,
            "midi": 52,
            "name": "E3",
            "ticks": 152784,
            "time": 198.9375,
            "velocity": 0.3937007874015748
          },
          {
            "duration": 0.375,
            "durationTicks": 288,
            "midi": 55,
            "name": "G3",
            "ticks": 152928,
            "time": 199.125,
            "velocity": 0.3937007874015748
          },
          {
            "duration": 0.375,
            "durationTicks": 288,
            "midi": 59,
            "name": "B3",
            "ticks": 152928,
            "time": 199.125,
            "velocity": 0.3937007874015748
          },
          {
            "duration": 0.375,
            "durationTicks": 288,
            "midi": 50,
            "name": "D3",
            "ticks": 152928,
            "time": 199.125,
            "velocity": 0.3937007874015748
          },
          {
            "duration": 2.125,
            "durationTicks": 1632,
            "midi": 48,
            "name": "C3",
            "ticks": 153216,
            "time": 199.5,
            "velocity": 0.3937007874015748
          },
          {
            "duration": 2.125,
            "durationTicks": 1632,
            "midi": 57,
            "name": "A3",
            "ticks": 153216,
            "time": 199.5,
            "velocity": 0.3937007874015748
          },
          {
            "duration": 2.125,
            "durationTicks": 1632,
            "midi": 52,
            "name": "E3",
            "ticks": 153216,
            "time": 199.5,
            "velocity": 0.3937007874015748
          },
          {
            "duration": 0.375,
            "durationTicks": 288,
            "midi": 50,
            "name": "D3",
            "ticks": 155520,
            "time": 202.5,
            "velocity": 0.3937007874015748
          },
          {
            "duration": 0.375,
            "durationTicks": 288,
            "midi": 59,
            "name": "B3",
            "ticks": 155520,
            "time": 202.5,
            "velocity": 0.3937007874015748
          },
          {
            "duration": 0.375,
            "durationTicks": 288,
            "midi": 55,
            "name": "G3",
            "ticks": 155520,
            "time": 202.5,
            "velocity": 0.3937007874015748
          },
          {
            "duration": 0.1875,
            "durationTicks": 144,
            "midi": 50,
            "name": "D3",
            "ticks": 155808,
            "time": 202.875,
            "velocity": 0.3937007874015748
          },
          {
            "duration": 0.1875,
            "durationTicks": 144,
            "midi": 50,
            "name": "D3",
            "ticks": 155808,
            "time": 202.875,
            "velocity": 0.3937007874015748
          },
          {
            "duration": 0.1875,
            "durationTicks": 144,
            "midi": 54,
            "name": "F#3",
            "ticks": 155808,
            "time": 202.875,
            "velocity": 0.3937007874015748
          },
          {
            "duration": 0.1875,
            "durationTicks": 144,
            "midi": 57,
            "name": "A3",
            "ticks": 155808,
            "time": 202.875,
            "velocity": 0.3937007874015748
          },
          {
            "duration": 0.1875,
            "durationTicks": 144,
            "midi": 52,
            "name": "E3",
            "ticks": 155952,
            "time": 203.0625,
            "velocity": 0.3937007874015748
          },
          {
            "duration": 0.1875,
            "durationTicks": 144,
            "midi": 50,
            "name": "D3",
            "ticks": 155952,
            "time": 203.0625,
            "velocity": 0.3937007874015748
          },
          {
            "duration": 0.1875,
            "durationTicks": 144,
            "midi": 55,
            "name": "G3",
            "ticks": 155952,
            "time": 203.0625,
            "velocity": 0.3937007874015748
          },
          {
            "duration": 1.75,
            "durationTicks": 1344,
            "midi": 55,
            "name": "G3",
            "ticks": 156096,
            "time": 203.25,
            "velocity": 0.3937007874015748
          },
          {
            "duration": 1.75,
            "durationTicks": 1344,
            "midi": 52,
            "name": "E3",
            "ticks": 156096,
            "time": 203.25,
            "velocity": 0.3937007874015748
          },
          {
            "duration": 0.1875,
            "durationTicks": 144,
            "midi": 50,
            "name": "D3",
            "ticks": 156096,
            "time": 203.25,
            "velocity": 0.3937007874015748
          },
          {
            "duration": 1.75,
            "durationTicks": 1344,
            "midi": 52,
            "name": "E3",
            "ticks": 156096,
            "time": 203.25,
            "velocity": 0.3937007874015748
          },
          {
            "duration": 0.9375,
            "durationTicks": 720,
            "midi": 55,
            "name": "G3",
            "ticks": 158400,
            "time": 206.25,
            "velocity": 0.3937007874015748
          },
          {
            "duration": 0.9375,
            "durationTicks": 720,
            "midi": 59,
            "name": "B3",
            "ticks": 158400,
            "time": 206.25,
            "velocity": 0.3937007874015748
          },
          {
            "duration": 0.9375,
            "durationTicks": 720,
            "midi": 50,
            "name": "D3",
            "ticks": 158400,
            "time": 206.25,
            "velocity": 0.3937007874015748
          },
          {
            "duration": 0.1875,
            "durationTicks": 144,
            "midi": 48,
            "name": "C3",
            "ticks": 159120,
            "time": 207.1875,
            "velocity": 0.3937007874015748
          },
          {
            "duration": 0.1875,
            "durationTicks": 144,
            "midi": 52,
            "name": "E3",
            "ticks": 159120,
            "time": 207.1875,
            "velocity": 0.3937007874015748
          },
          {
            "duration": 0.1875,
            "durationTicks": 144,
            "midi": 57,
            "name": "A3",
            "ticks": 159120,
            "time": 207.1875,
            "velocity": 0.3937007874015748
          },
          {
            "duration": 0.375,
            "durationTicks": 288,
            "midi": 50,
            "name": "D3",
            "ticks": 159264,
            "time": 207.375,
            "velocity": 0.3937007874015748
          },
          {
            "duration": 0.375,
            "durationTicks": 288,
            "midi": 55,
            "name": "G3",
            "ticks": 159264,
            "time": 207.375,
            "velocity": 0.3937007874015748
          },
          {
            "duration": 0.375,
            "durationTicks": 288,
            "midi": 59,
            "name": "B3",
            "ticks": 159264,
            "time": 207.375,
            "velocity": 0.3937007874015748
          },
          {
            "duration": 2.125,
            "durationTicks": 1632,
            "midi": 57,
            "name": "A3",
            "ticks": 159552,
            "time": 207.75,
            "velocity": 0.3937007874015748
          },
          {
            "duration": 2.125,
            "durationTicks": 1632,
            "midi": 48,
            "name": "C3",
            "ticks": 159552,
            "time": 207.75,
            "velocity": 0.3937007874015748
          },
          {
            "duration": 2.125,
            "durationTicks": 1632,
            "midi": 52,
            "name": "E3",
            "ticks": 159552,
            "time": 207.75,
            "velocity": 0.3937007874015748
          },
          {
            "duration": 0.375,
            "durationTicks": 288,
            "midi": 55,
            "name": "G3",
            "ticks": 161856,
            "time": 210.75,
            "velocity": 0.3937007874015748
          },
          {
            "duration": 0.375,
            "durationTicks": 288,
            "midi": 59,
            "name": "B3",
            "ticks": 161856,
            "time": 210.75,
            "velocity": 0.3937007874015748
          },
          {
            "duration": 0.375,
            "durationTicks": 288,
            "midi": 50,
            "name": "D3",
            "ticks": 161856,
            "time": 210.75,
            "velocity": 0.3937007874015748
          },
          {
            "duration": 0.1875,
            "durationTicks": 144,
            "midi": 54,
            "name": "F#3",
            "ticks": 162144,
            "time": 211.125,
            "velocity": 0.3937007874015748
          },
          {
            "duration": 0.1875,
            "durationTicks": 144,
            "midi": 57,
            "name": "A3",
            "ticks": 162144,
            "time": 211.125,
            "velocity": 0.3937007874015748
          },
          {
            "duration": 0.1875,
            "durationTicks": 144,
            "midi": 50,
            "name": "D3",
            "ticks": 162144,
            "time": 211.125,
            "velocity": 0.3937007874015748
          },
          {
            "duration": 0.1875,
            "durationTicks": 144,
            "midi": 52,
            "name": "E3",
            "ticks": 162288,
            "time": 211.3125,
            "velocity": 0.3937007874015748
          },
          {
            "duration": 0.1875,
            "durationTicks": 144,
            "midi": 55,
            "name": "G3",
            "ticks": 162288,
            "time": 211.3125,
            "velocity": 0.3937007874015748
          },
          {
            "duration": 0.1875,
            "durationTicks": 144,
            "midi": 50,
            "name": "D3",
            "ticks": 162288,
            "time": 211.3125,
            "velocity": 0.3937007874015748
          },
          {
            "duration": 1.75,
            "durationTicks": 1344,
            "midi": 52,
            "name": "E3",
            "ticks": 162432,
            "time": 211.5,
            "velocity": 0.3937007874015748
          },
          {
            "duration": 0.1875,
            "durationTicks": 144,
            "midi": 50,
            "name": "D3",
            "ticks": 162432,
            "time": 211.5,
            "velocity": 0.3937007874015748
          },
          {
            "duration": 1.75,
            "durationTicks": 1344,
            "midi": 55,
            "name": "G3",
            "ticks": 162432,
            "time": 211.5,
            "velocity": 0.3937007874015748
          },
          {
            "duration": 1.75,
            "durationTicks": 1344,
            "midi": 52,
            "name": "E3",
            "ticks": 162432,
            "time": 211.5,
            "velocity": 0.3937007874015748
          },
          {
            "duration": 0.9375,
            "durationTicks": 720,
            "midi": 50,
            "name": "D3",
            "ticks": 164736,
            "time": 214.5,
            "velocity": 0.3937007874015748
          },
          {
            "duration": 0.9375,
            "durationTicks": 720,
            "midi": 55,
            "name": "G3",
            "ticks": 164736,
            "time": 214.5,
            "velocity": 0.3937007874015748
          },
          {
            "duration": 0.9375,
            "durationTicks": 720,
            "midi": 59,
            "name": "B3",
            "ticks": 164736,
            "time": 214.5,
            "velocity": 0.3937007874015748
          },
          {
            "duration": 0.1875,
            "durationTicks": 144,
            "midi": 48,
            "name": "C3",
            "ticks": 165456,
            "time": 215.4375,
            "velocity": 0.3937007874015748
          },
          {
            "duration": 0.1875,
            "durationTicks": 144,
            "midi": 52,
            "name": "E3",
            "ticks": 165456,
            "time": 215.4375,
            "velocity": 0.3937007874015748
          },
          {
            "duration": 0.1875,
            "durationTicks": 144,
            "midi": 57,
            "name": "A3",
            "ticks": 165456,
            "time": 215.4375,
            "velocity": 0.3937007874015748
          },
          {
            "duration": 0.375,
            "durationTicks": 288,
            "midi": 50,
            "name": "D3",
            "ticks": 165600,
            "time": 215.625,
            "velocity": 0.3937007874015748
          },
          {
            "duration": 0.375,
            "durationTicks": 288,
            "midi": 59,
            "name": "B3",
            "ticks": 165600,
            "time": 215.625,
            "velocity": 0.3937007874015748
          },
          {
            "duration": 0.375,
            "durationTicks": 288,
            "midi": 55,
            "name": "G3",
            "ticks": 165600,
            "time": 215.625,
            "velocity": 0.3937007874015748
          },
          {
            "duration": 2.125,
            "durationTicks": 1632,
            "midi": 52,
            "name": "E3",
            "ticks": 165888,
            "time": 216,
            "velocity": 0.3937007874015748
          },
          {
            "duration": 2.125,
            "durationTicks": 1632,
            "midi": 48,
            "name": "C3",
            "ticks": 165888,
            "time": 216,
            "velocity": 0.3937007874015748
          },
          {
            "duration": 2.125,
            "durationTicks": 1632,
            "midi": 57,
            "name": "A3",
            "ticks": 165888,
            "time": 216,
            "velocity": 0.3937007874015748
          },
          {
            "duration": 0.375,
            "durationTicks": 288,
            "midi": 50,
            "name": "D3",
            "ticks": 168192,
            "time": 219,
            "velocity": 0.3937007874015748
          },
          {
            "duration": 0.375,
            "durationTicks": 288,
            "midi": 55,
            "name": "G3",
            "ticks": 168192,
            "time": 219,
            "velocity": 0.3937007874015748
          },
          {
            "duration": 0.375,
            "durationTicks": 288,
            "midi": 59,
            "name": "B3",
            "ticks": 168192,
            "time": 219,
            "velocity": 0.3937007874015748
          },
          {
            "duration": 0.1875,
            "durationTicks": 144,
            "midi": 54,
            "name": "F#3",
            "ticks": 168480,
            "time": 219.375,
            "velocity": 0.3937007874015748
          },
          {
            "duration": 0.1875,
            "durationTicks": 144,
            "midi": 57,
            "name": "A3",
            "ticks": 168480,
            "time": 219.375,
            "velocity": 0.3937007874015748
          },
          {
            "duration": 0.1875,
            "durationTicks": 144,
            "midi": 50,
            "name": "D3",
            "ticks": 168480,
            "time": 219.375,
            "velocity": 0.3937007874015748
          },
          {
            "duration": 0.1875,
            "durationTicks": 144,
            "midi": 50,
            "name": "D3",
            "ticks": 168480,
            "time": 219.375,
            "velocity": 0.3937007874015748
          },
          {
            "duration": 0.1875,
            "durationTicks": 144,
            "midi": 50,
            "name": "D3",
            "ticks": 168624,
            "time": 219.5625,
            "velocity": 0.3937007874015748
          },
          {
            "duration": 0.1875,
            "durationTicks": 144,
            "midi": 55,
            "name": "G3",
            "ticks": 168624,
            "time": 219.5625,
            "velocity": 0.3937007874015748
          },
          {
            "duration": 0.1875,
            "durationTicks": 144,
            "midi": 52,
            "name": "E3",
            "ticks": 168624,
            "time": 219.5625,
            "velocity": 0.3937007874015748
          },
          {
            "duration": 1.75,
            "durationTicks": 1344,
            "midi": 52,
            "name": "E3",
            "ticks": 168768,
            "time": 219.75,
            "velocity": 0.3937007874015748
          },
          {
            "duration": 1.75,
            "durationTicks": 1344,
            "midi": 55,
            "name": "G3",
            "ticks": 168768,
            "time": 219.75,
            "velocity": 0.3937007874015748
          },
          {
            "duration": 0.1875,
            "durationTicks": 144,
            "midi": 50,
            "name": "D3",
            "ticks": 168768,
            "time": 219.75,
            "velocity": 0.3937007874015748
          },
          {
            "duration": 1.75,
            "durationTicks": 1344,
            "midi": 52,
            "name": "E3",
            "ticks": 168768,
            "time": 219.75,
            "velocity": 0.3937007874015748
          },
          {
            "duration": 0.9375,
            "durationTicks": 720,
            "midi": 50,
            "name": "D3",
            "ticks": 171072,
            "time": 222.75,
            "velocity": 0.3937007874015748
          },
          {
            "duration": 0.9375,
            "durationTicks": 720,
            "midi": 59,
            "name": "B3",
            "ticks": 171072,
            "time": 222.75,
            "velocity": 0.3937007874015748
          },
          {
            "duration": 0.9375,
            "durationTicks": 720,
            "midi": 55,
            "name": "G3",
            "ticks": 171072,
            "time": 222.75,
            "velocity": 0.3937007874015748
          },
          {
            "duration": 0.1875,
            "durationTicks": 144,
            "midi": 57,
            "name": "A3",
            "ticks": 171792,
            "time": 223.6875,
            "velocity": 0.3937007874015748
          },
          {
            "duration": 0.1875,
            "durationTicks": 144,
            "midi": 48,
            "name": "C3",
            "ticks": 171792,
            "time": 223.6875,
            "velocity": 0.3937007874015748
          },
          {
            "duration": 0.1875,
            "durationTicks": 144,
            "midi": 52,
            "name": "E3",
            "ticks": 171792,
            "time": 223.6875,
            "velocity": 0.3937007874015748
          },
          {
            "duration": 0.375,
            "durationTicks": 288,
            "midi": 59,
            "name": "B3",
            "ticks": 171936,
            "time": 223.875,
            "velocity": 0.3937007874015748
          },
          {
            "duration": 0.375,
            "durationTicks": 288,
            "midi": 50,
            "name": "D3",
            "ticks": 171936,
            "time": 223.875,
            "velocity": 0.3937007874015748
          },
          {
            "duration": 0.375,
            "durationTicks": 288,
            "midi": 55,
            "name": "G3",
            "ticks": 171936,
            "time": 223.875,
            "velocity": 0.3937007874015748
          },
          {
            "duration": 2.125,
            "durationTicks": 1632,
            "midi": 57,
            "name": "A3",
            "ticks": 172224,
            "time": 224.25,
            "velocity": 0.3937007874015748
          },
          {
            "duration": 2.125,
            "durationTicks": 1632,
            "midi": 52,
            "name": "E3",
            "ticks": 172224,
            "time": 224.25,
            "velocity": 0.3937007874015748
          },
          {
            "duration": 2.125,
            "durationTicks": 1632,
            "midi": 48,
            "name": "C3",
            "ticks": 172224,
            "time": 224.25,
            "velocity": 0.3937007874015748
          },
          {
            "duration": 0.375,
            "durationTicks": 288,
            "midi": 55,
            "name": "G3",
            "ticks": 174528,
            "time": 227.25,
            "velocity": 0.3937007874015748
          },
          {
            "duration": 0.375,
            "durationTicks": 288,
            "midi": 50,
            "name": "D3",
            "ticks": 174528,
            "time": 227.25,
            "velocity": 0.3937007874015748
          },
          {
            "duration": 0.375,
            "durationTicks": 288,
            "midi": 59,
            "name": "B3",
            "ticks": 174528,
            "time": 227.25,
            "velocity": 0.3937007874015748
          },
          {
            "duration": 0.1875,
            "durationTicks": 144,
            "midi": 54,
            "name": "F#3",
            "ticks": 174816,
            "time": 227.625,
            "velocity": 0.3937007874015748
          },
          {
            "duration": 0.1875,
            "durationTicks": 144,
            "midi": 57,
            "name": "A3",
            "ticks": 174816,
            "time": 227.625,
            "velocity": 0.3937007874015748
          },
          {
            "duration": 0.1875,
            "durationTicks": 144,
            "midi": 50,
            "name": "D3",
            "ticks": 174816,
            "time": 227.625,
            "velocity": 0.3937007874015748
          },
          {
            "duration": 0.1875,
            "durationTicks": 144,
            "midi": 52,
            "name": "E3",
            "ticks": 174960,
            "time": 227.8125,
            "velocity": 0.3937007874015748
          },
          {
            "duration": 0.1875,
            "durationTicks": 144,
            "midi": 55,
            "name": "G3",
            "ticks": 174960,
            "time": 227.8125,
            "velocity": 0.3937007874015748
          },
          {
            "duration": 0.1875,
            "durationTicks": 144,
            "midi": 50,
            "name": "D3",
            "ticks": 174960,
            "time": 227.8125,
            "velocity": 0.3937007874015748
          },
          {
            "duration": 1.75,
            "durationTicks": 1344,
            "midi": 52,
            "name": "E3",
            "ticks": 175104,
            "time": 228,
            "velocity": 0.3937007874015748
          },
          {
            "duration": 0.1875,
            "durationTicks": 144,
            "midi": 50,
            "name": "D3",
            "ticks": 175104,
            "time": 228,
            "velocity": 0.3937007874015748
          },
          {
            "duration": 1.75,
            "durationTicks": 1344,
            "midi": 52,
            "name": "E3",
            "ticks": 175104,
            "time": 228,
            "velocity": 0.3937007874015748
          },
          {
            "duration": 1.75,
            "durationTicks": 1344,
            "midi": 55,
            "name": "G3",
            "ticks": 175104,
            "time": 228,
            "velocity": 0.3937007874015748
          }
        ],
        "endOfTrackTicks": 176448
      },
      {
        "channel": 1,
        "controlChanges": {},
        "pitchBends": [],
        "instrument": {
          "family": "guitar",
          "number": 29,
          "name": "overdriven guitar"
        },
        "name": "Electric Guitar",
        "notes": [
          {
            "duration": 0.1875,
            "durationTicks": 144,
            "midi": 43,
            "name": "G2",
            "ticks": 25344,
            "time": 33,
            "velocity": 0.3937007874015748
          },
          {
            "duration": 0.1875,
            "durationTicks": 144,
            "midi": 31,
            "name": "G1",
            "ticks": 25344,
            "time": 33,
            "velocity": 0.3937007874015748
          },
          {
            "duration": 0.1875,
            "durationTicks": 144,
            "midi": 43,
            "name": "G2",
            "ticks": 25776,
            "time": 33.5625,
            "velocity": 0.3937007874015748
          },
          {
            "duration": 0.1875,
            "durationTicks": 144,
            "midi": 43,
            "name": "G2",
            "ticks": 25776,
            "time": 33.5625,
            "velocity": 0.3937007874015748
          },
          {
            "duration": 0.1875,
            "durationTicks": 144,
            "midi": 31,
            "name": "G1",
            "ticks": 25776,
            "time": 33.5625,
            "velocity": 0.3937007874015748
          },
          {
            "duration": 0.1875,
            "durationTicks": 144,
            "midi": 31,
            "name": "G1",
            "ticks": 25776,
            "time": 33.5625,
            "velocity": 0.3937007874015748
          },
          {
            "duration": 0.1875,
            "durationTicks": 144,
            "midi": 26,
            "name": "D1",
            "ticks": 26064,
            "time": 33.9375,
            "velocity": 0.3937007874015748
          },
          {
            "duration": 0.1875,
            "durationTicks": 144,
            "midi": 38,
            "name": "D2",
            "ticks": 26064,
            "time": 33.9375,
            "velocity": 0.3937007874015748
          },
          {
            "duration": 0.1875,
            "durationTicks": 144,
            "midi": 35,
            "name": "B1",
            "ticks": 26352,
            "time": 34.3125,
            "velocity": 0.3937007874015748
          },
          {
            "duration": 0.1875,
            "durationTicks": 144,
            "midi": 35,
            "name": "B1",
            "ticks": 26352,
            "time": 34.3125,
            "velocity": 0.3937007874015748
          },
          {
            "duration": 0.1875,
            "durationTicks": 144,
            "midi": 24,
            "name": "C1",
            "ticks": 26496,
            "time": 34.5,
            "velocity": 0.3937007874015748
          },
          {
            "duration": 0.1875,
            "durationTicks": 144,
            "midi": 36,
            "name": "C2",
            "ticks": 26496,
            "time": 34.5,
            "velocity": 0.3937007874015748
          },
          {
            "duration": 0.1875,
            "durationTicks": 144,
            "midi": 24,
            "name": "C1",
            "ticks": 26928,
            "time": 35.0625,
            "velocity": 0.3937007874015748
          },
          {
            "duration": 0.1875,
            "durationTicks": 144,
            "midi": 36,
            "name": "C2",
            "ticks": 26928,
            "time": 35.0625,
            "velocity": 0.3937007874015748
          },
          {
            "duration": 0.1875,
            "durationTicks": 144,
            "midi": 24,
            "name": "C1",
            "ticks": 27216,
            "time": 35.4375,
            "velocity": 0.3937007874015748
          },
          {
            "duration": 0.1875,
            "durationTicks": 144,
            "midi": 36,
            "name": "C2",
            "ticks": 27216,
            "time": 35.4375,
            "velocity": 0.3937007874015748
          },
          {
            "duration": 0.1875,
            "durationTicks": 144,
            "midi": 35,
            "name": "B1",
            "ticks": 27504,
            "time": 35.8125,
            "velocity": 0.3937007874015748
          },
          {
            "duration": 0.1875,
            "durationTicks": 144,
            "midi": 35,
            "name": "B1",
            "ticks": 27504,
            "time": 35.8125,
            "velocity": 0.3937007874015748
          },
          {
            "duration": 0.1875,
            "durationTicks": 144,
            "midi": 24,
            "name": "C1",
            "ticks": 27648,
            "time": 36,
            "velocity": 0.3937007874015748
          },
          {
            "duration": 0.1875,
            "durationTicks": 144,
            "midi": 36,
            "name": "C2",
            "ticks": 27648,
            "time": 36,
            "velocity": 0.3937007874015748
          },
          {
            "duration": 0.1875,
            "durationTicks": 144,
            "midi": 36,
            "name": "C2",
            "ticks": 28080,
            "time": 36.5625,
            "velocity": 0.3937007874015748
          },
          {
            "duration": 0.1875,
            "durationTicks": 144,
            "midi": 24,
            "name": "C1",
            "ticks": 28080,
            "time": 36.5625,
            "velocity": 0.3937007874015748
          },
          {
            "duration": 0.1875,
            "durationTicks": 144,
            "midi": 36,
            "name": "C2",
            "ticks": 28368,
            "time": 36.9375,
            "velocity": 0.3937007874015748
          },
          {
            "duration": 0.1875,
            "durationTicks": 144,
            "midi": 24,
            "name": "C1",
            "ticks": 28368,
            "time": 36.9375,
            "velocity": 0.3937007874015748
          },
          {
            "duration": 0.1875,
            "durationTicks": 144,
            "midi": 31,
            "name": "G1",
            "ticks": 28800,
            "time": 37.5,
            "velocity": 0.3937007874015748
          },
          {
            "duration": 0.1875,
            "durationTicks": 144,
            "midi": 43,
            "name": "G2",
            "ticks": 28800,
            "time": 37.5,
            "velocity": 0.3937007874015748
          },
          {
            "duration": 0.1875,
            "durationTicks": 144,
            "midi": 38,
            "name": "D2",
            "ticks": 29088,
            "time": 37.875,
            "velocity": 0.3937007874015748
          },
          {
            "duration": 0.1875,
            "durationTicks": 144,
            "midi": 26,
            "name": "D1",
            "ticks": 29088,
            "time": 37.875,
            "velocity": 0.3937007874015748
          },
          {
            "duration": 0.1875,
            "durationTicks": 144,
            "midi": 28,
            "name": "E1",
            "ticks": 29376,
            "time": 38.25,
            "velocity": 0.3937007874015748
          },
          {
            "duration": 0.1875,
            "durationTicks": 144,
            "midi": 40,
            "name": "E2",
            "ticks": 29376,
            "time": 38.25,
            "velocity": 0.3937007874015748
          },
          {
            "duration": 0.1875,
            "durationTicks": 144,
            "midi": 52,
            "name": "E3",
            "ticks": 29808,
            "time": 38.8125,
            "velocity": 0.3937007874015748
          },
          {
            "duration": 0.1875,
            "durationTicks": 144,
            "midi": 40,
            "name": "E2",
            "ticks": 29808,
            "time": 38.8125,
            "velocity": 0.3937007874015748
          },
          {
            "duration": 0.1875,
            "durationTicks": 144,
            "midi": 40,
            "name": "E2",
            "ticks": 30096,
            "time": 39.1875,
            "velocity": 0.3937007874015748
          },
          {
            "duration": 0.1875,
            "durationTicks": 144,
            "midi": 28,
            "name": "E1",
            "ticks": 30096,
            "time": 39.1875,
            "velocity": 0.3937007874015748
          },
          {
            "duration": 0.1875,
            "durationTicks": 144,
            "midi": 43,
            "name": "G2",
            "ticks": 30240,
            "time": 39.375,
            "velocity": 0.3937007874015748
          },
          {
            "duration": 0.1875,
            "durationTicks": 144,
            "midi": 31,
            "name": "G1",
            "ticks": 30240,
            "time": 39.375,
            "velocity": 0.3937007874015748
          },
          {
            "duration": 0.1875,
            "durationTicks": 144,
            "midi": 40,
            "name": "E2",
            "ticks": 30528,
            "time": 39.75,
            "velocity": 0.3937007874015748
          },
          {
            "duration": 0.1875,
            "durationTicks": 144,
            "midi": 28,
            "name": "E1",
            "ticks": 30528,
            "time": 39.75,
            "velocity": 0.3937007874015748
          },
          {
            "duration": 0.1875,
            "durationTicks": 144,
            "midi": 52,
            "name": "E3",
            "ticks": 30960,
            "time": 40.3125,
            "velocity": 0.3937007874015748
          },
          {
            "duration": 0.1875,
            "durationTicks": 144,
            "midi": 40,
            "name": "E2",
            "ticks": 30960,
            "time": 40.3125,
            "velocity": 0.3937007874015748
          },
          {
            "duration": 0.1875,
            "durationTicks": 144,
            "midi": 31,
            "name": "G1",
            "ticks": 31680,
            "time": 41.25,
            "velocity": 0.3937007874015748
          },
          {
            "duration": 0.1875,
            "durationTicks": 144,
            "midi": 43,
            "name": "G2",
            "ticks": 31680,
            "time": 41.25,
            "velocity": 0.3937007874015748
          },
          {
            "duration": 0.1875,
            "durationTicks": 144,
            "midi": 31,
            "name": "G1",
            "ticks": 32112,
            "time": 41.8125,
            "velocity": 0.3937007874015748
          },
          {
            "duration": 0.1875,
            "durationTicks": 144,
            "midi": 43,
            "name": "G2",
            "ticks": 32112,
            "time": 41.8125,
            "velocity": 0.3937007874015748
          },
          {
            "duration": 0.1875,
            "durationTicks": 144,
            "midi": 43,
            "name": "G2",
            "ticks": 32112,
            "time": 41.8125,
            "velocity": 0.3937007874015748
          },
          {
            "duration": 0.1875,
            "durationTicks": 144,
            "midi": 31,
            "name": "G1",
            "ticks": 32112,
            "time": 41.8125,
            "velocity": 0.3937007874015748
          },
          {
            "duration": 0.1875,
            "durationTicks": 144,
            "midi": 26,
            "name": "D1",
            "ticks": 32400,
            "time": 42.1875,
            "velocity": 0.3937007874015748
          },
          {
            "duration": 0.1875,
            "durationTicks": 144,
            "midi": 38,
            "name": "D2",
            "ticks": 32400,
            "time": 42.1875,
            "velocity": 0.3937007874015748
          },
          {
            "duration": 0.1875,
            "durationTicks": 144,
            "midi": 35,
            "name": "B1",
            "ticks": 32688,
            "time": 42.5625,
            "velocity": 0.3937007874015748
          },
          {
            "duration": 0.1875,
            "durationTicks": 144,
            "midi": 35,
            "name": "B1",
            "ticks": 32688,
            "time": 42.5625,
            "velocity": 0.3937007874015748
          },
          {
            "duration": 0.1875,
            "durationTicks": 144,
            "midi": 24,
            "name": "C1",
            "ticks": 32832,
            "time": 42.75,
            "velocity": 0.3937007874015748
          },
          {
            "duration": 0.1875,
            "durationTicks": 144,
            "midi": 36,
            "name": "C2",
            "ticks": 32832,
            "time": 42.75,
            "velocity": 0.3937007874015748
          },
          {
            "duration": 0.1875,
            "durationTicks": 144,
            "midi": 24,
            "name": "C1",
            "ticks": 33264,
            "time": 43.3125,
            "velocity": 0.3937007874015748
          },
          {
            "duration": 0.1875,
            "durationTicks": 144,
            "midi": 36,
            "name": "C2",
            "ticks": 33264,
            "time": 43.3125,
            "velocity": 0.3937007874015748
          },
          {
            "duration": 0.1875,
            "durationTicks": 144,
            "midi": 36,
            "name": "C2",
            "ticks": 33552,
            "time": 43.6875,
            "velocity": 0.3937007874015748
          },
          {
            "duration": 0.1875,
            "durationTicks": 144,
            "midi": 24,
            "name": "C1",
            "ticks": 33552,
            "time": 43.6875,
            "velocity": 0.3937007874015748
          },
          {
            "duration": 0.1875,
            "durationTicks": 144,
            "midi": 35,
            "name": "B1",
            "ticks": 33840,
            "time": 44.0625,
            "velocity": 0.3937007874015748
          },
          {
            "duration": 0.1875,
            "durationTicks": 144,
            "midi": 35,
            "name": "B1",
            "ticks": 33840,
            "time": 44.0625,
            "velocity": 0.3937007874015748
          },
          {
            "duration": 0.1875,
            "durationTicks": 144,
            "midi": 36,
            "name": "C2",
            "ticks": 33984,
            "time": 44.25,
            "velocity": 0.3937007874015748
          },
          {
            "duration": 0.1875,
            "durationTicks": 144,
            "midi": 24,
            "name": "C1",
            "ticks": 33984,
            "time": 44.25,
            "velocity": 0.3937007874015748
          },
          {
            "duration": 0.1875,
            "durationTicks": 144,
            "midi": 24,
            "name": "C1",
            "ticks": 34416,
            "time": 44.8125,
            "velocity": 0.3937007874015748
          },
          {
            "duration": 0.1875,
            "durationTicks": 144,
            "midi": 36,
            "name": "C2",
            "ticks": 34416,
            "time": 44.8125,
            "velocity": 0.3937007874015748
          },
          {
            "duration": 0.1875,
            "durationTicks": 144,
            "midi": 24,
            "name": "C1",
            "ticks": 34704,
            "time": 45.1875,
            "velocity": 0.3937007874015748
          },
          {
            "duration": 0.1875,
            "durationTicks": 144,
            "midi": 36,
            "name": "C2",
            "ticks": 34704,
            "time": 45.1875,
            "velocity": 0.3937007874015748
          },
          {
            "duration": 0.1875,
            "durationTicks": 144,
            "midi": 31,
            "name": "G1",
            "ticks": 35136,
            "time": 45.75,
            "velocity": 0.3937007874015748
          },
          {
            "duration": 0.1875,
            "durationTicks": 144,
            "midi": 43,
            "name": "G2",
            "ticks": 35136,
            "time": 45.75,
            "velocity": 0.3937007874015748
          },
          {
            "duration": 0.1875,
            "durationTicks": 144,
            "midi": 38,
            "name": "D2",
            "ticks": 35424,
            "time": 46.125,
            "velocity": 0.3937007874015748
          },
          {
            "duration": 0.1875,
            "durationTicks": 144,
            "midi": 26,
            "name": "D1",
            "ticks": 35424,
            "time": 46.125,
            "velocity": 0.3937007874015748
          },
          {
            "duration": 0.1875,
            "durationTicks": 144,
            "midi": 40,
            "name": "E2",
            "ticks": 35712,
            "time": 46.5,
            "velocity": 0.3937007874015748
          },
          {
            "duration": 0.1875,
            "durationTicks": 144,
            "midi": 28,
            "name": "E1",
            "ticks": 35712,
            "time": 46.5,
            "velocity": 0.3937007874015748
          },
          {
            "duration": 0.1875,
            "durationTicks": 144,
            "midi": 40,
            "name": "E2",
            "ticks": 36144,
            "time": 47.0625,
            "velocity": 0.3937007874015748
          },
          {
            "duration": 0.1875,
            "durationTicks": 144,
            "midi": 52,
            "name": "E3",
            "ticks": 36144,
            "time": 47.0625,
            "velocity": 0.3937007874015748
          },
          {
            "duration": 0.1875,
            "durationTicks": 144,
            "midi": 28,
            "name": "E1",
            "ticks": 36432,
            "time": 47.4375,
            "velocity": 0.3937007874015748
          },
          {
            "duration": 0.1875,
            "durationTicks": 144,
            "midi": 40,
            "name": "E2",
            "ticks": 36432,
            "time": 47.4375,
            "velocity": 0.3937007874015748
          },
          {
            "duration": 0.1875,
            "durationTicks": 144,
            "midi": 43,
            "name": "G2",
            "ticks": 36576,
            "time": 47.625,
            "velocity": 0.3937007874015748
          },
          {
            "duration": 0.1875,
            "durationTicks": 144,
            "midi": 31,
            "name": "G1",
            "ticks": 36576,
            "time": 47.625,
            "velocity": 0.3937007874015748
          },
          {
            "duration": 0.1875,
            "durationTicks": 144,
            "midi": 40,
            "name": "E2",
            "ticks": 36864,
            "time": 48,
            "velocity": 0.3937007874015748
          },
          {
            "duration": 0.1875,
            "durationTicks": 144,
            "midi": 28,
            "name": "E1",
            "ticks": 36864,
            "time": 48,
            "velocity": 0.3937007874015748
          },
          {
            "duration": 0.1875,
            "durationTicks": 144,
            "midi": 40,
            "name": "E2",
            "ticks": 37296,
            "time": 48.5625,
            "velocity": 0.3937007874015748
          },
          {
            "duration": 0.1875,
            "durationTicks": 144,
            "midi": 52,
            "name": "E3",
            "ticks": 37296,
            "time": 48.5625,
            "velocity": 0.3937007874015748
          },
          {
            "duration": 0.1875,
            "durationTicks": 144,
            "midi": 43,
            "name": "G2",
            "ticks": 38016,
            "time": 49.5,
            "velocity": 0.3937007874015748
          },
          {
            "duration": 0.1875,
            "durationTicks": 144,
            "midi": 31,
            "name": "G1",
            "ticks": 38016,
            "time": 49.5,
            "velocity": 0.3937007874015748
          },
          {
            "duration": 0.1875,
            "durationTicks": 144,
            "midi": 43,
            "name": "G2",
            "ticks": 38448,
            "time": 50.0625,
            "velocity": 0.3937007874015748
          },
          {
            "duration": 0.1875,
            "durationTicks": 144,
            "midi": 31,
            "name": "G1",
            "ticks": 38448,
            "time": 50.0625,
            "velocity": 0.3937007874015748
          },
          {
            "duration": 0.1875,
            "durationTicks": 144,
            "midi": 31,
            "name": "G1",
            "ticks": 38448,
            "time": 50.0625,
            "velocity": 0.3937007874015748
          },
          {
            "duration": 0.1875,
            "durationTicks": 144,
            "midi": 43,
            "name": "G2",
            "ticks": 38448,
            "time": 50.0625,
            "velocity": 0.3937007874015748
          },
          {
            "duration": 0.1875,
            "durationTicks": 144,
            "midi": 38,
            "name": "D2",
            "ticks": 38736,
            "time": 50.4375,
            "velocity": 0.3937007874015748
          },
          {
            "duration": 0.1875,
            "durationTicks": 144,
            "midi": 26,
            "name": "D1",
            "ticks": 38736,
            "time": 50.4375,
            "velocity": 0.3937007874015748
          },
          {
            "duration": 0.1875,
            "durationTicks": 144,
            "midi": 35,
            "name": "B1",
            "ticks": 39024,
            "time": 50.8125,
            "velocity": 0.3937007874015748
          },
          {
            "duration": 0.1875,
            "durationTicks": 144,
            "midi": 35,
            "name": "B1",
            "ticks": 39024,
            "time": 50.8125,
            "velocity": 0.3937007874015748
          },
          {
            "duration": 0.1875,
            "durationTicks": 144,
            "midi": 36,
            "name": "C2",
            "ticks": 39168,
            "time": 51,
            "velocity": 0.3937007874015748
          },
          {
            "duration": 0.1875,
            "durationTicks": 144,
            "midi": 24,
            "name": "C1",
            "ticks": 39168,
            "time": 51,
            "velocity": 0.3937007874015748
          },
          {
            "duration": 0.1875,
            "durationTicks": 144,
            "midi": 36,
            "name": "C2",
            "ticks": 39600,
            "time": 51.5625,
            "velocity": 0.3937007874015748
          },
          {
            "duration": 0.1875,
            "durationTicks": 144,
            "midi": 24,
            "name": "C1",
            "ticks": 39600,
            "time": 51.5625,
            "velocity": 0.3937007874015748
          },
          {
            "duration": 0.1875,
            "durationTicks": 144,
            "midi": 24,
            "name": "C1",
            "ticks": 39888,
            "time": 51.9375,
            "velocity": 0.3937007874015748
          },
          {
            "duration": 0.1875,
            "durationTicks": 144,
            "midi": 36,
            "name": "C2",
            "ticks": 39888,
            "time": 51.9375,
            "velocity": 0.3937007874015748
          },
          {
            "duration": 0.1875,
            "durationTicks": 144,
            "midi": 35,
            "name": "B1",
            "ticks": 40176,
            "time": 52.3125,
            "velocity": 0.3937007874015748
          },
          {
            "duration": 0.1875,
            "durationTicks": 144,
            "midi": 35,
            "name": "B1",
            "ticks": 40176,
            "time": 52.3125,
            "velocity": 0.3937007874015748
          },
          {
            "duration": 0.1875,
            "durationTicks": 144,
            "midi": 24,
            "name": "C1",
            "ticks": 40320,
            "time": 52.5,
            "velocity": 0.3937007874015748
          },
          {
            "duration": 0.1875,
            "durationTicks": 144,
            "midi": 36,
            "name": "C2",
            "ticks": 40320,
            "time": 52.5,
            "velocity": 0.3937007874015748
          },
          {
            "duration": 0.1875,
            "durationTicks": 144,
            "midi": 36,
            "name": "C2",
            "ticks": 40752,
            "time": 53.0625,
            "velocity": 0.3937007874015748
          },
          {
            "duration": 0.1875,
            "durationTicks": 144,
            "midi": 24,
            "name": "C1",
            "ticks": 40752,
            "time": 53.0625,
            "velocity": 0.3937007874015748
          },
          {
            "duration": 0.1875,
            "durationTicks": 144,
            "midi": 24,
            "name": "C1",
            "ticks": 41040,
            "time": 53.4375,
            "velocity": 0.3937007874015748
          },
          {
            "duration": 0.1875,
            "durationTicks": 144,
            "midi": 36,
            "name": "C2",
            "ticks": 41040,
            "time": 53.4375,
            "velocity": 0.3937007874015748
          },
          {
            "duration": 0.1875,
            "durationTicks": 144,
            "midi": 43,
            "name": "G2",
            "ticks": 41472,
            "time": 54,
            "velocity": 0.3937007874015748
          },
          {
            "duration": 0.1875,
            "durationTicks": 144,
            "midi": 31,
            "name": "G1",
            "ticks": 41472,
            "time": 54,
            "velocity": 0.3937007874015748
          },
          {
            "duration": 0.1875,
            "durationTicks": 144,
            "midi": 26,
            "name": "D1",
            "ticks": 41760,
            "time": 54.375,
            "velocity": 0.3937007874015748
          },
          {
            "duration": 0.1875,
            "durationTicks": 144,
            "midi": 38,
            "name": "D2",
            "ticks": 41760,
            "time": 54.375,
            "velocity": 0.3937007874015748
          },
          {
            "duration": 0.1875,
            "durationTicks": 144,
            "midi": 28,
            "name": "E1",
            "ticks": 42048,
            "time": 54.75,
            "velocity": 0.3937007874015748
          },
          {
            "duration": 0.1875,
            "durationTicks": 144,
            "midi": 40,
            "name": "E2",
            "ticks": 42048,
            "time": 54.75,
            "velocity": 0.3937007874015748
          },
          {
            "duration": 0.1875,
            "durationTicks": 144,
            "midi": 52,
            "name": "E3",
            "ticks": 42480,
            "time": 55.3125,
            "velocity": 0.3937007874015748
          },
          {
            "duration": 0.1875,
            "durationTicks": 144,
            "midi": 40,
            "name": "E2",
            "ticks": 42480,
            "time": 55.3125,
            "velocity": 0.3937007874015748
          },
          {
            "duration": 0.1875,
            "durationTicks": 144,
            "midi": 40,
            "name": "E2",
            "ticks": 42768,
            "time": 55.6875,
            "velocity": 0.3937007874015748
          },
          {
            "duration": 0.1875,
            "durationTicks": 144,
            "midi": 28,
            "name": "E1",
            "ticks": 42768,
            "time": 55.6875,
            "velocity": 0.3937007874015748
          },
          {
            "duration": 0.1875,
            "durationTicks": 144,
            "midi": 43,
            "name": "G2",
            "ticks": 42912,
            "time": 55.875,
            "velocity": 0.3937007874015748
          },
          {
            "duration": 0.1875,
            "durationTicks": 144,
            "midi": 31,
            "name": "G1",
            "ticks": 42912,
            "time": 55.875,
            "velocity": 0.3937007874015748
          },
          {
            "duration": 0.1875,
            "durationTicks": 144,
            "midi": 28,
            "name": "E1",
            "ticks": 43200,
            "time": 56.25,
            "velocity": 0.3937007874015748
          },
          {
            "duration": 0.1875,
            "durationTicks": 144,
            "midi": 40,
            "name": "E2",
            "ticks": 43200,
            "time": 56.25,
            "velocity": 0.3937007874015748
          },
          {
            "duration": 0.1875,
            "durationTicks": 144,
            "midi": 52,
            "name": "E3",
            "ticks": 43632,
            "time": 56.8125,
            "velocity": 0.3937007874015748
          },
          {
            "duration": 0.1875,
            "durationTicks": 144,
            "midi": 40,
            "name": "E2",
            "ticks": 43632,
            "time": 56.8125,
            "velocity": 0.3937007874015748
          },
          {
            "duration": 0.1875,
            "durationTicks": 144,
            "midi": 43,
            "name": "G2",
            "ticks": 44352,
            "time": 57.75,
            "velocity": 0.3937007874015748
          },
          {
            "duration": 0.1875,
            "durationTicks": 144,
            "midi": 31,
            "name": "G1",
            "ticks": 44352,
            "time": 57.75,
            "velocity": 0.3937007874015748
          },
          {
            "duration": 0.1875,
            "durationTicks": 144,
            "midi": 31,
            "name": "G1",
            "ticks": 44784,
            "time": 58.3125,
            "velocity": 0.3937007874015748
          },
          {
            "duration": 0.1875,
            "durationTicks": 144,
            "midi": 31,
            "name": "G1",
            "ticks": 44784,
            "time": 58.3125,
            "velocity": 0.3937007874015748
          },
          {
            "duration": 0.1875,
            "durationTicks": 144,
            "midi": 43,
            "name": "G2",
            "ticks": 44784,
            "time": 58.3125,
            "velocity": 0.3937007874015748
          },
          {
            "duration": 0.1875,
            "durationTicks": 144,
            "midi": 43,
            "name": "G2",
            "ticks": 44784,
            "time": 58.3125,
            "velocity": 0.3937007874015748
          },
          {
            "duration": 0.1875,
            "durationTicks": 144,
            "midi": 26,
            "name": "D1",
            "ticks": 45072,
            "time": 58.6875,
            "velocity": 0.3937007874015748
          },
          {
            "duration": 0.1875,
            "durationTicks": 144,
            "midi": 38,
            "name": "D2",
            "ticks": 45072,
            "time": 58.6875,
            "velocity": 0.3937007874015748
          },
          {
            "duration": 0.1875,
            "durationTicks": 144,
            "midi": 35,
            "name": "B1",
            "ticks": 45360,
            "time": 59.0625,
            "velocity": 0.3937007874015748
          },
          {
            "duration": 0.1875,
            "durationTicks": 144,
            "midi": 35,
            "name": "B1",
            "ticks": 45360,
            "time": 59.0625,
            "velocity": 0.3937007874015748
          },
          {
            "duration": 0.1875,
            "durationTicks": 144,
            "midi": 24,
            "name": "C1",
            "ticks": 45504,
            "time": 59.25,
            "velocity": 0.3937007874015748
          },
          {
            "duration": 0.1875,
            "durationTicks": 144,
            "midi": 36,
            "name": "C2",
            "ticks": 45504,
            "time": 59.25,
            "velocity": 0.3937007874015748
          },
          {
            "duration": 0.1875,
            "durationTicks": 144,
            "midi": 36,
            "name": "C2",
            "ticks": 45936,
            "time": 59.8125,
            "velocity": 0.3937007874015748
          },
          {
            "duration": 0.1875,
            "durationTicks": 144,
            "midi": 24,
            "name": "C1",
            "ticks": 45936,
            "time": 59.8125,
            "velocity": 0.3937007874015748
          },
          {
            "duration": 0.1875,
            "durationTicks": 144,
            "midi": 24,
            "name": "C1",
            "ticks": 46224,
            "time": 60.1875,
            "velocity": 0.3937007874015748
          },
          {
            "duration": 0.1875,
            "durationTicks": 144,
            "midi": 36,
            "name": "C2",
            "ticks": 46224,
            "time": 60.1875,
            "velocity": 0.3937007874015748
          },
          {
            "duration": 0.1875,
            "durationTicks": 144,
            "midi": 35,
            "name": "B1",
            "ticks": 46512,
            "time": 60.5625,
            "velocity": 0.3937007874015748
          },
          {
            "duration": 0.1875,
            "durationTicks": 144,
            "midi": 35,
            "name": "B1",
            "ticks": 46512,
            "time": 60.5625,
            "velocity": 0.3937007874015748
          },
          {
            "duration": 0.1875,
            "durationTicks": 144,
            "midi": 24,
            "name": "C1",
            "ticks": 46656,
            "time": 60.75,
            "velocity": 0.3937007874015748
          },
          {
            "duration": 0.1875,
            "durationTicks": 144,
            "midi": 36,
            "name": "C2",
            "ticks": 46656,
            "time": 60.75,
            "velocity": 0.3937007874015748
          },
          {
            "duration": 0.1875,
            "durationTicks": 144,
            "midi": 36,
            "name": "C2",
            "ticks": 47088,
            "time": 61.3125,
            "velocity": 0.3937007874015748
          },
          {
            "duration": 0.1875,
            "durationTicks": 144,
            "midi": 24,
            "name": "C1",
            "ticks": 47088,
            "time": 61.3125,
            "velocity": 0.3937007874015748
          },
          {
            "duration": 0.1875,
            "durationTicks": 144,
            "midi": 24,
            "name": "C1",
            "ticks": 47376,
            "time": 61.6875,
            "velocity": 0.3937007874015748
          },
          {
            "duration": 0.1875,
            "durationTicks": 144,
            "midi": 36,
            "name": "C2",
            "ticks": 47376,
            "time": 61.6875,
            "velocity": 0.3937007874015748
          },
          {
            "duration": 0.1875,
            "durationTicks": 144,
            "midi": 31,
            "name": "G1",
            "ticks": 47808,
            "time": 62.25,
            "velocity": 0.3937007874015748
          },
          {
            "duration": 0.1875,
            "durationTicks": 144,
            "midi": 43,
            "name": "G2",
            "ticks": 47808,
            "time": 62.25,
            "velocity": 0.3937007874015748
          },
          {
            "duration": 0.1875,
            "durationTicks": 144,
            "midi": 38,
            "name": "D2",
            "ticks": 48096,
            "time": 62.625,
            "velocity": 0.3937007874015748
          },
          {
            "duration": 0.1875,
            "durationTicks": 144,
            "midi": 26,
            "name": "D1",
            "ticks": 48096,
            "time": 62.625,
            "velocity": 0.3937007874015748
          },
          {
            "duration": 0.1875,
            "durationTicks": 144,
            "midi": 28,
            "name": "E1",
            "ticks": 48384,
            "time": 63,
            "velocity": 0.3937007874015748
          },
          {
            "duration": 0.1875,
            "durationTicks": 144,
            "midi": 40,
            "name": "E2",
            "ticks": 48384,
            "time": 63,
            "velocity": 0.3937007874015748
          },
          {
            "duration": 0.1875,
            "durationTicks": 144,
            "midi": 52,
            "name": "E3",
            "ticks": 48816,
            "time": 63.5625,
            "velocity": 0.3937007874015748
          },
          {
            "duration": 0.1875,
            "durationTicks": 144,
            "midi": 40,
            "name": "E2",
            "ticks": 48816,
            "time": 63.5625,
            "velocity": 0.3937007874015748
          },
          {
            "duration": 0.1875,
            "durationTicks": 144,
            "midi": 40,
            "name": "E2",
            "ticks": 49104,
            "time": 63.9375,
            "velocity": 0.3937007874015748
          },
          {
            "duration": 0.1875,
            "durationTicks": 144,
            "midi": 28,
            "name": "E1",
            "ticks": 49104,
            "time": 63.9375,
            "velocity": 0.3937007874015748
          },
          {
            "duration": 0.1875,
            "durationTicks": 144,
            "midi": 43,
            "name": "G2",
            "ticks": 49248,
            "time": 64.125,
            "velocity": 0.3937007874015748
          },
          {
            "duration": 0.1875,
            "durationTicks": 144,
            "midi": 31,
            "name": "G1",
            "ticks": 49248,
            "time": 64.125,
            "velocity": 0.3937007874015748
          },
          {
            "duration": 0.1875,
            "durationTicks": 144,
            "midi": 40,
            "name": "E2",
            "ticks": 49536,
            "time": 64.5,
            "velocity": 0.3937007874015748
          },
          {
            "duration": 0.1875,
            "durationTicks": 144,
            "midi": 28,
            "name": "E1",
            "ticks": 49536,
            "time": 64.5,
            "velocity": 0.3937007874015748
          },
          {
            "duration": 0.1875,
            "durationTicks": 144,
            "midi": 52,
            "name": "E3",
            "ticks": 49968,
            "time": 65.0625,
            "velocity": 0.3937007874015748
          },
          {
            "duration": 0.1875,
            "durationTicks": 144,
            "midi": 40,
            "name": "E2",
            "ticks": 49968,
            "time": 65.0625,
            "velocity": 0.3937007874015748
          },
          {
            "duration": 0.1875,
            "durationTicks": 144,
            "midi": 43,
            "name": "G2",
            "ticks": 76032,
            "time": 99,
            "velocity": 0.3937007874015748
          },
          {
            "duration": 0.1875,
            "durationTicks": 144,
            "midi": 31,
            "name": "G1",
            "ticks": 76032,
            "time": 99,
            "velocity": 0.3937007874015748
          },
          {
            "duration": 0.1875,
            "durationTicks": 144,
            "midi": 43,
            "name": "G2",
            "ticks": 76464,
            "time": 99.5625,
            "velocity": 0.3937007874015748
          },
          {
            "duration": 0.1875,
            "durationTicks": 144,
            "midi": 43,
            "name": "G2",
            "ticks": 76464,
            "time": 99.5625,
            "velocity": 0.3937007874015748
          },
          {
            "duration": 0.1875,
            "durationTicks": 144,
            "midi": 31,
            "name": "G1",
            "ticks": 76464,
            "time": 99.5625,
            "velocity": 0.3937007874015748
          },
          {
            "duration": 0.1875,
            "durationTicks": 144,
            "midi": 31,
            "name": "G1",
            "ticks": 76464,
            "time": 99.5625,
            "velocity": 0.3937007874015748
          },
          {
            "duration": 0.1875,
            "durationTicks": 144,
            "midi": 26,
            "name": "D1",
            "ticks": 76752,
            "time": 99.9375,
            "velocity": 0.3937007874015748
          },
          {
            "duration": 0.1875,
            "durationTicks": 144,
            "midi": 38,
            "name": "D2",
            "ticks": 76752,
            "time": 99.9375,
            "velocity": 0.3937007874015748
          },
          {
            "duration": 0.1875,
            "durationTicks": 144,
            "midi": 35,
            "name": "B1",
            "ticks": 77040,
            "time": 100.3125,
            "velocity": 0.3937007874015748
          },
          {
            "duration": 0.1875,
            "durationTicks": 144,
            "midi": 35,
            "name": "B1",
            "ticks": 77040,
            "time": 100.3125,
            "velocity": 0.3937007874015748
          },
          {
            "duration": 0.1875,
            "durationTicks": 144,
            "midi": 24,
            "name": "C1",
            "ticks": 77184,
            "time": 100.5,
            "velocity": 0.3937007874015748
          },
          {
            "duration": 0.1875,
            "durationTicks": 144,
            "midi": 36,
            "name": "C2",
            "ticks": 77184,
            "time": 100.5,
            "velocity": 0.3937007874015748
          },
          {
            "duration": 0.1875,
            "durationTicks": 144,
            "midi": 36,
            "name": "C2",
            "ticks": 77616,
            "time": 101.0625,
            "velocity": 0.3937007874015748
          },
          {
            "duration": 0.1875,
            "durationTicks": 144,
            "midi": 24,
            "name": "C1",
            "ticks": 77616,
            "time": 101.0625,
            "velocity": 0.3937007874015748
          },
          {
            "duration": 0.1875,
            "durationTicks": 144,
            "midi": 24,
            "name": "C1",
            "ticks": 77904,
            "time": 101.4375,
            "velocity": 0.3937007874015748
          },
          {
            "duration": 0.1875,
            "durationTicks": 144,
            "midi": 36,
            "name": "C2",
            "ticks": 77904,
            "time": 101.4375,
            "velocity": 0.3937007874015748
          },
          {
            "duration": 0.1875,
            "durationTicks": 144,
            "midi": 35,
            "name": "B1",
            "ticks": 78192,
            "time": 101.8125,
            "velocity": 0.3937007874015748
          },
          {
            "duration": 0.1875,
            "durationTicks": 144,
            "midi": 35,
            "name": "B1",
            "ticks": 78192,
            "time": 101.8125,
            "velocity": 0.3937007874015748
          },
          {
            "duration": 0.1875,
            "durationTicks": 144,
            "midi": 36,
            "name": "C2",
            "ticks": 78336,
            "time": 102,
            "velocity": 0.3937007874015748
          },
          {
            "duration": 0.1875,
            "durationTicks": 144,
            "midi": 24,
            "name": "C1",
            "ticks": 78336,
            "time": 102,
            "velocity": 0.3937007874015748
          },
          {
            "duration": 0.1875,
            "durationTicks": 144,
            "midi": 24,
            "name": "C1",
            "ticks": 78768,
            "time": 102.5625,
            "velocity": 0.3937007874015748
          },
          {
            "duration": 0.1875,
            "durationTicks": 144,
            "midi": 36,
            "name": "C2",
            "ticks": 78768,
            "time": 102.5625,
            "velocity": 0.3937007874015748
          },
          {
            "duration": 0.1875,
            "durationTicks": 144,
            "midi": 36,
            "name": "C2",
            "ticks": 79056,
            "time": 102.9375,
            "velocity": 0.3937007874015748
          },
          {
            "duration": 0.1875,
            "durationTicks": 144,
            "midi": 24,
            "name": "C1",
            "ticks": 79056,
            "time": 102.9375,
            "velocity": 0.3937007874015748
          },
          {
            "duration": 0.1875,
            "durationTicks": 144,
            "midi": 43,
            "name": "G2",
            "ticks": 79488,
            "time": 103.5,
            "velocity": 0.3937007874015748
          },
          {
            "duration": 0.1875,
            "durationTicks": 144,
            "midi": 31,
            "name": "G1",
            "ticks": 79488,
            "time": 103.5,
            "velocity": 0.3937007874015748
          },
          {
            "duration": 0.1875,
            "durationTicks": 144,
            "midi": 38,
            "name": "D2",
            "ticks": 79776,
            "time": 103.875,
            "velocity": 0.3937007874015748
          },
          {
            "duration": 0.1875,
            "durationTicks": 144,
            "midi": 26,
            "name": "D1",
            "ticks": 79776,
            "time": 103.875,
            "velocity": 0.3937007874015748
          },
          {
            "duration": 0.1875,
            "durationTicks": 144,
            "midi": 28,
            "name": "E1",
            "ticks": 80064,
            "time": 104.25,
            "velocity": 0.3937007874015748
          },
          {
            "duration": 0.1875,
            "durationTicks": 144,
            "midi": 40,
            "name": "E2",
            "ticks": 80064,
            "time": 104.25,
            "velocity": 0.3937007874015748
          },
          {
            "duration": 0.1875,
            "durationTicks": 144,
            "midi": 52,
            "name": "E3",
            "ticks": 80496,
            "time": 104.8125,
            "velocity": 0.3937007874015748
          },
          {
            "duration": 0.1875,
            "durationTicks": 144,
            "midi": 40,
            "name": "E2",
            "ticks": 80496,
            "time": 104.8125,
            "velocity": 0.3937007874015748
          },
          {
            "duration": 0.1875,
            "durationTicks": 144,
            "midi": 28,
            "name": "E1",
            "ticks": 80784,
            "time": 105.1875,
            "velocity": 0.3937007874015748
          },
          {
            "duration": 0.1875,
            "durationTicks": 144,
            "midi": 40,
            "name": "E2",
            "ticks": 80784,
            "time": 105.1875,
            "velocity": 0.3937007874015748
          },
          {
            "duration": 0.1875,
            "durationTicks": 144,
            "midi": 43,
            "name": "G2",
            "ticks": 80928,
            "time": 105.375,
            "velocity": 0.3937007874015748
          },
          {
            "duration": 0.1875,
            "durationTicks": 144,
            "midi": 31,
            "name": "G1",
            "ticks": 80928,
            "time": 105.375,
            "velocity": 0.3937007874015748
          },
          {
            "duration": 0.1875,
            "durationTicks": 144,
            "midi": 40,
            "name": "E2",
            "ticks": 81216,
            "time": 105.75,
            "velocity": 0.3937007874015748
          },
          {
            "duration": 0.1875,
            "durationTicks": 144,
            "midi": 28,
            "name": "E1",
            "ticks": 81216,
            "time": 105.75,
            "velocity": 0.3937007874015748
          },
          {
            "duration": 0.1875,
            "durationTicks": 144,
            "midi": 52,
            "name": "E3",
            "ticks": 81648,
            "time": 106.3125,
            "velocity": 0.3937007874015748
          },
          {
            "duration": 0.1875,
            "durationTicks": 144,
            "midi": 40,
            "name": "E2",
            "ticks": 81648,
            "time": 106.3125,
            "velocity": 0.3937007874015748
          },
          {
            "duration": 0.1875,
            "durationTicks": 144,
            "midi": 31,
            "name": "G1",
            "ticks": 82368,
            "time": 107.25,
            "velocity": 0.3937007874015748
          },
          {
            "duration": 0.1875,
            "durationTicks": 144,
            "midi": 43,
            "name": "G2",
            "ticks": 82368,
            "time": 107.25,
            "velocity": 0.3937007874015748
          },
          {
            "duration": 0.1875,
            "durationTicks": 144,
            "midi": 43,
            "name": "G2",
            "ticks": 82800,
            "time": 107.8125,
            "velocity": 0.3937007874015748
          },
          {
            "duration": 0.1875,
            "durationTicks": 144,
            "midi": 31,
            "name": "G1",
            "ticks": 82800,
            "time": 107.8125,
            "velocity": 0.3937007874015748
          },
          {
            "duration": 0.1875,
            "durationTicks": 144,
            "midi": 31,
            "name": "G1",
            "ticks": 82800,
            "time": 107.8125,
            "velocity": 0.3937007874015748
          },
          {
            "duration": 0.1875,
            "durationTicks": 144,
            "midi": 43,
            "name": "G2",
            "ticks": 82800,
            "time": 107.8125,
            "velocity": 0.3937007874015748
          },
          {
            "duration": 0.1875,
            "durationTicks": 144,
            "midi": 26,
            "name": "D1",
            "ticks": 83088,
            "time": 108.1875,
            "velocity": 0.3937007874015748
          },
          {
            "duration": 0.1875,
            "durationTicks": 144,
            "midi": 38,
            "name": "D2",
            "ticks": 83088,
            "time": 108.1875,
            "velocity": 0.3937007874015748
          },
          {
            "duration": 0.1875,
            "durationTicks": 144,
            "midi": 35,
            "name": "B1",
            "ticks": 83376,
            "time": 108.5625,
            "velocity": 0.3937007874015748
          },
          {
            "duration": 0.1875,
            "durationTicks": 144,
            "midi": 35,
            "name": "B1",
            "ticks": 83376,
            "time": 108.5625,
            "velocity": 0.3937007874015748
          },
          {
            "duration": 0.1875,
            "durationTicks": 144,
            "midi": 24,
            "name": "C1",
            "ticks": 83520,
            "time": 108.75,
            "velocity": 0.3937007874015748
          },
          {
            "duration": 0.1875,
            "durationTicks": 144,
            "midi": 36,
            "name": "C2",
            "ticks": 83520,
            "time": 108.75,
            "velocity": 0.3937007874015748
          },
          {
            "duration": 0.1875,
            "durationTicks": 144,
            "midi": 24,
            "name": "C1",
            "ticks": 83952,
            "time": 109.3125,
            "velocity": 0.3937007874015748
          },
          {
            "duration": 0.1875,
            "durationTicks": 144,
            "midi": 36,
            "name": "C2",
            "ticks": 83952,
            "time": 109.3125,
            "velocity": 0.3937007874015748
          },
          {
            "duration": 0.1875,
            "durationTicks": 144,
            "midi": 36,
            "name": "C2",
            "ticks": 84240,
            "time": 109.6875,
            "velocity": 0.3937007874015748
          },
          {
            "duration": 0.1875,
            "durationTicks": 144,
            "midi": 24,
            "name": "C1",
            "ticks": 84240,
            "time": 109.6875,
            "velocity": 0.3937007874015748
          },
          {
            "duration": 0.125,
            "durationTicks": 96,
            "midi": 35,
            "name": "B1",
            "ticks": 84528,
            "time": 110.0625,
            "velocity": 0.3937007874015748
          },
          {
            "duration": 0.125,
            "durationTicks": 96,
            "midi": 35,
            "name": "B1",
            "ticks": 84528,
            "time": 110.0625,
            "velocity": 0.3937007874015748
          },
          {
            "duration": 0.125,
            "durationTicks": 96,
            "midi": 36,
            "name": "C2",
            "ticks": 84672,
            "time": 110.25,
            "velocity": 0.3937007874015748
          },
          {
            "duration": 0.125,
            "durationTicks": 96,
            "midi": 24,
            "name": "C1",
            "ticks": 84672,
            "time": 110.25,
            "velocity": 0.3937007874015748
          },
          {
            "duration": 0.1875,
            "durationTicks": 144,
            "midi": 24,
            "name": "C1",
            "ticks": 85104,
            "time": 110.8125,
            "velocity": 0.3937007874015748
          },
          {
            "duration": 0.1875,
            "durationTicks": 144,
            "midi": 36,
            "name": "C2",
            "ticks": 85104,
            "time": 110.8125,
            "velocity": 0.3937007874015748
          },
          {
            "duration": 0.1875,
            "durationTicks": 144,
            "midi": 36,
            "name": "C2",
            "ticks": 85392,
            "time": 111.1875,
            "velocity": 0.3937007874015748
          },
          {
            "duration": 0.1875,
            "durationTicks": 144,
            "midi": 24,
            "name": "C1",
            "ticks": 85392,
            "time": 111.1875,
            "velocity": 0.3937007874015748
          },
          {
            "duration": 0.1875,
            "durationTicks": 144,
            "midi": 43,
            "name": "G2",
            "ticks": 85824,
            "time": 111.75,
            "velocity": 0.3937007874015748
          },
          {
            "duration": 0.1875,
            "durationTicks": 144,
            "midi": 31,
            "name": "G1",
            "ticks": 85824,
            "time": 111.75,
            "velocity": 0.3937007874015748
          },
          {
            "duration": 0.1875,
            "durationTicks": 144,
            "midi": 38,
            "name": "D2",
            "ticks": 86112,
            "time": 112.125,
            "velocity": 0.3937007874015748
          },
          {
            "duration": 0.1875,
            "durationTicks": 144,
            "midi": 26,
            "name": "D1",
            "ticks": 86112,
            "time": 112.125,
            "velocity": 0.3937007874015748
          },
          {
            "duration": 0.1875,
            "durationTicks": 144,
            "midi": 28,
            "name": "E1",
            "ticks": 86400,
            "time": 112.5,
            "velocity": 0.3937007874015748
          },
          {
            "duration": 0.1875,
            "durationTicks": 144,
            "midi": 40,
            "name": "E2",
            "ticks": 86400,
            "time": 112.5,
            "velocity": 0.3937007874015748
          },
          {
            "duration": 0.1875,
            "durationTicks": 144,
            "midi": 40,
            "name": "E2",
            "ticks": 86832,
            "time": 113.0625,
            "velocity": 0.3937007874015748
          },
          {
            "duration": 0.1875,
            "durationTicks": 144,
            "midi": 52,
            "name": "E3",
            "ticks": 86832,
            "time": 113.0625,
            "velocity": 0.3937007874015748
          },
          {
            "duration": 0.1875,
            "durationTicks": 144,
            "midi": 40,
            "name": "E2",
            "ticks": 87120,
            "time": 113.4375,
            "velocity": 0.3937007874015748
          },
          {
            "duration": 0.1875,
            "durationTicks": 144,
            "midi": 28,
            "name": "E1",
            "ticks": 87120,
            "time": 113.4375,
            "velocity": 0.3937007874015748
          },
          {
            "duration": 0.1875,
            "durationTicks": 144,
            "midi": 31,
            "name": "G1",
            "ticks": 87264,
            "time": 113.625,
            "velocity": 0.3937007874015748
          },
          {
            "duration": 0.1875,
            "durationTicks": 144,
            "midi": 43,
            "name": "G2",
            "ticks": 87264,
            "time": 113.625,
            "velocity": 0.3937007874015748
          },
          {
            "duration": 0.1875,
            "durationTicks": 144,
            "midi": 40,
            "name": "E2",
            "ticks": 87552,
            "time": 114,
            "velocity": 0.3937007874015748
          },
          {
            "duration": 0.1875,
            "durationTicks": 144,
            "midi": 28,
            "name": "E1",
            "ticks": 87552,
            "time": 114,
            "velocity": 0.3937007874015748
          },
          {
            "duration": 0.1875,
            "durationTicks": 144,
            "midi": 40,
            "name": "E2",
            "ticks": 87984,
            "time": 114.5625,
            "velocity": 0.3937007874015748
          },
          {
            "duration": 0.1875,
            "durationTicks": 144,
            "midi": 52,
            "name": "E3",
            "ticks": 87984,
            "time": 114.5625,
            "velocity": 0.3937007874015748
          },
          {
            "duration": 0.1875,
            "durationTicks": 144,
            "midi": 31,
            "name": "G1",
            "ticks": 88704,
            "time": 115.5,
            "velocity": 0.3937007874015748
          },
          {
            "duration": 0.1875,
            "durationTicks": 144,
            "midi": 43,
            "name": "G2",
            "ticks": 88704,
            "time": 115.5,
            "velocity": 0.3937007874015748
          },
          {
            "duration": 0.1875,
            "durationTicks": 144,
            "midi": 31,
            "name": "G1",
            "ticks": 89136,
            "time": 116.0625,
            "velocity": 0.3937007874015748
          },
          {
            "duration": 0.1875,
            "durationTicks": 144,
            "midi": 43,
            "name": "G2",
            "ticks": 89136,
            "time": 116.0625,
            "velocity": 0.3937007874015748
          },
          {
            "duration": 0.1875,
            "durationTicks": 144,
            "midi": 43,
            "name": "G2",
            "ticks": 89136,
            "time": 116.0625,
            "velocity": 0.3937007874015748
          },
          {
            "duration": 0.1875,
            "durationTicks": 144,
            "midi": 31,
            "name": "G1",
            "ticks": 89136,
            "time": 116.0625,
            "velocity": 0.3937007874015748
          },
          {
            "duration": 0.1875,
            "durationTicks": 144,
            "midi": 26,
            "name": "D1",
            "ticks": 89424,
            "time": 116.4375,
            "velocity": 0.3937007874015748
          },
          {
            "duration": 0.1875,
            "durationTicks": 144,
            "midi": 38,
            "name": "D2",
            "ticks": 89424,
            "time": 116.4375,
            "velocity": 0.3937007874015748
          },
          {
            "duration": 0.1875,
            "durationTicks": 144,
            "midi": 35,
            "name": "B1",
            "ticks": 89712,
            "time": 116.8125,
            "velocity": 0.3937007874015748
          },
          {
            "duration": 0.1875,
            "durationTicks": 144,
            "midi": 35,
            "name": "B1",
            "ticks": 89712,
            "time": 116.8125,
            "velocity": 0.3937007874015748
          },
          {
            "duration": 0.1875,
            "durationTicks": 144,
            "midi": 24,
            "name": "C1",
            "ticks": 89856,
            "time": 117,
            "velocity": 0.3937007874015748
          },
          {
            "duration": 0.1875,
            "durationTicks": 144,
            "midi": 36,
            "name": "C2",
            "ticks": 89856,
            "time": 117,
            "velocity": 0.3937007874015748
          },
          {
            "duration": 0.1875,
            "durationTicks": 144,
            "midi": 36,
            "name": "C2",
            "ticks": 90288,
            "time": 117.5625,
            "velocity": 0.3937007874015748
          },
          {
            "duration": 0.1875,
            "durationTicks": 144,
            "midi": 24,
            "name": "C1",
            "ticks": 90288,
            "time": 117.5625,
            "velocity": 0.3937007874015748
          },
          {
            "duration": 0.1875,
            "durationTicks": 144,
            "midi": 24,
            "name": "C1",
            "ticks": 90576,
            "time": 117.9375,
            "velocity": 0.3937007874015748
          },
          {
            "duration": 0.1875,
            "durationTicks": 144,
            "midi": 36,
            "name": "C2",
            "ticks": 90576,
            "time": 117.9375,
            "velocity": 0.3937007874015748
          },
          {
            "duration": 0.125,
            "durationTicks": 96,
            "midi": 35,
            "name": "B1",
            "ticks": 90864,
            "time": 118.3125,
            "velocity": 0.3937007874015748
          },
          {
            "duration": 0.125,
            "durationTicks": 96,
            "midi": 35,
            "name": "B1",
            "ticks": 90864,
            "time": 118.3125,
            "velocity": 0.3937007874015748
          },
          {
            "duration": 0.125,
            "durationTicks": 96,
            "midi": 36,
            "name": "C2",
            "ticks": 91008,
            "time": 118.5,
            "velocity": 0.3937007874015748
          },
          {
            "duration": 0.125,
            "durationTicks": 96,
            "midi": 24,
            "name": "C1",
            "ticks": 91008,
            "time": 118.5,
            "velocity": 0.3937007874015748
          },
          {
            "duration": 0.1875,
            "durationTicks": 144,
            "midi": 24,
            "name": "C1",
            "ticks": 91440,
            "time": 119.0625,
            "velocity": 0.3937007874015748
          },
          {
            "duration": 0.1875,
            "durationTicks": 144,
            "midi": 36,
            "name": "C2",
            "ticks": 91440,
            "time": 119.0625,
            "velocity": 0.3937007874015748
          },
          {
            "duration": 0.1875,
            "durationTicks": 144,
            "midi": 24,
            "name": "C1",
            "ticks": 91728,
            "time": 119.4375,
            "velocity": 0.3937007874015748
          },
          {
            "duration": 0.1875,
            "durationTicks": 144,
            "midi": 36,
            "name": "C2",
            "ticks": 91728,
            "time": 119.4375,
            "velocity": 0.3937007874015748
          },
          {
            "duration": 0.1875,
            "durationTicks": 144,
            "midi": 31,
            "name": "G1",
            "ticks": 92160,
            "time": 120,
            "velocity": 0.3937007874015748
          },
          {
            "duration": 0.1875,
            "durationTicks": 144,
            "midi": 43,
            "name": "G2",
            "ticks": 92160,
            "time": 120,
            "velocity": 0.3937007874015748
          },
          {
            "duration": 0.1875,
            "durationTicks": 144,
            "midi": 26,
            "name": "D1",
            "ticks": 92448,
            "time": 120.375,
            "velocity": 0.3937007874015748
          },
          {
            "duration": 0.1875,
            "durationTicks": 144,
            "midi": 38,
            "name": "D2",
            "ticks": 92448,
            "time": 120.375,
            "velocity": 0.3937007874015748
          },
          {
            "duration": 0.1875,
            "durationTicks": 144,
            "midi": 28,
            "name": "E1",
            "ticks": 92736,
            "time": 120.75,
            "velocity": 0.3937007874015748
          },
          {
            "duration": 0.1875,
            "durationTicks": 144,
            "midi": 40,
            "name": "E2",
            "ticks": 92736,
            "time": 120.75,
            "velocity": 0.3937007874015748
          },
          {
            "duration": 0.1875,
            "durationTicks": 144,
            "midi": 40,
            "name": "E2",
            "ticks": 93168,
            "time": 121.3125,
            "velocity": 0.3937007874015748
          },
          {
            "duration": 0.1875,
            "durationTicks": 144,
            "midi": 52,
            "name": "E3",
            "ticks": 93168,
            "time": 121.3125,
            "velocity": 0.3937007874015748
          },
          {
            "duration": 0.1875,
            "durationTicks": 144,
            "midi": 40,
            "name": "E2",
            "ticks": 93456,
            "time": 121.6875,
            "velocity": 0.3937007874015748
          },
          {
            "duration": 0.1875,
            "durationTicks": 144,
            "midi": 28,
            "name": "E1",
            "ticks": 93456,
            "time": 121.6875,
            "velocity": 0.3937007874015748
          },
          {
            "duration": 0.1875,
            "durationTicks": 144,
            "midi": 31,
            "name": "G1",
            "ticks": 93600,
            "time": 121.875,
            "velocity": 0.3937007874015748
          },
          {
            "duration": 0.1875,
            "durationTicks": 144,
            "midi": 43,
            "name": "G2",
            "ticks": 93600,
            "time": 121.875,
            "velocity": 0.3937007874015748
          },
          {
            "duration": 0.1875,
            "durationTicks": 144,
            "midi": 28,
            "name": "E1",
            "ticks": 93888,
            "time": 122.25,
            "velocity": 0.3937007874015748
          },
          {
            "duration": 0.1875,
            "durationTicks": 144,
            "midi": 40,
            "name": "E2",
            "ticks": 93888,
            "time": 122.25,
            "velocity": 0.3937007874015748
          },
          {
            "duration": 0.1875,
            "durationTicks": 144,
            "midi": 52,
            "name": "E3",
            "ticks": 94320,
            "time": 122.8125,
            "velocity": 0.3937007874015748
          },
          {
            "duration": 0.1875,
            "durationTicks": 144,
            "midi": 40,
            "name": "E2",
            "ticks": 94320,
            "time": 122.8125,
            "velocity": 0.3937007874015748
          },
          {
            "duration": 0.1875,
            "durationTicks": 144,
            "midi": 43,
            "name": "G2",
            "ticks": 95040,
            "time": 123.75,
            "velocity": 0.3937007874015748
          },
          {
            "duration": 0.1875,
            "durationTicks": 144,
            "midi": 31,
            "name": "G1",
            "ticks": 95040,
            "time": 123.75,
            "velocity": 0.3937007874015748
          },
          {
            "duration": 0.1875,
            "durationTicks": 144,
            "midi": 43,
            "name": "G2",
            "ticks": 95472,
            "time": 124.3125,
            "velocity": 0.3937007874015748
          },
          {
            "duration": 0.1875,
            "durationTicks": 144,
            "midi": 43,
            "name": "G2",
            "ticks": 95472,
            "time": 124.3125,
            "velocity": 0.3937007874015748
          },
          {
            "duration": 0.1875,
            "durationTicks": 144,
            "midi": 31,
            "name": "G1",
            "ticks": 95472,
            "time": 124.3125,
            "velocity": 0.3937007874015748
          },
          {
            "duration": 0.1875,
            "durationTicks": 144,
            "midi": 31,
            "name": "G1",
            "ticks": 95472,
            "time": 124.3125,
            "velocity": 0.3937007874015748
          },
          {
            "duration": 0.1875,
            "durationTicks": 144,
            "midi": 26,
            "name": "D1",
            "ticks": 95760,
            "time": 124.6875,
            "velocity": 0.3937007874015748
          },
          {
            "duration": 0.1875,
            "durationTicks": 144,
            "midi": 38,
            "name": "D2",
            "ticks": 95760,
            "time": 124.6875,
            "velocity": 0.3937007874015748
          },
          {
            "duration": 0.1875,
            "durationTicks": 144,
            "midi": 35,
            "name": "B1",
            "ticks": 96048,
            "time": 125.0625,
            "velocity": 0.3937007874015748
          },
          {
            "duration": 0.1875,
            "durationTicks": 144,
            "midi": 35,
            "name": "B1",
            "ticks": 96048,
            "time": 125.0625,
            "velocity": 0.3937007874015748
          },
          {
            "duration": 0.1875,
            "durationTicks": 144,
            "midi": 24,
            "name": "C1",
            "ticks": 96192,
            "time": 125.25,
            "velocity": 0.3937007874015748
          },
          {
            "duration": 0.1875,
            "durationTicks": 144,
            "midi": 36,
            "name": "C2",
            "ticks": 96192,
            "time": 125.25,
            "velocity": 0.3937007874015748
          },
          {
            "duration": 0.1875,
            "durationTicks": 144,
            "midi": 24,
            "name": "C1",
            "ticks": 96624,
            "time": 125.8125,
            "velocity": 0.3937007874015748
          },
          {
            "duration": 0.1875,
            "durationTicks": 144,
            "midi": 36,
            "name": "C2",
            "ticks": 96624,
            "time": 125.8125,
            "velocity": 0.3937007874015748
          },
          {
            "duration": 0.1875,
            "durationTicks": 144,
            "midi": 36,
            "name": "C2",
            "ticks": 96912,
            "time": 126.1875,
            "velocity": 0.3937007874015748
          },
          {
            "duration": 0.1875,
            "durationTicks": 144,
            "midi": 24,
            "name": "C1",
            "ticks": 96912,
            "time": 126.1875,
            "velocity": 0.3937007874015748
          },
          {
            "duration": 0.1875,
            "durationTicks": 144,
            "midi": 35,
            "name": "B1",
            "ticks": 97200,
            "time": 126.5625,
            "velocity": 0.3937007874015748
          },
          {
            "duration": 0.1875,
            "durationTicks": 144,
            "midi": 35,
            "name": "B1",
            "ticks": 97200,
            "time": 126.5625,
            "velocity": 0.3937007874015748
          },
          {
            "duration": 0.1875,
            "durationTicks": 144,
            "midi": 36,
            "name": "C2",
            "ticks": 97344,
            "time": 126.75,
            "velocity": 0.3937007874015748
          },
          {
            "duration": 0.1875,
            "durationTicks": 144,
            "midi": 24,
            "name": "C1",
            "ticks": 97344,
            "time": 126.75,
            "velocity": 0.3937007874015748
          },
          {
            "duration": 0.1875,
            "durationTicks": 144,
            "midi": 36,
            "name": "C2",
            "ticks": 97776,
            "time": 127.3125,
            "velocity": 0.3937007874015748
          },
          {
            "duration": 0.1875,
            "durationTicks": 144,
            "midi": 24,
            "name": "C1",
            "ticks": 97776,
            "time": 127.3125,
            "velocity": 0.3937007874015748
          },
          {
            "duration": 0.1875,
            "durationTicks": 144,
            "midi": 24,
            "name": "C1",
            "ticks": 98064,
            "time": 127.6875,
            "velocity": 0.3937007874015748
          },
          {
            "duration": 0.1875,
            "durationTicks": 144,
            "midi": 36,
            "name": "C2",
            "ticks": 98064,
            "time": 127.6875,
            "velocity": 0.3937007874015748
          },
          {
            "duration": 0.1875,
            "durationTicks": 144,
            "midi": 43,
            "name": "G2",
            "ticks": 98496,
            "time": 128.25,
            "velocity": 0.3937007874015748
          },
          {
            "duration": 0.1875,
            "durationTicks": 144,
            "midi": 31,
            "name": "G1",
            "ticks": 98496,
            "time": 128.25,
            "velocity": 0.3937007874015748
          },
          {
            "duration": 0.1875,
            "durationTicks": 144,
            "midi": 26,
            "name": "D1",
            "ticks": 98784,
            "time": 128.625,
            "velocity": 0.3937007874015748
          },
          {
            "duration": 0.1875,
            "durationTicks": 144,
            "midi": 38,
            "name": "D2",
            "ticks": 98784,
            "time": 128.625,
            "velocity": 0.3937007874015748
          },
          {
            "duration": 0.1875,
            "durationTicks": 144,
            "midi": 28,
            "name": "E1",
            "ticks": 99072,
            "time": 129,
            "velocity": 0.3937007874015748
          },
          {
            "duration": 0.1875,
            "durationTicks": 144,
            "midi": 40,
            "name": "E2",
            "ticks": 99072,
            "time": 129,
            "velocity": 0.3937007874015748
          },
          {
            "duration": 0.1875,
            "durationTicks": 144,
            "midi": 52,
            "name": "E3",
            "ticks": 99504,
            "time": 129.5625,
            "velocity": 0.3937007874015748
          },
          {
            "duration": 0.1875,
            "durationTicks": 144,
            "midi": 40,
            "name": "E2",
            "ticks": 99504,
            "time": 129.5625,
            "velocity": 0.3937007874015748
          },
          {
            "duration": 0.1875,
            "durationTicks": 144,
            "midi": 40,
            "name": "E2",
            "ticks": 99792,
            "time": 129.9375,
            "velocity": 0.3937007874015748
          },
          {
            "duration": 0.1875,
            "durationTicks": 144,
            "midi": 28,
            "name": "E1",
            "ticks": 99792,
            "time": 129.9375,
            "velocity": 0.3937007874015748
          },
          {
            "duration": 0.1875,
            "durationTicks": 144,
            "midi": 43,
            "name": "G2",
            "ticks": 99936,
            "time": 130.125,
            "velocity": 0.3937007874015748
          },
          {
            "duration": 0.1875,
            "durationTicks": 144,
            "midi": 31,
            "name": "G1",
            "ticks": 99936,
            "time": 130.125,
            "velocity": 0.3937007874015748
          },
          {
            "duration": 0.1875,
            "durationTicks": 144,
            "midi": 28,
            "name": "E1",
            "ticks": 100224,
            "time": 130.5,
            "velocity": 0.3937007874015748
          },
          {
            "duration": 0.1875,
            "durationTicks": 144,
            "midi": 40,
            "name": "E2",
            "ticks": 100224,
            "time": 130.5,
            "velocity": 0.3937007874015748
          },
          {
            "duration": 0.1875,
            "durationTicks": 144,
            "midi": 40,
            "name": "E2",
            "ticks": 100656,
            "time": 131.0625,
            "velocity": 0.3937007874015748
          },
          {
            "duration": 0.1875,
            "durationTicks": 144,
            "midi": 52,
            "name": "E3",
            "ticks": 100656,
            "time": 131.0625,
            "velocity": 0.3937007874015748
          },
          {
            "duration": 0.1875,
            "durationTicks": 144,
            "midi": 43,
            "name": "G2",
            "ticks": 126720,
            "time": 165,
            "velocity": 0.3937007874015748
          },
          {
            "duration": 0.1875,
            "durationTicks": 144,
            "midi": 31,
            "name": "G1",
            "ticks": 126720,
            "time": 165,
            "velocity": 0.3937007874015748
          },
          {
            "duration": 0.1875,
            "durationTicks": 144,
            "midi": 43,
            "name": "G2",
            "ticks": 127152,
            "time": 165.5625,
            "velocity": 0.3937007874015748
          },
          {
            "duration": 0.1875,
            "durationTicks": 144,
            "midi": 31,
            "name": "G1",
            "ticks": 127152,
            "time": 165.5625,
            "velocity": 0.3937007874015748
          },
          {
            "duration": 0.1875,
            "durationTicks": 144,
            "midi": 38,
            "name": "D2",
            "ticks": 127440,
            "time": 165.9375,
            "velocity": 0.3937007874015748
          },
          {
            "duration": 0.1875,
            "durationTicks": 144,
            "midi": 26,
            "name": "D1",
            "ticks": 127440,
            "time": 165.9375,
            "velocity": 0.3937007874015748
          },
          {
            "duration": 0.1875,
            "durationTicks": 144,
            "midi": 35,
            "name": "B1",
            "ticks": 127728,
            "time": 166.3125,
            "velocity": 0.3937007874015748
          },
          {
            "duration": 0.1875,
            "durationTicks": 144,
            "midi": 35,
            "name": "B1",
            "ticks": 127728,
            "time": 166.3125,
            "velocity": 0.3937007874015748
          },
          {
            "duration": 0.1875,
            "durationTicks": 144,
            "midi": 24,
            "name": "C1",
            "ticks": 127872,
            "time": 166.5,
            "velocity": 0.3937007874015748
          },
          {
            "duration": 0.1875,
            "durationTicks": 144,
            "midi": 36,
            "name": "C2",
            "ticks": 127872,
            "time": 166.5,
            "velocity": 0.3937007874015748
          },
          {
            "duration": 0.1875,
            "durationTicks": 144,
            "midi": 24,
            "name": "C1",
            "ticks": 128304,
            "time": 167.0625,
            "velocity": 0.3937007874015748
          },
          {
            "duration": 0.1875,
            "durationTicks": 144,
            "midi": 36,
            "name": "C2",
            "ticks": 128304,
            "time": 167.0625,
            "velocity": 0.3937007874015748
          },
          {
            "duration": 0.1875,
            "durationTicks": 144,
            "midi": 36,
            "name": "C2",
            "ticks": 128592,
            "time": 167.4375,
            "velocity": 0.3937007874015748
          },
          {
            "duration": 0.1875,
            "durationTicks": 144,
            "midi": 24,
            "name": "C1",
            "ticks": 128592,
            "time": 167.4375,
            "velocity": 0.3937007874015748
          },
          {
            "duration": 0.1875,
            "durationTicks": 144,
            "midi": 35,
            "name": "B1",
            "ticks": 128880,
            "time": 167.8125,
            "velocity": 0.3937007874015748
          },
          {
            "duration": 0.1875,
            "durationTicks": 144,
            "midi": 35,
            "name": "B1",
            "ticks": 128880,
            "time": 167.8125,
            "velocity": 0.3937007874015748
          },
          {
            "duration": 0.1875,
            "durationTicks": 144,
            "midi": 36,
            "name": "C2",
            "ticks": 129024,
            "time": 168,
            "velocity": 0.3937007874015748
          },
          {
            "duration": 0.1875,
            "durationTicks": 144,
            "midi": 24,
            "name": "C1",
            "ticks": 129024,
            "time": 168,
            "velocity": 0.3937007874015748
          },
          {
            "duration": 0.1875,
            "durationTicks": 144,
            "midi": 24,
            "name": "C1",
            "ticks": 129456,
            "time": 168.5625,
            "velocity": 0.3937007874015748
          },
          {
            "duration": 0.1875,
            "durationTicks": 144,
            "midi": 36,
            "name": "C2",
            "ticks": 129456,
            "time": 168.5625,
            "velocity": 0.3937007874015748
          },
          {
            "duration": 0.1875,
            "durationTicks": 144,
            "midi": 36,
            "name": "C2",
            "ticks": 129744,
            "time": 168.9375,
            "velocity": 0.3937007874015748
          },
          {
            "duration": 0.1875,
            "durationTicks": 144,
            "midi": 24,
            "name": "C1",
            "ticks": 129744,
            "time": 168.9375,
            "velocity": 0.3937007874015748
          },
          {
            "duration": 0.1875,
            "durationTicks": 144,
            "midi": 43,
            "name": "G2",
            "ticks": 130176,
            "time": 169.5,
            "velocity": 0.3937007874015748
          },
          {
            "duration": 0.1875,
            "durationTicks": 144,
            "midi": 31,
            "name": "G1",
            "ticks": 130176,
            "time": 169.5,
            "velocity": 0.3937007874015748
          },
          {
            "duration": 0.1875,
            "durationTicks": 144,
            "midi": 38,
            "name": "D2",
            "ticks": 130464,
            "time": 169.875,
            "velocity": 0.3937007874015748
          },
          {
            "duration": 0.1875,
            "durationTicks": 144,
            "midi": 26,
            "name": "D1",
            "ticks": 130464,
            "time": 169.875,
            "velocity": 0.3937007874015748
          },
          {
            "duration": 0.1875,
            "durationTicks": 144,
            "midi": 28,
            "name": "E1",
            "ticks": 130752,
            "time": 170.25,
            "velocity": 0.3937007874015748
          },
          {
            "duration": 0.1875,
            "durationTicks": 144,
            "midi": 40,
            "name": "E2",
            "ticks": 130752,
            "time": 170.25,
            "velocity": 0.3937007874015748
          },
          {
            "duration": 0.1875,
            "durationTicks": 144,
            "midi": 40,
            "name": "E2",
            "ticks": 131184,
            "time": 170.8125,
            "velocity": 0.3937007874015748
          },
          {
            "duration": 0.1875,
            "durationTicks": 144,
            "midi": 52,
            "name": "E3",
            "ticks": 131184,
            "time": 170.8125,
            "velocity": 0.3937007874015748
          },
          {
            "duration": 0.1875,
            "durationTicks": 144,
            "midi": 40,
            "name": "E2",
            "ticks": 131472,
            "time": 171.1875,
            "velocity": 0.3937007874015748
          },
          {
            "duration": 0.1875,
            "durationTicks": 144,
            "midi": 28,
            "name": "E1",
            "ticks": 131472,
            "time": 171.1875,
            "velocity": 0.3937007874015748
          },
          {
            "duration": 0.1875,
            "durationTicks": 144,
            "midi": 31,
            "name": "G1",
            "ticks": 131616,
            "time": 171.375,
            "velocity": 0.3937007874015748
          },
          {
            "duration": 0.1875,
            "durationTicks": 144,
            "midi": 43,
            "name": "G2",
            "ticks": 131616,
            "time": 171.375,
            "velocity": 0.3937007874015748
          },
          {
            "duration": 0.1875,
            "durationTicks": 144,
            "midi": 28,
            "name": "E1",
            "ticks": 131904,
            "time": 171.75,
            "velocity": 0.3937007874015748
          },
          {
            "duration": 0.1875,
            "durationTicks": 144,
            "midi": 40,
            "name": "E2",
            "ticks": 131904,
            "time": 171.75,
            "velocity": 0.3937007874015748
          },
          {
            "duration": 0.1875,
            "durationTicks": 144,
            "midi": 40,
            "name": "E2",
            "ticks": 132336,
            "time": 172.3125,
            "velocity": 0.3937007874015748
          },
          {
            "duration": 0.1875,
            "durationTicks": 144,
            "midi": 52,
            "name": "E3",
            "ticks": 132336,
            "time": 172.3125,
            "velocity": 0.3937007874015748
          },
          {
            "duration": 0.1875,
            "durationTicks": 144,
            "midi": 43,
            "name": "G2",
            "ticks": 133056,
            "time": 173.25,
            "velocity": 0.3937007874015748
          },
          {
            "duration": 0.1875,
            "durationTicks": 144,
            "midi": 31,
            "name": "G1",
            "ticks": 133056,
            "time": 173.25,
            "velocity": 0.3937007874015748
          },
          {
            "duration": 0.1875,
            "durationTicks": 144,
            "midi": 31,
            "name": "G1",
            "ticks": 133488,
            "time": 173.8125,
            "velocity": 0.3937007874015748
          },
          {
            "duration": 0.1875,
            "durationTicks": 144,
            "midi": 43,
            "name": "G2",
            "ticks": 133488,
            "time": 173.8125,
            "velocity": 0.3937007874015748
          },
          {
            "duration": 0.1875,
            "durationTicks": 144,
            "midi": 38,
            "name": "D2",
            "ticks": 133776,
            "time": 174.1875,
            "velocity": 0.3937007874015748
          },
          {
            "duration": 0.1875,
            "durationTicks": 144,
            "midi": 26,
            "name": "D1",
            "ticks": 133776,
            "time": 174.1875,
            "velocity": 0.3937007874015748
          },
          {
            "duration": 0.1875,
            "durationTicks": 144,
            "midi": 35,
            "name": "B1",
            "ticks": 134064,
            "time": 174.5625,
            "velocity": 0.3937007874015748
          },
          {
            "duration": 0.1875,
            "durationTicks": 144,
            "midi": 35,
            "name": "B1",
            "ticks": 134064,
            "time": 174.5625,
            "velocity": 0.3937007874015748
          },
          {
            "duration": 0.1875,
            "durationTicks": 144,
            "midi": 24,
            "name": "C1",
            "ticks": 134208,
            "time": 174.75,
            "velocity": 0.3937007874015748
          },
          {
            "duration": 0.1875,
            "durationTicks": 144,
            "midi": 36,
            "name": "C2",
            "ticks": 134208,
            "time": 174.75,
            "velocity": 0.3937007874015748
          },
          {
            "duration": 0.1875,
            "durationTicks": 144,
            "midi": 36,
            "name": "C2",
            "ticks": 134640,
            "time": 175.3125,
            "velocity": 0.3937007874015748
          },
          {
            "duration": 0.1875,
            "durationTicks": 144,
            "midi": 24,
            "name": "C1",
            "ticks": 134640,
            "time": 175.3125,
            "velocity": 0.3937007874015748
          },
          {
            "duration": 0.1875,
            "durationTicks": 144,
            "midi": 24,
            "name": "C1",
            "ticks": 134928,
            "time": 175.6875,
            "velocity": 0.3937007874015748
          },
          {
            "duration": 0.1875,
            "durationTicks": 144,
            "midi": 36,
            "name": "C2",
            "ticks": 134928,
            "time": 175.6875,
            "velocity": 0.3937007874015748
          },
          {
            "duration": 0.1875,
            "durationTicks": 144,
            "midi": 35,
            "name": "B1",
            "ticks": 135216,
            "time": 176.0625,
            "velocity": 0.3937007874015748
          },
          {
            "duration": 0.1875,
            "durationTicks": 144,
            "midi": 35,
            "name": "B1",
            "ticks": 135216,
            "time": 176.0625,
            "velocity": 0.3937007874015748
          },
          {
            "duration": 0.1875,
            "durationTicks": 144,
            "midi": 36,
            "name": "C2",
            "ticks": 135360,
            "time": 176.25,
            "velocity": 0.3937007874015748
          },
          {
            "duration": 0.1875,
            "durationTicks": 144,
            "midi": 24,
            "name": "C1",
            "ticks": 135360,
            "time": 176.25,
            "velocity": 0.3937007874015748
          },
          {
            "duration": 0.1875,
            "durationTicks": 144,
            "midi": 24,
            "name": "C1",
            "ticks": 135792,
            "time": 176.8125,
            "velocity": 0.3937007874015748
          },
          {
            "duration": 0.1875,
            "durationTicks": 144,
            "midi": 36,
            "name": "C2",
            "ticks": 135792,
            "time": 176.8125,
            "velocity": 0.3937007874015748
          },
          {
            "duration": 0.1875,
            "durationTicks": 144,
            "midi": 36,
            "name": "C2",
            "ticks": 136080,
            "time": 177.1875,
            "velocity": 0.3937007874015748
          },
          {
            "duration": 0.1875,
            "durationTicks": 144,
            "midi": 24,
            "name": "C1",
            "ticks": 136080,
            "time": 177.1875,
            "velocity": 0.3937007874015748
          },
          {
            "duration": 0.1875,
            "durationTicks": 144,
            "midi": 31,
            "name": "G1",
            "ticks": 136512,
            "time": 177.75,
            "velocity": 0.3937007874015748
          },
          {
            "duration": 0.1875,
            "durationTicks": 144,
            "midi": 43,
            "name": "G2",
            "ticks": 136512,
            "time": 177.75,
            "velocity": 0.3937007874015748
          },
          {
            "duration": 0.1875,
            "durationTicks": 144,
            "midi": 26,
            "name": "D1",
            "ticks": 136800,
            "time": 178.125,
            "velocity": 0.3937007874015748
          },
          {
            "duration": 0.1875,
            "durationTicks": 144,
            "midi": 38,
            "name": "D2",
            "ticks": 136800,
            "time": 178.125,
            "velocity": 0.3937007874015748
          },
          {
            "duration": 0.1875,
            "durationTicks": 144,
            "midi": 28,
            "name": "E1",
            "ticks": 137088,
            "time": 178.5,
            "velocity": 0.3937007874015748
          },
          {
            "duration": 0.1875,
            "durationTicks": 144,
            "midi": 40,
            "name": "E2",
            "ticks": 137088,
            "time": 178.5,
            "velocity": 0.3937007874015748
          },
          {
            "duration": 0.1875,
            "durationTicks": 144,
            "midi": 52,
            "name": "E3",
            "ticks": 137520,
            "time": 179.0625,
            "velocity": 0.3937007874015748
          },
          {
            "duration": 0.1875,
            "durationTicks": 144,
            "midi": 40,
            "name": "E2",
            "ticks": 137520,
            "time": 179.0625,
            "velocity": 0.3937007874015748
          },
          {
            "duration": 0.1875,
            "durationTicks": 144,
            "midi": 40,
            "name": "E2",
            "ticks": 137808,
            "time": 179.4375,
            "velocity": 0.3937007874015748
          },
          {
            "duration": 0.1875,
            "durationTicks": 144,
            "midi": 28,
            "name": "E1",
            "ticks": 137808,
            "time": 179.4375,
            "velocity": 0.3937007874015748
          },
          {
            "duration": 0.1875,
            "durationTicks": 144,
            "midi": 43,
            "name": "G2",
            "ticks": 137952,
            "time": 179.625,
            "velocity": 0.3937007874015748
          },
          {
            "duration": 0.1875,
            "durationTicks": 144,
            "midi": 31,
            "name": "G1",
            "ticks": 137952,
            "time": 179.625,
            "velocity": 0.3937007874015748
          },
          {
            "duration": 0.1875,
            "durationTicks": 144,
            "midi": 28,
            "name": "E1",
            "ticks": 138240,
            "time": 180,
            "velocity": 0.3937007874015748
          },
          {
            "duration": 0.1875,
            "durationTicks": 144,
            "midi": 40,
            "name": "E2",
            "ticks": 138240,
            "time": 180,
            "velocity": 0.3937007874015748
          },
          {
            "duration": 0.1875,
            "durationTicks": 144,
            "midi": 52,
            "name": "E3",
            "ticks": 138672,
            "time": 180.5625,
            "velocity": 0.3937007874015748
          },
          {
            "duration": 0.1875,
            "durationTicks": 144,
            "midi": 40,
            "name": "E2",
            "ticks": 138672,
            "time": 180.5625,
            "velocity": 0.3937007874015748
          },
          {
            "duration": 0.1875,
            "durationTicks": 144,
            "midi": 31,
            "name": "G1",
            "ticks": 139392,
            "time": 181.5,
            "velocity": 0.3937007874015748
          },
          {
            "duration": 0.1875,
            "durationTicks": 144,
            "midi": 43,
            "name": "G2",
            "ticks": 139392,
            "time": 181.5,
            "velocity": 0.3937007874015748
          },
          {
            "duration": 0.1875,
            "durationTicks": 144,
            "midi": 43,
            "name": "G2",
            "ticks": 139824,
            "time": 182.0625,
            "velocity": 0.3937007874015748
          },
          {
            "duration": 0.1875,
            "durationTicks": 144,
            "midi": 31,
            "name": "G1",
            "ticks": 139824,
            "time": 182.0625,
            "velocity": 0.3937007874015748
          },
          {
            "duration": 0.1875,
            "durationTicks": 144,
            "midi": 38,
            "name": "D2",
            "ticks": 140112,
            "time": 182.4375,
            "velocity": 0.3937007874015748
          },
          {
            "duration": 0.1875,
            "durationTicks": 144,
            "midi": 26,
            "name": "D1",
            "ticks": 140112,
            "time": 182.4375,
            "velocity": 0.3937007874015748
          },
          {
            "duration": 0.1875,
            "durationTicks": 144,
            "midi": 35,
            "name": "B1",
            "ticks": 140400,
            "time": 182.8125,
            "velocity": 0.3937007874015748
          },
          {
            "duration": 0.1875,
            "durationTicks": 144,
            "midi": 35,
            "name": "B1",
            "ticks": 140400,
            "time": 182.8125,
            "velocity": 0.3937007874015748
          },
          {
            "duration": 0.1875,
            "durationTicks": 144,
            "midi": 24,
            "name": "C1",
            "ticks": 140544,
            "time": 183,
            "velocity": 0.3937007874015748
          },
          {
            "duration": 0.1875,
            "durationTicks": 144,
            "midi": 36,
            "name": "C2",
            "ticks": 140544,
            "time": 183,
            "velocity": 0.3937007874015748
          },
          {
            "duration": 0.1875,
            "durationTicks": 144,
            "midi": 24,
            "name": "C1",
            "ticks": 140976,
            "time": 183.5625,
            "velocity": 0.3937007874015748
          },
          {
            "duration": 0.1875,
            "durationTicks": 144,
            "midi": 36,
            "name": "C2",
            "ticks": 140976,
            "time": 183.5625,
            "velocity": 0.3937007874015748
          },
          {
            "duration": 0.1875,
            "durationTicks": 144,
            "midi": 36,
            "name": "C2",
            "ticks": 141264,
            "time": 183.9375,
            "velocity": 0.3937007874015748
          },
          {
            "duration": 0.1875,
            "durationTicks": 144,
            "midi": 24,
            "name": "C1",
            "ticks": 141264,
            "time": 183.9375,
            "velocity": 0.3937007874015748
          },
          {
            "duration": 0.1875,
            "durationTicks": 144,
            "midi": 35,
            "name": "B1",
            "ticks": 141552,
            "time": 184.3125,
            "velocity": 0.3937007874015748
          },
          {
            "duration": 0.1875,
            "durationTicks": 144,
            "midi": 35,
            "name": "B1",
            "ticks": 141552,
            "time": 184.3125,
            "velocity": 0.3937007874015748
          },
          {
            "duration": 0.1875,
            "durationTicks": 144,
            "midi": 24,
            "name": "C1",
            "ticks": 141696,
            "time": 184.5,
            "velocity": 0.3937007874015748
          },
          {
            "duration": 0.1875,
            "durationTicks": 144,
            "midi": 36,
            "name": "C2",
            "ticks": 141696,
            "time": 184.5,
            "velocity": 0.3937007874015748
          },
          {
            "duration": 0.1875,
            "durationTicks": 144,
            "midi": 36,
            "name": "C2",
            "ticks": 142128,
            "time": 185.0625,
            "velocity": 0.3937007874015748
          },
          {
            "duration": 0.1875,
            "durationTicks": 144,
            "midi": 24,
            "name": "C1",
            "ticks": 142128,
            "time": 185.0625,
            "velocity": 0.3937007874015748
          },
          {
            "duration": 0.1875,
            "durationTicks": 144,
            "midi": 36,
            "name": "C2",
            "ticks": 142416,
            "time": 185.4375,
            "velocity": 0.3937007874015748
          },
          {
            "duration": 0.1875,
            "durationTicks": 144,
            "midi": 24,
            "name": "C1",
            "ticks": 142416,
            "time": 185.4375,
            "velocity": 0.3937007874015748
          },
          {
            "duration": 0.1875,
            "durationTicks": 144,
            "midi": 43,
            "name": "G2",
            "ticks": 142848,
            "time": 186,
            "velocity": 0.3937007874015748
          },
          {
            "duration": 0.1875,
            "durationTicks": 144,
            "midi": 31,
            "name": "G1",
            "ticks": 142848,
            "time": 186,
            "velocity": 0.3937007874015748
          },
          {
            "duration": 0.1875,
            "durationTicks": 144,
            "midi": 26,
            "name": "D1",
            "ticks": 143136,
            "time": 186.375,
            "velocity": 0.3937007874015748
          },
          {
            "duration": 0.1875,
            "durationTicks": 144,
            "midi": 38,
            "name": "D2",
            "ticks": 143136,
            "time": 186.375,
            "velocity": 0.3937007874015748
          },
          {
            "duration": 0.1875,
            "durationTicks": 144,
            "midi": 40,
            "name": "E2",
            "ticks": 143424,
            "time": 186.75,
            "velocity": 0.3937007874015748
          },
          {
            "duration": 0.1875,
            "durationTicks": 144,
            "midi": 28,
            "name": "E1",
            "ticks": 143424,
            "time": 186.75,
            "velocity": 0.3937007874015748
          },
          {
            "duration": 0.1875,
            "durationTicks": 144,
            "midi": 40,
            "name": "E2",
            "ticks": 143856,
            "time": 187.3125,
            "velocity": 0.3937007874015748
          },
          {
            "duration": 0.1875,
            "durationTicks": 144,
            "midi": 52,
            "name": "E3",
            "ticks": 143856,
            "time": 187.3125,
            "velocity": 0.3937007874015748
          },
          {
            "duration": 0.1875,
            "durationTicks": 144,
            "midi": 40,
            "name": "E2",
            "ticks": 144144,
            "time": 187.6875,
            "velocity": 0.3937007874015748
          },
          {
            "duration": 0.1875,
            "durationTicks": 144,
            "midi": 28,
            "name": "E1",
            "ticks": 144144,
            "time": 187.6875,
            "velocity": 0.3937007874015748
          },
          {
            "duration": 0.1875,
            "durationTicks": 144,
            "midi": 43,
            "name": "G2",
            "ticks": 144288,
            "time": 187.875,
            "velocity": 0.3937007874015748
          },
          {
            "duration": 0.1875,
            "durationTicks": 144,
            "midi": 31,
            "name": "G1",
            "ticks": 144288,
            "time": 187.875,
            "velocity": 0.3937007874015748
          },
          {
            "duration": 0.1875,
            "durationTicks": 144,
            "midi": 40,
            "name": "E2",
            "ticks": 144576,
            "time": 188.25,
            "velocity": 0.3937007874015748
          },
          {
            "duration": 0.1875,
            "durationTicks": 144,
            "midi": 28,
            "name": "E1",
            "ticks": 144576,
            "time": 188.25,
            "velocity": 0.3937007874015748
          },
          {
            "duration": 0.1875,
            "durationTicks": 144,
            "midi": 40,
            "name": "E2",
            "ticks": 145008,
            "time": 188.8125,
            "velocity": 0.3937007874015748
          },
          {
            "duration": 0.1875,
            "durationTicks": 144,
            "midi": 52,
            "name": "E3",
            "ticks": 145008,
            "time": 188.8125,
            "velocity": 0.3937007874015748
          },
          {
            "duration": 0.1875,
            "durationTicks": 144,
            "midi": 43,
            "name": "G2",
            "ticks": 145728,
            "time": 189.75,
            "velocity": 0.3937007874015748
          },
          {
            "duration": 0.1875,
            "durationTicks": 144,
            "midi": 31,
            "name": "G1",
            "ticks": 145728,
            "time": 189.75,
            "velocity": 0.3937007874015748
          },
          {
            "duration": 0.1875,
            "durationTicks": 144,
            "midi": 43,
            "name": "G2",
            "ticks": 146160,
            "time": 190.3125,
            "velocity": 0.3937007874015748
          },
          {
            "duration": 0.1875,
            "durationTicks": 144,
            "midi": 31,
            "name": "G1",
            "ticks": 146160,
            "time": 190.3125,
            "velocity": 0.3937007874015748
          },
          {
            "duration": 0.1875,
            "durationTicks": 144,
            "midi": 26,
            "name": "D1",
            "ticks": 146448,
            "time": 190.6875,
            "velocity": 0.3937007874015748
          },
          {
            "duration": 0.1875,
            "durationTicks": 144,
            "midi": 38,
            "name": "D2",
            "ticks": 146448,
            "time": 190.6875,
            "velocity": 0.3937007874015748
          },
          {
            "duration": 0.1875,
            "durationTicks": 144,
            "midi": 35,
            "name": "B1",
            "ticks": 146736,
            "time": 191.0625,
            "velocity": 0.3937007874015748
          },
          {
            "duration": 0.1875,
            "durationTicks": 144,
            "midi": 35,
            "name": "B1",
            "ticks": 146736,
            "time": 191.0625,
            "velocity": 0.3937007874015748
          },
          {
            "duration": 0.1875,
            "durationTicks": 144,
            "midi": 36,
            "name": "C2",
            "ticks": 146880,
            "time": 191.25,
            "velocity": 0.3937007874015748
          },
          {
            "duration": 0.1875,
            "durationTicks": 144,
            "midi": 24,
            "name": "C1",
            "ticks": 146880,
            "time": 191.25,
            "velocity": 0.3937007874015748
          },
          {
            "duration": 0.1875,
            "durationTicks": 144,
            "midi": 24,
            "name": "C1",
            "ticks": 147312,
            "time": 191.8125,
            "velocity": 0.3937007874015748
          },
          {
            "duration": 0.1875,
            "durationTicks": 144,
            "midi": 36,
            "name": "C2",
            "ticks": 147312,
            "time": 191.8125,
            "velocity": 0.3937007874015748
          },
          {
            "duration": 0.1875,
            "durationTicks": 144,
            "midi": 24,
            "name": "C1",
            "ticks": 147600,
            "time": 192.1875,
            "velocity": 0.3937007874015748
          },
          {
            "duration": 0.1875,
            "durationTicks": 144,
            "midi": 36,
            "name": "C2",
            "ticks": 147600,
            "time": 192.1875,
            "velocity": 0.3937007874015748
          },
          {
            "duration": 0.1875,
            "durationTicks": 144,
            "midi": 35,
            "name": "B1",
            "ticks": 147888,
            "time": 192.5625,
            "velocity": 0.3937007874015748
          },
          {
            "duration": 0.1875,
            "durationTicks": 144,
            "midi": 35,
            "name": "B1",
            "ticks": 147888,
            "time": 192.5625,
            "velocity": 0.3937007874015748
          },
          {
            "duration": 0.1875,
            "durationTicks": 144,
            "midi": 36,
            "name": "C2",
            "ticks": 148032,
            "time": 192.75,
            "velocity": 0.3937007874015748
          },
          {
            "duration": 0.1875,
            "durationTicks": 144,
            "midi": 24,
            "name": "C1",
            "ticks": 148032,
            "time": 192.75,
            "velocity": 0.3937007874015748
          },
          {
            "duration": 0.1875,
            "durationTicks": 144,
            "midi": 24,
            "name": "C1",
            "ticks": 148464,
            "time": 193.3125,
            "velocity": 0.3937007874015748
          },
          {
            "duration": 0.1875,
            "durationTicks": 144,
            "midi": 36,
            "name": "C2",
            "ticks": 148464,
            "time": 193.3125,
            "velocity": 0.3937007874015748
          },
          {
            "duration": 0.1875,
            "durationTicks": 144,
            "midi": 24,
            "name": "C1",
            "ticks": 148752,
            "time": 193.6875,
            "velocity": 0.3937007874015748
          },
          {
            "duration": 0.1875,
            "durationTicks": 144,
            "midi": 36,
            "name": "C2",
            "ticks": 148752,
            "time": 193.6875,
            "velocity": 0.3937007874015748
          },
          {
            "duration": 0.1875,
            "durationTicks": 144,
            "midi": 43,
            "name": "G2",
            "ticks": 149184,
            "time": 194.25,
            "velocity": 0.3937007874015748
          },
          {
            "duration": 0.1875,
            "durationTicks": 144,
            "midi": 31,
            "name": "G1",
            "ticks": 149184,
            "time": 194.25,
            "velocity": 0.3937007874015748
          },
          {
            "duration": 0.1875,
            "durationTicks": 144,
            "midi": 26,
            "name": "D1",
            "ticks": 149472,
            "time": 194.625,
            "velocity": 0.3937007874015748
          },
          {
            "duration": 0.1875,
            "durationTicks": 144,
            "midi": 38,
            "name": "D2",
            "ticks": 149472,
            "time": 194.625,
            "velocity": 0.3937007874015748
          },
          {
            "duration": 0.1875,
            "durationTicks": 144,
            "midi": 40,
            "name": "E2",
            "ticks": 149760,
            "time": 195,
            "velocity": 0.3937007874015748
          },
          {
            "duration": 0.1875,
            "durationTicks": 144,
            "midi": 28,
            "name": "E1",
            "ticks": 149760,
            "time": 195,
            "velocity": 0.3937007874015748
          },
          {
            "duration": 0.1875,
            "durationTicks": 144,
            "midi": 40,
            "name": "E2",
            "ticks": 150192,
            "time": 195.5625,
            "velocity": 0.3937007874015748
          },
          {
            "duration": 0.1875,
            "durationTicks": 144,
            "midi": 52,
            "name": "E3",
            "ticks": 150192,
            "time": 195.5625,
            "velocity": 0.3937007874015748
          },
          {
            "duration": 0.1875,
            "durationTicks": 144,
            "midi": 28,
            "name": "E1",
            "ticks": 150480,
            "time": 195.9375,
            "velocity": 0.3937007874015748
          },
          {
            "duration": 0.1875,
            "durationTicks": 144,
            "midi": 40,
            "name": "E2",
            "ticks": 150480,
            "time": 195.9375,
            "velocity": 0.3937007874015748
          },
          {
            "duration": 0.1875,
            "durationTicks": 144,
            "midi": 43,
            "name": "G2",
            "ticks": 150624,
            "time": 196.125,
            "velocity": 0.3937007874015748
          },
          {
            "duration": 0.1875,
            "durationTicks": 144,
            "midi": 31,
            "name": "G1",
            "ticks": 150624,
            "time": 196.125,
            "velocity": 0.3937007874015748
          },
          {
            "duration": 0.1875,
            "durationTicks": 144,
            "midi": 28,
            "name": "E1",
            "ticks": 150912,
            "time": 196.5,
            "velocity": 0.3937007874015748
          },
          {
            "duration": 0.1875,
            "durationTicks": 144,
            "midi": 40,
            "name": "E2",
            "ticks": 150912,
            "time": 196.5,
            "velocity": 0.3937007874015748
          },
          {
            "duration": 0.1875,
            "durationTicks": 144,
            "midi": 40,
            "name": "E2",
            "ticks": 151344,
            "time": 197.0625,
            "velocity": 0.3937007874015748
          },
          {
            "duration": 0.1875,
            "durationTicks": 144,
            "midi": 52,
            "name": "E3",
            "ticks": 151344,
            "time": 197.0625,
            "velocity": 0.3937007874015748
          },
          {
            "duration": 0.1875,
            "durationTicks": 144,
            "midi": 31,
            "name": "G1",
            "ticks": 152064,
            "time": 198,
            "velocity": 0.3937007874015748
          },
          {
            "duration": 0.1875,
            "durationTicks": 144,
            "midi": 43,
            "name": "G2",
            "ticks": 152064,
            "time": 198,
            "velocity": 0.3937007874015748
          },
          {
            "duration": 0.1875,
            "durationTicks": 144,
            "midi": 31,
            "name": "G1",
            "ticks": 152496,
            "time": 198.5625,
            "velocity": 0.3937007874015748
          },
          {
            "duration": 0.1875,
            "durationTicks": 144,
            "midi": 31,
            "name": "G1",
            "ticks": 152496,
            "time": 198.5625,
            "velocity": 0.3937007874015748
          },
          {
            "duration": 0.1875,
            "durationTicks": 144,
            "midi": 43,
            "name": "G2",
            "ticks": 152496,
            "time": 198.5625,
            "velocity": 0.3937007874015748
          },
          {
            "duration": 0.1875,
            "durationTicks": 144,
            "midi": 43,
            "name": "G2",
            "ticks": 152496,
            "time": 198.5625,
            "velocity": 0.3937007874015748
          },
          {
            "duration": 0.1875,
            "durationTicks": 144,
            "midi": 38,
            "name": "D2",
            "ticks": 152784,
            "time": 198.9375,
            "velocity": 0.3937007874015748
          },
          {
            "duration": 0.1875,
            "durationTicks": 144,
            "midi": 26,
            "name": "D1",
            "ticks": 152784,
            "time": 198.9375,
            "velocity": 0.3937007874015748
          },
          {
            "duration": 0.1875,
            "durationTicks": 144,
            "midi": 35,
            "name": "B1",
            "ticks": 153072,
            "time": 199.3125,
            "velocity": 0.3937007874015748
          },
          {
            "duration": 0.1875,
            "durationTicks": 144,
            "midi": 35,
            "name": "B1",
            "ticks": 153072,
            "time": 199.3125,
            "velocity": 0.3937007874015748
          },
          {
            "duration": 0.1875,
            "durationTicks": 144,
            "midi": 24,
            "name": "C1",
            "ticks": 153216,
            "time": 199.5,
            "velocity": 0.3937007874015748
          },
          {
            "duration": 0.1875,
            "durationTicks": 144,
            "midi": 36,
            "name": "C2",
            "ticks": 153216,
            "time": 199.5,
            "velocity": 0.3937007874015748
          },
          {
            "duration": 0.1875,
            "durationTicks": 144,
            "midi": 36,
            "name": "C2",
            "ticks": 153648,
            "time": 200.0625,
            "velocity": 0.3937007874015748
          },
          {
            "duration": 0.1875,
            "durationTicks": 144,
            "midi": 24,
            "name": "C1",
            "ticks": 153648,
            "time": 200.0625,
            "velocity": 0.3937007874015748
          },
          {
            "duration": 0.1875,
            "durationTicks": 144,
            "midi": 24,
            "name": "C1",
            "ticks": 153936,
            "time": 200.4375,
            "velocity": 0.3937007874015748
          },
          {
            "duration": 0.1875,
            "durationTicks": 144,
            "midi": 36,
            "name": "C2",
            "ticks": 153936,
            "time": 200.4375,
            "velocity": 0.3937007874015748
          },
          {
            "duration": 0.1875,
            "durationTicks": 144,
            "midi": 35,
            "name": "B1",
            "ticks": 154224,
            "time": 200.8125,
            "velocity": 0.3937007874015748
          },
          {
            "duration": 0.1875,
            "durationTicks": 144,
            "midi": 35,
            "name": "B1",
            "ticks": 154224,
            "time": 200.8125,
            "velocity": 0.3937007874015748
          },
          {
            "duration": 0.1875,
            "durationTicks": 144,
            "midi": 36,
            "name": "C2",
            "ticks": 154368,
            "time": 201,
            "velocity": 0.3937007874015748
          },
          {
            "duration": 0.1875,
            "durationTicks": 144,
            "midi": 24,
            "name": "C1",
            "ticks": 154368,
            "time": 201,
            "velocity": 0.3937007874015748
          },
          {
            "duration": 0.1875,
            "durationTicks": 144,
            "midi": 24,
            "name": "C1",
            "ticks": 154800,
            "time": 201.5625,
            "velocity": 0.3937007874015748
          },
          {
            "duration": 0.1875,
            "durationTicks": 144,
            "midi": 36,
            "name": "C2",
            "ticks": 154800,
            "time": 201.5625,
            "velocity": 0.3937007874015748
          },
          {
            "duration": 0.1875,
            "durationTicks": 144,
            "midi": 36,
            "name": "C2",
            "ticks": 155088,
            "time": 201.9375,
            "velocity": 0.3937007874015748
          },
          {
            "duration": 0.1875,
            "durationTicks": 144,
            "midi": 24,
            "name": "C1",
            "ticks": 155088,
            "time": 201.9375,
            "velocity": 0.3937007874015748
          },
          {
            "duration": 0.1875,
            "durationTicks": 144,
            "midi": 31,
            "name": "G1",
            "ticks": 155520,
            "time": 202.5,
            "velocity": 0.3937007874015748
          },
          {
            "duration": 0.1875,
            "durationTicks": 144,
            "midi": 43,
            "name": "G2",
            "ticks": 155520,
            "time": 202.5,
            "velocity": 0.3937007874015748
          },
          {
            "duration": 0.1875,
            "durationTicks": 144,
            "midi": 38,
            "name": "D2",
            "ticks": 155808,
            "time": 202.875,
            "velocity": 0.3937007874015748
          },
          {
            "duration": 0.1875,
            "durationTicks": 144,
            "midi": 26,
            "name": "D1",
            "ticks": 155808,
            "time": 202.875,
            "velocity": 0.3937007874015748
          },
          {
            "duration": 0.1875,
            "durationTicks": 144,
            "midi": 28,
            "name": "E1",
            "ticks": 156096,
            "time": 203.25,
            "velocity": 0.3937007874015748
          },
          {
            "duration": 0.1875,
            "durationTicks": 144,
            "midi": 40,
            "name": "E2",
            "ticks": 156096,
            "time": 203.25,
            "velocity": 0.3937007874015748
          },
          {
            "duration": 0.1875,
            "durationTicks": 144,
            "midi": 52,
            "name": "E3",
            "ticks": 156528,
            "time": 203.8125,
            "velocity": 0.3937007874015748
          },
          {
            "duration": 0.1875,
            "durationTicks": 144,
            "midi": 40,
            "name": "E2",
            "ticks": 156528,
            "time": 203.8125,
            "velocity": 0.3937007874015748
          },
          {
            "duration": 0.1875,
            "durationTicks": 144,
            "midi": 28,
            "name": "E1",
            "ticks": 156816,
            "time": 204.1875,
            "velocity": 0.3937007874015748
          },
          {
            "duration": 0.1875,
            "durationTicks": 144,
            "midi": 40,
            "name": "E2",
            "ticks": 156816,
            "time": 204.1875,
            "velocity": 0.3937007874015748
          },
          {
            "duration": 0.1875,
            "durationTicks": 144,
            "midi": 31,
            "name": "G1",
            "ticks": 156960,
            "time": 204.375,
            "velocity": 0.3937007874015748
          },
          {
            "duration": 0.1875,
            "durationTicks": 144,
            "midi": 43,
            "name": "G2",
            "ticks": 156960,
            "time": 204.375,
            "velocity": 0.3937007874015748
          },
          {
            "duration": 0.1875,
            "durationTicks": 144,
            "midi": 40,
            "name": "E2",
            "ticks": 157248,
            "time": 204.75,
            "velocity": 0.3937007874015748
          },
          {
            "duration": 0.1875,
            "durationTicks": 144,
            "midi": 28,
            "name": "E1",
            "ticks": 157248,
            "time": 204.75,
            "velocity": 0.3937007874015748
          },
          {
            "duration": 0.1875,
            "durationTicks": 144,
            "midi": 40,
            "name": "E2",
            "ticks": 157680,
            "time": 205.3125,
            "velocity": 0.3937007874015748
          },
          {
            "duration": 0.1875,
            "durationTicks": 144,
            "midi": 52,
            "name": "E3",
            "ticks": 157680,
            "time": 205.3125,
            "velocity": 0.3937007874015748
          },
          {
            "duration": 0.1875,
            "durationTicks": 144,
            "midi": 43,
            "name": "G2",
            "ticks": 158400,
            "time": 206.25,
            "velocity": 0.3937007874015748
          },
          {
            "duration": 0.1875,
            "durationTicks": 144,
            "midi": 31,
            "name": "G1",
            "ticks": 158400,
            "time": 206.25,
            "velocity": 0.3937007874015748
          },
          {
            "duration": 0.1875,
            "durationTicks": 144,
            "midi": 31,
            "name": "G1",
            "ticks": 158832,
            "time": 206.8125,
            "velocity": 0.3937007874015748
          },
          {
            "duration": 0.1875,
            "durationTicks": 144,
            "midi": 31,
            "name": "G1",
            "ticks": 158832,
            "time": 206.8125,
            "velocity": 0.3937007874015748
          },
          {
            "duration": 0.1875,
            "durationTicks": 144,
            "midi": 43,
            "name": "G2",
            "ticks": 158832,
            "time": 206.8125,
            "velocity": 0.3937007874015748
          },
          {
            "duration": 0.1875,
            "durationTicks": 144,
            "midi": 43,
            "name": "G2",
            "ticks": 158832,
            "time": 206.8125,
            "velocity": 0.3937007874015748
          },
          {
            "duration": 0.1875,
            "durationTicks": 144,
            "midi": 38,
            "name": "D2",
            "ticks": 159120,
            "time": 207.1875,
            "velocity": 0.3937007874015748
          },
          {
            "duration": 0.1875,
            "durationTicks": 144,
            "midi": 26,
            "name": "D1",
            "ticks": 159120,
            "time": 207.1875,
            "velocity": 0.3937007874015748
          },
          {
            "duration": 0.1875,
            "durationTicks": 144,
            "midi": 35,
            "name": "B1",
            "ticks": 159408,
            "time": 207.5625,
            "velocity": 0.3937007874015748
          },
          {
            "duration": 0.1875,
            "durationTicks": 144,
            "midi": 35,
            "name": "B1",
            "ticks": 159408,
            "time": 207.5625,
            "velocity": 0.3937007874015748
          },
          {
            "duration": 0.1875,
            "durationTicks": 144,
            "midi": 24,
            "name": "C1",
            "ticks": 159552,
            "time": 207.75,
            "velocity": 0.3937007874015748
          },
          {
            "duration": 0.1875,
            "durationTicks": 144,
            "midi": 36,
            "name": "C2",
            "ticks": 159552,
            "time": 207.75,
            "velocity": 0.3937007874015748
          },
          {
            "duration": 0.1875,
            "durationTicks": 144,
            "midi": 36,
            "name": "C2",
            "ticks": 159984,
            "time": 208.3125,
            "velocity": 0.3937007874015748
          },
          {
            "duration": 0.1875,
            "durationTicks": 144,
            "midi": 24,
            "name": "C1",
            "ticks": 159984,
            "time": 208.3125,
            "velocity": 0.3937007874015748
          },
          {
            "duration": 0.1875,
            "durationTicks": 144,
            "midi": 24,
            "name": "C1",
            "ticks": 160272,
            "time": 208.6875,
            "velocity": 0.3937007874015748
          },
          {
            "duration": 0.1875,
            "durationTicks": 144,
            "midi": 36,
            "name": "C2",
            "ticks": 160272,
            "time": 208.6875,
            "velocity": 0.3937007874015748
          },
          {
            "duration": 0.1875,
            "durationTicks": 144,
            "midi": 35,
            "name": "B1",
            "ticks": 160560,
            "time": 209.0625,
            "velocity": 0.3937007874015748
          },
          {
            "duration": 0.1875,
            "durationTicks": 144,
            "midi": 35,
            "name": "B1",
            "ticks": 160560,
            "time": 209.0625,
            "velocity": 0.3937007874015748
          },
          {
            "duration": 0.1875,
            "durationTicks": 144,
            "midi": 24,
            "name": "C1",
            "ticks": 160704,
            "time": 209.25,
            "velocity": 0.3937007874015748
          },
          {
            "duration": 0.1875,
            "durationTicks": 144,
            "midi": 36,
            "name": "C2",
            "ticks": 160704,
            "time": 209.25,
            "velocity": 0.3937007874015748
          },
          {
            "duration": 0.1875,
            "durationTicks": 144,
            "midi": 36,
            "name": "C2",
            "ticks": 161136,
            "time": 209.8125,
            "velocity": 0.3937007874015748
          },
          {
            "duration": 0.1875,
            "durationTicks": 144,
            "midi": 24,
            "name": "C1",
            "ticks": 161136,
            "time": 209.8125,
            "velocity": 0.3937007874015748
          },
          {
            "duration": 0.1875,
            "durationTicks": 144,
            "midi": 36,
            "name": "C2",
            "ticks": 161424,
            "time": 210.1875,
            "velocity": 0.3937007874015748
          },
          {
            "duration": 0.1875,
            "durationTicks": 144,
            "midi": 24,
            "name": "C1",
            "ticks": 161424,
            "time": 210.1875,
            "velocity": 0.3937007874015748
          },
          {
            "duration": 0.1875,
            "durationTicks": 144,
            "midi": 43,
            "name": "G2",
            "ticks": 161856,
            "time": 210.75,
            "velocity": 0.3937007874015748
          },
          {
            "duration": 0.1875,
            "durationTicks": 144,
            "midi": 31,
            "name": "G1",
            "ticks": 161856,
            "time": 210.75,
            "velocity": 0.3937007874015748
          },
          {
            "duration": 0.1875,
            "durationTicks": 144,
            "midi": 26,
            "name": "D1",
            "ticks": 162144,
            "time": 211.125,
            "velocity": 0.3937007874015748
          },
          {
            "duration": 0.1875,
            "durationTicks": 144,
            "midi": 38,
            "name": "D2",
            "ticks": 162144,
            "time": 211.125,
            "velocity": 0.3937007874015748
          },
          {
            "duration": 0.1875,
            "durationTicks": 144,
            "midi": 40,
            "name": "E2",
            "ticks": 162432,
            "time": 211.5,
            "velocity": 0.3937007874015748
          },
          {
            "duration": 0.1875,
            "durationTicks": 144,
            "midi": 28,
            "name": "E1",
            "ticks": 162432,
            "time": 211.5,
            "velocity": 0.3937007874015748
          },
          {
            "duration": 0.1875,
            "durationTicks": 144,
            "midi": 52,
            "name": "E3",
            "ticks": 162864,
            "time": 212.0625,
            "velocity": 0.3937007874015748
          },
          {
            "duration": 0.1875,
            "durationTicks": 144,
            "midi": 40,
            "name": "E2",
            "ticks": 162864,
            "time": 212.0625,
            "velocity": 0.3937007874015748
          },
          {
            "duration": 0.1875,
            "durationTicks": 144,
            "midi": 40,
            "name": "E2",
            "ticks": 163152,
            "time": 212.4375,
            "velocity": 0.3937007874015748
          },
          {
            "duration": 0.1875,
            "durationTicks": 144,
            "midi": 28,
            "name": "E1",
            "ticks": 163152,
            "time": 212.4375,
            "velocity": 0.3937007874015748
          },
          {
            "duration": 0.1875,
            "durationTicks": 144,
            "midi": 31,
            "name": "G1",
            "ticks": 163296,
            "time": 212.625,
            "velocity": 0.3937007874015748
          },
          {
            "duration": 0.1875,
            "durationTicks": 144,
            "midi": 43,
            "name": "G2",
            "ticks": 163296,
            "time": 212.625,
            "velocity": 0.3937007874015748
          },
          {
            "duration": 0.1875,
            "durationTicks": 144,
            "midi": 28,
            "name": "E1",
            "ticks": 163584,
            "time": 213,
            "velocity": 0.3937007874015748
          },
          {
            "duration": 0.1875,
            "durationTicks": 144,
            "midi": 40,
            "name": "E2",
            "ticks": 163584,
            "time": 213,
            "velocity": 0.3937007874015748
          },
          {
            "duration": 0.1875,
            "durationTicks": 144,
            "midi": 52,
            "name": "E3",
            "ticks": 164016,
            "time": 213.5625,
            "velocity": 0.3937007874015748
          },
          {
            "duration": 0.1875,
            "durationTicks": 144,
            "midi": 40,
            "name": "E2",
            "ticks": 164016,
            "time": 213.5625,
            "velocity": 0.3937007874015748
          },
          {
            "duration": 0.1875,
            "durationTicks": 144,
            "midi": 43,
            "name": "G2",
            "ticks": 164736,
            "time": 214.5,
            "velocity": 0.3937007874015748
          },
          {
            "duration": 0.1875,
            "durationTicks": 144,
            "midi": 31,
            "name": "G1",
            "ticks": 164736,
            "time": 214.5,
            "velocity": 0.3937007874015748
          },
          {
            "duration": 0.1875,
            "durationTicks": 144,
            "midi": 31,
            "name": "G1",
            "ticks": 165168,
            "time": 215.0625,
            "velocity": 0.3937007874015748
          },
          {
            "duration": 0.1875,
            "durationTicks": 144,
            "midi": 31,
            "name": "G1",
            "ticks": 165168,
            "time": 215.0625,
            "velocity": 0.3937007874015748
          },
          {
            "duration": 0.1875,
            "durationTicks": 144,
            "midi": 43,
            "name": "G2",
            "ticks": 165168,
            "time": 215.0625,
            "velocity": 0.3937007874015748
          },
          {
            "duration": 0.1875,
            "durationTicks": 144,
            "midi": 43,
            "name": "G2",
            "ticks": 165168,
            "time": 215.0625,
            "velocity": 0.3937007874015748
          },
          {
            "duration": 0.1875,
            "durationTicks": 144,
            "midi": 26,
            "name": "D1",
            "ticks": 165456,
            "time": 215.4375,
            "velocity": 0.3937007874015748
          },
          {
            "duration": 0.1875,
            "durationTicks": 144,
            "midi": 38,
            "name": "D2",
            "ticks": 165456,
            "time": 215.4375,
            "velocity": 0.3937007874015748
          },
          {
            "duration": 0.1875,
            "durationTicks": 144,
            "midi": 35,
            "name": "B1",
            "ticks": 165744,
            "time": 215.8125,
            "velocity": 0.3937007874015748
          },
          {
            "duration": 0.1875,
            "durationTicks": 144,
            "midi": 35,
            "name": "B1",
            "ticks": 165744,
            "time": 215.8125,
            "velocity": 0.3937007874015748
          },
          {
            "duration": 0.1875,
            "durationTicks": 144,
            "midi": 24,
            "name": "C1",
            "ticks": 165888,
            "time": 216,
            "velocity": 0.3937007874015748
          },
          {
            "duration": 0.1875,
            "durationTicks": 144,
            "midi": 36,
            "name": "C2",
            "ticks": 165888,
            "time": 216,
            "velocity": 0.3937007874015748
          },
          {
            "duration": 0.1875,
            "durationTicks": 144,
            "midi": 24,
            "name": "C1",
            "ticks": 166320,
            "time": 216.5625,
            "velocity": 0.3937007874015748
          },
          {
            "duration": 0.1875,
            "durationTicks": 144,
            "midi": 36,
            "name": "C2",
            "ticks": 166320,
            "time": 216.5625,
            "velocity": 0.3937007874015748
          },
          {
            "duration": 0.1875,
            "durationTicks": 144,
            "midi": 24,
            "name": "C1",
            "ticks": 166608,
            "time": 216.9375,
            "velocity": 0.3937007874015748
          },
          {
            "duration": 0.1875,
            "durationTicks": 144,
            "midi": 36,
            "name": "C2",
            "ticks": 166608,
            "time": 216.9375,
            "velocity": 0.3937007874015748
          },
          {
            "duration": 0.1875,
            "durationTicks": 144,
            "midi": 35,
            "name": "B1",
            "ticks": 166896,
            "time": 217.3125,
            "velocity": 0.3937007874015748
          },
          {
            "duration": 0.1875,
            "durationTicks": 144,
            "midi": 35,
            "name": "B1",
            "ticks": 166896,
            "time": 217.3125,
            "velocity": 0.3937007874015748
          },
          {
            "duration": 0.1875,
            "durationTicks": 144,
            "midi": 36,
            "name": "C2",
            "ticks": 167040,
            "time": 217.5,
            "velocity": 0.3937007874015748
          },
          {
            "duration": 0.1875,
            "durationTicks": 144,
            "midi": 24,
            "name": "C1",
            "ticks": 167040,
            "time": 217.5,
            "velocity": 0.3937007874015748
          },
          {
            "duration": 0.1875,
            "durationTicks": 144,
            "midi": 24,
            "name": "C1",
            "ticks": 167472,
            "time": 218.0625,
            "velocity": 0.3937007874015748
          },
          {
            "duration": 0.1875,
            "durationTicks": 144,
            "midi": 36,
            "name": "C2",
            "ticks": 167472,
            "time": 218.0625,
            "velocity": 0.3937007874015748
          },
          {
            "duration": 0.1875,
            "durationTicks": 144,
            "midi": 36,
            "name": "C2",
            "ticks": 167760,
            "time": 218.4375,
            "velocity": 0.3937007874015748
          },
          {
            "duration": 0.1875,
            "durationTicks": 144,
            "midi": 24,
            "name": "C1",
            "ticks": 167760,
            "time": 218.4375,
            "velocity": 0.3937007874015748
          },
          {
            "duration": 0.1875,
            "durationTicks": 144,
            "midi": 31,
            "name": "G1",
            "ticks": 168192,
            "time": 219,
            "velocity": 0.3937007874015748
          },
          {
            "duration": 0.1875,
            "durationTicks": 144,
            "midi": 43,
            "name": "G2",
            "ticks": 168192,
            "time": 219,
            "velocity": 0.3937007874015748
          },
          {
            "duration": 0.1875,
            "durationTicks": 144,
            "midi": 38,
            "name": "D2",
            "ticks": 168480,
            "time": 219.375,
            "velocity": 0.3937007874015748
          },
          {
            "duration": 0.1875,
            "durationTicks": 144,
            "midi": 26,
            "name": "D1",
            "ticks": 168480,
            "time": 219.375,
            "velocity": 0.3937007874015748
          },
          {
            "duration": 0.1875,
            "durationTicks": 144,
            "midi": 40,
            "name": "E2",
            "ticks": 168768,
            "time": 219.75,
            "velocity": 0.3937007874015748
          },
          {
            "duration": 0.1875,
            "durationTicks": 144,
            "midi": 28,
            "name": "E1",
            "ticks": 168768,
            "time": 219.75,
            "velocity": 0.3937007874015748
          },
          {
            "duration": 0.1875,
            "durationTicks": 144,
            "midi": 40,
            "name": "E2",
            "ticks": 169200,
            "time": 220.3125,
            "velocity": 0.3937007874015748
          },
          {
            "duration": 0.1875,
            "durationTicks": 144,
            "midi": 52,
            "name": "E3",
            "ticks": 169200,
            "time": 220.3125,
            "velocity": 0.3937007874015748
          },
          {
            "duration": 0.1875,
            "durationTicks": 144,
            "midi": 28,
            "name": "E1",
            "ticks": 169488,
            "time": 220.6875,
            "velocity": 0.3937007874015748
          },
          {
            "duration": 0.1875,
            "durationTicks": 144,
            "midi": 40,
            "name": "E2",
            "ticks": 169488,
            "time": 220.6875,
            "velocity": 0.3937007874015748
          },
          {
            "duration": 0.1875,
            "durationTicks": 144,
            "midi": 31,
            "name": "G1",
            "ticks": 169632,
            "time": 220.875,
            "velocity": 0.3937007874015748
          },
          {
            "duration": 0.1875,
            "durationTicks": 144,
            "midi": 43,
            "name": "G2",
            "ticks": 169632,
            "time": 220.875,
            "velocity": 0.3937007874015748
          },
          {
            "duration": 0.1875,
            "durationTicks": 144,
            "midi": 28,
            "name": "E1",
            "ticks": 169920,
            "time": 221.25,
            "velocity": 0.3937007874015748
          },
          {
            "duration": 0.1875,
            "durationTicks": 144,
            "midi": 40,
            "name": "E2",
            "ticks": 169920,
            "time": 221.25,
            "velocity": 0.3937007874015748
          },
          {
            "duration": 0.1875,
            "durationTicks": 144,
            "midi": 40,
            "name": "E2",
            "ticks": 170352,
            "time": 221.8125,
            "velocity": 0.3937007874015748
          },
          {
            "duration": 0.1875,
            "durationTicks": 144,
            "midi": 52,
            "name": "E3",
            "ticks": 170352,
            "time": 221.8125,
            "velocity": 0.3937007874015748
          },
          {
            "duration": 0.1875,
            "durationTicks": 144,
            "midi": 43,
            "name": "G2",
            "ticks": 171072,
            "time": 222.75,
            "velocity": 0.3937007874015748
          },
          {
            "duration": 0.1875,
            "durationTicks": 144,
            "midi": 31,
            "name": "G1",
            "ticks": 171072,
            "time": 222.75,
            "velocity": 0.3937007874015748
          },
          {
            "duration": 0.1875,
            "durationTicks": 144,
            "midi": 31,
            "name": "G1",
            "ticks": 171504,
            "time": 223.3125,
            "velocity": 0.3937007874015748
          },
          {
            "duration": 0.1875,
            "durationTicks": 144,
            "midi": 43,
            "name": "G2",
            "ticks": 171504,
            "time": 223.3125,
            "velocity": 0.3937007874015748
          },
          {
            "duration": 0.1875,
            "durationTicks": 144,
            "midi": 43,
            "name": "G2",
            "ticks": 171504,
            "time": 223.3125,
            "velocity": 0.3937007874015748
          },
          {
            "duration": 0.1875,
            "durationTicks": 144,
            "midi": 31,
            "name": "G1",
            "ticks": 171504,
            "time": 223.3125,
            "velocity": 0.3937007874015748
          },
          {
            "duration": 0.1875,
            "durationTicks": 144,
            "midi": 26,
            "name": "D1",
            "ticks": 171792,
            "time": 223.6875,
            "velocity": 0.3937007874015748
          },
          {
            "duration": 0.1875,
            "durationTicks": 144,
            "midi": 38,
            "name": "D2",
            "ticks": 171792,
            "time": 223.6875,
            "velocity": 0.3937007874015748
          },
          {
            "duration": 0.1875,
            "durationTicks": 144,
            "midi": 35,
            "name": "B1",
            "ticks": 172080,
            "time": 224.0625,
            "velocity": 0.3937007874015748
          },
          {
            "duration": 0.1875,
            "durationTicks": 144,
            "midi": 35,
            "name": "B1",
            "ticks": 172080,
            "time": 224.0625,
            "velocity": 0.3937007874015748
          },
          {
            "duration": 0.1875,
            "durationTicks": 144,
            "midi": 24,
            "name": "C1",
            "ticks": 172224,
            "time": 224.25,
            "velocity": 0.3937007874015748
          },
          {
            "duration": 0.1875,
            "durationTicks": 144,
            "midi": 36,
            "name": "C2",
            "ticks": 172224,
            "time": 224.25,
            "velocity": 0.3937007874015748
          },
          {
            "duration": 0.1875,
            "durationTicks": 144,
            "midi": 36,
            "name": "C2",
            "ticks": 172656,
            "time": 224.8125,
            "velocity": 0.3937007874015748
          },
          {
            "duration": 0.1875,
            "durationTicks": 144,
            "midi": 24,
            "name": "C1",
            "ticks": 172656,
            "time": 224.8125,
            "velocity": 0.3937007874015748
          },
          {
            "duration": 0.1875,
            "durationTicks": 144,
            "midi": 24,
            "name": "C1",
            "ticks": 172944,
            "time": 225.1875,
            "velocity": 0.3937007874015748
          },
          {
            "duration": 0.1875,
            "durationTicks": 144,
            "midi": 36,
            "name": "C2",
            "ticks": 172944,
            "time": 225.1875,
            "velocity": 0.3937007874015748
          },
          {
            "duration": 0.1875,
            "durationTicks": 144,
            "midi": 35,
            "name": "B1",
            "ticks": 173232,
            "time": 225.5625,
            "velocity": 0.3937007874015748
          },
          {
            "duration": 0.1875,
            "durationTicks": 144,
            "midi": 35,
            "name": "B1",
            "ticks": 173232,
            "time": 225.5625,
            "velocity": 0.3937007874015748
          },
          {
            "duration": 0.1875,
            "durationTicks": 144,
            "midi": 36,
            "name": "C2",
            "ticks": 173376,
            "time": 225.75,
            "velocity": 0.3937007874015748
          },
          {
            "duration": 0.1875,
            "durationTicks": 144,
            "midi": 24,
            "name": "C1",
            "ticks": 173376,
            "time": 225.75,
            "velocity": 0.3937007874015748
          },
          {
            "duration": 0.1875,
            "durationTicks": 144,
            "midi": 36,
            "name": "C2",
            "ticks": 173808,
            "time": 226.3125,
            "velocity": 0.3937007874015748
          },
          {
            "duration": 0.1875,
            "durationTicks": 144,
            "midi": 24,
            "name": "C1",
            "ticks": 173808,
            "time": 226.3125,
            "velocity": 0.3937007874015748
          },
          {
            "duration": 0.1875,
            "durationTicks": 144,
            "midi": 36,
            "name": "C2",
            "ticks": 174096,
            "time": 226.6875,
            "velocity": 0.3937007874015748
          },
          {
            "duration": 0.1875,
            "durationTicks": 144,
            "midi": 24,
            "name": "C1",
            "ticks": 174096,
            "time": 226.6875,
            "velocity": 0.3937007874015748
          },
          {
            "duration": 0.1875,
            "durationTicks": 144,
            "midi": 31,
            "name": "G1",
            "ticks": 174528,
            "time": 227.25,
            "velocity": 0.3937007874015748
          },
          {
            "duration": 0.1875,
            "durationTicks": 144,
            "midi": 43,
            "name": "G2",
            "ticks": 174528,
            "time": 227.25,
            "velocity": 0.3937007874015748
          },
          {
            "duration": 0.1875,
            "durationTicks": 144,
            "midi": 26,
            "name": "D1",
            "ticks": 174816,
            "time": 227.625,
            "velocity": 0.3937007874015748
          },
          {
            "duration": 0.1875,
            "durationTicks": 144,
            "midi": 38,
            "name": "D2",
            "ticks": 174816,
            "time": 227.625,
            "velocity": 0.3937007874015748
          },
          {
            "duration": 0.1875,
            "durationTicks": 144,
            "midi": 40,
            "name": "E2",
            "ticks": 175104,
            "time": 228,
            "velocity": 0.3937007874015748
          },
          {
            "duration": 0.1875,
            "durationTicks": 144,
            "midi": 28,
            "name": "E1",
            "ticks": 175104,
            "time": 228,
            "velocity": 0.3937007874015748
          },
          {
            "duration": 0.1875,
            "durationTicks": 144,
            "midi": 52,
            "name": "E3",
            "ticks": 175536,
            "time": 228.5625,
            "velocity": 0.3937007874015748
          },
          {
            "duration": 0.1875,
            "durationTicks": 144,
            "midi": 40,
            "name": "E2",
            "ticks": 175536,
            "time": 228.5625,
            "velocity": 0.3937007874015748
          },
          {
            "duration": 0.1875,
            "durationTicks": 144,
            "midi": 40,
            "name": "E2",
            "ticks": 175824,
            "time": 228.9375,
            "velocity": 0.3937007874015748
          },
          {
            "duration": 0.1875,
            "durationTicks": 144,
            "midi": 28,
            "name": "E1",
            "ticks": 175824,
            "time": 228.9375,
            "velocity": 0.3937007874015748
          },
          {
            "duration": 0.1875,
            "durationTicks": 144,
            "midi": 43,
            "name": "G2",
            "ticks": 175968,
            "time": 229.125,
            "velocity": 0.3937007874015748
          },
          {
            "duration": 0.1875,
            "durationTicks": 144,
            "midi": 31,
            "name": "G1",
            "ticks": 175968,
            "time": 229.125,
            "velocity": 0.3937007874015748
          },
          {
            "duration": 0.1875,
            "durationTicks": 144,
            "midi": 28,
            "name": "E1",
            "ticks": 176256,
            "time": 229.5,
            "velocity": 0.3937007874015748
          },
          {
            "duration": 0.1875,
            "durationTicks": 144,
            "midi": 40,
            "name": "E2",
            "ticks": 176256,
            "time": 229.5,
            "velocity": 0.3937007874015748
          },
          {
            "duration": 0.1875,
            "durationTicks": 144,
            "midi": 40,
            "name": "E2",
            "ticks": 176688,
            "time": 230.0625,
            "velocity": 0.3937007874015748
          },
          {
            "duration": 0.1875,
            "durationTicks": 144,
            "midi": 52,
            "name": "E3",
            "ticks": 176688,
            "time": 230.0625,
            "velocity": 0.3937007874015748
          }
        ],
        "endOfTrackTicks": 176832
      },
      {
        "channel": 2,
        "controlChanges": {},
        "pitchBends": [],
        "instrument": {
          "family": "bass",
          "number": 32,
          "name": "acoustic bass"
        },
        "name": "Bass (Classic)",
        "notes": [
          {
            "duration": 0.0625,
            "durationTicks": 48,
            "midi": 31,
            "name": "G1",
            "ticks": 0,
            "time": 0,
            "velocity": 0.3937007874015748
          },
          {
            "duration": 0.0625,
            "durationTicks": 48,
            "midi": 31,
            "name": "G1",
            "ticks": 0,
            "time": 0,
            "velocity": 0.3937007874015748
          },
          {
            "duration": 0.0625,
            "durationTicks": 48,
            "midi": 31,
            "name": "G1",
            "ticks": 288,
            "time": 0.375,
            "velocity": 0.3937007874015748
          },
          {
            "duration": 0.0625,
            "durationTicks": 48,
            "midi": 31,
            "name": "G1",
            "ticks": 288,
            "time": 0.375,
            "velocity": 0.3937007874015748
          },
          {
            "duration": 0.0625,
            "durationTicks": 48,
            "midi": 31,
            "name": "G1",
            "ticks": 432,
            "time": 0.5625,
            "velocity": 0.3937007874015748
          },
          {
            "duration": 0.0625,
            "durationTicks": 48,
            "midi": 31,
            "name": "G1",
            "ticks": 432,
            "time": 0.5625,
            "velocity": 0.3937007874015748
          },
          {
            "duration": 0.0625,
            "durationTicks": 48,
            "midi": 31,
            "name": "G1",
            "ticks": 720,
            "time": 0.9375,
            "velocity": 0.3937007874015748
          },
          {
            "duration": 0.0625,
            "durationTicks": 48,
            "midi": 31,
            "name": "G1",
            "ticks": 720,
            "time": 0.9375,
            "velocity": 0.3937007874015748
          },
          {
            "duration": 0.0625,
            "durationTicks": 48,
            "midi": 31,
            "name": "G1",
            "ticks": 864,
            "time": 1.125,
            "velocity": 0.3937007874015748
          },
          {
            "duration": 0.0625,
            "durationTicks": 48,
            "midi": 31,
            "name": "G1",
            "ticks": 864,
            "time": 1.125,
            "velocity": 0.3937007874015748
          },
          {
            "duration": 0.0625,
            "durationTicks": 48,
            "midi": 31,
            "name": "G1",
            "ticks": 1008,
            "time": 1.3125,
            "velocity": 0.3937007874015748
          },
          {
            "duration": 0.0625,
            "durationTicks": 48,
            "midi": 31,
            "name": "G1",
            "ticks": 1008,
            "time": 1.3125,
            "velocity": 0.3937007874015748
          },
          {
            "duration": 0.0625,
            "durationTicks": 48,
            "midi": 36,
            "name": "C2",
            "ticks": 1152,
            "time": 1.5,
            "velocity": 0.3937007874015748
          },
          {
            "duration": 0.0625,
            "durationTicks": 48,
            "midi": 24,
            "name": "C1",
            "ticks": 1152,
            "time": 1.5,
            "velocity": 0.3937007874015748
          },
          {
            "duration": 0.0625,
            "durationTicks": 48,
            "midi": 36,
            "name": "C2",
            "ticks": 1440,
            "time": 1.875,
            "velocity": 0.3937007874015748
          },
          {
            "duration": 0.0625,
            "durationTicks": 48,
            "midi": 24,
            "name": "C1",
            "ticks": 1440,
            "time": 1.875,
            "velocity": 0.3937007874015748
          },
          {
            "duration": 0.0625,
            "durationTicks": 48,
            "midi": 24,
            "name": "C1",
            "ticks": 1584,
            "time": 2.0625,
            "velocity": 0.3937007874015748
          },
          {
            "duration": 0.0625,
            "durationTicks": 48,
            "midi": 36,
            "name": "C2",
            "ticks": 1584,
            "time": 2.0625,
            "velocity": 0.3937007874015748
          },
          {
            "duration": 0.0625,
            "durationTicks": 48,
            "midi": 24,
            "name": "C1",
            "ticks": 1872,
            "time": 2.4375,
            "velocity": 0.3937007874015748
          },
          {
            "duration": 0.0625,
            "durationTicks": 48,
            "midi": 36,
            "name": "C2",
            "ticks": 1872,
            "time": 2.4375,
            "velocity": 0.3937007874015748
          },
          {
            "duration": 0.0625,
            "durationTicks": 48,
            "midi": 24,
            "name": "C1",
            "ticks": 2016,
            "time": 2.625,
            "velocity": 0.3937007874015748
          },
          {
            "duration": 0.0625,
            "durationTicks": 48,
            "midi": 36,
            "name": "C2",
            "ticks": 2016,
            "time": 2.625,
            "velocity": 0.3937007874015748
          },
          {
            "duration": 0.0625,
            "durationTicks": 48,
            "midi": 24,
            "name": "C1",
            "ticks": 2160,
            "time": 2.8125,
            "velocity": 0.3937007874015748
          },
          {
            "duration": 0.0625,
            "durationTicks": 48,
            "midi": 36,
            "name": "C2",
            "ticks": 2160,
            "time": 2.8125,
            "velocity": 0.3937007874015748
          },
          {
            "duration": 0.0625,
            "durationTicks": 48,
            "midi": 36,
            "name": "C2",
            "ticks": 2304,
            "time": 3,
            "velocity": 0.3937007874015748
          },
          {
            "duration": 0.0625,
            "durationTicks": 48,
            "midi": 24,
            "name": "C1",
            "ticks": 2304,
            "time": 3,
            "velocity": 0.3937007874015748
          },
          {
            "duration": 0.0625,
            "durationTicks": 48,
            "midi": 24,
            "name": "C1",
            "ticks": 2592,
            "time": 3.375,
            "velocity": 0.3937007874015748
          },
          {
            "duration": 0.0625,
            "durationTicks": 48,
            "midi": 36,
            "name": "C2",
            "ticks": 2592,
            "time": 3.375,
            "velocity": 0.3937007874015748
          },
          {
            "duration": 0.0625,
            "durationTicks": 48,
            "midi": 36,
            "name": "C2",
            "ticks": 2736,
            "time": 3.5625,
            "velocity": 0.3937007874015748
          },
          {
            "duration": 0.0625,
            "durationTicks": 48,
            "midi": 24,
            "name": "C1",
            "ticks": 2736,
            "time": 3.5625,
            "velocity": 0.3937007874015748
          },
          {
            "duration": 0.0625,
            "durationTicks": 48,
            "midi": 24,
            "name": "C1",
            "ticks": 3024,
            "time": 3.9375,
            "velocity": 0.3937007874015748
          },
          {
            "duration": 0.0625,
            "durationTicks": 48,
            "midi": 36,
            "name": "C2",
            "ticks": 3024,
            "time": 3.9375,
            "velocity": 0.3937007874015748
          },
          {
            "duration": 0.0625,
            "durationTicks": 48,
            "midi": 24,
            "name": "C1",
            "ticks": 3168,
            "time": 4.125,
            "velocity": 0.3937007874015748
          },
          {
            "duration": 0.0625,
            "durationTicks": 48,
            "midi": 36,
            "name": "C2",
            "ticks": 3168,
            "time": 4.125,
            "velocity": 0.3937007874015748
          },
          {
            "duration": 0.0625,
            "durationTicks": 48,
            "midi": 36,
            "name": "C2",
            "ticks": 3312,
            "time": 4.3125,
            "velocity": 0.3937007874015748
          },
          {
            "duration": 0.0625,
            "durationTicks": 48,
            "midi": 24,
            "name": "C1",
            "ticks": 3312,
            "time": 4.3125,
            "velocity": 0.3937007874015748
          },
          {
            "duration": 0.0625,
            "durationTicks": 48,
            "midi": 26,
            "name": "D1",
            "ticks": 3456,
            "time": 4.5,
            "velocity": 0.3937007874015748
          },
          {
            "duration": 0.0625,
            "durationTicks": 48,
            "midi": 38,
            "name": "D2",
            "ticks": 3456,
            "time": 4.5,
            "velocity": 0.3937007874015748
          },
          {
            "duration": 0.0625,
            "durationTicks": 48,
            "midi": 45,
            "name": "A2",
            "ticks": 3744,
            "time": 4.875,
            "velocity": 0.3937007874015748
          },
          {
            "duration": 0.0625,
            "durationTicks": 48,
            "midi": 33,
            "name": "A1",
            "ticks": 3744,
            "time": 4.875,
            "velocity": 0.3937007874015748
          },
          {
            "duration": 0.0625,
            "durationTicks": 48,
            "midi": 38,
            "name": "D2",
            "ticks": 3888,
            "time": 5.0625,
            "velocity": 0.3937007874015748
          },
          {
            "duration": 0.0625,
            "durationTicks": 48,
            "midi": 26,
            "name": "D1",
            "ticks": 3888,
            "time": 5.0625,
            "velocity": 0.3937007874015748
          },
          {
            "duration": 0.0625,
            "durationTicks": 48,
            "midi": 40,
            "name": "E2",
            "ticks": 4032,
            "time": 5.25,
            "velocity": 0.3937007874015748
          },
          {
            "duration": 0.0625,
            "durationTicks": 48,
            "midi": 28,
            "name": "E1",
            "ticks": 4032,
            "time": 5.25,
            "velocity": 0.3937007874015748
          },
          {
            "duration": 0.0625,
            "durationTicks": 48,
            "midi": 40,
            "name": "E2",
            "ticks": 4320,
            "time": 5.625,
            "velocity": 0.3937007874015748
          },
          {
            "duration": 0.0625,
            "durationTicks": 48,
            "midi": 28,
            "name": "E1",
            "ticks": 4320,
            "time": 5.625,
            "velocity": 0.3937007874015748
          },
          {
            "duration": 0.0625,
            "durationTicks": 48,
            "midi": 28,
            "name": "E1",
            "ticks": 4464,
            "time": 5.8125,
            "velocity": 0.3937007874015748
          },
          {
            "duration": 0.0625,
            "durationTicks": 48,
            "midi": 40,
            "name": "E2",
            "ticks": 4464,
            "time": 5.8125,
            "velocity": 0.3937007874015748
          },
          {
            "duration": 0.0625,
            "durationTicks": 48,
            "midi": 40,
            "name": "E2",
            "ticks": 4752,
            "time": 6.1875,
            "velocity": 0.3937007874015748
          },
          {
            "duration": 0.0625,
            "durationTicks": 48,
            "midi": 28,
            "name": "E1",
            "ticks": 4752,
            "time": 6.1875,
            "velocity": 0.3937007874015748
          },
          {
            "duration": 0.0625,
            "durationTicks": 48,
            "midi": 28,
            "name": "E1",
            "ticks": 4896,
            "time": 6.375,
            "velocity": 0.3937007874015748
          },
          {
            "duration": 0.0625,
            "durationTicks": 48,
            "midi": 40,
            "name": "E2",
            "ticks": 4896,
            "time": 6.375,
            "velocity": 0.3937007874015748
          },
          {
            "duration": 0.0625,
            "durationTicks": 48,
            "midi": 40,
            "name": "E2",
            "ticks": 5040,
            "time": 6.5625,
            "velocity": 0.3937007874015748
          },
          {
            "duration": 0.0625,
            "durationTicks": 48,
            "midi": 28,
            "name": "E1",
            "ticks": 5040,
            "time": 6.5625,
            "velocity": 0.3937007874015748
          },
          {
            "duration": 0.0625,
            "durationTicks": 48,
            "midi": 31,
            "name": "G1",
            "ticks": 6336,
            "time": 8.25,
            "velocity": 0.3937007874015748
          },
          {
            "duration": 0.0625,
            "durationTicks": 48,
            "midi": 31,
            "name": "G1",
            "ticks": 6336,
            "time": 8.25,
            "velocity": 0.3937007874015748
          },
          {
            "duration": 0.0625,
            "durationTicks": 48,
            "midi": 31,
            "name": "G1",
            "ticks": 6624,
            "time": 8.625,
            "velocity": 0.3937007874015748
          },
          {
            "duration": 0.0625,
            "durationTicks": 48,
            "midi": 31,
            "name": "G1",
            "ticks": 6624,
            "time": 8.625,
            "velocity": 0.3937007874015748
          },
          {
            "duration": 0.0625,
            "durationTicks": 48,
            "midi": 31,
            "name": "G1",
            "ticks": 6768,
            "time": 8.8125,
            "velocity": 0.3937007874015748
          },
          {
            "duration": 0.0625,
            "durationTicks": 48,
            "midi": 31,
            "name": "G1",
            "ticks": 6768,
            "time": 8.8125,
            "velocity": 0.3937007874015748
          },
          {
            "duration": 0.0625,
            "durationTicks": 48,
            "midi": 31,
            "name": "G1",
            "ticks": 7056,
            "time": 9.1875,
            "velocity": 0.3937007874015748
          },
          {
            "duration": 0.0625,
            "durationTicks": 48,
            "midi": 31,
            "name": "G1",
            "ticks": 7056,
            "time": 9.1875,
            "velocity": 0.3937007874015748
          },
          {
            "duration": 0.0625,
            "durationTicks": 48,
            "midi": 31,
            "name": "G1",
            "ticks": 7200,
            "time": 9.375,
            "velocity": 0.3937007874015748
          },
          {
            "duration": 0.0625,
            "durationTicks": 48,
            "midi": 31,
            "name": "G1",
            "ticks": 7200,
            "time": 9.375,
            "velocity": 0.3937007874015748
          },
          {
            "duration": 0.0625,
            "durationTicks": 48,
            "midi": 31,
            "name": "G1",
            "ticks": 7344,
            "time": 9.5625,
            "velocity": 0.3937007874015748
          },
          {
            "duration": 0.0625,
            "durationTicks": 48,
            "midi": 31,
            "name": "G1",
            "ticks": 7344,
            "time": 9.5625,
            "velocity": 0.3937007874015748
          },
          {
            "duration": 0.0625,
            "durationTicks": 48,
            "midi": 36,
            "name": "C2",
            "ticks": 7488,
            "time": 9.75,
            "velocity": 0.3937007874015748
          },
          {
            "duration": 0.0625,
            "durationTicks": 48,
            "midi": 24,
            "name": "C1",
            "ticks": 7488,
            "time": 9.75,
            "velocity": 0.3937007874015748
          },
          {
            "duration": 0.0625,
            "durationTicks": 48,
            "midi": 24,
            "name": "C1",
            "ticks": 7776,
            "time": 10.125,
            "velocity": 0.3937007874015748
          },
          {
            "duration": 0.0625,
            "durationTicks": 48,
            "midi": 36,
            "name": "C2",
            "ticks": 7776,
            "time": 10.125,
            "velocity": 0.3937007874015748
          },
          {
            "duration": 0.0625,
            "durationTicks": 48,
            "midi": 36,
            "name": "C2",
            "ticks": 7920,
            "time": 10.3125,
            "velocity": 0.3937007874015748
          },
          {
            "duration": 0.0625,
            "durationTicks": 48,
            "midi": 24,
            "name": "C1",
            "ticks": 7920,
            "time": 10.3125,
            "velocity": 0.3937007874015748
          },
          {
            "duration": 0.0625,
            "durationTicks": 48,
            "midi": 24,
            "name": "C1",
            "ticks": 8208,
            "time": 10.6875,
            "velocity": 0.3937007874015748
          },
          {
            "duration": 0.0625,
            "durationTicks": 48,
            "midi": 36,
            "name": "C2",
            "ticks": 8208,
            "time": 10.6875,
            "velocity": 0.3937007874015748
          },
          {
            "duration": 0.0625,
            "durationTicks": 48,
            "midi": 36,
            "name": "C2",
            "ticks": 8352,
            "time": 10.875,
            "velocity": 0.3937007874015748
          },
          {
            "duration": 0.0625,
            "durationTicks": 48,
            "midi": 24,
            "name": "C1",
            "ticks": 8352,
            "time": 10.875,
            "velocity": 0.3937007874015748
          },
          {
            "duration": 0.0625,
            "durationTicks": 48,
            "midi": 36,
            "name": "C2",
            "ticks": 8496,
            "time": 11.0625,
            "velocity": 0.3937007874015748
          },
          {
            "duration": 0.0625,
            "durationTicks": 48,
            "midi": 24,
            "name": "C1",
            "ticks": 8496,
            "time": 11.0625,
            "velocity": 0.3937007874015748
          },
          {
            "duration": 0.0625,
            "durationTicks": 48,
            "midi": 36,
            "name": "C2",
            "ticks": 8640,
            "time": 11.25,
            "velocity": 0.3937007874015748
          },
          {
            "duration": 0.0625,
            "durationTicks": 48,
            "midi": 24,
            "name": "C1",
            "ticks": 8640,
            "time": 11.25,
            "velocity": 0.3937007874015748
          },
          {
            "duration": 0.0625,
            "durationTicks": 48,
            "midi": 24,
            "name": "C1",
            "ticks": 8928,
            "time": 11.625,
            "velocity": 0.3937007874015748
          },
          {
            "duration": 0.0625,
            "durationTicks": 48,
            "midi": 36,
            "name": "C2",
            "ticks": 8928,
            "time": 11.625,
            "velocity": 0.3937007874015748
          },
          {
            "duration": 0.0625,
            "durationTicks": 48,
            "midi": 24,
            "name": "C1",
            "ticks": 9072,
            "time": 11.8125,
            "velocity": 0.3937007874015748
          },
          {
            "duration": 0.0625,
            "durationTicks": 48,
            "midi": 36,
            "name": "C2",
            "ticks": 9072,
            "time": 11.8125,
            "velocity": 0.3937007874015748
          },
          {
            "duration": 0.0625,
            "durationTicks": 48,
            "midi": 36,
            "name": "C2",
            "ticks": 9360,
            "time": 12.1875,
            "velocity": 0.3937007874015748
          },
          {
            "duration": 0.0625,
            "durationTicks": 48,
            "midi": 24,
            "name": "C1",
            "ticks": 9360,
            "time": 12.1875,
            "velocity": 0.3937007874015748
          },
          {
            "duration": 0.0625,
            "durationTicks": 48,
            "midi": 24,
            "name": "C1",
            "ticks": 9504,
            "time": 12.375,
            "velocity": 0.3937007874015748
          },
          {
            "duration": 0.0625,
            "durationTicks": 48,
            "midi": 36,
            "name": "C2",
            "ticks": 9504,
            "time": 12.375,
            "velocity": 0.3937007874015748
          },
          {
            "duration": 0.0625,
            "durationTicks": 48,
            "midi": 36,
            "name": "C2",
            "ticks": 9648,
            "time": 12.5625,
            "velocity": 0.3937007874015748
          },
          {
            "duration": 0.0625,
            "durationTicks": 48,
            "midi": 24,
            "name": "C1",
            "ticks": 9648,
            "time": 12.5625,
            "velocity": 0.3937007874015748
          },
          {
            "duration": 0.0625,
            "durationTicks": 48,
            "midi": 38,
            "name": "D2",
            "ticks": 9792,
            "time": 12.75,
            "velocity": 0.3937007874015748
          },
          {
            "duration": 0.0625,
            "durationTicks": 48,
            "midi": 26,
            "name": "D1",
            "ticks": 9792,
            "time": 12.75,
            "velocity": 0.3937007874015748
          },
          {
            "duration": 0.0625,
            "durationTicks": 48,
            "midi": 33,
            "name": "A1",
            "ticks": 10080,
            "time": 13.125,
            "velocity": 0.3937007874015748
          },
          {
            "duration": 0.0625,
            "durationTicks": 48,
            "midi": 45,
            "name": "A2",
            "ticks": 10080,
            "time": 13.125,
            "velocity": 0.3937007874015748
          },
          {
            "duration": 0.0625,
            "durationTicks": 48,
            "midi": 26,
            "name": "D1",
            "ticks": 10224,
            "time": 13.3125,
            "velocity": 0.3937007874015748
          },
          {
            "duration": 0.0625,
            "durationTicks": 48,
            "midi": 38,
            "name": "D2",
            "ticks": 10224,
            "time": 13.3125,
            "velocity": 0.3937007874015748
          },
          {
            "duration": 0.0625,
            "durationTicks": 48,
            "midi": 40,
            "name": "E2",
            "ticks": 10368,
            "time": 13.5,
            "velocity": 0.3937007874015748
          },
          {
            "duration": 0.0625,
            "durationTicks": 48,
            "midi": 28,
            "name": "E1",
            "ticks": 10368,
            "time": 13.5,
            "velocity": 0.3937007874015748
          },
          {
            "duration": 0.0625,
            "durationTicks": 48,
            "midi": 28,
            "name": "E1",
            "ticks": 10656,
            "time": 13.875,
            "velocity": 0.3937007874015748
          },
          {
            "duration": 0.0625,
            "durationTicks": 48,
            "midi": 40,
            "name": "E2",
            "ticks": 10656,
            "time": 13.875,
            "velocity": 0.3937007874015748
          },
          {
            "duration": 0.0625,
            "durationTicks": 48,
            "midi": 28,
            "name": "E1",
            "ticks": 10800,
            "time": 14.0625,
            "velocity": 0.3937007874015748
          },
          {
            "duration": 0.0625,
            "durationTicks": 48,
            "midi": 40,
            "name": "E2",
            "ticks": 10800,
            "time": 14.0625,
            "velocity": 0.3937007874015748
          },
          {
            "duration": 0.0625,
            "durationTicks": 48,
            "midi": 28,
            "name": "E1",
            "ticks": 11088,
            "time": 14.4375,
            "velocity": 0.3937007874015748
          },
          {
            "duration": 0.0625,
            "durationTicks": 48,
            "midi": 40,
            "name": "E2",
            "ticks": 11088,
            "time": 14.4375,
            "velocity": 0.3937007874015748
          },
          {
            "duration": 0.0625,
            "durationTicks": 48,
            "midi": 40,
            "name": "E2",
            "ticks": 11232,
            "time": 14.625,
            "velocity": 0.3937007874015748
          },
          {
            "duration": 0.0625,
            "durationTicks": 48,
            "midi": 28,
            "name": "E1",
            "ticks": 11232,
            "time": 14.625,
            "velocity": 0.3937007874015748
          },
          {
            "duration": 0.0625,
            "durationTicks": 48,
            "midi": 28,
            "name": "E1",
            "ticks": 11376,
            "time": 14.8125,
            "velocity": 0.3937007874015748
          },
          {
            "duration": 0.0625,
            "durationTicks": 48,
            "midi": 40,
            "name": "E2",
            "ticks": 11376,
            "time": 14.8125,
            "velocity": 0.3937007874015748
          },
          {
            "duration": 0.0625,
            "durationTicks": 48,
            "midi": 31,
            "name": "G1",
            "ticks": 12672,
            "time": 16.5,
            "velocity": 0.3937007874015748
          },
          {
            "duration": 0.0625,
            "durationTicks": 48,
            "midi": 31,
            "name": "G1",
            "ticks": 12672,
            "time": 16.5,
            "velocity": 0.3937007874015748
          },
          {
            "duration": 0.0625,
            "durationTicks": 48,
            "midi": 31,
            "name": "G1",
            "ticks": 12960,
            "time": 16.875,
            "velocity": 0.3937007874015748
          },
          {
            "duration": 0.0625,
            "durationTicks": 48,
            "midi": 31,
            "name": "G1",
            "ticks": 12960,
            "time": 16.875,
            "velocity": 0.3937007874015748
          },
          {
            "duration": 0.0625,
            "durationTicks": 48,
            "midi": 31,
            "name": "G1",
            "ticks": 13104,
            "time": 17.0625,
            "velocity": 0.3937007874015748
          },
          {
            "duration": 0.0625,
            "durationTicks": 48,
            "midi": 31,
            "name": "G1",
            "ticks": 13104,
            "time": 17.0625,
            "velocity": 0.3937007874015748
          },
          {
            "duration": 0.0625,
            "durationTicks": 48,
            "midi": 31,
            "name": "G1",
            "ticks": 13392,
            "time": 17.4375,
            "velocity": 0.3937007874015748
          },
          {
            "duration": 0.0625,
            "durationTicks": 48,
            "midi": 31,
            "name": "G1",
            "ticks": 13392,
            "time": 17.4375,
            "velocity": 0.3937007874015748
          },
          {
            "duration": 0.0625,
            "durationTicks": 48,
            "midi": 31,
            "name": "G1",
            "ticks": 13536,
            "time": 17.625,
            "velocity": 0.3937007874015748
          },
          {
            "duration": 0.0625,
            "durationTicks": 48,
            "midi": 31,
            "name": "G1",
            "ticks": 13536,
            "time": 17.625,
            "velocity": 0.3937007874015748
          },
          {
            "duration": 0.0625,
            "durationTicks": 48,
            "midi": 31,
            "name": "G1",
            "ticks": 13680,
            "time": 17.8125,
            "velocity": 0.3937007874015748
          },
          {
            "duration": 0.0625,
            "durationTicks": 48,
            "midi": 31,
            "name": "G1",
            "ticks": 13680,
            "time": 17.8125,
            "velocity": 0.3937007874015748
          },
          {
            "duration": 0.0625,
            "durationTicks": 48,
            "midi": 36,
            "name": "C2",
            "ticks": 13824,
            "time": 18,
            "velocity": 0.3937007874015748
          },
          {
            "duration": 0.0625,
            "durationTicks": 48,
            "midi": 24,
            "name": "C1",
            "ticks": 13824,
            "time": 18,
            "velocity": 0.3937007874015748
          },
          {
            "duration": 0.0625,
            "durationTicks": 48,
            "midi": 24,
            "name": "C1",
            "ticks": 14112,
            "time": 18.375,
            "velocity": 0.3937007874015748
          },
          {
            "duration": 0.0625,
            "durationTicks": 48,
            "midi": 36,
            "name": "C2",
            "ticks": 14112,
            "time": 18.375,
            "velocity": 0.3937007874015748
          },
          {
            "duration": 0.0625,
            "durationTicks": 48,
            "midi": 36,
            "name": "C2",
            "ticks": 14256,
            "time": 18.5625,
            "velocity": 0.3937007874015748
          },
          {
            "duration": 0.0625,
            "durationTicks": 48,
            "midi": 24,
            "name": "C1",
            "ticks": 14256,
            "time": 18.5625,
            "velocity": 0.3937007874015748
          },
          {
            "duration": 0.0625,
            "durationTicks": 48,
            "midi": 36,
            "name": "C2",
            "ticks": 14544,
            "time": 18.9375,
            "velocity": 0.3937007874015748
          },
          {
            "duration": 0.0625,
            "durationTicks": 48,
            "midi": 24,
            "name": "C1",
            "ticks": 14544,
            "time": 18.9375,
            "velocity": 0.3937007874015748
          },
          {
            "duration": 0.0625,
            "durationTicks": 48,
            "midi": 24,
            "name": "C1",
            "ticks": 14688,
            "time": 19.125,
            "velocity": 0.3937007874015748
          },
          {
            "duration": 0.0625,
            "durationTicks": 48,
            "midi": 36,
            "name": "C2",
            "ticks": 14688,
            "time": 19.125,
            "velocity": 0.3937007874015748
          },
          {
            "duration": 0.0625,
            "durationTicks": 48,
            "midi": 24,
            "name": "C1",
            "ticks": 14832,
            "time": 19.3125,
            "velocity": 0.3937007874015748
          },
          {
            "duration": 0.0625,
            "durationTicks": 48,
            "midi": 36,
            "name": "C2",
            "ticks": 14832,
            "time": 19.3125,
            "velocity": 0.3937007874015748
          },
          {
            "duration": 0.0625,
            "durationTicks": 48,
            "midi": 24,
            "name": "C1",
            "ticks": 14976,
            "time": 19.5,
            "velocity": 0.3937007874015748
          },
          {
            "duration": 0.0625,
            "durationTicks": 48,
            "midi": 36,
            "name": "C2",
            "ticks": 14976,
            "time": 19.5,
            "velocity": 0.3937007874015748
          },
          {
            "duration": 0.0625,
            "durationTicks": 48,
            "midi": 36,
            "name": "C2",
            "ticks": 15264,
            "time": 19.875,
            "velocity": 0.3937007874015748
          },
          {
            "duration": 0.0625,
            "durationTicks": 48,
            "midi": 24,
            "name": "C1",
            "ticks": 15264,
            "time": 19.875,
            "velocity": 0.3937007874015748
          },
          {
            "duration": 0.0625,
            "durationTicks": 48,
            "midi": 24,
            "name": "C1",
            "ticks": 15408,
            "time": 20.0625,
            "velocity": 0.3937007874015748
          },
          {
            "duration": 0.0625,
            "durationTicks": 48,
            "midi": 36,
            "name": "C2",
            "ticks": 15408,
            "time": 20.0625,
            "velocity": 0.3937007874015748
          },
          {
            "duration": 0.0625,
            "durationTicks": 48,
            "midi": 36,
            "name": "C2",
            "ticks": 15696,
            "time": 20.4375,
            "velocity": 0.3937007874015748
          },
          {
            "duration": 0.0625,
            "durationTicks": 48,
            "midi": 24,
            "name": "C1",
            "ticks": 15696,
            "time": 20.4375,
            "velocity": 0.3937007874015748
          },
          {
            "duration": 0.0625,
            "durationTicks": 48,
            "midi": 36,
            "name": "C2",
            "ticks": 15840,
            "time": 20.625,
            "velocity": 0.3937007874015748
          },
          {
            "duration": 0.0625,
            "durationTicks": 48,
            "midi": 24,
            "name": "C1",
            "ticks": 15840,
            "time": 20.625,
            "velocity": 0.3937007874015748
          },
          {
            "duration": 0.0625,
            "durationTicks": 48,
            "midi": 24,
            "name": "C1",
            "ticks": 15984,
            "time": 20.8125,
            "velocity": 0.3937007874015748
          },
          {
            "duration": 0.0625,
            "durationTicks": 48,
            "midi": 36,
            "name": "C2",
            "ticks": 15984,
            "time": 20.8125,
            "velocity": 0.3937007874015748
          },
          {
            "duration": 0.0625,
            "durationTicks": 48,
            "midi": 26,
            "name": "D1",
            "ticks": 16128,
            "time": 21,
            "velocity": 0.3937007874015748
          },
          {
            "duration": 0.0625,
            "durationTicks": 48,
            "midi": 38,
            "name": "D2",
            "ticks": 16128,
            "time": 21,
            "velocity": 0.3937007874015748
          },
          {
            "duration": 0.0625,
            "durationTicks": 48,
            "midi": 45,
            "name": "A2",
            "ticks": 16416,
            "time": 21.375,
            "velocity": 0.3937007874015748
          },
          {
            "duration": 0.0625,
            "durationTicks": 48,
            "midi": 33,
            "name": "A1",
            "ticks": 16416,
            "time": 21.375,
            "velocity": 0.3937007874015748
          },
          {
            "duration": 0.0625,
            "durationTicks": 48,
            "midi": 26,
            "name": "D1",
            "ticks": 16560,
            "time": 21.5625,
            "velocity": 0.3937007874015748
          },
          {
            "duration": 0.0625,
            "durationTicks": 48,
            "midi": 38,
            "name": "D2",
            "ticks": 16560,
            "time": 21.5625,
            "velocity": 0.3937007874015748
          },
          {
            "duration": 0.0625,
            "durationTicks": 48,
            "midi": 40,
            "name": "E2",
            "ticks": 16704,
            "time": 21.75,
            "velocity": 0.3937007874015748
          },
          {
            "duration": 0.0625,
            "durationTicks": 48,
            "midi": 28,
            "name": "E1",
            "ticks": 16704,
            "time": 21.75,
            "velocity": 0.3937007874015748
          },
          {
            "duration": 0.0625,
            "durationTicks": 48,
            "midi": 28,
            "name": "E1",
            "ticks": 16992,
            "time": 22.125,
            "velocity": 0.3937007874015748
          },
          {
            "duration": 0.0625,
            "durationTicks": 48,
            "midi": 40,
            "name": "E2",
            "ticks": 16992,
            "time": 22.125,
            "velocity": 0.3937007874015748
          },
          {
            "duration": 0.0625,
            "durationTicks": 48,
            "midi": 28,
            "name": "E1",
            "ticks": 17136,
            "time": 22.3125,
            "velocity": 0.3937007874015748
          },
          {
            "duration": 0.0625,
            "durationTicks": 48,
            "midi": 40,
            "name": "E2",
            "ticks": 17136,
            "time": 22.3125,
            "velocity": 0.3937007874015748
          },
          {
            "duration": 0.0625,
            "durationTicks": 48,
            "midi": 40,
            "name": "E2",
            "ticks": 17424,
            "time": 22.6875,
            "velocity": 0.3937007874015748
          },
          {
            "duration": 0.0625,
            "durationTicks": 48,
            "midi": 28,
            "name": "E1",
            "ticks": 17424,
            "time": 22.6875,
            "velocity": 0.3937007874015748
          },
          {
            "duration": 0.0625,
            "durationTicks": 48,
            "midi": 28,
            "name": "E1",
            "ticks": 17568,
            "time": 22.875,
            "velocity": 0.3937007874015748
          },
          {
            "duration": 0.0625,
            "durationTicks": 48,
            "midi": 40,
            "name": "E2",
            "ticks": 17568,
            "time": 22.875,
            "velocity": 0.3937007874015748
          },
          {
            "duration": 0.0625,
            "durationTicks": 48,
            "midi": 28,
            "name": "E1",
            "ticks": 17712,
            "time": 23.0625,
            "velocity": 0.3937007874015748
          },
          {
            "duration": 0.0625,
            "durationTicks": 48,
            "midi": 40,
            "name": "E2",
            "ticks": 17712,
            "time": 23.0625,
            "velocity": 0.3937007874015748
          },
          {
            "duration": 0.0625,
            "durationTicks": 48,
            "midi": 31,
            "name": "G1",
            "ticks": 19008,
            "time": 24.75,
            "velocity": 0.3937007874015748
          },
          {
            "duration": 0.0625,
            "durationTicks": 48,
            "midi": 31,
            "name": "G1",
            "ticks": 19008,
            "time": 24.75,
            "velocity": 0.3937007874015748
          },
          {
            "duration": 0.0625,
            "durationTicks": 48,
            "midi": 31,
            "name": "G1",
            "ticks": 19296,
            "time": 25.125,
            "velocity": 0.3937007874015748
          },
          {
            "duration": 0.0625,
            "durationTicks": 48,
            "midi": 31,
            "name": "G1",
            "ticks": 19296,
            "time": 25.125,
            "velocity": 0.3937007874015748
          },
          {
            "duration": 0.0625,
            "durationTicks": 48,
            "midi": 31,
            "name": "G1",
            "ticks": 19440,
            "time": 25.3125,
            "velocity": 0.3937007874015748
          },
          {
            "duration": 0.0625,
            "durationTicks": 48,
            "midi": 31,
            "name": "G1",
            "ticks": 19440,
            "time": 25.3125,
            "velocity": 0.3937007874015748
          },
          {
            "duration": 0.0625,
            "durationTicks": 48,
            "midi": 31,
            "name": "G1",
            "ticks": 19728,
            "time": 25.6875,
            "velocity": 0.3937007874015748
          },
          {
            "duration": 0.0625,
            "durationTicks": 48,
            "midi": 31,
            "name": "G1",
            "ticks": 19728,
            "time": 25.6875,
            "velocity": 0.3937007874015748
          },
          {
            "duration": 0.0625,
            "durationTicks": 48,
            "midi": 31,
            "name": "G1",
            "ticks": 19872,
            "time": 25.875,
            "velocity": 0.3937007874015748
          },
          {
            "duration": 0.0625,
            "durationTicks": 48,
            "midi": 31,
            "name": "G1",
            "ticks": 19872,
            "time": 25.875,
            "velocity": 0.3937007874015748
          },
          {
            "duration": 0.0625,
            "durationTicks": 48,
            "midi": 31,
            "name": "G1",
            "ticks": 20016,
            "time": 26.0625,
            "velocity": 0.3937007874015748
          },
          {
            "duration": 0.0625,
            "durationTicks": 48,
            "midi": 31,
            "name": "G1",
            "ticks": 20016,
            "time": 26.0625,
            "velocity": 0.3937007874015748
          },
          {
            "duration": 0.0625,
            "durationTicks": 48,
            "midi": 36,
            "name": "C2",
            "ticks": 20160,
            "time": 26.25,
            "velocity": 0.3937007874015748
          },
          {
            "duration": 0.0625,
            "durationTicks": 48,
            "midi": 24,
            "name": "C1",
            "ticks": 20160,
            "time": 26.25,
            "velocity": 0.3937007874015748
          },
          {
            "duration": 0.0625,
            "durationTicks": 48,
            "midi": 24,
            "name": "C1",
            "ticks": 20448,
            "time": 26.625,
            "velocity": 0.3937007874015748
          },
          {
            "duration": 0.0625,
            "durationTicks": 48,
            "midi": 36,
            "name": "C2",
            "ticks": 20448,
            "time": 26.625,
            "velocity": 0.3937007874015748
          },
          {
            "duration": 0.0625,
            "durationTicks": 48,
            "midi": 24,
            "name": "C1",
            "ticks": 20592,
            "time": 26.8125,
            "velocity": 0.3937007874015748
          },
          {
            "duration": 0.0625,
            "durationTicks": 48,
            "midi": 36,
            "name": "C2",
            "ticks": 20592,
            "time": 26.8125,
            "velocity": 0.3937007874015748
          },
          {
            "duration": 0.0625,
            "durationTicks": 48,
            "midi": 24,
            "name": "C1",
            "ticks": 20880,
            "time": 27.1875,
            "velocity": 0.3937007874015748
          },
          {
            "duration": 0.0625,
            "durationTicks": 48,
            "midi": 36,
            "name": "C2",
            "ticks": 20880,
            "time": 27.1875,
            "velocity": 0.3937007874015748
          },
          {
            "duration": 0.0625,
            "durationTicks": 48,
            "midi": 36,
            "name": "C2",
            "ticks": 21024,
            "time": 27.375,
            "velocity": 0.3937007874015748
          },
          {
            "duration": 0.0625,
            "durationTicks": 48,
            "midi": 24,
            "name": "C1",
            "ticks": 21024,
            "time": 27.375,
            "velocity": 0.3937007874015748
          },
          {
            "duration": 0.0625,
            "durationTicks": 48,
            "midi": 24,
            "name": "C1",
            "ticks": 21168,
            "time": 27.5625,
            "velocity": 0.3937007874015748
          },
          {
            "duration": 0.0625,
            "durationTicks": 48,
            "midi": 36,
            "name": "C2",
            "ticks": 21168,
            "time": 27.5625,
            "velocity": 0.3937007874015748
          },
          {
            "duration": 0.0625,
            "durationTicks": 48,
            "midi": 36,
            "name": "C2",
            "ticks": 21312,
            "time": 27.75,
            "velocity": 0.3937007874015748
          },
          {
            "duration": 0.0625,
            "durationTicks": 48,
            "midi": 24,
            "name": "C1",
            "ticks": 21312,
            "time": 27.75,
            "velocity": 0.3937007874015748
          },
          {
            "duration": 0.0625,
            "durationTicks": 48,
            "midi": 36,
            "name": "C2",
            "ticks": 21600,
            "time": 28.125,
            "velocity": 0.3937007874015748
          },
          {
            "duration": 0.0625,
            "durationTicks": 48,
            "midi": 24,
            "name": "C1",
            "ticks": 21600,
            "time": 28.125,
            "velocity": 0.3937007874015748
          },
          {
            "duration": 0.0625,
            "durationTicks": 48,
            "midi": 36,
            "name": "C2",
            "ticks": 21744,
            "time": 28.3125,
            "velocity": 0.3937007874015748
          },
          {
            "duration": 0.0625,
            "durationTicks": 48,
            "midi": 24,
            "name": "C1",
            "ticks": 21744,
            "time": 28.3125,
            "velocity": 0.3937007874015748
          },
          {
            "duration": 0.0625,
            "durationTicks": 48,
            "midi": 24,
            "name": "C1",
            "ticks": 22032,
            "time": 28.6875,
            "velocity": 0.3937007874015748
          },
          {
            "duration": 0.0625,
            "durationTicks": 48,
            "midi": 36,
            "name": "C2",
            "ticks": 22032,
            "time": 28.6875,
            "velocity": 0.3937007874015748
          },
          {
            "duration": 0.0625,
            "durationTicks": 48,
            "midi": 36,
            "name": "C2",
            "ticks": 22176,
            "time": 28.875,
            "velocity": 0.3937007874015748
          },
          {
            "duration": 0.0625,
            "durationTicks": 48,
            "midi": 24,
            "name": "C1",
            "ticks": 22176,
            "time": 28.875,
            "velocity": 0.3937007874015748
          },
          {
            "duration": 0.0625,
            "durationTicks": 48,
            "midi": 24,
            "name": "C1",
            "ticks": 22320,
            "time": 29.0625,
            "velocity": 0.3937007874015748
          },
          {
            "duration": 0.0625,
            "durationTicks": 48,
            "midi": 36,
            "name": "C2",
            "ticks": 22320,
            "time": 29.0625,
            "velocity": 0.3937007874015748
          },
          {
            "duration": 0.0625,
            "durationTicks": 48,
            "midi": 38,
            "name": "D2",
            "ticks": 22464,
            "time": 29.25,
            "velocity": 0.3937007874015748
          },
          {
            "duration": 0.0625,
            "durationTicks": 48,
            "midi": 26,
            "name": "D1",
            "ticks": 22464,
            "time": 29.25,
            "velocity": 0.3937007874015748
          },
          {
            "duration": 0.0625,
            "durationTicks": 48,
            "midi": 33,
            "name": "A1",
            "ticks": 22752,
            "time": 29.625,
            "velocity": 0.3937007874015748
          },
          {
            "duration": 0.0625,
            "durationTicks": 48,
            "midi": 45,
            "name": "A2",
            "ticks": 22752,
            "time": 29.625,
            "velocity": 0.3937007874015748
          },
          {
            "duration": 0.0625,
            "durationTicks": 48,
            "midi": 38,
            "name": "D2",
            "ticks": 22896,
            "time": 29.8125,
            "velocity": 0.3937007874015748
          },
          {
            "duration": 0.0625,
            "durationTicks": 48,
            "midi": 26,
            "name": "D1",
            "ticks": 22896,
            "time": 29.8125,
            "velocity": 0.3937007874015748
          },
          {
            "duration": 0.0625,
            "durationTicks": 48,
            "midi": 28,
            "name": "E1",
            "ticks": 23040,
            "time": 30,
            "velocity": 0.3937007874015748
          },
          {
            "duration": 0.0625,
            "durationTicks": 48,
            "midi": 40,
            "name": "E2",
            "ticks": 23040,
            "time": 30,
            "velocity": 0.3937007874015748
          },
          {
            "duration": 0.0625,
            "durationTicks": 48,
            "midi": 40,
            "name": "E2",
            "ticks": 23328,
            "time": 30.375,
            "velocity": 0.3937007874015748
          },
          {
            "duration": 0.0625,
            "durationTicks": 48,
            "midi": 28,
            "name": "E1",
            "ticks": 23328,
            "time": 30.375,
            "velocity": 0.3937007874015748
          },
          {
            "duration": 0.0625,
            "durationTicks": 48,
            "midi": 40,
            "name": "E2",
            "ticks": 23472,
            "time": 30.5625,
            "velocity": 0.3937007874015748
          },
          {
            "duration": 0.0625,
            "durationTicks": 48,
            "midi": 28,
            "name": "E1",
            "ticks": 23472,
            "time": 30.5625,
            "velocity": 0.3937007874015748
          },
          {
            "duration": 0.0625,
            "durationTicks": 48,
            "midi": 28,
            "name": "E1",
            "ticks": 23760,
            "time": 30.9375,
            "velocity": 0.3937007874015748
          },
          {
            "duration": 0.0625,
            "durationTicks": 48,
            "midi": 40,
            "name": "E2",
            "ticks": 23760,
            "time": 30.9375,
            "velocity": 0.3937007874015748
          },
          {
            "duration": 0.0625,
            "durationTicks": 48,
            "midi": 40,
            "name": "E2",
            "ticks": 23904,
            "time": 31.125,
            "velocity": 0.3937007874015748
          },
          {
            "duration": 0.0625,
            "durationTicks": 48,
            "midi": 28,
            "name": "E1",
            "ticks": 23904,
            "time": 31.125,
            "velocity": 0.3937007874015748
          },
          {
            "duration": 0.0625,
            "durationTicks": 48,
            "midi": 40,
            "name": "E2",
            "ticks": 24048,
            "time": 31.3125,
            "velocity": 0.3937007874015748
          },
          {
            "duration": 0.0625,
            "durationTicks": 48,
            "midi": 28,
            "name": "E1",
            "ticks": 24048,
            "time": 31.3125,
            "velocity": 0.3937007874015748
          },
          {
            "duration": 0.0625,
            "durationTicks": 48,
            "midi": 31,
            "name": "G1",
            "ticks": 25344,
            "time": 33,
            "velocity": 0.3937007874015748
          },
          {
            "duration": 0.0625,
            "durationTicks": 48,
            "midi": 31,
            "name": "G1",
            "ticks": 25344,
            "time": 33,
            "velocity": 0.3937007874015748
          },
          {
            "duration": 0.0625,
            "durationTicks": 48,
            "midi": 31,
            "name": "G1",
            "ticks": 25632,
            "time": 33.375,
            "velocity": 0.3937007874015748
          },
          {
            "duration": 0.0625,
            "durationTicks": 48,
            "midi": 31,
            "name": "G1",
            "ticks": 25632,
            "time": 33.375,
            "velocity": 0.3937007874015748
          },
          {
            "duration": 0.0625,
            "durationTicks": 48,
            "midi": 31,
            "name": "G1",
            "ticks": 25776,
            "time": 33.5625,
            "velocity": 0.3937007874015748
          },
          {
            "duration": 0.0625,
            "durationTicks": 48,
            "midi": 31,
            "name": "G1",
            "ticks": 25776,
            "time": 33.5625,
            "velocity": 0.3937007874015748
          },
          {
            "duration": 0.0625,
            "durationTicks": 48,
            "midi": 31,
            "name": "G1",
            "ticks": 26064,
            "time": 33.9375,
            "velocity": 0.3937007874015748
          },
          {
            "duration": 0.0625,
            "durationTicks": 48,
            "midi": 31,
            "name": "G1",
            "ticks": 26064,
            "time": 33.9375,
            "velocity": 0.3937007874015748
          },
          {
            "duration": 0.0625,
            "durationTicks": 48,
            "midi": 31,
            "name": "G1",
            "ticks": 26208,
            "time": 34.125,
            "velocity": 0.3937007874015748
          },
          {
            "duration": 0.0625,
            "durationTicks": 48,
            "midi": 31,
            "name": "G1",
            "ticks": 26208,
            "time": 34.125,
            "velocity": 0.3937007874015748
          },
          {
            "duration": 0.0625,
            "durationTicks": 48,
            "midi": 31,
            "name": "G1",
            "ticks": 26352,
            "time": 34.3125,
            "velocity": 0.3937007874015748
          },
          {
            "duration": 0.0625,
            "durationTicks": 48,
            "midi": 31,
            "name": "G1",
            "ticks": 26352,
            "time": 34.3125,
            "velocity": 0.3937007874015748
          },
          {
            "duration": 0.0625,
            "durationTicks": 48,
            "midi": 36,
            "name": "C2",
            "ticks": 26496,
            "time": 34.5,
            "velocity": 0.3937007874015748
          },
          {
            "duration": 0.0625,
            "durationTicks": 48,
            "midi": 24,
            "name": "C1",
            "ticks": 26496,
            "time": 34.5,
            "velocity": 0.3937007874015748
          },
          {
            "duration": 0.0625,
            "durationTicks": 48,
            "midi": 24,
            "name": "C1",
            "ticks": 26784,
            "time": 34.875,
            "velocity": 0.3937007874015748
          },
          {
            "duration": 0.0625,
            "durationTicks": 48,
            "midi": 36,
            "name": "C2",
            "ticks": 26784,
            "time": 34.875,
            "velocity": 0.3937007874015748
          },
          {
            "duration": 0.0625,
            "durationTicks": 48,
            "midi": 36,
            "name": "C2",
            "ticks": 26928,
            "time": 35.0625,
            "velocity": 0.3937007874015748
          },
          {
            "duration": 0.0625,
            "durationTicks": 48,
            "midi": 24,
            "name": "C1",
            "ticks": 26928,
            "time": 35.0625,
            "velocity": 0.3937007874015748
          },
          {
            "duration": 0.0625,
            "durationTicks": 48,
            "midi": 24,
            "name": "C1",
            "ticks": 27216,
            "time": 35.4375,
            "velocity": 0.3937007874015748
          },
          {
            "duration": 0.0625,
            "durationTicks": 48,
            "midi": 36,
            "name": "C2",
            "ticks": 27216,
            "time": 35.4375,
            "velocity": 0.3937007874015748
          },
          {
            "duration": 0.0625,
            "durationTicks": 48,
            "midi": 36,
            "name": "C2",
            "ticks": 27360,
            "time": 35.625,
            "velocity": 0.3937007874015748
          },
          {
            "duration": 0.0625,
            "durationTicks": 48,
            "midi": 24,
            "name": "C1",
            "ticks": 27360,
            "time": 35.625,
            "velocity": 0.3937007874015748
          },
          {
            "duration": 0.0625,
            "durationTicks": 48,
            "midi": 24,
            "name": "C1",
            "ticks": 27504,
            "time": 35.8125,
            "velocity": 0.3937007874015748
          },
          {
            "duration": 0.0625,
            "durationTicks": 48,
            "midi": 36,
            "name": "C2",
            "ticks": 27504,
            "time": 35.8125,
            "velocity": 0.3937007874015748
          },
          {
            "duration": 0.0625,
            "durationTicks": 48,
            "midi": 36,
            "name": "C2",
            "ticks": 27648,
            "time": 36,
            "velocity": 0.3937007874015748
          },
          {
            "duration": 0.0625,
            "durationTicks": 48,
            "midi": 24,
            "name": "C1",
            "ticks": 27648,
            "time": 36,
            "velocity": 0.3937007874015748
          },
          {
            "duration": 0.0625,
            "durationTicks": 48,
            "midi": 36,
            "name": "C2",
            "ticks": 27936,
            "time": 36.375,
            "velocity": 0.3937007874015748
          },
          {
            "duration": 0.0625,
            "durationTicks": 48,
            "midi": 24,
            "name": "C1",
            "ticks": 27936,
            "time": 36.375,
            "velocity": 0.3937007874015748
          },
          {
            "duration": 0.0625,
            "durationTicks": 48,
            "midi": 36,
            "name": "C2",
            "ticks": 28080,
            "time": 36.5625,
            "velocity": 0.3937007874015748
          },
          {
            "duration": 0.0625,
            "durationTicks": 48,
            "midi": 24,
            "name": "C1",
            "ticks": 28080,
            "time": 36.5625,
            "velocity": 0.3937007874015748
          },
          {
            "duration": 0.0625,
            "durationTicks": 48,
            "midi": 24,
            "name": "C1",
            "ticks": 28368,
            "time": 36.9375,
            "velocity": 0.3937007874015748
          },
          {
            "duration": 0.0625,
            "durationTicks": 48,
            "midi": 36,
            "name": "C2",
            "ticks": 28368,
            "time": 36.9375,
            "velocity": 0.3937007874015748
          },
          {
            "duration": 0.0625,
            "durationTicks": 48,
            "midi": 24,
            "name": "C1",
            "ticks": 28512,
            "time": 37.125,
            "velocity": 0.3937007874015748
          },
          {
            "duration": 0.0625,
            "durationTicks": 48,
            "midi": 36,
            "name": "C2",
            "ticks": 28512,
            "time": 37.125,
            "velocity": 0.3937007874015748
          },
          {
            "duration": 0.0625,
            "durationTicks": 48,
            "midi": 24,
            "name": "C1",
            "ticks": 28656,
            "time": 37.3125,
            "velocity": 0.3937007874015748
          },
          {
            "duration": 0.0625,
            "durationTicks": 48,
            "midi": 36,
            "name": "C2",
            "ticks": 28656,
            "time": 37.3125,
            "velocity": 0.3937007874015748
          },
          {
            "duration": 0.0625,
            "durationTicks": 48,
            "midi": 38,
            "name": "D2",
            "ticks": 28800,
            "time": 37.5,
            "velocity": 0.3937007874015748
          },
          {
            "duration": 0.0625,
            "durationTicks": 48,
            "midi": 26,
            "name": "D1",
            "ticks": 28800,
            "time": 37.5,
            "velocity": 0.3937007874015748
          },
          {
            "duration": 0.0625,
            "durationTicks": 48,
            "midi": 33,
            "name": "A1",
            "ticks": 29088,
            "time": 37.875,
            "velocity": 0.3937007874015748
          },
          {
            "duration": 0.0625,
            "durationTicks": 48,
            "midi": 45,
            "name": "A2",
            "ticks": 29088,
            "time": 37.875,
            "velocity": 0.3937007874015748
          },
          {
            "duration": 0.0625,
            "durationTicks": 48,
            "midi": 26,
            "name": "D1",
            "ticks": 29232,
            "time": 38.0625,
            "velocity": 0.3937007874015748
          },
          {
            "duration": 0.0625,
            "durationTicks": 48,
            "midi": 38,
            "name": "D2",
            "ticks": 29232,
            "time": 38.0625,
            "velocity": 0.3937007874015748
          },
          {
            "duration": 0.0625,
            "durationTicks": 48,
            "midi": 40,
            "name": "E2",
            "ticks": 29376,
            "time": 38.25,
            "velocity": 0.3937007874015748
          },
          {
            "duration": 0.0625,
            "durationTicks": 48,
            "midi": 28,
            "name": "E1",
            "ticks": 29376,
            "time": 38.25,
            "velocity": 0.3937007874015748
          },
          {
            "duration": 0.0625,
            "durationTicks": 48,
            "midi": 40,
            "name": "E2",
            "ticks": 29664,
            "time": 38.625,
            "velocity": 0.3937007874015748
          },
          {
            "duration": 0.0625,
            "durationTicks": 48,
            "midi": 28,
            "name": "E1",
            "ticks": 29664,
            "time": 38.625,
            "velocity": 0.3937007874015748
          },
          {
            "duration": 0.0625,
            "durationTicks": 48,
            "midi": 28,
            "name": "E1",
            "ticks": 29808,
            "time": 38.8125,
            "velocity": 0.3937007874015748
          },
          {
            "duration": 0.0625,
            "durationTicks": 48,
            "midi": 40,
            "name": "E2",
            "ticks": 29808,
            "time": 38.8125,
            "velocity": 0.3937007874015748
          },
          {
            "duration": 0.0625,
            "durationTicks": 48,
            "midi": 40,
            "name": "E2",
            "ticks": 30096,
            "time": 39.1875,
            "velocity": 0.3937007874015748
          },
          {
            "duration": 0.0625,
            "durationTicks": 48,
            "midi": 28,
            "name": "E1",
            "ticks": 30096,
            "time": 39.1875,
            "velocity": 0.3937007874015748
          },
          {
            "duration": 0.0625,
            "durationTicks": 48,
            "midi": 28,
            "name": "E1",
            "ticks": 30240,
            "time": 39.375,
            "velocity": 0.3937007874015748
          },
          {
            "duration": 0.0625,
            "durationTicks": 48,
            "midi": 40,
            "name": "E2",
            "ticks": 30240,
            "time": 39.375,
            "velocity": 0.3937007874015748
          },
          {
            "duration": 0.0625,
            "durationTicks": 48,
            "midi": 28,
            "name": "E1",
            "ticks": 30384,
            "time": 39.5625,
            "velocity": 0.3937007874015748
          },
          {
            "duration": 0.0625,
            "durationTicks": 48,
            "midi": 40,
            "name": "E2",
            "ticks": 30384,
            "time": 39.5625,
            "velocity": 0.3937007874015748
          },
          {
            "duration": 0.0625,
            "durationTicks": 48,
            "midi": 31,
            "name": "G1",
            "ticks": 31680,
            "time": 41.25,
            "velocity": 0.3937007874015748
          },
          {
            "duration": 0.0625,
            "durationTicks": 48,
            "midi": 31,
            "name": "G1",
            "ticks": 31680,
            "time": 41.25,
            "velocity": 0.3937007874015748
          },
          {
            "duration": 0.0625,
            "durationTicks": 48,
            "midi": 31,
            "name": "G1",
            "ticks": 31968,
            "time": 41.625,
            "velocity": 0.3937007874015748
          },
          {
            "duration": 0.0625,
            "durationTicks": 48,
            "midi": 31,
            "name": "G1",
            "ticks": 31968,
            "time": 41.625,
            "velocity": 0.3937007874015748
          },
          {
            "duration": 0.0625,
            "durationTicks": 48,
            "midi": 31,
            "name": "G1",
            "ticks": 32112,
            "time": 41.8125,
            "velocity": 0.3937007874015748
          },
          {
            "duration": 0.0625,
            "durationTicks": 48,
            "midi": 31,
            "name": "G1",
            "ticks": 32112,
            "time": 41.8125,
            "velocity": 0.3937007874015748
          },
          {
            "duration": 0.0625,
            "durationTicks": 48,
            "midi": 31,
            "name": "G1",
            "ticks": 32400,
            "time": 42.1875,
            "velocity": 0.3937007874015748
          },
          {
            "duration": 0.0625,
            "durationTicks": 48,
            "midi": 31,
            "name": "G1",
            "ticks": 32400,
            "time": 42.1875,
            "velocity": 0.3937007874015748
          },
          {
            "duration": 0.0625,
            "durationTicks": 48,
            "midi": 31,
            "name": "G1",
            "ticks": 32544,
            "time": 42.375,
            "velocity": 0.3937007874015748
          },
          {
            "duration": 0.0625,
            "durationTicks": 48,
            "midi": 31,
            "name": "G1",
            "ticks": 32544,
            "time": 42.375,
            "velocity": 0.3937007874015748
          },
          {
            "duration": 0.0625,
            "durationTicks": 48,
            "midi": 31,
            "name": "G1",
            "ticks": 32688,
            "time": 42.5625,
            "velocity": 0.3937007874015748
          },
          {
            "duration": 0.0625,
            "durationTicks": 48,
            "midi": 31,
            "name": "G1",
            "ticks": 32688,
            "time": 42.5625,
            "velocity": 0.3937007874015748
          },
          {
            "duration": 0.0625,
            "durationTicks": 48,
            "midi": 36,
            "name": "C2",
            "ticks": 32832,
            "time": 42.75,
            "velocity": 0.3937007874015748
          },
          {
            "duration": 0.0625,
            "durationTicks": 48,
            "midi": 24,
            "name": "C1",
            "ticks": 32832,
            "time": 42.75,
            "velocity": 0.3937007874015748
          },
          {
            "duration": 0.0625,
            "durationTicks": 48,
            "midi": 24,
            "name": "C1",
            "ticks": 33120,
            "time": 43.125,
            "velocity": 0.3937007874015748
          },
          {
            "duration": 0.0625,
            "durationTicks": 48,
            "midi": 36,
            "name": "C2",
            "ticks": 33120,
            "time": 43.125,
            "velocity": 0.3937007874015748
          },
          {
            "duration": 0.0625,
            "durationTicks": 48,
            "midi": 36,
            "name": "C2",
            "ticks": 33264,
            "time": 43.3125,
            "velocity": 0.3937007874015748
          },
          {
            "duration": 0.0625,
            "durationTicks": 48,
            "midi": 24,
            "name": "C1",
            "ticks": 33264,
            "time": 43.3125,
            "velocity": 0.3937007874015748
          },
          {
            "duration": 0.0625,
            "durationTicks": 48,
            "midi": 36,
            "name": "C2",
            "ticks": 33552,
            "time": 43.6875,
            "velocity": 0.3937007874015748
          },
          {
            "duration": 0.0625,
            "durationTicks": 48,
            "midi": 24,
            "name": "C1",
            "ticks": 33552,
            "time": 43.6875,
            "velocity": 0.3937007874015748
          },
          {
            "duration": 0.0625,
            "durationTicks": 48,
            "midi": 24,
            "name": "C1",
            "ticks": 33696,
            "time": 43.875,
            "velocity": 0.3937007874015748
          },
          {
            "duration": 0.0625,
            "durationTicks": 48,
            "midi": 36,
            "name": "C2",
            "ticks": 33696,
            "time": 43.875,
            "velocity": 0.3937007874015748
          },
          {
            "duration": 0.0625,
            "durationTicks": 48,
            "midi": 36,
            "name": "C2",
            "ticks": 33840,
            "time": 44.0625,
            "velocity": 0.3937007874015748
          },
          {
            "duration": 0.0625,
            "durationTicks": 48,
            "midi": 24,
            "name": "C1",
            "ticks": 33840,
            "time": 44.0625,
            "velocity": 0.3937007874015748
          },
          {
            "duration": 0.0625,
            "durationTicks": 48,
            "midi": 24,
            "name": "C1",
            "ticks": 33984,
            "time": 44.25,
            "velocity": 0.3937007874015748
          },
          {
            "duration": 0.0625,
            "durationTicks": 48,
            "midi": 36,
            "name": "C2",
            "ticks": 33984,
            "time": 44.25,
            "velocity": 0.3937007874015748
          },
          {
            "duration": 0.0625,
            "durationTicks": 48,
            "midi": 24,
            "name": "C1",
            "ticks": 34272,
            "time": 44.625,
            "velocity": 0.3937007874015748
          },
          {
            "duration": 0.0625,
            "durationTicks": 48,
            "midi": 36,
            "name": "C2",
            "ticks": 34272,
            "time": 44.625,
            "velocity": 0.3937007874015748
          },
          {
            "duration": 0.0625,
            "durationTicks": 48,
            "midi": 24,
            "name": "C1",
            "ticks": 34416,
            "time": 44.8125,
            "velocity": 0.3937007874015748
          },
          {
            "duration": 0.0625,
            "durationTicks": 48,
            "midi": 36,
            "name": "C2",
            "ticks": 34416,
            "time": 44.8125,
            "velocity": 0.3937007874015748
          },
          {
            "duration": 0.0625,
            "durationTicks": 48,
            "midi": 24,
            "name": "C1",
            "ticks": 34704,
            "time": 45.1875,
            "velocity": 0.3937007874015748
          },
          {
            "duration": 0.0625,
            "durationTicks": 48,
            "midi": 36,
            "name": "C2",
            "ticks": 34704,
            "time": 45.1875,
            "velocity": 0.3937007874015748
          },
          {
            "duration": 0.0625,
            "durationTicks": 48,
            "midi": 36,
            "name": "C2",
            "ticks": 34848,
            "time": 45.375,
            "velocity": 0.3937007874015748
          },
          {
            "duration": 0.0625,
            "durationTicks": 48,
            "midi": 24,
            "name": "C1",
            "ticks": 34848,
            "time": 45.375,
            "velocity": 0.3937007874015748
          },
          {
            "duration": 0.0625,
            "durationTicks": 48,
            "midi": 24,
            "name": "C1",
            "ticks": 34992,
            "time": 45.5625,
            "velocity": 0.3937007874015748
          },
          {
            "duration": 0.0625,
            "durationTicks": 48,
            "midi": 36,
            "name": "C2",
            "ticks": 34992,
            "time": 45.5625,
            "velocity": 0.3937007874015748
          },
          {
            "duration": 0.0625,
            "durationTicks": 48,
            "midi": 26,
            "name": "D1",
            "ticks": 35136,
            "time": 45.75,
            "velocity": 0.3937007874015748
          },
          {
            "duration": 0.0625,
            "durationTicks": 48,
            "midi": 38,
            "name": "D2",
            "ticks": 35136,
            "time": 45.75,
            "velocity": 0.3937007874015748
          },
          {
            "duration": 0.0625,
            "durationTicks": 48,
            "midi": 45,
            "name": "A2",
            "ticks": 35424,
            "time": 46.125,
            "velocity": 0.3937007874015748
          },
          {
            "duration": 0.0625,
            "durationTicks": 48,
            "midi": 33,
            "name": "A1",
            "ticks": 35424,
            "time": 46.125,
            "velocity": 0.3937007874015748
          },
          {
            "duration": 0.0625,
            "durationTicks": 48,
            "midi": 38,
            "name": "D2",
            "ticks": 35568,
            "time": 46.3125,
            "velocity": 0.3937007874015748
          },
          {
            "duration": 0.0625,
            "durationTicks": 48,
            "midi": 26,
            "name": "D1",
            "ticks": 35568,
            "time": 46.3125,
            "velocity": 0.3937007874015748
          },
          {
            "duration": 0.0625,
            "durationTicks": 48,
            "midi": 28,
            "name": "E1",
            "ticks": 35712,
            "time": 46.5,
            "velocity": 0.3937007874015748
          },
          {
            "duration": 0.0625,
            "durationTicks": 48,
            "midi": 40,
            "name": "E2",
            "ticks": 35712,
            "time": 46.5,
            "velocity": 0.3937007874015748
          },
          {
            "duration": 0.0625,
            "durationTicks": 48,
            "midi": 28,
            "name": "E1",
            "ticks": 36000,
            "time": 46.875,
            "velocity": 0.3937007874015748
          },
          {
            "duration": 0.0625,
            "durationTicks": 48,
            "midi": 40,
            "name": "E2",
            "ticks": 36000,
            "time": 46.875,
            "velocity": 0.3937007874015748
          },
          {
            "duration": 0.0625,
            "durationTicks": 48,
            "midi": 40,
            "name": "E2",
            "ticks": 36144,
            "time": 47.0625,
            "velocity": 0.3937007874015748
          },
          {
            "duration": 0.0625,
            "durationTicks": 48,
            "midi": 28,
            "name": "E1",
            "ticks": 36144,
            "time": 47.0625,
            "velocity": 0.3937007874015748
          },
          {
            "duration": 0.0625,
            "durationTicks": 48,
            "midi": 28,
            "name": "E1",
            "ticks": 36432,
            "time": 47.4375,
            "velocity": 0.3937007874015748
          },
          {
            "duration": 0.0625,
            "durationTicks": 48,
            "midi": 40,
            "name": "E2",
            "ticks": 36432,
            "time": 47.4375,
            "velocity": 0.3937007874015748
          },
          {
            "duration": 0.0625,
            "durationTicks": 48,
            "midi": 28,
            "name": "E1",
            "ticks": 36576,
            "time": 47.625,
            "velocity": 0.3937007874015748
          },
          {
            "duration": 0.0625,
            "durationTicks": 48,
            "midi": 40,
            "name": "E2",
            "ticks": 36576,
            "time": 47.625,
            "velocity": 0.3937007874015748
          },
          {
            "duration": 0.0625,
            "durationTicks": 48,
            "midi": 40,
            "name": "E2",
            "ticks": 36720,
            "time": 47.8125,
            "velocity": 0.3937007874015748
          },
          {
            "duration": 0.0625,
            "durationTicks": 48,
            "midi": 28,
            "name": "E1",
            "ticks": 36720,
            "time": 47.8125,
            "velocity": 0.3937007874015748
          },
          {
            "duration": 0.0625,
            "durationTicks": 48,
            "midi": 31,
            "name": "G1",
            "ticks": 38016,
            "time": 49.5,
            "velocity": 0.3937007874015748
          },
          {
            "duration": 0.0625,
            "durationTicks": 48,
            "midi": 31,
            "name": "G1",
            "ticks": 38016,
            "time": 49.5,
            "velocity": 0.3937007874015748
          },
          {
            "duration": 0.0625,
            "durationTicks": 48,
            "midi": 31,
            "name": "G1",
            "ticks": 38304,
            "time": 49.875,
            "velocity": 0.3937007874015748
          },
          {
            "duration": 0.0625,
            "durationTicks": 48,
            "midi": 31,
            "name": "G1",
            "ticks": 38304,
            "time": 49.875,
            "velocity": 0.3937007874015748
          },
          {
            "duration": 0.0625,
            "durationTicks": 48,
            "midi": 31,
            "name": "G1",
            "ticks": 38448,
            "time": 50.0625,
            "velocity": 0.3937007874015748
          },
          {
            "duration": 0.0625,
            "durationTicks": 48,
            "midi": 31,
            "name": "G1",
            "ticks": 38448,
            "time": 50.0625,
            "velocity": 0.3937007874015748
          },
          {
            "duration": 0.0625,
            "durationTicks": 48,
            "midi": 31,
            "name": "G1",
            "ticks": 38736,
            "time": 50.4375,
            "velocity": 0.3937007874015748
          },
          {
            "duration": 0.0625,
            "durationTicks": 48,
            "midi": 31,
            "name": "G1",
            "ticks": 38736,
            "time": 50.4375,
            "velocity": 0.3937007874015748
          },
          {
            "duration": 0.0625,
            "durationTicks": 48,
            "midi": 31,
            "name": "G1",
            "ticks": 38880,
            "time": 50.625,
            "velocity": 0.3937007874015748
          },
          {
            "duration": 0.0625,
            "durationTicks": 48,
            "midi": 31,
            "name": "G1",
            "ticks": 38880,
            "time": 50.625,
            "velocity": 0.3937007874015748
          },
          {
            "duration": 0.0625,
            "durationTicks": 48,
            "midi": 31,
            "name": "G1",
            "ticks": 39024,
            "time": 50.8125,
            "velocity": 0.3937007874015748
          },
          {
            "duration": 0.0625,
            "durationTicks": 48,
            "midi": 31,
            "name": "G1",
            "ticks": 39024,
            "time": 50.8125,
            "velocity": 0.3937007874015748
          },
          {
            "duration": 0.0625,
            "durationTicks": 48,
            "midi": 24,
            "name": "C1",
            "ticks": 39168,
            "time": 51,
            "velocity": 0.3937007874015748
          },
          {
            "duration": 0.0625,
            "durationTicks": 48,
            "midi": 36,
            "name": "C2",
            "ticks": 39168,
            "time": 51,
            "velocity": 0.3937007874015748
          },
          {
            "duration": 0.0625,
            "durationTicks": 48,
            "midi": 24,
            "name": "C1",
            "ticks": 39456,
            "time": 51.375,
            "velocity": 0.3937007874015748
          },
          {
            "duration": 0.0625,
            "durationTicks": 48,
            "midi": 36,
            "name": "C2",
            "ticks": 39456,
            "time": 51.375,
            "velocity": 0.3937007874015748
          },
          {
            "duration": 0.0625,
            "durationTicks": 48,
            "midi": 36,
            "name": "C2",
            "ticks": 39600,
            "time": 51.5625,
            "velocity": 0.3937007874015748
          },
          {
            "duration": 0.0625,
            "durationTicks": 48,
            "midi": 24,
            "name": "C1",
            "ticks": 39600,
            "time": 51.5625,
            "velocity": 0.3937007874015748
          },
          {
            "duration": 0.0625,
            "durationTicks": 48,
            "midi": 36,
            "name": "C2",
            "ticks": 39888,
            "time": 51.9375,
            "velocity": 0.3937007874015748
          },
          {
            "duration": 0.0625,
            "durationTicks": 48,
            "midi": 24,
            "name": "C1",
            "ticks": 39888,
            "time": 51.9375,
            "velocity": 0.3937007874015748
          },
          {
            "duration": 0.0625,
            "durationTicks": 48,
            "midi": 36,
            "name": "C2",
            "ticks": 40032,
            "time": 52.125,
            "velocity": 0.3937007874015748
          },
          {
            "duration": 0.0625,
            "durationTicks": 48,
            "midi": 24,
            "name": "C1",
            "ticks": 40032,
            "time": 52.125,
            "velocity": 0.3937007874015748
          },
          {
            "duration": 0.0625,
            "durationTicks": 48,
            "midi": 36,
            "name": "C2",
            "ticks": 40176,
            "time": 52.3125,
            "velocity": 0.3937007874015748
          },
          {
            "duration": 0.0625,
            "durationTicks": 48,
            "midi": 24,
            "name": "C1",
            "ticks": 40176,
            "time": 52.3125,
            "velocity": 0.3937007874015748
          },
          {
            "duration": 0.0625,
            "durationTicks": 48,
            "midi": 36,
            "name": "C2",
            "ticks": 40320,
            "time": 52.5,
            "velocity": 0.3937007874015748
          },
          {
            "duration": 0.0625,
            "durationTicks": 48,
            "midi": 24,
            "name": "C1",
            "ticks": 40320,
            "time": 52.5,
            "velocity": 0.3937007874015748
          },
          {
            "duration": 0.0625,
            "durationTicks": 48,
            "midi": 36,
            "name": "C2",
            "ticks": 40608,
            "time": 52.875,
            "velocity": 0.3937007874015748
          },
          {
            "duration": 0.0625,
            "durationTicks": 48,
            "midi": 24,
            "name": "C1",
            "ticks": 40608,
            "time": 52.875,
            "velocity": 0.3937007874015748
          },
          {
            "duration": 0.0625,
            "durationTicks": 48,
            "midi": 24,
            "name": "C1",
            "ticks": 40752,
            "time": 53.0625,
            "velocity": 0.3937007874015748
          },
          {
            "duration": 0.0625,
            "durationTicks": 48,
            "midi": 36,
            "name": "C2",
            "ticks": 40752,
            "time": 53.0625,
            "velocity": 0.3937007874015748
          },
          {
            "duration": 0.0625,
            "durationTicks": 48,
            "midi": 24,
            "name": "C1",
            "ticks": 41040,
            "time": 53.4375,
            "velocity": 0.3937007874015748
          },
          {
            "duration": 0.0625,
            "durationTicks": 48,
            "midi": 36,
            "name": "C2",
            "ticks": 41040,
            "time": 53.4375,
            "velocity": 0.3937007874015748
          },
          {
            "duration": 0.0625,
            "durationTicks": 48,
            "midi": 36,
            "name": "C2",
            "ticks": 41184,
            "time": 53.625,
            "velocity": 0.3937007874015748
          },
          {
            "duration": 0.0625,
            "durationTicks": 48,
            "midi": 24,
            "name": "C1",
            "ticks": 41184,
            "time": 53.625,
            "velocity": 0.3937007874015748
          },
          {
            "duration": 0.0625,
            "durationTicks": 48,
            "midi": 36,
            "name": "C2",
            "ticks": 41328,
            "time": 53.8125,
            "velocity": 0.3937007874015748
          },
          {
            "duration": 0.0625,
            "durationTicks": 48,
            "midi": 24,
            "name": "C1",
            "ticks": 41328,
            "time": 53.8125,
            "velocity": 0.3937007874015748
          },
          {
            "duration": 0.0625,
            "durationTicks": 48,
            "midi": 26,
            "name": "D1",
            "ticks": 41472,
            "time": 54,
            "velocity": 0.3937007874015748
          },
          {
            "duration": 0.0625,
            "durationTicks": 48,
            "midi": 38,
            "name": "D2",
            "ticks": 41472,
            "time": 54,
            "velocity": 0.3937007874015748
          },
          {
            "duration": 0.0625,
            "durationTicks": 48,
            "midi": 45,
            "name": "A2",
            "ticks": 41760,
            "time": 54.375,
            "velocity": 0.3937007874015748
          },
          {
            "duration": 0.0625,
            "durationTicks": 48,
            "midi": 33,
            "name": "A1",
            "ticks": 41760,
            "time": 54.375,
            "velocity": 0.3937007874015748
          },
          {
            "duration": 0.0625,
            "durationTicks": 48,
            "midi": 38,
            "name": "D2",
            "ticks": 41904,
            "time": 54.5625,
            "velocity": 0.3937007874015748
          },
          {
            "duration": 0.0625,
            "durationTicks": 48,
            "midi": 26,
            "name": "D1",
            "ticks": 41904,
            "time": 54.5625,
            "velocity": 0.3937007874015748
          },
          {
            "duration": 0.0625,
            "durationTicks": 48,
            "midi": 40,
            "name": "E2",
            "ticks": 42048,
            "time": 54.75,
            "velocity": 0.3937007874015748
          },
          {
            "duration": 0.0625,
            "durationTicks": 48,
            "midi": 28,
            "name": "E1",
            "ticks": 42048,
            "time": 54.75,
            "velocity": 0.3937007874015748
          },
          {
            "duration": 0.0625,
            "durationTicks": 48,
            "midi": 40,
            "name": "E2",
            "ticks": 42336,
            "time": 55.125,
            "velocity": 0.3937007874015748
          },
          {
            "duration": 0.0625,
            "durationTicks": 48,
            "midi": 28,
            "name": "E1",
            "ticks": 42336,
            "time": 55.125,
            "velocity": 0.3937007874015748
          },
          {
            "duration": 0.0625,
            "durationTicks": 48,
            "midi": 40,
            "name": "E2",
            "ticks": 42480,
            "time": 55.3125,
            "velocity": 0.3937007874015748
          },
          {
            "duration": 0.0625,
            "durationTicks": 48,
            "midi": 28,
            "name": "E1",
            "ticks": 42480,
            "time": 55.3125,
            "velocity": 0.3937007874015748
          },
          {
            "duration": 0.0625,
            "durationTicks": 48,
            "midi": 28,
            "name": "E1",
            "ticks": 42768,
            "time": 55.6875,
            "velocity": 0.3937007874015748
          },
          {
            "duration": 0.0625,
            "durationTicks": 48,
            "midi": 40,
            "name": "E2",
            "ticks": 42768,
            "time": 55.6875,
            "velocity": 0.3937007874015748
          },
          {
            "duration": 0.0625,
            "durationTicks": 48,
            "midi": 28,
            "name": "E1",
            "ticks": 42912,
            "time": 55.875,
            "velocity": 0.3937007874015748
          },
          {
            "duration": 0.0625,
            "durationTicks": 48,
            "midi": 40,
            "name": "E2",
            "ticks": 42912,
            "time": 55.875,
            "velocity": 0.3937007874015748
          },
          {
            "duration": 0.0625,
            "durationTicks": 48,
            "midi": 40,
            "name": "E2",
            "ticks": 43056,
            "time": 56.0625,
            "velocity": 0.3937007874015748
          },
          {
            "duration": 0.0625,
            "durationTicks": 48,
            "midi": 28,
            "name": "E1",
            "ticks": 43056,
            "time": 56.0625,
            "velocity": 0.3937007874015748
          },
          {
            "duration": 0.0625,
            "durationTicks": 48,
            "midi": 31,
            "name": "G1",
            "ticks": 44352,
            "time": 57.75,
            "velocity": 0.3937007874015748
          },
          {
            "duration": 0.0625,
            "durationTicks": 48,
            "midi": 31,
            "name": "G1",
            "ticks": 44352,
            "time": 57.75,
            "velocity": 0.3937007874015748
          },
          {
            "duration": 0.0625,
            "durationTicks": 48,
            "midi": 31,
            "name": "G1",
            "ticks": 44640,
            "time": 58.125,
            "velocity": 0.3937007874015748
          },
          {
            "duration": 0.0625,
            "durationTicks": 48,
            "midi": 31,
            "name": "G1",
            "ticks": 44640,
            "time": 58.125,
            "velocity": 0.3937007874015748
          },
          {
            "duration": 0.0625,
            "durationTicks": 48,
            "midi": 31,
            "name": "G1",
            "ticks": 44784,
            "time": 58.3125,
            "velocity": 0.3937007874015748
          },
          {
            "duration": 0.0625,
            "durationTicks": 48,
            "midi": 31,
            "name": "G1",
            "ticks": 44784,
            "time": 58.3125,
            "velocity": 0.3937007874015748
          },
          {
            "duration": 0.0625,
            "durationTicks": 48,
            "midi": 31,
            "name": "G1",
            "ticks": 45072,
            "time": 58.6875,
            "velocity": 0.3937007874015748
          },
          {
            "duration": 0.0625,
            "durationTicks": 48,
            "midi": 31,
            "name": "G1",
            "ticks": 45072,
            "time": 58.6875,
            "velocity": 0.3937007874015748
          },
          {
            "duration": 0.0625,
            "durationTicks": 48,
            "midi": 31,
            "name": "G1",
            "ticks": 45216,
            "time": 58.875,
            "velocity": 0.3937007874015748
          },
          {
            "duration": 0.0625,
            "durationTicks": 48,
            "midi": 31,
            "name": "G1",
            "ticks": 45216,
            "time": 58.875,
            "velocity": 0.3937007874015748
          },
          {
            "duration": 0.0625,
            "durationTicks": 48,
            "midi": 31,
            "name": "G1",
            "ticks": 45360,
            "time": 59.0625,
            "velocity": 0.3937007874015748
          },
          {
            "duration": 0.0625,
            "durationTicks": 48,
            "midi": 31,
            "name": "G1",
            "ticks": 45360,
            "time": 59.0625,
            "velocity": 0.3937007874015748
          },
          {
            "duration": 0.0625,
            "durationTicks": 48,
            "midi": 24,
            "name": "C1",
            "ticks": 45504,
            "time": 59.25,
            "velocity": 0.3937007874015748
          },
          {
            "duration": 0.0625,
            "durationTicks": 48,
            "midi": 36,
            "name": "C2",
            "ticks": 45504,
            "time": 59.25,
            "velocity": 0.3937007874015748
          },
          {
            "duration": 0.0625,
            "durationTicks": 48,
            "midi": 36,
            "name": "C2",
            "ticks": 45792,
            "time": 59.625,
            "velocity": 0.3937007874015748
          },
          {
            "duration": 0.0625,
            "durationTicks": 48,
            "midi": 24,
            "name": "C1",
            "ticks": 45792,
            "time": 59.625,
            "velocity": 0.3937007874015748
          },
          {
            "duration": 0.0625,
            "durationTicks": 48,
            "midi": 24,
            "name": "C1",
            "ticks": 45936,
            "time": 59.8125,
            "velocity": 0.3937007874015748
          },
          {
            "duration": 0.0625,
            "durationTicks": 48,
            "midi": 36,
            "name": "C2",
            "ticks": 45936,
            "time": 59.8125,
            "velocity": 0.3937007874015748
          },
          {
            "duration": 0.0625,
            "durationTicks": 48,
            "midi": 24,
            "name": "C1",
            "ticks": 46224,
            "time": 60.1875,
            "velocity": 0.3937007874015748
          },
          {
            "duration": 0.0625,
            "durationTicks": 48,
            "midi": 36,
            "name": "C2",
            "ticks": 46224,
            "time": 60.1875,
            "velocity": 0.3937007874015748
          },
          {
            "duration": 0.0625,
            "durationTicks": 48,
            "midi": 36,
            "name": "C2",
            "ticks": 46368,
            "time": 60.375,
            "velocity": 0.3937007874015748
          },
          {
            "duration": 0.0625,
            "durationTicks": 48,
            "midi": 24,
            "name": "C1",
            "ticks": 46368,
            "time": 60.375,
            "velocity": 0.3937007874015748
          },
          {
            "duration": 0.0625,
            "durationTicks": 48,
            "midi": 36,
            "name": "C2",
            "ticks": 46512,
            "time": 60.5625,
            "velocity": 0.3937007874015748
          },
          {
            "duration": 0.0625,
            "durationTicks": 48,
            "midi": 24,
            "name": "C1",
            "ticks": 46512,
            "time": 60.5625,
            "velocity": 0.3937007874015748
          },
          {
            "duration": 0.0625,
            "durationTicks": 48,
            "midi": 36,
            "name": "C2",
            "ticks": 46656,
            "time": 60.75,
            "velocity": 0.3937007874015748
          },
          {
            "duration": 0.0625,
            "durationTicks": 48,
            "midi": 24,
            "name": "C1",
            "ticks": 46656,
            "time": 60.75,
            "velocity": 0.3937007874015748
          },
          {
            "duration": 0.0625,
            "durationTicks": 48,
            "midi": 36,
            "name": "C2",
            "ticks": 46944,
            "time": 61.125,
            "velocity": 0.3937007874015748
          },
          {
            "duration": 0.0625,
            "durationTicks": 48,
            "midi": 24,
            "name": "C1",
            "ticks": 46944,
            "time": 61.125,
            "velocity": 0.3937007874015748
          },
          {
            "duration": 0.0625,
            "durationTicks": 48,
            "midi": 36,
            "name": "C2",
            "ticks": 47088,
            "time": 61.3125,
            "velocity": 0.3937007874015748
          },
          {
            "duration": 0.0625,
            "durationTicks": 48,
            "midi": 24,
            "name": "C1",
            "ticks": 47088,
            "time": 61.3125,
            "velocity": 0.3937007874015748
          },
          {
            "duration": 0.0625,
            "durationTicks": 48,
            "midi": 24,
            "name": "C1",
            "ticks": 47376,
            "time": 61.6875,
            "velocity": 0.3937007874015748
          },
          {
            "duration": 0.0625,
            "durationTicks": 48,
            "midi": 36,
            "name": "C2",
            "ticks": 47376,
            "time": 61.6875,
            "velocity": 0.3937007874015748
          },
          {
            "duration": 0.0625,
            "durationTicks": 48,
            "midi": 36,
            "name": "C2",
            "ticks": 47520,
            "time": 61.875,
            "velocity": 0.3937007874015748
          },
          {
            "duration": 0.0625,
            "durationTicks": 48,
            "midi": 24,
            "name": "C1",
            "ticks": 47520,
            "time": 61.875,
            "velocity": 0.3937007874015748
          },
          {
            "duration": 0.0625,
            "durationTicks": 48,
            "midi": 24,
            "name": "C1",
            "ticks": 47664,
            "time": 62.0625,
            "velocity": 0.3937007874015748
          },
          {
            "duration": 0.0625,
            "durationTicks": 48,
            "midi": 36,
            "name": "C2",
            "ticks": 47664,
            "time": 62.0625,
            "velocity": 0.3937007874015748
          },
          {
            "duration": 0.0625,
            "durationTicks": 48,
            "midi": 26,
            "name": "D1",
            "ticks": 47808,
            "time": 62.25,
            "velocity": 0.3937007874015748
          },
          {
            "duration": 0.0625,
            "durationTicks": 48,
            "midi": 38,
            "name": "D2",
            "ticks": 47808,
            "time": 62.25,
            "velocity": 0.3937007874015748
          },
          {
            "duration": 0.0625,
            "durationTicks": 48,
            "midi": 33,
            "name": "A1",
            "ticks": 48096,
            "time": 62.625,
            "velocity": 0.3937007874015748
          },
          {
            "duration": 0.0625,
            "durationTicks": 48,
            "midi": 45,
            "name": "A2",
            "ticks": 48096,
            "time": 62.625,
            "velocity": 0.3937007874015748
          },
          {
            "duration": 0.0625,
            "durationTicks": 48,
            "midi": 38,
            "name": "D2",
            "ticks": 48240,
            "time": 62.8125,
            "velocity": 0.3937007874015748
          },
          {
            "duration": 0.0625,
            "durationTicks": 48,
            "midi": 26,
            "name": "D1",
            "ticks": 48240,
            "time": 62.8125,
            "velocity": 0.3937007874015748
          },
          {
            "duration": 0.0625,
            "durationTicks": 48,
            "midi": 28,
            "name": "E1",
            "ticks": 48384,
            "time": 63,
            "velocity": 0.3937007874015748
          },
          {
            "duration": 0.0625,
            "durationTicks": 48,
            "midi": 40,
            "name": "E2",
            "ticks": 48384,
            "time": 63,
            "velocity": 0.3937007874015748
          },
          {
            "duration": 0.0625,
            "durationTicks": 48,
            "midi": 28,
            "name": "E1",
            "ticks": 48672,
            "time": 63.375,
            "velocity": 0.3937007874015748
          },
          {
            "duration": 0.0625,
            "durationTicks": 48,
            "midi": 40,
            "name": "E2",
            "ticks": 48672,
            "time": 63.375,
            "velocity": 0.3937007874015748
          },
          {
            "duration": 0.0625,
            "durationTicks": 48,
            "midi": 28,
            "name": "E1",
            "ticks": 48816,
            "time": 63.5625,
            "velocity": 0.3937007874015748
          },
          {
            "duration": 0.0625,
            "durationTicks": 48,
            "midi": 40,
            "name": "E2",
            "ticks": 48816,
            "time": 63.5625,
            "velocity": 0.3937007874015748
          },
          {
            "duration": 0.0625,
            "durationTicks": 48,
            "midi": 28,
            "name": "E1",
            "ticks": 49104,
            "time": 63.9375,
            "velocity": 0.3937007874015748
          },
          {
            "duration": 0.0625,
            "durationTicks": 48,
            "midi": 40,
            "name": "E2",
            "ticks": 49104,
            "time": 63.9375,
            "velocity": 0.3937007874015748
          },
          {
            "duration": 0.0625,
            "durationTicks": 48,
            "midi": 40,
            "name": "E2",
            "ticks": 49248,
            "time": 64.125,
            "velocity": 0.3937007874015748
          },
          {
            "duration": 0.0625,
            "durationTicks": 48,
            "midi": 28,
            "name": "E1",
            "ticks": 49248,
            "time": 64.125,
            "velocity": 0.3937007874015748
          },
          {
            "duration": 0.0625,
            "durationTicks": 48,
            "midi": 28,
            "name": "E1",
            "ticks": 49392,
            "time": 64.3125,
            "velocity": 0.3937007874015748
          },
          {
            "duration": 0.0625,
            "durationTicks": 48,
            "midi": 40,
            "name": "E2",
            "ticks": 49392,
            "time": 64.3125,
            "velocity": 0.3937007874015748
          },
          {
            "duration": 0.0625,
            "durationTicks": 48,
            "midi": 31,
            "name": "G1",
            "ticks": 50688,
            "time": 66,
            "velocity": 0.3937007874015748
          },
          {
            "duration": 0.0625,
            "durationTicks": 48,
            "midi": 31,
            "name": "G1",
            "ticks": 50688,
            "time": 66,
            "velocity": 0.3937007874015748
          },
          {
            "duration": 0.0625,
            "durationTicks": 48,
            "midi": 31,
            "name": "G1",
            "ticks": 50976,
            "time": 66.375,
            "velocity": 0.3937007874015748
          },
          {
            "duration": 0.0625,
            "durationTicks": 48,
            "midi": 31,
            "name": "G1",
            "ticks": 50976,
            "time": 66.375,
            "velocity": 0.3937007874015748
          },
          {
            "duration": 0.0625,
            "durationTicks": 48,
            "midi": 31,
            "name": "G1",
            "ticks": 51120,
            "time": 66.5625,
            "velocity": 0.3937007874015748
          },
          {
            "duration": 0.0625,
            "durationTicks": 48,
            "midi": 31,
            "name": "G1",
            "ticks": 51120,
            "time": 66.5625,
            "velocity": 0.3937007874015748
          },
          {
            "duration": 0.0625,
            "durationTicks": 48,
            "midi": 31,
            "name": "G1",
            "ticks": 51408,
            "time": 66.9375,
            "velocity": 0.3937007874015748
          },
          {
            "duration": 0.0625,
            "durationTicks": 48,
            "midi": 31,
            "name": "G1",
            "ticks": 51408,
            "time": 66.9375,
            "velocity": 0.3937007874015748
          },
          {
            "duration": 0.0625,
            "durationTicks": 48,
            "midi": 31,
            "name": "G1",
            "ticks": 51552,
            "time": 67.125,
            "velocity": 0.3937007874015748
          },
          {
            "duration": 0.0625,
            "durationTicks": 48,
            "midi": 31,
            "name": "G1",
            "ticks": 51552,
            "time": 67.125,
            "velocity": 0.3937007874015748
          },
          {
            "duration": 0.0625,
            "durationTicks": 48,
            "midi": 31,
            "name": "G1",
            "ticks": 51696,
            "time": 67.3125,
            "velocity": 0.3937007874015748
          },
          {
            "duration": 0.0625,
            "durationTicks": 48,
            "midi": 31,
            "name": "G1",
            "ticks": 51696,
            "time": 67.3125,
            "velocity": 0.3937007874015748
          },
          {
            "duration": 0.0625,
            "durationTicks": 48,
            "midi": 24,
            "name": "C1",
            "ticks": 51840,
            "time": 67.5,
            "velocity": 0.3937007874015748
          },
          {
            "duration": 0.0625,
            "durationTicks": 48,
            "midi": 36,
            "name": "C2",
            "ticks": 51840,
            "time": 67.5,
            "velocity": 0.3937007874015748
          },
          {
            "duration": 0.0625,
            "durationTicks": 48,
            "midi": 36,
            "name": "C2",
            "ticks": 52128,
            "time": 67.875,
            "velocity": 0.3937007874015748
          },
          {
            "duration": 0.0625,
            "durationTicks": 48,
            "midi": 24,
            "name": "C1",
            "ticks": 52128,
            "time": 67.875,
            "velocity": 0.3937007874015748
          },
          {
            "duration": 0.0625,
            "durationTicks": 48,
            "midi": 24,
            "name": "C1",
            "ticks": 52272,
            "time": 68.0625,
            "velocity": 0.3937007874015748
          },
          {
            "duration": 0.0625,
            "durationTicks": 48,
            "midi": 36,
            "name": "C2",
            "ticks": 52272,
            "time": 68.0625,
            "velocity": 0.3937007874015748
          },
          {
            "duration": 0.0625,
            "durationTicks": 48,
            "midi": 36,
            "name": "C2",
            "ticks": 52560,
            "time": 68.4375,
            "velocity": 0.3937007874015748
          },
          {
            "duration": 0.0625,
            "durationTicks": 48,
            "midi": 24,
            "name": "C1",
            "ticks": 52560,
            "time": 68.4375,
            "velocity": 0.3937007874015748
          },
          {
            "duration": 0.0625,
            "durationTicks": 48,
            "midi": 36,
            "name": "C2",
            "ticks": 52704,
            "time": 68.625,
            "velocity": 0.3937007874015748
          },
          {
            "duration": 0.0625,
            "durationTicks": 48,
            "midi": 24,
            "name": "C1",
            "ticks": 52704,
            "time": 68.625,
            "velocity": 0.3937007874015748
          },
          {
            "duration": 0.0625,
            "durationTicks": 48,
            "midi": 24,
            "name": "C1",
            "ticks": 52848,
            "time": 68.8125,
            "velocity": 0.3937007874015748
          },
          {
            "duration": 0.0625,
            "durationTicks": 48,
            "midi": 36,
            "name": "C2",
            "ticks": 52848,
            "time": 68.8125,
            "velocity": 0.3937007874015748
          },
          {
            "duration": 0.0625,
            "durationTicks": 48,
            "midi": 36,
            "name": "C2",
            "ticks": 52992,
            "time": 69,
            "velocity": 0.3937007874015748
          },
          {
            "duration": 0.0625,
            "durationTicks": 48,
            "midi": 24,
            "name": "C1",
            "ticks": 52992,
            "time": 69,
            "velocity": 0.3937007874015748
          },
          {
            "duration": 0.0625,
            "durationTicks": 48,
            "midi": 36,
            "name": "C2",
            "ticks": 53280,
            "time": 69.375,
            "velocity": 0.3937007874015748
          },
          {
            "duration": 0.0625,
            "durationTicks": 48,
            "midi": 24,
            "name": "C1",
            "ticks": 53280,
            "time": 69.375,
            "velocity": 0.3937007874015748
          },
          {
            "duration": 0.0625,
            "durationTicks": 48,
            "midi": 24,
            "name": "C1",
            "ticks": 53424,
            "time": 69.5625,
            "velocity": 0.3937007874015748
          },
          {
            "duration": 0.0625,
            "durationTicks": 48,
            "midi": 36,
            "name": "C2",
            "ticks": 53424,
            "time": 69.5625,
            "velocity": 0.3937007874015748
          },
          {
            "duration": 0.0625,
            "durationTicks": 48,
            "midi": 36,
            "name": "C2",
            "ticks": 53712,
            "time": 69.9375,
            "velocity": 0.3937007874015748
          },
          {
            "duration": 0.0625,
            "durationTicks": 48,
            "midi": 24,
            "name": "C1",
            "ticks": 53712,
            "time": 69.9375,
            "velocity": 0.3937007874015748
          },
          {
            "duration": 0.0625,
            "durationTicks": 48,
            "midi": 24,
            "name": "C1",
            "ticks": 53856,
            "time": 70.125,
            "velocity": 0.3937007874015748
          },
          {
            "duration": 0.0625,
            "durationTicks": 48,
            "midi": 36,
            "name": "C2",
            "ticks": 53856,
            "time": 70.125,
            "velocity": 0.3937007874015748
          },
          {
            "duration": 0.0625,
            "durationTicks": 48,
            "midi": 36,
            "name": "C2",
            "ticks": 54000,
            "time": 70.3125,
            "velocity": 0.3937007874015748
          },
          {
            "duration": 0.0625,
            "durationTicks": 48,
            "midi": 24,
            "name": "C1",
            "ticks": 54000,
            "time": 70.3125,
            "velocity": 0.3937007874015748
          },
          {
            "duration": 0.0625,
            "durationTicks": 48,
            "midi": 26,
            "name": "D1",
            "ticks": 54144,
            "time": 70.5,
            "velocity": 0.3937007874015748
          },
          {
            "duration": 0.0625,
            "durationTicks": 48,
            "midi": 38,
            "name": "D2",
            "ticks": 54144,
            "time": 70.5,
            "velocity": 0.3937007874015748
          },
          {
            "duration": 0.0625,
            "durationTicks": 48,
            "midi": 33,
            "name": "A1",
            "ticks": 54432,
            "time": 70.875,
            "velocity": 0.3937007874015748
          },
          {
            "duration": 0.0625,
            "durationTicks": 48,
            "midi": 45,
            "name": "A2",
            "ticks": 54432,
            "time": 70.875,
            "velocity": 0.3937007874015748
          },
          {
            "duration": 0.0625,
            "durationTicks": 48,
            "midi": 26,
            "name": "D1",
            "ticks": 54576,
            "time": 71.0625,
            "velocity": 0.3937007874015748
          },
          {
            "duration": 0.0625,
            "durationTicks": 48,
            "midi": 38,
            "name": "D2",
            "ticks": 54576,
            "time": 71.0625,
            "velocity": 0.3937007874015748
          },
          {
            "duration": 0.0625,
            "durationTicks": 48,
            "midi": 40,
            "name": "E2",
            "ticks": 54720,
            "time": 71.25,
            "velocity": 0.3937007874015748
          },
          {
            "duration": 0.0625,
            "durationTicks": 48,
            "midi": 28,
            "name": "E1",
            "ticks": 54720,
            "time": 71.25,
            "velocity": 0.3937007874015748
          },
          {
            "duration": 0.0625,
            "durationTicks": 48,
            "midi": 40,
            "name": "E2",
            "ticks": 55008,
            "time": 71.625,
            "velocity": 0.3937007874015748
          },
          {
            "duration": 0.0625,
            "durationTicks": 48,
            "midi": 28,
            "name": "E1",
            "ticks": 55008,
            "time": 71.625,
            "velocity": 0.3937007874015748
          },
          {
            "duration": 0.0625,
            "durationTicks": 48,
            "midi": 28,
            "name": "E1",
            "ticks": 55152,
            "time": 71.8125,
            "velocity": 0.3937007874015748
          },
          {
            "duration": 0.0625,
            "durationTicks": 48,
            "midi": 40,
            "name": "E2",
            "ticks": 55152,
            "time": 71.8125,
            "velocity": 0.3937007874015748
          },
          {
            "duration": 0.0625,
            "durationTicks": 48,
            "midi": 40,
            "name": "E2",
            "ticks": 55440,
            "time": 72.1875,
            "velocity": 0.3937007874015748
          },
          {
            "duration": 0.0625,
            "durationTicks": 48,
            "midi": 28,
            "name": "E1",
            "ticks": 55440,
            "time": 72.1875,
            "velocity": 0.3937007874015748
          },
          {
            "duration": 0.0625,
            "durationTicks": 48,
            "midi": 40,
            "name": "E2",
            "ticks": 55584,
            "time": 72.375,
            "velocity": 0.3937007874015748
          },
          {
            "duration": 0.0625,
            "durationTicks": 48,
            "midi": 28,
            "name": "E1",
            "ticks": 55584,
            "time": 72.375,
            "velocity": 0.3937007874015748
          },
          {
            "duration": 0.0625,
            "durationTicks": 48,
            "midi": 40,
            "name": "E2",
            "ticks": 55728,
            "time": 72.5625,
            "velocity": 0.3937007874015748
          },
          {
            "duration": 0.0625,
            "durationTicks": 48,
            "midi": 28,
            "name": "E1",
            "ticks": 55728,
            "time": 72.5625,
            "velocity": 0.3937007874015748
          },
          {
            "duration": 0.0625,
            "durationTicks": 48,
            "midi": 31,
            "name": "G1",
            "ticks": 57024,
            "time": 74.25,
            "velocity": 0.3937007874015748
          },
          {
            "duration": 0.0625,
            "durationTicks": 48,
            "midi": 31,
            "name": "G1",
            "ticks": 57024,
            "time": 74.25,
            "velocity": 0.3937007874015748
          },
          {
            "duration": 0.0625,
            "durationTicks": 48,
            "midi": 31,
            "name": "G1",
            "ticks": 57312,
            "time": 74.625,
            "velocity": 0.3937007874015748
          },
          {
            "duration": 0.0625,
            "durationTicks": 48,
            "midi": 31,
            "name": "G1",
            "ticks": 57312,
            "time": 74.625,
            "velocity": 0.3937007874015748
          },
          {
            "duration": 0.0625,
            "durationTicks": 48,
            "midi": 31,
            "name": "G1",
            "ticks": 57456,
            "time": 74.8125,
            "velocity": 0.3937007874015748
          },
          {
            "duration": 0.0625,
            "durationTicks": 48,
            "midi": 31,
            "name": "G1",
            "ticks": 57456,
            "time": 74.8125,
            "velocity": 0.3937007874015748
          },
          {
            "duration": 0.0625,
            "durationTicks": 48,
            "midi": 31,
            "name": "G1",
            "ticks": 57744,
            "time": 75.1875,
            "velocity": 0.3937007874015748
          },
          {
            "duration": 0.0625,
            "durationTicks": 48,
            "midi": 31,
            "name": "G1",
            "ticks": 57744,
            "time": 75.1875,
            "velocity": 0.3937007874015748
          },
          {
            "duration": 0.0625,
            "durationTicks": 48,
            "midi": 31,
            "name": "G1",
            "ticks": 57888,
            "time": 75.375,
            "velocity": 0.3937007874015748
          },
          {
            "duration": 0.0625,
            "durationTicks": 48,
            "midi": 31,
            "name": "G1",
            "ticks": 57888,
            "time": 75.375,
            "velocity": 0.3937007874015748
          },
          {
            "duration": 0.0625,
            "durationTicks": 48,
            "midi": 31,
            "name": "G1",
            "ticks": 58032,
            "time": 75.5625,
            "velocity": 0.3937007874015748
          },
          {
            "duration": 0.0625,
            "durationTicks": 48,
            "midi": 31,
            "name": "G1",
            "ticks": 58032,
            "time": 75.5625,
            "velocity": 0.3937007874015748
          },
          {
            "duration": 0.0625,
            "durationTicks": 48,
            "midi": 24,
            "name": "C1",
            "ticks": 58176,
            "time": 75.75,
            "velocity": 0.3937007874015748
          },
          {
            "duration": 0.0625,
            "durationTicks": 48,
            "midi": 36,
            "name": "C2",
            "ticks": 58176,
            "time": 75.75,
            "velocity": 0.3937007874015748
          },
          {
            "duration": 0.0625,
            "durationTicks": 48,
            "midi": 36,
            "name": "C2",
            "ticks": 58464,
            "time": 76.125,
            "velocity": 0.3937007874015748
          },
          {
            "duration": 0.0625,
            "durationTicks": 48,
            "midi": 24,
            "name": "C1",
            "ticks": 58464,
            "time": 76.125,
            "velocity": 0.3937007874015748
          },
          {
            "duration": 0.0625,
            "durationTicks": 48,
            "midi": 24,
            "name": "C1",
            "ticks": 58608,
            "time": 76.3125,
            "velocity": 0.3937007874015748
          },
          {
            "duration": 0.0625,
            "durationTicks": 48,
            "midi": 36,
            "name": "C2",
            "ticks": 58608,
            "time": 76.3125,
            "velocity": 0.3937007874015748
          },
          {
            "duration": 0.0625,
            "durationTicks": 48,
            "midi": 36,
            "name": "C2",
            "ticks": 58896,
            "time": 76.6875,
            "velocity": 0.3937007874015748
          },
          {
            "duration": 0.0625,
            "durationTicks": 48,
            "midi": 24,
            "name": "C1",
            "ticks": 58896,
            "time": 76.6875,
            "velocity": 0.3937007874015748
          },
          {
            "duration": 0.0625,
            "durationTicks": 48,
            "midi": 36,
            "name": "C2",
            "ticks": 59040,
            "time": 76.875,
            "velocity": 0.3937007874015748
          },
          {
            "duration": 0.0625,
            "durationTicks": 48,
            "midi": 24,
            "name": "C1",
            "ticks": 59040,
            "time": 76.875,
            "velocity": 0.3937007874015748
          },
          {
            "duration": 0.0625,
            "durationTicks": 48,
            "midi": 36,
            "name": "C2",
            "ticks": 59184,
            "time": 77.0625,
            "velocity": 0.3937007874015748
          },
          {
            "duration": 0.0625,
            "durationTicks": 48,
            "midi": 24,
            "name": "C1",
            "ticks": 59184,
            "time": 77.0625,
            "velocity": 0.3937007874015748
          },
          {
            "duration": 0.0625,
            "durationTicks": 48,
            "midi": 24,
            "name": "C1",
            "ticks": 59328,
            "time": 77.25,
            "velocity": 0.3937007874015748
          },
          {
            "duration": 0.0625,
            "durationTicks": 48,
            "midi": 36,
            "name": "C2",
            "ticks": 59328,
            "time": 77.25,
            "velocity": 0.3937007874015748
          },
          {
            "duration": 0.0625,
            "durationTicks": 48,
            "midi": 24,
            "name": "C1",
            "ticks": 59616,
            "time": 77.625,
            "velocity": 0.3937007874015748
          },
          {
            "duration": 0.0625,
            "durationTicks": 48,
            "midi": 36,
            "name": "C2",
            "ticks": 59616,
            "time": 77.625,
            "velocity": 0.3937007874015748
          },
          {
            "duration": 0.0625,
            "durationTicks": 48,
            "midi": 36,
            "name": "C2",
            "ticks": 59760,
            "time": 77.8125,
            "velocity": 0.3937007874015748
          },
          {
            "duration": 0.0625,
            "durationTicks": 48,
            "midi": 24,
            "name": "C1",
            "ticks": 59760,
            "time": 77.8125,
            "velocity": 0.3937007874015748
          },
          {
            "duration": 0.0625,
            "durationTicks": 48,
            "midi": 24,
            "name": "C1",
            "ticks": 60048,
            "time": 78.1875,
            "velocity": 0.3937007874015748
          },
          {
            "duration": 0.0625,
            "durationTicks": 48,
            "midi": 36,
            "name": "C2",
            "ticks": 60048,
            "time": 78.1875,
            "velocity": 0.3937007874015748
          },
          {
            "duration": 0.0625,
            "durationTicks": 48,
            "midi": 36,
            "name": "C2",
            "ticks": 60192,
            "time": 78.375,
            "velocity": 0.3937007874015748
          },
          {
            "duration": 0.0625,
            "durationTicks": 48,
            "midi": 24,
            "name": "C1",
            "ticks": 60192,
            "time": 78.375,
            "velocity": 0.3937007874015748
          },
          {
            "duration": 0.0625,
            "durationTicks": 48,
            "midi": 24,
            "name": "C1",
            "ticks": 60336,
            "time": 78.5625,
            "velocity": 0.3937007874015748
          },
          {
            "duration": 0.0625,
            "durationTicks": 48,
            "midi": 36,
            "name": "C2",
            "ticks": 60336,
            "time": 78.5625,
            "velocity": 0.3937007874015748
          },
          {
            "duration": 0.0625,
            "durationTicks": 48,
            "midi": 26,
            "name": "D1",
            "ticks": 60480,
            "time": 78.75,
            "velocity": 0.3937007874015748
          },
          {
            "duration": 0.0625,
            "durationTicks": 48,
            "midi": 38,
            "name": "D2",
            "ticks": 60480,
            "time": 78.75,
            "velocity": 0.3937007874015748
          },
          {
            "duration": 0.0625,
            "durationTicks": 48,
            "midi": 45,
            "name": "A2",
            "ticks": 60768,
            "time": 79.125,
            "velocity": 0.3937007874015748
          },
          {
            "duration": 0.0625,
            "durationTicks": 48,
            "midi": 33,
            "name": "A1",
            "ticks": 60768,
            "time": 79.125,
            "velocity": 0.3937007874015748
          },
          {
            "duration": 0.0625,
            "durationTicks": 48,
            "midi": 26,
            "name": "D1",
            "ticks": 60912,
            "time": 79.3125,
            "velocity": 0.3937007874015748
          },
          {
            "duration": 0.0625,
            "durationTicks": 48,
            "midi": 38,
            "name": "D2",
            "ticks": 60912,
            "time": 79.3125,
            "velocity": 0.3937007874015748
          },
          {
            "duration": 0.0625,
            "durationTicks": 48,
            "midi": 28,
            "name": "E1",
            "ticks": 61056,
            "time": 79.5,
            "velocity": 0.3937007874015748
          },
          {
            "duration": 0.0625,
            "durationTicks": 48,
            "midi": 40,
            "name": "E2",
            "ticks": 61056,
            "time": 79.5,
            "velocity": 0.3937007874015748
          },
          {
            "duration": 0.0625,
            "durationTicks": 48,
            "midi": 40,
            "name": "E2",
            "ticks": 61344,
            "time": 79.875,
            "velocity": 0.3937007874015748
          },
          {
            "duration": 0.0625,
            "durationTicks": 48,
            "midi": 28,
            "name": "E1",
            "ticks": 61344,
            "time": 79.875,
            "velocity": 0.3937007874015748
          },
          {
            "duration": 0.0625,
            "durationTicks": 48,
            "midi": 28,
            "name": "E1",
            "ticks": 61488,
            "time": 80.0625,
            "velocity": 0.3937007874015748
          },
          {
            "duration": 0.0625,
            "durationTicks": 48,
            "midi": 40,
            "name": "E2",
            "ticks": 61488,
            "time": 80.0625,
            "velocity": 0.3937007874015748
          },
          {
            "duration": 0.0625,
            "durationTicks": 48,
            "midi": 28,
            "name": "E1",
            "ticks": 61776,
            "time": 80.4375,
            "velocity": 0.3937007874015748
          },
          {
            "duration": 0.0625,
            "durationTicks": 48,
            "midi": 40,
            "name": "E2",
            "ticks": 61776,
            "time": 80.4375,
            "velocity": 0.3937007874015748
          },
          {
            "duration": 0.0625,
            "durationTicks": 48,
            "midi": 28,
            "name": "E1",
            "ticks": 61920,
            "time": 80.625,
            "velocity": 0.3937007874015748
          },
          {
            "duration": 0.0625,
            "durationTicks": 48,
            "midi": 40,
            "name": "E2",
            "ticks": 61920,
            "time": 80.625,
            "velocity": 0.3937007874015748
          },
          {
            "duration": 0.0625,
            "durationTicks": 48,
            "midi": 28,
            "name": "E1",
            "ticks": 62064,
            "time": 80.8125,
            "velocity": 0.3937007874015748
          },
          {
            "duration": 0.0625,
            "durationTicks": 48,
            "midi": 40,
            "name": "E2",
            "ticks": 62064,
            "time": 80.8125,
            "velocity": 0.3937007874015748
          },
          {
            "duration": 0.0625,
            "durationTicks": 48,
            "midi": 31,
            "name": "G1",
            "ticks": 63360,
            "time": 82.5,
            "velocity": 0.3937007874015748
          },
          {
            "duration": 0.0625,
            "durationTicks": 48,
            "midi": 31,
            "name": "G1",
            "ticks": 63360,
            "time": 82.5,
            "velocity": 0.3937007874015748
          },
          {
            "duration": 0.0625,
            "durationTicks": 48,
            "midi": 31,
            "name": "G1",
            "ticks": 63648,
            "time": 82.875,
            "velocity": 0.3937007874015748
          },
          {
            "duration": 0.0625,
            "durationTicks": 48,
            "midi": 31,
            "name": "G1",
            "ticks": 63648,
            "time": 82.875,
            "velocity": 0.3937007874015748
          },
          {
            "duration": 0.0625,
            "durationTicks": 48,
            "midi": 31,
            "name": "G1",
            "ticks": 63792,
            "time": 83.0625,
            "velocity": 0.3937007874015748
          },
          {
            "duration": 0.0625,
            "durationTicks": 48,
            "midi": 31,
            "name": "G1",
            "ticks": 63792,
            "time": 83.0625,
            "velocity": 0.3937007874015748
          },
          {
            "duration": 0.0625,
            "durationTicks": 48,
            "midi": 31,
            "name": "G1",
            "ticks": 64080,
            "time": 83.4375,
            "velocity": 0.3937007874015748
          },
          {
            "duration": 0.0625,
            "durationTicks": 48,
            "midi": 31,
            "name": "G1",
            "ticks": 64080,
            "time": 83.4375,
            "velocity": 0.3937007874015748
          },
          {
            "duration": 0.0625,
            "durationTicks": 48,
            "midi": 31,
            "name": "G1",
            "ticks": 64224,
            "time": 83.625,
            "velocity": 0.3937007874015748
          },
          {
            "duration": 0.0625,
            "durationTicks": 48,
            "midi": 31,
            "name": "G1",
            "ticks": 64224,
            "time": 83.625,
            "velocity": 0.3937007874015748
          },
          {
            "duration": 0.0625,
            "durationTicks": 48,
            "midi": 31,
            "name": "G1",
            "ticks": 64368,
            "time": 83.8125,
            "velocity": 0.3937007874015748
          },
          {
            "duration": 0.0625,
            "durationTicks": 48,
            "midi": 31,
            "name": "G1",
            "ticks": 64368,
            "time": 83.8125,
            "velocity": 0.3937007874015748
          },
          {
            "duration": 0.0625,
            "durationTicks": 48,
            "midi": 24,
            "name": "C1",
            "ticks": 64512,
            "time": 84,
            "velocity": 0.3937007874015748
          },
          {
            "duration": 0.0625,
            "durationTicks": 48,
            "midi": 36,
            "name": "C2",
            "ticks": 64512,
            "time": 84,
            "velocity": 0.3937007874015748
          },
          {
            "duration": 0.0625,
            "durationTicks": 48,
            "midi": 36,
            "name": "C2",
            "ticks": 64800,
            "time": 84.375,
            "velocity": 0.3937007874015748
          },
          {
            "duration": 0.0625,
            "durationTicks": 48,
            "midi": 24,
            "name": "C1",
            "ticks": 64800,
            "time": 84.375,
            "velocity": 0.3937007874015748
          },
          {
            "duration": 0.0625,
            "durationTicks": 48,
            "midi": 24,
            "name": "C1",
            "ticks": 64944,
            "time": 84.5625,
            "velocity": 0.3937007874015748
          },
          {
            "duration": 0.0625,
            "durationTicks": 48,
            "midi": 36,
            "name": "C2",
            "ticks": 64944,
            "time": 84.5625,
            "velocity": 0.3937007874015748
          },
          {
            "duration": 0.0625,
            "durationTicks": 48,
            "midi": 24,
            "name": "C1",
            "ticks": 65232,
            "time": 84.9375,
            "velocity": 0.3937007874015748
          },
          {
            "duration": 0.0625,
            "durationTicks": 48,
            "midi": 36,
            "name": "C2",
            "ticks": 65232,
            "time": 84.9375,
            "velocity": 0.3937007874015748
          },
          {
            "duration": 0.0625,
            "durationTicks": 48,
            "midi": 24,
            "name": "C1",
            "ticks": 65376,
            "time": 85.125,
            "velocity": 0.3937007874015748
          },
          {
            "duration": 0.0625,
            "durationTicks": 48,
            "midi": 36,
            "name": "C2",
            "ticks": 65376,
            "time": 85.125,
            "velocity": 0.3937007874015748
          },
          {
            "duration": 0.0625,
            "durationTicks": 48,
            "midi": 24,
            "name": "C1",
            "ticks": 65520,
            "time": 85.3125,
            "velocity": 0.3937007874015748
          },
          {
            "duration": 0.0625,
            "durationTicks": 48,
            "midi": 36,
            "name": "C2",
            "ticks": 65520,
            "time": 85.3125,
            "velocity": 0.3937007874015748
          },
          {
            "duration": 0.0625,
            "durationTicks": 48,
            "midi": 36,
            "name": "C2",
            "ticks": 65664,
            "time": 85.5,
            "velocity": 0.3937007874015748
          },
          {
            "duration": 0.0625,
            "durationTicks": 48,
            "midi": 24,
            "name": "C1",
            "ticks": 65664,
            "time": 85.5,
            "velocity": 0.3937007874015748
          },
          {
            "duration": 0.0625,
            "durationTicks": 48,
            "midi": 24,
            "name": "C1",
            "ticks": 65952,
            "time": 85.875,
            "velocity": 0.3937007874015748
          },
          {
            "duration": 0.0625,
            "durationTicks": 48,
            "midi": 36,
            "name": "C2",
            "ticks": 65952,
            "time": 85.875,
            "velocity": 0.3937007874015748
          },
          {
            "duration": 0.0625,
            "durationTicks": 48,
            "midi": 24,
            "name": "C1",
            "ticks": 66096,
            "time": 86.0625,
            "velocity": 0.3937007874015748
          },
          {
            "duration": 0.0625,
            "durationTicks": 48,
            "midi": 36,
            "name": "C2",
            "ticks": 66096,
            "time": 86.0625,
            "velocity": 0.3937007874015748
          },
          {
            "duration": 0.0625,
            "durationTicks": 48,
            "midi": 24,
            "name": "C1",
            "ticks": 66384,
            "time": 86.4375,
            "velocity": 0.3937007874015748
          },
          {
            "duration": 0.0625,
            "durationTicks": 48,
            "midi": 36,
            "name": "C2",
            "ticks": 66384,
            "time": 86.4375,
            "velocity": 0.3937007874015748
          },
          {
            "duration": 0.0625,
            "durationTicks": 48,
            "midi": 24,
            "name": "C1",
            "ticks": 66528,
            "time": 86.625,
            "velocity": 0.3937007874015748
          },
          {
            "duration": 0.0625,
            "durationTicks": 48,
            "midi": 36,
            "name": "C2",
            "ticks": 66528,
            "time": 86.625,
            "velocity": 0.3937007874015748
          },
          {
            "duration": 0.0625,
            "durationTicks": 48,
            "midi": 36,
            "name": "C2",
            "ticks": 66672,
            "time": 86.8125,
            "velocity": 0.3937007874015748
          },
          {
            "duration": 0.0625,
            "durationTicks": 48,
            "midi": 24,
            "name": "C1",
            "ticks": 66672,
            "time": 86.8125,
            "velocity": 0.3937007874015748
          },
          {
            "duration": 0.0625,
            "durationTicks": 48,
            "midi": 38,
            "name": "D2",
            "ticks": 66816,
            "time": 87,
            "velocity": 0.3937007874015748
          },
          {
            "duration": 0.0625,
            "durationTicks": 48,
            "midi": 26,
            "name": "D1",
            "ticks": 66816,
            "time": 87,
            "velocity": 0.3937007874015748
          },
          {
            "duration": 0.0625,
            "durationTicks": 48,
            "midi": 33,
            "name": "A1",
            "ticks": 67104,
            "time": 87.375,
            "velocity": 0.3937007874015748
          },
          {
            "duration": 0.0625,
            "durationTicks": 48,
            "midi": 45,
            "name": "A2",
            "ticks": 67104,
            "time": 87.375,
            "velocity": 0.3937007874015748
          },
          {
            "duration": 0.0625,
            "durationTicks": 48,
            "midi": 26,
            "name": "D1",
            "ticks": 67248,
            "time": 87.5625,
            "velocity": 0.3937007874015748
          },
          {
            "duration": 0.0625,
            "durationTicks": 48,
            "midi": 38,
            "name": "D2",
            "ticks": 67248,
            "time": 87.5625,
            "velocity": 0.3937007874015748
          },
          {
            "duration": 0.0625,
            "durationTicks": 48,
            "midi": 40,
            "name": "E2",
            "ticks": 67392,
            "time": 87.75,
            "velocity": 0.3937007874015748
          },
          {
            "duration": 0.0625,
            "durationTicks": 48,
            "midi": 28,
            "name": "E1",
            "ticks": 67392,
            "time": 87.75,
            "velocity": 0.3937007874015748
          },
          {
            "duration": 0.0625,
            "durationTicks": 48,
            "midi": 28,
            "name": "E1",
            "ticks": 67680,
            "time": 88.125,
            "velocity": 0.3937007874015748
          },
          {
            "duration": 0.0625,
            "durationTicks": 48,
            "midi": 40,
            "name": "E2",
            "ticks": 67680,
            "time": 88.125,
            "velocity": 0.3937007874015748
          },
          {
            "duration": 0.0625,
            "durationTicks": 48,
            "midi": 28,
            "name": "E1",
            "ticks": 67824,
            "time": 88.3125,
            "velocity": 0.3937007874015748
          },
          {
            "duration": 0.0625,
            "durationTicks": 48,
            "midi": 40,
            "name": "E2",
            "ticks": 67824,
            "time": 88.3125,
            "velocity": 0.3937007874015748
          },
          {
            "duration": 0.0625,
            "durationTicks": 48,
            "midi": 28,
            "name": "E1",
            "ticks": 68112,
            "time": 88.6875,
            "velocity": 0.3937007874015748
          },
          {
            "duration": 0.0625,
            "durationTicks": 48,
            "midi": 40,
            "name": "E2",
            "ticks": 68112,
            "time": 88.6875,
            "velocity": 0.3937007874015748
          },
          {
            "duration": 0.0625,
            "durationTicks": 48,
            "midi": 28,
            "name": "E1",
            "ticks": 68256,
            "time": 88.875,
            "velocity": 0.3937007874015748
          },
          {
            "duration": 0.0625,
            "durationTicks": 48,
            "midi": 40,
            "name": "E2",
            "ticks": 68256,
            "time": 88.875,
            "velocity": 0.3937007874015748
          },
          {
            "duration": 0.0625,
            "durationTicks": 48,
            "midi": 40,
            "name": "E2",
            "ticks": 68400,
            "time": 89.0625,
            "velocity": 0.3937007874015748
          },
          {
            "duration": 0.0625,
            "durationTicks": 48,
            "midi": 28,
            "name": "E1",
            "ticks": 68400,
            "time": 89.0625,
            "velocity": 0.3937007874015748
          },
          {
            "duration": 0.0625,
            "durationTicks": 48,
            "midi": 31,
            "name": "G1",
            "ticks": 69696,
            "time": 90.75,
            "velocity": 0.3937007874015748
          },
          {
            "duration": 0.0625,
            "durationTicks": 48,
            "midi": 31,
            "name": "G1",
            "ticks": 69696,
            "time": 90.75,
            "velocity": 0.3937007874015748
          },
          {
            "duration": 0.0625,
            "durationTicks": 48,
            "midi": 31,
            "name": "G1",
            "ticks": 69984,
            "time": 91.125,
            "velocity": 0.3937007874015748
          },
          {
            "duration": 0.0625,
            "durationTicks": 48,
            "midi": 31,
            "name": "G1",
            "ticks": 69984,
            "time": 91.125,
            "velocity": 0.3937007874015748
          },
          {
            "duration": 0.0625,
            "durationTicks": 48,
            "midi": 31,
            "name": "G1",
            "ticks": 70128,
            "time": 91.3125,
            "velocity": 0.3937007874015748
          },
          {
            "duration": 0.0625,
            "durationTicks": 48,
            "midi": 31,
            "name": "G1",
            "ticks": 70128,
            "time": 91.3125,
            "velocity": 0.3937007874015748
          },
          {
            "duration": 0.0625,
            "durationTicks": 48,
            "midi": 31,
            "name": "G1",
            "ticks": 70416,
            "time": 91.6875,
            "velocity": 0.3937007874015748
          },
          {
            "duration": 0.0625,
            "durationTicks": 48,
            "midi": 31,
            "name": "G1",
            "ticks": 70416,
            "time": 91.6875,
            "velocity": 0.3937007874015748
          },
          {
            "duration": 0.0625,
            "durationTicks": 48,
            "midi": 31,
            "name": "G1",
            "ticks": 70560,
            "time": 91.875,
            "velocity": 0.3937007874015748
          },
          {
            "duration": 0.0625,
            "durationTicks": 48,
            "midi": 31,
            "name": "G1",
            "ticks": 70560,
            "time": 91.875,
            "velocity": 0.3937007874015748
          },
          {
            "duration": 0.0625,
            "durationTicks": 48,
            "midi": 31,
            "name": "G1",
            "ticks": 70704,
            "time": 92.0625,
            "velocity": 0.3937007874015748
          },
          {
            "duration": 0.0625,
            "durationTicks": 48,
            "midi": 31,
            "name": "G1",
            "ticks": 70704,
            "time": 92.0625,
            "velocity": 0.3937007874015748
          },
          {
            "duration": 0.0625,
            "durationTicks": 48,
            "midi": 24,
            "name": "C1",
            "ticks": 70848,
            "time": 92.25,
            "velocity": 0.3937007874015748
          },
          {
            "duration": 0.0625,
            "durationTicks": 48,
            "midi": 36,
            "name": "C2",
            "ticks": 70848,
            "time": 92.25,
            "velocity": 0.3937007874015748
          },
          {
            "duration": 0.0625,
            "durationTicks": 48,
            "midi": 24,
            "name": "C1",
            "ticks": 71136,
            "time": 92.625,
            "velocity": 0.3937007874015748
          },
          {
            "duration": 0.0625,
            "durationTicks": 48,
            "midi": 36,
            "name": "C2",
            "ticks": 71136,
            "time": 92.625,
            "velocity": 0.3937007874015748
          },
          {
            "duration": 0.0625,
            "durationTicks": 48,
            "midi": 24,
            "name": "C1",
            "ticks": 71280,
            "time": 92.8125,
            "velocity": 0.3937007874015748
          },
          {
            "duration": 0.0625,
            "durationTicks": 48,
            "midi": 36,
            "name": "C2",
            "ticks": 71280,
            "time": 92.8125,
            "velocity": 0.3937007874015748
          },
          {
            "duration": 0.0625,
            "durationTicks": 48,
            "midi": 36,
            "name": "C2",
            "ticks": 71568,
            "time": 93.1875,
            "velocity": 0.3937007874015748
          },
          {
            "duration": 0.0625,
            "durationTicks": 48,
            "midi": 24,
            "name": "C1",
            "ticks": 71568,
            "time": 93.1875,
            "velocity": 0.3937007874015748
          },
          {
            "duration": 0.0625,
            "durationTicks": 48,
            "midi": 36,
            "name": "C2",
            "ticks": 71712,
            "time": 93.375,
            "velocity": 0.3937007874015748
          },
          {
            "duration": 0.0625,
            "durationTicks": 48,
            "midi": 24,
            "name": "C1",
            "ticks": 71712,
            "time": 93.375,
            "velocity": 0.3937007874015748
          },
          {
            "duration": 0.0625,
            "durationTicks": 48,
            "midi": 24,
            "name": "C1",
            "ticks": 71856,
            "time": 93.5625,
            "velocity": 0.3937007874015748
          },
          {
            "duration": 0.0625,
            "durationTicks": 48,
            "midi": 36,
            "name": "C2",
            "ticks": 71856,
            "time": 93.5625,
            "velocity": 0.3937007874015748
          },
          {
            "duration": 0.0625,
            "durationTicks": 48,
            "midi": 36,
            "name": "C2",
            "ticks": 72000,
            "time": 93.75,
            "velocity": 0.3937007874015748
          },
          {
            "duration": 0.0625,
            "durationTicks": 48,
            "midi": 24,
            "name": "C1",
            "ticks": 72000,
            "time": 93.75,
            "velocity": 0.3937007874015748
          },
          {
            "duration": 0.0625,
            "durationTicks": 48,
            "midi": 36,
            "name": "C2",
            "ticks": 72288,
            "time": 94.125,
            "velocity": 0.3937007874015748
          },
          {
            "duration": 0.0625,
            "durationTicks": 48,
            "midi": 24,
            "name": "C1",
            "ticks": 72288,
            "time": 94.125,
            "velocity": 0.3937007874015748
          },
          {
            "duration": 0.0625,
            "durationTicks": 48,
            "midi": 36,
            "name": "C2",
            "ticks": 72432,
            "time": 94.3125,
            "velocity": 0.3937007874015748
          },
          {
            "duration": 0.0625,
            "durationTicks": 48,
            "midi": 24,
            "name": "C1",
            "ticks": 72432,
            "time": 94.3125,
            "velocity": 0.3937007874015748
          },
          {
            "duration": 0.0625,
            "durationTicks": 48,
            "midi": 24,
            "name": "C1",
            "ticks": 72720,
            "time": 94.6875,
            "velocity": 0.3937007874015748
          },
          {
            "duration": 0.0625,
            "durationTicks": 48,
            "midi": 36,
            "name": "C2",
            "ticks": 72720,
            "time": 94.6875,
            "velocity": 0.3937007874015748
          },
          {
            "duration": 0.0625,
            "durationTicks": 48,
            "midi": 36,
            "name": "C2",
            "ticks": 72864,
            "time": 94.875,
            "velocity": 0.3937007874015748
          },
          {
            "duration": 0.0625,
            "durationTicks": 48,
            "midi": 24,
            "name": "C1",
            "ticks": 72864,
            "time": 94.875,
            "velocity": 0.3937007874015748
          },
          {
            "duration": 0.0625,
            "durationTicks": 48,
            "midi": 24,
            "name": "C1",
            "ticks": 73008,
            "time": 95.0625,
            "velocity": 0.3937007874015748
          },
          {
            "duration": 0.0625,
            "durationTicks": 48,
            "midi": 36,
            "name": "C2",
            "ticks": 73008,
            "time": 95.0625,
            "velocity": 0.3937007874015748
          },
          {
            "duration": 0.0625,
            "durationTicks": 48,
            "midi": 26,
            "name": "D1",
            "ticks": 73152,
            "time": 95.25,
            "velocity": 0.3937007874015748
          },
          {
            "duration": 0.0625,
            "durationTicks": 48,
            "midi": 38,
            "name": "D2",
            "ticks": 73152,
            "time": 95.25,
            "velocity": 0.3937007874015748
          },
          {
            "duration": 0.0625,
            "durationTicks": 48,
            "midi": 45,
            "name": "A2",
            "ticks": 73440,
            "time": 95.625,
            "velocity": 0.3937007874015748
          },
          {
            "duration": 0.0625,
            "durationTicks": 48,
            "midi": 33,
            "name": "A1",
            "ticks": 73440,
            "time": 95.625,
            "velocity": 0.3937007874015748
          },
          {
            "duration": 0.0625,
            "durationTicks": 48,
            "midi": 38,
            "name": "D2",
            "ticks": 73584,
            "time": 95.8125,
            "velocity": 0.3937007874015748
          },
          {
            "duration": 0.0625,
            "durationTicks": 48,
            "midi": 26,
            "name": "D1",
            "ticks": 73584,
            "time": 95.8125,
            "velocity": 0.3937007874015748
          },
          {
            "duration": 0.0625,
            "durationTicks": 48,
            "midi": 28,
            "name": "E1",
            "ticks": 73728,
            "time": 96,
            "velocity": 0.3937007874015748
          },
          {
            "duration": 0.0625,
            "durationTicks": 48,
            "midi": 40,
            "name": "E2",
            "ticks": 73728,
            "time": 96,
            "velocity": 0.3937007874015748
          },
          {
            "duration": 0.0625,
            "durationTicks": 48,
            "midi": 40,
            "name": "E2",
            "ticks": 74016,
            "time": 96.375,
            "velocity": 0.3937007874015748
          },
          {
            "duration": 0.0625,
            "durationTicks": 48,
            "midi": 28,
            "name": "E1",
            "ticks": 74016,
            "time": 96.375,
            "velocity": 0.3937007874015748
          },
          {
            "duration": 0.0625,
            "durationTicks": 48,
            "midi": 40,
            "name": "E2",
            "ticks": 74160,
            "time": 96.5625,
            "velocity": 0.3937007874015748
          },
          {
            "duration": 0.0625,
            "durationTicks": 48,
            "midi": 28,
            "name": "E1",
            "ticks": 74160,
            "time": 96.5625,
            "velocity": 0.3937007874015748
          },
          {
            "duration": 0.0625,
            "durationTicks": 48,
            "midi": 31,
            "name": "G1",
            "ticks": 76032,
            "time": 99,
            "velocity": 0.3937007874015748
          },
          {
            "duration": 0.0625,
            "durationTicks": 48,
            "midi": 31,
            "name": "G1",
            "ticks": 76032,
            "time": 99,
            "velocity": 0.3937007874015748
          },
          {
            "duration": 0.0625,
            "durationTicks": 48,
            "midi": 31,
            "name": "G1",
            "ticks": 76320,
            "time": 99.375,
            "velocity": 0.3937007874015748
          },
          {
            "duration": 0.0625,
            "durationTicks": 48,
            "midi": 31,
            "name": "G1",
            "ticks": 76320,
            "time": 99.375,
            "velocity": 0.3937007874015748
          },
          {
            "duration": 0.0625,
            "durationTicks": 48,
            "midi": 31,
            "name": "G1",
            "ticks": 76464,
            "time": 99.5625,
            "velocity": 0.3937007874015748
          },
          {
            "duration": 0.0625,
            "durationTicks": 48,
            "midi": 31,
            "name": "G1",
            "ticks": 76464,
            "time": 99.5625,
            "velocity": 0.3937007874015748
          },
          {
            "duration": 0.0625,
            "durationTicks": 48,
            "midi": 31,
            "name": "G1",
            "ticks": 76752,
            "time": 99.9375,
            "velocity": 0.3937007874015748
          },
          {
            "duration": 0.0625,
            "durationTicks": 48,
            "midi": 31,
            "name": "G1",
            "ticks": 76752,
            "time": 99.9375,
            "velocity": 0.3937007874015748
          },
          {
            "duration": 0.0625,
            "durationTicks": 48,
            "midi": 31,
            "name": "G1",
            "ticks": 76896,
            "time": 100.125,
            "velocity": 0.3937007874015748
          },
          {
            "duration": 0.0625,
            "durationTicks": 48,
            "midi": 31,
            "name": "G1",
            "ticks": 76896,
            "time": 100.125,
            "velocity": 0.3937007874015748
          },
          {
            "duration": 0.0625,
            "durationTicks": 48,
            "midi": 31,
            "name": "G1",
            "ticks": 77040,
            "time": 100.3125,
            "velocity": 0.3937007874015748
          },
          {
            "duration": 0.0625,
            "durationTicks": 48,
            "midi": 31,
            "name": "G1",
            "ticks": 77040,
            "time": 100.3125,
            "velocity": 0.3937007874015748
          },
          {
            "duration": 0.0625,
            "durationTicks": 48,
            "midi": 36,
            "name": "C2",
            "ticks": 77184,
            "time": 100.5,
            "velocity": 0.3937007874015748
          },
          {
            "duration": 0.0625,
            "durationTicks": 48,
            "midi": 24,
            "name": "C1",
            "ticks": 77184,
            "time": 100.5,
            "velocity": 0.3937007874015748
          },
          {
            "duration": 0.0625,
            "durationTicks": 48,
            "midi": 24,
            "name": "C1",
            "ticks": 77472,
            "time": 100.875,
            "velocity": 0.3937007874015748
          },
          {
            "duration": 0.0625,
            "durationTicks": 48,
            "midi": 36,
            "name": "C2",
            "ticks": 77472,
            "time": 100.875,
            "velocity": 0.3937007874015748
          },
          {
            "duration": 0.0625,
            "durationTicks": 48,
            "midi": 36,
            "name": "C2",
            "ticks": 77616,
            "time": 101.0625,
            "velocity": 0.3937007874015748
          },
          {
            "duration": 0.0625,
            "durationTicks": 48,
            "midi": 24,
            "name": "C1",
            "ticks": 77616,
            "time": 101.0625,
            "velocity": 0.3937007874015748
          },
          {
            "duration": 0.0625,
            "durationTicks": 48,
            "midi": 24,
            "name": "C1",
            "ticks": 77904,
            "time": 101.4375,
            "velocity": 0.3937007874015748
          },
          {
            "duration": 0.0625,
            "durationTicks": 48,
            "midi": 36,
            "name": "C2",
            "ticks": 77904,
            "time": 101.4375,
            "velocity": 0.3937007874015748
          },
          {
            "duration": 0.0625,
            "durationTicks": 48,
            "midi": 36,
            "name": "C2",
            "ticks": 78048,
            "time": 101.625,
            "velocity": 0.3937007874015748
          },
          {
            "duration": 0.0625,
            "durationTicks": 48,
            "midi": 24,
            "name": "C1",
            "ticks": 78048,
            "time": 101.625,
            "velocity": 0.3937007874015748
          },
          {
            "duration": 0.0625,
            "durationTicks": 48,
            "midi": 24,
            "name": "C1",
            "ticks": 78192,
            "time": 101.8125,
            "velocity": 0.3937007874015748
          },
          {
            "duration": 0.0625,
            "durationTicks": 48,
            "midi": 36,
            "name": "C2",
            "ticks": 78192,
            "time": 101.8125,
            "velocity": 0.3937007874015748
          },
          {
            "duration": 0.0625,
            "durationTicks": 48,
            "midi": 24,
            "name": "C1",
            "ticks": 78336,
            "time": 102,
            "velocity": 0.3937007874015748
          },
          {
            "duration": 0.0625,
            "durationTicks": 48,
            "midi": 36,
            "name": "C2",
            "ticks": 78336,
            "time": 102,
            "velocity": 0.3937007874015748
          },
          {
            "duration": 0.0625,
            "durationTicks": 48,
            "midi": 24,
            "name": "C1",
            "ticks": 78624,
            "time": 102.375,
            "velocity": 0.3937007874015748
          },
          {
            "duration": 0.0625,
            "durationTicks": 48,
            "midi": 36,
            "name": "C2",
            "ticks": 78624,
            "time": 102.375,
            "velocity": 0.3937007874015748
          },
          {
            "duration": 0.0625,
            "durationTicks": 48,
            "midi": 36,
            "name": "C2",
            "ticks": 78768,
            "time": 102.5625,
            "velocity": 0.3937007874015748
          },
          {
            "duration": 0.0625,
            "durationTicks": 48,
            "midi": 24,
            "name": "C1",
            "ticks": 78768,
            "time": 102.5625,
            "velocity": 0.3937007874015748
          },
          {
            "duration": 0.0625,
            "durationTicks": 48,
            "midi": 36,
            "name": "C2",
            "ticks": 79056,
            "time": 102.9375,
            "velocity": 0.3937007874015748
          },
          {
            "duration": 0.0625,
            "durationTicks": 48,
            "midi": 24,
            "name": "C1",
            "ticks": 79056,
            "time": 102.9375,
            "velocity": 0.3937007874015748
          },
          {
            "duration": 0.0625,
            "durationTicks": 48,
            "midi": 36,
            "name": "C2",
            "ticks": 79200,
            "time": 103.125,
            "velocity": 0.3937007874015748
          },
          {
            "duration": 0.0625,
            "durationTicks": 48,
            "midi": 24,
            "name": "C1",
            "ticks": 79200,
            "time": 103.125,
            "velocity": 0.3937007874015748
          },
          {
            "duration": 0.0625,
            "durationTicks": 48,
            "midi": 36,
            "name": "C2",
            "ticks": 79344,
            "time": 103.3125,
            "velocity": 0.3937007874015748
          },
          {
            "duration": 0.0625,
            "durationTicks": 48,
            "midi": 24,
            "name": "C1",
            "ticks": 79344,
            "time": 103.3125,
            "velocity": 0.3937007874015748
          },
          {
            "duration": 0.0625,
            "durationTicks": 48,
            "midi": 26,
            "name": "D1",
            "ticks": 79488,
            "time": 103.5,
            "velocity": 0.3937007874015748
          },
          {
            "duration": 0.0625,
            "durationTicks": 48,
            "midi": 38,
            "name": "D2",
            "ticks": 79488,
            "time": 103.5,
            "velocity": 0.3937007874015748
          },
          {
            "duration": 0.0625,
            "durationTicks": 48,
            "midi": 33,
            "name": "A1",
            "ticks": 79776,
            "time": 103.875,
            "velocity": 0.3937007874015748
          },
          {
            "duration": 0.0625,
            "durationTicks": 48,
            "midi": 45,
            "name": "A2",
            "ticks": 79776,
            "time": 103.875,
            "velocity": 0.3937007874015748
          },
          {
            "duration": 0.0625,
            "durationTicks": 48,
            "midi": 38,
            "name": "D2",
            "ticks": 79920,
            "time": 104.0625,
            "velocity": 0.3937007874015748
          },
          {
            "duration": 0.0625,
            "durationTicks": 48,
            "midi": 26,
            "name": "D1",
            "ticks": 79920,
            "time": 104.0625,
            "velocity": 0.3937007874015748
          },
          {
            "duration": 0.0625,
            "durationTicks": 48,
            "midi": 28,
            "name": "E1",
            "ticks": 80064,
            "time": 104.25,
            "velocity": 0.3937007874015748
          },
          {
            "duration": 0.0625,
            "durationTicks": 48,
            "midi": 40,
            "name": "E2",
            "ticks": 80064,
            "time": 104.25,
            "velocity": 0.3937007874015748
          },
          {
            "duration": 0.0625,
            "durationTicks": 48,
            "midi": 28,
            "name": "E1",
            "ticks": 80352,
            "time": 104.625,
            "velocity": 0.3937007874015748
          },
          {
            "duration": 0.0625,
            "durationTicks": 48,
            "midi": 40,
            "name": "E2",
            "ticks": 80352,
            "time": 104.625,
            "velocity": 0.3937007874015748
          },
          {
            "duration": 0.0625,
            "durationTicks": 48,
            "midi": 28,
            "name": "E1",
            "ticks": 80496,
            "time": 104.8125,
            "velocity": 0.3937007874015748
          },
          {
            "duration": 0.0625,
            "durationTicks": 48,
            "midi": 40,
            "name": "E2",
            "ticks": 80496,
            "time": 104.8125,
            "velocity": 0.3937007874015748
          },
          {
            "duration": 0.0625,
            "durationTicks": 48,
            "midi": 40,
            "name": "E2",
            "ticks": 80784,
            "time": 105.1875,
            "velocity": 0.3937007874015748
          },
          {
            "duration": 0.0625,
            "durationTicks": 48,
            "midi": 28,
            "name": "E1",
            "ticks": 80784,
            "time": 105.1875,
            "velocity": 0.3937007874015748
          },
          {
            "duration": 0.0625,
            "durationTicks": 48,
            "midi": 40,
            "name": "E2",
            "ticks": 80928,
            "time": 105.375,
            "velocity": 0.3937007874015748
          },
          {
            "duration": 0.0625,
            "durationTicks": 48,
            "midi": 28,
            "name": "E1",
            "ticks": 80928,
            "time": 105.375,
            "velocity": 0.3937007874015748
          },
          {
            "duration": 0.0625,
            "durationTicks": 48,
            "midi": 28,
            "name": "E1",
            "ticks": 81072,
            "time": 105.5625,
            "velocity": 0.3937007874015748
          },
          {
            "duration": 0.0625,
            "durationTicks": 48,
            "midi": 40,
            "name": "E2",
            "ticks": 81072,
            "time": 105.5625,
            "velocity": 0.3937007874015748
          },
          {
            "duration": 0.0625,
            "durationTicks": 48,
            "midi": 31,
            "name": "G1",
            "ticks": 82368,
            "time": 107.25,
            "velocity": 0.3937007874015748
          },
          {
            "duration": 0.0625,
            "durationTicks": 48,
            "midi": 31,
            "name": "G1",
            "ticks": 82368,
            "time": 107.25,
            "velocity": 0.3937007874015748
          },
          {
            "duration": 0.0625,
            "durationTicks": 48,
            "midi": 31,
            "name": "G1",
            "ticks": 82656,
            "time": 107.625,
            "velocity": 0.3937007874015748
          },
          {
            "duration": 0.0625,
            "durationTicks": 48,
            "midi": 31,
            "name": "G1",
            "ticks": 82656,
            "time": 107.625,
            "velocity": 0.3937007874015748
          },
          {
            "duration": 0.0625,
            "durationTicks": 48,
            "midi": 31,
            "name": "G1",
            "ticks": 82800,
            "time": 107.8125,
            "velocity": 0.3937007874015748
          },
          {
            "duration": 0.0625,
            "durationTicks": 48,
            "midi": 31,
            "name": "G1",
            "ticks": 82800,
            "time": 107.8125,
            "velocity": 0.3937007874015748
          },
          {
            "duration": 0.0625,
            "durationTicks": 48,
            "midi": 31,
            "name": "G1",
            "ticks": 83088,
            "time": 108.1875,
            "velocity": 0.3937007874015748
          },
          {
            "duration": 0.0625,
            "durationTicks": 48,
            "midi": 31,
            "name": "G1",
            "ticks": 83088,
            "time": 108.1875,
            "velocity": 0.3937007874015748
          },
          {
            "duration": 0.0625,
            "durationTicks": 48,
            "midi": 31,
            "name": "G1",
            "ticks": 83232,
            "time": 108.375,
            "velocity": 0.3937007874015748
          },
          {
            "duration": 0.0625,
            "durationTicks": 48,
            "midi": 31,
            "name": "G1",
            "ticks": 83232,
            "time": 108.375,
            "velocity": 0.3937007874015748
          },
          {
            "duration": 0.0625,
            "durationTicks": 48,
            "midi": 31,
            "name": "G1",
            "ticks": 83376,
            "time": 108.5625,
            "velocity": 0.3937007874015748
          },
          {
            "duration": 0.0625,
            "durationTicks": 48,
            "midi": 31,
            "name": "G1",
            "ticks": 83376,
            "time": 108.5625,
            "velocity": 0.3937007874015748
          },
          {
            "duration": 0.0625,
            "durationTicks": 48,
            "midi": 36,
            "name": "C2",
            "ticks": 83520,
            "time": 108.75,
            "velocity": 0.3937007874015748
          },
          {
            "duration": 0.0625,
            "durationTicks": 48,
            "midi": 24,
            "name": "C1",
            "ticks": 83520,
            "time": 108.75,
            "velocity": 0.3937007874015748
          },
          {
            "duration": 0.0625,
            "durationTicks": 48,
            "midi": 24,
            "name": "C1",
            "ticks": 83808,
            "time": 109.125,
            "velocity": 0.3937007874015748
          },
          {
            "duration": 0.0625,
            "durationTicks": 48,
            "midi": 36,
            "name": "C2",
            "ticks": 83808,
            "time": 109.125,
            "velocity": 0.3937007874015748
          },
          {
            "duration": 0.0625,
            "durationTicks": 48,
            "midi": 24,
            "name": "C1",
            "ticks": 83952,
            "time": 109.3125,
            "velocity": 0.3937007874015748
          },
          {
            "duration": 0.0625,
            "durationTicks": 48,
            "midi": 36,
            "name": "C2",
            "ticks": 83952,
            "time": 109.3125,
            "velocity": 0.3937007874015748
          },
          {
            "duration": 0.0625,
            "durationTicks": 48,
            "midi": 36,
            "name": "C2",
            "ticks": 84240,
            "time": 109.6875,
            "velocity": 0.3937007874015748
          },
          {
            "duration": 0.0625,
            "durationTicks": 48,
            "midi": 24,
            "name": "C1",
            "ticks": 84240,
            "time": 109.6875,
            "velocity": 0.3937007874015748
          },
          {
            "duration": 0.0625,
            "durationTicks": 48,
            "midi": 24,
            "name": "C1",
            "ticks": 84384,
            "time": 109.875,
            "velocity": 0.3937007874015748
          },
          {
            "duration": 0.0625,
            "durationTicks": 48,
            "midi": 36,
            "name": "C2",
            "ticks": 84384,
            "time": 109.875,
            "velocity": 0.3937007874015748
          },
          {
            "duration": 0.0625,
            "durationTicks": 48,
            "midi": 24,
            "name": "C1",
            "ticks": 84528,
            "time": 110.0625,
            "velocity": 0.3937007874015748
          },
          {
            "duration": 0.0625,
            "durationTicks": 48,
            "midi": 36,
            "name": "C2",
            "ticks": 84528,
            "time": 110.0625,
            "velocity": 0.3937007874015748
          },
          {
            "duration": 0.0625,
            "durationTicks": 48,
            "midi": 36,
            "name": "C2",
            "ticks": 84672,
            "time": 110.25,
            "velocity": 0.3937007874015748
          },
          {
            "duration": 0.0625,
            "durationTicks": 48,
            "midi": 24,
            "name": "C1",
            "ticks": 84672,
            "time": 110.25,
            "velocity": 0.3937007874015748
          },
          {
            "duration": 0.0625,
            "durationTicks": 48,
            "midi": 36,
            "name": "C2",
            "ticks": 84960,
            "time": 110.625,
            "velocity": 0.3937007874015748
          },
          {
            "duration": 0.0625,
            "durationTicks": 48,
            "midi": 24,
            "name": "C1",
            "ticks": 84960,
            "time": 110.625,
            "velocity": 0.3937007874015748
          },
          {
            "duration": 0.0625,
            "durationTicks": 48,
            "midi": 24,
            "name": "C1",
            "ticks": 85104,
            "time": 110.8125,
            "velocity": 0.3937007874015748
          },
          {
            "duration": 0.0625,
            "durationTicks": 48,
            "midi": 36,
            "name": "C2",
            "ticks": 85104,
            "time": 110.8125,
            "velocity": 0.3937007874015748
          },
          {
            "duration": 0.0625,
            "durationTicks": 48,
            "midi": 24,
            "name": "C1",
            "ticks": 85392,
            "time": 111.1875,
            "velocity": 0.3937007874015748
          },
          {
            "duration": 0.0625,
            "durationTicks": 48,
            "midi": 36,
            "name": "C2",
            "ticks": 85392,
            "time": 111.1875,
            "velocity": 0.3937007874015748
          },
          {
            "duration": 0.0625,
            "durationTicks": 48,
            "midi": 24,
            "name": "C1",
            "ticks": 85536,
            "time": 111.375,
            "velocity": 0.3937007874015748
          },
          {
            "duration": 0.0625,
            "durationTicks": 48,
            "midi": 36,
            "name": "C2",
            "ticks": 85536,
            "time": 111.375,
            "velocity": 0.3937007874015748
          },
          {
            "duration": 0.0625,
            "durationTicks": 48,
            "midi": 24,
            "name": "C1",
            "ticks": 85680,
            "time": 111.5625,
            "velocity": 0.3937007874015748
          },
          {
            "duration": 0.0625,
            "durationTicks": 48,
            "midi": 36,
            "name": "C2",
            "ticks": 85680,
            "time": 111.5625,
            "velocity": 0.3937007874015748
          },
          {
            "duration": 0.0625,
            "durationTicks": 48,
            "midi": 26,
            "name": "D1",
            "ticks": 85824,
            "time": 111.75,
            "velocity": 0.3937007874015748
          },
          {
            "duration": 0.0625,
            "durationTicks": 48,
            "midi": 38,
            "name": "D2",
            "ticks": 85824,
            "time": 111.75,
            "velocity": 0.3937007874015748
          },
          {
            "duration": 0.0625,
            "durationTicks": 48,
            "midi": 45,
            "name": "A2",
            "ticks": 86112,
            "time": 112.125,
            "velocity": 0.3937007874015748
          },
          {
            "duration": 0.0625,
            "durationTicks": 48,
            "midi": 33,
            "name": "A1",
            "ticks": 86112,
            "time": 112.125,
            "velocity": 0.3937007874015748
          },
          {
            "duration": 0.0625,
            "durationTicks": 48,
            "midi": 26,
            "name": "D1",
            "ticks": 86256,
            "time": 112.3125,
            "velocity": 0.3937007874015748
          },
          {
            "duration": 0.0625,
            "durationTicks": 48,
            "midi": 38,
            "name": "D2",
            "ticks": 86256,
            "time": 112.3125,
            "velocity": 0.3937007874015748
          },
          {
            "duration": 0.0625,
            "durationTicks": 48,
            "midi": 28,
            "name": "E1",
            "ticks": 86400,
            "time": 112.5,
            "velocity": 0.3937007874015748
          },
          {
            "duration": 0.0625,
            "durationTicks": 48,
            "midi": 40,
            "name": "E2",
            "ticks": 86400,
            "time": 112.5,
            "velocity": 0.3937007874015748
          },
          {
            "duration": 0.0625,
            "durationTicks": 48,
            "midi": 40,
            "name": "E2",
            "ticks": 86688,
            "time": 112.875,
            "velocity": 0.3937007874015748
          },
          {
            "duration": 0.0625,
            "durationTicks": 48,
            "midi": 28,
            "name": "E1",
            "ticks": 86688,
            "time": 112.875,
            "velocity": 0.3937007874015748
          },
          {
            "duration": 0.0625,
            "durationTicks": 48,
            "midi": 40,
            "name": "E2",
            "ticks": 86832,
            "time": 113.0625,
            "velocity": 0.3937007874015748
          },
          {
            "duration": 0.0625,
            "durationTicks": 48,
            "midi": 28,
            "name": "E1",
            "ticks": 86832,
            "time": 113.0625,
            "velocity": 0.3937007874015748
          },
          {
            "duration": 0.0625,
            "durationTicks": 48,
            "midi": 40,
            "name": "E2",
            "ticks": 87120,
            "time": 113.4375,
            "velocity": 0.3937007874015748
          },
          {
            "duration": 0.0625,
            "durationTicks": 48,
            "midi": 28,
            "name": "E1",
            "ticks": 87120,
            "time": 113.4375,
            "velocity": 0.3937007874015748
          },
          {
            "duration": 0.0625,
            "durationTicks": 48,
            "midi": 40,
            "name": "E2",
            "ticks": 87264,
            "time": 113.625,
            "velocity": 0.3937007874015748
          },
          {
            "duration": 0.0625,
            "durationTicks": 48,
            "midi": 28,
            "name": "E1",
            "ticks": 87264,
            "time": 113.625,
            "velocity": 0.3937007874015748
          },
          {
            "duration": 0.0625,
            "durationTicks": 48,
            "midi": 28,
            "name": "E1",
            "ticks": 87408,
            "time": 113.8125,
            "velocity": 0.3937007874015748
          },
          {
            "duration": 0.0625,
            "durationTicks": 48,
            "midi": 40,
            "name": "E2",
            "ticks": 87408,
            "time": 113.8125,
            "velocity": 0.3937007874015748
          },
          {
            "duration": 0.0625,
            "durationTicks": 48,
            "midi": 31,
            "name": "G1",
            "ticks": 88704,
            "time": 115.5,
            "velocity": 0.3937007874015748
          },
          {
            "duration": 0.0625,
            "durationTicks": 48,
            "midi": 31,
            "name": "G1",
            "ticks": 88704,
            "time": 115.5,
            "velocity": 0.3937007874015748
          },
          {
            "duration": 0.0625,
            "durationTicks": 48,
            "midi": 31,
            "name": "G1",
            "ticks": 88992,
            "time": 115.875,
            "velocity": 0.3937007874015748
          },
          {
            "duration": 0.0625,
            "durationTicks": 48,
            "midi": 31,
            "name": "G1",
            "ticks": 88992,
            "time": 115.875,
            "velocity": 0.3937007874015748
          },
          {
            "duration": 0.0625,
            "durationTicks": 48,
            "midi": 31,
            "name": "G1",
            "ticks": 89136,
            "time": 116.0625,
            "velocity": 0.3937007874015748
          },
          {
            "duration": 0.0625,
            "durationTicks": 48,
            "midi": 31,
            "name": "G1",
            "ticks": 89136,
            "time": 116.0625,
            "velocity": 0.3937007874015748
          },
          {
            "duration": 0.0625,
            "durationTicks": 48,
            "midi": 31,
            "name": "G1",
            "ticks": 89424,
            "time": 116.4375,
            "velocity": 0.3937007874015748
          },
          {
            "duration": 0.0625,
            "durationTicks": 48,
            "midi": 31,
            "name": "G1",
            "ticks": 89424,
            "time": 116.4375,
            "velocity": 0.3937007874015748
          },
          {
            "duration": 0.0625,
            "durationTicks": 48,
            "midi": 31,
            "name": "G1",
            "ticks": 89568,
            "time": 116.625,
            "velocity": 0.3937007874015748
          },
          {
            "duration": 0.0625,
            "durationTicks": 48,
            "midi": 31,
            "name": "G1",
            "ticks": 89568,
            "time": 116.625,
            "velocity": 0.3937007874015748
          },
          {
            "duration": 0.0625,
            "durationTicks": 48,
            "midi": 31,
            "name": "G1",
            "ticks": 89712,
            "time": 116.8125,
            "velocity": 0.3937007874015748
          },
          {
            "duration": 0.0625,
            "durationTicks": 48,
            "midi": 31,
            "name": "G1",
            "ticks": 89712,
            "time": 116.8125,
            "velocity": 0.3937007874015748
          },
          {
            "duration": 0.0625,
            "durationTicks": 48,
            "midi": 36,
            "name": "C2",
            "ticks": 89856,
            "time": 117,
            "velocity": 0.3937007874015748
          },
          {
            "duration": 0.0625,
            "durationTicks": 48,
            "midi": 24,
            "name": "C1",
            "ticks": 89856,
            "time": 117,
            "velocity": 0.3937007874015748
          },
          {
            "duration": 0.0625,
            "durationTicks": 48,
            "midi": 24,
            "name": "C1",
            "ticks": 90144,
            "time": 117.375,
            "velocity": 0.3937007874015748
          },
          {
            "duration": 0.0625,
            "durationTicks": 48,
            "midi": 36,
            "name": "C2",
            "ticks": 90144,
            "time": 117.375,
            "velocity": 0.3937007874015748
          },
          {
            "duration": 0.0625,
            "durationTicks": 48,
            "midi": 24,
            "name": "C1",
            "ticks": 90288,
            "time": 117.5625,
            "velocity": 0.3937007874015748
          },
          {
            "duration": 0.0625,
            "durationTicks": 48,
            "midi": 36,
            "name": "C2",
            "ticks": 90288,
            "time": 117.5625,
            "velocity": 0.3937007874015748
          },
          {
            "duration": 0.0625,
            "durationTicks": 48,
            "midi": 24,
            "name": "C1",
            "ticks": 90576,
            "time": 117.9375,
            "velocity": 0.3937007874015748
          },
          {
            "duration": 0.0625,
            "durationTicks": 48,
            "midi": 36,
            "name": "C2",
            "ticks": 90576,
            "time": 117.9375,
            "velocity": 0.3937007874015748
          },
          {
            "duration": 0.0625,
            "durationTicks": 48,
            "midi": 36,
            "name": "C2",
            "ticks": 90720,
            "time": 118.125,
            "velocity": 0.3937007874015748
          },
          {
            "duration": 0.0625,
            "durationTicks": 48,
            "midi": 24,
            "name": "C1",
            "ticks": 90720,
            "time": 118.125,
            "velocity": 0.3937007874015748
          },
          {
            "duration": 0.0625,
            "durationTicks": 48,
            "midi": 36,
            "name": "C2",
            "ticks": 90864,
            "time": 118.3125,
            "velocity": 0.3937007874015748
          },
          {
            "duration": 0.0625,
            "durationTicks": 48,
            "midi": 24,
            "name": "C1",
            "ticks": 90864,
            "time": 118.3125,
            "velocity": 0.3937007874015748
          },
          {
            "duration": 0.0625,
            "durationTicks": 48,
            "midi": 36,
            "name": "C2",
            "ticks": 91008,
            "time": 118.5,
            "velocity": 0.3937007874015748
          },
          {
            "duration": 0.0625,
            "durationTicks": 48,
            "midi": 24,
            "name": "C1",
            "ticks": 91008,
            "time": 118.5,
            "velocity": 0.3937007874015748
          },
          {
            "duration": 0.0625,
            "durationTicks": 48,
            "midi": 36,
            "name": "C2",
            "ticks": 91296,
            "time": 118.875,
            "velocity": 0.3937007874015748
          },
          {
            "duration": 0.0625,
            "durationTicks": 48,
            "midi": 24,
            "name": "C1",
            "ticks": 91296,
            "time": 118.875,
            "velocity": 0.3937007874015748
          },
          {
            "duration": 0.0625,
            "durationTicks": 48,
            "midi": 36,
            "name": "C2",
            "ticks": 91440,
            "time": 119.0625,
            "velocity": 0.3937007874015748
          },
          {
            "duration": 0.0625,
            "durationTicks": 48,
            "midi": 24,
            "name": "C1",
            "ticks": 91440,
            "time": 119.0625,
            "velocity": 0.3937007874015748
          },
          {
            "duration": 0.0625,
            "durationTicks": 48,
            "midi": 36,
            "name": "C2",
            "ticks": 91728,
            "time": 119.4375,
            "velocity": 0.3937007874015748
          },
          {
            "duration": 0.0625,
            "durationTicks": 48,
            "midi": 24,
            "name": "C1",
            "ticks": 91728,
            "time": 119.4375,
            "velocity": 0.3937007874015748
          },
          {
            "duration": 0.0625,
            "durationTicks": 48,
            "midi": 36,
            "name": "C2",
            "ticks": 91872,
            "time": 119.625,
            "velocity": 0.3937007874015748
          },
          {
            "duration": 0.0625,
            "durationTicks": 48,
            "midi": 24,
            "name": "C1",
            "ticks": 91872,
            "time": 119.625,
            "velocity": 0.3937007874015748
          },
          {
            "duration": 0.0625,
            "durationTicks": 48,
            "midi": 24,
            "name": "C1",
            "ticks": 92016,
            "time": 119.8125,
            "velocity": 0.3937007874015748
          },
          {
            "duration": 0.0625,
            "durationTicks": 48,
            "midi": 36,
            "name": "C2",
            "ticks": 92016,
            "time": 119.8125,
            "velocity": 0.3937007874015748
          },
          {
            "duration": 0.0625,
            "durationTicks": 48,
            "midi": 26,
            "name": "D1",
            "ticks": 92160,
            "time": 120,
            "velocity": 0.3937007874015748
          },
          {
            "duration": 0.0625,
            "durationTicks": 48,
            "midi": 38,
            "name": "D2",
            "ticks": 92160,
            "time": 120,
            "velocity": 0.3937007874015748
          },
          {
            "duration": 0.0625,
            "durationTicks": 48,
            "midi": 33,
            "name": "A1",
            "ticks": 92448,
            "time": 120.375,
            "velocity": 0.3937007874015748
          },
          {
            "duration": 0.0625,
            "durationTicks": 48,
            "midi": 45,
            "name": "A2",
            "ticks": 92448,
            "time": 120.375,
            "velocity": 0.3937007874015748
          },
          {
            "duration": 0.0625,
            "durationTicks": 48,
            "midi": 26,
            "name": "D1",
            "ticks": 92592,
            "time": 120.5625,
            "velocity": 0.3937007874015748
          },
          {
            "duration": 0.0625,
            "durationTicks": 48,
            "midi": 38,
            "name": "D2",
            "ticks": 92592,
            "time": 120.5625,
            "velocity": 0.3937007874015748
          },
          {
            "duration": 0.0625,
            "durationTicks": 48,
            "midi": 28,
            "name": "E1",
            "ticks": 92736,
            "time": 120.75,
            "velocity": 0.3937007874015748
          },
          {
            "duration": 0.0625,
            "durationTicks": 48,
            "midi": 40,
            "name": "E2",
            "ticks": 92736,
            "time": 120.75,
            "velocity": 0.3937007874015748
          },
          {
            "duration": 0.0625,
            "durationTicks": 48,
            "midi": 28,
            "name": "E1",
            "ticks": 93024,
            "time": 121.125,
            "velocity": 0.3937007874015748
          },
          {
            "duration": 0.0625,
            "durationTicks": 48,
            "midi": 40,
            "name": "E2",
            "ticks": 93024,
            "time": 121.125,
            "velocity": 0.3937007874015748
          },
          {
            "duration": 0.0625,
            "durationTicks": 48,
            "midi": 28,
            "name": "E1",
            "ticks": 93168,
            "time": 121.3125,
            "velocity": 0.3937007874015748
          },
          {
            "duration": 0.0625,
            "durationTicks": 48,
            "midi": 40,
            "name": "E2",
            "ticks": 93168,
            "time": 121.3125,
            "velocity": 0.3937007874015748
          },
          {
            "duration": 0.0625,
            "durationTicks": 48,
            "midi": 28,
            "name": "E1",
            "ticks": 93456,
            "time": 121.6875,
            "velocity": 0.3937007874015748
          },
          {
            "duration": 0.0625,
            "durationTicks": 48,
            "midi": 40,
            "name": "E2",
            "ticks": 93456,
            "time": 121.6875,
            "velocity": 0.3937007874015748
          },
          {
            "duration": 0.0625,
            "durationTicks": 48,
            "midi": 28,
            "name": "E1",
            "ticks": 93600,
            "time": 121.875,
            "velocity": 0.3937007874015748
          },
          {
            "duration": 0.0625,
            "durationTicks": 48,
            "midi": 40,
            "name": "E2",
            "ticks": 93600,
            "time": 121.875,
            "velocity": 0.3937007874015748
          },
          {
            "duration": 0.0625,
            "durationTicks": 48,
            "midi": 40,
            "name": "E2",
            "ticks": 93744,
            "time": 122.0625,
            "velocity": 0.3937007874015748
          },
          {
            "duration": 0.0625,
            "durationTicks": 48,
            "midi": 28,
            "name": "E1",
            "ticks": 93744,
            "time": 122.0625,
            "velocity": 0.3937007874015748
          },
          {
            "duration": 0.0625,
            "durationTicks": 48,
            "midi": 31,
            "name": "G1",
            "ticks": 95040,
            "time": 123.75,
            "velocity": 0.3937007874015748
          },
          {
            "duration": 0.0625,
            "durationTicks": 48,
            "midi": 31,
            "name": "G1",
            "ticks": 95040,
            "time": 123.75,
            "velocity": 0.3937007874015748
          },
          {
            "duration": 0.0625,
            "durationTicks": 48,
            "midi": 31,
            "name": "G1",
            "ticks": 95328,
            "time": 124.125,
            "velocity": 0.3937007874015748
          },
          {
            "duration": 0.0625,
            "durationTicks": 48,
            "midi": 31,
            "name": "G1",
            "ticks": 95328,
            "time": 124.125,
            "velocity": 0.3937007874015748
          },
          {
            "duration": 0.0625,
            "durationTicks": 48,
            "midi": 31,
            "name": "G1",
            "ticks": 95472,
            "time": 124.3125,
            "velocity": 0.3937007874015748
          },
          {
            "duration": 0.0625,
            "durationTicks": 48,
            "midi": 31,
            "name": "G1",
            "ticks": 95472,
            "time": 124.3125,
            "velocity": 0.3937007874015748
          },
          {
            "duration": 0.0625,
            "durationTicks": 48,
            "midi": 31,
            "name": "G1",
            "ticks": 95760,
            "time": 124.6875,
            "velocity": 0.3937007874015748
          },
          {
            "duration": 0.0625,
            "durationTicks": 48,
            "midi": 31,
            "name": "G1",
            "ticks": 95760,
            "time": 124.6875,
            "velocity": 0.3937007874015748
          },
          {
            "duration": 0.0625,
            "durationTicks": 48,
            "midi": 31,
            "name": "G1",
            "ticks": 95904,
            "time": 124.875,
            "velocity": 0.3937007874015748
          },
          {
            "duration": 0.0625,
            "durationTicks": 48,
            "midi": 31,
            "name": "G1",
            "ticks": 95904,
            "time": 124.875,
            "velocity": 0.3937007874015748
          },
          {
            "duration": 0.0625,
            "durationTicks": 48,
            "midi": 31,
            "name": "G1",
            "ticks": 96048,
            "time": 125.0625,
            "velocity": 0.3937007874015748
          },
          {
            "duration": 0.0625,
            "durationTicks": 48,
            "midi": 31,
            "name": "G1",
            "ticks": 96048,
            "time": 125.0625,
            "velocity": 0.3937007874015748
          },
          {
            "duration": 0.0625,
            "durationTicks": 48,
            "midi": 36,
            "name": "C2",
            "ticks": 96192,
            "time": 125.25,
            "velocity": 0.3937007874015748
          },
          {
            "duration": 0.0625,
            "durationTicks": 48,
            "midi": 24,
            "name": "C1",
            "ticks": 96192,
            "time": 125.25,
            "velocity": 0.3937007874015748
          },
          {
            "duration": 0.0625,
            "durationTicks": 48,
            "midi": 36,
            "name": "C2",
            "ticks": 96480,
            "time": 125.625,
            "velocity": 0.3937007874015748
          },
          {
            "duration": 0.0625,
            "durationTicks": 48,
            "midi": 24,
            "name": "C1",
            "ticks": 96480,
            "time": 125.625,
            "velocity": 0.3937007874015748
          },
          {
            "duration": 0.0625,
            "durationTicks": 48,
            "midi": 24,
            "name": "C1",
            "ticks": 96624,
            "time": 125.8125,
            "velocity": 0.3937007874015748
          },
          {
            "duration": 0.0625,
            "durationTicks": 48,
            "midi": 36,
            "name": "C2",
            "ticks": 96624,
            "time": 125.8125,
            "velocity": 0.3937007874015748
          },
          {
            "duration": 0.0625,
            "durationTicks": 48,
            "midi": 24,
            "name": "C1",
            "ticks": 96912,
            "time": 126.1875,
            "velocity": 0.3937007874015748
          },
          {
            "duration": 0.0625,
            "durationTicks": 48,
            "midi": 36,
            "name": "C2",
            "ticks": 96912,
            "time": 126.1875,
            "velocity": 0.3937007874015748
          },
          {
            "duration": 0.0625,
            "durationTicks": 48,
            "midi": 24,
            "name": "C1",
            "ticks": 97056,
            "time": 126.375,
            "velocity": 0.3937007874015748
          },
          {
            "duration": 0.0625,
            "durationTicks": 48,
            "midi": 36,
            "name": "C2",
            "ticks": 97056,
            "time": 126.375,
            "velocity": 0.3937007874015748
          },
          {
            "duration": 0.0625,
            "durationTicks": 48,
            "midi": 36,
            "name": "C2",
            "ticks": 97200,
            "time": 126.5625,
            "velocity": 0.3937007874015748
          },
          {
            "duration": 0.0625,
            "durationTicks": 48,
            "midi": 24,
            "name": "C1",
            "ticks": 97200,
            "time": 126.5625,
            "velocity": 0.3937007874015748
          },
          {
            "duration": 0.0625,
            "durationTicks": 48,
            "midi": 36,
            "name": "C2",
            "ticks": 97344,
            "time": 126.75,
            "velocity": 0.3937007874015748
          },
          {
            "duration": 0.0625,
            "durationTicks": 48,
            "midi": 24,
            "name": "C1",
            "ticks": 97344,
            "time": 126.75,
            "velocity": 0.3937007874015748
          },
          {
            "duration": 0.0625,
            "durationTicks": 48,
            "midi": 36,
            "name": "C2",
            "ticks": 97632,
            "time": 127.125,
            "velocity": 0.3937007874015748
          },
          {
            "duration": 0.0625,
            "durationTicks": 48,
            "midi": 24,
            "name": "C1",
            "ticks": 97632,
            "time": 127.125,
            "velocity": 0.3937007874015748
          },
          {
            "duration": 0.0625,
            "durationTicks": 48,
            "midi": 36,
            "name": "C2",
            "ticks": 97776,
            "time": 127.3125,
            "velocity": 0.3937007874015748
          },
          {
            "duration": 0.0625,
            "durationTicks": 48,
            "midi": 24,
            "name": "C1",
            "ticks": 97776,
            "time": 127.3125,
            "velocity": 0.3937007874015748
          },
          {
            "duration": 0.0625,
            "durationTicks": 48,
            "midi": 36,
            "name": "C2",
            "ticks": 98064,
            "time": 127.6875,
            "velocity": 0.3937007874015748
          },
          {
            "duration": 0.0625,
            "durationTicks": 48,
            "midi": 24,
            "name": "C1",
            "ticks": 98064,
            "time": 127.6875,
            "velocity": 0.3937007874015748
          },
          {
            "duration": 0.0625,
            "durationTicks": 48,
            "midi": 36,
            "name": "C2",
            "ticks": 98208,
            "time": 127.875,
            "velocity": 0.3937007874015748
          },
          {
            "duration": 0.0625,
            "durationTicks": 48,
            "midi": 24,
            "name": "C1",
            "ticks": 98208,
            "time": 127.875,
            "velocity": 0.3937007874015748
          },
          {
            "duration": 0.0625,
            "durationTicks": 48,
            "midi": 36,
            "name": "C2",
            "ticks": 98352,
            "time": 128.0625,
            "velocity": 0.3937007874015748
          },
          {
            "duration": 0.0625,
            "durationTicks": 48,
            "midi": 24,
            "name": "C1",
            "ticks": 98352,
            "time": 128.0625,
            "velocity": 0.3937007874015748
          },
          {
            "duration": 0.0625,
            "durationTicks": 48,
            "midi": 38,
            "name": "D2",
            "ticks": 98496,
            "time": 128.25,
            "velocity": 0.3937007874015748
          },
          {
            "duration": 0.0625,
            "durationTicks": 48,
            "midi": 26,
            "name": "D1",
            "ticks": 98496,
            "time": 128.25,
            "velocity": 0.3937007874015748
          },
          {
            "duration": 0.0625,
            "durationTicks": 48,
            "midi": 45,
            "name": "A2",
            "ticks": 98784,
            "time": 128.625,
            "velocity": 0.3937007874015748
          },
          {
            "duration": 0.0625,
            "durationTicks": 48,
            "midi": 33,
            "name": "A1",
            "ticks": 98784,
            "time": 128.625,
            "velocity": 0.3937007874015748
          },
          {
            "duration": 0.0625,
            "durationTicks": 48,
            "midi": 26,
            "name": "D1",
            "ticks": 98928,
            "time": 128.8125,
            "velocity": 0.3937007874015748
          },
          {
            "duration": 0.0625,
            "durationTicks": 48,
            "midi": 38,
            "name": "D2",
            "ticks": 98928,
            "time": 128.8125,
            "velocity": 0.3937007874015748
          },
          {
            "duration": 0.0625,
            "durationTicks": 48,
            "midi": 40,
            "name": "E2",
            "ticks": 99072,
            "time": 129,
            "velocity": 0.3937007874015748
          },
          {
            "duration": 0.0625,
            "durationTicks": 48,
            "midi": 28,
            "name": "E1",
            "ticks": 99072,
            "time": 129,
            "velocity": 0.3937007874015748
          },
          {
            "duration": 0.0625,
            "durationTicks": 48,
            "midi": 40,
            "name": "E2",
            "ticks": 99360,
            "time": 129.375,
            "velocity": 0.3937007874015748
          },
          {
            "duration": 0.0625,
            "durationTicks": 48,
            "midi": 28,
            "name": "E1",
            "ticks": 99360,
            "time": 129.375,
            "velocity": 0.3937007874015748
          },
          {
            "duration": 0.0625,
            "durationTicks": 48,
            "midi": 28,
            "name": "E1",
            "ticks": 99504,
            "time": 129.5625,
            "velocity": 0.3937007874015748
          },
          {
            "duration": 0.0625,
            "durationTicks": 48,
            "midi": 40,
            "name": "E2",
            "ticks": 99504,
            "time": 129.5625,
            "velocity": 0.3937007874015748
          },
          {
            "duration": 0.0625,
            "durationTicks": 48,
            "midi": 40,
            "name": "E2",
            "ticks": 99792,
            "time": 129.9375,
            "velocity": 0.3937007874015748
          },
          {
            "duration": 0.0625,
            "durationTicks": 48,
            "midi": 28,
            "name": "E1",
            "ticks": 99792,
            "time": 129.9375,
            "velocity": 0.3937007874015748
          },
          {
            "duration": 0.0625,
            "durationTicks": 48,
            "midi": 40,
            "name": "E2",
            "ticks": 99936,
            "time": 130.125,
            "velocity": 0.3937007874015748
          },
          {
            "duration": 0.0625,
            "durationTicks": 48,
            "midi": 28,
            "name": "E1",
            "ticks": 99936,
            "time": 130.125,
            "velocity": 0.3937007874015748
          },
          {
            "duration": 0.0625,
            "durationTicks": 48,
            "midi": 40,
            "name": "E2",
            "ticks": 100080,
            "time": 130.3125,
            "velocity": 0.3937007874015748
          },
          {
            "duration": 0.0625,
            "durationTicks": 48,
            "midi": 28,
            "name": "E1",
            "ticks": 100080,
            "time": 130.3125,
            "velocity": 0.3937007874015748
          },
          {
            "duration": 0.0625,
            "durationTicks": 48,
            "midi": 31,
            "name": "G1",
            "ticks": 101376,
            "time": 132,
            "velocity": 0.3937007874015748
          },
          {
            "duration": 0.0625,
            "durationTicks": 48,
            "midi": 31,
            "name": "G1",
            "ticks": 101376,
            "time": 132,
            "velocity": 0.3937007874015748
          },
          {
            "duration": 0.0625,
            "durationTicks": 48,
            "midi": 31,
            "name": "G1",
            "ticks": 101664,
            "time": 132.375,
            "velocity": 0.3937007874015748
          },
          {
            "duration": 0.0625,
            "durationTicks": 48,
            "midi": 31,
            "name": "G1",
            "ticks": 101664,
            "time": 132.375,
            "velocity": 0.3937007874015748
          },
          {
            "duration": 0.0625,
            "durationTicks": 48,
            "midi": 31,
            "name": "G1",
            "ticks": 101808,
            "time": 132.5625,
            "velocity": 0.3937007874015748
          },
          {
            "duration": 0.0625,
            "durationTicks": 48,
            "midi": 31,
            "name": "G1",
            "ticks": 101808,
            "time": 132.5625,
            "velocity": 0.3937007874015748
          },
          {
            "duration": 0.0625,
            "durationTicks": 48,
            "midi": 31,
            "name": "G1",
            "ticks": 102096,
            "time": 132.9375,
            "velocity": 0.3937007874015748
          },
          {
            "duration": 0.0625,
            "durationTicks": 48,
            "midi": 31,
            "name": "G1",
            "ticks": 102096,
            "time": 132.9375,
            "velocity": 0.3937007874015748
          },
          {
            "duration": 0.0625,
            "durationTicks": 48,
            "midi": 31,
            "name": "G1",
            "ticks": 102240,
            "time": 133.125,
            "velocity": 0.3937007874015748
          },
          {
            "duration": 0.0625,
            "durationTicks": 48,
            "midi": 31,
            "name": "G1",
            "ticks": 102240,
            "time": 133.125,
            "velocity": 0.3937007874015748
          },
          {
            "duration": 0.0625,
            "durationTicks": 48,
            "midi": 31,
            "name": "G1",
            "ticks": 102384,
            "time": 133.3125,
            "velocity": 0.3937007874015748
          },
          {
            "duration": 0.0625,
            "durationTicks": 48,
            "midi": 31,
            "name": "G1",
            "ticks": 102384,
            "time": 133.3125,
            "velocity": 0.3937007874015748
          },
          {
            "duration": 0.0625,
            "durationTicks": 48,
            "midi": 36,
            "name": "C2",
            "ticks": 102528,
            "time": 133.5,
            "velocity": 0.3937007874015748
          },
          {
            "duration": 0.0625,
            "durationTicks": 48,
            "midi": 24,
            "name": "C1",
            "ticks": 102528,
            "time": 133.5,
            "velocity": 0.3937007874015748
          },
          {
            "duration": 0.0625,
            "durationTicks": 48,
            "midi": 24,
            "name": "C1",
            "ticks": 102816,
            "time": 133.875,
            "velocity": 0.3937007874015748
          },
          {
            "duration": 0.0625,
            "durationTicks": 48,
            "midi": 36,
            "name": "C2",
            "ticks": 102816,
            "time": 133.875,
            "velocity": 0.3937007874015748
          },
          {
            "duration": 0.0625,
            "durationTicks": 48,
            "midi": 24,
            "name": "C1",
            "ticks": 102960,
            "time": 134.0625,
            "velocity": 0.3937007874015748
          },
          {
            "duration": 0.0625,
            "durationTicks": 48,
            "midi": 36,
            "name": "C2",
            "ticks": 102960,
            "time": 134.0625,
            "velocity": 0.3937007874015748
          },
          {
            "duration": 0.0625,
            "durationTicks": 48,
            "midi": 36,
            "name": "C2",
            "ticks": 103248,
            "time": 134.4375,
            "velocity": 0.3937007874015748
          },
          {
            "duration": 0.0625,
            "durationTicks": 48,
            "midi": 24,
            "name": "C1",
            "ticks": 103248,
            "time": 134.4375,
            "velocity": 0.3937007874015748
          },
          {
            "duration": 0.0625,
            "durationTicks": 48,
            "midi": 36,
            "name": "C2",
            "ticks": 103392,
            "time": 134.625,
            "velocity": 0.3937007874015748
          },
          {
            "duration": 0.0625,
            "durationTicks": 48,
            "midi": 24,
            "name": "C1",
            "ticks": 103392,
            "time": 134.625,
            "velocity": 0.3937007874015748
          },
          {
            "duration": 0.0625,
            "durationTicks": 48,
            "midi": 24,
            "name": "C1",
            "ticks": 103536,
            "time": 134.8125,
            "velocity": 0.3937007874015748
          },
          {
            "duration": 0.0625,
            "durationTicks": 48,
            "midi": 36,
            "name": "C2",
            "ticks": 103536,
            "time": 134.8125,
            "velocity": 0.3937007874015748
          },
          {
            "duration": 0.0625,
            "durationTicks": 48,
            "midi": 24,
            "name": "C1",
            "ticks": 103680,
            "time": 135,
            "velocity": 0.3937007874015748
          },
          {
            "duration": 0.0625,
            "durationTicks": 48,
            "midi": 36,
            "name": "C2",
            "ticks": 103680,
            "time": 135,
            "velocity": 0.3937007874015748
          },
          {
            "duration": 0.0625,
            "durationTicks": 48,
            "midi": 24,
            "name": "C1",
            "ticks": 103968,
            "time": 135.375,
            "velocity": 0.3937007874015748
          },
          {
            "duration": 0.0625,
            "durationTicks": 48,
            "midi": 36,
            "name": "C2",
            "ticks": 103968,
            "time": 135.375,
            "velocity": 0.3937007874015748
          },
          {
            "duration": 0.0625,
            "durationTicks": 48,
            "midi": 36,
            "name": "C2",
            "ticks": 104112,
            "time": 135.5625,
            "velocity": 0.3937007874015748
          },
          {
            "duration": 0.0625,
            "durationTicks": 48,
            "midi": 24,
            "name": "C1",
            "ticks": 104112,
            "time": 135.5625,
            "velocity": 0.3937007874015748
          },
          {
            "duration": 0.0625,
            "durationTicks": 48,
            "midi": 36,
            "name": "C2",
            "ticks": 104400,
            "time": 135.9375,
            "velocity": 0.3937007874015748
          },
          {
            "duration": 0.0625,
            "durationTicks": 48,
            "midi": 24,
            "name": "C1",
            "ticks": 104400,
            "time": 135.9375,
            "velocity": 0.3937007874015748
          },
          {
            "duration": 0.0625,
            "durationTicks": 48,
            "midi": 36,
            "name": "C2",
            "ticks": 104544,
            "time": 136.125,
            "velocity": 0.3937007874015748
          },
          {
            "duration": 0.0625,
            "durationTicks": 48,
            "midi": 24,
            "name": "C1",
            "ticks": 104544,
            "time": 136.125,
            "velocity": 0.3937007874015748
          },
          {
            "duration": 0.0625,
            "durationTicks": 48,
            "midi": 24,
            "name": "C1",
            "ticks": 104688,
            "time": 136.3125,
            "velocity": 0.3937007874015748
          },
          {
            "duration": 0.0625,
            "durationTicks": 48,
            "midi": 36,
            "name": "C2",
            "ticks": 104688,
            "time": 136.3125,
            "velocity": 0.3937007874015748
          },
          {
            "duration": 0.0625,
            "durationTicks": 48,
            "midi": 38,
            "name": "D2",
            "ticks": 104832,
            "time": 136.5,
            "velocity": 0.3937007874015748
          },
          {
            "duration": 0.0625,
            "durationTicks": 48,
            "midi": 26,
            "name": "D1",
            "ticks": 104832,
            "time": 136.5,
            "velocity": 0.3937007874015748
          },
          {
            "duration": 0.0625,
            "durationTicks": 48,
            "midi": 45,
            "name": "A2",
            "ticks": 105120,
            "time": 136.875,
            "velocity": 0.3937007874015748
          },
          {
            "duration": 0.0625,
            "durationTicks": 48,
            "midi": 33,
            "name": "A1",
            "ticks": 105120,
            "time": 136.875,
            "velocity": 0.3937007874015748
          },
          {
            "duration": 0.0625,
            "durationTicks": 48,
            "midi": 26,
            "name": "D1",
            "ticks": 105264,
            "time": 137.0625,
            "velocity": 0.3937007874015748
          },
          {
            "duration": 0.0625,
            "durationTicks": 48,
            "midi": 38,
            "name": "D2",
            "ticks": 105264,
            "time": 137.0625,
            "velocity": 0.3937007874015748
          },
          {
            "duration": 0.0625,
            "durationTicks": 48,
            "midi": 40,
            "name": "E2",
            "ticks": 105408,
            "time": 137.25,
            "velocity": 0.3937007874015748
          },
          {
            "duration": 0.0625,
            "durationTicks": 48,
            "midi": 28,
            "name": "E1",
            "ticks": 105408,
            "time": 137.25,
            "velocity": 0.3937007874015748
          },
          {
            "duration": 0.0625,
            "durationTicks": 48,
            "midi": 40,
            "name": "E2",
            "ticks": 105696,
            "time": 137.625,
            "velocity": 0.3937007874015748
          },
          {
            "duration": 0.0625,
            "durationTicks": 48,
            "midi": 28,
            "name": "E1",
            "ticks": 105696,
            "time": 137.625,
            "velocity": 0.3937007874015748
          },
          {
            "duration": 0.0625,
            "durationTicks": 48,
            "midi": 28,
            "name": "E1",
            "ticks": 105840,
            "time": 137.8125,
            "velocity": 0.3937007874015748
          },
          {
            "duration": 0.0625,
            "durationTicks": 48,
            "midi": 40,
            "name": "E2",
            "ticks": 105840,
            "time": 137.8125,
            "velocity": 0.3937007874015748
          },
          {
            "duration": 0.0625,
            "durationTicks": 48,
            "midi": 28,
            "name": "E1",
            "ticks": 106128,
            "time": 138.1875,
            "velocity": 0.3937007874015748
          },
          {
            "duration": 0.0625,
            "durationTicks": 48,
            "midi": 40,
            "name": "E2",
            "ticks": 106128,
            "time": 138.1875,
            "velocity": 0.3937007874015748
          },
          {
            "duration": 0.0625,
            "durationTicks": 48,
            "midi": 40,
            "name": "E2",
            "ticks": 106272,
            "time": 138.375,
            "velocity": 0.3937007874015748
          },
          {
            "duration": 0.0625,
            "durationTicks": 48,
            "midi": 28,
            "name": "E1",
            "ticks": 106272,
            "time": 138.375,
            "velocity": 0.3937007874015748
          },
          {
            "duration": 0.0625,
            "durationTicks": 48,
            "midi": 40,
            "name": "E2",
            "ticks": 106416,
            "time": 138.5625,
            "velocity": 0.3937007874015748
          },
          {
            "duration": 0.0625,
            "durationTicks": 48,
            "midi": 28,
            "name": "E1",
            "ticks": 106416,
            "time": 138.5625,
            "velocity": 0.3937007874015748
          },
          {
            "duration": 0.0625,
            "durationTicks": 48,
            "midi": 31,
            "name": "G1",
            "ticks": 107712,
            "time": 140.25,
            "velocity": 0.3937007874015748
          },
          {
            "duration": 0.0625,
            "durationTicks": 48,
            "midi": 31,
            "name": "G1",
            "ticks": 107712,
            "time": 140.25,
            "velocity": 0.3937007874015748
          },
          {
            "duration": 0.0625,
            "durationTicks": 48,
            "midi": 31,
            "name": "G1",
            "ticks": 108000,
            "time": 140.625,
            "velocity": 0.3937007874015748
          },
          {
            "duration": 0.0625,
            "durationTicks": 48,
            "midi": 31,
            "name": "G1",
            "ticks": 108000,
            "time": 140.625,
            "velocity": 0.3937007874015748
          },
          {
            "duration": 0.0625,
            "durationTicks": 48,
            "midi": 31,
            "name": "G1",
            "ticks": 108144,
            "time": 140.8125,
            "velocity": 0.3937007874015748
          },
          {
            "duration": 0.0625,
            "durationTicks": 48,
            "midi": 31,
            "name": "G1",
            "ticks": 108144,
            "time": 140.8125,
            "velocity": 0.3937007874015748
          },
          {
            "duration": 0.0625,
            "durationTicks": 48,
            "midi": 31,
            "name": "G1",
            "ticks": 108432,
            "time": 141.1875,
            "velocity": 0.3937007874015748
          },
          {
            "duration": 0.0625,
            "durationTicks": 48,
            "midi": 31,
            "name": "G1",
            "ticks": 108432,
            "time": 141.1875,
            "velocity": 0.3937007874015748
          },
          {
            "duration": 0.0625,
            "durationTicks": 48,
            "midi": 31,
            "name": "G1",
            "ticks": 108576,
            "time": 141.375,
            "velocity": 0.3937007874015748
          },
          {
            "duration": 0.0625,
            "durationTicks": 48,
            "midi": 31,
            "name": "G1",
            "ticks": 108576,
            "time": 141.375,
            "velocity": 0.3937007874015748
          },
          {
            "duration": 0.0625,
            "durationTicks": 48,
            "midi": 31,
            "name": "G1",
            "ticks": 108720,
            "time": 141.5625,
            "velocity": 0.3937007874015748
          },
          {
            "duration": 0.0625,
            "durationTicks": 48,
            "midi": 31,
            "name": "G1",
            "ticks": 108720,
            "time": 141.5625,
            "velocity": 0.3937007874015748
          },
          {
            "duration": 0.0625,
            "durationTicks": 48,
            "midi": 36,
            "name": "C2",
            "ticks": 108864,
            "time": 141.75,
            "velocity": 0.3937007874015748
          },
          {
            "duration": 0.0625,
            "durationTicks": 48,
            "midi": 24,
            "name": "C1",
            "ticks": 108864,
            "time": 141.75,
            "velocity": 0.3937007874015748
          },
          {
            "duration": 0.0625,
            "durationTicks": 48,
            "midi": 24,
            "name": "C1",
            "ticks": 109152,
            "time": 142.125,
            "velocity": 0.3937007874015748
          },
          {
            "duration": 0.0625,
            "durationTicks": 48,
            "midi": 36,
            "name": "C2",
            "ticks": 109152,
            "time": 142.125,
            "velocity": 0.3937007874015748
          },
          {
            "duration": 0.0625,
            "durationTicks": 48,
            "midi": 24,
            "name": "C1",
            "ticks": 109296,
            "time": 142.3125,
            "velocity": 0.3937007874015748
          },
          {
            "duration": 0.0625,
            "durationTicks": 48,
            "midi": 36,
            "name": "C2",
            "ticks": 109296,
            "time": 142.3125,
            "velocity": 0.3937007874015748
          },
          {
            "duration": 0.0625,
            "durationTicks": 48,
            "midi": 36,
            "name": "C2",
            "ticks": 109584,
            "time": 142.6875,
            "velocity": 0.3937007874015748
          },
          {
            "duration": 0.0625,
            "durationTicks": 48,
            "midi": 24,
            "name": "C1",
            "ticks": 109584,
            "time": 142.6875,
            "velocity": 0.3937007874015748
          },
          {
            "duration": 0.0625,
            "durationTicks": 48,
            "midi": 36,
            "name": "C2",
            "ticks": 109728,
            "time": 142.875,
            "velocity": 0.3937007874015748
          },
          {
            "duration": 0.0625,
            "durationTicks": 48,
            "midi": 24,
            "name": "C1",
            "ticks": 109728,
            "time": 142.875,
            "velocity": 0.3937007874015748
          },
          {
            "duration": 0.0625,
            "durationTicks": 48,
            "midi": 36,
            "name": "C2",
            "ticks": 109872,
            "time": 143.0625,
            "velocity": 0.3937007874015748
          },
          {
            "duration": 0.0625,
            "durationTicks": 48,
            "midi": 24,
            "name": "C1",
            "ticks": 109872,
            "time": 143.0625,
            "velocity": 0.3937007874015748
          },
          {
            "duration": 0.0625,
            "durationTicks": 48,
            "midi": 24,
            "name": "C1",
            "ticks": 110016,
            "time": 143.25,
            "velocity": 0.3937007874015748
          },
          {
            "duration": 0.0625,
            "durationTicks": 48,
            "midi": 36,
            "name": "C2",
            "ticks": 110016,
            "time": 143.25,
            "velocity": 0.3937007874015748
          },
          {
            "duration": 0.0625,
            "durationTicks": 48,
            "midi": 24,
            "name": "C1",
            "ticks": 110304,
            "time": 143.625,
            "velocity": 0.3937007874015748
          },
          {
            "duration": 0.0625,
            "durationTicks": 48,
            "midi": 36,
            "name": "C2",
            "ticks": 110304,
            "time": 143.625,
            "velocity": 0.3937007874015748
          },
          {
            "duration": 0.0625,
            "durationTicks": 48,
            "midi": 36,
            "name": "C2",
            "ticks": 110448,
            "time": 143.8125,
            "velocity": 0.3937007874015748
          },
          {
            "duration": 0.0625,
            "durationTicks": 48,
            "midi": 24,
            "name": "C1",
            "ticks": 110448,
            "time": 143.8125,
            "velocity": 0.3937007874015748
          },
          {
            "duration": 0.0625,
            "durationTicks": 48,
            "midi": 24,
            "name": "C1",
            "ticks": 110736,
            "time": 144.1875,
            "velocity": 0.3937007874015748
          },
          {
            "duration": 0.0625,
            "durationTicks": 48,
            "midi": 36,
            "name": "C2",
            "ticks": 110736,
            "time": 144.1875,
            "velocity": 0.3937007874015748
          },
          {
            "duration": 0.0625,
            "durationTicks": 48,
            "midi": 36,
            "name": "C2",
            "ticks": 110880,
            "time": 144.375,
            "velocity": 0.3937007874015748
          },
          {
            "duration": 0.0625,
            "durationTicks": 48,
            "midi": 24,
            "name": "C1",
            "ticks": 110880,
            "time": 144.375,
            "velocity": 0.3937007874015748
          },
          {
            "duration": 0.0625,
            "durationTicks": 48,
            "midi": 36,
            "name": "C2",
            "ticks": 111024,
            "time": 144.5625,
            "velocity": 0.3937007874015748
          },
          {
            "duration": 0.0625,
            "durationTicks": 48,
            "midi": 24,
            "name": "C1",
            "ticks": 111024,
            "time": 144.5625,
            "velocity": 0.3937007874015748
          },
          {
            "duration": 0.0625,
            "durationTicks": 48,
            "midi": 26,
            "name": "D1",
            "ticks": 111168,
            "time": 144.75,
            "velocity": 0.3937007874015748
          },
          {
            "duration": 0.0625,
            "durationTicks": 48,
            "midi": 38,
            "name": "D2",
            "ticks": 111168,
            "time": 144.75,
            "velocity": 0.3937007874015748
          },
          {
            "duration": 0.0625,
            "durationTicks": 48,
            "midi": 33,
            "name": "A1",
            "ticks": 111456,
            "time": 145.125,
            "velocity": 0.3937007874015748
          },
          {
            "duration": 0.0625,
            "durationTicks": 48,
            "midi": 45,
            "name": "A2",
            "ticks": 111456,
            "time": 145.125,
            "velocity": 0.3937007874015748
          },
          {
            "duration": 0.0625,
            "durationTicks": 48,
            "midi": 38,
            "name": "D2",
            "ticks": 111600,
            "time": 145.3125,
            "velocity": 0.3937007874015748
          },
          {
            "duration": 0.0625,
            "durationTicks": 48,
            "midi": 26,
            "name": "D1",
            "ticks": 111600,
            "time": 145.3125,
            "velocity": 0.3937007874015748
          },
          {
            "duration": 0.0625,
            "durationTicks": 48,
            "midi": 40,
            "name": "E2",
            "ticks": 111744,
            "time": 145.5,
            "velocity": 0.3937007874015748
          },
          {
            "duration": 0.0625,
            "durationTicks": 48,
            "midi": 28,
            "name": "E1",
            "ticks": 111744,
            "time": 145.5,
            "velocity": 0.3937007874015748
          },
          {
            "duration": 0.0625,
            "durationTicks": 48,
            "midi": 40,
            "name": "E2",
            "ticks": 112032,
            "time": 145.875,
            "velocity": 0.3937007874015748
          },
          {
            "duration": 0.0625,
            "durationTicks": 48,
            "midi": 28,
            "name": "E1",
            "ticks": 112032,
            "time": 145.875,
            "velocity": 0.3937007874015748
          },
          {
            "duration": 0.0625,
            "durationTicks": 48,
            "midi": 28,
            "name": "E1",
            "ticks": 112176,
            "time": 146.0625,
            "velocity": 0.3937007874015748
          },
          {
            "duration": 0.0625,
            "durationTicks": 48,
            "midi": 40,
            "name": "E2",
            "ticks": 112176,
            "time": 146.0625,
            "velocity": 0.3937007874015748
          },
          {
            "duration": 0.0625,
            "durationTicks": 48,
            "midi": 28,
            "name": "E1",
            "ticks": 112464,
            "time": 146.4375,
            "velocity": 0.3937007874015748
          },
          {
            "duration": 0.0625,
            "durationTicks": 48,
            "midi": 40,
            "name": "E2",
            "ticks": 112464,
            "time": 146.4375,
            "velocity": 0.3937007874015748
          },
          {
            "duration": 0.0625,
            "durationTicks": 48,
            "midi": 28,
            "name": "E1",
            "ticks": 112608,
            "time": 146.625,
            "velocity": 0.3937007874015748
          },
          {
            "duration": 0.0625,
            "durationTicks": 48,
            "midi": 40,
            "name": "E2",
            "ticks": 112608,
            "time": 146.625,
            "velocity": 0.3937007874015748
          },
          {
            "duration": 0.0625,
            "durationTicks": 48,
            "midi": 40,
            "name": "E2",
            "ticks": 112752,
            "time": 146.8125,
            "velocity": 0.3937007874015748
          },
          {
            "duration": 0.0625,
            "durationTicks": 48,
            "midi": 28,
            "name": "E1",
            "ticks": 112752,
            "time": 146.8125,
            "velocity": 0.3937007874015748
          },
          {
            "duration": 0.0625,
            "durationTicks": 48,
            "midi": 31,
            "name": "G1",
            "ticks": 114048,
            "time": 148.5,
            "velocity": 0.3937007874015748
          },
          {
            "duration": 0.0625,
            "durationTicks": 48,
            "midi": 31,
            "name": "G1",
            "ticks": 114048,
            "time": 148.5,
            "velocity": 0.3937007874015748
          },
          {
            "duration": 0.0625,
            "durationTicks": 48,
            "midi": 31,
            "name": "G1",
            "ticks": 114336,
            "time": 148.875,
            "velocity": 0.3937007874015748
          },
          {
            "duration": 0.0625,
            "durationTicks": 48,
            "midi": 31,
            "name": "G1",
            "ticks": 114336,
            "time": 148.875,
            "velocity": 0.3937007874015748
          },
          {
            "duration": 0.0625,
            "durationTicks": 48,
            "midi": 31,
            "name": "G1",
            "ticks": 114480,
            "time": 149.0625,
            "velocity": 0.3937007874015748
          },
          {
            "duration": 0.0625,
            "durationTicks": 48,
            "midi": 31,
            "name": "G1",
            "ticks": 114480,
            "time": 149.0625,
            "velocity": 0.3937007874015748
          },
          {
            "duration": 0.0625,
            "durationTicks": 48,
            "midi": 31,
            "name": "G1",
            "ticks": 114768,
            "time": 149.4375,
            "velocity": 0.3937007874015748
          },
          {
            "duration": 0.0625,
            "durationTicks": 48,
            "midi": 31,
            "name": "G1",
            "ticks": 114768,
            "time": 149.4375,
            "velocity": 0.3937007874015748
          },
          {
            "duration": 0.0625,
            "durationTicks": 48,
            "midi": 31,
            "name": "G1",
            "ticks": 114912,
            "time": 149.625,
            "velocity": 0.3937007874015748
          },
          {
            "duration": 0.0625,
            "durationTicks": 48,
            "midi": 31,
            "name": "G1",
            "ticks": 114912,
            "time": 149.625,
            "velocity": 0.3937007874015748
          },
          {
            "duration": 0.0625,
            "durationTicks": 48,
            "midi": 31,
            "name": "G1",
            "ticks": 115056,
            "time": 149.8125,
            "velocity": 0.3937007874015748
          },
          {
            "duration": 0.0625,
            "durationTicks": 48,
            "midi": 31,
            "name": "G1",
            "ticks": 115056,
            "time": 149.8125,
            "velocity": 0.3937007874015748
          },
          {
            "duration": 0.0625,
            "durationTicks": 48,
            "midi": 36,
            "name": "C2",
            "ticks": 115200,
            "time": 150,
            "velocity": 0.3937007874015748
          },
          {
            "duration": 0.0625,
            "durationTicks": 48,
            "midi": 24,
            "name": "C1",
            "ticks": 115200,
            "time": 150,
            "velocity": 0.3937007874015748
          },
          {
            "duration": 0.0625,
            "durationTicks": 48,
            "midi": 24,
            "name": "C1",
            "ticks": 115488,
            "time": 150.375,
            "velocity": 0.3937007874015748
          },
          {
            "duration": 0.0625,
            "durationTicks": 48,
            "midi": 36,
            "name": "C2",
            "ticks": 115488,
            "time": 150.375,
            "velocity": 0.3937007874015748
          },
          {
            "duration": 0.0625,
            "durationTicks": 48,
            "midi": 36,
            "name": "C2",
            "ticks": 115632,
            "time": 150.5625,
            "velocity": 0.3937007874015748
          },
          {
            "duration": 0.0625,
            "durationTicks": 48,
            "midi": 24,
            "name": "C1",
            "ticks": 115632,
            "time": 150.5625,
            "velocity": 0.3937007874015748
          },
          {
            "duration": 0.0625,
            "durationTicks": 48,
            "midi": 24,
            "name": "C1",
            "ticks": 115920,
            "time": 150.9375,
            "velocity": 0.3937007874015748
          },
          {
            "duration": 0.0625,
            "durationTicks": 48,
            "midi": 36,
            "name": "C2",
            "ticks": 115920,
            "time": 150.9375,
            "velocity": 0.3937007874015748
          },
          {
            "duration": 0.0625,
            "durationTicks": 48,
            "midi": 36,
            "name": "C2",
            "ticks": 116064,
            "time": 151.125,
            "velocity": 0.3937007874015748
          },
          {
            "duration": 0.0625,
            "durationTicks": 48,
            "midi": 24,
            "name": "C1",
            "ticks": 116064,
            "time": 151.125,
            "velocity": 0.3937007874015748
          },
          {
            "duration": 0.0625,
            "durationTicks": 48,
            "midi": 24,
            "name": "C1",
            "ticks": 116208,
            "time": 151.3125,
            "velocity": 0.3937007874015748
          },
          {
            "duration": 0.0625,
            "durationTicks": 48,
            "midi": 36,
            "name": "C2",
            "ticks": 116208,
            "time": 151.3125,
            "velocity": 0.3937007874015748
          },
          {
            "duration": 0.0625,
            "durationTicks": 48,
            "midi": 24,
            "name": "C1",
            "ticks": 116352,
            "time": 151.5,
            "velocity": 0.3937007874015748
          },
          {
            "duration": 0.0625,
            "durationTicks": 48,
            "midi": 36,
            "name": "C2",
            "ticks": 116352,
            "time": 151.5,
            "velocity": 0.3937007874015748
          },
          {
            "duration": 0.0625,
            "durationTicks": 48,
            "midi": 24,
            "name": "C1",
            "ticks": 116640,
            "time": 151.875,
            "velocity": 0.3937007874015748
          },
          {
            "duration": 0.0625,
            "durationTicks": 48,
            "midi": 36,
            "name": "C2",
            "ticks": 116640,
            "time": 151.875,
            "velocity": 0.3937007874015748
          },
          {
            "duration": 0.0625,
            "durationTicks": 48,
            "midi": 36,
            "name": "C2",
            "ticks": 116784,
            "time": 152.0625,
            "velocity": 0.3937007874015748
          },
          {
            "duration": 0.0625,
            "durationTicks": 48,
            "midi": 24,
            "name": "C1",
            "ticks": 116784,
            "time": 152.0625,
            "velocity": 0.3937007874015748
          },
          {
            "duration": 0.0625,
            "durationTicks": 48,
            "midi": 24,
            "name": "C1",
            "ticks": 117072,
            "time": 152.4375,
            "velocity": 0.3937007874015748
          },
          {
            "duration": 0.0625,
            "durationTicks": 48,
            "midi": 36,
            "name": "C2",
            "ticks": 117072,
            "time": 152.4375,
            "velocity": 0.3937007874015748
          },
          {
            "duration": 0.0625,
            "durationTicks": 48,
            "midi": 36,
            "name": "C2",
            "ticks": 117216,
            "time": 152.625,
            "velocity": 0.3937007874015748
          },
          {
            "duration": 0.0625,
            "durationTicks": 48,
            "midi": 24,
            "name": "C1",
            "ticks": 117216,
            "time": 152.625,
            "velocity": 0.3937007874015748
          },
          {
            "duration": 0.0625,
            "durationTicks": 48,
            "midi": 36,
            "name": "C2",
            "ticks": 117360,
            "time": 152.8125,
            "velocity": 0.3937007874015748
          },
          {
            "duration": 0.0625,
            "durationTicks": 48,
            "midi": 24,
            "name": "C1",
            "ticks": 117360,
            "time": 152.8125,
            "velocity": 0.3937007874015748
          },
          {
            "duration": 0.0625,
            "durationTicks": 48,
            "midi": 26,
            "name": "D1",
            "ticks": 117504,
            "time": 153,
            "velocity": 0.3937007874015748
          },
          {
            "duration": 0.0625,
            "durationTicks": 48,
            "midi": 38,
            "name": "D2",
            "ticks": 117504,
            "time": 153,
            "velocity": 0.3937007874015748
          },
          {
            "duration": 0.0625,
            "durationTicks": 48,
            "midi": 33,
            "name": "A1",
            "ticks": 117792,
            "time": 153.375,
            "velocity": 0.3937007874015748
          },
          {
            "duration": 0.0625,
            "durationTicks": 48,
            "midi": 45,
            "name": "A2",
            "ticks": 117792,
            "time": 153.375,
            "velocity": 0.3937007874015748
          },
          {
            "duration": 0.0625,
            "durationTicks": 48,
            "midi": 26,
            "name": "D1",
            "ticks": 117936,
            "time": 153.5625,
            "velocity": 0.3937007874015748
          },
          {
            "duration": 0.0625,
            "durationTicks": 48,
            "midi": 38,
            "name": "D2",
            "ticks": 117936,
            "time": 153.5625,
            "velocity": 0.3937007874015748
          },
          {
            "duration": 0.0625,
            "durationTicks": 48,
            "midi": 28,
            "name": "E1",
            "ticks": 118080,
            "time": 153.75,
            "velocity": 0.3937007874015748
          },
          {
            "duration": 0.0625,
            "durationTicks": 48,
            "midi": 40,
            "name": "E2",
            "ticks": 118080,
            "time": 153.75,
            "velocity": 0.3937007874015748
          },
          {
            "duration": 0.0625,
            "durationTicks": 48,
            "midi": 28,
            "name": "E1",
            "ticks": 118368,
            "time": 154.125,
            "velocity": 0.3937007874015748
          },
          {
            "duration": 0.0625,
            "durationTicks": 48,
            "midi": 40,
            "name": "E2",
            "ticks": 118368,
            "time": 154.125,
            "velocity": 0.3937007874015748
          },
          {
            "duration": 0.0625,
            "durationTicks": 48,
            "midi": 28,
            "name": "E1",
            "ticks": 118512,
            "time": 154.3125,
            "velocity": 0.3937007874015748
          },
          {
            "duration": 0.0625,
            "durationTicks": 48,
            "midi": 40,
            "name": "E2",
            "ticks": 118512,
            "time": 154.3125,
            "velocity": 0.3937007874015748
          },
          {
            "duration": 0.0625,
            "durationTicks": 48,
            "midi": 28,
            "name": "E1",
            "ticks": 118800,
            "time": 154.6875,
            "velocity": 0.3937007874015748
          },
          {
            "duration": 0.0625,
            "durationTicks": 48,
            "midi": 40,
            "name": "E2",
            "ticks": 118800,
            "time": 154.6875,
            "velocity": 0.3937007874015748
          },
          {
            "duration": 0.0625,
            "durationTicks": 48,
            "midi": 40,
            "name": "E2",
            "ticks": 118944,
            "time": 154.875,
            "velocity": 0.3937007874015748
          },
          {
            "duration": 0.0625,
            "durationTicks": 48,
            "midi": 28,
            "name": "E1",
            "ticks": 118944,
            "time": 154.875,
            "velocity": 0.3937007874015748
          },
          {
            "duration": 0.0625,
            "durationTicks": 48,
            "midi": 40,
            "name": "E2",
            "ticks": 119088,
            "time": 155.0625,
            "velocity": 0.3937007874015748
          },
          {
            "duration": 0.0625,
            "durationTicks": 48,
            "midi": 28,
            "name": "E1",
            "ticks": 119088,
            "time": 155.0625,
            "velocity": 0.3937007874015748
          },
          {
            "duration": 0.0625,
            "durationTicks": 48,
            "midi": 31,
            "name": "G1",
            "ticks": 120384,
            "time": 156.75,
            "velocity": 0.3937007874015748
          },
          {
            "duration": 0.0625,
            "durationTicks": 48,
            "midi": 31,
            "name": "G1",
            "ticks": 120384,
            "time": 156.75,
            "velocity": 0.3937007874015748
          },
          {
            "duration": 0.0625,
            "durationTicks": 48,
            "midi": 31,
            "name": "G1",
            "ticks": 120672,
            "time": 157.125,
            "velocity": 0.3937007874015748
          },
          {
            "duration": 0.0625,
            "durationTicks": 48,
            "midi": 31,
            "name": "G1",
            "ticks": 120672,
            "time": 157.125,
            "velocity": 0.3937007874015748
          },
          {
            "duration": 0.0625,
            "durationTicks": 48,
            "midi": 31,
            "name": "G1",
            "ticks": 120816,
            "time": 157.3125,
            "velocity": 0.3937007874015748
          },
          {
            "duration": 0.0625,
            "durationTicks": 48,
            "midi": 31,
            "name": "G1",
            "ticks": 120816,
            "time": 157.3125,
            "velocity": 0.3937007874015748
          },
          {
            "duration": 0.0625,
            "durationTicks": 48,
            "midi": 31,
            "name": "G1",
            "ticks": 121104,
            "time": 157.6875,
            "velocity": 0.3937007874015748
          },
          {
            "duration": 0.0625,
            "durationTicks": 48,
            "midi": 31,
            "name": "G1",
            "ticks": 121104,
            "time": 157.6875,
            "velocity": 0.3937007874015748
          },
          {
            "duration": 0.0625,
            "durationTicks": 48,
            "midi": 31,
            "name": "G1",
            "ticks": 121248,
            "time": 157.875,
            "velocity": 0.3937007874015748
          },
          {
            "duration": 0.0625,
            "durationTicks": 48,
            "midi": 31,
            "name": "G1",
            "ticks": 121248,
            "time": 157.875,
            "velocity": 0.3937007874015748
          },
          {
            "duration": 0.0625,
            "durationTicks": 48,
            "midi": 31,
            "name": "G1",
            "ticks": 121392,
            "time": 158.0625,
            "velocity": 0.3937007874015748
          },
          {
            "duration": 0.0625,
            "durationTicks": 48,
            "midi": 31,
            "name": "G1",
            "ticks": 121392,
            "time": 158.0625,
            "velocity": 0.3937007874015748
          },
          {
            "duration": 0.0625,
            "durationTicks": 48,
            "midi": 36,
            "name": "C2",
            "ticks": 121536,
            "time": 158.25,
            "velocity": 0.3937007874015748
          },
          {
            "duration": 0.0625,
            "durationTicks": 48,
            "midi": 24,
            "name": "C1",
            "ticks": 121536,
            "time": 158.25,
            "velocity": 0.3937007874015748
          },
          {
            "duration": 0.0625,
            "durationTicks": 48,
            "midi": 36,
            "name": "C2",
            "ticks": 121824,
            "time": 158.625,
            "velocity": 0.3937007874015748
          },
          {
            "duration": 0.0625,
            "durationTicks": 48,
            "midi": 24,
            "name": "C1",
            "ticks": 121824,
            "time": 158.625,
            "velocity": 0.3937007874015748
          },
          {
            "duration": 0.0625,
            "durationTicks": 48,
            "midi": 36,
            "name": "C2",
            "ticks": 121968,
            "time": 158.8125,
            "velocity": 0.3937007874015748
          },
          {
            "duration": 0.0625,
            "durationTicks": 48,
            "midi": 24,
            "name": "C1",
            "ticks": 121968,
            "time": 158.8125,
            "velocity": 0.3937007874015748
          },
          {
            "duration": 0.0625,
            "durationTicks": 48,
            "midi": 36,
            "name": "C2",
            "ticks": 122256,
            "time": 159.1875,
            "velocity": 0.3937007874015748
          },
          {
            "duration": 0.0625,
            "durationTicks": 48,
            "midi": 24,
            "name": "C1",
            "ticks": 122256,
            "time": 159.1875,
            "velocity": 0.3937007874015748
          },
          {
            "duration": 0.0625,
            "durationTicks": 48,
            "midi": 24,
            "name": "C1",
            "ticks": 122400,
            "time": 159.375,
            "velocity": 0.3937007874015748
          },
          {
            "duration": 0.0625,
            "durationTicks": 48,
            "midi": 36,
            "name": "C2",
            "ticks": 122400,
            "time": 159.375,
            "velocity": 0.3937007874015748
          },
          {
            "duration": 0.0625,
            "durationTicks": 48,
            "midi": 36,
            "name": "C2",
            "ticks": 122544,
            "time": 159.5625,
            "velocity": 0.3937007874015748
          },
          {
            "duration": 0.0625,
            "durationTicks": 48,
            "midi": 24,
            "name": "C1",
            "ticks": 122544,
            "time": 159.5625,
            "velocity": 0.3937007874015748
          },
          {
            "duration": 0.0625,
            "durationTicks": 48,
            "midi": 24,
            "name": "C1",
            "ticks": 122688,
            "time": 159.75,
            "velocity": 0.3937007874015748
          },
          {
            "duration": 0.0625,
            "durationTicks": 48,
            "midi": 36,
            "name": "C2",
            "ticks": 122688,
            "time": 159.75,
            "velocity": 0.3937007874015748
          },
          {
            "duration": 0.0625,
            "durationTicks": 48,
            "midi": 36,
            "name": "C2",
            "ticks": 122976,
            "time": 160.125,
            "velocity": 0.3937007874015748
          },
          {
            "duration": 0.0625,
            "durationTicks": 48,
            "midi": 24,
            "name": "C1",
            "ticks": 122976,
            "time": 160.125,
            "velocity": 0.3937007874015748
          },
          {
            "duration": 0.0625,
            "durationTicks": 48,
            "midi": 36,
            "name": "C2",
            "ticks": 123120,
            "time": 160.3125,
            "velocity": 0.3937007874015748
          },
          {
            "duration": 0.0625,
            "durationTicks": 48,
            "midi": 24,
            "name": "C1",
            "ticks": 123120,
            "time": 160.3125,
            "velocity": 0.3937007874015748
          },
          {
            "duration": 0.0625,
            "durationTicks": 48,
            "midi": 24,
            "name": "C1",
            "ticks": 123408,
            "time": 160.6875,
            "velocity": 0.3937007874015748
          },
          {
            "duration": 0.0625,
            "durationTicks": 48,
            "midi": 36,
            "name": "C2",
            "ticks": 123408,
            "time": 160.6875,
            "velocity": 0.3937007874015748
          },
          {
            "duration": 0.0625,
            "durationTicks": 48,
            "midi": 24,
            "name": "C1",
            "ticks": 123552,
            "time": 160.875,
            "velocity": 0.3937007874015748
          },
          {
            "duration": 0.0625,
            "durationTicks": 48,
            "midi": 36,
            "name": "C2",
            "ticks": 123552,
            "time": 160.875,
            "velocity": 0.3937007874015748
          },
          {
            "duration": 0.0625,
            "durationTicks": 48,
            "midi": 36,
            "name": "C2",
            "ticks": 123696,
            "time": 161.0625,
            "velocity": 0.3937007874015748
          },
          {
            "duration": 0.0625,
            "durationTicks": 48,
            "midi": 24,
            "name": "C1",
            "ticks": 123696,
            "time": 161.0625,
            "velocity": 0.3937007874015748
          },
          {
            "duration": 0.0625,
            "durationTicks": 48,
            "midi": 26,
            "name": "D1",
            "ticks": 123840,
            "time": 161.25,
            "velocity": 0.3937007874015748
          },
          {
            "duration": 0.0625,
            "durationTicks": 48,
            "midi": 38,
            "name": "D2",
            "ticks": 123840,
            "time": 161.25,
            "velocity": 0.3937007874015748
          },
          {
            "duration": 0.0625,
            "durationTicks": 48,
            "midi": 33,
            "name": "A1",
            "ticks": 124128,
            "time": 161.625,
            "velocity": 0.3937007874015748
          },
          {
            "duration": 0.0625,
            "durationTicks": 48,
            "midi": 45,
            "name": "A2",
            "ticks": 124128,
            "time": 161.625,
            "velocity": 0.3937007874015748
          },
          {
            "duration": 0.0625,
            "durationTicks": 48,
            "midi": 38,
            "name": "D2",
            "ticks": 124272,
            "time": 161.8125,
            "velocity": 0.3937007874015748
          },
          {
            "duration": 0.0625,
            "durationTicks": 48,
            "midi": 26,
            "name": "D1",
            "ticks": 124272,
            "time": 161.8125,
            "velocity": 0.3937007874015748
          },
          {
            "duration": 0.0625,
            "durationTicks": 48,
            "midi": 28,
            "name": "E1",
            "ticks": 124416,
            "time": 162,
            "velocity": 0.3937007874015748
          },
          {
            "duration": 0.0625,
            "durationTicks": 48,
            "midi": 40,
            "name": "E2",
            "ticks": 124416,
            "time": 162,
            "velocity": 0.3937007874015748
          },
          {
            "duration": 0.0625,
            "durationTicks": 48,
            "midi": 40,
            "name": "E2",
            "ticks": 124704,
            "time": 162.375,
            "velocity": 0.3937007874015748
          },
          {
            "duration": 0.0625,
            "durationTicks": 48,
            "midi": 28,
            "name": "E1",
            "ticks": 124704,
            "time": 162.375,
            "velocity": 0.3937007874015748
          },
          {
            "duration": 0.0625,
            "durationTicks": 48,
            "midi": 28,
            "name": "E1",
            "ticks": 124848,
            "time": 162.5625,
            "velocity": 0.3937007874015748
          },
          {
            "duration": 0.0625,
            "durationTicks": 48,
            "midi": 40,
            "name": "E2",
            "ticks": 124848,
            "time": 162.5625,
            "velocity": 0.3937007874015748
          },
          {
            "duration": 0.0625,
            "durationTicks": 48,
            "midi": 40,
            "name": "E2",
            "ticks": 125136,
            "time": 162.9375,
            "velocity": 0.3937007874015748
          },
          {
            "duration": 0.0625,
            "durationTicks": 48,
            "midi": 28,
            "name": "E1",
            "ticks": 125136,
            "time": 162.9375,
            "velocity": 0.3937007874015748
          },
          {
            "duration": 0.0625,
            "durationTicks": 48,
            "midi": 28,
            "name": "E1",
            "ticks": 125280,
            "time": 163.125,
            "velocity": 0.3937007874015748
          },
          {
            "duration": 0.0625,
            "durationTicks": 48,
            "midi": 40,
            "name": "E2",
            "ticks": 125280,
            "time": 163.125,
            "velocity": 0.3937007874015748
          },
          {
            "duration": 0.0625,
            "durationTicks": 48,
            "midi": 28,
            "name": "E1",
            "ticks": 125424,
            "time": 163.3125,
            "velocity": 0.3937007874015748
          },
          {
            "duration": 0.0625,
            "durationTicks": 48,
            "midi": 40,
            "name": "E2",
            "ticks": 125424,
            "time": 163.3125,
            "velocity": 0.3937007874015748
          },
          {
            "duration": 0.0625,
            "durationTicks": 48,
            "midi": 31,
            "name": "G1",
            "ticks": 126720,
            "time": 165,
            "velocity": 0.3937007874015748
          },
          {
            "duration": 0.0625,
            "durationTicks": 48,
            "midi": 31,
            "name": "G1",
            "ticks": 126720,
            "time": 165,
            "velocity": 0.3937007874015748
          },
          {
            "duration": 0.0625,
            "durationTicks": 48,
            "midi": 31,
            "name": "G1",
            "ticks": 127008,
            "time": 165.375,
            "velocity": 0.3937007874015748
          },
          {
            "duration": 0.0625,
            "durationTicks": 48,
            "midi": 31,
            "name": "G1",
            "ticks": 127008,
            "time": 165.375,
            "velocity": 0.3937007874015748
          },
          {
            "duration": 0.0625,
            "durationTicks": 48,
            "midi": 31,
            "name": "G1",
            "ticks": 127152,
            "time": 165.5625,
            "velocity": 0.3937007874015748
          },
          {
            "duration": 0.0625,
            "durationTicks": 48,
            "midi": 31,
            "name": "G1",
            "ticks": 127152,
            "time": 165.5625,
            "velocity": 0.3937007874015748
          },
          {
            "duration": 0.0625,
            "durationTicks": 48,
            "midi": 31,
            "name": "G1",
            "ticks": 127440,
            "time": 165.9375,
            "velocity": 0.3937007874015748
          },
          {
            "duration": 0.0625,
            "durationTicks": 48,
            "midi": 31,
            "name": "G1",
            "ticks": 127440,
            "time": 165.9375,
            "velocity": 0.3937007874015748
          },
          {
            "duration": 0.0625,
            "durationTicks": 48,
            "midi": 31,
            "name": "G1",
            "ticks": 127584,
            "time": 166.125,
            "velocity": 0.3937007874015748
          },
          {
            "duration": 0.0625,
            "durationTicks": 48,
            "midi": 31,
            "name": "G1",
            "ticks": 127584,
            "time": 166.125,
            "velocity": 0.3937007874015748
          },
          {
            "duration": 0.0625,
            "durationTicks": 48,
            "midi": 31,
            "name": "G1",
            "ticks": 127728,
            "time": 166.3125,
            "velocity": 0.3937007874015748
          },
          {
            "duration": 0.0625,
            "durationTicks": 48,
            "midi": 31,
            "name": "G1",
            "ticks": 127728,
            "time": 166.3125,
            "velocity": 0.3937007874015748
          },
          {
            "duration": 0.0625,
            "durationTicks": 48,
            "midi": 36,
            "name": "C2",
            "ticks": 127872,
            "time": 166.5,
            "velocity": 0.3937007874015748
          },
          {
            "duration": 0.0625,
            "durationTicks": 48,
            "midi": 24,
            "name": "C1",
            "ticks": 127872,
            "time": 166.5,
            "velocity": 0.3937007874015748
          },
          {
            "duration": 0.0625,
            "durationTicks": 48,
            "midi": 36,
            "name": "C2",
            "ticks": 128160,
            "time": 166.875,
            "velocity": 0.3937007874015748
          },
          {
            "duration": 0.0625,
            "durationTicks": 48,
            "midi": 24,
            "name": "C1",
            "ticks": 128160,
            "time": 166.875,
            "velocity": 0.3937007874015748
          },
          {
            "duration": 0.0625,
            "durationTicks": 48,
            "midi": 24,
            "name": "C1",
            "ticks": 128304,
            "time": 167.0625,
            "velocity": 0.3937007874015748
          },
          {
            "duration": 0.0625,
            "durationTicks": 48,
            "midi": 36,
            "name": "C2",
            "ticks": 128304,
            "time": 167.0625,
            "velocity": 0.3937007874015748
          },
          {
            "duration": 0.0625,
            "durationTicks": 48,
            "midi": 24,
            "name": "C1",
            "ticks": 128592,
            "time": 167.4375,
            "velocity": 0.3937007874015748
          },
          {
            "duration": 0.0625,
            "durationTicks": 48,
            "midi": 36,
            "name": "C2",
            "ticks": 128592,
            "time": 167.4375,
            "velocity": 0.3937007874015748
          },
          {
            "duration": 0.0625,
            "durationTicks": 48,
            "midi": 24,
            "name": "C1",
            "ticks": 128736,
            "time": 167.625,
            "velocity": 0.3937007874015748
          },
          {
            "duration": 0.0625,
            "durationTicks": 48,
            "midi": 36,
            "name": "C2",
            "ticks": 128736,
            "time": 167.625,
            "velocity": 0.3937007874015748
          },
          {
            "duration": 0.0625,
            "durationTicks": 48,
            "midi": 24,
            "name": "C1",
            "ticks": 128880,
            "time": 167.8125,
            "velocity": 0.3937007874015748
          },
          {
            "duration": 0.0625,
            "durationTicks": 48,
            "midi": 36,
            "name": "C2",
            "ticks": 128880,
            "time": 167.8125,
            "velocity": 0.3937007874015748
          },
          {
            "duration": 0.0625,
            "durationTicks": 48,
            "midi": 36,
            "name": "C2",
            "ticks": 129024,
            "time": 168,
            "velocity": 0.3937007874015748
          },
          {
            "duration": 0.0625,
            "durationTicks": 48,
            "midi": 24,
            "name": "C1",
            "ticks": 129024,
            "time": 168,
            "velocity": 0.3937007874015748
          },
          {
            "duration": 0.0625,
            "durationTicks": 48,
            "midi": 24,
            "name": "C1",
            "ticks": 129312,
            "time": 168.375,
            "velocity": 0.3937007874015748
          },
          {
            "duration": 0.0625,
            "durationTicks": 48,
            "midi": 36,
            "name": "C2",
            "ticks": 129312,
            "time": 168.375,
            "velocity": 0.3937007874015748
          },
          {
            "duration": 0.0625,
            "durationTicks": 48,
            "midi": 36,
            "name": "C2",
            "ticks": 129456,
            "time": 168.5625,
            "velocity": 0.3937007874015748
          },
          {
            "duration": 0.0625,
            "durationTicks": 48,
            "midi": 24,
            "name": "C1",
            "ticks": 129456,
            "time": 168.5625,
            "velocity": 0.3937007874015748
          },
          {
            "duration": 0.0625,
            "durationTicks": 48,
            "midi": 24,
            "name": "C1",
            "ticks": 129744,
            "time": 168.9375,
            "velocity": 0.3937007874015748
          },
          {
            "duration": 0.0625,
            "durationTicks": 48,
            "midi": 36,
            "name": "C2",
            "ticks": 129744,
            "time": 168.9375,
            "velocity": 0.3937007874015748
          },
          {
            "duration": 0.0625,
            "durationTicks": 48,
            "midi": 24,
            "name": "C1",
            "ticks": 129888,
            "time": 169.125,
            "velocity": 0.3937007874015748
          },
          {
            "duration": 0.0625,
            "durationTicks": 48,
            "midi": 36,
            "name": "C2",
            "ticks": 129888,
            "time": 169.125,
            "velocity": 0.3937007874015748
          },
          {
            "duration": 0.0625,
            "durationTicks": 48,
            "midi": 36,
            "name": "C2",
            "ticks": 130032,
            "time": 169.3125,
            "velocity": 0.3937007874015748
          },
          {
            "duration": 0.0625,
            "durationTicks": 48,
            "midi": 24,
            "name": "C1",
            "ticks": 130032,
            "time": 169.3125,
            "velocity": 0.3937007874015748
          },
          {
            "duration": 0.0625,
            "durationTicks": 48,
            "midi": 26,
            "name": "D1",
            "ticks": 130176,
            "time": 169.5,
            "velocity": 0.3937007874015748
          },
          {
            "duration": 0.0625,
            "durationTicks": 48,
            "midi": 38,
            "name": "D2",
            "ticks": 130176,
            "time": 169.5,
            "velocity": 0.3937007874015748
          },
          {
            "duration": 0.0625,
            "durationTicks": 48,
            "midi": 45,
            "name": "A2",
            "ticks": 130464,
            "time": 169.875,
            "velocity": 0.3937007874015748
          },
          {
            "duration": 0.0625,
            "durationTicks": 48,
            "midi": 33,
            "name": "A1",
            "ticks": 130464,
            "time": 169.875,
            "velocity": 0.3937007874015748
          },
          {
            "duration": 0.0625,
            "durationTicks": 48,
            "midi": 38,
            "name": "D2",
            "ticks": 130608,
            "time": 170.0625,
            "velocity": 0.3937007874015748
          },
          {
            "duration": 0.0625,
            "durationTicks": 48,
            "midi": 26,
            "name": "D1",
            "ticks": 130608,
            "time": 170.0625,
            "velocity": 0.3937007874015748
          },
          {
            "duration": 0.0625,
            "durationTicks": 48,
            "midi": 40,
            "name": "E2",
            "ticks": 130752,
            "time": 170.25,
            "velocity": 0.3937007874015748
          },
          {
            "duration": 0.0625,
            "durationTicks": 48,
            "midi": 28,
            "name": "E1",
            "ticks": 130752,
            "time": 170.25,
            "velocity": 0.3937007874015748
          },
          {
            "duration": 0.0625,
            "durationTicks": 48,
            "midi": 40,
            "name": "E2",
            "ticks": 131040,
            "time": 170.625,
            "velocity": 0.3937007874015748
          },
          {
            "duration": 0.0625,
            "durationTicks": 48,
            "midi": 28,
            "name": "E1",
            "ticks": 131040,
            "time": 170.625,
            "velocity": 0.3937007874015748
          },
          {
            "duration": 0.0625,
            "durationTicks": 48,
            "midi": 40,
            "name": "E2",
            "ticks": 131184,
            "time": 170.8125,
            "velocity": 0.3937007874015748
          },
          {
            "duration": 0.0625,
            "durationTicks": 48,
            "midi": 28,
            "name": "E1",
            "ticks": 131184,
            "time": 170.8125,
            "velocity": 0.3937007874015748
          },
          {
            "duration": 0.0625,
            "durationTicks": 48,
            "midi": 28,
            "name": "E1",
            "ticks": 131472,
            "time": 171.1875,
            "velocity": 0.3937007874015748
          },
          {
            "duration": 0.0625,
            "durationTicks": 48,
            "midi": 40,
            "name": "E2",
            "ticks": 131472,
            "time": 171.1875,
            "velocity": 0.3937007874015748
          },
          {
            "duration": 0.0625,
            "durationTicks": 48,
            "midi": 28,
            "name": "E1",
            "ticks": 131616,
            "time": 171.375,
            "velocity": 0.3937007874015748
          },
          {
            "duration": 0.0625,
            "durationTicks": 48,
            "midi": 40,
            "name": "E2",
            "ticks": 131616,
            "time": 171.375,
            "velocity": 0.3937007874015748
          },
          {
            "duration": 0.0625,
            "durationTicks": 48,
            "midi": 28,
            "name": "E1",
            "ticks": 131760,
            "time": 171.5625,
            "velocity": 0.3937007874015748
          },
          {
            "duration": 0.0625,
            "durationTicks": 48,
            "midi": 40,
            "name": "E2",
            "ticks": 131760,
            "time": 171.5625,
            "velocity": 0.3937007874015748
          },
          {
            "duration": 0.0625,
            "durationTicks": 48,
            "midi": 40,
            "name": "E2",
            "ticks": 131904,
            "time": 171.75,
            "velocity": 0.3937007874015748
          },
          {
            "duration": 0.0625,
            "durationTicks": 48,
            "midi": 28,
            "name": "E1",
            "ticks": 131904,
            "time": 171.75,
            "velocity": 0.3937007874015748
          },
          {
            "duration": 0.0625,
            "durationTicks": 48,
            "midi": 40,
            "name": "E2",
            "ticks": 132192,
            "time": 172.125,
            "velocity": 0.3937007874015748
          },
          {
            "duration": 0.0625,
            "durationTicks": 48,
            "midi": 28,
            "name": "E1",
            "ticks": 132192,
            "time": 172.125,
            "velocity": 0.3937007874015748
          },
          {
            "duration": 0.0625,
            "durationTicks": 48,
            "midi": 40,
            "name": "E2",
            "ticks": 132336,
            "time": 172.3125,
            "velocity": 0.3937007874015748
          },
          {
            "duration": 0.0625,
            "durationTicks": 48,
            "midi": 28,
            "name": "E1",
            "ticks": 132336,
            "time": 172.3125,
            "velocity": 0.3937007874015748
          },
          {
            "duration": 0.0625,
            "durationTicks": 48,
            "midi": 28,
            "name": "E1",
            "ticks": 132624,
            "time": 172.6875,
            "velocity": 0.3937007874015748
          },
          {
            "duration": 0.0625,
            "durationTicks": 48,
            "midi": 40,
            "name": "E2",
            "ticks": 132624,
            "time": 172.6875,
            "velocity": 0.3937007874015748
          },
          {
            "duration": 0.0625,
            "durationTicks": 48,
            "midi": 40,
            "name": "E2",
            "ticks": 132768,
            "time": 172.875,
            "velocity": 0.3937007874015748
          },
          {
            "duration": 0.0625,
            "durationTicks": 48,
            "midi": 28,
            "name": "E1",
            "ticks": 132768,
            "time": 172.875,
            "velocity": 0.3937007874015748
          },
          {
            "duration": 0.0625,
            "durationTicks": 48,
            "midi": 40,
            "name": "E2",
            "ticks": 132912,
            "time": 173.0625,
            "velocity": 0.3937007874015748
          },
          {
            "duration": 0.0625,
            "durationTicks": 48,
            "midi": 28,
            "name": "E1",
            "ticks": 132912,
            "time": 173.0625,
            "velocity": 0.3937007874015748
          },
          {
            "duration": 0.0625,
            "durationTicks": 48,
            "midi": 31,
            "name": "G1",
            "ticks": 133056,
            "time": 173.25,
            "velocity": 0.3937007874015748
          },
          {
            "duration": 0.0625,
            "durationTicks": 48,
            "midi": 31,
            "name": "G1",
            "ticks": 133056,
            "time": 173.25,
            "velocity": 0.3937007874015748
          },
          {
            "duration": 0.0625,
            "durationTicks": 48,
            "midi": 31,
            "name": "G1",
            "ticks": 133344,
            "time": 173.625,
            "velocity": 0.3937007874015748
          },
          {
            "duration": 0.0625,
            "durationTicks": 48,
            "midi": 31,
            "name": "G1",
            "ticks": 133344,
            "time": 173.625,
            "velocity": 0.3937007874015748
          },
          {
            "duration": 0.0625,
            "durationTicks": 48,
            "midi": 31,
            "name": "G1",
            "ticks": 133488,
            "time": 173.8125,
            "velocity": 0.3937007874015748
          },
          {
            "duration": 0.0625,
            "durationTicks": 48,
            "midi": 31,
            "name": "G1",
            "ticks": 133488,
            "time": 173.8125,
            "velocity": 0.3937007874015748
          },
          {
            "duration": 0.0625,
            "durationTicks": 48,
            "midi": 31,
            "name": "G1",
            "ticks": 133776,
            "time": 174.1875,
            "velocity": 0.3937007874015748
          },
          {
            "duration": 0.0625,
            "durationTicks": 48,
            "midi": 31,
            "name": "G1",
            "ticks": 133776,
            "time": 174.1875,
            "velocity": 0.3937007874015748
          },
          {
            "duration": 0.0625,
            "durationTicks": 48,
            "midi": 31,
            "name": "G1",
            "ticks": 133920,
            "time": 174.375,
            "velocity": 0.3937007874015748
          },
          {
            "duration": 0.0625,
            "durationTicks": 48,
            "midi": 31,
            "name": "G1",
            "ticks": 133920,
            "time": 174.375,
            "velocity": 0.3937007874015748
          },
          {
            "duration": 0.0625,
            "durationTicks": 48,
            "midi": 31,
            "name": "G1",
            "ticks": 134064,
            "time": 174.5625,
            "velocity": 0.3937007874015748
          },
          {
            "duration": 0.0625,
            "durationTicks": 48,
            "midi": 31,
            "name": "G1",
            "ticks": 134064,
            "time": 174.5625,
            "velocity": 0.3937007874015748
          },
          {
            "duration": 0.0625,
            "durationTicks": 48,
            "midi": 24,
            "name": "C1",
            "ticks": 134208,
            "time": 174.75,
            "velocity": 0.3937007874015748
          },
          {
            "duration": 0.0625,
            "durationTicks": 48,
            "midi": 36,
            "name": "C2",
            "ticks": 134208,
            "time": 174.75,
            "velocity": 0.3937007874015748
          },
          {
            "duration": 0.0625,
            "durationTicks": 48,
            "midi": 24,
            "name": "C1",
            "ticks": 134496,
            "time": 175.125,
            "velocity": 0.3937007874015748
          },
          {
            "duration": 0.0625,
            "durationTicks": 48,
            "midi": 36,
            "name": "C2",
            "ticks": 134496,
            "time": 175.125,
            "velocity": 0.3937007874015748
          },
          {
            "duration": 0.0625,
            "durationTicks": 48,
            "midi": 36,
            "name": "C2",
            "ticks": 134640,
            "time": 175.3125,
            "velocity": 0.3937007874015748
          },
          {
            "duration": 0.0625,
            "durationTicks": 48,
            "midi": 24,
            "name": "C1",
            "ticks": 134640,
            "time": 175.3125,
            "velocity": 0.3937007874015748
          },
          {
            "duration": 0.0625,
            "durationTicks": 48,
            "midi": 36,
            "name": "C2",
            "ticks": 134928,
            "time": 175.6875,
            "velocity": 0.3937007874015748
          },
          {
            "duration": 0.0625,
            "durationTicks": 48,
            "midi": 24,
            "name": "C1",
            "ticks": 134928,
            "time": 175.6875,
            "velocity": 0.3937007874015748
          },
          {
            "duration": 0.0625,
            "durationTicks": 48,
            "midi": 24,
            "name": "C1",
            "ticks": 135072,
            "time": 175.875,
            "velocity": 0.3937007874015748
          },
          {
            "duration": 0.0625,
            "durationTicks": 48,
            "midi": 36,
            "name": "C2",
            "ticks": 135072,
            "time": 175.875,
            "velocity": 0.3937007874015748
          },
          {
            "duration": 0.0625,
            "durationTicks": 48,
            "midi": 24,
            "name": "C1",
            "ticks": 135216,
            "time": 176.0625,
            "velocity": 0.3937007874015748
          },
          {
            "duration": 0.0625,
            "durationTicks": 48,
            "midi": 36,
            "name": "C2",
            "ticks": 135216,
            "time": 176.0625,
            "velocity": 0.3937007874015748
          },
          {
            "duration": 0.0625,
            "durationTicks": 48,
            "midi": 24,
            "name": "C1",
            "ticks": 135360,
            "time": 176.25,
            "velocity": 0.3937007874015748
          },
          {
            "duration": 0.0625,
            "durationTicks": 48,
            "midi": 36,
            "name": "C2",
            "ticks": 135360,
            "time": 176.25,
            "velocity": 0.3937007874015748
          },
          {
            "duration": 0.0625,
            "durationTicks": 48,
            "midi": 36,
            "name": "C2",
            "ticks": 135648,
            "time": 176.625,
            "velocity": 0.3937007874015748
          },
          {
            "duration": 0.0625,
            "durationTicks": 48,
            "midi": 24,
            "name": "C1",
            "ticks": 135648,
            "time": 176.625,
            "velocity": 0.3937007874015748
          },
          {
            "duration": 0.0625,
            "durationTicks": 48,
            "midi": 24,
            "name": "C1",
            "ticks": 135792,
            "time": 176.8125,
            "velocity": 0.3937007874015748
          },
          {
            "duration": 0.0625,
            "durationTicks": 48,
            "midi": 36,
            "name": "C2",
            "ticks": 135792,
            "time": 176.8125,
            "velocity": 0.3937007874015748
          },
          {
            "duration": 0.0625,
            "durationTicks": 48,
            "midi": 36,
            "name": "C2",
            "ticks": 136080,
            "time": 177.1875,
            "velocity": 0.3937007874015748
          },
          {
            "duration": 0.0625,
            "durationTicks": 48,
            "midi": 24,
            "name": "C1",
            "ticks": 136080,
            "time": 177.1875,
            "velocity": 0.3937007874015748
          },
          {
            "duration": 0.0625,
            "durationTicks": 48,
            "midi": 24,
            "name": "C1",
            "ticks": 136224,
            "time": 177.375,
            "velocity": 0.3937007874015748
          },
          {
            "duration": 0.0625,
            "durationTicks": 48,
            "midi": 36,
            "name": "C2",
            "ticks": 136224,
            "time": 177.375,
            "velocity": 0.3937007874015748
          },
          {
            "duration": 0.0625,
            "durationTicks": 48,
            "midi": 24,
            "name": "C1",
            "ticks": 136368,
            "time": 177.5625,
            "velocity": 0.3937007874015748
          },
          {
            "duration": 0.0625,
            "durationTicks": 48,
            "midi": 36,
            "name": "C2",
            "ticks": 136368,
            "time": 177.5625,
            "velocity": 0.3937007874015748
          },
          {
            "duration": 0.0625,
            "durationTicks": 48,
            "midi": 38,
            "name": "D2",
            "ticks": 136512,
            "time": 177.75,
            "velocity": 0.3937007874015748
          },
          {
            "duration": 0.0625,
            "durationTicks": 48,
            "midi": 26,
            "name": "D1",
            "ticks": 136512,
            "time": 177.75,
            "velocity": 0.3937007874015748
          },
          {
            "duration": 0.0625,
            "durationTicks": 48,
            "midi": 33,
            "name": "A1",
            "ticks": 136800,
            "time": 178.125,
            "velocity": 0.3937007874015748
          },
          {
            "duration": 0.0625,
            "durationTicks": 48,
            "midi": 45,
            "name": "A2",
            "ticks": 136800,
            "time": 178.125,
            "velocity": 0.3937007874015748
          },
          {
            "duration": 0.0625,
            "durationTicks": 48,
            "midi": 38,
            "name": "D2",
            "ticks": 136944,
            "time": 178.3125,
            "velocity": 0.3937007874015748
          },
          {
            "duration": 0.0625,
            "durationTicks": 48,
            "midi": 26,
            "name": "D1",
            "ticks": 136944,
            "time": 178.3125,
            "velocity": 0.3937007874015748
          },
          {
            "duration": 0.0625,
            "durationTicks": 48,
            "midi": 28,
            "name": "E1",
            "ticks": 137088,
            "time": 178.5,
            "velocity": 0.3937007874015748
          },
          {
            "duration": 0.0625,
            "durationTicks": 48,
            "midi": 40,
            "name": "E2",
            "ticks": 137088,
            "time": 178.5,
            "velocity": 0.3937007874015748
          },
          {
            "duration": 0.0625,
            "durationTicks": 48,
            "midi": 28,
            "name": "E1",
            "ticks": 137376,
            "time": 178.875,
            "velocity": 0.3937007874015748
          },
          {
            "duration": 0.0625,
            "durationTicks": 48,
            "midi": 40,
            "name": "E2",
            "ticks": 137376,
            "time": 178.875,
            "velocity": 0.3937007874015748
          },
          {
            "duration": 0.0625,
            "durationTicks": 48,
            "midi": 28,
            "name": "E1",
            "ticks": 137520,
            "time": 179.0625,
            "velocity": 0.3937007874015748
          },
          {
            "duration": 0.0625,
            "durationTicks": 48,
            "midi": 40,
            "name": "E2",
            "ticks": 137520,
            "time": 179.0625,
            "velocity": 0.3937007874015748
          },
          {
            "duration": 0.0625,
            "durationTicks": 48,
            "midi": 28,
            "name": "E1",
            "ticks": 137808,
            "time": 179.4375,
            "velocity": 0.3937007874015748
          },
          {
            "duration": 0.0625,
            "durationTicks": 48,
            "midi": 40,
            "name": "E2",
            "ticks": 137808,
            "time": 179.4375,
            "velocity": 0.3937007874015748
          },
          {
            "duration": 0.0625,
            "durationTicks": 48,
            "midi": 40,
            "name": "E2",
            "ticks": 137952,
            "time": 179.625,
            "velocity": 0.3937007874015748
          },
          {
            "duration": 0.0625,
            "durationTicks": 48,
            "midi": 28,
            "name": "E1",
            "ticks": 137952,
            "time": 179.625,
            "velocity": 0.3937007874015748
          },
          {
            "duration": 0.0625,
            "durationTicks": 48,
            "midi": 28,
            "name": "E1",
            "ticks": 138096,
            "time": 179.8125,
            "velocity": 0.3937007874015748
          },
          {
            "duration": 0.0625,
            "durationTicks": 48,
            "midi": 40,
            "name": "E2",
            "ticks": 138096,
            "time": 179.8125,
            "velocity": 0.3937007874015748
          },
          {
            "duration": 0.0625,
            "durationTicks": 48,
            "midi": 28,
            "name": "E1",
            "ticks": 138240,
            "time": 180,
            "velocity": 0.3937007874015748
          },
          {
            "duration": 0.0625,
            "durationTicks": 48,
            "midi": 40,
            "name": "E2",
            "ticks": 138240,
            "time": 180,
            "velocity": 0.3937007874015748
          },
          {
            "duration": 0.0625,
            "durationTicks": 48,
            "midi": 28,
            "name": "E1",
            "ticks": 138528,
            "time": 180.375,
            "velocity": 0.3937007874015748
          },
          {
            "duration": 0.0625,
            "durationTicks": 48,
            "midi": 40,
            "name": "E2",
            "ticks": 138528,
            "time": 180.375,
            "velocity": 0.3937007874015748
          },
          {
            "duration": 0.0625,
            "durationTicks": 48,
            "midi": 40,
            "name": "E2",
            "ticks": 138672,
            "time": 180.5625,
            "velocity": 0.3937007874015748
          },
          {
            "duration": 0.0625,
            "durationTicks": 48,
            "midi": 28,
            "name": "E1",
            "ticks": 138672,
            "time": 180.5625,
            "velocity": 0.3937007874015748
          },
          {
            "duration": 0.0625,
            "durationTicks": 48,
            "midi": 40,
            "name": "E2",
            "ticks": 138960,
            "time": 180.9375,
            "velocity": 0.3937007874015748
          },
          {
            "duration": 0.0625,
            "durationTicks": 48,
            "midi": 28,
            "name": "E1",
            "ticks": 138960,
            "time": 180.9375,
            "velocity": 0.3937007874015748
          },
          {
            "duration": 0.0625,
            "durationTicks": 48,
            "midi": 28,
            "name": "E1",
            "ticks": 139104,
            "time": 181.125,
            "velocity": 0.3937007874015748
          },
          {
            "duration": 0.0625,
            "durationTicks": 48,
            "midi": 40,
            "name": "E2",
            "ticks": 139104,
            "time": 181.125,
            "velocity": 0.3937007874015748
          },
          {
            "duration": 0.0625,
            "durationTicks": 48,
            "midi": 28,
            "name": "E1",
            "ticks": 139248,
            "time": 181.3125,
            "velocity": 0.3937007874015748
          },
          {
            "duration": 0.0625,
            "durationTicks": 48,
            "midi": 40,
            "name": "E2",
            "ticks": 139248,
            "time": 181.3125,
            "velocity": 0.3937007874015748
          },
          {
            "duration": 0.0625,
            "durationTicks": 48,
            "midi": 31,
            "name": "G1",
            "ticks": 139392,
            "time": 181.5,
            "velocity": 0.3937007874015748
          },
          {
            "duration": 0.0625,
            "durationTicks": 48,
            "midi": 31,
            "name": "G1",
            "ticks": 139392,
            "time": 181.5,
            "velocity": 0.3937007874015748
          },
          {
            "duration": 0.0625,
            "durationTicks": 48,
            "midi": 31,
            "name": "G1",
            "ticks": 139680,
            "time": 181.875,
            "velocity": 0.3937007874015748
          },
          {
            "duration": 0.0625,
            "durationTicks": 48,
            "midi": 31,
            "name": "G1",
            "ticks": 139680,
            "time": 181.875,
            "velocity": 0.3937007874015748
          },
          {
            "duration": 0.0625,
            "durationTicks": 48,
            "midi": 31,
            "name": "G1",
            "ticks": 139824,
            "time": 182.0625,
            "velocity": 0.3937007874015748
          },
          {
            "duration": 0.0625,
            "durationTicks": 48,
            "midi": 31,
            "name": "G1",
            "ticks": 139824,
            "time": 182.0625,
            "velocity": 0.3937007874015748
          },
          {
            "duration": 0.0625,
            "durationTicks": 48,
            "midi": 31,
            "name": "G1",
            "ticks": 140112,
            "time": 182.4375,
            "velocity": 0.3937007874015748
          },
          {
            "duration": 0.0625,
            "durationTicks": 48,
            "midi": 31,
            "name": "G1",
            "ticks": 140112,
            "time": 182.4375,
            "velocity": 0.3937007874015748
          },
          {
            "duration": 0.0625,
            "durationTicks": 48,
            "midi": 31,
            "name": "G1",
            "ticks": 140256,
            "time": 182.625,
            "velocity": 0.3937007874015748
          },
          {
            "duration": 0.0625,
            "durationTicks": 48,
            "midi": 31,
            "name": "G1",
            "ticks": 140256,
            "time": 182.625,
            "velocity": 0.3937007874015748
          },
          {
            "duration": 0.0625,
            "durationTicks": 48,
            "midi": 31,
            "name": "G1",
            "ticks": 140400,
            "time": 182.8125,
            "velocity": 0.3937007874015748
          },
          {
            "duration": 0.0625,
            "durationTicks": 48,
            "midi": 31,
            "name": "G1",
            "ticks": 140400,
            "time": 182.8125,
            "velocity": 0.3937007874015748
          },
          {
            "duration": 0.0625,
            "durationTicks": 48,
            "midi": 24,
            "name": "C1",
            "ticks": 140544,
            "time": 183,
            "velocity": 0.3937007874015748
          },
          {
            "duration": 0.0625,
            "durationTicks": 48,
            "midi": 36,
            "name": "C2",
            "ticks": 140544,
            "time": 183,
            "velocity": 0.3937007874015748
          },
          {
            "duration": 0.0625,
            "durationTicks": 48,
            "midi": 36,
            "name": "C2",
            "ticks": 140832,
            "time": 183.375,
            "velocity": 0.3937007874015748
          },
          {
            "duration": 0.0625,
            "durationTicks": 48,
            "midi": 24,
            "name": "C1",
            "ticks": 140832,
            "time": 183.375,
            "velocity": 0.3937007874015748
          },
          {
            "duration": 0.0625,
            "durationTicks": 48,
            "midi": 36,
            "name": "C2",
            "ticks": 140976,
            "time": 183.5625,
            "velocity": 0.3937007874015748
          },
          {
            "duration": 0.0625,
            "durationTicks": 48,
            "midi": 24,
            "name": "C1",
            "ticks": 140976,
            "time": 183.5625,
            "velocity": 0.3937007874015748
          },
          {
            "duration": 0.0625,
            "durationTicks": 48,
            "midi": 24,
            "name": "C1",
            "ticks": 141264,
            "time": 183.9375,
            "velocity": 0.3937007874015748
          },
          {
            "duration": 0.0625,
            "durationTicks": 48,
            "midi": 36,
            "name": "C2",
            "ticks": 141264,
            "time": 183.9375,
            "velocity": 0.3937007874015748
          },
          {
            "duration": 0.0625,
            "durationTicks": 48,
            "midi": 24,
            "name": "C1",
            "ticks": 141408,
            "time": 184.125,
            "velocity": 0.3937007874015748
          },
          {
            "duration": 0.0625,
            "durationTicks": 48,
            "midi": 36,
            "name": "C2",
            "ticks": 141408,
            "time": 184.125,
            "velocity": 0.3937007874015748
          },
          {
            "duration": 0.0625,
            "durationTicks": 48,
            "midi": 36,
            "name": "C2",
            "ticks": 141552,
            "time": 184.3125,
            "velocity": 0.3937007874015748
          },
          {
            "duration": 0.0625,
            "durationTicks": 48,
            "midi": 24,
            "name": "C1",
            "ticks": 141552,
            "time": 184.3125,
            "velocity": 0.3937007874015748
          },
          {
            "duration": 0.0625,
            "durationTicks": 48,
            "midi": 36,
            "name": "C2",
            "ticks": 141696,
            "time": 184.5,
            "velocity": 0.3937007874015748
          },
          {
            "duration": 0.0625,
            "durationTicks": 48,
            "midi": 24,
            "name": "C1",
            "ticks": 141696,
            "time": 184.5,
            "velocity": 0.3937007874015748
          },
          {
            "duration": 0.0625,
            "durationTicks": 48,
            "midi": 24,
            "name": "C1",
            "ticks": 141984,
            "time": 184.875,
            "velocity": 0.3937007874015748
          },
          {
            "duration": 0.0625,
            "durationTicks": 48,
            "midi": 36,
            "name": "C2",
            "ticks": 141984,
            "time": 184.875,
            "velocity": 0.3937007874015748
          },
          {
            "duration": 0.0625,
            "durationTicks": 48,
            "midi": 36,
            "name": "C2",
            "ticks": 142128,
            "time": 185.0625,
            "velocity": 0.3937007874015748
          },
          {
            "duration": 0.0625,
            "durationTicks": 48,
            "midi": 24,
            "name": "C1",
            "ticks": 142128,
            "time": 185.0625,
            "velocity": 0.3937007874015748
          },
          {
            "duration": 0.0625,
            "durationTicks": 48,
            "midi": 36,
            "name": "C2",
            "ticks": 142416,
            "time": 185.4375,
            "velocity": 0.3937007874015748
          },
          {
            "duration": 0.0625,
            "durationTicks": 48,
            "midi": 24,
            "name": "C1",
            "ticks": 142416,
            "time": 185.4375,
            "velocity": 0.3937007874015748
          },
          {
            "duration": 0.0625,
            "durationTicks": 48,
            "midi": 24,
            "name": "C1",
            "ticks": 142560,
            "time": 185.625,
            "velocity": 0.3937007874015748
          },
          {
            "duration": 0.0625,
            "durationTicks": 48,
            "midi": 36,
            "name": "C2",
            "ticks": 142560,
            "time": 185.625,
            "velocity": 0.3937007874015748
          },
          {
            "duration": 0.0625,
            "durationTicks": 48,
            "midi": 24,
            "name": "C1",
            "ticks": 142704,
            "time": 185.8125,
            "velocity": 0.3937007874015748
          },
          {
            "duration": 0.0625,
            "durationTicks": 48,
            "midi": 36,
            "name": "C2",
            "ticks": 142704,
            "time": 185.8125,
            "velocity": 0.3937007874015748
          },
          {
            "duration": 0.0625,
            "durationTicks": 48,
            "midi": 38,
            "name": "D2",
            "ticks": 142848,
            "time": 186,
            "velocity": 0.3937007874015748
          },
          {
            "duration": 0.0625,
            "durationTicks": 48,
            "midi": 26,
            "name": "D1",
            "ticks": 142848,
            "time": 186,
            "velocity": 0.3937007874015748
          },
          {
            "duration": 0.0625,
            "durationTicks": 48,
            "midi": 33,
            "name": "A1",
            "ticks": 143136,
            "time": 186.375,
            "velocity": 0.3937007874015748
          },
          {
            "duration": 0.0625,
            "durationTicks": 48,
            "midi": 45,
            "name": "A2",
            "ticks": 143136,
            "time": 186.375,
            "velocity": 0.3937007874015748
          },
          {
            "duration": 0.0625,
            "durationTicks": 48,
            "midi": 26,
            "name": "D1",
            "ticks": 143280,
            "time": 186.5625,
            "velocity": 0.3937007874015748
          },
          {
            "duration": 0.0625,
            "durationTicks": 48,
            "midi": 38,
            "name": "D2",
            "ticks": 143280,
            "time": 186.5625,
            "velocity": 0.3937007874015748
          },
          {
            "duration": 0.0625,
            "durationTicks": 48,
            "midi": 28,
            "name": "E1",
            "ticks": 143424,
            "time": 186.75,
            "velocity": 0.3937007874015748
          },
          {
            "duration": 0.0625,
            "durationTicks": 48,
            "midi": 40,
            "name": "E2",
            "ticks": 143424,
            "time": 186.75,
            "velocity": 0.3937007874015748
          },
          {
            "duration": 0.0625,
            "durationTicks": 48,
            "midi": 28,
            "name": "E1",
            "ticks": 143712,
            "time": 187.125,
            "velocity": 0.3937007874015748
          },
          {
            "duration": 0.0625,
            "durationTicks": 48,
            "midi": 40,
            "name": "E2",
            "ticks": 143712,
            "time": 187.125,
            "velocity": 0.3937007874015748
          },
          {
            "duration": 0.0625,
            "durationTicks": 48,
            "midi": 40,
            "name": "E2",
            "ticks": 143856,
            "time": 187.3125,
            "velocity": 0.3937007874015748
          },
          {
            "duration": 0.0625,
            "durationTicks": 48,
            "midi": 28,
            "name": "E1",
            "ticks": 143856,
            "time": 187.3125,
            "velocity": 0.3937007874015748
          },
          {
            "duration": 0.0625,
            "durationTicks": 48,
            "midi": 40,
            "name": "E2",
            "ticks": 144144,
            "time": 187.6875,
            "velocity": 0.3937007874015748
          },
          {
            "duration": 0.0625,
            "durationTicks": 48,
            "midi": 28,
            "name": "E1",
            "ticks": 144144,
            "time": 187.6875,
            "velocity": 0.3937007874015748
          },
          {
            "duration": 0.0625,
            "durationTicks": 48,
            "midi": 28,
            "name": "E1",
            "ticks": 144288,
            "time": 187.875,
            "velocity": 0.3937007874015748
          },
          {
            "duration": 0.0625,
            "durationTicks": 48,
            "midi": 40,
            "name": "E2",
            "ticks": 144288,
            "time": 187.875,
            "velocity": 0.3937007874015748
          },
          {
            "duration": 0.0625,
            "durationTicks": 48,
            "midi": 28,
            "name": "E1",
            "ticks": 144432,
            "time": 188.0625,
            "velocity": 0.3937007874015748
          },
          {
            "duration": 0.0625,
            "durationTicks": 48,
            "midi": 40,
            "name": "E2",
            "ticks": 144432,
            "time": 188.0625,
            "velocity": 0.3937007874015748
          },
          {
            "duration": 0.0625,
            "durationTicks": 48,
            "midi": 28,
            "name": "E1",
            "ticks": 144576,
            "time": 188.25,
            "velocity": 0.3937007874015748
          },
          {
            "duration": 0.0625,
            "durationTicks": 48,
            "midi": 40,
            "name": "E2",
            "ticks": 144576,
            "time": 188.25,
            "velocity": 0.3937007874015748
          },
          {
            "duration": 0.0625,
            "durationTicks": 48,
            "midi": 40,
            "name": "E2",
            "ticks": 144864,
            "time": 188.625,
            "velocity": 0.3937007874015748
          },
          {
            "duration": 0.0625,
            "durationTicks": 48,
            "midi": 28,
            "name": "E1",
            "ticks": 144864,
            "time": 188.625,
            "velocity": 0.3937007874015748
          },
          {
            "duration": 0.0625,
            "durationTicks": 48,
            "midi": 28,
            "name": "E1",
            "ticks": 145008,
            "time": 188.8125,
            "velocity": 0.3937007874015748
          },
          {
            "duration": 0.0625,
            "durationTicks": 48,
            "midi": 40,
            "name": "E2",
            "ticks": 145008,
            "time": 188.8125,
            "velocity": 0.3937007874015748
          },
          {
            "duration": 0.0625,
            "durationTicks": 48,
            "midi": 40,
            "name": "E2",
            "ticks": 145296,
            "time": 189.1875,
            "velocity": 0.3937007874015748
          },
          {
            "duration": 0.0625,
            "durationTicks": 48,
            "midi": 28,
            "name": "E1",
            "ticks": 145296,
            "time": 189.1875,
            "velocity": 0.3937007874015748
          },
          {
            "duration": 0.0625,
            "durationTicks": 48,
            "midi": 28,
            "name": "E1",
            "ticks": 145440,
            "time": 189.375,
            "velocity": 0.3937007874015748
          },
          {
            "duration": 0.0625,
            "durationTicks": 48,
            "midi": 40,
            "name": "E2",
            "ticks": 145440,
            "time": 189.375,
            "velocity": 0.3937007874015748
          },
          {
            "duration": 0.0625,
            "durationTicks": 48,
            "midi": 28,
            "name": "E1",
            "ticks": 145584,
            "time": 189.5625,
            "velocity": 0.3937007874015748
          },
          {
            "duration": 0.0625,
            "durationTicks": 48,
            "midi": 40,
            "name": "E2",
            "ticks": 145584,
            "time": 189.5625,
            "velocity": 0.3937007874015748
          },
          {
            "duration": 0.0625,
            "durationTicks": 48,
            "midi": 31,
            "name": "G1",
            "ticks": 145728,
            "time": 189.75,
            "velocity": 0.3937007874015748
          },
          {
            "duration": 0.0625,
            "durationTicks": 48,
            "midi": 31,
            "name": "G1",
            "ticks": 145728,
            "time": 189.75,
            "velocity": 0.3937007874015748
          },
          {
            "duration": 0.0625,
            "durationTicks": 48,
            "midi": 31,
            "name": "G1",
            "ticks": 146016,
            "time": 190.125,
            "velocity": 0.3937007874015748
          },
          {
            "duration": 0.0625,
            "durationTicks": 48,
            "midi": 31,
            "name": "G1",
            "ticks": 146016,
            "time": 190.125,
            "velocity": 0.3937007874015748
          },
          {
            "duration": 0.0625,
            "durationTicks": 48,
            "midi": 31,
            "name": "G1",
            "ticks": 146160,
            "time": 190.3125,
            "velocity": 0.3937007874015748
          },
          {
            "duration": 0.0625,
            "durationTicks": 48,
            "midi": 31,
            "name": "G1",
            "ticks": 146160,
            "time": 190.3125,
            "velocity": 0.3937007874015748
          },
          {
            "duration": 0.0625,
            "durationTicks": 48,
            "midi": 31,
            "name": "G1",
            "ticks": 146448,
            "time": 190.6875,
            "velocity": 0.3937007874015748
          },
          {
            "duration": 0.0625,
            "durationTicks": 48,
            "midi": 31,
            "name": "G1",
            "ticks": 146448,
            "time": 190.6875,
            "velocity": 0.3937007874015748
          },
          {
            "duration": 0.0625,
            "durationTicks": 48,
            "midi": 31,
            "name": "G1",
            "ticks": 146592,
            "time": 190.875,
            "velocity": 0.3937007874015748
          },
          {
            "duration": 0.0625,
            "durationTicks": 48,
            "midi": 31,
            "name": "G1",
            "ticks": 146592,
            "time": 190.875,
            "velocity": 0.3937007874015748
          },
          {
            "duration": 0.0625,
            "durationTicks": 48,
            "midi": 31,
            "name": "G1",
            "ticks": 146736,
            "time": 191.0625,
            "velocity": 0.3937007874015748
          },
          {
            "duration": 0.0625,
            "durationTicks": 48,
            "midi": 31,
            "name": "G1",
            "ticks": 146736,
            "time": 191.0625,
            "velocity": 0.3937007874015748
          },
          {
            "duration": 0.0625,
            "durationTicks": 48,
            "midi": 36,
            "name": "C2",
            "ticks": 146880,
            "time": 191.25,
            "velocity": 0.3937007874015748
          },
          {
            "duration": 0.0625,
            "durationTicks": 48,
            "midi": 24,
            "name": "C1",
            "ticks": 146880,
            "time": 191.25,
            "velocity": 0.3937007874015748
          },
          {
            "duration": 0.0625,
            "durationTicks": 48,
            "midi": 36,
            "name": "C2",
            "ticks": 147168,
            "time": 191.625,
            "velocity": 0.3937007874015748
          },
          {
            "duration": 0.0625,
            "durationTicks": 48,
            "midi": 24,
            "name": "C1",
            "ticks": 147168,
            "time": 191.625,
            "velocity": 0.3937007874015748
          },
          {
            "duration": 0.0625,
            "durationTicks": 48,
            "midi": 36,
            "name": "C2",
            "ticks": 147312,
            "time": 191.8125,
            "velocity": 0.3937007874015748
          },
          {
            "duration": 0.0625,
            "durationTicks": 48,
            "midi": 24,
            "name": "C1",
            "ticks": 147312,
            "time": 191.8125,
            "velocity": 0.3937007874015748
          },
          {
            "duration": 0.0625,
            "durationTicks": 48,
            "midi": 24,
            "name": "C1",
            "ticks": 147600,
            "time": 192.1875,
            "velocity": 0.3937007874015748
          },
          {
            "duration": 0.0625,
            "durationTicks": 48,
            "midi": 36,
            "name": "C2",
            "ticks": 147600,
            "time": 192.1875,
            "velocity": 0.3937007874015748
          },
          {
            "duration": 0.0625,
            "durationTicks": 48,
            "midi": 24,
            "name": "C1",
            "ticks": 147744,
            "time": 192.375,
            "velocity": 0.3937007874015748
          },
          {
            "duration": 0.0625,
            "durationTicks": 48,
            "midi": 36,
            "name": "C2",
            "ticks": 147744,
            "time": 192.375,
            "velocity": 0.3937007874015748
          },
          {
            "duration": 0.0625,
            "durationTicks": 48,
            "midi": 36,
            "name": "C2",
            "ticks": 147888,
            "time": 192.5625,
            "velocity": 0.3937007874015748
          },
          {
            "duration": 0.0625,
            "durationTicks": 48,
            "midi": 24,
            "name": "C1",
            "ticks": 147888,
            "time": 192.5625,
            "velocity": 0.3937007874015748
          },
          {
            "duration": 0.0625,
            "durationTicks": 48,
            "midi": 36,
            "name": "C2",
            "ticks": 148032,
            "time": 192.75,
            "velocity": 0.3937007874015748
          },
          {
            "duration": 0.0625,
            "durationTicks": 48,
            "midi": 24,
            "name": "C1",
            "ticks": 148032,
            "time": 192.75,
            "velocity": 0.3937007874015748
          },
          {
            "duration": 0.0625,
            "durationTicks": 48,
            "midi": 24,
            "name": "C1",
            "ticks": 148320,
            "time": 193.125,
            "velocity": 0.3937007874015748
          },
          {
            "duration": 0.0625,
            "durationTicks": 48,
            "midi": 36,
            "name": "C2",
            "ticks": 148320,
            "time": 193.125,
            "velocity": 0.3937007874015748
          },
          {
            "duration": 0.0625,
            "durationTicks": 48,
            "midi": 36,
            "name": "C2",
            "ticks": 148464,
            "time": 193.3125,
            "velocity": 0.3937007874015748
          },
          {
            "duration": 0.0625,
            "durationTicks": 48,
            "midi": 24,
            "name": "C1",
            "ticks": 148464,
            "time": 193.3125,
            "velocity": 0.3937007874015748
          },
          {
            "duration": 0.0625,
            "durationTicks": 48,
            "midi": 24,
            "name": "C1",
            "ticks": 148752,
            "time": 193.6875,
            "velocity": 0.3937007874015748
          },
          {
            "duration": 0.0625,
            "durationTicks": 48,
            "midi": 36,
            "name": "C2",
            "ticks": 148752,
            "time": 193.6875,
            "velocity": 0.3937007874015748
          },
          {
            "duration": 0.0625,
            "durationTicks": 48,
            "midi": 24,
            "name": "C1",
            "ticks": 148896,
            "time": 193.875,
            "velocity": 0.3937007874015748
          },
          {
            "duration": 0.0625,
            "durationTicks": 48,
            "midi": 36,
            "name": "C2",
            "ticks": 148896,
            "time": 193.875,
            "velocity": 0.3937007874015748
          },
          {
            "duration": 0.0625,
            "durationTicks": 48,
            "midi": 36,
            "name": "C2",
            "ticks": 149040,
            "time": 194.0625,
            "velocity": 0.3937007874015748
          },
          {
            "duration": 0.0625,
            "durationTicks": 48,
            "midi": 24,
            "name": "C1",
            "ticks": 149040,
            "time": 194.0625,
            "velocity": 0.3937007874015748
          },
          {
            "duration": 0.0625,
            "durationTicks": 48,
            "midi": 26,
            "name": "D1",
            "ticks": 149184,
            "time": 194.25,
            "velocity": 0.3937007874015748
          },
          {
            "duration": 0.0625,
            "durationTicks": 48,
            "midi": 38,
            "name": "D2",
            "ticks": 149184,
            "time": 194.25,
            "velocity": 0.3937007874015748
          },
          {
            "duration": 0.0625,
            "durationTicks": 48,
            "midi": 33,
            "name": "A1",
            "ticks": 149472,
            "time": 194.625,
            "velocity": 0.3937007874015748
          },
          {
            "duration": 0.0625,
            "durationTicks": 48,
            "midi": 45,
            "name": "A2",
            "ticks": 149472,
            "time": 194.625,
            "velocity": 0.3937007874015748
          },
          {
            "duration": 0.0625,
            "durationTicks": 48,
            "midi": 38,
            "name": "D2",
            "ticks": 149616,
            "time": 194.8125,
            "velocity": 0.3937007874015748
          },
          {
            "duration": 0.0625,
            "durationTicks": 48,
            "midi": 26,
            "name": "D1",
            "ticks": 149616,
            "time": 194.8125,
            "velocity": 0.3937007874015748
          },
          {
            "duration": 0.0625,
            "durationTicks": 48,
            "midi": 28,
            "name": "E1",
            "ticks": 149760,
            "time": 195,
            "velocity": 0.3937007874015748
          },
          {
            "duration": 0.0625,
            "durationTicks": 48,
            "midi": 40,
            "name": "E2",
            "ticks": 149760,
            "time": 195,
            "velocity": 0.3937007874015748
          },
          {
            "duration": 0.0625,
            "durationTicks": 48,
            "midi": 40,
            "name": "E2",
            "ticks": 150048,
            "time": 195.375,
            "velocity": 0.3937007874015748
          },
          {
            "duration": 0.0625,
            "durationTicks": 48,
            "midi": 28,
            "name": "E1",
            "ticks": 150048,
            "time": 195.375,
            "velocity": 0.3937007874015748
          },
          {
            "duration": 0.0625,
            "durationTicks": 48,
            "midi": 40,
            "name": "E2",
            "ticks": 150192,
            "time": 195.5625,
            "velocity": 0.3937007874015748
          },
          {
            "duration": 0.0625,
            "durationTicks": 48,
            "midi": 28,
            "name": "E1",
            "ticks": 150192,
            "time": 195.5625,
            "velocity": 0.3937007874015748
          },
          {
            "duration": 0.0625,
            "durationTicks": 48,
            "midi": 40,
            "name": "E2",
            "ticks": 150480,
            "time": 195.9375,
            "velocity": 0.3937007874015748
          },
          {
            "duration": 0.0625,
            "durationTicks": 48,
            "midi": 28,
            "name": "E1",
            "ticks": 150480,
            "time": 195.9375,
            "velocity": 0.3937007874015748
          },
          {
            "duration": 0.0625,
            "durationTicks": 48,
            "midi": 28,
            "name": "E1",
            "ticks": 150624,
            "time": 196.125,
            "velocity": 0.3937007874015748
          },
          {
            "duration": 0.0625,
            "durationTicks": 48,
            "midi": 40,
            "name": "E2",
            "ticks": 150624,
            "time": 196.125,
            "velocity": 0.3937007874015748
          },
          {
            "duration": 0.0625,
            "durationTicks": 48,
            "midi": 40,
            "name": "E2",
            "ticks": 150768,
            "time": 196.3125,
            "velocity": 0.3937007874015748
          },
          {
            "duration": 0.0625,
            "durationTicks": 48,
            "midi": 28,
            "name": "E1",
            "ticks": 150768,
            "time": 196.3125,
            "velocity": 0.3937007874015748
          },
          {
            "duration": 0.0625,
            "durationTicks": 48,
            "midi": 28,
            "name": "E1",
            "ticks": 150912,
            "time": 196.5,
            "velocity": 0.3937007874015748
          },
          {
            "duration": 0.0625,
            "durationTicks": 48,
            "midi": 40,
            "name": "E2",
            "ticks": 150912,
            "time": 196.5,
            "velocity": 0.3937007874015748
          },
          {
            "duration": 0.0625,
            "durationTicks": 48,
            "midi": 28,
            "name": "E1",
            "ticks": 151200,
            "time": 196.875,
            "velocity": 0.3937007874015748
          },
          {
            "duration": 0.0625,
            "durationTicks": 48,
            "midi": 40,
            "name": "E2",
            "ticks": 151200,
            "time": 196.875,
            "velocity": 0.3937007874015748
          },
          {
            "duration": 0.0625,
            "durationTicks": 48,
            "midi": 28,
            "name": "E1",
            "ticks": 151344,
            "time": 197.0625,
            "velocity": 0.3937007874015748
          },
          {
            "duration": 0.0625,
            "durationTicks": 48,
            "midi": 40,
            "name": "E2",
            "ticks": 151344,
            "time": 197.0625,
            "velocity": 0.3937007874015748
          },
          {
            "duration": 0.0625,
            "durationTicks": 48,
            "midi": 40,
            "name": "E2",
            "ticks": 151632,
            "time": 197.4375,
            "velocity": 0.3937007874015748
          },
          {
            "duration": 0.0625,
            "durationTicks": 48,
            "midi": 28,
            "name": "E1",
            "ticks": 151632,
            "time": 197.4375,
            "velocity": 0.3937007874015748
          },
          {
            "duration": 0.0625,
            "durationTicks": 48,
            "midi": 28,
            "name": "E1",
            "ticks": 151776,
            "time": 197.625,
            "velocity": 0.3937007874015748
          },
          {
            "duration": 0.0625,
            "durationTicks": 48,
            "midi": 40,
            "name": "E2",
            "ticks": 151776,
            "time": 197.625,
            "velocity": 0.3937007874015748
          },
          {
            "duration": 0.0625,
            "durationTicks": 48,
            "midi": 28,
            "name": "E1",
            "ticks": 151920,
            "time": 197.8125,
            "velocity": 0.3937007874015748
          },
          {
            "duration": 0.0625,
            "durationTicks": 48,
            "midi": 40,
            "name": "E2",
            "ticks": 151920,
            "time": 197.8125,
            "velocity": 0.3937007874015748
          },
          {
            "duration": 0.0625,
            "durationTicks": 48,
            "midi": 31,
            "name": "G1",
            "ticks": 152064,
            "time": 198,
            "velocity": 0.3937007874015748
          },
          {
            "duration": 0.0625,
            "durationTicks": 48,
            "midi": 31,
            "name": "G1",
            "ticks": 152064,
            "time": 198,
            "velocity": 0.3937007874015748
          },
          {
            "duration": 0.0625,
            "durationTicks": 48,
            "midi": 31,
            "name": "G1",
            "ticks": 152352,
            "time": 198.375,
            "velocity": 0.3937007874015748
          },
          {
            "duration": 0.0625,
            "durationTicks": 48,
            "midi": 31,
            "name": "G1",
            "ticks": 152352,
            "time": 198.375,
            "velocity": 0.3937007874015748
          },
          {
            "duration": 0.0625,
            "durationTicks": 48,
            "midi": 31,
            "name": "G1",
            "ticks": 152496,
            "time": 198.5625,
            "velocity": 0.3937007874015748
          },
          {
            "duration": 0.0625,
            "durationTicks": 48,
            "midi": 31,
            "name": "G1",
            "ticks": 152496,
            "time": 198.5625,
            "velocity": 0.3937007874015748
          },
          {
            "duration": 0.0625,
            "durationTicks": 48,
            "midi": 31,
            "name": "G1",
            "ticks": 152784,
            "time": 198.9375,
            "velocity": 0.3937007874015748
          },
          {
            "duration": 0.0625,
            "durationTicks": 48,
            "midi": 31,
            "name": "G1",
            "ticks": 152784,
            "time": 198.9375,
            "velocity": 0.3937007874015748
          },
          {
            "duration": 0.0625,
            "durationTicks": 48,
            "midi": 31,
            "name": "G1",
            "ticks": 152928,
            "time": 199.125,
            "velocity": 0.3937007874015748
          },
          {
            "duration": 0.0625,
            "durationTicks": 48,
            "midi": 31,
            "name": "G1",
            "ticks": 152928,
            "time": 199.125,
            "velocity": 0.3937007874015748
          },
          {
            "duration": 0.0625,
            "durationTicks": 48,
            "midi": 31,
            "name": "G1",
            "ticks": 153072,
            "time": 199.3125,
            "velocity": 0.3937007874015748
          },
          {
            "duration": 0.0625,
            "durationTicks": 48,
            "midi": 31,
            "name": "G1",
            "ticks": 153072,
            "time": 199.3125,
            "velocity": 0.3937007874015748
          },
          {
            "duration": 0.0625,
            "durationTicks": 48,
            "midi": 24,
            "name": "C1",
            "ticks": 153216,
            "time": 199.5,
            "velocity": 0.3937007874015748
          },
          {
            "duration": 0.0625,
            "durationTicks": 48,
            "midi": 36,
            "name": "C2",
            "ticks": 153216,
            "time": 199.5,
            "velocity": 0.3937007874015748
          },
          {
            "duration": 0.0625,
            "durationTicks": 48,
            "midi": 36,
            "name": "C2",
            "ticks": 153504,
            "time": 199.875,
            "velocity": 0.3937007874015748
          },
          {
            "duration": 0.0625,
            "durationTicks": 48,
            "midi": 24,
            "name": "C1",
            "ticks": 153504,
            "time": 199.875,
            "velocity": 0.3937007874015748
          },
          {
            "duration": 0.0625,
            "durationTicks": 48,
            "midi": 24,
            "name": "C1",
            "ticks": 153648,
            "time": 200.0625,
            "velocity": 0.3937007874015748
          },
          {
            "duration": 0.0625,
            "durationTicks": 48,
            "midi": 36,
            "name": "C2",
            "ticks": 153648,
            "time": 200.0625,
            "velocity": 0.3937007874015748
          },
          {
            "duration": 0.0625,
            "durationTicks": 48,
            "midi": 36,
            "name": "C2",
            "ticks": 153936,
            "time": 200.4375,
            "velocity": 0.3937007874015748
          },
          {
            "duration": 0.0625,
            "durationTicks": 48,
            "midi": 24,
            "name": "C1",
            "ticks": 153936,
            "time": 200.4375,
            "velocity": 0.3937007874015748
          },
          {
            "duration": 0.0625,
            "durationTicks": 48,
            "midi": 36,
            "name": "C2",
            "ticks": 154080,
            "time": 200.625,
            "velocity": 0.3937007874015748
          },
          {
            "duration": 0.0625,
            "durationTicks": 48,
            "midi": 24,
            "name": "C1",
            "ticks": 154080,
            "time": 200.625,
            "velocity": 0.3937007874015748
          },
          {
            "duration": 0.0625,
            "durationTicks": 48,
            "midi": 24,
            "name": "C1",
            "ticks": 154224,
            "time": 200.8125,
            "velocity": 0.3937007874015748
          },
          {
            "duration": 0.0625,
            "durationTicks": 48,
            "midi": 36,
            "name": "C2",
            "ticks": 154224,
            "time": 200.8125,
            "velocity": 0.3937007874015748
          },
          {
            "duration": 0.0625,
            "durationTicks": 48,
            "midi": 24,
            "name": "C1",
            "ticks": 154368,
            "time": 201,
            "velocity": 0.3937007874015748
          },
          {
            "duration": 0.0625,
            "durationTicks": 48,
            "midi": 36,
            "name": "C2",
            "ticks": 154368,
            "time": 201,
            "velocity": 0.3937007874015748
          },
          {
            "duration": 0.0625,
            "durationTicks": 48,
            "midi": 24,
            "name": "C1",
            "ticks": 154656,
            "time": 201.375,
            "velocity": 0.3937007874015748
          },
          {
            "duration": 0.0625,
            "durationTicks": 48,
            "midi": 36,
            "name": "C2",
            "ticks": 154656,
            "time": 201.375,
            "velocity": 0.3937007874015748
          },
          {
            "duration": 0.0625,
            "durationTicks": 48,
            "midi": 36,
            "name": "C2",
            "ticks": 154800,
            "time": 201.5625,
            "velocity": 0.3937007874015748
          },
          {
            "duration": 0.0625,
            "durationTicks": 48,
            "midi": 24,
            "name": "C1",
            "ticks": 154800,
            "time": 201.5625,
            "velocity": 0.3937007874015748
          },
          {
            "duration": 0.0625,
            "durationTicks": 48,
            "midi": 24,
            "name": "C1",
            "ticks": 155088,
            "time": 201.9375,
            "velocity": 0.3937007874015748
          },
          {
            "duration": 0.0625,
            "durationTicks": 48,
            "midi": 36,
            "name": "C2",
            "ticks": 155088,
            "time": 201.9375,
            "velocity": 0.3937007874015748
          },
          {
            "duration": 0.0625,
            "durationTicks": 48,
            "midi": 24,
            "name": "C1",
            "ticks": 155232,
            "time": 202.125,
            "velocity": 0.3937007874015748
          },
          {
            "duration": 0.0625,
            "durationTicks": 48,
            "midi": 36,
            "name": "C2",
            "ticks": 155232,
            "time": 202.125,
            "velocity": 0.3937007874015748
          },
          {
            "duration": 0.0625,
            "durationTicks": 48,
            "midi": 36,
            "name": "C2",
            "ticks": 155376,
            "time": 202.3125,
            "velocity": 0.3937007874015748
          },
          {
            "duration": 0.0625,
            "durationTicks": 48,
            "midi": 24,
            "name": "C1",
            "ticks": 155376,
            "time": 202.3125,
            "velocity": 0.3937007874015748
          },
          {
            "duration": 0.0625,
            "durationTicks": 48,
            "midi": 38,
            "name": "D2",
            "ticks": 155520,
            "time": 202.5,
            "velocity": 0.3937007874015748
          },
          {
            "duration": 0.0625,
            "durationTicks": 48,
            "midi": 26,
            "name": "D1",
            "ticks": 155520,
            "time": 202.5,
            "velocity": 0.3937007874015748
          },
          {
            "duration": 0.0625,
            "durationTicks": 48,
            "midi": 33,
            "name": "A1",
            "ticks": 155808,
            "time": 202.875,
            "velocity": 0.3937007874015748
          },
          {
            "duration": 0.0625,
            "durationTicks": 48,
            "midi": 45,
            "name": "A2",
            "ticks": 155808,
            "time": 202.875,
            "velocity": 0.3937007874015748
          },
          {
            "duration": 0.0625,
            "durationTicks": 48,
            "midi": 38,
            "name": "D2",
            "ticks": 155952,
            "time": 203.0625,
            "velocity": 0.3937007874015748
          },
          {
            "duration": 0.0625,
            "durationTicks": 48,
            "midi": 26,
            "name": "D1",
            "ticks": 155952,
            "time": 203.0625,
            "velocity": 0.3937007874015748
          },
          {
            "duration": 0.0625,
            "durationTicks": 48,
            "midi": 28,
            "name": "E1",
            "ticks": 156096,
            "time": 203.25,
            "velocity": 0.3937007874015748
          },
          {
            "duration": 0.0625,
            "durationTicks": 48,
            "midi": 40,
            "name": "E2",
            "ticks": 156096,
            "time": 203.25,
            "velocity": 0.3937007874015748
          },
          {
            "duration": 0.0625,
            "durationTicks": 48,
            "midi": 40,
            "name": "E2",
            "ticks": 156384,
            "time": 203.625,
            "velocity": 0.3937007874015748
          },
          {
            "duration": 0.0625,
            "durationTicks": 48,
            "midi": 28,
            "name": "E1",
            "ticks": 156384,
            "time": 203.625,
            "velocity": 0.3937007874015748
          },
          {
            "duration": 0.0625,
            "durationTicks": 48,
            "midi": 40,
            "name": "E2",
            "ticks": 156528,
            "time": 203.8125,
            "velocity": 0.3937007874015748
          },
          {
            "duration": 0.0625,
            "durationTicks": 48,
            "midi": 28,
            "name": "E1",
            "ticks": 156528,
            "time": 203.8125,
            "velocity": 0.3937007874015748
          },
          {
            "duration": 0.0625,
            "durationTicks": 48,
            "midi": 40,
            "name": "E2",
            "ticks": 156816,
            "time": 204.1875,
            "velocity": 0.3937007874015748
          },
          {
            "duration": 0.0625,
            "durationTicks": 48,
            "midi": 28,
            "name": "E1",
            "ticks": 156816,
            "time": 204.1875,
            "velocity": 0.3937007874015748
          },
          {
            "duration": 0.0625,
            "durationTicks": 48,
            "midi": 28,
            "name": "E1",
            "ticks": 156960,
            "time": 204.375,
            "velocity": 0.3937007874015748
          },
          {
            "duration": 0.0625,
            "durationTicks": 48,
            "midi": 40,
            "name": "E2",
            "ticks": 156960,
            "time": 204.375,
            "velocity": 0.3937007874015748
          },
          {
            "duration": 0.0625,
            "durationTicks": 48,
            "midi": 28,
            "name": "E1",
            "ticks": 157104,
            "time": 204.5625,
            "velocity": 0.3937007874015748
          },
          {
            "duration": 0.0625,
            "durationTicks": 48,
            "midi": 40,
            "name": "E2",
            "ticks": 157104,
            "time": 204.5625,
            "velocity": 0.3937007874015748
          },
          {
            "duration": 0.0625,
            "durationTicks": 48,
            "midi": 31,
            "name": "G1",
            "ticks": 158400,
            "time": 206.25,
            "velocity": 0.3937007874015748
          },
          {
            "duration": 0.0625,
            "durationTicks": 48,
            "midi": 31,
            "name": "G1",
            "ticks": 158400,
            "time": 206.25,
            "velocity": 0.3937007874015748
          },
          {
            "duration": 0.0625,
            "durationTicks": 48,
            "midi": 31,
            "name": "G1",
            "ticks": 158688,
            "time": 206.625,
            "velocity": 0.3937007874015748
          },
          {
            "duration": 0.0625,
            "durationTicks": 48,
            "midi": 31,
            "name": "G1",
            "ticks": 158688,
            "time": 206.625,
            "velocity": 0.3937007874015748
          },
          {
            "duration": 0.0625,
            "durationTicks": 48,
            "midi": 31,
            "name": "G1",
            "ticks": 158832,
            "time": 206.8125,
            "velocity": 0.3937007874015748
          },
          {
            "duration": 0.0625,
            "durationTicks": 48,
            "midi": 31,
            "name": "G1",
            "ticks": 158832,
            "time": 206.8125,
            "velocity": 0.3937007874015748
          },
          {
            "duration": 0.0625,
            "durationTicks": 48,
            "midi": 31,
            "name": "G1",
            "ticks": 159120,
            "time": 207.1875,
            "velocity": 0.3937007874015748
          },
          {
            "duration": 0.0625,
            "durationTicks": 48,
            "midi": 31,
            "name": "G1",
            "ticks": 159120,
            "time": 207.1875,
            "velocity": 0.3937007874015748
          },
          {
            "duration": 0.0625,
            "durationTicks": 48,
            "midi": 31,
            "name": "G1",
            "ticks": 159264,
            "time": 207.375,
            "velocity": 0.3937007874015748
          },
          {
            "duration": 0.0625,
            "durationTicks": 48,
            "midi": 31,
            "name": "G1",
            "ticks": 159264,
            "time": 207.375,
            "velocity": 0.3937007874015748
          },
          {
            "duration": 0.0625,
            "durationTicks": 48,
            "midi": 31,
            "name": "G1",
            "ticks": 159408,
            "time": 207.5625,
            "velocity": 0.3937007874015748
          },
          {
            "duration": 0.0625,
            "durationTicks": 48,
            "midi": 31,
            "name": "G1",
            "ticks": 159408,
            "time": 207.5625,
            "velocity": 0.3937007874015748
          },
          {
            "duration": 0.0625,
            "durationTicks": 48,
            "midi": 24,
            "name": "C1",
            "ticks": 159552,
            "time": 207.75,
            "velocity": 0.3937007874015748
          },
          {
            "duration": 0.0625,
            "durationTicks": 48,
            "midi": 36,
            "name": "C2",
            "ticks": 159552,
            "time": 207.75,
            "velocity": 0.3937007874015748
          },
          {
            "duration": 0.0625,
            "durationTicks": 48,
            "midi": 36,
            "name": "C2",
            "ticks": 159840,
            "time": 208.125,
            "velocity": 0.3937007874015748
          },
          {
            "duration": 0.0625,
            "durationTicks": 48,
            "midi": 24,
            "name": "C1",
            "ticks": 159840,
            "time": 208.125,
            "velocity": 0.3937007874015748
          },
          {
            "duration": 0.0625,
            "durationTicks": 48,
            "midi": 36,
            "name": "C2",
            "ticks": 159984,
            "time": 208.3125,
            "velocity": 0.3937007874015748
          },
          {
            "duration": 0.0625,
            "durationTicks": 48,
            "midi": 24,
            "name": "C1",
            "ticks": 159984,
            "time": 208.3125,
            "velocity": 0.3937007874015748
          },
          {
            "duration": 0.0625,
            "durationTicks": 48,
            "midi": 36,
            "name": "C2",
            "ticks": 160272,
            "time": 208.6875,
            "velocity": 0.3937007874015748
          },
          {
            "duration": 0.0625,
            "durationTicks": 48,
            "midi": 24,
            "name": "C1",
            "ticks": 160272,
            "time": 208.6875,
            "velocity": 0.3937007874015748
          },
          {
            "duration": 0.0625,
            "durationTicks": 48,
            "midi": 36,
            "name": "C2",
            "ticks": 160416,
            "time": 208.875,
            "velocity": 0.3937007874015748
          },
          {
            "duration": 0.0625,
            "durationTicks": 48,
            "midi": 24,
            "name": "C1",
            "ticks": 160416,
            "time": 208.875,
            "velocity": 0.3937007874015748
          },
          {
            "duration": 0.0625,
            "durationTicks": 48,
            "midi": 24,
            "name": "C1",
            "ticks": 160560,
            "time": 209.0625,
            "velocity": 0.3937007874015748
          },
          {
            "duration": 0.0625,
            "durationTicks": 48,
            "midi": 36,
            "name": "C2",
            "ticks": 160560,
            "time": 209.0625,
            "velocity": 0.3937007874015748
          },
          {
            "duration": 0.0625,
            "durationTicks": 48,
            "midi": 24,
            "name": "C1",
            "ticks": 160704,
            "time": 209.25,
            "velocity": 0.3937007874015748
          },
          {
            "duration": 0.0625,
            "durationTicks": 48,
            "midi": 36,
            "name": "C2",
            "ticks": 160704,
            "time": 209.25,
            "velocity": 0.3937007874015748
          },
          {
            "duration": 0.0625,
            "durationTicks": 48,
            "midi": 24,
            "name": "C1",
            "ticks": 160992,
            "time": 209.625,
            "velocity": 0.3937007874015748
          },
          {
            "duration": 0.0625,
            "durationTicks": 48,
            "midi": 36,
            "name": "C2",
            "ticks": 160992,
            "time": 209.625,
            "velocity": 0.3937007874015748
          },
          {
            "duration": 0.0625,
            "durationTicks": 48,
            "midi": 36,
            "name": "C2",
            "ticks": 161136,
            "time": 209.8125,
            "velocity": 0.3937007874015748
          },
          {
            "duration": 0.0625,
            "durationTicks": 48,
            "midi": 24,
            "name": "C1",
            "ticks": 161136,
            "time": 209.8125,
            "velocity": 0.3937007874015748
          },
          {
            "duration": 0.0625,
            "durationTicks": 48,
            "midi": 24,
            "name": "C1",
            "ticks": 161424,
            "time": 210.1875,
            "velocity": 0.3937007874015748
          },
          {
            "duration": 0.0625,
            "durationTicks": 48,
            "midi": 36,
            "name": "C2",
            "ticks": 161424,
            "time": 210.1875,
            "velocity": 0.3937007874015748
          },
          {
            "duration": 0.0625,
            "durationTicks": 48,
            "midi": 24,
            "name": "C1",
            "ticks": 161568,
            "time": 210.375,
            "velocity": 0.3937007874015748
          },
          {
            "duration": 0.0625,
            "durationTicks": 48,
            "midi": 36,
            "name": "C2",
            "ticks": 161568,
            "time": 210.375,
            "velocity": 0.3937007874015748
          },
          {
            "duration": 0.0625,
            "durationTicks": 48,
            "midi": 36,
            "name": "C2",
            "ticks": 161712,
            "time": 210.5625,
            "velocity": 0.3937007874015748
          },
          {
            "duration": 0.0625,
            "durationTicks": 48,
            "midi": 24,
            "name": "C1",
            "ticks": 161712,
            "time": 210.5625,
            "velocity": 0.3937007874015748
          },
          {
            "duration": 0.0625,
            "durationTicks": 48,
            "midi": 26,
            "name": "D1",
            "ticks": 161856,
            "time": 210.75,
            "velocity": 0.3937007874015748
          },
          {
            "duration": 0.0625,
            "durationTicks": 48,
            "midi": 38,
            "name": "D2",
            "ticks": 161856,
            "time": 210.75,
            "velocity": 0.3937007874015748
          },
          {
            "duration": 0.0625,
            "durationTicks": 48,
            "midi": 33,
            "name": "A1",
            "ticks": 162144,
            "time": 211.125,
            "velocity": 0.3937007874015748
          },
          {
            "duration": 0.0625,
            "durationTicks": 48,
            "midi": 45,
            "name": "A2",
            "ticks": 162144,
            "time": 211.125,
            "velocity": 0.3937007874015748
          },
          {
            "duration": 0.0625,
            "durationTicks": 48,
            "midi": 26,
            "name": "D1",
            "ticks": 162288,
            "time": 211.3125,
            "velocity": 0.3937007874015748
          },
          {
            "duration": 0.0625,
            "durationTicks": 48,
            "midi": 38,
            "name": "D2",
            "ticks": 162288,
            "time": 211.3125,
            "velocity": 0.3937007874015748
          },
          {
            "duration": 0.0625,
            "durationTicks": 48,
            "midi": 28,
            "name": "E1",
            "ticks": 162432,
            "time": 211.5,
            "velocity": 0.3937007874015748
          },
          {
            "duration": 0.0625,
            "durationTicks": 48,
            "midi": 40,
            "name": "E2",
            "ticks": 162432,
            "time": 211.5,
            "velocity": 0.3937007874015748
          },
          {
            "duration": 0.0625,
            "durationTicks": 48,
            "midi": 28,
            "name": "E1",
            "ticks": 162720,
            "time": 211.875,
            "velocity": 0.3937007874015748
          },
          {
            "duration": 0.0625,
            "durationTicks": 48,
            "midi": 40,
            "name": "E2",
            "ticks": 162720,
            "time": 211.875,
            "velocity": 0.3937007874015748
          },
          {
            "duration": 0.0625,
            "durationTicks": 48,
            "midi": 28,
            "name": "E1",
            "ticks": 162864,
            "time": 212.0625,
            "velocity": 0.3937007874015748
          },
          {
            "duration": 0.0625,
            "durationTicks": 48,
            "midi": 40,
            "name": "E2",
            "ticks": 162864,
            "time": 212.0625,
            "velocity": 0.3937007874015748
          },
          {
            "duration": 0.0625,
            "durationTicks": 48,
            "midi": 28,
            "name": "E1",
            "ticks": 163152,
            "time": 212.4375,
            "velocity": 0.3937007874015748
          },
          {
            "duration": 0.0625,
            "durationTicks": 48,
            "midi": 40,
            "name": "E2",
            "ticks": 163152,
            "time": 212.4375,
            "velocity": 0.3937007874015748
          },
          {
            "duration": 0.0625,
            "durationTicks": 48,
            "midi": 40,
            "name": "E2",
            "ticks": 163296,
            "time": 212.625,
            "velocity": 0.3937007874015748
          },
          {
            "duration": 0.0625,
            "durationTicks": 48,
            "midi": 28,
            "name": "E1",
            "ticks": 163296,
            "time": 212.625,
            "velocity": 0.3937007874015748
          },
          {
            "duration": 0.0625,
            "durationTicks": 48,
            "midi": 28,
            "name": "E1",
            "ticks": 163440,
            "time": 212.8125,
            "velocity": 0.3937007874015748
          },
          {
            "duration": 0.0625,
            "durationTicks": 48,
            "midi": 40,
            "name": "E2",
            "ticks": 163440,
            "time": 212.8125,
            "velocity": 0.3937007874015748
          },
          {
            "duration": 0.0625,
            "durationTicks": 48,
            "midi": 31,
            "name": "G1",
            "ticks": 164736,
            "time": 214.5,
            "velocity": 0.3937007874015748
          },
          {
            "duration": 0.0625,
            "durationTicks": 48,
            "midi": 31,
            "name": "G1",
            "ticks": 164736,
            "time": 214.5,
            "velocity": 0.3937007874015748
          },
          {
            "duration": 0.0625,
            "durationTicks": 48,
            "midi": 31,
            "name": "G1",
            "ticks": 165024,
            "time": 214.875,
            "velocity": 0.3937007874015748
          },
          {
            "duration": 0.0625,
            "durationTicks": 48,
            "midi": 31,
            "name": "G1",
            "ticks": 165024,
            "time": 214.875,
            "velocity": 0.3937007874015748
          },
          {
            "duration": 0.0625,
            "durationTicks": 48,
            "midi": 31,
            "name": "G1",
            "ticks": 165168,
            "time": 215.0625,
            "velocity": 0.3937007874015748
          },
          {
            "duration": 0.0625,
            "durationTicks": 48,
            "midi": 31,
            "name": "G1",
            "ticks": 165168,
            "time": 215.0625,
            "velocity": 0.3937007874015748
          },
          {
            "duration": 0.0625,
            "durationTicks": 48,
            "midi": 31,
            "name": "G1",
            "ticks": 165456,
            "time": 215.4375,
            "velocity": 0.3937007874015748
          },
          {
            "duration": 0.0625,
            "durationTicks": 48,
            "midi": 31,
            "name": "G1",
            "ticks": 165456,
            "time": 215.4375,
            "velocity": 0.3937007874015748
          },
          {
            "duration": 0.0625,
            "durationTicks": 48,
            "midi": 31,
            "name": "G1",
            "ticks": 165600,
            "time": 215.625,
            "velocity": 0.3937007874015748
          },
          {
            "duration": 0.0625,
            "durationTicks": 48,
            "midi": 31,
            "name": "G1",
            "ticks": 165600,
            "time": 215.625,
            "velocity": 0.3937007874015748
          },
          {
            "duration": 0.0625,
            "durationTicks": 48,
            "midi": 31,
            "name": "G1",
            "ticks": 165744,
            "time": 215.8125,
            "velocity": 0.3937007874015748
          },
          {
            "duration": 0.0625,
            "durationTicks": 48,
            "midi": 31,
            "name": "G1",
            "ticks": 165744,
            "time": 215.8125,
            "velocity": 0.3937007874015748
          },
          {
            "duration": 0.0625,
            "durationTicks": 48,
            "midi": 24,
            "name": "C1",
            "ticks": 165888,
            "time": 216,
            "velocity": 0.3937007874015748
          },
          {
            "duration": 0.0625,
            "durationTicks": 48,
            "midi": 36,
            "name": "C2",
            "ticks": 165888,
            "time": 216,
            "velocity": 0.3937007874015748
          },
          {
            "duration": 0.0625,
            "durationTicks": 48,
            "midi": 24,
            "name": "C1",
            "ticks": 166176,
            "time": 216.375,
            "velocity": 0.3937007874015748
          },
          {
            "duration": 0.0625,
            "durationTicks": 48,
            "midi": 36,
            "name": "C2",
            "ticks": 166176,
            "time": 216.375,
            "velocity": 0.3937007874015748
          },
          {
            "duration": 0.0625,
            "durationTicks": 48,
            "midi": 24,
            "name": "C1",
            "ticks": 166320,
            "time": 216.5625,
            "velocity": 0.3937007874015748
          },
          {
            "duration": 0.0625,
            "durationTicks": 48,
            "midi": 36,
            "name": "C2",
            "ticks": 166320,
            "time": 216.5625,
            "velocity": 0.3937007874015748
          },
          {
            "duration": 0.0625,
            "durationTicks": 48,
            "midi": 24,
            "name": "C1",
            "ticks": 166608,
            "time": 216.9375,
            "velocity": 0.3937007874015748
          },
          {
            "duration": 0.0625,
            "durationTicks": 48,
            "midi": 36,
            "name": "C2",
            "ticks": 166608,
            "time": 216.9375,
            "velocity": 0.3937007874015748
          },
          {
            "duration": 0.0625,
            "durationTicks": 48,
            "midi": 36,
            "name": "C2",
            "ticks": 166752,
            "time": 217.125,
            "velocity": 0.3937007874015748
          },
          {
            "duration": 0.0625,
            "durationTicks": 48,
            "midi": 24,
            "name": "C1",
            "ticks": 166752,
            "time": 217.125,
            "velocity": 0.3937007874015748
          },
          {
            "duration": 0.0625,
            "durationTicks": 48,
            "midi": 36,
            "name": "C2",
            "ticks": 166896,
            "time": 217.3125,
            "velocity": 0.3937007874015748
          },
          {
            "duration": 0.0625,
            "durationTicks": 48,
            "midi": 24,
            "name": "C1",
            "ticks": 166896,
            "time": 217.3125,
            "velocity": 0.3937007874015748
          },
          {
            "duration": 0.0625,
            "durationTicks": 48,
            "midi": 24,
            "name": "C1",
            "ticks": 167040,
            "time": 217.5,
            "velocity": 0.3937007874015748
          },
          {
            "duration": 0.0625,
            "durationTicks": 48,
            "midi": 36,
            "name": "C2",
            "ticks": 167040,
            "time": 217.5,
            "velocity": 0.3937007874015748
          },
          {
            "duration": 0.0625,
            "durationTicks": 48,
            "midi": 24,
            "name": "C1",
            "ticks": 167328,
            "time": 217.875,
            "velocity": 0.3937007874015748
          },
          {
            "duration": 0.0625,
            "durationTicks": 48,
            "midi": 36,
            "name": "C2",
            "ticks": 167328,
            "time": 217.875,
            "velocity": 0.3937007874015748
          },
          {
            "duration": 0.0625,
            "durationTicks": 48,
            "midi": 36,
            "name": "C2",
            "ticks": 167472,
            "time": 218.0625,
            "velocity": 0.3937007874015748
          },
          {
            "duration": 0.0625,
            "durationTicks": 48,
            "midi": 24,
            "name": "C1",
            "ticks": 167472,
            "time": 218.0625,
            "velocity": 0.3937007874015748
          },
          {
            "duration": 0.0625,
            "durationTicks": 48,
            "midi": 24,
            "name": "C1",
            "ticks": 167760,
            "time": 218.4375,
            "velocity": 0.3937007874015748
          },
          {
            "duration": 0.0625,
            "durationTicks": 48,
            "midi": 36,
            "name": "C2",
            "ticks": 167760,
            "time": 218.4375,
            "velocity": 0.3937007874015748
          },
          {
            "duration": 0.0625,
            "durationTicks": 48,
            "midi": 36,
            "name": "C2",
            "ticks": 167904,
            "time": 218.625,
            "velocity": 0.3937007874015748
          },
          {
            "duration": 0.0625,
            "durationTicks": 48,
            "midi": 24,
            "name": "C1",
            "ticks": 167904,
            "time": 218.625,
            "velocity": 0.3937007874015748
          },
          {
            "duration": 0.0625,
            "durationTicks": 48,
            "midi": 36,
            "name": "C2",
            "ticks": 168048,
            "time": 218.8125,
            "velocity": 0.3937007874015748
          },
          {
            "duration": 0.0625,
            "durationTicks": 48,
            "midi": 24,
            "name": "C1",
            "ticks": 168048,
            "time": 218.8125,
            "velocity": 0.3937007874015748
          },
          {
            "duration": 0.0625,
            "durationTicks": 48,
            "midi": 26,
            "name": "D1",
            "ticks": 168192,
            "time": 219,
            "velocity": 0.3937007874015748
          },
          {
            "duration": 0.0625,
            "durationTicks": 48,
            "midi": 38,
            "name": "D2",
            "ticks": 168192,
            "time": 219,
            "velocity": 0.3937007874015748
          },
          {
            "duration": 0.0625,
            "durationTicks": 48,
            "midi": 33,
            "name": "A1",
            "ticks": 168480,
            "time": 219.375,
            "velocity": 0.3937007874015748
          },
          {
            "duration": 0.0625,
            "durationTicks": 48,
            "midi": 45,
            "name": "A2",
            "ticks": 168480,
            "time": 219.375,
            "velocity": 0.3937007874015748
          },
          {
            "duration": 0.0625,
            "durationTicks": 48,
            "midi": 38,
            "name": "D2",
            "ticks": 168624,
            "time": 219.5625,
            "velocity": 0.3937007874015748
          },
          {
            "duration": 0.0625,
            "durationTicks": 48,
            "midi": 26,
            "name": "D1",
            "ticks": 168624,
            "time": 219.5625,
            "velocity": 0.3937007874015748
          },
          {
            "duration": 0.0625,
            "durationTicks": 48,
            "midi": 28,
            "name": "E1",
            "ticks": 168768,
            "time": 219.75,
            "velocity": 0.3937007874015748
          },
          {
            "duration": 0.0625,
            "durationTicks": 48,
            "midi": 40,
            "name": "E2",
            "ticks": 168768,
            "time": 219.75,
            "velocity": 0.3937007874015748
          },
          {
            "duration": 0.0625,
            "durationTicks": 48,
            "midi": 28,
            "name": "E1",
            "ticks": 169056,
            "time": 220.125,
            "velocity": 0.3937007874015748
          },
          {
            "duration": 0.0625,
            "durationTicks": 48,
            "midi": 40,
            "name": "E2",
            "ticks": 169056,
            "time": 220.125,
            "velocity": 0.3937007874015748
          },
          {
            "duration": 0.0625,
            "durationTicks": 48,
            "midi": 40,
            "name": "E2",
            "ticks": 169200,
            "time": 220.3125,
            "velocity": 0.3937007874015748
          },
          {
            "duration": 0.0625,
            "durationTicks": 48,
            "midi": 28,
            "name": "E1",
            "ticks": 169200,
            "time": 220.3125,
            "velocity": 0.3937007874015748
          },
          {
            "duration": 0.0625,
            "durationTicks": 48,
            "midi": 28,
            "name": "E1",
            "ticks": 169488,
            "time": 220.6875,
            "velocity": 0.3937007874015748
          },
          {
            "duration": 0.0625,
            "durationTicks": 48,
            "midi": 40,
            "name": "E2",
            "ticks": 169488,
            "time": 220.6875,
            "velocity": 0.3937007874015748
          },
          {
            "duration": 0.0625,
            "durationTicks": 48,
            "midi": 28,
            "name": "E1",
            "ticks": 169632,
            "time": 220.875,
            "velocity": 0.3937007874015748
          },
          {
            "duration": 0.0625,
            "durationTicks": 48,
            "midi": 40,
            "name": "E2",
            "ticks": 169632,
            "time": 220.875,
            "velocity": 0.3937007874015748
          },
          {
            "duration": 0.0625,
            "durationTicks": 48,
            "midi": 40,
            "name": "E2",
            "ticks": 169776,
            "time": 221.0625,
            "velocity": 0.3937007874015748
          },
          {
            "duration": 0.0625,
            "durationTicks": 48,
            "midi": 28,
            "name": "E1",
            "ticks": 169776,
            "time": 221.0625,
            "velocity": 0.3937007874015748
          },
          {
            "duration": 0.0625,
            "durationTicks": 48,
            "midi": 31,
            "name": "G1",
            "ticks": 171072,
            "time": 222.75,
            "velocity": 0.3937007874015748
          },
          {
            "duration": 0.0625,
            "durationTicks": 48,
            "midi": 31,
            "name": "G1",
            "ticks": 171072,
            "time": 222.75,
            "velocity": 0.3937007874015748
          },
          {
            "duration": 0.0625,
            "durationTicks": 48,
            "midi": 31,
            "name": "G1",
            "ticks": 171360,
            "time": 223.125,
            "velocity": 0.3937007874015748
          },
          {
            "duration": 0.0625,
            "durationTicks": 48,
            "midi": 31,
            "name": "G1",
            "ticks": 171360,
            "time": 223.125,
            "velocity": 0.3937007874015748
          },
          {
            "duration": 0.0625,
            "durationTicks": 48,
            "midi": 31,
            "name": "G1",
            "ticks": 171504,
            "time": 223.3125,
            "velocity": 0.3937007874015748
          },
          {
            "duration": 0.0625,
            "durationTicks": 48,
            "midi": 31,
            "name": "G1",
            "ticks": 171504,
            "time": 223.3125,
            "velocity": 0.3937007874015748
          },
          {
            "duration": 0.0625,
            "durationTicks": 48,
            "midi": 31,
            "name": "G1",
            "ticks": 171792,
            "time": 223.6875,
            "velocity": 0.3937007874015748
          },
          {
            "duration": 0.0625,
            "durationTicks": 48,
            "midi": 31,
            "name": "G1",
            "ticks": 171792,
            "time": 223.6875,
            "velocity": 0.3937007874015748
          },
          {
            "duration": 0.0625,
            "durationTicks": 48,
            "midi": 31,
            "name": "G1",
            "ticks": 171936,
            "time": 223.875,
            "velocity": 0.3937007874015748
          },
          {
            "duration": 0.0625,
            "durationTicks": 48,
            "midi": 31,
            "name": "G1",
            "ticks": 171936,
            "time": 223.875,
            "velocity": 0.3937007874015748
          },
          {
            "duration": 0.0625,
            "durationTicks": 48,
            "midi": 31,
            "name": "G1",
            "ticks": 172080,
            "time": 224.0625,
            "velocity": 0.3937007874015748
          },
          {
            "duration": 0.0625,
            "durationTicks": 48,
            "midi": 31,
            "name": "G1",
            "ticks": 172080,
            "time": 224.0625,
            "velocity": 0.3937007874015748
          },
          {
            "duration": 0.0625,
            "durationTicks": 48,
            "midi": 24,
            "name": "C1",
            "ticks": 172224,
            "time": 224.25,
            "velocity": 0.3937007874015748
          },
          {
            "duration": 0.0625,
            "durationTicks": 48,
            "midi": 36,
            "name": "C2",
            "ticks": 172224,
            "time": 224.25,
            "velocity": 0.3937007874015748
          },
          {
            "duration": 0.0625,
            "durationTicks": 48,
            "midi": 24,
            "name": "C1",
            "ticks": 172512,
            "time": 224.625,
            "velocity": 0.3937007874015748
          },
          {
            "duration": 0.0625,
            "durationTicks": 48,
            "midi": 36,
            "name": "C2",
            "ticks": 172512,
            "time": 224.625,
            "velocity": 0.3937007874015748
          },
          {
            "duration": 0.0625,
            "durationTicks": 48,
            "midi": 36,
            "name": "C2",
            "ticks": 172656,
            "time": 224.8125,
            "velocity": 0.3937007874015748
          },
          {
            "duration": 0.0625,
            "durationTicks": 48,
            "midi": 24,
            "name": "C1",
            "ticks": 172656,
            "time": 224.8125,
            "velocity": 0.3937007874015748
          },
          {
            "duration": 0.0625,
            "durationTicks": 48,
            "midi": 36,
            "name": "C2",
            "ticks": 172944,
            "time": 225.1875,
            "velocity": 0.3937007874015748
          },
          {
            "duration": 0.0625,
            "durationTicks": 48,
            "midi": 24,
            "name": "C1",
            "ticks": 172944,
            "time": 225.1875,
            "velocity": 0.3937007874015748
          },
          {
            "duration": 0.0625,
            "durationTicks": 48,
            "midi": 24,
            "name": "C1",
            "ticks": 173088,
            "time": 225.375,
            "velocity": 0.3937007874015748
          },
          {
            "duration": 0.0625,
            "durationTicks": 48,
            "midi": 36,
            "name": "C2",
            "ticks": 173088,
            "time": 225.375,
            "velocity": 0.3937007874015748
          },
          {
            "duration": 0.0625,
            "durationTicks": 48,
            "midi": 24,
            "name": "C1",
            "ticks": 173232,
            "time": 225.5625,
            "velocity": 0.3937007874015748
          },
          {
            "duration": 0.0625,
            "durationTicks": 48,
            "midi": 36,
            "name": "C2",
            "ticks": 173232,
            "time": 225.5625,
            "velocity": 0.3937007874015748
          },
          {
            "duration": 0.0625,
            "durationTicks": 48,
            "midi": 36,
            "name": "C2",
            "ticks": 173376,
            "time": 225.75,
            "velocity": 0.3937007874015748
          },
          {
            "duration": 0.0625,
            "durationTicks": 48,
            "midi": 24,
            "name": "C1",
            "ticks": 173376,
            "time": 225.75,
            "velocity": 0.3937007874015748
          },
          {
            "duration": 0.0625,
            "durationTicks": 48,
            "midi": 24,
            "name": "C1",
            "ticks": 173664,
            "time": 226.125,
            "velocity": 0.3937007874015748
          },
          {
            "duration": 0.0625,
            "durationTicks": 48,
            "midi": 36,
            "name": "C2",
            "ticks": 173664,
            "time": 226.125,
            "velocity": 0.3937007874015748
          },
          {
            "duration": 0.0625,
            "durationTicks": 48,
            "midi": 24,
            "name": "C1",
            "ticks": 173808,
            "time": 226.3125,
            "velocity": 0.3937007874015748
          },
          {
            "duration": 0.0625,
            "durationTicks": 48,
            "midi": 36,
            "name": "C2",
            "ticks": 173808,
            "time": 226.3125,
            "velocity": 0.3937007874015748
          },
          {
            "duration": 0.0625,
            "durationTicks": 48,
            "midi": 24,
            "name": "C1",
            "ticks": 174096,
            "time": 226.6875,
            "velocity": 0.3937007874015748
          },
          {
            "duration": 0.0625,
            "durationTicks": 48,
            "midi": 36,
            "name": "C2",
            "ticks": 174096,
            "time": 226.6875,
            "velocity": 0.3937007874015748
          },
          {
            "duration": 0.0625,
            "durationTicks": 48,
            "midi": 36,
            "name": "C2",
            "ticks": 174240,
            "time": 226.875,
            "velocity": 0.3937007874015748
          },
          {
            "duration": 0.0625,
            "durationTicks": 48,
            "midi": 24,
            "name": "C1",
            "ticks": 174240,
            "time": 226.875,
            "velocity": 0.3937007874015748
          },
          {
            "duration": 0.0625,
            "durationTicks": 48,
            "midi": 24,
            "name": "C1",
            "ticks": 174384,
            "time": 227.0625,
            "velocity": 0.3937007874015748
          },
          {
            "duration": 0.0625,
            "durationTicks": 48,
            "midi": 36,
            "name": "C2",
            "ticks": 174384,
            "time": 227.0625,
            "velocity": 0.3937007874015748
          },
          {
            "duration": 0.0625,
            "durationTicks": 48,
            "midi": 38,
            "name": "D2",
            "ticks": 174528,
            "time": 227.25,
            "velocity": 0.3937007874015748
          },
          {
            "duration": 0.0625,
            "durationTicks": 48,
            "midi": 26,
            "name": "D1",
            "ticks": 174528,
            "time": 227.25,
            "velocity": 0.3937007874015748
          },
          {
            "duration": 0.0625,
            "durationTicks": 48,
            "midi": 45,
            "name": "A2",
            "ticks": 174816,
            "time": 227.625,
            "velocity": 0.3937007874015748
          },
          {
            "duration": 0.0625,
            "durationTicks": 48,
            "midi": 33,
            "name": "A1",
            "ticks": 174816,
            "time": 227.625,
            "velocity": 0.3937007874015748
          },
          {
            "duration": 0.0625,
            "durationTicks": 48,
            "midi": 26,
            "name": "D1",
            "ticks": 174960,
            "time": 227.8125,
            "velocity": 0.3937007874015748
          },
          {
            "duration": 0.0625,
            "durationTicks": 48,
            "midi": 38,
            "name": "D2",
            "ticks": 174960,
            "time": 227.8125,
            "velocity": 0.3937007874015748
          },
          {
            "duration": 0.0625,
            "durationTicks": 48,
            "midi": 28,
            "name": "E1",
            "ticks": 175104,
            "time": 228,
            "velocity": 0.3937007874015748
          },
          {
            "duration": 0.0625,
            "durationTicks": 48,
            "midi": 40,
            "name": "E2",
            "ticks": 175104,
            "time": 228,
            "velocity": 0.3937007874015748
          },
          {
            "duration": 0.0625,
            "durationTicks": 48,
            "midi": 40,
            "name": "E2",
            "ticks": 175392,
            "time": 228.375,
            "velocity": 0.3937007874015748
          },
          {
            "duration": 0.0625,
            "durationTicks": 48,
            "midi": 28,
            "name": "E1",
            "ticks": 175392,
            "time": 228.375,
            "velocity": 0.3937007874015748
          },
          {
            "duration": 0.0625,
            "durationTicks": 48,
            "midi": 28,
            "name": "E1",
            "ticks": 175536,
            "time": 228.5625,
            "velocity": 0.3937007874015748
          },
          {
            "duration": 0.0625,
            "durationTicks": 48,
            "midi": 40,
            "name": "E2",
            "ticks": 175536,
            "time": 228.5625,
            "velocity": 0.3937007874015748
          },
          {
            "duration": 0.0625,
            "durationTicks": 48,
            "midi": 40,
            "name": "E2",
            "ticks": 175824,
            "time": 228.9375,
            "velocity": 0.3937007874015748
          },
          {
            "duration": 0.0625,
            "durationTicks": 48,
            "midi": 28,
            "name": "E1",
            "ticks": 175824,
            "time": 228.9375,
            "velocity": 0.3937007874015748
          },
          {
            "duration": 0.0625,
            "durationTicks": 48,
            "midi": 28,
            "name": "E1",
            "ticks": 175968,
            "time": 229.125,
            "velocity": 0.3937007874015748
          },
          {
            "duration": 0.0625,
            "durationTicks": 48,
            "midi": 40,
            "name": "E2",
            "ticks": 175968,
            "time": 229.125,
            "velocity": 0.3937007874015748
          },
          {
            "duration": 0.0625,
            "durationTicks": 48,
            "midi": 40,
            "name": "E2",
            "ticks": 176112,
            "time": 229.3125,
            "velocity": 0.3937007874015748
          },
          {
            "duration": 0.0625,
            "durationTicks": 48,
            "midi": 28,
            "name": "E1",
            "ticks": 176112,
            "time": 229.3125,
            "velocity": 0.3937007874015748
          }
        ],
        "endOfTrackTicks": 176160
      },
      {
        "channel": 3,
        "controlChanges": {},
        "pitchBends": [],
        "instrument": {
          "family": "synth effects",
          "number": 99,
          "name": "fx 4 (atmosphere)"
        },
        "name": "Scifi",
        "notes": [
          {
            "duration": 0.0625,
            "durationTicks": 48,
            "midi": 83,
            "name": "B5",
            "ticks": 25920,
            "time": 33.75,
            "velocity": 0.3937007874015748
          },
          {
            "duration": 0.0625,
            "durationTicks": 48,
            "midi": 71,
            "name": "B4",
            "ticks": 25920,
            "time": 33.75,
            "velocity": 0.3937007874015748
          },
          {
            "duration": 0.0625,
            "durationTicks": 48,
            "midi": 71,
            "name": "B4",
            "ticks": 25920,
            "time": 33.75,
            "velocity": 0.3937007874015748
          },
          {
            "duration": 0.0625,
            "durationTicks": 48,
            "midi": 83,
            "name": "B5",
            "ticks": 25920,
            "time": 33.75,
            "velocity": 0.3937007874015748
          },
          {
            "duration": 0.0625,
            "durationTicks": 48,
            "midi": 72,
            "name": "C5",
            "ticks": 26064,
            "time": 33.9375,
            "velocity": 0.3937007874015748
          },
          {
            "duration": 0.0625,
            "durationTicks": 48,
            "midi": 84,
            "name": "C6",
            "ticks": 26064,
            "time": 33.9375,
            "velocity": 0.3937007874015748
          },
          {
            "duration": 0.0625,
            "durationTicks": 48,
            "midi": 86,
            "name": "D6",
            "ticks": 26208,
            "time": 34.125,
            "velocity": 0.3937007874015748
          },
          {
            "duration": 0.0625,
            "durationTicks": 48,
            "midi": 74,
            "name": "D5",
            "ticks": 26208,
            "time": 34.125,
            "velocity": 0.3937007874015748
          },
          {
            "duration": 0.0625,
            "durationTicks": 48,
            "midi": 76,
            "name": "E5",
            "ticks": 26352,
            "time": 34.3125,
            "velocity": 0.3937007874015748
          },
          {
            "duration": 0.0625,
            "durationTicks": 48,
            "midi": 88,
            "name": "E6",
            "ticks": 26352,
            "time": 34.3125,
            "velocity": 0.3937007874015748
          },
          {
            "duration": 0.0625,
            "durationTicks": 48,
            "midi": 83,
            "name": "B5",
            "ticks": 28224,
            "time": 36.75,
            "velocity": 0.3937007874015748
          },
          {
            "duration": 0.0625,
            "durationTicks": 48,
            "midi": 71,
            "name": "B4",
            "ticks": 28224,
            "time": 36.75,
            "velocity": 0.3937007874015748
          },
          {
            "duration": 0.0625,
            "durationTicks": 48,
            "midi": 72,
            "name": "C5",
            "ticks": 28368,
            "time": 36.9375,
            "velocity": 0.3937007874015748
          },
          {
            "duration": 0.0625,
            "durationTicks": 48,
            "midi": 84,
            "name": "C6",
            "ticks": 28368,
            "time": 36.9375,
            "velocity": 0.3937007874015748
          },
          {
            "duration": 0.0625,
            "durationTicks": 48,
            "midi": 86,
            "name": "D6",
            "ticks": 28512,
            "time": 37.125,
            "velocity": 0.3937007874015748
          },
          {
            "duration": 0.0625,
            "durationTicks": 48,
            "midi": 74,
            "name": "D5",
            "ticks": 28512,
            "time": 37.125,
            "velocity": 0.3937007874015748
          },
          {
            "duration": 0.0625,
            "durationTicks": 48,
            "midi": 88,
            "name": "E6",
            "ticks": 28656,
            "time": 37.3125,
            "velocity": 0.3937007874015748
          },
          {
            "duration": 0.0625,
            "durationTicks": 48,
            "midi": 76,
            "name": "E5",
            "ticks": 28656,
            "time": 37.3125,
            "velocity": 0.3937007874015748
          },
          {
            "duration": 0.0625,
            "durationTicks": 48,
            "midi": 86,
            "name": "D6",
            "ticks": 28800,
            "time": 37.5,
            "velocity": 0.3937007874015748
          },
          {
            "duration": 0.0625,
            "durationTicks": 48,
            "midi": 74,
            "name": "D5",
            "ticks": 28800,
            "time": 37.5,
            "velocity": 0.3937007874015748
          },
          {
            "duration": 0.0625,
            "durationTicks": 48,
            "midi": 72,
            "name": "C5",
            "ticks": 28944,
            "time": 37.6875,
            "velocity": 0.3937007874015748
          },
          {
            "duration": 0.0625,
            "durationTicks": 48,
            "midi": 84,
            "name": "C6",
            "ticks": 28944,
            "time": 37.6875,
            "velocity": 0.3937007874015748
          },
          {
            "duration": 0.0625,
            "durationTicks": 48,
            "midi": 83,
            "name": "B5",
            "ticks": 29088,
            "time": 37.875,
            "velocity": 0.3937007874015748
          },
          {
            "duration": 0.0625,
            "durationTicks": 48,
            "midi": 71,
            "name": "B4",
            "ticks": 29088,
            "time": 37.875,
            "velocity": 0.3937007874015748
          },
          {
            "duration": 0.0625,
            "durationTicks": 48,
            "midi": 71,
            "name": "B4",
            "ticks": 29376,
            "time": 38.25,
            "velocity": 0.3937007874015748
          },
          {
            "duration": 0.0625,
            "durationTicks": 48,
            "midi": 83,
            "name": "B5",
            "ticks": 29376,
            "time": 38.25,
            "velocity": 0.3937007874015748
          },
          {
            "duration": 0.0625,
            "durationTicks": 48,
            "midi": 67,
            "name": "G4",
            "ticks": 29520,
            "time": 38.4375,
            "velocity": 0.3937007874015748
          },
          {
            "duration": 0.0625,
            "durationTicks": 48,
            "midi": 79,
            "name": "G5",
            "ticks": 29520,
            "time": 38.4375,
            "velocity": 0.3937007874015748
          },
          {
            "duration": 0.0625,
            "durationTicks": 48,
            "midi": 64,
            "name": "E4",
            "ticks": 29664,
            "time": 38.625,
            "velocity": 0.3937007874015748
          },
          {
            "duration": 0.0625,
            "durationTicks": 48,
            "midi": 76,
            "name": "E5",
            "ticks": 29664,
            "time": 38.625,
            "velocity": 0.3937007874015748
          },
          {
            "duration": 0.0625,
            "durationTicks": 48,
            "midi": 71,
            "name": "B4",
            "ticks": 32256,
            "time": 42,
            "velocity": 0.3937007874015748
          },
          {
            "duration": 0.0625,
            "durationTicks": 48,
            "midi": 83,
            "name": "B5",
            "ticks": 32256,
            "time": 42,
            "velocity": 0.3937007874015748
          },
          {
            "duration": 0.0625,
            "durationTicks": 48,
            "midi": 83,
            "name": "B5",
            "ticks": 32256,
            "time": 42,
            "velocity": 0.3937007874015748
          },
          {
            "duration": 0.0625,
            "durationTicks": 48,
            "midi": 71,
            "name": "B4",
            "ticks": 32256,
            "time": 42,
            "velocity": 0.3937007874015748
          },
          {
            "duration": 0.0625,
            "durationTicks": 48,
            "midi": 84,
            "name": "C6",
            "ticks": 32400,
            "time": 42.1875,
            "velocity": 0.3937007874015748
          },
          {
            "duration": 0.0625,
            "durationTicks": 48,
            "midi": 72,
            "name": "C5",
            "ticks": 32400,
            "time": 42.1875,
            "velocity": 0.3937007874015748
          },
          {
            "duration": 0.0625,
            "durationTicks": 48,
            "midi": 86,
            "name": "D6",
            "ticks": 32544,
            "time": 42.375,
            "velocity": 0.3937007874015748
          },
          {
            "duration": 0.0625,
            "durationTicks": 48,
            "midi": 74,
            "name": "D5",
            "ticks": 32544,
            "time": 42.375,
            "velocity": 0.3937007874015748
          },
          {
            "duration": 0.0625,
            "durationTicks": 48,
            "midi": 88,
            "name": "E6",
            "ticks": 32688,
            "time": 42.5625,
            "velocity": 0.3937007874015748
          },
          {
            "duration": 0.0625,
            "durationTicks": 48,
            "midi": 76,
            "name": "E5",
            "ticks": 32688,
            "time": 42.5625,
            "velocity": 0.3937007874015748
          },
          {
            "duration": 0.0625,
            "durationTicks": 48,
            "midi": 83,
            "name": "B5",
            "ticks": 34560,
            "time": 45,
            "velocity": 0.3937007874015748
          },
          {
            "duration": 0.0625,
            "durationTicks": 48,
            "midi": 71,
            "name": "B4",
            "ticks": 34560,
            "time": 45,
            "velocity": 0.3937007874015748
          },
          {
            "duration": 0.0625,
            "durationTicks": 48,
            "midi": 84,
            "name": "C6",
            "ticks": 34704,
            "time": 45.1875,
            "velocity": 0.3937007874015748
          },
          {
            "duration": 0.0625,
            "durationTicks": 48,
            "midi": 72,
            "name": "C5",
            "ticks": 34704,
            "time": 45.1875,
            "velocity": 0.3937007874015748
          },
          {
            "duration": 0.0625,
            "durationTicks": 48,
            "midi": 74,
            "name": "D5",
            "ticks": 34848,
            "time": 45.375,
            "velocity": 0.3937007874015748
          },
          {
            "duration": 0.0625,
            "durationTicks": 48,
            "midi": 86,
            "name": "D6",
            "ticks": 34848,
            "time": 45.375,
            "velocity": 0.3937007874015748
          },
          {
            "duration": 0.0625,
            "durationTicks": 48,
            "midi": 88,
            "name": "E6",
            "ticks": 34992,
            "time": 45.5625,
            "velocity": 0.3937007874015748
          },
          {
            "duration": 0.0625,
            "durationTicks": 48,
            "midi": 76,
            "name": "E5",
            "ticks": 34992,
            "time": 45.5625,
            "velocity": 0.3937007874015748
          },
          {
            "duration": 0.0625,
            "durationTicks": 48,
            "midi": 74,
            "name": "D5",
            "ticks": 35136,
            "time": 45.75,
            "velocity": 0.3937007874015748
          },
          {
            "duration": 0.0625,
            "durationTicks": 48,
            "midi": 86,
            "name": "D6",
            "ticks": 35136,
            "time": 45.75,
            "velocity": 0.3937007874015748
          },
          {
            "duration": 0.0625,
            "durationTicks": 48,
            "midi": 84,
            "name": "C6",
            "ticks": 35280,
            "time": 45.9375,
            "velocity": 0.3937007874015748
          },
          {
            "duration": 0.0625,
            "durationTicks": 48,
            "midi": 72,
            "name": "C5",
            "ticks": 35280,
            "time": 45.9375,
            "velocity": 0.3937007874015748
          },
          {
            "duration": 0.0625,
            "durationTicks": 48,
            "midi": 71,
            "name": "B4",
            "ticks": 35424,
            "time": 46.125,
            "velocity": 0.3937007874015748
          },
          {
            "duration": 0.0625,
            "durationTicks": 48,
            "midi": 83,
            "name": "B5",
            "ticks": 35424,
            "time": 46.125,
            "velocity": 0.3937007874015748
          },
          {
            "duration": 0.0625,
            "durationTicks": 48,
            "midi": 83,
            "name": "B5",
            "ticks": 35712,
            "time": 46.5,
            "velocity": 0.3937007874015748
          },
          {
            "duration": 0.0625,
            "durationTicks": 48,
            "midi": 71,
            "name": "B4",
            "ticks": 35712,
            "time": 46.5,
            "velocity": 0.3937007874015748
          },
          {
            "duration": 0.0625,
            "durationTicks": 48,
            "midi": 79,
            "name": "G5",
            "ticks": 35856,
            "time": 46.6875,
            "velocity": 0.3937007874015748
          },
          {
            "duration": 0.0625,
            "durationTicks": 48,
            "midi": 67,
            "name": "G4",
            "ticks": 35856,
            "time": 46.6875,
            "velocity": 0.3937007874015748
          },
          {
            "duration": 0.0625,
            "durationTicks": 48,
            "midi": 76,
            "name": "E5",
            "ticks": 36000,
            "time": 46.875,
            "velocity": 0.3937007874015748
          },
          {
            "duration": 0.0625,
            "durationTicks": 48,
            "midi": 64,
            "name": "E4",
            "ticks": 36000,
            "time": 46.875,
            "velocity": 0.3937007874015748
          },
          {
            "duration": 0.0625,
            "durationTicks": 48,
            "midi": 71,
            "name": "B4",
            "ticks": 38592,
            "time": 50.25,
            "velocity": 0.3937007874015748
          },
          {
            "duration": 0.0625,
            "durationTicks": 48,
            "midi": 71,
            "name": "B4",
            "ticks": 38592,
            "time": 50.25,
            "velocity": 0.3937007874015748
          },
          {
            "duration": 0.0625,
            "durationTicks": 48,
            "midi": 83,
            "name": "B5",
            "ticks": 38592,
            "time": 50.25,
            "velocity": 0.3937007874015748
          },
          {
            "duration": 0.0625,
            "durationTicks": 48,
            "midi": 83,
            "name": "B5",
            "ticks": 38592,
            "time": 50.25,
            "velocity": 0.3937007874015748
          },
          {
            "duration": 0.0625,
            "durationTicks": 48,
            "midi": 84,
            "name": "C6",
            "ticks": 38736,
            "time": 50.4375,
            "velocity": 0.3937007874015748
          },
          {
            "duration": 0.0625,
            "durationTicks": 48,
            "midi": 72,
            "name": "C5",
            "ticks": 38736,
            "time": 50.4375,
            "velocity": 0.3937007874015748
          },
          {
            "duration": 0.0625,
            "durationTicks": 48,
            "midi": 74,
            "name": "D5",
            "ticks": 38880,
            "time": 50.625,
            "velocity": 0.3937007874015748
          },
          {
            "duration": 0.0625,
            "durationTicks": 48,
            "midi": 86,
            "name": "D6",
            "ticks": 38880,
            "time": 50.625,
            "velocity": 0.3937007874015748
          },
          {
            "duration": 0.0625,
            "durationTicks": 48,
            "midi": 76,
            "name": "E5",
            "ticks": 39024,
            "time": 50.8125,
            "velocity": 0.3937007874015748
          },
          {
            "duration": 0.0625,
            "durationTicks": 48,
            "midi": 88,
            "name": "E6",
            "ticks": 39024,
            "time": 50.8125,
            "velocity": 0.3937007874015748
          },
          {
            "duration": 0.0625,
            "durationTicks": 48,
            "midi": 83,
            "name": "B5",
            "ticks": 40896,
            "time": 53.25,
            "velocity": 0.3937007874015748
          },
          {
            "duration": 0.0625,
            "durationTicks": 48,
            "midi": 71,
            "name": "B4",
            "ticks": 40896,
            "time": 53.25,
            "velocity": 0.3937007874015748
          },
          {
            "duration": 0.0625,
            "durationTicks": 48,
            "midi": 84,
            "name": "C6",
            "ticks": 41040,
            "time": 53.4375,
            "velocity": 0.3937007874015748
          },
          {
            "duration": 0.0625,
            "durationTicks": 48,
            "midi": 72,
            "name": "C5",
            "ticks": 41040,
            "time": 53.4375,
            "velocity": 0.3937007874015748
          },
          {
            "duration": 0.0625,
            "durationTicks": 48,
            "midi": 86,
            "name": "D6",
            "ticks": 41184,
            "time": 53.625,
            "velocity": 0.3937007874015748
          },
          {
            "duration": 0.0625,
            "durationTicks": 48,
            "midi": 74,
            "name": "D5",
            "ticks": 41184,
            "time": 53.625,
            "velocity": 0.3937007874015748
          },
          {
            "duration": 0.0625,
            "durationTicks": 48,
            "midi": 88,
            "name": "E6",
            "ticks": 41328,
            "time": 53.8125,
            "velocity": 0.3937007874015748
          },
          {
            "duration": 0.0625,
            "durationTicks": 48,
            "midi": 76,
            "name": "E5",
            "ticks": 41328,
            "time": 53.8125,
            "velocity": 0.3937007874015748
          },
          {
            "duration": 0.0625,
            "durationTicks": 48,
            "midi": 74,
            "name": "D5",
            "ticks": 41472,
            "time": 54,
            "velocity": 0.3937007874015748
          },
          {
            "duration": 0.0625,
            "durationTicks": 48,
            "midi": 86,
            "name": "D6",
            "ticks": 41472,
            "time": 54,
            "velocity": 0.3937007874015748
          },
          {
            "duration": 0.0625,
            "durationTicks": 48,
            "midi": 84,
            "name": "C6",
            "ticks": 41616,
            "time": 54.1875,
            "velocity": 0.3937007874015748
          },
          {
            "duration": 0.0625,
            "durationTicks": 48,
            "midi": 72,
            "name": "C5",
            "ticks": 41616,
            "time": 54.1875,
            "velocity": 0.3937007874015748
          },
          {
            "duration": 0.0625,
            "durationTicks": 48,
            "midi": 83,
            "name": "B5",
            "ticks": 41760,
            "time": 54.375,
            "velocity": 0.3937007874015748
          },
          {
            "duration": 0.0625,
            "durationTicks": 48,
            "midi": 71,
            "name": "B4",
            "ticks": 41760,
            "time": 54.375,
            "velocity": 0.3937007874015748
          },
          {
            "duration": 0.0625,
            "durationTicks": 48,
            "midi": 83,
            "name": "B5",
            "ticks": 42048,
            "time": 54.75,
            "velocity": 0.3937007874015748
          },
          {
            "duration": 0.0625,
            "durationTicks": 48,
            "midi": 71,
            "name": "B4",
            "ticks": 42048,
            "time": 54.75,
            "velocity": 0.3937007874015748
          },
          {
            "duration": 0.0625,
            "durationTicks": 48,
            "midi": 79,
            "name": "G5",
            "ticks": 42192,
            "time": 54.9375,
            "velocity": 0.3937007874015748
          },
          {
            "duration": 0.0625,
            "durationTicks": 48,
            "midi": 67,
            "name": "G4",
            "ticks": 42192,
            "time": 54.9375,
            "velocity": 0.3937007874015748
          },
          {
            "duration": 0.0625,
            "durationTicks": 48,
            "midi": 76,
            "name": "E5",
            "ticks": 42336,
            "time": 55.125,
            "velocity": 0.3937007874015748
          },
          {
            "duration": 0.0625,
            "durationTicks": 48,
            "midi": 64,
            "name": "E4",
            "ticks": 42336,
            "time": 55.125,
            "velocity": 0.3937007874015748
          },
          {
            "duration": 0.0625,
            "durationTicks": 48,
            "midi": 83,
            "name": "B5",
            "ticks": 44928,
            "time": 58.5,
            "velocity": 0.3937007874015748
          },
          {
            "duration": 0.0625,
            "durationTicks": 48,
            "midi": 71,
            "name": "B4",
            "ticks": 44928,
            "time": 58.5,
            "velocity": 0.3937007874015748
          },
          {
            "duration": 0.0625,
            "durationTicks": 48,
            "midi": 83,
            "name": "B5",
            "ticks": 44928,
            "time": 58.5,
            "velocity": 0.3937007874015748
          },
          {
            "duration": 0.0625,
            "durationTicks": 48,
            "midi": 71,
            "name": "B4",
            "ticks": 44928,
            "time": 58.5,
            "velocity": 0.3937007874015748
          },
          {
            "duration": 0.0625,
            "durationTicks": 48,
            "midi": 72,
            "name": "C5",
            "ticks": 45072,
            "time": 58.6875,
            "velocity": 0.3937007874015748
          },
          {
            "duration": 0.0625,
            "durationTicks": 48,
            "midi": 84,
            "name": "C6",
            "ticks": 45072,
            "time": 58.6875,
            "velocity": 0.3937007874015748
          },
          {
            "duration": 0.0625,
            "durationTicks": 48,
            "midi": 86,
            "name": "D6",
            "ticks": 45216,
            "time": 58.875,
            "velocity": 0.3937007874015748
          },
          {
            "duration": 0.0625,
            "durationTicks": 48,
            "midi": 74,
            "name": "D5",
            "ticks": 45216,
            "time": 58.875,
            "velocity": 0.3937007874015748
          },
          {
            "duration": 0.0625,
            "durationTicks": 48,
            "midi": 76,
            "name": "E5",
            "ticks": 45360,
            "time": 59.0625,
            "velocity": 0.3937007874015748
          },
          {
            "duration": 0.0625,
            "durationTicks": 48,
            "midi": 88,
            "name": "E6",
            "ticks": 45360,
            "time": 59.0625,
            "velocity": 0.3937007874015748
          },
          {
            "duration": 0.0625,
            "durationTicks": 48,
            "midi": 83,
            "name": "B5",
            "ticks": 47232,
            "time": 61.5,
            "velocity": 0.3937007874015748
          },
          {
            "duration": 0.0625,
            "durationTicks": 48,
            "midi": 71,
            "name": "B4",
            "ticks": 47232,
            "time": 61.5,
            "velocity": 0.3937007874015748
          },
          {
            "duration": 0.0625,
            "durationTicks": 48,
            "midi": 84,
            "name": "C6",
            "ticks": 47376,
            "time": 61.6875,
            "velocity": 0.3937007874015748
          },
          {
            "duration": 0.0625,
            "durationTicks": 48,
            "midi": 72,
            "name": "C5",
            "ticks": 47376,
            "time": 61.6875,
            "velocity": 0.3937007874015748
          },
          {
            "duration": 0.0625,
            "durationTicks": 48,
            "midi": 74,
            "name": "D5",
            "ticks": 47520,
            "time": 61.875,
            "velocity": 0.3937007874015748
          },
          {
            "duration": 0.0625,
            "durationTicks": 48,
            "midi": 86,
            "name": "D6",
            "ticks": 47520,
            "time": 61.875,
            "velocity": 0.3937007874015748
          },
          {
            "duration": 0.0625,
            "durationTicks": 48,
            "midi": 88,
            "name": "E6",
            "ticks": 47664,
            "time": 62.0625,
            "velocity": 0.3937007874015748
          },
          {
            "duration": 0.0625,
            "durationTicks": 48,
            "midi": 76,
            "name": "E5",
            "ticks": 47664,
            "time": 62.0625,
            "velocity": 0.3937007874015748
          },
          {
            "duration": 0.0625,
            "durationTicks": 48,
            "midi": 86,
            "name": "D6",
            "ticks": 47808,
            "time": 62.25,
            "velocity": 0.3937007874015748
          },
          {
            "duration": 0.0625,
            "durationTicks": 48,
            "midi": 74,
            "name": "D5",
            "ticks": 47808,
            "time": 62.25,
            "velocity": 0.3937007874015748
          },
          {
            "duration": 0.0625,
            "durationTicks": 48,
            "midi": 72,
            "name": "C5",
            "ticks": 47952,
            "time": 62.4375,
            "velocity": 0.3937007874015748
          },
          {
            "duration": 0.0625,
            "durationTicks": 48,
            "midi": 84,
            "name": "C6",
            "ticks": 47952,
            "time": 62.4375,
            "velocity": 0.3937007874015748
          },
          {
            "duration": 0.0625,
            "durationTicks": 48,
            "midi": 71,
            "name": "B4",
            "ticks": 48096,
            "time": 62.625,
            "velocity": 0.3937007874015748
          },
          {
            "duration": 0.0625,
            "durationTicks": 48,
            "midi": 83,
            "name": "B5",
            "ticks": 48096,
            "time": 62.625,
            "velocity": 0.3937007874015748
          },
          {
            "duration": 0.0625,
            "durationTicks": 48,
            "midi": 71,
            "name": "B4",
            "ticks": 48384,
            "time": 63,
            "velocity": 0.3937007874015748
          },
          {
            "duration": 0.0625,
            "durationTicks": 48,
            "midi": 83,
            "name": "B5",
            "ticks": 48384,
            "time": 63,
            "velocity": 0.3937007874015748
          },
          {
            "duration": 0.0625,
            "durationTicks": 48,
            "midi": 67,
            "name": "G4",
            "ticks": 48528,
            "time": 63.1875,
            "velocity": 0.3937007874015748
          },
          {
            "duration": 0.0625,
            "durationTicks": 48,
            "midi": 79,
            "name": "G5",
            "ticks": 48528,
            "time": 63.1875,
            "velocity": 0.3937007874015748
          },
          {
            "duration": 0.0625,
            "durationTicks": 48,
            "midi": 76,
            "name": "E5",
            "ticks": 48672,
            "time": 63.375,
            "velocity": 0.3937007874015748
          },
          {
            "duration": 0.0625,
            "durationTicks": 48,
            "midi": 64,
            "name": "E4",
            "ticks": 48672,
            "time": 63.375,
            "velocity": 0.3937007874015748
          },
          {
            "duration": 0.0625,
            "durationTicks": 48,
            "midi": 83,
            "name": "B5",
            "ticks": 76608,
            "time": 99.75,
            "velocity": 0.3937007874015748
          },
          {
            "duration": 0.0625,
            "durationTicks": 48,
            "midi": 71,
            "name": "B4",
            "ticks": 76608,
            "time": 99.75,
            "velocity": 0.3937007874015748
          },
          {
            "duration": 0.0625,
            "durationTicks": 48,
            "midi": 83,
            "name": "B5",
            "ticks": 76608,
            "time": 99.75,
            "velocity": 0.3937007874015748
          },
          {
            "duration": 0.0625,
            "durationTicks": 48,
            "midi": 71,
            "name": "B4",
            "ticks": 76608,
            "time": 99.75,
            "velocity": 0.3937007874015748
          },
          {
            "duration": 0.0625,
            "durationTicks": 48,
            "midi": 72,
            "name": "C5",
            "ticks": 76752,
            "time": 99.9375,
            "velocity": 0.3937007874015748
          },
          {
            "duration": 0.0625,
            "durationTicks": 48,
            "midi": 84,
            "name": "C6",
            "ticks": 76752,
            "time": 99.9375,
            "velocity": 0.3937007874015748
          },
          {
            "duration": 0.0625,
            "durationTicks": 48,
            "midi": 86,
            "name": "D6",
            "ticks": 76896,
            "time": 100.125,
            "velocity": 0.3937007874015748
          },
          {
            "duration": 0.0625,
            "durationTicks": 48,
            "midi": 74,
            "name": "D5",
            "ticks": 76896,
            "time": 100.125,
            "velocity": 0.3937007874015748
          },
          {
            "duration": 0.0625,
            "durationTicks": 48,
            "midi": 76,
            "name": "E5",
            "ticks": 77040,
            "time": 100.3125,
            "velocity": 0.3937007874015748
          },
          {
            "duration": 0.0625,
            "durationTicks": 48,
            "midi": 88,
            "name": "E6",
            "ticks": 77040,
            "time": 100.3125,
            "velocity": 0.3937007874015748
          },
          {
            "duration": 0.0625,
            "durationTicks": 48,
            "midi": 83,
            "name": "B5",
            "ticks": 78912,
            "time": 102.75,
            "velocity": 0.3937007874015748
          },
          {
            "duration": 0.0625,
            "durationTicks": 48,
            "midi": 71,
            "name": "B4",
            "ticks": 78912,
            "time": 102.75,
            "velocity": 0.3937007874015748
          },
          {
            "duration": 0.0625,
            "durationTicks": 48,
            "midi": 72,
            "name": "C5",
            "ticks": 79056,
            "time": 102.9375,
            "velocity": 0.3937007874015748
          },
          {
            "duration": 0.0625,
            "durationTicks": 48,
            "midi": 84,
            "name": "C6",
            "ticks": 79056,
            "time": 102.9375,
            "velocity": 0.3937007874015748
          },
          {
            "duration": 0.0625,
            "durationTicks": 48,
            "midi": 86,
            "name": "D6",
            "ticks": 79200,
            "time": 103.125,
            "velocity": 0.3937007874015748
          },
          {
            "duration": 0.0625,
            "durationTicks": 48,
            "midi": 74,
            "name": "D5",
            "ticks": 79200,
            "time": 103.125,
            "velocity": 0.3937007874015748
          },
          {
            "duration": 0.0625,
            "durationTicks": 48,
            "midi": 88,
            "name": "E6",
            "ticks": 79344,
            "time": 103.3125,
            "velocity": 0.3937007874015748
          },
          {
            "duration": 0.0625,
            "durationTicks": 48,
            "midi": 76,
            "name": "E5",
            "ticks": 79344,
            "time": 103.3125,
            "velocity": 0.3937007874015748
          },
          {
            "duration": 0.0625,
            "durationTicks": 48,
            "midi": 86,
            "name": "D6",
            "ticks": 79488,
            "time": 103.5,
            "velocity": 0.3937007874015748
          },
          {
            "duration": 0.0625,
            "durationTicks": 48,
            "midi": 74,
            "name": "D5",
            "ticks": 79488,
            "time": 103.5,
            "velocity": 0.3937007874015748
          },
          {
            "duration": 0.0625,
            "durationTicks": 48,
            "midi": 72,
            "name": "C5",
            "ticks": 79632,
            "time": 103.6875,
            "velocity": 0.3937007874015748
          },
          {
            "duration": 0.0625,
            "durationTicks": 48,
            "midi": 84,
            "name": "C6",
            "ticks": 79632,
            "time": 103.6875,
            "velocity": 0.3937007874015748
          },
          {
            "duration": 0.0625,
            "durationTicks": 48,
            "midi": 71,
            "name": "B4",
            "ticks": 79776,
            "time": 103.875,
            "velocity": 0.3937007874015748
          },
          {
            "duration": 0.0625,
            "durationTicks": 48,
            "midi": 83,
            "name": "B5",
            "ticks": 79776,
            "time": 103.875,
            "velocity": 0.3937007874015748
          },
          {
            "duration": 0.0625,
            "durationTicks": 48,
            "midi": 71,
            "name": "B4",
            "ticks": 80064,
            "time": 104.25,
            "velocity": 0.3937007874015748
          },
          {
            "duration": 0.0625,
            "durationTicks": 48,
            "midi": 83,
            "name": "B5",
            "ticks": 80064,
            "time": 104.25,
            "velocity": 0.3937007874015748
          },
          {
            "duration": 0.0625,
            "durationTicks": 48,
            "midi": 67,
            "name": "G4",
            "ticks": 80208,
            "time": 104.4375,
            "velocity": 0.3937007874015748
          },
          {
            "duration": 0.0625,
            "durationTicks": 48,
            "midi": 79,
            "name": "G5",
            "ticks": 80208,
            "time": 104.4375,
            "velocity": 0.3937007874015748
          },
          {
            "duration": 0.0625,
            "durationTicks": 48,
            "midi": 64,
            "name": "E4",
            "ticks": 80352,
            "time": 104.625,
            "velocity": 0.3937007874015748
          },
          {
            "duration": 0.0625,
            "durationTicks": 48,
            "midi": 76,
            "name": "E5",
            "ticks": 80352,
            "time": 104.625,
            "velocity": 0.3937007874015748
          },
          {
            "duration": 0.0625,
            "durationTicks": 48,
            "midi": 71,
            "name": "B4",
            "ticks": 82944,
            "time": 108,
            "velocity": 0.3937007874015748
          },
          {
            "duration": 0.0625,
            "durationTicks": 48,
            "midi": 83,
            "name": "B5",
            "ticks": 82944,
            "time": 108,
            "velocity": 0.3937007874015748
          },
          {
            "duration": 0.0625,
            "durationTicks": 48,
            "midi": 71,
            "name": "B4",
            "ticks": 82944,
            "time": 108,
            "velocity": 0.3937007874015748
          },
          {
            "duration": 0.0625,
            "durationTicks": 48,
            "midi": 83,
            "name": "B5",
            "ticks": 82944,
            "time": 108,
            "velocity": 0.3937007874015748
          },
          {
            "duration": 0.0625,
            "durationTicks": 48,
            "midi": 84,
            "name": "C6",
            "ticks": 83088,
            "time": 108.1875,
            "velocity": 0.3937007874015748
          },
          {
            "duration": 0.0625,
            "durationTicks": 48,
            "midi": 72,
            "name": "C5",
            "ticks": 83088,
            "time": 108.1875,
            "velocity": 0.3937007874015748
          },
          {
            "duration": 0.0625,
            "durationTicks": 48,
            "midi": 74,
            "name": "D5",
            "ticks": 83232,
            "time": 108.375,
            "velocity": 0.3937007874015748
          },
          {
            "duration": 0.0625,
            "durationTicks": 48,
            "midi": 86,
            "name": "D6",
            "ticks": 83232,
            "time": 108.375,
            "velocity": 0.3937007874015748
          },
          {
            "duration": 0.0625,
            "durationTicks": 48,
            "midi": 88,
            "name": "E6",
            "ticks": 83376,
            "time": 108.5625,
            "velocity": 0.3937007874015748
          },
          {
            "duration": 0.0625,
            "durationTicks": 48,
            "midi": 76,
            "name": "E5",
            "ticks": 83376,
            "time": 108.5625,
            "velocity": 0.3937007874015748
          },
          {
            "duration": 0.0625,
            "durationTicks": 48,
            "midi": 83,
            "name": "B5",
            "ticks": 85248,
            "time": 111,
            "velocity": 0.3937007874015748
          },
          {
            "duration": 0.0625,
            "durationTicks": 48,
            "midi": 71,
            "name": "B4",
            "ticks": 85248,
            "time": 111,
            "velocity": 0.3937007874015748
          },
          {
            "duration": 0.0625,
            "durationTicks": 48,
            "midi": 72,
            "name": "C5",
            "ticks": 85392,
            "time": 111.1875,
            "velocity": 0.3937007874015748
          },
          {
            "duration": 0.0625,
            "durationTicks": 48,
            "midi": 84,
            "name": "C6",
            "ticks": 85392,
            "time": 111.1875,
            "velocity": 0.3937007874015748
          },
          {
            "duration": 0.0625,
            "durationTicks": 48,
            "midi": 86,
            "name": "D6",
            "ticks": 85536,
            "time": 111.375,
            "velocity": 0.3937007874015748
          },
          {
            "duration": 0.0625,
            "durationTicks": 48,
            "midi": 74,
            "name": "D5",
            "ticks": 85536,
            "time": 111.375,
            "velocity": 0.3937007874015748
          },
          {
            "duration": 0.0625,
            "durationTicks": 48,
            "midi": 88,
            "name": "E6",
            "ticks": 85680,
            "time": 111.5625,
            "velocity": 0.3937007874015748
          },
          {
            "duration": 0.0625,
            "durationTicks": 48,
            "midi": 76,
            "name": "E5",
            "ticks": 85680,
            "time": 111.5625,
            "velocity": 0.3937007874015748
          },
          {
            "duration": 0.0625,
            "durationTicks": 48,
            "midi": 74,
            "name": "D5",
            "ticks": 85824,
            "time": 111.75,
            "velocity": 0.3937007874015748
          },
          {
            "duration": 0.0625,
            "durationTicks": 48,
            "midi": 86,
            "name": "D6",
            "ticks": 85824,
            "time": 111.75,
            "velocity": 0.3937007874015748
          },
          {
            "duration": 0.0625,
            "durationTicks": 48,
            "midi": 84,
            "name": "C6",
            "ticks": 85968,
            "time": 111.9375,
            "velocity": 0.3937007874015748
          },
          {
            "duration": 0.0625,
            "durationTicks": 48,
            "midi": 72,
            "name": "C5",
            "ticks": 85968,
            "time": 111.9375,
            "velocity": 0.3937007874015748
          },
          {
            "duration": 0.0625,
            "durationTicks": 48,
            "midi": 71,
            "name": "B4",
            "ticks": 86112,
            "time": 112.125,
            "velocity": 0.3937007874015748
          },
          {
            "duration": 0.0625,
            "durationTicks": 48,
            "midi": 83,
            "name": "B5",
            "ticks": 86112,
            "time": 112.125,
            "velocity": 0.3937007874015748
          },
          {
            "duration": 0.0625,
            "durationTicks": 48,
            "midi": 83,
            "name": "B5",
            "ticks": 86400,
            "time": 112.5,
            "velocity": 0.3937007874015748
          },
          {
            "duration": 0.0625,
            "durationTicks": 48,
            "midi": 71,
            "name": "B4",
            "ticks": 86400,
            "time": 112.5,
            "velocity": 0.3937007874015748
          },
          {
            "duration": 0.0625,
            "durationTicks": 48,
            "midi": 67,
            "name": "G4",
            "ticks": 86544,
            "time": 112.6875,
            "velocity": 0.3937007874015748
          },
          {
            "duration": 0.0625,
            "durationTicks": 48,
            "midi": 79,
            "name": "G5",
            "ticks": 86544,
            "time": 112.6875,
            "velocity": 0.3937007874015748
          },
          {
            "duration": 0.0625,
            "durationTicks": 48,
            "midi": 64,
            "name": "E4",
            "ticks": 86688,
            "time": 112.875,
            "velocity": 0.3937007874015748
          },
          {
            "duration": 0.0625,
            "durationTicks": 48,
            "midi": 76,
            "name": "E5",
            "ticks": 86688,
            "time": 112.875,
            "velocity": 0.3937007874015748
          },
          {
            "duration": 0.0625,
            "durationTicks": 48,
            "midi": 71,
            "name": "B4",
            "ticks": 89280,
            "time": 116.25,
            "velocity": 0.3937007874015748
          },
          {
            "duration": 0.0625,
            "durationTicks": 48,
            "midi": 83,
            "name": "B5",
            "ticks": 89280,
            "time": 116.25,
            "velocity": 0.3937007874015748
          },
          {
            "duration": 0.0625,
            "durationTicks": 48,
            "midi": 71,
            "name": "B4",
            "ticks": 89280,
            "time": 116.25,
            "velocity": 0.3937007874015748
          },
          {
            "duration": 0.0625,
            "durationTicks": 48,
            "midi": 83,
            "name": "B5",
            "ticks": 89280,
            "time": 116.25,
            "velocity": 0.3937007874015748
          },
          {
            "duration": 0.0625,
            "durationTicks": 48,
            "midi": 84,
            "name": "C6",
            "ticks": 89424,
            "time": 116.4375,
            "velocity": 0.3937007874015748
          },
          {
            "duration": 0.0625,
            "durationTicks": 48,
            "midi": 72,
            "name": "C5",
            "ticks": 89424,
            "time": 116.4375,
            "velocity": 0.3937007874015748
          },
          {
            "duration": 0.0625,
            "durationTicks": 48,
            "midi": 86,
            "name": "D6",
            "ticks": 89568,
            "time": 116.625,
            "velocity": 0.3937007874015748
          },
          {
            "duration": 0.0625,
            "durationTicks": 48,
            "midi": 74,
            "name": "D5",
            "ticks": 89568,
            "time": 116.625,
            "velocity": 0.3937007874015748
          },
          {
            "duration": 0.0625,
            "durationTicks": 48,
            "midi": 76,
            "name": "E5",
            "ticks": 89712,
            "time": 116.8125,
            "velocity": 0.3937007874015748
          },
          {
            "duration": 0.0625,
            "durationTicks": 48,
            "midi": 88,
            "name": "E6",
            "ticks": 89712,
            "time": 116.8125,
            "velocity": 0.3937007874015748
          },
          {
            "duration": 0.0625,
            "durationTicks": 48,
            "midi": 71,
            "name": "B4",
            "ticks": 91584,
            "time": 119.25,
            "velocity": 0.3937007874015748
          },
          {
            "duration": 0.0625,
            "durationTicks": 48,
            "midi": 83,
            "name": "B5",
            "ticks": 91584,
            "time": 119.25,
            "velocity": 0.3937007874015748
          },
          {
            "duration": 0.0625,
            "durationTicks": 48,
            "midi": 72,
            "name": "C5",
            "ticks": 91728,
            "time": 119.4375,
            "velocity": 0.3937007874015748
          },
          {
            "duration": 0.0625,
            "durationTicks": 48,
            "midi": 84,
            "name": "C6",
            "ticks": 91728,
            "time": 119.4375,
            "velocity": 0.3937007874015748
          },
          {
            "duration": 0.0625,
            "durationTicks": 48,
            "midi": 86,
            "name": "D6",
            "ticks": 91872,
            "time": 119.625,
            "velocity": 0.3937007874015748
          },
          {
            "duration": 0.0625,
            "durationTicks": 48,
            "midi": 74,
            "name": "D5",
            "ticks": 91872,
            "time": 119.625,
            "velocity": 0.3937007874015748
          },
          {
            "duration": 0.0625,
            "durationTicks": 48,
            "midi": 76,
            "name": "E5",
            "ticks": 92016,
            "time": 119.8125,
            "velocity": 0.3937007874015748
          },
          {
            "duration": 0.0625,
            "durationTicks": 48,
            "midi": 88,
            "name": "E6",
            "ticks": 92016,
            "time": 119.8125,
            "velocity": 0.3937007874015748
          },
          {
            "duration": 0.0625,
            "durationTicks": 48,
            "midi": 74,
            "name": "D5",
            "ticks": 92160,
            "time": 120,
            "velocity": 0.3937007874015748
          },
          {
            "duration": 0.0625,
            "durationTicks": 48,
            "midi": 86,
            "name": "D6",
            "ticks": 92160,
            "time": 120,
            "velocity": 0.3937007874015748
          },
          {
            "duration": 0.0625,
            "durationTicks": 48,
            "midi": 84,
            "name": "C6",
            "ticks": 92304,
            "time": 120.1875,
            "velocity": 0.3937007874015748
          },
          {
            "duration": 0.0625,
            "durationTicks": 48,
            "midi": 72,
            "name": "C5",
            "ticks": 92304,
            "time": 120.1875,
            "velocity": 0.3937007874015748
          },
          {
            "duration": 0.0625,
            "durationTicks": 48,
            "midi": 83,
            "name": "B5",
            "ticks": 92448,
            "time": 120.375,
            "velocity": 0.3937007874015748
          },
          {
            "duration": 0.0625,
            "durationTicks": 48,
            "midi": 71,
            "name": "B4",
            "ticks": 92448,
            "time": 120.375,
            "velocity": 0.3937007874015748
          },
          {
            "duration": 0.0625,
            "durationTicks": 48,
            "midi": 71,
            "name": "B4",
            "ticks": 92736,
            "time": 120.75,
            "velocity": 0.3937007874015748
          },
          {
            "duration": 0.0625,
            "durationTicks": 48,
            "midi": 83,
            "name": "B5",
            "ticks": 92736,
            "time": 120.75,
            "velocity": 0.3937007874015748
          },
          {
            "duration": 0.0625,
            "durationTicks": 48,
            "midi": 79,
            "name": "G5",
            "ticks": 92880,
            "time": 120.9375,
            "velocity": 0.3937007874015748
          },
          {
            "duration": 0.0625,
            "durationTicks": 48,
            "midi": 67,
            "name": "G4",
            "ticks": 92880,
            "time": 120.9375,
            "velocity": 0.3937007874015748
          },
          {
            "duration": 0.0625,
            "durationTicks": 48,
            "midi": 76,
            "name": "E5",
            "ticks": 93024,
            "time": 121.125,
            "velocity": 0.3937007874015748
          },
          {
            "duration": 0.0625,
            "durationTicks": 48,
            "midi": 64,
            "name": "E4",
            "ticks": 93024,
            "time": 121.125,
            "velocity": 0.3937007874015748
          },
          {
            "duration": 0.0625,
            "durationTicks": 48,
            "midi": 71,
            "name": "B4",
            "ticks": 95616,
            "time": 124.5,
            "velocity": 0.3937007874015748
          },
          {
            "duration": 0.0625,
            "durationTicks": 48,
            "midi": 83,
            "name": "B5",
            "ticks": 95616,
            "time": 124.5,
            "velocity": 0.3937007874015748
          },
          {
            "duration": 0.0625,
            "durationTicks": 48,
            "midi": 83,
            "name": "B5",
            "ticks": 95616,
            "time": 124.5,
            "velocity": 0.3937007874015748
          },
          {
            "duration": 0.0625,
            "durationTicks": 48,
            "midi": 71,
            "name": "B4",
            "ticks": 95616,
            "time": 124.5,
            "velocity": 0.3937007874015748
          },
          {
            "duration": 0.0625,
            "durationTicks": 48,
            "midi": 84,
            "name": "C6",
            "ticks": 95760,
            "time": 124.6875,
            "velocity": 0.3937007874015748
          },
          {
            "duration": 0.0625,
            "durationTicks": 48,
            "midi": 72,
            "name": "C5",
            "ticks": 95760,
            "time": 124.6875,
            "velocity": 0.3937007874015748
          },
          {
            "duration": 0.0625,
            "durationTicks": 48,
            "midi": 74,
            "name": "D5",
            "ticks": 95904,
            "time": 124.875,
            "velocity": 0.3937007874015748
          },
          {
            "duration": 0.0625,
            "durationTicks": 48,
            "midi": 86,
            "name": "D6",
            "ticks": 95904,
            "time": 124.875,
            "velocity": 0.3937007874015748
          },
          {
            "duration": 0.0625,
            "durationTicks": 48,
            "midi": 76,
            "name": "E5",
            "ticks": 96048,
            "time": 125.0625,
            "velocity": 0.3937007874015748
          },
          {
            "duration": 0.0625,
            "durationTicks": 48,
            "midi": 88,
            "name": "E6",
            "ticks": 96048,
            "time": 125.0625,
            "velocity": 0.3937007874015748
          },
          {
            "duration": 0.0625,
            "durationTicks": 48,
            "midi": 83,
            "name": "B5",
            "ticks": 97920,
            "time": 127.5,
            "velocity": 0.3937007874015748
          },
          {
            "duration": 0.0625,
            "durationTicks": 48,
            "midi": 71,
            "name": "B4",
            "ticks": 97920,
            "time": 127.5,
            "velocity": 0.3937007874015748
          },
          {
            "duration": 0.0625,
            "durationTicks": 48,
            "midi": 84,
            "name": "C6",
            "ticks": 98064,
            "time": 127.6875,
            "velocity": 0.3937007874015748
          },
          {
            "duration": 0.0625,
            "durationTicks": 48,
            "midi": 72,
            "name": "C5",
            "ticks": 98064,
            "time": 127.6875,
            "velocity": 0.3937007874015748
          },
          {
            "duration": 0.0625,
            "durationTicks": 48,
            "midi": 74,
            "name": "D5",
            "ticks": 98208,
            "time": 127.875,
            "velocity": 0.3937007874015748
          },
          {
            "duration": 0.0625,
            "durationTicks": 48,
            "midi": 86,
            "name": "D6",
            "ticks": 98208,
            "time": 127.875,
            "velocity": 0.3937007874015748
          },
          {
            "duration": 0.0625,
            "durationTicks": 48,
            "midi": 76,
            "name": "E5",
            "ticks": 98352,
            "time": 128.0625,
            "velocity": 0.3937007874015748
          },
          {
            "duration": 0.0625,
            "durationTicks": 48,
            "midi": 88,
            "name": "E6",
            "ticks": 98352,
            "time": 128.0625,
            "velocity": 0.3937007874015748
          },
          {
            "duration": 0.0625,
            "durationTicks": 48,
            "midi": 74,
            "name": "D5",
            "ticks": 98496,
            "time": 128.25,
            "velocity": 0.3937007874015748
          },
          {
            "duration": 0.0625,
            "durationTicks": 48,
            "midi": 86,
            "name": "D6",
            "ticks": 98496,
            "time": 128.25,
            "velocity": 0.3937007874015748
          },
          {
            "duration": 0.0625,
            "durationTicks": 48,
            "midi": 72,
            "name": "C5",
            "ticks": 98640,
            "time": 128.4375,
            "velocity": 0.3937007874015748
          },
          {
            "duration": 0.0625,
            "durationTicks": 48,
            "midi": 84,
            "name": "C6",
            "ticks": 98640,
            "time": 128.4375,
            "velocity": 0.3937007874015748
          },
          {
            "duration": 0.0625,
            "durationTicks": 48,
            "midi": 83,
            "name": "B5",
            "ticks": 98784,
            "time": 128.625,
            "velocity": 0.3937007874015748
          },
          {
            "duration": 0.0625,
            "durationTicks": 48,
            "midi": 71,
            "name": "B4",
            "ticks": 98784,
            "time": 128.625,
            "velocity": 0.3937007874015748
          },
          {
            "duration": 0.0625,
            "durationTicks": 48,
            "midi": 71,
            "name": "B4",
            "ticks": 99072,
            "time": 129,
            "velocity": 0.3937007874015748
          },
          {
            "duration": 0.0625,
            "durationTicks": 48,
            "midi": 83,
            "name": "B5",
            "ticks": 99072,
            "time": 129,
            "velocity": 0.3937007874015748
          },
          {
            "duration": 0.0625,
            "durationTicks": 48,
            "midi": 79,
            "name": "G5",
            "ticks": 99216,
            "time": 129.1875,
            "velocity": 0.3937007874015748
          },
          {
            "duration": 0.0625,
            "durationTicks": 48,
            "midi": 67,
            "name": "G4",
            "ticks": 99216,
            "time": 129.1875,
            "velocity": 0.3937007874015748
          },
          {
            "duration": 0.0625,
            "durationTicks": 48,
            "midi": 76,
            "name": "E5",
            "ticks": 99360,
            "time": 129.375,
            "velocity": 0.3937007874015748
          },
          {
            "duration": 0.0625,
            "durationTicks": 48,
            "midi": 64,
            "name": "E4",
            "ticks": 99360,
            "time": 129.375,
            "velocity": 0.3937007874015748
          },
          {
            "duration": 0.0625,
            "durationTicks": 48,
            "midi": 43,
            "name": "G2",
            "ticks": 101376,
            "time": 132,
            "velocity": 0.3937007874015748
          },
          {
            "duration": 0.0625,
            "durationTicks": 48,
            "midi": 55,
            "name": "G3",
            "ticks": 101376,
            "time": 132,
            "velocity": 0.3937007874015748
          },
          {
            "duration": 0.0625,
            "durationTicks": 48,
            "midi": 45,
            "name": "A2",
            "ticks": 101808,
            "time": 132.5625,
            "velocity": 0.3937007874015748
          },
          {
            "duration": 0.0625,
            "durationTicks": 48,
            "midi": 57,
            "name": "A3",
            "ticks": 101808,
            "time": 132.5625,
            "velocity": 0.3937007874015748
          },
          {
            "duration": 0.0625,
            "durationTicks": 48,
            "midi": 59,
            "name": "B3",
            "ticks": 102240,
            "time": 133.125,
            "velocity": 0.3937007874015748
          },
          {
            "duration": 0.0625,
            "durationTicks": 48,
            "midi": 47,
            "name": "B2",
            "ticks": 102240,
            "time": 133.125,
            "velocity": 0.3937007874015748
          },
          {
            "duration": 0.0625,
            "durationTicks": 48,
            "midi": 48,
            "name": "C3",
            "ticks": 102672,
            "time": 133.6875,
            "velocity": 0.3937007874015748
          },
          {
            "duration": 0.0625,
            "durationTicks": 48,
            "midi": 60,
            "name": "C4",
            "ticks": 102672,
            "time": 133.6875,
            "velocity": 0.3937007874015748
          },
          {
            "duration": 0.0625,
            "durationTicks": 48,
            "midi": 50,
            "name": "D3",
            "ticks": 103104,
            "time": 134.25,
            "velocity": 0.3937007874015748
          },
          {
            "duration": 0.0625,
            "durationTicks": 48,
            "midi": 62,
            "name": "D4",
            "ticks": 103104,
            "time": 134.25,
            "velocity": 0.3937007874015748
          },
          {
            "duration": 0.0625,
            "durationTicks": 48,
            "midi": 52,
            "name": "E3",
            "ticks": 103536,
            "time": 134.8125,
            "velocity": 0.3937007874015748
          },
          {
            "duration": 0.0625,
            "durationTicks": 48,
            "midi": 64,
            "name": "E4",
            "ticks": 103536,
            "time": 134.8125,
            "velocity": 0.3937007874015748
          },
          {
            "duration": 0.0625,
            "durationTicks": 48,
            "midi": 55,
            "name": "G3",
            "ticks": 103968,
            "time": 135.375,
            "velocity": 0.3937007874015748
          },
          {
            "duration": 0.0625,
            "durationTicks": 48,
            "midi": 67,
            "name": "G4",
            "ticks": 103968,
            "time": 135.375,
            "velocity": 0.3937007874015748
          },
          {
            "duration": 0.0625,
            "durationTicks": 48,
            "midi": 67,
            "name": "G4",
            "ticks": 104256,
            "time": 135.75,
            "velocity": 0.3937007874015748
          },
          {
            "duration": 0.0625,
            "durationTicks": 48,
            "midi": 55,
            "name": "G3",
            "ticks": 104256,
            "time": 135.75,
            "velocity": 0.3937007874015748
          },
          {
            "duration": 0.0625,
            "durationTicks": 48,
            "midi": 69,
            "name": "A4",
            "ticks": 104544,
            "time": 136.125,
            "velocity": 0.3937007874015748
          },
          {
            "duration": 0.0625,
            "durationTicks": 48,
            "midi": 57,
            "name": "A3",
            "ticks": 104544,
            "time": 136.125,
            "velocity": 0.3937007874015748
          },
          {
            "duration": 0.0625,
            "durationTicks": 48,
            "midi": 71,
            "name": "B4",
            "ticks": 104832,
            "time": 136.5,
            "velocity": 0.3937007874015748
          },
          {
            "duration": 0.0625,
            "durationTicks": 48,
            "midi": 59,
            "name": "B3",
            "ticks": 104832,
            "time": 136.5,
            "velocity": 0.3937007874015748
          },
          {
            "duration": 0.0625,
            "durationTicks": 48,
            "midi": 57,
            "name": "A3",
            "ticks": 105264,
            "time": 137.0625,
            "velocity": 0.3937007874015748
          },
          {
            "duration": 0.0625,
            "durationTicks": 48,
            "midi": 69,
            "name": "A4",
            "ticks": 105264,
            "time": 137.0625,
            "velocity": 0.3937007874015748
          },
          {
            "duration": 0.0625,
            "durationTicks": 48,
            "midi": 69,
            "name": "A4",
            "ticks": 105408,
            "time": 137.25,
            "velocity": 0.3937007874015748
          },
          {
            "duration": 0.0625,
            "durationTicks": 48,
            "midi": 57,
            "name": "A3",
            "ticks": 105408,
            "time": 137.25,
            "velocity": 0.3937007874015748
          },
          {
            "duration": 0.0625,
            "durationTicks": 48,
            "midi": 59,
            "name": "B3",
            "ticks": 105552,
            "time": 137.4375,
            "velocity": 0.3937007874015748
          },
          {
            "duration": 0.0625,
            "durationTicks": 48,
            "midi": 71,
            "name": "B4",
            "ticks": 105552,
            "time": 137.4375,
            "velocity": 0.3937007874015748
          },
          {
            "duration": 0.0625,
            "durationTicks": 48,
            "midi": 52,
            "name": "E3",
            "ticks": 106704,
            "time": 138.9375,
            "velocity": 0.3937007874015748
          },
          {
            "duration": 0.0625,
            "durationTicks": 48,
            "midi": 64,
            "name": "E4",
            "ticks": 106704,
            "time": 138.9375,
            "velocity": 0.3937007874015748
          },
          {
            "duration": 0.0625,
            "durationTicks": 48,
            "midi": 55,
            "name": "G3",
            "ticks": 106848,
            "time": 139.125,
            "velocity": 0.3937007874015748
          },
          {
            "duration": 0.0625,
            "durationTicks": 48,
            "midi": 67,
            "name": "G4",
            "ticks": 106848,
            "time": 139.125,
            "velocity": 0.3937007874015748
          },
          {
            "duration": 0.0625,
            "durationTicks": 48,
            "midi": 60,
            "name": "C4",
            "ticks": 106992,
            "time": 139.3125,
            "velocity": 0.3937007874015748
          },
          {
            "duration": 0.0625,
            "durationTicks": 48,
            "midi": 72,
            "name": "C5",
            "ticks": 106992,
            "time": 139.3125,
            "velocity": 0.3937007874015748
          },
          {
            "duration": 0.0625,
            "durationTicks": 48,
            "midi": 59,
            "name": "B3",
            "ticks": 107136,
            "time": 139.5,
            "velocity": 0.3937007874015748
          },
          {
            "duration": 0.0625,
            "durationTicks": 48,
            "midi": 71,
            "name": "B4",
            "ticks": 107136,
            "time": 139.5,
            "velocity": 0.3937007874015748
          },
          {
            "duration": 0.0625,
            "durationTicks": 48,
            "midi": 67,
            "name": "G4",
            "ticks": 107280,
            "time": 139.6875,
            "velocity": 0.3937007874015748
          },
          {
            "duration": 0.0625,
            "durationTicks": 48,
            "midi": 55,
            "name": "G3",
            "ticks": 107280,
            "time": 139.6875,
            "velocity": 0.3937007874015748
          },
          {
            "duration": 0.0625,
            "durationTicks": 48,
            "midi": 64,
            "name": "E4",
            "ticks": 107424,
            "time": 139.875,
            "velocity": 0.3937007874015748
          },
          {
            "duration": 0.0625,
            "durationTicks": 48,
            "midi": 52,
            "name": "E3",
            "ticks": 107424,
            "time": 139.875,
            "velocity": 0.3937007874015748
          },
          {
            "duration": 0.0625,
            "durationTicks": 48,
            "midi": 52,
            "name": "E3",
            "ticks": 107568,
            "time": 140.0625,
            "velocity": 0.3937007874015748
          },
          {
            "duration": 0.0625,
            "durationTicks": 48,
            "midi": 64,
            "name": "E4",
            "ticks": 107568,
            "time": 140.0625,
            "velocity": 0.3937007874015748
          },
          {
            "duration": 0.0625,
            "durationTicks": 48,
            "midi": 64,
            "name": "E4",
            "ticks": 107712,
            "time": 140.25,
            "velocity": 0.3937007874015748
          },
          {
            "duration": 0.0625,
            "durationTicks": 48,
            "midi": 52,
            "name": "E3",
            "ticks": 107712,
            "time": 140.25,
            "velocity": 0.3937007874015748
          },
          {
            "duration": 0.0625,
            "durationTicks": 48,
            "midi": 62,
            "name": "D4",
            "ticks": 108288,
            "time": 141,
            "velocity": 0.3937007874015748
          },
          {
            "duration": 0.0625,
            "durationTicks": 48,
            "midi": 74,
            "name": "D5",
            "ticks": 108288,
            "time": 141,
            "velocity": 0.3937007874015748
          },
          {
            "duration": 0.0625,
            "durationTicks": 48,
            "midi": 64,
            "name": "E4",
            "ticks": 108864,
            "time": 141.75,
            "velocity": 0.3937007874015748
          },
          {
            "duration": 0.0625,
            "durationTicks": 48,
            "midi": 76,
            "name": "E5",
            "ticks": 108864,
            "time": 141.75,
            "velocity": 0.3937007874015748
          },
          {
            "duration": 0.0625,
            "durationTicks": 48,
            "midi": 59,
            "name": "B3",
            "ticks": 110016,
            "time": 143.25,
            "velocity": 0.3937007874015748
          },
          {
            "duration": 0.0625,
            "durationTicks": 48,
            "midi": 71,
            "name": "B4",
            "ticks": 110016,
            "time": 143.25,
            "velocity": 0.3937007874015748
          },
          {
            "duration": 0.0625,
            "durationTicks": 48,
            "midi": 72,
            "name": "C5",
            "ticks": 110160,
            "time": 143.4375,
            "velocity": 0.3937007874015748
          },
          {
            "duration": 0.0625,
            "durationTicks": 48,
            "midi": 60,
            "name": "C4",
            "ticks": 110160,
            "time": 143.4375,
            "velocity": 0.3937007874015748
          },
          {
            "duration": 0.0625,
            "durationTicks": 48,
            "midi": 59,
            "name": "B3",
            "ticks": 110304,
            "time": 143.625,
            "velocity": 0.3937007874015748
          },
          {
            "duration": 0.0625,
            "durationTicks": 48,
            "midi": 71,
            "name": "B4",
            "ticks": 110304,
            "time": 143.625,
            "velocity": 0.3937007874015748
          },
          {
            "duration": 0.0625,
            "durationTicks": 48,
            "midi": 55,
            "name": "G3",
            "ticks": 110448,
            "time": 143.8125,
            "velocity": 0.3937007874015748
          },
          {
            "duration": 0.0625,
            "durationTicks": 48,
            "midi": 67,
            "name": "G4",
            "ticks": 110448,
            "time": 143.8125,
            "velocity": 0.3937007874015748
          },
          {
            "duration": 0.0625,
            "durationTicks": 48,
            "midi": 64,
            "name": "E4",
            "ticks": 110592,
            "time": 144,
            "velocity": 0.3937007874015748
          },
          {
            "duration": 0.0625,
            "durationTicks": 48,
            "midi": 52,
            "name": "E3",
            "ticks": 110592,
            "time": 144,
            "velocity": 0.3937007874015748
          },
          {
            "duration": 0.0625,
            "durationTicks": 48,
            "midi": 60,
            "name": "C4",
            "ticks": 110736,
            "time": 144.1875,
            "velocity": 0.3937007874015748
          },
          {
            "duration": 0.0625,
            "durationTicks": 48,
            "midi": 48,
            "name": "C3",
            "ticks": 110736,
            "time": 144.1875,
            "velocity": 0.3937007874015748
          },
          {
            "duration": 0.0625,
            "durationTicks": 48,
            "midi": 47,
            "name": "B2",
            "ticks": 110880,
            "time": 144.375,
            "velocity": 0.3937007874015748
          },
          {
            "duration": 0.0625,
            "durationTicks": 48,
            "midi": 59,
            "name": "B3",
            "ticks": 110880,
            "time": 144.375,
            "velocity": 0.3937007874015748
          },
          {
            "duration": 0.0625,
            "durationTicks": 48,
            "midi": 48,
            "name": "C3",
            "ticks": 111024,
            "time": 144.5625,
            "velocity": 0.3937007874015748
          },
          {
            "duration": 0.0625,
            "durationTicks": 48,
            "midi": 60,
            "name": "C4",
            "ticks": 111024,
            "time": 144.5625,
            "velocity": 0.3937007874015748
          },
          {
            "duration": 0.0625,
            "durationTicks": 48,
            "midi": 55,
            "name": "G3",
            "ticks": 111168,
            "time": 144.75,
            "velocity": 0.3937007874015748
          },
          {
            "duration": 0.0625,
            "durationTicks": 48,
            "midi": 67,
            "name": "G4",
            "ticks": 111168,
            "time": 144.75,
            "velocity": 0.3937007874015748
          },
          {
            "duration": 0.0625,
            "durationTicks": 48,
            "midi": 64,
            "name": "E4",
            "ticks": 111312,
            "time": 144.9375,
            "velocity": 0.3937007874015748
          },
          {
            "duration": 0.0625,
            "durationTicks": 48,
            "midi": 52,
            "name": "E3",
            "ticks": 111312,
            "time": 144.9375,
            "velocity": 0.3937007874015748
          },
          {
            "duration": 0.0625,
            "durationTicks": 48,
            "midi": 62,
            "name": "D4",
            "ticks": 111456,
            "time": 145.125,
            "velocity": 0.3937007874015748
          },
          {
            "duration": 0.0625,
            "durationTicks": 48,
            "midi": 50,
            "name": "D3",
            "ticks": 111456,
            "time": 145.125,
            "velocity": 0.3937007874015748
          },
          {
            "duration": 0.0625,
            "durationTicks": 48,
            "midi": 64,
            "name": "E4",
            "ticks": 111744,
            "time": 145.5,
            "velocity": 0.3937007874015748
          },
          {
            "duration": 0.0625,
            "durationTicks": 48,
            "midi": 52,
            "name": "E3",
            "ticks": 111744,
            "time": 145.5,
            "velocity": 0.3937007874015748
          },
          {
            "duration": 0.0625,
            "durationTicks": 48,
            "midi": 52,
            "name": "E3",
            "ticks": 114048,
            "time": 148.5,
            "velocity": 0.3937007874015748
          },
          {
            "duration": 0.0625,
            "durationTicks": 48,
            "midi": 64,
            "name": "E4",
            "ticks": 114048,
            "time": 148.5,
            "velocity": 0.3937007874015748
          },
          {
            "duration": 0.0625,
            "durationTicks": 48,
            "midi": 62,
            "name": "D4",
            "ticks": 114336,
            "time": 148.875,
            "velocity": 0.3937007874015748
          },
          {
            "duration": 0.0625,
            "durationTicks": 48,
            "midi": 50,
            "name": "D3",
            "ticks": 114336,
            "time": 148.875,
            "velocity": 0.3937007874015748
          },
          {
            "duration": 0.0625,
            "durationTicks": 48,
            "midi": 71,
            "name": "B4",
            "ticks": 114912,
            "time": 149.625,
            "velocity": 0.3937007874015748
          },
          {
            "duration": 0.0625,
            "durationTicks": 48,
            "midi": 59,
            "name": "B3",
            "ticks": 114912,
            "time": 149.625,
            "velocity": 0.3937007874015748
          },
          {
            "duration": 0.0625,
            "durationTicks": 48,
            "midi": 57,
            "name": "A3",
            "ticks": 115056,
            "time": 149.8125,
            "velocity": 0.3937007874015748
          },
          {
            "duration": 0.0625,
            "durationTicks": 48,
            "midi": 69,
            "name": "A4",
            "ticks": 115056,
            "time": 149.8125,
            "velocity": 0.3937007874015748
          },
          {
            "duration": 0.0625,
            "durationTicks": 48,
            "midi": 67,
            "name": "G4",
            "ticks": 115920,
            "time": 150.9375,
            "velocity": 0.3937007874015748
          },
          {
            "duration": 0.0625,
            "durationTicks": 48,
            "midi": 55,
            "name": "G3",
            "ticks": 115920,
            "time": 150.9375,
            "velocity": 0.3937007874015748
          },
          {
            "duration": 0.0625,
            "durationTicks": 48,
            "midi": 57,
            "name": "A3",
            "ticks": 116064,
            "time": 151.125,
            "velocity": 0.3937007874015748
          },
          {
            "duration": 0.0625,
            "durationTicks": 48,
            "midi": 69,
            "name": "A4",
            "ticks": 116064,
            "time": 151.125,
            "velocity": 0.3937007874015748
          },
          {
            "duration": 0.0625,
            "durationTicks": 48,
            "midi": 67,
            "name": "G4",
            "ticks": 116208,
            "time": 151.3125,
            "velocity": 0.3937007874015748
          },
          {
            "duration": 0.0625,
            "durationTicks": 48,
            "midi": 55,
            "name": "G3",
            "ticks": 116208,
            "time": 151.3125,
            "velocity": 0.3937007874015748
          },
          {
            "duration": 0.0625,
            "durationTicks": 48,
            "midi": 55,
            "name": "G3",
            "ticks": 116352,
            "time": 151.5,
            "velocity": 0.3937007874015748
          },
          {
            "duration": 0.0625,
            "durationTicks": 48,
            "midi": 67,
            "name": "G4",
            "ticks": 116352,
            "time": 151.5,
            "velocity": 0.3937007874015748
          },
          {
            "duration": 0.0625,
            "durationTicks": 48,
            "midi": 59,
            "name": "B3",
            "ticks": 116496,
            "time": 151.6875,
            "velocity": 0.3937007874015748
          },
          {
            "duration": 0.0625,
            "durationTicks": 48,
            "midi": 71,
            "name": "B4",
            "ticks": 116496,
            "time": 151.6875,
            "velocity": 0.3937007874015748
          },
          {
            "duration": 0.0625,
            "durationTicks": 48,
            "midi": 69,
            "name": "A4",
            "ticks": 116640,
            "time": 151.875,
            "velocity": 0.3937007874015748
          },
          {
            "duration": 0.0625,
            "durationTicks": 48,
            "midi": 57,
            "name": "A3",
            "ticks": 116640,
            "time": 151.875,
            "velocity": 0.3937007874015748
          },
          {
            "duration": 0.0625,
            "durationTicks": 48,
            "midi": 83,
            "name": "B5",
            "ticks": 152640,
            "time": 198.75,
            "velocity": 0.3937007874015748
          },
          {
            "duration": 0.0625,
            "durationTicks": 48,
            "midi": 83,
            "name": "B5",
            "ticks": 152640,
            "time": 198.75,
            "velocity": 0.3937007874015748
          },
          {
            "duration": 0.0625,
            "durationTicks": 48,
            "midi": 71,
            "name": "B4",
            "ticks": 152640,
            "time": 198.75,
            "velocity": 0.3937007874015748
          },
          {
            "duration": 0.0625,
            "durationTicks": 48,
            "midi": 71,
            "name": "B4",
            "ticks": 152640,
            "time": 198.75,
            "velocity": 0.3937007874015748
          },
          {
            "duration": 0.0625,
            "durationTicks": 48,
            "midi": 72,
            "name": "C5",
            "ticks": 152784,
            "time": 198.9375,
            "velocity": 0.3937007874015748
          },
          {
            "duration": 0.0625,
            "durationTicks": 48,
            "midi": 84,
            "name": "C6",
            "ticks": 152784,
            "time": 198.9375,
            "velocity": 0.3937007874015748
          },
          {
            "duration": 0.0625,
            "durationTicks": 48,
            "midi": 86,
            "name": "D6",
            "ticks": 152928,
            "time": 199.125,
            "velocity": 0.3937007874015748
          },
          {
            "duration": 0.0625,
            "durationTicks": 48,
            "midi": 74,
            "name": "D5",
            "ticks": 152928,
            "time": 199.125,
            "velocity": 0.3937007874015748
          },
          {
            "duration": 0.0625,
            "durationTicks": 48,
            "midi": 76,
            "name": "E5",
            "ticks": 153072,
            "time": 199.3125,
            "velocity": 0.3937007874015748
          },
          {
            "duration": 0.0625,
            "durationTicks": 48,
            "midi": 88,
            "name": "E6",
            "ticks": 153072,
            "time": 199.3125,
            "velocity": 0.3937007874015748
          },
          {
            "duration": 0.0625,
            "durationTicks": 48,
            "midi": 71,
            "name": "B4",
            "ticks": 154944,
            "time": 201.75,
            "velocity": 0.3937007874015748
          },
          {
            "duration": 0.0625,
            "durationTicks": 48,
            "midi": 83,
            "name": "B5",
            "ticks": 154944,
            "time": 201.75,
            "velocity": 0.3937007874015748
          },
          {
            "duration": 0.0625,
            "durationTicks": 48,
            "midi": 72,
            "name": "C5",
            "ticks": 155088,
            "time": 201.9375,
            "velocity": 0.3937007874015748
          },
          {
            "duration": 0.0625,
            "durationTicks": 48,
            "midi": 84,
            "name": "C6",
            "ticks": 155088,
            "time": 201.9375,
            "velocity": 0.3937007874015748
          },
          {
            "duration": 0.0625,
            "durationTicks": 48,
            "midi": 86,
            "name": "D6",
            "ticks": 155232,
            "time": 202.125,
            "velocity": 0.3937007874015748
          },
          {
            "duration": 0.0625,
            "durationTicks": 48,
            "midi": 74,
            "name": "D5",
            "ticks": 155232,
            "time": 202.125,
            "velocity": 0.3937007874015748
          },
          {
            "duration": 0.0625,
            "durationTicks": 48,
            "midi": 76,
            "name": "E5",
            "ticks": 155376,
            "time": 202.3125,
            "velocity": 0.3937007874015748
          },
          {
            "duration": 0.0625,
            "durationTicks": 48,
            "midi": 88,
            "name": "E6",
            "ticks": 155376,
            "time": 202.3125,
            "velocity": 0.3937007874015748
          },
          {
            "duration": 0.0625,
            "durationTicks": 48,
            "midi": 86,
            "name": "D6",
            "ticks": 155520,
            "time": 202.5,
            "velocity": 0.3937007874015748
          },
          {
            "duration": 0.0625,
            "durationTicks": 48,
            "midi": 74,
            "name": "D5",
            "ticks": 155520,
            "time": 202.5,
            "velocity": 0.3937007874015748
          },
          {
            "duration": 0.0625,
            "durationTicks": 48,
            "midi": 72,
            "name": "C5",
            "ticks": 155664,
            "time": 202.6875,
            "velocity": 0.3937007874015748
          },
          {
            "duration": 0.0625,
            "durationTicks": 48,
            "midi": 84,
            "name": "C6",
            "ticks": 155664,
            "time": 202.6875,
            "velocity": 0.3937007874015748
          },
          {
            "duration": 0.0625,
            "durationTicks": 48,
            "midi": 71,
            "name": "B4",
            "ticks": 155808,
            "time": 202.875,
            "velocity": 0.3937007874015748
          },
          {
            "duration": 0.0625,
            "durationTicks": 48,
            "midi": 83,
            "name": "B5",
            "ticks": 155808,
            "time": 202.875,
            "velocity": 0.3937007874015748
          },
          {
            "duration": 0.0625,
            "durationTicks": 48,
            "midi": 71,
            "name": "B4",
            "ticks": 156096,
            "time": 203.25,
            "velocity": 0.3937007874015748
          },
          {
            "duration": 0.0625,
            "durationTicks": 48,
            "midi": 83,
            "name": "B5",
            "ticks": 156096,
            "time": 203.25,
            "velocity": 0.3937007874015748
          },
          {
            "duration": 0.0625,
            "durationTicks": 48,
            "midi": 67,
            "name": "G4",
            "ticks": 156240,
            "time": 203.4375,
            "velocity": 0.3937007874015748
          },
          {
            "duration": 0.0625,
            "durationTicks": 48,
            "midi": 79,
            "name": "G5",
            "ticks": 156240,
            "time": 203.4375,
            "velocity": 0.3937007874015748
          },
          {
            "duration": 0.0625,
            "durationTicks": 48,
            "midi": 64,
            "name": "E4",
            "ticks": 156384,
            "time": 203.625,
            "velocity": 0.3937007874015748
          },
          {
            "duration": 0.0625,
            "durationTicks": 48,
            "midi": 76,
            "name": "E5",
            "ticks": 156384,
            "time": 203.625,
            "velocity": 0.3937007874015748
          },
          {
            "duration": 0.0625,
            "durationTicks": 48,
            "midi": 83,
            "name": "B5",
            "ticks": 158976,
            "time": 207,
            "velocity": 0.3937007874015748
          },
          {
            "duration": 0.0625,
            "durationTicks": 48,
            "midi": 71,
            "name": "B4",
            "ticks": 158976,
            "time": 207,
            "velocity": 0.3937007874015748
          },
          {
            "duration": 0.0625,
            "durationTicks": 48,
            "midi": 83,
            "name": "B5",
            "ticks": 158976,
            "time": 207,
            "velocity": 0.3937007874015748
          },
          {
            "duration": 0.0625,
            "durationTicks": 48,
            "midi": 71,
            "name": "B4",
            "ticks": 158976,
            "time": 207,
            "velocity": 0.3937007874015748
          },
          {
            "duration": 0.0625,
            "durationTicks": 48,
            "midi": 72,
            "name": "C5",
            "ticks": 159120,
            "time": 207.1875,
            "velocity": 0.3937007874015748
          },
          {
            "duration": 0.0625,
            "durationTicks": 48,
            "midi": 84,
            "name": "C6",
            "ticks": 159120,
            "time": 207.1875,
            "velocity": 0.3937007874015748
          },
          {
            "duration": 0.0625,
            "durationTicks": 48,
            "midi": 86,
            "name": "D6",
            "ticks": 159264,
            "time": 207.375,
            "velocity": 0.3937007874015748
          },
          {
            "duration": 0.0625,
            "durationTicks": 48,
            "midi": 74,
            "name": "D5",
            "ticks": 159264,
            "time": 207.375,
            "velocity": 0.3937007874015748
          },
          {
            "duration": 0.0625,
            "durationTicks": 48,
            "midi": 76,
            "name": "E5",
            "ticks": 159408,
            "time": 207.5625,
            "velocity": 0.3937007874015748
          },
          {
            "duration": 0.0625,
            "durationTicks": 48,
            "midi": 88,
            "name": "E6",
            "ticks": 159408,
            "time": 207.5625,
            "velocity": 0.3937007874015748
          },
          {
            "duration": 0.0625,
            "durationTicks": 48,
            "midi": 71,
            "name": "B4",
            "ticks": 161280,
            "time": 210,
            "velocity": 0.3937007874015748
          },
          {
            "duration": 0.0625,
            "durationTicks": 48,
            "midi": 83,
            "name": "B5",
            "ticks": 161280,
            "time": 210,
            "velocity": 0.3937007874015748
          },
          {
            "duration": 0.0625,
            "durationTicks": 48,
            "midi": 84,
            "name": "C6",
            "ticks": 161424,
            "time": 210.1875,
            "velocity": 0.3937007874015748
          },
          {
            "duration": 0.0625,
            "durationTicks": 48,
            "midi": 72,
            "name": "C5",
            "ticks": 161424,
            "time": 210.1875,
            "velocity": 0.3937007874015748
          },
          {
            "duration": 0.0625,
            "durationTicks": 48,
            "midi": 74,
            "name": "D5",
            "ticks": 161568,
            "time": 210.375,
            "velocity": 0.3937007874015748
          },
          {
            "duration": 0.0625,
            "durationTicks": 48,
            "midi": 86,
            "name": "D6",
            "ticks": 161568,
            "time": 210.375,
            "velocity": 0.3937007874015748
          },
          {
            "duration": 0.0625,
            "durationTicks": 48,
            "midi": 76,
            "name": "E5",
            "ticks": 161712,
            "time": 210.5625,
            "velocity": 0.3937007874015748
          },
          {
            "duration": 0.0625,
            "durationTicks": 48,
            "midi": 88,
            "name": "E6",
            "ticks": 161712,
            "time": 210.5625,
            "velocity": 0.3937007874015748
          },
          {
            "duration": 0.0625,
            "durationTicks": 48,
            "midi": 74,
            "name": "D5",
            "ticks": 161856,
            "time": 210.75,
            "velocity": 0.3937007874015748
          },
          {
            "duration": 0.0625,
            "durationTicks": 48,
            "midi": 86,
            "name": "D6",
            "ticks": 161856,
            "time": 210.75,
            "velocity": 0.3937007874015748
          },
          {
            "duration": 0.0625,
            "durationTicks": 48,
            "midi": 84,
            "name": "C6",
            "ticks": 162000,
            "time": 210.9375,
            "velocity": 0.3937007874015748
          },
          {
            "duration": 0.0625,
            "durationTicks": 48,
            "midi": 72,
            "name": "C5",
            "ticks": 162000,
            "time": 210.9375,
            "velocity": 0.3937007874015748
          },
          {
            "duration": 0.0625,
            "durationTicks": 48,
            "midi": 83,
            "name": "B5",
            "ticks": 162144,
            "time": 211.125,
            "velocity": 0.3937007874015748
          },
          {
            "duration": 0.0625,
            "durationTicks": 48,
            "midi": 71,
            "name": "B4",
            "ticks": 162144,
            "time": 211.125,
            "velocity": 0.3937007874015748
          },
          {
            "duration": 0.0625,
            "durationTicks": 48,
            "midi": 83,
            "name": "B5",
            "ticks": 162432,
            "time": 211.5,
            "velocity": 0.3937007874015748
          },
          {
            "duration": 0.0625,
            "durationTicks": 48,
            "midi": 71,
            "name": "B4",
            "ticks": 162432,
            "time": 211.5,
            "velocity": 0.3937007874015748
          },
          {
            "duration": 0.0625,
            "durationTicks": 48,
            "midi": 67,
            "name": "G4",
            "ticks": 162576,
            "time": 211.6875,
            "velocity": 0.3937007874015748
          },
          {
            "duration": 0.0625,
            "durationTicks": 48,
            "midi": 79,
            "name": "G5",
            "ticks": 162576,
            "time": 211.6875,
            "velocity": 0.3937007874015748
          },
          {
            "duration": 0.0625,
            "durationTicks": 48,
            "midi": 76,
            "name": "E5",
            "ticks": 162720,
            "time": 211.875,
            "velocity": 0.3937007874015748
          },
          {
            "duration": 0.0625,
            "durationTicks": 48,
            "midi": 64,
            "name": "E4",
            "ticks": 162720,
            "time": 211.875,
            "velocity": 0.3937007874015748
          },
          {
            "duration": 0.0625,
            "durationTicks": 48,
            "midi": 83,
            "name": "B5",
            "ticks": 165312,
            "time": 215.25,
            "velocity": 0.3937007874015748
          },
          {
            "duration": 0.0625,
            "durationTicks": 48,
            "midi": 71,
            "name": "B4",
            "ticks": 165312,
            "time": 215.25,
            "velocity": 0.3937007874015748
          },
          {
            "duration": 0.0625,
            "durationTicks": 48,
            "midi": 83,
            "name": "B5",
            "ticks": 165312,
            "time": 215.25,
            "velocity": 0.3937007874015748
          },
          {
            "duration": 0.0625,
            "durationTicks": 48,
            "midi": 71,
            "name": "B4",
            "ticks": 165312,
            "time": 215.25,
            "velocity": 0.3937007874015748
          },
          {
            "duration": 0.0625,
            "durationTicks": 48,
            "midi": 72,
            "name": "C5",
            "ticks": 165456,
            "time": 215.4375,
            "velocity": 0.3937007874015748
          },
          {
            "duration": 0.0625,
            "durationTicks": 48,
            "midi": 84,
            "name": "C6",
            "ticks": 165456,
            "time": 215.4375,
            "velocity": 0.3937007874015748
          },
          {
            "duration": 0.0625,
            "durationTicks": 48,
            "midi": 86,
            "name": "D6",
            "ticks": 165600,
            "time": 215.625,
            "velocity": 0.3937007874015748
          },
          {
            "duration": 0.0625,
            "durationTicks": 48,
            "midi": 74,
            "name": "D5",
            "ticks": 165600,
            "time": 215.625,
            "velocity": 0.3937007874015748
          },
          {
            "duration": 0.0625,
            "durationTicks": 48,
            "midi": 76,
            "name": "E5",
            "ticks": 165744,
            "time": 215.8125,
            "velocity": 0.3937007874015748
          },
          {
            "duration": 0.0625,
            "durationTicks": 48,
            "midi": 88,
            "name": "E6",
            "ticks": 165744,
            "time": 215.8125,
            "velocity": 0.3937007874015748
          },
          {
            "duration": 0.0625,
            "durationTicks": 48,
            "midi": 83,
            "name": "B5",
            "ticks": 167616,
            "time": 218.25,
            "velocity": 0.3937007874015748
          },
          {
            "duration": 0.0625,
            "durationTicks": 48,
            "midi": 71,
            "name": "B4",
            "ticks": 167616,
            "time": 218.25,
            "velocity": 0.3937007874015748
          },
          {
            "duration": 0.0625,
            "durationTicks": 48,
            "midi": 84,
            "name": "C6",
            "ticks": 167760,
            "time": 218.4375,
            "velocity": 0.3937007874015748
          },
          {
            "duration": 0.0625,
            "durationTicks": 48,
            "midi": 72,
            "name": "C5",
            "ticks": 167760,
            "time": 218.4375,
            "velocity": 0.3937007874015748
          },
          {
            "duration": 0.0625,
            "durationTicks": 48,
            "midi": 86,
            "name": "D6",
            "ticks": 167904,
            "time": 218.625,
            "velocity": 0.3937007874015748
          },
          {
            "duration": 0.0625,
            "durationTicks": 48,
            "midi": 74,
            "name": "D5",
            "ticks": 167904,
            "time": 218.625,
            "velocity": 0.3937007874015748
          },
          {
            "duration": 0.0625,
            "durationTicks": 48,
            "midi": 76,
            "name": "E5",
            "ticks": 168048,
            "time": 218.8125,
            "velocity": 0.3937007874015748
          },
          {
            "duration": 0.0625,
            "durationTicks": 48,
            "midi": 88,
            "name": "E6",
            "ticks": 168048,
            "time": 218.8125,
            "velocity": 0.3937007874015748
          },
          {
            "duration": 0.0625,
            "durationTicks": 48,
            "midi": 86,
            "name": "D6",
            "ticks": 168192,
            "time": 219,
            "velocity": 0.3937007874015748
          },
          {
            "duration": 0.0625,
            "durationTicks": 48,
            "midi": 74,
            "name": "D5",
            "ticks": 168192,
            "time": 219,
            "velocity": 0.3937007874015748
          },
          {
            "duration": 0.0625,
            "durationTicks": 48,
            "midi": 72,
            "name": "C5",
            "ticks": 168336,
            "time": 219.1875,
            "velocity": 0.3937007874015748
          },
          {
            "duration": 0.0625,
            "durationTicks": 48,
            "midi": 84,
            "name": "C6",
            "ticks": 168336,
            "time": 219.1875,
            "velocity": 0.3937007874015748
          },
          {
            "duration": 0.0625,
            "durationTicks": 48,
            "midi": 71,
            "name": "B4",
            "ticks": 168480,
            "time": 219.375,
            "velocity": 0.3937007874015748
          },
          {
            "duration": 0.0625,
            "durationTicks": 48,
            "midi": 83,
            "name": "B5",
            "ticks": 168480,
            "time": 219.375,
            "velocity": 0.3937007874015748
          },
          {
            "duration": 0.0625,
            "durationTicks": 48,
            "midi": 83,
            "name": "B5",
            "ticks": 168768,
            "time": 219.75,
            "velocity": 0.3937007874015748
          },
          {
            "duration": 0.0625,
            "durationTicks": 48,
            "midi": 71,
            "name": "B4",
            "ticks": 168768,
            "time": 219.75,
            "velocity": 0.3937007874015748
          },
          {
            "duration": 0.0625,
            "durationTicks": 48,
            "midi": 79,
            "name": "G5",
            "ticks": 168912,
            "time": 219.9375,
            "velocity": 0.3937007874015748
          },
          {
            "duration": 0.0625,
            "durationTicks": 48,
            "midi": 67,
            "name": "G4",
            "ticks": 168912,
            "time": 219.9375,
            "velocity": 0.3937007874015748
          },
          {
            "duration": 0.0625,
            "durationTicks": 48,
            "midi": 64,
            "name": "E4",
            "ticks": 169056,
            "time": 220.125,
            "velocity": 0.3937007874015748
          },
          {
            "duration": 0.0625,
            "durationTicks": 48,
            "midi": 76,
            "name": "E5",
            "ticks": 169056,
            "time": 220.125,
            "velocity": 0.3937007874015748
          },
          {
            "duration": 0.0625,
            "durationTicks": 48,
            "midi": 83,
            "name": "B5",
            "ticks": 171648,
            "time": 223.5,
            "velocity": 0.3937007874015748
          },
          {
            "duration": 0.0625,
            "durationTicks": 48,
            "midi": 83,
            "name": "B5",
            "ticks": 171648,
            "time": 223.5,
            "velocity": 0.3937007874015748
          },
          {
            "duration": 0.0625,
            "durationTicks": 48,
            "midi": 71,
            "name": "B4",
            "ticks": 171648,
            "time": 223.5,
            "velocity": 0.3937007874015748
          },
          {
            "duration": 0.0625,
            "durationTicks": 48,
            "midi": 71,
            "name": "B4",
            "ticks": 171648,
            "time": 223.5,
            "velocity": 0.3937007874015748
          },
          {
            "duration": 0.0625,
            "durationTicks": 48,
            "midi": 72,
            "name": "C5",
            "ticks": 171792,
            "time": 223.6875,
            "velocity": 0.3937007874015748
          },
          {
            "duration": 0.0625,
            "durationTicks": 48,
            "midi": 84,
            "name": "C6",
            "ticks": 171792,
            "time": 223.6875,
            "velocity": 0.3937007874015748
          },
          {
            "duration": 0.0625,
            "durationTicks": 48,
            "midi": 74,
            "name": "D5",
            "ticks": 171936,
            "time": 223.875,
            "velocity": 0.3937007874015748
          },
          {
            "duration": 0.0625,
            "durationTicks": 48,
            "midi": 86,
            "name": "D6",
            "ticks": 171936,
            "time": 223.875,
            "velocity": 0.3937007874015748
          },
          {
            "duration": 0.0625,
            "durationTicks": 48,
            "midi": 76,
            "name": "E5",
            "ticks": 172080,
            "time": 224.0625,
            "velocity": 0.3937007874015748
          },
          {
            "duration": 0.0625,
            "durationTicks": 48,
            "midi": 88,
            "name": "E6",
            "ticks": 172080,
            "time": 224.0625,
            "velocity": 0.3937007874015748
          },
          {
            "duration": 0.0625,
            "durationTicks": 48,
            "midi": 83,
            "name": "B5",
            "ticks": 173952,
            "time": 226.5,
            "velocity": 0.3937007874015748
          },
          {
            "duration": 0.0625,
            "durationTicks": 48,
            "midi": 71,
            "name": "B4",
            "ticks": 173952,
            "time": 226.5,
            "velocity": 0.3937007874015748
          },
          {
            "duration": 0.0625,
            "durationTicks": 48,
            "midi": 84,
            "name": "C6",
            "ticks": 174096,
            "time": 226.6875,
            "velocity": 0.3937007874015748
          },
          {
            "duration": 0.0625,
            "durationTicks": 48,
            "midi": 72,
            "name": "C5",
            "ticks": 174096,
            "time": 226.6875,
            "velocity": 0.3937007874015748
          },
          {
            "duration": 0.0625,
            "durationTicks": 48,
            "midi": 86,
            "name": "D6",
            "ticks": 174240,
            "time": 226.875,
            "velocity": 0.3937007874015748
          },
          {
            "duration": 0.0625,
            "durationTicks": 48,
            "midi": 74,
            "name": "D5",
            "ticks": 174240,
            "time": 226.875,
            "velocity": 0.3937007874015748
          },
          {
            "duration": 0.0625,
            "durationTicks": 48,
            "midi": 88,
            "name": "E6",
            "ticks": 174384,
            "time": 227.0625,
            "velocity": 0.3937007874015748
          },
          {
            "duration": 0.0625,
            "durationTicks": 48,
            "midi": 76,
            "name": "E5",
            "ticks": 174384,
            "time": 227.0625,
            "velocity": 0.3937007874015748
          },
          {
            "duration": 0.0625,
            "durationTicks": 48,
            "midi": 74,
            "name": "D5",
            "ticks": 174528,
            "time": 227.25,
            "velocity": 0.3937007874015748
          },
          {
            "duration": 0.0625,
            "durationTicks": 48,
            "midi": 86,
            "name": "D6",
            "ticks": 174528,
            "time": 227.25,
            "velocity": 0.3937007874015748
          },
          {
            "duration": 0.0625,
            "durationTicks": 48,
            "midi": 84,
            "name": "C6",
            "ticks": 174672,
            "time": 227.4375,
            "velocity": 0.3937007874015748
          },
          {
            "duration": 0.0625,
            "durationTicks": 48,
            "midi": 72,
            "name": "C5",
            "ticks": 174672,
            "time": 227.4375,
            "velocity": 0.3937007874015748
          },
          {
            "duration": 0.0625,
            "durationTicks": 48,
            "midi": 71,
            "name": "B4",
            "ticks": 174816,
            "time": 227.625,
            "velocity": 0.3937007874015748
          },
          {
            "duration": 0.0625,
            "durationTicks": 48,
            "midi": 83,
            "name": "B5",
            "ticks": 174816,
            "time": 227.625,
            "velocity": 0.3937007874015748
          },
          {
            "duration": 0.0625,
            "durationTicks": 48,
            "midi": 83,
            "name": "B5",
            "ticks": 175104,
            "time": 228,
            "velocity": 0.3937007874015748
          },
          {
            "duration": 0.0625,
            "durationTicks": 48,
            "midi": 71,
            "name": "B4",
            "ticks": 175104,
            "time": 228,
            "velocity": 0.3937007874015748
          },
          {
            "duration": 0.0625,
            "durationTicks": 48,
            "midi": 67,
            "name": "G4",
            "ticks": 175248,
            "time": 228.1875,
            "velocity": 0.3937007874015748
          },
          {
            "duration": 0.0625,
            "durationTicks": 48,
            "midi": 79,
            "name": "G5",
            "ticks": 175248,
            "time": 228.1875,
            "velocity": 0.3937007874015748
          },
          {
            "duration": 0.0625,
            "durationTicks": 48,
            "midi": 76,
            "name": "E5",
            "ticks": 175392,
            "time": 228.375,
            "velocity": 0.3937007874015748
          },
          {
            "duration": 0.0625,
            "durationTicks": 48,
            "midi": 64,
            "name": "E4",
            "ticks": 175392,
            "time": 228.375,
            "velocity": 0.3937007874015748
          }
        ],
        "endOfTrackTicks": 175440
      },
      {
        "channel": 4,
        "controlChanges": {},
        "pitchBends": [],
        "instrument": {
          "family": "synth lead",
          "number": 82,
          "name": "lead 3 (calliope)"
        },
        "name": "8-Bit Sine",
        "notes": [
          {
            "duration": 0.9375,
            "durationTicks": 720,
            "midi": 59,
            "name": "B3",
            "ticks": 25344,
            "time": 33,
            "velocity": 0.3937007874015748
          },
          {
            "duration": 0.9375,
            "durationTicks": 720,
            "midi": 50,
            "name": "D3",
            "ticks": 25344,
            "time": 33,
            "velocity": 0.3937007874015748
          },
          {
            "duration": 0.9375,
            "durationTicks": 720,
            "midi": 55,
            "name": "G3",
            "ticks": 25344,
            "time": 33,
            "velocity": 0.3937007874015748
          },
          {
            "duration": 0.1875,
            "durationTicks": 144,
            "midi": 52,
            "name": "E3",
            "ticks": 26064,
            "time": 33.9375,
            "velocity": 0.3937007874015748
          },
          {
            "duration": 0.1875,
            "durationTicks": 144,
            "midi": 57,
            "name": "A3",
            "ticks": 26064,
            "time": 33.9375,
            "velocity": 0.3937007874015748
          },
          {
            "duration": 0.1875,
            "durationTicks": 144,
            "midi": 48,
            "name": "C3",
            "ticks": 26064,
            "time": 33.9375,
            "velocity": 0.3937007874015748
          },
          {
            "duration": 0.375,
            "durationTicks": 288,
            "midi": 55,
            "name": "G3",
            "ticks": 26208,
            "time": 34.125,
            "velocity": 0.3937007874015748
          },
          {
            "duration": 0.375,
            "durationTicks": 288,
            "midi": 59,
            "name": "B3",
            "ticks": 26208,
            "time": 34.125,
            "velocity": 0.3937007874015748
          },
          {
            "duration": 0.375,
            "durationTicks": 288,
            "midi": 50,
            "name": "D3",
            "ticks": 26208,
            "time": 34.125,
            "velocity": 0.3937007874015748
          },
          {
            "duration": 2.125,
            "durationTicks": 1632,
            "midi": 48,
            "name": "C3",
            "ticks": 26496,
            "time": 34.5,
            "velocity": 0.3937007874015748
          },
          {
            "duration": 2.125,
            "durationTicks": 1632,
            "midi": 52,
            "name": "E3",
            "ticks": 26496,
            "time": 34.5,
            "velocity": 0.3937007874015748
          },
          {
            "duration": 2.125,
            "durationTicks": 1632,
            "midi": 57,
            "name": "A3",
            "ticks": 26496,
            "time": 34.5,
            "velocity": 0.3937007874015748
          },
          {
            "duration": 0.375,
            "durationTicks": 288,
            "midi": 55,
            "name": "G3",
            "ticks": 28800,
            "time": 37.5,
            "velocity": 0.3937007874015748
          },
          {
            "duration": 0.375,
            "durationTicks": 288,
            "midi": 50,
            "name": "D3",
            "ticks": 28800,
            "time": 37.5,
            "velocity": 0.3937007874015748
          },
          {
            "duration": 0.375,
            "durationTicks": 288,
            "midi": 59,
            "name": "B3",
            "ticks": 28800,
            "time": 37.5,
            "velocity": 0.3937007874015748
          },
          {
            "duration": 0.1875,
            "durationTicks": 144,
            "midi": 50,
            "name": "D3",
            "ticks": 29088,
            "time": 37.875,
            "velocity": 0.3937007874015748
          },
          {
            "duration": 0.1875,
            "durationTicks": 144,
            "midi": 54,
            "name": "F#3",
            "ticks": 29088,
            "time": 37.875,
            "velocity": 0.3937007874015748
          },
          {
            "duration": 0.1875,
            "durationTicks": 144,
            "midi": 50,
            "name": "D3",
            "ticks": 29088,
            "time": 37.875,
            "velocity": 0.3937007874015748
          },
          {
            "duration": 0.1875,
            "durationTicks": 144,
            "midi": 57,
            "name": "A3",
            "ticks": 29088,
            "time": 37.875,
            "velocity": 0.3937007874015748
          },
          {
            "duration": 0.1875,
            "durationTicks": 144,
            "midi": 50,
            "name": "D3",
            "ticks": 29232,
            "time": 38.0625,
            "velocity": 0.3937007874015748
          },
          {
            "duration": 0.1875,
            "durationTicks": 144,
            "midi": 55,
            "name": "G3",
            "ticks": 29232,
            "time": 38.0625,
            "velocity": 0.3937007874015748
          },
          {
            "duration": 0.1875,
            "durationTicks": 144,
            "midi": 52,
            "name": "E3",
            "ticks": 29232,
            "time": 38.0625,
            "velocity": 0.3937007874015748
          },
          {
            "duration": 1.75,
            "durationTicks": 1344,
            "midi": 52,
            "name": "E3",
            "ticks": 29376,
            "time": 38.25,
            "velocity": 0.3937007874015748
          },
          {
            "duration": 1.75,
            "durationTicks": 1344,
            "midi": 55,
            "name": "G3",
            "ticks": 29376,
            "time": 38.25,
            "velocity": 0.3937007874015748
          },
          {
            "duration": 1.75,
            "durationTicks": 1344,
            "midi": 52,
            "name": "E3",
            "ticks": 29376,
            "time": 38.25,
            "velocity": 0.3937007874015748
          },
          {
            "duration": 0.1875,
            "durationTicks": 144,
            "midi": 50,
            "name": "D3",
            "ticks": 29376,
            "time": 38.25,
            "velocity": 0.3937007874015748
          },
          {
            "duration": 0.9375,
            "durationTicks": 720,
            "midi": 50,
            "name": "D3",
            "ticks": 31680,
            "time": 41.25,
            "velocity": 0.3937007874015748
          },
          {
            "duration": 0.9375,
            "durationTicks": 720,
            "midi": 59,
            "name": "B3",
            "ticks": 31680,
            "time": 41.25,
            "velocity": 0.3937007874015748
          },
          {
            "duration": 0.9375,
            "durationTicks": 720,
            "midi": 55,
            "name": "G3",
            "ticks": 31680,
            "time": 41.25,
            "velocity": 0.3937007874015748
          },
          {
            "duration": 0.1875,
            "durationTicks": 144,
            "midi": 48,
            "name": "C3",
            "ticks": 32400,
            "time": 42.1875,
            "velocity": 0.3937007874015748
          },
          {
            "duration": 0.1875,
            "durationTicks": 144,
            "midi": 57,
            "name": "A3",
            "ticks": 32400,
            "time": 42.1875,
            "velocity": 0.3937007874015748
          },
          {
            "duration": 0.1875,
            "durationTicks": 144,
            "midi": 52,
            "name": "E3",
            "ticks": 32400,
            "time": 42.1875,
            "velocity": 0.3937007874015748
          },
          {
            "duration": 0.375,
            "durationTicks": 288,
            "midi": 50,
            "name": "D3",
            "ticks": 32544,
            "time": 42.375,
            "velocity": 0.3937007874015748
          },
          {
            "duration": 0.375,
            "durationTicks": 288,
            "midi": 55,
            "name": "G3",
            "ticks": 32544,
            "time": 42.375,
            "velocity": 0.3937007874015748
          },
          {
            "duration": 0.375,
            "durationTicks": 288,
            "midi": 59,
            "name": "B3",
            "ticks": 32544,
            "time": 42.375,
            "velocity": 0.3937007874015748
          },
          {
            "duration": 2.125,
            "durationTicks": 1632,
            "midi": 57,
            "name": "A3",
            "ticks": 32832,
            "time": 42.75,
            "velocity": 0.3937007874015748
          },
          {
            "duration": 2.125,
            "durationTicks": 1632,
            "midi": 52,
            "name": "E3",
            "ticks": 32832,
            "time": 42.75,
            "velocity": 0.3937007874015748
          },
          {
            "duration": 2.125,
            "durationTicks": 1632,
            "midi": 48,
            "name": "C3",
            "ticks": 32832,
            "time": 42.75,
            "velocity": 0.3937007874015748
          },
          {
            "duration": 0.375,
            "durationTicks": 288,
            "midi": 55,
            "name": "G3",
            "ticks": 35136,
            "time": 45.75,
            "velocity": 0.3937007874015748
          },
          {
            "duration": 0.375,
            "durationTicks": 288,
            "midi": 59,
            "name": "B3",
            "ticks": 35136,
            "time": 45.75,
            "velocity": 0.3937007874015748
          },
          {
            "duration": 0.375,
            "durationTicks": 288,
            "midi": 50,
            "name": "D3",
            "ticks": 35136,
            "time": 45.75,
            "velocity": 0.3937007874015748
          },
          {
            "duration": 0.1875,
            "durationTicks": 144,
            "midi": 57,
            "name": "A3",
            "ticks": 35424,
            "time": 46.125,
            "velocity": 0.3937007874015748
          },
          {
            "duration": 0.1875,
            "durationTicks": 144,
            "midi": 54,
            "name": "F#3",
            "ticks": 35424,
            "time": 46.125,
            "velocity": 0.3937007874015748
          },
          {
            "duration": 0.1875,
            "durationTicks": 144,
            "midi": 50,
            "name": "D3",
            "ticks": 35424,
            "time": 46.125,
            "velocity": 0.3937007874015748
          },
          {
            "duration": 0.1875,
            "durationTicks": 144,
            "midi": 55,
            "name": "G3",
            "ticks": 35568,
            "time": 46.3125,
            "velocity": 0.3937007874015748
          },
          {
            "duration": 0.1875,
            "durationTicks": 144,
            "midi": 50,
            "name": "D3",
            "ticks": 35568,
            "time": 46.3125,
            "velocity": 0.3937007874015748
          },
          {
            "duration": 0.1875,
            "durationTicks": 144,
            "midi": 52,
            "name": "E3",
            "ticks": 35568,
            "time": 46.3125,
            "velocity": 0.3937007874015748
          },
          {
            "duration": 1.75,
            "durationTicks": 1344,
            "midi": 52,
            "name": "E3",
            "ticks": 35712,
            "time": 46.5,
            "velocity": 0.3937007874015748
          },
          {
            "duration": 1.75,
            "durationTicks": 1344,
            "midi": 52,
            "name": "E3",
            "ticks": 35712,
            "time": 46.5,
            "velocity": 0.3937007874015748
          },
          {
            "duration": 0.1875,
            "durationTicks": 144,
            "midi": 50,
            "name": "D3",
            "ticks": 35712,
            "time": 46.5,
            "velocity": 0.3937007874015748
          },
          {
            "duration": 1.75,
            "durationTicks": 1344,
            "midi": 55,
            "name": "G3",
            "ticks": 35712,
            "time": 46.5,
            "velocity": 0.3937007874015748
          },
          {
            "duration": 0.9375,
            "durationTicks": 720,
            "midi": 59,
            "name": "B3",
            "ticks": 38016,
            "time": 49.5,
            "velocity": 0.3937007874015748
          },
          {
            "duration": 0.9375,
            "durationTicks": 720,
            "midi": 55,
            "name": "G3",
            "ticks": 38016,
            "time": 49.5,
            "velocity": 0.3937007874015748
          },
          {
            "duration": 0.9375,
            "durationTicks": 720,
            "midi": 50,
            "name": "D3",
            "ticks": 38016,
            "time": 49.5,
            "velocity": 0.3937007874015748
          },
          {
            "duration": 0.1875,
            "durationTicks": 144,
            "midi": 57,
            "name": "A3",
            "ticks": 38736,
            "time": 50.4375,
            "velocity": 0.3937007874015748
          },
          {
            "duration": 0.1875,
            "durationTicks": 144,
            "midi": 48,
            "name": "C3",
            "ticks": 38736,
            "time": 50.4375,
            "velocity": 0.3937007874015748
          },
          {
            "duration": 0.1875,
            "durationTicks": 144,
            "midi": 52,
            "name": "E3",
            "ticks": 38736,
            "time": 50.4375,
            "velocity": 0.3937007874015748
          },
          {
            "duration": 0.375,
            "durationTicks": 288,
            "midi": 50,
            "name": "D3",
            "ticks": 38880,
            "time": 50.625,
            "velocity": 0.3937007874015748
          },
          {
            "duration": 0.375,
            "durationTicks": 288,
            "midi": 55,
            "name": "G3",
            "ticks": 38880,
            "time": 50.625,
            "velocity": 0.3937007874015748
          },
          {
            "duration": 0.375,
            "durationTicks": 288,
            "midi": 59,
            "name": "B3",
            "ticks": 38880,
            "time": 50.625,
            "velocity": 0.3937007874015748
          },
          {
            "duration": 2.125,
            "durationTicks": 1632,
            "midi": 52,
            "name": "E3",
            "ticks": 39168,
            "time": 51,
            "velocity": 0.3937007874015748
          },
          {
            "duration": 2.125,
            "durationTicks": 1632,
            "midi": 57,
            "name": "A3",
            "ticks": 39168,
            "time": 51,
            "velocity": 0.3937007874015748
          },
          {
            "duration": 2.125,
            "durationTicks": 1632,
            "midi": 48,
            "name": "C3",
            "ticks": 39168,
            "time": 51,
            "velocity": 0.3937007874015748
          },
          {
            "duration": 0.375,
            "durationTicks": 288,
            "midi": 55,
            "name": "G3",
            "ticks": 41472,
            "time": 54,
            "velocity": 0.3937007874015748
          },
          {
            "duration": 0.375,
            "durationTicks": 288,
            "midi": 59,
            "name": "B3",
            "ticks": 41472,
            "time": 54,
            "velocity": 0.3937007874015748
          },
          {
            "duration": 0.375,
            "durationTicks": 288,
            "midi": 50,
            "name": "D3",
            "ticks": 41472,
            "time": 54,
            "velocity": 0.3937007874015748
          },
          {
            "duration": 0.1875,
            "durationTicks": 144,
            "midi": 54,
            "name": "F#3",
            "ticks": 41760,
            "time": 54.375,
            "velocity": 0.3937007874015748
          },
          {
            "duration": 0.1875,
            "durationTicks": 144,
            "midi": 50,
            "name": "D3",
            "ticks": 41760,
            "time": 54.375,
            "velocity": 0.3937007874015748
          },
          {
            "duration": 0.1875,
            "durationTicks": 144,
            "midi": 57,
            "name": "A3",
            "ticks": 41760,
            "time": 54.375,
            "velocity": 0.3937007874015748
          },
          {
            "duration": 0.1875,
            "durationTicks": 144,
            "midi": 50,
            "name": "D3",
            "ticks": 41760,
            "time": 54.375,
            "velocity": 0.3937007874015748
          },
          {
            "duration": 0.1875,
            "durationTicks": 144,
            "midi": 55,
            "name": "G3",
            "ticks": 41904,
            "time": 54.5625,
            "velocity": 0.3937007874015748
          },
          {
            "duration": 0.1875,
            "durationTicks": 144,
            "midi": 50,
            "name": "D3",
            "ticks": 41904,
            "time": 54.5625,
            "velocity": 0.3937007874015748
          },
          {
            "duration": 0.1875,
            "durationTicks": 144,
            "midi": 52,
            "name": "E3",
            "ticks": 41904,
            "time": 54.5625,
            "velocity": 0.3937007874015748
          },
          {
            "duration": 0.1875,
            "durationTicks": 144,
            "midi": 50,
            "name": "D3",
            "ticks": 42048,
            "time": 54.75,
            "velocity": 0.3937007874015748
          },
          {
            "duration": 1.75,
            "durationTicks": 1344,
            "midi": 52,
            "name": "E3",
            "ticks": 42048,
            "time": 54.75,
            "velocity": 0.3937007874015748
          },
          {
            "duration": 1.75,
            "durationTicks": 1344,
            "midi": 55,
            "name": "G3",
            "ticks": 42048,
            "time": 54.75,
            "velocity": 0.3937007874015748
          },
          {
            "duration": 1.75,
            "durationTicks": 1344,
            "midi": 52,
            "name": "E3",
            "ticks": 42048,
            "time": 54.75,
            "velocity": 0.3937007874015748
          },
          {
            "duration": 0.9375,
            "durationTicks": 720,
            "midi": 55,
            "name": "G3",
            "ticks": 44352,
            "time": 57.75,
            "velocity": 0.3937007874015748
          },
          {
            "duration": 0.9375,
            "durationTicks": 720,
            "midi": 59,
            "name": "B3",
            "ticks": 44352,
            "time": 57.75,
            "velocity": 0.3937007874015748
          },
          {
            "duration": 0.9375,
            "durationTicks": 720,
            "midi": 50,
            "name": "D3",
            "ticks": 44352,
            "time": 57.75,
            "velocity": 0.3937007874015748
          },
          {
            "duration": 0.1875,
            "durationTicks": 144,
            "midi": 52,
            "name": "E3",
            "ticks": 45072,
            "time": 58.6875,
            "velocity": 0.3937007874015748
          },
          {
            "duration": 0.1875,
            "durationTicks": 144,
            "midi": 48,
            "name": "C3",
            "ticks": 45072,
            "time": 58.6875,
            "velocity": 0.3937007874015748
          },
          {
            "duration": 0.1875,
            "durationTicks": 144,
            "midi": 57,
            "name": "A3",
            "ticks": 45072,
            "time": 58.6875,
            "velocity": 0.3937007874015748
          },
          {
            "duration": 0.375,
            "durationTicks": 288,
            "midi": 55,
            "name": "G3",
            "ticks": 45216,
            "time": 58.875,
            "velocity": 0.3937007874015748
          },
          {
            "duration": 0.375,
            "durationTicks": 288,
            "midi": 50,
            "name": "D3",
            "ticks": 45216,
            "time": 58.875,
            "velocity": 0.3937007874015748
          },
          {
            "duration": 0.375,
            "durationTicks": 288,
            "midi": 59,
            "name": "B3",
            "ticks": 45216,
            "time": 58.875,
            "velocity": 0.3937007874015748
          },
          {
            "duration": 2.125,
            "durationTicks": 1632,
            "midi": 57,
            "name": "A3",
            "ticks": 45504,
            "time": 59.25,
            "velocity": 0.3937007874015748
          },
          {
            "duration": 2.125,
            "durationTicks": 1632,
            "midi": 48,
            "name": "C3",
            "ticks": 45504,
            "time": 59.25,
            "velocity": 0.3937007874015748
          },
          {
            "duration": 2.125,
            "durationTicks": 1632,
            "midi": 52,
            "name": "E3",
            "ticks": 45504,
            "time": 59.25,
            "velocity": 0.3937007874015748
          },
          {
            "duration": 0.375,
            "durationTicks": 288,
            "midi": 50,
            "name": "D3",
            "ticks": 47808,
            "time": 62.25,
            "velocity": 0.3937007874015748
          },
          {
            "duration": 0.375,
            "durationTicks": 288,
            "midi": 59,
            "name": "B3",
            "ticks": 47808,
            "time": 62.25,
            "velocity": 0.3937007874015748
          },
          {
            "duration": 0.375,
            "durationTicks": 288,
            "midi": 55,
            "name": "G3",
            "ticks": 47808,
            "time": 62.25,
            "velocity": 0.3937007874015748
          },
          {
            "duration": 0.1875,
            "durationTicks": 144,
            "midi": 57,
            "name": "A3",
            "ticks": 48096,
            "time": 62.625,
            "velocity": 0.3937007874015748
          },
          {
            "duration": 0.1875,
            "durationTicks": 144,
            "midi": 50,
            "name": "D3",
            "ticks": 48096,
            "time": 62.625,
            "velocity": 0.3937007874015748
          },
          {
            "duration": 0.1875,
            "durationTicks": 144,
            "midi": 54,
            "name": "F#3",
            "ticks": 48096,
            "time": 62.625,
            "velocity": 0.3937007874015748
          },
          {
            "duration": 0.1875,
            "durationTicks": 144,
            "midi": 52,
            "name": "E3",
            "ticks": 48240,
            "time": 62.8125,
            "velocity": 0.3937007874015748
          },
          {
            "duration": 0.1875,
            "durationTicks": 144,
            "midi": 55,
            "name": "G3",
            "ticks": 48240,
            "time": 62.8125,
            "velocity": 0.3937007874015748
          },
          {
            "duration": 0.1875,
            "durationTicks": 144,
            "midi": 50,
            "name": "D3",
            "ticks": 48240,
            "time": 62.8125,
            "velocity": 0.3937007874015748
          },
          {
            "duration": 1.75,
            "durationTicks": 1344,
            "midi": 52,
            "name": "E3",
            "ticks": 48384,
            "time": 63,
            "velocity": 0.3937007874015748
          },
          {
            "duration": 1.75,
            "durationTicks": 1344,
            "midi": 52,
            "name": "E3",
            "ticks": 48384,
            "time": 63,
            "velocity": 0.3937007874015748
          },
          {
            "duration": 1.75,
            "durationTicks": 1344,
            "midi": 55,
            "name": "G3",
            "ticks": 48384,
            "time": 63,
            "velocity": 0.3937007874015748
          },
          {
            "duration": 0.1875,
            "durationTicks": 144,
            "midi": 50,
            "name": "D3",
            "ticks": 48384,
            "time": 63,
            "velocity": 0.3937007874015748
          },
          {
            "duration": 0.375,
            "durationTicks": 288,
            "midi": 55,
            "name": "G3",
            "ticks": 64368,
            "time": 83.8125,
            "velocity": 0.3937007874015748
          },
          {
            "duration": 0.1875,
            "durationTicks": 144,
            "midi": 54,
            "name": "F#3",
            "ticks": 64656,
            "time": 84.1875,
            "velocity": 0.3937007874015748
          },
          {
            "duration": 0.1875,
            "durationTicks": 144,
            "midi": 52,
            "name": "E3",
            "ticks": 64800,
            "time": 84.375,
            "velocity": 0.3937007874015748
          },
          {
            "duration": 0.1875,
            "durationTicks": 144,
            "midi": 54,
            "name": "F#3",
            "ticks": 64944,
            "time": 84.5625,
            "velocity": 0.3937007874015748
          },
          {
            "duration": 0.375,
            "durationTicks": 288,
            "midi": 52,
            "name": "E3",
            "ticks": 65088,
            "time": 84.75,
            "velocity": 0.3937007874015748
          },
          {
            "duration": 0.1875,
            "durationTicks": 144,
            "midi": 50,
            "name": "D3",
            "ticks": 65376,
            "time": 85.125,
            "velocity": 0.3937007874015748
          },
          {
            "duration": 0.375,
            "durationTicks": 288,
            "midi": 47,
            "name": "B2",
            "ticks": 68544,
            "time": 89.25,
            "velocity": 0.3937007874015748
          },
          {
            "duration": 0.375,
            "durationTicks": 288,
            "midi": 50,
            "name": "D3",
            "ticks": 68832,
            "time": 89.625,
            "velocity": 0.3937007874015748
          },
          {
            "duration": 0.375,
            "durationTicks": 288,
            "midi": 52,
            "name": "E3",
            "ticks": 69120,
            "time": 90,
            "velocity": 0.3937007874015748
          },
          {
            "duration": 0.1875,
            "durationTicks": 144,
            "midi": 54,
            "name": "F#3",
            "ticks": 69408,
            "time": 90.375,
            "velocity": 0.3937007874015748
          },
          {
            "duration": 0.1875,
            "durationTicks": 144,
            "midi": 50,
            "name": "D3",
            "ticks": 69552,
            "time": 90.5625,
            "velocity": 0.3937007874015748
          },
          {
            "duration": 0.9375,
            "durationTicks": 720,
            "midi": 50,
            "name": "D3",
            "ticks": 76032,
            "time": 99,
            "velocity": 0.3937007874015748
          },
          {
            "duration": 0.9375,
            "durationTicks": 720,
            "midi": 59,
            "name": "B3",
            "ticks": 76032,
            "time": 99,
            "velocity": 0.3937007874015748
          },
          {
            "duration": 0.9375,
            "durationTicks": 720,
            "midi": 55,
            "name": "G3",
            "ticks": 76032,
            "time": 99,
            "velocity": 0.3937007874015748
          },
          {
            "duration": 0.1875,
            "durationTicks": 144,
            "midi": 57,
            "name": "A3",
            "ticks": 76752,
            "time": 99.9375,
            "velocity": 0.3937007874015748
          },
          {
            "duration": 0.1875,
            "durationTicks": 144,
            "midi": 52,
            "name": "E3",
            "ticks": 76752,
            "time": 99.9375,
            "velocity": 0.3937007874015748
          },
          {
            "duration": 0.1875,
            "durationTicks": 144,
            "midi": 48,
            "name": "C3",
            "ticks": 76752,
            "time": 99.9375,
            "velocity": 0.3937007874015748
          },
          {
            "duration": 0.375,
            "durationTicks": 288,
            "midi": 55,
            "name": "G3",
            "ticks": 76896,
            "time": 100.125,
            "velocity": 0.3937007874015748
          },
          {
            "duration": 0.375,
            "durationTicks": 288,
            "midi": 50,
            "name": "D3",
            "ticks": 76896,
            "time": 100.125,
            "velocity": 0.3937007874015748
          },
          {
            "duration": 0.375,
            "durationTicks": 288,
            "midi": 59,
            "name": "B3",
            "ticks": 76896,
            "time": 100.125,
            "velocity": 0.3937007874015748
          },
          {
            "duration": 2.125,
            "durationTicks": 1632,
            "midi": 57,
            "name": "A3",
            "ticks": 77184,
            "time": 100.5,
            "velocity": 0.3937007874015748
          },
          {
            "duration": 2.125,
            "durationTicks": 1632,
            "midi": 48,
            "name": "C3",
            "ticks": 77184,
            "time": 100.5,
            "velocity": 0.3937007874015748
          },
          {
            "duration": 2.125,
            "durationTicks": 1632,
            "midi": 52,
            "name": "E3",
            "ticks": 77184,
            "time": 100.5,
            "velocity": 0.3937007874015748
          },
          {
            "duration": 0.375,
            "durationTicks": 288,
            "midi": 55,
            "name": "G3",
            "ticks": 79488,
            "time": 103.5,
            "velocity": 0.3937007874015748
          },
          {
            "duration": 0.375,
            "durationTicks": 288,
            "midi": 59,
            "name": "B3",
            "ticks": 79488,
            "time": 103.5,
            "velocity": 0.3937007874015748
          },
          {
            "duration": 0.375,
            "durationTicks": 288,
            "midi": 50,
            "name": "D3",
            "ticks": 79488,
            "time": 103.5,
            "velocity": 0.3937007874015748
          },
          {
            "duration": 0.1875,
            "durationTicks": 144,
            "midi": 57,
            "name": "A3",
            "ticks": 79776,
            "time": 103.875,
            "velocity": 0.3937007874015748
          },
          {
            "duration": 0.1875,
            "durationTicks": 144,
            "midi": 50,
            "name": "D3",
            "ticks": 79776,
            "time": 103.875,
            "velocity": 0.3937007874015748
          },
          {
            "duration": 0.1875,
            "durationTicks": 144,
            "midi": 54,
            "name": "F#3",
            "ticks": 79776,
            "time": 103.875,
            "velocity": 0.3937007874015748
          },
          {
            "duration": 0.1875,
            "durationTicks": 144,
            "midi": 50,
            "name": "D3",
            "ticks": 79776,
            "time": 103.875,
            "velocity": 0.3937007874015748
          },
          {
            "duration": 0.1875,
            "durationTicks": 144,
            "midi": 52,
            "name": "E3",
            "ticks": 79920,
            "time": 104.0625,
            "velocity": 0.3937007874015748
          },
          {
            "duration": 0.1875,
            "durationTicks": 144,
            "midi": 50,
            "name": "D3",
            "ticks": 79920,
            "time": 104.0625,
            "velocity": 0.3937007874015748
          },
          {
            "duration": 0.1875,
            "durationTicks": 144,
            "midi": 55,
            "name": "G3",
            "ticks": 79920,
            "time": 104.0625,
            "velocity": 0.3937007874015748
          },
          {
            "duration": 1.75,
            "durationTicks": 1344,
            "midi": 55,
            "name": "G3",
            "ticks": 80064,
            "time": 104.25,
            "velocity": 0.3937007874015748
          },
          {
            "duration": 0.1875,
            "durationTicks": 144,
            "midi": 50,
            "name": "D3",
            "ticks": 80064,
            "time": 104.25,
            "velocity": 0.3937007874015748
          },
          {
            "duration": 1.75,
            "durationTicks": 1344,
            "midi": 52,
            "name": "E3",
            "ticks": 80064,
            "time": 104.25,
            "velocity": 0.3937007874015748
          },
          {
            "duration": 1.75,
            "durationTicks": 1344,
            "midi": 52,
            "name": "E3",
            "ticks": 80064,
            "time": 104.25,
            "velocity": 0.3937007874015748
          },
          {
            "duration": 0.9375,
            "durationTicks": 720,
            "midi": 50,
            "name": "D3",
            "ticks": 82368,
            "time": 107.25,
            "velocity": 0.3937007874015748
          },
          {
            "duration": 0.9375,
            "durationTicks": 720,
            "midi": 59,
            "name": "B3",
            "ticks": 82368,
            "time": 107.25,
            "velocity": 0.3937007874015748
          },
          {
            "duration": 0.9375,
            "durationTicks": 720,
            "midi": 55,
            "name": "G3",
            "ticks": 82368,
            "time": 107.25,
            "velocity": 0.3937007874015748
          },
          {
            "duration": 0.1875,
            "durationTicks": 144,
            "midi": 57,
            "name": "A3",
            "ticks": 83088,
            "time": 108.1875,
            "velocity": 0.3937007874015748
          },
          {
            "duration": 0.1875,
            "durationTicks": 144,
            "midi": 52,
            "name": "E3",
            "ticks": 83088,
            "time": 108.1875,
            "velocity": 0.3937007874015748
          },
          {
            "duration": 0.1875,
            "durationTicks": 144,
            "midi": 48,
            "name": "C3",
            "ticks": 83088,
            "time": 108.1875,
            "velocity": 0.3937007874015748
          },
          {
            "duration": 0.375,
            "durationTicks": 288,
            "midi": 55,
            "name": "G3",
            "ticks": 83232,
            "time": 108.375,
            "velocity": 0.3937007874015748
          },
          {
            "duration": 0.375,
            "durationTicks": 288,
            "midi": 50,
            "name": "D3",
            "ticks": 83232,
            "time": 108.375,
            "velocity": 0.3937007874015748
          },
          {
            "duration": 0.375,
            "durationTicks": 288,
            "midi": 59,
            "name": "B3",
            "ticks": 83232,
            "time": 108.375,
            "velocity": 0.3937007874015748
          },
          {
            "duration": 2.125,
            "durationTicks": 1632,
            "midi": 48,
            "name": "C3",
            "ticks": 83520,
            "time": 108.75,
            "velocity": 0.3937007874015748
          },
          {
            "duration": 2.125,
            "durationTicks": 1632,
            "midi": 57,
            "name": "A3",
            "ticks": 83520,
            "time": 108.75,
            "velocity": 0.3937007874015748
          },
          {
            "duration": 2.125,
            "durationTicks": 1632,
            "midi": 52,
            "name": "E3",
            "ticks": 83520,
            "time": 108.75,
            "velocity": 0.3937007874015748
          },
          {
            "duration": 0.375,
            "durationTicks": 288,
            "midi": 50,
            "name": "D3",
            "ticks": 85824,
            "time": 111.75,
            "velocity": 0.3937007874015748
          },
          {
            "duration": 0.375,
            "durationTicks": 288,
            "midi": 59,
            "name": "B3",
            "ticks": 85824,
            "time": 111.75,
            "velocity": 0.3937007874015748
          },
          {
            "duration": 0.375,
            "durationTicks": 288,
            "midi": 55,
            "name": "G3",
            "ticks": 85824,
            "time": 111.75,
            "velocity": 0.3937007874015748
          },
          {
            "duration": 0.1875,
            "durationTicks": 144,
            "midi": 57,
            "name": "A3",
            "ticks": 86112,
            "time": 112.125,
            "velocity": 0.3937007874015748
          },
          {
            "duration": 0.1875,
            "durationTicks": 144,
            "midi": 54,
            "name": "F#3",
            "ticks": 86112,
            "time": 112.125,
            "velocity": 0.3937007874015748
          },
          {
            "duration": 0.1875,
            "durationTicks": 144,
            "midi": 50,
            "name": "D3",
            "ticks": 86112,
            "time": 112.125,
            "velocity": 0.3937007874015748
          },
          {
            "duration": 0.1875,
            "durationTicks": 144,
            "midi": 50,
            "name": "D3",
            "ticks": 86256,
            "time": 112.3125,
            "velocity": 0.3937007874015748
          },
          {
            "duration": 0.1875,
            "durationTicks": 144,
            "midi": 55,
            "name": "G3",
            "ticks": 86256,
            "time": 112.3125,
            "velocity": 0.3937007874015748
          },
          {
            "duration": 0.1875,
            "durationTicks": 144,
            "midi": 52,
            "name": "E3",
            "ticks": 86256,
            "time": 112.3125,
            "velocity": 0.3937007874015748
          },
          {
            "duration": 1.75,
            "durationTicks": 1344,
            "midi": 52,
            "name": "E3",
            "ticks": 86400,
            "time": 112.5,
            "velocity": 0.3937007874015748
          },
          {
            "duration": 1.75,
            "durationTicks": 1344,
            "midi": 52,
            "name": "E3",
            "ticks": 86400,
            "time": 112.5,
            "velocity": 0.3937007874015748
          },
          {
            "duration": 0.1875,
            "durationTicks": 144,
            "midi": 50,
            "name": "D3",
            "ticks": 86400,
            "time": 112.5,
            "velocity": 0.3937007874015748
          },
          {
            "duration": 1.75,
            "durationTicks": 1344,
            "midi": 55,
            "name": "G3",
            "ticks": 86400,
            "time": 112.5,
            "velocity": 0.3937007874015748
          },
          {
            "duration": 0.9375,
            "durationTicks": 720,
            "midi": 59,
            "name": "B3",
            "ticks": 88704,
            "time": 115.5,
            "velocity": 0.3937007874015748
          },
          {
            "duration": 0.9375,
            "durationTicks": 720,
            "midi": 55,
            "name": "G3",
            "ticks": 88704,
            "time": 115.5,
            "velocity": 0.3937007874015748
          },
          {
            "duration": 0.9375,
            "durationTicks": 720,
            "midi": 50,
            "name": "D3",
            "ticks": 88704,
            "time": 115.5,
            "velocity": 0.3937007874015748
          },
          {
            "duration": 0.1875,
            "durationTicks": 144,
            "midi": 52,
            "name": "E3",
            "ticks": 89424,
            "time": 116.4375,
            "velocity": 0.3937007874015748
          },
          {
            "duration": 0.1875,
            "durationTicks": 144,
            "midi": 48,
            "name": "C3",
            "ticks": 89424,
            "time": 116.4375,
            "velocity": 0.3937007874015748
          },
          {
            "duration": 0.1875,
            "durationTicks": 144,
            "midi": 57,
            "name": "A3",
            "ticks": 89424,
            "time": 116.4375,
            "velocity": 0.3937007874015748
          },
          {
            "duration": 0.375,
            "durationTicks": 288,
            "midi": 59,
            "name": "B3",
            "ticks": 89568,
            "time": 116.625,
            "velocity": 0.3937007874015748
          },
          {
            "duration": 0.375,
            "durationTicks": 288,
            "midi": 55,
            "name": "G3",
            "ticks": 89568,
            "time": 116.625,
            "velocity": 0.3937007874015748
          },
          {
            "duration": 0.375,
            "durationTicks": 288,
            "midi": 50,
            "name": "D3",
            "ticks": 89568,
            "time": 116.625,
            "velocity": 0.3937007874015748
          },
          {
            "duration": 2.125,
            "durationTicks": 1632,
            "midi": 48,
            "name": "C3",
            "ticks": 89856,
            "time": 117,
            "velocity": 0.3937007874015748
          },
          {
            "duration": 2.125,
            "durationTicks": 1632,
            "midi": 57,
            "name": "A3",
            "ticks": 89856,
            "time": 117,
            "velocity": 0.3937007874015748
          },
          {
            "duration": 2.125,
            "durationTicks": 1632,
            "midi": 52,
            "name": "E3",
            "ticks": 89856,
            "time": 117,
            "velocity": 0.3937007874015748
          },
          {
            "duration": 0.375,
            "durationTicks": 288,
            "midi": 55,
            "name": "G3",
            "ticks": 92160,
            "time": 120,
            "velocity": 0.3937007874015748
          },
          {
            "duration": 0.375,
            "durationTicks": 288,
            "midi": 50,
            "name": "D3",
            "ticks": 92160,
            "time": 120,
            "velocity": 0.3937007874015748
          },
          {
            "duration": 0.375,
            "durationTicks": 288,
            "midi": 59,
            "name": "B3",
            "ticks": 92160,
            "time": 120,
            "velocity": 0.3937007874015748
          },
          {
            "duration": 0.1875,
            "durationTicks": 144,
            "midi": 50,
            "name": "D3",
            "ticks": 92448,
            "time": 120.375,
            "velocity": 0.3937007874015748
          },
          {
            "duration": 0.1875,
            "durationTicks": 144,
            "midi": 57,
            "name": "A3",
            "ticks": 92448,
            "time": 120.375,
            "velocity": 0.3937007874015748
          },
          {
            "duration": 0.1875,
            "durationTicks": 144,
            "midi": 50,
            "name": "D3",
            "ticks": 92448,
            "time": 120.375,
            "velocity": 0.3937007874015748
          },
          {
            "duration": 0.1875,
            "durationTicks": 144,
            "midi": 54,
            "name": "F#3",
            "ticks": 92448,
            "time": 120.375,
            "velocity": 0.3937007874015748
          },
          {
            "duration": 0.1875,
            "durationTicks": 144,
            "midi": 50,
            "name": "D3",
            "ticks": 92592,
            "time": 120.5625,
            "velocity": 0.3937007874015748
          },
          {
            "duration": 0.1875,
            "durationTicks": 144,
            "midi": 52,
            "name": "E3",
            "ticks": 92592,
            "time": 120.5625,
            "velocity": 0.3937007874015748
          },
          {
            "duration": 0.1875,
            "durationTicks": 144,
            "midi": 55,
            "name": "G3",
            "ticks": 92592,
            "time": 120.5625,
            "velocity": 0.3937007874015748
          },
          {
            "duration": 1.75,
            "durationTicks": 1344,
            "midi": 55,
            "name": "G3",
            "ticks": 92736,
            "time": 120.75,
            "velocity": 0.3937007874015748
          },
          {
            "duration": 1.75,
            "durationTicks": 1344,
            "midi": 52,
            "name": "E3",
            "ticks": 92736,
            "time": 120.75,
            "velocity": 0.3937007874015748
          },
          {
            "duration": 1.75,
            "durationTicks": 1344,
            "midi": 52,
            "name": "E3",
            "ticks": 92736,
            "time": 120.75,
            "velocity": 0.3937007874015748
          },
          {
            "duration": 0.1875,
            "durationTicks": 144,
            "midi": 50,
            "name": "D3",
            "ticks": 92736,
            "time": 120.75,
            "velocity": 0.3937007874015748
          },
          {
            "duration": 0.9375,
            "durationTicks": 720,
            "midi": 50,
            "name": "D3",
            "ticks": 95040,
            "time": 123.75,
            "velocity": 0.3937007874015748
          },
          {
            "duration": 0.9375,
            "durationTicks": 720,
            "midi": 55,
            "name": "G3",
            "ticks": 95040,
            "time": 123.75,
            "velocity": 0.3937007874015748
          },
          {
            "duration": 0.9375,
            "durationTicks": 720,
            "midi": 59,
            "name": "B3",
            "ticks": 95040,
            "time": 123.75,
            "velocity": 0.3937007874015748
          },
          {
            "duration": 0.1875,
            "durationTicks": 144,
            "midi": 52,
            "name": "E3",
            "ticks": 95760,
            "time": 124.6875,
            "velocity": 0.3937007874015748
          },
          {
            "duration": 0.1875,
            "durationTicks": 144,
            "midi": 48,
            "name": "C3",
            "ticks": 95760,
            "time": 124.6875,
            "velocity": 0.3937007874015748
          },
          {
            "duration": 0.1875,
            "durationTicks": 144,
            "midi": 57,
            "name": "A3",
            "ticks": 95760,
            "time": 124.6875,
            "velocity": 0.3937007874015748
          },
          {
            "duration": 0.375,
            "durationTicks": 288,
            "midi": 55,
            "name": "G3",
            "ticks": 95904,
            "time": 124.875,
            "velocity": 0.3937007874015748
          },
          {
            "duration": 0.375,
            "durationTicks": 288,
            "midi": 59,
            "name": "B3",
            "ticks": 95904,
            "time": 124.875,
            "velocity": 0.3937007874015748
          },
          {
            "duration": 0.375,
            "durationTicks": 288,
            "midi": 50,
            "name": "D3",
            "ticks": 95904,
            "time": 124.875,
            "velocity": 0.3937007874015748
          },
          {
            "duration": 2.125,
            "durationTicks": 1632,
            "midi": 48,
            "name": "C3",
            "ticks": 96192,
            "time": 125.25,
            "velocity": 0.3937007874015748
          },
          {
            "duration": 2.125,
            "durationTicks": 1632,
            "midi": 57,
            "name": "A3",
            "ticks": 96192,
            "time": 125.25,
            "velocity": 0.3937007874015748
          },
          {
            "duration": 2.125,
            "durationTicks": 1632,
            "midi": 52,
            "name": "E3",
            "ticks": 96192,
            "time": 125.25,
            "velocity": 0.3937007874015748
          },
          {
            "duration": 0.375,
            "durationTicks": 288,
            "midi": 59,
            "name": "B3",
            "ticks": 98496,
            "time": 128.25,
            "velocity": 0.3937007874015748
          },
          {
            "duration": 0.375,
            "durationTicks": 288,
            "midi": 50,
            "name": "D3",
            "ticks": 98496,
            "time": 128.25,
            "velocity": 0.3937007874015748
          },
          {
            "duration": 0.375,
            "durationTicks": 288,
            "midi": 55,
            "name": "G3",
            "ticks": 98496,
            "time": 128.25,
            "velocity": 0.3937007874015748
          },
          {
            "duration": 0.1875,
            "durationTicks": 144,
            "midi": 54,
            "name": "F#3",
            "ticks": 98784,
            "time": 128.625,
            "velocity": 0.3937007874015748
          },
          {
            "duration": 0.1875,
            "durationTicks": 144,
            "midi": 50,
            "name": "D3",
            "ticks": 98784,
            "time": 128.625,
            "velocity": 0.3937007874015748
          },
          {
            "duration": 0.1875,
            "durationTicks": 144,
            "midi": 57,
            "name": "A3",
            "ticks": 98784,
            "time": 128.625,
            "velocity": 0.3937007874015748
          },
          {
            "duration": 0.1875,
            "durationTicks": 144,
            "midi": 52,
            "name": "E3",
            "ticks": 98928,
            "time": 128.8125,
            "velocity": 0.3937007874015748
          },
          {
            "duration": 0.1875,
            "durationTicks": 144,
            "midi": 55,
            "name": "G3",
            "ticks": 98928,
            "time": 128.8125,
            "velocity": 0.3937007874015748
          },
          {
            "duration": 0.1875,
            "durationTicks": 144,
            "midi": 50,
            "name": "D3",
            "ticks": 98928,
            "time": 128.8125,
            "velocity": 0.3937007874015748
          },
          {
            "duration": 1.75,
            "durationTicks": 1344,
            "midi": 52,
            "name": "E3",
            "ticks": 99072,
            "time": 129,
            "velocity": 0.3937007874015748
          },
          {
            "duration": 1.75,
            "durationTicks": 1344,
            "midi": 55,
            "name": "G3",
            "ticks": 99072,
            "time": 129,
            "velocity": 0.3937007874015748
          },
          {
            "duration": 1.75,
            "durationTicks": 1344,
            "midi": 52,
            "name": "E3",
            "ticks": 99072,
            "time": 129,
            "velocity": 0.3937007874015748
          },
          {
            "duration": 0.1875,
            "durationTicks": 144,
            "midi": 50,
            "name": "D3",
            "ticks": 99072,
            "time": 129,
            "velocity": 0.3937007874015748
          },
          {
            "duration": 0.0625,
            "durationTicks": 48,
            "midi": 45,
            "name": "A2",
            "ticks": 126720,
            "time": 165,
            "velocity": 0.3937007874015748
          },
          {
            "duration": 0.0625,
            "durationTicks": 48,
            "midi": 50,
            "name": "D3",
            "ticks": 126720,
            "time": 165,
            "velocity": 0.3937007874015748
          },
          {
            "duration": 0.0625,
            "durationTicks": 48,
            "midi": 52,
            "name": "E3",
            "ticks": 126864,
            "time": 165.1875,
            "velocity": 0.3937007874015748
          },
          {
            "duration": 0.0625,
            "durationTicks": 48,
            "midi": 47,
            "name": "B2",
            "ticks": 126864,
            "time": 165.1875,
            "velocity": 0.3937007874015748
          },
          {
            "duration": 0.0625,
            "durationTicks": 48,
            "midi": 47,
            "name": "B2",
            "ticks": 127152,
            "time": 165.5625,
            "velocity": 0.3937007874015748
          },
          {
            "duration": 0.0625,
            "durationTicks": 48,
            "midi": 52,
            "name": "E3",
            "ticks": 127152,
            "time": 165.5625,
            "velocity": 0.3937007874015748
          },
          {
            "duration": 0.0625,
            "durationTicks": 48,
            "midi": 50,
            "name": "D3",
            "ticks": 127440,
            "time": 165.9375,
            "velocity": 0.3937007874015748
          },
          {
            "duration": 0.0625,
            "durationTicks": 48,
            "midi": 45,
            "name": "A2",
            "ticks": 127440,
            "time": 165.9375,
            "velocity": 0.3937007874015748
          },
          {
            "duration": 0.0625,
            "durationTicks": 48,
            "midi": 52,
            "name": "E3",
            "ticks": 127584,
            "time": 166.125,
            "velocity": 0.3937007874015748
          },
          {
            "duration": 0.0625,
            "durationTicks": 48,
            "midi": 47,
            "name": "B2",
            "ticks": 127584,
            "time": 166.125,
            "velocity": 0.3937007874015748
          },
          {
            "duration": 0.0625,
            "durationTicks": 48,
            "midi": 45,
            "name": "A2",
            "ticks": 127872,
            "time": 166.5,
            "velocity": 0.3937007874015748
          },
          {
            "duration": 0.0625,
            "durationTicks": 48,
            "midi": 50,
            "name": "D3",
            "ticks": 127872,
            "time": 166.5,
            "velocity": 0.3937007874015748
          },
          {
            "duration": 0.0625,
            "durationTicks": 48,
            "midi": 47,
            "name": "B2",
            "ticks": 128016,
            "time": 166.6875,
            "velocity": 0.3937007874015748
          },
          {
            "duration": 0.0625,
            "durationTicks": 48,
            "midi": 52,
            "name": "E3",
            "ticks": 128016,
            "time": 166.6875,
            "velocity": 0.3937007874015748
          },
          {
            "duration": 0.0625,
            "durationTicks": 48,
            "midi": 52,
            "name": "E3",
            "ticks": 128304,
            "time": 167.0625,
            "velocity": 0.3937007874015748
          },
          {
            "duration": 0.0625,
            "durationTicks": 48,
            "midi": 47,
            "name": "B2",
            "ticks": 128304,
            "time": 167.0625,
            "velocity": 0.3937007874015748
          },
          {
            "duration": 0.0625,
            "durationTicks": 48,
            "midi": 45,
            "name": "A2",
            "ticks": 128592,
            "time": 167.4375,
            "velocity": 0.3937007874015748
          },
          {
            "duration": 0.0625,
            "durationTicks": 48,
            "midi": 50,
            "name": "D3",
            "ticks": 128592,
            "time": 167.4375,
            "velocity": 0.3937007874015748
          },
          {
            "duration": 0.0625,
            "durationTicks": 48,
            "midi": 52,
            "name": "E3",
            "ticks": 128736,
            "time": 167.625,
            "velocity": 0.3937007874015748
          },
          {
            "duration": 0.0625,
            "durationTicks": 48,
            "midi": 47,
            "name": "B2",
            "ticks": 128736,
            "time": 167.625,
            "velocity": 0.3937007874015748
          },
          {
            "duration": 0.0625,
            "durationTicks": 48,
            "midi": 50,
            "name": "D3",
            "ticks": 129024,
            "time": 168,
            "velocity": 0.3937007874015748
          },
          {
            "duration": 0.0625,
            "durationTicks": 48,
            "midi": 45,
            "name": "A2",
            "ticks": 129024,
            "time": 168,
            "velocity": 0.3937007874015748
          },
          {
            "duration": 0.0625,
            "durationTicks": 48,
            "midi": 52,
            "name": "E3",
            "ticks": 129168,
            "time": 168.1875,
            "velocity": 0.3937007874015748
          },
          {
            "duration": 0.0625,
            "durationTicks": 48,
            "midi": 47,
            "name": "B2",
            "ticks": 129168,
            "time": 168.1875,
            "velocity": 0.3937007874015748
          },
          {
            "duration": 0.0625,
            "durationTicks": 48,
            "midi": 52,
            "name": "E3",
            "ticks": 129456,
            "time": 168.5625,
            "velocity": 0.3937007874015748
          },
          {
            "duration": 0.0625,
            "durationTicks": 48,
            "midi": 47,
            "name": "B2",
            "ticks": 129456,
            "time": 168.5625,
            "velocity": 0.3937007874015748
          },
          {
            "duration": 0.0625,
            "durationTicks": 48,
            "midi": 45,
            "name": "A2",
            "ticks": 129744,
            "time": 168.9375,
            "velocity": 0.3937007874015748
          },
          {
            "duration": 0.0625,
            "durationTicks": 48,
            "midi": 50,
            "name": "D3",
            "ticks": 129744,
            "time": 168.9375,
            "velocity": 0.3937007874015748
          },
          {
            "duration": 0.0625,
            "durationTicks": 48,
            "midi": 47,
            "name": "B2",
            "ticks": 129888,
            "time": 169.125,
            "velocity": 0.3937007874015748
          },
          {
            "duration": 0.0625,
            "durationTicks": 48,
            "midi": 52,
            "name": "E3",
            "ticks": 129888,
            "time": 169.125,
            "velocity": 0.3937007874015748
          },
          {
            "duration": 0.0625,
            "durationTicks": 48,
            "midi": 50,
            "name": "D3",
            "ticks": 130176,
            "time": 169.5,
            "velocity": 0.3937007874015748
          },
          {
            "duration": 0.0625,
            "durationTicks": 48,
            "midi": 45,
            "name": "A2",
            "ticks": 130176,
            "time": 169.5,
            "velocity": 0.3937007874015748
          },
          {
            "duration": 0.0625,
            "durationTicks": 48,
            "midi": 47,
            "name": "B2",
            "ticks": 130320,
            "time": 169.6875,
            "velocity": 0.3937007874015748
          },
          {
            "duration": 0.0625,
            "durationTicks": 48,
            "midi": 52,
            "name": "E3",
            "ticks": 130320,
            "time": 169.6875,
            "velocity": 0.3937007874015748
          },
          {
            "duration": 0.0625,
            "durationTicks": 48,
            "midi": 45,
            "name": "A2",
            "ticks": 130752,
            "time": 170.25,
            "velocity": 0.3937007874015748
          },
          {
            "duration": 0.0625,
            "durationTicks": 48,
            "midi": 50,
            "name": "D3",
            "ticks": 130752,
            "time": 170.25,
            "velocity": 0.3937007874015748
          },
          {
            "duration": 0.0625,
            "durationTicks": 48,
            "midi": 52,
            "name": "E3",
            "ticks": 130896,
            "time": 170.4375,
            "velocity": 0.3937007874015748
          },
          {
            "duration": 0.0625,
            "durationTicks": 48,
            "midi": 47,
            "name": "B2",
            "ticks": 130896,
            "time": 170.4375,
            "velocity": 0.3937007874015748
          },
          {
            "duration": 0.0625,
            "durationTicks": 48,
            "midi": 52,
            "name": "E3",
            "ticks": 131184,
            "time": 170.8125,
            "velocity": 0.3937007874015748
          },
          {
            "duration": 0.0625,
            "durationTicks": 48,
            "midi": 47,
            "name": "B2",
            "ticks": 131184,
            "time": 170.8125,
            "velocity": 0.3937007874015748
          },
          {
            "duration": 0.0625,
            "durationTicks": 48,
            "midi": 50,
            "name": "D3",
            "ticks": 131472,
            "time": 171.1875,
            "velocity": 0.3937007874015748
          },
          {
            "duration": 0.0625,
            "durationTicks": 48,
            "midi": 45,
            "name": "A2",
            "ticks": 131472,
            "time": 171.1875,
            "velocity": 0.3937007874015748
          },
          {
            "duration": 0.0625,
            "durationTicks": 48,
            "midi": 52,
            "name": "E3",
            "ticks": 131616,
            "time": 171.375,
            "velocity": 0.3937007874015748
          },
          {
            "duration": 0.0625,
            "durationTicks": 48,
            "midi": 47,
            "name": "B2",
            "ticks": 131616,
            "time": 171.375,
            "velocity": 0.3937007874015748
          },
          {
            "duration": 0.0625,
            "durationTicks": 48,
            "midi": 52,
            "name": "E3",
            "ticks": 131904,
            "time": 171.75,
            "velocity": 0.3937007874015748
          },
          {
            "duration": 0.0625,
            "durationTicks": 48,
            "midi": 47,
            "name": "B2",
            "ticks": 131904,
            "time": 171.75,
            "velocity": 0.3937007874015748
          },
          {
            "duration": 0.0625,
            "durationTicks": 48,
            "midi": 47,
            "name": "B2",
            "ticks": 132048,
            "time": 171.9375,
            "velocity": 0.3937007874015748
          },
          {
            "duration": 0.0625,
            "durationTicks": 48,
            "midi": 52,
            "name": "E3",
            "ticks": 132048,
            "time": 171.9375,
            "velocity": 0.3937007874015748
          },
          {
            "duration": 0.0625,
            "durationTicks": 48,
            "midi": 52,
            "name": "E3",
            "ticks": 132192,
            "time": 172.125,
            "velocity": 0.3937007874015748
          },
          {
            "duration": 0.0625,
            "durationTicks": 48,
            "midi": 47,
            "name": "B2",
            "ticks": 132192,
            "time": 172.125,
            "velocity": 0.3937007874015748
          },
          {
            "duration": 0.0625,
            "durationTicks": 48,
            "midi": 47,
            "name": "B2",
            "ticks": 132336,
            "time": 172.3125,
            "velocity": 0.3937007874015748
          },
          {
            "duration": 0.0625,
            "durationTicks": 48,
            "midi": 52,
            "name": "E3",
            "ticks": 132336,
            "time": 172.3125,
            "velocity": 0.3937007874015748
          },
          {
            "duration": 0.0625,
            "durationTicks": 48,
            "midi": 52,
            "name": "E3",
            "ticks": 132480,
            "time": 172.5,
            "velocity": 0.3937007874015748
          },
          {
            "duration": 0.0625,
            "durationTicks": 48,
            "midi": 47,
            "name": "B2",
            "ticks": 132480,
            "time": 172.5,
            "velocity": 0.3937007874015748
          },
          {
            "duration": 0.0625,
            "durationTicks": 48,
            "midi": 47,
            "name": "B2",
            "ticks": 132624,
            "time": 172.6875,
            "velocity": 0.3937007874015748
          },
          {
            "duration": 0.0625,
            "durationTicks": 48,
            "midi": 52,
            "name": "E3",
            "ticks": 132624,
            "time": 172.6875,
            "velocity": 0.3937007874015748
          },
          {
            "duration": 0.0625,
            "durationTicks": 48,
            "midi": 47,
            "name": "B2",
            "ticks": 132768,
            "time": 172.875,
            "velocity": 0.3937007874015748
          },
          {
            "duration": 0.0625,
            "durationTicks": 48,
            "midi": 52,
            "name": "E3",
            "ticks": 132768,
            "time": 172.875,
            "velocity": 0.3937007874015748
          },
          {
            "duration": 0.0625,
            "durationTicks": 48,
            "midi": 47,
            "name": "B2",
            "ticks": 133056,
            "time": 173.25,
            "velocity": 0.3937007874015748
          },
          {
            "duration": 0.0625,
            "durationTicks": 48,
            "midi": 52,
            "name": "E3",
            "ticks": 133056,
            "time": 173.25,
            "velocity": 0.3937007874015748
          },
          {
            "duration": 0.0625,
            "durationTicks": 48,
            "midi": 50,
            "name": "D3",
            "ticks": 133344,
            "time": 173.625,
            "velocity": 0.3937007874015748
          },
          {
            "duration": 0.0625,
            "durationTicks": 48,
            "midi": 43,
            "name": "G2",
            "ticks": 133344,
            "time": 173.625,
            "velocity": 0.3937007874015748
          },
          {
            "duration": 0.0625,
            "durationTicks": 48,
            "midi": 50,
            "name": "D3",
            "ticks": 133776,
            "time": 174.1875,
            "velocity": 0.3937007874015748
          },
          {
            "duration": 0.0625,
            "durationTicks": 48,
            "midi": 45,
            "name": "A2",
            "ticks": 133776,
            "time": 174.1875,
            "velocity": 0.3937007874015748
          },
          {
            "duration": 0.0625,
            "durationTicks": 48,
            "midi": 47,
            "name": "B2",
            "ticks": 133920,
            "time": 174.375,
            "velocity": 0.3937007874015748
          },
          {
            "duration": 0.0625,
            "durationTicks": 48,
            "midi": 52,
            "name": "E3",
            "ticks": 133920,
            "time": 174.375,
            "velocity": 0.3937007874015748
          },
          {
            "duration": 0.0625,
            "durationTicks": 48,
            "midi": 50,
            "name": "D3",
            "ticks": 134208,
            "time": 174.75,
            "velocity": 0.3937007874015748
          },
          {
            "duration": 0.0625,
            "durationTicks": 48,
            "midi": 45,
            "name": "A2",
            "ticks": 134208,
            "time": 174.75,
            "velocity": 0.3937007874015748
          },
          {
            "duration": 0.0625,
            "durationTicks": 48,
            "midi": 47,
            "name": "B2",
            "ticks": 134352,
            "time": 174.9375,
            "velocity": 0.3937007874015748
          },
          {
            "duration": 0.0625,
            "durationTicks": 48,
            "midi": 52,
            "name": "E3",
            "ticks": 134352,
            "time": 174.9375,
            "velocity": 0.3937007874015748
          },
          {
            "duration": 0.0625,
            "durationTicks": 48,
            "midi": 52,
            "name": "E3",
            "ticks": 134640,
            "time": 175.3125,
            "velocity": 0.3937007874015748
          },
          {
            "duration": 0.0625,
            "durationTicks": 48,
            "midi": 47,
            "name": "B2",
            "ticks": 134640,
            "time": 175.3125,
            "velocity": 0.3937007874015748
          },
          {
            "duration": 0.0625,
            "durationTicks": 48,
            "midi": 45,
            "name": "A2",
            "ticks": 134928,
            "time": 175.6875,
            "velocity": 0.3937007874015748
          },
          {
            "duration": 0.0625,
            "durationTicks": 48,
            "midi": 50,
            "name": "D3",
            "ticks": 134928,
            "time": 175.6875,
            "velocity": 0.3937007874015748
          },
          {
            "duration": 0.0625,
            "durationTicks": 48,
            "midi": 52,
            "name": "E3",
            "ticks": 135072,
            "time": 175.875,
            "velocity": 0.3937007874015748
          },
          {
            "duration": 0.0625,
            "durationTicks": 48,
            "midi": 47,
            "name": "B2",
            "ticks": 135072,
            "time": 175.875,
            "velocity": 0.3937007874015748
          },
          {
            "duration": 0.0625,
            "durationTicks": 48,
            "midi": 50,
            "name": "D3",
            "ticks": 135360,
            "time": 176.25,
            "velocity": 0.3937007874015748
          },
          {
            "duration": 0.0625,
            "durationTicks": 48,
            "midi": 45,
            "name": "A2",
            "ticks": 135360,
            "time": 176.25,
            "velocity": 0.3937007874015748
          },
          {
            "duration": 0.0625,
            "durationTicks": 48,
            "midi": 47,
            "name": "B2",
            "ticks": 135504,
            "time": 176.4375,
            "velocity": 0.3937007874015748
          },
          {
            "duration": 0.0625,
            "durationTicks": 48,
            "midi": 52,
            "name": "E3",
            "ticks": 135504,
            "time": 176.4375,
            "velocity": 0.3937007874015748
          },
          {
            "duration": 0.0625,
            "durationTicks": 48,
            "midi": 52,
            "name": "E3",
            "ticks": 135792,
            "time": 176.8125,
            "velocity": 0.3937007874015748
          },
          {
            "duration": 0.0625,
            "durationTicks": 48,
            "midi": 47,
            "name": "B2",
            "ticks": 135792,
            "time": 176.8125,
            "velocity": 0.3937007874015748
          },
          {
            "duration": 0.0625,
            "durationTicks": 48,
            "midi": 50,
            "name": "D3",
            "ticks": 136080,
            "time": 177.1875,
            "velocity": 0.3937007874015748
          },
          {
            "duration": 0.0625,
            "durationTicks": 48,
            "midi": 45,
            "name": "A2",
            "ticks": 136080,
            "time": 177.1875,
            "velocity": 0.3937007874015748
          },
          {
            "duration": 0.0625,
            "durationTicks": 48,
            "midi": 52,
            "name": "E3",
            "ticks": 136224,
            "time": 177.375,
            "velocity": 0.3937007874015748
          },
          {
            "duration": 0.0625,
            "durationTicks": 48,
            "midi": 47,
            "name": "B2",
            "ticks": 136224,
            "time": 177.375,
            "velocity": 0.3937007874015748
          },
          {
            "duration": 0.0625,
            "durationTicks": 48,
            "midi": 50,
            "name": "D3",
            "ticks": 136512,
            "time": 177.75,
            "velocity": 0.3937007874015748
          },
          {
            "duration": 0.0625,
            "durationTicks": 48,
            "midi": 45,
            "name": "A2",
            "ticks": 136512,
            "time": 177.75,
            "velocity": 0.3937007874015748
          },
          {
            "duration": 0.0625,
            "durationTicks": 48,
            "midi": 47,
            "name": "B2",
            "ticks": 136656,
            "time": 177.9375,
            "velocity": 0.3937007874015748
          },
          {
            "duration": 0.0625,
            "durationTicks": 48,
            "midi": 52,
            "name": "E3",
            "ticks": 136656,
            "time": 177.9375,
            "velocity": 0.3937007874015748
          },
          {
            "duration": 0.0625,
            "durationTicks": 48,
            "midi": 50,
            "name": "D3",
            "ticks": 137088,
            "time": 178.5,
            "velocity": 0.3937007874015748
          },
          {
            "duration": 0.0625,
            "durationTicks": 48,
            "midi": 45,
            "name": "A2",
            "ticks": 137088,
            "time": 178.5,
            "velocity": 0.3937007874015748
          },
          {
            "duration": 0.0625,
            "durationTicks": 48,
            "midi": 47,
            "name": "B2",
            "ticks": 137232,
            "time": 178.6875,
            "velocity": 0.3937007874015748
          },
          {
            "duration": 0.0625,
            "durationTicks": 48,
            "midi": 52,
            "name": "E3",
            "ticks": 137232,
            "time": 178.6875,
            "velocity": 0.3937007874015748
          },
          {
            "duration": 0.0625,
            "durationTicks": 48,
            "midi": 52,
            "name": "E3",
            "ticks": 137520,
            "time": 179.0625,
            "velocity": 0.3937007874015748
          },
          {
            "duration": 0.0625,
            "durationTicks": 48,
            "midi": 47,
            "name": "B2",
            "ticks": 137520,
            "time": 179.0625,
            "velocity": 0.3937007874015748
          },
          {
            "duration": 0.0625,
            "durationTicks": 48,
            "midi": 50,
            "name": "D3",
            "ticks": 137808,
            "time": 179.4375,
            "velocity": 0.3937007874015748
          },
          {
            "duration": 0.0625,
            "durationTicks": 48,
            "midi": 45,
            "name": "A2",
            "ticks": 137808,
            "time": 179.4375,
            "velocity": 0.3937007874015748
          },
          {
            "duration": 0.0625,
            "durationTicks": 48,
            "midi": 47,
            "name": "B2",
            "ticks": 137952,
            "time": 179.625,
            "velocity": 0.3937007874015748
          },
          {
            "duration": 0.0625,
            "durationTicks": 48,
            "midi": 52,
            "name": "E3",
            "ticks": 137952,
            "time": 179.625,
            "velocity": 0.3937007874015748
          },
          {
            "duration": 0.0625,
            "durationTicks": 48,
            "midi": 52,
            "name": "E3",
            "ticks": 138240,
            "time": 180,
            "velocity": 0.3937007874015748
          },
          {
            "duration": 0.0625,
            "durationTicks": 48,
            "midi": 47,
            "name": "B2",
            "ticks": 138240,
            "time": 180,
            "velocity": 0.3937007874015748
          },
          {
            "duration": 0.0625,
            "durationTicks": 48,
            "midi": 52,
            "name": "E3",
            "ticks": 138384,
            "time": 180.1875,
            "velocity": 0.3937007874015748
          },
          {
            "duration": 0.0625,
            "durationTicks": 48,
            "midi": 47,
            "name": "B2",
            "ticks": 138384,
            "time": 180.1875,
            "velocity": 0.3937007874015748
          },
          {
            "duration": 0.0625,
            "durationTicks": 48,
            "midi": 47,
            "name": "B2",
            "ticks": 138528,
            "time": 180.375,
            "velocity": 0.3937007874015748
          },
          {
            "duration": 0.0625,
            "durationTicks": 48,
            "midi": 52,
            "name": "E3",
            "ticks": 138528,
            "time": 180.375,
            "velocity": 0.3937007874015748
          },
          {
            "duration": 0.0625,
            "durationTicks": 48,
            "midi": 52,
            "name": "E3",
            "ticks": 138672,
            "time": 180.5625,
            "velocity": 0.3937007874015748
          },
          {
            "duration": 0.0625,
            "durationTicks": 48,
            "midi": 47,
            "name": "B2",
            "ticks": 138672,
            "time": 180.5625,
            "velocity": 0.3937007874015748
          },
          {
            "duration": 0.0625,
            "durationTicks": 48,
            "midi": 52,
            "name": "E3",
            "ticks": 138816,
            "time": 180.75,
            "velocity": 0.3937007874015748
          },
          {
            "duration": 0.0625,
            "durationTicks": 48,
            "midi": 47,
            "name": "B2",
            "ticks": 138816,
            "time": 180.75,
            "velocity": 0.3937007874015748
          },
          {
            "duration": 0.0625,
            "durationTicks": 48,
            "midi": 52,
            "name": "E3",
            "ticks": 138960,
            "time": 180.9375,
            "velocity": 0.3937007874015748
          },
          {
            "duration": 0.0625,
            "durationTicks": 48,
            "midi": 47,
            "name": "B2",
            "ticks": 138960,
            "time": 180.9375,
            "velocity": 0.3937007874015748
          },
          {
            "duration": 0.0625,
            "durationTicks": 48,
            "midi": 47,
            "name": "B2",
            "ticks": 139104,
            "time": 181.125,
            "velocity": 0.3937007874015748
          },
          {
            "duration": 0.0625,
            "durationTicks": 48,
            "midi": 52,
            "name": "E3",
            "ticks": 139104,
            "time": 181.125,
            "velocity": 0.3937007874015748
          },
          {
            "duration": 0.0625,
            "durationTicks": 48,
            "midi": 52,
            "name": "E3",
            "ticks": 139392,
            "time": 181.5,
            "velocity": 0.3937007874015748
          },
          {
            "duration": 0.0625,
            "durationTicks": 48,
            "midi": 47,
            "name": "B2",
            "ticks": 139392,
            "time": 181.5,
            "velocity": 0.3937007874015748
          },
          {
            "duration": 0.0625,
            "durationTicks": 48,
            "midi": 43,
            "name": "G2",
            "ticks": 139680,
            "time": 181.875,
            "velocity": 0.3937007874015748
          },
          {
            "duration": 0.0625,
            "durationTicks": 48,
            "midi": 50,
            "name": "D3",
            "ticks": 139680,
            "time": 181.875,
            "velocity": 0.3937007874015748
          },
          {
            "duration": 0.0625,
            "durationTicks": 48,
            "midi": 50,
            "name": "D3",
            "ticks": 140112,
            "time": 182.4375,
            "velocity": 0.3937007874015748
          },
          {
            "duration": 0.0625,
            "durationTicks": 48,
            "midi": 45,
            "name": "A2",
            "ticks": 140112,
            "time": 182.4375,
            "velocity": 0.3937007874015748
          },
          {
            "duration": 0.0625,
            "durationTicks": 48,
            "midi": 52,
            "name": "E3",
            "ticks": 140256,
            "time": 182.625,
            "velocity": 0.3937007874015748
          },
          {
            "duration": 0.0625,
            "durationTicks": 48,
            "midi": 47,
            "name": "B2",
            "ticks": 140256,
            "time": 182.625,
            "velocity": 0.3937007874015748
          },
          {
            "duration": 0.0625,
            "durationTicks": 48,
            "midi": 45,
            "name": "A2",
            "ticks": 140544,
            "time": 183,
            "velocity": 0.3937007874015748
          },
          {
            "duration": 0.0625,
            "durationTicks": 48,
            "midi": 50,
            "name": "D3",
            "ticks": 140544,
            "time": 183,
            "velocity": 0.3937007874015748
          },
          {
            "duration": 0.0625,
            "durationTicks": 48,
            "midi": 52,
            "name": "E3",
            "ticks": 140688,
            "time": 183.1875,
            "velocity": 0.3937007874015748
          },
          {
            "duration": 0.0625,
            "durationTicks": 48,
            "midi": 47,
            "name": "B2",
            "ticks": 140688,
            "time": 183.1875,
            "velocity": 0.3937007874015748
          },
          {
            "duration": 0.0625,
            "durationTicks": 48,
            "midi": 47,
            "name": "B2",
            "ticks": 140976,
            "time": 183.5625,
            "velocity": 0.3937007874015748
          },
          {
            "duration": 0.0625,
            "durationTicks": 48,
            "midi": 52,
            "name": "E3",
            "ticks": 140976,
            "time": 183.5625,
            "velocity": 0.3937007874015748
          },
          {
            "duration": 0.0625,
            "durationTicks": 48,
            "midi": 45,
            "name": "A2",
            "ticks": 141264,
            "time": 183.9375,
            "velocity": 0.3937007874015748
          },
          {
            "duration": 0.0625,
            "durationTicks": 48,
            "midi": 50,
            "name": "D3",
            "ticks": 141264,
            "time": 183.9375,
            "velocity": 0.3937007874015748
          },
          {
            "duration": 0.0625,
            "durationTicks": 48,
            "midi": 52,
            "name": "E3",
            "ticks": 141408,
            "time": 184.125,
            "velocity": 0.3937007874015748
          },
          {
            "duration": 0.0625,
            "durationTicks": 48,
            "midi": 47,
            "name": "B2",
            "ticks": 141408,
            "time": 184.125,
            "velocity": 0.3937007874015748
          },
          {
            "duration": 0.0625,
            "durationTicks": 48,
            "midi": 45,
            "name": "A2",
            "ticks": 141696,
            "time": 184.5,
            "velocity": 0.3937007874015748
          },
          {
            "duration": 0.0625,
            "durationTicks": 48,
            "midi": 50,
            "name": "D3",
            "ticks": 141696,
            "time": 184.5,
            "velocity": 0.3937007874015748
          },
          {
            "duration": 0.0625,
            "durationTicks": 48,
            "midi": 47,
            "name": "B2",
            "ticks": 141840,
            "time": 184.6875,
            "velocity": 0.3937007874015748
          },
          {
            "duration": 0.0625,
            "durationTicks": 48,
            "midi": 52,
            "name": "E3",
            "ticks": 141840,
            "time": 184.6875,
            "velocity": 0.3937007874015748
          },
          {
            "duration": 0.0625,
            "durationTicks": 48,
            "midi": 47,
            "name": "B2",
            "ticks": 142128,
            "time": 185.0625,
            "velocity": 0.3937007874015748
          },
          {
            "duration": 0.0625,
            "durationTicks": 48,
            "midi": 52,
            "name": "E3",
            "ticks": 142128,
            "time": 185.0625,
            "velocity": 0.3937007874015748
          },
          {
            "duration": 0.0625,
            "durationTicks": 48,
            "midi": 45,
            "name": "A2",
            "ticks": 142416,
            "time": 185.4375,
            "velocity": 0.3937007874015748
          },
          {
            "duration": 0.0625,
            "durationTicks": 48,
            "midi": 50,
            "name": "D3",
            "ticks": 142416,
            "time": 185.4375,
            "velocity": 0.3937007874015748
          },
          {
            "duration": 0.0625,
            "durationTicks": 48,
            "midi": 52,
            "name": "E3",
            "ticks": 142560,
            "time": 185.625,
            "velocity": 0.3937007874015748
          },
          {
            "duration": 0.0625,
            "durationTicks": 48,
            "midi": 47,
            "name": "B2",
            "ticks": 142560,
            "time": 185.625,
            "velocity": 0.3937007874015748
          },
          {
            "duration": 0.0625,
            "durationTicks": 48,
            "midi": 50,
            "name": "D3",
            "ticks": 142848,
            "time": 186,
            "velocity": 0.3937007874015748
          },
          {
            "duration": 0.0625,
            "durationTicks": 48,
            "midi": 45,
            "name": "A2",
            "ticks": 142848,
            "time": 186,
            "velocity": 0.3937007874015748
          },
          {
            "duration": 0.0625,
            "durationTicks": 48,
            "midi": 47,
            "name": "B2",
            "ticks": 142992,
            "time": 186.1875,
            "velocity": 0.3937007874015748
          },
          {
            "duration": 0.0625,
            "durationTicks": 48,
            "midi": 52,
            "name": "E3",
            "ticks": 142992,
            "time": 186.1875,
            "velocity": 0.3937007874015748
          },
          {
            "duration": 0.0625,
            "durationTicks": 48,
            "midi": 45,
            "name": "A2",
            "ticks": 143424,
            "time": 186.75,
            "velocity": 0.3937007874015748
          },
          {
            "duration": 0.0625,
            "durationTicks": 48,
            "midi": 50,
            "name": "D3",
            "ticks": 143424,
            "time": 186.75,
            "velocity": 0.3937007874015748
          },
          {
            "duration": 0.0625,
            "durationTicks": 48,
            "midi": 52,
            "name": "E3",
            "ticks": 143568,
            "time": 186.9375,
            "velocity": 0.3937007874015748
          },
          {
            "duration": 0.0625,
            "durationTicks": 48,
            "midi": 47,
            "name": "B2",
            "ticks": 143568,
            "time": 186.9375,
            "velocity": 0.3937007874015748
          },
          {
            "duration": 0.0625,
            "durationTicks": 48,
            "midi": 47,
            "name": "B2",
            "ticks": 143856,
            "time": 187.3125,
            "velocity": 0.3937007874015748
          },
          {
            "duration": 0.0625,
            "durationTicks": 48,
            "midi": 52,
            "name": "E3",
            "ticks": 143856,
            "time": 187.3125,
            "velocity": 0.3937007874015748
          },
          {
            "duration": 0.0625,
            "durationTicks": 48,
            "midi": 45,
            "name": "A2",
            "ticks": 144144,
            "time": 187.6875,
            "velocity": 0.3937007874015748
          },
          {
            "duration": 0.0625,
            "durationTicks": 48,
            "midi": 50,
            "name": "D3",
            "ticks": 144144,
            "time": 187.6875,
            "velocity": 0.3937007874015748
          },
          {
            "duration": 0.0625,
            "durationTicks": 48,
            "midi": 52,
            "name": "E3",
            "ticks": 144288,
            "time": 187.875,
            "velocity": 0.3937007874015748
          },
          {
            "duration": 0.0625,
            "durationTicks": 48,
            "midi": 47,
            "name": "B2",
            "ticks": 144288,
            "time": 187.875,
            "velocity": 0.3937007874015748
          },
          {
            "duration": 0.0625,
            "durationTicks": 48,
            "midi": 47,
            "name": "B2",
            "ticks": 144576,
            "time": 188.25,
            "velocity": 0.3937007874015748
          },
          {
            "duration": 0.0625,
            "durationTicks": 48,
            "midi": 52,
            "name": "E3",
            "ticks": 144576,
            "time": 188.25,
            "velocity": 0.3937007874015748
          },
          {
            "duration": 0.0625,
            "durationTicks": 48,
            "midi": 47,
            "name": "B2",
            "ticks": 144720,
            "time": 188.4375,
            "velocity": 0.3937007874015748
          },
          {
            "duration": 0.0625,
            "durationTicks": 48,
            "midi": 52,
            "name": "E3",
            "ticks": 144720,
            "time": 188.4375,
            "velocity": 0.3937007874015748
          },
          {
            "duration": 0.0625,
            "durationTicks": 48,
            "midi": 47,
            "name": "B2",
            "ticks": 144864,
            "time": 188.625,
            "velocity": 0.3937007874015748
          },
          {
            "duration": 0.0625,
            "durationTicks": 48,
            "midi": 52,
            "name": "E3",
            "ticks": 144864,
            "time": 188.625,
            "velocity": 0.3937007874015748
          },
          {
            "duration": 0.0625,
            "durationTicks": 48,
            "midi": 47,
            "name": "B2",
            "ticks": 145008,
            "time": 188.8125,
            "velocity": 0.3937007874015748
          },
          {
            "duration": 0.0625,
            "durationTicks": 48,
            "midi": 52,
            "name": "E3",
            "ticks": 145008,
            "time": 188.8125,
            "velocity": 0.3937007874015748
          },
          {
            "duration": 0.0625,
            "durationTicks": 48,
            "midi": 47,
            "name": "B2",
            "ticks": 145152,
            "time": 189,
            "velocity": 0.3937007874015748
          },
          {
            "duration": 0.0625,
            "durationTicks": 48,
            "midi": 52,
            "name": "E3",
            "ticks": 145152,
            "time": 189,
            "velocity": 0.3937007874015748
          },
          {
            "duration": 0.0625,
            "durationTicks": 48,
            "midi": 47,
            "name": "B2",
            "ticks": 145296,
            "time": 189.1875,
            "velocity": 0.3937007874015748
          },
          {
            "duration": 0.0625,
            "durationTicks": 48,
            "midi": 52,
            "name": "E3",
            "ticks": 145296,
            "time": 189.1875,
            "velocity": 0.3937007874015748
          },
          {
            "duration": 0.0625,
            "durationTicks": 48,
            "midi": 47,
            "name": "B2",
            "ticks": 145440,
            "time": 189.375,
            "velocity": 0.3937007874015748
          },
          {
            "duration": 0.0625,
            "durationTicks": 48,
            "midi": 52,
            "name": "E3",
            "ticks": 145440,
            "time": 189.375,
            "velocity": 0.3937007874015748
          },
          {
            "duration": 0.0625,
            "durationTicks": 48,
            "midi": 52,
            "name": "E3",
            "ticks": 145728,
            "time": 189.75,
            "velocity": 0.3937007874015748
          },
          {
            "duration": 0.0625,
            "durationTicks": 48,
            "midi": 47,
            "name": "B2",
            "ticks": 145728,
            "time": 189.75,
            "velocity": 0.3937007874015748
          },
          {
            "duration": 0.0625,
            "durationTicks": 48,
            "midi": 43,
            "name": "G2",
            "ticks": 146016,
            "time": 190.125,
            "velocity": 0.3937007874015748
          },
          {
            "duration": 0.0625,
            "durationTicks": 48,
            "midi": 50,
            "name": "D3",
            "ticks": 146016,
            "time": 190.125,
            "velocity": 0.3937007874015748
          },
          {
            "duration": 0.0625,
            "durationTicks": 48,
            "midi": 50,
            "name": "D3",
            "ticks": 146448,
            "time": 190.6875,
            "velocity": 0.3937007874015748
          },
          {
            "duration": 0.0625,
            "durationTicks": 48,
            "midi": 45,
            "name": "A2",
            "ticks": 146448,
            "time": 190.6875,
            "velocity": 0.3937007874015748
          },
          {
            "duration": 0.0625,
            "durationTicks": 48,
            "midi": 52,
            "name": "E3",
            "ticks": 146592,
            "time": 190.875,
            "velocity": 0.3937007874015748
          },
          {
            "duration": 0.0625,
            "durationTicks": 48,
            "midi": 47,
            "name": "B2",
            "ticks": 146592,
            "time": 190.875,
            "velocity": 0.3937007874015748
          },
          {
            "duration": 0.0625,
            "durationTicks": 48,
            "midi": 45,
            "name": "A2",
            "ticks": 146880,
            "time": 191.25,
            "velocity": 0.3937007874015748
          },
          {
            "duration": 0.0625,
            "durationTicks": 48,
            "midi": 50,
            "name": "D3",
            "ticks": 146880,
            "time": 191.25,
            "velocity": 0.3937007874015748
          },
          {
            "duration": 0.0625,
            "durationTicks": 48,
            "midi": 47,
            "name": "B2",
            "ticks": 147024,
            "time": 191.4375,
            "velocity": 0.3937007874015748
          },
          {
            "duration": 0.0625,
            "durationTicks": 48,
            "midi": 52,
            "name": "E3",
            "ticks": 147024,
            "time": 191.4375,
            "velocity": 0.3937007874015748
          },
          {
            "duration": 0.0625,
            "durationTicks": 48,
            "midi": 47,
            "name": "B2",
            "ticks": 147312,
            "time": 191.8125,
            "velocity": 0.3937007874015748
          },
          {
            "duration": 0.0625,
            "durationTicks": 48,
            "midi": 52,
            "name": "E3",
            "ticks": 147312,
            "time": 191.8125,
            "velocity": 0.3937007874015748
          },
          {
            "duration": 0.0625,
            "durationTicks": 48,
            "midi": 45,
            "name": "A2",
            "ticks": 147600,
            "time": 192.1875,
            "velocity": 0.3937007874015748
          },
          {
            "duration": 0.0625,
            "durationTicks": 48,
            "midi": 50,
            "name": "D3",
            "ticks": 147600,
            "time": 192.1875,
            "velocity": 0.3937007874015748
          },
          {
            "duration": 0.0625,
            "durationTicks": 48,
            "midi": 52,
            "name": "E3",
            "ticks": 147744,
            "time": 192.375,
            "velocity": 0.3937007874015748
          },
          {
            "duration": 0.0625,
            "durationTicks": 48,
            "midi": 47,
            "name": "B2",
            "ticks": 147744,
            "time": 192.375,
            "velocity": 0.3937007874015748
          },
          {
            "duration": 0.0625,
            "durationTicks": 48,
            "midi": 50,
            "name": "D3",
            "ticks": 148032,
            "time": 192.75,
            "velocity": 0.3937007874015748
          },
          {
            "duration": 0.0625,
            "durationTicks": 48,
            "midi": 45,
            "name": "A2",
            "ticks": 148032,
            "time": 192.75,
            "velocity": 0.3937007874015748
          },
          {
            "duration": 0.0625,
            "durationTicks": 48,
            "midi": 47,
            "name": "B2",
            "ticks": 148176,
            "time": 192.9375,
            "velocity": 0.3937007874015748
          },
          {
            "duration": 0.0625,
            "durationTicks": 48,
            "midi": 52,
            "name": "E3",
            "ticks": 148176,
            "time": 192.9375,
            "velocity": 0.3937007874015748
          },
          {
            "duration": 0.0625,
            "durationTicks": 48,
            "midi": 52,
            "name": "E3",
            "ticks": 148464,
            "time": 193.3125,
            "velocity": 0.3937007874015748
          },
          {
            "duration": 0.0625,
            "durationTicks": 48,
            "midi": 47,
            "name": "B2",
            "ticks": 148464,
            "time": 193.3125,
            "velocity": 0.3937007874015748
          },
          {
            "duration": 0.0625,
            "durationTicks": 48,
            "midi": 45,
            "name": "A2",
            "ticks": 148752,
            "time": 193.6875,
            "velocity": 0.3937007874015748
          },
          {
            "duration": 0.0625,
            "durationTicks": 48,
            "midi": 50,
            "name": "D3",
            "ticks": 148752,
            "time": 193.6875,
            "velocity": 0.3937007874015748
          },
          {
            "duration": 0.0625,
            "durationTicks": 48,
            "midi": 52,
            "name": "E3",
            "ticks": 148896,
            "time": 193.875,
            "velocity": 0.3937007874015748
          },
          {
            "duration": 0.0625,
            "durationTicks": 48,
            "midi": 47,
            "name": "B2",
            "ticks": 148896,
            "time": 193.875,
            "velocity": 0.3937007874015748
          },
          {
            "duration": 0.0625,
            "durationTicks": 48,
            "midi": 50,
            "name": "D3",
            "ticks": 149184,
            "time": 194.25,
            "velocity": 0.3937007874015748
          },
          {
            "duration": 0.0625,
            "durationTicks": 48,
            "midi": 45,
            "name": "A2",
            "ticks": 149184,
            "time": 194.25,
            "velocity": 0.3937007874015748
          },
          {
            "duration": 0.0625,
            "durationTicks": 48,
            "midi": 47,
            "name": "B2",
            "ticks": 149328,
            "time": 194.4375,
            "velocity": 0.3937007874015748
          },
          {
            "duration": 0.0625,
            "durationTicks": 48,
            "midi": 52,
            "name": "E3",
            "ticks": 149328,
            "time": 194.4375,
            "velocity": 0.3937007874015748
          },
          {
            "duration": 0.0625,
            "durationTicks": 48,
            "midi": 50,
            "name": "D3",
            "ticks": 149760,
            "time": 195,
            "velocity": 0.3937007874015748
          },
          {
            "duration": 0.0625,
            "durationTicks": 48,
            "midi": 45,
            "name": "A2",
            "ticks": 149760,
            "time": 195,
            "velocity": 0.3937007874015748
          },
          {
            "duration": 0.0625,
            "durationTicks": 48,
            "midi": 47,
            "name": "B2",
            "ticks": 149904,
            "time": 195.1875,
            "velocity": 0.3937007874015748
          },
          {
            "duration": 0.0625,
            "durationTicks": 48,
            "midi": 52,
            "name": "E3",
            "ticks": 149904,
            "time": 195.1875,
            "velocity": 0.3937007874015748
          },
          {
            "duration": 0.0625,
            "durationTicks": 48,
            "midi": 52,
            "name": "E3",
            "ticks": 150192,
            "time": 195.5625,
            "velocity": 0.3937007874015748
          },
          {
            "duration": 0.0625,
            "durationTicks": 48,
            "midi": 47,
            "name": "B2",
            "ticks": 150192,
            "time": 195.5625,
            "velocity": 0.3937007874015748
          },
          {
            "duration": 0.0625,
            "durationTicks": 48,
            "midi": 50,
            "name": "D3",
            "ticks": 150480,
            "time": 195.9375,
            "velocity": 0.3937007874015748
          },
          {
            "duration": 0.0625,
            "durationTicks": 48,
            "midi": 45,
            "name": "A2",
            "ticks": 150480,
            "time": 195.9375,
            "velocity": 0.3937007874015748
          },
          {
            "duration": 0.0625,
            "durationTicks": 48,
            "midi": 47,
            "name": "B2",
            "ticks": 150624,
            "time": 196.125,
            "velocity": 0.3937007874015748
          },
          {
            "duration": 0.0625,
            "durationTicks": 48,
            "midi": 52,
            "name": "E3",
            "ticks": 150624,
            "time": 196.125,
            "velocity": 0.3937007874015748
          },
          {
            "duration": 0.0625,
            "durationTicks": 48,
            "midi": 52,
            "name": "E3",
            "ticks": 150912,
            "time": 196.5,
            "velocity": 0.3937007874015748
          },
          {
            "duration": 0.0625,
            "durationTicks": 48,
            "midi": 47,
            "name": "B2",
            "ticks": 150912,
            "time": 196.5,
            "velocity": 0.3937007874015748
          },
          {
            "duration": 0.0625,
            "durationTicks": 48,
            "midi": 47,
            "name": "B2",
            "ticks": 151056,
            "time": 196.6875,
            "velocity": 0.3937007874015748
          },
          {
            "duration": 0.0625,
            "durationTicks": 48,
            "midi": 52,
            "name": "E3",
            "ticks": 151056,
            "time": 196.6875,
            "velocity": 0.3937007874015748
          },
          {
            "duration": 0.0625,
            "durationTicks": 48,
            "midi": 52,
            "name": "E3",
            "ticks": 151200,
            "time": 196.875,
            "velocity": 0.3937007874015748
          },
          {
            "duration": 0.0625,
            "durationTicks": 48,
            "midi": 47,
            "name": "B2",
            "ticks": 151200,
            "time": 196.875,
            "velocity": 0.3937007874015748
          },
          {
            "duration": 0.0625,
            "durationTicks": 48,
            "midi": 47,
            "name": "B2",
            "ticks": 151344,
            "time": 197.0625,
            "velocity": 0.3937007874015748
          },
          {
            "duration": 0.0625,
            "durationTicks": 48,
            "midi": 52,
            "name": "E3",
            "ticks": 151344,
            "time": 197.0625,
            "velocity": 0.3937007874015748
          },
          {
            "duration": 0.0625,
            "durationTicks": 48,
            "midi": 47,
            "name": "B2",
            "ticks": 151488,
            "time": 197.25,
            "velocity": 0.3937007874015748
          },
          {
            "duration": 0.0625,
            "durationTicks": 48,
            "midi": 52,
            "name": "E3",
            "ticks": 151488,
            "time": 197.25,
            "velocity": 0.3937007874015748
          },
          {
            "duration": 0.0625,
            "durationTicks": 48,
            "midi": 47,
            "name": "B2",
            "ticks": 151632,
            "time": 197.4375,
            "velocity": 0.3937007874015748
          },
          {
            "duration": 0.0625,
            "durationTicks": 48,
            "midi": 52,
            "name": "E3",
            "ticks": 151632,
            "time": 197.4375,
            "velocity": 0.3937007874015748
          },
          {
            "duration": 0.0625,
            "durationTicks": 48,
            "midi": 52,
            "name": "E3",
            "ticks": 151776,
            "time": 197.625,
            "velocity": 0.3937007874015748
          },
          {
            "duration": 0.0625,
            "durationTicks": 48,
            "midi": 47,
            "name": "B2",
            "ticks": 151776,
            "time": 197.625,
            "velocity": 0.3937007874015748
          },
          {
            "duration": 0.4375,
            "durationTicks": 336,
            "midi": 50,
            "name": "D3",
            "ticks": 152064,
            "time": 198,
            "velocity": 0.3937007874015748
          },
          {
            "duration": 0.9375,
            "durationTicks": 720,
            "midi": 55,
            "name": "G3",
            "ticks": 152064,
            "time": 198,
            "velocity": 0.3937007874015748
          },
          {
            "duration": 0.0625,
            "durationTicks": 48,
            "midi": 47,
            "name": "B2",
            "ticks": 152064,
            "time": 198,
            "velocity": 0.3937007874015748
          },
          {
            "duration": 0.0625,
            "durationTicks": 48,
            "midi": 52,
            "name": "E3",
            "ticks": 152064,
            "time": 198,
            "velocity": 0.3937007874015748
          },
          {
            "duration": 0.9375,
            "durationTicks": 720,
            "midi": 59,
            "name": "B3",
            "ticks": 152064,
            "time": 198,
            "velocity": 0.3937007874015748
          },
          {
            "duration": 0.0625,
            "durationTicks": 48,
            "midi": 43,
            "name": "G2",
            "ticks": 152352,
            "time": 198.375,
            "velocity": 0.3937007874015748
          },
          {
            "duration": 0.5625,
            "durationTicks": 432,
            "midi": 50,
            "name": "D3",
            "ticks": 152352,
            "time": 198.375,
            "velocity": 0.3937007874015748
          },
          {
            "duration": 0.1875,
            "durationTicks": 144,
            "midi": 48,
            "name": "C3",
            "ticks": 152784,
            "time": 198.9375,
            "velocity": 0.3937007874015748
          },
          {
            "duration": 0.1875,
            "durationTicks": 144,
            "midi": 57,
            "name": "A3",
            "ticks": 152784,
            "time": 198.9375,
            "velocity": 0.3937007874015748
          },
          {
            "duration": 0.1875,
            "durationTicks": 144,
            "midi": 52,
            "name": "E3",
            "ticks": 152784,
            "time": 198.9375,
            "velocity": 0.3937007874015748
          },
          {
            "duration": 0.375,
            "durationTicks": 288,
            "midi": 55,
            "name": "G3",
            "ticks": 152928,
            "time": 199.125,
            "velocity": 0.3937007874015748
          },
          {
            "duration": 0.375,
            "durationTicks": 288,
            "midi": 59,
            "name": "B3",
            "ticks": 152928,
            "time": 199.125,
            "velocity": 0.3937007874015748
          },
          {
            "duration": 0.375,
            "durationTicks": 288,
            "midi": 50,
            "name": "D3",
            "ticks": 152928,
            "time": 199.125,
            "velocity": 0.3937007874015748
          },
          {
            "duration": 2.125,
            "durationTicks": 1632,
            "midi": 48,
            "name": "C3",
            "ticks": 153216,
            "time": 199.5,
            "velocity": 0.3937007874015748
          },
          {
            "duration": 2.125,
            "durationTicks": 1632,
            "midi": 57,
            "name": "A3",
            "ticks": 153216,
            "time": 199.5,
            "velocity": 0.3937007874015748
          },
          {
            "duration": 2.125,
            "durationTicks": 1632,
            "midi": 52,
            "name": "E3",
            "ticks": 153216,
            "time": 199.5,
            "velocity": 0.3937007874015748
          },
          {
            "duration": 0.375,
            "durationTicks": 288,
            "midi": 50,
            "name": "D3",
            "ticks": 155520,
            "time": 202.5,
            "velocity": 0.3937007874015748
          },
          {
            "duration": 0.375,
            "durationTicks": 288,
            "midi": 59,
            "name": "B3",
            "ticks": 155520,
            "time": 202.5,
            "velocity": 0.3937007874015748
          },
          {
            "duration": 0.375,
            "durationTicks": 288,
            "midi": 55,
            "name": "G3",
            "ticks": 155520,
            "time": 202.5,
            "velocity": 0.3937007874015748
          },
          {
            "duration": 0.1875,
            "durationTicks": 144,
            "midi": 50,
            "name": "D3",
            "ticks": 155808,
            "time": 202.875,
            "velocity": 0.3937007874015748
          },
          {
            "duration": 0.1875,
            "durationTicks": 144,
            "midi": 50,
            "name": "D3",
            "ticks": 155808,
            "time": 202.875,
            "velocity": 0.3937007874015748
          },
          {
            "duration": 0.1875,
            "durationTicks": 144,
            "midi": 54,
            "name": "F#3",
            "ticks": 155808,
            "time": 202.875,
            "velocity": 0.3937007874015748
          },
          {
            "duration": 0.1875,
            "durationTicks": 144,
            "midi": 57,
            "name": "A3",
            "ticks": 155808,
            "time": 202.875,
            "velocity": 0.3937007874015748
          },
          {
            "duration": 0.1875,
            "durationTicks": 144,
            "midi": 52,
            "name": "E3",
            "ticks": 155952,
            "time": 203.0625,
            "velocity": 0.3937007874015748
          },
          {
            "duration": 0.1875,
            "durationTicks": 144,
            "midi": 50,
            "name": "D3",
            "ticks": 155952,
            "time": 203.0625,
            "velocity": 0.3937007874015748
          },
          {
            "duration": 0.1875,
            "durationTicks": 144,
            "midi": 55,
            "name": "G3",
            "ticks": 155952,
            "time": 203.0625,
            "velocity": 0.3937007874015748
          },
          {
            "duration": 1.75,
            "durationTicks": 1344,
            "midi": 55,
            "name": "G3",
            "ticks": 156096,
            "time": 203.25,
            "velocity": 0.3937007874015748
          },
          {
            "duration": 1.75,
            "durationTicks": 1344,
            "midi": 52,
            "name": "E3",
            "ticks": 156096,
            "time": 203.25,
            "velocity": 0.3937007874015748
          },
          {
            "duration": 0.1875,
            "durationTicks": 144,
            "midi": 50,
            "name": "D3",
            "ticks": 156096,
            "time": 203.25,
            "velocity": 0.3937007874015748
          },
          {
            "duration": 1.75,
            "durationTicks": 1344,
            "midi": 52,
            "name": "E3",
            "ticks": 156096,
            "time": 203.25,
            "velocity": 0.3937007874015748
          },
          {
            "duration": 0.9375,
            "durationTicks": 720,
            "midi": 55,
            "name": "G3",
            "ticks": 158400,
            "time": 206.25,
            "velocity": 0.3937007874015748
          },
          {
            "duration": 0.9375,
            "durationTicks": 720,
            "midi": 59,
            "name": "B3",
            "ticks": 158400,
            "time": 206.25,
            "velocity": 0.3937007874015748
          },
          {
            "duration": 0.9375,
            "durationTicks": 720,
            "midi": 50,
            "name": "D3",
            "ticks": 158400,
            "time": 206.25,
            "velocity": 0.3937007874015748
          },
          {
            "duration": 0.1875,
            "durationTicks": 144,
            "midi": 48,
            "name": "C3",
            "ticks": 159120,
            "time": 207.1875,
            "velocity": 0.3937007874015748
          },
          {
            "duration": 0.1875,
            "durationTicks": 144,
            "midi": 52,
            "name": "E3",
            "ticks": 159120,
            "time": 207.1875,
            "velocity": 0.3937007874015748
          },
          {
            "duration": 0.1875,
            "durationTicks": 144,
            "midi": 57,
            "name": "A3",
            "ticks": 159120,
            "time": 207.1875,
            "velocity": 0.3937007874015748
          },
          {
            "duration": 0.375,
            "durationTicks": 288,
            "midi": 50,
            "name": "D3",
            "ticks": 159264,
            "time": 207.375,
            "velocity": 0.3937007874015748
          },
          {
            "duration": 0.375,
            "durationTicks": 288,
            "midi": 55,
            "name": "G3",
            "ticks": 159264,
            "time": 207.375,
            "velocity": 0.3937007874015748
          },
          {
            "duration": 0.375,
            "durationTicks": 288,
            "midi": 59,
            "name": "B3",
            "ticks": 159264,
            "time": 207.375,
            "velocity": 0.3937007874015748
          },
          {
            "duration": 2.125,
            "durationTicks": 1632,
            "midi": 57,
            "name": "A3",
            "ticks": 159552,
            "time": 207.75,
            "velocity": 0.3937007874015748
          },
          {
            "duration": 2.125,
            "durationTicks": 1632,
            "midi": 48,
            "name": "C3",
            "ticks": 159552,
            "time": 207.75,
            "velocity": 0.3937007874015748
          },
          {
            "duration": 2.125,
            "durationTicks": 1632,
            "midi": 52,
            "name": "E3",
            "ticks": 159552,
            "time": 207.75,
            "velocity": 0.3937007874015748
          },
          {
            "duration": 0.375,
            "durationTicks": 288,
            "midi": 55,
            "name": "G3",
            "ticks": 161856,
            "time": 210.75,
            "velocity": 0.3937007874015748
          },
          {
            "duration": 0.375,
            "durationTicks": 288,
            "midi": 59,
            "name": "B3",
            "ticks": 161856,
            "time": 210.75,
            "velocity": 0.3937007874015748
          },
          {
            "duration": 0.375,
            "durationTicks": 288,
            "midi": 50,
            "name": "D3",
            "ticks": 161856,
            "time": 210.75,
            "velocity": 0.3937007874015748
          },
          {
            "duration": 0.1875,
            "durationTicks": 144,
            "midi": 54,
            "name": "F#3",
            "ticks": 162144,
            "time": 211.125,
            "velocity": 0.3937007874015748
          },
          {
            "duration": 0.1875,
            "durationTicks": 144,
            "midi": 57,
            "name": "A3",
            "ticks": 162144,
            "time": 211.125,
            "velocity": 0.3937007874015748
          },
          {
            "duration": 0.1875,
            "durationTicks": 144,
            "midi": 50,
            "name": "D3",
            "ticks": 162144,
            "time": 211.125,
            "velocity": 0.3937007874015748
          },
          {
            "duration": 0.1875,
            "durationTicks": 144,
            "midi": 52,
            "name": "E3",
            "ticks": 162288,
            "time": 211.3125,
            "velocity": 0.3937007874015748
          },
          {
            "duration": 0.1875,
            "durationTicks": 144,
            "midi": 55,
            "name": "G3",
            "ticks": 162288,
            "time": 211.3125,
            "velocity": 0.3937007874015748
          },
          {
            "duration": 0.1875,
            "durationTicks": 144,
            "midi": 50,
            "name": "D3",
            "ticks": 162288,
            "time": 211.3125,
            "velocity": 0.3937007874015748
          },
          {
            "duration": 1.75,
            "durationTicks": 1344,
            "midi": 52,
            "name": "E3",
            "ticks": 162432,
            "time": 211.5,
            "velocity": 0.3937007874015748
          },
          {
            "duration": 0.1875,
            "durationTicks": 144,
            "midi": 50,
            "name": "D3",
            "ticks": 162432,
            "time": 211.5,
            "velocity": 0.3937007874015748
          },
          {
            "duration": 1.75,
            "durationTicks": 1344,
            "midi": 55,
            "name": "G3",
            "ticks": 162432,
            "time": 211.5,
            "velocity": 0.3937007874015748
          },
          {
            "duration": 1.75,
            "durationTicks": 1344,
            "midi": 52,
            "name": "E3",
            "ticks": 162432,
            "time": 211.5,
            "velocity": 0.3937007874015748
          },
          {
            "duration": 0.9375,
            "durationTicks": 720,
            "midi": 50,
            "name": "D3",
            "ticks": 164736,
            "time": 214.5,
            "velocity": 0.3937007874015748
          },
          {
            "duration": 0.9375,
            "durationTicks": 720,
            "midi": 55,
            "name": "G3",
            "ticks": 164736,
            "time": 214.5,
            "velocity": 0.3937007874015748
          },
          {
            "duration": 0.9375,
            "durationTicks": 720,
            "midi": 59,
            "name": "B3",
            "ticks": 164736,
            "time": 214.5,
            "velocity": 0.3937007874015748
          },
          {
            "duration": 0.1875,
            "durationTicks": 144,
            "midi": 48,
            "name": "C3",
            "ticks": 165456,
            "time": 215.4375,
            "velocity": 0.3937007874015748
          },
          {
            "duration": 0.1875,
            "durationTicks": 144,
            "midi": 52,
            "name": "E3",
            "ticks": 165456,
            "time": 215.4375,
            "velocity": 0.3937007874015748
          },
          {
            "duration": 0.1875,
            "durationTicks": 144,
            "midi": 57,
            "name": "A3",
            "ticks": 165456,
            "time": 215.4375,
            "velocity": 0.3937007874015748
          },
          {
            "duration": 0.375,
            "durationTicks": 288,
            "midi": 50,
            "name": "D3",
            "ticks": 165600,
            "time": 215.625,
            "velocity": 0.3937007874015748
          },
          {
            "duration": 0.375,
            "durationTicks": 288,
            "midi": 59,
            "name": "B3",
            "ticks": 165600,
            "time": 215.625,
            "velocity": 0.3937007874015748
          },
          {
            "duration": 0.375,
            "durationTicks": 288,
            "midi": 55,
            "name": "G3",
            "ticks": 165600,
            "time": 215.625,
            "velocity": 0.3937007874015748
          },
          {
            "duration": 2.125,
            "durationTicks": 1632,
            "midi": 52,
            "name": "E3",
            "ticks": 165888,
            "time": 216,
            "velocity": 0.3937007874015748
          },
          {
            "duration": 2.125,
            "durationTicks": 1632,
            "midi": 48,
            "name": "C3",
            "ticks": 165888,
            "time": 216,
            "velocity": 0.3937007874015748
          },
          {
            "duration": 2.125,
            "durationTicks": 1632,
            "midi": 57,
            "name": "A3",
            "ticks": 165888,
            "time": 216,
            "velocity": 0.3937007874015748
          },
          {
            "duration": 0.375,
            "durationTicks": 288,
            "midi": 50,
            "name": "D3",
            "ticks": 168192,
            "time": 219,
            "velocity": 0.3937007874015748
          },
          {
            "duration": 0.375,
            "durationTicks": 288,
            "midi": 55,
            "name": "G3",
            "ticks": 168192,
            "time": 219,
            "velocity": 0.3937007874015748
          },
          {
            "duration": 0.375,
            "durationTicks": 288,
            "midi": 59,
            "name": "B3",
            "ticks": 168192,
            "time": 219,
            "velocity": 0.3937007874015748
          },
          {
            "duration": 0.1875,
            "durationTicks": 144,
            "midi": 54,
            "name": "F#3",
            "ticks": 168480,
            "time": 219.375,
            "velocity": 0.3937007874015748
          },
          {
            "duration": 0.1875,
            "durationTicks": 144,
            "midi": 57,
            "name": "A3",
            "ticks": 168480,
            "time": 219.375,
            "velocity": 0.3937007874015748
          },
          {
            "duration": 0.1875,
            "durationTicks": 144,
            "midi": 50,
            "name": "D3",
            "ticks": 168480,
            "time": 219.375,
            "velocity": 0.3937007874015748
          },
          {
            "duration": 0.1875,
            "durationTicks": 144,
            "midi": 50,
            "name": "D3",
            "ticks": 168480,
            "time": 219.375,
            "velocity": 0.3937007874015748
          },
          {
            "duration": 0.1875,
            "durationTicks": 144,
            "midi": 50,
            "name": "D3",
            "ticks": 168624,
            "time": 219.5625,
            "velocity": 0.3937007874015748
          },
          {
            "duration": 0.1875,
            "durationTicks": 144,
            "midi": 55,
            "name": "G3",
            "ticks": 168624,
            "time": 219.5625,
            "velocity": 0.3937007874015748
          },
          {
            "duration": 0.1875,
            "durationTicks": 144,
            "midi": 52,
            "name": "E3",
            "ticks": 168624,
            "time": 219.5625,
            "velocity": 0.3937007874015748
          },
          {
            "duration": 1.75,
            "durationTicks": 1344,
            "midi": 52,
            "name": "E3",
            "ticks": 168768,
            "time": 219.75,
            "velocity": 0.3937007874015748
          },
          {
            "duration": 1.75,
            "durationTicks": 1344,
            "midi": 55,
            "name": "G3",
            "ticks": 168768,
            "time": 219.75,
            "velocity": 0.3937007874015748
          },
          {
            "duration": 0.1875,
            "durationTicks": 144,
            "midi": 50,
            "name": "D3",
            "ticks": 168768,
            "time": 219.75,
            "velocity": 0.3937007874015748
          },
          {
            "duration": 1.75,
            "durationTicks": 1344,
            "midi": 52,
            "name": "E3",
            "ticks": 168768,
            "time": 219.75,
            "velocity": 0.3937007874015748
          },
          {
            "duration": 0.9375,
            "durationTicks": 720,
            "midi": 50,
            "name": "D3",
            "ticks": 171072,
            "time": 222.75,
            "velocity": 0.3937007874015748
          },
          {
            "duration": 0.9375,
            "durationTicks": 720,
            "midi": 59,
            "name": "B3",
            "ticks": 171072,
            "time": 222.75,
            "velocity": 0.3937007874015748
          },
          {
            "duration": 0.9375,
            "durationTicks": 720,
            "midi": 55,
            "name": "G3",
            "ticks": 171072,
            "time": 222.75,
            "velocity": 0.3937007874015748
          },
          {
            "duration": 0.1875,
            "durationTicks": 144,
            "midi": 57,
            "name": "A3",
            "ticks": 171792,
            "time": 223.6875,
            "velocity": 0.3937007874015748
          },
          {
            "duration": 0.1875,
            "durationTicks": 144,
            "midi": 48,
            "name": "C3",
            "ticks": 171792,
            "time": 223.6875,
            "velocity": 0.3937007874015748
          },
          {
            "duration": 0.1875,
            "durationTicks": 144,
            "midi": 52,
            "name": "E3",
            "ticks": 171792,
            "time": 223.6875,
            "velocity": 0.3937007874015748
          },
          {
            "duration": 0.375,
            "durationTicks": 288,
            "midi": 59,
            "name": "B3",
            "ticks": 171936,
            "time": 223.875,
            "velocity": 0.3937007874015748
          },
          {
            "duration": 0.375,
            "durationTicks": 288,
            "midi": 50,
            "name": "D3",
            "ticks": 171936,
            "time": 223.875,
            "velocity": 0.3937007874015748
          },
          {
            "duration": 0.375,
            "durationTicks": 288,
            "midi": 55,
            "name": "G3",
            "ticks": 171936,
            "time": 223.875,
            "velocity": 0.3937007874015748
          },
          {
            "duration": 2.125,
            "durationTicks": 1632,
            "midi": 57,
            "name": "A3",
            "ticks": 172224,
            "time": 224.25,
            "velocity": 0.3937007874015748
          },
          {
            "duration": 2.125,
            "durationTicks": 1632,
            "midi": 52,
            "name": "E3",
            "ticks": 172224,
            "time": 224.25,
            "velocity": 0.3937007874015748
          },
          {
            "duration": 2.125,
            "durationTicks": 1632,
            "midi": 48,
            "name": "C3",
            "ticks": 172224,
            "time": 224.25,
            "velocity": 0.3937007874015748
          },
          {
            "duration": 0.375,
            "durationTicks": 288,
            "midi": 55,
            "name": "G3",
            "ticks": 174528,
            "time": 227.25,
            "velocity": 0.3937007874015748
          },
          {
            "duration": 0.375,
            "durationTicks": 288,
            "midi": 50,
            "name": "D3",
            "ticks": 174528,
            "time": 227.25,
            "velocity": 0.3937007874015748
          },
          {
            "duration": 0.375,
            "durationTicks": 288,
            "midi": 59,
            "name": "B3",
            "ticks": 174528,
            "time": 227.25,
            "velocity": 0.3937007874015748
          },
          {
            "duration": 0.1875,
            "durationTicks": 144,
            "midi": 54,
            "name": "F#3",
            "ticks": 174816,
            "time": 227.625,
            "velocity": 0.3937007874015748
          },
          {
            "duration": 0.1875,
            "durationTicks": 144,
            "midi": 57,
            "name": "A3",
            "ticks": 174816,
            "time": 227.625,
            "velocity": 0.3937007874015748
          },
          {
            "duration": 0.1875,
            "durationTicks": 144,
            "midi": 50,
            "name": "D3",
            "ticks": 174816,
            "time": 227.625,
            "velocity": 0.3937007874015748
          },
          {
            "duration": 0.1875,
            "durationTicks": 144,
            "midi": 52,
            "name": "E3",
            "ticks": 174960,
            "time": 227.8125,
            "velocity": 0.3937007874015748
          },
          {
            "duration": 0.1875,
            "durationTicks": 144,
            "midi": 55,
            "name": "G3",
            "ticks": 174960,
            "time": 227.8125,
            "velocity": 0.3937007874015748
          },
          {
            "duration": 0.1875,
            "durationTicks": 144,
            "midi": 50,
            "name": "D3",
            "ticks": 174960,
            "time": 227.8125,
            "velocity": 0.3937007874015748
          },
          {
            "duration": 1.75,
            "durationTicks": 1344,
            "midi": 52,
            "name": "E3",
            "ticks": 175104,
            "time": 228,
            "velocity": 0.3937007874015748
          },
          {
            "duration": 0.1875,
            "durationTicks": 144,
            "midi": 50,
            "name": "D3",
            "ticks": 175104,
            "time": 228,
            "velocity": 0.3937007874015748
          },
          {
            "duration": 1.75,
            "durationTicks": 1344,
            "midi": 52,
            "name": "E3",
            "ticks": 175104,
            "time": 228,
            "velocity": 0.3937007874015748
          },
          {
            "duration": 1.75,
            "durationTicks": 1344,
            "midi": 55,
            "name": "G3",
            "ticks": 175104,
            "time": 228,
            "velocity": 0.3937007874015748
          }
        ],
        "endOfTrackTicks": 176448
      },
      {
        "channel": 5,
        "controlChanges": {},
        "pitchBends": [],
        "instrument": {
          "family": "synth lead",
          "number": 81,
          "name": "lead 2 (sawtooth)"
        },
        "name": "8-Bit Sawtooth",
        "notes": [
          {
            "duration": 0.375,
            "durationTicks": 288,
            "midi": 64,
            "name": "E4",
            "ticks": 288,
            "time": 0.375,
            "velocity": 0.3937007874015748
          },
          {
            "duration": 0.375,
            "durationTicks": 288,
            "midi": 52,
            "name": "E3",
            "ticks": 288,
            "time": 0.375,
            "velocity": 0.3937007874015748
          },
          {
            "duration": 0.1875,
            "durationTicks": 144,
            "midi": 50,
            "name": "D3",
            "ticks": 576,
            "time": 0.75,
            "velocity": 0.3937007874015748
          },
          {
            "duration": 0.1875,
            "durationTicks": 144,
            "midi": 62,
            "name": "D4",
            "ticks": 576,
            "time": 0.75,
            "velocity": 0.3937007874015748
          },
          {
            "duration": 0.1875,
            "durationTicks": 144,
            "midi": 48,
            "name": "C3",
            "ticks": 720,
            "time": 0.9375,
            "velocity": 0.3937007874015748
          },
          {
            "duration": 0.1875,
            "durationTicks": 144,
            "midi": 60,
            "name": "C4",
            "ticks": 720,
            "time": 0.9375,
            "velocity": 0.3937007874015748
          },
          {
            "duration": 0.375,
            "durationTicks": 288,
            "midi": 47,
            "name": "B2",
            "ticks": 864,
            "time": 1.125,
            "velocity": 0.3937007874015748
          },
          {
            "duration": 0.375,
            "durationTicks": 288,
            "midi": 59,
            "name": "B3",
            "ticks": 864,
            "time": 1.125,
            "velocity": 0.3937007874015748
          },
          {
            "duration": 0.375,
            "durationTicks": 288,
            "midi": 59,
            "name": "B3",
            "ticks": 1152,
            "time": 1.5,
            "velocity": 0.3937007874015748
          },
          {
            "duration": 0.375,
            "durationTicks": 288,
            "midi": 47,
            "name": "B2",
            "ticks": 1152,
            "time": 1.5,
            "velocity": 0.3937007874015748
          },
          {
            "duration": 0.1875,
            "durationTicks": 144,
            "midi": 48,
            "name": "C3",
            "ticks": 1440,
            "time": 1.875,
            "velocity": 0.3937007874015748
          },
          {
            "duration": 0.1875,
            "durationTicks": 144,
            "midi": 60,
            "name": "C4",
            "ticks": 1440,
            "time": 1.875,
            "velocity": 0.3937007874015748
          },
          {
            "duration": 0.375,
            "durationTicks": 288,
            "midi": 59,
            "name": "B3",
            "ticks": 1584,
            "time": 2.0625,
            "velocity": 0.3937007874015748
          },
          {
            "duration": 0.375,
            "durationTicks": 288,
            "midi": 47,
            "name": "B2",
            "ticks": 1584,
            "time": 2.0625,
            "velocity": 0.3937007874015748
          },
          {
            "duration": 0.1875,
            "durationTicks": 144,
            "midi": 45,
            "name": "A2",
            "ticks": 1872,
            "time": 2.4375,
            "velocity": 0.3937007874015748
          },
          {
            "duration": 0.1875,
            "durationTicks": 144,
            "midi": 57,
            "name": "A3",
            "ticks": 1872,
            "time": 2.4375,
            "velocity": 0.3937007874015748
          },
          {
            "duration": 0.1875,
            "durationTicks": 144,
            "midi": 43,
            "name": "G2",
            "ticks": 2016,
            "time": 2.625,
            "velocity": 0.3937007874015748
          },
          {
            "duration": 0.1875,
            "durationTicks": 144,
            "midi": 55,
            "name": "G3",
            "ticks": 2016,
            "time": 2.625,
            "velocity": 0.3937007874015748
          },
          {
            "duration": 0.1875,
            "durationTicks": 144,
            "midi": 45,
            "name": "A2",
            "ticks": 2160,
            "time": 2.8125,
            "velocity": 0.3937007874015748
          },
          {
            "duration": 0.1875,
            "durationTicks": 144,
            "midi": 57,
            "name": "A3",
            "ticks": 2160,
            "time": 2.8125,
            "velocity": 0.3937007874015748
          },
          {
            "duration": 0.375,
            "durationTicks": 288,
            "midi": 47,
            "name": "B2",
            "ticks": 2304,
            "time": 3,
            "velocity": 0.3937007874015748
          },
          {
            "duration": 0.375,
            "durationTicks": 288,
            "midi": 59,
            "name": "B3",
            "ticks": 2304,
            "time": 3,
            "velocity": 0.3937007874015748
          },
          {
            "duration": 0.1875,
            "durationTicks": 144,
            "midi": 48,
            "name": "C3",
            "ticks": 2592,
            "time": 3.375,
            "velocity": 0.3937007874015748
          },
          {
            "duration": 0.1875,
            "durationTicks": 144,
            "midi": 60,
            "name": "C4",
            "ticks": 2592,
            "time": 3.375,
            "velocity": 0.3937007874015748
          },
          {
            "duration": 0.375,
            "durationTicks": 288,
            "midi": 47,
            "name": "B2",
            "ticks": 2736,
            "time": 3.5625,
            "velocity": 0.3937007874015748
          },
          {
            "duration": 0.375,
            "durationTicks": 288,
            "midi": 59,
            "name": "B3",
            "ticks": 2736,
            "time": 3.5625,
            "velocity": 0.3937007874015748
          },
          {
            "duration": 0.1875,
            "durationTicks": 144,
            "midi": 45,
            "name": "A2",
            "ticks": 3024,
            "time": 3.9375,
            "velocity": 0.3937007874015748
          },
          {
            "duration": 0.1875,
            "durationTicks": 144,
            "midi": 57,
            "name": "A3",
            "ticks": 3024,
            "time": 3.9375,
            "velocity": 0.3937007874015748
          },
          {
            "duration": 0.1875,
            "durationTicks": 144,
            "midi": 43,
            "name": "G2",
            "ticks": 3168,
            "time": 4.125,
            "velocity": 0.3937007874015748
          },
          {
            "duration": 0.1875,
            "durationTicks": 144,
            "midi": 55,
            "name": "G3",
            "ticks": 3168,
            "time": 4.125,
            "velocity": 0.3937007874015748
          },
          {
            "duration": 0.1875,
            "durationTicks": 144,
            "midi": 57,
            "name": "A3",
            "ticks": 3312,
            "time": 4.3125,
            "velocity": 0.3937007874015748
          },
          {
            "duration": 0.1875,
            "durationTicks": 144,
            "midi": 45,
            "name": "A2",
            "ticks": 3312,
            "time": 4.3125,
            "velocity": 0.3937007874015748
          },
          {
            "duration": 0.375,
            "durationTicks": 288,
            "midi": 47,
            "name": "B2",
            "ticks": 3456,
            "time": 4.5,
            "velocity": 0.3937007874015748
          },
          {
            "duration": 0.375,
            "durationTicks": 288,
            "midi": 59,
            "name": "B3",
            "ticks": 3456,
            "time": 4.5,
            "velocity": 0.3937007874015748
          },
          {
            "duration": 0.375,
            "durationTicks": 288,
            "midi": 48,
            "name": "C3",
            "ticks": 3744,
            "time": 4.875,
            "velocity": 0.3937007874015748
          },
          {
            "duration": 0.375,
            "durationTicks": 288,
            "midi": 60,
            "name": "C4",
            "ticks": 3744,
            "time": 4.875,
            "velocity": 0.3937007874015748
          },
          {
            "duration": 1.5625,
            "durationTicks": 1200,
            "midi": 59,
            "name": "B3",
            "ticks": 4032,
            "time": 5.25,
            "velocity": 0.3937007874015748
          },
          {
            "duration": 1.5625,
            "durationTicks": 1200,
            "midi": 47,
            "name": "B2",
            "ticks": 4032,
            "time": 5.25,
            "velocity": 0.3937007874015748
          },
          {
            "duration": 0.375,
            "durationTicks": 288,
            "midi": 52,
            "name": "E3",
            "ticks": 6624,
            "time": 8.625,
            "velocity": 0.3937007874015748
          },
          {
            "duration": 0.375,
            "durationTicks": 288,
            "midi": 64,
            "name": "E4",
            "ticks": 6624,
            "time": 8.625,
            "velocity": 0.3937007874015748
          },
          {
            "duration": 0.1875,
            "durationTicks": 144,
            "midi": 62,
            "name": "D4",
            "ticks": 6912,
            "time": 9,
            "velocity": 0.3937007874015748
          },
          {
            "duration": 0.1875,
            "durationTicks": 144,
            "midi": 50,
            "name": "D3",
            "ticks": 6912,
            "time": 9,
            "velocity": 0.3937007874015748
          },
          {
            "duration": 0.1875,
            "durationTicks": 144,
            "midi": 60,
            "name": "C4",
            "ticks": 7056,
            "time": 9.1875,
            "velocity": 0.3937007874015748
          },
          {
            "duration": 0.1875,
            "durationTicks": 144,
            "midi": 48,
            "name": "C3",
            "ticks": 7056,
            "time": 9.1875,
            "velocity": 0.3937007874015748
          },
          {
            "duration": 0.375,
            "durationTicks": 288,
            "midi": 47,
            "name": "B2",
            "ticks": 7200,
            "time": 9.375,
            "velocity": 0.3937007874015748
          },
          {
            "duration": 0.375,
            "durationTicks": 288,
            "midi": 59,
            "name": "B3",
            "ticks": 7200,
            "time": 9.375,
            "velocity": 0.3937007874015748
          },
          {
            "duration": 0.375,
            "durationTicks": 288,
            "midi": 59,
            "name": "B3",
            "ticks": 7488,
            "time": 9.75,
            "velocity": 0.3937007874015748
          },
          {
            "duration": 0.375,
            "durationTicks": 288,
            "midi": 47,
            "name": "B2",
            "ticks": 7488,
            "time": 9.75,
            "velocity": 0.3937007874015748
          },
          {
            "duration": 0.1875,
            "durationTicks": 144,
            "midi": 48,
            "name": "C3",
            "ticks": 7776,
            "time": 10.125,
            "velocity": 0.3937007874015748
          },
          {
            "duration": 0.1875,
            "durationTicks": 144,
            "midi": 60,
            "name": "C4",
            "ticks": 7776,
            "time": 10.125,
            "velocity": 0.3937007874015748
          },
          {
            "duration": 0.375,
            "durationTicks": 288,
            "midi": 47,
            "name": "B2",
            "ticks": 7920,
            "time": 10.3125,
            "velocity": 0.3937007874015748
          },
          {
            "duration": 0.375,
            "durationTicks": 288,
            "midi": 59,
            "name": "B3",
            "ticks": 7968,
            "time": 10.375,
            "velocity": 0.3937007874015748
          },
          {
            "duration": 0.1875,
            "durationTicks": 144,
            "midi": 57,
            "name": "A3",
            "ticks": 8208,
            "time": 10.6875,
            "velocity": 0.3937007874015748
          },
          {
            "duration": 0.1875,
            "durationTicks": 144,
            "midi": 45,
            "name": "A2",
            "ticks": 8208,
            "time": 10.6875,
            "velocity": 0.3937007874015748
          },
          {
            "duration": 0.1875,
            "durationTicks": 144,
            "midi": 43,
            "name": "G2",
            "ticks": 8352,
            "time": 10.875,
            "velocity": 0.3937007874015748
          },
          {
            "duration": 0.1875,
            "durationTicks": 144,
            "midi": 55,
            "name": "G3",
            "ticks": 8352,
            "time": 10.875,
            "velocity": 0.3937007874015748
          },
          {
            "duration": 0.1875,
            "durationTicks": 144,
            "midi": 45,
            "name": "A2",
            "ticks": 8496,
            "time": 11.0625,
            "velocity": 0.3937007874015748
          },
          {
            "duration": 0.1875,
            "durationTicks": 144,
            "midi": 57,
            "name": "A3",
            "ticks": 8496,
            "time": 11.0625,
            "velocity": 0.3937007874015748
          },
          {
            "duration": 0.375,
            "durationTicks": 288,
            "midi": 47,
            "name": "B2",
            "ticks": 8640,
            "time": 11.25,
            "velocity": 0.3937007874015748
          },
          {
            "duration": 0.375,
            "durationTicks": 288,
            "midi": 59,
            "name": "B3",
            "ticks": 8640,
            "time": 11.25,
            "velocity": 0.3937007874015748
          },
          {
            "duration": 0.1875,
            "durationTicks": 144,
            "midi": 48,
            "name": "C3",
            "ticks": 8928,
            "time": 11.625,
            "velocity": 0.3937007874015748
          },
          {
            "duration": 0.1875,
            "durationTicks": 144,
            "midi": 60,
            "name": "C4",
            "ticks": 8928,
            "time": 11.625,
            "velocity": 0.3937007874015748
          },
          {
            "duration": 0.375,
            "durationTicks": 288,
            "midi": 59,
            "name": "B3",
            "ticks": 9072,
            "time": 11.8125,
            "velocity": 0.3937007874015748
          },
          {
            "duration": 0.375,
            "durationTicks": 288,
            "midi": 47,
            "name": "B2",
            "ticks": 9072,
            "time": 11.8125,
            "velocity": 0.3937007874015748
          },
          {
            "duration": 0.1875,
            "durationTicks": 144,
            "midi": 45,
            "name": "A2",
            "ticks": 9360,
            "time": 12.1875,
            "velocity": 0.3937007874015748
          },
          {
            "duration": 0.1875,
            "durationTicks": 144,
            "midi": 57,
            "name": "A3",
            "ticks": 9360,
            "time": 12.1875,
            "velocity": 0.3937007874015748
          },
          {
            "duration": 0.1875,
            "durationTicks": 144,
            "midi": 55,
            "name": "G3",
            "ticks": 9504,
            "time": 12.375,
            "velocity": 0.3937007874015748
          },
          {
            "duration": 0.1875,
            "durationTicks": 144,
            "midi": 43,
            "name": "G2",
            "ticks": 9504,
            "time": 12.375,
            "velocity": 0.3937007874015748
          },
          {
            "duration": 0.1875,
            "durationTicks": 144,
            "midi": 45,
            "name": "A2",
            "ticks": 9648,
            "time": 12.5625,
            "velocity": 0.3937007874015748
          },
          {
            "duration": 0.1875,
            "durationTicks": 144,
            "midi": 57,
            "name": "A3",
            "ticks": 9648,
            "time": 12.5625,
            "velocity": 0.3937007874015748
          },
          {
            "duration": 0.375,
            "durationTicks": 288,
            "midi": 59,
            "name": "B3",
            "ticks": 9792,
            "time": 12.75,
            "velocity": 0.3937007874015748
          },
          {
            "duration": 0.375,
            "durationTicks": 288,
            "midi": 47,
            "name": "B2",
            "ticks": 9792,
            "time": 12.75,
            "velocity": 0.3937007874015748
          },
          {
            "duration": 0.375,
            "durationTicks": 288,
            "midi": 60,
            "name": "C4",
            "ticks": 10080,
            "time": 13.125,
            "velocity": 0.3937007874015748
          },
          {
            "duration": 0.375,
            "durationTicks": 288,
            "midi": 48,
            "name": "C3",
            "ticks": 10080,
            "time": 13.125,
            "velocity": 0.3937007874015748
          },
          {
            "duration": 0.375,
            "durationTicks": 288,
            "midi": 48,
            "name": "C3",
            "ticks": 10080,
            "time": 13.125,
            "velocity": 0.3937007874015748
          },
          {
            "duration": 0.375,
            "durationTicks": 288,
            "midi": 60,
            "name": "C4",
            "ticks": 10080,
            "time": 13.125,
            "velocity": 0.3937007874015748
          },
          {
            "duration": 1.5625,
            "durationTicks": 1200,
            "midi": 47,
            "name": "B2",
            "ticks": 10368,
            "time": 13.5,
            "velocity": 0.3937007874015748
          },
          {
            "duration": 1.5625,
            "durationTicks": 1200,
            "midi": 59,
            "name": "B3",
            "ticks": 10368,
            "time": 13.5,
            "velocity": 0.3937007874015748
          },
          {
            "duration": 0.375,
            "durationTicks": 288,
            "midi": 52,
            "name": "E3",
            "ticks": 12960,
            "time": 16.875,
            "velocity": 0.3937007874015748
          },
          {
            "duration": 0.375,
            "durationTicks": 288,
            "midi": 64,
            "name": "E4",
            "ticks": 12960,
            "time": 16.875,
            "velocity": 0.3937007874015748
          },
          {
            "duration": 0.1875,
            "durationTicks": 144,
            "midi": 62,
            "name": "D4",
            "ticks": 13248,
            "time": 17.25,
            "velocity": 0.3937007874015748
          },
          {
            "duration": 0.1875,
            "durationTicks": 144,
            "midi": 50,
            "name": "D3",
            "ticks": 13248,
            "time": 17.25,
            "velocity": 0.3937007874015748
          },
          {
            "duration": 0.1875,
            "durationTicks": 144,
            "midi": 48,
            "name": "C3",
            "ticks": 13392,
            "time": 17.4375,
            "velocity": 0.3937007874015748
          },
          {
            "duration": 0.1875,
            "durationTicks": 144,
            "midi": 60,
            "name": "C4",
            "ticks": 13392,
            "time": 17.4375,
            "velocity": 0.3937007874015748
          },
          {
            "duration": 0.375,
            "durationTicks": 288,
            "midi": 47,
            "name": "B2",
            "ticks": 13536,
            "time": 17.625,
            "velocity": 0.3937007874015748
          },
          {
            "duration": 0.375,
            "durationTicks": 288,
            "midi": 59,
            "name": "B3",
            "ticks": 13536,
            "time": 17.625,
            "velocity": 0.3937007874015748
          },
          {
            "duration": 0.375,
            "durationTicks": 288,
            "midi": 59,
            "name": "B3",
            "ticks": 13824,
            "time": 18,
            "velocity": 0.3937007874015748
          },
          {
            "duration": 0.375,
            "durationTicks": 288,
            "midi": 47,
            "name": "B2",
            "ticks": 13824,
            "time": 18,
            "velocity": 0.3937007874015748
          },
          {
            "duration": 0.1875,
            "durationTicks": 144,
            "midi": 48,
            "name": "C3",
            "ticks": 14112,
            "time": 18.375,
            "velocity": 0.3937007874015748
          },
          {
            "duration": 0.1875,
            "durationTicks": 144,
            "midi": 60,
            "name": "C4",
            "ticks": 14112,
            "time": 18.375,
            "velocity": 0.3937007874015748
          },
          {
            "duration": 0.375,
            "durationTicks": 288,
            "midi": 59,
            "name": "B3",
            "ticks": 14256,
            "time": 18.5625,
            "velocity": 0.3937007874015748
          },
          {
            "duration": 0.375,
            "durationTicks": 288,
            "midi": 47,
            "name": "B2",
            "ticks": 14256,
            "time": 18.5625,
            "velocity": 0.3937007874015748
          },
          {
            "duration": 0.1875,
            "durationTicks": 144,
            "midi": 45,
            "name": "A2",
            "ticks": 14544,
            "time": 18.9375,
            "velocity": 0.3937007874015748
          },
          {
            "duration": 0.1875,
            "durationTicks": 144,
            "midi": 57,
            "name": "A3",
            "ticks": 14544,
            "time": 18.9375,
            "velocity": 0.3937007874015748
          },
          {
            "duration": 0.1875,
            "durationTicks": 144,
            "midi": 55,
            "name": "G3",
            "ticks": 14688,
            "time": 19.125,
            "velocity": 0.3937007874015748
          },
          {
            "duration": 0.1875,
            "durationTicks": 144,
            "midi": 43,
            "name": "G2",
            "ticks": 14688,
            "time": 19.125,
            "velocity": 0.3937007874015748
          },
          {
            "duration": 0.1875,
            "durationTicks": 144,
            "midi": 45,
            "name": "A2",
            "ticks": 14832,
            "time": 19.3125,
            "velocity": 0.3937007874015748
          },
          {
            "duration": 0.1875,
            "durationTicks": 144,
            "midi": 57,
            "name": "A3",
            "ticks": 14832,
            "time": 19.3125,
            "velocity": 0.3937007874015748
          },
          {
            "duration": 0.375,
            "durationTicks": 288,
            "midi": 47,
            "name": "B2",
            "ticks": 14976,
            "time": 19.5,
            "velocity": 0.3937007874015748
          },
          {
            "duration": 0.375,
            "durationTicks": 288,
            "midi": 59,
            "name": "B3",
            "ticks": 14976,
            "time": 19.5,
            "velocity": 0.3937007874015748
          },
          {
            "duration": 0.1875,
            "durationTicks": 144,
            "midi": 60,
            "name": "C4",
            "ticks": 15264,
            "time": 19.875,
            "velocity": 0.3937007874015748
          },
          {
            "duration": 0.1875,
            "durationTicks": 144,
            "midi": 48,
            "name": "C3",
            "ticks": 15264,
            "time": 19.875,
            "velocity": 0.3937007874015748
          },
          {
            "duration": 0.375,
            "durationTicks": 288,
            "midi": 47,
            "name": "B2",
            "ticks": 15408,
            "time": 20.0625,
            "velocity": 0.3937007874015748
          },
          {
            "duration": 0.375,
            "durationTicks": 288,
            "midi": 59,
            "name": "B3",
            "ticks": 15408,
            "time": 20.0625,
            "velocity": 0.3937007874015748
          },
          {
            "duration": 0.1875,
            "durationTicks": 144,
            "midi": 57,
            "name": "A3",
            "ticks": 15696,
            "time": 20.4375,
            "velocity": 0.3937007874015748
          },
          {
            "duration": 0.1875,
            "durationTicks": 144,
            "midi": 45,
            "name": "A2",
            "ticks": 15696,
            "time": 20.4375,
            "velocity": 0.3937007874015748
          },
          {
            "duration": 0.1875,
            "durationTicks": 144,
            "midi": 43,
            "name": "G2",
            "ticks": 15840,
            "time": 20.625,
            "velocity": 0.3937007874015748
          },
          {
            "duration": 0.1875,
            "durationTicks": 144,
            "midi": 55,
            "name": "G3",
            "ticks": 15840,
            "time": 20.625,
            "velocity": 0.3937007874015748
          },
          {
            "duration": 0.1875,
            "durationTicks": 144,
            "midi": 45,
            "name": "A2",
            "ticks": 15984,
            "time": 20.8125,
            "velocity": 0.3937007874015748
          },
          {
            "duration": 0.1875,
            "durationTicks": 144,
            "midi": 57,
            "name": "A3",
            "ticks": 15984,
            "time": 20.8125,
            "velocity": 0.3937007874015748
          },
          {
            "duration": 0.375,
            "durationTicks": 288,
            "midi": 59,
            "name": "B3",
            "ticks": 16128,
            "time": 21,
            "velocity": 0.3937007874015748
          },
          {
            "duration": 0.375,
            "durationTicks": 288,
            "midi": 47,
            "name": "B2",
            "ticks": 16128,
            "time": 21,
            "velocity": 0.3937007874015748
          },
          {
            "duration": 0.375,
            "durationTicks": 288,
            "midi": 48,
            "name": "C3",
            "ticks": 16416,
            "time": 21.375,
            "velocity": 0.3937007874015748
          },
          {
            "duration": 0.375,
            "durationTicks": 288,
            "midi": 60,
            "name": "C4",
            "ticks": 16416,
            "time": 21.375,
            "velocity": 0.3937007874015748
          },
          {
            "duration": 1.5625,
            "durationTicks": 1200,
            "midi": 59,
            "name": "B3",
            "ticks": 16704,
            "time": 21.75,
            "velocity": 0.3937007874015748
          },
          {
            "duration": 1.5625,
            "durationTicks": 1200,
            "midi": 47,
            "name": "B2",
            "ticks": 16704,
            "time": 21.75,
            "velocity": 0.3937007874015748
          },
          {
            "duration": 0.375,
            "durationTicks": 288,
            "midi": 52,
            "name": "E3",
            "ticks": 19296,
            "time": 25.125,
            "velocity": 0.3937007874015748
          },
          {
            "duration": 0.375,
            "durationTicks": 288,
            "midi": 64,
            "name": "E4",
            "ticks": 19296,
            "time": 25.125,
            "velocity": 0.3937007874015748
          },
          {
            "duration": 0.1875,
            "durationTicks": 144,
            "midi": 50,
            "name": "D3",
            "ticks": 19584,
            "time": 25.5,
            "velocity": 0.3937007874015748
          },
          {
            "duration": 0.1875,
            "durationTicks": 144,
            "midi": 62,
            "name": "D4",
            "ticks": 19584,
            "time": 25.5,
            "velocity": 0.3937007874015748
          },
          {
            "duration": 0.1875,
            "durationTicks": 144,
            "midi": 48,
            "name": "C3",
            "ticks": 19728,
            "time": 25.6875,
            "velocity": 0.3937007874015748
          },
          {
            "duration": 0.1875,
            "durationTicks": 144,
            "midi": 60,
            "name": "C4",
            "ticks": 19728,
            "time": 25.6875,
            "velocity": 0.3937007874015748
          },
          {
            "duration": 0.375,
            "durationTicks": 288,
            "midi": 47,
            "name": "B2",
            "ticks": 19872,
            "time": 25.875,
            "velocity": 0.3937007874015748
          },
          {
            "duration": 0.375,
            "durationTicks": 288,
            "midi": 59,
            "name": "B3",
            "ticks": 19872,
            "time": 25.875,
            "velocity": 0.3937007874015748
          },
          {
            "duration": 0.375,
            "durationTicks": 288,
            "midi": 47,
            "name": "B2",
            "ticks": 20160,
            "time": 26.25,
            "velocity": 0.3937007874015748
          },
          {
            "duration": 0.375,
            "durationTicks": 288,
            "midi": 59,
            "name": "B3",
            "ticks": 20160,
            "time": 26.25,
            "velocity": 0.3937007874015748
          },
          {
            "duration": 0.1875,
            "durationTicks": 144,
            "midi": 60,
            "name": "C4",
            "ticks": 20448,
            "time": 26.625,
            "velocity": 0.3937007874015748
          },
          {
            "duration": 0.1875,
            "durationTicks": 144,
            "midi": 48,
            "name": "C3",
            "ticks": 20448,
            "time": 26.625,
            "velocity": 0.3937007874015748
          },
          {
            "duration": 0.375,
            "durationTicks": 288,
            "midi": 59,
            "name": "B3",
            "ticks": 20592,
            "time": 26.8125,
            "velocity": 0.3937007874015748
          },
          {
            "duration": 0.375,
            "durationTicks": 288,
            "midi": 47,
            "name": "B2",
            "ticks": 20592,
            "time": 26.8125,
            "velocity": 0.3937007874015748
          },
          {
            "duration": 0.1875,
            "durationTicks": 144,
            "midi": 57,
            "name": "A3",
            "ticks": 20880,
            "time": 27.1875,
            "velocity": 0.3937007874015748
          },
          {
            "duration": 0.1875,
            "durationTicks": 144,
            "midi": 45,
            "name": "A2",
            "ticks": 20880,
            "time": 27.1875,
            "velocity": 0.3937007874015748
          },
          {
            "duration": 0.1875,
            "durationTicks": 144,
            "midi": 55,
            "name": "G3",
            "ticks": 21024,
            "time": 27.375,
            "velocity": 0.3937007874015748
          },
          {
            "duration": 0.1875,
            "durationTicks": 144,
            "midi": 43,
            "name": "G2",
            "ticks": 21024,
            "time": 27.375,
            "velocity": 0.3937007874015748
          },
          {
            "duration": 0.1875,
            "durationTicks": 144,
            "midi": 45,
            "name": "A2",
            "ticks": 21168,
            "time": 27.5625,
            "velocity": 0.3937007874015748
          },
          {
            "duration": 0.1875,
            "durationTicks": 144,
            "midi": 57,
            "name": "A3",
            "ticks": 21168,
            "time": 27.5625,
            "velocity": 0.3937007874015748
          },
          {
            "duration": 0.375,
            "durationTicks": 288,
            "midi": 59,
            "name": "B3",
            "ticks": 21312,
            "time": 27.75,
            "velocity": 0.3937007874015748
          },
          {
            "duration": 0.375,
            "durationTicks": 288,
            "midi": 47,
            "name": "B2",
            "ticks": 21312,
            "time": 27.75,
            "velocity": 0.3937007874015748
          },
          {
            "duration": 0.1875,
            "durationTicks": 144,
            "midi": 60,
            "name": "C4",
            "ticks": 21600,
            "time": 28.125,
            "velocity": 0.3937007874015748
          },
          {
            "duration": 0.1875,
            "durationTicks": 144,
            "midi": 48,
            "name": "C3",
            "ticks": 21600,
            "time": 28.125,
            "velocity": 0.3937007874015748
          },
          {
            "duration": 0.375,
            "durationTicks": 288,
            "midi": 59,
            "name": "B3",
            "ticks": 21744,
            "time": 28.3125,
            "velocity": 0.3937007874015748
          },
          {
            "duration": 0.375,
            "durationTicks": 288,
            "midi": 47,
            "name": "B2",
            "ticks": 21744,
            "time": 28.3125,
            "velocity": 0.3937007874015748
          },
          {
            "duration": 0.1875,
            "durationTicks": 144,
            "midi": 45,
            "name": "A2",
            "ticks": 22032,
            "time": 28.6875,
            "velocity": 0.3937007874015748
          },
          {
            "duration": 0.1875,
            "durationTicks": 144,
            "midi": 57,
            "name": "A3",
            "ticks": 22032,
            "time": 28.6875,
            "velocity": 0.3937007874015748
          },
          {
            "duration": 0.1875,
            "durationTicks": 144,
            "midi": 55,
            "name": "G3",
            "ticks": 22176,
            "time": 28.875,
            "velocity": 0.3937007874015748
          },
          {
            "duration": 0.1875,
            "durationTicks": 144,
            "midi": 43,
            "name": "G2",
            "ticks": 22176,
            "time": 28.875,
            "velocity": 0.3937007874015748
          },
          {
            "duration": 0.1875,
            "durationTicks": 144,
            "midi": 57,
            "name": "A3",
            "ticks": 22320,
            "time": 29.0625,
            "velocity": 0.3937007874015748
          },
          {
            "duration": 0.1875,
            "durationTicks": 144,
            "midi": 45,
            "name": "A2",
            "ticks": 22320,
            "time": 29.0625,
            "velocity": 0.3937007874015748
          },
          {
            "duration": 0.375,
            "durationTicks": 288,
            "midi": 59,
            "name": "B3",
            "ticks": 22464,
            "time": 29.25,
            "velocity": 0.3937007874015748
          },
          {
            "duration": 0.375,
            "durationTicks": 288,
            "midi": 47,
            "name": "B2",
            "ticks": 22464,
            "time": 29.25,
            "velocity": 0.3937007874015748
          },
          {
            "duration": 0.375,
            "durationTicks": 288,
            "midi": 48,
            "name": "C3",
            "ticks": 22752,
            "time": 29.625,
            "velocity": 0.3937007874015748
          },
          {
            "duration": 0.375,
            "durationTicks": 288,
            "midi": 60,
            "name": "C4",
            "ticks": 22752,
            "time": 29.625,
            "velocity": 0.3937007874015748
          },
          {
            "duration": 1.5625,
            "durationTicks": 1200,
            "midi": 47,
            "name": "B2",
            "ticks": 23040,
            "time": 30,
            "velocity": 0.3937007874015748
          },
          {
            "duration": 1.5625,
            "durationTicks": 1200,
            "midi": 59,
            "name": "B3",
            "ticks": 23040,
            "time": 30,
            "velocity": 0.3937007874015748
          },
          {
            "duration": 0.1875,
            "durationTicks": 144,
            "midi": 47,
            "name": "B2",
            "ticks": 50832,
            "time": 66.1875,
            "velocity": 0.3937007874015748
          },
          {
            "duration": 0.1875,
            "durationTicks": 144,
            "midi": 59,
            "name": "B3",
            "ticks": 50832,
            "time": 66.1875,
            "velocity": 0.3937007874015748
          },
          {
            "duration": 0.1875,
            "durationTicks": 144,
            "midi": 59,
            "name": "B3",
            "ticks": 50976,
            "time": 66.375,
            "velocity": 0.3937007874015748
          },
          {
            "duration": 0.1875,
            "durationTicks": 144,
            "midi": 47,
            "name": "B2",
            "ticks": 50976,
            "time": 66.375,
            "velocity": 0.3937007874015748
          },
          {
            "duration": 0.1875,
            "durationTicks": 144,
            "midi": 45,
            "name": "A2",
            "ticks": 51120,
            "time": 66.5625,
            "velocity": 0.3937007874015748
          },
          {
            "duration": 0.1875,
            "durationTicks": 144,
            "midi": 57,
            "name": "A3",
            "ticks": 51120,
            "time": 66.5625,
            "velocity": 0.3937007874015748
          },
          {
            "duration": 0.1875,
            "durationTicks": 144,
            "midi": 47,
            "name": "B2",
            "ticks": 51264,
            "time": 66.75,
            "velocity": 0.3937007874015748
          },
          {
            "duration": 0.1875,
            "durationTicks": 144,
            "midi": 59,
            "name": "B3",
            "ticks": 51264,
            "time": 66.75,
            "velocity": 0.3937007874015748
          },
          {
            "duration": 0.3125,
            "durationTicks": 240,
            "midi": 43,
            "name": "G2",
            "ticks": 51408,
            "time": 66.9375,
            "velocity": 0.3937007874015748
          },
          {
            "duration": 0.3125,
            "durationTicks": 240,
            "midi": 55,
            "name": "G3",
            "ticks": 51408,
            "time": 66.9375,
            "velocity": 0.3937007874015748
          },
          {
            "duration": 0.375,
            "durationTicks": 288,
            "midi": 48,
            "name": "C3",
            "ticks": 51696,
            "time": 67.3125,
            "velocity": 0.3937007874015748
          },
          {
            "duration": 0.375,
            "durationTicks": 288,
            "midi": 60,
            "name": "C4",
            "ticks": 51696,
            "time": 67.3125,
            "velocity": 0.3937007874015748
          },
          {
            "duration": 0.1875,
            "durationTicks": 144,
            "midi": 59,
            "name": "B3",
            "ticks": 51984,
            "time": 67.6875,
            "velocity": 0.3937007874015748
          },
          {
            "duration": 0.1875,
            "durationTicks": 144,
            "midi": 47,
            "name": "B2",
            "ticks": 51984,
            "time": 67.6875,
            "velocity": 0.3937007874015748
          },
          {
            "duration": 0.1875,
            "durationTicks": 144,
            "midi": 48,
            "name": "C3",
            "ticks": 52128,
            "time": 67.875,
            "velocity": 0.3937007874015748
          },
          {
            "duration": 0.1875,
            "durationTicks": 144,
            "midi": 60,
            "name": "C4",
            "ticks": 52128,
            "time": 67.875,
            "velocity": 0.3937007874015748
          },
          {
            "duration": 0.1875,
            "durationTicks": 144,
            "midi": 47,
            "name": "B2",
            "ticks": 52272,
            "time": 68.0625,
            "velocity": 0.3937007874015748
          },
          {
            "duration": 0.1875,
            "durationTicks": 144,
            "midi": 59,
            "name": "B3",
            "ticks": 52272,
            "time": 68.0625,
            "velocity": 0.3937007874015748
          },
          {
            "duration": 0.1875,
            "durationTicks": 144,
            "midi": 48,
            "name": "C3",
            "ticks": 52416,
            "time": 68.25,
            "velocity": 0.3937007874015748
          },
          {
            "duration": 0.1875,
            "durationTicks": 144,
            "midi": 60,
            "name": "C4",
            "ticks": 52416,
            "time": 68.25,
            "velocity": 0.3937007874015748
          },
          {
            "duration": 0.1875,
            "durationTicks": 144,
            "midi": 47,
            "name": "B2",
            "ticks": 52560,
            "time": 68.4375,
            "velocity": 0.3937007874015748
          },
          {
            "duration": 0.1875,
            "durationTicks": 144,
            "midi": 59,
            "name": "B3",
            "ticks": 52560,
            "time": 68.4375,
            "velocity": 0.3937007874015748
          },
          {
            "duration": 0.1875,
            "durationTicks": 144,
            "midi": 47,
            "name": "B2",
            "ticks": 52848,
            "time": 68.8125,
            "velocity": 0.3937007874015748
          },
          {
            "duration": 0.1875,
            "durationTicks": 144,
            "midi": 59,
            "name": "B3",
            "ticks": 52848,
            "time": 68.8125,
            "velocity": 0.3937007874015748
          },
          {
            "duration": 0.1875,
            "durationTicks": 144,
            "midi": 48,
            "name": "C3",
            "ticks": 52992,
            "time": 69,
            "velocity": 0.3937007874015748
          },
          {
            "duration": 0.1875,
            "durationTicks": 144,
            "midi": 60,
            "name": "C4",
            "ticks": 52992,
            "time": 69,
            "velocity": 0.3937007874015748
          },
          {
            "duration": 0.1875,
            "durationTicks": 144,
            "midi": 47,
            "name": "B2",
            "ticks": 53136,
            "time": 69.1875,
            "velocity": 0.3937007874015748
          },
          {
            "duration": 0.1875,
            "durationTicks": 144,
            "midi": 59,
            "name": "B3",
            "ticks": 53136,
            "time": 69.1875,
            "velocity": 0.3937007874015748
          },
          {
            "duration": 0.1875,
            "durationTicks": 144,
            "midi": 60,
            "name": "C4",
            "ticks": 53280,
            "time": 69.375,
            "velocity": 0.3937007874015748
          },
          {
            "duration": 0.1875,
            "durationTicks": 144,
            "midi": 48,
            "name": "C3",
            "ticks": 53280,
            "time": 69.375,
            "velocity": 0.3937007874015748
          },
          {
            "duration": 0.1875,
            "durationTicks": 144,
            "midi": 59,
            "name": "B3",
            "ticks": 53424,
            "time": 69.5625,
            "velocity": 0.3937007874015748
          },
          {
            "duration": 0.1875,
            "durationTicks": 144,
            "midi": 47,
            "name": "B2",
            "ticks": 53424,
            "time": 69.5625,
            "velocity": 0.3937007874015748
          },
          {
            "duration": 0.1875,
            "durationTicks": 144,
            "midi": 48,
            "name": "C3",
            "ticks": 53568,
            "time": 69.75,
            "velocity": 0.3937007874015748
          },
          {
            "duration": 0.1875,
            "durationTicks": 144,
            "midi": 60,
            "name": "C4",
            "ticks": 53568,
            "time": 69.75,
            "velocity": 0.3937007874015748
          },
          {
            "duration": 0.1875,
            "durationTicks": 144,
            "midi": 59,
            "name": "B3",
            "ticks": 53712,
            "time": 69.9375,
            "velocity": 0.3937007874015748
          },
          {
            "duration": 0.1875,
            "durationTicks": 144,
            "midi": 47,
            "name": "B2",
            "ticks": 53712,
            "time": 69.9375,
            "velocity": 0.3937007874015748
          },
          {
            "duration": 0.1875,
            "durationTicks": 144,
            "midi": 48,
            "name": "C3",
            "ticks": 53856,
            "time": 70.125,
            "velocity": 0.3937007874015748
          },
          {
            "duration": 0.1875,
            "durationTicks": 144,
            "midi": 60,
            "name": "C4",
            "ticks": 53856,
            "time": 70.125,
            "velocity": 0.3937007874015748
          },
          {
            "duration": 0.1875,
            "durationTicks": 144,
            "midi": 47,
            "name": "B2",
            "ticks": 54000,
            "time": 70.3125,
            "velocity": 0.3937007874015748
          },
          {
            "duration": 0.1875,
            "durationTicks": 144,
            "midi": 59,
            "name": "B3",
            "ticks": 54000,
            "time": 70.3125,
            "velocity": 0.3937007874015748
          },
          {
            "duration": 0.1875,
            "durationTicks": 144,
            "midi": 62,
            "name": "D4",
            "ticks": 54144,
            "time": 70.5,
            "velocity": 0.3937007874015748
          },
          {
            "duration": 0.1875,
            "durationTicks": 144,
            "midi": 50,
            "name": "D3",
            "ticks": 54144,
            "time": 70.5,
            "velocity": 0.3937007874015748
          },
          {
            "duration": 0.1875,
            "durationTicks": 144,
            "midi": 47,
            "name": "B2",
            "ticks": 54288,
            "time": 70.6875,
            "velocity": 0.3937007874015748
          },
          {
            "duration": 0.1875,
            "durationTicks": 144,
            "midi": 59,
            "name": "B3",
            "ticks": 54288,
            "time": 70.6875,
            "velocity": 0.3937007874015748
          },
          {
            "duration": 0.375,
            "durationTicks": 288,
            "midi": 59,
            "name": "B3",
            "ticks": 54432,
            "time": 70.875,
            "velocity": 0.3937007874015748
          },
          {
            "duration": 0.375,
            "durationTicks": 288,
            "midi": 47,
            "name": "B2",
            "ticks": 54432,
            "time": 70.875,
            "velocity": 0.3937007874015748
          },
          {
            "duration": 0.375,
            "durationTicks": 288,
            "midi": 59,
            "name": "B3",
            "ticks": 54720,
            "time": 71.25,
            "velocity": 0.3937007874015748
          },
          {
            "duration": 0.375,
            "durationTicks": 288,
            "midi": 47,
            "name": "B2",
            "ticks": 54720,
            "time": 71.25,
            "velocity": 0.3937007874015748
          },
          {
            "duration": 0.1875,
            "durationTicks": 144,
            "midi": 62,
            "name": "D4",
            "ticks": 55008,
            "time": 71.625,
            "velocity": 0.3937007874015748
          },
          {
            "duration": 0.1875,
            "durationTicks": 144,
            "midi": 50,
            "name": "D3",
            "ticks": 55008,
            "time": 71.625,
            "velocity": 0.3937007874015748
          },
          {
            "duration": 0.5625,
            "durationTicks": 432,
            "midi": 59,
            "name": "B3",
            "ticks": 55152,
            "time": 71.8125,
            "velocity": 0.3937007874015748
          },
          {
            "duration": 0.5625,
            "durationTicks": 432,
            "midi": 47,
            "name": "B2",
            "ticks": 55152,
            "time": 71.8125,
            "velocity": 0.3937007874015748
          },
          {
            "duration": 0.1875,
            "durationTicks": 144,
            "midi": 50,
            "name": "D3",
            "ticks": 55584,
            "time": 72.375,
            "velocity": 0.3937007874015748
          },
          {
            "duration": 0.1875,
            "durationTicks": 144,
            "midi": 62,
            "name": "D4",
            "ticks": 55584,
            "time": 72.375,
            "velocity": 0.3937007874015748
          },
          {
            "duration": 0.5625,
            "durationTicks": 432,
            "midi": 47,
            "name": "B2",
            "ticks": 55728,
            "time": 72.5625,
            "velocity": 0.3937007874015748
          },
          {
            "duration": 0.5625,
            "durationTicks": 432,
            "midi": 59,
            "name": "B3",
            "ticks": 55728,
            "time": 72.5625,
            "velocity": 0.3937007874015748
          },
          {
            "duration": 0.1875,
            "durationTicks": 144,
            "midi": 62,
            "name": "D4",
            "ticks": 56160,
            "time": 73.125,
            "velocity": 0.3937007874015748
          },
          {
            "duration": 0.1875,
            "durationTicks": 144,
            "midi": 50,
            "name": "D3",
            "ticks": 56160,
            "time": 73.125,
            "velocity": 0.3937007874015748
          },
          {
            "duration": 0.375,
            "durationTicks": 288,
            "midi": 47,
            "name": "B2",
            "ticks": 56304,
            "time": 73.3125,
            "velocity": 0.3937007874015748
          },
          {
            "duration": 0.375,
            "durationTicks": 288,
            "midi": 59,
            "name": "B3",
            "ticks": 56304,
            "time": 73.3125,
            "velocity": 0.3937007874015748
          },
          {
            "duration": 0.1875,
            "durationTicks": 144,
            "midi": 62,
            "name": "D4",
            "ticks": 56592,
            "time": 73.6875,
            "velocity": 0.3937007874015748
          },
          {
            "duration": 0.1875,
            "durationTicks": 144,
            "midi": 50,
            "name": "D3",
            "ticks": 56592,
            "time": 73.6875,
            "velocity": 0.3937007874015748
          },
          {
            "duration": 0.1875,
            "durationTicks": 144,
            "midi": 59,
            "name": "B3",
            "ticks": 56736,
            "time": 73.875,
            "velocity": 0.3937007874015748
          },
          {
            "duration": 0.1875,
            "durationTicks": 144,
            "midi": 47,
            "name": "B2",
            "ticks": 56736,
            "time": 73.875,
            "velocity": 0.3937007874015748
          },
          {
            "duration": 0.1875,
            "durationTicks": 144,
            "midi": 50,
            "name": "D3",
            "ticks": 56880,
            "time": 74.0625,
            "velocity": 0.3937007874015748
          },
          {
            "duration": 0.1875,
            "durationTicks": 144,
            "midi": 62,
            "name": "D4",
            "ticks": 56880,
            "time": 74.0625,
            "velocity": 0.3937007874015748
          },
          {
            "duration": 0.1875,
            "durationTicks": 144,
            "midi": 47,
            "name": "B2",
            "ticks": 57168,
            "time": 74.4375,
            "velocity": 0.3937007874015748
          },
          {
            "duration": 0.1875,
            "durationTicks": 144,
            "midi": 59,
            "name": "B3",
            "ticks": 57168,
            "time": 74.4375,
            "velocity": 0.3937007874015748
          },
          {
            "duration": 0.1875,
            "durationTicks": 144,
            "midi": 47,
            "name": "B2",
            "ticks": 57312,
            "time": 74.625,
            "velocity": 0.3937007874015748
          },
          {
            "duration": 0.1875,
            "durationTicks": 144,
            "midi": 59,
            "name": "B3",
            "ticks": 57312,
            "time": 74.625,
            "velocity": 0.3937007874015748
          },
          {
            "duration": 0.1875,
            "durationTicks": 144,
            "midi": 58,
            "name": "A#3",
            "ticks": 57456,
            "time": 74.8125,
            "velocity": 0.3937007874015748
          },
          {
            "duration": 0.1875,
            "durationTicks": 144,
            "midi": 46,
            "name": "A#2",
            "ticks": 57456,
            "time": 74.8125,
            "velocity": 0.3937007874015748
          },
          {
            "duration": 0.1875,
            "durationTicks": 144,
            "midi": 59,
            "name": "B3",
            "ticks": 57600,
            "time": 75,
            "velocity": 0.3937007874015748
          },
          {
            "duration": 0.1875,
            "durationTicks": 144,
            "midi": 47,
            "name": "B2",
            "ticks": 57600,
            "time": 75,
            "velocity": 0.3937007874015748
          },
          {
            "duration": 0.3125,
            "durationTicks": 240,
            "midi": 55,
            "name": "G3",
            "ticks": 57744,
            "time": 75.1875,
            "velocity": 0.3937007874015748
          },
          {
            "duration": 0.3125,
            "durationTicks": 240,
            "midi": 43,
            "name": "G2",
            "ticks": 57744,
            "time": 75.1875,
            "velocity": 0.3937007874015748
          },
          {
            "duration": 0.375,
            "durationTicks": 288,
            "midi": 60,
            "name": "C4",
            "ticks": 58032,
            "time": 75.5625,
            "velocity": 0.3937007874015748
          },
          {
            "duration": 0.375,
            "durationTicks": 288,
            "midi": 48,
            "name": "C3",
            "ticks": 58032,
            "time": 75.5625,
            "velocity": 0.3937007874015748
          },
          {
            "duration": 0.1875,
            "durationTicks": 144,
            "midi": 59,
            "name": "B3",
            "ticks": 58320,
            "time": 75.9375,
            "velocity": 0.3937007874015748
          },
          {
            "duration": 0.1875,
            "durationTicks": 144,
            "midi": 47,
            "name": "B2",
            "ticks": 58320,
            "time": 75.9375,
            "velocity": 0.3937007874015748
          },
          {
            "duration": 0.1875,
            "durationTicks": 144,
            "midi": 60,
            "name": "C4",
            "ticks": 58464,
            "time": 76.125,
            "velocity": 0.3937007874015748
          },
          {
            "duration": 0.1875,
            "durationTicks": 144,
            "midi": 48,
            "name": "C3",
            "ticks": 58464,
            "time": 76.125,
            "velocity": 0.3937007874015748
          },
          {
            "duration": 0.1875,
            "durationTicks": 144,
            "midi": 59,
            "name": "B3",
            "ticks": 58608,
            "time": 76.3125,
            "velocity": 0.3937007874015748
          },
          {
            "duration": 0.1875,
            "durationTicks": 144,
            "midi": 47,
            "name": "B2",
            "ticks": 58608,
            "time": 76.3125,
            "velocity": 0.3937007874015748
          },
          {
            "duration": 0.1875,
            "durationTicks": 144,
            "midi": 48,
            "name": "C3",
            "ticks": 58752,
            "time": 76.5,
            "velocity": 0.3937007874015748
          },
          {
            "duration": 0.1875,
            "durationTicks": 144,
            "midi": 60,
            "name": "C4",
            "ticks": 58752,
            "time": 76.5,
            "velocity": 0.3937007874015748
          },
          {
            "duration": 0.1875,
            "durationTicks": 144,
            "midi": 48,
            "name": "C3",
            "ticks": 58896,
            "time": 76.6875,
            "velocity": 0.3937007874015748
          },
          {
            "duration": 0.1875,
            "durationTicks": 144,
            "midi": 60,
            "name": "C4",
            "ticks": 58896,
            "time": 76.6875,
            "velocity": 0.3937007874015748
          },
          {
            "duration": 0.1875,
            "durationTicks": 144,
            "midi": 47,
            "name": "B2",
            "ticks": 59184,
            "time": 77.0625,
            "velocity": 0.3937007874015748
          },
          {
            "duration": 0.1875,
            "durationTicks": 144,
            "midi": 59,
            "name": "B3",
            "ticks": 59184,
            "time": 77.0625,
            "velocity": 0.3937007874015748
          },
          {
            "duration": 0.1875,
            "durationTicks": 144,
            "midi": 48,
            "name": "C3",
            "ticks": 59328,
            "time": 77.25,
            "velocity": 0.3937007874015748
          },
          {
            "duration": 0.1875,
            "durationTicks": 144,
            "midi": 60,
            "name": "C4",
            "ticks": 59328,
            "time": 77.25,
            "velocity": 0.3937007874015748
          },
          {
            "duration": 0.1875,
            "durationTicks": 144,
            "midi": 47,
            "name": "B2",
            "ticks": 59472,
            "time": 77.4375,
            "velocity": 0.3937007874015748
          },
          {
            "duration": 0.1875,
            "durationTicks": 144,
            "midi": 59,
            "name": "B3",
            "ticks": 59472,
            "time": 77.4375,
            "velocity": 0.3937007874015748
          },
          {
            "duration": 0.1875,
            "durationTicks": 144,
            "midi": 48,
            "name": "C3",
            "ticks": 59616,
            "time": 77.625,
            "velocity": 0.3937007874015748
          },
          {
            "duration": 0.1875,
            "durationTicks": 144,
            "midi": 60,
            "name": "C4",
            "ticks": 59616,
            "time": 77.625,
            "velocity": 0.3937007874015748
          },
          {
            "duration": 0.1875,
            "durationTicks": 144,
            "midi": 59,
            "name": "B3",
            "ticks": 59760,
            "time": 77.8125,
            "velocity": 0.3937007874015748
          },
          {
            "duration": 0.1875,
            "durationTicks": 144,
            "midi": 47,
            "name": "B2",
            "ticks": 59760,
            "time": 77.8125,
            "velocity": 0.3937007874015748
          },
          {
            "duration": 0.1875,
            "durationTicks": 144,
            "midi": 48,
            "name": "C3",
            "ticks": 59904,
            "time": 78,
            "velocity": 0.3937007874015748
          },
          {
            "duration": 0.1875,
            "durationTicks": 144,
            "midi": 60,
            "name": "C4",
            "ticks": 59904,
            "time": 78,
            "velocity": 0.3937007874015748
          },
          {
            "duration": 0.1875,
            "durationTicks": 144,
            "midi": 47,
            "name": "B2",
            "ticks": 60048,
            "time": 78.1875,
            "velocity": 0.3937007874015748
          },
          {
            "duration": 0.1875,
            "durationTicks": 144,
            "midi": 59,
            "name": "B3",
            "ticks": 60048,
            "time": 78.1875,
            "velocity": 0.3937007874015748
          },
          {
            "duration": 0.1875,
            "durationTicks": 144,
            "midi": 60,
            "name": "C4",
            "ticks": 60192,
            "time": 78.375,
            "velocity": 0.3937007874015748
          },
          {
            "duration": 0.1875,
            "durationTicks": 144,
            "midi": 48,
            "name": "C3",
            "ticks": 60192,
            "time": 78.375,
            "velocity": 0.3937007874015748
          },
          {
            "duration": 0.1875,
            "durationTicks": 144,
            "midi": 47,
            "name": "B2",
            "ticks": 60336,
            "time": 78.5625,
            "velocity": 0.3937007874015748
          },
          {
            "duration": 0.1875,
            "durationTicks": 144,
            "midi": 59,
            "name": "B3",
            "ticks": 60336,
            "time": 78.5625,
            "velocity": 0.3937007874015748
          },
          {
            "duration": 0.1875,
            "durationTicks": 144,
            "midi": 62,
            "name": "D4",
            "ticks": 60480,
            "time": 78.75,
            "velocity": 0.3937007874015748
          },
          {
            "duration": 0.1875,
            "durationTicks": 144,
            "midi": 50,
            "name": "D3",
            "ticks": 60480,
            "time": 78.75,
            "velocity": 0.3937007874015748
          },
          {
            "duration": 0.1875,
            "durationTicks": 144,
            "midi": 47,
            "name": "B2",
            "ticks": 60624,
            "time": 78.9375,
            "velocity": 0.3937007874015748
          },
          {
            "duration": 0.1875,
            "durationTicks": 144,
            "midi": 59,
            "name": "B3",
            "ticks": 60624,
            "time": 78.9375,
            "velocity": 0.3937007874015748
          },
          {
            "duration": 0.375,
            "durationTicks": 288,
            "midi": 47,
            "name": "B2",
            "ticks": 60768,
            "time": 79.125,
            "velocity": 0.3937007874015748
          },
          {
            "duration": 0.375,
            "durationTicks": 288,
            "midi": 59,
            "name": "B3",
            "ticks": 60768,
            "time": 79.125,
            "velocity": 0.3937007874015748
          },
          {
            "duration": 0.375,
            "durationTicks": 288,
            "midi": 59,
            "name": "B3",
            "ticks": 61056,
            "time": 79.5,
            "velocity": 0.3937007874015748
          },
          {
            "duration": 0.375,
            "durationTicks": 288,
            "midi": 47,
            "name": "B2",
            "ticks": 61056,
            "time": 79.5,
            "velocity": 0.3937007874015748
          },
          {
            "duration": 0.1875,
            "durationTicks": 144,
            "midi": 62,
            "name": "D4",
            "ticks": 61344,
            "time": 79.875,
            "velocity": 0.3937007874015748
          },
          {
            "duration": 0.1875,
            "durationTicks": 144,
            "midi": 50,
            "name": "D3",
            "ticks": 61344,
            "time": 79.875,
            "velocity": 0.3937007874015748
          },
          {
            "duration": 0.5625,
            "durationTicks": 432,
            "midi": 59,
            "name": "B3",
            "ticks": 61488,
            "time": 80.0625,
            "velocity": 0.3937007874015748
          },
          {
            "duration": 0.5625,
            "durationTicks": 432,
            "midi": 47,
            "name": "B2",
            "ticks": 61488,
            "time": 80.0625,
            "velocity": 0.3937007874015748
          },
          {
            "duration": 0.1875,
            "durationTicks": 144,
            "midi": 62,
            "name": "D4",
            "ticks": 61920,
            "time": 80.625,
            "velocity": 0.3937007874015748
          },
          {
            "duration": 0.1875,
            "durationTicks": 144,
            "midi": 50,
            "name": "D3",
            "ticks": 61920,
            "time": 80.625,
            "velocity": 0.3937007874015748
          },
          {
            "duration": 0.5625,
            "durationTicks": 432,
            "midi": 59,
            "name": "B3",
            "ticks": 62064,
            "time": 80.8125,
            "velocity": 0.3937007874015748
          },
          {
            "duration": 0.5625,
            "durationTicks": 432,
            "midi": 47,
            "name": "B2",
            "ticks": 62064,
            "time": 80.8125,
            "velocity": 0.3937007874015748
          },
          {
            "duration": 0.1875,
            "durationTicks": 144,
            "midi": 62,
            "name": "D4",
            "ticks": 62496,
            "time": 81.375,
            "velocity": 0.3937007874015748
          },
          {
            "duration": 0.1875,
            "durationTicks": 144,
            "midi": 50,
            "name": "D3",
            "ticks": 62496,
            "time": 81.375,
            "velocity": 0.3937007874015748
          },
          {
            "duration": 0.375,
            "durationTicks": 288,
            "midi": 47,
            "name": "B2",
            "ticks": 62640,
            "time": 81.5625,
            "velocity": 0.3937007874015748
          },
          {
            "duration": 0.375,
            "durationTicks": 288,
            "midi": 59,
            "name": "B3",
            "ticks": 62640,
            "time": 81.5625,
            "velocity": 0.3937007874015748
          },
          {
            "duration": 0.1875,
            "durationTicks": 144,
            "midi": 50,
            "name": "D3",
            "ticks": 62928,
            "time": 81.9375,
            "velocity": 0.3937007874015748
          },
          {
            "duration": 0.1875,
            "durationTicks": 144,
            "midi": 62,
            "name": "D4",
            "ticks": 62928,
            "time": 81.9375,
            "velocity": 0.3937007874015748
          },
          {
            "duration": 0.1875,
            "durationTicks": 144,
            "midi": 59,
            "name": "B3",
            "ticks": 63072,
            "time": 82.125,
            "velocity": 0.3937007874015748
          },
          {
            "duration": 0.1875,
            "durationTicks": 144,
            "midi": 47,
            "name": "B2",
            "ticks": 63072,
            "time": 82.125,
            "velocity": 0.3937007874015748
          },
          {
            "duration": 0.1875,
            "durationTicks": 144,
            "midi": 50,
            "name": "D3",
            "ticks": 63216,
            "time": 82.3125,
            "velocity": 0.3937007874015748
          },
          {
            "duration": 0.1875,
            "durationTicks": 144,
            "midi": 62,
            "name": "D4",
            "ticks": 63216,
            "time": 82.3125,
            "velocity": 0.3937007874015748
          },
          {
            "duration": 0.1875,
            "durationTicks": 144,
            "midi": 59,
            "name": "B3",
            "ticks": 63504,
            "time": 82.6875,
            "velocity": 0.3937007874015748
          },
          {
            "duration": 0.1875,
            "durationTicks": 144,
            "midi": 47,
            "name": "B2",
            "ticks": 63504,
            "time": 82.6875,
            "velocity": 0.3937007874015748
          },
          {
            "duration": 0.1875,
            "durationTicks": 144,
            "midi": 59,
            "name": "B3",
            "ticks": 63648,
            "time": 82.875,
            "velocity": 0.3937007874015748
          },
          {
            "duration": 0.1875,
            "durationTicks": 144,
            "midi": 47,
            "name": "B2",
            "ticks": 63648,
            "time": 82.875,
            "velocity": 0.3937007874015748
          },
          {
            "duration": 0.1875,
            "durationTicks": 144,
            "midi": 46,
            "name": "A#2",
            "ticks": 63792,
            "time": 83.0625,
            "velocity": 0.3937007874015748
          },
          {
            "duration": 0.1875,
            "durationTicks": 144,
            "midi": 58,
            "name": "A#3",
            "ticks": 63792,
            "time": 83.0625,
            "velocity": 0.3937007874015748
          },
          {
            "duration": 0.1875,
            "durationTicks": 144,
            "midi": 47,
            "name": "B2",
            "ticks": 63936,
            "time": 83.25,
            "velocity": 0.3937007874015748
          },
          {
            "duration": 0.1875,
            "durationTicks": 144,
            "midi": 59,
            "name": "B3",
            "ticks": 63936,
            "time": 83.25,
            "velocity": 0.3937007874015748
          },
          {
            "duration": 0.1875,
            "durationTicks": 144,
            "midi": 55,
            "name": "G3",
            "ticks": 64080,
            "time": 83.4375,
            "velocity": 0.3937007874015748
          },
          {
            "duration": 0.1875,
            "durationTicks": 144,
            "midi": 43,
            "name": "G2",
            "ticks": 64080,
            "time": 83.4375,
            "velocity": 0.3937007874015748
          },
          {
            "duration": 0.125,
            "durationTicks": 96,
            "midi": 47,
            "name": "B2",
            "ticks": 65520,
            "time": 85.3125,
            "velocity": 0.3937007874015748
          },
          {
            "duration": 0.125,
            "durationTicks": 96,
            "midi": 59,
            "name": "B3",
            "ticks": 65520,
            "time": 85.3125,
            "velocity": 0.3937007874015748
          },
          {
            "duration": 0.125,
            "durationTicks": 96,
            "midi": 48,
            "name": "C3",
            "ticks": 65664,
            "time": 85.5,
            "velocity": 0.3937007874015748
          },
          {
            "duration": 0.125,
            "durationTicks": 96,
            "midi": 60,
            "name": "C4",
            "ticks": 65664,
            "time": 85.5,
            "velocity": 0.3937007874015748
          },
          {
            "duration": 0.125,
            "durationTicks": 96,
            "midi": 47,
            "name": "B2",
            "ticks": 65808,
            "time": 85.6875,
            "velocity": 0.3937007874015748
          },
          {
            "duration": 0.125,
            "durationTicks": 96,
            "midi": 59,
            "name": "B3",
            "ticks": 65808,
            "time": 85.6875,
            "velocity": 0.3937007874015748
          },
          {
            "duration": 0.125,
            "durationTicks": 96,
            "midi": 59,
            "name": "B3",
            "ticks": 66096,
            "time": 86.0625,
            "velocity": 0.3937007874015748
          },
          {
            "duration": 0.125,
            "durationTicks": 96,
            "midi": 47,
            "name": "B2",
            "ticks": 66096,
            "time": 86.0625,
            "velocity": 0.3937007874015748
          },
          {
            "duration": 0.125,
            "durationTicks": 96,
            "midi": 48,
            "name": "C3",
            "ticks": 66240,
            "time": 86.25,
            "velocity": 0.3937007874015748
          },
          {
            "duration": 0.125,
            "durationTicks": 96,
            "midi": 60,
            "name": "C4",
            "ticks": 66240,
            "time": 86.25,
            "velocity": 0.3937007874015748
          },
          {
            "duration": 0.125,
            "durationTicks": 96,
            "midi": 47,
            "name": "B2",
            "ticks": 66384,
            "time": 86.4375,
            "velocity": 0.3937007874015748
          },
          {
            "duration": 0.125,
            "durationTicks": 96,
            "midi": 59,
            "name": "B3",
            "ticks": 66384,
            "time": 86.4375,
            "velocity": 0.3937007874015748
          },
          {
            "duration": 0.125,
            "durationTicks": 96,
            "midi": 59,
            "name": "B3",
            "ticks": 66672,
            "time": 86.8125,
            "velocity": 0.3937007874015748
          },
          {
            "duration": 0.125,
            "durationTicks": 96,
            "midi": 47,
            "name": "B2",
            "ticks": 66672,
            "time": 86.8125,
            "velocity": 0.3937007874015748
          },
          {
            "duration": 0.125,
            "durationTicks": 96,
            "midi": 50,
            "name": "D3",
            "ticks": 66816,
            "time": 87,
            "velocity": 0.3937007874015748
          },
          {
            "duration": 0.125,
            "durationTicks": 96,
            "midi": 62,
            "name": "D4",
            "ticks": 66816,
            "time": 87,
            "velocity": 0.3937007874015748
          },
          {
            "duration": 0.125,
            "durationTicks": 96,
            "midi": 47,
            "name": "B2",
            "ticks": 66960,
            "time": 87.1875,
            "velocity": 0.3937007874015748
          },
          {
            "duration": 0.125,
            "durationTicks": 96,
            "midi": 59,
            "name": "B3",
            "ticks": 66960,
            "time": 87.1875,
            "velocity": 0.3937007874015748
          },
          {
            "duration": 0.125,
            "durationTicks": 96,
            "midi": 47,
            "name": "B2",
            "ticks": 67248,
            "time": 87.5625,
            "velocity": 0.3937007874015748
          },
          {
            "duration": 0.125,
            "durationTicks": 96,
            "midi": 59,
            "name": "B3",
            "ticks": 67248,
            "time": 87.5625,
            "velocity": 0.3937007874015748
          },
          {
            "duration": 0.125,
            "durationTicks": 96,
            "midi": 50,
            "name": "D3",
            "ticks": 67392,
            "time": 87.75,
            "velocity": 0.3937007874015748
          },
          {
            "duration": 0.125,
            "durationTicks": 96,
            "midi": 62,
            "name": "D4",
            "ticks": 67392,
            "time": 87.75,
            "velocity": 0.3937007874015748
          },
          {
            "duration": 0.125,
            "durationTicks": 96,
            "midi": 47,
            "name": "B2",
            "ticks": 67536,
            "time": 87.9375,
            "velocity": 0.3937007874015748
          },
          {
            "duration": 0.125,
            "durationTicks": 96,
            "midi": 59,
            "name": "B3",
            "ticks": 67536,
            "time": 87.9375,
            "velocity": 0.3937007874015748
          },
          {
            "duration": 0.125,
            "durationTicks": 96,
            "midi": 71,
            "name": "B4",
            "ticks": 67680,
            "time": 88.125,
            "velocity": 0.3937007874015748
          },
          {
            "duration": 0.125,
            "durationTicks": 96,
            "midi": 59,
            "name": "B3",
            "ticks": 67680,
            "time": 88.125,
            "velocity": 0.3937007874015748
          },
          {
            "duration": 0.125,
            "durationTicks": 96,
            "midi": 69,
            "name": "A4",
            "ticks": 67824,
            "time": 88.3125,
            "velocity": 0.3937007874015748
          },
          {
            "duration": 0.125,
            "durationTicks": 96,
            "midi": 59,
            "name": "B3",
            "ticks": 67824,
            "time": 88.3125,
            "velocity": 0.3937007874015748
          },
          {
            "duration": 0.125,
            "durationTicks": 96,
            "midi": 47,
            "name": "B2",
            "ticks": 67824,
            "time": 88.3125,
            "velocity": 0.3937007874015748
          },
          {
            "duration": 0.125,
            "durationTicks": 96,
            "midi": 57,
            "name": "A3",
            "ticks": 67824,
            "time": 88.3125,
            "velocity": 0.3937007874015748
          },
          {
            "duration": 0.125,
            "durationTicks": 96,
            "midi": 62,
            "name": "D4",
            "ticks": 67968,
            "time": 88.5,
            "velocity": 0.3937007874015748
          },
          {
            "duration": 0.125,
            "durationTicks": 96,
            "midi": 50,
            "name": "D3",
            "ticks": 67968,
            "time": 88.5,
            "velocity": 0.3937007874015748
          },
          {
            "duration": 0.125,
            "durationTicks": 96,
            "midi": 59,
            "name": "B3",
            "ticks": 68112,
            "time": 88.6875,
            "velocity": 0.3937007874015748
          },
          {
            "duration": 0.125,
            "durationTicks": 96,
            "midi": 59,
            "name": "B3",
            "ticks": 68112,
            "time": 88.6875,
            "velocity": 0.3937007874015748
          },
          {
            "duration": 0.125,
            "durationTicks": 96,
            "midi": 71,
            "name": "B4",
            "ticks": 68112,
            "time": 88.6875,
            "velocity": 0.3937007874015748
          },
          {
            "duration": 0.125,
            "durationTicks": 96,
            "midi": 47,
            "name": "B2",
            "ticks": 68112,
            "time": 88.6875,
            "velocity": 0.3937007874015748
          },
          {
            "duration": 0.125,
            "durationTicks": 96,
            "midi": 57,
            "name": "A3",
            "ticks": 68256,
            "time": 88.875,
            "velocity": 0.3937007874015748
          },
          {
            "duration": 0.125,
            "durationTicks": 96,
            "midi": 69,
            "name": "A4",
            "ticks": 68256,
            "time": 88.875,
            "velocity": 0.3937007874015748
          },
          {
            "duration": 0.1875,
            "durationTicks": 144,
            "midi": 59,
            "name": "B3",
            "ticks": 69840,
            "time": 90.9375,
            "velocity": 0.3937007874015748
          },
          {
            "duration": 0.1875,
            "durationTicks": 144,
            "midi": 47,
            "name": "B2",
            "ticks": 69840,
            "time": 90.9375,
            "velocity": 0.3937007874015748
          },
          {
            "duration": 0.0625,
            "durationTicks": 48,
            "midi": 59,
            "name": "B3",
            "ticks": 69984,
            "time": 91.125,
            "velocity": 0.3937007874015748
          },
          {
            "duration": 0.1875,
            "durationTicks": 144,
            "midi": 59,
            "name": "B3",
            "ticks": 69984,
            "time": 91.125,
            "velocity": 0.3937007874015748
          },
          {
            "duration": 0.0625,
            "durationTicks": 48,
            "midi": 47,
            "name": "B2",
            "ticks": 69984,
            "time": 91.125,
            "velocity": 0.3937007874015748
          },
          {
            "duration": 0.1875,
            "durationTicks": 144,
            "midi": 47,
            "name": "B2",
            "ticks": 69984,
            "time": 91.125,
            "velocity": 0.3937007874015748
          },
          {
            "duration": 0.1875,
            "durationTicks": 144,
            "midi": 55,
            "name": "G3",
            "ticks": 70128,
            "time": 91.3125,
            "velocity": 0.3937007874015748
          },
          {
            "duration": 0.1875,
            "durationTicks": 144,
            "midi": 43,
            "name": "G2",
            "ticks": 70128,
            "time": 91.3125,
            "velocity": 0.3937007874015748
          },
          {
            "duration": 0.1875,
            "durationTicks": 144,
            "midi": 59,
            "name": "B3",
            "ticks": 70272,
            "time": 91.5,
            "velocity": 0.3937007874015748
          },
          {
            "duration": 0.1875,
            "durationTicks": 144,
            "midi": 47,
            "name": "B2",
            "ticks": 70272,
            "time": 91.5,
            "velocity": 0.3937007874015748
          },
          {
            "duration": 0.375,
            "durationTicks": 288,
            "midi": 60,
            "name": "C4",
            "ticks": 70704,
            "time": 92.0625,
            "velocity": 0.3937007874015748
          },
          {
            "duration": 0.375,
            "durationTicks": 288,
            "midi": 48,
            "name": "C3",
            "ticks": 70704,
            "time": 92.0625,
            "velocity": 0.3937007874015748
          },
          {
            "duration": 0.1875,
            "durationTicks": 144,
            "midi": 47,
            "name": "B2",
            "ticks": 70992,
            "time": 92.4375,
            "velocity": 0.3937007874015748
          },
          {
            "duration": 0.1875,
            "durationTicks": 144,
            "midi": 59,
            "name": "B3",
            "ticks": 70992,
            "time": 92.4375,
            "velocity": 0.3937007874015748
          },
          {
            "duration": 0.0625,
            "durationTicks": 48,
            "midi": 60,
            "name": "C4",
            "ticks": 71136,
            "time": 92.625,
            "velocity": 0.3937007874015748
          },
          {
            "duration": 0.0625,
            "durationTicks": 48,
            "midi": 48,
            "name": "C3",
            "ticks": 71136,
            "time": 92.625,
            "velocity": 0.3937007874015748
          },
          {
            "duration": 0.1875,
            "durationTicks": 144,
            "midi": 60,
            "name": "C4",
            "ticks": 71136,
            "time": 92.625,
            "velocity": 0.3937007874015748
          },
          {
            "duration": 0.1875,
            "durationTicks": 144,
            "midi": 48,
            "name": "C3",
            "ticks": 71136,
            "time": 92.625,
            "velocity": 0.3937007874015748
          },
          {
            "duration": 0.1875,
            "durationTicks": 144,
            "midi": 47,
            "name": "B2",
            "ticks": 71280,
            "time": 92.8125,
            "velocity": 0.3937007874015748
          },
          {
            "duration": 0.1875,
            "durationTicks": 144,
            "midi": 59,
            "name": "B3",
            "ticks": 71280,
            "time": 92.8125,
            "velocity": 0.3937007874015748
          },
          {
            "duration": 0.1875,
            "durationTicks": 144,
            "midi": 48,
            "name": "C3",
            "ticks": 71424,
            "time": 93,
            "velocity": 0.3937007874015748
          },
          {
            "duration": 0.1875,
            "durationTicks": 144,
            "midi": 60,
            "name": "C4",
            "ticks": 71424,
            "time": 93,
            "velocity": 0.3937007874015748
          },
          {
            "duration": 0.1875,
            "durationTicks": 144,
            "midi": 47,
            "name": "B2",
            "ticks": 71568,
            "time": 93.1875,
            "velocity": 0.3937007874015748
          },
          {
            "duration": 0.1875,
            "durationTicks": 144,
            "midi": 59,
            "name": "B3",
            "ticks": 71568,
            "time": 93.1875,
            "velocity": 0.3937007874015748
          },
          {
            "duration": 0.1875,
            "durationTicks": 144,
            "midi": 59,
            "name": "B3",
            "ticks": 71856,
            "time": 93.5625,
            "velocity": 0.3937007874015748
          },
          {
            "duration": 0.1875,
            "durationTicks": 144,
            "midi": 47,
            "name": "B2",
            "ticks": 71856,
            "time": 93.5625,
            "velocity": 0.3937007874015748
          },
          {
            "duration": 0.0625,
            "durationTicks": 48,
            "midi": 48,
            "name": "C3",
            "ticks": 72000,
            "time": 93.75,
            "velocity": 0.3937007874015748
          },
          {
            "duration": 0.0625,
            "durationTicks": 48,
            "midi": 60,
            "name": "C4",
            "ticks": 72000,
            "time": 93.75,
            "velocity": 0.3937007874015748
          },
          {
            "duration": 0.1875,
            "durationTicks": 144,
            "midi": 60,
            "name": "C4",
            "ticks": 72000,
            "time": 93.75,
            "velocity": 0.3937007874015748
          },
          {
            "duration": 0.1875,
            "durationTicks": 144,
            "midi": 48,
            "name": "C3",
            "ticks": 72000,
            "time": 93.75,
            "velocity": 0.3937007874015748
          },
          {
            "duration": 0.1875,
            "durationTicks": 144,
            "midi": 47,
            "name": "B2",
            "ticks": 72144,
            "time": 93.9375,
            "velocity": 0.3937007874015748
          },
          {
            "duration": 0.1875,
            "durationTicks": 144,
            "midi": 59,
            "name": "B3",
            "ticks": 72144,
            "time": 93.9375,
            "velocity": 0.3937007874015748
          },
          {
            "duration": 0.0625,
            "durationTicks": 48,
            "midi": 48,
            "name": "C3",
            "ticks": 72288,
            "time": 94.125,
            "velocity": 0.3937007874015748
          },
          {
            "duration": 0.0625,
            "durationTicks": 48,
            "midi": 60,
            "name": "C4",
            "ticks": 72288,
            "time": 94.125,
            "velocity": 0.3937007874015748
          },
          {
            "duration": 0.1875,
            "durationTicks": 144,
            "midi": 48,
            "name": "C3",
            "ticks": 72288,
            "time": 94.125,
            "velocity": 0.3937007874015748
          },
          {
            "duration": 0.1875,
            "durationTicks": 144,
            "midi": 60,
            "name": "C4",
            "ticks": 72288,
            "time": 94.125,
            "velocity": 0.3937007874015748
          },
          {
            "duration": 0.1875,
            "durationTicks": 144,
            "midi": 59,
            "name": "B3",
            "ticks": 72432,
            "time": 94.3125,
            "velocity": 0.3937007874015748
          },
          {
            "duration": 0.1875,
            "durationTicks": 144,
            "midi": 47,
            "name": "B2",
            "ticks": 72432,
            "time": 94.3125,
            "velocity": 0.3937007874015748
          },
          {
            "duration": 0.1875,
            "durationTicks": 144,
            "midi": 60,
            "name": "C4",
            "ticks": 72576,
            "time": 94.5,
            "velocity": 0.3937007874015748
          },
          {
            "duration": 0.1875,
            "durationTicks": 144,
            "midi": 48,
            "name": "C3",
            "ticks": 72576,
            "time": 94.5,
            "velocity": 0.3937007874015748
          },
          {
            "duration": 0.1875,
            "durationTicks": 144,
            "midi": 47,
            "name": "B2",
            "ticks": 72720,
            "time": 94.6875,
            "velocity": 0.3937007874015748
          },
          {
            "duration": 0.1875,
            "durationTicks": 144,
            "midi": 59,
            "name": "B3",
            "ticks": 72720,
            "time": 94.6875,
            "velocity": 0.3937007874015748
          },
          {
            "duration": 0.0625,
            "durationTicks": 48,
            "midi": 60,
            "name": "C4",
            "ticks": 72864,
            "time": 94.875,
            "velocity": 0.3937007874015748
          },
          {
            "duration": 0.0625,
            "durationTicks": 48,
            "midi": 48,
            "name": "C3",
            "ticks": 72864,
            "time": 94.875,
            "velocity": 0.3937007874015748
          },
          {
            "duration": 0.1875,
            "durationTicks": 144,
            "midi": 60,
            "name": "C4",
            "ticks": 72864,
            "time": 94.875,
            "velocity": 0.3937007874015748
          },
          {
            "duration": 0.1875,
            "durationTicks": 144,
            "midi": 48,
            "name": "C3",
            "ticks": 72864,
            "time": 94.875,
            "velocity": 0.3937007874015748
          },
          {
            "duration": 0.1875,
            "durationTicks": 144,
            "midi": 59,
            "name": "B3",
            "ticks": 73008,
            "time": 95.0625,
            "velocity": 0.3937007874015748
          },
          {
            "duration": 0.1875,
            "durationTicks": 144,
            "midi": 47,
            "name": "B2",
            "ticks": 73008,
            "time": 95.0625,
            "velocity": 0.3937007874015748
          },
          {
            "duration": 0.0625,
            "durationTicks": 48,
            "midi": 62,
            "name": "D4",
            "ticks": 73152,
            "time": 95.25,
            "velocity": 0.3937007874015748
          },
          {
            "duration": 0.0625,
            "durationTicks": 48,
            "midi": 50,
            "name": "D3",
            "ticks": 73152,
            "time": 95.25,
            "velocity": 0.3937007874015748
          },
          {
            "duration": 0.1875,
            "durationTicks": 144,
            "midi": 50,
            "name": "D3",
            "ticks": 73152,
            "time": 95.25,
            "velocity": 0.3937007874015748
          },
          {
            "duration": 0.1875,
            "durationTicks": 144,
            "midi": 62,
            "name": "D4",
            "ticks": 73152,
            "time": 95.25,
            "velocity": 0.3937007874015748
          },
          {
            "duration": 0.125,
            "durationTicks": 96,
            "midi": 47,
            "name": "B2",
            "ticks": 73296,
            "time": 95.4375,
            "velocity": 0.3937007874015748
          },
          {
            "duration": 0.125,
            "durationTicks": 96,
            "midi": 59,
            "name": "B3",
            "ticks": 73296,
            "time": 95.4375,
            "velocity": 0.3937007874015748
          },
          {
            "duration": 0.3125,
            "durationTicks": 240,
            "midi": 47,
            "name": "B2",
            "ticks": 73440,
            "time": 95.625,
            "velocity": 0.3937007874015748
          },
          {
            "duration": 0.3125,
            "durationTicks": 240,
            "midi": 59,
            "name": "B3",
            "ticks": 73440,
            "time": 95.625,
            "velocity": 0.3937007874015748
          },
          {
            "duration": 0.1875,
            "durationTicks": 144,
            "midi": 59,
            "name": "B3",
            "ticks": 73728,
            "time": 96,
            "velocity": 0.3937007874015748
          },
          {
            "duration": 0.1875,
            "durationTicks": 144,
            "midi": 47,
            "name": "B2",
            "ticks": 73728,
            "time": 96,
            "velocity": 0.3937007874015748
          },
          {
            "duration": 0.46875,
            "durationTicks": 360,
            "midi": 47,
            "name": "B2",
            "ticks": 73872,
            "time": 96.1875,
            "velocity": 0.3937007874015748
          },
          {
            "duration": 0.46875,
            "durationTicks": 360,
            "midi": 59,
            "name": "B3",
            "ticks": 73872,
            "time": 96.1875,
            "velocity": 0.3937007874015748
          },
          {
            "duration": 0.46875,
            "durationTicks": 360,
            "midi": 40,
            "name": "E2",
            "ticks": 74232,
            "time": 96.65625,
            "velocity": 0.3937007874015748
          },
          {
            "duration": 0.46875,
            "durationTicks": 360,
            "midi": 52,
            "name": "E3",
            "ticks": 74232,
            "time": 96.65625,
            "velocity": 0.3937007874015748
          },
          {
            "duration": 0.125,
            "durationTicks": 96,
            "midi": 64,
            "name": "E4",
            "ticks": 76752,
            "time": 99.9375,
            "velocity": 0.3937007874015748
          },
          {
            "duration": 0.125,
            "durationTicks": 96,
            "midi": 52,
            "name": "E3",
            "ticks": 76752,
            "time": 99.9375,
            "velocity": 0.3937007874015748
          },
          {
            "duration": 0.125,
            "durationTicks": 96,
            "midi": 50,
            "name": "D3",
            "ticks": 77040,
            "time": 100.3125,
            "velocity": 0.3937007874015748
          },
          {
            "duration": 0.125,
            "durationTicks": 96,
            "midi": 62,
            "name": "D4",
            "ticks": 77040,
            "time": 100.3125,
            "velocity": 0.3937007874015748
          },
          {
            "duration": 0.125,
            "durationTicks": 96,
            "midi": 52,
            "name": "E3",
            "ticks": 80784,
            "time": 105.1875,
            "velocity": 0.3937007874015748
          },
          {
            "duration": 0.125,
            "durationTicks": 96,
            "midi": 64,
            "name": "E4",
            "ticks": 80784,
            "time": 105.1875,
            "velocity": 0.3937007874015748
          },
          {
            "duration": 0.125,
            "durationTicks": 96,
            "midi": 50,
            "name": "D3",
            "ticks": 81072,
            "time": 105.5625,
            "velocity": 0.3937007874015748
          },
          {
            "duration": 0.125,
            "durationTicks": 96,
            "midi": 62,
            "name": "D4",
            "ticks": 81072,
            "time": 105.5625,
            "velocity": 0.3937007874015748
          },
          {
            "duration": 0.125,
            "durationTicks": 96,
            "midi": 59,
            "name": "B3",
            "ticks": 81648,
            "time": 106.3125,
            "velocity": 0.3937007874015748
          },
          {
            "duration": 0.125,
            "durationTicks": 96,
            "midi": 47,
            "name": "B2",
            "ticks": 81648,
            "time": 106.3125,
            "velocity": 0.3937007874015748
          },
          {
            "duration": 0.125,
            "durationTicks": 96,
            "midi": 59,
            "name": "B3",
            "ticks": 81792,
            "time": 106.5,
            "velocity": 0.3937007874015748
          },
          {
            "duration": 0.125,
            "durationTicks": 96,
            "midi": 47,
            "name": "B2",
            "ticks": 81792,
            "time": 106.5,
            "velocity": 0.3937007874015748
          },
          {
            "duration": 0.125,
            "durationTicks": 96,
            "midi": 59,
            "name": "B3",
            "ticks": 81936,
            "time": 106.6875,
            "velocity": 0.3937007874015748
          },
          {
            "duration": 0.125,
            "durationTicks": 96,
            "midi": 47,
            "name": "B2",
            "ticks": 81936,
            "time": 106.6875,
            "velocity": 0.3937007874015748
          },
          {
            "duration": 0.125,
            "durationTicks": 96,
            "midi": 59,
            "name": "B3",
            "ticks": 82080,
            "time": 106.875,
            "velocity": 0.3937007874015748
          },
          {
            "duration": 0.125,
            "durationTicks": 96,
            "midi": 47,
            "name": "B2",
            "ticks": 82080,
            "time": 106.875,
            "velocity": 0.3937007874015748
          },
          {
            "duration": 0.125,
            "durationTicks": 96,
            "midi": 59,
            "name": "B3",
            "ticks": 82224,
            "time": 107.0625,
            "velocity": 0.3937007874015748
          },
          {
            "duration": 0.125,
            "durationTicks": 96,
            "midi": 47,
            "name": "B2",
            "ticks": 82224,
            "time": 107.0625,
            "velocity": 0.3937007874015748
          },
          {
            "duration": 0.125,
            "durationTicks": 96,
            "midi": 62,
            "name": "D4",
            "ticks": 82368,
            "time": 107.25,
            "velocity": 0.3937007874015748
          },
          {
            "duration": 0.125,
            "durationTicks": 96,
            "midi": 50,
            "name": "D3",
            "ticks": 82368,
            "time": 107.25,
            "velocity": 0.3937007874015748
          },
          {
            "duration": 0.125,
            "durationTicks": 96,
            "midi": 47,
            "name": "B2",
            "ticks": 82512,
            "time": 107.4375,
            "velocity": 0.3937007874015748
          },
          {
            "duration": 0.125,
            "durationTicks": 96,
            "midi": 59,
            "name": "B3",
            "ticks": 82512,
            "time": 107.4375,
            "velocity": 0.3937007874015748
          },
          {
            "duration": 0.125,
            "durationTicks": 96,
            "midi": 64,
            "name": "E4",
            "ticks": 83088,
            "time": 108.1875,
            "velocity": 0.3937007874015748
          },
          {
            "duration": 0.125,
            "durationTicks": 96,
            "midi": 52,
            "name": "E3",
            "ticks": 83088,
            "time": 108.1875,
            "velocity": 0.3937007874015748
          },
          {
            "duration": 0.125,
            "durationTicks": 96,
            "midi": 50,
            "name": "D3",
            "ticks": 83376,
            "time": 108.5625,
            "velocity": 0.3937007874015748
          },
          {
            "duration": 0.125,
            "durationTicks": 96,
            "midi": 62,
            "name": "D4",
            "ticks": 83376,
            "time": 108.5625,
            "velocity": 0.3937007874015748
          },
          {
            "duration": 0.125,
            "durationTicks": 96,
            "midi": 47,
            "name": "B2",
            "ticks": 83952,
            "time": 109.3125,
            "velocity": 0.3937007874015748
          },
          {
            "duration": 0.125,
            "durationTicks": 96,
            "midi": 59,
            "name": "B3",
            "ticks": 83952,
            "time": 109.3125,
            "velocity": 0.3937007874015748
          },
          {
            "duration": 0.125,
            "durationTicks": 96,
            "midi": 59,
            "name": "B3",
            "ticks": 84096,
            "time": 109.5,
            "velocity": 0.3937007874015748
          },
          {
            "duration": 0.125,
            "durationTicks": 96,
            "midi": 47,
            "name": "B2",
            "ticks": 84096,
            "time": 109.5,
            "velocity": 0.3937007874015748
          },
          {
            "duration": 0.125,
            "durationTicks": 96,
            "midi": 59,
            "name": "B3",
            "ticks": 84240,
            "time": 109.6875,
            "velocity": 0.3937007874015748
          },
          {
            "duration": 0.125,
            "durationTicks": 96,
            "midi": 47,
            "name": "B2",
            "ticks": 84240,
            "time": 109.6875,
            "velocity": 0.3937007874015748
          },
          {
            "duration": 0.125,
            "durationTicks": 96,
            "midi": 59,
            "name": "B3",
            "ticks": 84384,
            "time": 109.875,
            "velocity": 0.3937007874015748
          },
          {
            "duration": 0.125,
            "durationTicks": 96,
            "midi": 47,
            "name": "B2",
            "ticks": 84384,
            "time": 109.875,
            "velocity": 0.3937007874015748
          },
          {
            "duration": 0.125,
            "durationTicks": 96,
            "midi": 47,
            "name": "B2",
            "ticks": 84528,
            "time": 110.0625,
            "velocity": 0.3937007874015748
          },
          {
            "duration": 0.125,
            "durationTicks": 96,
            "midi": 59,
            "name": "B3",
            "ticks": 84528,
            "time": 110.0625,
            "velocity": 0.3937007874015748
          },
          {
            "duration": 0.125,
            "durationTicks": 96,
            "midi": 62,
            "name": "D4",
            "ticks": 84672,
            "time": 110.25,
            "velocity": 0.3937007874015748
          },
          {
            "duration": 0.125,
            "durationTicks": 96,
            "midi": 50,
            "name": "D3",
            "ticks": 84672,
            "time": 110.25,
            "velocity": 0.3937007874015748
          },
          {
            "duration": 0.125,
            "durationTicks": 96,
            "midi": 59,
            "name": "B3",
            "ticks": 84816,
            "time": 110.4375,
            "velocity": 0.3937007874015748
          },
          {
            "duration": 0.125,
            "durationTicks": 96,
            "midi": 47,
            "name": "B2",
            "ticks": 84816,
            "time": 110.4375,
            "velocity": 0.3937007874015748
          },
          {
            "duration": 0.125,
            "durationTicks": 96,
            "midi": 52,
            "name": "E3",
            "ticks": 85392,
            "time": 111.1875,
            "velocity": 0.3937007874015748
          },
          {
            "duration": 0.125,
            "durationTicks": 96,
            "midi": 64,
            "name": "E4",
            "ticks": 85392,
            "time": 111.1875,
            "velocity": 0.3937007874015748
          },
          {
            "duration": 0.125,
            "durationTicks": 96,
            "midi": 62,
            "name": "D4",
            "ticks": 85680,
            "time": 111.5625,
            "velocity": 0.3937007874015748
          },
          {
            "duration": 0.125,
            "durationTicks": 96,
            "midi": 50,
            "name": "D3",
            "ticks": 85680,
            "time": 111.5625,
            "velocity": 0.3937007874015748
          },
          {
            "duration": 0.125,
            "durationTicks": 96,
            "midi": 64,
            "name": "E4",
            "ticks": 87120,
            "time": 113.4375,
            "velocity": 0.3937007874015748
          },
          {
            "duration": 0.125,
            "durationTicks": 96,
            "midi": 52,
            "name": "E3",
            "ticks": 87120,
            "time": 113.4375,
            "velocity": 0.3937007874015748
          },
          {
            "duration": 0.125,
            "durationTicks": 96,
            "midi": 62,
            "name": "D4",
            "ticks": 87408,
            "time": 113.8125,
            "velocity": 0.3937007874015748
          },
          {
            "duration": 0.125,
            "durationTicks": 96,
            "midi": 50,
            "name": "D3",
            "ticks": 87408,
            "time": 113.8125,
            "velocity": 0.3937007874015748
          },
          {
            "duration": 0.125,
            "durationTicks": 96,
            "midi": 59,
            "name": "B3",
            "ticks": 87840,
            "time": 114.375,
            "velocity": 0.3937007874015748
          },
          {
            "duration": 0.125,
            "durationTicks": 96,
            "midi": 47,
            "name": "B2",
            "ticks": 87840,
            "time": 114.375,
            "velocity": 0.3937007874015748
          },
          {
            "duration": 0.125,
            "durationTicks": 96,
            "midi": 59,
            "name": "B3",
            "ticks": 87984,
            "time": 114.5625,
            "velocity": 0.3937007874015748
          },
          {
            "duration": 0.125,
            "durationTicks": 96,
            "midi": 47,
            "name": "B2",
            "ticks": 87984,
            "time": 114.5625,
            "velocity": 0.3937007874015748
          },
          {
            "duration": 0.125,
            "durationTicks": 96,
            "midi": 59,
            "name": "B3",
            "ticks": 88128,
            "time": 114.75,
            "velocity": 0.3937007874015748
          },
          {
            "duration": 0.125,
            "durationTicks": 96,
            "midi": 47,
            "name": "B2",
            "ticks": 88128,
            "time": 114.75,
            "velocity": 0.3937007874015748
          },
          {
            "duration": 0.125,
            "durationTicks": 96,
            "midi": 59,
            "name": "B3",
            "ticks": 88272,
            "time": 114.9375,
            "velocity": 0.3937007874015748
          },
          {
            "duration": 0.125,
            "durationTicks": 96,
            "midi": 47,
            "name": "B2",
            "ticks": 88272,
            "time": 114.9375,
            "velocity": 0.3937007874015748
          },
          {
            "duration": 0.125,
            "durationTicks": 96,
            "midi": 47,
            "name": "B2",
            "ticks": 88416,
            "time": 115.125,
            "velocity": 0.3937007874015748
          },
          {
            "duration": 0.125,
            "durationTicks": 96,
            "midi": 59,
            "name": "B3",
            "ticks": 88416,
            "time": 115.125,
            "velocity": 0.3937007874015748
          },
          {
            "duration": 0.125,
            "durationTicks": 96,
            "midi": 59,
            "name": "B3",
            "ticks": 88560,
            "time": 115.3125,
            "velocity": 0.3937007874015748
          },
          {
            "duration": 0.125,
            "durationTicks": 96,
            "midi": 47,
            "name": "B2",
            "ticks": 88560,
            "time": 115.3125,
            "velocity": 0.3937007874015748
          },
          {
            "duration": 0.125,
            "durationTicks": 96,
            "midi": 62,
            "name": "D4",
            "ticks": 88704,
            "time": 115.5,
            "velocity": 0.3937007874015748
          },
          {
            "duration": 0.125,
            "durationTicks": 96,
            "midi": 50,
            "name": "D3",
            "ticks": 88704,
            "time": 115.5,
            "velocity": 0.3937007874015748
          },
          {
            "duration": 0.125,
            "durationTicks": 96,
            "midi": 59,
            "name": "B3",
            "ticks": 88848,
            "time": 115.6875,
            "velocity": 0.3937007874015748
          },
          {
            "duration": 0.125,
            "durationTicks": 96,
            "midi": 47,
            "name": "B2",
            "ticks": 88848,
            "time": 115.6875,
            "velocity": 0.3937007874015748
          },
          {
            "duration": 0.125,
            "durationTicks": 96,
            "midi": 52,
            "name": "E3",
            "ticks": 89424,
            "time": 116.4375,
            "velocity": 0.3937007874015748
          },
          {
            "duration": 0.125,
            "durationTicks": 96,
            "midi": 64,
            "name": "E4",
            "ticks": 89424,
            "time": 116.4375,
            "velocity": 0.3937007874015748
          },
          {
            "duration": 0.125,
            "durationTicks": 96,
            "midi": 50,
            "name": "D3",
            "ticks": 89712,
            "time": 116.8125,
            "velocity": 0.3937007874015748
          },
          {
            "duration": 0.125,
            "durationTicks": 96,
            "midi": 62,
            "name": "D4",
            "ticks": 89712,
            "time": 116.8125,
            "velocity": 0.3937007874015748
          },
          {
            "duration": 0.125,
            "durationTicks": 96,
            "midi": 47,
            "name": "B2",
            "ticks": 90288,
            "time": 117.5625,
            "velocity": 0.3937007874015748
          },
          {
            "duration": 0.125,
            "durationTicks": 96,
            "midi": 59,
            "name": "B3",
            "ticks": 90288,
            "time": 117.5625,
            "velocity": 0.3937007874015748
          },
          {
            "duration": 0.125,
            "durationTicks": 96,
            "midi": 47,
            "name": "B2",
            "ticks": 90432,
            "time": 117.75,
            "velocity": 0.3937007874015748
          },
          {
            "duration": 0.125,
            "durationTicks": 96,
            "midi": 59,
            "name": "B3",
            "ticks": 90432,
            "time": 117.75,
            "velocity": 0.3937007874015748
          },
          {
            "duration": 0.125,
            "durationTicks": 96,
            "midi": 47,
            "name": "B2",
            "ticks": 90576,
            "time": 117.9375,
            "velocity": 0.3937007874015748
          },
          {
            "duration": 0.125,
            "durationTicks": 96,
            "midi": 59,
            "name": "B3",
            "ticks": 90576,
            "time": 117.9375,
            "velocity": 0.3937007874015748
          },
          {
            "duration": 0.125,
            "durationTicks": 96,
            "midi": 59,
            "name": "B3",
            "ticks": 90720,
            "time": 118.125,
            "velocity": 0.3937007874015748
          },
          {
            "duration": 0.125,
            "durationTicks": 96,
            "midi": 47,
            "name": "B2",
            "ticks": 90720,
            "time": 118.125,
            "velocity": 0.3937007874015748
          },
          {
            "duration": 0.125,
            "durationTicks": 96,
            "midi": 59,
            "name": "B3",
            "ticks": 90864,
            "time": 118.3125,
            "velocity": 0.3937007874015748
          },
          {
            "duration": 0.125,
            "durationTicks": 96,
            "midi": 47,
            "name": "B2",
            "ticks": 90864,
            "time": 118.3125,
            "velocity": 0.3937007874015748
          },
          {
            "duration": 0.125,
            "durationTicks": 96,
            "midi": 50,
            "name": "D3",
            "ticks": 91008,
            "time": 118.5,
            "velocity": 0.3937007874015748
          },
          {
            "duration": 0.125,
            "durationTicks": 96,
            "midi": 62,
            "name": "D4",
            "ticks": 91008,
            "time": 118.5,
            "velocity": 0.3937007874015748
          },
          {
            "duration": 0.125,
            "durationTicks": 96,
            "midi": 47,
            "name": "B2",
            "ticks": 91152,
            "time": 118.6875,
            "velocity": 0.3937007874015748
          },
          {
            "duration": 0.125,
            "durationTicks": 96,
            "midi": 59,
            "name": "B3",
            "ticks": 91152,
            "time": 118.6875,
            "velocity": 0.3937007874015748
          },
          {
            "duration": 0.125,
            "durationTicks": 96,
            "midi": 64,
            "name": "E4",
            "ticks": 91728,
            "time": 119.4375,
            "velocity": 0.3937007874015748
          },
          {
            "duration": 0.125,
            "durationTicks": 96,
            "midi": 52,
            "name": "E3",
            "ticks": 91728,
            "time": 119.4375,
            "velocity": 0.3937007874015748
          },
          {
            "duration": 0.125,
            "durationTicks": 96,
            "midi": 62,
            "name": "D4",
            "ticks": 92016,
            "time": 119.8125,
            "velocity": 0.3937007874015748
          },
          {
            "duration": 0.125,
            "durationTicks": 96,
            "midi": 50,
            "name": "D3",
            "ticks": 92016,
            "time": 119.8125,
            "velocity": 0.3937007874015748
          },
          {
            "duration": 0.125,
            "durationTicks": 96,
            "midi": 45,
            "name": "A2",
            "ticks": 92448,
            "time": 120.375,
            "velocity": 0.3937007874015748
          },
          {
            "duration": 0.125,
            "durationTicks": 96,
            "midi": 57,
            "name": "A3",
            "ticks": 92448,
            "time": 120.375,
            "velocity": 0.3937007874015748
          },
          {
            "duration": 0.125,
            "durationTicks": 96,
            "midi": 59,
            "name": "B3",
            "ticks": 92592,
            "time": 120.5625,
            "velocity": 0.3937007874015748
          },
          {
            "duration": 0.125,
            "durationTicks": 96,
            "midi": 47,
            "name": "B2",
            "ticks": 92592,
            "time": 120.5625,
            "velocity": 0.3937007874015748
          },
          {
            "duration": 0.125,
            "durationTicks": 96,
            "midi": 52,
            "name": "E3",
            "ticks": 93456,
            "time": 121.6875,
            "velocity": 0.3937007874015748
          },
          {
            "duration": 0.125,
            "durationTicks": 96,
            "midi": 64,
            "name": "E4",
            "ticks": 93456,
            "time": 121.6875,
            "velocity": 0.3937007874015748
          },
          {
            "duration": 0.125,
            "durationTicks": 96,
            "midi": 62,
            "name": "D4",
            "ticks": 93744,
            "time": 122.0625,
            "velocity": 0.3937007874015748
          },
          {
            "duration": 0.125,
            "durationTicks": 96,
            "midi": 50,
            "name": "D3",
            "ticks": 93744,
            "time": 122.0625,
            "velocity": 0.3937007874015748
          },
          {
            "duration": 0.125,
            "durationTicks": 96,
            "midi": 45,
            "name": "A2",
            "ticks": 94176,
            "time": 122.625,
            "velocity": 0.3937007874015748
          },
          {
            "duration": 0.125,
            "durationTicks": 96,
            "midi": 57,
            "name": "A3",
            "ticks": 94176,
            "time": 122.625,
            "velocity": 0.3937007874015748
          },
          {
            "duration": 0.125,
            "durationTicks": 96,
            "midi": 59,
            "name": "B3",
            "ticks": 94320,
            "time": 122.8125,
            "velocity": 0.3937007874015748
          },
          {
            "duration": 0.125,
            "durationTicks": 96,
            "midi": 47,
            "name": "B2",
            "ticks": 94320,
            "time": 122.8125,
            "velocity": 0.3937007874015748
          },
          {
            "duration": 0.125,
            "durationTicks": 96,
            "midi": 52,
            "name": "E3",
            "ticks": 94608,
            "time": 123.1875,
            "velocity": 0.3937007874015748
          },
          {
            "duration": 0.125,
            "durationTicks": 96,
            "midi": 64,
            "name": "E4",
            "ticks": 94608,
            "time": 123.1875,
            "velocity": 0.3937007874015748
          },
          {
            "duration": 0.125,
            "durationTicks": 96,
            "midi": 50,
            "name": "D3",
            "ticks": 94896,
            "time": 123.5625,
            "velocity": 0.3937007874015748
          },
          {
            "duration": 0.125,
            "durationTicks": 96,
            "midi": 62,
            "name": "D4",
            "ticks": 94896,
            "time": 123.5625,
            "velocity": 0.3937007874015748
          },
          {
            "duration": 0.125,
            "durationTicks": 96,
            "midi": 57,
            "name": "A3",
            "ticks": 95328,
            "time": 124.125,
            "velocity": 0.3937007874015748
          },
          {
            "duration": 0.125,
            "durationTicks": 96,
            "midi": 45,
            "name": "A2",
            "ticks": 95328,
            "time": 124.125,
            "velocity": 0.3937007874015748
          },
          {
            "duration": 0.125,
            "durationTicks": 96,
            "midi": 47,
            "name": "B2",
            "ticks": 95472,
            "time": 124.3125,
            "velocity": 0.3937007874015748
          },
          {
            "duration": 0.125,
            "durationTicks": 96,
            "midi": 59,
            "name": "B3",
            "ticks": 95472,
            "time": 124.3125,
            "velocity": 0.3937007874015748
          },
          {
            "duration": 0.125,
            "durationTicks": 96,
            "midi": 47,
            "name": "B2",
            "ticks": 95760,
            "time": 124.6875,
            "velocity": 0.3937007874015748
          },
          {
            "duration": 0.125,
            "durationTicks": 96,
            "midi": 59,
            "name": "B3",
            "ticks": 95760,
            "time": 124.6875,
            "velocity": 0.3937007874015748
          },
          {
            "duration": 0.125,
            "durationTicks": 96,
            "midi": 59,
            "name": "B3",
            "ticks": 95904,
            "time": 124.875,
            "velocity": 0.3937007874015748
          },
          {
            "duration": 0.125,
            "durationTicks": 96,
            "midi": 47,
            "name": "B2",
            "ticks": 95904,
            "time": 124.875,
            "velocity": 0.3937007874015748
          },
          {
            "duration": 0.125,
            "durationTicks": 96,
            "midi": 47,
            "name": "B2",
            "ticks": 96048,
            "time": 125.0625,
            "velocity": 0.3937007874015748
          },
          {
            "duration": 0.125,
            "durationTicks": 96,
            "midi": 59,
            "name": "B3",
            "ticks": 96048,
            "time": 125.0625,
            "velocity": 0.3937007874015748
          },
          {
            "duration": 0.125,
            "durationTicks": 96,
            "midi": 43,
            "name": "G2",
            "ticks": 96192,
            "time": 125.25,
            "velocity": 0.3937007874015748
          },
          {
            "duration": 0.125,
            "durationTicks": 96,
            "midi": 55,
            "name": "G3",
            "ticks": 96192,
            "time": 125.25,
            "velocity": 0.3937007874015748
          },
          {
            "duration": 0.125,
            "durationTicks": 96,
            "midi": 52,
            "name": "E3",
            "ticks": 96336,
            "time": 125.4375,
            "velocity": 0.3937007874015748
          },
          {
            "duration": 0.125,
            "durationTicks": 96,
            "midi": 40,
            "name": "E2",
            "ticks": 96336,
            "time": 125.4375,
            "velocity": 0.3937007874015748
          },
          {
            "duration": 0.125,
            "durationTicks": 96,
            "midi": 52,
            "name": "E3",
            "ticks": 96912,
            "time": 126.1875,
            "velocity": 0.3937007874015748
          },
          {
            "duration": 0.125,
            "durationTicks": 96,
            "midi": 64,
            "name": "E4",
            "ticks": 96912,
            "time": 126.1875,
            "velocity": 0.3937007874015748
          },
          {
            "duration": 0.125,
            "durationTicks": 96,
            "midi": 62,
            "name": "D4",
            "ticks": 97200,
            "time": 126.5625,
            "velocity": 0.3937007874015748
          },
          {
            "duration": 0.125,
            "durationTicks": 96,
            "midi": 50,
            "name": "D3",
            "ticks": 97200,
            "time": 126.5625,
            "velocity": 0.3937007874015748
          },
          {
            "duration": 0.125,
            "durationTicks": 96,
            "midi": 57,
            "name": "A3",
            "ticks": 97632,
            "time": 127.125,
            "velocity": 0.3937007874015748
          },
          {
            "duration": 0.125,
            "durationTicks": 96,
            "midi": 45,
            "name": "A2",
            "ticks": 97632,
            "time": 127.125,
            "velocity": 0.3937007874015748
          },
          {
            "duration": 0.125,
            "durationTicks": 96,
            "midi": 59,
            "name": "B3",
            "ticks": 97776,
            "time": 127.3125,
            "velocity": 0.3937007874015748
          },
          {
            "duration": 0.125,
            "durationTicks": 96,
            "midi": 47,
            "name": "B2",
            "ticks": 97776,
            "time": 127.3125,
            "velocity": 0.3937007874015748
          },
          {
            "duration": 0.125,
            "durationTicks": 96,
            "midi": 59,
            "name": "B3",
            "ticks": 98064,
            "time": 127.6875,
            "velocity": 0.3937007874015748
          },
          {
            "duration": 0.125,
            "durationTicks": 96,
            "midi": 47,
            "name": "B2",
            "ticks": 98064,
            "time": 127.6875,
            "velocity": 0.3937007874015748
          },
          {
            "duration": 0.125,
            "durationTicks": 96,
            "midi": 59,
            "name": "B3",
            "ticks": 98208,
            "time": 127.875,
            "velocity": 0.3937007874015748
          },
          {
            "duration": 0.125,
            "durationTicks": 96,
            "midi": 47,
            "name": "B2",
            "ticks": 98208,
            "time": 127.875,
            "velocity": 0.3937007874015748
          },
          {
            "duration": 0.125,
            "durationTicks": 96,
            "midi": 47,
            "name": "B2",
            "ticks": 98352,
            "time": 128.0625,
            "velocity": 0.3937007874015748
          },
          {
            "duration": 0.125,
            "durationTicks": 96,
            "midi": 59,
            "name": "B3",
            "ticks": 98352,
            "time": 128.0625,
            "velocity": 0.3937007874015748
          },
          {
            "duration": 0.125,
            "durationTicks": 96,
            "midi": 55,
            "name": "G3",
            "ticks": 98496,
            "time": 128.25,
            "velocity": 0.3937007874015748
          },
          {
            "duration": 0.125,
            "durationTicks": 96,
            "midi": 43,
            "name": "G2",
            "ticks": 98496,
            "time": 128.25,
            "velocity": 0.3937007874015748
          },
          {
            "duration": 0.125,
            "durationTicks": 96,
            "midi": 52,
            "name": "E3",
            "ticks": 98640,
            "time": 128.4375,
            "velocity": 0.3937007874015748
          },
          {
            "duration": 0.125,
            "durationTicks": 96,
            "midi": 40,
            "name": "E2",
            "ticks": 98640,
            "time": 128.4375,
            "velocity": 0.3937007874015748
          },
          {
            "duration": 0.125,
            "durationTicks": 96,
            "midi": 64,
            "name": "E4",
            "ticks": 109584,
            "time": 142.6875,
            "velocity": 0.3937007874015748
          },
          {
            "duration": 0.125,
            "durationTicks": 96,
            "midi": 52,
            "name": "E3",
            "ticks": 109584,
            "time": 142.6875,
            "velocity": 0.3937007874015748
          },
          {
            "duration": 0.125,
            "durationTicks": 96,
            "midi": 50,
            "name": "D3",
            "ticks": 109728,
            "time": 142.875,
            "velocity": 0.3937007874015748
          },
          {
            "duration": 0.125,
            "durationTicks": 96,
            "midi": 62,
            "name": "D4",
            "ticks": 109728,
            "time": 142.875,
            "velocity": 0.3937007874015748
          },
          {
            "duration": 0.125,
            "durationTicks": 96,
            "midi": 52,
            "name": "E3",
            "ticks": 109872,
            "time": 143.0625,
            "velocity": 0.3937007874015748
          },
          {
            "duration": 0.125,
            "durationTicks": 96,
            "midi": 64,
            "name": "E4",
            "ticks": 109872,
            "time": 143.0625,
            "velocity": 0.3937007874015748
          },
          {
            "duration": 0.125,
            "durationTicks": 96,
            "midi": 62,
            "name": "D4",
            "ticks": 110016,
            "time": 143.25,
            "velocity": 0.3937007874015748
          },
          {
            "duration": 0.125,
            "durationTicks": 96,
            "midi": 50,
            "name": "D3",
            "ticks": 110016,
            "time": 143.25,
            "velocity": 0.3937007874015748
          },
          {
            "duration": 0.125,
            "durationTicks": 96,
            "midi": 64,
            "name": "E4",
            "ticks": 110160,
            "time": 143.4375,
            "velocity": 0.3937007874015748
          },
          {
            "duration": 0.125,
            "durationTicks": 96,
            "midi": 52,
            "name": "E3",
            "ticks": 110160,
            "time": 143.4375,
            "velocity": 0.3937007874015748
          },
          {
            "duration": 0.125,
            "durationTicks": 96,
            "midi": 50,
            "name": "D3",
            "ticks": 110304,
            "time": 143.625,
            "velocity": 0.3937007874015748
          },
          {
            "duration": 0.125,
            "durationTicks": 96,
            "midi": 62,
            "name": "D4",
            "ticks": 110304,
            "time": 143.625,
            "velocity": 0.3937007874015748
          },
          {
            "duration": 0.125,
            "durationTicks": 96,
            "midi": 64,
            "name": "E4",
            "ticks": 110448,
            "time": 143.8125,
            "velocity": 0.3937007874015748
          },
          {
            "duration": 0.125,
            "durationTicks": 96,
            "midi": 52,
            "name": "E3",
            "ticks": 110448,
            "time": 143.8125,
            "velocity": 0.3937007874015748
          },
          {
            "duration": 0.125,
            "durationTicks": 96,
            "midi": 62,
            "name": "D4",
            "ticks": 110592,
            "time": 144,
            "velocity": 0.3937007874015748
          },
          {
            "duration": 0.125,
            "durationTicks": 96,
            "midi": 50,
            "name": "D3",
            "ticks": 110592,
            "time": 144,
            "velocity": 0.3937007874015748
          },
          {
            "duration": 0.125,
            "durationTicks": 96,
            "midi": 52,
            "name": "E3",
            "ticks": 110736,
            "time": 144.1875,
            "velocity": 0.3937007874015748
          },
          {
            "duration": 0.125,
            "durationTicks": 96,
            "midi": 64,
            "name": "E4",
            "ticks": 110736,
            "time": 144.1875,
            "velocity": 0.3937007874015748
          },
          {
            "duration": 0.125,
            "durationTicks": 96,
            "midi": 50,
            "name": "D3",
            "ticks": 110880,
            "time": 144.375,
            "velocity": 0.3937007874015748
          },
          {
            "duration": 0.125,
            "durationTicks": 96,
            "midi": 62,
            "name": "D4",
            "ticks": 110880,
            "time": 144.375,
            "velocity": 0.3937007874015748
          },
          {
            "duration": 0.125,
            "durationTicks": 96,
            "midi": 64,
            "name": "E4",
            "ticks": 111024,
            "time": 144.5625,
            "velocity": 0.3937007874015748
          },
          {
            "duration": 0.125,
            "durationTicks": 96,
            "midi": 52,
            "name": "E3",
            "ticks": 111024,
            "time": 144.5625,
            "velocity": 0.3937007874015748
          },
          {
            "duration": 0.125,
            "durationTicks": 96,
            "midi": 50,
            "name": "D3",
            "ticks": 111168,
            "time": 144.75,
            "velocity": 0.3937007874015748
          },
          {
            "duration": 0.125,
            "durationTicks": 96,
            "midi": 62,
            "name": "D4",
            "ticks": 111168,
            "time": 144.75,
            "velocity": 0.3937007874015748
          },
          {
            "duration": 0.125,
            "durationTicks": 96,
            "midi": 64,
            "name": "E4",
            "ticks": 111312,
            "time": 144.9375,
            "velocity": 0.3937007874015748
          },
          {
            "duration": 0.125,
            "durationTicks": 96,
            "midi": 52,
            "name": "E3",
            "ticks": 111312,
            "time": 144.9375,
            "velocity": 0.3937007874015748
          },
          {
            "duration": 0.125,
            "durationTicks": 96,
            "midi": 50,
            "name": "D3",
            "ticks": 111456,
            "time": 145.125,
            "velocity": 0.3937007874015748
          },
          {
            "duration": 0.125,
            "durationTicks": 96,
            "midi": 62,
            "name": "D4",
            "ticks": 111456,
            "time": 145.125,
            "velocity": 0.3937007874015748
          },
          {
            "duration": 0.125,
            "durationTicks": 96,
            "midi": 64,
            "name": "E4",
            "ticks": 111600,
            "time": 145.3125,
            "velocity": 0.3937007874015748
          },
          {
            "duration": 0.125,
            "durationTicks": 96,
            "midi": 52,
            "name": "E3",
            "ticks": 111600,
            "time": 145.3125,
            "velocity": 0.3937007874015748
          },
          {
            "duration": 0.125,
            "durationTicks": 96,
            "midi": 50,
            "name": "D3",
            "ticks": 111744,
            "time": 145.5,
            "velocity": 0.3937007874015748
          },
          {
            "duration": 0.125,
            "durationTicks": 96,
            "midi": 62,
            "name": "D4",
            "ticks": 111744,
            "time": 145.5,
            "velocity": 0.3937007874015748
          },
          {
            "duration": 0.125,
            "durationTicks": 96,
            "midi": 52,
            "name": "E3",
            "ticks": 111888,
            "time": 145.6875,
            "velocity": 0.3937007874015748
          },
          {
            "duration": 0.125,
            "durationTicks": 96,
            "midi": 64,
            "name": "E4",
            "ticks": 111888,
            "time": 145.6875,
            "velocity": 0.3937007874015748
          },
          {
            "duration": 0.125,
            "durationTicks": 96,
            "midi": 62,
            "name": "D4",
            "ticks": 112032,
            "time": 145.875,
            "velocity": 0.3937007874015748
          },
          {
            "duration": 0.125,
            "durationTicks": 96,
            "midi": 50,
            "name": "D3",
            "ticks": 112032,
            "time": 145.875,
            "velocity": 0.3937007874015748
          },
          {
            "duration": 0.125,
            "durationTicks": 96,
            "midi": 64,
            "name": "E4",
            "ticks": 112176,
            "time": 146.0625,
            "velocity": 0.3937007874015748
          },
          {
            "duration": 0.125,
            "durationTicks": 96,
            "midi": 52,
            "name": "E3",
            "ticks": 112176,
            "time": 146.0625,
            "velocity": 0.3937007874015748
          },
          {
            "duration": 0.125,
            "durationTicks": 96,
            "midi": 62,
            "name": "D4",
            "ticks": 112320,
            "time": 146.25,
            "velocity": 0.3937007874015748
          },
          {
            "duration": 0.125,
            "durationTicks": 96,
            "midi": 50,
            "name": "D3",
            "ticks": 112320,
            "time": 146.25,
            "velocity": 0.3937007874015748
          },
          {
            "duration": 0.125,
            "durationTicks": 96,
            "midi": 52,
            "name": "E3",
            "ticks": 112464,
            "time": 146.4375,
            "velocity": 0.3937007874015748
          },
          {
            "duration": 0.125,
            "durationTicks": 96,
            "midi": 64,
            "name": "E4",
            "ticks": 112464,
            "time": 146.4375,
            "velocity": 0.3937007874015748
          },
          {
            "duration": 0.125,
            "durationTicks": 96,
            "midi": 62,
            "name": "D4",
            "ticks": 112608,
            "time": 146.625,
            "velocity": 0.3937007874015748
          },
          {
            "duration": 0.125,
            "durationTicks": 96,
            "midi": 50,
            "name": "D3",
            "ticks": 112608,
            "time": 146.625,
            "velocity": 0.3937007874015748
          },
          {
            "duration": 0.125,
            "durationTicks": 96,
            "midi": 64,
            "name": "E4",
            "ticks": 112752,
            "time": 146.8125,
            "velocity": 0.3937007874015748
          },
          {
            "duration": 0.125,
            "durationTicks": 96,
            "midi": 52,
            "name": "E3",
            "ticks": 112752,
            "time": 146.8125,
            "velocity": 0.3937007874015748
          },
          {
            "duration": 0.125,
            "durationTicks": 96,
            "midi": 50,
            "name": "D3",
            "ticks": 112896,
            "time": 147,
            "velocity": 0.3937007874015748
          },
          {
            "duration": 0.125,
            "durationTicks": 96,
            "midi": 62,
            "name": "D4",
            "ticks": 112896,
            "time": 147,
            "velocity": 0.3937007874015748
          },
          {
            "duration": 0.125,
            "durationTicks": 96,
            "midi": 52,
            "name": "E3",
            "ticks": 113040,
            "time": 147.1875,
            "velocity": 0.3937007874015748
          },
          {
            "duration": 0.125,
            "durationTicks": 96,
            "midi": 64,
            "name": "E4",
            "ticks": 113040,
            "time": 147.1875,
            "velocity": 0.3937007874015748
          },
          {
            "duration": 0.125,
            "durationTicks": 96,
            "midi": 62,
            "name": "D4",
            "ticks": 113184,
            "time": 147.375,
            "velocity": 0.3937007874015748
          },
          {
            "duration": 0.125,
            "durationTicks": 96,
            "midi": 50,
            "name": "D3",
            "ticks": 113184,
            "time": 147.375,
            "velocity": 0.3937007874015748
          },
          {
            "duration": 0.125,
            "durationTicks": 96,
            "midi": 52,
            "name": "E3",
            "ticks": 113328,
            "time": 147.5625,
            "velocity": 0.3937007874015748
          },
          {
            "duration": 0.125,
            "durationTicks": 96,
            "midi": 64,
            "name": "E4",
            "ticks": 113328,
            "time": 147.5625,
            "velocity": 0.3937007874015748
          },
          {
            "duration": 0.125,
            "durationTicks": 96,
            "midi": 62,
            "name": "D4",
            "ticks": 113472,
            "time": 147.75,
            "velocity": 0.3937007874015748
          },
          {
            "duration": 0.125,
            "durationTicks": 96,
            "midi": 50,
            "name": "D3",
            "ticks": 113472,
            "time": 147.75,
            "velocity": 0.3937007874015748
          },
          {
            "duration": 0.125,
            "durationTicks": 96,
            "midi": 52,
            "name": "E3",
            "ticks": 113616,
            "time": 147.9375,
            "velocity": 0.3937007874015748
          },
          {
            "duration": 0.125,
            "durationTicks": 96,
            "midi": 66,
            "name": "F#4",
            "ticks": 113616,
            "time": 147.9375,
            "velocity": 0.3937007874015748
          },
          {
            "duration": 0.125,
            "durationTicks": 96,
            "midi": 64,
            "name": "E4",
            "ticks": 113616,
            "time": 147.9375,
            "velocity": 0.3937007874015748
          },
          {
            "duration": 0.125,
            "durationTicks": 96,
            "midi": 54,
            "name": "F#3",
            "ticks": 113616,
            "time": 147.9375,
            "velocity": 0.3937007874015748
          },
          {
            "duration": 0.125,
            "durationTicks": 96,
            "midi": 50,
            "name": "D3",
            "ticks": 113760,
            "time": 148.125,
            "velocity": 0.3937007874015748
          },
          {
            "duration": 0.125,
            "durationTicks": 96,
            "midi": 55,
            "name": "G3",
            "ticks": 113760,
            "time": 148.125,
            "velocity": 0.3937007874015748
          },
          {
            "duration": 0.125,
            "durationTicks": 96,
            "midi": 67,
            "name": "G4",
            "ticks": 113760,
            "time": 148.125,
            "velocity": 0.3937007874015748
          },
          {
            "duration": 0.125,
            "durationTicks": 96,
            "midi": 62,
            "name": "D4",
            "ticks": 113760,
            "time": 148.125,
            "velocity": 0.3937007874015748
          },
          {
            "duration": 0.125,
            "durationTicks": 96,
            "midi": 55,
            "name": "G3",
            "ticks": 113904,
            "time": 148.3125,
            "velocity": 0.3937007874015748
          },
          {
            "duration": 0.125,
            "durationTicks": 96,
            "midi": 64,
            "name": "E4",
            "ticks": 113904,
            "time": 148.3125,
            "velocity": 0.3937007874015748
          },
          {
            "duration": 0.125,
            "durationTicks": 96,
            "midi": 52,
            "name": "E3",
            "ticks": 113904,
            "time": 148.3125,
            "velocity": 0.3937007874015748
          },
          {
            "duration": 0.125,
            "durationTicks": 96,
            "midi": 43,
            "name": "G2",
            "ticks": 113904,
            "time": 148.3125,
            "velocity": 0.3937007874015748
          },
          {
            "duration": 0.125,
            "durationTicks": 96,
            "midi": 67,
            "name": "G4",
            "ticks": 128304,
            "time": 167.0625,
            "velocity": 0.3937007874015748
          },
          {
            "duration": 0.125,
            "durationTicks": 96,
            "midi": 55,
            "name": "G3",
            "ticks": 128304,
            "time": 167.0625,
            "velocity": 0.3937007874015748
          },
          {
            "duration": 0.125,
            "durationTicks": 96,
            "midi": 64,
            "name": "E4",
            "ticks": 128592,
            "time": 167.4375,
            "velocity": 0.3937007874015748
          },
          {
            "duration": 0.125,
            "durationTicks": 96,
            "midi": 52,
            "name": "E3",
            "ticks": 128592,
            "time": 167.4375,
            "velocity": 0.3937007874015748
          },
          {
            "duration": 0.125,
            "durationTicks": 96,
            "midi": 55,
            "name": "G3",
            "ticks": 131184,
            "time": 170.8125,
            "velocity": 0.3937007874015748
          },
          {
            "duration": 0.125,
            "durationTicks": 96,
            "midi": 67,
            "name": "G4",
            "ticks": 131184,
            "time": 170.8125,
            "velocity": 0.3937007874015748
          },
          {
            "duration": 0.125,
            "durationTicks": 96,
            "midi": 52,
            "name": "E3",
            "ticks": 131472,
            "time": 171.1875,
            "velocity": 0.3937007874015748
          },
          {
            "duration": 0.125,
            "durationTicks": 96,
            "midi": 64,
            "name": "E4",
            "ticks": 131472,
            "time": 171.1875,
            "velocity": 0.3937007874015748
          },
          {
            "duration": 0.125,
            "durationTicks": 96,
            "midi": 62,
            "name": "D4",
            "ticks": 137808,
            "time": 179.4375,
            "velocity": 0.3937007874015748
          },
          {
            "duration": 0.125,
            "durationTicks": 96,
            "midi": 50,
            "name": "D3",
            "ticks": 137808,
            "time": 179.4375,
            "velocity": 0.3937007874015748
          },
          {
            "duration": 0.125,
            "durationTicks": 96,
            "midi": 52,
            "name": "E3",
            "ticks": 137952,
            "time": 179.625,
            "velocity": 0.3937007874015748
          },
          {
            "duration": 0.125,
            "durationTicks": 96,
            "midi": 64,
            "name": "E4",
            "ticks": 137952,
            "time": 179.625,
            "velocity": 0.3937007874015748
          },
          {
            "duration": 0.125,
            "durationTicks": 96,
            "midi": 64,
            "name": "E4",
            "ticks": 138096,
            "time": 179.8125,
            "velocity": 0.3937007874015748
          },
          {
            "duration": 0.125,
            "durationTicks": 96,
            "midi": 52,
            "name": "E3",
            "ticks": 138096,
            "time": 179.8125,
            "velocity": 0.3937007874015748
          },
          {
            "duration": 0.125,
            "durationTicks": 96,
            "midi": 64,
            "name": "E4",
            "ticks": 138240,
            "time": 180,
            "velocity": 0.3937007874015748
          },
          {
            "duration": 0.125,
            "durationTicks": 96,
            "midi": 52,
            "name": "E3",
            "ticks": 138240,
            "time": 180,
            "velocity": 0.3937007874015748
          },
          {
            "duration": 0.125,
            "durationTicks": 96,
            "midi": 47,
            "name": "B2",
            "ticks": 138816,
            "time": 180.75,
            "velocity": 0.3937007874015748
          },
          {
            "duration": 0.125,
            "durationTicks": 96,
            "midi": 59,
            "name": "B3",
            "ticks": 138816,
            "time": 180.75,
            "velocity": 0.3937007874015748
          },
          {
            "duration": 0.125,
            "durationTicks": 96,
            "midi": 47,
            "name": "B2",
            "ticks": 138960,
            "time": 180.9375,
            "velocity": 0.3937007874015748
          },
          {
            "duration": 0.125,
            "durationTicks": 96,
            "midi": 59,
            "name": "B3",
            "ticks": 138960,
            "time": 180.9375,
            "velocity": 0.3937007874015748
          },
          {
            "duration": 0.125,
            "durationTicks": 96,
            "midi": 47,
            "name": "B2",
            "ticks": 139104,
            "time": 181.125,
            "velocity": 0.3937007874015748
          },
          {
            "duration": 0.125,
            "durationTicks": 96,
            "midi": 59,
            "name": "B3",
            "ticks": 139104,
            "time": 181.125,
            "velocity": 0.3937007874015748
          },
          {
            "duration": 0.125,
            "durationTicks": 96,
            "midi": 47,
            "name": "B2",
            "ticks": 139248,
            "time": 181.3125,
            "velocity": 0.3937007874015748
          },
          {
            "duration": 0.125,
            "durationTicks": 96,
            "midi": 59,
            "name": "B3",
            "ticks": 139248,
            "time": 181.3125,
            "velocity": 0.3937007874015748
          },
          {
            "duration": 0.3125,
            "durationTicks": 240,
            "midi": 59,
            "name": "B3",
            "ticks": 139392,
            "time": 181.5,
            "velocity": 0.3937007874015748
          },
          {
            "duration": 0.3125,
            "durationTicks": 240,
            "midi": 47,
            "name": "B2",
            "ticks": 139392,
            "time": 181.5,
            "velocity": 0.3937007874015748
          },
          {
            "duration": 0.125,
            "durationTicks": 96,
            "midi": 43,
            "name": "G2",
            "ticks": 139680,
            "time": 181.875,
            "velocity": 0.3937007874015748
          },
          {
            "duration": 0.125,
            "durationTicks": 96,
            "midi": 55,
            "name": "G3",
            "ticks": 139680,
            "time": 181.875,
            "velocity": 0.3937007874015748
          },
          {
            "duration": 0.125,
            "durationTicks": 96,
            "midi": 52,
            "name": "E3",
            "ticks": 139824,
            "time": 182.0625,
            "velocity": 0.3937007874015748
          },
          {
            "duration": 0.125,
            "durationTicks": 96,
            "midi": 40,
            "name": "E2",
            "ticks": 139824,
            "time": 182.0625,
            "velocity": 0.3937007874015748
          },
          {
            "duration": 0.125,
            "durationTicks": 96,
            "midi": 47,
            "name": "B2",
            "ticks": 141120,
            "time": 183.75,
            "velocity": 0.3937007874015748
          },
          {
            "duration": 0.125,
            "durationTicks": 96,
            "midi": 59,
            "name": "B3",
            "ticks": 141120,
            "time": 183.75,
            "velocity": 0.3937007874015748
          },
          {
            "duration": 0.125,
            "durationTicks": 96,
            "midi": 47,
            "name": "B2",
            "ticks": 141264,
            "time": 183.9375,
            "velocity": 0.3937007874015748
          },
          {
            "duration": 0.125,
            "durationTicks": 96,
            "midi": 59,
            "name": "B3",
            "ticks": 141264,
            "time": 183.9375,
            "velocity": 0.3937007874015748
          },
          {
            "duration": 0.125,
            "durationTicks": 96,
            "midi": 50,
            "name": "D3",
            "ticks": 141408,
            "time": 184.125,
            "velocity": 0.3937007874015748
          },
          {
            "duration": 0.125,
            "durationTicks": 96,
            "midi": 62,
            "name": "D4",
            "ticks": 141408,
            "time": 184.125,
            "velocity": 0.3937007874015748
          },
          {
            "duration": 0.125,
            "durationTicks": 96,
            "midi": 59,
            "name": "B3",
            "ticks": 141552,
            "time": 184.3125,
            "velocity": 0.3937007874015748
          },
          {
            "duration": 0.125,
            "durationTicks": 96,
            "midi": 47,
            "name": "B2",
            "ticks": 141552,
            "time": 184.3125,
            "velocity": 0.3937007874015748
          },
          {
            "duration": 0.3125,
            "durationTicks": 240,
            "midi": 47,
            "name": "B2",
            "ticks": 141696,
            "time": 184.5,
            "velocity": 0.3937007874015748
          },
          {
            "duration": 0.3125,
            "durationTicks": 240,
            "midi": 59,
            "name": "B3",
            "ticks": 141696,
            "time": 184.5,
            "velocity": 0.3937007874015748
          },
          {
            "duration": 0.125,
            "durationTicks": 96,
            "midi": 43,
            "name": "G2",
            "ticks": 141984,
            "time": 184.875,
            "velocity": 0.3937007874015748
          },
          {
            "duration": 0.125,
            "durationTicks": 96,
            "midi": 55,
            "name": "G3",
            "ticks": 141984,
            "time": 184.875,
            "velocity": 0.3937007874015748
          },
          {
            "duration": 0.125,
            "durationTicks": 96,
            "midi": 40,
            "name": "E2",
            "ticks": 142128,
            "time": 185.0625,
            "velocity": 0.3937007874015748
          },
          {
            "duration": 0.125,
            "durationTicks": 96,
            "midi": 52,
            "name": "E3",
            "ticks": 142128,
            "time": 185.0625,
            "velocity": 0.3937007874015748
          },
          {
            "duration": 0.125,
            "durationTicks": 96,
            "midi": 47,
            "name": "B2",
            "ticks": 147456,
            "time": 192,
            "velocity": 0.3937007874015748
          },
          {
            "duration": 0.125,
            "durationTicks": 96,
            "midi": 59,
            "name": "B3",
            "ticks": 147456,
            "time": 192,
            "velocity": 0.3937007874015748
          },
          {
            "duration": 0.125,
            "durationTicks": 96,
            "midi": 47,
            "name": "B2",
            "ticks": 147600,
            "time": 192.1875,
            "velocity": 0.3937007874015748
          },
          {
            "duration": 0.125,
            "durationTicks": 96,
            "midi": 59,
            "name": "B3",
            "ticks": 147600,
            "time": 192.1875,
            "velocity": 0.3937007874015748
          },
          {
            "duration": 0.125,
            "durationTicks": 96,
            "midi": 62,
            "name": "D4",
            "ticks": 147744,
            "time": 192.375,
            "velocity": 0.3937007874015748
          },
          {
            "duration": 0.125,
            "durationTicks": 96,
            "midi": 50,
            "name": "D3",
            "ticks": 147744,
            "time": 192.375,
            "velocity": 0.3937007874015748
          },
          {
            "duration": 0.125,
            "durationTicks": 96,
            "midi": 59,
            "name": "B3",
            "ticks": 147888,
            "time": 192.5625,
            "velocity": 0.3937007874015748
          },
          {
            "duration": 0.125,
            "durationTicks": 96,
            "midi": 47,
            "name": "B2",
            "ticks": 147888,
            "time": 192.5625,
            "velocity": 0.3937007874015748
          },
          {
            "duration": 0.3125,
            "durationTicks": 240,
            "midi": 59,
            "name": "B3",
            "ticks": 148032,
            "time": 192.75,
            "velocity": 0.3937007874015748
          },
          {
            "duration": 0.3125,
            "durationTicks": 240,
            "midi": 47,
            "name": "B2",
            "ticks": 148032,
            "time": 192.75,
            "velocity": 0.3937007874015748
          },
          {
            "duration": 0.125,
            "durationTicks": 96,
            "midi": 43,
            "name": "G2",
            "ticks": 148320,
            "time": 193.125,
            "velocity": 0.3937007874015748
          },
          {
            "duration": 0.125,
            "durationTicks": 96,
            "midi": 55,
            "name": "G3",
            "ticks": 148320,
            "time": 193.125,
            "velocity": 0.3937007874015748
          },
          {
            "duration": 0.125,
            "durationTicks": 96,
            "midi": 52,
            "name": "E3",
            "ticks": 148464,
            "time": 193.3125,
            "velocity": 0.3937007874015748
          },
          {
            "duration": 0.125,
            "durationTicks": 96,
            "midi": 40,
            "name": "E2",
            "ticks": 148464,
            "time": 193.3125,
            "velocity": 0.3937007874015748
          },
          {
            "duration": 0.125,
            "durationTicks": 96,
            "midi": 52,
            "name": "E3",
            "ticks": 151488,
            "time": 197.25,
            "velocity": 0.3937007874015748
          },
          {
            "duration": 0.125,
            "durationTicks": 96,
            "midi": 64,
            "name": "E4",
            "ticks": 151488,
            "time": 197.25,
            "velocity": 0.3937007874015748
          },
          {
            "duration": 0.125,
            "durationTicks": 96,
            "midi": 52,
            "name": "E3",
            "ticks": 151632,
            "time": 197.4375,
            "velocity": 0.3937007874015748
          },
          {
            "duration": 0.125,
            "durationTicks": 96,
            "midi": 64,
            "name": "E4",
            "ticks": 151632,
            "time": 197.4375,
            "velocity": 0.3937007874015748
          },
          {
            "duration": 0.125,
            "durationTicks": 96,
            "midi": 52,
            "name": "E3",
            "ticks": 151776,
            "time": 197.625,
            "velocity": 0.3937007874015748
          },
          {
            "duration": 0.125,
            "durationTicks": 96,
            "midi": 64,
            "name": "E4",
            "ticks": 151776,
            "time": 197.625,
            "velocity": 0.3937007874015748
          },
          {
            "duration": 0.125,
            "durationTicks": 96,
            "midi": 64,
            "name": "E4",
            "ticks": 151920,
            "time": 197.8125,
            "velocity": 0.3937007874015748
          },
          {
            "duration": 0.125,
            "durationTicks": 96,
            "midi": 52,
            "name": "E3",
            "ticks": 151920,
            "time": 197.8125,
            "velocity": 0.3937007874015748
          },
          {
            "duration": 0.125,
            "durationTicks": 96,
            "midi": 67,
            "name": "G4",
            "ticks": 152064,
            "time": 198,
            "velocity": 0.3937007874015748
          },
          {
            "duration": 0.125,
            "durationTicks": 96,
            "midi": 55,
            "name": "G3",
            "ticks": 152064,
            "time": 198,
            "velocity": 0.3937007874015748
          },
          {
            "duration": 0.125,
            "durationTicks": 96,
            "midi": 64,
            "name": "E4",
            "ticks": 152352,
            "time": 198.375,
            "velocity": 0.3937007874015748
          },
          {
            "duration": 0.125,
            "durationTicks": 96,
            "midi": 52,
            "name": "E3",
            "ticks": 152352,
            "time": 198.375,
            "velocity": 0.3937007874015748
          },
          {
            "duration": 0.125,
            "durationTicks": 96,
            "midi": 55,
            "name": "G3",
            "ticks": 153648,
            "time": 200.0625,
            "velocity": 0.3937007874015748
          },
          {
            "duration": 0.125,
            "durationTicks": 96,
            "midi": 67,
            "name": "G4",
            "ticks": 153648,
            "time": 200.0625,
            "velocity": 0.3937007874015748
          },
          {
            "duration": 0.125,
            "durationTicks": 96,
            "midi": 52,
            "name": "E3",
            "ticks": 153936,
            "time": 200.4375,
            "velocity": 0.3937007874015748
          },
          {
            "duration": 0.125,
            "durationTicks": 96,
            "midi": 64,
            "name": "E4",
            "ticks": 153936,
            "time": 200.4375,
            "velocity": 0.3937007874015748
          },
          {
            "duration": 0.125,
            "durationTicks": 96,
            "midi": 55,
            "name": "G3",
            "ticks": 157680,
            "time": 205.3125,
            "velocity": 0.3937007874015748
          },
          {
            "duration": 0.125,
            "durationTicks": 96,
            "midi": 67,
            "name": "G4",
            "ticks": 157680,
            "time": 205.3125,
            "velocity": 0.3937007874015748
          },
          {
            "duration": 0.125,
            "durationTicks": 96,
            "midi": 64,
            "name": "E4",
            "ticks": 157968,
            "time": 205.6875,
            "velocity": 0.3937007874015748
          },
          {
            "duration": 0.125,
            "durationTicks": 96,
            "midi": 52,
            "name": "E3",
            "ticks": 157968,
            "time": 205.6875,
            "velocity": 0.3937007874015748
          },
          {
            "duration": 0.125,
            "durationTicks": 96,
            "midi": 55,
            "name": "G3",
            "ticks": 159984,
            "time": 208.3125,
            "velocity": 0.3937007874015748
          },
          {
            "duration": 0.125,
            "durationTicks": 96,
            "midi": 67,
            "name": "G4",
            "ticks": 159984,
            "time": 208.3125,
            "velocity": 0.3937007874015748
          },
          {
            "duration": 0.125,
            "durationTicks": 96,
            "midi": 52,
            "name": "E3",
            "ticks": 160272,
            "time": 208.6875,
            "velocity": 0.3937007874015748
          },
          {
            "duration": 0.125,
            "durationTicks": 96,
            "midi": 64,
            "name": "E4",
            "ticks": 160272,
            "time": 208.6875,
            "velocity": 0.3937007874015748
          },
          {
            "duration": 0.125,
            "durationTicks": 96,
            "midi": 55,
            "name": "G3",
            "ticks": 164016,
            "time": 213.5625,
            "velocity": 0.3937007874015748
          },
          {
            "duration": 0.125,
            "durationTicks": 96,
            "midi": 67,
            "name": "G4",
            "ticks": 164016,
            "time": 213.5625,
            "velocity": 0.3937007874015748
          },
          {
            "duration": 0.125,
            "durationTicks": 96,
            "midi": 64,
            "name": "E4",
            "ticks": 164304,
            "time": 213.9375,
            "velocity": 0.3937007874015748
          },
          {
            "duration": 0.125,
            "durationTicks": 96,
            "midi": 52,
            "name": "E3",
            "ticks": 164304,
            "time": 213.9375,
            "velocity": 0.3937007874015748
          },
          {
            "duration": 0.125,
            "durationTicks": 96,
            "midi": 64,
            "name": "E4",
            "ticks": 166320,
            "time": 216.5625,
            "velocity": 0.3937007874015748
          },
          {
            "duration": 0.125,
            "durationTicks": 96,
            "midi": 52,
            "name": "E3",
            "ticks": 166320,
            "time": 216.5625,
            "velocity": 0.3937007874015748
          },
          {
            "duration": 0.125,
            "durationTicks": 96,
            "midi": 50,
            "name": "D3",
            "ticks": 166608,
            "time": 216.9375,
            "velocity": 0.3937007874015748
          },
          {
            "duration": 0.125,
            "durationTicks": 96,
            "midi": 62,
            "name": "D4",
            "ticks": 166608,
            "time": 216.9375,
            "velocity": 0.3937007874015748
          },
          {
            "duration": 0.125,
            "durationTicks": 96,
            "midi": 45,
            "name": "A2",
            "ticks": 169056,
            "time": 220.125,
            "velocity": 0.3937007874015748
          },
          {
            "duration": 0.125,
            "durationTicks": 96,
            "midi": 57,
            "name": "A3",
            "ticks": 169056,
            "time": 220.125,
            "velocity": 0.3937007874015748
          },
          {
            "duration": 0.125,
            "durationTicks": 96,
            "midi": 59,
            "name": "B3",
            "ticks": 169200,
            "time": 220.3125,
            "velocity": 0.3937007874015748
          },
          {
            "duration": 0.125,
            "durationTicks": 96,
            "midi": 47,
            "name": "B2",
            "ticks": 169200,
            "time": 220.3125,
            "velocity": 0.3937007874015748
          },
          {
            "duration": 0.125,
            "durationTicks": 96,
            "midi": 52,
            "name": "E3",
            "ticks": 169488,
            "time": 220.6875,
            "velocity": 0.3937007874015748
          },
          {
            "duration": 0.125,
            "durationTicks": 96,
            "midi": 64,
            "name": "E4",
            "ticks": 169488,
            "time": 220.6875,
            "velocity": 0.3937007874015748
          },
          {
            "duration": 0.125,
            "durationTicks": 96,
            "midi": 62,
            "name": "D4",
            "ticks": 169776,
            "time": 221.0625,
            "velocity": 0.3937007874015748
          },
          {
            "duration": 0.125,
            "durationTicks": 96,
            "midi": 50,
            "name": "D3",
            "ticks": 169776,
            "time": 221.0625,
            "velocity": 0.3937007874015748
          },
          {
            "duration": 0.125,
            "durationTicks": 96,
            "midi": 57,
            "name": "A3",
            "ticks": 170208,
            "time": 221.625,
            "velocity": 0.3937007874015748
          },
          {
            "duration": 0.125,
            "durationTicks": 96,
            "midi": 45,
            "name": "A2",
            "ticks": 170208,
            "time": 221.625,
            "velocity": 0.3937007874015748
          },
          {
            "duration": 0.125,
            "durationTicks": 96,
            "midi": 47,
            "name": "B2",
            "ticks": 170352,
            "time": 221.8125,
            "velocity": 0.3937007874015748
          },
          {
            "duration": 0.125,
            "durationTicks": 96,
            "midi": 59,
            "name": "B3",
            "ticks": 170352,
            "time": 221.8125,
            "velocity": 0.3937007874015748
          },
          {
            "duration": 0.125,
            "durationTicks": 96,
            "midi": 59,
            "name": "B3",
            "ticks": 170640,
            "time": 222.1875,
            "velocity": 0.3937007874015748
          },
          {
            "duration": 0.125,
            "durationTicks": 96,
            "midi": 47,
            "name": "B2",
            "ticks": 170640,
            "time": 222.1875,
            "velocity": 0.3937007874015748
          },
          {
            "duration": 0.125,
            "durationTicks": 96,
            "midi": 47,
            "name": "B2",
            "ticks": 170784,
            "time": 222.375,
            "velocity": 0.3937007874015748
          },
          {
            "duration": 0.125,
            "durationTicks": 96,
            "midi": 59,
            "name": "B3",
            "ticks": 170784,
            "time": 222.375,
            "velocity": 0.3937007874015748
          },
          {
            "duration": 0.125,
            "durationTicks": 96,
            "midi": 59,
            "name": "B3",
            "ticks": 170928,
            "time": 222.5625,
            "velocity": 0.3937007874015748
          },
          {
            "duration": 0.125,
            "durationTicks": 96,
            "midi": 47,
            "name": "B2",
            "ticks": 170928,
            "time": 222.5625,
            "velocity": 0.3937007874015748
          },
          {
            "duration": 0.125,
            "durationTicks": 96,
            "midi": 55,
            "name": "G3",
            "ticks": 171072,
            "time": 222.75,
            "velocity": 0.3937007874015748
          },
          {
            "duration": 0.125,
            "durationTicks": 96,
            "midi": 43,
            "name": "G2",
            "ticks": 171072,
            "time": 222.75,
            "velocity": 0.3937007874015748
          },
          {
            "duration": 0.125,
            "durationTicks": 96,
            "midi": 52,
            "name": "E3",
            "ticks": 171216,
            "time": 222.9375,
            "velocity": 0.3937007874015748
          },
          {
            "duration": 0.125,
            "durationTicks": 96,
            "midi": 40,
            "name": "E2",
            "ticks": 171216,
            "time": 222.9375,
            "velocity": 0.3937007874015748
          },
          {
            "duration": 0.125,
            "durationTicks": 96,
            "midi": 52,
            "name": "E3",
            "ticks": 171792,
            "time": 223.6875,
            "velocity": 0.3937007874015748
          },
          {
            "duration": 0.125,
            "durationTicks": 96,
            "midi": 64,
            "name": "E4",
            "ticks": 171792,
            "time": 223.6875,
            "velocity": 0.3937007874015748
          },
          {
            "duration": 0.125,
            "durationTicks": 96,
            "midi": 62,
            "name": "D4",
            "ticks": 172080,
            "time": 224.0625,
            "velocity": 0.3937007874015748
          },
          {
            "duration": 0.125,
            "durationTicks": 96,
            "midi": 50,
            "name": "D3",
            "ticks": 172080,
            "time": 224.0625,
            "velocity": 0.3937007874015748
          },
          {
            "duration": 0.125,
            "durationTicks": 96,
            "midi": 45,
            "name": "A2",
            "ticks": 172512,
            "time": 224.625,
            "velocity": 0.3937007874015748
          },
          {
            "duration": 0.125,
            "durationTicks": 96,
            "midi": 57,
            "name": "A3",
            "ticks": 172512,
            "time": 224.625,
            "velocity": 0.3937007874015748
          },
          {
            "duration": 0.125,
            "durationTicks": 96,
            "midi": 59,
            "name": "B3",
            "ticks": 172656,
            "time": 224.8125,
            "velocity": 0.3937007874015748
          },
          {
            "duration": 0.125,
            "durationTicks": 96,
            "midi": 47,
            "name": "B2",
            "ticks": 172656,
            "time": 224.8125,
            "velocity": 0.3937007874015748
          },
          {
            "duration": 0.125,
            "durationTicks": 96,
            "midi": 47,
            "name": "B2",
            "ticks": 172944,
            "time": 225.1875,
            "velocity": 0.3937007874015748
          },
          {
            "duration": 0.125,
            "durationTicks": 96,
            "midi": 59,
            "name": "B3",
            "ticks": 172944,
            "time": 225.1875,
            "velocity": 0.3937007874015748
          },
          {
            "duration": 0.125,
            "durationTicks": 96,
            "midi": 47,
            "name": "B2",
            "ticks": 173088,
            "time": 225.375,
            "velocity": 0.3937007874015748
          },
          {
            "duration": 0.125,
            "durationTicks": 96,
            "midi": 59,
            "name": "B3",
            "ticks": 173088,
            "time": 225.375,
            "velocity": 0.3937007874015748
          },
          {
            "duration": 0.125,
            "durationTicks": 96,
            "midi": 59,
            "name": "B3",
            "ticks": 173232,
            "time": 225.5625,
            "velocity": 0.3937007874015748
          },
          {
            "duration": 0.125,
            "durationTicks": 96,
            "midi": 47,
            "name": "B2",
            "ticks": 173232,
            "time": 225.5625,
            "velocity": 0.3937007874015748
          },
          {
            "duration": 0.125,
            "durationTicks": 96,
            "midi": 43,
            "name": "G2",
            "ticks": 173376,
            "time": 225.75,
            "velocity": 0.3937007874015748
          },
          {
            "duration": 0.125,
            "durationTicks": 96,
            "midi": 55,
            "name": "G3",
            "ticks": 173376,
            "time": 225.75,
            "velocity": 0.3937007874015748
          },
          {
            "duration": 0.125,
            "durationTicks": 96,
            "midi": 52,
            "name": "E3",
            "ticks": 173520,
            "time": 225.9375,
            "velocity": 0.3937007874015748
          },
          {
            "duration": 0.125,
            "durationTicks": 96,
            "midi": 40,
            "name": "E2",
            "ticks": 173520,
            "time": 225.9375,
            "velocity": 0.3937007874015748
          },
          {
            "duration": 0.125,
            "durationTicks": 96,
            "midi": 64,
            "name": "E4",
            "ticks": 175824,
            "time": 228.9375,
            "velocity": 0.3937007874015748
          },
          {
            "duration": 0.125,
            "durationTicks": 96,
            "midi": 52,
            "name": "E3",
            "ticks": 175824,
            "time": 228.9375,
            "velocity": 0.3937007874015748
          },
          {
            "duration": 0.125,
            "durationTicks": 96,
            "midi": 50,
            "name": "D3",
            "ticks": 176112,
            "time": 229.3125,
            "velocity": 0.3937007874015748
          },
          {
            "duration": 0.125,
            "durationTicks": 96,
            "midi": 62,
            "name": "D4",
            "ticks": 176112,
            "time": 229.3125,
            "velocity": 0.3937007874015748
          },
          {
            "duration": 0.125,
            "durationTicks": 96,
            "midi": 57,
            "name": "A3",
            "ticks": 176544,
            "time": 229.875,
            "velocity": 0.3937007874015748
          },
          {
            "duration": 0.125,
            "durationTicks": 96,
            "midi": 45,
            "name": "A2",
            "ticks": 176544,
            "time": 229.875,
            "velocity": 0.3937007874015748
          },
          {
            "duration": 0.125,
            "durationTicks": 96,
            "midi": 59,
            "name": "B3",
            "ticks": 176688,
            "time": 230.0625,
            "velocity": 0.3937007874015748
          },
          {
            "duration": 0.125,
            "durationTicks": 96,
            "midi": 47,
            "name": "B2",
            "ticks": 176688,
            "time": 230.0625,
            "velocity": 0.3937007874015748
          }
        ],
        "endOfTrackTicks": 176784
      },
      {
        "channel": 6,
        "controlChanges": {},
        "pitchBends": [],
        "instrument": {
          "family": "strings",
          "number": 45,
          "name": "pizzicato strings"
        },
        "name": "Pizzicato",
        "notes": [
          {
            "duration": 0.0625,
            "durationTicks": 48,
            "midi": 31,
            "name": "G1",
            "ticks": 0,
            "time": 0,
            "velocity": 0.3937007874015748
          },
          {
            "duration": 0.0625,
            "durationTicks": 48,
            "midi": 31,
            "name": "G1",
            "ticks": 0,
            "time": 0,
            "velocity": 0.3937007874015748
          },
          {
            "duration": 0.0625,
            "durationTicks": 48,
            "midi": 31,
            "name": "G1",
            "ticks": 288,
            "time": 0.375,
            "velocity": 0.3937007874015748
          },
          {
            "duration": 0.0625,
            "durationTicks": 48,
            "midi": 31,
            "name": "G1",
            "ticks": 288,
            "time": 0.375,
            "velocity": 0.3937007874015748
          },
          {
            "duration": 0.0625,
            "durationTicks": 48,
            "midi": 31,
            "name": "G1",
            "ticks": 432,
            "time": 0.5625,
            "velocity": 0.3937007874015748
          },
          {
            "duration": 0.0625,
            "durationTicks": 48,
            "midi": 31,
            "name": "G1",
            "ticks": 432,
            "time": 0.5625,
            "velocity": 0.3937007874015748
          },
          {
            "duration": 0.0625,
            "durationTicks": 48,
            "midi": 31,
            "name": "G1",
            "ticks": 720,
            "time": 0.9375,
            "velocity": 0.3937007874015748
          },
          {
            "duration": 0.0625,
            "durationTicks": 48,
            "midi": 31,
            "name": "G1",
            "ticks": 720,
            "time": 0.9375,
            "velocity": 0.3937007874015748
          },
          {
            "duration": 0.0625,
            "durationTicks": 48,
            "midi": 31,
            "name": "G1",
            "ticks": 864,
            "time": 1.125,
            "velocity": 0.3937007874015748
          },
          {
            "duration": 0.0625,
            "durationTicks": 48,
            "midi": 31,
            "name": "G1",
            "ticks": 864,
            "time": 1.125,
            "velocity": 0.3937007874015748
          },
          {
            "duration": 0.0625,
            "durationTicks": 48,
            "midi": 31,
            "name": "G1",
            "ticks": 1008,
            "time": 1.3125,
            "velocity": 0.3937007874015748
          },
          {
            "duration": 0.0625,
            "durationTicks": 48,
            "midi": 31,
            "name": "G1",
            "ticks": 1008,
            "time": 1.3125,
            "velocity": 0.3937007874015748
          },
          {
            "duration": 0.0625,
            "durationTicks": 48,
            "midi": 36,
            "name": "C2",
            "ticks": 1152,
            "time": 1.5,
            "velocity": 0.3937007874015748
          },
          {
            "duration": 0.0625,
            "durationTicks": 48,
            "midi": 24,
            "name": "C1",
            "ticks": 1152,
            "time": 1.5,
            "velocity": 0.3937007874015748
          },
          {
            "duration": 0.0625,
            "durationTicks": 48,
            "midi": 36,
            "name": "C2",
            "ticks": 1440,
            "time": 1.875,
            "velocity": 0.3937007874015748
          },
          {
            "duration": 0.0625,
            "durationTicks": 48,
            "midi": 24,
            "name": "C1",
            "ticks": 1440,
            "time": 1.875,
            "velocity": 0.3937007874015748
          },
          {
            "duration": 0.0625,
            "durationTicks": 48,
            "midi": 24,
            "name": "C1",
            "ticks": 1584,
            "time": 2.0625,
            "velocity": 0.3937007874015748
          },
          {
            "duration": 0.0625,
            "durationTicks": 48,
            "midi": 36,
            "name": "C2",
            "ticks": 1584,
            "time": 2.0625,
            "velocity": 0.3937007874015748
          },
          {
            "duration": 0.0625,
            "durationTicks": 48,
            "midi": 24,
            "name": "C1",
            "ticks": 1872,
            "time": 2.4375,
            "velocity": 0.3937007874015748
          },
          {
            "duration": 0.0625,
            "durationTicks": 48,
            "midi": 36,
            "name": "C2",
            "ticks": 1872,
            "time": 2.4375,
            "velocity": 0.3937007874015748
          },
          {
            "duration": 0.0625,
            "durationTicks": 48,
            "midi": 24,
            "name": "C1",
            "ticks": 2016,
            "time": 2.625,
            "velocity": 0.3937007874015748
          },
          {
            "duration": 0.0625,
            "durationTicks": 48,
            "midi": 36,
            "name": "C2",
            "ticks": 2016,
            "time": 2.625,
            "velocity": 0.3937007874015748
          },
          {
            "duration": 0.0625,
            "durationTicks": 48,
            "midi": 24,
            "name": "C1",
            "ticks": 2160,
            "time": 2.8125,
            "velocity": 0.3937007874015748
          },
          {
            "duration": 0.0625,
            "durationTicks": 48,
            "midi": 36,
            "name": "C2",
            "ticks": 2160,
            "time": 2.8125,
            "velocity": 0.3937007874015748
          },
          {
            "duration": 0.0625,
            "durationTicks": 48,
            "midi": 36,
            "name": "C2",
            "ticks": 2304,
            "time": 3,
            "velocity": 0.3937007874015748
          },
          {
            "duration": 0.0625,
            "durationTicks": 48,
            "midi": 24,
            "name": "C1",
            "ticks": 2304,
            "time": 3,
            "velocity": 0.3937007874015748
          },
          {
            "duration": 0.0625,
            "durationTicks": 48,
            "midi": 24,
            "name": "C1",
            "ticks": 2592,
            "time": 3.375,
            "velocity": 0.3937007874015748
          },
          {
            "duration": 0.0625,
            "durationTicks": 48,
            "midi": 36,
            "name": "C2",
            "ticks": 2592,
            "time": 3.375,
            "velocity": 0.3937007874015748
          },
          {
            "duration": 0.0625,
            "durationTicks": 48,
            "midi": 36,
            "name": "C2",
            "ticks": 2736,
            "time": 3.5625,
            "velocity": 0.3937007874015748
          },
          {
            "duration": 0.0625,
            "durationTicks": 48,
            "midi": 24,
            "name": "C1",
            "ticks": 2736,
            "time": 3.5625,
            "velocity": 0.3937007874015748
          },
          {
            "duration": 0.0625,
            "durationTicks": 48,
            "midi": 24,
            "name": "C1",
            "ticks": 3024,
            "time": 3.9375,
            "velocity": 0.3937007874015748
          },
          {
            "duration": 0.0625,
            "durationTicks": 48,
            "midi": 36,
            "name": "C2",
            "ticks": 3024,
            "time": 3.9375,
            "velocity": 0.3937007874015748
          },
          {
            "duration": 0.0625,
            "durationTicks": 48,
            "midi": 24,
            "name": "C1",
            "ticks": 3168,
            "time": 4.125,
            "velocity": 0.3937007874015748
          },
          {
            "duration": 0.0625,
            "durationTicks": 48,
            "midi": 36,
            "name": "C2",
            "ticks": 3168,
            "time": 4.125,
            "velocity": 0.3937007874015748
          },
          {
            "duration": 0.0625,
            "durationTicks": 48,
            "midi": 36,
            "name": "C2",
            "ticks": 3312,
            "time": 4.3125,
            "velocity": 0.3937007874015748
          },
          {
            "duration": 0.0625,
            "durationTicks": 48,
            "midi": 24,
            "name": "C1",
            "ticks": 3312,
            "time": 4.3125,
            "velocity": 0.3937007874015748
          },
          {
            "duration": 0.0625,
            "durationTicks": 48,
            "midi": 26,
            "name": "D1",
            "ticks": 3456,
            "time": 4.5,
            "velocity": 0.3937007874015748
          },
          {
            "duration": 0.0625,
            "durationTicks": 48,
            "midi": 38,
            "name": "D2",
            "ticks": 3456,
            "time": 4.5,
            "velocity": 0.3937007874015748
          },
          {
            "duration": 0.0625,
            "durationTicks": 48,
            "midi": 45,
            "name": "A2",
            "ticks": 3744,
            "time": 4.875,
            "velocity": 0.3937007874015748
          },
          {
            "duration": 0.0625,
            "durationTicks": 48,
            "midi": 33,
            "name": "A1",
            "ticks": 3744,
            "time": 4.875,
            "velocity": 0.3937007874015748
          },
          {
            "duration": 0.0625,
            "durationTicks": 48,
            "midi": 38,
            "name": "D2",
            "ticks": 3888,
            "time": 5.0625,
            "velocity": 0.3937007874015748
          },
          {
            "duration": 0.0625,
            "durationTicks": 48,
            "midi": 26,
            "name": "D1",
            "ticks": 3888,
            "time": 5.0625,
            "velocity": 0.3937007874015748
          },
          {
            "duration": 0.0625,
            "durationTicks": 48,
            "midi": 40,
            "name": "E2",
            "ticks": 4032,
            "time": 5.25,
            "velocity": 0.3937007874015748
          },
          {
            "duration": 0.0625,
            "durationTicks": 48,
            "midi": 28,
            "name": "E1",
            "ticks": 4032,
            "time": 5.25,
            "velocity": 0.3937007874015748
          },
          {
            "duration": 0.0625,
            "durationTicks": 48,
            "midi": 40,
            "name": "E2",
            "ticks": 4320,
            "time": 5.625,
            "velocity": 0.3937007874015748
          },
          {
            "duration": 0.0625,
            "durationTicks": 48,
            "midi": 28,
            "name": "E1",
            "ticks": 4320,
            "time": 5.625,
            "velocity": 0.3937007874015748
          },
          {
            "duration": 0.0625,
            "durationTicks": 48,
            "midi": 28,
            "name": "E1",
            "ticks": 4464,
            "time": 5.8125,
            "velocity": 0.3937007874015748
          },
          {
            "duration": 0.0625,
            "durationTicks": 48,
            "midi": 40,
            "name": "E2",
            "ticks": 4464,
            "time": 5.8125,
            "velocity": 0.3937007874015748
          },
          {
            "duration": 0.0625,
            "durationTicks": 48,
            "midi": 40,
            "name": "E2",
            "ticks": 4752,
            "time": 6.1875,
            "velocity": 0.3937007874015748
          },
          {
            "duration": 0.0625,
            "durationTicks": 48,
            "midi": 28,
            "name": "E1",
            "ticks": 4752,
            "time": 6.1875,
            "velocity": 0.3937007874015748
          },
          {
            "duration": 0.0625,
            "durationTicks": 48,
            "midi": 28,
            "name": "E1",
            "ticks": 4896,
            "time": 6.375,
            "velocity": 0.3937007874015748
          },
          {
            "duration": 0.0625,
            "durationTicks": 48,
            "midi": 40,
            "name": "E2",
            "ticks": 4896,
            "time": 6.375,
            "velocity": 0.3937007874015748
          },
          {
            "duration": 0.0625,
            "durationTicks": 48,
            "midi": 40,
            "name": "E2",
            "ticks": 5040,
            "time": 6.5625,
            "velocity": 0.3937007874015748
          },
          {
            "duration": 0.0625,
            "durationTicks": 48,
            "midi": 28,
            "name": "E1",
            "ticks": 5040,
            "time": 6.5625,
            "velocity": 0.3937007874015748
          },
          {
            "duration": 0.0625,
            "durationTicks": 48,
            "midi": 31,
            "name": "G1",
            "ticks": 6336,
            "time": 8.25,
            "velocity": 0.3937007874015748
          },
          {
            "duration": 0.0625,
            "durationTicks": 48,
            "midi": 31,
            "name": "G1",
            "ticks": 6336,
            "time": 8.25,
            "velocity": 0.3937007874015748
          },
          {
            "duration": 0.0625,
            "durationTicks": 48,
            "midi": 31,
            "name": "G1",
            "ticks": 6624,
            "time": 8.625,
            "velocity": 0.3937007874015748
          },
          {
            "duration": 0.0625,
            "durationTicks": 48,
            "midi": 31,
            "name": "G1",
            "ticks": 6624,
            "time": 8.625,
            "velocity": 0.3937007874015748
          },
          {
            "duration": 0.0625,
            "durationTicks": 48,
            "midi": 31,
            "name": "G1",
            "ticks": 6768,
            "time": 8.8125,
            "velocity": 0.3937007874015748
          },
          {
            "duration": 0.0625,
            "durationTicks": 48,
            "midi": 31,
            "name": "G1",
            "ticks": 6768,
            "time": 8.8125,
            "velocity": 0.3937007874015748
          },
          {
            "duration": 0.0625,
            "durationTicks": 48,
            "midi": 31,
            "name": "G1",
            "ticks": 7056,
            "time": 9.1875,
            "velocity": 0.3937007874015748
          },
          {
            "duration": 0.0625,
            "durationTicks": 48,
            "midi": 31,
            "name": "G1",
            "ticks": 7056,
            "time": 9.1875,
            "velocity": 0.3937007874015748
          },
          {
            "duration": 0.0625,
            "durationTicks": 48,
            "midi": 31,
            "name": "G1",
            "ticks": 7200,
            "time": 9.375,
            "velocity": 0.3937007874015748
          },
          {
            "duration": 0.0625,
            "durationTicks": 48,
            "midi": 31,
            "name": "G1",
            "ticks": 7200,
            "time": 9.375,
            "velocity": 0.3937007874015748
          },
          {
            "duration": 0.0625,
            "durationTicks": 48,
            "midi": 31,
            "name": "G1",
            "ticks": 7344,
            "time": 9.5625,
            "velocity": 0.3937007874015748
          },
          {
            "duration": 0.0625,
            "durationTicks": 48,
            "midi": 31,
            "name": "G1",
            "ticks": 7344,
            "time": 9.5625,
            "velocity": 0.3937007874015748
          },
          {
            "duration": 0.0625,
            "durationTicks": 48,
            "midi": 36,
            "name": "C2",
            "ticks": 7488,
            "time": 9.75,
            "velocity": 0.3937007874015748
          },
          {
            "duration": 0.0625,
            "durationTicks": 48,
            "midi": 24,
            "name": "C1",
            "ticks": 7488,
            "time": 9.75,
            "velocity": 0.3937007874015748
          },
          {
            "duration": 0.0625,
            "durationTicks": 48,
            "midi": 24,
            "name": "C1",
            "ticks": 7776,
            "time": 10.125,
            "velocity": 0.3937007874015748
          },
          {
            "duration": 0.0625,
            "durationTicks": 48,
            "midi": 36,
            "name": "C2",
            "ticks": 7776,
            "time": 10.125,
            "velocity": 0.3937007874015748
          },
          {
            "duration": 0.0625,
            "durationTicks": 48,
            "midi": 36,
            "name": "C2",
            "ticks": 7920,
            "time": 10.3125,
            "velocity": 0.3937007874015748
          },
          {
            "duration": 0.0625,
            "durationTicks": 48,
            "midi": 24,
            "name": "C1",
            "ticks": 7920,
            "time": 10.3125,
            "velocity": 0.3937007874015748
          },
          {
            "duration": 0.0625,
            "durationTicks": 48,
            "midi": 24,
            "name": "C1",
            "ticks": 8208,
            "time": 10.6875,
            "velocity": 0.3937007874015748
          },
          {
            "duration": 0.0625,
            "durationTicks": 48,
            "midi": 36,
            "name": "C2",
            "ticks": 8208,
            "time": 10.6875,
            "velocity": 0.3937007874015748
          },
          {
            "duration": 0.0625,
            "durationTicks": 48,
            "midi": 36,
            "name": "C2",
            "ticks": 8352,
            "time": 10.875,
            "velocity": 0.3937007874015748
          },
          {
            "duration": 0.0625,
            "durationTicks": 48,
            "midi": 24,
            "name": "C1",
            "ticks": 8352,
            "time": 10.875,
            "velocity": 0.3937007874015748
          },
          {
            "duration": 0.0625,
            "durationTicks": 48,
            "midi": 36,
            "name": "C2",
            "ticks": 8496,
            "time": 11.0625,
            "velocity": 0.3937007874015748
          },
          {
            "duration": 0.0625,
            "durationTicks": 48,
            "midi": 24,
            "name": "C1",
            "ticks": 8496,
            "time": 11.0625,
            "velocity": 0.3937007874015748
          },
          {
            "duration": 0.0625,
            "durationTicks": 48,
            "midi": 36,
            "name": "C2",
            "ticks": 8640,
            "time": 11.25,
            "velocity": 0.3937007874015748
          },
          {
            "duration": 0.0625,
            "durationTicks": 48,
            "midi": 24,
            "name": "C1",
            "ticks": 8640,
            "time": 11.25,
            "velocity": 0.3937007874015748
          },
          {
            "duration": 0.0625,
            "durationTicks": 48,
            "midi": 24,
            "name": "C1",
            "ticks": 8928,
            "time": 11.625,
            "velocity": 0.3937007874015748
          },
          {
            "duration": 0.0625,
            "durationTicks": 48,
            "midi": 36,
            "name": "C2",
            "ticks": 8928,
            "time": 11.625,
            "velocity": 0.3937007874015748
          },
          {
            "duration": 0.0625,
            "durationTicks": 48,
            "midi": 24,
            "name": "C1",
            "ticks": 9072,
            "time": 11.8125,
            "velocity": 0.3937007874015748
          },
          {
            "duration": 0.0625,
            "durationTicks": 48,
            "midi": 36,
            "name": "C2",
            "ticks": 9072,
            "time": 11.8125,
            "velocity": 0.3937007874015748
          },
          {
            "duration": 0.0625,
            "durationTicks": 48,
            "midi": 36,
            "name": "C2",
            "ticks": 9360,
            "time": 12.1875,
            "velocity": 0.3937007874015748
          },
          {
            "duration": 0.0625,
            "durationTicks": 48,
            "midi": 24,
            "name": "C1",
            "ticks": 9360,
            "time": 12.1875,
            "velocity": 0.3937007874015748
          },
          {
            "duration": 0.0625,
            "durationTicks": 48,
            "midi": 24,
            "name": "C1",
            "ticks": 9504,
            "time": 12.375,
            "velocity": 0.3937007874015748
          },
          {
            "duration": 0.0625,
            "durationTicks": 48,
            "midi": 36,
            "name": "C2",
            "ticks": 9504,
            "time": 12.375,
            "velocity": 0.3937007874015748
          },
          {
            "duration": 0.0625,
            "durationTicks": 48,
            "midi": 36,
            "name": "C2",
            "ticks": 9648,
            "time": 12.5625,
            "velocity": 0.3937007874015748
          },
          {
            "duration": 0.0625,
            "durationTicks": 48,
            "midi": 24,
            "name": "C1",
            "ticks": 9648,
            "time": 12.5625,
            "velocity": 0.3937007874015748
          },
          {
            "duration": 0.0625,
            "durationTicks": 48,
            "midi": 38,
            "name": "D2",
            "ticks": 9792,
            "time": 12.75,
            "velocity": 0.3937007874015748
          },
          {
            "duration": 0.0625,
            "durationTicks": 48,
            "midi": 26,
            "name": "D1",
            "ticks": 9792,
            "time": 12.75,
            "velocity": 0.3937007874015748
          },
          {
            "duration": 0.0625,
            "durationTicks": 48,
            "midi": 33,
            "name": "A1",
            "ticks": 10080,
            "time": 13.125,
            "velocity": 0.3937007874015748
          },
          {
            "duration": 0.0625,
            "durationTicks": 48,
            "midi": 45,
            "name": "A2",
            "ticks": 10080,
            "time": 13.125,
            "velocity": 0.3937007874015748
          },
          {
            "duration": 0.0625,
            "durationTicks": 48,
            "midi": 26,
            "name": "D1",
            "ticks": 10224,
            "time": 13.3125,
            "velocity": 0.3937007874015748
          },
          {
            "duration": 0.0625,
            "durationTicks": 48,
            "midi": 38,
            "name": "D2",
            "ticks": 10224,
            "time": 13.3125,
            "velocity": 0.3937007874015748
          },
          {
            "duration": 0.0625,
            "durationTicks": 48,
            "midi": 40,
            "name": "E2",
            "ticks": 10368,
            "time": 13.5,
            "velocity": 0.3937007874015748
          },
          {
            "duration": 0.0625,
            "durationTicks": 48,
            "midi": 28,
            "name": "E1",
            "ticks": 10368,
            "time": 13.5,
            "velocity": 0.3937007874015748
          },
          {
            "duration": 0.0625,
            "durationTicks": 48,
            "midi": 28,
            "name": "E1",
            "ticks": 10656,
            "time": 13.875,
            "velocity": 0.3937007874015748
          },
          {
            "duration": 0.0625,
            "durationTicks": 48,
            "midi": 40,
            "name": "E2",
            "ticks": 10656,
            "time": 13.875,
            "velocity": 0.3937007874015748
          },
          {
            "duration": 0.0625,
            "durationTicks": 48,
            "midi": 28,
            "name": "E1",
            "ticks": 10800,
            "time": 14.0625,
            "velocity": 0.3937007874015748
          },
          {
            "duration": 0.0625,
            "durationTicks": 48,
            "midi": 40,
            "name": "E2",
            "ticks": 10800,
            "time": 14.0625,
            "velocity": 0.3937007874015748
          },
          {
            "duration": 0.0625,
            "durationTicks": 48,
            "midi": 28,
            "name": "E1",
            "ticks": 11088,
            "time": 14.4375,
            "velocity": 0.3937007874015748
          },
          {
            "duration": 0.0625,
            "durationTicks": 48,
            "midi": 40,
            "name": "E2",
            "ticks": 11088,
            "time": 14.4375,
            "velocity": 0.3937007874015748
          },
          {
            "duration": 0.0625,
            "durationTicks": 48,
            "midi": 40,
            "name": "E2",
            "ticks": 11232,
            "time": 14.625,
            "velocity": 0.3937007874015748
          },
          {
            "duration": 0.0625,
            "durationTicks": 48,
            "midi": 28,
            "name": "E1",
            "ticks": 11232,
            "time": 14.625,
            "velocity": 0.3937007874015748
          },
          {
            "duration": 0.0625,
            "durationTicks": 48,
            "midi": 28,
            "name": "E1",
            "ticks": 11376,
            "time": 14.8125,
            "velocity": 0.3937007874015748
          },
          {
            "duration": 0.0625,
            "durationTicks": 48,
            "midi": 40,
            "name": "E2",
            "ticks": 11376,
            "time": 14.8125,
            "velocity": 0.3937007874015748
          },
          {
            "duration": 0.0625,
            "durationTicks": 48,
            "midi": 31,
            "name": "G1",
            "ticks": 12672,
            "time": 16.5,
            "velocity": 0.3937007874015748
          },
          {
            "duration": 0.0625,
            "durationTicks": 48,
            "midi": 31,
            "name": "G1",
            "ticks": 12672,
            "time": 16.5,
            "velocity": 0.3937007874015748
          },
          {
            "duration": 0.0625,
            "durationTicks": 48,
            "midi": 31,
            "name": "G1",
            "ticks": 12960,
            "time": 16.875,
            "velocity": 0.3937007874015748
          },
          {
            "duration": 0.0625,
            "durationTicks": 48,
            "midi": 31,
            "name": "G1",
            "ticks": 12960,
            "time": 16.875,
            "velocity": 0.3937007874015748
          },
          {
            "duration": 0.0625,
            "durationTicks": 48,
            "midi": 31,
            "name": "G1",
            "ticks": 13104,
            "time": 17.0625,
            "velocity": 0.3937007874015748
          },
          {
            "duration": 0.0625,
            "durationTicks": 48,
            "midi": 31,
            "name": "G1",
            "ticks": 13104,
            "time": 17.0625,
            "velocity": 0.3937007874015748
          },
          {
            "duration": 0.0625,
            "durationTicks": 48,
            "midi": 31,
            "name": "G1",
            "ticks": 13392,
            "time": 17.4375,
            "velocity": 0.3937007874015748
          },
          {
            "duration": 0.0625,
            "durationTicks": 48,
            "midi": 31,
            "name": "G1",
            "ticks": 13392,
            "time": 17.4375,
            "velocity": 0.3937007874015748
          },
          {
            "duration": 0.0625,
            "durationTicks": 48,
            "midi": 31,
            "name": "G1",
            "ticks": 13536,
            "time": 17.625,
            "velocity": 0.3937007874015748
          },
          {
            "duration": 0.0625,
            "durationTicks": 48,
            "midi": 31,
            "name": "G1",
            "ticks": 13536,
            "time": 17.625,
            "velocity": 0.3937007874015748
          },
          {
            "duration": 0.0625,
            "durationTicks": 48,
            "midi": 31,
            "name": "G1",
            "ticks": 13680,
            "time": 17.8125,
            "velocity": 0.3937007874015748
          },
          {
            "duration": 0.0625,
            "durationTicks": 48,
            "midi": 31,
            "name": "G1",
            "ticks": 13680,
            "time": 17.8125,
            "velocity": 0.3937007874015748
          },
          {
            "duration": 0.0625,
            "durationTicks": 48,
            "midi": 36,
            "name": "C2",
            "ticks": 13824,
            "time": 18,
            "velocity": 0.3937007874015748
          },
          {
            "duration": 0.0625,
            "durationTicks": 48,
            "midi": 24,
            "name": "C1",
            "ticks": 13824,
            "time": 18,
            "velocity": 0.3937007874015748
          },
          {
            "duration": 0.0625,
            "durationTicks": 48,
            "midi": 24,
            "name": "C1",
            "ticks": 14112,
            "time": 18.375,
            "velocity": 0.3937007874015748
          },
          {
            "duration": 0.0625,
            "durationTicks": 48,
            "midi": 36,
            "name": "C2",
            "ticks": 14112,
            "time": 18.375,
            "velocity": 0.3937007874015748
          },
          {
            "duration": 0.0625,
            "durationTicks": 48,
            "midi": 36,
            "name": "C2",
            "ticks": 14256,
            "time": 18.5625,
            "velocity": 0.3937007874015748
          },
          {
            "duration": 0.0625,
            "durationTicks": 48,
            "midi": 24,
            "name": "C1",
            "ticks": 14256,
            "time": 18.5625,
            "velocity": 0.3937007874015748
          },
          {
            "duration": 0.0625,
            "durationTicks": 48,
            "midi": 36,
            "name": "C2",
            "ticks": 14544,
            "time": 18.9375,
            "velocity": 0.3937007874015748
          },
          {
            "duration": 0.0625,
            "durationTicks": 48,
            "midi": 24,
            "name": "C1",
            "ticks": 14544,
            "time": 18.9375,
            "velocity": 0.3937007874015748
          },
          {
            "duration": 0.0625,
            "durationTicks": 48,
            "midi": 24,
            "name": "C1",
            "ticks": 14688,
            "time": 19.125,
            "velocity": 0.3937007874015748
          },
          {
            "duration": 0.0625,
            "durationTicks": 48,
            "midi": 36,
            "name": "C2",
            "ticks": 14688,
            "time": 19.125,
            "velocity": 0.3937007874015748
          },
          {
            "duration": 0.0625,
            "durationTicks": 48,
            "midi": 24,
            "name": "C1",
            "ticks": 14832,
            "time": 19.3125,
            "velocity": 0.3937007874015748
          },
          {
            "duration": 0.0625,
            "durationTicks": 48,
            "midi": 36,
            "name": "C2",
            "ticks": 14832,
            "time": 19.3125,
            "velocity": 0.3937007874015748
          },
          {
            "duration": 0.0625,
            "durationTicks": 48,
            "midi": 24,
            "name": "C1",
            "ticks": 14976,
            "time": 19.5,
            "velocity": 0.3937007874015748
          },
          {
            "duration": 0.0625,
            "durationTicks": 48,
            "midi": 36,
            "name": "C2",
            "ticks": 14976,
            "time": 19.5,
            "velocity": 0.3937007874015748
          },
          {
            "duration": 0.0625,
            "durationTicks": 48,
            "midi": 36,
            "name": "C2",
            "ticks": 15264,
            "time": 19.875,
            "velocity": 0.3937007874015748
          },
          {
            "duration": 0.0625,
            "durationTicks": 48,
            "midi": 24,
            "name": "C1",
            "ticks": 15264,
            "time": 19.875,
            "velocity": 0.3937007874015748
          },
          {
            "duration": 0.0625,
            "durationTicks": 48,
            "midi": 24,
            "name": "C1",
            "ticks": 15408,
            "time": 20.0625,
            "velocity": 0.3937007874015748
          },
          {
            "duration": 0.0625,
            "durationTicks": 48,
            "midi": 36,
            "name": "C2",
            "ticks": 15408,
            "time": 20.0625,
            "velocity": 0.3937007874015748
          },
          {
            "duration": 0.0625,
            "durationTicks": 48,
            "midi": 36,
            "name": "C2",
            "ticks": 15696,
            "time": 20.4375,
            "velocity": 0.3937007874015748
          },
          {
            "duration": 0.0625,
            "durationTicks": 48,
            "midi": 24,
            "name": "C1",
            "ticks": 15696,
            "time": 20.4375,
            "velocity": 0.3937007874015748
          },
          {
            "duration": 0.0625,
            "durationTicks": 48,
            "midi": 36,
            "name": "C2",
            "ticks": 15840,
            "time": 20.625,
            "velocity": 0.3937007874015748
          },
          {
            "duration": 0.0625,
            "durationTicks": 48,
            "midi": 24,
            "name": "C1",
            "ticks": 15840,
            "time": 20.625,
            "velocity": 0.3937007874015748
          },
          {
            "duration": 0.0625,
            "durationTicks": 48,
            "midi": 24,
            "name": "C1",
            "ticks": 15984,
            "time": 20.8125,
            "velocity": 0.3937007874015748
          },
          {
            "duration": 0.0625,
            "durationTicks": 48,
            "midi": 36,
            "name": "C2",
            "ticks": 15984,
            "time": 20.8125,
            "velocity": 0.3937007874015748
          },
          {
            "duration": 0.0625,
            "durationTicks": 48,
            "midi": 26,
            "name": "D1",
            "ticks": 16128,
            "time": 21,
            "velocity": 0.3937007874015748
          },
          {
            "duration": 0.0625,
            "durationTicks": 48,
            "midi": 38,
            "name": "D2",
            "ticks": 16128,
            "time": 21,
            "velocity": 0.3937007874015748
          },
          {
            "duration": 0.0625,
            "durationTicks": 48,
            "midi": 45,
            "name": "A2",
            "ticks": 16416,
            "time": 21.375,
            "velocity": 0.3937007874015748
          },
          {
            "duration": 0.0625,
            "durationTicks": 48,
            "midi": 33,
            "name": "A1",
            "ticks": 16416,
            "time": 21.375,
            "velocity": 0.3937007874015748
          },
          {
            "duration": 0.0625,
            "durationTicks": 48,
            "midi": 26,
            "name": "D1",
            "ticks": 16560,
            "time": 21.5625,
            "velocity": 0.3937007874015748
          },
          {
            "duration": 0.0625,
            "durationTicks": 48,
            "midi": 38,
            "name": "D2",
            "ticks": 16560,
            "time": 21.5625,
            "velocity": 0.3937007874015748
          },
          {
            "duration": 0.0625,
            "durationTicks": 48,
            "midi": 40,
            "name": "E2",
            "ticks": 16704,
            "time": 21.75,
            "velocity": 0.3937007874015748
          },
          {
            "duration": 0.0625,
            "durationTicks": 48,
            "midi": 28,
            "name": "E1",
            "ticks": 16704,
            "time": 21.75,
            "velocity": 0.3937007874015748
          },
          {
            "duration": 0.0625,
            "durationTicks": 48,
            "midi": 28,
            "name": "E1",
            "ticks": 16992,
            "time": 22.125,
            "velocity": 0.3937007874015748
          },
          {
            "duration": 0.0625,
            "durationTicks": 48,
            "midi": 40,
            "name": "E2",
            "ticks": 16992,
            "time": 22.125,
            "velocity": 0.3937007874015748
          },
          {
            "duration": 0.0625,
            "durationTicks": 48,
            "midi": 28,
            "name": "E1",
            "ticks": 17136,
            "time": 22.3125,
            "velocity": 0.3937007874015748
          },
          {
            "duration": 0.0625,
            "durationTicks": 48,
            "midi": 40,
            "name": "E2",
            "ticks": 17136,
            "time": 22.3125,
            "velocity": 0.3937007874015748
          },
          {
            "duration": 0.0625,
            "durationTicks": 48,
            "midi": 40,
            "name": "E2",
            "ticks": 17424,
            "time": 22.6875,
            "velocity": 0.3937007874015748
          },
          {
            "duration": 0.0625,
            "durationTicks": 48,
            "midi": 28,
            "name": "E1",
            "ticks": 17424,
            "time": 22.6875,
            "velocity": 0.3937007874015748
          },
          {
            "duration": 0.0625,
            "durationTicks": 48,
            "midi": 28,
            "name": "E1",
            "ticks": 17568,
            "time": 22.875,
            "velocity": 0.3937007874015748
          },
          {
            "duration": 0.0625,
            "durationTicks": 48,
            "midi": 40,
            "name": "E2",
            "ticks": 17568,
            "time": 22.875,
            "velocity": 0.3937007874015748
          },
          {
            "duration": 0.0625,
            "durationTicks": 48,
            "midi": 28,
            "name": "E1",
            "ticks": 17712,
            "time": 23.0625,
            "velocity": 0.3937007874015748
          },
          {
            "duration": 0.0625,
            "durationTicks": 48,
            "midi": 40,
            "name": "E2",
            "ticks": 17712,
            "time": 23.0625,
            "velocity": 0.3937007874015748
          },
          {
            "duration": 0.0625,
            "durationTicks": 48,
            "midi": 31,
            "name": "G1",
            "ticks": 19008,
            "time": 24.75,
            "velocity": 0.3937007874015748
          },
          {
            "duration": 0.0625,
            "durationTicks": 48,
            "midi": 31,
            "name": "G1",
            "ticks": 19008,
            "time": 24.75,
            "velocity": 0.3937007874015748
          },
          {
            "duration": 0.0625,
            "durationTicks": 48,
            "midi": 31,
            "name": "G1",
            "ticks": 19296,
            "time": 25.125,
            "velocity": 0.3937007874015748
          },
          {
            "duration": 0.0625,
            "durationTicks": 48,
            "midi": 31,
            "name": "G1",
            "ticks": 19296,
            "time": 25.125,
            "velocity": 0.3937007874015748
          },
          {
            "duration": 0.0625,
            "durationTicks": 48,
            "midi": 31,
            "name": "G1",
            "ticks": 19440,
            "time": 25.3125,
            "velocity": 0.3937007874015748
          },
          {
            "duration": 0.0625,
            "durationTicks": 48,
            "midi": 31,
            "name": "G1",
            "ticks": 19440,
            "time": 25.3125,
            "velocity": 0.3937007874015748
          },
          {
            "duration": 0.0625,
            "durationTicks": 48,
            "midi": 31,
            "name": "G1",
            "ticks": 19728,
            "time": 25.6875,
            "velocity": 0.3937007874015748
          },
          {
            "duration": 0.0625,
            "durationTicks": 48,
            "midi": 31,
            "name": "G1",
            "ticks": 19728,
            "time": 25.6875,
            "velocity": 0.3937007874015748
          },
          {
            "duration": 0.0625,
            "durationTicks": 48,
            "midi": 31,
            "name": "G1",
            "ticks": 19872,
            "time": 25.875,
            "velocity": 0.3937007874015748
          },
          {
            "duration": 0.0625,
            "durationTicks": 48,
            "midi": 31,
            "name": "G1",
            "ticks": 19872,
            "time": 25.875,
            "velocity": 0.3937007874015748
          },
          {
            "duration": 0.0625,
            "durationTicks": 48,
            "midi": 31,
            "name": "G1",
            "ticks": 20016,
            "time": 26.0625,
            "velocity": 0.3937007874015748
          },
          {
            "duration": 0.0625,
            "durationTicks": 48,
            "midi": 31,
            "name": "G1",
            "ticks": 20016,
            "time": 26.0625,
            "velocity": 0.3937007874015748
          },
          {
            "duration": 0.0625,
            "durationTicks": 48,
            "midi": 36,
            "name": "C2",
            "ticks": 20160,
            "time": 26.25,
            "velocity": 0.3937007874015748
          },
          {
            "duration": 0.0625,
            "durationTicks": 48,
            "midi": 24,
            "name": "C1",
            "ticks": 20160,
            "time": 26.25,
            "velocity": 0.3937007874015748
          },
          {
            "duration": 0.0625,
            "durationTicks": 48,
            "midi": 24,
            "name": "C1",
            "ticks": 20448,
            "time": 26.625,
            "velocity": 0.3937007874015748
          },
          {
            "duration": 0.0625,
            "durationTicks": 48,
            "midi": 36,
            "name": "C2",
            "ticks": 20448,
            "time": 26.625,
            "velocity": 0.3937007874015748
          },
          {
            "duration": 0.0625,
            "durationTicks": 48,
            "midi": 24,
            "name": "C1",
            "ticks": 20592,
            "time": 26.8125,
            "velocity": 0.3937007874015748
          },
          {
            "duration": 0.0625,
            "durationTicks": 48,
            "midi": 36,
            "name": "C2",
            "ticks": 20592,
            "time": 26.8125,
            "velocity": 0.3937007874015748
          },
          {
            "duration": 0.0625,
            "durationTicks": 48,
            "midi": 24,
            "name": "C1",
            "ticks": 20880,
            "time": 27.1875,
            "velocity": 0.3937007874015748
          },
          {
            "duration": 0.0625,
            "durationTicks": 48,
            "midi": 36,
            "name": "C2",
            "ticks": 20880,
            "time": 27.1875,
            "velocity": 0.3937007874015748
          },
          {
            "duration": 0.0625,
            "durationTicks": 48,
            "midi": 36,
            "name": "C2",
            "ticks": 21024,
            "time": 27.375,
            "velocity": 0.3937007874015748
          },
          {
            "duration": 0.0625,
            "durationTicks": 48,
            "midi": 24,
            "name": "C1",
            "ticks": 21024,
            "time": 27.375,
            "velocity": 0.3937007874015748
          },
          {
            "duration": 0.0625,
            "durationTicks": 48,
            "midi": 24,
            "name": "C1",
            "ticks": 21168,
            "time": 27.5625,
            "velocity": 0.3937007874015748
          },
          {
            "duration": 0.0625,
            "durationTicks": 48,
            "midi": 36,
            "name": "C2",
            "ticks": 21168,
            "time": 27.5625,
            "velocity": 0.3937007874015748
          },
          {
            "duration": 0.0625,
            "durationTicks": 48,
            "midi": 36,
            "name": "C2",
            "ticks": 21312,
            "time": 27.75,
            "velocity": 0.3937007874015748
          },
          {
            "duration": 0.0625,
            "durationTicks": 48,
            "midi": 24,
            "name": "C1",
            "ticks": 21312,
            "time": 27.75,
            "velocity": 0.3937007874015748
          },
          {
            "duration": 0.0625,
            "durationTicks": 48,
            "midi": 36,
            "name": "C2",
            "ticks": 21600,
            "time": 28.125,
            "velocity": 0.3937007874015748
          },
          {
            "duration": 0.0625,
            "durationTicks": 48,
            "midi": 24,
            "name": "C1",
            "ticks": 21600,
            "time": 28.125,
            "velocity": 0.3937007874015748
          },
          {
            "duration": 0.0625,
            "durationTicks": 48,
            "midi": 36,
            "name": "C2",
            "ticks": 21744,
            "time": 28.3125,
            "velocity": 0.3937007874015748
          },
          {
            "duration": 0.0625,
            "durationTicks": 48,
            "midi": 24,
            "name": "C1",
            "ticks": 21744,
            "time": 28.3125,
            "velocity": 0.3937007874015748
          },
          {
            "duration": 0.0625,
            "durationTicks": 48,
            "midi": 24,
            "name": "C1",
            "ticks": 22032,
            "time": 28.6875,
            "velocity": 0.3937007874015748
          },
          {
            "duration": 0.0625,
            "durationTicks": 48,
            "midi": 36,
            "name": "C2",
            "ticks": 22032,
            "time": 28.6875,
            "velocity": 0.3937007874015748
          },
          {
            "duration": 0.0625,
            "durationTicks": 48,
            "midi": 36,
            "name": "C2",
            "ticks": 22176,
            "time": 28.875,
            "velocity": 0.3937007874015748
          },
          {
            "duration": 0.0625,
            "durationTicks": 48,
            "midi": 24,
            "name": "C1",
            "ticks": 22176,
            "time": 28.875,
            "velocity": 0.3937007874015748
          },
          {
            "duration": 0.0625,
            "durationTicks": 48,
            "midi": 24,
            "name": "C1",
            "ticks": 22320,
            "time": 29.0625,
            "velocity": 0.3937007874015748
          },
          {
            "duration": 0.0625,
            "durationTicks": 48,
            "midi": 36,
            "name": "C2",
            "ticks": 22320,
            "time": 29.0625,
            "velocity": 0.3937007874015748
          },
          {
            "duration": 0.0625,
            "durationTicks": 48,
            "midi": 38,
            "name": "D2",
            "ticks": 22464,
            "time": 29.25,
            "velocity": 0.3937007874015748
          },
          {
            "duration": 0.0625,
            "durationTicks": 48,
            "midi": 26,
            "name": "D1",
            "ticks": 22464,
            "time": 29.25,
            "velocity": 0.3937007874015748
          },
          {
            "duration": 0.0625,
            "durationTicks": 48,
            "midi": 33,
            "name": "A1",
            "ticks": 22752,
            "time": 29.625,
            "velocity": 0.3937007874015748
          },
          {
            "duration": 0.0625,
            "durationTicks": 48,
            "midi": 45,
            "name": "A2",
            "ticks": 22752,
            "time": 29.625,
            "velocity": 0.3937007874015748
          },
          {
            "duration": 0.0625,
            "durationTicks": 48,
            "midi": 38,
            "name": "D2",
            "ticks": 22896,
            "time": 29.8125,
            "velocity": 0.3937007874015748
          },
          {
            "duration": 0.0625,
            "durationTicks": 48,
            "midi": 26,
            "name": "D1",
            "ticks": 22896,
            "time": 29.8125,
            "velocity": 0.3937007874015748
          },
          {
            "duration": 0.0625,
            "durationTicks": 48,
            "midi": 28,
            "name": "E1",
            "ticks": 23040,
            "time": 30,
            "velocity": 0.3937007874015748
          },
          {
            "duration": 0.0625,
            "durationTicks": 48,
            "midi": 40,
            "name": "E2",
            "ticks": 23040,
            "time": 30,
            "velocity": 0.3937007874015748
          },
          {
            "duration": 0.0625,
            "durationTicks": 48,
            "midi": 40,
            "name": "E2",
            "ticks": 23328,
            "time": 30.375,
            "velocity": 0.3937007874015748
          },
          {
            "duration": 0.0625,
            "durationTicks": 48,
            "midi": 28,
            "name": "E1",
            "ticks": 23328,
            "time": 30.375,
            "velocity": 0.3937007874015748
          },
          {
            "duration": 0.0625,
            "durationTicks": 48,
            "midi": 40,
            "name": "E2",
            "ticks": 23472,
            "time": 30.5625,
            "velocity": 0.3937007874015748
          },
          {
            "duration": 0.0625,
            "durationTicks": 48,
            "midi": 28,
            "name": "E1",
            "ticks": 23472,
            "time": 30.5625,
            "velocity": 0.3937007874015748
          },
          {
            "duration": 0.0625,
            "durationTicks": 48,
            "midi": 28,
            "name": "E1",
            "ticks": 23760,
            "time": 30.9375,
            "velocity": 0.3937007874015748
          },
          {
            "duration": 0.0625,
            "durationTicks": 48,
            "midi": 40,
            "name": "E2",
            "ticks": 23760,
            "time": 30.9375,
            "velocity": 0.3937007874015748
          },
          {
            "duration": 0.0625,
            "durationTicks": 48,
            "midi": 40,
            "name": "E2",
            "ticks": 23904,
            "time": 31.125,
            "velocity": 0.3937007874015748
          },
          {
            "duration": 0.0625,
            "durationTicks": 48,
            "midi": 28,
            "name": "E1",
            "ticks": 23904,
            "time": 31.125,
            "velocity": 0.3937007874015748
          },
          {
            "duration": 0.0625,
            "durationTicks": 48,
            "midi": 40,
            "name": "E2",
            "ticks": 24048,
            "time": 31.3125,
            "velocity": 0.3937007874015748
          },
          {
            "duration": 0.0625,
            "durationTicks": 48,
            "midi": 28,
            "name": "E1",
            "ticks": 24048,
            "time": 31.3125,
            "velocity": 0.3937007874015748
          },
          {
            "duration": 0.0625,
            "durationTicks": 48,
            "midi": 31,
            "name": "G1",
            "ticks": 25344,
            "time": 33,
            "velocity": 0.3937007874015748
          },
          {
            "duration": 0.0625,
            "durationTicks": 48,
            "midi": 31,
            "name": "G1",
            "ticks": 25344,
            "time": 33,
            "velocity": 0.3937007874015748
          },
          {
            "duration": 0.0625,
            "durationTicks": 48,
            "midi": 31,
            "name": "G1",
            "ticks": 25632,
            "time": 33.375,
            "velocity": 0.3937007874015748
          },
          {
            "duration": 0.0625,
            "durationTicks": 48,
            "midi": 31,
            "name": "G1",
            "ticks": 25632,
            "time": 33.375,
            "velocity": 0.3937007874015748
          },
          {
            "duration": 0.0625,
            "durationTicks": 48,
            "midi": 31,
            "name": "G1",
            "ticks": 25776,
            "time": 33.5625,
            "velocity": 0.3937007874015748
          },
          {
            "duration": 0.0625,
            "durationTicks": 48,
            "midi": 31,
            "name": "G1",
            "ticks": 25776,
            "time": 33.5625,
            "velocity": 0.3937007874015748
          },
          {
            "duration": 0.0625,
            "durationTicks": 48,
            "midi": 31,
            "name": "G1",
            "ticks": 26064,
            "time": 33.9375,
            "velocity": 0.3937007874015748
          },
          {
            "duration": 0.0625,
            "durationTicks": 48,
            "midi": 31,
            "name": "G1",
            "ticks": 26064,
            "time": 33.9375,
            "velocity": 0.3937007874015748
          },
          {
            "duration": 0.0625,
            "durationTicks": 48,
            "midi": 31,
            "name": "G1",
            "ticks": 26208,
            "time": 34.125,
            "velocity": 0.3937007874015748
          },
          {
            "duration": 0.0625,
            "durationTicks": 48,
            "midi": 31,
            "name": "G1",
            "ticks": 26208,
            "time": 34.125,
            "velocity": 0.3937007874015748
          },
          {
            "duration": 0.0625,
            "durationTicks": 48,
            "midi": 31,
            "name": "G1",
            "ticks": 26352,
            "time": 34.3125,
            "velocity": 0.3937007874015748
          },
          {
            "duration": 0.0625,
            "durationTicks": 48,
            "midi": 31,
            "name": "G1",
            "ticks": 26352,
            "time": 34.3125,
            "velocity": 0.3937007874015748
          },
          {
            "duration": 0.0625,
            "durationTicks": 48,
            "midi": 36,
            "name": "C2",
            "ticks": 26496,
            "time": 34.5,
            "velocity": 0.3937007874015748
          },
          {
            "duration": 0.0625,
            "durationTicks": 48,
            "midi": 24,
            "name": "C1",
            "ticks": 26496,
            "time": 34.5,
            "velocity": 0.3937007874015748
          },
          {
            "duration": 0.0625,
            "durationTicks": 48,
            "midi": 24,
            "name": "C1",
            "ticks": 26784,
            "time": 34.875,
            "velocity": 0.3937007874015748
          },
          {
            "duration": 0.0625,
            "durationTicks": 48,
            "midi": 36,
            "name": "C2",
            "ticks": 26784,
            "time": 34.875,
            "velocity": 0.3937007874015748
          },
          {
            "duration": 0.0625,
            "durationTicks": 48,
            "midi": 36,
            "name": "C2",
            "ticks": 26928,
            "time": 35.0625,
            "velocity": 0.3937007874015748
          },
          {
            "duration": 0.0625,
            "durationTicks": 48,
            "midi": 24,
            "name": "C1",
            "ticks": 26928,
            "time": 35.0625,
            "velocity": 0.3937007874015748
          },
          {
            "duration": 0.0625,
            "durationTicks": 48,
            "midi": 24,
            "name": "C1",
            "ticks": 27216,
            "time": 35.4375,
            "velocity": 0.3937007874015748
          },
          {
            "duration": 0.0625,
            "durationTicks": 48,
            "midi": 36,
            "name": "C2",
            "ticks": 27216,
            "time": 35.4375,
            "velocity": 0.3937007874015748
          },
          {
            "duration": 0.0625,
            "durationTicks": 48,
            "midi": 36,
            "name": "C2",
            "ticks": 27360,
            "time": 35.625,
            "velocity": 0.3937007874015748
          },
          {
            "duration": 0.0625,
            "durationTicks": 48,
            "midi": 24,
            "name": "C1",
            "ticks": 27360,
            "time": 35.625,
            "velocity": 0.3937007874015748
          },
          {
            "duration": 0.0625,
            "durationTicks": 48,
            "midi": 24,
            "name": "C1",
            "ticks": 27504,
            "time": 35.8125,
            "velocity": 0.3937007874015748
          },
          {
            "duration": 0.0625,
            "durationTicks": 48,
            "midi": 36,
            "name": "C2",
            "ticks": 27504,
            "time": 35.8125,
            "velocity": 0.3937007874015748
          },
          {
            "duration": 0.0625,
            "durationTicks": 48,
            "midi": 36,
            "name": "C2",
            "ticks": 27648,
            "time": 36,
            "velocity": 0.3937007874015748
          },
          {
            "duration": 0.0625,
            "durationTicks": 48,
            "midi": 24,
            "name": "C1",
            "ticks": 27648,
            "time": 36,
            "velocity": 0.3937007874015748
          },
          {
            "duration": 0.0625,
            "durationTicks": 48,
            "midi": 36,
            "name": "C2",
            "ticks": 27936,
            "time": 36.375,
            "velocity": 0.3937007874015748
          },
          {
            "duration": 0.0625,
            "durationTicks": 48,
            "midi": 24,
            "name": "C1",
            "ticks": 27936,
            "time": 36.375,
            "velocity": 0.3937007874015748
          },
          {
            "duration": 0.0625,
            "durationTicks": 48,
            "midi": 36,
            "name": "C2",
            "ticks": 28080,
            "time": 36.5625,
            "velocity": 0.3937007874015748
          },
          {
            "duration": 0.0625,
            "durationTicks": 48,
            "midi": 24,
            "name": "C1",
            "ticks": 28080,
            "time": 36.5625,
            "velocity": 0.3937007874015748
          },
          {
            "duration": 0.0625,
            "durationTicks": 48,
            "midi": 24,
            "name": "C1",
            "ticks": 28368,
            "time": 36.9375,
            "velocity": 0.3937007874015748
          },
          {
            "duration": 0.0625,
            "durationTicks": 48,
            "midi": 36,
            "name": "C2",
            "ticks": 28368,
            "time": 36.9375,
            "velocity": 0.3937007874015748
          },
          {
            "duration": 0.0625,
            "durationTicks": 48,
            "midi": 24,
            "name": "C1",
            "ticks": 28512,
            "time": 37.125,
            "velocity": 0.3937007874015748
          },
          {
            "duration": 0.0625,
            "durationTicks": 48,
            "midi": 36,
            "name": "C2",
            "ticks": 28512,
            "time": 37.125,
            "velocity": 0.3937007874015748
          },
          {
            "duration": 0.0625,
            "durationTicks": 48,
            "midi": 24,
            "name": "C1",
            "ticks": 28656,
            "time": 37.3125,
            "velocity": 0.3937007874015748
          },
          {
            "duration": 0.0625,
            "durationTicks": 48,
            "midi": 36,
            "name": "C2",
            "ticks": 28656,
            "time": 37.3125,
            "velocity": 0.3937007874015748
          },
          {
            "duration": 0.0625,
            "durationTicks": 48,
            "midi": 38,
            "name": "D2",
            "ticks": 28800,
            "time": 37.5,
            "velocity": 0.3937007874015748
          },
          {
            "duration": 0.0625,
            "durationTicks": 48,
            "midi": 26,
            "name": "D1",
            "ticks": 28800,
            "time": 37.5,
            "velocity": 0.3937007874015748
          },
          {
            "duration": 0.0625,
            "durationTicks": 48,
            "midi": 33,
            "name": "A1",
            "ticks": 29088,
            "time": 37.875,
            "velocity": 0.3937007874015748
          },
          {
            "duration": 0.0625,
            "durationTicks": 48,
            "midi": 45,
            "name": "A2",
            "ticks": 29088,
            "time": 37.875,
            "velocity": 0.3937007874015748
          },
          {
            "duration": 0.0625,
            "durationTicks": 48,
            "midi": 26,
            "name": "D1",
            "ticks": 29232,
            "time": 38.0625,
            "velocity": 0.3937007874015748
          },
          {
            "duration": 0.0625,
            "durationTicks": 48,
            "midi": 38,
            "name": "D2",
            "ticks": 29232,
            "time": 38.0625,
            "velocity": 0.3937007874015748
          },
          {
            "duration": 0.0625,
            "durationTicks": 48,
            "midi": 40,
            "name": "E2",
            "ticks": 29376,
            "time": 38.25,
            "velocity": 0.3937007874015748
          },
          {
            "duration": 0.0625,
            "durationTicks": 48,
            "midi": 28,
            "name": "E1",
            "ticks": 29376,
            "time": 38.25,
            "velocity": 0.3937007874015748
          },
          {
            "duration": 0.0625,
            "durationTicks": 48,
            "midi": 40,
            "name": "E2",
            "ticks": 29664,
            "time": 38.625,
            "velocity": 0.3937007874015748
          },
          {
            "duration": 0.0625,
            "durationTicks": 48,
            "midi": 28,
            "name": "E1",
            "ticks": 29664,
            "time": 38.625,
            "velocity": 0.3937007874015748
          },
          {
            "duration": 0.0625,
            "durationTicks": 48,
            "midi": 28,
            "name": "E1",
            "ticks": 29808,
            "time": 38.8125,
            "velocity": 0.3937007874015748
          },
          {
            "duration": 0.0625,
            "durationTicks": 48,
            "midi": 40,
            "name": "E2",
            "ticks": 29808,
            "time": 38.8125,
            "velocity": 0.3937007874015748
          },
          {
            "duration": 0.0625,
            "durationTicks": 48,
            "midi": 40,
            "name": "E2",
            "ticks": 30096,
            "time": 39.1875,
            "velocity": 0.3937007874015748
          },
          {
            "duration": 0.0625,
            "durationTicks": 48,
            "midi": 28,
            "name": "E1",
            "ticks": 30096,
            "time": 39.1875,
            "velocity": 0.3937007874015748
          },
          {
            "duration": 0.0625,
            "durationTicks": 48,
            "midi": 28,
            "name": "E1",
            "ticks": 30240,
            "time": 39.375,
            "velocity": 0.3937007874015748
          },
          {
            "duration": 0.0625,
            "durationTicks": 48,
            "midi": 40,
            "name": "E2",
            "ticks": 30240,
            "time": 39.375,
            "velocity": 0.3937007874015748
          },
          {
            "duration": 0.0625,
            "durationTicks": 48,
            "midi": 28,
            "name": "E1",
            "ticks": 30384,
            "time": 39.5625,
            "velocity": 0.3937007874015748
          },
          {
            "duration": 0.0625,
            "durationTicks": 48,
            "midi": 40,
            "name": "E2",
            "ticks": 30384,
            "time": 39.5625,
            "velocity": 0.3937007874015748
          },
          {
            "duration": 0.0625,
            "durationTicks": 48,
            "midi": 31,
            "name": "G1",
            "ticks": 31680,
            "time": 41.25,
            "velocity": 0.3937007874015748
          },
          {
            "duration": 0.0625,
            "durationTicks": 48,
            "midi": 31,
            "name": "G1",
            "ticks": 31680,
            "time": 41.25,
            "velocity": 0.3937007874015748
          },
          {
            "duration": 0.0625,
            "durationTicks": 48,
            "midi": 31,
            "name": "G1",
            "ticks": 31968,
            "time": 41.625,
            "velocity": 0.3937007874015748
          },
          {
            "duration": 0.0625,
            "durationTicks": 48,
            "midi": 31,
            "name": "G1",
            "ticks": 31968,
            "time": 41.625,
            "velocity": 0.3937007874015748
          },
          {
            "duration": 0.0625,
            "durationTicks": 48,
            "midi": 31,
            "name": "G1",
            "ticks": 32112,
            "time": 41.8125,
            "velocity": 0.3937007874015748
          },
          {
            "duration": 0.0625,
            "durationTicks": 48,
            "midi": 31,
            "name": "G1",
            "ticks": 32112,
            "time": 41.8125,
            "velocity": 0.3937007874015748
          },
          {
            "duration": 0.0625,
            "durationTicks": 48,
            "midi": 31,
            "name": "G1",
            "ticks": 32400,
            "time": 42.1875,
            "velocity": 0.3937007874015748
          },
          {
            "duration": 0.0625,
            "durationTicks": 48,
            "midi": 31,
            "name": "G1",
            "ticks": 32400,
            "time": 42.1875,
            "velocity": 0.3937007874015748
          },
          {
            "duration": 0.0625,
            "durationTicks": 48,
            "midi": 31,
            "name": "G1",
            "ticks": 32544,
            "time": 42.375,
            "velocity": 0.3937007874015748
          },
          {
            "duration": 0.0625,
            "durationTicks": 48,
            "midi": 31,
            "name": "G1",
            "ticks": 32544,
            "time": 42.375,
            "velocity": 0.3937007874015748
          },
          {
            "duration": 0.0625,
            "durationTicks": 48,
            "midi": 31,
            "name": "G1",
            "ticks": 32688,
            "time": 42.5625,
            "velocity": 0.3937007874015748
          },
          {
            "duration": 0.0625,
            "durationTicks": 48,
            "midi": 31,
            "name": "G1",
            "ticks": 32688,
            "time": 42.5625,
            "velocity": 0.3937007874015748
          },
          {
            "duration": 0.0625,
            "durationTicks": 48,
            "midi": 36,
            "name": "C2",
            "ticks": 32832,
            "time": 42.75,
            "velocity": 0.3937007874015748
          },
          {
            "duration": 0.0625,
            "durationTicks": 48,
            "midi": 24,
            "name": "C1",
            "ticks": 32832,
            "time": 42.75,
            "velocity": 0.3937007874015748
          },
          {
            "duration": 0.0625,
            "durationTicks": 48,
            "midi": 24,
            "name": "C1",
            "ticks": 33120,
            "time": 43.125,
            "velocity": 0.3937007874015748
          },
          {
            "duration": 0.0625,
            "durationTicks": 48,
            "midi": 36,
            "name": "C2",
            "ticks": 33120,
            "time": 43.125,
            "velocity": 0.3937007874015748
          },
          {
            "duration": 0.0625,
            "durationTicks": 48,
            "midi": 36,
            "name": "C2",
            "ticks": 33264,
            "time": 43.3125,
            "velocity": 0.3937007874015748
          },
          {
            "duration": 0.0625,
            "durationTicks": 48,
            "midi": 24,
            "name": "C1",
            "ticks": 33264,
            "time": 43.3125,
            "velocity": 0.3937007874015748
          },
          {
            "duration": 0.0625,
            "durationTicks": 48,
            "midi": 36,
            "name": "C2",
            "ticks": 33552,
            "time": 43.6875,
            "velocity": 0.3937007874015748
          },
          {
            "duration": 0.0625,
            "durationTicks": 48,
            "midi": 24,
            "name": "C1",
            "ticks": 33552,
            "time": 43.6875,
            "velocity": 0.3937007874015748
          },
          {
            "duration": 0.0625,
            "durationTicks": 48,
            "midi": 24,
            "name": "C1",
            "ticks": 33696,
            "time": 43.875,
            "velocity": 0.3937007874015748
          },
          {
            "duration": 0.0625,
            "durationTicks": 48,
            "midi": 36,
            "name": "C2",
            "ticks": 33696,
            "time": 43.875,
            "velocity": 0.3937007874015748
          },
          {
            "duration": 0.0625,
            "durationTicks": 48,
            "midi": 36,
            "name": "C2",
            "ticks": 33840,
            "time": 44.0625,
            "velocity": 0.3937007874015748
          },
          {
            "duration": 0.0625,
            "durationTicks": 48,
            "midi": 24,
            "name": "C1",
            "ticks": 33840,
            "time": 44.0625,
            "velocity": 0.3937007874015748
          },
          {
            "duration": 0.0625,
            "durationTicks": 48,
            "midi": 24,
            "name": "C1",
            "ticks": 33984,
            "time": 44.25,
            "velocity": 0.3937007874015748
          },
          {
            "duration": 0.0625,
            "durationTicks": 48,
            "midi": 36,
            "name": "C2",
            "ticks": 33984,
            "time": 44.25,
            "velocity": 0.3937007874015748
          },
          {
            "duration": 0.0625,
            "durationTicks": 48,
            "midi": 24,
            "name": "C1",
            "ticks": 34272,
            "time": 44.625,
            "velocity": 0.3937007874015748
          },
          {
            "duration": 0.0625,
            "durationTicks": 48,
            "midi": 36,
            "name": "C2",
            "ticks": 34272,
            "time": 44.625,
            "velocity": 0.3937007874015748
          },
          {
            "duration": 0.0625,
            "durationTicks": 48,
            "midi": 24,
            "name": "C1",
            "ticks": 34416,
            "time": 44.8125,
            "velocity": 0.3937007874015748
          },
          {
            "duration": 0.0625,
            "durationTicks": 48,
            "midi": 36,
            "name": "C2",
            "ticks": 34416,
            "time": 44.8125,
            "velocity": 0.3937007874015748
          },
          {
            "duration": 0.0625,
            "durationTicks": 48,
            "midi": 24,
            "name": "C1",
            "ticks": 34704,
            "time": 45.1875,
            "velocity": 0.3937007874015748
          },
          {
            "duration": 0.0625,
            "durationTicks": 48,
            "midi": 36,
            "name": "C2",
            "ticks": 34704,
            "time": 45.1875,
            "velocity": 0.3937007874015748
          },
          {
            "duration": 0.0625,
            "durationTicks": 48,
            "midi": 36,
            "name": "C2",
            "ticks": 34848,
            "time": 45.375,
            "velocity": 0.3937007874015748
          },
          {
            "duration": 0.0625,
            "durationTicks": 48,
            "midi": 24,
            "name": "C1",
            "ticks": 34848,
            "time": 45.375,
            "velocity": 0.3937007874015748
          },
          {
            "duration": 0.0625,
            "durationTicks": 48,
            "midi": 24,
            "name": "C1",
            "ticks": 34992,
            "time": 45.5625,
            "velocity": 0.3937007874015748
          },
          {
            "duration": 0.0625,
            "durationTicks": 48,
            "midi": 36,
            "name": "C2",
            "ticks": 34992,
            "time": 45.5625,
            "velocity": 0.3937007874015748
          },
          {
            "duration": 0.0625,
            "durationTicks": 48,
            "midi": 26,
            "name": "D1",
            "ticks": 35136,
            "time": 45.75,
            "velocity": 0.3937007874015748
          },
          {
            "duration": 0.0625,
            "durationTicks": 48,
            "midi": 38,
            "name": "D2",
            "ticks": 35136,
            "time": 45.75,
            "velocity": 0.3937007874015748
          },
          {
            "duration": 0.0625,
            "durationTicks": 48,
            "midi": 45,
            "name": "A2",
            "ticks": 35424,
            "time": 46.125,
            "velocity": 0.3937007874015748
          },
          {
            "duration": 0.0625,
            "durationTicks": 48,
            "midi": 33,
            "name": "A1",
            "ticks": 35424,
            "time": 46.125,
            "velocity": 0.3937007874015748
          },
          {
            "duration": 0.0625,
            "durationTicks": 48,
            "midi": 38,
            "name": "D2",
            "ticks": 35568,
            "time": 46.3125,
            "velocity": 0.3937007874015748
          },
          {
            "duration": 0.0625,
            "durationTicks": 48,
            "midi": 26,
            "name": "D1",
            "ticks": 35568,
            "time": 46.3125,
            "velocity": 0.3937007874015748
          },
          {
            "duration": 0.0625,
            "durationTicks": 48,
            "midi": 28,
            "name": "E1",
            "ticks": 35712,
            "time": 46.5,
            "velocity": 0.3937007874015748
          },
          {
            "duration": 0.0625,
            "durationTicks": 48,
            "midi": 40,
            "name": "E2",
            "ticks": 35712,
            "time": 46.5,
            "velocity": 0.3937007874015748
          },
          {
            "duration": 0.0625,
            "durationTicks": 48,
            "midi": 28,
            "name": "E1",
            "ticks": 36000,
            "time": 46.875,
            "velocity": 0.3937007874015748
          },
          {
            "duration": 0.0625,
            "durationTicks": 48,
            "midi": 40,
            "name": "E2",
            "ticks": 36000,
            "time": 46.875,
            "velocity": 0.3937007874015748
          },
          {
            "duration": 0.0625,
            "durationTicks": 48,
            "midi": 40,
            "name": "E2",
            "ticks": 36144,
            "time": 47.0625,
            "velocity": 0.3937007874015748
          },
          {
            "duration": 0.0625,
            "durationTicks": 48,
            "midi": 28,
            "name": "E1",
            "ticks": 36144,
            "time": 47.0625,
            "velocity": 0.3937007874015748
          },
          {
            "duration": 0.0625,
            "durationTicks": 48,
            "midi": 28,
            "name": "E1",
            "ticks": 36432,
            "time": 47.4375,
            "velocity": 0.3937007874015748
          },
          {
            "duration": 0.0625,
            "durationTicks": 48,
            "midi": 40,
            "name": "E2",
            "ticks": 36432,
            "time": 47.4375,
            "velocity": 0.3937007874015748
          },
          {
            "duration": 0.0625,
            "durationTicks": 48,
            "midi": 28,
            "name": "E1",
            "ticks": 36576,
            "time": 47.625,
            "velocity": 0.3937007874015748
          },
          {
            "duration": 0.0625,
            "durationTicks": 48,
            "midi": 40,
            "name": "E2",
            "ticks": 36576,
            "time": 47.625,
            "velocity": 0.3937007874015748
          },
          {
            "duration": 0.0625,
            "durationTicks": 48,
            "midi": 40,
            "name": "E2",
            "ticks": 36720,
            "time": 47.8125,
            "velocity": 0.3937007874015748
          },
          {
            "duration": 0.0625,
            "durationTicks": 48,
            "midi": 28,
            "name": "E1",
            "ticks": 36720,
            "time": 47.8125,
            "velocity": 0.3937007874015748
          },
          {
            "duration": 0.0625,
            "durationTicks": 48,
            "midi": 31,
            "name": "G1",
            "ticks": 38016,
            "time": 49.5,
            "velocity": 0.3937007874015748
          },
          {
            "duration": 0.0625,
            "durationTicks": 48,
            "midi": 31,
            "name": "G1",
            "ticks": 38016,
            "time": 49.5,
            "velocity": 0.3937007874015748
          },
          {
            "duration": 0.0625,
            "durationTicks": 48,
            "midi": 31,
            "name": "G1",
            "ticks": 38304,
            "time": 49.875,
            "velocity": 0.3937007874015748
          },
          {
            "duration": 0.0625,
            "durationTicks": 48,
            "midi": 31,
            "name": "G1",
            "ticks": 38304,
            "time": 49.875,
            "velocity": 0.3937007874015748
          },
          {
            "duration": 0.0625,
            "durationTicks": 48,
            "midi": 31,
            "name": "G1",
            "ticks": 38448,
            "time": 50.0625,
            "velocity": 0.3937007874015748
          },
          {
            "duration": 0.0625,
            "durationTicks": 48,
            "midi": 31,
            "name": "G1",
            "ticks": 38448,
            "time": 50.0625,
            "velocity": 0.3937007874015748
          },
          {
            "duration": 0.0625,
            "durationTicks": 48,
            "midi": 31,
            "name": "G1",
            "ticks": 38736,
            "time": 50.4375,
            "velocity": 0.3937007874015748
          },
          {
            "duration": 0.0625,
            "durationTicks": 48,
            "midi": 31,
            "name": "G1",
            "ticks": 38736,
            "time": 50.4375,
            "velocity": 0.3937007874015748
          },
          {
            "duration": 0.0625,
            "durationTicks": 48,
            "midi": 31,
            "name": "G1",
            "ticks": 38880,
            "time": 50.625,
            "velocity": 0.3937007874015748
          },
          {
            "duration": 0.0625,
            "durationTicks": 48,
            "midi": 31,
            "name": "G1",
            "ticks": 38880,
            "time": 50.625,
            "velocity": 0.3937007874015748
          },
          {
            "duration": 0.0625,
            "durationTicks": 48,
            "midi": 31,
            "name": "G1",
            "ticks": 39024,
            "time": 50.8125,
            "velocity": 0.3937007874015748
          },
          {
            "duration": 0.0625,
            "durationTicks": 48,
            "midi": 31,
            "name": "G1",
            "ticks": 39024,
            "time": 50.8125,
            "velocity": 0.3937007874015748
          },
          {
            "duration": 0.0625,
            "durationTicks": 48,
            "midi": 24,
            "name": "C1",
            "ticks": 39168,
            "time": 51,
            "velocity": 0.3937007874015748
          },
          {
            "duration": 0.0625,
            "durationTicks": 48,
            "midi": 36,
            "name": "C2",
            "ticks": 39168,
            "time": 51,
            "velocity": 0.3937007874015748
          },
          {
            "duration": 0.0625,
            "durationTicks": 48,
            "midi": 24,
            "name": "C1",
            "ticks": 39456,
            "time": 51.375,
            "velocity": 0.3937007874015748
          },
          {
            "duration": 0.0625,
            "durationTicks": 48,
            "midi": 36,
            "name": "C2",
            "ticks": 39456,
            "time": 51.375,
            "velocity": 0.3937007874015748
          },
          {
            "duration": 0.0625,
            "durationTicks": 48,
            "midi": 36,
            "name": "C2",
            "ticks": 39600,
            "time": 51.5625,
            "velocity": 0.3937007874015748
          },
          {
            "duration": 0.0625,
            "durationTicks": 48,
            "midi": 24,
            "name": "C1",
            "ticks": 39600,
            "time": 51.5625,
            "velocity": 0.3937007874015748
          },
          {
            "duration": 0.0625,
            "durationTicks": 48,
            "midi": 36,
            "name": "C2",
            "ticks": 39888,
            "time": 51.9375,
            "velocity": 0.3937007874015748
          },
          {
            "duration": 0.0625,
            "durationTicks": 48,
            "midi": 24,
            "name": "C1",
            "ticks": 39888,
            "time": 51.9375,
            "velocity": 0.3937007874015748
          },
          {
            "duration": 0.0625,
            "durationTicks": 48,
            "midi": 36,
            "name": "C2",
            "ticks": 40032,
            "time": 52.125,
            "velocity": 0.3937007874015748
          },
          {
            "duration": 0.0625,
            "durationTicks": 48,
            "midi": 24,
            "name": "C1",
            "ticks": 40032,
            "time": 52.125,
            "velocity": 0.3937007874015748
          },
          {
            "duration": 0.0625,
            "durationTicks": 48,
            "midi": 36,
            "name": "C2",
            "ticks": 40176,
            "time": 52.3125,
            "velocity": 0.3937007874015748
          },
          {
            "duration": 0.0625,
            "durationTicks": 48,
            "midi": 24,
            "name": "C1",
            "ticks": 40176,
            "time": 52.3125,
            "velocity": 0.3937007874015748
          },
          {
            "duration": 0.0625,
            "durationTicks": 48,
            "midi": 36,
            "name": "C2",
            "ticks": 40320,
            "time": 52.5,
            "velocity": 0.3937007874015748
          },
          {
            "duration": 0.0625,
            "durationTicks": 48,
            "midi": 24,
            "name": "C1",
            "ticks": 40320,
            "time": 52.5,
            "velocity": 0.3937007874015748
          },
          {
            "duration": 0.0625,
            "durationTicks": 48,
            "midi": 36,
            "name": "C2",
            "ticks": 40608,
            "time": 52.875,
            "velocity": 0.3937007874015748
          },
          {
            "duration": 0.0625,
            "durationTicks": 48,
            "midi": 24,
            "name": "C1",
            "ticks": 40608,
            "time": 52.875,
            "velocity": 0.3937007874015748
          },
          {
            "duration": 0.0625,
            "durationTicks": 48,
            "midi": 24,
            "name": "C1",
            "ticks": 40752,
            "time": 53.0625,
            "velocity": 0.3937007874015748
          },
          {
            "duration": 0.0625,
            "durationTicks": 48,
            "midi": 36,
            "name": "C2",
            "ticks": 40752,
            "time": 53.0625,
            "velocity": 0.3937007874015748
          },
          {
            "duration": 0.0625,
            "durationTicks": 48,
            "midi": 24,
            "name": "C1",
            "ticks": 41040,
            "time": 53.4375,
            "velocity": 0.3937007874015748
          },
          {
            "duration": 0.0625,
            "durationTicks": 48,
            "midi": 36,
            "name": "C2",
            "ticks": 41040,
            "time": 53.4375,
            "velocity": 0.3937007874015748
          },
          {
            "duration": 0.0625,
            "durationTicks": 48,
            "midi": 36,
            "name": "C2",
            "ticks": 41184,
            "time": 53.625,
            "velocity": 0.3937007874015748
          },
          {
            "duration": 0.0625,
            "durationTicks": 48,
            "midi": 24,
            "name": "C1",
            "ticks": 41184,
            "time": 53.625,
            "velocity": 0.3937007874015748
          },
          {
            "duration": 0.0625,
            "durationTicks": 48,
            "midi": 36,
            "name": "C2",
            "ticks": 41328,
            "time": 53.8125,
            "velocity": 0.3937007874015748
          },
          {
            "duration": 0.0625,
            "durationTicks": 48,
            "midi": 24,
            "name": "C1",
            "ticks": 41328,
            "time": 53.8125,
            "velocity": 0.3937007874015748
          },
          {
            "duration": 0.0625,
            "durationTicks": 48,
            "midi": 26,
            "name": "D1",
            "ticks": 41472,
            "time": 54,
            "velocity": 0.3937007874015748
          },
          {
            "duration": 0.0625,
            "durationTicks": 48,
            "midi": 38,
            "name": "D2",
            "ticks": 41472,
            "time": 54,
            "velocity": 0.3937007874015748
          },
          {
            "duration": 0.0625,
            "durationTicks": 48,
            "midi": 45,
            "name": "A2",
            "ticks": 41760,
            "time": 54.375,
            "velocity": 0.3937007874015748
          },
          {
            "duration": 0.0625,
            "durationTicks": 48,
            "midi": 33,
            "name": "A1",
            "ticks": 41760,
            "time": 54.375,
            "velocity": 0.3937007874015748
          },
          {
            "duration": 0.0625,
            "durationTicks": 48,
            "midi": 38,
            "name": "D2",
            "ticks": 41904,
            "time": 54.5625,
            "velocity": 0.3937007874015748
          },
          {
            "duration": 0.0625,
            "durationTicks": 48,
            "midi": 26,
            "name": "D1",
            "ticks": 41904,
            "time": 54.5625,
            "velocity": 0.3937007874015748
          },
          {
            "duration": 0.0625,
            "durationTicks": 48,
            "midi": 40,
            "name": "E2",
            "ticks": 42048,
            "time": 54.75,
            "velocity": 0.3937007874015748
          },
          {
            "duration": 0.0625,
            "durationTicks": 48,
            "midi": 28,
            "name": "E1",
            "ticks": 42048,
            "time": 54.75,
            "velocity": 0.3937007874015748
          },
          {
            "duration": 0.0625,
            "durationTicks": 48,
            "midi": 40,
            "name": "E2",
            "ticks": 42336,
            "time": 55.125,
            "velocity": 0.3937007874015748
          },
          {
            "duration": 0.0625,
            "durationTicks": 48,
            "midi": 28,
            "name": "E1",
            "ticks": 42336,
            "time": 55.125,
            "velocity": 0.3937007874015748
          },
          {
            "duration": 0.0625,
            "durationTicks": 48,
            "midi": 40,
            "name": "E2",
            "ticks": 42480,
            "time": 55.3125,
            "velocity": 0.3937007874015748
          },
          {
            "duration": 0.0625,
            "durationTicks": 48,
            "midi": 28,
            "name": "E1",
            "ticks": 42480,
            "time": 55.3125,
            "velocity": 0.3937007874015748
          },
          {
            "duration": 0.0625,
            "durationTicks": 48,
            "midi": 28,
            "name": "E1",
            "ticks": 42768,
            "time": 55.6875,
            "velocity": 0.3937007874015748
          },
          {
            "duration": 0.0625,
            "durationTicks": 48,
            "midi": 40,
            "name": "E2",
            "ticks": 42768,
            "time": 55.6875,
            "velocity": 0.3937007874015748
          },
          {
            "duration": 0.0625,
            "durationTicks": 48,
            "midi": 28,
            "name": "E1",
            "ticks": 42912,
            "time": 55.875,
            "velocity": 0.3937007874015748
          },
          {
            "duration": 0.0625,
            "durationTicks": 48,
            "midi": 40,
            "name": "E2",
            "ticks": 42912,
            "time": 55.875,
            "velocity": 0.3937007874015748
          },
          {
            "duration": 0.0625,
            "durationTicks": 48,
            "midi": 40,
            "name": "E2",
            "ticks": 43056,
            "time": 56.0625,
            "velocity": 0.3937007874015748
          },
          {
            "duration": 0.0625,
            "durationTicks": 48,
            "midi": 28,
            "name": "E1",
            "ticks": 43056,
            "time": 56.0625,
            "velocity": 0.3937007874015748
          },
          {
            "duration": 0.0625,
            "durationTicks": 48,
            "midi": 31,
            "name": "G1",
            "ticks": 44352,
            "time": 57.75,
            "velocity": 0.3937007874015748
          },
          {
            "duration": 0.0625,
            "durationTicks": 48,
            "midi": 31,
            "name": "G1",
            "ticks": 44352,
            "time": 57.75,
            "velocity": 0.3937007874015748
          },
          {
            "duration": 0.0625,
            "durationTicks": 48,
            "midi": 31,
            "name": "G1",
            "ticks": 44640,
            "time": 58.125,
            "velocity": 0.3937007874015748
          },
          {
            "duration": 0.0625,
            "durationTicks": 48,
            "midi": 31,
            "name": "G1",
            "ticks": 44640,
            "time": 58.125,
            "velocity": 0.3937007874015748
          },
          {
            "duration": 0.0625,
            "durationTicks": 48,
            "midi": 31,
            "name": "G1",
            "ticks": 44784,
            "time": 58.3125,
            "velocity": 0.3937007874015748
          },
          {
            "duration": 0.0625,
            "durationTicks": 48,
            "midi": 31,
            "name": "G1",
            "ticks": 44784,
            "time": 58.3125,
            "velocity": 0.3937007874015748
          },
          {
            "duration": 0.0625,
            "durationTicks": 48,
            "midi": 31,
            "name": "G1",
            "ticks": 45072,
            "time": 58.6875,
            "velocity": 0.3937007874015748
          },
          {
            "duration": 0.0625,
            "durationTicks": 48,
            "midi": 31,
            "name": "G1",
            "ticks": 45072,
            "time": 58.6875,
            "velocity": 0.3937007874015748
          },
          {
            "duration": 0.0625,
            "durationTicks": 48,
            "midi": 31,
            "name": "G1",
            "ticks": 45216,
            "time": 58.875,
            "velocity": 0.3937007874015748
          },
          {
            "duration": 0.0625,
            "durationTicks": 48,
            "midi": 31,
            "name": "G1",
            "ticks": 45216,
            "time": 58.875,
            "velocity": 0.3937007874015748
          },
          {
            "duration": 0.0625,
            "durationTicks": 48,
            "midi": 31,
            "name": "G1",
            "ticks": 45360,
            "time": 59.0625,
            "velocity": 0.3937007874015748
          },
          {
            "duration": 0.0625,
            "durationTicks": 48,
            "midi": 31,
            "name": "G1",
            "ticks": 45360,
            "time": 59.0625,
            "velocity": 0.3937007874015748
          },
          {
            "duration": 0.0625,
            "durationTicks": 48,
            "midi": 24,
            "name": "C1",
            "ticks": 45504,
            "time": 59.25,
            "velocity": 0.3937007874015748
          },
          {
            "duration": 0.0625,
            "durationTicks": 48,
            "midi": 36,
            "name": "C2",
            "ticks": 45504,
            "time": 59.25,
            "velocity": 0.3937007874015748
          },
          {
            "duration": 0.0625,
            "durationTicks": 48,
            "midi": 36,
            "name": "C2",
            "ticks": 45792,
            "time": 59.625,
            "velocity": 0.3937007874015748
          },
          {
            "duration": 0.0625,
            "durationTicks": 48,
            "midi": 24,
            "name": "C1",
            "ticks": 45792,
            "time": 59.625,
            "velocity": 0.3937007874015748
          },
          {
            "duration": 0.0625,
            "durationTicks": 48,
            "midi": 24,
            "name": "C1",
            "ticks": 45936,
            "time": 59.8125,
            "velocity": 0.3937007874015748
          },
          {
            "duration": 0.0625,
            "durationTicks": 48,
            "midi": 36,
            "name": "C2",
            "ticks": 45936,
            "time": 59.8125,
            "velocity": 0.3937007874015748
          },
          {
            "duration": 0.0625,
            "durationTicks": 48,
            "midi": 24,
            "name": "C1",
            "ticks": 46224,
            "time": 60.1875,
            "velocity": 0.3937007874015748
          },
          {
            "duration": 0.0625,
            "durationTicks": 48,
            "midi": 36,
            "name": "C2",
            "ticks": 46224,
            "time": 60.1875,
            "velocity": 0.3937007874015748
          },
          {
            "duration": 0.0625,
            "durationTicks": 48,
            "midi": 36,
            "name": "C2",
            "ticks": 46368,
            "time": 60.375,
            "velocity": 0.3937007874015748
          },
          {
            "duration": 0.0625,
            "durationTicks": 48,
            "midi": 24,
            "name": "C1",
            "ticks": 46368,
            "time": 60.375,
            "velocity": 0.3937007874015748
          },
          {
            "duration": 0.0625,
            "durationTicks": 48,
            "midi": 36,
            "name": "C2",
            "ticks": 46512,
            "time": 60.5625,
            "velocity": 0.3937007874015748
          },
          {
            "duration": 0.0625,
            "durationTicks": 48,
            "midi": 24,
            "name": "C1",
            "ticks": 46512,
            "time": 60.5625,
            "velocity": 0.3937007874015748
          },
          {
            "duration": 0.0625,
            "durationTicks": 48,
            "midi": 36,
            "name": "C2",
            "ticks": 46656,
            "time": 60.75,
            "velocity": 0.3937007874015748
          },
          {
            "duration": 0.0625,
            "durationTicks": 48,
            "midi": 24,
            "name": "C1",
            "ticks": 46656,
            "time": 60.75,
            "velocity": 0.3937007874015748
          },
          {
            "duration": 0.0625,
            "durationTicks": 48,
            "midi": 36,
            "name": "C2",
            "ticks": 46944,
            "time": 61.125,
            "velocity": 0.3937007874015748
          },
          {
            "duration": 0.0625,
            "durationTicks": 48,
            "midi": 24,
            "name": "C1",
            "ticks": 46944,
            "time": 61.125,
            "velocity": 0.3937007874015748
          },
          {
            "duration": 0.0625,
            "durationTicks": 48,
            "midi": 36,
            "name": "C2",
            "ticks": 47088,
            "time": 61.3125,
            "velocity": 0.3937007874015748
          },
          {
            "duration": 0.0625,
            "durationTicks": 48,
            "midi": 24,
            "name": "C1",
            "ticks": 47088,
            "time": 61.3125,
            "velocity": 0.3937007874015748
          },
          {
            "duration": 0.0625,
            "durationTicks": 48,
            "midi": 24,
            "name": "C1",
            "ticks": 47376,
            "time": 61.6875,
            "velocity": 0.3937007874015748
          },
          {
            "duration": 0.0625,
            "durationTicks": 48,
            "midi": 36,
            "name": "C2",
            "ticks": 47376,
            "time": 61.6875,
            "velocity": 0.3937007874015748
          },
          {
            "duration": 0.0625,
            "durationTicks": 48,
            "midi": 36,
            "name": "C2",
            "ticks": 47520,
            "time": 61.875,
            "velocity": 0.3937007874015748
          },
          {
            "duration": 0.0625,
            "durationTicks": 48,
            "midi": 24,
            "name": "C1",
            "ticks": 47520,
            "time": 61.875,
            "velocity": 0.3937007874015748
          },
          {
            "duration": 0.0625,
            "durationTicks": 48,
            "midi": 24,
            "name": "C1",
            "ticks": 47664,
            "time": 62.0625,
            "velocity": 0.3937007874015748
          },
          {
            "duration": 0.0625,
            "durationTicks": 48,
            "midi": 36,
            "name": "C2",
            "ticks": 47664,
            "time": 62.0625,
            "velocity": 0.3937007874015748
          },
          {
            "duration": 0.0625,
            "durationTicks": 48,
            "midi": 26,
            "name": "D1",
            "ticks": 47808,
            "time": 62.25,
            "velocity": 0.3937007874015748
          },
          {
            "duration": 0.0625,
            "durationTicks": 48,
            "midi": 38,
            "name": "D2",
            "ticks": 47808,
            "time": 62.25,
            "velocity": 0.3937007874015748
          },
          {
            "duration": 0.0625,
            "durationTicks": 48,
            "midi": 33,
            "name": "A1",
            "ticks": 48096,
            "time": 62.625,
            "velocity": 0.3937007874015748
          },
          {
            "duration": 0.0625,
            "durationTicks": 48,
            "midi": 45,
            "name": "A2",
            "ticks": 48096,
            "time": 62.625,
            "velocity": 0.3937007874015748
          },
          {
            "duration": 0.0625,
            "durationTicks": 48,
            "midi": 38,
            "name": "D2",
            "ticks": 48240,
            "time": 62.8125,
            "velocity": 0.3937007874015748
          },
          {
            "duration": 0.0625,
            "durationTicks": 48,
            "midi": 26,
            "name": "D1",
            "ticks": 48240,
            "time": 62.8125,
            "velocity": 0.3937007874015748
          },
          {
            "duration": 0.0625,
            "durationTicks": 48,
            "midi": 28,
            "name": "E1",
            "ticks": 48384,
            "time": 63,
            "velocity": 0.3937007874015748
          },
          {
            "duration": 0.0625,
            "durationTicks": 48,
            "midi": 40,
            "name": "E2",
            "ticks": 48384,
            "time": 63,
            "velocity": 0.3937007874015748
          },
          {
            "duration": 0.0625,
            "durationTicks": 48,
            "midi": 28,
            "name": "E1",
            "ticks": 48672,
            "time": 63.375,
            "velocity": 0.3937007874015748
          },
          {
            "duration": 0.0625,
            "durationTicks": 48,
            "midi": 40,
            "name": "E2",
            "ticks": 48672,
            "time": 63.375,
            "velocity": 0.3937007874015748
          },
          {
            "duration": 0.0625,
            "durationTicks": 48,
            "midi": 28,
            "name": "E1",
            "ticks": 48816,
            "time": 63.5625,
            "velocity": 0.3937007874015748
          },
          {
            "duration": 0.0625,
            "durationTicks": 48,
            "midi": 40,
            "name": "E2",
            "ticks": 48816,
            "time": 63.5625,
            "velocity": 0.3937007874015748
          },
          {
            "duration": 0.0625,
            "durationTicks": 48,
            "midi": 28,
            "name": "E1",
            "ticks": 49104,
            "time": 63.9375,
            "velocity": 0.3937007874015748
          },
          {
            "duration": 0.0625,
            "durationTicks": 48,
            "midi": 40,
            "name": "E2",
            "ticks": 49104,
            "time": 63.9375,
            "velocity": 0.3937007874015748
          },
          {
            "duration": 0.0625,
            "durationTicks": 48,
            "midi": 40,
            "name": "E2",
            "ticks": 49248,
            "time": 64.125,
            "velocity": 0.3937007874015748
          },
          {
            "duration": 0.0625,
            "durationTicks": 48,
            "midi": 28,
            "name": "E1",
            "ticks": 49248,
            "time": 64.125,
            "velocity": 0.3937007874015748
          },
          {
            "duration": 0.0625,
            "durationTicks": 48,
            "midi": 28,
            "name": "E1",
            "ticks": 49392,
            "time": 64.3125,
            "velocity": 0.3937007874015748
          },
          {
            "duration": 0.0625,
            "durationTicks": 48,
            "midi": 40,
            "name": "E2",
            "ticks": 49392,
            "time": 64.3125,
            "velocity": 0.3937007874015748
          },
          {
            "duration": 0.0625,
            "durationTicks": 48,
            "midi": 31,
            "name": "G1",
            "ticks": 50688,
            "time": 66,
            "velocity": 0.3937007874015748
          },
          {
            "duration": 0.0625,
            "durationTicks": 48,
            "midi": 31,
            "name": "G1",
            "ticks": 50688,
            "time": 66,
            "velocity": 0.3937007874015748
          },
          {
            "duration": 0.0625,
            "durationTicks": 48,
            "midi": 31,
            "name": "G1",
            "ticks": 50976,
            "time": 66.375,
            "velocity": 0.3937007874015748
          },
          {
            "duration": 0.0625,
            "durationTicks": 48,
            "midi": 31,
            "name": "G1",
            "ticks": 50976,
            "time": 66.375,
            "velocity": 0.3937007874015748
          },
          {
            "duration": 0.0625,
            "durationTicks": 48,
            "midi": 31,
            "name": "G1",
            "ticks": 51120,
            "time": 66.5625,
            "velocity": 0.3937007874015748
          },
          {
            "duration": 0.0625,
            "durationTicks": 48,
            "midi": 31,
            "name": "G1",
            "ticks": 51120,
            "time": 66.5625,
            "velocity": 0.3937007874015748
          },
          {
            "duration": 0.0625,
            "durationTicks": 48,
            "midi": 31,
            "name": "G1",
            "ticks": 51408,
            "time": 66.9375,
            "velocity": 0.3937007874015748
          },
          {
            "duration": 0.0625,
            "durationTicks": 48,
            "midi": 31,
            "name": "G1",
            "ticks": 51408,
            "time": 66.9375,
            "velocity": 0.3937007874015748
          },
          {
            "duration": 0.0625,
            "durationTicks": 48,
            "midi": 31,
            "name": "G1",
            "ticks": 51552,
            "time": 67.125,
            "velocity": 0.3937007874015748
          },
          {
            "duration": 0.0625,
            "durationTicks": 48,
            "midi": 31,
            "name": "G1",
            "ticks": 51552,
            "time": 67.125,
            "velocity": 0.3937007874015748
          },
          {
            "duration": 0.0625,
            "durationTicks": 48,
            "midi": 31,
            "name": "G1",
            "ticks": 51696,
            "time": 67.3125,
            "velocity": 0.3937007874015748
          },
          {
            "duration": 0.0625,
            "durationTicks": 48,
            "midi": 31,
            "name": "G1",
            "ticks": 51696,
            "time": 67.3125,
            "velocity": 0.3937007874015748
          },
          {
            "duration": 0.0625,
            "durationTicks": 48,
            "midi": 24,
            "name": "C1",
            "ticks": 51840,
            "time": 67.5,
            "velocity": 0.3937007874015748
          },
          {
            "duration": 0.0625,
            "durationTicks": 48,
            "midi": 36,
            "name": "C2",
            "ticks": 51840,
            "time": 67.5,
            "velocity": 0.3937007874015748
          },
          {
            "duration": 0.0625,
            "durationTicks": 48,
            "midi": 36,
            "name": "C2",
            "ticks": 52128,
            "time": 67.875,
            "velocity": 0.3937007874015748
          },
          {
            "duration": 0.0625,
            "durationTicks": 48,
            "midi": 24,
            "name": "C1",
            "ticks": 52128,
            "time": 67.875,
            "velocity": 0.3937007874015748
          },
          {
            "duration": 0.0625,
            "durationTicks": 48,
            "midi": 24,
            "name": "C1",
            "ticks": 52272,
            "time": 68.0625,
            "velocity": 0.3937007874015748
          },
          {
            "duration": 0.0625,
            "durationTicks": 48,
            "midi": 36,
            "name": "C2",
            "ticks": 52272,
            "time": 68.0625,
            "velocity": 0.3937007874015748
          },
          {
            "duration": 0.0625,
            "durationTicks": 48,
            "midi": 36,
            "name": "C2",
            "ticks": 52560,
            "time": 68.4375,
            "velocity": 0.3937007874015748
          },
          {
            "duration": 0.0625,
            "durationTicks": 48,
            "midi": 24,
            "name": "C1",
            "ticks": 52560,
            "time": 68.4375,
            "velocity": 0.3937007874015748
          },
          {
            "duration": 0.0625,
            "durationTicks": 48,
            "midi": 36,
            "name": "C2",
            "ticks": 52704,
            "time": 68.625,
            "velocity": 0.3937007874015748
          },
          {
            "duration": 0.0625,
            "durationTicks": 48,
            "midi": 24,
            "name": "C1",
            "ticks": 52704,
            "time": 68.625,
            "velocity": 0.3937007874015748
          },
          {
            "duration": 0.0625,
            "durationTicks": 48,
            "midi": 24,
            "name": "C1",
            "ticks": 52848,
            "time": 68.8125,
            "velocity": 0.3937007874015748
          },
          {
            "duration": 0.0625,
            "durationTicks": 48,
            "midi": 36,
            "name": "C2",
            "ticks": 52848,
            "time": 68.8125,
            "velocity": 0.3937007874015748
          },
          {
            "duration": 0.0625,
            "durationTicks": 48,
            "midi": 36,
            "name": "C2",
            "ticks": 52992,
            "time": 69,
            "velocity": 0.3937007874015748
          },
          {
            "duration": 0.0625,
            "durationTicks": 48,
            "midi": 24,
            "name": "C1",
            "ticks": 52992,
            "time": 69,
            "velocity": 0.3937007874015748
          },
          {
            "duration": 0.0625,
            "durationTicks": 48,
            "midi": 36,
            "name": "C2",
            "ticks": 53280,
            "time": 69.375,
            "velocity": 0.3937007874015748
          },
          {
            "duration": 0.0625,
            "durationTicks": 48,
            "midi": 24,
            "name": "C1",
            "ticks": 53280,
            "time": 69.375,
            "velocity": 0.3937007874015748
          },
          {
            "duration": 0.0625,
            "durationTicks": 48,
            "midi": 24,
            "name": "C1",
            "ticks": 53424,
            "time": 69.5625,
            "velocity": 0.3937007874015748
          },
          {
            "duration": 0.0625,
            "durationTicks": 48,
            "midi": 36,
            "name": "C2",
            "ticks": 53424,
            "time": 69.5625,
            "velocity": 0.3937007874015748
          },
          {
            "duration": 0.0625,
            "durationTicks": 48,
            "midi": 36,
            "name": "C2",
            "ticks": 53712,
            "time": 69.9375,
            "velocity": 0.3937007874015748
          },
          {
            "duration": 0.0625,
            "durationTicks": 48,
            "midi": 24,
            "name": "C1",
            "ticks": 53712,
            "time": 69.9375,
            "velocity": 0.3937007874015748
          },
          {
            "duration": 0.0625,
            "durationTicks": 48,
            "midi": 24,
            "name": "C1",
            "ticks": 53856,
            "time": 70.125,
            "velocity": 0.3937007874015748
          },
          {
            "duration": 0.0625,
            "durationTicks": 48,
            "midi": 36,
            "name": "C2",
            "ticks": 53856,
            "time": 70.125,
            "velocity": 0.3937007874015748
          },
          {
            "duration": 0.0625,
            "durationTicks": 48,
            "midi": 36,
            "name": "C2",
            "ticks": 54000,
            "time": 70.3125,
            "velocity": 0.3937007874015748
          },
          {
            "duration": 0.0625,
            "durationTicks": 48,
            "midi": 24,
            "name": "C1",
            "ticks": 54000,
            "time": 70.3125,
            "velocity": 0.3937007874015748
          },
          {
            "duration": 0.0625,
            "durationTicks": 48,
            "midi": 26,
            "name": "D1",
            "ticks": 54144,
            "time": 70.5,
            "velocity": 0.3937007874015748
          },
          {
            "duration": 0.0625,
            "durationTicks": 48,
            "midi": 38,
            "name": "D2",
            "ticks": 54144,
            "time": 70.5,
            "velocity": 0.3937007874015748
          },
          {
            "duration": 0.0625,
            "durationTicks": 48,
            "midi": 33,
            "name": "A1",
            "ticks": 54432,
            "time": 70.875,
            "velocity": 0.3937007874015748
          },
          {
            "duration": 0.0625,
            "durationTicks": 48,
            "midi": 45,
            "name": "A2",
            "ticks": 54432,
            "time": 70.875,
            "velocity": 0.3937007874015748
          },
          {
            "duration": 0.0625,
            "durationTicks": 48,
            "midi": 26,
            "name": "D1",
            "ticks": 54576,
            "time": 71.0625,
            "velocity": 0.3937007874015748
          },
          {
            "duration": 0.0625,
            "durationTicks": 48,
            "midi": 38,
            "name": "D2",
            "ticks": 54576,
            "time": 71.0625,
            "velocity": 0.3937007874015748
          },
          {
            "duration": 0.0625,
            "durationTicks": 48,
            "midi": 40,
            "name": "E2",
            "ticks": 54720,
            "time": 71.25,
            "velocity": 0.3937007874015748
          },
          {
            "duration": 0.0625,
            "durationTicks": 48,
            "midi": 28,
            "name": "E1",
            "ticks": 54720,
            "time": 71.25,
            "velocity": 0.3937007874015748
          },
          {
            "duration": 0.0625,
            "durationTicks": 48,
            "midi": 40,
            "name": "E2",
            "ticks": 55008,
            "time": 71.625,
            "velocity": 0.3937007874015748
          },
          {
            "duration": 0.0625,
            "durationTicks": 48,
            "midi": 28,
            "name": "E1",
            "ticks": 55008,
            "time": 71.625,
            "velocity": 0.3937007874015748
          },
          {
            "duration": 0.0625,
            "durationTicks": 48,
            "midi": 28,
            "name": "E1",
            "ticks": 55152,
            "time": 71.8125,
            "velocity": 0.3937007874015748
          },
          {
            "duration": 0.0625,
            "durationTicks": 48,
            "midi": 40,
            "name": "E2",
            "ticks": 55152,
            "time": 71.8125,
            "velocity": 0.3937007874015748
          },
          {
            "duration": 0.0625,
            "durationTicks": 48,
            "midi": 40,
            "name": "E2",
            "ticks": 55440,
            "time": 72.1875,
            "velocity": 0.3937007874015748
          },
          {
            "duration": 0.0625,
            "durationTicks": 48,
            "midi": 28,
            "name": "E1",
            "ticks": 55440,
            "time": 72.1875,
            "velocity": 0.3937007874015748
          },
          {
            "duration": 0.0625,
            "durationTicks": 48,
            "midi": 40,
            "name": "E2",
            "ticks": 55584,
            "time": 72.375,
            "velocity": 0.3937007874015748
          },
          {
            "duration": 0.0625,
            "durationTicks": 48,
            "midi": 28,
            "name": "E1",
            "ticks": 55584,
            "time": 72.375,
            "velocity": 0.3937007874015748
          },
          {
            "duration": 0.0625,
            "durationTicks": 48,
            "midi": 40,
            "name": "E2",
            "ticks": 55728,
            "time": 72.5625,
            "velocity": 0.3937007874015748
          },
          {
            "duration": 0.0625,
            "durationTicks": 48,
            "midi": 28,
            "name": "E1",
            "ticks": 55728,
            "time": 72.5625,
            "velocity": 0.3937007874015748
          },
          {
            "duration": 0.0625,
            "durationTicks": 48,
            "midi": 31,
            "name": "G1",
            "ticks": 57024,
            "time": 74.25,
            "velocity": 0.3937007874015748
          },
          {
            "duration": 0.0625,
            "durationTicks": 48,
            "midi": 31,
            "name": "G1",
            "ticks": 57024,
            "time": 74.25,
            "velocity": 0.3937007874015748
          },
          {
            "duration": 0.0625,
            "durationTicks": 48,
            "midi": 31,
            "name": "G1",
            "ticks": 57312,
            "time": 74.625,
            "velocity": 0.3937007874015748
          },
          {
            "duration": 0.0625,
            "durationTicks": 48,
            "midi": 31,
            "name": "G1",
            "ticks": 57312,
            "time": 74.625,
            "velocity": 0.3937007874015748
          },
          {
            "duration": 0.0625,
            "durationTicks": 48,
            "midi": 31,
            "name": "G1",
            "ticks": 57456,
            "time": 74.8125,
            "velocity": 0.3937007874015748
          },
          {
            "duration": 0.0625,
            "durationTicks": 48,
            "midi": 31,
            "name": "G1",
            "ticks": 57456,
            "time": 74.8125,
            "velocity": 0.3937007874015748
          },
          {
            "duration": 0.0625,
            "durationTicks": 48,
            "midi": 31,
            "name": "G1",
            "ticks": 57744,
            "time": 75.1875,
            "velocity": 0.3937007874015748
          },
          {
            "duration": 0.0625,
            "durationTicks": 48,
            "midi": 31,
            "name": "G1",
            "ticks": 57744,
            "time": 75.1875,
            "velocity": 0.3937007874015748
          },
          {
            "duration": 0.0625,
            "durationTicks": 48,
            "midi": 31,
            "name": "G1",
            "ticks": 57888,
            "time": 75.375,
            "velocity": 0.3937007874015748
          },
          {
            "duration": 0.0625,
            "durationTicks": 48,
            "midi": 31,
            "name": "G1",
            "ticks": 57888,
            "time": 75.375,
            "velocity": 0.3937007874015748
          },
          {
            "duration": 0.0625,
            "durationTicks": 48,
            "midi": 31,
            "name": "G1",
            "ticks": 58032,
            "time": 75.5625,
            "velocity": 0.3937007874015748
          },
          {
            "duration": 0.0625,
            "durationTicks": 48,
            "midi": 31,
            "name": "G1",
            "ticks": 58032,
            "time": 75.5625,
            "velocity": 0.3937007874015748
          },
          {
            "duration": 0.0625,
            "durationTicks": 48,
            "midi": 24,
            "name": "C1",
            "ticks": 58176,
            "time": 75.75,
            "velocity": 0.3937007874015748
          },
          {
            "duration": 0.0625,
            "durationTicks": 48,
            "midi": 36,
            "name": "C2",
            "ticks": 58176,
            "time": 75.75,
            "velocity": 0.3937007874015748
          },
          {
            "duration": 0.0625,
            "durationTicks": 48,
            "midi": 36,
            "name": "C2",
            "ticks": 58464,
            "time": 76.125,
            "velocity": 0.3937007874015748
          },
          {
            "duration": 0.0625,
            "durationTicks": 48,
            "midi": 24,
            "name": "C1",
            "ticks": 58464,
            "time": 76.125,
            "velocity": 0.3937007874015748
          },
          {
            "duration": 0.0625,
            "durationTicks": 48,
            "midi": 24,
            "name": "C1",
            "ticks": 58608,
            "time": 76.3125,
            "velocity": 0.3937007874015748
          },
          {
            "duration": 0.0625,
            "durationTicks": 48,
            "midi": 36,
            "name": "C2",
            "ticks": 58608,
            "time": 76.3125,
            "velocity": 0.3937007874015748
          },
          {
            "duration": 0.0625,
            "durationTicks": 48,
            "midi": 36,
            "name": "C2",
            "ticks": 58896,
            "time": 76.6875,
            "velocity": 0.3937007874015748
          },
          {
            "duration": 0.0625,
            "durationTicks": 48,
            "midi": 24,
            "name": "C1",
            "ticks": 58896,
            "time": 76.6875,
            "velocity": 0.3937007874015748
          },
          {
            "duration": 0.0625,
            "durationTicks": 48,
            "midi": 36,
            "name": "C2",
            "ticks": 59040,
            "time": 76.875,
            "velocity": 0.3937007874015748
          },
          {
            "duration": 0.0625,
            "durationTicks": 48,
            "midi": 24,
            "name": "C1",
            "ticks": 59040,
            "time": 76.875,
            "velocity": 0.3937007874015748
          },
          {
            "duration": 0.0625,
            "durationTicks": 48,
            "midi": 36,
            "name": "C2",
            "ticks": 59184,
            "time": 77.0625,
            "velocity": 0.3937007874015748
          },
          {
            "duration": 0.0625,
            "durationTicks": 48,
            "midi": 24,
            "name": "C1",
            "ticks": 59184,
            "time": 77.0625,
            "velocity": 0.3937007874015748
          },
          {
            "duration": 0.0625,
            "durationTicks": 48,
            "midi": 24,
            "name": "C1",
            "ticks": 59328,
            "time": 77.25,
            "velocity": 0.3937007874015748
          },
          {
            "duration": 0.0625,
            "durationTicks": 48,
            "midi": 36,
            "name": "C2",
            "ticks": 59328,
            "time": 77.25,
            "velocity": 0.3937007874015748
          },
          {
            "duration": 0.0625,
            "durationTicks": 48,
            "midi": 24,
            "name": "C1",
            "ticks": 59616,
            "time": 77.625,
            "velocity": 0.3937007874015748
          },
          {
            "duration": 0.0625,
            "durationTicks": 48,
            "midi": 36,
            "name": "C2",
            "ticks": 59616,
            "time": 77.625,
            "velocity": 0.3937007874015748
          },
          {
            "duration": 0.0625,
            "durationTicks": 48,
            "midi": 36,
            "name": "C2",
            "ticks": 59760,
            "time": 77.8125,
            "velocity": 0.3937007874015748
          },
          {
            "duration": 0.0625,
            "durationTicks": 48,
            "midi": 24,
            "name": "C1",
            "ticks": 59760,
            "time": 77.8125,
            "velocity": 0.3937007874015748
          },
          {
            "duration": 0.0625,
            "durationTicks": 48,
            "midi": 24,
            "name": "C1",
            "ticks": 60048,
            "time": 78.1875,
            "velocity": 0.3937007874015748
          },
          {
            "duration": 0.0625,
            "durationTicks": 48,
            "midi": 36,
            "name": "C2",
            "ticks": 60048,
            "time": 78.1875,
            "velocity": 0.3937007874015748
          },
          {
            "duration": 0.0625,
            "durationTicks": 48,
            "midi": 36,
            "name": "C2",
            "ticks": 60192,
            "time": 78.375,
            "velocity": 0.3937007874015748
          },
          {
            "duration": 0.0625,
            "durationTicks": 48,
            "midi": 24,
            "name": "C1",
            "ticks": 60192,
            "time": 78.375,
            "velocity": 0.3937007874015748
          },
          {
            "duration": 0.0625,
            "durationTicks": 48,
            "midi": 24,
            "name": "C1",
            "ticks": 60336,
            "time": 78.5625,
            "velocity": 0.3937007874015748
          },
          {
            "duration": 0.0625,
            "durationTicks": 48,
            "midi": 36,
            "name": "C2",
            "ticks": 60336,
            "time": 78.5625,
            "velocity": 0.3937007874015748
          },
          {
            "duration": 0.0625,
            "durationTicks": 48,
            "midi": 26,
            "name": "D1",
            "ticks": 60480,
            "time": 78.75,
            "velocity": 0.3937007874015748
          },
          {
            "duration": 0.0625,
            "durationTicks": 48,
            "midi": 38,
            "name": "D2",
            "ticks": 60480,
            "time": 78.75,
            "velocity": 0.3937007874015748
          },
          {
            "duration": 0.0625,
            "durationTicks": 48,
            "midi": 45,
            "name": "A2",
            "ticks": 60768,
            "time": 79.125,
            "velocity": 0.3937007874015748
          },
          {
            "duration": 0.0625,
            "durationTicks": 48,
            "midi": 33,
            "name": "A1",
            "ticks": 60768,
            "time": 79.125,
            "velocity": 0.3937007874015748
          },
          {
            "duration": 0.0625,
            "durationTicks": 48,
            "midi": 26,
            "name": "D1",
            "ticks": 60912,
            "time": 79.3125,
            "velocity": 0.3937007874015748
          },
          {
            "duration": 0.0625,
            "durationTicks": 48,
            "midi": 38,
            "name": "D2",
            "ticks": 60912,
            "time": 79.3125,
            "velocity": 0.3937007874015748
          },
          {
            "duration": 0.0625,
            "durationTicks": 48,
            "midi": 28,
            "name": "E1",
            "ticks": 61056,
            "time": 79.5,
            "velocity": 0.3937007874015748
          },
          {
            "duration": 0.0625,
            "durationTicks": 48,
            "midi": 40,
            "name": "E2",
            "ticks": 61056,
            "time": 79.5,
            "velocity": 0.3937007874015748
          },
          {
            "duration": 0.0625,
            "durationTicks": 48,
            "midi": 40,
            "name": "E2",
            "ticks": 61344,
            "time": 79.875,
            "velocity": 0.3937007874015748
          },
          {
            "duration": 0.0625,
            "durationTicks": 48,
            "midi": 28,
            "name": "E1",
            "ticks": 61344,
            "time": 79.875,
            "velocity": 0.3937007874015748
          },
          {
            "duration": 0.0625,
            "durationTicks": 48,
            "midi": 28,
            "name": "E1",
            "ticks": 61488,
            "time": 80.0625,
            "velocity": 0.3937007874015748
          },
          {
            "duration": 0.0625,
            "durationTicks": 48,
            "midi": 40,
            "name": "E2",
            "ticks": 61488,
            "time": 80.0625,
            "velocity": 0.3937007874015748
          },
          {
            "duration": 0.0625,
            "durationTicks": 48,
            "midi": 28,
            "name": "E1",
            "ticks": 61776,
            "time": 80.4375,
            "velocity": 0.3937007874015748
          },
          {
            "duration": 0.0625,
            "durationTicks": 48,
            "midi": 40,
            "name": "E2",
            "ticks": 61776,
            "time": 80.4375,
            "velocity": 0.3937007874015748
          },
          {
            "duration": 0.0625,
            "durationTicks": 48,
            "midi": 28,
            "name": "E1",
            "ticks": 61920,
            "time": 80.625,
            "velocity": 0.3937007874015748
          },
          {
            "duration": 0.0625,
            "durationTicks": 48,
            "midi": 40,
            "name": "E2",
            "ticks": 61920,
            "time": 80.625,
            "velocity": 0.3937007874015748
          },
          {
            "duration": 0.0625,
            "durationTicks": 48,
            "midi": 28,
            "name": "E1",
            "ticks": 62064,
            "time": 80.8125,
            "velocity": 0.3937007874015748
          },
          {
            "duration": 0.0625,
            "durationTicks": 48,
            "midi": 40,
            "name": "E2",
            "ticks": 62064,
            "time": 80.8125,
            "velocity": 0.3937007874015748
          },
          {
            "duration": 0.0625,
            "durationTicks": 48,
            "midi": 31,
            "name": "G1",
            "ticks": 63360,
            "time": 82.5,
            "velocity": 0.3937007874015748
          },
          {
            "duration": 0.0625,
            "durationTicks": 48,
            "midi": 31,
            "name": "G1",
            "ticks": 63360,
            "time": 82.5,
            "velocity": 0.3937007874015748
          },
          {
            "duration": 0.0625,
            "durationTicks": 48,
            "midi": 31,
            "name": "G1",
            "ticks": 63648,
            "time": 82.875,
            "velocity": 0.3937007874015748
          },
          {
            "duration": 0.0625,
            "durationTicks": 48,
            "midi": 31,
            "name": "G1",
            "ticks": 63648,
            "time": 82.875,
            "velocity": 0.3937007874015748
          },
          {
            "duration": 0.0625,
            "durationTicks": 48,
            "midi": 31,
            "name": "G1",
            "ticks": 63792,
            "time": 83.0625,
            "velocity": 0.3937007874015748
          },
          {
            "duration": 0.0625,
            "durationTicks": 48,
            "midi": 31,
            "name": "G1",
            "ticks": 63792,
            "time": 83.0625,
            "velocity": 0.3937007874015748
          },
          {
            "duration": 0.0625,
            "durationTicks": 48,
            "midi": 31,
            "name": "G1",
            "ticks": 64080,
            "time": 83.4375,
            "velocity": 0.3937007874015748
          },
          {
            "duration": 0.0625,
            "durationTicks": 48,
            "midi": 31,
            "name": "G1",
            "ticks": 64080,
            "time": 83.4375,
            "velocity": 0.3937007874015748
          },
          {
            "duration": 0.0625,
            "durationTicks": 48,
            "midi": 31,
            "name": "G1",
            "ticks": 64224,
            "time": 83.625,
            "velocity": 0.3937007874015748
          },
          {
            "duration": 0.0625,
            "durationTicks": 48,
            "midi": 31,
            "name": "G1",
            "ticks": 64224,
            "time": 83.625,
            "velocity": 0.3937007874015748
          },
          {
            "duration": 0.0625,
            "durationTicks": 48,
            "midi": 31,
            "name": "G1",
            "ticks": 64368,
            "time": 83.8125,
            "velocity": 0.3937007874015748
          },
          {
            "duration": 0.0625,
            "durationTicks": 48,
            "midi": 31,
            "name": "G1",
            "ticks": 64368,
            "time": 83.8125,
            "velocity": 0.3937007874015748
          },
          {
            "duration": 0.0625,
            "durationTicks": 48,
            "midi": 24,
            "name": "C1",
            "ticks": 64512,
            "time": 84,
            "velocity": 0.3937007874015748
          },
          {
            "duration": 0.0625,
            "durationTicks": 48,
            "midi": 36,
            "name": "C2",
            "ticks": 64512,
            "time": 84,
            "velocity": 0.3937007874015748
          },
          {
            "duration": 0.0625,
            "durationTicks": 48,
            "midi": 36,
            "name": "C2",
            "ticks": 64800,
            "time": 84.375,
            "velocity": 0.3937007874015748
          },
          {
            "duration": 0.0625,
            "durationTicks": 48,
            "midi": 24,
            "name": "C1",
            "ticks": 64800,
            "time": 84.375,
            "velocity": 0.3937007874015748
          },
          {
            "duration": 0.0625,
            "durationTicks": 48,
            "midi": 24,
            "name": "C1",
            "ticks": 64944,
            "time": 84.5625,
            "velocity": 0.3937007874015748
          },
          {
            "duration": 0.0625,
            "durationTicks": 48,
            "midi": 36,
            "name": "C2",
            "ticks": 64944,
            "time": 84.5625,
            "velocity": 0.3937007874015748
          },
          {
            "duration": 0.0625,
            "durationTicks": 48,
            "midi": 24,
            "name": "C1",
            "ticks": 65232,
            "time": 84.9375,
            "velocity": 0.3937007874015748
          },
          {
            "duration": 0.0625,
            "durationTicks": 48,
            "midi": 36,
            "name": "C2",
            "ticks": 65232,
            "time": 84.9375,
            "velocity": 0.3937007874015748
          },
          {
            "duration": 0.0625,
            "durationTicks": 48,
            "midi": 24,
            "name": "C1",
            "ticks": 65376,
            "time": 85.125,
            "velocity": 0.3937007874015748
          },
          {
            "duration": 0.0625,
            "durationTicks": 48,
            "midi": 36,
            "name": "C2",
            "ticks": 65376,
            "time": 85.125,
            "velocity": 0.3937007874015748
          },
          {
            "duration": 0.0625,
            "durationTicks": 48,
            "midi": 24,
            "name": "C1",
            "ticks": 65520,
            "time": 85.3125,
            "velocity": 0.3937007874015748
          },
          {
            "duration": 0.0625,
            "durationTicks": 48,
            "midi": 36,
            "name": "C2",
            "ticks": 65520,
            "time": 85.3125,
            "velocity": 0.3937007874015748
          },
          {
            "duration": 0.0625,
            "durationTicks": 48,
            "midi": 36,
            "name": "C2",
            "ticks": 65664,
            "time": 85.5,
            "velocity": 0.3937007874015748
          },
          {
            "duration": 0.0625,
            "durationTicks": 48,
            "midi": 24,
            "name": "C1",
            "ticks": 65664,
            "time": 85.5,
            "velocity": 0.3937007874015748
          },
          {
            "duration": 0.0625,
            "durationTicks": 48,
            "midi": 24,
            "name": "C1",
            "ticks": 65952,
            "time": 85.875,
            "velocity": 0.3937007874015748
          },
          {
            "duration": 0.0625,
            "durationTicks": 48,
            "midi": 36,
            "name": "C2",
            "ticks": 65952,
            "time": 85.875,
            "velocity": 0.3937007874015748
          },
          {
            "duration": 0.0625,
            "durationTicks": 48,
            "midi": 24,
            "name": "C1",
            "ticks": 66096,
            "time": 86.0625,
            "velocity": 0.3937007874015748
          },
          {
            "duration": 0.0625,
            "durationTicks": 48,
            "midi": 36,
            "name": "C2",
            "ticks": 66096,
            "time": 86.0625,
            "velocity": 0.3937007874015748
          },
          {
            "duration": 0.0625,
            "durationTicks": 48,
            "midi": 24,
            "name": "C1",
            "ticks": 66384,
            "time": 86.4375,
            "velocity": 0.3937007874015748
          },
          {
            "duration": 0.0625,
            "durationTicks": 48,
            "midi": 36,
            "name": "C2",
            "ticks": 66384,
            "time": 86.4375,
            "velocity": 0.3937007874015748
          },
          {
            "duration": 0.0625,
            "durationTicks": 48,
            "midi": 24,
            "name": "C1",
            "ticks": 66528,
            "time": 86.625,
            "velocity": 0.3937007874015748
          },
          {
            "duration": 0.0625,
            "durationTicks": 48,
            "midi": 36,
            "name": "C2",
            "ticks": 66528,
            "time": 86.625,
            "velocity": 0.3937007874015748
          },
          {
            "duration": 0.0625,
            "durationTicks": 48,
            "midi": 36,
            "name": "C2",
            "ticks": 66672,
            "time": 86.8125,
            "velocity": 0.3937007874015748
          },
          {
            "duration": 0.0625,
            "durationTicks": 48,
            "midi": 24,
            "name": "C1",
            "ticks": 66672,
            "time": 86.8125,
            "velocity": 0.3937007874015748
          },
          {
            "duration": 0.0625,
            "durationTicks": 48,
            "midi": 38,
            "name": "D2",
            "ticks": 66816,
            "time": 87,
            "velocity": 0.3937007874015748
          },
          {
            "duration": 0.0625,
            "durationTicks": 48,
            "midi": 26,
            "name": "D1",
            "ticks": 66816,
            "time": 87,
            "velocity": 0.3937007874015748
          },
          {
            "duration": 0.0625,
            "durationTicks": 48,
            "midi": 33,
            "name": "A1",
            "ticks": 67104,
            "time": 87.375,
            "velocity": 0.3937007874015748
          },
          {
            "duration": 0.0625,
            "durationTicks": 48,
            "midi": 45,
            "name": "A2",
            "ticks": 67104,
            "time": 87.375,
            "velocity": 0.3937007874015748
          },
          {
            "duration": 0.0625,
            "durationTicks": 48,
            "midi": 26,
            "name": "D1",
            "ticks": 67248,
            "time": 87.5625,
            "velocity": 0.3937007874015748
          },
          {
            "duration": 0.0625,
            "durationTicks": 48,
            "midi": 38,
            "name": "D2",
            "ticks": 67248,
            "time": 87.5625,
            "velocity": 0.3937007874015748
          },
          {
            "duration": 0.0625,
            "durationTicks": 48,
            "midi": 40,
            "name": "E2",
            "ticks": 67392,
            "time": 87.75,
            "velocity": 0.3937007874015748
          },
          {
            "duration": 0.0625,
            "durationTicks": 48,
            "midi": 28,
            "name": "E1",
            "ticks": 67392,
            "time": 87.75,
            "velocity": 0.3937007874015748
          },
          {
            "duration": 0.0625,
            "durationTicks": 48,
            "midi": 28,
            "name": "E1",
            "ticks": 67680,
            "time": 88.125,
            "velocity": 0.3937007874015748
          },
          {
            "duration": 0.0625,
            "durationTicks": 48,
            "midi": 40,
            "name": "E2",
            "ticks": 67680,
            "time": 88.125,
            "velocity": 0.3937007874015748
          },
          {
            "duration": 0.0625,
            "durationTicks": 48,
            "midi": 28,
            "name": "E1",
            "ticks": 67824,
            "time": 88.3125,
            "velocity": 0.3937007874015748
          },
          {
            "duration": 0.0625,
            "durationTicks": 48,
            "midi": 40,
            "name": "E2",
            "ticks": 67824,
            "time": 88.3125,
            "velocity": 0.3937007874015748
          },
          {
            "duration": 0.0625,
            "durationTicks": 48,
            "midi": 28,
            "name": "E1",
            "ticks": 68112,
            "time": 88.6875,
            "velocity": 0.3937007874015748
          },
          {
            "duration": 0.0625,
            "durationTicks": 48,
            "midi": 40,
            "name": "E2",
            "ticks": 68112,
            "time": 88.6875,
            "velocity": 0.3937007874015748
          },
          {
            "duration": 0.0625,
            "durationTicks": 48,
            "midi": 28,
            "name": "E1",
            "ticks": 68256,
            "time": 88.875,
            "velocity": 0.3937007874015748
          },
          {
            "duration": 0.0625,
            "durationTicks": 48,
            "midi": 40,
            "name": "E2",
            "ticks": 68256,
            "time": 88.875,
            "velocity": 0.3937007874015748
          },
          {
            "duration": 0.0625,
            "durationTicks": 48,
            "midi": 40,
            "name": "E2",
            "ticks": 68400,
            "time": 89.0625,
            "velocity": 0.3937007874015748
          },
          {
            "duration": 0.0625,
            "durationTicks": 48,
            "midi": 28,
            "name": "E1",
            "ticks": 68400,
            "time": 89.0625,
            "velocity": 0.3937007874015748
          },
          {
            "duration": 0.0625,
            "durationTicks": 48,
            "midi": 31,
            "name": "G1",
            "ticks": 69696,
            "time": 90.75,
            "velocity": 0.3937007874015748
          },
          {
            "duration": 0.0625,
            "durationTicks": 48,
            "midi": 31,
            "name": "G1",
            "ticks": 69696,
            "time": 90.75,
            "velocity": 0.3937007874015748
          },
          {
            "duration": 0.0625,
            "durationTicks": 48,
            "midi": 31,
            "name": "G1",
            "ticks": 69984,
            "time": 91.125,
            "velocity": 0.3937007874015748
          },
          {
            "duration": 0.0625,
            "durationTicks": 48,
            "midi": 31,
            "name": "G1",
            "ticks": 69984,
            "time": 91.125,
            "velocity": 0.3937007874015748
          },
          {
            "duration": 0.0625,
            "durationTicks": 48,
            "midi": 31,
            "name": "G1",
            "ticks": 70128,
            "time": 91.3125,
            "velocity": 0.3937007874015748
          },
          {
            "duration": 0.0625,
            "durationTicks": 48,
            "midi": 31,
            "name": "G1",
            "ticks": 70128,
            "time": 91.3125,
            "velocity": 0.3937007874015748
          },
          {
            "duration": 0.0625,
            "durationTicks": 48,
            "midi": 31,
            "name": "G1",
            "ticks": 70416,
            "time": 91.6875,
            "velocity": 0.3937007874015748
          },
          {
            "duration": 0.0625,
            "durationTicks": 48,
            "midi": 31,
            "name": "G1",
            "ticks": 70416,
            "time": 91.6875,
            "velocity": 0.3937007874015748
          },
          {
            "duration": 0.0625,
            "durationTicks": 48,
            "midi": 31,
            "name": "G1",
            "ticks": 70560,
            "time": 91.875,
            "velocity": 0.3937007874015748
          },
          {
            "duration": 0.0625,
            "durationTicks": 48,
            "midi": 31,
            "name": "G1",
            "ticks": 70560,
            "time": 91.875,
            "velocity": 0.3937007874015748
          },
          {
            "duration": 0.0625,
            "durationTicks": 48,
            "midi": 31,
            "name": "G1",
            "ticks": 70704,
            "time": 92.0625,
            "velocity": 0.3937007874015748
          },
          {
            "duration": 0.0625,
            "durationTicks": 48,
            "midi": 31,
            "name": "G1",
            "ticks": 70704,
            "time": 92.0625,
            "velocity": 0.3937007874015748
          },
          {
            "duration": 0.0625,
            "durationTicks": 48,
            "midi": 24,
            "name": "C1",
            "ticks": 70848,
            "time": 92.25,
            "velocity": 0.3937007874015748
          },
          {
            "duration": 0.0625,
            "durationTicks": 48,
            "midi": 36,
            "name": "C2",
            "ticks": 70848,
            "time": 92.25,
            "velocity": 0.3937007874015748
          },
          {
            "duration": 0.0625,
            "durationTicks": 48,
            "midi": 24,
            "name": "C1",
            "ticks": 71136,
            "time": 92.625,
            "velocity": 0.3937007874015748
          },
          {
            "duration": 0.0625,
            "durationTicks": 48,
            "midi": 36,
            "name": "C2",
            "ticks": 71136,
            "time": 92.625,
            "velocity": 0.3937007874015748
          },
          {
            "duration": 0.0625,
            "durationTicks": 48,
            "midi": 24,
            "name": "C1",
            "ticks": 71280,
            "time": 92.8125,
            "velocity": 0.3937007874015748
          },
          {
            "duration": 0.0625,
            "durationTicks": 48,
            "midi": 36,
            "name": "C2",
            "ticks": 71280,
            "time": 92.8125,
            "velocity": 0.3937007874015748
          },
          {
            "duration": 0.0625,
            "durationTicks": 48,
            "midi": 36,
            "name": "C2",
            "ticks": 71568,
            "time": 93.1875,
            "velocity": 0.3937007874015748
          },
          {
            "duration": 0.0625,
            "durationTicks": 48,
            "midi": 24,
            "name": "C1",
            "ticks": 71568,
            "time": 93.1875,
            "velocity": 0.3937007874015748
          },
          {
            "duration": 0.0625,
            "durationTicks": 48,
            "midi": 36,
            "name": "C2",
            "ticks": 71712,
            "time": 93.375,
            "velocity": 0.3937007874015748
          },
          {
            "duration": 0.0625,
            "durationTicks": 48,
            "midi": 24,
            "name": "C1",
            "ticks": 71712,
            "time": 93.375,
            "velocity": 0.3937007874015748
          },
          {
            "duration": 0.0625,
            "durationTicks": 48,
            "midi": 24,
            "name": "C1",
            "ticks": 71856,
            "time": 93.5625,
            "velocity": 0.3937007874015748
          },
          {
            "duration": 0.0625,
            "durationTicks": 48,
            "midi": 36,
            "name": "C2",
            "ticks": 71856,
            "time": 93.5625,
            "velocity": 0.3937007874015748
          },
          {
            "duration": 0.0625,
            "durationTicks": 48,
            "midi": 36,
            "name": "C2",
            "ticks": 72000,
            "time": 93.75,
            "velocity": 0.3937007874015748
          },
          {
            "duration": 0.0625,
            "durationTicks": 48,
            "midi": 24,
            "name": "C1",
            "ticks": 72000,
            "time": 93.75,
            "velocity": 0.3937007874015748
          },
          {
            "duration": 0.0625,
            "durationTicks": 48,
            "midi": 36,
            "name": "C2",
            "ticks": 72288,
            "time": 94.125,
            "velocity": 0.3937007874015748
          },
          {
            "duration": 0.0625,
            "durationTicks": 48,
            "midi": 24,
            "name": "C1",
            "ticks": 72288,
            "time": 94.125,
            "velocity": 0.3937007874015748
          },
          {
            "duration": 0.0625,
            "durationTicks": 48,
            "midi": 36,
            "name": "C2",
            "ticks": 72432,
            "time": 94.3125,
            "velocity": 0.3937007874015748
          },
          {
            "duration": 0.0625,
            "durationTicks": 48,
            "midi": 24,
            "name": "C1",
            "ticks": 72432,
            "time": 94.3125,
            "velocity": 0.3937007874015748
          },
          {
            "duration": 0.0625,
            "durationTicks": 48,
            "midi": 24,
            "name": "C1",
            "ticks": 72720,
            "time": 94.6875,
            "velocity": 0.3937007874015748
          },
          {
            "duration": 0.0625,
            "durationTicks": 48,
            "midi": 36,
            "name": "C2",
            "ticks": 72720,
            "time": 94.6875,
            "velocity": 0.3937007874015748
          },
          {
            "duration": 0.0625,
            "durationTicks": 48,
            "midi": 36,
            "name": "C2",
            "ticks": 72864,
            "time": 94.875,
            "velocity": 0.3937007874015748
          },
          {
            "duration": 0.0625,
            "durationTicks": 48,
            "midi": 24,
            "name": "C1",
            "ticks": 72864,
            "time": 94.875,
            "velocity": 0.3937007874015748
          },
          {
            "duration": 0.0625,
            "durationTicks": 48,
            "midi": 24,
            "name": "C1",
            "ticks": 73008,
            "time": 95.0625,
            "velocity": 0.3937007874015748
          },
          {
            "duration": 0.0625,
            "durationTicks": 48,
            "midi": 36,
            "name": "C2",
            "ticks": 73008,
            "time": 95.0625,
            "velocity": 0.3937007874015748
          },
          {
            "duration": 0.0625,
            "durationTicks": 48,
            "midi": 26,
            "name": "D1",
            "ticks": 73152,
            "time": 95.25,
            "velocity": 0.3937007874015748
          },
          {
            "duration": 0.0625,
            "durationTicks": 48,
            "midi": 38,
            "name": "D2",
            "ticks": 73152,
            "time": 95.25,
            "velocity": 0.3937007874015748
          },
          {
            "duration": 0.0625,
            "durationTicks": 48,
            "midi": 45,
            "name": "A2",
            "ticks": 73440,
            "time": 95.625,
            "velocity": 0.3937007874015748
          },
          {
            "duration": 0.0625,
            "durationTicks": 48,
            "midi": 33,
            "name": "A1",
            "ticks": 73440,
            "time": 95.625,
            "velocity": 0.3937007874015748
          },
          {
            "duration": 0.0625,
            "durationTicks": 48,
            "midi": 38,
            "name": "D2",
            "ticks": 73584,
            "time": 95.8125,
            "velocity": 0.3937007874015748
          },
          {
            "duration": 0.0625,
            "durationTicks": 48,
            "midi": 26,
            "name": "D1",
            "ticks": 73584,
            "time": 95.8125,
            "velocity": 0.3937007874015748
          },
          {
            "duration": 0.0625,
            "durationTicks": 48,
            "midi": 28,
            "name": "E1",
            "ticks": 73728,
            "time": 96,
            "velocity": 0.3937007874015748
          },
          {
            "duration": 0.0625,
            "durationTicks": 48,
            "midi": 40,
            "name": "E2",
            "ticks": 73728,
            "time": 96,
            "velocity": 0.3937007874015748
          },
          {
            "duration": 0.0625,
            "durationTicks": 48,
            "midi": 40,
            "name": "E2",
            "ticks": 74016,
            "time": 96.375,
            "velocity": 0.3937007874015748
          },
          {
            "duration": 0.0625,
            "durationTicks": 48,
            "midi": 28,
            "name": "E1",
            "ticks": 74016,
            "time": 96.375,
            "velocity": 0.3937007874015748
          },
          {
            "duration": 0.0625,
            "durationTicks": 48,
            "midi": 40,
            "name": "E2",
            "ticks": 74160,
            "time": 96.5625,
            "velocity": 0.3937007874015748
          },
          {
            "duration": 0.0625,
            "durationTicks": 48,
            "midi": 28,
            "name": "E1",
            "ticks": 74160,
            "time": 96.5625,
            "velocity": 0.3937007874015748
          },
          {
            "duration": 0.0625,
            "durationTicks": 48,
            "midi": 31,
            "name": "G1",
            "ticks": 76032,
            "time": 99,
            "velocity": 0.3937007874015748
          },
          {
            "duration": 0.0625,
            "durationTicks": 48,
            "midi": 31,
            "name": "G1",
            "ticks": 76032,
            "time": 99,
            "velocity": 0.3937007874015748
          },
          {
            "duration": 0.0625,
            "durationTicks": 48,
            "midi": 31,
            "name": "G1",
            "ticks": 76320,
            "time": 99.375,
            "velocity": 0.3937007874015748
          },
          {
            "duration": 0.0625,
            "durationTicks": 48,
            "midi": 31,
            "name": "G1",
            "ticks": 76320,
            "time": 99.375,
            "velocity": 0.3937007874015748
          },
          {
            "duration": 0.0625,
            "durationTicks": 48,
            "midi": 31,
            "name": "G1",
            "ticks": 76464,
            "time": 99.5625,
            "velocity": 0.3937007874015748
          },
          {
            "duration": 0.0625,
            "durationTicks": 48,
            "midi": 31,
            "name": "G1",
            "ticks": 76464,
            "time": 99.5625,
            "velocity": 0.3937007874015748
          },
          {
            "duration": 0.0625,
            "durationTicks": 48,
            "midi": 31,
            "name": "G1",
            "ticks": 76752,
            "time": 99.9375,
            "velocity": 0.3937007874015748
          },
          {
            "duration": 0.0625,
            "durationTicks": 48,
            "midi": 31,
            "name": "G1",
            "ticks": 76752,
            "time": 99.9375,
            "velocity": 0.3937007874015748
          },
          {
            "duration": 0.0625,
            "durationTicks": 48,
            "midi": 31,
            "name": "G1",
            "ticks": 76896,
            "time": 100.125,
            "velocity": 0.3937007874015748
          },
          {
            "duration": 0.0625,
            "durationTicks": 48,
            "midi": 31,
            "name": "G1",
            "ticks": 76896,
            "time": 100.125,
            "velocity": 0.3937007874015748
          },
          {
            "duration": 0.0625,
            "durationTicks": 48,
            "midi": 31,
            "name": "G1",
            "ticks": 77040,
            "time": 100.3125,
            "velocity": 0.3937007874015748
          },
          {
            "duration": 0.0625,
            "durationTicks": 48,
            "midi": 31,
            "name": "G1",
            "ticks": 77040,
            "time": 100.3125,
            "velocity": 0.3937007874015748
          },
          {
            "duration": 0.0625,
            "durationTicks": 48,
            "midi": 36,
            "name": "C2",
            "ticks": 77184,
            "time": 100.5,
            "velocity": 0.3937007874015748
          },
          {
            "duration": 0.0625,
            "durationTicks": 48,
            "midi": 24,
            "name": "C1",
            "ticks": 77184,
            "time": 100.5,
            "velocity": 0.3937007874015748
          },
          {
            "duration": 0.0625,
            "durationTicks": 48,
            "midi": 24,
            "name": "C1",
            "ticks": 77472,
            "time": 100.875,
            "velocity": 0.3937007874015748
          },
          {
            "duration": 0.0625,
            "durationTicks": 48,
            "midi": 36,
            "name": "C2",
            "ticks": 77472,
            "time": 100.875,
            "velocity": 0.3937007874015748
          },
          {
            "duration": 0.0625,
            "durationTicks": 48,
            "midi": 36,
            "name": "C2",
            "ticks": 77616,
            "time": 101.0625,
            "velocity": 0.3937007874015748
          },
          {
            "duration": 0.0625,
            "durationTicks": 48,
            "midi": 24,
            "name": "C1",
            "ticks": 77616,
            "time": 101.0625,
            "velocity": 0.3937007874015748
          },
          {
            "duration": 0.0625,
            "durationTicks": 48,
            "midi": 24,
            "name": "C1",
            "ticks": 77904,
            "time": 101.4375,
            "velocity": 0.3937007874015748
          },
          {
            "duration": 0.0625,
            "durationTicks": 48,
            "midi": 36,
            "name": "C2",
            "ticks": 77904,
            "time": 101.4375,
            "velocity": 0.3937007874015748
          },
          {
            "duration": 0.0625,
            "durationTicks": 48,
            "midi": 36,
            "name": "C2",
            "ticks": 78048,
            "time": 101.625,
            "velocity": 0.3937007874015748
          },
          {
            "duration": 0.0625,
            "durationTicks": 48,
            "midi": 24,
            "name": "C1",
            "ticks": 78048,
            "time": 101.625,
            "velocity": 0.3937007874015748
          },
          {
            "duration": 0.0625,
            "durationTicks": 48,
            "midi": 24,
            "name": "C1",
            "ticks": 78192,
            "time": 101.8125,
            "velocity": 0.3937007874015748
          },
          {
            "duration": 0.0625,
            "durationTicks": 48,
            "midi": 36,
            "name": "C2",
            "ticks": 78192,
            "time": 101.8125,
            "velocity": 0.3937007874015748
          },
          {
            "duration": 0.0625,
            "durationTicks": 48,
            "midi": 24,
            "name": "C1",
            "ticks": 78336,
            "time": 102,
            "velocity": 0.3937007874015748
          },
          {
            "duration": 0.0625,
            "durationTicks": 48,
            "midi": 36,
            "name": "C2",
            "ticks": 78336,
            "time": 102,
            "velocity": 0.3937007874015748
          },
          {
            "duration": 0.0625,
            "durationTicks": 48,
            "midi": 24,
            "name": "C1",
            "ticks": 78624,
            "time": 102.375,
            "velocity": 0.3937007874015748
          },
          {
            "duration": 0.0625,
            "durationTicks": 48,
            "midi": 36,
            "name": "C2",
            "ticks": 78624,
            "time": 102.375,
            "velocity": 0.3937007874015748
          },
          {
            "duration": 0.0625,
            "durationTicks": 48,
            "midi": 36,
            "name": "C2",
            "ticks": 78768,
            "time": 102.5625,
            "velocity": 0.3937007874015748
          },
          {
            "duration": 0.0625,
            "durationTicks": 48,
            "midi": 24,
            "name": "C1",
            "ticks": 78768,
            "time": 102.5625,
            "velocity": 0.3937007874015748
          },
          {
            "duration": 0.0625,
            "durationTicks": 48,
            "midi": 36,
            "name": "C2",
            "ticks": 79056,
            "time": 102.9375,
            "velocity": 0.3937007874015748
          },
          {
            "duration": 0.0625,
            "durationTicks": 48,
            "midi": 24,
            "name": "C1",
            "ticks": 79056,
            "time": 102.9375,
            "velocity": 0.3937007874015748
          },
          {
            "duration": 0.0625,
            "durationTicks": 48,
            "midi": 36,
            "name": "C2",
            "ticks": 79200,
            "time": 103.125,
            "velocity": 0.3937007874015748
          },
          {
            "duration": 0.0625,
            "durationTicks": 48,
            "midi": 24,
            "name": "C1",
            "ticks": 79200,
            "time": 103.125,
            "velocity": 0.3937007874015748
          },
          {
            "duration": 0.0625,
            "durationTicks": 48,
            "midi": 36,
            "name": "C2",
            "ticks": 79344,
            "time": 103.3125,
            "velocity": 0.3937007874015748
          },
          {
            "duration": 0.0625,
            "durationTicks": 48,
            "midi": 24,
            "name": "C1",
            "ticks": 79344,
            "time": 103.3125,
            "velocity": 0.3937007874015748
          },
          {
            "duration": 0.0625,
            "durationTicks": 48,
            "midi": 26,
            "name": "D1",
            "ticks": 79488,
            "time": 103.5,
            "velocity": 0.3937007874015748
          },
          {
            "duration": 0.0625,
            "durationTicks": 48,
            "midi": 38,
            "name": "D2",
            "ticks": 79488,
            "time": 103.5,
            "velocity": 0.3937007874015748
          },
          {
            "duration": 0.0625,
            "durationTicks": 48,
            "midi": 33,
            "name": "A1",
            "ticks": 79776,
            "time": 103.875,
            "velocity": 0.3937007874015748
          },
          {
            "duration": 0.0625,
            "durationTicks": 48,
            "midi": 45,
            "name": "A2",
            "ticks": 79776,
            "time": 103.875,
            "velocity": 0.3937007874015748
          },
          {
            "duration": 0.0625,
            "durationTicks": 48,
            "midi": 38,
            "name": "D2",
            "ticks": 79920,
            "time": 104.0625,
            "velocity": 0.3937007874015748
          },
          {
            "duration": 0.0625,
            "durationTicks": 48,
            "midi": 26,
            "name": "D1",
            "ticks": 79920,
            "time": 104.0625,
            "velocity": 0.3937007874015748
          },
          {
            "duration": 0.0625,
            "durationTicks": 48,
            "midi": 28,
            "name": "E1",
            "ticks": 80064,
            "time": 104.25,
            "velocity": 0.3937007874015748
          },
          {
            "duration": 0.0625,
            "durationTicks": 48,
            "midi": 40,
            "name": "E2",
            "ticks": 80064,
            "time": 104.25,
            "velocity": 0.3937007874015748
          },
          {
            "duration": 0.0625,
            "durationTicks": 48,
            "midi": 28,
            "name": "E1",
            "ticks": 80352,
            "time": 104.625,
            "velocity": 0.3937007874015748
          },
          {
            "duration": 0.0625,
            "durationTicks": 48,
            "midi": 40,
            "name": "E2",
            "ticks": 80352,
            "time": 104.625,
            "velocity": 0.3937007874015748
          },
          {
            "duration": 0.0625,
            "durationTicks": 48,
            "midi": 28,
            "name": "E1",
            "ticks": 80496,
            "time": 104.8125,
            "velocity": 0.3937007874015748
          },
          {
            "duration": 0.0625,
            "durationTicks": 48,
            "midi": 40,
            "name": "E2",
            "ticks": 80496,
            "time": 104.8125,
            "velocity": 0.3937007874015748
          },
          {
            "duration": 0.0625,
            "durationTicks": 48,
            "midi": 40,
            "name": "E2",
            "ticks": 80784,
            "time": 105.1875,
            "velocity": 0.3937007874015748
          },
          {
            "duration": 0.0625,
            "durationTicks": 48,
            "midi": 28,
            "name": "E1",
            "ticks": 80784,
            "time": 105.1875,
            "velocity": 0.3937007874015748
          },
          {
            "duration": 0.0625,
            "durationTicks": 48,
            "midi": 40,
            "name": "E2",
            "ticks": 80928,
            "time": 105.375,
            "velocity": 0.3937007874015748
          },
          {
            "duration": 0.0625,
            "durationTicks": 48,
            "midi": 28,
            "name": "E1",
            "ticks": 80928,
            "time": 105.375,
            "velocity": 0.3937007874015748
          },
          {
            "duration": 0.0625,
            "durationTicks": 48,
            "midi": 28,
            "name": "E1",
            "ticks": 81072,
            "time": 105.5625,
            "velocity": 0.3937007874015748
          },
          {
            "duration": 0.0625,
            "durationTicks": 48,
            "midi": 40,
            "name": "E2",
            "ticks": 81072,
            "time": 105.5625,
            "velocity": 0.3937007874015748
          },
          {
            "duration": 0.0625,
            "durationTicks": 48,
            "midi": 31,
            "name": "G1",
            "ticks": 82368,
            "time": 107.25,
            "velocity": 0.3937007874015748
          },
          {
            "duration": 0.0625,
            "durationTicks": 48,
            "midi": 31,
            "name": "G1",
            "ticks": 82368,
            "time": 107.25,
            "velocity": 0.3937007874015748
          },
          {
            "duration": 0.0625,
            "durationTicks": 48,
            "midi": 31,
            "name": "G1",
            "ticks": 82656,
            "time": 107.625,
            "velocity": 0.3937007874015748
          },
          {
            "duration": 0.0625,
            "durationTicks": 48,
            "midi": 31,
            "name": "G1",
            "ticks": 82656,
            "time": 107.625,
            "velocity": 0.3937007874015748
          },
          {
            "duration": 0.0625,
            "durationTicks": 48,
            "midi": 31,
            "name": "G1",
            "ticks": 82800,
            "time": 107.8125,
            "velocity": 0.3937007874015748
          },
          {
            "duration": 0.0625,
            "durationTicks": 48,
            "midi": 31,
            "name": "G1",
            "ticks": 82800,
            "time": 107.8125,
            "velocity": 0.3937007874015748
          },
          {
            "duration": 0.0625,
            "durationTicks": 48,
            "midi": 31,
            "name": "G1",
            "ticks": 83088,
            "time": 108.1875,
            "velocity": 0.3937007874015748
          },
          {
            "duration": 0.0625,
            "durationTicks": 48,
            "midi": 31,
            "name": "G1",
            "ticks": 83088,
            "time": 108.1875,
            "velocity": 0.3937007874015748
          },
          {
            "duration": 0.0625,
            "durationTicks": 48,
            "midi": 31,
            "name": "G1",
            "ticks": 83232,
            "time": 108.375,
            "velocity": 0.3937007874015748
          },
          {
            "duration": 0.0625,
            "durationTicks": 48,
            "midi": 31,
            "name": "G1",
            "ticks": 83232,
            "time": 108.375,
            "velocity": 0.3937007874015748
          },
          {
            "duration": 0.0625,
            "durationTicks": 48,
            "midi": 31,
            "name": "G1",
            "ticks": 83376,
            "time": 108.5625,
            "velocity": 0.3937007874015748
          },
          {
            "duration": 0.0625,
            "durationTicks": 48,
            "midi": 31,
            "name": "G1",
            "ticks": 83376,
            "time": 108.5625,
            "velocity": 0.3937007874015748
          },
          {
            "duration": 0.0625,
            "durationTicks": 48,
            "midi": 36,
            "name": "C2",
            "ticks": 83520,
            "time": 108.75,
            "velocity": 0.3937007874015748
          },
          {
            "duration": 0.0625,
            "durationTicks": 48,
            "midi": 24,
            "name": "C1",
            "ticks": 83520,
            "time": 108.75,
            "velocity": 0.3937007874015748
          },
          {
            "duration": 0.0625,
            "durationTicks": 48,
            "midi": 24,
            "name": "C1",
            "ticks": 83808,
            "time": 109.125,
            "velocity": 0.3937007874015748
          },
          {
            "duration": 0.0625,
            "durationTicks": 48,
            "midi": 36,
            "name": "C2",
            "ticks": 83808,
            "time": 109.125,
            "velocity": 0.3937007874015748
          },
          {
            "duration": 0.0625,
            "durationTicks": 48,
            "midi": 24,
            "name": "C1",
            "ticks": 83952,
            "time": 109.3125,
            "velocity": 0.3937007874015748
          },
          {
            "duration": 0.0625,
            "durationTicks": 48,
            "midi": 36,
            "name": "C2",
            "ticks": 83952,
            "time": 109.3125,
            "velocity": 0.3937007874015748
          },
          {
            "duration": 0.0625,
            "durationTicks": 48,
            "midi": 36,
            "name": "C2",
            "ticks": 84240,
            "time": 109.6875,
            "velocity": 0.3937007874015748
          },
          {
            "duration": 0.0625,
            "durationTicks": 48,
            "midi": 24,
            "name": "C1",
            "ticks": 84240,
            "time": 109.6875,
            "velocity": 0.3937007874015748
          },
          {
            "duration": 0.0625,
            "durationTicks": 48,
            "midi": 24,
            "name": "C1",
            "ticks": 84384,
            "time": 109.875,
            "velocity": 0.3937007874015748
          },
          {
            "duration": 0.0625,
            "durationTicks": 48,
            "midi": 36,
            "name": "C2",
            "ticks": 84384,
            "time": 109.875,
            "velocity": 0.3937007874015748
          },
          {
            "duration": 0.0625,
            "durationTicks": 48,
            "midi": 24,
            "name": "C1",
            "ticks": 84528,
            "time": 110.0625,
            "velocity": 0.3937007874015748
          },
          {
            "duration": 0.0625,
            "durationTicks": 48,
            "midi": 36,
            "name": "C2",
            "ticks": 84528,
            "time": 110.0625,
            "velocity": 0.3937007874015748
          },
          {
            "duration": 0.0625,
            "durationTicks": 48,
            "midi": 36,
            "name": "C2",
            "ticks": 84672,
            "time": 110.25,
            "velocity": 0.3937007874015748
          },
          {
            "duration": 0.0625,
            "durationTicks": 48,
            "midi": 24,
            "name": "C1",
            "ticks": 84672,
            "time": 110.25,
            "velocity": 0.3937007874015748
          },
          {
            "duration": 0.0625,
            "durationTicks": 48,
            "midi": 36,
            "name": "C2",
            "ticks": 84960,
            "time": 110.625,
            "velocity": 0.3937007874015748
          },
          {
            "duration": 0.0625,
            "durationTicks": 48,
            "midi": 24,
            "name": "C1",
            "ticks": 84960,
            "time": 110.625,
            "velocity": 0.3937007874015748
          },
          {
            "duration": 0.0625,
            "durationTicks": 48,
            "midi": 24,
            "name": "C1",
            "ticks": 85104,
            "time": 110.8125,
            "velocity": 0.3937007874015748
          },
          {
            "duration": 0.0625,
            "durationTicks": 48,
            "midi": 36,
            "name": "C2",
            "ticks": 85104,
            "time": 110.8125,
            "velocity": 0.3937007874015748
          },
          {
            "duration": 0.0625,
            "durationTicks": 48,
            "midi": 24,
            "name": "C1",
            "ticks": 85392,
            "time": 111.1875,
            "velocity": 0.3937007874015748
          },
          {
            "duration": 0.0625,
            "durationTicks": 48,
            "midi": 36,
            "name": "C2",
            "ticks": 85392,
            "time": 111.1875,
            "velocity": 0.3937007874015748
          },
          {
            "duration": 0.0625,
            "durationTicks": 48,
            "midi": 24,
            "name": "C1",
            "ticks": 85536,
            "time": 111.375,
            "velocity": 0.3937007874015748
          },
          {
            "duration": 0.0625,
            "durationTicks": 48,
            "midi": 36,
            "name": "C2",
            "ticks": 85536,
            "time": 111.375,
            "velocity": 0.3937007874015748
          },
          {
            "duration": 0.0625,
            "durationTicks": 48,
            "midi": 24,
            "name": "C1",
            "ticks": 85680,
            "time": 111.5625,
            "velocity": 0.3937007874015748
          },
          {
            "duration": 0.0625,
            "durationTicks": 48,
            "midi": 36,
            "name": "C2",
            "ticks": 85680,
            "time": 111.5625,
            "velocity": 0.3937007874015748
          },
          {
            "duration": 0.0625,
            "durationTicks": 48,
            "midi": 26,
            "name": "D1",
            "ticks": 85824,
            "time": 111.75,
            "velocity": 0.3937007874015748
          },
          {
            "duration": 0.0625,
            "durationTicks": 48,
            "midi": 38,
            "name": "D2",
            "ticks": 85824,
            "time": 111.75,
            "velocity": 0.3937007874015748
          },
          {
            "duration": 0.0625,
            "durationTicks": 48,
            "midi": 45,
            "name": "A2",
            "ticks": 86112,
            "time": 112.125,
            "velocity": 0.3937007874015748
          },
          {
            "duration": 0.0625,
            "durationTicks": 48,
            "midi": 33,
            "name": "A1",
            "ticks": 86112,
            "time": 112.125,
            "velocity": 0.3937007874015748
          },
          {
            "duration": 0.0625,
            "durationTicks": 48,
            "midi": 26,
            "name": "D1",
            "ticks": 86256,
            "time": 112.3125,
            "velocity": 0.3937007874015748
          },
          {
            "duration": 0.0625,
            "durationTicks": 48,
            "midi": 38,
            "name": "D2",
            "ticks": 86256,
            "time": 112.3125,
            "velocity": 0.3937007874015748
          },
          {
            "duration": 0.0625,
            "durationTicks": 48,
            "midi": 28,
            "name": "E1",
            "ticks": 86400,
            "time": 112.5,
            "velocity": 0.3937007874015748
          },
          {
            "duration": 0.0625,
            "durationTicks": 48,
            "midi": 40,
            "name": "E2",
            "ticks": 86400,
            "time": 112.5,
            "velocity": 0.3937007874015748
          },
          {
            "duration": 0.0625,
            "durationTicks": 48,
            "midi": 40,
            "name": "E2",
            "ticks": 86688,
            "time": 112.875,
            "velocity": 0.3937007874015748
          },
          {
            "duration": 0.0625,
            "durationTicks": 48,
            "midi": 28,
            "name": "E1",
            "ticks": 86688,
            "time": 112.875,
            "velocity": 0.3937007874015748
          },
          {
            "duration": 0.0625,
            "durationTicks": 48,
            "midi": 40,
            "name": "E2",
            "ticks": 86832,
            "time": 113.0625,
            "velocity": 0.3937007874015748
          },
          {
            "duration": 0.0625,
            "durationTicks": 48,
            "midi": 28,
            "name": "E1",
            "ticks": 86832,
            "time": 113.0625,
            "velocity": 0.3937007874015748
          },
          {
            "duration": 0.0625,
            "durationTicks": 48,
            "midi": 40,
            "name": "E2",
            "ticks": 87120,
            "time": 113.4375,
            "velocity": 0.3937007874015748
          },
          {
            "duration": 0.0625,
            "durationTicks": 48,
            "midi": 28,
            "name": "E1",
            "ticks": 87120,
            "time": 113.4375,
            "velocity": 0.3937007874015748
          },
          {
            "duration": 0.0625,
            "durationTicks": 48,
            "midi": 40,
            "name": "E2",
            "ticks": 87264,
            "time": 113.625,
            "velocity": 0.3937007874015748
          },
          {
            "duration": 0.0625,
            "durationTicks": 48,
            "midi": 28,
            "name": "E1",
            "ticks": 87264,
            "time": 113.625,
            "velocity": 0.3937007874015748
          },
          {
            "duration": 0.0625,
            "durationTicks": 48,
            "midi": 28,
            "name": "E1",
            "ticks": 87408,
            "time": 113.8125,
            "velocity": 0.3937007874015748
          },
          {
            "duration": 0.0625,
            "durationTicks": 48,
            "midi": 40,
            "name": "E2",
            "ticks": 87408,
            "time": 113.8125,
            "velocity": 0.3937007874015748
          },
          {
            "duration": 0.0625,
            "durationTicks": 48,
            "midi": 31,
            "name": "G1",
            "ticks": 88704,
            "time": 115.5,
            "velocity": 0.3937007874015748
          },
          {
            "duration": 0.0625,
            "durationTicks": 48,
            "midi": 31,
            "name": "G1",
            "ticks": 88704,
            "time": 115.5,
            "velocity": 0.3937007874015748
          },
          {
            "duration": 0.0625,
            "durationTicks": 48,
            "midi": 31,
            "name": "G1",
            "ticks": 88992,
            "time": 115.875,
            "velocity": 0.3937007874015748
          },
          {
            "duration": 0.0625,
            "durationTicks": 48,
            "midi": 31,
            "name": "G1",
            "ticks": 88992,
            "time": 115.875,
            "velocity": 0.3937007874015748
          },
          {
            "duration": 0.0625,
            "durationTicks": 48,
            "midi": 31,
            "name": "G1",
            "ticks": 89136,
            "time": 116.0625,
            "velocity": 0.3937007874015748
          },
          {
            "duration": 0.0625,
            "durationTicks": 48,
            "midi": 31,
            "name": "G1",
            "ticks": 89136,
            "time": 116.0625,
            "velocity": 0.3937007874015748
          },
          {
            "duration": 0.0625,
            "durationTicks": 48,
            "midi": 31,
            "name": "G1",
            "ticks": 89424,
            "time": 116.4375,
            "velocity": 0.3937007874015748
          },
          {
            "duration": 0.0625,
            "durationTicks": 48,
            "midi": 31,
            "name": "G1",
            "ticks": 89424,
            "time": 116.4375,
            "velocity": 0.3937007874015748
          },
          {
            "duration": 0.0625,
            "durationTicks": 48,
            "midi": 31,
            "name": "G1",
            "ticks": 89568,
            "time": 116.625,
            "velocity": 0.3937007874015748
          },
          {
            "duration": 0.0625,
            "durationTicks": 48,
            "midi": 31,
            "name": "G1",
            "ticks": 89568,
            "time": 116.625,
            "velocity": 0.3937007874015748
          },
          {
            "duration": 0.0625,
            "durationTicks": 48,
            "midi": 31,
            "name": "G1",
            "ticks": 89712,
            "time": 116.8125,
            "velocity": 0.3937007874015748
          },
          {
            "duration": 0.0625,
            "durationTicks": 48,
            "midi": 31,
            "name": "G1",
            "ticks": 89712,
            "time": 116.8125,
            "velocity": 0.3937007874015748
          },
          {
            "duration": 0.0625,
            "durationTicks": 48,
            "midi": 36,
            "name": "C2",
            "ticks": 89856,
            "time": 117,
            "velocity": 0.3937007874015748
          },
          {
            "duration": 0.0625,
            "durationTicks": 48,
            "midi": 24,
            "name": "C1",
            "ticks": 89856,
            "time": 117,
            "velocity": 0.3937007874015748
          },
          {
            "duration": 0.0625,
            "durationTicks": 48,
            "midi": 24,
            "name": "C1",
            "ticks": 90144,
            "time": 117.375,
            "velocity": 0.3937007874015748
          },
          {
            "duration": 0.0625,
            "durationTicks": 48,
            "midi": 36,
            "name": "C2",
            "ticks": 90144,
            "time": 117.375,
            "velocity": 0.3937007874015748
          },
          {
            "duration": 0.0625,
            "durationTicks": 48,
            "midi": 24,
            "name": "C1",
            "ticks": 90288,
            "time": 117.5625,
            "velocity": 0.3937007874015748
          },
          {
            "duration": 0.0625,
            "durationTicks": 48,
            "midi": 36,
            "name": "C2",
            "ticks": 90288,
            "time": 117.5625,
            "velocity": 0.3937007874015748
          },
          {
            "duration": 0.0625,
            "durationTicks": 48,
            "midi": 24,
            "name": "C1",
            "ticks": 90576,
            "time": 117.9375,
            "velocity": 0.3937007874015748
          },
          {
            "duration": 0.0625,
            "durationTicks": 48,
            "midi": 36,
            "name": "C2",
            "ticks": 90576,
            "time": 117.9375,
            "velocity": 0.3937007874015748
          },
          {
            "duration": 0.0625,
            "durationTicks": 48,
            "midi": 36,
            "name": "C2",
            "ticks": 90720,
            "time": 118.125,
            "velocity": 0.3937007874015748
          },
          {
            "duration": 0.0625,
            "durationTicks": 48,
            "midi": 24,
            "name": "C1",
            "ticks": 90720,
            "time": 118.125,
            "velocity": 0.3937007874015748
          },
          {
            "duration": 0.0625,
            "durationTicks": 48,
            "midi": 36,
            "name": "C2",
            "ticks": 90864,
            "time": 118.3125,
            "velocity": 0.3937007874015748
          },
          {
            "duration": 0.0625,
            "durationTicks": 48,
            "midi": 24,
            "name": "C1",
            "ticks": 90864,
            "time": 118.3125,
            "velocity": 0.3937007874015748
          },
          {
            "duration": 0.0625,
            "durationTicks": 48,
            "midi": 36,
            "name": "C2",
            "ticks": 91008,
            "time": 118.5,
            "velocity": 0.3937007874015748
          },
          {
            "duration": 0.0625,
            "durationTicks": 48,
            "midi": 24,
            "name": "C1",
            "ticks": 91008,
            "time": 118.5,
            "velocity": 0.3937007874015748
          },
          {
            "duration": 0.0625,
            "durationTicks": 48,
            "midi": 36,
            "name": "C2",
            "ticks": 91296,
            "time": 118.875,
            "velocity": 0.3937007874015748
          },
          {
            "duration": 0.0625,
            "durationTicks": 48,
            "midi": 24,
            "name": "C1",
            "ticks": 91296,
            "time": 118.875,
            "velocity": 0.3937007874015748
          },
          {
            "duration": 0.0625,
            "durationTicks": 48,
            "midi": 36,
            "name": "C2",
            "ticks": 91440,
            "time": 119.0625,
            "velocity": 0.3937007874015748
          },
          {
            "duration": 0.0625,
            "durationTicks": 48,
            "midi": 24,
            "name": "C1",
            "ticks": 91440,
            "time": 119.0625,
            "velocity": 0.3937007874015748
          },
          {
            "duration": 0.0625,
            "durationTicks": 48,
            "midi": 36,
            "name": "C2",
            "ticks": 91728,
            "time": 119.4375,
            "velocity": 0.3937007874015748
          },
          {
            "duration": 0.0625,
            "durationTicks": 48,
            "midi": 24,
            "name": "C1",
            "ticks": 91728,
            "time": 119.4375,
            "velocity": 0.3937007874015748
          },
          {
            "duration": 0.0625,
            "durationTicks": 48,
            "midi": 36,
            "name": "C2",
            "ticks": 91872,
            "time": 119.625,
            "velocity": 0.3937007874015748
          },
          {
            "duration": 0.0625,
            "durationTicks": 48,
            "midi": 24,
            "name": "C1",
            "ticks": 91872,
            "time": 119.625,
            "velocity": 0.3937007874015748
          },
          {
            "duration": 0.0625,
            "durationTicks": 48,
            "midi": 24,
            "name": "C1",
            "ticks": 92016,
            "time": 119.8125,
            "velocity": 0.3937007874015748
          },
          {
            "duration": 0.0625,
            "durationTicks": 48,
            "midi": 36,
            "name": "C2",
            "ticks": 92016,
            "time": 119.8125,
            "velocity": 0.3937007874015748
          },
          {
            "duration": 0.0625,
            "durationTicks": 48,
            "midi": 26,
            "name": "D1",
            "ticks": 92160,
            "time": 120,
            "velocity": 0.3937007874015748
          },
          {
            "duration": 0.0625,
            "durationTicks": 48,
            "midi": 38,
            "name": "D2",
            "ticks": 92160,
            "time": 120,
            "velocity": 0.3937007874015748
          },
          {
            "duration": 0.0625,
            "durationTicks": 48,
            "midi": 33,
            "name": "A1",
            "ticks": 92448,
            "time": 120.375,
            "velocity": 0.3937007874015748
          },
          {
            "duration": 0.0625,
            "durationTicks": 48,
            "midi": 45,
            "name": "A2",
            "ticks": 92448,
            "time": 120.375,
            "velocity": 0.3937007874015748
          },
          {
            "duration": 0.0625,
            "durationTicks": 48,
            "midi": 26,
            "name": "D1",
            "ticks": 92592,
            "time": 120.5625,
            "velocity": 0.3937007874015748
          },
          {
            "duration": 0.0625,
            "durationTicks": 48,
            "midi": 38,
            "name": "D2",
            "ticks": 92592,
            "time": 120.5625,
            "velocity": 0.3937007874015748
          },
          {
            "duration": 0.0625,
            "durationTicks": 48,
            "midi": 28,
            "name": "E1",
            "ticks": 92736,
            "time": 120.75,
            "velocity": 0.3937007874015748
          },
          {
            "duration": 0.0625,
            "durationTicks": 48,
            "midi": 40,
            "name": "E2",
            "ticks": 92736,
            "time": 120.75,
            "velocity": 0.3937007874015748
          },
          {
            "duration": 0.0625,
            "durationTicks": 48,
            "midi": 28,
            "name": "E1",
            "ticks": 93024,
            "time": 121.125,
            "velocity": 0.3937007874015748
          },
          {
            "duration": 0.0625,
            "durationTicks": 48,
            "midi": 40,
            "name": "E2",
            "ticks": 93024,
            "time": 121.125,
            "velocity": 0.3937007874015748
          },
          {
            "duration": 0.0625,
            "durationTicks": 48,
            "midi": 28,
            "name": "E1",
            "ticks": 93168,
            "time": 121.3125,
            "velocity": 0.3937007874015748
          },
          {
            "duration": 0.0625,
            "durationTicks": 48,
            "midi": 40,
            "name": "E2",
            "ticks": 93168,
            "time": 121.3125,
            "velocity": 0.3937007874015748
          },
          {
            "duration": 0.0625,
            "durationTicks": 48,
            "midi": 28,
            "name": "E1",
            "ticks": 93456,
            "time": 121.6875,
            "velocity": 0.3937007874015748
          },
          {
            "duration": 0.0625,
            "durationTicks": 48,
            "midi": 40,
            "name": "E2",
            "ticks": 93456,
            "time": 121.6875,
            "velocity": 0.3937007874015748
          },
          {
            "duration": 0.0625,
            "durationTicks": 48,
            "midi": 28,
            "name": "E1",
            "ticks": 93600,
            "time": 121.875,
            "velocity": 0.3937007874015748
          },
          {
            "duration": 0.0625,
            "durationTicks": 48,
            "midi": 40,
            "name": "E2",
            "ticks": 93600,
            "time": 121.875,
            "velocity": 0.3937007874015748
          },
          {
            "duration": 0.0625,
            "durationTicks": 48,
            "midi": 40,
            "name": "E2",
            "ticks": 93744,
            "time": 122.0625,
            "velocity": 0.3937007874015748
          },
          {
            "duration": 0.0625,
            "durationTicks": 48,
            "midi": 28,
            "name": "E1",
            "ticks": 93744,
            "time": 122.0625,
            "velocity": 0.3937007874015748
          },
          {
            "duration": 0.0625,
            "durationTicks": 48,
            "midi": 31,
            "name": "G1",
            "ticks": 95040,
            "time": 123.75,
            "velocity": 0.3937007874015748
          },
          {
            "duration": 0.0625,
            "durationTicks": 48,
            "midi": 31,
            "name": "G1",
            "ticks": 95040,
            "time": 123.75,
            "velocity": 0.3937007874015748
          },
          {
            "duration": 0.0625,
            "durationTicks": 48,
            "midi": 31,
            "name": "G1",
            "ticks": 95328,
            "time": 124.125,
            "velocity": 0.3937007874015748
          },
          {
            "duration": 0.0625,
            "durationTicks": 48,
            "midi": 31,
            "name": "G1",
            "ticks": 95328,
            "time": 124.125,
            "velocity": 0.3937007874015748
          },
          {
            "duration": 0.0625,
            "durationTicks": 48,
            "midi": 31,
            "name": "G1",
            "ticks": 95472,
            "time": 124.3125,
            "velocity": 0.3937007874015748
          },
          {
            "duration": 0.0625,
            "durationTicks": 48,
            "midi": 31,
            "name": "G1",
            "ticks": 95472,
            "time": 124.3125,
            "velocity": 0.3937007874015748
          },
          {
            "duration": 0.0625,
            "durationTicks": 48,
            "midi": 31,
            "name": "G1",
            "ticks": 95760,
            "time": 124.6875,
            "velocity": 0.3937007874015748
          },
          {
            "duration": 0.0625,
            "durationTicks": 48,
            "midi": 31,
            "name": "G1",
            "ticks": 95760,
            "time": 124.6875,
            "velocity": 0.3937007874015748
          },
          {
            "duration": 0.0625,
            "durationTicks": 48,
            "midi": 31,
            "name": "G1",
            "ticks": 95904,
            "time": 124.875,
            "velocity": 0.3937007874015748
          },
          {
            "duration": 0.0625,
            "durationTicks": 48,
            "midi": 31,
            "name": "G1",
            "ticks": 95904,
            "time": 124.875,
            "velocity": 0.3937007874015748
          },
          {
            "duration": 0.0625,
            "durationTicks": 48,
            "midi": 31,
            "name": "G1",
            "ticks": 96048,
            "time": 125.0625,
            "velocity": 0.3937007874015748
          },
          {
            "duration": 0.0625,
            "durationTicks": 48,
            "midi": 31,
            "name": "G1",
            "ticks": 96048,
            "time": 125.0625,
            "velocity": 0.3937007874015748
          },
          {
            "duration": 0.0625,
            "durationTicks": 48,
            "midi": 36,
            "name": "C2",
            "ticks": 96192,
            "time": 125.25,
            "velocity": 0.3937007874015748
          },
          {
            "duration": 0.0625,
            "durationTicks": 48,
            "midi": 24,
            "name": "C1",
            "ticks": 96192,
            "time": 125.25,
            "velocity": 0.3937007874015748
          },
          {
            "duration": 0.0625,
            "durationTicks": 48,
            "midi": 36,
            "name": "C2",
            "ticks": 96480,
            "time": 125.625,
            "velocity": 0.3937007874015748
          },
          {
            "duration": 0.0625,
            "durationTicks": 48,
            "midi": 24,
            "name": "C1",
            "ticks": 96480,
            "time": 125.625,
            "velocity": 0.3937007874015748
          },
          {
            "duration": 0.0625,
            "durationTicks": 48,
            "midi": 24,
            "name": "C1",
            "ticks": 96624,
            "time": 125.8125,
            "velocity": 0.3937007874015748
          },
          {
            "duration": 0.0625,
            "durationTicks": 48,
            "midi": 36,
            "name": "C2",
            "ticks": 96624,
            "time": 125.8125,
            "velocity": 0.3937007874015748
          },
          {
            "duration": 0.0625,
            "durationTicks": 48,
            "midi": 24,
            "name": "C1",
            "ticks": 96912,
            "time": 126.1875,
            "velocity": 0.3937007874015748
          },
          {
            "duration": 0.0625,
            "durationTicks": 48,
            "midi": 36,
            "name": "C2",
            "ticks": 96912,
            "time": 126.1875,
            "velocity": 0.3937007874015748
          },
          {
            "duration": 0.0625,
            "durationTicks": 48,
            "midi": 24,
            "name": "C1",
            "ticks": 97056,
            "time": 126.375,
            "velocity": 0.3937007874015748
          },
          {
            "duration": 0.0625,
            "durationTicks": 48,
            "midi": 36,
            "name": "C2",
            "ticks": 97056,
            "time": 126.375,
            "velocity": 0.3937007874015748
          },
          {
            "duration": 0.0625,
            "durationTicks": 48,
            "midi": 36,
            "name": "C2",
            "ticks": 97200,
            "time": 126.5625,
            "velocity": 0.3937007874015748
          },
          {
            "duration": 0.0625,
            "durationTicks": 48,
            "midi": 24,
            "name": "C1",
            "ticks": 97200,
            "time": 126.5625,
            "velocity": 0.3937007874015748
          },
          {
            "duration": 0.0625,
            "durationTicks": 48,
            "midi": 36,
            "name": "C2",
            "ticks": 97344,
            "time": 126.75,
            "velocity": 0.3937007874015748
          },
          {
            "duration": 0.0625,
            "durationTicks": 48,
            "midi": 24,
            "name": "C1",
            "ticks": 97344,
            "time": 126.75,
            "velocity": 0.3937007874015748
          },
          {
            "duration": 0.0625,
            "durationTicks": 48,
            "midi": 36,
            "name": "C2",
            "ticks": 97632,
            "time": 127.125,
            "velocity": 0.3937007874015748
          },
          {
            "duration": 0.0625,
            "durationTicks": 48,
            "midi": 24,
            "name": "C1",
            "ticks": 97632,
            "time": 127.125,
            "velocity": 0.3937007874015748
          },
          {
            "duration": 0.0625,
            "durationTicks": 48,
            "midi": 36,
            "name": "C2",
            "ticks": 97776,
            "time": 127.3125,
            "velocity": 0.3937007874015748
          },
          {
            "duration": 0.0625,
            "durationTicks": 48,
            "midi": 24,
            "name": "C1",
            "ticks": 97776,
            "time": 127.3125,
            "velocity": 0.3937007874015748
          },
          {
            "duration": 0.0625,
            "durationTicks": 48,
            "midi": 36,
            "name": "C2",
            "ticks": 98064,
            "time": 127.6875,
            "velocity": 0.3937007874015748
          },
          {
            "duration": 0.0625,
            "durationTicks": 48,
            "midi": 24,
            "name": "C1",
            "ticks": 98064,
            "time": 127.6875,
            "velocity": 0.3937007874015748
          },
          {
            "duration": 0.0625,
            "durationTicks": 48,
            "midi": 36,
            "name": "C2",
            "ticks": 98208,
            "time": 127.875,
            "velocity": 0.3937007874015748
          },
          {
            "duration": 0.0625,
            "durationTicks": 48,
            "midi": 24,
            "name": "C1",
            "ticks": 98208,
            "time": 127.875,
            "velocity": 0.3937007874015748
          },
          {
            "duration": 0.0625,
            "durationTicks": 48,
            "midi": 36,
            "name": "C2",
            "ticks": 98352,
            "time": 128.0625,
            "velocity": 0.3937007874015748
          },
          {
            "duration": 0.0625,
            "durationTicks": 48,
            "midi": 24,
            "name": "C1",
            "ticks": 98352,
            "time": 128.0625,
            "velocity": 0.3937007874015748
          },
          {
            "duration": 0.0625,
            "durationTicks": 48,
            "midi": 38,
            "name": "D2",
            "ticks": 98496,
            "time": 128.25,
            "velocity": 0.3937007874015748
          },
          {
            "duration": 0.0625,
            "durationTicks": 48,
            "midi": 26,
            "name": "D1",
            "ticks": 98496,
            "time": 128.25,
            "velocity": 0.3937007874015748
          },
          {
            "duration": 0.0625,
            "durationTicks": 48,
            "midi": 45,
            "name": "A2",
            "ticks": 98784,
            "time": 128.625,
            "velocity": 0.3937007874015748
          },
          {
            "duration": 0.0625,
            "durationTicks": 48,
            "midi": 33,
            "name": "A1",
            "ticks": 98784,
            "time": 128.625,
            "velocity": 0.3937007874015748
          },
          {
            "duration": 0.0625,
            "durationTicks": 48,
            "midi": 26,
            "name": "D1",
            "ticks": 98928,
            "time": 128.8125,
            "velocity": 0.3937007874015748
          },
          {
            "duration": 0.0625,
            "durationTicks": 48,
            "midi": 38,
            "name": "D2",
            "ticks": 98928,
            "time": 128.8125,
            "velocity": 0.3937007874015748
          },
          {
            "duration": 0.0625,
            "durationTicks": 48,
            "midi": 40,
            "name": "E2",
            "ticks": 99072,
            "time": 129,
            "velocity": 0.3937007874015748
          },
          {
            "duration": 0.0625,
            "durationTicks": 48,
            "midi": 28,
            "name": "E1",
            "ticks": 99072,
            "time": 129,
            "velocity": 0.3937007874015748
          },
          {
            "duration": 0.0625,
            "durationTicks": 48,
            "midi": 40,
            "name": "E2",
            "ticks": 99360,
            "time": 129.375,
            "velocity": 0.3937007874015748
          },
          {
            "duration": 0.0625,
            "durationTicks": 48,
            "midi": 28,
            "name": "E1",
            "ticks": 99360,
            "time": 129.375,
            "velocity": 0.3937007874015748
          },
          {
            "duration": 0.0625,
            "durationTicks": 48,
            "midi": 28,
            "name": "E1",
            "ticks": 99504,
            "time": 129.5625,
            "velocity": 0.3937007874015748
          },
          {
            "duration": 0.0625,
            "durationTicks": 48,
            "midi": 40,
            "name": "E2",
            "ticks": 99504,
            "time": 129.5625,
            "velocity": 0.3937007874015748
          },
          {
            "duration": 0.0625,
            "durationTicks": 48,
            "midi": 40,
            "name": "E2",
            "ticks": 99792,
            "time": 129.9375,
            "velocity": 0.3937007874015748
          },
          {
            "duration": 0.0625,
            "durationTicks": 48,
            "midi": 28,
            "name": "E1",
            "ticks": 99792,
            "time": 129.9375,
            "velocity": 0.3937007874015748
          },
          {
            "duration": 0.0625,
            "durationTicks": 48,
            "midi": 40,
            "name": "E2",
            "ticks": 99936,
            "time": 130.125,
            "velocity": 0.3937007874015748
          },
          {
            "duration": 0.0625,
            "durationTicks": 48,
            "midi": 28,
            "name": "E1",
            "ticks": 99936,
            "time": 130.125,
            "velocity": 0.3937007874015748
          },
          {
            "duration": 0.0625,
            "durationTicks": 48,
            "midi": 40,
            "name": "E2",
            "ticks": 100080,
            "time": 130.3125,
            "velocity": 0.3937007874015748
          },
          {
            "duration": 0.0625,
            "durationTicks": 48,
            "midi": 28,
            "name": "E1",
            "ticks": 100080,
            "time": 130.3125,
            "velocity": 0.3937007874015748
          },
          {
            "duration": 0.0625,
            "durationTicks": 48,
            "midi": 31,
            "name": "G1",
            "ticks": 101376,
            "time": 132,
            "velocity": 0.3937007874015748
          },
          {
            "duration": 0.0625,
            "durationTicks": 48,
            "midi": 31,
            "name": "G1",
            "ticks": 101376,
            "time": 132,
            "velocity": 0.3937007874015748
          },
          {
            "duration": 0.0625,
            "durationTicks": 48,
            "midi": 31,
            "name": "G1",
            "ticks": 101664,
            "time": 132.375,
            "velocity": 0.3937007874015748
          },
          {
            "duration": 0.0625,
            "durationTicks": 48,
            "midi": 31,
            "name": "G1",
            "ticks": 101664,
            "time": 132.375,
            "velocity": 0.3937007874015748
          },
          {
            "duration": 0.0625,
            "durationTicks": 48,
            "midi": 31,
            "name": "G1",
            "ticks": 101808,
            "time": 132.5625,
            "velocity": 0.3937007874015748
          },
          {
            "duration": 0.0625,
            "durationTicks": 48,
            "midi": 31,
            "name": "G1",
            "ticks": 101808,
            "time": 132.5625,
            "velocity": 0.3937007874015748
          },
          {
            "duration": 0.0625,
            "durationTicks": 48,
            "midi": 31,
            "name": "G1",
            "ticks": 102096,
            "time": 132.9375,
            "velocity": 0.3937007874015748
          },
          {
            "duration": 0.0625,
            "durationTicks": 48,
            "midi": 31,
            "name": "G1",
            "ticks": 102096,
            "time": 132.9375,
            "velocity": 0.3937007874015748
          },
          {
            "duration": 0.0625,
            "durationTicks": 48,
            "midi": 31,
            "name": "G1",
            "ticks": 102240,
            "time": 133.125,
            "velocity": 0.3937007874015748
          },
          {
            "duration": 0.0625,
            "durationTicks": 48,
            "midi": 31,
            "name": "G1",
            "ticks": 102240,
            "time": 133.125,
            "velocity": 0.3937007874015748
          },
          {
            "duration": 0.0625,
            "durationTicks": 48,
            "midi": 31,
            "name": "G1",
            "ticks": 102384,
            "time": 133.3125,
            "velocity": 0.3937007874015748
          },
          {
            "duration": 0.0625,
            "durationTicks": 48,
            "midi": 31,
            "name": "G1",
            "ticks": 102384,
            "time": 133.3125,
            "velocity": 0.3937007874015748
          },
          {
            "duration": 0.0625,
            "durationTicks": 48,
            "midi": 36,
            "name": "C2",
            "ticks": 102528,
            "time": 133.5,
            "velocity": 0.3937007874015748
          },
          {
            "duration": 0.0625,
            "durationTicks": 48,
            "midi": 24,
            "name": "C1",
            "ticks": 102528,
            "time": 133.5,
            "velocity": 0.3937007874015748
          },
          {
            "duration": 0.0625,
            "durationTicks": 48,
            "midi": 24,
            "name": "C1",
            "ticks": 102816,
            "time": 133.875,
            "velocity": 0.3937007874015748
          },
          {
            "duration": 0.0625,
            "durationTicks": 48,
            "midi": 36,
            "name": "C2",
            "ticks": 102816,
            "time": 133.875,
            "velocity": 0.3937007874015748
          },
          {
            "duration": 0.0625,
            "durationTicks": 48,
            "midi": 24,
            "name": "C1",
            "ticks": 102960,
            "time": 134.0625,
            "velocity": 0.3937007874015748
          },
          {
            "duration": 0.0625,
            "durationTicks": 48,
            "midi": 36,
            "name": "C2",
            "ticks": 102960,
            "time": 134.0625,
            "velocity": 0.3937007874015748
          },
          {
            "duration": 0.0625,
            "durationTicks": 48,
            "midi": 36,
            "name": "C2",
            "ticks": 103248,
            "time": 134.4375,
            "velocity": 0.3937007874015748
          },
          {
            "duration": 0.0625,
            "durationTicks": 48,
            "midi": 24,
            "name": "C1",
            "ticks": 103248,
            "time": 134.4375,
            "velocity": 0.3937007874015748
          },
          {
            "duration": 0.0625,
            "durationTicks": 48,
            "midi": 36,
            "name": "C2",
            "ticks": 103392,
            "time": 134.625,
            "velocity": 0.3937007874015748
          },
          {
            "duration": 0.0625,
            "durationTicks": 48,
            "midi": 24,
            "name": "C1",
            "ticks": 103392,
            "time": 134.625,
            "velocity": 0.3937007874015748
          },
          {
            "duration": 0.0625,
            "durationTicks": 48,
            "midi": 24,
            "name": "C1",
            "ticks": 103536,
            "time": 134.8125,
            "velocity": 0.3937007874015748
          },
          {
            "duration": 0.0625,
            "durationTicks": 48,
            "midi": 36,
            "name": "C2",
            "ticks": 103536,
            "time": 134.8125,
            "velocity": 0.3937007874015748
          },
          {
            "duration": 0.0625,
            "durationTicks": 48,
            "midi": 24,
            "name": "C1",
            "ticks": 103680,
            "time": 135,
            "velocity": 0.3937007874015748
          },
          {
            "duration": 0.0625,
            "durationTicks": 48,
            "midi": 36,
            "name": "C2",
            "ticks": 103680,
            "time": 135,
            "velocity": 0.3937007874015748
          },
          {
            "duration": 0.0625,
            "durationTicks": 48,
            "midi": 24,
            "name": "C1",
            "ticks": 103968,
            "time": 135.375,
            "velocity": 0.3937007874015748
          },
          {
            "duration": 0.0625,
            "durationTicks": 48,
            "midi": 36,
            "name": "C2",
            "ticks": 103968,
            "time": 135.375,
            "velocity": 0.3937007874015748
          },
          {
            "duration": 0.0625,
            "durationTicks": 48,
            "midi": 36,
            "name": "C2",
            "ticks": 104112,
            "time": 135.5625,
            "velocity": 0.3937007874015748
          },
          {
            "duration": 0.0625,
            "durationTicks": 48,
            "midi": 24,
            "name": "C1",
            "ticks": 104112,
            "time": 135.5625,
            "velocity": 0.3937007874015748
          },
          {
            "duration": 0.0625,
            "durationTicks": 48,
            "midi": 36,
            "name": "C2",
            "ticks": 104400,
            "time": 135.9375,
            "velocity": 0.3937007874015748
          },
          {
            "duration": 0.0625,
            "durationTicks": 48,
            "midi": 24,
            "name": "C1",
            "ticks": 104400,
            "time": 135.9375,
            "velocity": 0.3937007874015748
          },
          {
            "duration": 0.0625,
            "durationTicks": 48,
            "midi": 36,
            "name": "C2",
            "ticks": 104544,
            "time": 136.125,
            "velocity": 0.3937007874015748
          },
          {
            "duration": 0.0625,
            "durationTicks": 48,
            "midi": 24,
            "name": "C1",
            "ticks": 104544,
            "time": 136.125,
            "velocity": 0.3937007874015748
          },
          {
            "duration": 0.0625,
            "durationTicks": 48,
            "midi": 24,
            "name": "C1",
            "ticks": 104688,
            "time": 136.3125,
            "velocity": 0.3937007874015748
          },
          {
            "duration": 0.0625,
            "durationTicks": 48,
            "midi": 36,
            "name": "C2",
            "ticks": 104688,
            "time": 136.3125,
            "velocity": 0.3937007874015748
          },
          {
            "duration": 0.0625,
            "durationTicks": 48,
            "midi": 38,
            "name": "D2",
            "ticks": 104832,
            "time": 136.5,
            "velocity": 0.3937007874015748
          },
          {
            "duration": 0.0625,
            "durationTicks": 48,
            "midi": 26,
            "name": "D1",
            "ticks": 104832,
            "time": 136.5,
            "velocity": 0.3937007874015748
          },
          {
            "duration": 0.0625,
            "durationTicks": 48,
            "midi": 45,
            "name": "A2",
            "ticks": 105120,
            "time": 136.875,
            "velocity": 0.3937007874015748
          },
          {
            "duration": 0.0625,
            "durationTicks": 48,
            "midi": 33,
            "name": "A1",
            "ticks": 105120,
            "time": 136.875,
            "velocity": 0.3937007874015748
          },
          {
            "duration": 0.0625,
            "durationTicks": 48,
            "midi": 26,
            "name": "D1",
            "ticks": 105264,
            "time": 137.0625,
            "velocity": 0.3937007874015748
          },
          {
            "duration": 0.0625,
            "durationTicks": 48,
            "midi": 38,
            "name": "D2",
            "ticks": 105264,
            "time": 137.0625,
            "velocity": 0.3937007874015748
          },
          {
            "duration": 0.0625,
            "durationTicks": 48,
            "midi": 40,
            "name": "E2",
            "ticks": 105408,
            "time": 137.25,
            "velocity": 0.3937007874015748
          },
          {
            "duration": 0.0625,
            "durationTicks": 48,
            "midi": 28,
            "name": "E1",
            "ticks": 105408,
            "time": 137.25,
            "velocity": 0.3937007874015748
          },
          {
            "duration": 0.0625,
            "durationTicks": 48,
            "midi": 40,
            "name": "E2",
            "ticks": 105696,
            "time": 137.625,
            "velocity": 0.3937007874015748
          },
          {
            "duration": 0.0625,
            "durationTicks": 48,
            "midi": 28,
            "name": "E1",
            "ticks": 105696,
            "time": 137.625,
            "velocity": 0.3937007874015748
          },
          {
            "duration": 0.0625,
            "durationTicks": 48,
            "midi": 28,
            "name": "E1",
            "ticks": 105840,
            "time": 137.8125,
            "velocity": 0.3937007874015748
          },
          {
            "duration": 0.0625,
            "durationTicks": 48,
            "midi": 40,
            "name": "E2",
            "ticks": 105840,
            "time": 137.8125,
            "velocity": 0.3937007874015748
          },
          {
            "duration": 0.0625,
            "durationTicks": 48,
            "midi": 28,
            "name": "E1",
            "ticks": 106128,
            "time": 138.1875,
            "velocity": 0.3937007874015748
          },
          {
            "duration": 0.0625,
            "durationTicks": 48,
            "midi": 40,
            "name": "E2",
            "ticks": 106128,
            "time": 138.1875,
            "velocity": 0.3937007874015748
          },
          {
            "duration": 0.0625,
            "durationTicks": 48,
            "midi": 40,
            "name": "E2",
            "ticks": 106272,
            "time": 138.375,
            "velocity": 0.3937007874015748
          },
          {
            "duration": 0.0625,
            "durationTicks": 48,
            "midi": 28,
            "name": "E1",
            "ticks": 106272,
            "time": 138.375,
            "velocity": 0.3937007874015748
          },
          {
            "duration": 0.0625,
            "durationTicks": 48,
            "midi": 40,
            "name": "E2",
            "ticks": 106416,
            "time": 138.5625,
            "velocity": 0.3937007874015748
          },
          {
            "duration": 0.0625,
            "durationTicks": 48,
            "midi": 28,
            "name": "E1",
            "ticks": 106416,
            "time": 138.5625,
            "velocity": 0.3937007874015748
          },
          {
            "duration": 0.0625,
            "durationTicks": 48,
            "midi": 31,
            "name": "G1",
            "ticks": 107712,
            "time": 140.25,
            "velocity": 0.3937007874015748
          },
          {
            "duration": 0.0625,
            "durationTicks": 48,
            "midi": 31,
            "name": "G1",
            "ticks": 107712,
            "time": 140.25,
            "velocity": 0.3937007874015748
          },
          {
            "duration": 0.0625,
            "durationTicks": 48,
            "midi": 31,
            "name": "G1",
            "ticks": 108000,
            "time": 140.625,
            "velocity": 0.3937007874015748
          },
          {
            "duration": 0.0625,
            "durationTicks": 48,
            "midi": 31,
            "name": "G1",
            "ticks": 108000,
            "time": 140.625,
            "velocity": 0.3937007874015748
          },
          {
            "duration": 0.0625,
            "durationTicks": 48,
            "midi": 31,
            "name": "G1",
            "ticks": 108144,
            "time": 140.8125,
            "velocity": 0.3937007874015748
          },
          {
            "duration": 0.0625,
            "durationTicks": 48,
            "midi": 31,
            "name": "G1",
            "ticks": 108144,
            "time": 140.8125,
            "velocity": 0.3937007874015748
          },
          {
            "duration": 0.0625,
            "durationTicks": 48,
            "midi": 31,
            "name": "G1",
            "ticks": 108432,
            "time": 141.1875,
            "velocity": 0.3937007874015748
          },
          {
            "duration": 0.0625,
            "durationTicks": 48,
            "midi": 31,
            "name": "G1",
            "ticks": 108432,
            "time": 141.1875,
            "velocity": 0.3937007874015748
          },
          {
            "duration": 0.0625,
            "durationTicks": 48,
            "midi": 31,
            "name": "G1",
            "ticks": 108576,
            "time": 141.375,
            "velocity": 0.3937007874015748
          },
          {
            "duration": 0.0625,
            "durationTicks": 48,
            "midi": 31,
            "name": "G1",
            "ticks": 108576,
            "time": 141.375,
            "velocity": 0.3937007874015748
          },
          {
            "duration": 0.0625,
            "durationTicks": 48,
            "midi": 31,
            "name": "G1",
            "ticks": 108720,
            "time": 141.5625,
            "velocity": 0.3937007874015748
          },
          {
            "duration": 0.0625,
            "durationTicks": 48,
            "midi": 31,
            "name": "G1",
            "ticks": 108720,
            "time": 141.5625,
            "velocity": 0.3937007874015748
          },
          {
            "duration": 0.0625,
            "durationTicks": 48,
            "midi": 36,
            "name": "C2",
            "ticks": 108864,
            "time": 141.75,
            "velocity": 0.3937007874015748
          },
          {
            "duration": 0.0625,
            "durationTicks": 48,
            "midi": 24,
            "name": "C1",
            "ticks": 108864,
            "time": 141.75,
            "velocity": 0.3937007874015748
          },
          {
            "duration": 0.0625,
            "durationTicks": 48,
            "midi": 24,
            "name": "C1",
            "ticks": 109152,
            "time": 142.125,
            "velocity": 0.3937007874015748
          },
          {
            "duration": 0.0625,
            "durationTicks": 48,
            "midi": 36,
            "name": "C2",
            "ticks": 109152,
            "time": 142.125,
            "velocity": 0.3937007874015748
          },
          {
            "duration": 0.0625,
            "durationTicks": 48,
            "midi": 24,
            "name": "C1",
            "ticks": 109296,
            "time": 142.3125,
            "velocity": 0.3937007874015748
          },
          {
            "duration": 0.0625,
            "durationTicks": 48,
            "midi": 36,
            "name": "C2",
            "ticks": 109296,
            "time": 142.3125,
            "velocity": 0.3937007874015748
          },
          {
            "duration": 0.0625,
            "durationTicks": 48,
            "midi": 36,
            "name": "C2",
            "ticks": 109584,
            "time": 142.6875,
            "velocity": 0.3937007874015748
          },
          {
            "duration": 0.0625,
            "durationTicks": 48,
            "midi": 24,
            "name": "C1",
            "ticks": 109584,
            "time": 142.6875,
            "velocity": 0.3937007874015748
          },
          {
            "duration": 0.0625,
            "durationTicks": 48,
            "midi": 36,
            "name": "C2",
            "ticks": 109728,
            "time": 142.875,
            "velocity": 0.3937007874015748
          },
          {
            "duration": 0.0625,
            "durationTicks": 48,
            "midi": 24,
            "name": "C1",
            "ticks": 109728,
            "time": 142.875,
            "velocity": 0.3937007874015748
          },
          {
            "duration": 0.0625,
            "durationTicks": 48,
            "midi": 36,
            "name": "C2",
            "ticks": 109872,
            "time": 143.0625,
            "velocity": 0.3937007874015748
          },
          {
            "duration": 0.0625,
            "durationTicks": 48,
            "midi": 24,
            "name": "C1",
            "ticks": 109872,
            "time": 143.0625,
            "velocity": 0.3937007874015748
          },
          {
            "duration": 0.0625,
            "durationTicks": 48,
            "midi": 24,
            "name": "C1",
            "ticks": 110016,
            "time": 143.25,
            "velocity": 0.3937007874015748
          },
          {
            "duration": 0.0625,
            "durationTicks": 48,
            "midi": 36,
            "name": "C2",
            "ticks": 110016,
            "time": 143.25,
            "velocity": 0.3937007874015748
          },
          {
            "duration": 0.0625,
            "durationTicks": 48,
            "midi": 24,
            "name": "C1",
            "ticks": 110304,
            "time": 143.625,
            "velocity": 0.3937007874015748
          },
          {
            "duration": 0.0625,
            "durationTicks": 48,
            "midi": 36,
            "name": "C2",
            "ticks": 110304,
            "time": 143.625,
            "velocity": 0.3937007874015748
          },
          {
            "duration": 0.0625,
            "durationTicks": 48,
            "midi": 36,
            "name": "C2",
            "ticks": 110448,
            "time": 143.8125,
            "velocity": 0.3937007874015748
          },
          {
            "duration": 0.0625,
            "durationTicks": 48,
            "midi": 24,
            "name": "C1",
            "ticks": 110448,
            "time": 143.8125,
            "velocity": 0.3937007874015748
          },
          {
            "duration": 0.0625,
            "durationTicks": 48,
            "midi": 24,
            "name": "C1",
            "ticks": 110736,
            "time": 144.1875,
            "velocity": 0.3937007874015748
          },
          {
            "duration": 0.0625,
            "durationTicks": 48,
            "midi": 36,
            "name": "C2",
            "ticks": 110736,
            "time": 144.1875,
            "velocity": 0.3937007874015748
          },
          {
            "duration": 0.0625,
            "durationTicks": 48,
            "midi": 36,
            "name": "C2",
            "ticks": 110880,
            "time": 144.375,
            "velocity": 0.3937007874015748
          },
          {
            "duration": 0.0625,
            "durationTicks": 48,
            "midi": 24,
            "name": "C1",
            "ticks": 110880,
            "time": 144.375,
            "velocity": 0.3937007874015748
          },
          {
            "duration": 0.0625,
            "durationTicks": 48,
            "midi": 36,
            "name": "C2",
            "ticks": 111024,
            "time": 144.5625,
            "velocity": 0.3937007874015748
          },
          {
            "duration": 0.0625,
            "durationTicks": 48,
            "midi": 24,
            "name": "C1",
            "ticks": 111024,
            "time": 144.5625,
            "velocity": 0.3937007874015748
          },
          {
            "duration": 0.0625,
            "durationTicks": 48,
            "midi": 26,
            "name": "D1",
            "ticks": 111168,
            "time": 144.75,
            "velocity": 0.3937007874015748
          },
          {
            "duration": 0.0625,
            "durationTicks": 48,
            "midi": 38,
            "name": "D2",
            "ticks": 111168,
            "time": 144.75,
            "velocity": 0.3937007874015748
          },
          {
            "duration": 0.0625,
            "durationTicks": 48,
            "midi": 33,
            "name": "A1",
            "ticks": 111456,
            "time": 145.125,
            "velocity": 0.3937007874015748
          },
          {
            "duration": 0.0625,
            "durationTicks": 48,
            "midi": 45,
            "name": "A2",
            "ticks": 111456,
            "time": 145.125,
            "velocity": 0.3937007874015748
          },
          {
            "duration": 0.0625,
            "durationTicks": 48,
            "midi": 38,
            "name": "D2",
            "ticks": 111600,
            "time": 145.3125,
            "velocity": 0.3937007874015748
          },
          {
            "duration": 0.0625,
            "durationTicks": 48,
            "midi": 26,
            "name": "D1",
            "ticks": 111600,
            "time": 145.3125,
            "velocity": 0.3937007874015748
          },
          {
            "duration": 0.0625,
            "durationTicks": 48,
            "midi": 40,
            "name": "E2",
            "ticks": 111744,
            "time": 145.5,
            "velocity": 0.3937007874015748
          },
          {
            "duration": 0.0625,
            "durationTicks": 48,
            "midi": 28,
            "name": "E1",
            "ticks": 111744,
            "time": 145.5,
            "velocity": 0.3937007874015748
          },
          {
            "duration": 0.0625,
            "durationTicks": 48,
            "midi": 40,
            "name": "E2",
            "ticks": 112032,
            "time": 145.875,
            "velocity": 0.3937007874015748
          },
          {
            "duration": 0.0625,
            "durationTicks": 48,
            "midi": 28,
            "name": "E1",
            "ticks": 112032,
            "time": 145.875,
            "velocity": 0.3937007874015748
          },
          {
            "duration": 0.0625,
            "durationTicks": 48,
            "midi": 28,
            "name": "E1",
            "ticks": 112176,
            "time": 146.0625,
            "velocity": 0.3937007874015748
          },
          {
            "duration": 0.0625,
            "durationTicks": 48,
            "midi": 40,
            "name": "E2",
            "ticks": 112176,
            "time": 146.0625,
            "velocity": 0.3937007874015748
          },
          {
            "duration": 0.0625,
            "durationTicks": 48,
            "midi": 28,
            "name": "E1",
            "ticks": 112464,
            "time": 146.4375,
            "velocity": 0.3937007874015748
          },
          {
            "duration": 0.0625,
            "durationTicks": 48,
            "midi": 40,
            "name": "E2",
            "ticks": 112464,
            "time": 146.4375,
            "velocity": 0.3937007874015748
          },
          {
            "duration": 0.0625,
            "durationTicks": 48,
            "midi": 28,
            "name": "E1",
            "ticks": 112608,
            "time": 146.625,
            "velocity": 0.3937007874015748
          },
          {
            "duration": 0.0625,
            "durationTicks": 48,
            "midi": 40,
            "name": "E2",
            "ticks": 112608,
            "time": 146.625,
            "velocity": 0.3937007874015748
          },
          {
            "duration": 0.0625,
            "durationTicks": 48,
            "midi": 40,
            "name": "E2",
            "ticks": 112752,
            "time": 146.8125,
            "velocity": 0.3937007874015748
          },
          {
            "duration": 0.0625,
            "durationTicks": 48,
            "midi": 28,
            "name": "E1",
            "ticks": 112752,
            "time": 146.8125,
            "velocity": 0.3937007874015748
          },
          {
            "duration": 0.0625,
            "durationTicks": 48,
            "midi": 31,
            "name": "G1",
            "ticks": 114048,
            "time": 148.5,
            "velocity": 0.3937007874015748
          },
          {
            "duration": 0.0625,
            "durationTicks": 48,
            "midi": 31,
            "name": "G1",
            "ticks": 114048,
            "time": 148.5,
            "velocity": 0.3937007874015748
          },
          {
            "duration": 0.0625,
            "durationTicks": 48,
            "midi": 31,
            "name": "G1",
            "ticks": 114336,
            "time": 148.875,
            "velocity": 0.3937007874015748
          },
          {
            "duration": 0.0625,
            "durationTicks": 48,
            "midi": 31,
            "name": "G1",
            "ticks": 114336,
            "time": 148.875,
            "velocity": 0.3937007874015748
          },
          {
            "duration": 0.0625,
            "durationTicks": 48,
            "midi": 31,
            "name": "G1",
            "ticks": 114480,
            "time": 149.0625,
            "velocity": 0.3937007874015748
          },
          {
            "duration": 0.0625,
            "durationTicks": 48,
            "midi": 31,
            "name": "G1",
            "ticks": 114480,
            "time": 149.0625,
            "velocity": 0.3937007874015748
          },
          {
            "duration": 0.0625,
            "durationTicks": 48,
            "midi": 31,
            "name": "G1",
            "ticks": 114768,
            "time": 149.4375,
            "velocity": 0.3937007874015748
          },
          {
            "duration": 0.0625,
            "durationTicks": 48,
            "midi": 31,
            "name": "G1",
            "ticks": 114768,
            "time": 149.4375,
            "velocity": 0.3937007874015748
          },
          {
            "duration": 0.0625,
            "durationTicks": 48,
            "midi": 31,
            "name": "G1",
            "ticks": 114912,
            "time": 149.625,
            "velocity": 0.3937007874015748
          },
          {
            "duration": 0.0625,
            "durationTicks": 48,
            "midi": 31,
            "name": "G1",
            "ticks": 114912,
            "time": 149.625,
            "velocity": 0.3937007874015748
          },
          {
            "duration": 0.0625,
            "durationTicks": 48,
            "midi": 31,
            "name": "G1",
            "ticks": 115056,
            "time": 149.8125,
            "velocity": 0.3937007874015748
          },
          {
            "duration": 0.0625,
            "durationTicks": 48,
            "midi": 31,
            "name": "G1",
            "ticks": 115056,
            "time": 149.8125,
            "velocity": 0.3937007874015748
          },
          {
            "duration": 0.0625,
            "durationTicks": 48,
            "midi": 36,
            "name": "C2",
            "ticks": 115200,
            "time": 150,
            "velocity": 0.3937007874015748
          },
          {
            "duration": 0.0625,
            "durationTicks": 48,
            "midi": 24,
            "name": "C1",
            "ticks": 115200,
            "time": 150,
            "velocity": 0.3937007874015748
          },
          {
            "duration": 0.0625,
            "durationTicks": 48,
            "midi": 24,
            "name": "C1",
            "ticks": 115488,
            "time": 150.375,
            "velocity": 0.3937007874015748
          },
          {
            "duration": 0.0625,
            "durationTicks": 48,
            "midi": 36,
            "name": "C2",
            "ticks": 115488,
            "time": 150.375,
            "velocity": 0.3937007874015748
          },
          {
            "duration": 0.0625,
            "durationTicks": 48,
            "midi": 36,
            "name": "C2",
            "ticks": 115632,
            "time": 150.5625,
            "velocity": 0.3937007874015748
          },
          {
            "duration": 0.0625,
            "durationTicks": 48,
            "midi": 24,
            "name": "C1",
            "ticks": 115632,
            "time": 150.5625,
            "velocity": 0.3937007874015748
          },
          {
            "duration": 0.0625,
            "durationTicks": 48,
            "midi": 24,
            "name": "C1",
            "ticks": 115920,
            "time": 150.9375,
            "velocity": 0.3937007874015748
          },
          {
            "duration": 0.0625,
            "durationTicks": 48,
            "midi": 36,
            "name": "C2",
            "ticks": 115920,
            "time": 150.9375,
            "velocity": 0.3937007874015748
          },
          {
            "duration": 0.0625,
            "durationTicks": 48,
            "midi": 36,
            "name": "C2",
            "ticks": 116064,
            "time": 151.125,
            "velocity": 0.3937007874015748
          },
          {
            "duration": 0.0625,
            "durationTicks": 48,
            "midi": 24,
            "name": "C1",
            "ticks": 116064,
            "time": 151.125,
            "velocity": 0.3937007874015748
          },
          {
            "duration": 0.0625,
            "durationTicks": 48,
            "midi": 24,
            "name": "C1",
            "ticks": 116208,
            "time": 151.3125,
            "velocity": 0.3937007874015748
          },
          {
            "duration": 0.0625,
            "durationTicks": 48,
            "midi": 36,
            "name": "C2",
            "ticks": 116208,
            "time": 151.3125,
            "velocity": 0.3937007874015748
          },
          {
            "duration": 0.0625,
            "durationTicks": 48,
            "midi": 24,
            "name": "C1",
            "ticks": 116352,
            "time": 151.5,
            "velocity": 0.3937007874015748
          },
          {
            "duration": 0.0625,
            "durationTicks": 48,
            "midi": 36,
            "name": "C2",
            "ticks": 116352,
            "time": 151.5,
            "velocity": 0.3937007874015748
          },
          {
            "duration": 0.0625,
            "durationTicks": 48,
            "midi": 24,
            "name": "C1",
            "ticks": 116640,
            "time": 151.875,
            "velocity": 0.3937007874015748
          },
          {
            "duration": 0.0625,
            "durationTicks": 48,
            "midi": 36,
            "name": "C2",
            "ticks": 116640,
            "time": 151.875,
            "velocity": 0.3937007874015748
          },
          {
            "duration": 0.0625,
            "durationTicks": 48,
            "midi": 36,
            "name": "C2",
            "ticks": 116784,
            "time": 152.0625,
            "velocity": 0.3937007874015748
          },
          {
            "duration": 0.0625,
            "durationTicks": 48,
            "midi": 24,
            "name": "C1",
            "ticks": 116784,
            "time": 152.0625,
            "velocity": 0.3937007874015748
          },
          {
            "duration": 0.0625,
            "durationTicks": 48,
            "midi": 24,
            "name": "C1",
            "ticks": 117072,
            "time": 152.4375,
            "velocity": 0.3937007874015748
          },
          {
            "duration": 0.0625,
            "durationTicks": 48,
            "midi": 36,
            "name": "C2",
            "ticks": 117072,
            "time": 152.4375,
            "velocity": 0.3937007874015748
          },
          {
            "duration": 0.0625,
            "durationTicks": 48,
            "midi": 36,
            "name": "C2",
            "ticks": 117216,
            "time": 152.625,
            "velocity": 0.3937007874015748
          },
          {
            "duration": 0.0625,
            "durationTicks": 48,
            "midi": 24,
            "name": "C1",
            "ticks": 117216,
            "time": 152.625,
            "velocity": 0.3937007874015748
          },
          {
            "duration": 0.0625,
            "durationTicks": 48,
            "midi": 36,
            "name": "C2",
            "ticks": 117360,
            "time": 152.8125,
            "velocity": 0.3937007874015748
          },
          {
            "duration": 0.0625,
            "durationTicks": 48,
            "midi": 24,
            "name": "C1",
            "ticks": 117360,
            "time": 152.8125,
            "velocity": 0.3937007874015748
          },
          {
            "duration": 0.0625,
            "durationTicks": 48,
            "midi": 26,
            "name": "D1",
            "ticks": 117504,
            "time": 153,
            "velocity": 0.3937007874015748
          },
          {
            "duration": 0.0625,
            "durationTicks": 48,
            "midi": 38,
            "name": "D2",
            "ticks": 117504,
            "time": 153,
            "velocity": 0.3937007874015748
          },
          {
            "duration": 0.0625,
            "durationTicks": 48,
            "midi": 33,
            "name": "A1",
            "ticks": 117792,
            "time": 153.375,
            "velocity": 0.3937007874015748
          },
          {
            "duration": 0.0625,
            "durationTicks": 48,
            "midi": 45,
            "name": "A2",
            "ticks": 117792,
            "time": 153.375,
            "velocity": 0.3937007874015748
          },
          {
            "duration": 0.0625,
            "durationTicks": 48,
            "midi": 26,
            "name": "D1",
            "ticks": 117936,
            "time": 153.5625,
            "velocity": 0.3937007874015748
          },
          {
            "duration": 0.0625,
            "durationTicks": 48,
            "midi": 38,
            "name": "D2",
            "ticks": 117936,
            "time": 153.5625,
            "velocity": 0.3937007874015748
          },
          {
            "duration": 0.0625,
            "durationTicks": 48,
            "midi": 28,
            "name": "E1",
            "ticks": 118080,
            "time": 153.75,
            "velocity": 0.3937007874015748
          },
          {
            "duration": 0.0625,
            "durationTicks": 48,
            "midi": 40,
            "name": "E2",
            "ticks": 118080,
            "time": 153.75,
            "velocity": 0.3937007874015748
          },
          {
            "duration": 0.0625,
            "durationTicks": 48,
            "midi": 28,
            "name": "E1",
            "ticks": 118368,
            "time": 154.125,
            "velocity": 0.3937007874015748
          },
          {
            "duration": 0.0625,
            "durationTicks": 48,
            "midi": 40,
            "name": "E2",
            "ticks": 118368,
            "time": 154.125,
            "velocity": 0.3937007874015748
          },
          {
            "duration": 0.0625,
            "durationTicks": 48,
            "midi": 28,
            "name": "E1",
            "ticks": 118512,
            "time": 154.3125,
            "velocity": 0.3937007874015748
          },
          {
            "duration": 0.0625,
            "durationTicks": 48,
            "midi": 40,
            "name": "E2",
            "ticks": 118512,
            "time": 154.3125,
            "velocity": 0.3937007874015748
          },
          {
            "duration": 0.0625,
            "durationTicks": 48,
            "midi": 28,
            "name": "E1",
            "ticks": 118800,
            "time": 154.6875,
            "velocity": 0.3937007874015748
          },
          {
            "duration": 0.0625,
            "durationTicks": 48,
            "midi": 40,
            "name": "E2",
            "ticks": 118800,
            "time": 154.6875,
            "velocity": 0.3937007874015748
          },
          {
            "duration": 0.0625,
            "durationTicks": 48,
            "midi": 40,
            "name": "E2",
            "ticks": 118944,
            "time": 154.875,
            "velocity": 0.3937007874015748
          },
          {
            "duration": 0.0625,
            "durationTicks": 48,
            "midi": 28,
            "name": "E1",
            "ticks": 118944,
            "time": 154.875,
            "velocity": 0.3937007874015748
          },
          {
            "duration": 0.0625,
            "durationTicks": 48,
            "midi": 40,
            "name": "E2",
            "ticks": 119088,
            "time": 155.0625,
            "velocity": 0.3937007874015748
          },
          {
            "duration": 0.0625,
            "durationTicks": 48,
            "midi": 28,
            "name": "E1",
            "ticks": 119088,
            "time": 155.0625,
            "velocity": 0.3937007874015748
          },
          {
            "duration": 0.0625,
            "durationTicks": 48,
            "midi": 31,
            "name": "G1",
            "ticks": 120384,
            "time": 156.75,
            "velocity": 0.3937007874015748
          },
          {
            "duration": 0.0625,
            "durationTicks": 48,
            "midi": 31,
            "name": "G1",
            "ticks": 120384,
            "time": 156.75,
            "velocity": 0.3937007874015748
          },
          {
            "duration": 0.0625,
            "durationTicks": 48,
            "midi": 31,
            "name": "G1",
            "ticks": 120672,
            "time": 157.125,
            "velocity": 0.3937007874015748
          },
          {
            "duration": 0.0625,
            "durationTicks": 48,
            "midi": 31,
            "name": "G1",
            "ticks": 120672,
            "time": 157.125,
            "velocity": 0.3937007874015748
          },
          {
            "duration": 0.0625,
            "durationTicks": 48,
            "midi": 31,
            "name": "G1",
            "ticks": 120816,
            "time": 157.3125,
            "velocity": 0.3937007874015748
          },
          {
            "duration": 0.0625,
            "durationTicks": 48,
            "midi": 31,
            "name": "G1",
            "ticks": 120816,
            "time": 157.3125,
            "velocity": 0.3937007874015748
          },
          {
            "duration": 0.0625,
            "durationTicks": 48,
            "midi": 31,
            "name": "G1",
            "ticks": 121104,
            "time": 157.6875,
            "velocity": 0.3937007874015748
          },
          {
            "duration": 0.0625,
            "durationTicks": 48,
            "midi": 31,
            "name": "G1",
            "ticks": 121104,
            "time": 157.6875,
            "velocity": 0.3937007874015748
          },
          {
            "duration": 0.0625,
            "durationTicks": 48,
            "midi": 31,
            "name": "G1",
            "ticks": 121248,
            "time": 157.875,
            "velocity": 0.3937007874015748
          },
          {
            "duration": 0.0625,
            "durationTicks": 48,
            "midi": 31,
            "name": "G1",
            "ticks": 121248,
            "time": 157.875,
            "velocity": 0.3937007874015748
          },
          {
            "duration": 0.0625,
            "durationTicks": 48,
            "midi": 31,
            "name": "G1",
            "ticks": 121392,
            "time": 158.0625,
            "velocity": 0.3937007874015748
          },
          {
            "duration": 0.0625,
            "durationTicks": 48,
            "midi": 31,
            "name": "G1",
            "ticks": 121392,
            "time": 158.0625,
            "velocity": 0.3937007874015748
          },
          {
            "duration": 0.0625,
            "durationTicks": 48,
            "midi": 36,
            "name": "C2",
            "ticks": 121536,
            "time": 158.25,
            "velocity": 0.3937007874015748
          },
          {
            "duration": 0.0625,
            "durationTicks": 48,
            "midi": 24,
            "name": "C1",
            "ticks": 121536,
            "time": 158.25,
            "velocity": 0.3937007874015748
          },
          {
            "duration": 0.0625,
            "durationTicks": 48,
            "midi": 36,
            "name": "C2",
            "ticks": 121824,
            "time": 158.625,
            "velocity": 0.3937007874015748
          },
          {
            "duration": 0.0625,
            "durationTicks": 48,
            "midi": 24,
            "name": "C1",
            "ticks": 121824,
            "time": 158.625,
            "velocity": 0.3937007874015748
          },
          {
            "duration": 0.0625,
            "durationTicks": 48,
            "midi": 36,
            "name": "C2",
            "ticks": 121968,
            "time": 158.8125,
            "velocity": 0.3937007874015748
          },
          {
            "duration": 0.0625,
            "durationTicks": 48,
            "midi": 24,
            "name": "C1",
            "ticks": 121968,
            "time": 158.8125,
            "velocity": 0.3937007874015748
          },
          {
            "duration": 0.0625,
            "durationTicks": 48,
            "midi": 36,
            "name": "C2",
            "ticks": 122256,
            "time": 159.1875,
            "velocity": 0.3937007874015748
          },
          {
            "duration": 0.0625,
            "durationTicks": 48,
            "midi": 24,
            "name": "C1",
            "ticks": 122256,
            "time": 159.1875,
            "velocity": 0.3937007874015748
          },
          {
            "duration": 0.0625,
            "durationTicks": 48,
            "midi": 24,
            "name": "C1",
            "ticks": 122400,
            "time": 159.375,
            "velocity": 0.3937007874015748
          },
          {
            "duration": 0.0625,
            "durationTicks": 48,
            "midi": 36,
            "name": "C2",
            "ticks": 122400,
            "time": 159.375,
            "velocity": 0.3937007874015748
          },
          {
            "duration": 0.0625,
            "durationTicks": 48,
            "midi": 36,
            "name": "C2",
            "ticks": 122544,
            "time": 159.5625,
            "velocity": 0.3937007874015748
          },
          {
            "duration": 0.0625,
            "durationTicks": 48,
            "midi": 24,
            "name": "C1",
            "ticks": 122544,
            "time": 159.5625,
            "velocity": 0.3937007874015748
          },
          {
            "duration": 0.0625,
            "durationTicks": 48,
            "midi": 24,
            "name": "C1",
            "ticks": 122688,
            "time": 159.75,
            "velocity": 0.3937007874015748
          },
          {
            "duration": 0.0625,
            "durationTicks": 48,
            "midi": 36,
            "name": "C2",
            "ticks": 122688,
            "time": 159.75,
            "velocity": 0.3937007874015748
          },
          {
            "duration": 0.0625,
            "durationTicks": 48,
            "midi": 36,
            "name": "C2",
            "ticks": 122976,
            "time": 160.125,
            "velocity": 0.3937007874015748
          },
          {
            "duration": 0.0625,
            "durationTicks": 48,
            "midi": 24,
            "name": "C1",
            "ticks": 122976,
            "time": 160.125,
            "velocity": 0.3937007874015748
          },
          {
            "duration": 0.0625,
            "durationTicks": 48,
            "midi": 36,
            "name": "C2",
            "ticks": 123120,
            "time": 160.3125,
            "velocity": 0.3937007874015748
          },
          {
            "duration": 0.0625,
            "durationTicks": 48,
            "midi": 24,
            "name": "C1",
            "ticks": 123120,
            "time": 160.3125,
            "velocity": 0.3937007874015748
          },
          {
            "duration": 0.0625,
            "durationTicks": 48,
            "midi": 24,
            "name": "C1",
            "ticks": 123408,
            "time": 160.6875,
            "velocity": 0.3937007874015748
          },
          {
            "duration": 0.0625,
            "durationTicks": 48,
            "midi": 36,
            "name": "C2",
            "ticks": 123408,
            "time": 160.6875,
            "velocity": 0.3937007874015748
          },
          {
            "duration": 0.0625,
            "durationTicks": 48,
            "midi": 24,
            "name": "C1",
            "ticks": 123552,
            "time": 160.875,
            "velocity": 0.3937007874015748
          },
          {
            "duration": 0.0625,
            "durationTicks": 48,
            "midi": 36,
            "name": "C2",
            "ticks": 123552,
            "time": 160.875,
            "velocity": 0.3937007874015748
          },
          {
            "duration": 0.0625,
            "durationTicks": 48,
            "midi": 36,
            "name": "C2",
            "ticks": 123696,
            "time": 161.0625,
            "velocity": 0.3937007874015748
          },
          {
            "duration": 0.0625,
            "durationTicks": 48,
            "midi": 24,
            "name": "C1",
            "ticks": 123696,
            "time": 161.0625,
            "velocity": 0.3937007874015748
          },
          {
            "duration": 0.0625,
            "durationTicks": 48,
            "midi": 26,
            "name": "D1",
            "ticks": 123840,
            "time": 161.25,
            "velocity": 0.3937007874015748
          },
          {
            "duration": 0.0625,
            "durationTicks": 48,
            "midi": 38,
            "name": "D2",
            "ticks": 123840,
            "time": 161.25,
            "velocity": 0.3937007874015748
          },
          {
            "duration": 0.0625,
            "durationTicks": 48,
            "midi": 33,
            "name": "A1",
            "ticks": 124128,
            "time": 161.625,
            "velocity": 0.3937007874015748
          },
          {
            "duration": 0.0625,
            "durationTicks": 48,
            "midi": 45,
            "name": "A2",
            "ticks": 124128,
            "time": 161.625,
            "velocity": 0.3937007874015748
          },
          {
            "duration": 0.0625,
            "durationTicks": 48,
            "midi": 38,
            "name": "D2",
            "ticks": 124272,
            "time": 161.8125,
            "velocity": 0.3937007874015748
          },
          {
            "duration": 0.0625,
            "durationTicks": 48,
            "midi": 26,
            "name": "D1",
            "ticks": 124272,
            "time": 161.8125,
            "velocity": 0.3937007874015748
          },
          {
            "duration": 0.0625,
            "durationTicks": 48,
            "midi": 28,
            "name": "E1",
            "ticks": 124416,
            "time": 162,
            "velocity": 0.3937007874015748
          },
          {
            "duration": 0.0625,
            "durationTicks": 48,
            "midi": 40,
            "name": "E2",
            "ticks": 124416,
            "time": 162,
            "velocity": 0.3937007874015748
          },
          {
            "duration": 0.0625,
            "durationTicks": 48,
            "midi": 40,
            "name": "E2",
            "ticks": 124704,
            "time": 162.375,
            "velocity": 0.3937007874015748
          },
          {
            "duration": 0.0625,
            "durationTicks": 48,
            "midi": 28,
            "name": "E1",
            "ticks": 124704,
            "time": 162.375,
            "velocity": 0.3937007874015748
          },
          {
            "duration": 0.0625,
            "durationTicks": 48,
            "midi": 28,
            "name": "E1",
            "ticks": 124848,
            "time": 162.5625,
            "velocity": 0.3937007874015748
          },
          {
            "duration": 0.0625,
            "durationTicks": 48,
            "midi": 40,
            "name": "E2",
            "ticks": 124848,
            "time": 162.5625,
            "velocity": 0.3937007874015748
          },
          {
            "duration": 0.0625,
            "durationTicks": 48,
            "midi": 40,
            "name": "E2",
            "ticks": 125136,
            "time": 162.9375,
            "velocity": 0.3937007874015748
          },
          {
            "duration": 0.0625,
            "durationTicks": 48,
            "midi": 28,
            "name": "E1",
            "ticks": 125136,
            "time": 162.9375,
            "velocity": 0.3937007874015748
          },
          {
            "duration": 0.0625,
            "durationTicks": 48,
            "midi": 28,
            "name": "E1",
            "ticks": 125280,
            "time": 163.125,
            "velocity": 0.3937007874015748
          },
          {
            "duration": 0.0625,
            "durationTicks": 48,
            "midi": 40,
            "name": "E2",
            "ticks": 125280,
            "time": 163.125,
            "velocity": 0.3937007874015748
          },
          {
            "duration": 0.0625,
            "durationTicks": 48,
            "midi": 28,
            "name": "E1",
            "ticks": 125424,
            "time": 163.3125,
            "velocity": 0.3937007874015748
          },
          {
            "duration": 0.0625,
            "durationTicks": 48,
            "midi": 40,
            "name": "E2",
            "ticks": 125424,
            "time": 163.3125,
            "velocity": 0.3937007874015748
          },
          {
            "duration": 0.0625,
            "durationTicks": 48,
            "midi": 31,
            "name": "G1",
            "ticks": 126720,
            "time": 165,
            "velocity": 0.3937007874015748
          },
          {
            "duration": 0.0625,
            "durationTicks": 48,
            "midi": 31,
            "name": "G1",
            "ticks": 126720,
            "time": 165,
            "velocity": 0.3937007874015748
          },
          {
            "duration": 0.0625,
            "durationTicks": 48,
            "midi": 31,
            "name": "G1",
            "ticks": 127008,
            "time": 165.375,
            "velocity": 0.3937007874015748
          },
          {
            "duration": 0.0625,
            "durationTicks": 48,
            "midi": 31,
            "name": "G1",
            "ticks": 127008,
            "time": 165.375,
            "velocity": 0.3937007874015748
          },
          {
            "duration": 0.0625,
            "durationTicks": 48,
            "midi": 31,
            "name": "G1",
            "ticks": 127152,
            "time": 165.5625,
            "velocity": 0.3937007874015748
          },
          {
            "duration": 0.0625,
            "durationTicks": 48,
            "midi": 31,
            "name": "G1",
            "ticks": 127152,
            "time": 165.5625,
            "velocity": 0.3937007874015748
          },
          {
            "duration": 0.0625,
            "durationTicks": 48,
            "midi": 31,
            "name": "G1",
            "ticks": 127440,
            "time": 165.9375,
            "velocity": 0.3937007874015748
          },
          {
            "duration": 0.0625,
            "durationTicks": 48,
            "midi": 31,
            "name": "G1",
            "ticks": 127440,
            "time": 165.9375,
            "velocity": 0.3937007874015748
          },
          {
            "duration": 0.0625,
            "durationTicks": 48,
            "midi": 31,
            "name": "G1",
            "ticks": 127584,
            "time": 166.125,
            "velocity": 0.3937007874015748
          },
          {
            "duration": 0.0625,
            "durationTicks": 48,
            "midi": 31,
            "name": "G1",
            "ticks": 127584,
            "time": 166.125,
            "velocity": 0.3937007874015748
          },
          {
            "duration": 0.0625,
            "durationTicks": 48,
            "midi": 31,
            "name": "G1",
            "ticks": 127728,
            "time": 166.3125,
            "velocity": 0.3937007874015748
          },
          {
            "duration": 0.0625,
            "durationTicks": 48,
            "midi": 31,
            "name": "G1",
            "ticks": 127728,
            "time": 166.3125,
            "velocity": 0.3937007874015748
          },
          {
            "duration": 0.0625,
            "durationTicks": 48,
            "midi": 36,
            "name": "C2",
            "ticks": 127872,
            "time": 166.5,
            "velocity": 0.3937007874015748
          },
          {
            "duration": 0.0625,
            "durationTicks": 48,
            "midi": 24,
            "name": "C1",
            "ticks": 127872,
            "time": 166.5,
            "velocity": 0.3937007874015748
          },
          {
            "duration": 0.0625,
            "durationTicks": 48,
            "midi": 36,
            "name": "C2",
            "ticks": 128160,
            "time": 166.875,
            "velocity": 0.3937007874015748
          },
          {
            "duration": 0.0625,
            "durationTicks": 48,
            "midi": 24,
            "name": "C1",
            "ticks": 128160,
            "time": 166.875,
            "velocity": 0.3937007874015748
          },
          {
            "duration": 0.0625,
            "durationTicks": 48,
            "midi": 24,
            "name": "C1",
            "ticks": 128304,
            "time": 167.0625,
            "velocity": 0.3937007874015748
          },
          {
            "duration": 0.0625,
            "durationTicks": 48,
            "midi": 36,
            "name": "C2",
            "ticks": 128304,
            "time": 167.0625,
            "velocity": 0.3937007874015748
          },
          {
            "duration": 0.0625,
            "durationTicks": 48,
            "midi": 24,
            "name": "C1",
            "ticks": 128592,
            "time": 167.4375,
            "velocity": 0.3937007874015748
          },
          {
            "duration": 0.0625,
            "durationTicks": 48,
            "midi": 36,
            "name": "C2",
            "ticks": 128592,
            "time": 167.4375,
            "velocity": 0.3937007874015748
          },
          {
            "duration": 0.0625,
            "durationTicks": 48,
            "midi": 24,
            "name": "C1",
            "ticks": 128736,
            "time": 167.625,
            "velocity": 0.3937007874015748
          },
          {
            "duration": 0.0625,
            "durationTicks": 48,
            "midi": 36,
            "name": "C2",
            "ticks": 128736,
            "time": 167.625,
            "velocity": 0.3937007874015748
          },
          {
            "duration": 0.0625,
            "durationTicks": 48,
            "midi": 24,
            "name": "C1",
            "ticks": 128880,
            "time": 167.8125,
            "velocity": 0.3937007874015748
          },
          {
            "duration": 0.0625,
            "durationTicks": 48,
            "midi": 36,
            "name": "C2",
            "ticks": 128880,
            "time": 167.8125,
            "velocity": 0.3937007874015748
          },
          {
            "duration": 0.0625,
            "durationTicks": 48,
            "midi": 36,
            "name": "C2",
            "ticks": 129024,
            "time": 168,
            "velocity": 0.3937007874015748
          },
          {
            "duration": 0.0625,
            "durationTicks": 48,
            "midi": 24,
            "name": "C1",
            "ticks": 129024,
            "time": 168,
            "velocity": 0.3937007874015748
          },
          {
            "duration": 0.0625,
            "durationTicks": 48,
            "midi": 24,
            "name": "C1",
            "ticks": 129312,
            "time": 168.375,
            "velocity": 0.3937007874015748
          },
          {
            "duration": 0.0625,
            "durationTicks": 48,
            "midi": 36,
            "name": "C2",
            "ticks": 129312,
            "time": 168.375,
            "velocity": 0.3937007874015748
          },
          {
            "duration": 0.0625,
            "durationTicks": 48,
            "midi": 36,
            "name": "C2",
            "ticks": 129456,
            "time": 168.5625,
            "velocity": 0.3937007874015748
          },
          {
            "duration": 0.0625,
            "durationTicks": 48,
            "midi": 24,
            "name": "C1",
            "ticks": 129456,
            "time": 168.5625,
            "velocity": 0.3937007874015748
          },
          {
            "duration": 0.0625,
            "durationTicks": 48,
            "midi": 24,
            "name": "C1",
            "ticks": 129744,
            "time": 168.9375,
            "velocity": 0.3937007874015748
          },
          {
            "duration": 0.0625,
            "durationTicks": 48,
            "midi": 36,
            "name": "C2",
            "ticks": 129744,
            "time": 168.9375,
            "velocity": 0.3937007874015748
          },
          {
            "duration": 0.0625,
            "durationTicks": 48,
            "midi": 24,
            "name": "C1",
            "ticks": 129888,
            "time": 169.125,
            "velocity": 0.3937007874015748
          },
          {
            "duration": 0.0625,
            "durationTicks": 48,
            "midi": 36,
            "name": "C2",
            "ticks": 129888,
            "time": 169.125,
            "velocity": 0.3937007874015748
          },
          {
            "duration": 0.0625,
            "durationTicks": 48,
            "midi": 36,
            "name": "C2",
            "ticks": 130032,
            "time": 169.3125,
            "velocity": 0.3937007874015748
          },
          {
            "duration": 0.0625,
            "durationTicks": 48,
            "midi": 24,
            "name": "C1",
            "ticks": 130032,
            "time": 169.3125,
            "velocity": 0.3937007874015748
          },
          {
            "duration": 0.0625,
            "durationTicks": 48,
            "midi": 26,
            "name": "D1",
            "ticks": 130176,
            "time": 169.5,
            "velocity": 0.3937007874015748
          },
          {
            "duration": 0.0625,
            "durationTicks": 48,
            "midi": 38,
            "name": "D2",
            "ticks": 130176,
            "time": 169.5,
            "velocity": 0.3937007874015748
          },
          {
            "duration": 0.0625,
            "durationTicks": 48,
            "midi": 45,
            "name": "A2",
            "ticks": 130464,
            "time": 169.875,
            "velocity": 0.3937007874015748
          },
          {
            "duration": 0.0625,
            "durationTicks": 48,
            "midi": 33,
            "name": "A1",
            "ticks": 130464,
            "time": 169.875,
            "velocity": 0.3937007874015748
          },
          {
            "duration": 0.0625,
            "durationTicks": 48,
            "midi": 38,
            "name": "D2",
            "ticks": 130608,
            "time": 170.0625,
            "velocity": 0.3937007874015748
          },
          {
            "duration": 0.0625,
            "durationTicks": 48,
            "midi": 26,
            "name": "D1",
            "ticks": 130608,
            "time": 170.0625,
            "velocity": 0.3937007874015748
          },
          {
            "duration": 0.0625,
            "durationTicks": 48,
            "midi": 40,
            "name": "E2",
            "ticks": 130752,
            "time": 170.25,
            "velocity": 0.3937007874015748
          },
          {
            "duration": 0.0625,
            "durationTicks": 48,
            "midi": 28,
            "name": "E1",
            "ticks": 130752,
            "time": 170.25,
            "velocity": 0.3937007874015748
          },
          {
            "duration": 0.0625,
            "durationTicks": 48,
            "midi": 40,
            "name": "E2",
            "ticks": 131040,
            "time": 170.625,
            "velocity": 0.3937007874015748
          },
          {
            "duration": 0.0625,
            "durationTicks": 48,
            "midi": 28,
            "name": "E1",
            "ticks": 131040,
            "time": 170.625,
            "velocity": 0.3937007874015748
          },
          {
            "duration": 0.0625,
            "durationTicks": 48,
            "midi": 40,
            "name": "E2",
            "ticks": 131184,
            "time": 170.8125,
            "velocity": 0.3937007874015748
          },
          {
            "duration": 0.0625,
            "durationTicks": 48,
            "midi": 28,
            "name": "E1",
            "ticks": 131184,
            "time": 170.8125,
            "velocity": 0.3937007874015748
          },
          {
            "duration": 0.0625,
            "durationTicks": 48,
            "midi": 28,
            "name": "E1",
            "ticks": 131472,
            "time": 171.1875,
            "velocity": 0.3937007874015748
          },
          {
            "duration": 0.0625,
            "durationTicks": 48,
            "midi": 40,
            "name": "E2",
            "ticks": 131472,
            "time": 171.1875,
            "velocity": 0.3937007874015748
          },
          {
            "duration": 0.0625,
            "durationTicks": 48,
            "midi": 28,
            "name": "E1",
            "ticks": 131616,
            "time": 171.375,
            "velocity": 0.3937007874015748
          },
          {
            "duration": 0.0625,
            "durationTicks": 48,
            "midi": 40,
            "name": "E2",
            "ticks": 131616,
            "time": 171.375,
            "velocity": 0.3937007874015748
          },
          {
            "duration": 0.0625,
            "durationTicks": 48,
            "midi": 28,
            "name": "E1",
            "ticks": 131760,
            "time": 171.5625,
            "velocity": 0.3937007874015748
          },
          {
            "duration": 0.0625,
            "durationTicks": 48,
            "midi": 40,
            "name": "E2",
            "ticks": 131760,
            "time": 171.5625,
            "velocity": 0.3937007874015748
          },
          {
            "duration": 0.0625,
            "durationTicks": 48,
            "midi": 40,
            "name": "E2",
            "ticks": 131904,
            "time": 171.75,
            "velocity": 0.3937007874015748
          },
          {
            "duration": 0.0625,
            "durationTicks": 48,
            "midi": 28,
            "name": "E1",
            "ticks": 131904,
            "time": 171.75,
            "velocity": 0.3937007874015748
          },
          {
            "duration": 0.0625,
            "durationTicks": 48,
            "midi": 40,
            "name": "E2",
            "ticks": 132192,
            "time": 172.125,
            "velocity": 0.3937007874015748
          },
          {
            "duration": 0.0625,
            "durationTicks": 48,
            "midi": 28,
            "name": "E1",
            "ticks": 132192,
            "time": 172.125,
            "velocity": 0.3937007874015748
          },
          {
            "duration": 0.0625,
            "durationTicks": 48,
            "midi": 40,
            "name": "E2",
            "ticks": 132336,
            "time": 172.3125,
            "velocity": 0.3937007874015748
          },
          {
            "duration": 0.0625,
            "durationTicks": 48,
            "midi": 28,
            "name": "E1",
            "ticks": 132336,
            "time": 172.3125,
            "velocity": 0.3937007874015748
          },
          {
            "duration": 0.0625,
            "durationTicks": 48,
            "midi": 28,
            "name": "E1",
            "ticks": 132624,
            "time": 172.6875,
            "velocity": 0.3937007874015748
          },
          {
            "duration": 0.0625,
            "durationTicks": 48,
            "midi": 40,
            "name": "E2",
            "ticks": 132624,
            "time": 172.6875,
            "velocity": 0.3937007874015748
          },
          {
            "duration": 0.0625,
            "durationTicks": 48,
            "midi": 40,
            "name": "E2",
            "ticks": 132768,
            "time": 172.875,
            "velocity": 0.3937007874015748
          },
          {
            "duration": 0.0625,
            "durationTicks": 48,
            "midi": 28,
            "name": "E1",
            "ticks": 132768,
            "time": 172.875,
            "velocity": 0.3937007874015748
          },
          {
            "duration": 0.0625,
            "durationTicks": 48,
            "midi": 40,
            "name": "E2",
            "ticks": 132912,
            "time": 173.0625,
            "velocity": 0.3937007874015748
          },
          {
            "duration": 0.0625,
            "durationTicks": 48,
            "midi": 28,
            "name": "E1",
            "ticks": 132912,
            "time": 173.0625,
            "velocity": 0.3937007874015748
          },
          {
            "duration": 0.0625,
            "durationTicks": 48,
            "midi": 31,
            "name": "G1",
            "ticks": 133056,
            "time": 173.25,
            "velocity": 0.3937007874015748
          },
          {
            "duration": 0.0625,
            "durationTicks": 48,
            "midi": 31,
            "name": "G1",
            "ticks": 133056,
            "time": 173.25,
            "velocity": 0.3937007874015748
          },
          {
            "duration": 0.0625,
            "durationTicks": 48,
            "midi": 31,
            "name": "G1",
            "ticks": 133344,
            "time": 173.625,
            "velocity": 0.3937007874015748
          },
          {
            "duration": 0.0625,
            "durationTicks": 48,
            "midi": 31,
            "name": "G1",
            "ticks": 133344,
            "time": 173.625,
            "velocity": 0.3937007874015748
          },
          {
            "duration": 0.0625,
            "durationTicks": 48,
            "midi": 31,
            "name": "G1",
            "ticks": 133488,
            "time": 173.8125,
            "velocity": 0.3937007874015748
          },
          {
            "duration": 0.0625,
            "durationTicks": 48,
            "midi": 31,
            "name": "G1",
            "ticks": 133488,
            "time": 173.8125,
            "velocity": 0.3937007874015748
          },
          {
            "duration": 0.0625,
            "durationTicks": 48,
            "midi": 31,
            "name": "G1",
            "ticks": 133776,
            "time": 174.1875,
            "velocity": 0.3937007874015748
          },
          {
            "duration": 0.0625,
            "durationTicks": 48,
            "midi": 31,
            "name": "G1",
            "ticks": 133776,
            "time": 174.1875,
            "velocity": 0.3937007874015748
          },
          {
            "duration": 0.0625,
            "durationTicks": 48,
            "midi": 31,
            "name": "G1",
            "ticks": 133920,
            "time": 174.375,
            "velocity": 0.3937007874015748
          },
          {
            "duration": 0.0625,
            "durationTicks": 48,
            "midi": 31,
            "name": "G1",
            "ticks": 133920,
            "time": 174.375,
            "velocity": 0.3937007874015748
          },
          {
            "duration": 0.0625,
            "durationTicks": 48,
            "midi": 31,
            "name": "G1",
            "ticks": 134064,
            "time": 174.5625,
            "velocity": 0.3937007874015748
          },
          {
            "duration": 0.0625,
            "durationTicks": 48,
            "midi": 31,
            "name": "G1",
            "ticks": 134064,
            "time": 174.5625,
            "velocity": 0.3937007874015748
          },
          {
            "duration": 0.0625,
            "durationTicks": 48,
            "midi": 24,
            "name": "C1",
            "ticks": 134208,
            "time": 174.75,
            "velocity": 0.3937007874015748
          },
          {
            "duration": 0.0625,
            "durationTicks": 48,
            "midi": 36,
            "name": "C2",
            "ticks": 134208,
            "time": 174.75,
            "velocity": 0.3937007874015748
          },
          {
            "duration": 0.0625,
            "durationTicks": 48,
            "midi": 24,
            "name": "C1",
            "ticks": 134496,
            "time": 175.125,
            "velocity": 0.3937007874015748
          },
          {
            "duration": 0.0625,
            "durationTicks": 48,
            "midi": 36,
            "name": "C2",
            "ticks": 134496,
            "time": 175.125,
            "velocity": 0.3937007874015748
          },
          {
            "duration": 0.0625,
            "durationTicks": 48,
            "midi": 36,
            "name": "C2",
            "ticks": 134640,
            "time": 175.3125,
            "velocity": 0.3937007874015748
          },
          {
            "duration": 0.0625,
            "durationTicks": 48,
            "midi": 24,
            "name": "C1",
            "ticks": 134640,
            "time": 175.3125,
            "velocity": 0.3937007874015748
          },
          {
            "duration": 0.0625,
            "durationTicks": 48,
            "midi": 36,
            "name": "C2",
            "ticks": 134928,
            "time": 175.6875,
            "velocity": 0.3937007874015748
          },
          {
            "duration": 0.0625,
            "durationTicks": 48,
            "midi": 24,
            "name": "C1",
            "ticks": 134928,
            "time": 175.6875,
            "velocity": 0.3937007874015748
          },
          {
            "duration": 0.0625,
            "durationTicks": 48,
            "midi": 24,
            "name": "C1",
            "ticks": 135072,
            "time": 175.875,
            "velocity": 0.3937007874015748
          },
          {
            "duration": 0.0625,
            "durationTicks": 48,
            "midi": 36,
            "name": "C2",
            "ticks": 135072,
            "time": 175.875,
            "velocity": 0.3937007874015748
          },
          {
            "duration": 0.0625,
            "durationTicks": 48,
            "midi": 24,
            "name": "C1",
            "ticks": 135216,
            "time": 176.0625,
            "velocity": 0.3937007874015748
          },
          {
            "duration": 0.0625,
            "durationTicks": 48,
            "midi": 36,
            "name": "C2",
            "ticks": 135216,
            "time": 176.0625,
            "velocity": 0.3937007874015748
          },
          {
            "duration": 0.0625,
            "durationTicks": 48,
            "midi": 24,
            "name": "C1",
            "ticks": 135360,
            "time": 176.25,
            "velocity": 0.3937007874015748
          },
          {
            "duration": 0.0625,
            "durationTicks": 48,
            "midi": 36,
            "name": "C2",
            "ticks": 135360,
            "time": 176.25,
            "velocity": 0.3937007874015748
          },
          {
            "duration": 0.0625,
            "durationTicks": 48,
            "midi": 36,
            "name": "C2",
            "ticks": 135648,
            "time": 176.625,
            "velocity": 0.3937007874015748
          },
          {
            "duration": 0.0625,
            "durationTicks": 48,
            "midi": 24,
            "name": "C1",
            "ticks": 135648,
            "time": 176.625,
            "velocity": 0.3937007874015748
          },
          {
            "duration": 0.0625,
            "durationTicks": 48,
            "midi": 24,
            "name": "C1",
            "ticks": 135792,
            "time": 176.8125,
            "velocity": 0.3937007874015748
          },
          {
            "duration": 0.0625,
            "durationTicks": 48,
            "midi": 36,
            "name": "C2",
            "ticks": 135792,
            "time": 176.8125,
            "velocity": 0.3937007874015748
          },
          {
            "duration": 0.0625,
            "durationTicks": 48,
            "midi": 36,
            "name": "C2",
            "ticks": 136080,
            "time": 177.1875,
            "velocity": 0.3937007874015748
          },
          {
            "duration": 0.0625,
            "durationTicks": 48,
            "midi": 24,
            "name": "C1",
            "ticks": 136080,
            "time": 177.1875,
            "velocity": 0.3937007874015748
          },
          {
            "duration": 0.0625,
            "durationTicks": 48,
            "midi": 24,
            "name": "C1",
            "ticks": 136224,
            "time": 177.375,
            "velocity": 0.3937007874015748
          },
          {
            "duration": 0.0625,
            "durationTicks": 48,
            "midi": 36,
            "name": "C2",
            "ticks": 136224,
            "time": 177.375,
            "velocity": 0.3937007874015748
          },
          {
            "duration": 0.0625,
            "durationTicks": 48,
            "midi": 24,
            "name": "C1",
            "ticks": 136368,
            "time": 177.5625,
            "velocity": 0.3937007874015748
          },
          {
            "duration": 0.0625,
            "durationTicks": 48,
            "midi": 36,
            "name": "C2",
            "ticks": 136368,
            "time": 177.5625,
            "velocity": 0.3937007874015748
          },
          {
            "duration": 0.0625,
            "durationTicks": 48,
            "midi": 38,
            "name": "D2",
            "ticks": 136512,
            "time": 177.75,
            "velocity": 0.3937007874015748
          },
          {
            "duration": 0.0625,
            "durationTicks": 48,
            "midi": 26,
            "name": "D1",
            "ticks": 136512,
            "time": 177.75,
            "velocity": 0.3937007874015748
          },
          {
            "duration": 0.0625,
            "durationTicks": 48,
            "midi": 33,
            "name": "A1",
            "ticks": 136800,
            "time": 178.125,
            "velocity": 0.3937007874015748
          },
          {
            "duration": 0.0625,
            "durationTicks": 48,
            "midi": 45,
            "name": "A2",
            "ticks": 136800,
            "time": 178.125,
            "velocity": 0.3937007874015748
          },
          {
            "duration": 0.0625,
            "durationTicks": 48,
            "midi": 38,
            "name": "D2",
            "ticks": 136944,
            "time": 178.3125,
            "velocity": 0.3937007874015748
          },
          {
            "duration": 0.0625,
            "durationTicks": 48,
            "midi": 26,
            "name": "D1",
            "ticks": 136944,
            "time": 178.3125,
            "velocity": 0.3937007874015748
          },
          {
            "duration": 0.0625,
            "durationTicks": 48,
            "midi": 28,
            "name": "E1",
            "ticks": 137088,
            "time": 178.5,
            "velocity": 0.3937007874015748
          },
          {
            "duration": 0.0625,
            "durationTicks": 48,
            "midi": 40,
            "name": "E2",
            "ticks": 137088,
            "time": 178.5,
            "velocity": 0.3937007874015748
          },
          {
            "duration": 0.0625,
            "durationTicks": 48,
            "midi": 28,
            "name": "E1",
            "ticks": 137376,
            "time": 178.875,
            "velocity": 0.3937007874015748
          },
          {
            "duration": 0.0625,
            "durationTicks": 48,
            "midi": 40,
            "name": "E2",
            "ticks": 137376,
            "time": 178.875,
            "velocity": 0.3937007874015748
          },
          {
            "duration": 0.0625,
            "durationTicks": 48,
            "midi": 28,
            "name": "E1",
            "ticks": 137520,
            "time": 179.0625,
            "velocity": 0.3937007874015748
          },
          {
            "duration": 0.0625,
            "durationTicks": 48,
            "midi": 40,
            "name": "E2",
            "ticks": 137520,
            "time": 179.0625,
            "velocity": 0.3937007874015748
          },
          {
            "duration": 0.0625,
            "durationTicks": 48,
            "midi": 28,
            "name": "E1",
            "ticks": 137808,
            "time": 179.4375,
            "velocity": 0.3937007874015748
          },
          {
            "duration": 0.0625,
            "durationTicks": 48,
            "midi": 40,
            "name": "E2",
            "ticks": 137808,
            "time": 179.4375,
            "velocity": 0.3937007874015748
          },
          {
            "duration": 0.0625,
            "durationTicks": 48,
            "midi": 40,
            "name": "E2",
            "ticks": 137952,
            "time": 179.625,
            "velocity": 0.3937007874015748
          },
          {
            "duration": 0.0625,
            "durationTicks": 48,
            "midi": 28,
            "name": "E1",
            "ticks": 137952,
            "time": 179.625,
            "velocity": 0.3937007874015748
          },
          {
            "duration": 0.0625,
            "durationTicks": 48,
            "midi": 28,
            "name": "E1",
            "ticks": 138096,
            "time": 179.8125,
            "velocity": 0.3937007874015748
          },
          {
            "duration": 0.0625,
            "durationTicks": 48,
            "midi": 40,
            "name": "E2",
            "ticks": 138096,
            "time": 179.8125,
            "velocity": 0.3937007874015748
          },
          {
            "duration": 0.0625,
            "durationTicks": 48,
            "midi": 28,
            "name": "E1",
            "ticks": 138240,
            "time": 180,
            "velocity": 0.3937007874015748
          },
          {
            "duration": 0.0625,
            "durationTicks": 48,
            "midi": 40,
            "name": "E2",
            "ticks": 138240,
            "time": 180,
            "velocity": 0.3937007874015748
          },
          {
            "duration": 0.0625,
            "durationTicks": 48,
            "midi": 28,
            "name": "E1",
            "ticks": 138528,
            "time": 180.375,
            "velocity": 0.3937007874015748
          },
          {
            "duration": 0.0625,
            "durationTicks": 48,
            "midi": 40,
            "name": "E2",
            "ticks": 138528,
            "time": 180.375,
            "velocity": 0.3937007874015748
          },
          {
            "duration": 0.0625,
            "durationTicks": 48,
            "midi": 40,
            "name": "E2",
            "ticks": 138672,
            "time": 180.5625,
            "velocity": 0.3937007874015748
          },
          {
            "duration": 0.0625,
            "durationTicks": 48,
            "midi": 28,
            "name": "E1",
            "ticks": 138672,
            "time": 180.5625,
            "velocity": 0.3937007874015748
          },
          {
            "duration": 0.0625,
            "durationTicks": 48,
            "midi": 40,
            "name": "E2",
            "ticks": 138960,
            "time": 180.9375,
            "velocity": 0.3937007874015748
          },
          {
            "duration": 0.0625,
            "durationTicks": 48,
            "midi": 28,
            "name": "E1",
            "ticks": 138960,
            "time": 180.9375,
            "velocity": 0.3937007874015748
          },
          {
            "duration": 0.0625,
            "durationTicks": 48,
            "midi": 28,
            "name": "E1",
            "ticks": 139104,
            "time": 181.125,
            "velocity": 0.3937007874015748
          },
          {
            "duration": 0.0625,
            "durationTicks": 48,
            "midi": 40,
            "name": "E2",
            "ticks": 139104,
            "time": 181.125,
            "velocity": 0.3937007874015748
          },
          {
            "duration": 0.0625,
            "durationTicks": 48,
            "midi": 28,
            "name": "E1",
            "ticks": 139248,
            "time": 181.3125,
            "velocity": 0.3937007874015748
          },
          {
            "duration": 0.0625,
            "durationTicks": 48,
            "midi": 40,
            "name": "E2",
            "ticks": 139248,
            "time": 181.3125,
            "velocity": 0.3937007874015748
          },
          {
            "duration": 0.0625,
            "durationTicks": 48,
            "midi": 31,
            "name": "G1",
            "ticks": 139392,
            "time": 181.5,
            "velocity": 0.3937007874015748
          },
          {
            "duration": 0.0625,
            "durationTicks": 48,
            "midi": 31,
            "name": "G1",
            "ticks": 139392,
            "time": 181.5,
            "velocity": 0.3937007874015748
          },
          {
            "duration": 0.0625,
            "durationTicks": 48,
            "midi": 31,
            "name": "G1",
            "ticks": 139680,
            "time": 181.875,
            "velocity": 0.3937007874015748
          },
          {
            "duration": 0.0625,
            "durationTicks": 48,
            "midi": 31,
            "name": "G1",
            "ticks": 139680,
            "time": 181.875,
            "velocity": 0.3937007874015748
          },
          {
            "duration": 0.0625,
            "durationTicks": 48,
            "midi": 31,
            "name": "G1",
            "ticks": 139824,
            "time": 182.0625,
            "velocity": 0.3937007874015748
          },
          {
            "duration": 0.0625,
            "durationTicks": 48,
            "midi": 31,
            "name": "G1",
            "ticks": 139824,
            "time": 182.0625,
            "velocity": 0.3937007874015748
          },
          {
            "duration": 0.0625,
            "durationTicks": 48,
            "midi": 31,
            "name": "G1",
            "ticks": 140112,
            "time": 182.4375,
            "velocity": 0.3937007874015748
          },
          {
            "duration": 0.0625,
            "durationTicks": 48,
            "midi": 31,
            "name": "G1",
            "ticks": 140112,
            "time": 182.4375,
            "velocity": 0.3937007874015748
          },
          {
            "duration": 0.0625,
            "durationTicks": 48,
            "midi": 31,
            "name": "G1",
            "ticks": 140256,
            "time": 182.625,
            "velocity": 0.3937007874015748
          },
          {
            "duration": 0.0625,
            "durationTicks": 48,
            "midi": 31,
            "name": "G1",
            "ticks": 140256,
            "time": 182.625,
            "velocity": 0.3937007874015748
          },
          {
            "duration": 0.0625,
            "durationTicks": 48,
            "midi": 31,
            "name": "G1",
            "ticks": 140400,
            "time": 182.8125,
            "velocity": 0.3937007874015748
          },
          {
            "duration": 0.0625,
            "durationTicks": 48,
            "midi": 31,
            "name": "G1",
            "ticks": 140400,
            "time": 182.8125,
            "velocity": 0.3937007874015748
          },
          {
            "duration": 0.0625,
            "durationTicks": 48,
            "midi": 24,
            "name": "C1",
            "ticks": 140544,
            "time": 183,
            "velocity": 0.3937007874015748
          },
          {
            "duration": 0.0625,
            "durationTicks": 48,
            "midi": 36,
            "name": "C2",
            "ticks": 140544,
            "time": 183,
            "velocity": 0.3937007874015748
          },
          {
            "duration": 0.0625,
            "durationTicks": 48,
            "midi": 36,
            "name": "C2",
            "ticks": 140832,
            "time": 183.375,
            "velocity": 0.3937007874015748
          },
          {
            "duration": 0.0625,
            "durationTicks": 48,
            "midi": 24,
            "name": "C1",
            "ticks": 140832,
            "time": 183.375,
            "velocity": 0.3937007874015748
          },
          {
            "duration": 0.0625,
            "durationTicks": 48,
            "midi": 36,
            "name": "C2",
            "ticks": 140976,
            "time": 183.5625,
            "velocity": 0.3937007874015748
          },
          {
            "duration": 0.0625,
            "durationTicks": 48,
            "midi": 24,
            "name": "C1",
            "ticks": 140976,
            "time": 183.5625,
            "velocity": 0.3937007874015748
          },
          {
            "duration": 0.0625,
            "durationTicks": 48,
            "midi": 24,
            "name": "C1",
            "ticks": 141264,
            "time": 183.9375,
            "velocity": 0.3937007874015748
          },
          {
            "duration": 0.0625,
            "durationTicks": 48,
            "midi": 36,
            "name": "C2",
            "ticks": 141264,
            "time": 183.9375,
            "velocity": 0.3937007874015748
          },
          {
            "duration": 0.0625,
            "durationTicks": 48,
            "midi": 24,
            "name": "C1",
            "ticks": 141408,
            "time": 184.125,
            "velocity": 0.3937007874015748
          },
          {
            "duration": 0.0625,
            "durationTicks": 48,
            "midi": 36,
            "name": "C2",
            "ticks": 141408,
            "time": 184.125,
            "velocity": 0.3937007874015748
          },
          {
            "duration": 0.0625,
            "durationTicks": 48,
            "midi": 36,
            "name": "C2",
            "ticks": 141552,
            "time": 184.3125,
            "velocity": 0.3937007874015748
          },
          {
            "duration": 0.0625,
            "durationTicks": 48,
            "midi": 24,
            "name": "C1",
            "ticks": 141552,
            "time": 184.3125,
            "velocity": 0.3937007874015748
          },
          {
            "duration": 0.0625,
            "durationTicks": 48,
            "midi": 36,
            "name": "C2",
            "ticks": 141696,
            "time": 184.5,
            "velocity": 0.3937007874015748
          },
          {
            "duration": 0.0625,
            "durationTicks": 48,
            "midi": 24,
            "name": "C1",
            "ticks": 141696,
            "time": 184.5,
            "velocity": 0.3937007874015748
          },
          {
            "duration": 0.0625,
            "durationTicks": 48,
            "midi": 24,
            "name": "C1",
            "ticks": 141984,
            "time": 184.875,
            "velocity": 0.3937007874015748
          },
          {
            "duration": 0.0625,
            "durationTicks": 48,
            "midi": 36,
            "name": "C2",
            "ticks": 141984,
            "time": 184.875,
            "velocity": 0.3937007874015748
          },
          {
            "duration": 0.0625,
            "durationTicks": 48,
            "midi": 36,
            "name": "C2",
            "ticks": 142128,
            "time": 185.0625,
            "velocity": 0.3937007874015748
          },
          {
            "duration": 0.0625,
            "durationTicks": 48,
            "midi": 24,
            "name": "C1",
            "ticks": 142128,
            "time": 185.0625,
            "velocity": 0.3937007874015748
          },
          {
            "duration": 0.0625,
            "durationTicks": 48,
            "midi": 36,
            "name": "C2",
            "ticks": 142416,
            "time": 185.4375,
            "velocity": 0.3937007874015748
          },
          {
            "duration": 0.0625,
            "durationTicks": 48,
            "midi": 24,
            "name": "C1",
            "ticks": 142416,
            "time": 185.4375,
            "velocity": 0.3937007874015748
          },
          {
            "duration": 0.0625,
            "durationTicks": 48,
            "midi": 24,
            "name": "C1",
            "ticks": 142560,
            "time": 185.625,
            "velocity": 0.3937007874015748
          },
          {
            "duration": 0.0625,
            "durationTicks": 48,
            "midi": 36,
            "name": "C2",
            "ticks": 142560,
            "time": 185.625,
            "velocity": 0.3937007874015748
          },
          {
            "duration": 0.0625,
            "durationTicks": 48,
            "midi": 24,
            "name": "C1",
            "ticks": 142704,
            "time": 185.8125,
            "velocity": 0.3937007874015748
          },
          {
            "duration": 0.0625,
            "durationTicks": 48,
            "midi": 36,
            "name": "C2",
            "ticks": 142704,
            "time": 185.8125,
            "velocity": 0.3937007874015748
          },
          {
            "duration": 0.0625,
            "durationTicks": 48,
            "midi": 38,
            "name": "D2",
            "ticks": 142848,
            "time": 186,
            "velocity": 0.3937007874015748
          },
          {
            "duration": 0.0625,
            "durationTicks": 48,
            "midi": 26,
            "name": "D1",
            "ticks": 142848,
            "time": 186,
            "velocity": 0.3937007874015748
          },
          {
            "duration": 0.0625,
            "durationTicks": 48,
            "midi": 33,
            "name": "A1",
            "ticks": 143136,
            "time": 186.375,
            "velocity": 0.3937007874015748
          },
          {
            "duration": 0.0625,
            "durationTicks": 48,
            "midi": 45,
            "name": "A2",
            "ticks": 143136,
            "time": 186.375,
            "velocity": 0.3937007874015748
          },
          {
            "duration": 0.0625,
            "durationTicks": 48,
            "midi": 26,
            "name": "D1",
            "ticks": 143280,
            "time": 186.5625,
            "velocity": 0.3937007874015748
          },
          {
            "duration": 0.0625,
            "durationTicks": 48,
            "midi": 38,
            "name": "D2",
            "ticks": 143280,
            "time": 186.5625,
            "velocity": 0.3937007874015748
          },
          {
            "duration": 0.0625,
            "durationTicks": 48,
            "midi": 28,
            "name": "E1",
            "ticks": 143424,
            "time": 186.75,
            "velocity": 0.3937007874015748
          },
          {
            "duration": 0.0625,
            "durationTicks": 48,
            "midi": 40,
            "name": "E2",
            "ticks": 143424,
            "time": 186.75,
            "velocity": 0.3937007874015748
          },
          {
            "duration": 0.0625,
            "durationTicks": 48,
            "midi": 28,
            "name": "E1",
            "ticks": 143712,
            "time": 187.125,
            "velocity": 0.3937007874015748
          },
          {
            "duration": 0.0625,
            "durationTicks": 48,
            "midi": 40,
            "name": "E2",
            "ticks": 143712,
            "time": 187.125,
            "velocity": 0.3937007874015748
          },
          {
            "duration": 0.0625,
            "durationTicks": 48,
            "midi": 40,
            "name": "E2",
            "ticks": 143856,
            "time": 187.3125,
            "velocity": 0.3937007874015748
          },
          {
            "duration": 0.0625,
            "durationTicks": 48,
            "midi": 28,
            "name": "E1",
            "ticks": 143856,
            "time": 187.3125,
            "velocity": 0.3937007874015748
          },
          {
            "duration": 0.0625,
            "durationTicks": 48,
            "midi": 40,
            "name": "E2",
            "ticks": 144144,
            "time": 187.6875,
            "velocity": 0.3937007874015748
          },
          {
            "duration": 0.0625,
            "durationTicks": 48,
            "midi": 28,
            "name": "E1",
            "ticks": 144144,
            "time": 187.6875,
            "velocity": 0.3937007874015748
          },
          {
            "duration": 0.0625,
            "durationTicks": 48,
            "midi": 28,
            "name": "E1",
            "ticks": 144288,
            "time": 187.875,
            "velocity": 0.3937007874015748
          },
          {
            "duration": 0.0625,
            "durationTicks": 48,
            "midi": 40,
            "name": "E2",
            "ticks": 144288,
            "time": 187.875,
            "velocity": 0.3937007874015748
          },
          {
            "duration": 0.0625,
            "durationTicks": 48,
            "midi": 28,
            "name": "E1",
            "ticks": 144432,
            "time": 188.0625,
            "velocity": 0.3937007874015748
          },
          {
            "duration": 0.0625,
            "durationTicks": 48,
            "midi": 40,
            "name": "E2",
            "ticks": 144432,
            "time": 188.0625,
            "velocity": 0.3937007874015748
          },
          {
            "duration": 0.0625,
            "durationTicks": 48,
            "midi": 28,
            "name": "E1",
            "ticks": 144576,
            "time": 188.25,
            "velocity": 0.3937007874015748
          },
          {
            "duration": 0.0625,
            "durationTicks": 48,
            "midi": 40,
            "name": "E2",
            "ticks": 144576,
            "time": 188.25,
            "velocity": 0.3937007874015748
          },
          {
            "duration": 0.0625,
            "durationTicks": 48,
            "midi": 40,
            "name": "E2",
            "ticks": 144864,
            "time": 188.625,
            "velocity": 0.3937007874015748
          },
          {
            "duration": 0.0625,
            "durationTicks": 48,
            "midi": 28,
            "name": "E1",
            "ticks": 144864,
            "time": 188.625,
            "velocity": 0.3937007874015748
          },
          {
            "duration": 0.0625,
            "durationTicks": 48,
            "midi": 28,
            "name": "E1",
            "ticks": 145008,
            "time": 188.8125,
            "velocity": 0.3937007874015748
          },
          {
            "duration": 0.0625,
            "durationTicks": 48,
            "midi": 40,
            "name": "E2",
            "ticks": 145008,
            "time": 188.8125,
            "velocity": 0.3937007874015748
          },
          {
            "duration": 0.0625,
            "durationTicks": 48,
            "midi": 40,
            "name": "E2",
            "ticks": 145296,
            "time": 189.1875,
            "velocity": 0.3937007874015748
          },
          {
            "duration": 0.0625,
            "durationTicks": 48,
            "midi": 28,
            "name": "E1",
            "ticks": 145296,
            "time": 189.1875,
            "velocity": 0.3937007874015748
          },
          {
            "duration": 0.0625,
            "durationTicks": 48,
            "midi": 28,
            "name": "E1",
            "ticks": 145440,
            "time": 189.375,
            "velocity": 0.3937007874015748
          },
          {
            "duration": 0.0625,
            "durationTicks": 48,
            "midi": 40,
            "name": "E2",
            "ticks": 145440,
            "time": 189.375,
            "velocity": 0.3937007874015748
          },
          {
            "duration": 0.0625,
            "durationTicks": 48,
            "midi": 28,
            "name": "E1",
            "ticks": 145584,
            "time": 189.5625,
            "velocity": 0.3937007874015748
          },
          {
            "duration": 0.0625,
            "durationTicks": 48,
            "midi": 40,
            "name": "E2",
            "ticks": 145584,
            "time": 189.5625,
            "velocity": 0.3937007874015748
          },
          {
            "duration": 0.0625,
            "durationTicks": 48,
            "midi": 31,
            "name": "G1",
            "ticks": 145728,
            "time": 189.75,
            "velocity": 0.3937007874015748
          },
          {
            "duration": 0.0625,
            "durationTicks": 48,
            "midi": 31,
            "name": "G1",
            "ticks": 145728,
            "time": 189.75,
            "velocity": 0.3937007874015748
          },
          {
            "duration": 0.0625,
            "durationTicks": 48,
            "midi": 31,
            "name": "G1",
            "ticks": 146016,
            "time": 190.125,
            "velocity": 0.3937007874015748
          },
          {
            "duration": 0.0625,
            "durationTicks": 48,
            "midi": 31,
            "name": "G1",
            "ticks": 146016,
            "time": 190.125,
            "velocity": 0.3937007874015748
          },
          {
            "duration": 0.0625,
            "durationTicks": 48,
            "midi": 31,
            "name": "G1",
            "ticks": 146160,
            "time": 190.3125,
            "velocity": 0.3937007874015748
          },
          {
            "duration": 0.0625,
            "durationTicks": 48,
            "midi": 31,
            "name": "G1",
            "ticks": 146160,
            "time": 190.3125,
            "velocity": 0.3937007874015748
          },
          {
            "duration": 0.0625,
            "durationTicks": 48,
            "midi": 31,
            "name": "G1",
            "ticks": 146448,
            "time": 190.6875,
            "velocity": 0.3937007874015748
          },
          {
            "duration": 0.0625,
            "durationTicks": 48,
            "midi": 31,
            "name": "G1",
            "ticks": 146448,
            "time": 190.6875,
            "velocity": 0.3937007874015748
          },
          {
            "duration": 0.0625,
            "durationTicks": 48,
            "midi": 31,
            "name": "G1",
            "ticks": 146592,
            "time": 190.875,
            "velocity": 0.3937007874015748
          },
          {
            "duration": 0.0625,
            "durationTicks": 48,
            "midi": 31,
            "name": "G1",
            "ticks": 146592,
            "time": 190.875,
            "velocity": 0.3937007874015748
          },
          {
            "duration": 0.0625,
            "durationTicks": 48,
            "midi": 31,
            "name": "G1",
            "ticks": 146736,
            "time": 191.0625,
            "velocity": 0.3937007874015748
          },
          {
            "duration": 0.0625,
            "durationTicks": 48,
            "midi": 31,
            "name": "G1",
            "ticks": 146736,
            "time": 191.0625,
            "velocity": 0.3937007874015748
          },
          {
            "duration": 0.0625,
            "durationTicks": 48,
            "midi": 36,
            "name": "C2",
            "ticks": 146880,
            "time": 191.25,
            "velocity": 0.3937007874015748
          },
          {
            "duration": 0.0625,
            "durationTicks": 48,
            "midi": 24,
            "name": "C1",
            "ticks": 146880,
            "time": 191.25,
            "velocity": 0.3937007874015748
          },
          {
            "duration": 0.0625,
            "durationTicks": 48,
            "midi": 36,
            "name": "C2",
            "ticks": 147168,
            "time": 191.625,
            "velocity": 0.3937007874015748
          },
          {
            "duration": 0.0625,
            "durationTicks": 48,
            "midi": 24,
            "name": "C1",
            "ticks": 147168,
            "time": 191.625,
            "velocity": 0.3937007874015748
          },
          {
            "duration": 0.0625,
            "durationTicks": 48,
            "midi": 36,
            "name": "C2",
            "ticks": 147312,
            "time": 191.8125,
            "velocity": 0.3937007874015748
          },
          {
            "duration": 0.0625,
            "durationTicks": 48,
            "midi": 24,
            "name": "C1",
            "ticks": 147312,
            "time": 191.8125,
            "velocity": 0.3937007874015748
          },
          {
            "duration": 0.0625,
            "durationTicks": 48,
            "midi": 24,
            "name": "C1",
            "ticks": 147600,
            "time": 192.1875,
            "velocity": 0.3937007874015748
          },
          {
            "duration": 0.0625,
            "durationTicks": 48,
            "midi": 36,
            "name": "C2",
            "ticks": 147600,
            "time": 192.1875,
            "velocity": 0.3937007874015748
          },
          {
            "duration": 0.0625,
            "durationTicks": 48,
            "midi": 24,
            "name": "C1",
            "ticks": 147744,
            "time": 192.375,
            "velocity": 0.3937007874015748
          },
          {
            "duration": 0.0625,
            "durationTicks": 48,
            "midi": 36,
            "name": "C2",
            "ticks": 147744,
            "time": 192.375,
            "velocity": 0.3937007874015748
          },
          {
            "duration": 0.0625,
            "durationTicks": 48,
            "midi": 36,
            "name": "C2",
            "ticks": 147888,
            "time": 192.5625,
            "velocity": 0.3937007874015748
          },
          {
            "duration": 0.0625,
            "durationTicks": 48,
            "midi": 24,
            "name": "C1",
            "ticks": 147888,
            "time": 192.5625,
            "velocity": 0.3937007874015748
          },
          {
            "duration": 0.0625,
            "durationTicks": 48,
            "midi": 36,
            "name": "C2",
            "ticks": 148032,
            "time": 192.75,
            "velocity": 0.3937007874015748
          },
          {
            "duration": 0.0625,
            "durationTicks": 48,
            "midi": 24,
            "name": "C1",
            "ticks": 148032,
            "time": 192.75,
            "velocity": 0.3937007874015748
          },
          {
            "duration": 0.0625,
            "durationTicks": 48,
            "midi": 24,
            "name": "C1",
            "ticks": 148320,
            "time": 193.125,
            "velocity": 0.3937007874015748
          },
          {
            "duration": 0.0625,
            "durationTicks": 48,
            "midi": 36,
            "name": "C2",
            "ticks": 148320,
            "time": 193.125,
            "velocity": 0.3937007874015748
          },
          {
            "duration": 0.0625,
            "durationTicks": 48,
            "midi": 36,
            "name": "C2",
            "ticks": 148464,
            "time": 193.3125,
            "velocity": 0.3937007874015748
          },
          {
            "duration": 0.0625,
            "durationTicks": 48,
            "midi": 24,
            "name": "C1",
            "ticks": 148464,
            "time": 193.3125,
            "velocity": 0.3937007874015748
          },
          {
            "duration": 0.0625,
            "durationTicks": 48,
            "midi": 24,
            "name": "C1",
            "ticks": 148752,
            "time": 193.6875,
            "velocity": 0.3937007874015748
          },
          {
            "duration": 0.0625,
            "durationTicks": 48,
            "midi": 36,
            "name": "C2",
            "ticks": 148752,
            "time": 193.6875,
            "velocity": 0.3937007874015748
          },
          {
            "duration": 0.0625,
            "durationTicks": 48,
            "midi": 24,
            "name": "C1",
            "ticks": 148896,
            "time": 193.875,
            "velocity": 0.3937007874015748
          },
          {
            "duration": 0.0625,
            "durationTicks": 48,
            "midi": 36,
            "name": "C2",
            "ticks": 148896,
            "time": 193.875,
            "velocity": 0.3937007874015748
          },
          {
            "duration": 0.0625,
            "durationTicks": 48,
            "midi": 36,
            "name": "C2",
            "ticks": 149040,
            "time": 194.0625,
            "velocity": 0.3937007874015748
          },
          {
            "duration": 0.0625,
            "durationTicks": 48,
            "midi": 24,
            "name": "C1",
            "ticks": 149040,
            "time": 194.0625,
            "velocity": 0.3937007874015748
          },
          {
            "duration": 0.0625,
            "durationTicks": 48,
            "midi": 26,
            "name": "D1",
            "ticks": 149184,
            "time": 194.25,
            "velocity": 0.3937007874015748
          },
          {
            "duration": 0.0625,
            "durationTicks": 48,
            "midi": 38,
            "name": "D2",
            "ticks": 149184,
            "time": 194.25,
            "velocity": 0.3937007874015748
          },
          {
            "duration": 0.0625,
            "durationTicks": 48,
            "midi": 33,
            "name": "A1",
            "ticks": 149472,
            "time": 194.625,
            "velocity": 0.3937007874015748
          },
          {
            "duration": 0.0625,
            "durationTicks": 48,
            "midi": 45,
            "name": "A2",
            "ticks": 149472,
            "time": 194.625,
            "velocity": 0.3937007874015748
          },
          {
            "duration": 0.0625,
            "durationTicks": 48,
            "midi": 38,
            "name": "D2",
            "ticks": 149616,
            "time": 194.8125,
            "velocity": 0.3937007874015748
          },
          {
            "duration": 0.0625,
            "durationTicks": 48,
            "midi": 26,
            "name": "D1",
            "ticks": 149616,
            "time": 194.8125,
            "velocity": 0.3937007874015748
          },
          {
            "duration": 0.0625,
            "durationTicks": 48,
            "midi": 28,
            "name": "E1",
            "ticks": 149760,
            "time": 195,
            "velocity": 0.3937007874015748
          },
          {
            "duration": 0.0625,
            "durationTicks": 48,
            "midi": 40,
            "name": "E2",
            "ticks": 149760,
            "time": 195,
            "velocity": 0.3937007874015748
          },
          {
            "duration": 0.0625,
            "durationTicks": 48,
            "midi": 40,
            "name": "E2",
            "ticks": 150048,
            "time": 195.375,
            "velocity": 0.3937007874015748
          },
          {
            "duration": 0.0625,
            "durationTicks": 48,
            "midi": 28,
            "name": "E1",
            "ticks": 150048,
            "time": 195.375,
            "velocity": 0.3937007874015748
          },
          {
            "duration": 0.0625,
            "durationTicks": 48,
            "midi": 40,
            "name": "E2",
            "ticks": 150192,
            "time": 195.5625,
            "velocity": 0.3937007874015748
          },
          {
            "duration": 0.0625,
            "durationTicks": 48,
            "midi": 28,
            "name": "E1",
            "ticks": 150192,
            "time": 195.5625,
            "velocity": 0.3937007874015748
          },
          {
            "duration": 0.0625,
            "durationTicks": 48,
            "midi": 40,
            "name": "E2",
            "ticks": 150480,
            "time": 195.9375,
            "velocity": 0.3937007874015748
          },
          {
            "duration": 0.0625,
            "durationTicks": 48,
            "midi": 28,
            "name": "E1",
            "ticks": 150480,
            "time": 195.9375,
            "velocity": 0.3937007874015748
          },
          {
            "duration": 0.0625,
            "durationTicks": 48,
            "midi": 28,
            "name": "E1",
            "ticks": 150624,
            "time": 196.125,
            "velocity": 0.3937007874015748
          },
          {
            "duration": 0.0625,
            "durationTicks": 48,
            "midi": 40,
            "name": "E2",
            "ticks": 150624,
            "time": 196.125,
            "velocity": 0.3937007874015748
          },
          {
            "duration": 0.0625,
            "durationTicks": 48,
            "midi": 40,
            "name": "E2",
            "ticks": 150768,
            "time": 196.3125,
            "velocity": 0.3937007874015748
          },
          {
            "duration": 0.0625,
            "durationTicks": 48,
            "midi": 28,
            "name": "E1",
            "ticks": 150768,
            "time": 196.3125,
            "velocity": 0.3937007874015748
          },
          {
            "duration": 0.0625,
            "durationTicks": 48,
            "midi": 28,
            "name": "E1",
            "ticks": 150912,
            "time": 196.5,
            "velocity": 0.3937007874015748
          },
          {
            "duration": 0.0625,
            "durationTicks": 48,
            "midi": 40,
            "name": "E2",
            "ticks": 150912,
            "time": 196.5,
            "velocity": 0.3937007874015748
          },
          {
            "duration": 0.0625,
            "durationTicks": 48,
            "midi": 28,
            "name": "E1",
            "ticks": 151200,
            "time": 196.875,
            "velocity": 0.3937007874015748
          },
          {
            "duration": 0.0625,
            "durationTicks": 48,
            "midi": 40,
            "name": "E2",
            "ticks": 151200,
            "time": 196.875,
            "velocity": 0.3937007874015748
          },
          {
            "duration": 0.0625,
            "durationTicks": 48,
            "midi": 28,
            "name": "E1",
            "ticks": 151344,
            "time": 197.0625,
            "velocity": 0.3937007874015748
          },
          {
            "duration": 0.0625,
            "durationTicks": 48,
            "midi": 40,
            "name": "E2",
            "ticks": 151344,
            "time": 197.0625,
            "velocity": 0.3937007874015748
          },
          {
            "duration": 0.0625,
            "durationTicks": 48,
            "midi": 40,
            "name": "E2",
            "ticks": 151632,
            "time": 197.4375,
            "velocity": 0.3937007874015748
          },
          {
            "duration": 0.0625,
            "durationTicks": 48,
            "midi": 28,
            "name": "E1",
            "ticks": 151632,
            "time": 197.4375,
            "velocity": 0.3937007874015748
          },
          {
            "duration": 0.0625,
            "durationTicks": 48,
            "midi": 28,
            "name": "E1",
            "ticks": 151776,
            "time": 197.625,
            "velocity": 0.3937007874015748
          },
          {
            "duration": 0.0625,
            "durationTicks": 48,
            "midi": 40,
            "name": "E2",
            "ticks": 151776,
            "time": 197.625,
            "velocity": 0.3937007874015748
          },
          {
            "duration": 0.0625,
            "durationTicks": 48,
            "midi": 28,
            "name": "E1",
            "ticks": 151920,
            "time": 197.8125,
            "velocity": 0.3937007874015748
          },
          {
            "duration": 0.0625,
            "durationTicks": 48,
            "midi": 40,
            "name": "E2",
            "ticks": 151920,
            "time": 197.8125,
            "velocity": 0.3937007874015748
          },
          {
            "duration": 0.0625,
            "durationTicks": 48,
            "midi": 31,
            "name": "G1",
            "ticks": 152064,
            "time": 198,
            "velocity": 0.3937007874015748
          },
          {
            "duration": 0.0625,
            "durationTicks": 48,
            "midi": 31,
            "name": "G1",
            "ticks": 152064,
            "time": 198,
            "velocity": 0.3937007874015748
          },
          {
            "duration": 0.0625,
            "durationTicks": 48,
            "midi": 31,
            "name": "G1",
            "ticks": 152352,
            "time": 198.375,
            "velocity": 0.3937007874015748
          },
          {
            "duration": 0.0625,
            "durationTicks": 48,
            "midi": 31,
            "name": "G1",
            "ticks": 152352,
            "time": 198.375,
            "velocity": 0.3937007874015748
          },
          {
            "duration": 0.0625,
            "durationTicks": 48,
            "midi": 31,
            "name": "G1",
            "ticks": 152496,
            "time": 198.5625,
            "velocity": 0.3937007874015748
          },
          {
            "duration": 0.0625,
            "durationTicks": 48,
            "midi": 31,
            "name": "G1",
            "ticks": 152496,
            "time": 198.5625,
            "velocity": 0.3937007874015748
          },
          {
            "duration": 0.0625,
            "durationTicks": 48,
            "midi": 31,
            "name": "G1",
            "ticks": 152784,
            "time": 198.9375,
            "velocity": 0.3937007874015748
          },
          {
            "duration": 0.0625,
            "durationTicks": 48,
            "midi": 31,
            "name": "G1",
            "ticks": 152784,
            "time": 198.9375,
            "velocity": 0.3937007874015748
          },
          {
            "duration": 0.0625,
            "durationTicks": 48,
            "midi": 31,
            "name": "G1",
            "ticks": 152928,
            "time": 199.125,
            "velocity": 0.3937007874015748
          },
          {
            "duration": 0.0625,
            "durationTicks": 48,
            "midi": 31,
            "name": "G1",
            "ticks": 152928,
            "time": 199.125,
            "velocity": 0.3937007874015748
          },
          {
            "duration": 0.0625,
            "durationTicks": 48,
            "midi": 31,
            "name": "G1",
            "ticks": 153072,
            "time": 199.3125,
            "velocity": 0.3937007874015748
          },
          {
            "duration": 0.0625,
            "durationTicks": 48,
            "midi": 31,
            "name": "G1",
            "ticks": 153072,
            "time": 199.3125,
            "velocity": 0.3937007874015748
          },
          {
            "duration": 0.0625,
            "durationTicks": 48,
            "midi": 24,
            "name": "C1",
            "ticks": 153216,
            "time": 199.5,
            "velocity": 0.3937007874015748
          },
          {
            "duration": 0.0625,
            "durationTicks": 48,
            "midi": 36,
            "name": "C2",
            "ticks": 153216,
            "time": 199.5,
            "velocity": 0.3937007874015748
          },
          {
            "duration": 0.0625,
            "durationTicks": 48,
            "midi": 36,
            "name": "C2",
            "ticks": 153504,
            "time": 199.875,
            "velocity": 0.3937007874015748
          },
          {
            "duration": 0.0625,
            "durationTicks": 48,
            "midi": 24,
            "name": "C1",
            "ticks": 153504,
            "time": 199.875,
            "velocity": 0.3937007874015748
          },
          {
            "duration": 0.0625,
            "durationTicks": 48,
            "midi": 24,
            "name": "C1",
            "ticks": 153648,
            "time": 200.0625,
            "velocity": 0.3937007874015748
          },
          {
            "duration": 0.0625,
            "durationTicks": 48,
            "midi": 36,
            "name": "C2",
            "ticks": 153648,
            "time": 200.0625,
            "velocity": 0.3937007874015748
          },
          {
            "duration": 0.0625,
            "durationTicks": 48,
            "midi": 36,
            "name": "C2",
            "ticks": 153936,
            "time": 200.4375,
            "velocity": 0.3937007874015748
          },
          {
            "duration": 0.0625,
            "durationTicks": 48,
            "midi": 24,
            "name": "C1",
            "ticks": 153936,
            "time": 200.4375,
            "velocity": 0.3937007874015748
          },
          {
            "duration": 0.0625,
            "durationTicks": 48,
            "midi": 36,
            "name": "C2",
            "ticks": 154080,
            "time": 200.625,
            "velocity": 0.3937007874015748
          },
          {
            "duration": 0.0625,
            "durationTicks": 48,
            "midi": 24,
            "name": "C1",
            "ticks": 154080,
            "time": 200.625,
            "velocity": 0.3937007874015748
          },
          {
            "duration": 0.0625,
            "durationTicks": 48,
            "midi": 24,
            "name": "C1",
            "ticks": 154224,
            "time": 200.8125,
            "velocity": 0.3937007874015748
          },
          {
            "duration": 0.0625,
            "durationTicks": 48,
            "midi": 36,
            "name": "C2",
            "ticks": 154224,
            "time": 200.8125,
            "velocity": 0.3937007874015748
          },
          {
            "duration": 0.0625,
            "durationTicks": 48,
            "midi": 24,
            "name": "C1",
            "ticks": 154368,
            "time": 201,
            "velocity": 0.3937007874015748
          },
          {
            "duration": 0.0625,
            "durationTicks": 48,
            "midi": 36,
            "name": "C2",
            "ticks": 154368,
            "time": 201,
            "velocity": 0.3937007874015748
          },
          {
            "duration": 0.0625,
            "durationTicks": 48,
            "midi": 24,
            "name": "C1",
            "ticks": 154656,
            "time": 201.375,
            "velocity": 0.3937007874015748
          },
          {
            "duration": 0.0625,
            "durationTicks": 48,
            "midi": 36,
            "name": "C2",
            "ticks": 154656,
            "time": 201.375,
            "velocity": 0.3937007874015748
          },
          {
            "duration": 0.0625,
            "durationTicks": 48,
            "midi": 36,
            "name": "C2",
            "ticks": 154800,
            "time": 201.5625,
            "velocity": 0.3937007874015748
          },
          {
            "duration": 0.0625,
            "durationTicks": 48,
            "midi": 24,
            "name": "C1",
            "ticks": 154800,
            "time": 201.5625,
            "velocity": 0.3937007874015748
          },
          {
            "duration": 0.0625,
            "durationTicks": 48,
            "midi": 24,
            "name": "C1",
            "ticks": 155088,
            "time": 201.9375,
            "velocity": 0.3937007874015748
          },
          {
            "duration": 0.0625,
            "durationTicks": 48,
            "midi": 36,
            "name": "C2",
            "ticks": 155088,
            "time": 201.9375,
            "velocity": 0.3937007874015748
          },
          {
            "duration": 0.0625,
            "durationTicks": 48,
            "midi": 24,
            "name": "C1",
            "ticks": 155232,
            "time": 202.125,
            "velocity": 0.3937007874015748
          },
          {
            "duration": 0.0625,
            "durationTicks": 48,
            "midi": 36,
            "name": "C2",
            "ticks": 155232,
            "time": 202.125,
            "velocity": 0.3937007874015748
          },
          {
            "duration": 0.0625,
            "durationTicks": 48,
            "midi": 36,
            "name": "C2",
            "ticks": 155376,
            "time": 202.3125,
            "velocity": 0.3937007874015748
          },
          {
            "duration": 0.0625,
            "durationTicks": 48,
            "midi": 24,
            "name": "C1",
            "ticks": 155376,
            "time": 202.3125,
            "velocity": 0.3937007874015748
          },
          {
            "duration": 0.0625,
            "durationTicks": 48,
            "midi": 38,
            "name": "D2",
            "ticks": 155520,
            "time": 202.5,
            "velocity": 0.3937007874015748
          },
          {
            "duration": 0.0625,
            "durationTicks": 48,
            "midi": 26,
            "name": "D1",
            "ticks": 155520,
            "time": 202.5,
            "velocity": 0.3937007874015748
          },
          {
            "duration": 0.0625,
            "durationTicks": 48,
            "midi": 33,
            "name": "A1",
            "ticks": 155808,
            "time": 202.875,
            "velocity": 0.3937007874015748
          },
          {
            "duration": 0.0625,
            "durationTicks": 48,
            "midi": 45,
            "name": "A2",
            "ticks": 155808,
            "time": 202.875,
            "velocity": 0.3937007874015748
          },
          {
            "duration": 0.0625,
            "durationTicks": 48,
            "midi": 38,
            "name": "D2",
            "ticks": 155952,
            "time": 203.0625,
            "velocity": 0.3937007874015748
          },
          {
            "duration": 0.0625,
            "durationTicks": 48,
            "midi": 26,
            "name": "D1",
            "ticks": 155952,
            "time": 203.0625,
            "velocity": 0.3937007874015748
          },
          {
            "duration": 0.0625,
            "durationTicks": 48,
            "midi": 28,
            "name": "E1",
            "ticks": 156096,
            "time": 203.25,
            "velocity": 0.3937007874015748
          },
          {
            "duration": 0.0625,
            "durationTicks": 48,
            "midi": 40,
            "name": "E2",
            "ticks": 156096,
            "time": 203.25,
            "velocity": 0.3937007874015748
          },
          {
            "duration": 0.0625,
            "durationTicks": 48,
            "midi": 40,
            "name": "E2",
            "ticks": 156384,
            "time": 203.625,
            "velocity": 0.3937007874015748
          },
          {
            "duration": 0.0625,
            "durationTicks": 48,
            "midi": 28,
            "name": "E1",
            "ticks": 156384,
            "time": 203.625,
            "velocity": 0.3937007874015748
          },
          {
            "duration": 0.0625,
            "durationTicks": 48,
            "midi": 40,
            "name": "E2",
            "ticks": 156528,
            "time": 203.8125,
            "velocity": 0.3937007874015748
          },
          {
            "duration": 0.0625,
            "durationTicks": 48,
            "midi": 28,
            "name": "E1",
            "ticks": 156528,
            "time": 203.8125,
            "velocity": 0.3937007874015748
          },
          {
            "duration": 0.0625,
            "durationTicks": 48,
            "midi": 40,
            "name": "E2",
            "ticks": 156816,
            "time": 204.1875,
            "velocity": 0.3937007874015748
          },
          {
            "duration": 0.0625,
            "durationTicks": 48,
            "midi": 28,
            "name": "E1",
            "ticks": 156816,
            "time": 204.1875,
            "velocity": 0.3937007874015748
          },
          {
            "duration": 0.0625,
            "durationTicks": 48,
            "midi": 28,
            "name": "E1",
            "ticks": 156960,
            "time": 204.375,
            "velocity": 0.3937007874015748
          },
          {
            "duration": 0.0625,
            "durationTicks": 48,
            "midi": 40,
            "name": "E2",
            "ticks": 156960,
            "time": 204.375,
            "velocity": 0.3937007874015748
          },
          {
            "duration": 0.0625,
            "durationTicks": 48,
            "midi": 28,
            "name": "E1",
            "ticks": 157104,
            "time": 204.5625,
            "velocity": 0.3937007874015748
          },
          {
            "duration": 0.0625,
            "durationTicks": 48,
            "midi": 40,
            "name": "E2",
            "ticks": 157104,
            "time": 204.5625,
            "velocity": 0.3937007874015748
          },
          {
            "duration": 0.0625,
            "durationTicks": 48,
            "midi": 31,
            "name": "G1",
            "ticks": 158400,
            "time": 206.25,
            "velocity": 0.3937007874015748
          },
          {
            "duration": 0.0625,
            "durationTicks": 48,
            "midi": 31,
            "name": "G1",
            "ticks": 158400,
            "time": 206.25,
            "velocity": 0.3937007874015748
          },
          {
            "duration": 0.0625,
            "durationTicks": 48,
            "midi": 31,
            "name": "G1",
            "ticks": 158688,
            "time": 206.625,
            "velocity": 0.3937007874015748
          },
          {
            "duration": 0.0625,
            "durationTicks": 48,
            "midi": 31,
            "name": "G1",
            "ticks": 158688,
            "time": 206.625,
            "velocity": 0.3937007874015748
          },
          {
            "duration": 0.0625,
            "durationTicks": 48,
            "midi": 31,
            "name": "G1",
            "ticks": 158832,
            "time": 206.8125,
            "velocity": 0.3937007874015748
          },
          {
            "duration": 0.0625,
            "durationTicks": 48,
            "midi": 31,
            "name": "G1",
            "ticks": 158832,
            "time": 206.8125,
            "velocity": 0.3937007874015748
          },
          {
            "duration": 0.0625,
            "durationTicks": 48,
            "midi": 31,
            "name": "G1",
            "ticks": 159120,
            "time": 207.1875,
            "velocity": 0.3937007874015748
          },
          {
            "duration": 0.0625,
            "durationTicks": 48,
            "midi": 31,
            "name": "G1",
            "ticks": 159120,
            "time": 207.1875,
            "velocity": 0.3937007874015748
          },
          {
            "duration": 0.0625,
            "durationTicks": 48,
            "midi": 31,
            "name": "G1",
            "ticks": 159264,
            "time": 207.375,
            "velocity": 0.3937007874015748
          },
          {
            "duration": 0.0625,
            "durationTicks": 48,
            "midi": 31,
            "name": "G1",
            "ticks": 159264,
            "time": 207.375,
            "velocity": 0.3937007874015748
          },
          {
            "duration": 0.0625,
            "durationTicks": 48,
            "midi": 31,
            "name": "G1",
            "ticks": 159408,
            "time": 207.5625,
            "velocity": 0.3937007874015748
          },
          {
            "duration": 0.0625,
            "durationTicks": 48,
            "midi": 31,
            "name": "G1",
            "ticks": 159408,
            "time": 207.5625,
            "velocity": 0.3937007874015748
          },
          {
            "duration": 0.0625,
            "durationTicks": 48,
            "midi": 24,
            "name": "C1",
            "ticks": 159552,
            "time": 207.75,
            "velocity": 0.3937007874015748
          },
          {
            "duration": 0.0625,
            "durationTicks": 48,
            "midi": 36,
            "name": "C2",
            "ticks": 159552,
            "time": 207.75,
            "velocity": 0.3937007874015748
          },
          {
            "duration": 0.0625,
            "durationTicks": 48,
            "midi": 36,
            "name": "C2",
            "ticks": 159840,
            "time": 208.125,
            "velocity": 0.3937007874015748
          },
          {
            "duration": 0.0625,
            "durationTicks": 48,
            "midi": 24,
            "name": "C1",
            "ticks": 159840,
            "time": 208.125,
            "velocity": 0.3937007874015748
          },
          {
            "duration": 0.0625,
            "durationTicks": 48,
            "midi": 36,
            "name": "C2",
            "ticks": 159984,
            "time": 208.3125,
            "velocity": 0.3937007874015748
          },
          {
            "duration": 0.0625,
            "durationTicks": 48,
            "midi": 24,
            "name": "C1",
            "ticks": 159984,
            "time": 208.3125,
            "velocity": 0.3937007874015748
          },
          {
            "duration": 0.0625,
            "durationTicks": 48,
            "midi": 36,
            "name": "C2",
            "ticks": 160272,
            "time": 208.6875,
            "velocity": 0.3937007874015748
          },
          {
            "duration": 0.0625,
            "durationTicks": 48,
            "midi": 24,
            "name": "C1",
            "ticks": 160272,
            "time": 208.6875,
            "velocity": 0.3937007874015748
          },
          {
            "duration": 0.0625,
            "durationTicks": 48,
            "midi": 36,
            "name": "C2",
            "ticks": 160416,
            "time": 208.875,
            "velocity": 0.3937007874015748
          },
          {
            "duration": 0.0625,
            "durationTicks": 48,
            "midi": 24,
            "name": "C1",
            "ticks": 160416,
            "time": 208.875,
            "velocity": 0.3937007874015748
          },
          {
            "duration": 0.0625,
            "durationTicks": 48,
            "midi": 24,
            "name": "C1",
            "ticks": 160560,
            "time": 209.0625,
            "velocity": 0.3937007874015748
          },
          {
            "duration": 0.0625,
            "durationTicks": 48,
            "midi": 36,
            "name": "C2",
            "ticks": 160560,
            "time": 209.0625,
            "velocity": 0.3937007874015748
          },
          {
            "duration": 0.0625,
            "durationTicks": 48,
            "midi": 24,
            "name": "C1",
            "ticks": 160704,
            "time": 209.25,
            "velocity": 0.3937007874015748
          },
          {
            "duration": 0.0625,
            "durationTicks": 48,
            "midi": 36,
            "name": "C2",
            "ticks": 160704,
            "time": 209.25,
            "velocity": 0.3937007874015748
          },
          {
            "duration": 0.0625,
            "durationTicks": 48,
            "midi": 24,
            "name": "C1",
            "ticks": 160992,
            "time": 209.625,
            "velocity": 0.3937007874015748
          },
          {
            "duration": 0.0625,
            "durationTicks": 48,
            "midi": 36,
            "name": "C2",
            "ticks": 160992,
            "time": 209.625,
            "velocity": 0.3937007874015748
          },
          {
            "duration": 0.0625,
            "durationTicks": 48,
            "midi": 36,
            "name": "C2",
            "ticks": 161136,
            "time": 209.8125,
            "velocity": 0.3937007874015748
          },
          {
            "duration": 0.0625,
            "durationTicks": 48,
            "midi": 24,
            "name": "C1",
            "ticks": 161136,
            "time": 209.8125,
            "velocity": 0.3937007874015748
          },
          {
            "duration": 0.0625,
            "durationTicks": 48,
            "midi": 24,
            "name": "C1",
            "ticks": 161424,
            "time": 210.1875,
            "velocity": 0.3937007874015748
          },
          {
            "duration": 0.0625,
            "durationTicks": 48,
            "midi": 36,
            "name": "C2",
            "ticks": 161424,
            "time": 210.1875,
            "velocity": 0.3937007874015748
          },
          {
            "duration": 0.0625,
            "durationTicks": 48,
            "midi": 24,
            "name": "C1",
            "ticks": 161568,
            "time": 210.375,
            "velocity": 0.3937007874015748
          },
          {
            "duration": 0.0625,
            "durationTicks": 48,
            "midi": 36,
            "name": "C2",
            "ticks": 161568,
            "time": 210.375,
            "velocity": 0.3937007874015748
          },
          {
            "duration": 0.0625,
            "durationTicks": 48,
            "midi": 36,
            "name": "C2",
            "ticks": 161712,
            "time": 210.5625,
            "velocity": 0.3937007874015748
          },
          {
            "duration": 0.0625,
            "durationTicks": 48,
            "midi": 24,
            "name": "C1",
            "ticks": 161712,
            "time": 210.5625,
            "velocity": 0.3937007874015748
          },
          {
            "duration": 0.0625,
            "durationTicks": 48,
            "midi": 26,
            "name": "D1",
            "ticks": 161856,
            "time": 210.75,
            "velocity": 0.3937007874015748
          },
          {
            "duration": 0.0625,
            "durationTicks": 48,
            "midi": 38,
            "name": "D2",
            "ticks": 161856,
            "time": 210.75,
            "velocity": 0.3937007874015748
          },
          {
            "duration": 0.0625,
            "durationTicks": 48,
            "midi": 33,
            "name": "A1",
            "ticks": 162144,
            "time": 211.125,
            "velocity": 0.3937007874015748
          },
          {
            "duration": 0.0625,
            "durationTicks": 48,
            "midi": 45,
            "name": "A2",
            "ticks": 162144,
            "time": 211.125,
            "velocity": 0.3937007874015748
          },
          {
            "duration": 0.0625,
            "durationTicks": 48,
            "midi": 26,
            "name": "D1",
            "ticks": 162288,
            "time": 211.3125,
            "velocity": 0.3937007874015748
          },
          {
            "duration": 0.0625,
            "durationTicks": 48,
            "midi": 38,
            "name": "D2",
            "ticks": 162288,
            "time": 211.3125,
            "velocity": 0.3937007874015748
          },
          {
            "duration": 0.0625,
            "durationTicks": 48,
            "midi": 28,
            "name": "E1",
            "ticks": 162432,
            "time": 211.5,
            "velocity": 0.3937007874015748
          },
          {
            "duration": 0.0625,
            "durationTicks": 48,
            "midi": 40,
            "name": "E2",
            "ticks": 162432,
            "time": 211.5,
            "velocity": 0.3937007874015748
          },
          {
            "duration": 0.0625,
            "durationTicks": 48,
            "midi": 28,
            "name": "E1",
            "ticks": 162720,
            "time": 211.875,
            "velocity": 0.3937007874015748
          },
          {
            "duration": 0.0625,
            "durationTicks": 48,
            "midi": 40,
            "name": "E2",
            "ticks": 162720,
            "time": 211.875,
            "velocity": 0.3937007874015748
          },
          {
            "duration": 0.0625,
            "durationTicks": 48,
            "midi": 28,
            "name": "E1",
            "ticks": 162864,
            "time": 212.0625,
            "velocity": 0.3937007874015748
          },
          {
            "duration": 0.0625,
            "durationTicks": 48,
            "midi": 40,
            "name": "E2",
            "ticks": 162864,
            "time": 212.0625,
            "velocity": 0.3937007874015748
          },
          {
            "duration": 0.0625,
            "durationTicks": 48,
            "midi": 28,
            "name": "E1",
            "ticks": 163152,
            "time": 212.4375,
            "velocity": 0.3937007874015748
          },
          {
            "duration": 0.0625,
            "durationTicks": 48,
            "midi": 40,
            "name": "E2",
            "ticks": 163152,
            "time": 212.4375,
            "velocity": 0.3937007874015748
          },
          {
            "duration": 0.0625,
            "durationTicks": 48,
            "midi": 40,
            "name": "E2",
            "ticks": 163296,
            "time": 212.625,
            "velocity": 0.3937007874015748
          },
          {
            "duration": 0.0625,
            "durationTicks": 48,
            "midi": 28,
            "name": "E1",
            "ticks": 163296,
            "time": 212.625,
            "velocity": 0.3937007874015748
          },
          {
            "duration": 0.0625,
            "durationTicks": 48,
            "midi": 28,
            "name": "E1",
            "ticks": 163440,
            "time": 212.8125,
            "velocity": 0.3937007874015748
          },
          {
            "duration": 0.0625,
            "durationTicks": 48,
            "midi": 40,
            "name": "E2",
            "ticks": 163440,
            "time": 212.8125,
            "velocity": 0.3937007874015748
          },
          {
            "duration": 0.0625,
            "durationTicks": 48,
            "midi": 31,
            "name": "G1",
            "ticks": 164736,
            "time": 214.5,
            "velocity": 0.3937007874015748
          },
          {
            "duration": 0.0625,
            "durationTicks": 48,
            "midi": 31,
            "name": "G1",
            "ticks": 164736,
            "time": 214.5,
            "velocity": 0.3937007874015748
          },
          {
            "duration": 0.0625,
            "durationTicks": 48,
            "midi": 31,
            "name": "G1",
            "ticks": 165024,
            "time": 214.875,
            "velocity": 0.3937007874015748
          },
          {
            "duration": 0.0625,
            "durationTicks": 48,
            "midi": 31,
            "name": "G1",
            "ticks": 165024,
            "time": 214.875,
            "velocity": 0.3937007874015748
          },
          {
            "duration": 0.0625,
            "durationTicks": 48,
            "midi": 31,
            "name": "G1",
            "ticks": 165168,
            "time": 215.0625,
            "velocity": 0.3937007874015748
          },
          {
            "duration": 0.0625,
            "durationTicks": 48,
            "midi": 31,
            "name": "G1",
            "ticks": 165168,
            "time": 215.0625,
            "velocity": 0.3937007874015748
          },
          {
            "duration": 0.0625,
            "durationTicks": 48,
            "midi": 31,
            "name": "G1",
            "ticks": 165456,
            "time": 215.4375,
            "velocity": 0.3937007874015748
          },
          {
            "duration": 0.0625,
            "durationTicks": 48,
            "midi": 31,
            "name": "G1",
            "ticks": 165456,
            "time": 215.4375,
            "velocity": 0.3937007874015748
          },
          {
            "duration": 0.0625,
            "durationTicks": 48,
            "midi": 31,
            "name": "G1",
            "ticks": 165600,
            "time": 215.625,
            "velocity": 0.3937007874015748
          },
          {
            "duration": 0.0625,
            "durationTicks": 48,
            "midi": 31,
            "name": "G1",
            "ticks": 165600,
            "time": 215.625,
            "velocity": 0.3937007874015748
          },
          {
            "duration": 0.0625,
            "durationTicks": 48,
            "midi": 31,
            "name": "G1",
            "ticks": 165744,
            "time": 215.8125,
            "velocity": 0.3937007874015748
          },
          {
            "duration": 0.0625,
            "durationTicks": 48,
            "midi": 31,
            "name": "G1",
            "ticks": 165744,
            "time": 215.8125,
            "velocity": 0.3937007874015748
          },
          {
            "duration": 0.0625,
            "durationTicks": 48,
            "midi": 24,
            "name": "C1",
            "ticks": 165888,
            "time": 216,
            "velocity": 0.3937007874015748
          },
          {
            "duration": 0.0625,
            "durationTicks": 48,
            "midi": 36,
            "name": "C2",
            "ticks": 165888,
            "time": 216,
            "velocity": 0.3937007874015748
          },
          {
            "duration": 0.0625,
            "durationTicks": 48,
            "midi": 24,
            "name": "C1",
            "ticks": 166176,
            "time": 216.375,
            "velocity": 0.3937007874015748
          },
          {
            "duration": 0.0625,
            "durationTicks": 48,
            "midi": 36,
            "name": "C2",
            "ticks": 166176,
            "time": 216.375,
            "velocity": 0.3937007874015748
          },
          {
            "duration": 0.0625,
            "durationTicks": 48,
            "midi": 24,
            "name": "C1",
            "ticks": 166320,
            "time": 216.5625,
            "velocity": 0.3937007874015748
          },
          {
            "duration": 0.0625,
            "durationTicks": 48,
            "midi": 36,
            "name": "C2",
            "ticks": 166320,
            "time": 216.5625,
            "velocity": 0.3937007874015748
          },
          {
            "duration": 0.0625,
            "durationTicks": 48,
            "midi": 24,
            "name": "C1",
            "ticks": 166608,
            "time": 216.9375,
            "velocity": 0.3937007874015748
          },
          {
            "duration": 0.0625,
            "durationTicks": 48,
            "midi": 36,
            "name": "C2",
            "ticks": 166608,
            "time": 216.9375,
            "velocity": 0.3937007874015748
          },
          {
            "duration": 0.0625,
            "durationTicks": 48,
            "midi": 36,
            "name": "C2",
            "ticks": 166752,
            "time": 217.125,
            "velocity": 0.3937007874015748
          },
          {
            "duration": 0.0625,
            "durationTicks": 48,
            "midi": 24,
            "name": "C1",
            "ticks": 166752,
            "time": 217.125,
            "velocity": 0.3937007874015748
          },
          {
            "duration": 0.0625,
            "durationTicks": 48,
            "midi": 36,
            "name": "C2",
            "ticks": 166896,
            "time": 217.3125,
            "velocity": 0.3937007874015748
          },
          {
            "duration": 0.0625,
            "durationTicks": 48,
            "midi": 24,
            "name": "C1",
            "ticks": 166896,
            "time": 217.3125,
            "velocity": 0.3937007874015748
          },
          {
            "duration": 0.0625,
            "durationTicks": 48,
            "midi": 24,
            "name": "C1",
            "ticks": 167040,
            "time": 217.5,
            "velocity": 0.3937007874015748
          },
          {
            "duration": 0.0625,
            "durationTicks": 48,
            "midi": 36,
            "name": "C2",
            "ticks": 167040,
            "time": 217.5,
            "velocity": 0.3937007874015748
          },
          {
            "duration": 0.0625,
            "durationTicks": 48,
            "midi": 24,
            "name": "C1",
            "ticks": 167328,
            "time": 217.875,
            "velocity": 0.3937007874015748
          },
          {
            "duration": 0.0625,
            "durationTicks": 48,
            "midi": 36,
            "name": "C2",
            "ticks": 167328,
            "time": 217.875,
            "velocity": 0.3937007874015748
          },
          {
            "duration": 0.0625,
            "durationTicks": 48,
            "midi": 36,
            "name": "C2",
            "ticks": 167472,
            "time": 218.0625,
            "velocity": 0.3937007874015748
          },
          {
            "duration": 0.0625,
            "durationTicks": 48,
            "midi": 24,
            "name": "C1",
            "ticks": 167472,
            "time": 218.0625,
            "velocity": 0.3937007874015748
          },
          {
            "duration": 0.0625,
            "durationTicks": 48,
            "midi": 24,
            "name": "C1",
            "ticks": 167760,
            "time": 218.4375,
            "velocity": 0.3937007874015748
          },
          {
            "duration": 0.0625,
            "durationTicks": 48,
            "midi": 36,
            "name": "C2",
            "ticks": 167760,
            "time": 218.4375,
            "velocity": 0.3937007874015748
          },
          {
            "duration": 0.0625,
            "durationTicks": 48,
            "midi": 36,
            "name": "C2",
            "ticks": 167904,
            "time": 218.625,
            "velocity": 0.3937007874015748
          },
          {
            "duration": 0.0625,
            "durationTicks": 48,
            "midi": 24,
            "name": "C1",
            "ticks": 167904,
            "time": 218.625,
            "velocity": 0.3937007874015748
          },
          {
            "duration": 0.0625,
            "durationTicks": 48,
            "midi": 36,
            "name": "C2",
            "ticks": 168048,
            "time": 218.8125,
            "velocity": 0.3937007874015748
          },
          {
            "duration": 0.0625,
            "durationTicks": 48,
            "midi": 24,
            "name": "C1",
            "ticks": 168048,
            "time": 218.8125,
            "velocity": 0.3937007874015748
          },
          {
            "duration": 0.0625,
            "durationTicks": 48,
            "midi": 26,
            "name": "D1",
            "ticks": 168192,
            "time": 219,
            "velocity": 0.3937007874015748
          },
          {
            "duration": 0.0625,
            "durationTicks": 48,
            "midi": 38,
            "name": "D2",
            "ticks": 168192,
            "time": 219,
            "velocity": 0.3937007874015748
          },
          {
            "duration": 0.0625,
            "durationTicks": 48,
            "midi": 33,
            "name": "A1",
            "ticks": 168480,
            "time": 219.375,
            "velocity": 0.3937007874015748
          },
          {
            "duration": 0.0625,
            "durationTicks": 48,
            "midi": 45,
            "name": "A2",
            "ticks": 168480,
            "time": 219.375,
            "velocity": 0.3937007874015748
          },
          {
            "duration": 0.0625,
            "durationTicks": 48,
            "midi": 38,
            "name": "D2",
            "ticks": 168624,
            "time": 219.5625,
            "velocity": 0.3937007874015748
          },
          {
            "duration": 0.0625,
            "durationTicks": 48,
            "midi": 26,
            "name": "D1",
            "ticks": 168624,
            "time": 219.5625,
            "velocity": 0.3937007874015748
          },
          {
            "duration": 0.0625,
            "durationTicks": 48,
            "midi": 28,
            "name": "E1",
            "ticks": 168768,
            "time": 219.75,
            "velocity": 0.3937007874015748
          },
          {
            "duration": 0.0625,
            "durationTicks": 48,
            "midi": 40,
            "name": "E2",
            "ticks": 168768,
            "time": 219.75,
            "velocity": 0.3937007874015748
          },
          {
            "duration": 0.0625,
            "durationTicks": 48,
            "midi": 28,
            "name": "E1",
            "ticks": 169056,
            "time": 220.125,
            "velocity": 0.3937007874015748
          },
          {
            "duration": 0.0625,
            "durationTicks": 48,
            "midi": 40,
            "name": "E2",
            "ticks": 169056,
            "time": 220.125,
            "velocity": 0.3937007874015748
          },
          {
            "duration": 0.0625,
            "durationTicks": 48,
            "midi": 40,
            "name": "E2",
            "ticks": 169200,
            "time": 220.3125,
            "velocity": 0.3937007874015748
          },
          {
            "duration": 0.0625,
            "durationTicks": 48,
            "midi": 28,
            "name": "E1",
            "ticks": 169200,
            "time": 220.3125,
            "velocity": 0.3937007874015748
          },
          {
            "duration": 0.0625,
            "durationTicks": 48,
            "midi": 28,
            "name": "E1",
            "ticks": 169488,
            "time": 220.6875,
            "velocity": 0.3937007874015748
          },
          {
            "duration": 0.0625,
            "durationTicks": 48,
            "midi": 40,
            "name": "E2",
            "ticks": 169488,
            "time": 220.6875,
            "velocity": 0.3937007874015748
          },
          {
            "duration": 0.0625,
            "durationTicks": 48,
            "midi": 28,
            "name": "E1",
            "ticks": 169632,
            "time": 220.875,
            "velocity": 0.3937007874015748
          },
          {
            "duration": 0.0625,
            "durationTicks": 48,
            "midi": 40,
            "name": "E2",
            "ticks": 169632,
            "time": 220.875,
            "velocity": 0.3937007874015748
          },
          {
            "duration": 0.0625,
            "durationTicks": 48,
            "midi": 40,
            "name": "E2",
            "ticks": 169776,
            "time": 221.0625,
            "velocity": 0.3937007874015748
          },
          {
            "duration": 0.0625,
            "durationTicks": 48,
            "midi": 28,
            "name": "E1",
            "ticks": 169776,
            "time": 221.0625,
            "velocity": 0.3937007874015748
          },
          {
            "duration": 0.0625,
            "durationTicks": 48,
            "midi": 31,
            "name": "G1",
            "ticks": 171072,
            "time": 222.75,
            "velocity": 0.3937007874015748
          },
          {
            "duration": 0.0625,
            "durationTicks": 48,
            "midi": 31,
            "name": "G1",
            "ticks": 171072,
            "time": 222.75,
            "velocity": 0.3937007874015748
          },
          {
            "duration": 0.0625,
            "durationTicks": 48,
            "midi": 31,
            "name": "G1",
            "ticks": 171360,
            "time": 223.125,
            "velocity": 0.3937007874015748
          },
          {
            "duration": 0.0625,
            "durationTicks": 48,
            "midi": 31,
            "name": "G1",
            "ticks": 171360,
            "time": 223.125,
            "velocity": 0.3937007874015748
          },
          {
            "duration": 0.0625,
            "durationTicks": 48,
            "midi": 31,
            "name": "G1",
            "ticks": 171504,
            "time": 223.3125,
            "velocity": 0.3937007874015748
          },
          {
            "duration": 0.0625,
            "durationTicks": 48,
            "midi": 31,
            "name": "G1",
            "ticks": 171504,
            "time": 223.3125,
            "velocity": 0.3937007874015748
          },
          {
            "duration": 0.0625,
            "durationTicks": 48,
            "midi": 31,
            "name": "G1",
            "ticks": 171792,
            "time": 223.6875,
            "velocity": 0.3937007874015748
          },
          {
            "duration": 0.0625,
            "durationTicks": 48,
            "midi": 31,
            "name": "G1",
            "ticks": 171792,
            "time": 223.6875,
            "velocity": 0.3937007874015748
          },
          {
            "duration": 0.0625,
            "durationTicks": 48,
            "midi": 31,
            "name": "G1",
            "ticks": 171936,
            "time": 223.875,
            "velocity": 0.3937007874015748
          },
          {
            "duration": 0.0625,
            "durationTicks": 48,
            "midi": 31,
            "name": "G1",
            "ticks": 171936,
            "time": 223.875,
            "velocity": 0.3937007874015748
          },
          {
            "duration": 0.0625,
            "durationTicks": 48,
            "midi": 31,
            "name": "G1",
            "ticks": 172080,
            "time": 224.0625,
            "velocity": 0.3937007874015748
          },
          {
            "duration": 0.0625,
            "durationTicks": 48,
            "midi": 31,
            "name": "G1",
            "ticks": 172080,
            "time": 224.0625,
            "velocity": 0.3937007874015748
          },
          {
            "duration": 0.0625,
            "durationTicks": 48,
            "midi": 24,
            "name": "C1",
            "ticks": 172224,
            "time": 224.25,
            "velocity": 0.3937007874015748
          },
          {
            "duration": 0.0625,
            "durationTicks": 48,
            "midi": 36,
            "name": "C2",
            "ticks": 172224,
            "time": 224.25,
            "velocity": 0.3937007874015748
          },
          {
            "duration": 0.0625,
            "durationTicks": 48,
            "midi": 24,
            "name": "C1",
            "ticks": 172512,
            "time": 224.625,
            "velocity": 0.3937007874015748
          },
          {
            "duration": 0.0625,
            "durationTicks": 48,
            "midi": 36,
            "name": "C2",
            "ticks": 172512,
            "time": 224.625,
            "velocity": 0.3937007874015748
          },
          {
            "duration": 0.0625,
            "durationTicks": 48,
            "midi": 36,
            "name": "C2",
            "ticks": 172656,
            "time": 224.8125,
            "velocity": 0.3937007874015748
          },
          {
            "duration": 0.0625,
            "durationTicks": 48,
            "midi": 24,
            "name": "C1",
            "ticks": 172656,
            "time": 224.8125,
            "velocity": 0.3937007874015748
          },
          {
            "duration": 0.0625,
            "durationTicks": 48,
            "midi": 36,
            "name": "C2",
            "ticks": 172944,
            "time": 225.1875,
            "velocity": 0.3937007874015748
          },
          {
            "duration": 0.0625,
            "durationTicks": 48,
            "midi": 24,
            "name": "C1",
            "ticks": 172944,
            "time": 225.1875,
            "velocity": 0.3937007874015748
          },
          {
            "duration": 0.0625,
            "durationTicks": 48,
            "midi": 24,
            "name": "C1",
            "ticks": 173088,
            "time": 225.375,
            "velocity": 0.3937007874015748
          },
          {
            "duration": 0.0625,
            "durationTicks": 48,
            "midi": 36,
            "name": "C2",
            "ticks": 173088,
            "time": 225.375,
            "velocity": 0.3937007874015748
          },
          {
            "duration": 0.0625,
            "durationTicks": 48,
            "midi": 24,
            "name": "C1",
            "ticks": 173232,
            "time": 225.5625,
            "velocity": 0.3937007874015748
          },
          {
            "duration": 0.0625,
            "durationTicks": 48,
            "midi": 36,
            "name": "C2",
            "ticks": 173232,
            "time": 225.5625,
            "velocity": 0.3937007874015748
          },
          {
            "duration": 0.0625,
            "durationTicks": 48,
            "midi": 36,
            "name": "C2",
            "ticks": 173376,
            "time": 225.75,
            "velocity": 0.3937007874015748
          },
          {
            "duration": 0.0625,
            "durationTicks": 48,
            "midi": 24,
            "name": "C1",
            "ticks": 173376,
            "time": 225.75,
            "velocity": 0.3937007874015748
          },
          {
            "duration": 0.0625,
            "durationTicks": 48,
            "midi": 24,
            "name": "C1",
            "ticks": 173664,
            "time": 226.125,
            "velocity": 0.3937007874015748
          },
          {
            "duration": 0.0625,
            "durationTicks": 48,
            "midi": 36,
            "name": "C2",
            "ticks": 173664,
            "time": 226.125,
            "velocity": 0.3937007874015748
          },
          {
            "duration": 0.0625,
            "durationTicks": 48,
            "midi": 24,
            "name": "C1",
            "ticks": 173808,
            "time": 226.3125,
            "velocity": 0.3937007874015748
          },
          {
            "duration": 0.0625,
            "durationTicks": 48,
            "midi": 36,
            "name": "C2",
            "ticks": 173808,
            "time": 226.3125,
            "velocity": 0.3937007874015748
          },
          {
            "duration": 0.0625,
            "durationTicks": 48,
            "midi": 24,
            "name": "C1",
            "ticks": 174096,
            "time": 226.6875,
            "velocity": 0.3937007874015748
          },
          {
            "duration": 0.0625,
            "durationTicks": 48,
            "midi": 36,
            "name": "C2",
            "ticks": 174096,
            "time": 226.6875,
            "velocity": 0.3937007874015748
          },
          {
            "duration": 0.0625,
            "durationTicks": 48,
            "midi": 36,
            "name": "C2",
            "ticks": 174240,
            "time": 226.875,
            "velocity": 0.3937007874015748
          },
          {
            "duration": 0.0625,
            "durationTicks": 48,
            "midi": 24,
            "name": "C1",
            "ticks": 174240,
            "time": 226.875,
            "velocity": 0.3937007874015748
          },
          {
            "duration": 0.0625,
            "durationTicks": 48,
            "midi": 24,
            "name": "C1",
            "ticks": 174384,
            "time": 227.0625,
            "velocity": 0.3937007874015748
          },
          {
            "duration": 0.0625,
            "durationTicks": 48,
            "midi": 36,
            "name": "C2",
            "ticks": 174384,
            "time": 227.0625,
            "velocity": 0.3937007874015748
          },
          {
            "duration": 0.0625,
            "durationTicks": 48,
            "midi": 38,
            "name": "D2",
            "ticks": 174528,
            "time": 227.25,
            "velocity": 0.3937007874015748
          },
          {
            "duration": 0.0625,
            "durationTicks": 48,
            "midi": 26,
            "name": "D1",
            "ticks": 174528,
            "time": 227.25,
            "velocity": 0.3937007874015748
          },
          {
            "duration": 0.0625,
            "durationTicks": 48,
            "midi": 45,
            "name": "A2",
            "ticks": 174816,
            "time": 227.625,
            "velocity": 0.3937007874015748
          },
          {
            "duration": 0.0625,
            "durationTicks": 48,
            "midi": 33,
            "name": "A1",
            "ticks": 174816,
            "time": 227.625,
            "velocity": 0.3937007874015748
          },
          {
            "duration": 0.0625,
            "durationTicks": 48,
            "midi": 26,
            "name": "D1",
            "ticks": 174960,
            "time": 227.8125,
            "velocity": 0.3937007874015748
          },
          {
            "duration": 0.0625,
            "durationTicks": 48,
            "midi": 38,
            "name": "D2",
            "ticks": 174960,
            "time": 227.8125,
            "velocity": 0.3937007874015748
          },
          {
            "duration": 0.0625,
            "durationTicks": 48,
            "midi": 28,
            "name": "E1",
            "ticks": 175104,
            "time": 228,
            "velocity": 0.3937007874015748
          },
          {
            "duration": 0.0625,
            "durationTicks": 48,
            "midi": 40,
            "name": "E2",
            "ticks": 175104,
            "time": 228,
            "velocity": 0.3937007874015748
          },
          {
            "duration": 0.0625,
            "durationTicks": 48,
            "midi": 40,
            "name": "E2",
            "ticks": 175392,
            "time": 228.375,
            "velocity": 0.3937007874015748
          },
          {
            "duration": 0.0625,
            "durationTicks": 48,
            "midi": 28,
            "name": "E1",
            "ticks": 175392,
            "time": 228.375,
            "velocity": 0.3937007874015748
          },
          {
            "duration": 0.0625,
            "durationTicks": 48,
            "midi": 28,
            "name": "E1",
            "ticks": 175536,
            "time": 228.5625,
            "velocity": 0.3937007874015748
          },
          {
            "duration": 0.0625,
            "durationTicks": 48,
            "midi": 40,
            "name": "E2",
            "ticks": 175536,
            "time": 228.5625,
            "velocity": 0.3937007874015748
          },
          {
            "duration": 0.0625,
            "durationTicks": 48,
            "midi": 40,
            "name": "E2",
            "ticks": 175824,
            "time": 228.9375,
            "velocity": 0.3937007874015748
          },
          {
            "duration": 0.0625,
            "durationTicks": 48,
            "midi": 28,
            "name": "E1",
            "ticks": 175824,
            "time": 228.9375,
            "velocity": 0.3937007874015748
          },
          {
            "duration": 0.0625,
            "durationTicks": 48,
            "midi": 28,
            "name": "E1",
            "ticks": 175968,
            "time": 229.125,
            "velocity": 0.3937007874015748
          },
          {
            "duration": 0.0625,
            "durationTicks": 48,
            "midi": 40,
            "name": "E2",
            "ticks": 175968,
            "time": 229.125,
            "velocity": 0.3937007874015748
          },
          {
            "duration": 0.0625,
            "durationTicks": 48,
            "midi": 40,
            "name": "E2",
            "ticks": 176112,
            "time": 229.3125,
            "velocity": 0.3937007874015748
          },
          {
            "duration": 0.0625,
            "durationTicks": 48,
            "midi": 28,
            "name": "E1",
            "ticks": 176112,
            "time": 229.3125,
            "velocity": 0.3937007874015748
          }
        ],
        "endOfTrackTicks": 176160
      },
      {
        "channel": 7,
        "controlChanges": {},
        "pitchBends": [],
        "instrument": {
          "family": "percussive",
          "number": 114,
          "name": "steel drums"
        },
        "name": "Steel Drums",
        "notes": [
          {
            "duration": 0.1875,
            "durationTicks": 144,
            "midi": 43,
            "name": "G2",
            "ticks": 0,
            "time": 0,
            "velocity": 0.5511811023622047
          },
          {
            "duration": 0.1875,
            "durationTicks": 144,
            "midi": 50,
            "name": "D3",
            "ticks": 0,
            "time": 0,
            "velocity": 0.5511811023622047
          },
          {
            "duration": 0.1875,
            "durationTicks": 144,
            "midi": 47,
            "name": "B2",
            "ticks": 0,
            "time": 0,
            "velocity": 0.5511811023622047
          },
          {
            "duration": 0.1875,
            "durationTicks": 144,
            "midi": 55,
            "name": "G3",
            "ticks": 0,
            "time": 0,
            "velocity": 0.5511811023622047
          },
          {
            "duration": 0.1875,
            "durationTicks": 144,
            "midi": 59,
            "name": "B3",
            "ticks": 0,
            "time": 0,
            "velocity": 0.5511811023622047
          },
          {
            "duration": 0.1875,
            "durationTicks": 144,
            "midi": 50,
            "name": "D3",
            "ticks": 288,
            "time": 0.375,
            "velocity": 0.5511811023622047
          },
          {
            "duration": 0.1875,
            "durationTicks": 144,
            "midi": 43,
            "name": "G2",
            "ticks": 288,
            "time": 0.375,
            "velocity": 0.5511811023622047
          },
          {
            "duration": 0.1875,
            "durationTicks": 144,
            "midi": 47,
            "name": "B2",
            "ticks": 288,
            "time": 0.375,
            "velocity": 0.5511811023622047
          },
          {
            "duration": 0.1875,
            "durationTicks": 144,
            "midi": 59,
            "name": "B3",
            "ticks": 288,
            "time": 0.375,
            "velocity": 0.5511811023622047
          },
          {
            "duration": 0.1875,
            "durationTicks": 144,
            "midi": 55,
            "name": "G3",
            "ticks": 288,
            "time": 0.375,
            "velocity": 0.5511811023622047
          },
          {
            "duration": 0.1875,
            "durationTicks": 144,
            "midi": 47,
            "name": "B2",
            "ticks": 432,
            "time": 0.5625,
            "velocity": 0.5511811023622047
          },
          {
            "duration": 0.1875,
            "durationTicks": 144,
            "midi": 55,
            "name": "G3",
            "ticks": 432,
            "time": 0.5625,
            "velocity": 0.5511811023622047
          },
          {
            "duration": 0.1875,
            "durationTicks": 144,
            "midi": 62,
            "name": "D4",
            "ticks": 432,
            "time": 0.5625,
            "velocity": 0.5511811023622047
          },
          {
            "duration": 0.1875,
            "durationTicks": 144,
            "midi": 59,
            "name": "B3",
            "ticks": 432,
            "time": 0.5625,
            "velocity": 0.5511811023622047
          },
          {
            "duration": 0.1875,
            "durationTicks": 144,
            "midi": 43,
            "name": "G2",
            "ticks": 432,
            "time": 0.5625,
            "velocity": 0.5511811023622047
          },
          {
            "duration": 0.1875,
            "durationTicks": 144,
            "midi": 50,
            "name": "D3",
            "ticks": 432,
            "time": 0.5625,
            "velocity": 0.5511811023622047
          },
          {
            "duration": 0.1875,
            "durationTicks": 144,
            "midi": 55,
            "name": "G3",
            "ticks": 720,
            "time": 0.9375,
            "velocity": 0.5511811023622047
          },
          {
            "duration": 0.1875,
            "durationTicks": 144,
            "midi": 50,
            "name": "D3",
            "ticks": 720,
            "time": 0.9375,
            "velocity": 0.5511811023622047
          },
          {
            "duration": 0.1875,
            "durationTicks": 144,
            "midi": 62,
            "name": "D4",
            "ticks": 720,
            "time": 0.9375,
            "velocity": 0.5511811023622047
          },
          {
            "duration": 0.1875,
            "durationTicks": 144,
            "midi": 43,
            "name": "G2",
            "ticks": 720,
            "time": 0.9375,
            "velocity": 0.5511811023622047
          },
          {
            "duration": 0.1875,
            "durationTicks": 144,
            "midi": 59,
            "name": "B3",
            "ticks": 720,
            "time": 0.9375,
            "velocity": 0.5511811023622047
          },
          {
            "duration": 0.1875,
            "durationTicks": 144,
            "midi": 47,
            "name": "B2",
            "ticks": 720,
            "time": 0.9375,
            "velocity": 0.5511811023622047
          },
          {
            "duration": 0.1875,
            "durationTicks": 144,
            "midi": 55,
            "name": "G3",
            "ticks": 864,
            "time": 1.125,
            "velocity": 0.5511811023622047
          },
          {
            "duration": 0.1875,
            "durationTicks": 144,
            "midi": 62,
            "name": "D4",
            "ticks": 864,
            "time": 1.125,
            "velocity": 0.5511811023622047
          },
          {
            "duration": 0.1875,
            "durationTicks": 144,
            "midi": 43,
            "name": "G2",
            "ticks": 864,
            "time": 1.125,
            "velocity": 0.5511811023622047
          },
          {
            "duration": 0.1875,
            "durationTicks": 144,
            "midi": 59,
            "name": "B3",
            "ticks": 864,
            "time": 1.125,
            "velocity": 0.5511811023622047
          },
          {
            "duration": 0.1875,
            "durationTicks": 144,
            "midi": 47,
            "name": "B2",
            "ticks": 864,
            "time": 1.125,
            "velocity": 0.5511811023622047
          },
          {
            "duration": 0.1875,
            "durationTicks": 144,
            "midi": 50,
            "name": "D3",
            "ticks": 864,
            "time": 1.125,
            "velocity": 0.5511811023622047
          },
          {
            "duration": 0.1875,
            "durationTicks": 144,
            "midi": 55,
            "name": "G3",
            "ticks": 1008,
            "time": 1.3125,
            "velocity": 0.5511811023622047
          },
          {
            "duration": 0.1875,
            "durationTicks": 144,
            "midi": 47,
            "name": "B2",
            "ticks": 1008,
            "time": 1.3125,
            "velocity": 0.5511811023622047
          },
          {
            "duration": 0.1875,
            "durationTicks": 144,
            "midi": 59,
            "name": "B3",
            "ticks": 1008,
            "time": 1.3125,
            "velocity": 0.5511811023622047
          },
          {
            "duration": 0.1875,
            "durationTicks": 144,
            "midi": 43,
            "name": "G2",
            "ticks": 1008,
            "time": 1.3125,
            "velocity": 0.5511811023622047
          },
          {
            "duration": 0.1875,
            "durationTicks": 144,
            "midi": 62,
            "name": "D4",
            "ticks": 1008,
            "time": 1.3125,
            "velocity": 0.5511811023622047
          },
          {
            "duration": 0.1875,
            "durationTicks": 144,
            "midi": 67,
            "name": "G4",
            "ticks": 1008,
            "time": 1.3125,
            "velocity": 0.5511811023622047
          },
          {
            "duration": 0.1875,
            "durationTicks": 144,
            "midi": 50,
            "name": "D3",
            "ticks": 1008,
            "time": 1.3125,
            "velocity": 0.5511811023622047
          },
          {
            "duration": 0.1875,
            "durationTicks": 144,
            "midi": 55,
            "name": "G3",
            "ticks": 1152,
            "time": 1.5,
            "velocity": 0.5511811023622047
          },
          {
            "duration": 0.1875,
            "durationTicks": 144,
            "midi": 40,
            "name": "E2",
            "ticks": 1152,
            "time": 1.5,
            "velocity": 0.5511811023622047
          },
          {
            "duration": 0.1875,
            "durationTicks": 144,
            "midi": 36,
            "name": "C2",
            "ticks": 1152,
            "time": 1.5,
            "velocity": 0.5511811023622047
          },
          {
            "duration": 0.1875,
            "durationTicks": 144,
            "midi": 60,
            "name": "C4",
            "ticks": 1152,
            "time": 1.5,
            "velocity": 0.5511811023622047
          },
          {
            "duration": 0.1875,
            "durationTicks": 144,
            "midi": 43,
            "name": "G2",
            "ticks": 1152,
            "time": 1.5,
            "velocity": 0.5511811023622047
          },
          {
            "duration": 0.1875,
            "durationTicks": 144,
            "midi": 48,
            "name": "C3",
            "ticks": 1152,
            "time": 1.5,
            "velocity": 0.5511811023622047
          },
          {
            "duration": 0.1875,
            "durationTicks": 144,
            "midi": 52,
            "name": "E3",
            "ticks": 1152,
            "time": 1.5,
            "velocity": 0.5511811023622047
          },
          {
            "duration": 0.1875,
            "durationTicks": 144,
            "midi": 43,
            "name": "G2",
            "ticks": 1440,
            "time": 1.875,
            "velocity": 0.5511811023622047
          },
          {
            "duration": 0.1875,
            "durationTicks": 144,
            "midi": 60,
            "name": "C4",
            "ticks": 1440,
            "time": 1.875,
            "velocity": 0.5511811023622047
          },
          {
            "duration": 0.1875,
            "durationTicks": 144,
            "midi": 48,
            "name": "C3",
            "ticks": 1440,
            "time": 1.875,
            "velocity": 0.5511811023622047
          },
          {
            "duration": 0.1875,
            "durationTicks": 144,
            "midi": 40,
            "name": "E2",
            "ticks": 1440,
            "time": 1.875,
            "velocity": 0.5511811023622047
          },
          {
            "duration": 0.1875,
            "durationTicks": 144,
            "midi": 55,
            "name": "G3",
            "ticks": 1440,
            "time": 1.875,
            "velocity": 0.5511811023622047
          },
          {
            "duration": 0.1875,
            "durationTicks": 144,
            "midi": 36,
            "name": "C2",
            "ticks": 1440,
            "time": 1.875,
            "velocity": 0.5511811023622047
          },
          {
            "duration": 0.1875,
            "durationTicks": 144,
            "midi": 52,
            "name": "E3",
            "ticks": 1440,
            "time": 1.875,
            "velocity": 0.5511811023622047
          },
          {
            "duration": 0.1875,
            "durationTicks": 144,
            "midi": 48,
            "name": "C3",
            "ticks": 1584,
            "time": 2.0625,
            "velocity": 0.5511811023622047
          },
          {
            "duration": 0.1875,
            "durationTicks": 144,
            "midi": 52,
            "name": "E3",
            "ticks": 1584,
            "time": 2.0625,
            "velocity": 0.5511811023622047
          },
          {
            "duration": 0.1875,
            "durationTicks": 144,
            "midi": 55,
            "name": "G3",
            "ticks": 1584,
            "time": 2.0625,
            "velocity": 0.5511811023622047
          },
          {
            "duration": 0.1875,
            "durationTicks": 144,
            "midi": 40,
            "name": "E2",
            "ticks": 1584,
            "time": 2.0625,
            "velocity": 0.5511811023622047
          },
          {
            "duration": 0.1875,
            "durationTicks": 144,
            "midi": 60,
            "name": "C4",
            "ticks": 1584,
            "time": 2.0625,
            "velocity": 0.5511811023622047
          },
          {
            "duration": 0.1875,
            "durationTicks": 144,
            "midi": 36,
            "name": "C2",
            "ticks": 1584,
            "time": 2.0625,
            "velocity": 0.5511811023622047
          },
          {
            "duration": 0.1875,
            "durationTicks": 144,
            "midi": 43,
            "name": "G2",
            "ticks": 1584,
            "time": 2.0625,
            "velocity": 0.5511811023622047
          },
          {
            "duration": 0.1875,
            "durationTicks": 144,
            "midi": 36,
            "name": "C2",
            "ticks": 1872,
            "time": 2.4375,
            "velocity": 0.5511811023622047
          },
          {
            "duration": 0.1875,
            "durationTicks": 144,
            "midi": 48,
            "name": "C3",
            "ticks": 1872,
            "time": 2.4375,
            "velocity": 0.5511811023622047
          },
          {
            "duration": 0.1875,
            "durationTicks": 144,
            "midi": 52,
            "name": "E3",
            "ticks": 1872,
            "time": 2.4375,
            "velocity": 0.5511811023622047
          },
          {
            "duration": 0.1875,
            "durationTicks": 144,
            "midi": 55,
            "name": "G3",
            "ticks": 1872,
            "time": 2.4375,
            "velocity": 0.5511811023622047
          },
          {
            "duration": 0.1875,
            "durationTicks": 144,
            "midi": 43,
            "name": "G2",
            "ticks": 1872,
            "time": 2.4375,
            "velocity": 0.5511811023622047
          },
          {
            "duration": 0.1875,
            "durationTicks": 144,
            "midi": 60,
            "name": "C4",
            "ticks": 1872,
            "time": 2.4375,
            "velocity": 0.5511811023622047
          },
          {
            "duration": 0.1875,
            "durationTicks": 144,
            "midi": 40,
            "name": "E2",
            "ticks": 1872,
            "time": 2.4375,
            "velocity": 0.5511811023622047
          },
          {
            "duration": 0.1875,
            "durationTicks": 144,
            "midi": 43,
            "name": "G2",
            "ticks": 2016,
            "time": 2.625,
            "velocity": 0.5511811023622047
          },
          {
            "duration": 0.1875,
            "durationTicks": 144,
            "midi": 52,
            "name": "E3",
            "ticks": 2016,
            "time": 2.625,
            "velocity": 0.5511811023622047
          },
          {
            "duration": 0.1875,
            "durationTicks": 144,
            "midi": 48,
            "name": "C3",
            "ticks": 2016,
            "time": 2.625,
            "velocity": 0.5511811023622047
          },
          {
            "duration": 0.1875,
            "durationTicks": 144,
            "midi": 36,
            "name": "C2",
            "ticks": 2016,
            "time": 2.625,
            "velocity": 0.5511811023622047
          },
          {
            "duration": 0.1875,
            "durationTicks": 144,
            "midi": 40,
            "name": "E2",
            "ticks": 2016,
            "time": 2.625,
            "velocity": 0.5511811023622047
          },
          {
            "duration": 0.1875,
            "durationTicks": 144,
            "midi": 55,
            "name": "G3",
            "ticks": 2016,
            "time": 2.625,
            "velocity": 0.5511811023622047
          },
          {
            "duration": 0.1875,
            "durationTicks": 144,
            "midi": 60,
            "name": "C4",
            "ticks": 2016,
            "time": 2.625,
            "velocity": 0.5511811023622047
          },
          {
            "duration": 0.1875,
            "durationTicks": 144,
            "midi": 52,
            "name": "E3",
            "ticks": 2160,
            "time": 2.8125,
            "velocity": 0.5511811023622047
          },
          {
            "duration": 0.1875,
            "durationTicks": 144,
            "midi": 48,
            "name": "C3",
            "ticks": 2160,
            "time": 2.8125,
            "velocity": 0.5511811023622047
          },
          {
            "duration": 0.1875,
            "durationTicks": 144,
            "midi": 60,
            "name": "C4",
            "ticks": 2160,
            "time": 2.8125,
            "velocity": 0.5511811023622047
          },
          {
            "duration": 0.1875,
            "durationTicks": 144,
            "midi": 55,
            "name": "G3",
            "ticks": 2160,
            "time": 2.8125,
            "velocity": 0.5511811023622047
          },
          {
            "duration": 0.1875,
            "durationTicks": 144,
            "midi": 43,
            "name": "G2",
            "ticks": 2160,
            "time": 2.8125,
            "velocity": 0.5511811023622047
          },
          {
            "duration": 0.1875,
            "durationTicks": 144,
            "midi": 40,
            "name": "E2",
            "ticks": 2160,
            "time": 2.8125,
            "velocity": 0.5511811023622047
          },
          {
            "duration": 0.1875,
            "durationTicks": 144,
            "midi": 36,
            "name": "C2",
            "ticks": 2160,
            "time": 2.8125,
            "velocity": 0.5511811023622047
          },
          {
            "duration": 0.1875,
            "durationTicks": 144,
            "midi": 36,
            "name": "C2",
            "ticks": 2304,
            "time": 3,
            "velocity": 0.5511811023622047
          },
          {
            "duration": 0.1875,
            "durationTicks": 144,
            "midi": 52,
            "name": "E3",
            "ticks": 2304,
            "time": 3,
            "velocity": 0.5511811023622047
          },
          {
            "duration": 0.1875,
            "durationTicks": 144,
            "midi": 40,
            "name": "E2",
            "ticks": 2304,
            "time": 3,
            "velocity": 0.5511811023622047
          },
          {
            "duration": 0.1875,
            "durationTicks": 144,
            "midi": 60,
            "name": "C4",
            "ticks": 2304,
            "time": 3,
            "velocity": 0.5511811023622047
          },
          {
            "duration": 0.1875,
            "durationTicks": 144,
            "midi": 43,
            "name": "G2",
            "ticks": 2304,
            "time": 3,
            "velocity": 0.5511811023622047
          },
          {
            "duration": 0.1875,
            "durationTicks": 144,
            "midi": 48,
            "name": "C3",
            "ticks": 2304,
            "time": 3,
            "velocity": 0.5511811023622047
          },
          {
            "duration": 0.1875,
            "durationTicks": 144,
            "midi": 55,
            "name": "G3",
            "ticks": 2304,
            "time": 3,
            "velocity": 0.5511811023622047
          },
          {
            "duration": 0.1875,
            "durationTicks": 144,
            "midi": 60,
            "name": "C4",
            "ticks": 2592,
            "time": 3.375,
            "velocity": 0.5511811023622047
          },
          {
            "duration": 0.1875,
            "durationTicks": 144,
            "midi": 36,
            "name": "C2",
            "ticks": 2592,
            "time": 3.375,
            "velocity": 0.5511811023622047
          },
          {
            "duration": 0.1875,
            "durationTicks": 144,
            "midi": 40,
            "name": "E2",
            "ticks": 2592,
            "time": 3.375,
            "velocity": 0.5511811023622047
          },
          {
            "duration": 0.1875,
            "durationTicks": 144,
            "midi": 52,
            "name": "E3",
            "ticks": 2592,
            "time": 3.375,
            "velocity": 0.5511811023622047
          },
          {
            "duration": 0.1875,
            "durationTicks": 144,
            "midi": 55,
            "name": "G3",
            "ticks": 2592,
            "time": 3.375,
            "velocity": 0.5511811023622047
          },
          {
            "duration": 0.1875,
            "durationTicks": 144,
            "midi": 43,
            "name": "G2",
            "ticks": 2592,
            "time": 3.375,
            "velocity": 0.5511811023622047
          },
          {
            "duration": 0.1875,
            "durationTicks": 144,
            "midi": 48,
            "name": "C3",
            "ticks": 2592,
            "time": 3.375,
            "velocity": 0.5511811023622047
          },
          {
            "duration": 0.1875,
            "durationTicks": 144,
            "midi": 36,
            "name": "C2",
            "ticks": 2736,
            "time": 3.5625,
            "velocity": 0.5511811023622047
          },
          {
            "duration": 0.1875,
            "durationTicks": 144,
            "midi": 48,
            "name": "C3",
            "ticks": 2736,
            "time": 3.5625,
            "velocity": 0.5511811023622047
          },
          {
            "duration": 0.1875,
            "durationTicks": 144,
            "midi": 52,
            "name": "E3",
            "ticks": 2736,
            "time": 3.5625,
            "velocity": 0.5511811023622047
          },
          {
            "duration": 0.1875,
            "durationTicks": 144,
            "midi": 43,
            "name": "G2",
            "ticks": 2736,
            "time": 3.5625,
            "velocity": 0.5511811023622047
          },
          {
            "duration": 0.1875,
            "durationTicks": 144,
            "midi": 55,
            "name": "G3",
            "ticks": 2736,
            "time": 3.5625,
            "velocity": 0.5511811023622047
          },
          {
            "duration": 0.1875,
            "durationTicks": 144,
            "midi": 40,
            "name": "E2",
            "ticks": 2736,
            "time": 3.5625,
            "velocity": 0.5511811023622047
          },
          {
            "duration": 0.1875,
            "durationTicks": 144,
            "midi": 60,
            "name": "C4",
            "ticks": 2736,
            "time": 3.5625,
            "velocity": 0.5511811023622047
          },
          {
            "duration": 0.1875,
            "durationTicks": 144,
            "midi": 60,
            "name": "C4",
            "ticks": 3024,
            "time": 3.9375,
            "velocity": 0.5511811023622047
          },
          {
            "duration": 0.1875,
            "durationTicks": 144,
            "midi": 48,
            "name": "C3",
            "ticks": 3024,
            "time": 3.9375,
            "velocity": 0.5511811023622047
          },
          {
            "duration": 0.1875,
            "durationTicks": 144,
            "midi": 43,
            "name": "G2",
            "ticks": 3024,
            "time": 3.9375,
            "velocity": 0.5511811023622047
          },
          {
            "duration": 0.1875,
            "durationTicks": 144,
            "midi": 52,
            "name": "E3",
            "ticks": 3024,
            "time": 3.9375,
            "velocity": 0.5511811023622047
          },
          {
            "duration": 0.1875,
            "durationTicks": 144,
            "midi": 55,
            "name": "G3",
            "ticks": 3024,
            "time": 3.9375,
            "velocity": 0.5511811023622047
          },
          {
            "duration": 0.1875,
            "durationTicks": 144,
            "midi": 36,
            "name": "C2",
            "ticks": 3024,
            "time": 3.9375,
            "velocity": 0.5511811023622047
          },
          {
            "duration": 0.1875,
            "durationTicks": 144,
            "midi": 40,
            "name": "E2",
            "ticks": 3024,
            "time": 3.9375,
            "velocity": 0.5511811023622047
          },
          {
            "duration": 0.1875,
            "durationTicks": 144,
            "midi": 48,
            "name": "C3",
            "ticks": 3168,
            "time": 4.125,
            "velocity": 0.5511811023622047
          },
          {
            "duration": 0.1875,
            "durationTicks": 144,
            "midi": 40,
            "name": "E2",
            "ticks": 3168,
            "time": 4.125,
            "velocity": 0.5511811023622047
          },
          {
            "duration": 0.1875,
            "durationTicks": 144,
            "midi": 55,
            "name": "G3",
            "ticks": 3168,
            "time": 4.125,
            "velocity": 0.5511811023622047
          },
          {
            "duration": 0.1875,
            "durationTicks": 144,
            "midi": 52,
            "name": "E3",
            "ticks": 3168,
            "time": 4.125,
            "velocity": 0.5511811023622047
          },
          {
            "duration": 0.1875,
            "durationTicks": 144,
            "midi": 60,
            "name": "C4",
            "ticks": 3168,
            "time": 4.125,
            "velocity": 0.5511811023622047
          },
          {
            "duration": 0.1875,
            "durationTicks": 144,
            "midi": 43,
            "name": "G2",
            "ticks": 3168,
            "time": 4.125,
            "velocity": 0.5511811023622047
          },
          {
            "duration": 0.1875,
            "durationTicks": 144,
            "midi": 36,
            "name": "C2",
            "ticks": 3168,
            "time": 4.125,
            "velocity": 0.5511811023622047
          },
          {
            "duration": 0.1875,
            "durationTicks": 144,
            "midi": 52,
            "name": "E3",
            "ticks": 3312,
            "time": 4.3125,
            "velocity": 0.5511811023622047
          },
          {
            "duration": 0.1875,
            "durationTicks": 144,
            "midi": 36,
            "name": "C2",
            "ticks": 3312,
            "time": 4.3125,
            "velocity": 0.5511811023622047
          },
          {
            "duration": 0.1875,
            "durationTicks": 144,
            "midi": 48,
            "name": "C3",
            "ticks": 3312,
            "time": 4.3125,
            "velocity": 0.5511811023622047
          },
          {
            "duration": 0.1875,
            "durationTicks": 144,
            "midi": 55,
            "name": "G3",
            "ticks": 3312,
            "time": 4.3125,
            "velocity": 0.5511811023622047
          },
          {
            "duration": 0.1875,
            "durationTicks": 144,
            "midi": 43,
            "name": "G2",
            "ticks": 3312,
            "time": 4.3125,
            "velocity": 0.5511811023622047
          },
          {
            "duration": 0.1875,
            "durationTicks": 144,
            "midi": 40,
            "name": "E2",
            "ticks": 3312,
            "time": 4.3125,
            "velocity": 0.5511811023622047
          },
          {
            "duration": 0.1875,
            "durationTicks": 144,
            "midi": 60,
            "name": "C4",
            "ticks": 3312,
            "time": 4.3125,
            "velocity": 0.5511811023622047
          },
          {
            "duration": 0.1875,
            "durationTicks": 144,
            "midi": 62,
            "name": "D4",
            "ticks": 3456,
            "time": 4.5,
            "velocity": 0.5511811023622047
          },
          {
            "duration": 0.1875,
            "durationTicks": 144,
            "midi": 54,
            "name": "F#3",
            "ticks": 3456,
            "time": 4.5,
            "velocity": 0.5511811023622047
          },
          {
            "duration": 0.1875,
            "durationTicks": 144,
            "midi": 50,
            "name": "D3",
            "ticks": 3456,
            "time": 4.5,
            "velocity": 0.5511811023622047
          },
          {
            "duration": 0.1875,
            "durationTicks": 144,
            "midi": 45,
            "name": "A2",
            "ticks": 3456,
            "time": 4.5,
            "velocity": 0.5511811023622047
          },
          {
            "duration": 0.1875,
            "durationTicks": 144,
            "midi": 38,
            "name": "D2",
            "ticks": 3456,
            "time": 4.5,
            "velocity": 0.5511811023622047
          },
          {
            "duration": 0.1875,
            "durationTicks": 144,
            "midi": 42,
            "name": "F#2",
            "ticks": 3456,
            "time": 4.5,
            "velocity": 0.5511811023622047
          },
          {
            "duration": 0.1875,
            "durationTicks": 144,
            "midi": 57,
            "name": "A3",
            "ticks": 3456,
            "time": 4.5,
            "velocity": 0.5511811023622047
          },
          {
            "duration": 0.1875,
            "durationTicks": 144,
            "midi": 42,
            "name": "F#2",
            "ticks": 3744,
            "time": 4.875,
            "velocity": 0.5511811023622047
          },
          {
            "duration": 0.1875,
            "durationTicks": 144,
            "midi": 54,
            "name": "F#3",
            "ticks": 3744,
            "time": 4.875,
            "velocity": 0.5511811023622047
          },
          {
            "duration": 0.1875,
            "durationTicks": 144,
            "midi": 50,
            "name": "D3",
            "ticks": 3744,
            "time": 4.875,
            "velocity": 0.5511811023622047
          },
          {
            "duration": 0.1875,
            "durationTicks": 144,
            "midi": 45,
            "name": "A2",
            "ticks": 3744,
            "time": 4.875,
            "velocity": 0.5511811023622047
          },
          {
            "duration": 0.1875,
            "durationTicks": 144,
            "midi": 38,
            "name": "D2",
            "ticks": 3744,
            "time": 4.875,
            "velocity": 0.5511811023622047
          },
          {
            "duration": 0.1875,
            "durationTicks": 144,
            "midi": 57,
            "name": "A3",
            "ticks": 3744,
            "time": 4.875,
            "velocity": 0.5511811023622047
          },
          {
            "duration": 0.1875,
            "durationTicks": 144,
            "midi": 62,
            "name": "D4",
            "ticks": 3744,
            "time": 4.875,
            "velocity": 0.5511811023622047
          },
          {
            "duration": 0.1875,
            "durationTicks": 144,
            "midi": 59,
            "name": "B3",
            "ticks": 4032,
            "time": 5.25,
            "velocity": 0.5511811023622047
          },
          {
            "duration": 0.1875,
            "durationTicks": 144,
            "midi": 44,
            "name": "G#2",
            "ticks": 4032,
            "time": 5.25,
            "velocity": 0.5511811023622047
          },
          {
            "duration": 0.1875,
            "durationTicks": 144,
            "midi": 40,
            "name": "E2",
            "ticks": 4032,
            "time": 5.25,
            "velocity": 0.5511811023622047
          },
          {
            "duration": 0.1875,
            "durationTicks": 144,
            "midi": 56,
            "name": "G#3",
            "ticks": 4032,
            "time": 5.25,
            "velocity": 0.5511811023622047
          },
          {
            "duration": 0.1875,
            "durationTicks": 144,
            "midi": 52,
            "name": "E3",
            "ticks": 4032,
            "time": 5.25,
            "velocity": 0.5511811023622047
          },
          {
            "duration": 0.1875,
            "durationTicks": 144,
            "midi": 64,
            "name": "E4",
            "ticks": 4032,
            "time": 5.25,
            "velocity": 0.5511811023622047
          },
          {
            "duration": 0.1875,
            "durationTicks": 144,
            "midi": 47,
            "name": "B2",
            "ticks": 4032,
            "time": 5.25,
            "velocity": 0.5511811023622047
          },
          {
            "duration": 0.1875,
            "durationTicks": 144,
            "midi": 47,
            "name": "B2",
            "ticks": 4320,
            "time": 5.625,
            "velocity": 0.5511811023622047
          },
          {
            "duration": 0.1875,
            "durationTicks": 144,
            "midi": 56,
            "name": "G#3",
            "ticks": 4320,
            "time": 5.625,
            "velocity": 0.5511811023622047
          },
          {
            "duration": 0.1875,
            "durationTicks": 144,
            "midi": 40,
            "name": "E2",
            "ticks": 4320,
            "time": 5.625,
            "velocity": 0.5511811023622047
          },
          {
            "duration": 0.1875,
            "durationTicks": 144,
            "midi": 59,
            "name": "B3",
            "ticks": 4320,
            "time": 5.625,
            "velocity": 0.5511811023622047
          },
          {
            "duration": 0.1875,
            "durationTicks": 144,
            "midi": 44,
            "name": "G#2",
            "ticks": 4320,
            "time": 5.625,
            "velocity": 0.5511811023622047
          },
          {
            "duration": 0.1875,
            "durationTicks": 144,
            "midi": 64,
            "name": "E4",
            "ticks": 4320,
            "time": 5.625,
            "velocity": 0.5511811023622047
          },
          {
            "duration": 0.1875,
            "durationTicks": 144,
            "midi": 52,
            "name": "E3",
            "ticks": 4320,
            "time": 5.625,
            "velocity": 0.5511811023622047
          },
          {
            "duration": 0.1875,
            "durationTicks": 144,
            "midi": 59,
            "name": "B3",
            "ticks": 4464,
            "time": 5.8125,
            "velocity": 0.5511811023622047
          },
          {
            "duration": 0.1875,
            "durationTicks": 144,
            "midi": 56,
            "name": "G#3",
            "ticks": 4464,
            "time": 5.8125,
            "velocity": 0.5511811023622047
          },
          {
            "duration": 0.1875,
            "durationTicks": 144,
            "midi": 64,
            "name": "E4",
            "ticks": 4464,
            "time": 5.8125,
            "velocity": 0.5511811023622047
          },
          {
            "duration": 0.1875,
            "durationTicks": 144,
            "midi": 44,
            "name": "G#2",
            "ticks": 4464,
            "time": 5.8125,
            "velocity": 0.5511811023622047
          },
          {
            "duration": 0.1875,
            "durationTicks": 144,
            "midi": 40,
            "name": "E2",
            "ticks": 4464,
            "time": 5.8125,
            "velocity": 0.5511811023622047
          },
          {
            "duration": 0.1875,
            "durationTicks": 144,
            "midi": 47,
            "name": "B2",
            "ticks": 4464,
            "time": 5.8125,
            "velocity": 0.5511811023622047
          },
          {
            "duration": 0.1875,
            "durationTicks": 144,
            "midi": 52,
            "name": "E3",
            "ticks": 4464,
            "time": 5.8125,
            "velocity": 0.5511811023622047
          },
          {
            "duration": 0.1875,
            "durationTicks": 144,
            "midi": 44,
            "name": "G#2",
            "ticks": 4752,
            "time": 6.1875,
            "velocity": 0.5511811023622047
          },
          {
            "duration": 0.1875,
            "durationTicks": 144,
            "midi": 59,
            "name": "B3",
            "ticks": 4752,
            "time": 6.1875,
            "velocity": 0.5511811023622047
          },
          {
            "duration": 0.1875,
            "durationTicks": 144,
            "midi": 56,
            "name": "G#3",
            "ticks": 4752,
            "time": 6.1875,
            "velocity": 0.5511811023622047
          },
          {
            "duration": 0.1875,
            "durationTicks": 144,
            "midi": 64,
            "name": "E4",
            "ticks": 4752,
            "time": 6.1875,
            "velocity": 0.5511811023622047
          },
          {
            "duration": 0.1875,
            "durationTicks": 144,
            "midi": 40,
            "name": "E2",
            "ticks": 4752,
            "time": 6.1875,
            "velocity": 0.5511811023622047
          },
          {
            "duration": 0.1875,
            "durationTicks": 144,
            "midi": 47,
            "name": "B2",
            "ticks": 4752,
            "time": 6.1875,
            "velocity": 0.5511811023622047
          },
          {
            "duration": 0.1875,
            "durationTicks": 144,
            "midi": 52,
            "name": "E3",
            "ticks": 4752,
            "time": 6.1875,
            "velocity": 0.5511811023622047
          },
          {
            "duration": 0.1875,
            "durationTicks": 144,
            "midi": 47,
            "name": "B2",
            "ticks": 4896,
            "time": 6.375,
            "velocity": 0.5511811023622047
          },
          {
            "duration": 0.1875,
            "durationTicks": 144,
            "midi": 59,
            "name": "B3",
            "ticks": 4896,
            "time": 6.375,
            "velocity": 0.5511811023622047
          },
          {
            "duration": 0.1875,
            "durationTicks": 144,
            "midi": 64,
            "name": "E4",
            "ticks": 4896,
            "time": 6.375,
            "velocity": 0.5511811023622047
          },
          {
            "duration": 0.1875,
            "durationTicks": 144,
            "midi": 52,
            "name": "E3",
            "ticks": 4896,
            "time": 6.375,
            "velocity": 0.5511811023622047
          },
          {
            "duration": 0.1875,
            "durationTicks": 144,
            "midi": 40,
            "name": "E2",
            "ticks": 4896,
            "time": 6.375,
            "velocity": 0.5511811023622047
          },
          {
            "duration": 0.1875,
            "durationTicks": 144,
            "midi": 44,
            "name": "G#2",
            "ticks": 4896,
            "time": 6.375,
            "velocity": 0.5511811023622047
          },
          {
            "duration": 0.1875,
            "durationTicks": 144,
            "midi": 56,
            "name": "G#3",
            "ticks": 4896,
            "time": 6.375,
            "velocity": 0.5511811023622047
          },
          {
            "duration": 0.1875,
            "durationTicks": 144,
            "midi": 64,
            "name": "E4",
            "ticks": 5040,
            "time": 6.5625,
            "velocity": 0.5511811023622047
          },
          {
            "duration": 0.1875,
            "durationTicks": 144,
            "midi": 44,
            "name": "G#2",
            "ticks": 5040,
            "time": 6.5625,
            "velocity": 0.5511811023622047
          },
          {
            "duration": 0.1875,
            "durationTicks": 144,
            "midi": 40,
            "name": "E2",
            "ticks": 5040,
            "time": 6.5625,
            "velocity": 0.5511811023622047
          },
          {
            "duration": 0.1875,
            "durationTicks": 144,
            "midi": 47,
            "name": "B2",
            "ticks": 5040,
            "time": 6.5625,
            "velocity": 0.5511811023622047
          },
          {
            "duration": 0.1875,
            "durationTicks": 144,
            "midi": 59,
            "name": "B3",
            "ticks": 5040,
            "time": 6.5625,
            "velocity": 0.5511811023622047
          },
          {
            "duration": 0.1875,
            "durationTicks": 144,
            "midi": 52,
            "name": "E3",
            "ticks": 5040,
            "time": 6.5625,
            "velocity": 0.5511811023622047
          },
          {
            "duration": 0.1875,
            "durationTicks": 144,
            "midi": 56,
            "name": "G#3",
            "ticks": 5040,
            "time": 6.5625,
            "velocity": 0.5511811023622047
          },
          {
            "duration": 0.1875,
            "durationTicks": 144,
            "midi": 44,
            "name": "G#2",
            "ticks": 5184,
            "time": 6.75,
            "velocity": 0.5511811023622047
          },
          {
            "duration": 0.1875,
            "durationTicks": 144,
            "midi": 40,
            "name": "E2",
            "ticks": 5184,
            "time": 6.75,
            "velocity": 0.5511811023622047
          },
          {
            "duration": 0.1875,
            "durationTicks": 144,
            "midi": 59,
            "name": "B3",
            "ticks": 5184,
            "time": 6.75,
            "velocity": 0.5511811023622047
          },
          {
            "duration": 0.1875,
            "durationTicks": 144,
            "midi": 56,
            "name": "G#3",
            "ticks": 5184,
            "time": 6.75,
            "velocity": 0.5511811023622047
          },
          {
            "duration": 0.1875,
            "durationTicks": 144,
            "midi": 47,
            "name": "B2",
            "ticks": 5184,
            "time": 6.75,
            "velocity": 0.5511811023622047
          },
          {
            "duration": 0.1875,
            "durationTicks": 144,
            "midi": 52,
            "name": "E3",
            "ticks": 5184,
            "time": 6.75,
            "velocity": 0.5511811023622047
          },
          {
            "duration": 0.1875,
            "durationTicks": 144,
            "midi": 64,
            "name": "E4",
            "ticks": 5184,
            "time": 6.75,
            "velocity": 0.5511811023622047
          },
          {
            "duration": 0.1875,
            "durationTicks": 144,
            "midi": 59,
            "name": "B3",
            "ticks": 5472,
            "time": 7.125,
            "velocity": 0.5511811023622047
          },
          {
            "duration": 0.1875,
            "durationTicks": 144,
            "midi": 56,
            "name": "G#3",
            "ticks": 5472,
            "time": 7.125,
            "velocity": 0.5511811023622047
          },
          {
            "duration": 0.1875,
            "durationTicks": 144,
            "midi": 44,
            "name": "G#2",
            "ticks": 5472,
            "time": 7.125,
            "velocity": 0.5511811023622047
          },
          {
            "duration": 0.1875,
            "durationTicks": 144,
            "midi": 52,
            "name": "E3",
            "ticks": 5472,
            "time": 7.125,
            "velocity": 0.5511811023622047
          },
          {
            "duration": 0.1875,
            "durationTicks": 144,
            "midi": 47,
            "name": "B2",
            "ticks": 5472,
            "time": 7.125,
            "velocity": 0.5511811023622047
          },
          {
            "duration": 0.1875,
            "durationTicks": 144,
            "midi": 40,
            "name": "E2",
            "ticks": 5472,
            "time": 7.125,
            "velocity": 0.5511811023622047
          },
          {
            "duration": 0.1875,
            "durationTicks": 144,
            "midi": 64,
            "name": "E4",
            "ticks": 5472,
            "time": 7.125,
            "velocity": 0.5511811023622047
          },
          {
            "duration": 0.1875,
            "durationTicks": 144,
            "midi": 52,
            "name": "E3",
            "ticks": 5616,
            "time": 7.3125,
            "velocity": 0.5511811023622047
          },
          {
            "duration": 0.1875,
            "durationTicks": 144,
            "midi": 44,
            "name": "G#2",
            "ticks": 5616,
            "time": 7.3125,
            "velocity": 0.5511811023622047
          },
          {
            "duration": 0.1875,
            "durationTicks": 144,
            "midi": 40,
            "name": "E2",
            "ticks": 5616,
            "time": 7.3125,
            "velocity": 0.5511811023622047
          },
          {
            "duration": 0.1875,
            "durationTicks": 144,
            "midi": 64,
            "name": "E4",
            "ticks": 5616,
            "time": 7.3125,
            "velocity": 0.5511811023622047
          },
          {
            "duration": 0.1875,
            "durationTicks": 144,
            "midi": 59,
            "name": "B3",
            "ticks": 5616,
            "time": 7.3125,
            "velocity": 0.5511811023622047
          },
          {
            "duration": 0.1875,
            "durationTicks": 144,
            "midi": 56,
            "name": "G#3",
            "ticks": 5616,
            "time": 7.3125,
            "velocity": 0.5511811023622047
          },
          {
            "duration": 0.1875,
            "durationTicks": 144,
            "midi": 47,
            "name": "B2",
            "ticks": 5616,
            "time": 7.3125,
            "velocity": 0.5511811023622047
          },
          {
            "duration": 0.1875,
            "durationTicks": 144,
            "midi": 52,
            "name": "E3",
            "ticks": 5904,
            "time": 7.6875,
            "velocity": 0.5511811023622047
          },
          {
            "duration": 0.1875,
            "durationTicks": 144,
            "midi": 56,
            "name": "G#3",
            "ticks": 5904,
            "time": 7.6875,
            "velocity": 0.5511811023622047
          },
          {
            "duration": 0.1875,
            "durationTicks": 144,
            "midi": 44,
            "name": "G#2",
            "ticks": 5904,
            "time": 7.6875,
            "velocity": 0.5511811023622047
          },
          {
            "duration": 0.1875,
            "durationTicks": 144,
            "midi": 64,
            "name": "E4",
            "ticks": 5904,
            "time": 7.6875,
            "velocity": 0.5511811023622047
          },
          {
            "duration": 0.1875,
            "durationTicks": 144,
            "midi": 40,
            "name": "E2",
            "ticks": 5904,
            "time": 7.6875,
            "velocity": 0.5511811023622047
          },
          {
            "duration": 0.1875,
            "durationTicks": 144,
            "midi": 47,
            "name": "B2",
            "ticks": 5904,
            "time": 7.6875,
            "velocity": 0.5511811023622047
          },
          {
            "duration": 0.1875,
            "durationTicks": 144,
            "midi": 59,
            "name": "B3",
            "ticks": 5904,
            "time": 7.6875,
            "velocity": 0.5511811023622047
          },
          {
            "duration": 0.1875,
            "durationTicks": 144,
            "midi": 44,
            "name": "G#2",
            "ticks": 6048,
            "time": 7.875,
            "velocity": 0.5511811023622047
          },
          {
            "duration": 0.1875,
            "durationTicks": 144,
            "midi": 64,
            "name": "E4",
            "ticks": 6048,
            "time": 7.875,
            "velocity": 0.5511811023622047
          },
          {
            "duration": 0.1875,
            "durationTicks": 144,
            "midi": 56,
            "name": "G#3",
            "ticks": 6048,
            "time": 7.875,
            "velocity": 0.5511811023622047
          },
          {
            "duration": 0.1875,
            "durationTicks": 144,
            "midi": 47,
            "name": "B2",
            "ticks": 6048,
            "time": 7.875,
            "velocity": 0.5511811023622047
          },
          {
            "duration": 0.1875,
            "durationTicks": 144,
            "midi": 59,
            "name": "B3",
            "ticks": 6048,
            "time": 7.875,
            "velocity": 0.5511811023622047
          },
          {
            "duration": 0.1875,
            "durationTicks": 144,
            "midi": 52,
            "name": "E3",
            "ticks": 6048,
            "time": 7.875,
            "velocity": 0.5511811023622047
          },
          {
            "duration": 0.1875,
            "durationTicks": 144,
            "midi": 40,
            "name": "E2",
            "ticks": 6048,
            "time": 7.875,
            "velocity": 0.5511811023622047
          },
          {
            "duration": 0.1875,
            "durationTicks": 144,
            "midi": 40,
            "name": "E2",
            "ticks": 6192,
            "time": 8.0625,
            "velocity": 0.5511811023622047
          },
          {
            "duration": 0.1875,
            "durationTicks": 144,
            "midi": 64,
            "name": "E4",
            "ticks": 6192,
            "time": 8.0625,
            "velocity": 0.5511811023622047
          },
          {
            "duration": 0.1875,
            "durationTicks": 144,
            "midi": 47,
            "name": "B2",
            "ticks": 6192,
            "time": 8.0625,
            "velocity": 0.5511811023622047
          },
          {
            "duration": 0.1875,
            "durationTicks": 144,
            "midi": 56,
            "name": "G#3",
            "ticks": 6192,
            "time": 8.0625,
            "velocity": 0.5511811023622047
          },
          {
            "duration": 0.1875,
            "durationTicks": 144,
            "midi": 59,
            "name": "B3",
            "ticks": 6192,
            "time": 8.0625,
            "velocity": 0.5511811023622047
          },
          {
            "duration": 0.1875,
            "durationTicks": 144,
            "midi": 52,
            "name": "E3",
            "ticks": 6192,
            "time": 8.0625,
            "velocity": 0.5511811023622047
          },
          {
            "duration": 0.1875,
            "durationTicks": 144,
            "midi": 44,
            "name": "G#2",
            "ticks": 6192,
            "time": 8.0625,
            "velocity": 0.5511811023622047
          },
          {
            "duration": 0.1875,
            "durationTicks": 144,
            "midi": 62,
            "name": "D4",
            "ticks": 6336,
            "time": 8.25,
            "velocity": 0.5511811023622047
          },
          {
            "duration": 0.1875,
            "durationTicks": 144,
            "midi": 50,
            "name": "D3",
            "ticks": 6336,
            "time": 8.25,
            "velocity": 0.5511811023622047
          },
          {
            "duration": 0.1875,
            "durationTicks": 144,
            "midi": 67,
            "name": "G4",
            "ticks": 6336,
            "time": 8.25,
            "velocity": 0.5511811023622047
          },
          {
            "duration": 0.1875,
            "durationTicks": 144,
            "midi": 43,
            "name": "G2",
            "ticks": 6336,
            "time": 8.25,
            "velocity": 0.5511811023622047
          },
          {
            "duration": 0.1875,
            "durationTicks": 144,
            "midi": 55,
            "name": "G3",
            "ticks": 6336,
            "time": 8.25,
            "velocity": 0.5511811023622047
          },
          {
            "duration": 0.1875,
            "durationTicks": 144,
            "midi": 47,
            "name": "B2",
            "ticks": 6336,
            "time": 8.25,
            "velocity": 0.5511811023622047
          },
          {
            "duration": 0.1875,
            "durationTicks": 144,
            "midi": 59,
            "name": "B3",
            "ticks": 6336,
            "time": 8.25,
            "velocity": 0.5511811023622047
          },
          {
            "duration": 0.1875,
            "durationTicks": 144,
            "midi": 55,
            "name": "G3",
            "ticks": 6624,
            "time": 8.625,
            "velocity": 0.5511811023622047
          },
          {
            "duration": 0.1875,
            "durationTicks": 144,
            "midi": 59,
            "name": "B3",
            "ticks": 6624,
            "time": 8.625,
            "velocity": 0.5511811023622047
          },
          {
            "duration": 0.1875,
            "durationTicks": 144,
            "midi": 50,
            "name": "D3",
            "ticks": 6624,
            "time": 8.625,
            "velocity": 0.5511811023622047
          },
          {
            "duration": 0.1875,
            "durationTicks": 144,
            "midi": 47,
            "name": "B2",
            "ticks": 6624,
            "time": 8.625,
            "velocity": 0.5511811023622047
          },
          {
            "duration": 0.1875,
            "durationTicks": 144,
            "midi": 67,
            "name": "G4",
            "ticks": 6624,
            "time": 8.625,
            "velocity": 0.5511811023622047
          },
          {
            "duration": 0.1875,
            "durationTicks": 144,
            "midi": 43,
            "name": "G2",
            "ticks": 6624,
            "time": 8.625,
            "velocity": 0.5511811023622047
          },
          {
            "duration": 0.1875,
            "durationTicks": 144,
            "midi": 62,
            "name": "D4",
            "ticks": 6624,
            "time": 8.625,
            "velocity": 0.5511811023622047
          },
          {
            "duration": 0.1875,
            "durationTicks": 144,
            "midi": 47,
            "name": "B2",
            "ticks": 6768,
            "time": 8.8125,
            "velocity": 0.5511811023622047
          },
          {
            "duration": 0.1875,
            "durationTicks": 144,
            "midi": 62,
            "name": "D4",
            "ticks": 6768,
            "time": 8.8125,
            "velocity": 0.5511811023622047
          },
          {
            "duration": 0.1875,
            "durationTicks": 144,
            "midi": 50,
            "name": "D3",
            "ticks": 6768,
            "time": 8.8125,
            "velocity": 0.5511811023622047
          },
          {
            "duration": 0.1875,
            "durationTicks": 144,
            "midi": 59,
            "name": "B3",
            "ticks": 6768,
            "time": 8.8125,
            "velocity": 0.5511811023622047
          },
          {
            "duration": 0.1875,
            "durationTicks": 144,
            "midi": 43,
            "name": "G2",
            "ticks": 6768,
            "time": 8.8125,
            "velocity": 0.5511811023622047
          },
          {
            "duration": 0.1875,
            "durationTicks": 144,
            "midi": 67,
            "name": "G4",
            "ticks": 6768,
            "time": 8.8125,
            "velocity": 0.5511811023622047
          },
          {
            "duration": 0.1875,
            "durationTicks": 144,
            "midi": 55,
            "name": "G3",
            "ticks": 6768,
            "time": 8.8125,
            "velocity": 0.5511811023622047
          },
          {
            "duration": 0.1875,
            "durationTicks": 144,
            "midi": 47,
            "name": "B2",
            "ticks": 7056,
            "time": 9.1875,
            "velocity": 0.5511811023622047
          },
          {
            "duration": 0.1875,
            "durationTicks": 144,
            "midi": 67,
            "name": "G4",
            "ticks": 7056,
            "time": 9.1875,
            "velocity": 0.5511811023622047
          },
          {
            "duration": 0.1875,
            "durationTicks": 144,
            "midi": 55,
            "name": "G3",
            "ticks": 7056,
            "time": 9.1875,
            "velocity": 0.5511811023622047
          },
          {
            "duration": 0.1875,
            "durationTicks": 144,
            "midi": 43,
            "name": "G2",
            "ticks": 7056,
            "time": 9.1875,
            "velocity": 0.5511811023622047
          },
          {
            "duration": 0.1875,
            "durationTicks": 144,
            "midi": 50,
            "name": "D3",
            "ticks": 7056,
            "time": 9.1875,
            "velocity": 0.5511811023622047
          },
          {
            "duration": 0.1875,
            "durationTicks": 144,
            "midi": 59,
            "name": "B3",
            "ticks": 7056,
            "time": 9.1875,
            "velocity": 0.5511811023622047
          },
          {
            "duration": 0.1875,
            "durationTicks": 144,
            "midi": 62,
            "name": "D4",
            "ticks": 7056,
            "time": 9.1875,
            "velocity": 0.5511811023622047
          },
          {
            "duration": 0.1875,
            "durationTicks": 144,
            "midi": 47,
            "name": "B2",
            "ticks": 7200,
            "time": 9.375,
            "velocity": 0.5511811023622047
          },
          {
            "duration": 0.1875,
            "durationTicks": 144,
            "midi": 43,
            "name": "G2",
            "ticks": 7200,
            "time": 9.375,
            "velocity": 0.5511811023622047
          },
          {
            "duration": 0.1875,
            "durationTicks": 144,
            "midi": 55,
            "name": "G3",
            "ticks": 7200,
            "time": 9.375,
            "velocity": 0.5511811023622047
          },
          {
            "duration": 0.1875,
            "durationTicks": 144,
            "midi": 59,
            "name": "B3",
            "ticks": 7200,
            "time": 9.375,
            "velocity": 0.5511811023622047
          },
          {
            "duration": 0.1875,
            "durationTicks": 144,
            "midi": 62,
            "name": "D4",
            "ticks": 7200,
            "time": 9.375,
            "velocity": 0.5511811023622047
          },
          {
            "duration": 0.1875,
            "durationTicks": 144,
            "midi": 67,
            "name": "G4",
            "ticks": 7200,
            "time": 9.375,
            "velocity": 0.5511811023622047
          },
          {
            "duration": 0.1875,
            "durationTicks": 144,
            "midi": 50,
            "name": "D3",
            "ticks": 7200,
            "time": 9.375,
            "velocity": 0.5511811023622047
          },
          {
            "duration": 0.1875,
            "durationTicks": 144,
            "midi": 47,
            "name": "B2",
            "ticks": 7344,
            "time": 9.5625,
            "velocity": 0.5511811023622047
          },
          {
            "duration": 0.1875,
            "durationTicks": 144,
            "midi": 43,
            "name": "G2",
            "ticks": 7344,
            "time": 9.5625,
            "velocity": 0.5511811023622047
          },
          {
            "duration": 0.1875,
            "durationTicks": 144,
            "midi": 55,
            "name": "G3",
            "ticks": 7344,
            "time": 9.5625,
            "velocity": 0.5511811023622047
          },
          {
            "duration": 0.1875,
            "durationTicks": 144,
            "midi": 59,
            "name": "B3",
            "ticks": 7344,
            "time": 9.5625,
            "velocity": 0.5511811023622047
          },
          {
            "duration": 0.1875,
            "durationTicks": 144,
            "midi": 67,
            "name": "G4",
            "ticks": 7344,
            "time": 9.5625,
            "velocity": 0.5511811023622047
          },
          {
            "duration": 0.1875,
            "durationTicks": 144,
            "midi": 62,
            "name": "D4",
            "ticks": 7344,
            "time": 9.5625,
            "velocity": 0.5511811023622047
          },
          {
            "duration": 0.1875,
            "durationTicks": 144,
            "midi": 50,
            "name": "D3",
            "ticks": 7344,
            "time": 9.5625,
            "velocity": 0.5511811023622047
          },
          {
            "duration": 0.1875,
            "durationTicks": 144,
            "midi": 52,
            "name": "E3",
            "ticks": 7488,
            "time": 9.75,
            "velocity": 0.5511811023622047
          },
          {
            "duration": 0.1875,
            "durationTicks": 144,
            "midi": 55,
            "name": "G3",
            "ticks": 7488,
            "time": 9.75,
            "velocity": 0.5511811023622047
          },
          {
            "duration": 0.1875,
            "durationTicks": 144,
            "midi": 36,
            "name": "C2",
            "ticks": 7488,
            "time": 9.75,
            "velocity": 0.5511811023622047
          },
          {
            "duration": 0.1875,
            "durationTicks": 144,
            "midi": 40,
            "name": "E2",
            "ticks": 7488,
            "time": 9.75,
            "velocity": 0.5511811023622047
          },
          {
            "duration": 0.1875,
            "durationTicks": 144,
            "midi": 48,
            "name": "C3",
            "ticks": 7488,
            "time": 9.75,
            "velocity": 0.5511811023622047
          },
          {
            "duration": 0.1875,
            "durationTicks": 144,
            "midi": 60,
            "name": "C4",
            "ticks": 7488,
            "time": 9.75,
            "velocity": 0.5511811023622047
          },
          {
            "duration": 0.1875,
            "durationTicks": 144,
            "midi": 43,
            "name": "G2",
            "ticks": 7488,
            "time": 9.75,
            "velocity": 0.5511811023622047
          },
          {
            "duration": 0.1875,
            "durationTicks": 144,
            "midi": 36,
            "name": "C2",
            "ticks": 7776,
            "time": 10.125,
            "velocity": 0.5511811023622047
          },
          {
            "duration": 0.1875,
            "durationTicks": 144,
            "midi": 52,
            "name": "E3",
            "ticks": 7776,
            "time": 10.125,
            "velocity": 0.5511811023622047
          },
          {
            "duration": 0.1875,
            "durationTicks": 144,
            "midi": 40,
            "name": "E2",
            "ticks": 7776,
            "time": 10.125,
            "velocity": 0.5511811023622047
          },
          {
            "duration": 0.1875,
            "durationTicks": 144,
            "midi": 48,
            "name": "C3",
            "ticks": 7776,
            "time": 10.125,
            "velocity": 0.5511811023622047
          },
          {
            "duration": 0.1875,
            "durationTicks": 144,
            "midi": 43,
            "name": "G2",
            "ticks": 7776,
            "time": 10.125,
            "velocity": 0.5511811023622047
          },
          {
            "duration": 0.1875,
            "durationTicks": 144,
            "midi": 60,
            "name": "C4",
            "ticks": 7776,
            "time": 10.125,
            "velocity": 0.5511811023622047
          },
          {
            "duration": 0.1875,
            "durationTicks": 144,
            "midi": 55,
            "name": "G3",
            "ticks": 7776,
            "time": 10.125,
            "velocity": 0.5511811023622047
          },
          {
            "duration": 0.1875,
            "durationTicks": 144,
            "midi": 43,
            "name": "G2",
            "ticks": 7920,
            "time": 10.3125,
            "velocity": 0.5511811023622047
          },
          {
            "duration": 0.1875,
            "durationTicks": 144,
            "midi": 40,
            "name": "E2",
            "ticks": 7920,
            "time": 10.3125,
            "velocity": 0.5511811023622047
          },
          {
            "duration": 0.1875,
            "durationTicks": 144,
            "midi": 60,
            "name": "C4",
            "ticks": 7920,
            "time": 10.3125,
            "velocity": 0.5511811023622047
          },
          {
            "duration": 0.1875,
            "durationTicks": 144,
            "midi": 55,
            "name": "G3",
            "ticks": 7920,
            "time": 10.3125,
            "velocity": 0.5511811023622047
          },
          {
            "duration": 0.1875,
            "durationTicks": 144,
            "midi": 36,
            "name": "C2",
            "ticks": 7920,
            "time": 10.3125,
            "velocity": 0.5511811023622047
          },
          {
            "duration": 0.1875,
            "durationTicks": 144,
            "midi": 48,
            "name": "C3",
            "ticks": 7920,
            "time": 10.3125,
            "velocity": 0.5511811023622047
          },
          {
            "duration": 0.1875,
            "durationTicks": 144,
            "midi": 52,
            "name": "E3",
            "ticks": 7920,
            "time": 10.3125,
            "velocity": 0.5511811023622047
          },
          {
            "duration": 0.1875,
            "durationTicks": 144,
            "midi": 40,
            "name": "E2",
            "ticks": 8208,
            "time": 10.6875,
            "velocity": 0.5511811023622047
          },
          {
            "duration": 0.1875,
            "durationTicks": 144,
            "midi": 43,
            "name": "G2",
            "ticks": 8208,
            "time": 10.6875,
            "velocity": 0.5511811023622047
          },
          {
            "duration": 0.1875,
            "durationTicks": 144,
            "midi": 52,
            "name": "E3",
            "ticks": 8208,
            "time": 10.6875,
            "velocity": 0.5511811023622047
          },
          {
            "duration": 0.1875,
            "durationTicks": 144,
            "midi": 55,
            "name": "G3",
            "ticks": 8208,
            "time": 10.6875,
            "velocity": 0.5511811023622047
          },
          {
            "duration": 0.1875,
            "durationTicks": 144,
            "midi": 36,
            "name": "C2",
            "ticks": 8208,
            "time": 10.6875,
            "velocity": 0.5511811023622047
          },
          {
            "duration": 0.1875,
            "durationTicks": 144,
            "midi": 48,
            "name": "C3",
            "ticks": 8208,
            "time": 10.6875,
            "velocity": 0.5511811023622047
          },
          {
            "duration": 0.1875,
            "durationTicks": 144,
            "midi": 60,
            "name": "C4",
            "ticks": 8208,
            "time": 10.6875,
            "velocity": 0.5511811023622047
          },
          {
            "duration": 0.1875,
            "durationTicks": 144,
            "midi": 60,
            "name": "C4",
            "ticks": 8352,
            "time": 10.875,
            "velocity": 0.5511811023622047
          },
          {
            "duration": 0.1875,
            "durationTicks": 144,
            "midi": 55,
            "name": "G3",
            "ticks": 8352,
            "time": 10.875,
            "velocity": 0.5511811023622047
          },
          {
            "duration": 0.1875,
            "durationTicks": 144,
            "midi": 43,
            "name": "G2",
            "ticks": 8352,
            "time": 10.875,
            "velocity": 0.5511811023622047
          },
          {
            "duration": 0.1875,
            "durationTicks": 144,
            "midi": 40,
            "name": "E2",
            "ticks": 8352,
            "time": 10.875,
            "velocity": 0.5511811023622047
          },
          {
            "duration": 0.1875,
            "durationTicks": 144,
            "midi": 52,
            "name": "E3",
            "ticks": 8352,
            "time": 10.875,
            "velocity": 0.5511811023622047
          },
          {
            "duration": 0.1875,
            "durationTicks": 144,
            "midi": 36,
            "name": "C2",
            "ticks": 8352,
            "time": 10.875,
            "velocity": 0.5511811023622047
          },
          {
            "duration": 0.1875,
            "durationTicks": 144,
            "midi": 48,
            "name": "C3",
            "ticks": 8352,
            "time": 10.875,
            "velocity": 0.5511811023622047
          },
          {
            "duration": 0.1875,
            "durationTicks": 144,
            "midi": 43,
            "name": "G2",
            "ticks": 8496,
            "time": 11.0625,
            "velocity": 0.5511811023622047
          },
          {
            "duration": 0.1875,
            "durationTicks": 144,
            "midi": 52,
            "name": "E3",
            "ticks": 8496,
            "time": 11.0625,
            "velocity": 0.5511811023622047
          },
          {
            "duration": 0.1875,
            "durationTicks": 144,
            "midi": 40,
            "name": "E2",
            "ticks": 8496,
            "time": 11.0625,
            "velocity": 0.5511811023622047
          },
          {
            "duration": 0.1875,
            "durationTicks": 144,
            "midi": 55,
            "name": "G3",
            "ticks": 8496,
            "time": 11.0625,
            "velocity": 0.5511811023622047
          },
          {
            "duration": 0.1875,
            "durationTicks": 144,
            "midi": 60,
            "name": "C4",
            "ticks": 8496,
            "time": 11.0625,
            "velocity": 0.5511811023622047
          },
          {
            "duration": 0.1875,
            "durationTicks": 144,
            "midi": 36,
            "name": "C2",
            "ticks": 8496,
            "time": 11.0625,
            "velocity": 0.5511811023622047
          },
          {
            "duration": 0.1875,
            "durationTicks": 144,
            "midi": 48,
            "name": "C3",
            "ticks": 8496,
            "time": 11.0625,
            "velocity": 0.5511811023622047
          },
          {
            "duration": 0.1875,
            "durationTicks": 144,
            "midi": 43,
            "name": "G2",
            "ticks": 8640,
            "time": 11.25,
            "velocity": 0.5511811023622047
          },
          {
            "duration": 0.1875,
            "durationTicks": 144,
            "midi": 55,
            "name": "G3",
            "ticks": 8640,
            "time": 11.25,
            "velocity": 0.5511811023622047
          },
          {
            "duration": 0.1875,
            "durationTicks": 144,
            "midi": 60,
            "name": "C4",
            "ticks": 8640,
            "time": 11.25,
            "velocity": 0.5511811023622047
          },
          {
            "duration": 0.1875,
            "durationTicks": 144,
            "midi": 52,
            "name": "E3",
            "ticks": 8640,
            "time": 11.25,
            "velocity": 0.5511811023622047
          },
          {
            "duration": 0.1875,
            "durationTicks": 144,
            "midi": 36,
            "name": "C2",
            "ticks": 8640,
            "time": 11.25,
            "velocity": 0.5511811023622047
          },
          {
            "duration": 0.1875,
            "durationTicks": 144,
            "midi": 40,
            "name": "E2",
            "ticks": 8640,
            "time": 11.25,
            "velocity": 0.5511811023622047
          },
          {
            "duration": 0.1875,
            "durationTicks": 144,
            "midi": 48,
            "name": "C3",
            "ticks": 8640,
            "time": 11.25,
            "velocity": 0.5511811023622047
          },
          {
            "duration": 0.1875,
            "durationTicks": 144,
            "midi": 52,
            "name": "E3",
            "ticks": 8928,
            "time": 11.625,
            "velocity": 0.5511811023622047
          },
          {
            "duration": 0.1875,
            "durationTicks": 144,
            "midi": 43,
            "name": "G2",
            "ticks": 8928,
            "time": 11.625,
            "velocity": 0.5511811023622047
          },
          {
            "duration": 0.1875,
            "durationTicks": 144,
            "midi": 55,
            "name": "G3",
            "ticks": 8928,
            "time": 11.625,
            "velocity": 0.5511811023622047
          },
          {
            "duration": 0.1875,
            "durationTicks": 144,
            "midi": 60,
            "name": "C4",
            "ticks": 8928,
            "time": 11.625,
            "velocity": 0.5511811023622047
          },
          {
            "duration": 0.1875,
            "durationTicks": 144,
            "midi": 40,
            "name": "E2",
            "ticks": 8928,
            "time": 11.625,
            "velocity": 0.5511811023622047
          },
          {
            "duration": 0.1875,
            "durationTicks": 144,
            "midi": 36,
            "name": "C2",
            "ticks": 8928,
            "time": 11.625,
            "velocity": 0.5511811023622047
          },
          {
            "duration": 0.1875,
            "durationTicks": 144,
            "midi": 48,
            "name": "C3",
            "ticks": 8928,
            "time": 11.625,
            "velocity": 0.5511811023622047
          },
          {
            "duration": 0.1875,
            "durationTicks": 144,
            "midi": 36,
            "name": "C2",
            "ticks": 9072,
            "time": 11.8125,
            "velocity": 0.5511811023622047
          },
          {
            "duration": 0.1875,
            "durationTicks": 144,
            "midi": 40,
            "name": "E2",
            "ticks": 9072,
            "time": 11.8125,
            "velocity": 0.5511811023622047
          },
          {
            "duration": 0.1875,
            "durationTicks": 144,
            "midi": 55,
            "name": "G3",
            "ticks": 9072,
            "time": 11.8125,
            "velocity": 0.5511811023622047
          },
          {
            "duration": 0.1875,
            "durationTicks": 144,
            "midi": 52,
            "name": "E3",
            "ticks": 9072,
            "time": 11.8125,
            "velocity": 0.5511811023622047
          },
          {
            "duration": 0.1875,
            "durationTicks": 144,
            "midi": 43,
            "name": "G2",
            "ticks": 9072,
            "time": 11.8125,
            "velocity": 0.5511811023622047
          },
          {
            "duration": 0.1875,
            "durationTicks": 144,
            "midi": 60,
            "name": "C4",
            "ticks": 9072,
            "time": 11.8125,
            "velocity": 0.5511811023622047
          },
          {
            "duration": 0.1875,
            "durationTicks": 144,
            "midi": 48,
            "name": "C3",
            "ticks": 9072,
            "time": 11.8125,
            "velocity": 0.5511811023622047
          },
          {
            "duration": 0.1875,
            "durationTicks": 144,
            "midi": 55,
            "name": "G3",
            "ticks": 9360,
            "time": 12.1875,
            "velocity": 0.5511811023622047
          },
          {
            "duration": 0.1875,
            "durationTicks": 144,
            "midi": 43,
            "name": "G2",
            "ticks": 9360,
            "time": 12.1875,
            "velocity": 0.5511811023622047
          },
          {
            "duration": 0.1875,
            "durationTicks": 144,
            "midi": 48,
            "name": "C3",
            "ticks": 9360,
            "time": 12.1875,
            "velocity": 0.5511811023622047
          },
          {
            "duration": 0.1875,
            "durationTicks": 144,
            "midi": 60,
            "name": "C4",
            "ticks": 9360,
            "time": 12.1875,
            "velocity": 0.5511811023622047
          },
          {
            "duration": 0.1875,
            "durationTicks": 144,
            "midi": 40,
            "name": "E2",
            "ticks": 9360,
            "time": 12.1875,
            "velocity": 0.5511811023622047
          },
          {
            "duration": 0.1875,
            "durationTicks": 144,
            "midi": 36,
            "name": "C2",
            "ticks": 9360,
            "time": 12.1875,
            "velocity": 0.5511811023622047
          },
          {
            "duration": 0.1875,
            "durationTicks": 144,
            "midi": 52,
            "name": "E3",
            "ticks": 9360,
            "time": 12.1875,
            "velocity": 0.5511811023622047
          },
          {
            "duration": 0.1875,
            "durationTicks": 144,
            "midi": 43,
            "name": "G2",
            "ticks": 9504,
            "time": 12.375,
            "velocity": 0.5511811023622047
          },
          {
            "duration": 0.1875,
            "durationTicks": 144,
            "midi": 60,
            "name": "C4",
            "ticks": 9504,
            "time": 12.375,
            "velocity": 0.5511811023622047
          },
          {
            "duration": 0.1875,
            "durationTicks": 144,
            "midi": 52,
            "name": "E3",
            "ticks": 9504,
            "time": 12.375,
            "velocity": 0.5511811023622047
          },
          {
            "duration": 0.1875,
            "durationTicks": 144,
            "midi": 40,
            "name": "E2",
            "ticks": 9504,
            "time": 12.375,
            "velocity": 0.5511811023622047
          },
          {
            "duration": 0.1875,
            "durationTicks": 144,
            "midi": 55,
            "name": "G3",
            "ticks": 9504,
            "time": 12.375,
            "velocity": 0.5511811023622047
          },
          {
            "duration": 0.1875,
            "durationTicks": 144,
            "midi": 36,
            "name": "C2",
            "ticks": 9504,
            "time": 12.375,
            "velocity": 0.5511811023622047
          },
          {
            "duration": 0.1875,
            "durationTicks": 144,
            "midi": 48,
            "name": "C3",
            "ticks": 9504,
            "time": 12.375,
            "velocity": 0.5511811023622047
          },
          {
            "duration": 0.1875,
            "durationTicks": 144,
            "midi": 40,
            "name": "E2",
            "ticks": 9648,
            "time": 12.5625,
            "velocity": 0.5511811023622047
          },
          {
            "duration": 0.1875,
            "durationTicks": 144,
            "midi": 52,
            "name": "E3",
            "ticks": 9648,
            "time": 12.5625,
            "velocity": 0.5511811023622047
          },
          {
            "duration": 0.1875,
            "durationTicks": 144,
            "midi": 43,
            "name": "G2",
            "ticks": 9648,
            "time": 12.5625,
            "velocity": 0.5511811023622047
          },
          {
            "duration": 0.1875,
            "durationTicks": 144,
            "midi": 60,
            "name": "C4",
            "ticks": 9648,
            "time": 12.5625,
            "velocity": 0.5511811023622047
          },
          {
            "duration": 0.1875,
            "durationTicks": 144,
            "midi": 48,
            "name": "C3",
            "ticks": 9648,
            "time": 12.5625,
            "velocity": 0.5511811023622047
          },
          {
            "duration": 0.1875,
            "durationTicks": 144,
            "midi": 55,
            "name": "G3",
            "ticks": 9648,
            "time": 12.5625,
            "velocity": 0.5511811023622047
          },
          {
            "duration": 0.1875,
            "durationTicks": 144,
            "midi": 36,
            "name": "C2",
            "ticks": 9648,
            "time": 12.5625,
            "velocity": 0.5511811023622047
          },
          {
            "duration": 0.1875,
            "durationTicks": 144,
            "midi": 45,
            "name": "A2",
            "ticks": 9792,
            "time": 12.75,
            "velocity": 0.5511811023622047
          },
          {
            "duration": 0.1875,
            "durationTicks": 144,
            "midi": 50,
            "name": "D3",
            "ticks": 9792,
            "time": 12.75,
            "velocity": 0.5511811023622047
          },
          {
            "duration": 0.1875,
            "durationTicks": 144,
            "midi": 54,
            "name": "F#3",
            "ticks": 9792,
            "time": 12.75,
            "velocity": 0.5511811023622047
          },
          {
            "duration": 0.1875,
            "durationTicks": 144,
            "midi": 38,
            "name": "D2",
            "ticks": 9792,
            "time": 12.75,
            "velocity": 0.5511811023622047
          },
          {
            "duration": 0.1875,
            "durationTicks": 144,
            "midi": 42,
            "name": "F#2",
            "ticks": 9792,
            "time": 12.75,
            "velocity": 0.5511811023622047
          },
          {
            "duration": 0.1875,
            "durationTicks": 144,
            "midi": 62,
            "name": "D4",
            "ticks": 9792,
            "time": 12.75,
            "velocity": 0.5511811023622047
          },
          {
            "duration": 0.1875,
            "durationTicks": 144,
            "midi": 57,
            "name": "A3",
            "ticks": 9792,
            "time": 12.75,
            "velocity": 0.5511811023622047
          },
          {
            "duration": 0.1875,
            "durationTicks": 144,
            "midi": 54,
            "name": "F#3",
            "ticks": 10080,
            "time": 13.125,
            "velocity": 0.5511811023622047
          },
          {
            "duration": 0.1875,
            "durationTicks": 144,
            "midi": 57,
            "name": "A3",
            "ticks": 10080,
            "time": 13.125,
            "velocity": 0.5511811023622047
          },
          {
            "duration": 0.1875,
            "durationTicks": 144,
            "midi": 50,
            "name": "D3",
            "ticks": 10080,
            "time": 13.125,
            "velocity": 0.5511811023622047
          },
          {
            "duration": 0.1875,
            "durationTicks": 144,
            "midi": 45,
            "name": "A2",
            "ticks": 10080,
            "time": 13.125,
            "velocity": 0.5511811023622047
          },
          {
            "duration": 0.1875,
            "durationTicks": 144,
            "midi": 38,
            "name": "D2",
            "ticks": 10080,
            "time": 13.125,
            "velocity": 0.5511811023622047
          },
          {
            "duration": 0.1875,
            "durationTicks": 144,
            "midi": 42,
            "name": "F#2",
            "ticks": 10080,
            "time": 13.125,
            "velocity": 0.5511811023622047
          },
          {
            "duration": 0.1875,
            "durationTicks": 144,
            "midi": 62,
            "name": "D4",
            "ticks": 10080,
            "time": 13.125,
            "velocity": 0.5511811023622047
          },
          {
            "duration": 0.1875,
            "durationTicks": 144,
            "midi": 44,
            "name": "G#2",
            "ticks": 10368,
            "time": 13.5,
            "velocity": 0.5511811023622047
          },
          {
            "duration": 0.1875,
            "durationTicks": 144,
            "midi": 56,
            "name": "G#3",
            "ticks": 10368,
            "time": 13.5,
            "velocity": 0.5511811023622047
          },
          {
            "duration": 0.1875,
            "durationTicks": 144,
            "midi": 52,
            "name": "E3",
            "ticks": 10368,
            "time": 13.5,
            "velocity": 0.5511811023622047
          },
          {
            "duration": 0.1875,
            "durationTicks": 144,
            "midi": 47,
            "name": "B2",
            "ticks": 10368,
            "time": 13.5,
            "velocity": 0.5511811023622047
          },
          {
            "duration": 0.1875,
            "durationTicks": 144,
            "midi": 64,
            "name": "E4",
            "ticks": 10368,
            "time": 13.5,
            "velocity": 0.5511811023622047
          },
          {
            "duration": 0.1875,
            "durationTicks": 144,
            "midi": 40,
            "name": "E2",
            "ticks": 10368,
            "time": 13.5,
            "velocity": 0.5511811023622047
          },
          {
            "duration": 0.1875,
            "durationTicks": 144,
            "midi": 59,
            "name": "B3",
            "ticks": 10368,
            "time": 13.5,
            "velocity": 0.5511811023622047
          },
          {
            "duration": 0.1875,
            "durationTicks": 144,
            "midi": 47,
            "name": "B2",
            "ticks": 10656,
            "time": 13.875,
            "velocity": 0.5511811023622047
          },
          {
            "duration": 0.1875,
            "durationTicks": 144,
            "midi": 40,
            "name": "E2",
            "ticks": 10656,
            "time": 13.875,
            "velocity": 0.5511811023622047
          },
          {
            "duration": 0.1875,
            "durationTicks": 144,
            "midi": 56,
            "name": "G#3",
            "ticks": 10656,
            "time": 13.875,
            "velocity": 0.5511811023622047
          },
          {
            "duration": 0.1875,
            "durationTicks": 144,
            "midi": 52,
            "name": "E3",
            "ticks": 10656,
            "time": 13.875,
            "velocity": 0.5511811023622047
          },
          {
            "duration": 0.1875,
            "durationTicks": 144,
            "midi": 44,
            "name": "G#2",
            "ticks": 10656,
            "time": 13.875,
            "velocity": 0.5511811023622047
          },
          {
            "duration": 0.1875,
            "durationTicks": 144,
            "midi": 59,
            "name": "B3",
            "ticks": 10656,
            "time": 13.875,
            "velocity": 0.5511811023622047
          },
          {
            "duration": 0.1875,
            "durationTicks": 144,
            "midi": 64,
            "name": "E4",
            "ticks": 10656,
            "time": 13.875,
            "velocity": 0.5511811023622047
          },
          {
            "duration": 0.1875,
            "durationTicks": 144,
            "midi": 40,
            "name": "E2",
            "ticks": 10800,
            "time": 14.0625,
            "velocity": 0.5511811023622047
          },
          {
            "duration": 0.1875,
            "durationTicks": 144,
            "midi": 64,
            "name": "E4",
            "ticks": 10800,
            "time": 14.0625,
            "velocity": 0.5511811023622047
          },
          {
            "duration": 0.1875,
            "durationTicks": 144,
            "midi": 44,
            "name": "G#2",
            "ticks": 10800,
            "time": 14.0625,
            "velocity": 0.5511811023622047
          },
          {
            "duration": 0.1875,
            "durationTicks": 144,
            "midi": 52,
            "name": "E3",
            "ticks": 10800,
            "time": 14.0625,
            "velocity": 0.5511811023622047
          },
          {
            "duration": 0.1875,
            "durationTicks": 144,
            "midi": 56,
            "name": "G#3",
            "ticks": 10800,
            "time": 14.0625,
            "velocity": 0.5511811023622047
          },
          {
            "duration": 0.1875,
            "durationTicks": 144,
            "midi": 59,
            "name": "B3",
            "ticks": 10800,
            "time": 14.0625,
            "velocity": 0.5511811023622047
          },
          {
            "duration": 0.1875,
            "durationTicks": 144,
            "midi": 47,
            "name": "B2",
            "ticks": 10800,
            "time": 14.0625,
            "velocity": 0.5511811023622047
          },
          {
            "duration": 0.1875,
            "durationTicks": 144,
            "midi": 64,
            "name": "E4",
            "ticks": 11088,
            "time": 14.4375,
            "velocity": 0.5511811023622047
          },
          {
            "duration": 0.1875,
            "durationTicks": 144,
            "midi": 47,
            "name": "B2",
            "ticks": 11088,
            "time": 14.4375,
            "velocity": 0.5511811023622047
          },
          {
            "duration": 0.1875,
            "durationTicks": 144,
            "midi": 40,
            "name": "E2",
            "ticks": 11088,
            "time": 14.4375,
            "velocity": 0.5511811023622047
          },
          {
            "duration": 0.1875,
            "durationTicks": 144,
            "midi": 44,
            "name": "G#2",
            "ticks": 11088,
            "time": 14.4375,
            "velocity": 0.5511811023622047
          },
          {
            "duration": 0.1875,
            "durationTicks": 144,
            "midi": 59,
            "name": "B3",
            "ticks": 11088,
            "time": 14.4375,
            "velocity": 0.5511811023622047
          },
          {
            "duration": 0.1875,
            "durationTicks": 144,
            "midi": 56,
            "name": "G#3",
            "ticks": 11088,
            "time": 14.4375,
            "velocity": 0.5511811023622047
          },
          {
            "duration": 0.1875,
            "durationTicks": 144,
            "midi": 52,
            "name": "E3",
            "ticks": 11088,
            "time": 14.4375,
            "velocity": 0.5511811023622047
          },
          {
            "duration": 0.1875,
            "durationTicks": 144,
            "midi": 56,
            "name": "G#3",
            "ticks": 11232,
            "time": 14.625,
            "velocity": 0.5511811023622047
          },
          {
            "duration": 0.1875,
            "durationTicks": 144,
            "midi": 47,
            "name": "B2",
            "ticks": 11232,
            "time": 14.625,
            "velocity": 0.5511811023622047
          },
          {
            "duration": 0.1875,
            "durationTicks": 144,
            "midi": 52,
            "name": "E3",
            "ticks": 11232,
            "time": 14.625,
            "velocity": 0.5511811023622047
          },
          {
            "duration": 0.1875,
            "durationTicks": 144,
            "midi": 44,
            "name": "G#2",
            "ticks": 11232,
            "time": 14.625,
            "velocity": 0.5511811023622047
          },
          {
            "duration": 0.1875,
            "durationTicks": 144,
            "midi": 59,
            "name": "B3",
            "ticks": 11232,
            "time": 14.625,
            "velocity": 0.5511811023622047
          },
          {
            "duration": 0.1875,
            "durationTicks": 144,
            "midi": 40,
            "name": "E2",
            "ticks": 11232,
            "time": 14.625,
            "velocity": 0.5511811023622047
          },
          {
            "duration": 0.1875,
            "durationTicks": 144,
            "midi": 64,
            "name": "E4",
            "ticks": 11232,
            "time": 14.625,
            "velocity": 0.5511811023622047
          },
          {
            "duration": 0.1875,
            "durationTicks": 144,
            "midi": 59,
            "name": "B3",
            "ticks": 11376,
            "time": 14.8125,
            "velocity": 0.5511811023622047
          },
          {
            "duration": 0.1875,
            "durationTicks": 144,
            "midi": 40,
            "name": "E2",
            "ticks": 11376,
            "time": 14.8125,
            "velocity": 0.5511811023622047
          },
          {
            "duration": 0.1875,
            "durationTicks": 144,
            "midi": 64,
            "name": "E4",
            "ticks": 11376,
            "time": 14.8125,
            "velocity": 0.5511811023622047
          },
          {
            "duration": 0.1875,
            "durationTicks": 144,
            "midi": 47,
            "name": "B2",
            "ticks": 11376,
            "time": 14.8125,
            "velocity": 0.5511811023622047
          },
          {
            "duration": 0.1875,
            "durationTicks": 144,
            "midi": 52,
            "name": "E3",
            "ticks": 11376,
            "time": 14.8125,
            "velocity": 0.5511811023622047
          },
          {
            "duration": 0.1875,
            "durationTicks": 144,
            "midi": 56,
            "name": "G#3",
            "ticks": 11376,
            "time": 14.8125,
            "velocity": 0.5511811023622047
          },
          {
            "duration": 0.1875,
            "durationTicks": 144,
            "midi": 44,
            "name": "G#2",
            "ticks": 11376,
            "time": 14.8125,
            "velocity": 0.5511811023622047
          },
          {
            "duration": 0.1875,
            "durationTicks": 144,
            "midi": 47,
            "name": "B2",
            "ticks": 11520,
            "time": 15,
            "velocity": 0.5511811023622047
          },
          {
            "duration": 0.1875,
            "durationTicks": 144,
            "midi": 56,
            "name": "G#3",
            "ticks": 11520,
            "time": 15,
            "velocity": 0.5511811023622047
          },
          {
            "duration": 0.1875,
            "durationTicks": 144,
            "midi": 40,
            "name": "E2",
            "ticks": 11520,
            "time": 15,
            "velocity": 0.5511811023622047
          },
          {
            "duration": 0.1875,
            "durationTicks": 144,
            "midi": 44,
            "name": "G#2",
            "ticks": 11520,
            "time": 15,
            "velocity": 0.5511811023622047
          },
          {
            "duration": 0.1875,
            "durationTicks": 144,
            "midi": 64,
            "name": "E4",
            "ticks": 11520,
            "time": 15,
            "velocity": 0.5511811023622047
          },
          {
            "duration": 0.1875,
            "durationTicks": 144,
            "midi": 52,
            "name": "E3",
            "ticks": 11520,
            "time": 15,
            "velocity": 0.5511811023622047
          },
          {
            "duration": 0.1875,
            "durationTicks": 144,
            "midi": 59,
            "name": "B3",
            "ticks": 11520,
            "time": 15,
            "velocity": 0.5511811023622047
          },
          {
            "duration": 0.1875,
            "durationTicks": 144,
            "midi": 52,
            "name": "E3",
            "ticks": 11808,
            "time": 15.375,
            "velocity": 0.5511811023622047
          },
          {
            "duration": 0.1875,
            "durationTicks": 144,
            "midi": 40,
            "name": "E2",
            "ticks": 11808,
            "time": 15.375,
            "velocity": 0.5511811023622047
          },
          {
            "duration": 0.1875,
            "durationTicks": 144,
            "midi": 64,
            "name": "E4",
            "ticks": 11808,
            "time": 15.375,
            "velocity": 0.5511811023622047
          },
          {
            "duration": 0.1875,
            "durationTicks": 144,
            "midi": 47,
            "name": "B2",
            "ticks": 11808,
            "time": 15.375,
            "velocity": 0.5511811023622047
          },
          {
            "duration": 0.1875,
            "durationTicks": 144,
            "midi": 56,
            "name": "G#3",
            "ticks": 11808,
            "time": 15.375,
            "velocity": 0.5511811023622047
          },
          {
            "duration": 0.1875,
            "durationTicks": 144,
            "midi": 59,
            "name": "B3",
            "ticks": 11808,
            "time": 15.375,
            "velocity": 0.5511811023622047
          },
          {
            "duration": 0.1875,
            "durationTicks": 144,
            "midi": 44,
            "name": "G#2",
            "ticks": 11808,
            "time": 15.375,
            "velocity": 0.5511811023622047
          },
          {
            "duration": 0.1875,
            "durationTicks": 144,
            "midi": 40,
            "name": "E2",
            "ticks": 11952,
            "time": 15.5625,
            "velocity": 0.5511811023622047
          },
          {
            "duration": 0.1875,
            "durationTicks": 144,
            "midi": 64,
            "name": "E4",
            "ticks": 11952,
            "time": 15.5625,
            "velocity": 0.5511811023622047
          },
          {
            "duration": 0.1875,
            "durationTicks": 144,
            "midi": 44,
            "name": "G#2",
            "ticks": 11952,
            "time": 15.5625,
            "velocity": 0.5511811023622047
          },
          {
            "duration": 0.1875,
            "durationTicks": 144,
            "midi": 47,
            "name": "B2",
            "ticks": 11952,
            "time": 15.5625,
            "velocity": 0.5511811023622047
          },
          {
            "duration": 0.1875,
            "durationTicks": 144,
            "midi": 52,
            "name": "E3",
            "ticks": 11952,
            "time": 15.5625,
            "velocity": 0.5511811023622047
          },
          {
            "duration": 0.1875,
            "durationTicks": 144,
            "midi": 59,
            "name": "B3",
            "ticks": 11952,
            "time": 15.5625,
            "velocity": 0.5511811023622047
          },
          {
            "duration": 0.1875,
            "durationTicks": 144,
            "midi": 56,
            "name": "G#3",
            "ticks": 11952,
            "time": 15.5625,
            "velocity": 0.5511811023622047
          },
          {
            "duration": 0.1875,
            "durationTicks": 144,
            "midi": 64,
            "name": "E4",
            "ticks": 12240,
            "time": 15.9375,
            "velocity": 0.5511811023622047
          },
          {
            "duration": 0.1875,
            "durationTicks": 144,
            "midi": 44,
            "name": "G#2",
            "ticks": 12240,
            "time": 15.9375,
            "velocity": 0.5511811023622047
          },
          {
            "duration": 0.1875,
            "durationTicks": 144,
            "midi": 47,
            "name": "B2",
            "ticks": 12240,
            "time": 15.9375,
            "velocity": 0.5511811023622047
          },
          {
            "duration": 0.1875,
            "durationTicks": 144,
            "midi": 52,
            "name": "E3",
            "ticks": 12240,
            "time": 15.9375,
            "velocity": 0.5511811023622047
          },
          {
            "duration": 0.1875,
            "durationTicks": 144,
            "midi": 56,
            "name": "G#3",
            "ticks": 12240,
            "time": 15.9375,
            "velocity": 0.5511811023622047
          },
          {
            "duration": 0.1875,
            "durationTicks": 144,
            "midi": 40,
            "name": "E2",
            "ticks": 12240,
            "time": 15.9375,
            "velocity": 0.5511811023622047
          },
          {
            "duration": 0.1875,
            "durationTicks": 144,
            "midi": 59,
            "name": "B3",
            "ticks": 12240,
            "time": 15.9375,
            "velocity": 0.5511811023622047
          },
          {
            "duration": 0.1875,
            "durationTicks": 144,
            "midi": 47,
            "name": "B2",
            "ticks": 12384,
            "time": 16.125,
            "velocity": 0.5511811023622047
          },
          {
            "duration": 0.1875,
            "durationTicks": 144,
            "midi": 59,
            "name": "B3",
            "ticks": 12384,
            "time": 16.125,
            "velocity": 0.5511811023622047
          },
          {
            "duration": 0.1875,
            "durationTicks": 144,
            "midi": 52,
            "name": "E3",
            "ticks": 12384,
            "time": 16.125,
            "velocity": 0.5511811023622047
          },
          {
            "duration": 0.1875,
            "durationTicks": 144,
            "midi": 44,
            "name": "G#2",
            "ticks": 12384,
            "time": 16.125,
            "velocity": 0.5511811023622047
          },
          {
            "duration": 0.1875,
            "durationTicks": 144,
            "midi": 56,
            "name": "G#3",
            "ticks": 12384,
            "time": 16.125,
            "velocity": 0.5511811023622047
          },
          {
            "duration": 0.1875,
            "durationTicks": 144,
            "midi": 40,
            "name": "E2",
            "ticks": 12384,
            "time": 16.125,
            "velocity": 0.5511811023622047
          },
          {
            "duration": 0.1875,
            "durationTicks": 144,
            "midi": 64,
            "name": "E4",
            "ticks": 12384,
            "time": 16.125,
            "velocity": 0.5511811023622047
          },
          {
            "duration": 0.1875,
            "durationTicks": 144,
            "midi": 44,
            "name": "G#2",
            "ticks": 12528,
            "time": 16.3125,
            "velocity": 0.5511811023622047
          },
          {
            "duration": 0.1875,
            "durationTicks": 144,
            "midi": 56,
            "name": "G#3",
            "ticks": 12528,
            "time": 16.3125,
            "velocity": 0.5511811023622047
          },
          {
            "duration": 0.1875,
            "durationTicks": 144,
            "midi": 59,
            "name": "B3",
            "ticks": 12528,
            "time": 16.3125,
            "velocity": 0.5511811023622047
          },
          {
            "duration": 0.1875,
            "durationTicks": 144,
            "midi": 47,
            "name": "B2",
            "ticks": 12528,
            "time": 16.3125,
            "velocity": 0.5511811023622047
          },
          {
            "duration": 0.1875,
            "durationTicks": 144,
            "midi": 64,
            "name": "E4",
            "ticks": 12528,
            "time": 16.3125,
            "velocity": 0.5511811023622047
          },
          {
            "duration": 0.1875,
            "durationTicks": 144,
            "midi": 52,
            "name": "E3",
            "ticks": 12528,
            "time": 16.3125,
            "velocity": 0.5511811023622047
          },
          {
            "duration": 0.1875,
            "durationTicks": 144,
            "midi": 40,
            "name": "E2",
            "ticks": 12528,
            "time": 16.3125,
            "velocity": 0.5511811023622047
          },
          {
            "duration": 0.1875,
            "durationTicks": 144,
            "midi": 62,
            "name": "D4",
            "ticks": 12672,
            "time": 16.5,
            "velocity": 0.5511811023622047
          },
          {
            "duration": 0.1875,
            "durationTicks": 144,
            "midi": 47,
            "name": "B2",
            "ticks": 12672,
            "time": 16.5,
            "velocity": 0.5511811023622047
          },
          {
            "duration": 0.1875,
            "durationTicks": 144,
            "midi": 50,
            "name": "D3",
            "ticks": 12672,
            "time": 16.5,
            "velocity": 0.5511811023622047
          },
          {
            "duration": 0.1875,
            "durationTicks": 144,
            "midi": 55,
            "name": "G3",
            "ticks": 12672,
            "time": 16.5,
            "velocity": 0.5511811023622047
          },
          {
            "duration": 0.1875,
            "durationTicks": 144,
            "midi": 59,
            "name": "B3",
            "ticks": 12672,
            "time": 16.5,
            "velocity": 0.5511811023622047
          },
          {
            "duration": 0.1875,
            "durationTicks": 144,
            "midi": 67,
            "name": "G4",
            "ticks": 12672,
            "time": 16.5,
            "velocity": 0.5511811023622047
          },
          {
            "duration": 0.1875,
            "durationTicks": 144,
            "midi": 43,
            "name": "G2",
            "ticks": 12672,
            "time": 16.5,
            "velocity": 0.5511811023622047
          },
          {
            "duration": 0.1875,
            "durationTicks": 144,
            "midi": 59,
            "name": "B3",
            "ticks": 12960,
            "time": 16.875,
            "velocity": 0.5511811023622047
          },
          {
            "duration": 0.1875,
            "durationTicks": 144,
            "midi": 43,
            "name": "G2",
            "ticks": 12960,
            "time": 16.875,
            "velocity": 0.5511811023622047
          },
          {
            "duration": 0.1875,
            "durationTicks": 144,
            "midi": 47,
            "name": "B2",
            "ticks": 12960,
            "time": 16.875,
            "velocity": 0.5511811023622047
          },
          {
            "duration": 0.1875,
            "durationTicks": 144,
            "midi": 55,
            "name": "G3",
            "ticks": 12960,
            "time": 16.875,
            "velocity": 0.5511811023622047
          },
          {
            "duration": 0.1875,
            "durationTicks": 144,
            "midi": 50,
            "name": "D3",
            "ticks": 12960,
            "time": 16.875,
            "velocity": 0.5511811023622047
          },
          {
            "duration": 0.1875,
            "durationTicks": 144,
            "midi": 67,
            "name": "G4",
            "ticks": 12960,
            "time": 16.875,
            "velocity": 0.5511811023622047
          },
          {
            "duration": 0.1875,
            "durationTicks": 144,
            "midi": 62,
            "name": "D4",
            "ticks": 12960,
            "time": 16.875,
            "velocity": 0.5511811023622047
          },
          {
            "duration": 0.1875,
            "durationTicks": 144,
            "midi": 47,
            "name": "B2",
            "ticks": 13104,
            "time": 17.0625,
            "velocity": 0.5511811023622047
          },
          {
            "duration": 0.1875,
            "durationTicks": 144,
            "midi": 67,
            "name": "G4",
            "ticks": 13104,
            "time": 17.0625,
            "velocity": 0.5511811023622047
          },
          {
            "duration": 0.1875,
            "durationTicks": 144,
            "midi": 59,
            "name": "B3",
            "ticks": 13104,
            "time": 17.0625,
            "velocity": 0.5511811023622047
          },
          {
            "duration": 0.1875,
            "durationTicks": 144,
            "midi": 43,
            "name": "G2",
            "ticks": 13104,
            "time": 17.0625,
            "velocity": 0.5511811023622047
          },
          {
            "duration": 0.1875,
            "durationTicks": 144,
            "midi": 55,
            "name": "G3",
            "ticks": 13104,
            "time": 17.0625,
            "velocity": 0.5511811023622047
          },
          {
            "duration": 0.1875,
            "durationTicks": 144,
            "midi": 50,
            "name": "D3",
            "ticks": 13104,
            "time": 17.0625,
            "velocity": 0.5511811023622047
          },
          {
            "duration": 0.1875,
            "durationTicks": 144,
            "midi": 62,
            "name": "D4",
            "ticks": 13104,
            "time": 17.0625,
            "velocity": 0.5511811023622047
          },
          {
            "duration": 0.1875,
            "durationTicks": 144,
            "midi": 55,
            "name": "G3",
            "ticks": 13392,
            "time": 17.4375,
            "velocity": 0.5511811023622047
          },
          {
            "duration": 0.1875,
            "durationTicks": 144,
            "midi": 62,
            "name": "D4",
            "ticks": 13392,
            "time": 17.4375,
            "velocity": 0.5511811023622047
          },
          {
            "duration": 0.1875,
            "durationTicks": 144,
            "midi": 50,
            "name": "D3",
            "ticks": 13392,
            "time": 17.4375,
            "velocity": 0.5511811023622047
          },
          {
            "duration": 0.1875,
            "durationTicks": 144,
            "midi": 59,
            "name": "B3",
            "ticks": 13392,
            "time": 17.4375,
            "velocity": 0.5511811023622047
          },
          {
            "duration": 0.1875,
            "durationTicks": 144,
            "midi": 47,
            "name": "B2",
            "ticks": 13392,
            "time": 17.4375,
            "velocity": 0.5511811023622047
          },
          {
            "duration": 0.1875,
            "durationTicks": 144,
            "midi": 43,
            "name": "G2",
            "ticks": 13392,
            "time": 17.4375,
            "velocity": 0.5511811023622047
          },
          {
            "duration": 0.1875,
            "durationTicks": 144,
            "midi": 67,
            "name": "G4",
            "ticks": 13392,
            "time": 17.4375,
            "velocity": 0.5511811023622047
          },
          {
            "duration": 0.1875,
            "durationTicks": 144,
            "midi": 55,
            "name": "G3",
            "ticks": 13536,
            "time": 17.625,
            "velocity": 0.5511811023622047
          },
          {
            "duration": 0.1875,
            "durationTicks": 144,
            "midi": 47,
            "name": "B2",
            "ticks": 13536,
            "time": 17.625,
            "velocity": 0.5511811023622047
          },
          {
            "duration": 0.1875,
            "durationTicks": 144,
            "midi": 62,
            "name": "D4",
            "ticks": 13536,
            "time": 17.625,
            "velocity": 0.5511811023622047
          },
          {
            "duration": 0.1875,
            "durationTicks": 144,
            "midi": 59,
            "name": "B3",
            "ticks": 13536,
            "time": 17.625,
            "velocity": 0.5511811023622047
          },
          {
            "duration": 0.1875,
            "durationTicks": 144,
            "midi": 67,
            "name": "G4",
            "ticks": 13536,
            "time": 17.625,
            "velocity": 0.5511811023622047
          },
          {
            "duration": 0.1875,
            "durationTicks": 144,
            "midi": 43,
            "name": "G2",
            "ticks": 13536,
            "time": 17.625,
            "velocity": 0.5511811023622047
          },
          {
            "duration": 0.1875,
            "durationTicks": 144,
            "midi": 50,
            "name": "D3",
            "ticks": 13536,
            "time": 17.625,
            "velocity": 0.5511811023622047
          },
          {
            "duration": 0.1875,
            "durationTicks": 144,
            "midi": 67,
            "name": "G4",
            "ticks": 13680,
            "time": 17.8125,
            "velocity": 0.5511811023622047
          },
          {
            "duration": 0.1875,
            "durationTicks": 144,
            "midi": 43,
            "name": "G2",
            "ticks": 13680,
            "time": 17.8125,
            "velocity": 0.5511811023622047
          },
          {
            "duration": 0.1875,
            "durationTicks": 144,
            "midi": 55,
            "name": "G3",
            "ticks": 13680,
            "time": 17.8125,
            "velocity": 0.5511811023622047
          },
          {
            "duration": 0.1875,
            "durationTicks": 144,
            "midi": 50,
            "name": "D3",
            "ticks": 13680,
            "time": 17.8125,
            "velocity": 0.5511811023622047
          },
          {
            "duration": 0.1875,
            "durationTicks": 144,
            "midi": 47,
            "name": "B2",
            "ticks": 13680,
            "time": 17.8125,
            "velocity": 0.5511811023622047
          },
          {
            "duration": 0.1875,
            "durationTicks": 144,
            "midi": 59,
            "name": "B3",
            "ticks": 13680,
            "time": 17.8125,
            "velocity": 0.5511811023622047
          },
          {
            "duration": 0.1875,
            "durationTicks": 144,
            "midi": 62,
            "name": "D4",
            "ticks": 13680,
            "time": 17.8125,
            "velocity": 0.5511811023622047
          },
          {
            "duration": 0.1875,
            "durationTicks": 144,
            "midi": 36,
            "name": "C2",
            "ticks": 13824,
            "time": 18,
            "velocity": 0.5511811023622047
          },
          {
            "duration": 0.1875,
            "durationTicks": 144,
            "midi": 60,
            "name": "C4",
            "ticks": 13824,
            "time": 18,
            "velocity": 0.5511811023622047
          },
          {
            "duration": 0.1875,
            "durationTicks": 144,
            "midi": 43,
            "name": "G2",
            "ticks": 13824,
            "time": 18,
            "velocity": 0.5511811023622047
          },
          {
            "duration": 0.1875,
            "durationTicks": 144,
            "midi": 40,
            "name": "E2",
            "ticks": 13824,
            "time": 18,
            "velocity": 0.5511811023622047
          },
          {
            "duration": 0.1875,
            "durationTicks": 144,
            "midi": 52,
            "name": "E3",
            "ticks": 13824,
            "time": 18,
            "velocity": 0.5511811023622047
          },
          {
            "duration": 0.1875,
            "durationTicks": 144,
            "midi": 48,
            "name": "C3",
            "ticks": 13824,
            "time": 18,
            "velocity": 0.5511811023622047
          },
          {
            "duration": 0.1875,
            "durationTicks": 144,
            "midi": 55,
            "name": "G3",
            "ticks": 13824,
            "time": 18,
            "velocity": 0.5511811023622047
          },
          {
            "duration": 0.1875,
            "durationTicks": 144,
            "midi": 43,
            "name": "G2",
            "ticks": 14112,
            "time": 18.375,
            "velocity": 0.5511811023622047
          },
          {
            "duration": 0.1875,
            "durationTicks": 144,
            "midi": 36,
            "name": "C2",
            "ticks": 14112,
            "time": 18.375,
            "velocity": 0.5511811023622047
          },
          {
            "duration": 0.1875,
            "durationTicks": 144,
            "midi": 60,
            "name": "C4",
            "ticks": 14112,
            "time": 18.375,
            "velocity": 0.5511811023622047
          },
          {
            "duration": 0.1875,
            "durationTicks": 144,
            "midi": 55,
            "name": "G3",
            "ticks": 14112,
            "time": 18.375,
            "velocity": 0.5511811023622047
          },
          {
            "duration": 0.1875,
            "durationTicks": 144,
            "midi": 48,
            "name": "C3",
            "ticks": 14112,
            "time": 18.375,
            "velocity": 0.5511811023622047
          },
          {
            "duration": 0.1875,
            "durationTicks": 144,
            "midi": 52,
            "name": "E3",
            "ticks": 14112,
            "time": 18.375,
            "velocity": 0.5511811023622047
          },
          {
            "duration": 0.1875,
            "durationTicks": 144,
            "midi": 40,
            "name": "E2",
            "ticks": 14112,
            "time": 18.375,
            "velocity": 0.5511811023622047
          },
          {
            "duration": 0.1875,
            "durationTicks": 144,
            "midi": 40,
            "name": "E2",
            "ticks": 14256,
            "time": 18.5625,
            "velocity": 0.5511811023622047
          },
          {
            "duration": 0.1875,
            "durationTicks": 144,
            "midi": 55,
            "name": "G3",
            "ticks": 14256,
            "time": 18.5625,
            "velocity": 0.5511811023622047
          },
          {
            "duration": 0.1875,
            "durationTicks": 144,
            "midi": 36,
            "name": "C2",
            "ticks": 14256,
            "time": 18.5625,
            "velocity": 0.5511811023622047
          },
          {
            "duration": 0.1875,
            "durationTicks": 144,
            "midi": 52,
            "name": "E3",
            "ticks": 14256,
            "time": 18.5625,
            "velocity": 0.5511811023622047
          },
          {
            "duration": 0.1875,
            "durationTicks": 144,
            "midi": 60,
            "name": "C4",
            "ticks": 14256,
            "time": 18.5625,
            "velocity": 0.5511811023622047
          },
          {
            "duration": 0.1875,
            "durationTicks": 144,
            "midi": 48,
            "name": "C3",
            "ticks": 14256,
            "time": 18.5625,
            "velocity": 0.5511811023622047
          },
          {
            "duration": 0.1875,
            "durationTicks": 144,
            "midi": 43,
            "name": "G2",
            "ticks": 14256,
            "time": 18.5625,
            "velocity": 0.5511811023622047
          },
          {
            "duration": 0.1875,
            "durationTicks": 144,
            "midi": 40,
            "name": "E2",
            "ticks": 14544,
            "time": 18.9375,
            "velocity": 0.5511811023622047
          },
          {
            "duration": 0.1875,
            "durationTicks": 144,
            "midi": 36,
            "name": "C2",
            "ticks": 14544,
            "time": 18.9375,
            "velocity": 0.5511811023622047
          },
          {
            "duration": 0.1875,
            "durationTicks": 144,
            "midi": 52,
            "name": "E3",
            "ticks": 14544,
            "time": 18.9375,
            "velocity": 0.5511811023622047
          },
          {
            "duration": 0.1875,
            "durationTicks": 144,
            "midi": 60,
            "name": "C4",
            "ticks": 14544,
            "time": 18.9375,
            "velocity": 0.5511811023622047
          },
          {
            "duration": 0.1875,
            "durationTicks": 144,
            "midi": 43,
            "name": "G2",
            "ticks": 14544,
            "time": 18.9375,
            "velocity": 0.5511811023622047
          },
          {
            "duration": 0.1875,
            "durationTicks": 144,
            "midi": 48,
            "name": "C3",
            "ticks": 14544,
            "time": 18.9375,
            "velocity": 0.5511811023622047
          },
          {
            "duration": 0.1875,
            "durationTicks": 144,
            "midi": 55,
            "name": "G3",
            "ticks": 14544,
            "time": 18.9375,
            "velocity": 0.5511811023622047
          },
          {
            "duration": 0.1875,
            "durationTicks": 144,
            "midi": 43,
            "name": "G2",
            "ticks": 14688,
            "time": 19.125,
            "velocity": 0.5511811023622047
          },
          {
            "duration": 0.1875,
            "durationTicks": 144,
            "midi": 48,
            "name": "C3",
            "ticks": 14688,
            "time": 19.125,
            "velocity": 0.5511811023622047
          },
          {
            "duration": 0.1875,
            "durationTicks": 144,
            "midi": 52,
            "name": "E3",
            "ticks": 14688,
            "time": 19.125,
            "velocity": 0.5511811023622047
          },
          {
            "duration": 0.1875,
            "durationTicks": 144,
            "midi": 40,
            "name": "E2",
            "ticks": 14688,
            "time": 19.125,
            "velocity": 0.5511811023622047
          },
          {
            "duration": 0.1875,
            "durationTicks": 144,
            "midi": 55,
            "name": "G3",
            "ticks": 14688,
            "time": 19.125,
            "velocity": 0.5511811023622047
          },
          {
            "duration": 0.1875,
            "durationTicks": 144,
            "midi": 36,
            "name": "C2",
            "ticks": 14688,
            "time": 19.125,
            "velocity": 0.5511811023622047
          },
          {
            "duration": 0.1875,
            "durationTicks": 144,
            "midi": 60,
            "name": "C4",
            "ticks": 14688,
            "time": 19.125,
            "velocity": 0.5511811023622047
          },
          {
            "duration": 0.1875,
            "durationTicks": 144,
            "midi": 40,
            "name": "E2",
            "ticks": 14832,
            "time": 19.3125,
            "velocity": 0.5511811023622047
          },
          {
            "duration": 0.1875,
            "durationTicks": 144,
            "midi": 43,
            "name": "G2",
            "ticks": 14832,
            "time": 19.3125,
            "velocity": 0.5511811023622047
          },
          {
            "duration": 0.1875,
            "durationTicks": 144,
            "midi": 36,
            "name": "C2",
            "ticks": 14832,
            "time": 19.3125,
            "velocity": 0.5511811023622047
          },
          {
            "duration": 0.1875,
            "durationTicks": 144,
            "midi": 52,
            "name": "E3",
            "ticks": 14832,
            "time": 19.3125,
            "velocity": 0.5511811023622047
          },
          {
            "duration": 0.1875,
            "durationTicks": 144,
            "midi": 55,
            "name": "G3",
            "ticks": 14832,
            "time": 19.3125,
            "velocity": 0.5511811023622047
          },
          {
            "duration": 0.1875,
            "durationTicks": 144,
            "midi": 60,
            "name": "C4",
            "ticks": 14832,
            "time": 19.3125,
            "velocity": 0.5511811023622047
          },
          {
            "duration": 0.1875,
            "durationTicks": 144,
            "midi": 48,
            "name": "C3",
            "ticks": 14832,
            "time": 19.3125,
            "velocity": 0.5511811023622047
          },
          {
            "duration": 0.1875,
            "durationTicks": 144,
            "midi": 43,
            "name": "G2",
            "ticks": 14976,
            "time": 19.5,
            "velocity": 0.5511811023622047
          },
          {
            "duration": 0.1875,
            "durationTicks": 144,
            "midi": 52,
            "name": "E3",
            "ticks": 14976,
            "time": 19.5,
            "velocity": 0.5511811023622047
          },
          {
            "duration": 0.1875,
            "durationTicks": 144,
            "midi": 36,
            "name": "C2",
            "ticks": 14976,
            "time": 19.5,
            "velocity": 0.5511811023622047
          },
          {
            "duration": 0.1875,
            "durationTicks": 144,
            "midi": 40,
            "name": "E2",
            "ticks": 14976,
            "time": 19.5,
            "velocity": 0.5511811023622047
          },
          {
            "duration": 0.1875,
            "durationTicks": 144,
            "midi": 48,
            "name": "C3",
            "ticks": 14976,
            "time": 19.5,
            "velocity": 0.5511811023622047
          },
          {
            "duration": 0.1875,
            "durationTicks": 144,
            "midi": 55,
            "name": "G3",
            "ticks": 14976,
            "time": 19.5,
            "velocity": 0.5511811023622047
          },
          {
            "duration": 0.1875,
            "durationTicks": 144,
            "midi": 60,
            "name": "C4",
            "ticks": 14976,
            "time": 19.5,
            "velocity": 0.5511811023622047
          },
          {
            "duration": 0.1875,
            "durationTicks": 144,
            "midi": 43,
            "name": "G2",
            "ticks": 15264,
            "time": 19.875,
            "velocity": 0.5511811023622047
          },
          {
            "duration": 0.1875,
            "durationTicks": 144,
            "midi": 36,
            "name": "C2",
            "ticks": 15264,
            "time": 19.875,
            "velocity": 0.5511811023622047
          },
          {
            "duration": 0.1875,
            "durationTicks": 144,
            "midi": 60,
            "name": "C4",
            "ticks": 15264,
            "time": 19.875,
            "velocity": 0.5511811023622047
          },
          {
            "duration": 0.1875,
            "durationTicks": 144,
            "midi": 52,
            "name": "E3",
            "ticks": 15264,
            "time": 19.875,
            "velocity": 0.5511811023622047
          },
          {
            "duration": 0.1875,
            "durationTicks": 144,
            "midi": 48,
            "name": "C3",
            "ticks": 15264,
            "time": 19.875,
            "velocity": 0.5511811023622047
          },
          {
            "duration": 0.1875,
            "durationTicks": 144,
            "midi": 55,
            "name": "G3",
            "ticks": 15264,
            "time": 19.875,
            "velocity": 0.5511811023622047
          },
          {
            "duration": 0.1875,
            "durationTicks": 144,
            "midi": 40,
            "name": "E2",
            "ticks": 15264,
            "time": 19.875,
            "velocity": 0.5511811023622047
          },
          {
            "duration": 0.1875,
            "durationTicks": 144,
            "midi": 40,
            "name": "E2",
            "ticks": 15408,
            "time": 20.0625,
            "velocity": 0.5511811023622047
          },
          {
            "duration": 0.1875,
            "durationTicks": 144,
            "midi": 36,
            "name": "C2",
            "ticks": 15408,
            "time": 20.0625,
            "velocity": 0.5511811023622047
          },
          {
            "duration": 0.1875,
            "durationTicks": 144,
            "midi": 60,
            "name": "C4",
            "ticks": 15408,
            "time": 20.0625,
            "velocity": 0.5511811023622047
          },
          {
            "duration": 0.1875,
            "durationTicks": 144,
            "midi": 52,
            "name": "E3",
            "ticks": 15408,
            "time": 20.0625,
            "velocity": 0.5511811023622047
          },
          {
            "duration": 0.1875,
            "durationTicks": 144,
            "midi": 55,
            "name": "G3",
            "ticks": 15408,
            "time": 20.0625,
            "velocity": 0.5511811023622047
          },
          {
            "duration": 0.1875,
            "durationTicks": 144,
            "midi": 48,
            "name": "C3",
            "ticks": 15408,
            "time": 20.0625,
            "velocity": 0.5511811023622047
          },
          {
            "duration": 0.1875,
            "durationTicks": 144,
            "midi": 43,
            "name": "G2",
            "ticks": 15408,
            "time": 20.0625,
            "velocity": 0.5511811023622047
          },
          {
            "duration": 0.1875,
            "durationTicks": 144,
            "midi": 60,
            "name": "C4",
            "ticks": 15696,
            "time": 20.4375,
            "velocity": 0.5511811023622047
          },
          {
            "duration": 0.1875,
            "durationTicks": 144,
            "midi": 48,
            "name": "C3",
            "ticks": 15696,
            "time": 20.4375,
            "velocity": 0.5511811023622047
          },
          {
            "duration": 0.1875,
            "durationTicks": 144,
            "midi": 43,
            "name": "G2",
            "ticks": 15696,
            "time": 20.4375,
            "velocity": 0.5511811023622047
          },
          {
            "duration": 0.1875,
            "durationTicks": 144,
            "midi": 40,
            "name": "E2",
            "ticks": 15696,
            "time": 20.4375,
            "velocity": 0.5511811023622047
          },
          {
            "duration": 0.1875,
            "durationTicks": 144,
            "midi": 55,
            "name": "G3",
            "ticks": 15696,
            "time": 20.4375,
            "velocity": 0.5511811023622047
          },
          {
            "duration": 0.1875,
            "durationTicks": 144,
            "midi": 52,
            "name": "E3",
            "ticks": 15696,
            "time": 20.4375,
            "velocity": 0.5511811023622047
          },
          {
            "duration": 0.1875,
            "durationTicks": 144,
            "midi": 36,
            "name": "C2",
            "ticks": 15696,
            "time": 20.4375,
            "velocity": 0.5511811023622047
          },
          {
            "duration": 0.1875,
            "durationTicks": 144,
            "midi": 52,
            "name": "E3",
            "ticks": 15840,
            "time": 20.625,
            "velocity": 0.5511811023622047
          },
          {
            "duration": 0.1875,
            "durationTicks": 144,
            "midi": 43,
            "name": "G2",
            "ticks": 15840,
            "time": 20.625,
            "velocity": 0.5511811023622047
          },
          {
            "duration": 0.1875,
            "durationTicks": 144,
            "midi": 60,
            "name": "C4",
            "ticks": 15840,
            "time": 20.625,
            "velocity": 0.5511811023622047
          },
          {
            "duration": 0.1875,
            "durationTicks": 144,
            "midi": 40,
            "name": "E2",
            "ticks": 15840,
            "time": 20.625,
            "velocity": 0.5511811023622047
          },
          {
            "duration": 0.1875,
            "durationTicks": 144,
            "midi": 36,
            "name": "C2",
            "ticks": 15840,
            "time": 20.625,
            "velocity": 0.5511811023622047
          },
          {
            "duration": 0.1875,
            "durationTicks": 144,
            "midi": 48,
            "name": "C3",
            "ticks": 15840,
            "time": 20.625,
            "velocity": 0.5511811023622047
          },
          {
            "duration": 0.1875,
            "durationTicks": 144,
            "midi": 55,
            "name": "G3",
            "ticks": 15840,
            "time": 20.625,
            "velocity": 0.5511811023622047
          },
          {
            "duration": 0.1875,
            "durationTicks": 144,
            "midi": 36,
            "name": "C2",
            "ticks": 15984,
            "time": 20.8125,
            "velocity": 0.5511811023622047
          },
          {
            "duration": 0.1875,
            "durationTicks": 144,
            "midi": 43,
            "name": "G2",
            "ticks": 15984,
            "time": 20.8125,
            "velocity": 0.5511811023622047
          },
          {
            "duration": 0.1875,
            "durationTicks": 144,
            "midi": 55,
            "name": "G3",
            "ticks": 15984,
            "time": 20.8125,
            "velocity": 0.5511811023622047
          },
          {
            "duration": 0.1875,
            "durationTicks": 144,
            "midi": 48,
            "name": "C3",
            "ticks": 15984,
            "time": 20.8125,
            "velocity": 0.5511811023622047
          },
          {
            "duration": 0.1875,
            "durationTicks": 144,
            "midi": 60,
            "name": "C4",
            "ticks": 15984,
            "time": 20.8125,
            "velocity": 0.5511811023622047
          },
          {
            "duration": 0.1875,
            "durationTicks": 144,
            "midi": 40,
            "name": "E2",
            "ticks": 15984,
            "time": 20.8125,
            "velocity": 0.5511811023622047
          },
          {
            "duration": 0.1875,
            "durationTicks": 144,
            "midi": 52,
            "name": "E3",
            "ticks": 15984,
            "time": 20.8125,
            "velocity": 0.5511811023622047
          },
          {
            "duration": 0.1875,
            "durationTicks": 144,
            "midi": 50,
            "name": "D3",
            "ticks": 16128,
            "time": 21,
            "velocity": 0.5511811023622047
          },
          {
            "duration": 0.1875,
            "durationTicks": 144,
            "midi": 57,
            "name": "A3",
            "ticks": 16128,
            "time": 21,
            "velocity": 0.5511811023622047
          },
          {
            "duration": 0.1875,
            "durationTicks": 144,
            "midi": 62,
            "name": "D4",
            "ticks": 16128,
            "time": 21,
            "velocity": 0.5511811023622047
          },
          {
            "duration": 0.1875,
            "durationTicks": 144,
            "midi": 54,
            "name": "F#3",
            "ticks": 16128,
            "time": 21,
            "velocity": 0.5511811023622047
          },
          {
            "duration": 0.1875,
            "durationTicks": 144,
            "midi": 45,
            "name": "A2",
            "ticks": 16128,
            "time": 21,
            "velocity": 0.5511811023622047
          },
          {
            "duration": 0.1875,
            "durationTicks": 144,
            "midi": 38,
            "name": "D2",
            "ticks": 16128,
            "time": 21,
            "velocity": 0.5511811023622047
          },
          {
            "duration": 0.1875,
            "durationTicks": 144,
            "midi": 42,
            "name": "F#2",
            "ticks": 16128,
            "time": 21,
            "velocity": 0.5511811023622047
          },
          {
            "duration": 0.1875,
            "durationTicks": 144,
            "midi": 38,
            "name": "D2",
            "ticks": 16416,
            "time": 21.375,
            "velocity": 0.5511811023622047
          },
          {
            "duration": 0.1875,
            "durationTicks": 144,
            "midi": 42,
            "name": "F#2",
            "ticks": 16416,
            "time": 21.375,
            "velocity": 0.5511811023622047
          },
          {
            "duration": 0.1875,
            "durationTicks": 144,
            "midi": 50,
            "name": "D3",
            "ticks": 16416,
            "time": 21.375,
            "velocity": 0.5511811023622047
          },
          {
            "duration": 0.1875,
            "durationTicks": 144,
            "midi": 62,
            "name": "D4",
            "ticks": 16416,
            "time": 21.375,
            "velocity": 0.5511811023622047
          },
          {
            "duration": 0.1875,
            "durationTicks": 144,
            "midi": 57,
            "name": "A3",
            "ticks": 16416,
            "time": 21.375,
            "velocity": 0.5511811023622047
          },
          {
            "duration": 0.1875,
            "durationTicks": 144,
            "midi": 45,
            "name": "A2",
            "ticks": 16416,
            "time": 21.375,
            "velocity": 0.5511811023622047
          },
          {
            "duration": 0.1875,
            "durationTicks": 144,
            "midi": 54,
            "name": "F#3",
            "ticks": 16416,
            "time": 21.375,
            "velocity": 0.5511811023622047
          },
          {
            "duration": 0.1875,
            "durationTicks": 144,
            "midi": 52,
            "name": "E3",
            "ticks": 16704,
            "time": 21.75,
            "velocity": 0.5511811023622047
          },
          {
            "duration": 0.1875,
            "durationTicks": 144,
            "midi": 47,
            "name": "B2",
            "ticks": 16704,
            "time": 21.75,
            "velocity": 0.5511811023622047
          },
          {
            "duration": 0.1875,
            "durationTicks": 144,
            "midi": 59,
            "name": "B3",
            "ticks": 16704,
            "time": 21.75,
            "velocity": 0.5511811023622047
          },
          {
            "duration": 0.1875,
            "durationTicks": 144,
            "midi": 44,
            "name": "G#2",
            "ticks": 16704,
            "time": 21.75,
            "velocity": 0.5511811023622047
          },
          {
            "duration": 0.1875,
            "durationTicks": 144,
            "midi": 40,
            "name": "E2",
            "ticks": 16704,
            "time": 21.75,
            "velocity": 0.5511811023622047
          },
          {
            "duration": 0.1875,
            "durationTicks": 144,
            "midi": 64,
            "name": "E4",
            "ticks": 16704,
            "time": 21.75,
            "velocity": 0.5511811023622047
          },
          {
            "duration": 0.1875,
            "durationTicks": 144,
            "midi": 56,
            "name": "G#3",
            "ticks": 16704,
            "time": 21.75,
            "velocity": 0.5511811023622047
          },
          {
            "duration": 0.1875,
            "durationTicks": 144,
            "midi": 44,
            "name": "G#2",
            "ticks": 16992,
            "time": 22.125,
            "velocity": 0.5511811023622047
          },
          {
            "duration": 0.1875,
            "durationTicks": 144,
            "midi": 56,
            "name": "G#3",
            "ticks": 16992,
            "time": 22.125,
            "velocity": 0.5511811023622047
          },
          {
            "duration": 0.1875,
            "durationTicks": 144,
            "midi": 47,
            "name": "B2",
            "ticks": 16992,
            "time": 22.125,
            "velocity": 0.5511811023622047
          },
          {
            "duration": 0.1875,
            "durationTicks": 144,
            "midi": 52,
            "name": "E3",
            "ticks": 16992,
            "time": 22.125,
            "velocity": 0.5511811023622047
          },
          {
            "duration": 0.1875,
            "durationTicks": 144,
            "midi": 64,
            "name": "E4",
            "ticks": 16992,
            "time": 22.125,
            "velocity": 0.5511811023622047
          },
          {
            "duration": 0.1875,
            "durationTicks": 144,
            "midi": 40,
            "name": "E2",
            "ticks": 16992,
            "time": 22.125,
            "velocity": 0.5511811023622047
          },
          {
            "duration": 0.1875,
            "durationTicks": 144,
            "midi": 59,
            "name": "B3",
            "ticks": 16992,
            "time": 22.125,
            "velocity": 0.5511811023622047
          },
          {
            "duration": 0.1875,
            "durationTicks": 144,
            "midi": 40,
            "name": "E2",
            "ticks": 17136,
            "time": 22.3125,
            "velocity": 0.5511811023622047
          },
          {
            "duration": 0.1875,
            "durationTicks": 144,
            "midi": 44,
            "name": "G#2",
            "ticks": 17136,
            "time": 22.3125,
            "velocity": 0.5511811023622047
          },
          {
            "duration": 0.1875,
            "durationTicks": 144,
            "midi": 56,
            "name": "G#3",
            "ticks": 17136,
            "time": 22.3125,
            "velocity": 0.5511811023622047
          },
          {
            "duration": 0.1875,
            "durationTicks": 144,
            "midi": 52,
            "name": "E3",
            "ticks": 17136,
            "time": 22.3125,
            "velocity": 0.5511811023622047
          },
          {
            "duration": 0.1875,
            "durationTicks": 144,
            "midi": 59,
            "name": "B3",
            "ticks": 17136,
            "time": 22.3125,
            "velocity": 0.5511811023622047
          },
          {
            "duration": 0.1875,
            "durationTicks": 144,
            "midi": 47,
            "name": "B2",
            "ticks": 17136,
            "time": 22.3125,
            "velocity": 0.5511811023622047
          },
          {
            "duration": 0.1875,
            "durationTicks": 144,
            "midi": 64,
            "name": "E4",
            "ticks": 17136,
            "time": 22.3125,
            "velocity": 0.5511811023622047
          },
          {
            "duration": 0.1875,
            "durationTicks": 144,
            "midi": 52,
            "name": "E3",
            "ticks": 17424,
            "time": 22.6875,
            "velocity": 0.5511811023622047
          },
          {
            "duration": 0.1875,
            "durationTicks": 144,
            "midi": 59,
            "name": "B3",
            "ticks": 17424,
            "time": 22.6875,
            "velocity": 0.5511811023622047
          },
          {
            "duration": 0.1875,
            "durationTicks": 144,
            "midi": 64,
            "name": "E4",
            "ticks": 17424,
            "time": 22.6875,
            "velocity": 0.5511811023622047
          },
          {
            "duration": 0.1875,
            "durationTicks": 144,
            "midi": 47,
            "name": "B2",
            "ticks": 17424,
            "time": 22.6875,
            "velocity": 0.5511811023622047
          },
          {
            "duration": 0.1875,
            "durationTicks": 144,
            "midi": 40,
            "name": "E2",
            "ticks": 17424,
            "time": 22.6875,
            "velocity": 0.5511811023622047
          },
          {
            "duration": 0.1875,
            "durationTicks": 144,
            "midi": 44,
            "name": "G#2",
            "ticks": 17424,
            "time": 22.6875,
            "velocity": 0.5511811023622047
          },
          {
            "duration": 0.1875,
            "durationTicks": 144,
            "midi": 56,
            "name": "G#3",
            "ticks": 17424,
            "time": 22.6875,
            "velocity": 0.5511811023622047
          },
          {
            "duration": 0.1875,
            "durationTicks": 144,
            "midi": 64,
            "name": "E4",
            "ticks": 17568,
            "time": 22.875,
            "velocity": 0.5511811023622047
          },
          {
            "duration": 0.1875,
            "durationTicks": 144,
            "midi": 52,
            "name": "E3",
            "ticks": 17568,
            "time": 22.875,
            "velocity": 0.5511811023622047
          },
          {
            "duration": 0.1875,
            "durationTicks": 144,
            "midi": 56,
            "name": "G#3",
            "ticks": 17568,
            "time": 22.875,
            "velocity": 0.5511811023622047
          },
          {
            "duration": 0.1875,
            "durationTicks": 144,
            "midi": 59,
            "name": "B3",
            "ticks": 17568,
            "time": 22.875,
            "velocity": 0.5511811023622047
          },
          {
            "duration": 0.1875,
            "durationTicks": 144,
            "midi": 47,
            "name": "B2",
            "ticks": 17568,
            "time": 22.875,
            "velocity": 0.5511811023622047
          },
          {
            "duration": 0.1875,
            "durationTicks": 144,
            "midi": 40,
            "name": "E2",
            "ticks": 17568,
            "time": 22.875,
            "velocity": 0.5511811023622047
          },
          {
            "duration": 0.1875,
            "durationTicks": 144,
            "midi": 44,
            "name": "G#2",
            "ticks": 17568,
            "time": 22.875,
            "velocity": 0.5511811023622047
          },
          {
            "duration": 0.1875,
            "durationTicks": 144,
            "midi": 40,
            "name": "E2",
            "ticks": 17712,
            "time": 23.0625,
            "velocity": 0.5511811023622047
          },
          {
            "duration": 0.1875,
            "durationTicks": 144,
            "midi": 47,
            "name": "B2",
            "ticks": 17712,
            "time": 23.0625,
            "velocity": 0.5511811023622047
          },
          {
            "duration": 0.1875,
            "durationTicks": 144,
            "midi": 56,
            "name": "G#3",
            "ticks": 17712,
            "time": 23.0625,
            "velocity": 0.5511811023622047
          },
          {
            "duration": 0.1875,
            "durationTicks": 144,
            "midi": 59,
            "name": "B3",
            "ticks": 17712,
            "time": 23.0625,
            "velocity": 0.5511811023622047
          },
          {
            "duration": 0.1875,
            "durationTicks": 144,
            "midi": 52,
            "name": "E3",
            "ticks": 17712,
            "time": 23.0625,
            "velocity": 0.5511811023622047
          },
          {
            "duration": 0.1875,
            "durationTicks": 144,
            "midi": 64,
            "name": "E4",
            "ticks": 17712,
            "time": 23.0625,
            "velocity": 0.5511811023622047
          },
          {
            "duration": 0.1875,
            "durationTicks": 144,
            "midi": 44,
            "name": "G#2",
            "ticks": 17712,
            "time": 23.0625,
            "velocity": 0.5511811023622047
          },
          {
            "duration": 0.1875,
            "durationTicks": 144,
            "midi": 44,
            "name": "G#2",
            "ticks": 17856,
            "time": 23.25,
            "velocity": 0.5511811023622047
          },
          {
            "duration": 0.1875,
            "durationTicks": 144,
            "midi": 47,
            "name": "B2",
            "ticks": 17856,
            "time": 23.25,
            "velocity": 0.5511811023622047
          },
          {
            "duration": 0.1875,
            "durationTicks": 144,
            "midi": 59,
            "name": "B3",
            "ticks": 17856,
            "time": 23.25,
            "velocity": 0.5511811023622047
          },
          {
            "duration": 0.1875,
            "durationTicks": 144,
            "midi": 40,
            "name": "E2",
            "ticks": 17856,
            "time": 23.25,
            "velocity": 0.5511811023622047
          },
          {
            "duration": 0.1875,
            "durationTicks": 144,
            "midi": 56,
            "name": "G#3",
            "ticks": 17856,
            "time": 23.25,
            "velocity": 0.5511811023622047
          },
          {
            "duration": 0.1875,
            "durationTicks": 144,
            "midi": 64,
            "name": "E4",
            "ticks": 17856,
            "time": 23.25,
            "velocity": 0.5511811023622047
          },
          {
            "duration": 0.1875,
            "durationTicks": 144,
            "midi": 52,
            "name": "E3",
            "ticks": 17856,
            "time": 23.25,
            "velocity": 0.5511811023622047
          },
          {
            "duration": 0.1875,
            "durationTicks": 144,
            "midi": 56,
            "name": "G#3",
            "ticks": 18144,
            "time": 23.625,
            "velocity": 0.5511811023622047
          },
          {
            "duration": 0.1875,
            "durationTicks": 144,
            "midi": 44,
            "name": "G#2",
            "ticks": 18144,
            "time": 23.625,
            "velocity": 0.5511811023622047
          },
          {
            "duration": 0.1875,
            "durationTicks": 144,
            "midi": 52,
            "name": "E3",
            "ticks": 18144,
            "time": 23.625,
            "velocity": 0.5511811023622047
          },
          {
            "duration": 0.1875,
            "durationTicks": 144,
            "midi": 64,
            "name": "E4",
            "ticks": 18144,
            "time": 23.625,
            "velocity": 0.5511811023622047
          },
          {
            "duration": 0.1875,
            "durationTicks": 144,
            "midi": 59,
            "name": "B3",
            "ticks": 18144,
            "time": 23.625,
            "velocity": 0.5511811023622047
          },
          {
            "duration": 0.1875,
            "durationTicks": 144,
            "midi": 40,
            "name": "E2",
            "ticks": 18144,
            "time": 23.625,
            "velocity": 0.5511811023622047
          },
          {
            "duration": 0.1875,
            "durationTicks": 144,
            "midi": 47,
            "name": "B2",
            "ticks": 18144,
            "time": 23.625,
            "velocity": 0.5511811023622047
          },
          {
            "duration": 0.1875,
            "durationTicks": 144,
            "midi": 56,
            "name": "G#3",
            "ticks": 18288,
            "time": 23.8125,
            "velocity": 0.5511811023622047
          },
          {
            "duration": 0.1875,
            "durationTicks": 144,
            "midi": 47,
            "name": "B2",
            "ticks": 18288,
            "time": 23.8125,
            "velocity": 0.5511811023622047
          },
          {
            "duration": 0.1875,
            "durationTicks": 144,
            "midi": 64,
            "name": "E4",
            "ticks": 18288,
            "time": 23.8125,
            "velocity": 0.5511811023622047
          },
          {
            "duration": 0.1875,
            "durationTicks": 144,
            "midi": 59,
            "name": "B3",
            "ticks": 18288,
            "time": 23.8125,
            "velocity": 0.5511811023622047
          },
          {
            "duration": 0.1875,
            "durationTicks": 144,
            "midi": 44,
            "name": "G#2",
            "ticks": 18288,
            "time": 23.8125,
            "velocity": 0.5511811023622047
          },
          {
            "duration": 0.1875,
            "durationTicks": 144,
            "midi": 52,
            "name": "E3",
            "ticks": 18288,
            "time": 23.8125,
            "velocity": 0.5511811023622047
          },
          {
            "duration": 0.1875,
            "durationTicks": 144,
            "midi": 40,
            "name": "E2",
            "ticks": 18288,
            "time": 23.8125,
            "velocity": 0.5511811023622047
          },
          {
            "duration": 0.1875,
            "durationTicks": 144,
            "midi": 44,
            "name": "G#2",
            "ticks": 18576,
            "time": 24.1875,
            "velocity": 0.5511811023622047
          },
          {
            "duration": 0.1875,
            "durationTicks": 144,
            "midi": 40,
            "name": "E2",
            "ticks": 18576,
            "time": 24.1875,
            "velocity": 0.5511811023622047
          },
          {
            "duration": 0.1875,
            "durationTicks": 144,
            "midi": 59,
            "name": "B3",
            "ticks": 18576,
            "time": 24.1875,
            "velocity": 0.5511811023622047
          },
          {
            "duration": 0.1875,
            "durationTicks": 144,
            "midi": 56,
            "name": "G#3",
            "ticks": 18576,
            "time": 24.1875,
            "velocity": 0.5511811023622047
          },
          {
            "duration": 0.1875,
            "durationTicks": 144,
            "midi": 47,
            "name": "B2",
            "ticks": 18576,
            "time": 24.1875,
            "velocity": 0.5511811023622047
          },
          {
            "duration": 0.1875,
            "durationTicks": 144,
            "midi": 64,
            "name": "E4",
            "ticks": 18576,
            "time": 24.1875,
            "velocity": 0.5511811023622047
          },
          {
            "duration": 0.1875,
            "durationTicks": 144,
            "midi": 52,
            "name": "E3",
            "ticks": 18576,
            "time": 24.1875,
            "velocity": 0.5511811023622047
          },
          {
            "duration": 0.1875,
            "durationTicks": 144,
            "midi": 40,
            "name": "E2",
            "ticks": 18720,
            "time": 24.375,
            "velocity": 0.5511811023622047
          },
          {
            "duration": 0.1875,
            "durationTicks": 144,
            "midi": 44,
            "name": "G#2",
            "ticks": 18720,
            "time": 24.375,
            "velocity": 0.5511811023622047
          },
          {
            "duration": 0.1875,
            "durationTicks": 144,
            "midi": 56,
            "name": "G#3",
            "ticks": 18720,
            "time": 24.375,
            "velocity": 0.5511811023622047
          },
          {
            "duration": 0.1875,
            "durationTicks": 144,
            "midi": 64,
            "name": "E4",
            "ticks": 18720,
            "time": 24.375,
            "velocity": 0.5511811023622047
          },
          {
            "duration": 0.1875,
            "durationTicks": 144,
            "midi": 47,
            "name": "B2",
            "ticks": 18720,
            "time": 24.375,
            "velocity": 0.5511811023622047
          },
          {
            "duration": 0.1875,
            "durationTicks": 144,
            "midi": 59,
            "name": "B3",
            "ticks": 18720,
            "time": 24.375,
            "velocity": 0.5511811023622047
          },
          {
            "duration": 0.1875,
            "durationTicks": 144,
            "midi": 52,
            "name": "E3",
            "ticks": 18720,
            "time": 24.375,
            "velocity": 0.5511811023622047
          },
          {
            "duration": 0.1875,
            "durationTicks": 144,
            "midi": 59,
            "name": "B3",
            "ticks": 18864,
            "time": 24.5625,
            "velocity": 0.5511811023622047
          },
          {
            "duration": 0.1875,
            "durationTicks": 144,
            "midi": 56,
            "name": "G#3",
            "ticks": 18864,
            "time": 24.5625,
            "velocity": 0.5511811023622047
          },
          {
            "duration": 0.1875,
            "durationTicks": 144,
            "midi": 52,
            "name": "E3",
            "ticks": 18864,
            "time": 24.5625,
            "velocity": 0.5511811023622047
          },
          {
            "duration": 0.1875,
            "durationTicks": 144,
            "midi": 64,
            "name": "E4",
            "ticks": 18864,
            "time": 24.5625,
            "velocity": 0.5511811023622047
          },
          {
            "duration": 0.1875,
            "durationTicks": 144,
            "midi": 44,
            "name": "G#2",
            "ticks": 18864,
            "time": 24.5625,
            "velocity": 0.5511811023622047
          },
          {
            "duration": 0.1875,
            "durationTicks": 144,
            "midi": 40,
            "name": "E2",
            "ticks": 18864,
            "time": 24.5625,
            "velocity": 0.5511811023622047
          },
          {
            "duration": 0.1875,
            "durationTicks": 144,
            "midi": 47,
            "name": "B2",
            "ticks": 18864,
            "time": 24.5625,
            "velocity": 0.5511811023622047
          },
          {
            "duration": 0.1875,
            "durationTicks": 144,
            "midi": 47,
            "name": "B2",
            "ticks": 19008,
            "time": 24.75,
            "velocity": 0.5511811023622047
          },
          {
            "duration": 0.1875,
            "durationTicks": 144,
            "midi": 55,
            "name": "G3",
            "ticks": 19008,
            "time": 24.75,
            "velocity": 0.5511811023622047
          },
          {
            "duration": 0.1875,
            "durationTicks": 144,
            "midi": 50,
            "name": "D3",
            "ticks": 19008,
            "time": 24.75,
            "velocity": 0.5511811023622047
          },
          {
            "duration": 0.1875,
            "durationTicks": 144,
            "midi": 62,
            "name": "D4",
            "ticks": 19008,
            "time": 24.75,
            "velocity": 0.5511811023622047
          },
          {
            "duration": 0.1875,
            "durationTicks": 144,
            "midi": 59,
            "name": "B3",
            "ticks": 19008,
            "time": 24.75,
            "velocity": 0.5511811023622047
          },
          {
            "duration": 0.1875,
            "durationTicks": 144,
            "midi": 43,
            "name": "G2",
            "ticks": 19008,
            "time": 24.75,
            "velocity": 0.5511811023622047
          },
          {
            "duration": 0.1875,
            "durationTicks": 144,
            "midi": 67,
            "name": "G4",
            "ticks": 19008,
            "time": 24.75,
            "velocity": 0.5511811023622047
          },
          {
            "duration": 0.1875,
            "durationTicks": 144,
            "midi": 59,
            "name": "B3",
            "ticks": 19296,
            "time": 25.125,
            "velocity": 0.5511811023622047
          },
          {
            "duration": 0.1875,
            "durationTicks": 144,
            "midi": 55,
            "name": "G3",
            "ticks": 19296,
            "time": 25.125,
            "velocity": 0.5511811023622047
          },
          {
            "duration": 0.1875,
            "durationTicks": 144,
            "midi": 50,
            "name": "D3",
            "ticks": 19296,
            "time": 25.125,
            "velocity": 0.5511811023622047
          },
          {
            "duration": 0.1875,
            "durationTicks": 144,
            "midi": 43,
            "name": "G2",
            "ticks": 19296,
            "time": 25.125,
            "velocity": 0.5511811023622047
          },
          {
            "duration": 0.1875,
            "durationTicks": 144,
            "midi": 67,
            "name": "G4",
            "ticks": 19296,
            "time": 25.125,
            "velocity": 0.5511811023622047
          },
          {
            "duration": 0.1875,
            "durationTicks": 144,
            "midi": 47,
            "name": "B2",
            "ticks": 19296,
            "time": 25.125,
            "velocity": 0.5511811023622047
          },
          {
            "duration": 0.1875,
            "durationTicks": 144,
            "midi": 62,
            "name": "D4",
            "ticks": 19296,
            "time": 25.125,
            "velocity": 0.5511811023622047
          },
          {
            "duration": 0.1875,
            "durationTicks": 144,
            "midi": 47,
            "name": "B2",
            "ticks": 19440,
            "time": 25.3125,
            "velocity": 0.5511811023622047
          },
          {
            "duration": 0.1875,
            "durationTicks": 144,
            "midi": 67,
            "name": "G4",
            "ticks": 19440,
            "time": 25.3125,
            "velocity": 0.5511811023622047
          },
          {
            "duration": 0.1875,
            "durationTicks": 144,
            "midi": 43,
            "name": "G2",
            "ticks": 19440,
            "time": 25.3125,
            "velocity": 0.5511811023622047
          },
          {
            "duration": 0.1875,
            "durationTicks": 144,
            "midi": 59,
            "name": "B3",
            "ticks": 19440,
            "time": 25.3125,
            "velocity": 0.5511811023622047
          },
          {
            "duration": 0.1875,
            "durationTicks": 144,
            "midi": 62,
            "name": "D4",
            "ticks": 19440,
            "time": 25.3125,
            "velocity": 0.5511811023622047
          },
          {
            "duration": 0.1875,
            "durationTicks": 144,
            "midi": 55,
            "name": "G3",
            "ticks": 19440,
            "time": 25.3125,
            "velocity": 0.5511811023622047
          },
          {
            "duration": 0.1875,
            "durationTicks": 144,
            "midi": 50,
            "name": "D3",
            "ticks": 19440,
            "time": 25.3125,
            "velocity": 0.5511811023622047
          },
          {
            "duration": 0.1875,
            "durationTicks": 144,
            "midi": 47,
            "name": "B2",
            "ticks": 19728,
            "time": 25.6875,
            "velocity": 0.5511811023622047
          },
          {
            "duration": 0.1875,
            "durationTicks": 144,
            "midi": 55,
            "name": "G3",
            "ticks": 19728,
            "time": 25.6875,
            "velocity": 0.5511811023622047
          },
          {
            "duration": 0.1875,
            "durationTicks": 144,
            "midi": 50,
            "name": "D3",
            "ticks": 19728,
            "time": 25.6875,
            "velocity": 0.5511811023622047
          },
          {
            "duration": 0.1875,
            "durationTicks": 144,
            "midi": 43,
            "name": "G2",
            "ticks": 19728,
            "time": 25.6875,
            "velocity": 0.5511811023622047
          },
          {
            "duration": 0.1875,
            "durationTicks": 144,
            "midi": 67,
            "name": "G4",
            "ticks": 19728,
            "time": 25.6875,
            "velocity": 0.5511811023622047
          },
          {
            "duration": 0.1875,
            "durationTicks": 144,
            "midi": 62,
            "name": "D4",
            "ticks": 19728,
            "time": 25.6875,
            "velocity": 0.5511811023622047
          },
          {
            "duration": 0.1875,
            "durationTicks": 144,
            "midi": 59,
            "name": "B3",
            "ticks": 19728,
            "time": 25.6875,
            "velocity": 0.5511811023622047
          },
          {
            "duration": 0.1875,
            "durationTicks": 144,
            "midi": 43,
            "name": "G2",
            "ticks": 19872,
            "time": 25.875,
            "velocity": 0.5511811023622047
          },
          {
            "duration": 0.1875,
            "durationTicks": 144,
            "midi": 67,
            "name": "G4",
            "ticks": 19872,
            "time": 25.875,
            "velocity": 0.5511811023622047
          },
          {
            "duration": 0.1875,
            "durationTicks": 144,
            "midi": 47,
            "name": "B2",
            "ticks": 19872,
            "time": 25.875,
            "velocity": 0.5511811023622047
          },
          {
            "duration": 0.1875,
            "durationTicks": 144,
            "midi": 62,
            "name": "D4",
            "ticks": 19872,
            "time": 25.875,
            "velocity": 0.5511811023622047
          },
          {
            "duration": 0.1875,
            "durationTicks": 144,
            "midi": 50,
            "name": "D3",
            "ticks": 19872,
            "time": 25.875,
            "velocity": 0.5511811023622047
          },
          {
            "duration": 0.1875,
            "durationTicks": 144,
            "midi": 59,
            "name": "B3",
            "ticks": 19872,
            "time": 25.875,
            "velocity": 0.5511811023622047
          },
          {
            "duration": 0.1875,
            "durationTicks": 144,
            "midi": 55,
            "name": "G3",
            "ticks": 19872,
            "time": 25.875,
            "velocity": 0.5511811023622047
          },
          {
            "duration": 0.1875,
            "durationTicks": 144,
            "midi": 62,
            "name": "D4",
            "ticks": 20016,
            "time": 26.0625,
            "velocity": 0.5511811023622047
          },
          {
            "duration": 0.1875,
            "durationTicks": 144,
            "midi": 67,
            "name": "G4",
            "ticks": 20016,
            "time": 26.0625,
            "velocity": 0.5511811023622047
          },
          {
            "duration": 0.1875,
            "durationTicks": 144,
            "midi": 50,
            "name": "D3",
            "ticks": 20016,
            "time": 26.0625,
            "velocity": 0.5511811023622047
          },
          {
            "duration": 0.1875,
            "durationTicks": 144,
            "midi": 55,
            "name": "G3",
            "ticks": 20016,
            "time": 26.0625,
            "velocity": 0.5511811023622047
          },
          {
            "duration": 0.1875,
            "durationTicks": 144,
            "midi": 47,
            "name": "B2",
            "ticks": 20016,
            "time": 26.0625,
            "velocity": 0.5511811023622047
          },
          {
            "duration": 0.1875,
            "durationTicks": 144,
            "midi": 43,
            "name": "G2",
            "ticks": 20016,
            "time": 26.0625,
            "velocity": 0.5511811023622047
          },
          {
            "duration": 0.1875,
            "durationTicks": 144,
            "midi": 59,
            "name": "B3",
            "ticks": 20016,
            "time": 26.0625,
            "velocity": 0.5511811023622047
          },
          {
            "duration": 0.1875,
            "durationTicks": 144,
            "midi": 36,
            "name": "C2",
            "ticks": 20160,
            "time": 26.25,
            "velocity": 0.5511811023622047
          },
          {
            "duration": 0.1875,
            "durationTicks": 144,
            "midi": 40,
            "name": "E2",
            "ticks": 20160,
            "time": 26.25,
            "velocity": 0.5511811023622047
          },
          {
            "duration": 0.1875,
            "durationTicks": 144,
            "midi": 52,
            "name": "E3",
            "ticks": 20160,
            "time": 26.25,
            "velocity": 0.5511811023622047
          },
          {
            "duration": 0.1875,
            "durationTicks": 144,
            "midi": 48,
            "name": "C3",
            "ticks": 20160,
            "time": 26.25,
            "velocity": 0.5511811023622047
          },
          {
            "duration": 0.1875,
            "durationTicks": 144,
            "midi": 60,
            "name": "C4",
            "ticks": 20160,
            "time": 26.25,
            "velocity": 0.5511811023622047
          },
          {
            "duration": 0.1875,
            "durationTicks": 144,
            "midi": 55,
            "name": "G3",
            "ticks": 20160,
            "time": 26.25,
            "velocity": 0.5511811023622047
          },
          {
            "duration": 0.1875,
            "durationTicks": 144,
            "midi": 43,
            "name": "G2",
            "ticks": 20160,
            "time": 26.25,
            "velocity": 0.5511811023622047
          },
          {
            "duration": 0.1875,
            "durationTicks": 144,
            "midi": 48,
            "name": "C3",
            "ticks": 20448,
            "time": 26.625,
            "velocity": 0.5511811023622047
          },
          {
            "duration": 0.1875,
            "durationTicks": 144,
            "midi": 36,
            "name": "C2",
            "ticks": 20448,
            "time": 26.625,
            "velocity": 0.5511811023622047
          },
          {
            "duration": 0.1875,
            "durationTicks": 144,
            "midi": 43,
            "name": "G2",
            "ticks": 20448,
            "time": 26.625,
            "velocity": 0.5511811023622047
          },
          {
            "duration": 0.1875,
            "durationTicks": 144,
            "midi": 40,
            "name": "E2",
            "ticks": 20448,
            "time": 26.625,
            "velocity": 0.5511811023622047
          },
          {
            "duration": 0.1875,
            "durationTicks": 144,
            "midi": 55,
            "name": "G3",
            "ticks": 20448,
            "time": 26.625,
            "velocity": 0.5511811023622047
          },
          {
            "duration": 0.1875,
            "durationTicks": 144,
            "midi": 52,
            "name": "E3",
            "ticks": 20448,
            "time": 26.625,
            "velocity": 0.5511811023622047
          },
          {
            "duration": 0.1875,
            "durationTicks": 144,
            "midi": 60,
            "name": "C4",
            "ticks": 20448,
            "time": 26.625,
            "velocity": 0.5511811023622047
          },
          {
            "duration": 0.1875,
            "durationTicks": 144,
            "midi": 43,
            "name": "G2",
            "ticks": 20592,
            "time": 26.8125,
            "velocity": 0.5511811023622047
          },
          {
            "duration": 0.1875,
            "durationTicks": 144,
            "midi": 40,
            "name": "E2",
            "ticks": 20592,
            "time": 26.8125,
            "velocity": 0.5511811023622047
          },
          {
            "duration": 0.1875,
            "durationTicks": 144,
            "midi": 36,
            "name": "C2",
            "ticks": 20592,
            "time": 26.8125,
            "velocity": 0.5511811023622047
          },
          {
            "duration": 0.1875,
            "durationTicks": 144,
            "midi": 52,
            "name": "E3",
            "ticks": 20592,
            "time": 26.8125,
            "velocity": 0.5511811023622047
          },
          {
            "duration": 0.1875,
            "durationTicks": 144,
            "midi": 55,
            "name": "G3",
            "ticks": 20592,
            "time": 26.8125,
            "velocity": 0.5511811023622047
          },
          {
            "duration": 0.1875,
            "durationTicks": 144,
            "midi": 48,
            "name": "C3",
            "ticks": 20592,
            "time": 26.8125,
            "velocity": 0.5511811023622047
          },
          {
            "duration": 0.1875,
            "durationTicks": 144,
            "midi": 60,
            "name": "C4",
            "ticks": 20592,
            "time": 26.8125,
            "velocity": 0.5511811023622047
          },
          {
            "duration": 0.1875,
            "durationTicks": 144,
            "midi": 48,
            "name": "C3",
            "ticks": 20880,
            "time": 27.1875,
            "velocity": 0.5511811023622047
          },
          {
            "duration": 0.1875,
            "durationTicks": 144,
            "midi": 60,
            "name": "C4",
            "ticks": 20880,
            "time": 27.1875,
            "velocity": 0.5511811023622047
          },
          {
            "duration": 0.1875,
            "durationTicks": 144,
            "midi": 43,
            "name": "G2",
            "ticks": 20880,
            "time": 27.1875,
            "velocity": 0.5511811023622047
          },
          {
            "duration": 0.1875,
            "durationTicks": 144,
            "midi": 55,
            "name": "G3",
            "ticks": 20880,
            "time": 27.1875,
            "velocity": 0.5511811023622047
          },
          {
            "duration": 0.1875,
            "durationTicks": 144,
            "midi": 40,
            "name": "E2",
            "ticks": 20880,
            "time": 27.1875,
            "velocity": 0.5511811023622047
          },
          {
            "duration": 0.1875,
            "durationTicks": 144,
            "midi": 36,
            "name": "C2",
            "ticks": 20880,
            "time": 27.1875,
            "velocity": 0.5511811023622047
          },
          {
            "duration": 0.1875,
            "durationTicks": 144,
            "midi": 52,
            "name": "E3",
            "ticks": 20880,
            "time": 27.1875,
            "velocity": 0.5511811023622047
          },
          {
            "duration": 0.1875,
            "durationTicks": 144,
            "midi": 52,
            "name": "E3",
            "ticks": 21024,
            "time": 27.375,
            "velocity": 0.5511811023622047
          },
          {
            "duration": 0.1875,
            "durationTicks": 144,
            "midi": 43,
            "name": "G2",
            "ticks": 21024,
            "time": 27.375,
            "velocity": 0.5511811023622047
          },
          {
            "duration": 0.1875,
            "durationTicks": 144,
            "midi": 48,
            "name": "C3",
            "ticks": 21024,
            "time": 27.375,
            "velocity": 0.5511811023622047
          },
          {
            "duration": 0.1875,
            "durationTicks": 144,
            "midi": 40,
            "name": "E2",
            "ticks": 21024,
            "time": 27.375,
            "velocity": 0.5511811023622047
          },
          {
            "duration": 0.1875,
            "durationTicks": 144,
            "midi": 60,
            "name": "C4",
            "ticks": 21024,
            "time": 27.375,
            "velocity": 0.5511811023622047
          },
          {
            "duration": 0.1875,
            "durationTicks": 144,
            "midi": 55,
            "name": "G3",
            "ticks": 21024,
            "time": 27.375,
            "velocity": 0.5511811023622047
          },
          {
            "duration": 0.1875,
            "durationTicks": 144,
            "midi": 36,
            "name": "C2",
            "ticks": 21024,
            "time": 27.375,
            "velocity": 0.5511811023622047
          },
          {
            "duration": 0.1875,
            "durationTicks": 144,
            "midi": 60,
            "name": "C4",
            "ticks": 21168,
            "time": 27.5625,
            "velocity": 0.5511811023622047
          },
          {
            "duration": 0.1875,
            "durationTicks": 144,
            "midi": 55,
            "name": "G3",
            "ticks": 21168,
            "time": 27.5625,
            "velocity": 0.5511811023622047
          },
          {
            "duration": 0.1875,
            "durationTicks": 144,
            "midi": 36,
            "name": "C2",
            "ticks": 21168,
            "time": 27.5625,
            "velocity": 0.5511811023622047
          },
          {
            "duration": 0.1875,
            "durationTicks": 144,
            "midi": 43,
            "name": "G2",
            "ticks": 21168,
            "time": 27.5625,
            "velocity": 0.5511811023622047
          },
          {
            "duration": 0.1875,
            "durationTicks": 144,
            "midi": 40,
            "name": "E2",
            "ticks": 21168,
            "time": 27.5625,
            "velocity": 0.5511811023622047
          },
          {
            "duration": 0.1875,
            "durationTicks": 144,
            "midi": 48,
            "name": "C3",
            "ticks": 21168,
            "time": 27.5625,
            "velocity": 0.5511811023622047
          },
          {
            "duration": 0.1875,
            "durationTicks": 144,
            "midi": 52,
            "name": "E3",
            "ticks": 21168,
            "time": 27.5625,
            "velocity": 0.5511811023622047
          },
          {
            "duration": 0.1875,
            "durationTicks": 144,
            "midi": 55,
            "name": "G3",
            "ticks": 21312,
            "time": 27.75,
            "velocity": 0.5511811023622047
          },
          {
            "duration": 0.1875,
            "durationTicks": 144,
            "midi": 60,
            "name": "C4",
            "ticks": 21312,
            "time": 27.75,
            "velocity": 0.5511811023622047
          },
          {
            "duration": 0.1875,
            "durationTicks": 144,
            "midi": 40,
            "name": "E2",
            "ticks": 21312,
            "time": 27.75,
            "velocity": 0.5511811023622047
          },
          {
            "duration": 0.1875,
            "durationTicks": 144,
            "midi": 48,
            "name": "C3",
            "ticks": 21312,
            "time": 27.75,
            "velocity": 0.5511811023622047
          },
          {
            "duration": 0.1875,
            "durationTicks": 144,
            "midi": 43,
            "name": "G2",
            "ticks": 21312,
            "time": 27.75,
            "velocity": 0.5511811023622047
          },
          {
            "duration": 0.1875,
            "durationTicks": 144,
            "midi": 36,
            "name": "C2",
            "ticks": 21312,
            "time": 27.75,
            "velocity": 0.5511811023622047
          },
          {
            "duration": 0.1875,
            "durationTicks": 144,
            "midi": 52,
            "name": "E3",
            "ticks": 21312,
            "time": 27.75,
            "velocity": 0.5511811023622047
          },
          {
            "duration": 0.1875,
            "durationTicks": 144,
            "midi": 43,
            "name": "G2",
            "ticks": 21600,
            "time": 28.125,
            "velocity": 0.5511811023622047
          },
          {
            "duration": 0.1875,
            "durationTicks": 144,
            "midi": 36,
            "name": "C2",
            "ticks": 21600,
            "time": 28.125,
            "velocity": 0.5511811023622047
          },
          {
            "duration": 0.1875,
            "durationTicks": 144,
            "midi": 55,
            "name": "G3",
            "ticks": 21600,
            "time": 28.125,
            "velocity": 0.5511811023622047
          },
          {
            "duration": 0.1875,
            "durationTicks": 144,
            "midi": 52,
            "name": "E3",
            "ticks": 21600,
            "time": 28.125,
            "velocity": 0.5511811023622047
          },
          {
            "duration": 0.1875,
            "durationTicks": 144,
            "midi": 48,
            "name": "C3",
            "ticks": 21600,
            "time": 28.125,
            "velocity": 0.5511811023622047
          },
          {
            "duration": 0.1875,
            "durationTicks": 144,
            "midi": 40,
            "name": "E2",
            "ticks": 21600,
            "time": 28.125,
            "velocity": 0.5511811023622047
          },
          {
            "duration": 0.1875,
            "durationTicks": 144,
            "midi": 60,
            "name": "C4",
            "ticks": 21600,
            "time": 28.125,
            "velocity": 0.5511811023622047
          },
          {
            "duration": 0.1875,
            "durationTicks": 144,
            "midi": 40,
            "name": "E2",
            "ticks": 21744,
            "time": 28.3125,
            "velocity": 0.5511811023622047
          },
          {
            "duration": 0.1875,
            "durationTicks": 144,
            "midi": 60,
            "name": "C4",
            "ticks": 21744,
            "time": 28.3125,
            "velocity": 0.5511811023622047
          },
          {
            "duration": 0.1875,
            "durationTicks": 144,
            "midi": 43,
            "name": "G2",
            "ticks": 21744,
            "time": 28.3125,
            "velocity": 0.5511811023622047
          },
          {
            "duration": 0.1875,
            "durationTicks": 144,
            "midi": 55,
            "name": "G3",
            "ticks": 21744,
            "time": 28.3125,
            "velocity": 0.5511811023622047
          },
          {
            "duration": 0.1875,
            "durationTicks": 144,
            "midi": 52,
            "name": "E3",
            "ticks": 21744,
            "time": 28.3125,
            "velocity": 0.5511811023622047
          },
          {
            "duration": 0.1875,
            "durationTicks": 144,
            "midi": 36,
            "name": "C2",
            "ticks": 21744,
            "time": 28.3125,
            "velocity": 0.5511811023622047
          },
          {
            "duration": 0.1875,
            "durationTicks": 144,
            "midi": 48,
            "name": "C3",
            "ticks": 21744,
            "time": 28.3125,
            "velocity": 0.5511811023622047
          },
          {
            "duration": 0.1875,
            "durationTicks": 144,
            "midi": 40,
            "name": "E2",
            "ticks": 22032,
            "time": 28.6875,
            "velocity": 0.5511811023622047
          },
          {
            "duration": 0.1875,
            "durationTicks": 144,
            "midi": 36,
            "name": "C2",
            "ticks": 22032,
            "time": 28.6875,
            "velocity": 0.5511811023622047
          },
          {
            "duration": 0.1875,
            "durationTicks": 144,
            "midi": 43,
            "name": "G2",
            "ticks": 22032,
            "time": 28.6875,
            "velocity": 0.5511811023622047
          },
          {
            "duration": 0.1875,
            "durationTicks": 144,
            "midi": 60,
            "name": "C4",
            "ticks": 22032,
            "time": 28.6875,
            "velocity": 0.5511811023622047
          },
          {
            "duration": 0.1875,
            "durationTicks": 144,
            "midi": 55,
            "name": "G3",
            "ticks": 22032,
            "time": 28.6875,
            "velocity": 0.5511811023622047
          },
          {
            "duration": 0.1875,
            "durationTicks": 144,
            "midi": 48,
            "name": "C3",
            "ticks": 22032,
            "time": 28.6875,
            "velocity": 0.5511811023622047
          },
          {
            "duration": 0.1875,
            "durationTicks": 144,
            "midi": 52,
            "name": "E3",
            "ticks": 22032,
            "time": 28.6875,
            "velocity": 0.5511811023622047
          },
          {
            "duration": 0.1875,
            "durationTicks": 144,
            "midi": 48,
            "name": "C3",
            "ticks": 22176,
            "time": 28.875,
            "velocity": 0.5511811023622047
          },
          {
            "duration": 0.1875,
            "durationTicks": 144,
            "midi": 43,
            "name": "G2",
            "ticks": 22176,
            "time": 28.875,
            "velocity": 0.5511811023622047
          },
          {
            "duration": 0.1875,
            "durationTicks": 144,
            "midi": 60,
            "name": "C4",
            "ticks": 22176,
            "time": 28.875,
            "velocity": 0.5511811023622047
          },
          {
            "duration": 0.1875,
            "durationTicks": 144,
            "midi": 40,
            "name": "E2",
            "ticks": 22176,
            "time": 28.875,
            "velocity": 0.5511811023622047
          },
          {
            "duration": 0.1875,
            "durationTicks": 144,
            "midi": 52,
            "name": "E3",
            "ticks": 22176,
            "time": 28.875,
            "velocity": 0.5511811023622047
          },
          {
            "duration": 0.1875,
            "durationTicks": 144,
            "midi": 36,
            "name": "C2",
            "ticks": 22176,
            "time": 28.875,
            "velocity": 0.5511811023622047
          },
          {
            "duration": 0.1875,
            "durationTicks": 144,
            "midi": 55,
            "name": "G3",
            "ticks": 22176,
            "time": 28.875,
            "velocity": 0.5511811023622047
          },
          {
            "duration": 0.1875,
            "durationTicks": 144,
            "midi": 60,
            "name": "C4",
            "ticks": 22320,
            "time": 29.0625,
            "velocity": 0.5511811023622047
          },
          {
            "duration": 0.1875,
            "durationTicks": 144,
            "midi": 55,
            "name": "G3",
            "ticks": 22320,
            "time": 29.0625,
            "velocity": 0.5511811023622047
          },
          {
            "duration": 0.1875,
            "durationTicks": 144,
            "midi": 43,
            "name": "G2",
            "ticks": 22320,
            "time": 29.0625,
            "velocity": 0.5511811023622047
          },
          {
            "duration": 0.1875,
            "durationTicks": 144,
            "midi": 36,
            "name": "C2",
            "ticks": 22320,
            "time": 29.0625,
            "velocity": 0.5511811023622047
          },
          {
            "duration": 0.1875,
            "durationTicks": 144,
            "midi": 40,
            "name": "E2",
            "ticks": 22320,
            "time": 29.0625,
            "velocity": 0.5511811023622047
          },
          {
            "duration": 0.1875,
            "durationTicks": 144,
            "midi": 48,
            "name": "C3",
            "ticks": 22320,
            "time": 29.0625,
            "velocity": 0.5511811023622047
          },
          {
            "duration": 0.1875,
            "durationTicks": 144,
            "midi": 52,
            "name": "E3",
            "ticks": 22320,
            "time": 29.0625,
            "velocity": 0.5511811023622047
          },
          {
            "duration": 0.1875,
            "durationTicks": 144,
            "midi": 54,
            "name": "F#3",
            "ticks": 22464,
            "time": 29.25,
            "velocity": 0.5511811023622047
          },
          {
            "duration": 0.1875,
            "durationTicks": 144,
            "midi": 50,
            "name": "D3",
            "ticks": 22464,
            "time": 29.25,
            "velocity": 0.5511811023622047
          },
          {
            "duration": 0.1875,
            "durationTicks": 144,
            "midi": 38,
            "name": "D2",
            "ticks": 22464,
            "time": 29.25,
            "velocity": 0.5511811023622047
          },
          {
            "duration": 0.1875,
            "durationTicks": 144,
            "midi": 45,
            "name": "A2",
            "ticks": 22464,
            "time": 29.25,
            "velocity": 0.5511811023622047
          },
          {
            "duration": 0.1875,
            "durationTicks": 144,
            "midi": 62,
            "name": "D4",
            "ticks": 22464,
            "time": 29.25,
            "velocity": 0.5511811023622047
          },
          {
            "duration": 0.1875,
            "durationTicks": 144,
            "midi": 57,
            "name": "A3",
            "ticks": 22464,
            "time": 29.25,
            "velocity": 0.5511811023622047
          },
          {
            "duration": 0.1875,
            "durationTicks": 144,
            "midi": 42,
            "name": "F#2",
            "ticks": 22464,
            "time": 29.25,
            "velocity": 0.5511811023622047
          },
          {
            "duration": 0.1875,
            "durationTicks": 144,
            "midi": 42,
            "name": "F#2",
            "ticks": 22752,
            "time": 29.625,
            "velocity": 0.5511811023622047
          },
          {
            "duration": 0.1875,
            "durationTicks": 144,
            "midi": 38,
            "name": "D2",
            "ticks": 22752,
            "time": 29.625,
            "velocity": 0.5511811023622047
          },
          {
            "duration": 0.1875,
            "durationTicks": 144,
            "midi": 50,
            "name": "D3",
            "ticks": 22752,
            "time": 29.625,
            "velocity": 0.5511811023622047
          },
          {
            "duration": 0.1875,
            "durationTicks": 144,
            "midi": 62,
            "name": "D4",
            "ticks": 22752,
            "time": 29.625,
            "velocity": 0.5511811023622047
          },
          {
            "duration": 0.1875,
            "durationTicks": 144,
            "midi": 57,
            "name": "A3",
            "ticks": 22752,
            "time": 29.625,
            "velocity": 0.5511811023622047
          },
          {
            "duration": 0.1875,
            "durationTicks": 144,
            "midi": 54,
            "name": "F#3",
            "ticks": 22752,
            "time": 29.625,
            "velocity": 0.5511811023622047
          },
          {
            "duration": 0.1875,
            "durationTicks": 144,
            "midi": 45,
            "name": "A2",
            "ticks": 22752,
            "time": 29.625,
            "velocity": 0.5511811023622047
          },
          {
            "duration": 0.1875,
            "durationTicks": 144,
            "midi": 40,
            "name": "E2",
            "ticks": 23040,
            "time": 30,
            "velocity": 0.5511811023622047
          },
          {
            "duration": 0.1875,
            "durationTicks": 144,
            "midi": 52,
            "name": "E3",
            "ticks": 23040,
            "time": 30,
            "velocity": 0.5511811023622047
          },
          {
            "duration": 0.1875,
            "durationTicks": 144,
            "midi": 47,
            "name": "B2",
            "ticks": 23040,
            "time": 30,
            "velocity": 0.5511811023622047
          },
          {
            "duration": 0.1875,
            "durationTicks": 144,
            "midi": 64,
            "name": "E4",
            "ticks": 23040,
            "time": 30,
            "velocity": 0.5511811023622047
          },
          {
            "duration": 0.1875,
            "durationTicks": 144,
            "midi": 56,
            "name": "G#3",
            "ticks": 23040,
            "time": 30,
            "velocity": 0.5511811023622047
          },
          {
            "duration": 0.1875,
            "durationTicks": 144,
            "midi": 59,
            "name": "B3",
            "ticks": 23040,
            "time": 30,
            "velocity": 0.5511811023622047
          },
          {
            "duration": 0.1875,
            "durationTicks": 144,
            "midi": 44,
            "name": "G#2",
            "ticks": 23040,
            "time": 30,
            "velocity": 0.5511811023622047
          },
          {
            "duration": 0.1875,
            "durationTicks": 144,
            "midi": 52,
            "name": "E3",
            "ticks": 23328,
            "time": 30.375,
            "velocity": 0.5511811023622047
          },
          {
            "duration": 0.1875,
            "durationTicks": 144,
            "midi": 64,
            "name": "E4",
            "ticks": 23328,
            "time": 30.375,
            "velocity": 0.5511811023622047
          },
          {
            "duration": 0.1875,
            "durationTicks": 144,
            "midi": 47,
            "name": "B2",
            "ticks": 23328,
            "time": 30.375,
            "velocity": 0.5511811023622047
          },
          {
            "duration": 0.1875,
            "durationTicks": 144,
            "midi": 56,
            "name": "G#3",
            "ticks": 23328,
            "time": 30.375,
            "velocity": 0.5511811023622047
          },
          {
            "duration": 0.1875,
            "durationTicks": 144,
            "midi": 40,
            "name": "E2",
            "ticks": 23328,
            "time": 30.375,
            "velocity": 0.5511811023622047
          },
          {
            "duration": 0.1875,
            "durationTicks": 144,
            "midi": 44,
            "name": "G#2",
            "ticks": 23328,
            "time": 30.375,
            "velocity": 0.5511811023622047
          },
          {
            "duration": 0.1875,
            "durationTicks": 144,
            "midi": 59,
            "name": "B3",
            "ticks": 23328,
            "time": 30.375,
            "velocity": 0.5511811023622047
          },
          {
            "duration": 0.1875,
            "durationTicks": 144,
            "midi": 44,
            "name": "G#2",
            "ticks": 23472,
            "time": 30.5625,
            "velocity": 0.5511811023622047
          },
          {
            "duration": 0.1875,
            "durationTicks": 144,
            "midi": 59,
            "name": "B3",
            "ticks": 23472,
            "time": 30.5625,
            "velocity": 0.5511811023622047
          },
          {
            "duration": 0.1875,
            "durationTicks": 144,
            "midi": 56,
            "name": "G#3",
            "ticks": 23472,
            "time": 30.5625,
            "velocity": 0.5511811023622047
          },
          {
            "duration": 0.1875,
            "durationTicks": 144,
            "midi": 64,
            "name": "E4",
            "ticks": 23472,
            "time": 30.5625,
            "velocity": 0.5511811023622047
          },
          {
            "duration": 0.1875,
            "durationTicks": 144,
            "midi": 47,
            "name": "B2",
            "ticks": 23472,
            "time": 30.5625,
            "velocity": 0.5511811023622047
          },
          {
            "duration": 0.1875,
            "durationTicks": 144,
            "midi": 52,
            "name": "E3",
            "ticks": 23472,
            "time": 30.5625,
            "velocity": 0.5511811023622047
          },
          {
            "duration": 0.1875,
            "durationTicks": 144,
            "midi": 40,
            "name": "E2",
            "ticks": 23472,
            "time": 30.5625,
            "velocity": 0.5511811023622047
          },
          {
            "duration": 0.1875,
            "durationTicks": 144,
            "midi": 52,
            "name": "E3",
            "ticks": 23760,
            "time": 30.9375,
            "velocity": 0.5511811023622047
          },
          {
            "duration": 0.1875,
            "durationTicks": 144,
            "midi": 56,
            "name": "G#3",
            "ticks": 23760,
            "time": 30.9375,
            "velocity": 0.5511811023622047
          },
          {
            "duration": 0.1875,
            "durationTicks": 144,
            "midi": 47,
            "name": "B2",
            "ticks": 23760,
            "time": 30.9375,
            "velocity": 0.5511811023622047
          },
          {
            "duration": 0.1875,
            "durationTicks": 144,
            "midi": 59,
            "name": "B3",
            "ticks": 23760,
            "time": 30.9375,
            "velocity": 0.5511811023622047
          },
          {
            "duration": 0.1875,
            "durationTicks": 144,
            "midi": 40,
            "name": "E2",
            "ticks": 23760,
            "time": 30.9375,
            "velocity": 0.5511811023622047
          },
          {
            "duration": 0.1875,
            "durationTicks": 144,
            "midi": 44,
            "name": "G#2",
            "ticks": 23760,
            "time": 30.9375,
            "velocity": 0.5511811023622047
          },
          {
            "duration": 0.1875,
            "durationTicks": 144,
            "midi": 64,
            "name": "E4",
            "ticks": 23760,
            "time": 30.9375,
            "velocity": 0.5511811023622047
          },
          {
            "duration": 0.1875,
            "durationTicks": 144,
            "midi": 59,
            "name": "B3",
            "ticks": 23904,
            "time": 31.125,
            "velocity": 0.5511811023622047
          },
          {
            "duration": 0.1875,
            "durationTicks": 144,
            "midi": 52,
            "name": "E3",
            "ticks": 23904,
            "time": 31.125,
            "velocity": 0.5511811023622047
          },
          {
            "duration": 0.1875,
            "durationTicks": 144,
            "midi": 47,
            "name": "B2",
            "ticks": 23904,
            "time": 31.125,
            "velocity": 0.5511811023622047
          },
          {
            "duration": 0.1875,
            "durationTicks": 144,
            "midi": 44,
            "name": "G#2",
            "ticks": 23904,
            "time": 31.125,
            "velocity": 0.5511811023622047
          },
          {
            "duration": 0.1875,
            "durationTicks": 144,
            "midi": 64,
            "name": "E4",
            "ticks": 23904,
            "time": 31.125,
            "velocity": 0.5511811023622047
          },
          {
            "duration": 0.1875,
            "durationTicks": 144,
            "midi": 56,
            "name": "G#3",
            "ticks": 23904,
            "time": 31.125,
            "velocity": 0.5511811023622047
          },
          {
            "duration": 0.1875,
            "durationTicks": 144,
            "midi": 40,
            "name": "E2",
            "ticks": 23904,
            "time": 31.125,
            "velocity": 0.5511811023622047
          },
          {
            "duration": 0.1875,
            "durationTicks": 144,
            "midi": 59,
            "name": "B3",
            "ticks": 24048,
            "time": 31.3125,
            "velocity": 0.5511811023622047
          },
          {
            "duration": 0.1875,
            "durationTicks": 144,
            "midi": 40,
            "name": "E2",
            "ticks": 24048,
            "time": 31.3125,
            "velocity": 0.5511811023622047
          },
          {
            "duration": 0.1875,
            "durationTicks": 144,
            "midi": 64,
            "name": "E4",
            "ticks": 24048,
            "time": 31.3125,
            "velocity": 0.5511811023622047
          },
          {
            "duration": 0.1875,
            "durationTicks": 144,
            "midi": 44,
            "name": "G#2",
            "ticks": 24048,
            "time": 31.3125,
            "velocity": 0.5511811023622047
          },
          {
            "duration": 0.1875,
            "durationTicks": 144,
            "midi": 56,
            "name": "G#3",
            "ticks": 24048,
            "time": 31.3125,
            "velocity": 0.5511811023622047
          },
          {
            "duration": 0.1875,
            "durationTicks": 144,
            "midi": 47,
            "name": "B2",
            "ticks": 24048,
            "time": 31.3125,
            "velocity": 0.5511811023622047
          },
          {
            "duration": 0.1875,
            "durationTicks": 144,
            "midi": 52,
            "name": "E3",
            "ticks": 24048,
            "time": 31.3125,
            "velocity": 0.5511811023622047
          },
          {
            "duration": 0.1875,
            "durationTicks": 144,
            "midi": 47,
            "name": "B2",
            "ticks": 24192,
            "time": 31.5,
            "velocity": 0.5511811023622047
          },
          {
            "duration": 0.1875,
            "durationTicks": 144,
            "midi": 56,
            "name": "G#3",
            "ticks": 24192,
            "time": 31.5,
            "velocity": 0.5511811023622047
          },
          {
            "duration": 0.1875,
            "durationTicks": 144,
            "midi": 40,
            "name": "E2",
            "ticks": 24192,
            "time": 31.5,
            "velocity": 0.5511811023622047
          },
          {
            "duration": 0.1875,
            "durationTicks": 144,
            "midi": 52,
            "name": "E3",
            "ticks": 24192,
            "time": 31.5,
            "velocity": 0.5511811023622047
          },
          {
            "duration": 0.1875,
            "durationTicks": 144,
            "midi": 64,
            "name": "E4",
            "ticks": 24192,
            "time": 31.5,
            "velocity": 0.5511811023622047
          },
          {
            "duration": 0.1875,
            "durationTicks": 144,
            "midi": 59,
            "name": "B3",
            "ticks": 24192,
            "time": 31.5,
            "velocity": 0.5511811023622047
          },
          {
            "duration": 0.1875,
            "durationTicks": 144,
            "midi": 44,
            "name": "G#2",
            "ticks": 24192,
            "time": 31.5,
            "velocity": 0.5511811023622047
          },
          {
            "duration": 0.1875,
            "durationTicks": 144,
            "midi": 47,
            "name": "B2",
            "ticks": 24480,
            "time": 31.875,
            "velocity": 0.5511811023622047
          },
          {
            "duration": 0.1875,
            "durationTicks": 144,
            "midi": 59,
            "name": "B3",
            "ticks": 24480,
            "time": 31.875,
            "velocity": 0.5511811023622047
          },
          {
            "duration": 0.1875,
            "durationTicks": 144,
            "midi": 56,
            "name": "G#3",
            "ticks": 24480,
            "time": 31.875,
            "velocity": 0.5511811023622047
          },
          {
            "duration": 0.1875,
            "durationTicks": 144,
            "midi": 52,
            "name": "E3",
            "ticks": 24480,
            "time": 31.875,
            "velocity": 0.5511811023622047
          },
          {
            "duration": 0.1875,
            "durationTicks": 144,
            "midi": 64,
            "name": "E4",
            "ticks": 24480,
            "time": 31.875,
            "velocity": 0.5511811023622047
          },
          {
            "duration": 0.1875,
            "durationTicks": 144,
            "midi": 44,
            "name": "G#2",
            "ticks": 24480,
            "time": 31.875,
            "velocity": 0.5511811023622047
          },
          {
            "duration": 0.1875,
            "durationTicks": 144,
            "midi": 40,
            "name": "E2",
            "ticks": 24480,
            "time": 31.875,
            "velocity": 0.5511811023622047
          },
          {
            "duration": 0.1875,
            "durationTicks": 144,
            "midi": 44,
            "name": "G#2",
            "ticks": 24624,
            "time": 32.0625,
            "velocity": 0.5511811023622047
          },
          {
            "duration": 0.1875,
            "durationTicks": 144,
            "midi": 64,
            "name": "E4",
            "ticks": 24624,
            "time": 32.0625,
            "velocity": 0.5511811023622047
          },
          {
            "duration": 0.1875,
            "durationTicks": 144,
            "midi": 47,
            "name": "B2",
            "ticks": 24624,
            "time": 32.0625,
            "velocity": 0.5511811023622047
          },
          {
            "duration": 0.1875,
            "durationTicks": 144,
            "midi": 52,
            "name": "E3",
            "ticks": 24624,
            "time": 32.0625,
            "velocity": 0.5511811023622047
          },
          {
            "duration": 0.1875,
            "durationTicks": 144,
            "midi": 40,
            "name": "E2",
            "ticks": 24624,
            "time": 32.0625,
            "velocity": 0.5511811023622047
          },
          {
            "duration": 0.1875,
            "durationTicks": 144,
            "midi": 56,
            "name": "G#3",
            "ticks": 24624,
            "time": 32.0625,
            "velocity": 0.5511811023622047
          },
          {
            "duration": 0.1875,
            "durationTicks": 144,
            "midi": 59,
            "name": "B3",
            "ticks": 24624,
            "time": 32.0625,
            "velocity": 0.5511811023622047
          },
          {
            "duration": 0.1875,
            "durationTicks": 144,
            "midi": 52,
            "name": "E3",
            "ticks": 24912,
            "time": 32.4375,
            "velocity": 0.5511811023622047
          },
          {
            "duration": 0.1875,
            "durationTicks": 144,
            "midi": 56,
            "name": "G#3",
            "ticks": 24912,
            "time": 32.4375,
            "velocity": 0.5511811023622047
          },
          {
            "duration": 0.1875,
            "durationTicks": 144,
            "midi": 59,
            "name": "B3",
            "ticks": 24912,
            "time": 32.4375,
            "velocity": 0.5511811023622047
          },
          {
            "duration": 0.1875,
            "durationTicks": 144,
            "midi": 40,
            "name": "E2",
            "ticks": 24912,
            "time": 32.4375,
            "velocity": 0.5511811023622047
          },
          {
            "duration": 0.1875,
            "durationTicks": 144,
            "midi": 64,
            "name": "E4",
            "ticks": 24912,
            "time": 32.4375,
            "velocity": 0.5511811023622047
          },
          {
            "duration": 0.1875,
            "durationTicks": 144,
            "midi": 44,
            "name": "G#2",
            "ticks": 24912,
            "time": 32.4375,
            "velocity": 0.5511811023622047
          },
          {
            "duration": 0.1875,
            "durationTicks": 144,
            "midi": 47,
            "name": "B2",
            "ticks": 24912,
            "time": 32.4375,
            "velocity": 0.5511811023622047
          },
          {
            "duration": 0.1875,
            "durationTicks": 144,
            "midi": 56,
            "name": "G#3",
            "ticks": 25056,
            "time": 32.625,
            "velocity": 0.5511811023622047
          },
          {
            "duration": 0.1875,
            "durationTicks": 144,
            "midi": 47,
            "name": "B2",
            "ticks": 25056,
            "time": 32.625,
            "velocity": 0.5511811023622047
          },
          {
            "duration": 0.1875,
            "durationTicks": 144,
            "midi": 59,
            "name": "B3",
            "ticks": 25056,
            "time": 32.625,
            "velocity": 0.5511811023622047
          },
          {
            "duration": 0.1875,
            "durationTicks": 144,
            "midi": 40,
            "name": "E2",
            "ticks": 25056,
            "time": 32.625,
            "velocity": 0.5511811023622047
          },
          {
            "duration": 0.1875,
            "durationTicks": 144,
            "midi": 52,
            "name": "E3",
            "ticks": 25056,
            "time": 32.625,
            "velocity": 0.5511811023622047
          },
          {
            "duration": 0.1875,
            "durationTicks": 144,
            "midi": 64,
            "name": "E4",
            "ticks": 25056,
            "time": 32.625,
            "velocity": 0.5511811023622047
          },
          {
            "duration": 0.1875,
            "durationTicks": 144,
            "midi": 44,
            "name": "G#2",
            "ticks": 25056,
            "time": 32.625,
            "velocity": 0.5511811023622047
          },
          {
            "duration": 0.1875,
            "durationTicks": 144,
            "midi": 44,
            "name": "G#2",
            "ticks": 25200,
            "time": 32.8125,
            "velocity": 0.5511811023622047
          },
          {
            "duration": 0.1875,
            "durationTicks": 144,
            "midi": 64,
            "name": "E4",
            "ticks": 25200,
            "time": 32.8125,
            "velocity": 0.5511811023622047
          },
          {
            "duration": 0.1875,
            "durationTicks": 144,
            "midi": 47,
            "name": "B2",
            "ticks": 25200,
            "time": 32.8125,
            "velocity": 0.5511811023622047
          },
          {
            "duration": 0.1875,
            "durationTicks": 144,
            "midi": 40,
            "name": "E2",
            "ticks": 25200,
            "time": 32.8125,
            "velocity": 0.5511811023622047
          },
          {
            "duration": 0.1875,
            "durationTicks": 144,
            "midi": 52,
            "name": "E3",
            "ticks": 25200,
            "time": 32.8125,
            "velocity": 0.5511811023622047
          },
          {
            "duration": 0.1875,
            "durationTicks": 144,
            "midi": 56,
            "name": "G#3",
            "ticks": 25200,
            "time": 32.8125,
            "velocity": 0.5511811023622047
          },
          {
            "duration": 0.1875,
            "durationTicks": 144,
            "midi": 59,
            "name": "B3",
            "ticks": 25200,
            "time": 32.8125,
            "velocity": 0.5511811023622047
          },
          {
            "duration": 0.5625,
            "durationTicks": 432,
            "midi": 59,
            "name": "B3",
            "ticks": 25344,
            "time": 33,
            "velocity": 0.5511811023622047
          },
          {
            "duration": 0.1875,
            "durationTicks": 144,
            "midi": 43,
            "name": "G2",
            "ticks": 25344,
            "time": 33,
            "velocity": 0.5511811023622047
          },
          {
            "duration": 0.5625,
            "durationTicks": 432,
            "midi": 50,
            "name": "D3",
            "ticks": 25344,
            "time": 33,
            "velocity": 0.5511811023622047
          },
          {
            "duration": 0.1875,
            "durationTicks": 144,
            "midi": 67,
            "name": "G4",
            "ticks": 25344,
            "time": 33,
            "velocity": 0.5511811023622047
          },
          {
            "duration": 0.5625,
            "durationTicks": 432,
            "midi": 55,
            "name": "G3",
            "ticks": 25344,
            "time": 33,
            "velocity": 0.5511811023622047
          },
          {
            "duration": 0.1875,
            "durationTicks": 144,
            "midi": 47,
            "name": "B2",
            "ticks": 25344,
            "time": 33,
            "velocity": 0.5511811023622047
          },
          {
            "duration": 0.1875,
            "durationTicks": 144,
            "midi": 62,
            "name": "D4",
            "ticks": 25344,
            "time": 33,
            "velocity": 0.5511811023622047
          },
          {
            "duration": 0.1875,
            "durationTicks": 144,
            "midi": 67,
            "name": "G4",
            "ticks": 25632,
            "time": 33.375,
            "velocity": 0.5511811023622047
          },
          {
            "duration": 0.1875,
            "durationTicks": 144,
            "midi": 43,
            "name": "G2",
            "ticks": 25632,
            "time": 33.375,
            "velocity": 0.5511811023622047
          },
          {
            "duration": 0.1875,
            "durationTicks": 144,
            "midi": 47,
            "name": "B2",
            "ticks": 25632,
            "time": 33.375,
            "velocity": 0.5511811023622047
          },
          {
            "duration": 0.1875,
            "durationTicks": 144,
            "midi": 62,
            "name": "D4",
            "ticks": 25632,
            "time": 33.375,
            "velocity": 0.5511811023622047
          },
          {
            "duration": 0.375,
            "durationTicks": 288,
            "midi": 55,
            "name": "G3",
            "ticks": 25632,
            "time": 33.375,
            "velocity": 0.5511811023622047
          },
          {
            "duration": 0.375,
            "durationTicks": 288,
            "midi": 50,
            "name": "D3",
            "ticks": 25632,
            "time": 33.375,
            "velocity": 0.5511811023622047
          },
          {
            "duration": 0.375,
            "durationTicks": 288,
            "midi": 59,
            "name": "B3",
            "ticks": 25632,
            "time": 33.375,
            "velocity": 0.5511811023622047
          },
          {
            "duration": 0.1875,
            "durationTicks": 144,
            "midi": 67,
            "name": "G4",
            "ticks": 25776,
            "time": 33.5625,
            "velocity": 0.5511811023622047
          },
          {
            "duration": 0.375,
            "durationTicks": 288,
            "midi": 55,
            "name": "G3",
            "ticks": 25776,
            "time": 33.5625,
            "velocity": 0.5511811023622047
          },
          {
            "duration": 0.375,
            "durationTicks": 288,
            "midi": 50,
            "name": "D3",
            "ticks": 25776,
            "time": 33.5625,
            "velocity": 0.5511811023622047
          },
          {
            "duration": 0.375,
            "durationTicks": 288,
            "midi": 59,
            "name": "B3",
            "ticks": 25776,
            "time": 33.5625,
            "velocity": 0.5511811023622047
          },
          {
            "duration": 0.1875,
            "durationTicks": 144,
            "midi": 47,
            "name": "B2",
            "ticks": 25776,
            "time": 33.5625,
            "velocity": 0.5511811023622047
          },
          {
            "duration": 0.1875,
            "durationTicks": 144,
            "midi": 43,
            "name": "G2",
            "ticks": 25776,
            "time": 33.5625,
            "velocity": 0.5511811023622047
          },
          {
            "duration": 0.1875,
            "durationTicks": 144,
            "midi": 62,
            "name": "D4",
            "ticks": 25776,
            "time": 33.5625,
            "velocity": 0.5511811023622047
          },
          {
            "duration": 0.1875,
            "durationTicks": 144,
            "midi": 62,
            "name": "D4",
            "ticks": 26064,
            "time": 33.9375,
            "velocity": 0.5511811023622047
          },
          {
            "duration": 0.1875,
            "durationTicks": 144,
            "midi": 59,
            "name": "B3",
            "ticks": 26064,
            "time": 33.9375,
            "velocity": 0.5511811023622047
          },
          {
            "duration": 0.1875,
            "durationTicks": 144,
            "midi": 50,
            "name": "D3",
            "ticks": 26064,
            "time": 33.9375,
            "velocity": 0.5511811023622047
          },
          {
            "duration": 0.1875,
            "durationTicks": 144,
            "midi": 47,
            "name": "B2",
            "ticks": 26064,
            "time": 33.9375,
            "velocity": 0.5511811023622047
          },
          {
            "duration": 0.1875,
            "durationTicks": 144,
            "midi": 67,
            "name": "G4",
            "ticks": 26064,
            "time": 33.9375,
            "velocity": 0.5511811023622047
          },
          {
            "duration": 0.1875,
            "durationTicks": 144,
            "midi": 55,
            "name": "G3",
            "ticks": 26064,
            "time": 33.9375,
            "velocity": 0.5511811023622047
          },
          {
            "duration": 0.1875,
            "durationTicks": 144,
            "midi": 43,
            "name": "G2",
            "ticks": 26064,
            "time": 33.9375,
            "velocity": 0.5511811023622047
          },
          {
            "duration": 0.1875,
            "durationTicks": 144,
            "midi": 62,
            "name": "D4",
            "ticks": 26208,
            "time": 34.125,
            "velocity": 0.5511811023622047
          },
          {
            "duration": 0.1875,
            "durationTicks": 144,
            "midi": 67,
            "name": "G4",
            "ticks": 26208,
            "time": 34.125,
            "velocity": 0.5511811023622047
          },
          {
            "duration": 0.375,
            "durationTicks": 288,
            "midi": 59,
            "name": "B3",
            "ticks": 26208,
            "time": 34.125,
            "velocity": 0.5511811023622047
          },
          {
            "duration": 0.375,
            "durationTicks": 288,
            "midi": 55,
            "name": "G3",
            "ticks": 26208,
            "time": 34.125,
            "velocity": 0.5511811023622047
          },
          {
            "duration": 0.1875,
            "durationTicks": 144,
            "midi": 43,
            "name": "G2",
            "ticks": 26208,
            "time": 34.125,
            "velocity": 0.5511811023622047
          },
          {
            "duration": 0.1875,
            "durationTicks": 144,
            "midi": 47,
            "name": "B2",
            "ticks": 26208,
            "time": 34.125,
            "velocity": 0.5511811023622047
          },
          {
            "duration": 0.375,
            "durationTicks": 288,
            "midi": 50,
            "name": "D3",
            "ticks": 26208,
            "time": 34.125,
            "velocity": 0.5511811023622047
          },
          {
            "duration": 0.1875,
            "durationTicks": 144,
            "midi": 59,
            "name": "B3",
            "ticks": 26352,
            "time": 34.3125,
            "velocity": 0.5511811023622047
          },
          {
            "duration": 0.1875,
            "durationTicks": 144,
            "midi": 43,
            "name": "G2",
            "ticks": 26352,
            "time": 34.3125,
            "velocity": 0.5511811023622047
          },
          {
            "duration": 0.1875,
            "durationTicks": 144,
            "midi": 62,
            "name": "D4",
            "ticks": 26352,
            "time": 34.3125,
            "velocity": 0.5511811023622047
          },
          {
            "duration": 0.1875,
            "durationTicks": 144,
            "midi": 55,
            "name": "G3",
            "ticks": 26352,
            "time": 34.3125,
            "velocity": 0.5511811023622047
          },
          {
            "duration": 0.1875,
            "durationTicks": 144,
            "midi": 50,
            "name": "D3",
            "ticks": 26352,
            "time": 34.3125,
            "velocity": 0.5511811023622047
          },
          {
            "duration": 0.1875,
            "durationTicks": 144,
            "midi": 47,
            "name": "B2",
            "ticks": 26352,
            "time": 34.3125,
            "velocity": 0.5511811023622047
          },
          {
            "duration": 0.1875,
            "durationTicks": 144,
            "midi": 67,
            "name": "G4",
            "ticks": 26352,
            "time": 34.3125,
            "velocity": 0.5511811023622047
          },
          {
            "duration": 0.1875,
            "durationTicks": 144,
            "midi": 36,
            "name": "C2",
            "ticks": 26496,
            "time": 34.5,
            "velocity": 0.5511811023622047
          },
          {
            "duration": 0.5625,
            "durationTicks": 432,
            "midi": 52,
            "name": "E3",
            "ticks": 26496,
            "time": 34.5,
            "velocity": 0.5511811023622047
          },
          {
            "duration": 0.1875,
            "durationTicks": 144,
            "midi": 40,
            "name": "E2",
            "ticks": 26496,
            "time": 34.5,
            "velocity": 0.5511811023622047
          },
          {
            "duration": 0.5625,
            "durationTicks": 432,
            "midi": 48,
            "name": "C3",
            "ticks": 26496,
            "time": 34.5,
            "velocity": 0.5511811023622047
          },
          {
            "duration": 0.1875,
            "durationTicks": 144,
            "midi": 55,
            "name": "G3",
            "ticks": 26496,
            "time": 34.5,
            "velocity": 0.5511811023622047
          },
          {
            "duration": 0.1875,
            "durationTicks": 144,
            "midi": 43,
            "name": "G2",
            "ticks": 26496,
            "time": 34.5,
            "velocity": 0.5511811023622047
          },
          {
            "duration": 0.1875,
            "durationTicks": 144,
            "midi": 60,
            "name": "C4",
            "ticks": 26496,
            "time": 34.5,
            "velocity": 0.5511811023622047
          },
          {
            "duration": 0.375,
            "durationTicks": 288,
            "midi": 52,
            "name": "E3",
            "ticks": 26784,
            "time": 34.875,
            "velocity": 0.5511811023622047
          },
          {
            "duration": 0.1875,
            "durationTicks": 144,
            "midi": 36,
            "name": "C2",
            "ticks": 26784,
            "time": 34.875,
            "velocity": 0.5511811023622047
          },
          {
            "duration": 0.1875,
            "durationTicks": 144,
            "midi": 55,
            "name": "G3",
            "ticks": 26784,
            "time": 34.875,
            "velocity": 0.5511811023622047
          },
          {
            "duration": 0.1875,
            "durationTicks": 144,
            "midi": 40,
            "name": "E2",
            "ticks": 26784,
            "time": 34.875,
            "velocity": 0.5511811023622047
          },
          {
            "duration": 0.375,
            "durationTicks": 288,
            "midi": 48,
            "name": "C3",
            "ticks": 26784,
            "time": 34.875,
            "velocity": 0.5511811023622047
          },
          {
            "duration": 0.1875,
            "durationTicks": 144,
            "midi": 60,
            "name": "C4",
            "ticks": 26784,
            "time": 34.875,
            "velocity": 0.5511811023622047
          },
          {
            "duration": 0.1875,
            "durationTicks": 144,
            "midi": 43,
            "name": "G2",
            "ticks": 26784,
            "time": 34.875,
            "velocity": 0.5511811023622047
          },
          {
            "duration": 0.1875,
            "durationTicks": 144,
            "midi": 55,
            "name": "G3",
            "ticks": 26928,
            "time": 35.0625,
            "velocity": 0.5511811023622047
          },
          {
            "duration": 0.1875,
            "durationTicks": 144,
            "midi": 43,
            "name": "G2",
            "ticks": 26928,
            "time": 35.0625,
            "velocity": 0.5511811023622047
          },
          {
            "duration": 0.1875,
            "durationTicks": 144,
            "midi": 60,
            "name": "C4",
            "ticks": 26928,
            "time": 35.0625,
            "velocity": 0.5511811023622047
          },
          {
            "duration": 0.5625,
            "durationTicks": 432,
            "midi": 48,
            "name": "C3",
            "ticks": 26928,
            "time": 35.0625,
            "velocity": 0.5511811023622047
          },
          {
            "duration": 0.1875,
            "durationTicks": 144,
            "midi": 40,
            "name": "E2",
            "ticks": 26928,
            "time": 35.0625,
            "velocity": 0.5511811023622047
          },
          {
            "duration": 0.1875,
            "durationTicks": 144,
            "midi": 36,
            "name": "C2",
            "ticks": 26928,
            "time": 35.0625,
            "velocity": 0.5511811023622047
          },
          {
            "duration": 0.5625,
            "durationTicks": 432,
            "midi": 52,
            "name": "E3",
            "ticks": 26928,
            "time": 35.0625,
            "velocity": 0.5511811023622047
          },
          {
            "duration": 0.1875,
            "durationTicks": 144,
            "midi": 40,
            "name": "E2",
            "ticks": 27216,
            "time": 35.4375,
            "velocity": 0.5511811023622047
          },
          {
            "duration": 0.1875,
            "durationTicks": 144,
            "midi": 43,
            "name": "G2",
            "ticks": 27216,
            "time": 35.4375,
            "velocity": 0.5511811023622047
          },
          {
            "duration": 0.1875,
            "durationTicks": 144,
            "midi": 55,
            "name": "G3",
            "ticks": 27216,
            "time": 35.4375,
            "velocity": 0.5511811023622047
          },
          {
            "duration": 0.1875,
            "durationTicks": 144,
            "midi": 60,
            "name": "C4",
            "ticks": 27216,
            "time": 35.4375,
            "velocity": 0.5511811023622047
          },
          {
            "duration": 0.375,
            "durationTicks": 288,
            "midi": 48,
            "name": "C3",
            "ticks": 27216,
            "time": 35.4375,
            "velocity": 0.5511811023622047
          },
          {
            "duration": 0.375,
            "durationTicks": 288,
            "midi": 52,
            "name": "E3",
            "ticks": 27216,
            "time": 35.4375,
            "velocity": 0.5511811023622047
          },
          {
            "duration": 0.1875,
            "durationTicks": 144,
            "midi": 36,
            "name": "C2",
            "ticks": 27216,
            "time": 35.4375,
            "velocity": 0.5511811023622047
          },
          {
            "duration": 0.375,
            "durationTicks": 288,
            "midi": 52,
            "name": "E3",
            "ticks": 27360,
            "time": 35.625,
            "velocity": 0.5511811023622047
          },
          {
            "duration": 0.1875,
            "durationTicks": 144,
            "midi": 43,
            "name": "G2",
            "ticks": 27360,
            "time": 35.625,
            "velocity": 0.5511811023622047
          },
          {
            "duration": 0.1875,
            "durationTicks": 144,
            "midi": 60,
            "name": "C4",
            "ticks": 27360,
            "time": 35.625,
            "velocity": 0.5511811023622047
          },
          {
            "duration": 0.375,
            "durationTicks": 288,
            "midi": 48,
            "name": "C3",
            "ticks": 27360,
            "time": 35.625,
            "velocity": 0.5511811023622047
          },
          {
            "duration": 0.1875,
            "durationTicks": 144,
            "midi": 55,
            "name": "G3",
            "ticks": 27360,
            "time": 35.625,
            "velocity": 0.5511811023622047
          },
          {
            "duration": 0.1875,
            "durationTicks": 144,
            "midi": 36,
            "name": "C2",
            "ticks": 27360,
            "time": 35.625,
            "velocity": 0.5511811023622047
          },
          {
            "duration": 0.1875,
            "durationTicks": 144,
            "midi": 40,
            "name": "E2",
            "ticks": 27360,
            "time": 35.625,
            "velocity": 0.5511811023622047
          },
          {
            "duration": 0.375,
            "durationTicks": 288,
            "midi": 52,
            "name": "E3",
            "ticks": 27504,
            "time": 35.8125,
            "velocity": 0.5511811023622047
          },
          {
            "duration": 0.1875,
            "durationTicks": 144,
            "midi": 55,
            "name": "G3",
            "ticks": 27504,
            "time": 35.8125,
            "velocity": 0.5511811023622047
          },
          {
            "duration": 0.375,
            "durationTicks": 288,
            "midi": 48,
            "name": "C3",
            "ticks": 27504,
            "time": 35.8125,
            "velocity": 0.5511811023622047
          },
          {
            "duration": 0.1875,
            "durationTicks": 144,
            "midi": 43,
            "name": "G2",
            "ticks": 27504,
            "time": 35.8125,
            "velocity": 0.5511811023622047
          },
          {
            "duration": 0.1875,
            "durationTicks": 144,
            "midi": 36,
            "name": "C2",
            "ticks": 27504,
            "time": 35.8125,
            "velocity": 0.5511811023622047
          },
          {
            "duration": 0.1875,
            "durationTicks": 144,
            "midi": 60,
            "name": "C4",
            "ticks": 27504,
            "time": 35.8125,
            "velocity": 0.5511811023622047
          },
          {
            "duration": 0.1875,
            "durationTicks": 144,
            "midi": 40,
            "name": "E2",
            "ticks": 27504,
            "time": 35.8125,
            "velocity": 0.5511811023622047
          },
          {
            "duration": 0.5625,
            "durationTicks": 432,
            "midi": 52,
            "name": "E3",
            "ticks": 27648,
            "time": 36,
            "velocity": 0.5511811023622047
          },
          {
            "duration": 0.1875,
            "durationTicks": 144,
            "midi": 36,
            "name": "C2",
            "ticks": 27648,
            "time": 36,
            "velocity": 0.5511811023622047
          },
          {
            "duration": 0.1875,
            "durationTicks": 144,
            "midi": 43,
            "name": "G2",
            "ticks": 27648,
            "time": 36,
            "velocity": 0.5511811023622047
          },
          {
            "duration": 0.1875,
            "durationTicks": 144,
            "midi": 60,
            "name": "C4",
            "ticks": 27648,
            "time": 36,
            "velocity": 0.5511811023622047
          },
          {
            "duration": 0.5625,
            "durationTicks": 432,
            "midi": 48,
            "name": "C3",
            "ticks": 27648,
            "time": 36,
            "velocity": 0.5511811023622047
          },
          {
            "duration": 0.1875,
            "durationTicks": 144,
            "midi": 55,
            "name": "G3",
            "ticks": 27648,
            "time": 36,
            "velocity": 0.5511811023622047
          },
          {
            "duration": 0.1875,
            "durationTicks": 144,
            "midi": 40,
            "name": "E2",
            "ticks": 27648,
            "time": 36,
            "velocity": 0.5511811023622047
          },
          {
            "duration": 0.1875,
            "durationTicks": 144,
            "midi": 55,
            "name": "G3",
            "ticks": 27936,
            "time": 36.375,
            "velocity": 0.5511811023622047
          },
          {
            "duration": 0.1875,
            "durationTicks": 144,
            "midi": 43,
            "name": "G2",
            "ticks": 27936,
            "time": 36.375,
            "velocity": 0.5511811023622047
          },
          {
            "duration": 0.25,
            "durationTicks": 192,
            "midi": 48,
            "name": "C3",
            "ticks": 27936,
            "time": 36.375,
            "velocity": 0.5511811023622047
          },
          {
            "duration": 0.1875,
            "durationTicks": 144,
            "midi": 60,
            "name": "C4",
            "ticks": 27936,
            "time": 36.375,
            "velocity": 0.5511811023622047
          },
          {
            "duration": 0.1875,
            "durationTicks": 144,
            "midi": 36,
            "name": "C2",
            "ticks": 27936,
            "time": 36.375,
            "velocity": 0.5511811023622047
          },
          {
            "duration": 0.1875,
            "durationTicks": 144,
            "midi": 40,
            "name": "E2",
            "ticks": 27936,
            "time": 36.375,
            "velocity": 0.5511811023622047
          },
          {
            "duration": 0.25,
            "durationTicks": 192,
            "midi": 52,
            "name": "E3",
            "ticks": 27936,
            "time": 36.375,
            "velocity": 0.5511811023622047
          },
          {
            "duration": 0.1875,
            "durationTicks": 144,
            "midi": 55,
            "name": "G3",
            "ticks": 28080,
            "time": 36.5625,
            "velocity": 0.5511811023622047
          },
          {
            "duration": 0.1875,
            "durationTicks": 144,
            "midi": 60,
            "name": "C4",
            "ticks": 28080,
            "time": 36.5625,
            "velocity": 0.5511811023622047
          },
          {
            "duration": 0.1875,
            "durationTicks": 144,
            "midi": 52,
            "name": "E3",
            "ticks": 28080,
            "time": 36.5625,
            "velocity": 0.5511811023622047
          },
          {
            "duration": 0.1875,
            "durationTicks": 144,
            "midi": 40,
            "name": "E2",
            "ticks": 28080,
            "time": 36.5625,
            "velocity": 0.5511811023622047
          },
          {
            "duration": 0.1875,
            "durationTicks": 144,
            "midi": 43,
            "name": "G2",
            "ticks": 28080,
            "time": 36.5625,
            "velocity": 0.5511811023622047
          },
          {
            "duration": 0.1875,
            "durationTicks": 144,
            "midi": 36,
            "name": "C2",
            "ticks": 28080,
            "time": 36.5625,
            "velocity": 0.5511811023622047
          },
          {
            "duration": 0.1875,
            "durationTicks": 144,
            "midi": 48,
            "name": "C3",
            "ticks": 28080,
            "time": 36.5625,
            "velocity": 0.5511811023622047
          },
          {
            "duration": 0.1875,
            "durationTicks": 144,
            "midi": 36,
            "name": "C2",
            "ticks": 28368,
            "time": 36.9375,
            "velocity": 0.5511811023622047
          },
          {
            "duration": 0.1875,
            "durationTicks": 144,
            "midi": 48,
            "name": "C3",
            "ticks": 28368,
            "time": 36.9375,
            "velocity": 0.5511811023622047
          },
          {
            "duration": 0.1875,
            "durationTicks": 144,
            "midi": 52,
            "name": "E3",
            "ticks": 28368,
            "time": 36.9375,
            "velocity": 0.5511811023622047
          },
          {
            "duration": 0.1875,
            "durationTicks": 144,
            "midi": 40,
            "name": "E2",
            "ticks": 28368,
            "time": 36.9375,
            "velocity": 0.5511811023622047
          },
          {
            "duration": 0.1875,
            "durationTicks": 144,
            "midi": 55,
            "name": "G3",
            "ticks": 28368,
            "time": 36.9375,
            "velocity": 0.5511811023622047
          },
          {
            "duration": 0.1875,
            "durationTicks": 144,
            "midi": 60,
            "name": "C4",
            "ticks": 28368,
            "time": 36.9375,
            "velocity": 0.5511811023622047
          },
          {
            "duration": 0.1875,
            "durationTicks": 144,
            "midi": 43,
            "name": "G2",
            "ticks": 28368,
            "time": 36.9375,
            "velocity": 0.5511811023622047
          },
          {
            "duration": 0.1875,
            "durationTicks": 144,
            "midi": 48,
            "name": "C3",
            "ticks": 28512,
            "time": 37.125,
            "velocity": 0.5511811023622047
          },
          {
            "duration": 0.1875,
            "durationTicks": 144,
            "midi": 43,
            "name": "G2",
            "ticks": 28512,
            "time": 37.125,
            "velocity": 0.5511811023622047
          },
          {
            "duration": 0.1875,
            "durationTicks": 144,
            "midi": 55,
            "name": "G3",
            "ticks": 28512,
            "time": 37.125,
            "velocity": 0.5511811023622047
          },
          {
            "duration": 0.1875,
            "durationTicks": 144,
            "midi": 60,
            "name": "C4",
            "ticks": 28512,
            "time": 37.125,
            "velocity": 0.5511811023622047
          },
          {
            "duration": 0.1875,
            "durationTicks": 144,
            "midi": 52,
            "name": "E3",
            "ticks": 28512,
            "time": 37.125,
            "velocity": 0.5511811023622047
          },
          {
            "duration": 0.1875,
            "durationTicks": 144,
            "midi": 40,
            "name": "E2",
            "ticks": 28512,
            "time": 37.125,
            "velocity": 0.5511811023622047
          },
          {
            "duration": 0.1875,
            "durationTicks": 144,
            "midi": 36,
            "name": "C2",
            "ticks": 28512,
            "time": 37.125,
            "velocity": 0.5511811023622047
          },
          {
            "duration": 0.1875,
            "durationTicks": 144,
            "midi": 55,
            "name": "G3",
            "ticks": 28656,
            "time": 37.3125,
            "velocity": 0.5511811023622047
          },
          {
            "duration": 0.1875,
            "durationTicks": 144,
            "midi": 40,
            "name": "E2",
            "ticks": 28656,
            "time": 37.3125,
            "velocity": 0.5511811023622047
          },
          {
            "duration": 0.1875,
            "durationTicks": 144,
            "midi": 36,
            "name": "C2",
            "ticks": 28656,
            "time": 37.3125,
            "velocity": 0.5511811023622047
          },
          {
            "duration": 0.1875,
            "durationTicks": 144,
            "midi": 60,
            "name": "C4",
            "ticks": 28656,
            "time": 37.3125,
            "velocity": 0.5511811023622047
          },
          {
            "duration": 0.1875,
            "durationTicks": 144,
            "midi": 43,
            "name": "G2",
            "ticks": 28656,
            "time": 37.3125,
            "velocity": 0.5511811023622047
          },
          {
            "duration": 0.1875,
            "durationTicks": 144,
            "midi": 52,
            "name": "E3",
            "ticks": 28656,
            "time": 37.3125,
            "velocity": 0.5511811023622047
          },
          {
            "duration": 0.1875,
            "durationTicks": 144,
            "midi": 48,
            "name": "C3",
            "ticks": 28656,
            "time": 37.3125,
            "velocity": 0.5511811023622047
          },
          {
            "duration": 0.1875,
            "durationTicks": 144,
            "midi": 42,
            "name": "F#2",
            "ticks": 28800,
            "time": 37.5,
            "velocity": 0.5511811023622047
          },
          {
            "duration": 0.1875,
            "durationTicks": 144,
            "midi": 62,
            "name": "D4",
            "ticks": 28800,
            "time": 37.5,
            "velocity": 0.5511811023622047
          },
          {
            "duration": 0.1875,
            "durationTicks": 144,
            "midi": 57,
            "name": "A3",
            "ticks": 28800,
            "time": 37.5,
            "velocity": 0.5511811023622047
          },
          {
            "duration": 0.1875,
            "durationTicks": 144,
            "midi": 38,
            "name": "D2",
            "ticks": 28800,
            "time": 37.5,
            "velocity": 0.5511811023622047
          },
          {
            "duration": 0.1875,
            "durationTicks": 144,
            "midi": 54,
            "name": "F#3",
            "ticks": 28800,
            "time": 37.5,
            "velocity": 0.5511811023622047
          },
          {
            "duration": 0.1875,
            "durationTicks": 144,
            "midi": 50,
            "name": "D3",
            "ticks": 28800,
            "time": 37.5,
            "velocity": 0.5511811023622047
          },
          {
            "duration": 0.1875,
            "durationTicks": 144,
            "midi": 45,
            "name": "A2",
            "ticks": 28800,
            "time": 37.5,
            "velocity": 0.5511811023622047
          },
          {
            "duration": 0.1875,
            "durationTicks": 144,
            "midi": 45,
            "name": "A2",
            "ticks": 29088,
            "time": 37.875,
            "velocity": 0.5511811023622047
          },
          {
            "duration": 0.1875,
            "durationTicks": 144,
            "midi": 50,
            "name": "D3",
            "ticks": 29088,
            "time": 37.875,
            "velocity": 0.5511811023622047
          },
          {
            "duration": 0.1875,
            "durationTicks": 144,
            "midi": 57,
            "name": "A3",
            "ticks": 29088,
            "time": 37.875,
            "velocity": 0.5511811023622047
          },
          {
            "duration": 0.1875,
            "durationTicks": 144,
            "midi": 38,
            "name": "D2",
            "ticks": 29088,
            "time": 37.875,
            "velocity": 0.5511811023622047
          },
          {
            "duration": 0.1875,
            "durationTicks": 144,
            "midi": 62,
            "name": "D4",
            "ticks": 29088,
            "time": 37.875,
            "velocity": 0.5511811023622047
          },
          {
            "duration": 0.1875,
            "durationTicks": 144,
            "midi": 54,
            "name": "F#3",
            "ticks": 29088,
            "time": 37.875,
            "velocity": 0.5511811023622047
          },
          {
            "duration": 0.1875,
            "durationTicks": 144,
            "midi": 42,
            "name": "F#2",
            "ticks": 29088,
            "time": 37.875,
            "velocity": 0.5511811023622047
          },
          {
            "duration": 0.1875,
            "durationTicks": 144,
            "midi": 64,
            "name": "E4",
            "ticks": 29376,
            "time": 38.25,
            "velocity": 0.5511811023622047
          },
          {
            "duration": 0.1875,
            "durationTicks": 144,
            "midi": 56,
            "name": "G#3",
            "ticks": 29376,
            "time": 38.25,
            "velocity": 0.5511811023622047
          },
          {
            "duration": 0.1875,
            "durationTicks": 144,
            "midi": 40,
            "name": "E2",
            "ticks": 29376,
            "time": 38.25,
            "velocity": 0.5511811023622047
          },
          {
            "duration": 0.1875,
            "durationTicks": 144,
            "midi": 59,
            "name": "B3",
            "ticks": 29376,
            "time": 38.25,
            "velocity": 0.5511811023622047
          },
          {
            "duration": 0.1875,
            "durationTicks": 144,
            "midi": 47,
            "name": "B2",
            "ticks": 29376,
            "time": 38.25,
            "velocity": 0.5511811023622047
          },
          {
            "duration": 0.1875,
            "durationTicks": 144,
            "midi": 44,
            "name": "G#2",
            "ticks": 29376,
            "time": 38.25,
            "velocity": 0.5511811023622047
          },
          {
            "duration": 0.5625,
            "durationTicks": 432,
            "midi": 52,
            "name": "E3",
            "ticks": 29376,
            "time": 38.25,
            "velocity": 0.5511811023622047
          },
          {
            "duration": 0.1875,
            "durationTicks": 144,
            "midi": 47,
            "name": "B2",
            "ticks": 29664,
            "time": 38.625,
            "velocity": 0.5511811023622047
          },
          {
            "duration": 0.1875,
            "durationTicks": 144,
            "midi": 40,
            "name": "E2",
            "ticks": 29664,
            "time": 38.625,
            "velocity": 0.5511811023622047
          },
          {
            "duration": 0.375,
            "durationTicks": 288,
            "midi": 52,
            "name": "E3",
            "ticks": 29664,
            "time": 38.625,
            "velocity": 0.5511811023622047
          },
          {
            "duration": 0.1875,
            "durationTicks": 144,
            "midi": 56,
            "name": "G#3",
            "ticks": 29664,
            "time": 38.625,
            "velocity": 0.5511811023622047
          },
          {
            "duration": 0.1875,
            "durationTicks": 144,
            "midi": 59,
            "name": "B3",
            "ticks": 29664,
            "time": 38.625,
            "velocity": 0.5511811023622047
          },
          {
            "duration": 0.1875,
            "durationTicks": 144,
            "midi": 44,
            "name": "G#2",
            "ticks": 29664,
            "time": 38.625,
            "velocity": 0.5511811023622047
          },
          {
            "duration": 0.1875,
            "durationTicks": 144,
            "midi": 64,
            "name": "E4",
            "ticks": 29664,
            "time": 38.625,
            "velocity": 0.5511811023622047
          },
          {
            "duration": 0.1875,
            "durationTicks": 144,
            "midi": 64,
            "name": "E4",
            "ticks": 29808,
            "time": 38.8125,
            "velocity": 0.5511811023622047
          },
          {
            "duration": 0.1875,
            "durationTicks": 144,
            "midi": 59,
            "name": "B3",
            "ticks": 29808,
            "time": 38.8125,
            "velocity": 0.5511811023622047
          },
          {
            "duration": 0.1875,
            "durationTicks": 144,
            "midi": 47,
            "name": "B2",
            "ticks": 29808,
            "time": 38.8125,
            "velocity": 0.5511811023622047
          },
          {
            "duration": 0.5625,
            "durationTicks": 432,
            "midi": 52,
            "name": "E3",
            "ticks": 29808,
            "time": 38.8125,
            "velocity": 0.5511811023622047
          },
          {
            "duration": 0.1875,
            "durationTicks": 144,
            "midi": 44,
            "name": "G#2",
            "ticks": 29808,
            "time": 38.8125,
            "velocity": 0.5511811023622047
          },
          {
            "duration": 0.1875,
            "durationTicks": 144,
            "midi": 56,
            "name": "G#3",
            "ticks": 29808,
            "time": 38.8125,
            "velocity": 0.5511811023622047
          },
          {
            "duration": 0.1875,
            "durationTicks": 144,
            "midi": 40,
            "name": "E2",
            "ticks": 29808,
            "time": 38.8125,
            "velocity": 0.5511811023622047
          },
          {
            "duration": 0.1875,
            "durationTicks": 144,
            "midi": 56,
            "name": "G#3",
            "ticks": 30096,
            "time": 39.1875,
            "velocity": 0.5511811023622047
          },
          {
            "duration": 0.1875,
            "durationTicks": 144,
            "midi": 64,
            "name": "E4",
            "ticks": 30096,
            "time": 39.1875,
            "velocity": 0.5511811023622047
          },
          {
            "duration": 0.1875,
            "durationTicks": 144,
            "midi": 47,
            "name": "B2",
            "ticks": 30096,
            "time": 39.1875,
            "velocity": 0.5511811023622047
          },
          {
            "duration": 0.1875,
            "durationTicks": 144,
            "midi": 44,
            "name": "G#2",
            "ticks": 30096,
            "time": 39.1875,
            "velocity": 0.5511811023622047
          },
          {
            "duration": 0.1875,
            "durationTicks": 144,
            "midi": 59,
            "name": "B3",
            "ticks": 30096,
            "time": 39.1875,
            "velocity": 0.5511811023622047
          },
          {
            "duration": 0.1875,
            "durationTicks": 144,
            "midi": 40,
            "name": "E2",
            "ticks": 30096,
            "time": 39.1875,
            "velocity": 0.5511811023622047
          },
          {
            "duration": 0.375,
            "durationTicks": 288,
            "midi": 52,
            "name": "E3",
            "ticks": 30096,
            "time": 39.1875,
            "velocity": 0.5511811023622047
          },
          {
            "duration": 0.1875,
            "durationTicks": 144,
            "midi": 64,
            "name": "E4",
            "ticks": 30240,
            "time": 39.375,
            "velocity": 0.5511811023622047
          },
          {
            "duration": 0.1875,
            "durationTicks": 144,
            "midi": 44,
            "name": "G#2",
            "ticks": 30240,
            "time": 39.375,
            "velocity": 0.5511811023622047
          },
          {
            "duration": 0.1875,
            "durationTicks": 144,
            "midi": 59,
            "name": "B3",
            "ticks": 30240,
            "time": 39.375,
            "velocity": 0.5511811023622047
          },
          {
            "duration": 0.1875,
            "durationTicks": 144,
            "midi": 40,
            "name": "E2",
            "ticks": 30240,
            "time": 39.375,
            "velocity": 0.5511811023622047
          },
          {
            "duration": 0.1875,
            "durationTicks": 144,
            "midi": 56,
            "name": "G#3",
            "ticks": 30240,
            "time": 39.375,
            "velocity": 0.5511811023622047
          },
          {
            "duration": 0.375,
            "durationTicks": 288,
            "midi": 52,
            "name": "E3",
            "ticks": 30240,
            "time": 39.375,
            "velocity": 0.5511811023622047
          },
          {
            "duration": 0.1875,
            "durationTicks": 144,
            "midi": 47,
            "name": "B2",
            "ticks": 30240,
            "time": 39.375,
            "velocity": 0.5511811023622047
          },
          {
            "duration": 0.1875,
            "durationTicks": 144,
            "midi": 59,
            "name": "B3",
            "ticks": 30384,
            "time": 39.5625,
            "velocity": 0.5511811023622047
          },
          {
            "duration": 0.375,
            "durationTicks": 288,
            "midi": 52,
            "name": "E3",
            "ticks": 30384,
            "time": 39.5625,
            "velocity": 0.5511811023622047
          },
          {
            "duration": 0.1875,
            "durationTicks": 144,
            "midi": 44,
            "name": "G#2",
            "ticks": 30384,
            "time": 39.5625,
            "velocity": 0.5511811023622047
          },
          {
            "duration": 0.1875,
            "durationTicks": 144,
            "midi": 64,
            "name": "E4",
            "ticks": 30384,
            "time": 39.5625,
            "velocity": 0.5511811023622047
          },
          {
            "duration": 0.1875,
            "durationTicks": 144,
            "midi": 47,
            "name": "B2",
            "ticks": 30384,
            "time": 39.5625,
            "velocity": 0.5511811023622047
          },
          {
            "duration": 0.1875,
            "durationTicks": 144,
            "midi": 56,
            "name": "G#3",
            "ticks": 30384,
            "time": 39.5625,
            "velocity": 0.5511811023622047
          },
          {
            "duration": 0.1875,
            "durationTicks": 144,
            "midi": 40,
            "name": "E2",
            "ticks": 30384,
            "time": 39.5625,
            "velocity": 0.5511811023622047
          },
          {
            "duration": 0.25,
            "durationTicks": 192,
            "midi": 52,
            "name": "E3",
            "ticks": 30528,
            "time": 39.75,
            "velocity": 0.5511811023622047
          },
          {
            "duration": 0.1875,
            "durationTicks": 144,
            "midi": 64,
            "name": "E4",
            "ticks": 30528,
            "time": 39.75,
            "velocity": 0.5511811023622047
          },
          {
            "duration": 0.1875,
            "durationTicks": 144,
            "midi": 56,
            "name": "G#3",
            "ticks": 30528,
            "time": 39.75,
            "velocity": 0.5511811023622047
          },
          {
            "duration": 0.1875,
            "durationTicks": 144,
            "midi": 59,
            "name": "B3",
            "ticks": 30528,
            "time": 39.75,
            "velocity": 0.5511811023622047
          },
          {
            "duration": 0.1875,
            "durationTicks": 144,
            "midi": 44,
            "name": "G#2",
            "ticks": 30528,
            "time": 39.75,
            "velocity": 0.5511811023622047
          },
          {
            "duration": 0.1875,
            "durationTicks": 144,
            "midi": 47,
            "name": "B2",
            "ticks": 30528,
            "time": 39.75,
            "velocity": 0.5511811023622047
          },
          {
            "duration": 0.1875,
            "durationTicks": 144,
            "midi": 40,
            "name": "E2",
            "ticks": 30528,
            "time": 39.75,
            "velocity": 0.5511811023622047
          },
          {
            "duration": 0.1875,
            "durationTicks": 144,
            "midi": 40,
            "name": "E2",
            "ticks": 30816,
            "time": 40.125,
            "velocity": 0.5511811023622047
          },
          {
            "duration": 0.1875,
            "durationTicks": 144,
            "midi": 64,
            "name": "E4",
            "ticks": 30816,
            "time": 40.125,
            "velocity": 0.5511811023622047
          },
          {
            "duration": 0.1875,
            "durationTicks": 144,
            "midi": 52,
            "name": "E3",
            "ticks": 30816,
            "time": 40.125,
            "velocity": 0.5511811023622047
          },
          {
            "duration": 0.1875,
            "durationTicks": 144,
            "midi": 59,
            "name": "B3",
            "ticks": 30816,
            "time": 40.125,
            "velocity": 0.5511811023622047
          },
          {
            "duration": 0.1875,
            "durationTicks": 144,
            "midi": 47,
            "name": "B2",
            "ticks": 30816,
            "time": 40.125,
            "velocity": 0.5511811023622047
          },
          {
            "duration": 0.1875,
            "durationTicks": 144,
            "midi": 44,
            "name": "G#2",
            "ticks": 30816,
            "time": 40.125,
            "velocity": 0.5511811023622047
          },
          {
            "duration": 0.1875,
            "durationTicks": 144,
            "midi": 56,
            "name": "G#3",
            "ticks": 30816,
            "time": 40.125,
            "velocity": 0.5511811023622047
          },
          {
            "duration": 0.1875,
            "durationTicks": 144,
            "midi": 59,
            "name": "B3",
            "ticks": 30960,
            "time": 40.3125,
            "velocity": 0.5511811023622047
          },
          {
            "duration": 0.1875,
            "durationTicks": 144,
            "midi": 52,
            "name": "E3",
            "ticks": 30960,
            "time": 40.3125,
            "velocity": 0.5511811023622047
          },
          {
            "duration": 0.1875,
            "durationTicks": 144,
            "midi": 64,
            "name": "E4",
            "ticks": 30960,
            "time": 40.3125,
            "velocity": 0.5511811023622047
          },
          {
            "duration": 0.1875,
            "durationTicks": 144,
            "midi": 40,
            "name": "E2",
            "ticks": 30960,
            "time": 40.3125,
            "velocity": 0.5511811023622047
          },
          {
            "duration": 0.1875,
            "durationTicks": 144,
            "midi": 44,
            "name": "G#2",
            "ticks": 30960,
            "time": 40.3125,
            "velocity": 0.5511811023622047
          },
          {
            "duration": 0.1875,
            "durationTicks": 144,
            "midi": 56,
            "name": "G#3",
            "ticks": 30960,
            "time": 40.3125,
            "velocity": 0.5511811023622047
          },
          {
            "duration": 0.1875,
            "durationTicks": 144,
            "midi": 47,
            "name": "B2",
            "ticks": 30960,
            "time": 40.3125,
            "velocity": 0.5511811023622047
          },
          {
            "duration": 0.1875,
            "durationTicks": 144,
            "midi": 52,
            "name": "E3",
            "ticks": 31248,
            "time": 40.6875,
            "velocity": 0.5511811023622047
          },
          {
            "duration": 0.1875,
            "durationTicks": 144,
            "midi": 56,
            "name": "G#3",
            "ticks": 31248,
            "time": 40.6875,
            "velocity": 0.5511811023622047
          },
          {
            "duration": 0.1875,
            "durationTicks": 144,
            "midi": 47,
            "name": "B2",
            "ticks": 31248,
            "time": 40.6875,
            "velocity": 0.5511811023622047
          },
          {
            "duration": 0.1875,
            "durationTicks": 144,
            "midi": 40,
            "name": "E2",
            "ticks": 31248,
            "time": 40.6875,
            "velocity": 0.5511811023622047
          },
          {
            "duration": 0.1875,
            "durationTicks": 144,
            "midi": 64,
            "name": "E4",
            "ticks": 31248,
            "time": 40.6875,
            "velocity": 0.5511811023622047
          },
          {
            "duration": 0.1875,
            "durationTicks": 144,
            "midi": 44,
            "name": "G#2",
            "ticks": 31248,
            "time": 40.6875,
            "velocity": 0.5511811023622047
          },
          {
            "duration": 0.1875,
            "durationTicks": 144,
            "midi": 59,
            "name": "B3",
            "ticks": 31248,
            "time": 40.6875,
            "velocity": 0.5511811023622047
          },
          {
            "duration": 0.1875,
            "durationTicks": 144,
            "midi": 44,
            "name": "G#2",
            "ticks": 31392,
            "time": 40.875,
            "velocity": 0.5511811023622047
          },
          {
            "duration": 0.1875,
            "durationTicks": 144,
            "midi": 52,
            "name": "E3",
            "ticks": 31392,
            "time": 40.875,
            "velocity": 0.5511811023622047
          },
          {
            "duration": 0.1875,
            "durationTicks": 144,
            "midi": 64,
            "name": "E4",
            "ticks": 31392,
            "time": 40.875,
            "velocity": 0.5511811023622047
          },
          {
            "duration": 0.1875,
            "durationTicks": 144,
            "midi": 59,
            "name": "B3",
            "ticks": 31392,
            "time": 40.875,
            "velocity": 0.5511811023622047
          },
          {
            "duration": 0.1875,
            "durationTicks": 144,
            "midi": 56,
            "name": "G#3",
            "ticks": 31392,
            "time": 40.875,
            "velocity": 0.5511811023622047
          },
          {
            "duration": 0.1875,
            "durationTicks": 144,
            "midi": 40,
            "name": "E2",
            "ticks": 31392,
            "time": 40.875,
            "velocity": 0.5511811023622047
          },
          {
            "duration": 0.1875,
            "durationTicks": 144,
            "midi": 47,
            "name": "B2",
            "ticks": 31392,
            "time": 40.875,
            "velocity": 0.5511811023622047
          },
          {
            "duration": 0.1875,
            "durationTicks": 144,
            "midi": 40,
            "name": "E2",
            "ticks": 31536,
            "time": 41.0625,
            "velocity": 0.5511811023622047
          },
          {
            "duration": 0.1875,
            "durationTicks": 144,
            "midi": 44,
            "name": "G#2",
            "ticks": 31536,
            "time": 41.0625,
            "velocity": 0.5511811023622047
          },
          {
            "duration": 0.1875,
            "durationTicks": 144,
            "midi": 47,
            "name": "B2",
            "ticks": 31536,
            "time": 41.0625,
            "velocity": 0.5511811023622047
          },
          {
            "duration": 0.1875,
            "durationTicks": 144,
            "midi": 59,
            "name": "B3",
            "ticks": 31536,
            "time": 41.0625,
            "velocity": 0.5511811023622047
          },
          {
            "duration": 0.1875,
            "durationTicks": 144,
            "midi": 52,
            "name": "E3",
            "ticks": 31536,
            "time": 41.0625,
            "velocity": 0.5511811023622047
          },
          {
            "duration": 0.1875,
            "durationTicks": 144,
            "midi": 64,
            "name": "E4",
            "ticks": 31536,
            "time": 41.0625,
            "velocity": 0.5511811023622047
          },
          {
            "duration": 0.1875,
            "durationTicks": 144,
            "midi": 56,
            "name": "G#3",
            "ticks": 31536,
            "time": 41.0625,
            "velocity": 0.5511811023622047
          },
          {
            "duration": 0.1875,
            "durationTicks": 144,
            "midi": 62,
            "name": "D4",
            "ticks": 31680,
            "time": 41.25,
            "velocity": 0.5511811023622047
          },
          {
            "duration": 0.1875,
            "durationTicks": 144,
            "midi": 47,
            "name": "B2",
            "ticks": 31680,
            "time": 41.25,
            "velocity": 0.5511811023622047
          },
          {
            "duration": 0.1875,
            "durationTicks": 144,
            "midi": 59,
            "name": "B3",
            "ticks": 31680,
            "time": 41.25,
            "velocity": 0.5511811023622047
          },
          {
            "duration": 0.1875,
            "durationTicks": 144,
            "midi": 67,
            "name": "G4",
            "ticks": 31680,
            "time": 41.25,
            "velocity": 0.5511811023622047
          },
          {
            "duration": 0.1875,
            "durationTicks": 144,
            "midi": 50,
            "name": "D3",
            "ticks": 31680,
            "time": 41.25,
            "velocity": 0.5511811023622047
          },
          {
            "duration": 0.1875,
            "durationTicks": 144,
            "midi": 55,
            "name": "G3",
            "ticks": 31680,
            "time": 41.25,
            "velocity": 0.5511811023622047
          },
          {
            "duration": 0.1875,
            "durationTicks": 144,
            "midi": 43,
            "name": "G2",
            "ticks": 31680,
            "time": 41.25,
            "velocity": 0.5511811023622047
          },
          {
            "duration": 0.1875,
            "durationTicks": 144,
            "midi": 55,
            "name": "G3",
            "ticks": 31968,
            "time": 41.625,
            "velocity": 0.5511811023622047
          },
          {
            "duration": 0.1875,
            "durationTicks": 144,
            "midi": 67,
            "name": "G4",
            "ticks": 31968,
            "time": 41.625,
            "velocity": 0.5511811023622047
          },
          {
            "duration": 0.1875,
            "durationTicks": 144,
            "midi": 62,
            "name": "D4",
            "ticks": 31968,
            "time": 41.625,
            "velocity": 0.5511811023622047
          },
          {
            "duration": 0.1875,
            "durationTicks": 144,
            "midi": 43,
            "name": "G2",
            "ticks": 31968,
            "time": 41.625,
            "velocity": 0.5511811023622047
          },
          {
            "duration": 0.1875,
            "durationTicks": 144,
            "midi": 59,
            "name": "B3",
            "ticks": 31968,
            "time": 41.625,
            "velocity": 0.5511811023622047
          },
          {
            "duration": 0.1875,
            "durationTicks": 144,
            "midi": 47,
            "name": "B2",
            "ticks": 31968,
            "time": 41.625,
            "velocity": 0.5511811023622047
          },
          {
            "duration": 0.1875,
            "durationTicks": 144,
            "midi": 50,
            "name": "D3",
            "ticks": 31968,
            "time": 41.625,
            "velocity": 0.5511811023622047
          },
          {
            "duration": 0.1875,
            "durationTicks": 144,
            "midi": 43,
            "name": "G2",
            "ticks": 32112,
            "time": 41.8125,
            "velocity": 0.5511811023622047
          },
          {
            "duration": 0.1875,
            "durationTicks": 144,
            "midi": 62,
            "name": "D4",
            "ticks": 32112,
            "time": 41.8125,
            "velocity": 0.5511811023622047
          },
          {
            "duration": 0.1875,
            "durationTicks": 144,
            "midi": 55,
            "name": "G3",
            "ticks": 32112,
            "time": 41.8125,
            "velocity": 0.5511811023622047
          },
          {
            "duration": 0.1875,
            "durationTicks": 144,
            "midi": 67,
            "name": "G4",
            "ticks": 32112,
            "time": 41.8125,
            "velocity": 0.5511811023622047
          },
          {
            "duration": 0.1875,
            "durationTicks": 144,
            "midi": 59,
            "name": "B3",
            "ticks": 32112,
            "time": 41.8125,
            "velocity": 0.5511811023622047
          },
          {
            "duration": 0.1875,
            "durationTicks": 144,
            "midi": 47,
            "name": "B2",
            "ticks": 32112,
            "time": 41.8125,
            "velocity": 0.5511811023622047
          },
          {
            "duration": 0.1875,
            "durationTicks": 144,
            "midi": 50,
            "name": "D3",
            "ticks": 32112,
            "time": 41.8125,
            "velocity": 0.5511811023622047
          },
          {
            "duration": 0.1875,
            "durationTicks": 144,
            "midi": 59,
            "name": "B3",
            "ticks": 32400,
            "time": 42.1875,
            "velocity": 0.5511811023622047
          },
          {
            "duration": 0.1875,
            "durationTicks": 144,
            "midi": 50,
            "name": "D3",
            "ticks": 32400,
            "time": 42.1875,
            "velocity": 0.5511811023622047
          },
          {
            "duration": 0.1875,
            "durationTicks": 144,
            "midi": 62,
            "name": "D4",
            "ticks": 32400,
            "time": 42.1875,
            "velocity": 0.5511811023622047
          },
          {
            "duration": 0.1875,
            "durationTicks": 144,
            "midi": 43,
            "name": "G2",
            "ticks": 32400,
            "time": 42.1875,
            "velocity": 0.5511811023622047
          },
          {
            "duration": 0.1875,
            "durationTicks": 144,
            "midi": 47,
            "name": "B2",
            "ticks": 32400,
            "time": 42.1875,
            "velocity": 0.5511811023622047
          },
          {
            "duration": 0.1875,
            "durationTicks": 144,
            "midi": 67,
            "name": "G4",
            "ticks": 32400,
            "time": 42.1875,
            "velocity": 0.5511811023622047
          },
          {
            "duration": 0.1875,
            "durationTicks": 144,
            "midi": 55,
            "name": "G3",
            "ticks": 32400,
            "time": 42.1875,
            "velocity": 0.5511811023622047
          },
          {
            "duration": 0.1875,
            "durationTicks": 144,
            "midi": 50,
            "name": "D3",
            "ticks": 32544,
            "time": 42.375,
            "velocity": 0.5511811023622047
          },
          {
            "duration": 0.1875,
            "durationTicks": 144,
            "midi": 47,
            "name": "B2",
            "ticks": 32544,
            "time": 42.375,
            "velocity": 0.5511811023622047
          },
          {
            "duration": 0.1875,
            "durationTicks": 144,
            "midi": 67,
            "name": "G4",
            "ticks": 32544,
            "time": 42.375,
            "velocity": 0.5511811023622047
          },
          {
            "duration": 0.1875,
            "durationTicks": 144,
            "midi": 43,
            "name": "G2",
            "ticks": 32544,
            "time": 42.375,
            "velocity": 0.5511811023622047
          },
          {
            "duration": 0.1875,
            "durationTicks": 144,
            "midi": 62,
            "name": "D4",
            "ticks": 32544,
            "time": 42.375,
            "velocity": 0.5511811023622047
          },
          {
            "duration": 0.1875,
            "durationTicks": 144,
            "midi": 55,
            "name": "G3",
            "ticks": 32544,
            "time": 42.375,
            "velocity": 0.5511811023622047
          },
          {
            "duration": 0.1875,
            "durationTicks": 144,
            "midi": 59,
            "name": "B3",
            "ticks": 32544,
            "time": 42.375,
            "velocity": 0.5511811023622047
          },
          {
            "duration": 0.1875,
            "durationTicks": 144,
            "midi": 62,
            "name": "D4",
            "ticks": 32688,
            "time": 42.5625,
            "velocity": 0.5511811023622047
          },
          {
            "duration": 0.1875,
            "durationTicks": 144,
            "midi": 47,
            "name": "B2",
            "ticks": 32688,
            "time": 42.5625,
            "velocity": 0.5511811023622047
          },
          {
            "duration": 0.1875,
            "durationTicks": 144,
            "midi": 43,
            "name": "G2",
            "ticks": 32688,
            "time": 42.5625,
            "velocity": 0.5511811023622047
          },
          {
            "duration": 0.1875,
            "durationTicks": 144,
            "midi": 55,
            "name": "G3",
            "ticks": 32688,
            "time": 42.5625,
            "velocity": 0.5511811023622047
          },
          {
            "duration": 0.1875,
            "durationTicks": 144,
            "midi": 50,
            "name": "D3",
            "ticks": 32688,
            "time": 42.5625,
            "velocity": 0.5511811023622047
          },
          {
            "duration": 0.1875,
            "durationTicks": 144,
            "midi": 67,
            "name": "G4",
            "ticks": 32688,
            "time": 42.5625,
            "velocity": 0.5511811023622047
          },
          {
            "duration": 0.1875,
            "durationTicks": 144,
            "midi": 59,
            "name": "B3",
            "ticks": 32688,
            "time": 42.5625,
            "velocity": 0.5511811023622047
          },
          {
            "duration": 0.1875,
            "durationTicks": 144,
            "midi": 55,
            "name": "G3",
            "ticks": 32832,
            "time": 42.75,
            "velocity": 0.5511811023622047
          },
          {
            "duration": 0.1875,
            "durationTicks": 144,
            "midi": 60,
            "name": "C4",
            "ticks": 32832,
            "time": 42.75,
            "velocity": 0.5511811023622047
          },
          {
            "duration": 0.1875,
            "durationTicks": 144,
            "midi": 36,
            "name": "C2",
            "ticks": 32832,
            "time": 42.75,
            "velocity": 0.5511811023622047
          },
          {
            "duration": 0.1875,
            "durationTicks": 144,
            "midi": 40,
            "name": "E2",
            "ticks": 32832,
            "time": 42.75,
            "velocity": 0.5511811023622047
          },
          {
            "duration": 0.1875,
            "durationTicks": 144,
            "midi": 52,
            "name": "E3",
            "ticks": 32832,
            "time": 42.75,
            "velocity": 0.5511811023622047
          },
          {
            "duration": 0.1875,
            "durationTicks": 144,
            "midi": 48,
            "name": "C3",
            "ticks": 32832,
            "time": 42.75,
            "velocity": 0.5511811023622047
          },
          {
            "duration": 0.1875,
            "durationTicks": 144,
            "midi": 43,
            "name": "G2",
            "ticks": 32832,
            "time": 42.75,
            "velocity": 0.5511811023622047
          },
          {
            "duration": 0.1875,
            "durationTicks": 144,
            "midi": 52,
            "name": "E3",
            "ticks": 33120,
            "time": 43.125,
            "velocity": 0.5511811023622047
          },
          {
            "duration": 0.1875,
            "durationTicks": 144,
            "midi": 60,
            "name": "C4",
            "ticks": 33120,
            "time": 43.125,
            "velocity": 0.5511811023622047
          },
          {
            "duration": 0.1875,
            "durationTicks": 144,
            "midi": 40,
            "name": "E2",
            "ticks": 33120,
            "time": 43.125,
            "velocity": 0.5511811023622047
          },
          {
            "duration": 0.1875,
            "durationTicks": 144,
            "midi": 55,
            "name": "G3",
            "ticks": 33120,
            "time": 43.125,
            "velocity": 0.5511811023622047
          },
          {
            "duration": 0.1875,
            "durationTicks": 144,
            "midi": 48,
            "name": "C3",
            "ticks": 33120,
            "time": 43.125,
            "velocity": 0.5511811023622047
          },
          {
            "duration": 0.1875,
            "durationTicks": 144,
            "midi": 43,
            "name": "G2",
            "ticks": 33120,
            "time": 43.125,
            "velocity": 0.5511811023622047
          },
          {
            "duration": 0.1875,
            "durationTicks": 144,
            "midi": 36,
            "name": "C2",
            "ticks": 33120,
            "time": 43.125,
            "velocity": 0.5511811023622047
          },
          {
            "duration": 0.1875,
            "durationTicks": 144,
            "midi": 48,
            "name": "C3",
            "ticks": 33264,
            "time": 43.3125,
            "velocity": 0.5511811023622047
          },
          {
            "duration": 0.1875,
            "durationTicks": 144,
            "midi": 52,
            "name": "E3",
            "ticks": 33264,
            "time": 43.3125,
            "velocity": 0.5511811023622047
          },
          {
            "duration": 0.1875,
            "durationTicks": 144,
            "midi": 43,
            "name": "G2",
            "ticks": 33264,
            "time": 43.3125,
            "velocity": 0.5511811023622047
          },
          {
            "duration": 0.1875,
            "durationTicks": 144,
            "midi": 60,
            "name": "C4",
            "ticks": 33264,
            "time": 43.3125,
            "velocity": 0.5511811023622047
          },
          {
            "duration": 0.1875,
            "durationTicks": 144,
            "midi": 40,
            "name": "E2",
            "ticks": 33264,
            "time": 43.3125,
            "velocity": 0.5511811023622047
          },
          {
            "duration": 0.1875,
            "durationTicks": 144,
            "midi": 36,
            "name": "C2",
            "ticks": 33264,
            "time": 43.3125,
            "velocity": 0.5511811023622047
          },
          {
            "duration": 0.1875,
            "durationTicks": 144,
            "midi": 55,
            "name": "G3",
            "ticks": 33264,
            "time": 43.3125,
            "velocity": 0.5511811023622047
          },
          {
            "duration": 0.1875,
            "durationTicks": 144,
            "midi": 43,
            "name": "G2",
            "ticks": 33552,
            "time": 43.6875,
            "velocity": 0.5511811023622047
          },
          {
            "duration": 0.1875,
            "durationTicks": 144,
            "midi": 40,
            "name": "E2",
            "ticks": 33552,
            "time": 43.6875,
            "velocity": 0.5511811023622047
          },
          {
            "duration": 0.1875,
            "durationTicks": 144,
            "midi": 52,
            "name": "E3",
            "ticks": 33552,
            "time": 43.6875,
            "velocity": 0.5511811023622047
          },
          {
            "duration": 0.1875,
            "durationTicks": 144,
            "midi": 48,
            "name": "C3",
            "ticks": 33552,
            "time": 43.6875,
            "velocity": 0.5511811023622047
          },
          {
            "duration": 0.1875,
            "durationTicks": 144,
            "midi": 55,
            "name": "G3",
            "ticks": 33552,
            "time": 43.6875,
            "velocity": 0.5511811023622047
          },
          {
            "duration": 0.1875,
            "durationTicks": 144,
            "midi": 36,
            "name": "C2",
            "ticks": 33552,
            "time": 43.6875,
            "velocity": 0.5511811023622047
          },
          {
            "duration": 0.1875,
            "durationTicks": 144,
            "midi": 60,
            "name": "C4",
            "ticks": 33552,
            "time": 43.6875,
            "velocity": 0.5511811023622047
          },
          {
            "duration": 0.1875,
            "durationTicks": 144,
            "midi": 40,
            "name": "E2",
            "ticks": 33696,
            "time": 43.875,
            "velocity": 0.5511811023622047
          },
          {
            "duration": 0.1875,
            "durationTicks": 144,
            "midi": 43,
            "name": "G2",
            "ticks": 33696,
            "time": 43.875,
            "velocity": 0.5511811023622047
          },
          {
            "duration": 0.1875,
            "durationTicks": 144,
            "midi": 52,
            "name": "E3",
            "ticks": 33696,
            "time": 43.875,
            "velocity": 0.5511811023622047
          },
          {
            "duration": 0.1875,
            "durationTicks": 144,
            "midi": 48,
            "name": "C3",
            "ticks": 33696,
            "time": 43.875,
            "velocity": 0.5511811023622047
          },
          {
            "duration": 0.1875,
            "durationTicks": 144,
            "midi": 55,
            "name": "G3",
            "ticks": 33696,
            "time": 43.875,
            "velocity": 0.5511811023622047
          },
          {
            "duration": 0.1875,
            "durationTicks": 144,
            "midi": 60,
            "name": "C4",
            "ticks": 33696,
            "time": 43.875,
            "velocity": 0.5511811023622047
          },
          {
            "duration": 0.1875,
            "durationTicks": 144,
            "midi": 36,
            "name": "C2",
            "ticks": 33696,
            "time": 43.875,
            "velocity": 0.5511811023622047
          },
          {
            "duration": 0.1875,
            "durationTicks": 144,
            "midi": 60,
            "name": "C4",
            "ticks": 33840,
            "time": 44.0625,
            "velocity": 0.5511811023622047
          },
          {
            "duration": 0.1875,
            "durationTicks": 144,
            "midi": 55,
            "name": "G3",
            "ticks": 33840,
            "time": 44.0625,
            "velocity": 0.5511811023622047
          },
          {
            "duration": 0.1875,
            "durationTicks": 144,
            "midi": 48,
            "name": "C3",
            "ticks": 33840,
            "time": 44.0625,
            "velocity": 0.5511811023622047
          },
          {
            "duration": 0.1875,
            "durationTicks": 144,
            "midi": 36,
            "name": "C2",
            "ticks": 33840,
            "time": 44.0625,
            "velocity": 0.5511811023622047
          },
          {
            "duration": 0.1875,
            "durationTicks": 144,
            "midi": 43,
            "name": "G2",
            "ticks": 33840,
            "time": 44.0625,
            "velocity": 0.5511811023622047
          },
          {
            "duration": 0.1875,
            "durationTicks": 144,
            "midi": 52,
            "name": "E3",
            "ticks": 33840,
            "time": 44.0625,
            "velocity": 0.5511811023622047
          },
          {
            "duration": 0.1875,
            "durationTicks": 144,
            "midi": 40,
            "name": "E2",
            "ticks": 33840,
            "time": 44.0625,
            "velocity": 0.5511811023622047
          },
          {
            "duration": 0.1875,
            "durationTicks": 144,
            "midi": 43,
            "name": "G2",
            "ticks": 33984,
            "time": 44.25,
            "velocity": 0.5511811023622047
          },
          {
            "duration": 0.1875,
            "durationTicks": 144,
            "midi": 52,
            "name": "E3",
            "ticks": 33984,
            "time": 44.25,
            "velocity": 0.5511811023622047
          },
          {
            "duration": 0.1875,
            "durationTicks": 144,
            "midi": 60,
            "name": "C4",
            "ticks": 33984,
            "time": 44.25,
            "velocity": 0.5511811023622047
          },
          {
            "duration": 0.1875,
            "durationTicks": 144,
            "midi": 48,
            "name": "C3",
            "ticks": 33984,
            "time": 44.25,
            "velocity": 0.5511811023622047
          },
          {
            "duration": 0.1875,
            "durationTicks": 144,
            "midi": 40,
            "name": "E2",
            "ticks": 33984,
            "time": 44.25,
            "velocity": 0.5511811023622047
          },
          {
            "duration": 0.1875,
            "durationTicks": 144,
            "midi": 36,
            "name": "C2",
            "ticks": 33984,
            "time": 44.25,
            "velocity": 0.5511811023622047
          },
          {
            "duration": 0.1875,
            "durationTicks": 144,
            "midi": 55,
            "name": "G3",
            "ticks": 33984,
            "time": 44.25,
            "velocity": 0.5511811023622047
          },
          {
            "duration": 0.1875,
            "durationTicks": 144,
            "midi": 40,
            "name": "E2",
            "ticks": 34272,
            "time": 44.625,
            "velocity": 0.5511811023622047
          },
          {
            "duration": 0.1875,
            "durationTicks": 144,
            "midi": 43,
            "name": "G2",
            "ticks": 34272,
            "time": 44.625,
            "velocity": 0.5511811023622047
          },
          {
            "duration": 0.1875,
            "durationTicks": 144,
            "midi": 48,
            "name": "C3",
            "ticks": 34272,
            "time": 44.625,
            "velocity": 0.5511811023622047
          },
          {
            "duration": 0.1875,
            "durationTicks": 144,
            "midi": 36,
            "name": "C2",
            "ticks": 34272,
            "time": 44.625,
            "velocity": 0.5511811023622047
          },
          {
            "duration": 0.1875,
            "durationTicks": 144,
            "midi": 52,
            "name": "E3",
            "ticks": 34272,
            "time": 44.625,
            "velocity": 0.5511811023622047
          },
          {
            "duration": 0.1875,
            "durationTicks": 144,
            "midi": 55,
            "name": "G3",
            "ticks": 34272,
            "time": 44.625,
            "velocity": 0.5511811023622047
          },
          {
            "duration": 0.1875,
            "durationTicks": 144,
            "midi": 60,
            "name": "C4",
            "ticks": 34272,
            "time": 44.625,
            "velocity": 0.5511811023622047
          },
          {
            "duration": 0.1875,
            "durationTicks": 144,
            "midi": 48,
            "name": "C3",
            "ticks": 34416,
            "time": 44.8125,
            "velocity": 0.5511811023622047
          },
          {
            "duration": 0.1875,
            "durationTicks": 144,
            "midi": 36,
            "name": "C2",
            "ticks": 34416,
            "time": 44.8125,
            "velocity": 0.5511811023622047
          },
          {
            "duration": 0.1875,
            "durationTicks": 144,
            "midi": 55,
            "name": "G3",
            "ticks": 34416,
            "time": 44.8125,
            "velocity": 0.5511811023622047
          },
          {
            "duration": 0.1875,
            "durationTicks": 144,
            "midi": 40,
            "name": "E2",
            "ticks": 34416,
            "time": 44.8125,
            "velocity": 0.5511811023622047
          },
          {
            "duration": 0.1875,
            "durationTicks": 144,
            "midi": 43,
            "name": "G2",
            "ticks": 34416,
            "time": 44.8125,
            "velocity": 0.5511811023622047
          },
          {
            "duration": 0.1875,
            "durationTicks": 144,
            "midi": 60,
            "name": "C4",
            "ticks": 34416,
            "time": 44.8125,
            "velocity": 0.5511811023622047
          },
          {
            "duration": 0.1875,
            "durationTicks": 144,
            "midi": 52,
            "name": "E3",
            "ticks": 34416,
            "time": 44.8125,
            "velocity": 0.5511811023622047
          },
          {
            "duration": 0.1875,
            "durationTicks": 144,
            "midi": 48,
            "name": "C3",
            "ticks": 34704,
            "time": 45.1875,
            "velocity": 0.5511811023622047
          },
          {
            "duration": 0.1875,
            "durationTicks": 144,
            "midi": 55,
            "name": "G3",
            "ticks": 34704,
            "time": 45.1875,
            "velocity": 0.5511811023622047
          },
          {
            "duration": 0.1875,
            "durationTicks": 144,
            "midi": 43,
            "name": "G2",
            "ticks": 34704,
            "time": 45.1875,
            "velocity": 0.5511811023622047
          },
          {
            "duration": 0.1875,
            "durationTicks": 144,
            "midi": 40,
            "name": "E2",
            "ticks": 34704,
            "time": 45.1875,
            "velocity": 0.5511811023622047
          },
          {
            "duration": 0.1875,
            "durationTicks": 144,
            "midi": 52,
            "name": "E3",
            "ticks": 34704,
            "time": 45.1875,
            "velocity": 0.5511811023622047
          },
          {
            "duration": 0.1875,
            "durationTicks": 144,
            "midi": 36,
            "name": "C2",
            "ticks": 34704,
            "time": 45.1875,
            "velocity": 0.5511811023622047
          },
          {
            "duration": 0.1875,
            "durationTicks": 144,
            "midi": 60,
            "name": "C4",
            "ticks": 34704,
            "time": 45.1875,
            "velocity": 0.5511811023622047
          },
          {
            "duration": 0.1875,
            "durationTicks": 144,
            "midi": 40,
            "name": "E2",
            "ticks": 34848,
            "time": 45.375,
            "velocity": 0.5511811023622047
          },
          {
            "duration": 0.1875,
            "durationTicks": 144,
            "midi": 52,
            "name": "E3",
            "ticks": 34848,
            "time": 45.375,
            "velocity": 0.5511811023622047
          },
          {
            "duration": 0.1875,
            "durationTicks": 144,
            "midi": 55,
            "name": "G3",
            "ticks": 34848,
            "time": 45.375,
            "velocity": 0.5511811023622047
          },
          {
            "duration": 0.1875,
            "durationTicks": 144,
            "midi": 43,
            "name": "G2",
            "ticks": 34848,
            "time": 45.375,
            "velocity": 0.5511811023622047
          },
          {
            "duration": 0.1875,
            "durationTicks": 144,
            "midi": 60,
            "name": "C4",
            "ticks": 34848,
            "time": 45.375,
            "velocity": 0.5511811023622047
          },
          {
            "duration": 0.1875,
            "durationTicks": 144,
            "midi": 48,
            "name": "C3",
            "ticks": 34848,
            "time": 45.375,
            "velocity": 0.5511811023622047
          },
          {
            "duration": 0.1875,
            "durationTicks": 144,
            "midi": 36,
            "name": "C2",
            "ticks": 34848,
            "time": 45.375,
            "velocity": 0.5511811023622047
          },
          {
            "duration": 0.1875,
            "durationTicks": 144,
            "midi": 52,
            "name": "E3",
            "ticks": 34992,
            "time": 45.5625,
            "velocity": 0.5511811023622047
          },
          {
            "duration": 0.1875,
            "durationTicks": 144,
            "midi": 48,
            "name": "C3",
            "ticks": 34992,
            "time": 45.5625,
            "velocity": 0.5511811023622047
          },
          {
            "duration": 0.1875,
            "durationTicks": 144,
            "midi": 43,
            "name": "G2",
            "ticks": 34992,
            "time": 45.5625,
            "velocity": 0.5511811023622047
          },
          {
            "duration": 0.1875,
            "durationTicks": 144,
            "midi": 55,
            "name": "G3",
            "ticks": 34992,
            "time": 45.5625,
            "velocity": 0.5511811023622047
          },
          {
            "duration": 0.1875,
            "durationTicks": 144,
            "midi": 36,
            "name": "C2",
            "ticks": 34992,
            "time": 45.5625,
            "velocity": 0.5511811023622047
          },
          {
            "duration": 0.1875,
            "durationTicks": 144,
            "midi": 60,
            "name": "C4",
            "ticks": 34992,
            "time": 45.5625,
            "velocity": 0.5511811023622047
          },
          {
            "duration": 0.1875,
            "durationTicks": 144,
            "midi": 40,
            "name": "E2",
            "ticks": 34992,
            "time": 45.5625,
            "velocity": 0.5511811023622047
          },
          {
            "duration": 0.1875,
            "durationTicks": 144,
            "midi": 57,
            "name": "A3",
            "ticks": 35136,
            "time": 45.75,
            "velocity": 0.5511811023622047
          },
          {
            "duration": 0.1875,
            "durationTicks": 144,
            "midi": 62,
            "name": "D4",
            "ticks": 35136,
            "time": 45.75,
            "velocity": 0.5511811023622047
          },
          {
            "duration": 0.1875,
            "durationTicks": 144,
            "midi": 54,
            "name": "F#3",
            "ticks": 35136,
            "time": 45.75,
            "velocity": 0.5511811023622047
          },
          {
            "duration": 0.1875,
            "durationTicks": 144,
            "midi": 45,
            "name": "A2",
            "ticks": 35136,
            "time": 45.75,
            "velocity": 0.5511811023622047
          },
          {
            "duration": 0.1875,
            "durationTicks": 144,
            "midi": 42,
            "name": "F#2",
            "ticks": 35136,
            "time": 45.75,
            "velocity": 0.5511811023622047
          },
          {
            "duration": 0.1875,
            "durationTicks": 144,
            "midi": 50,
            "name": "D3",
            "ticks": 35136,
            "time": 45.75,
            "velocity": 0.5511811023622047
          },
          {
            "duration": 0.1875,
            "durationTicks": 144,
            "midi": 38,
            "name": "D2",
            "ticks": 35136,
            "time": 45.75,
            "velocity": 0.5511811023622047
          },
          {
            "duration": 0.1875,
            "durationTicks": 144,
            "midi": 57,
            "name": "A3",
            "ticks": 35424,
            "time": 46.125,
            "velocity": 0.5511811023622047
          },
          {
            "duration": 0.1875,
            "durationTicks": 144,
            "midi": 50,
            "name": "D3",
            "ticks": 35424,
            "time": 46.125,
            "velocity": 0.5511811023622047
          },
          {
            "duration": 0.1875,
            "durationTicks": 144,
            "midi": 54,
            "name": "F#3",
            "ticks": 35424,
            "time": 46.125,
            "velocity": 0.5511811023622047
          },
          {
            "duration": 0.1875,
            "durationTicks": 144,
            "midi": 38,
            "name": "D2",
            "ticks": 35424,
            "time": 46.125,
            "velocity": 0.5511811023622047
          },
          {
            "duration": 0.1875,
            "durationTicks": 144,
            "midi": 62,
            "name": "D4",
            "ticks": 35424,
            "time": 46.125,
            "velocity": 0.5511811023622047
          },
          {
            "duration": 0.1875,
            "durationTicks": 144,
            "midi": 42,
            "name": "F#2",
            "ticks": 35424,
            "time": 46.125,
            "velocity": 0.5511811023622047
          },
          {
            "duration": 0.1875,
            "durationTicks": 144,
            "midi": 45,
            "name": "A2",
            "ticks": 35424,
            "time": 46.125,
            "velocity": 0.5511811023622047
          },
          {
            "duration": 0.1875,
            "durationTicks": 144,
            "midi": 64,
            "name": "E4",
            "ticks": 35712,
            "time": 46.5,
            "velocity": 0.5511811023622047
          },
          {
            "duration": 0.1875,
            "durationTicks": 144,
            "midi": 52,
            "name": "E3",
            "ticks": 35712,
            "time": 46.5,
            "velocity": 0.5511811023622047
          },
          {
            "duration": 0.1875,
            "durationTicks": 144,
            "midi": 44,
            "name": "G#2",
            "ticks": 35712,
            "time": 46.5,
            "velocity": 0.5511811023622047
          },
          {
            "duration": 0.1875,
            "durationTicks": 144,
            "midi": 40,
            "name": "E2",
            "ticks": 35712,
            "time": 46.5,
            "velocity": 0.5511811023622047
          },
          {
            "duration": 0.1875,
            "durationTicks": 144,
            "midi": 56,
            "name": "G#3",
            "ticks": 35712,
            "time": 46.5,
            "velocity": 0.5511811023622047
          },
          {
            "duration": 0.1875,
            "durationTicks": 144,
            "midi": 47,
            "name": "B2",
            "ticks": 35712,
            "time": 46.5,
            "velocity": 0.5511811023622047
          },
          {
            "duration": 0.1875,
            "durationTicks": 144,
            "midi": 59,
            "name": "B3",
            "ticks": 35712,
            "time": 46.5,
            "velocity": 0.5511811023622047
          },
          {
            "duration": 0.5625,
            "durationTicks": 432,
            "midi": 52,
            "name": "E3",
            "ticks": 35712,
            "time": 46.5,
            "velocity": 0.5511811023622047
          },
          {
            "duration": 0.375,
            "durationTicks": 288,
            "midi": 52,
            "name": "E3",
            "ticks": 36000,
            "time": 46.875,
            "velocity": 0.5511811023622047
          },
          {
            "duration": 0.1875,
            "durationTicks": 144,
            "midi": 44,
            "name": "G#2",
            "ticks": 36000,
            "time": 46.875,
            "velocity": 0.5511811023622047
          },
          {
            "duration": 0.1875,
            "durationTicks": 144,
            "midi": 47,
            "name": "B2",
            "ticks": 36000,
            "time": 46.875,
            "velocity": 0.5511811023622047
          },
          {
            "duration": 0.1875,
            "durationTicks": 144,
            "midi": 64,
            "name": "E4",
            "ticks": 36000,
            "time": 46.875,
            "velocity": 0.5511811023622047
          },
          {
            "duration": 0.1875,
            "durationTicks": 144,
            "midi": 40,
            "name": "E2",
            "ticks": 36000,
            "time": 46.875,
            "velocity": 0.5511811023622047
          },
          {
            "duration": 0.1875,
            "durationTicks": 144,
            "midi": 59,
            "name": "B3",
            "ticks": 36000,
            "time": 46.875,
            "velocity": 0.5511811023622047
          },
          {
            "duration": 0.1875,
            "durationTicks": 144,
            "midi": 56,
            "name": "G#3",
            "ticks": 36000,
            "time": 46.875,
            "velocity": 0.5511811023622047
          },
          {
            "duration": 0.1875,
            "durationTicks": 144,
            "midi": 44,
            "name": "G#2",
            "ticks": 36144,
            "time": 47.0625,
            "velocity": 0.5511811023622047
          },
          {
            "duration": 0.5625,
            "durationTicks": 432,
            "midi": 52,
            "name": "E3",
            "ticks": 36144,
            "time": 47.0625,
            "velocity": 0.5511811023622047
          },
          {
            "duration": 0.1875,
            "durationTicks": 144,
            "midi": 59,
            "name": "B3",
            "ticks": 36144,
            "time": 47.0625,
            "velocity": 0.5511811023622047
          },
          {
            "duration": 0.1875,
            "durationTicks": 144,
            "midi": 47,
            "name": "B2",
            "ticks": 36144,
            "time": 47.0625,
            "velocity": 0.5511811023622047
          },
          {
            "duration": 0.1875,
            "durationTicks": 144,
            "midi": 40,
            "name": "E2",
            "ticks": 36144,
            "time": 47.0625,
            "velocity": 0.5511811023622047
          },
          {
            "duration": 0.1875,
            "durationTicks": 144,
            "midi": 64,
            "name": "E4",
            "ticks": 36144,
            "time": 47.0625,
            "velocity": 0.5511811023622047
          },
          {
            "duration": 0.1875,
            "durationTicks": 144,
            "midi": 56,
            "name": "G#3",
            "ticks": 36144,
            "time": 47.0625,
            "velocity": 0.5511811023622047
          },
          {
            "duration": 0.1875,
            "durationTicks": 144,
            "midi": 47,
            "name": "B2",
            "ticks": 36432,
            "time": 47.4375,
            "velocity": 0.5511811023622047
          },
          {
            "duration": 0.375,
            "durationTicks": 288,
            "midi": 52,
            "name": "E3",
            "ticks": 36432,
            "time": 47.4375,
            "velocity": 0.5511811023622047
          },
          {
            "duration": 0.1875,
            "durationTicks": 144,
            "midi": 40,
            "name": "E2",
            "ticks": 36432,
            "time": 47.4375,
            "velocity": 0.5511811023622047
          },
          {
            "duration": 0.1875,
            "durationTicks": 144,
            "midi": 59,
            "name": "B3",
            "ticks": 36432,
            "time": 47.4375,
            "velocity": 0.5511811023622047
          },
          {
            "duration": 0.1875,
            "durationTicks": 144,
            "midi": 64,
            "name": "E4",
            "ticks": 36432,
            "time": 47.4375,
            "velocity": 0.5511811023622047
          },
          {
            "duration": 0.1875,
            "durationTicks": 144,
            "midi": 44,
            "name": "G#2",
            "ticks": 36432,
            "time": 47.4375,
            "velocity": 0.5511811023622047
          },
          {
            "duration": 0.1875,
            "durationTicks": 144,
            "midi": 56,
            "name": "G#3",
            "ticks": 36432,
            "time": 47.4375,
            "velocity": 0.5511811023622047
          },
          {
            "duration": 0.1875,
            "durationTicks": 144,
            "midi": 56,
            "name": "G#3",
            "ticks": 36576,
            "time": 47.625,
            "velocity": 0.5511811023622047
          },
          {
            "duration": 0.1875,
            "durationTicks": 144,
            "midi": 47,
            "name": "B2",
            "ticks": 36576,
            "time": 47.625,
            "velocity": 0.5511811023622047
          },
          {
            "duration": 0.1875,
            "durationTicks": 144,
            "midi": 59,
            "name": "B3",
            "ticks": 36576,
            "time": 47.625,
            "velocity": 0.5511811023622047
          },
          {
            "duration": 0.375,
            "durationTicks": 288,
            "midi": 52,
            "name": "E3",
            "ticks": 36576,
            "time": 47.625,
            "velocity": 0.5511811023622047
          },
          {
            "duration": 0.1875,
            "durationTicks": 144,
            "midi": 64,
            "name": "E4",
            "ticks": 36576,
            "time": 47.625,
            "velocity": 0.5511811023622047
          },
          {
            "duration": 0.1875,
            "durationTicks": 144,
            "midi": 40,
            "name": "E2",
            "ticks": 36576,
            "time": 47.625,
            "velocity": 0.5511811023622047
          },
          {
            "duration": 0.1875,
            "durationTicks": 144,
            "midi": 44,
            "name": "G#2",
            "ticks": 36576,
            "time": 47.625,
            "velocity": 0.5511811023622047
          },
          {
            "duration": 0.1875,
            "durationTicks": 144,
            "midi": 47,
            "name": "B2",
            "ticks": 36720,
            "time": 47.8125,
            "velocity": 0.5511811023622047
          },
          {
            "duration": 0.1875,
            "durationTicks": 144,
            "midi": 44,
            "name": "G#2",
            "ticks": 36720,
            "time": 47.8125,
            "velocity": 0.5511811023622047
          },
          {
            "duration": 0.1875,
            "durationTicks": 144,
            "midi": 40,
            "name": "E2",
            "ticks": 36720,
            "time": 47.8125,
            "velocity": 0.5511811023622047
          },
          {
            "duration": 0.1875,
            "durationTicks": 144,
            "midi": 64,
            "name": "E4",
            "ticks": 36720,
            "time": 47.8125,
            "velocity": 0.5511811023622047
          },
          {
            "duration": 0.375,
            "durationTicks": 288,
            "midi": 52,
            "name": "E3",
            "ticks": 36720,
            "time": 47.8125,
            "velocity": 0.5511811023622047
          },
          {
            "duration": 0.1875,
            "durationTicks": 144,
            "midi": 56,
            "name": "G#3",
            "ticks": 36720,
            "time": 47.8125,
            "velocity": 0.5511811023622047
          },
          {
            "duration": 0.1875,
            "durationTicks": 144,
            "midi": 59,
            "name": "B3",
            "ticks": 36720,
            "time": 47.8125,
            "velocity": 0.5511811023622047
          },
          {
            "duration": 0.1875,
            "durationTicks": 144,
            "midi": 40,
            "name": "E2",
            "ticks": 36864,
            "time": 48,
            "velocity": 0.5511811023622047
          },
          {
            "duration": 0.1875,
            "durationTicks": 144,
            "midi": 59,
            "name": "B3",
            "ticks": 36864,
            "time": 48,
            "velocity": 0.5511811023622047
          },
          {
            "duration": 0.1875,
            "durationTicks": 144,
            "midi": 64,
            "name": "E4",
            "ticks": 36864,
            "time": 48,
            "velocity": 0.5511811023622047
          },
          {
            "duration": 0.25,
            "durationTicks": 192,
            "midi": 52,
            "name": "E3",
            "ticks": 36864,
            "time": 48,
            "velocity": 0.5511811023622047
          },
          {
            "duration": 0.1875,
            "durationTicks": 144,
            "midi": 56,
            "name": "G#3",
            "ticks": 36864,
            "time": 48,
            "velocity": 0.5511811023622047
          },
          {
            "duration": 0.1875,
            "durationTicks": 144,
            "midi": 44,
            "name": "G#2",
            "ticks": 36864,
            "time": 48,
            "velocity": 0.5511811023622047
          },
          {
            "duration": 0.1875,
            "durationTicks": 144,
            "midi": 47,
            "name": "B2",
            "ticks": 36864,
            "time": 48,
            "velocity": 0.5511811023622047
          },
          {
            "duration": 0.1875,
            "durationTicks": 144,
            "midi": 44,
            "name": "G#2",
            "ticks": 37152,
            "time": 48.375,
            "velocity": 0.5511811023622047
          },
          {
            "duration": 0.1875,
            "durationTicks": 144,
            "midi": 52,
            "name": "E3",
            "ticks": 37152,
            "time": 48.375,
            "velocity": 0.5511811023622047
          },
          {
            "duration": 0.1875,
            "durationTicks": 144,
            "midi": 47,
            "name": "B2",
            "ticks": 37152,
            "time": 48.375,
            "velocity": 0.5511811023622047
          },
          {
            "duration": 0.1875,
            "durationTicks": 144,
            "midi": 40,
            "name": "E2",
            "ticks": 37152,
            "time": 48.375,
            "velocity": 0.5511811023622047
          },
          {
            "duration": 0.1875,
            "durationTicks": 144,
            "midi": 64,
            "name": "E4",
            "ticks": 37152,
            "time": 48.375,
            "velocity": 0.5511811023622047
          },
          {
            "duration": 0.1875,
            "durationTicks": 144,
            "midi": 59,
            "name": "B3",
            "ticks": 37152,
            "time": 48.375,
            "velocity": 0.5511811023622047
          },
          {
            "duration": 0.1875,
            "durationTicks": 144,
            "midi": 56,
            "name": "G#3",
            "ticks": 37152,
            "time": 48.375,
            "velocity": 0.5511811023622047
          },
          {
            "duration": 0.1875,
            "durationTicks": 144,
            "midi": 64,
            "name": "E4",
            "ticks": 37296,
            "time": 48.5625,
            "velocity": 0.5511811023622047
          },
          {
            "duration": 0.1875,
            "durationTicks": 144,
            "midi": 59,
            "name": "B3",
            "ticks": 37296,
            "time": 48.5625,
            "velocity": 0.5511811023622047
          },
          {
            "duration": 0.1875,
            "durationTicks": 144,
            "midi": 56,
            "name": "G#3",
            "ticks": 37296,
            "time": 48.5625,
            "velocity": 0.5511811023622047
          },
          {
            "duration": 0.1875,
            "durationTicks": 144,
            "midi": 47,
            "name": "B2",
            "ticks": 37296,
            "time": 48.5625,
            "velocity": 0.5511811023622047
          },
          {
            "duration": 0.1875,
            "durationTicks": 144,
            "midi": 44,
            "name": "G#2",
            "ticks": 37296,
            "time": 48.5625,
            "velocity": 0.5511811023622047
          },
          {
            "duration": 0.1875,
            "durationTicks": 144,
            "midi": 52,
            "name": "E3",
            "ticks": 37296,
            "time": 48.5625,
            "velocity": 0.5511811023622047
          },
          {
            "duration": 0.1875,
            "durationTicks": 144,
            "midi": 40,
            "name": "E2",
            "ticks": 37296,
            "time": 48.5625,
            "velocity": 0.5511811023622047
          },
          {
            "duration": 0.1875,
            "durationTicks": 144,
            "midi": 52,
            "name": "E3",
            "ticks": 37584,
            "time": 48.9375,
            "velocity": 0.5511811023622047
          },
          {
            "duration": 0.1875,
            "durationTicks": 144,
            "midi": 40,
            "name": "E2",
            "ticks": 37584,
            "time": 48.9375,
            "velocity": 0.5511811023622047
          },
          {
            "duration": 0.1875,
            "durationTicks": 144,
            "midi": 47,
            "name": "B2",
            "ticks": 37584,
            "time": 48.9375,
            "velocity": 0.5511811023622047
          },
          {
            "duration": 0.1875,
            "durationTicks": 144,
            "midi": 44,
            "name": "G#2",
            "ticks": 37584,
            "time": 48.9375,
            "velocity": 0.5511811023622047
          },
          {
            "duration": 0.1875,
            "durationTicks": 144,
            "midi": 64,
            "name": "E4",
            "ticks": 37584,
            "time": 48.9375,
            "velocity": 0.5511811023622047
          },
          {
            "duration": 0.1875,
            "durationTicks": 144,
            "midi": 59,
            "name": "B3",
            "ticks": 37584,
            "time": 48.9375,
            "velocity": 0.5511811023622047
          },
          {
            "duration": 0.1875,
            "durationTicks": 144,
            "midi": 56,
            "name": "G#3",
            "ticks": 37584,
            "time": 48.9375,
            "velocity": 0.5511811023622047
          },
          {
            "duration": 0.1875,
            "durationTicks": 144,
            "midi": 44,
            "name": "G#2",
            "ticks": 37728,
            "time": 49.125,
            "velocity": 0.5511811023622047
          },
          {
            "duration": 0.1875,
            "durationTicks": 144,
            "midi": 59,
            "name": "B3",
            "ticks": 37728,
            "time": 49.125,
            "velocity": 0.5511811023622047
          },
          {
            "duration": 0.1875,
            "durationTicks": 144,
            "midi": 64,
            "name": "E4",
            "ticks": 37728,
            "time": 49.125,
            "velocity": 0.5511811023622047
          },
          {
            "duration": 0.1875,
            "durationTicks": 144,
            "midi": 47,
            "name": "B2",
            "ticks": 37728,
            "time": 49.125,
            "velocity": 0.5511811023622047
          },
          {
            "duration": 0.1875,
            "durationTicks": 144,
            "midi": 52,
            "name": "E3",
            "ticks": 37728,
            "time": 49.125,
            "velocity": 0.5511811023622047
          },
          {
            "duration": 0.1875,
            "durationTicks": 144,
            "midi": 40,
            "name": "E2",
            "ticks": 37728,
            "time": 49.125,
            "velocity": 0.5511811023622047
          },
          {
            "duration": 0.1875,
            "durationTicks": 144,
            "midi": 56,
            "name": "G#3",
            "ticks": 37728,
            "time": 49.125,
            "velocity": 0.5511811023622047
          },
          {
            "duration": 0.1875,
            "durationTicks": 144,
            "midi": 44,
            "name": "G#2",
            "ticks": 37872,
            "time": 49.3125,
            "velocity": 0.5511811023622047
          },
          {
            "duration": 0.1875,
            "durationTicks": 144,
            "midi": 59,
            "name": "B3",
            "ticks": 37872,
            "time": 49.3125,
            "velocity": 0.5511811023622047
          },
          {
            "duration": 0.1875,
            "durationTicks": 144,
            "midi": 52,
            "name": "E3",
            "ticks": 37872,
            "time": 49.3125,
            "velocity": 0.5511811023622047
          },
          {
            "duration": 0.1875,
            "durationTicks": 144,
            "midi": 64,
            "name": "E4",
            "ticks": 37872,
            "time": 49.3125,
            "velocity": 0.5511811023622047
          },
          {
            "duration": 0.1875,
            "durationTicks": 144,
            "midi": 56,
            "name": "G#3",
            "ticks": 37872,
            "time": 49.3125,
            "velocity": 0.5511811023622047
          },
          {
            "duration": 0.1875,
            "durationTicks": 144,
            "midi": 40,
            "name": "E2",
            "ticks": 37872,
            "time": 49.3125,
            "velocity": 0.5511811023622047
          },
          {
            "duration": 0.1875,
            "durationTicks": 144,
            "midi": 47,
            "name": "B2",
            "ticks": 37872,
            "time": 49.3125,
            "velocity": 0.5511811023622047
          },
          {
            "duration": 0.1875,
            "durationTicks": 144,
            "midi": 43,
            "name": "G2",
            "ticks": 38016,
            "time": 49.5,
            "velocity": 0.5511811023622047
          },
          {
            "duration": 0.1875,
            "durationTicks": 144,
            "midi": 62,
            "name": "D4",
            "ticks": 38016,
            "time": 49.5,
            "velocity": 0.5511811023622047
          },
          {
            "duration": 0.1875,
            "durationTicks": 144,
            "midi": 67,
            "name": "G4",
            "ticks": 38016,
            "time": 49.5,
            "velocity": 0.5511811023622047
          },
          {
            "duration": 0.1875,
            "durationTicks": 144,
            "midi": 47,
            "name": "B2",
            "ticks": 38016,
            "time": 49.5,
            "velocity": 0.5511811023622047
          },
          {
            "duration": 0.1875,
            "durationTicks": 144,
            "midi": 59,
            "name": "B3",
            "ticks": 38016,
            "time": 49.5,
            "velocity": 0.5511811023622047
          },
          {
            "duration": 0.1875,
            "durationTicks": 144,
            "midi": 55,
            "name": "G3",
            "ticks": 38016,
            "time": 49.5,
            "velocity": 0.5511811023622047
          },
          {
            "duration": 0.1875,
            "durationTicks": 144,
            "midi": 50,
            "name": "D3",
            "ticks": 38016,
            "time": 49.5,
            "velocity": 0.5511811023622047
          },
          {
            "duration": 0.1875,
            "durationTicks": 144,
            "midi": 47,
            "name": "B2",
            "ticks": 38304,
            "time": 49.875,
            "velocity": 0.5511811023622047
          },
          {
            "duration": 0.1875,
            "durationTicks": 144,
            "midi": 55,
            "name": "G3",
            "ticks": 38304,
            "time": 49.875,
            "velocity": 0.5511811023622047
          },
          {
            "duration": 0.1875,
            "durationTicks": 144,
            "midi": 62,
            "name": "D4",
            "ticks": 38304,
            "time": 49.875,
            "velocity": 0.5511811023622047
          },
          {
            "duration": 0.1875,
            "durationTicks": 144,
            "midi": 59,
            "name": "B3",
            "ticks": 38304,
            "time": 49.875,
            "velocity": 0.5511811023622047
          },
          {
            "duration": 0.1875,
            "durationTicks": 144,
            "midi": 43,
            "name": "G2",
            "ticks": 38304,
            "time": 49.875,
            "velocity": 0.5511811023622047
          },
          {
            "duration": 0.1875,
            "durationTicks": 144,
            "midi": 67,
            "name": "G4",
            "ticks": 38304,
            "time": 49.875,
            "velocity": 0.5511811023622047
          },
          {
            "duration": 0.1875,
            "durationTicks": 144,
            "midi": 50,
            "name": "D3",
            "ticks": 38304,
            "time": 49.875,
            "velocity": 0.5511811023622047
          },
          {
            "duration": 0.1875,
            "durationTicks": 144,
            "midi": 43,
            "name": "G2",
            "ticks": 38448,
            "time": 50.0625,
            "velocity": 0.5511811023622047
          },
          {
            "duration": 0.1875,
            "durationTicks": 144,
            "midi": 47,
            "name": "B2",
            "ticks": 38448,
            "time": 50.0625,
            "velocity": 0.5511811023622047
          },
          {
            "duration": 0.1875,
            "durationTicks": 144,
            "midi": 55,
            "name": "G3",
            "ticks": 38448,
            "time": 50.0625,
            "velocity": 0.5511811023622047
          },
          {
            "duration": 0.1875,
            "durationTicks": 144,
            "midi": 67,
            "name": "G4",
            "ticks": 38448,
            "time": 50.0625,
            "velocity": 0.5511811023622047
          },
          {
            "duration": 0.1875,
            "durationTicks": 144,
            "midi": 62,
            "name": "D4",
            "ticks": 38448,
            "time": 50.0625,
            "velocity": 0.5511811023622047
          },
          {
            "duration": 0.1875,
            "durationTicks": 144,
            "midi": 59,
            "name": "B3",
            "ticks": 38448,
            "time": 50.0625,
            "velocity": 0.5511811023622047
          },
          {
            "duration": 0.1875,
            "durationTicks": 144,
            "midi": 50,
            "name": "D3",
            "ticks": 38448,
            "time": 50.0625,
            "velocity": 0.5511811023622047
          },
          {
            "duration": 0.1875,
            "durationTicks": 144,
            "midi": 55,
            "name": "G3",
            "ticks": 38736,
            "time": 50.4375,
            "velocity": 0.5511811023622047
          },
          {
            "duration": 0.1875,
            "durationTicks": 144,
            "midi": 62,
            "name": "D4",
            "ticks": 38736,
            "time": 50.4375,
            "velocity": 0.5511811023622047
          },
          {
            "duration": 0.1875,
            "durationTicks": 144,
            "midi": 47,
            "name": "B2",
            "ticks": 38736,
            "time": 50.4375,
            "velocity": 0.5511811023622047
          },
          {
            "duration": 0.1875,
            "durationTicks": 144,
            "midi": 43,
            "name": "G2",
            "ticks": 38736,
            "time": 50.4375,
            "velocity": 0.5511811023622047
          },
          {
            "duration": 0.1875,
            "durationTicks": 144,
            "midi": 67,
            "name": "G4",
            "ticks": 38736,
            "time": 50.4375,
            "velocity": 0.5511811023622047
          },
          {
            "duration": 0.1875,
            "durationTicks": 144,
            "midi": 50,
            "name": "D3",
            "ticks": 38736,
            "time": 50.4375,
            "velocity": 0.5511811023622047
          },
          {
            "duration": 0.1875,
            "durationTicks": 144,
            "midi": 59,
            "name": "B3",
            "ticks": 38736,
            "time": 50.4375,
            "velocity": 0.5511811023622047
          },
          {
            "duration": 0.1875,
            "durationTicks": 144,
            "midi": 55,
            "name": "G3",
            "ticks": 38880,
            "time": 50.625,
            "velocity": 0.5511811023622047
          },
          {
            "duration": 0.1875,
            "durationTicks": 144,
            "midi": 50,
            "name": "D3",
            "ticks": 38880,
            "time": 50.625,
            "velocity": 0.5511811023622047
          },
          {
            "duration": 0.1875,
            "durationTicks": 144,
            "midi": 47,
            "name": "B2",
            "ticks": 38880,
            "time": 50.625,
            "velocity": 0.5511811023622047
          },
          {
            "duration": 0.1875,
            "durationTicks": 144,
            "midi": 43,
            "name": "G2",
            "ticks": 38880,
            "time": 50.625,
            "velocity": 0.5511811023622047
          },
          {
            "duration": 0.1875,
            "durationTicks": 144,
            "midi": 62,
            "name": "D4",
            "ticks": 38880,
            "time": 50.625,
            "velocity": 0.5511811023622047
          },
          {
            "duration": 0.1875,
            "durationTicks": 144,
            "midi": 59,
            "name": "B3",
            "ticks": 38880,
            "time": 50.625,
            "velocity": 0.5511811023622047
          },
          {
            "duration": 0.1875,
            "durationTicks": 144,
            "midi": 67,
            "name": "G4",
            "ticks": 38880,
            "time": 50.625,
            "velocity": 0.5511811023622047
          },
          {
            "duration": 0.1875,
            "durationTicks": 144,
            "midi": 59,
            "name": "B3",
            "ticks": 39024,
            "time": 50.8125,
            "velocity": 0.5511811023622047
          },
          {
            "duration": 0.1875,
            "durationTicks": 144,
            "midi": 62,
            "name": "D4",
            "ticks": 39024,
            "time": 50.8125,
            "velocity": 0.5511811023622047
          },
          {
            "duration": 0.1875,
            "durationTicks": 144,
            "midi": 50,
            "name": "D3",
            "ticks": 39024,
            "time": 50.8125,
            "velocity": 0.5511811023622047
          },
          {
            "duration": 0.1875,
            "durationTicks": 144,
            "midi": 67,
            "name": "G4",
            "ticks": 39024,
            "time": 50.8125,
            "velocity": 0.5511811023622047
          },
          {
            "duration": 0.1875,
            "durationTicks": 144,
            "midi": 43,
            "name": "G2",
            "ticks": 39024,
            "time": 50.8125,
            "velocity": 0.5511811023622047
          },
          {
            "duration": 0.1875,
            "durationTicks": 144,
            "midi": 47,
            "name": "B2",
            "ticks": 39024,
            "time": 50.8125,
            "velocity": 0.5511811023622047
          },
          {
            "duration": 0.1875,
            "durationTicks": 144,
            "midi": 55,
            "name": "G3",
            "ticks": 39024,
            "time": 50.8125,
            "velocity": 0.5511811023622047
          },
          {
            "duration": 0.1875,
            "durationTicks": 144,
            "midi": 48,
            "name": "C3",
            "ticks": 39168,
            "time": 51,
            "velocity": 0.5511811023622047
          },
          {
            "duration": 0.1875,
            "durationTicks": 144,
            "midi": 36,
            "name": "C2",
            "ticks": 39168,
            "time": 51,
            "velocity": 0.5511811023622047
          },
          {
            "duration": 0.1875,
            "durationTicks": 144,
            "midi": 52,
            "name": "E3",
            "ticks": 39168,
            "time": 51,
            "velocity": 0.5511811023622047
          },
          {
            "duration": 0.1875,
            "durationTicks": 144,
            "midi": 55,
            "name": "G3",
            "ticks": 39168,
            "time": 51,
            "velocity": 0.5511811023622047
          },
          {
            "duration": 0.1875,
            "durationTicks": 144,
            "midi": 60,
            "name": "C4",
            "ticks": 39168,
            "time": 51,
            "velocity": 0.5511811023622047
          },
          {
            "duration": 0.1875,
            "durationTicks": 144,
            "midi": 40,
            "name": "E2",
            "ticks": 39168,
            "time": 51,
            "velocity": 0.5511811023622047
          },
          {
            "duration": 0.1875,
            "durationTicks": 144,
            "midi": 43,
            "name": "G2",
            "ticks": 39168,
            "time": 51,
            "velocity": 0.5511811023622047
          },
          {
            "duration": 0.1875,
            "durationTicks": 144,
            "midi": 55,
            "name": "G3",
            "ticks": 39456,
            "time": 51.375,
            "velocity": 0.5511811023622047
          },
          {
            "duration": 0.1875,
            "durationTicks": 144,
            "midi": 60,
            "name": "C4",
            "ticks": 39456,
            "time": 51.375,
            "velocity": 0.5511811023622047
          },
          {
            "duration": 0.1875,
            "durationTicks": 144,
            "midi": 43,
            "name": "G2",
            "ticks": 39456,
            "time": 51.375,
            "velocity": 0.5511811023622047
          },
          {
            "duration": 0.1875,
            "durationTicks": 144,
            "midi": 40,
            "name": "E2",
            "ticks": 39456,
            "time": 51.375,
            "velocity": 0.5511811023622047
          },
          {
            "duration": 0.1875,
            "durationTicks": 144,
            "midi": 48,
            "name": "C3",
            "ticks": 39456,
            "time": 51.375,
            "velocity": 0.5511811023622047
          },
          {
            "duration": 0.1875,
            "durationTicks": 144,
            "midi": 36,
            "name": "C2",
            "ticks": 39456,
            "time": 51.375,
            "velocity": 0.5511811023622047
          },
          {
            "duration": 0.1875,
            "durationTicks": 144,
            "midi": 52,
            "name": "E3",
            "ticks": 39456,
            "time": 51.375,
            "velocity": 0.5511811023622047
          },
          {
            "duration": 0.1875,
            "durationTicks": 144,
            "midi": 36,
            "name": "C2",
            "ticks": 39600,
            "time": 51.5625,
            "velocity": 0.5511811023622047
          },
          {
            "duration": 0.1875,
            "durationTicks": 144,
            "midi": 60,
            "name": "C4",
            "ticks": 39600,
            "time": 51.5625,
            "velocity": 0.5511811023622047
          },
          {
            "duration": 0.1875,
            "durationTicks": 144,
            "midi": 43,
            "name": "G2",
            "ticks": 39600,
            "time": 51.5625,
            "velocity": 0.5511811023622047
          },
          {
            "duration": 0.1875,
            "durationTicks": 144,
            "midi": 52,
            "name": "E3",
            "ticks": 39600,
            "time": 51.5625,
            "velocity": 0.5511811023622047
          },
          {
            "duration": 0.1875,
            "durationTicks": 144,
            "midi": 40,
            "name": "E2",
            "ticks": 39600,
            "time": 51.5625,
            "velocity": 0.5511811023622047
          },
          {
            "duration": 0.1875,
            "durationTicks": 144,
            "midi": 55,
            "name": "G3",
            "ticks": 39600,
            "time": 51.5625,
            "velocity": 0.5511811023622047
          },
          {
            "duration": 0.1875,
            "durationTicks": 144,
            "midi": 48,
            "name": "C3",
            "ticks": 39600,
            "time": 51.5625,
            "velocity": 0.5511811023622047
          },
          {
            "duration": 0.1875,
            "durationTicks": 144,
            "midi": 40,
            "name": "E2",
            "ticks": 39888,
            "time": 51.9375,
            "velocity": 0.5511811023622047
          },
          {
            "duration": 0.1875,
            "durationTicks": 144,
            "midi": 60,
            "name": "C4",
            "ticks": 39888,
            "time": 51.9375,
            "velocity": 0.5511811023622047
          },
          {
            "duration": 0.1875,
            "durationTicks": 144,
            "midi": 43,
            "name": "G2",
            "ticks": 39888,
            "time": 51.9375,
            "velocity": 0.5511811023622047
          },
          {
            "duration": 0.1875,
            "durationTicks": 144,
            "midi": 36,
            "name": "C2",
            "ticks": 39888,
            "time": 51.9375,
            "velocity": 0.5511811023622047
          },
          {
            "duration": 0.1875,
            "durationTicks": 144,
            "midi": 52,
            "name": "E3",
            "ticks": 39888,
            "time": 51.9375,
            "velocity": 0.5511811023622047
          },
          {
            "duration": 0.1875,
            "durationTicks": 144,
            "midi": 48,
            "name": "C3",
            "ticks": 39888,
            "time": 51.9375,
            "velocity": 0.5511811023622047
          },
          {
            "duration": 0.1875,
            "durationTicks": 144,
            "midi": 55,
            "name": "G3",
            "ticks": 39888,
            "time": 51.9375,
            "velocity": 0.5511811023622047
          },
          {
            "duration": 0.1875,
            "durationTicks": 144,
            "midi": 40,
            "name": "E2",
            "ticks": 40032,
            "time": 52.125,
            "velocity": 0.5511811023622047
          },
          {
            "duration": 0.1875,
            "durationTicks": 144,
            "midi": 48,
            "name": "C3",
            "ticks": 40032,
            "time": 52.125,
            "velocity": 0.5511811023622047
          },
          {
            "duration": 0.1875,
            "durationTicks": 144,
            "midi": 36,
            "name": "C2",
            "ticks": 40032,
            "time": 52.125,
            "velocity": 0.5511811023622047
          },
          {
            "duration": 0.1875,
            "durationTicks": 144,
            "midi": 43,
            "name": "G2",
            "ticks": 40032,
            "time": 52.125,
            "velocity": 0.5511811023622047
          },
          {
            "duration": 0.1875,
            "durationTicks": 144,
            "midi": 52,
            "name": "E3",
            "ticks": 40032,
            "time": 52.125,
            "velocity": 0.5511811023622047
          },
          {
            "duration": 0.1875,
            "durationTicks": 144,
            "midi": 60,
            "name": "C4",
            "ticks": 40032,
            "time": 52.125,
            "velocity": 0.5511811023622047
          },
          {
            "duration": 0.1875,
            "durationTicks": 144,
            "midi": 55,
            "name": "G3",
            "ticks": 40032,
            "time": 52.125,
            "velocity": 0.5511811023622047
          },
          {
            "duration": 0.1875,
            "durationTicks": 144,
            "midi": 43,
            "name": "G2",
            "ticks": 40176,
            "time": 52.3125,
            "velocity": 0.5511811023622047
          },
          {
            "duration": 0.1875,
            "durationTicks": 144,
            "midi": 36,
            "name": "C2",
            "ticks": 40176,
            "time": 52.3125,
            "velocity": 0.5511811023622047
          },
          {
            "duration": 0.1875,
            "durationTicks": 144,
            "midi": 55,
            "name": "G3",
            "ticks": 40176,
            "time": 52.3125,
            "velocity": 0.5511811023622047
          },
          {
            "duration": 0.1875,
            "durationTicks": 144,
            "midi": 60,
            "name": "C4",
            "ticks": 40176,
            "time": 52.3125,
            "velocity": 0.5511811023622047
          },
          {
            "duration": 0.1875,
            "durationTicks": 144,
            "midi": 52,
            "name": "E3",
            "ticks": 40176,
            "time": 52.3125,
            "velocity": 0.5511811023622047
          },
          {
            "duration": 0.1875,
            "durationTicks": 144,
            "midi": 48,
            "name": "C3",
            "ticks": 40176,
            "time": 52.3125,
            "velocity": 0.5511811023622047
          },
          {
            "duration": 0.1875,
            "durationTicks": 144,
            "midi": 40,
            "name": "E2",
            "ticks": 40176,
            "time": 52.3125,
            "velocity": 0.5511811023622047
          },
          {
            "duration": 0.1875,
            "durationTicks": 144,
            "midi": 36,
            "name": "C2",
            "ticks": 40320,
            "time": 52.5,
            "velocity": 0.5511811023622047
          },
          {
            "duration": 0.1875,
            "durationTicks": 144,
            "midi": 48,
            "name": "C3",
            "ticks": 40320,
            "time": 52.5,
            "velocity": 0.5511811023622047
          },
          {
            "duration": 0.1875,
            "durationTicks": 144,
            "midi": 52,
            "name": "E3",
            "ticks": 40320,
            "time": 52.5,
            "velocity": 0.5511811023622047
          },
          {
            "duration": 0.1875,
            "durationTicks": 144,
            "midi": 40,
            "name": "E2",
            "ticks": 40320,
            "time": 52.5,
            "velocity": 0.5511811023622047
          },
          {
            "duration": 0.1875,
            "durationTicks": 144,
            "midi": 43,
            "name": "G2",
            "ticks": 40320,
            "time": 52.5,
            "velocity": 0.5511811023622047
          },
          {
            "duration": 0.1875,
            "durationTicks": 144,
            "midi": 55,
            "name": "G3",
            "ticks": 40320,
            "time": 52.5,
            "velocity": 0.5511811023622047
          },
          {
            "duration": 0.1875,
            "durationTicks": 144,
            "midi": 60,
            "name": "C4",
            "ticks": 40320,
            "time": 52.5,
            "velocity": 0.5511811023622047
          },
          {
            "duration": 0.1875,
            "durationTicks": 144,
            "midi": 40,
            "name": "E2",
            "ticks": 40608,
            "time": 52.875,
            "velocity": 0.5511811023622047
          },
          {
            "duration": 0.1875,
            "durationTicks": 144,
            "midi": 52,
            "name": "E3",
            "ticks": 40608,
            "time": 52.875,
            "velocity": 0.5511811023622047
          },
          {
            "duration": 0.1875,
            "durationTicks": 144,
            "midi": 60,
            "name": "C4",
            "ticks": 40608,
            "time": 52.875,
            "velocity": 0.5511811023622047
          },
          {
            "duration": 0.1875,
            "durationTicks": 144,
            "midi": 43,
            "name": "G2",
            "ticks": 40608,
            "time": 52.875,
            "velocity": 0.5511811023622047
          },
          {
            "duration": 0.1875,
            "durationTicks": 144,
            "midi": 55,
            "name": "G3",
            "ticks": 40608,
            "time": 52.875,
            "velocity": 0.5511811023622047
          },
          {
            "duration": 0.1875,
            "durationTicks": 144,
            "midi": 48,
            "name": "C3",
            "ticks": 40608,
            "time": 52.875,
            "velocity": 0.5511811023622047
          },
          {
            "duration": 0.1875,
            "durationTicks": 144,
            "midi": 36,
            "name": "C2",
            "ticks": 40608,
            "time": 52.875,
            "velocity": 0.5511811023622047
          },
          {
            "duration": 0.1875,
            "durationTicks": 144,
            "midi": 43,
            "name": "G2",
            "ticks": 40752,
            "time": 53.0625,
            "velocity": 0.5511811023622047
          },
          {
            "duration": 0.1875,
            "durationTicks": 144,
            "midi": 40,
            "name": "E2",
            "ticks": 40752,
            "time": 53.0625,
            "velocity": 0.5511811023622047
          },
          {
            "duration": 0.1875,
            "durationTicks": 144,
            "midi": 36,
            "name": "C2",
            "ticks": 40752,
            "time": 53.0625,
            "velocity": 0.5511811023622047
          },
          {
            "duration": 0.1875,
            "durationTicks": 144,
            "midi": 55,
            "name": "G3",
            "ticks": 40752,
            "time": 53.0625,
            "velocity": 0.5511811023622047
          },
          {
            "duration": 0.1875,
            "durationTicks": 144,
            "midi": 60,
            "name": "C4",
            "ticks": 40752,
            "time": 53.0625,
            "velocity": 0.5511811023622047
          },
          {
            "duration": 0.1875,
            "durationTicks": 144,
            "midi": 52,
            "name": "E3",
            "ticks": 40752,
            "time": 53.0625,
            "velocity": 0.5511811023622047
          },
          {
            "duration": 0.1875,
            "durationTicks": 144,
            "midi": 48,
            "name": "C3",
            "ticks": 40752,
            "time": 53.0625,
            "velocity": 0.5511811023622047
          },
          {
            "duration": 0.1875,
            "durationTicks": 144,
            "midi": 40,
            "name": "E2",
            "ticks": 41040,
            "time": 53.4375,
            "velocity": 0.5511811023622047
          },
          {
            "duration": 0.1875,
            "durationTicks": 144,
            "midi": 60,
            "name": "C4",
            "ticks": 41040,
            "time": 53.4375,
            "velocity": 0.5511811023622047
          },
          {
            "duration": 0.1875,
            "durationTicks": 144,
            "midi": 36,
            "name": "C2",
            "ticks": 41040,
            "time": 53.4375,
            "velocity": 0.5511811023622047
          },
          {
            "duration": 0.1875,
            "durationTicks": 144,
            "midi": 55,
            "name": "G3",
            "ticks": 41040,
            "time": 53.4375,
            "velocity": 0.5511811023622047
          },
          {
            "duration": 0.1875,
            "durationTicks": 144,
            "midi": 52,
            "name": "E3",
            "ticks": 41040,
            "time": 53.4375,
            "velocity": 0.5511811023622047
          },
          {
            "duration": 0.1875,
            "durationTicks": 144,
            "midi": 48,
            "name": "C3",
            "ticks": 41040,
            "time": 53.4375,
            "velocity": 0.5511811023622047
          },
          {
            "duration": 0.1875,
            "durationTicks": 144,
            "midi": 43,
            "name": "G2",
            "ticks": 41040,
            "time": 53.4375,
            "velocity": 0.5511811023622047
          },
          {
            "duration": 0.1875,
            "durationTicks": 144,
            "midi": 36,
            "name": "C2",
            "ticks": 41184,
            "time": 53.625,
            "velocity": 0.5511811023622047
          },
          {
            "duration": 0.1875,
            "durationTicks": 144,
            "midi": 52,
            "name": "E3",
            "ticks": 41184,
            "time": 53.625,
            "velocity": 0.5511811023622047
          },
          {
            "duration": 0.1875,
            "durationTicks": 144,
            "midi": 60,
            "name": "C4",
            "ticks": 41184,
            "time": 53.625,
            "velocity": 0.5511811023622047
          },
          {
            "duration": 0.1875,
            "durationTicks": 144,
            "midi": 43,
            "name": "G2",
            "ticks": 41184,
            "time": 53.625,
            "velocity": 0.5511811023622047
          },
          {
            "duration": 0.1875,
            "durationTicks": 144,
            "midi": 48,
            "name": "C3",
            "ticks": 41184,
            "time": 53.625,
            "velocity": 0.5511811023622047
          },
          {
            "duration": 0.1875,
            "durationTicks": 144,
            "midi": 55,
            "name": "G3",
            "ticks": 41184,
            "time": 53.625,
            "velocity": 0.5511811023622047
          },
          {
            "duration": 0.1875,
            "durationTicks": 144,
            "midi": 40,
            "name": "E2",
            "ticks": 41184,
            "time": 53.625,
            "velocity": 0.5511811023622047
          },
          {
            "duration": 0.1875,
            "durationTicks": 144,
            "midi": 55,
            "name": "G3",
            "ticks": 41328,
            "time": 53.8125,
            "velocity": 0.5511811023622047
          },
          {
            "duration": 0.1875,
            "durationTicks": 144,
            "midi": 52,
            "name": "E3",
            "ticks": 41328,
            "time": 53.8125,
            "velocity": 0.5511811023622047
          },
          {
            "duration": 0.1875,
            "durationTicks": 144,
            "midi": 60,
            "name": "C4",
            "ticks": 41328,
            "time": 53.8125,
            "velocity": 0.5511811023622047
          },
          {
            "duration": 0.1875,
            "durationTicks": 144,
            "midi": 40,
            "name": "E2",
            "ticks": 41328,
            "time": 53.8125,
            "velocity": 0.5511811023622047
          },
          {
            "duration": 0.1875,
            "durationTicks": 144,
            "midi": 36,
            "name": "C2",
            "ticks": 41328,
            "time": 53.8125,
            "velocity": 0.5511811023622047
          },
          {
            "duration": 0.1875,
            "durationTicks": 144,
            "midi": 43,
            "name": "G2",
            "ticks": 41328,
            "time": 53.8125,
            "velocity": 0.5511811023622047
          },
          {
            "duration": 0.1875,
            "durationTicks": 144,
            "midi": 48,
            "name": "C3",
            "ticks": 41328,
            "time": 53.8125,
            "velocity": 0.5511811023622047
          },
          {
            "duration": 0.1875,
            "durationTicks": 144,
            "midi": 57,
            "name": "A3",
            "ticks": 41472,
            "time": 54,
            "velocity": 0.5511811023622047
          },
          {
            "duration": 0.1875,
            "durationTicks": 144,
            "midi": 50,
            "name": "D3",
            "ticks": 41472,
            "time": 54,
            "velocity": 0.5511811023622047
          },
          {
            "duration": 0.1875,
            "durationTicks": 144,
            "midi": 45,
            "name": "A2",
            "ticks": 41472,
            "time": 54,
            "velocity": 0.5511811023622047
          },
          {
            "duration": 0.1875,
            "durationTicks": 144,
            "midi": 62,
            "name": "D4",
            "ticks": 41472,
            "time": 54,
            "velocity": 0.5511811023622047
          },
          {
            "duration": 0.1875,
            "durationTicks": 144,
            "midi": 38,
            "name": "D2",
            "ticks": 41472,
            "time": 54,
            "velocity": 0.5511811023622047
          },
          {
            "duration": 0.1875,
            "durationTicks": 144,
            "midi": 42,
            "name": "F#2",
            "ticks": 41472,
            "time": 54,
            "velocity": 0.5511811023622047
          },
          {
            "duration": 0.1875,
            "durationTicks": 144,
            "midi": 54,
            "name": "F#3",
            "ticks": 41472,
            "time": 54,
            "velocity": 0.5511811023622047
          },
          {
            "duration": 0.1875,
            "durationTicks": 144,
            "midi": 50,
            "name": "D3",
            "ticks": 41760,
            "time": 54.375,
            "velocity": 0.5511811023622047
          },
          {
            "duration": 0.1875,
            "durationTicks": 144,
            "midi": 57,
            "name": "A3",
            "ticks": 41760,
            "time": 54.375,
            "velocity": 0.5511811023622047
          },
          {
            "duration": 0.1875,
            "durationTicks": 144,
            "midi": 45,
            "name": "A2",
            "ticks": 41760,
            "time": 54.375,
            "velocity": 0.5511811023622047
          },
          {
            "duration": 0.1875,
            "durationTicks": 144,
            "midi": 62,
            "name": "D4",
            "ticks": 41760,
            "time": 54.375,
            "velocity": 0.5511811023622047
          },
          {
            "duration": 0.1875,
            "durationTicks": 144,
            "midi": 54,
            "name": "F#3",
            "ticks": 41760,
            "time": 54.375,
            "velocity": 0.5511811023622047
          },
          {
            "duration": 0.1875,
            "durationTicks": 144,
            "midi": 42,
            "name": "F#2",
            "ticks": 41760,
            "time": 54.375,
            "velocity": 0.5511811023622047
          },
          {
            "duration": 0.1875,
            "durationTicks": 144,
            "midi": 38,
            "name": "D2",
            "ticks": 41760,
            "time": 54.375,
            "velocity": 0.5511811023622047
          },
          {
            "duration": 0.1875,
            "durationTicks": 144,
            "midi": 44,
            "name": "G#2",
            "ticks": 42048,
            "time": 54.75,
            "velocity": 0.5511811023622047
          },
          {
            "duration": 0.1875,
            "durationTicks": 144,
            "midi": 59,
            "name": "B3",
            "ticks": 42048,
            "time": 54.75,
            "velocity": 0.5511811023622047
          },
          {
            "duration": 0.1875,
            "durationTicks": 144,
            "midi": 40,
            "name": "E2",
            "ticks": 42048,
            "time": 54.75,
            "velocity": 0.5511811023622047
          },
          {
            "duration": 0.1875,
            "durationTicks": 144,
            "midi": 56,
            "name": "G#3",
            "ticks": 42048,
            "time": 54.75,
            "velocity": 0.5511811023622047
          },
          {
            "duration": 0.1875,
            "durationTicks": 144,
            "midi": 64,
            "name": "E4",
            "ticks": 42048,
            "time": 54.75,
            "velocity": 0.5511811023622047
          },
          {
            "duration": 0.1875,
            "durationTicks": 144,
            "midi": 47,
            "name": "B2",
            "ticks": 42048,
            "time": 54.75,
            "velocity": 0.5511811023622047
          },
          {
            "duration": 0.1875,
            "durationTicks": 144,
            "midi": 52,
            "name": "E3",
            "ticks": 42048,
            "time": 54.75,
            "velocity": 0.5511811023622047
          },
          {
            "duration": 0.1875,
            "durationTicks": 144,
            "midi": 59,
            "name": "B3",
            "ticks": 42336,
            "time": 55.125,
            "velocity": 0.5511811023622047
          },
          {
            "duration": 0.1875,
            "durationTicks": 144,
            "midi": 47,
            "name": "B2",
            "ticks": 42336,
            "time": 55.125,
            "velocity": 0.5511811023622047
          },
          {
            "duration": 0.1875,
            "durationTicks": 144,
            "midi": 56,
            "name": "G#3",
            "ticks": 42336,
            "time": 55.125,
            "velocity": 0.5511811023622047
          },
          {
            "duration": 0.1875,
            "durationTicks": 144,
            "midi": 44,
            "name": "G#2",
            "ticks": 42336,
            "time": 55.125,
            "velocity": 0.5511811023622047
          },
          {
            "duration": 0.1875,
            "durationTicks": 144,
            "midi": 64,
            "name": "E4",
            "ticks": 42336,
            "time": 55.125,
            "velocity": 0.5511811023622047
          },
          {
            "duration": 0.1875,
            "durationTicks": 144,
            "midi": 52,
            "name": "E3",
            "ticks": 42336,
            "time": 55.125,
            "velocity": 0.5511811023622047
          },
          {
            "duration": 0.1875,
            "durationTicks": 144,
            "midi": 40,
            "name": "E2",
            "ticks": 42336,
            "time": 55.125,
            "velocity": 0.5511811023622047
          },
          {
            "duration": 0.1875,
            "durationTicks": 144,
            "midi": 64,
            "name": "E4",
            "ticks": 42480,
            "time": 55.3125,
            "velocity": 0.5511811023622047
          },
          {
            "duration": 0.1875,
            "durationTicks": 144,
            "midi": 44,
            "name": "G#2",
            "ticks": 42480,
            "time": 55.3125,
            "velocity": 0.5511811023622047
          },
          {
            "duration": 0.1875,
            "durationTicks": 144,
            "midi": 47,
            "name": "B2",
            "ticks": 42480,
            "time": 55.3125,
            "velocity": 0.5511811023622047
          },
          {
            "duration": 0.1875,
            "durationTicks": 144,
            "midi": 56,
            "name": "G#3",
            "ticks": 42480,
            "time": 55.3125,
            "velocity": 0.5511811023622047
          },
          {
            "duration": 0.1875,
            "durationTicks": 144,
            "midi": 40,
            "name": "E2",
            "ticks": 42480,
            "time": 55.3125,
            "velocity": 0.5511811023622047
          },
          {
            "duration": 0.1875,
            "durationTicks": 144,
            "midi": 59,
            "name": "B3",
            "ticks": 42480,
            "time": 55.3125,
            "velocity": 0.5511811023622047
          },
          {
            "duration": 0.1875,
            "durationTicks": 144,
            "midi": 52,
            "name": "E3",
            "ticks": 42480,
            "time": 55.3125,
            "velocity": 0.5511811023622047
          },
          {
            "duration": 0.1875,
            "durationTicks": 144,
            "midi": 47,
            "name": "B2",
            "ticks": 42768,
            "time": 55.6875,
            "velocity": 0.5511811023622047
          },
          {
            "duration": 0.1875,
            "durationTicks": 144,
            "midi": 56,
            "name": "G#3",
            "ticks": 42768,
            "time": 55.6875,
            "velocity": 0.5511811023622047
          },
          {
            "duration": 0.1875,
            "durationTicks": 144,
            "midi": 64,
            "name": "E4",
            "ticks": 42768,
            "time": 55.6875,
            "velocity": 0.5511811023622047
          },
          {
            "duration": 0.1875,
            "durationTicks": 144,
            "midi": 59,
            "name": "B3",
            "ticks": 42768,
            "time": 55.6875,
            "velocity": 0.5511811023622047
          },
          {
            "duration": 0.1875,
            "durationTicks": 144,
            "midi": 44,
            "name": "G#2",
            "ticks": 42768,
            "time": 55.6875,
            "velocity": 0.5511811023622047
          },
          {
            "duration": 0.1875,
            "durationTicks": 144,
            "midi": 52,
            "name": "E3",
            "ticks": 42768,
            "time": 55.6875,
            "velocity": 0.5511811023622047
          },
          {
            "duration": 0.1875,
            "durationTicks": 144,
            "midi": 40,
            "name": "E2",
            "ticks": 42768,
            "time": 55.6875,
            "velocity": 0.5511811023622047
          },
          {
            "duration": 0.1875,
            "durationTicks": 144,
            "midi": 44,
            "name": "G#2",
            "ticks": 42912,
            "time": 55.875,
            "velocity": 0.5511811023622047
          },
          {
            "duration": 0.1875,
            "durationTicks": 144,
            "midi": 64,
            "name": "E4",
            "ticks": 42912,
            "time": 55.875,
            "velocity": 0.5511811023622047
          },
          {
            "duration": 0.1875,
            "durationTicks": 144,
            "midi": 47,
            "name": "B2",
            "ticks": 42912,
            "time": 55.875,
            "velocity": 0.5511811023622047
          },
          {
            "duration": 0.1875,
            "durationTicks": 144,
            "midi": 56,
            "name": "G#3",
            "ticks": 42912,
            "time": 55.875,
            "velocity": 0.5511811023622047
          },
          {
            "duration": 0.1875,
            "durationTicks": 144,
            "midi": 59,
            "name": "B3",
            "ticks": 42912,
            "time": 55.875,
            "velocity": 0.5511811023622047
          },
          {
            "duration": 0.1875,
            "durationTicks": 144,
            "midi": 40,
            "name": "E2",
            "ticks": 42912,
            "time": 55.875,
            "velocity": 0.5511811023622047
          },
          {
            "duration": 0.1875,
            "durationTicks": 144,
            "midi": 52,
            "name": "E3",
            "ticks": 42912,
            "time": 55.875,
            "velocity": 0.5511811023622047
          },
          {
            "duration": 0.1875,
            "durationTicks": 144,
            "midi": 56,
            "name": "G#3",
            "ticks": 43056,
            "time": 56.0625,
            "velocity": 0.5511811023622047
          },
          {
            "duration": 0.1875,
            "durationTicks": 144,
            "midi": 47,
            "name": "B2",
            "ticks": 43056,
            "time": 56.0625,
            "velocity": 0.5511811023622047
          },
          {
            "duration": 0.1875,
            "durationTicks": 144,
            "midi": 40,
            "name": "E2",
            "ticks": 43056,
            "time": 56.0625,
            "velocity": 0.5511811023622047
          },
          {
            "duration": 0.1875,
            "durationTicks": 144,
            "midi": 59,
            "name": "B3",
            "ticks": 43056,
            "time": 56.0625,
            "velocity": 0.5511811023622047
          },
          {
            "duration": 0.1875,
            "durationTicks": 144,
            "midi": 44,
            "name": "G#2",
            "ticks": 43056,
            "time": 56.0625,
            "velocity": 0.5511811023622047
          },
          {
            "duration": 0.1875,
            "durationTicks": 144,
            "midi": 52,
            "name": "E3",
            "ticks": 43056,
            "time": 56.0625,
            "velocity": 0.5511811023622047
          },
          {
            "duration": 0.1875,
            "durationTicks": 144,
            "midi": 64,
            "name": "E4",
            "ticks": 43056,
            "time": 56.0625,
            "velocity": 0.5511811023622047
          },
          {
            "duration": 0.1875,
            "durationTicks": 144,
            "midi": 52,
            "name": "E3",
            "ticks": 43200,
            "time": 56.25,
            "velocity": 0.5511811023622047
          },
          {
            "duration": 0.1875,
            "durationTicks": 144,
            "midi": 56,
            "name": "G#3",
            "ticks": 43200,
            "time": 56.25,
            "velocity": 0.5511811023622047
          },
          {
            "duration": 0.1875,
            "durationTicks": 144,
            "midi": 44,
            "name": "G#2",
            "ticks": 43200,
            "time": 56.25,
            "velocity": 0.5511811023622047
          },
          {
            "duration": 0.1875,
            "durationTicks": 144,
            "midi": 40,
            "name": "E2",
            "ticks": 43200,
            "time": 56.25,
            "velocity": 0.5511811023622047
          },
          {
            "duration": 0.1875,
            "durationTicks": 144,
            "midi": 64,
            "name": "E4",
            "ticks": 43200,
            "time": 56.25,
            "velocity": 0.5511811023622047
          },
          {
            "duration": 0.1875,
            "durationTicks": 144,
            "midi": 47,
            "name": "B2",
            "ticks": 43200,
            "time": 56.25,
            "velocity": 0.5511811023622047
          },
          {
            "duration": 0.1875,
            "durationTicks": 144,
            "midi": 59,
            "name": "B3",
            "ticks": 43200,
            "time": 56.25,
            "velocity": 0.5511811023622047
          },
          {
            "duration": 0.1875,
            "durationTicks": 144,
            "midi": 40,
            "name": "E2",
            "ticks": 43488,
            "time": 56.625,
            "velocity": 0.5511811023622047
          },
          {
            "duration": 0.1875,
            "durationTicks": 144,
            "midi": 56,
            "name": "G#3",
            "ticks": 43488,
            "time": 56.625,
            "velocity": 0.5511811023622047
          },
          {
            "duration": 0.1875,
            "durationTicks": 144,
            "midi": 44,
            "name": "G#2",
            "ticks": 43488,
            "time": 56.625,
            "velocity": 0.5511811023622047
          },
          {
            "duration": 0.1875,
            "durationTicks": 144,
            "midi": 59,
            "name": "B3",
            "ticks": 43488,
            "time": 56.625,
            "velocity": 0.5511811023622047
          },
          {
            "duration": 0.1875,
            "durationTicks": 144,
            "midi": 52,
            "name": "E3",
            "ticks": 43488,
            "time": 56.625,
            "velocity": 0.5511811023622047
          },
          {
            "duration": 0.1875,
            "durationTicks": 144,
            "midi": 47,
            "name": "B2",
            "ticks": 43488,
            "time": 56.625,
            "velocity": 0.5511811023622047
          },
          {
            "duration": 0.1875,
            "durationTicks": 144,
            "midi": 64,
            "name": "E4",
            "ticks": 43488,
            "time": 56.625,
            "velocity": 0.5511811023622047
          },
          {
            "duration": 0.1875,
            "durationTicks": 144,
            "midi": 59,
            "name": "B3",
            "ticks": 43632,
            "time": 56.8125,
            "velocity": 0.5511811023622047
          },
          {
            "duration": 0.1875,
            "durationTicks": 144,
            "midi": 64,
            "name": "E4",
            "ticks": 43632,
            "time": 56.8125,
            "velocity": 0.5511811023622047
          },
          {
            "duration": 0.1875,
            "durationTicks": 144,
            "midi": 47,
            "name": "B2",
            "ticks": 43632,
            "time": 56.8125,
            "velocity": 0.5511811023622047
          },
          {
            "duration": 0.1875,
            "durationTicks": 144,
            "midi": 56,
            "name": "G#3",
            "ticks": 43632,
            "time": 56.8125,
            "velocity": 0.5511811023622047
          },
          {
            "duration": 0.1875,
            "durationTicks": 144,
            "midi": 44,
            "name": "G#2",
            "ticks": 43632,
            "time": 56.8125,
            "velocity": 0.5511811023622047
          },
          {
            "duration": 0.1875,
            "durationTicks": 144,
            "midi": 52,
            "name": "E3",
            "ticks": 43632,
            "time": 56.8125,
            "velocity": 0.5511811023622047
          },
          {
            "duration": 0.1875,
            "durationTicks": 144,
            "midi": 40,
            "name": "E2",
            "ticks": 43632,
            "time": 56.8125,
            "velocity": 0.5511811023622047
          },
          {
            "duration": 0.1875,
            "durationTicks": 144,
            "midi": 44,
            "name": "G#2",
            "ticks": 43920,
            "time": 57.1875,
            "velocity": 0.5511811023622047
          },
          {
            "duration": 0.1875,
            "durationTicks": 144,
            "midi": 56,
            "name": "G#3",
            "ticks": 43920,
            "time": 57.1875,
            "velocity": 0.5511811023622047
          },
          {
            "duration": 0.1875,
            "durationTicks": 144,
            "midi": 47,
            "name": "B2",
            "ticks": 43920,
            "time": 57.1875,
            "velocity": 0.5511811023622047
          },
          {
            "duration": 0.1875,
            "durationTicks": 144,
            "midi": 59,
            "name": "B3",
            "ticks": 43920,
            "time": 57.1875,
            "velocity": 0.5511811023622047
          },
          {
            "duration": 0.1875,
            "durationTicks": 144,
            "midi": 40,
            "name": "E2",
            "ticks": 43920,
            "time": 57.1875,
            "velocity": 0.5511811023622047
          },
          {
            "duration": 0.1875,
            "durationTicks": 144,
            "midi": 52,
            "name": "E3",
            "ticks": 43920,
            "time": 57.1875,
            "velocity": 0.5511811023622047
          },
          {
            "duration": 0.1875,
            "durationTicks": 144,
            "midi": 64,
            "name": "E4",
            "ticks": 43920,
            "time": 57.1875,
            "velocity": 0.5511811023622047
          },
          {
            "duration": 0.1875,
            "durationTicks": 144,
            "midi": 64,
            "name": "E4",
            "ticks": 44064,
            "time": 57.375,
            "velocity": 0.5511811023622047
          },
          {
            "duration": 0.1875,
            "durationTicks": 144,
            "midi": 59,
            "name": "B3",
            "ticks": 44064,
            "time": 57.375,
            "velocity": 0.5511811023622047
          },
          {
            "duration": 0.1875,
            "durationTicks": 144,
            "midi": 56,
            "name": "G#3",
            "ticks": 44064,
            "time": 57.375,
            "velocity": 0.5511811023622047
          },
          {
            "duration": 0.1875,
            "durationTicks": 144,
            "midi": 52,
            "name": "E3",
            "ticks": 44064,
            "time": 57.375,
            "velocity": 0.5511811023622047
          },
          {
            "duration": 0.1875,
            "durationTicks": 144,
            "midi": 47,
            "name": "B2",
            "ticks": 44064,
            "time": 57.375,
            "velocity": 0.5511811023622047
          },
          {
            "duration": 0.1875,
            "durationTicks": 144,
            "midi": 40,
            "name": "E2",
            "ticks": 44064,
            "time": 57.375,
            "velocity": 0.5511811023622047
          },
          {
            "duration": 0.1875,
            "durationTicks": 144,
            "midi": 44,
            "name": "G#2",
            "ticks": 44064,
            "time": 57.375,
            "velocity": 0.5511811023622047
          },
          {
            "duration": 0.1875,
            "durationTicks": 144,
            "midi": 59,
            "name": "B3",
            "ticks": 44208,
            "time": 57.5625,
            "velocity": 0.5511811023622047
          },
          {
            "duration": 0.1875,
            "durationTicks": 144,
            "midi": 52,
            "name": "E3",
            "ticks": 44208,
            "time": 57.5625,
            "velocity": 0.5511811023622047
          },
          {
            "duration": 0.1875,
            "durationTicks": 144,
            "midi": 47,
            "name": "B2",
            "ticks": 44208,
            "time": 57.5625,
            "velocity": 0.5511811023622047
          },
          {
            "duration": 0.1875,
            "durationTicks": 144,
            "midi": 44,
            "name": "G#2",
            "ticks": 44208,
            "time": 57.5625,
            "velocity": 0.5511811023622047
          },
          {
            "duration": 0.1875,
            "durationTicks": 144,
            "midi": 56,
            "name": "G#3",
            "ticks": 44208,
            "time": 57.5625,
            "velocity": 0.5511811023622047
          },
          {
            "duration": 0.1875,
            "durationTicks": 144,
            "midi": 64,
            "name": "E4",
            "ticks": 44208,
            "time": 57.5625,
            "velocity": 0.5511811023622047
          },
          {
            "duration": 0.1875,
            "durationTicks": 144,
            "midi": 40,
            "name": "E2",
            "ticks": 44208,
            "time": 57.5625,
            "velocity": 0.5511811023622047
          },
          {
            "duration": 0.1875,
            "durationTicks": 144,
            "midi": 47,
            "name": "B2",
            "ticks": 44352,
            "time": 57.75,
            "velocity": 0.5511811023622047
          },
          {
            "duration": 0.1875,
            "durationTicks": 144,
            "midi": 43,
            "name": "G2",
            "ticks": 44352,
            "time": 57.75,
            "velocity": 0.5511811023622047
          },
          {
            "duration": 0.1875,
            "durationTicks": 144,
            "midi": 59,
            "name": "B3",
            "ticks": 44352,
            "time": 57.75,
            "velocity": 0.5511811023622047
          },
          {
            "duration": 0.1875,
            "durationTicks": 144,
            "midi": 50,
            "name": "D3",
            "ticks": 44352,
            "time": 57.75,
            "velocity": 0.5511811023622047
          },
          {
            "duration": 0.1875,
            "durationTicks": 144,
            "midi": 55,
            "name": "G3",
            "ticks": 44352,
            "time": 57.75,
            "velocity": 0.5511811023622047
          },
          {
            "duration": 0.1875,
            "durationTicks": 144,
            "midi": 62,
            "name": "D4",
            "ticks": 44352,
            "time": 57.75,
            "velocity": 0.5511811023622047
          },
          {
            "duration": 0.1875,
            "durationTicks": 144,
            "midi": 67,
            "name": "G4",
            "ticks": 44352,
            "time": 57.75,
            "velocity": 0.5511811023622047
          },
          {
            "duration": 0.1875,
            "durationTicks": 144,
            "midi": 50,
            "name": "D3",
            "ticks": 44640,
            "time": 58.125,
            "velocity": 0.5511811023622047
          },
          {
            "duration": 0.1875,
            "durationTicks": 144,
            "midi": 43,
            "name": "G2",
            "ticks": 44640,
            "time": 58.125,
            "velocity": 0.5511811023622047
          },
          {
            "duration": 0.1875,
            "durationTicks": 144,
            "midi": 67,
            "name": "G4",
            "ticks": 44640,
            "time": 58.125,
            "velocity": 0.5511811023622047
          },
          {
            "duration": 0.1875,
            "durationTicks": 144,
            "midi": 62,
            "name": "D4",
            "ticks": 44640,
            "time": 58.125,
            "velocity": 0.5511811023622047
          },
          {
            "duration": 0.1875,
            "durationTicks": 144,
            "midi": 59,
            "name": "B3",
            "ticks": 44640,
            "time": 58.125,
            "velocity": 0.5511811023622047
          },
          {
            "duration": 0.1875,
            "durationTicks": 144,
            "midi": 55,
            "name": "G3",
            "ticks": 44640,
            "time": 58.125,
            "velocity": 0.5511811023622047
          },
          {
            "duration": 0.1875,
            "durationTicks": 144,
            "midi": 47,
            "name": "B2",
            "ticks": 44640,
            "time": 58.125,
            "velocity": 0.5511811023622047
          },
          {
            "duration": 0.1875,
            "durationTicks": 144,
            "midi": 47,
            "name": "B2",
            "ticks": 44784,
            "time": 58.3125,
            "velocity": 0.5511811023622047
          },
          {
            "duration": 0.1875,
            "durationTicks": 144,
            "midi": 62,
            "name": "D4",
            "ticks": 44784,
            "time": 58.3125,
            "velocity": 0.5511811023622047
          },
          {
            "duration": 0.1875,
            "durationTicks": 144,
            "midi": 55,
            "name": "G3",
            "ticks": 44784,
            "time": 58.3125,
            "velocity": 0.5511811023622047
          },
          {
            "duration": 0.1875,
            "durationTicks": 144,
            "midi": 50,
            "name": "D3",
            "ticks": 44784,
            "time": 58.3125,
            "velocity": 0.5511811023622047
          },
          {
            "duration": 0.1875,
            "durationTicks": 144,
            "midi": 67,
            "name": "G4",
            "ticks": 44784,
            "time": 58.3125,
            "velocity": 0.5511811023622047
          },
          {
            "duration": 0.1875,
            "durationTicks": 144,
            "midi": 59,
            "name": "B3",
            "ticks": 44784,
            "time": 58.3125,
            "velocity": 0.5511811023622047
          },
          {
            "duration": 0.1875,
            "durationTicks": 144,
            "midi": 43,
            "name": "G2",
            "ticks": 44784,
            "time": 58.3125,
            "velocity": 0.5511811023622047
          },
          {
            "duration": 0.1875,
            "durationTicks": 144,
            "midi": 43,
            "name": "G2",
            "ticks": 45072,
            "time": 58.6875,
            "velocity": 0.5511811023622047
          },
          {
            "duration": 0.1875,
            "durationTicks": 144,
            "midi": 50,
            "name": "D3",
            "ticks": 45072,
            "time": 58.6875,
            "velocity": 0.5511811023622047
          },
          {
            "duration": 0.1875,
            "durationTicks": 144,
            "midi": 47,
            "name": "B2",
            "ticks": 45072,
            "time": 58.6875,
            "velocity": 0.5511811023622047
          },
          {
            "duration": 0.1875,
            "durationTicks": 144,
            "midi": 55,
            "name": "G3",
            "ticks": 45072,
            "time": 58.6875,
            "velocity": 0.5511811023622047
          },
          {
            "duration": 0.1875,
            "durationTicks": 144,
            "midi": 67,
            "name": "G4",
            "ticks": 45072,
            "time": 58.6875,
            "velocity": 0.5511811023622047
          },
          {
            "duration": 0.1875,
            "durationTicks": 144,
            "midi": 62,
            "name": "D4",
            "ticks": 45072,
            "time": 58.6875,
            "velocity": 0.5511811023622047
          },
          {
            "duration": 0.1875,
            "durationTicks": 144,
            "midi": 59,
            "name": "B3",
            "ticks": 45072,
            "time": 58.6875,
            "velocity": 0.5511811023622047
          },
          {
            "duration": 0.1875,
            "durationTicks": 144,
            "midi": 55,
            "name": "G3",
            "ticks": 45216,
            "time": 58.875,
            "velocity": 0.5511811023622047
          },
          {
            "duration": 0.1875,
            "durationTicks": 144,
            "midi": 47,
            "name": "B2",
            "ticks": 45216,
            "time": 58.875,
            "velocity": 0.5511811023622047
          },
          {
            "duration": 0.1875,
            "durationTicks": 144,
            "midi": 43,
            "name": "G2",
            "ticks": 45216,
            "time": 58.875,
            "velocity": 0.5511811023622047
          },
          {
            "duration": 0.1875,
            "durationTicks": 144,
            "midi": 50,
            "name": "D3",
            "ticks": 45216,
            "time": 58.875,
            "velocity": 0.5511811023622047
          },
          {
            "duration": 0.1875,
            "durationTicks": 144,
            "midi": 59,
            "name": "B3",
            "ticks": 45216,
            "time": 58.875,
            "velocity": 0.5511811023622047
          },
          {
            "duration": 0.1875,
            "durationTicks": 144,
            "midi": 62,
            "name": "D4",
            "ticks": 45216,
            "time": 58.875,
            "velocity": 0.5511811023622047
          },
          {
            "duration": 0.1875,
            "durationTicks": 144,
            "midi": 67,
            "name": "G4",
            "ticks": 45216,
            "time": 58.875,
            "velocity": 0.5511811023622047
          },
          {
            "duration": 0.1875,
            "durationTicks": 144,
            "midi": 67,
            "name": "G4",
            "ticks": 45360,
            "time": 59.0625,
            "velocity": 0.5511811023622047
          },
          {
            "duration": 0.1875,
            "durationTicks": 144,
            "midi": 62,
            "name": "D4",
            "ticks": 45360,
            "time": 59.0625,
            "velocity": 0.5511811023622047
          },
          {
            "duration": 0.1875,
            "durationTicks": 144,
            "midi": 47,
            "name": "B2",
            "ticks": 45360,
            "time": 59.0625,
            "velocity": 0.5511811023622047
          },
          {
            "duration": 0.1875,
            "durationTicks": 144,
            "midi": 50,
            "name": "D3",
            "ticks": 45360,
            "time": 59.0625,
            "velocity": 0.5511811023622047
          },
          {
            "duration": 0.1875,
            "durationTicks": 144,
            "midi": 43,
            "name": "G2",
            "ticks": 45360,
            "time": 59.0625,
            "velocity": 0.5511811023622047
          },
          {
            "duration": 0.1875,
            "durationTicks": 144,
            "midi": 55,
            "name": "G3",
            "ticks": 45360,
            "time": 59.0625,
            "velocity": 0.5511811023622047
          },
          {
            "duration": 0.1875,
            "durationTicks": 144,
            "midi": 59,
            "name": "B3",
            "ticks": 45360,
            "time": 59.0625,
            "velocity": 0.5511811023622047
          },
          {
            "duration": 0.1875,
            "durationTicks": 144,
            "midi": 55,
            "name": "G3",
            "ticks": 45504,
            "time": 59.25,
            "velocity": 0.5511811023622047
          },
          {
            "duration": 0.1875,
            "durationTicks": 144,
            "midi": 52,
            "name": "E3",
            "ticks": 45504,
            "time": 59.25,
            "velocity": 0.5511811023622047
          },
          {
            "duration": 0.1875,
            "durationTicks": 144,
            "midi": 43,
            "name": "G2",
            "ticks": 45504,
            "time": 59.25,
            "velocity": 0.5511811023622047
          },
          {
            "duration": 0.1875,
            "durationTicks": 144,
            "midi": 40,
            "name": "E2",
            "ticks": 45504,
            "time": 59.25,
            "velocity": 0.5511811023622047
          },
          {
            "duration": 0.1875,
            "durationTicks": 144,
            "midi": 48,
            "name": "C3",
            "ticks": 45504,
            "time": 59.25,
            "velocity": 0.5511811023622047
          },
          {
            "duration": 0.1875,
            "durationTicks": 144,
            "midi": 36,
            "name": "C2",
            "ticks": 45504,
            "time": 59.25,
            "velocity": 0.5511811023622047
          },
          {
            "duration": 0.1875,
            "durationTicks": 144,
            "midi": 60,
            "name": "C4",
            "ticks": 45504,
            "time": 59.25,
            "velocity": 0.5511811023622047
          },
          {
            "duration": 0.1875,
            "durationTicks": 144,
            "midi": 55,
            "name": "G3",
            "ticks": 45792,
            "time": 59.625,
            "velocity": 0.5511811023622047
          },
          {
            "duration": 0.1875,
            "durationTicks": 144,
            "midi": 60,
            "name": "C4",
            "ticks": 45792,
            "time": 59.625,
            "velocity": 0.5511811023622047
          },
          {
            "duration": 0.1875,
            "durationTicks": 144,
            "midi": 52,
            "name": "E3",
            "ticks": 45792,
            "time": 59.625,
            "velocity": 0.5511811023622047
          },
          {
            "duration": 0.1875,
            "durationTicks": 144,
            "midi": 36,
            "name": "C2",
            "ticks": 45792,
            "time": 59.625,
            "velocity": 0.5511811023622047
          },
          {
            "duration": 0.1875,
            "durationTicks": 144,
            "midi": 48,
            "name": "C3",
            "ticks": 45792,
            "time": 59.625,
            "velocity": 0.5511811023622047
          },
          {
            "duration": 0.1875,
            "durationTicks": 144,
            "midi": 43,
            "name": "G2",
            "ticks": 45792,
            "time": 59.625,
            "velocity": 0.5511811023622047
          },
          {
            "duration": 0.1875,
            "durationTicks": 144,
            "midi": 40,
            "name": "E2",
            "ticks": 45792,
            "time": 59.625,
            "velocity": 0.5511811023622047
          },
          {
            "duration": 0.1875,
            "durationTicks": 144,
            "midi": 36,
            "name": "C2",
            "ticks": 45936,
            "time": 59.8125,
            "velocity": 0.5511811023622047
          },
          {
            "duration": 0.1875,
            "durationTicks": 144,
            "midi": 52,
            "name": "E3",
            "ticks": 45936,
            "time": 59.8125,
            "velocity": 0.5511811023622047
          },
          {
            "duration": 0.1875,
            "durationTicks": 144,
            "midi": 48,
            "name": "C3",
            "ticks": 45936,
            "time": 59.8125,
            "velocity": 0.5511811023622047
          },
          {
            "duration": 0.1875,
            "durationTicks": 144,
            "midi": 55,
            "name": "G3",
            "ticks": 45936,
            "time": 59.8125,
            "velocity": 0.5511811023622047
          },
          {
            "duration": 0.1875,
            "durationTicks": 144,
            "midi": 60,
            "name": "C4",
            "ticks": 45936,
            "time": 59.8125,
            "velocity": 0.5511811023622047
          },
          {
            "duration": 0.1875,
            "durationTicks": 144,
            "midi": 40,
            "name": "E2",
            "ticks": 45936,
            "time": 59.8125,
            "velocity": 0.5511811023622047
          },
          {
            "duration": 0.1875,
            "durationTicks": 144,
            "midi": 43,
            "name": "G2",
            "ticks": 45936,
            "time": 59.8125,
            "velocity": 0.5511811023622047
          },
          {
            "duration": 0.1875,
            "durationTicks": 144,
            "midi": 55,
            "name": "G3",
            "ticks": 46224,
            "time": 60.1875,
            "velocity": 0.5511811023622047
          },
          {
            "duration": 0.1875,
            "durationTicks": 144,
            "midi": 40,
            "name": "E2",
            "ticks": 46224,
            "time": 60.1875,
            "velocity": 0.5511811023622047
          },
          {
            "duration": 0.1875,
            "durationTicks": 144,
            "midi": 60,
            "name": "C4",
            "ticks": 46224,
            "time": 60.1875,
            "velocity": 0.5511811023622047
          },
          {
            "duration": 0.1875,
            "durationTicks": 144,
            "midi": 48,
            "name": "C3",
            "ticks": 46224,
            "time": 60.1875,
            "velocity": 0.5511811023622047
          },
          {
            "duration": 0.1875,
            "durationTicks": 144,
            "midi": 52,
            "name": "E3",
            "ticks": 46224,
            "time": 60.1875,
            "velocity": 0.5511811023622047
          },
          {
            "duration": 0.1875,
            "durationTicks": 144,
            "midi": 43,
            "name": "G2",
            "ticks": 46224,
            "time": 60.1875,
            "velocity": 0.5511811023622047
          },
          {
            "duration": 0.1875,
            "durationTicks": 144,
            "midi": 36,
            "name": "C2",
            "ticks": 46224,
            "time": 60.1875,
            "velocity": 0.5511811023622047
          },
          {
            "duration": 0.1875,
            "durationTicks": 144,
            "midi": 48,
            "name": "C3",
            "ticks": 46368,
            "time": 60.375,
            "velocity": 0.5511811023622047
          },
          {
            "duration": 0.1875,
            "durationTicks": 144,
            "midi": 55,
            "name": "G3",
            "ticks": 46368,
            "time": 60.375,
            "velocity": 0.5511811023622047
          },
          {
            "duration": 0.1875,
            "durationTicks": 144,
            "midi": 40,
            "name": "E2",
            "ticks": 46368,
            "time": 60.375,
            "velocity": 0.5511811023622047
          },
          {
            "duration": 0.1875,
            "durationTicks": 144,
            "midi": 36,
            "name": "C2",
            "ticks": 46368,
            "time": 60.375,
            "velocity": 0.5511811023622047
          },
          {
            "duration": 0.1875,
            "durationTicks": 144,
            "midi": 43,
            "name": "G2",
            "ticks": 46368,
            "time": 60.375,
            "velocity": 0.5511811023622047
          },
          {
            "duration": 0.1875,
            "durationTicks": 144,
            "midi": 60,
            "name": "C4",
            "ticks": 46368,
            "time": 60.375,
            "velocity": 0.5511811023622047
          },
          {
            "duration": 0.1875,
            "durationTicks": 144,
            "midi": 52,
            "name": "E3",
            "ticks": 46368,
            "time": 60.375,
            "velocity": 0.5511811023622047
          },
          {
            "duration": 0.1875,
            "durationTicks": 144,
            "midi": 36,
            "name": "C2",
            "ticks": 46512,
            "time": 60.5625,
            "velocity": 0.5511811023622047
          },
          {
            "duration": 0.1875,
            "durationTicks": 144,
            "midi": 43,
            "name": "G2",
            "ticks": 46512,
            "time": 60.5625,
            "velocity": 0.5511811023622047
          },
          {
            "duration": 0.1875,
            "durationTicks": 144,
            "midi": 52,
            "name": "E3",
            "ticks": 46512,
            "time": 60.5625,
            "velocity": 0.5511811023622047
          },
          {
            "duration": 0.1875,
            "durationTicks": 144,
            "midi": 55,
            "name": "G3",
            "ticks": 46512,
            "time": 60.5625,
            "velocity": 0.5511811023622047
          },
          {
            "duration": 0.1875,
            "durationTicks": 144,
            "midi": 60,
            "name": "C4",
            "ticks": 46512,
            "time": 60.5625,
            "velocity": 0.5511811023622047
          },
          {
            "duration": 0.1875,
            "durationTicks": 144,
            "midi": 48,
            "name": "C3",
            "ticks": 46512,
            "time": 60.5625,
            "velocity": 0.5511811023622047
          },
          {
            "duration": 0.1875,
            "durationTicks": 144,
            "midi": 40,
            "name": "E2",
            "ticks": 46512,
            "time": 60.5625,
            "velocity": 0.5511811023622047
          },
          {
            "duration": 0.1875,
            "durationTicks": 144,
            "midi": 60,
            "name": "C4",
            "ticks": 46656,
            "time": 60.75,
            "velocity": 0.5511811023622047
          },
          {
            "duration": 0.1875,
            "durationTicks": 144,
            "midi": 48,
            "name": "C3",
            "ticks": 46656,
            "time": 60.75,
            "velocity": 0.5511811023622047
          },
          {
            "duration": 0.1875,
            "durationTicks": 144,
            "midi": 52,
            "name": "E3",
            "ticks": 46656,
            "time": 60.75,
            "velocity": 0.5511811023622047
          },
          {
            "duration": 0.1875,
            "durationTicks": 144,
            "midi": 43,
            "name": "G2",
            "ticks": 46656,
            "time": 60.75,
            "velocity": 0.5511811023622047
          },
          {
            "duration": 0.1875,
            "durationTicks": 144,
            "midi": 36,
            "name": "C2",
            "ticks": 46656,
            "time": 60.75,
            "velocity": 0.5511811023622047
          },
          {
            "duration": 0.1875,
            "durationTicks": 144,
            "midi": 55,
            "name": "G3",
            "ticks": 46656,
            "time": 60.75,
            "velocity": 0.5511811023622047
          },
          {
            "duration": 0.1875,
            "durationTicks": 144,
            "midi": 40,
            "name": "E2",
            "ticks": 46656,
            "time": 60.75,
            "velocity": 0.5511811023622047
          },
          {
            "duration": 0.1875,
            "durationTicks": 144,
            "midi": 43,
            "name": "G2",
            "ticks": 46944,
            "time": 61.125,
            "velocity": 0.5511811023622047
          },
          {
            "duration": 0.1875,
            "durationTicks": 144,
            "midi": 40,
            "name": "E2",
            "ticks": 46944,
            "time": 61.125,
            "velocity": 0.5511811023622047
          },
          {
            "duration": 0.1875,
            "durationTicks": 144,
            "midi": 60,
            "name": "C4",
            "ticks": 46944,
            "time": 61.125,
            "velocity": 0.5511811023622047
          },
          {
            "duration": 0.1875,
            "durationTicks": 144,
            "midi": 55,
            "name": "G3",
            "ticks": 46944,
            "time": 61.125,
            "velocity": 0.5511811023622047
          },
          {
            "duration": 0.1875,
            "durationTicks": 144,
            "midi": 52,
            "name": "E3",
            "ticks": 46944,
            "time": 61.125,
            "velocity": 0.5511811023622047
          },
          {
            "duration": 0.1875,
            "durationTicks": 144,
            "midi": 36,
            "name": "C2",
            "ticks": 46944,
            "time": 61.125,
            "velocity": 0.5511811023622047
          },
          {
            "duration": 0.1875,
            "durationTicks": 144,
            "midi": 48,
            "name": "C3",
            "ticks": 46944,
            "time": 61.125,
            "velocity": 0.5511811023622047
          },
          {
            "duration": 0.1875,
            "durationTicks": 144,
            "midi": 48,
            "name": "C3",
            "ticks": 47088,
            "time": 61.3125,
            "velocity": 0.5511811023622047
          },
          {
            "duration": 0.1875,
            "durationTicks": 144,
            "midi": 55,
            "name": "G3",
            "ticks": 47088,
            "time": 61.3125,
            "velocity": 0.5511811023622047
          },
          {
            "duration": 0.1875,
            "durationTicks": 144,
            "midi": 60,
            "name": "C4",
            "ticks": 47088,
            "time": 61.3125,
            "velocity": 0.5511811023622047
          },
          {
            "duration": 0.1875,
            "durationTicks": 144,
            "midi": 43,
            "name": "G2",
            "ticks": 47088,
            "time": 61.3125,
            "velocity": 0.5511811023622047
          },
          {
            "duration": 0.1875,
            "durationTicks": 144,
            "midi": 40,
            "name": "E2",
            "ticks": 47088,
            "time": 61.3125,
            "velocity": 0.5511811023622047
          },
          {
            "duration": 0.1875,
            "durationTicks": 144,
            "midi": 36,
            "name": "C2",
            "ticks": 47088,
            "time": 61.3125,
            "velocity": 0.5511811023622047
          },
          {
            "duration": 0.1875,
            "durationTicks": 144,
            "midi": 52,
            "name": "E3",
            "ticks": 47088,
            "time": 61.3125,
            "velocity": 0.5511811023622047
          },
          {
            "duration": 0.1875,
            "durationTicks": 144,
            "midi": 60,
            "name": "C4",
            "ticks": 47376,
            "time": 61.6875,
            "velocity": 0.5511811023622047
          },
          {
            "duration": 0.1875,
            "durationTicks": 144,
            "midi": 48,
            "name": "C3",
            "ticks": 47376,
            "time": 61.6875,
            "velocity": 0.5511811023622047
          },
          {
            "duration": 0.1875,
            "durationTicks": 144,
            "midi": 52,
            "name": "E3",
            "ticks": 47376,
            "time": 61.6875,
            "velocity": 0.5511811023622047
          },
          {
            "duration": 0.1875,
            "durationTicks": 144,
            "midi": 55,
            "name": "G3",
            "ticks": 47376,
            "time": 61.6875,
            "velocity": 0.5511811023622047
          },
          {
            "duration": 0.1875,
            "durationTicks": 144,
            "midi": 40,
            "name": "E2",
            "ticks": 47376,
            "time": 61.6875,
            "velocity": 0.5511811023622047
          },
          {
            "duration": 0.1875,
            "durationTicks": 144,
            "midi": 36,
            "name": "C2",
            "ticks": 47376,
            "time": 61.6875,
            "velocity": 0.5511811023622047
          },
          {
            "duration": 0.1875,
            "durationTicks": 144,
            "midi": 43,
            "name": "G2",
            "ticks": 47376,
            "time": 61.6875,
            "velocity": 0.5511811023622047
          },
          {
            "duration": 0.1875,
            "durationTicks": 144,
            "midi": 40,
            "name": "E2",
            "ticks": 47520,
            "time": 61.875,
            "velocity": 0.5511811023622047
          },
          {
            "duration": 0.1875,
            "durationTicks": 144,
            "midi": 36,
            "name": "C2",
            "ticks": 47520,
            "time": 61.875,
            "velocity": 0.5511811023622047
          },
          {
            "duration": 0.1875,
            "durationTicks": 144,
            "midi": 48,
            "name": "C3",
            "ticks": 47520,
            "time": 61.875,
            "velocity": 0.5511811023622047
          },
          {
            "duration": 0.1875,
            "durationTicks": 144,
            "midi": 60,
            "name": "C4",
            "ticks": 47520,
            "time": 61.875,
            "velocity": 0.5511811023622047
          },
          {
            "duration": 0.1875,
            "durationTicks": 144,
            "midi": 52,
            "name": "E3",
            "ticks": 47520,
            "time": 61.875,
            "velocity": 0.5511811023622047
          },
          {
            "duration": 0.1875,
            "durationTicks": 144,
            "midi": 43,
            "name": "G2",
            "ticks": 47520,
            "time": 61.875,
            "velocity": 0.5511811023622047
          },
          {
            "duration": 0.1875,
            "durationTicks": 144,
            "midi": 55,
            "name": "G3",
            "ticks": 47520,
            "time": 61.875,
            "velocity": 0.5511811023622047
          },
          {
            "duration": 0.1875,
            "durationTicks": 144,
            "midi": 48,
            "name": "C3",
            "ticks": 47664,
            "time": 62.0625,
            "velocity": 0.5511811023622047
          },
          {
            "duration": 0.1875,
            "durationTicks": 144,
            "midi": 40,
            "name": "E2",
            "ticks": 47664,
            "time": 62.0625,
            "velocity": 0.5511811023622047
          },
          {
            "duration": 0.1875,
            "durationTicks": 144,
            "midi": 52,
            "name": "E3",
            "ticks": 47664,
            "time": 62.0625,
            "velocity": 0.5511811023622047
          },
          {
            "duration": 0.1875,
            "durationTicks": 144,
            "midi": 36,
            "name": "C2",
            "ticks": 47664,
            "time": 62.0625,
            "velocity": 0.5511811023622047
          },
          {
            "duration": 0.1875,
            "durationTicks": 144,
            "midi": 55,
            "name": "G3",
            "ticks": 47664,
            "time": 62.0625,
            "velocity": 0.5511811023622047
          },
          {
            "duration": 0.1875,
            "durationTicks": 144,
            "midi": 60,
            "name": "C4",
            "ticks": 47664,
            "time": 62.0625,
            "velocity": 0.5511811023622047
          },
          {
            "duration": 0.1875,
            "durationTicks": 144,
            "midi": 43,
            "name": "G2",
            "ticks": 47664,
            "time": 62.0625,
            "velocity": 0.5511811023622047
          },
          {
            "duration": 0.1875,
            "durationTicks": 144,
            "midi": 57,
            "name": "A3",
            "ticks": 47808,
            "time": 62.25,
            "velocity": 0.5511811023622047
          },
          {
            "duration": 0.1875,
            "durationTicks": 144,
            "midi": 50,
            "name": "D3",
            "ticks": 47808,
            "time": 62.25,
            "velocity": 0.5511811023622047
          },
          {
            "duration": 0.1875,
            "durationTicks": 144,
            "midi": 62,
            "name": "D4",
            "ticks": 47808,
            "time": 62.25,
            "velocity": 0.5511811023622047
          },
          {
            "duration": 0.1875,
            "durationTicks": 144,
            "midi": 45,
            "name": "A2",
            "ticks": 47808,
            "time": 62.25,
            "velocity": 0.5511811023622047
          },
          {
            "duration": 0.1875,
            "durationTicks": 144,
            "midi": 42,
            "name": "F#2",
            "ticks": 47808,
            "time": 62.25,
            "velocity": 0.5511811023622047
          },
          {
            "duration": 0.1875,
            "durationTicks": 144,
            "midi": 54,
            "name": "F#3",
            "ticks": 47808,
            "time": 62.25,
            "velocity": 0.5511811023622047
          },
          {
            "duration": 0.1875,
            "durationTicks": 144,
            "midi": 38,
            "name": "D2",
            "ticks": 47808,
            "time": 62.25,
            "velocity": 0.5511811023622047
          },
          {
            "duration": 0.1875,
            "durationTicks": 144,
            "midi": 50,
            "name": "D3",
            "ticks": 48096,
            "time": 62.625,
            "velocity": 0.5511811023622047
          },
          {
            "duration": 0.1875,
            "durationTicks": 144,
            "midi": 57,
            "name": "A3",
            "ticks": 48096,
            "time": 62.625,
            "velocity": 0.5511811023622047
          },
          {
            "duration": 0.1875,
            "durationTicks": 144,
            "midi": 38,
            "name": "D2",
            "ticks": 48096,
            "time": 62.625,
            "velocity": 0.5511811023622047
          },
          {
            "duration": 0.1875,
            "durationTicks": 144,
            "midi": 42,
            "name": "F#2",
            "ticks": 48096,
            "time": 62.625,
            "velocity": 0.5511811023622047
          },
          {
            "duration": 0.1875,
            "durationTicks": 144,
            "midi": 62,
            "name": "D4",
            "ticks": 48096,
            "time": 62.625,
            "velocity": 0.5511811023622047
          },
          {
            "duration": 0.1875,
            "durationTicks": 144,
            "midi": 45,
            "name": "A2",
            "ticks": 48096,
            "time": 62.625,
            "velocity": 0.5511811023622047
          },
          {
            "duration": 0.1875,
            "durationTicks": 144,
            "midi": 54,
            "name": "F#3",
            "ticks": 48096,
            "time": 62.625,
            "velocity": 0.5511811023622047
          },
          {
            "duration": 0.1875,
            "durationTicks": 144,
            "midi": 44,
            "name": "G#2",
            "ticks": 48384,
            "time": 63,
            "velocity": 0.5511811023622047
          },
          {
            "duration": 0.1875,
            "durationTicks": 144,
            "midi": 47,
            "name": "B2",
            "ticks": 48384,
            "time": 63,
            "velocity": 0.5511811023622047
          },
          {
            "duration": 0.1875,
            "durationTicks": 144,
            "midi": 40,
            "name": "E2",
            "ticks": 48384,
            "time": 63,
            "velocity": 0.5511811023622047
          },
          {
            "duration": 0.1875,
            "durationTicks": 144,
            "midi": 64,
            "name": "E4",
            "ticks": 48384,
            "time": 63,
            "velocity": 0.5511811023622047
          },
          {
            "duration": 0.1875,
            "durationTicks": 144,
            "midi": 56,
            "name": "G#3",
            "ticks": 48384,
            "time": 63,
            "velocity": 0.5511811023622047
          },
          {
            "duration": 0.1875,
            "durationTicks": 144,
            "midi": 52,
            "name": "E3",
            "ticks": 48384,
            "time": 63,
            "velocity": 0.5511811023622047
          },
          {
            "duration": 0.1875,
            "durationTicks": 144,
            "midi": 59,
            "name": "B3",
            "ticks": 48384,
            "time": 63,
            "velocity": 0.5511811023622047
          },
          {
            "duration": 0.1875,
            "durationTicks": 144,
            "midi": 47,
            "name": "B2",
            "ticks": 48672,
            "time": 63.375,
            "velocity": 0.5511811023622047
          },
          {
            "duration": 0.1875,
            "durationTicks": 144,
            "midi": 44,
            "name": "G#2",
            "ticks": 48672,
            "time": 63.375,
            "velocity": 0.5511811023622047
          },
          {
            "duration": 0.1875,
            "durationTicks": 144,
            "midi": 56,
            "name": "G#3",
            "ticks": 48672,
            "time": 63.375,
            "velocity": 0.5511811023622047
          },
          {
            "duration": 0.1875,
            "durationTicks": 144,
            "midi": 64,
            "name": "E4",
            "ticks": 48672,
            "time": 63.375,
            "velocity": 0.5511811023622047
          },
          {
            "duration": 0.1875,
            "durationTicks": 144,
            "midi": 52,
            "name": "E3",
            "ticks": 48672,
            "time": 63.375,
            "velocity": 0.5511811023622047
          },
          {
            "duration": 0.1875,
            "durationTicks": 144,
            "midi": 59,
            "name": "B3",
            "ticks": 48672,
            "time": 63.375,
            "velocity": 0.5511811023622047
          },
          {
            "duration": 0.1875,
            "durationTicks": 144,
            "midi": 40,
            "name": "E2",
            "ticks": 48672,
            "time": 63.375,
            "velocity": 0.5511811023622047
          },
          {
            "duration": 0.1875,
            "durationTicks": 144,
            "midi": 40,
            "name": "E2",
            "ticks": 48816,
            "time": 63.5625,
            "velocity": 0.5511811023622047
          },
          {
            "duration": 0.1875,
            "durationTicks": 144,
            "midi": 59,
            "name": "B3",
            "ticks": 48816,
            "time": 63.5625,
            "velocity": 0.5511811023622047
          },
          {
            "duration": 0.1875,
            "durationTicks": 144,
            "midi": 56,
            "name": "G#3",
            "ticks": 48816,
            "time": 63.5625,
            "velocity": 0.5511811023622047
          },
          {
            "duration": 0.1875,
            "durationTicks": 144,
            "midi": 52,
            "name": "E3",
            "ticks": 48816,
            "time": 63.5625,
            "velocity": 0.5511811023622047
          },
          {
            "duration": 0.1875,
            "durationTicks": 144,
            "midi": 44,
            "name": "G#2",
            "ticks": 48816,
            "time": 63.5625,
            "velocity": 0.5511811023622047
          },
          {
            "duration": 0.1875,
            "durationTicks": 144,
            "midi": 47,
            "name": "B2",
            "ticks": 48816,
            "time": 63.5625,
            "velocity": 0.5511811023622047
          },
          {
            "duration": 0.1875,
            "durationTicks": 144,
            "midi": 64,
            "name": "E4",
            "ticks": 48816,
            "time": 63.5625,
            "velocity": 0.5511811023622047
          },
          {
            "duration": 0.1875,
            "durationTicks": 144,
            "midi": 44,
            "name": "G#2",
            "ticks": 49104,
            "time": 63.9375,
            "velocity": 0.5511811023622047
          },
          {
            "duration": 0.1875,
            "durationTicks": 144,
            "midi": 56,
            "name": "G#3",
            "ticks": 49104,
            "time": 63.9375,
            "velocity": 0.5511811023622047
          },
          {
            "duration": 0.1875,
            "durationTicks": 144,
            "midi": 47,
            "name": "B2",
            "ticks": 49104,
            "time": 63.9375,
            "velocity": 0.5511811023622047
          },
          {
            "duration": 0.1875,
            "durationTicks": 144,
            "midi": 40,
            "name": "E2",
            "ticks": 49104,
            "time": 63.9375,
            "velocity": 0.5511811023622047
          },
          {
            "duration": 0.1875,
            "durationTicks": 144,
            "midi": 59,
            "name": "B3",
            "ticks": 49104,
            "time": 63.9375,
            "velocity": 0.5511811023622047
          },
          {
            "duration": 0.1875,
            "durationTicks": 144,
            "midi": 52,
            "name": "E3",
            "ticks": 49104,
            "time": 63.9375,
            "velocity": 0.5511811023622047
          },
          {
            "duration": 0.1875,
            "durationTicks": 144,
            "midi": 64,
            "name": "E4",
            "ticks": 49104,
            "time": 63.9375,
            "velocity": 0.5511811023622047
          },
          {
            "duration": 0.1875,
            "durationTicks": 144,
            "midi": 52,
            "name": "E3",
            "ticks": 49248,
            "time": 64.125,
            "velocity": 0.5511811023622047
          },
          {
            "duration": 0.1875,
            "durationTicks": 144,
            "midi": 59,
            "name": "B3",
            "ticks": 49248,
            "time": 64.125,
            "velocity": 0.5511811023622047
          },
          {
            "duration": 0.1875,
            "durationTicks": 144,
            "midi": 44,
            "name": "G#2",
            "ticks": 49248,
            "time": 64.125,
            "velocity": 0.5511811023622047
          },
          {
            "duration": 0.1875,
            "durationTicks": 144,
            "midi": 56,
            "name": "G#3",
            "ticks": 49248,
            "time": 64.125,
            "velocity": 0.5511811023622047
          },
          {
            "duration": 0.1875,
            "durationTicks": 144,
            "midi": 40,
            "name": "E2",
            "ticks": 49248,
            "time": 64.125,
            "velocity": 0.5511811023622047
          },
          {
            "duration": 0.1875,
            "durationTicks": 144,
            "midi": 47,
            "name": "B2",
            "ticks": 49248,
            "time": 64.125,
            "velocity": 0.5511811023622047
          },
          {
            "duration": 0.1875,
            "durationTicks": 144,
            "midi": 64,
            "name": "E4",
            "ticks": 49248,
            "time": 64.125,
            "velocity": 0.5511811023622047
          },
          {
            "duration": 0.1875,
            "durationTicks": 144,
            "midi": 64,
            "name": "E4",
            "ticks": 49392,
            "time": 64.3125,
            "velocity": 0.5511811023622047
          },
          {
            "duration": 0.1875,
            "durationTicks": 144,
            "midi": 40,
            "name": "E2",
            "ticks": 49392,
            "time": 64.3125,
            "velocity": 0.5511811023622047
          },
          {
            "duration": 0.1875,
            "durationTicks": 144,
            "midi": 56,
            "name": "G#3",
            "ticks": 49392,
            "time": 64.3125,
            "velocity": 0.5511811023622047
          },
          {
            "duration": 0.1875,
            "durationTicks": 144,
            "midi": 44,
            "name": "G#2",
            "ticks": 49392,
            "time": 64.3125,
            "velocity": 0.5511811023622047
          },
          {
            "duration": 0.1875,
            "durationTicks": 144,
            "midi": 47,
            "name": "B2",
            "ticks": 49392,
            "time": 64.3125,
            "velocity": 0.5511811023622047
          },
          {
            "duration": 0.1875,
            "durationTicks": 144,
            "midi": 59,
            "name": "B3",
            "ticks": 49392,
            "time": 64.3125,
            "velocity": 0.5511811023622047
          },
          {
            "duration": 0.1875,
            "durationTicks": 144,
            "midi": 52,
            "name": "E3",
            "ticks": 49392,
            "time": 64.3125,
            "velocity": 0.5511811023622047
          },
          {
            "duration": 0.1875,
            "durationTicks": 144,
            "midi": 64,
            "name": "E4",
            "ticks": 49536,
            "time": 64.5,
            "velocity": 0.5511811023622047
          },
          {
            "duration": 0.1875,
            "durationTicks": 144,
            "midi": 52,
            "name": "E3",
            "ticks": 49536,
            "time": 64.5,
            "velocity": 0.5511811023622047
          },
          {
            "duration": 0.1875,
            "durationTicks": 144,
            "midi": 44,
            "name": "G#2",
            "ticks": 49536,
            "time": 64.5,
            "velocity": 0.5511811023622047
          },
          {
            "duration": 0.1875,
            "durationTicks": 144,
            "midi": 40,
            "name": "E2",
            "ticks": 49536,
            "time": 64.5,
            "velocity": 0.5511811023622047
          },
          {
            "duration": 0.1875,
            "durationTicks": 144,
            "midi": 47,
            "name": "B2",
            "ticks": 49536,
            "time": 64.5,
            "velocity": 0.5511811023622047
          },
          {
            "duration": 0.1875,
            "durationTicks": 144,
            "midi": 56,
            "name": "G#3",
            "ticks": 49536,
            "time": 64.5,
            "velocity": 0.5511811023622047
          },
          {
            "duration": 0.1875,
            "durationTicks": 144,
            "midi": 59,
            "name": "B3",
            "ticks": 49536,
            "time": 64.5,
            "velocity": 0.5511811023622047
          },
          {
            "duration": 0.1875,
            "durationTicks": 144,
            "midi": 64,
            "name": "E4",
            "ticks": 49824,
            "time": 64.875,
            "velocity": 0.5511811023622047
          },
          {
            "duration": 0.1875,
            "durationTicks": 144,
            "midi": 56,
            "name": "G#3",
            "ticks": 49824,
            "time": 64.875,
            "velocity": 0.5511811023622047
          },
          {
            "duration": 0.1875,
            "durationTicks": 144,
            "midi": 44,
            "name": "G#2",
            "ticks": 49824,
            "time": 64.875,
            "velocity": 0.5511811023622047
          },
          {
            "duration": 0.1875,
            "durationTicks": 144,
            "midi": 47,
            "name": "B2",
            "ticks": 49824,
            "time": 64.875,
            "velocity": 0.5511811023622047
          },
          {
            "duration": 0.1875,
            "durationTicks": 144,
            "midi": 52,
            "name": "E3",
            "ticks": 49824,
            "time": 64.875,
            "velocity": 0.5511811023622047
          },
          {
            "duration": 0.1875,
            "durationTicks": 144,
            "midi": 59,
            "name": "B3",
            "ticks": 49824,
            "time": 64.875,
            "velocity": 0.5511811023622047
          },
          {
            "duration": 0.1875,
            "durationTicks": 144,
            "midi": 40,
            "name": "E2",
            "ticks": 49824,
            "time": 64.875,
            "velocity": 0.5511811023622047
          },
          {
            "duration": 0.1875,
            "durationTicks": 144,
            "midi": 52,
            "name": "E3",
            "ticks": 49968,
            "time": 65.0625,
            "velocity": 0.5511811023622047
          },
          {
            "duration": 0.1875,
            "durationTicks": 144,
            "midi": 40,
            "name": "E2",
            "ticks": 49968,
            "time": 65.0625,
            "velocity": 0.5511811023622047
          },
          {
            "duration": 0.1875,
            "durationTicks": 144,
            "midi": 64,
            "name": "E4",
            "ticks": 49968,
            "time": 65.0625,
            "velocity": 0.5511811023622047
          },
          {
            "duration": 0.1875,
            "durationTicks": 144,
            "midi": 56,
            "name": "G#3",
            "ticks": 49968,
            "time": 65.0625,
            "velocity": 0.5511811023622047
          },
          {
            "duration": 0.1875,
            "durationTicks": 144,
            "midi": 59,
            "name": "B3",
            "ticks": 49968,
            "time": 65.0625,
            "velocity": 0.5511811023622047
          },
          {
            "duration": 0.1875,
            "durationTicks": 144,
            "midi": 44,
            "name": "G#2",
            "ticks": 49968,
            "time": 65.0625,
            "velocity": 0.5511811023622047
          },
          {
            "duration": 0.1875,
            "durationTicks": 144,
            "midi": 47,
            "name": "B2",
            "ticks": 49968,
            "time": 65.0625,
            "velocity": 0.5511811023622047
          },
          {
            "duration": 0.1875,
            "durationTicks": 144,
            "midi": 59,
            "name": "B3",
            "ticks": 50256,
            "time": 65.4375,
            "velocity": 0.5511811023622047
          },
          {
            "duration": 0.1875,
            "durationTicks": 144,
            "midi": 44,
            "name": "G#2",
            "ticks": 50256,
            "time": 65.4375,
            "velocity": 0.5511811023622047
          },
          {
            "duration": 0.1875,
            "durationTicks": 144,
            "midi": 47,
            "name": "B2",
            "ticks": 50256,
            "time": 65.4375,
            "velocity": 0.5511811023622047
          },
          {
            "duration": 0.1875,
            "durationTicks": 144,
            "midi": 56,
            "name": "G#3",
            "ticks": 50256,
            "time": 65.4375,
            "velocity": 0.5511811023622047
          },
          {
            "duration": 0.1875,
            "durationTicks": 144,
            "midi": 40,
            "name": "E2",
            "ticks": 50256,
            "time": 65.4375,
            "velocity": 0.5511811023622047
          },
          {
            "duration": 0.1875,
            "durationTicks": 144,
            "midi": 64,
            "name": "E4",
            "ticks": 50256,
            "time": 65.4375,
            "velocity": 0.5511811023622047
          },
          {
            "duration": 0.1875,
            "durationTicks": 144,
            "midi": 52,
            "name": "E3",
            "ticks": 50256,
            "time": 65.4375,
            "velocity": 0.5511811023622047
          },
          {
            "duration": 0.1875,
            "durationTicks": 144,
            "midi": 52,
            "name": "E3",
            "ticks": 50400,
            "time": 65.625,
            "velocity": 0.5511811023622047
          },
          {
            "duration": 0.1875,
            "durationTicks": 144,
            "midi": 47,
            "name": "B2",
            "ticks": 50400,
            "time": 65.625,
            "velocity": 0.5511811023622047
          },
          {
            "duration": 0.1875,
            "durationTicks": 144,
            "midi": 64,
            "name": "E4",
            "ticks": 50400,
            "time": 65.625,
            "velocity": 0.5511811023622047
          },
          {
            "duration": 0.1875,
            "durationTicks": 144,
            "midi": 59,
            "name": "B3",
            "ticks": 50400,
            "time": 65.625,
            "velocity": 0.5511811023622047
          },
          {
            "duration": 0.1875,
            "durationTicks": 144,
            "midi": 44,
            "name": "G#2",
            "ticks": 50400,
            "time": 65.625,
            "velocity": 0.5511811023622047
          },
          {
            "duration": 0.1875,
            "durationTicks": 144,
            "midi": 56,
            "name": "G#3",
            "ticks": 50400,
            "time": 65.625,
            "velocity": 0.5511811023622047
          },
          {
            "duration": 0.1875,
            "durationTicks": 144,
            "midi": 40,
            "name": "E2",
            "ticks": 50400,
            "time": 65.625,
            "velocity": 0.5511811023622047
          },
          {
            "duration": 0.1875,
            "durationTicks": 144,
            "midi": 44,
            "name": "G#2",
            "ticks": 50544,
            "time": 65.8125,
            "velocity": 0.5511811023622047
          },
          {
            "duration": 0.1875,
            "durationTicks": 144,
            "midi": 59,
            "name": "B3",
            "ticks": 50544,
            "time": 65.8125,
            "velocity": 0.5511811023622047
          },
          {
            "duration": 0.1875,
            "durationTicks": 144,
            "midi": 40,
            "name": "E2",
            "ticks": 50544,
            "time": 65.8125,
            "velocity": 0.5511811023622047
          },
          {
            "duration": 0.1875,
            "durationTicks": 144,
            "midi": 64,
            "name": "E4",
            "ticks": 50544,
            "time": 65.8125,
            "velocity": 0.5511811023622047
          },
          {
            "duration": 0.1875,
            "durationTicks": 144,
            "midi": 47,
            "name": "B2",
            "ticks": 50544,
            "time": 65.8125,
            "velocity": 0.5511811023622047
          },
          {
            "duration": 0.1875,
            "durationTicks": 144,
            "midi": 56,
            "name": "G#3",
            "ticks": 50544,
            "time": 65.8125,
            "velocity": 0.5511811023622047
          },
          {
            "duration": 0.1875,
            "durationTicks": 144,
            "midi": 52,
            "name": "E3",
            "ticks": 50544,
            "time": 65.8125,
            "velocity": 0.5511811023622047
          },
          {
            "duration": 0.1875,
            "durationTicks": 144,
            "midi": 47,
            "name": "B2",
            "ticks": 50688,
            "time": 66,
            "velocity": 0.5511811023622047
          },
          {
            "duration": 0.1875,
            "durationTicks": 144,
            "midi": 67,
            "name": "G4",
            "ticks": 50688,
            "time": 66,
            "velocity": 0.5511811023622047
          },
          {
            "duration": 0.1875,
            "durationTicks": 144,
            "midi": 59,
            "name": "B3",
            "ticks": 50688,
            "time": 66,
            "velocity": 0.5511811023622047
          },
          {
            "duration": 0.1875,
            "durationTicks": 144,
            "midi": 55,
            "name": "G3",
            "ticks": 50688,
            "time": 66,
            "velocity": 0.5511811023622047
          },
          {
            "duration": 0.1875,
            "durationTicks": 144,
            "midi": 50,
            "name": "D3",
            "ticks": 50688,
            "time": 66,
            "velocity": 0.5511811023622047
          },
          {
            "duration": 0.1875,
            "durationTicks": 144,
            "midi": 62,
            "name": "D4",
            "ticks": 50688,
            "time": 66,
            "velocity": 0.5511811023622047
          },
          {
            "duration": 0.1875,
            "durationTicks": 144,
            "midi": 43,
            "name": "G2",
            "ticks": 50688,
            "time": 66,
            "velocity": 0.5511811023622047
          },
          {
            "duration": 0.1875,
            "durationTicks": 144,
            "midi": 55,
            "name": "G3",
            "ticks": 50976,
            "time": 66.375,
            "velocity": 0.5511811023622047
          },
          {
            "duration": 0.1875,
            "durationTicks": 144,
            "midi": 50,
            "name": "D3",
            "ticks": 50976,
            "time": 66.375,
            "velocity": 0.5511811023622047
          },
          {
            "duration": 0.1875,
            "durationTicks": 144,
            "midi": 47,
            "name": "B2",
            "ticks": 50976,
            "time": 66.375,
            "velocity": 0.5511811023622047
          },
          {
            "duration": 0.1875,
            "durationTicks": 144,
            "midi": 62,
            "name": "D4",
            "ticks": 50976,
            "time": 66.375,
            "velocity": 0.5511811023622047
          },
          {
            "duration": 0.1875,
            "durationTicks": 144,
            "midi": 59,
            "name": "B3",
            "ticks": 50976,
            "time": 66.375,
            "velocity": 0.5511811023622047
          },
          {
            "duration": 0.1875,
            "durationTicks": 144,
            "midi": 43,
            "name": "G2",
            "ticks": 50976,
            "time": 66.375,
            "velocity": 0.5511811023622047
          },
          {
            "duration": 0.1875,
            "durationTicks": 144,
            "midi": 67,
            "name": "G4",
            "ticks": 50976,
            "time": 66.375,
            "velocity": 0.5511811023622047
          },
          {
            "duration": 0.1875,
            "durationTicks": 144,
            "midi": 55,
            "name": "G3",
            "ticks": 51120,
            "time": 66.5625,
            "velocity": 0.5511811023622047
          },
          {
            "duration": 0.1875,
            "durationTicks": 144,
            "midi": 43,
            "name": "G2",
            "ticks": 51120,
            "time": 66.5625,
            "velocity": 0.5511811023622047
          },
          {
            "duration": 0.1875,
            "durationTicks": 144,
            "midi": 59,
            "name": "B3",
            "ticks": 51120,
            "time": 66.5625,
            "velocity": 0.5511811023622047
          },
          {
            "duration": 0.1875,
            "durationTicks": 144,
            "midi": 50,
            "name": "D3",
            "ticks": 51120,
            "time": 66.5625,
            "velocity": 0.5511811023622047
          },
          {
            "duration": 0.1875,
            "durationTicks": 144,
            "midi": 62,
            "name": "D4",
            "ticks": 51120,
            "time": 66.5625,
            "velocity": 0.5511811023622047
          },
          {
            "duration": 0.1875,
            "durationTicks": 144,
            "midi": 47,
            "name": "B2",
            "ticks": 51120,
            "time": 66.5625,
            "velocity": 0.5511811023622047
          },
          {
            "duration": 0.1875,
            "durationTicks": 144,
            "midi": 67,
            "name": "G4",
            "ticks": 51120,
            "time": 66.5625,
            "velocity": 0.5511811023622047
          },
          {
            "duration": 0.1875,
            "durationTicks": 144,
            "midi": 62,
            "name": "D4",
            "ticks": 51408,
            "time": 66.9375,
            "velocity": 0.5511811023622047
          },
          {
            "duration": 0.1875,
            "durationTicks": 144,
            "midi": 59,
            "name": "B3",
            "ticks": 51408,
            "time": 66.9375,
            "velocity": 0.5511811023622047
          },
          {
            "duration": 0.1875,
            "durationTicks": 144,
            "midi": 67,
            "name": "G4",
            "ticks": 51408,
            "time": 66.9375,
            "velocity": 0.5511811023622047
          },
          {
            "duration": 0.1875,
            "durationTicks": 144,
            "midi": 50,
            "name": "D3",
            "ticks": 51408,
            "time": 66.9375,
            "velocity": 0.5511811023622047
          },
          {
            "duration": 0.1875,
            "durationTicks": 144,
            "midi": 43,
            "name": "G2",
            "ticks": 51408,
            "time": 66.9375,
            "velocity": 0.5511811023622047
          },
          {
            "duration": 0.1875,
            "durationTicks": 144,
            "midi": 47,
            "name": "B2",
            "ticks": 51408,
            "time": 66.9375,
            "velocity": 0.5511811023622047
          },
          {
            "duration": 0.1875,
            "durationTicks": 144,
            "midi": 55,
            "name": "G3",
            "ticks": 51408,
            "time": 66.9375,
            "velocity": 0.5511811023622047
          },
          {
            "duration": 0.1875,
            "durationTicks": 144,
            "midi": 47,
            "name": "B2",
            "ticks": 51552,
            "time": 67.125,
            "velocity": 0.5511811023622047
          },
          {
            "duration": 0.1875,
            "durationTicks": 144,
            "midi": 50,
            "name": "D3",
            "ticks": 51552,
            "time": 67.125,
            "velocity": 0.5511811023622047
          },
          {
            "duration": 0.1875,
            "durationTicks": 144,
            "midi": 55,
            "name": "G3",
            "ticks": 51552,
            "time": 67.125,
            "velocity": 0.5511811023622047
          },
          {
            "duration": 0.1875,
            "durationTicks": 144,
            "midi": 59,
            "name": "B3",
            "ticks": 51552,
            "time": 67.125,
            "velocity": 0.5511811023622047
          },
          {
            "duration": 0.1875,
            "durationTicks": 144,
            "midi": 67,
            "name": "G4",
            "ticks": 51552,
            "time": 67.125,
            "velocity": 0.5511811023622047
          },
          {
            "duration": 0.1875,
            "durationTicks": 144,
            "midi": 62,
            "name": "D4",
            "ticks": 51552,
            "time": 67.125,
            "velocity": 0.5511811023622047
          },
          {
            "duration": 0.1875,
            "durationTicks": 144,
            "midi": 43,
            "name": "G2",
            "ticks": 51552,
            "time": 67.125,
            "velocity": 0.5511811023622047
          },
          {
            "duration": 0.1875,
            "durationTicks": 144,
            "midi": 59,
            "name": "B3",
            "ticks": 51696,
            "time": 67.3125,
            "velocity": 0.5511811023622047
          },
          {
            "duration": 0.1875,
            "durationTicks": 144,
            "midi": 43,
            "name": "G2",
            "ticks": 51696,
            "time": 67.3125,
            "velocity": 0.5511811023622047
          },
          {
            "duration": 0.1875,
            "durationTicks": 144,
            "midi": 55,
            "name": "G3",
            "ticks": 51696,
            "time": 67.3125,
            "velocity": 0.5511811023622047
          },
          {
            "duration": 0.1875,
            "durationTicks": 144,
            "midi": 62,
            "name": "D4",
            "ticks": 51696,
            "time": 67.3125,
            "velocity": 0.5511811023622047
          },
          {
            "duration": 0.1875,
            "durationTicks": 144,
            "midi": 50,
            "name": "D3",
            "ticks": 51696,
            "time": 67.3125,
            "velocity": 0.5511811023622047
          },
          {
            "duration": 0.1875,
            "durationTicks": 144,
            "midi": 47,
            "name": "B2",
            "ticks": 51696,
            "time": 67.3125,
            "velocity": 0.5511811023622047
          },
          {
            "duration": 0.1875,
            "durationTicks": 144,
            "midi": 67,
            "name": "G4",
            "ticks": 51696,
            "time": 67.3125,
            "velocity": 0.5511811023622047
          },
          {
            "duration": 0.1875,
            "durationTicks": 144,
            "midi": 40,
            "name": "E2",
            "ticks": 51840,
            "time": 67.5,
            "velocity": 0.5511811023622047
          },
          {
            "duration": 0.1875,
            "durationTicks": 144,
            "midi": 55,
            "name": "G3",
            "ticks": 51840,
            "time": 67.5,
            "velocity": 0.5511811023622047
          },
          {
            "duration": 0.1875,
            "durationTicks": 144,
            "midi": 43,
            "name": "G2",
            "ticks": 51840,
            "time": 67.5,
            "velocity": 0.5511811023622047
          },
          {
            "duration": 0.1875,
            "durationTicks": 144,
            "midi": 60,
            "name": "C4",
            "ticks": 51840,
            "time": 67.5,
            "velocity": 0.5511811023622047
          },
          {
            "duration": 0.1875,
            "durationTicks": 144,
            "midi": 52,
            "name": "E3",
            "ticks": 51840,
            "time": 67.5,
            "velocity": 0.5511811023622047
          },
          {
            "duration": 0.1875,
            "durationTicks": 144,
            "midi": 36,
            "name": "C2",
            "ticks": 51840,
            "time": 67.5,
            "velocity": 0.5511811023622047
          },
          {
            "duration": 0.1875,
            "durationTicks": 144,
            "midi": 48,
            "name": "C3",
            "ticks": 51840,
            "time": 67.5,
            "velocity": 0.5511811023622047
          },
          {
            "duration": 0.1875,
            "durationTicks": 144,
            "midi": 43,
            "name": "G2",
            "ticks": 52128,
            "time": 67.875,
            "velocity": 0.5511811023622047
          },
          {
            "duration": 0.1875,
            "durationTicks": 144,
            "midi": 48,
            "name": "C3",
            "ticks": 52128,
            "time": 67.875,
            "velocity": 0.5511811023622047
          },
          {
            "duration": 0.1875,
            "durationTicks": 144,
            "midi": 55,
            "name": "G3",
            "ticks": 52128,
            "time": 67.875,
            "velocity": 0.5511811023622047
          },
          {
            "duration": 0.1875,
            "durationTicks": 144,
            "midi": 52,
            "name": "E3",
            "ticks": 52128,
            "time": 67.875,
            "velocity": 0.5511811023622047
          },
          {
            "duration": 0.1875,
            "durationTicks": 144,
            "midi": 60,
            "name": "C4",
            "ticks": 52128,
            "time": 67.875,
            "velocity": 0.5511811023622047
          },
          {
            "duration": 0.1875,
            "durationTicks": 144,
            "midi": 36,
            "name": "C2",
            "ticks": 52128,
            "time": 67.875,
            "velocity": 0.5511811023622047
          },
          {
            "duration": 0.1875,
            "durationTicks": 144,
            "midi": 40,
            "name": "E2",
            "ticks": 52128,
            "time": 67.875,
            "velocity": 0.5511811023622047
          },
          {
            "duration": 0.1875,
            "durationTicks": 144,
            "midi": 40,
            "name": "E2",
            "ticks": 52272,
            "time": 68.0625,
            "velocity": 0.5511811023622047
          },
          {
            "duration": 0.1875,
            "durationTicks": 144,
            "midi": 36,
            "name": "C2",
            "ticks": 52272,
            "time": 68.0625,
            "velocity": 0.5511811023622047
          },
          {
            "duration": 0.1875,
            "durationTicks": 144,
            "midi": 52,
            "name": "E3",
            "ticks": 52272,
            "time": 68.0625,
            "velocity": 0.5511811023622047
          },
          {
            "duration": 0.1875,
            "durationTicks": 144,
            "midi": 48,
            "name": "C3",
            "ticks": 52272,
            "time": 68.0625,
            "velocity": 0.5511811023622047
          },
          {
            "duration": 0.1875,
            "durationTicks": 144,
            "midi": 55,
            "name": "G3",
            "ticks": 52272,
            "time": 68.0625,
            "velocity": 0.5511811023622047
          },
          {
            "duration": 0.1875,
            "durationTicks": 144,
            "midi": 60,
            "name": "C4",
            "ticks": 52272,
            "time": 68.0625,
            "velocity": 0.5511811023622047
          },
          {
            "duration": 0.1875,
            "durationTicks": 144,
            "midi": 43,
            "name": "G2",
            "ticks": 52272,
            "time": 68.0625,
            "velocity": 0.5511811023622047
          },
          {
            "duration": 0.1875,
            "durationTicks": 144,
            "midi": 36,
            "name": "C2",
            "ticks": 52560,
            "time": 68.4375,
            "velocity": 0.5511811023622047
          },
          {
            "duration": 0.1875,
            "durationTicks": 144,
            "midi": 43,
            "name": "G2",
            "ticks": 52560,
            "time": 68.4375,
            "velocity": 0.5511811023622047
          },
          {
            "duration": 0.1875,
            "durationTicks": 144,
            "midi": 40,
            "name": "E2",
            "ticks": 52560,
            "time": 68.4375,
            "velocity": 0.5511811023622047
          },
          {
            "duration": 0.1875,
            "durationTicks": 144,
            "midi": 52,
            "name": "E3",
            "ticks": 52560,
            "time": 68.4375,
            "velocity": 0.5511811023622047
          },
          {
            "duration": 0.1875,
            "durationTicks": 144,
            "midi": 55,
            "name": "G3",
            "ticks": 52560,
            "time": 68.4375,
            "velocity": 0.5511811023622047
          },
          {
            "duration": 0.1875,
            "durationTicks": 144,
            "midi": 48,
            "name": "C3",
            "ticks": 52560,
            "time": 68.4375,
            "velocity": 0.5511811023622047
          },
          {
            "duration": 0.1875,
            "durationTicks": 144,
            "midi": 60,
            "name": "C4",
            "ticks": 52560,
            "time": 68.4375,
            "velocity": 0.5511811023622047
          },
          {
            "duration": 0.1875,
            "durationTicks": 144,
            "midi": 60,
            "name": "C4",
            "ticks": 52704,
            "time": 68.625,
            "velocity": 0.5511811023622047
          },
          {
            "duration": 0.1875,
            "durationTicks": 144,
            "midi": 52,
            "name": "E3",
            "ticks": 52704,
            "time": 68.625,
            "velocity": 0.5511811023622047
          },
          {
            "duration": 0.1875,
            "durationTicks": 144,
            "midi": 43,
            "name": "G2",
            "ticks": 52704,
            "time": 68.625,
            "velocity": 0.5511811023622047
          },
          {
            "duration": 0.1875,
            "durationTicks": 144,
            "midi": 55,
            "name": "G3",
            "ticks": 52704,
            "time": 68.625,
            "velocity": 0.5511811023622047
          },
          {
            "duration": 0.1875,
            "durationTicks": 144,
            "midi": 40,
            "name": "E2",
            "ticks": 52704,
            "time": 68.625,
            "velocity": 0.5511811023622047
          },
          {
            "duration": 0.1875,
            "durationTicks": 144,
            "midi": 36,
            "name": "C2",
            "ticks": 52704,
            "time": 68.625,
            "velocity": 0.5511811023622047
          },
          {
            "duration": 0.1875,
            "durationTicks": 144,
            "midi": 48,
            "name": "C3",
            "ticks": 52704,
            "time": 68.625,
            "velocity": 0.5511811023622047
          },
          {
            "duration": 0.1875,
            "durationTicks": 144,
            "midi": 40,
            "name": "E2",
            "ticks": 52848,
            "time": 68.8125,
            "velocity": 0.5511811023622047
          },
          {
            "duration": 0.1875,
            "durationTicks": 144,
            "midi": 55,
            "name": "G3",
            "ticks": 52848,
            "time": 68.8125,
            "velocity": 0.5511811023622047
          },
          {
            "duration": 0.1875,
            "durationTicks": 144,
            "midi": 52,
            "name": "E3",
            "ticks": 52848,
            "time": 68.8125,
            "velocity": 0.5511811023622047
          },
          {
            "duration": 0.1875,
            "durationTicks": 144,
            "midi": 48,
            "name": "C3",
            "ticks": 52848,
            "time": 68.8125,
            "velocity": 0.5511811023622047
          },
          {
            "duration": 0.1875,
            "durationTicks": 144,
            "midi": 36,
            "name": "C2",
            "ticks": 52848,
            "time": 68.8125,
            "velocity": 0.5511811023622047
          },
          {
            "duration": 0.1875,
            "durationTicks": 144,
            "midi": 43,
            "name": "G2",
            "ticks": 52848,
            "time": 68.8125,
            "velocity": 0.5511811023622047
          },
          {
            "duration": 0.1875,
            "durationTicks": 144,
            "midi": 60,
            "name": "C4",
            "ticks": 52848,
            "time": 68.8125,
            "velocity": 0.5511811023622047
          },
          {
            "duration": 0.1875,
            "durationTicks": 144,
            "midi": 48,
            "name": "C3",
            "ticks": 52992,
            "time": 69,
            "velocity": 0.5511811023622047
          },
          {
            "duration": 0.1875,
            "durationTicks": 144,
            "midi": 60,
            "name": "C4",
            "ticks": 52992,
            "time": 69,
            "velocity": 0.5511811023622047
          },
          {
            "duration": 0.1875,
            "durationTicks": 144,
            "midi": 36,
            "name": "C2",
            "ticks": 52992,
            "time": 69,
            "velocity": 0.5511811023622047
          },
          {
            "duration": 0.1875,
            "durationTicks": 144,
            "midi": 40,
            "name": "E2",
            "ticks": 52992,
            "time": 69,
            "velocity": 0.5511811023622047
          },
          {
            "duration": 0.1875,
            "durationTicks": 144,
            "midi": 43,
            "name": "G2",
            "ticks": 52992,
            "time": 69,
            "velocity": 0.5511811023622047
          },
          {
            "duration": 0.1875,
            "durationTicks": 144,
            "midi": 55,
            "name": "G3",
            "ticks": 52992,
            "time": 69,
            "velocity": 0.5511811023622047
          },
          {
            "duration": 0.1875,
            "durationTicks": 144,
            "midi": 52,
            "name": "E3",
            "ticks": 52992,
            "time": 69,
            "velocity": 0.5511811023622047
          },
          {
            "duration": 0.1875,
            "durationTicks": 144,
            "midi": 43,
            "name": "G2",
            "ticks": 53280,
            "time": 69.375,
            "velocity": 0.5511811023622047
          },
          {
            "duration": 0.1875,
            "durationTicks": 144,
            "midi": 48,
            "name": "C3",
            "ticks": 53280,
            "time": 69.375,
            "velocity": 0.5511811023622047
          },
          {
            "duration": 0.1875,
            "durationTicks": 144,
            "midi": 36,
            "name": "C2",
            "ticks": 53280,
            "time": 69.375,
            "velocity": 0.5511811023622047
          },
          {
            "duration": 0.1875,
            "durationTicks": 144,
            "midi": 40,
            "name": "E2",
            "ticks": 53280,
            "time": 69.375,
            "velocity": 0.5511811023622047
          },
          {
            "duration": 0.1875,
            "durationTicks": 144,
            "midi": 55,
            "name": "G3",
            "ticks": 53280,
            "time": 69.375,
            "velocity": 0.5511811023622047
          },
          {
            "duration": 0.1875,
            "durationTicks": 144,
            "midi": 52,
            "name": "E3",
            "ticks": 53280,
            "time": 69.375,
            "velocity": 0.5511811023622047
          },
          {
            "duration": 0.1875,
            "durationTicks": 144,
            "midi": 60,
            "name": "C4",
            "ticks": 53280,
            "time": 69.375,
            "velocity": 0.5511811023622047
          },
          {
            "duration": 0.1875,
            "durationTicks": 144,
            "midi": 60,
            "name": "C4",
            "ticks": 53424,
            "time": 69.5625,
            "velocity": 0.5511811023622047
          },
          {
            "duration": 0.1875,
            "durationTicks": 144,
            "midi": 55,
            "name": "G3",
            "ticks": 53424,
            "time": 69.5625,
            "velocity": 0.5511811023622047
          },
          {
            "duration": 0.1875,
            "durationTicks": 144,
            "midi": 36,
            "name": "C2",
            "ticks": 53424,
            "time": 69.5625,
            "velocity": 0.5511811023622047
          },
          {
            "duration": 0.1875,
            "durationTicks": 144,
            "midi": 43,
            "name": "G2",
            "ticks": 53424,
            "time": 69.5625,
            "velocity": 0.5511811023622047
          },
          {
            "duration": 0.1875,
            "durationTicks": 144,
            "midi": 40,
            "name": "E2",
            "ticks": 53424,
            "time": 69.5625,
            "velocity": 0.5511811023622047
          },
          {
            "duration": 0.1875,
            "durationTicks": 144,
            "midi": 48,
            "name": "C3",
            "ticks": 53424,
            "time": 69.5625,
            "velocity": 0.5511811023622047
          },
          {
            "duration": 0.1875,
            "durationTicks": 144,
            "midi": 52,
            "name": "E3",
            "ticks": 53424,
            "time": 69.5625,
            "velocity": 0.5511811023622047
          },
          {
            "duration": 0.1875,
            "durationTicks": 144,
            "midi": 60,
            "name": "C4",
            "ticks": 53712,
            "time": 69.9375,
            "velocity": 0.5511811023622047
          },
          {
            "duration": 0.1875,
            "durationTicks": 144,
            "midi": 48,
            "name": "C3",
            "ticks": 53712,
            "time": 69.9375,
            "velocity": 0.5511811023622047
          },
          {
            "duration": 0.1875,
            "durationTicks": 144,
            "midi": 52,
            "name": "E3",
            "ticks": 53712,
            "time": 69.9375,
            "velocity": 0.5511811023622047
          },
          {
            "duration": 0.1875,
            "durationTicks": 144,
            "midi": 36,
            "name": "C2",
            "ticks": 53712,
            "time": 69.9375,
            "velocity": 0.5511811023622047
          },
          {
            "duration": 0.1875,
            "durationTicks": 144,
            "midi": 43,
            "name": "G2",
            "ticks": 53712,
            "time": 69.9375,
            "velocity": 0.5511811023622047
          },
          {
            "duration": 0.1875,
            "durationTicks": 144,
            "midi": 40,
            "name": "E2",
            "ticks": 53712,
            "time": 69.9375,
            "velocity": 0.5511811023622047
          },
          {
            "duration": 0.1875,
            "durationTicks": 144,
            "midi": 55,
            "name": "G3",
            "ticks": 53712,
            "time": 69.9375,
            "velocity": 0.5511811023622047
          },
          {
            "duration": 0.1875,
            "durationTicks": 144,
            "midi": 60,
            "name": "C4",
            "ticks": 53856,
            "time": 70.125,
            "velocity": 0.5511811023622047
          },
          {
            "duration": 0.1875,
            "durationTicks": 144,
            "midi": 55,
            "name": "G3",
            "ticks": 53856,
            "time": 70.125,
            "velocity": 0.5511811023622047
          },
          {
            "duration": 0.1875,
            "durationTicks": 144,
            "midi": 48,
            "name": "C3",
            "ticks": 53856,
            "time": 70.125,
            "velocity": 0.5511811023622047
          },
          {
            "duration": 0.1875,
            "durationTicks": 144,
            "midi": 36,
            "name": "C2",
            "ticks": 53856,
            "time": 70.125,
            "velocity": 0.5511811023622047
          },
          {
            "duration": 0.1875,
            "durationTicks": 144,
            "midi": 40,
            "name": "E2",
            "ticks": 53856,
            "time": 70.125,
            "velocity": 0.5511811023622047
          },
          {
            "duration": 0.1875,
            "durationTicks": 144,
            "midi": 43,
            "name": "G2",
            "ticks": 53856,
            "time": 70.125,
            "velocity": 0.5511811023622047
          },
          {
            "duration": 0.1875,
            "durationTicks": 144,
            "midi": 52,
            "name": "E3",
            "ticks": 53856,
            "time": 70.125,
            "velocity": 0.5511811023622047
          },
          {
            "duration": 0.1875,
            "durationTicks": 144,
            "midi": 52,
            "name": "E3",
            "ticks": 54000,
            "time": 70.3125,
            "velocity": 0.5511811023622047
          },
          {
            "duration": 0.1875,
            "durationTicks": 144,
            "midi": 43,
            "name": "G2",
            "ticks": 54000,
            "time": 70.3125,
            "velocity": 0.5511811023622047
          },
          {
            "duration": 0.1875,
            "durationTicks": 144,
            "midi": 40,
            "name": "E2",
            "ticks": 54000,
            "time": 70.3125,
            "velocity": 0.5511811023622047
          },
          {
            "duration": 0.1875,
            "durationTicks": 144,
            "midi": 48,
            "name": "C3",
            "ticks": 54000,
            "time": 70.3125,
            "velocity": 0.5511811023622047
          },
          {
            "duration": 0.1875,
            "durationTicks": 144,
            "midi": 55,
            "name": "G3",
            "ticks": 54000,
            "time": 70.3125,
            "velocity": 0.5511811023622047
          },
          {
            "duration": 0.1875,
            "durationTicks": 144,
            "midi": 60,
            "name": "C4",
            "ticks": 54000,
            "time": 70.3125,
            "velocity": 0.5511811023622047
          },
          {
            "duration": 0.1875,
            "durationTicks": 144,
            "midi": 36,
            "name": "C2",
            "ticks": 54000,
            "time": 70.3125,
            "velocity": 0.5511811023622047
          },
          {
            "duration": 0.1875,
            "durationTicks": 144,
            "midi": 42,
            "name": "F#2",
            "ticks": 54144,
            "time": 70.5,
            "velocity": 0.5511811023622047
          },
          {
            "duration": 0.1875,
            "durationTicks": 144,
            "midi": 38,
            "name": "D2",
            "ticks": 54144,
            "time": 70.5,
            "velocity": 0.5511811023622047
          },
          {
            "duration": 0.1875,
            "durationTicks": 144,
            "midi": 50,
            "name": "D3",
            "ticks": 54144,
            "time": 70.5,
            "velocity": 0.5511811023622047
          },
          {
            "duration": 0.1875,
            "durationTicks": 144,
            "midi": 62,
            "name": "D4",
            "ticks": 54144,
            "time": 70.5,
            "velocity": 0.5511811023622047
          },
          {
            "duration": 0.1875,
            "durationTicks": 144,
            "midi": 57,
            "name": "A3",
            "ticks": 54144,
            "time": 70.5,
            "velocity": 0.5511811023622047
          },
          {
            "duration": 0.1875,
            "durationTicks": 144,
            "midi": 54,
            "name": "F#3",
            "ticks": 54144,
            "time": 70.5,
            "velocity": 0.5511811023622047
          },
          {
            "duration": 0.1875,
            "durationTicks": 144,
            "midi": 45,
            "name": "A2",
            "ticks": 54144,
            "time": 70.5,
            "velocity": 0.5511811023622047
          },
          {
            "duration": 0.1875,
            "durationTicks": 144,
            "midi": 42,
            "name": "F#2",
            "ticks": 54432,
            "time": 70.875,
            "velocity": 0.5511811023622047
          },
          {
            "duration": 0.1875,
            "durationTicks": 144,
            "midi": 45,
            "name": "A2",
            "ticks": 54432,
            "time": 70.875,
            "velocity": 0.5511811023622047
          },
          {
            "duration": 0.1875,
            "durationTicks": 144,
            "midi": 38,
            "name": "D2",
            "ticks": 54432,
            "time": 70.875,
            "velocity": 0.5511811023622047
          },
          {
            "duration": 0.1875,
            "durationTicks": 144,
            "midi": 57,
            "name": "A3",
            "ticks": 54432,
            "time": 70.875,
            "velocity": 0.5511811023622047
          },
          {
            "duration": 0.1875,
            "durationTicks": 144,
            "midi": 50,
            "name": "D3",
            "ticks": 54432,
            "time": 70.875,
            "velocity": 0.5511811023622047
          },
          {
            "duration": 0.1875,
            "durationTicks": 144,
            "midi": 62,
            "name": "D4",
            "ticks": 54432,
            "time": 70.875,
            "velocity": 0.5511811023622047
          },
          {
            "duration": 0.1875,
            "durationTicks": 144,
            "midi": 54,
            "name": "F#3",
            "ticks": 54432,
            "time": 70.875,
            "velocity": 0.5511811023622047
          },
          {
            "duration": 0.1875,
            "durationTicks": 144,
            "midi": 40,
            "name": "E2",
            "ticks": 54720,
            "time": 71.25,
            "velocity": 0.5511811023622047
          },
          {
            "duration": 0.1875,
            "durationTicks": 144,
            "midi": 59,
            "name": "B3",
            "ticks": 54720,
            "time": 71.25,
            "velocity": 0.5511811023622047
          },
          {
            "duration": 0.1875,
            "durationTicks": 144,
            "midi": 44,
            "name": "G#2",
            "ticks": 54720,
            "time": 71.25,
            "velocity": 0.5511811023622047
          },
          {
            "duration": 0.1875,
            "durationTicks": 144,
            "midi": 47,
            "name": "B2",
            "ticks": 54720,
            "time": 71.25,
            "velocity": 0.5511811023622047
          },
          {
            "duration": 0.1875,
            "durationTicks": 144,
            "midi": 64,
            "name": "E4",
            "ticks": 54720,
            "time": 71.25,
            "velocity": 0.5511811023622047
          },
          {
            "duration": 0.1875,
            "durationTicks": 144,
            "midi": 56,
            "name": "G#3",
            "ticks": 54720,
            "time": 71.25,
            "velocity": 0.5511811023622047
          },
          {
            "duration": 0.1875,
            "durationTicks": 144,
            "midi": 52,
            "name": "E3",
            "ticks": 54720,
            "time": 71.25,
            "velocity": 0.5511811023622047
          },
          {
            "duration": 0.1875,
            "durationTicks": 144,
            "midi": 52,
            "name": "E3",
            "ticks": 55008,
            "time": 71.625,
            "velocity": 0.5511811023622047
          },
          {
            "duration": 0.1875,
            "durationTicks": 144,
            "midi": 56,
            "name": "G#3",
            "ticks": 55008,
            "time": 71.625,
            "velocity": 0.5511811023622047
          },
          {
            "duration": 0.1875,
            "durationTicks": 144,
            "midi": 59,
            "name": "B3",
            "ticks": 55008,
            "time": 71.625,
            "velocity": 0.5511811023622047
          },
          {
            "duration": 0.1875,
            "durationTicks": 144,
            "midi": 40,
            "name": "E2",
            "ticks": 55008,
            "time": 71.625,
            "velocity": 0.5511811023622047
          },
          {
            "duration": 0.1875,
            "durationTicks": 144,
            "midi": 64,
            "name": "E4",
            "ticks": 55008,
            "time": 71.625,
            "velocity": 0.5511811023622047
          },
          {
            "duration": 0.1875,
            "durationTicks": 144,
            "midi": 47,
            "name": "B2",
            "ticks": 55008,
            "time": 71.625,
            "velocity": 0.5511811023622047
          },
          {
            "duration": 0.1875,
            "durationTicks": 144,
            "midi": 44,
            "name": "G#2",
            "ticks": 55008,
            "time": 71.625,
            "velocity": 0.5511811023622047
          },
          {
            "duration": 0.1875,
            "durationTicks": 144,
            "midi": 56,
            "name": "G#3",
            "ticks": 55152,
            "time": 71.8125,
            "velocity": 0.5511811023622047
          },
          {
            "duration": 0.1875,
            "durationTicks": 144,
            "midi": 44,
            "name": "G#2",
            "ticks": 55152,
            "time": 71.8125,
            "velocity": 0.5511811023622047
          },
          {
            "duration": 0.1875,
            "durationTicks": 144,
            "midi": 59,
            "name": "B3",
            "ticks": 55152,
            "time": 71.8125,
            "velocity": 0.5511811023622047
          },
          {
            "duration": 0.1875,
            "durationTicks": 144,
            "midi": 64,
            "name": "E4",
            "ticks": 55152,
            "time": 71.8125,
            "velocity": 0.5511811023622047
          },
          {
            "duration": 0.1875,
            "durationTicks": 144,
            "midi": 40,
            "name": "E2",
            "ticks": 55152,
            "time": 71.8125,
            "velocity": 0.5511811023622047
          },
          {
            "duration": 0.1875,
            "durationTicks": 144,
            "midi": 47,
            "name": "B2",
            "ticks": 55152,
            "time": 71.8125,
            "velocity": 0.5511811023622047
          },
          {
            "duration": 0.1875,
            "durationTicks": 144,
            "midi": 52,
            "name": "E3",
            "ticks": 55152,
            "time": 71.8125,
            "velocity": 0.5511811023622047
          },
          {
            "duration": 0.1875,
            "durationTicks": 144,
            "midi": 52,
            "name": "E3",
            "ticks": 55440,
            "time": 72.1875,
            "velocity": 0.5511811023622047
          },
          {
            "duration": 0.1875,
            "durationTicks": 144,
            "midi": 56,
            "name": "G#3",
            "ticks": 55440,
            "time": 72.1875,
            "velocity": 0.5511811023622047
          },
          {
            "duration": 0.1875,
            "durationTicks": 144,
            "midi": 64,
            "name": "E4",
            "ticks": 55440,
            "time": 72.1875,
            "velocity": 0.5511811023622047
          },
          {
            "duration": 0.1875,
            "durationTicks": 144,
            "midi": 40,
            "name": "E2",
            "ticks": 55440,
            "time": 72.1875,
            "velocity": 0.5511811023622047
          },
          {
            "duration": 0.1875,
            "durationTicks": 144,
            "midi": 47,
            "name": "B2",
            "ticks": 55440,
            "time": 72.1875,
            "velocity": 0.5511811023622047
          },
          {
            "duration": 0.1875,
            "durationTicks": 144,
            "midi": 59,
            "name": "B3",
            "ticks": 55440,
            "time": 72.1875,
            "velocity": 0.5511811023622047
          },
          {
            "duration": 0.1875,
            "durationTicks": 144,
            "midi": 44,
            "name": "G#2",
            "ticks": 55440,
            "time": 72.1875,
            "velocity": 0.5511811023622047
          },
          {
            "duration": 0.1875,
            "durationTicks": 144,
            "midi": 40,
            "name": "E2",
            "ticks": 55584,
            "time": 72.375,
            "velocity": 0.5511811023622047
          },
          {
            "duration": 0.1875,
            "durationTicks": 144,
            "midi": 56,
            "name": "G#3",
            "ticks": 55584,
            "time": 72.375,
            "velocity": 0.5511811023622047
          },
          {
            "duration": 0.1875,
            "durationTicks": 144,
            "midi": 59,
            "name": "B3",
            "ticks": 55584,
            "time": 72.375,
            "velocity": 0.5511811023622047
          },
          {
            "duration": 0.1875,
            "durationTicks": 144,
            "midi": 47,
            "name": "B2",
            "ticks": 55584,
            "time": 72.375,
            "velocity": 0.5511811023622047
          },
          {
            "duration": 0.1875,
            "durationTicks": 144,
            "midi": 64,
            "name": "E4",
            "ticks": 55584,
            "time": 72.375,
            "velocity": 0.5511811023622047
          },
          {
            "duration": 0.1875,
            "durationTicks": 144,
            "midi": 52,
            "name": "E3",
            "ticks": 55584,
            "time": 72.375,
            "velocity": 0.5511811023622047
          },
          {
            "duration": 0.1875,
            "durationTicks": 144,
            "midi": 44,
            "name": "G#2",
            "ticks": 55584,
            "time": 72.375,
            "velocity": 0.5511811023622047
          },
          {
            "duration": 0.1875,
            "durationTicks": 144,
            "midi": 64,
            "name": "E4",
            "ticks": 55728,
            "time": 72.5625,
            "velocity": 0.5511811023622047
          },
          {
            "duration": 0.1875,
            "durationTicks": 144,
            "midi": 59,
            "name": "B3",
            "ticks": 55728,
            "time": 72.5625,
            "velocity": 0.5511811023622047
          },
          {
            "duration": 0.1875,
            "durationTicks": 144,
            "midi": 52,
            "name": "E3",
            "ticks": 55728,
            "time": 72.5625,
            "velocity": 0.5511811023622047
          },
          {
            "duration": 0.1875,
            "durationTicks": 144,
            "midi": 40,
            "name": "E2",
            "ticks": 55728,
            "time": 72.5625,
            "velocity": 0.5511811023622047
          },
          {
            "duration": 0.1875,
            "durationTicks": 144,
            "midi": 56,
            "name": "G#3",
            "ticks": 55728,
            "time": 72.5625,
            "velocity": 0.5511811023622047
          },
          {
            "duration": 0.1875,
            "durationTicks": 144,
            "midi": 44,
            "name": "G#2",
            "ticks": 55728,
            "time": 72.5625,
            "velocity": 0.5511811023622047
          },
          {
            "duration": 0.1875,
            "durationTicks": 144,
            "midi": 47,
            "name": "B2",
            "ticks": 55728,
            "time": 72.5625,
            "velocity": 0.5511811023622047
          },
          {
            "duration": 0.1875,
            "durationTicks": 144,
            "midi": 56,
            "name": "G#3",
            "ticks": 55872,
            "time": 72.75,
            "velocity": 0.5511811023622047
          },
          {
            "duration": 0.1875,
            "durationTicks": 144,
            "midi": 40,
            "name": "E2",
            "ticks": 55872,
            "time": 72.75,
            "velocity": 0.5511811023622047
          },
          {
            "duration": 0.1875,
            "durationTicks": 144,
            "midi": 64,
            "name": "E4",
            "ticks": 55872,
            "time": 72.75,
            "velocity": 0.5511811023622047
          },
          {
            "duration": 0.1875,
            "durationTicks": 144,
            "midi": 44,
            "name": "G#2",
            "ticks": 55872,
            "time": 72.75,
            "velocity": 0.5511811023622047
          },
          {
            "duration": 0.1875,
            "durationTicks": 144,
            "midi": 59,
            "name": "B3",
            "ticks": 55872,
            "time": 72.75,
            "velocity": 0.5511811023622047
          },
          {
            "duration": 0.1875,
            "durationTicks": 144,
            "midi": 52,
            "name": "E3",
            "ticks": 55872,
            "time": 72.75,
            "velocity": 0.5511811023622047
          },
          {
            "duration": 0.1875,
            "durationTicks": 144,
            "midi": 47,
            "name": "B2",
            "ticks": 55872,
            "time": 72.75,
            "velocity": 0.5511811023622047
          },
          {
            "duration": 0.1875,
            "durationTicks": 144,
            "midi": 59,
            "name": "B3",
            "ticks": 56160,
            "time": 73.125,
            "velocity": 0.5511811023622047
          },
          {
            "duration": 0.1875,
            "durationTicks": 144,
            "midi": 56,
            "name": "G#3",
            "ticks": 56160,
            "time": 73.125,
            "velocity": 0.5511811023622047
          },
          {
            "duration": 0.1875,
            "durationTicks": 144,
            "midi": 64,
            "name": "E4",
            "ticks": 56160,
            "time": 73.125,
            "velocity": 0.5511811023622047
          },
          {
            "duration": 0.1875,
            "durationTicks": 144,
            "midi": 40,
            "name": "E2",
            "ticks": 56160,
            "time": 73.125,
            "velocity": 0.5511811023622047
          },
          {
            "duration": 0.1875,
            "durationTicks": 144,
            "midi": 47,
            "name": "B2",
            "ticks": 56160,
            "time": 73.125,
            "velocity": 0.5511811023622047
          },
          {
            "duration": 0.1875,
            "durationTicks": 144,
            "midi": 44,
            "name": "G#2",
            "ticks": 56160,
            "time": 73.125,
            "velocity": 0.5511811023622047
          },
          {
            "duration": 0.1875,
            "durationTicks": 144,
            "midi": 52,
            "name": "E3",
            "ticks": 56160,
            "time": 73.125,
            "velocity": 0.5511811023622047
          },
          {
            "duration": 0.1875,
            "durationTicks": 144,
            "midi": 40,
            "name": "E2",
            "ticks": 56304,
            "time": 73.3125,
            "velocity": 0.5511811023622047
          },
          {
            "duration": 0.1875,
            "durationTicks": 144,
            "midi": 44,
            "name": "G#2",
            "ticks": 56304,
            "time": 73.3125,
            "velocity": 0.5511811023622047
          },
          {
            "duration": 0.1875,
            "durationTicks": 144,
            "midi": 64,
            "name": "E4",
            "ticks": 56304,
            "time": 73.3125,
            "velocity": 0.5511811023622047
          },
          {
            "duration": 0.1875,
            "durationTicks": 144,
            "midi": 56,
            "name": "G#3",
            "ticks": 56304,
            "time": 73.3125,
            "velocity": 0.5511811023622047
          },
          {
            "duration": 0.1875,
            "durationTicks": 144,
            "midi": 59,
            "name": "B3",
            "ticks": 56304,
            "time": 73.3125,
            "velocity": 0.5511811023622047
          },
          {
            "duration": 0.1875,
            "durationTicks": 144,
            "midi": 52,
            "name": "E3",
            "ticks": 56304,
            "time": 73.3125,
            "velocity": 0.5511811023622047
          },
          {
            "duration": 0.1875,
            "durationTicks": 144,
            "midi": 47,
            "name": "B2",
            "ticks": 56304,
            "time": 73.3125,
            "velocity": 0.5511811023622047
          },
          {
            "duration": 0.1875,
            "durationTicks": 144,
            "midi": 56,
            "name": "G#3",
            "ticks": 56592,
            "time": 73.6875,
            "velocity": 0.5511811023622047
          },
          {
            "duration": 0.1875,
            "durationTicks": 144,
            "midi": 40,
            "name": "E2",
            "ticks": 56592,
            "time": 73.6875,
            "velocity": 0.5511811023622047
          },
          {
            "duration": 0.1875,
            "durationTicks": 144,
            "midi": 44,
            "name": "G#2",
            "ticks": 56592,
            "time": 73.6875,
            "velocity": 0.5511811023622047
          },
          {
            "duration": 0.1875,
            "durationTicks": 144,
            "midi": 52,
            "name": "E3",
            "ticks": 56592,
            "time": 73.6875,
            "velocity": 0.5511811023622047
          },
          {
            "duration": 0.1875,
            "durationTicks": 144,
            "midi": 59,
            "name": "B3",
            "ticks": 56592,
            "time": 73.6875,
            "velocity": 0.5511811023622047
          },
          {
            "duration": 0.1875,
            "durationTicks": 144,
            "midi": 64,
            "name": "E4",
            "ticks": 56592,
            "time": 73.6875,
            "velocity": 0.5511811023622047
          },
          {
            "duration": 0.1875,
            "durationTicks": 144,
            "midi": 47,
            "name": "B2",
            "ticks": 56592,
            "time": 73.6875,
            "velocity": 0.5511811023622047
          },
          {
            "duration": 0.1875,
            "durationTicks": 144,
            "midi": 59,
            "name": "B3",
            "ticks": 56736,
            "time": 73.875,
            "velocity": 0.5511811023622047
          },
          {
            "duration": 0.1875,
            "durationTicks": 144,
            "midi": 47,
            "name": "B2",
            "ticks": 56736,
            "time": 73.875,
            "velocity": 0.5511811023622047
          },
          {
            "duration": 0.1875,
            "durationTicks": 144,
            "midi": 40,
            "name": "E2",
            "ticks": 56736,
            "time": 73.875,
            "velocity": 0.5511811023622047
          },
          {
            "duration": 0.1875,
            "durationTicks": 144,
            "midi": 56,
            "name": "G#3",
            "ticks": 56736,
            "time": 73.875,
            "velocity": 0.5511811023622047
          },
          {
            "duration": 0.1875,
            "durationTicks": 144,
            "midi": 52,
            "name": "E3",
            "ticks": 56736,
            "time": 73.875,
            "velocity": 0.5511811023622047
          },
          {
            "duration": 0.1875,
            "durationTicks": 144,
            "midi": 64,
            "name": "E4",
            "ticks": 56736,
            "time": 73.875,
            "velocity": 0.5511811023622047
          },
          {
            "duration": 0.1875,
            "durationTicks": 144,
            "midi": 44,
            "name": "G#2",
            "ticks": 56736,
            "time": 73.875,
            "velocity": 0.5511811023622047
          },
          {
            "duration": 0.1875,
            "durationTicks": 144,
            "midi": 47,
            "name": "B2",
            "ticks": 56880,
            "time": 74.0625,
            "velocity": 0.5511811023622047
          },
          {
            "duration": 0.1875,
            "durationTicks": 144,
            "midi": 56,
            "name": "G#3",
            "ticks": 56880,
            "time": 74.0625,
            "velocity": 0.5511811023622047
          },
          {
            "duration": 0.1875,
            "durationTicks": 144,
            "midi": 59,
            "name": "B3",
            "ticks": 56880,
            "time": 74.0625,
            "velocity": 0.5511811023622047
          },
          {
            "duration": 0.1875,
            "durationTicks": 144,
            "midi": 44,
            "name": "G#2",
            "ticks": 56880,
            "time": 74.0625,
            "velocity": 0.5511811023622047
          },
          {
            "duration": 0.1875,
            "durationTicks": 144,
            "midi": 40,
            "name": "E2",
            "ticks": 56880,
            "time": 74.0625,
            "velocity": 0.5511811023622047
          },
          {
            "duration": 0.1875,
            "durationTicks": 144,
            "midi": 64,
            "name": "E4",
            "ticks": 56880,
            "time": 74.0625,
            "velocity": 0.5511811023622047
          },
          {
            "duration": 0.1875,
            "durationTicks": 144,
            "midi": 52,
            "name": "E3",
            "ticks": 56880,
            "time": 74.0625,
            "velocity": 0.5511811023622047
          },
          {
            "duration": 0.1875,
            "durationTicks": 144,
            "midi": 43,
            "name": "G2",
            "ticks": 57024,
            "time": 74.25,
            "velocity": 0.5511811023622047
          },
          {
            "duration": 0.1875,
            "durationTicks": 144,
            "midi": 47,
            "name": "B2",
            "ticks": 57024,
            "time": 74.25,
            "velocity": 0.5511811023622047
          },
          {
            "duration": 0.1875,
            "durationTicks": 144,
            "midi": 55,
            "name": "G3",
            "ticks": 57024,
            "time": 74.25,
            "velocity": 0.5511811023622047
          },
          {
            "duration": 0.1875,
            "durationTicks": 144,
            "midi": 62,
            "name": "D4",
            "ticks": 57024,
            "time": 74.25,
            "velocity": 0.5511811023622047
          },
          {
            "duration": 0.1875,
            "durationTicks": 144,
            "midi": 59,
            "name": "B3",
            "ticks": 57024,
            "time": 74.25,
            "velocity": 0.5511811023622047
          },
          {
            "duration": 0.1875,
            "durationTicks": 144,
            "midi": 67,
            "name": "G4",
            "ticks": 57024,
            "time": 74.25,
            "velocity": 0.5511811023622047
          },
          {
            "duration": 0.1875,
            "durationTicks": 144,
            "midi": 50,
            "name": "D3",
            "ticks": 57024,
            "time": 74.25,
            "velocity": 0.5511811023622047
          },
          {
            "duration": 0.1875,
            "durationTicks": 144,
            "midi": 59,
            "name": "B3",
            "ticks": 57312,
            "time": 74.625,
            "velocity": 0.5511811023622047
          },
          {
            "duration": 0.1875,
            "durationTicks": 144,
            "midi": 67,
            "name": "G4",
            "ticks": 57312,
            "time": 74.625,
            "velocity": 0.5511811023622047
          },
          {
            "duration": 0.1875,
            "durationTicks": 144,
            "midi": 50,
            "name": "D3",
            "ticks": 57312,
            "time": 74.625,
            "velocity": 0.5511811023622047
          },
          {
            "duration": 0.1875,
            "durationTicks": 144,
            "midi": 55,
            "name": "G3",
            "ticks": 57312,
            "time": 74.625,
            "velocity": 0.5511811023622047
          },
          {
            "duration": 0.1875,
            "durationTicks": 144,
            "midi": 43,
            "name": "G2",
            "ticks": 57312,
            "time": 74.625,
            "velocity": 0.5511811023622047
          },
          {
            "duration": 0.1875,
            "durationTicks": 144,
            "midi": 62,
            "name": "D4",
            "ticks": 57312,
            "time": 74.625,
            "velocity": 0.5511811023622047
          },
          {
            "duration": 0.1875,
            "durationTicks": 144,
            "midi": 47,
            "name": "B2",
            "ticks": 57312,
            "time": 74.625,
            "velocity": 0.5511811023622047
          },
          {
            "duration": 0.1875,
            "durationTicks": 144,
            "midi": 67,
            "name": "G4",
            "ticks": 57456,
            "time": 74.8125,
            "velocity": 0.5511811023622047
          },
          {
            "duration": 0.1875,
            "durationTicks": 144,
            "midi": 62,
            "name": "D4",
            "ticks": 57456,
            "time": 74.8125,
            "velocity": 0.5511811023622047
          },
          {
            "duration": 0.1875,
            "durationTicks": 144,
            "midi": 47,
            "name": "B2",
            "ticks": 57456,
            "time": 74.8125,
            "velocity": 0.5511811023622047
          },
          {
            "duration": 0.1875,
            "durationTicks": 144,
            "midi": 59,
            "name": "B3",
            "ticks": 57456,
            "time": 74.8125,
            "velocity": 0.5511811023622047
          },
          {
            "duration": 0.1875,
            "durationTicks": 144,
            "midi": 43,
            "name": "G2",
            "ticks": 57456,
            "time": 74.8125,
            "velocity": 0.5511811023622047
          },
          {
            "duration": 0.1875,
            "durationTicks": 144,
            "midi": 50,
            "name": "D3",
            "ticks": 57456,
            "time": 74.8125,
            "velocity": 0.5511811023622047
          },
          {
            "duration": 0.1875,
            "durationTicks": 144,
            "midi": 55,
            "name": "G3",
            "ticks": 57456,
            "time": 74.8125,
            "velocity": 0.5511811023622047
          },
          {
            "duration": 0.1875,
            "durationTicks": 144,
            "midi": 55,
            "name": "G3",
            "ticks": 57744,
            "time": 75.1875,
            "velocity": 0.5511811023622047
          },
          {
            "duration": 0.1875,
            "durationTicks": 144,
            "midi": 67,
            "name": "G4",
            "ticks": 57744,
            "time": 75.1875,
            "velocity": 0.5511811023622047
          },
          {
            "duration": 0.1875,
            "durationTicks": 144,
            "midi": 59,
            "name": "B3",
            "ticks": 57744,
            "time": 75.1875,
            "velocity": 0.5511811023622047
          },
          {
            "duration": 0.1875,
            "durationTicks": 144,
            "midi": 47,
            "name": "B2",
            "ticks": 57744,
            "time": 75.1875,
            "velocity": 0.5511811023622047
          },
          {
            "duration": 0.1875,
            "durationTicks": 144,
            "midi": 62,
            "name": "D4",
            "ticks": 57744,
            "time": 75.1875,
            "velocity": 0.5511811023622047
          },
          {
            "duration": 0.1875,
            "durationTicks": 144,
            "midi": 43,
            "name": "G2",
            "ticks": 57744,
            "time": 75.1875,
            "velocity": 0.5511811023622047
          },
          {
            "duration": 0.1875,
            "durationTicks": 144,
            "midi": 50,
            "name": "D3",
            "ticks": 57744,
            "time": 75.1875,
            "velocity": 0.5511811023622047
          },
          {
            "duration": 0.1875,
            "durationTicks": 144,
            "midi": 50,
            "name": "D3",
            "ticks": 57888,
            "time": 75.375,
            "velocity": 0.5511811023622047
          },
          {
            "duration": 0.1875,
            "durationTicks": 144,
            "midi": 59,
            "name": "B3",
            "ticks": 57888,
            "time": 75.375,
            "velocity": 0.5511811023622047
          },
          {
            "duration": 0.1875,
            "durationTicks": 144,
            "midi": 55,
            "name": "G3",
            "ticks": 57888,
            "time": 75.375,
            "velocity": 0.5511811023622047
          },
          {
            "duration": 0.1875,
            "durationTicks": 144,
            "midi": 43,
            "name": "G2",
            "ticks": 57888,
            "time": 75.375,
            "velocity": 0.5511811023622047
          },
          {
            "duration": 0.1875,
            "durationTicks": 144,
            "midi": 67,
            "name": "G4",
            "ticks": 57888,
            "time": 75.375,
            "velocity": 0.5511811023622047
          },
          {
            "duration": 0.1875,
            "durationTicks": 144,
            "midi": 62,
            "name": "D4",
            "ticks": 57888,
            "time": 75.375,
            "velocity": 0.5511811023622047
          },
          {
            "duration": 0.1875,
            "durationTicks": 144,
            "midi": 47,
            "name": "B2",
            "ticks": 57888,
            "time": 75.375,
            "velocity": 0.5511811023622047
          },
          {
            "duration": 0.1875,
            "durationTicks": 144,
            "midi": 55,
            "name": "G3",
            "ticks": 58032,
            "time": 75.5625,
            "velocity": 0.5511811023622047
          },
          {
            "duration": 0.1875,
            "durationTicks": 144,
            "midi": 43,
            "name": "G2",
            "ticks": 58032,
            "time": 75.5625,
            "velocity": 0.5511811023622047
          },
          {
            "duration": 0.1875,
            "durationTicks": 144,
            "midi": 62,
            "name": "D4",
            "ticks": 58032,
            "time": 75.5625,
            "velocity": 0.5511811023622047
          },
          {
            "duration": 0.1875,
            "durationTicks": 144,
            "midi": 59,
            "name": "B3",
            "ticks": 58032,
            "time": 75.5625,
            "velocity": 0.5511811023622047
          },
          {
            "duration": 0.1875,
            "durationTicks": 144,
            "midi": 47,
            "name": "B2",
            "ticks": 58032,
            "time": 75.5625,
            "velocity": 0.5511811023622047
          },
          {
            "duration": 0.1875,
            "durationTicks": 144,
            "midi": 67,
            "name": "G4",
            "ticks": 58032,
            "time": 75.5625,
            "velocity": 0.5511811023622047
          },
          {
            "duration": 0.1875,
            "durationTicks": 144,
            "midi": 50,
            "name": "D3",
            "ticks": 58032,
            "time": 75.5625,
            "velocity": 0.5511811023622047
          },
          {
            "duration": 0.1875,
            "durationTicks": 144,
            "midi": 43,
            "name": "G2",
            "ticks": 58176,
            "time": 75.75,
            "velocity": 0.5511811023622047
          },
          {
            "duration": 0.1875,
            "durationTicks": 144,
            "midi": 60,
            "name": "C4",
            "ticks": 58176,
            "time": 75.75,
            "velocity": 0.5511811023622047
          },
          {
            "duration": 0.1875,
            "durationTicks": 144,
            "midi": 55,
            "name": "G3",
            "ticks": 58176,
            "time": 75.75,
            "velocity": 0.5511811023622047
          },
          {
            "duration": 0.1875,
            "durationTicks": 144,
            "midi": 36,
            "name": "C2",
            "ticks": 58176,
            "time": 75.75,
            "velocity": 0.5511811023622047
          },
          {
            "duration": 0.1875,
            "durationTicks": 144,
            "midi": 48,
            "name": "C3",
            "ticks": 58176,
            "time": 75.75,
            "velocity": 0.5511811023622047
          },
          {
            "duration": 0.1875,
            "durationTicks": 144,
            "midi": 40,
            "name": "E2",
            "ticks": 58176,
            "time": 75.75,
            "velocity": 0.5511811023622047
          },
          {
            "duration": 0.1875,
            "durationTicks": 144,
            "midi": 52,
            "name": "E3",
            "ticks": 58176,
            "time": 75.75,
            "velocity": 0.5511811023622047
          },
          {
            "duration": 0.1875,
            "durationTicks": 144,
            "midi": 40,
            "name": "E2",
            "ticks": 58464,
            "time": 76.125,
            "velocity": 0.5511811023622047
          },
          {
            "duration": 0.1875,
            "durationTicks": 144,
            "midi": 43,
            "name": "G2",
            "ticks": 58464,
            "time": 76.125,
            "velocity": 0.5511811023622047
          },
          {
            "duration": 0.1875,
            "durationTicks": 144,
            "midi": 60,
            "name": "C4",
            "ticks": 58464,
            "time": 76.125,
            "velocity": 0.5511811023622047
          },
          {
            "duration": 0.1875,
            "durationTicks": 144,
            "midi": 48,
            "name": "C3",
            "ticks": 58464,
            "time": 76.125,
            "velocity": 0.5511811023622047
          },
          {
            "duration": 0.1875,
            "durationTicks": 144,
            "midi": 52,
            "name": "E3",
            "ticks": 58464,
            "time": 76.125,
            "velocity": 0.5511811023622047
          },
          {
            "duration": 0.1875,
            "durationTicks": 144,
            "midi": 55,
            "name": "G3",
            "ticks": 58464,
            "time": 76.125,
            "velocity": 0.5511811023622047
          },
          {
            "duration": 0.1875,
            "durationTicks": 144,
            "midi": 36,
            "name": "C2",
            "ticks": 58464,
            "time": 76.125,
            "velocity": 0.5511811023622047
          },
          {
            "duration": 0.1875,
            "durationTicks": 144,
            "midi": 48,
            "name": "C3",
            "ticks": 58608,
            "time": 76.3125,
            "velocity": 0.5511811023622047
          },
          {
            "duration": 0.1875,
            "durationTicks": 144,
            "midi": 55,
            "name": "G3",
            "ticks": 58608,
            "time": 76.3125,
            "velocity": 0.5511811023622047
          },
          {
            "duration": 0.1875,
            "durationTicks": 144,
            "midi": 36,
            "name": "C2",
            "ticks": 58608,
            "time": 76.3125,
            "velocity": 0.5511811023622047
          },
          {
            "duration": 0.1875,
            "durationTicks": 144,
            "midi": 52,
            "name": "E3",
            "ticks": 58608,
            "time": 76.3125,
            "velocity": 0.5511811023622047
          },
          {
            "duration": 0.1875,
            "durationTicks": 144,
            "midi": 60,
            "name": "C4",
            "ticks": 58608,
            "time": 76.3125,
            "velocity": 0.5511811023622047
          },
          {
            "duration": 0.1875,
            "durationTicks": 144,
            "midi": 43,
            "name": "G2",
            "ticks": 58608,
            "time": 76.3125,
            "velocity": 0.5511811023622047
          },
          {
            "duration": 0.1875,
            "durationTicks": 144,
            "midi": 40,
            "name": "E2",
            "ticks": 58608,
            "time": 76.3125,
            "velocity": 0.5511811023622047
          },
          {
            "duration": 0.1875,
            "durationTicks": 144,
            "midi": 48,
            "name": "C3",
            "ticks": 58896,
            "time": 76.6875,
            "velocity": 0.5511811023622047
          },
          {
            "duration": 0.1875,
            "durationTicks": 144,
            "midi": 60,
            "name": "C4",
            "ticks": 58896,
            "time": 76.6875,
            "velocity": 0.5511811023622047
          },
          {
            "duration": 0.1875,
            "durationTicks": 144,
            "midi": 40,
            "name": "E2",
            "ticks": 58896,
            "time": 76.6875,
            "velocity": 0.5511811023622047
          },
          {
            "duration": 0.1875,
            "durationTicks": 144,
            "midi": 43,
            "name": "G2",
            "ticks": 58896,
            "time": 76.6875,
            "velocity": 0.5511811023622047
          },
          {
            "duration": 0.1875,
            "durationTicks": 144,
            "midi": 36,
            "name": "C2",
            "ticks": 58896,
            "time": 76.6875,
            "velocity": 0.5511811023622047
          },
          {
            "duration": 0.1875,
            "durationTicks": 144,
            "midi": 55,
            "name": "G3",
            "ticks": 58896,
            "time": 76.6875,
            "velocity": 0.5511811023622047
          },
          {
            "duration": 0.1875,
            "durationTicks": 144,
            "midi": 52,
            "name": "E3",
            "ticks": 58896,
            "time": 76.6875,
            "velocity": 0.5511811023622047
          },
          {
            "duration": 0.1875,
            "durationTicks": 144,
            "midi": 55,
            "name": "G3",
            "ticks": 59040,
            "time": 76.875,
            "velocity": 0.5511811023622047
          },
          {
            "duration": 0.1875,
            "durationTicks": 144,
            "midi": 48,
            "name": "C3",
            "ticks": 59040,
            "time": 76.875,
            "velocity": 0.5511811023622047
          },
          {
            "duration": 0.1875,
            "durationTicks": 144,
            "midi": 36,
            "name": "C2",
            "ticks": 59040,
            "time": 76.875,
            "velocity": 0.5511811023622047
          },
          {
            "duration": 0.1875,
            "durationTicks": 144,
            "midi": 52,
            "name": "E3",
            "ticks": 59040,
            "time": 76.875,
            "velocity": 0.5511811023622047
          },
          {
            "duration": 0.1875,
            "durationTicks": 144,
            "midi": 40,
            "name": "E2",
            "ticks": 59040,
            "time": 76.875,
            "velocity": 0.5511811023622047
          },
          {
            "duration": 0.1875,
            "durationTicks": 144,
            "midi": 43,
            "name": "G2",
            "ticks": 59040,
            "time": 76.875,
            "velocity": 0.5511811023622047
          },
          {
            "duration": 0.1875,
            "durationTicks": 144,
            "midi": 60,
            "name": "C4",
            "ticks": 59040,
            "time": 76.875,
            "velocity": 0.5511811023622047
          },
          {
            "duration": 0.1875,
            "durationTicks": 144,
            "midi": 60,
            "name": "C4",
            "ticks": 59184,
            "time": 77.0625,
            "velocity": 0.5511811023622047
          },
          {
            "duration": 0.1875,
            "durationTicks": 144,
            "midi": 36,
            "name": "C2",
            "ticks": 59184,
            "time": 77.0625,
            "velocity": 0.5511811023622047
          },
          {
            "duration": 0.1875,
            "durationTicks": 144,
            "midi": 55,
            "name": "G3",
            "ticks": 59184,
            "time": 77.0625,
            "velocity": 0.5511811023622047
          },
          {
            "duration": 0.1875,
            "durationTicks": 144,
            "midi": 40,
            "name": "E2",
            "ticks": 59184,
            "time": 77.0625,
            "velocity": 0.5511811023622047
          },
          {
            "duration": 0.1875,
            "durationTicks": 144,
            "midi": 43,
            "name": "G2",
            "ticks": 59184,
            "time": 77.0625,
            "velocity": 0.5511811023622047
          },
          {
            "duration": 0.1875,
            "durationTicks": 144,
            "midi": 48,
            "name": "C3",
            "ticks": 59184,
            "time": 77.0625,
            "velocity": 0.5511811023622047
          },
          {
            "duration": 0.1875,
            "durationTicks": 144,
            "midi": 52,
            "name": "E3",
            "ticks": 59184,
            "time": 77.0625,
            "velocity": 0.5511811023622047
          },
          {
            "duration": 0.1875,
            "durationTicks": 144,
            "midi": 48,
            "name": "C3",
            "ticks": 59328,
            "time": 77.25,
            "velocity": 0.5511811023622047
          },
          {
            "duration": 0.1875,
            "durationTicks": 144,
            "midi": 40,
            "name": "E2",
            "ticks": 59328,
            "time": 77.25,
            "velocity": 0.5511811023622047
          },
          {
            "duration": 0.1875,
            "durationTicks": 144,
            "midi": 43,
            "name": "G2",
            "ticks": 59328,
            "time": 77.25,
            "velocity": 0.5511811023622047
          },
          {
            "duration": 0.1875,
            "durationTicks": 144,
            "midi": 52,
            "name": "E3",
            "ticks": 59328,
            "time": 77.25,
            "velocity": 0.5511811023622047
          },
          {
            "duration": 0.1875,
            "durationTicks": 144,
            "midi": 36,
            "name": "C2",
            "ticks": 59328,
            "time": 77.25,
            "velocity": 0.5511811023622047
          },
          {
            "duration": 0.1875,
            "durationTicks": 144,
            "midi": 48,
            "name": "C3",
            "ticks": 59328,
            "time": 77.25,
            "velocity": 0.5511811023622047
          },
          {
            "duration": 0.1875,
            "durationTicks": 144,
            "midi": 60,
            "name": "C4",
            "ticks": 59328,
            "time": 77.25,
            "velocity": 0.5511811023622047
          },
          {
            "duration": 0.1875,
            "durationTicks": 144,
            "midi": 55,
            "name": "G3",
            "ticks": 59328,
            "time": 77.25,
            "velocity": 0.5511811023622047
          },
          {
            "duration": 0.1875,
            "durationTicks": 144,
            "midi": 52,
            "name": "E3",
            "ticks": 59616,
            "time": 77.625,
            "velocity": 0.5511811023622047
          },
          {
            "duration": 0.1875,
            "durationTicks": 144,
            "midi": 60,
            "name": "C4",
            "ticks": 59616,
            "time": 77.625,
            "velocity": 0.5511811023622047
          },
          {
            "duration": 0.1875,
            "durationTicks": 144,
            "midi": 48,
            "name": "C3",
            "ticks": 59616,
            "time": 77.625,
            "velocity": 0.5511811023622047
          },
          {
            "duration": 0.1875,
            "durationTicks": 144,
            "midi": 43,
            "name": "G2",
            "ticks": 59616,
            "time": 77.625,
            "velocity": 0.5511811023622047
          },
          {
            "duration": 0.1875,
            "durationTicks": 144,
            "midi": 40,
            "name": "E2",
            "ticks": 59616,
            "time": 77.625,
            "velocity": 0.5511811023622047
          },
          {
            "duration": 0.1875,
            "durationTicks": 144,
            "midi": 36,
            "name": "C2",
            "ticks": 59616,
            "time": 77.625,
            "velocity": 0.5511811023622047
          },
          {
            "duration": 0.1875,
            "durationTicks": 144,
            "midi": 55,
            "name": "G3",
            "ticks": 59616,
            "time": 77.625,
            "velocity": 0.5511811023622047
          },
          {
            "duration": 0.1875,
            "durationTicks": 144,
            "midi": 48,
            "name": "C3",
            "ticks": 59616,
            "time": 77.625,
            "velocity": 0.5511811023622047
          },
          {
            "duration": 0.1875,
            "durationTicks": 144,
            "midi": 40,
            "name": "E2",
            "ticks": 59760,
            "time": 77.8125,
            "velocity": 0.5511811023622047
          },
          {
            "duration": 0.1875,
            "durationTicks": 144,
            "midi": 55,
            "name": "G3",
            "ticks": 59760,
            "time": 77.8125,
            "velocity": 0.5511811023622047
          },
          {
            "duration": 0.1875,
            "durationTicks": 144,
            "midi": 52,
            "name": "E3",
            "ticks": 59760,
            "time": 77.8125,
            "velocity": 0.5511811023622047
          },
          {
            "duration": 0.1875,
            "durationTicks": 144,
            "midi": 60,
            "name": "C4",
            "ticks": 59760,
            "time": 77.8125,
            "velocity": 0.5511811023622047
          },
          {
            "duration": 0.1875,
            "durationTicks": 144,
            "midi": 43,
            "name": "G2",
            "ticks": 59760,
            "time": 77.8125,
            "velocity": 0.5511811023622047
          },
          {
            "duration": 0.1875,
            "durationTicks": 144,
            "midi": 48,
            "name": "C3",
            "ticks": 59760,
            "time": 77.8125,
            "velocity": 0.5511811023622047
          },
          {
            "duration": 0.1875,
            "durationTicks": 144,
            "midi": 36,
            "name": "C2",
            "ticks": 59760,
            "time": 77.8125,
            "velocity": 0.5511811023622047
          },
          {
            "duration": 0.1875,
            "durationTicks": 144,
            "midi": 60,
            "name": "C4",
            "ticks": 60048,
            "time": 78.1875,
            "velocity": 0.5511811023622047
          },
          {
            "duration": 0.1875,
            "durationTicks": 144,
            "midi": 55,
            "name": "G3",
            "ticks": 60048,
            "time": 78.1875,
            "velocity": 0.5511811023622047
          },
          {
            "duration": 0.1875,
            "durationTicks": 144,
            "midi": 48,
            "name": "C3",
            "ticks": 60048,
            "time": 78.1875,
            "velocity": 0.5511811023622047
          },
          {
            "duration": 0.1875,
            "durationTicks": 144,
            "midi": 52,
            "name": "E3",
            "ticks": 60048,
            "time": 78.1875,
            "velocity": 0.5511811023622047
          },
          {
            "duration": 0.1875,
            "durationTicks": 144,
            "midi": 40,
            "name": "E2",
            "ticks": 60048,
            "time": 78.1875,
            "velocity": 0.5511811023622047
          },
          {
            "duration": 0.1875,
            "durationTicks": 144,
            "midi": 43,
            "name": "G2",
            "ticks": 60048,
            "time": 78.1875,
            "velocity": 0.5511811023622047
          },
          {
            "duration": 0.1875,
            "durationTicks": 144,
            "midi": 36,
            "name": "C2",
            "ticks": 60048,
            "time": 78.1875,
            "velocity": 0.5511811023622047
          },
          {
            "duration": 0.1875,
            "durationTicks": 144,
            "midi": 36,
            "name": "C2",
            "ticks": 60192,
            "time": 78.375,
            "velocity": 0.5511811023622047
          },
          {
            "duration": 0.1875,
            "durationTicks": 144,
            "midi": 40,
            "name": "E2",
            "ticks": 60192,
            "time": 78.375,
            "velocity": 0.5511811023622047
          },
          {
            "duration": 0.1875,
            "durationTicks": 144,
            "midi": 60,
            "name": "C4",
            "ticks": 60192,
            "time": 78.375,
            "velocity": 0.5511811023622047
          },
          {
            "duration": 0.1875,
            "durationTicks": 144,
            "midi": 48,
            "name": "C3",
            "ticks": 60192,
            "time": 78.375,
            "velocity": 0.5511811023622047
          },
          {
            "duration": 0.1875,
            "durationTicks": 144,
            "midi": 48,
            "name": "C3",
            "ticks": 60192,
            "time": 78.375,
            "velocity": 0.5511811023622047
          },
          {
            "duration": 0.1875,
            "durationTicks": 144,
            "midi": 52,
            "name": "E3",
            "ticks": 60192,
            "time": 78.375,
            "velocity": 0.5511811023622047
          },
          {
            "duration": 0.1875,
            "durationTicks": 144,
            "midi": 55,
            "name": "G3",
            "ticks": 60192,
            "time": 78.375,
            "velocity": 0.5511811023622047
          },
          {
            "duration": 0.1875,
            "durationTicks": 144,
            "midi": 43,
            "name": "G2",
            "ticks": 60192,
            "time": 78.375,
            "velocity": 0.5511811023622047
          },
          {
            "duration": 0.1875,
            "durationTicks": 144,
            "midi": 36,
            "name": "C2",
            "ticks": 60336,
            "time": 78.5625,
            "velocity": 0.5511811023622047
          },
          {
            "duration": 0.1875,
            "durationTicks": 144,
            "midi": 60,
            "name": "C4",
            "ticks": 60336,
            "time": 78.5625,
            "velocity": 0.5511811023622047
          },
          {
            "duration": 0.1875,
            "durationTicks": 144,
            "midi": 40,
            "name": "E2",
            "ticks": 60336,
            "time": 78.5625,
            "velocity": 0.5511811023622047
          },
          {
            "duration": 0.1875,
            "durationTicks": 144,
            "midi": 43,
            "name": "G2",
            "ticks": 60336,
            "time": 78.5625,
            "velocity": 0.5511811023622047
          },
          {
            "duration": 0.1875,
            "durationTicks": 144,
            "midi": 48,
            "name": "C3",
            "ticks": 60336,
            "time": 78.5625,
            "velocity": 0.5511811023622047
          },
          {
            "duration": 0.1875,
            "durationTicks": 144,
            "midi": 52,
            "name": "E3",
            "ticks": 60336,
            "time": 78.5625,
            "velocity": 0.5511811023622047
          },
          {
            "duration": 0.1875,
            "durationTicks": 144,
            "midi": 55,
            "name": "G3",
            "ticks": 60336,
            "time": 78.5625,
            "velocity": 0.5511811023622047
          },
          {
            "duration": 0.1875,
            "durationTicks": 144,
            "midi": 57,
            "name": "A3",
            "ticks": 60480,
            "time": 78.75,
            "velocity": 0.5511811023622047
          },
          {
            "duration": 0.1875,
            "durationTicks": 144,
            "midi": 50,
            "name": "D3",
            "ticks": 60480,
            "time": 78.75,
            "velocity": 0.5511811023622047
          },
          {
            "duration": 0.1875,
            "durationTicks": 144,
            "midi": 62,
            "name": "D4",
            "ticks": 60480,
            "time": 78.75,
            "velocity": 0.5511811023622047
          },
          {
            "duration": 0.1875,
            "durationTicks": 144,
            "midi": 45,
            "name": "A2",
            "ticks": 60480,
            "time": 78.75,
            "velocity": 0.5511811023622047
          },
          {
            "duration": 0.1875,
            "durationTicks": 144,
            "midi": 42,
            "name": "F#2",
            "ticks": 60480,
            "time": 78.75,
            "velocity": 0.5511811023622047
          },
          {
            "duration": 0.1875,
            "durationTicks": 144,
            "midi": 54,
            "name": "F#3",
            "ticks": 60480,
            "time": 78.75,
            "velocity": 0.5511811023622047
          },
          {
            "duration": 0.1875,
            "durationTicks": 144,
            "midi": 50,
            "name": "D3",
            "ticks": 60480,
            "time": 78.75,
            "velocity": 0.5511811023622047
          },
          {
            "duration": 0.1875,
            "durationTicks": 144,
            "midi": 38,
            "name": "D2",
            "ticks": 60480,
            "time": 78.75,
            "velocity": 0.5511811023622047
          },
          {
            "duration": 0.1875,
            "durationTicks": 144,
            "midi": 42,
            "name": "F#2",
            "ticks": 60768,
            "time": 79.125,
            "velocity": 0.5511811023622047
          },
          {
            "duration": 0.1875,
            "durationTicks": 144,
            "midi": 54,
            "name": "F#3",
            "ticks": 60768,
            "time": 79.125,
            "velocity": 0.5511811023622047
          },
          {
            "duration": 0.1875,
            "durationTicks": 144,
            "midi": 45,
            "name": "A2",
            "ticks": 60768,
            "time": 79.125,
            "velocity": 0.5511811023622047
          },
          {
            "duration": 0.1875,
            "durationTicks": 144,
            "midi": 50,
            "name": "D3",
            "ticks": 60768,
            "time": 79.125,
            "velocity": 0.5511811023622047
          },
          {
            "duration": 0.1875,
            "durationTicks": 144,
            "midi": 38,
            "name": "D2",
            "ticks": 60768,
            "time": 79.125,
            "velocity": 0.5511811023622047
          },
          {
            "duration": 0.1875,
            "durationTicks": 144,
            "midi": 62,
            "name": "D4",
            "ticks": 60768,
            "time": 79.125,
            "velocity": 0.5511811023622047
          },
          {
            "duration": 0.1875,
            "durationTicks": 144,
            "midi": 57,
            "name": "A3",
            "ticks": 60768,
            "time": 79.125,
            "velocity": 0.5511811023622047
          },
          {
            "duration": 0.1875,
            "durationTicks": 144,
            "midi": 64,
            "name": "E4",
            "ticks": 61056,
            "time": 79.5,
            "velocity": 0.5511811023622047
          },
          {
            "duration": 0.1875,
            "durationTicks": 144,
            "midi": 47,
            "name": "B2",
            "ticks": 61056,
            "time": 79.5,
            "velocity": 0.5511811023622047
          },
          {
            "duration": 0.1875,
            "durationTicks": 144,
            "midi": 44,
            "name": "G#2",
            "ticks": 61056,
            "time": 79.5,
            "velocity": 0.5511811023622047
          },
          {
            "duration": 0.1875,
            "durationTicks": 144,
            "midi": 52,
            "name": "E3",
            "ticks": 61056,
            "time": 79.5,
            "velocity": 0.5511811023622047
          },
          {
            "duration": 0.1875,
            "durationTicks": 144,
            "midi": 40,
            "name": "E2",
            "ticks": 61056,
            "time": 79.5,
            "velocity": 0.5511811023622047
          },
          {
            "duration": 0.1875,
            "durationTicks": 144,
            "midi": 47,
            "name": "B2",
            "ticks": 61056,
            "time": 79.5,
            "velocity": 0.5511811023622047
          },
          {
            "duration": 0.1875,
            "durationTicks": 144,
            "midi": 59,
            "name": "B3",
            "ticks": 61056,
            "time": 79.5,
            "velocity": 0.5511811023622047
          },
          {
            "duration": 0.1875,
            "durationTicks": 144,
            "midi": 56,
            "name": "G#3",
            "ticks": 61056,
            "time": 79.5,
            "velocity": 0.5511811023622047
          },
          {
            "duration": 0.1875,
            "durationTicks": 144,
            "midi": 59,
            "name": "B3",
            "ticks": 61344,
            "time": 79.875,
            "velocity": 0.5511811023622047
          },
          {
            "duration": 0.1875,
            "durationTicks": 144,
            "midi": 47,
            "name": "B2",
            "ticks": 61344,
            "time": 79.875,
            "velocity": 0.5511811023622047
          },
          {
            "duration": 0.1875,
            "durationTicks": 144,
            "midi": 52,
            "name": "E3",
            "ticks": 61344,
            "time": 79.875,
            "velocity": 0.5511811023622047
          },
          {
            "duration": 0.1875,
            "durationTicks": 144,
            "midi": 40,
            "name": "E2",
            "ticks": 61344,
            "time": 79.875,
            "velocity": 0.5511811023622047
          },
          {
            "duration": 0.1875,
            "durationTicks": 144,
            "midi": 56,
            "name": "G#3",
            "ticks": 61344,
            "time": 79.875,
            "velocity": 0.5511811023622047
          },
          {
            "duration": 0.1875,
            "durationTicks": 144,
            "midi": 64,
            "name": "E4",
            "ticks": 61344,
            "time": 79.875,
            "velocity": 0.5511811023622047
          },
          {
            "duration": 0.1875,
            "durationTicks": 144,
            "midi": 44,
            "name": "G#2",
            "ticks": 61344,
            "time": 79.875,
            "velocity": 0.5511811023622047
          },
          {
            "duration": 0.1875,
            "durationTicks": 144,
            "midi": 44,
            "name": "G#2",
            "ticks": 61488,
            "time": 80.0625,
            "velocity": 0.5511811023622047
          },
          {
            "duration": 0.1875,
            "durationTicks": 144,
            "midi": 40,
            "name": "E2",
            "ticks": 61488,
            "time": 80.0625,
            "velocity": 0.5511811023622047
          },
          {
            "duration": 0.1875,
            "durationTicks": 144,
            "midi": 47,
            "name": "B2",
            "ticks": 61488,
            "time": 80.0625,
            "velocity": 0.5511811023622047
          },
          {
            "duration": 0.1875,
            "durationTicks": 144,
            "midi": 47,
            "name": "B2",
            "ticks": 61488,
            "time": 80.0625,
            "velocity": 0.5511811023622047
          },
          {
            "duration": 0.1875,
            "durationTicks": 144,
            "midi": 56,
            "name": "G#3",
            "ticks": 61488,
            "time": 80.0625,
            "velocity": 0.5511811023622047
          },
          {
            "duration": 0.1875,
            "durationTicks": 144,
            "midi": 52,
            "name": "E3",
            "ticks": 61488,
            "time": 80.0625,
            "velocity": 0.5511811023622047
          },
          {
            "duration": 0.1875,
            "durationTicks": 144,
            "midi": 64,
            "name": "E4",
            "ticks": 61488,
            "time": 80.0625,
            "velocity": 0.5511811023622047
          },
          {
            "duration": 0.1875,
            "durationTicks": 144,
            "midi": 59,
            "name": "B3",
            "ticks": 61488,
            "time": 80.0625,
            "velocity": 0.5511811023622047
          },
          {
            "duration": 0.1875,
            "durationTicks": 144,
            "midi": 44,
            "name": "G#2",
            "ticks": 61776,
            "time": 80.4375,
            "velocity": 0.5511811023622047
          },
          {
            "duration": 0.1875,
            "durationTicks": 144,
            "midi": 64,
            "name": "E4",
            "ticks": 61776,
            "time": 80.4375,
            "velocity": 0.5511811023622047
          },
          {
            "duration": 0.1875,
            "durationTicks": 144,
            "midi": 47,
            "name": "B2",
            "ticks": 61776,
            "time": 80.4375,
            "velocity": 0.5511811023622047
          },
          {
            "duration": 0.1875,
            "durationTicks": 144,
            "midi": 59,
            "name": "B3",
            "ticks": 61776,
            "time": 80.4375,
            "velocity": 0.5511811023622047
          },
          {
            "duration": 0.1875,
            "durationTicks": 144,
            "midi": 40,
            "name": "E2",
            "ticks": 61776,
            "time": 80.4375,
            "velocity": 0.5511811023622047
          },
          {
            "duration": 0.1875,
            "durationTicks": 144,
            "midi": 52,
            "name": "E3",
            "ticks": 61776,
            "time": 80.4375,
            "velocity": 0.5511811023622047
          },
          {
            "duration": 0.1875,
            "durationTicks": 144,
            "midi": 56,
            "name": "G#3",
            "ticks": 61776,
            "time": 80.4375,
            "velocity": 0.5511811023622047
          },
          {
            "duration": 0.1875,
            "durationTicks": 144,
            "midi": 59,
            "name": "B3",
            "ticks": 61920,
            "time": 80.625,
            "velocity": 0.5511811023622047
          },
          {
            "duration": 0.1875,
            "durationTicks": 144,
            "midi": 64,
            "name": "E4",
            "ticks": 61920,
            "time": 80.625,
            "velocity": 0.5511811023622047
          },
          {
            "duration": 0.1875,
            "durationTicks": 144,
            "midi": 56,
            "name": "G#3",
            "ticks": 61920,
            "time": 80.625,
            "velocity": 0.5511811023622047
          },
          {
            "duration": 0.1875,
            "durationTicks": 144,
            "midi": 47,
            "name": "B2",
            "ticks": 61920,
            "time": 80.625,
            "velocity": 0.5511811023622047
          },
          {
            "duration": 0.1875,
            "durationTicks": 144,
            "midi": 40,
            "name": "E2",
            "ticks": 61920,
            "time": 80.625,
            "velocity": 0.5511811023622047
          },
          {
            "duration": 0.1875,
            "durationTicks": 144,
            "midi": 44,
            "name": "G#2",
            "ticks": 61920,
            "time": 80.625,
            "velocity": 0.5511811023622047
          },
          {
            "duration": 0.1875,
            "durationTicks": 144,
            "midi": 52,
            "name": "E3",
            "ticks": 61920,
            "time": 80.625,
            "velocity": 0.5511811023622047
          },
          {
            "duration": 0.1875,
            "durationTicks": 144,
            "midi": 64,
            "name": "E4",
            "ticks": 62064,
            "time": 80.8125,
            "velocity": 0.5511811023622047
          },
          {
            "duration": 0.1875,
            "durationTicks": 144,
            "midi": 59,
            "name": "B3",
            "ticks": 62064,
            "time": 80.8125,
            "velocity": 0.5511811023622047
          },
          {
            "duration": 0.1875,
            "durationTicks": 144,
            "midi": 56,
            "name": "G#3",
            "ticks": 62064,
            "time": 80.8125,
            "velocity": 0.5511811023622047
          },
          {
            "duration": 0.1875,
            "durationTicks": 144,
            "midi": 52,
            "name": "E3",
            "ticks": 62064,
            "time": 80.8125,
            "velocity": 0.5511811023622047
          },
          {
            "duration": 0.1875,
            "durationTicks": 144,
            "midi": 40,
            "name": "E2",
            "ticks": 62064,
            "time": 80.8125,
            "velocity": 0.5511811023622047
          },
          {
            "duration": 0.1875,
            "durationTicks": 144,
            "midi": 44,
            "name": "G#2",
            "ticks": 62064,
            "time": 80.8125,
            "velocity": 0.5511811023622047
          },
          {
            "duration": 0.1875,
            "durationTicks": 144,
            "midi": 47,
            "name": "B2",
            "ticks": 62064,
            "time": 80.8125,
            "velocity": 0.5511811023622047
          },
          {
            "duration": 0.1875,
            "durationTicks": 144,
            "midi": 47,
            "name": "B2",
            "ticks": 62064,
            "time": 80.8125,
            "velocity": 0.5511811023622047
          },
          {
            "duration": 0.1875,
            "durationTicks": 144,
            "midi": 56,
            "name": "G#3",
            "ticks": 62208,
            "time": 81,
            "velocity": 0.5511811023622047
          },
          {
            "duration": 0.1875,
            "durationTicks": 144,
            "midi": 59,
            "name": "B3",
            "ticks": 62208,
            "time": 81,
            "velocity": 0.5511811023622047
          },
          {
            "duration": 0.1875,
            "durationTicks": 144,
            "midi": 47,
            "name": "B2",
            "ticks": 62208,
            "time": 81,
            "velocity": 0.5511811023622047
          },
          {
            "duration": 0.1875,
            "durationTicks": 144,
            "midi": 44,
            "name": "G#2",
            "ticks": 62208,
            "time": 81,
            "velocity": 0.5511811023622047
          },
          {
            "duration": 0.1875,
            "durationTicks": 144,
            "midi": 64,
            "name": "E4",
            "ticks": 62208,
            "time": 81,
            "velocity": 0.5511811023622047
          },
          {
            "duration": 0.1875,
            "durationTicks": 144,
            "midi": 40,
            "name": "E2",
            "ticks": 62208,
            "time": 81,
            "velocity": 0.5511811023622047
          },
          {
            "duration": 0.1875,
            "durationTicks": 144,
            "midi": 52,
            "name": "E3",
            "ticks": 62208,
            "time": 81,
            "velocity": 0.5511811023622047
          },
          {
            "duration": 0.1875,
            "durationTicks": 144,
            "midi": 47,
            "name": "B2",
            "ticks": 62496,
            "time": 81.375,
            "velocity": 0.5511811023622047
          },
          {
            "duration": 0.1875,
            "durationTicks": 144,
            "midi": 64,
            "name": "E4",
            "ticks": 62496,
            "time": 81.375,
            "velocity": 0.5511811023622047
          },
          {
            "duration": 0.1875,
            "durationTicks": 144,
            "midi": 40,
            "name": "E2",
            "ticks": 62496,
            "time": 81.375,
            "velocity": 0.5511811023622047
          },
          {
            "duration": 0.1875,
            "durationTicks": 144,
            "midi": 59,
            "name": "B3",
            "ticks": 62496,
            "time": 81.375,
            "velocity": 0.5511811023622047
          },
          {
            "duration": 0.1875,
            "durationTicks": 144,
            "midi": 52,
            "name": "E3",
            "ticks": 62496,
            "time": 81.375,
            "velocity": 0.5511811023622047
          },
          {
            "duration": 0.1875,
            "durationTicks": 144,
            "midi": 56,
            "name": "G#3",
            "ticks": 62496,
            "time": 81.375,
            "velocity": 0.5511811023622047
          },
          {
            "duration": 0.1875,
            "durationTicks": 144,
            "midi": 44,
            "name": "G#2",
            "ticks": 62496,
            "time": 81.375,
            "velocity": 0.5511811023622047
          },
          {
            "duration": 0.1875,
            "durationTicks": 144,
            "midi": 47,
            "name": "B2",
            "ticks": 62640,
            "time": 81.5625,
            "velocity": 0.5511811023622047
          },
          {
            "duration": 0.1875,
            "durationTicks": 144,
            "midi": 56,
            "name": "G#3",
            "ticks": 62640,
            "time": 81.5625,
            "velocity": 0.5511811023622047
          },
          {
            "duration": 0.1875,
            "durationTicks": 144,
            "midi": 44,
            "name": "G#2",
            "ticks": 62640,
            "time": 81.5625,
            "velocity": 0.5511811023622047
          },
          {
            "duration": 0.1875,
            "durationTicks": 144,
            "midi": 59,
            "name": "B3",
            "ticks": 62640,
            "time": 81.5625,
            "velocity": 0.5511811023622047
          },
          {
            "duration": 0.1875,
            "durationTicks": 144,
            "midi": 64,
            "name": "E4",
            "ticks": 62640,
            "time": 81.5625,
            "velocity": 0.5511811023622047
          },
          {
            "duration": 0.1875,
            "durationTicks": 144,
            "midi": 47,
            "name": "B2",
            "ticks": 62640,
            "time": 81.5625,
            "velocity": 0.5511811023622047
          },
          {
            "duration": 0.1875,
            "durationTicks": 144,
            "midi": 40,
            "name": "E2",
            "ticks": 62640,
            "time": 81.5625,
            "velocity": 0.5511811023622047
          },
          {
            "duration": 0.1875,
            "durationTicks": 144,
            "midi": 52,
            "name": "E3",
            "ticks": 62640,
            "time": 81.5625,
            "velocity": 0.5511811023622047
          },
          {
            "duration": 0.1875,
            "durationTicks": 144,
            "midi": 44,
            "name": "G#2",
            "ticks": 62928,
            "time": 81.9375,
            "velocity": 0.5511811023622047
          },
          {
            "duration": 0.1875,
            "durationTicks": 144,
            "midi": 56,
            "name": "G#3",
            "ticks": 62928,
            "time": 81.9375,
            "velocity": 0.5511811023622047
          },
          {
            "duration": 0.1875,
            "durationTicks": 144,
            "midi": 59,
            "name": "B3",
            "ticks": 62928,
            "time": 81.9375,
            "velocity": 0.5511811023622047
          },
          {
            "duration": 0.1875,
            "durationTicks": 144,
            "midi": 64,
            "name": "E4",
            "ticks": 62928,
            "time": 81.9375,
            "velocity": 0.5511811023622047
          },
          {
            "duration": 0.1875,
            "durationTicks": 144,
            "midi": 40,
            "name": "E2",
            "ticks": 62928,
            "time": 81.9375,
            "velocity": 0.5511811023622047
          },
          {
            "duration": 0.1875,
            "durationTicks": 144,
            "midi": 47,
            "name": "B2",
            "ticks": 62928,
            "time": 81.9375,
            "velocity": 0.5511811023622047
          },
          {
            "duration": 0.1875,
            "durationTicks": 144,
            "midi": 52,
            "name": "E3",
            "ticks": 62928,
            "time": 81.9375,
            "velocity": 0.5511811023622047
          },
          {
            "duration": 0.1875,
            "durationTicks": 144,
            "midi": 44,
            "name": "G#2",
            "ticks": 63072,
            "time": 82.125,
            "velocity": 0.5511811023622047
          },
          {
            "duration": 0.1875,
            "durationTicks": 144,
            "midi": 52,
            "name": "E3",
            "ticks": 63072,
            "time": 82.125,
            "velocity": 0.5511811023622047
          },
          {
            "duration": 0.1875,
            "durationTicks": 144,
            "midi": 59,
            "name": "B3",
            "ticks": 63072,
            "time": 82.125,
            "velocity": 0.5511811023622047
          },
          {
            "duration": 0.1875,
            "durationTicks": 144,
            "midi": 47,
            "name": "B2",
            "ticks": 63072,
            "time": 82.125,
            "velocity": 0.5511811023622047
          },
          {
            "duration": 0.1875,
            "durationTicks": 144,
            "midi": 40,
            "name": "E2",
            "ticks": 63072,
            "time": 82.125,
            "velocity": 0.5511811023622047
          },
          {
            "duration": 0.1875,
            "durationTicks": 144,
            "midi": 47,
            "name": "B2",
            "ticks": 63072,
            "time": 82.125,
            "velocity": 0.5511811023622047
          },
          {
            "duration": 0.1875,
            "durationTicks": 144,
            "midi": 64,
            "name": "E4",
            "ticks": 63072,
            "time": 82.125,
            "velocity": 0.5511811023622047
          },
          {
            "duration": 0.1875,
            "durationTicks": 144,
            "midi": 56,
            "name": "G#3",
            "ticks": 63072,
            "time": 82.125,
            "velocity": 0.5511811023622047
          },
          {
            "duration": 0.1875,
            "durationTicks": 144,
            "midi": 59,
            "name": "B3",
            "ticks": 63216,
            "time": 82.3125,
            "velocity": 0.5511811023622047
          },
          {
            "duration": 0.1875,
            "durationTicks": 144,
            "midi": 52,
            "name": "E3",
            "ticks": 63216,
            "time": 82.3125,
            "velocity": 0.5511811023622047
          },
          {
            "duration": 0.1875,
            "durationTicks": 144,
            "midi": 40,
            "name": "E2",
            "ticks": 63216,
            "time": 82.3125,
            "velocity": 0.5511811023622047
          },
          {
            "duration": 0.1875,
            "durationTicks": 144,
            "midi": 56,
            "name": "G#3",
            "ticks": 63216,
            "time": 82.3125,
            "velocity": 0.5511811023622047
          },
          {
            "duration": 0.1875,
            "durationTicks": 144,
            "midi": 44,
            "name": "G#2",
            "ticks": 63216,
            "time": 82.3125,
            "velocity": 0.5511811023622047
          },
          {
            "duration": 0.1875,
            "durationTicks": 144,
            "midi": 64,
            "name": "E4",
            "ticks": 63216,
            "time": 82.3125,
            "velocity": 0.5511811023622047
          },
          {
            "duration": 0.1875,
            "durationTicks": 144,
            "midi": 47,
            "name": "B2",
            "ticks": 63216,
            "time": 82.3125,
            "velocity": 0.5511811023622047
          },
          {
            "duration": 0.1875,
            "durationTicks": 144,
            "midi": 55,
            "name": "G3",
            "ticks": 63360,
            "time": 82.5,
            "velocity": 0.5511811023622047
          },
          {
            "duration": 0.1875,
            "durationTicks": 144,
            "midi": 62,
            "name": "D4",
            "ticks": 63360,
            "time": 82.5,
            "velocity": 0.5511811023622047
          },
          {
            "duration": 0.1875,
            "durationTicks": 144,
            "midi": 59,
            "name": "B3",
            "ticks": 63360,
            "time": 82.5,
            "velocity": 0.5511811023622047
          },
          {
            "duration": 0.1875,
            "durationTicks": 144,
            "midi": 67,
            "name": "G4",
            "ticks": 63360,
            "time": 82.5,
            "velocity": 0.5511811023622047
          },
          {
            "duration": 0.1875,
            "durationTicks": 144,
            "midi": 50,
            "name": "D3",
            "ticks": 63360,
            "time": 82.5,
            "velocity": 0.5511811023622047
          },
          {
            "duration": 0.1875,
            "durationTicks": 144,
            "midi": 47,
            "name": "B2",
            "ticks": 63360,
            "time": 82.5,
            "velocity": 0.5511811023622047
          },
          {
            "duration": 0.1875,
            "durationTicks": 144,
            "midi": 43,
            "name": "G2",
            "ticks": 63360,
            "time": 82.5,
            "velocity": 0.5511811023622047
          },
          {
            "duration": 0.1875,
            "durationTicks": 144,
            "midi": 55,
            "name": "G3",
            "ticks": 63648,
            "time": 82.875,
            "velocity": 0.5511811023622047
          },
          {
            "duration": 0.1875,
            "durationTicks": 144,
            "midi": 47,
            "name": "B2",
            "ticks": 63648,
            "time": 82.875,
            "velocity": 0.5511811023622047
          },
          {
            "duration": 0.1875,
            "durationTicks": 144,
            "midi": 59,
            "name": "B3",
            "ticks": 63648,
            "time": 82.875,
            "velocity": 0.5511811023622047
          },
          {
            "duration": 0.1875,
            "durationTicks": 144,
            "midi": 62,
            "name": "D4",
            "ticks": 63648,
            "time": 82.875,
            "velocity": 0.5511811023622047
          },
          {
            "duration": 0.1875,
            "durationTicks": 144,
            "midi": 67,
            "name": "G4",
            "ticks": 63648,
            "time": 82.875,
            "velocity": 0.5511811023622047
          },
          {
            "duration": 0.1875,
            "durationTicks": 144,
            "midi": 50,
            "name": "D3",
            "ticks": 63648,
            "time": 82.875,
            "velocity": 0.5511811023622047
          },
          {
            "duration": 0.1875,
            "durationTicks": 144,
            "midi": 43,
            "name": "G2",
            "ticks": 63648,
            "time": 82.875,
            "velocity": 0.5511811023622047
          },
          {
            "duration": 0.1875,
            "durationTicks": 144,
            "midi": 62,
            "name": "D4",
            "ticks": 63792,
            "time": 83.0625,
            "velocity": 0.5511811023622047
          },
          {
            "duration": 0.1875,
            "durationTicks": 144,
            "midi": 50,
            "name": "D3",
            "ticks": 63792,
            "time": 83.0625,
            "velocity": 0.5511811023622047
          },
          {
            "duration": 0.1875,
            "durationTicks": 144,
            "midi": 67,
            "name": "G4",
            "ticks": 63792,
            "time": 83.0625,
            "velocity": 0.5511811023622047
          },
          {
            "duration": 0.1875,
            "durationTicks": 144,
            "midi": 55,
            "name": "G3",
            "ticks": 63792,
            "time": 83.0625,
            "velocity": 0.5511811023622047
          },
          {
            "duration": 0.1875,
            "durationTicks": 144,
            "midi": 43,
            "name": "G2",
            "ticks": 63792,
            "time": 83.0625,
            "velocity": 0.5511811023622047
          },
          {
            "duration": 0.1875,
            "durationTicks": 144,
            "midi": 59,
            "name": "B3",
            "ticks": 63792,
            "time": 83.0625,
            "velocity": 0.5511811023622047
          },
          {
            "duration": 0.1875,
            "durationTicks": 144,
            "midi": 47,
            "name": "B2",
            "ticks": 63792,
            "time": 83.0625,
            "velocity": 0.5511811023622047
          },
          {
            "duration": 0.1875,
            "durationTicks": 144,
            "midi": 62,
            "name": "D4",
            "ticks": 64080,
            "time": 83.4375,
            "velocity": 0.5511811023622047
          },
          {
            "duration": 0.1875,
            "durationTicks": 144,
            "midi": 67,
            "name": "G4",
            "ticks": 64080,
            "time": 83.4375,
            "velocity": 0.5511811023622047
          },
          {
            "duration": 0.1875,
            "durationTicks": 144,
            "midi": 47,
            "name": "B2",
            "ticks": 64080,
            "time": 83.4375,
            "velocity": 0.5511811023622047
          },
          {
            "duration": 0.1875,
            "durationTicks": 144,
            "midi": 43,
            "name": "G2",
            "ticks": 64080,
            "time": 83.4375,
            "velocity": 0.5511811023622047
          },
          {
            "duration": 0.1875,
            "durationTicks": 144,
            "midi": 50,
            "name": "D3",
            "ticks": 64080,
            "time": 83.4375,
            "velocity": 0.5511811023622047
          },
          {
            "duration": 0.1875,
            "durationTicks": 144,
            "midi": 59,
            "name": "B3",
            "ticks": 64080,
            "time": 83.4375,
            "velocity": 0.5511811023622047
          },
          {
            "duration": 0.1875,
            "durationTicks": 144,
            "midi": 55,
            "name": "G3",
            "ticks": 64080,
            "time": 83.4375,
            "velocity": 0.5511811023622047
          },
          {
            "duration": 0.1875,
            "durationTicks": 144,
            "midi": 55,
            "name": "G3",
            "ticks": 64224,
            "time": 83.625,
            "velocity": 0.5511811023622047
          },
          {
            "duration": 0.1875,
            "durationTicks": 144,
            "midi": 59,
            "name": "B3",
            "ticks": 64224,
            "time": 83.625,
            "velocity": 0.5511811023622047
          },
          {
            "duration": 0.1875,
            "durationTicks": 144,
            "midi": 62,
            "name": "D4",
            "ticks": 64224,
            "time": 83.625,
            "velocity": 0.5511811023622047
          },
          {
            "duration": 0.1875,
            "durationTicks": 144,
            "midi": 47,
            "name": "B2",
            "ticks": 64224,
            "time": 83.625,
            "velocity": 0.5511811023622047
          },
          {
            "duration": 0.1875,
            "durationTicks": 144,
            "midi": 67,
            "name": "G4",
            "ticks": 64224,
            "time": 83.625,
            "velocity": 0.5511811023622047
          },
          {
            "duration": 0.1875,
            "durationTicks": 144,
            "midi": 50,
            "name": "D3",
            "ticks": 64224,
            "time": 83.625,
            "velocity": 0.5511811023622047
          },
          {
            "duration": 0.1875,
            "durationTicks": 144,
            "midi": 43,
            "name": "G2",
            "ticks": 64224,
            "time": 83.625,
            "velocity": 0.5511811023622047
          },
          {
            "duration": 0.1875,
            "durationTicks": 144,
            "midi": 62,
            "name": "D4",
            "ticks": 64368,
            "time": 83.8125,
            "velocity": 0.5511811023622047
          },
          {
            "duration": 0.1875,
            "durationTicks": 144,
            "midi": 67,
            "name": "G4",
            "ticks": 64368,
            "time": 83.8125,
            "velocity": 0.5511811023622047
          },
          {
            "duration": 0.1875,
            "durationTicks": 144,
            "midi": 50,
            "name": "D3",
            "ticks": 64368,
            "time": 83.8125,
            "velocity": 0.5511811023622047
          },
          {
            "duration": 0.1875,
            "durationTicks": 144,
            "midi": 43,
            "name": "G2",
            "ticks": 64368,
            "time": 83.8125,
            "velocity": 0.5511811023622047
          },
          {
            "duration": 0.1875,
            "durationTicks": 144,
            "midi": 47,
            "name": "B2",
            "ticks": 64368,
            "time": 83.8125,
            "velocity": 0.5511811023622047
          },
          {
            "duration": 0.1875,
            "durationTicks": 144,
            "midi": 59,
            "name": "B3",
            "ticks": 64368,
            "time": 83.8125,
            "velocity": 0.5511811023622047
          },
          {
            "duration": 0.1875,
            "durationTicks": 144,
            "midi": 55,
            "name": "G3",
            "ticks": 64368,
            "time": 83.8125,
            "velocity": 0.5511811023622047
          },
          {
            "duration": 0.1875,
            "durationTicks": 144,
            "midi": 48,
            "name": "C3",
            "ticks": 64512,
            "time": 84,
            "velocity": 0.5511811023622047
          },
          {
            "duration": 0.1875,
            "durationTicks": 144,
            "midi": 55,
            "name": "G3",
            "ticks": 64512,
            "time": 84,
            "velocity": 0.5511811023622047
          },
          {
            "duration": 0.1875,
            "durationTicks": 144,
            "midi": 36,
            "name": "C2",
            "ticks": 64512,
            "time": 84,
            "velocity": 0.5511811023622047
          },
          {
            "duration": 0.1875,
            "durationTicks": 144,
            "midi": 52,
            "name": "E3",
            "ticks": 64512,
            "time": 84,
            "velocity": 0.5511811023622047
          },
          {
            "duration": 0.1875,
            "durationTicks": 144,
            "midi": 40,
            "name": "E2",
            "ticks": 64512,
            "time": 84,
            "velocity": 0.5511811023622047
          },
          {
            "duration": 0.1875,
            "durationTicks": 144,
            "midi": 43,
            "name": "G2",
            "ticks": 64512,
            "time": 84,
            "velocity": 0.5511811023622047
          },
          {
            "duration": 0.1875,
            "durationTicks": 144,
            "midi": 60,
            "name": "C4",
            "ticks": 64512,
            "time": 84,
            "velocity": 0.5511811023622047
          },
          {
            "duration": 0.1875,
            "durationTicks": 144,
            "midi": 60,
            "name": "C4",
            "ticks": 64800,
            "time": 84.375,
            "velocity": 0.5511811023622047
          },
          {
            "duration": 0.1875,
            "durationTicks": 144,
            "midi": 43,
            "name": "G2",
            "ticks": 64800,
            "time": 84.375,
            "velocity": 0.5511811023622047
          },
          {
            "duration": 0.1875,
            "durationTicks": 144,
            "midi": 48,
            "name": "C3",
            "ticks": 64800,
            "time": 84.375,
            "velocity": 0.5511811023622047
          },
          {
            "duration": 0.1875,
            "durationTicks": 144,
            "midi": 55,
            "name": "G3",
            "ticks": 64800,
            "time": 84.375,
            "velocity": 0.5511811023622047
          },
          {
            "duration": 0.1875,
            "durationTicks": 144,
            "midi": 36,
            "name": "C2",
            "ticks": 64800,
            "time": 84.375,
            "velocity": 0.5511811023622047
          },
          {
            "duration": 0.1875,
            "durationTicks": 144,
            "midi": 52,
            "name": "E3",
            "ticks": 64800,
            "time": 84.375,
            "velocity": 0.5511811023622047
          },
          {
            "duration": 0.1875,
            "durationTicks": 144,
            "midi": 40,
            "name": "E2",
            "ticks": 64800,
            "time": 84.375,
            "velocity": 0.5511811023622047
          },
          {
            "duration": 0.1875,
            "durationTicks": 144,
            "midi": 55,
            "name": "G3",
            "ticks": 64944,
            "time": 84.5625,
            "velocity": 0.5511811023622047
          },
          {
            "duration": 0.1875,
            "durationTicks": 144,
            "midi": 43,
            "name": "G2",
            "ticks": 64944,
            "time": 84.5625,
            "velocity": 0.5511811023622047
          },
          {
            "duration": 0.1875,
            "durationTicks": 144,
            "midi": 60,
            "name": "C4",
            "ticks": 64944,
            "time": 84.5625,
            "velocity": 0.5511811023622047
          },
          {
            "duration": 0.1875,
            "durationTicks": 144,
            "midi": 52,
            "name": "E3",
            "ticks": 64944,
            "time": 84.5625,
            "velocity": 0.5511811023622047
          },
          {
            "duration": 0.1875,
            "durationTicks": 144,
            "midi": 40,
            "name": "E2",
            "ticks": 64944,
            "time": 84.5625,
            "velocity": 0.5511811023622047
          },
          {
            "duration": 0.1875,
            "durationTicks": 144,
            "midi": 36,
            "name": "C2",
            "ticks": 64944,
            "time": 84.5625,
            "velocity": 0.5511811023622047
          },
          {
            "duration": 0.1875,
            "durationTicks": 144,
            "midi": 48,
            "name": "C3",
            "ticks": 64944,
            "time": 84.5625,
            "velocity": 0.5511811023622047
          },
          {
            "duration": 0.1875,
            "durationTicks": 144,
            "midi": 43,
            "name": "G2",
            "ticks": 65232,
            "time": 84.9375,
            "velocity": 0.5511811023622047
          },
          {
            "duration": 0.1875,
            "durationTicks": 144,
            "midi": 40,
            "name": "E2",
            "ticks": 65232,
            "time": 84.9375,
            "velocity": 0.5511811023622047
          },
          {
            "duration": 0.1875,
            "durationTicks": 144,
            "midi": 52,
            "name": "E3",
            "ticks": 65232,
            "time": 84.9375,
            "velocity": 0.5511811023622047
          },
          {
            "duration": 0.1875,
            "durationTicks": 144,
            "midi": 36,
            "name": "C2",
            "ticks": 65232,
            "time": 84.9375,
            "velocity": 0.5511811023622047
          },
          {
            "duration": 0.1875,
            "durationTicks": 144,
            "midi": 55,
            "name": "G3",
            "ticks": 65232,
            "time": 84.9375,
            "velocity": 0.5511811023622047
          },
          {
            "duration": 0.1875,
            "durationTicks": 144,
            "midi": 60,
            "name": "C4",
            "ticks": 65232,
            "time": 84.9375,
            "velocity": 0.5511811023622047
          },
          {
            "duration": 0.1875,
            "durationTicks": 144,
            "midi": 48,
            "name": "C3",
            "ticks": 65232,
            "time": 84.9375,
            "velocity": 0.5511811023622047
          },
          {
            "duration": 0.1875,
            "durationTicks": 144,
            "midi": 60,
            "name": "C4",
            "ticks": 65376,
            "time": 85.125,
            "velocity": 0.5511811023622047
          },
          {
            "duration": 0.1875,
            "durationTicks": 144,
            "midi": 43,
            "name": "G2",
            "ticks": 65376,
            "time": 85.125,
            "velocity": 0.5511811023622047
          },
          {
            "duration": 0.1875,
            "durationTicks": 144,
            "midi": 48,
            "name": "C3",
            "ticks": 65376,
            "time": 85.125,
            "velocity": 0.5511811023622047
          },
          {
            "duration": 0.1875,
            "durationTicks": 144,
            "midi": 40,
            "name": "E2",
            "ticks": 65376,
            "time": 85.125,
            "velocity": 0.5511811023622047
          },
          {
            "duration": 0.1875,
            "durationTicks": 144,
            "midi": 52,
            "name": "E3",
            "ticks": 65376,
            "time": 85.125,
            "velocity": 0.5511811023622047
          },
          {
            "duration": 0.1875,
            "durationTicks": 144,
            "midi": 55,
            "name": "G3",
            "ticks": 65376,
            "time": 85.125,
            "velocity": 0.5511811023622047
          },
          {
            "duration": 0.1875,
            "durationTicks": 144,
            "midi": 36,
            "name": "C2",
            "ticks": 65376,
            "time": 85.125,
            "velocity": 0.5511811023622047
          },
          {
            "duration": 0.1875,
            "durationTicks": 144,
            "midi": 48,
            "name": "C3",
            "ticks": 65520,
            "time": 85.3125,
            "velocity": 0.5511811023622047
          },
          {
            "duration": 0.1875,
            "durationTicks": 144,
            "midi": 36,
            "name": "C2",
            "ticks": 65520,
            "time": 85.3125,
            "velocity": 0.5511811023622047
          },
          {
            "duration": 0.1875,
            "durationTicks": 144,
            "midi": 43,
            "name": "G2",
            "ticks": 65520,
            "time": 85.3125,
            "velocity": 0.5511811023622047
          },
          {
            "duration": 0.1875,
            "durationTicks": 144,
            "midi": 55,
            "name": "G3",
            "ticks": 65520,
            "time": 85.3125,
            "velocity": 0.5511811023622047
          },
          {
            "duration": 0.1875,
            "durationTicks": 144,
            "midi": 40,
            "name": "E2",
            "ticks": 65520,
            "time": 85.3125,
            "velocity": 0.5511811023622047
          },
          {
            "duration": 0.1875,
            "durationTicks": 144,
            "midi": 60,
            "name": "C4",
            "ticks": 65520,
            "time": 85.3125,
            "velocity": 0.5511811023622047
          },
          {
            "duration": 0.1875,
            "durationTicks": 144,
            "midi": 52,
            "name": "E3",
            "ticks": 65520,
            "time": 85.3125,
            "velocity": 0.5511811023622047
          },
          {
            "duration": 0.1875,
            "durationTicks": 144,
            "midi": 60,
            "name": "C4",
            "ticks": 65664,
            "time": 85.5,
            "velocity": 0.5511811023622047
          },
          {
            "duration": 0.1875,
            "durationTicks": 144,
            "midi": 48,
            "name": "C3",
            "ticks": 65664,
            "time": 85.5,
            "velocity": 0.5511811023622047
          },
          {
            "duration": 0.1875,
            "durationTicks": 144,
            "midi": 55,
            "name": "G3",
            "ticks": 65664,
            "time": 85.5,
            "velocity": 0.5511811023622047
          },
          {
            "duration": 0.1875,
            "durationTicks": 144,
            "midi": 43,
            "name": "G2",
            "ticks": 65664,
            "time": 85.5,
            "velocity": 0.5511811023622047
          },
          {
            "duration": 0.1875,
            "durationTicks": 144,
            "midi": 52,
            "name": "E3",
            "ticks": 65664,
            "time": 85.5,
            "velocity": 0.5511811023622047
          },
          {
            "duration": 0.1875,
            "durationTicks": 144,
            "midi": 40,
            "name": "E2",
            "ticks": 65664,
            "time": 85.5,
            "velocity": 0.5511811023622047
          },
          {
            "duration": 0.1875,
            "durationTicks": 144,
            "midi": 36,
            "name": "C2",
            "ticks": 65664,
            "time": 85.5,
            "velocity": 0.5511811023622047
          },
          {
            "duration": 0.1875,
            "durationTicks": 144,
            "midi": 36,
            "name": "C2",
            "ticks": 65952,
            "time": 85.875,
            "velocity": 0.5511811023622047
          },
          {
            "duration": 0.1875,
            "durationTicks": 144,
            "midi": 48,
            "name": "C3",
            "ticks": 65952,
            "time": 85.875,
            "velocity": 0.5511811023622047
          },
          {
            "duration": 0.1875,
            "durationTicks": 144,
            "midi": 55,
            "name": "G3",
            "ticks": 65952,
            "time": 85.875,
            "velocity": 0.5511811023622047
          },
          {
            "duration": 0.1875,
            "durationTicks": 144,
            "midi": 60,
            "name": "C4",
            "ticks": 65952,
            "time": 85.875,
            "velocity": 0.5511811023622047
          },
          {
            "duration": 0.1875,
            "durationTicks": 144,
            "midi": 40,
            "name": "E2",
            "ticks": 65952,
            "time": 85.875,
            "velocity": 0.5511811023622047
          },
          {
            "duration": 0.1875,
            "durationTicks": 144,
            "midi": 52,
            "name": "E3",
            "ticks": 65952,
            "time": 85.875,
            "velocity": 0.5511811023622047
          },
          {
            "duration": 0.1875,
            "durationTicks": 144,
            "midi": 43,
            "name": "G2",
            "ticks": 65952,
            "time": 85.875,
            "velocity": 0.5511811023622047
          },
          {
            "duration": 0.1875,
            "durationTicks": 144,
            "midi": 52,
            "name": "E3",
            "ticks": 66096,
            "time": 86.0625,
            "velocity": 0.5511811023622047
          },
          {
            "duration": 0.1875,
            "durationTicks": 144,
            "midi": 48,
            "name": "C3",
            "ticks": 66096,
            "time": 86.0625,
            "velocity": 0.5511811023622047
          },
          {
            "duration": 0.1875,
            "durationTicks": 144,
            "midi": 55,
            "name": "G3",
            "ticks": 66096,
            "time": 86.0625,
            "velocity": 0.5511811023622047
          },
          {
            "duration": 0.1875,
            "durationTicks": 144,
            "midi": 60,
            "name": "C4",
            "ticks": 66096,
            "time": 86.0625,
            "velocity": 0.5511811023622047
          },
          {
            "duration": 0.1875,
            "durationTicks": 144,
            "midi": 36,
            "name": "C2",
            "ticks": 66096,
            "time": 86.0625,
            "velocity": 0.5511811023622047
          },
          {
            "duration": 0.1875,
            "durationTicks": 144,
            "midi": 43,
            "name": "G2",
            "ticks": 66096,
            "time": 86.0625,
            "velocity": 0.5511811023622047
          },
          {
            "duration": 0.1875,
            "durationTicks": 144,
            "midi": 40,
            "name": "E2",
            "ticks": 66096,
            "time": 86.0625,
            "velocity": 0.5511811023622047
          },
          {
            "duration": 0.1875,
            "durationTicks": 144,
            "midi": 40,
            "name": "E2",
            "ticks": 66384,
            "time": 86.4375,
            "velocity": 0.5511811023622047
          },
          {
            "duration": 0.1875,
            "durationTicks": 144,
            "midi": 55,
            "name": "G3",
            "ticks": 66384,
            "time": 86.4375,
            "velocity": 0.5511811023622047
          },
          {
            "duration": 0.1875,
            "durationTicks": 144,
            "midi": 48,
            "name": "C3",
            "ticks": 66384,
            "time": 86.4375,
            "velocity": 0.5511811023622047
          },
          {
            "duration": 0.1875,
            "durationTicks": 144,
            "midi": 43,
            "name": "G2",
            "ticks": 66384,
            "time": 86.4375,
            "velocity": 0.5511811023622047
          },
          {
            "duration": 0.1875,
            "durationTicks": 144,
            "midi": 52,
            "name": "E3",
            "ticks": 66384,
            "time": 86.4375,
            "velocity": 0.5511811023622047
          },
          {
            "duration": 0.1875,
            "durationTicks": 144,
            "midi": 60,
            "name": "C4",
            "ticks": 66384,
            "time": 86.4375,
            "velocity": 0.5511811023622047
          },
          {
            "duration": 0.1875,
            "durationTicks": 144,
            "midi": 36,
            "name": "C2",
            "ticks": 66384,
            "time": 86.4375,
            "velocity": 0.5511811023622047
          },
          {
            "duration": 0.1875,
            "durationTicks": 144,
            "midi": 40,
            "name": "E2",
            "ticks": 66528,
            "time": 86.625,
            "velocity": 0.5511811023622047
          },
          {
            "duration": 0.1875,
            "durationTicks": 144,
            "midi": 36,
            "name": "C2",
            "ticks": 66528,
            "time": 86.625,
            "velocity": 0.5511811023622047
          },
          {
            "duration": 0.1875,
            "durationTicks": 144,
            "midi": 52,
            "name": "E3",
            "ticks": 66528,
            "time": 86.625,
            "velocity": 0.5511811023622047
          },
          {
            "duration": 0.1875,
            "durationTicks": 144,
            "midi": 55,
            "name": "G3",
            "ticks": 66528,
            "time": 86.625,
            "velocity": 0.5511811023622047
          },
          {
            "duration": 0.1875,
            "durationTicks": 144,
            "midi": 48,
            "name": "C3",
            "ticks": 66528,
            "time": 86.625,
            "velocity": 0.5511811023622047
          },
          {
            "duration": 0.1875,
            "durationTicks": 144,
            "midi": 43,
            "name": "G2",
            "ticks": 66528,
            "time": 86.625,
            "velocity": 0.5511811023622047
          },
          {
            "duration": 0.1875,
            "durationTicks": 144,
            "midi": 60,
            "name": "C4",
            "ticks": 66528,
            "time": 86.625,
            "velocity": 0.5511811023622047
          },
          {
            "duration": 0.1875,
            "durationTicks": 144,
            "midi": 55,
            "name": "G3",
            "ticks": 66672,
            "time": 86.8125,
            "velocity": 0.5511811023622047
          },
          {
            "duration": 0.1875,
            "durationTicks": 144,
            "midi": 60,
            "name": "C4",
            "ticks": 66672,
            "time": 86.8125,
            "velocity": 0.5511811023622047
          },
          {
            "duration": 0.1875,
            "durationTicks": 144,
            "midi": 43,
            "name": "G2",
            "ticks": 66672,
            "time": 86.8125,
            "velocity": 0.5511811023622047
          },
          {
            "duration": 0.1875,
            "durationTicks": 144,
            "midi": 48,
            "name": "C3",
            "ticks": 66672,
            "time": 86.8125,
            "velocity": 0.5511811023622047
          },
          {
            "duration": 0.1875,
            "durationTicks": 144,
            "midi": 52,
            "name": "E3",
            "ticks": 66672,
            "time": 86.8125,
            "velocity": 0.5511811023622047
          },
          {
            "duration": 0.1875,
            "durationTicks": 144,
            "midi": 40,
            "name": "E2",
            "ticks": 66672,
            "time": 86.8125,
            "velocity": 0.5511811023622047
          },
          {
            "duration": 0.1875,
            "durationTicks": 144,
            "midi": 36,
            "name": "C2",
            "ticks": 66672,
            "time": 86.8125,
            "velocity": 0.5511811023622047
          },
          {
            "duration": 0.1875,
            "durationTicks": 144,
            "midi": 42,
            "name": "F#2",
            "ticks": 66816,
            "time": 87,
            "velocity": 0.5511811023622047
          },
          {
            "duration": 0.1875,
            "durationTicks": 144,
            "midi": 45,
            "name": "A2",
            "ticks": 66816,
            "time": 87,
            "velocity": 0.5511811023622047
          },
          {
            "duration": 0.1875,
            "durationTicks": 144,
            "midi": 62,
            "name": "D4",
            "ticks": 66816,
            "time": 87,
            "velocity": 0.5511811023622047
          },
          {
            "duration": 0.1875,
            "durationTicks": 144,
            "midi": 57,
            "name": "A3",
            "ticks": 66816,
            "time": 87,
            "velocity": 0.5511811023622047
          },
          {
            "duration": 0.1875,
            "durationTicks": 144,
            "midi": 38,
            "name": "D2",
            "ticks": 66816,
            "time": 87,
            "velocity": 0.5511811023622047
          },
          {
            "duration": 0.1875,
            "durationTicks": 144,
            "midi": 54,
            "name": "F#3",
            "ticks": 66816,
            "time": 87,
            "velocity": 0.5511811023622047
          },
          {
            "duration": 0.1875,
            "durationTicks": 144,
            "midi": 50,
            "name": "D3",
            "ticks": 66816,
            "time": 87,
            "velocity": 0.5511811023622047
          },
          {
            "duration": 0.1875,
            "durationTicks": 144,
            "midi": 38,
            "name": "D2",
            "ticks": 67104,
            "time": 87.375,
            "velocity": 0.5511811023622047
          },
          {
            "duration": 0.1875,
            "durationTicks": 144,
            "midi": 42,
            "name": "F#2",
            "ticks": 67104,
            "time": 87.375,
            "velocity": 0.5511811023622047
          },
          {
            "duration": 0.1875,
            "durationTicks": 144,
            "midi": 54,
            "name": "F#3",
            "ticks": 67104,
            "time": 87.375,
            "velocity": 0.5511811023622047
          },
          {
            "duration": 0.1875,
            "durationTicks": 144,
            "midi": 62,
            "name": "D4",
            "ticks": 67104,
            "time": 87.375,
            "velocity": 0.5511811023622047
          },
          {
            "duration": 0.1875,
            "durationTicks": 144,
            "midi": 57,
            "name": "A3",
            "ticks": 67104,
            "time": 87.375,
            "velocity": 0.5511811023622047
          },
          {
            "duration": 0.1875,
            "durationTicks": 144,
            "midi": 50,
            "name": "D3",
            "ticks": 67104,
            "time": 87.375,
            "velocity": 0.5511811023622047
          },
          {
            "duration": 0.1875,
            "durationTicks": 144,
            "midi": 45,
            "name": "A2",
            "ticks": 67104,
            "time": 87.375,
            "velocity": 0.5511811023622047
          },
          {
            "duration": 0.1875,
            "durationTicks": 144,
            "midi": 59,
            "name": "B3",
            "ticks": 67392,
            "time": 87.75,
            "velocity": 0.5511811023622047
          },
          {
            "duration": 0.1875,
            "durationTicks": 144,
            "midi": 64,
            "name": "E4",
            "ticks": 67392,
            "time": 87.75,
            "velocity": 0.5511811023622047
          },
          {
            "duration": 0.1875,
            "durationTicks": 144,
            "midi": 47,
            "name": "B2",
            "ticks": 67392,
            "time": 87.75,
            "velocity": 0.5511811023622047
          },
          {
            "duration": 0.1875,
            "durationTicks": 144,
            "midi": 40,
            "name": "E2",
            "ticks": 67392,
            "time": 87.75,
            "velocity": 0.5511811023622047
          },
          {
            "duration": 0.1875,
            "durationTicks": 144,
            "midi": 44,
            "name": "G#2",
            "ticks": 67392,
            "time": 87.75,
            "velocity": 0.5511811023622047
          },
          {
            "duration": 0.1875,
            "durationTicks": 144,
            "midi": 56,
            "name": "G#3",
            "ticks": 67392,
            "time": 87.75,
            "velocity": 0.5511811023622047
          },
          {
            "duration": 0.1875,
            "durationTicks": 144,
            "midi": 52,
            "name": "E3",
            "ticks": 67392,
            "time": 87.75,
            "velocity": 0.5511811023622047
          },
          {
            "duration": 0.1875,
            "durationTicks": 144,
            "midi": 59,
            "name": "B3",
            "ticks": 67680,
            "time": 88.125,
            "velocity": 0.5511811023622047
          },
          {
            "duration": 0.1875,
            "durationTicks": 144,
            "midi": 44,
            "name": "G#2",
            "ticks": 67680,
            "time": 88.125,
            "velocity": 0.5511811023622047
          },
          {
            "duration": 0.1875,
            "durationTicks": 144,
            "midi": 47,
            "name": "B2",
            "ticks": 67680,
            "time": 88.125,
            "velocity": 0.5511811023622047
          },
          {
            "duration": 0.1875,
            "durationTicks": 144,
            "midi": 40,
            "name": "E2",
            "ticks": 67680,
            "time": 88.125,
            "velocity": 0.5511811023622047
          },
          {
            "duration": 0.1875,
            "durationTicks": 144,
            "midi": 52,
            "name": "E3",
            "ticks": 67680,
            "time": 88.125,
            "velocity": 0.5511811023622047
          },
          {
            "duration": 0.1875,
            "durationTicks": 144,
            "midi": 56,
            "name": "G#3",
            "ticks": 67680,
            "time": 88.125,
            "velocity": 0.5511811023622047
          },
          {
            "duration": 0.1875,
            "durationTicks": 144,
            "midi": 64,
            "name": "E4",
            "ticks": 67680,
            "time": 88.125,
            "velocity": 0.5511811023622047
          },
          {
            "duration": 0.1875,
            "durationTicks": 144,
            "midi": 59,
            "name": "B3",
            "ticks": 67824,
            "time": 88.3125,
            "velocity": 0.5511811023622047
          },
          {
            "duration": 0.1875,
            "durationTicks": 144,
            "midi": 64,
            "name": "E4",
            "ticks": 67824,
            "time": 88.3125,
            "velocity": 0.5511811023622047
          },
          {
            "duration": 0.1875,
            "durationTicks": 144,
            "midi": 52,
            "name": "E3",
            "ticks": 67824,
            "time": 88.3125,
            "velocity": 0.5511811023622047
          },
          {
            "duration": 0.1875,
            "durationTicks": 144,
            "midi": 56,
            "name": "G#3",
            "ticks": 67824,
            "time": 88.3125,
            "velocity": 0.5511811023622047
          },
          {
            "duration": 0.1875,
            "durationTicks": 144,
            "midi": 44,
            "name": "G#2",
            "ticks": 67824,
            "time": 88.3125,
            "velocity": 0.5511811023622047
          },
          {
            "duration": 0.1875,
            "durationTicks": 144,
            "midi": 47,
            "name": "B2",
            "ticks": 67824,
            "time": 88.3125,
            "velocity": 0.5511811023622047
          },
          {
            "duration": 0.1875,
            "durationTicks": 144,
            "midi": 40,
            "name": "E2",
            "ticks": 67824,
            "time": 88.3125,
            "velocity": 0.5511811023622047
          },
          {
            "duration": 0.1875,
            "durationTicks": 144,
            "midi": 56,
            "name": "G#3",
            "ticks": 68112,
            "time": 88.6875,
            "velocity": 0.5511811023622047
          },
          {
            "duration": 0.1875,
            "durationTicks": 144,
            "midi": 52,
            "name": "E3",
            "ticks": 68112,
            "time": 88.6875,
            "velocity": 0.5511811023622047
          },
          {
            "duration": 0.1875,
            "durationTicks": 144,
            "midi": 44,
            "name": "G#2",
            "ticks": 68112,
            "time": 88.6875,
            "velocity": 0.5511811023622047
          },
          {
            "duration": 0.1875,
            "durationTicks": 144,
            "midi": 64,
            "name": "E4",
            "ticks": 68112,
            "time": 88.6875,
            "velocity": 0.5511811023622047
          },
          {
            "duration": 0.1875,
            "durationTicks": 144,
            "midi": 40,
            "name": "E2",
            "ticks": 68112,
            "time": 88.6875,
            "velocity": 0.5511811023622047
          },
          {
            "duration": 0.1875,
            "durationTicks": 144,
            "midi": 59,
            "name": "B3",
            "ticks": 68112,
            "time": 88.6875,
            "velocity": 0.5511811023622047
          },
          {
            "duration": 0.1875,
            "durationTicks": 144,
            "midi": 47,
            "name": "B2",
            "ticks": 68112,
            "time": 88.6875,
            "velocity": 0.5511811023622047
          },
          {
            "duration": 0.1875,
            "durationTicks": 144,
            "midi": 44,
            "name": "G#2",
            "ticks": 68256,
            "time": 88.875,
            "velocity": 0.5511811023622047
          },
          {
            "duration": 0.1875,
            "durationTicks": 144,
            "midi": 40,
            "name": "E2",
            "ticks": 68256,
            "time": 88.875,
            "velocity": 0.5511811023622047
          },
          {
            "duration": 0.1875,
            "durationTicks": 144,
            "midi": 47,
            "name": "B2",
            "ticks": 68256,
            "time": 88.875,
            "velocity": 0.5511811023622047
          },
          {
            "duration": 0.1875,
            "durationTicks": 144,
            "midi": 52,
            "name": "E3",
            "ticks": 68256,
            "time": 88.875,
            "velocity": 0.5511811023622047
          },
          {
            "duration": 0.1875,
            "durationTicks": 144,
            "midi": 59,
            "name": "B3",
            "ticks": 68256,
            "time": 88.875,
            "velocity": 0.5511811023622047
          },
          {
            "duration": 0.1875,
            "durationTicks": 144,
            "midi": 64,
            "name": "E4",
            "ticks": 68256,
            "time": 88.875,
            "velocity": 0.5511811023622047
          },
          {
            "duration": 0.1875,
            "durationTicks": 144,
            "midi": 56,
            "name": "G#3",
            "ticks": 68256,
            "time": 88.875,
            "velocity": 0.5511811023622047
          },
          {
            "duration": 0.1875,
            "durationTicks": 144,
            "midi": 56,
            "name": "G#3",
            "ticks": 68400,
            "time": 89.0625,
            "velocity": 0.5511811023622047
          },
          {
            "duration": 0.1875,
            "durationTicks": 144,
            "midi": 59,
            "name": "B3",
            "ticks": 68400,
            "time": 89.0625,
            "velocity": 0.5511811023622047
          },
          {
            "duration": 0.1875,
            "durationTicks": 144,
            "midi": 64,
            "name": "E4",
            "ticks": 68400,
            "time": 89.0625,
            "velocity": 0.5511811023622047
          },
          {
            "duration": 0.1875,
            "durationTicks": 144,
            "midi": 47,
            "name": "B2",
            "ticks": 68400,
            "time": 89.0625,
            "velocity": 0.5511811023622047
          },
          {
            "duration": 0.1875,
            "durationTicks": 144,
            "midi": 52,
            "name": "E3",
            "ticks": 68400,
            "time": 89.0625,
            "velocity": 0.5511811023622047
          },
          {
            "duration": 0.1875,
            "durationTicks": 144,
            "midi": 44,
            "name": "G#2",
            "ticks": 68400,
            "time": 89.0625,
            "velocity": 0.5511811023622047
          },
          {
            "duration": 0.1875,
            "durationTicks": 144,
            "midi": 40,
            "name": "E2",
            "ticks": 68400,
            "time": 89.0625,
            "velocity": 0.5511811023622047
          },
          {
            "duration": 0.1875,
            "durationTicks": 144,
            "midi": 40,
            "name": "E2",
            "ticks": 68544,
            "time": 89.25,
            "velocity": 0.5511811023622047
          },
          {
            "duration": 0.1875,
            "durationTicks": 144,
            "midi": 52,
            "name": "E3",
            "ticks": 68544,
            "time": 89.25,
            "velocity": 0.5511811023622047
          },
          {
            "duration": 0.1875,
            "durationTicks": 144,
            "midi": 47,
            "name": "B2",
            "ticks": 68544,
            "time": 89.25,
            "velocity": 0.5511811023622047
          },
          {
            "duration": 0.1875,
            "durationTicks": 144,
            "midi": 56,
            "name": "G#3",
            "ticks": 68544,
            "time": 89.25,
            "velocity": 0.5511811023622047
          },
          {
            "duration": 0.1875,
            "durationTicks": 144,
            "midi": 64,
            "name": "E4",
            "ticks": 68544,
            "time": 89.25,
            "velocity": 0.5511811023622047
          },
          {
            "duration": 0.1875,
            "durationTicks": 144,
            "midi": 59,
            "name": "B3",
            "ticks": 68544,
            "time": 89.25,
            "velocity": 0.5511811023622047
          },
          {
            "duration": 0.1875,
            "durationTicks": 144,
            "midi": 44,
            "name": "G#2",
            "ticks": 68544,
            "time": 89.25,
            "velocity": 0.5511811023622047
          },
          {
            "duration": 0.1875,
            "durationTicks": 144,
            "midi": 40,
            "name": "E2",
            "ticks": 68832,
            "time": 89.625,
            "velocity": 0.5511811023622047
          },
          {
            "duration": 0.1875,
            "durationTicks": 144,
            "midi": 44,
            "name": "G#2",
            "ticks": 68832,
            "time": 89.625,
            "velocity": 0.5511811023622047
          },
          {
            "duration": 0.1875,
            "durationTicks": 144,
            "midi": 64,
            "name": "E4",
            "ticks": 68832,
            "time": 89.625,
            "velocity": 0.5511811023622047
          },
          {
            "duration": 0.1875,
            "durationTicks": 144,
            "midi": 47,
            "name": "B2",
            "ticks": 68832,
            "time": 89.625,
            "velocity": 0.5511811023622047
          },
          {
            "duration": 0.1875,
            "durationTicks": 144,
            "midi": 52,
            "name": "E3",
            "ticks": 68832,
            "time": 89.625,
            "velocity": 0.5511811023622047
          },
          {
            "duration": 0.1875,
            "durationTicks": 144,
            "midi": 56,
            "name": "G#3",
            "ticks": 68832,
            "time": 89.625,
            "velocity": 0.5511811023622047
          },
          {
            "duration": 0.1875,
            "durationTicks": 144,
            "midi": 59,
            "name": "B3",
            "ticks": 68832,
            "time": 89.625,
            "velocity": 0.5511811023622047
          },
          {
            "duration": 0.1875,
            "durationTicks": 144,
            "midi": 64,
            "name": "E4",
            "ticks": 68976,
            "time": 89.8125,
            "velocity": 0.5511811023622047
          },
          {
            "duration": 0.1875,
            "durationTicks": 144,
            "midi": 56,
            "name": "G#3",
            "ticks": 68976,
            "time": 89.8125,
            "velocity": 0.5511811023622047
          },
          {
            "duration": 0.1875,
            "durationTicks": 144,
            "midi": 52,
            "name": "E3",
            "ticks": 68976,
            "time": 89.8125,
            "velocity": 0.5511811023622047
          },
          {
            "duration": 0.1875,
            "durationTicks": 144,
            "midi": 59,
            "name": "B3",
            "ticks": 68976,
            "time": 89.8125,
            "velocity": 0.5511811023622047
          },
          {
            "duration": 0.1875,
            "durationTicks": 144,
            "midi": 47,
            "name": "B2",
            "ticks": 68976,
            "time": 89.8125,
            "velocity": 0.5511811023622047
          },
          {
            "duration": 0.1875,
            "durationTicks": 144,
            "midi": 44,
            "name": "G#2",
            "ticks": 68976,
            "time": 89.8125,
            "velocity": 0.5511811023622047
          },
          {
            "duration": 0.1875,
            "durationTicks": 144,
            "midi": 40,
            "name": "E2",
            "ticks": 68976,
            "time": 89.8125,
            "velocity": 0.5511811023622047
          },
          {
            "duration": 0.1875,
            "durationTicks": 144,
            "midi": 59,
            "name": "B3",
            "ticks": 69264,
            "time": 90.1875,
            "velocity": 0.5511811023622047
          },
          {
            "duration": 0.1875,
            "durationTicks": 144,
            "midi": 52,
            "name": "E3",
            "ticks": 69264,
            "time": 90.1875,
            "velocity": 0.5511811023622047
          },
          {
            "duration": 0.1875,
            "durationTicks": 144,
            "midi": 64,
            "name": "E4",
            "ticks": 69264,
            "time": 90.1875,
            "velocity": 0.5511811023622047
          },
          {
            "duration": 0.1875,
            "durationTicks": 144,
            "midi": 40,
            "name": "E2",
            "ticks": 69264,
            "time": 90.1875,
            "velocity": 0.5511811023622047
          },
          {
            "duration": 0.1875,
            "durationTicks": 144,
            "midi": 47,
            "name": "B2",
            "ticks": 69264,
            "time": 90.1875,
            "velocity": 0.5511811023622047
          },
          {
            "duration": 0.1875,
            "durationTicks": 144,
            "midi": 44,
            "name": "G#2",
            "ticks": 69264,
            "time": 90.1875,
            "velocity": 0.5511811023622047
          },
          {
            "duration": 0.1875,
            "durationTicks": 144,
            "midi": 56,
            "name": "G#3",
            "ticks": 69264,
            "time": 90.1875,
            "velocity": 0.5511811023622047
          },
          {
            "duration": 0.1875,
            "durationTicks": 144,
            "midi": 47,
            "name": "B2",
            "ticks": 69408,
            "time": 90.375,
            "velocity": 0.5511811023622047
          },
          {
            "duration": 0.1875,
            "durationTicks": 144,
            "midi": 56,
            "name": "G#3",
            "ticks": 69408,
            "time": 90.375,
            "velocity": 0.5511811023622047
          },
          {
            "duration": 0.1875,
            "durationTicks": 144,
            "midi": 64,
            "name": "E4",
            "ticks": 69408,
            "time": 90.375,
            "velocity": 0.5511811023622047
          },
          {
            "duration": 0.1875,
            "durationTicks": 144,
            "midi": 40,
            "name": "E2",
            "ticks": 69408,
            "time": 90.375,
            "velocity": 0.5511811023622047
          },
          {
            "duration": 0.1875,
            "durationTicks": 144,
            "midi": 52,
            "name": "E3",
            "ticks": 69408,
            "time": 90.375,
            "velocity": 0.5511811023622047
          },
          {
            "duration": 0.1875,
            "durationTicks": 144,
            "midi": 44,
            "name": "G#2",
            "ticks": 69408,
            "time": 90.375,
            "velocity": 0.5511811023622047
          },
          {
            "duration": 0.1875,
            "durationTicks": 144,
            "midi": 59,
            "name": "B3",
            "ticks": 69408,
            "time": 90.375,
            "velocity": 0.5511811023622047
          },
          {
            "duration": 0.1875,
            "durationTicks": 144,
            "midi": 59,
            "name": "B3",
            "ticks": 69552,
            "time": 90.5625,
            "velocity": 0.5511811023622047
          },
          {
            "duration": 0.1875,
            "durationTicks": 144,
            "midi": 44,
            "name": "G#2",
            "ticks": 69552,
            "time": 90.5625,
            "velocity": 0.5511811023622047
          },
          {
            "duration": 0.1875,
            "durationTicks": 144,
            "midi": 47,
            "name": "B2",
            "ticks": 69552,
            "time": 90.5625,
            "velocity": 0.5511811023622047
          },
          {
            "duration": 0.1875,
            "durationTicks": 144,
            "midi": 64,
            "name": "E4",
            "ticks": 69552,
            "time": 90.5625,
            "velocity": 0.5511811023622047
          },
          {
            "duration": 0.1875,
            "durationTicks": 144,
            "midi": 56,
            "name": "G#3",
            "ticks": 69552,
            "time": 90.5625,
            "velocity": 0.5511811023622047
          },
          {
            "duration": 0.1875,
            "durationTicks": 144,
            "midi": 40,
            "name": "E2",
            "ticks": 69552,
            "time": 90.5625,
            "velocity": 0.5511811023622047
          },
          {
            "duration": 0.1875,
            "durationTicks": 144,
            "midi": 52,
            "name": "E3",
            "ticks": 69552,
            "time": 90.5625,
            "velocity": 0.5511811023622047
          },
          {
            "duration": 0.1875,
            "durationTicks": 144,
            "midi": 55,
            "name": "G3",
            "ticks": 69696,
            "time": 90.75,
            "velocity": 0.5511811023622047
          },
          {
            "duration": 0.1875,
            "durationTicks": 144,
            "midi": 59,
            "name": "B3",
            "ticks": 69696,
            "time": 90.75,
            "velocity": 0.5511811023622047
          },
          {
            "duration": 0.1875,
            "durationTicks": 144,
            "midi": 43,
            "name": "G2",
            "ticks": 69696,
            "time": 90.75,
            "velocity": 0.5511811023622047
          },
          {
            "duration": 0.1875,
            "durationTicks": 144,
            "midi": 47,
            "name": "B2",
            "ticks": 69696,
            "time": 90.75,
            "velocity": 0.5511811023622047
          },
          {
            "duration": 0.1875,
            "durationTicks": 144,
            "midi": 50,
            "name": "D3",
            "ticks": 69696,
            "time": 90.75,
            "velocity": 0.5511811023622047
          },
          {
            "duration": 0.1875,
            "durationTicks": 144,
            "midi": 67,
            "name": "G4",
            "ticks": 69696,
            "time": 90.75,
            "velocity": 0.5511811023622047
          },
          {
            "duration": 0.1875,
            "durationTicks": 144,
            "midi": 62,
            "name": "D4",
            "ticks": 69696,
            "time": 90.75,
            "velocity": 0.5511811023622047
          },
          {
            "duration": 0.1875,
            "durationTicks": 144,
            "midi": 50,
            "name": "D3",
            "ticks": 69984,
            "time": 91.125,
            "velocity": 0.5511811023622047
          },
          {
            "duration": 0.1875,
            "durationTicks": 144,
            "midi": 55,
            "name": "G3",
            "ticks": 69984,
            "time": 91.125,
            "velocity": 0.5511811023622047
          },
          {
            "duration": 0.1875,
            "durationTicks": 144,
            "midi": 43,
            "name": "G2",
            "ticks": 69984,
            "time": 91.125,
            "velocity": 0.5511811023622047
          },
          {
            "duration": 0.1875,
            "durationTicks": 144,
            "midi": 67,
            "name": "G4",
            "ticks": 69984,
            "time": 91.125,
            "velocity": 0.5511811023622047
          },
          {
            "duration": 0.1875,
            "durationTicks": 144,
            "midi": 59,
            "name": "B3",
            "ticks": 69984,
            "time": 91.125,
            "velocity": 0.5511811023622047
          },
          {
            "duration": 0.1875,
            "durationTicks": 144,
            "midi": 47,
            "name": "B2",
            "ticks": 69984,
            "time": 91.125,
            "velocity": 0.5511811023622047
          },
          {
            "duration": 0.1875,
            "durationTicks": 144,
            "midi": 62,
            "name": "D4",
            "ticks": 69984,
            "time": 91.125,
            "velocity": 0.5511811023622047
          },
          {
            "duration": 0.1875,
            "durationTicks": 144,
            "midi": 59,
            "name": "B3",
            "ticks": 70128,
            "time": 91.3125,
            "velocity": 0.5511811023622047
          },
          {
            "duration": 0.1875,
            "durationTicks": 144,
            "midi": 43,
            "name": "G2",
            "ticks": 70128,
            "time": 91.3125,
            "velocity": 0.5511811023622047
          },
          {
            "duration": 0.1875,
            "durationTicks": 144,
            "midi": 55,
            "name": "G3",
            "ticks": 70128,
            "time": 91.3125,
            "velocity": 0.5511811023622047
          },
          {
            "duration": 0.1875,
            "durationTicks": 144,
            "midi": 47,
            "name": "B2",
            "ticks": 70128,
            "time": 91.3125,
            "velocity": 0.5511811023622047
          },
          {
            "duration": 0.1875,
            "durationTicks": 144,
            "midi": 50,
            "name": "D3",
            "ticks": 70128,
            "time": 91.3125,
            "velocity": 0.5511811023622047
          },
          {
            "duration": 0.1875,
            "durationTicks": 144,
            "midi": 67,
            "name": "G4",
            "ticks": 70128,
            "time": 91.3125,
            "velocity": 0.5511811023622047
          },
          {
            "duration": 0.1875,
            "durationTicks": 144,
            "midi": 62,
            "name": "D4",
            "ticks": 70128,
            "time": 91.3125,
            "velocity": 0.5511811023622047
          },
          {
            "duration": 0.1875,
            "durationTicks": 144,
            "midi": 55,
            "name": "G3",
            "ticks": 70416,
            "time": 91.6875,
            "velocity": 0.5511811023622047
          },
          {
            "duration": 0.1875,
            "durationTicks": 144,
            "midi": 43,
            "name": "G2",
            "ticks": 70416,
            "time": 91.6875,
            "velocity": 0.5511811023622047
          },
          {
            "duration": 0.1875,
            "durationTicks": 144,
            "midi": 50,
            "name": "D3",
            "ticks": 70416,
            "time": 91.6875,
            "velocity": 0.5511811023622047
          },
          {
            "duration": 0.1875,
            "durationTicks": 144,
            "midi": 59,
            "name": "B3",
            "ticks": 70416,
            "time": 91.6875,
            "velocity": 0.5511811023622047
          },
          {
            "duration": 0.1875,
            "durationTicks": 144,
            "midi": 62,
            "name": "D4",
            "ticks": 70416,
            "time": 91.6875,
            "velocity": 0.5511811023622047
          },
          {
            "duration": 0.1875,
            "durationTicks": 144,
            "midi": 47,
            "name": "B2",
            "ticks": 70416,
            "time": 91.6875,
            "velocity": 0.5511811023622047
          },
          {
            "duration": 0.1875,
            "durationTicks": 144,
            "midi": 67,
            "name": "G4",
            "ticks": 70416,
            "time": 91.6875,
            "velocity": 0.5511811023622047
          },
          {
            "duration": 0.1875,
            "durationTicks": 144,
            "midi": 59,
            "name": "B3",
            "ticks": 70560,
            "time": 91.875,
            "velocity": 0.5511811023622047
          },
          {
            "duration": 0.1875,
            "durationTicks": 144,
            "midi": 43,
            "name": "G2",
            "ticks": 70560,
            "time": 91.875,
            "velocity": 0.5511811023622047
          },
          {
            "duration": 0.1875,
            "durationTicks": 144,
            "midi": 47,
            "name": "B2",
            "ticks": 70560,
            "time": 91.875,
            "velocity": 0.5511811023622047
          },
          {
            "duration": 0.1875,
            "durationTicks": 144,
            "midi": 67,
            "name": "G4",
            "ticks": 70560,
            "time": 91.875,
            "velocity": 0.5511811023622047
          },
          {
            "duration": 0.1875,
            "durationTicks": 144,
            "midi": 50,
            "name": "D3",
            "ticks": 70560,
            "time": 91.875,
            "velocity": 0.5511811023622047
          },
          {
            "duration": 0.1875,
            "durationTicks": 144,
            "midi": 55,
            "name": "G3",
            "ticks": 70560,
            "time": 91.875,
            "velocity": 0.5511811023622047
          },
          {
            "duration": 0.1875,
            "durationTicks": 144,
            "midi": 62,
            "name": "D4",
            "ticks": 70560,
            "time": 91.875,
            "velocity": 0.5511811023622047
          },
          {
            "duration": 0.1875,
            "durationTicks": 144,
            "midi": 59,
            "name": "B3",
            "ticks": 70704,
            "time": 92.0625,
            "velocity": 0.5511811023622047
          },
          {
            "duration": 0.1875,
            "durationTicks": 144,
            "midi": 43,
            "name": "G2",
            "ticks": 70704,
            "time": 92.0625,
            "velocity": 0.5511811023622047
          },
          {
            "duration": 0.1875,
            "durationTicks": 144,
            "midi": 47,
            "name": "B2",
            "ticks": 70704,
            "time": 92.0625,
            "velocity": 0.5511811023622047
          },
          {
            "duration": 0.1875,
            "durationTicks": 144,
            "midi": 55,
            "name": "G3",
            "ticks": 70704,
            "time": 92.0625,
            "velocity": 0.5511811023622047
          },
          {
            "duration": 0.1875,
            "durationTicks": 144,
            "midi": 62,
            "name": "D4",
            "ticks": 70704,
            "time": 92.0625,
            "velocity": 0.5511811023622047
          },
          {
            "duration": 0.1875,
            "durationTicks": 144,
            "midi": 67,
            "name": "G4",
            "ticks": 70704,
            "time": 92.0625,
            "velocity": 0.5511811023622047
          },
          {
            "duration": 0.1875,
            "durationTicks": 144,
            "midi": 50,
            "name": "D3",
            "ticks": 70704,
            "time": 92.0625,
            "velocity": 0.5511811023622047
          },
          {
            "duration": 0.1875,
            "durationTicks": 144,
            "midi": 55,
            "name": "G3",
            "ticks": 70848,
            "time": 92.25,
            "velocity": 0.5511811023622047
          },
          {
            "duration": 0.1875,
            "durationTicks": 144,
            "midi": 52,
            "name": "E3",
            "ticks": 70848,
            "time": 92.25,
            "velocity": 0.5511811023622047
          },
          {
            "duration": 0.1875,
            "durationTicks": 144,
            "midi": 40,
            "name": "E2",
            "ticks": 70848,
            "time": 92.25,
            "velocity": 0.5511811023622047
          },
          {
            "duration": 0.1875,
            "durationTicks": 144,
            "midi": 48,
            "name": "C3",
            "ticks": 70848,
            "time": 92.25,
            "velocity": 0.5511811023622047
          },
          {
            "duration": 0.1875,
            "durationTicks": 144,
            "midi": 36,
            "name": "C2",
            "ticks": 70848,
            "time": 92.25,
            "velocity": 0.5511811023622047
          },
          {
            "duration": 0.1875,
            "durationTicks": 144,
            "midi": 43,
            "name": "G2",
            "ticks": 70848,
            "time": 92.25,
            "velocity": 0.5511811023622047
          },
          {
            "duration": 0.1875,
            "durationTicks": 144,
            "midi": 60,
            "name": "C4",
            "ticks": 70848,
            "time": 92.25,
            "velocity": 0.5511811023622047
          },
          {
            "duration": 0.1875,
            "durationTicks": 144,
            "midi": 43,
            "name": "G2",
            "ticks": 71136,
            "time": 92.625,
            "velocity": 0.5511811023622047
          },
          {
            "duration": 0.1875,
            "durationTicks": 144,
            "midi": 48,
            "name": "C3",
            "ticks": 71136,
            "time": 92.625,
            "velocity": 0.5511811023622047
          },
          {
            "duration": 0.1875,
            "durationTicks": 144,
            "midi": 55,
            "name": "G3",
            "ticks": 71136,
            "time": 92.625,
            "velocity": 0.5511811023622047
          },
          {
            "duration": 0.1875,
            "durationTicks": 144,
            "midi": 52,
            "name": "E3",
            "ticks": 71136,
            "time": 92.625,
            "velocity": 0.5511811023622047
          },
          {
            "duration": 0.1875,
            "durationTicks": 144,
            "midi": 36,
            "name": "C2",
            "ticks": 71136,
            "time": 92.625,
            "velocity": 0.5511811023622047
          },
          {
            "duration": 0.1875,
            "durationTicks": 144,
            "midi": 40,
            "name": "E2",
            "ticks": 71136,
            "time": 92.625,
            "velocity": 0.5511811023622047
          },
          {
            "duration": 0.1875,
            "durationTicks": 144,
            "midi": 60,
            "name": "C4",
            "ticks": 71136,
            "time": 92.625,
            "velocity": 0.5511811023622047
          },
          {
            "duration": 0.1875,
            "durationTicks": 144,
            "midi": 40,
            "name": "E2",
            "ticks": 71280,
            "time": 92.8125,
            "velocity": 0.5511811023622047
          },
          {
            "duration": 0.1875,
            "durationTicks": 144,
            "midi": 36,
            "name": "C2",
            "ticks": 71280,
            "time": 92.8125,
            "velocity": 0.5511811023622047
          },
          {
            "duration": 0.1875,
            "durationTicks": 144,
            "midi": 60,
            "name": "C4",
            "ticks": 71280,
            "time": 92.8125,
            "velocity": 0.5511811023622047
          },
          {
            "duration": 0.1875,
            "durationTicks": 144,
            "midi": 48,
            "name": "C3",
            "ticks": 71280,
            "time": 92.8125,
            "velocity": 0.5511811023622047
          },
          {
            "duration": 0.1875,
            "durationTicks": 144,
            "midi": 43,
            "name": "G2",
            "ticks": 71280,
            "time": 92.8125,
            "velocity": 0.5511811023622047
          },
          {
            "duration": 0.1875,
            "durationTicks": 144,
            "midi": 52,
            "name": "E3",
            "ticks": 71280,
            "time": 92.8125,
            "velocity": 0.5511811023622047
          },
          {
            "duration": 0.1875,
            "durationTicks": 144,
            "midi": 55,
            "name": "G3",
            "ticks": 71280,
            "time": 92.8125,
            "velocity": 0.5511811023622047
          },
          {
            "duration": 0.1875,
            "durationTicks": 144,
            "midi": 55,
            "name": "G3",
            "ticks": 71568,
            "time": 93.1875,
            "velocity": 0.5511811023622047
          },
          {
            "duration": 0.1875,
            "durationTicks": 144,
            "midi": 36,
            "name": "C2",
            "ticks": 71568,
            "time": 93.1875,
            "velocity": 0.5511811023622047
          },
          {
            "duration": 0.1875,
            "durationTicks": 144,
            "midi": 43,
            "name": "G2",
            "ticks": 71568,
            "time": 93.1875,
            "velocity": 0.5511811023622047
          },
          {
            "duration": 0.1875,
            "durationTicks": 144,
            "midi": 40,
            "name": "E2",
            "ticks": 71568,
            "time": 93.1875,
            "velocity": 0.5511811023622047
          },
          {
            "duration": 0.1875,
            "durationTicks": 144,
            "midi": 60,
            "name": "C4",
            "ticks": 71568,
            "time": 93.1875,
            "velocity": 0.5511811023622047
          },
          {
            "duration": 0.1875,
            "durationTicks": 144,
            "midi": 48,
            "name": "C3",
            "ticks": 71568,
            "time": 93.1875,
            "velocity": 0.5511811023622047
          },
          {
            "duration": 0.1875,
            "durationTicks": 144,
            "midi": 52,
            "name": "E3",
            "ticks": 71568,
            "time": 93.1875,
            "velocity": 0.5511811023622047
          },
          {
            "duration": 0.1875,
            "durationTicks": 144,
            "midi": 36,
            "name": "C2",
            "ticks": 71712,
            "time": 93.375,
            "velocity": 0.5511811023622047
          },
          {
            "duration": 0.1875,
            "durationTicks": 144,
            "midi": 48,
            "name": "C3",
            "ticks": 71712,
            "time": 93.375,
            "velocity": 0.5511811023622047
          },
          {
            "duration": 0.1875,
            "durationTicks": 144,
            "midi": 52,
            "name": "E3",
            "ticks": 71712,
            "time": 93.375,
            "velocity": 0.5511811023622047
          },
          {
            "duration": 0.1875,
            "durationTicks": 144,
            "midi": 60,
            "name": "C4",
            "ticks": 71712,
            "time": 93.375,
            "velocity": 0.5511811023622047
          },
          {
            "duration": 0.1875,
            "durationTicks": 144,
            "midi": 55,
            "name": "G3",
            "ticks": 71712,
            "time": 93.375,
            "velocity": 0.5511811023622047
          },
          {
            "duration": 0.1875,
            "durationTicks": 144,
            "midi": 40,
            "name": "E2",
            "ticks": 71712,
            "time": 93.375,
            "velocity": 0.5511811023622047
          },
          {
            "duration": 0.1875,
            "durationTicks": 144,
            "midi": 43,
            "name": "G2",
            "ticks": 71712,
            "time": 93.375,
            "velocity": 0.5511811023622047
          },
          {
            "duration": 0.1875,
            "durationTicks": 144,
            "midi": 52,
            "name": "E3",
            "ticks": 71856,
            "time": 93.5625,
            "velocity": 0.5511811023622047
          },
          {
            "duration": 0.1875,
            "durationTicks": 144,
            "midi": 36,
            "name": "C2",
            "ticks": 71856,
            "time": 93.5625,
            "velocity": 0.5511811023622047
          },
          {
            "duration": 0.1875,
            "durationTicks": 144,
            "midi": 48,
            "name": "C3",
            "ticks": 71856,
            "time": 93.5625,
            "velocity": 0.5511811023622047
          },
          {
            "duration": 0.1875,
            "durationTicks": 144,
            "midi": 40,
            "name": "E2",
            "ticks": 71856,
            "time": 93.5625,
            "velocity": 0.5511811023622047
          },
          {
            "duration": 0.1875,
            "durationTicks": 144,
            "midi": 43,
            "name": "G2",
            "ticks": 71856,
            "time": 93.5625,
            "velocity": 0.5511811023622047
          },
          {
            "duration": 0.1875,
            "durationTicks": 144,
            "midi": 60,
            "name": "C4",
            "ticks": 71856,
            "time": 93.5625,
            "velocity": 0.5511811023622047
          },
          {
            "duration": 0.1875,
            "durationTicks": 144,
            "midi": 55,
            "name": "G3",
            "ticks": 71856,
            "time": 93.5625,
            "velocity": 0.5511811023622047
          },
          {
            "duration": 0.1875,
            "durationTicks": 144,
            "midi": 55,
            "name": "G3",
            "ticks": 72000,
            "time": 93.75,
            "velocity": 0.5511811023622047
          },
          {
            "duration": 0.1875,
            "durationTicks": 144,
            "midi": 52,
            "name": "E3",
            "ticks": 72000,
            "time": 93.75,
            "velocity": 0.5511811023622047
          },
          {
            "duration": 0.1875,
            "durationTicks": 144,
            "midi": 48,
            "name": "C3",
            "ticks": 72000,
            "time": 93.75,
            "velocity": 0.5511811023622047
          },
          {
            "duration": 0.1875,
            "durationTicks": 144,
            "midi": 36,
            "name": "C2",
            "ticks": 72000,
            "time": 93.75,
            "velocity": 0.5511811023622047
          },
          {
            "duration": 0.1875,
            "durationTicks": 144,
            "midi": 40,
            "name": "E2",
            "ticks": 72000,
            "time": 93.75,
            "velocity": 0.5511811023622047
          },
          {
            "duration": 0.1875,
            "durationTicks": 144,
            "midi": 43,
            "name": "G2",
            "ticks": 72000,
            "time": 93.75,
            "velocity": 0.5511811023622047
          },
          {
            "duration": 0.1875,
            "durationTicks": 144,
            "midi": 60,
            "name": "C4",
            "ticks": 72000,
            "time": 93.75,
            "velocity": 0.5511811023622047
          },
          {
            "duration": 0.1875,
            "durationTicks": 144,
            "midi": 43,
            "name": "G2",
            "ticks": 72288,
            "time": 94.125,
            "velocity": 0.5511811023622047
          },
          {
            "duration": 0.1875,
            "durationTicks": 144,
            "midi": 52,
            "name": "E3",
            "ticks": 72288,
            "time": 94.125,
            "velocity": 0.5511811023622047
          },
          {
            "duration": 0.1875,
            "durationTicks": 144,
            "midi": 48,
            "name": "C3",
            "ticks": 72288,
            "time": 94.125,
            "velocity": 0.5511811023622047
          },
          {
            "duration": 0.1875,
            "durationTicks": 144,
            "midi": 60,
            "name": "C4",
            "ticks": 72288,
            "time": 94.125,
            "velocity": 0.5511811023622047
          },
          {
            "duration": 0.1875,
            "durationTicks": 144,
            "midi": 36,
            "name": "C2",
            "ticks": 72288,
            "time": 94.125,
            "velocity": 0.5511811023622047
          },
          {
            "duration": 0.1875,
            "durationTicks": 144,
            "midi": 40,
            "name": "E2",
            "ticks": 72288,
            "time": 94.125,
            "velocity": 0.5511811023622047
          },
          {
            "duration": 0.1875,
            "durationTicks": 144,
            "midi": 55,
            "name": "G3",
            "ticks": 72288,
            "time": 94.125,
            "velocity": 0.5511811023622047
          },
          {
            "duration": 0.1875,
            "durationTicks": 144,
            "midi": 43,
            "name": "G2",
            "ticks": 72432,
            "time": 94.3125,
            "velocity": 0.5511811023622047
          },
          {
            "duration": 0.1875,
            "durationTicks": 144,
            "midi": 36,
            "name": "C2",
            "ticks": 72432,
            "time": 94.3125,
            "velocity": 0.5511811023622047
          },
          {
            "duration": 0.1875,
            "durationTicks": 144,
            "midi": 40,
            "name": "E2",
            "ticks": 72432,
            "time": 94.3125,
            "velocity": 0.5511811023622047
          },
          {
            "duration": 0.1875,
            "durationTicks": 144,
            "midi": 48,
            "name": "C3",
            "ticks": 72432,
            "time": 94.3125,
            "velocity": 0.5511811023622047
          },
          {
            "duration": 0.1875,
            "durationTicks": 144,
            "midi": 52,
            "name": "E3",
            "ticks": 72432,
            "time": 94.3125,
            "velocity": 0.5511811023622047
          },
          {
            "duration": 0.1875,
            "durationTicks": 144,
            "midi": 55,
            "name": "G3",
            "ticks": 72432,
            "time": 94.3125,
            "velocity": 0.5511811023622047
          },
          {
            "duration": 0.1875,
            "durationTicks": 144,
            "midi": 60,
            "name": "C4",
            "ticks": 72432,
            "time": 94.3125,
            "velocity": 0.5511811023622047
          },
          {
            "duration": 0.1875,
            "durationTicks": 144,
            "midi": 60,
            "name": "C4",
            "ticks": 72720,
            "time": 94.6875,
            "velocity": 0.5511811023622047
          },
          {
            "duration": 0.1875,
            "durationTicks": 144,
            "midi": 40,
            "name": "E2",
            "ticks": 72720,
            "time": 94.6875,
            "velocity": 0.5511811023622047
          },
          {
            "duration": 0.1875,
            "durationTicks": 144,
            "midi": 55,
            "name": "G3",
            "ticks": 72720,
            "time": 94.6875,
            "velocity": 0.5511811023622047
          },
          {
            "duration": 0.1875,
            "durationTicks": 144,
            "midi": 36,
            "name": "C2",
            "ticks": 72720,
            "time": 94.6875,
            "velocity": 0.5511811023622047
          },
          {
            "duration": 0.1875,
            "durationTicks": 144,
            "midi": 43,
            "name": "G2",
            "ticks": 72720,
            "time": 94.6875,
            "velocity": 0.5511811023622047
          },
          {
            "duration": 0.1875,
            "durationTicks": 144,
            "midi": 48,
            "name": "C3",
            "ticks": 72720,
            "time": 94.6875,
            "velocity": 0.5511811023622047
          },
          {
            "duration": 0.1875,
            "durationTicks": 144,
            "midi": 52,
            "name": "E3",
            "ticks": 72720,
            "time": 94.6875,
            "velocity": 0.5511811023622047
          },
          {
            "duration": 0.1875,
            "durationTicks": 144,
            "midi": 36,
            "name": "C2",
            "ticks": 72864,
            "time": 94.875,
            "velocity": 0.5511811023622047
          },
          {
            "duration": 0.1875,
            "durationTicks": 144,
            "midi": 55,
            "name": "G3",
            "ticks": 72864,
            "time": 94.875,
            "velocity": 0.5511811023622047
          },
          {
            "duration": 0.1875,
            "durationTicks": 144,
            "midi": 60,
            "name": "C4",
            "ticks": 72864,
            "time": 94.875,
            "velocity": 0.5511811023622047
          },
          {
            "duration": 0.1875,
            "durationTicks": 144,
            "midi": 40,
            "name": "E2",
            "ticks": 72864,
            "time": 94.875,
            "velocity": 0.5511811023622047
          },
          {
            "duration": 0.1875,
            "durationTicks": 144,
            "midi": 43,
            "name": "G2",
            "ticks": 72864,
            "time": 94.875,
            "velocity": 0.5511811023622047
          },
          {
            "duration": 0.1875,
            "durationTicks": 144,
            "midi": 48,
            "name": "C3",
            "ticks": 72864,
            "time": 94.875,
            "velocity": 0.5511811023622047
          },
          {
            "duration": 0.1875,
            "durationTicks": 144,
            "midi": 52,
            "name": "E3",
            "ticks": 72864,
            "time": 94.875,
            "velocity": 0.5511811023622047
          },
          {
            "duration": 0.1875,
            "durationTicks": 144,
            "midi": 36,
            "name": "C2",
            "ticks": 73008,
            "time": 95.0625,
            "velocity": 0.5511811023622047
          },
          {
            "duration": 0.1875,
            "durationTicks": 144,
            "midi": 60,
            "name": "C4",
            "ticks": 73008,
            "time": 95.0625,
            "velocity": 0.5511811023622047
          },
          {
            "duration": 0.1875,
            "durationTicks": 144,
            "midi": 48,
            "name": "C3",
            "ticks": 73008,
            "time": 95.0625,
            "velocity": 0.5511811023622047
          },
          {
            "duration": 0.1875,
            "durationTicks": 144,
            "midi": 55,
            "name": "G3",
            "ticks": 73008,
            "time": 95.0625,
            "velocity": 0.5511811023622047
          },
          {
            "duration": 0.1875,
            "durationTicks": 144,
            "midi": 52,
            "name": "E3",
            "ticks": 73008,
            "time": 95.0625,
            "velocity": 0.5511811023622047
          },
          {
            "duration": 0.1875,
            "durationTicks": 144,
            "midi": 43,
            "name": "G2",
            "ticks": 73008,
            "time": 95.0625,
            "velocity": 0.5511811023622047
          },
          {
            "duration": 0.1875,
            "durationTicks": 144,
            "midi": 40,
            "name": "E2",
            "ticks": 73008,
            "time": 95.0625,
            "velocity": 0.5511811023622047
          },
          {
            "duration": 0.1875,
            "durationTicks": 144,
            "midi": 54,
            "name": "F#3",
            "ticks": 73152,
            "time": 95.25,
            "velocity": 0.5511811023622047
          },
          {
            "duration": 0.1875,
            "durationTicks": 144,
            "midi": 62,
            "name": "D4",
            "ticks": 73152,
            "time": 95.25,
            "velocity": 0.5511811023622047
          },
          {
            "duration": 0.1875,
            "durationTicks": 144,
            "midi": 57,
            "name": "A3",
            "ticks": 73152,
            "time": 95.25,
            "velocity": 0.5511811023622047
          },
          {
            "duration": 0.1875,
            "durationTicks": 144,
            "midi": 42,
            "name": "F#2",
            "ticks": 73152,
            "time": 95.25,
            "velocity": 0.5511811023622047
          },
          {
            "duration": 0.1875,
            "durationTicks": 144,
            "midi": 38,
            "name": "D2",
            "ticks": 73152,
            "time": 95.25,
            "velocity": 0.5511811023622047
          },
          {
            "duration": 0.1875,
            "durationTicks": 144,
            "midi": 50,
            "name": "D3",
            "ticks": 73152,
            "time": 95.25,
            "velocity": 0.5511811023622047
          },
          {
            "duration": 0.1875,
            "durationTicks": 144,
            "midi": 45,
            "name": "A2",
            "ticks": 73152,
            "time": 95.25,
            "velocity": 0.5511811023622047
          },
          {
            "duration": 0.1875,
            "durationTicks": 144,
            "midi": 54,
            "name": "F#3",
            "ticks": 73440,
            "time": 95.625,
            "velocity": 0.5511811023622047
          },
          {
            "duration": 0.1875,
            "durationTicks": 144,
            "midi": 62,
            "name": "D4",
            "ticks": 73440,
            "time": 95.625,
            "velocity": 0.5511811023622047
          },
          {
            "duration": 0.1875,
            "durationTicks": 144,
            "midi": 50,
            "name": "D3",
            "ticks": 73440,
            "time": 95.625,
            "velocity": 0.5511811023622047
          },
          {
            "duration": 0.1875,
            "durationTicks": 144,
            "midi": 45,
            "name": "A2",
            "ticks": 73440,
            "time": 95.625,
            "velocity": 0.5511811023622047
          },
          {
            "duration": 0.1875,
            "durationTicks": 144,
            "midi": 38,
            "name": "D2",
            "ticks": 73440,
            "time": 95.625,
            "velocity": 0.5511811023622047
          },
          {
            "duration": 0.1875,
            "durationTicks": 144,
            "midi": 42,
            "name": "F#2",
            "ticks": 73440,
            "time": 95.625,
            "velocity": 0.5511811023622047
          },
          {
            "duration": 0.1875,
            "durationTicks": 144,
            "midi": 57,
            "name": "A3",
            "ticks": 73440,
            "time": 95.625,
            "velocity": 0.5511811023622047
          },
          {
            "duration": 0.1875,
            "durationTicks": 144,
            "midi": 59,
            "name": "B3",
            "ticks": 73728,
            "time": 96,
            "velocity": 0.5511811023622047
          },
          {
            "duration": 0.1875,
            "durationTicks": 144,
            "midi": 47,
            "name": "B2",
            "ticks": 73728,
            "time": 96,
            "velocity": 0.5511811023622047
          },
          {
            "duration": 0.1875,
            "durationTicks": 144,
            "midi": 64,
            "name": "E4",
            "ticks": 73728,
            "time": 96,
            "velocity": 0.5511811023622047
          },
          {
            "duration": 0.1875,
            "durationTicks": 144,
            "midi": 56,
            "name": "G#3",
            "ticks": 73728,
            "time": 96,
            "velocity": 0.5511811023622047
          },
          {
            "duration": 0.1875,
            "durationTicks": 144,
            "midi": 40,
            "name": "E2",
            "ticks": 73728,
            "time": 96,
            "velocity": 0.5511811023622047
          },
          {
            "duration": 0.1875,
            "durationTicks": 144,
            "midi": 44,
            "name": "G#2",
            "ticks": 73728,
            "time": 96,
            "velocity": 0.5511811023622047
          },
          {
            "duration": 0.1875,
            "durationTicks": 144,
            "midi": 52,
            "name": "E3",
            "ticks": 73728,
            "time": 96,
            "velocity": 0.5511811023622047
          },
          {
            "duration": 0.1875,
            "durationTicks": 144,
            "midi": 56,
            "name": "G#3",
            "ticks": 74016,
            "time": 96.375,
            "velocity": 0.5511811023622047
          },
          {
            "duration": 0.1875,
            "durationTicks": 144,
            "midi": 64,
            "name": "E4",
            "ticks": 74016,
            "time": 96.375,
            "velocity": 0.5511811023622047
          },
          {
            "duration": 0.1875,
            "durationTicks": 144,
            "midi": 40,
            "name": "E2",
            "ticks": 74016,
            "time": 96.375,
            "velocity": 0.5511811023622047
          },
          {
            "duration": 0.1875,
            "durationTicks": 144,
            "midi": 52,
            "name": "E3",
            "ticks": 74016,
            "time": 96.375,
            "velocity": 0.5511811023622047
          },
          {
            "duration": 0.1875,
            "durationTicks": 144,
            "midi": 59,
            "name": "B3",
            "ticks": 74016,
            "time": 96.375,
            "velocity": 0.5511811023622047
          },
          {
            "duration": 0.1875,
            "durationTicks": 144,
            "midi": 47,
            "name": "B2",
            "ticks": 74016,
            "time": 96.375,
            "velocity": 0.5511811023622047
          },
          {
            "duration": 0.1875,
            "durationTicks": 144,
            "midi": 44,
            "name": "G#2",
            "ticks": 74016,
            "time": 96.375,
            "velocity": 0.5511811023622047
          },
          {
            "duration": 0.1875,
            "durationTicks": 144,
            "midi": 56,
            "name": "G#3",
            "ticks": 74160,
            "time": 96.5625,
            "velocity": 0.5511811023622047
          },
          {
            "duration": 0.1875,
            "durationTicks": 144,
            "midi": 59,
            "name": "B3",
            "ticks": 74160,
            "time": 96.5625,
            "velocity": 0.5511811023622047
          },
          {
            "duration": 0.1875,
            "durationTicks": 144,
            "midi": 40,
            "name": "E2",
            "ticks": 74160,
            "time": 96.5625,
            "velocity": 0.5511811023622047
          },
          {
            "duration": 0.1875,
            "durationTicks": 144,
            "midi": 52,
            "name": "E3",
            "ticks": 74160,
            "time": 96.5625,
            "velocity": 0.5511811023622047
          },
          {
            "duration": 0.1875,
            "durationTicks": 144,
            "midi": 47,
            "name": "B2",
            "ticks": 74160,
            "time": 96.5625,
            "velocity": 0.5511811023622047
          },
          {
            "duration": 0.1875,
            "durationTicks": 144,
            "midi": 44,
            "name": "G#2",
            "ticks": 74160,
            "time": 96.5625,
            "velocity": 0.5511811023622047
          },
          {
            "duration": 0.1875,
            "durationTicks": 144,
            "midi": 64,
            "name": "E4",
            "ticks": 74160,
            "time": 96.5625,
            "velocity": 0.5511811023622047
          },
          {
            "duration": 0.5625,
            "durationTicks": 432,
            "midi": 59,
            "name": "B3",
            "ticks": 76032,
            "time": 99,
            "velocity": 0.5511811023622047
          },
          {
            "duration": 0.5625,
            "durationTicks": 432,
            "midi": 50,
            "name": "D3",
            "ticks": 76032,
            "time": 99,
            "velocity": 0.5511811023622047
          },
          {
            "duration": 0.1875,
            "durationTicks": 144,
            "midi": 67,
            "name": "G4",
            "ticks": 76032,
            "time": 99,
            "velocity": 0.5511811023622047
          },
          {
            "duration": 0.1875,
            "durationTicks": 144,
            "midi": 47,
            "name": "B2",
            "ticks": 76032,
            "time": 99,
            "velocity": 0.5511811023622047
          },
          {
            "duration": 0.5625,
            "durationTicks": 432,
            "midi": 55,
            "name": "G3",
            "ticks": 76032,
            "time": 99,
            "velocity": 0.5511811023622047
          },
          {
            "duration": 0.1875,
            "durationTicks": 144,
            "midi": 43,
            "name": "G2",
            "ticks": 76032,
            "time": 99,
            "velocity": 0.5511811023622047
          },
          {
            "duration": 0.1875,
            "durationTicks": 144,
            "midi": 62,
            "name": "D4",
            "ticks": 76032,
            "time": 99,
            "velocity": 0.5511811023622047
          },
          {
            "duration": 0.1875,
            "durationTicks": 144,
            "midi": 47,
            "name": "B2",
            "ticks": 76320,
            "time": 99.375,
            "velocity": 0.5511811023622047
          },
          {
            "duration": 0.1875,
            "durationTicks": 144,
            "midi": 62,
            "name": "D4",
            "ticks": 76320,
            "time": 99.375,
            "velocity": 0.5511811023622047
          },
          {
            "duration": 0.375,
            "durationTicks": 288,
            "midi": 59,
            "name": "B3",
            "ticks": 76320,
            "time": 99.375,
            "velocity": 0.5511811023622047
          },
          {
            "duration": 0.1875,
            "durationTicks": 144,
            "midi": 67,
            "name": "G4",
            "ticks": 76320,
            "time": 99.375,
            "velocity": 0.5511811023622047
          },
          {
            "duration": 0.375,
            "durationTicks": 288,
            "midi": 50,
            "name": "D3",
            "ticks": 76320,
            "time": 99.375,
            "velocity": 0.5511811023622047
          },
          {
            "duration": 0.375,
            "durationTicks": 288,
            "midi": 55,
            "name": "G3",
            "ticks": 76320,
            "time": 99.375,
            "velocity": 0.5511811023622047
          },
          {
            "duration": 0.1875,
            "durationTicks": 144,
            "midi": 43,
            "name": "G2",
            "ticks": 76320,
            "time": 99.375,
            "velocity": 0.5511811023622047
          },
          {
            "duration": 0.375,
            "durationTicks": 288,
            "midi": 59,
            "name": "B3",
            "ticks": 76464,
            "time": 99.5625,
            "velocity": 0.5511811023622047
          },
          {
            "duration": 0.1875,
            "durationTicks": 144,
            "midi": 47,
            "name": "B2",
            "ticks": 76464,
            "time": 99.5625,
            "velocity": 0.5511811023622047
          },
          {
            "duration": 0.375,
            "durationTicks": 288,
            "midi": 50,
            "name": "D3",
            "ticks": 76464,
            "time": 99.5625,
            "velocity": 0.5511811023622047
          },
          {
            "duration": 0.375,
            "durationTicks": 288,
            "midi": 55,
            "name": "G3",
            "ticks": 76464,
            "time": 99.5625,
            "velocity": 0.5511811023622047
          },
          {
            "duration": 0.1875,
            "durationTicks": 144,
            "midi": 67,
            "name": "G4",
            "ticks": 76464,
            "time": 99.5625,
            "velocity": 0.5511811023622047
          },
          {
            "duration": 0.1875,
            "durationTicks": 144,
            "midi": 62,
            "name": "D4",
            "ticks": 76464,
            "time": 99.5625,
            "velocity": 0.5511811023622047
          },
          {
            "duration": 0.1875,
            "durationTicks": 144,
            "midi": 43,
            "name": "G2",
            "ticks": 76464,
            "time": 99.5625,
            "velocity": 0.5511811023622047
          },
          {
            "duration": 0.1875,
            "durationTicks": 144,
            "midi": 43,
            "name": "G2",
            "ticks": 76752,
            "time": 99.9375,
            "velocity": 0.5511811023622047
          },
          {
            "duration": 0.1875,
            "durationTicks": 144,
            "midi": 50,
            "name": "D3",
            "ticks": 76752,
            "time": 99.9375,
            "velocity": 0.5511811023622047
          },
          {
            "duration": 0.1875,
            "durationTicks": 144,
            "midi": 47,
            "name": "B2",
            "ticks": 76752,
            "time": 99.9375,
            "velocity": 0.5511811023622047
          },
          {
            "duration": 0.1875,
            "durationTicks": 144,
            "midi": 59,
            "name": "B3",
            "ticks": 76752,
            "time": 99.9375,
            "velocity": 0.5511811023622047
          },
          {
            "duration": 0.1875,
            "durationTicks": 144,
            "midi": 55,
            "name": "G3",
            "ticks": 76752,
            "time": 99.9375,
            "velocity": 0.5511811023622047
          },
          {
            "duration": 0.1875,
            "durationTicks": 144,
            "midi": 62,
            "name": "D4",
            "ticks": 76752,
            "time": 99.9375,
            "velocity": 0.5511811023622047
          },
          {
            "duration": 0.1875,
            "durationTicks": 144,
            "midi": 67,
            "name": "G4",
            "ticks": 76752,
            "time": 99.9375,
            "velocity": 0.5511811023622047
          },
          {
            "duration": 0.1875,
            "durationTicks": 144,
            "midi": 47,
            "name": "B2",
            "ticks": 76896,
            "time": 100.125,
            "velocity": 0.5511811023622047
          },
          {
            "duration": 0.375,
            "durationTicks": 288,
            "midi": 50,
            "name": "D3",
            "ticks": 76896,
            "time": 100.125,
            "velocity": 0.5511811023622047
          },
          {
            "duration": 0.375,
            "durationTicks": 288,
            "midi": 55,
            "name": "G3",
            "ticks": 76896,
            "time": 100.125,
            "velocity": 0.5511811023622047
          },
          {
            "duration": 0.1875,
            "durationTicks": 144,
            "midi": 43,
            "name": "G2",
            "ticks": 76896,
            "time": 100.125,
            "velocity": 0.5511811023622047
          },
          {
            "duration": 0.375,
            "durationTicks": 288,
            "midi": 59,
            "name": "B3",
            "ticks": 76896,
            "time": 100.125,
            "velocity": 0.5511811023622047
          },
          {
            "duration": 0.1875,
            "durationTicks": 144,
            "midi": 62,
            "name": "D4",
            "ticks": 76896,
            "time": 100.125,
            "velocity": 0.5511811023622047
          },
          {
            "duration": 0.1875,
            "durationTicks": 144,
            "midi": 67,
            "name": "G4",
            "ticks": 76896,
            "time": 100.125,
            "velocity": 0.5511811023622047
          },
          {
            "duration": 0.1875,
            "durationTicks": 144,
            "midi": 59,
            "name": "B3",
            "ticks": 77040,
            "time": 100.3125,
            "velocity": 0.5511811023622047
          },
          {
            "duration": 0.1875,
            "durationTicks": 144,
            "midi": 50,
            "name": "D3",
            "ticks": 77040,
            "time": 100.3125,
            "velocity": 0.5511811023622047
          },
          {
            "duration": 0.1875,
            "durationTicks": 144,
            "midi": 67,
            "name": "G4",
            "ticks": 77040,
            "time": 100.3125,
            "velocity": 0.5511811023622047
          },
          {
            "duration": 0.1875,
            "durationTicks": 144,
            "midi": 47,
            "name": "B2",
            "ticks": 77040,
            "time": 100.3125,
            "velocity": 0.5511811023622047
          },
          {
            "duration": 0.1875,
            "durationTicks": 144,
            "midi": 62,
            "name": "D4",
            "ticks": 77040,
            "time": 100.3125,
            "velocity": 0.5511811023622047
          },
          {
            "duration": 0.1875,
            "durationTicks": 144,
            "midi": 55,
            "name": "G3",
            "ticks": 77040,
            "time": 100.3125,
            "velocity": 0.5511811023622047
          },
          {
            "duration": 0.1875,
            "durationTicks": 144,
            "midi": 43,
            "name": "G2",
            "ticks": 77040,
            "time": 100.3125,
            "velocity": 0.5511811023622047
          },
          {
            "duration": 0.1875,
            "durationTicks": 144,
            "midi": 55,
            "name": "G3",
            "ticks": 77184,
            "time": 100.5,
            "velocity": 0.5511811023622047
          },
          {
            "duration": 0.1875,
            "durationTicks": 144,
            "midi": 43,
            "name": "G2",
            "ticks": 77184,
            "time": 100.5,
            "velocity": 0.5511811023622047
          },
          {
            "duration": 0.1875,
            "durationTicks": 144,
            "midi": 40,
            "name": "E2",
            "ticks": 77184,
            "time": 100.5,
            "velocity": 0.5511811023622047
          },
          {
            "duration": 0.1875,
            "durationTicks": 144,
            "midi": 60,
            "name": "C4",
            "ticks": 77184,
            "time": 100.5,
            "velocity": 0.5511811023622047
          },
          {
            "duration": 0.5625,
            "durationTicks": 432,
            "midi": 48,
            "name": "C3",
            "ticks": 77184,
            "time": 100.5,
            "velocity": 0.5511811023622047
          },
          {
            "duration": 0.1875,
            "durationTicks": 144,
            "midi": 36,
            "name": "C2",
            "ticks": 77184,
            "time": 100.5,
            "velocity": 0.5511811023622047
          },
          {
            "duration": 0.5625,
            "durationTicks": 432,
            "midi": 52,
            "name": "E3",
            "ticks": 77184,
            "time": 100.5,
            "velocity": 0.5511811023622047
          },
          {
            "duration": 0.1875,
            "durationTicks": 144,
            "midi": 40,
            "name": "E2",
            "ticks": 77472,
            "time": 100.875,
            "velocity": 0.5511811023622047
          },
          {
            "duration": 0.375,
            "durationTicks": 288,
            "midi": 52,
            "name": "E3",
            "ticks": 77472,
            "time": 100.875,
            "velocity": 0.5511811023622047
          },
          {
            "duration": 0.1875,
            "durationTicks": 144,
            "midi": 60,
            "name": "C4",
            "ticks": 77472,
            "time": 100.875,
            "velocity": 0.5511811023622047
          },
          {
            "duration": 0.1875,
            "durationTicks": 144,
            "midi": 43,
            "name": "G2",
            "ticks": 77472,
            "time": 100.875,
            "velocity": 0.5511811023622047
          },
          {
            "duration": 0.1875,
            "durationTicks": 144,
            "midi": 36,
            "name": "C2",
            "ticks": 77472,
            "time": 100.875,
            "velocity": 0.5511811023622047
          },
          {
            "duration": 0.1875,
            "durationTicks": 144,
            "midi": 55,
            "name": "G3",
            "ticks": 77472,
            "time": 100.875,
            "velocity": 0.5511811023622047
          },
          {
            "duration": 0.375,
            "durationTicks": 288,
            "midi": 48,
            "name": "C3",
            "ticks": 77472,
            "time": 100.875,
            "velocity": 0.5511811023622047
          },
          {
            "duration": 0.5625,
            "durationTicks": 432,
            "midi": 48,
            "name": "C3",
            "ticks": 77616,
            "time": 101.0625,
            "velocity": 0.5511811023622047
          },
          {
            "duration": 0.1875,
            "durationTicks": 144,
            "midi": 55,
            "name": "G3",
            "ticks": 77616,
            "time": 101.0625,
            "velocity": 0.5511811023622047
          },
          {
            "duration": 0.1875,
            "durationTicks": 144,
            "midi": 43,
            "name": "G2",
            "ticks": 77616,
            "time": 101.0625,
            "velocity": 0.5511811023622047
          },
          {
            "duration": 0.5625,
            "durationTicks": 432,
            "midi": 52,
            "name": "E3",
            "ticks": 77616,
            "time": 101.0625,
            "velocity": 0.5511811023622047
          },
          {
            "duration": 0.1875,
            "durationTicks": 144,
            "midi": 36,
            "name": "C2",
            "ticks": 77616,
            "time": 101.0625,
            "velocity": 0.5511811023622047
          },
          {
            "duration": 0.1875,
            "durationTicks": 144,
            "midi": 60,
            "name": "C4",
            "ticks": 77616,
            "time": 101.0625,
            "velocity": 0.5511811023622047
          },
          {
            "duration": 0.1875,
            "durationTicks": 144,
            "midi": 40,
            "name": "E2",
            "ticks": 77616,
            "time": 101.0625,
            "velocity": 0.5511811023622047
          },
          {
            "duration": 0.375,
            "durationTicks": 288,
            "midi": 52,
            "name": "E3",
            "ticks": 77904,
            "time": 101.4375,
            "velocity": 0.5511811023622047
          },
          {
            "duration": 0.1875,
            "durationTicks": 144,
            "midi": 55,
            "name": "G3",
            "ticks": 77904,
            "time": 101.4375,
            "velocity": 0.5511811023622047
          },
          {
            "duration": 0.1875,
            "durationTicks": 144,
            "midi": 36,
            "name": "C2",
            "ticks": 77904,
            "time": 101.4375,
            "velocity": 0.5511811023622047
          },
          {
            "duration": 0.375,
            "durationTicks": 288,
            "midi": 48,
            "name": "C3",
            "ticks": 77904,
            "time": 101.4375,
            "velocity": 0.5511811023622047
          },
          {
            "duration": 0.1875,
            "durationTicks": 144,
            "midi": 40,
            "name": "E2",
            "ticks": 77904,
            "time": 101.4375,
            "velocity": 0.5511811023622047
          },
          {
            "duration": 0.1875,
            "durationTicks": 144,
            "midi": 60,
            "name": "C4",
            "ticks": 77904,
            "time": 101.4375,
            "velocity": 0.5511811023622047
          },
          {
            "duration": 0.1875,
            "durationTicks": 144,
            "midi": 43,
            "name": "G2",
            "ticks": 77904,
            "time": 101.4375,
            "velocity": 0.5511811023622047
          },
          {
            "duration": 0.1875,
            "durationTicks": 144,
            "midi": 43,
            "name": "G2",
            "ticks": 78048,
            "time": 101.625,
            "velocity": 0.5511811023622047
          },
          {
            "duration": 0.375,
            "durationTicks": 288,
            "midi": 48,
            "name": "C3",
            "ticks": 78048,
            "time": 101.625,
            "velocity": 0.5511811023622047
          },
          {
            "duration": 0.1875,
            "durationTicks": 144,
            "midi": 60,
            "name": "C4",
            "ticks": 78048,
            "time": 101.625,
            "velocity": 0.5511811023622047
          },
          {
            "duration": 0.1875,
            "durationTicks": 144,
            "midi": 55,
            "name": "G3",
            "ticks": 78048,
            "time": 101.625,
            "velocity": 0.5511811023622047
          },
          {
            "duration": 0.1875,
            "durationTicks": 144,
            "midi": 36,
            "name": "C2",
            "ticks": 78048,
            "time": 101.625,
            "velocity": 0.5511811023622047
          },
          {
            "duration": 0.1875,
            "durationTicks": 144,
            "midi": 40,
            "name": "E2",
            "ticks": 78048,
            "time": 101.625,
            "velocity": 0.5511811023622047
          },
          {
            "duration": 0.375,
            "durationTicks": 288,
            "midi": 52,
            "name": "E3",
            "ticks": 78048,
            "time": 101.625,
            "velocity": 0.5511811023622047
          },
          {
            "duration": 0.375,
            "durationTicks": 288,
            "midi": 52,
            "name": "E3",
            "ticks": 78192,
            "time": 101.8125,
            "velocity": 0.5511811023622047
          },
          {
            "duration": 0.1875,
            "durationTicks": 144,
            "midi": 55,
            "name": "G3",
            "ticks": 78192,
            "time": 101.8125,
            "velocity": 0.5511811023622047
          },
          {
            "duration": 0.1875,
            "durationTicks": 144,
            "midi": 36,
            "name": "C2",
            "ticks": 78192,
            "time": 101.8125,
            "velocity": 0.5511811023622047
          },
          {
            "duration": 0.1875,
            "durationTicks": 144,
            "midi": 60,
            "name": "C4",
            "ticks": 78192,
            "time": 101.8125,
            "velocity": 0.5511811023622047
          },
          {
            "duration": 0.1875,
            "durationTicks": 144,
            "midi": 43,
            "name": "G2",
            "ticks": 78192,
            "time": 101.8125,
            "velocity": 0.5511811023622047
          },
          {
            "duration": 0.1875,
            "durationTicks": 144,
            "midi": 40,
            "name": "E2",
            "ticks": 78192,
            "time": 101.8125,
            "velocity": 0.5511811023622047
          },
          {
            "duration": 0.375,
            "durationTicks": 288,
            "midi": 48,
            "name": "C3",
            "ticks": 78192,
            "time": 101.8125,
            "velocity": 0.5511811023622047
          },
          {
            "duration": 0.1875,
            "durationTicks": 144,
            "midi": 43,
            "name": "G2",
            "ticks": 78336,
            "time": 102,
            "velocity": 0.5511811023622047
          },
          {
            "duration": 0.5625,
            "durationTicks": 432,
            "midi": 48,
            "name": "C3",
            "ticks": 78336,
            "time": 102,
            "velocity": 0.5511811023622047
          },
          {
            "duration": 0.5625,
            "durationTicks": 432,
            "midi": 52,
            "name": "E3",
            "ticks": 78336,
            "time": 102,
            "velocity": 0.5511811023622047
          },
          {
            "duration": 0.1875,
            "durationTicks": 144,
            "midi": 40,
            "name": "E2",
            "ticks": 78336,
            "time": 102,
            "velocity": 0.5511811023622047
          },
          {
            "duration": 0.1875,
            "durationTicks": 144,
            "midi": 55,
            "name": "G3",
            "ticks": 78336,
            "time": 102,
            "velocity": 0.5511811023622047
          },
          {
            "duration": 0.1875,
            "durationTicks": 144,
            "midi": 36,
            "name": "C2",
            "ticks": 78336,
            "time": 102,
            "velocity": 0.5511811023622047
          },
          {
            "duration": 0.1875,
            "durationTicks": 144,
            "midi": 60,
            "name": "C4",
            "ticks": 78336,
            "time": 102,
            "velocity": 0.5511811023622047
          },
          {
            "duration": 0.1875,
            "durationTicks": 144,
            "midi": 43,
            "name": "G2",
            "ticks": 78624,
            "time": 102.375,
            "velocity": 0.5511811023622047
          },
          {
            "duration": 0.1875,
            "durationTicks": 144,
            "midi": 40,
            "name": "E2",
            "ticks": 78624,
            "time": 102.375,
            "velocity": 0.5511811023622047
          },
          {
            "duration": 0.25,
            "durationTicks": 192,
            "midi": 48,
            "name": "C3",
            "ticks": 78624,
            "time": 102.375,
            "velocity": 0.5511811023622047
          },
          {
            "duration": 0.1875,
            "durationTicks": 144,
            "midi": 55,
            "name": "G3",
            "ticks": 78624,
            "time": 102.375,
            "velocity": 0.5511811023622047
          },
          {
            "duration": 0.25,
            "durationTicks": 192,
            "midi": 52,
            "name": "E3",
            "ticks": 78624,
            "time": 102.375,
            "velocity": 0.5511811023622047
          },
          {
            "duration": 0.1875,
            "durationTicks": 144,
            "midi": 60,
            "name": "C4",
            "ticks": 78624,
            "time": 102.375,
            "velocity": 0.5511811023622047
          },
          {
            "duration": 0.1875,
            "durationTicks": 144,
            "midi": 36,
            "name": "C2",
            "ticks": 78624,
            "time": 102.375,
            "velocity": 0.5511811023622047
          },
          {
            "duration": 0.1875,
            "durationTicks": 144,
            "midi": 36,
            "name": "C2",
            "ticks": 78768,
            "time": 102.5625,
            "velocity": 0.5511811023622047
          },
          {
            "duration": 0.1875,
            "durationTicks": 144,
            "midi": 55,
            "name": "G3",
            "ticks": 78768,
            "time": 102.5625,
            "velocity": 0.5511811023622047
          },
          {
            "duration": 0.1875,
            "durationTicks": 144,
            "midi": 52,
            "name": "E3",
            "ticks": 78768,
            "time": 102.5625,
            "velocity": 0.5511811023622047
          },
          {
            "duration": 0.1875,
            "durationTicks": 144,
            "midi": 48,
            "name": "C3",
            "ticks": 78768,
            "time": 102.5625,
            "velocity": 0.5511811023622047
          },
          {
            "duration": 0.1875,
            "durationTicks": 144,
            "midi": 43,
            "name": "G2",
            "ticks": 78768,
            "time": 102.5625,
            "velocity": 0.5511811023622047
          },
          {
            "duration": 0.1875,
            "durationTicks": 144,
            "midi": 60,
            "name": "C4",
            "ticks": 78768,
            "time": 102.5625,
            "velocity": 0.5511811023622047
          },
          {
            "duration": 0.1875,
            "durationTicks": 144,
            "midi": 40,
            "name": "E2",
            "ticks": 78768,
            "time": 102.5625,
            "velocity": 0.5511811023622047
          },
          {
            "duration": 0.1875,
            "durationTicks": 144,
            "midi": 36,
            "name": "C2",
            "ticks": 79056,
            "time": 102.9375,
            "velocity": 0.5511811023622047
          },
          {
            "duration": 0.1875,
            "durationTicks": 144,
            "midi": 60,
            "name": "C4",
            "ticks": 79056,
            "time": 102.9375,
            "velocity": 0.5511811023622047
          },
          {
            "duration": 0.1875,
            "durationTicks": 144,
            "midi": 55,
            "name": "G3",
            "ticks": 79056,
            "time": 102.9375,
            "velocity": 0.5511811023622047
          },
          {
            "duration": 0.1875,
            "durationTicks": 144,
            "midi": 43,
            "name": "G2",
            "ticks": 79056,
            "time": 102.9375,
            "velocity": 0.5511811023622047
          },
          {
            "duration": 0.1875,
            "durationTicks": 144,
            "midi": 52,
            "name": "E3",
            "ticks": 79056,
            "time": 102.9375,
            "velocity": 0.5511811023622047
          },
          {
            "duration": 0.1875,
            "durationTicks": 144,
            "midi": 48,
            "name": "C3",
            "ticks": 79056,
            "time": 102.9375,
            "velocity": 0.5511811023622047
          },
          {
            "duration": 0.1875,
            "durationTicks": 144,
            "midi": 40,
            "name": "E2",
            "ticks": 79056,
            "time": 102.9375,
            "velocity": 0.5511811023622047
          },
          {
            "duration": 0.1875,
            "durationTicks": 144,
            "midi": 60,
            "name": "C4",
            "ticks": 79200,
            "time": 103.125,
            "velocity": 0.5511811023622047
          },
          {
            "duration": 0.1875,
            "durationTicks": 144,
            "midi": 55,
            "name": "G3",
            "ticks": 79200,
            "time": 103.125,
            "velocity": 0.5511811023622047
          },
          {
            "duration": 0.1875,
            "durationTicks": 144,
            "midi": 43,
            "name": "G2",
            "ticks": 79200,
            "time": 103.125,
            "velocity": 0.5511811023622047
          },
          {
            "duration": 0.1875,
            "durationTicks": 144,
            "midi": 40,
            "name": "E2",
            "ticks": 79200,
            "time": 103.125,
            "velocity": 0.5511811023622047
          },
          {
            "duration": 0.1875,
            "durationTicks": 144,
            "midi": 48,
            "name": "C3",
            "ticks": 79200,
            "time": 103.125,
            "velocity": 0.5511811023622047
          },
          {
            "duration": 0.1875,
            "durationTicks": 144,
            "midi": 36,
            "name": "C2",
            "ticks": 79200,
            "time": 103.125,
            "velocity": 0.5511811023622047
          },
          {
            "duration": 0.1875,
            "durationTicks": 144,
            "midi": 52,
            "name": "E3",
            "ticks": 79200,
            "time": 103.125,
            "velocity": 0.5511811023622047
          },
          {
            "duration": 0.1875,
            "durationTicks": 144,
            "midi": 40,
            "name": "E2",
            "ticks": 79344,
            "time": 103.3125,
            "velocity": 0.5511811023622047
          },
          {
            "duration": 0.1875,
            "durationTicks": 144,
            "midi": 60,
            "name": "C4",
            "ticks": 79344,
            "time": 103.3125,
            "velocity": 0.5511811023622047
          },
          {
            "duration": 0.1875,
            "durationTicks": 144,
            "midi": 48,
            "name": "C3",
            "ticks": 79344,
            "time": 103.3125,
            "velocity": 0.5511811023622047
          },
          {
            "duration": 0.1875,
            "durationTicks": 144,
            "midi": 43,
            "name": "G2",
            "ticks": 79344,
            "time": 103.3125,
            "velocity": 0.5511811023622047
          },
          {
            "duration": 0.1875,
            "durationTicks": 144,
            "midi": 52,
            "name": "E3",
            "ticks": 79344,
            "time": 103.3125,
            "velocity": 0.5511811023622047
          },
          {
            "duration": 0.1875,
            "durationTicks": 144,
            "midi": 55,
            "name": "G3",
            "ticks": 79344,
            "time": 103.3125,
            "velocity": 0.5511811023622047
          },
          {
            "duration": 0.1875,
            "durationTicks": 144,
            "midi": 36,
            "name": "C2",
            "ticks": 79344,
            "time": 103.3125,
            "velocity": 0.5511811023622047
          },
          {
            "duration": 0.1875,
            "durationTicks": 144,
            "midi": 50,
            "name": "D3",
            "ticks": 79488,
            "time": 103.5,
            "velocity": 0.5511811023622047
          },
          {
            "duration": 0.1875,
            "durationTicks": 144,
            "midi": 62,
            "name": "D4",
            "ticks": 79488,
            "time": 103.5,
            "velocity": 0.5511811023622047
          },
          {
            "duration": 0.1875,
            "durationTicks": 144,
            "midi": 54,
            "name": "F#3",
            "ticks": 79488,
            "time": 103.5,
            "velocity": 0.5511811023622047
          },
          {
            "duration": 0.1875,
            "durationTicks": 144,
            "midi": 45,
            "name": "A2",
            "ticks": 79488,
            "time": 103.5,
            "velocity": 0.5511811023622047
          },
          {
            "duration": 0.1875,
            "durationTicks": 144,
            "midi": 57,
            "name": "A3",
            "ticks": 79488,
            "time": 103.5,
            "velocity": 0.5511811023622047
          },
          {
            "duration": 0.1875,
            "durationTicks": 144,
            "midi": 38,
            "name": "D2",
            "ticks": 79488,
            "time": 103.5,
            "velocity": 0.5511811023622047
          },
          {
            "duration": 0.1875,
            "durationTicks": 144,
            "midi": 42,
            "name": "F#2",
            "ticks": 79488,
            "time": 103.5,
            "velocity": 0.5511811023622047
          },
          {
            "duration": 0.1875,
            "durationTicks": 144,
            "midi": 62,
            "name": "D4",
            "ticks": 79776,
            "time": 103.875,
            "velocity": 0.5511811023622047
          },
          {
            "duration": 0.1875,
            "durationTicks": 144,
            "midi": 50,
            "name": "D3",
            "ticks": 79776,
            "time": 103.875,
            "velocity": 0.5511811023622047
          },
          {
            "duration": 0.1875,
            "durationTicks": 144,
            "midi": 57,
            "name": "A3",
            "ticks": 79776,
            "time": 103.875,
            "velocity": 0.5511811023622047
          },
          {
            "duration": 0.1875,
            "durationTicks": 144,
            "midi": 38,
            "name": "D2",
            "ticks": 79776,
            "time": 103.875,
            "velocity": 0.5511811023622047
          },
          {
            "duration": 0.1875,
            "durationTicks": 144,
            "midi": 42,
            "name": "F#2",
            "ticks": 79776,
            "time": 103.875,
            "velocity": 0.5511811023622047
          },
          {
            "duration": 0.1875,
            "durationTicks": 144,
            "midi": 54,
            "name": "F#3",
            "ticks": 79776,
            "time": 103.875,
            "velocity": 0.5511811023622047
          },
          {
            "duration": 0.1875,
            "durationTicks": 144,
            "midi": 45,
            "name": "A2",
            "ticks": 79776,
            "time": 103.875,
            "velocity": 0.5511811023622047
          },
          {
            "duration": 0.1875,
            "durationTicks": 144,
            "midi": 59,
            "name": "B3",
            "ticks": 80064,
            "time": 104.25,
            "velocity": 0.5511811023622047
          },
          {
            "duration": 0.1875,
            "durationTicks": 144,
            "midi": 40,
            "name": "E2",
            "ticks": 80064,
            "time": 104.25,
            "velocity": 0.5511811023622047
          },
          {
            "duration": 0.1875,
            "durationTicks": 144,
            "midi": 44,
            "name": "G#2",
            "ticks": 80064,
            "time": 104.25,
            "velocity": 0.5511811023622047
          },
          {
            "duration": 0.1875,
            "durationTicks": 144,
            "midi": 56,
            "name": "G#3",
            "ticks": 80064,
            "time": 104.25,
            "velocity": 0.5511811023622047
          },
          {
            "duration": 0.1875,
            "durationTicks": 144,
            "midi": 47,
            "name": "B2",
            "ticks": 80064,
            "time": 104.25,
            "velocity": 0.5511811023622047
          },
          {
            "duration": 0.1875,
            "durationTicks": 144,
            "midi": 64,
            "name": "E4",
            "ticks": 80064,
            "time": 104.25,
            "velocity": 0.5511811023622047
          },
          {
            "duration": 0.5625,
            "durationTicks": 432,
            "midi": 52,
            "name": "E3",
            "ticks": 80064,
            "time": 104.25,
            "velocity": 0.5511811023622047
          },
          {
            "duration": 0.1875,
            "durationTicks": 144,
            "midi": 56,
            "name": "G#3",
            "ticks": 80352,
            "time": 104.625,
            "velocity": 0.5511811023622047
          },
          {
            "duration": 0.1875,
            "durationTicks": 144,
            "midi": 40,
            "name": "E2",
            "ticks": 80352,
            "time": 104.625,
            "velocity": 0.5511811023622047
          },
          {
            "duration": 0.1875,
            "durationTicks": 144,
            "midi": 59,
            "name": "B3",
            "ticks": 80352,
            "time": 104.625,
            "velocity": 0.5511811023622047
          },
          {
            "duration": 0.1875,
            "durationTicks": 144,
            "midi": 47,
            "name": "B2",
            "ticks": 80352,
            "time": 104.625,
            "velocity": 0.5511811023622047
          },
          {
            "duration": 0.1875,
            "durationTicks": 144,
            "midi": 44,
            "name": "G#2",
            "ticks": 80352,
            "time": 104.625,
            "velocity": 0.5511811023622047
          },
          {
            "duration": 0.1875,
            "durationTicks": 144,
            "midi": 64,
            "name": "E4",
            "ticks": 80352,
            "time": 104.625,
            "velocity": 0.5511811023622047
          },
          {
            "duration": 0.375,
            "durationTicks": 288,
            "midi": 52,
            "name": "E3",
            "ticks": 80352,
            "time": 104.625,
            "velocity": 0.5511811023622047
          },
          {
            "duration": 0.1875,
            "durationTicks": 144,
            "midi": 59,
            "name": "B3",
            "ticks": 80496,
            "time": 104.8125,
            "velocity": 0.5511811023622047
          },
          {
            "duration": 0.1875,
            "durationTicks": 144,
            "midi": 64,
            "name": "E4",
            "ticks": 80496,
            "time": 104.8125,
            "velocity": 0.5511811023622047
          },
          {
            "duration": 0.1875,
            "durationTicks": 144,
            "midi": 47,
            "name": "B2",
            "ticks": 80496,
            "time": 104.8125,
            "velocity": 0.5511811023622047
          },
          {
            "duration": 0.1875,
            "durationTicks": 144,
            "midi": 44,
            "name": "G#2",
            "ticks": 80496,
            "time": 104.8125,
            "velocity": 0.5511811023622047
          },
          {
            "duration": 0.1875,
            "durationTicks": 144,
            "midi": 40,
            "name": "E2",
            "ticks": 80496,
            "time": 104.8125,
            "velocity": 0.5511811023622047
          },
          {
            "duration": 0.5625,
            "durationTicks": 432,
            "midi": 52,
            "name": "E3",
            "ticks": 80496,
            "time": 104.8125,
            "velocity": 0.5511811023622047
          },
          {
            "duration": 0.1875,
            "durationTicks": 144,
            "midi": 56,
            "name": "G#3",
            "ticks": 80496,
            "time": 104.8125,
            "velocity": 0.5511811023622047
          },
          {
            "duration": 0.1875,
            "durationTicks": 144,
            "midi": 44,
            "name": "G#2",
            "ticks": 80784,
            "time": 105.1875,
            "velocity": 0.5511811023622047
          },
          {
            "duration": 0.1875,
            "durationTicks": 144,
            "midi": 40,
            "name": "E2",
            "ticks": 80784,
            "time": 105.1875,
            "velocity": 0.5511811023622047
          },
          {
            "duration": 0.375,
            "durationTicks": 288,
            "midi": 52,
            "name": "E3",
            "ticks": 80784,
            "time": 105.1875,
            "velocity": 0.5511811023622047
          },
          {
            "duration": 0.1875,
            "durationTicks": 144,
            "midi": 56,
            "name": "G#3",
            "ticks": 80784,
            "time": 105.1875,
            "velocity": 0.5511811023622047
          },
          {
            "duration": 0.1875,
            "durationTicks": 144,
            "midi": 64,
            "name": "E4",
            "ticks": 80784,
            "time": 105.1875,
            "velocity": 0.5511811023622047
          },
          {
            "duration": 0.1875,
            "durationTicks": 144,
            "midi": 59,
            "name": "B3",
            "ticks": 80784,
            "time": 105.1875,
            "velocity": 0.5511811023622047
          },
          {
            "duration": 0.1875,
            "durationTicks": 144,
            "midi": 47,
            "name": "B2",
            "ticks": 80784,
            "time": 105.1875,
            "velocity": 0.5511811023622047
          },
          {
            "duration": 0.1875,
            "durationTicks": 144,
            "midi": 40,
            "name": "E2",
            "ticks": 80928,
            "time": 105.375,
            "velocity": 0.5511811023622047
          },
          {
            "duration": 0.1875,
            "durationTicks": 144,
            "midi": 47,
            "name": "B2",
            "ticks": 80928,
            "time": 105.375,
            "velocity": 0.5511811023622047
          },
          {
            "duration": 0.1875,
            "durationTicks": 144,
            "midi": 44,
            "name": "G#2",
            "ticks": 80928,
            "time": 105.375,
            "velocity": 0.5511811023622047
          },
          {
            "duration": 0.1875,
            "durationTicks": 144,
            "midi": 59,
            "name": "B3",
            "ticks": 80928,
            "time": 105.375,
            "velocity": 0.5511811023622047
          },
          {
            "duration": 0.1875,
            "durationTicks": 144,
            "midi": 56,
            "name": "G#3",
            "ticks": 80928,
            "time": 105.375,
            "velocity": 0.5511811023622047
          },
          {
            "duration": 0.1875,
            "durationTicks": 144,
            "midi": 64,
            "name": "E4",
            "ticks": 80928,
            "time": 105.375,
            "velocity": 0.5511811023622047
          },
          {
            "duration": 0.375,
            "durationTicks": 288,
            "midi": 52,
            "name": "E3",
            "ticks": 80928,
            "time": 105.375,
            "velocity": 0.5511811023622047
          },
          {
            "duration": 0.1875,
            "durationTicks": 144,
            "midi": 40,
            "name": "E2",
            "ticks": 81072,
            "time": 105.5625,
            "velocity": 0.5511811023622047
          },
          {
            "duration": 0.1875,
            "durationTicks": 144,
            "midi": 44,
            "name": "G#2",
            "ticks": 81072,
            "time": 105.5625,
            "velocity": 0.5511811023622047
          },
          {
            "duration": 0.1875,
            "durationTicks": 144,
            "midi": 56,
            "name": "G#3",
            "ticks": 81072,
            "time": 105.5625,
            "velocity": 0.5511811023622047
          },
          {
            "duration": 0.375,
            "durationTicks": 288,
            "midi": 52,
            "name": "E3",
            "ticks": 81072,
            "time": 105.5625,
            "velocity": 0.5511811023622047
          },
          {
            "duration": 0.1875,
            "durationTicks": 144,
            "midi": 47,
            "name": "B2",
            "ticks": 81072,
            "time": 105.5625,
            "velocity": 0.5511811023622047
          },
          {
            "duration": 0.1875,
            "durationTicks": 144,
            "midi": 59,
            "name": "B3",
            "ticks": 81072,
            "time": 105.5625,
            "velocity": 0.5511811023622047
          },
          {
            "duration": 0.1875,
            "durationTicks": 144,
            "midi": 64,
            "name": "E4",
            "ticks": 81072,
            "time": 105.5625,
            "velocity": 0.5511811023622047
          },
          {
            "duration": 0.25,
            "durationTicks": 192,
            "midi": 52,
            "name": "E3",
            "ticks": 81216,
            "time": 105.75,
            "velocity": 0.5511811023622047
          },
          {
            "duration": 0.1875,
            "durationTicks": 144,
            "midi": 47,
            "name": "B2",
            "ticks": 81216,
            "time": 105.75,
            "velocity": 0.5511811023622047
          },
          {
            "duration": 0.1875,
            "durationTicks": 144,
            "midi": 44,
            "name": "G#2",
            "ticks": 81216,
            "time": 105.75,
            "velocity": 0.5511811023622047
          },
          {
            "duration": 0.1875,
            "durationTicks": 144,
            "midi": 59,
            "name": "B3",
            "ticks": 81216,
            "time": 105.75,
            "velocity": 0.5511811023622047
          },
          {
            "duration": 0.1875,
            "durationTicks": 144,
            "midi": 56,
            "name": "G#3",
            "ticks": 81216,
            "time": 105.75,
            "velocity": 0.5511811023622047
          },
          {
            "duration": 0.1875,
            "durationTicks": 144,
            "midi": 64,
            "name": "E4",
            "ticks": 81216,
            "time": 105.75,
            "velocity": 0.5511811023622047
          },
          {
            "duration": 0.1875,
            "durationTicks": 144,
            "midi": 40,
            "name": "E2",
            "ticks": 81216,
            "time": 105.75,
            "velocity": 0.5511811023622047
          },
          {
            "duration": 0.1875,
            "durationTicks": 144,
            "midi": 64,
            "name": "E4",
            "ticks": 81504,
            "time": 106.125,
            "velocity": 0.5511811023622047
          },
          {
            "duration": 0.1875,
            "durationTicks": 144,
            "midi": 52,
            "name": "E3",
            "ticks": 81504,
            "time": 106.125,
            "velocity": 0.5511811023622047
          },
          {
            "duration": 0.1875,
            "durationTicks": 144,
            "midi": 56,
            "name": "G#3",
            "ticks": 81504,
            "time": 106.125,
            "velocity": 0.5511811023622047
          },
          {
            "duration": 0.1875,
            "durationTicks": 144,
            "midi": 40,
            "name": "E2",
            "ticks": 81504,
            "time": 106.125,
            "velocity": 0.5511811023622047
          },
          {
            "duration": 0.1875,
            "durationTicks": 144,
            "midi": 59,
            "name": "B3",
            "ticks": 81504,
            "time": 106.125,
            "velocity": 0.5511811023622047
          },
          {
            "duration": 0.1875,
            "durationTicks": 144,
            "midi": 47,
            "name": "B2",
            "ticks": 81504,
            "time": 106.125,
            "velocity": 0.5511811023622047
          },
          {
            "duration": 0.1875,
            "durationTicks": 144,
            "midi": 44,
            "name": "G#2",
            "ticks": 81504,
            "time": 106.125,
            "velocity": 0.5511811023622047
          },
          {
            "duration": 0.1875,
            "durationTicks": 144,
            "midi": 59,
            "name": "B3",
            "ticks": 81648,
            "time": 106.3125,
            "velocity": 0.5511811023622047
          },
          {
            "duration": 0.1875,
            "durationTicks": 144,
            "midi": 52,
            "name": "E3",
            "ticks": 81648,
            "time": 106.3125,
            "velocity": 0.5511811023622047
          },
          {
            "duration": 0.1875,
            "durationTicks": 144,
            "midi": 64,
            "name": "E4",
            "ticks": 81648,
            "time": 106.3125,
            "velocity": 0.5511811023622047
          },
          {
            "duration": 0.1875,
            "durationTicks": 144,
            "midi": 40,
            "name": "E2",
            "ticks": 81648,
            "time": 106.3125,
            "velocity": 0.5511811023622047
          },
          {
            "duration": 0.1875,
            "durationTicks": 144,
            "midi": 56,
            "name": "G#3",
            "ticks": 81648,
            "time": 106.3125,
            "velocity": 0.5511811023622047
          },
          {
            "duration": 0.1875,
            "durationTicks": 144,
            "midi": 44,
            "name": "G#2",
            "ticks": 81648,
            "time": 106.3125,
            "velocity": 0.5511811023622047
          },
          {
            "duration": 0.1875,
            "durationTicks": 144,
            "midi": 47,
            "name": "B2",
            "ticks": 81648,
            "time": 106.3125,
            "velocity": 0.5511811023622047
          },
          {
            "duration": 0.1875,
            "durationTicks": 144,
            "midi": 56,
            "name": "G#3",
            "ticks": 81936,
            "time": 106.6875,
            "velocity": 0.5511811023622047
          },
          {
            "duration": 0.1875,
            "durationTicks": 144,
            "midi": 44,
            "name": "G#2",
            "ticks": 81936,
            "time": 106.6875,
            "velocity": 0.5511811023622047
          },
          {
            "duration": 0.1875,
            "durationTicks": 144,
            "midi": 52,
            "name": "E3",
            "ticks": 81936,
            "time": 106.6875,
            "velocity": 0.5511811023622047
          },
          {
            "duration": 0.1875,
            "durationTicks": 144,
            "midi": 64,
            "name": "E4",
            "ticks": 81936,
            "time": 106.6875,
            "velocity": 0.5511811023622047
          },
          {
            "duration": 0.1875,
            "durationTicks": 144,
            "midi": 40,
            "name": "E2",
            "ticks": 81936,
            "time": 106.6875,
            "velocity": 0.5511811023622047
          },
          {
            "duration": 0.1875,
            "durationTicks": 144,
            "midi": 47,
            "name": "B2",
            "ticks": 81936,
            "time": 106.6875,
            "velocity": 0.5511811023622047
          },
          {
            "duration": 0.1875,
            "durationTicks": 144,
            "midi": 59,
            "name": "B3",
            "ticks": 81936,
            "time": 106.6875,
            "velocity": 0.5511811023622047
          },
          {
            "duration": 0.1875,
            "durationTicks": 144,
            "midi": 47,
            "name": "B2",
            "ticks": 82080,
            "time": 106.875,
            "velocity": 0.5511811023622047
          },
          {
            "duration": 0.1875,
            "durationTicks": 144,
            "midi": 44,
            "name": "G#2",
            "ticks": 82080,
            "time": 106.875,
            "velocity": 0.5511811023622047
          },
          {
            "duration": 0.1875,
            "durationTicks": 144,
            "midi": 59,
            "name": "B3",
            "ticks": 82080,
            "time": 106.875,
            "velocity": 0.5511811023622047
          },
          {
            "duration": 0.1875,
            "durationTicks": 144,
            "midi": 40,
            "name": "E2",
            "ticks": 82080,
            "time": 106.875,
            "velocity": 0.5511811023622047
          },
          {
            "duration": 0.1875,
            "durationTicks": 144,
            "midi": 56,
            "name": "G#3",
            "ticks": 82080,
            "time": 106.875,
            "velocity": 0.5511811023622047
          },
          {
            "duration": 0.1875,
            "durationTicks": 144,
            "midi": 52,
            "name": "E3",
            "ticks": 82080,
            "time": 106.875,
            "velocity": 0.5511811023622047
          },
          {
            "duration": 0.1875,
            "durationTicks": 144,
            "midi": 64,
            "name": "E4",
            "ticks": 82080,
            "time": 106.875,
            "velocity": 0.5511811023622047
          },
          {
            "duration": 0.1875,
            "durationTicks": 144,
            "midi": 44,
            "name": "G#2",
            "ticks": 82224,
            "time": 107.0625,
            "velocity": 0.5511811023622047
          },
          {
            "duration": 0.1875,
            "durationTicks": 144,
            "midi": 56,
            "name": "G#3",
            "ticks": 82224,
            "time": 107.0625,
            "velocity": 0.5511811023622047
          },
          {
            "duration": 0.1875,
            "durationTicks": 144,
            "midi": 52,
            "name": "E3",
            "ticks": 82224,
            "time": 107.0625,
            "velocity": 0.5511811023622047
          },
          {
            "duration": 0.1875,
            "durationTicks": 144,
            "midi": 64,
            "name": "E4",
            "ticks": 82224,
            "time": 107.0625,
            "velocity": 0.5511811023622047
          },
          {
            "duration": 0.1875,
            "durationTicks": 144,
            "midi": 59,
            "name": "B3",
            "ticks": 82224,
            "time": 107.0625,
            "velocity": 0.5511811023622047
          },
          {
            "duration": 0.1875,
            "durationTicks": 144,
            "midi": 47,
            "name": "B2",
            "ticks": 82224,
            "time": 107.0625,
            "velocity": 0.5511811023622047
          },
          {
            "duration": 0.1875,
            "durationTicks": 144,
            "midi": 40,
            "name": "E2",
            "ticks": 82224,
            "time": 107.0625,
            "velocity": 0.5511811023622047
          },
          {
            "duration": 0.1875,
            "durationTicks": 144,
            "midi": 67,
            "name": "G4",
            "ticks": 82368,
            "time": 107.25,
            "velocity": 0.5511811023622047
          },
          {
            "duration": 0.1875,
            "durationTicks": 144,
            "midi": 59,
            "name": "B3",
            "ticks": 82368,
            "time": 107.25,
            "velocity": 0.5511811023622047
          },
          {
            "duration": 0.1875,
            "durationTicks": 144,
            "midi": 47,
            "name": "B2",
            "ticks": 82368,
            "time": 107.25,
            "velocity": 0.5511811023622047
          },
          {
            "duration": 0.1875,
            "durationTicks": 144,
            "midi": 43,
            "name": "G2",
            "ticks": 82368,
            "time": 107.25,
            "velocity": 0.5511811023622047
          },
          {
            "duration": 0.1875,
            "durationTicks": 144,
            "midi": 62,
            "name": "D4",
            "ticks": 82368,
            "time": 107.25,
            "velocity": 0.5511811023622047
          },
          {
            "duration": 0.1875,
            "durationTicks": 144,
            "midi": 50,
            "name": "D3",
            "ticks": 82368,
            "time": 107.25,
            "velocity": 0.5511811023622047
          },
          {
            "duration": 0.1875,
            "durationTicks": 144,
            "midi": 55,
            "name": "G3",
            "ticks": 82368,
            "time": 107.25,
            "velocity": 0.5511811023622047
          },
          {
            "duration": 0.1875,
            "durationTicks": 144,
            "midi": 67,
            "name": "G4",
            "ticks": 82656,
            "time": 107.625,
            "velocity": 0.5511811023622047
          },
          {
            "duration": 0.1875,
            "durationTicks": 144,
            "midi": 43,
            "name": "G2",
            "ticks": 82656,
            "time": 107.625,
            "velocity": 0.5511811023622047
          },
          {
            "duration": 0.1875,
            "durationTicks": 144,
            "midi": 47,
            "name": "B2",
            "ticks": 82656,
            "time": 107.625,
            "velocity": 0.5511811023622047
          },
          {
            "duration": 0.1875,
            "durationTicks": 144,
            "midi": 55,
            "name": "G3",
            "ticks": 82656,
            "time": 107.625,
            "velocity": 0.5511811023622047
          },
          {
            "duration": 0.1875,
            "durationTicks": 144,
            "midi": 59,
            "name": "B3",
            "ticks": 82656,
            "time": 107.625,
            "velocity": 0.5511811023622047
          },
          {
            "duration": 0.1875,
            "durationTicks": 144,
            "midi": 50,
            "name": "D3",
            "ticks": 82656,
            "time": 107.625,
            "velocity": 0.5511811023622047
          },
          {
            "duration": 0.1875,
            "durationTicks": 144,
            "midi": 62,
            "name": "D4",
            "ticks": 82656,
            "time": 107.625,
            "velocity": 0.5511811023622047
          },
          {
            "duration": 0.1875,
            "durationTicks": 144,
            "midi": 55,
            "name": "G3",
            "ticks": 82800,
            "time": 107.8125,
            "velocity": 0.5511811023622047
          },
          {
            "duration": 0.1875,
            "durationTicks": 144,
            "midi": 43,
            "name": "G2",
            "ticks": 82800,
            "time": 107.8125,
            "velocity": 0.5511811023622047
          },
          {
            "duration": 0.1875,
            "durationTicks": 144,
            "midi": 62,
            "name": "D4",
            "ticks": 82800,
            "time": 107.8125,
            "velocity": 0.5511811023622047
          },
          {
            "duration": 0.1875,
            "durationTicks": 144,
            "midi": 59,
            "name": "B3",
            "ticks": 82800,
            "time": 107.8125,
            "velocity": 0.5511811023622047
          },
          {
            "duration": 0.1875,
            "durationTicks": 144,
            "midi": 67,
            "name": "G4",
            "ticks": 82800,
            "time": 107.8125,
            "velocity": 0.5511811023622047
          },
          {
            "duration": 0.1875,
            "durationTicks": 144,
            "midi": 50,
            "name": "D3",
            "ticks": 82800,
            "time": 107.8125,
            "velocity": 0.5511811023622047
          },
          {
            "duration": 0.1875,
            "durationTicks": 144,
            "midi": 47,
            "name": "B2",
            "ticks": 82800,
            "time": 107.8125,
            "velocity": 0.5511811023622047
          },
          {
            "duration": 0.1875,
            "durationTicks": 144,
            "midi": 43,
            "name": "G2",
            "ticks": 83088,
            "time": 108.1875,
            "velocity": 0.5511811023622047
          },
          {
            "duration": 0.1875,
            "durationTicks": 144,
            "midi": 55,
            "name": "G3",
            "ticks": 83088,
            "time": 108.1875,
            "velocity": 0.5511811023622047
          },
          {
            "duration": 0.1875,
            "durationTicks": 144,
            "midi": 50,
            "name": "D3",
            "ticks": 83088,
            "time": 108.1875,
            "velocity": 0.5511811023622047
          },
          {
            "duration": 0.1875,
            "durationTicks": 144,
            "midi": 59,
            "name": "B3",
            "ticks": 83088,
            "time": 108.1875,
            "velocity": 0.5511811023622047
          },
          {
            "duration": 0.1875,
            "durationTicks": 144,
            "midi": 62,
            "name": "D4",
            "ticks": 83088,
            "time": 108.1875,
            "velocity": 0.5511811023622047
          },
          {
            "duration": 0.1875,
            "durationTicks": 144,
            "midi": 47,
            "name": "B2",
            "ticks": 83088,
            "time": 108.1875,
            "velocity": 0.5511811023622047
          },
          {
            "duration": 0.1875,
            "durationTicks": 144,
            "midi": 67,
            "name": "G4",
            "ticks": 83088,
            "time": 108.1875,
            "velocity": 0.5511811023622047
          },
          {
            "duration": 0.1875,
            "durationTicks": 144,
            "midi": 43,
            "name": "G2",
            "ticks": 83232,
            "time": 108.375,
            "velocity": 0.5511811023622047
          },
          {
            "duration": 0.1875,
            "durationTicks": 144,
            "midi": 62,
            "name": "D4",
            "ticks": 83232,
            "time": 108.375,
            "velocity": 0.5511811023622047
          },
          {
            "duration": 0.1875,
            "durationTicks": 144,
            "midi": 59,
            "name": "B3",
            "ticks": 83232,
            "time": 108.375,
            "velocity": 0.5511811023622047
          },
          {
            "duration": 0.1875,
            "durationTicks": 144,
            "midi": 47,
            "name": "B2",
            "ticks": 83232,
            "time": 108.375,
            "velocity": 0.5511811023622047
          },
          {
            "duration": 0.1875,
            "durationTicks": 144,
            "midi": 55,
            "name": "G3",
            "ticks": 83232,
            "time": 108.375,
            "velocity": 0.5511811023622047
          },
          {
            "duration": 0.1875,
            "durationTicks": 144,
            "midi": 67,
            "name": "G4",
            "ticks": 83232,
            "time": 108.375,
            "velocity": 0.5511811023622047
          },
          {
            "duration": 0.1875,
            "durationTicks": 144,
            "midi": 50,
            "name": "D3",
            "ticks": 83232,
            "time": 108.375,
            "velocity": 0.5511811023622047
          },
          {
            "duration": 0.1875,
            "durationTicks": 144,
            "midi": 67,
            "name": "G4",
            "ticks": 83376,
            "time": 108.5625,
            "velocity": 0.5511811023622047
          },
          {
            "duration": 0.1875,
            "durationTicks": 144,
            "midi": 55,
            "name": "G3",
            "ticks": 83376,
            "time": 108.5625,
            "velocity": 0.5511811023622047
          },
          {
            "duration": 0.1875,
            "durationTicks": 144,
            "midi": 62,
            "name": "D4",
            "ticks": 83376,
            "time": 108.5625,
            "velocity": 0.5511811023622047
          },
          {
            "duration": 0.1875,
            "durationTicks": 144,
            "midi": 47,
            "name": "B2",
            "ticks": 83376,
            "time": 108.5625,
            "velocity": 0.5511811023622047
          },
          {
            "duration": 0.1875,
            "durationTicks": 144,
            "midi": 50,
            "name": "D3",
            "ticks": 83376,
            "time": 108.5625,
            "velocity": 0.5511811023622047
          },
          {
            "duration": 0.1875,
            "durationTicks": 144,
            "midi": 43,
            "name": "G2",
            "ticks": 83376,
            "time": 108.5625,
            "velocity": 0.5511811023622047
          },
          {
            "duration": 0.1875,
            "durationTicks": 144,
            "midi": 59,
            "name": "B3",
            "ticks": 83376,
            "time": 108.5625,
            "velocity": 0.5511811023622047
          },
          {
            "duration": 0.1875,
            "durationTicks": 144,
            "midi": 60,
            "name": "C4",
            "ticks": 83520,
            "time": 108.75,
            "velocity": 0.5511811023622047
          },
          {
            "duration": 0.1875,
            "durationTicks": 144,
            "midi": 48,
            "name": "C3",
            "ticks": 83520,
            "time": 108.75,
            "velocity": 0.5511811023622047
          },
          {
            "duration": 0.1875,
            "durationTicks": 144,
            "midi": 43,
            "name": "G2",
            "ticks": 83520,
            "time": 108.75,
            "velocity": 0.5511811023622047
          },
          {
            "duration": 0.1875,
            "durationTicks": 144,
            "midi": 55,
            "name": "G3",
            "ticks": 83520,
            "time": 108.75,
            "velocity": 0.5511811023622047
          },
          {
            "duration": 0.1875,
            "durationTicks": 144,
            "midi": 40,
            "name": "E2",
            "ticks": 83520,
            "time": 108.75,
            "velocity": 0.5511811023622047
          },
          {
            "duration": 0.1875,
            "durationTicks": 144,
            "midi": 52,
            "name": "E3",
            "ticks": 83520,
            "time": 108.75,
            "velocity": 0.5511811023622047
          },
          {
            "duration": 0.1875,
            "durationTicks": 144,
            "midi": 36,
            "name": "C2",
            "ticks": 83520,
            "time": 108.75,
            "velocity": 0.5511811023622047
          },
          {
            "duration": 0.1875,
            "durationTicks": 144,
            "midi": 48,
            "name": "C3",
            "ticks": 83808,
            "time": 109.125,
            "velocity": 0.5511811023622047
          },
          {
            "duration": 0.1875,
            "durationTicks": 144,
            "midi": 60,
            "name": "C4",
            "ticks": 83808,
            "time": 109.125,
            "velocity": 0.5511811023622047
          },
          {
            "duration": 0.1875,
            "durationTicks": 144,
            "midi": 36,
            "name": "C2",
            "ticks": 83808,
            "time": 109.125,
            "velocity": 0.5511811023622047
          },
          {
            "duration": 0.1875,
            "durationTicks": 144,
            "midi": 40,
            "name": "E2",
            "ticks": 83808,
            "time": 109.125,
            "velocity": 0.5511811023622047
          },
          {
            "duration": 0.1875,
            "durationTicks": 144,
            "midi": 43,
            "name": "G2",
            "ticks": 83808,
            "time": 109.125,
            "velocity": 0.5511811023622047
          },
          {
            "duration": 0.1875,
            "durationTicks": 144,
            "midi": 52,
            "name": "E3",
            "ticks": 83808,
            "time": 109.125,
            "velocity": 0.5511811023622047
          },
          {
            "duration": 0.1875,
            "durationTicks": 144,
            "midi": 55,
            "name": "G3",
            "ticks": 83808,
            "time": 109.125,
            "velocity": 0.5511811023622047
          },
          {
            "duration": 0.1875,
            "durationTicks": 144,
            "midi": 36,
            "name": "C2",
            "ticks": 83952,
            "time": 109.3125,
            "velocity": 0.5511811023622047
          },
          {
            "duration": 0.1875,
            "durationTicks": 144,
            "midi": 52,
            "name": "E3",
            "ticks": 83952,
            "time": 109.3125,
            "velocity": 0.5511811023622047
          },
          {
            "duration": 0.1875,
            "durationTicks": 144,
            "midi": 55,
            "name": "G3",
            "ticks": 83952,
            "time": 109.3125,
            "velocity": 0.5511811023622047
          },
          {
            "duration": 0.1875,
            "durationTicks": 144,
            "midi": 40,
            "name": "E2",
            "ticks": 83952,
            "time": 109.3125,
            "velocity": 0.5511811023622047
          },
          {
            "duration": 0.1875,
            "durationTicks": 144,
            "midi": 60,
            "name": "C4",
            "ticks": 83952,
            "time": 109.3125,
            "velocity": 0.5511811023622047
          },
          {
            "duration": 0.1875,
            "durationTicks": 144,
            "midi": 48,
            "name": "C3",
            "ticks": 83952,
            "time": 109.3125,
            "velocity": 0.5511811023622047
          },
          {
            "duration": 0.1875,
            "durationTicks": 144,
            "midi": 43,
            "name": "G2",
            "ticks": 83952,
            "time": 109.3125,
            "velocity": 0.5511811023622047
          },
          {
            "duration": 0.1875,
            "durationTicks": 144,
            "midi": 60,
            "name": "C4",
            "ticks": 84240,
            "time": 109.6875,
            "velocity": 0.5511811023622047
          },
          {
            "duration": 0.1875,
            "durationTicks": 144,
            "midi": 52,
            "name": "E3",
            "ticks": 84240,
            "time": 109.6875,
            "velocity": 0.5511811023622047
          },
          {
            "duration": 0.1875,
            "durationTicks": 144,
            "midi": 55,
            "name": "G3",
            "ticks": 84240,
            "time": 109.6875,
            "velocity": 0.5511811023622047
          },
          {
            "duration": 0.1875,
            "durationTicks": 144,
            "midi": 36,
            "name": "C2",
            "ticks": 84240,
            "time": 109.6875,
            "velocity": 0.5511811023622047
          },
          {
            "duration": 0.1875,
            "durationTicks": 144,
            "midi": 40,
            "name": "E2",
            "ticks": 84240,
            "time": 109.6875,
            "velocity": 0.5511811023622047
          },
          {
            "duration": 0.1875,
            "durationTicks": 144,
            "midi": 48,
            "name": "C3",
            "ticks": 84240,
            "time": 109.6875,
            "velocity": 0.5511811023622047
          },
          {
            "duration": 0.1875,
            "durationTicks": 144,
            "midi": 43,
            "name": "G2",
            "ticks": 84240,
            "time": 109.6875,
            "velocity": 0.5511811023622047
          },
          {
            "duration": 0.1875,
            "durationTicks": 144,
            "midi": 55,
            "name": "G3",
            "ticks": 84384,
            "time": 109.875,
            "velocity": 0.5511811023622047
          },
          {
            "duration": 0.1875,
            "durationTicks": 144,
            "midi": 52,
            "name": "E3",
            "ticks": 84384,
            "time": 109.875,
            "velocity": 0.5511811023622047
          },
          {
            "duration": 0.1875,
            "durationTicks": 144,
            "midi": 48,
            "name": "C3",
            "ticks": 84384,
            "time": 109.875,
            "velocity": 0.5511811023622047
          },
          {
            "duration": 0.1875,
            "durationTicks": 144,
            "midi": 60,
            "name": "C4",
            "ticks": 84384,
            "time": 109.875,
            "velocity": 0.5511811023622047
          },
          {
            "duration": 0.1875,
            "durationTicks": 144,
            "midi": 40,
            "name": "E2",
            "ticks": 84384,
            "time": 109.875,
            "velocity": 0.5511811023622047
          },
          {
            "duration": 0.1875,
            "durationTicks": 144,
            "midi": 36,
            "name": "C2",
            "ticks": 84384,
            "time": 109.875,
            "velocity": 0.5511811023622047
          },
          {
            "duration": 0.1875,
            "durationTicks": 144,
            "midi": 43,
            "name": "G2",
            "ticks": 84384,
            "time": 109.875,
            "velocity": 0.5511811023622047
          },
          {
            "duration": 0.1875,
            "durationTicks": 144,
            "midi": 36,
            "name": "C2",
            "ticks": 84528,
            "time": 110.0625,
            "velocity": 0.5511811023622047
          },
          {
            "duration": 0.1875,
            "durationTicks": 144,
            "midi": 48,
            "name": "C3",
            "ticks": 84528,
            "time": 110.0625,
            "velocity": 0.5511811023622047
          },
          {
            "duration": 0.1875,
            "durationTicks": 144,
            "midi": 52,
            "name": "E3",
            "ticks": 84528,
            "time": 110.0625,
            "velocity": 0.5511811023622047
          },
          {
            "duration": 0.1875,
            "durationTicks": 144,
            "midi": 43,
            "name": "G2",
            "ticks": 84528,
            "time": 110.0625,
            "velocity": 0.5511811023622047
          },
          {
            "duration": 0.1875,
            "durationTicks": 144,
            "midi": 55,
            "name": "G3",
            "ticks": 84528,
            "time": 110.0625,
            "velocity": 0.5511811023622047
          },
          {
            "duration": 0.1875,
            "durationTicks": 144,
            "midi": 60,
            "name": "C4",
            "ticks": 84528,
            "time": 110.0625,
            "velocity": 0.5511811023622047
          },
          {
            "duration": 0.1875,
            "durationTicks": 144,
            "midi": 40,
            "name": "E2",
            "ticks": 84528,
            "time": 110.0625,
            "velocity": 0.5511811023622047
          },
          {
            "duration": 0.1875,
            "durationTicks": 144,
            "midi": 40,
            "name": "E2",
            "ticks": 84672,
            "time": 110.25,
            "velocity": 0.5511811023622047
          },
          {
            "duration": 0.1875,
            "durationTicks": 144,
            "midi": 36,
            "name": "C2",
            "ticks": 84672,
            "time": 110.25,
            "velocity": 0.5511811023622047
          },
          {
            "duration": 0.1875,
            "durationTicks": 144,
            "midi": 43,
            "name": "G2",
            "ticks": 84672,
            "time": 110.25,
            "velocity": 0.5511811023622047
          },
          {
            "duration": 0.1875,
            "durationTicks": 144,
            "midi": 48,
            "name": "C3",
            "ticks": 84672,
            "time": 110.25,
            "velocity": 0.5511811023622047
          },
          {
            "duration": 0.1875,
            "durationTicks": 144,
            "midi": 52,
            "name": "E3",
            "ticks": 84672,
            "time": 110.25,
            "velocity": 0.5511811023622047
          },
          {
            "duration": 0.1875,
            "durationTicks": 144,
            "midi": 60,
            "name": "C4",
            "ticks": 84672,
            "time": 110.25,
            "velocity": 0.5511811023622047
          },
          {
            "duration": 0.1875,
            "durationTicks": 144,
            "midi": 55,
            "name": "G3",
            "ticks": 84672,
            "time": 110.25,
            "velocity": 0.5511811023622047
          },
          {
            "duration": 0.1875,
            "durationTicks": 144,
            "midi": 40,
            "name": "E2",
            "ticks": 84960,
            "time": 110.625,
            "velocity": 0.5511811023622047
          },
          {
            "duration": 0.1875,
            "durationTicks": 144,
            "midi": 55,
            "name": "G3",
            "ticks": 84960,
            "time": 110.625,
            "velocity": 0.5511811023622047
          },
          {
            "duration": 0.1875,
            "durationTicks": 144,
            "midi": 48,
            "name": "C3",
            "ticks": 84960,
            "time": 110.625,
            "velocity": 0.5511811023622047
          },
          {
            "duration": 0.1875,
            "durationTicks": 144,
            "midi": 36,
            "name": "C2",
            "ticks": 84960,
            "time": 110.625,
            "velocity": 0.5511811023622047
          },
          {
            "duration": 0.1875,
            "durationTicks": 144,
            "midi": 52,
            "name": "E3",
            "ticks": 84960,
            "time": 110.625,
            "velocity": 0.5511811023622047
          },
          {
            "duration": 0.1875,
            "durationTicks": 144,
            "midi": 43,
            "name": "G2",
            "ticks": 84960,
            "time": 110.625,
            "velocity": 0.5511811023622047
          },
          {
            "duration": 0.1875,
            "durationTicks": 144,
            "midi": 60,
            "name": "C4",
            "ticks": 84960,
            "time": 110.625,
            "velocity": 0.5511811023622047
          },
          {
            "duration": 0.1875,
            "durationTicks": 144,
            "midi": 36,
            "name": "C2",
            "ticks": 85104,
            "time": 110.8125,
            "velocity": 0.5511811023622047
          },
          {
            "duration": 0.1875,
            "durationTicks": 144,
            "midi": 40,
            "name": "E2",
            "ticks": 85104,
            "time": 110.8125,
            "velocity": 0.5511811023622047
          },
          {
            "duration": 0.1875,
            "durationTicks": 144,
            "midi": 43,
            "name": "G2",
            "ticks": 85104,
            "time": 110.8125,
            "velocity": 0.5511811023622047
          },
          {
            "duration": 0.1875,
            "durationTicks": 144,
            "midi": 55,
            "name": "G3",
            "ticks": 85104,
            "time": 110.8125,
            "velocity": 0.5511811023622047
          },
          {
            "duration": 0.1875,
            "durationTicks": 144,
            "midi": 52,
            "name": "E3",
            "ticks": 85104,
            "time": 110.8125,
            "velocity": 0.5511811023622047
          },
          {
            "duration": 0.1875,
            "durationTicks": 144,
            "midi": 48,
            "name": "C3",
            "ticks": 85104,
            "time": 110.8125,
            "velocity": 0.5511811023622047
          },
          {
            "duration": 0.1875,
            "durationTicks": 144,
            "midi": 60,
            "name": "C4",
            "ticks": 85104,
            "time": 110.8125,
            "velocity": 0.5511811023622047
          },
          {
            "duration": 0.1875,
            "durationTicks": 144,
            "midi": 60,
            "name": "C4",
            "ticks": 85392,
            "time": 111.1875,
            "velocity": 0.5511811023622047
          },
          {
            "duration": 0.1875,
            "durationTicks": 144,
            "midi": 55,
            "name": "G3",
            "ticks": 85392,
            "time": 111.1875,
            "velocity": 0.5511811023622047
          },
          {
            "duration": 0.1875,
            "durationTicks": 144,
            "midi": 36,
            "name": "C2",
            "ticks": 85392,
            "time": 111.1875,
            "velocity": 0.5511811023622047
          },
          {
            "duration": 0.1875,
            "durationTicks": 144,
            "midi": 48,
            "name": "C3",
            "ticks": 85392,
            "time": 111.1875,
            "velocity": 0.5511811023622047
          },
          {
            "duration": 0.1875,
            "durationTicks": 144,
            "midi": 43,
            "name": "G2",
            "ticks": 85392,
            "time": 111.1875,
            "velocity": 0.5511811023622047
          },
          {
            "duration": 0.1875,
            "durationTicks": 144,
            "midi": 40,
            "name": "E2",
            "ticks": 85392,
            "time": 111.1875,
            "velocity": 0.5511811023622047
          },
          {
            "duration": 0.1875,
            "durationTicks": 144,
            "midi": 52,
            "name": "E3",
            "ticks": 85392,
            "time": 111.1875,
            "velocity": 0.5511811023622047
          },
          {
            "duration": 0.1875,
            "durationTicks": 144,
            "midi": 60,
            "name": "C4",
            "ticks": 85536,
            "time": 111.375,
            "velocity": 0.5511811023622047
          },
          {
            "duration": 0.1875,
            "durationTicks": 144,
            "midi": 48,
            "name": "C3",
            "ticks": 85536,
            "time": 111.375,
            "velocity": 0.5511811023622047
          },
          {
            "duration": 0.1875,
            "durationTicks": 144,
            "midi": 55,
            "name": "G3",
            "ticks": 85536,
            "time": 111.375,
            "velocity": 0.5511811023622047
          },
          {
            "duration": 0.1875,
            "durationTicks": 144,
            "midi": 36,
            "name": "C2",
            "ticks": 85536,
            "time": 111.375,
            "velocity": 0.5511811023622047
          },
          {
            "duration": 0.1875,
            "durationTicks": 144,
            "midi": 52,
            "name": "E3",
            "ticks": 85536,
            "time": 111.375,
            "velocity": 0.5511811023622047
          },
          {
            "duration": 0.1875,
            "durationTicks": 144,
            "midi": 40,
            "name": "E2",
            "ticks": 85536,
            "time": 111.375,
            "velocity": 0.5511811023622047
          },
          {
            "duration": 0.1875,
            "durationTicks": 144,
            "midi": 43,
            "name": "G2",
            "ticks": 85536,
            "time": 111.375,
            "velocity": 0.5511811023622047
          },
          {
            "duration": 0.1875,
            "durationTicks": 144,
            "midi": 36,
            "name": "C2",
            "ticks": 85680,
            "time": 111.5625,
            "velocity": 0.5511811023622047
          },
          {
            "duration": 0.1875,
            "durationTicks": 144,
            "midi": 60,
            "name": "C4",
            "ticks": 85680,
            "time": 111.5625,
            "velocity": 0.5511811023622047
          },
          {
            "duration": 0.1875,
            "durationTicks": 144,
            "midi": 52,
            "name": "E3",
            "ticks": 85680,
            "time": 111.5625,
            "velocity": 0.5511811023622047
          },
          {
            "duration": 0.1875,
            "durationTicks": 144,
            "midi": 40,
            "name": "E2",
            "ticks": 85680,
            "time": 111.5625,
            "velocity": 0.5511811023622047
          },
          {
            "duration": 0.1875,
            "durationTicks": 144,
            "midi": 55,
            "name": "G3",
            "ticks": 85680,
            "time": 111.5625,
            "velocity": 0.5511811023622047
          },
          {
            "duration": 0.1875,
            "durationTicks": 144,
            "midi": 48,
            "name": "C3",
            "ticks": 85680,
            "time": 111.5625,
            "velocity": 0.5511811023622047
          },
          {
            "duration": 0.1875,
            "durationTicks": 144,
            "midi": 43,
            "name": "G2",
            "ticks": 85680,
            "time": 111.5625,
            "velocity": 0.5511811023622047
          },
          {
            "duration": 0.1875,
            "durationTicks": 144,
            "midi": 42,
            "name": "F#2",
            "ticks": 85824,
            "time": 111.75,
            "velocity": 0.5511811023622047
          },
          {
            "duration": 0.1875,
            "durationTicks": 144,
            "midi": 38,
            "name": "D2",
            "ticks": 85824,
            "time": 111.75,
            "velocity": 0.5511811023622047
          },
          {
            "duration": 0.1875,
            "durationTicks": 144,
            "midi": 54,
            "name": "F#3",
            "ticks": 85824,
            "time": 111.75,
            "velocity": 0.5511811023622047
          },
          {
            "duration": 0.1875,
            "durationTicks": 144,
            "midi": 57,
            "name": "A3",
            "ticks": 85824,
            "time": 111.75,
            "velocity": 0.5511811023622047
          },
          {
            "duration": 0.1875,
            "durationTicks": 144,
            "midi": 50,
            "name": "D3",
            "ticks": 85824,
            "time": 111.75,
            "velocity": 0.5511811023622047
          },
          {
            "duration": 0.1875,
            "durationTicks": 144,
            "midi": 62,
            "name": "D4",
            "ticks": 85824,
            "time": 111.75,
            "velocity": 0.5511811023622047
          },
          {
            "duration": 0.1875,
            "durationTicks": 144,
            "midi": 45,
            "name": "A2",
            "ticks": 85824,
            "time": 111.75,
            "velocity": 0.5511811023622047
          },
          {
            "duration": 0.1875,
            "durationTicks": 144,
            "midi": 42,
            "name": "F#2",
            "ticks": 86112,
            "time": 112.125,
            "velocity": 0.5511811023622047
          },
          {
            "duration": 0.1875,
            "durationTicks": 144,
            "midi": 62,
            "name": "D4",
            "ticks": 86112,
            "time": 112.125,
            "velocity": 0.5511811023622047
          },
          {
            "duration": 0.1875,
            "durationTicks": 144,
            "midi": 57,
            "name": "A3",
            "ticks": 86112,
            "time": 112.125,
            "velocity": 0.5511811023622047
          },
          {
            "duration": 0.1875,
            "durationTicks": 144,
            "midi": 38,
            "name": "D2",
            "ticks": 86112,
            "time": 112.125,
            "velocity": 0.5511811023622047
          },
          {
            "duration": 0.1875,
            "durationTicks": 144,
            "midi": 54,
            "name": "F#3",
            "ticks": 86112,
            "time": 112.125,
            "velocity": 0.5511811023622047
          },
          {
            "duration": 0.1875,
            "durationTicks": 144,
            "midi": 50,
            "name": "D3",
            "ticks": 86112,
            "time": 112.125,
            "velocity": 0.5511811023622047
          },
          {
            "duration": 0.1875,
            "durationTicks": 144,
            "midi": 45,
            "name": "A2",
            "ticks": 86112,
            "time": 112.125,
            "velocity": 0.5511811023622047
          },
          {
            "duration": 0.1875,
            "durationTicks": 144,
            "midi": 44,
            "name": "G#2",
            "ticks": 86400,
            "time": 112.5,
            "velocity": 0.5511811023622047
          },
          {
            "duration": 0.1875,
            "durationTicks": 144,
            "midi": 52,
            "name": "E3",
            "ticks": 86400,
            "time": 112.5,
            "velocity": 0.5511811023622047
          },
          {
            "duration": 0.1875,
            "durationTicks": 144,
            "midi": 56,
            "name": "G#3",
            "ticks": 86400,
            "time": 112.5,
            "velocity": 0.5511811023622047
          },
          {
            "duration": 0.5625,
            "durationTicks": 432,
            "midi": 52,
            "name": "E3",
            "ticks": 86400,
            "time": 112.5,
            "velocity": 0.5511811023622047
          },
          {
            "duration": 0.1875,
            "durationTicks": 144,
            "midi": 47,
            "name": "B2",
            "ticks": 86400,
            "time": 112.5,
            "velocity": 0.5511811023622047
          },
          {
            "duration": 0.1875,
            "durationTicks": 144,
            "midi": 40,
            "name": "E2",
            "ticks": 86400,
            "time": 112.5,
            "velocity": 0.5511811023622047
          },
          {
            "duration": 0.1875,
            "durationTicks": 144,
            "midi": 64,
            "name": "E4",
            "ticks": 86400,
            "time": 112.5,
            "velocity": 0.5511811023622047
          },
          {
            "duration": 0.1875,
            "durationTicks": 144,
            "midi": 59,
            "name": "B3",
            "ticks": 86400,
            "time": 112.5,
            "velocity": 0.5511811023622047
          },
          {
            "duration": 0.375,
            "durationTicks": 288,
            "midi": 52,
            "name": "E3",
            "ticks": 86688,
            "time": 112.875,
            "velocity": 0.5511811023622047
          },
          {
            "duration": 0.1875,
            "durationTicks": 144,
            "midi": 44,
            "name": "G#2",
            "ticks": 86688,
            "time": 112.875,
            "velocity": 0.5511811023622047
          },
          {
            "duration": 0.1875,
            "durationTicks": 144,
            "midi": 40,
            "name": "E2",
            "ticks": 86688,
            "time": 112.875,
            "velocity": 0.5511811023622047
          },
          {
            "duration": 0.1875,
            "durationTicks": 144,
            "midi": 56,
            "name": "G#3",
            "ticks": 86688,
            "time": 112.875,
            "velocity": 0.5511811023622047
          },
          {
            "duration": 0.1875,
            "durationTicks": 144,
            "midi": 64,
            "name": "E4",
            "ticks": 86688,
            "time": 112.875,
            "velocity": 0.5511811023622047
          },
          {
            "duration": 0.1875,
            "durationTicks": 144,
            "midi": 47,
            "name": "B2",
            "ticks": 86688,
            "time": 112.875,
            "velocity": 0.5511811023622047
          },
          {
            "duration": 0.1875,
            "durationTicks": 144,
            "midi": 59,
            "name": "B3",
            "ticks": 86688,
            "time": 112.875,
            "velocity": 0.5511811023622047
          },
          {
            "duration": 0.1875,
            "durationTicks": 144,
            "midi": 59,
            "name": "B3",
            "ticks": 86832,
            "time": 113.0625,
            "velocity": 0.5511811023622047
          },
          {
            "duration": 0.1875,
            "durationTicks": 144,
            "midi": 47,
            "name": "B2",
            "ticks": 86832,
            "time": 113.0625,
            "velocity": 0.5511811023622047
          },
          {
            "duration": 0.1875,
            "durationTicks": 144,
            "midi": 56,
            "name": "G#3",
            "ticks": 86832,
            "time": 113.0625,
            "velocity": 0.5511811023622047
          },
          {
            "duration": 0.1875,
            "durationTicks": 144,
            "midi": 40,
            "name": "E2",
            "ticks": 86832,
            "time": 113.0625,
            "velocity": 0.5511811023622047
          },
          {
            "duration": 0.1875,
            "durationTicks": 144,
            "midi": 64,
            "name": "E4",
            "ticks": 86832,
            "time": 113.0625,
            "velocity": 0.5511811023622047
          },
          {
            "duration": 0.1875,
            "durationTicks": 144,
            "midi": 44,
            "name": "G#2",
            "ticks": 86832,
            "time": 113.0625,
            "velocity": 0.5511811023622047
          },
          {
            "duration": 0.5625,
            "durationTicks": 432,
            "midi": 52,
            "name": "E3",
            "ticks": 86832,
            "time": 113.0625,
            "velocity": 0.5511811023622047
          },
          {
            "duration": 0.1875,
            "durationTicks": 144,
            "midi": 64,
            "name": "E4",
            "ticks": 87120,
            "time": 113.4375,
            "velocity": 0.5511811023622047
          },
          {
            "duration": 0.1875,
            "durationTicks": 144,
            "midi": 47,
            "name": "B2",
            "ticks": 87120,
            "time": 113.4375,
            "velocity": 0.5511811023622047
          },
          {
            "duration": 0.375,
            "durationTicks": 288,
            "midi": 52,
            "name": "E3",
            "ticks": 87120,
            "time": 113.4375,
            "velocity": 0.5511811023622047
          },
          {
            "duration": 0.1875,
            "durationTicks": 144,
            "midi": 59,
            "name": "B3",
            "ticks": 87120,
            "time": 113.4375,
            "velocity": 0.5511811023622047
          },
          {
            "duration": 0.1875,
            "durationTicks": 144,
            "midi": 40,
            "name": "E2",
            "ticks": 87120,
            "time": 113.4375,
            "velocity": 0.5511811023622047
          },
          {
            "duration": 0.1875,
            "durationTicks": 144,
            "midi": 44,
            "name": "G#2",
            "ticks": 87120,
            "time": 113.4375,
            "velocity": 0.5511811023622047
          },
          {
            "duration": 0.1875,
            "durationTicks": 144,
            "midi": 56,
            "name": "G#3",
            "ticks": 87120,
            "time": 113.4375,
            "velocity": 0.5511811023622047
          },
          {
            "duration": 0.1875,
            "durationTicks": 144,
            "midi": 47,
            "name": "B2",
            "ticks": 87264,
            "time": 113.625,
            "velocity": 0.5511811023622047
          },
          {
            "duration": 0.375,
            "durationTicks": 288,
            "midi": 52,
            "name": "E3",
            "ticks": 87264,
            "time": 113.625,
            "velocity": 0.5511811023622047
          },
          {
            "duration": 0.1875,
            "durationTicks": 144,
            "midi": 40,
            "name": "E2",
            "ticks": 87264,
            "time": 113.625,
            "velocity": 0.5511811023622047
          },
          {
            "duration": 0.1875,
            "durationTicks": 144,
            "midi": 44,
            "name": "G#2",
            "ticks": 87264,
            "time": 113.625,
            "velocity": 0.5511811023622047
          },
          {
            "duration": 0.1875,
            "durationTicks": 144,
            "midi": 64,
            "name": "E4",
            "ticks": 87264,
            "time": 113.625,
            "velocity": 0.5511811023622047
          },
          {
            "duration": 0.1875,
            "durationTicks": 144,
            "midi": 56,
            "name": "G#3",
            "ticks": 87264,
            "time": 113.625,
            "velocity": 0.5511811023622047
          },
          {
            "duration": 0.1875,
            "durationTicks": 144,
            "midi": 59,
            "name": "B3",
            "ticks": 87264,
            "time": 113.625,
            "velocity": 0.5511811023622047
          },
          {
            "duration": 0.1875,
            "durationTicks": 144,
            "midi": 59,
            "name": "B3",
            "ticks": 87408,
            "time": 113.8125,
            "velocity": 0.5511811023622047
          },
          {
            "duration": 0.1875,
            "durationTicks": 144,
            "midi": 56,
            "name": "G#3",
            "ticks": 87408,
            "time": 113.8125,
            "velocity": 0.5511811023622047
          },
          {
            "duration": 0.1875,
            "durationTicks": 144,
            "midi": 47,
            "name": "B2",
            "ticks": 87408,
            "time": 113.8125,
            "velocity": 0.5511811023622047
          },
          {
            "duration": 0.1875,
            "durationTicks": 144,
            "midi": 64,
            "name": "E4",
            "ticks": 87408,
            "time": 113.8125,
            "velocity": 0.5511811023622047
          },
          {
            "duration": 0.1875,
            "durationTicks": 144,
            "midi": 44,
            "name": "G#2",
            "ticks": 87408,
            "time": 113.8125,
            "velocity": 0.5511811023622047
          },
          {
            "duration": 0.375,
            "durationTicks": 288,
            "midi": 52,
            "name": "E3",
            "ticks": 87408,
            "time": 113.8125,
            "velocity": 0.5511811023622047
          },
          {
            "duration": 0.1875,
            "durationTicks": 144,
            "midi": 40,
            "name": "E2",
            "ticks": 87408,
            "time": 113.8125,
            "velocity": 0.5511811023622047
          },
          {
            "duration": 0.1875,
            "durationTicks": 144,
            "midi": 56,
            "name": "G#3",
            "ticks": 87552,
            "time": 114,
            "velocity": 0.5511811023622047
          },
          {
            "duration": 0.1875,
            "durationTicks": 144,
            "midi": 59,
            "name": "B3",
            "ticks": 87552,
            "time": 114,
            "velocity": 0.5511811023622047
          },
          {
            "duration": 0.25,
            "durationTicks": 192,
            "midi": 52,
            "name": "E3",
            "ticks": 87552,
            "time": 114,
            "velocity": 0.5511811023622047
          },
          {
            "duration": 0.1875,
            "durationTicks": 144,
            "midi": 47,
            "name": "B2",
            "ticks": 87552,
            "time": 114,
            "velocity": 0.5511811023622047
          },
          {
            "duration": 0.1875,
            "durationTicks": 144,
            "midi": 64,
            "name": "E4",
            "ticks": 87552,
            "time": 114,
            "velocity": 0.5511811023622047
          },
          {
            "duration": 0.1875,
            "durationTicks": 144,
            "midi": 44,
            "name": "G#2",
            "ticks": 87552,
            "time": 114,
            "velocity": 0.5511811023622047
          },
          {
            "duration": 0.1875,
            "durationTicks": 144,
            "midi": 40,
            "name": "E2",
            "ticks": 87552,
            "time": 114,
            "velocity": 0.5511811023622047
          },
          {
            "duration": 0.1875,
            "durationTicks": 144,
            "midi": 64,
            "name": "E4",
            "ticks": 87840,
            "time": 114.375,
            "velocity": 0.5511811023622047
          },
          {
            "duration": 0.1875,
            "durationTicks": 144,
            "midi": 44,
            "name": "G#2",
            "ticks": 87840,
            "time": 114.375,
            "velocity": 0.5511811023622047
          },
          {
            "duration": 0.1875,
            "durationTicks": 144,
            "midi": 40,
            "name": "E2",
            "ticks": 87840,
            "time": 114.375,
            "velocity": 0.5511811023622047
          },
          {
            "duration": 0.1875,
            "durationTicks": 144,
            "midi": 47,
            "name": "B2",
            "ticks": 87840,
            "time": 114.375,
            "velocity": 0.5511811023622047
          },
          {
            "duration": 0.1875,
            "durationTicks": 144,
            "midi": 59,
            "name": "B3",
            "ticks": 87840,
            "time": 114.375,
            "velocity": 0.5511811023622047
          },
          {
            "duration": 0.1875,
            "durationTicks": 144,
            "midi": 52,
            "name": "E3",
            "ticks": 87840,
            "time": 114.375,
            "velocity": 0.5511811023622047
          },
          {
            "duration": 0.1875,
            "durationTicks": 144,
            "midi": 56,
            "name": "G#3",
            "ticks": 87840,
            "time": 114.375,
            "velocity": 0.5511811023622047
          },
          {
            "duration": 0.1875,
            "durationTicks": 144,
            "midi": 56,
            "name": "G#3",
            "ticks": 87984,
            "time": 114.5625,
            "velocity": 0.5511811023622047
          },
          {
            "duration": 0.1875,
            "durationTicks": 144,
            "midi": 59,
            "name": "B3",
            "ticks": 87984,
            "time": 114.5625,
            "velocity": 0.5511811023622047
          },
          {
            "duration": 0.1875,
            "durationTicks": 144,
            "midi": 44,
            "name": "G#2",
            "ticks": 87984,
            "time": 114.5625,
            "velocity": 0.5511811023622047
          },
          {
            "duration": 0.1875,
            "durationTicks": 144,
            "midi": 40,
            "name": "E2",
            "ticks": 87984,
            "time": 114.5625,
            "velocity": 0.5511811023622047
          },
          {
            "duration": 0.1875,
            "durationTicks": 144,
            "midi": 52,
            "name": "E3",
            "ticks": 87984,
            "time": 114.5625,
            "velocity": 0.5511811023622047
          },
          {
            "duration": 0.1875,
            "durationTicks": 144,
            "midi": 64,
            "name": "E4",
            "ticks": 87984,
            "time": 114.5625,
            "velocity": 0.5511811023622047
          },
          {
            "duration": 0.1875,
            "durationTicks": 144,
            "midi": 47,
            "name": "B2",
            "ticks": 87984,
            "time": 114.5625,
            "velocity": 0.5511811023622047
          },
          {
            "duration": 0.1875,
            "durationTicks": 144,
            "midi": 59,
            "name": "B3",
            "ticks": 88272,
            "time": 114.9375,
            "velocity": 0.5511811023622047
          },
          {
            "duration": 0.1875,
            "durationTicks": 144,
            "midi": 40,
            "name": "E2",
            "ticks": 88272,
            "time": 114.9375,
            "velocity": 0.5511811023622047
          },
          {
            "duration": 0.1875,
            "durationTicks": 144,
            "midi": 64,
            "name": "E4",
            "ticks": 88272,
            "time": 114.9375,
            "velocity": 0.5511811023622047
          },
          {
            "duration": 0.1875,
            "durationTicks": 144,
            "midi": 56,
            "name": "G#3",
            "ticks": 88272,
            "time": 114.9375,
            "velocity": 0.5511811023622047
          },
          {
            "duration": 0.1875,
            "durationTicks": 144,
            "midi": 44,
            "name": "G#2",
            "ticks": 88272,
            "time": 114.9375,
            "velocity": 0.5511811023622047
          },
          {
            "duration": 0.1875,
            "durationTicks": 144,
            "midi": 52,
            "name": "E3",
            "ticks": 88272,
            "time": 114.9375,
            "velocity": 0.5511811023622047
          },
          {
            "duration": 0.1875,
            "durationTicks": 144,
            "midi": 47,
            "name": "B2",
            "ticks": 88272,
            "time": 114.9375,
            "velocity": 0.5511811023622047
          },
          {
            "duration": 0.1875,
            "durationTicks": 144,
            "midi": 47,
            "name": "B2",
            "ticks": 88416,
            "time": 115.125,
            "velocity": 0.5511811023622047
          },
          {
            "duration": 0.1875,
            "durationTicks": 144,
            "midi": 52,
            "name": "E3",
            "ticks": 88416,
            "time": 115.125,
            "velocity": 0.5511811023622047
          },
          {
            "duration": 0.1875,
            "durationTicks": 144,
            "midi": 59,
            "name": "B3",
            "ticks": 88416,
            "time": 115.125,
            "velocity": 0.5511811023622047
          },
          {
            "duration": 0.1875,
            "durationTicks": 144,
            "midi": 56,
            "name": "G#3",
            "ticks": 88416,
            "time": 115.125,
            "velocity": 0.5511811023622047
          },
          {
            "duration": 0.1875,
            "durationTicks": 144,
            "midi": 64,
            "name": "E4",
            "ticks": 88416,
            "time": 115.125,
            "velocity": 0.5511811023622047
          },
          {
            "duration": 0.1875,
            "durationTicks": 144,
            "midi": 44,
            "name": "G#2",
            "ticks": 88416,
            "time": 115.125,
            "velocity": 0.5511811023622047
          },
          {
            "duration": 0.1875,
            "durationTicks": 144,
            "midi": 40,
            "name": "E2",
            "ticks": 88416,
            "time": 115.125,
            "velocity": 0.5511811023622047
          },
          {
            "duration": 0.1875,
            "durationTicks": 144,
            "midi": 52,
            "name": "E3",
            "ticks": 88560,
            "time": 115.3125,
            "velocity": 0.5511811023622047
          },
          {
            "duration": 0.1875,
            "durationTicks": 144,
            "midi": 59,
            "name": "B3",
            "ticks": 88560,
            "time": 115.3125,
            "velocity": 0.5511811023622047
          },
          {
            "duration": 0.1875,
            "durationTicks": 144,
            "midi": 47,
            "name": "B2",
            "ticks": 88560,
            "time": 115.3125,
            "velocity": 0.5511811023622047
          },
          {
            "duration": 0.1875,
            "durationTicks": 144,
            "midi": 40,
            "name": "E2",
            "ticks": 88560,
            "time": 115.3125,
            "velocity": 0.5511811023622047
          },
          {
            "duration": 0.1875,
            "durationTicks": 144,
            "midi": 56,
            "name": "G#3",
            "ticks": 88560,
            "time": 115.3125,
            "velocity": 0.5511811023622047
          },
          {
            "duration": 0.1875,
            "durationTicks": 144,
            "midi": 64,
            "name": "E4",
            "ticks": 88560,
            "time": 115.3125,
            "velocity": 0.5511811023622047
          },
          {
            "duration": 0.1875,
            "durationTicks": 144,
            "midi": 44,
            "name": "G#2",
            "ticks": 88560,
            "time": 115.3125,
            "velocity": 0.5511811023622047
          },
          {
            "duration": 0.1875,
            "durationTicks": 144,
            "midi": 47,
            "name": "B2",
            "ticks": 88704,
            "time": 115.5,
            "velocity": 0.5511811023622047
          },
          {
            "duration": 0.1875,
            "durationTicks": 144,
            "midi": 67,
            "name": "G4",
            "ticks": 88704,
            "time": 115.5,
            "velocity": 0.5511811023622047
          },
          {
            "duration": 0.1875,
            "durationTicks": 144,
            "midi": 59,
            "name": "B3",
            "ticks": 88704,
            "time": 115.5,
            "velocity": 0.5511811023622047
          },
          {
            "duration": 0.1875,
            "durationTicks": 144,
            "midi": 62,
            "name": "D4",
            "ticks": 88704,
            "time": 115.5,
            "velocity": 0.5511811023622047
          },
          {
            "duration": 0.1875,
            "durationTicks": 144,
            "midi": 43,
            "name": "G2",
            "ticks": 88704,
            "time": 115.5,
            "velocity": 0.5511811023622047
          },
          {
            "duration": 0.1875,
            "durationTicks": 144,
            "midi": 50,
            "name": "D3",
            "ticks": 88704,
            "time": 115.5,
            "velocity": 0.5511811023622047
          },
          {
            "duration": 0.1875,
            "durationTicks": 144,
            "midi": 55,
            "name": "G3",
            "ticks": 88704,
            "time": 115.5,
            "velocity": 0.5511811023622047
          },
          {
            "duration": 0.1875,
            "durationTicks": 144,
            "midi": 43,
            "name": "G2",
            "ticks": 88992,
            "time": 115.875,
            "velocity": 0.5511811023622047
          },
          {
            "duration": 0.1875,
            "durationTicks": 144,
            "midi": 67,
            "name": "G4",
            "ticks": 88992,
            "time": 115.875,
            "velocity": 0.5511811023622047
          },
          {
            "duration": 0.1875,
            "durationTicks": 144,
            "midi": 50,
            "name": "D3",
            "ticks": 88992,
            "time": 115.875,
            "velocity": 0.5511811023622047
          },
          {
            "duration": 0.1875,
            "durationTicks": 144,
            "midi": 59,
            "name": "B3",
            "ticks": 88992,
            "time": 115.875,
            "velocity": 0.5511811023622047
          },
          {
            "duration": 0.1875,
            "durationTicks": 144,
            "midi": 47,
            "name": "B2",
            "ticks": 88992,
            "time": 115.875,
            "velocity": 0.5511811023622047
          },
          {
            "duration": 0.1875,
            "durationTicks": 144,
            "midi": 55,
            "name": "G3",
            "ticks": 88992,
            "time": 115.875,
            "velocity": 0.5511811023622047
          },
          {
            "duration": 0.1875,
            "durationTicks": 144,
            "midi": 62,
            "name": "D4",
            "ticks": 88992,
            "time": 115.875,
            "velocity": 0.5511811023622047
          },
          {
            "duration": 0.1875,
            "durationTicks": 144,
            "midi": 43,
            "name": "G2",
            "ticks": 89136,
            "time": 116.0625,
            "velocity": 0.5511811023622047
          },
          {
            "duration": 0.1875,
            "durationTicks": 144,
            "midi": 47,
            "name": "B2",
            "ticks": 89136,
            "time": 116.0625,
            "velocity": 0.5511811023622047
          },
          {
            "duration": 0.1875,
            "durationTicks": 144,
            "midi": 62,
            "name": "D4",
            "ticks": 89136,
            "time": 116.0625,
            "velocity": 0.5511811023622047
          },
          {
            "duration": 0.1875,
            "durationTicks": 144,
            "midi": 50,
            "name": "D3",
            "ticks": 89136,
            "time": 116.0625,
            "velocity": 0.5511811023622047
          },
          {
            "duration": 0.1875,
            "durationTicks": 144,
            "midi": 55,
            "name": "G3",
            "ticks": 89136,
            "time": 116.0625,
            "velocity": 0.5511811023622047
          },
          {
            "duration": 0.1875,
            "durationTicks": 144,
            "midi": 59,
            "name": "B3",
            "ticks": 89136,
            "time": 116.0625,
            "velocity": 0.5511811023622047
          },
          {
            "duration": 0.1875,
            "durationTicks": 144,
            "midi": 67,
            "name": "G4",
            "ticks": 89136,
            "time": 116.0625,
            "velocity": 0.5511811023622047
          },
          {
            "duration": 0.1875,
            "durationTicks": 144,
            "midi": 67,
            "name": "G4",
            "ticks": 89424,
            "time": 116.4375,
            "velocity": 0.5511811023622047
          },
          {
            "duration": 0.1875,
            "durationTicks": 144,
            "midi": 62,
            "name": "D4",
            "ticks": 89424,
            "time": 116.4375,
            "velocity": 0.5511811023622047
          },
          {
            "duration": 0.1875,
            "durationTicks": 144,
            "midi": 55,
            "name": "G3",
            "ticks": 89424,
            "time": 116.4375,
            "velocity": 0.5511811023622047
          },
          {
            "duration": 0.1875,
            "durationTicks": 144,
            "midi": 47,
            "name": "B2",
            "ticks": 89424,
            "time": 116.4375,
            "velocity": 0.5511811023622047
          },
          {
            "duration": 0.1875,
            "durationTicks": 144,
            "midi": 43,
            "name": "G2",
            "ticks": 89424,
            "time": 116.4375,
            "velocity": 0.5511811023622047
          },
          {
            "duration": 0.1875,
            "durationTicks": 144,
            "midi": 50,
            "name": "D3",
            "ticks": 89424,
            "time": 116.4375,
            "velocity": 0.5511811023622047
          },
          {
            "duration": 0.1875,
            "durationTicks": 144,
            "midi": 59,
            "name": "B3",
            "ticks": 89424,
            "time": 116.4375,
            "velocity": 0.5511811023622047
          },
          {
            "duration": 0.1875,
            "durationTicks": 144,
            "midi": 50,
            "name": "D3",
            "ticks": 89568,
            "time": 116.625,
            "velocity": 0.5511811023622047
          },
          {
            "duration": 0.1875,
            "durationTicks": 144,
            "midi": 43,
            "name": "G2",
            "ticks": 89568,
            "time": 116.625,
            "velocity": 0.5511811023622047
          },
          {
            "duration": 0.1875,
            "durationTicks": 144,
            "midi": 67,
            "name": "G4",
            "ticks": 89568,
            "time": 116.625,
            "velocity": 0.5511811023622047
          },
          {
            "duration": 0.1875,
            "durationTicks": 144,
            "midi": 47,
            "name": "B2",
            "ticks": 89568,
            "time": 116.625,
            "velocity": 0.5511811023622047
          },
          {
            "duration": 0.1875,
            "durationTicks": 144,
            "midi": 62,
            "name": "D4",
            "ticks": 89568,
            "time": 116.625,
            "velocity": 0.5511811023622047
          },
          {
            "duration": 0.1875,
            "durationTicks": 144,
            "midi": 55,
            "name": "G3",
            "ticks": 89568,
            "time": 116.625,
            "velocity": 0.5511811023622047
          },
          {
            "duration": 0.1875,
            "durationTicks": 144,
            "midi": 59,
            "name": "B3",
            "ticks": 89568,
            "time": 116.625,
            "velocity": 0.5511811023622047
          },
          {
            "duration": 0.1875,
            "durationTicks": 144,
            "midi": 43,
            "name": "G2",
            "ticks": 89712,
            "time": 116.8125,
            "velocity": 0.5511811023622047
          },
          {
            "duration": 0.1875,
            "durationTicks": 144,
            "midi": 50,
            "name": "D3",
            "ticks": 89712,
            "time": 116.8125,
            "velocity": 0.5511811023622047
          },
          {
            "duration": 0.1875,
            "durationTicks": 144,
            "midi": 47,
            "name": "B2",
            "ticks": 89712,
            "time": 116.8125,
            "velocity": 0.5511811023622047
          },
          {
            "duration": 0.1875,
            "durationTicks": 144,
            "midi": 67,
            "name": "G4",
            "ticks": 89712,
            "time": 116.8125,
            "velocity": 0.5511811023622047
          },
          {
            "duration": 0.1875,
            "durationTicks": 144,
            "midi": 59,
            "name": "B3",
            "ticks": 89712,
            "time": 116.8125,
            "velocity": 0.5511811023622047
          },
          {
            "duration": 0.1875,
            "durationTicks": 144,
            "midi": 55,
            "name": "G3",
            "ticks": 89712,
            "time": 116.8125,
            "velocity": 0.5511811023622047
          },
          {
            "duration": 0.1875,
            "durationTicks": 144,
            "midi": 62,
            "name": "D4",
            "ticks": 89712,
            "time": 116.8125,
            "velocity": 0.5511811023622047
          },
          {
            "duration": 0.1875,
            "durationTicks": 144,
            "midi": 60,
            "name": "C4",
            "ticks": 89856,
            "time": 117,
            "velocity": 0.5511811023622047
          },
          {
            "duration": 0.1875,
            "durationTicks": 144,
            "midi": 48,
            "name": "C3",
            "ticks": 89856,
            "time": 117,
            "velocity": 0.5511811023622047
          },
          {
            "duration": 0.1875,
            "durationTicks": 144,
            "midi": 52,
            "name": "E3",
            "ticks": 89856,
            "time": 117,
            "velocity": 0.5511811023622047
          },
          {
            "duration": 0.1875,
            "durationTicks": 144,
            "midi": 55,
            "name": "G3",
            "ticks": 89856,
            "time": 117,
            "velocity": 0.5511811023622047
          },
          {
            "duration": 0.1875,
            "durationTicks": 144,
            "midi": 43,
            "name": "G2",
            "ticks": 89856,
            "time": 117,
            "velocity": 0.5511811023622047
          },
          {
            "duration": 0.1875,
            "durationTicks": 144,
            "midi": 36,
            "name": "C2",
            "ticks": 89856,
            "time": 117,
            "velocity": 0.5511811023622047
          },
          {
            "duration": 0.1875,
            "durationTicks": 144,
            "midi": 40,
            "name": "E2",
            "ticks": 89856,
            "time": 117,
            "velocity": 0.5511811023622047
          },
          {
            "duration": 0.1875,
            "durationTicks": 144,
            "midi": 60,
            "name": "C4",
            "ticks": 90144,
            "time": 117.375,
            "velocity": 0.5511811023622047
          },
          {
            "duration": 0.1875,
            "durationTicks": 144,
            "midi": 43,
            "name": "G2",
            "ticks": 90144,
            "time": 117.375,
            "velocity": 0.5511811023622047
          },
          {
            "duration": 0.1875,
            "durationTicks": 144,
            "midi": 52,
            "name": "E3",
            "ticks": 90144,
            "time": 117.375,
            "velocity": 0.5511811023622047
          },
          {
            "duration": 0.1875,
            "durationTicks": 144,
            "midi": 36,
            "name": "C2",
            "ticks": 90144,
            "time": 117.375,
            "velocity": 0.5511811023622047
          },
          {
            "duration": 0.1875,
            "durationTicks": 144,
            "midi": 40,
            "name": "E2",
            "ticks": 90144,
            "time": 117.375,
            "velocity": 0.5511811023622047
          },
          {
            "duration": 0.1875,
            "durationTicks": 144,
            "midi": 48,
            "name": "C3",
            "ticks": 90144,
            "time": 117.375,
            "velocity": 0.5511811023622047
          },
          {
            "duration": 0.1875,
            "durationTicks": 144,
            "midi": 55,
            "name": "G3",
            "ticks": 90144,
            "time": 117.375,
            "velocity": 0.5511811023622047
          },
          {
            "duration": 0.1875,
            "durationTicks": 144,
            "midi": 40,
            "name": "E2",
            "ticks": 90288,
            "time": 117.5625,
            "velocity": 0.5511811023622047
          },
          {
            "duration": 0.1875,
            "durationTicks": 144,
            "midi": 60,
            "name": "C4",
            "ticks": 90288,
            "time": 117.5625,
            "velocity": 0.5511811023622047
          },
          {
            "duration": 0.1875,
            "durationTicks": 144,
            "midi": 36,
            "name": "C2",
            "ticks": 90288,
            "time": 117.5625,
            "velocity": 0.5511811023622047
          },
          {
            "duration": 0.1875,
            "durationTicks": 144,
            "midi": 55,
            "name": "G3",
            "ticks": 90288,
            "time": 117.5625,
            "velocity": 0.5511811023622047
          },
          {
            "duration": 0.1875,
            "durationTicks": 144,
            "midi": 43,
            "name": "G2",
            "ticks": 90288,
            "time": 117.5625,
            "velocity": 0.5511811023622047
          },
          {
            "duration": 0.1875,
            "durationTicks": 144,
            "midi": 52,
            "name": "E3",
            "ticks": 90288,
            "time": 117.5625,
            "velocity": 0.5511811023622047
          },
          {
            "duration": 0.1875,
            "durationTicks": 144,
            "midi": 48,
            "name": "C3",
            "ticks": 90288,
            "time": 117.5625,
            "velocity": 0.5511811023622047
          },
          {
            "duration": 0.1875,
            "durationTicks": 144,
            "midi": 60,
            "name": "C4",
            "ticks": 90576,
            "time": 117.9375,
            "velocity": 0.5511811023622047
          },
          {
            "duration": 0.1875,
            "durationTicks": 144,
            "midi": 55,
            "name": "G3",
            "ticks": 90576,
            "time": 117.9375,
            "velocity": 0.5511811023622047
          },
          {
            "duration": 0.1875,
            "durationTicks": 144,
            "midi": 48,
            "name": "C3",
            "ticks": 90576,
            "time": 117.9375,
            "velocity": 0.5511811023622047
          },
          {
            "duration": 0.1875,
            "durationTicks": 144,
            "midi": 43,
            "name": "G2",
            "ticks": 90576,
            "time": 117.9375,
            "velocity": 0.5511811023622047
          },
          {
            "duration": 0.1875,
            "durationTicks": 144,
            "midi": 36,
            "name": "C2",
            "ticks": 90576,
            "time": 117.9375,
            "velocity": 0.5511811023622047
          },
          {
            "duration": 0.1875,
            "durationTicks": 144,
            "midi": 40,
            "name": "E2",
            "ticks": 90576,
            "time": 117.9375,
            "velocity": 0.5511811023622047
          },
          {
            "duration": 0.1875,
            "durationTicks": 144,
            "midi": 52,
            "name": "E3",
            "ticks": 90576,
            "time": 117.9375,
            "velocity": 0.5511811023622047
          },
          {
            "duration": 0.1875,
            "durationTicks": 144,
            "midi": 43,
            "name": "G2",
            "ticks": 90720,
            "time": 118.125,
            "velocity": 0.5511811023622047
          },
          {
            "duration": 0.1875,
            "durationTicks": 144,
            "midi": 36,
            "name": "C2",
            "ticks": 90720,
            "time": 118.125,
            "velocity": 0.5511811023622047
          },
          {
            "duration": 0.1875,
            "durationTicks": 144,
            "midi": 40,
            "name": "E2",
            "ticks": 90720,
            "time": 118.125,
            "velocity": 0.5511811023622047
          },
          {
            "duration": 0.1875,
            "durationTicks": 144,
            "midi": 48,
            "name": "C3",
            "ticks": 90720,
            "time": 118.125,
            "velocity": 0.5511811023622047
          },
          {
            "duration": 0.1875,
            "durationTicks": 144,
            "midi": 60,
            "name": "C4",
            "ticks": 90720,
            "time": 118.125,
            "velocity": 0.5511811023622047
          },
          {
            "duration": 0.1875,
            "durationTicks": 144,
            "midi": 55,
            "name": "G3",
            "ticks": 90720,
            "time": 118.125,
            "velocity": 0.5511811023622047
          },
          {
            "duration": 0.1875,
            "durationTicks": 144,
            "midi": 52,
            "name": "E3",
            "ticks": 90720,
            "time": 118.125,
            "velocity": 0.5511811023622047
          },
          {
            "duration": 0.1875,
            "durationTicks": 144,
            "midi": 40,
            "name": "E2",
            "ticks": 90864,
            "time": 118.3125,
            "velocity": 0.5511811023622047
          },
          {
            "duration": 0.1875,
            "durationTicks": 144,
            "midi": 43,
            "name": "G2",
            "ticks": 90864,
            "time": 118.3125,
            "velocity": 0.5511811023622047
          },
          {
            "duration": 0.1875,
            "durationTicks": 144,
            "midi": 55,
            "name": "G3",
            "ticks": 90864,
            "time": 118.3125,
            "velocity": 0.5511811023622047
          },
          {
            "duration": 0.1875,
            "durationTicks": 144,
            "midi": 48,
            "name": "C3",
            "ticks": 90864,
            "time": 118.3125,
            "velocity": 0.5511811023622047
          },
          {
            "duration": 0.1875,
            "durationTicks": 144,
            "midi": 52,
            "name": "E3",
            "ticks": 90864,
            "time": 118.3125,
            "velocity": 0.5511811023622047
          },
          {
            "duration": 0.1875,
            "durationTicks": 144,
            "midi": 60,
            "name": "C4",
            "ticks": 90864,
            "time": 118.3125,
            "velocity": 0.5511811023622047
          },
          {
            "duration": 0.1875,
            "durationTicks": 144,
            "midi": 36,
            "name": "C2",
            "ticks": 90864,
            "time": 118.3125,
            "velocity": 0.5511811023622047
          },
          {
            "duration": 0.1875,
            "durationTicks": 144,
            "midi": 36,
            "name": "C2",
            "ticks": 91008,
            "time": 118.5,
            "velocity": 0.5511811023622047
          },
          {
            "duration": 0.1875,
            "durationTicks": 144,
            "midi": 52,
            "name": "E3",
            "ticks": 91008,
            "time": 118.5,
            "velocity": 0.5511811023622047
          },
          {
            "duration": 0.1875,
            "durationTicks": 144,
            "midi": 55,
            "name": "G3",
            "ticks": 91008,
            "time": 118.5,
            "velocity": 0.5511811023622047
          },
          {
            "duration": 0.1875,
            "durationTicks": 144,
            "midi": 43,
            "name": "G2",
            "ticks": 91008,
            "time": 118.5,
            "velocity": 0.5511811023622047
          },
          {
            "duration": 0.1875,
            "durationTicks": 144,
            "midi": 60,
            "name": "C4",
            "ticks": 91008,
            "time": 118.5,
            "velocity": 0.5511811023622047
          },
          {
            "duration": 0.1875,
            "durationTicks": 144,
            "midi": 48,
            "name": "C3",
            "ticks": 91008,
            "time": 118.5,
            "velocity": 0.5511811023622047
          },
          {
            "duration": 0.1875,
            "durationTicks": 144,
            "midi": 40,
            "name": "E2",
            "ticks": 91008,
            "time": 118.5,
            "velocity": 0.5511811023622047
          },
          {
            "duration": 0.1875,
            "durationTicks": 144,
            "midi": 48,
            "name": "C3",
            "ticks": 91296,
            "time": 118.875,
            "velocity": 0.5511811023622047
          },
          {
            "duration": 0.1875,
            "durationTicks": 144,
            "midi": 43,
            "name": "G2",
            "ticks": 91296,
            "time": 118.875,
            "velocity": 0.5511811023622047
          },
          {
            "duration": 0.1875,
            "durationTicks": 144,
            "midi": 52,
            "name": "E3",
            "ticks": 91296,
            "time": 118.875,
            "velocity": 0.5511811023622047
          },
          {
            "duration": 0.1875,
            "durationTicks": 144,
            "midi": 36,
            "name": "C2",
            "ticks": 91296,
            "time": 118.875,
            "velocity": 0.5511811023622047
          },
          {
            "duration": 0.1875,
            "durationTicks": 144,
            "midi": 55,
            "name": "G3",
            "ticks": 91296,
            "time": 118.875,
            "velocity": 0.5511811023622047
          },
          {
            "duration": 0.1875,
            "durationTicks": 144,
            "midi": 40,
            "name": "E2",
            "ticks": 91296,
            "time": 118.875,
            "velocity": 0.5511811023622047
          },
          {
            "duration": 0.1875,
            "durationTicks": 144,
            "midi": 60,
            "name": "C4",
            "ticks": 91296,
            "time": 118.875,
            "velocity": 0.5511811023622047
          },
          {
            "duration": 0.1875,
            "durationTicks": 144,
            "midi": 60,
            "name": "C4",
            "ticks": 91440,
            "time": 119.0625,
            "velocity": 0.5511811023622047
          },
          {
            "duration": 0.1875,
            "durationTicks": 144,
            "midi": 43,
            "name": "G2",
            "ticks": 91440,
            "time": 119.0625,
            "velocity": 0.5511811023622047
          },
          {
            "duration": 0.1875,
            "durationTicks": 144,
            "midi": 36,
            "name": "C2",
            "ticks": 91440,
            "time": 119.0625,
            "velocity": 0.5511811023622047
          },
          {
            "duration": 0.1875,
            "durationTicks": 144,
            "midi": 48,
            "name": "C3",
            "ticks": 91440,
            "time": 119.0625,
            "velocity": 0.5511811023622047
          },
          {
            "duration": 0.1875,
            "durationTicks": 144,
            "midi": 40,
            "name": "E2",
            "ticks": 91440,
            "time": 119.0625,
            "velocity": 0.5511811023622047
          },
          {
            "duration": 0.1875,
            "durationTicks": 144,
            "midi": 52,
            "name": "E3",
            "ticks": 91440,
            "time": 119.0625,
            "velocity": 0.5511811023622047
          },
          {
            "duration": 0.1875,
            "durationTicks": 144,
            "midi": 55,
            "name": "G3",
            "ticks": 91440,
            "time": 119.0625,
            "velocity": 0.5511811023622047
          },
          {
            "duration": 0.1875,
            "durationTicks": 144,
            "midi": 60,
            "name": "C4",
            "ticks": 91728,
            "time": 119.4375,
            "velocity": 0.5511811023622047
          },
          {
            "duration": 0.1875,
            "durationTicks": 144,
            "midi": 48,
            "name": "C3",
            "ticks": 91728,
            "time": 119.4375,
            "velocity": 0.5511811023622047
          },
          {
            "duration": 0.1875,
            "durationTicks": 144,
            "midi": 36,
            "name": "C2",
            "ticks": 91728,
            "time": 119.4375,
            "velocity": 0.5511811023622047
          },
          {
            "duration": 0.1875,
            "durationTicks": 144,
            "midi": 40,
            "name": "E2",
            "ticks": 91728,
            "time": 119.4375,
            "velocity": 0.5511811023622047
          },
          {
            "duration": 0.1875,
            "durationTicks": 144,
            "midi": 55,
            "name": "G3",
            "ticks": 91728,
            "time": 119.4375,
            "velocity": 0.5511811023622047
          },
          {
            "duration": 0.1875,
            "durationTicks": 144,
            "midi": 43,
            "name": "G2",
            "ticks": 91728,
            "time": 119.4375,
            "velocity": 0.5511811023622047
          },
          {
            "duration": 0.1875,
            "durationTicks": 144,
            "midi": 52,
            "name": "E3",
            "ticks": 91728,
            "time": 119.4375,
            "velocity": 0.5511811023622047
          },
          {
            "duration": 0.1875,
            "durationTicks": 144,
            "midi": 43,
            "name": "G2",
            "ticks": 91872,
            "time": 119.625,
            "velocity": 0.5511811023622047
          },
          {
            "duration": 0.1875,
            "durationTicks": 144,
            "midi": 52,
            "name": "E3",
            "ticks": 91872,
            "time": 119.625,
            "velocity": 0.5511811023622047
          },
          {
            "duration": 0.1875,
            "durationTicks": 144,
            "midi": 55,
            "name": "G3",
            "ticks": 91872,
            "time": 119.625,
            "velocity": 0.5511811023622047
          },
          {
            "duration": 0.1875,
            "durationTicks": 144,
            "midi": 36,
            "name": "C2",
            "ticks": 91872,
            "time": 119.625,
            "velocity": 0.5511811023622047
          },
          {
            "duration": 0.1875,
            "durationTicks": 144,
            "midi": 60,
            "name": "C4",
            "ticks": 91872,
            "time": 119.625,
            "velocity": 0.5511811023622047
          },
          {
            "duration": 0.1875,
            "durationTicks": 144,
            "midi": 48,
            "name": "C3",
            "ticks": 91872,
            "time": 119.625,
            "velocity": 0.5511811023622047
          },
          {
            "duration": 0.1875,
            "durationTicks": 144,
            "midi": 40,
            "name": "E2",
            "ticks": 91872,
            "time": 119.625,
            "velocity": 0.5511811023622047
          },
          {
            "duration": 0.1875,
            "durationTicks": 144,
            "midi": 40,
            "name": "E2",
            "ticks": 92016,
            "time": 119.8125,
            "velocity": 0.5511811023622047
          },
          {
            "duration": 0.1875,
            "durationTicks": 144,
            "midi": 60,
            "name": "C4",
            "ticks": 92016,
            "time": 119.8125,
            "velocity": 0.5511811023622047
          },
          {
            "duration": 0.1875,
            "durationTicks": 144,
            "midi": 36,
            "name": "C2",
            "ticks": 92016,
            "time": 119.8125,
            "velocity": 0.5511811023622047
          },
          {
            "duration": 0.1875,
            "durationTicks": 144,
            "midi": 48,
            "name": "C3",
            "ticks": 92016,
            "time": 119.8125,
            "velocity": 0.5511811023622047
          },
          {
            "duration": 0.1875,
            "durationTicks": 144,
            "midi": 43,
            "name": "G2",
            "ticks": 92016,
            "time": 119.8125,
            "velocity": 0.5511811023622047
          },
          {
            "duration": 0.1875,
            "durationTicks": 144,
            "midi": 55,
            "name": "G3",
            "ticks": 92016,
            "time": 119.8125,
            "velocity": 0.5511811023622047
          },
          {
            "duration": 0.1875,
            "durationTicks": 144,
            "midi": 52,
            "name": "E3",
            "ticks": 92016,
            "time": 119.8125,
            "velocity": 0.5511811023622047
          },
          {
            "duration": 0.1875,
            "durationTicks": 144,
            "midi": 42,
            "name": "F#2",
            "ticks": 92160,
            "time": 120,
            "velocity": 0.5511811023622047
          },
          {
            "duration": 0.1875,
            "durationTicks": 144,
            "midi": 62,
            "name": "D4",
            "ticks": 92160,
            "time": 120,
            "velocity": 0.5511811023622047
          },
          {
            "duration": 0.1875,
            "durationTicks": 144,
            "midi": 57,
            "name": "A3",
            "ticks": 92160,
            "time": 120,
            "velocity": 0.5511811023622047
          },
          {
            "duration": 0.1875,
            "durationTicks": 144,
            "midi": 54,
            "name": "F#3",
            "ticks": 92160,
            "time": 120,
            "velocity": 0.5511811023622047
          },
          {
            "duration": 0.1875,
            "durationTicks": 144,
            "midi": 50,
            "name": "D3",
            "ticks": 92160,
            "time": 120,
            "velocity": 0.5511811023622047
          },
          {
            "duration": 0.1875,
            "durationTicks": 144,
            "midi": 45,
            "name": "A2",
            "ticks": 92160,
            "time": 120,
            "velocity": 0.5511811023622047
          },
          {
            "duration": 0.1875,
            "durationTicks": 144,
            "midi": 38,
            "name": "D2",
            "ticks": 92160,
            "time": 120,
            "velocity": 0.5511811023622047
          },
          {
            "duration": 0.1875,
            "durationTicks": 144,
            "midi": 45,
            "name": "A2",
            "ticks": 92448,
            "time": 120.375,
            "velocity": 0.5511811023622047
          },
          {
            "duration": 0.1875,
            "durationTicks": 144,
            "midi": 50,
            "name": "D3",
            "ticks": 92448,
            "time": 120.375,
            "velocity": 0.5511811023622047
          },
          {
            "duration": 0.1875,
            "durationTicks": 144,
            "midi": 42,
            "name": "F#2",
            "ticks": 92448,
            "time": 120.375,
            "velocity": 0.5511811023622047
          },
          {
            "duration": 0.1875,
            "durationTicks": 144,
            "midi": 62,
            "name": "D4",
            "ticks": 92448,
            "time": 120.375,
            "velocity": 0.5511811023622047
          },
          {
            "duration": 0.1875,
            "durationTicks": 144,
            "midi": 54,
            "name": "F#3",
            "ticks": 92448,
            "time": 120.375,
            "velocity": 0.5511811023622047
          },
          {
            "duration": 0.1875,
            "durationTicks": 144,
            "midi": 57,
            "name": "A3",
            "ticks": 92448,
            "time": 120.375,
            "velocity": 0.5511811023622047
          },
          {
            "duration": 0.1875,
            "durationTicks": 144,
            "midi": 38,
            "name": "D2",
            "ticks": 92448,
            "time": 120.375,
            "velocity": 0.5511811023622047
          },
          {
            "duration": 0.1875,
            "durationTicks": 144,
            "midi": 47,
            "name": "B2",
            "ticks": 92736,
            "time": 120.75,
            "velocity": 0.5511811023622047
          },
          {
            "duration": 0.1875,
            "durationTicks": 144,
            "midi": 59,
            "name": "B3",
            "ticks": 92736,
            "time": 120.75,
            "velocity": 0.5511811023622047
          },
          {
            "duration": 0.1875,
            "durationTicks": 144,
            "midi": 56,
            "name": "G#3",
            "ticks": 92736,
            "time": 120.75,
            "velocity": 0.5511811023622047
          },
          {
            "duration": 0.1875,
            "durationTicks": 144,
            "midi": 52,
            "name": "E3",
            "ticks": 92736,
            "time": 120.75,
            "velocity": 0.5511811023622047
          },
          {
            "duration": 0.1875,
            "durationTicks": 144,
            "midi": 64,
            "name": "E4",
            "ticks": 92736,
            "time": 120.75,
            "velocity": 0.5511811023622047
          },
          {
            "duration": 0.1875,
            "durationTicks": 144,
            "midi": 44,
            "name": "G#2",
            "ticks": 92736,
            "time": 120.75,
            "velocity": 0.5511811023622047
          },
          {
            "duration": 0.1875,
            "durationTicks": 144,
            "midi": 40,
            "name": "E2",
            "ticks": 92736,
            "time": 120.75,
            "velocity": 0.5511811023622047
          },
          {
            "duration": 0.1875,
            "durationTicks": 144,
            "midi": 56,
            "name": "G#3",
            "ticks": 93024,
            "time": 121.125,
            "velocity": 0.5511811023622047
          },
          {
            "duration": 0.1875,
            "durationTicks": 144,
            "midi": 40,
            "name": "E2",
            "ticks": 93024,
            "time": 121.125,
            "velocity": 0.5511811023622047
          },
          {
            "duration": 0.1875,
            "durationTicks": 144,
            "midi": 44,
            "name": "G#2",
            "ticks": 93024,
            "time": 121.125,
            "velocity": 0.5511811023622047
          },
          {
            "duration": 0.1875,
            "durationTicks": 144,
            "midi": 59,
            "name": "B3",
            "ticks": 93024,
            "time": 121.125,
            "velocity": 0.5511811023622047
          },
          {
            "duration": 0.1875,
            "durationTicks": 144,
            "midi": 52,
            "name": "E3",
            "ticks": 93024,
            "time": 121.125,
            "velocity": 0.5511811023622047
          },
          {
            "duration": 0.1875,
            "durationTicks": 144,
            "midi": 64,
            "name": "E4",
            "ticks": 93024,
            "time": 121.125,
            "velocity": 0.5511811023622047
          },
          {
            "duration": 0.1875,
            "durationTicks": 144,
            "midi": 47,
            "name": "B2",
            "ticks": 93024,
            "time": 121.125,
            "velocity": 0.5511811023622047
          },
          {
            "duration": 0.1875,
            "durationTicks": 144,
            "midi": 40,
            "name": "E2",
            "ticks": 93168,
            "time": 121.3125,
            "velocity": 0.5511811023622047
          },
          {
            "duration": 0.1875,
            "durationTicks": 144,
            "midi": 59,
            "name": "B3",
            "ticks": 93168,
            "time": 121.3125,
            "velocity": 0.5511811023622047
          },
          {
            "duration": 0.1875,
            "durationTicks": 144,
            "midi": 52,
            "name": "E3",
            "ticks": 93168,
            "time": 121.3125,
            "velocity": 0.5511811023622047
          },
          {
            "duration": 0.1875,
            "durationTicks": 144,
            "midi": 56,
            "name": "G#3",
            "ticks": 93168,
            "time": 121.3125,
            "velocity": 0.5511811023622047
          },
          {
            "duration": 0.1875,
            "durationTicks": 144,
            "midi": 44,
            "name": "G#2",
            "ticks": 93168,
            "time": 121.3125,
            "velocity": 0.5511811023622047
          },
          {
            "duration": 0.1875,
            "durationTicks": 144,
            "midi": 64,
            "name": "E4",
            "ticks": 93168,
            "time": 121.3125,
            "velocity": 0.5511811023622047
          },
          {
            "duration": 0.1875,
            "durationTicks": 144,
            "midi": 47,
            "name": "B2",
            "ticks": 93168,
            "time": 121.3125,
            "velocity": 0.5511811023622047
          },
          {
            "duration": 0.1875,
            "durationTicks": 144,
            "midi": 52,
            "name": "E3",
            "ticks": 93456,
            "time": 121.6875,
            "velocity": 0.5511811023622047
          },
          {
            "duration": 0.1875,
            "durationTicks": 144,
            "midi": 47,
            "name": "B2",
            "ticks": 93456,
            "time": 121.6875,
            "velocity": 0.5511811023622047
          },
          {
            "duration": 0.1875,
            "durationTicks": 144,
            "midi": 44,
            "name": "G#2",
            "ticks": 93456,
            "time": 121.6875,
            "velocity": 0.5511811023622047
          },
          {
            "duration": 0.1875,
            "durationTicks": 144,
            "midi": 40,
            "name": "E2",
            "ticks": 93456,
            "time": 121.6875,
            "velocity": 0.5511811023622047
          },
          {
            "duration": 0.1875,
            "durationTicks": 144,
            "midi": 64,
            "name": "E4",
            "ticks": 93456,
            "time": 121.6875,
            "velocity": 0.5511811023622047
          },
          {
            "duration": 0.1875,
            "durationTicks": 144,
            "midi": 59,
            "name": "B3",
            "ticks": 93456,
            "time": 121.6875,
            "velocity": 0.5511811023622047
          },
          {
            "duration": 0.1875,
            "durationTicks": 144,
            "midi": 56,
            "name": "G#3",
            "ticks": 93456,
            "time": 121.6875,
            "velocity": 0.5511811023622047
          },
          {
            "duration": 0.1875,
            "durationTicks": 144,
            "midi": 56,
            "name": "G#3",
            "ticks": 93600,
            "time": 121.875,
            "velocity": 0.5511811023622047
          },
          {
            "duration": 0.1875,
            "durationTicks": 144,
            "midi": 59,
            "name": "B3",
            "ticks": 93600,
            "time": 121.875,
            "velocity": 0.5511811023622047
          },
          {
            "duration": 0.1875,
            "durationTicks": 144,
            "midi": 47,
            "name": "B2",
            "ticks": 93600,
            "time": 121.875,
            "velocity": 0.5511811023622047
          },
          {
            "duration": 0.1875,
            "durationTicks": 144,
            "midi": 64,
            "name": "E4",
            "ticks": 93600,
            "time": 121.875,
            "velocity": 0.5511811023622047
          },
          {
            "duration": 0.1875,
            "durationTicks": 144,
            "midi": 52,
            "name": "E3",
            "ticks": 93600,
            "time": 121.875,
            "velocity": 0.5511811023622047
          },
          {
            "duration": 0.1875,
            "durationTicks": 144,
            "midi": 44,
            "name": "G#2",
            "ticks": 93600,
            "time": 121.875,
            "velocity": 0.5511811023622047
          },
          {
            "duration": 0.1875,
            "durationTicks": 144,
            "midi": 40,
            "name": "E2",
            "ticks": 93600,
            "time": 121.875,
            "velocity": 0.5511811023622047
          },
          {
            "duration": 0.1875,
            "durationTicks": 144,
            "midi": 40,
            "name": "E2",
            "ticks": 93744,
            "time": 122.0625,
            "velocity": 0.5511811023622047
          },
          {
            "duration": 0.1875,
            "durationTicks": 144,
            "midi": 56,
            "name": "G#3",
            "ticks": 93744,
            "time": 122.0625,
            "velocity": 0.5511811023622047
          },
          {
            "duration": 0.1875,
            "durationTicks": 144,
            "midi": 52,
            "name": "E3",
            "ticks": 93744,
            "time": 122.0625,
            "velocity": 0.5511811023622047
          },
          {
            "duration": 0.1875,
            "durationTicks": 144,
            "midi": 59,
            "name": "B3",
            "ticks": 93744,
            "time": 122.0625,
            "velocity": 0.5511811023622047
          },
          {
            "duration": 0.1875,
            "durationTicks": 144,
            "midi": 44,
            "name": "G#2",
            "ticks": 93744,
            "time": 122.0625,
            "velocity": 0.5511811023622047
          },
          {
            "duration": 0.1875,
            "durationTicks": 144,
            "midi": 64,
            "name": "E4",
            "ticks": 93744,
            "time": 122.0625,
            "velocity": 0.5511811023622047
          },
          {
            "duration": 0.1875,
            "durationTicks": 144,
            "midi": 47,
            "name": "B2",
            "ticks": 93744,
            "time": 122.0625,
            "velocity": 0.5511811023622047
          },
          {
            "duration": 0.1875,
            "durationTicks": 144,
            "midi": 52,
            "name": "E3",
            "ticks": 93888,
            "time": 122.25,
            "velocity": 0.5511811023622047
          },
          {
            "duration": 0.1875,
            "durationTicks": 144,
            "midi": 40,
            "name": "E2",
            "ticks": 93888,
            "time": 122.25,
            "velocity": 0.5511811023622047
          },
          {
            "duration": 0.1875,
            "durationTicks": 144,
            "midi": 56,
            "name": "G#3",
            "ticks": 93888,
            "time": 122.25,
            "velocity": 0.5511811023622047
          },
          {
            "duration": 0.1875,
            "durationTicks": 144,
            "midi": 64,
            "name": "E4",
            "ticks": 93888,
            "time": 122.25,
            "velocity": 0.5511811023622047
          },
          {
            "duration": 0.1875,
            "durationTicks": 144,
            "midi": 44,
            "name": "G#2",
            "ticks": 93888,
            "time": 122.25,
            "velocity": 0.5511811023622047
          },
          {
            "duration": 0.1875,
            "durationTicks": 144,
            "midi": 47,
            "name": "B2",
            "ticks": 93888,
            "time": 122.25,
            "velocity": 0.5511811023622047
          },
          {
            "duration": 0.1875,
            "durationTicks": 144,
            "midi": 59,
            "name": "B3",
            "ticks": 93888,
            "time": 122.25,
            "velocity": 0.5511811023622047
          },
          {
            "duration": 0.1875,
            "durationTicks": 144,
            "midi": 64,
            "name": "E4",
            "ticks": 94176,
            "time": 122.625,
            "velocity": 0.5511811023622047
          },
          {
            "duration": 0.1875,
            "durationTicks": 144,
            "midi": 40,
            "name": "E2",
            "ticks": 94176,
            "time": 122.625,
            "velocity": 0.5511811023622047
          },
          {
            "duration": 0.1875,
            "durationTicks": 144,
            "midi": 47,
            "name": "B2",
            "ticks": 94176,
            "time": 122.625,
            "velocity": 0.5511811023622047
          },
          {
            "duration": 0.1875,
            "durationTicks": 144,
            "midi": 44,
            "name": "G#2",
            "ticks": 94176,
            "time": 122.625,
            "velocity": 0.5511811023622047
          },
          {
            "duration": 0.1875,
            "durationTicks": 144,
            "midi": 52,
            "name": "E3",
            "ticks": 94176,
            "time": 122.625,
            "velocity": 0.5511811023622047
          },
          {
            "duration": 0.1875,
            "durationTicks": 144,
            "midi": 59,
            "name": "B3",
            "ticks": 94176,
            "time": 122.625,
            "velocity": 0.5511811023622047
          },
          {
            "duration": 0.1875,
            "durationTicks": 144,
            "midi": 56,
            "name": "G#3",
            "ticks": 94176,
            "time": 122.625,
            "velocity": 0.5511811023622047
          },
          {
            "duration": 0.1875,
            "durationTicks": 144,
            "midi": 64,
            "name": "E4",
            "ticks": 94320,
            "time": 122.8125,
            "velocity": 0.5511811023622047
          },
          {
            "duration": 0.1875,
            "durationTicks": 144,
            "midi": 40,
            "name": "E2",
            "ticks": 94320,
            "time": 122.8125,
            "velocity": 0.5511811023622047
          },
          {
            "duration": 0.1875,
            "durationTicks": 144,
            "midi": 44,
            "name": "G#2",
            "ticks": 94320,
            "time": 122.8125,
            "velocity": 0.5511811023622047
          },
          {
            "duration": 0.1875,
            "durationTicks": 144,
            "midi": 56,
            "name": "G#3",
            "ticks": 94320,
            "time": 122.8125,
            "velocity": 0.5511811023622047
          },
          {
            "duration": 0.1875,
            "durationTicks": 144,
            "midi": 47,
            "name": "B2",
            "ticks": 94320,
            "time": 122.8125,
            "velocity": 0.5511811023622047
          },
          {
            "duration": 0.1875,
            "durationTicks": 144,
            "midi": 59,
            "name": "B3",
            "ticks": 94320,
            "time": 122.8125,
            "velocity": 0.5511811023622047
          },
          {
            "duration": 0.1875,
            "durationTicks": 144,
            "midi": 52,
            "name": "E3",
            "ticks": 94320,
            "time": 122.8125,
            "velocity": 0.5511811023622047
          },
          {
            "duration": 0.1875,
            "durationTicks": 144,
            "midi": 56,
            "name": "G#3",
            "ticks": 94608,
            "time": 123.1875,
            "velocity": 0.5511811023622047
          },
          {
            "duration": 0.1875,
            "durationTicks": 144,
            "midi": 59,
            "name": "B3",
            "ticks": 94608,
            "time": 123.1875,
            "velocity": 0.5511811023622047
          },
          {
            "duration": 0.1875,
            "durationTicks": 144,
            "midi": 64,
            "name": "E4",
            "ticks": 94608,
            "time": 123.1875,
            "velocity": 0.5511811023622047
          },
          {
            "duration": 0.1875,
            "durationTicks": 144,
            "midi": 40,
            "name": "E2",
            "ticks": 94608,
            "time": 123.1875,
            "velocity": 0.5511811023622047
          },
          {
            "duration": 0.1875,
            "durationTicks": 144,
            "midi": 47,
            "name": "B2",
            "ticks": 94608,
            "time": 123.1875,
            "velocity": 0.5511811023622047
          },
          {
            "duration": 0.1875,
            "durationTicks": 144,
            "midi": 52,
            "name": "E3",
            "ticks": 94608,
            "time": 123.1875,
            "velocity": 0.5511811023622047
          },
          {
            "duration": 0.1875,
            "durationTicks": 144,
            "midi": 44,
            "name": "G#2",
            "ticks": 94608,
            "time": 123.1875,
            "velocity": 0.5511811023622047
          },
          {
            "duration": 0.1875,
            "durationTicks": 144,
            "midi": 52,
            "name": "E3",
            "ticks": 94752,
            "time": 123.375,
            "velocity": 0.5511811023622047
          },
          {
            "duration": 0.1875,
            "durationTicks": 144,
            "midi": 56,
            "name": "G#3",
            "ticks": 94752,
            "time": 123.375,
            "velocity": 0.5511811023622047
          },
          {
            "duration": 0.1875,
            "durationTicks": 144,
            "midi": 59,
            "name": "B3",
            "ticks": 94752,
            "time": 123.375,
            "velocity": 0.5511811023622047
          },
          {
            "duration": 0.1875,
            "durationTicks": 144,
            "midi": 47,
            "name": "B2",
            "ticks": 94752,
            "time": 123.375,
            "velocity": 0.5511811023622047
          },
          {
            "duration": 0.1875,
            "durationTicks": 144,
            "midi": 64,
            "name": "E4",
            "ticks": 94752,
            "time": 123.375,
            "velocity": 0.5511811023622047
          },
          {
            "duration": 0.1875,
            "durationTicks": 144,
            "midi": 44,
            "name": "G#2",
            "ticks": 94752,
            "time": 123.375,
            "velocity": 0.5511811023622047
          },
          {
            "duration": 0.1875,
            "durationTicks": 144,
            "midi": 40,
            "name": "E2",
            "ticks": 94752,
            "time": 123.375,
            "velocity": 0.5511811023622047
          },
          {
            "duration": 0.1875,
            "durationTicks": 144,
            "midi": 64,
            "name": "E4",
            "ticks": 94896,
            "time": 123.5625,
            "velocity": 0.5511811023622047
          },
          {
            "duration": 0.1875,
            "durationTicks": 144,
            "midi": 40,
            "name": "E2",
            "ticks": 94896,
            "time": 123.5625,
            "velocity": 0.5511811023622047
          },
          {
            "duration": 0.1875,
            "durationTicks": 144,
            "midi": 44,
            "name": "G#2",
            "ticks": 94896,
            "time": 123.5625,
            "velocity": 0.5511811023622047
          },
          {
            "duration": 0.1875,
            "durationTicks": 144,
            "midi": 56,
            "name": "G#3",
            "ticks": 94896,
            "time": 123.5625,
            "velocity": 0.5511811023622047
          },
          {
            "duration": 0.1875,
            "durationTicks": 144,
            "midi": 47,
            "name": "B2",
            "ticks": 94896,
            "time": 123.5625,
            "velocity": 0.5511811023622047
          },
          {
            "duration": 0.1875,
            "durationTicks": 144,
            "midi": 52,
            "name": "E3",
            "ticks": 94896,
            "time": 123.5625,
            "velocity": 0.5511811023622047
          },
          {
            "duration": 0.1875,
            "durationTicks": 144,
            "midi": 59,
            "name": "B3",
            "ticks": 94896,
            "time": 123.5625,
            "velocity": 0.5511811023622047
          },
          {
            "duration": 0.1875,
            "durationTicks": 144,
            "midi": 47,
            "name": "B2",
            "ticks": 95040,
            "time": 123.75,
            "velocity": 0.5511811023622047
          },
          {
            "duration": 0.1875,
            "durationTicks": 144,
            "midi": 55,
            "name": "G3",
            "ticks": 95040,
            "time": 123.75,
            "velocity": 0.5511811023622047
          },
          {
            "duration": 0.1875,
            "durationTicks": 144,
            "midi": 50,
            "name": "D3",
            "ticks": 95040,
            "time": 123.75,
            "velocity": 0.5511811023622047
          },
          {
            "duration": 0.1875,
            "durationTicks": 144,
            "midi": 62,
            "name": "D4",
            "ticks": 95040,
            "time": 123.75,
            "velocity": 0.5511811023622047
          },
          {
            "duration": 0.1875,
            "durationTicks": 144,
            "midi": 59,
            "name": "B3",
            "ticks": 95040,
            "time": 123.75,
            "velocity": 0.5511811023622047
          },
          {
            "duration": 0.1875,
            "durationTicks": 144,
            "midi": 43,
            "name": "G2",
            "ticks": 95040,
            "time": 123.75,
            "velocity": 0.5511811023622047
          },
          {
            "duration": 0.1875,
            "durationTicks": 144,
            "midi": 67,
            "name": "G4",
            "ticks": 95040,
            "time": 123.75,
            "velocity": 0.5511811023622047
          },
          {
            "duration": 0.1875,
            "durationTicks": 144,
            "midi": 55,
            "name": "G3",
            "ticks": 95328,
            "time": 124.125,
            "velocity": 0.5511811023622047
          },
          {
            "duration": 0.1875,
            "durationTicks": 144,
            "midi": 47,
            "name": "B2",
            "ticks": 95328,
            "time": 124.125,
            "velocity": 0.5511811023622047
          },
          {
            "duration": 0.1875,
            "durationTicks": 144,
            "midi": 62,
            "name": "D4",
            "ticks": 95328,
            "time": 124.125,
            "velocity": 0.5511811023622047
          },
          {
            "duration": 0.1875,
            "durationTicks": 144,
            "midi": 67,
            "name": "G4",
            "ticks": 95328,
            "time": 124.125,
            "velocity": 0.5511811023622047
          },
          {
            "duration": 0.1875,
            "durationTicks": 144,
            "midi": 50,
            "name": "D3",
            "ticks": 95328,
            "time": 124.125,
            "velocity": 0.5511811023622047
          },
          {
            "duration": 0.1875,
            "durationTicks": 144,
            "midi": 59,
            "name": "B3",
            "ticks": 95328,
            "time": 124.125,
            "velocity": 0.5511811023622047
          },
          {
            "duration": 0.1875,
            "durationTicks": 144,
            "midi": 43,
            "name": "G2",
            "ticks": 95328,
            "time": 124.125,
            "velocity": 0.5511811023622047
          },
          {
            "duration": 0.1875,
            "durationTicks": 144,
            "midi": 59,
            "name": "B3",
            "ticks": 95472,
            "time": 124.3125,
            "velocity": 0.5511811023622047
          },
          {
            "duration": 0.1875,
            "durationTicks": 144,
            "midi": 62,
            "name": "D4",
            "ticks": 95472,
            "time": 124.3125,
            "velocity": 0.5511811023622047
          },
          {
            "duration": 0.1875,
            "durationTicks": 144,
            "midi": 67,
            "name": "G4",
            "ticks": 95472,
            "time": 124.3125,
            "velocity": 0.5511811023622047
          },
          {
            "duration": 0.1875,
            "durationTicks": 144,
            "midi": 47,
            "name": "B2",
            "ticks": 95472,
            "time": 124.3125,
            "velocity": 0.5511811023622047
          },
          {
            "duration": 0.1875,
            "durationTicks": 144,
            "midi": 55,
            "name": "G3",
            "ticks": 95472,
            "time": 124.3125,
            "velocity": 0.5511811023622047
          },
          {
            "duration": 0.1875,
            "durationTicks": 144,
            "midi": 43,
            "name": "G2",
            "ticks": 95472,
            "time": 124.3125,
            "velocity": 0.5511811023622047
          },
          {
            "duration": 0.1875,
            "durationTicks": 144,
            "midi": 50,
            "name": "D3",
            "ticks": 95472,
            "time": 124.3125,
            "velocity": 0.5511811023622047
          },
          {
            "duration": 0.1875,
            "durationTicks": 144,
            "midi": 43,
            "name": "G2",
            "ticks": 95760,
            "time": 124.6875,
            "velocity": 0.5511811023622047
          },
          {
            "duration": 0.1875,
            "durationTicks": 144,
            "midi": 67,
            "name": "G4",
            "ticks": 95760,
            "time": 124.6875,
            "velocity": 0.5511811023622047
          },
          {
            "duration": 0.1875,
            "durationTicks": 144,
            "midi": 55,
            "name": "G3",
            "ticks": 95760,
            "time": 124.6875,
            "velocity": 0.5511811023622047
          },
          {
            "duration": 0.1875,
            "durationTicks": 144,
            "midi": 50,
            "name": "D3",
            "ticks": 95760,
            "time": 124.6875,
            "velocity": 0.5511811023622047
          },
          {
            "duration": 0.1875,
            "durationTicks": 144,
            "midi": 59,
            "name": "B3",
            "ticks": 95760,
            "time": 124.6875,
            "velocity": 0.5511811023622047
          },
          {
            "duration": 0.1875,
            "durationTicks": 144,
            "midi": 47,
            "name": "B2",
            "ticks": 95760,
            "time": 124.6875,
            "velocity": 0.5511811023622047
          },
          {
            "duration": 0.1875,
            "durationTicks": 144,
            "midi": 62,
            "name": "D4",
            "ticks": 95760,
            "time": 124.6875,
            "velocity": 0.5511811023622047
          },
          {
            "duration": 0.1875,
            "durationTicks": 144,
            "midi": 50,
            "name": "D3",
            "ticks": 95904,
            "time": 124.875,
            "velocity": 0.5511811023622047
          },
          {
            "duration": 0.1875,
            "durationTicks": 144,
            "midi": 67,
            "name": "G4",
            "ticks": 95904,
            "time": 124.875,
            "velocity": 0.5511811023622047
          },
          {
            "duration": 0.1875,
            "durationTicks": 144,
            "midi": 47,
            "name": "B2",
            "ticks": 95904,
            "time": 124.875,
            "velocity": 0.5511811023622047
          },
          {
            "duration": 0.1875,
            "durationTicks": 144,
            "midi": 62,
            "name": "D4",
            "ticks": 95904,
            "time": 124.875,
            "velocity": 0.5511811023622047
          },
          {
            "duration": 0.1875,
            "durationTicks": 144,
            "midi": 59,
            "name": "B3",
            "ticks": 95904,
            "time": 124.875,
            "velocity": 0.5511811023622047
          },
          {
            "duration": 0.1875,
            "durationTicks": 144,
            "midi": 55,
            "name": "G3",
            "ticks": 95904,
            "time": 124.875,
            "velocity": 0.5511811023622047
          },
          {
            "duration": 0.1875,
            "durationTicks": 144,
            "midi": 43,
            "name": "G2",
            "ticks": 95904,
            "time": 124.875,
            "velocity": 0.5511811023622047
          },
          {
            "duration": 0.1875,
            "durationTicks": 144,
            "midi": 47,
            "name": "B2",
            "ticks": 96048,
            "time": 125.0625,
            "velocity": 0.5511811023622047
          },
          {
            "duration": 0.1875,
            "durationTicks": 144,
            "midi": 50,
            "name": "D3",
            "ticks": 96048,
            "time": 125.0625,
            "velocity": 0.5511811023622047
          },
          {
            "duration": 0.1875,
            "durationTicks": 144,
            "midi": 55,
            "name": "G3",
            "ticks": 96048,
            "time": 125.0625,
            "velocity": 0.5511811023622047
          },
          {
            "duration": 0.1875,
            "durationTicks": 144,
            "midi": 67,
            "name": "G4",
            "ticks": 96048,
            "time": 125.0625,
            "velocity": 0.5511811023622047
          },
          {
            "duration": 0.1875,
            "durationTicks": 144,
            "midi": 43,
            "name": "G2",
            "ticks": 96048,
            "time": 125.0625,
            "velocity": 0.5511811023622047
          },
          {
            "duration": 0.1875,
            "durationTicks": 144,
            "midi": 59,
            "name": "B3",
            "ticks": 96048,
            "time": 125.0625,
            "velocity": 0.5511811023622047
          },
          {
            "duration": 0.1875,
            "durationTicks": 144,
            "midi": 62,
            "name": "D4",
            "ticks": 96048,
            "time": 125.0625,
            "velocity": 0.5511811023622047
          },
          {
            "duration": 0.1875,
            "durationTicks": 144,
            "midi": 48,
            "name": "C3",
            "ticks": 96192,
            "time": 125.25,
            "velocity": 0.5511811023622047
          },
          {
            "duration": 0.1875,
            "durationTicks": 144,
            "midi": 40,
            "name": "E2",
            "ticks": 96192,
            "time": 125.25,
            "velocity": 0.5511811023622047
          },
          {
            "duration": 0.1875,
            "durationTicks": 144,
            "midi": 55,
            "name": "G3",
            "ticks": 96192,
            "time": 125.25,
            "velocity": 0.5511811023622047
          },
          {
            "duration": 0.1875,
            "durationTicks": 144,
            "midi": 43,
            "name": "G2",
            "ticks": 96192,
            "time": 125.25,
            "velocity": 0.5511811023622047
          },
          {
            "duration": 0.1875,
            "durationTicks": 144,
            "midi": 60,
            "name": "C4",
            "ticks": 96192,
            "time": 125.25,
            "velocity": 0.5511811023622047
          },
          {
            "duration": 0.1875,
            "durationTicks": 144,
            "midi": 52,
            "name": "E3",
            "ticks": 96192,
            "time": 125.25,
            "velocity": 0.5511811023622047
          },
          {
            "duration": 0.1875,
            "durationTicks": 144,
            "midi": 36,
            "name": "C2",
            "ticks": 96192,
            "time": 125.25,
            "velocity": 0.5511811023622047
          },
          {
            "duration": 0.1875,
            "durationTicks": 144,
            "midi": 52,
            "name": "E3",
            "ticks": 96480,
            "time": 125.625,
            "velocity": 0.5511811023622047
          },
          {
            "duration": 0.1875,
            "durationTicks": 144,
            "midi": 48,
            "name": "C3",
            "ticks": 96480,
            "time": 125.625,
            "velocity": 0.5511811023622047
          },
          {
            "duration": 0.1875,
            "durationTicks": 144,
            "midi": 60,
            "name": "C4",
            "ticks": 96480,
            "time": 125.625,
            "velocity": 0.5511811023622047
          },
          {
            "duration": 0.1875,
            "durationTicks": 144,
            "midi": 43,
            "name": "G2",
            "ticks": 96480,
            "time": 125.625,
            "velocity": 0.5511811023622047
          },
          {
            "duration": 0.1875,
            "durationTicks": 144,
            "midi": 55,
            "name": "G3",
            "ticks": 96480,
            "time": 125.625,
            "velocity": 0.5511811023622047
          },
          {
            "duration": 0.1875,
            "durationTicks": 144,
            "midi": 36,
            "name": "C2",
            "ticks": 96480,
            "time": 125.625,
            "velocity": 0.5511811023622047
          },
          {
            "duration": 0.1875,
            "durationTicks": 144,
            "midi": 40,
            "name": "E2",
            "ticks": 96480,
            "time": 125.625,
            "velocity": 0.5511811023622047
          },
          {
            "duration": 0.1875,
            "durationTicks": 144,
            "midi": 55,
            "name": "G3",
            "ticks": 96624,
            "time": 125.8125,
            "velocity": 0.5511811023622047
          },
          {
            "duration": 0.1875,
            "durationTicks": 144,
            "midi": 60,
            "name": "C4",
            "ticks": 96624,
            "time": 125.8125,
            "velocity": 0.5511811023622047
          },
          {
            "duration": 0.1875,
            "durationTicks": 144,
            "midi": 48,
            "name": "C3",
            "ticks": 96624,
            "time": 125.8125,
            "velocity": 0.5511811023622047
          },
          {
            "duration": 0.1875,
            "durationTicks": 144,
            "midi": 40,
            "name": "E2",
            "ticks": 96624,
            "time": 125.8125,
            "velocity": 0.5511811023622047
          },
          {
            "duration": 0.1875,
            "durationTicks": 144,
            "midi": 52,
            "name": "E3",
            "ticks": 96624,
            "time": 125.8125,
            "velocity": 0.5511811023622047
          },
          {
            "duration": 0.1875,
            "durationTicks": 144,
            "midi": 43,
            "name": "G2",
            "ticks": 96624,
            "time": 125.8125,
            "velocity": 0.5511811023622047
          },
          {
            "duration": 0.1875,
            "durationTicks": 144,
            "midi": 36,
            "name": "C2",
            "ticks": 96624,
            "time": 125.8125,
            "velocity": 0.5511811023622047
          },
          {
            "duration": 0.1875,
            "durationTicks": 144,
            "midi": 60,
            "name": "C4",
            "ticks": 96912,
            "time": 126.1875,
            "velocity": 0.5511811023622047
          },
          {
            "duration": 0.1875,
            "durationTicks": 144,
            "midi": 48,
            "name": "C3",
            "ticks": 96912,
            "time": 126.1875,
            "velocity": 0.5511811023622047
          },
          {
            "duration": 0.1875,
            "durationTicks": 144,
            "midi": 40,
            "name": "E2",
            "ticks": 96912,
            "time": 126.1875,
            "velocity": 0.5511811023622047
          },
          {
            "duration": 0.1875,
            "durationTicks": 144,
            "midi": 36,
            "name": "C2",
            "ticks": 96912,
            "time": 126.1875,
            "velocity": 0.5511811023622047
          },
          {
            "duration": 0.1875,
            "durationTicks": 144,
            "midi": 55,
            "name": "G3",
            "ticks": 96912,
            "time": 126.1875,
            "velocity": 0.5511811023622047
          },
          {
            "duration": 0.1875,
            "durationTicks": 144,
            "midi": 52,
            "name": "E3",
            "ticks": 96912,
            "time": 126.1875,
            "velocity": 0.5511811023622047
          },
          {
            "duration": 0.1875,
            "durationTicks": 144,
            "midi": 43,
            "name": "G2",
            "ticks": 96912,
            "time": 126.1875,
            "velocity": 0.5511811023622047
          },
          {
            "duration": 0.1875,
            "durationTicks": 144,
            "midi": 60,
            "name": "C4",
            "ticks": 97056,
            "time": 126.375,
            "velocity": 0.5511811023622047
          },
          {
            "duration": 0.1875,
            "durationTicks": 144,
            "midi": 52,
            "name": "E3",
            "ticks": 97056,
            "time": 126.375,
            "velocity": 0.5511811023622047
          },
          {
            "duration": 0.1875,
            "durationTicks": 144,
            "midi": 43,
            "name": "G2",
            "ticks": 97056,
            "time": 126.375,
            "velocity": 0.5511811023622047
          },
          {
            "duration": 0.1875,
            "durationTicks": 144,
            "midi": 55,
            "name": "G3",
            "ticks": 97056,
            "time": 126.375,
            "velocity": 0.5511811023622047
          },
          {
            "duration": 0.1875,
            "durationTicks": 144,
            "midi": 40,
            "name": "E2",
            "ticks": 97056,
            "time": 126.375,
            "velocity": 0.5511811023622047
          },
          {
            "duration": 0.1875,
            "durationTicks": 144,
            "midi": 48,
            "name": "C3",
            "ticks": 97056,
            "time": 126.375,
            "velocity": 0.5511811023622047
          },
          {
            "duration": 0.1875,
            "durationTicks": 144,
            "midi": 36,
            "name": "C2",
            "ticks": 97056,
            "time": 126.375,
            "velocity": 0.5511811023622047
          },
          {
            "duration": 0.1875,
            "durationTicks": 144,
            "midi": 40,
            "name": "E2",
            "ticks": 97200,
            "time": 126.5625,
            "velocity": 0.5511811023622047
          },
          {
            "duration": 0.1875,
            "durationTicks": 144,
            "midi": 60,
            "name": "C4",
            "ticks": 97200,
            "time": 126.5625,
            "velocity": 0.5511811023622047
          },
          {
            "duration": 0.1875,
            "durationTicks": 144,
            "midi": 55,
            "name": "G3",
            "ticks": 97200,
            "time": 126.5625,
            "velocity": 0.5511811023622047
          },
          {
            "duration": 0.1875,
            "durationTicks": 144,
            "midi": 52,
            "name": "E3",
            "ticks": 97200,
            "time": 126.5625,
            "velocity": 0.5511811023622047
          },
          {
            "duration": 0.1875,
            "durationTicks": 144,
            "midi": 48,
            "name": "C3",
            "ticks": 97200,
            "time": 126.5625,
            "velocity": 0.5511811023622047
          },
          {
            "duration": 0.1875,
            "durationTicks": 144,
            "midi": 36,
            "name": "C2",
            "ticks": 97200,
            "time": 126.5625,
            "velocity": 0.5511811023622047
          },
          {
            "duration": 0.1875,
            "durationTicks": 144,
            "midi": 43,
            "name": "G2",
            "ticks": 97200,
            "time": 126.5625,
            "velocity": 0.5511811023622047
          },
          {
            "duration": 0.1875,
            "durationTicks": 144,
            "midi": 43,
            "name": "G2",
            "ticks": 97344,
            "time": 126.75,
            "velocity": 0.5511811023622047
          },
          {
            "duration": 0.1875,
            "durationTicks": 144,
            "midi": 36,
            "name": "C2",
            "ticks": 97344,
            "time": 126.75,
            "velocity": 0.5511811023622047
          },
          {
            "duration": 0.1875,
            "durationTicks": 144,
            "midi": 40,
            "name": "E2",
            "ticks": 97344,
            "time": 126.75,
            "velocity": 0.5511811023622047
          },
          {
            "duration": 0.1875,
            "durationTicks": 144,
            "midi": 55,
            "name": "G3",
            "ticks": 97344,
            "time": 126.75,
            "velocity": 0.5511811023622047
          },
          {
            "duration": 0.1875,
            "durationTicks": 144,
            "midi": 60,
            "name": "C4",
            "ticks": 97344,
            "time": 126.75,
            "velocity": 0.5511811023622047
          },
          {
            "duration": 0.1875,
            "durationTicks": 144,
            "midi": 52,
            "name": "E3",
            "ticks": 97344,
            "time": 126.75,
            "velocity": 0.5511811023622047
          },
          {
            "duration": 0.1875,
            "durationTicks": 144,
            "midi": 48,
            "name": "C3",
            "ticks": 97344,
            "time": 126.75,
            "velocity": 0.5511811023622047
          },
          {
            "duration": 0.1875,
            "durationTicks": 144,
            "midi": 52,
            "name": "E3",
            "ticks": 97632,
            "time": 127.125,
            "velocity": 0.5511811023622047
          },
          {
            "duration": 0.1875,
            "durationTicks": 144,
            "midi": 48,
            "name": "C3",
            "ticks": 97632,
            "time": 127.125,
            "velocity": 0.5511811023622047
          },
          {
            "duration": 0.1875,
            "durationTicks": 144,
            "midi": 43,
            "name": "G2",
            "ticks": 97632,
            "time": 127.125,
            "velocity": 0.5511811023622047
          },
          {
            "duration": 0.1875,
            "durationTicks": 144,
            "midi": 36,
            "name": "C2",
            "ticks": 97632,
            "time": 127.125,
            "velocity": 0.5511811023622047
          },
          {
            "duration": 0.1875,
            "durationTicks": 144,
            "midi": 40,
            "name": "E2",
            "ticks": 97632,
            "time": 127.125,
            "velocity": 0.5511811023622047
          },
          {
            "duration": 0.1875,
            "durationTicks": 144,
            "midi": 55,
            "name": "G3",
            "ticks": 97632,
            "time": 127.125,
            "velocity": 0.5511811023622047
          },
          {
            "duration": 0.1875,
            "durationTicks": 144,
            "midi": 60,
            "name": "C4",
            "ticks": 97632,
            "time": 127.125,
            "velocity": 0.5511811023622047
          },
          {
            "duration": 0.1875,
            "durationTicks": 144,
            "midi": 60,
            "name": "C4",
            "ticks": 97776,
            "time": 127.3125,
            "velocity": 0.5511811023622047
          },
          {
            "duration": 0.1875,
            "durationTicks": 144,
            "midi": 55,
            "name": "G3",
            "ticks": 97776,
            "time": 127.3125,
            "velocity": 0.5511811023622047
          },
          {
            "duration": 0.1875,
            "durationTicks": 144,
            "midi": 36,
            "name": "C2",
            "ticks": 97776,
            "time": 127.3125,
            "velocity": 0.5511811023622047
          },
          {
            "duration": 0.1875,
            "durationTicks": 144,
            "midi": 43,
            "name": "G2",
            "ticks": 97776,
            "time": 127.3125,
            "velocity": 0.5511811023622047
          },
          {
            "duration": 0.1875,
            "durationTicks": 144,
            "midi": 40,
            "name": "E2",
            "ticks": 97776,
            "time": 127.3125,
            "velocity": 0.5511811023622047
          },
          {
            "duration": 0.1875,
            "durationTicks": 144,
            "midi": 48,
            "name": "C3",
            "ticks": 97776,
            "time": 127.3125,
            "velocity": 0.5511811023622047
          },
          {
            "duration": 0.1875,
            "durationTicks": 144,
            "midi": 52,
            "name": "E3",
            "ticks": 97776,
            "time": 127.3125,
            "velocity": 0.5511811023622047
          },
          {
            "duration": 0.1875,
            "durationTicks": 144,
            "midi": 43,
            "name": "G2",
            "ticks": 98064,
            "time": 127.6875,
            "velocity": 0.5511811023622047
          },
          {
            "duration": 0.1875,
            "durationTicks": 144,
            "midi": 55,
            "name": "G3",
            "ticks": 98064,
            "time": 127.6875,
            "velocity": 0.5511811023622047
          },
          {
            "duration": 0.1875,
            "durationTicks": 144,
            "midi": 40,
            "name": "E2",
            "ticks": 98064,
            "time": 127.6875,
            "velocity": 0.5511811023622047
          },
          {
            "duration": 0.1875,
            "durationTicks": 144,
            "midi": 60,
            "name": "C4",
            "ticks": 98064,
            "time": 127.6875,
            "velocity": 0.5511811023622047
          },
          {
            "duration": 0.1875,
            "durationTicks": 144,
            "midi": 36,
            "name": "C2",
            "ticks": 98064,
            "time": 127.6875,
            "velocity": 0.5511811023622047
          },
          {
            "duration": 0.1875,
            "durationTicks": 144,
            "midi": 52,
            "name": "E3",
            "ticks": 98064,
            "time": 127.6875,
            "velocity": 0.5511811023622047
          },
          {
            "duration": 0.1875,
            "durationTicks": 144,
            "midi": 48,
            "name": "C3",
            "ticks": 98064,
            "time": 127.6875,
            "velocity": 0.5511811023622047
          },
          {
            "duration": 0.1875,
            "durationTicks": 144,
            "midi": 55,
            "name": "G3",
            "ticks": 98208,
            "time": 127.875,
            "velocity": 0.5511811023622047
          },
          {
            "duration": 0.1875,
            "durationTicks": 144,
            "midi": 48,
            "name": "C3",
            "ticks": 98208,
            "time": 127.875,
            "velocity": 0.5511811023622047
          },
          {
            "duration": 0.1875,
            "durationTicks": 144,
            "midi": 43,
            "name": "G2",
            "ticks": 98208,
            "time": 127.875,
            "velocity": 0.5511811023622047
          },
          {
            "duration": 0.1875,
            "durationTicks": 144,
            "midi": 60,
            "name": "C4",
            "ticks": 98208,
            "time": 127.875,
            "velocity": 0.5511811023622047
          },
          {
            "duration": 0.1875,
            "durationTicks": 144,
            "midi": 36,
            "name": "C2",
            "ticks": 98208,
            "time": 127.875,
            "velocity": 0.5511811023622047
          },
          {
            "duration": 0.1875,
            "durationTicks": 144,
            "midi": 52,
            "name": "E3",
            "ticks": 98208,
            "time": 127.875,
            "velocity": 0.5511811023622047
          },
          {
            "duration": 0.1875,
            "durationTicks": 144,
            "midi": 40,
            "name": "E2",
            "ticks": 98208,
            "time": 127.875,
            "velocity": 0.5511811023622047
          },
          {
            "duration": 0.1875,
            "durationTicks": 144,
            "midi": 36,
            "name": "C2",
            "ticks": 98352,
            "time": 128.0625,
            "velocity": 0.5511811023622047
          },
          {
            "duration": 0.1875,
            "durationTicks": 144,
            "midi": 60,
            "name": "C4",
            "ticks": 98352,
            "time": 128.0625,
            "velocity": 0.5511811023622047
          },
          {
            "duration": 0.1875,
            "durationTicks": 144,
            "midi": 48,
            "name": "C3",
            "ticks": 98352,
            "time": 128.0625,
            "velocity": 0.5511811023622047
          },
          {
            "duration": 0.1875,
            "durationTicks": 144,
            "midi": 55,
            "name": "G3",
            "ticks": 98352,
            "time": 128.0625,
            "velocity": 0.5511811023622047
          },
          {
            "duration": 0.1875,
            "durationTicks": 144,
            "midi": 43,
            "name": "G2",
            "ticks": 98352,
            "time": 128.0625,
            "velocity": 0.5511811023622047
          },
          {
            "duration": 0.1875,
            "durationTicks": 144,
            "midi": 40,
            "name": "E2",
            "ticks": 98352,
            "time": 128.0625,
            "velocity": 0.5511811023622047
          },
          {
            "duration": 0.1875,
            "durationTicks": 144,
            "midi": 52,
            "name": "E3",
            "ticks": 98352,
            "time": 128.0625,
            "velocity": 0.5511811023622047
          },
          {
            "duration": 0.1875,
            "durationTicks": 144,
            "midi": 50,
            "name": "D3",
            "ticks": 98496,
            "time": 128.25,
            "velocity": 0.5511811023622047
          },
          {
            "duration": 0.1875,
            "durationTicks": 144,
            "midi": 62,
            "name": "D4",
            "ticks": 98496,
            "time": 128.25,
            "velocity": 0.5511811023622047
          },
          {
            "duration": 0.1875,
            "durationTicks": 144,
            "midi": 57,
            "name": "A3",
            "ticks": 98496,
            "time": 128.25,
            "velocity": 0.5511811023622047
          },
          {
            "duration": 0.1875,
            "durationTicks": 144,
            "midi": 54,
            "name": "F#3",
            "ticks": 98496,
            "time": 128.25,
            "velocity": 0.5511811023622047
          },
          {
            "duration": 0.1875,
            "durationTicks": 144,
            "midi": 45,
            "name": "A2",
            "ticks": 98496,
            "time": 128.25,
            "velocity": 0.5511811023622047
          },
          {
            "duration": 0.1875,
            "durationTicks": 144,
            "midi": 38,
            "name": "D2",
            "ticks": 98496,
            "time": 128.25,
            "velocity": 0.5511811023622047
          },
          {
            "duration": 0.1875,
            "durationTicks": 144,
            "midi": 42,
            "name": "F#2",
            "ticks": 98496,
            "time": 128.25,
            "velocity": 0.5511811023622047
          },
          {
            "duration": 0.1875,
            "durationTicks": 144,
            "midi": 38,
            "name": "D2",
            "ticks": 98784,
            "time": 128.625,
            "velocity": 0.5511811023622047
          },
          {
            "duration": 0.1875,
            "durationTicks": 144,
            "midi": 42,
            "name": "F#2",
            "ticks": 98784,
            "time": 128.625,
            "velocity": 0.5511811023622047
          },
          {
            "duration": 0.1875,
            "durationTicks": 144,
            "midi": 57,
            "name": "A3",
            "ticks": 98784,
            "time": 128.625,
            "velocity": 0.5511811023622047
          },
          {
            "duration": 0.1875,
            "durationTicks": 144,
            "midi": 54,
            "name": "F#3",
            "ticks": 98784,
            "time": 128.625,
            "velocity": 0.5511811023622047
          },
          {
            "duration": 0.1875,
            "durationTicks": 144,
            "midi": 62,
            "name": "D4",
            "ticks": 98784,
            "time": 128.625,
            "velocity": 0.5511811023622047
          },
          {
            "duration": 0.1875,
            "durationTicks": 144,
            "midi": 50,
            "name": "D3",
            "ticks": 98784,
            "time": 128.625,
            "velocity": 0.5511811023622047
          },
          {
            "duration": 0.1875,
            "durationTicks": 144,
            "midi": 45,
            "name": "A2",
            "ticks": 98784,
            "time": 128.625,
            "velocity": 0.5511811023622047
          },
          {
            "duration": 0.1875,
            "durationTicks": 144,
            "midi": 47,
            "name": "B2",
            "ticks": 99072,
            "time": 129,
            "velocity": 0.5511811023622047
          },
          {
            "duration": 0.1875,
            "durationTicks": 144,
            "midi": 56,
            "name": "G#3",
            "ticks": 99072,
            "time": 129,
            "velocity": 0.5511811023622047
          },
          {
            "duration": 0.1875,
            "durationTicks": 144,
            "midi": 59,
            "name": "B3",
            "ticks": 99072,
            "time": 129,
            "velocity": 0.5511811023622047
          },
          {
            "duration": 0.1875,
            "durationTicks": 144,
            "midi": 52,
            "name": "E3",
            "ticks": 99072,
            "time": 129,
            "velocity": 0.5511811023622047
          },
          {
            "duration": 0.1875,
            "durationTicks": 144,
            "midi": 40,
            "name": "E2",
            "ticks": 99072,
            "time": 129,
            "velocity": 0.5511811023622047
          },
          {
            "duration": 0.1875,
            "durationTicks": 144,
            "midi": 64,
            "name": "E4",
            "ticks": 99072,
            "time": 129,
            "velocity": 0.5511811023622047
          },
          {
            "duration": 0.1875,
            "durationTicks": 144,
            "midi": 44,
            "name": "G#2",
            "ticks": 99072,
            "time": 129,
            "velocity": 0.5511811023622047
          },
          {
            "duration": 0.1875,
            "durationTicks": 144,
            "midi": 59,
            "name": "B3",
            "ticks": 99360,
            "time": 129.375,
            "velocity": 0.5511811023622047
          },
          {
            "duration": 0.1875,
            "durationTicks": 144,
            "midi": 56,
            "name": "G#3",
            "ticks": 99360,
            "time": 129.375,
            "velocity": 0.5511811023622047
          },
          {
            "duration": 0.1875,
            "durationTicks": 144,
            "midi": 47,
            "name": "B2",
            "ticks": 99360,
            "time": 129.375,
            "velocity": 0.5511811023622047
          },
          {
            "duration": 0.1875,
            "durationTicks": 144,
            "midi": 52,
            "name": "E3",
            "ticks": 99360,
            "time": 129.375,
            "velocity": 0.5511811023622047
          },
          {
            "duration": 0.1875,
            "durationTicks": 144,
            "midi": 64,
            "name": "E4",
            "ticks": 99360,
            "time": 129.375,
            "velocity": 0.5511811023622047
          },
          {
            "duration": 0.1875,
            "durationTicks": 144,
            "midi": 40,
            "name": "E2",
            "ticks": 99360,
            "time": 129.375,
            "velocity": 0.5511811023622047
          },
          {
            "duration": 0.1875,
            "durationTicks": 144,
            "midi": 44,
            "name": "G#2",
            "ticks": 99360,
            "time": 129.375,
            "velocity": 0.5511811023622047
          },
          {
            "duration": 0.1875,
            "durationTicks": 144,
            "midi": 64,
            "name": "E4",
            "ticks": 99504,
            "time": 129.5625,
            "velocity": 0.5511811023622047
          },
          {
            "duration": 0.1875,
            "durationTicks": 144,
            "midi": 47,
            "name": "B2",
            "ticks": 99504,
            "time": 129.5625,
            "velocity": 0.5511811023622047
          },
          {
            "duration": 0.1875,
            "durationTicks": 144,
            "midi": 56,
            "name": "G#3",
            "ticks": 99504,
            "time": 129.5625,
            "velocity": 0.5511811023622047
          },
          {
            "duration": 0.1875,
            "durationTicks": 144,
            "midi": 59,
            "name": "B3",
            "ticks": 99504,
            "time": 129.5625,
            "velocity": 0.5511811023622047
          },
          {
            "duration": 0.1875,
            "durationTicks": 144,
            "midi": 44,
            "name": "G#2",
            "ticks": 99504,
            "time": 129.5625,
            "velocity": 0.5511811023622047
          },
          {
            "duration": 0.1875,
            "durationTicks": 144,
            "midi": 52,
            "name": "E3",
            "ticks": 99504,
            "time": 129.5625,
            "velocity": 0.5511811023622047
          },
          {
            "duration": 0.1875,
            "durationTicks": 144,
            "midi": 40,
            "name": "E2",
            "ticks": 99504,
            "time": 129.5625,
            "velocity": 0.5511811023622047
          },
          {
            "duration": 0.1875,
            "durationTicks": 144,
            "midi": 59,
            "name": "B3",
            "ticks": 99792,
            "time": 129.9375,
            "velocity": 0.5511811023622047
          },
          {
            "duration": 0.1875,
            "durationTicks": 144,
            "midi": 64,
            "name": "E4",
            "ticks": 99792,
            "time": 129.9375,
            "velocity": 0.5511811023622047
          },
          {
            "duration": 0.1875,
            "durationTicks": 144,
            "midi": 52,
            "name": "E3",
            "ticks": 99792,
            "time": 129.9375,
            "velocity": 0.5511811023622047
          },
          {
            "duration": 0.1875,
            "durationTicks": 144,
            "midi": 44,
            "name": "G#2",
            "ticks": 99792,
            "time": 129.9375,
            "velocity": 0.5511811023622047
          },
          {
            "duration": 0.1875,
            "durationTicks": 144,
            "midi": 47,
            "name": "B2",
            "ticks": 99792,
            "time": 129.9375,
            "velocity": 0.5511811023622047
          },
          {
            "duration": 0.1875,
            "durationTicks": 144,
            "midi": 40,
            "name": "E2",
            "ticks": 99792,
            "time": 129.9375,
            "velocity": 0.5511811023622047
          },
          {
            "duration": 0.1875,
            "durationTicks": 144,
            "midi": 56,
            "name": "G#3",
            "ticks": 99792,
            "time": 129.9375,
            "velocity": 0.5511811023622047
          },
          {
            "duration": 0.1875,
            "durationTicks": 144,
            "midi": 44,
            "name": "G#2",
            "ticks": 99936,
            "time": 130.125,
            "velocity": 0.5511811023622047
          },
          {
            "duration": 0.1875,
            "durationTicks": 144,
            "midi": 40,
            "name": "E2",
            "ticks": 99936,
            "time": 130.125,
            "velocity": 0.5511811023622047
          },
          {
            "duration": 0.1875,
            "durationTicks": 144,
            "midi": 56,
            "name": "G#3",
            "ticks": 99936,
            "time": 130.125,
            "velocity": 0.5511811023622047
          },
          {
            "duration": 0.1875,
            "durationTicks": 144,
            "midi": 47,
            "name": "B2",
            "ticks": 99936,
            "time": 130.125,
            "velocity": 0.5511811023622047
          },
          {
            "duration": 0.1875,
            "durationTicks": 144,
            "midi": 64,
            "name": "E4",
            "ticks": 99936,
            "time": 130.125,
            "velocity": 0.5511811023622047
          },
          {
            "duration": 0.1875,
            "durationTicks": 144,
            "midi": 59,
            "name": "B3",
            "ticks": 99936,
            "time": 130.125,
            "velocity": 0.5511811023622047
          },
          {
            "duration": 0.1875,
            "durationTicks": 144,
            "midi": 52,
            "name": "E3",
            "ticks": 99936,
            "time": 130.125,
            "velocity": 0.5511811023622047
          },
          {
            "duration": 0.1875,
            "durationTicks": 144,
            "midi": 59,
            "name": "B3",
            "ticks": 100080,
            "time": 130.3125,
            "velocity": 0.5511811023622047
          },
          {
            "duration": 0.1875,
            "durationTicks": 144,
            "midi": 56,
            "name": "G#3",
            "ticks": 100080,
            "time": 130.3125,
            "velocity": 0.5511811023622047
          },
          {
            "duration": 0.1875,
            "durationTicks": 144,
            "midi": 44,
            "name": "G#2",
            "ticks": 100080,
            "time": 130.3125,
            "velocity": 0.5511811023622047
          },
          {
            "duration": 0.1875,
            "durationTicks": 144,
            "midi": 52,
            "name": "E3",
            "ticks": 100080,
            "time": 130.3125,
            "velocity": 0.5511811023622047
          },
          {
            "duration": 0.1875,
            "durationTicks": 144,
            "midi": 64,
            "name": "E4",
            "ticks": 100080,
            "time": 130.3125,
            "velocity": 0.5511811023622047
          },
          {
            "duration": 0.1875,
            "durationTicks": 144,
            "midi": 40,
            "name": "E2",
            "ticks": 100080,
            "time": 130.3125,
            "velocity": 0.5511811023622047
          },
          {
            "duration": 0.1875,
            "durationTicks": 144,
            "midi": 47,
            "name": "B2",
            "ticks": 100080,
            "time": 130.3125,
            "velocity": 0.5511811023622047
          },
          {
            "duration": 0.1875,
            "durationTicks": 144,
            "midi": 40,
            "name": "E2",
            "ticks": 100224,
            "time": 130.5,
            "velocity": 0.5511811023622047
          },
          {
            "duration": 0.1875,
            "durationTicks": 144,
            "midi": 47,
            "name": "B2",
            "ticks": 100224,
            "time": 130.5,
            "velocity": 0.5511811023622047
          },
          {
            "duration": 0.1875,
            "durationTicks": 144,
            "midi": 44,
            "name": "G#2",
            "ticks": 100224,
            "time": 130.5,
            "velocity": 0.5511811023622047
          },
          {
            "duration": 0.1875,
            "durationTicks": 144,
            "midi": 52,
            "name": "E3",
            "ticks": 100224,
            "time": 130.5,
            "velocity": 0.5511811023622047
          },
          {
            "duration": 0.1875,
            "durationTicks": 144,
            "midi": 59,
            "name": "B3",
            "ticks": 100224,
            "time": 130.5,
            "velocity": 0.5511811023622047
          },
          {
            "duration": 0.1875,
            "durationTicks": 144,
            "midi": 56,
            "name": "G#3",
            "ticks": 100224,
            "time": 130.5,
            "velocity": 0.5511811023622047
          },
          {
            "duration": 0.1875,
            "durationTicks": 144,
            "midi": 64,
            "name": "E4",
            "ticks": 100224,
            "time": 130.5,
            "velocity": 0.5511811023622047
          },
          {
            "duration": 0.1875,
            "durationTicks": 144,
            "midi": 52,
            "name": "E3",
            "ticks": 100512,
            "time": 130.875,
            "velocity": 0.5511811023622047
          },
          {
            "duration": 0.1875,
            "durationTicks": 144,
            "midi": 47,
            "name": "B2",
            "ticks": 100512,
            "time": 130.875,
            "velocity": 0.5511811023622047
          },
          {
            "duration": 0.1875,
            "durationTicks": 144,
            "midi": 64,
            "name": "E4",
            "ticks": 100512,
            "time": 130.875,
            "velocity": 0.5511811023622047
          },
          {
            "duration": 0.1875,
            "durationTicks": 144,
            "midi": 44,
            "name": "G#2",
            "ticks": 100512,
            "time": 130.875,
            "velocity": 0.5511811023622047
          },
          {
            "duration": 0.1875,
            "durationTicks": 144,
            "midi": 40,
            "name": "E2",
            "ticks": 100512,
            "time": 130.875,
            "velocity": 0.5511811023622047
          },
          {
            "duration": 0.1875,
            "durationTicks": 144,
            "midi": 56,
            "name": "G#3",
            "ticks": 100512,
            "time": 130.875,
            "velocity": 0.5511811023622047
          },
          {
            "duration": 0.1875,
            "durationTicks": 144,
            "midi": 59,
            "name": "B3",
            "ticks": 100512,
            "time": 130.875,
            "velocity": 0.5511811023622047
          },
          {
            "duration": 0.1875,
            "durationTicks": 144,
            "midi": 59,
            "name": "B3",
            "ticks": 100656,
            "time": 131.0625,
            "velocity": 0.5511811023622047
          },
          {
            "duration": 0.1875,
            "durationTicks": 144,
            "midi": 47,
            "name": "B2",
            "ticks": 100656,
            "time": 131.0625,
            "velocity": 0.5511811023622047
          },
          {
            "duration": 0.1875,
            "durationTicks": 144,
            "midi": 44,
            "name": "G#2",
            "ticks": 100656,
            "time": 131.0625,
            "velocity": 0.5511811023622047
          },
          {
            "duration": 0.1875,
            "durationTicks": 144,
            "midi": 64,
            "name": "E4",
            "ticks": 100656,
            "time": 131.0625,
            "velocity": 0.5511811023622047
          },
          {
            "duration": 0.1875,
            "durationTicks": 144,
            "midi": 56,
            "name": "G#3",
            "ticks": 100656,
            "time": 131.0625,
            "velocity": 0.5511811023622047
          },
          {
            "duration": 0.1875,
            "durationTicks": 144,
            "midi": 52,
            "name": "E3",
            "ticks": 100656,
            "time": 131.0625,
            "velocity": 0.5511811023622047
          },
          {
            "duration": 0.1875,
            "durationTicks": 144,
            "midi": 40,
            "name": "E2",
            "ticks": 100656,
            "time": 131.0625,
            "velocity": 0.5511811023622047
          },
          {
            "duration": 0.1875,
            "durationTicks": 144,
            "midi": 44,
            "name": "G#2",
            "ticks": 100944,
            "time": 131.4375,
            "velocity": 0.5511811023622047
          },
          {
            "duration": 0.1875,
            "durationTicks": 144,
            "midi": 59,
            "name": "B3",
            "ticks": 100944,
            "time": 131.4375,
            "velocity": 0.5511811023622047
          },
          {
            "duration": 0.1875,
            "durationTicks": 144,
            "midi": 52,
            "name": "E3",
            "ticks": 100944,
            "time": 131.4375,
            "velocity": 0.5511811023622047
          },
          {
            "duration": 0.1875,
            "durationTicks": 144,
            "midi": 56,
            "name": "G#3",
            "ticks": 100944,
            "time": 131.4375,
            "velocity": 0.5511811023622047
          },
          {
            "duration": 0.1875,
            "durationTicks": 144,
            "midi": 64,
            "name": "E4",
            "ticks": 100944,
            "time": 131.4375,
            "velocity": 0.5511811023622047
          },
          {
            "duration": 0.1875,
            "durationTicks": 144,
            "midi": 47,
            "name": "B2",
            "ticks": 100944,
            "time": 131.4375,
            "velocity": 0.5511811023622047
          },
          {
            "duration": 0.1875,
            "durationTicks": 144,
            "midi": 40,
            "name": "E2",
            "ticks": 100944,
            "time": 131.4375,
            "velocity": 0.5511811023622047
          },
          {
            "duration": 0.1875,
            "durationTicks": 144,
            "midi": 52,
            "name": "E3",
            "ticks": 101088,
            "time": 131.625,
            "velocity": 0.5511811023622047
          },
          {
            "duration": 0.1875,
            "durationTicks": 144,
            "midi": 47,
            "name": "B2",
            "ticks": 101088,
            "time": 131.625,
            "velocity": 0.5511811023622047
          },
          {
            "duration": 0.1875,
            "durationTicks": 144,
            "midi": 44,
            "name": "G#2",
            "ticks": 101088,
            "time": 131.625,
            "velocity": 0.5511811023622047
          },
          {
            "duration": 0.1875,
            "durationTicks": 144,
            "midi": 64,
            "name": "E4",
            "ticks": 101088,
            "time": 131.625,
            "velocity": 0.5511811023622047
          },
          {
            "duration": 0.1875,
            "durationTicks": 144,
            "midi": 40,
            "name": "E2",
            "ticks": 101088,
            "time": 131.625,
            "velocity": 0.5511811023622047
          },
          {
            "duration": 0.1875,
            "durationTicks": 144,
            "midi": 59,
            "name": "B3",
            "ticks": 101088,
            "time": 131.625,
            "velocity": 0.5511811023622047
          },
          {
            "duration": 0.1875,
            "durationTicks": 144,
            "midi": 56,
            "name": "G#3",
            "ticks": 101088,
            "time": 131.625,
            "velocity": 0.5511811023622047
          },
          {
            "duration": 0.1875,
            "durationTicks": 144,
            "midi": 59,
            "name": "B3",
            "ticks": 101232,
            "time": 131.8125,
            "velocity": 0.5511811023622047
          },
          {
            "duration": 0.1875,
            "durationTicks": 144,
            "midi": 47,
            "name": "B2",
            "ticks": 101232,
            "time": 131.8125,
            "velocity": 0.5511811023622047
          },
          {
            "duration": 0.1875,
            "durationTicks": 144,
            "midi": 52,
            "name": "E3",
            "ticks": 101232,
            "time": 131.8125,
            "velocity": 0.5511811023622047
          },
          {
            "duration": 0.1875,
            "durationTicks": 144,
            "midi": 64,
            "name": "E4",
            "ticks": 101232,
            "time": 131.8125,
            "velocity": 0.5511811023622047
          },
          {
            "duration": 0.1875,
            "durationTicks": 144,
            "midi": 56,
            "name": "G#3",
            "ticks": 101232,
            "time": 131.8125,
            "velocity": 0.5511811023622047
          },
          {
            "duration": 0.1875,
            "durationTicks": 144,
            "midi": 40,
            "name": "E2",
            "ticks": 101232,
            "time": 131.8125,
            "velocity": 0.5511811023622047
          },
          {
            "duration": 0.1875,
            "durationTicks": 144,
            "midi": 44,
            "name": "G#2",
            "ticks": 101232,
            "time": 131.8125,
            "velocity": 0.5511811023622047
          },
          {
            "duration": 0.1875,
            "durationTicks": 144,
            "midi": 43,
            "name": "G2",
            "ticks": 101376,
            "time": 132,
            "velocity": 0.5511811023622047
          },
          {
            "duration": 0.1875,
            "durationTicks": 144,
            "midi": 55,
            "name": "G3",
            "ticks": 101376,
            "time": 132,
            "velocity": 0.5511811023622047
          },
          {
            "duration": 0.1875,
            "durationTicks": 144,
            "midi": 47,
            "name": "B2",
            "ticks": 101376,
            "time": 132,
            "velocity": 0.5511811023622047
          },
          {
            "duration": 0.1875,
            "durationTicks": 144,
            "midi": 50,
            "name": "D3",
            "ticks": 101376,
            "time": 132,
            "velocity": 0.5511811023622047
          },
          {
            "duration": 0.1875,
            "durationTicks": 144,
            "midi": 67,
            "name": "G4",
            "ticks": 101376,
            "time": 132,
            "velocity": 0.5511811023622047
          },
          {
            "duration": 0.1875,
            "durationTicks": 144,
            "midi": 59,
            "name": "B3",
            "ticks": 101376,
            "time": 132,
            "velocity": 0.5511811023622047
          },
          {
            "duration": 0.1875,
            "durationTicks": 144,
            "midi": 62,
            "name": "D4",
            "ticks": 101376,
            "time": 132,
            "velocity": 0.5511811023622047
          },
          {
            "duration": 0.1875,
            "durationTicks": 144,
            "midi": 55,
            "name": "G3",
            "ticks": 101664,
            "time": 132.375,
            "velocity": 0.5511811023622047
          },
          {
            "duration": 0.1875,
            "durationTicks": 144,
            "midi": 43,
            "name": "G2",
            "ticks": 101664,
            "time": 132.375,
            "velocity": 0.5511811023622047
          },
          {
            "duration": 0.1875,
            "durationTicks": 144,
            "midi": 59,
            "name": "B3",
            "ticks": 101664,
            "time": 132.375,
            "velocity": 0.5511811023622047
          },
          {
            "duration": 0.1875,
            "durationTicks": 144,
            "midi": 47,
            "name": "B2",
            "ticks": 101664,
            "time": 132.375,
            "velocity": 0.5511811023622047
          },
          {
            "duration": 0.1875,
            "durationTicks": 144,
            "midi": 62,
            "name": "D4",
            "ticks": 101664,
            "time": 132.375,
            "velocity": 0.5511811023622047
          },
          {
            "duration": 0.1875,
            "durationTicks": 144,
            "midi": 67,
            "name": "G4",
            "ticks": 101664,
            "time": 132.375,
            "velocity": 0.5511811023622047
          },
          {
            "duration": 0.1875,
            "durationTicks": 144,
            "midi": 50,
            "name": "D3",
            "ticks": 101664,
            "time": 132.375,
            "velocity": 0.5511811023622047
          },
          {
            "duration": 0.1875,
            "durationTicks": 144,
            "midi": 55,
            "name": "G3",
            "ticks": 101808,
            "time": 132.5625,
            "velocity": 0.5511811023622047
          },
          {
            "duration": 0.1875,
            "durationTicks": 144,
            "midi": 50,
            "name": "D3",
            "ticks": 101808,
            "time": 132.5625,
            "velocity": 0.5511811023622047
          },
          {
            "duration": 0.1875,
            "durationTicks": 144,
            "midi": 43,
            "name": "G2",
            "ticks": 101808,
            "time": 132.5625,
            "velocity": 0.5511811023622047
          },
          {
            "duration": 0.1875,
            "durationTicks": 144,
            "midi": 47,
            "name": "B2",
            "ticks": 101808,
            "time": 132.5625,
            "velocity": 0.5511811023622047
          },
          {
            "duration": 0.1875,
            "durationTicks": 144,
            "midi": 67,
            "name": "G4",
            "ticks": 101808,
            "time": 132.5625,
            "velocity": 0.5511811023622047
          },
          {
            "duration": 0.1875,
            "durationTicks": 144,
            "midi": 62,
            "name": "D4",
            "ticks": 101808,
            "time": 132.5625,
            "velocity": 0.5511811023622047
          },
          {
            "duration": 0.1875,
            "durationTicks": 144,
            "midi": 59,
            "name": "B3",
            "ticks": 101808,
            "time": 132.5625,
            "velocity": 0.5511811023622047
          },
          {
            "duration": 0.1875,
            "durationTicks": 144,
            "midi": 47,
            "name": "B2",
            "ticks": 102096,
            "time": 132.9375,
            "velocity": 0.5511811023622047
          },
          {
            "duration": 0.1875,
            "durationTicks": 144,
            "midi": 43,
            "name": "G2",
            "ticks": 102096,
            "time": 132.9375,
            "velocity": 0.5511811023622047
          },
          {
            "duration": 0.1875,
            "durationTicks": 144,
            "midi": 59,
            "name": "B3",
            "ticks": 102096,
            "time": 132.9375,
            "velocity": 0.5511811023622047
          },
          {
            "duration": 0.1875,
            "durationTicks": 144,
            "midi": 50,
            "name": "D3",
            "ticks": 102096,
            "time": 132.9375,
            "velocity": 0.5511811023622047
          },
          {
            "duration": 0.1875,
            "durationTicks": 144,
            "midi": 62,
            "name": "D4",
            "ticks": 102096,
            "time": 132.9375,
            "velocity": 0.5511811023622047
          },
          {
            "duration": 0.1875,
            "durationTicks": 144,
            "midi": 67,
            "name": "G4",
            "ticks": 102096,
            "time": 132.9375,
            "velocity": 0.5511811023622047
          },
          {
            "duration": 0.1875,
            "durationTicks": 144,
            "midi": 55,
            "name": "G3",
            "ticks": 102096,
            "time": 132.9375,
            "velocity": 0.5511811023622047
          },
          {
            "duration": 0.1875,
            "durationTicks": 144,
            "midi": 43,
            "name": "G2",
            "ticks": 102240,
            "time": 133.125,
            "velocity": 0.5511811023622047
          },
          {
            "duration": 0.1875,
            "durationTicks": 144,
            "midi": 67,
            "name": "G4",
            "ticks": 102240,
            "time": 133.125,
            "velocity": 0.5511811023622047
          },
          {
            "duration": 0.1875,
            "durationTicks": 144,
            "midi": 55,
            "name": "G3",
            "ticks": 102240,
            "time": 133.125,
            "velocity": 0.5511811023622047
          },
          {
            "duration": 0.1875,
            "durationTicks": 144,
            "midi": 59,
            "name": "B3",
            "ticks": 102240,
            "time": 133.125,
            "velocity": 0.5511811023622047
          },
          {
            "duration": 0.1875,
            "durationTicks": 144,
            "midi": 50,
            "name": "D3",
            "ticks": 102240,
            "time": 133.125,
            "velocity": 0.5511811023622047
          },
          {
            "duration": 0.1875,
            "durationTicks": 144,
            "midi": 47,
            "name": "B2",
            "ticks": 102240,
            "time": 133.125,
            "velocity": 0.5511811023622047
          },
          {
            "duration": 0.1875,
            "durationTicks": 144,
            "midi": 62,
            "name": "D4",
            "ticks": 102240,
            "time": 133.125,
            "velocity": 0.5511811023622047
          },
          {
            "duration": 0.1875,
            "durationTicks": 144,
            "midi": 62,
            "name": "D4",
            "ticks": 102384,
            "time": 133.3125,
            "velocity": 0.5511811023622047
          },
          {
            "duration": 0.1875,
            "durationTicks": 144,
            "midi": 50,
            "name": "D3",
            "ticks": 102384,
            "time": 133.3125,
            "velocity": 0.5511811023622047
          },
          {
            "duration": 0.1875,
            "durationTicks": 144,
            "midi": 55,
            "name": "G3",
            "ticks": 102384,
            "time": 133.3125,
            "velocity": 0.5511811023622047
          },
          {
            "duration": 0.1875,
            "durationTicks": 144,
            "midi": 43,
            "name": "G2",
            "ticks": 102384,
            "time": 133.3125,
            "velocity": 0.5511811023622047
          },
          {
            "duration": 0.1875,
            "durationTicks": 144,
            "midi": 47,
            "name": "B2",
            "ticks": 102384,
            "time": 133.3125,
            "velocity": 0.5511811023622047
          },
          {
            "duration": 0.1875,
            "durationTicks": 144,
            "midi": 67,
            "name": "G4",
            "ticks": 102384,
            "time": 133.3125,
            "velocity": 0.5511811023622047
          },
          {
            "duration": 0.1875,
            "durationTicks": 144,
            "midi": 59,
            "name": "B3",
            "ticks": 102384,
            "time": 133.3125,
            "velocity": 0.5511811023622047
          },
          {
            "duration": 0.1875,
            "durationTicks": 144,
            "midi": 55,
            "name": "G3",
            "ticks": 102528,
            "time": 133.5,
            "velocity": 0.5511811023622047
          },
          {
            "duration": 0.1875,
            "durationTicks": 144,
            "midi": 40,
            "name": "E2",
            "ticks": 102528,
            "time": 133.5,
            "velocity": 0.5511811023622047
          },
          {
            "duration": 0.1875,
            "durationTicks": 144,
            "midi": 43,
            "name": "G2",
            "ticks": 102528,
            "time": 133.5,
            "velocity": 0.5511811023622047
          },
          {
            "duration": 0.1875,
            "durationTicks": 144,
            "midi": 52,
            "name": "E3",
            "ticks": 102528,
            "time": 133.5,
            "velocity": 0.5511811023622047
          },
          {
            "duration": 0.1875,
            "durationTicks": 144,
            "midi": 48,
            "name": "C3",
            "ticks": 102528,
            "time": 133.5,
            "velocity": 0.5511811023622047
          },
          {
            "duration": 0.1875,
            "durationTicks": 144,
            "midi": 36,
            "name": "C2",
            "ticks": 102528,
            "time": 133.5,
            "velocity": 0.5511811023622047
          },
          {
            "duration": 0.1875,
            "durationTicks": 144,
            "midi": 60,
            "name": "C4",
            "ticks": 102528,
            "time": 133.5,
            "velocity": 0.5511811023622047
          },
          {
            "duration": 0.1875,
            "durationTicks": 144,
            "midi": 48,
            "name": "C3",
            "ticks": 102816,
            "time": 133.875,
            "velocity": 0.5511811023622047
          },
          {
            "duration": 0.1875,
            "durationTicks": 144,
            "midi": 36,
            "name": "C2",
            "ticks": 102816,
            "time": 133.875,
            "velocity": 0.5511811023622047
          },
          {
            "duration": 0.1875,
            "durationTicks": 144,
            "midi": 43,
            "name": "G2",
            "ticks": 102816,
            "time": 133.875,
            "velocity": 0.5511811023622047
          },
          {
            "duration": 0.1875,
            "durationTicks": 144,
            "midi": 40,
            "name": "E2",
            "ticks": 102816,
            "time": 133.875,
            "velocity": 0.5511811023622047
          },
          {
            "duration": 0.1875,
            "durationTicks": 144,
            "midi": 60,
            "name": "C4",
            "ticks": 102816,
            "time": 133.875,
            "velocity": 0.5511811023622047
          },
          {
            "duration": 0.1875,
            "durationTicks": 144,
            "midi": 52,
            "name": "E3",
            "ticks": 102816,
            "time": 133.875,
            "velocity": 0.5511811023622047
          },
          {
            "duration": 0.1875,
            "durationTicks": 144,
            "midi": 55,
            "name": "G3",
            "ticks": 102816,
            "time": 133.875,
            "velocity": 0.5511811023622047
          },
          {
            "duration": 0.1875,
            "durationTicks": 144,
            "midi": 52,
            "name": "E3",
            "ticks": 102960,
            "time": 134.0625,
            "velocity": 0.5511811023622047
          },
          {
            "duration": 0.1875,
            "durationTicks": 144,
            "midi": 40,
            "name": "E2",
            "ticks": 102960,
            "time": 134.0625,
            "velocity": 0.5511811023622047
          },
          {
            "duration": 0.1875,
            "durationTicks": 144,
            "midi": 43,
            "name": "G2",
            "ticks": 102960,
            "time": 134.0625,
            "velocity": 0.5511811023622047
          },
          {
            "duration": 0.1875,
            "durationTicks": 144,
            "midi": 55,
            "name": "G3",
            "ticks": 102960,
            "time": 134.0625,
            "velocity": 0.5511811023622047
          },
          {
            "duration": 0.1875,
            "durationTicks": 144,
            "midi": 60,
            "name": "C4",
            "ticks": 102960,
            "time": 134.0625,
            "velocity": 0.5511811023622047
          },
          {
            "duration": 0.1875,
            "durationTicks": 144,
            "midi": 36,
            "name": "C2",
            "ticks": 102960,
            "time": 134.0625,
            "velocity": 0.5511811023622047
          },
          {
            "duration": 0.1875,
            "durationTicks": 144,
            "midi": 48,
            "name": "C3",
            "ticks": 102960,
            "time": 134.0625,
            "velocity": 0.5511811023622047
          },
          {
            "duration": 0.1875,
            "durationTicks": 144,
            "midi": 36,
            "name": "C2",
            "ticks": 103248,
            "time": 134.4375,
            "velocity": 0.5511811023622047
          },
          {
            "duration": 0.1875,
            "durationTicks": 144,
            "midi": 60,
            "name": "C4",
            "ticks": 103248,
            "time": 134.4375,
            "velocity": 0.5511811023622047
          },
          {
            "duration": 0.1875,
            "durationTicks": 144,
            "midi": 43,
            "name": "G2",
            "ticks": 103248,
            "time": 134.4375,
            "velocity": 0.5511811023622047
          },
          {
            "duration": 0.1875,
            "durationTicks": 144,
            "midi": 48,
            "name": "C3",
            "ticks": 103248,
            "time": 134.4375,
            "velocity": 0.5511811023622047
          },
          {
            "duration": 0.1875,
            "durationTicks": 144,
            "midi": 52,
            "name": "E3",
            "ticks": 103248,
            "time": 134.4375,
            "velocity": 0.5511811023622047
          },
          {
            "duration": 0.1875,
            "durationTicks": 144,
            "midi": 55,
            "name": "G3",
            "ticks": 103248,
            "time": 134.4375,
            "velocity": 0.5511811023622047
          },
          {
            "duration": 0.1875,
            "durationTicks": 144,
            "midi": 40,
            "name": "E2",
            "ticks": 103248,
            "time": 134.4375,
            "velocity": 0.5511811023622047
          },
          {
            "duration": 0.1875,
            "durationTicks": 144,
            "midi": 52,
            "name": "E3",
            "ticks": 103392,
            "time": 134.625,
            "velocity": 0.5511811023622047
          },
          {
            "duration": 0.1875,
            "durationTicks": 144,
            "midi": 55,
            "name": "G3",
            "ticks": 103392,
            "time": 134.625,
            "velocity": 0.5511811023622047
          },
          {
            "duration": 0.1875,
            "durationTicks": 144,
            "midi": 48,
            "name": "C3",
            "ticks": 103392,
            "time": 134.625,
            "velocity": 0.5511811023622047
          },
          {
            "duration": 0.1875,
            "durationTicks": 144,
            "midi": 40,
            "name": "E2",
            "ticks": 103392,
            "time": 134.625,
            "velocity": 0.5511811023622047
          },
          {
            "duration": 0.1875,
            "durationTicks": 144,
            "midi": 43,
            "name": "G2",
            "ticks": 103392,
            "time": 134.625,
            "velocity": 0.5511811023622047
          },
          {
            "duration": 0.1875,
            "durationTicks": 144,
            "midi": 60,
            "name": "C4",
            "ticks": 103392,
            "time": 134.625,
            "velocity": 0.5511811023622047
          },
          {
            "duration": 0.1875,
            "durationTicks": 144,
            "midi": 36,
            "name": "C2",
            "ticks": 103392,
            "time": 134.625,
            "velocity": 0.5511811023622047
          },
          {
            "duration": 0.1875,
            "durationTicks": 144,
            "midi": 43,
            "name": "G2",
            "ticks": 103536,
            "time": 134.8125,
            "velocity": 0.5511811023622047
          },
          {
            "duration": 0.1875,
            "durationTicks": 144,
            "midi": 52,
            "name": "E3",
            "ticks": 103536,
            "time": 134.8125,
            "velocity": 0.5511811023622047
          },
          {
            "duration": 0.1875,
            "durationTicks": 144,
            "midi": 36,
            "name": "C2",
            "ticks": 103536,
            "time": 134.8125,
            "velocity": 0.5511811023622047
          },
          {
            "duration": 0.1875,
            "durationTicks": 144,
            "midi": 55,
            "name": "G3",
            "ticks": 103536,
            "time": 134.8125,
            "velocity": 0.5511811023622047
          },
          {
            "duration": 0.1875,
            "durationTicks": 144,
            "midi": 60,
            "name": "C4",
            "ticks": 103536,
            "time": 134.8125,
            "velocity": 0.5511811023622047
          },
          {
            "duration": 0.1875,
            "durationTicks": 144,
            "midi": 40,
            "name": "E2",
            "ticks": 103536,
            "time": 134.8125,
            "velocity": 0.5511811023622047
          },
          {
            "duration": 0.1875,
            "durationTicks": 144,
            "midi": 48,
            "name": "C3",
            "ticks": 103536,
            "time": 134.8125,
            "velocity": 0.5511811023622047
          },
          {
            "duration": 0.1875,
            "durationTicks": 144,
            "midi": 55,
            "name": "G3",
            "ticks": 103680,
            "time": 135,
            "velocity": 0.5511811023622047
          },
          {
            "duration": 0.1875,
            "durationTicks": 144,
            "midi": 40,
            "name": "E2",
            "ticks": 103680,
            "time": 135,
            "velocity": 0.5511811023622047
          },
          {
            "duration": 0.1875,
            "durationTicks": 144,
            "midi": 60,
            "name": "C4",
            "ticks": 103680,
            "time": 135,
            "velocity": 0.5511811023622047
          },
          {
            "duration": 0.1875,
            "durationTicks": 144,
            "midi": 36,
            "name": "C2",
            "ticks": 103680,
            "time": 135,
            "velocity": 0.5511811023622047
          },
          {
            "duration": 0.1875,
            "durationTicks": 144,
            "midi": 43,
            "name": "G2",
            "ticks": 103680,
            "time": 135,
            "velocity": 0.5511811023622047
          },
          {
            "duration": 0.1875,
            "durationTicks": 144,
            "midi": 52,
            "name": "E3",
            "ticks": 103680,
            "time": 135,
            "velocity": 0.5511811023622047
          },
          {
            "duration": 0.1875,
            "durationTicks": 144,
            "midi": 48,
            "name": "C3",
            "ticks": 103680,
            "time": 135,
            "velocity": 0.5511811023622047
          },
          {
            "duration": 0.1875,
            "durationTicks": 144,
            "midi": 55,
            "name": "G3",
            "ticks": 103968,
            "time": 135.375,
            "velocity": 0.5511811023622047
          },
          {
            "duration": 0.1875,
            "durationTicks": 144,
            "midi": 40,
            "name": "E2",
            "ticks": 103968,
            "time": 135.375,
            "velocity": 0.5511811023622047
          },
          {
            "duration": 0.1875,
            "durationTicks": 144,
            "midi": 60,
            "name": "C4",
            "ticks": 103968,
            "time": 135.375,
            "velocity": 0.5511811023622047
          },
          {
            "duration": 0.1875,
            "durationTicks": 144,
            "midi": 52,
            "name": "E3",
            "ticks": 103968,
            "time": 135.375,
            "velocity": 0.5511811023622047
          },
          {
            "duration": 0.1875,
            "durationTicks": 144,
            "midi": 43,
            "name": "G2",
            "ticks": 103968,
            "time": 135.375,
            "velocity": 0.5511811023622047
          },
          {
            "duration": 0.1875,
            "durationTicks": 144,
            "midi": 36,
            "name": "C2",
            "ticks": 103968,
            "time": 135.375,
            "velocity": 0.5511811023622047
          },
          {
            "duration": 0.1875,
            "durationTicks": 144,
            "midi": 48,
            "name": "C3",
            "ticks": 103968,
            "time": 135.375,
            "velocity": 0.5511811023622047
          },
          {
            "duration": 0.1875,
            "durationTicks": 144,
            "midi": 60,
            "name": "C4",
            "ticks": 104112,
            "time": 135.5625,
            "velocity": 0.5511811023622047
          },
          {
            "duration": 0.1875,
            "durationTicks": 144,
            "midi": 52,
            "name": "E3",
            "ticks": 104112,
            "time": 135.5625,
            "velocity": 0.5511811023622047
          },
          {
            "duration": 0.1875,
            "durationTicks": 144,
            "midi": 48,
            "name": "C3",
            "ticks": 104112,
            "time": 135.5625,
            "velocity": 0.5511811023622047
          },
          {
            "duration": 0.1875,
            "durationTicks": 144,
            "midi": 36,
            "name": "C2",
            "ticks": 104112,
            "time": 135.5625,
            "velocity": 0.5511811023622047
          },
          {
            "duration": 0.1875,
            "durationTicks": 144,
            "midi": 40,
            "name": "E2",
            "ticks": 104112,
            "time": 135.5625,
            "velocity": 0.5511811023622047
          },
          {
            "duration": 0.1875,
            "durationTicks": 144,
            "midi": 43,
            "name": "G2",
            "ticks": 104112,
            "time": 135.5625,
            "velocity": 0.5511811023622047
          },
          {
            "duration": 0.1875,
            "durationTicks": 144,
            "midi": 55,
            "name": "G3",
            "ticks": 104112,
            "time": 135.5625,
            "velocity": 0.5511811023622047
          },
          {
            "duration": 0.1875,
            "durationTicks": 144,
            "midi": 55,
            "name": "G3",
            "ticks": 104400,
            "time": 135.9375,
            "velocity": 0.5511811023622047
          },
          {
            "duration": 0.1875,
            "durationTicks": 144,
            "midi": 52,
            "name": "E3",
            "ticks": 104400,
            "time": 135.9375,
            "velocity": 0.5511811023622047
          },
          {
            "duration": 0.1875,
            "durationTicks": 144,
            "midi": 48,
            "name": "C3",
            "ticks": 104400,
            "time": 135.9375,
            "velocity": 0.5511811023622047
          },
          {
            "duration": 0.1875,
            "durationTicks": 144,
            "midi": 36,
            "name": "C2",
            "ticks": 104400,
            "time": 135.9375,
            "velocity": 0.5511811023622047
          },
          {
            "duration": 0.1875,
            "durationTicks": 144,
            "midi": 60,
            "name": "C4",
            "ticks": 104400,
            "time": 135.9375,
            "velocity": 0.5511811023622047
          },
          {
            "duration": 0.1875,
            "durationTicks": 144,
            "midi": 40,
            "name": "E2",
            "ticks": 104400,
            "time": 135.9375,
            "velocity": 0.5511811023622047
          },
          {
            "duration": 0.1875,
            "durationTicks": 144,
            "midi": 43,
            "name": "G2",
            "ticks": 104400,
            "time": 135.9375,
            "velocity": 0.5511811023622047
          },
          {
            "duration": 0.1875,
            "durationTicks": 144,
            "midi": 43,
            "name": "G2",
            "ticks": 104544,
            "time": 136.125,
            "velocity": 0.5511811023622047
          },
          {
            "duration": 0.1875,
            "durationTicks": 144,
            "midi": 60,
            "name": "C4",
            "ticks": 104544,
            "time": 136.125,
            "velocity": 0.5511811023622047
          },
          {
            "duration": 0.1875,
            "durationTicks": 144,
            "midi": 52,
            "name": "E3",
            "ticks": 104544,
            "time": 136.125,
            "velocity": 0.5511811023622047
          },
          {
            "duration": 0.1875,
            "durationTicks": 144,
            "midi": 55,
            "name": "G3",
            "ticks": 104544,
            "time": 136.125,
            "velocity": 0.5511811023622047
          },
          {
            "duration": 0.1875,
            "durationTicks": 144,
            "midi": 40,
            "name": "E2",
            "ticks": 104544,
            "time": 136.125,
            "velocity": 0.5511811023622047
          },
          {
            "duration": 0.1875,
            "durationTicks": 144,
            "midi": 48,
            "name": "C3",
            "ticks": 104544,
            "time": 136.125,
            "velocity": 0.5511811023622047
          },
          {
            "duration": 0.1875,
            "durationTicks": 144,
            "midi": 36,
            "name": "C2",
            "ticks": 104544,
            "time": 136.125,
            "velocity": 0.5511811023622047
          },
          {
            "duration": 0.1875,
            "durationTicks": 144,
            "midi": 36,
            "name": "C2",
            "ticks": 104688,
            "time": 136.3125,
            "velocity": 0.5511811023622047
          },
          {
            "duration": 0.1875,
            "durationTicks": 144,
            "midi": 52,
            "name": "E3",
            "ticks": 104688,
            "time": 136.3125,
            "velocity": 0.5511811023622047
          },
          {
            "duration": 0.1875,
            "durationTicks": 144,
            "midi": 40,
            "name": "E2",
            "ticks": 104688,
            "time": 136.3125,
            "velocity": 0.5511811023622047
          },
          {
            "duration": 0.1875,
            "durationTicks": 144,
            "midi": 48,
            "name": "C3",
            "ticks": 104688,
            "time": 136.3125,
            "velocity": 0.5511811023622047
          },
          {
            "duration": 0.1875,
            "durationTicks": 144,
            "midi": 43,
            "name": "G2",
            "ticks": 104688,
            "time": 136.3125,
            "velocity": 0.5511811023622047
          },
          {
            "duration": 0.1875,
            "durationTicks": 144,
            "midi": 55,
            "name": "G3",
            "ticks": 104688,
            "time": 136.3125,
            "velocity": 0.5511811023622047
          },
          {
            "duration": 0.1875,
            "durationTicks": 144,
            "midi": 60,
            "name": "C4",
            "ticks": 104688,
            "time": 136.3125,
            "velocity": 0.5511811023622047
          },
          {
            "duration": 0.1875,
            "durationTicks": 144,
            "midi": 38,
            "name": "D2",
            "ticks": 104832,
            "time": 136.5,
            "velocity": 0.5511811023622047
          },
          {
            "duration": 0.1875,
            "durationTicks": 144,
            "midi": 57,
            "name": "A3",
            "ticks": 104832,
            "time": 136.5,
            "velocity": 0.5511811023622047
          },
          {
            "duration": 0.1875,
            "durationTicks": 144,
            "midi": 62,
            "name": "D4",
            "ticks": 104832,
            "time": 136.5,
            "velocity": 0.5511811023622047
          },
          {
            "duration": 0.1875,
            "durationTicks": 144,
            "midi": 42,
            "name": "F#2",
            "ticks": 104832,
            "time": 136.5,
            "velocity": 0.5511811023622047
          },
          {
            "duration": 0.1875,
            "durationTicks": 144,
            "midi": 45,
            "name": "A2",
            "ticks": 104832,
            "time": 136.5,
            "velocity": 0.5511811023622047
          },
          {
            "duration": 0.1875,
            "durationTicks": 144,
            "midi": 50,
            "name": "D3",
            "ticks": 104832,
            "time": 136.5,
            "velocity": 0.5511811023622047
          },
          {
            "duration": 0.1875,
            "durationTicks": 144,
            "midi": 54,
            "name": "F#3",
            "ticks": 104832,
            "time": 136.5,
            "velocity": 0.5511811023622047
          },
          {
            "duration": 0.1875,
            "durationTicks": 144,
            "midi": 62,
            "name": "D4",
            "ticks": 105120,
            "time": 136.875,
            "velocity": 0.5511811023622047
          },
          {
            "duration": 0.1875,
            "durationTicks": 144,
            "midi": 50,
            "name": "D3",
            "ticks": 105120,
            "time": 136.875,
            "velocity": 0.5511811023622047
          },
          {
            "duration": 0.1875,
            "durationTicks": 144,
            "midi": 54,
            "name": "F#3",
            "ticks": 105120,
            "time": 136.875,
            "velocity": 0.5511811023622047
          },
          {
            "duration": 0.1875,
            "durationTicks": 144,
            "midi": 45,
            "name": "A2",
            "ticks": 105120,
            "time": 136.875,
            "velocity": 0.5511811023622047
          },
          {
            "duration": 0.1875,
            "durationTicks": 144,
            "midi": 57,
            "name": "A3",
            "ticks": 105120,
            "time": 136.875,
            "velocity": 0.5511811023622047
          },
          {
            "duration": 0.1875,
            "durationTicks": 144,
            "midi": 38,
            "name": "D2",
            "ticks": 105120,
            "time": 136.875,
            "velocity": 0.5511811023622047
          },
          {
            "duration": 0.1875,
            "durationTicks": 144,
            "midi": 42,
            "name": "F#2",
            "ticks": 105120,
            "time": 136.875,
            "velocity": 0.5511811023622047
          },
          {
            "duration": 0.1875,
            "durationTicks": 144,
            "midi": 52,
            "name": "E3",
            "ticks": 105408,
            "time": 137.25,
            "velocity": 0.5511811023622047
          },
          {
            "duration": 0.1875,
            "durationTicks": 144,
            "midi": 44,
            "name": "G#2",
            "ticks": 105408,
            "time": 137.25,
            "velocity": 0.5511811023622047
          },
          {
            "duration": 0.1875,
            "durationTicks": 144,
            "midi": 59,
            "name": "B3",
            "ticks": 105408,
            "time": 137.25,
            "velocity": 0.5511811023622047
          },
          {
            "duration": 0.1875,
            "durationTicks": 144,
            "midi": 40,
            "name": "E2",
            "ticks": 105408,
            "time": 137.25,
            "velocity": 0.5511811023622047
          },
          {
            "duration": 0.1875,
            "durationTicks": 144,
            "midi": 56,
            "name": "G#3",
            "ticks": 105408,
            "time": 137.25,
            "velocity": 0.5511811023622047
          },
          {
            "duration": 0.1875,
            "durationTicks": 144,
            "midi": 64,
            "name": "E4",
            "ticks": 105408,
            "time": 137.25,
            "velocity": 0.5511811023622047
          },
          {
            "duration": 0.1875,
            "durationTicks": 144,
            "midi": 47,
            "name": "B2",
            "ticks": 105408,
            "time": 137.25,
            "velocity": 0.5511811023622047
          },
          {
            "duration": 0.1875,
            "durationTicks": 144,
            "midi": 40,
            "name": "E2",
            "ticks": 105696,
            "time": 137.625,
            "velocity": 0.5511811023622047
          },
          {
            "duration": 0.1875,
            "durationTicks": 144,
            "midi": 47,
            "name": "B2",
            "ticks": 105696,
            "time": 137.625,
            "velocity": 0.5511811023622047
          },
          {
            "duration": 0.1875,
            "durationTicks": 144,
            "midi": 56,
            "name": "G#3",
            "ticks": 105696,
            "time": 137.625,
            "velocity": 0.5511811023622047
          },
          {
            "duration": 0.1875,
            "durationTicks": 144,
            "midi": 44,
            "name": "G#2",
            "ticks": 105696,
            "time": 137.625,
            "velocity": 0.5511811023622047
          },
          {
            "duration": 0.1875,
            "durationTicks": 144,
            "midi": 52,
            "name": "E3",
            "ticks": 105696,
            "time": 137.625,
            "velocity": 0.5511811023622047
          },
          {
            "duration": 0.1875,
            "durationTicks": 144,
            "midi": 59,
            "name": "B3",
            "ticks": 105696,
            "time": 137.625,
            "velocity": 0.5511811023622047
          },
          {
            "duration": 0.1875,
            "durationTicks": 144,
            "midi": 64,
            "name": "E4",
            "ticks": 105696,
            "time": 137.625,
            "velocity": 0.5511811023622047
          },
          {
            "duration": 0.1875,
            "durationTicks": 144,
            "midi": 52,
            "name": "E3",
            "ticks": 105840,
            "time": 137.8125,
            "velocity": 0.5511811023622047
          },
          {
            "duration": 0.1875,
            "durationTicks": 144,
            "midi": 47,
            "name": "B2",
            "ticks": 105840,
            "time": 137.8125,
            "velocity": 0.5511811023622047
          },
          {
            "duration": 0.1875,
            "durationTicks": 144,
            "midi": 56,
            "name": "G#3",
            "ticks": 105840,
            "time": 137.8125,
            "velocity": 0.5511811023622047
          },
          {
            "duration": 0.1875,
            "durationTicks": 144,
            "midi": 40,
            "name": "E2",
            "ticks": 105840,
            "time": 137.8125,
            "velocity": 0.5511811023622047
          },
          {
            "duration": 0.1875,
            "durationTicks": 144,
            "midi": 64,
            "name": "E4",
            "ticks": 105840,
            "time": 137.8125,
            "velocity": 0.5511811023622047
          },
          {
            "duration": 0.1875,
            "durationTicks": 144,
            "midi": 44,
            "name": "G#2",
            "ticks": 105840,
            "time": 137.8125,
            "velocity": 0.5511811023622047
          },
          {
            "duration": 0.1875,
            "durationTicks": 144,
            "midi": 59,
            "name": "B3",
            "ticks": 105840,
            "time": 137.8125,
            "velocity": 0.5511811023622047
          },
          {
            "duration": 0.1875,
            "durationTicks": 144,
            "midi": 56,
            "name": "G#3",
            "ticks": 106128,
            "time": 138.1875,
            "velocity": 0.5511811023622047
          },
          {
            "duration": 0.1875,
            "durationTicks": 144,
            "midi": 47,
            "name": "B2",
            "ticks": 106128,
            "time": 138.1875,
            "velocity": 0.5511811023622047
          },
          {
            "duration": 0.1875,
            "durationTicks": 144,
            "midi": 64,
            "name": "E4",
            "ticks": 106128,
            "time": 138.1875,
            "velocity": 0.5511811023622047
          },
          {
            "duration": 0.1875,
            "durationTicks": 144,
            "midi": 40,
            "name": "E2",
            "ticks": 106128,
            "time": 138.1875,
            "velocity": 0.5511811023622047
          },
          {
            "duration": 0.1875,
            "durationTicks": 144,
            "midi": 44,
            "name": "G#2",
            "ticks": 106128,
            "time": 138.1875,
            "velocity": 0.5511811023622047
          },
          {
            "duration": 0.1875,
            "durationTicks": 144,
            "midi": 52,
            "name": "E3",
            "ticks": 106128,
            "time": 138.1875,
            "velocity": 0.5511811023622047
          },
          {
            "duration": 0.1875,
            "durationTicks": 144,
            "midi": 59,
            "name": "B3",
            "ticks": 106128,
            "time": 138.1875,
            "velocity": 0.5511811023622047
          },
          {
            "duration": 0.1875,
            "durationTicks": 144,
            "midi": 59,
            "name": "B3",
            "ticks": 106272,
            "time": 138.375,
            "velocity": 0.5511811023622047
          },
          {
            "duration": 0.1875,
            "durationTicks": 144,
            "midi": 56,
            "name": "G#3",
            "ticks": 106272,
            "time": 138.375,
            "velocity": 0.5511811023622047
          },
          {
            "duration": 0.1875,
            "durationTicks": 144,
            "midi": 64,
            "name": "E4",
            "ticks": 106272,
            "time": 138.375,
            "velocity": 0.5511811023622047
          },
          {
            "duration": 0.1875,
            "durationTicks": 144,
            "midi": 52,
            "name": "E3",
            "ticks": 106272,
            "time": 138.375,
            "velocity": 0.5511811023622047
          },
          {
            "duration": 0.1875,
            "durationTicks": 144,
            "midi": 44,
            "name": "G#2",
            "ticks": 106272,
            "time": 138.375,
            "velocity": 0.5511811023622047
          },
          {
            "duration": 0.1875,
            "durationTicks": 144,
            "midi": 47,
            "name": "B2",
            "ticks": 106272,
            "time": 138.375,
            "velocity": 0.5511811023622047
          },
          {
            "duration": 0.1875,
            "durationTicks": 144,
            "midi": 40,
            "name": "E2",
            "ticks": 106272,
            "time": 138.375,
            "velocity": 0.5511811023622047
          },
          {
            "duration": 0.1875,
            "durationTicks": 144,
            "midi": 59,
            "name": "B3",
            "ticks": 106416,
            "time": 138.5625,
            "velocity": 0.5511811023622047
          },
          {
            "duration": 0.1875,
            "durationTicks": 144,
            "midi": 47,
            "name": "B2",
            "ticks": 106416,
            "time": 138.5625,
            "velocity": 0.5511811023622047
          },
          {
            "duration": 0.1875,
            "durationTicks": 144,
            "midi": 44,
            "name": "G#2",
            "ticks": 106416,
            "time": 138.5625,
            "velocity": 0.5511811023622047
          },
          {
            "duration": 0.1875,
            "durationTicks": 144,
            "midi": 52,
            "name": "E3",
            "ticks": 106416,
            "time": 138.5625,
            "velocity": 0.5511811023622047
          },
          {
            "duration": 0.1875,
            "durationTicks": 144,
            "midi": 56,
            "name": "G#3",
            "ticks": 106416,
            "time": 138.5625,
            "velocity": 0.5511811023622047
          },
          {
            "duration": 0.1875,
            "durationTicks": 144,
            "midi": 40,
            "name": "E2",
            "ticks": 106416,
            "time": 138.5625,
            "velocity": 0.5511811023622047
          },
          {
            "duration": 0.1875,
            "durationTicks": 144,
            "midi": 64,
            "name": "E4",
            "ticks": 106416,
            "time": 138.5625,
            "velocity": 0.5511811023622047
          },
          {
            "duration": 0.1875,
            "durationTicks": 144,
            "midi": 64,
            "name": "E4",
            "ticks": 106560,
            "time": 138.75,
            "velocity": 0.5511811023622047
          },
          {
            "duration": 0.1875,
            "durationTicks": 144,
            "midi": 47,
            "name": "B2",
            "ticks": 106560,
            "time": 138.75,
            "velocity": 0.5511811023622047
          },
          {
            "duration": 0.1875,
            "durationTicks": 144,
            "midi": 59,
            "name": "B3",
            "ticks": 106560,
            "time": 138.75,
            "velocity": 0.5511811023622047
          },
          {
            "duration": 0.1875,
            "durationTicks": 144,
            "midi": 40,
            "name": "E2",
            "ticks": 106560,
            "time": 138.75,
            "velocity": 0.5511811023622047
          },
          {
            "duration": 0.1875,
            "durationTicks": 144,
            "midi": 44,
            "name": "G#2",
            "ticks": 106560,
            "time": 138.75,
            "velocity": 0.5511811023622047
          },
          {
            "duration": 0.1875,
            "durationTicks": 144,
            "midi": 56,
            "name": "G#3",
            "ticks": 106560,
            "time": 138.75,
            "velocity": 0.5511811023622047
          },
          {
            "duration": 0.1875,
            "durationTicks": 144,
            "midi": 52,
            "name": "E3",
            "ticks": 106560,
            "time": 138.75,
            "velocity": 0.5511811023622047
          },
          {
            "duration": 0.1875,
            "durationTicks": 144,
            "midi": 47,
            "name": "B2",
            "ticks": 106848,
            "time": 139.125,
            "velocity": 0.5511811023622047
          },
          {
            "duration": 0.1875,
            "durationTicks": 144,
            "midi": 52,
            "name": "E3",
            "ticks": 106848,
            "time": 139.125,
            "velocity": 0.5511811023622047
          },
          {
            "duration": 0.1875,
            "durationTicks": 144,
            "midi": 40,
            "name": "E2",
            "ticks": 106848,
            "time": 139.125,
            "velocity": 0.5511811023622047
          },
          {
            "duration": 0.1875,
            "durationTicks": 144,
            "midi": 56,
            "name": "G#3",
            "ticks": 106848,
            "time": 139.125,
            "velocity": 0.5511811023622047
          },
          {
            "duration": 0.1875,
            "durationTicks": 144,
            "midi": 64,
            "name": "E4",
            "ticks": 106848,
            "time": 139.125,
            "velocity": 0.5511811023622047
          },
          {
            "duration": 0.1875,
            "durationTicks": 144,
            "midi": 59,
            "name": "B3",
            "ticks": 106848,
            "time": 139.125,
            "velocity": 0.5511811023622047
          },
          {
            "duration": 0.1875,
            "durationTicks": 144,
            "midi": 44,
            "name": "G#2",
            "ticks": 106848,
            "time": 139.125,
            "velocity": 0.5511811023622047
          },
          {
            "duration": 0.1875,
            "durationTicks": 144,
            "midi": 56,
            "name": "G#3",
            "ticks": 106992,
            "time": 139.3125,
            "velocity": 0.5511811023622047
          },
          {
            "duration": 0.1875,
            "durationTicks": 144,
            "midi": 47,
            "name": "B2",
            "ticks": 106992,
            "time": 139.3125,
            "velocity": 0.5511811023622047
          },
          {
            "duration": 0.1875,
            "durationTicks": 144,
            "midi": 44,
            "name": "G#2",
            "ticks": 106992,
            "time": 139.3125,
            "velocity": 0.5511811023622047
          },
          {
            "duration": 0.1875,
            "durationTicks": 144,
            "midi": 64,
            "name": "E4",
            "ticks": 106992,
            "time": 139.3125,
            "velocity": 0.5511811023622047
          },
          {
            "duration": 0.1875,
            "durationTicks": 144,
            "midi": 52,
            "name": "E3",
            "ticks": 106992,
            "time": 139.3125,
            "velocity": 0.5511811023622047
          },
          {
            "duration": 0.1875,
            "durationTicks": 144,
            "midi": 59,
            "name": "B3",
            "ticks": 106992,
            "time": 139.3125,
            "velocity": 0.5511811023622047
          },
          {
            "duration": 0.1875,
            "durationTicks": 144,
            "midi": 40,
            "name": "E2",
            "ticks": 106992,
            "time": 139.3125,
            "velocity": 0.5511811023622047
          },
          {
            "duration": 0.1875,
            "durationTicks": 144,
            "midi": 47,
            "name": "B2",
            "ticks": 107280,
            "time": 139.6875,
            "velocity": 0.5511811023622047
          },
          {
            "duration": 0.1875,
            "durationTicks": 144,
            "midi": 52,
            "name": "E3",
            "ticks": 107280,
            "time": 139.6875,
            "velocity": 0.5511811023622047
          },
          {
            "duration": 0.1875,
            "durationTicks": 144,
            "midi": 44,
            "name": "G#2",
            "ticks": 107280,
            "time": 139.6875,
            "velocity": 0.5511811023622047
          },
          {
            "duration": 0.1875,
            "durationTicks": 144,
            "midi": 40,
            "name": "E2",
            "ticks": 107280,
            "time": 139.6875,
            "velocity": 0.5511811023622047
          },
          {
            "duration": 0.1875,
            "durationTicks": 144,
            "midi": 56,
            "name": "G#3",
            "ticks": 107280,
            "time": 139.6875,
            "velocity": 0.5511811023622047
          },
          {
            "duration": 0.1875,
            "durationTicks": 144,
            "midi": 64,
            "name": "E4",
            "ticks": 107280,
            "time": 139.6875,
            "velocity": 0.5511811023622047
          },
          {
            "duration": 0.1875,
            "durationTicks": 144,
            "midi": 59,
            "name": "B3",
            "ticks": 107280,
            "time": 139.6875,
            "velocity": 0.5511811023622047
          },
          {
            "duration": 0.1875,
            "durationTicks": 144,
            "midi": 40,
            "name": "E2",
            "ticks": 107424,
            "time": 139.875,
            "velocity": 0.5511811023622047
          },
          {
            "duration": 0.1875,
            "durationTicks": 144,
            "midi": 52,
            "name": "E3",
            "ticks": 107424,
            "time": 139.875,
            "velocity": 0.5511811023622047
          },
          {
            "duration": 0.1875,
            "durationTicks": 144,
            "midi": 56,
            "name": "G#3",
            "ticks": 107424,
            "time": 139.875,
            "velocity": 0.5511811023622047
          },
          {
            "duration": 0.1875,
            "durationTicks": 144,
            "midi": 59,
            "name": "B3",
            "ticks": 107424,
            "time": 139.875,
            "velocity": 0.5511811023622047
          },
          {
            "duration": 0.1875,
            "durationTicks": 144,
            "midi": 64,
            "name": "E4",
            "ticks": 107424,
            "time": 139.875,
            "velocity": 0.5511811023622047
          },
          {
            "duration": 0.1875,
            "durationTicks": 144,
            "midi": 44,
            "name": "G#2",
            "ticks": 107424,
            "time": 139.875,
            "velocity": 0.5511811023622047
          },
          {
            "duration": 0.1875,
            "durationTicks": 144,
            "midi": 47,
            "name": "B2",
            "ticks": 107424,
            "time": 139.875,
            "velocity": 0.5511811023622047
          },
          {
            "duration": 0.1875,
            "durationTicks": 144,
            "midi": 44,
            "name": "G#2",
            "ticks": 107568,
            "time": 140.0625,
            "velocity": 0.5511811023622047
          },
          {
            "duration": 0.1875,
            "durationTicks": 144,
            "midi": 59,
            "name": "B3",
            "ticks": 107568,
            "time": 140.0625,
            "velocity": 0.5511811023622047
          },
          {
            "duration": 0.1875,
            "durationTicks": 144,
            "midi": 64,
            "name": "E4",
            "ticks": 107568,
            "time": 140.0625,
            "velocity": 0.5511811023622047
          },
          {
            "duration": 0.1875,
            "durationTicks": 144,
            "midi": 47,
            "name": "B2",
            "ticks": 107568,
            "time": 140.0625,
            "velocity": 0.5511811023622047
          },
          {
            "duration": 0.1875,
            "durationTicks": 144,
            "midi": 40,
            "name": "E2",
            "ticks": 107568,
            "time": 140.0625,
            "velocity": 0.5511811023622047
          },
          {
            "duration": 0.1875,
            "durationTicks": 144,
            "midi": 56,
            "name": "G#3",
            "ticks": 107568,
            "time": 140.0625,
            "velocity": 0.5511811023622047
          },
          {
            "duration": 0.1875,
            "durationTicks": 144,
            "midi": 52,
            "name": "E3",
            "ticks": 107568,
            "time": 140.0625,
            "velocity": 0.5511811023622047
          },
          {
            "duration": 0.1875,
            "durationTicks": 144,
            "midi": 50,
            "name": "D3",
            "ticks": 107712,
            "time": 140.25,
            "velocity": 0.5511811023622047
          },
          {
            "duration": 0.1875,
            "durationTicks": 144,
            "midi": 47,
            "name": "B2",
            "ticks": 107712,
            "time": 140.25,
            "velocity": 0.5511811023622047
          },
          {
            "duration": 0.1875,
            "durationTicks": 144,
            "midi": 67,
            "name": "G4",
            "ticks": 107712,
            "time": 140.25,
            "velocity": 0.5511811023622047
          },
          {
            "duration": 0.1875,
            "durationTicks": 144,
            "midi": 55,
            "name": "G3",
            "ticks": 107712,
            "time": 140.25,
            "velocity": 0.5511811023622047
          },
          {
            "duration": 0.1875,
            "durationTicks": 144,
            "midi": 43,
            "name": "G2",
            "ticks": 107712,
            "time": 140.25,
            "velocity": 0.5511811023622047
          },
          {
            "duration": 0.1875,
            "durationTicks": 144,
            "midi": 62,
            "name": "D4",
            "ticks": 107712,
            "time": 140.25,
            "velocity": 0.5511811023622047
          },
          {
            "duration": 0.1875,
            "durationTicks": 144,
            "midi": 59,
            "name": "B3",
            "ticks": 107712,
            "time": 140.25,
            "velocity": 0.5511811023622047
          },
          {
            "duration": 0.1875,
            "durationTicks": 144,
            "midi": 67,
            "name": "G4",
            "ticks": 108000,
            "time": 140.625,
            "velocity": 0.5511811023622047
          },
          {
            "duration": 0.1875,
            "durationTicks": 144,
            "midi": 50,
            "name": "D3",
            "ticks": 108000,
            "time": 140.625,
            "velocity": 0.5511811023622047
          },
          {
            "duration": 0.1875,
            "durationTicks": 144,
            "midi": 55,
            "name": "G3",
            "ticks": 108000,
            "time": 140.625,
            "velocity": 0.5511811023622047
          },
          {
            "duration": 0.1875,
            "durationTicks": 144,
            "midi": 59,
            "name": "B3",
            "ticks": 108000,
            "time": 140.625,
            "velocity": 0.5511811023622047
          },
          {
            "duration": 0.1875,
            "durationTicks": 144,
            "midi": 43,
            "name": "G2",
            "ticks": 108000,
            "time": 140.625,
            "velocity": 0.5511811023622047
          },
          {
            "duration": 0.1875,
            "durationTicks": 144,
            "midi": 47,
            "name": "B2",
            "ticks": 108000,
            "time": 140.625,
            "velocity": 0.5511811023622047
          },
          {
            "duration": 0.1875,
            "durationTicks": 144,
            "midi": 62,
            "name": "D4",
            "ticks": 108000,
            "time": 140.625,
            "velocity": 0.5511811023622047
          },
          {
            "duration": 0.1875,
            "durationTicks": 144,
            "midi": 67,
            "name": "G4",
            "ticks": 108144,
            "time": 140.8125,
            "velocity": 0.5511811023622047
          },
          {
            "duration": 0.1875,
            "durationTicks": 144,
            "midi": 47,
            "name": "B2",
            "ticks": 108144,
            "time": 140.8125,
            "velocity": 0.5511811023622047
          },
          {
            "duration": 0.1875,
            "durationTicks": 144,
            "midi": 62,
            "name": "D4",
            "ticks": 108144,
            "time": 140.8125,
            "velocity": 0.5511811023622047
          },
          {
            "duration": 0.1875,
            "durationTicks": 144,
            "midi": 55,
            "name": "G3",
            "ticks": 108144,
            "time": 140.8125,
            "velocity": 0.5511811023622047
          },
          {
            "duration": 0.1875,
            "durationTicks": 144,
            "midi": 50,
            "name": "D3",
            "ticks": 108144,
            "time": 140.8125,
            "velocity": 0.5511811023622047
          },
          {
            "duration": 0.1875,
            "durationTicks": 144,
            "midi": 59,
            "name": "B3",
            "ticks": 108144,
            "time": 140.8125,
            "velocity": 0.5511811023622047
          },
          {
            "duration": 0.1875,
            "durationTicks": 144,
            "midi": 43,
            "name": "G2",
            "ticks": 108144,
            "time": 140.8125,
            "velocity": 0.5511811023622047
          },
          {
            "duration": 0.1875,
            "durationTicks": 144,
            "midi": 50,
            "name": "D3",
            "ticks": 108432,
            "time": 141.1875,
            "velocity": 0.5511811023622047
          },
          {
            "duration": 0.1875,
            "durationTicks": 144,
            "midi": 62,
            "name": "D4",
            "ticks": 108432,
            "time": 141.1875,
            "velocity": 0.5511811023622047
          },
          {
            "duration": 0.1875,
            "durationTicks": 144,
            "midi": 67,
            "name": "G4",
            "ticks": 108432,
            "time": 141.1875,
            "velocity": 0.5511811023622047
          },
          {
            "duration": 0.1875,
            "durationTicks": 144,
            "midi": 43,
            "name": "G2",
            "ticks": 108432,
            "time": 141.1875,
            "velocity": 0.5511811023622047
          },
          {
            "duration": 0.1875,
            "durationTicks": 144,
            "midi": 47,
            "name": "B2",
            "ticks": 108432,
            "time": 141.1875,
            "velocity": 0.5511811023622047
          },
          {
            "duration": 0.1875,
            "durationTicks": 144,
            "midi": 59,
            "name": "B3",
            "ticks": 108432,
            "time": 141.1875,
            "velocity": 0.5511811023622047
          },
          {
            "duration": 0.1875,
            "durationTicks": 144,
            "midi": 55,
            "name": "G3",
            "ticks": 108432,
            "time": 141.1875,
            "velocity": 0.5511811023622047
          },
          {
            "duration": 0.1875,
            "durationTicks": 144,
            "midi": 55,
            "name": "G3",
            "ticks": 108576,
            "time": 141.375,
            "velocity": 0.5511811023622047
          },
          {
            "duration": 0.1875,
            "durationTicks": 144,
            "midi": 67,
            "name": "G4",
            "ticks": 108576,
            "time": 141.375,
            "velocity": 0.5511811023622047
          },
          {
            "duration": 0.1875,
            "durationTicks": 144,
            "midi": 47,
            "name": "B2",
            "ticks": 108576,
            "time": 141.375,
            "velocity": 0.5511811023622047
          },
          {
            "duration": 0.1875,
            "durationTicks": 144,
            "midi": 43,
            "name": "G2",
            "ticks": 108576,
            "time": 141.375,
            "velocity": 0.5511811023622047
          },
          {
            "duration": 0.1875,
            "durationTicks": 144,
            "midi": 50,
            "name": "D3",
            "ticks": 108576,
            "time": 141.375,
            "velocity": 0.5511811023622047
          },
          {
            "duration": 0.1875,
            "durationTicks": 144,
            "midi": 59,
            "name": "B3",
            "ticks": 108576,
            "time": 141.375,
            "velocity": 0.5511811023622047
          },
          {
            "duration": 0.1875,
            "durationTicks": 144,
            "midi": 62,
            "name": "D4",
            "ticks": 108576,
            "time": 141.375,
            "velocity": 0.5511811023622047
          },
          {
            "duration": 0.1875,
            "durationTicks": 144,
            "midi": 62,
            "name": "D4",
            "ticks": 108720,
            "time": 141.5625,
            "velocity": 0.5511811023622047
          },
          {
            "duration": 0.1875,
            "durationTicks": 144,
            "midi": 50,
            "name": "D3",
            "ticks": 108720,
            "time": 141.5625,
            "velocity": 0.5511811023622047
          },
          {
            "duration": 0.1875,
            "durationTicks": 144,
            "midi": 67,
            "name": "G4",
            "ticks": 108720,
            "time": 141.5625,
            "velocity": 0.5511811023622047
          },
          {
            "duration": 0.1875,
            "durationTicks": 144,
            "midi": 47,
            "name": "B2",
            "ticks": 108720,
            "time": 141.5625,
            "velocity": 0.5511811023622047
          },
          {
            "duration": 0.1875,
            "durationTicks": 144,
            "midi": 55,
            "name": "G3",
            "ticks": 108720,
            "time": 141.5625,
            "velocity": 0.5511811023622047
          },
          {
            "duration": 0.1875,
            "durationTicks": 144,
            "midi": 59,
            "name": "B3",
            "ticks": 108720,
            "time": 141.5625,
            "velocity": 0.5511811023622047
          },
          {
            "duration": 0.1875,
            "durationTicks": 144,
            "midi": 43,
            "name": "G2",
            "ticks": 108720,
            "time": 141.5625,
            "velocity": 0.5511811023622047
          },
          {
            "duration": 0.1875,
            "durationTicks": 144,
            "midi": 36,
            "name": "C2",
            "ticks": 108864,
            "time": 141.75,
            "velocity": 0.5511811023622047
          },
          {
            "duration": 0.1875,
            "durationTicks": 144,
            "midi": 60,
            "name": "C4",
            "ticks": 108864,
            "time": 141.75,
            "velocity": 0.5511811023622047
          },
          {
            "duration": 0.1875,
            "durationTicks": 144,
            "midi": 43,
            "name": "G2",
            "ticks": 108864,
            "time": 141.75,
            "velocity": 0.5511811023622047
          },
          {
            "duration": 0.1875,
            "durationTicks": 144,
            "midi": 52,
            "name": "E3",
            "ticks": 108864,
            "time": 141.75,
            "velocity": 0.5511811023622047
          },
          {
            "duration": 0.1875,
            "durationTicks": 144,
            "midi": 55,
            "name": "G3",
            "ticks": 108864,
            "time": 141.75,
            "velocity": 0.5511811023622047
          },
          {
            "duration": 0.1875,
            "durationTicks": 144,
            "midi": 48,
            "name": "C3",
            "ticks": 108864,
            "time": 141.75,
            "velocity": 0.5511811023622047
          },
          {
            "duration": 0.1875,
            "durationTicks": 144,
            "midi": 40,
            "name": "E2",
            "ticks": 108864,
            "time": 141.75,
            "velocity": 0.5511811023622047
          },
          {
            "duration": 0.1875,
            "durationTicks": 144,
            "midi": 40,
            "name": "E2",
            "ticks": 109152,
            "time": 142.125,
            "velocity": 0.5511811023622047
          },
          {
            "duration": 0.1875,
            "durationTicks": 144,
            "midi": 60,
            "name": "C4",
            "ticks": 109152,
            "time": 142.125,
            "velocity": 0.5511811023622047
          },
          {
            "duration": 0.1875,
            "durationTicks": 144,
            "midi": 55,
            "name": "G3",
            "ticks": 109152,
            "time": 142.125,
            "velocity": 0.5511811023622047
          },
          {
            "duration": 0.1875,
            "durationTicks": 144,
            "midi": 43,
            "name": "G2",
            "ticks": 109152,
            "time": 142.125,
            "velocity": 0.5511811023622047
          },
          {
            "duration": 0.1875,
            "durationTicks": 144,
            "midi": 52,
            "name": "E3",
            "ticks": 109152,
            "time": 142.125,
            "velocity": 0.5511811023622047
          },
          {
            "duration": 0.1875,
            "durationTicks": 144,
            "midi": 36,
            "name": "C2",
            "ticks": 109152,
            "time": 142.125,
            "velocity": 0.5511811023622047
          },
          {
            "duration": 0.1875,
            "durationTicks": 144,
            "midi": 48,
            "name": "C3",
            "ticks": 109152,
            "time": 142.125,
            "velocity": 0.5511811023622047
          },
          {
            "duration": 0.1875,
            "durationTicks": 144,
            "midi": 55,
            "name": "G3",
            "ticks": 109296,
            "time": 142.3125,
            "velocity": 0.5511811023622047
          },
          {
            "duration": 0.1875,
            "durationTicks": 144,
            "midi": 36,
            "name": "C2",
            "ticks": 109296,
            "time": 142.3125,
            "velocity": 0.5511811023622047
          },
          {
            "duration": 0.1875,
            "durationTicks": 144,
            "midi": 60,
            "name": "C4",
            "ticks": 109296,
            "time": 142.3125,
            "velocity": 0.5511811023622047
          },
          {
            "duration": 0.1875,
            "durationTicks": 144,
            "midi": 43,
            "name": "G2",
            "ticks": 109296,
            "time": 142.3125,
            "velocity": 0.5511811023622047
          },
          {
            "duration": 0.1875,
            "durationTicks": 144,
            "midi": 48,
            "name": "C3",
            "ticks": 109296,
            "time": 142.3125,
            "velocity": 0.5511811023622047
          },
          {
            "duration": 0.1875,
            "durationTicks": 144,
            "midi": 40,
            "name": "E2",
            "ticks": 109296,
            "time": 142.3125,
            "velocity": 0.5511811023622047
          },
          {
            "duration": 0.1875,
            "durationTicks": 144,
            "midi": 52,
            "name": "E3",
            "ticks": 109296,
            "time": 142.3125,
            "velocity": 0.5511811023622047
          },
          {
            "duration": 0.1875,
            "durationTicks": 144,
            "midi": 48,
            "name": "C3",
            "ticks": 109584,
            "time": 142.6875,
            "velocity": 0.5511811023622047
          },
          {
            "duration": 0.1875,
            "durationTicks": 144,
            "midi": 43,
            "name": "G2",
            "ticks": 109584,
            "time": 142.6875,
            "velocity": 0.5511811023622047
          },
          {
            "duration": 0.1875,
            "durationTicks": 144,
            "midi": 55,
            "name": "G3",
            "ticks": 109584,
            "time": 142.6875,
            "velocity": 0.5511811023622047
          },
          {
            "duration": 0.1875,
            "durationTicks": 144,
            "midi": 60,
            "name": "C4",
            "ticks": 109584,
            "time": 142.6875,
            "velocity": 0.5511811023622047
          },
          {
            "duration": 0.1875,
            "durationTicks": 144,
            "midi": 36,
            "name": "C2",
            "ticks": 109584,
            "time": 142.6875,
            "velocity": 0.5511811023622047
          },
          {
            "duration": 0.1875,
            "durationTicks": 144,
            "midi": 40,
            "name": "E2",
            "ticks": 109584,
            "time": 142.6875,
            "velocity": 0.5511811023622047
          },
          {
            "duration": 0.1875,
            "durationTicks": 144,
            "midi": 52,
            "name": "E3",
            "ticks": 109584,
            "time": 142.6875,
            "velocity": 0.5511811023622047
          },
          {
            "duration": 0.1875,
            "durationTicks": 144,
            "midi": 43,
            "name": "G2",
            "ticks": 109728,
            "time": 142.875,
            "velocity": 0.5511811023622047
          },
          {
            "duration": 0.1875,
            "durationTicks": 144,
            "midi": 40,
            "name": "E2",
            "ticks": 109728,
            "time": 142.875,
            "velocity": 0.5511811023622047
          },
          {
            "duration": 0.1875,
            "durationTicks": 144,
            "midi": 55,
            "name": "G3",
            "ticks": 109728,
            "time": 142.875,
            "velocity": 0.5511811023622047
          },
          {
            "duration": 0.1875,
            "durationTicks": 144,
            "midi": 52,
            "name": "E3",
            "ticks": 109728,
            "time": 142.875,
            "velocity": 0.5511811023622047
          },
          {
            "duration": 0.1875,
            "durationTicks": 144,
            "midi": 48,
            "name": "C3",
            "ticks": 109728,
            "time": 142.875,
            "velocity": 0.5511811023622047
          },
          {
            "duration": 0.1875,
            "durationTicks": 144,
            "midi": 60,
            "name": "C4",
            "ticks": 109728,
            "time": 142.875,
            "velocity": 0.5511811023622047
          },
          {
            "duration": 0.1875,
            "durationTicks": 144,
            "midi": 36,
            "name": "C2",
            "ticks": 109728,
            "time": 142.875,
            "velocity": 0.5511811023622047
          },
          {
            "duration": 0.1875,
            "durationTicks": 144,
            "midi": 55,
            "name": "G3",
            "ticks": 109872,
            "time": 143.0625,
            "velocity": 0.5511811023622047
          },
          {
            "duration": 0.1875,
            "durationTicks": 144,
            "midi": 52,
            "name": "E3",
            "ticks": 109872,
            "time": 143.0625,
            "velocity": 0.5511811023622047
          },
          {
            "duration": 0.1875,
            "durationTicks": 144,
            "midi": 48,
            "name": "C3",
            "ticks": 109872,
            "time": 143.0625,
            "velocity": 0.5511811023622047
          },
          {
            "duration": 0.1875,
            "durationTicks": 144,
            "midi": 60,
            "name": "C4",
            "ticks": 109872,
            "time": 143.0625,
            "velocity": 0.5511811023622047
          },
          {
            "duration": 0.1875,
            "durationTicks": 144,
            "midi": 43,
            "name": "G2",
            "ticks": 109872,
            "time": 143.0625,
            "velocity": 0.5511811023622047
          },
          {
            "duration": 0.1875,
            "durationTicks": 144,
            "midi": 40,
            "name": "E2",
            "ticks": 109872,
            "time": 143.0625,
            "velocity": 0.5511811023622047
          },
          {
            "duration": 0.1875,
            "durationTicks": 144,
            "midi": 36,
            "name": "C2",
            "ticks": 109872,
            "time": 143.0625,
            "velocity": 0.5511811023622047
          },
          {
            "duration": 0.1875,
            "durationTicks": 144,
            "midi": 40,
            "name": "E2",
            "ticks": 110016,
            "time": 143.25,
            "velocity": 0.5511811023622047
          },
          {
            "duration": 0.1875,
            "durationTicks": 144,
            "midi": 43,
            "name": "G2",
            "ticks": 110016,
            "time": 143.25,
            "velocity": 0.5511811023622047
          },
          {
            "duration": 0.1875,
            "durationTicks": 144,
            "midi": 55,
            "name": "G3",
            "ticks": 110016,
            "time": 143.25,
            "velocity": 0.5511811023622047
          },
          {
            "duration": 0.1875,
            "durationTicks": 144,
            "midi": 48,
            "name": "C3",
            "ticks": 110016,
            "time": 143.25,
            "velocity": 0.5511811023622047
          },
          {
            "duration": 0.1875,
            "durationTicks": 144,
            "midi": 36,
            "name": "C2",
            "ticks": 110016,
            "time": 143.25,
            "velocity": 0.5511811023622047
          },
          {
            "duration": 0.1875,
            "durationTicks": 144,
            "midi": 52,
            "name": "E3",
            "ticks": 110016,
            "time": 143.25,
            "velocity": 0.5511811023622047
          },
          {
            "duration": 0.1875,
            "durationTicks": 144,
            "midi": 60,
            "name": "C4",
            "ticks": 110016,
            "time": 143.25,
            "velocity": 0.5511811023622047
          },
          {
            "duration": 0.1875,
            "durationTicks": 144,
            "midi": 48,
            "name": "C3",
            "ticks": 110304,
            "time": 143.625,
            "velocity": 0.5511811023622047
          },
          {
            "duration": 0.1875,
            "durationTicks": 144,
            "midi": 52,
            "name": "E3",
            "ticks": 110304,
            "time": 143.625,
            "velocity": 0.5511811023622047
          },
          {
            "duration": 0.1875,
            "durationTicks": 144,
            "midi": 55,
            "name": "G3",
            "ticks": 110304,
            "time": 143.625,
            "velocity": 0.5511811023622047
          },
          {
            "duration": 0.1875,
            "durationTicks": 144,
            "midi": 36,
            "name": "C2",
            "ticks": 110304,
            "time": 143.625,
            "velocity": 0.5511811023622047
          },
          {
            "duration": 0.1875,
            "durationTicks": 144,
            "midi": 40,
            "name": "E2",
            "ticks": 110304,
            "time": 143.625,
            "velocity": 0.5511811023622047
          },
          {
            "duration": 0.1875,
            "durationTicks": 144,
            "midi": 60,
            "name": "C4",
            "ticks": 110304,
            "time": 143.625,
            "velocity": 0.5511811023622047
          },
          {
            "duration": 0.1875,
            "durationTicks": 144,
            "midi": 43,
            "name": "G2",
            "ticks": 110304,
            "time": 143.625,
            "velocity": 0.5511811023622047
          },
          {
            "duration": 0.1875,
            "durationTicks": 144,
            "midi": 55,
            "name": "G3",
            "ticks": 110448,
            "time": 143.8125,
            "velocity": 0.5511811023622047
          },
          {
            "duration": 0.1875,
            "durationTicks": 144,
            "midi": 52,
            "name": "E3",
            "ticks": 110448,
            "time": 143.8125,
            "velocity": 0.5511811023622047
          },
          {
            "duration": 0.1875,
            "durationTicks": 144,
            "midi": 36,
            "name": "C2",
            "ticks": 110448,
            "time": 143.8125,
            "velocity": 0.5511811023622047
          },
          {
            "duration": 0.1875,
            "durationTicks": 144,
            "midi": 60,
            "name": "C4",
            "ticks": 110448,
            "time": 143.8125,
            "velocity": 0.5511811023622047
          },
          {
            "duration": 0.1875,
            "durationTicks": 144,
            "midi": 40,
            "name": "E2",
            "ticks": 110448,
            "time": 143.8125,
            "velocity": 0.5511811023622047
          },
          {
            "duration": 0.1875,
            "durationTicks": 144,
            "midi": 43,
            "name": "G2",
            "ticks": 110448,
            "time": 143.8125,
            "velocity": 0.5511811023622047
          },
          {
            "duration": 0.1875,
            "durationTicks": 144,
            "midi": 48,
            "name": "C3",
            "ticks": 110448,
            "time": 143.8125,
            "velocity": 0.5511811023622047
          },
          {
            "duration": 0.1875,
            "durationTicks": 144,
            "midi": 40,
            "name": "E2",
            "ticks": 110736,
            "time": 144.1875,
            "velocity": 0.5511811023622047
          },
          {
            "duration": 0.1875,
            "durationTicks": 144,
            "midi": 36,
            "name": "C2",
            "ticks": 110736,
            "time": 144.1875,
            "velocity": 0.5511811023622047
          },
          {
            "duration": 0.1875,
            "durationTicks": 144,
            "midi": 52,
            "name": "E3",
            "ticks": 110736,
            "time": 144.1875,
            "velocity": 0.5511811023622047
          },
          {
            "duration": 0.1875,
            "durationTicks": 144,
            "midi": 48,
            "name": "C3",
            "ticks": 110736,
            "time": 144.1875,
            "velocity": 0.5511811023622047
          },
          {
            "duration": 0.1875,
            "durationTicks": 144,
            "midi": 60,
            "name": "C4",
            "ticks": 110736,
            "time": 144.1875,
            "velocity": 0.5511811023622047
          },
          {
            "duration": 0.1875,
            "durationTicks": 144,
            "midi": 55,
            "name": "G3",
            "ticks": 110736,
            "time": 144.1875,
            "velocity": 0.5511811023622047
          },
          {
            "duration": 0.1875,
            "durationTicks": 144,
            "midi": 43,
            "name": "G2",
            "ticks": 110736,
            "time": 144.1875,
            "velocity": 0.5511811023622047
          },
          {
            "duration": 0.1875,
            "durationTicks": 144,
            "midi": 55,
            "name": "G3",
            "ticks": 110880,
            "time": 144.375,
            "velocity": 0.5511811023622047
          },
          {
            "duration": 0.1875,
            "durationTicks": 144,
            "midi": 40,
            "name": "E2",
            "ticks": 110880,
            "time": 144.375,
            "velocity": 0.5511811023622047
          },
          {
            "duration": 0.1875,
            "durationTicks": 144,
            "midi": 36,
            "name": "C2",
            "ticks": 110880,
            "time": 144.375,
            "velocity": 0.5511811023622047
          },
          {
            "duration": 0.1875,
            "durationTicks": 144,
            "midi": 43,
            "name": "G2",
            "ticks": 110880,
            "time": 144.375,
            "velocity": 0.5511811023622047
          },
          {
            "duration": 0.1875,
            "durationTicks": 144,
            "midi": 52,
            "name": "E3",
            "ticks": 110880,
            "time": 144.375,
            "velocity": 0.5511811023622047
          },
          {
            "duration": 0.1875,
            "durationTicks": 144,
            "midi": 60,
            "name": "C4",
            "ticks": 110880,
            "time": 144.375,
            "velocity": 0.5511811023622047
          },
          {
            "duration": 0.1875,
            "durationTicks": 144,
            "midi": 48,
            "name": "C3",
            "ticks": 110880,
            "time": 144.375,
            "velocity": 0.5511811023622047
          },
          {
            "duration": 0.1875,
            "durationTicks": 144,
            "midi": 52,
            "name": "E3",
            "ticks": 111024,
            "time": 144.5625,
            "velocity": 0.5511811023622047
          },
          {
            "duration": 0.1875,
            "durationTicks": 144,
            "midi": 48,
            "name": "C3",
            "ticks": 111024,
            "time": 144.5625,
            "velocity": 0.5511811023622047
          },
          {
            "duration": 0.1875,
            "durationTicks": 144,
            "midi": 60,
            "name": "C4",
            "ticks": 111024,
            "time": 144.5625,
            "velocity": 0.5511811023622047
          },
          {
            "duration": 0.1875,
            "durationTicks": 144,
            "midi": 36,
            "name": "C2",
            "ticks": 111024,
            "time": 144.5625,
            "velocity": 0.5511811023622047
          },
          {
            "duration": 0.1875,
            "durationTicks": 144,
            "midi": 43,
            "name": "G2",
            "ticks": 111024,
            "time": 144.5625,
            "velocity": 0.5511811023622047
          },
          {
            "duration": 0.1875,
            "durationTicks": 144,
            "midi": 55,
            "name": "G3",
            "ticks": 111024,
            "time": 144.5625,
            "velocity": 0.5511811023622047
          },
          {
            "duration": 0.1875,
            "durationTicks": 144,
            "midi": 40,
            "name": "E2",
            "ticks": 111024,
            "time": 144.5625,
            "velocity": 0.5511811023622047
          },
          {
            "duration": 0.1875,
            "durationTicks": 144,
            "midi": 62,
            "name": "D4",
            "ticks": 111168,
            "time": 144.75,
            "velocity": 0.5511811023622047
          },
          {
            "duration": 0.1875,
            "durationTicks": 144,
            "midi": 57,
            "name": "A3",
            "ticks": 111168,
            "time": 144.75,
            "velocity": 0.5511811023622047
          },
          {
            "duration": 0.1875,
            "durationTicks": 144,
            "midi": 38,
            "name": "D2",
            "ticks": 111168,
            "time": 144.75,
            "velocity": 0.5511811023622047
          },
          {
            "duration": 0.1875,
            "durationTicks": 144,
            "midi": 54,
            "name": "F#3",
            "ticks": 111168,
            "time": 144.75,
            "velocity": 0.5511811023622047
          },
          {
            "duration": 0.1875,
            "durationTicks": 144,
            "midi": 50,
            "name": "D3",
            "ticks": 111168,
            "time": 144.75,
            "velocity": 0.5511811023622047
          },
          {
            "duration": 0.1875,
            "durationTicks": 144,
            "midi": 45,
            "name": "A2",
            "ticks": 111168,
            "time": 144.75,
            "velocity": 0.5511811023622047
          },
          {
            "duration": 0.1875,
            "durationTicks": 144,
            "midi": 42,
            "name": "F#2",
            "ticks": 111168,
            "time": 144.75,
            "velocity": 0.5511811023622047
          },
          {
            "duration": 0.1875,
            "durationTicks": 144,
            "midi": 50,
            "name": "D3",
            "ticks": 111456,
            "time": 145.125,
            "velocity": 0.5511811023622047
          },
          {
            "duration": 0.1875,
            "durationTicks": 144,
            "midi": 54,
            "name": "F#3",
            "ticks": 111456,
            "time": 145.125,
            "velocity": 0.5511811023622047
          },
          {
            "duration": 0.1875,
            "durationTicks": 144,
            "midi": 42,
            "name": "F#2",
            "ticks": 111456,
            "time": 145.125,
            "velocity": 0.5511811023622047
          },
          {
            "duration": 0.1875,
            "durationTicks": 144,
            "midi": 45,
            "name": "A2",
            "ticks": 111456,
            "time": 145.125,
            "velocity": 0.5511811023622047
          },
          {
            "duration": 0.1875,
            "durationTicks": 144,
            "midi": 62,
            "name": "D4",
            "ticks": 111456,
            "time": 145.125,
            "velocity": 0.5511811023622047
          },
          {
            "duration": 0.1875,
            "durationTicks": 144,
            "midi": 38,
            "name": "D2",
            "ticks": 111456,
            "time": 145.125,
            "velocity": 0.5511811023622047
          },
          {
            "duration": 0.1875,
            "durationTicks": 144,
            "midi": 57,
            "name": "A3",
            "ticks": 111456,
            "time": 145.125,
            "velocity": 0.5511811023622047
          },
          {
            "duration": 0.1875,
            "durationTicks": 144,
            "midi": 44,
            "name": "G#2",
            "ticks": 111744,
            "time": 145.5,
            "velocity": 0.5511811023622047
          },
          {
            "duration": 0.1875,
            "durationTicks": 144,
            "midi": 59,
            "name": "B3",
            "ticks": 111744,
            "time": 145.5,
            "velocity": 0.5511811023622047
          },
          {
            "duration": 0.1875,
            "durationTicks": 144,
            "midi": 52,
            "name": "E3",
            "ticks": 111744,
            "time": 145.5,
            "velocity": 0.5511811023622047
          },
          {
            "duration": 0.1875,
            "durationTicks": 144,
            "midi": 47,
            "name": "B2",
            "ticks": 111744,
            "time": 145.5,
            "velocity": 0.5511811023622047
          },
          {
            "duration": 0.1875,
            "durationTicks": 144,
            "midi": 40,
            "name": "E2",
            "ticks": 111744,
            "time": 145.5,
            "velocity": 0.5511811023622047
          },
          {
            "duration": 0.1875,
            "durationTicks": 144,
            "midi": 56,
            "name": "G#3",
            "ticks": 111744,
            "time": 145.5,
            "velocity": 0.5511811023622047
          },
          {
            "duration": 0.1875,
            "durationTicks": 144,
            "midi": 64,
            "name": "E4",
            "ticks": 111744,
            "time": 145.5,
            "velocity": 0.5511811023622047
          },
          {
            "duration": 0.1875,
            "durationTicks": 144,
            "midi": 64,
            "name": "E4",
            "ticks": 112032,
            "time": 145.875,
            "velocity": 0.5511811023622047
          },
          {
            "duration": 0.1875,
            "durationTicks": 144,
            "midi": 47,
            "name": "B2",
            "ticks": 112032,
            "time": 145.875,
            "velocity": 0.5511811023622047
          },
          {
            "duration": 0.1875,
            "durationTicks": 144,
            "midi": 59,
            "name": "B3",
            "ticks": 112032,
            "time": 145.875,
            "velocity": 0.5511811023622047
          },
          {
            "duration": 0.1875,
            "durationTicks": 144,
            "midi": 52,
            "name": "E3",
            "ticks": 112032,
            "time": 145.875,
            "velocity": 0.5511811023622047
          },
          {
            "duration": 0.1875,
            "durationTicks": 144,
            "midi": 40,
            "name": "E2",
            "ticks": 112032,
            "time": 145.875,
            "velocity": 0.5511811023622047
          },
          {
            "duration": 0.1875,
            "durationTicks": 144,
            "midi": 56,
            "name": "G#3",
            "ticks": 112032,
            "time": 145.875,
            "velocity": 0.5511811023622047
          },
          {
            "duration": 0.1875,
            "durationTicks": 144,
            "midi": 44,
            "name": "G#2",
            "ticks": 112032,
            "time": 145.875,
            "velocity": 0.5511811023622047
          },
          {
            "duration": 0.1875,
            "durationTicks": 144,
            "midi": 59,
            "name": "B3",
            "ticks": 112176,
            "time": 146.0625,
            "velocity": 0.5511811023622047
          },
          {
            "duration": 0.1875,
            "durationTicks": 144,
            "midi": 56,
            "name": "G#3",
            "ticks": 112176,
            "time": 146.0625,
            "velocity": 0.5511811023622047
          },
          {
            "duration": 0.1875,
            "durationTicks": 144,
            "midi": 40,
            "name": "E2",
            "ticks": 112176,
            "time": 146.0625,
            "velocity": 0.5511811023622047
          },
          {
            "duration": 0.1875,
            "durationTicks": 144,
            "midi": 47,
            "name": "B2",
            "ticks": 112176,
            "time": 146.0625,
            "velocity": 0.5511811023622047
          },
          {
            "duration": 0.1875,
            "durationTicks": 144,
            "midi": 44,
            "name": "G#2",
            "ticks": 112176,
            "time": 146.0625,
            "velocity": 0.5511811023622047
          },
          {
            "duration": 0.1875,
            "durationTicks": 144,
            "midi": 52,
            "name": "E3",
            "ticks": 112176,
            "time": 146.0625,
            "velocity": 0.5511811023622047
          },
          {
            "duration": 0.1875,
            "durationTicks": 144,
            "midi": 64,
            "name": "E4",
            "ticks": 112176,
            "time": 146.0625,
            "velocity": 0.5511811023622047
          },
          {
            "duration": 0.1875,
            "durationTicks": 144,
            "midi": 47,
            "name": "B2",
            "ticks": 112464,
            "time": 146.4375,
            "velocity": 0.5511811023622047
          },
          {
            "duration": 0.1875,
            "durationTicks": 144,
            "midi": 56,
            "name": "G#3",
            "ticks": 112464,
            "time": 146.4375,
            "velocity": 0.5511811023622047
          },
          {
            "duration": 0.1875,
            "durationTicks": 144,
            "midi": 64,
            "name": "E4",
            "ticks": 112464,
            "time": 146.4375,
            "velocity": 0.5511811023622047
          },
          {
            "duration": 0.1875,
            "durationTicks": 144,
            "midi": 40,
            "name": "E2",
            "ticks": 112464,
            "time": 146.4375,
            "velocity": 0.5511811023622047
          },
          {
            "duration": 0.1875,
            "durationTicks": 144,
            "midi": 44,
            "name": "G#2",
            "ticks": 112464,
            "time": 146.4375,
            "velocity": 0.5511811023622047
          },
          {
            "duration": 0.1875,
            "durationTicks": 144,
            "midi": 52,
            "name": "E3",
            "ticks": 112464,
            "time": 146.4375,
            "velocity": 0.5511811023622047
          },
          {
            "duration": 0.1875,
            "durationTicks": 144,
            "midi": 59,
            "name": "B3",
            "ticks": 112464,
            "time": 146.4375,
            "velocity": 0.5511811023622047
          },
          {
            "duration": 0.1875,
            "durationTicks": 144,
            "midi": 44,
            "name": "G#2",
            "ticks": 112608,
            "time": 146.625,
            "velocity": 0.5511811023622047
          },
          {
            "duration": 0.1875,
            "durationTicks": 144,
            "midi": 47,
            "name": "B2",
            "ticks": 112608,
            "time": 146.625,
            "velocity": 0.5511811023622047
          },
          {
            "duration": 0.1875,
            "durationTicks": 144,
            "midi": 64,
            "name": "E4",
            "ticks": 112608,
            "time": 146.625,
            "velocity": 0.5511811023622047
          },
          {
            "duration": 0.1875,
            "durationTicks": 144,
            "midi": 52,
            "name": "E3",
            "ticks": 112608,
            "time": 146.625,
            "velocity": 0.5511811023622047
          },
          {
            "duration": 0.1875,
            "durationTicks": 144,
            "midi": 56,
            "name": "G#3",
            "ticks": 112608,
            "time": 146.625,
            "velocity": 0.5511811023622047
          },
          {
            "duration": 0.1875,
            "durationTicks": 144,
            "midi": 59,
            "name": "B3",
            "ticks": 112608,
            "time": 146.625,
            "velocity": 0.5511811023622047
          },
          {
            "duration": 0.1875,
            "durationTicks": 144,
            "midi": 40,
            "name": "E2",
            "ticks": 112608,
            "time": 146.625,
            "velocity": 0.5511811023622047
          },
          {
            "duration": 0.1875,
            "durationTicks": 144,
            "midi": 47,
            "name": "B2",
            "ticks": 112752,
            "time": 146.8125,
            "velocity": 0.5511811023622047
          },
          {
            "duration": 0.1875,
            "durationTicks": 144,
            "midi": 44,
            "name": "G#2",
            "ticks": 112752,
            "time": 146.8125,
            "velocity": 0.5511811023622047
          },
          {
            "duration": 0.1875,
            "durationTicks": 144,
            "midi": 56,
            "name": "G#3",
            "ticks": 112752,
            "time": 146.8125,
            "velocity": 0.5511811023622047
          },
          {
            "duration": 0.1875,
            "durationTicks": 144,
            "midi": 64,
            "name": "E4",
            "ticks": 112752,
            "time": 146.8125,
            "velocity": 0.5511811023622047
          },
          {
            "duration": 0.1875,
            "durationTicks": 144,
            "midi": 52,
            "name": "E3",
            "ticks": 112752,
            "time": 146.8125,
            "velocity": 0.5511811023622047
          },
          {
            "duration": 0.1875,
            "durationTicks": 144,
            "midi": 40,
            "name": "E2",
            "ticks": 112752,
            "time": 146.8125,
            "velocity": 0.5511811023622047
          },
          {
            "duration": 0.1875,
            "durationTicks": 144,
            "midi": 59,
            "name": "B3",
            "ticks": 112752,
            "time": 146.8125,
            "velocity": 0.5511811023622047
          },
          {
            "duration": 0.1875,
            "durationTicks": 144,
            "midi": 56,
            "name": "G#3",
            "ticks": 112896,
            "time": 147,
            "velocity": 0.5511811023622047
          },
          {
            "duration": 0.1875,
            "durationTicks": 144,
            "midi": 52,
            "name": "E3",
            "ticks": 112896,
            "time": 147,
            "velocity": 0.5511811023622047
          },
          {
            "duration": 0.1875,
            "durationTicks": 144,
            "midi": 64,
            "name": "E4",
            "ticks": 112896,
            "time": 147,
            "velocity": 0.5511811023622047
          },
          {
            "duration": 0.1875,
            "durationTicks": 144,
            "midi": 40,
            "name": "E2",
            "ticks": 112896,
            "time": 147,
            "velocity": 0.5511811023622047
          },
          {
            "duration": 0.1875,
            "durationTicks": 144,
            "midi": 47,
            "name": "B2",
            "ticks": 112896,
            "time": 147,
            "velocity": 0.5511811023622047
          },
          {
            "duration": 0.1875,
            "durationTicks": 144,
            "midi": 44,
            "name": "G#2",
            "ticks": 112896,
            "time": 147,
            "velocity": 0.5511811023622047
          },
          {
            "duration": 0.1875,
            "durationTicks": 144,
            "midi": 59,
            "name": "B3",
            "ticks": 112896,
            "time": 147,
            "velocity": 0.5511811023622047
          },
          {
            "duration": 0.1875,
            "durationTicks": 144,
            "midi": 40,
            "name": "E2",
            "ticks": 113184,
            "time": 147.375,
            "velocity": 0.5511811023622047
          },
          {
            "duration": 0.1875,
            "durationTicks": 144,
            "midi": 59,
            "name": "B3",
            "ticks": 113184,
            "time": 147.375,
            "velocity": 0.5511811023622047
          },
          {
            "duration": 0.1875,
            "durationTicks": 144,
            "midi": 64,
            "name": "E4",
            "ticks": 113184,
            "time": 147.375,
            "velocity": 0.5511811023622047
          },
          {
            "duration": 0.1875,
            "durationTicks": 144,
            "midi": 52,
            "name": "E3",
            "ticks": 113184,
            "time": 147.375,
            "velocity": 0.5511811023622047
          },
          {
            "duration": 0.1875,
            "durationTicks": 144,
            "midi": 44,
            "name": "G#2",
            "ticks": 113184,
            "time": 147.375,
            "velocity": 0.5511811023622047
          },
          {
            "duration": 0.1875,
            "durationTicks": 144,
            "midi": 47,
            "name": "B2",
            "ticks": 113184,
            "time": 147.375,
            "velocity": 0.5511811023622047
          },
          {
            "duration": 0.1875,
            "durationTicks": 144,
            "midi": 56,
            "name": "G#3",
            "ticks": 113184,
            "time": 147.375,
            "velocity": 0.5511811023622047
          },
          {
            "duration": 0.1875,
            "durationTicks": 144,
            "midi": 40,
            "name": "E2",
            "ticks": 113328,
            "time": 147.5625,
            "velocity": 0.5511811023622047
          },
          {
            "duration": 0.1875,
            "durationTicks": 144,
            "midi": 64,
            "name": "E4",
            "ticks": 113328,
            "time": 147.5625,
            "velocity": 0.5511811023622047
          },
          {
            "duration": 0.1875,
            "durationTicks": 144,
            "midi": 47,
            "name": "B2",
            "ticks": 113328,
            "time": 147.5625,
            "velocity": 0.5511811023622047
          },
          {
            "duration": 0.1875,
            "durationTicks": 144,
            "midi": 44,
            "name": "G#2",
            "ticks": 113328,
            "time": 147.5625,
            "velocity": 0.5511811023622047
          },
          {
            "duration": 0.1875,
            "durationTicks": 144,
            "midi": 59,
            "name": "B3",
            "ticks": 113328,
            "time": 147.5625,
            "velocity": 0.5511811023622047
          },
          {
            "duration": 0.1875,
            "durationTicks": 144,
            "midi": 52,
            "name": "E3",
            "ticks": 113328,
            "time": 147.5625,
            "velocity": 0.5511811023622047
          },
          {
            "duration": 0.1875,
            "durationTicks": 144,
            "midi": 56,
            "name": "G#3",
            "ticks": 113328,
            "time": 147.5625,
            "velocity": 0.5511811023622047
          },
          {
            "duration": 0.1875,
            "durationTicks": 144,
            "midi": 59,
            "name": "B3",
            "ticks": 113616,
            "time": 147.9375,
            "velocity": 0.5511811023622047
          },
          {
            "duration": 0.1875,
            "durationTicks": 144,
            "midi": 47,
            "name": "B2",
            "ticks": 113616,
            "time": 147.9375,
            "velocity": 0.5511811023622047
          },
          {
            "duration": 0.1875,
            "durationTicks": 144,
            "midi": 64,
            "name": "E4",
            "ticks": 113616,
            "time": 147.9375,
            "velocity": 0.5511811023622047
          },
          {
            "duration": 0.1875,
            "durationTicks": 144,
            "midi": 44,
            "name": "G#2",
            "ticks": 113616,
            "time": 147.9375,
            "velocity": 0.5511811023622047
          },
          {
            "duration": 0.1875,
            "durationTicks": 144,
            "midi": 52,
            "name": "E3",
            "ticks": 113616,
            "time": 147.9375,
            "velocity": 0.5511811023622047
          },
          {
            "duration": 0.1875,
            "durationTicks": 144,
            "midi": 56,
            "name": "G#3",
            "ticks": 113616,
            "time": 147.9375,
            "velocity": 0.5511811023622047
          },
          {
            "duration": 0.1875,
            "durationTicks": 144,
            "midi": 40,
            "name": "E2",
            "ticks": 113616,
            "time": 147.9375,
            "velocity": 0.5511811023622047
          },
          {
            "duration": 0.1875,
            "durationTicks": 144,
            "midi": 40,
            "name": "E2",
            "ticks": 113760,
            "time": 148.125,
            "velocity": 0.5511811023622047
          },
          {
            "duration": 0.1875,
            "durationTicks": 144,
            "midi": 64,
            "name": "E4",
            "ticks": 113760,
            "time": 148.125,
            "velocity": 0.5511811023622047
          },
          {
            "duration": 0.1875,
            "durationTicks": 144,
            "midi": 56,
            "name": "G#3",
            "ticks": 113760,
            "time": 148.125,
            "velocity": 0.5511811023622047
          },
          {
            "duration": 0.1875,
            "durationTicks": 144,
            "midi": 44,
            "name": "G#2",
            "ticks": 113760,
            "time": 148.125,
            "velocity": 0.5511811023622047
          },
          {
            "duration": 0.1875,
            "durationTicks": 144,
            "midi": 47,
            "name": "B2",
            "ticks": 113760,
            "time": 148.125,
            "velocity": 0.5511811023622047
          },
          {
            "duration": 0.1875,
            "durationTicks": 144,
            "midi": 52,
            "name": "E3",
            "ticks": 113760,
            "time": 148.125,
            "velocity": 0.5511811023622047
          },
          {
            "duration": 0.1875,
            "durationTicks": 144,
            "midi": 59,
            "name": "B3",
            "ticks": 113760,
            "time": 148.125,
            "velocity": 0.5511811023622047
          },
          {
            "duration": 0.1875,
            "durationTicks": 144,
            "midi": 40,
            "name": "E2",
            "ticks": 113904,
            "time": 148.3125,
            "velocity": 0.5511811023622047
          },
          {
            "duration": 0.1875,
            "durationTicks": 144,
            "midi": 64,
            "name": "E4",
            "ticks": 113904,
            "time": 148.3125,
            "velocity": 0.5511811023622047
          },
          {
            "duration": 0.1875,
            "durationTicks": 144,
            "midi": 59,
            "name": "B3",
            "ticks": 113904,
            "time": 148.3125,
            "velocity": 0.5511811023622047
          },
          {
            "duration": 0.1875,
            "durationTicks": 144,
            "midi": 56,
            "name": "G#3",
            "ticks": 113904,
            "time": 148.3125,
            "velocity": 0.5511811023622047
          },
          {
            "duration": 0.1875,
            "durationTicks": 144,
            "midi": 52,
            "name": "E3",
            "ticks": 113904,
            "time": 148.3125,
            "velocity": 0.5511811023622047
          },
          {
            "duration": 0.1875,
            "durationTicks": 144,
            "midi": 44,
            "name": "G#2",
            "ticks": 113904,
            "time": 148.3125,
            "velocity": 0.5511811023622047
          },
          {
            "duration": 0.1875,
            "durationTicks": 144,
            "midi": 47,
            "name": "B2",
            "ticks": 113904,
            "time": 148.3125,
            "velocity": 0.5511811023622047
          },
          {
            "duration": 0.1875,
            "durationTicks": 144,
            "midi": 43,
            "name": "G2",
            "ticks": 114048,
            "time": 148.5,
            "velocity": 0.5511811023622047
          },
          {
            "duration": 0.1875,
            "durationTicks": 144,
            "midi": 59,
            "name": "B3",
            "ticks": 114048,
            "time": 148.5,
            "velocity": 0.5511811023622047
          },
          {
            "duration": 0.1875,
            "durationTicks": 144,
            "midi": 67,
            "name": "G4",
            "ticks": 114048,
            "time": 148.5,
            "velocity": 0.5511811023622047
          },
          {
            "duration": 0.1875,
            "durationTicks": 144,
            "midi": 55,
            "name": "G3",
            "ticks": 114048,
            "time": 148.5,
            "velocity": 0.5511811023622047
          },
          {
            "duration": 0.1875,
            "durationTicks": 144,
            "midi": 62,
            "name": "D4",
            "ticks": 114048,
            "time": 148.5,
            "velocity": 0.5511811023622047
          },
          {
            "duration": 0.1875,
            "durationTicks": 144,
            "midi": 50,
            "name": "D3",
            "ticks": 114048,
            "time": 148.5,
            "velocity": 0.5511811023622047
          },
          {
            "duration": 0.1875,
            "durationTicks": 144,
            "midi": 47,
            "name": "B2",
            "ticks": 114048,
            "time": 148.5,
            "velocity": 0.5511811023622047
          },
          {
            "duration": 0.1875,
            "durationTicks": 144,
            "midi": 67,
            "name": "G4",
            "ticks": 114336,
            "time": 148.875,
            "velocity": 0.5511811023622047
          },
          {
            "duration": 0.1875,
            "durationTicks": 144,
            "midi": 62,
            "name": "D4",
            "ticks": 114336,
            "time": 148.875,
            "velocity": 0.5511811023622047
          },
          {
            "duration": 0.1875,
            "durationTicks": 144,
            "midi": 43,
            "name": "G2",
            "ticks": 114336,
            "time": 148.875,
            "velocity": 0.5511811023622047
          },
          {
            "duration": 0.1875,
            "durationTicks": 144,
            "midi": 55,
            "name": "G3",
            "ticks": 114336,
            "time": 148.875,
            "velocity": 0.5511811023622047
          },
          {
            "duration": 0.1875,
            "durationTicks": 144,
            "midi": 47,
            "name": "B2",
            "ticks": 114336,
            "time": 148.875,
            "velocity": 0.5511811023622047
          },
          {
            "duration": 0.1875,
            "durationTicks": 144,
            "midi": 59,
            "name": "B3",
            "ticks": 114336,
            "time": 148.875,
            "velocity": 0.5511811023622047
          },
          {
            "duration": 0.1875,
            "durationTicks": 144,
            "midi": 50,
            "name": "D3",
            "ticks": 114336,
            "time": 148.875,
            "velocity": 0.5511811023622047
          },
          {
            "duration": 0.1875,
            "durationTicks": 144,
            "midi": 47,
            "name": "B2",
            "ticks": 114480,
            "time": 149.0625,
            "velocity": 0.5511811023622047
          },
          {
            "duration": 0.1875,
            "durationTicks": 144,
            "midi": 43,
            "name": "G2",
            "ticks": 114480,
            "time": 149.0625,
            "velocity": 0.5511811023622047
          },
          {
            "duration": 0.1875,
            "durationTicks": 144,
            "midi": 67,
            "name": "G4",
            "ticks": 114480,
            "time": 149.0625,
            "velocity": 0.5511811023622047
          },
          {
            "duration": 0.1875,
            "durationTicks": 144,
            "midi": 55,
            "name": "G3",
            "ticks": 114480,
            "time": 149.0625,
            "velocity": 0.5511811023622047
          },
          {
            "duration": 0.1875,
            "durationTicks": 144,
            "midi": 50,
            "name": "D3",
            "ticks": 114480,
            "time": 149.0625,
            "velocity": 0.5511811023622047
          },
          {
            "duration": 0.1875,
            "durationTicks": 144,
            "midi": 62,
            "name": "D4",
            "ticks": 114480,
            "time": 149.0625,
            "velocity": 0.5511811023622047
          },
          {
            "duration": 0.1875,
            "durationTicks": 144,
            "midi": 59,
            "name": "B3",
            "ticks": 114480,
            "time": 149.0625,
            "velocity": 0.5511811023622047
          },
          {
            "duration": 0.1875,
            "durationTicks": 144,
            "midi": 67,
            "name": "G4",
            "ticks": 114768,
            "time": 149.4375,
            "velocity": 0.5511811023622047
          },
          {
            "duration": 0.1875,
            "durationTicks": 144,
            "midi": 59,
            "name": "B3",
            "ticks": 114768,
            "time": 149.4375,
            "velocity": 0.5511811023622047
          },
          {
            "duration": 0.1875,
            "durationTicks": 144,
            "midi": 47,
            "name": "B2",
            "ticks": 114768,
            "time": 149.4375,
            "velocity": 0.5511811023622047
          },
          {
            "duration": 0.1875,
            "durationTicks": 144,
            "midi": 50,
            "name": "D3",
            "ticks": 114768,
            "time": 149.4375,
            "velocity": 0.5511811023622047
          },
          {
            "duration": 0.1875,
            "durationTicks": 144,
            "midi": 43,
            "name": "G2",
            "ticks": 114768,
            "time": 149.4375,
            "velocity": 0.5511811023622047
          },
          {
            "duration": 0.1875,
            "durationTicks": 144,
            "midi": 62,
            "name": "D4",
            "ticks": 114768,
            "time": 149.4375,
            "velocity": 0.5511811023622047
          },
          {
            "duration": 0.1875,
            "durationTicks": 144,
            "midi": 55,
            "name": "G3",
            "ticks": 114768,
            "time": 149.4375,
            "velocity": 0.5511811023622047
          },
          {
            "duration": 0.1875,
            "durationTicks": 144,
            "midi": 43,
            "name": "G2",
            "ticks": 114912,
            "time": 149.625,
            "velocity": 0.5511811023622047
          },
          {
            "duration": 0.1875,
            "durationTicks": 144,
            "midi": 59,
            "name": "B3",
            "ticks": 114912,
            "time": 149.625,
            "velocity": 0.5511811023622047
          },
          {
            "duration": 0.1875,
            "durationTicks": 144,
            "midi": 47,
            "name": "B2",
            "ticks": 114912,
            "time": 149.625,
            "velocity": 0.5511811023622047
          },
          {
            "duration": 0.1875,
            "durationTicks": 144,
            "midi": 50,
            "name": "D3",
            "ticks": 114912,
            "time": 149.625,
            "velocity": 0.5511811023622047
          },
          {
            "duration": 0.1875,
            "durationTicks": 144,
            "midi": 67,
            "name": "G4",
            "ticks": 114912,
            "time": 149.625,
            "velocity": 0.5511811023622047
          },
          {
            "duration": 0.1875,
            "durationTicks": 144,
            "midi": 62,
            "name": "D4",
            "ticks": 114912,
            "time": 149.625,
            "velocity": 0.5511811023622047
          },
          {
            "duration": 0.1875,
            "durationTicks": 144,
            "midi": 55,
            "name": "G3",
            "ticks": 114912,
            "time": 149.625,
            "velocity": 0.5511811023622047
          },
          {
            "duration": 0.1875,
            "durationTicks": 144,
            "midi": 55,
            "name": "G3",
            "ticks": 115056,
            "time": 149.8125,
            "velocity": 0.5511811023622047
          },
          {
            "duration": 0.1875,
            "durationTicks": 144,
            "midi": 67,
            "name": "G4",
            "ticks": 115056,
            "time": 149.8125,
            "velocity": 0.5511811023622047
          },
          {
            "duration": 0.1875,
            "durationTicks": 144,
            "midi": 50,
            "name": "D3",
            "ticks": 115056,
            "time": 149.8125,
            "velocity": 0.5511811023622047
          },
          {
            "duration": 0.1875,
            "durationTicks": 144,
            "midi": 62,
            "name": "D4",
            "ticks": 115056,
            "time": 149.8125,
            "velocity": 0.5511811023622047
          },
          {
            "duration": 0.1875,
            "durationTicks": 144,
            "midi": 43,
            "name": "G2",
            "ticks": 115056,
            "time": 149.8125,
            "velocity": 0.5511811023622047
          },
          {
            "duration": 0.1875,
            "durationTicks": 144,
            "midi": 59,
            "name": "B3",
            "ticks": 115056,
            "time": 149.8125,
            "velocity": 0.5511811023622047
          },
          {
            "duration": 0.1875,
            "durationTicks": 144,
            "midi": 47,
            "name": "B2",
            "ticks": 115056,
            "time": 149.8125,
            "velocity": 0.5511811023622047
          },
          {
            "duration": 0.1875,
            "durationTicks": 144,
            "midi": 55,
            "name": "G3",
            "ticks": 115200,
            "time": 150,
            "velocity": 0.5511811023622047
          },
          {
            "duration": 0.1875,
            "durationTicks": 144,
            "midi": 52,
            "name": "E3",
            "ticks": 115200,
            "time": 150,
            "velocity": 0.5511811023622047
          },
          {
            "duration": 0.1875,
            "durationTicks": 144,
            "midi": 48,
            "name": "C3",
            "ticks": 115200,
            "time": 150,
            "velocity": 0.5511811023622047
          },
          {
            "duration": 0.1875,
            "durationTicks": 144,
            "midi": 43,
            "name": "G2",
            "ticks": 115200,
            "time": 150,
            "velocity": 0.5511811023622047
          },
          {
            "duration": 0.1875,
            "durationTicks": 144,
            "midi": 40,
            "name": "E2",
            "ticks": 115200,
            "time": 150,
            "velocity": 0.5511811023622047
          },
          {
            "duration": 0.1875,
            "durationTicks": 144,
            "midi": 60,
            "name": "C4",
            "ticks": 115200,
            "time": 150,
            "velocity": 0.5511811023622047
          },
          {
            "duration": 0.1875,
            "durationTicks": 144,
            "midi": 36,
            "name": "C2",
            "ticks": 115200,
            "time": 150,
            "velocity": 0.5511811023622047
          },
          {
            "duration": 0.1875,
            "durationTicks": 144,
            "midi": 36,
            "name": "C2",
            "ticks": 115488,
            "time": 150.375,
            "velocity": 0.5511811023622047
          },
          {
            "duration": 0.1875,
            "durationTicks": 144,
            "midi": 52,
            "name": "E3",
            "ticks": 115488,
            "time": 150.375,
            "velocity": 0.5511811023622047
          },
          {
            "duration": 0.1875,
            "durationTicks": 144,
            "midi": 48,
            "name": "C3",
            "ticks": 115488,
            "time": 150.375,
            "velocity": 0.5511811023622047
          },
          {
            "duration": 0.1875,
            "durationTicks": 144,
            "midi": 40,
            "name": "E2",
            "ticks": 115488,
            "time": 150.375,
            "velocity": 0.5511811023622047
          },
          {
            "duration": 0.1875,
            "durationTicks": 144,
            "midi": 60,
            "name": "C4",
            "ticks": 115488,
            "time": 150.375,
            "velocity": 0.5511811023622047
          },
          {
            "duration": 0.1875,
            "durationTicks": 144,
            "midi": 43,
            "name": "G2",
            "ticks": 115488,
            "time": 150.375,
            "velocity": 0.5511811023622047
          },
          {
            "duration": 0.1875,
            "durationTicks": 144,
            "midi": 55,
            "name": "G3",
            "ticks": 115488,
            "time": 150.375,
            "velocity": 0.5511811023622047
          },
          {
            "duration": 0.1875,
            "durationTicks": 144,
            "midi": 60,
            "name": "C4",
            "ticks": 115632,
            "time": 150.5625,
            "velocity": 0.5511811023622047
          },
          {
            "duration": 0.1875,
            "durationTicks": 144,
            "midi": 48,
            "name": "C3",
            "ticks": 115632,
            "time": 150.5625,
            "velocity": 0.5511811023622047
          },
          {
            "duration": 0.1875,
            "durationTicks": 144,
            "midi": 43,
            "name": "G2",
            "ticks": 115632,
            "time": 150.5625,
            "velocity": 0.5511811023622047
          },
          {
            "duration": 0.1875,
            "durationTicks": 144,
            "midi": 36,
            "name": "C2",
            "ticks": 115632,
            "time": 150.5625,
            "velocity": 0.5511811023622047
          },
          {
            "duration": 0.1875,
            "durationTicks": 144,
            "midi": 52,
            "name": "E3",
            "ticks": 115632,
            "time": 150.5625,
            "velocity": 0.5511811023622047
          },
          {
            "duration": 0.1875,
            "durationTicks": 144,
            "midi": 55,
            "name": "G3",
            "ticks": 115632,
            "time": 150.5625,
            "velocity": 0.5511811023622047
          },
          {
            "duration": 0.1875,
            "durationTicks": 144,
            "midi": 40,
            "name": "E2",
            "ticks": 115632,
            "time": 150.5625,
            "velocity": 0.5511811023622047
          },
          {
            "duration": 0.1875,
            "durationTicks": 144,
            "midi": 55,
            "name": "G3",
            "ticks": 115920,
            "time": 150.9375,
            "velocity": 0.5511811023622047
          },
          {
            "duration": 0.1875,
            "durationTicks": 144,
            "midi": 43,
            "name": "G2",
            "ticks": 115920,
            "time": 150.9375,
            "velocity": 0.5511811023622047
          },
          {
            "duration": 0.1875,
            "durationTicks": 144,
            "midi": 48,
            "name": "C3",
            "ticks": 115920,
            "time": 150.9375,
            "velocity": 0.5511811023622047
          },
          {
            "duration": 0.1875,
            "durationTicks": 144,
            "midi": 60,
            "name": "C4",
            "ticks": 115920,
            "time": 150.9375,
            "velocity": 0.5511811023622047
          },
          {
            "duration": 0.1875,
            "durationTicks": 144,
            "midi": 36,
            "name": "C2",
            "ticks": 115920,
            "time": 150.9375,
            "velocity": 0.5511811023622047
          },
          {
            "duration": 0.1875,
            "durationTicks": 144,
            "midi": 40,
            "name": "E2",
            "ticks": 115920,
            "time": 150.9375,
            "velocity": 0.5511811023622047
          },
          {
            "duration": 0.1875,
            "durationTicks": 144,
            "midi": 52,
            "name": "E3",
            "ticks": 115920,
            "time": 150.9375,
            "velocity": 0.5511811023622047
          },
          {
            "duration": 0.1875,
            "durationTicks": 144,
            "midi": 55,
            "name": "G3",
            "ticks": 116064,
            "time": 151.125,
            "velocity": 0.5511811023622047
          },
          {
            "duration": 0.1875,
            "durationTicks": 144,
            "midi": 43,
            "name": "G2",
            "ticks": 116064,
            "time": 151.125,
            "velocity": 0.5511811023622047
          },
          {
            "duration": 0.1875,
            "durationTicks": 144,
            "midi": 36,
            "name": "C2",
            "ticks": 116064,
            "time": 151.125,
            "velocity": 0.5511811023622047
          },
          {
            "duration": 0.1875,
            "durationTicks": 144,
            "midi": 48,
            "name": "C3",
            "ticks": 116064,
            "time": 151.125,
            "velocity": 0.5511811023622047
          },
          {
            "duration": 0.1875,
            "durationTicks": 144,
            "midi": 60,
            "name": "C4",
            "ticks": 116064,
            "time": 151.125,
            "velocity": 0.5511811023622047
          },
          {
            "duration": 0.1875,
            "durationTicks": 144,
            "midi": 52,
            "name": "E3",
            "ticks": 116064,
            "time": 151.125,
            "velocity": 0.5511811023622047
          },
          {
            "duration": 0.1875,
            "durationTicks": 144,
            "midi": 40,
            "name": "E2",
            "ticks": 116064,
            "time": 151.125,
            "velocity": 0.5511811023622047
          },
          {
            "duration": 0.1875,
            "durationTicks": 144,
            "midi": 55,
            "name": "G3",
            "ticks": 116208,
            "time": 151.3125,
            "velocity": 0.5511811023622047
          },
          {
            "duration": 0.1875,
            "durationTicks": 144,
            "midi": 52,
            "name": "E3",
            "ticks": 116208,
            "time": 151.3125,
            "velocity": 0.5511811023622047
          },
          {
            "duration": 0.1875,
            "durationTicks": 144,
            "midi": 48,
            "name": "C3",
            "ticks": 116208,
            "time": 151.3125,
            "velocity": 0.5511811023622047
          },
          {
            "duration": 0.1875,
            "durationTicks": 144,
            "midi": 40,
            "name": "E2",
            "ticks": 116208,
            "time": 151.3125,
            "velocity": 0.5511811023622047
          },
          {
            "duration": 0.1875,
            "durationTicks": 144,
            "midi": 43,
            "name": "G2",
            "ticks": 116208,
            "time": 151.3125,
            "velocity": 0.5511811023622047
          },
          {
            "duration": 0.1875,
            "durationTicks": 144,
            "midi": 36,
            "name": "C2",
            "ticks": 116208,
            "time": 151.3125,
            "velocity": 0.5511811023622047
          },
          {
            "duration": 0.1875,
            "durationTicks": 144,
            "midi": 60,
            "name": "C4",
            "ticks": 116208,
            "time": 151.3125,
            "velocity": 0.5511811023622047
          },
          {
            "duration": 0.1875,
            "durationTicks": 144,
            "midi": 52,
            "name": "E3",
            "ticks": 116352,
            "time": 151.5,
            "velocity": 0.5511811023622047
          },
          {
            "duration": 0.1875,
            "durationTicks": 144,
            "midi": 40,
            "name": "E2",
            "ticks": 116352,
            "time": 151.5,
            "velocity": 0.5511811023622047
          },
          {
            "duration": 0.1875,
            "durationTicks": 144,
            "midi": 43,
            "name": "G2",
            "ticks": 116352,
            "time": 151.5,
            "velocity": 0.5511811023622047
          },
          {
            "duration": 0.1875,
            "durationTicks": 144,
            "midi": 60,
            "name": "C4",
            "ticks": 116352,
            "time": 151.5,
            "velocity": 0.5511811023622047
          },
          {
            "duration": 0.1875,
            "durationTicks": 144,
            "midi": 48,
            "name": "C3",
            "ticks": 116352,
            "time": 151.5,
            "velocity": 0.5511811023622047
          },
          {
            "duration": 0.1875,
            "durationTicks": 144,
            "midi": 36,
            "name": "C2",
            "ticks": 116352,
            "time": 151.5,
            "velocity": 0.5511811023622047
          },
          {
            "duration": 0.1875,
            "durationTicks": 144,
            "midi": 55,
            "name": "G3",
            "ticks": 116352,
            "time": 151.5,
            "velocity": 0.5511811023622047
          },
          {
            "duration": 0.1875,
            "durationTicks": 144,
            "midi": 60,
            "name": "C4",
            "ticks": 116640,
            "time": 151.875,
            "velocity": 0.5511811023622047
          },
          {
            "duration": 0.1875,
            "durationTicks": 144,
            "midi": 43,
            "name": "G2",
            "ticks": 116640,
            "time": 151.875,
            "velocity": 0.5511811023622047
          },
          {
            "duration": 0.1875,
            "durationTicks": 144,
            "midi": 36,
            "name": "C2",
            "ticks": 116640,
            "time": 151.875,
            "velocity": 0.5511811023622047
          },
          {
            "duration": 0.1875,
            "durationTicks": 144,
            "midi": 52,
            "name": "E3",
            "ticks": 116640,
            "time": 151.875,
            "velocity": 0.5511811023622047
          },
          {
            "duration": 0.1875,
            "durationTicks": 144,
            "midi": 40,
            "name": "E2",
            "ticks": 116640,
            "time": 151.875,
            "velocity": 0.5511811023622047
          },
          {
            "duration": 0.1875,
            "durationTicks": 144,
            "midi": 48,
            "name": "C3",
            "ticks": 116640,
            "time": 151.875,
            "velocity": 0.5511811023622047
          },
          {
            "duration": 0.1875,
            "durationTicks": 144,
            "midi": 55,
            "name": "G3",
            "ticks": 116640,
            "time": 151.875,
            "velocity": 0.5511811023622047
          },
          {
            "duration": 0.1875,
            "durationTicks": 144,
            "midi": 36,
            "name": "C2",
            "ticks": 116784,
            "time": 152.0625,
            "velocity": 0.5511811023622047
          },
          {
            "duration": 0.1875,
            "durationTicks": 144,
            "midi": 40,
            "name": "E2",
            "ticks": 116784,
            "time": 152.0625,
            "velocity": 0.5511811023622047
          },
          {
            "duration": 0.1875,
            "durationTicks": 144,
            "midi": 43,
            "name": "G2",
            "ticks": 116784,
            "time": 152.0625,
            "velocity": 0.5511811023622047
          },
          {
            "duration": 0.1875,
            "durationTicks": 144,
            "midi": 48,
            "name": "C3",
            "ticks": 116784,
            "time": 152.0625,
            "velocity": 0.5511811023622047
          },
          {
            "duration": 0.1875,
            "durationTicks": 144,
            "midi": 52,
            "name": "E3",
            "ticks": 116784,
            "time": 152.0625,
            "velocity": 0.5511811023622047
          },
          {
            "duration": 0.1875,
            "durationTicks": 144,
            "midi": 55,
            "name": "G3",
            "ticks": 116784,
            "time": 152.0625,
            "velocity": 0.5511811023622047
          },
          {
            "duration": 0.1875,
            "durationTicks": 144,
            "midi": 60,
            "name": "C4",
            "ticks": 116784,
            "time": 152.0625,
            "velocity": 0.5511811023622047
          },
          {
            "duration": 0.1875,
            "durationTicks": 144,
            "midi": 60,
            "name": "C4",
            "ticks": 117072,
            "time": 152.4375,
            "velocity": 0.5511811023622047
          },
          {
            "duration": 0.1875,
            "durationTicks": 144,
            "midi": 52,
            "name": "E3",
            "ticks": 117072,
            "time": 152.4375,
            "velocity": 0.5511811023622047
          },
          {
            "duration": 0.1875,
            "durationTicks": 144,
            "midi": 55,
            "name": "G3",
            "ticks": 117072,
            "time": 152.4375,
            "velocity": 0.5511811023622047
          },
          {
            "duration": 0.1875,
            "durationTicks": 144,
            "midi": 36,
            "name": "C2",
            "ticks": 117072,
            "time": 152.4375,
            "velocity": 0.5511811023622047
          },
          {
            "duration": 0.1875,
            "durationTicks": 144,
            "midi": 40,
            "name": "E2",
            "ticks": 117072,
            "time": 152.4375,
            "velocity": 0.5511811023622047
          },
          {
            "duration": 0.1875,
            "durationTicks": 144,
            "midi": 48,
            "name": "C3",
            "ticks": 117072,
            "time": 152.4375,
            "velocity": 0.5511811023622047
          },
          {
            "duration": 0.1875,
            "durationTicks": 144,
            "midi": 43,
            "name": "G2",
            "ticks": 117072,
            "time": 152.4375,
            "velocity": 0.5511811023622047
          },
          {
            "duration": 0.1875,
            "durationTicks": 144,
            "midi": 55,
            "name": "G3",
            "ticks": 117216,
            "time": 152.625,
            "velocity": 0.5511811023622047
          },
          {
            "duration": 0.1875,
            "durationTicks": 144,
            "midi": 60,
            "name": "C4",
            "ticks": 117216,
            "time": 152.625,
            "velocity": 0.5511811023622047
          },
          {
            "duration": 0.1875,
            "durationTicks": 144,
            "midi": 48,
            "name": "C3",
            "ticks": 117216,
            "time": 152.625,
            "velocity": 0.5511811023622047
          },
          {
            "duration": 0.1875,
            "durationTicks": 144,
            "midi": 52,
            "name": "E3",
            "ticks": 117216,
            "time": 152.625,
            "velocity": 0.5511811023622047
          },
          {
            "duration": 0.1875,
            "durationTicks": 144,
            "midi": 40,
            "name": "E2",
            "ticks": 117216,
            "time": 152.625,
            "velocity": 0.5511811023622047
          },
          {
            "duration": 0.1875,
            "durationTicks": 144,
            "midi": 43,
            "name": "G2",
            "ticks": 117216,
            "time": 152.625,
            "velocity": 0.5511811023622047
          },
          {
            "duration": 0.1875,
            "durationTicks": 144,
            "midi": 36,
            "name": "C2",
            "ticks": 117216,
            "time": 152.625,
            "velocity": 0.5511811023622047
          },
          {
            "duration": 0.1875,
            "durationTicks": 144,
            "midi": 36,
            "name": "C2",
            "ticks": 117360,
            "time": 152.8125,
            "velocity": 0.5511811023622047
          },
          {
            "duration": 0.1875,
            "durationTicks": 144,
            "midi": 52,
            "name": "E3",
            "ticks": 117360,
            "time": 152.8125,
            "velocity": 0.5511811023622047
          },
          {
            "duration": 0.1875,
            "durationTicks": 144,
            "midi": 40,
            "name": "E2",
            "ticks": 117360,
            "time": 152.8125,
            "velocity": 0.5511811023622047
          },
          {
            "duration": 0.1875,
            "durationTicks": 144,
            "midi": 43,
            "name": "G2",
            "ticks": 117360,
            "time": 152.8125,
            "velocity": 0.5511811023622047
          },
          {
            "duration": 0.1875,
            "durationTicks": 144,
            "midi": 60,
            "name": "C4",
            "ticks": 117360,
            "time": 152.8125,
            "velocity": 0.5511811023622047
          },
          {
            "duration": 0.1875,
            "durationTicks": 144,
            "midi": 48,
            "name": "C3",
            "ticks": 117360,
            "time": 152.8125,
            "velocity": 0.5511811023622047
          },
          {
            "duration": 0.1875,
            "durationTicks": 144,
            "midi": 55,
            "name": "G3",
            "ticks": 117360,
            "time": 152.8125,
            "velocity": 0.5511811023622047
          },
          {
            "duration": 0.1875,
            "durationTicks": 144,
            "midi": 50,
            "name": "D3",
            "ticks": 117504,
            "time": 153,
            "velocity": 0.5511811023622047
          },
          {
            "duration": 0.1875,
            "durationTicks": 144,
            "midi": 54,
            "name": "F#3",
            "ticks": 117504,
            "time": 153,
            "velocity": 0.5511811023622047
          },
          {
            "duration": 0.1875,
            "durationTicks": 144,
            "midi": 57,
            "name": "A3",
            "ticks": 117504,
            "time": 153,
            "velocity": 0.5511811023622047
          },
          {
            "duration": 0.1875,
            "durationTicks": 144,
            "midi": 38,
            "name": "D2",
            "ticks": 117504,
            "time": 153,
            "velocity": 0.5511811023622047
          },
          {
            "duration": 0.1875,
            "durationTicks": 144,
            "midi": 42,
            "name": "F#2",
            "ticks": 117504,
            "time": 153,
            "velocity": 0.5511811023622047
          },
          {
            "duration": 0.1875,
            "durationTicks": 144,
            "midi": 45,
            "name": "A2",
            "ticks": 117504,
            "time": 153,
            "velocity": 0.5511811023622047
          },
          {
            "duration": 0.1875,
            "durationTicks": 144,
            "midi": 62,
            "name": "D4",
            "ticks": 117504,
            "time": 153,
            "velocity": 0.5511811023622047
          },
          {
            "duration": 0.1875,
            "durationTicks": 144,
            "midi": 42,
            "name": "F#2",
            "ticks": 117792,
            "time": 153.375,
            "velocity": 0.5511811023622047
          },
          {
            "duration": 0.1875,
            "durationTicks": 144,
            "midi": 45,
            "name": "A2",
            "ticks": 117792,
            "time": 153.375,
            "velocity": 0.5511811023622047
          },
          {
            "duration": 0.1875,
            "durationTicks": 144,
            "midi": 57,
            "name": "A3",
            "ticks": 117792,
            "time": 153.375,
            "velocity": 0.5511811023622047
          },
          {
            "duration": 0.1875,
            "durationTicks": 144,
            "midi": 38,
            "name": "D2",
            "ticks": 117792,
            "time": 153.375,
            "velocity": 0.5511811023622047
          },
          {
            "duration": 0.1875,
            "durationTicks": 144,
            "midi": 62,
            "name": "D4",
            "ticks": 117792,
            "time": 153.375,
            "velocity": 0.5511811023622047
          },
          {
            "duration": 0.1875,
            "durationTicks": 144,
            "midi": 54,
            "name": "F#3",
            "ticks": 117792,
            "time": 153.375,
            "velocity": 0.5511811023622047
          },
          {
            "duration": 0.1875,
            "durationTicks": 144,
            "midi": 50,
            "name": "D3",
            "ticks": 117792,
            "time": 153.375,
            "velocity": 0.5511811023622047
          },
          {
            "duration": 0.1875,
            "durationTicks": 144,
            "midi": 64,
            "name": "E4",
            "ticks": 118080,
            "time": 153.75,
            "velocity": 0.5511811023622047
          },
          {
            "duration": 0.1875,
            "durationTicks": 144,
            "midi": 40,
            "name": "E2",
            "ticks": 118080,
            "time": 153.75,
            "velocity": 0.5511811023622047
          },
          {
            "duration": 0.1875,
            "durationTicks": 144,
            "midi": 44,
            "name": "G#2",
            "ticks": 118080,
            "time": 153.75,
            "velocity": 0.5511811023622047
          },
          {
            "duration": 0.1875,
            "durationTicks": 144,
            "midi": 47,
            "name": "B2",
            "ticks": 118080,
            "time": 153.75,
            "velocity": 0.5511811023622047
          },
          {
            "duration": 0.1875,
            "durationTicks": 144,
            "midi": 56,
            "name": "G#3",
            "ticks": 118080,
            "time": 153.75,
            "velocity": 0.5511811023622047
          },
          {
            "duration": 0.1875,
            "durationTicks": 144,
            "midi": 59,
            "name": "B3",
            "ticks": 118080,
            "time": 153.75,
            "velocity": 0.5511811023622047
          },
          {
            "duration": 0.1875,
            "durationTicks": 144,
            "midi": 52,
            "name": "E3",
            "ticks": 118080,
            "time": 153.75,
            "velocity": 0.5511811023622047
          },
          {
            "duration": 0.1875,
            "durationTicks": 144,
            "midi": 47,
            "name": "B2",
            "ticks": 118368,
            "time": 154.125,
            "velocity": 0.5511811023622047
          },
          {
            "duration": 0.1875,
            "durationTicks": 144,
            "midi": 59,
            "name": "B3",
            "ticks": 118368,
            "time": 154.125,
            "velocity": 0.5511811023622047
          },
          {
            "duration": 0.1875,
            "durationTicks": 144,
            "midi": 44,
            "name": "G#2",
            "ticks": 118368,
            "time": 154.125,
            "velocity": 0.5511811023622047
          },
          {
            "duration": 0.1875,
            "durationTicks": 144,
            "midi": 56,
            "name": "G#3",
            "ticks": 118368,
            "time": 154.125,
            "velocity": 0.5511811023622047
          },
          {
            "duration": 0.1875,
            "durationTicks": 144,
            "midi": 40,
            "name": "E2",
            "ticks": 118368,
            "time": 154.125,
            "velocity": 0.5511811023622047
          },
          {
            "duration": 0.1875,
            "durationTicks": 144,
            "midi": 64,
            "name": "E4",
            "ticks": 118368,
            "time": 154.125,
            "velocity": 0.5511811023622047
          },
          {
            "duration": 0.1875,
            "durationTicks": 144,
            "midi": 52,
            "name": "E3",
            "ticks": 118368,
            "time": 154.125,
            "velocity": 0.5511811023622047
          },
          {
            "duration": 0.1875,
            "durationTicks": 144,
            "midi": 47,
            "name": "B2",
            "ticks": 118512,
            "time": 154.3125,
            "velocity": 0.5511811023622047
          },
          {
            "duration": 0.1875,
            "durationTicks": 144,
            "midi": 52,
            "name": "E3",
            "ticks": 118512,
            "time": 154.3125,
            "velocity": 0.5511811023622047
          },
          {
            "duration": 0.1875,
            "durationTicks": 144,
            "midi": 64,
            "name": "E4",
            "ticks": 118512,
            "time": 154.3125,
            "velocity": 0.5511811023622047
          },
          {
            "duration": 0.1875,
            "durationTicks": 144,
            "midi": 44,
            "name": "G#2",
            "ticks": 118512,
            "time": 154.3125,
            "velocity": 0.5511811023622047
          },
          {
            "duration": 0.1875,
            "durationTicks": 144,
            "midi": 56,
            "name": "G#3",
            "ticks": 118512,
            "time": 154.3125,
            "velocity": 0.5511811023622047
          },
          {
            "duration": 0.1875,
            "durationTicks": 144,
            "midi": 40,
            "name": "E2",
            "ticks": 118512,
            "time": 154.3125,
            "velocity": 0.5511811023622047
          },
          {
            "duration": 0.1875,
            "durationTicks": 144,
            "midi": 59,
            "name": "B3",
            "ticks": 118512,
            "time": 154.3125,
            "velocity": 0.5511811023622047
          },
          {
            "duration": 0.1875,
            "durationTicks": 144,
            "midi": 44,
            "name": "G#2",
            "ticks": 118800,
            "time": 154.6875,
            "velocity": 0.5511811023622047
          },
          {
            "duration": 0.1875,
            "durationTicks": 144,
            "midi": 40,
            "name": "E2",
            "ticks": 118800,
            "time": 154.6875,
            "velocity": 0.5511811023622047
          },
          {
            "duration": 0.1875,
            "durationTicks": 144,
            "midi": 64,
            "name": "E4",
            "ticks": 118800,
            "time": 154.6875,
            "velocity": 0.5511811023622047
          },
          {
            "duration": 0.1875,
            "durationTicks": 144,
            "midi": 52,
            "name": "E3",
            "ticks": 118800,
            "time": 154.6875,
            "velocity": 0.5511811023622047
          },
          {
            "duration": 0.1875,
            "durationTicks": 144,
            "midi": 47,
            "name": "B2",
            "ticks": 118800,
            "time": 154.6875,
            "velocity": 0.5511811023622047
          },
          {
            "duration": 0.1875,
            "durationTicks": 144,
            "midi": 56,
            "name": "G#3",
            "ticks": 118800,
            "time": 154.6875,
            "velocity": 0.5511811023622047
          },
          {
            "duration": 0.1875,
            "durationTicks": 144,
            "midi": 59,
            "name": "B3",
            "ticks": 118800,
            "time": 154.6875,
            "velocity": 0.5511811023622047
          },
          {
            "duration": 0.1875,
            "durationTicks": 144,
            "midi": 40,
            "name": "E2",
            "ticks": 118944,
            "time": 154.875,
            "velocity": 0.5511811023622047
          },
          {
            "duration": 0.1875,
            "durationTicks": 144,
            "midi": 59,
            "name": "B3",
            "ticks": 118944,
            "time": 154.875,
            "velocity": 0.5511811023622047
          },
          {
            "duration": 0.1875,
            "durationTicks": 144,
            "midi": 52,
            "name": "E3",
            "ticks": 118944,
            "time": 154.875,
            "velocity": 0.5511811023622047
          },
          {
            "duration": 0.1875,
            "durationTicks": 144,
            "midi": 64,
            "name": "E4",
            "ticks": 118944,
            "time": 154.875,
            "velocity": 0.5511811023622047
          },
          {
            "duration": 0.1875,
            "durationTicks": 144,
            "midi": 47,
            "name": "B2",
            "ticks": 118944,
            "time": 154.875,
            "velocity": 0.5511811023622047
          },
          {
            "duration": 0.1875,
            "durationTicks": 144,
            "midi": 56,
            "name": "G#3",
            "ticks": 118944,
            "time": 154.875,
            "velocity": 0.5511811023622047
          },
          {
            "duration": 0.1875,
            "durationTicks": 144,
            "midi": 44,
            "name": "G#2",
            "ticks": 118944,
            "time": 154.875,
            "velocity": 0.5511811023622047
          },
          {
            "duration": 0.1875,
            "durationTicks": 144,
            "midi": 40,
            "name": "E2",
            "ticks": 119088,
            "time": 155.0625,
            "velocity": 0.5511811023622047
          },
          {
            "duration": 0.1875,
            "durationTicks": 144,
            "midi": 56,
            "name": "G#3",
            "ticks": 119088,
            "time": 155.0625,
            "velocity": 0.5511811023622047
          },
          {
            "duration": 0.1875,
            "durationTicks": 144,
            "midi": 59,
            "name": "B3",
            "ticks": 119088,
            "time": 155.0625,
            "velocity": 0.5511811023622047
          },
          {
            "duration": 0.1875,
            "durationTicks": 144,
            "midi": 47,
            "name": "B2",
            "ticks": 119088,
            "time": 155.0625,
            "velocity": 0.5511811023622047
          },
          {
            "duration": 0.1875,
            "durationTicks": 144,
            "midi": 52,
            "name": "E3",
            "ticks": 119088,
            "time": 155.0625,
            "velocity": 0.5511811023622047
          },
          {
            "duration": 0.1875,
            "durationTicks": 144,
            "midi": 44,
            "name": "G#2",
            "ticks": 119088,
            "time": 155.0625,
            "velocity": 0.5511811023622047
          },
          {
            "duration": 0.1875,
            "durationTicks": 144,
            "midi": 64,
            "name": "E4",
            "ticks": 119088,
            "time": 155.0625,
            "velocity": 0.5511811023622047
          },
          {
            "duration": 0.1875,
            "durationTicks": 144,
            "midi": 52,
            "name": "E3",
            "ticks": 119232,
            "time": 155.25,
            "velocity": 0.5511811023622047
          },
          {
            "duration": 0.1875,
            "durationTicks": 144,
            "midi": 59,
            "name": "B3",
            "ticks": 119232,
            "time": 155.25,
            "velocity": 0.5511811023622047
          },
          {
            "duration": 0.1875,
            "durationTicks": 144,
            "midi": 64,
            "name": "E4",
            "ticks": 119232,
            "time": 155.25,
            "velocity": 0.5511811023622047
          },
          {
            "duration": 0.1875,
            "durationTicks": 144,
            "midi": 47,
            "name": "B2",
            "ticks": 119232,
            "time": 155.25,
            "velocity": 0.5511811023622047
          },
          {
            "duration": 0.1875,
            "durationTicks": 144,
            "midi": 40,
            "name": "E2",
            "ticks": 119232,
            "time": 155.25,
            "velocity": 0.5511811023622047
          },
          {
            "duration": 0.1875,
            "durationTicks": 144,
            "midi": 44,
            "name": "G#2",
            "ticks": 119232,
            "time": 155.25,
            "velocity": 0.5511811023622047
          },
          {
            "duration": 0.1875,
            "durationTicks": 144,
            "midi": 56,
            "name": "G#3",
            "ticks": 119232,
            "time": 155.25,
            "velocity": 0.5511811023622047
          },
          {
            "duration": 0.1875,
            "durationTicks": 144,
            "midi": 56,
            "name": "G#3",
            "ticks": 119520,
            "time": 155.625,
            "velocity": 0.5511811023622047
          },
          {
            "duration": 0.1875,
            "durationTicks": 144,
            "midi": 40,
            "name": "E2",
            "ticks": 119520,
            "time": 155.625,
            "velocity": 0.5511811023622047
          },
          {
            "duration": 0.1875,
            "durationTicks": 144,
            "midi": 52,
            "name": "E3",
            "ticks": 119520,
            "time": 155.625,
            "velocity": 0.5511811023622047
          },
          {
            "duration": 0.1875,
            "durationTicks": 144,
            "midi": 59,
            "name": "B3",
            "ticks": 119520,
            "time": 155.625,
            "velocity": 0.5511811023622047
          },
          {
            "duration": 0.1875,
            "durationTicks": 144,
            "midi": 44,
            "name": "G#2",
            "ticks": 119520,
            "time": 155.625,
            "velocity": 0.5511811023622047
          },
          {
            "duration": 0.1875,
            "durationTicks": 144,
            "midi": 47,
            "name": "B2",
            "ticks": 119520,
            "time": 155.625,
            "velocity": 0.5511811023622047
          },
          {
            "duration": 0.1875,
            "durationTicks": 144,
            "midi": 64,
            "name": "E4",
            "ticks": 119520,
            "time": 155.625,
            "velocity": 0.5511811023622047
          },
          {
            "duration": 0.1875,
            "durationTicks": 144,
            "midi": 52,
            "name": "E3",
            "ticks": 119664,
            "time": 155.8125,
            "velocity": 0.5511811023622047
          },
          {
            "duration": 0.1875,
            "durationTicks": 144,
            "midi": 40,
            "name": "E2",
            "ticks": 119664,
            "time": 155.8125,
            "velocity": 0.5511811023622047
          },
          {
            "duration": 0.1875,
            "durationTicks": 144,
            "midi": 47,
            "name": "B2",
            "ticks": 119664,
            "time": 155.8125,
            "velocity": 0.5511811023622047
          },
          {
            "duration": 0.1875,
            "durationTicks": 144,
            "midi": 56,
            "name": "G#3",
            "ticks": 119664,
            "time": 155.8125,
            "velocity": 0.5511811023622047
          },
          {
            "duration": 0.1875,
            "durationTicks": 144,
            "midi": 44,
            "name": "G#2",
            "ticks": 119664,
            "time": 155.8125,
            "velocity": 0.5511811023622047
          },
          {
            "duration": 0.1875,
            "durationTicks": 144,
            "midi": 59,
            "name": "B3",
            "ticks": 119664,
            "time": 155.8125,
            "velocity": 0.5511811023622047
          },
          {
            "duration": 0.1875,
            "durationTicks": 144,
            "midi": 64,
            "name": "E4",
            "ticks": 119664,
            "time": 155.8125,
            "velocity": 0.5511811023622047
          },
          {
            "duration": 0.1875,
            "durationTicks": 144,
            "midi": 52,
            "name": "E3",
            "ticks": 119952,
            "time": 156.1875,
            "velocity": 0.5511811023622047
          },
          {
            "duration": 0.1875,
            "durationTicks": 144,
            "midi": 64,
            "name": "E4",
            "ticks": 119952,
            "time": 156.1875,
            "velocity": 0.5511811023622047
          },
          {
            "duration": 0.1875,
            "durationTicks": 144,
            "midi": 59,
            "name": "B3",
            "ticks": 119952,
            "time": 156.1875,
            "velocity": 0.5511811023622047
          },
          {
            "duration": 0.1875,
            "durationTicks": 144,
            "midi": 40,
            "name": "E2",
            "ticks": 119952,
            "time": 156.1875,
            "velocity": 0.5511811023622047
          },
          {
            "duration": 0.1875,
            "durationTicks": 144,
            "midi": 44,
            "name": "G#2",
            "ticks": 119952,
            "time": 156.1875,
            "velocity": 0.5511811023622047
          },
          {
            "duration": 0.1875,
            "durationTicks": 144,
            "midi": 56,
            "name": "G#3",
            "ticks": 119952,
            "time": 156.1875,
            "velocity": 0.5511811023622047
          },
          {
            "duration": 0.1875,
            "durationTicks": 144,
            "midi": 47,
            "name": "B2",
            "ticks": 119952,
            "time": 156.1875,
            "velocity": 0.5511811023622047
          },
          {
            "duration": 0.1875,
            "durationTicks": 144,
            "midi": 47,
            "name": "B2",
            "ticks": 120096,
            "time": 156.375,
            "velocity": 0.5511811023622047
          },
          {
            "duration": 0.1875,
            "durationTicks": 144,
            "midi": 40,
            "name": "E2",
            "ticks": 120096,
            "time": 156.375,
            "velocity": 0.5511811023622047
          },
          {
            "duration": 0.1875,
            "durationTicks": 144,
            "midi": 52,
            "name": "E3",
            "ticks": 120096,
            "time": 156.375,
            "velocity": 0.5511811023622047
          },
          {
            "duration": 0.1875,
            "durationTicks": 144,
            "midi": 44,
            "name": "G#2",
            "ticks": 120096,
            "time": 156.375,
            "velocity": 0.5511811023622047
          },
          {
            "duration": 0.1875,
            "durationTicks": 144,
            "midi": 59,
            "name": "B3",
            "ticks": 120096,
            "time": 156.375,
            "velocity": 0.5511811023622047
          },
          {
            "duration": 0.1875,
            "durationTicks": 144,
            "midi": 64,
            "name": "E4",
            "ticks": 120096,
            "time": 156.375,
            "velocity": 0.5511811023622047
          },
          {
            "duration": 0.1875,
            "durationTicks": 144,
            "midi": 56,
            "name": "G#3",
            "ticks": 120096,
            "time": 156.375,
            "velocity": 0.5511811023622047
          },
          {
            "duration": 0.1875,
            "durationTicks": 144,
            "midi": 47,
            "name": "B2",
            "ticks": 120240,
            "time": 156.5625,
            "velocity": 0.5511811023622047
          },
          {
            "duration": 0.1875,
            "durationTicks": 144,
            "midi": 52,
            "name": "E3",
            "ticks": 120240,
            "time": 156.5625,
            "velocity": 0.5511811023622047
          },
          {
            "duration": 0.1875,
            "durationTicks": 144,
            "midi": 56,
            "name": "G#3",
            "ticks": 120240,
            "time": 156.5625,
            "velocity": 0.5511811023622047
          },
          {
            "duration": 0.1875,
            "durationTicks": 144,
            "midi": 40,
            "name": "E2",
            "ticks": 120240,
            "time": 156.5625,
            "velocity": 0.5511811023622047
          },
          {
            "duration": 0.1875,
            "durationTicks": 144,
            "midi": 59,
            "name": "B3",
            "ticks": 120240,
            "time": 156.5625,
            "velocity": 0.5511811023622047
          },
          {
            "duration": 0.1875,
            "durationTicks": 144,
            "midi": 64,
            "name": "E4",
            "ticks": 120240,
            "time": 156.5625,
            "velocity": 0.5511811023622047
          },
          {
            "duration": 0.1875,
            "durationTicks": 144,
            "midi": 44,
            "name": "G#2",
            "ticks": 120240,
            "time": 156.5625,
            "velocity": 0.5511811023622047
          },
          {
            "duration": 0.1875,
            "durationTicks": 144,
            "midi": 62,
            "name": "D4",
            "ticks": 120384,
            "time": 156.75,
            "velocity": 0.5511811023622047
          },
          {
            "duration": 0.1875,
            "durationTicks": 144,
            "midi": 59,
            "name": "B3",
            "ticks": 120384,
            "time": 156.75,
            "velocity": 0.5511811023622047
          },
          {
            "duration": 0.1875,
            "durationTicks": 144,
            "midi": 67,
            "name": "G4",
            "ticks": 120384,
            "time": 156.75,
            "velocity": 0.5511811023622047
          },
          {
            "duration": 0.1875,
            "durationTicks": 144,
            "midi": 47,
            "name": "B2",
            "ticks": 120384,
            "time": 156.75,
            "velocity": 0.5511811023622047
          },
          {
            "duration": 0.1875,
            "durationTicks": 144,
            "midi": 50,
            "name": "D3",
            "ticks": 120384,
            "time": 156.75,
            "velocity": 0.5511811023622047
          },
          {
            "duration": 0.1875,
            "durationTicks": 144,
            "midi": 43,
            "name": "G2",
            "ticks": 120384,
            "time": 156.75,
            "velocity": 0.5511811023622047
          },
          {
            "duration": 0.1875,
            "durationTicks": 144,
            "midi": 55,
            "name": "G3",
            "ticks": 120384,
            "time": 156.75,
            "velocity": 0.5511811023622047
          },
          {
            "duration": 0.1875,
            "durationTicks": 144,
            "midi": 62,
            "name": "D4",
            "ticks": 120672,
            "time": 157.125,
            "velocity": 0.5511811023622047
          },
          {
            "duration": 0.1875,
            "durationTicks": 144,
            "midi": 55,
            "name": "G3",
            "ticks": 120672,
            "time": 157.125,
            "velocity": 0.5511811023622047
          },
          {
            "duration": 0.1875,
            "durationTicks": 144,
            "midi": 67,
            "name": "G4",
            "ticks": 120672,
            "time": 157.125,
            "velocity": 0.5511811023622047
          },
          {
            "duration": 0.1875,
            "durationTicks": 144,
            "midi": 47,
            "name": "B2",
            "ticks": 120672,
            "time": 157.125,
            "velocity": 0.5511811023622047
          },
          {
            "duration": 0.1875,
            "durationTicks": 144,
            "midi": 59,
            "name": "B3",
            "ticks": 120672,
            "time": 157.125,
            "velocity": 0.5511811023622047
          },
          {
            "duration": 0.1875,
            "durationTicks": 144,
            "midi": 43,
            "name": "G2",
            "ticks": 120672,
            "time": 157.125,
            "velocity": 0.5511811023622047
          },
          {
            "duration": 0.1875,
            "durationTicks": 144,
            "midi": 50,
            "name": "D3",
            "ticks": 120672,
            "time": 157.125,
            "velocity": 0.5511811023622047
          },
          {
            "duration": 0.1875,
            "durationTicks": 144,
            "midi": 50,
            "name": "D3",
            "ticks": 120816,
            "time": 157.3125,
            "velocity": 0.5511811023622047
          },
          {
            "duration": 0.1875,
            "durationTicks": 144,
            "midi": 55,
            "name": "G3",
            "ticks": 120816,
            "time": 157.3125,
            "velocity": 0.5511811023622047
          },
          {
            "duration": 0.1875,
            "durationTicks": 144,
            "midi": 47,
            "name": "B2",
            "ticks": 120816,
            "time": 157.3125,
            "velocity": 0.5511811023622047
          },
          {
            "duration": 0.1875,
            "durationTicks": 144,
            "midi": 43,
            "name": "G2",
            "ticks": 120816,
            "time": 157.3125,
            "velocity": 0.5511811023622047
          },
          {
            "duration": 0.1875,
            "durationTicks": 144,
            "midi": 59,
            "name": "B3",
            "ticks": 120816,
            "time": 157.3125,
            "velocity": 0.5511811023622047
          },
          {
            "duration": 0.1875,
            "durationTicks": 144,
            "midi": 62,
            "name": "D4",
            "ticks": 120816,
            "time": 157.3125,
            "velocity": 0.5511811023622047
          },
          {
            "duration": 0.1875,
            "durationTicks": 144,
            "midi": 67,
            "name": "G4",
            "ticks": 120816,
            "time": 157.3125,
            "velocity": 0.5511811023622047
          },
          {
            "duration": 0.1875,
            "durationTicks": 144,
            "midi": 62,
            "name": "D4",
            "ticks": 121104,
            "time": 157.6875,
            "velocity": 0.5511811023622047
          },
          {
            "duration": 0.1875,
            "durationTicks": 144,
            "midi": 59,
            "name": "B3",
            "ticks": 121104,
            "time": 157.6875,
            "velocity": 0.5511811023622047
          },
          {
            "duration": 0.1875,
            "durationTicks": 144,
            "midi": 50,
            "name": "D3",
            "ticks": 121104,
            "time": 157.6875,
            "velocity": 0.5511811023622047
          },
          {
            "duration": 0.1875,
            "durationTicks": 144,
            "midi": 47,
            "name": "B2",
            "ticks": 121104,
            "time": 157.6875,
            "velocity": 0.5511811023622047
          },
          {
            "duration": 0.1875,
            "durationTicks": 144,
            "midi": 67,
            "name": "G4",
            "ticks": 121104,
            "time": 157.6875,
            "velocity": 0.5511811023622047
          },
          {
            "duration": 0.1875,
            "durationTicks": 144,
            "midi": 55,
            "name": "G3",
            "ticks": 121104,
            "time": 157.6875,
            "velocity": 0.5511811023622047
          },
          {
            "duration": 0.1875,
            "durationTicks": 144,
            "midi": 43,
            "name": "G2",
            "ticks": 121104,
            "time": 157.6875,
            "velocity": 0.5511811023622047
          },
          {
            "duration": 0.1875,
            "durationTicks": 144,
            "midi": 67,
            "name": "G4",
            "ticks": 121248,
            "time": 157.875,
            "velocity": 0.5511811023622047
          },
          {
            "duration": 0.1875,
            "durationTicks": 144,
            "midi": 47,
            "name": "B2",
            "ticks": 121248,
            "time": 157.875,
            "velocity": 0.5511811023622047
          },
          {
            "duration": 0.1875,
            "durationTicks": 144,
            "midi": 55,
            "name": "G3",
            "ticks": 121248,
            "time": 157.875,
            "velocity": 0.5511811023622047
          },
          {
            "duration": 0.1875,
            "durationTicks": 144,
            "midi": 59,
            "name": "B3",
            "ticks": 121248,
            "time": 157.875,
            "velocity": 0.5511811023622047
          },
          {
            "duration": 0.1875,
            "durationTicks": 144,
            "midi": 43,
            "name": "G2",
            "ticks": 121248,
            "time": 157.875,
            "velocity": 0.5511811023622047
          },
          {
            "duration": 0.1875,
            "durationTicks": 144,
            "midi": 50,
            "name": "D3",
            "ticks": 121248,
            "time": 157.875,
            "velocity": 0.5511811023622047
          },
          {
            "duration": 0.1875,
            "durationTicks": 144,
            "midi": 62,
            "name": "D4",
            "ticks": 121248,
            "time": 157.875,
            "velocity": 0.5511811023622047
          },
          {
            "duration": 0.1875,
            "durationTicks": 144,
            "midi": 55,
            "name": "G3",
            "ticks": 121392,
            "time": 158.0625,
            "velocity": 0.5511811023622047
          },
          {
            "duration": 0.1875,
            "durationTicks": 144,
            "midi": 47,
            "name": "B2",
            "ticks": 121392,
            "time": 158.0625,
            "velocity": 0.5511811023622047
          },
          {
            "duration": 0.1875,
            "durationTicks": 144,
            "midi": 50,
            "name": "D3",
            "ticks": 121392,
            "time": 158.0625,
            "velocity": 0.5511811023622047
          },
          {
            "duration": 0.1875,
            "durationTicks": 144,
            "midi": 43,
            "name": "G2",
            "ticks": 121392,
            "time": 158.0625,
            "velocity": 0.5511811023622047
          },
          {
            "duration": 0.1875,
            "durationTicks": 144,
            "midi": 67,
            "name": "G4",
            "ticks": 121392,
            "time": 158.0625,
            "velocity": 0.5511811023622047
          },
          {
            "duration": 0.1875,
            "durationTicks": 144,
            "midi": 59,
            "name": "B3",
            "ticks": 121392,
            "time": 158.0625,
            "velocity": 0.5511811023622047
          },
          {
            "duration": 0.1875,
            "durationTicks": 144,
            "midi": 62,
            "name": "D4",
            "ticks": 121392,
            "time": 158.0625,
            "velocity": 0.5511811023622047
          },
          {
            "duration": 0.1875,
            "durationTicks": 144,
            "midi": 60,
            "name": "C4",
            "ticks": 121536,
            "time": 158.25,
            "velocity": 0.5511811023622047
          },
          {
            "duration": 0.1875,
            "durationTicks": 144,
            "midi": 48,
            "name": "C3",
            "ticks": 121536,
            "time": 158.25,
            "velocity": 0.5511811023622047
          },
          {
            "duration": 0.1875,
            "durationTicks": 144,
            "midi": 40,
            "name": "E2",
            "ticks": 121536,
            "time": 158.25,
            "velocity": 0.5511811023622047
          },
          {
            "duration": 0.1875,
            "durationTicks": 144,
            "midi": 43,
            "name": "G2",
            "ticks": 121536,
            "time": 158.25,
            "velocity": 0.5511811023622047
          },
          {
            "duration": 0.1875,
            "durationTicks": 144,
            "midi": 55,
            "name": "G3",
            "ticks": 121536,
            "time": 158.25,
            "velocity": 0.5511811023622047
          },
          {
            "duration": 0.1875,
            "durationTicks": 144,
            "midi": 52,
            "name": "E3",
            "ticks": 121536,
            "time": 158.25,
            "velocity": 0.5511811023622047
          },
          {
            "duration": 0.1875,
            "durationTicks": 144,
            "midi": 36,
            "name": "C2",
            "ticks": 121536,
            "time": 158.25,
            "velocity": 0.5511811023622047
          },
          {
            "duration": 0.1875,
            "durationTicks": 144,
            "midi": 40,
            "name": "E2",
            "ticks": 121824,
            "time": 158.625,
            "velocity": 0.5511811023622047
          },
          {
            "duration": 0.1875,
            "durationTicks": 144,
            "midi": 55,
            "name": "G3",
            "ticks": 121824,
            "time": 158.625,
            "velocity": 0.5511811023622047
          },
          {
            "duration": 0.1875,
            "durationTicks": 144,
            "midi": 43,
            "name": "G2",
            "ticks": 121824,
            "time": 158.625,
            "velocity": 0.5511811023622047
          },
          {
            "duration": 0.1875,
            "durationTicks": 144,
            "midi": 60,
            "name": "C4",
            "ticks": 121824,
            "time": 158.625,
            "velocity": 0.5511811023622047
          },
          {
            "duration": 0.1875,
            "durationTicks": 144,
            "midi": 36,
            "name": "C2",
            "ticks": 121824,
            "time": 158.625,
            "velocity": 0.5511811023622047
          },
          {
            "duration": 0.1875,
            "durationTicks": 144,
            "midi": 48,
            "name": "C3",
            "ticks": 121824,
            "time": 158.625,
            "velocity": 0.5511811023622047
          },
          {
            "duration": 0.1875,
            "durationTicks": 144,
            "midi": 52,
            "name": "E3",
            "ticks": 121824,
            "time": 158.625,
            "velocity": 0.5511811023622047
          },
          {
            "duration": 0.1875,
            "durationTicks": 144,
            "midi": 60,
            "name": "C4",
            "ticks": 121968,
            "time": 158.8125,
            "velocity": 0.5511811023622047
          },
          {
            "duration": 0.1875,
            "durationTicks": 144,
            "midi": 40,
            "name": "E2",
            "ticks": 121968,
            "time": 158.8125,
            "velocity": 0.5511811023622047
          },
          {
            "duration": 0.1875,
            "durationTicks": 144,
            "midi": 43,
            "name": "G2",
            "ticks": 121968,
            "time": 158.8125,
            "velocity": 0.5511811023622047
          },
          {
            "duration": 0.1875,
            "durationTicks": 144,
            "midi": 52,
            "name": "E3",
            "ticks": 121968,
            "time": 158.8125,
            "velocity": 0.5511811023622047
          },
          {
            "duration": 0.1875,
            "durationTicks": 144,
            "midi": 48,
            "name": "C3",
            "ticks": 121968,
            "time": 158.8125,
            "velocity": 0.5511811023622047
          },
          {
            "duration": 0.1875,
            "durationTicks": 144,
            "midi": 55,
            "name": "G3",
            "ticks": 121968,
            "time": 158.8125,
            "velocity": 0.5511811023622047
          },
          {
            "duration": 0.1875,
            "durationTicks": 144,
            "midi": 36,
            "name": "C2",
            "ticks": 121968,
            "time": 158.8125,
            "velocity": 0.5511811023622047
          },
          {
            "duration": 0.1875,
            "durationTicks": 144,
            "midi": 48,
            "name": "C3",
            "ticks": 122256,
            "time": 159.1875,
            "velocity": 0.5511811023622047
          },
          {
            "duration": 0.1875,
            "durationTicks": 144,
            "midi": 43,
            "name": "G2",
            "ticks": 122256,
            "time": 159.1875,
            "velocity": 0.5511811023622047
          },
          {
            "duration": 0.1875,
            "durationTicks": 144,
            "midi": 60,
            "name": "C4",
            "ticks": 122256,
            "time": 159.1875,
            "velocity": 0.5511811023622047
          },
          {
            "duration": 0.1875,
            "durationTicks": 144,
            "midi": 55,
            "name": "G3",
            "ticks": 122256,
            "time": 159.1875,
            "velocity": 0.5511811023622047
          },
          {
            "duration": 0.1875,
            "durationTicks": 144,
            "midi": 40,
            "name": "E2",
            "ticks": 122256,
            "time": 159.1875,
            "velocity": 0.5511811023622047
          },
          {
            "duration": 0.1875,
            "durationTicks": 144,
            "midi": 52,
            "name": "E3",
            "ticks": 122256,
            "time": 159.1875,
            "velocity": 0.5511811023622047
          },
          {
            "duration": 0.1875,
            "durationTicks": 144,
            "midi": 36,
            "name": "C2",
            "ticks": 122256,
            "time": 159.1875,
            "velocity": 0.5511811023622047
          },
          {
            "duration": 0.1875,
            "durationTicks": 144,
            "midi": 43,
            "name": "G2",
            "ticks": 122400,
            "time": 159.375,
            "velocity": 0.5511811023622047
          },
          {
            "duration": 0.1875,
            "durationTicks": 144,
            "midi": 52,
            "name": "E3",
            "ticks": 122400,
            "time": 159.375,
            "velocity": 0.5511811023622047
          },
          {
            "duration": 0.1875,
            "durationTicks": 144,
            "midi": 40,
            "name": "E2",
            "ticks": 122400,
            "time": 159.375,
            "velocity": 0.5511811023622047
          },
          {
            "duration": 0.1875,
            "durationTicks": 144,
            "midi": 55,
            "name": "G3",
            "ticks": 122400,
            "time": 159.375,
            "velocity": 0.5511811023622047
          },
          {
            "duration": 0.1875,
            "durationTicks": 144,
            "midi": 60,
            "name": "C4",
            "ticks": 122400,
            "time": 159.375,
            "velocity": 0.5511811023622047
          },
          {
            "duration": 0.1875,
            "durationTicks": 144,
            "midi": 48,
            "name": "C3",
            "ticks": 122400,
            "time": 159.375,
            "velocity": 0.5511811023622047
          },
          {
            "duration": 0.1875,
            "durationTicks": 144,
            "midi": 36,
            "name": "C2",
            "ticks": 122400,
            "time": 159.375,
            "velocity": 0.5511811023622047
          },
          {
            "duration": 0.1875,
            "durationTicks": 144,
            "midi": 43,
            "name": "G2",
            "ticks": 122544,
            "time": 159.5625,
            "velocity": 0.5511811023622047
          },
          {
            "duration": 0.1875,
            "durationTicks": 144,
            "midi": 48,
            "name": "C3",
            "ticks": 122544,
            "time": 159.5625,
            "velocity": 0.5511811023622047
          },
          {
            "duration": 0.1875,
            "durationTicks": 144,
            "midi": 52,
            "name": "E3",
            "ticks": 122544,
            "time": 159.5625,
            "velocity": 0.5511811023622047
          },
          {
            "duration": 0.1875,
            "durationTicks": 144,
            "midi": 36,
            "name": "C2",
            "ticks": 122544,
            "time": 159.5625,
            "velocity": 0.5511811023622047
          },
          {
            "duration": 0.1875,
            "durationTicks": 144,
            "midi": 60,
            "name": "C4",
            "ticks": 122544,
            "time": 159.5625,
            "velocity": 0.5511811023622047
          },
          {
            "duration": 0.1875,
            "durationTicks": 144,
            "midi": 55,
            "name": "G3",
            "ticks": 122544,
            "time": 159.5625,
            "velocity": 0.5511811023622047
          },
          {
            "duration": 0.1875,
            "durationTicks": 144,
            "midi": 40,
            "name": "E2",
            "ticks": 122544,
            "time": 159.5625,
            "velocity": 0.5511811023622047
          },
          {
            "duration": 0.1875,
            "durationTicks": 144,
            "midi": 48,
            "name": "C3",
            "ticks": 122688,
            "time": 159.75,
            "velocity": 0.5511811023622047
          },
          {
            "duration": 0.1875,
            "durationTicks": 144,
            "midi": 36,
            "name": "C2",
            "ticks": 122688,
            "time": 159.75,
            "velocity": 0.5511811023622047
          },
          {
            "duration": 0.1875,
            "durationTicks": 144,
            "midi": 55,
            "name": "G3",
            "ticks": 122688,
            "time": 159.75,
            "velocity": 0.5511811023622047
          },
          {
            "duration": 0.1875,
            "durationTicks": 144,
            "midi": 60,
            "name": "C4",
            "ticks": 122688,
            "time": 159.75,
            "velocity": 0.5511811023622047
          },
          {
            "duration": 0.1875,
            "durationTicks": 144,
            "midi": 52,
            "name": "E3",
            "ticks": 122688,
            "time": 159.75,
            "velocity": 0.5511811023622047
          },
          {
            "duration": 0.1875,
            "durationTicks": 144,
            "midi": 43,
            "name": "G2",
            "ticks": 122688,
            "time": 159.75,
            "velocity": 0.5511811023622047
          },
          {
            "duration": 0.1875,
            "durationTicks": 144,
            "midi": 40,
            "name": "E2",
            "ticks": 122688,
            "time": 159.75,
            "velocity": 0.5511811023622047
          },
          {
            "duration": 0.1875,
            "durationTicks": 144,
            "midi": 55,
            "name": "G3",
            "ticks": 122976,
            "time": 160.125,
            "velocity": 0.5511811023622047
          },
          {
            "duration": 0.1875,
            "durationTicks": 144,
            "midi": 60,
            "name": "C4",
            "ticks": 122976,
            "time": 160.125,
            "velocity": 0.5511811023622047
          },
          {
            "duration": 0.1875,
            "durationTicks": 144,
            "midi": 40,
            "name": "E2",
            "ticks": 122976,
            "time": 160.125,
            "velocity": 0.5511811023622047
          },
          {
            "duration": 0.1875,
            "durationTicks": 144,
            "midi": 36,
            "name": "C2",
            "ticks": 122976,
            "time": 160.125,
            "velocity": 0.5511811023622047
          },
          {
            "duration": 0.1875,
            "durationTicks": 144,
            "midi": 43,
            "name": "G2",
            "ticks": 122976,
            "time": 160.125,
            "velocity": 0.5511811023622047
          },
          {
            "duration": 0.1875,
            "durationTicks": 144,
            "midi": 48,
            "name": "C3",
            "ticks": 122976,
            "time": 160.125,
            "velocity": 0.5511811023622047
          },
          {
            "duration": 0.1875,
            "durationTicks": 144,
            "midi": 52,
            "name": "E3",
            "ticks": 122976,
            "time": 160.125,
            "velocity": 0.5511811023622047
          },
          {
            "duration": 0.1875,
            "durationTicks": 144,
            "midi": 60,
            "name": "C4",
            "ticks": 123120,
            "time": 160.3125,
            "velocity": 0.5511811023622047
          },
          {
            "duration": 0.1875,
            "durationTicks": 144,
            "midi": 43,
            "name": "G2",
            "ticks": 123120,
            "time": 160.3125,
            "velocity": 0.5511811023622047
          },
          {
            "duration": 0.1875,
            "durationTicks": 144,
            "midi": 36,
            "name": "C2",
            "ticks": 123120,
            "time": 160.3125,
            "velocity": 0.5511811023622047
          },
          {
            "duration": 0.1875,
            "durationTicks": 144,
            "midi": 52,
            "name": "E3",
            "ticks": 123120,
            "time": 160.3125,
            "velocity": 0.5511811023622047
          },
          {
            "duration": 0.1875,
            "durationTicks": 144,
            "midi": 48,
            "name": "C3",
            "ticks": 123120,
            "time": 160.3125,
            "velocity": 0.5511811023622047
          },
          {
            "duration": 0.1875,
            "durationTicks": 144,
            "midi": 40,
            "name": "E2",
            "ticks": 123120,
            "time": 160.3125,
            "velocity": 0.5511811023622047
          },
          {
            "duration": 0.1875,
            "durationTicks": 144,
            "midi": 55,
            "name": "G3",
            "ticks": 123120,
            "time": 160.3125,
            "velocity": 0.5511811023622047
          },
          {
            "duration": 0.1875,
            "durationTicks": 144,
            "midi": 52,
            "name": "E3",
            "ticks": 123408,
            "time": 160.6875,
            "velocity": 0.5511811023622047
          },
          {
            "duration": 0.1875,
            "durationTicks": 144,
            "midi": 48,
            "name": "C3",
            "ticks": 123408,
            "time": 160.6875,
            "velocity": 0.5511811023622047
          },
          {
            "duration": 0.1875,
            "durationTicks": 144,
            "midi": 55,
            "name": "G3",
            "ticks": 123408,
            "time": 160.6875,
            "velocity": 0.5511811023622047
          },
          {
            "duration": 0.1875,
            "durationTicks": 144,
            "midi": 43,
            "name": "G2",
            "ticks": 123408,
            "time": 160.6875,
            "velocity": 0.5511811023622047
          },
          {
            "duration": 0.1875,
            "durationTicks": 144,
            "midi": 40,
            "name": "E2",
            "ticks": 123408,
            "time": 160.6875,
            "velocity": 0.5511811023622047
          },
          {
            "duration": 0.1875,
            "durationTicks": 144,
            "midi": 36,
            "name": "C2",
            "ticks": 123408,
            "time": 160.6875,
            "velocity": 0.5511811023622047
          },
          {
            "duration": 0.1875,
            "durationTicks": 144,
            "midi": 60,
            "name": "C4",
            "ticks": 123408,
            "time": 160.6875,
            "velocity": 0.5511811023622047
          },
          {
            "duration": 0.1875,
            "durationTicks": 144,
            "midi": 40,
            "name": "E2",
            "ticks": 123552,
            "time": 160.875,
            "velocity": 0.5511811023622047
          },
          {
            "duration": 0.1875,
            "durationTicks": 144,
            "midi": 43,
            "name": "G2",
            "ticks": 123552,
            "time": 160.875,
            "velocity": 0.5511811023622047
          },
          {
            "duration": 0.1875,
            "durationTicks": 144,
            "midi": 52,
            "name": "E3",
            "ticks": 123552,
            "time": 160.875,
            "velocity": 0.5511811023622047
          },
          {
            "duration": 0.1875,
            "durationTicks": 144,
            "midi": 55,
            "name": "G3",
            "ticks": 123552,
            "time": 160.875,
            "velocity": 0.5511811023622047
          },
          {
            "duration": 0.1875,
            "durationTicks": 144,
            "midi": 36,
            "name": "C2",
            "ticks": 123552,
            "time": 160.875,
            "velocity": 0.5511811023622047
          },
          {
            "duration": 0.1875,
            "durationTicks": 144,
            "midi": 60,
            "name": "C4",
            "ticks": 123552,
            "time": 160.875,
            "velocity": 0.5511811023622047
          },
          {
            "duration": 0.1875,
            "durationTicks": 144,
            "midi": 48,
            "name": "C3",
            "ticks": 123552,
            "time": 160.875,
            "velocity": 0.5511811023622047
          },
          {
            "duration": 0.1875,
            "durationTicks": 144,
            "midi": 43,
            "name": "G2",
            "ticks": 123696,
            "time": 161.0625,
            "velocity": 0.5511811023622047
          },
          {
            "duration": 0.1875,
            "durationTicks": 144,
            "midi": 60,
            "name": "C4",
            "ticks": 123696,
            "time": 161.0625,
            "velocity": 0.5511811023622047
          },
          {
            "duration": 0.1875,
            "durationTicks": 144,
            "midi": 55,
            "name": "G3",
            "ticks": 123696,
            "time": 161.0625,
            "velocity": 0.5511811023622047
          },
          {
            "duration": 0.1875,
            "durationTicks": 144,
            "midi": 40,
            "name": "E2",
            "ticks": 123696,
            "time": 161.0625,
            "velocity": 0.5511811023622047
          },
          {
            "duration": 0.1875,
            "durationTicks": 144,
            "midi": 52,
            "name": "E3",
            "ticks": 123696,
            "time": 161.0625,
            "velocity": 0.5511811023622047
          },
          {
            "duration": 0.1875,
            "durationTicks": 144,
            "midi": 48,
            "name": "C3",
            "ticks": 123696,
            "time": 161.0625,
            "velocity": 0.5511811023622047
          },
          {
            "duration": 0.1875,
            "durationTicks": 144,
            "midi": 36,
            "name": "C2",
            "ticks": 123696,
            "time": 161.0625,
            "velocity": 0.5511811023622047
          },
          {
            "duration": 0.1875,
            "durationTicks": 144,
            "midi": 45,
            "name": "A2",
            "ticks": 123840,
            "time": 161.25,
            "velocity": 0.5511811023622047
          },
          {
            "duration": 0.1875,
            "durationTicks": 144,
            "midi": 50,
            "name": "D3",
            "ticks": 123840,
            "time": 161.25,
            "velocity": 0.5511811023622047
          },
          {
            "duration": 0.1875,
            "durationTicks": 144,
            "midi": 57,
            "name": "A3",
            "ticks": 123840,
            "time": 161.25,
            "velocity": 0.5511811023622047
          },
          {
            "duration": 0.1875,
            "durationTicks": 144,
            "midi": 62,
            "name": "D4",
            "ticks": 123840,
            "time": 161.25,
            "velocity": 0.5511811023622047
          },
          {
            "duration": 0.1875,
            "durationTicks": 144,
            "midi": 54,
            "name": "F#3",
            "ticks": 123840,
            "time": 161.25,
            "velocity": 0.5511811023622047
          },
          {
            "duration": 0.1875,
            "durationTicks": 144,
            "midi": 42,
            "name": "F#2",
            "ticks": 123840,
            "time": 161.25,
            "velocity": 0.5511811023622047
          },
          {
            "duration": 0.1875,
            "durationTicks": 144,
            "midi": 38,
            "name": "D2",
            "ticks": 123840,
            "time": 161.25,
            "velocity": 0.5511811023622047
          },
          {
            "duration": 0.1875,
            "durationTicks": 144,
            "midi": 50,
            "name": "D3",
            "ticks": 124128,
            "time": 161.625,
            "velocity": 0.5511811023622047
          },
          {
            "duration": 0.1875,
            "durationTicks": 144,
            "midi": 42,
            "name": "F#2",
            "ticks": 124128,
            "time": 161.625,
            "velocity": 0.5511811023622047
          },
          {
            "duration": 0.1875,
            "durationTicks": 144,
            "midi": 62,
            "name": "D4",
            "ticks": 124128,
            "time": 161.625,
            "velocity": 0.5511811023622047
          },
          {
            "duration": 0.1875,
            "durationTicks": 144,
            "midi": 45,
            "name": "A2",
            "ticks": 124128,
            "time": 161.625,
            "velocity": 0.5511811023622047
          },
          {
            "duration": 0.1875,
            "durationTicks": 144,
            "midi": 38,
            "name": "D2",
            "ticks": 124128,
            "time": 161.625,
            "velocity": 0.5511811023622047
          },
          {
            "duration": 0.1875,
            "durationTicks": 144,
            "midi": 54,
            "name": "F#3",
            "ticks": 124128,
            "time": 161.625,
            "velocity": 0.5511811023622047
          },
          {
            "duration": 0.1875,
            "durationTicks": 144,
            "midi": 57,
            "name": "A3",
            "ticks": 124128,
            "time": 161.625,
            "velocity": 0.5511811023622047
          },
          {
            "duration": 0.1875,
            "durationTicks": 144,
            "midi": 56,
            "name": "G#3",
            "ticks": 124416,
            "time": 162,
            "velocity": 0.5511811023622047
          },
          {
            "duration": 0.1875,
            "durationTicks": 144,
            "midi": 44,
            "name": "G#2",
            "ticks": 124416,
            "time": 162,
            "velocity": 0.5511811023622047
          },
          {
            "duration": 0.1875,
            "durationTicks": 144,
            "midi": 40,
            "name": "E2",
            "ticks": 124416,
            "time": 162,
            "velocity": 0.5511811023622047
          },
          {
            "duration": 0.1875,
            "durationTicks": 144,
            "midi": 47,
            "name": "B2",
            "ticks": 124416,
            "time": 162,
            "velocity": 0.5511811023622047
          },
          {
            "duration": 0.1875,
            "durationTicks": 144,
            "midi": 59,
            "name": "B3",
            "ticks": 124416,
            "time": 162,
            "velocity": 0.5511811023622047
          },
          {
            "duration": 0.1875,
            "durationTicks": 144,
            "midi": 64,
            "name": "E4",
            "ticks": 124416,
            "time": 162,
            "velocity": 0.5511811023622047
          },
          {
            "duration": 0.1875,
            "durationTicks": 144,
            "midi": 52,
            "name": "E3",
            "ticks": 124416,
            "time": 162,
            "velocity": 0.5511811023622047
          },
          {
            "duration": 0.1875,
            "durationTicks": 144,
            "midi": 56,
            "name": "G#3",
            "ticks": 124704,
            "time": 162.375,
            "velocity": 0.5511811023622047
          },
          {
            "duration": 0.1875,
            "durationTicks": 144,
            "midi": 59,
            "name": "B3",
            "ticks": 124704,
            "time": 162.375,
            "velocity": 0.5511811023622047
          },
          {
            "duration": 0.1875,
            "durationTicks": 144,
            "midi": 40,
            "name": "E2",
            "ticks": 124704,
            "time": 162.375,
            "velocity": 0.5511811023622047
          },
          {
            "duration": 0.1875,
            "durationTicks": 144,
            "midi": 52,
            "name": "E3",
            "ticks": 124704,
            "time": 162.375,
            "velocity": 0.5511811023622047
          },
          {
            "duration": 0.1875,
            "durationTicks": 144,
            "midi": 64,
            "name": "E4",
            "ticks": 124704,
            "time": 162.375,
            "velocity": 0.5511811023622047
          },
          {
            "duration": 0.1875,
            "durationTicks": 144,
            "midi": 44,
            "name": "G#2",
            "ticks": 124704,
            "time": 162.375,
            "velocity": 0.5511811023622047
          },
          {
            "duration": 0.1875,
            "durationTicks": 144,
            "midi": 47,
            "name": "B2",
            "ticks": 124704,
            "time": 162.375,
            "velocity": 0.5511811023622047
          },
          {
            "duration": 0.1875,
            "durationTicks": 144,
            "midi": 52,
            "name": "E3",
            "ticks": 124848,
            "time": 162.5625,
            "velocity": 0.5511811023622047
          },
          {
            "duration": 0.1875,
            "durationTicks": 144,
            "midi": 44,
            "name": "G#2",
            "ticks": 124848,
            "time": 162.5625,
            "velocity": 0.5511811023622047
          },
          {
            "duration": 0.1875,
            "durationTicks": 144,
            "midi": 40,
            "name": "E2",
            "ticks": 124848,
            "time": 162.5625,
            "velocity": 0.5511811023622047
          },
          {
            "duration": 0.1875,
            "durationTicks": 144,
            "midi": 59,
            "name": "B3",
            "ticks": 124848,
            "time": 162.5625,
            "velocity": 0.5511811023622047
          },
          {
            "duration": 0.1875,
            "durationTicks": 144,
            "midi": 56,
            "name": "G#3",
            "ticks": 124848,
            "time": 162.5625,
            "velocity": 0.5511811023622047
          },
          {
            "duration": 0.1875,
            "durationTicks": 144,
            "midi": 47,
            "name": "B2",
            "ticks": 124848,
            "time": 162.5625,
            "velocity": 0.5511811023622047
          },
          {
            "duration": 0.1875,
            "durationTicks": 144,
            "midi": 64,
            "name": "E4",
            "ticks": 124848,
            "time": 162.5625,
            "velocity": 0.5511811023622047
          },
          {
            "duration": 0.1875,
            "durationTicks": 144,
            "midi": 56,
            "name": "G#3",
            "ticks": 125136,
            "time": 162.9375,
            "velocity": 0.5511811023622047
          },
          {
            "duration": 0.1875,
            "durationTicks": 144,
            "midi": 64,
            "name": "E4",
            "ticks": 125136,
            "time": 162.9375,
            "velocity": 0.5511811023622047
          },
          {
            "duration": 0.1875,
            "durationTicks": 144,
            "midi": 40,
            "name": "E2",
            "ticks": 125136,
            "time": 162.9375,
            "velocity": 0.5511811023622047
          },
          {
            "duration": 0.1875,
            "durationTicks": 144,
            "midi": 52,
            "name": "E3",
            "ticks": 125136,
            "time": 162.9375,
            "velocity": 0.5511811023622047
          },
          {
            "duration": 0.1875,
            "durationTicks": 144,
            "midi": 44,
            "name": "G#2",
            "ticks": 125136,
            "time": 162.9375,
            "velocity": 0.5511811023622047
          },
          {
            "duration": 0.1875,
            "durationTicks": 144,
            "midi": 47,
            "name": "B2",
            "ticks": 125136,
            "time": 162.9375,
            "velocity": 0.5511811023622047
          },
          {
            "duration": 0.1875,
            "durationTicks": 144,
            "midi": 59,
            "name": "B3",
            "ticks": 125136,
            "time": 162.9375,
            "velocity": 0.5511811023622047
          },
          {
            "duration": 0.1875,
            "durationTicks": 144,
            "midi": 59,
            "name": "B3",
            "ticks": 125280,
            "time": 163.125,
            "velocity": 0.5511811023622047
          },
          {
            "duration": 0.1875,
            "durationTicks": 144,
            "midi": 64,
            "name": "E4",
            "ticks": 125280,
            "time": 163.125,
            "velocity": 0.5511811023622047
          },
          {
            "duration": 0.1875,
            "durationTicks": 144,
            "midi": 47,
            "name": "B2",
            "ticks": 125280,
            "time": 163.125,
            "velocity": 0.5511811023622047
          },
          {
            "duration": 0.1875,
            "durationTicks": 144,
            "midi": 44,
            "name": "G#2",
            "ticks": 125280,
            "time": 163.125,
            "velocity": 0.5511811023622047
          },
          {
            "duration": 0.1875,
            "durationTicks": 144,
            "midi": 56,
            "name": "G#3",
            "ticks": 125280,
            "time": 163.125,
            "velocity": 0.5511811023622047
          },
          {
            "duration": 0.1875,
            "durationTicks": 144,
            "midi": 52,
            "name": "E3",
            "ticks": 125280,
            "time": 163.125,
            "velocity": 0.5511811023622047
          },
          {
            "duration": 0.1875,
            "durationTicks": 144,
            "midi": 40,
            "name": "E2",
            "ticks": 125280,
            "time": 163.125,
            "velocity": 0.5511811023622047
          },
          {
            "duration": 0.1875,
            "durationTicks": 144,
            "midi": 44,
            "name": "G#2",
            "ticks": 125424,
            "time": 163.3125,
            "velocity": 0.5511811023622047
          },
          {
            "duration": 0.1875,
            "durationTicks": 144,
            "midi": 64,
            "name": "E4",
            "ticks": 125424,
            "time": 163.3125,
            "velocity": 0.5511811023622047
          },
          {
            "duration": 0.1875,
            "durationTicks": 144,
            "midi": 59,
            "name": "B3",
            "ticks": 125424,
            "time": 163.3125,
            "velocity": 0.5511811023622047
          },
          {
            "duration": 0.1875,
            "durationTicks": 144,
            "midi": 56,
            "name": "G#3",
            "ticks": 125424,
            "time": 163.3125,
            "velocity": 0.5511811023622047
          },
          {
            "duration": 0.1875,
            "durationTicks": 144,
            "midi": 52,
            "name": "E3",
            "ticks": 125424,
            "time": 163.3125,
            "velocity": 0.5511811023622047
          },
          {
            "duration": 0.1875,
            "durationTicks": 144,
            "midi": 47,
            "name": "B2",
            "ticks": 125424,
            "time": 163.3125,
            "velocity": 0.5511811023622047
          },
          {
            "duration": 0.1875,
            "durationTicks": 144,
            "midi": 40,
            "name": "E2",
            "ticks": 125424,
            "time": 163.3125,
            "velocity": 0.5511811023622047
          },
          {
            "duration": 0.1875,
            "durationTicks": 144,
            "midi": 40,
            "name": "E2",
            "ticks": 125568,
            "time": 163.5,
            "velocity": 0.5511811023622047
          },
          {
            "duration": 0.1875,
            "durationTicks": 144,
            "midi": 64,
            "name": "E4",
            "ticks": 125568,
            "time": 163.5,
            "velocity": 0.5511811023622047
          },
          {
            "duration": 0.1875,
            "durationTicks": 144,
            "midi": 44,
            "name": "G#2",
            "ticks": 125568,
            "time": 163.5,
            "velocity": 0.5511811023622047
          },
          {
            "duration": 0.1875,
            "durationTicks": 144,
            "midi": 56,
            "name": "G#3",
            "ticks": 125568,
            "time": 163.5,
            "velocity": 0.5511811023622047
          },
          {
            "duration": 0.1875,
            "durationTicks": 144,
            "midi": 59,
            "name": "B3",
            "ticks": 125568,
            "time": 163.5,
            "velocity": 0.5511811023622047
          },
          {
            "duration": 0.1875,
            "durationTicks": 144,
            "midi": 52,
            "name": "E3",
            "ticks": 125568,
            "time": 163.5,
            "velocity": 0.5511811023622047
          },
          {
            "duration": 0.1875,
            "durationTicks": 144,
            "midi": 47,
            "name": "B2",
            "ticks": 125568,
            "time": 163.5,
            "velocity": 0.5511811023622047
          },
          {
            "duration": 0.1875,
            "durationTicks": 144,
            "midi": 59,
            "name": "B3",
            "ticks": 125856,
            "time": 163.875,
            "velocity": 0.5511811023622047
          },
          {
            "duration": 0.1875,
            "durationTicks": 144,
            "midi": 64,
            "name": "E4",
            "ticks": 125856,
            "time": 163.875,
            "velocity": 0.5511811023622047
          },
          {
            "duration": 0.1875,
            "durationTicks": 144,
            "midi": 52,
            "name": "E3",
            "ticks": 125856,
            "time": 163.875,
            "velocity": 0.5511811023622047
          },
          {
            "duration": 0.1875,
            "durationTicks": 144,
            "midi": 40,
            "name": "E2",
            "ticks": 125856,
            "time": 163.875,
            "velocity": 0.5511811023622047
          },
          {
            "duration": 0.1875,
            "durationTicks": 144,
            "midi": 56,
            "name": "G#3",
            "ticks": 125856,
            "time": 163.875,
            "velocity": 0.5511811023622047
          },
          {
            "duration": 0.1875,
            "durationTicks": 144,
            "midi": 44,
            "name": "G#2",
            "ticks": 125856,
            "time": 163.875,
            "velocity": 0.5511811023622047
          },
          {
            "duration": 0.1875,
            "durationTicks": 144,
            "midi": 47,
            "name": "B2",
            "ticks": 125856,
            "time": 163.875,
            "velocity": 0.5511811023622047
          },
          {
            "duration": 0.1875,
            "durationTicks": 144,
            "midi": 56,
            "name": "G#3",
            "ticks": 126000,
            "time": 164.0625,
            "velocity": 0.5511811023622047
          },
          {
            "duration": 0.1875,
            "durationTicks": 144,
            "midi": 59,
            "name": "B3",
            "ticks": 126000,
            "time": 164.0625,
            "velocity": 0.5511811023622047
          },
          {
            "duration": 0.1875,
            "durationTicks": 144,
            "midi": 44,
            "name": "G#2",
            "ticks": 126000,
            "time": 164.0625,
            "velocity": 0.5511811023622047
          },
          {
            "duration": 0.1875,
            "durationTicks": 144,
            "midi": 52,
            "name": "E3",
            "ticks": 126000,
            "time": 164.0625,
            "velocity": 0.5511811023622047
          },
          {
            "duration": 0.1875,
            "durationTicks": 144,
            "midi": 47,
            "name": "B2",
            "ticks": 126000,
            "time": 164.0625,
            "velocity": 0.5511811023622047
          },
          {
            "duration": 0.1875,
            "durationTicks": 144,
            "midi": 64,
            "name": "E4",
            "ticks": 126000,
            "time": 164.0625,
            "velocity": 0.5511811023622047
          },
          {
            "duration": 0.1875,
            "durationTicks": 144,
            "midi": 40,
            "name": "E2",
            "ticks": 126000,
            "time": 164.0625,
            "velocity": 0.5511811023622047
          },
          {
            "duration": 0.1875,
            "durationTicks": 144,
            "midi": 47,
            "name": "B2",
            "ticks": 126288,
            "time": 164.4375,
            "velocity": 0.5511811023622047
          },
          {
            "duration": 0.1875,
            "durationTicks": 144,
            "midi": 59,
            "name": "B3",
            "ticks": 126288,
            "time": 164.4375,
            "velocity": 0.5511811023622047
          },
          {
            "duration": 0.1875,
            "durationTicks": 144,
            "midi": 52,
            "name": "E3",
            "ticks": 126288,
            "time": 164.4375,
            "velocity": 0.5511811023622047
          },
          {
            "duration": 0.1875,
            "durationTicks": 144,
            "midi": 56,
            "name": "G#3",
            "ticks": 126288,
            "time": 164.4375,
            "velocity": 0.5511811023622047
          },
          {
            "duration": 0.1875,
            "durationTicks": 144,
            "midi": 44,
            "name": "G#2",
            "ticks": 126288,
            "time": 164.4375,
            "velocity": 0.5511811023622047
          },
          {
            "duration": 0.1875,
            "durationTicks": 144,
            "midi": 64,
            "name": "E4",
            "ticks": 126288,
            "time": 164.4375,
            "velocity": 0.5511811023622047
          },
          {
            "duration": 0.1875,
            "durationTicks": 144,
            "midi": 40,
            "name": "E2",
            "ticks": 126288,
            "time": 164.4375,
            "velocity": 0.5511811023622047
          },
          {
            "duration": 0.1875,
            "durationTicks": 144,
            "midi": 40,
            "name": "E2",
            "ticks": 126432,
            "time": 164.625,
            "velocity": 0.5511811023622047
          },
          {
            "duration": 0.1875,
            "durationTicks": 144,
            "midi": 47,
            "name": "B2",
            "ticks": 126432,
            "time": 164.625,
            "velocity": 0.5511811023622047
          },
          {
            "duration": 0.1875,
            "durationTicks": 144,
            "midi": 52,
            "name": "E3",
            "ticks": 126432,
            "time": 164.625,
            "velocity": 0.5511811023622047
          },
          {
            "duration": 0.1875,
            "durationTicks": 144,
            "midi": 59,
            "name": "B3",
            "ticks": 126432,
            "time": 164.625,
            "velocity": 0.5511811023622047
          },
          {
            "duration": 0.1875,
            "durationTicks": 144,
            "midi": 44,
            "name": "G#2",
            "ticks": 126432,
            "time": 164.625,
            "velocity": 0.5511811023622047
          },
          {
            "duration": 0.1875,
            "durationTicks": 144,
            "midi": 64,
            "name": "E4",
            "ticks": 126432,
            "time": 164.625,
            "velocity": 0.5511811023622047
          },
          {
            "duration": 0.1875,
            "durationTicks": 144,
            "midi": 56,
            "name": "G#3",
            "ticks": 126432,
            "time": 164.625,
            "velocity": 0.5511811023622047
          },
          {
            "duration": 0.1875,
            "durationTicks": 144,
            "midi": 52,
            "name": "E3",
            "ticks": 126576,
            "time": 164.8125,
            "velocity": 0.5511811023622047
          },
          {
            "duration": 0.1875,
            "durationTicks": 144,
            "midi": 64,
            "name": "E4",
            "ticks": 126576,
            "time": 164.8125,
            "velocity": 0.5511811023622047
          },
          {
            "duration": 0.1875,
            "durationTicks": 144,
            "midi": 47,
            "name": "B2",
            "ticks": 126576,
            "time": 164.8125,
            "velocity": 0.5511811023622047
          },
          {
            "duration": 0.1875,
            "durationTicks": 144,
            "midi": 40,
            "name": "E2",
            "ticks": 126576,
            "time": 164.8125,
            "velocity": 0.5511811023622047
          },
          {
            "duration": 0.1875,
            "durationTicks": 144,
            "midi": 44,
            "name": "G#2",
            "ticks": 126576,
            "time": 164.8125,
            "velocity": 0.5511811023622047
          },
          {
            "duration": 0.1875,
            "durationTicks": 144,
            "midi": 56,
            "name": "G#3",
            "ticks": 126576,
            "time": 164.8125,
            "velocity": 0.5511811023622047
          },
          {
            "duration": 0.1875,
            "durationTicks": 144,
            "midi": 59,
            "name": "B3",
            "ticks": 126576,
            "time": 164.8125,
            "velocity": 0.5511811023622047
          },
          {
            "duration": 0.1875,
            "durationTicks": 144,
            "midi": 36,
            "name": "C2",
            "ticks": 127872,
            "time": 166.5,
            "velocity": 0.5511811023622047
          },
          {
            "duration": 0.1875,
            "durationTicks": 144,
            "midi": 36,
            "name": "C2",
            "ticks": 128160,
            "time": 166.875,
            "velocity": 0.5511811023622047
          },
          {
            "duration": 0.1875,
            "durationTicks": 144,
            "midi": 36,
            "name": "C2",
            "ticks": 128304,
            "time": 167.0625,
            "velocity": 0.5511811023622047
          },
          {
            "duration": 0.1875,
            "durationTicks": 144,
            "midi": 36,
            "name": "C2",
            "ticks": 128592,
            "time": 167.4375,
            "velocity": 0.5511811023622047
          },
          {
            "duration": 0.1875,
            "durationTicks": 144,
            "midi": 36,
            "name": "C2",
            "ticks": 128736,
            "time": 167.625,
            "velocity": 0.5511811023622047
          },
          {
            "duration": 0.1875,
            "durationTicks": 144,
            "midi": 36,
            "name": "C2",
            "ticks": 128880,
            "time": 167.8125,
            "velocity": 0.5511811023622047
          },
          {
            "duration": 0.1875,
            "durationTicks": 144,
            "midi": 36,
            "name": "C2",
            "ticks": 129024,
            "time": 168,
            "velocity": 0.5511811023622047
          },
          {
            "duration": 0.1875,
            "durationTicks": 144,
            "midi": 36,
            "name": "C2",
            "ticks": 129312,
            "time": 168.375,
            "velocity": 0.5511811023622047
          },
          {
            "duration": 0.1875,
            "durationTicks": 144,
            "midi": 36,
            "name": "C2",
            "ticks": 129456,
            "time": 168.5625,
            "velocity": 0.5511811023622047
          },
          {
            "duration": 0.1875,
            "durationTicks": 144,
            "midi": 36,
            "name": "C2",
            "ticks": 129744,
            "time": 168.9375,
            "velocity": 0.5511811023622047
          },
          {
            "duration": 0.1875,
            "durationTicks": 144,
            "midi": 36,
            "name": "C2",
            "ticks": 129888,
            "time": 169.125,
            "velocity": 0.5511811023622047
          },
          {
            "duration": 0.1875,
            "durationTicks": 144,
            "midi": 36,
            "name": "C2",
            "ticks": 130032,
            "time": 169.3125,
            "velocity": 0.5511811023622047
          },
          {
            "duration": 0.1875,
            "durationTicks": 144,
            "midi": 38,
            "name": "D2",
            "ticks": 130176,
            "time": 169.5,
            "velocity": 0.5511811023622047
          },
          {
            "duration": 0.1875,
            "durationTicks": 144,
            "midi": 45,
            "name": "A2",
            "ticks": 130464,
            "time": 169.875,
            "velocity": 0.5511811023622047
          },
          {
            "duration": 0.1875,
            "durationTicks": 144,
            "midi": 40,
            "name": "E2",
            "ticks": 130752,
            "time": 170.25,
            "velocity": 0.5511811023622047
          },
          {
            "duration": 0.1875,
            "durationTicks": 144,
            "midi": 40,
            "name": "E2",
            "ticks": 131040,
            "time": 170.625,
            "velocity": 0.5511811023622047
          },
          {
            "duration": 0.1875,
            "durationTicks": 144,
            "midi": 40,
            "name": "E2",
            "ticks": 131184,
            "time": 170.8125,
            "velocity": 0.5511811023622047
          },
          {
            "duration": 0.1875,
            "durationTicks": 144,
            "midi": 40,
            "name": "E2",
            "ticks": 131472,
            "time": 171.1875,
            "velocity": 0.5511811023622047
          },
          {
            "duration": 0.1875,
            "durationTicks": 144,
            "midi": 40,
            "name": "E2",
            "ticks": 131616,
            "time": 171.375,
            "velocity": 0.5511811023622047
          },
          {
            "duration": 0.1875,
            "durationTicks": 144,
            "midi": 40,
            "name": "E2",
            "ticks": 131760,
            "time": 171.5625,
            "velocity": 0.5511811023622047
          },
          {
            "duration": 0.1875,
            "durationTicks": 144,
            "midi": 40,
            "name": "E2",
            "ticks": 131904,
            "time": 171.75,
            "velocity": 0.5511811023622047
          },
          {
            "duration": 0.1875,
            "durationTicks": 144,
            "midi": 40,
            "name": "E2",
            "ticks": 132192,
            "time": 172.125,
            "velocity": 0.5511811023622047
          },
          {
            "duration": 0.1875,
            "durationTicks": 144,
            "midi": 40,
            "name": "E2",
            "ticks": 132336,
            "time": 172.3125,
            "velocity": 0.5511811023622047
          },
          {
            "duration": 0.1875,
            "durationTicks": 144,
            "midi": 40,
            "name": "E2",
            "ticks": 132624,
            "time": 172.6875,
            "velocity": 0.5511811023622047
          },
          {
            "duration": 0.1875,
            "durationTicks": 144,
            "midi": 40,
            "name": "E2",
            "ticks": 132768,
            "time": 172.875,
            "velocity": 0.5511811023622047
          },
          {
            "duration": 0.1875,
            "durationTicks": 144,
            "midi": 40,
            "name": "E2",
            "ticks": 132912,
            "time": 173.0625,
            "velocity": 0.5511811023622047
          },
          {
            "duration": 0.1875,
            "durationTicks": 144,
            "midi": 36,
            "name": "C2",
            "ticks": 134208,
            "time": 174.75,
            "velocity": 0.5511811023622047
          },
          {
            "duration": 0.1875,
            "durationTicks": 144,
            "midi": 36,
            "name": "C2",
            "ticks": 134496,
            "time": 175.125,
            "velocity": 0.5511811023622047
          },
          {
            "duration": 0.1875,
            "durationTicks": 144,
            "midi": 36,
            "name": "C2",
            "ticks": 134640,
            "time": 175.3125,
            "velocity": 0.5511811023622047
          },
          {
            "duration": 0.1875,
            "durationTicks": 144,
            "midi": 36,
            "name": "C2",
            "ticks": 134928,
            "time": 175.6875,
            "velocity": 0.5511811023622047
          },
          {
            "duration": 0.1875,
            "durationTicks": 144,
            "midi": 36,
            "name": "C2",
            "ticks": 135072,
            "time": 175.875,
            "velocity": 0.5511811023622047
          },
          {
            "duration": 0.1875,
            "durationTicks": 144,
            "midi": 36,
            "name": "C2",
            "ticks": 135216,
            "time": 176.0625,
            "velocity": 0.5511811023622047
          },
          {
            "duration": 0.1875,
            "durationTicks": 144,
            "midi": 36,
            "name": "C2",
            "ticks": 135360,
            "time": 176.25,
            "velocity": 0.5511811023622047
          },
          {
            "duration": 0.1875,
            "durationTicks": 144,
            "midi": 36,
            "name": "C2",
            "ticks": 135648,
            "time": 176.625,
            "velocity": 0.5511811023622047
          },
          {
            "duration": 0.1875,
            "durationTicks": 144,
            "midi": 36,
            "name": "C2",
            "ticks": 135792,
            "time": 176.8125,
            "velocity": 0.5511811023622047
          },
          {
            "duration": 0.1875,
            "durationTicks": 144,
            "midi": 36,
            "name": "C2",
            "ticks": 136080,
            "time": 177.1875,
            "velocity": 0.5511811023622047
          },
          {
            "duration": 0.1875,
            "durationTicks": 144,
            "midi": 36,
            "name": "C2",
            "ticks": 136224,
            "time": 177.375,
            "velocity": 0.5511811023622047
          },
          {
            "duration": 0.1875,
            "durationTicks": 144,
            "midi": 36,
            "name": "C2",
            "ticks": 136368,
            "time": 177.5625,
            "velocity": 0.5511811023622047
          },
          {
            "duration": 0.1875,
            "durationTicks": 144,
            "midi": 38,
            "name": "D2",
            "ticks": 136512,
            "time": 177.75,
            "velocity": 0.5511811023622047
          },
          {
            "duration": 0.1875,
            "durationTicks": 144,
            "midi": 45,
            "name": "A2",
            "ticks": 136800,
            "time": 178.125,
            "velocity": 0.5511811023622047
          },
          {
            "duration": 0.1875,
            "durationTicks": 144,
            "midi": 40,
            "name": "E2",
            "ticks": 137088,
            "time": 178.5,
            "velocity": 0.5511811023622047
          },
          {
            "duration": 0.1875,
            "durationTicks": 144,
            "midi": 40,
            "name": "E2",
            "ticks": 137376,
            "time": 178.875,
            "velocity": 0.5511811023622047
          },
          {
            "duration": 0.1875,
            "durationTicks": 144,
            "midi": 40,
            "name": "E2",
            "ticks": 137520,
            "time": 179.0625,
            "velocity": 0.5511811023622047
          },
          {
            "duration": 0.1875,
            "durationTicks": 144,
            "midi": 40,
            "name": "E2",
            "ticks": 137808,
            "time": 179.4375,
            "velocity": 0.5511811023622047
          },
          {
            "duration": 0.1875,
            "durationTicks": 144,
            "midi": 40,
            "name": "E2",
            "ticks": 137952,
            "time": 179.625,
            "velocity": 0.5511811023622047
          },
          {
            "duration": 0.1875,
            "durationTicks": 144,
            "midi": 40,
            "name": "E2",
            "ticks": 138096,
            "time": 179.8125,
            "velocity": 0.5511811023622047
          },
          {
            "duration": 0.1875,
            "durationTicks": 144,
            "midi": 40,
            "name": "E2",
            "ticks": 138240,
            "time": 180,
            "velocity": 0.5511811023622047
          },
          {
            "duration": 0.1875,
            "durationTicks": 144,
            "midi": 40,
            "name": "E2",
            "ticks": 138528,
            "time": 180.375,
            "velocity": 0.5511811023622047
          },
          {
            "duration": 0.1875,
            "durationTicks": 144,
            "midi": 40,
            "name": "E2",
            "ticks": 138672,
            "time": 180.5625,
            "velocity": 0.5511811023622047
          },
          {
            "duration": 0.1875,
            "durationTicks": 144,
            "midi": 40,
            "name": "E2",
            "ticks": 138960,
            "time": 180.9375,
            "velocity": 0.5511811023622047
          },
          {
            "duration": 0.1875,
            "durationTicks": 144,
            "midi": 40,
            "name": "E2",
            "ticks": 139104,
            "time": 181.125,
            "velocity": 0.5511811023622047
          },
          {
            "duration": 0.1875,
            "durationTicks": 144,
            "midi": 40,
            "name": "E2",
            "ticks": 139248,
            "time": 181.3125,
            "velocity": 0.5511811023622047
          },
          {
            "duration": 0.1875,
            "durationTicks": 144,
            "midi": 36,
            "name": "C2",
            "ticks": 140544,
            "time": 183,
            "velocity": 0.5511811023622047
          },
          {
            "duration": 0.1875,
            "durationTicks": 144,
            "midi": 36,
            "name": "C2",
            "ticks": 140832,
            "time": 183.375,
            "velocity": 0.5511811023622047
          },
          {
            "duration": 0.1875,
            "durationTicks": 144,
            "midi": 36,
            "name": "C2",
            "ticks": 140976,
            "time": 183.5625,
            "velocity": 0.5511811023622047
          },
          {
            "duration": 0.1875,
            "durationTicks": 144,
            "midi": 36,
            "name": "C2",
            "ticks": 141264,
            "time": 183.9375,
            "velocity": 0.5511811023622047
          },
          {
            "duration": 0.1875,
            "durationTicks": 144,
            "midi": 36,
            "name": "C2",
            "ticks": 141408,
            "time": 184.125,
            "velocity": 0.5511811023622047
          },
          {
            "duration": 0.1875,
            "durationTicks": 144,
            "midi": 36,
            "name": "C2",
            "ticks": 141552,
            "time": 184.3125,
            "velocity": 0.5511811023622047
          },
          {
            "duration": 0.1875,
            "durationTicks": 144,
            "midi": 36,
            "name": "C2",
            "ticks": 141696,
            "time": 184.5,
            "velocity": 0.5511811023622047
          },
          {
            "duration": 0.1875,
            "durationTicks": 144,
            "midi": 36,
            "name": "C2",
            "ticks": 141984,
            "time": 184.875,
            "velocity": 0.5511811023622047
          },
          {
            "duration": 0.1875,
            "durationTicks": 144,
            "midi": 36,
            "name": "C2",
            "ticks": 142128,
            "time": 185.0625,
            "velocity": 0.5511811023622047
          },
          {
            "duration": 0.1875,
            "durationTicks": 144,
            "midi": 36,
            "name": "C2",
            "ticks": 142416,
            "time": 185.4375,
            "velocity": 0.5511811023622047
          },
          {
            "duration": 0.1875,
            "durationTicks": 144,
            "midi": 36,
            "name": "C2",
            "ticks": 142560,
            "time": 185.625,
            "velocity": 0.5511811023622047
          },
          {
            "duration": 0.1875,
            "durationTicks": 144,
            "midi": 36,
            "name": "C2",
            "ticks": 142704,
            "time": 185.8125,
            "velocity": 0.5511811023622047
          },
          {
            "duration": 0.1875,
            "durationTicks": 144,
            "midi": 38,
            "name": "D2",
            "ticks": 142848,
            "time": 186,
            "velocity": 0.5511811023622047
          },
          {
            "duration": 0.1875,
            "durationTicks": 144,
            "midi": 45,
            "name": "A2",
            "ticks": 143136,
            "time": 186.375,
            "velocity": 0.5511811023622047
          },
          {
            "duration": 0.1875,
            "durationTicks": 144,
            "midi": 40,
            "name": "E2",
            "ticks": 143424,
            "time": 186.75,
            "velocity": 0.5511811023622047
          },
          {
            "duration": 0.1875,
            "durationTicks": 144,
            "midi": 40,
            "name": "E2",
            "ticks": 143712,
            "time": 187.125,
            "velocity": 0.5511811023622047
          },
          {
            "duration": 0.1875,
            "durationTicks": 144,
            "midi": 40,
            "name": "E2",
            "ticks": 143856,
            "time": 187.3125,
            "velocity": 0.5511811023622047
          },
          {
            "duration": 0.1875,
            "durationTicks": 144,
            "midi": 40,
            "name": "E2",
            "ticks": 144144,
            "time": 187.6875,
            "velocity": 0.5511811023622047
          },
          {
            "duration": 0.1875,
            "durationTicks": 144,
            "midi": 40,
            "name": "E2",
            "ticks": 144288,
            "time": 187.875,
            "velocity": 0.5511811023622047
          },
          {
            "duration": 0.1875,
            "durationTicks": 144,
            "midi": 40,
            "name": "E2",
            "ticks": 144432,
            "time": 188.0625,
            "velocity": 0.5511811023622047
          },
          {
            "duration": 0.1875,
            "durationTicks": 144,
            "midi": 40,
            "name": "E2",
            "ticks": 144576,
            "time": 188.25,
            "velocity": 0.5511811023622047
          },
          {
            "duration": 0.1875,
            "durationTicks": 144,
            "midi": 40,
            "name": "E2",
            "ticks": 144864,
            "time": 188.625,
            "velocity": 0.5511811023622047
          },
          {
            "duration": 0.1875,
            "durationTicks": 144,
            "midi": 40,
            "name": "E2",
            "ticks": 145008,
            "time": 188.8125,
            "velocity": 0.5511811023622047
          },
          {
            "duration": 0.1875,
            "durationTicks": 144,
            "midi": 40,
            "name": "E2",
            "ticks": 145296,
            "time": 189.1875,
            "velocity": 0.5511811023622047
          },
          {
            "duration": 0.1875,
            "durationTicks": 144,
            "midi": 40,
            "name": "E2",
            "ticks": 145440,
            "time": 189.375,
            "velocity": 0.5511811023622047
          },
          {
            "duration": 0.1875,
            "durationTicks": 144,
            "midi": 40,
            "name": "E2",
            "ticks": 145584,
            "time": 189.5625,
            "velocity": 0.5511811023622047
          },
          {
            "duration": 0.1875,
            "durationTicks": 144,
            "midi": 36,
            "name": "C2",
            "ticks": 146880,
            "time": 191.25,
            "velocity": 0.5511811023622047
          },
          {
            "duration": 0.1875,
            "durationTicks": 144,
            "midi": 36,
            "name": "C2",
            "ticks": 147168,
            "time": 191.625,
            "velocity": 0.5511811023622047
          },
          {
            "duration": 0.1875,
            "durationTicks": 144,
            "midi": 36,
            "name": "C2",
            "ticks": 147312,
            "time": 191.8125,
            "velocity": 0.5511811023622047
          },
          {
            "duration": 0.1875,
            "durationTicks": 144,
            "midi": 36,
            "name": "C2",
            "ticks": 147600,
            "time": 192.1875,
            "velocity": 0.5511811023622047
          },
          {
            "duration": 0.1875,
            "durationTicks": 144,
            "midi": 36,
            "name": "C2",
            "ticks": 147744,
            "time": 192.375,
            "velocity": 0.5511811023622047
          },
          {
            "duration": 0.1875,
            "durationTicks": 144,
            "midi": 36,
            "name": "C2",
            "ticks": 147888,
            "time": 192.5625,
            "velocity": 0.5511811023622047
          },
          {
            "duration": 0.1875,
            "durationTicks": 144,
            "midi": 36,
            "name": "C2",
            "ticks": 148032,
            "time": 192.75,
            "velocity": 0.5511811023622047
          },
          {
            "duration": 0.1875,
            "durationTicks": 144,
            "midi": 36,
            "name": "C2",
            "ticks": 148320,
            "time": 193.125,
            "velocity": 0.5511811023622047
          },
          {
            "duration": 0.1875,
            "durationTicks": 144,
            "midi": 36,
            "name": "C2",
            "ticks": 148464,
            "time": 193.3125,
            "velocity": 0.5511811023622047
          },
          {
            "duration": 0.1875,
            "durationTicks": 144,
            "midi": 36,
            "name": "C2",
            "ticks": 148752,
            "time": 193.6875,
            "velocity": 0.5511811023622047
          },
          {
            "duration": 0.1875,
            "durationTicks": 144,
            "midi": 36,
            "name": "C2",
            "ticks": 148896,
            "time": 193.875,
            "velocity": 0.5511811023622047
          },
          {
            "duration": 0.1875,
            "durationTicks": 144,
            "midi": 36,
            "name": "C2",
            "ticks": 149040,
            "time": 194.0625,
            "velocity": 0.5511811023622047
          },
          {
            "duration": 0.1875,
            "durationTicks": 144,
            "midi": 38,
            "name": "D2",
            "ticks": 149184,
            "time": 194.25,
            "velocity": 0.5511811023622047
          },
          {
            "duration": 0.1875,
            "durationTicks": 144,
            "midi": 45,
            "name": "A2",
            "ticks": 149472,
            "time": 194.625,
            "velocity": 0.5511811023622047
          },
          {
            "duration": 0.1875,
            "durationTicks": 144,
            "midi": 40,
            "name": "E2",
            "ticks": 149760,
            "time": 195,
            "velocity": 0.5511811023622047
          },
          {
            "duration": 0.1875,
            "durationTicks": 144,
            "midi": 40,
            "name": "E2",
            "ticks": 150048,
            "time": 195.375,
            "velocity": 0.5511811023622047
          },
          {
            "duration": 0.1875,
            "durationTicks": 144,
            "midi": 40,
            "name": "E2",
            "ticks": 150192,
            "time": 195.5625,
            "velocity": 0.5511811023622047
          },
          {
            "duration": 0.1875,
            "durationTicks": 144,
            "midi": 40,
            "name": "E2",
            "ticks": 150480,
            "time": 195.9375,
            "velocity": 0.5511811023622047
          },
          {
            "duration": 0.1875,
            "durationTicks": 144,
            "midi": 40,
            "name": "E2",
            "ticks": 150624,
            "time": 196.125,
            "velocity": 0.5511811023622047
          },
          {
            "duration": 0.1875,
            "durationTicks": 144,
            "midi": 40,
            "name": "E2",
            "ticks": 150768,
            "time": 196.3125,
            "velocity": 0.5511811023622047
          },
          {
            "duration": 0.1875,
            "durationTicks": 144,
            "midi": 40,
            "name": "E2",
            "ticks": 150912,
            "time": 196.5,
            "velocity": 0.5511811023622047
          },
          {
            "duration": 0.1875,
            "durationTicks": 144,
            "midi": 40,
            "name": "E2",
            "ticks": 151200,
            "time": 196.875,
            "velocity": 0.5511811023622047
          },
          {
            "duration": 0.1875,
            "durationTicks": 144,
            "midi": 40,
            "name": "E2",
            "ticks": 151344,
            "time": 197.0625,
            "velocity": 0.5511811023622047
          },
          {
            "duration": 0.1875,
            "durationTicks": 144,
            "midi": 40,
            "name": "E2",
            "ticks": 151632,
            "time": 197.4375,
            "velocity": 0.5511811023622047
          },
          {
            "duration": 0.1875,
            "durationTicks": 144,
            "midi": 40,
            "name": "E2",
            "ticks": 151776,
            "time": 197.625,
            "velocity": 0.5511811023622047
          },
          {
            "duration": 0.1875,
            "durationTicks": 144,
            "midi": 40,
            "name": "E2",
            "ticks": 151920,
            "time": 197.8125,
            "velocity": 0.5511811023622047
          },
          {
            "duration": 0.5625,
            "durationTicks": 432,
            "midi": 55,
            "name": "G3",
            "ticks": 152064,
            "time": 198,
            "velocity": 0.5511811023622047
          },
          {
            "duration": 0.1875,
            "durationTicks": 144,
            "midi": 67,
            "name": "G4",
            "ticks": 152064,
            "time": 198,
            "velocity": 0.5511811023622047
          },
          {
            "duration": 0.1875,
            "durationTicks": 144,
            "midi": 47,
            "name": "B2",
            "ticks": 152064,
            "time": 198,
            "velocity": 0.5511811023622047
          },
          {
            "duration": 0.1875,
            "durationTicks": 144,
            "midi": 43,
            "name": "G2",
            "ticks": 152064,
            "time": 198,
            "velocity": 0.5511811023622047
          },
          {
            "duration": 0.5625,
            "durationTicks": 432,
            "midi": 50,
            "name": "D3",
            "ticks": 152064,
            "time": 198,
            "velocity": 0.5511811023622047
          },
          {
            "duration": 0.5625,
            "durationTicks": 432,
            "midi": 59,
            "name": "B3",
            "ticks": 152064,
            "time": 198,
            "velocity": 0.5511811023622047
          },
          {
            "duration": 0.1875,
            "durationTicks": 144,
            "midi": 62,
            "name": "D4",
            "ticks": 152064,
            "time": 198,
            "velocity": 0.5511811023622047
          },
          {
            "duration": 0.375,
            "durationTicks": 288,
            "midi": 50,
            "name": "D3",
            "ticks": 152352,
            "time": 198.375,
            "velocity": 0.5511811023622047
          },
          {
            "duration": 0.1875,
            "durationTicks": 144,
            "midi": 67,
            "name": "G4",
            "ticks": 152352,
            "time": 198.375,
            "velocity": 0.5511811023622047
          },
          {
            "duration": 0.1875,
            "durationTicks": 144,
            "midi": 43,
            "name": "G2",
            "ticks": 152352,
            "time": 198.375,
            "velocity": 0.5511811023622047
          },
          {
            "duration": 0.375,
            "durationTicks": 288,
            "midi": 55,
            "name": "G3",
            "ticks": 152352,
            "time": 198.375,
            "velocity": 0.5511811023622047
          },
          {
            "duration": 0.375,
            "durationTicks": 288,
            "midi": 59,
            "name": "B3",
            "ticks": 152352,
            "time": 198.375,
            "velocity": 0.5511811023622047
          },
          {
            "duration": 0.1875,
            "durationTicks": 144,
            "midi": 62,
            "name": "D4",
            "ticks": 152352,
            "time": 198.375,
            "velocity": 0.5511811023622047
          },
          {
            "duration": 0.1875,
            "durationTicks": 144,
            "midi": 47,
            "name": "B2",
            "ticks": 152352,
            "time": 198.375,
            "velocity": 0.5511811023622047
          },
          {
            "duration": 0.375,
            "durationTicks": 288,
            "midi": 59,
            "name": "B3",
            "ticks": 152496,
            "time": 198.5625,
            "velocity": 0.5511811023622047
          },
          {
            "duration": 0.1875,
            "durationTicks": 144,
            "midi": 47,
            "name": "B2",
            "ticks": 152496,
            "time": 198.5625,
            "velocity": 0.5511811023622047
          },
          {
            "duration": 0.375,
            "durationTicks": 288,
            "midi": 50,
            "name": "D3",
            "ticks": 152496,
            "time": 198.5625,
            "velocity": 0.5511811023622047
          },
          {
            "duration": 0.1875,
            "durationTicks": 144,
            "midi": 43,
            "name": "G2",
            "ticks": 152496,
            "time": 198.5625,
            "velocity": 0.5511811023622047
          },
          {
            "duration": 0.1875,
            "durationTicks": 144,
            "midi": 67,
            "name": "G4",
            "ticks": 152496,
            "time": 198.5625,
            "velocity": 0.5511811023622047
          },
          {
            "duration": 0.375,
            "durationTicks": 288,
            "midi": 55,
            "name": "G3",
            "ticks": 152496,
            "time": 198.5625,
            "velocity": 0.5511811023622047
          },
          {
            "duration": 0.1875,
            "durationTicks": 144,
            "midi": 62,
            "name": "D4",
            "ticks": 152496,
            "time": 198.5625,
            "velocity": 0.5511811023622047
          },
          {
            "duration": 0.1875,
            "durationTicks": 144,
            "midi": 47,
            "name": "B2",
            "ticks": 152784,
            "time": 198.9375,
            "velocity": 0.5511811023622047
          },
          {
            "duration": 0.1875,
            "durationTicks": 144,
            "midi": 43,
            "name": "G2",
            "ticks": 152784,
            "time": 198.9375,
            "velocity": 0.5511811023622047
          },
          {
            "duration": 0.1875,
            "durationTicks": 144,
            "midi": 67,
            "name": "G4",
            "ticks": 152784,
            "time": 198.9375,
            "velocity": 0.5511811023622047
          },
          {
            "duration": 0.1875,
            "durationTicks": 144,
            "midi": 55,
            "name": "G3",
            "ticks": 152784,
            "time": 198.9375,
            "velocity": 0.5511811023622047
          },
          {
            "duration": 0.1875,
            "durationTicks": 144,
            "midi": 59,
            "name": "B3",
            "ticks": 152784,
            "time": 198.9375,
            "velocity": 0.5511811023622047
          },
          {
            "duration": 0.1875,
            "durationTicks": 144,
            "midi": 62,
            "name": "D4",
            "ticks": 152784,
            "time": 198.9375,
            "velocity": 0.5511811023622047
          },
          {
            "duration": 0.1875,
            "durationTicks": 144,
            "midi": 50,
            "name": "D3",
            "ticks": 152784,
            "time": 198.9375,
            "velocity": 0.5511811023622047
          },
          {
            "duration": 0.1875,
            "durationTicks": 144,
            "midi": 47,
            "name": "B2",
            "ticks": 152928,
            "time": 199.125,
            "velocity": 0.5511811023622047
          },
          {
            "duration": 0.1875,
            "durationTicks": 144,
            "midi": 62,
            "name": "D4",
            "ticks": 152928,
            "time": 199.125,
            "velocity": 0.5511811023622047
          },
          {
            "duration": 0.375,
            "durationTicks": 288,
            "midi": 50,
            "name": "D3",
            "ticks": 152928,
            "time": 199.125,
            "velocity": 0.5511811023622047
          },
          {
            "duration": 0.1875,
            "durationTicks": 144,
            "midi": 43,
            "name": "G2",
            "ticks": 152928,
            "time": 199.125,
            "velocity": 0.5511811023622047
          },
          {
            "duration": 0.375,
            "durationTicks": 288,
            "midi": 59,
            "name": "B3",
            "ticks": 152928,
            "time": 199.125,
            "velocity": 0.5511811023622047
          },
          {
            "duration": 0.375,
            "durationTicks": 288,
            "midi": 55,
            "name": "G3",
            "ticks": 152928,
            "time": 199.125,
            "velocity": 0.5511811023622047
          },
          {
            "duration": 0.1875,
            "durationTicks": 144,
            "midi": 67,
            "name": "G4",
            "ticks": 152928,
            "time": 199.125,
            "velocity": 0.5511811023622047
          },
          {
            "duration": 0.1875,
            "durationTicks": 144,
            "midi": 67,
            "name": "G4",
            "ticks": 153072,
            "time": 199.3125,
            "velocity": 0.5511811023622047
          },
          {
            "duration": 0.1875,
            "durationTicks": 144,
            "midi": 62,
            "name": "D4",
            "ticks": 153072,
            "time": 199.3125,
            "velocity": 0.5511811023622047
          },
          {
            "duration": 0.1875,
            "durationTicks": 144,
            "midi": 43,
            "name": "G2",
            "ticks": 153072,
            "time": 199.3125,
            "velocity": 0.5511811023622047
          },
          {
            "duration": 0.1875,
            "durationTicks": 144,
            "midi": 59,
            "name": "B3",
            "ticks": 153072,
            "time": 199.3125,
            "velocity": 0.5511811023622047
          },
          {
            "duration": 0.1875,
            "durationTicks": 144,
            "midi": 47,
            "name": "B2",
            "ticks": 153072,
            "time": 199.3125,
            "velocity": 0.5511811023622047
          },
          {
            "duration": 0.1875,
            "durationTicks": 144,
            "midi": 50,
            "name": "D3",
            "ticks": 153072,
            "time": 199.3125,
            "velocity": 0.5511811023622047
          },
          {
            "duration": 0.1875,
            "durationTicks": 144,
            "midi": 55,
            "name": "G3",
            "ticks": 153072,
            "time": 199.3125,
            "velocity": 0.5511811023622047
          },
          {
            "duration": 0.5625,
            "durationTicks": 432,
            "midi": 52,
            "name": "E3",
            "ticks": 153216,
            "time": 199.5,
            "velocity": 0.5511811023622047
          },
          {
            "duration": 0.1875,
            "durationTicks": 144,
            "midi": 43,
            "name": "G2",
            "ticks": 153216,
            "time": 199.5,
            "velocity": 0.5511811023622047
          },
          {
            "duration": 0.1875,
            "durationTicks": 144,
            "midi": 60,
            "name": "C4",
            "ticks": 153216,
            "time": 199.5,
            "velocity": 0.5511811023622047
          },
          {
            "duration": 0.1875,
            "durationTicks": 144,
            "midi": 40,
            "name": "E2",
            "ticks": 153216,
            "time": 199.5,
            "velocity": 0.5511811023622047
          },
          {
            "duration": 0.1875,
            "durationTicks": 144,
            "midi": 36,
            "name": "C2",
            "ticks": 153216,
            "time": 199.5,
            "velocity": 0.5511811023622047
          },
          {
            "duration": 0.5625,
            "durationTicks": 432,
            "midi": 48,
            "name": "C3",
            "ticks": 153216,
            "time": 199.5,
            "velocity": 0.5511811023622047
          },
          {
            "duration": 0.1875,
            "durationTicks": 144,
            "midi": 55,
            "name": "G3",
            "ticks": 153216,
            "time": 199.5,
            "velocity": 0.5511811023622047
          },
          {
            "duration": 0.1875,
            "durationTicks": 144,
            "midi": 36,
            "name": "C2",
            "ticks": 153504,
            "time": 199.875,
            "velocity": 0.5511811023622047
          },
          {
            "duration": 0.375,
            "durationTicks": 288,
            "midi": 52,
            "name": "E3",
            "ticks": 153504,
            "time": 199.875,
            "velocity": 0.5511811023622047
          },
          {
            "duration": 0.1875,
            "durationTicks": 144,
            "midi": 55,
            "name": "G3",
            "ticks": 153504,
            "time": 199.875,
            "velocity": 0.5511811023622047
          },
          {
            "duration": 0.375,
            "durationTicks": 288,
            "midi": 48,
            "name": "C3",
            "ticks": 153504,
            "time": 199.875,
            "velocity": 0.5511811023622047
          },
          {
            "duration": 0.1875,
            "durationTicks": 144,
            "midi": 43,
            "name": "G2",
            "ticks": 153504,
            "time": 199.875,
            "velocity": 0.5511811023622047
          },
          {
            "duration": 0.1875,
            "durationTicks": 144,
            "midi": 40,
            "name": "E2",
            "ticks": 153504,
            "time": 199.875,
            "velocity": 0.5511811023622047
          },
          {
            "duration": 0.1875,
            "durationTicks": 144,
            "midi": 60,
            "name": "C4",
            "ticks": 153504,
            "time": 199.875,
            "velocity": 0.5511811023622047
          },
          {
            "duration": 0.1875,
            "durationTicks": 144,
            "midi": 40,
            "name": "E2",
            "ticks": 153648,
            "time": 200.0625,
            "velocity": 0.5511811023622047
          },
          {
            "duration": 0.1875,
            "durationTicks": 144,
            "midi": 55,
            "name": "G3",
            "ticks": 153648,
            "time": 200.0625,
            "velocity": 0.5511811023622047
          },
          {
            "duration": 0.5625,
            "durationTicks": 432,
            "midi": 52,
            "name": "E3",
            "ticks": 153648,
            "time": 200.0625,
            "velocity": 0.5511811023622047
          },
          {
            "duration": 0.1875,
            "durationTicks": 144,
            "midi": 36,
            "name": "C2",
            "ticks": 153648,
            "time": 200.0625,
            "velocity": 0.5511811023622047
          },
          {
            "duration": 0.1875,
            "durationTicks": 144,
            "midi": 60,
            "name": "C4",
            "ticks": 153648,
            "time": 200.0625,
            "velocity": 0.5511811023622047
          },
          {
            "duration": 0.1875,
            "durationTicks": 144,
            "midi": 43,
            "name": "G2",
            "ticks": 153648,
            "time": 200.0625,
            "velocity": 0.5511811023622047
          },
          {
            "duration": 0.5625,
            "durationTicks": 432,
            "midi": 48,
            "name": "C3",
            "ticks": 153648,
            "time": 200.0625,
            "velocity": 0.5511811023622047
          },
          {
            "duration": 0.1875,
            "durationTicks": 144,
            "midi": 43,
            "name": "G2",
            "ticks": 153936,
            "time": 200.4375,
            "velocity": 0.5511811023622047
          },
          {
            "duration": 0.1875,
            "durationTicks": 144,
            "midi": 60,
            "name": "C4",
            "ticks": 153936,
            "time": 200.4375,
            "velocity": 0.5511811023622047
          },
          {
            "duration": 0.1875,
            "durationTicks": 144,
            "midi": 40,
            "name": "E2",
            "ticks": 153936,
            "time": 200.4375,
            "velocity": 0.5511811023622047
          },
          {
            "duration": 0.1875,
            "durationTicks": 144,
            "midi": 55,
            "name": "G3",
            "ticks": 153936,
            "time": 200.4375,
            "velocity": 0.5511811023622047
          },
          {
            "duration": 0.1875,
            "durationTicks": 144,
            "midi": 36,
            "name": "C2",
            "ticks": 153936,
            "time": 200.4375,
            "velocity": 0.5511811023622047
          },
          {
            "duration": 0.375,
            "durationTicks": 288,
            "midi": 52,
            "name": "E3",
            "ticks": 153936,
            "time": 200.4375,
            "velocity": 0.5511811023622047
          },
          {
            "duration": 0.375,
            "durationTicks": 288,
            "midi": 48,
            "name": "C3",
            "ticks": 153936,
            "time": 200.4375,
            "velocity": 0.5511811023622047
          },
          {
            "duration": 0.375,
            "durationTicks": 288,
            "midi": 52,
            "name": "E3",
            "ticks": 154080,
            "time": 200.625,
            "velocity": 0.5511811023622047
          },
          {
            "duration": 0.375,
            "durationTicks": 288,
            "midi": 48,
            "name": "C3",
            "ticks": 154080,
            "time": 200.625,
            "velocity": 0.5511811023622047
          },
          {
            "duration": 0.1875,
            "durationTicks": 144,
            "midi": 60,
            "name": "C4",
            "ticks": 154080,
            "time": 200.625,
            "velocity": 0.5511811023622047
          },
          {
            "duration": 0.1875,
            "durationTicks": 144,
            "midi": 55,
            "name": "G3",
            "ticks": 154080,
            "time": 200.625,
            "velocity": 0.5511811023622047
          },
          {
            "duration": 0.1875,
            "durationTicks": 144,
            "midi": 36,
            "name": "C2",
            "ticks": 154080,
            "time": 200.625,
            "velocity": 0.5511811023622047
          },
          {
            "duration": 0.1875,
            "durationTicks": 144,
            "midi": 40,
            "name": "E2",
            "ticks": 154080,
            "time": 200.625,
            "velocity": 0.5511811023622047
          },
          {
            "duration": 0.1875,
            "durationTicks": 144,
            "midi": 43,
            "name": "G2",
            "ticks": 154080,
            "time": 200.625,
            "velocity": 0.5511811023622047
          },
          {
            "duration": 0.1875,
            "durationTicks": 144,
            "midi": 55,
            "name": "G3",
            "ticks": 154224,
            "time": 200.8125,
            "velocity": 0.5511811023622047
          },
          {
            "duration": 0.1875,
            "durationTicks": 144,
            "midi": 36,
            "name": "C2",
            "ticks": 154224,
            "time": 200.8125,
            "velocity": 0.5511811023622047
          },
          {
            "duration": 0.375,
            "durationTicks": 288,
            "midi": 48,
            "name": "C3",
            "ticks": 154224,
            "time": 200.8125,
            "velocity": 0.5511811023622047
          },
          {
            "duration": 0.1875,
            "durationTicks": 144,
            "midi": 43,
            "name": "G2",
            "ticks": 154224,
            "time": 200.8125,
            "velocity": 0.5511811023622047
          },
          {
            "duration": 0.1875,
            "durationTicks": 144,
            "midi": 60,
            "name": "C4",
            "ticks": 154224,
            "time": 200.8125,
            "velocity": 0.5511811023622047
          },
          {
            "duration": 0.1875,
            "durationTicks": 144,
            "midi": 40,
            "name": "E2",
            "ticks": 154224,
            "time": 200.8125,
            "velocity": 0.5511811023622047
          },
          {
            "duration": 0.375,
            "durationTicks": 288,
            "midi": 52,
            "name": "E3",
            "ticks": 154224,
            "time": 200.8125,
            "velocity": 0.5511811023622047
          },
          {
            "duration": 0.1875,
            "durationTicks": 144,
            "midi": 36,
            "name": "C2",
            "ticks": 154368,
            "time": 201,
            "velocity": 0.5511811023622047
          },
          {
            "duration": 0.1875,
            "durationTicks": 144,
            "midi": 40,
            "name": "E2",
            "ticks": 154368,
            "time": 201,
            "velocity": 0.5511811023622047
          },
          {
            "duration": 0.5625,
            "durationTicks": 432,
            "midi": 52,
            "name": "E3",
            "ticks": 154368,
            "time": 201,
            "velocity": 0.5511811023622047
          },
          {
            "duration": 0.1875,
            "durationTicks": 144,
            "midi": 43,
            "name": "G2",
            "ticks": 154368,
            "time": 201,
            "velocity": 0.5511811023622047
          },
          {
            "duration": 0.5625,
            "durationTicks": 432,
            "midi": 48,
            "name": "C3",
            "ticks": 154368,
            "time": 201,
            "velocity": 0.5511811023622047
          },
          {
            "duration": 0.1875,
            "durationTicks": 144,
            "midi": 55,
            "name": "G3",
            "ticks": 154368,
            "time": 201,
            "velocity": 0.5511811023622047
          },
          {
            "duration": 0.1875,
            "durationTicks": 144,
            "midi": 60,
            "name": "C4",
            "ticks": 154368,
            "time": 201,
            "velocity": 0.5511811023622047
          },
          {
            "duration": 0.1875,
            "durationTicks": 144,
            "midi": 43,
            "name": "G2",
            "ticks": 154656,
            "time": 201.375,
            "velocity": 0.5511811023622047
          },
          {
            "duration": 0.1875,
            "durationTicks": 144,
            "midi": 60,
            "name": "C4",
            "ticks": 154656,
            "time": 201.375,
            "velocity": 0.5511811023622047
          },
          {
            "duration": 0.1875,
            "durationTicks": 144,
            "midi": 40,
            "name": "E2",
            "ticks": 154656,
            "time": 201.375,
            "velocity": 0.5511811023622047
          },
          {
            "duration": 0.25,
            "durationTicks": 192,
            "midi": 52,
            "name": "E3",
            "ticks": 154656,
            "time": 201.375,
            "velocity": 0.5511811023622047
          },
          {
            "duration": 0.1875,
            "durationTicks": 144,
            "midi": 36,
            "name": "C2",
            "ticks": 154656,
            "time": 201.375,
            "velocity": 0.5511811023622047
          },
          {
            "duration": 0.25,
            "durationTicks": 192,
            "midi": 48,
            "name": "C3",
            "ticks": 154656,
            "time": 201.375,
            "velocity": 0.5511811023622047
          },
          {
            "duration": 0.1875,
            "durationTicks": 144,
            "midi": 55,
            "name": "G3",
            "ticks": 154656,
            "time": 201.375,
            "velocity": 0.5511811023622047
          },
          {
            "duration": 0.1875,
            "durationTicks": 144,
            "midi": 55,
            "name": "G3",
            "ticks": 154800,
            "time": 201.5625,
            "velocity": 0.5511811023622047
          },
          {
            "duration": 0.1875,
            "durationTicks": 144,
            "midi": 40,
            "name": "E2",
            "ticks": 154800,
            "time": 201.5625,
            "velocity": 0.5511811023622047
          },
          {
            "duration": 0.1875,
            "durationTicks": 144,
            "midi": 43,
            "name": "G2",
            "ticks": 154800,
            "time": 201.5625,
            "velocity": 0.5511811023622047
          },
          {
            "duration": 0.1875,
            "durationTicks": 144,
            "midi": 60,
            "name": "C4",
            "ticks": 154800,
            "time": 201.5625,
            "velocity": 0.5511811023622047
          },
          {
            "duration": 0.1875,
            "durationTicks": 144,
            "midi": 36,
            "name": "C2",
            "ticks": 154800,
            "time": 201.5625,
            "velocity": 0.5511811023622047
          },
          {
            "duration": 0.1875,
            "durationTicks": 144,
            "midi": 48,
            "name": "C3",
            "ticks": 154800,
            "time": 201.5625,
            "velocity": 0.5511811023622047
          },
          {
            "duration": 0.1875,
            "durationTicks": 144,
            "midi": 52,
            "name": "E3",
            "ticks": 154800,
            "time": 201.5625,
            "velocity": 0.5511811023622047
          },
          {
            "duration": 0.1875,
            "durationTicks": 144,
            "midi": 36,
            "name": "C2",
            "ticks": 155088,
            "time": 201.9375,
            "velocity": 0.5511811023622047
          },
          {
            "duration": 0.1875,
            "durationTicks": 144,
            "midi": 40,
            "name": "E2",
            "ticks": 155088,
            "time": 201.9375,
            "velocity": 0.5511811023622047
          },
          {
            "duration": 0.1875,
            "durationTicks": 144,
            "midi": 55,
            "name": "G3",
            "ticks": 155088,
            "time": 201.9375,
            "velocity": 0.5511811023622047
          },
          {
            "duration": 0.1875,
            "durationTicks": 144,
            "midi": 48,
            "name": "C3",
            "ticks": 155088,
            "time": 201.9375,
            "velocity": 0.5511811023622047
          },
          {
            "duration": 0.1875,
            "durationTicks": 144,
            "midi": 52,
            "name": "E3",
            "ticks": 155088,
            "time": 201.9375,
            "velocity": 0.5511811023622047
          },
          {
            "duration": 0.1875,
            "durationTicks": 144,
            "midi": 60,
            "name": "C4",
            "ticks": 155088,
            "time": 201.9375,
            "velocity": 0.5511811023622047
          },
          {
            "duration": 0.1875,
            "durationTicks": 144,
            "midi": 43,
            "name": "G2",
            "ticks": 155088,
            "time": 201.9375,
            "velocity": 0.5511811023622047
          },
          {
            "duration": 0.1875,
            "durationTicks": 144,
            "midi": 52,
            "name": "E3",
            "ticks": 155232,
            "time": 202.125,
            "velocity": 0.5511811023622047
          },
          {
            "duration": 0.1875,
            "durationTicks": 144,
            "midi": 60,
            "name": "C4",
            "ticks": 155232,
            "time": 202.125,
            "velocity": 0.5511811023622047
          },
          {
            "duration": 0.1875,
            "durationTicks": 144,
            "midi": 36,
            "name": "C2",
            "ticks": 155232,
            "time": 202.125,
            "velocity": 0.5511811023622047
          },
          {
            "duration": 0.1875,
            "durationTicks": 144,
            "midi": 55,
            "name": "G3",
            "ticks": 155232,
            "time": 202.125,
            "velocity": 0.5511811023622047
          },
          {
            "duration": 0.1875,
            "durationTicks": 144,
            "midi": 40,
            "name": "E2",
            "ticks": 155232,
            "time": 202.125,
            "velocity": 0.5511811023622047
          },
          {
            "duration": 0.1875,
            "durationTicks": 144,
            "midi": 43,
            "name": "G2",
            "ticks": 155232,
            "time": 202.125,
            "velocity": 0.5511811023622047
          },
          {
            "duration": 0.1875,
            "durationTicks": 144,
            "midi": 48,
            "name": "C3",
            "ticks": 155232,
            "time": 202.125,
            "velocity": 0.5511811023622047
          },
          {
            "duration": 0.1875,
            "durationTicks": 144,
            "midi": 43,
            "name": "G2",
            "ticks": 155376,
            "time": 202.3125,
            "velocity": 0.5511811023622047
          },
          {
            "duration": 0.1875,
            "durationTicks": 144,
            "midi": 40,
            "name": "E2",
            "ticks": 155376,
            "time": 202.3125,
            "velocity": 0.5511811023622047
          },
          {
            "duration": 0.1875,
            "durationTicks": 144,
            "midi": 52,
            "name": "E3",
            "ticks": 155376,
            "time": 202.3125,
            "velocity": 0.5511811023622047
          },
          {
            "duration": 0.1875,
            "durationTicks": 144,
            "midi": 48,
            "name": "C3",
            "ticks": 155376,
            "time": 202.3125,
            "velocity": 0.5511811023622047
          },
          {
            "duration": 0.1875,
            "durationTicks": 144,
            "midi": 60,
            "name": "C4",
            "ticks": 155376,
            "time": 202.3125,
            "velocity": 0.5511811023622047
          },
          {
            "duration": 0.1875,
            "durationTicks": 144,
            "midi": 36,
            "name": "C2",
            "ticks": 155376,
            "time": 202.3125,
            "velocity": 0.5511811023622047
          },
          {
            "duration": 0.1875,
            "durationTicks": 144,
            "midi": 55,
            "name": "G3",
            "ticks": 155376,
            "time": 202.3125,
            "velocity": 0.5511811023622047
          },
          {
            "duration": 0.1875,
            "durationTicks": 144,
            "midi": 57,
            "name": "A3",
            "ticks": 155520,
            "time": 202.5,
            "velocity": 0.5511811023622047
          },
          {
            "duration": 0.1875,
            "durationTicks": 144,
            "midi": 62,
            "name": "D4",
            "ticks": 155520,
            "time": 202.5,
            "velocity": 0.5511811023622047
          },
          {
            "duration": 0.1875,
            "durationTicks": 144,
            "midi": 42,
            "name": "F#2",
            "ticks": 155520,
            "time": 202.5,
            "velocity": 0.5511811023622047
          },
          {
            "duration": 0.1875,
            "durationTicks": 144,
            "midi": 45,
            "name": "A2",
            "ticks": 155520,
            "time": 202.5,
            "velocity": 0.5511811023622047
          },
          {
            "duration": 0.1875,
            "durationTicks": 144,
            "midi": 50,
            "name": "D3",
            "ticks": 155520,
            "time": 202.5,
            "velocity": 0.5511811023622047
          },
          {
            "duration": 0.1875,
            "durationTicks": 144,
            "midi": 38,
            "name": "D2",
            "ticks": 155520,
            "time": 202.5,
            "velocity": 0.5511811023622047
          },
          {
            "duration": 0.1875,
            "durationTicks": 144,
            "midi": 54,
            "name": "F#3",
            "ticks": 155520,
            "time": 202.5,
            "velocity": 0.5511811023622047
          },
          {
            "duration": 0.1875,
            "durationTicks": 144,
            "midi": 45,
            "name": "A2",
            "ticks": 155808,
            "time": 202.875,
            "velocity": 0.5511811023622047
          },
          {
            "duration": 0.1875,
            "durationTicks": 144,
            "midi": 50,
            "name": "D3",
            "ticks": 155808,
            "time": 202.875,
            "velocity": 0.5511811023622047
          },
          {
            "duration": 0.1875,
            "durationTicks": 144,
            "midi": 38,
            "name": "D2",
            "ticks": 155808,
            "time": 202.875,
            "velocity": 0.5511811023622047
          },
          {
            "duration": 0.1875,
            "durationTicks": 144,
            "midi": 54,
            "name": "F#3",
            "ticks": 155808,
            "time": 202.875,
            "velocity": 0.5511811023622047
          },
          {
            "duration": 0.1875,
            "durationTicks": 144,
            "midi": 57,
            "name": "A3",
            "ticks": 155808,
            "time": 202.875,
            "velocity": 0.5511811023622047
          },
          {
            "duration": 0.1875,
            "durationTicks": 144,
            "midi": 62,
            "name": "D4",
            "ticks": 155808,
            "time": 202.875,
            "velocity": 0.5511811023622047
          },
          {
            "duration": 0.1875,
            "durationTicks": 144,
            "midi": 42,
            "name": "F#2",
            "ticks": 155808,
            "time": 202.875,
            "velocity": 0.5511811023622047
          },
          {
            "duration": 0.1875,
            "durationTicks": 144,
            "midi": 40,
            "name": "E2",
            "ticks": 156096,
            "time": 203.25,
            "velocity": 0.5511811023622047
          },
          {
            "duration": 0.1875,
            "durationTicks": 144,
            "midi": 47,
            "name": "B2",
            "ticks": 156096,
            "time": 203.25,
            "velocity": 0.5511811023622047
          },
          {
            "duration": 0.5625,
            "durationTicks": 432,
            "midi": 52,
            "name": "E3",
            "ticks": 156096,
            "time": 203.25,
            "velocity": 0.5511811023622047
          },
          {
            "duration": 0.1875,
            "durationTicks": 144,
            "midi": 64,
            "name": "E4",
            "ticks": 156096,
            "time": 203.25,
            "velocity": 0.5511811023622047
          },
          {
            "duration": 0.1875,
            "durationTicks": 144,
            "midi": 59,
            "name": "B3",
            "ticks": 156096,
            "time": 203.25,
            "velocity": 0.5511811023622047
          },
          {
            "duration": 0.1875,
            "durationTicks": 144,
            "midi": 56,
            "name": "G#3",
            "ticks": 156096,
            "time": 203.25,
            "velocity": 0.5511811023622047
          },
          {
            "duration": 0.1875,
            "durationTicks": 144,
            "midi": 44,
            "name": "G#2",
            "ticks": 156096,
            "time": 203.25,
            "velocity": 0.5511811023622047
          },
          {
            "duration": 0.1875,
            "durationTicks": 144,
            "midi": 40,
            "name": "E2",
            "ticks": 156384,
            "time": 203.625,
            "velocity": 0.5511811023622047
          },
          {
            "duration": 0.1875,
            "durationTicks": 144,
            "midi": 56,
            "name": "G#3",
            "ticks": 156384,
            "time": 203.625,
            "velocity": 0.5511811023622047
          },
          {
            "duration": 0.1875,
            "durationTicks": 144,
            "midi": 64,
            "name": "E4",
            "ticks": 156384,
            "time": 203.625,
            "velocity": 0.5511811023622047
          },
          {
            "duration": 0.1875,
            "durationTicks": 144,
            "midi": 44,
            "name": "G#2",
            "ticks": 156384,
            "time": 203.625,
            "velocity": 0.5511811023622047
          },
          {
            "duration": 0.1875,
            "durationTicks": 144,
            "midi": 47,
            "name": "B2",
            "ticks": 156384,
            "time": 203.625,
            "velocity": 0.5511811023622047
          },
          {
            "duration": 0.1875,
            "durationTicks": 144,
            "midi": 59,
            "name": "B3",
            "ticks": 156384,
            "time": 203.625,
            "velocity": 0.5511811023622047
          },
          {
            "duration": 0.375,
            "durationTicks": 288,
            "midi": 52,
            "name": "E3",
            "ticks": 156384,
            "time": 203.625,
            "velocity": 0.5511811023622047
          },
          {
            "duration": 0.1875,
            "durationTicks": 144,
            "midi": 56,
            "name": "G#3",
            "ticks": 156528,
            "time": 203.8125,
            "velocity": 0.5511811023622047
          },
          {
            "duration": 0.1875,
            "durationTicks": 144,
            "midi": 64,
            "name": "E4",
            "ticks": 156528,
            "time": 203.8125,
            "velocity": 0.5511811023622047
          },
          {
            "duration": 0.1875,
            "durationTicks": 144,
            "midi": 44,
            "name": "G#2",
            "ticks": 156528,
            "time": 203.8125,
            "velocity": 0.5511811023622047
          },
          {
            "duration": 0.1875,
            "durationTicks": 144,
            "midi": 47,
            "name": "B2",
            "ticks": 156528,
            "time": 203.8125,
            "velocity": 0.5511811023622047
          },
          {
            "duration": 0.1875,
            "durationTicks": 144,
            "midi": 40,
            "name": "E2",
            "ticks": 156528,
            "time": 203.8125,
            "velocity": 0.5511811023622047
          },
          {
            "duration": 0.1875,
            "durationTicks": 144,
            "midi": 59,
            "name": "B3",
            "ticks": 156528,
            "time": 203.8125,
            "velocity": 0.5511811023622047
          },
          {
            "duration": 0.5625,
            "durationTicks": 432,
            "midi": 52,
            "name": "E3",
            "ticks": 156528,
            "time": 203.8125,
            "velocity": 0.5511811023622047
          },
          {
            "duration": 0.1875,
            "durationTicks": 144,
            "midi": 64,
            "name": "E4",
            "ticks": 156816,
            "time": 204.1875,
            "velocity": 0.5511811023622047
          },
          {
            "duration": 0.1875,
            "durationTicks": 144,
            "midi": 40,
            "name": "E2",
            "ticks": 156816,
            "time": 204.1875,
            "velocity": 0.5511811023622047
          },
          {
            "duration": 0.375,
            "durationTicks": 288,
            "midi": 52,
            "name": "E3",
            "ticks": 156816,
            "time": 204.1875,
            "velocity": 0.5511811023622047
          },
          {
            "duration": 0.1875,
            "durationTicks": 144,
            "midi": 47,
            "name": "B2",
            "ticks": 156816,
            "time": 204.1875,
            "velocity": 0.5511811023622047
          },
          {
            "duration": 0.1875,
            "durationTicks": 144,
            "midi": 59,
            "name": "B3",
            "ticks": 156816,
            "time": 204.1875,
            "velocity": 0.5511811023622047
          },
          {
            "duration": 0.1875,
            "durationTicks": 144,
            "midi": 44,
            "name": "G#2",
            "ticks": 156816,
            "time": 204.1875,
            "velocity": 0.5511811023622047
          },
          {
            "duration": 0.1875,
            "durationTicks": 144,
            "midi": 56,
            "name": "G#3",
            "ticks": 156816,
            "time": 204.1875,
            "velocity": 0.5511811023622047
          },
          {
            "duration": 0.375,
            "durationTicks": 288,
            "midi": 52,
            "name": "E3",
            "ticks": 156960,
            "time": 204.375,
            "velocity": 0.5511811023622047
          },
          {
            "duration": 0.1875,
            "durationTicks": 144,
            "midi": 59,
            "name": "B3",
            "ticks": 156960,
            "time": 204.375,
            "velocity": 0.5511811023622047
          },
          {
            "duration": 0.1875,
            "durationTicks": 144,
            "midi": 56,
            "name": "G#3",
            "ticks": 156960,
            "time": 204.375,
            "velocity": 0.5511811023622047
          },
          {
            "duration": 0.1875,
            "durationTicks": 144,
            "midi": 64,
            "name": "E4",
            "ticks": 156960,
            "time": 204.375,
            "velocity": 0.5511811023622047
          },
          {
            "duration": 0.1875,
            "durationTicks": 144,
            "midi": 47,
            "name": "B2",
            "ticks": 156960,
            "time": 204.375,
            "velocity": 0.5511811023622047
          },
          {
            "duration": 0.1875,
            "durationTicks": 144,
            "midi": 40,
            "name": "E2",
            "ticks": 156960,
            "time": 204.375,
            "velocity": 0.5511811023622047
          },
          {
            "duration": 0.1875,
            "durationTicks": 144,
            "midi": 44,
            "name": "G#2",
            "ticks": 156960,
            "time": 204.375,
            "velocity": 0.5511811023622047
          },
          {
            "duration": 0.375,
            "durationTicks": 288,
            "midi": 52,
            "name": "E3",
            "ticks": 157104,
            "time": 204.5625,
            "velocity": 0.5511811023622047
          },
          {
            "duration": 0.1875,
            "durationTicks": 144,
            "midi": 56,
            "name": "G#3",
            "ticks": 157104,
            "time": 204.5625,
            "velocity": 0.5511811023622047
          },
          {
            "duration": 0.1875,
            "durationTicks": 144,
            "midi": 47,
            "name": "B2",
            "ticks": 157104,
            "time": 204.5625,
            "velocity": 0.5511811023622047
          },
          {
            "duration": 0.1875,
            "durationTicks": 144,
            "midi": 40,
            "name": "E2",
            "ticks": 157104,
            "time": 204.5625,
            "velocity": 0.5511811023622047
          },
          {
            "duration": 0.1875,
            "durationTicks": 144,
            "midi": 59,
            "name": "B3",
            "ticks": 157104,
            "time": 204.5625,
            "velocity": 0.5511811023622047
          },
          {
            "duration": 0.1875,
            "durationTicks": 144,
            "midi": 44,
            "name": "G#2",
            "ticks": 157104,
            "time": 204.5625,
            "velocity": 0.5511811023622047
          },
          {
            "duration": 0.1875,
            "durationTicks": 144,
            "midi": 64,
            "name": "E4",
            "ticks": 157104,
            "time": 204.5625,
            "velocity": 0.5511811023622047
          },
          {
            "duration": 0.1875,
            "durationTicks": 144,
            "midi": 47,
            "name": "B2",
            "ticks": 157248,
            "time": 204.75,
            "velocity": 0.5511811023622047
          },
          {
            "duration": 0.1875,
            "durationTicks": 144,
            "midi": 59,
            "name": "B3",
            "ticks": 157248,
            "time": 204.75,
            "velocity": 0.5511811023622047
          },
          {
            "duration": 0.25,
            "durationTicks": 192,
            "midi": 52,
            "name": "E3",
            "ticks": 157248,
            "time": 204.75,
            "velocity": 0.5511811023622047
          },
          {
            "duration": 0.1875,
            "durationTicks": 144,
            "midi": 44,
            "name": "G#2",
            "ticks": 157248,
            "time": 204.75,
            "velocity": 0.5511811023622047
          },
          {
            "duration": 0.1875,
            "durationTicks": 144,
            "midi": 64,
            "name": "E4",
            "ticks": 157248,
            "time": 204.75,
            "velocity": 0.5511811023622047
          },
          {
            "duration": 0.1875,
            "durationTicks": 144,
            "midi": 56,
            "name": "G#3",
            "ticks": 157248,
            "time": 204.75,
            "velocity": 0.5511811023622047
          },
          {
            "duration": 0.1875,
            "durationTicks": 144,
            "midi": 40,
            "name": "E2",
            "ticks": 157248,
            "time": 204.75,
            "velocity": 0.5511811023622047
          },
          {
            "duration": 0.1875,
            "durationTicks": 144,
            "midi": 56,
            "name": "G#3",
            "ticks": 157536,
            "time": 205.125,
            "velocity": 0.5511811023622047
          },
          {
            "duration": 0.1875,
            "durationTicks": 144,
            "midi": 47,
            "name": "B2",
            "ticks": 157536,
            "time": 205.125,
            "velocity": 0.5511811023622047
          },
          {
            "duration": 0.1875,
            "durationTicks": 144,
            "midi": 40,
            "name": "E2",
            "ticks": 157536,
            "time": 205.125,
            "velocity": 0.5511811023622047
          },
          {
            "duration": 0.1875,
            "durationTicks": 144,
            "midi": 44,
            "name": "G#2",
            "ticks": 157536,
            "time": 205.125,
            "velocity": 0.5511811023622047
          },
          {
            "duration": 0.1875,
            "durationTicks": 144,
            "midi": 59,
            "name": "B3",
            "ticks": 157536,
            "time": 205.125,
            "velocity": 0.5511811023622047
          },
          {
            "duration": 0.1875,
            "durationTicks": 144,
            "midi": 52,
            "name": "E3",
            "ticks": 157536,
            "time": 205.125,
            "velocity": 0.5511811023622047
          },
          {
            "duration": 0.1875,
            "durationTicks": 144,
            "midi": 64,
            "name": "E4",
            "ticks": 157536,
            "time": 205.125,
            "velocity": 0.5511811023622047
          },
          {
            "duration": 0.1875,
            "durationTicks": 144,
            "midi": 64,
            "name": "E4",
            "ticks": 157680,
            "time": 205.3125,
            "velocity": 0.5511811023622047
          },
          {
            "duration": 0.1875,
            "durationTicks": 144,
            "midi": 56,
            "name": "G#3",
            "ticks": 157680,
            "time": 205.3125,
            "velocity": 0.5511811023622047
          },
          {
            "duration": 0.1875,
            "durationTicks": 144,
            "midi": 40,
            "name": "E2",
            "ticks": 157680,
            "time": 205.3125,
            "velocity": 0.5511811023622047
          },
          {
            "duration": 0.1875,
            "durationTicks": 144,
            "midi": 59,
            "name": "B3",
            "ticks": 157680,
            "time": 205.3125,
            "velocity": 0.5511811023622047
          },
          {
            "duration": 0.1875,
            "durationTicks": 144,
            "midi": 47,
            "name": "B2",
            "ticks": 157680,
            "time": 205.3125,
            "velocity": 0.5511811023622047
          },
          {
            "duration": 0.1875,
            "durationTicks": 144,
            "midi": 52,
            "name": "E3",
            "ticks": 157680,
            "time": 205.3125,
            "velocity": 0.5511811023622047
          },
          {
            "duration": 0.1875,
            "durationTicks": 144,
            "midi": 44,
            "name": "G#2",
            "ticks": 157680,
            "time": 205.3125,
            "velocity": 0.5511811023622047
          },
          {
            "duration": 0.1875,
            "durationTicks": 144,
            "midi": 52,
            "name": "E3",
            "ticks": 157968,
            "time": 205.6875,
            "velocity": 0.5511811023622047
          },
          {
            "duration": 0.1875,
            "durationTicks": 144,
            "midi": 64,
            "name": "E4",
            "ticks": 157968,
            "time": 205.6875,
            "velocity": 0.5511811023622047
          },
          {
            "duration": 0.1875,
            "durationTicks": 144,
            "midi": 44,
            "name": "G#2",
            "ticks": 157968,
            "time": 205.6875,
            "velocity": 0.5511811023622047
          },
          {
            "duration": 0.1875,
            "durationTicks": 144,
            "midi": 40,
            "name": "E2",
            "ticks": 157968,
            "time": 205.6875,
            "velocity": 0.5511811023622047
          },
          {
            "duration": 0.1875,
            "durationTicks": 144,
            "midi": 59,
            "name": "B3",
            "ticks": 157968,
            "time": 205.6875,
            "velocity": 0.5511811023622047
          },
          {
            "duration": 0.1875,
            "durationTicks": 144,
            "midi": 47,
            "name": "B2",
            "ticks": 157968,
            "time": 205.6875,
            "velocity": 0.5511811023622047
          },
          {
            "duration": 0.1875,
            "durationTicks": 144,
            "midi": 56,
            "name": "G#3",
            "ticks": 157968,
            "time": 205.6875,
            "velocity": 0.5511811023622047
          },
          {
            "duration": 0.1875,
            "durationTicks": 144,
            "midi": 56,
            "name": "G#3",
            "ticks": 158112,
            "time": 205.875,
            "velocity": 0.5511811023622047
          },
          {
            "duration": 0.1875,
            "durationTicks": 144,
            "midi": 64,
            "name": "E4",
            "ticks": 158112,
            "time": 205.875,
            "velocity": 0.5511811023622047
          },
          {
            "duration": 0.1875,
            "durationTicks": 144,
            "midi": 47,
            "name": "B2",
            "ticks": 158112,
            "time": 205.875,
            "velocity": 0.5511811023622047
          },
          {
            "duration": 0.1875,
            "durationTicks": 144,
            "midi": 40,
            "name": "E2",
            "ticks": 158112,
            "time": 205.875,
            "velocity": 0.5511811023622047
          },
          {
            "duration": 0.1875,
            "durationTicks": 144,
            "midi": 44,
            "name": "G#2",
            "ticks": 158112,
            "time": 205.875,
            "velocity": 0.5511811023622047
          },
          {
            "duration": 0.1875,
            "durationTicks": 144,
            "midi": 52,
            "name": "E3",
            "ticks": 158112,
            "time": 205.875,
            "velocity": 0.5511811023622047
          },
          {
            "duration": 0.1875,
            "durationTicks": 144,
            "midi": 59,
            "name": "B3",
            "ticks": 158112,
            "time": 205.875,
            "velocity": 0.5511811023622047
          },
          {
            "duration": 0.1875,
            "durationTicks": 144,
            "midi": 59,
            "name": "B3",
            "ticks": 158256,
            "time": 206.0625,
            "velocity": 0.5511811023622047
          },
          {
            "duration": 0.1875,
            "durationTicks": 144,
            "midi": 47,
            "name": "B2",
            "ticks": 158256,
            "time": 206.0625,
            "velocity": 0.5511811023622047
          },
          {
            "duration": 0.1875,
            "durationTicks": 144,
            "midi": 64,
            "name": "E4",
            "ticks": 158256,
            "time": 206.0625,
            "velocity": 0.5511811023622047
          },
          {
            "duration": 0.1875,
            "durationTicks": 144,
            "midi": 40,
            "name": "E2",
            "ticks": 158256,
            "time": 206.0625,
            "velocity": 0.5511811023622047
          },
          {
            "duration": 0.1875,
            "durationTicks": 144,
            "midi": 56,
            "name": "G#3",
            "ticks": 158256,
            "time": 206.0625,
            "velocity": 0.5511811023622047
          },
          {
            "duration": 0.1875,
            "durationTicks": 144,
            "midi": 44,
            "name": "G#2",
            "ticks": 158256,
            "time": 206.0625,
            "velocity": 0.5511811023622047
          },
          {
            "duration": 0.1875,
            "durationTicks": 144,
            "midi": 52,
            "name": "E3",
            "ticks": 158256,
            "time": 206.0625,
            "velocity": 0.5511811023622047
          },
          {
            "duration": 0.1875,
            "durationTicks": 144,
            "midi": 55,
            "name": "G3",
            "ticks": 158400,
            "time": 206.25,
            "velocity": 0.5511811023622047
          },
          {
            "duration": 0.1875,
            "durationTicks": 144,
            "midi": 62,
            "name": "D4",
            "ticks": 158400,
            "time": 206.25,
            "velocity": 0.5511811023622047
          },
          {
            "duration": 0.1875,
            "durationTicks": 144,
            "midi": 50,
            "name": "D3",
            "ticks": 158400,
            "time": 206.25,
            "velocity": 0.5511811023622047
          },
          {
            "duration": 0.1875,
            "durationTicks": 144,
            "midi": 47,
            "name": "B2",
            "ticks": 158400,
            "time": 206.25,
            "velocity": 0.5511811023622047
          },
          {
            "duration": 0.1875,
            "durationTicks": 144,
            "midi": 43,
            "name": "G2",
            "ticks": 158400,
            "time": 206.25,
            "velocity": 0.5511811023622047
          },
          {
            "duration": 0.1875,
            "durationTicks": 144,
            "midi": 67,
            "name": "G4",
            "ticks": 158400,
            "time": 206.25,
            "velocity": 0.5511811023622047
          },
          {
            "duration": 0.1875,
            "durationTicks": 144,
            "midi": 59,
            "name": "B3",
            "ticks": 158400,
            "time": 206.25,
            "velocity": 0.5511811023622047
          },
          {
            "duration": 0.1875,
            "durationTicks": 144,
            "midi": 62,
            "name": "D4",
            "ticks": 158688,
            "time": 206.625,
            "velocity": 0.5511811023622047
          },
          {
            "duration": 0.1875,
            "durationTicks": 144,
            "midi": 59,
            "name": "B3",
            "ticks": 158688,
            "time": 206.625,
            "velocity": 0.5511811023622047
          },
          {
            "duration": 0.1875,
            "durationTicks": 144,
            "midi": 47,
            "name": "B2",
            "ticks": 158688,
            "time": 206.625,
            "velocity": 0.5511811023622047
          },
          {
            "duration": 0.1875,
            "durationTicks": 144,
            "midi": 43,
            "name": "G2",
            "ticks": 158688,
            "time": 206.625,
            "velocity": 0.5511811023622047
          },
          {
            "duration": 0.1875,
            "durationTicks": 144,
            "midi": 50,
            "name": "D3",
            "ticks": 158688,
            "time": 206.625,
            "velocity": 0.5511811023622047
          },
          {
            "duration": 0.1875,
            "durationTicks": 144,
            "midi": 55,
            "name": "G3",
            "ticks": 158688,
            "time": 206.625,
            "velocity": 0.5511811023622047
          },
          {
            "duration": 0.1875,
            "durationTicks": 144,
            "midi": 67,
            "name": "G4",
            "ticks": 158688,
            "time": 206.625,
            "velocity": 0.5511811023622047
          },
          {
            "duration": 0.1875,
            "durationTicks": 144,
            "midi": 55,
            "name": "G3",
            "ticks": 158832,
            "time": 206.8125,
            "velocity": 0.5511811023622047
          },
          {
            "duration": 0.1875,
            "durationTicks": 144,
            "midi": 50,
            "name": "D3",
            "ticks": 158832,
            "time": 206.8125,
            "velocity": 0.5511811023622047
          },
          {
            "duration": 0.1875,
            "durationTicks": 144,
            "midi": 47,
            "name": "B2",
            "ticks": 158832,
            "time": 206.8125,
            "velocity": 0.5511811023622047
          },
          {
            "duration": 0.1875,
            "durationTicks": 144,
            "midi": 59,
            "name": "B3",
            "ticks": 158832,
            "time": 206.8125,
            "velocity": 0.5511811023622047
          },
          {
            "duration": 0.1875,
            "durationTicks": 144,
            "midi": 62,
            "name": "D4",
            "ticks": 158832,
            "time": 206.8125,
            "velocity": 0.5511811023622047
          },
          {
            "duration": 0.1875,
            "durationTicks": 144,
            "midi": 43,
            "name": "G2",
            "ticks": 158832,
            "time": 206.8125,
            "velocity": 0.5511811023622047
          },
          {
            "duration": 0.1875,
            "durationTicks": 144,
            "midi": 67,
            "name": "G4",
            "ticks": 158832,
            "time": 206.8125,
            "velocity": 0.5511811023622047
          },
          {
            "duration": 0.1875,
            "durationTicks": 144,
            "midi": 62,
            "name": "D4",
            "ticks": 159120,
            "time": 207.1875,
            "velocity": 0.5511811023622047
          },
          {
            "duration": 0.1875,
            "durationTicks": 144,
            "midi": 67,
            "name": "G4",
            "ticks": 159120,
            "time": 207.1875,
            "velocity": 0.5511811023622047
          },
          {
            "duration": 0.1875,
            "durationTicks": 144,
            "midi": 50,
            "name": "D3",
            "ticks": 159120,
            "time": 207.1875,
            "velocity": 0.5511811023622047
          },
          {
            "duration": 0.1875,
            "durationTicks": 144,
            "midi": 47,
            "name": "B2",
            "ticks": 159120,
            "time": 207.1875,
            "velocity": 0.5511811023622047
          },
          {
            "duration": 0.1875,
            "durationTicks": 144,
            "midi": 43,
            "name": "G2",
            "ticks": 159120,
            "time": 207.1875,
            "velocity": 0.5511811023622047
          },
          {
            "duration": 0.1875,
            "durationTicks": 144,
            "midi": 55,
            "name": "G3",
            "ticks": 159120,
            "time": 207.1875,
            "velocity": 0.5511811023622047
          },
          {
            "duration": 0.1875,
            "durationTicks": 144,
            "midi": 59,
            "name": "B3",
            "ticks": 159120,
            "time": 207.1875,
            "velocity": 0.5511811023622047
          },
          {
            "duration": 0.1875,
            "durationTicks": 144,
            "midi": 67,
            "name": "G4",
            "ticks": 159264,
            "time": 207.375,
            "velocity": 0.5511811023622047
          },
          {
            "duration": 0.1875,
            "durationTicks": 144,
            "midi": 62,
            "name": "D4",
            "ticks": 159264,
            "time": 207.375,
            "velocity": 0.5511811023622047
          },
          {
            "duration": 0.1875,
            "durationTicks": 144,
            "midi": 55,
            "name": "G3",
            "ticks": 159264,
            "time": 207.375,
            "velocity": 0.5511811023622047
          },
          {
            "duration": 0.1875,
            "durationTicks": 144,
            "midi": 50,
            "name": "D3",
            "ticks": 159264,
            "time": 207.375,
            "velocity": 0.5511811023622047
          },
          {
            "duration": 0.1875,
            "durationTicks": 144,
            "midi": 47,
            "name": "B2",
            "ticks": 159264,
            "time": 207.375,
            "velocity": 0.5511811023622047
          },
          {
            "duration": 0.1875,
            "durationTicks": 144,
            "midi": 59,
            "name": "B3",
            "ticks": 159264,
            "time": 207.375,
            "velocity": 0.5511811023622047
          },
          {
            "duration": 0.1875,
            "durationTicks": 144,
            "midi": 43,
            "name": "G2",
            "ticks": 159264,
            "time": 207.375,
            "velocity": 0.5511811023622047
          },
          {
            "duration": 0.1875,
            "durationTicks": 144,
            "midi": 67,
            "name": "G4",
            "ticks": 159408,
            "time": 207.5625,
            "velocity": 0.5511811023622047
          },
          {
            "duration": 0.1875,
            "durationTicks": 144,
            "midi": 50,
            "name": "D3",
            "ticks": 159408,
            "time": 207.5625,
            "velocity": 0.5511811023622047
          },
          {
            "duration": 0.1875,
            "durationTicks": 144,
            "midi": 59,
            "name": "B3",
            "ticks": 159408,
            "time": 207.5625,
            "velocity": 0.5511811023622047
          },
          {
            "duration": 0.1875,
            "durationTicks": 144,
            "midi": 43,
            "name": "G2",
            "ticks": 159408,
            "time": 207.5625,
            "velocity": 0.5511811023622047
          },
          {
            "duration": 0.1875,
            "durationTicks": 144,
            "midi": 55,
            "name": "G3",
            "ticks": 159408,
            "time": 207.5625,
            "velocity": 0.5511811023622047
          },
          {
            "duration": 0.1875,
            "durationTicks": 144,
            "midi": 62,
            "name": "D4",
            "ticks": 159408,
            "time": 207.5625,
            "velocity": 0.5511811023622047
          },
          {
            "duration": 0.1875,
            "durationTicks": 144,
            "midi": 47,
            "name": "B2",
            "ticks": 159408,
            "time": 207.5625,
            "velocity": 0.5511811023622047
          },
          {
            "duration": 0.1875,
            "durationTicks": 144,
            "midi": 48,
            "name": "C3",
            "ticks": 159552,
            "time": 207.75,
            "velocity": 0.5511811023622047
          },
          {
            "duration": 0.1875,
            "durationTicks": 144,
            "midi": 55,
            "name": "G3",
            "ticks": 159552,
            "time": 207.75,
            "velocity": 0.5511811023622047
          },
          {
            "duration": 0.1875,
            "durationTicks": 144,
            "midi": 52,
            "name": "E3",
            "ticks": 159552,
            "time": 207.75,
            "velocity": 0.5511811023622047
          },
          {
            "duration": 0.1875,
            "durationTicks": 144,
            "midi": 40,
            "name": "E2",
            "ticks": 159552,
            "time": 207.75,
            "velocity": 0.5511811023622047
          },
          {
            "duration": 0.1875,
            "durationTicks": 144,
            "midi": 43,
            "name": "G2",
            "ticks": 159552,
            "time": 207.75,
            "velocity": 0.5511811023622047
          },
          {
            "duration": 0.1875,
            "durationTicks": 144,
            "midi": 36,
            "name": "C2",
            "ticks": 159552,
            "time": 207.75,
            "velocity": 0.5511811023622047
          },
          {
            "duration": 0.1875,
            "durationTicks": 144,
            "midi": 60,
            "name": "C4",
            "ticks": 159552,
            "time": 207.75,
            "velocity": 0.5511811023622047
          },
          {
            "duration": 0.1875,
            "durationTicks": 144,
            "midi": 43,
            "name": "G2",
            "ticks": 159840,
            "time": 208.125,
            "velocity": 0.5511811023622047
          },
          {
            "duration": 0.1875,
            "durationTicks": 144,
            "midi": 48,
            "name": "C3",
            "ticks": 159840,
            "time": 208.125,
            "velocity": 0.5511811023622047
          },
          {
            "duration": 0.1875,
            "durationTicks": 144,
            "midi": 52,
            "name": "E3",
            "ticks": 159840,
            "time": 208.125,
            "velocity": 0.5511811023622047
          },
          {
            "duration": 0.1875,
            "durationTicks": 144,
            "midi": 36,
            "name": "C2",
            "ticks": 159840,
            "time": 208.125,
            "velocity": 0.5511811023622047
          },
          {
            "duration": 0.1875,
            "durationTicks": 144,
            "midi": 40,
            "name": "E2",
            "ticks": 159840,
            "time": 208.125,
            "velocity": 0.5511811023622047
          },
          {
            "duration": 0.1875,
            "durationTicks": 144,
            "midi": 55,
            "name": "G3",
            "ticks": 159840,
            "time": 208.125,
            "velocity": 0.5511811023622047
          },
          {
            "duration": 0.1875,
            "durationTicks": 144,
            "midi": 60,
            "name": "C4",
            "ticks": 159840,
            "time": 208.125,
            "velocity": 0.5511811023622047
          },
          {
            "duration": 0.1875,
            "durationTicks": 144,
            "midi": 55,
            "name": "G3",
            "ticks": 159984,
            "time": 208.3125,
            "velocity": 0.5511811023622047
          },
          {
            "duration": 0.1875,
            "durationTicks": 144,
            "midi": 48,
            "name": "C3",
            "ticks": 159984,
            "time": 208.3125,
            "velocity": 0.5511811023622047
          },
          {
            "duration": 0.1875,
            "durationTicks": 144,
            "midi": 60,
            "name": "C4",
            "ticks": 159984,
            "time": 208.3125,
            "velocity": 0.5511811023622047
          },
          {
            "duration": 0.1875,
            "durationTicks": 144,
            "midi": 43,
            "name": "G2",
            "ticks": 159984,
            "time": 208.3125,
            "velocity": 0.5511811023622047
          },
          {
            "duration": 0.1875,
            "durationTicks": 144,
            "midi": 40,
            "name": "E2",
            "ticks": 159984,
            "time": 208.3125,
            "velocity": 0.5511811023622047
          },
          {
            "duration": 0.1875,
            "durationTicks": 144,
            "midi": 36,
            "name": "C2",
            "ticks": 159984,
            "time": 208.3125,
            "velocity": 0.5511811023622047
          },
          {
            "duration": 0.1875,
            "durationTicks": 144,
            "midi": 52,
            "name": "E3",
            "ticks": 159984,
            "time": 208.3125,
            "velocity": 0.5511811023622047
          },
          {
            "duration": 0.1875,
            "durationTicks": 144,
            "midi": 36,
            "name": "C2",
            "ticks": 160272,
            "time": 208.6875,
            "velocity": 0.5511811023622047
          },
          {
            "duration": 0.1875,
            "durationTicks": 144,
            "midi": 55,
            "name": "G3",
            "ticks": 160272,
            "time": 208.6875,
            "velocity": 0.5511811023622047
          },
          {
            "duration": 0.1875,
            "durationTicks": 144,
            "midi": 48,
            "name": "C3",
            "ticks": 160272,
            "time": 208.6875,
            "velocity": 0.5511811023622047
          },
          {
            "duration": 0.1875,
            "durationTicks": 144,
            "midi": 40,
            "name": "E2",
            "ticks": 160272,
            "time": 208.6875,
            "velocity": 0.5511811023622047
          },
          {
            "duration": 0.1875,
            "durationTicks": 144,
            "midi": 52,
            "name": "E3",
            "ticks": 160272,
            "time": 208.6875,
            "velocity": 0.5511811023622047
          },
          {
            "duration": 0.1875,
            "durationTicks": 144,
            "midi": 60,
            "name": "C4",
            "ticks": 160272,
            "time": 208.6875,
            "velocity": 0.5511811023622047
          },
          {
            "duration": 0.1875,
            "durationTicks": 144,
            "midi": 43,
            "name": "G2",
            "ticks": 160272,
            "time": 208.6875,
            "velocity": 0.5511811023622047
          },
          {
            "duration": 0.1875,
            "durationTicks": 144,
            "midi": 48,
            "name": "C3",
            "ticks": 160416,
            "time": 208.875,
            "velocity": 0.5511811023622047
          },
          {
            "duration": 0.1875,
            "durationTicks": 144,
            "midi": 43,
            "name": "G2",
            "ticks": 160416,
            "time": 208.875,
            "velocity": 0.5511811023622047
          },
          {
            "duration": 0.1875,
            "durationTicks": 144,
            "midi": 55,
            "name": "G3",
            "ticks": 160416,
            "time": 208.875,
            "velocity": 0.5511811023622047
          },
          {
            "duration": 0.1875,
            "durationTicks": 144,
            "midi": 60,
            "name": "C4",
            "ticks": 160416,
            "time": 208.875,
            "velocity": 0.5511811023622047
          },
          {
            "duration": 0.1875,
            "durationTicks": 144,
            "midi": 36,
            "name": "C2",
            "ticks": 160416,
            "time": 208.875,
            "velocity": 0.5511811023622047
          },
          {
            "duration": 0.1875,
            "durationTicks": 144,
            "midi": 52,
            "name": "E3",
            "ticks": 160416,
            "time": 208.875,
            "velocity": 0.5511811023622047
          },
          {
            "duration": 0.1875,
            "durationTicks": 144,
            "midi": 40,
            "name": "E2",
            "ticks": 160416,
            "time": 208.875,
            "velocity": 0.5511811023622047
          },
          {
            "duration": 0.1875,
            "durationTicks": 144,
            "midi": 55,
            "name": "G3",
            "ticks": 160560,
            "time": 209.0625,
            "velocity": 0.5511811023622047
          },
          {
            "duration": 0.1875,
            "durationTicks": 144,
            "midi": 43,
            "name": "G2",
            "ticks": 160560,
            "time": 209.0625,
            "velocity": 0.5511811023622047
          },
          {
            "duration": 0.1875,
            "durationTicks": 144,
            "midi": 40,
            "name": "E2",
            "ticks": 160560,
            "time": 209.0625,
            "velocity": 0.5511811023622047
          },
          {
            "duration": 0.1875,
            "durationTicks": 144,
            "midi": 36,
            "name": "C2",
            "ticks": 160560,
            "time": 209.0625,
            "velocity": 0.5511811023622047
          },
          {
            "duration": 0.1875,
            "durationTicks": 144,
            "midi": 52,
            "name": "E3",
            "ticks": 160560,
            "time": 209.0625,
            "velocity": 0.5511811023622047
          },
          {
            "duration": 0.1875,
            "durationTicks": 144,
            "midi": 60,
            "name": "C4",
            "ticks": 160560,
            "time": 209.0625,
            "velocity": 0.5511811023622047
          },
          {
            "duration": 0.1875,
            "durationTicks": 144,
            "midi": 48,
            "name": "C3",
            "ticks": 160560,
            "time": 209.0625,
            "velocity": 0.5511811023622047
          },
          {
            "duration": 0.1875,
            "durationTicks": 144,
            "midi": 40,
            "name": "E2",
            "ticks": 160704,
            "time": 209.25,
            "velocity": 0.5511811023622047
          },
          {
            "duration": 0.1875,
            "durationTicks": 144,
            "midi": 36,
            "name": "C2",
            "ticks": 160704,
            "time": 209.25,
            "velocity": 0.5511811023622047
          },
          {
            "duration": 0.1875,
            "durationTicks": 144,
            "midi": 60,
            "name": "C4",
            "ticks": 160704,
            "time": 209.25,
            "velocity": 0.5511811023622047
          },
          {
            "duration": 0.1875,
            "durationTicks": 144,
            "midi": 48,
            "name": "C3",
            "ticks": 160704,
            "time": 209.25,
            "velocity": 0.5511811023622047
          },
          {
            "duration": 0.1875,
            "durationTicks": 144,
            "midi": 55,
            "name": "G3",
            "ticks": 160704,
            "time": 209.25,
            "velocity": 0.5511811023622047
          },
          {
            "duration": 0.1875,
            "durationTicks": 144,
            "midi": 52,
            "name": "E3",
            "ticks": 160704,
            "time": 209.25,
            "velocity": 0.5511811023622047
          },
          {
            "duration": 0.1875,
            "durationTicks": 144,
            "midi": 43,
            "name": "G2",
            "ticks": 160704,
            "time": 209.25,
            "velocity": 0.5511811023622047
          },
          {
            "duration": 0.1875,
            "durationTicks": 144,
            "midi": 48,
            "name": "C3",
            "ticks": 160992,
            "time": 209.625,
            "velocity": 0.5511811023622047
          },
          {
            "duration": 0.1875,
            "durationTicks": 144,
            "midi": 52,
            "name": "E3",
            "ticks": 160992,
            "time": 209.625,
            "velocity": 0.5511811023622047
          },
          {
            "duration": 0.1875,
            "durationTicks": 144,
            "midi": 40,
            "name": "E2",
            "ticks": 160992,
            "time": 209.625,
            "velocity": 0.5511811023622047
          },
          {
            "duration": 0.1875,
            "durationTicks": 144,
            "midi": 60,
            "name": "C4",
            "ticks": 160992,
            "time": 209.625,
            "velocity": 0.5511811023622047
          },
          {
            "duration": 0.1875,
            "durationTicks": 144,
            "midi": 43,
            "name": "G2",
            "ticks": 160992,
            "time": 209.625,
            "velocity": 0.5511811023622047
          },
          {
            "duration": 0.1875,
            "durationTicks": 144,
            "midi": 55,
            "name": "G3",
            "ticks": 160992,
            "time": 209.625,
            "velocity": 0.5511811023622047
          },
          {
            "duration": 0.1875,
            "durationTicks": 144,
            "midi": 36,
            "name": "C2",
            "ticks": 160992,
            "time": 209.625,
            "velocity": 0.5511811023622047
          },
          {
            "duration": 0.1875,
            "durationTicks": 144,
            "midi": 48,
            "name": "C3",
            "ticks": 161136,
            "time": 209.8125,
            "velocity": 0.5511811023622047
          },
          {
            "duration": 0.1875,
            "durationTicks": 144,
            "midi": 60,
            "name": "C4",
            "ticks": 161136,
            "time": 209.8125,
            "velocity": 0.5511811023622047
          },
          {
            "duration": 0.1875,
            "durationTicks": 144,
            "midi": 52,
            "name": "E3",
            "ticks": 161136,
            "time": 209.8125,
            "velocity": 0.5511811023622047
          },
          {
            "duration": 0.1875,
            "durationTicks": 144,
            "midi": 55,
            "name": "G3",
            "ticks": 161136,
            "time": 209.8125,
            "velocity": 0.5511811023622047
          },
          {
            "duration": 0.1875,
            "durationTicks": 144,
            "midi": 36,
            "name": "C2",
            "ticks": 161136,
            "time": 209.8125,
            "velocity": 0.5511811023622047
          },
          {
            "duration": 0.1875,
            "durationTicks": 144,
            "midi": 43,
            "name": "G2",
            "ticks": 161136,
            "time": 209.8125,
            "velocity": 0.5511811023622047
          },
          {
            "duration": 0.1875,
            "durationTicks": 144,
            "midi": 40,
            "name": "E2",
            "ticks": 161136,
            "time": 209.8125,
            "velocity": 0.5511811023622047
          },
          {
            "duration": 0.1875,
            "durationTicks": 144,
            "midi": 52,
            "name": "E3",
            "ticks": 161424,
            "time": 210.1875,
            "velocity": 0.5511811023622047
          },
          {
            "duration": 0.1875,
            "durationTicks": 144,
            "midi": 48,
            "name": "C3",
            "ticks": 161424,
            "time": 210.1875,
            "velocity": 0.5511811023622047
          },
          {
            "duration": 0.1875,
            "durationTicks": 144,
            "midi": 36,
            "name": "C2",
            "ticks": 161424,
            "time": 210.1875,
            "velocity": 0.5511811023622047
          },
          {
            "duration": 0.1875,
            "durationTicks": 144,
            "midi": 55,
            "name": "G3",
            "ticks": 161424,
            "time": 210.1875,
            "velocity": 0.5511811023622047
          },
          {
            "duration": 0.1875,
            "durationTicks": 144,
            "midi": 40,
            "name": "E2",
            "ticks": 161424,
            "time": 210.1875,
            "velocity": 0.5511811023622047
          },
          {
            "duration": 0.1875,
            "durationTicks": 144,
            "midi": 43,
            "name": "G2",
            "ticks": 161424,
            "time": 210.1875,
            "velocity": 0.5511811023622047
          },
          {
            "duration": 0.1875,
            "durationTicks": 144,
            "midi": 60,
            "name": "C4",
            "ticks": 161424,
            "time": 210.1875,
            "velocity": 0.5511811023622047
          },
          {
            "duration": 0.1875,
            "durationTicks": 144,
            "midi": 60,
            "name": "C4",
            "ticks": 161568,
            "time": 210.375,
            "velocity": 0.5511811023622047
          },
          {
            "duration": 0.1875,
            "durationTicks": 144,
            "midi": 52,
            "name": "E3",
            "ticks": 161568,
            "time": 210.375,
            "velocity": 0.5511811023622047
          },
          {
            "duration": 0.1875,
            "durationTicks": 144,
            "midi": 55,
            "name": "G3",
            "ticks": 161568,
            "time": 210.375,
            "velocity": 0.5511811023622047
          },
          {
            "duration": 0.1875,
            "durationTicks": 144,
            "midi": 43,
            "name": "G2",
            "ticks": 161568,
            "time": 210.375,
            "velocity": 0.5511811023622047
          },
          {
            "duration": 0.1875,
            "durationTicks": 144,
            "midi": 36,
            "name": "C2",
            "ticks": 161568,
            "time": 210.375,
            "velocity": 0.5511811023622047
          },
          {
            "duration": 0.1875,
            "durationTicks": 144,
            "midi": 48,
            "name": "C3",
            "ticks": 161568,
            "time": 210.375,
            "velocity": 0.5511811023622047
          },
          {
            "duration": 0.1875,
            "durationTicks": 144,
            "midi": 40,
            "name": "E2",
            "ticks": 161568,
            "time": 210.375,
            "velocity": 0.5511811023622047
          },
          {
            "duration": 0.1875,
            "durationTicks": 144,
            "midi": 48,
            "name": "C3",
            "ticks": 161712,
            "time": 210.5625,
            "velocity": 0.5511811023622047
          },
          {
            "duration": 0.1875,
            "durationTicks": 144,
            "midi": 55,
            "name": "G3",
            "ticks": 161712,
            "time": 210.5625,
            "velocity": 0.5511811023622047
          },
          {
            "duration": 0.1875,
            "durationTicks": 144,
            "midi": 52,
            "name": "E3",
            "ticks": 161712,
            "time": 210.5625,
            "velocity": 0.5511811023622047
          },
          {
            "duration": 0.1875,
            "durationTicks": 144,
            "midi": 43,
            "name": "G2",
            "ticks": 161712,
            "time": 210.5625,
            "velocity": 0.5511811023622047
          },
          {
            "duration": 0.1875,
            "durationTicks": 144,
            "midi": 36,
            "name": "C2",
            "ticks": 161712,
            "time": 210.5625,
            "velocity": 0.5511811023622047
          },
          {
            "duration": 0.1875,
            "durationTicks": 144,
            "midi": 40,
            "name": "E2",
            "ticks": 161712,
            "time": 210.5625,
            "velocity": 0.5511811023622047
          },
          {
            "duration": 0.1875,
            "durationTicks": 144,
            "midi": 60,
            "name": "C4",
            "ticks": 161712,
            "time": 210.5625,
            "velocity": 0.5511811023622047
          },
          {
            "duration": 0.1875,
            "durationTicks": 144,
            "midi": 38,
            "name": "D2",
            "ticks": 161856,
            "time": 210.75,
            "velocity": 0.5511811023622047
          },
          {
            "duration": 0.1875,
            "durationTicks": 144,
            "midi": 54,
            "name": "F#3",
            "ticks": 161856,
            "time": 210.75,
            "velocity": 0.5511811023622047
          },
          {
            "duration": 0.1875,
            "durationTicks": 144,
            "midi": 42,
            "name": "F#2",
            "ticks": 161856,
            "time": 210.75,
            "velocity": 0.5511811023622047
          },
          {
            "duration": 0.1875,
            "durationTicks": 144,
            "midi": 50,
            "name": "D3",
            "ticks": 161856,
            "time": 210.75,
            "velocity": 0.5511811023622047
          },
          {
            "duration": 0.1875,
            "durationTicks": 144,
            "midi": 62,
            "name": "D4",
            "ticks": 161856,
            "time": 210.75,
            "velocity": 0.5511811023622047
          },
          {
            "duration": 0.1875,
            "durationTicks": 144,
            "midi": 45,
            "name": "A2",
            "ticks": 161856,
            "time": 210.75,
            "velocity": 0.5511811023622047
          },
          {
            "duration": 0.1875,
            "durationTicks": 144,
            "midi": 57,
            "name": "A3",
            "ticks": 161856,
            "time": 210.75,
            "velocity": 0.5511811023622047
          },
          {
            "duration": 0.1875,
            "durationTicks": 144,
            "midi": 57,
            "name": "A3",
            "ticks": 162144,
            "time": 211.125,
            "velocity": 0.5511811023622047
          },
          {
            "duration": 0.1875,
            "durationTicks": 144,
            "midi": 42,
            "name": "F#2",
            "ticks": 162144,
            "time": 211.125,
            "velocity": 0.5511811023622047
          },
          {
            "duration": 0.1875,
            "durationTicks": 144,
            "midi": 45,
            "name": "A2",
            "ticks": 162144,
            "time": 211.125,
            "velocity": 0.5511811023622047
          },
          {
            "duration": 0.1875,
            "durationTicks": 144,
            "midi": 38,
            "name": "D2",
            "ticks": 162144,
            "time": 211.125,
            "velocity": 0.5511811023622047
          },
          {
            "duration": 0.1875,
            "durationTicks": 144,
            "midi": 50,
            "name": "D3",
            "ticks": 162144,
            "time": 211.125,
            "velocity": 0.5511811023622047
          },
          {
            "duration": 0.1875,
            "durationTicks": 144,
            "midi": 62,
            "name": "D4",
            "ticks": 162144,
            "time": 211.125,
            "velocity": 0.5511811023622047
          },
          {
            "duration": 0.1875,
            "durationTicks": 144,
            "midi": 54,
            "name": "F#3",
            "ticks": 162144,
            "time": 211.125,
            "velocity": 0.5511811023622047
          },
          {
            "duration": 0.1875,
            "durationTicks": 144,
            "midi": 64,
            "name": "E4",
            "ticks": 162432,
            "time": 211.5,
            "velocity": 0.5511811023622047
          },
          {
            "duration": 0.1875,
            "durationTicks": 144,
            "midi": 56,
            "name": "G#3",
            "ticks": 162432,
            "time": 211.5,
            "velocity": 0.5511811023622047
          },
          {
            "duration": 0.1875,
            "durationTicks": 144,
            "midi": 47,
            "name": "B2",
            "ticks": 162432,
            "time": 211.5,
            "velocity": 0.5511811023622047
          },
          {
            "duration": 0.1875,
            "durationTicks": 144,
            "midi": 44,
            "name": "G#2",
            "ticks": 162432,
            "time": 211.5,
            "velocity": 0.5511811023622047
          },
          {
            "duration": 0.1875,
            "durationTicks": 144,
            "midi": 52,
            "name": "E3",
            "ticks": 162432,
            "time": 211.5,
            "velocity": 0.5511811023622047
          },
          {
            "duration": 0.1875,
            "durationTicks": 144,
            "midi": 59,
            "name": "B3",
            "ticks": 162432,
            "time": 211.5,
            "velocity": 0.5511811023622047
          },
          {
            "duration": 0.5625,
            "durationTicks": 432,
            "midi": 52,
            "name": "E3",
            "ticks": 162432,
            "time": 211.5,
            "velocity": 0.5511811023622047
          },
          {
            "duration": 0.1875,
            "durationTicks": 144,
            "midi": 40,
            "name": "E2",
            "ticks": 162432,
            "time": 211.5,
            "velocity": 0.5511811023622047
          },
          {
            "duration": 0.1875,
            "durationTicks": 144,
            "midi": 56,
            "name": "G#3",
            "ticks": 162720,
            "time": 211.875,
            "velocity": 0.5511811023622047
          },
          {
            "duration": 0.1875,
            "durationTicks": 144,
            "midi": 40,
            "name": "E2",
            "ticks": 162720,
            "time": 211.875,
            "velocity": 0.5511811023622047
          },
          {
            "duration": 0.375,
            "durationTicks": 288,
            "midi": 52,
            "name": "E3",
            "ticks": 162720,
            "time": 211.875,
            "velocity": 0.5511811023622047
          },
          {
            "duration": 0.1875,
            "durationTicks": 144,
            "midi": 47,
            "name": "B2",
            "ticks": 162720,
            "time": 211.875,
            "velocity": 0.5511811023622047
          },
          {
            "duration": 0.1875,
            "durationTicks": 144,
            "midi": 59,
            "name": "B3",
            "ticks": 162720,
            "time": 211.875,
            "velocity": 0.5511811023622047
          },
          {
            "duration": 0.1875,
            "durationTicks": 144,
            "midi": 64,
            "name": "E4",
            "ticks": 162720,
            "time": 211.875,
            "velocity": 0.5511811023622047
          },
          {
            "duration": 0.1875,
            "durationTicks": 144,
            "midi": 44,
            "name": "G#2",
            "ticks": 162720,
            "time": 211.875,
            "velocity": 0.5511811023622047
          },
          {
            "duration": 0.5625,
            "durationTicks": 432,
            "midi": 52,
            "name": "E3",
            "ticks": 162864,
            "time": 212.0625,
            "velocity": 0.5511811023622047
          },
          {
            "duration": 0.1875,
            "durationTicks": 144,
            "midi": 44,
            "name": "G#2",
            "ticks": 162864,
            "time": 212.0625,
            "velocity": 0.5511811023622047
          },
          {
            "duration": 0.1875,
            "durationTicks": 144,
            "midi": 56,
            "name": "G#3",
            "ticks": 162864,
            "time": 212.0625,
            "velocity": 0.5511811023622047
          },
          {
            "duration": 0.1875,
            "durationTicks": 144,
            "midi": 64,
            "name": "E4",
            "ticks": 162864,
            "time": 212.0625,
            "velocity": 0.5511811023622047
          },
          {
            "duration": 0.1875,
            "durationTicks": 144,
            "midi": 40,
            "name": "E2",
            "ticks": 162864,
            "time": 212.0625,
            "velocity": 0.5511811023622047
          },
          {
            "duration": 0.1875,
            "durationTicks": 144,
            "midi": 47,
            "name": "B2",
            "ticks": 162864,
            "time": 212.0625,
            "velocity": 0.5511811023622047
          },
          {
            "duration": 0.1875,
            "durationTicks": 144,
            "midi": 59,
            "name": "B3",
            "ticks": 162864,
            "time": 212.0625,
            "velocity": 0.5511811023622047
          },
          {
            "duration": 0.1875,
            "durationTicks": 144,
            "midi": 44,
            "name": "G#2",
            "ticks": 163152,
            "time": 212.4375,
            "velocity": 0.5511811023622047
          },
          {
            "duration": 0.1875,
            "durationTicks": 144,
            "midi": 56,
            "name": "G#3",
            "ticks": 163152,
            "time": 212.4375,
            "velocity": 0.5511811023622047
          },
          {
            "duration": 0.375,
            "durationTicks": 288,
            "midi": 52,
            "name": "E3",
            "ticks": 163152,
            "time": 212.4375,
            "velocity": 0.5511811023622047
          },
          {
            "duration": 0.1875,
            "durationTicks": 144,
            "midi": 47,
            "name": "B2",
            "ticks": 163152,
            "time": 212.4375,
            "velocity": 0.5511811023622047
          },
          {
            "duration": 0.1875,
            "durationTicks": 144,
            "midi": 59,
            "name": "B3",
            "ticks": 163152,
            "time": 212.4375,
            "velocity": 0.5511811023622047
          },
          {
            "duration": 0.1875,
            "durationTicks": 144,
            "midi": 40,
            "name": "E2",
            "ticks": 163152,
            "time": 212.4375,
            "velocity": 0.5511811023622047
          },
          {
            "duration": 0.1875,
            "durationTicks": 144,
            "midi": 64,
            "name": "E4",
            "ticks": 163152,
            "time": 212.4375,
            "velocity": 0.5511811023622047
          },
          {
            "duration": 0.1875,
            "durationTicks": 144,
            "midi": 64,
            "name": "E4",
            "ticks": 163296,
            "time": 212.625,
            "velocity": 0.5511811023622047
          },
          {
            "duration": 0.375,
            "durationTicks": 288,
            "midi": 52,
            "name": "E3",
            "ticks": 163296,
            "time": 212.625,
            "velocity": 0.5511811023622047
          },
          {
            "duration": 0.1875,
            "durationTicks": 144,
            "midi": 47,
            "name": "B2",
            "ticks": 163296,
            "time": 212.625,
            "velocity": 0.5511811023622047
          },
          {
            "duration": 0.1875,
            "durationTicks": 144,
            "midi": 40,
            "name": "E2",
            "ticks": 163296,
            "time": 212.625,
            "velocity": 0.5511811023622047
          },
          {
            "duration": 0.1875,
            "durationTicks": 144,
            "midi": 44,
            "name": "G#2",
            "ticks": 163296,
            "time": 212.625,
            "velocity": 0.5511811023622047
          },
          {
            "duration": 0.1875,
            "durationTicks": 144,
            "midi": 59,
            "name": "B3",
            "ticks": 163296,
            "time": 212.625,
            "velocity": 0.5511811023622047
          },
          {
            "duration": 0.1875,
            "durationTicks": 144,
            "midi": 56,
            "name": "G#3",
            "ticks": 163296,
            "time": 212.625,
            "velocity": 0.5511811023622047
          },
          {
            "duration": 0.1875,
            "durationTicks": 144,
            "midi": 59,
            "name": "B3",
            "ticks": 163440,
            "time": 212.8125,
            "velocity": 0.5511811023622047
          },
          {
            "duration": 0.1875,
            "durationTicks": 144,
            "midi": 47,
            "name": "B2",
            "ticks": 163440,
            "time": 212.8125,
            "velocity": 0.5511811023622047
          },
          {
            "duration": 0.1875,
            "durationTicks": 144,
            "midi": 40,
            "name": "E2",
            "ticks": 163440,
            "time": 212.8125,
            "velocity": 0.5511811023622047
          },
          {
            "duration": 0.375,
            "durationTicks": 288,
            "midi": 52,
            "name": "E3",
            "ticks": 163440,
            "time": 212.8125,
            "velocity": 0.5511811023622047
          },
          {
            "duration": 0.1875,
            "durationTicks": 144,
            "midi": 56,
            "name": "G#3",
            "ticks": 163440,
            "time": 212.8125,
            "velocity": 0.5511811023622047
          },
          {
            "duration": 0.1875,
            "durationTicks": 144,
            "midi": 44,
            "name": "G#2",
            "ticks": 163440,
            "time": 212.8125,
            "velocity": 0.5511811023622047
          },
          {
            "duration": 0.1875,
            "durationTicks": 144,
            "midi": 64,
            "name": "E4",
            "ticks": 163440,
            "time": 212.8125,
            "velocity": 0.5511811023622047
          },
          {
            "duration": 0.1875,
            "durationTicks": 144,
            "midi": 47,
            "name": "B2",
            "ticks": 163584,
            "time": 213,
            "velocity": 0.5511811023622047
          },
          {
            "duration": 0.1875,
            "durationTicks": 144,
            "midi": 44,
            "name": "G#2",
            "ticks": 163584,
            "time": 213,
            "velocity": 0.5511811023622047
          },
          {
            "duration": 0.1875,
            "durationTicks": 144,
            "midi": 59,
            "name": "B3",
            "ticks": 163584,
            "time": 213,
            "velocity": 0.5511811023622047
          },
          {
            "duration": 0.1875,
            "durationTicks": 144,
            "midi": 56,
            "name": "G#3",
            "ticks": 163584,
            "time": 213,
            "velocity": 0.5511811023622047
          },
          {
            "duration": 0.25,
            "durationTicks": 192,
            "midi": 52,
            "name": "E3",
            "ticks": 163584,
            "time": 213,
            "velocity": 0.5511811023622047
          },
          {
            "duration": 0.1875,
            "durationTicks": 144,
            "midi": 64,
            "name": "E4",
            "ticks": 163584,
            "time": 213,
            "velocity": 0.5511811023622047
          },
          {
            "duration": 0.1875,
            "durationTicks": 144,
            "midi": 40,
            "name": "E2",
            "ticks": 163584,
            "time": 213,
            "velocity": 0.5511811023622047
          },
          {
            "duration": 0.1875,
            "durationTicks": 144,
            "midi": 59,
            "name": "B3",
            "ticks": 163872,
            "time": 213.375,
            "velocity": 0.5511811023622047
          },
          {
            "duration": 0.1875,
            "durationTicks": 144,
            "midi": 44,
            "name": "G#2",
            "ticks": 163872,
            "time": 213.375,
            "velocity": 0.5511811023622047
          },
          {
            "duration": 0.1875,
            "durationTicks": 144,
            "midi": 40,
            "name": "E2",
            "ticks": 163872,
            "time": 213.375,
            "velocity": 0.5511811023622047
          },
          {
            "duration": 0.1875,
            "durationTicks": 144,
            "midi": 47,
            "name": "B2",
            "ticks": 163872,
            "time": 213.375,
            "velocity": 0.5511811023622047
          },
          {
            "duration": 0.1875,
            "durationTicks": 144,
            "midi": 52,
            "name": "E3",
            "ticks": 163872,
            "time": 213.375,
            "velocity": 0.5511811023622047
          },
          {
            "duration": 0.1875,
            "durationTicks": 144,
            "midi": 56,
            "name": "G#3",
            "ticks": 163872,
            "time": 213.375,
            "velocity": 0.5511811023622047
          },
          {
            "duration": 0.1875,
            "durationTicks": 144,
            "midi": 64,
            "name": "E4",
            "ticks": 163872,
            "time": 213.375,
            "velocity": 0.5511811023622047
          },
          {
            "duration": 0.1875,
            "durationTicks": 144,
            "midi": 56,
            "name": "G#3",
            "ticks": 164016,
            "time": 213.5625,
            "velocity": 0.5511811023622047
          },
          {
            "duration": 0.1875,
            "durationTicks": 144,
            "midi": 64,
            "name": "E4",
            "ticks": 164016,
            "time": 213.5625,
            "velocity": 0.5511811023622047
          },
          {
            "duration": 0.1875,
            "durationTicks": 144,
            "midi": 59,
            "name": "B3",
            "ticks": 164016,
            "time": 213.5625,
            "velocity": 0.5511811023622047
          },
          {
            "duration": 0.1875,
            "durationTicks": 144,
            "midi": 52,
            "name": "E3",
            "ticks": 164016,
            "time": 213.5625,
            "velocity": 0.5511811023622047
          },
          {
            "duration": 0.1875,
            "durationTicks": 144,
            "midi": 40,
            "name": "E2",
            "ticks": 164016,
            "time": 213.5625,
            "velocity": 0.5511811023622047
          },
          {
            "duration": 0.1875,
            "durationTicks": 144,
            "midi": 47,
            "name": "B2",
            "ticks": 164016,
            "time": 213.5625,
            "velocity": 0.5511811023622047
          },
          {
            "duration": 0.1875,
            "durationTicks": 144,
            "midi": 44,
            "name": "G#2",
            "ticks": 164016,
            "time": 213.5625,
            "velocity": 0.5511811023622047
          },
          {
            "duration": 0.1875,
            "durationTicks": 144,
            "midi": 59,
            "name": "B3",
            "ticks": 164304,
            "time": 213.9375,
            "velocity": 0.5511811023622047
          },
          {
            "duration": 0.1875,
            "durationTicks": 144,
            "midi": 64,
            "name": "E4",
            "ticks": 164304,
            "time": 213.9375,
            "velocity": 0.5511811023622047
          },
          {
            "duration": 0.1875,
            "durationTicks": 144,
            "midi": 47,
            "name": "B2",
            "ticks": 164304,
            "time": 213.9375,
            "velocity": 0.5511811023622047
          },
          {
            "duration": 0.1875,
            "durationTicks": 144,
            "midi": 40,
            "name": "E2",
            "ticks": 164304,
            "time": 213.9375,
            "velocity": 0.5511811023622047
          },
          {
            "duration": 0.1875,
            "durationTicks": 144,
            "midi": 52,
            "name": "E3",
            "ticks": 164304,
            "time": 213.9375,
            "velocity": 0.5511811023622047
          },
          {
            "duration": 0.1875,
            "durationTicks": 144,
            "midi": 56,
            "name": "G#3",
            "ticks": 164304,
            "time": 213.9375,
            "velocity": 0.5511811023622047
          },
          {
            "duration": 0.1875,
            "durationTicks": 144,
            "midi": 44,
            "name": "G#2",
            "ticks": 164304,
            "time": 213.9375,
            "velocity": 0.5511811023622047
          },
          {
            "duration": 0.1875,
            "durationTicks": 144,
            "midi": 40,
            "name": "E2",
            "ticks": 164448,
            "time": 214.125,
            "velocity": 0.5511811023622047
          },
          {
            "duration": 0.1875,
            "durationTicks": 144,
            "midi": 52,
            "name": "E3",
            "ticks": 164448,
            "time": 214.125,
            "velocity": 0.5511811023622047
          },
          {
            "duration": 0.1875,
            "durationTicks": 144,
            "midi": 44,
            "name": "G#2",
            "ticks": 164448,
            "time": 214.125,
            "velocity": 0.5511811023622047
          },
          {
            "duration": 0.1875,
            "durationTicks": 144,
            "midi": 59,
            "name": "B3",
            "ticks": 164448,
            "time": 214.125,
            "velocity": 0.5511811023622047
          },
          {
            "duration": 0.1875,
            "durationTicks": 144,
            "midi": 56,
            "name": "G#3",
            "ticks": 164448,
            "time": 214.125,
            "velocity": 0.5511811023622047
          },
          {
            "duration": 0.1875,
            "durationTicks": 144,
            "midi": 47,
            "name": "B2",
            "ticks": 164448,
            "time": 214.125,
            "velocity": 0.5511811023622047
          },
          {
            "duration": 0.1875,
            "durationTicks": 144,
            "midi": 64,
            "name": "E4",
            "ticks": 164448,
            "time": 214.125,
            "velocity": 0.5511811023622047
          },
          {
            "duration": 0.1875,
            "durationTicks": 144,
            "midi": 44,
            "name": "G#2",
            "ticks": 164592,
            "time": 214.3125,
            "velocity": 0.5511811023622047
          },
          {
            "duration": 0.1875,
            "durationTicks": 144,
            "midi": 40,
            "name": "E2",
            "ticks": 164592,
            "time": 214.3125,
            "velocity": 0.5511811023622047
          },
          {
            "duration": 0.1875,
            "durationTicks": 144,
            "midi": 59,
            "name": "B3",
            "ticks": 164592,
            "time": 214.3125,
            "velocity": 0.5511811023622047
          },
          {
            "duration": 0.1875,
            "durationTicks": 144,
            "midi": 56,
            "name": "G#3",
            "ticks": 164592,
            "time": 214.3125,
            "velocity": 0.5511811023622047
          },
          {
            "duration": 0.1875,
            "durationTicks": 144,
            "midi": 52,
            "name": "E3",
            "ticks": 164592,
            "time": 214.3125,
            "velocity": 0.5511811023622047
          },
          {
            "duration": 0.1875,
            "durationTicks": 144,
            "midi": 47,
            "name": "B2",
            "ticks": 164592,
            "time": 214.3125,
            "velocity": 0.5511811023622047
          },
          {
            "duration": 0.1875,
            "durationTicks": 144,
            "midi": 64,
            "name": "E4",
            "ticks": 164592,
            "time": 214.3125,
            "velocity": 0.5511811023622047
          },
          {
            "duration": 0.1875,
            "durationTicks": 144,
            "midi": 59,
            "name": "B3",
            "ticks": 164736,
            "time": 214.5,
            "velocity": 0.5511811023622047
          },
          {
            "duration": 0.1875,
            "durationTicks": 144,
            "midi": 47,
            "name": "B2",
            "ticks": 164736,
            "time": 214.5,
            "velocity": 0.5511811023622047
          },
          {
            "duration": 0.1875,
            "durationTicks": 144,
            "midi": 62,
            "name": "D4",
            "ticks": 164736,
            "time": 214.5,
            "velocity": 0.5511811023622047
          },
          {
            "duration": 0.1875,
            "durationTicks": 144,
            "midi": 43,
            "name": "G2",
            "ticks": 164736,
            "time": 214.5,
            "velocity": 0.5511811023622047
          },
          {
            "duration": 0.1875,
            "durationTicks": 144,
            "midi": 67,
            "name": "G4",
            "ticks": 164736,
            "time": 214.5,
            "velocity": 0.5511811023622047
          },
          {
            "duration": 0.1875,
            "durationTicks": 144,
            "midi": 55,
            "name": "G3",
            "ticks": 164736,
            "time": 214.5,
            "velocity": 0.5511811023622047
          },
          {
            "duration": 0.1875,
            "durationTicks": 144,
            "midi": 50,
            "name": "D3",
            "ticks": 164736,
            "time": 214.5,
            "velocity": 0.5511811023622047
          },
          {
            "duration": 0.1875,
            "durationTicks": 144,
            "midi": 67,
            "name": "G4",
            "ticks": 165024,
            "time": 214.875,
            "velocity": 0.5511811023622047
          },
          {
            "duration": 0.1875,
            "durationTicks": 144,
            "midi": 62,
            "name": "D4",
            "ticks": 165024,
            "time": 214.875,
            "velocity": 0.5511811023622047
          },
          {
            "duration": 0.1875,
            "durationTicks": 144,
            "midi": 47,
            "name": "B2",
            "ticks": 165024,
            "time": 214.875,
            "velocity": 0.5511811023622047
          },
          {
            "duration": 0.1875,
            "durationTicks": 144,
            "midi": 43,
            "name": "G2",
            "ticks": 165024,
            "time": 214.875,
            "velocity": 0.5511811023622047
          },
          {
            "duration": 0.1875,
            "durationTicks": 144,
            "midi": 59,
            "name": "B3",
            "ticks": 165024,
            "time": 214.875,
            "velocity": 0.5511811023622047
          },
          {
            "duration": 0.1875,
            "durationTicks": 144,
            "midi": 50,
            "name": "D3",
            "ticks": 165024,
            "time": 214.875,
            "velocity": 0.5511811023622047
          },
          {
            "duration": 0.1875,
            "durationTicks": 144,
            "midi": 55,
            "name": "G3",
            "ticks": 165024,
            "time": 214.875,
            "velocity": 0.5511811023622047
          },
          {
            "duration": 0.1875,
            "durationTicks": 144,
            "midi": 62,
            "name": "D4",
            "ticks": 165168,
            "time": 215.0625,
            "velocity": 0.5511811023622047
          },
          {
            "duration": 0.1875,
            "durationTicks": 144,
            "midi": 55,
            "name": "G3",
            "ticks": 165168,
            "time": 215.0625,
            "velocity": 0.5511811023622047
          },
          {
            "duration": 0.1875,
            "durationTicks": 144,
            "midi": 43,
            "name": "G2",
            "ticks": 165168,
            "time": 215.0625,
            "velocity": 0.5511811023622047
          },
          {
            "duration": 0.1875,
            "durationTicks": 144,
            "midi": 59,
            "name": "B3",
            "ticks": 165168,
            "time": 215.0625,
            "velocity": 0.5511811023622047
          },
          {
            "duration": 0.1875,
            "durationTicks": 144,
            "midi": 50,
            "name": "D3",
            "ticks": 165168,
            "time": 215.0625,
            "velocity": 0.5511811023622047
          },
          {
            "duration": 0.1875,
            "durationTicks": 144,
            "midi": 47,
            "name": "B2",
            "ticks": 165168,
            "time": 215.0625,
            "velocity": 0.5511811023622047
          },
          {
            "duration": 0.1875,
            "durationTicks": 144,
            "midi": 67,
            "name": "G4",
            "ticks": 165168,
            "time": 215.0625,
            "velocity": 0.5511811023622047
          },
          {
            "duration": 0.1875,
            "durationTicks": 144,
            "midi": 43,
            "name": "G2",
            "ticks": 165456,
            "time": 215.4375,
            "velocity": 0.5511811023622047
          },
          {
            "duration": 0.1875,
            "durationTicks": 144,
            "midi": 59,
            "name": "B3",
            "ticks": 165456,
            "time": 215.4375,
            "velocity": 0.5511811023622047
          },
          {
            "duration": 0.1875,
            "durationTicks": 144,
            "midi": 62,
            "name": "D4",
            "ticks": 165456,
            "time": 215.4375,
            "velocity": 0.5511811023622047
          },
          {
            "duration": 0.1875,
            "durationTicks": 144,
            "midi": 55,
            "name": "G3",
            "ticks": 165456,
            "time": 215.4375,
            "velocity": 0.5511811023622047
          },
          {
            "duration": 0.1875,
            "durationTicks": 144,
            "midi": 67,
            "name": "G4",
            "ticks": 165456,
            "time": 215.4375,
            "velocity": 0.5511811023622047
          },
          {
            "duration": 0.1875,
            "durationTicks": 144,
            "midi": 47,
            "name": "B2",
            "ticks": 165456,
            "time": 215.4375,
            "velocity": 0.5511811023622047
          },
          {
            "duration": 0.1875,
            "durationTicks": 144,
            "midi": 50,
            "name": "D3",
            "ticks": 165456,
            "time": 215.4375,
            "velocity": 0.5511811023622047
          },
          {
            "duration": 0.1875,
            "durationTicks": 144,
            "midi": 55,
            "name": "G3",
            "ticks": 165600,
            "time": 215.625,
            "velocity": 0.5511811023622047
          },
          {
            "duration": 0.1875,
            "durationTicks": 144,
            "midi": 43,
            "name": "G2",
            "ticks": 165600,
            "time": 215.625,
            "velocity": 0.5511811023622047
          },
          {
            "duration": 0.1875,
            "durationTicks": 144,
            "midi": 67,
            "name": "G4",
            "ticks": 165600,
            "time": 215.625,
            "velocity": 0.5511811023622047
          },
          {
            "duration": 0.1875,
            "durationTicks": 144,
            "midi": 50,
            "name": "D3",
            "ticks": 165600,
            "time": 215.625,
            "velocity": 0.5511811023622047
          },
          {
            "duration": 0.1875,
            "durationTicks": 144,
            "midi": 47,
            "name": "B2",
            "ticks": 165600,
            "time": 215.625,
            "velocity": 0.5511811023622047
          },
          {
            "duration": 0.1875,
            "durationTicks": 144,
            "midi": 59,
            "name": "B3",
            "ticks": 165600,
            "time": 215.625,
            "velocity": 0.5511811023622047
          },
          {
            "duration": 0.1875,
            "durationTicks": 144,
            "midi": 62,
            "name": "D4",
            "ticks": 165600,
            "time": 215.625,
            "velocity": 0.5511811023622047
          },
          {
            "duration": 0.1875,
            "durationTicks": 144,
            "midi": 47,
            "name": "B2",
            "ticks": 165744,
            "time": 215.8125,
            "velocity": 0.5511811023622047
          },
          {
            "duration": 0.1875,
            "durationTicks": 144,
            "midi": 50,
            "name": "D3",
            "ticks": 165744,
            "time": 215.8125,
            "velocity": 0.5511811023622047
          },
          {
            "duration": 0.1875,
            "durationTicks": 144,
            "midi": 59,
            "name": "B3",
            "ticks": 165744,
            "time": 215.8125,
            "velocity": 0.5511811023622047
          },
          {
            "duration": 0.1875,
            "durationTicks": 144,
            "midi": 67,
            "name": "G4",
            "ticks": 165744,
            "time": 215.8125,
            "velocity": 0.5511811023622047
          },
          {
            "duration": 0.1875,
            "durationTicks": 144,
            "midi": 55,
            "name": "G3",
            "ticks": 165744,
            "time": 215.8125,
            "velocity": 0.5511811023622047
          },
          {
            "duration": 0.1875,
            "durationTicks": 144,
            "midi": 62,
            "name": "D4",
            "ticks": 165744,
            "time": 215.8125,
            "velocity": 0.5511811023622047
          },
          {
            "duration": 0.1875,
            "durationTicks": 144,
            "midi": 43,
            "name": "G2",
            "ticks": 165744,
            "time": 215.8125,
            "velocity": 0.5511811023622047
          },
          {
            "duration": 0.1875,
            "durationTicks": 144,
            "midi": 36,
            "name": "C2",
            "ticks": 165888,
            "time": 216,
            "velocity": 0.5511811023622047
          },
          {
            "duration": 0.1875,
            "durationTicks": 144,
            "midi": 52,
            "name": "E3",
            "ticks": 165888,
            "time": 216,
            "velocity": 0.5511811023622047
          },
          {
            "duration": 0.1875,
            "durationTicks": 144,
            "midi": 60,
            "name": "C4",
            "ticks": 165888,
            "time": 216,
            "velocity": 0.5511811023622047
          },
          {
            "duration": 0.1875,
            "durationTicks": 144,
            "midi": 40,
            "name": "E2",
            "ticks": 165888,
            "time": 216,
            "velocity": 0.5511811023622047
          },
          {
            "duration": 0.1875,
            "durationTicks": 144,
            "midi": 55,
            "name": "G3",
            "ticks": 165888,
            "time": 216,
            "velocity": 0.5511811023622047
          },
          {
            "duration": 0.1875,
            "durationTicks": 144,
            "midi": 43,
            "name": "G2",
            "ticks": 165888,
            "time": 216,
            "velocity": 0.5511811023622047
          },
          {
            "duration": 0.1875,
            "durationTicks": 144,
            "midi": 48,
            "name": "C3",
            "ticks": 165888,
            "time": 216,
            "velocity": 0.5511811023622047
          },
          {
            "duration": 0.1875,
            "durationTicks": 144,
            "midi": 52,
            "name": "E3",
            "ticks": 166176,
            "time": 216.375,
            "velocity": 0.5511811023622047
          },
          {
            "duration": 0.1875,
            "durationTicks": 144,
            "midi": 55,
            "name": "G3",
            "ticks": 166176,
            "time": 216.375,
            "velocity": 0.5511811023622047
          },
          {
            "duration": 0.1875,
            "durationTicks": 144,
            "midi": 60,
            "name": "C4",
            "ticks": 166176,
            "time": 216.375,
            "velocity": 0.5511811023622047
          },
          {
            "duration": 0.1875,
            "durationTicks": 144,
            "midi": 43,
            "name": "G2",
            "ticks": 166176,
            "time": 216.375,
            "velocity": 0.5511811023622047
          },
          {
            "duration": 0.1875,
            "durationTicks": 144,
            "midi": 36,
            "name": "C2",
            "ticks": 166176,
            "time": 216.375,
            "velocity": 0.5511811023622047
          },
          {
            "duration": 0.1875,
            "durationTicks": 144,
            "midi": 48,
            "name": "C3",
            "ticks": 166176,
            "time": 216.375,
            "velocity": 0.5511811023622047
          },
          {
            "duration": 0.1875,
            "durationTicks": 144,
            "midi": 40,
            "name": "E2",
            "ticks": 166176,
            "time": 216.375,
            "velocity": 0.5511811023622047
          },
          {
            "duration": 0.1875,
            "durationTicks": 144,
            "midi": 40,
            "name": "E2",
            "ticks": 166320,
            "time": 216.5625,
            "velocity": 0.5511811023622047
          },
          {
            "duration": 0.1875,
            "durationTicks": 144,
            "midi": 36,
            "name": "C2",
            "ticks": 166320,
            "time": 216.5625,
            "velocity": 0.5511811023622047
          },
          {
            "duration": 0.1875,
            "durationTicks": 144,
            "midi": 43,
            "name": "G2",
            "ticks": 166320,
            "time": 216.5625,
            "velocity": 0.5511811023622047
          },
          {
            "duration": 0.1875,
            "durationTicks": 144,
            "midi": 52,
            "name": "E3",
            "ticks": 166320,
            "time": 216.5625,
            "velocity": 0.5511811023622047
          },
          {
            "duration": 0.1875,
            "durationTicks": 144,
            "midi": 48,
            "name": "C3",
            "ticks": 166320,
            "time": 216.5625,
            "velocity": 0.5511811023622047
          },
          {
            "duration": 0.1875,
            "durationTicks": 144,
            "midi": 55,
            "name": "G3",
            "ticks": 166320,
            "time": 216.5625,
            "velocity": 0.5511811023622047
          },
          {
            "duration": 0.1875,
            "durationTicks": 144,
            "midi": 60,
            "name": "C4",
            "ticks": 166320,
            "time": 216.5625,
            "velocity": 0.5511811023622047
          },
          {
            "duration": 0.1875,
            "durationTicks": 144,
            "midi": 36,
            "name": "C2",
            "ticks": 166608,
            "time": 216.9375,
            "velocity": 0.5511811023622047
          },
          {
            "duration": 0.1875,
            "durationTicks": 144,
            "midi": 40,
            "name": "E2",
            "ticks": 166608,
            "time": 216.9375,
            "velocity": 0.5511811023622047
          },
          {
            "duration": 0.1875,
            "durationTicks": 144,
            "midi": 55,
            "name": "G3",
            "ticks": 166608,
            "time": 216.9375,
            "velocity": 0.5511811023622047
          },
          {
            "duration": 0.1875,
            "durationTicks": 144,
            "midi": 52,
            "name": "E3",
            "ticks": 166608,
            "time": 216.9375,
            "velocity": 0.5511811023622047
          },
          {
            "duration": 0.1875,
            "durationTicks": 144,
            "midi": 48,
            "name": "C3",
            "ticks": 166608,
            "time": 216.9375,
            "velocity": 0.5511811023622047
          },
          {
            "duration": 0.1875,
            "durationTicks": 144,
            "midi": 60,
            "name": "C4",
            "ticks": 166608,
            "time": 216.9375,
            "velocity": 0.5511811023622047
          },
          {
            "duration": 0.1875,
            "durationTicks": 144,
            "midi": 43,
            "name": "G2",
            "ticks": 166608,
            "time": 216.9375,
            "velocity": 0.5511811023622047
          },
          {
            "duration": 0.1875,
            "durationTicks": 144,
            "midi": 60,
            "name": "C4",
            "ticks": 166752,
            "time": 217.125,
            "velocity": 0.5511811023622047
          },
          {
            "duration": 0.1875,
            "durationTicks": 144,
            "midi": 52,
            "name": "E3",
            "ticks": 166752,
            "time": 217.125,
            "velocity": 0.5511811023622047
          },
          {
            "duration": 0.1875,
            "durationTicks": 144,
            "midi": 43,
            "name": "G2",
            "ticks": 166752,
            "time": 217.125,
            "velocity": 0.5511811023622047
          },
          {
            "duration": 0.1875,
            "durationTicks": 144,
            "midi": 55,
            "name": "G3",
            "ticks": 166752,
            "time": 217.125,
            "velocity": 0.5511811023622047
          },
          {
            "duration": 0.1875,
            "durationTicks": 144,
            "midi": 40,
            "name": "E2",
            "ticks": 166752,
            "time": 217.125,
            "velocity": 0.5511811023622047
          },
          {
            "duration": 0.1875,
            "durationTicks": 144,
            "midi": 48,
            "name": "C3",
            "ticks": 166752,
            "time": 217.125,
            "velocity": 0.5511811023622047
          },
          {
            "duration": 0.1875,
            "durationTicks": 144,
            "midi": 36,
            "name": "C2",
            "ticks": 166752,
            "time": 217.125,
            "velocity": 0.5511811023622047
          },
          {
            "duration": 0.1875,
            "durationTicks": 144,
            "midi": 60,
            "name": "C4",
            "ticks": 166896,
            "time": 217.3125,
            "velocity": 0.5511811023622047
          },
          {
            "duration": 0.1875,
            "durationTicks": 144,
            "midi": 55,
            "name": "G3",
            "ticks": 166896,
            "time": 217.3125,
            "velocity": 0.5511811023622047
          },
          {
            "duration": 0.1875,
            "durationTicks": 144,
            "midi": 40,
            "name": "E2",
            "ticks": 166896,
            "time": 217.3125,
            "velocity": 0.5511811023622047
          },
          {
            "duration": 0.1875,
            "durationTicks": 144,
            "midi": 52,
            "name": "E3",
            "ticks": 166896,
            "time": 217.3125,
            "velocity": 0.5511811023622047
          },
          {
            "duration": 0.1875,
            "durationTicks": 144,
            "midi": 48,
            "name": "C3",
            "ticks": 166896,
            "time": 217.3125,
            "velocity": 0.5511811023622047
          },
          {
            "duration": 0.1875,
            "durationTicks": 144,
            "midi": 36,
            "name": "C2",
            "ticks": 166896,
            "time": 217.3125,
            "velocity": 0.5511811023622047
          },
          {
            "duration": 0.1875,
            "durationTicks": 144,
            "midi": 43,
            "name": "G2",
            "ticks": 166896,
            "time": 217.3125,
            "velocity": 0.5511811023622047
          },
          {
            "duration": 0.1875,
            "durationTicks": 144,
            "midi": 52,
            "name": "E3",
            "ticks": 167040,
            "time": 217.5,
            "velocity": 0.5511811023622047
          },
          {
            "duration": 0.1875,
            "durationTicks": 144,
            "midi": 43,
            "name": "G2",
            "ticks": 167040,
            "time": 217.5,
            "velocity": 0.5511811023622047
          },
          {
            "duration": 0.1875,
            "durationTicks": 144,
            "midi": 55,
            "name": "G3",
            "ticks": 167040,
            "time": 217.5,
            "velocity": 0.5511811023622047
          },
          {
            "duration": 0.1875,
            "durationTicks": 144,
            "midi": 40,
            "name": "E2",
            "ticks": 167040,
            "time": 217.5,
            "velocity": 0.5511811023622047
          },
          {
            "duration": 0.1875,
            "durationTicks": 144,
            "midi": 48,
            "name": "C3",
            "ticks": 167040,
            "time": 217.5,
            "velocity": 0.5511811023622047
          },
          {
            "duration": 0.1875,
            "durationTicks": 144,
            "midi": 60,
            "name": "C4",
            "ticks": 167040,
            "time": 217.5,
            "velocity": 0.5511811023622047
          },
          {
            "duration": 0.1875,
            "durationTicks": 144,
            "midi": 36,
            "name": "C2",
            "ticks": 167040,
            "time": 217.5,
            "velocity": 0.5511811023622047
          },
          {
            "duration": 0.1875,
            "durationTicks": 144,
            "midi": 60,
            "name": "C4",
            "ticks": 167328,
            "time": 217.875,
            "velocity": 0.5511811023622047
          },
          {
            "duration": 0.1875,
            "durationTicks": 144,
            "midi": 55,
            "name": "G3",
            "ticks": 167328,
            "time": 217.875,
            "velocity": 0.5511811023622047
          },
          {
            "duration": 0.1875,
            "durationTicks": 144,
            "midi": 52,
            "name": "E3",
            "ticks": 167328,
            "time": 217.875,
            "velocity": 0.5511811023622047
          },
          {
            "duration": 0.1875,
            "durationTicks": 144,
            "midi": 40,
            "name": "E2",
            "ticks": 167328,
            "time": 217.875,
            "velocity": 0.5511811023622047
          },
          {
            "duration": 0.1875,
            "durationTicks": 144,
            "midi": 48,
            "name": "C3",
            "ticks": 167328,
            "time": 217.875,
            "velocity": 0.5511811023622047
          },
          {
            "duration": 0.1875,
            "durationTicks": 144,
            "midi": 36,
            "name": "C2",
            "ticks": 167328,
            "time": 217.875,
            "velocity": 0.5511811023622047
          },
          {
            "duration": 0.1875,
            "durationTicks": 144,
            "midi": 43,
            "name": "G2",
            "ticks": 167328,
            "time": 217.875,
            "velocity": 0.5511811023622047
          },
          {
            "duration": 0.1875,
            "durationTicks": 144,
            "midi": 36,
            "name": "C2",
            "ticks": 167472,
            "time": 218.0625,
            "velocity": 0.5511811023622047
          },
          {
            "duration": 0.1875,
            "durationTicks": 144,
            "midi": 60,
            "name": "C4",
            "ticks": 167472,
            "time": 218.0625,
            "velocity": 0.5511811023622047
          },
          {
            "duration": 0.1875,
            "durationTicks": 144,
            "midi": 52,
            "name": "E3",
            "ticks": 167472,
            "time": 218.0625,
            "velocity": 0.5511811023622047
          },
          {
            "duration": 0.1875,
            "durationTicks": 144,
            "midi": 48,
            "name": "C3",
            "ticks": 167472,
            "time": 218.0625,
            "velocity": 0.5511811023622047
          },
          {
            "duration": 0.1875,
            "durationTicks": 144,
            "midi": 55,
            "name": "G3",
            "ticks": 167472,
            "time": 218.0625,
            "velocity": 0.5511811023622047
          },
          {
            "duration": 0.1875,
            "durationTicks": 144,
            "midi": 43,
            "name": "G2",
            "ticks": 167472,
            "time": 218.0625,
            "velocity": 0.5511811023622047
          },
          {
            "duration": 0.1875,
            "durationTicks": 144,
            "midi": 40,
            "name": "E2",
            "ticks": 167472,
            "time": 218.0625,
            "velocity": 0.5511811023622047
          },
          {
            "duration": 0.1875,
            "durationTicks": 144,
            "midi": 43,
            "name": "G2",
            "ticks": 167760,
            "time": 218.4375,
            "velocity": 0.5511811023622047
          },
          {
            "duration": 0.1875,
            "durationTicks": 144,
            "midi": 55,
            "name": "G3",
            "ticks": 167760,
            "time": 218.4375,
            "velocity": 0.5511811023622047
          },
          {
            "duration": 0.1875,
            "durationTicks": 144,
            "midi": 48,
            "name": "C3",
            "ticks": 167760,
            "time": 218.4375,
            "velocity": 0.5511811023622047
          },
          {
            "duration": 0.1875,
            "durationTicks": 144,
            "midi": 60,
            "name": "C4",
            "ticks": 167760,
            "time": 218.4375,
            "velocity": 0.5511811023622047
          },
          {
            "duration": 0.1875,
            "durationTicks": 144,
            "midi": 40,
            "name": "E2",
            "ticks": 167760,
            "time": 218.4375,
            "velocity": 0.5511811023622047
          },
          {
            "duration": 0.1875,
            "durationTicks": 144,
            "midi": 36,
            "name": "C2",
            "ticks": 167760,
            "time": 218.4375,
            "velocity": 0.5511811023622047
          },
          {
            "duration": 0.1875,
            "durationTicks": 144,
            "midi": 52,
            "name": "E3",
            "ticks": 167760,
            "time": 218.4375,
            "velocity": 0.5511811023622047
          },
          {
            "duration": 0.1875,
            "durationTicks": 144,
            "midi": 48,
            "name": "C3",
            "ticks": 167904,
            "time": 218.625,
            "velocity": 0.5511811023622047
          },
          {
            "duration": 0.1875,
            "durationTicks": 144,
            "midi": 60,
            "name": "C4",
            "ticks": 167904,
            "time": 218.625,
            "velocity": 0.5511811023622047
          },
          {
            "duration": 0.1875,
            "durationTicks": 144,
            "midi": 40,
            "name": "E2",
            "ticks": 167904,
            "time": 218.625,
            "velocity": 0.5511811023622047
          },
          {
            "duration": 0.1875,
            "durationTicks": 144,
            "midi": 43,
            "name": "G2",
            "ticks": 167904,
            "time": 218.625,
            "velocity": 0.5511811023622047
          },
          {
            "duration": 0.1875,
            "durationTicks": 144,
            "midi": 55,
            "name": "G3",
            "ticks": 167904,
            "time": 218.625,
            "velocity": 0.5511811023622047
          },
          {
            "duration": 0.1875,
            "durationTicks": 144,
            "midi": 36,
            "name": "C2",
            "ticks": 167904,
            "time": 218.625,
            "velocity": 0.5511811023622047
          },
          {
            "duration": 0.1875,
            "durationTicks": 144,
            "midi": 52,
            "name": "E3",
            "ticks": 167904,
            "time": 218.625,
            "velocity": 0.5511811023622047
          },
          {
            "duration": 0.1875,
            "durationTicks": 144,
            "midi": 55,
            "name": "G3",
            "ticks": 168048,
            "time": 218.8125,
            "velocity": 0.5511811023622047
          },
          {
            "duration": 0.1875,
            "durationTicks": 144,
            "midi": 36,
            "name": "C2",
            "ticks": 168048,
            "time": 218.8125,
            "velocity": 0.5511811023622047
          },
          {
            "duration": 0.1875,
            "durationTicks": 144,
            "midi": 43,
            "name": "G2",
            "ticks": 168048,
            "time": 218.8125,
            "velocity": 0.5511811023622047
          },
          {
            "duration": 0.1875,
            "durationTicks": 144,
            "midi": 48,
            "name": "C3",
            "ticks": 168048,
            "time": 218.8125,
            "velocity": 0.5511811023622047
          },
          {
            "duration": 0.1875,
            "durationTicks": 144,
            "midi": 60,
            "name": "C4",
            "ticks": 168048,
            "time": 218.8125,
            "velocity": 0.5511811023622047
          },
          {
            "duration": 0.1875,
            "durationTicks": 144,
            "midi": 40,
            "name": "E2",
            "ticks": 168048,
            "time": 218.8125,
            "velocity": 0.5511811023622047
          },
          {
            "duration": 0.1875,
            "durationTicks": 144,
            "midi": 52,
            "name": "E3",
            "ticks": 168048,
            "time": 218.8125,
            "velocity": 0.5511811023622047
          },
          {
            "duration": 0.1875,
            "durationTicks": 144,
            "midi": 62,
            "name": "D4",
            "ticks": 168192,
            "time": 219,
            "velocity": 0.5511811023622047
          },
          {
            "duration": 0.1875,
            "durationTicks": 144,
            "midi": 57,
            "name": "A3",
            "ticks": 168192,
            "time": 219,
            "velocity": 0.5511811023622047
          },
          {
            "duration": 0.1875,
            "durationTicks": 144,
            "midi": 54,
            "name": "F#3",
            "ticks": 168192,
            "time": 219,
            "velocity": 0.5511811023622047
          },
          {
            "duration": 0.1875,
            "durationTicks": 144,
            "midi": 50,
            "name": "D3",
            "ticks": 168192,
            "time": 219,
            "velocity": 0.5511811023622047
          },
          {
            "duration": 0.1875,
            "durationTicks": 144,
            "midi": 45,
            "name": "A2",
            "ticks": 168192,
            "time": 219,
            "velocity": 0.5511811023622047
          },
          {
            "duration": 0.1875,
            "durationTicks": 144,
            "midi": 38,
            "name": "D2",
            "ticks": 168192,
            "time": 219,
            "velocity": 0.5511811023622047
          },
          {
            "duration": 0.1875,
            "durationTicks": 144,
            "midi": 42,
            "name": "F#2",
            "ticks": 168192,
            "time": 219,
            "velocity": 0.5511811023622047
          },
          {
            "duration": 0.1875,
            "durationTicks": 144,
            "midi": 57,
            "name": "A3",
            "ticks": 168480,
            "time": 219.375,
            "velocity": 0.5511811023622047
          },
          {
            "duration": 0.1875,
            "durationTicks": 144,
            "midi": 54,
            "name": "F#3",
            "ticks": 168480,
            "time": 219.375,
            "velocity": 0.5511811023622047
          },
          {
            "duration": 0.1875,
            "durationTicks": 144,
            "midi": 38,
            "name": "D2",
            "ticks": 168480,
            "time": 219.375,
            "velocity": 0.5511811023622047
          },
          {
            "duration": 0.1875,
            "durationTicks": 144,
            "midi": 50,
            "name": "D3",
            "ticks": 168480,
            "time": 219.375,
            "velocity": 0.5511811023622047
          },
          {
            "duration": 0.1875,
            "durationTicks": 144,
            "midi": 45,
            "name": "A2",
            "ticks": 168480,
            "time": 219.375,
            "velocity": 0.5511811023622047
          },
          {
            "duration": 0.1875,
            "durationTicks": 144,
            "midi": 42,
            "name": "F#2",
            "ticks": 168480,
            "time": 219.375,
            "velocity": 0.5511811023622047
          },
          {
            "duration": 0.1875,
            "durationTicks": 144,
            "midi": 62,
            "name": "D4",
            "ticks": 168480,
            "time": 219.375,
            "velocity": 0.5511811023622047
          },
          {
            "duration": 0.1875,
            "durationTicks": 144,
            "midi": 56,
            "name": "G#3",
            "ticks": 168768,
            "time": 219.75,
            "velocity": 0.5511811023622047
          },
          {
            "duration": 0.1875,
            "durationTicks": 144,
            "midi": 59,
            "name": "B3",
            "ticks": 168768,
            "time": 219.75,
            "velocity": 0.5511811023622047
          },
          {
            "duration": 0.1875,
            "durationTicks": 144,
            "midi": 52,
            "name": "E3",
            "ticks": 168768,
            "time": 219.75,
            "velocity": 0.5511811023622047
          },
          {
            "duration": 0.1875,
            "durationTicks": 144,
            "midi": 47,
            "name": "B2",
            "ticks": 168768,
            "time": 219.75,
            "velocity": 0.5511811023622047
          },
          {
            "duration": 0.1875,
            "durationTicks": 144,
            "midi": 40,
            "name": "E2",
            "ticks": 168768,
            "time": 219.75,
            "velocity": 0.5511811023622047
          },
          {
            "duration": 0.1875,
            "durationTicks": 144,
            "midi": 44,
            "name": "G#2",
            "ticks": 168768,
            "time": 219.75,
            "velocity": 0.5511811023622047
          },
          {
            "duration": 0.1875,
            "durationTicks": 144,
            "midi": 64,
            "name": "E4",
            "ticks": 168768,
            "time": 219.75,
            "velocity": 0.5511811023622047
          },
          {
            "duration": 0.1875,
            "durationTicks": 144,
            "midi": 44,
            "name": "G#2",
            "ticks": 169056,
            "time": 220.125,
            "velocity": 0.5511811023622047
          },
          {
            "duration": 0.1875,
            "durationTicks": 144,
            "midi": 47,
            "name": "B2",
            "ticks": 169056,
            "time": 220.125,
            "velocity": 0.5511811023622047
          },
          {
            "duration": 0.1875,
            "durationTicks": 144,
            "midi": 64,
            "name": "E4",
            "ticks": 169056,
            "time": 220.125,
            "velocity": 0.5511811023622047
          },
          {
            "duration": 0.1875,
            "durationTicks": 144,
            "midi": 52,
            "name": "E3",
            "ticks": 169056,
            "time": 220.125,
            "velocity": 0.5511811023622047
          },
          {
            "duration": 0.1875,
            "durationTicks": 144,
            "midi": 59,
            "name": "B3",
            "ticks": 169056,
            "time": 220.125,
            "velocity": 0.5511811023622047
          },
          {
            "duration": 0.1875,
            "durationTicks": 144,
            "midi": 40,
            "name": "E2",
            "ticks": 169056,
            "time": 220.125,
            "velocity": 0.5511811023622047
          },
          {
            "duration": 0.1875,
            "durationTicks": 144,
            "midi": 56,
            "name": "G#3",
            "ticks": 169056,
            "time": 220.125,
            "velocity": 0.5511811023622047
          },
          {
            "duration": 0.1875,
            "durationTicks": 144,
            "midi": 52,
            "name": "E3",
            "ticks": 169200,
            "time": 220.3125,
            "velocity": 0.5511811023622047
          },
          {
            "duration": 0.1875,
            "durationTicks": 144,
            "midi": 56,
            "name": "G#3",
            "ticks": 169200,
            "time": 220.3125,
            "velocity": 0.5511811023622047
          },
          {
            "duration": 0.1875,
            "durationTicks": 144,
            "midi": 40,
            "name": "E2",
            "ticks": 169200,
            "time": 220.3125,
            "velocity": 0.5511811023622047
          },
          {
            "duration": 0.1875,
            "durationTicks": 144,
            "midi": 47,
            "name": "B2",
            "ticks": 169200,
            "time": 220.3125,
            "velocity": 0.5511811023622047
          },
          {
            "duration": 0.1875,
            "durationTicks": 144,
            "midi": 59,
            "name": "B3",
            "ticks": 169200,
            "time": 220.3125,
            "velocity": 0.5511811023622047
          },
          {
            "duration": 0.1875,
            "durationTicks": 144,
            "midi": 64,
            "name": "E4",
            "ticks": 169200,
            "time": 220.3125,
            "velocity": 0.5511811023622047
          },
          {
            "duration": 0.1875,
            "durationTicks": 144,
            "midi": 44,
            "name": "G#2",
            "ticks": 169200,
            "time": 220.3125,
            "velocity": 0.5511811023622047
          },
          {
            "duration": 0.1875,
            "durationTicks": 144,
            "midi": 44,
            "name": "G#2",
            "ticks": 169488,
            "time": 220.6875,
            "velocity": 0.5511811023622047
          },
          {
            "duration": 0.1875,
            "durationTicks": 144,
            "midi": 56,
            "name": "G#3",
            "ticks": 169488,
            "time": 220.6875,
            "velocity": 0.5511811023622047
          },
          {
            "duration": 0.1875,
            "durationTicks": 144,
            "midi": 40,
            "name": "E2",
            "ticks": 169488,
            "time": 220.6875,
            "velocity": 0.5511811023622047
          },
          {
            "duration": 0.1875,
            "durationTicks": 144,
            "midi": 52,
            "name": "E3",
            "ticks": 169488,
            "time": 220.6875,
            "velocity": 0.5511811023622047
          },
          {
            "duration": 0.1875,
            "durationTicks": 144,
            "midi": 59,
            "name": "B3",
            "ticks": 169488,
            "time": 220.6875,
            "velocity": 0.5511811023622047
          },
          {
            "duration": 0.1875,
            "durationTicks": 144,
            "midi": 64,
            "name": "E4",
            "ticks": 169488,
            "time": 220.6875,
            "velocity": 0.5511811023622047
          },
          {
            "duration": 0.1875,
            "durationTicks": 144,
            "midi": 47,
            "name": "B2",
            "ticks": 169488,
            "time": 220.6875,
            "velocity": 0.5511811023622047
          },
          {
            "duration": 0.1875,
            "durationTicks": 144,
            "midi": 44,
            "name": "G#2",
            "ticks": 169632,
            "time": 220.875,
            "velocity": 0.5511811023622047
          },
          {
            "duration": 0.1875,
            "durationTicks": 144,
            "midi": 47,
            "name": "B2",
            "ticks": 169632,
            "time": 220.875,
            "velocity": 0.5511811023622047
          },
          {
            "duration": 0.1875,
            "durationTicks": 144,
            "midi": 52,
            "name": "E3",
            "ticks": 169632,
            "time": 220.875,
            "velocity": 0.5511811023622047
          },
          {
            "duration": 0.1875,
            "durationTicks": 144,
            "midi": 59,
            "name": "B3",
            "ticks": 169632,
            "time": 220.875,
            "velocity": 0.5511811023622047
          },
          {
            "duration": 0.1875,
            "durationTicks": 144,
            "midi": 64,
            "name": "E4",
            "ticks": 169632,
            "time": 220.875,
            "velocity": 0.5511811023622047
          },
          {
            "duration": 0.1875,
            "durationTicks": 144,
            "midi": 40,
            "name": "E2",
            "ticks": 169632,
            "time": 220.875,
            "velocity": 0.5511811023622047
          },
          {
            "duration": 0.1875,
            "durationTicks": 144,
            "midi": 56,
            "name": "G#3",
            "ticks": 169632,
            "time": 220.875,
            "velocity": 0.5511811023622047
          },
          {
            "duration": 0.1875,
            "durationTicks": 144,
            "midi": 56,
            "name": "G#3",
            "ticks": 169776,
            "time": 221.0625,
            "velocity": 0.5511811023622047
          },
          {
            "duration": 0.1875,
            "durationTicks": 144,
            "midi": 40,
            "name": "E2",
            "ticks": 169776,
            "time": 221.0625,
            "velocity": 0.5511811023622047
          },
          {
            "duration": 0.1875,
            "durationTicks": 144,
            "midi": 59,
            "name": "B3",
            "ticks": 169776,
            "time": 221.0625,
            "velocity": 0.5511811023622047
          },
          {
            "duration": 0.1875,
            "durationTicks": 144,
            "midi": 52,
            "name": "E3",
            "ticks": 169776,
            "time": 221.0625,
            "velocity": 0.5511811023622047
          },
          {
            "duration": 0.1875,
            "durationTicks": 144,
            "midi": 47,
            "name": "B2",
            "ticks": 169776,
            "time": 221.0625,
            "velocity": 0.5511811023622047
          },
          {
            "duration": 0.1875,
            "durationTicks": 144,
            "midi": 64,
            "name": "E4",
            "ticks": 169776,
            "time": 221.0625,
            "velocity": 0.5511811023622047
          },
          {
            "duration": 0.1875,
            "durationTicks": 144,
            "midi": 44,
            "name": "G#2",
            "ticks": 169776,
            "time": 221.0625,
            "velocity": 0.5511811023622047
          },
          {
            "duration": 0.1875,
            "durationTicks": 144,
            "midi": 64,
            "name": "E4",
            "ticks": 169920,
            "time": 221.25,
            "velocity": 0.5511811023622047
          },
          {
            "duration": 0.1875,
            "durationTicks": 144,
            "midi": 52,
            "name": "E3",
            "ticks": 169920,
            "time": 221.25,
            "velocity": 0.5511811023622047
          },
          {
            "duration": 0.1875,
            "durationTicks": 144,
            "midi": 40,
            "name": "E2",
            "ticks": 169920,
            "time": 221.25,
            "velocity": 0.5511811023622047
          },
          {
            "duration": 0.1875,
            "durationTicks": 144,
            "midi": 47,
            "name": "B2",
            "ticks": 169920,
            "time": 221.25,
            "velocity": 0.5511811023622047
          },
          {
            "duration": 0.1875,
            "durationTicks": 144,
            "midi": 56,
            "name": "G#3",
            "ticks": 169920,
            "time": 221.25,
            "velocity": 0.5511811023622047
          },
          {
            "duration": 0.1875,
            "durationTicks": 144,
            "midi": 44,
            "name": "G#2",
            "ticks": 169920,
            "time": 221.25,
            "velocity": 0.5511811023622047
          },
          {
            "duration": 0.1875,
            "durationTicks": 144,
            "midi": 59,
            "name": "B3",
            "ticks": 169920,
            "time": 221.25,
            "velocity": 0.5511811023622047
          },
          {
            "duration": 0.1875,
            "durationTicks": 144,
            "midi": 40,
            "name": "E2",
            "ticks": 170208,
            "time": 221.625,
            "velocity": 0.5511811023622047
          },
          {
            "duration": 0.1875,
            "durationTicks": 144,
            "midi": 64,
            "name": "E4",
            "ticks": 170208,
            "time": 221.625,
            "velocity": 0.5511811023622047
          },
          {
            "duration": 0.1875,
            "durationTicks": 144,
            "midi": 44,
            "name": "G#2",
            "ticks": 170208,
            "time": 221.625,
            "velocity": 0.5511811023622047
          },
          {
            "duration": 0.1875,
            "durationTicks": 144,
            "midi": 59,
            "name": "B3",
            "ticks": 170208,
            "time": 221.625,
            "velocity": 0.5511811023622047
          },
          {
            "duration": 0.1875,
            "durationTicks": 144,
            "midi": 52,
            "name": "E3",
            "ticks": 170208,
            "time": 221.625,
            "velocity": 0.5511811023622047
          },
          {
            "duration": 0.1875,
            "durationTicks": 144,
            "midi": 47,
            "name": "B2",
            "ticks": 170208,
            "time": 221.625,
            "velocity": 0.5511811023622047
          },
          {
            "duration": 0.1875,
            "durationTicks": 144,
            "midi": 56,
            "name": "G#3",
            "ticks": 170208,
            "time": 221.625,
            "velocity": 0.5511811023622047
          },
          {
            "duration": 0.1875,
            "durationTicks": 144,
            "midi": 59,
            "name": "B3",
            "ticks": 170352,
            "time": 221.8125,
            "velocity": 0.5511811023622047
          },
          {
            "duration": 0.1875,
            "durationTicks": 144,
            "midi": 40,
            "name": "E2",
            "ticks": 170352,
            "time": 221.8125,
            "velocity": 0.5511811023622047
          },
          {
            "duration": 0.1875,
            "durationTicks": 144,
            "midi": 56,
            "name": "G#3",
            "ticks": 170352,
            "time": 221.8125,
            "velocity": 0.5511811023622047
          },
          {
            "duration": 0.1875,
            "durationTicks": 144,
            "midi": 52,
            "name": "E3",
            "ticks": 170352,
            "time": 221.8125,
            "velocity": 0.5511811023622047
          },
          {
            "duration": 0.1875,
            "durationTicks": 144,
            "midi": 64,
            "name": "E4",
            "ticks": 170352,
            "time": 221.8125,
            "velocity": 0.5511811023622047
          },
          {
            "duration": 0.1875,
            "durationTicks": 144,
            "midi": 47,
            "name": "B2",
            "ticks": 170352,
            "time": 221.8125,
            "velocity": 0.5511811023622047
          },
          {
            "duration": 0.1875,
            "durationTicks": 144,
            "midi": 44,
            "name": "G#2",
            "ticks": 170352,
            "time": 221.8125,
            "velocity": 0.5511811023622047
          },
          {
            "duration": 0.1875,
            "durationTicks": 144,
            "midi": 56,
            "name": "G#3",
            "ticks": 170640,
            "time": 222.1875,
            "velocity": 0.5511811023622047
          },
          {
            "duration": 0.1875,
            "durationTicks": 144,
            "midi": 59,
            "name": "B3",
            "ticks": 170640,
            "time": 222.1875,
            "velocity": 0.5511811023622047
          },
          {
            "duration": 0.1875,
            "durationTicks": 144,
            "midi": 47,
            "name": "B2",
            "ticks": 170640,
            "time": 222.1875,
            "velocity": 0.5511811023622047
          },
          {
            "duration": 0.1875,
            "durationTicks": 144,
            "midi": 64,
            "name": "E4",
            "ticks": 170640,
            "time": 222.1875,
            "velocity": 0.5511811023622047
          },
          {
            "duration": 0.1875,
            "durationTicks": 144,
            "midi": 44,
            "name": "G#2",
            "ticks": 170640,
            "time": 222.1875,
            "velocity": 0.5511811023622047
          },
          {
            "duration": 0.1875,
            "durationTicks": 144,
            "midi": 52,
            "name": "E3",
            "ticks": 170640,
            "time": 222.1875,
            "velocity": 0.5511811023622047
          },
          {
            "duration": 0.1875,
            "durationTicks": 144,
            "midi": 40,
            "name": "E2",
            "ticks": 170640,
            "time": 222.1875,
            "velocity": 0.5511811023622047
          },
          {
            "duration": 0.1875,
            "durationTicks": 144,
            "midi": 44,
            "name": "G#2",
            "ticks": 170784,
            "time": 222.375,
            "velocity": 0.5511811023622047
          },
          {
            "duration": 0.1875,
            "durationTicks": 144,
            "midi": 59,
            "name": "B3",
            "ticks": 170784,
            "time": 222.375,
            "velocity": 0.5511811023622047
          },
          {
            "duration": 0.1875,
            "durationTicks": 144,
            "midi": 40,
            "name": "E2",
            "ticks": 170784,
            "time": 222.375,
            "velocity": 0.5511811023622047
          },
          {
            "duration": 0.1875,
            "durationTicks": 144,
            "midi": 52,
            "name": "E3",
            "ticks": 170784,
            "time": 222.375,
            "velocity": 0.5511811023622047
          },
          {
            "duration": 0.1875,
            "durationTicks": 144,
            "midi": 47,
            "name": "B2",
            "ticks": 170784,
            "time": 222.375,
            "velocity": 0.5511811023622047
          },
          {
            "duration": 0.1875,
            "durationTicks": 144,
            "midi": 64,
            "name": "E4",
            "ticks": 170784,
            "time": 222.375,
            "velocity": 0.5511811023622047
          },
          {
            "duration": 0.1875,
            "durationTicks": 144,
            "midi": 56,
            "name": "G#3",
            "ticks": 170784,
            "time": 222.375,
            "velocity": 0.5511811023622047
          },
          {
            "duration": 0.1875,
            "durationTicks": 144,
            "midi": 59,
            "name": "B3",
            "ticks": 170928,
            "time": 222.5625,
            "velocity": 0.5511811023622047
          },
          {
            "duration": 0.1875,
            "durationTicks": 144,
            "midi": 44,
            "name": "G#2",
            "ticks": 170928,
            "time": 222.5625,
            "velocity": 0.5511811023622047
          },
          {
            "duration": 0.1875,
            "durationTicks": 144,
            "midi": 47,
            "name": "B2",
            "ticks": 170928,
            "time": 222.5625,
            "velocity": 0.5511811023622047
          },
          {
            "duration": 0.1875,
            "durationTicks": 144,
            "midi": 40,
            "name": "E2",
            "ticks": 170928,
            "time": 222.5625,
            "velocity": 0.5511811023622047
          },
          {
            "duration": 0.1875,
            "durationTicks": 144,
            "midi": 52,
            "name": "E3",
            "ticks": 170928,
            "time": 222.5625,
            "velocity": 0.5511811023622047
          },
          {
            "duration": 0.1875,
            "durationTicks": 144,
            "midi": 64,
            "name": "E4",
            "ticks": 170928,
            "time": 222.5625,
            "velocity": 0.5511811023622047
          },
          {
            "duration": 0.1875,
            "durationTicks": 144,
            "midi": 56,
            "name": "G#3",
            "ticks": 170928,
            "time": 222.5625,
            "velocity": 0.5511811023622047
          },
          {
            "duration": 0.1875,
            "durationTicks": 144,
            "midi": 47,
            "name": "B2",
            "ticks": 171072,
            "time": 222.75,
            "velocity": 0.5511811023622047
          },
          {
            "duration": 0.1875,
            "durationTicks": 144,
            "midi": 43,
            "name": "G2",
            "ticks": 171072,
            "time": 222.75,
            "velocity": 0.5511811023622047
          },
          {
            "duration": 0.1875,
            "durationTicks": 144,
            "midi": 59,
            "name": "B3",
            "ticks": 171072,
            "time": 222.75,
            "velocity": 0.5511811023622047
          },
          {
            "duration": 0.1875,
            "durationTicks": 144,
            "midi": 55,
            "name": "G3",
            "ticks": 171072,
            "time": 222.75,
            "velocity": 0.5511811023622047
          },
          {
            "duration": 0.1875,
            "durationTicks": 144,
            "midi": 67,
            "name": "G4",
            "ticks": 171072,
            "time": 222.75,
            "velocity": 0.5511811023622047
          },
          {
            "duration": 0.1875,
            "durationTicks": 144,
            "midi": 50,
            "name": "D3",
            "ticks": 171072,
            "time": 222.75,
            "velocity": 0.5511811023622047
          },
          {
            "duration": 0.1875,
            "durationTicks": 144,
            "midi": 62,
            "name": "D4",
            "ticks": 171072,
            "time": 222.75,
            "velocity": 0.5511811023622047
          },
          {
            "duration": 0.1875,
            "durationTicks": 144,
            "midi": 43,
            "name": "G2",
            "ticks": 171360,
            "time": 223.125,
            "velocity": 0.5511811023622047
          },
          {
            "duration": 0.1875,
            "durationTicks": 144,
            "midi": 62,
            "name": "D4",
            "ticks": 171360,
            "time": 223.125,
            "velocity": 0.5511811023622047
          },
          {
            "duration": 0.1875,
            "durationTicks": 144,
            "midi": 67,
            "name": "G4",
            "ticks": 171360,
            "time": 223.125,
            "velocity": 0.5511811023622047
          },
          {
            "duration": 0.1875,
            "durationTicks": 144,
            "midi": 47,
            "name": "B2",
            "ticks": 171360,
            "time": 223.125,
            "velocity": 0.5511811023622047
          },
          {
            "duration": 0.1875,
            "durationTicks": 144,
            "midi": 59,
            "name": "B3",
            "ticks": 171360,
            "time": 223.125,
            "velocity": 0.5511811023622047
          },
          {
            "duration": 0.1875,
            "durationTicks": 144,
            "midi": 50,
            "name": "D3",
            "ticks": 171360,
            "time": 223.125,
            "velocity": 0.5511811023622047
          },
          {
            "duration": 0.1875,
            "durationTicks": 144,
            "midi": 55,
            "name": "G3",
            "ticks": 171360,
            "time": 223.125,
            "velocity": 0.5511811023622047
          },
          {
            "duration": 0.1875,
            "durationTicks": 144,
            "midi": 59,
            "name": "B3",
            "ticks": 171504,
            "time": 223.3125,
            "velocity": 0.5511811023622047
          },
          {
            "duration": 0.1875,
            "durationTicks": 144,
            "midi": 62,
            "name": "D4",
            "ticks": 171504,
            "time": 223.3125,
            "velocity": 0.5511811023622047
          },
          {
            "duration": 0.1875,
            "durationTicks": 144,
            "midi": 67,
            "name": "G4",
            "ticks": 171504,
            "time": 223.3125,
            "velocity": 0.5511811023622047
          },
          {
            "duration": 0.1875,
            "durationTicks": 144,
            "midi": 47,
            "name": "B2",
            "ticks": 171504,
            "time": 223.3125,
            "velocity": 0.5511811023622047
          },
          {
            "duration": 0.1875,
            "durationTicks": 144,
            "midi": 43,
            "name": "G2",
            "ticks": 171504,
            "time": 223.3125,
            "velocity": 0.5511811023622047
          },
          {
            "duration": 0.1875,
            "durationTicks": 144,
            "midi": 55,
            "name": "G3",
            "ticks": 171504,
            "time": 223.3125,
            "velocity": 0.5511811023622047
          },
          {
            "duration": 0.1875,
            "durationTicks": 144,
            "midi": 50,
            "name": "D3",
            "ticks": 171504,
            "time": 223.3125,
            "velocity": 0.5511811023622047
          },
          {
            "duration": 0.1875,
            "durationTicks": 144,
            "midi": 62,
            "name": "D4",
            "ticks": 171792,
            "time": 223.6875,
            "velocity": 0.5511811023622047
          },
          {
            "duration": 0.1875,
            "durationTicks": 144,
            "midi": 59,
            "name": "B3",
            "ticks": 171792,
            "time": 223.6875,
            "velocity": 0.5511811023622047
          },
          {
            "duration": 0.1875,
            "durationTicks": 144,
            "midi": 67,
            "name": "G4",
            "ticks": 171792,
            "time": 223.6875,
            "velocity": 0.5511811023622047
          },
          {
            "duration": 0.1875,
            "durationTicks": 144,
            "midi": 47,
            "name": "B2",
            "ticks": 171792,
            "time": 223.6875,
            "velocity": 0.5511811023622047
          },
          {
            "duration": 0.1875,
            "durationTicks": 144,
            "midi": 55,
            "name": "G3",
            "ticks": 171792,
            "time": 223.6875,
            "velocity": 0.5511811023622047
          },
          {
            "duration": 0.1875,
            "durationTicks": 144,
            "midi": 43,
            "name": "G2",
            "ticks": 171792,
            "time": 223.6875,
            "velocity": 0.5511811023622047
          },
          {
            "duration": 0.1875,
            "durationTicks": 144,
            "midi": 50,
            "name": "D3",
            "ticks": 171792,
            "time": 223.6875,
            "velocity": 0.5511811023622047
          },
          {
            "duration": 0.1875,
            "durationTicks": 144,
            "midi": 59,
            "name": "B3",
            "ticks": 171936,
            "time": 223.875,
            "velocity": 0.5511811023622047
          },
          {
            "duration": 0.1875,
            "durationTicks": 144,
            "midi": 62,
            "name": "D4",
            "ticks": 171936,
            "time": 223.875,
            "velocity": 0.5511811023622047
          },
          {
            "duration": 0.1875,
            "durationTicks": 144,
            "midi": 55,
            "name": "G3",
            "ticks": 171936,
            "time": 223.875,
            "velocity": 0.5511811023622047
          },
          {
            "duration": 0.1875,
            "durationTicks": 144,
            "midi": 43,
            "name": "G2",
            "ticks": 171936,
            "time": 223.875,
            "velocity": 0.5511811023622047
          },
          {
            "duration": 0.1875,
            "durationTicks": 144,
            "midi": 67,
            "name": "G4",
            "ticks": 171936,
            "time": 223.875,
            "velocity": 0.5511811023622047
          },
          {
            "duration": 0.1875,
            "durationTicks": 144,
            "midi": 47,
            "name": "B2",
            "ticks": 171936,
            "time": 223.875,
            "velocity": 0.5511811023622047
          },
          {
            "duration": 0.1875,
            "durationTicks": 144,
            "midi": 50,
            "name": "D3",
            "ticks": 171936,
            "time": 223.875,
            "velocity": 0.5511811023622047
          },
          {
            "duration": 0.1875,
            "durationTicks": 144,
            "midi": 47,
            "name": "B2",
            "ticks": 172080,
            "time": 224.0625,
            "velocity": 0.5511811023622047
          },
          {
            "duration": 0.1875,
            "durationTicks": 144,
            "midi": 59,
            "name": "B3",
            "ticks": 172080,
            "time": 224.0625,
            "velocity": 0.5511811023622047
          },
          {
            "duration": 0.1875,
            "durationTicks": 144,
            "midi": 67,
            "name": "G4",
            "ticks": 172080,
            "time": 224.0625,
            "velocity": 0.5511811023622047
          },
          {
            "duration": 0.1875,
            "durationTicks": 144,
            "midi": 62,
            "name": "D4",
            "ticks": 172080,
            "time": 224.0625,
            "velocity": 0.5511811023622047
          },
          {
            "duration": 0.1875,
            "durationTicks": 144,
            "midi": 50,
            "name": "D3",
            "ticks": 172080,
            "time": 224.0625,
            "velocity": 0.5511811023622047
          },
          {
            "duration": 0.1875,
            "durationTicks": 144,
            "midi": 55,
            "name": "G3",
            "ticks": 172080,
            "time": 224.0625,
            "velocity": 0.5511811023622047
          },
          {
            "duration": 0.1875,
            "durationTicks": 144,
            "midi": 43,
            "name": "G2",
            "ticks": 172080,
            "time": 224.0625,
            "velocity": 0.5511811023622047
          },
          {
            "duration": 0.1875,
            "durationTicks": 144,
            "midi": 48,
            "name": "C3",
            "ticks": 172224,
            "time": 224.25,
            "velocity": 0.5511811023622047
          },
          {
            "duration": 0.1875,
            "durationTicks": 144,
            "midi": 60,
            "name": "C4",
            "ticks": 172224,
            "time": 224.25,
            "velocity": 0.5511811023622047
          },
          {
            "duration": 0.1875,
            "durationTicks": 144,
            "midi": 40,
            "name": "E2",
            "ticks": 172224,
            "time": 224.25,
            "velocity": 0.5511811023622047
          },
          {
            "duration": 0.1875,
            "durationTicks": 144,
            "midi": 52,
            "name": "E3",
            "ticks": 172224,
            "time": 224.25,
            "velocity": 0.5511811023622047
          },
          {
            "duration": 0.1875,
            "durationTicks": 144,
            "midi": 36,
            "name": "C2",
            "ticks": 172224,
            "time": 224.25,
            "velocity": 0.5511811023622047
          },
          {
            "duration": 0.1875,
            "durationTicks": 144,
            "midi": 55,
            "name": "G3",
            "ticks": 172224,
            "time": 224.25,
            "velocity": 0.5511811023622047
          },
          {
            "duration": 0.1875,
            "durationTicks": 144,
            "midi": 43,
            "name": "G2",
            "ticks": 172224,
            "time": 224.25,
            "velocity": 0.5511811023622047
          },
          {
            "duration": 0.1875,
            "durationTicks": 144,
            "midi": 60,
            "name": "C4",
            "ticks": 172512,
            "time": 224.625,
            "velocity": 0.5511811023622047
          },
          {
            "duration": 0.1875,
            "durationTicks": 144,
            "midi": 43,
            "name": "G2",
            "ticks": 172512,
            "time": 224.625,
            "velocity": 0.5511811023622047
          },
          {
            "duration": 0.1875,
            "durationTicks": 144,
            "midi": 36,
            "name": "C2",
            "ticks": 172512,
            "time": 224.625,
            "velocity": 0.5511811023622047
          },
          {
            "duration": 0.1875,
            "durationTicks": 144,
            "midi": 40,
            "name": "E2",
            "ticks": 172512,
            "time": 224.625,
            "velocity": 0.5511811023622047
          },
          {
            "duration": 0.1875,
            "durationTicks": 144,
            "midi": 52,
            "name": "E3",
            "ticks": 172512,
            "time": 224.625,
            "velocity": 0.5511811023622047
          },
          {
            "duration": 0.1875,
            "durationTicks": 144,
            "midi": 55,
            "name": "G3",
            "ticks": 172512,
            "time": 224.625,
            "velocity": 0.5511811023622047
          },
          {
            "duration": 0.1875,
            "durationTicks": 144,
            "midi": 48,
            "name": "C3",
            "ticks": 172512,
            "time": 224.625,
            "velocity": 0.5511811023622047
          },
          {
            "duration": 0.1875,
            "durationTicks": 144,
            "midi": 48,
            "name": "C3",
            "ticks": 172656,
            "time": 224.8125,
            "velocity": 0.5511811023622047
          },
          {
            "duration": 0.1875,
            "durationTicks": 144,
            "midi": 55,
            "name": "G3",
            "ticks": 172656,
            "time": 224.8125,
            "velocity": 0.5511811023622047
          },
          {
            "duration": 0.1875,
            "durationTicks": 144,
            "midi": 60,
            "name": "C4",
            "ticks": 172656,
            "time": 224.8125,
            "velocity": 0.5511811023622047
          },
          {
            "duration": 0.1875,
            "durationTicks": 144,
            "midi": 43,
            "name": "G2",
            "ticks": 172656,
            "time": 224.8125,
            "velocity": 0.5511811023622047
          },
          {
            "duration": 0.1875,
            "durationTicks": 144,
            "midi": 40,
            "name": "E2",
            "ticks": 172656,
            "time": 224.8125,
            "velocity": 0.5511811023622047
          },
          {
            "duration": 0.1875,
            "durationTicks": 144,
            "midi": 52,
            "name": "E3",
            "ticks": 172656,
            "time": 224.8125,
            "velocity": 0.5511811023622047
          },
          {
            "duration": 0.1875,
            "durationTicks": 144,
            "midi": 36,
            "name": "C2",
            "ticks": 172656,
            "time": 224.8125,
            "velocity": 0.5511811023622047
          },
          {
            "duration": 0.1875,
            "durationTicks": 144,
            "midi": 60,
            "name": "C4",
            "ticks": 172944,
            "time": 225.1875,
            "velocity": 0.5511811023622047
          },
          {
            "duration": 0.1875,
            "durationTicks": 144,
            "midi": 55,
            "name": "G3",
            "ticks": 172944,
            "time": 225.1875,
            "velocity": 0.5511811023622047
          },
          {
            "duration": 0.1875,
            "durationTicks": 144,
            "midi": 48,
            "name": "C3",
            "ticks": 172944,
            "time": 225.1875,
            "velocity": 0.5511811023622047
          },
          {
            "duration": 0.1875,
            "durationTicks": 144,
            "midi": 43,
            "name": "G2",
            "ticks": 172944,
            "time": 225.1875,
            "velocity": 0.5511811023622047
          },
          {
            "duration": 0.1875,
            "durationTicks": 144,
            "midi": 36,
            "name": "C2",
            "ticks": 172944,
            "time": 225.1875,
            "velocity": 0.5511811023622047
          },
          {
            "duration": 0.1875,
            "durationTicks": 144,
            "midi": 40,
            "name": "E2",
            "ticks": 172944,
            "time": 225.1875,
            "velocity": 0.5511811023622047
          },
          {
            "duration": 0.1875,
            "durationTicks": 144,
            "midi": 52,
            "name": "E3",
            "ticks": 172944,
            "time": 225.1875,
            "velocity": 0.5511811023622047
          },
          {
            "duration": 0.1875,
            "durationTicks": 144,
            "midi": 36,
            "name": "C2",
            "ticks": 173088,
            "time": 225.375,
            "velocity": 0.5511811023622047
          },
          {
            "duration": 0.1875,
            "durationTicks": 144,
            "midi": 43,
            "name": "G2",
            "ticks": 173088,
            "time": 225.375,
            "velocity": 0.5511811023622047
          },
          {
            "duration": 0.1875,
            "durationTicks": 144,
            "midi": 60,
            "name": "C4",
            "ticks": 173088,
            "time": 225.375,
            "velocity": 0.5511811023622047
          },
          {
            "duration": 0.1875,
            "durationTicks": 144,
            "midi": 48,
            "name": "C3",
            "ticks": 173088,
            "time": 225.375,
            "velocity": 0.5511811023622047
          },
          {
            "duration": 0.1875,
            "durationTicks": 144,
            "midi": 55,
            "name": "G3",
            "ticks": 173088,
            "time": 225.375,
            "velocity": 0.5511811023622047
          },
          {
            "duration": 0.1875,
            "durationTicks": 144,
            "midi": 52,
            "name": "E3",
            "ticks": 173088,
            "time": 225.375,
            "velocity": 0.5511811023622047
          },
          {
            "duration": 0.1875,
            "durationTicks": 144,
            "midi": 40,
            "name": "E2",
            "ticks": 173088,
            "time": 225.375,
            "velocity": 0.5511811023622047
          },
          {
            "duration": 0.1875,
            "durationTicks": 144,
            "midi": 43,
            "name": "G2",
            "ticks": 173232,
            "time": 225.5625,
            "velocity": 0.5511811023622047
          },
          {
            "duration": 0.1875,
            "durationTicks": 144,
            "midi": 55,
            "name": "G3",
            "ticks": 173232,
            "time": 225.5625,
            "velocity": 0.5511811023622047
          },
          {
            "duration": 0.1875,
            "durationTicks": 144,
            "midi": 60,
            "name": "C4",
            "ticks": 173232,
            "time": 225.5625,
            "velocity": 0.5511811023622047
          },
          {
            "duration": 0.1875,
            "durationTicks": 144,
            "midi": 52,
            "name": "E3",
            "ticks": 173232,
            "time": 225.5625,
            "velocity": 0.5511811023622047
          },
          {
            "duration": 0.1875,
            "durationTicks": 144,
            "midi": 40,
            "name": "E2",
            "ticks": 173232,
            "time": 225.5625,
            "velocity": 0.5511811023622047
          },
          {
            "duration": 0.1875,
            "durationTicks": 144,
            "midi": 48,
            "name": "C3",
            "ticks": 173232,
            "time": 225.5625,
            "velocity": 0.5511811023622047
          },
          {
            "duration": 0.1875,
            "durationTicks": 144,
            "midi": 36,
            "name": "C2",
            "ticks": 173232,
            "time": 225.5625,
            "velocity": 0.5511811023622047
          },
          {
            "duration": 0.1875,
            "durationTicks": 144,
            "midi": 60,
            "name": "C4",
            "ticks": 173376,
            "time": 225.75,
            "velocity": 0.5511811023622047
          },
          {
            "duration": 0.1875,
            "durationTicks": 144,
            "midi": 48,
            "name": "C3",
            "ticks": 173376,
            "time": 225.75,
            "velocity": 0.5511811023622047
          },
          {
            "duration": 0.1875,
            "durationTicks": 144,
            "midi": 55,
            "name": "G3",
            "ticks": 173376,
            "time": 225.75,
            "velocity": 0.5511811023622047
          },
          {
            "duration": 0.1875,
            "durationTicks": 144,
            "midi": 52,
            "name": "E3",
            "ticks": 173376,
            "time": 225.75,
            "velocity": 0.5511811023622047
          },
          {
            "duration": 0.1875,
            "durationTicks": 144,
            "midi": 43,
            "name": "G2",
            "ticks": 173376,
            "time": 225.75,
            "velocity": 0.5511811023622047
          },
          {
            "duration": 0.1875,
            "durationTicks": 144,
            "midi": 36,
            "name": "C2",
            "ticks": 173376,
            "time": 225.75,
            "velocity": 0.5511811023622047
          },
          {
            "duration": 0.1875,
            "durationTicks": 144,
            "midi": 40,
            "name": "E2",
            "ticks": 173376,
            "time": 225.75,
            "velocity": 0.5511811023622047
          },
          {
            "duration": 0.1875,
            "durationTicks": 144,
            "midi": 48,
            "name": "C3",
            "ticks": 173664,
            "time": 226.125,
            "velocity": 0.5511811023622047
          },
          {
            "duration": 0.1875,
            "durationTicks": 144,
            "midi": 40,
            "name": "E2",
            "ticks": 173664,
            "time": 226.125,
            "velocity": 0.5511811023622047
          },
          {
            "duration": 0.1875,
            "durationTicks": 144,
            "midi": 43,
            "name": "G2",
            "ticks": 173664,
            "time": 226.125,
            "velocity": 0.5511811023622047
          },
          {
            "duration": 0.1875,
            "durationTicks": 144,
            "midi": 60,
            "name": "C4",
            "ticks": 173664,
            "time": 226.125,
            "velocity": 0.5511811023622047
          },
          {
            "duration": 0.1875,
            "durationTicks": 144,
            "midi": 52,
            "name": "E3",
            "ticks": 173664,
            "time": 226.125,
            "velocity": 0.5511811023622047
          },
          {
            "duration": 0.1875,
            "durationTicks": 144,
            "midi": 36,
            "name": "C2",
            "ticks": 173664,
            "time": 226.125,
            "velocity": 0.5511811023622047
          },
          {
            "duration": 0.1875,
            "durationTicks": 144,
            "midi": 55,
            "name": "G3",
            "ticks": 173664,
            "time": 226.125,
            "velocity": 0.5511811023622047
          },
          {
            "duration": 0.1875,
            "durationTicks": 144,
            "midi": 43,
            "name": "G2",
            "ticks": 173808,
            "time": 226.3125,
            "velocity": 0.5511811023622047
          },
          {
            "duration": 0.1875,
            "durationTicks": 144,
            "midi": 52,
            "name": "E3",
            "ticks": 173808,
            "time": 226.3125,
            "velocity": 0.5511811023622047
          },
          {
            "duration": 0.1875,
            "durationTicks": 144,
            "midi": 55,
            "name": "G3",
            "ticks": 173808,
            "time": 226.3125,
            "velocity": 0.5511811023622047
          },
          {
            "duration": 0.1875,
            "durationTicks": 144,
            "midi": 40,
            "name": "E2",
            "ticks": 173808,
            "time": 226.3125,
            "velocity": 0.5511811023622047
          },
          {
            "duration": 0.1875,
            "durationTicks": 144,
            "midi": 60,
            "name": "C4",
            "ticks": 173808,
            "time": 226.3125,
            "velocity": 0.5511811023622047
          },
          {
            "duration": 0.1875,
            "durationTicks": 144,
            "midi": 36,
            "name": "C2",
            "ticks": 173808,
            "time": 226.3125,
            "velocity": 0.5511811023622047
          },
          {
            "duration": 0.1875,
            "durationTicks": 144,
            "midi": 48,
            "name": "C3",
            "ticks": 173808,
            "time": 226.3125,
            "velocity": 0.5511811023622047
          },
          {
            "duration": 0.1875,
            "durationTicks": 144,
            "midi": 40,
            "name": "E2",
            "ticks": 174096,
            "time": 226.6875,
            "velocity": 0.5511811023622047
          },
          {
            "duration": 0.1875,
            "durationTicks": 144,
            "midi": 48,
            "name": "C3",
            "ticks": 174096,
            "time": 226.6875,
            "velocity": 0.5511811023622047
          },
          {
            "duration": 0.1875,
            "durationTicks": 144,
            "midi": 52,
            "name": "E3",
            "ticks": 174096,
            "time": 226.6875,
            "velocity": 0.5511811023622047
          },
          {
            "duration": 0.1875,
            "durationTicks": 144,
            "midi": 43,
            "name": "G2",
            "ticks": 174096,
            "time": 226.6875,
            "velocity": 0.5511811023622047
          },
          {
            "duration": 0.1875,
            "durationTicks": 144,
            "midi": 55,
            "name": "G3",
            "ticks": 174096,
            "time": 226.6875,
            "velocity": 0.5511811023622047
          },
          {
            "duration": 0.1875,
            "durationTicks": 144,
            "midi": 60,
            "name": "C4",
            "ticks": 174096,
            "time": 226.6875,
            "velocity": 0.5511811023622047
          },
          {
            "duration": 0.1875,
            "durationTicks": 144,
            "midi": 36,
            "name": "C2",
            "ticks": 174096,
            "time": 226.6875,
            "velocity": 0.5511811023622047
          },
          {
            "duration": 0.1875,
            "durationTicks": 144,
            "midi": 43,
            "name": "G2",
            "ticks": 174240,
            "time": 226.875,
            "velocity": 0.5511811023622047
          },
          {
            "duration": 0.1875,
            "durationTicks": 144,
            "midi": 36,
            "name": "C2",
            "ticks": 174240,
            "time": 226.875,
            "velocity": 0.5511811023622047
          },
          {
            "duration": 0.1875,
            "durationTicks": 144,
            "midi": 40,
            "name": "E2",
            "ticks": 174240,
            "time": 226.875,
            "velocity": 0.5511811023622047
          },
          {
            "duration": 0.1875,
            "durationTicks": 144,
            "midi": 55,
            "name": "G3",
            "ticks": 174240,
            "time": 226.875,
            "velocity": 0.5511811023622047
          },
          {
            "duration": 0.1875,
            "durationTicks": 144,
            "midi": 48,
            "name": "C3",
            "ticks": 174240,
            "time": 226.875,
            "velocity": 0.5511811023622047
          },
          {
            "duration": 0.1875,
            "durationTicks": 144,
            "midi": 60,
            "name": "C4",
            "ticks": 174240,
            "time": 226.875,
            "velocity": 0.5511811023622047
          },
          {
            "duration": 0.1875,
            "durationTicks": 144,
            "midi": 52,
            "name": "E3",
            "ticks": 174240,
            "time": 226.875,
            "velocity": 0.5511811023622047
          },
          {
            "duration": 0.1875,
            "durationTicks": 144,
            "midi": 48,
            "name": "C3",
            "ticks": 174384,
            "time": 227.0625,
            "velocity": 0.5511811023622047
          },
          {
            "duration": 0.1875,
            "durationTicks": 144,
            "midi": 36,
            "name": "C2",
            "ticks": 174384,
            "time": 227.0625,
            "velocity": 0.5511811023622047
          },
          {
            "duration": 0.1875,
            "durationTicks": 144,
            "midi": 60,
            "name": "C4",
            "ticks": 174384,
            "time": 227.0625,
            "velocity": 0.5511811023622047
          },
          {
            "duration": 0.1875,
            "durationTicks": 144,
            "midi": 43,
            "name": "G2",
            "ticks": 174384,
            "time": 227.0625,
            "velocity": 0.5511811023622047
          },
          {
            "duration": 0.1875,
            "durationTicks": 144,
            "midi": 55,
            "name": "G3",
            "ticks": 174384,
            "time": 227.0625,
            "velocity": 0.5511811023622047
          },
          {
            "duration": 0.1875,
            "durationTicks": 144,
            "midi": 40,
            "name": "E2",
            "ticks": 174384,
            "time": 227.0625,
            "velocity": 0.5511811023622047
          },
          {
            "duration": 0.1875,
            "durationTicks": 144,
            "midi": 52,
            "name": "E3",
            "ticks": 174384,
            "time": 227.0625,
            "velocity": 0.5511811023622047
          },
          {
            "duration": 0.1875,
            "durationTicks": 144,
            "midi": 54,
            "name": "F#3",
            "ticks": 174528,
            "time": 227.25,
            "velocity": 0.5511811023622047
          },
          {
            "duration": 0.1875,
            "durationTicks": 144,
            "midi": 50,
            "name": "D3",
            "ticks": 174528,
            "time": 227.25,
            "velocity": 0.5511811023622047
          },
          {
            "duration": 0.1875,
            "durationTicks": 144,
            "midi": 45,
            "name": "A2",
            "ticks": 174528,
            "time": 227.25,
            "velocity": 0.5511811023622047
          },
          {
            "duration": 0.1875,
            "durationTicks": 144,
            "midi": 62,
            "name": "D4",
            "ticks": 174528,
            "time": 227.25,
            "velocity": 0.5511811023622047
          },
          {
            "duration": 0.1875,
            "durationTicks": 144,
            "midi": 38,
            "name": "D2",
            "ticks": 174528,
            "time": 227.25,
            "velocity": 0.5511811023622047
          },
          {
            "duration": 0.1875,
            "durationTicks": 144,
            "midi": 42,
            "name": "F#2",
            "ticks": 174528,
            "time": 227.25,
            "velocity": 0.5511811023622047
          },
          {
            "duration": 0.1875,
            "durationTicks": 144,
            "midi": 57,
            "name": "A3",
            "ticks": 174528,
            "time": 227.25,
            "velocity": 0.5511811023622047
          },
          {
            "duration": 0.1875,
            "durationTicks": 144,
            "midi": 62,
            "name": "D4",
            "ticks": 174816,
            "time": 227.625,
            "velocity": 0.5511811023622047
          },
          {
            "duration": 0.1875,
            "durationTicks": 144,
            "midi": 54,
            "name": "F#3",
            "ticks": 174816,
            "time": 227.625,
            "velocity": 0.5511811023622047
          },
          {
            "duration": 0.1875,
            "durationTicks": 144,
            "midi": 57,
            "name": "A3",
            "ticks": 174816,
            "time": 227.625,
            "velocity": 0.5511811023622047
          },
          {
            "duration": 0.1875,
            "durationTicks": 144,
            "midi": 45,
            "name": "A2",
            "ticks": 174816,
            "time": 227.625,
            "velocity": 0.5511811023622047
          },
          {
            "duration": 0.1875,
            "durationTicks": 144,
            "midi": 42,
            "name": "F#2",
            "ticks": 174816,
            "time": 227.625,
            "velocity": 0.5511811023622047
          },
          {
            "duration": 0.1875,
            "durationTicks": 144,
            "midi": 50,
            "name": "D3",
            "ticks": 174816,
            "time": 227.625,
            "velocity": 0.5511811023622047
          },
          {
            "duration": 0.1875,
            "durationTicks": 144,
            "midi": 38,
            "name": "D2",
            "ticks": 174816,
            "time": 227.625,
            "velocity": 0.5511811023622047
          },
          {
            "duration": 0.1875,
            "durationTicks": 144,
            "midi": 64,
            "name": "E4",
            "ticks": 175104,
            "time": 228,
            "velocity": 0.5511811023622047
          },
          {
            "duration": 0.1875,
            "durationTicks": 144,
            "midi": 40,
            "name": "E2",
            "ticks": 175104,
            "time": 228,
            "velocity": 0.5511811023622047
          },
          {
            "duration": 0.1875,
            "durationTicks": 144,
            "midi": 47,
            "name": "B2",
            "ticks": 175104,
            "time": 228,
            "velocity": 0.5511811023622047
          },
          {
            "duration": 0.1875,
            "durationTicks": 144,
            "midi": 44,
            "name": "G#2",
            "ticks": 175104,
            "time": 228,
            "velocity": 0.5511811023622047
          },
          {
            "duration": 0.1875,
            "durationTicks": 144,
            "midi": 59,
            "name": "B3",
            "ticks": 175104,
            "time": 228,
            "velocity": 0.5511811023622047
          },
          {
            "duration": 0.1875,
            "durationTicks": 144,
            "midi": 56,
            "name": "G#3",
            "ticks": 175104,
            "time": 228,
            "velocity": 0.5511811023622047
          },
          {
            "duration": 0.1875,
            "durationTicks": 144,
            "midi": 52,
            "name": "E3",
            "ticks": 175104,
            "time": 228,
            "velocity": 0.5511811023622047
          },
          {
            "duration": 0.1875,
            "durationTicks": 144,
            "midi": 44,
            "name": "G#2",
            "ticks": 175392,
            "time": 228.375,
            "velocity": 0.5511811023622047
          },
          {
            "duration": 0.1875,
            "durationTicks": 144,
            "midi": 52,
            "name": "E3",
            "ticks": 175392,
            "time": 228.375,
            "velocity": 0.5511811023622047
          },
          {
            "duration": 0.1875,
            "durationTicks": 144,
            "midi": 56,
            "name": "G#3",
            "ticks": 175392,
            "time": 228.375,
            "velocity": 0.5511811023622047
          },
          {
            "duration": 0.1875,
            "durationTicks": 144,
            "midi": 47,
            "name": "B2",
            "ticks": 175392,
            "time": 228.375,
            "velocity": 0.5511811023622047
          },
          {
            "duration": 0.1875,
            "durationTicks": 144,
            "midi": 64,
            "name": "E4",
            "ticks": 175392,
            "time": 228.375,
            "velocity": 0.5511811023622047
          },
          {
            "duration": 0.1875,
            "durationTicks": 144,
            "midi": 40,
            "name": "E2",
            "ticks": 175392,
            "time": 228.375,
            "velocity": 0.5511811023622047
          },
          {
            "duration": 0.1875,
            "durationTicks": 144,
            "midi": 59,
            "name": "B3",
            "ticks": 175392,
            "time": 228.375,
            "velocity": 0.5511811023622047
          },
          {
            "duration": 0.1875,
            "durationTicks": 144,
            "midi": 56,
            "name": "G#3",
            "ticks": 175536,
            "time": 228.5625,
            "velocity": 0.5511811023622047
          },
          {
            "duration": 0.1875,
            "durationTicks": 144,
            "midi": 64,
            "name": "E4",
            "ticks": 175536,
            "time": 228.5625,
            "velocity": 0.5511811023622047
          },
          {
            "duration": 0.1875,
            "durationTicks": 144,
            "midi": 52,
            "name": "E3",
            "ticks": 175536,
            "time": 228.5625,
            "velocity": 0.5511811023622047
          },
          {
            "duration": 0.1875,
            "durationTicks": 144,
            "midi": 47,
            "name": "B2",
            "ticks": 175536,
            "time": 228.5625,
            "velocity": 0.5511811023622047
          },
          {
            "duration": 0.1875,
            "durationTicks": 144,
            "midi": 40,
            "name": "E2",
            "ticks": 175536,
            "time": 228.5625,
            "velocity": 0.5511811023622047
          },
          {
            "duration": 0.1875,
            "durationTicks": 144,
            "midi": 44,
            "name": "G#2",
            "ticks": 175536,
            "time": 228.5625,
            "velocity": 0.5511811023622047
          },
          {
            "duration": 0.1875,
            "durationTicks": 144,
            "midi": 59,
            "name": "B3",
            "ticks": 175536,
            "time": 228.5625,
            "velocity": 0.5511811023622047
          },
          {
            "duration": 0.1875,
            "durationTicks": 144,
            "midi": 56,
            "name": "G#3",
            "ticks": 175824,
            "time": 228.9375,
            "velocity": 0.5511811023622047
          },
          {
            "duration": 0.1875,
            "durationTicks": 144,
            "midi": 64,
            "name": "E4",
            "ticks": 175824,
            "time": 228.9375,
            "velocity": 0.5511811023622047
          },
          {
            "duration": 0.1875,
            "durationTicks": 144,
            "midi": 47,
            "name": "B2",
            "ticks": 175824,
            "time": 228.9375,
            "velocity": 0.5511811023622047
          },
          {
            "duration": 0.1875,
            "durationTicks": 144,
            "midi": 44,
            "name": "G#2",
            "ticks": 175824,
            "time": 228.9375,
            "velocity": 0.5511811023622047
          },
          {
            "duration": 0.1875,
            "durationTicks": 144,
            "midi": 52,
            "name": "E3",
            "ticks": 175824,
            "time": 228.9375,
            "velocity": 0.5511811023622047
          },
          {
            "duration": 0.1875,
            "durationTicks": 144,
            "midi": 40,
            "name": "E2",
            "ticks": 175824,
            "time": 228.9375,
            "velocity": 0.5511811023622047
          },
          {
            "duration": 0.1875,
            "durationTicks": 144,
            "midi": 59,
            "name": "B3",
            "ticks": 175824,
            "time": 228.9375,
            "velocity": 0.5511811023622047
          },
          {
            "duration": 0.1875,
            "durationTicks": 144,
            "midi": 59,
            "name": "B3",
            "ticks": 175968,
            "time": 229.125,
            "velocity": 0.5511811023622047
          },
          {
            "duration": 0.1875,
            "durationTicks": 144,
            "midi": 47,
            "name": "B2",
            "ticks": 175968,
            "time": 229.125,
            "velocity": 0.5511811023622047
          },
          {
            "duration": 0.1875,
            "durationTicks": 144,
            "midi": 44,
            "name": "G#2",
            "ticks": 175968,
            "time": 229.125,
            "velocity": 0.5511811023622047
          },
          {
            "duration": 0.1875,
            "durationTicks": 144,
            "midi": 52,
            "name": "E3",
            "ticks": 175968,
            "time": 229.125,
            "velocity": 0.5511811023622047
          },
          {
            "duration": 0.1875,
            "durationTicks": 144,
            "midi": 56,
            "name": "G#3",
            "ticks": 175968,
            "time": 229.125,
            "velocity": 0.5511811023622047
          },
          {
            "duration": 0.1875,
            "durationTicks": 144,
            "midi": 40,
            "name": "E2",
            "ticks": 175968,
            "time": 229.125,
            "velocity": 0.5511811023622047
          },
          {
            "duration": 0.1875,
            "durationTicks": 144,
            "midi": 64,
            "name": "E4",
            "ticks": 175968,
            "time": 229.125,
            "velocity": 0.5511811023622047
          },
          {
            "duration": 0.1875,
            "durationTicks": 144,
            "midi": 47,
            "name": "B2",
            "ticks": 176112,
            "time": 229.3125,
            "velocity": 0.5511811023622047
          },
          {
            "duration": 0.1875,
            "durationTicks": 144,
            "midi": 56,
            "name": "G#3",
            "ticks": 176112,
            "time": 229.3125,
            "velocity": 0.5511811023622047
          },
          {
            "duration": 0.1875,
            "durationTicks": 144,
            "midi": 52,
            "name": "E3",
            "ticks": 176112,
            "time": 229.3125,
            "velocity": 0.5511811023622047
          },
          {
            "duration": 0.1875,
            "durationTicks": 144,
            "midi": 59,
            "name": "B3",
            "ticks": 176112,
            "time": 229.3125,
            "velocity": 0.5511811023622047
          },
          {
            "duration": 0.1875,
            "durationTicks": 144,
            "midi": 44,
            "name": "G#2",
            "ticks": 176112,
            "time": 229.3125,
            "velocity": 0.5511811023622047
          },
          {
            "duration": 0.1875,
            "durationTicks": 144,
            "midi": 40,
            "name": "E2",
            "ticks": 176112,
            "time": 229.3125,
            "velocity": 0.5511811023622047
          },
          {
            "duration": 0.1875,
            "durationTicks": 144,
            "midi": 64,
            "name": "E4",
            "ticks": 176112,
            "time": 229.3125,
            "velocity": 0.5511811023622047
          },
          {
            "duration": 0.1875,
            "durationTicks": 144,
            "midi": 44,
            "name": "G#2",
            "ticks": 176256,
            "time": 229.5,
            "velocity": 0.5511811023622047
          },
          {
            "duration": 0.1875,
            "durationTicks": 144,
            "midi": 56,
            "name": "G#3",
            "ticks": 176256,
            "time": 229.5,
            "velocity": 0.5511811023622047
          },
          {
            "duration": 0.1875,
            "durationTicks": 144,
            "midi": 59,
            "name": "B3",
            "ticks": 176256,
            "time": 229.5,
            "velocity": 0.5511811023622047
          },
          {
            "duration": 0.1875,
            "durationTicks": 144,
            "midi": 64,
            "name": "E4",
            "ticks": 176256,
            "time": 229.5,
            "velocity": 0.5511811023622047
          },
          {
            "duration": 0.1875,
            "durationTicks": 144,
            "midi": 47,
            "name": "B2",
            "ticks": 176256,
            "time": 229.5,
            "velocity": 0.5511811023622047
          },
          {
            "duration": 0.1875,
            "durationTicks": 144,
            "midi": 52,
            "name": "E3",
            "ticks": 176256,
            "time": 229.5,
            "velocity": 0.5511811023622047
          },
          {
            "duration": 0.1875,
            "durationTicks": 144,
            "midi": 40,
            "name": "E2",
            "ticks": 176256,
            "time": 229.5,
            "velocity": 0.5511811023622047
          },
          {
            "duration": 0.1875,
            "durationTicks": 144,
            "midi": 64,
            "name": "E4",
            "ticks": 176544,
            "time": 229.875,
            "velocity": 0.5511811023622047
          },
          {
            "duration": 0.1875,
            "durationTicks": 144,
            "midi": 56,
            "name": "G#3",
            "ticks": 176544,
            "time": 229.875,
            "velocity": 0.5511811023622047
          },
          {
            "duration": 0.1875,
            "durationTicks": 144,
            "midi": 47,
            "name": "B2",
            "ticks": 176544,
            "time": 229.875,
            "velocity": 0.5511811023622047
          },
          {
            "duration": 0.1875,
            "durationTicks": 144,
            "midi": 44,
            "name": "G#2",
            "ticks": 176544,
            "time": 229.875,
            "velocity": 0.5511811023622047
          },
          {
            "duration": 0.1875,
            "durationTicks": 144,
            "midi": 40,
            "name": "E2",
            "ticks": 176544,
            "time": 229.875,
            "velocity": 0.5511811023622047
          },
          {
            "duration": 0.1875,
            "durationTicks": 144,
            "midi": 59,
            "name": "B3",
            "ticks": 176544,
            "time": 229.875,
            "velocity": 0.5511811023622047
          },
          {
            "duration": 0.1875,
            "durationTicks": 144,
            "midi": 52,
            "name": "E3",
            "ticks": 176544,
            "time": 229.875,
            "velocity": 0.5511811023622047
          },
          {
            "duration": 0.1875,
            "durationTicks": 144,
            "midi": 59,
            "name": "B3",
            "ticks": 176688,
            "time": 230.0625,
            "velocity": 0.5511811023622047
          },
          {
            "duration": 0.1875,
            "durationTicks": 144,
            "midi": 56,
            "name": "G#3",
            "ticks": 176688,
            "time": 230.0625,
            "velocity": 0.5511811023622047
          },
          {
            "duration": 0.1875,
            "durationTicks": 144,
            "midi": 44,
            "name": "G#2",
            "ticks": 176688,
            "time": 230.0625,
            "velocity": 0.5511811023622047
          },
          {
            "duration": 0.1875,
            "durationTicks": 144,
            "midi": 40,
            "name": "E2",
            "ticks": 176688,
            "time": 230.0625,
            "velocity": 0.5511811023622047
          },
          {
            "duration": 0.1875,
            "durationTicks": 144,
            "midi": 64,
            "name": "E4",
            "ticks": 176688,
            "time": 230.0625,
            "velocity": 0.5511811023622047
          },
          {
            "duration": 0.1875,
            "durationTicks": 144,
            "midi": 47,
            "name": "B2",
            "ticks": 176688,
            "time": 230.0625,
            "velocity": 0.5511811023622047
          },
          {
            "duration": 0.1875,
            "durationTicks": 144,
            "midi": 52,
            "name": "E3",
            "ticks": 176688,
            "time": 230.0625,
            "velocity": 0.5511811023622047
          },
          {
            "duration": 0.1875,
            "durationTicks": 144,
            "midi": 47,
            "name": "B2",
            "ticks": 176976,
            "time": 230.4375,
            "velocity": 0.5511811023622047
          },
          {
            "duration": 0.1875,
            "durationTicks": 144,
            "midi": 56,
            "name": "G#3",
            "ticks": 176976,
            "time": 230.4375,
            "velocity": 0.5511811023622047
          },
          {
            "duration": 0.1875,
            "durationTicks": 144,
            "midi": 52,
            "name": "E3",
            "ticks": 176976,
            "time": 230.4375,
            "velocity": 0.5511811023622047
          },
          {
            "duration": 0.1875,
            "durationTicks": 144,
            "midi": 59,
            "name": "B3",
            "ticks": 176976,
            "time": 230.4375,
            "velocity": 0.5511811023622047
          },
          {
            "duration": 0.1875,
            "durationTicks": 144,
            "midi": 44,
            "name": "G#2",
            "ticks": 176976,
            "time": 230.4375,
            "velocity": 0.5511811023622047
          },
          {
            "duration": 0.1875,
            "durationTicks": 144,
            "midi": 64,
            "name": "E4",
            "ticks": 176976,
            "time": 230.4375,
            "velocity": 0.5511811023622047
          },
          {
            "duration": 0.1875,
            "durationTicks": 144,
            "midi": 40,
            "name": "E2",
            "ticks": 176976,
            "time": 230.4375,
            "velocity": 0.5511811023622047
          },
          {
            "duration": 0.1875,
            "durationTicks": 144,
            "midi": 44,
            "name": "G#2",
            "ticks": 177120,
            "time": 230.625,
            "velocity": 0.5511811023622047
          },
          {
            "duration": 0.1875,
            "durationTicks": 144,
            "midi": 40,
            "name": "E2",
            "ticks": 177120,
            "time": 230.625,
            "velocity": 0.5511811023622047
          },
          {
            "duration": 0.1875,
            "durationTicks": 144,
            "midi": 52,
            "name": "E3",
            "ticks": 177120,
            "time": 230.625,
            "velocity": 0.5511811023622047
          },
          {
            "duration": 0.1875,
            "durationTicks": 144,
            "midi": 59,
            "name": "B3",
            "ticks": 177120,
            "time": 230.625,
            "velocity": 0.5511811023622047
          },
          {
            "duration": 0.1875,
            "durationTicks": 144,
            "midi": 56,
            "name": "G#3",
            "ticks": 177120,
            "time": 230.625,
            "velocity": 0.5511811023622047
          },
          {
            "duration": 0.1875,
            "durationTicks": 144,
            "midi": 64,
            "name": "E4",
            "ticks": 177120,
            "time": 230.625,
            "velocity": 0.5511811023622047
          },
          {
            "duration": 0.1875,
            "durationTicks": 144,
            "midi": 47,
            "name": "B2",
            "ticks": 177120,
            "time": 230.625,
            "velocity": 0.5511811023622047
          },
          {
            "duration": 0.1875,
            "durationTicks": 144,
            "midi": 40,
            "name": "E2",
            "ticks": 177264,
            "time": 230.8125,
            "velocity": 0.5511811023622047
          },
          {
            "duration": 0.1875,
            "durationTicks": 144,
            "midi": 44,
            "name": "G#2",
            "ticks": 177264,
            "time": 230.8125,
            "velocity": 0.5511811023622047
          },
          {
            "duration": 0.1875,
            "durationTicks": 144,
            "midi": 56,
            "name": "G#3",
            "ticks": 177264,
            "time": 230.8125,
            "velocity": 0.5511811023622047
          },
          {
            "duration": 0.1875,
            "durationTicks": 144,
            "midi": 64,
            "name": "E4",
            "ticks": 177264,
            "time": 230.8125,
            "velocity": 0.5511811023622047
          },
          {
            "duration": 0.1875,
            "durationTicks": 144,
            "midi": 59,
            "name": "B3",
            "ticks": 177264,
            "time": 230.8125,
            "velocity": 0.5511811023622047
          },
          {
            "duration": 0.1875,
            "durationTicks": 144,
            "midi": 52,
            "name": "E3",
            "ticks": 177264,
            "time": 230.8125,
            "velocity": 0.5511811023622047
          },
          {
            "duration": 0.1875,
            "durationTicks": 144,
            "midi": 47,
            "name": "B2",
            "ticks": 177264,
            "time": 230.8125,
            "velocity": 0.5511811023622047
          }
        ],
        "endOfTrackTicks": 177408
      },
      {
        "channel": 9,
        "controlChanges": {},
        "pitchBends": [],
        "instrument": {
          "family": "drums",
          "number": 0,
          "name": "standard kit"
        },
        "name": "Electric Drum Kit",
        "notes": [
          {
            "duration": 0.125,
            "durationTicks": 96,
            "midi": 36,
            "name": "C2",
            "ticks": 0,
            "time": 0,
            "velocity": 0.3937007874015748
          },
          {
            "duration": 0.0625,
            "durationTicks": 48,
            "midi": 33,
            "name": "A1",
            "ticks": 0,
            "time": 0,
            "velocity": 0.3937007874015748
          },
          {
            "duration": 0.0625,
            "durationTicks": 48,
            "midi": 33,
            "name": "A1",
            "ticks": 0,
            "time": 0,
            "velocity": 0.3937007874015748
          },
          {
            "duration": 0.0625,
            "durationTicks": 48,
            "midi": 38,
            "name": "D2",
            "ticks": 288,
            "time": 0.375,
            "velocity": 0.3937007874015748
          },
          {
            "duration": 0.0625,
            "durationTicks": 48,
            "midi": 33,
            "name": "A1",
            "ticks": 288,
            "time": 0.375,
            "velocity": 0.3937007874015748
          },
          {
            "duration": 0.0625,
            "durationTicks": 48,
            "midi": 33,
            "name": "A1",
            "ticks": 288,
            "time": 0.375,
            "velocity": 0.3937007874015748
          },
          {
            "duration": 0.0625,
            "durationTicks": 48,
            "midi": 36,
            "name": "C2",
            "ticks": 432,
            "time": 0.5625,
            "velocity": 0.3937007874015748
          },
          {
            "duration": 0.0625,
            "durationTicks": 48,
            "midi": 33,
            "name": "A1",
            "ticks": 576,
            "time": 0.75,
            "velocity": 0.3937007874015748
          },
          {
            "duration": 0.0625,
            "durationTicks": 48,
            "midi": 33,
            "name": "A1",
            "ticks": 576,
            "time": 0.75,
            "velocity": 0.3937007874015748
          },
          {
            "duration": 0.0625,
            "durationTicks": 48,
            "midi": 36,
            "name": "C2",
            "ticks": 720,
            "time": 0.9375,
            "velocity": 0.3937007874015748
          },
          {
            "duration": 0.0625,
            "durationTicks": 48,
            "midi": 38,
            "name": "D2",
            "ticks": 864,
            "time": 1.125,
            "velocity": 0.3937007874015748
          },
          {
            "duration": 0.0625,
            "durationTicks": 48,
            "midi": 33,
            "name": "A1",
            "ticks": 864,
            "time": 1.125,
            "velocity": 0.3937007874015748
          },
          {
            "duration": 0.125,
            "durationTicks": 96,
            "midi": 36,
            "name": "C2",
            "ticks": 1152,
            "time": 1.5,
            "velocity": 0.3937007874015748
          },
          {
            "duration": 0.0625,
            "durationTicks": 48,
            "midi": 33,
            "name": "A1",
            "ticks": 1152,
            "time": 1.5,
            "velocity": 0.3937007874015748
          },
          {
            "duration": 0.0625,
            "durationTicks": 48,
            "midi": 33,
            "name": "A1",
            "ticks": 1440,
            "time": 1.875,
            "velocity": 0.3937007874015748
          },
          {
            "duration": 0.0625,
            "durationTicks": 48,
            "midi": 38,
            "name": "D2",
            "ticks": 1440,
            "time": 1.875,
            "velocity": 0.3937007874015748
          },
          {
            "duration": 0.0625,
            "durationTicks": 48,
            "midi": 36,
            "name": "C2",
            "ticks": 1584,
            "time": 2.0625,
            "velocity": 0.3937007874015748
          },
          {
            "duration": 0.0625,
            "durationTicks": 48,
            "midi": 33,
            "name": "A1",
            "ticks": 1728,
            "time": 2.25,
            "velocity": 0.3937007874015748
          },
          {
            "duration": 0.0625,
            "durationTicks": 48,
            "midi": 36,
            "name": "C2",
            "ticks": 1872,
            "time": 2.4375,
            "velocity": 0.3937007874015748
          },
          {
            "duration": 0.0625,
            "durationTicks": 48,
            "midi": 33,
            "name": "A1",
            "ticks": 2016,
            "time": 2.625,
            "velocity": 0.3937007874015748
          },
          {
            "duration": 0.0625,
            "durationTicks": 48,
            "midi": 38,
            "name": "D2",
            "ticks": 2016,
            "time": 2.625,
            "velocity": 0.3937007874015748
          },
          {
            "duration": 0.0625,
            "durationTicks": 48,
            "midi": 33,
            "name": "A1",
            "ticks": 2304,
            "time": 3,
            "velocity": 0.3937007874015748
          },
          {
            "duration": 0.125,
            "durationTicks": 96,
            "midi": 36,
            "name": "C2",
            "ticks": 2304,
            "time": 3,
            "velocity": 0.3937007874015748
          },
          {
            "duration": 0.0625,
            "durationTicks": 48,
            "midi": 38,
            "name": "D2",
            "ticks": 2592,
            "time": 3.375,
            "velocity": 0.3937007874015748
          },
          {
            "duration": 0.0625,
            "durationTicks": 48,
            "midi": 33,
            "name": "A1",
            "ticks": 2592,
            "time": 3.375,
            "velocity": 0.3937007874015748
          },
          {
            "duration": 0.0625,
            "durationTicks": 48,
            "midi": 36,
            "name": "C2",
            "ticks": 2736,
            "time": 3.5625,
            "velocity": 0.3937007874015748
          },
          {
            "duration": 0.0625,
            "durationTicks": 48,
            "midi": 33,
            "name": "A1",
            "ticks": 2880,
            "time": 3.75,
            "velocity": 0.3937007874015748
          },
          {
            "duration": 0.0625,
            "durationTicks": 48,
            "midi": 36,
            "name": "C2",
            "ticks": 3024,
            "time": 3.9375,
            "velocity": 0.3937007874015748
          },
          {
            "duration": 0.0625,
            "durationTicks": 48,
            "midi": 33,
            "name": "A1",
            "ticks": 3168,
            "time": 4.125,
            "velocity": 0.3937007874015748
          },
          {
            "duration": 0.0625,
            "durationTicks": 48,
            "midi": 38,
            "name": "D2",
            "ticks": 3168,
            "time": 4.125,
            "velocity": 0.3937007874015748
          },
          {
            "duration": 0.0625,
            "durationTicks": 48,
            "midi": 33,
            "name": "A1",
            "ticks": 3456,
            "time": 4.5,
            "velocity": 0.3937007874015748
          },
          {
            "duration": 0.125,
            "durationTicks": 96,
            "midi": 36,
            "name": "C2",
            "ticks": 3456,
            "time": 4.5,
            "velocity": 0.3937007874015748
          },
          {
            "duration": 0.0625,
            "durationTicks": 48,
            "midi": 33,
            "name": "A1",
            "ticks": 3744,
            "time": 4.875,
            "velocity": 0.3937007874015748
          },
          {
            "duration": 0.0625,
            "durationTicks": 48,
            "midi": 38,
            "name": "D2",
            "ticks": 3744,
            "time": 4.875,
            "velocity": 0.3937007874015748
          },
          {
            "duration": 0.125,
            "durationTicks": 96,
            "midi": 36,
            "name": "C2",
            "ticks": 4032,
            "time": 5.25,
            "velocity": 0.3937007874015748
          },
          {
            "duration": 0.0625,
            "durationTicks": 48,
            "midi": 33,
            "name": "A1",
            "ticks": 4032,
            "time": 5.25,
            "velocity": 0.3937007874015748
          },
          {
            "duration": 0.0625,
            "durationTicks": 48,
            "midi": 33,
            "name": "A1",
            "ticks": 4320,
            "time": 5.625,
            "velocity": 0.3937007874015748
          },
          {
            "duration": 0.0625,
            "durationTicks": 48,
            "midi": 38,
            "name": "D2",
            "ticks": 4320,
            "time": 5.625,
            "velocity": 0.3937007874015748
          },
          {
            "duration": 0.0625,
            "durationTicks": 48,
            "midi": 36,
            "name": "C2",
            "ticks": 4464,
            "time": 5.8125,
            "velocity": 0.3937007874015748
          },
          {
            "duration": 0.0625,
            "durationTicks": 48,
            "midi": 33,
            "name": "A1",
            "ticks": 4608,
            "time": 6,
            "velocity": 0.3937007874015748
          },
          {
            "duration": 0.0625,
            "durationTicks": 48,
            "midi": 36,
            "name": "C2",
            "ticks": 4752,
            "time": 6.1875,
            "velocity": 0.3937007874015748
          },
          {
            "duration": 0.0625,
            "durationTicks": 48,
            "midi": 38,
            "name": "D2",
            "ticks": 4896,
            "time": 6.375,
            "velocity": 0.3937007874015748
          },
          {
            "duration": 0.0625,
            "durationTicks": 48,
            "midi": 33,
            "name": "A1",
            "ticks": 4896,
            "time": 6.375,
            "velocity": 0.3937007874015748
          },
          {
            "duration": 0.125,
            "durationTicks": 96,
            "midi": 36,
            "name": "C2",
            "ticks": 5184,
            "time": 6.75,
            "velocity": 0.3937007874015748
          },
          {
            "duration": 0.0625,
            "durationTicks": 48,
            "midi": 33,
            "name": "A1",
            "ticks": 5184,
            "time": 6.75,
            "velocity": 0.3937007874015748
          },
          {
            "duration": 0.0625,
            "durationTicks": 48,
            "midi": 39,
            "name": "D#2",
            "ticks": 5472,
            "time": 7.125,
            "velocity": 0.3937007874015748
          },
          {
            "duration": 0.0625,
            "durationTicks": 48,
            "midi": 38,
            "name": "D2",
            "ticks": 5472,
            "time": 7.125,
            "velocity": 0.3937007874015748
          },
          {
            "duration": 0.0625,
            "durationTicks": 48,
            "midi": 33,
            "name": "A1",
            "ticks": 5472,
            "time": 7.125,
            "velocity": 0.3937007874015748
          },
          {
            "duration": 0.0625,
            "durationTicks": 48,
            "midi": 36,
            "name": "C2",
            "ticks": 5616,
            "time": 7.3125,
            "velocity": 0.3937007874015748
          },
          {
            "duration": 0.0625,
            "durationTicks": 48,
            "midi": 33,
            "name": "A1",
            "ticks": 5760,
            "time": 7.5,
            "velocity": 0.3937007874015748
          },
          {
            "duration": 0.0625,
            "durationTicks": 48,
            "midi": 39,
            "name": "D#2",
            "ticks": 5760,
            "time": 7.5,
            "velocity": 0.3937007874015748
          },
          {
            "duration": 0.0625,
            "durationTicks": 48,
            "midi": 36,
            "name": "C2",
            "ticks": 5904,
            "time": 7.6875,
            "velocity": 0.3937007874015748
          },
          {
            "duration": 0.0625,
            "durationTicks": 48,
            "midi": 39,
            "name": "D#2",
            "ticks": 6048,
            "time": 7.875,
            "velocity": 0.3937007874015748
          },
          {
            "duration": 0.0625,
            "durationTicks": 48,
            "midi": 38,
            "name": "D2",
            "ticks": 6048,
            "time": 7.875,
            "velocity": 0.3937007874015748
          },
          {
            "duration": 0.0625,
            "durationTicks": 48,
            "midi": 33,
            "name": "A1",
            "ticks": 6048,
            "time": 7.875,
            "velocity": 0.3937007874015748
          },
          {
            "duration": 0.0625,
            "durationTicks": 48,
            "midi": 33,
            "name": "A1",
            "ticks": 6336,
            "time": 8.25,
            "velocity": 0.3937007874015748
          },
          {
            "duration": 0.125,
            "durationTicks": 96,
            "midi": 36,
            "name": "C2",
            "ticks": 6336,
            "time": 8.25,
            "velocity": 0.3937007874015748
          },
          {
            "duration": 0.0625,
            "durationTicks": 48,
            "midi": 38,
            "name": "D2",
            "ticks": 6624,
            "time": 8.625,
            "velocity": 0.3937007874015748
          },
          {
            "duration": 0.0625,
            "durationTicks": 48,
            "midi": 33,
            "name": "A1",
            "ticks": 6624,
            "time": 8.625,
            "velocity": 0.3937007874015748
          },
          {
            "duration": 0.0625,
            "durationTicks": 48,
            "midi": 36,
            "name": "C2",
            "ticks": 6768,
            "time": 8.8125,
            "velocity": 0.3937007874015748
          },
          {
            "duration": 0.0625,
            "durationTicks": 48,
            "midi": 33,
            "name": "A1",
            "ticks": 6912,
            "time": 9,
            "velocity": 0.3937007874015748
          },
          {
            "duration": 0.0625,
            "durationTicks": 48,
            "midi": 36,
            "name": "C2",
            "ticks": 7056,
            "time": 9.1875,
            "velocity": 0.3937007874015748
          },
          {
            "duration": 0.0625,
            "durationTicks": 48,
            "midi": 38,
            "name": "D2",
            "ticks": 7200,
            "time": 9.375,
            "velocity": 0.3937007874015748
          },
          {
            "duration": 0.0625,
            "durationTicks": 48,
            "midi": 33,
            "name": "A1",
            "ticks": 7200,
            "time": 9.375,
            "velocity": 0.3937007874015748
          },
          {
            "duration": 0.125,
            "durationTicks": 96,
            "midi": 36,
            "name": "C2",
            "ticks": 7488,
            "time": 9.75,
            "velocity": 0.3937007874015748
          },
          {
            "duration": 0.0625,
            "durationTicks": 48,
            "midi": 33,
            "name": "A1",
            "ticks": 7488,
            "time": 9.75,
            "velocity": 0.3937007874015748
          },
          {
            "duration": 0.0625,
            "durationTicks": 48,
            "midi": 38,
            "name": "D2",
            "ticks": 7776,
            "time": 10.125,
            "velocity": 0.3937007874015748
          },
          {
            "duration": 0.0625,
            "durationTicks": 48,
            "midi": 33,
            "name": "A1",
            "ticks": 7776,
            "time": 10.125,
            "velocity": 0.3937007874015748
          },
          {
            "duration": 0.0625,
            "durationTicks": 48,
            "midi": 36,
            "name": "C2",
            "ticks": 7920,
            "time": 10.3125,
            "velocity": 0.3937007874015748
          },
          {
            "duration": 0.0625,
            "durationTicks": 48,
            "midi": 33,
            "name": "A1",
            "ticks": 8064,
            "time": 10.5,
            "velocity": 0.3937007874015748
          },
          {
            "duration": 0.0625,
            "durationTicks": 48,
            "midi": 36,
            "name": "C2",
            "ticks": 8208,
            "time": 10.6875,
            "velocity": 0.3937007874015748
          },
          {
            "duration": 0.0625,
            "durationTicks": 48,
            "midi": 33,
            "name": "A1",
            "ticks": 8352,
            "time": 10.875,
            "velocity": 0.3937007874015748
          },
          {
            "duration": 0.0625,
            "durationTicks": 48,
            "midi": 38,
            "name": "D2",
            "ticks": 8352,
            "time": 10.875,
            "velocity": 0.3937007874015748
          },
          {
            "duration": 0.125,
            "durationTicks": 96,
            "midi": 36,
            "name": "C2",
            "ticks": 8640,
            "time": 11.25,
            "velocity": 0.3937007874015748
          },
          {
            "duration": 0.0625,
            "durationTicks": 48,
            "midi": 33,
            "name": "A1",
            "ticks": 8640,
            "time": 11.25,
            "velocity": 0.3937007874015748
          },
          {
            "duration": 0.0625,
            "durationTicks": 48,
            "midi": 33,
            "name": "A1",
            "ticks": 8928,
            "time": 11.625,
            "velocity": 0.3937007874015748
          },
          {
            "duration": 0.0625,
            "durationTicks": 48,
            "midi": 38,
            "name": "D2",
            "ticks": 8928,
            "time": 11.625,
            "velocity": 0.3937007874015748
          },
          {
            "duration": 0.0625,
            "durationTicks": 48,
            "midi": 36,
            "name": "C2",
            "ticks": 9072,
            "time": 11.8125,
            "velocity": 0.3937007874015748
          },
          {
            "duration": 0.0625,
            "durationTicks": 48,
            "midi": 33,
            "name": "A1",
            "ticks": 9216,
            "time": 12,
            "velocity": 0.3937007874015748
          },
          {
            "duration": 0.0625,
            "durationTicks": 48,
            "midi": 36,
            "name": "C2",
            "ticks": 9360,
            "time": 12.1875,
            "velocity": 0.3937007874015748
          },
          {
            "duration": 0.0625,
            "durationTicks": 48,
            "midi": 38,
            "name": "D2",
            "ticks": 9504,
            "time": 12.375,
            "velocity": 0.3937007874015748
          },
          {
            "duration": 0.0625,
            "durationTicks": 48,
            "midi": 33,
            "name": "A1",
            "ticks": 9504,
            "time": 12.375,
            "velocity": 0.3937007874015748
          },
          {
            "duration": 0.0625,
            "durationTicks": 48,
            "midi": 33,
            "name": "A1",
            "ticks": 9792,
            "time": 12.75,
            "velocity": 0.3937007874015748
          },
          {
            "duration": 0.125,
            "durationTicks": 96,
            "midi": 36,
            "name": "C2",
            "ticks": 9792,
            "time": 12.75,
            "velocity": 0.3937007874015748
          },
          {
            "duration": 0.0625,
            "durationTicks": 48,
            "midi": 38,
            "name": "D2",
            "ticks": 10080,
            "time": 13.125,
            "velocity": 0.3937007874015748
          },
          {
            "duration": 0.0625,
            "durationTicks": 48,
            "midi": 33,
            "name": "A1",
            "ticks": 10080,
            "time": 13.125,
            "velocity": 0.3937007874015748
          },
          {
            "duration": 0.125,
            "durationTicks": 96,
            "midi": 36,
            "name": "C2",
            "ticks": 10368,
            "time": 13.5,
            "velocity": 0.3937007874015748
          },
          {
            "duration": 0.0625,
            "durationTicks": 48,
            "midi": 33,
            "name": "A1",
            "ticks": 10368,
            "time": 13.5,
            "velocity": 0.3937007874015748
          },
          {
            "duration": 0.0625,
            "durationTicks": 48,
            "midi": 38,
            "name": "D2",
            "ticks": 10656,
            "time": 13.875,
            "velocity": 0.3937007874015748
          },
          {
            "duration": 0.0625,
            "durationTicks": 48,
            "midi": 33,
            "name": "A1",
            "ticks": 10656,
            "time": 13.875,
            "velocity": 0.3937007874015748
          },
          {
            "duration": 0.0625,
            "durationTicks": 48,
            "midi": 36,
            "name": "C2",
            "ticks": 10800,
            "time": 14.0625,
            "velocity": 0.3937007874015748
          },
          {
            "duration": 0.0625,
            "durationTicks": 48,
            "midi": 33,
            "name": "A1",
            "ticks": 10944,
            "time": 14.25,
            "velocity": 0.3937007874015748
          },
          {
            "duration": 0.0625,
            "durationTicks": 48,
            "midi": 36,
            "name": "C2",
            "ticks": 11088,
            "time": 14.4375,
            "velocity": 0.3937007874015748
          },
          {
            "duration": 0.0625,
            "durationTicks": 48,
            "midi": 33,
            "name": "A1",
            "ticks": 11232,
            "time": 14.625,
            "velocity": 0.3937007874015748
          },
          {
            "duration": 0.0625,
            "durationTicks": 48,
            "midi": 38,
            "name": "D2",
            "ticks": 11232,
            "time": 14.625,
            "velocity": 0.3937007874015748
          },
          {
            "duration": 0.125,
            "durationTicks": 96,
            "midi": 36,
            "name": "C2",
            "ticks": 11520,
            "time": 15,
            "velocity": 0.3937007874015748
          },
          {
            "duration": 0.0625,
            "durationTicks": 48,
            "midi": 33,
            "name": "A1",
            "ticks": 11520,
            "time": 15,
            "velocity": 0.3937007874015748
          },
          {
            "duration": 0.0625,
            "durationTicks": 48,
            "midi": 33,
            "name": "A1",
            "ticks": 11808,
            "time": 15.375,
            "velocity": 0.3937007874015748
          },
          {
            "duration": 0.0625,
            "durationTicks": 48,
            "midi": 33,
            "name": "A1",
            "ticks": 11808,
            "time": 15.375,
            "velocity": 0.3937007874015748
          },
          {
            "duration": 0.0625,
            "durationTicks": 48,
            "midi": 38,
            "name": "D2",
            "ticks": 11808,
            "time": 15.375,
            "velocity": 0.3937007874015748
          },
          {
            "duration": 0.0625,
            "durationTicks": 48,
            "midi": 39,
            "name": "D#2",
            "ticks": 11808,
            "time": 15.375,
            "velocity": 0.3937007874015748
          },
          {
            "duration": 0.0625,
            "durationTicks": 48,
            "midi": 36,
            "name": "C2",
            "ticks": 11952,
            "time": 15.5625,
            "velocity": 0.3937007874015748
          },
          {
            "duration": 0.0625,
            "durationTicks": 48,
            "midi": 39,
            "name": "D#2",
            "ticks": 12096,
            "time": 15.75,
            "velocity": 0.3937007874015748
          },
          {
            "duration": 0.0625,
            "durationTicks": 48,
            "midi": 33,
            "name": "A1",
            "ticks": 12096,
            "time": 15.75,
            "velocity": 0.3937007874015748
          },
          {
            "duration": 0.0625,
            "durationTicks": 48,
            "midi": 33,
            "name": "A1",
            "ticks": 12096,
            "time": 15.75,
            "velocity": 0.3937007874015748
          },
          {
            "duration": 0.0625,
            "durationTicks": 48,
            "midi": 36,
            "name": "C2",
            "ticks": 12240,
            "time": 15.9375,
            "velocity": 0.3937007874015748
          },
          {
            "duration": 0.0625,
            "durationTicks": 48,
            "midi": 39,
            "name": "D#2",
            "ticks": 12384,
            "time": 16.125,
            "velocity": 0.3937007874015748
          },
          {
            "duration": 0.0625,
            "durationTicks": 48,
            "midi": 38,
            "name": "D2",
            "ticks": 12384,
            "time": 16.125,
            "velocity": 0.3937007874015748
          },
          {
            "duration": 0.0625,
            "durationTicks": 48,
            "midi": 33,
            "name": "A1",
            "ticks": 12384,
            "time": 16.125,
            "velocity": 0.3937007874015748
          },
          {
            "duration": 0.0625,
            "durationTicks": 48,
            "midi": 33,
            "name": "A1",
            "ticks": 12384,
            "time": 16.125,
            "velocity": 0.3937007874015748
          },
          {
            "duration": 0.0625,
            "durationTicks": 48,
            "midi": 33,
            "name": "A1",
            "ticks": 12672,
            "time": 16.5,
            "velocity": 0.3937007874015748
          },
          {
            "duration": 0.125,
            "durationTicks": 96,
            "midi": 36,
            "name": "C2",
            "ticks": 12672,
            "time": 16.5,
            "velocity": 0.3937007874015748
          },
          {
            "duration": 0.0625,
            "durationTicks": 48,
            "midi": 38,
            "name": "D2",
            "ticks": 12960,
            "time": 16.875,
            "velocity": 0.3937007874015748
          },
          {
            "duration": 0.0625,
            "durationTicks": 48,
            "midi": 33,
            "name": "A1",
            "ticks": 12960,
            "time": 16.875,
            "velocity": 0.3937007874015748
          },
          {
            "duration": 0.0625,
            "durationTicks": 48,
            "midi": 36,
            "name": "C2",
            "ticks": 13104,
            "time": 17.0625,
            "velocity": 0.3937007874015748
          },
          {
            "duration": 0.0625,
            "durationTicks": 48,
            "midi": 33,
            "name": "A1",
            "ticks": 13248,
            "time": 17.25,
            "velocity": 0.3937007874015748
          },
          {
            "duration": 0.0625,
            "durationTicks": 48,
            "midi": 36,
            "name": "C2",
            "ticks": 13392,
            "time": 17.4375,
            "velocity": 0.3937007874015748
          },
          {
            "duration": 0.0625,
            "durationTicks": 48,
            "midi": 33,
            "name": "A1",
            "ticks": 13536,
            "time": 17.625,
            "velocity": 0.3937007874015748
          },
          {
            "duration": 0.0625,
            "durationTicks": 48,
            "midi": 38,
            "name": "D2",
            "ticks": 13536,
            "time": 17.625,
            "velocity": 0.3937007874015748
          },
          {
            "duration": 0.0625,
            "durationTicks": 48,
            "midi": 33,
            "name": "A1",
            "ticks": 13824,
            "time": 18,
            "velocity": 0.3937007874015748
          },
          {
            "duration": 0.125,
            "durationTicks": 96,
            "midi": 36,
            "name": "C2",
            "ticks": 13824,
            "time": 18,
            "velocity": 0.3937007874015748
          },
          {
            "duration": 0.0625,
            "durationTicks": 48,
            "midi": 38,
            "name": "D2",
            "ticks": 14112,
            "time": 18.375,
            "velocity": 0.3937007874015748
          },
          {
            "duration": 0.0625,
            "durationTicks": 48,
            "midi": 33,
            "name": "A1",
            "ticks": 14112,
            "time": 18.375,
            "velocity": 0.3937007874015748
          },
          {
            "duration": 0.0625,
            "durationTicks": 48,
            "midi": 36,
            "name": "C2",
            "ticks": 14256,
            "time": 18.5625,
            "velocity": 0.3937007874015748
          },
          {
            "duration": 0.0625,
            "durationTicks": 48,
            "midi": 33,
            "name": "A1",
            "ticks": 14400,
            "time": 18.75,
            "velocity": 0.3937007874015748
          },
          {
            "duration": 0.0625,
            "durationTicks": 48,
            "midi": 36,
            "name": "C2",
            "ticks": 14544,
            "time": 18.9375,
            "velocity": 0.3937007874015748
          },
          {
            "duration": 0.0625,
            "durationTicks": 48,
            "midi": 38,
            "name": "D2",
            "ticks": 14688,
            "time": 19.125,
            "velocity": 0.3937007874015748
          },
          {
            "duration": 0.0625,
            "durationTicks": 48,
            "midi": 33,
            "name": "A1",
            "ticks": 14688,
            "time": 19.125,
            "velocity": 0.3937007874015748
          },
          {
            "duration": 0.125,
            "durationTicks": 96,
            "midi": 36,
            "name": "C2",
            "ticks": 14976,
            "time": 19.5,
            "velocity": 0.3937007874015748
          },
          {
            "duration": 0.0625,
            "durationTicks": 48,
            "midi": 33,
            "name": "A1",
            "ticks": 14976,
            "time": 19.5,
            "velocity": 0.3937007874015748
          },
          {
            "duration": 0.0625,
            "durationTicks": 48,
            "midi": 33,
            "name": "A1",
            "ticks": 15264,
            "time": 19.875,
            "velocity": 0.3937007874015748
          },
          {
            "duration": 0.0625,
            "durationTicks": 48,
            "midi": 38,
            "name": "D2",
            "ticks": 15264,
            "time": 19.875,
            "velocity": 0.3937007874015748
          },
          {
            "duration": 0.0625,
            "durationTicks": 48,
            "midi": 36,
            "name": "C2",
            "ticks": 15408,
            "time": 20.0625,
            "velocity": 0.3937007874015748
          },
          {
            "duration": 0.0625,
            "durationTicks": 48,
            "midi": 33,
            "name": "A1",
            "ticks": 15552,
            "time": 20.25,
            "velocity": 0.3937007874015748
          },
          {
            "duration": 0.0625,
            "durationTicks": 48,
            "midi": 36,
            "name": "C2",
            "ticks": 15696,
            "time": 20.4375,
            "velocity": 0.3937007874015748
          },
          {
            "duration": 0.0625,
            "durationTicks": 48,
            "midi": 38,
            "name": "D2",
            "ticks": 15840,
            "time": 20.625,
            "velocity": 0.3937007874015748
          },
          {
            "duration": 0.0625,
            "durationTicks": 48,
            "midi": 33,
            "name": "A1",
            "ticks": 15840,
            "time": 20.625,
            "velocity": 0.3937007874015748
          },
          {
            "duration": 0.0625,
            "durationTicks": 48,
            "midi": 33,
            "name": "A1",
            "ticks": 16128,
            "time": 21,
            "velocity": 0.3937007874015748
          },
          {
            "duration": 0.125,
            "durationTicks": 96,
            "midi": 36,
            "name": "C2",
            "ticks": 16128,
            "time": 21,
            "velocity": 0.3937007874015748
          },
          {
            "duration": 0.0625,
            "durationTicks": 48,
            "midi": 33,
            "name": "A1",
            "ticks": 16416,
            "time": 21.375,
            "velocity": 0.3937007874015748
          },
          {
            "duration": 0.0625,
            "durationTicks": 48,
            "midi": 38,
            "name": "D2",
            "ticks": 16416,
            "time": 21.375,
            "velocity": 0.3937007874015748
          },
          {
            "duration": 0.0625,
            "durationTicks": 48,
            "midi": 33,
            "name": "A1",
            "ticks": 16704,
            "time": 21.75,
            "velocity": 0.3937007874015748
          },
          {
            "duration": 0.125,
            "durationTicks": 96,
            "midi": 36,
            "name": "C2",
            "ticks": 16704,
            "time": 21.75,
            "velocity": 0.3937007874015748
          },
          {
            "duration": 0.0625,
            "durationTicks": 48,
            "midi": 38,
            "name": "D2",
            "ticks": 16992,
            "time": 22.125,
            "velocity": 0.3937007874015748
          },
          {
            "duration": 0.0625,
            "durationTicks": 48,
            "midi": 33,
            "name": "A1",
            "ticks": 16992,
            "time": 22.125,
            "velocity": 0.3937007874015748
          },
          {
            "duration": 0.0625,
            "durationTicks": 48,
            "midi": 36,
            "name": "C2",
            "ticks": 17136,
            "time": 22.3125,
            "velocity": 0.3937007874015748
          },
          {
            "duration": 0.0625,
            "durationTicks": 48,
            "midi": 33,
            "name": "A1",
            "ticks": 17280,
            "time": 22.5,
            "velocity": 0.3937007874015748
          },
          {
            "duration": 0.0625,
            "durationTicks": 48,
            "midi": 36,
            "name": "C2",
            "ticks": 17424,
            "time": 22.6875,
            "velocity": 0.3937007874015748
          },
          {
            "duration": 0.0625,
            "durationTicks": 48,
            "midi": 38,
            "name": "D2",
            "ticks": 17568,
            "time": 22.875,
            "velocity": 0.3937007874015748
          },
          {
            "duration": 0.0625,
            "durationTicks": 48,
            "midi": 33,
            "name": "A1",
            "ticks": 17568,
            "time": 22.875,
            "velocity": 0.3937007874015748
          },
          {
            "duration": 0.0625,
            "durationTicks": 48,
            "midi": 33,
            "name": "A1",
            "ticks": 17856,
            "time": 23.25,
            "velocity": 0.3937007874015748
          },
          {
            "duration": 0.125,
            "durationTicks": 96,
            "midi": 36,
            "name": "C2",
            "ticks": 17856,
            "time": 23.25,
            "velocity": 0.3937007874015748
          },
          {
            "duration": 0.0625,
            "durationTicks": 48,
            "midi": 38,
            "name": "D2",
            "ticks": 18144,
            "time": 23.625,
            "velocity": 0.3937007874015748
          },
          {
            "duration": 0.0625,
            "durationTicks": 48,
            "midi": 39,
            "name": "D#2",
            "ticks": 18144,
            "time": 23.625,
            "velocity": 0.3937007874015748
          },
          {
            "duration": 0.0625,
            "durationTicks": 48,
            "midi": 33,
            "name": "A1",
            "ticks": 18144,
            "time": 23.625,
            "velocity": 0.3937007874015748
          },
          {
            "duration": 0.0625,
            "durationTicks": 48,
            "midi": 36,
            "name": "C2",
            "ticks": 18288,
            "time": 23.8125,
            "velocity": 0.3937007874015748
          },
          {
            "duration": 0.0625,
            "durationTicks": 48,
            "midi": 33,
            "name": "A1",
            "ticks": 18432,
            "time": 24,
            "velocity": 0.3937007874015748
          },
          {
            "duration": 0.0625,
            "durationTicks": 48,
            "midi": 39,
            "name": "D#2",
            "ticks": 18432,
            "time": 24,
            "velocity": 0.3937007874015748
          },
          {
            "duration": 0.0625,
            "durationTicks": 48,
            "midi": 36,
            "name": "C2",
            "ticks": 18576,
            "time": 24.1875,
            "velocity": 0.3937007874015748
          },
          {
            "duration": 0.0625,
            "durationTicks": 48,
            "midi": 33,
            "name": "A1",
            "ticks": 18720,
            "time": 24.375,
            "velocity": 0.3937007874015748
          },
          {
            "duration": 0.0625,
            "durationTicks": 48,
            "midi": 39,
            "name": "D#2",
            "ticks": 18720,
            "time": 24.375,
            "velocity": 0.3937007874015748
          },
          {
            "duration": 0.0625,
            "durationTicks": 48,
            "midi": 38,
            "name": "D2",
            "ticks": 18720,
            "time": 24.375,
            "velocity": 0.3937007874015748
          },
          {
            "duration": 0.0625,
            "durationTicks": 48,
            "midi": 33,
            "name": "A1",
            "ticks": 19008,
            "time": 24.75,
            "velocity": 0.3937007874015748
          },
          {
            "duration": 0.125,
            "durationTicks": 96,
            "midi": 36,
            "name": "C2",
            "ticks": 19008,
            "time": 24.75,
            "velocity": 0.3937007874015748
          },
          {
            "duration": 0.0625,
            "durationTicks": 48,
            "midi": 33,
            "name": "A1",
            "ticks": 19296,
            "time": 25.125,
            "velocity": 0.3937007874015748
          },
          {
            "duration": 0.0625,
            "durationTicks": 48,
            "midi": 38,
            "name": "D2",
            "ticks": 19296,
            "time": 25.125,
            "velocity": 0.3937007874015748
          },
          {
            "duration": 0.0625,
            "durationTicks": 48,
            "midi": 36,
            "name": "C2",
            "ticks": 19440,
            "time": 25.3125,
            "velocity": 0.3937007874015748
          },
          {
            "duration": 0.0625,
            "durationTicks": 48,
            "midi": 33,
            "name": "A1",
            "ticks": 19584,
            "time": 25.5,
            "velocity": 0.3937007874015748
          },
          {
            "duration": 0.0625,
            "durationTicks": 48,
            "midi": 36,
            "name": "C2",
            "ticks": 19728,
            "time": 25.6875,
            "velocity": 0.3937007874015748
          },
          {
            "duration": 0.0625,
            "durationTicks": 48,
            "midi": 33,
            "name": "A1",
            "ticks": 19872,
            "time": 25.875,
            "velocity": 0.3937007874015748
          },
          {
            "duration": 0.0625,
            "durationTicks": 48,
            "midi": 38,
            "name": "D2",
            "ticks": 19872,
            "time": 25.875,
            "velocity": 0.3937007874015748
          },
          {
            "duration": 0.125,
            "durationTicks": 96,
            "midi": 36,
            "name": "C2",
            "ticks": 20160,
            "time": 26.25,
            "velocity": 0.3937007874015748
          },
          {
            "duration": 0.0625,
            "durationTicks": 48,
            "midi": 33,
            "name": "A1",
            "ticks": 20160,
            "time": 26.25,
            "velocity": 0.3937007874015748
          },
          {
            "duration": 0.0625,
            "durationTicks": 48,
            "midi": 33,
            "name": "A1",
            "ticks": 20448,
            "time": 26.625,
            "velocity": 0.3937007874015748
          },
          {
            "duration": 0.0625,
            "durationTicks": 48,
            "midi": 38,
            "name": "D2",
            "ticks": 20448,
            "time": 26.625,
            "velocity": 0.3937007874015748
          },
          {
            "duration": 0.0625,
            "durationTicks": 48,
            "midi": 36,
            "name": "C2",
            "ticks": 20592,
            "time": 26.8125,
            "velocity": 0.3937007874015748
          },
          {
            "duration": 0.0625,
            "durationTicks": 48,
            "midi": 33,
            "name": "A1",
            "ticks": 20736,
            "time": 27,
            "velocity": 0.3937007874015748
          },
          {
            "duration": 0.0625,
            "durationTicks": 48,
            "midi": 36,
            "name": "C2",
            "ticks": 20880,
            "time": 27.1875,
            "velocity": 0.3937007874015748
          },
          {
            "duration": 0.0625,
            "durationTicks": 48,
            "midi": 33,
            "name": "A1",
            "ticks": 21024,
            "time": 27.375,
            "velocity": 0.3937007874015748
          },
          {
            "duration": 0.0625,
            "durationTicks": 48,
            "midi": 38,
            "name": "D2",
            "ticks": 21024,
            "time": 27.375,
            "velocity": 0.3937007874015748
          },
          {
            "duration": 0.125,
            "durationTicks": 96,
            "midi": 36,
            "name": "C2",
            "ticks": 21312,
            "time": 27.75,
            "velocity": 0.3937007874015748
          },
          {
            "duration": 0.0625,
            "durationTicks": 48,
            "midi": 33,
            "name": "A1",
            "ticks": 21312,
            "time": 27.75,
            "velocity": 0.3937007874015748
          },
          {
            "duration": 0.0625,
            "durationTicks": 48,
            "midi": 33,
            "name": "A1",
            "ticks": 21600,
            "time": 28.125,
            "velocity": 0.3937007874015748
          },
          {
            "duration": 0.0625,
            "durationTicks": 48,
            "midi": 38,
            "name": "D2",
            "ticks": 21600,
            "time": 28.125,
            "velocity": 0.3937007874015748
          },
          {
            "duration": 0.0625,
            "durationTicks": 48,
            "midi": 36,
            "name": "C2",
            "ticks": 21744,
            "time": 28.3125,
            "velocity": 0.3937007874015748
          },
          {
            "duration": 0.0625,
            "durationTicks": 48,
            "midi": 33,
            "name": "A1",
            "ticks": 21888,
            "time": 28.5,
            "velocity": 0.3937007874015748
          },
          {
            "duration": 0.0625,
            "durationTicks": 48,
            "midi": 36,
            "name": "C2",
            "ticks": 22032,
            "time": 28.6875,
            "velocity": 0.3937007874015748
          },
          {
            "duration": 0.0625,
            "durationTicks": 48,
            "midi": 38,
            "name": "D2",
            "ticks": 22176,
            "time": 28.875,
            "velocity": 0.3937007874015748
          },
          {
            "duration": 0.0625,
            "durationTicks": 48,
            "midi": 33,
            "name": "A1",
            "ticks": 22176,
            "time": 28.875,
            "velocity": 0.3937007874015748
          },
          {
            "duration": 0.125,
            "durationTicks": 96,
            "midi": 36,
            "name": "C2",
            "ticks": 22464,
            "time": 29.25,
            "velocity": 0.3937007874015748
          },
          {
            "duration": 0.0625,
            "durationTicks": 48,
            "midi": 33,
            "name": "A1",
            "ticks": 22464,
            "time": 29.25,
            "velocity": 0.3937007874015748
          },
          {
            "duration": 0.0625,
            "durationTicks": 48,
            "midi": 33,
            "name": "A1",
            "ticks": 22752,
            "time": 29.625,
            "velocity": 0.3937007874015748
          },
          {
            "duration": 0.0625,
            "durationTicks": 48,
            "midi": 38,
            "name": "D2",
            "ticks": 22752,
            "time": 29.625,
            "velocity": 0.3937007874015748
          },
          {
            "duration": 0.125,
            "durationTicks": 96,
            "midi": 36,
            "name": "C2",
            "ticks": 23040,
            "time": 30,
            "velocity": 0.3937007874015748
          },
          {
            "duration": 0.0625,
            "durationTicks": 48,
            "midi": 33,
            "name": "A1",
            "ticks": 23040,
            "time": 30,
            "velocity": 0.3937007874015748
          },
          {
            "duration": 0.0625,
            "durationTicks": 48,
            "midi": 38,
            "name": "D2",
            "ticks": 23328,
            "time": 30.375,
            "velocity": 0.3937007874015748
          },
          {
            "duration": 0.0625,
            "durationTicks": 48,
            "midi": 33,
            "name": "A1",
            "ticks": 23328,
            "time": 30.375,
            "velocity": 0.3937007874015748
          },
          {
            "duration": 0.0625,
            "durationTicks": 48,
            "midi": 36,
            "name": "C2",
            "ticks": 23472,
            "time": 30.5625,
            "velocity": 0.3937007874015748
          },
          {
            "duration": 0.0625,
            "durationTicks": 48,
            "midi": 33,
            "name": "A1",
            "ticks": 23616,
            "time": 30.75,
            "velocity": 0.3937007874015748
          },
          {
            "duration": 0.0625,
            "durationTicks": 48,
            "midi": 36,
            "name": "C2",
            "ticks": 23760,
            "time": 30.9375,
            "velocity": 0.3937007874015748
          },
          {
            "duration": 0.0625,
            "durationTicks": 48,
            "midi": 33,
            "name": "A1",
            "ticks": 23904,
            "time": 31.125,
            "velocity": 0.3937007874015748
          },
          {
            "duration": 0.0625,
            "durationTicks": 48,
            "midi": 38,
            "name": "D2",
            "ticks": 23904,
            "time": 31.125,
            "velocity": 0.3937007874015748
          },
          {
            "duration": 0.0625,
            "durationTicks": 48,
            "midi": 33,
            "name": "A1",
            "ticks": 24192,
            "time": 31.5,
            "velocity": 0.3937007874015748
          },
          {
            "duration": 0.125,
            "durationTicks": 96,
            "midi": 36,
            "name": "C2",
            "ticks": 24192,
            "time": 31.5,
            "velocity": 0.3937007874015748
          },
          {
            "duration": 0.0625,
            "durationTicks": 48,
            "midi": 33,
            "name": "A1",
            "ticks": 24480,
            "time": 31.875,
            "velocity": 0.3937007874015748
          },
          {
            "duration": 0.0625,
            "durationTicks": 48,
            "midi": 33,
            "name": "A1",
            "ticks": 24480,
            "time": 31.875,
            "velocity": 0.3937007874015748
          },
          {
            "duration": 0.0625,
            "durationTicks": 48,
            "midi": 38,
            "name": "D2",
            "ticks": 24480,
            "time": 31.875,
            "velocity": 0.3937007874015748
          },
          {
            "duration": 0.0625,
            "durationTicks": 48,
            "midi": 39,
            "name": "D#2",
            "ticks": 24480,
            "time": 31.875,
            "velocity": 0.3937007874015748
          },
          {
            "duration": 0.0625,
            "durationTicks": 48,
            "midi": 36,
            "name": "C2",
            "ticks": 24624,
            "time": 32.0625,
            "velocity": 0.3937007874015748
          },
          {
            "duration": 0.0625,
            "durationTicks": 48,
            "midi": 33,
            "name": "A1",
            "ticks": 24768,
            "time": 32.25,
            "velocity": 0.3937007874015748
          },
          {
            "duration": 0.0625,
            "durationTicks": 48,
            "midi": 39,
            "name": "D#2",
            "ticks": 24768,
            "time": 32.25,
            "velocity": 0.3937007874015748
          },
          {
            "duration": 0.0625,
            "durationTicks": 48,
            "midi": 33,
            "name": "A1",
            "ticks": 24768,
            "time": 32.25,
            "velocity": 0.3937007874015748
          },
          {
            "duration": 0.0625,
            "durationTicks": 48,
            "midi": 36,
            "name": "C2",
            "ticks": 24912,
            "time": 32.4375,
            "velocity": 0.3937007874015748
          },
          {
            "duration": 0.0625,
            "durationTicks": 48,
            "midi": 33,
            "name": "A1",
            "ticks": 25056,
            "time": 32.625,
            "velocity": 0.3937007874015748
          },
          {
            "duration": 0.0625,
            "durationTicks": 48,
            "midi": 38,
            "name": "D2",
            "ticks": 25056,
            "time": 32.625,
            "velocity": 0.3937007874015748
          },
          {
            "duration": 0.0625,
            "durationTicks": 48,
            "midi": 33,
            "name": "A1",
            "ticks": 25056,
            "time": 32.625,
            "velocity": 0.3937007874015748
          },
          {
            "duration": 0.0625,
            "durationTicks": 48,
            "midi": 39,
            "name": "D#2",
            "ticks": 25056,
            "time": 32.625,
            "velocity": 0.3937007874015748
          },
          {
            "duration": 0.125,
            "durationTicks": 96,
            "midi": 36,
            "name": "C2",
            "ticks": 25344,
            "time": 33,
            "velocity": 0.3937007874015748
          },
          {
            "duration": 0.0625,
            "durationTicks": 48,
            "midi": 33,
            "name": "A1",
            "ticks": 25344,
            "time": 33,
            "velocity": 0.3937007874015748
          },
          {
            "duration": 0.0625,
            "durationTicks": 48,
            "midi": 38,
            "name": "D2",
            "ticks": 25632,
            "time": 33.375,
            "velocity": 0.3937007874015748
          },
          {
            "duration": 0.0625,
            "durationTicks": 48,
            "midi": 33,
            "name": "A1",
            "ticks": 25632,
            "time": 33.375,
            "velocity": 0.3937007874015748
          },
          {
            "duration": 0.0625,
            "durationTicks": 48,
            "midi": 36,
            "name": "C2",
            "ticks": 25776,
            "time": 33.5625,
            "velocity": 0.3937007874015748
          },
          {
            "duration": 0.0625,
            "durationTicks": 48,
            "midi": 33,
            "name": "A1",
            "ticks": 25920,
            "time": 33.75,
            "velocity": 0.3937007874015748
          },
          {
            "duration": 0.0625,
            "durationTicks": 48,
            "midi": 36,
            "name": "C2",
            "ticks": 26064,
            "time": 33.9375,
            "velocity": 0.3937007874015748
          },
          {
            "duration": 0.0625,
            "durationTicks": 48,
            "midi": 33,
            "name": "A1",
            "ticks": 26208,
            "time": 34.125,
            "velocity": 0.3937007874015748
          },
          {
            "duration": 0.0625,
            "durationTicks": 48,
            "midi": 38,
            "name": "D2",
            "ticks": 26208,
            "time": 34.125,
            "velocity": 0.3937007874015748
          },
          {
            "duration": 0.0625,
            "durationTicks": 48,
            "midi": 33,
            "name": "A1",
            "ticks": 26496,
            "time": 34.5,
            "velocity": 0.3937007874015748
          },
          {
            "duration": 0.125,
            "durationTicks": 96,
            "midi": 36,
            "name": "C2",
            "ticks": 26496,
            "time": 34.5,
            "velocity": 0.3937007874015748
          },
          {
            "duration": 0.0625,
            "durationTicks": 48,
            "midi": 33,
            "name": "A1",
            "ticks": 26784,
            "time": 34.875,
            "velocity": 0.3937007874015748
          },
          {
            "duration": 0.0625,
            "durationTicks": 48,
            "midi": 38,
            "name": "D2",
            "ticks": 26784,
            "time": 34.875,
            "velocity": 0.3937007874015748
          },
          {
            "duration": 0.0625,
            "durationTicks": 48,
            "midi": 36,
            "name": "C2",
            "ticks": 26928,
            "time": 35.0625,
            "velocity": 0.3937007874015748
          },
          {
            "duration": 0.0625,
            "durationTicks": 48,
            "midi": 33,
            "name": "A1",
            "ticks": 27072,
            "time": 35.25,
            "velocity": 0.3937007874015748
          },
          {
            "duration": 0.0625,
            "durationTicks": 48,
            "midi": 36,
            "name": "C2",
            "ticks": 27216,
            "time": 35.4375,
            "velocity": 0.3937007874015748
          },
          {
            "duration": 0.0625,
            "durationTicks": 48,
            "midi": 33,
            "name": "A1",
            "ticks": 27360,
            "time": 35.625,
            "velocity": 0.3937007874015748
          },
          {
            "duration": 0.0625,
            "durationTicks": 48,
            "midi": 38,
            "name": "D2",
            "ticks": 27360,
            "time": 35.625,
            "velocity": 0.3937007874015748
          },
          {
            "duration": 0.0625,
            "durationTicks": 48,
            "midi": 33,
            "name": "A1",
            "ticks": 27648,
            "time": 36,
            "velocity": 0.3937007874015748
          },
          {
            "duration": 0.125,
            "durationTicks": 96,
            "midi": 36,
            "name": "C2",
            "ticks": 27648,
            "time": 36,
            "velocity": 0.3937007874015748
          },
          {
            "duration": 0.0625,
            "durationTicks": 48,
            "midi": 33,
            "name": "A1",
            "ticks": 27936,
            "time": 36.375,
            "velocity": 0.3937007874015748
          },
          {
            "duration": 0.0625,
            "durationTicks": 48,
            "midi": 38,
            "name": "D2",
            "ticks": 27936,
            "time": 36.375,
            "velocity": 0.3937007874015748
          },
          {
            "duration": 0.0625,
            "durationTicks": 48,
            "midi": 36,
            "name": "C2",
            "ticks": 28080,
            "time": 36.5625,
            "velocity": 0.3937007874015748
          },
          {
            "duration": 0.0625,
            "durationTicks": 48,
            "midi": 33,
            "name": "A1",
            "ticks": 28224,
            "time": 36.75,
            "velocity": 0.3937007874015748
          },
          {
            "duration": 0.0625,
            "durationTicks": 48,
            "midi": 36,
            "name": "C2",
            "ticks": 28368,
            "time": 36.9375,
            "velocity": 0.3937007874015748
          },
          {
            "duration": 0.0625,
            "durationTicks": 48,
            "midi": 38,
            "name": "D2",
            "ticks": 28512,
            "time": 37.125,
            "velocity": 0.3937007874015748
          },
          {
            "duration": 0.0625,
            "durationTicks": 48,
            "midi": 33,
            "name": "A1",
            "ticks": 28512,
            "time": 37.125,
            "velocity": 0.3937007874015748
          },
          {
            "duration": 0.0625,
            "durationTicks": 48,
            "midi": 33,
            "name": "A1",
            "ticks": 28800,
            "time": 37.5,
            "velocity": 0.3937007874015748
          },
          {
            "duration": 0.125,
            "durationTicks": 96,
            "midi": 36,
            "name": "C2",
            "ticks": 28800,
            "time": 37.5,
            "velocity": 0.3937007874015748
          },
          {
            "duration": 0.0625,
            "durationTicks": 48,
            "midi": 33,
            "name": "A1",
            "ticks": 29088,
            "time": 37.875,
            "velocity": 0.3937007874015748
          },
          {
            "duration": 0.0625,
            "durationTicks": 48,
            "midi": 38,
            "name": "D2",
            "ticks": 29088,
            "time": 37.875,
            "velocity": 0.3937007874015748
          },
          {
            "duration": 0.0625,
            "durationTicks": 48,
            "midi": 33,
            "name": "A1",
            "ticks": 29376,
            "time": 38.25,
            "velocity": 0.3937007874015748
          },
          {
            "duration": 0.125,
            "durationTicks": 96,
            "midi": 36,
            "name": "C2",
            "ticks": 29376,
            "time": 38.25,
            "velocity": 0.3937007874015748
          },
          {
            "duration": 0.0625,
            "durationTicks": 48,
            "midi": 38,
            "name": "D2",
            "ticks": 29664,
            "time": 38.625,
            "velocity": 0.3937007874015748
          },
          {
            "duration": 0.0625,
            "durationTicks": 48,
            "midi": 33,
            "name": "A1",
            "ticks": 29664,
            "time": 38.625,
            "velocity": 0.3937007874015748
          },
          {
            "duration": 0.0625,
            "durationTicks": 48,
            "midi": 36,
            "name": "C2",
            "ticks": 29808,
            "time": 38.8125,
            "velocity": 0.3937007874015748
          },
          {
            "duration": 0.0625,
            "durationTicks": 48,
            "midi": 33,
            "name": "A1",
            "ticks": 29952,
            "time": 39,
            "velocity": 0.3937007874015748
          },
          {
            "duration": 0.0625,
            "durationTicks": 48,
            "midi": 36,
            "name": "C2",
            "ticks": 30096,
            "time": 39.1875,
            "velocity": 0.3937007874015748
          },
          {
            "duration": 0.0625,
            "durationTicks": 48,
            "midi": 38,
            "name": "D2",
            "ticks": 30240,
            "time": 39.375,
            "velocity": 0.3937007874015748
          },
          {
            "duration": 0.0625,
            "durationTicks": 48,
            "midi": 33,
            "name": "A1",
            "ticks": 30240,
            "time": 39.375,
            "velocity": 0.3937007874015748
          },
          {
            "duration": 0.0625,
            "durationTicks": 48,
            "midi": 33,
            "name": "A1",
            "ticks": 30528,
            "time": 39.75,
            "velocity": 0.3937007874015748
          },
          {
            "duration": 0.125,
            "durationTicks": 96,
            "midi": 36,
            "name": "C2",
            "ticks": 30528,
            "time": 39.75,
            "velocity": 0.3937007874015748
          },
          {
            "duration": 0.0625,
            "durationTicks": 48,
            "midi": 38,
            "name": "D2",
            "ticks": 30816,
            "time": 40.125,
            "velocity": 0.3937007874015748
          },
          {
            "duration": 0.0625,
            "durationTicks": 48,
            "midi": 33,
            "name": "A1",
            "ticks": 30816,
            "time": 40.125,
            "velocity": 0.3937007874015748
          },
          {
            "duration": 0.0625,
            "durationTicks": 48,
            "midi": 39,
            "name": "D#2",
            "ticks": 30816,
            "time": 40.125,
            "velocity": 0.3937007874015748
          },
          {
            "duration": 0.0625,
            "durationTicks": 48,
            "midi": 36,
            "name": "C2",
            "ticks": 30960,
            "time": 40.3125,
            "velocity": 0.3937007874015748
          },
          {
            "duration": 0.0625,
            "durationTicks": 48,
            "midi": 33,
            "name": "A1",
            "ticks": 31104,
            "time": 40.5,
            "velocity": 0.3937007874015748
          },
          {
            "duration": 0.0625,
            "durationTicks": 48,
            "midi": 39,
            "name": "D#2",
            "ticks": 31104,
            "time": 40.5,
            "velocity": 0.3937007874015748
          },
          {
            "duration": 0.0625,
            "durationTicks": 48,
            "midi": 36,
            "name": "C2",
            "ticks": 31248,
            "time": 40.6875,
            "velocity": 0.3937007874015748
          },
          {
            "duration": 0.0625,
            "durationTicks": 48,
            "midi": 33,
            "name": "A1",
            "ticks": 31392,
            "time": 40.875,
            "velocity": 0.3937007874015748
          },
          {
            "duration": 0.0625,
            "durationTicks": 48,
            "midi": 39,
            "name": "D#2",
            "ticks": 31392,
            "time": 40.875,
            "velocity": 0.3937007874015748
          },
          {
            "duration": 0.0625,
            "durationTicks": 48,
            "midi": 38,
            "name": "D2",
            "ticks": 31392,
            "time": 40.875,
            "velocity": 0.3937007874015748
          },
          {
            "duration": 0.0625,
            "durationTicks": 48,
            "midi": 33,
            "name": "A1",
            "ticks": 31680,
            "time": 41.25,
            "velocity": 0.3937007874015748
          },
          {
            "duration": 0.125,
            "durationTicks": 96,
            "midi": 36,
            "name": "C2",
            "ticks": 31680,
            "time": 41.25,
            "velocity": 0.3937007874015748
          },
          {
            "duration": 0.0625,
            "durationTicks": 48,
            "midi": 38,
            "name": "D2",
            "ticks": 31968,
            "time": 41.625,
            "velocity": 0.3937007874015748
          },
          {
            "duration": 0.0625,
            "durationTicks": 48,
            "midi": 33,
            "name": "A1",
            "ticks": 31968,
            "time": 41.625,
            "velocity": 0.3937007874015748
          },
          {
            "duration": 0.0625,
            "durationTicks": 48,
            "midi": 36,
            "name": "C2",
            "ticks": 32112,
            "time": 41.8125,
            "velocity": 0.3937007874015748
          },
          {
            "duration": 0.0625,
            "durationTicks": 48,
            "midi": 33,
            "name": "A1",
            "ticks": 32256,
            "time": 42,
            "velocity": 0.3937007874015748
          },
          {
            "duration": 0.0625,
            "durationTicks": 48,
            "midi": 36,
            "name": "C2",
            "ticks": 32400,
            "time": 42.1875,
            "velocity": 0.3937007874015748
          },
          {
            "duration": 0.0625,
            "durationTicks": 48,
            "midi": 38,
            "name": "D2",
            "ticks": 32544,
            "time": 42.375,
            "velocity": 0.3937007874015748
          },
          {
            "duration": 0.0625,
            "durationTicks": 48,
            "midi": 33,
            "name": "A1",
            "ticks": 32544,
            "time": 42.375,
            "velocity": 0.3937007874015748
          },
          {
            "duration": 0.125,
            "durationTicks": 96,
            "midi": 36,
            "name": "C2",
            "ticks": 32832,
            "time": 42.75,
            "velocity": 0.3937007874015748
          },
          {
            "duration": 0.0625,
            "durationTicks": 48,
            "midi": 33,
            "name": "A1",
            "ticks": 32832,
            "time": 42.75,
            "velocity": 0.3937007874015748
          },
          {
            "duration": 0.0625,
            "durationTicks": 48,
            "midi": 38,
            "name": "D2",
            "ticks": 33120,
            "time": 43.125,
            "velocity": 0.3937007874015748
          },
          {
            "duration": 0.0625,
            "durationTicks": 48,
            "midi": 33,
            "name": "A1",
            "ticks": 33120,
            "time": 43.125,
            "velocity": 0.3937007874015748
          },
          {
            "duration": 0.0625,
            "durationTicks": 48,
            "midi": 36,
            "name": "C2",
            "ticks": 33264,
            "time": 43.3125,
            "velocity": 0.3937007874015748
          },
          {
            "duration": 0.0625,
            "durationTicks": 48,
            "midi": 33,
            "name": "A1",
            "ticks": 33408,
            "time": 43.5,
            "velocity": 0.3937007874015748
          },
          {
            "duration": 0.0625,
            "durationTicks": 48,
            "midi": 36,
            "name": "C2",
            "ticks": 33552,
            "time": 43.6875,
            "velocity": 0.3937007874015748
          },
          {
            "duration": 0.0625,
            "durationTicks": 48,
            "midi": 38,
            "name": "D2",
            "ticks": 33696,
            "time": 43.875,
            "velocity": 0.3937007874015748
          },
          {
            "duration": 0.0625,
            "durationTicks": 48,
            "midi": 33,
            "name": "A1",
            "ticks": 33696,
            "time": 43.875,
            "velocity": 0.3937007874015748
          },
          {
            "duration": 0.125,
            "durationTicks": 96,
            "midi": 36,
            "name": "C2",
            "ticks": 33984,
            "time": 44.25,
            "velocity": 0.3937007874015748
          },
          {
            "duration": 0.0625,
            "durationTicks": 48,
            "midi": 33,
            "name": "A1",
            "ticks": 33984,
            "time": 44.25,
            "velocity": 0.3937007874015748
          },
          {
            "duration": 0.0625,
            "durationTicks": 48,
            "midi": 33,
            "name": "A1",
            "ticks": 34272,
            "time": 44.625,
            "velocity": 0.3937007874015748
          },
          {
            "duration": 0.0625,
            "durationTicks": 48,
            "midi": 38,
            "name": "D2",
            "ticks": 34272,
            "time": 44.625,
            "velocity": 0.3937007874015748
          },
          {
            "duration": 0.0625,
            "durationTicks": 48,
            "midi": 36,
            "name": "C2",
            "ticks": 34416,
            "time": 44.8125,
            "velocity": 0.3937007874015748
          },
          {
            "duration": 0.0625,
            "durationTicks": 48,
            "midi": 33,
            "name": "A1",
            "ticks": 34560,
            "time": 45,
            "velocity": 0.3937007874015748
          },
          {
            "duration": 0.0625,
            "durationTicks": 48,
            "midi": 36,
            "name": "C2",
            "ticks": 34704,
            "time": 45.1875,
            "velocity": 0.3937007874015748
          },
          {
            "duration": 0.0625,
            "durationTicks": 48,
            "midi": 38,
            "name": "D2",
            "ticks": 34848,
            "time": 45.375,
            "velocity": 0.3937007874015748
          },
          {
            "duration": 0.0625,
            "durationTicks": 48,
            "midi": 33,
            "name": "A1",
            "ticks": 34848,
            "time": 45.375,
            "velocity": 0.3937007874015748
          },
          {
            "duration": 0.0625,
            "durationTicks": 48,
            "midi": 33,
            "name": "A1",
            "ticks": 35136,
            "time": 45.75,
            "velocity": 0.3937007874015748
          },
          {
            "duration": 0.125,
            "durationTicks": 96,
            "midi": 36,
            "name": "C2",
            "ticks": 35136,
            "time": 45.75,
            "velocity": 0.3937007874015748
          },
          {
            "duration": 0.0625,
            "durationTicks": 48,
            "midi": 33,
            "name": "A1",
            "ticks": 35424,
            "time": 46.125,
            "velocity": 0.3937007874015748
          },
          {
            "duration": 0.0625,
            "durationTicks": 48,
            "midi": 38,
            "name": "D2",
            "ticks": 35424,
            "time": 46.125,
            "velocity": 0.3937007874015748
          },
          {
            "duration": 0.125,
            "durationTicks": 96,
            "midi": 36,
            "name": "C2",
            "ticks": 35712,
            "time": 46.5,
            "velocity": 0.3937007874015748
          },
          {
            "duration": 0.0625,
            "durationTicks": 48,
            "midi": 33,
            "name": "A1",
            "ticks": 35712,
            "time": 46.5,
            "velocity": 0.3937007874015748
          },
          {
            "duration": 0.0625,
            "durationTicks": 48,
            "midi": 33,
            "name": "A1",
            "ticks": 36000,
            "time": 46.875,
            "velocity": 0.3937007874015748
          },
          {
            "duration": 0.0625,
            "durationTicks": 48,
            "midi": 38,
            "name": "D2",
            "ticks": 36000,
            "time": 46.875,
            "velocity": 0.3937007874015748
          },
          {
            "duration": 0.0625,
            "durationTicks": 48,
            "midi": 36,
            "name": "C2",
            "ticks": 36144,
            "time": 47.0625,
            "velocity": 0.3937007874015748
          },
          {
            "duration": 0.0625,
            "durationTicks": 48,
            "midi": 33,
            "name": "A1",
            "ticks": 36288,
            "time": 47.25,
            "velocity": 0.3937007874015748
          },
          {
            "duration": 0.0625,
            "durationTicks": 48,
            "midi": 36,
            "name": "C2",
            "ticks": 36432,
            "time": 47.4375,
            "velocity": 0.3937007874015748
          },
          {
            "duration": 0.0625,
            "durationTicks": 48,
            "midi": 38,
            "name": "D2",
            "ticks": 36576,
            "time": 47.625,
            "velocity": 0.3937007874015748
          },
          {
            "duration": 0.0625,
            "durationTicks": 48,
            "midi": 33,
            "name": "A1",
            "ticks": 36576,
            "time": 47.625,
            "velocity": 0.3937007874015748
          },
          {
            "duration": 0.0625,
            "durationTicks": 48,
            "midi": 33,
            "name": "A1",
            "ticks": 36864,
            "time": 48,
            "velocity": 0.3937007874015748
          },
          {
            "duration": 0.125,
            "durationTicks": 96,
            "midi": 36,
            "name": "C2",
            "ticks": 36864,
            "time": 48,
            "velocity": 0.3937007874015748
          },
          {
            "duration": 0.0625,
            "durationTicks": 48,
            "midi": 33,
            "name": "A1",
            "ticks": 37152,
            "time": 48.375,
            "velocity": 0.3937007874015748
          },
          {
            "duration": 0.0625,
            "durationTicks": 48,
            "midi": 38,
            "name": "D2",
            "ticks": 37152,
            "time": 48.375,
            "velocity": 0.3937007874015748
          },
          {
            "duration": 0.0625,
            "durationTicks": 48,
            "midi": 33,
            "name": "A1",
            "ticks": 37152,
            "time": 48.375,
            "velocity": 0.3937007874015748
          },
          {
            "duration": 0.0625,
            "durationTicks": 48,
            "midi": 39,
            "name": "D#2",
            "ticks": 37152,
            "time": 48.375,
            "velocity": 0.3937007874015748
          },
          {
            "duration": 0.0625,
            "durationTicks": 48,
            "midi": 36,
            "name": "C2",
            "ticks": 37296,
            "time": 48.5625,
            "velocity": 0.3937007874015748
          },
          {
            "duration": 0.0625,
            "durationTicks": 48,
            "midi": 33,
            "name": "A1",
            "ticks": 37440,
            "time": 48.75,
            "velocity": 0.3937007874015748
          },
          {
            "duration": 0.0625,
            "durationTicks": 48,
            "midi": 39,
            "name": "D#2",
            "ticks": 37440,
            "time": 48.75,
            "velocity": 0.3937007874015748
          },
          {
            "duration": 0.0625,
            "durationTicks": 48,
            "midi": 33,
            "name": "A1",
            "ticks": 37440,
            "time": 48.75,
            "velocity": 0.3937007874015748
          },
          {
            "duration": 0.0625,
            "durationTicks": 48,
            "midi": 36,
            "name": "C2",
            "ticks": 37584,
            "time": 48.9375,
            "velocity": 0.3937007874015748
          },
          {
            "duration": 0.0625,
            "durationTicks": 48,
            "midi": 33,
            "name": "A1",
            "ticks": 37728,
            "time": 49.125,
            "velocity": 0.3937007874015748
          },
          {
            "duration": 0.0625,
            "durationTicks": 48,
            "midi": 39,
            "name": "D#2",
            "ticks": 37728,
            "time": 49.125,
            "velocity": 0.3937007874015748
          },
          {
            "duration": 0.0625,
            "durationTicks": 48,
            "midi": 33,
            "name": "A1",
            "ticks": 37728,
            "time": 49.125,
            "velocity": 0.3937007874015748
          },
          {
            "duration": 0.0625,
            "durationTicks": 48,
            "midi": 38,
            "name": "D2",
            "ticks": 37728,
            "time": 49.125,
            "velocity": 0.3937007874015748
          },
          {
            "duration": 0.0625,
            "durationTicks": 48,
            "midi": 33,
            "name": "A1",
            "ticks": 38016,
            "time": 49.5,
            "velocity": 0.3937007874015748
          },
          {
            "duration": 0.125,
            "durationTicks": 96,
            "midi": 36,
            "name": "C2",
            "ticks": 38016,
            "time": 49.5,
            "velocity": 0.3937007874015748
          },
          {
            "duration": 0.0625,
            "durationTicks": 48,
            "midi": 33,
            "name": "A1",
            "ticks": 38304,
            "time": 49.875,
            "velocity": 0.3937007874015748
          },
          {
            "duration": 0.0625,
            "durationTicks": 48,
            "midi": 38,
            "name": "D2",
            "ticks": 38304,
            "time": 49.875,
            "velocity": 0.3937007874015748
          },
          {
            "duration": 0.0625,
            "durationTicks": 48,
            "midi": 36,
            "name": "C2",
            "ticks": 38448,
            "time": 50.0625,
            "velocity": 0.3937007874015748
          },
          {
            "duration": 0.0625,
            "durationTicks": 48,
            "midi": 33,
            "name": "A1",
            "ticks": 38592,
            "time": 50.25,
            "velocity": 0.3937007874015748
          },
          {
            "duration": 0.0625,
            "durationTicks": 48,
            "midi": 36,
            "name": "C2",
            "ticks": 38736,
            "time": 50.4375,
            "velocity": 0.3937007874015748
          },
          {
            "duration": 0.0625,
            "durationTicks": 48,
            "midi": 33,
            "name": "A1",
            "ticks": 38880,
            "time": 50.625,
            "velocity": 0.3937007874015748
          },
          {
            "duration": 0.0625,
            "durationTicks": 48,
            "midi": 38,
            "name": "D2",
            "ticks": 38880,
            "time": 50.625,
            "velocity": 0.3937007874015748
          },
          {
            "duration": 0.125,
            "durationTicks": 96,
            "midi": 36,
            "name": "C2",
            "ticks": 39168,
            "time": 51,
            "velocity": 0.3937007874015748
          },
          {
            "duration": 0.0625,
            "durationTicks": 48,
            "midi": 33,
            "name": "A1",
            "ticks": 39168,
            "time": 51,
            "velocity": 0.3937007874015748
          },
          {
            "duration": 0.0625,
            "durationTicks": 48,
            "midi": 33,
            "name": "A1",
            "ticks": 39456,
            "time": 51.375,
            "velocity": 0.3937007874015748
          },
          {
            "duration": 0.0625,
            "durationTicks": 48,
            "midi": 38,
            "name": "D2",
            "ticks": 39456,
            "time": 51.375,
            "velocity": 0.3937007874015748
          },
          {
            "duration": 0.0625,
            "durationTicks": 48,
            "midi": 36,
            "name": "C2",
            "ticks": 39600,
            "time": 51.5625,
            "velocity": 0.3937007874015748
          },
          {
            "duration": 0.0625,
            "durationTicks": 48,
            "midi": 33,
            "name": "A1",
            "ticks": 39744,
            "time": 51.75,
            "velocity": 0.3937007874015748
          },
          {
            "duration": 0.0625,
            "durationTicks": 48,
            "midi": 36,
            "name": "C2",
            "ticks": 39888,
            "time": 51.9375,
            "velocity": 0.3937007874015748
          },
          {
            "duration": 0.0625,
            "durationTicks": 48,
            "midi": 33,
            "name": "A1",
            "ticks": 40032,
            "time": 52.125,
            "velocity": 0.3937007874015748
          },
          {
            "duration": 0.0625,
            "durationTicks": 48,
            "midi": 38,
            "name": "D2",
            "ticks": 40032,
            "time": 52.125,
            "velocity": 0.3937007874015748
          },
          {
            "duration": 0.0625,
            "durationTicks": 48,
            "midi": 33,
            "name": "A1",
            "ticks": 40320,
            "time": 52.5,
            "velocity": 0.3937007874015748
          },
          {
            "duration": 0.125,
            "durationTicks": 96,
            "midi": 36,
            "name": "C2",
            "ticks": 40320,
            "time": 52.5,
            "velocity": 0.3937007874015748
          },
          {
            "duration": 0.0625,
            "durationTicks": 48,
            "midi": 33,
            "name": "A1",
            "ticks": 40608,
            "time": 52.875,
            "velocity": 0.3937007874015748
          },
          {
            "duration": 0.0625,
            "durationTicks": 48,
            "midi": 38,
            "name": "D2",
            "ticks": 40608,
            "time": 52.875,
            "velocity": 0.3937007874015748
          },
          {
            "duration": 0.0625,
            "durationTicks": 48,
            "midi": 36,
            "name": "C2",
            "ticks": 40752,
            "time": 53.0625,
            "velocity": 0.3937007874015748
          },
          {
            "duration": 0.0625,
            "durationTicks": 48,
            "midi": 33,
            "name": "A1",
            "ticks": 40896,
            "time": 53.25,
            "velocity": 0.3937007874015748
          },
          {
            "duration": 0.0625,
            "durationTicks": 48,
            "midi": 36,
            "name": "C2",
            "ticks": 41040,
            "time": 53.4375,
            "velocity": 0.3937007874015748
          },
          {
            "duration": 0.0625,
            "durationTicks": 48,
            "midi": 38,
            "name": "D2",
            "ticks": 41184,
            "time": 53.625,
            "velocity": 0.3937007874015748
          },
          {
            "duration": 0.0625,
            "durationTicks": 48,
            "midi": 33,
            "name": "A1",
            "ticks": 41184,
            "time": 53.625,
            "velocity": 0.3937007874015748
          },
          {
            "duration": 0.125,
            "durationTicks": 96,
            "midi": 36,
            "name": "C2",
            "ticks": 41472,
            "time": 54,
            "velocity": 0.3937007874015748
          },
          {
            "duration": 0.0625,
            "durationTicks": 48,
            "midi": 33,
            "name": "A1",
            "ticks": 41472,
            "time": 54,
            "velocity": 0.3937007874015748
          },
          {
            "duration": 0.0625,
            "durationTicks": 48,
            "midi": 33,
            "name": "A1",
            "ticks": 41760,
            "time": 54.375,
            "velocity": 0.3937007874015748
          },
          {
            "duration": 0.0625,
            "durationTicks": 48,
            "midi": 38,
            "name": "D2",
            "ticks": 41760,
            "time": 54.375,
            "velocity": 0.3937007874015748
          },
          {
            "duration": 0.0625,
            "durationTicks": 48,
            "midi": 33,
            "name": "A1",
            "ticks": 42048,
            "time": 54.75,
            "velocity": 0.3937007874015748
          },
          {
            "duration": 0.125,
            "durationTicks": 96,
            "midi": 36,
            "name": "C2",
            "ticks": 42048,
            "time": 54.75,
            "velocity": 0.3937007874015748
          },
          {
            "duration": 0.0625,
            "durationTicks": 48,
            "midi": 38,
            "name": "D2",
            "ticks": 42336,
            "time": 55.125,
            "velocity": 0.3937007874015748
          },
          {
            "duration": 0.0625,
            "durationTicks": 48,
            "midi": 33,
            "name": "A1",
            "ticks": 42336,
            "time": 55.125,
            "velocity": 0.3937007874015748
          },
          {
            "duration": 0.0625,
            "durationTicks": 48,
            "midi": 36,
            "name": "C2",
            "ticks": 42480,
            "time": 55.3125,
            "velocity": 0.3937007874015748
          },
          {
            "duration": 0.0625,
            "durationTicks": 48,
            "midi": 33,
            "name": "A1",
            "ticks": 42624,
            "time": 55.5,
            "velocity": 0.3937007874015748
          },
          {
            "duration": 0.0625,
            "durationTicks": 48,
            "midi": 36,
            "name": "C2",
            "ticks": 42768,
            "time": 55.6875,
            "velocity": 0.3937007874015748
          },
          {
            "duration": 0.0625,
            "durationTicks": 48,
            "midi": 33,
            "name": "A1",
            "ticks": 42912,
            "time": 55.875,
            "velocity": 0.3937007874015748
          },
          {
            "duration": 0.0625,
            "durationTicks": 48,
            "midi": 38,
            "name": "D2",
            "ticks": 42912,
            "time": 55.875,
            "velocity": 0.3937007874015748
          },
          {
            "duration": 0.125,
            "durationTicks": 96,
            "midi": 36,
            "name": "C2",
            "ticks": 43200,
            "time": 56.25,
            "velocity": 0.3937007874015748
          },
          {
            "duration": 0.0625,
            "durationTicks": 48,
            "midi": 33,
            "name": "A1",
            "ticks": 43200,
            "time": 56.25,
            "velocity": 0.3937007874015748
          },
          {
            "duration": 0.0625,
            "durationTicks": 48,
            "midi": 33,
            "name": "A1",
            "ticks": 43488,
            "time": 56.625,
            "velocity": 0.3937007874015748
          },
          {
            "duration": 0.0625,
            "durationTicks": 48,
            "midi": 38,
            "name": "D2",
            "ticks": 43488,
            "time": 56.625,
            "velocity": 0.3937007874015748
          },
          {
            "duration": 0.0625,
            "durationTicks": 48,
            "midi": 39,
            "name": "D#2",
            "ticks": 43488,
            "time": 56.625,
            "velocity": 0.3937007874015748
          },
          {
            "duration": 0.0625,
            "durationTicks": 48,
            "midi": 36,
            "name": "C2",
            "ticks": 43632,
            "time": 56.8125,
            "velocity": 0.3937007874015748
          },
          {
            "duration": 0.0625,
            "durationTicks": 48,
            "midi": 33,
            "name": "A1",
            "ticks": 43776,
            "time": 57,
            "velocity": 0.3937007874015748
          },
          {
            "duration": 0.0625,
            "durationTicks": 48,
            "midi": 39,
            "name": "D#2",
            "ticks": 43776,
            "time": 57,
            "velocity": 0.3937007874015748
          },
          {
            "duration": 0.0625,
            "durationTicks": 48,
            "midi": 36,
            "name": "C2",
            "ticks": 43920,
            "time": 57.1875,
            "velocity": 0.3937007874015748
          },
          {
            "duration": 0.0625,
            "durationTicks": 48,
            "midi": 39,
            "name": "D#2",
            "ticks": 44064,
            "time": 57.375,
            "velocity": 0.3937007874015748
          },
          {
            "duration": 0.0625,
            "durationTicks": 48,
            "midi": 33,
            "name": "A1",
            "ticks": 44064,
            "time": 57.375,
            "velocity": 0.3937007874015748
          },
          {
            "duration": 0.0625,
            "durationTicks": 48,
            "midi": 38,
            "name": "D2",
            "ticks": 44064,
            "time": 57.375,
            "velocity": 0.3937007874015748
          },
          {
            "duration": 0.0625,
            "durationTicks": 48,
            "midi": 33,
            "name": "A1",
            "ticks": 44352,
            "time": 57.75,
            "velocity": 0.3937007874015748
          },
          {
            "duration": 0.125,
            "durationTicks": 96,
            "midi": 36,
            "name": "C2",
            "ticks": 44352,
            "time": 57.75,
            "velocity": 0.3937007874015748
          },
          {
            "duration": 0.0625,
            "durationTicks": 48,
            "midi": 33,
            "name": "A1",
            "ticks": 44640,
            "time": 58.125,
            "velocity": 0.3937007874015748
          },
          {
            "duration": 0.0625,
            "durationTicks": 48,
            "midi": 38,
            "name": "D2",
            "ticks": 44640,
            "time": 58.125,
            "velocity": 0.3937007874015748
          },
          {
            "duration": 0.0625,
            "durationTicks": 48,
            "midi": 36,
            "name": "C2",
            "ticks": 44784,
            "time": 58.3125,
            "velocity": 0.3937007874015748
          },
          {
            "duration": 0.0625,
            "durationTicks": 48,
            "midi": 33,
            "name": "A1",
            "ticks": 44928,
            "time": 58.5,
            "velocity": 0.3937007874015748
          },
          {
            "duration": 0.0625,
            "durationTicks": 48,
            "midi": 36,
            "name": "C2",
            "ticks": 45072,
            "time": 58.6875,
            "velocity": 0.3937007874015748
          },
          {
            "duration": 0.0625,
            "durationTicks": 48,
            "midi": 38,
            "name": "D2",
            "ticks": 45216,
            "time": 58.875,
            "velocity": 0.3937007874015748
          },
          {
            "duration": 0.0625,
            "durationTicks": 48,
            "midi": 33,
            "name": "A1",
            "ticks": 45216,
            "time": 58.875,
            "velocity": 0.3937007874015748
          },
          {
            "duration": 0.125,
            "durationTicks": 96,
            "midi": 36,
            "name": "C2",
            "ticks": 45504,
            "time": 59.25,
            "velocity": 0.3937007874015748
          },
          {
            "duration": 0.0625,
            "durationTicks": 48,
            "midi": 33,
            "name": "A1",
            "ticks": 45504,
            "time": 59.25,
            "velocity": 0.3937007874015748
          },
          {
            "duration": 0.0625,
            "durationTicks": 48,
            "midi": 33,
            "name": "A1",
            "ticks": 45792,
            "time": 59.625,
            "velocity": 0.3937007874015748
          },
          {
            "duration": 0.0625,
            "durationTicks": 48,
            "midi": 38,
            "name": "D2",
            "ticks": 45792,
            "time": 59.625,
            "velocity": 0.3937007874015748
          },
          {
            "duration": 0.0625,
            "durationTicks": 48,
            "midi": 36,
            "name": "C2",
            "ticks": 45936,
            "time": 59.8125,
            "velocity": 0.3937007874015748
          },
          {
            "duration": 0.0625,
            "durationTicks": 48,
            "midi": 33,
            "name": "A1",
            "ticks": 46080,
            "time": 60,
            "velocity": 0.3937007874015748
          },
          {
            "duration": 0.0625,
            "durationTicks": 48,
            "midi": 36,
            "name": "C2",
            "ticks": 46224,
            "time": 60.1875,
            "velocity": 0.3937007874015748
          },
          {
            "duration": 0.0625,
            "durationTicks": 48,
            "midi": 33,
            "name": "A1",
            "ticks": 46368,
            "time": 60.375,
            "velocity": 0.3937007874015748
          },
          {
            "duration": 0.0625,
            "durationTicks": 48,
            "midi": 38,
            "name": "D2",
            "ticks": 46368,
            "time": 60.375,
            "velocity": 0.3937007874015748
          },
          {
            "duration": 0.125,
            "durationTicks": 96,
            "midi": 36,
            "name": "C2",
            "ticks": 46656,
            "time": 60.75,
            "velocity": 0.3937007874015748
          },
          {
            "duration": 0.0625,
            "durationTicks": 48,
            "midi": 33,
            "name": "A1",
            "ticks": 46656,
            "time": 60.75,
            "velocity": 0.3937007874015748
          },
          {
            "duration": 0.0625,
            "durationTicks": 48,
            "midi": 38,
            "name": "D2",
            "ticks": 46944,
            "time": 61.125,
            "velocity": 0.3937007874015748
          },
          {
            "duration": 0.0625,
            "durationTicks": 48,
            "midi": 33,
            "name": "A1",
            "ticks": 46944,
            "time": 61.125,
            "velocity": 0.3937007874015748
          },
          {
            "duration": 0.0625,
            "durationTicks": 48,
            "midi": 36,
            "name": "C2",
            "ticks": 47088,
            "time": 61.3125,
            "velocity": 0.3937007874015748
          },
          {
            "duration": 0.0625,
            "durationTicks": 48,
            "midi": 33,
            "name": "A1",
            "ticks": 47232,
            "time": 61.5,
            "velocity": 0.3937007874015748
          },
          {
            "duration": 0.0625,
            "durationTicks": 48,
            "midi": 36,
            "name": "C2",
            "ticks": 47376,
            "time": 61.6875,
            "velocity": 0.3937007874015748
          },
          {
            "duration": 0.0625,
            "durationTicks": 48,
            "midi": 38,
            "name": "D2",
            "ticks": 47520,
            "time": 61.875,
            "velocity": 0.3937007874015748
          },
          {
            "duration": 0.0625,
            "durationTicks": 48,
            "midi": 33,
            "name": "A1",
            "ticks": 47520,
            "time": 61.875,
            "velocity": 0.3937007874015748
          },
          {
            "duration": 0.125,
            "durationTicks": 96,
            "midi": 36,
            "name": "C2",
            "ticks": 47808,
            "time": 62.25,
            "velocity": 0.3937007874015748
          },
          {
            "duration": 0.0625,
            "durationTicks": 48,
            "midi": 33,
            "name": "A1",
            "ticks": 47808,
            "time": 62.25,
            "velocity": 0.3937007874015748
          },
          {
            "duration": 0.0625,
            "durationTicks": 48,
            "midi": 38,
            "name": "D2",
            "ticks": 48096,
            "time": 62.625,
            "velocity": 0.3937007874015748
          },
          {
            "duration": 0.0625,
            "durationTicks": 48,
            "midi": 33,
            "name": "A1",
            "ticks": 48096,
            "time": 62.625,
            "velocity": 0.3937007874015748
          },
          {
            "duration": 0.125,
            "durationTicks": 96,
            "midi": 36,
            "name": "C2",
            "ticks": 48384,
            "time": 63,
            "velocity": 0.3937007874015748
          },
          {
            "duration": 0.0625,
            "durationTicks": 48,
            "midi": 33,
            "name": "A1",
            "ticks": 48384,
            "time": 63,
            "velocity": 0.3937007874015748
          },
          {
            "duration": 0.0625,
            "durationTicks": 48,
            "midi": 33,
            "name": "A1",
            "ticks": 48672,
            "time": 63.375,
            "velocity": 0.3937007874015748
          },
          {
            "duration": 0.0625,
            "durationTicks": 48,
            "midi": 38,
            "name": "D2",
            "ticks": 48672,
            "time": 63.375,
            "velocity": 0.3937007874015748
          },
          {
            "duration": 0.0625,
            "durationTicks": 48,
            "midi": 36,
            "name": "C2",
            "ticks": 48816,
            "time": 63.5625,
            "velocity": 0.3937007874015748
          },
          {
            "duration": 0.0625,
            "durationTicks": 48,
            "midi": 33,
            "name": "A1",
            "ticks": 48960,
            "time": 63.75,
            "velocity": 0.3937007874015748
          },
          {
            "duration": 0.0625,
            "durationTicks": 48,
            "midi": 36,
            "name": "C2",
            "ticks": 49104,
            "time": 63.9375,
            "velocity": 0.3937007874015748
          },
          {
            "duration": 0.0625,
            "durationTicks": 48,
            "midi": 33,
            "name": "A1",
            "ticks": 49248,
            "time": 64.125,
            "velocity": 0.3937007874015748
          },
          {
            "duration": 0.0625,
            "durationTicks": 48,
            "midi": 38,
            "name": "D2",
            "ticks": 49248,
            "time": 64.125,
            "velocity": 0.3937007874015748
          },
          {
            "duration": 0.0625,
            "durationTicks": 48,
            "midi": 33,
            "name": "A1",
            "ticks": 49536,
            "time": 64.5,
            "velocity": 0.3937007874015748
          },
          {
            "duration": 0.125,
            "durationTicks": 96,
            "midi": 36,
            "name": "C2",
            "ticks": 49536,
            "time": 64.5,
            "velocity": 0.3937007874015748
          },
          {
            "duration": 0.0625,
            "durationTicks": 48,
            "midi": 33,
            "name": "A1",
            "ticks": 49824,
            "time": 64.875,
            "velocity": 0.3937007874015748
          },
          {
            "duration": 0.0625,
            "durationTicks": 48,
            "midi": 39,
            "name": "D#2",
            "ticks": 49824,
            "time": 64.875,
            "velocity": 0.3937007874015748
          },
          {
            "duration": 0.0625,
            "durationTicks": 48,
            "midi": 33,
            "name": "A1",
            "ticks": 49824,
            "time": 64.875,
            "velocity": 0.3937007874015748
          },
          {
            "duration": 0.0625,
            "durationTicks": 48,
            "midi": 33,
            "name": "A1",
            "ticks": 49824,
            "time": 64.875,
            "velocity": 0.3937007874015748
          },
          {
            "duration": 0.0625,
            "durationTicks": 48,
            "midi": 38,
            "name": "D2",
            "ticks": 49824,
            "time": 64.875,
            "velocity": 0.3937007874015748
          },
          {
            "duration": 0.0625,
            "durationTicks": 48,
            "midi": 36,
            "name": "C2",
            "ticks": 49968,
            "time": 65.0625,
            "velocity": 0.3937007874015748
          },
          {
            "duration": 0.0625,
            "durationTicks": 48,
            "midi": 33,
            "name": "A1",
            "ticks": 50112,
            "time": 65.25,
            "velocity": 0.3937007874015748
          },
          {
            "duration": 0.0625,
            "durationTicks": 48,
            "midi": 33,
            "name": "A1",
            "ticks": 50112,
            "time": 65.25,
            "velocity": 0.3937007874015748
          },
          {
            "duration": 0.0625,
            "durationTicks": 48,
            "midi": 39,
            "name": "D#2",
            "ticks": 50112,
            "time": 65.25,
            "velocity": 0.3937007874015748
          },
          {
            "duration": 0.0625,
            "durationTicks": 48,
            "midi": 33,
            "name": "A1",
            "ticks": 50112,
            "time": 65.25,
            "velocity": 0.3937007874015748
          },
          {
            "duration": 0.0625,
            "durationTicks": 48,
            "midi": 36,
            "name": "C2",
            "ticks": 50256,
            "time": 65.4375,
            "velocity": 0.3937007874015748
          },
          {
            "duration": 0.0625,
            "durationTicks": 48,
            "midi": 33,
            "name": "A1",
            "ticks": 50400,
            "time": 65.625,
            "velocity": 0.3937007874015748
          },
          {
            "duration": 0.0625,
            "durationTicks": 48,
            "midi": 38,
            "name": "D2",
            "ticks": 50400,
            "time": 65.625,
            "velocity": 0.3937007874015748
          },
          {
            "duration": 0.0625,
            "durationTicks": 48,
            "midi": 39,
            "name": "D#2",
            "ticks": 50400,
            "time": 65.625,
            "velocity": 0.3937007874015748
          },
          {
            "duration": 0.0625,
            "durationTicks": 48,
            "midi": 33,
            "name": "A1",
            "ticks": 50400,
            "time": 65.625,
            "velocity": 0.3937007874015748
          },
          {
            "duration": 0.0625,
            "durationTicks": 48,
            "midi": 33,
            "name": "A1",
            "ticks": 50400,
            "time": 65.625,
            "velocity": 0.3937007874015748
          },
          {
            "duration": 0.0625,
            "durationTicks": 48,
            "midi": 33,
            "name": "A1",
            "ticks": 50688,
            "time": 66,
            "velocity": 0.3937007874015748
          },
          {
            "duration": 0.125,
            "durationTicks": 96,
            "midi": 36,
            "name": "C2",
            "ticks": 50688,
            "time": 66,
            "velocity": 0.3937007874015748
          },
          {
            "duration": 0.0625,
            "durationTicks": 48,
            "midi": 33,
            "name": "A1",
            "ticks": 50976,
            "time": 66.375,
            "velocity": 0.3937007874015748
          },
          {
            "duration": 0.0625,
            "durationTicks": 48,
            "midi": 38,
            "name": "D2",
            "ticks": 50976,
            "time": 66.375,
            "velocity": 0.3937007874015748
          },
          {
            "duration": 0.0625,
            "durationTicks": 48,
            "midi": 36,
            "name": "C2",
            "ticks": 51120,
            "time": 66.5625,
            "velocity": 0.3937007874015748
          },
          {
            "duration": 0.0625,
            "durationTicks": 48,
            "midi": 33,
            "name": "A1",
            "ticks": 51264,
            "time": 66.75,
            "velocity": 0.3937007874015748
          },
          {
            "duration": 0.0625,
            "durationTicks": 48,
            "midi": 36,
            "name": "C2",
            "ticks": 51408,
            "time": 66.9375,
            "velocity": 0.3937007874015748
          },
          {
            "duration": 0.0625,
            "durationTicks": 48,
            "midi": 33,
            "name": "A1",
            "ticks": 51552,
            "time": 67.125,
            "velocity": 0.3937007874015748
          },
          {
            "duration": 0.0625,
            "durationTicks": 48,
            "midi": 38,
            "name": "D2",
            "ticks": 51552,
            "time": 67.125,
            "velocity": 0.3937007874015748
          },
          {
            "duration": 0.0625,
            "durationTicks": 48,
            "midi": 33,
            "name": "A1",
            "ticks": 51840,
            "time": 67.5,
            "velocity": 0.3937007874015748
          },
          {
            "duration": 0.125,
            "durationTicks": 96,
            "midi": 36,
            "name": "C2",
            "ticks": 51840,
            "time": 67.5,
            "velocity": 0.3937007874015748
          },
          {
            "duration": 0.0625,
            "durationTicks": 48,
            "midi": 33,
            "name": "A1",
            "ticks": 52128,
            "time": 67.875,
            "velocity": 0.3937007874015748
          },
          {
            "duration": 0.0625,
            "durationTicks": 48,
            "midi": 38,
            "name": "D2",
            "ticks": 52128,
            "time": 67.875,
            "velocity": 0.3937007874015748
          },
          {
            "duration": 0.0625,
            "durationTicks": 48,
            "midi": 36,
            "name": "C2",
            "ticks": 52272,
            "time": 68.0625,
            "velocity": 0.3937007874015748
          },
          {
            "duration": 0.0625,
            "durationTicks": 48,
            "midi": 33,
            "name": "A1",
            "ticks": 52416,
            "time": 68.25,
            "velocity": 0.3937007874015748
          },
          {
            "duration": 0.0625,
            "durationTicks": 48,
            "midi": 36,
            "name": "C2",
            "ticks": 52560,
            "time": 68.4375,
            "velocity": 0.3937007874015748
          },
          {
            "duration": 0.0625,
            "durationTicks": 48,
            "midi": 38,
            "name": "D2",
            "ticks": 52704,
            "time": 68.625,
            "velocity": 0.3937007874015748
          },
          {
            "duration": 0.0625,
            "durationTicks": 48,
            "midi": 33,
            "name": "A1",
            "ticks": 52704,
            "time": 68.625,
            "velocity": 0.3937007874015748
          },
          {
            "duration": 0.0625,
            "durationTicks": 48,
            "midi": 33,
            "name": "A1",
            "ticks": 52992,
            "time": 69,
            "velocity": 0.3937007874015748
          },
          {
            "duration": 0.125,
            "durationTicks": 96,
            "midi": 36,
            "name": "C2",
            "ticks": 52992,
            "time": 69,
            "velocity": 0.3937007874015748
          },
          {
            "duration": 0.0625,
            "durationTicks": 48,
            "midi": 38,
            "name": "D2",
            "ticks": 53280,
            "time": 69.375,
            "velocity": 0.3937007874015748
          },
          {
            "duration": 0.0625,
            "durationTicks": 48,
            "midi": 33,
            "name": "A1",
            "ticks": 53280,
            "time": 69.375,
            "velocity": 0.3937007874015748
          },
          {
            "duration": 0.0625,
            "durationTicks": 48,
            "midi": 36,
            "name": "C2",
            "ticks": 53424,
            "time": 69.5625,
            "velocity": 0.3937007874015748
          },
          {
            "duration": 0.0625,
            "durationTicks": 48,
            "midi": 33,
            "name": "A1",
            "ticks": 53568,
            "time": 69.75,
            "velocity": 0.3937007874015748
          },
          {
            "duration": 0.0625,
            "durationTicks": 48,
            "midi": 36,
            "name": "C2",
            "ticks": 53712,
            "time": 69.9375,
            "velocity": 0.3937007874015748
          },
          {
            "duration": 0.0625,
            "durationTicks": 48,
            "midi": 38,
            "name": "D2",
            "ticks": 53856,
            "time": 70.125,
            "velocity": 0.3937007874015748
          },
          {
            "duration": 0.0625,
            "durationTicks": 48,
            "midi": 33,
            "name": "A1",
            "ticks": 53856,
            "time": 70.125,
            "velocity": 0.3937007874015748
          },
          {
            "duration": 0.125,
            "durationTicks": 96,
            "midi": 36,
            "name": "C2",
            "ticks": 54144,
            "time": 70.5,
            "velocity": 0.3937007874015748
          },
          {
            "duration": 0.0625,
            "durationTicks": 48,
            "midi": 33,
            "name": "A1",
            "ticks": 54144,
            "time": 70.5,
            "velocity": 0.3937007874015748
          },
          {
            "duration": 0.0625,
            "durationTicks": 48,
            "midi": 38,
            "name": "D2",
            "ticks": 54432,
            "time": 70.875,
            "velocity": 0.3937007874015748
          },
          {
            "duration": 0.0625,
            "durationTicks": 48,
            "midi": 33,
            "name": "A1",
            "ticks": 54432,
            "time": 70.875,
            "velocity": 0.3937007874015748
          },
          {
            "duration": 0.125,
            "durationTicks": 96,
            "midi": 36,
            "name": "C2",
            "ticks": 54720,
            "time": 71.25,
            "velocity": 0.3937007874015748
          },
          {
            "duration": 0.0625,
            "durationTicks": 48,
            "midi": 33,
            "name": "A1",
            "ticks": 54720,
            "time": 71.25,
            "velocity": 0.3937007874015748
          },
          {
            "duration": 0.0625,
            "durationTicks": 48,
            "midi": 33,
            "name": "A1",
            "ticks": 55008,
            "time": 71.625,
            "velocity": 0.3937007874015748
          },
          {
            "duration": 0.0625,
            "durationTicks": 48,
            "midi": 38,
            "name": "D2",
            "ticks": 55008,
            "time": 71.625,
            "velocity": 0.3937007874015748
          },
          {
            "duration": 0.0625,
            "durationTicks": 48,
            "midi": 36,
            "name": "C2",
            "ticks": 55152,
            "time": 71.8125,
            "velocity": 0.3937007874015748
          },
          {
            "duration": 0.0625,
            "durationTicks": 48,
            "midi": 33,
            "name": "A1",
            "ticks": 55296,
            "time": 72,
            "velocity": 0.3937007874015748
          },
          {
            "duration": 0.0625,
            "durationTicks": 48,
            "midi": 36,
            "name": "C2",
            "ticks": 55440,
            "time": 72.1875,
            "velocity": 0.3937007874015748
          },
          {
            "duration": 0.0625,
            "durationTicks": 48,
            "midi": 38,
            "name": "D2",
            "ticks": 55584,
            "time": 72.375,
            "velocity": 0.3937007874015748
          },
          {
            "duration": 0.0625,
            "durationTicks": 48,
            "midi": 33,
            "name": "A1",
            "ticks": 55584,
            "time": 72.375,
            "velocity": 0.3937007874015748
          },
          {
            "duration": 0.0625,
            "durationTicks": 48,
            "midi": 33,
            "name": "A1",
            "ticks": 55872,
            "time": 72.75,
            "velocity": 0.3937007874015748
          },
          {
            "duration": 0.125,
            "durationTicks": 96,
            "midi": 36,
            "name": "C2",
            "ticks": 55872,
            "time": 72.75,
            "velocity": 0.3937007874015748
          },
          {
            "duration": 0.0625,
            "durationTicks": 48,
            "midi": 33,
            "name": "A1",
            "ticks": 56160,
            "time": 73.125,
            "velocity": 0.3937007874015748
          },
          {
            "duration": 0.0625,
            "durationTicks": 48,
            "midi": 38,
            "name": "D2",
            "ticks": 56160,
            "time": 73.125,
            "velocity": 0.3937007874015748
          },
          {
            "duration": 0.0625,
            "durationTicks": 48,
            "midi": 39,
            "name": "D#2",
            "ticks": 56160,
            "time": 73.125,
            "velocity": 0.3937007874015748
          },
          {
            "duration": 0.0625,
            "durationTicks": 48,
            "midi": 36,
            "name": "C2",
            "ticks": 56304,
            "time": 73.3125,
            "velocity": 0.3937007874015748
          },
          {
            "duration": 0.0625,
            "durationTicks": 48,
            "midi": 33,
            "name": "A1",
            "ticks": 56448,
            "time": 73.5,
            "velocity": 0.3937007874015748
          },
          {
            "duration": 0.0625,
            "durationTicks": 48,
            "midi": 39,
            "name": "D#2",
            "ticks": 56448,
            "time": 73.5,
            "velocity": 0.3937007874015748
          },
          {
            "duration": 0.0625,
            "durationTicks": 48,
            "midi": 36,
            "name": "C2",
            "ticks": 56592,
            "time": 73.6875,
            "velocity": 0.3937007874015748
          },
          {
            "duration": 0.0625,
            "durationTicks": 48,
            "midi": 38,
            "name": "D2",
            "ticks": 56736,
            "time": 73.875,
            "velocity": 0.3937007874015748
          },
          {
            "duration": 0.0625,
            "durationTicks": 48,
            "midi": 39,
            "name": "D#2",
            "ticks": 56736,
            "time": 73.875,
            "velocity": 0.3937007874015748
          },
          {
            "duration": 0.0625,
            "durationTicks": 48,
            "midi": 33,
            "name": "A1",
            "ticks": 56736,
            "time": 73.875,
            "velocity": 0.3937007874015748
          },
          {
            "duration": 0.125,
            "durationTicks": 96,
            "midi": 36,
            "name": "C2",
            "ticks": 57024,
            "time": 74.25,
            "velocity": 0.3937007874015748
          },
          {
            "duration": 0.0625,
            "durationTicks": 48,
            "midi": 33,
            "name": "A1",
            "ticks": 57024,
            "time": 74.25,
            "velocity": 0.3937007874015748
          },
          {
            "duration": 0.0625,
            "durationTicks": 48,
            "midi": 33,
            "name": "A1",
            "ticks": 57312,
            "time": 74.625,
            "velocity": 0.3937007874015748
          },
          {
            "duration": 0.0625,
            "durationTicks": 48,
            "midi": 38,
            "name": "D2",
            "ticks": 57312,
            "time": 74.625,
            "velocity": 0.3937007874015748
          },
          {
            "duration": 0.0625,
            "durationTicks": 48,
            "midi": 36,
            "name": "C2",
            "ticks": 57456,
            "time": 74.8125,
            "velocity": 0.3937007874015748
          },
          {
            "duration": 0.0625,
            "durationTicks": 48,
            "midi": 33,
            "name": "A1",
            "ticks": 57600,
            "time": 75,
            "velocity": 0.3937007874015748
          },
          {
            "duration": 0.0625,
            "durationTicks": 48,
            "midi": 36,
            "name": "C2",
            "ticks": 57744,
            "time": 75.1875,
            "velocity": 0.3937007874015748
          },
          {
            "duration": 0.0625,
            "durationTicks": 48,
            "midi": 38,
            "name": "D2",
            "ticks": 57888,
            "time": 75.375,
            "velocity": 0.3937007874015748
          },
          {
            "duration": 0.0625,
            "durationTicks": 48,
            "midi": 33,
            "name": "A1",
            "ticks": 57888,
            "time": 75.375,
            "velocity": 0.3937007874015748
          },
          {
            "duration": 0.125,
            "durationTicks": 96,
            "midi": 36,
            "name": "C2",
            "ticks": 58176,
            "time": 75.75,
            "velocity": 0.3937007874015748
          },
          {
            "duration": 0.0625,
            "durationTicks": 48,
            "midi": 33,
            "name": "A1",
            "ticks": 58176,
            "time": 75.75,
            "velocity": 0.3937007874015748
          },
          {
            "duration": 0.0625,
            "durationTicks": 48,
            "midi": 33,
            "name": "A1",
            "ticks": 58464,
            "time": 76.125,
            "velocity": 0.3937007874015748
          },
          {
            "duration": 0.0625,
            "durationTicks": 48,
            "midi": 38,
            "name": "D2",
            "ticks": 58464,
            "time": 76.125,
            "velocity": 0.3937007874015748
          },
          {
            "duration": 0.0625,
            "durationTicks": 48,
            "midi": 36,
            "name": "C2",
            "ticks": 58608,
            "time": 76.3125,
            "velocity": 0.3937007874015748
          },
          {
            "duration": 0.0625,
            "durationTicks": 48,
            "midi": 33,
            "name": "A1",
            "ticks": 58752,
            "time": 76.5,
            "velocity": 0.3937007874015748
          },
          {
            "duration": 0.0625,
            "durationTicks": 48,
            "midi": 36,
            "name": "C2",
            "ticks": 58896,
            "time": 76.6875,
            "velocity": 0.3937007874015748
          },
          {
            "duration": 0.0625,
            "durationTicks": 48,
            "midi": 38,
            "name": "D2",
            "ticks": 59040,
            "time": 76.875,
            "velocity": 0.3937007874015748
          },
          {
            "duration": 0.0625,
            "durationTicks": 48,
            "midi": 33,
            "name": "A1",
            "ticks": 59040,
            "time": 76.875,
            "velocity": 0.3937007874015748
          },
          {
            "duration": 0.125,
            "durationTicks": 96,
            "midi": 36,
            "name": "C2",
            "ticks": 59328,
            "time": 77.25,
            "velocity": 0.3937007874015748
          },
          {
            "duration": 0.0625,
            "durationTicks": 48,
            "midi": 33,
            "name": "A1",
            "ticks": 59328,
            "time": 77.25,
            "velocity": 0.3937007874015748
          },
          {
            "duration": 0.0625,
            "durationTicks": 48,
            "midi": 33,
            "name": "A1",
            "ticks": 59616,
            "time": 77.625,
            "velocity": 0.3937007874015748
          },
          {
            "duration": 0.0625,
            "durationTicks": 48,
            "midi": 38,
            "name": "D2",
            "ticks": 59616,
            "time": 77.625,
            "velocity": 0.3937007874015748
          },
          {
            "duration": 0.0625,
            "durationTicks": 48,
            "midi": 36,
            "name": "C2",
            "ticks": 59760,
            "time": 77.8125,
            "velocity": 0.3937007874015748
          },
          {
            "duration": 0.0625,
            "durationTicks": 48,
            "midi": 33,
            "name": "A1",
            "ticks": 59904,
            "time": 78,
            "velocity": 0.3937007874015748
          },
          {
            "duration": 0.0625,
            "durationTicks": 48,
            "midi": 36,
            "name": "C2",
            "ticks": 60048,
            "time": 78.1875,
            "velocity": 0.3937007874015748
          },
          {
            "duration": 0.0625,
            "durationTicks": 48,
            "midi": 33,
            "name": "A1",
            "ticks": 60192,
            "time": 78.375,
            "velocity": 0.3937007874015748
          },
          {
            "duration": 0.0625,
            "durationTicks": 48,
            "midi": 38,
            "name": "D2",
            "ticks": 60192,
            "time": 78.375,
            "velocity": 0.3937007874015748
          },
          {
            "duration": 0.125,
            "durationTicks": 96,
            "midi": 36,
            "name": "C2",
            "ticks": 60480,
            "time": 78.75,
            "velocity": 0.3937007874015748
          },
          {
            "duration": 0.0625,
            "durationTicks": 48,
            "midi": 33,
            "name": "A1",
            "ticks": 60480,
            "time": 78.75,
            "velocity": 0.3937007874015748
          },
          {
            "duration": 0.0625,
            "durationTicks": 48,
            "midi": 33,
            "name": "A1",
            "ticks": 60768,
            "time": 79.125,
            "velocity": 0.3937007874015748
          },
          {
            "duration": 0.0625,
            "durationTicks": 48,
            "midi": 38,
            "name": "D2",
            "ticks": 60768,
            "time": 79.125,
            "velocity": 0.3937007874015748
          },
          {
            "duration": 0.0625,
            "durationTicks": 48,
            "midi": 33,
            "name": "A1",
            "ticks": 61056,
            "time": 79.5,
            "velocity": 0.3937007874015748
          },
          {
            "duration": 0.125,
            "durationTicks": 96,
            "midi": 36,
            "name": "C2",
            "ticks": 61056,
            "time": 79.5,
            "velocity": 0.3937007874015748
          },
          {
            "duration": 0.0625,
            "durationTicks": 48,
            "midi": 33,
            "name": "A1",
            "ticks": 61344,
            "time": 79.875,
            "velocity": 0.3937007874015748
          },
          {
            "duration": 0.0625,
            "durationTicks": 48,
            "midi": 38,
            "name": "D2",
            "ticks": 61344,
            "time": 79.875,
            "velocity": 0.3937007874015748
          },
          {
            "duration": 0.0625,
            "durationTicks": 48,
            "midi": 36,
            "name": "C2",
            "ticks": 61488,
            "time": 80.0625,
            "velocity": 0.3937007874015748
          },
          {
            "duration": 0.0625,
            "durationTicks": 48,
            "midi": 33,
            "name": "A1",
            "ticks": 61632,
            "time": 80.25,
            "velocity": 0.3937007874015748
          },
          {
            "duration": 0.0625,
            "durationTicks": 48,
            "midi": 36,
            "name": "C2",
            "ticks": 61776,
            "time": 80.4375,
            "velocity": 0.3937007874015748
          },
          {
            "duration": 0.0625,
            "durationTicks": 48,
            "midi": 38,
            "name": "D2",
            "ticks": 61920,
            "time": 80.625,
            "velocity": 0.3937007874015748
          },
          {
            "duration": 0.0625,
            "durationTicks": 48,
            "midi": 33,
            "name": "A1",
            "ticks": 61920,
            "time": 80.625,
            "velocity": 0.3937007874015748
          },
          {
            "duration": 0.0625,
            "durationTicks": 48,
            "midi": 33,
            "name": "A1",
            "ticks": 62208,
            "time": 81,
            "velocity": 0.3937007874015748
          },
          {
            "duration": 0.125,
            "durationTicks": 96,
            "midi": 36,
            "name": "C2",
            "ticks": 62208,
            "time": 81,
            "velocity": 0.3937007874015748
          },
          {
            "duration": 0.0625,
            "durationTicks": 48,
            "midi": 33,
            "name": "A1",
            "ticks": 62496,
            "time": 81.375,
            "velocity": 0.3937007874015748
          },
          {
            "duration": 0.0625,
            "durationTicks": 48,
            "midi": 33,
            "name": "A1",
            "ticks": 62496,
            "time": 81.375,
            "velocity": 0.3937007874015748
          },
          {
            "duration": 0.0625,
            "durationTicks": 48,
            "midi": 38,
            "name": "D2",
            "ticks": 62496,
            "time": 81.375,
            "velocity": 0.3937007874015748
          },
          {
            "duration": 0.0625,
            "durationTicks": 48,
            "midi": 39,
            "name": "D#2",
            "ticks": 62496,
            "time": 81.375,
            "velocity": 0.3937007874015748
          },
          {
            "duration": 0.0625,
            "durationTicks": 48,
            "midi": 36,
            "name": "C2",
            "ticks": 62640,
            "time": 81.5625,
            "velocity": 0.3937007874015748
          },
          {
            "duration": 0.0625,
            "durationTicks": 48,
            "midi": 39,
            "name": "D#2",
            "ticks": 62784,
            "time": 81.75,
            "velocity": 0.3937007874015748
          },
          {
            "duration": 0.0625,
            "durationTicks": 48,
            "midi": 33,
            "name": "A1",
            "ticks": 62784,
            "time": 81.75,
            "velocity": 0.3937007874015748
          },
          {
            "duration": 0.0625,
            "durationTicks": 48,
            "midi": 33,
            "name": "A1",
            "ticks": 62784,
            "time": 81.75,
            "velocity": 0.3937007874015748
          },
          {
            "duration": 0.0625,
            "durationTicks": 48,
            "midi": 36,
            "name": "C2",
            "ticks": 62928,
            "time": 81.9375,
            "velocity": 0.3937007874015748
          },
          {
            "duration": 0.0625,
            "durationTicks": 48,
            "midi": 38,
            "name": "D2",
            "ticks": 63072,
            "time": 82.125,
            "velocity": 0.3937007874015748
          },
          {
            "duration": 0.0625,
            "durationTicks": 48,
            "midi": 39,
            "name": "D#2",
            "ticks": 63072,
            "time": 82.125,
            "velocity": 0.3937007874015748
          },
          {
            "duration": 0.0625,
            "durationTicks": 48,
            "midi": 33,
            "name": "A1",
            "ticks": 63072,
            "time": 82.125,
            "velocity": 0.3937007874015748
          },
          {
            "duration": 0.0625,
            "durationTicks": 48,
            "midi": 33,
            "name": "A1",
            "ticks": 63072,
            "time": 82.125,
            "velocity": 0.3937007874015748
          },
          {
            "duration": 0.0625,
            "durationTicks": 48,
            "midi": 33,
            "name": "A1",
            "ticks": 63360,
            "time": 82.5,
            "velocity": 0.3937007874015748
          },
          {
            "duration": 0.125,
            "durationTicks": 96,
            "midi": 36,
            "name": "C2",
            "ticks": 63360,
            "time": 82.5,
            "velocity": 0.3937007874015748
          },
          {
            "duration": 0.0625,
            "durationTicks": 48,
            "midi": 38,
            "name": "D2",
            "ticks": 63648,
            "time": 82.875,
            "velocity": 0.3937007874015748
          },
          {
            "duration": 0.0625,
            "durationTicks": 48,
            "midi": 33,
            "name": "A1",
            "ticks": 63648,
            "time": 82.875,
            "velocity": 0.3937007874015748
          },
          {
            "duration": 0.0625,
            "durationTicks": 48,
            "midi": 36,
            "name": "C2",
            "ticks": 63792,
            "time": 83.0625,
            "velocity": 0.3937007874015748
          },
          {
            "duration": 0.0625,
            "durationTicks": 48,
            "midi": 33,
            "name": "A1",
            "ticks": 63936,
            "time": 83.25,
            "velocity": 0.3937007874015748
          },
          {
            "duration": 0.0625,
            "durationTicks": 48,
            "midi": 36,
            "name": "C2",
            "ticks": 64080,
            "time": 83.4375,
            "velocity": 0.3937007874015748
          },
          {
            "duration": 0.0625,
            "durationTicks": 48,
            "midi": 33,
            "name": "A1",
            "ticks": 64224,
            "time": 83.625,
            "velocity": 0.3937007874015748
          },
          {
            "duration": 0.0625,
            "durationTicks": 48,
            "midi": 38,
            "name": "D2",
            "ticks": 64224,
            "time": 83.625,
            "velocity": 0.3937007874015748
          },
          {
            "duration": 0.125,
            "durationTicks": 96,
            "midi": 36,
            "name": "C2",
            "ticks": 64512,
            "time": 84,
            "velocity": 0.3937007874015748
          },
          {
            "duration": 0.0625,
            "durationTicks": 48,
            "midi": 33,
            "name": "A1",
            "ticks": 64512,
            "time": 84,
            "velocity": 0.3937007874015748
          },
          {
            "duration": 0.0625,
            "durationTicks": 48,
            "midi": 33,
            "name": "A1",
            "ticks": 64800,
            "time": 84.375,
            "velocity": 0.3937007874015748
          },
          {
            "duration": 0.0625,
            "durationTicks": 48,
            "midi": 38,
            "name": "D2",
            "ticks": 64800,
            "time": 84.375,
            "velocity": 0.3937007874015748
          },
          {
            "duration": 0.0625,
            "durationTicks": 48,
            "midi": 36,
            "name": "C2",
            "ticks": 64944,
            "time": 84.5625,
            "velocity": 0.3937007874015748
          },
          {
            "duration": 0.0625,
            "durationTicks": 48,
            "midi": 33,
            "name": "A1",
            "ticks": 65088,
            "time": 84.75,
            "velocity": 0.3937007874015748
          },
          {
            "duration": 0.0625,
            "durationTicks": 48,
            "midi": 36,
            "name": "C2",
            "ticks": 65232,
            "time": 84.9375,
            "velocity": 0.3937007874015748
          },
          {
            "duration": 0.0625,
            "durationTicks": 48,
            "midi": 33,
            "name": "A1",
            "ticks": 65376,
            "time": 85.125,
            "velocity": 0.3937007874015748
          },
          {
            "duration": 0.0625,
            "durationTicks": 48,
            "midi": 38,
            "name": "D2",
            "ticks": 65376,
            "time": 85.125,
            "velocity": 0.3937007874015748
          },
          {
            "duration": 0.0625,
            "durationTicks": 48,
            "midi": 33,
            "name": "A1",
            "ticks": 65664,
            "time": 85.5,
            "velocity": 0.3937007874015748
          },
          {
            "duration": 0.125,
            "durationTicks": 96,
            "midi": 36,
            "name": "C2",
            "ticks": 65664,
            "time": 85.5,
            "velocity": 0.3937007874015748
          },
          {
            "duration": 0.0625,
            "durationTicks": 48,
            "midi": 33,
            "name": "A1",
            "ticks": 65952,
            "time": 85.875,
            "velocity": 0.3937007874015748
          },
          {
            "duration": 0.0625,
            "durationTicks": 48,
            "midi": 38,
            "name": "D2",
            "ticks": 65952,
            "time": 85.875,
            "velocity": 0.3937007874015748
          },
          {
            "duration": 0.0625,
            "durationTicks": 48,
            "midi": 36,
            "name": "C2",
            "ticks": 66096,
            "time": 86.0625,
            "velocity": 0.3937007874015748
          },
          {
            "duration": 0.0625,
            "durationTicks": 48,
            "midi": 33,
            "name": "A1",
            "ticks": 66240,
            "time": 86.25,
            "velocity": 0.3937007874015748
          },
          {
            "duration": 0.0625,
            "durationTicks": 48,
            "midi": 36,
            "name": "C2",
            "ticks": 66384,
            "time": 86.4375,
            "velocity": 0.3937007874015748
          },
          {
            "duration": 0.0625,
            "durationTicks": 48,
            "midi": 38,
            "name": "D2",
            "ticks": 66528,
            "time": 86.625,
            "velocity": 0.3937007874015748
          },
          {
            "duration": 0.0625,
            "durationTicks": 48,
            "midi": 33,
            "name": "A1",
            "ticks": 66528,
            "time": 86.625,
            "velocity": 0.3937007874015748
          },
          {
            "duration": 0.125,
            "durationTicks": 96,
            "midi": 36,
            "name": "C2",
            "ticks": 66816,
            "time": 87,
            "velocity": 0.3937007874015748
          },
          {
            "duration": 0.0625,
            "durationTicks": 48,
            "midi": 33,
            "name": "A1",
            "ticks": 66816,
            "time": 87,
            "velocity": 0.3937007874015748
          },
          {
            "duration": 0.0625,
            "durationTicks": 48,
            "midi": 33,
            "name": "A1",
            "ticks": 67104,
            "time": 87.375,
            "velocity": 0.3937007874015748
          },
          {
            "duration": 0.0625,
            "durationTicks": 48,
            "midi": 38,
            "name": "D2",
            "ticks": 67104,
            "time": 87.375,
            "velocity": 0.3937007874015748
          },
          {
            "duration": 0.125,
            "durationTicks": 96,
            "midi": 36,
            "name": "C2",
            "ticks": 67392,
            "time": 87.75,
            "velocity": 0.3937007874015748
          },
          {
            "duration": 0.0625,
            "durationTicks": 48,
            "midi": 33,
            "name": "A1",
            "ticks": 67392,
            "time": 87.75,
            "velocity": 0.3937007874015748
          },
          {
            "duration": 0.0625,
            "durationTicks": 48,
            "midi": 38,
            "name": "D2",
            "ticks": 67680,
            "time": 88.125,
            "velocity": 0.3937007874015748
          },
          {
            "duration": 0.0625,
            "durationTicks": 48,
            "midi": 33,
            "name": "A1",
            "ticks": 67680,
            "time": 88.125,
            "velocity": 0.3937007874015748
          },
          {
            "duration": 0.0625,
            "durationTicks": 48,
            "midi": 36,
            "name": "C2",
            "ticks": 67824,
            "time": 88.3125,
            "velocity": 0.3937007874015748
          },
          {
            "duration": 0.0625,
            "durationTicks": 48,
            "midi": 33,
            "name": "A1",
            "ticks": 67968,
            "time": 88.5,
            "velocity": 0.3937007874015748
          },
          {
            "duration": 0.0625,
            "durationTicks": 48,
            "midi": 36,
            "name": "C2",
            "ticks": 68112,
            "time": 88.6875,
            "velocity": 0.3937007874015748
          },
          {
            "duration": 0.0625,
            "durationTicks": 48,
            "midi": 38,
            "name": "D2",
            "ticks": 68256,
            "time": 88.875,
            "velocity": 0.3937007874015748
          },
          {
            "duration": 0.0625,
            "durationTicks": 48,
            "midi": 33,
            "name": "A1",
            "ticks": 68256,
            "time": 88.875,
            "velocity": 0.3937007874015748
          },
          {
            "duration": 0.0625,
            "durationTicks": 48,
            "midi": 33,
            "name": "A1",
            "ticks": 68544,
            "time": 89.25,
            "velocity": 0.3937007874015748
          },
          {
            "duration": 0.125,
            "durationTicks": 96,
            "midi": 36,
            "name": "C2",
            "ticks": 68544,
            "time": 89.25,
            "velocity": 0.3937007874015748
          },
          {
            "duration": 0.0625,
            "durationTicks": 48,
            "midi": 33,
            "name": "A1",
            "ticks": 68832,
            "time": 89.625,
            "velocity": 0.3937007874015748
          },
          {
            "duration": 0.0625,
            "durationTicks": 48,
            "midi": 39,
            "name": "D#2",
            "ticks": 68832,
            "time": 89.625,
            "velocity": 0.3937007874015748
          },
          {
            "duration": 0.0625,
            "durationTicks": 48,
            "midi": 38,
            "name": "D2",
            "ticks": 68832,
            "time": 89.625,
            "velocity": 0.3937007874015748
          },
          {
            "duration": 0.0625,
            "durationTicks": 48,
            "midi": 36,
            "name": "C2",
            "ticks": 68976,
            "time": 89.8125,
            "velocity": 0.3937007874015748
          },
          {
            "duration": 0.0625,
            "durationTicks": 48,
            "midi": 33,
            "name": "A1",
            "ticks": 69120,
            "time": 90,
            "velocity": 0.3937007874015748
          },
          {
            "duration": 0.0625,
            "durationTicks": 48,
            "midi": 39,
            "name": "D#2",
            "ticks": 69120,
            "time": 90,
            "velocity": 0.3937007874015748
          },
          {
            "duration": 0.0625,
            "durationTicks": 48,
            "midi": 36,
            "name": "C2",
            "ticks": 69264,
            "time": 90.1875,
            "velocity": 0.3937007874015748
          },
          {
            "duration": 0.0625,
            "durationTicks": 48,
            "midi": 33,
            "name": "A1",
            "ticks": 69408,
            "time": 90.375,
            "velocity": 0.3937007874015748
          },
          {
            "duration": 0.0625,
            "durationTicks": 48,
            "midi": 39,
            "name": "D#2",
            "ticks": 69408,
            "time": 90.375,
            "velocity": 0.3937007874015748
          },
          {
            "duration": 0.0625,
            "durationTicks": 48,
            "midi": 38,
            "name": "D2",
            "ticks": 69408,
            "time": 90.375,
            "velocity": 0.3937007874015748
          },
          {
            "duration": 0.0625,
            "durationTicks": 48,
            "midi": 33,
            "name": "A1",
            "ticks": 69696,
            "time": 90.75,
            "velocity": 0.3937007874015748
          },
          {
            "duration": 0.125,
            "durationTicks": 96,
            "midi": 36,
            "name": "C2",
            "ticks": 69696,
            "time": 90.75,
            "velocity": 0.3937007874015748
          },
          {
            "duration": 0.0625,
            "durationTicks": 48,
            "midi": 38,
            "name": "D2",
            "ticks": 69984,
            "time": 91.125,
            "velocity": 0.3937007874015748
          },
          {
            "duration": 0.0625,
            "durationTicks": 48,
            "midi": 33,
            "name": "A1",
            "ticks": 69984,
            "time": 91.125,
            "velocity": 0.3937007874015748
          },
          {
            "duration": 0.0625,
            "durationTicks": 48,
            "midi": 36,
            "name": "C2",
            "ticks": 70128,
            "time": 91.3125,
            "velocity": 0.3937007874015748
          },
          {
            "duration": 0.0625,
            "durationTicks": 48,
            "midi": 33,
            "name": "A1",
            "ticks": 70272,
            "time": 91.5,
            "velocity": 0.3937007874015748
          },
          {
            "duration": 0.0625,
            "durationTicks": 48,
            "midi": 36,
            "name": "C2",
            "ticks": 70416,
            "time": 91.6875,
            "velocity": 0.3937007874015748
          },
          {
            "duration": 0.0625,
            "durationTicks": 48,
            "midi": 33,
            "name": "A1",
            "ticks": 70560,
            "time": 91.875,
            "velocity": 0.3937007874015748
          },
          {
            "duration": 0.0625,
            "durationTicks": 48,
            "midi": 38,
            "name": "D2",
            "ticks": 70560,
            "time": 91.875,
            "velocity": 0.3937007874015748
          },
          {
            "duration": 0.0625,
            "durationTicks": 48,
            "midi": 33,
            "name": "A1",
            "ticks": 70848,
            "time": 92.25,
            "velocity": 0.3937007874015748
          },
          {
            "duration": 0.125,
            "durationTicks": 96,
            "midi": 36,
            "name": "C2",
            "ticks": 70848,
            "time": 92.25,
            "velocity": 0.3937007874015748
          },
          {
            "duration": 0.0625,
            "durationTicks": 48,
            "midi": 33,
            "name": "A1",
            "ticks": 71136,
            "time": 92.625,
            "velocity": 0.3937007874015748
          },
          {
            "duration": 0.0625,
            "durationTicks": 48,
            "midi": 38,
            "name": "D2",
            "ticks": 71136,
            "time": 92.625,
            "velocity": 0.3937007874015748
          },
          {
            "duration": 0.0625,
            "durationTicks": 48,
            "midi": 36,
            "name": "C2",
            "ticks": 71280,
            "time": 92.8125,
            "velocity": 0.3937007874015748
          },
          {
            "duration": 0.0625,
            "durationTicks": 48,
            "midi": 33,
            "name": "A1",
            "ticks": 71424,
            "time": 93,
            "velocity": 0.3937007874015748
          },
          {
            "duration": 0.0625,
            "durationTicks": 48,
            "midi": 36,
            "name": "C2",
            "ticks": 71568,
            "time": 93.1875,
            "velocity": 0.3937007874015748
          },
          {
            "duration": 0.0625,
            "durationTicks": 48,
            "midi": 38,
            "name": "D2",
            "ticks": 71712,
            "time": 93.375,
            "velocity": 0.3937007874015748
          },
          {
            "duration": 0.0625,
            "durationTicks": 48,
            "midi": 33,
            "name": "A1",
            "ticks": 71712,
            "time": 93.375,
            "velocity": 0.3937007874015748
          },
          {
            "duration": 0.125,
            "durationTicks": 96,
            "midi": 36,
            "name": "C2",
            "ticks": 72000,
            "time": 93.75,
            "velocity": 0.3937007874015748
          },
          {
            "duration": 0.0625,
            "durationTicks": 48,
            "midi": 33,
            "name": "A1",
            "ticks": 72000,
            "time": 93.75,
            "velocity": 0.3937007874015748
          },
          {
            "duration": 0.0625,
            "durationTicks": 48,
            "midi": 33,
            "name": "A1",
            "ticks": 72288,
            "time": 94.125,
            "velocity": 0.3937007874015748
          },
          {
            "duration": 0.0625,
            "durationTicks": 48,
            "midi": 38,
            "name": "D2",
            "ticks": 72288,
            "time": 94.125,
            "velocity": 0.3937007874015748
          },
          {
            "duration": 0.0625,
            "durationTicks": 48,
            "midi": 36,
            "name": "C2",
            "ticks": 72432,
            "time": 94.3125,
            "velocity": 0.3937007874015748
          },
          {
            "duration": 0.0625,
            "durationTicks": 48,
            "midi": 33,
            "name": "A1",
            "ticks": 72576,
            "time": 94.5,
            "velocity": 0.3937007874015748
          },
          {
            "duration": 0.0625,
            "durationTicks": 48,
            "midi": 36,
            "name": "C2",
            "ticks": 72720,
            "time": 94.6875,
            "velocity": 0.3937007874015748
          },
          {
            "duration": 0.0625,
            "durationTicks": 48,
            "midi": 38,
            "name": "D2",
            "ticks": 72864,
            "time": 94.875,
            "velocity": 0.3937007874015748
          },
          {
            "duration": 0.0625,
            "durationTicks": 48,
            "midi": 33,
            "name": "A1",
            "ticks": 72864,
            "time": 94.875,
            "velocity": 0.3937007874015748
          },
          {
            "duration": 0.125,
            "durationTicks": 96,
            "midi": 36,
            "name": "C2",
            "ticks": 73152,
            "time": 95.25,
            "velocity": 0.3937007874015748
          },
          {
            "duration": 0.0625,
            "durationTicks": 48,
            "midi": 33,
            "name": "A1",
            "ticks": 73152,
            "time": 95.25,
            "velocity": 0.3937007874015748
          },
          {
            "duration": 0.0625,
            "durationTicks": 48,
            "midi": 38,
            "name": "D2",
            "ticks": 73440,
            "time": 95.625,
            "velocity": 0.3937007874015748
          },
          {
            "duration": 0.0625,
            "durationTicks": 48,
            "midi": 33,
            "name": "A1",
            "ticks": 73440,
            "time": 95.625,
            "velocity": 0.3937007874015748
          },
          {
            "duration": 0.125,
            "durationTicks": 96,
            "midi": 36,
            "name": "C2",
            "ticks": 73728,
            "time": 96,
            "velocity": 0.3937007874015748
          },
          {
            "duration": 0.0625,
            "durationTicks": 48,
            "midi": 33,
            "name": "A1",
            "ticks": 73728,
            "time": 96,
            "velocity": 0.3937007874015748
          },
          {
            "duration": 0.0625,
            "durationTicks": 48,
            "midi": 33,
            "name": "A1",
            "ticks": 74016,
            "time": 96.375,
            "velocity": 0.3937007874015748
          },
          {
            "duration": 0.0625,
            "durationTicks": 48,
            "midi": 38,
            "name": "D2",
            "ticks": 74016,
            "time": 96.375,
            "velocity": 0.3937007874015748
          },
          {
            "duration": 0.0625,
            "durationTicks": 48,
            "midi": 36,
            "name": "C2",
            "ticks": 74160,
            "time": 96.5625,
            "velocity": 0.3937007874015748
          },
          {
            "duration": 0.0625,
            "durationTicks": 48,
            "midi": 33,
            "name": "A1",
            "ticks": 74304,
            "time": 96.75,
            "velocity": 0.3937007874015748
          },
          {
            "duration": 0.0625,
            "durationTicks": 48,
            "midi": 33,
            "name": "A1",
            "ticks": 76032,
            "time": 99,
            "velocity": 0.3937007874015748
          },
          {
            "duration": 0.125,
            "durationTicks": 96,
            "midi": 36,
            "name": "C2",
            "ticks": 76032,
            "time": 99,
            "velocity": 0.3937007874015748
          },
          {
            "duration": 0.0625,
            "durationTicks": 48,
            "midi": 38,
            "name": "D2",
            "ticks": 76320,
            "time": 99.375,
            "velocity": 0.3937007874015748
          },
          {
            "duration": 0.0625,
            "durationTicks": 48,
            "midi": 33,
            "name": "A1",
            "ticks": 76320,
            "time": 99.375,
            "velocity": 0.3937007874015748
          },
          {
            "duration": 0.0625,
            "durationTicks": 48,
            "midi": 36,
            "name": "C2",
            "ticks": 76464,
            "time": 99.5625,
            "velocity": 0.3937007874015748
          },
          {
            "duration": 0.0625,
            "durationTicks": 48,
            "midi": 33,
            "name": "A1",
            "ticks": 76608,
            "time": 99.75,
            "velocity": 0.3937007874015748
          },
          {
            "duration": 0.0625,
            "durationTicks": 48,
            "midi": 36,
            "name": "C2",
            "ticks": 76752,
            "time": 99.9375,
            "velocity": 0.3937007874015748
          },
          {
            "duration": 0.0625,
            "durationTicks": 48,
            "midi": 33,
            "name": "A1",
            "ticks": 76896,
            "time": 100.125,
            "velocity": 0.3937007874015748
          },
          {
            "duration": 0.0625,
            "durationTicks": 48,
            "midi": 38,
            "name": "D2",
            "ticks": 76896,
            "time": 100.125,
            "velocity": 0.3937007874015748
          },
          {
            "duration": 0.125,
            "durationTicks": 96,
            "midi": 36,
            "name": "C2",
            "ticks": 77184,
            "time": 100.5,
            "velocity": 0.3937007874015748
          },
          {
            "duration": 0.0625,
            "durationTicks": 48,
            "midi": 33,
            "name": "A1",
            "ticks": 77184,
            "time": 100.5,
            "velocity": 0.3937007874015748
          },
          {
            "duration": 0.0625,
            "durationTicks": 48,
            "midi": 38,
            "name": "D2",
            "ticks": 77472,
            "time": 100.875,
            "velocity": 0.3937007874015748
          },
          {
            "duration": 0.0625,
            "durationTicks": 48,
            "midi": 33,
            "name": "A1",
            "ticks": 77472,
            "time": 100.875,
            "velocity": 0.3937007874015748
          },
          {
            "duration": 0.0625,
            "durationTicks": 48,
            "midi": 36,
            "name": "C2",
            "ticks": 77616,
            "time": 101.0625,
            "velocity": 0.3937007874015748
          },
          {
            "duration": 0.0625,
            "durationTicks": 48,
            "midi": 33,
            "name": "A1",
            "ticks": 77760,
            "time": 101.25,
            "velocity": 0.3937007874015748
          },
          {
            "duration": 0.0625,
            "durationTicks": 48,
            "midi": 36,
            "name": "C2",
            "ticks": 77904,
            "time": 101.4375,
            "velocity": 0.3937007874015748
          },
          {
            "duration": 0.0625,
            "durationTicks": 48,
            "midi": 38,
            "name": "D2",
            "ticks": 78048,
            "time": 101.625,
            "velocity": 0.3937007874015748
          },
          {
            "duration": 0.0625,
            "durationTicks": 48,
            "midi": 33,
            "name": "A1",
            "ticks": 78048,
            "time": 101.625,
            "velocity": 0.3937007874015748
          },
          {
            "duration": 0.0625,
            "durationTicks": 48,
            "midi": 33,
            "name": "A1",
            "ticks": 78336,
            "time": 102,
            "velocity": 0.3937007874015748
          },
          {
            "duration": 0.125,
            "durationTicks": 96,
            "midi": 36,
            "name": "C2",
            "ticks": 78336,
            "time": 102,
            "velocity": 0.3937007874015748
          },
          {
            "duration": 0.0625,
            "durationTicks": 48,
            "midi": 33,
            "name": "A1",
            "ticks": 78624,
            "time": 102.375,
            "velocity": 0.3937007874015748
          },
          {
            "duration": 0.0625,
            "durationTicks": 48,
            "midi": 38,
            "name": "D2",
            "ticks": 78624,
            "time": 102.375,
            "velocity": 0.3937007874015748
          },
          {
            "duration": 0.0625,
            "durationTicks": 48,
            "midi": 36,
            "name": "C2",
            "ticks": 78768,
            "time": 102.5625,
            "velocity": 0.3937007874015748
          },
          {
            "duration": 0.0625,
            "durationTicks": 48,
            "midi": 33,
            "name": "A1",
            "ticks": 78912,
            "time": 102.75,
            "velocity": 0.3937007874015748
          },
          {
            "duration": 0.0625,
            "durationTicks": 48,
            "midi": 36,
            "name": "C2",
            "ticks": 79056,
            "time": 102.9375,
            "velocity": 0.3937007874015748
          },
          {
            "duration": 0.0625,
            "durationTicks": 48,
            "midi": 38,
            "name": "D2",
            "ticks": 79200,
            "time": 103.125,
            "velocity": 0.3937007874015748
          },
          {
            "duration": 0.0625,
            "durationTicks": 48,
            "midi": 33,
            "name": "A1",
            "ticks": 79200,
            "time": 103.125,
            "velocity": 0.3937007874015748
          },
          {
            "duration": 0.125,
            "durationTicks": 96,
            "midi": 36,
            "name": "C2",
            "ticks": 79488,
            "time": 103.5,
            "velocity": 0.3937007874015748
          },
          {
            "duration": 0.0625,
            "durationTicks": 48,
            "midi": 33,
            "name": "A1",
            "ticks": 79488,
            "time": 103.5,
            "velocity": 0.3937007874015748
          },
          {
            "duration": 0.0625,
            "durationTicks": 48,
            "midi": 33,
            "name": "A1",
            "ticks": 79776,
            "time": 103.875,
            "velocity": 0.3937007874015748
          },
          {
            "duration": 0.0625,
            "durationTicks": 48,
            "midi": 38,
            "name": "D2",
            "ticks": 79776,
            "time": 103.875,
            "velocity": 0.3937007874015748
          },
          {
            "duration": 0.0625,
            "durationTicks": 48,
            "midi": 33,
            "name": "A1",
            "ticks": 80064,
            "time": 104.25,
            "velocity": 0.3937007874015748
          },
          {
            "duration": 0.125,
            "durationTicks": 96,
            "midi": 36,
            "name": "C2",
            "ticks": 80064,
            "time": 104.25,
            "velocity": 0.3937007874015748
          },
          {
            "duration": 0.0625,
            "durationTicks": 48,
            "midi": 33,
            "name": "A1",
            "ticks": 80352,
            "time": 104.625,
            "velocity": 0.3937007874015748
          },
          {
            "duration": 0.0625,
            "durationTicks": 48,
            "midi": 38,
            "name": "D2",
            "ticks": 80352,
            "time": 104.625,
            "velocity": 0.3937007874015748
          },
          {
            "duration": 0.0625,
            "durationTicks": 48,
            "midi": 36,
            "name": "C2",
            "ticks": 80496,
            "time": 104.8125,
            "velocity": 0.3937007874015748
          },
          {
            "duration": 0.0625,
            "durationTicks": 48,
            "midi": 33,
            "name": "A1",
            "ticks": 80640,
            "time": 105,
            "velocity": 0.3937007874015748
          },
          {
            "duration": 0.0625,
            "durationTicks": 48,
            "midi": 36,
            "name": "C2",
            "ticks": 80784,
            "time": 105.1875,
            "velocity": 0.3937007874015748
          },
          {
            "duration": 0.0625,
            "durationTicks": 48,
            "midi": 33,
            "name": "A1",
            "ticks": 80928,
            "time": 105.375,
            "velocity": 0.3937007874015748
          },
          {
            "duration": 0.0625,
            "durationTicks": 48,
            "midi": 38,
            "name": "D2",
            "ticks": 80928,
            "time": 105.375,
            "velocity": 0.3937007874015748
          },
          {
            "duration": 0.125,
            "durationTicks": 96,
            "midi": 36,
            "name": "C2",
            "ticks": 81216,
            "time": 105.75,
            "velocity": 0.3937007874015748
          },
          {
            "duration": 0.0625,
            "durationTicks": 48,
            "midi": 33,
            "name": "A1",
            "ticks": 81216,
            "time": 105.75,
            "velocity": 0.3937007874015748
          },
          {
            "duration": 0.0625,
            "durationTicks": 48,
            "midi": 39,
            "name": "D#2",
            "ticks": 81504,
            "time": 106.125,
            "velocity": 0.3937007874015748
          },
          {
            "duration": 0.0625,
            "durationTicks": 48,
            "midi": 38,
            "name": "D2",
            "ticks": 81504,
            "time": 106.125,
            "velocity": 0.3937007874015748
          },
          {
            "duration": 0.0625,
            "durationTicks": 48,
            "midi": 33,
            "name": "A1",
            "ticks": 81504,
            "time": 106.125,
            "velocity": 0.3937007874015748
          },
          {
            "duration": 0.0625,
            "durationTicks": 48,
            "midi": 36,
            "name": "C2",
            "ticks": 81648,
            "time": 106.3125,
            "velocity": 0.3937007874015748
          },
          {
            "duration": 0.0625,
            "durationTicks": 48,
            "midi": 39,
            "name": "D#2",
            "ticks": 81792,
            "time": 106.5,
            "velocity": 0.3937007874015748
          },
          {
            "duration": 0.0625,
            "durationTicks": 48,
            "midi": 33,
            "name": "A1",
            "ticks": 81792,
            "time": 106.5,
            "velocity": 0.3937007874015748
          },
          {
            "duration": 0.0625,
            "durationTicks": 48,
            "midi": 36,
            "name": "C2",
            "ticks": 81936,
            "time": 106.6875,
            "velocity": 0.3937007874015748
          },
          {
            "duration": 0.0625,
            "durationTicks": 48,
            "midi": 38,
            "name": "D2",
            "ticks": 82080,
            "time": 106.875,
            "velocity": 0.3937007874015748
          },
          {
            "duration": 0.0625,
            "durationTicks": 48,
            "midi": 39,
            "name": "D#2",
            "ticks": 82080,
            "time": 106.875,
            "velocity": 0.3937007874015748
          },
          {
            "duration": 0.0625,
            "durationTicks": 48,
            "midi": 33,
            "name": "A1",
            "ticks": 82080,
            "time": 106.875,
            "velocity": 0.3937007874015748
          },
          {
            "duration": 0.125,
            "durationTicks": 96,
            "midi": 36,
            "name": "C2",
            "ticks": 82368,
            "time": 107.25,
            "velocity": 0.3937007874015748
          },
          {
            "duration": 0.0625,
            "durationTicks": 48,
            "midi": 33,
            "name": "A1",
            "ticks": 82368,
            "time": 107.25,
            "velocity": 0.3937007874015748
          },
          {
            "duration": 0.0625,
            "durationTicks": 48,
            "midi": 38,
            "name": "D2",
            "ticks": 82656,
            "time": 107.625,
            "velocity": 0.3937007874015748
          },
          {
            "duration": 0.0625,
            "durationTicks": 48,
            "midi": 33,
            "name": "A1",
            "ticks": 82656,
            "time": 107.625,
            "velocity": 0.3937007874015748
          },
          {
            "duration": 0.0625,
            "durationTicks": 48,
            "midi": 36,
            "name": "C2",
            "ticks": 82800,
            "time": 107.8125,
            "velocity": 0.3937007874015748
          },
          {
            "duration": 0.0625,
            "durationTicks": 48,
            "midi": 33,
            "name": "A1",
            "ticks": 82944,
            "time": 108,
            "velocity": 0.3937007874015748
          },
          {
            "duration": 0.0625,
            "durationTicks": 48,
            "midi": 36,
            "name": "C2",
            "ticks": 83088,
            "time": 108.1875,
            "velocity": 0.3937007874015748
          },
          {
            "duration": 0.0625,
            "durationTicks": 48,
            "midi": 38,
            "name": "D2",
            "ticks": 83232,
            "time": 108.375,
            "velocity": 0.3937007874015748
          },
          {
            "duration": 0.0625,
            "durationTicks": 48,
            "midi": 33,
            "name": "A1",
            "ticks": 83232,
            "time": 108.375,
            "velocity": 0.3937007874015748
          },
          {
            "duration": 0.125,
            "durationTicks": 96,
            "midi": 36,
            "name": "C2",
            "ticks": 83520,
            "time": 108.75,
            "velocity": 0.3937007874015748
          },
          {
            "duration": 0.0625,
            "durationTicks": 48,
            "midi": 33,
            "name": "A1",
            "ticks": 83520,
            "time": 108.75,
            "velocity": 0.3937007874015748
          },
          {
            "duration": 0.0625,
            "durationTicks": 48,
            "midi": 33,
            "name": "A1",
            "ticks": 83808,
            "time": 109.125,
            "velocity": 0.3937007874015748
          },
          {
            "duration": 0.0625,
            "durationTicks": 48,
            "midi": 38,
            "name": "D2",
            "ticks": 83808,
            "time": 109.125,
            "velocity": 0.3937007874015748
          },
          {
            "duration": 0.0625,
            "durationTicks": 48,
            "midi": 36,
            "name": "C2",
            "ticks": 83952,
            "time": 109.3125,
            "velocity": 0.3937007874015748
          },
          {
            "duration": 0.0625,
            "durationTicks": 48,
            "midi": 33,
            "name": "A1",
            "ticks": 84096,
            "time": 109.5,
            "velocity": 0.3937007874015748
          },
          {
            "duration": 0.0625,
            "durationTicks": 48,
            "midi": 36,
            "name": "C2",
            "ticks": 84240,
            "time": 109.6875,
            "velocity": 0.3937007874015748
          },
          {
            "duration": 0.0625,
            "durationTicks": 48,
            "midi": 38,
            "name": "D2",
            "ticks": 84384,
            "time": 109.875,
            "velocity": 0.3937007874015748
          },
          {
            "duration": 0.0625,
            "durationTicks": 48,
            "midi": 33,
            "name": "A1",
            "ticks": 84384,
            "time": 109.875,
            "velocity": 0.3937007874015748
          },
          {
            "duration": 0.0625,
            "durationTicks": 48,
            "midi": 33,
            "name": "A1",
            "ticks": 84672,
            "time": 110.25,
            "velocity": 0.3937007874015748
          },
          {
            "duration": 0.125,
            "durationTicks": 96,
            "midi": 36,
            "name": "C2",
            "ticks": 84672,
            "time": 110.25,
            "velocity": 0.3937007874015748
          },
          {
            "duration": 0.0625,
            "durationTicks": 48,
            "midi": 33,
            "name": "A1",
            "ticks": 84960,
            "time": 110.625,
            "velocity": 0.3937007874015748
          },
          {
            "duration": 0.0625,
            "durationTicks": 48,
            "midi": 38,
            "name": "D2",
            "ticks": 84960,
            "time": 110.625,
            "velocity": 0.3937007874015748
          },
          {
            "duration": 0.0625,
            "durationTicks": 48,
            "midi": 36,
            "name": "C2",
            "ticks": 85104,
            "time": 110.8125,
            "velocity": 0.3937007874015748
          },
          {
            "duration": 0.0625,
            "durationTicks": 48,
            "midi": 33,
            "name": "A1",
            "ticks": 85248,
            "time": 111,
            "velocity": 0.3937007874015748
          },
          {
            "duration": 0.0625,
            "durationTicks": 48,
            "midi": 36,
            "name": "C2",
            "ticks": 85392,
            "time": 111.1875,
            "velocity": 0.3937007874015748
          },
          {
            "duration": 0.0625,
            "durationTicks": 48,
            "midi": 38,
            "name": "D2",
            "ticks": 85536,
            "time": 111.375,
            "velocity": 0.3937007874015748
          },
          {
            "duration": 0.0625,
            "durationTicks": 48,
            "midi": 33,
            "name": "A1",
            "ticks": 85536,
            "time": 111.375,
            "velocity": 0.3937007874015748
          },
          {
            "duration": 0.125,
            "durationTicks": 96,
            "midi": 36,
            "name": "C2",
            "ticks": 85824,
            "time": 111.75,
            "velocity": 0.3937007874015748
          },
          {
            "duration": 0.0625,
            "durationTicks": 48,
            "midi": 33,
            "name": "A1",
            "ticks": 85824,
            "time": 111.75,
            "velocity": 0.3937007874015748
          },
          {
            "duration": 0.0625,
            "durationTicks": 48,
            "midi": 33,
            "name": "A1",
            "ticks": 86112,
            "time": 112.125,
            "velocity": 0.3937007874015748
          },
          {
            "duration": 0.0625,
            "durationTicks": 48,
            "midi": 38,
            "name": "D2",
            "ticks": 86112,
            "time": 112.125,
            "velocity": 0.3937007874015748
          },
          {
            "duration": 0.125,
            "durationTicks": 96,
            "midi": 36,
            "name": "C2",
            "ticks": 86400,
            "time": 112.5,
            "velocity": 0.3937007874015748
          },
          {
            "duration": 0.0625,
            "durationTicks": 48,
            "midi": 33,
            "name": "A1",
            "ticks": 86400,
            "time": 112.5,
            "velocity": 0.3937007874015748
          },
          {
            "duration": 0.0625,
            "durationTicks": 48,
            "midi": 38,
            "name": "D2",
            "ticks": 86688,
            "time": 112.875,
            "velocity": 0.3937007874015748
          },
          {
            "duration": 0.0625,
            "durationTicks": 48,
            "midi": 33,
            "name": "A1",
            "ticks": 86688,
            "time": 112.875,
            "velocity": 0.3937007874015748
          },
          {
            "duration": 0.0625,
            "durationTicks": 48,
            "midi": 36,
            "name": "C2",
            "ticks": 86832,
            "time": 113.0625,
            "velocity": 0.3937007874015748
          },
          {
            "duration": 0.0625,
            "durationTicks": 48,
            "midi": 33,
            "name": "A1",
            "ticks": 86976,
            "time": 113.25,
            "velocity": 0.3937007874015748
          },
          {
            "duration": 0.0625,
            "durationTicks": 48,
            "midi": 36,
            "name": "C2",
            "ticks": 87120,
            "time": 113.4375,
            "velocity": 0.3937007874015748
          },
          {
            "duration": 0.0625,
            "durationTicks": 48,
            "midi": 38,
            "name": "D2",
            "ticks": 87264,
            "time": 113.625,
            "velocity": 0.3937007874015748
          },
          {
            "duration": 0.0625,
            "durationTicks": 48,
            "midi": 33,
            "name": "A1",
            "ticks": 87264,
            "time": 113.625,
            "velocity": 0.3937007874015748
          },
          {
            "duration": 0.0625,
            "durationTicks": 48,
            "midi": 33,
            "name": "A1",
            "ticks": 87552,
            "time": 114,
            "velocity": 0.3937007874015748
          },
          {
            "duration": 0.125,
            "durationTicks": 96,
            "midi": 36,
            "name": "C2",
            "ticks": 87552,
            "time": 114,
            "velocity": 0.3937007874015748
          },
          {
            "duration": 0.0625,
            "durationTicks": 48,
            "midi": 38,
            "name": "D2",
            "ticks": 87840,
            "time": 114.375,
            "velocity": 0.3937007874015748
          },
          {
            "duration": 0.0625,
            "durationTicks": 48,
            "midi": 39,
            "name": "D#2",
            "ticks": 87840,
            "time": 114.375,
            "velocity": 0.3937007874015748
          },
          {
            "duration": 0.0625,
            "durationTicks": 48,
            "midi": 33,
            "name": "A1",
            "ticks": 87840,
            "time": 114.375,
            "velocity": 0.3937007874015748
          },
          {
            "duration": 0.0625,
            "durationTicks": 48,
            "midi": 33,
            "name": "A1",
            "ticks": 87840,
            "time": 114.375,
            "velocity": 0.3937007874015748
          },
          {
            "duration": 0.0625,
            "durationTicks": 48,
            "midi": 36,
            "name": "C2",
            "ticks": 87984,
            "time": 114.5625,
            "velocity": 0.3937007874015748
          },
          {
            "duration": 0.0625,
            "durationTicks": 48,
            "midi": 39,
            "name": "D#2",
            "ticks": 88128,
            "time": 114.75,
            "velocity": 0.3937007874015748
          },
          {
            "duration": 0.0625,
            "durationTicks": 48,
            "midi": 33,
            "name": "A1",
            "ticks": 88128,
            "time": 114.75,
            "velocity": 0.3937007874015748
          },
          {
            "duration": 0.0625,
            "durationTicks": 48,
            "midi": 33,
            "name": "A1",
            "ticks": 88128,
            "time": 114.75,
            "velocity": 0.3937007874015748
          },
          {
            "duration": 0.0625,
            "durationTicks": 48,
            "midi": 36,
            "name": "C2",
            "ticks": 88272,
            "time": 114.9375,
            "velocity": 0.3937007874015748
          },
          {
            "duration": 0.0625,
            "durationTicks": 48,
            "midi": 38,
            "name": "D2",
            "ticks": 88416,
            "time": 115.125,
            "velocity": 0.3937007874015748
          },
          {
            "duration": 0.0625,
            "durationTicks": 48,
            "midi": 33,
            "name": "A1",
            "ticks": 88416,
            "time": 115.125,
            "velocity": 0.3937007874015748
          },
          {
            "duration": 0.0625,
            "durationTicks": 48,
            "midi": 39,
            "name": "D#2",
            "ticks": 88416,
            "time": 115.125,
            "velocity": 0.3937007874015748
          },
          {
            "duration": 0.0625,
            "durationTicks": 48,
            "midi": 33,
            "name": "A1",
            "ticks": 88416,
            "time": 115.125,
            "velocity": 0.3937007874015748
          },
          {
            "duration": 0.0625,
            "durationTicks": 48,
            "midi": 33,
            "name": "A1",
            "ticks": 88704,
            "time": 115.5,
            "velocity": 0.3937007874015748
          },
          {
            "duration": 0.125,
            "durationTicks": 96,
            "midi": 36,
            "name": "C2",
            "ticks": 88704,
            "time": 115.5,
            "velocity": 0.3937007874015748
          },
          {
            "duration": 0.0625,
            "durationTicks": 48,
            "midi": 38,
            "name": "D2",
            "ticks": 88992,
            "time": 115.875,
            "velocity": 0.3937007874015748
          },
          {
            "duration": 0.0625,
            "durationTicks": 48,
            "midi": 33,
            "name": "A1",
            "ticks": 88992,
            "time": 115.875,
            "velocity": 0.3937007874015748
          },
          {
            "duration": 0.0625,
            "durationTicks": 48,
            "midi": 36,
            "name": "C2",
            "ticks": 89136,
            "time": 116.0625,
            "velocity": 0.3937007874015748
          },
          {
            "duration": 0.0625,
            "durationTicks": 48,
            "midi": 33,
            "name": "A1",
            "ticks": 89280,
            "time": 116.25,
            "velocity": 0.3937007874015748
          },
          {
            "duration": 0.0625,
            "durationTicks": 48,
            "midi": 36,
            "name": "C2",
            "ticks": 89424,
            "time": 116.4375,
            "velocity": 0.3937007874015748
          },
          {
            "duration": 0.0625,
            "durationTicks": 48,
            "midi": 33,
            "name": "A1",
            "ticks": 89568,
            "time": 116.625,
            "velocity": 0.3937007874015748
          },
          {
            "duration": 0.0625,
            "durationTicks": 48,
            "midi": 38,
            "name": "D2",
            "ticks": 89568,
            "time": 116.625,
            "velocity": 0.3937007874015748
          },
          {
            "duration": 0.125,
            "durationTicks": 96,
            "midi": 36,
            "name": "C2",
            "ticks": 89856,
            "time": 117,
            "velocity": 0.3937007874015748
          },
          {
            "duration": 0.0625,
            "durationTicks": 48,
            "midi": 33,
            "name": "A1",
            "ticks": 89856,
            "time": 117,
            "velocity": 0.3937007874015748
          },
          {
            "duration": 0.0625,
            "durationTicks": 48,
            "midi": 33,
            "name": "A1",
            "ticks": 90144,
            "time": 117.375,
            "velocity": 0.3937007874015748
          },
          {
            "duration": 0.0625,
            "durationTicks": 48,
            "midi": 38,
            "name": "D2",
            "ticks": 90144,
            "time": 117.375,
            "velocity": 0.3937007874015748
          },
          {
            "duration": 0.0625,
            "durationTicks": 48,
            "midi": 36,
            "name": "C2",
            "ticks": 90288,
            "time": 117.5625,
            "velocity": 0.3937007874015748
          },
          {
            "duration": 0.0625,
            "durationTicks": 48,
            "midi": 33,
            "name": "A1",
            "ticks": 90432,
            "time": 117.75,
            "velocity": 0.3937007874015748
          },
          {
            "duration": 0.0625,
            "durationTicks": 48,
            "midi": 36,
            "name": "C2",
            "ticks": 90576,
            "time": 117.9375,
            "velocity": 0.3937007874015748
          },
          {
            "duration": 0.0625,
            "durationTicks": 48,
            "midi": 38,
            "name": "D2",
            "ticks": 90720,
            "time": 118.125,
            "velocity": 0.3937007874015748
          },
          {
            "duration": 0.0625,
            "durationTicks": 48,
            "midi": 33,
            "name": "A1",
            "ticks": 90720,
            "time": 118.125,
            "velocity": 0.3937007874015748
          },
          {
            "duration": 0.0625,
            "durationTicks": 48,
            "midi": 33,
            "name": "A1",
            "ticks": 91008,
            "time": 118.5,
            "velocity": 0.3937007874015748
          },
          {
            "duration": 0.125,
            "durationTicks": 96,
            "midi": 36,
            "name": "C2",
            "ticks": 91008,
            "time": 118.5,
            "velocity": 0.3937007874015748
          },
          {
            "duration": 0.0625,
            "durationTicks": 48,
            "midi": 38,
            "name": "D2",
            "ticks": 91296,
            "time": 118.875,
            "velocity": 0.3937007874015748
          },
          {
            "duration": 0.0625,
            "durationTicks": 48,
            "midi": 33,
            "name": "A1",
            "ticks": 91296,
            "time": 118.875,
            "velocity": 0.3937007874015748
          },
          {
            "duration": 0.0625,
            "durationTicks": 48,
            "midi": 36,
            "name": "C2",
            "ticks": 91440,
            "time": 119.0625,
            "velocity": 0.3937007874015748
          },
          {
            "duration": 0.0625,
            "durationTicks": 48,
            "midi": 33,
            "name": "A1",
            "ticks": 91584,
            "time": 119.25,
            "velocity": 0.3937007874015748
          },
          {
            "duration": 0.0625,
            "durationTicks": 48,
            "midi": 36,
            "name": "C2",
            "ticks": 91728,
            "time": 119.4375,
            "velocity": 0.3937007874015748
          },
          {
            "duration": 0.0625,
            "durationTicks": 48,
            "midi": 38,
            "name": "D2",
            "ticks": 91872,
            "time": 119.625,
            "velocity": 0.3937007874015748
          },
          {
            "duration": 0.0625,
            "durationTicks": 48,
            "midi": 33,
            "name": "A1",
            "ticks": 91872,
            "time": 119.625,
            "velocity": 0.3937007874015748
          },
          {
            "duration": 0.125,
            "durationTicks": 96,
            "midi": 36,
            "name": "C2",
            "ticks": 92160,
            "time": 120,
            "velocity": 0.3937007874015748
          },
          {
            "duration": 0.0625,
            "durationTicks": 48,
            "midi": 33,
            "name": "A1",
            "ticks": 92160,
            "time": 120,
            "velocity": 0.3937007874015748
          },
          {
            "duration": 0.0625,
            "durationTicks": 48,
            "midi": 33,
            "name": "A1",
            "ticks": 92448,
            "time": 120.375,
            "velocity": 0.3937007874015748
          },
          {
            "duration": 0.0625,
            "durationTicks": 48,
            "midi": 38,
            "name": "D2",
            "ticks": 92448,
            "time": 120.375,
            "velocity": 0.3937007874015748
          },
          {
            "duration": 0.0625,
            "durationTicks": 48,
            "midi": 33,
            "name": "A1",
            "ticks": 92736,
            "time": 120.75,
            "velocity": 0.3937007874015748
          },
          {
            "duration": 0.125,
            "durationTicks": 96,
            "midi": 36,
            "name": "C2",
            "ticks": 92736,
            "time": 120.75,
            "velocity": 0.3937007874015748
          },
          {
            "duration": 0.0625,
            "durationTicks": 48,
            "midi": 33,
            "name": "A1",
            "ticks": 93024,
            "time": 121.125,
            "velocity": 0.3937007874015748
          },
          {
            "duration": 0.0625,
            "durationTicks": 48,
            "midi": 38,
            "name": "D2",
            "ticks": 93024,
            "time": 121.125,
            "velocity": 0.3937007874015748
          },
          {
            "duration": 0.0625,
            "durationTicks": 48,
            "midi": 36,
            "name": "C2",
            "ticks": 93168,
            "time": 121.3125,
            "velocity": 0.3937007874015748
          },
          {
            "duration": 0.0625,
            "durationTicks": 48,
            "midi": 33,
            "name": "A1",
            "ticks": 93312,
            "time": 121.5,
            "velocity": 0.3937007874015748
          },
          {
            "duration": 0.0625,
            "durationTicks": 48,
            "midi": 36,
            "name": "C2",
            "ticks": 93456,
            "time": 121.6875,
            "velocity": 0.3937007874015748
          },
          {
            "duration": 0.0625,
            "durationTicks": 48,
            "midi": 33,
            "name": "A1",
            "ticks": 93600,
            "time": 121.875,
            "velocity": 0.3937007874015748
          },
          {
            "duration": 0.0625,
            "durationTicks": 48,
            "midi": 38,
            "name": "D2",
            "ticks": 93600,
            "time": 121.875,
            "velocity": 0.3937007874015748
          },
          {
            "duration": 0.125,
            "durationTicks": 96,
            "midi": 36,
            "name": "C2",
            "ticks": 93888,
            "time": 122.25,
            "velocity": 0.3937007874015748
          },
          {
            "duration": 0.0625,
            "durationTicks": 48,
            "midi": 33,
            "name": "A1",
            "ticks": 93888,
            "time": 122.25,
            "velocity": 0.3937007874015748
          },
          {
            "duration": 0.0625,
            "durationTicks": 48,
            "midi": 38,
            "name": "D2",
            "ticks": 94176,
            "time": 122.625,
            "velocity": 0.3937007874015748
          },
          {
            "duration": 0.0625,
            "durationTicks": 48,
            "midi": 33,
            "name": "A1",
            "ticks": 94176,
            "time": 122.625,
            "velocity": 0.3937007874015748
          },
          {
            "duration": 0.0625,
            "durationTicks": 48,
            "midi": 39,
            "name": "D#2",
            "ticks": 94176,
            "time": 122.625,
            "velocity": 0.3937007874015748
          },
          {
            "duration": 0.0625,
            "durationTicks": 48,
            "midi": 36,
            "name": "C2",
            "ticks": 94320,
            "time": 122.8125,
            "velocity": 0.3937007874015748
          },
          {
            "duration": 0.0625,
            "durationTicks": 48,
            "midi": 39,
            "name": "D#2",
            "ticks": 94464,
            "time": 123,
            "velocity": 0.3937007874015748
          },
          {
            "duration": 0.0625,
            "durationTicks": 48,
            "midi": 33,
            "name": "A1",
            "ticks": 94464,
            "time": 123,
            "velocity": 0.3937007874015748
          },
          {
            "duration": 0.0625,
            "durationTicks": 48,
            "midi": 36,
            "name": "C2",
            "ticks": 94608,
            "time": 123.1875,
            "velocity": 0.3937007874015748
          },
          {
            "duration": 0.0625,
            "durationTicks": 48,
            "midi": 39,
            "name": "D#2",
            "ticks": 94752,
            "time": 123.375,
            "velocity": 0.3937007874015748
          },
          {
            "duration": 0.0625,
            "durationTicks": 48,
            "midi": 33,
            "name": "A1",
            "ticks": 94752,
            "time": 123.375,
            "velocity": 0.3937007874015748
          },
          {
            "duration": 0.0625,
            "durationTicks": 48,
            "midi": 38,
            "name": "D2",
            "ticks": 94752,
            "time": 123.375,
            "velocity": 0.3937007874015748
          },
          {
            "duration": 0.125,
            "durationTicks": 96,
            "midi": 36,
            "name": "C2",
            "ticks": 95040,
            "time": 123.75,
            "velocity": 0.3937007874015748
          },
          {
            "duration": 0.0625,
            "durationTicks": 48,
            "midi": 33,
            "name": "A1",
            "ticks": 95040,
            "time": 123.75,
            "velocity": 0.3937007874015748
          },
          {
            "duration": 0.0625,
            "durationTicks": 48,
            "midi": 33,
            "name": "A1",
            "ticks": 95328,
            "time": 124.125,
            "velocity": 0.3937007874015748
          },
          {
            "duration": 0.0625,
            "durationTicks": 48,
            "midi": 38,
            "name": "D2",
            "ticks": 95328,
            "time": 124.125,
            "velocity": 0.3937007874015748
          },
          {
            "duration": 0.0625,
            "durationTicks": 48,
            "midi": 36,
            "name": "C2",
            "ticks": 95472,
            "time": 124.3125,
            "velocity": 0.3937007874015748
          },
          {
            "duration": 0.0625,
            "durationTicks": 48,
            "midi": 33,
            "name": "A1",
            "ticks": 95616,
            "time": 124.5,
            "velocity": 0.3937007874015748
          },
          {
            "duration": 0.0625,
            "durationTicks": 48,
            "midi": 36,
            "name": "C2",
            "ticks": 95760,
            "time": 124.6875,
            "velocity": 0.3937007874015748
          },
          {
            "duration": 0.0625,
            "durationTicks": 48,
            "midi": 33,
            "name": "A1",
            "ticks": 95904,
            "time": 124.875,
            "velocity": 0.3937007874015748
          },
          {
            "duration": 0.0625,
            "durationTicks": 48,
            "midi": 38,
            "name": "D2",
            "ticks": 95904,
            "time": 124.875,
            "velocity": 0.3937007874015748
          },
          {
            "duration": 0.0625,
            "durationTicks": 48,
            "midi": 33,
            "name": "A1",
            "ticks": 96192,
            "time": 125.25,
            "velocity": 0.3937007874015748
          },
          {
            "duration": 0.125,
            "durationTicks": 96,
            "midi": 36,
            "name": "C2",
            "ticks": 96192,
            "time": 125.25,
            "velocity": 0.3937007874015748
          },
          {
            "duration": 0.0625,
            "durationTicks": 48,
            "midi": 38,
            "name": "D2",
            "ticks": 96480,
            "time": 125.625,
            "velocity": 0.3937007874015748
          },
          {
            "duration": 0.0625,
            "durationTicks": 48,
            "midi": 33,
            "name": "A1",
            "ticks": 96480,
            "time": 125.625,
            "velocity": 0.3937007874015748
          },
          {
            "duration": 0.0625,
            "durationTicks": 48,
            "midi": 36,
            "name": "C2",
            "ticks": 96624,
            "time": 125.8125,
            "velocity": 0.3937007874015748
          },
          {
            "duration": 0.0625,
            "durationTicks": 48,
            "midi": 33,
            "name": "A1",
            "ticks": 96768,
            "time": 126,
            "velocity": 0.3937007874015748
          },
          {
            "duration": 0.0625,
            "durationTicks": 48,
            "midi": 36,
            "name": "C2",
            "ticks": 96912,
            "time": 126.1875,
            "velocity": 0.3937007874015748
          },
          {
            "duration": 0.0625,
            "durationTicks": 48,
            "midi": 33,
            "name": "A1",
            "ticks": 97056,
            "time": 126.375,
            "velocity": 0.3937007874015748
          },
          {
            "duration": 0.0625,
            "durationTicks": 48,
            "midi": 38,
            "name": "D2",
            "ticks": 97056,
            "time": 126.375,
            "velocity": 0.3937007874015748
          },
          {
            "duration": 0.0625,
            "durationTicks": 48,
            "midi": 33,
            "name": "A1",
            "ticks": 97344,
            "time": 126.75,
            "velocity": 0.3937007874015748
          },
          {
            "duration": 0.125,
            "durationTicks": 96,
            "midi": 36,
            "name": "C2",
            "ticks": 97344,
            "time": 126.75,
            "velocity": 0.3937007874015748
          },
          {
            "duration": 0.0625,
            "durationTicks": 48,
            "midi": 33,
            "name": "A1",
            "ticks": 97632,
            "time": 127.125,
            "velocity": 0.3937007874015748
          },
          {
            "duration": 0.0625,
            "durationTicks": 48,
            "midi": 38,
            "name": "D2",
            "ticks": 97632,
            "time": 127.125,
            "velocity": 0.3937007874015748
          },
          {
            "duration": 0.0625,
            "durationTicks": 48,
            "midi": 36,
            "name": "C2",
            "ticks": 97776,
            "time": 127.3125,
            "velocity": 0.3937007874015748
          },
          {
            "duration": 0.0625,
            "durationTicks": 48,
            "midi": 33,
            "name": "A1",
            "ticks": 97920,
            "time": 127.5,
            "velocity": 0.3937007874015748
          },
          {
            "duration": 0.0625,
            "durationTicks": 48,
            "midi": 36,
            "name": "C2",
            "ticks": 98064,
            "time": 127.6875,
            "velocity": 0.3937007874015748
          },
          {
            "duration": 0.0625,
            "durationTicks": 48,
            "midi": 33,
            "name": "A1",
            "ticks": 98208,
            "time": 127.875,
            "velocity": 0.3937007874015748
          },
          {
            "duration": 0.0625,
            "durationTicks": 48,
            "midi": 38,
            "name": "D2",
            "ticks": 98208,
            "time": 127.875,
            "velocity": 0.3937007874015748
          },
          {
            "duration": 0.125,
            "durationTicks": 96,
            "midi": 36,
            "name": "C2",
            "ticks": 98496,
            "time": 128.25,
            "velocity": 0.3937007874015748
          },
          {
            "duration": 0.0625,
            "durationTicks": 48,
            "midi": 33,
            "name": "A1",
            "ticks": 98496,
            "time": 128.25,
            "velocity": 0.3937007874015748
          },
          {
            "duration": 0.0625,
            "durationTicks": 48,
            "midi": 33,
            "name": "A1",
            "ticks": 98784,
            "time": 128.625,
            "velocity": 0.3937007874015748
          },
          {
            "duration": 0.0625,
            "durationTicks": 48,
            "midi": 38,
            "name": "D2",
            "ticks": 98784,
            "time": 128.625,
            "velocity": 0.3937007874015748
          },
          {
            "duration": 0.0625,
            "durationTicks": 48,
            "midi": 33,
            "name": "A1",
            "ticks": 99072,
            "time": 129,
            "velocity": 0.3937007874015748
          },
          {
            "duration": 0.125,
            "durationTicks": 96,
            "midi": 36,
            "name": "C2",
            "ticks": 99072,
            "time": 129,
            "velocity": 0.3937007874015748
          },
          {
            "duration": 0.0625,
            "durationTicks": 48,
            "midi": 38,
            "name": "D2",
            "ticks": 99360,
            "time": 129.375,
            "velocity": 0.3937007874015748
          },
          {
            "duration": 0.0625,
            "durationTicks": 48,
            "midi": 33,
            "name": "A1",
            "ticks": 99360,
            "time": 129.375,
            "velocity": 0.3937007874015748
          },
          {
            "duration": 0.0625,
            "durationTicks": 48,
            "midi": 36,
            "name": "C2",
            "ticks": 99504,
            "time": 129.5625,
            "velocity": 0.3937007874015748
          },
          {
            "duration": 0.0625,
            "durationTicks": 48,
            "midi": 33,
            "name": "A1",
            "ticks": 99648,
            "time": 129.75,
            "velocity": 0.3937007874015748
          },
          {
            "duration": 0.0625,
            "durationTicks": 48,
            "midi": 36,
            "name": "C2",
            "ticks": 99792,
            "time": 129.9375,
            "velocity": 0.3937007874015748
          },
          {
            "duration": 0.0625,
            "durationTicks": 48,
            "midi": 33,
            "name": "A1",
            "ticks": 99936,
            "time": 130.125,
            "velocity": 0.3937007874015748
          },
          {
            "duration": 0.0625,
            "durationTicks": 48,
            "midi": 38,
            "name": "D2",
            "ticks": 99936,
            "time": 130.125,
            "velocity": 0.3937007874015748
          },
          {
            "duration": 0.125,
            "durationTicks": 96,
            "midi": 36,
            "name": "C2",
            "ticks": 100224,
            "time": 130.5,
            "velocity": 0.3937007874015748
          },
          {
            "duration": 0.0625,
            "durationTicks": 48,
            "midi": 33,
            "name": "A1",
            "ticks": 100224,
            "time": 130.5,
            "velocity": 0.3937007874015748
          },
          {
            "duration": 0.0625,
            "durationTicks": 48,
            "midi": 38,
            "name": "D2",
            "ticks": 100512,
            "time": 130.875,
            "velocity": 0.3937007874015748
          },
          {
            "duration": 0.0625,
            "durationTicks": 48,
            "midi": 33,
            "name": "A1",
            "ticks": 100512,
            "time": 130.875,
            "velocity": 0.3937007874015748
          },
          {
            "duration": 0.0625,
            "durationTicks": 48,
            "midi": 33,
            "name": "A1",
            "ticks": 100512,
            "time": 130.875,
            "velocity": 0.3937007874015748
          },
          {
            "duration": 0.0625,
            "durationTicks": 48,
            "midi": 36,
            "name": "C2",
            "ticks": 100656,
            "time": 131.0625,
            "velocity": 0.3937007874015748
          },
          {
            "duration": 0.0625,
            "durationTicks": 48,
            "midi": 33,
            "name": "A1",
            "ticks": 100800,
            "time": 131.25,
            "velocity": 0.3937007874015748
          },
          {
            "duration": 0.0625,
            "durationTicks": 48,
            "midi": 33,
            "name": "A1",
            "ticks": 100800,
            "time": 131.25,
            "velocity": 0.3937007874015748
          },
          {
            "duration": 0.0625,
            "durationTicks": 48,
            "midi": 36,
            "name": "C2",
            "ticks": 100944,
            "time": 131.4375,
            "velocity": 0.3937007874015748
          },
          {
            "duration": 0.0625,
            "durationTicks": 48,
            "midi": 33,
            "name": "A1",
            "ticks": 101088,
            "time": 131.625,
            "velocity": 0.3937007874015748
          },
          {
            "duration": 0.0625,
            "durationTicks": 48,
            "midi": 38,
            "name": "D2",
            "ticks": 101088,
            "time": 131.625,
            "velocity": 0.3937007874015748
          },
          {
            "duration": 0.0625,
            "durationTicks": 48,
            "midi": 33,
            "name": "A1",
            "ticks": 101088,
            "time": 131.625,
            "velocity": 0.3937007874015748
          },
          {
            "duration": 0.0625,
            "durationTicks": 48,
            "midi": 33,
            "name": "A1",
            "ticks": 101376,
            "time": 132,
            "velocity": 0.3937007874015748
          },
          {
            "duration": 0.125,
            "durationTicks": 96,
            "midi": 36,
            "name": "C2",
            "ticks": 101376,
            "time": 132,
            "velocity": 0.3937007874015748
          },
          {
            "duration": 0.0625,
            "durationTicks": 48,
            "midi": 38,
            "name": "D2",
            "ticks": 101664,
            "time": 132.375,
            "velocity": 0.3937007874015748
          },
          {
            "duration": 0.0625,
            "durationTicks": 48,
            "midi": 33,
            "name": "A1",
            "ticks": 101664,
            "time": 132.375,
            "velocity": 0.3937007874015748
          },
          {
            "duration": 0.0625,
            "durationTicks": 48,
            "midi": 36,
            "name": "C2",
            "ticks": 101808,
            "time": 132.5625,
            "velocity": 0.3937007874015748
          },
          {
            "duration": 0.0625,
            "durationTicks": 48,
            "midi": 33,
            "name": "A1",
            "ticks": 101952,
            "time": 132.75,
            "velocity": 0.3937007874015748
          },
          {
            "duration": 0.0625,
            "durationTicks": 48,
            "midi": 36,
            "name": "C2",
            "ticks": 102096,
            "time": 132.9375,
            "velocity": 0.3937007874015748
          },
          {
            "duration": 0.0625,
            "durationTicks": 48,
            "midi": 33,
            "name": "A1",
            "ticks": 102240,
            "time": 133.125,
            "velocity": 0.3937007874015748
          },
          {
            "duration": 0.0625,
            "durationTicks": 48,
            "midi": 38,
            "name": "D2",
            "ticks": 102240,
            "time": 133.125,
            "velocity": 0.3937007874015748
          },
          {
            "duration": 0.125,
            "durationTicks": 96,
            "midi": 36,
            "name": "C2",
            "ticks": 102528,
            "time": 133.5,
            "velocity": 0.3937007874015748
          },
          {
            "duration": 0.0625,
            "durationTicks": 48,
            "midi": 33,
            "name": "A1",
            "ticks": 102528,
            "time": 133.5,
            "velocity": 0.3937007874015748
          },
          {
            "duration": 0.0625,
            "durationTicks": 48,
            "midi": 33,
            "name": "A1",
            "ticks": 102816,
            "time": 133.875,
            "velocity": 0.3937007874015748
          },
          {
            "duration": 0.0625,
            "durationTicks": 48,
            "midi": 38,
            "name": "D2",
            "ticks": 102816,
            "time": 133.875,
            "velocity": 0.3937007874015748
          },
          {
            "duration": 0.0625,
            "durationTicks": 48,
            "midi": 36,
            "name": "C2",
            "ticks": 102960,
            "time": 134.0625,
            "velocity": 0.3937007874015748
          },
          {
            "duration": 0.0625,
            "durationTicks": 48,
            "midi": 33,
            "name": "A1",
            "ticks": 103104,
            "time": 134.25,
            "velocity": 0.3937007874015748
          },
          {
            "duration": 0.0625,
            "durationTicks": 48,
            "midi": 36,
            "name": "C2",
            "ticks": 103248,
            "time": 134.4375,
            "velocity": 0.3937007874015748
          },
          {
            "duration": 0.0625,
            "durationTicks": 48,
            "midi": 38,
            "name": "D2",
            "ticks": 103392,
            "time": 134.625,
            "velocity": 0.3937007874015748
          },
          {
            "duration": 0.0625,
            "durationTicks": 48,
            "midi": 33,
            "name": "A1",
            "ticks": 103392,
            "time": 134.625,
            "velocity": 0.3937007874015748
          },
          {
            "duration": 0.0625,
            "durationTicks": 48,
            "midi": 33,
            "name": "A1",
            "ticks": 103680,
            "time": 135,
            "velocity": 0.3937007874015748
          },
          {
            "duration": 0.125,
            "durationTicks": 96,
            "midi": 36,
            "name": "C2",
            "ticks": 103680,
            "time": 135,
            "velocity": 0.3937007874015748
          },
          {
            "duration": 0.0625,
            "durationTicks": 48,
            "midi": 33,
            "name": "A1",
            "ticks": 103968,
            "time": 135.375,
            "velocity": 0.3937007874015748
          },
          {
            "duration": 0.0625,
            "durationTicks": 48,
            "midi": 38,
            "name": "D2",
            "ticks": 103968,
            "time": 135.375,
            "velocity": 0.3937007874015748
          },
          {
            "duration": 0.0625,
            "durationTicks": 48,
            "midi": 36,
            "name": "C2",
            "ticks": 104112,
            "time": 135.5625,
            "velocity": 0.3937007874015748
          },
          {
            "duration": 0.0625,
            "durationTicks": 48,
            "midi": 33,
            "name": "A1",
            "ticks": 104256,
            "time": 135.75,
            "velocity": 0.3937007874015748
          },
          {
            "duration": 0.0625,
            "durationTicks": 48,
            "midi": 36,
            "name": "C2",
            "ticks": 104400,
            "time": 135.9375,
            "velocity": 0.3937007874015748
          },
          {
            "duration": 0.0625,
            "durationTicks": 48,
            "midi": 38,
            "name": "D2",
            "ticks": 104544,
            "time": 136.125,
            "velocity": 0.3937007874015748
          },
          {
            "duration": 0.0625,
            "durationTicks": 48,
            "midi": 33,
            "name": "A1",
            "ticks": 104544,
            "time": 136.125,
            "velocity": 0.3937007874015748
          },
          {
            "duration": 0.125,
            "durationTicks": 96,
            "midi": 36,
            "name": "C2",
            "ticks": 104832,
            "time": 136.5,
            "velocity": 0.3937007874015748
          },
          {
            "duration": 0.0625,
            "durationTicks": 48,
            "midi": 33,
            "name": "A1",
            "ticks": 104832,
            "time": 136.5,
            "velocity": 0.3937007874015748
          },
          {
            "duration": 0.0625,
            "durationTicks": 48,
            "midi": 38,
            "name": "D2",
            "ticks": 105120,
            "time": 136.875,
            "velocity": 0.3937007874015748
          },
          {
            "duration": 0.0625,
            "durationTicks": 48,
            "midi": 33,
            "name": "A1",
            "ticks": 105120,
            "time": 136.875,
            "velocity": 0.3937007874015748
          },
          {
            "duration": 0.125,
            "durationTicks": 96,
            "midi": 36,
            "name": "C2",
            "ticks": 105408,
            "time": 137.25,
            "velocity": 0.3937007874015748
          },
          {
            "duration": 0.0625,
            "durationTicks": 48,
            "midi": 33,
            "name": "A1",
            "ticks": 105408,
            "time": 137.25,
            "velocity": 0.3937007874015748
          },
          {
            "duration": 0.0625,
            "durationTicks": 48,
            "midi": 38,
            "name": "D2",
            "ticks": 105696,
            "time": 137.625,
            "velocity": 0.3937007874015748
          },
          {
            "duration": 0.0625,
            "durationTicks": 48,
            "midi": 33,
            "name": "A1",
            "ticks": 105696,
            "time": 137.625,
            "velocity": 0.3937007874015748
          },
          {
            "duration": 0.0625,
            "durationTicks": 48,
            "midi": 36,
            "name": "C2",
            "ticks": 105840,
            "time": 137.8125,
            "velocity": 0.3937007874015748
          },
          {
            "duration": 0.0625,
            "durationTicks": 48,
            "midi": 33,
            "name": "A1",
            "ticks": 105984,
            "time": 138,
            "velocity": 0.3937007874015748
          },
          {
            "duration": 0.0625,
            "durationTicks": 48,
            "midi": 36,
            "name": "C2",
            "ticks": 106128,
            "time": 138.1875,
            "velocity": 0.3937007874015748
          },
          {
            "duration": 0.0625,
            "durationTicks": 48,
            "midi": 38,
            "name": "D2",
            "ticks": 106272,
            "time": 138.375,
            "velocity": 0.3937007874015748
          },
          {
            "duration": 0.0625,
            "durationTicks": 48,
            "midi": 33,
            "name": "A1",
            "ticks": 106272,
            "time": 138.375,
            "velocity": 0.3937007874015748
          },
          {
            "duration": 0.125,
            "durationTicks": 96,
            "midi": 36,
            "name": "C2",
            "ticks": 106560,
            "time": 138.75,
            "velocity": 0.3937007874015748
          },
          {
            "duration": 0.0625,
            "durationTicks": 48,
            "midi": 33,
            "name": "A1",
            "ticks": 106560,
            "time": 138.75,
            "velocity": 0.3937007874015748
          },
          {
            "duration": 0.0625,
            "durationTicks": 48,
            "midi": 33,
            "name": "A1",
            "ticks": 106848,
            "time": 139.125,
            "velocity": 0.3937007874015748
          },
          {
            "duration": 0.0625,
            "durationTicks": 48,
            "midi": 38,
            "name": "D2",
            "ticks": 106848,
            "time": 139.125,
            "velocity": 0.3937007874015748
          },
          {
            "duration": 0.0625,
            "durationTicks": 48,
            "midi": 36,
            "name": "C2",
            "ticks": 106992,
            "time": 139.3125,
            "velocity": 0.3937007874015748
          },
          {
            "duration": 0.0625,
            "durationTicks": 48,
            "midi": 33,
            "name": "A1",
            "ticks": 107136,
            "time": 139.5,
            "velocity": 0.3937007874015748
          },
          {
            "duration": 0.0625,
            "durationTicks": 48,
            "midi": 36,
            "name": "C2",
            "ticks": 107280,
            "time": 139.6875,
            "velocity": 0.3937007874015748
          },
          {
            "duration": 0.0625,
            "durationTicks": 48,
            "midi": 33,
            "name": "A1",
            "ticks": 107424,
            "time": 139.875,
            "velocity": 0.3937007874015748
          },
          {
            "duration": 0.0625,
            "durationTicks": 48,
            "midi": 38,
            "name": "D2",
            "ticks": 107424,
            "time": 139.875,
            "velocity": 0.3937007874015748
          },
          {
            "duration": 0.0625,
            "durationTicks": 48,
            "midi": 33,
            "name": "A1",
            "ticks": 107712,
            "time": 140.25,
            "velocity": 0.3937007874015748
          },
          {
            "duration": 0.125,
            "durationTicks": 96,
            "midi": 36,
            "name": "C2",
            "ticks": 107712,
            "time": 140.25,
            "velocity": 0.3937007874015748
          },
          {
            "duration": 0.0625,
            "durationTicks": 48,
            "midi": 38,
            "name": "D2",
            "ticks": 108000,
            "time": 140.625,
            "velocity": 0.3937007874015748
          },
          {
            "duration": 0.0625,
            "durationTicks": 48,
            "midi": 33,
            "name": "A1",
            "ticks": 108000,
            "time": 140.625,
            "velocity": 0.3937007874015748
          },
          {
            "duration": 0.0625,
            "durationTicks": 48,
            "midi": 36,
            "name": "C2",
            "ticks": 108144,
            "time": 140.8125,
            "velocity": 0.3937007874015748
          },
          {
            "duration": 0.0625,
            "durationTicks": 48,
            "midi": 33,
            "name": "A1",
            "ticks": 108288,
            "time": 141,
            "velocity": 0.3937007874015748
          },
          {
            "duration": 0.0625,
            "durationTicks": 48,
            "midi": 36,
            "name": "C2",
            "ticks": 108432,
            "time": 141.1875,
            "velocity": 0.3937007874015748
          },
          {
            "duration": 0.0625,
            "durationTicks": 48,
            "midi": 33,
            "name": "A1",
            "ticks": 108576,
            "time": 141.375,
            "velocity": 0.3937007874015748
          },
          {
            "duration": 0.0625,
            "durationTicks": 48,
            "midi": 38,
            "name": "D2",
            "ticks": 108576,
            "time": 141.375,
            "velocity": 0.3937007874015748
          },
          {
            "duration": 0.125,
            "durationTicks": 96,
            "midi": 36,
            "name": "C2",
            "ticks": 108864,
            "time": 141.75,
            "velocity": 0.3937007874015748
          },
          {
            "duration": 0.0625,
            "durationTicks": 48,
            "midi": 33,
            "name": "A1",
            "ticks": 108864,
            "time": 141.75,
            "velocity": 0.3937007874015748
          },
          {
            "duration": 0.0625,
            "durationTicks": 48,
            "midi": 38,
            "name": "D2",
            "ticks": 109152,
            "time": 142.125,
            "velocity": 0.3937007874015748
          },
          {
            "duration": 0.0625,
            "durationTicks": 48,
            "midi": 33,
            "name": "A1",
            "ticks": 109152,
            "time": 142.125,
            "velocity": 0.3937007874015748
          },
          {
            "duration": 0.0625,
            "durationTicks": 48,
            "midi": 36,
            "name": "C2",
            "ticks": 109296,
            "time": 142.3125,
            "velocity": 0.3937007874015748
          },
          {
            "duration": 0.0625,
            "durationTicks": 48,
            "midi": 33,
            "name": "A1",
            "ticks": 109440,
            "time": 142.5,
            "velocity": 0.3937007874015748
          },
          {
            "duration": 0.0625,
            "durationTicks": 48,
            "midi": 36,
            "name": "C2",
            "ticks": 109584,
            "time": 142.6875,
            "velocity": 0.3937007874015748
          },
          {
            "duration": 0.0625,
            "durationTicks": 48,
            "midi": 33,
            "name": "A1",
            "ticks": 109728,
            "time": 142.875,
            "velocity": 0.3937007874015748
          },
          {
            "duration": 0.0625,
            "durationTicks": 48,
            "midi": 38,
            "name": "D2",
            "ticks": 109728,
            "time": 142.875,
            "velocity": 0.3937007874015748
          },
          {
            "duration": 0.125,
            "durationTicks": 96,
            "midi": 36,
            "name": "C2",
            "ticks": 110016,
            "time": 143.25,
            "velocity": 0.3937007874015748
          },
          {
            "duration": 0.0625,
            "durationTicks": 48,
            "midi": 33,
            "name": "A1",
            "ticks": 110016,
            "time": 143.25,
            "velocity": 0.3937007874015748
          },
          {
            "duration": 0.0625,
            "durationTicks": 48,
            "midi": 38,
            "name": "D2",
            "ticks": 110304,
            "time": 143.625,
            "velocity": 0.3937007874015748
          },
          {
            "duration": 0.0625,
            "durationTicks": 48,
            "midi": 33,
            "name": "A1",
            "ticks": 110304,
            "time": 143.625,
            "velocity": 0.3937007874015748
          },
          {
            "duration": 0.0625,
            "durationTicks": 48,
            "midi": 36,
            "name": "C2",
            "ticks": 110448,
            "time": 143.8125,
            "velocity": 0.3937007874015748
          },
          {
            "duration": 0.0625,
            "durationTicks": 48,
            "midi": 33,
            "name": "A1",
            "ticks": 110592,
            "time": 144,
            "velocity": 0.3937007874015748
          },
          {
            "duration": 0.0625,
            "durationTicks": 48,
            "midi": 36,
            "name": "C2",
            "ticks": 110736,
            "time": 144.1875,
            "velocity": 0.3937007874015748
          },
          {
            "duration": 0.0625,
            "durationTicks": 48,
            "midi": 38,
            "name": "D2",
            "ticks": 110880,
            "time": 144.375,
            "velocity": 0.3937007874015748
          },
          {
            "duration": 0.0625,
            "durationTicks": 48,
            "midi": 33,
            "name": "A1",
            "ticks": 110880,
            "time": 144.375,
            "velocity": 0.3937007874015748
          },
          {
            "duration": 0.0625,
            "durationTicks": 48,
            "midi": 33,
            "name": "A1",
            "ticks": 111168,
            "time": 144.75,
            "velocity": 0.3937007874015748
          },
          {
            "duration": 0.125,
            "durationTicks": 96,
            "midi": 36,
            "name": "C2",
            "ticks": 111168,
            "time": 144.75,
            "velocity": 0.3937007874015748
          },
          {
            "duration": 0.0625,
            "durationTicks": 48,
            "midi": 33,
            "name": "A1",
            "ticks": 111456,
            "time": 145.125,
            "velocity": 0.3937007874015748
          },
          {
            "duration": 0.0625,
            "durationTicks": 48,
            "midi": 38,
            "name": "D2",
            "ticks": 111456,
            "time": 145.125,
            "velocity": 0.3937007874015748
          },
          {
            "duration": 0.0625,
            "durationTicks": 48,
            "midi": 33,
            "name": "A1",
            "ticks": 111744,
            "time": 145.5,
            "velocity": 0.3937007874015748
          },
          {
            "duration": 0.125,
            "durationTicks": 96,
            "midi": 36,
            "name": "C2",
            "ticks": 111744,
            "time": 145.5,
            "velocity": 0.3937007874015748
          },
          {
            "duration": 0.0625,
            "durationTicks": 48,
            "midi": 33,
            "name": "A1",
            "ticks": 112032,
            "time": 145.875,
            "velocity": 0.3937007874015748
          },
          {
            "duration": 0.0625,
            "durationTicks": 48,
            "midi": 38,
            "name": "D2",
            "ticks": 112032,
            "time": 145.875,
            "velocity": 0.3937007874015748
          },
          {
            "duration": 0.0625,
            "durationTicks": 48,
            "midi": 36,
            "name": "C2",
            "ticks": 112176,
            "time": 146.0625,
            "velocity": 0.3937007874015748
          },
          {
            "duration": 0.0625,
            "durationTicks": 48,
            "midi": 33,
            "name": "A1",
            "ticks": 112320,
            "time": 146.25,
            "velocity": 0.3937007874015748
          },
          {
            "duration": 0.0625,
            "durationTicks": 48,
            "midi": 36,
            "name": "C2",
            "ticks": 112464,
            "time": 146.4375,
            "velocity": 0.3937007874015748
          },
          {
            "duration": 0.0625,
            "durationTicks": 48,
            "midi": 38,
            "name": "D2",
            "ticks": 112608,
            "time": 146.625,
            "velocity": 0.3937007874015748
          },
          {
            "duration": 0.0625,
            "durationTicks": 48,
            "midi": 33,
            "name": "A1",
            "ticks": 112608,
            "time": 146.625,
            "velocity": 0.3937007874015748
          },
          {
            "duration": 0.125,
            "durationTicks": 96,
            "midi": 36,
            "name": "C2",
            "ticks": 112896,
            "time": 147,
            "velocity": 0.3937007874015748
          },
          {
            "duration": 0.0625,
            "durationTicks": 48,
            "midi": 33,
            "name": "A1",
            "ticks": 112896,
            "time": 147,
            "velocity": 0.3937007874015748
          },
          {
            "duration": 0.0625,
            "durationTicks": 48,
            "midi": 33,
            "name": "A1",
            "ticks": 113184,
            "time": 147.375,
            "velocity": 0.3937007874015748
          },
          {
            "duration": 0.0625,
            "durationTicks": 48,
            "midi": 33,
            "name": "A1",
            "ticks": 113184,
            "time": 147.375,
            "velocity": 0.3937007874015748
          },
          {
            "duration": 0.0625,
            "durationTicks": 48,
            "midi": 38,
            "name": "D2",
            "ticks": 113184,
            "time": 147.375,
            "velocity": 0.3937007874015748
          },
          {
            "duration": 0.0625,
            "durationTicks": 48,
            "midi": 36,
            "name": "C2",
            "ticks": 113328,
            "time": 147.5625,
            "velocity": 0.3937007874015748
          },
          {
            "duration": 0.0625,
            "durationTicks": 48,
            "midi": 33,
            "name": "A1",
            "ticks": 113472,
            "time": 147.75,
            "velocity": 0.3937007874015748
          },
          {
            "duration": 0.0625,
            "durationTicks": 48,
            "midi": 33,
            "name": "A1",
            "ticks": 113472,
            "time": 147.75,
            "velocity": 0.3937007874015748
          },
          {
            "duration": 0.0625,
            "durationTicks": 48,
            "midi": 36,
            "name": "C2",
            "ticks": 113616,
            "time": 147.9375,
            "velocity": 0.3937007874015748
          },
          {
            "duration": 0.0625,
            "durationTicks": 48,
            "midi": 33,
            "name": "A1",
            "ticks": 113760,
            "time": 148.125,
            "velocity": 0.3937007874015748
          },
          {
            "duration": 0.0625,
            "durationTicks": 48,
            "midi": 33,
            "name": "A1",
            "ticks": 113760,
            "time": 148.125,
            "velocity": 0.3937007874015748
          },
          {
            "duration": 0.0625,
            "durationTicks": 48,
            "midi": 38,
            "name": "D2",
            "ticks": 113760,
            "time": 148.125,
            "velocity": 0.3937007874015748
          },
          {
            "duration": 0.0625,
            "durationTicks": 48,
            "midi": 33,
            "name": "A1",
            "ticks": 114048,
            "time": 148.5,
            "velocity": 0.3937007874015748
          },
          {
            "duration": 0.125,
            "durationTicks": 96,
            "midi": 36,
            "name": "C2",
            "ticks": 114048,
            "time": 148.5,
            "velocity": 0.3937007874015748
          },
          {
            "duration": 0.0625,
            "durationTicks": 48,
            "midi": 33,
            "name": "A1",
            "ticks": 114336,
            "time": 148.875,
            "velocity": 0.3937007874015748
          },
          {
            "duration": 0.0625,
            "durationTicks": 48,
            "midi": 38,
            "name": "D2",
            "ticks": 114336,
            "time": 148.875,
            "velocity": 0.3937007874015748
          },
          {
            "duration": 0.0625,
            "durationTicks": 48,
            "midi": 36,
            "name": "C2",
            "ticks": 114480,
            "time": 149.0625,
            "velocity": 0.3937007874015748
          },
          {
            "duration": 0.0625,
            "durationTicks": 48,
            "midi": 33,
            "name": "A1",
            "ticks": 114624,
            "time": 149.25,
            "velocity": 0.3937007874015748
          },
          {
            "duration": 0.0625,
            "durationTicks": 48,
            "midi": 36,
            "name": "C2",
            "ticks": 114768,
            "time": 149.4375,
            "velocity": 0.3937007874015748
          },
          {
            "duration": 0.0625,
            "durationTicks": 48,
            "midi": 38,
            "name": "D2",
            "ticks": 114912,
            "time": 149.625,
            "velocity": 0.3937007874015748
          },
          {
            "duration": 0.0625,
            "durationTicks": 48,
            "midi": 33,
            "name": "A1",
            "ticks": 114912,
            "time": 149.625,
            "velocity": 0.3937007874015748
          },
          {
            "duration": 0.0625,
            "durationTicks": 48,
            "midi": 33,
            "name": "A1",
            "ticks": 115200,
            "time": 150,
            "velocity": 0.3937007874015748
          },
          {
            "duration": 0.125,
            "durationTicks": 96,
            "midi": 36,
            "name": "C2",
            "ticks": 115200,
            "time": 150,
            "velocity": 0.3937007874015748
          },
          {
            "duration": 0.0625,
            "durationTicks": 48,
            "midi": 33,
            "name": "A1",
            "ticks": 115488,
            "time": 150.375,
            "velocity": 0.3937007874015748
          },
          {
            "duration": 0.0625,
            "durationTicks": 48,
            "midi": 38,
            "name": "D2",
            "ticks": 115488,
            "time": 150.375,
            "velocity": 0.3937007874015748
          },
          {
            "duration": 0.0625,
            "durationTicks": 48,
            "midi": 36,
            "name": "C2",
            "ticks": 115632,
            "time": 150.5625,
            "velocity": 0.3937007874015748
          },
          {
            "duration": 0.0625,
            "durationTicks": 48,
            "midi": 33,
            "name": "A1",
            "ticks": 115776,
            "time": 150.75,
            "velocity": 0.3937007874015748
          },
          {
            "duration": 0.0625,
            "durationTicks": 48,
            "midi": 36,
            "name": "C2",
            "ticks": 115920,
            "time": 150.9375,
            "velocity": 0.3937007874015748
          },
          {
            "duration": 0.0625,
            "durationTicks": 48,
            "midi": 38,
            "name": "D2",
            "ticks": 116064,
            "time": 151.125,
            "velocity": 0.3937007874015748
          },
          {
            "duration": 0.0625,
            "durationTicks": 48,
            "midi": 33,
            "name": "A1",
            "ticks": 116064,
            "time": 151.125,
            "velocity": 0.3937007874015748
          },
          {
            "duration": 0.125,
            "durationTicks": 96,
            "midi": 36,
            "name": "C2",
            "ticks": 116352,
            "time": 151.5,
            "velocity": 0.3937007874015748
          },
          {
            "duration": 0.0625,
            "durationTicks": 48,
            "midi": 33,
            "name": "A1",
            "ticks": 116352,
            "time": 151.5,
            "velocity": 0.3937007874015748
          },
          {
            "duration": 0.0625,
            "durationTicks": 48,
            "midi": 33,
            "name": "A1",
            "ticks": 116640,
            "time": 151.875,
            "velocity": 0.3937007874015748
          },
          {
            "duration": 0.0625,
            "durationTicks": 48,
            "midi": 38,
            "name": "D2",
            "ticks": 116640,
            "time": 151.875,
            "velocity": 0.3937007874015748
          },
          {
            "duration": 0.0625,
            "durationTicks": 48,
            "midi": 36,
            "name": "C2",
            "ticks": 116784,
            "time": 152.0625,
            "velocity": 0.3937007874015748
          },
          {
            "duration": 0.0625,
            "durationTicks": 48,
            "midi": 33,
            "name": "A1",
            "ticks": 116928,
            "time": 152.25,
            "velocity": 0.3937007874015748
          },
          {
            "duration": 0.0625,
            "durationTicks": 48,
            "midi": 36,
            "name": "C2",
            "ticks": 117072,
            "time": 152.4375,
            "velocity": 0.3937007874015748
          },
          {
            "duration": 0.0625,
            "durationTicks": 48,
            "midi": 33,
            "name": "A1",
            "ticks": 117216,
            "time": 152.625,
            "velocity": 0.3937007874015748
          },
          {
            "duration": 0.0625,
            "durationTicks": 48,
            "midi": 38,
            "name": "D2",
            "ticks": 117216,
            "time": 152.625,
            "velocity": 0.3937007874015748
          },
          {
            "duration": 0.0625,
            "durationTicks": 48,
            "midi": 33,
            "name": "A1",
            "ticks": 117504,
            "time": 153,
            "velocity": 0.3937007874015748
          },
          {
            "duration": 0.125,
            "durationTicks": 96,
            "midi": 36,
            "name": "C2",
            "ticks": 117504,
            "time": 153,
            "velocity": 0.3937007874015748
          },
          {
            "duration": 0.0625,
            "durationTicks": 48,
            "midi": 33,
            "name": "A1",
            "ticks": 117792,
            "time": 153.375,
            "velocity": 0.3937007874015748
          },
          {
            "duration": 0.0625,
            "durationTicks": 48,
            "midi": 38,
            "name": "D2",
            "ticks": 117792,
            "time": 153.375,
            "velocity": 0.3937007874015748
          },
          {
            "duration": 0.0625,
            "durationTicks": 48,
            "midi": 33,
            "name": "A1",
            "ticks": 118080,
            "time": 153.75,
            "velocity": 0.3937007874015748
          },
          {
            "duration": 0.125,
            "durationTicks": 96,
            "midi": 36,
            "name": "C2",
            "ticks": 118080,
            "time": 153.75,
            "velocity": 0.3937007874015748
          },
          {
            "duration": 0.0625,
            "durationTicks": 48,
            "midi": 33,
            "name": "A1",
            "ticks": 118368,
            "time": 154.125,
            "velocity": 0.3937007874015748
          },
          {
            "duration": 0.0625,
            "durationTicks": 48,
            "midi": 38,
            "name": "D2",
            "ticks": 118368,
            "time": 154.125,
            "velocity": 0.3937007874015748
          },
          {
            "duration": 0.0625,
            "durationTicks": 48,
            "midi": 36,
            "name": "C2",
            "ticks": 118512,
            "time": 154.3125,
            "velocity": 0.3937007874015748
          },
          {
            "duration": 0.0625,
            "durationTicks": 48,
            "midi": 33,
            "name": "A1",
            "ticks": 118656,
            "time": 154.5,
            "velocity": 0.3937007874015748
          },
          {
            "duration": 0.0625,
            "durationTicks": 48,
            "midi": 36,
            "name": "C2",
            "ticks": 118800,
            "time": 154.6875,
            "velocity": 0.3937007874015748
          },
          {
            "duration": 0.0625,
            "durationTicks": 48,
            "midi": 38,
            "name": "D2",
            "ticks": 118944,
            "time": 154.875,
            "velocity": 0.3937007874015748
          },
          {
            "duration": 0.0625,
            "durationTicks": 48,
            "midi": 33,
            "name": "A1",
            "ticks": 118944,
            "time": 154.875,
            "velocity": 0.3937007874015748
          },
          {
            "duration": 0.0625,
            "durationTicks": 48,
            "midi": 33,
            "name": "A1",
            "ticks": 119232,
            "time": 155.25,
            "velocity": 0.3937007874015748
          },
          {
            "duration": 0.125,
            "durationTicks": 96,
            "midi": 36,
            "name": "C2",
            "ticks": 119232,
            "time": 155.25,
            "velocity": 0.3937007874015748
          },
          {
            "duration": 0.0625,
            "durationTicks": 48,
            "midi": 33,
            "name": "A1",
            "ticks": 119520,
            "time": 155.625,
            "velocity": 0.3937007874015748
          },
          {
            "duration": 0.0625,
            "durationTicks": 48,
            "midi": 38,
            "name": "D2",
            "ticks": 119520,
            "time": 155.625,
            "velocity": 0.3937007874015748
          },
          {
            "duration": 0.0625,
            "durationTicks": 48,
            "midi": 36,
            "name": "C2",
            "ticks": 119664,
            "time": 155.8125,
            "velocity": 0.3937007874015748
          },
          {
            "duration": 0.0625,
            "durationTicks": 48,
            "midi": 33,
            "name": "A1",
            "ticks": 119808,
            "time": 156,
            "velocity": 0.3937007874015748
          },
          {
            "duration": 0.0625,
            "durationTicks": 48,
            "midi": 36,
            "name": "C2",
            "ticks": 119952,
            "time": 156.1875,
            "velocity": 0.3937007874015748
          },
          {
            "duration": 0.0625,
            "durationTicks": 48,
            "midi": 38,
            "name": "D2",
            "ticks": 120096,
            "time": 156.375,
            "velocity": 0.3937007874015748
          },
          {
            "duration": 0.0625,
            "durationTicks": 48,
            "midi": 33,
            "name": "A1",
            "ticks": 120096,
            "time": 156.375,
            "velocity": 0.3937007874015748
          },
          {
            "duration": 0.0625,
            "durationTicks": 48,
            "midi": 33,
            "name": "A1",
            "ticks": 120384,
            "time": 156.75,
            "velocity": 0.3937007874015748
          },
          {
            "duration": 0.125,
            "durationTicks": 96,
            "midi": 36,
            "name": "C2",
            "ticks": 120384,
            "time": 156.75,
            "velocity": 0.3937007874015748
          },
          {
            "duration": 0.0625,
            "durationTicks": 48,
            "midi": 33,
            "name": "A1",
            "ticks": 120672,
            "time": 157.125,
            "velocity": 0.3937007874015748
          },
          {
            "duration": 0.0625,
            "durationTicks": 48,
            "midi": 38,
            "name": "D2",
            "ticks": 120672,
            "time": 157.125,
            "velocity": 0.3937007874015748
          },
          {
            "duration": 0.0625,
            "durationTicks": 48,
            "midi": 36,
            "name": "C2",
            "ticks": 120816,
            "time": 157.3125,
            "velocity": 0.3937007874015748
          },
          {
            "duration": 0.0625,
            "durationTicks": 48,
            "midi": 33,
            "name": "A1",
            "ticks": 120960,
            "time": 157.5,
            "velocity": 0.3937007874015748
          },
          {
            "duration": 0.0625,
            "durationTicks": 48,
            "midi": 36,
            "name": "C2",
            "ticks": 121104,
            "time": 157.6875,
            "velocity": 0.3937007874015748
          },
          {
            "duration": 0.0625,
            "durationTicks": 48,
            "midi": 38,
            "name": "D2",
            "ticks": 121248,
            "time": 157.875,
            "velocity": 0.3937007874015748
          },
          {
            "duration": 0.0625,
            "durationTicks": 48,
            "midi": 33,
            "name": "A1",
            "ticks": 121248,
            "time": 157.875,
            "velocity": 0.3937007874015748
          },
          {
            "duration": 0.0625,
            "durationTicks": 48,
            "midi": 33,
            "name": "A1",
            "ticks": 121536,
            "time": 158.25,
            "velocity": 0.3937007874015748
          },
          {
            "duration": 0.125,
            "durationTicks": 96,
            "midi": 36,
            "name": "C2",
            "ticks": 121536,
            "time": 158.25,
            "velocity": 0.3937007874015748
          },
          {
            "duration": 0.0625,
            "durationTicks": 48,
            "midi": 38,
            "name": "D2",
            "ticks": 121824,
            "time": 158.625,
            "velocity": 0.3937007874015748
          },
          {
            "duration": 0.0625,
            "durationTicks": 48,
            "midi": 33,
            "name": "A1",
            "ticks": 121824,
            "time": 158.625,
            "velocity": 0.3937007874015748
          },
          {
            "duration": 0.0625,
            "durationTicks": 48,
            "midi": 36,
            "name": "C2",
            "ticks": 121968,
            "time": 158.8125,
            "velocity": 0.3937007874015748
          },
          {
            "duration": 0.0625,
            "durationTicks": 48,
            "midi": 33,
            "name": "A1",
            "ticks": 122112,
            "time": 159,
            "velocity": 0.3937007874015748
          },
          {
            "duration": 0.0625,
            "durationTicks": 48,
            "midi": 36,
            "name": "C2",
            "ticks": 122256,
            "time": 159.1875,
            "velocity": 0.3937007874015748
          },
          {
            "duration": 0.0625,
            "durationTicks": 48,
            "midi": 38,
            "name": "D2",
            "ticks": 122400,
            "time": 159.375,
            "velocity": 0.3937007874015748
          },
          {
            "duration": 0.0625,
            "durationTicks": 48,
            "midi": 33,
            "name": "A1",
            "ticks": 122400,
            "time": 159.375,
            "velocity": 0.3937007874015748
          },
          {
            "duration": 0.125,
            "durationTicks": 96,
            "midi": 36,
            "name": "C2",
            "ticks": 122688,
            "time": 159.75,
            "velocity": 0.3937007874015748
          },
          {
            "duration": 0.0625,
            "durationTicks": 48,
            "midi": 33,
            "name": "A1",
            "ticks": 122688,
            "time": 159.75,
            "velocity": 0.3937007874015748
          },
          {
            "duration": 0.0625,
            "durationTicks": 48,
            "midi": 33,
            "name": "A1",
            "ticks": 122976,
            "time": 160.125,
            "velocity": 0.3937007874015748
          },
          {
            "duration": 0.0625,
            "durationTicks": 48,
            "midi": 38,
            "name": "D2",
            "ticks": 122976,
            "time": 160.125,
            "velocity": 0.3937007874015748
          },
          {
            "duration": 0.0625,
            "durationTicks": 48,
            "midi": 36,
            "name": "C2",
            "ticks": 123120,
            "time": 160.3125,
            "velocity": 0.3937007874015748
          },
          {
            "duration": 0.0625,
            "durationTicks": 48,
            "midi": 33,
            "name": "A1",
            "ticks": 123264,
            "time": 160.5,
            "velocity": 0.3937007874015748
          },
          {
            "duration": 0.0625,
            "durationTicks": 48,
            "midi": 36,
            "name": "C2",
            "ticks": 123408,
            "time": 160.6875,
            "velocity": 0.3937007874015748
          },
          {
            "duration": 0.0625,
            "durationTicks": 48,
            "midi": 33,
            "name": "A1",
            "ticks": 123552,
            "time": 160.875,
            "velocity": 0.3937007874015748
          },
          {
            "duration": 0.0625,
            "durationTicks": 48,
            "midi": 38,
            "name": "D2",
            "ticks": 123552,
            "time": 160.875,
            "velocity": 0.3937007874015748
          },
          {
            "duration": 0.0625,
            "durationTicks": 48,
            "midi": 33,
            "name": "A1",
            "ticks": 123840,
            "time": 161.25,
            "velocity": 0.3937007874015748
          },
          {
            "duration": 0.125,
            "durationTicks": 96,
            "midi": 36,
            "name": "C2",
            "ticks": 123840,
            "time": 161.25,
            "velocity": 0.3937007874015748
          },
          {
            "duration": 0.0625,
            "durationTicks": 48,
            "midi": 38,
            "name": "D2",
            "ticks": 124128,
            "time": 161.625,
            "velocity": 0.3937007874015748
          },
          {
            "duration": 0.0625,
            "durationTicks": 48,
            "midi": 33,
            "name": "A1",
            "ticks": 124128,
            "time": 161.625,
            "velocity": 0.3937007874015748
          },
          {
            "duration": 0.125,
            "durationTicks": 96,
            "midi": 36,
            "name": "C2",
            "ticks": 124416,
            "time": 162,
            "velocity": 0.3937007874015748
          },
          {
            "duration": 0.0625,
            "durationTicks": 48,
            "midi": 33,
            "name": "A1",
            "ticks": 124416,
            "time": 162,
            "velocity": 0.3937007874015748
          },
          {
            "duration": 0.0625,
            "durationTicks": 48,
            "midi": 33,
            "name": "A1",
            "ticks": 124704,
            "time": 162.375,
            "velocity": 0.3937007874015748
          },
          {
            "duration": 0.0625,
            "durationTicks": 48,
            "midi": 38,
            "name": "D2",
            "ticks": 124704,
            "time": 162.375,
            "velocity": 0.3937007874015748
          },
          {
            "duration": 0.0625,
            "durationTicks": 48,
            "midi": 36,
            "name": "C2",
            "ticks": 124848,
            "time": 162.5625,
            "velocity": 0.3937007874015748
          },
          {
            "duration": 0.0625,
            "durationTicks": 48,
            "midi": 33,
            "name": "A1",
            "ticks": 124992,
            "time": 162.75,
            "velocity": 0.3937007874015748
          },
          {
            "duration": 0.0625,
            "durationTicks": 48,
            "midi": 36,
            "name": "C2",
            "ticks": 125136,
            "time": 162.9375,
            "velocity": 0.3937007874015748
          },
          {
            "duration": 0.0625,
            "durationTicks": 48,
            "midi": 38,
            "name": "D2",
            "ticks": 125280,
            "time": 163.125,
            "velocity": 0.3937007874015748
          },
          {
            "duration": 0.0625,
            "durationTicks": 48,
            "midi": 33,
            "name": "A1",
            "ticks": 125280,
            "time": 163.125,
            "velocity": 0.3937007874015748
          },
          {
            "duration": 0.0625,
            "durationTicks": 48,
            "midi": 33,
            "name": "A1",
            "ticks": 125568,
            "time": 163.5,
            "velocity": 0.3937007874015748
          },
          {
            "duration": 0.125,
            "durationTicks": 96,
            "midi": 36,
            "name": "C2",
            "ticks": 125568,
            "time": 163.5,
            "velocity": 0.3937007874015748
          },
          {
            "duration": 0.0625,
            "durationTicks": 48,
            "midi": 38,
            "name": "D2",
            "ticks": 125856,
            "time": 163.875,
            "velocity": 0.3937007874015748
          },
          {
            "duration": 0.0625,
            "durationTicks": 48,
            "midi": 33,
            "name": "A1",
            "ticks": 125856,
            "time": 163.875,
            "velocity": 0.3937007874015748
          },
          {
            "duration": 0.0625,
            "durationTicks": 48,
            "midi": 33,
            "name": "A1",
            "ticks": 125856,
            "time": 163.875,
            "velocity": 0.3937007874015748
          },
          {
            "duration": 0.0625,
            "durationTicks": 48,
            "midi": 36,
            "name": "C2",
            "ticks": 126000,
            "time": 164.0625,
            "velocity": 0.3937007874015748
          },
          {
            "duration": 0.0625,
            "durationTicks": 48,
            "midi": 33,
            "name": "A1",
            "ticks": 126144,
            "time": 164.25,
            "velocity": 0.3937007874015748
          },
          {
            "duration": 0.0625,
            "durationTicks": 48,
            "midi": 33,
            "name": "A1",
            "ticks": 126144,
            "time": 164.25,
            "velocity": 0.3937007874015748
          },
          {
            "duration": 0.0625,
            "durationTicks": 48,
            "midi": 36,
            "name": "C2",
            "ticks": 126288,
            "time": 164.4375,
            "velocity": 0.3937007874015748
          },
          {
            "duration": 0.0625,
            "durationTicks": 48,
            "midi": 38,
            "name": "D2",
            "ticks": 126432,
            "time": 164.625,
            "velocity": 0.3937007874015748
          },
          {
            "duration": 0.0625,
            "durationTicks": 48,
            "midi": 33,
            "name": "A1",
            "ticks": 126432,
            "time": 164.625,
            "velocity": 0.3937007874015748
          },
          {
            "duration": 0.0625,
            "durationTicks": 48,
            "midi": 33,
            "name": "A1",
            "ticks": 126432,
            "time": 164.625,
            "velocity": 0.3937007874015748
          },
          {
            "duration": 0.125,
            "durationTicks": 96,
            "midi": 36,
            "name": "C2",
            "ticks": 126720,
            "time": 165,
            "velocity": 0.3937007874015748
          },
          {
            "duration": 0.0625,
            "durationTicks": 48,
            "midi": 33,
            "name": "A1",
            "ticks": 126720,
            "time": 165,
            "velocity": 0.3937007874015748
          },
          {
            "duration": 0.0625,
            "durationTicks": 48,
            "midi": 33,
            "name": "A1",
            "ticks": 127008,
            "time": 165.375,
            "velocity": 0.3937007874015748
          },
          {
            "duration": 0.0625,
            "durationTicks": 48,
            "midi": 38,
            "name": "D2",
            "ticks": 127008,
            "time": 165.375,
            "velocity": 0.3937007874015748
          },
          {
            "duration": 0.0625,
            "durationTicks": 48,
            "midi": 36,
            "name": "C2",
            "ticks": 127152,
            "time": 165.5625,
            "velocity": 0.3937007874015748
          },
          {
            "duration": 0.0625,
            "durationTicks": 48,
            "midi": 33,
            "name": "A1",
            "ticks": 127296,
            "time": 165.75,
            "velocity": 0.3937007874015748
          },
          {
            "duration": 0.0625,
            "durationTicks": 48,
            "midi": 36,
            "name": "C2",
            "ticks": 127440,
            "time": 165.9375,
            "velocity": 0.3937007874015748
          },
          {
            "duration": 0.0625,
            "durationTicks": 48,
            "midi": 33,
            "name": "A1",
            "ticks": 127584,
            "time": 166.125,
            "velocity": 0.3937007874015748
          },
          {
            "duration": 0.0625,
            "durationTicks": 48,
            "midi": 38,
            "name": "D2",
            "ticks": 127584,
            "time": 166.125,
            "velocity": 0.3937007874015748
          },
          {
            "duration": 0.0625,
            "durationTicks": 48,
            "midi": 33,
            "name": "A1",
            "ticks": 127872,
            "time": 166.5,
            "velocity": 0.3937007874015748
          },
          {
            "duration": 0.125,
            "durationTicks": 96,
            "midi": 36,
            "name": "C2",
            "ticks": 127872,
            "time": 166.5,
            "velocity": 0.3937007874015748
          },
          {
            "duration": 0.0625,
            "durationTicks": 48,
            "midi": 33,
            "name": "A1",
            "ticks": 128160,
            "time": 166.875,
            "velocity": 0.3937007874015748
          },
          {
            "duration": 0.0625,
            "durationTicks": 48,
            "midi": 38,
            "name": "D2",
            "ticks": 128160,
            "time": 166.875,
            "velocity": 0.3937007874015748
          },
          {
            "duration": 0.0625,
            "durationTicks": 48,
            "midi": 36,
            "name": "C2",
            "ticks": 128304,
            "time": 167.0625,
            "velocity": 0.3937007874015748
          },
          {
            "duration": 0.0625,
            "durationTicks": 48,
            "midi": 33,
            "name": "A1",
            "ticks": 128448,
            "time": 167.25,
            "velocity": 0.3937007874015748
          },
          {
            "duration": 0.0625,
            "durationTicks": 48,
            "midi": 36,
            "name": "C2",
            "ticks": 128592,
            "time": 167.4375,
            "velocity": 0.3937007874015748
          },
          {
            "duration": 0.0625,
            "durationTicks": 48,
            "midi": 38,
            "name": "D2",
            "ticks": 128736,
            "time": 167.625,
            "velocity": 0.3937007874015748
          },
          {
            "duration": 0.0625,
            "durationTicks": 48,
            "midi": 33,
            "name": "A1",
            "ticks": 128736,
            "time": 167.625,
            "velocity": 0.3937007874015748
          },
          {
            "duration": 0.0625,
            "durationTicks": 48,
            "midi": 33,
            "name": "A1",
            "ticks": 129024,
            "time": 168,
            "velocity": 0.3937007874015748
          },
          {
            "duration": 0.125,
            "durationTicks": 96,
            "midi": 36,
            "name": "C2",
            "ticks": 129024,
            "time": 168,
            "velocity": 0.3937007874015748
          },
          {
            "duration": 0.0625,
            "durationTicks": 48,
            "midi": 33,
            "name": "A1",
            "ticks": 129312,
            "time": 168.375,
            "velocity": 0.3937007874015748
          },
          {
            "duration": 0.0625,
            "durationTicks": 48,
            "midi": 38,
            "name": "D2",
            "ticks": 129312,
            "time": 168.375,
            "velocity": 0.3937007874015748
          },
          {
            "duration": 0.0625,
            "durationTicks": 48,
            "midi": 36,
            "name": "C2",
            "ticks": 129456,
            "time": 168.5625,
            "velocity": 0.3937007874015748
          },
          {
            "duration": 0.0625,
            "durationTicks": 48,
            "midi": 33,
            "name": "A1",
            "ticks": 129600,
            "time": 168.75,
            "velocity": 0.3937007874015748
          },
          {
            "duration": 0.0625,
            "durationTicks": 48,
            "midi": 36,
            "name": "C2",
            "ticks": 129744,
            "time": 168.9375,
            "velocity": 0.3937007874015748
          },
          {
            "duration": 0.0625,
            "durationTicks": 48,
            "midi": 33,
            "name": "A1",
            "ticks": 129888,
            "time": 169.125,
            "velocity": 0.3937007874015748
          },
          {
            "duration": 0.0625,
            "durationTicks": 48,
            "midi": 38,
            "name": "D2",
            "ticks": 129888,
            "time": 169.125,
            "velocity": 0.3937007874015748
          },
          {
            "duration": 0.0625,
            "durationTicks": 48,
            "midi": 33,
            "name": "A1",
            "ticks": 130176,
            "time": 169.5,
            "velocity": 0.3937007874015748
          },
          {
            "duration": 0.125,
            "durationTicks": 96,
            "midi": 36,
            "name": "C2",
            "ticks": 130176,
            "time": 169.5,
            "velocity": 0.3937007874015748
          },
          {
            "duration": 0.0625,
            "durationTicks": 48,
            "midi": 33,
            "name": "A1",
            "ticks": 130464,
            "time": 169.875,
            "velocity": 0.3937007874015748
          },
          {
            "duration": 0.0625,
            "durationTicks": 48,
            "midi": 38,
            "name": "D2",
            "ticks": 130464,
            "time": 169.875,
            "velocity": 0.3937007874015748
          },
          {
            "duration": 0.0625,
            "durationTicks": 48,
            "midi": 33,
            "name": "A1",
            "ticks": 130752,
            "time": 170.25,
            "velocity": 0.3937007874015748
          },
          {
            "duration": 0.125,
            "durationTicks": 96,
            "midi": 36,
            "name": "C2",
            "ticks": 130752,
            "time": 170.25,
            "velocity": 0.3937007874015748
          },
          {
            "duration": 0.0625,
            "durationTicks": 48,
            "midi": 38,
            "name": "D2",
            "ticks": 131040,
            "time": 170.625,
            "velocity": 0.3937007874015748
          },
          {
            "duration": 0.0625,
            "durationTicks": 48,
            "midi": 33,
            "name": "A1",
            "ticks": 131040,
            "time": 170.625,
            "velocity": 0.3937007874015748
          },
          {
            "duration": 0.0625,
            "durationTicks": 48,
            "midi": 36,
            "name": "C2",
            "ticks": 131184,
            "time": 170.8125,
            "velocity": 0.3937007874015748
          },
          {
            "duration": 0.0625,
            "durationTicks": 48,
            "midi": 33,
            "name": "A1",
            "ticks": 131328,
            "time": 171,
            "velocity": 0.3937007874015748
          },
          {
            "duration": 0.0625,
            "durationTicks": 48,
            "midi": 36,
            "name": "C2",
            "ticks": 131472,
            "time": 171.1875,
            "velocity": 0.3937007874015748
          },
          {
            "duration": 0.0625,
            "durationTicks": 48,
            "midi": 33,
            "name": "A1",
            "ticks": 131616,
            "time": 171.375,
            "velocity": 0.3937007874015748
          },
          {
            "duration": 0.0625,
            "durationTicks": 48,
            "midi": 38,
            "name": "D2",
            "ticks": 131616,
            "time": 171.375,
            "velocity": 0.3937007874015748
          },
          {
            "duration": 0.0625,
            "durationTicks": 48,
            "midi": 33,
            "name": "A1",
            "ticks": 131904,
            "time": 171.75,
            "velocity": 0.3937007874015748
          },
          {
            "duration": 0.125,
            "durationTicks": 96,
            "midi": 36,
            "name": "C2",
            "ticks": 131904,
            "time": 171.75,
            "velocity": 0.3937007874015748
          },
          {
            "duration": 0.0625,
            "durationTicks": 48,
            "midi": 38,
            "name": "D2",
            "ticks": 132192,
            "time": 172.125,
            "velocity": 0.3937007874015748
          },
          {
            "duration": 0.0625,
            "durationTicks": 48,
            "midi": 33,
            "name": "A1",
            "ticks": 132192,
            "time": 172.125,
            "velocity": 0.3937007874015748
          },
          {
            "duration": 0.0625,
            "durationTicks": 48,
            "midi": 36,
            "name": "C2",
            "ticks": 132336,
            "time": 172.3125,
            "velocity": 0.3937007874015748
          },
          {
            "duration": 0.0625,
            "durationTicks": 48,
            "midi": 33,
            "name": "A1",
            "ticks": 132480,
            "time": 172.5,
            "velocity": 0.3937007874015748
          },
          {
            "duration": 0.0625,
            "durationTicks": 48,
            "midi": 36,
            "name": "C2",
            "ticks": 132624,
            "time": 172.6875,
            "velocity": 0.3937007874015748
          },
          {
            "duration": 0.0625,
            "durationTicks": 48,
            "midi": 33,
            "name": "A1",
            "ticks": 132768,
            "time": 172.875,
            "velocity": 0.3937007874015748
          },
          {
            "duration": 0.0625,
            "durationTicks": 48,
            "midi": 38,
            "name": "D2",
            "ticks": 132768,
            "time": 172.875,
            "velocity": 0.3937007874015748
          },
          {
            "duration": 0.125,
            "durationTicks": 96,
            "midi": 36,
            "name": "C2",
            "ticks": 133056,
            "time": 173.25,
            "velocity": 0.3937007874015748
          },
          {
            "duration": 0.0625,
            "durationTicks": 48,
            "midi": 33,
            "name": "A1",
            "ticks": 133056,
            "time": 173.25,
            "velocity": 0.3937007874015748
          },
          {
            "duration": 0.0625,
            "durationTicks": 48,
            "midi": 38,
            "name": "D2",
            "ticks": 133344,
            "time": 173.625,
            "velocity": 0.3937007874015748
          },
          {
            "duration": 0.0625,
            "durationTicks": 48,
            "midi": 33,
            "name": "A1",
            "ticks": 133344,
            "time": 173.625,
            "velocity": 0.3937007874015748
          },
          {
            "duration": 0.0625,
            "durationTicks": 48,
            "midi": 36,
            "name": "C2",
            "ticks": 133488,
            "time": 173.8125,
            "velocity": 0.3937007874015748
          },
          {
            "duration": 0.0625,
            "durationTicks": 48,
            "midi": 33,
            "name": "A1",
            "ticks": 133632,
            "time": 174,
            "velocity": 0.3937007874015748
          },
          {
            "duration": 0.0625,
            "durationTicks": 48,
            "midi": 36,
            "name": "C2",
            "ticks": 133776,
            "time": 174.1875,
            "velocity": 0.3937007874015748
          },
          {
            "duration": 0.0625,
            "durationTicks": 48,
            "midi": 38,
            "name": "D2",
            "ticks": 133920,
            "time": 174.375,
            "velocity": 0.3937007874015748
          },
          {
            "duration": 0.0625,
            "durationTicks": 48,
            "midi": 33,
            "name": "A1",
            "ticks": 133920,
            "time": 174.375,
            "velocity": 0.3937007874015748
          },
          {
            "duration": 0.125,
            "durationTicks": 96,
            "midi": 36,
            "name": "C2",
            "ticks": 134208,
            "time": 174.75,
            "velocity": 0.3937007874015748
          },
          {
            "duration": 0.0625,
            "durationTicks": 48,
            "midi": 33,
            "name": "A1",
            "ticks": 134208,
            "time": 174.75,
            "velocity": 0.3937007874015748
          },
          {
            "duration": 0.0625,
            "durationTicks": 48,
            "midi": 33,
            "name": "A1",
            "ticks": 134496,
            "time": 175.125,
            "velocity": 0.3937007874015748
          },
          {
            "duration": 0.0625,
            "durationTicks": 48,
            "midi": 38,
            "name": "D2",
            "ticks": 134496,
            "time": 175.125,
            "velocity": 0.3937007874015748
          },
          {
            "duration": 0.0625,
            "durationTicks": 48,
            "midi": 36,
            "name": "C2",
            "ticks": 134640,
            "time": 175.3125,
            "velocity": 0.3937007874015748
          },
          {
            "duration": 0.0625,
            "durationTicks": 48,
            "midi": 33,
            "name": "A1",
            "ticks": 134784,
            "time": 175.5,
            "velocity": 0.3937007874015748
          },
          {
            "duration": 0.0625,
            "durationTicks": 48,
            "midi": 36,
            "name": "C2",
            "ticks": 134928,
            "time": 175.6875,
            "velocity": 0.3937007874015748
          },
          {
            "duration": 0.0625,
            "durationTicks": 48,
            "midi": 33,
            "name": "A1",
            "ticks": 135072,
            "time": 175.875,
            "velocity": 0.3937007874015748
          },
          {
            "duration": 0.0625,
            "durationTicks": 48,
            "midi": 38,
            "name": "D2",
            "ticks": 135072,
            "time": 175.875,
            "velocity": 0.3937007874015748
          },
          {
            "duration": 0.0625,
            "durationTicks": 48,
            "midi": 33,
            "name": "A1",
            "ticks": 135360,
            "time": 176.25,
            "velocity": 0.3937007874015748
          },
          {
            "duration": 0.125,
            "durationTicks": 96,
            "midi": 36,
            "name": "C2",
            "ticks": 135360,
            "time": 176.25,
            "velocity": 0.3937007874015748
          },
          {
            "duration": 0.0625,
            "durationTicks": 48,
            "midi": 38,
            "name": "D2",
            "ticks": 135648,
            "time": 176.625,
            "velocity": 0.3937007874015748
          },
          {
            "duration": 0.0625,
            "durationTicks": 48,
            "midi": 33,
            "name": "A1",
            "ticks": 135648,
            "time": 176.625,
            "velocity": 0.3937007874015748
          },
          {
            "duration": 0.0625,
            "durationTicks": 48,
            "midi": 36,
            "name": "C2",
            "ticks": 135792,
            "time": 176.8125,
            "velocity": 0.3937007874015748
          },
          {
            "duration": 0.0625,
            "durationTicks": 48,
            "midi": 33,
            "name": "A1",
            "ticks": 135936,
            "time": 177,
            "velocity": 0.3937007874015748
          },
          {
            "duration": 0.0625,
            "durationTicks": 48,
            "midi": 36,
            "name": "C2",
            "ticks": 136080,
            "time": 177.1875,
            "velocity": 0.3937007874015748
          },
          {
            "duration": 0.0625,
            "durationTicks": 48,
            "midi": 38,
            "name": "D2",
            "ticks": 136224,
            "time": 177.375,
            "velocity": 0.3937007874015748
          },
          {
            "duration": 0.0625,
            "durationTicks": 48,
            "midi": 33,
            "name": "A1",
            "ticks": 136224,
            "time": 177.375,
            "velocity": 0.3937007874015748
          },
          {
            "duration": 0.125,
            "durationTicks": 96,
            "midi": 36,
            "name": "C2",
            "ticks": 136512,
            "time": 177.75,
            "velocity": 0.3937007874015748
          },
          {
            "duration": 0.0625,
            "durationTicks": 48,
            "midi": 33,
            "name": "A1",
            "ticks": 136512,
            "time": 177.75,
            "velocity": 0.3937007874015748
          },
          {
            "duration": 0.0625,
            "durationTicks": 48,
            "midi": 38,
            "name": "D2",
            "ticks": 136800,
            "time": 178.125,
            "velocity": 0.3937007874015748
          },
          {
            "duration": 0.0625,
            "durationTicks": 48,
            "midi": 33,
            "name": "A1",
            "ticks": 136800,
            "time": 178.125,
            "velocity": 0.3937007874015748
          },
          {
            "duration": 0.0625,
            "durationTicks": 48,
            "midi": 33,
            "name": "A1",
            "ticks": 137088,
            "time": 178.5,
            "velocity": 0.3937007874015748
          },
          {
            "duration": 0.125,
            "durationTicks": 96,
            "midi": 36,
            "name": "C2",
            "ticks": 137088,
            "time": 178.5,
            "velocity": 0.3937007874015748
          },
          {
            "duration": 0.0625,
            "durationTicks": 48,
            "midi": 38,
            "name": "D2",
            "ticks": 137376,
            "time": 178.875,
            "velocity": 0.3937007874015748
          },
          {
            "duration": 0.0625,
            "durationTicks": 48,
            "midi": 33,
            "name": "A1",
            "ticks": 137376,
            "time": 178.875,
            "velocity": 0.3937007874015748
          },
          {
            "duration": 0.0625,
            "durationTicks": 48,
            "midi": 36,
            "name": "C2",
            "ticks": 137520,
            "time": 179.0625,
            "velocity": 0.3937007874015748
          },
          {
            "duration": 0.0625,
            "durationTicks": 48,
            "midi": 33,
            "name": "A1",
            "ticks": 137664,
            "time": 179.25,
            "velocity": 0.3937007874015748
          },
          {
            "duration": 0.0625,
            "durationTicks": 48,
            "midi": 36,
            "name": "C2",
            "ticks": 137808,
            "time": 179.4375,
            "velocity": 0.3937007874015748
          },
          {
            "duration": 0.0625,
            "durationTicks": 48,
            "midi": 33,
            "name": "A1",
            "ticks": 137952,
            "time": 179.625,
            "velocity": 0.3937007874015748
          },
          {
            "duration": 0.0625,
            "durationTicks": 48,
            "midi": 38,
            "name": "D2",
            "ticks": 137952,
            "time": 179.625,
            "velocity": 0.3937007874015748
          },
          {
            "duration": 0.0625,
            "durationTicks": 48,
            "midi": 33,
            "name": "A1",
            "ticks": 138240,
            "time": 180,
            "velocity": 0.3937007874015748
          },
          {
            "duration": 0.125,
            "durationTicks": 96,
            "midi": 36,
            "name": "C2",
            "ticks": 138240,
            "time": 180,
            "velocity": 0.3937007874015748
          },
          {
            "duration": 0.0625,
            "durationTicks": 48,
            "midi": 33,
            "name": "A1",
            "ticks": 138528,
            "time": 180.375,
            "velocity": 0.3937007874015748
          },
          {
            "duration": 0.0625,
            "durationTicks": 48,
            "midi": 33,
            "name": "A1",
            "ticks": 138528,
            "time": 180.375,
            "velocity": 0.3937007874015748
          },
          {
            "duration": 0.0625,
            "durationTicks": 48,
            "midi": 38,
            "name": "D2",
            "ticks": 138528,
            "time": 180.375,
            "velocity": 0.3937007874015748
          },
          {
            "duration": 0.0625,
            "durationTicks": 48,
            "midi": 36,
            "name": "C2",
            "ticks": 138672,
            "time": 180.5625,
            "velocity": 0.3937007874015748
          },
          {
            "duration": 0.0625,
            "durationTicks": 48,
            "midi": 33,
            "name": "A1",
            "ticks": 138816,
            "time": 180.75,
            "velocity": 0.3937007874015748
          },
          {
            "duration": 0.0625,
            "durationTicks": 48,
            "midi": 33,
            "name": "A1",
            "ticks": 138816,
            "time": 180.75,
            "velocity": 0.3937007874015748
          },
          {
            "duration": 0.0625,
            "durationTicks": 48,
            "midi": 36,
            "name": "C2",
            "ticks": 138960,
            "time": 180.9375,
            "velocity": 0.3937007874015748
          },
          {
            "duration": 0.0625,
            "durationTicks": 48,
            "midi": 33,
            "name": "A1",
            "ticks": 139104,
            "time": 181.125,
            "velocity": 0.3937007874015748
          },
          {
            "duration": 0.0625,
            "durationTicks": 48,
            "midi": 38,
            "name": "D2",
            "ticks": 139104,
            "time": 181.125,
            "velocity": 0.3937007874015748
          },
          {
            "duration": 0.0625,
            "durationTicks": 48,
            "midi": 33,
            "name": "A1",
            "ticks": 139104,
            "time": 181.125,
            "velocity": 0.3937007874015748
          },
          {
            "duration": 0.0625,
            "durationTicks": 48,
            "midi": 33,
            "name": "A1",
            "ticks": 139392,
            "time": 181.5,
            "velocity": 0.3937007874015748
          },
          {
            "duration": 0.125,
            "durationTicks": 96,
            "midi": 36,
            "name": "C2",
            "ticks": 139392,
            "time": 181.5,
            "velocity": 0.3937007874015748
          },
          {
            "duration": 0.0625,
            "durationTicks": 48,
            "midi": 38,
            "name": "D2",
            "ticks": 139680,
            "time": 181.875,
            "velocity": 0.3937007874015748
          },
          {
            "duration": 0.0625,
            "durationTicks": 48,
            "midi": 33,
            "name": "A1",
            "ticks": 139680,
            "time": 181.875,
            "velocity": 0.3937007874015748
          },
          {
            "duration": 0.0625,
            "durationTicks": 48,
            "midi": 36,
            "name": "C2",
            "ticks": 139824,
            "time": 182.0625,
            "velocity": 0.3937007874015748
          },
          {
            "duration": 0.0625,
            "durationTicks": 48,
            "midi": 33,
            "name": "A1",
            "ticks": 139968,
            "time": 182.25,
            "velocity": 0.3937007874015748
          },
          {
            "duration": 0.0625,
            "durationTicks": 48,
            "midi": 36,
            "name": "C2",
            "ticks": 140112,
            "time": 182.4375,
            "velocity": 0.3937007874015748
          },
          {
            "duration": 0.0625,
            "durationTicks": 48,
            "midi": 38,
            "name": "D2",
            "ticks": 140256,
            "time": 182.625,
            "velocity": 0.3937007874015748
          },
          {
            "duration": 0.0625,
            "durationTicks": 48,
            "midi": 33,
            "name": "A1",
            "ticks": 140256,
            "time": 182.625,
            "velocity": 0.3937007874015748
          },
          {
            "duration": 0.125,
            "durationTicks": 96,
            "midi": 36,
            "name": "C2",
            "ticks": 140544,
            "time": 183,
            "velocity": 0.3937007874015748
          },
          {
            "duration": 0.0625,
            "durationTicks": 48,
            "midi": 33,
            "name": "A1",
            "ticks": 140544,
            "time": 183,
            "velocity": 0.3937007874015748
          },
          {
            "duration": 0.0625,
            "durationTicks": 48,
            "midi": 33,
            "name": "A1",
            "ticks": 140832,
            "time": 183.375,
            "velocity": 0.3937007874015748
          },
          {
            "duration": 0.0625,
            "durationTicks": 48,
            "midi": 38,
            "name": "D2",
            "ticks": 140832,
            "time": 183.375,
            "velocity": 0.3937007874015748
          },
          {
            "duration": 0.0625,
            "durationTicks": 48,
            "midi": 36,
            "name": "C2",
            "ticks": 140976,
            "time": 183.5625,
            "velocity": 0.3937007874015748
          },
          {
            "duration": 0.0625,
            "durationTicks": 48,
            "midi": 33,
            "name": "A1",
            "ticks": 141120,
            "time": 183.75,
            "velocity": 0.3937007874015748
          },
          {
            "duration": 0.0625,
            "durationTicks": 48,
            "midi": 36,
            "name": "C2",
            "ticks": 141264,
            "time": 183.9375,
            "velocity": 0.3937007874015748
          },
          {
            "duration": 0.0625,
            "durationTicks": 48,
            "midi": 38,
            "name": "D2",
            "ticks": 141408,
            "time": 184.125,
            "velocity": 0.3937007874015748
          },
          {
            "duration": 0.0625,
            "durationTicks": 48,
            "midi": 33,
            "name": "A1",
            "ticks": 141408,
            "time": 184.125,
            "velocity": 0.3937007874015748
          },
          {
            "duration": 0.0625,
            "durationTicks": 48,
            "midi": 33,
            "name": "A1",
            "ticks": 141696,
            "time": 184.5,
            "velocity": 0.3937007874015748
          },
          {
            "duration": 0.125,
            "durationTicks": 96,
            "midi": 36,
            "name": "C2",
            "ticks": 141696,
            "time": 184.5,
            "velocity": 0.3937007874015748
          },
          {
            "duration": 0.0625,
            "durationTicks": 48,
            "midi": 33,
            "name": "A1",
            "ticks": 141984,
            "time": 184.875,
            "velocity": 0.3937007874015748
          },
          {
            "duration": 0.0625,
            "durationTicks": 48,
            "midi": 38,
            "name": "D2",
            "ticks": 141984,
            "time": 184.875,
            "velocity": 0.3937007874015748
          },
          {
            "duration": 0.0625,
            "durationTicks": 48,
            "midi": 36,
            "name": "C2",
            "ticks": 142128,
            "time": 185.0625,
            "velocity": 0.3937007874015748
          },
          {
            "duration": 0.0625,
            "durationTicks": 48,
            "midi": 33,
            "name": "A1",
            "ticks": 142272,
            "time": 185.25,
            "velocity": 0.3937007874015748
          },
          {
            "duration": 0.0625,
            "durationTicks": 48,
            "midi": 36,
            "name": "C2",
            "ticks": 142416,
            "time": 185.4375,
            "velocity": 0.3937007874015748
          },
          {
            "duration": 0.0625,
            "durationTicks": 48,
            "midi": 33,
            "name": "A1",
            "ticks": 142560,
            "time": 185.625,
            "velocity": 0.3937007874015748
          },
          {
            "duration": 0.0625,
            "durationTicks": 48,
            "midi": 38,
            "name": "D2",
            "ticks": 142560,
            "time": 185.625,
            "velocity": 0.3937007874015748
          },
          {
            "duration": 0.0625,
            "durationTicks": 48,
            "midi": 33,
            "name": "A1",
            "ticks": 142848,
            "time": 186,
            "velocity": 0.3937007874015748
          },
          {
            "duration": 0.125,
            "durationTicks": 96,
            "midi": 36,
            "name": "C2",
            "ticks": 142848,
            "time": 186,
            "velocity": 0.3937007874015748
          },
          {
            "duration": 0.0625,
            "durationTicks": 48,
            "midi": 33,
            "name": "A1",
            "ticks": 143136,
            "time": 186.375,
            "velocity": 0.3937007874015748
          },
          {
            "duration": 0.0625,
            "durationTicks": 48,
            "midi": 38,
            "name": "D2",
            "ticks": 143136,
            "time": 186.375,
            "velocity": 0.3937007874015748
          },
          {
            "duration": 0.125,
            "durationTicks": 96,
            "midi": 36,
            "name": "C2",
            "ticks": 143424,
            "time": 186.75,
            "velocity": 0.3937007874015748
          },
          {
            "duration": 0.0625,
            "durationTicks": 48,
            "midi": 33,
            "name": "A1",
            "ticks": 143424,
            "time": 186.75,
            "velocity": 0.3937007874015748
          },
          {
            "duration": 0.0625,
            "durationTicks": 48,
            "midi": 38,
            "name": "D2",
            "ticks": 143712,
            "time": 187.125,
            "velocity": 0.3937007874015748
          },
          {
            "duration": 0.0625,
            "durationTicks": 48,
            "midi": 33,
            "name": "A1",
            "ticks": 143712,
            "time": 187.125,
            "velocity": 0.3937007874015748
          },
          {
            "duration": 0.0625,
            "durationTicks": 48,
            "midi": 36,
            "name": "C2",
            "ticks": 143856,
            "time": 187.3125,
            "velocity": 0.3937007874015748
          },
          {
            "duration": 0.0625,
            "durationTicks": 48,
            "midi": 33,
            "name": "A1",
            "ticks": 144000,
            "time": 187.5,
            "velocity": 0.3937007874015748
          },
          {
            "duration": 0.0625,
            "durationTicks": 48,
            "midi": 36,
            "name": "C2",
            "ticks": 144144,
            "time": 187.6875,
            "velocity": 0.3937007874015748
          },
          {
            "duration": 0.0625,
            "durationTicks": 48,
            "midi": 33,
            "name": "A1",
            "ticks": 144288,
            "time": 187.875,
            "velocity": 0.3937007874015748
          },
          {
            "duration": 0.0625,
            "durationTicks": 48,
            "midi": 38,
            "name": "D2",
            "ticks": 144288,
            "time": 187.875,
            "velocity": 0.3937007874015748
          },
          {
            "duration": 0.0625,
            "durationTicks": 48,
            "midi": 33,
            "name": "A1",
            "ticks": 144576,
            "time": 188.25,
            "velocity": 0.3937007874015748
          },
          {
            "duration": 0.125,
            "durationTicks": 96,
            "midi": 36,
            "name": "C2",
            "ticks": 144576,
            "time": 188.25,
            "velocity": 0.3937007874015748
          },
          {
            "duration": 0.0625,
            "durationTicks": 48,
            "midi": 38,
            "name": "D2",
            "ticks": 144864,
            "time": 188.625,
            "velocity": 0.3937007874015748
          },
          {
            "duration": 0.0625,
            "durationTicks": 48,
            "midi": 33,
            "name": "A1",
            "ticks": 144864,
            "time": 188.625,
            "velocity": 0.3937007874015748
          },
          {
            "duration": 0.0625,
            "durationTicks": 48,
            "midi": 36,
            "name": "C2",
            "ticks": 145008,
            "time": 188.8125,
            "velocity": 0.3937007874015748
          },
          {
            "duration": 0.0625,
            "durationTicks": 48,
            "midi": 33,
            "name": "A1",
            "ticks": 145152,
            "time": 189,
            "velocity": 0.3937007874015748
          },
          {
            "duration": 0.0625,
            "durationTicks": 48,
            "midi": 36,
            "name": "C2",
            "ticks": 145296,
            "time": 189.1875,
            "velocity": 0.3937007874015748
          },
          {
            "duration": 0.0625,
            "durationTicks": 48,
            "midi": 38,
            "name": "D2",
            "ticks": 145440,
            "time": 189.375,
            "velocity": 0.3937007874015748
          },
          {
            "duration": 0.0625,
            "durationTicks": 48,
            "midi": 33,
            "name": "A1",
            "ticks": 145440,
            "time": 189.375,
            "velocity": 0.3937007874015748
          },
          {
            "duration": 0.125,
            "durationTicks": 96,
            "midi": 36,
            "name": "C2",
            "ticks": 145728,
            "time": 189.75,
            "velocity": 0.3937007874015748
          },
          {
            "duration": 0.0625,
            "durationTicks": 48,
            "midi": 33,
            "name": "A1",
            "ticks": 145728,
            "time": 189.75,
            "velocity": 0.3937007874015748
          },
          {
            "duration": 0.0625,
            "durationTicks": 48,
            "midi": 33,
            "name": "A1",
            "ticks": 146016,
            "time": 190.125,
            "velocity": 0.3937007874015748
          },
          {
            "duration": 0.0625,
            "durationTicks": 48,
            "midi": 38,
            "name": "D2",
            "ticks": 146016,
            "time": 190.125,
            "velocity": 0.3937007874015748
          },
          {
            "duration": 0.0625,
            "durationTicks": 48,
            "midi": 36,
            "name": "C2",
            "ticks": 146160,
            "time": 190.3125,
            "velocity": 0.3937007874015748
          },
          {
            "duration": 0.0625,
            "durationTicks": 48,
            "midi": 33,
            "name": "A1",
            "ticks": 146304,
            "time": 190.5,
            "velocity": 0.3937007874015748
          },
          {
            "duration": 0.0625,
            "durationTicks": 48,
            "midi": 36,
            "name": "C2",
            "ticks": 146448,
            "time": 190.6875,
            "velocity": 0.3937007874015748
          },
          {
            "duration": 0.0625,
            "durationTicks": 48,
            "midi": 33,
            "name": "A1",
            "ticks": 146592,
            "time": 190.875,
            "velocity": 0.3937007874015748
          },
          {
            "duration": 0.0625,
            "durationTicks": 48,
            "midi": 38,
            "name": "D2",
            "ticks": 146592,
            "time": 190.875,
            "velocity": 0.3937007874015748
          },
          {
            "duration": 0.0625,
            "durationTicks": 48,
            "midi": 33,
            "name": "A1",
            "ticks": 146880,
            "time": 191.25,
            "velocity": 0.3937007874015748
          },
          {
            "duration": 0.125,
            "durationTicks": 96,
            "midi": 36,
            "name": "C2",
            "ticks": 146880,
            "time": 191.25,
            "velocity": 0.3937007874015748
          },
          {
            "duration": 0.0625,
            "durationTicks": 48,
            "midi": 38,
            "name": "D2",
            "ticks": 147168,
            "time": 191.625,
            "velocity": 0.3937007874015748
          },
          {
            "duration": 0.0625,
            "durationTicks": 48,
            "midi": 33,
            "name": "A1",
            "ticks": 147168,
            "time": 191.625,
            "velocity": 0.3937007874015748
          },
          {
            "duration": 0.0625,
            "durationTicks": 48,
            "midi": 36,
            "name": "C2",
            "ticks": 147312,
            "time": 191.8125,
            "velocity": 0.3937007874015748
          },
          {
            "duration": 0.0625,
            "durationTicks": 48,
            "midi": 33,
            "name": "A1",
            "ticks": 147456,
            "time": 192,
            "velocity": 0.3937007874015748
          },
          {
            "duration": 0.0625,
            "durationTicks": 48,
            "midi": 36,
            "name": "C2",
            "ticks": 147600,
            "time": 192.1875,
            "velocity": 0.3937007874015748
          },
          {
            "duration": 0.0625,
            "durationTicks": 48,
            "midi": 33,
            "name": "A1",
            "ticks": 147744,
            "time": 192.375,
            "velocity": 0.3937007874015748
          },
          {
            "duration": 0.0625,
            "durationTicks": 48,
            "midi": 38,
            "name": "D2",
            "ticks": 147744,
            "time": 192.375,
            "velocity": 0.3937007874015748
          },
          {
            "duration": 0.125,
            "durationTicks": 96,
            "midi": 36,
            "name": "C2",
            "ticks": 148032,
            "time": 192.75,
            "velocity": 0.3937007874015748
          },
          {
            "duration": 0.0625,
            "durationTicks": 48,
            "midi": 33,
            "name": "A1",
            "ticks": 148032,
            "time": 192.75,
            "velocity": 0.3937007874015748
          },
          {
            "duration": 0.0625,
            "durationTicks": 48,
            "midi": 33,
            "name": "A1",
            "ticks": 148320,
            "time": 193.125,
            "velocity": 0.3937007874015748
          },
          {
            "duration": 0.0625,
            "durationTicks": 48,
            "midi": 38,
            "name": "D2",
            "ticks": 148320,
            "time": 193.125,
            "velocity": 0.3937007874015748
          },
          {
            "duration": 0.0625,
            "durationTicks": 48,
            "midi": 36,
            "name": "C2",
            "ticks": 148464,
            "time": 193.3125,
            "velocity": 0.3937007874015748
          },
          {
            "duration": 0.0625,
            "durationTicks": 48,
            "midi": 33,
            "name": "A1",
            "ticks": 148608,
            "time": 193.5,
            "velocity": 0.3937007874015748
          },
          {
            "duration": 0.0625,
            "durationTicks": 48,
            "midi": 36,
            "name": "C2",
            "ticks": 148752,
            "time": 193.6875,
            "velocity": 0.3937007874015748
          },
          {
            "duration": 0.0625,
            "durationTicks": 48,
            "midi": 33,
            "name": "A1",
            "ticks": 148896,
            "time": 193.875,
            "velocity": 0.3937007874015748
          },
          {
            "duration": 0.0625,
            "durationTicks": 48,
            "midi": 38,
            "name": "D2",
            "ticks": 148896,
            "time": 193.875,
            "velocity": 0.3937007874015748
          },
          {
            "duration": 0.125,
            "durationTicks": 96,
            "midi": 36,
            "name": "C2",
            "ticks": 149184,
            "time": 194.25,
            "velocity": 0.3937007874015748
          },
          {
            "duration": 0.0625,
            "durationTicks": 48,
            "midi": 33,
            "name": "A1",
            "ticks": 149184,
            "time": 194.25,
            "velocity": 0.3937007874015748
          },
          {
            "duration": 0.0625,
            "durationTicks": 48,
            "midi": 33,
            "name": "A1",
            "ticks": 149472,
            "time": 194.625,
            "velocity": 0.3937007874015748
          },
          {
            "duration": 0.0625,
            "durationTicks": 48,
            "midi": 38,
            "name": "D2",
            "ticks": 149472,
            "time": 194.625,
            "velocity": 0.3937007874015748
          },
          {
            "duration": 0.0625,
            "durationTicks": 48,
            "midi": 33,
            "name": "A1",
            "ticks": 149760,
            "time": 195,
            "velocity": 0.3937007874015748
          },
          {
            "duration": 0.125,
            "durationTicks": 96,
            "midi": 36,
            "name": "C2",
            "ticks": 149760,
            "time": 195,
            "velocity": 0.3937007874015748
          },
          {
            "duration": 0.0625,
            "durationTicks": 48,
            "midi": 33,
            "name": "A1",
            "ticks": 150048,
            "time": 195.375,
            "velocity": 0.3937007874015748
          },
          {
            "duration": 0.0625,
            "durationTicks": 48,
            "midi": 38,
            "name": "D2",
            "ticks": 150048,
            "time": 195.375,
            "velocity": 0.3937007874015748
          },
          {
            "duration": 0.0625,
            "durationTicks": 48,
            "midi": 36,
            "name": "C2",
            "ticks": 150192,
            "time": 195.5625,
            "velocity": 0.3937007874015748
          },
          {
            "duration": 0.0625,
            "durationTicks": 48,
            "midi": 33,
            "name": "A1",
            "ticks": 150336,
            "time": 195.75,
            "velocity": 0.3937007874015748
          },
          {
            "duration": 0.0625,
            "durationTicks": 48,
            "midi": 36,
            "name": "C2",
            "ticks": 150480,
            "time": 195.9375,
            "velocity": 0.3937007874015748
          },
          {
            "duration": 0.0625,
            "durationTicks": 48,
            "midi": 38,
            "name": "D2",
            "ticks": 150624,
            "time": 196.125,
            "velocity": 0.3937007874015748
          },
          {
            "duration": 0.0625,
            "durationTicks": 48,
            "midi": 33,
            "name": "A1",
            "ticks": 150624,
            "time": 196.125,
            "velocity": 0.3937007874015748
          },
          {
            "duration": 0.0625,
            "durationTicks": 48,
            "midi": 33,
            "name": "A1",
            "ticks": 150912,
            "time": 196.5,
            "velocity": 0.3937007874015748
          },
          {
            "duration": 0.125,
            "durationTicks": 96,
            "midi": 36,
            "name": "C2",
            "ticks": 150912,
            "time": 196.5,
            "velocity": 0.3937007874015748
          },
          {
            "duration": 0.0625,
            "durationTicks": 48,
            "midi": 38,
            "name": "D2",
            "ticks": 151200,
            "time": 196.875,
            "velocity": 0.3937007874015748
          },
          {
            "duration": 0.0625,
            "durationTicks": 48,
            "midi": 33,
            "name": "A1",
            "ticks": 151200,
            "time": 196.875,
            "velocity": 0.3937007874015748
          },
          {
            "duration": 0.0625,
            "durationTicks": 48,
            "midi": 33,
            "name": "A1",
            "ticks": 151200,
            "time": 196.875,
            "velocity": 0.3937007874015748
          },
          {
            "duration": 0.0625,
            "durationTicks": 48,
            "midi": 36,
            "name": "C2",
            "ticks": 151344,
            "time": 197.0625,
            "velocity": 0.3937007874015748
          },
          {
            "duration": 0.0625,
            "durationTicks": 48,
            "midi": 33,
            "name": "A1",
            "ticks": 151488,
            "time": 197.25,
            "velocity": 0.3937007874015748
          },
          {
            "duration": 0.0625,
            "durationTicks": 48,
            "midi": 33,
            "name": "A1",
            "ticks": 151488,
            "time": 197.25,
            "velocity": 0.3937007874015748
          },
          {
            "duration": 0.0625,
            "durationTicks": 48,
            "midi": 36,
            "name": "C2",
            "ticks": 151632,
            "time": 197.4375,
            "velocity": 0.3937007874015748
          },
          {
            "duration": 0.0625,
            "durationTicks": 48,
            "midi": 33,
            "name": "A1",
            "ticks": 151776,
            "time": 197.625,
            "velocity": 0.3937007874015748
          },
          {
            "duration": 0.0625,
            "durationTicks": 48,
            "midi": 38,
            "name": "D2",
            "ticks": 151776,
            "time": 197.625,
            "velocity": 0.3937007874015748
          },
          {
            "duration": 0.0625,
            "durationTicks": 48,
            "midi": 33,
            "name": "A1",
            "ticks": 151776,
            "time": 197.625,
            "velocity": 0.3937007874015748
          },
          {
            "duration": 0.0625,
            "durationTicks": 48,
            "midi": 33,
            "name": "A1",
            "ticks": 152064,
            "time": 198,
            "velocity": 0.3937007874015748
          },
          {
            "duration": 0.125,
            "durationTicks": 96,
            "midi": 36,
            "name": "C2",
            "ticks": 152064,
            "time": 198,
            "velocity": 0.3937007874015748
          },
          {
            "duration": 0.0625,
            "durationTicks": 48,
            "midi": 38,
            "name": "D2",
            "ticks": 152352,
            "time": 198.375,
            "velocity": 0.3937007874015748
          },
          {
            "duration": 0.0625,
            "durationTicks": 48,
            "midi": 33,
            "name": "A1",
            "ticks": 152352,
            "time": 198.375,
            "velocity": 0.3937007874015748
          },
          {
            "duration": 0.0625,
            "durationTicks": 48,
            "midi": 36,
            "name": "C2",
            "ticks": 152496,
            "time": 198.5625,
            "velocity": 0.3937007874015748
          },
          {
            "duration": 0.0625,
            "durationTicks": 48,
            "midi": 33,
            "name": "A1",
            "ticks": 152640,
            "time": 198.75,
            "velocity": 0.3937007874015748
          },
          {
            "duration": 0.0625,
            "durationTicks": 48,
            "midi": 36,
            "name": "C2",
            "ticks": 152784,
            "time": 198.9375,
            "velocity": 0.3937007874015748
          },
          {
            "duration": 0.0625,
            "durationTicks": 48,
            "midi": 38,
            "name": "D2",
            "ticks": 152928,
            "time": 199.125,
            "velocity": 0.3937007874015748
          },
          {
            "duration": 0.0625,
            "durationTicks": 48,
            "midi": 33,
            "name": "A1",
            "ticks": 152928,
            "time": 199.125,
            "velocity": 0.3937007874015748
          },
          {
            "duration": 0.125,
            "durationTicks": 96,
            "midi": 36,
            "name": "C2",
            "ticks": 153216,
            "time": 199.5,
            "velocity": 0.3937007874015748
          },
          {
            "duration": 0.0625,
            "durationTicks": 48,
            "midi": 33,
            "name": "A1",
            "ticks": 153216,
            "time": 199.5,
            "velocity": 0.3937007874015748
          },
          {
            "duration": 0.0625,
            "durationTicks": 48,
            "midi": 33,
            "name": "A1",
            "ticks": 153504,
            "time": 199.875,
            "velocity": 0.3937007874015748
          },
          {
            "duration": 0.0625,
            "durationTicks": 48,
            "midi": 38,
            "name": "D2",
            "ticks": 153504,
            "time": 199.875,
            "velocity": 0.3937007874015748
          },
          {
            "duration": 0.0625,
            "durationTicks": 48,
            "midi": 36,
            "name": "C2",
            "ticks": 153648,
            "time": 200.0625,
            "velocity": 0.3937007874015748
          },
          {
            "duration": 0.0625,
            "durationTicks": 48,
            "midi": 33,
            "name": "A1",
            "ticks": 153792,
            "time": 200.25,
            "velocity": 0.3937007874015748
          },
          {
            "duration": 0.0625,
            "durationTicks": 48,
            "midi": 36,
            "name": "C2",
            "ticks": 153936,
            "time": 200.4375,
            "velocity": 0.3937007874015748
          },
          {
            "duration": 0.0625,
            "durationTicks": 48,
            "midi": 33,
            "name": "A1",
            "ticks": 154080,
            "time": 200.625,
            "velocity": 0.3937007874015748
          },
          {
            "duration": 0.0625,
            "durationTicks": 48,
            "midi": 38,
            "name": "D2",
            "ticks": 154080,
            "time": 200.625,
            "velocity": 0.3937007874015748
          },
          {
            "duration": 0.125,
            "durationTicks": 96,
            "midi": 36,
            "name": "C2",
            "ticks": 154368,
            "time": 201,
            "velocity": 0.3937007874015748
          },
          {
            "duration": 0.0625,
            "durationTicks": 48,
            "midi": 33,
            "name": "A1",
            "ticks": 154368,
            "time": 201,
            "velocity": 0.3937007874015748
          },
          {
            "duration": 0.0625,
            "durationTicks": 48,
            "midi": 33,
            "name": "A1",
            "ticks": 154656,
            "time": 201.375,
            "velocity": 0.3937007874015748
          },
          {
            "duration": 0.0625,
            "durationTicks": 48,
            "midi": 38,
            "name": "D2",
            "ticks": 154656,
            "time": 201.375,
            "velocity": 0.3937007874015748
          },
          {
            "duration": 0.0625,
            "durationTicks": 48,
            "midi": 36,
            "name": "C2",
            "ticks": 154800,
            "time": 201.5625,
            "velocity": 0.3937007874015748
          },
          {
            "duration": 0.0625,
            "durationTicks": 48,
            "midi": 33,
            "name": "A1",
            "ticks": 154944,
            "time": 201.75,
            "velocity": 0.3937007874015748
          },
          {
            "duration": 0.0625,
            "durationTicks": 48,
            "midi": 36,
            "name": "C2",
            "ticks": 155088,
            "time": 201.9375,
            "velocity": 0.3937007874015748
          },
          {
            "duration": 0.0625,
            "durationTicks": 48,
            "midi": 38,
            "name": "D2",
            "ticks": 155232,
            "time": 202.125,
            "velocity": 0.3937007874015748
          },
          {
            "duration": 0.0625,
            "durationTicks": 48,
            "midi": 33,
            "name": "A1",
            "ticks": 155232,
            "time": 202.125,
            "velocity": 0.3937007874015748
          },
          {
            "duration": 0.125,
            "durationTicks": 96,
            "midi": 36,
            "name": "C2",
            "ticks": 155520,
            "time": 202.5,
            "velocity": 0.3937007874015748
          },
          {
            "duration": 0.0625,
            "durationTicks": 48,
            "midi": 33,
            "name": "A1",
            "ticks": 155520,
            "time": 202.5,
            "velocity": 0.3937007874015748
          },
          {
            "duration": 0.0625,
            "durationTicks": 48,
            "midi": 33,
            "name": "A1",
            "ticks": 155808,
            "time": 202.875,
            "velocity": 0.3937007874015748
          },
          {
            "duration": 0.0625,
            "durationTicks": 48,
            "midi": 38,
            "name": "D2",
            "ticks": 155808,
            "time": 202.875,
            "velocity": 0.3937007874015748
          },
          {
            "duration": 0.0625,
            "durationTicks": 48,
            "midi": 33,
            "name": "A1",
            "ticks": 156096,
            "time": 203.25,
            "velocity": 0.3937007874015748
          },
          {
            "duration": 0.125,
            "durationTicks": 96,
            "midi": 36,
            "name": "C2",
            "ticks": 156096,
            "time": 203.25,
            "velocity": 0.3937007874015748
          },
          {
            "duration": 0.0625,
            "durationTicks": 48,
            "midi": 38,
            "name": "D2",
            "ticks": 156384,
            "time": 203.625,
            "velocity": 0.3937007874015748
          },
          {
            "duration": 0.0625,
            "durationTicks": 48,
            "midi": 33,
            "name": "A1",
            "ticks": 156384,
            "time": 203.625,
            "velocity": 0.3937007874015748
          },
          {
            "duration": 0.0625,
            "durationTicks": 48,
            "midi": 36,
            "name": "C2",
            "ticks": 156528,
            "time": 203.8125,
            "velocity": 0.3937007874015748
          },
          {
            "duration": 0.0625,
            "durationTicks": 48,
            "midi": 33,
            "name": "A1",
            "ticks": 156672,
            "time": 204,
            "velocity": 0.3937007874015748
          },
          {
            "duration": 0.0625,
            "durationTicks": 48,
            "midi": 36,
            "name": "C2",
            "ticks": 156816,
            "time": 204.1875,
            "velocity": 0.3937007874015748
          },
          {
            "duration": 0.0625,
            "durationTicks": 48,
            "midi": 33,
            "name": "A1",
            "ticks": 156960,
            "time": 204.375,
            "velocity": 0.3937007874015748
          },
          {
            "duration": 0.0625,
            "durationTicks": 48,
            "midi": 38,
            "name": "D2",
            "ticks": 156960,
            "time": 204.375,
            "velocity": 0.3937007874015748
          },
          {
            "duration": 0.0625,
            "durationTicks": 48,
            "midi": 33,
            "name": "A1",
            "ticks": 157248,
            "time": 204.75,
            "velocity": 0.3937007874015748
          },
          {
            "duration": 0.125,
            "durationTicks": 96,
            "midi": 36,
            "name": "C2",
            "ticks": 157248,
            "time": 204.75,
            "velocity": 0.3937007874015748
          },
          {
            "duration": 0.0625,
            "durationTicks": 48,
            "midi": 33,
            "name": "A1",
            "ticks": 157536,
            "time": 205.125,
            "velocity": 0.3937007874015748
          },
          {
            "duration": 0.0625,
            "durationTicks": 48,
            "midi": 38,
            "name": "D2",
            "ticks": 157536,
            "time": 205.125,
            "velocity": 0.3937007874015748
          },
          {
            "duration": 0.0625,
            "durationTicks": 48,
            "midi": 39,
            "name": "D#2",
            "ticks": 157536,
            "time": 205.125,
            "velocity": 0.3937007874015748
          },
          {
            "duration": 0.0625,
            "durationTicks": 48,
            "midi": 36,
            "name": "C2",
            "ticks": 157680,
            "time": 205.3125,
            "velocity": 0.3937007874015748
          },
          {
            "duration": 0.0625,
            "durationTicks": 48,
            "midi": 33,
            "name": "A1",
            "ticks": 157824,
            "time": 205.5,
            "velocity": 0.3937007874015748
          },
          {
            "duration": 0.0625,
            "durationTicks": 48,
            "midi": 39,
            "name": "D#2",
            "ticks": 157824,
            "time": 205.5,
            "velocity": 0.3937007874015748
          },
          {
            "duration": 0.0625,
            "durationTicks": 48,
            "midi": 36,
            "name": "C2",
            "ticks": 157968,
            "time": 205.6875,
            "velocity": 0.3937007874015748
          },
          {
            "duration": 0.0625,
            "durationTicks": 48,
            "midi": 38,
            "name": "D2",
            "ticks": 158112,
            "time": 205.875,
            "velocity": 0.3937007874015748
          },
          {
            "duration": 0.0625,
            "durationTicks": 48,
            "midi": 33,
            "name": "A1",
            "ticks": 158112,
            "time": 205.875,
            "velocity": 0.3937007874015748
          },
          {
            "duration": 0.0625,
            "durationTicks": 48,
            "midi": 39,
            "name": "D#2",
            "ticks": 158112,
            "time": 205.875,
            "velocity": 0.3937007874015748
          },
          {
            "duration": 0.125,
            "durationTicks": 96,
            "midi": 36,
            "name": "C2",
            "ticks": 158400,
            "time": 206.25,
            "velocity": 0.3937007874015748
          },
          {
            "duration": 0.0625,
            "durationTicks": 48,
            "midi": 33,
            "name": "A1",
            "ticks": 158400,
            "time": 206.25,
            "velocity": 0.3937007874015748
          },
          {
            "duration": 0.0625,
            "durationTicks": 48,
            "midi": 33,
            "name": "A1",
            "ticks": 158688,
            "time": 206.625,
            "velocity": 0.3937007874015748
          },
          {
            "duration": 0.0625,
            "durationTicks": 48,
            "midi": 38,
            "name": "D2",
            "ticks": 158688,
            "time": 206.625,
            "velocity": 0.3937007874015748
          },
          {
            "duration": 0.0625,
            "durationTicks": 48,
            "midi": 36,
            "name": "C2",
            "ticks": 158832,
            "time": 206.8125,
            "velocity": 0.3937007874015748
          },
          {
            "duration": 0.0625,
            "durationTicks": 48,
            "midi": 33,
            "name": "A1",
            "ticks": 158976,
            "time": 207,
            "velocity": 0.3937007874015748
          },
          {
            "duration": 0.0625,
            "durationTicks": 48,
            "midi": 36,
            "name": "C2",
            "ticks": 159120,
            "time": 207.1875,
            "velocity": 0.3937007874015748
          },
          {
            "duration": 0.0625,
            "durationTicks": 48,
            "midi": 38,
            "name": "D2",
            "ticks": 159264,
            "time": 207.375,
            "velocity": 0.3937007874015748
          },
          {
            "duration": 0.0625,
            "durationTicks": 48,
            "midi": 33,
            "name": "A1",
            "ticks": 159264,
            "time": 207.375,
            "velocity": 0.3937007874015748
          },
          {
            "duration": 0.125,
            "durationTicks": 96,
            "midi": 36,
            "name": "C2",
            "ticks": 159552,
            "time": 207.75,
            "velocity": 0.3937007874015748
          },
          {
            "duration": 0.0625,
            "durationTicks": 48,
            "midi": 33,
            "name": "A1",
            "ticks": 159552,
            "time": 207.75,
            "velocity": 0.3937007874015748
          },
          {
            "duration": 0.0625,
            "durationTicks": 48,
            "midi": 33,
            "name": "A1",
            "ticks": 159840,
            "time": 208.125,
            "velocity": 0.3937007874015748
          },
          {
            "duration": 0.0625,
            "durationTicks": 48,
            "midi": 38,
            "name": "D2",
            "ticks": 159840,
            "time": 208.125,
            "velocity": 0.3937007874015748
          },
          {
            "duration": 0.0625,
            "durationTicks": 48,
            "midi": 36,
            "name": "C2",
            "ticks": 159984,
            "time": 208.3125,
            "velocity": 0.3937007874015748
          },
          {
            "duration": 0.0625,
            "durationTicks": 48,
            "midi": 33,
            "name": "A1",
            "ticks": 160128,
            "time": 208.5,
            "velocity": 0.3937007874015748
          },
          {
            "duration": 0.0625,
            "durationTicks": 48,
            "midi": 36,
            "name": "C2",
            "ticks": 160272,
            "time": 208.6875,
            "velocity": 0.3937007874015748
          },
          {
            "duration": 0.0625,
            "durationTicks": 48,
            "midi": 38,
            "name": "D2",
            "ticks": 160416,
            "time": 208.875,
            "velocity": 0.3937007874015748
          },
          {
            "duration": 0.0625,
            "durationTicks": 48,
            "midi": 33,
            "name": "A1",
            "ticks": 160416,
            "time": 208.875,
            "velocity": 0.3937007874015748
          },
          {
            "duration": 0.125,
            "durationTicks": 96,
            "midi": 36,
            "name": "C2",
            "ticks": 160704,
            "time": 209.25,
            "velocity": 0.3937007874015748
          },
          {
            "duration": 0.0625,
            "durationTicks": 48,
            "midi": 33,
            "name": "A1",
            "ticks": 160704,
            "time": 209.25,
            "velocity": 0.3937007874015748
          },
          {
            "duration": 0.0625,
            "durationTicks": 48,
            "midi": 38,
            "name": "D2",
            "ticks": 160992,
            "time": 209.625,
            "velocity": 0.3937007874015748
          },
          {
            "duration": 0.0625,
            "durationTicks": 48,
            "midi": 33,
            "name": "A1",
            "ticks": 160992,
            "time": 209.625,
            "velocity": 0.3937007874015748
          },
          {
            "duration": 0.0625,
            "durationTicks": 48,
            "midi": 36,
            "name": "C2",
            "ticks": 161136,
            "time": 209.8125,
            "velocity": 0.3937007874015748
          },
          {
            "duration": 0.0625,
            "durationTicks": 48,
            "midi": 33,
            "name": "A1",
            "ticks": 161280,
            "time": 210,
            "velocity": 0.3937007874015748
          },
          {
            "duration": 0.0625,
            "durationTicks": 48,
            "midi": 36,
            "name": "C2",
            "ticks": 161424,
            "time": 210.1875,
            "velocity": 0.3937007874015748
          },
          {
            "duration": 0.0625,
            "durationTicks": 48,
            "midi": 38,
            "name": "D2",
            "ticks": 161568,
            "time": 210.375,
            "velocity": 0.3937007874015748
          },
          {
            "duration": 0.0625,
            "durationTicks": 48,
            "midi": 33,
            "name": "A1",
            "ticks": 161568,
            "time": 210.375,
            "velocity": 0.3937007874015748
          },
          {
            "duration": 0.125,
            "durationTicks": 96,
            "midi": 36,
            "name": "C2",
            "ticks": 161856,
            "time": 210.75,
            "velocity": 0.3937007874015748
          },
          {
            "duration": 0.0625,
            "durationTicks": 48,
            "midi": 33,
            "name": "A1",
            "ticks": 161856,
            "time": 210.75,
            "velocity": 0.3937007874015748
          },
          {
            "duration": 0.0625,
            "durationTicks": 48,
            "midi": 33,
            "name": "A1",
            "ticks": 162144,
            "time": 211.125,
            "velocity": 0.3937007874015748
          },
          {
            "duration": 0.0625,
            "durationTicks": 48,
            "midi": 38,
            "name": "D2",
            "ticks": 162144,
            "time": 211.125,
            "velocity": 0.3937007874015748
          },
          {
            "duration": 0.125,
            "durationTicks": 96,
            "midi": 36,
            "name": "C2",
            "ticks": 162432,
            "time": 211.5,
            "velocity": 0.3937007874015748
          },
          {
            "duration": 0.0625,
            "durationTicks": 48,
            "midi": 33,
            "name": "A1",
            "ticks": 162432,
            "time": 211.5,
            "velocity": 0.3937007874015748
          },
          {
            "duration": 0.0625,
            "durationTicks": 48,
            "midi": 38,
            "name": "D2",
            "ticks": 162720,
            "time": 211.875,
            "velocity": 0.3937007874015748
          },
          {
            "duration": 0.0625,
            "durationTicks": 48,
            "midi": 33,
            "name": "A1",
            "ticks": 162720,
            "time": 211.875,
            "velocity": 0.3937007874015748
          },
          {
            "duration": 0.0625,
            "durationTicks": 48,
            "midi": 36,
            "name": "C2",
            "ticks": 162864,
            "time": 212.0625,
            "velocity": 0.3937007874015748
          },
          {
            "duration": 0.0625,
            "durationTicks": 48,
            "midi": 33,
            "name": "A1",
            "ticks": 163008,
            "time": 212.25,
            "velocity": 0.3937007874015748
          },
          {
            "duration": 0.0625,
            "durationTicks": 48,
            "midi": 36,
            "name": "C2",
            "ticks": 163152,
            "time": 212.4375,
            "velocity": 0.3937007874015748
          },
          {
            "duration": 0.0625,
            "durationTicks": 48,
            "midi": 33,
            "name": "A1",
            "ticks": 163296,
            "time": 212.625,
            "velocity": 0.3937007874015748
          },
          {
            "duration": 0.0625,
            "durationTicks": 48,
            "midi": 38,
            "name": "D2",
            "ticks": 163296,
            "time": 212.625,
            "velocity": 0.3937007874015748
          },
          {
            "duration": 0.0625,
            "durationTicks": 48,
            "midi": 33,
            "name": "A1",
            "ticks": 163584,
            "time": 213,
            "velocity": 0.3937007874015748
          },
          {
            "duration": 0.125,
            "durationTicks": 96,
            "midi": 36,
            "name": "C2",
            "ticks": 163584,
            "time": 213,
            "velocity": 0.3937007874015748
          },
          {
            "duration": 0.0625,
            "durationTicks": 48,
            "midi": 33,
            "name": "A1",
            "ticks": 163872,
            "time": 213.375,
            "velocity": 0.3937007874015748
          },
          {
            "duration": 0.0625,
            "durationTicks": 48,
            "midi": 39,
            "name": "D#2",
            "ticks": 163872,
            "time": 213.375,
            "velocity": 0.3937007874015748
          },
          {
            "duration": 0.0625,
            "durationTicks": 48,
            "midi": 38,
            "name": "D2",
            "ticks": 163872,
            "time": 213.375,
            "velocity": 0.3937007874015748
          },
          {
            "duration": 0.0625,
            "durationTicks": 48,
            "midi": 33,
            "name": "A1",
            "ticks": 163872,
            "time": 213.375,
            "velocity": 0.3937007874015748
          },
          {
            "duration": 0.0625,
            "durationTicks": 48,
            "midi": 36,
            "name": "C2",
            "ticks": 164016,
            "time": 213.5625,
            "velocity": 0.3937007874015748
          },
          {
            "duration": 0.0625,
            "durationTicks": 48,
            "midi": 33,
            "name": "A1",
            "ticks": 164160,
            "time": 213.75,
            "velocity": 0.3937007874015748
          },
          {
            "duration": 0.0625,
            "durationTicks": 48,
            "midi": 39,
            "name": "D#2",
            "ticks": 164160,
            "time": 213.75,
            "velocity": 0.3937007874015748
          },
          {
            "duration": 0.0625,
            "durationTicks": 48,
            "midi": 33,
            "name": "A1",
            "ticks": 164160,
            "time": 213.75,
            "velocity": 0.3937007874015748
          },
          {
            "duration": 0.0625,
            "durationTicks": 48,
            "midi": 36,
            "name": "C2",
            "ticks": 164304,
            "time": 213.9375,
            "velocity": 0.3937007874015748
          },
          {
            "duration": 0.0625,
            "durationTicks": 48,
            "midi": 33,
            "name": "A1",
            "ticks": 164448,
            "time": 214.125,
            "velocity": 0.3937007874015748
          },
          {
            "duration": 0.0625,
            "durationTicks": 48,
            "midi": 33,
            "name": "A1",
            "ticks": 164448,
            "time": 214.125,
            "velocity": 0.3937007874015748
          },
          {
            "duration": 0.0625,
            "durationTicks": 48,
            "midi": 38,
            "name": "D2",
            "ticks": 164448,
            "time": 214.125,
            "velocity": 0.3937007874015748
          },
          {
            "duration": 0.0625,
            "durationTicks": 48,
            "midi": 39,
            "name": "D#2",
            "ticks": 164448,
            "time": 214.125,
            "velocity": 0.3937007874015748
          },
          {
            "duration": 0.0625,
            "durationTicks": 48,
            "midi": 33,
            "name": "A1",
            "ticks": 164736,
            "time": 214.5,
            "velocity": 0.3937007874015748
          },
          {
            "duration": 0.125,
            "durationTicks": 96,
            "midi": 36,
            "name": "C2",
            "ticks": 164736,
            "time": 214.5,
            "velocity": 0.3937007874015748
          },
          {
            "duration": 0.0625,
            "durationTicks": 48,
            "midi": 33,
            "name": "A1",
            "ticks": 165024,
            "time": 214.875,
            "velocity": 0.3937007874015748
          },
          {
            "duration": 0.0625,
            "durationTicks": 48,
            "midi": 38,
            "name": "D2",
            "ticks": 165024,
            "time": 214.875,
            "velocity": 0.3937007874015748
          },
          {
            "duration": 0.0625,
            "durationTicks": 48,
            "midi": 36,
            "name": "C2",
            "ticks": 165168,
            "time": 215.0625,
            "velocity": 0.3937007874015748
          },
          {
            "duration": 0.0625,
            "durationTicks": 48,
            "midi": 33,
            "name": "A1",
            "ticks": 165312,
            "time": 215.25,
            "velocity": 0.3937007874015748
          },
          {
            "duration": 0.0625,
            "durationTicks": 48,
            "midi": 36,
            "name": "C2",
            "ticks": 165456,
            "time": 215.4375,
            "velocity": 0.3937007874015748
          },
          {
            "duration": 0.0625,
            "durationTicks": 48,
            "midi": 38,
            "name": "D2",
            "ticks": 165600,
            "time": 215.625,
            "velocity": 0.3937007874015748
          },
          {
            "duration": 0.0625,
            "durationTicks": 48,
            "midi": 33,
            "name": "A1",
            "ticks": 165600,
            "time": 215.625,
            "velocity": 0.3937007874015748
          },
          {
            "duration": 0.125,
            "durationTicks": 96,
            "midi": 36,
            "name": "C2",
            "ticks": 165888,
            "time": 216,
            "velocity": 0.3937007874015748
          },
          {
            "duration": 0.0625,
            "durationTicks": 48,
            "midi": 33,
            "name": "A1",
            "ticks": 165888,
            "time": 216,
            "velocity": 0.3937007874015748
          },
          {
            "duration": 0.0625,
            "durationTicks": 48,
            "midi": 38,
            "name": "D2",
            "ticks": 166176,
            "time": 216.375,
            "velocity": 0.3937007874015748
          },
          {
            "duration": 0.0625,
            "durationTicks": 48,
            "midi": 33,
            "name": "A1",
            "ticks": 166176,
            "time": 216.375,
            "velocity": 0.3937007874015748
          },
          {
            "duration": 0.0625,
            "durationTicks": 48,
            "midi": 36,
            "name": "C2",
            "ticks": 166320,
            "time": 216.5625,
            "velocity": 0.3937007874015748
          },
          {
            "duration": 0.0625,
            "durationTicks": 48,
            "midi": 33,
            "name": "A1",
            "ticks": 166464,
            "time": 216.75,
            "velocity": 0.3937007874015748
          },
          {
            "duration": 0.0625,
            "durationTicks": 48,
            "midi": 36,
            "name": "C2",
            "ticks": 166608,
            "time": 216.9375,
            "velocity": 0.3937007874015748
          },
          {
            "duration": 0.0625,
            "durationTicks": 48,
            "midi": 38,
            "name": "D2",
            "ticks": 166752,
            "time": 217.125,
            "velocity": 0.3937007874015748
          },
          {
            "duration": 0.0625,
            "durationTicks": 48,
            "midi": 33,
            "name": "A1",
            "ticks": 166752,
            "time": 217.125,
            "velocity": 0.3937007874015748
          },
          {
            "duration": 0.125,
            "durationTicks": 96,
            "midi": 36,
            "name": "C2",
            "ticks": 167040,
            "time": 217.5,
            "velocity": 0.3937007874015748
          },
          {
            "duration": 0.0625,
            "durationTicks": 48,
            "midi": 33,
            "name": "A1",
            "ticks": 167040,
            "time": 217.5,
            "velocity": 0.3937007874015748
          },
          {
            "duration": 0.0625,
            "durationTicks": 48,
            "midi": 33,
            "name": "A1",
            "ticks": 167328,
            "time": 217.875,
            "velocity": 0.3937007874015748
          },
          {
            "duration": 0.0625,
            "durationTicks": 48,
            "midi": 38,
            "name": "D2",
            "ticks": 167328,
            "time": 217.875,
            "velocity": 0.3937007874015748
          },
          {
            "duration": 0.0625,
            "durationTicks": 48,
            "midi": 36,
            "name": "C2",
            "ticks": 167472,
            "time": 218.0625,
            "velocity": 0.3937007874015748
          },
          {
            "duration": 0.0625,
            "durationTicks": 48,
            "midi": 33,
            "name": "A1",
            "ticks": 167616,
            "time": 218.25,
            "velocity": 0.3937007874015748
          },
          {
            "duration": 0.0625,
            "durationTicks": 48,
            "midi": 36,
            "name": "C2",
            "ticks": 167760,
            "time": 218.4375,
            "velocity": 0.3937007874015748
          },
          {
            "duration": 0.0625,
            "durationTicks": 48,
            "midi": 38,
            "name": "D2",
            "ticks": 167904,
            "time": 218.625,
            "velocity": 0.3937007874015748
          },
          {
            "duration": 0.0625,
            "durationTicks": 48,
            "midi": 33,
            "name": "A1",
            "ticks": 167904,
            "time": 218.625,
            "velocity": 0.3937007874015748
          },
          {
            "duration": 0.0625,
            "durationTicks": 48,
            "midi": 33,
            "name": "A1",
            "ticks": 168192,
            "time": 219,
            "velocity": 0.3937007874015748
          },
          {
            "duration": 0.125,
            "durationTicks": 96,
            "midi": 36,
            "name": "C2",
            "ticks": 168192,
            "time": 219,
            "velocity": 0.3937007874015748
          },
          {
            "duration": 0.0625,
            "durationTicks": 48,
            "midi": 38,
            "name": "D2",
            "ticks": 168480,
            "time": 219.375,
            "velocity": 0.3937007874015748
          },
          {
            "duration": 0.0625,
            "durationTicks": 48,
            "midi": 33,
            "name": "A1",
            "ticks": 168480,
            "time": 219.375,
            "velocity": 0.3937007874015748
          },
          {
            "duration": 0.0625,
            "durationTicks": 48,
            "midi": 33,
            "name": "A1",
            "ticks": 168768,
            "time": 219.75,
            "velocity": 0.3937007874015748
          },
          {
            "duration": 0.125,
            "durationTicks": 96,
            "midi": 36,
            "name": "C2",
            "ticks": 168768,
            "time": 219.75,
            "velocity": 0.3937007874015748
          },
          {
            "duration": 0.0625,
            "durationTicks": 48,
            "midi": 33,
            "name": "A1",
            "ticks": 169056,
            "time": 220.125,
            "velocity": 0.3937007874015748
          },
          {
            "duration": 0.0625,
            "durationTicks": 48,
            "midi": 38,
            "name": "D2",
            "ticks": 169056,
            "time": 220.125,
            "velocity": 0.3937007874015748
          },
          {
            "duration": 0.0625,
            "durationTicks": 48,
            "midi": 36,
            "name": "C2",
            "ticks": 169200,
            "time": 220.3125,
            "velocity": 0.3937007874015748
          },
          {
            "duration": 0.0625,
            "durationTicks": 48,
            "midi": 33,
            "name": "A1",
            "ticks": 169344,
            "time": 220.5,
            "velocity": 0.3937007874015748
          },
          {
            "duration": 0.0625,
            "durationTicks": 48,
            "midi": 36,
            "name": "C2",
            "ticks": 169488,
            "time": 220.6875,
            "velocity": 0.3937007874015748
          },
          {
            "duration": 0.0625,
            "durationTicks": 48,
            "midi": 33,
            "name": "A1",
            "ticks": 169632,
            "time": 220.875,
            "velocity": 0.3937007874015748
          },
          {
            "duration": 0.0625,
            "durationTicks": 48,
            "midi": 38,
            "name": "D2",
            "ticks": 169632,
            "time": 220.875,
            "velocity": 0.3937007874015748
          },
          {
            "duration": 0.125,
            "durationTicks": 96,
            "midi": 36,
            "name": "C2",
            "ticks": 169920,
            "time": 221.25,
            "velocity": 0.3937007874015748
          },
          {
            "duration": 0.0625,
            "durationTicks": 48,
            "midi": 33,
            "name": "A1",
            "ticks": 169920,
            "time": 221.25,
            "velocity": 0.3937007874015748
          },
          {
            "duration": 0.0625,
            "durationTicks": 48,
            "midi": 38,
            "name": "D2",
            "ticks": 170208,
            "time": 221.625,
            "velocity": 0.3937007874015748
          },
          {
            "duration": 0.0625,
            "durationTicks": 48,
            "midi": 33,
            "name": "A1",
            "ticks": 170208,
            "time": 221.625,
            "velocity": 0.3937007874015748
          },
          {
            "duration": 0.0625,
            "durationTicks": 48,
            "midi": 39,
            "name": "D#2",
            "ticks": 170208,
            "time": 221.625,
            "velocity": 0.3937007874015748
          },
          {
            "duration": 0.0625,
            "durationTicks": 48,
            "midi": 36,
            "name": "C2",
            "ticks": 170352,
            "time": 221.8125,
            "velocity": 0.3937007874015748
          },
          {
            "duration": 0.0625,
            "durationTicks": 48,
            "midi": 39,
            "name": "D#2",
            "ticks": 170496,
            "time": 222,
            "velocity": 0.3937007874015748
          },
          {
            "duration": 0.0625,
            "durationTicks": 48,
            "midi": 33,
            "name": "A1",
            "ticks": 170496,
            "time": 222,
            "velocity": 0.3937007874015748
          },
          {
            "duration": 0.0625,
            "durationTicks": 48,
            "midi": 36,
            "name": "C2",
            "ticks": 170640,
            "time": 222.1875,
            "velocity": 0.3937007874015748
          },
          {
            "duration": 0.0625,
            "durationTicks": 48,
            "midi": 33,
            "name": "A1",
            "ticks": 170784,
            "time": 222.375,
            "velocity": 0.3937007874015748
          },
          {
            "duration": 0.0625,
            "durationTicks": 48,
            "midi": 39,
            "name": "D#2",
            "ticks": 170784,
            "time": 222.375,
            "velocity": 0.3937007874015748
          },
          {
            "duration": 0.0625,
            "durationTicks": 48,
            "midi": 38,
            "name": "D2",
            "ticks": 170784,
            "time": 222.375,
            "velocity": 0.3937007874015748
          },
          {
            "duration": 0.125,
            "durationTicks": 96,
            "midi": 36,
            "name": "C2",
            "ticks": 171072,
            "time": 222.75,
            "velocity": 0.3937007874015748
          },
          {
            "duration": 0.0625,
            "durationTicks": 48,
            "midi": 33,
            "name": "A1",
            "ticks": 171072,
            "time": 222.75,
            "velocity": 0.3937007874015748
          },
          {
            "duration": 0.0625,
            "durationTicks": 48,
            "midi": 33,
            "name": "A1",
            "ticks": 171360,
            "time": 223.125,
            "velocity": 0.3937007874015748
          },
          {
            "duration": 0.0625,
            "durationTicks": 48,
            "midi": 38,
            "name": "D2",
            "ticks": 171360,
            "time": 223.125,
            "velocity": 0.3937007874015748
          },
          {
            "duration": 0.0625,
            "durationTicks": 48,
            "midi": 36,
            "name": "C2",
            "ticks": 171504,
            "time": 223.3125,
            "velocity": 0.3937007874015748
          },
          {
            "duration": 0.0625,
            "durationTicks": 48,
            "midi": 33,
            "name": "A1",
            "ticks": 171648,
            "time": 223.5,
            "velocity": 0.3937007874015748
          },
          {
            "duration": 0.0625,
            "durationTicks": 48,
            "midi": 36,
            "name": "C2",
            "ticks": 171792,
            "time": 223.6875,
            "velocity": 0.3937007874015748
          },
          {
            "duration": 0.0625,
            "durationTicks": 48,
            "midi": 33,
            "name": "A1",
            "ticks": 171936,
            "time": 223.875,
            "velocity": 0.3937007874015748
          },
          {
            "duration": 0.0625,
            "durationTicks": 48,
            "midi": 38,
            "name": "D2",
            "ticks": 171936,
            "time": 223.875,
            "velocity": 0.3937007874015748
          },
          {
            "duration": 0.0625,
            "durationTicks": 48,
            "midi": 33,
            "name": "A1",
            "ticks": 172224,
            "time": 224.25,
            "velocity": 0.3937007874015748
          },
          {
            "duration": 0.125,
            "durationTicks": 96,
            "midi": 36,
            "name": "C2",
            "ticks": 172224,
            "time": 224.25,
            "velocity": 0.3937007874015748
          },
          {
            "duration": 0.0625,
            "durationTicks": 48,
            "midi": 38,
            "name": "D2",
            "ticks": 172512,
            "time": 224.625,
            "velocity": 0.3937007874015748
          },
          {
            "duration": 0.0625,
            "durationTicks": 48,
            "midi": 33,
            "name": "A1",
            "ticks": 172512,
            "time": 224.625,
            "velocity": 0.3937007874015748
          },
          {
            "duration": 0.0625,
            "durationTicks": 48,
            "midi": 36,
            "name": "C2",
            "ticks": 172656,
            "time": 224.8125,
            "velocity": 0.3937007874015748
          },
          {
            "duration": 0.0625,
            "durationTicks": 48,
            "midi": 33,
            "name": "A1",
            "ticks": 172800,
            "time": 225,
            "velocity": 0.3937007874015748
          },
          {
            "duration": 0.0625,
            "durationTicks": 48,
            "midi": 36,
            "name": "C2",
            "ticks": 172944,
            "time": 225.1875,
            "velocity": 0.3937007874015748
          },
          {
            "duration": 0.0625,
            "durationTicks": 48,
            "midi": 38,
            "name": "D2",
            "ticks": 173088,
            "time": 225.375,
            "velocity": 0.3937007874015748
          },
          {
            "duration": 0.0625,
            "durationTicks": 48,
            "midi": 33,
            "name": "A1",
            "ticks": 173088,
            "time": 225.375,
            "velocity": 0.3937007874015748
          },
          {
            "duration": 0.0625,
            "durationTicks": 48,
            "midi": 33,
            "name": "A1",
            "ticks": 173376,
            "time": 225.75,
            "velocity": 0.3937007874015748
          },
          {
            "duration": 0.125,
            "durationTicks": 96,
            "midi": 36,
            "name": "C2",
            "ticks": 173376,
            "time": 225.75,
            "velocity": 0.3937007874015748
          },
          {
            "duration": 0.0625,
            "durationTicks": 48,
            "midi": 33,
            "name": "A1",
            "ticks": 173664,
            "time": 226.125,
            "velocity": 0.3937007874015748
          },
          {
            "duration": 0.0625,
            "durationTicks": 48,
            "midi": 38,
            "name": "D2",
            "ticks": 173664,
            "time": 226.125,
            "velocity": 0.3937007874015748
          },
          {
            "duration": 0.0625,
            "durationTicks": 48,
            "midi": 36,
            "name": "C2",
            "ticks": 173808,
            "time": 226.3125,
            "velocity": 0.3937007874015748
          },
          {
            "duration": 0.0625,
            "durationTicks": 48,
            "midi": 33,
            "name": "A1",
            "ticks": 173952,
            "time": 226.5,
            "velocity": 0.3937007874015748
          },
          {
            "duration": 0.0625,
            "durationTicks": 48,
            "midi": 36,
            "name": "C2",
            "ticks": 174096,
            "time": 226.6875,
            "velocity": 0.3937007874015748
          },
          {
            "duration": 0.0625,
            "durationTicks": 48,
            "midi": 38,
            "name": "D2",
            "ticks": 174240,
            "time": 226.875,
            "velocity": 0.3937007874015748
          },
          {
            "duration": 0.0625,
            "durationTicks": 48,
            "midi": 33,
            "name": "A1",
            "ticks": 174240,
            "time": 226.875,
            "velocity": 0.3937007874015748
          },
          {
            "duration": 0.0625,
            "durationTicks": 48,
            "midi": 33,
            "name": "A1",
            "ticks": 174528,
            "time": 227.25,
            "velocity": 0.3937007874015748
          },
          {
            "duration": 0.125,
            "durationTicks": 96,
            "midi": 36,
            "name": "C2",
            "ticks": 174528,
            "time": 227.25,
            "velocity": 0.3937007874015748
          },
          {
            "duration": 0.0625,
            "durationTicks": 48,
            "midi": 33,
            "name": "A1",
            "ticks": 174816,
            "time": 227.625,
            "velocity": 0.3937007874015748
          },
          {
            "duration": 0.0625,
            "durationTicks": 48,
            "midi": 38,
            "name": "D2",
            "ticks": 174816,
            "time": 227.625,
            "velocity": 0.3937007874015748
          },
          {
            "duration": 0.0625,
            "durationTicks": 48,
            "midi": 33,
            "name": "A1",
            "ticks": 175104,
            "time": 228,
            "velocity": 0.3937007874015748
          },
          {
            "duration": 0.125,
            "durationTicks": 96,
            "midi": 36,
            "name": "C2",
            "ticks": 175104,
            "time": 228,
            "velocity": 0.3937007874015748
          },
          {
            "duration": 0.0625,
            "durationTicks": 48,
            "midi": 33,
            "name": "A1",
            "ticks": 175392,
            "time": 228.375,
            "velocity": 0.3937007874015748
          },
          {
            "duration": 0.0625,
            "durationTicks": 48,
            "midi": 38,
            "name": "D2",
            "ticks": 175392,
            "time": 228.375,
            "velocity": 0.3937007874015748
          },
          {
            "duration": 0.0625,
            "durationTicks": 48,
            "midi": 36,
            "name": "C2",
            "ticks": 175536,
            "time": 228.5625,
            "velocity": 0.3937007874015748
          },
          {
            "duration": 0.0625,
            "durationTicks": 48,
            "midi": 33,
            "name": "A1",
            "ticks": 175680,
            "time": 228.75,
            "velocity": 0.3937007874015748
          },
          {
            "duration": 0.0625,
            "durationTicks": 48,
            "midi": 36,
            "name": "C2",
            "ticks": 175824,
            "time": 228.9375,
            "velocity": 0.3937007874015748
          },
          {
            "duration": 0.0625,
            "durationTicks": 48,
            "midi": 38,
            "name": "D2",
            "ticks": 175968,
            "time": 229.125,
            "velocity": 0.3937007874015748
          },
          {
            "duration": 0.0625,
            "durationTicks": 48,
            "midi": 33,
            "name": "A1",
            "ticks": 175968,
            "time": 229.125,
            "velocity": 0.3937007874015748
          },
          {
            "duration": 0.125,
            "durationTicks": 96,
            "midi": 36,
            "name": "C2",
            "ticks": 176256,
            "time": 229.5,
            "velocity": 0.3937007874015748
          },
          {
            "duration": 0.0625,
            "durationTicks": 48,
            "midi": 33,
            "name": "A1",
            "ticks": 176256,
            "time": 229.5,
            "velocity": 0.3937007874015748
          },
          {
            "duration": 0.0625,
            "durationTicks": 48,
            "midi": 33,
            "name": "A1",
            "ticks": 176544,
            "time": 229.875,
            "velocity": 0.3937007874015748
          },
          {
            "duration": 0.0625,
            "durationTicks": 48,
            "midi": 38,
            "name": "D2",
            "ticks": 176544,
            "time": 229.875,
            "velocity": 0.3937007874015748
          },
          {
            "duration": 0.0625,
            "durationTicks": 48,
            "midi": 33,
            "name": "A1",
            "ticks": 176544,
            "time": 229.875,
            "velocity": 0.3937007874015748
          },
          {
            "duration": 0.0625,
            "durationTicks": 48,
            "midi": 36,
            "name": "C2",
            "ticks": 176688,
            "time": 230.0625,
            "velocity": 0.3937007874015748
          },
          {
            "duration": 0.0625,
            "durationTicks": 48,
            "midi": 33,
            "name": "A1",
            "ticks": 176832,
            "time": 230.25,
            "velocity": 0.3937007874015748
          },
          {
            "duration": 0.0625,
            "durationTicks": 48,
            "midi": 33,
            "name": "A1",
            "ticks": 176832,
            "time": 230.25,
            "velocity": 0.3937007874015748
          },
          {
            "duration": 0.0625,
            "durationTicks": 48,
            "midi": 36,
            "name": "C2",
            "ticks": 176976,
            "time": 230.4375,
            "velocity": 0.3937007874015748
          },
          {
            "duration": 0.0625,
            "durationTicks": 48,
            "midi": 38,
            "name": "D2",
            "ticks": 177120,
            "time": 230.625,
            "velocity": 0.3937007874015748
          },
          {
            "duration": 0.0625,
            "durationTicks": 48,
            "midi": 33,
            "name": "A1",
            "ticks": 177120,
            "time": 230.625,
            "velocity": 0.3937007874015748
          },
          {
            "duration": 0.0625,
            "durationTicks": 48,
            "midi": 33,
            "name": "A1",
            "ticks": 177120,
            "time": 230.625,
            "velocity": 0.3937007874015748
          }
        ],
        "endOfTrackTicks": 177168
      },
      {
        "channel": 8,
        "controlChanges": {},
        "pitchBends": [],
        "instrument": {
          "family": "piano",
          "number": 0,
          "name": "acoustic grand piano"
        },
        "name": "Grand Piano",
        "notes": [
          {
            "duration": 0.375,
            "durationTicks": 288,
            "midi": 64,
            "name": "E4",
            "ticks": 288,
            "time": 0.375,
            "velocity": 0.3937007874015748
          },
          {
            "duration": 0.375,
            "durationTicks": 288,
            "midi": 52,
            "name": "E3",
            "ticks": 288,
            "time": 0.375,
            "velocity": 0.3937007874015748
          },
          {
            "duration": 0.1875,
            "durationTicks": 144,
            "midi": 50,
            "name": "D3",
            "ticks": 576,
            "time": 0.75,
            "velocity": 0.3937007874015748
          },
          {
            "duration": 0.1875,
            "durationTicks": 144,
            "midi": 62,
            "name": "D4",
            "ticks": 576,
            "time": 0.75,
            "velocity": 0.3937007874015748
          },
          {
            "duration": 0.1875,
            "durationTicks": 144,
            "midi": 48,
            "name": "C3",
            "ticks": 720,
            "time": 0.9375,
            "velocity": 0.3937007874015748
          },
          {
            "duration": 0.1875,
            "durationTicks": 144,
            "midi": 60,
            "name": "C4",
            "ticks": 720,
            "time": 0.9375,
            "velocity": 0.3937007874015748
          },
          {
            "duration": 0.375,
            "durationTicks": 288,
            "midi": 47,
            "name": "B2",
            "ticks": 864,
            "time": 1.125,
            "velocity": 0.3937007874015748
          },
          {
            "duration": 0.375,
            "durationTicks": 288,
            "midi": 59,
            "name": "B3",
            "ticks": 864,
            "time": 1.125,
            "velocity": 0.3937007874015748
          },
          {
            "duration": 0.375,
            "durationTicks": 288,
            "midi": 59,
            "name": "B3",
            "ticks": 1152,
            "time": 1.5,
            "velocity": 0.3937007874015748
          },
          {
            "duration": 0.375,
            "durationTicks": 288,
            "midi": 47,
            "name": "B2",
            "ticks": 1152,
            "time": 1.5,
            "velocity": 0.3937007874015748
          },
          {
            "duration": 0.1875,
            "durationTicks": 144,
            "midi": 48,
            "name": "C3",
            "ticks": 1440,
            "time": 1.875,
            "velocity": 0.3937007874015748
          },
          {
            "duration": 0.1875,
            "durationTicks": 144,
            "midi": 60,
            "name": "C4",
            "ticks": 1440,
            "time": 1.875,
            "velocity": 0.3937007874015748
          },
          {
            "duration": 0.375,
            "durationTicks": 288,
            "midi": 59,
            "name": "B3",
            "ticks": 1584,
            "time": 2.0625,
            "velocity": 0.3937007874015748
          },
          {
            "duration": 0.375,
            "durationTicks": 288,
            "midi": 47,
            "name": "B2",
            "ticks": 1584,
            "time": 2.0625,
            "velocity": 0.3937007874015748
          },
          {
            "duration": 0.1875,
            "durationTicks": 144,
            "midi": 45,
            "name": "A2",
            "ticks": 1872,
            "time": 2.4375,
            "velocity": 0.3937007874015748
          },
          {
            "duration": 0.1875,
            "durationTicks": 144,
            "midi": 57,
            "name": "A3",
            "ticks": 1872,
            "time": 2.4375,
            "velocity": 0.3937007874015748
          },
          {
            "duration": 0.1875,
            "durationTicks": 144,
            "midi": 43,
            "name": "G2",
            "ticks": 2016,
            "time": 2.625,
            "velocity": 0.3937007874015748
          },
          {
            "duration": 0.1875,
            "durationTicks": 144,
            "midi": 55,
            "name": "G3",
            "ticks": 2016,
            "time": 2.625,
            "velocity": 0.3937007874015748
          },
          {
            "duration": 0.1875,
            "durationTicks": 144,
            "midi": 45,
            "name": "A2",
            "ticks": 2160,
            "time": 2.8125,
            "velocity": 0.3937007874015748
          },
          {
            "duration": 0.1875,
            "durationTicks": 144,
            "midi": 57,
            "name": "A3",
            "ticks": 2160,
            "time": 2.8125,
            "velocity": 0.3937007874015748
          },
          {
            "duration": 0.375,
            "durationTicks": 288,
            "midi": 47,
            "name": "B2",
            "ticks": 2304,
            "time": 3,
            "velocity": 0.3937007874015748
          },
          {
            "duration": 0.375,
            "durationTicks": 288,
            "midi": 59,
            "name": "B3",
            "ticks": 2304,
            "time": 3,
            "velocity": 0.3937007874015748
          },
          {
            "duration": 0.1875,
            "durationTicks": 144,
            "midi": 48,
            "name": "C3",
            "ticks": 2592,
            "time": 3.375,
            "velocity": 0.3937007874015748
          },
          {
            "duration": 0.1875,
            "durationTicks": 144,
            "midi": 60,
            "name": "C4",
            "ticks": 2592,
            "time": 3.375,
            "velocity": 0.3937007874015748
          },
          {
            "duration": 0.375,
            "durationTicks": 288,
            "midi": 47,
            "name": "B2",
            "ticks": 2736,
            "time": 3.5625,
            "velocity": 0.3937007874015748
          },
          {
            "duration": 0.375,
            "durationTicks": 288,
            "midi": 59,
            "name": "B3",
            "ticks": 2736,
            "time": 3.5625,
            "velocity": 0.3937007874015748
          },
          {
            "duration": 0.1875,
            "durationTicks": 144,
            "midi": 45,
            "name": "A2",
            "ticks": 3024,
            "time": 3.9375,
            "velocity": 0.3937007874015748
          },
          {
            "duration": 0.1875,
            "durationTicks": 144,
            "midi": 57,
            "name": "A3",
            "ticks": 3024,
            "time": 3.9375,
            "velocity": 0.3937007874015748
          },
          {
            "duration": 0.1875,
            "durationTicks": 144,
            "midi": 43,
            "name": "G2",
            "ticks": 3168,
            "time": 4.125,
            "velocity": 0.3937007874015748
          },
          {
            "duration": 0.1875,
            "durationTicks": 144,
            "midi": 55,
            "name": "G3",
            "ticks": 3168,
            "time": 4.125,
            "velocity": 0.3937007874015748
          },
          {
            "duration": 0.1875,
            "durationTicks": 144,
            "midi": 57,
            "name": "A3",
            "ticks": 3312,
            "time": 4.3125,
            "velocity": 0.3937007874015748
          },
          {
            "duration": 0.1875,
            "durationTicks": 144,
            "midi": 45,
            "name": "A2",
            "ticks": 3312,
            "time": 4.3125,
            "velocity": 0.3937007874015748
          },
          {
            "duration": 0.375,
            "durationTicks": 288,
            "midi": 47,
            "name": "B2",
            "ticks": 3456,
            "time": 4.5,
            "velocity": 0.3937007874015748
          },
          {
            "duration": 0.375,
            "durationTicks": 288,
            "midi": 59,
            "name": "B3",
            "ticks": 3456,
            "time": 4.5,
            "velocity": 0.3937007874015748
          },
          {
            "duration": 0.375,
            "durationTicks": 288,
            "midi": 48,
            "name": "C3",
            "ticks": 3744,
            "time": 4.875,
            "velocity": 0.3937007874015748
          },
          {
            "duration": 0.375,
            "durationTicks": 288,
            "midi": 60,
            "name": "C4",
            "ticks": 3744,
            "time": 4.875,
            "velocity": 0.3937007874015748
          },
          {
            "duration": 1.5625,
            "durationTicks": 1200,
            "midi": 59,
            "name": "B3",
            "ticks": 4032,
            "time": 5.25,
            "velocity": 0.3937007874015748
          },
          {
            "duration": 1.5625,
            "durationTicks": 1200,
            "midi": 47,
            "name": "B2",
            "ticks": 4032,
            "time": 5.25,
            "velocity": 0.3937007874015748
          },
          {
            "duration": 0.375,
            "durationTicks": 288,
            "midi": 52,
            "name": "E3",
            "ticks": 6624,
            "time": 8.625,
            "velocity": 0.3937007874015748
          },
          {
            "duration": 0.375,
            "durationTicks": 288,
            "midi": 64,
            "name": "E4",
            "ticks": 6624,
            "time": 8.625,
            "velocity": 0.3937007874015748
          },
          {
            "duration": 0.1875,
            "durationTicks": 144,
            "midi": 62,
            "name": "D4",
            "ticks": 6912,
            "time": 9,
            "velocity": 0.3937007874015748
          },
          {
            "duration": 0.1875,
            "durationTicks": 144,
            "midi": 50,
            "name": "D3",
            "ticks": 6912,
            "time": 9,
            "velocity": 0.3937007874015748
          },
          {
            "duration": 0.1875,
            "durationTicks": 144,
            "midi": 60,
            "name": "C4",
            "ticks": 7056,
            "time": 9.1875,
            "velocity": 0.3937007874015748
          },
          {
            "duration": 0.1875,
            "durationTicks": 144,
            "midi": 48,
            "name": "C3",
            "ticks": 7056,
            "time": 9.1875,
            "velocity": 0.3937007874015748
          },
          {
            "duration": 0.375,
            "durationTicks": 288,
            "midi": 47,
            "name": "B2",
            "ticks": 7200,
            "time": 9.375,
            "velocity": 0.3937007874015748
          },
          {
            "duration": 0.375,
            "durationTicks": 288,
            "midi": 59,
            "name": "B3",
            "ticks": 7200,
            "time": 9.375,
            "velocity": 0.3937007874015748
          },
          {
            "duration": 0.375,
            "durationTicks": 288,
            "midi": 59,
            "name": "B3",
            "ticks": 7488,
            "time": 9.75,
            "velocity": 0.3937007874015748
          },
          {
            "duration": 0.375,
            "durationTicks": 288,
            "midi": 47,
            "name": "B2",
            "ticks": 7488,
            "time": 9.75,
            "velocity": 0.3937007874015748
          },
          {
            "duration": 0.1875,
            "durationTicks": 144,
            "midi": 48,
            "name": "C3",
            "ticks": 7776,
            "time": 10.125,
            "velocity": 0.3937007874015748
          },
          {
            "duration": 0.1875,
            "durationTicks": 144,
            "midi": 60,
            "name": "C4",
            "ticks": 7776,
            "time": 10.125,
            "velocity": 0.3937007874015748
          },
          {
            "duration": 0.375,
            "durationTicks": 288,
            "midi": 47,
            "name": "B2",
            "ticks": 7920,
            "time": 10.3125,
            "velocity": 0.3937007874015748
          },
          {
            "duration": 0.375,
            "durationTicks": 288,
            "midi": 59,
            "name": "B3",
            "ticks": 7920,
            "time": 10.3125,
            "velocity": 0.3937007874015748
          },
          {
            "duration": 0.1875,
            "durationTicks": 144,
            "midi": 57,
            "name": "A3",
            "ticks": 8208,
            "time": 10.6875,
            "velocity": 0.3937007874015748
          },
          {
            "duration": 0.1875,
            "durationTicks": 144,
            "midi": 45,
            "name": "A2",
            "ticks": 8208,
            "time": 10.6875,
            "velocity": 0.3937007874015748
          },
          {
            "duration": 0.1875,
            "durationTicks": 144,
            "midi": 43,
            "name": "G2",
            "ticks": 8352,
            "time": 10.875,
            "velocity": 0.3937007874015748
          },
          {
            "duration": 0.1875,
            "durationTicks": 144,
            "midi": 55,
            "name": "G3",
            "ticks": 8352,
            "time": 10.875,
            "velocity": 0.3937007874015748
          },
          {
            "duration": 0.1875,
            "durationTicks": 144,
            "midi": 45,
            "name": "A2",
            "ticks": 8496,
            "time": 11.0625,
            "velocity": 0.3937007874015748
          },
          {
            "duration": 0.1875,
            "durationTicks": 144,
            "midi": 57,
            "name": "A3",
            "ticks": 8496,
            "time": 11.0625,
            "velocity": 0.3937007874015748
          },
          {
            "duration": 0.375,
            "durationTicks": 288,
            "midi": 47,
            "name": "B2",
            "ticks": 8640,
            "time": 11.25,
            "velocity": 0.3937007874015748
          },
          {
            "duration": 0.375,
            "durationTicks": 288,
            "midi": 59,
            "name": "B3",
            "ticks": 8640,
            "time": 11.25,
            "velocity": 0.3937007874015748
          },
          {
            "duration": 0.1875,
            "durationTicks": 144,
            "midi": 48,
            "name": "C3",
            "ticks": 8928,
            "time": 11.625,
            "velocity": 0.3937007874015748
          },
          {
            "duration": 0.1875,
            "durationTicks": 144,
            "midi": 60,
            "name": "C4",
            "ticks": 8928,
            "time": 11.625,
            "velocity": 0.3937007874015748
          },
          {
            "duration": 0.375,
            "durationTicks": 288,
            "midi": 59,
            "name": "B3",
            "ticks": 9072,
            "time": 11.8125,
            "velocity": 0.3937007874015748
          },
          {
            "duration": 0.375,
            "durationTicks": 288,
            "midi": 47,
            "name": "B2",
            "ticks": 9072,
            "time": 11.8125,
            "velocity": 0.3937007874015748
          },
          {
            "duration": 0.1875,
            "durationTicks": 144,
            "midi": 45,
            "name": "A2",
            "ticks": 9360,
            "time": 12.1875,
            "velocity": 0.3937007874015748
          },
          {
            "duration": 0.1875,
            "durationTicks": 144,
            "midi": 57,
            "name": "A3",
            "ticks": 9360,
            "time": 12.1875,
            "velocity": 0.3937007874015748
          },
          {
            "duration": 0.1875,
            "durationTicks": 144,
            "midi": 55,
            "name": "G3",
            "ticks": 9504,
            "time": 12.375,
            "velocity": 0.3937007874015748
          },
          {
            "duration": 0.1875,
            "durationTicks": 144,
            "midi": 43,
            "name": "G2",
            "ticks": 9504,
            "time": 12.375,
            "velocity": 0.3937007874015748
          },
          {
            "duration": 0.1875,
            "durationTicks": 144,
            "midi": 45,
            "name": "A2",
            "ticks": 9648,
            "time": 12.5625,
            "velocity": 0.3937007874015748
          },
          {
            "duration": 0.1875,
            "durationTicks": 144,
            "midi": 57,
            "name": "A3",
            "ticks": 9648,
            "time": 12.5625,
            "velocity": 0.3937007874015748
          },
          {
            "duration": 0.375,
            "durationTicks": 288,
            "midi": 59,
            "name": "B3",
            "ticks": 9792,
            "time": 12.75,
            "velocity": 0.3937007874015748
          },
          {
            "duration": 0.375,
            "durationTicks": 288,
            "midi": 47,
            "name": "B2",
            "ticks": 9792,
            "time": 12.75,
            "velocity": 0.3937007874015748
          },
          {
            "duration": 0.375,
            "durationTicks": 288,
            "midi": 60,
            "name": "C4",
            "ticks": 10080,
            "time": 13.125,
            "velocity": 0.3937007874015748
          },
          {
            "duration": 0.375,
            "durationTicks": 288,
            "midi": 48,
            "name": "C3",
            "ticks": 10080,
            "time": 13.125,
            "velocity": 0.3937007874015748
          },
          {
            "duration": 0.375,
            "durationTicks": 288,
            "midi": 48,
            "name": "C3",
            "ticks": 10080,
            "time": 13.125,
            "velocity": 0.3937007874015748
          },
          {
            "duration": 0.375,
            "durationTicks": 288,
            "midi": 60,
            "name": "C4",
            "ticks": 10080,
            "time": 13.125,
            "velocity": 0.3937007874015748
          },
          {
            "duration": 1.5625,
            "durationTicks": 1200,
            "midi": 47,
            "name": "B2",
            "ticks": 10368,
            "time": 13.5,
            "velocity": 0.3937007874015748
          },
          {
            "duration": 1.5625,
            "durationTicks": 1200,
            "midi": 59,
            "name": "B3",
            "ticks": 10368,
            "time": 13.5,
            "velocity": 0.3937007874015748
          },
          {
            "duration": 0.375,
            "durationTicks": 288,
            "midi": 52,
            "name": "E3",
            "ticks": 12960,
            "time": 16.875,
            "velocity": 0.3937007874015748
          },
          {
            "duration": 0.375,
            "durationTicks": 288,
            "midi": 64,
            "name": "E4",
            "ticks": 12960,
            "time": 16.875,
            "velocity": 0.3937007874015748
          },
          {
            "duration": 0.1875,
            "durationTicks": 144,
            "midi": 62,
            "name": "D4",
            "ticks": 13248,
            "time": 17.25,
            "velocity": 0.3937007874015748
          },
          {
            "duration": 0.1875,
            "durationTicks": 144,
            "midi": 50,
            "name": "D3",
            "ticks": 13248,
            "time": 17.25,
            "velocity": 0.3937007874015748
          },
          {
            "duration": 0.1875,
            "durationTicks": 144,
            "midi": 48,
            "name": "C3",
            "ticks": 13392,
            "time": 17.4375,
            "velocity": 0.3937007874015748
          },
          {
            "duration": 0.1875,
            "durationTicks": 144,
            "midi": 60,
            "name": "C4",
            "ticks": 13392,
            "time": 17.4375,
            "velocity": 0.3937007874015748
          },
          {
            "duration": 0.375,
            "durationTicks": 288,
            "midi": 47,
            "name": "B2",
            "ticks": 13536,
            "time": 17.625,
            "velocity": 0.3937007874015748
          },
          {
            "duration": 0.375,
            "durationTicks": 288,
            "midi": 59,
            "name": "B3",
            "ticks": 13536,
            "time": 17.625,
            "velocity": 0.3937007874015748
          },
          {
            "duration": 0.375,
            "durationTicks": 288,
            "midi": 59,
            "name": "B3",
            "ticks": 13824,
            "time": 18,
            "velocity": 0.3937007874015748
          },
          {
            "duration": 0.375,
            "durationTicks": 288,
            "midi": 47,
            "name": "B2",
            "ticks": 13824,
            "time": 18,
            "velocity": 0.3937007874015748
          },
          {
            "duration": 0.1875,
            "durationTicks": 144,
            "midi": 48,
            "name": "C3",
            "ticks": 14112,
            "time": 18.375,
            "velocity": 0.3937007874015748
          },
          {
            "duration": 0.1875,
            "durationTicks": 144,
            "midi": 60,
            "name": "C4",
            "ticks": 14112,
            "time": 18.375,
            "velocity": 0.3937007874015748
          },
          {
            "duration": 0.375,
            "durationTicks": 288,
            "midi": 59,
            "name": "B3",
            "ticks": 14256,
            "time": 18.5625,
            "velocity": 0.3937007874015748
          },
          {
            "duration": 0.375,
            "durationTicks": 288,
            "midi": 47,
            "name": "B2",
            "ticks": 14256,
            "time": 18.5625,
            "velocity": 0.3937007874015748
          },
          {
            "duration": 0.1875,
            "durationTicks": 144,
            "midi": 45,
            "name": "A2",
            "ticks": 14544,
            "time": 18.9375,
            "velocity": 0.3937007874015748
          },
          {
            "duration": 0.1875,
            "durationTicks": 144,
            "midi": 57,
            "name": "A3",
            "ticks": 14544,
            "time": 18.9375,
            "velocity": 0.3937007874015748
          },
          {
            "duration": 0.1875,
            "durationTicks": 144,
            "midi": 55,
            "name": "G3",
            "ticks": 14688,
            "time": 19.125,
            "velocity": 0.3937007874015748
          },
          {
            "duration": 0.1875,
            "durationTicks": 144,
            "midi": 43,
            "name": "G2",
            "ticks": 14688,
            "time": 19.125,
            "velocity": 0.3937007874015748
          },
          {
            "duration": 0.1875,
            "durationTicks": 144,
            "midi": 45,
            "name": "A2",
            "ticks": 14832,
            "time": 19.3125,
            "velocity": 0.3937007874015748
          },
          {
            "duration": 0.1875,
            "durationTicks": 144,
            "midi": 57,
            "name": "A3",
            "ticks": 14832,
            "time": 19.3125,
            "velocity": 0.3937007874015748
          },
          {
            "duration": 0.375,
            "durationTicks": 288,
            "midi": 47,
            "name": "B2",
            "ticks": 14976,
            "time": 19.5,
            "velocity": 0.3937007874015748
          },
          {
            "duration": 0.375,
            "durationTicks": 288,
            "midi": 59,
            "name": "B3",
            "ticks": 14976,
            "time": 19.5,
            "velocity": 0.3937007874015748
          },
          {
            "duration": 0.1875,
            "durationTicks": 144,
            "midi": 60,
            "name": "C4",
            "ticks": 15264,
            "time": 19.875,
            "velocity": 0.3937007874015748
          },
          {
            "duration": 0.1875,
            "durationTicks": 144,
            "midi": 48,
            "name": "C3",
            "ticks": 15264,
            "time": 19.875,
            "velocity": 0.3937007874015748
          },
          {
            "duration": 0.375,
            "durationTicks": 288,
            "midi": 47,
            "name": "B2",
            "ticks": 15408,
            "time": 20.0625,
            "velocity": 0.3937007874015748
          },
          {
            "duration": 0.375,
            "durationTicks": 288,
            "midi": 59,
            "name": "B3",
            "ticks": 15408,
            "time": 20.0625,
            "velocity": 0.3937007874015748
          },
          {
            "duration": 0.1875,
            "durationTicks": 144,
            "midi": 57,
            "name": "A3",
            "ticks": 15696,
            "time": 20.4375,
            "velocity": 0.3937007874015748
          },
          {
            "duration": 0.1875,
            "durationTicks": 144,
            "midi": 45,
            "name": "A2",
            "ticks": 15696,
            "time": 20.4375,
            "velocity": 0.3937007874015748
          },
          {
            "duration": 0.1875,
            "durationTicks": 144,
            "midi": 43,
            "name": "G2",
            "ticks": 15840,
            "time": 20.625,
            "velocity": 0.3937007874015748
          },
          {
            "duration": 0.1875,
            "durationTicks": 144,
            "midi": 55,
            "name": "G3",
            "ticks": 15840,
            "time": 20.625,
            "velocity": 0.3937007874015748
          },
          {
            "duration": 0.1875,
            "durationTicks": 144,
            "midi": 45,
            "name": "A2",
            "ticks": 15984,
            "time": 20.8125,
            "velocity": 0.3937007874015748
          },
          {
            "duration": 0.1875,
            "durationTicks": 144,
            "midi": 57,
            "name": "A3",
            "ticks": 15984,
            "time": 20.8125,
            "velocity": 0.3937007874015748
          },
          {
            "duration": 0.375,
            "durationTicks": 288,
            "midi": 59,
            "name": "B3",
            "ticks": 16128,
            "time": 21,
            "velocity": 0.3937007874015748
          },
          {
            "duration": 0.375,
            "durationTicks": 288,
            "midi": 47,
            "name": "B2",
            "ticks": 16128,
            "time": 21,
            "velocity": 0.3937007874015748
          },
          {
            "duration": 0.375,
            "durationTicks": 288,
            "midi": 48,
            "name": "C3",
            "ticks": 16416,
            "time": 21.375,
            "velocity": 0.3937007874015748
          },
          {
            "duration": 0.375,
            "durationTicks": 288,
            "midi": 60,
            "name": "C4",
            "ticks": 16416,
            "time": 21.375,
            "velocity": 0.3937007874015748
          },
          {
            "duration": 1.5625,
            "durationTicks": 1200,
            "midi": 59,
            "name": "B3",
            "ticks": 16704,
            "time": 21.75,
            "velocity": 0.3937007874015748
          },
          {
            "duration": 1.5625,
            "durationTicks": 1200,
            "midi": 47,
            "name": "B2",
            "ticks": 16704,
            "time": 21.75,
            "velocity": 0.3937007874015748
          },
          {
            "duration": 0.375,
            "durationTicks": 288,
            "midi": 52,
            "name": "E3",
            "ticks": 19296,
            "time": 25.125,
            "velocity": 0.3937007874015748
          },
          {
            "duration": 0.375,
            "durationTicks": 288,
            "midi": 64,
            "name": "E4",
            "ticks": 19296,
            "time": 25.125,
            "velocity": 0.3937007874015748
          },
          {
            "duration": 0.1875,
            "durationTicks": 144,
            "midi": 50,
            "name": "D3",
            "ticks": 19584,
            "time": 25.5,
            "velocity": 0.3937007874015748
          },
          {
            "duration": 0.1875,
            "durationTicks": 144,
            "midi": 62,
            "name": "D4",
            "ticks": 19584,
            "time": 25.5,
            "velocity": 0.3937007874015748
          },
          {
            "duration": 0.1875,
            "durationTicks": 144,
            "midi": 48,
            "name": "C3",
            "ticks": 19728,
            "time": 25.6875,
            "velocity": 0.3937007874015748
          },
          {
            "duration": 0.1875,
            "durationTicks": 144,
            "midi": 60,
            "name": "C4",
            "ticks": 19728,
            "time": 25.6875,
            "velocity": 0.3937007874015748
          },
          {
            "duration": 0.375,
            "durationTicks": 288,
            "midi": 47,
            "name": "B2",
            "ticks": 19872,
            "time": 25.875,
            "velocity": 0.3937007874015748
          },
          {
            "duration": 0.375,
            "durationTicks": 288,
            "midi": 59,
            "name": "B3",
            "ticks": 19872,
            "time": 25.875,
            "velocity": 0.3937007874015748
          },
          {
            "duration": 0.375,
            "durationTicks": 288,
            "midi": 47,
            "name": "B2",
            "ticks": 20160,
            "time": 26.25,
            "velocity": 0.3937007874015748
          },
          {
            "duration": 0.375,
            "durationTicks": 288,
            "midi": 59,
            "name": "B3",
            "ticks": 20160,
            "time": 26.25,
            "velocity": 0.3937007874015748
          },
          {
            "duration": 0.1875,
            "durationTicks": 144,
            "midi": 60,
            "name": "C4",
            "ticks": 20448,
            "time": 26.625,
            "velocity": 0.3937007874015748
          },
          {
            "duration": 0.1875,
            "durationTicks": 144,
            "midi": 48,
            "name": "C3",
            "ticks": 20448,
            "time": 26.625,
            "velocity": 0.3937007874015748
          },
          {
            "duration": 0.375,
            "durationTicks": 288,
            "midi": 59,
            "name": "B3",
            "ticks": 20592,
            "time": 26.8125,
            "velocity": 0.3937007874015748
          },
          {
            "duration": 0.375,
            "durationTicks": 288,
            "midi": 47,
            "name": "B2",
            "ticks": 20592,
            "time": 26.8125,
            "velocity": 0.3937007874015748
          },
          {
            "duration": 0.1875,
            "durationTicks": 144,
            "midi": 57,
            "name": "A3",
            "ticks": 20880,
            "time": 27.1875,
            "velocity": 0.3937007874015748
          },
          {
            "duration": 0.1875,
            "durationTicks": 144,
            "midi": 45,
            "name": "A2",
            "ticks": 20880,
            "time": 27.1875,
            "velocity": 0.3937007874015748
          },
          {
            "duration": 0.1875,
            "durationTicks": 144,
            "midi": 55,
            "name": "G3",
            "ticks": 21024,
            "time": 27.375,
            "velocity": 0.3937007874015748
          },
          {
            "duration": 0.1875,
            "durationTicks": 144,
            "midi": 43,
            "name": "G2",
            "ticks": 21024,
            "time": 27.375,
            "velocity": 0.3937007874015748
          },
          {
            "duration": 0.1875,
            "durationTicks": 144,
            "midi": 45,
            "name": "A2",
            "ticks": 21168,
            "time": 27.5625,
            "velocity": 0.3937007874015748
          },
          {
            "duration": 0.1875,
            "durationTicks": 144,
            "midi": 57,
            "name": "A3",
            "ticks": 21168,
            "time": 27.5625,
            "velocity": 0.3937007874015748
          },
          {
            "duration": 0.375,
            "durationTicks": 288,
            "midi": 59,
            "name": "B3",
            "ticks": 21312,
            "time": 27.75,
            "velocity": 0.3937007874015748
          },
          {
            "duration": 0.375,
            "durationTicks": 288,
            "midi": 47,
            "name": "B2",
            "ticks": 21312,
            "time": 27.75,
            "velocity": 0.3937007874015748
          },
          {
            "duration": 0.1875,
            "durationTicks": 144,
            "midi": 60,
            "name": "C4",
            "ticks": 21600,
            "time": 28.125,
            "velocity": 0.3937007874015748
          },
          {
            "duration": 0.1875,
            "durationTicks": 144,
            "midi": 48,
            "name": "C3",
            "ticks": 21600,
            "time": 28.125,
            "velocity": 0.3937007874015748
          },
          {
            "duration": 0.375,
            "durationTicks": 288,
            "midi": 59,
            "name": "B3",
            "ticks": 21744,
            "time": 28.3125,
            "velocity": 0.3937007874015748
          },
          {
            "duration": 0.375,
            "durationTicks": 288,
            "midi": 47,
            "name": "B2",
            "ticks": 21744,
            "time": 28.3125,
            "velocity": 0.3937007874015748
          },
          {
            "duration": 0.1875,
            "durationTicks": 144,
            "midi": 45,
            "name": "A2",
            "ticks": 22032,
            "time": 28.6875,
            "velocity": 0.3937007874015748
          },
          {
            "duration": 0.1875,
            "durationTicks": 144,
            "midi": 57,
            "name": "A3",
            "ticks": 22032,
            "time": 28.6875,
            "velocity": 0.3937007874015748
          },
          {
            "duration": 0.1875,
            "durationTicks": 144,
            "midi": 55,
            "name": "G3",
            "ticks": 22176,
            "time": 28.875,
            "velocity": 0.3937007874015748
          },
          {
            "duration": 0.1875,
            "durationTicks": 144,
            "midi": 43,
            "name": "G2",
            "ticks": 22176,
            "time": 28.875,
            "velocity": 0.3937007874015748
          },
          {
            "duration": 0.1875,
            "durationTicks": 144,
            "midi": 57,
            "name": "A3",
            "ticks": 22320,
            "time": 29.0625,
            "velocity": 0.3937007874015748
          },
          {
            "duration": 0.1875,
            "durationTicks": 144,
            "midi": 45,
            "name": "A2",
            "ticks": 22320,
            "time": 29.0625,
            "velocity": 0.3937007874015748
          },
          {
            "duration": 0.375,
            "durationTicks": 288,
            "midi": 59,
            "name": "B3",
            "ticks": 22464,
            "time": 29.25,
            "velocity": 0.3937007874015748
          },
          {
            "duration": 0.375,
            "durationTicks": 288,
            "midi": 47,
            "name": "B2",
            "ticks": 22464,
            "time": 29.25,
            "velocity": 0.3937007874015748
          },
          {
            "duration": 0.375,
            "durationTicks": 288,
            "midi": 48,
            "name": "C3",
            "ticks": 22752,
            "time": 29.625,
            "velocity": 0.3937007874015748
          },
          {
            "duration": 0.375,
            "durationTicks": 288,
            "midi": 60,
            "name": "C4",
            "ticks": 22752,
            "time": 29.625,
            "velocity": 0.3937007874015748
          },
          {
            "duration": 1.5625,
            "durationTicks": 1200,
            "midi": 47,
            "name": "B2",
            "ticks": 23040,
            "time": 30,
            "velocity": 0.3937007874015748
          },
          {
            "duration": 1.5625,
            "durationTicks": 1200,
            "midi": 59,
            "name": "B3",
            "ticks": 23040,
            "time": 30,
            "velocity": 0.3937007874015748
          },
          {
            "duration": 0.1875,
            "durationTicks": 144,
            "midi": 47,
            "name": "B2",
            "ticks": 50832,
            "time": 66.1875,
            "velocity": 0.3937007874015748
          },
          {
            "duration": 0.1875,
            "durationTicks": 144,
            "midi": 59,
            "name": "B3",
            "ticks": 50832,
            "time": 66.1875,
            "velocity": 0.3937007874015748
          },
          {
            "duration": 0.1875,
            "durationTicks": 144,
            "midi": 59,
            "name": "B3",
            "ticks": 50976,
            "time": 66.375,
            "velocity": 0.3937007874015748
          },
          {
            "duration": 0.1875,
            "durationTicks": 144,
            "midi": 47,
            "name": "B2",
            "ticks": 50976,
            "time": 66.375,
            "velocity": 0.3937007874015748
          },
          {
            "duration": 0.1875,
            "durationTicks": 144,
            "midi": 45,
            "name": "A2",
            "ticks": 51120,
            "time": 66.5625,
            "velocity": 0.3937007874015748
          },
          {
            "duration": 0.1875,
            "durationTicks": 144,
            "midi": 57,
            "name": "A3",
            "ticks": 51120,
            "time": 66.5625,
            "velocity": 0.3937007874015748
          },
          {
            "duration": 0.1875,
            "durationTicks": 144,
            "midi": 47,
            "name": "B2",
            "ticks": 51264,
            "time": 66.75,
            "velocity": 0.3937007874015748
          },
          {
            "duration": 0.1875,
            "durationTicks": 144,
            "midi": 59,
            "name": "B3",
            "ticks": 51264,
            "time": 66.75,
            "velocity": 0.3937007874015748
          },
          {
            "duration": 0.3125,
            "durationTicks": 240,
            "midi": 43,
            "name": "G2",
            "ticks": 51408,
            "time": 66.9375,
            "velocity": 0.3937007874015748
          },
          {
            "duration": 0.3125,
            "durationTicks": 240,
            "midi": 55,
            "name": "G3",
            "ticks": 51408,
            "time": 66.9375,
            "velocity": 0.3937007874015748
          },
          {
            "duration": 0.375,
            "durationTicks": 288,
            "midi": 48,
            "name": "C3",
            "ticks": 51696,
            "time": 67.3125,
            "velocity": 0.3937007874015748
          },
          {
            "duration": 0.375,
            "durationTicks": 288,
            "midi": 60,
            "name": "C4",
            "ticks": 51696,
            "time": 67.3125,
            "velocity": 0.3937007874015748
          },
          {
            "duration": 0.1875,
            "durationTicks": 144,
            "midi": 59,
            "name": "B3",
            "ticks": 51984,
            "time": 67.6875,
            "velocity": 0.3937007874015748
          },
          {
            "duration": 0.1875,
            "durationTicks": 144,
            "midi": 47,
            "name": "B2",
            "ticks": 51984,
            "time": 67.6875,
            "velocity": 0.3937007874015748
          },
          {
            "duration": 0.1875,
            "durationTicks": 144,
            "midi": 48,
            "name": "C3",
            "ticks": 52128,
            "time": 67.875,
            "velocity": 0.3937007874015748
          },
          {
            "duration": 0.1875,
            "durationTicks": 144,
            "midi": 60,
            "name": "C4",
            "ticks": 52128,
            "time": 67.875,
            "velocity": 0.3937007874015748
          },
          {
            "duration": 0.1875,
            "durationTicks": 144,
            "midi": 47,
            "name": "B2",
            "ticks": 52272,
            "time": 68.0625,
            "velocity": 0.3937007874015748
          },
          {
            "duration": 0.1875,
            "durationTicks": 144,
            "midi": 59,
            "name": "B3",
            "ticks": 52272,
            "time": 68.0625,
            "velocity": 0.3937007874015748
          },
          {
            "duration": 0.1875,
            "durationTicks": 144,
            "midi": 48,
            "name": "C3",
            "ticks": 52416,
            "time": 68.25,
            "velocity": 0.3937007874015748
          },
          {
            "duration": 0.1875,
            "durationTicks": 144,
            "midi": 60,
            "name": "C4",
            "ticks": 52416,
            "time": 68.25,
            "velocity": 0.3937007874015748
          },
          {
            "duration": 0.1875,
            "durationTicks": 144,
            "midi": 47,
            "name": "B2",
            "ticks": 52560,
            "time": 68.4375,
            "velocity": 0.3937007874015748
          },
          {
            "duration": 0.1875,
            "durationTicks": 144,
            "midi": 59,
            "name": "B3",
            "ticks": 52560,
            "time": 68.4375,
            "velocity": 0.3937007874015748
          },
          {
            "duration": 0.1875,
            "durationTicks": 144,
            "midi": 47,
            "name": "B2",
            "ticks": 52848,
            "time": 68.8125,
            "velocity": 0.3937007874015748
          },
          {
            "duration": 0.1875,
            "durationTicks": 144,
            "midi": 59,
            "name": "B3",
            "ticks": 52848,
            "time": 68.8125,
            "velocity": 0.3937007874015748
          },
          {
            "duration": 0.1875,
            "durationTicks": 144,
            "midi": 48,
            "name": "C3",
            "ticks": 52992,
            "time": 69,
            "velocity": 0.3937007874015748
          },
          {
            "duration": 0.1875,
            "durationTicks": 144,
            "midi": 60,
            "name": "C4",
            "ticks": 52992,
            "time": 69,
            "velocity": 0.3937007874015748
          },
          {
            "duration": 0.1875,
            "durationTicks": 144,
            "midi": 47,
            "name": "B2",
            "ticks": 53136,
            "time": 69.1875,
            "velocity": 0.3937007874015748
          },
          {
            "duration": 0.1875,
            "durationTicks": 144,
            "midi": 59,
            "name": "B3",
            "ticks": 53136,
            "time": 69.1875,
            "velocity": 0.3937007874015748
          },
          {
            "duration": 0.1875,
            "durationTicks": 144,
            "midi": 60,
            "name": "C4",
            "ticks": 53280,
            "time": 69.375,
            "velocity": 0.3937007874015748
          },
          {
            "duration": 0.1875,
            "durationTicks": 144,
            "midi": 48,
            "name": "C3",
            "ticks": 53280,
            "time": 69.375,
            "velocity": 0.3937007874015748
          },
          {
            "duration": 0.1875,
            "durationTicks": 144,
            "midi": 59,
            "name": "B3",
            "ticks": 53424,
            "time": 69.5625,
            "velocity": 0.3937007874015748
          },
          {
            "duration": 0.1875,
            "durationTicks": 144,
            "midi": 47,
            "name": "B2",
            "ticks": 53424,
            "time": 69.5625,
            "velocity": 0.3937007874015748
          },
          {
            "duration": 0.1875,
            "durationTicks": 144,
            "midi": 48,
            "name": "C3",
            "ticks": 53568,
            "time": 69.75,
            "velocity": 0.3937007874015748
          },
          {
            "duration": 0.1875,
            "durationTicks": 144,
            "midi": 60,
            "name": "C4",
            "ticks": 53568,
            "time": 69.75,
            "velocity": 0.3937007874015748
          },
          {
            "duration": 0.1875,
            "durationTicks": 144,
            "midi": 59,
            "name": "B3",
            "ticks": 53712,
            "time": 69.9375,
            "velocity": 0.3937007874015748
          },
          {
            "duration": 0.1875,
            "durationTicks": 144,
            "midi": 47,
            "name": "B2",
            "ticks": 53712,
            "time": 69.9375,
            "velocity": 0.3937007874015748
          },
          {
            "duration": 0.1875,
            "durationTicks": 144,
            "midi": 48,
            "name": "C3",
            "ticks": 53856,
            "time": 70.125,
            "velocity": 0.3937007874015748
          },
          {
            "duration": 0.1875,
            "durationTicks": 144,
            "midi": 60,
            "name": "C4",
            "ticks": 53856,
            "time": 70.125,
            "velocity": 0.3937007874015748
          },
          {
            "duration": 0.1875,
            "durationTicks": 144,
            "midi": 47,
            "name": "B2",
            "ticks": 54000,
            "time": 70.3125,
            "velocity": 0.3937007874015748
          },
          {
            "duration": 0.1875,
            "durationTicks": 144,
            "midi": 59,
            "name": "B3",
            "ticks": 54000,
            "time": 70.3125,
            "velocity": 0.3937007874015748
          },
          {
            "duration": 0.1875,
            "durationTicks": 144,
            "midi": 62,
            "name": "D4",
            "ticks": 54144,
            "time": 70.5,
            "velocity": 0.3937007874015748
          },
          {
            "duration": 0.1875,
            "durationTicks": 144,
            "midi": 50,
            "name": "D3",
            "ticks": 54144,
            "time": 70.5,
            "velocity": 0.3937007874015748
          },
          {
            "duration": 0.1875,
            "durationTicks": 144,
            "midi": 47,
            "name": "B2",
            "ticks": 54288,
            "time": 70.6875,
            "velocity": 0.3937007874015748
          },
          {
            "duration": 0.1875,
            "durationTicks": 144,
            "midi": 59,
            "name": "B3",
            "ticks": 54288,
            "time": 70.6875,
            "velocity": 0.3937007874015748
          },
          {
            "duration": 0.375,
            "durationTicks": 288,
            "midi": 59,
            "name": "B3",
            "ticks": 54432,
            "time": 70.875,
            "velocity": 0.3937007874015748
          },
          {
            "duration": 0.375,
            "durationTicks": 288,
            "midi": 47,
            "name": "B2",
            "ticks": 54432,
            "time": 70.875,
            "velocity": 0.3937007874015748
          },
          {
            "duration": 0.375,
            "durationTicks": 288,
            "midi": 59,
            "name": "B3",
            "ticks": 54720,
            "time": 71.25,
            "velocity": 0.3937007874015748
          },
          {
            "duration": 0.375,
            "durationTicks": 288,
            "midi": 47,
            "name": "B2",
            "ticks": 54720,
            "time": 71.25,
            "velocity": 0.3937007874015748
          },
          {
            "duration": 0.1875,
            "durationTicks": 144,
            "midi": 62,
            "name": "D4",
            "ticks": 55008,
            "time": 71.625,
            "velocity": 0.3937007874015748
          },
          {
            "duration": 0.1875,
            "durationTicks": 144,
            "midi": 50,
            "name": "D3",
            "ticks": 55008,
            "time": 71.625,
            "velocity": 0.3937007874015748
          },
          {
            "duration": 0.5625,
            "durationTicks": 432,
            "midi": 59,
            "name": "B3",
            "ticks": 55152,
            "time": 71.8125,
            "velocity": 0.3937007874015748
          },
          {
            "duration": 0.5625,
            "durationTicks": 432,
            "midi": 47,
            "name": "B2",
            "ticks": 55152,
            "time": 71.8125,
            "velocity": 0.3937007874015748
          },
          {
            "duration": 0.1875,
            "durationTicks": 144,
            "midi": 50,
            "name": "D3",
            "ticks": 55584,
            "time": 72.375,
            "velocity": 0.3937007874015748
          },
          {
            "duration": 0.1875,
            "durationTicks": 144,
            "midi": 62,
            "name": "D4",
            "ticks": 55584,
            "time": 72.375,
            "velocity": 0.3937007874015748
          },
          {
            "duration": 0.5625,
            "durationTicks": 432,
            "midi": 47,
            "name": "B2",
            "ticks": 55728,
            "time": 72.5625,
            "velocity": 0.3937007874015748
          },
          {
            "duration": 0.5625,
            "durationTicks": 432,
            "midi": 59,
            "name": "B3",
            "ticks": 55728,
            "time": 72.5625,
            "velocity": 0.3937007874015748
          },
          {
            "duration": 0.1875,
            "durationTicks": 144,
            "midi": 62,
            "name": "D4",
            "ticks": 56160,
            "time": 73.125,
            "velocity": 0.3937007874015748
          },
          {
            "duration": 0.1875,
            "durationTicks": 144,
            "midi": 50,
            "name": "D3",
            "ticks": 56160,
            "time": 73.125,
            "velocity": 0.3937007874015748
          },
          {
            "duration": 0.375,
            "durationTicks": 288,
            "midi": 47,
            "name": "B2",
            "ticks": 56304,
            "time": 73.3125,
            "velocity": 0.3937007874015748
          },
          {
            "duration": 0.375,
            "durationTicks": 288,
            "midi": 59,
            "name": "B3",
            "ticks": 56304,
            "time": 73.3125,
            "velocity": 0.3937007874015748
          },
          {
            "duration": 0.1875,
            "durationTicks": 144,
            "midi": 62,
            "name": "D4",
            "ticks": 56592,
            "time": 73.6875,
            "velocity": 0.3937007874015748
          },
          {
            "duration": 0.1875,
            "durationTicks": 144,
            "midi": 50,
            "name": "D3",
            "ticks": 56592,
            "time": 73.6875,
            "velocity": 0.3937007874015748
          },
          {
            "duration": 0.1875,
            "durationTicks": 144,
            "midi": 59,
            "name": "B3",
            "ticks": 56736,
            "time": 73.875,
            "velocity": 0.3937007874015748
          },
          {
            "duration": 0.1875,
            "durationTicks": 144,
            "midi": 47,
            "name": "B2",
            "ticks": 56736,
            "time": 73.875,
            "velocity": 0.3937007874015748
          },
          {
            "duration": 0.1875,
            "durationTicks": 144,
            "midi": 50,
            "name": "D3",
            "ticks": 56880,
            "time": 74.0625,
            "velocity": 0.3937007874015748
          },
          {
            "duration": 0.1875,
            "durationTicks": 144,
            "midi": 62,
            "name": "D4",
            "ticks": 56880,
            "time": 74.0625,
            "velocity": 0.3937007874015748
          },
          {
            "duration": 0.1875,
            "durationTicks": 144,
            "midi": 47,
            "name": "B2",
            "ticks": 57168,
            "time": 74.4375,
            "velocity": 0.3937007874015748
          },
          {
            "duration": 0.1875,
            "durationTicks": 144,
            "midi": 59,
            "name": "B3",
            "ticks": 57168,
            "time": 74.4375,
            "velocity": 0.3937007874015748
          },
          {
            "duration": 0.1875,
            "durationTicks": 144,
            "midi": 47,
            "name": "B2",
            "ticks": 57312,
            "time": 74.625,
            "velocity": 0.3937007874015748
          },
          {
            "duration": 0.1875,
            "durationTicks": 144,
            "midi": 59,
            "name": "B3",
            "ticks": 57312,
            "time": 74.625,
            "velocity": 0.3937007874015748
          },
          {
            "duration": 0.1875,
            "durationTicks": 144,
            "midi": 58,
            "name": "A#3",
            "ticks": 57456,
            "time": 74.8125,
            "velocity": 0.3937007874015748
          },
          {
            "duration": 0.1875,
            "durationTicks": 144,
            "midi": 46,
            "name": "A#2",
            "ticks": 57456,
            "time": 74.8125,
            "velocity": 0.3937007874015748
          },
          {
            "duration": 0.1875,
            "durationTicks": 144,
            "midi": 59,
            "name": "B3",
            "ticks": 57600,
            "time": 75,
            "velocity": 0.3937007874015748
          },
          {
            "duration": 0.1875,
            "durationTicks": 144,
            "midi": 47,
            "name": "B2",
            "ticks": 57600,
            "time": 75,
            "velocity": 0.3937007874015748
          },
          {
            "duration": 0.3125,
            "durationTicks": 240,
            "midi": 55,
            "name": "G3",
            "ticks": 57744,
            "time": 75.1875,
            "velocity": 0.3937007874015748
          },
          {
            "duration": 0.3125,
            "durationTicks": 240,
            "midi": 43,
            "name": "G2",
            "ticks": 57744,
            "time": 75.1875,
            "velocity": 0.3937007874015748
          },
          {
            "duration": 0.375,
            "durationTicks": 288,
            "midi": 60,
            "name": "C4",
            "ticks": 58032,
            "time": 75.5625,
            "velocity": 0.3937007874015748
          },
          {
            "duration": 0.375,
            "durationTicks": 288,
            "midi": 48,
            "name": "C3",
            "ticks": 58032,
            "time": 75.5625,
            "velocity": 0.3937007874015748
          },
          {
            "duration": 0.1875,
            "durationTicks": 144,
            "midi": 59,
            "name": "B3",
            "ticks": 58320,
            "time": 75.9375,
            "velocity": 0.3937007874015748
          },
          {
            "duration": 0.1875,
            "durationTicks": 144,
            "midi": 47,
            "name": "B2",
            "ticks": 58320,
            "time": 75.9375,
            "velocity": 0.3937007874015748
          },
          {
            "duration": 0.1875,
            "durationTicks": 144,
            "midi": 60,
            "name": "C4",
            "ticks": 58464,
            "time": 76.125,
            "velocity": 0.3937007874015748
          },
          {
            "duration": 0.1875,
            "durationTicks": 144,
            "midi": 48,
            "name": "C3",
            "ticks": 58464,
            "time": 76.125,
            "velocity": 0.3937007874015748
          },
          {
            "duration": 0.1875,
            "durationTicks": 144,
            "midi": 59,
            "name": "B3",
            "ticks": 58608,
            "time": 76.3125,
            "velocity": 0.3937007874015748
          },
          {
            "duration": 0.1875,
            "durationTicks": 144,
            "midi": 47,
            "name": "B2",
            "ticks": 58608,
            "time": 76.3125,
            "velocity": 0.3937007874015748
          },
          {
            "duration": 0.1875,
            "durationTicks": 144,
            "midi": 48,
            "name": "C3",
            "ticks": 58752,
            "time": 76.5,
            "velocity": 0.3937007874015748
          },
          {
            "duration": 0.1875,
            "durationTicks": 144,
            "midi": 60,
            "name": "C4",
            "ticks": 58752,
            "time": 76.5,
            "velocity": 0.3937007874015748
          },
          {
            "duration": 0.1875,
            "durationTicks": 144,
            "midi": 48,
            "name": "C3",
            "ticks": 58896,
            "time": 76.6875,
            "velocity": 0.3937007874015748
          },
          {
            "duration": 0.1875,
            "durationTicks": 144,
            "midi": 60,
            "name": "C4",
            "ticks": 58896,
            "time": 76.6875,
            "velocity": 0.3937007874015748
          },
          {
            "duration": 0.1875,
            "durationTicks": 144,
            "midi": 47,
            "name": "B2",
            "ticks": 59184,
            "time": 77.0625,
            "velocity": 0.3937007874015748
          },
          {
            "duration": 0.1875,
            "durationTicks": 144,
            "midi": 59,
            "name": "B3",
            "ticks": 59184,
            "time": 77.0625,
            "velocity": 0.3937007874015748
          },
          {
            "duration": 0.1875,
            "durationTicks": 144,
            "midi": 48,
            "name": "C3",
            "ticks": 59328,
            "time": 77.25,
            "velocity": 0.3937007874015748
          },
          {
            "duration": 0.1875,
            "durationTicks": 144,
            "midi": 60,
            "name": "C4",
            "ticks": 59328,
            "time": 77.25,
            "velocity": 0.3937007874015748
          },
          {
            "duration": 0.1875,
            "durationTicks": 144,
            "midi": 47,
            "name": "B2",
            "ticks": 59472,
            "time": 77.4375,
            "velocity": 0.3937007874015748
          },
          {
            "duration": 0.1875,
            "durationTicks": 144,
            "midi": 59,
            "name": "B3",
            "ticks": 59472,
            "time": 77.4375,
            "velocity": 0.3937007874015748
          },
          {
            "duration": 0.1875,
            "durationTicks": 144,
            "midi": 48,
            "name": "C3",
            "ticks": 59616,
            "time": 77.625,
            "velocity": 0.3937007874015748
          },
          {
            "duration": 0.1875,
            "durationTicks": 144,
            "midi": 60,
            "name": "C4",
            "ticks": 59616,
            "time": 77.625,
            "velocity": 0.3937007874015748
          },
          {
            "duration": 0.1875,
            "durationTicks": 144,
            "midi": 59,
            "name": "B3",
            "ticks": 59760,
            "time": 77.8125,
            "velocity": 0.3937007874015748
          },
          {
            "duration": 0.1875,
            "durationTicks": 144,
            "midi": 47,
            "name": "B2",
            "ticks": 59760,
            "time": 77.8125,
            "velocity": 0.3937007874015748
          },
          {
            "duration": 0.1875,
            "durationTicks": 144,
            "midi": 48,
            "name": "C3",
            "ticks": 59904,
            "time": 78,
            "velocity": 0.3937007874015748
          },
          {
            "duration": 0.1875,
            "durationTicks": 144,
            "midi": 60,
            "name": "C4",
            "ticks": 59904,
            "time": 78,
            "velocity": 0.3937007874015748
          },
          {
            "duration": 0.1875,
            "durationTicks": 144,
            "midi": 47,
            "name": "B2",
            "ticks": 60048,
            "time": 78.1875,
            "velocity": 0.3937007874015748
          },
          {
            "duration": 0.1875,
            "durationTicks": 144,
            "midi": 59,
            "name": "B3",
            "ticks": 60048,
            "time": 78.1875,
            "velocity": 0.3937007874015748
          },
          {
            "duration": 0.1875,
            "durationTicks": 144,
            "midi": 60,
            "name": "C4",
            "ticks": 60192,
            "time": 78.375,
            "velocity": 0.3937007874015748
          },
          {
            "duration": 0.1875,
            "durationTicks": 144,
            "midi": 48,
            "name": "C3",
            "ticks": 60192,
            "time": 78.375,
            "velocity": 0.3937007874015748
          },
          {
            "duration": 0.1875,
            "durationTicks": 144,
            "midi": 47,
            "name": "B2",
            "ticks": 60336,
            "time": 78.5625,
            "velocity": 0.3937007874015748
          },
          {
            "duration": 0.1875,
            "durationTicks": 144,
            "midi": 59,
            "name": "B3",
            "ticks": 60336,
            "time": 78.5625,
            "velocity": 0.3937007874015748
          },
          {
            "duration": 0.1875,
            "durationTicks": 144,
            "midi": 62,
            "name": "D4",
            "ticks": 60480,
            "time": 78.75,
            "velocity": 0.3937007874015748
          },
          {
            "duration": 0.1875,
            "durationTicks": 144,
            "midi": 50,
            "name": "D3",
            "ticks": 60480,
            "time": 78.75,
            "velocity": 0.3937007874015748
          },
          {
            "duration": 0.1875,
            "durationTicks": 144,
            "midi": 47,
            "name": "B2",
            "ticks": 60624,
            "time": 78.9375,
            "velocity": 0.3937007874015748
          },
          {
            "duration": 0.1875,
            "durationTicks": 144,
            "midi": 59,
            "name": "B3",
            "ticks": 60624,
            "time": 78.9375,
            "velocity": 0.3937007874015748
          },
          {
            "duration": 0.375,
            "durationTicks": 288,
            "midi": 47,
            "name": "B2",
            "ticks": 60768,
            "time": 79.125,
            "velocity": 0.3937007874015748
          },
          {
            "duration": 0.375,
            "durationTicks": 288,
            "midi": 59,
            "name": "B3",
            "ticks": 60768,
            "time": 79.125,
            "velocity": 0.3937007874015748
          },
          {
            "duration": 0.375,
            "durationTicks": 288,
            "midi": 59,
            "name": "B3",
            "ticks": 61056,
            "time": 79.5,
            "velocity": 0.3937007874015748
          },
          {
            "duration": 0.375,
            "durationTicks": 288,
            "midi": 47,
            "name": "B2",
            "ticks": 61056,
            "time": 79.5,
            "velocity": 0.3937007874015748
          },
          {
            "duration": 0.1875,
            "durationTicks": 144,
            "midi": 62,
            "name": "D4",
            "ticks": 61344,
            "time": 79.875,
            "velocity": 0.3937007874015748
          },
          {
            "duration": 0.1875,
            "durationTicks": 144,
            "midi": 50,
            "name": "D3",
            "ticks": 61344,
            "time": 79.875,
            "velocity": 0.3937007874015748
          },
          {
            "duration": 0.5625,
            "durationTicks": 432,
            "midi": 59,
            "name": "B3",
            "ticks": 61488,
            "time": 80.0625,
            "velocity": 0.3937007874015748
          },
          {
            "duration": 0.5625,
            "durationTicks": 432,
            "midi": 47,
            "name": "B2",
            "ticks": 61488,
            "time": 80.0625,
            "velocity": 0.3937007874015748
          },
          {
            "duration": 0.1875,
            "durationTicks": 144,
            "midi": 62,
            "name": "D4",
            "ticks": 61920,
            "time": 80.625,
            "velocity": 0.3937007874015748
          },
          {
            "duration": 0.1875,
            "durationTicks": 144,
            "midi": 50,
            "name": "D3",
            "ticks": 61920,
            "time": 80.625,
            "velocity": 0.3937007874015748
          },
          {
            "duration": 0.5625,
            "durationTicks": 432,
            "midi": 59,
            "name": "B3",
            "ticks": 62064,
            "time": 80.8125,
            "velocity": 0.3937007874015748
          },
          {
            "duration": 0.5625,
            "durationTicks": 432,
            "midi": 47,
            "name": "B2",
            "ticks": 62064,
            "time": 80.8125,
            "velocity": 0.3937007874015748
          },
          {
            "duration": 0.1875,
            "durationTicks": 144,
            "midi": 62,
            "name": "D4",
            "ticks": 62496,
            "time": 81.375,
            "velocity": 0.3937007874015748
          },
          {
            "duration": 0.1875,
            "durationTicks": 144,
            "midi": 50,
            "name": "D3",
            "ticks": 62496,
            "time": 81.375,
            "velocity": 0.3937007874015748
          },
          {
            "duration": 0.375,
            "durationTicks": 288,
            "midi": 47,
            "name": "B2",
            "ticks": 62640,
            "time": 81.5625,
            "velocity": 0.3937007874015748
          },
          {
            "duration": 0.375,
            "durationTicks": 288,
            "midi": 59,
            "name": "B3",
            "ticks": 62640,
            "time": 81.5625,
            "velocity": 0.3937007874015748
          },
          {
            "duration": 0.1875,
            "durationTicks": 144,
            "midi": 50,
            "name": "D3",
            "ticks": 62928,
            "time": 81.9375,
            "velocity": 0.3937007874015748
          },
          {
            "duration": 0.1875,
            "durationTicks": 144,
            "midi": 62,
            "name": "D4",
            "ticks": 62928,
            "time": 81.9375,
            "velocity": 0.3937007874015748
          },
          {
            "duration": 0.1875,
            "durationTicks": 144,
            "midi": 59,
            "name": "B3",
            "ticks": 63072,
            "time": 82.125,
            "velocity": 0.3937007874015748
          },
          {
            "duration": 0.1875,
            "durationTicks": 144,
            "midi": 47,
            "name": "B2",
            "ticks": 63072,
            "time": 82.125,
            "velocity": 0.3937007874015748
          },
          {
            "duration": 0.1875,
            "durationTicks": 144,
            "midi": 50,
            "name": "D3",
            "ticks": 63216,
            "time": 82.3125,
            "velocity": 0.3937007874015748
          },
          {
            "duration": 0.1875,
            "durationTicks": 144,
            "midi": 62,
            "name": "D4",
            "ticks": 63216,
            "time": 82.3125,
            "velocity": 0.3937007874015748
          },
          {
            "duration": 0.1875,
            "durationTicks": 144,
            "midi": 59,
            "name": "B3",
            "ticks": 63504,
            "time": 82.6875,
            "velocity": 0.3937007874015748
          },
          {
            "duration": 0.1875,
            "durationTicks": 144,
            "midi": 47,
            "name": "B2",
            "ticks": 63504,
            "time": 82.6875,
            "velocity": 0.3937007874015748
          },
          {
            "duration": 0.1875,
            "durationTicks": 144,
            "midi": 59,
            "name": "B3",
            "ticks": 63648,
            "time": 82.875,
            "velocity": 0.3937007874015748
          },
          {
            "duration": 0.1875,
            "durationTicks": 144,
            "midi": 47,
            "name": "B2",
            "ticks": 63648,
            "time": 82.875,
            "velocity": 0.3937007874015748
          },
          {
            "duration": 0.1875,
            "durationTicks": 144,
            "midi": 46,
            "name": "A#2",
            "ticks": 63792,
            "time": 83.0625,
            "velocity": 0.3937007874015748
          },
          {
            "duration": 0.1875,
            "durationTicks": 144,
            "midi": 58,
            "name": "A#3",
            "ticks": 63792,
            "time": 83.0625,
            "velocity": 0.3937007874015748
          },
          {
            "duration": 0.1875,
            "durationTicks": 144,
            "midi": 47,
            "name": "B2",
            "ticks": 63936,
            "time": 83.25,
            "velocity": 0.3937007874015748
          },
          {
            "duration": 0.1875,
            "durationTicks": 144,
            "midi": 59,
            "name": "B3",
            "ticks": 63936,
            "time": 83.25,
            "velocity": 0.3937007874015748
          },
          {
            "duration": 0.1875,
            "durationTicks": 144,
            "midi": 55,
            "name": "G3",
            "ticks": 64080,
            "time": 83.4375,
            "velocity": 0.3937007874015748
          },
          {
            "duration": 0.1875,
            "durationTicks": 144,
            "midi": 43,
            "name": "G2",
            "ticks": 64080,
            "time": 83.4375,
            "velocity": 0.3937007874015748
          },
          {
            "duration": 0.125,
            "durationTicks": 96,
            "midi": 47,
            "name": "B2",
            "ticks": 65520,
            "time": 85.3125,
            "velocity": 0.3937007874015748
          },
          {
            "duration": 0.125,
            "durationTicks": 96,
            "midi": 59,
            "name": "B3",
            "ticks": 65520,
            "time": 85.3125,
            "velocity": 0.3937007874015748
          },
          {
            "duration": 0.125,
            "durationTicks": 96,
            "midi": 48,
            "name": "C3",
            "ticks": 65664,
            "time": 85.5,
            "velocity": 0.3937007874015748
          },
          {
            "duration": 0.125,
            "durationTicks": 96,
            "midi": 60,
            "name": "C4",
            "ticks": 65664,
            "time": 85.5,
            "velocity": 0.3937007874015748
          },
          {
            "duration": 0.125,
            "durationTicks": 96,
            "midi": 47,
            "name": "B2",
            "ticks": 65808,
            "time": 85.6875,
            "velocity": 0.3937007874015748
          },
          {
            "duration": 0.125,
            "durationTicks": 96,
            "midi": 59,
            "name": "B3",
            "ticks": 65808,
            "time": 85.6875,
            "velocity": 0.3937007874015748
          },
          {
            "duration": 0.125,
            "durationTicks": 96,
            "midi": 59,
            "name": "B3",
            "ticks": 66096,
            "time": 86.0625,
            "velocity": 0.3937007874015748
          },
          {
            "duration": 0.125,
            "durationTicks": 96,
            "midi": 47,
            "name": "B2",
            "ticks": 66096,
            "time": 86.0625,
            "velocity": 0.3937007874015748
          },
          {
            "duration": 0.125,
            "durationTicks": 96,
            "midi": 48,
            "name": "C3",
            "ticks": 66240,
            "time": 86.25,
            "velocity": 0.3937007874015748
          },
          {
            "duration": 0.125,
            "durationTicks": 96,
            "midi": 60,
            "name": "C4",
            "ticks": 66240,
            "time": 86.25,
            "velocity": 0.3937007874015748
          },
          {
            "duration": 0.125,
            "durationTicks": 96,
            "midi": 47,
            "name": "B2",
            "ticks": 66384,
            "time": 86.4375,
            "velocity": 0.3937007874015748
          },
          {
            "duration": 0.125,
            "durationTicks": 96,
            "midi": 59,
            "name": "B3",
            "ticks": 66384,
            "time": 86.4375,
            "velocity": 0.3937007874015748
          },
          {
            "duration": 0.125,
            "durationTicks": 96,
            "midi": 59,
            "name": "B3",
            "ticks": 66672,
            "time": 86.8125,
            "velocity": 0.3937007874015748
          },
          {
            "duration": 0.125,
            "durationTicks": 96,
            "midi": 47,
            "name": "B2",
            "ticks": 66672,
            "time": 86.8125,
            "velocity": 0.3937007874015748
          },
          {
            "duration": 0.125,
            "durationTicks": 96,
            "midi": 50,
            "name": "D3",
            "ticks": 66816,
            "time": 87,
            "velocity": 0.3937007874015748
          },
          {
            "duration": 0.125,
            "durationTicks": 96,
            "midi": 62,
            "name": "D4",
            "ticks": 66816,
            "time": 87,
            "velocity": 0.3937007874015748
          },
          {
            "duration": 0.125,
            "durationTicks": 96,
            "midi": 47,
            "name": "B2",
            "ticks": 66960,
            "time": 87.1875,
            "velocity": 0.3937007874015748
          },
          {
            "duration": 0.125,
            "durationTicks": 96,
            "midi": 59,
            "name": "B3",
            "ticks": 66960,
            "time": 87.1875,
            "velocity": 0.3937007874015748
          },
          {
            "duration": 0.125,
            "durationTicks": 96,
            "midi": 47,
            "name": "B2",
            "ticks": 67248,
            "time": 87.5625,
            "velocity": 0.3937007874015748
          },
          {
            "duration": 0.125,
            "durationTicks": 96,
            "midi": 59,
            "name": "B3",
            "ticks": 67248,
            "time": 87.5625,
            "velocity": 0.3937007874015748
          },
          {
            "duration": 0.125,
            "durationTicks": 96,
            "midi": 50,
            "name": "D3",
            "ticks": 67392,
            "time": 87.75,
            "velocity": 0.3937007874015748
          },
          {
            "duration": 0.125,
            "durationTicks": 96,
            "midi": 62,
            "name": "D4",
            "ticks": 67392,
            "time": 87.75,
            "velocity": 0.3937007874015748
          },
          {
            "duration": 0.125,
            "durationTicks": 96,
            "midi": 47,
            "name": "B2",
            "ticks": 67536,
            "time": 87.9375,
            "velocity": 0.3937007874015748
          },
          {
            "duration": 0.125,
            "durationTicks": 96,
            "midi": 59,
            "name": "B3",
            "ticks": 67536,
            "time": 87.9375,
            "velocity": 0.3937007874015748
          },
          {
            "duration": 0.125,
            "durationTicks": 96,
            "midi": 71,
            "name": "B4",
            "ticks": 67680,
            "time": 88.125,
            "velocity": 0.3937007874015748
          },
          {
            "duration": 0.125,
            "durationTicks": 96,
            "midi": 59,
            "name": "B3",
            "ticks": 67680,
            "time": 88.125,
            "velocity": 0.3937007874015748
          },
          {
            "duration": 0.125,
            "durationTicks": 96,
            "midi": 69,
            "name": "A4",
            "ticks": 67824,
            "time": 88.3125,
            "velocity": 0.3937007874015748
          },
          {
            "duration": 0.125,
            "durationTicks": 96,
            "midi": 59,
            "name": "B3",
            "ticks": 67824,
            "time": 88.3125,
            "velocity": 0.3937007874015748
          },
          {
            "duration": 0.125,
            "durationTicks": 96,
            "midi": 47,
            "name": "B2",
            "ticks": 67824,
            "time": 88.3125,
            "velocity": 0.3937007874015748
          },
          {
            "duration": 0.125,
            "durationTicks": 96,
            "midi": 57,
            "name": "A3",
            "ticks": 67824,
            "time": 88.3125,
            "velocity": 0.3937007874015748
          },
          {
            "duration": 0.125,
            "durationTicks": 96,
            "midi": 62,
            "name": "D4",
            "ticks": 67968,
            "time": 88.5,
            "velocity": 0.3937007874015748
          },
          {
            "duration": 0.125,
            "durationTicks": 96,
            "midi": 50,
            "name": "D3",
            "ticks": 67968,
            "time": 88.5,
            "velocity": 0.3937007874015748
          },
          {
            "duration": 0.125,
            "durationTicks": 96,
            "midi": 59,
            "name": "B3",
            "ticks": 68112,
            "time": 88.6875,
            "velocity": 0.3937007874015748
          },
          {
            "duration": 0.125,
            "durationTicks": 96,
            "midi": 59,
            "name": "B3",
            "ticks": 68112,
            "time": 88.6875,
            "velocity": 0.3937007874015748
          },
          {
            "duration": 0.125,
            "durationTicks": 96,
            "midi": 71,
            "name": "B4",
            "ticks": 68112,
            "time": 88.6875,
            "velocity": 0.3937007874015748
          },
          {
            "duration": 0.125,
            "durationTicks": 96,
            "midi": 47,
            "name": "B2",
            "ticks": 68112,
            "time": 88.6875,
            "velocity": 0.3937007874015748
          },
          {
            "duration": 0.125,
            "durationTicks": 96,
            "midi": 57,
            "name": "A3",
            "ticks": 68256,
            "time": 88.875,
            "velocity": 0.3937007874015748
          },
          {
            "duration": 0.125,
            "durationTicks": 96,
            "midi": 69,
            "name": "A4",
            "ticks": 68256,
            "time": 88.875,
            "velocity": 0.3937007874015748
          },
          {
            "duration": 0.1875,
            "durationTicks": 144,
            "midi": 59,
            "name": "B3",
            "ticks": 69840,
            "time": 90.9375,
            "velocity": 0.3937007874015748
          },
          {
            "duration": 0.1875,
            "durationTicks": 144,
            "midi": 47,
            "name": "B2",
            "ticks": 69840,
            "time": 90.9375,
            "velocity": 0.3937007874015748
          },
          {
            "duration": 0.0625,
            "durationTicks": 48,
            "midi": 59,
            "name": "B3",
            "ticks": 69984,
            "time": 91.125,
            "velocity": 0.3937007874015748
          },
          {
            "duration": 0.1875,
            "durationTicks": 144,
            "midi": 59,
            "name": "B3",
            "ticks": 69984,
            "time": 91.125,
            "velocity": 0.3937007874015748
          },
          {
            "duration": 0.0625,
            "durationTicks": 48,
            "midi": 47,
            "name": "B2",
            "ticks": 69984,
            "time": 91.125,
            "velocity": 0.3937007874015748
          },
          {
            "duration": 0.1875,
            "durationTicks": 144,
            "midi": 47,
            "name": "B2",
            "ticks": 69984,
            "time": 91.125,
            "velocity": 0.3937007874015748
          },
          {
            "duration": 0.1875,
            "durationTicks": 144,
            "midi": 55,
            "name": "G3",
            "ticks": 70128,
            "time": 91.3125,
            "velocity": 0.3937007874015748
          },
          {
            "duration": 0.1875,
            "durationTicks": 144,
            "midi": 43,
            "name": "G2",
            "ticks": 70128,
            "time": 91.3125,
            "velocity": 0.3937007874015748
          },
          {
            "duration": 0.1875,
            "durationTicks": 144,
            "midi": 59,
            "name": "B3",
            "ticks": 70272,
            "time": 91.5,
            "velocity": 0.3937007874015748
          },
          {
            "duration": 0.1875,
            "durationTicks": 144,
            "midi": 47,
            "name": "B2",
            "ticks": 70272,
            "time": 91.5,
            "velocity": 0.3937007874015748
          },
          {
            "duration": 0.375,
            "durationTicks": 288,
            "midi": 60,
            "name": "C4",
            "ticks": 70704,
            "time": 92.0625,
            "velocity": 0.3937007874015748
          },
          {
            "duration": 0.375,
            "durationTicks": 288,
            "midi": 48,
            "name": "C3",
            "ticks": 70704,
            "time": 92.0625,
            "velocity": 0.3937007874015748
          },
          {
            "duration": 0.1875,
            "durationTicks": 144,
            "midi": 47,
            "name": "B2",
            "ticks": 70992,
            "time": 92.4375,
            "velocity": 0.3937007874015748
          },
          {
            "duration": 0.1875,
            "durationTicks": 144,
            "midi": 59,
            "name": "B3",
            "ticks": 70992,
            "time": 92.4375,
            "velocity": 0.3937007874015748
          },
          {
            "duration": 0.0625,
            "durationTicks": 48,
            "midi": 60,
            "name": "C4",
            "ticks": 71136,
            "time": 92.625,
            "velocity": 0.3937007874015748
          },
          {
            "duration": 0.0625,
            "durationTicks": 48,
            "midi": 48,
            "name": "C3",
            "ticks": 71136,
            "time": 92.625,
            "velocity": 0.3937007874015748
          },
          {
            "duration": 0.1875,
            "durationTicks": 144,
            "midi": 60,
            "name": "C4",
            "ticks": 71136,
            "time": 92.625,
            "velocity": 0.3937007874015748
          },
          {
            "duration": 0.1875,
            "durationTicks": 144,
            "midi": 48,
            "name": "C3",
            "ticks": 71136,
            "time": 92.625,
            "velocity": 0.3937007874015748
          },
          {
            "duration": 0.1875,
            "durationTicks": 144,
            "midi": 47,
            "name": "B2",
            "ticks": 71280,
            "time": 92.8125,
            "velocity": 0.3937007874015748
          },
          {
            "duration": 0.1875,
            "durationTicks": 144,
            "midi": 59,
            "name": "B3",
            "ticks": 71280,
            "time": 92.8125,
            "velocity": 0.3937007874015748
          },
          {
            "duration": 0.1875,
            "durationTicks": 144,
            "midi": 48,
            "name": "C3",
            "ticks": 71424,
            "time": 93,
            "velocity": 0.3937007874015748
          },
          {
            "duration": 0.1875,
            "durationTicks": 144,
            "midi": 60,
            "name": "C4",
            "ticks": 71424,
            "time": 93,
            "velocity": 0.3937007874015748
          },
          {
            "duration": 0.1875,
            "durationTicks": 144,
            "midi": 47,
            "name": "B2",
            "ticks": 71568,
            "time": 93.1875,
            "velocity": 0.3937007874015748
          },
          {
            "duration": 0.1875,
            "durationTicks": 144,
            "midi": 59,
            "name": "B3",
            "ticks": 71568,
            "time": 93.1875,
            "velocity": 0.3937007874015748
          },
          {
            "duration": 0.1875,
            "durationTicks": 144,
            "midi": 59,
            "name": "B3",
            "ticks": 71856,
            "time": 93.5625,
            "velocity": 0.3937007874015748
          },
          {
            "duration": 0.1875,
            "durationTicks": 144,
            "midi": 47,
            "name": "B2",
            "ticks": 71856,
            "time": 93.5625,
            "velocity": 0.3937007874015748
          },
          {
            "duration": 0.0625,
            "durationTicks": 48,
            "midi": 48,
            "name": "C3",
            "ticks": 72000,
            "time": 93.75,
            "velocity": 0.3937007874015748
          },
          {
            "duration": 0.0625,
            "durationTicks": 48,
            "midi": 60,
            "name": "C4",
            "ticks": 72000,
            "time": 93.75,
            "velocity": 0.3937007874015748
          },
          {
            "duration": 0.1875,
            "durationTicks": 144,
            "midi": 60,
            "name": "C4",
            "ticks": 72000,
            "time": 93.75,
            "velocity": 0.3937007874015748
          },
          {
            "duration": 0.1875,
            "durationTicks": 144,
            "midi": 48,
            "name": "C3",
            "ticks": 72000,
            "time": 93.75,
            "velocity": 0.3937007874015748
          },
          {
            "duration": 0.1875,
            "durationTicks": 144,
            "midi": 47,
            "name": "B2",
            "ticks": 72144,
            "time": 93.9375,
            "velocity": 0.3937007874015748
          },
          {
            "duration": 0.1875,
            "durationTicks": 144,
            "midi": 59,
            "name": "B3",
            "ticks": 72144,
            "time": 93.9375,
            "velocity": 0.3937007874015748
          },
          {
            "duration": 0.0625,
            "durationTicks": 48,
            "midi": 48,
            "name": "C3",
            "ticks": 72288,
            "time": 94.125,
            "velocity": 0.3937007874015748
          },
          {
            "duration": 0.0625,
            "durationTicks": 48,
            "midi": 60,
            "name": "C4",
            "ticks": 72288,
            "time": 94.125,
            "velocity": 0.3937007874015748
          },
          {
            "duration": 0.1875,
            "durationTicks": 144,
            "midi": 48,
            "name": "C3",
            "ticks": 72288,
            "time": 94.125,
            "velocity": 0.3937007874015748
          },
          {
            "duration": 0.1875,
            "durationTicks": 144,
            "midi": 60,
            "name": "C4",
            "ticks": 72288,
            "time": 94.125,
            "velocity": 0.3937007874015748
          },
          {
            "duration": 0.1875,
            "durationTicks": 144,
            "midi": 59,
            "name": "B3",
            "ticks": 72432,
            "time": 94.3125,
            "velocity": 0.3937007874015748
          },
          {
            "duration": 0.1875,
            "durationTicks": 144,
            "midi": 47,
            "name": "B2",
            "ticks": 72432,
            "time": 94.3125,
            "velocity": 0.3937007874015748
          },
          {
            "duration": 0.1875,
            "durationTicks": 144,
            "midi": 60,
            "name": "C4",
            "ticks": 72576,
            "time": 94.5,
            "velocity": 0.3937007874015748
          },
          {
            "duration": 0.1875,
            "durationTicks": 144,
            "midi": 48,
            "name": "C3",
            "ticks": 72576,
            "time": 94.5,
            "velocity": 0.3937007874015748
          },
          {
            "duration": 0.1875,
            "durationTicks": 144,
            "midi": 47,
            "name": "B2",
            "ticks": 72720,
            "time": 94.6875,
            "velocity": 0.3937007874015748
          },
          {
            "duration": 0.1875,
            "durationTicks": 144,
            "midi": 59,
            "name": "B3",
            "ticks": 72720,
            "time": 94.6875,
            "velocity": 0.3937007874015748
          },
          {
            "duration": 0.0625,
            "durationTicks": 48,
            "midi": 60,
            "name": "C4",
            "ticks": 72864,
            "time": 94.875,
            "velocity": 0.3937007874015748
          },
          {
            "duration": 0.0625,
            "durationTicks": 48,
            "midi": 48,
            "name": "C3",
            "ticks": 72864,
            "time": 94.875,
            "velocity": 0.3937007874015748
          },
          {
            "duration": 0.1875,
            "durationTicks": 144,
            "midi": 60,
            "name": "C4",
            "ticks": 72864,
            "time": 94.875,
            "velocity": 0.3937007874015748
          },
          {
            "duration": 0.1875,
            "durationTicks": 144,
            "midi": 48,
            "name": "C3",
            "ticks": 72864,
            "time": 94.875,
            "velocity": 0.3937007874015748
          },
          {
            "duration": 0.1875,
            "durationTicks": 144,
            "midi": 59,
            "name": "B3",
            "ticks": 73008,
            "time": 95.0625,
            "velocity": 0.3937007874015748
          },
          {
            "duration": 0.1875,
            "durationTicks": 144,
            "midi": 47,
            "name": "B2",
            "ticks": 73008,
            "time": 95.0625,
            "velocity": 0.3937007874015748
          },
          {
            "duration": 0.0625,
            "durationTicks": 48,
            "midi": 62,
            "name": "D4",
            "ticks": 73152,
            "time": 95.25,
            "velocity": 0.3937007874015748
          },
          {
            "duration": 0.0625,
            "durationTicks": 48,
            "midi": 50,
            "name": "D3",
            "ticks": 73152,
            "time": 95.25,
            "velocity": 0.3937007874015748
          },
          {
            "duration": 0.1875,
            "durationTicks": 144,
            "midi": 50,
            "name": "D3",
            "ticks": 73152,
            "time": 95.25,
            "velocity": 0.3937007874015748
          },
          {
            "duration": 0.1875,
            "durationTicks": 144,
            "midi": 62,
            "name": "D4",
            "ticks": 73152,
            "time": 95.25,
            "velocity": 0.3937007874015748
          },
          {
            "duration": 0.125,
            "durationTicks": 96,
            "midi": 47,
            "name": "B2",
            "ticks": 73296,
            "time": 95.4375,
            "velocity": 0.3937007874015748
          },
          {
            "duration": 0.125,
            "durationTicks": 96,
            "midi": 59,
            "name": "B3",
            "ticks": 73296,
            "time": 95.4375,
            "velocity": 0.3937007874015748
          },
          {
            "duration": 0.3125,
            "durationTicks": 240,
            "midi": 47,
            "name": "B2",
            "ticks": 73440,
            "time": 95.625,
            "velocity": 0.3937007874015748
          },
          {
            "duration": 0.3125,
            "durationTicks": 240,
            "midi": 59,
            "name": "B3",
            "ticks": 73440,
            "time": 95.625,
            "velocity": 0.3937007874015748
          },
          {
            "duration": 0.1875,
            "durationTicks": 144,
            "midi": 59,
            "name": "B3",
            "ticks": 73728,
            "time": 96,
            "velocity": 0.3937007874015748
          },
          {
            "duration": 0.1875,
            "durationTicks": 144,
            "midi": 47,
            "name": "B2",
            "ticks": 73728,
            "time": 96,
            "velocity": 0.3937007874015748
          },
          {
            "duration": 0.46875,
            "durationTicks": 360,
            "midi": 47,
            "name": "B2",
            "ticks": 73872,
            "time": 96.1875,
            "velocity": 0.3937007874015748
          },
          {
            "duration": 0.46875,
            "durationTicks": 360,
            "midi": 59,
            "name": "B3",
            "ticks": 73872,
            "time": 96.1875,
            "velocity": 0.3937007874015748
          },
          {
            "duration": 0.46875,
            "durationTicks": 360,
            "midi": 40,
            "name": "E2",
            "ticks": 74232,
            "time": 96.65625,
            "velocity": 0.3937007874015748
          },
          {
            "duration": 0.46875,
            "durationTicks": 360,
            "midi": 52,
            "name": "E3",
            "ticks": 74232,
            "time": 96.65625,
            "velocity": 0.3937007874015748
          },
          {
            "duration": 0.125,
            "durationTicks": 96,
            "midi": 64,
            "name": "E4",
            "ticks": 76752,
            "time": 99.9375,
            "velocity": 0.3937007874015748
          },
          {
            "duration": 0.125,
            "durationTicks": 96,
            "midi": 52,
            "name": "E3",
            "ticks": 76752,
            "time": 99.9375,
            "velocity": 0.3937007874015748
          },
          {
            "duration": 0.125,
            "durationTicks": 96,
            "midi": 50,
            "name": "D3",
            "ticks": 77040,
            "time": 100.3125,
            "velocity": 0.3937007874015748
          },
          {
            "duration": 0.125,
            "durationTicks": 96,
            "midi": 62,
            "name": "D4",
            "ticks": 77040,
            "time": 100.3125,
            "velocity": 0.3937007874015748
          },
          {
            "duration": 0.125,
            "durationTicks": 96,
            "midi": 52,
            "name": "E3",
            "ticks": 80784,
            "time": 105.1875,
            "velocity": 0.3937007874015748
          },
          {
            "duration": 0.125,
            "durationTicks": 96,
            "midi": 64,
            "name": "E4",
            "ticks": 80784,
            "time": 105.1875,
            "velocity": 0.3937007874015748
          },
          {
            "duration": 0.125,
            "durationTicks": 96,
            "midi": 50,
            "name": "D3",
            "ticks": 81072,
            "time": 105.5625,
            "velocity": 0.3937007874015748
          },
          {
            "duration": 0.125,
            "durationTicks": 96,
            "midi": 62,
            "name": "D4",
            "ticks": 81072,
            "time": 105.5625,
            "velocity": 0.3937007874015748
          },
          {
            "duration": 0.125,
            "durationTicks": 96,
            "midi": 59,
            "name": "B3",
            "ticks": 81648,
            "time": 106.3125,
            "velocity": 0.3937007874015748
          },
          {
            "duration": 0.125,
            "durationTicks": 96,
            "midi": 47,
            "name": "B2",
            "ticks": 81648,
            "time": 106.3125,
            "velocity": 0.3937007874015748
          },
          {
            "duration": 0.125,
            "durationTicks": 96,
            "midi": 59,
            "name": "B3",
            "ticks": 81792,
            "time": 106.5,
            "velocity": 0.3937007874015748
          },
          {
            "duration": 0.125,
            "durationTicks": 96,
            "midi": 47,
            "name": "B2",
            "ticks": 81792,
            "time": 106.5,
            "velocity": 0.3937007874015748
          },
          {
            "duration": 0.125,
            "durationTicks": 96,
            "midi": 59,
            "name": "B3",
            "ticks": 81936,
            "time": 106.6875,
            "velocity": 0.3937007874015748
          },
          {
            "duration": 0.125,
            "durationTicks": 96,
            "midi": 47,
            "name": "B2",
            "ticks": 81936,
            "time": 106.6875,
            "velocity": 0.3937007874015748
          },
          {
            "duration": 0.125,
            "durationTicks": 96,
            "midi": 59,
            "name": "B3",
            "ticks": 82080,
            "time": 106.875,
            "velocity": 0.3937007874015748
          },
          {
            "duration": 0.125,
            "durationTicks": 96,
            "midi": 47,
            "name": "B2",
            "ticks": 82080,
            "time": 106.875,
            "velocity": 0.3937007874015748
          },
          {
            "duration": 0.125,
            "durationTicks": 96,
            "midi": 59,
            "name": "B3",
            "ticks": 82224,
            "time": 107.0625,
            "velocity": 0.3937007874015748
          },
          {
            "duration": 0.125,
            "durationTicks": 96,
            "midi": 47,
            "name": "B2",
            "ticks": 82224,
            "time": 107.0625,
            "velocity": 0.3937007874015748
          },
          {
            "duration": 0.125,
            "durationTicks": 96,
            "midi": 62,
            "name": "D4",
            "ticks": 82368,
            "time": 107.25,
            "velocity": 0.3937007874015748
          },
          {
            "duration": 0.125,
            "durationTicks": 96,
            "midi": 50,
            "name": "D3",
            "ticks": 82368,
            "time": 107.25,
            "velocity": 0.3937007874015748
          },
          {
            "duration": 0.125,
            "durationTicks": 96,
            "midi": 47,
            "name": "B2",
            "ticks": 82512,
            "time": 107.4375,
            "velocity": 0.3937007874015748
          },
          {
            "duration": 0.125,
            "durationTicks": 96,
            "midi": 59,
            "name": "B3",
            "ticks": 82512,
            "time": 107.4375,
            "velocity": 0.3937007874015748
          },
          {
            "duration": 0.125,
            "durationTicks": 96,
            "midi": 64,
            "name": "E4",
            "ticks": 83088,
            "time": 108.1875,
            "velocity": 0.3937007874015748
          },
          {
            "duration": 0.125,
            "durationTicks": 96,
            "midi": 52,
            "name": "E3",
            "ticks": 83088,
            "time": 108.1875,
            "velocity": 0.3937007874015748
          },
          {
            "duration": 0.125,
            "durationTicks": 96,
            "midi": 50,
            "name": "D3",
            "ticks": 83376,
            "time": 108.5625,
            "velocity": 0.3937007874015748
          },
          {
            "duration": 0.125,
            "durationTicks": 96,
            "midi": 62,
            "name": "D4",
            "ticks": 83376,
            "time": 108.5625,
            "velocity": 0.3937007874015748
          },
          {
            "duration": 0.125,
            "durationTicks": 96,
            "midi": 47,
            "name": "B2",
            "ticks": 83952,
            "time": 109.3125,
            "velocity": 0.3937007874015748
          },
          {
            "duration": 0.125,
            "durationTicks": 96,
            "midi": 59,
            "name": "B3",
            "ticks": 83952,
            "time": 109.3125,
            "velocity": 0.3937007874015748
          },
          {
            "duration": 0.125,
            "durationTicks": 96,
            "midi": 59,
            "name": "B3",
            "ticks": 84096,
            "time": 109.5,
            "velocity": 0.3937007874015748
          },
          {
            "duration": 0.125,
            "durationTicks": 96,
            "midi": 47,
            "name": "B2",
            "ticks": 84096,
            "time": 109.5,
            "velocity": 0.3937007874015748
          },
          {
            "duration": 0.125,
            "durationTicks": 96,
            "midi": 59,
            "name": "B3",
            "ticks": 84240,
            "time": 109.6875,
            "velocity": 0.3937007874015748
          },
          {
            "duration": 0.125,
            "durationTicks": 96,
            "midi": 47,
            "name": "B2",
            "ticks": 84240,
            "time": 109.6875,
            "velocity": 0.3937007874015748
          },
          {
            "duration": 0.125,
            "durationTicks": 96,
            "midi": 59,
            "name": "B3",
            "ticks": 84384,
            "time": 109.875,
            "velocity": 0.3937007874015748
          },
          {
            "duration": 0.125,
            "durationTicks": 96,
            "midi": 47,
            "name": "B2",
            "ticks": 84384,
            "time": 109.875,
            "velocity": 0.3937007874015748
          },
          {
            "duration": 0.125,
            "durationTicks": 96,
            "midi": 47,
            "name": "B2",
            "ticks": 84528,
            "time": 110.0625,
            "velocity": 0.3937007874015748
          },
          {
            "duration": 0.125,
            "durationTicks": 96,
            "midi": 59,
            "name": "B3",
            "ticks": 84528,
            "time": 110.0625,
            "velocity": 0.3937007874015748
          },
          {
            "duration": 0.125,
            "durationTicks": 96,
            "midi": 62,
            "name": "D4",
            "ticks": 84672,
            "time": 110.25,
            "velocity": 0.3937007874015748
          },
          {
            "duration": 0.125,
            "durationTicks": 96,
            "midi": 50,
            "name": "D3",
            "ticks": 84672,
            "time": 110.25,
            "velocity": 0.3937007874015748
          },
          {
            "duration": 0.125,
            "durationTicks": 96,
            "midi": 59,
            "name": "B3",
            "ticks": 84816,
            "time": 110.4375,
            "velocity": 0.3937007874015748
          },
          {
            "duration": 0.125,
            "durationTicks": 96,
            "midi": 47,
            "name": "B2",
            "ticks": 84816,
            "time": 110.4375,
            "velocity": 0.3937007874015748
          },
          {
            "duration": 0.125,
            "durationTicks": 96,
            "midi": 52,
            "name": "E3",
            "ticks": 85392,
            "time": 111.1875,
            "velocity": 0.3937007874015748
          },
          {
            "duration": 0.125,
            "durationTicks": 96,
            "midi": 64,
            "name": "E4",
            "ticks": 85392,
            "time": 111.1875,
            "velocity": 0.3937007874015748
          },
          {
            "duration": 0.125,
            "durationTicks": 96,
            "midi": 62,
            "name": "D4",
            "ticks": 85680,
            "time": 111.5625,
            "velocity": 0.3937007874015748
          },
          {
            "duration": 0.125,
            "durationTicks": 96,
            "midi": 50,
            "name": "D3",
            "ticks": 85680,
            "time": 111.5625,
            "velocity": 0.3937007874015748
          },
          {
            "duration": 0.125,
            "durationTicks": 96,
            "midi": 64,
            "name": "E4",
            "ticks": 87120,
            "time": 113.4375,
            "velocity": 0.3937007874015748
          },
          {
            "duration": 0.125,
            "durationTicks": 96,
            "midi": 52,
            "name": "E3",
            "ticks": 87120,
            "time": 113.4375,
            "velocity": 0.3937007874015748
          },
          {
            "duration": 0.125,
            "durationTicks": 96,
            "midi": 62,
            "name": "D4",
            "ticks": 87408,
            "time": 113.8125,
            "velocity": 0.3937007874015748
          },
          {
            "duration": 0.125,
            "durationTicks": 96,
            "midi": 50,
            "name": "D3",
            "ticks": 87408,
            "time": 113.8125,
            "velocity": 0.3937007874015748
          },
          {
            "duration": 0.125,
            "durationTicks": 96,
            "midi": 59,
            "name": "B3",
            "ticks": 87840,
            "time": 114.375,
            "velocity": 0.3937007874015748
          },
          {
            "duration": 0.125,
            "durationTicks": 96,
            "midi": 47,
            "name": "B2",
            "ticks": 87840,
            "time": 114.375,
            "velocity": 0.3937007874015748
          },
          {
            "duration": 0.125,
            "durationTicks": 96,
            "midi": 59,
            "name": "B3",
            "ticks": 87984,
            "time": 114.5625,
            "velocity": 0.3937007874015748
          },
          {
            "duration": 0.125,
            "durationTicks": 96,
            "midi": 47,
            "name": "B2",
            "ticks": 87984,
            "time": 114.5625,
            "velocity": 0.3937007874015748
          },
          {
            "duration": 0.125,
            "durationTicks": 96,
            "midi": 59,
            "name": "B3",
            "ticks": 88128,
            "time": 114.75,
            "velocity": 0.3937007874015748
          },
          {
            "duration": 0.125,
            "durationTicks": 96,
            "midi": 47,
            "name": "B2",
            "ticks": 88128,
            "time": 114.75,
            "velocity": 0.3937007874015748
          },
          {
            "duration": 0.125,
            "durationTicks": 96,
            "midi": 59,
            "name": "B3",
            "ticks": 88272,
            "time": 114.9375,
            "velocity": 0.3937007874015748
          },
          {
            "duration": 0.125,
            "durationTicks": 96,
            "midi": 47,
            "name": "B2",
            "ticks": 88272,
            "time": 114.9375,
            "velocity": 0.3937007874015748
          },
          {
            "duration": 0.125,
            "durationTicks": 96,
            "midi": 47,
            "name": "B2",
            "ticks": 88416,
            "time": 115.125,
            "velocity": 0.3937007874015748
          },
          {
            "duration": 0.125,
            "durationTicks": 96,
            "midi": 59,
            "name": "B3",
            "ticks": 88416,
            "time": 115.125,
            "velocity": 0.3937007874015748
          },
          {
            "duration": 0.125,
            "durationTicks": 96,
            "midi": 59,
            "name": "B3",
            "ticks": 88560,
            "time": 115.3125,
            "velocity": 0.3937007874015748
          },
          {
            "duration": 0.125,
            "durationTicks": 96,
            "midi": 47,
            "name": "B2",
            "ticks": 88560,
            "time": 115.3125,
            "velocity": 0.3937007874015748
          },
          {
            "duration": 0.125,
            "durationTicks": 96,
            "midi": 62,
            "name": "D4",
            "ticks": 88704,
            "time": 115.5,
            "velocity": 0.3937007874015748
          },
          {
            "duration": 0.125,
            "durationTicks": 96,
            "midi": 50,
            "name": "D3",
            "ticks": 88704,
            "time": 115.5,
            "velocity": 0.3937007874015748
          },
          {
            "duration": 0.125,
            "durationTicks": 96,
            "midi": 59,
            "name": "B3",
            "ticks": 88848,
            "time": 115.6875,
            "velocity": 0.3937007874015748
          },
          {
            "duration": 0.125,
            "durationTicks": 96,
            "midi": 47,
            "name": "B2",
            "ticks": 88848,
            "time": 115.6875,
            "velocity": 0.3937007874015748
          },
          {
            "duration": 0.125,
            "durationTicks": 96,
            "midi": 52,
            "name": "E3",
            "ticks": 89424,
            "time": 116.4375,
            "velocity": 0.3937007874015748
          },
          {
            "duration": 0.125,
            "durationTicks": 96,
            "midi": 64,
            "name": "E4",
            "ticks": 89424,
            "time": 116.4375,
            "velocity": 0.3937007874015748
          },
          {
            "duration": 0.125,
            "durationTicks": 96,
            "midi": 50,
            "name": "D3",
            "ticks": 89712,
            "time": 116.8125,
            "velocity": 0.3937007874015748
          },
          {
            "duration": 0.125,
            "durationTicks": 96,
            "midi": 62,
            "name": "D4",
            "ticks": 89712,
            "time": 116.8125,
            "velocity": 0.3937007874015748
          },
          {
            "duration": 0.125,
            "durationTicks": 96,
            "midi": 47,
            "name": "B2",
            "ticks": 90288,
            "time": 117.5625,
            "velocity": 0.3937007874015748
          },
          {
            "duration": 0.125,
            "durationTicks": 96,
            "midi": 59,
            "name": "B3",
            "ticks": 90288,
            "time": 117.5625,
            "velocity": 0.3937007874015748
          },
          {
            "duration": 0.125,
            "durationTicks": 96,
            "midi": 47,
            "name": "B2",
            "ticks": 90432,
            "time": 117.75,
            "velocity": 0.3937007874015748
          },
          {
            "duration": 0.125,
            "durationTicks": 96,
            "midi": 59,
            "name": "B3",
            "ticks": 90432,
            "time": 117.75,
            "velocity": 0.3937007874015748
          },
          {
            "duration": 0.125,
            "durationTicks": 96,
            "midi": 47,
            "name": "B2",
            "ticks": 90576,
            "time": 117.9375,
            "velocity": 0.3937007874015748
          },
          {
            "duration": 0.125,
            "durationTicks": 96,
            "midi": 59,
            "name": "B3",
            "ticks": 90576,
            "time": 117.9375,
            "velocity": 0.3937007874015748
          },
          {
            "duration": 0.125,
            "durationTicks": 96,
            "midi": 59,
            "name": "B3",
            "ticks": 90720,
            "time": 118.125,
            "velocity": 0.3937007874015748
          },
          {
            "duration": 0.125,
            "durationTicks": 96,
            "midi": 47,
            "name": "B2",
            "ticks": 90720,
            "time": 118.125,
            "velocity": 0.3937007874015748
          },
          {
            "duration": 0.125,
            "durationTicks": 96,
            "midi": 59,
            "name": "B3",
            "ticks": 90864,
            "time": 118.3125,
            "velocity": 0.3937007874015748
          },
          {
            "duration": 0.125,
            "durationTicks": 96,
            "midi": 47,
            "name": "B2",
            "ticks": 90864,
            "time": 118.3125,
            "velocity": 0.3937007874015748
          },
          {
            "duration": 0.125,
            "durationTicks": 96,
            "midi": 50,
            "name": "D3",
            "ticks": 91008,
            "time": 118.5,
            "velocity": 0.3937007874015748
          },
          {
            "duration": 0.125,
            "durationTicks": 96,
            "midi": 62,
            "name": "D4",
            "ticks": 91008,
            "time": 118.5,
            "velocity": 0.3937007874015748
          },
          {
            "duration": 0.125,
            "durationTicks": 96,
            "midi": 47,
            "name": "B2",
            "ticks": 91152,
            "time": 118.6875,
            "velocity": 0.3937007874015748
          },
          {
            "duration": 0.125,
            "durationTicks": 96,
            "midi": 59,
            "name": "B3",
            "ticks": 91152,
            "time": 118.6875,
            "velocity": 0.3937007874015748
          },
          {
            "duration": 0.125,
            "durationTicks": 96,
            "midi": 64,
            "name": "E4",
            "ticks": 91728,
            "time": 119.4375,
            "velocity": 0.3937007874015748
          },
          {
            "duration": 0.125,
            "durationTicks": 96,
            "midi": 52,
            "name": "E3",
            "ticks": 91728,
            "time": 119.4375,
            "velocity": 0.3937007874015748
          },
          {
            "duration": 0.125,
            "durationTicks": 96,
            "midi": 62,
            "name": "D4",
            "ticks": 92016,
            "time": 119.8125,
            "velocity": 0.3937007874015748
          },
          {
            "duration": 0.125,
            "durationTicks": 96,
            "midi": 50,
            "name": "D3",
            "ticks": 92016,
            "time": 119.8125,
            "velocity": 0.3937007874015748
          },
          {
            "duration": 0.125,
            "durationTicks": 96,
            "midi": 45,
            "name": "A2",
            "ticks": 92448,
            "time": 120.375,
            "velocity": 0.3937007874015748
          },
          {
            "duration": 0.125,
            "durationTicks": 96,
            "midi": 57,
            "name": "A3",
            "ticks": 92448,
            "time": 120.375,
            "velocity": 0.3937007874015748
          },
          {
            "duration": 0.125,
            "durationTicks": 96,
            "midi": 59,
            "name": "B3",
            "ticks": 92592,
            "time": 120.5625,
            "velocity": 0.3937007874015748
          },
          {
            "duration": 0.125,
            "durationTicks": 96,
            "midi": 47,
            "name": "B2",
            "ticks": 92592,
            "time": 120.5625,
            "velocity": 0.3937007874015748
          },
          {
            "duration": 0.125,
            "durationTicks": 96,
            "midi": 52,
            "name": "E3",
            "ticks": 93456,
            "time": 121.6875,
            "velocity": 0.3937007874015748
          },
          {
            "duration": 0.125,
            "durationTicks": 96,
            "midi": 64,
            "name": "E4",
            "ticks": 93456,
            "time": 121.6875,
            "velocity": 0.3937007874015748
          },
          {
            "duration": 0.125,
            "durationTicks": 96,
            "midi": 62,
            "name": "D4",
            "ticks": 93744,
            "time": 122.0625,
            "velocity": 0.3937007874015748
          },
          {
            "duration": 0.125,
            "durationTicks": 96,
            "midi": 50,
            "name": "D3",
            "ticks": 93744,
            "time": 122.0625,
            "velocity": 0.3937007874015748
          },
          {
            "duration": 0.125,
            "durationTicks": 96,
            "midi": 45,
            "name": "A2",
            "ticks": 94176,
            "time": 122.625,
            "velocity": 0.3937007874015748
          },
          {
            "duration": 0.125,
            "durationTicks": 96,
            "midi": 57,
            "name": "A3",
            "ticks": 94176,
            "time": 122.625,
            "velocity": 0.3937007874015748
          },
          {
            "duration": 0.125,
            "durationTicks": 96,
            "midi": 59,
            "name": "B3",
            "ticks": 94320,
            "time": 122.8125,
            "velocity": 0.3937007874015748
          },
          {
            "duration": 0.125,
            "durationTicks": 96,
            "midi": 47,
            "name": "B2",
            "ticks": 94320,
            "time": 122.8125,
            "velocity": 0.3937007874015748
          },
          {
            "duration": 0.125,
            "durationTicks": 96,
            "midi": 52,
            "name": "E3",
            "ticks": 94608,
            "time": 123.1875,
            "velocity": 0.3937007874015748
          },
          {
            "duration": 0.125,
            "durationTicks": 96,
            "midi": 64,
            "name": "E4",
            "ticks": 94608,
            "time": 123.1875,
            "velocity": 0.3937007874015748
          },
          {
            "duration": 0.125,
            "durationTicks": 96,
            "midi": 50,
            "name": "D3",
            "ticks": 94896,
            "time": 123.5625,
            "velocity": 0.3937007874015748
          },
          {
            "duration": 0.125,
            "durationTicks": 96,
            "midi": 62,
            "name": "D4",
            "ticks": 94896,
            "time": 123.5625,
            "velocity": 0.3937007874015748
          },
          {
            "duration": 0.125,
            "durationTicks": 96,
            "midi": 57,
            "name": "A3",
            "ticks": 95328,
            "time": 124.125,
            "velocity": 0.3937007874015748
          },
          {
            "duration": 0.125,
            "durationTicks": 96,
            "midi": 45,
            "name": "A2",
            "ticks": 95328,
            "time": 124.125,
            "velocity": 0.3937007874015748
          },
          {
            "duration": 0.125,
            "durationTicks": 96,
            "midi": 47,
            "name": "B2",
            "ticks": 95472,
            "time": 124.3125,
            "velocity": 0.3937007874015748
          },
          {
            "duration": 0.125,
            "durationTicks": 96,
            "midi": 59,
            "name": "B3",
            "ticks": 95472,
            "time": 124.3125,
            "velocity": 0.3937007874015748
          },
          {
            "duration": 0.125,
            "durationTicks": 96,
            "midi": 47,
            "name": "B2",
            "ticks": 95760,
            "time": 124.6875,
            "velocity": 0.3937007874015748
          },
          {
            "duration": 0.125,
            "durationTicks": 96,
            "midi": 59,
            "name": "B3",
            "ticks": 95760,
            "time": 124.6875,
            "velocity": 0.3937007874015748
          },
          {
            "duration": 0.125,
            "durationTicks": 96,
            "midi": 59,
            "name": "B3",
            "ticks": 95904,
            "time": 124.875,
            "velocity": 0.3937007874015748
          },
          {
            "duration": 0.125,
            "durationTicks": 96,
            "midi": 47,
            "name": "B2",
            "ticks": 95904,
            "time": 124.875,
            "velocity": 0.3937007874015748
          },
          {
            "duration": 0.125,
            "durationTicks": 96,
            "midi": 47,
            "name": "B2",
            "ticks": 96048,
            "time": 125.0625,
            "velocity": 0.3937007874015748
          },
          {
            "duration": 0.125,
            "durationTicks": 96,
            "midi": 59,
            "name": "B3",
            "ticks": 96048,
            "time": 125.0625,
            "velocity": 0.3937007874015748
          },
          {
            "duration": 0.125,
            "durationTicks": 96,
            "midi": 43,
            "name": "G2",
            "ticks": 96192,
            "time": 125.25,
            "velocity": 0.3937007874015748
          },
          {
            "duration": 0.125,
            "durationTicks": 96,
            "midi": 55,
            "name": "G3",
            "ticks": 96192,
            "time": 125.25,
            "velocity": 0.3937007874015748
          },
          {
            "duration": 0.125,
            "durationTicks": 96,
            "midi": 52,
            "name": "E3",
            "ticks": 96336,
            "time": 125.4375,
            "velocity": 0.3937007874015748
          },
          {
            "duration": 0.125,
            "durationTicks": 96,
            "midi": 40,
            "name": "E2",
            "ticks": 96336,
            "time": 125.4375,
            "velocity": 0.3937007874015748
          },
          {
            "duration": 0.125,
            "durationTicks": 96,
            "midi": 52,
            "name": "E3",
            "ticks": 96912,
            "time": 126.1875,
            "velocity": 0.3937007874015748
          },
          {
            "duration": 0.125,
            "durationTicks": 96,
            "midi": 64,
            "name": "E4",
            "ticks": 96912,
            "time": 126.1875,
            "velocity": 0.3937007874015748
          },
          {
            "duration": 0.125,
            "durationTicks": 96,
            "midi": 62,
            "name": "D4",
            "ticks": 97200,
            "time": 126.5625,
            "velocity": 0.3937007874015748
          },
          {
            "duration": 0.125,
            "durationTicks": 96,
            "midi": 50,
            "name": "D3",
            "ticks": 97200,
            "time": 126.5625,
            "velocity": 0.3937007874015748
          },
          {
            "duration": 0.125,
            "durationTicks": 96,
            "midi": 57,
            "name": "A3",
            "ticks": 97632,
            "time": 127.125,
            "velocity": 0.3937007874015748
          },
          {
            "duration": 0.125,
            "durationTicks": 96,
            "midi": 45,
            "name": "A2",
            "ticks": 97632,
            "time": 127.125,
            "velocity": 0.3937007874015748
          },
          {
            "duration": 0.125,
            "durationTicks": 96,
            "midi": 59,
            "name": "B3",
            "ticks": 97776,
            "time": 127.3125,
            "velocity": 0.3937007874015748
          },
          {
            "duration": 0.125,
            "durationTicks": 96,
            "midi": 47,
            "name": "B2",
            "ticks": 97776,
            "time": 127.3125,
            "velocity": 0.3937007874015748
          },
          {
            "duration": 0.125,
            "durationTicks": 96,
            "midi": 59,
            "name": "B3",
            "ticks": 98064,
            "time": 127.6875,
            "velocity": 0.3937007874015748
          },
          {
            "duration": 0.125,
            "durationTicks": 96,
            "midi": 47,
            "name": "B2",
            "ticks": 98064,
            "time": 127.6875,
            "velocity": 0.3937007874015748
          },
          {
            "duration": 0.125,
            "durationTicks": 96,
            "midi": 59,
            "name": "B3",
            "ticks": 98208,
            "time": 127.875,
            "velocity": 0.3937007874015748
          },
          {
            "duration": 0.125,
            "durationTicks": 96,
            "midi": 47,
            "name": "B2",
            "ticks": 98208,
            "time": 127.875,
            "velocity": 0.3937007874015748
          },
          {
            "duration": 0.125,
            "durationTicks": 96,
            "midi": 47,
            "name": "B2",
            "ticks": 98352,
            "time": 128.0625,
            "velocity": 0.3937007874015748
          },
          {
            "duration": 0.125,
            "durationTicks": 96,
            "midi": 59,
            "name": "B3",
            "ticks": 98352,
            "time": 128.0625,
            "velocity": 0.3937007874015748
          },
          {
            "duration": 0.125,
            "durationTicks": 96,
            "midi": 55,
            "name": "G3",
            "ticks": 98496,
            "time": 128.25,
            "velocity": 0.3937007874015748
          },
          {
            "duration": 0.125,
            "durationTicks": 96,
            "midi": 43,
            "name": "G2",
            "ticks": 98496,
            "time": 128.25,
            "velocity": 0.3937007874015748
          },
          {
            "duration": 0.125,
            "durationTicks": 96,
            "midi": 52,
            "name": "E3",
            "ticks": 98640,
            "time": 128.4375,
            "velocity": 0.3937007874015748
          },
          {
            "duration": 0.125,
            "durationTicks": 96,
            "midi": 40,
            "name": "E2",
            "ticks": 98640,
            "time": 128.4375,
            "velocity": 0.3937007874015748
          },
          {
            "duration": 0.125,
            "durationTicks": 96,
            "midi": 64,
            "name": "E4",
            "ticks": 109584,
            "time": 142.6875,
            "velocity": 0.3937007874015748
          },
          {
            "duration": 0.125,
            "durationTicks": 96,
            "midi": 52,
            "name": "E3",
            "ticks": 109584,
            "time": 142.6875,
            "velocity": 0.3937007874015748
          },
          {
            "duration": 0.125,
            "durationTicks": 96,
            "midi": 50,
            "name": "D3",
            "ticks": 109728,
            "time": 142.875,
            "velocity": 0.3937007874015748
          },
          {
            "duration": 0.125,
            "durationTicks": 96,
            "midi": 62,
            "name": "D4",
            "ticks": 109728,
            "time": 142.875,
            "velocity": 0.3937007874015748
          },
          {
            "duration": 0.125,
            "durationTicks": 96,
            "midi": 52,
            "name": "E3",
            "ticks": 109872,
            "time": 143.0625,
            "velocity": 0.3937007874015748
          },
          {
            "duration": 0.125,
            "durationTicks": 96,
            "midi": 64,
            "name": "E4",
            "ticks": 109872,
            "time": 143.0625,
            "velocity": 0.3937007874015748
          },
          {
            "duration": 0.125,
            "durationTicks": 96,
            "midi": 62,
            "name": "D4",
            "ticks": 110016,
            "time": 143.25,
            "velocity": 0.3937007874015748
          },
          {
            "duration": 0.125,
            "durationTicks": 96,
            "midi": 50,
            "name": "D3",
            "ticks": 110016,
            "time": 143.25,
            "velocity": 0.3937007874015748
          },
          {
            "duration": 0.125,
            "durationTicks": 96,
            "midi": 64,
            "name": "E4",
            "ticks": 110160,
            "time": 143.4375,
            "velocity": 0.3937007874015748
          },
          {
            "duration": 0.125,
            "durationTicks": 96,
            "midi": 52,
            "name": "E3",
            "ticks": 110160,
            "time": 143.4375,
            "velocity": 0.3937007874015748
          },
          {
            "duration": 0.125,
            "durationTicks": 96,
            "midi": 50,
            "name": "D3",
            "ticks": 110304,
            "time": 143.625,
            "velocity": 0.3937007874015748
          },
          {
            "duration": 0.125,
            "durationTicks": 96,
            "midi": 62,
            "name": "D4",
            "ticks": 110304,
            "time": 143.625,
            "velocity": 0.3937007874015748
          },
          {
            "duration": 0.125,
            "durationTicks": 96,
            "midi": 64,
            "name": "E4",
            "ticks": 110448,
            "time": 143.8125,
            "velocity": 0.3937007874015748
          },
          {
            "duration": 0.125,
            "durationTicks": 96,
            "midi": 52,
            "name": "E3",
            "ticks": 110448,
            "time": 143.8125,
            "velocity": 0.3937007874015748
          },
          {
            "duration": 0.125,
            "durationTicks": 96,
            "midi": 62,
            "name": "D4",
            "ticks": 110592,
            "time": 144,
            "velocity": 0.3937007874015748
          },
          {
            "duration": 0.125,
            "durationTicks": 96,
            "midi": 50,
            "name": "D3",
            "ticks": 110592,
            "time": 144,
            "velocity": 0.3937007874015748
          },
          {
            "duration": 0.125,
            "durationTicks": 96,
            "midi": 52,
            "name": "E3",
            "ticks": 110736,
            "time": 144.1875,
            "velocity": 0.3937007874015748
          },
          {
            "duration": 0.125,
            "durationTicks": 96,
            "midi": 64,
            "name": "E4",
            "ticks": 110736,
            "time": 144.1875,
            "velocity": 0.3937007874015748
          },
          {
            "duration": 0.125,
            "durationTicks": 96,
            "midi": 50,
            "name": "D3",
            "ticks": 110880,
            "time": 144.375,
            "velocity": 0.3937007874015748
          },
          {
            "duration": 0.125,
            "durationTicks": 96,
            "midi": 62,
            "name": "D4",
            "ticks": 110880,
            "time": 144.375,
            "velocity": 0.3937007874015748
          },
          {
            "duration": 0.125,
            "durationTicks": 96,
            "midi": 64,
            "name": "E4",
            "ticks": 111024,
            "time": 144.5625,
            "velocity": 0.3937007874015748
          },
          {
            "duration": 0.125,
            "durationTicks": 96,
            "midi": 52,
            "name": "E3",
            "ticks": 111024,
            "time": 144.5625,
            "velocity": 0.3937007874015748
          },
          {
            "duration": 0.125,
            "durationTicks": 96,
            "midi": 50,
            "name": "D3",
            "ticks": 111168,
            "time": 144.75,
            "velocity": 0.3937007874015748
          },
          {
            "duration": 0.125,
            "durationTicks": 96,
            "midi": 62,
            "name": "D4",
            "ticks": 111168,
            "time": 144.75,
            "velocity": 0.3937007874015748
          },
          {
            "duration": 0.125,
            "durationTicks": 96,
            "midi": 64,
            "name": "E4",
            "ticks": 111312,
            "time": 144.9375,
            "velocity": 0.3937007874015748
          },
          {
            "duration": 0.125,
            "durationTicks": 96,
            "midi": 52,
            "name": "E3",
            "ticks": 111312,
            "time": 144.9375,
            "velocity": 0.3937007874015748
          },
          {
            "duration": 0.125,
            "durationTicks": 96,
            "midi": 50,
            "name": "D3",
            "ticks": 111456,
            "time": 145.125,
            "velocity": 0.3937007874015748
          },
          {
            "duration": 0.125,
            "durationTicks": 96,
            "midi": 62,
            "name": "D4",
            "ticks": 111456,
            "time": 145.125,
            "velocity": 0.3937007874015748
          },
          {
            "duration": 0.125,
            "durationTicks": 96,
            "midi": 64,
            "name": "E4",
            "ticks": 111600,
            "time": 145.3125,
            "velocity": 0.3937007874015748
          },
          {
            "duration": 0.125,
            "durationTicks": 96,
            "midi": 52,
            "name": "E3",
            "ticks": 111600,
            "time": 145.3125,
            "velocity": 0.3937007874015748
          },
          {
            "duration": 0.125,
            "durationTicks": 96,
            "midi": 50,
            "name": "D3",
            "ticks": 111744,
            "time": 145.5,
            "velocity": 0.3937007874015748
          },
          {
            "duration": 0.125,
            "durationTicks": 96,
            "midi": 62,
            "name": "D4",
            "ticks": 111744,
            "time": 145.5,
            "velocity": 0.3937007874015748
          },
          {
            "duration": 0.125,
            "durationTicks": 96,
            "midi": 52,
            "name": "E3",
            "ticks": 111888,
            "time": 145.6875,
            "velocity": 0.3937007874015748
          },
          {
            "duration": 0.125,
            "durationTicks": 96,
            "midi": 64,
            "name": "E4",
            "ticks": 111888,
            "time": 145.6875,
            "velocity": 0.3937007874015748
          },
          {
            "duration": 0.125,
            "durationTicks": 96,
            "midi": 62,
            "name": "D4",
            "ticks": 112032,
            "time": 145.875,
            "velocity": 0.3937007874015748
          },
          {
            "duration": 0.125,
            "durationTicks": 96,
            "midi": 50,
            "name": "D3",
            "ticks": 112032,
            "time": 145.875,
            "velocity": 0.3937007874015748
          },
          {
            "duration": 0.125,
            "durationTicks": 96,
            "midi": 64,
            "name": "E4",
            "ticks": 112176,
            "time": 146.0625,
            "velocity": 0.3937007874015748
          },
          {
            "duration": 0.125,
            "durationTicks": 96,
            "midi": 52,
            "name": "E3",
            "ticks": 112176,
            "time": 146.0625,
            "velocity": 0.3937007874015748
          },
          {
            "duration": 0.125,
            "durationTicks": 96,
            "midi": 62,
            "name": "D4",
            "ticks": 112320,
            "time": 146.25,
            "velocity": 0.3937007874015748
          },
          {
            "duration": 0.125,
            "durationTicks": 96,
            "midi": 50,
            "name": "D3",
            "ticks": 112320,
            "time": 146.25,
            "velocity": 0.3937007874015748
          },
          {
            "duration": 0.125,
            "durationTicks": 96,
            "midi": 52,
            "name": "E3",
            "ticks": 112464,
            "time": 146.4375,
            "velocity": 0.3937007874015748
          },
          {
            "duration": 0.125,
            "durationTicks": 96,
            "midi": 64,
            "name": "E4",
            "ticks": 112464,
            "time": 146.4375,
            "velocity": 0.3937007874015748
          },
          {
            "duration": 0.125,
            "durationTicks": 96,
            "midi": 62,
            "name": "D4",
            "ticks": 112608,
            "time": 146.625,
            "velocity": 0.3937007874015748
          },
          {
            "duration": 0.125,
            "durationTicks": 96,
            "midi": 50,
            "name": "D3",
            "ticks": 112608,
            "time": 146.625,
            "velocity": 0.3937007874015748
          },
          {
            "duration": 0.125,
            "durationTicks": 96,
            "midi": 64,
            "name": "E4",
            "ticks": 112752,
            "time": 146.8125,
            "velocity": 0.3937007874015748
          },
          {
            "duration": 0.125,
            "durationTicks": 96,
            "midi": 52,
            "name": "E3",
            "ticks": 112752,
            "time": 146.8125,
            "velocity": 0.3937007874015748
          },
          {
            "duration": 0.125,
            "durationTicks": 96,
            "midi": 50,
            "name": "D3",
            "ticks": 112896,
            "time": 147,
            "velocity": 0.3937007874015748
          },
          {
            "duration": 0.125,
            "durationTicks": 96,
            "midi": 62,
            "name": "D4",
            "ticks": 112896,
            "time": 147,
            "velocity": 0.3937007874015748
          },
          {
            "duration": 0.125,
            "durationTicks": 96,
            "midi": 52,
            "name": "E3",
            "ticks": 113040,
            "time": 147.1875,
            "velocity": 0.3937007874015748
          },
          {
            "duration": 0.125,
            "durationTicks": 96,
            "midi": 64,
            "name": "E4",
            "ticks": 113040,
            "time": 147.1875,
            "velocity": 0.3937007874015748
          },
          {
            "duration": 0.125,
            "durationTicks": 96,
            "midi": 62,
            "name": "D4",
            "ticks": 113184,
            "time": 147.375,
            "velocity": 0.3937007874015748
          },
          {
            "duration": 0.125,
            "durationTicks": 96,
            "midi": 50,
            "name": "D3",
            "ticks": 113184,
            "time": 147.375,
            "velocity": 0.3937007874015748
          },
          {
            "duration": 0.125,
            "durationTicks": 96,
            "midi": 52,
            "name": "E3",
            "ticks": 113328,
            "time": 147.5625,
            "velocity": 0.3937007874015748
          },
          {
            "duration": 0.125,
            "durationTicks": 96,
            "midi": 64,
            "name": "E4",
            "ticks": 113328,
            "time": 147.5625,
            "velocity": 0.3937007874015748
          },
          {
            "duration": 0.125,
            "durationTicks": 96,
            "midi": 62,
            "name": "D4",
            "ticks": 113472,
            "time": 147.75,
            "velocity": 0.3937007874015748
          },
          {
            "duration": 0.125,
            "durationTicks": 96,
            "midi": 50,
            "name": "D3",
            "ticks": 113472,
            "time": 147.75,
            "velocity": 0.3937007874015748
          },
          {
            "duration": 0.125,
            "durationTicks": 96,
            "midi": 52,
            "name": "E3",
            "ticks": 113616,
            "time": 147.9375,
            "velocity": 0.3937007874015748
          },
          {
            "duration": 0.125,
            "durationTicks": 96,
            "midi": 66,
            "name": "F#4",
            "ticks": 113616,
            "time": 147.9375,
            "velocity": 0.3937007874015748
          },
          {
            "duration": 0.125,
            "durationTicks": 96,
            "midi": 64,
            "name": "E4",
            "ticks": 113616,
            "time": 147.9375,
            "velocity": 0.3937007874015748
          },
          {
            "duration": 0.125,
            "durationTicks": 96,
            "midi": 54,
            "name": "F#3",
            "ticks": 113616,
            "time": 147.9375,
            "velocity": 0.3937007874015748
          },
          {
            "duration": 0.125,
            "durationTicks": 96,
            "midi": 50,
            "name": "D3",
            "ticks": 113760,
            "time": 148.125,
            "velocity": 0.3937007874015748
          },
          {
            "duration": 0.125,
            "durationTicks": 96,
            "midi": 55,
            "name": "G3",
            "ticks": 113760,
            "time": 148.125,
            "velocity": 0.3937007874015748
          },
          {
            "duration": 0.125,
            "durationTicks": 96,
            "midi": 67,
            "name": "G4",
            "ticks": 113760,
            "time": 148.125,
            "velocity": 0.3937007874015748
          },
          {
            "duration": 0.125,
            "durationTicks": 96,
            "midi": 62,
            "name": "D4",
            "ticks": 113760,
            "time": 148.125,
            "velocity": 0.3937007874015748
          },
          {
            "duration": 0.125,
            "durationTicks": 96,
            "midi": 55,
            "name": "G3",
            "ticks": 113904,
            "time": 148.3125,
            "velocity": 0.3937007874015748
          },
          {
            "duration": 0.125,
            "durationTicks": 96,
            "midi": 64,
            "name": "E4",
            "ticks": 113904,
            "time": 148.3125,
            "velocity": 0.3937007874015748
          },
          {
            "duration": 0.125,
            "durationTicks": 96,
            "midi": 52,
            "name": "E3",
            "ticks": 113904,
            "time": 148.3125,
            "velocity": 0.3937007874015748
          },
          {
            "duration": 0.125,
            "durationTicks": 96,
            "midi": 43,
            "name": "G2",
            "ticks": 113904,
            "time": 148.3125,
            "velocity": 0.3937007874015748
          },
          {
            "duration": 0.125,
            "durationTicks": 96,
            "midi": 67,
            "name": "G4",
            "ticks": 128304,
            "time": 167.0625,
            "velocity": 0.3937007874015748
          },
          {
            "duration": 0.125,
            "durationTicks": 96,
            "midi": 55,
            "name": "G3",
            "ticks": 128304,
            "time": 167.0625,
            "velocity": 0.3937007874015748
          },
          {
            "duration": 0.125,
            "durationTicks": 96,
            "midi": 64,
            "name": "E4",
            "ticks": 128592,
            "time": 167.4375,
            "velocity": 0.3937007874015748
          },
          {
            "duration": 0.125,
            "durationTicks": 96,
            "midi": 52,
            "name": "E3",
            "ticks": 128592,
            "time": 167.4375,
            "velocity": 0.3937007874015748
          },
          {
            "duration": 0.125,
            "durationTicks": 96,
            "midi": 55,
            "name": "G3",
            "ticks": 131184,
            "time": 170.8125,
            "velocity": 0.3937007874015748
          },
          {
            "duration": 0.125,
            "durationTicks": 96,
            "midi": 67,
            "name": "G4",
            "ticks": 131184,
            "time": 170.8125,
            "velocity": 0.3937007874015748
          },
          {
            "duration": 0.125,
            "durationTicks": 96,
            "midi": 52,
            "name": "E3",
            "ticks": 131472,
            "time": 171.1875,
            "velocity": 0.3937007874015748
          },
          {
            "duration": 0.125,
            "durationTicks": 96,
            "midi": 64,
            "name": "E4",
            "ticks": 131472,
            "time": 171.1875,
            "velocity": 0.3937007874015748
          },
          {
            "duration": 0.125,
            "durationTicks": 96,
            "midi": 62,
            "name": "D4",
            "ticks": 137808,
            "time": 179.4375,
            "velocity": 0.3937007874015748
          },
          {
            "duration": 0.125,
            "durationTicks": 96,
            "midi": 50,
            "name": "D3",
            "ticks": 137808,
            "time": 179.4375,
            "velocity": 0.3937007874015748
          },
          {
            "duration": 0.125,
            "durationTicks": 96,
            "midi": 52,
            "name": "E3",
            "ticks": 137952,
            "time": 179.625,
            "velocity": 0.3937007874015748
          },
          {
            "duration": 0.125,
            "durationTicks": 96,
            "midi": 64,
            "name": "E4",
            "ticks": 137952,
            "time": 179.625,
            "velocity": 0.3937007874015748
          },
          {
            "duration": 0.125,
            "durationTicks": 96,
            "midi": 64,
            "name": "E4",
            "ticks": 138096,
            "time": 179.8125,
            "velocity": 0.3937007874015748
          },
          {
            "duration": 0.125,
            "durationTicks": 96,
            "midi": 52,
            "name": "E3",
            "ticks": 138096,
            "time": 179.8125,
            "velocity": 0.3937007874015748
          },
          {
            "duration": 0.125,
            "durationTicks": 96,
            "midi": 64,
            "name": "E4",
            "ticks": 138240,
            "time": 180,
            "velocity": 0.3937007874015748
          },
          {
            "duration": 0.125,
            "durationTicks": 96,
            "midi": 52,
            "name": "E3",
            "ticks": 138240,
            "time": 180,
            "velocity": 0.3937007874015748
          },
          {
            "duration": 0.125,
            "durationTicks": 96,
            "midi": 47,
            "name": "B2",
            "ticks": 138816,
            "time": 180.75,
            "velocity": 0.3937007874015748
          },
          {
            "duration": 0.125,
            "durationTicks": 96,
            "midi": 59,
            "name": "B3",
            "ticks": 138816,
            "time": 180.75,
            "velocity": 0.3937007874015748
          },
          {
            "duration": 0.125,
            "durationTicks": 96,
            "midi": 47,
            "name": "B2",
            "ticks": 138960,
            "time": 180.9375,
            "velocity": 0.3937007874015748
          },
          {
            "duration": 0.125,
            "durationTicks": 96,
            "midi": 59,
            "name": "B3",
            "ticks": 138960,
            "time": 180.9375,
            "velocity": 0.3937007874015748
          },
          {
            "duration": 0.125,
            "durationTicks": 96,
            "midi": 47,
            "name": "B2",
            "ticks": 139104,
            "time": 181.125,
            "velocity": 0.3937007874015748
          },
          {
            "duration": 0.125,
            "durationTicks": 96,
            "midi": 59,
            "name": "B3",
            "ticks": 139104,
            "time": 181.125,
            "velocity": 0.3937007874015748
          },
          {
            "duration": 0.125,
            "durationTicks": 96,
            "midi": 47,
            "name": "B2",
            "ticks": 139248,
            "time": 181.3125,
            "velocity": 0.3937007874015748
          },
          {
            "duration": 0.125,
            "durationTicks": 96,
            "midi": 59,
            "name": "B3",
            "ticks": 139248,
            "time": 181.3125,
            "velocity": 0.3937007874015748
          },
          {
            "duration": 0.3125,
            "durationTicks": 240,
            "midi": 59,
            "name": "B3",
            "ticks": 139392,
            "time": 181.5,
            "velocity": 0.3937007874015748
          },
          {
            "duration": 0.3125,
            "durationTicks": 240,
            "midi": 47,
            "name": "B2",
            "ticks": 139392,
            "time": 181.5,
            "velocity": 0.3937007874015748
          },
          {
            "duration": 0.125,
            "durationTicks": 96,
            "midi": 43,
            "name": "G2",
            "ticks": 139680,
            "time": 181.875,
            "velocity": 0.3937007874015748
          },
          {
            "duration": 0.125,
            "durationTicks": 96,
            "midi": 55,
            "name": "G3",
            "ticks": 139680,
            "time": 181.875,
            "velocity": 0.3937007874015748
          },
          {
            "duration": 0.125,
            "durationTicks": 96,
            "midi": 52,
            "name": "E3",
            "ticks": 139824,
            "time": 182.0625,
            "velocity": 0.3937007874015748
          },
          {
            "duration": 0.125,
            "durationTicks": 96,
            "midi": 40,
            "name": "E2",
            "ticks": 139824,
            "time": 182.0625,
            "velocity": 0.3937007874015748
          },
          {
            "duration": 0.125,
            "durationTicks": 96,
            "midi": 47,
            "name": "B2",
            "ticks": 141120,
            "time": 183.75,
            "velocity": 0.3937007874015748
          },
          {
            "duration": 0.125,
            "durationTicks": 96,
            "midi": 59,
            "name": "B3",
            "ticks": 141120,
            "time": 183.75,
            "velocity": 0.3937007874015748
          },
          {
            "duration": 0.125,
            "durationTicks": 96,
            "midi": 47,
            "name": "B2",
            "ticks": 141264,
            "time": 183.9375,
            "velocity": 0.3937007874015748
          },
          {
            "duration": 0.125,
            "durationTicks": 96,
            "midi": 59,
            "name": "B3",
            "ticks": 141264,
            "time": 183.9375,
            "velocity": 0.3937007874015748
          },
          {
            "duration": 0.125,
            "durationTicks": 96,
            "midi": 50,
            "name": "D3",
            "ticks": 141408,
            "time": 184.125,
            "velocity": 0.3937007874015748
          },
          {
            "duration": 0.125,
            "durationTicks": 96,
            "midi": 62,
            "name": "D4",
            "ticks": 141408,
            "time": 184.125,
            "velocity": 0.3937007874015748
          },
          {
            "duration": 0.125,
            "durationTicks": 96,
            "midi": 59,
            "name": "B3",
            "ticks": 141552,
            "time": 184.3125,
            "velocity": 0.3937007874015748
          },
          {
            "duration": 0.125,
            "durationTicks": 96,
            "midi": 47,
            "name": "B2",
            "ticks": 141552,
            "time": 184.3125,
            "velocity": 0.3937007874015748
          },
          {
            "duration": 0.3125,
            "durationTicks": 240,
            "midi": 47,
            "name": "B2",
            "ticks": 141696,
            "time": 184.5,
            "velocity": 0.3937007874015748
          },
          {
            "duration": 0.3125,
            "durationTicks": 240,
            "midi": 59,
            "name": "B3",
            "ticks": 141696,
            "time": 184.5,
            "velocity": 0.3937007874015748
          },
          {
            "duration": 0.125,
            "durationTicks": 96,
            "midi": 43,
            "name": "G2",
            "ticks": 141984,
            "time": 184.875,
            "velocity": 0.3937007874015748
          },
          {
            "duration": 0.125,
            "durationTicks": 96,
            "midi": 55,
            "name": "G3",
            "ticks": 141984,
            "time": 184.875,
            "velocity": 0.3937007874015748
          },
          {
            "duration": 0.125,
            "durationTicks": 96,
            "midi": 40,
            "name": "E2",
            "ticks": 142128,
            "time": 185.0625,
            "velocity": 0.3937007874015748
          },
          {
            "duration": 0.125,
            "durationTicks": 96,
            "midi": 52,
            "name": "E3",
            "ticks": 142128,
            "time": 185.0625,
            "velocity": 0.3937007874015748
          },
          {
            "duration": 0.125,
            "durationTicks": 96,
            "midi": 47,
            "name": "B2",
            "ticks": 147456,
            "time": 192,
            "velocity": 0.3937007874015748
          },
          {
            "duration": 0.125,
            "durationTicks": 96,
            "midi": 59,
            "name": "B3",
            "ticks": 147456,
            "time": 192,
            "velocity": 0.3937007874015748
          },
          {
            "duration": 0.125,
            "durationTicks": 96,
            "midi": 47,
            "name": "B2",
            "ticks": 147600,
            "time": 192.1875,
            "velocity": 0.3937007874015748
          },
          {
            "duration": 0.125,
            "durationTicks": 96,
            "midi": 59,
            "name": "B3",
            "ticks": 147600,
            "time": 192.1875,
            "velocity": 0.3937007874015748
          },
          {
            "duration": 0.125,
            "durationTicks": 96,
            "midi": 62,
            "name": "D4",
            "ticks": 147744,
            "time": 192.375,
            "velocity": 0.3937007874015748
          },
          {
            "duration": 0.125,
            "durationTicks": 96,
            "midi": 50,
            "name": "D3",
            "ticks": 147744,
            "time": 192.375,
            "velocity": 0.3937007874015748
          },
          {
            "duration": 0.125,
            "durationTicks": 96,
            "midi": 59,
            "name": "B3",
            "ticks": 147888,
            "time": 192.5625,
            "velocity": 0.3937007874015748
          },
          {
            "duration": 0.125,
            "durationTicks": 96,
            "midi": 47,
            "name": "B2",
            "ticks": 147888,
            "time": 192.5625,
            "velocity": 0.3937007874015748
          },
          {
            "duration": 0.3125,
            "durationTicks": 240,
            "midi": 59,
            "name": "B3",
            "ticks": 148032,
            "time": 192.75,
            "velocity": 0.3937007874015748
          },
          {
            "duration": 0.3125,
            "durationTicks": 240,
            "midi": 47,
            "name": "B2",
            "ticks": 148032,
            "time": 192.75,
            "velocity": 0.3937007874015748
          },
          {
            "duration": 0.125,
            "durationTicks": 96,
            "midi": 43,
            "name": "G2",
            "ticks": 148320,
            "time": 193.125,
            "velocity": 0.3937007874015748
          },
          {
            "duration": 0.125,
            "durationTicks": 96,
            "midi": 55,
            "name": "G3",
            "ticks": 148320,
            "time": 193.125,
            "velocity": 0.3937007874015748
          },
          {
            "duration": 0.125,
            "durationTicks": 96,
            "midi": 52,
            "name": "E3",
            "ticks": 148464,
            "time": 193.3125,
            "velocity": 0.3937007874015748
          },
          {
            "duration": 0.125,
            "durationTicks": 96,
            "midi": 40,
            "name": "E2",
            "ticks": 148464,
            "time": 193.3125,
            "velocity": 0.3937007874015748
          },
          {
            "duration": 0.125,
            "durationTicks": 96,
            "midi": 52,
            "name": "E3",
            "ticks": 151488,
            "time": 197.25,
            "velocity": 0.3937007874015748
          },
          {
            "duration": 0.125,
            "durationTicks": 96,
            "midi": 64,
            "name": "E4",
            "ticks": 151488,
            "time": 197.25,
            "velocity": 0.3937007874015748
          },
          {
            "duration": 0.125,
            "durationTicks": 96,
            "midi": 52,
            "name": "E3",
            "ticks": 151632,
            "time": 197.4375,
            "velocity": 0.3937007874015748
          },
          {
            "duration": 0.125,
            "durationTicks": 96,
            "midi": 64,
            "name": "E4",
            "ticks": 151632,
            "time": 197.4375,
            "velocity": 0.3937007874015748
          },
          {
            "duration": 0.125,
            "durationTicks": 96,
            "midi": 52,
            "name": "E3",
            "ticks": 151776,
            "time": 197.625,
            "velocity": 0.3937007874015748
          },
          {
            "duration": 0.125,
            "durationTicks": 96,
            "midi": 64,
            "name": "E4",
            "ticks": 151776,
            "time": 197.625,
            "velocity": 0.3937007874015748
          },
          {
            "duration": 0.125,
            "durationTicks": 96,
            "midi": 64,
            "name": "E4",
            "ticks": 151920,
            "time": 197.8125,
            "velocity": 0.3937007874015748
          },
          {
            "duration": 0.125,
            "durationTicks": 96,
            "midi": 52,
            "name": "E3",
            "ticks": 151920,
            "time": 197.8125,
            "velocity": 0.3937007874015748
          },
          {
            "duration": 0.125,
            "durationTicks": 96,
            "midi": 67,
            "name": "G4",
            "ticks": 152064,
            "time": 198,
            "velocity": 0.3937007874015748
          },
          {
            "duration": 0.125,
            "durationTicks": 96,
            "midi": 55,
            "name": "G3",
            "ticks": 152064,
            "time": 198,
            "velocity": 0.3937007874015748
          },
          {
            "duration": 0.125,
            "durationTicks": 96,
            "midi": 64,
            "name": "E4",
            "ticks": 152352,
            "time": 198.375,
            "velocity": 0.3937007874015748
          },
          {
            "duration": 0.125,
            "durationTicks": 96,
            "midi": 52,
            "name": "E3",
            "ticks": 152352,
            "time": 198.375,
            "velocity": 0.3937007874015748
          },
          {
            "duration": 0.125,
            "durationTicks": 96,
            "midi": 55,
            "name": "G3",
            "ticks": 153648,
            "time": 200.0625,
            "velocity": 0.3937007874015748
          },
          {
            "duration": 0.125,
            "durationTicks": 96,
            "midi": 67,
            "name": "G4",
            "ticks": 153648,
            "time": 200.0625,
            "velocity": 0.3937007874015748
          },
          {
            "duration": 0.125,
            "durationTicks": 96,
            "midi": 52,
            "name": "E3",
            "ticks": 153936,
            "time": 200.4375,
            "velocity": 0.3937007874015748
          },
          {
            "duration": 0.125,
            "durationTicks": 96,
            "midi": 64,
            "name": "E4",
            "ticks": 153936,
            "time": 200.4375,
            "velocity": 0.3937007874015748
          },
          {
            "duration": 0.125,
            "durationTicks": 96,
            "midi": 55,
            "name": "G3",
            "ticks": 157680,
            "time": 205.3125,
            "velocity": 0.3937007874015748
          },
          {
            "duration": 0.125,
            "durationTicks": 96,
            "midi": 67,
            "name": "G4",
            "ticks": 157680,
            "time": 205.3125,
            "velocity": 0.3937007874015748
          },
          {
            "duration": 0.125,
            "durationTicks": 96,
            "midi": 64,
            "name": "E4",
            "ticks": 157968,
            "time": 205.6875,
            "velocity": 0.3937007874015748
          },
          {
            "duration": 0.125,
            "durationTicks": 96,
            "midi": 52,
            "name": "E3",
            "ticks": 157968,
            "time": 205.6875,
            "velocity": 0.3937007874015748
          },
          {
            "duration": 0.125,
            "durationTicks": 96,
            "midi": 55,
            "name": "G3",
            "ticks": 159984,
            "time": 208.3125,
            "velocity": 0.3937007874015748
          },
          {
            "duration": 0.125,
            "durationTicks": 96,
            "midi": 67,
            "name": "G4",
            "ticks": 159984,
            "time": 208.3125,
            "velocity": 0.3937007874015748
          },
          {
            "duration": 0.125,
            "durationTicks": 96,
            "midi": 52,
            "name": "E3",
            "ticks": 160272,
            "time": 208.6875,
            "velocity": 0.3937007874015748
          },
          {
            "duration": 0.125,
            "durationTicks": 96,
            "midi": 64,
            "name": "E4",
            "ticks": 160272,
            "time": 208.6875,
            "velocity": 0.3937007874015748
          },
          {
            "duration": 0.125,
            "durationTicks": 96,
            "midi": 55,
            "name": "G3",
            "ticks": 164016,
            "time": 213.5625,
            "velocity": 0.3937007874015748
          },
          {
            "duration": 0.125,
            "durationTicks": 96,
            "midi": 67,
            "name": "G4",
            "ticks": 164016,
            "time": 213.5625,
            "velocity": 0.3937007874015748
          },
          {
            "duration": 0.125,
            "durationTicks": 96,
            "midi": 64,
            "name": "E4",
            "ticks": 164304,
            "time": 213.9375,
            "velocity": 0.3937007874015748
          },
          {
            "duration": 0.125,
            "durationTicks": 96,
            "midi": 52,
            "name": "E3",
            "ticks": 164304,
            "time": 213.9375,
            "velocity": 0.3937007874015748
          },
          {
            "duration": 0.125,
            "durationTicks": 96,
            "midi": 64,
            "name": "E4",
            "ticks": 166320,
            "time": 216.5625,
            "velocity": 0.3937007874015748
          },
          {
            "duration": 0.125,
            "durationTicks": 96,
            "midi": 52,
            "name": "E3",
            "ticks": 166320,
            "time": 216.5625,
            "velocity": 0.3937007874015748
          },
          {
            "duration": 0.125,
            "durationTicks": 96,
            "midi": 50,
            "name": "D3",
            "ticks": 166608,
            "time": 216.9375,
            "velocity": 0.3937007874015748
          },
          {
            "duration": 0.125,
            "durationTicks": 96,
            "midi": 62,
            "name": "D4",
            "ticks": 166608,
            "time": 216.9375,
            "velocity": 0.3937007874015748
          },
          {
            "duration": 0.125,
            "durationTicks": 96,
            "midi": 45,
            "name": "A2",
            "ticks": 169056,
            "time": 220.125,
            "velocity": 0.3937007874015748
          },
          {
            "duration": 0.125,
            "durationTicks": 96,
            "midi": 57,
            "name": "A3",
            "ticks": 169056,
            "time": 220.125,
            "velocity": 0.3937007874015748
          },
          {
            "duration": 0.125,
            "durationTicks": 96,
            "midi": 59,
            "name": "B3",
            "ticks": 169200,
            "time": 220.3125,
            "velocity": 0.3937007874015748
          },
          {
            "duration": 0.125,
            "durationTicks": 96,
            "midi": 47,
            "name": "B2",
            "ticks": 169200,
            "time": 220.3125,
            "velocity": 0.3937007874015748
          },
          {
            "duration": 0.125,
            "durationTicks": 96,
            "midi": 52,
            "name": "E3",
            "ticks": 169488,
            "time": 220.6875,
            "velocity": 0.3937007874015748
          },
          {
            "duration": 0.125,
            "durationTicks": 96,
            "midi": 64,
            "name": "E4",
            "ticks": 169488,
            "time": 220.6875,
            "velocity": 0.3937007874015748
          },
          {
            "duration": 0.125,
            "durationTicks": 96,
            "midi": 62,
            "name": "D4",
            "ticks": 169776,
            "time": 221.0625,
            "velocity": 0.3937007874015748
          },
          {
            "duration": 0.125,
            "durationTicks": 96,
            "midi": 50,
            "name": "D3",
            "ticks": 169776,
            "time": 221.0625,
            "velocity": 0.3937007874015748
          },
          {
            "duration": 0.125,
            "durationTicks": 96,
            "midi": 57,
            "name": "A3",
            "ticks": 170208,
            "time": 221.625,
            "velocity": 0.3937007874015748
          },
          {
            "duration": 0.125,
            "durationTicks": 96,
            "midi": 45,
            "name": "A2",
            "ticks": 170208,
            "time": 221.625,
            "velocity": 0.3937007874015748
          },
          {
            "duration": 0.125,
            "durationTicks": 96,
            "midi": 47,
            "name": "B2",
            "ticks": 170352,
            "time": 221.8125,
            "velocity": 0.3937007874015748
          },
          {
            "duration": 0.125,
            "durationTicks": 96,
            "midi": 59,
            "name": "B3",
            "ticks": 170352,
            "time": 221.8125,
            "velocity": 0.3937007874015748
          },
          {
            "duration": 0.125,
            "durationTicks": 96,
            "midi": 59,
            "name": "B3",
            "ticks": 170640,
            "time": 222.1875,
            "velocity": 0.3937007874015748
          },
          {
            "duration": 0.125,
            "durationTicks": 96,
            "midi": 47,
            "name": "B2",
            "ticks": 170640,
            "time": 222.1875,
            "velocity": 0.3937007874015748
          },
          {
            "duration": 0.125,
            "durationTicks": 96,
            "midi": 47,
            "name": "B2",
            "ticks": 170784,
            "time": 222.375,
            "velocity": 0.3937007874015748
          },
          {
            "duration": 0.125,
            "durationTicks": 96,
            "midi": 59,
            "name": "B3",
            "ticks": 170784,
            "time": 222.375,
            "velocity": 0.3937007874015748
          },
          {
            "duration": 0.125,
            "durationTicks": 96,
            "midi": 59,
            "name": "B3",
            "ticks": 170928,
            "time": 222.5625,
            "velocity": 0.3937007874015748
          },
          {
            "duration": 0.125,
            "durationTicks": 96,
            "midi": 47,
            "name": "B2",
            "ticks": 170928,
            "time": 222.5625,
            "velocity": 0.3937007874015748
          },
          {
            "duration": 0.125,
            "durationTicks": 96,
            "midi": 55,
            "name": "G3",
            "ticks": 171072,
            "time": 222.75,
            "velocity": 0.3937007874015748
          },
          {
            "duration": 0.125,
            "durationTicks": 96,
            "midi": 43,
            "name": "G2",
            "ticks": 171072,
            "time": 222.75,
            "velocity": 0.3937007874015748
          },
          {
            "duration": 0.125,
            "durationTicks": 96,
            "midi": 52,
            "name": "E3",
            "ticks": 171216,
            "time": 222.9375,
            "velocity": 0.3937007874015748
          },
          {
            "duration": 0.125,
            "durationTicks": 96,
            "midi": 40,
            "name": "E2",
            "ticks": 171216,
            "time": 222.9375,
            "velocity": 0.3937007874015748
          },
          {
            "duration": 0.125,
            "durationTicks": 96,
            "midi": 52,
            "name": "E3",
            "ticks": 171792,
            "time": 223.6875,
            "velocity": 0.3937007874015748
          },
          {
            "duration": 0.125,
            "durationTicks": 96,
            "midi": 64,
            "name": "E4",
            "ticks": 171792,
            "time": 223.6875,
            "velocity": 0.3937007874015748
          },
          {
            "duration": 0.125,
            "durationTicks": 96,
            "midi": 62,
            "name": "D4",
            "ticks": 172080,
            "time": 224.0625,
            "velocity": 0.3937007874015748
          },
          {
            "duration": 0.125,
            "durationTicks": 96,
            "midi": 50,
            "name": "D3",
            "ticks": 172080,
            "time": 224.0625,
            "velocity": 0.3937007874015748
          },
          {
            "duration": 0.125,
            "durationTicks": 96,
            "midi": 45,
            "name": "A2",
            "ticks": 172512,
            "time": 224.625,
            "velocity": 0.3937007874015748
          },
          {
            "duration": 0.125,
            "durationTicks": 96,
            "midi": 57,
            "name": "A3",
            "ticks": 172512,
            "time": 224.625,
            "velocity": 0.3937007874015748
          },
          {
            "duration": 0.125,
            "durationTicks": 96,
            "midi": 59,
            "name": "B3",
            "ticks": 172656,
            "time": 224.8125,
            "velocity": 0.3937007874015748
          },
          {
            "duration": 0.125,
            "durationTicks": 96,
            "midi": 47,
            "name": "B2",
            "ticks": 172656,
            "time": 224.8125,
            "velocity": 0.3937007874015748
          },
          {
            "duration": 0.125,
            "durationTicks": 96,
            "midi": 47,
            "name": "B2",
            "ticks": 172944,
            "time": 225.1875,
            "velocity": 0.3937007874015748
          },
          {
            "duration": 0.125,
            "durationTicks": 96,
            "midi": 59,
            "name": "B3",
            "ticks": 172944,
            "time": 225.1875,
            "velocity": 0.3937007874015748
          },
          {
            "duration": 0.125,
            "durationTicks": 96,
            "midi": 47,
            "name": "B2",
            "ticks": 173088,
            "time": 225.375,
            "velocity": 0.3937007874015748
          },
          {
            "duration": 0.125,
            "durationTicks": 96,
            "midi": 59,
            "name": "B3",
            "ticks": 173088,
            "time": 225.375,
            "velocity": 0.3937007874015748
          },
          {
            "duration": 0.125,
            "durationTicks": 96,
            "midi": 59,
            "name": "B3",
            "ticks": 173232,
            "time": 225.5625,
            "velocity": 0.3937007874015748
          },
          {
            "duration": 0.125,
            "durationTicks": 96,
            "midi": 47,
            "name": "B2",
            "ticks": 173232,
            "time": 225.5625,
            "velocity": 0.3937007874015748
          },
          {
            "duration": 0.125,
            "durationTicks": 96,
            "midi": 43,
            "name": "G2",
            "ticks": 173376,
            "time": 225.75,
            "velocity": 0.3937007874015748
          },
          {
            "duration": 0.125,
            "durationTicks": 96,
            "midi": 55,
            "name": "G3",
            "ticks": 173376,
            "time": 225.75,
            "velocity": 0.3937007874015748
          },
          {
            "duration": 0.125,
            "durationTicks": 96,
            "midi": 52,
            "name": "E3",
            "ticks": 173520,
            "time": 225.9375,
            "velocity": 0.3937007874015748
          },
          {
            "duration": 0.125,
            "durationTicks": 96,
            "midi": 40,
            "name": "E2",
            "ticks": 173520,
            "time": 225.9375,
            "velocity": 0.3937007874015748
          },
          {
            "duration": 0.125,
            "durationTicks": 96,
            "midi": 64,
            "name": "E4",
            "ticks": 175824,
            "time": 228.9375,
            "velocity": 0.3937007874015748
          },
          {
            "duration": 0.125,
            "durationTicks": 96,
            "midi": 52,
            "name": "E3",
            "ticks": 175824,
            "time": 228.9375,
            "velocity": 0.3937007874015748
          },
          {
            "duration": 0.125,
            "durationTicks": 96,
            "midi": 50,
            "name": "D3",
            "ticks": 176112,
            "time": 229.3125,
            "velocity": 0.3937007874015748
          },
          {
            "duration": 0.125,
            "durationTicks": 96,
            "midi": 62,
            "name": "D4",
            "ticks": 176112,
            "time": 229.3125,
            "velocity": 0.3937007874015748
          },
          {
            "duration": 0.125,
            "durationTicks": 96,
            "midi": 57,
            "name": "A3",
            "ticks": 176544,
            "time": 229.875,
            "velocity": 0.3937007874015748
          },
          {
            "duration": 0.125,
            "durationTicks": 96,
            "midi": 45,
            "name": "A2",
            "ticks": 176544,
            "time": 229.875,
            "velocity": 0.3937007874015748
          },
          {
            "duration": 0.125,
            "durationTicks": 96,
            "midi": 59,
            "name": "B3",
            "ticks": 176688,
            "time": 230.0625,
            "velocity": 0.3937007874015748
          },
          {
            "duration": 0.125,
            "durationTicks": 96,
            "midi": 47,
            "name": "B2",
            "ticks": 176688,
            "time": 230.0625,
            "velocity": 0.3937007874015748
          }
        ],
        "endOfTrackTicks": 176784
      }
    ]
  }