{
    "header": {
      "keySignatures": [],
      "meta": [],
      "name": "",
      "ppq": 384,
      "tempos": [
        {
          "bpm": 142.0000710000355,
          "ticks": 0
        }
      ],
      "timeSignatures": [
        {
          "ticks": 0,
          "timeSignature": [
            1,
            4
          ],
          "measures": 0
        }
      ]
    },
    "tracks": [
      {
        "channel": 0,
        "controlChanges": {},
        "pitchBends": [],
        "instrument": {
          "family": "brass",
          "number": 60,
          "name": "french horn"
        },
        "name": "French Horn",
        "notes": [
          {
            "duration": 0.21126750000000002,
            "durationTicks": 192,
            "midi": 64,
            "name": "E4",
            "ticks": 0,
            "time": 0,
            "velocity": 0.3937007874015748
          },
          {
            "duration": 0.21126750000000002,
            "durationTicks": 192,
            "midi": 48,
            "name": "C3",
            "ticks": 0,
            "time": 0,
            "velocity": 0.3937007874015748
          },
          {
            "duration": 0.21126750000000002,
            "durationTicks": 192,
            "midi": 72,
            "name": "C5",
            "ticks": 0,
            "time": 0,
            "velocity": 0.3937007874015748
          },
          {
            "duration": 0.21126750000000002,
            "durationTicks": 192,
            "midi": 36,
            "name": "C2",
            "ticks": 0,
            "time": 0,
            "velocity": 0.3937007874015748
          },
          {
            "duration": 0.21126750000000002,
            "durationTicks": 192,
            "midi": 70,
            "name": "A#4",
            "ticks": 0,
            "time": 0,
            "velocity": 0.3937007874015748
          },
          {
            "duration": 0.10563375000000003,
            "durationTicks": 96,
            "midi": 75,
            "name": "D#5",
            "ticks": 288,
            "time": 0.31690125,
            "velocity": 0.3937007874015748
          },
          {
            "duration": 0.10563374999999997,
            "durationTicks": 96,
            "midi": 76,
            "name": "E5",
            "ticks": 336,
            "time": 0.36971812500000006,
            "velocity": 0.3937007874015748
          },
          {
            "duration": 0.2112675,
            "durationTicks": 192,
            "midi": 65,
            "name": "F4",
            "ticks": 384,
            "time": 0.42253500000000005,
            "velocity": 0.3937007874015748
          },
          {
            "duration": 0.2112675,
            "durationTicks": 192,
            "midi": 53,
            "name": "F3",
            "ticks": 384,
            "time": 0.42253500000000005,
            "velocity": 0.3937007874015748
          },
          {
            "duration": 0.2112675,
            "durationTicks": 192,
            "midi": 41,
            "name": "F2",
            "ticks": 384,
            "time": 0.42253500000000005,
            "velocity": 0.3937007874015748
          },
          {
            "duration": 0.2112675,
            "durationTicks": 192,
            "midi": 77,
            "name": "F5",
            "ticks": 384,
            "time": 0.42253500000000005,
            "velocity": 0.3937007874015748
          },
          {
            "duration": 0.2112675,
            "durationTicks": 192,
            "midi": 72,
            "name": "C5",
            "ticks": 384,
            "time": 0.42253500000000005,
            "velocity": 0.3937007874015748
          },
          {
            "duration": 0.21126750000000005,
            "durationTicks": 192,
            "midi": 65,
            "name": "F4",
            "ticks": 576,
            "time": 0.6338025,
            "velocity": 0.3937007874015748
          },
          {
            "duration": 0.21126750000000005,
            "durationTicks": 192,
            "midi": 48,
            "name": "C3",
            "ticks": 576,
            "time": 0.6338025,
            "velocity": 0.3937007874015748
          },
          {
            "duration": 0.21126750000000005,
            "durationTicks": 192,
            "midi": 53,
            "name": "F3",
            "ticks": 576,
            "time": 0.6338025,
            "velocity": 0.3937007874015748
          },
          {
            "duration": 0.21126750000000005,
            "durationTicks": 192,
            "midi": 72,
            "name": "C5",
            "ticks": 576,
            "time": 0.6338025,
            "velocity": 0.3937007874015748
          },
          {
            "duration": 0.21126750000000005,
            "durationTicks": 192,
            "midi": 77,
            "name": "F5",
            "ticks": 576,
            "time": 0.6338025,
            "velocity": 0.3937007874015748
          },
          {
            "duration": 0.21126750000000005,
            "durationTicks": 192,
            "midi": 56,
            "name": "G#3",
            "ticks": 576,
            "time": 0.6338025,
            "velocity": 0.3937007874015748
          },
          {
            "duration": 0.10563374999999997,
            "durationTicks": 96,
            "midi": 72,
            "name": "C5",
            "ticks": 768,
            "time": 0.8450700000000001,
            "velocity": 0.3937007874015748
          },
          {
            "duration": 0.21126750000000005,
            "durationTicks": 192,
            "midi": 36,
            "name": "C2",
            "ticks": 768,
            "time": 0.8450700000000001,
            "velocity": 0.3937007874015748
          },
          {
            "duration": 0.21126750000000005,
            "durationTicks": 192,
            "midi": 48,
            "name": "C3",
            "ticks": 768,
            "time": 0.8450700000000001,
            "velocity": 0.3937007874015748
          },
          {
            "duration": 0.10563375000000008,
            "durationTicks": 96,
            "midi": 74,
            "name": "D5",
            "ticks": 864,
            "time": 0.9507037500000001,
            "velocity": 0.3937007874015748
          },
          {
            "duration": 0.10563374999999997,
            "durationTicks": 96,
            "midi": 75,
            "name": "D#5",
            "ticks": 960,
            "time": 1.0563375000000002,
            "velocity": 0.3937007874015748
          },
          {
            "duration": 0.21126749999999994,
            "durationTicks": 192,
            "midi": 48,
            "name": "C3",
            "ticks": 960,
            "time": 1.0563375000000002,
            "velocity": 0.3937007874015748
          },
          {
            "duration": 0.21126749999999994,
            "durationTicks": 192,
            "midi": 56,
            "name": "G#3",
            "ticks": 960,
            "time": 1.0563375000000002,
            "velocity": 0.3937007874015748
          },
          {
            "duration": 0.21126749999999994,
            "durationTicks": 192,
            "midi": 53,
            "name": "F3",
            "ticks": 960,
            "time": 1.0563375000000002,
            "velocity": 0.3937007874015748
          },
          {
            "duration": 0.10563374999999997,
            "durationTicks": 96,
            "midi": 76,
            "name": "E5",
            "ticks": 1056,
            "time": 1.1619712500000001,
            "velocity": 0.3937007874015748
          },
          {
            "duration": 0.21126750000000016,
            "durationTicks": 192,
            "midi": 41,
            "name": "F2",
            "ticks": 1152,
            "time": 1.267605,
            "velocity": 0.3937007874015748
          },
          {
            "duration": 0.21126750000000016,
            "durationTicks": 192,
            "midi": 53,
            "name": "F3",
            "ticks": 1152,
            "time": 1.267605,
            "velocity": 0.3937007874015748
          },
          {
            "duration": 0.21126750000000016,
            "durationTicks": 192,
            "midi": 77,
            "name": "F5",
            "ticks": 1152,
            "time": 1.267605,
            "velocity": 0.3937007874015748
          },
          {
            "duration": 0.21126750000000016,
            "durationTicks": 192,
            "midi": 65,
            "name": "F4",
            "ticks": 1152,
            "time": 1.267605,
            "velocity": 0.3937007874015748
          },
          {
            "duration": 0.21126750000000016,
            "durationTicks": 192,
            "midi": 72,
            "name": "C5",
            "ticks": 1152,
            "time": 1.267605,
            "velocity": 0.3937007874015748
          },
          {
            "duration": 0.21126749999999994,
            "durationTicks": 192,
            "midi": 65,
            "name": "F4",
            "ticks": 1344,
            "time": 1.4788725000000003,
            "velocity": 0.3937007874015748
          },
          {
            "duration": 0.21126749999999994,
            "durationTicks": 192,
            "midi": 72,
            "name": "C5",
            "ticks": 1344,
            "time": 1.4788725000000003,
            "velocity": 0.3937007874015748
          },
          {
            "duration": 0.21126749999999994,
            "durationTicks": 192,
            "midi": 53,
            "name": "F3",
            "ticks": 1344,
            "time": 1.4788725000000003,
            "velocity": 0.3937007874015748
          },
          {
            "duration": 0.21126749999999994,
            "durationTicks": 192,
            "midi": 48,
            "name": "C3",
            "ticks": 1344,
            "time": 1.4788725000000003,
            "velocity": 0.3937007874015748
          },
          {
            "duration": 0.21126749999999994,
            "durationTicks": 192,
            "midi": 56,
            "name": "G#3",
            "ticks": 1344,
            "time": 1.4788725000000003,
            "velocity": 0.3937007874015748
          },
          {
            "duration": 0.21126749999999994,
            "durationTicks": 192,
            "midi": 77,
            "name": "F5",
            "ticks": 1344,
            "time": 1.4788725000000003,
            "velocity": 0.3937007874015748
          },
          {
            "duration": 0.21126749999999994,
            "durationTicks": 192,
            "midi": 36,
            "name": "C2",
            "ticks": 1536,
            "time": 1.6901400000000002,
            "velocity": 0.3937007874015748
          },
          {
            "duration": 0.21126749999999994,
            "durationTicks": 192,
            "midi": 72,
            "name": "C5",
            "ticks": 1536,
            "time": 1.6901400000000002,
            "velocity": 0.3937007874015748
          },
          {
            "duration": 0.21126749999999994,
            "durationTicks": 192,
            "midi": 77,
            "name": "F5",
            "ticks": 1536,
            "time": 1.6901400000000002,
            "velocity": 0.3937007874015748
          },
          {
            "duration": 0.21126749999999994,
            "durationTicks": 192,
            "midi": 80,
            "name": "G#5",
            "ticks": 1536,
            "time": 1.6901400000000002,
            "velocity": 0.3937007874015748
          },
          {
            "duration": 0.21126749999999994,
            "durationTicks": 192,
            "midi": 48,
            "name": "C3",
            "ticks": 1536,
            "time": 1.6901400000000002,
            "velocity": 0.3937007874015748
          },
          {
            "duration": 0.10563375000000019,
            "durationTicks": 96,
            "midi": 79,
            "name": "G5",
            "ticks": 1728,
            "time": 1.9014075000000001,
            "velocity": 0.3937007874015748
          },
          {
            "duration": 0.21126750000000016,
            "durationTicks": 192,
            "midi": 56,
            "name": "G#3",
            "ticks": 1728,
            "time": 1.9014075000000001,
            "velocity": 0.3937007874015748
          },
          {
            "duration": 0.21126750000000016,
            "durationTicks": 192,
            "midi": 48,
            "name": "C3",
            "ticks": 1728,
            "time": 1.9014075000000001,
            "velocity": 0.3937007874015748
          },
          {
            "duration": 0.21126750000000016,
            "durationTicks": 192,
            "midi": 53,
            "name": "F3",
            "ticks": 1728,
            "time": 1.9014075000000001,
            "velocity": 0.3937007874015748
          },
          {
            "duration": 0.10563374999999997,
            "durationTicks": 96,
            "midi": 77,
            "name": "F5",
            "ticks": 1824,
            "time": 2.0070412500000003,
            "velocity": 0.3937007874015748
          },
          {
            "duration": 0.21126749999999994,
            "durationTicks": 192,
            "midi": 79,
            "name": "G5",
            "ticks": 1920,
            "time": 2.1126750000000003,
            "velocity": 0.3937007874015748
          },
          {
            "duration": 0.21126749999999994,
            "durationTicks": 192,
            "midi": 55,
            "name": "G3",
            "ticks": 1920,
            "time": 2.1126750000000003,
            "velocity": 0.3937007874015748
          },
          {
            "duration": 0.21126749999999994,
            "durationTicks": 192,
            "midi": 72,
            "name": "C5",
            "ticks": 1920,
            "time": 2.1126750000000003,
            "velocity": 0.3937007874015748
          },
          {
            "duration": 0.21126749999999994,
            "durationTicks": 192,
            "midi": 76,
            "name": "E5",
            "ticks": 1920,
            "time": 2.1126750000000003,
            "velocity": 0.3937007874015748
          },
          {
            "duration": 0.21126749999999994,
            "durationTicks": 192,
            "midi": 43,
            "name": "G2",
            "ticks": 1920,
            "time": 2.1126750000000003,
            "velocity": 0.3937007874015748
          },
          {
            "duration": 0.21126749999999994,
            "durationTicks": 192,
            "midi": 60,
            "name": "C4",
            "ticks": 2112,
            "time": 2.3239425000000002,
            "velocity": 0.3937007874015748
          },
          {
            "duration": 0.21126749999999994,
            "durationTicks": 192,
            "midi": 72,
            "name": "C5",
            "ticks": 2112,
            "time": 2.3239425000000002,
            "velocity": 0.3937007874015748
          },
          {
            "duration": 0.21126749999999994,
            "durationTicks": 192,
            "midi": 55,
            "name": "G3",
            "ticks": 2112,
            "time": 2.3239425000000002,
            "velocity": 0.3937007874015748
          },
          {
            "duration": 0.21126749999999994,
            "durationTicks": 192,
            "midi": 76,
            "name": "E5",
            "ticks": 2112,
            "time": 2.3239425000000002,
            "velocity": 0.3937007874015748
          },
          {
            "duration": 0.21126749999999994,
            "durationTicks": 192,
            "midi": 79,
            "name": "G5",
            "ticks": 2112,
            "time": 2.3239425000000002,
            "velocity": 0.3937007874015748
          },
          {
            "duration": 0.21126749999999994,
            "durationTicks": 192,
            "midi": 58,
            "name": "A#3",
            "ticks": 2112,
            "time": 2.3239425000000002,
            "velocity": 0.3937007874015748
          },
          {
            "duration": 0.10563374999999997,
            "durationTicks": 96,
            "midi": 80,
            "name": "G#5",
            "ticks": 2304,
            "time": 2.53521,
            "velocity": 0.3937007874015748
          },
          {
            "duration": 0.21126749999999994,
            "durationTicks": 192,
            "midi": 48,
            "name": "C3",
            "ticks": 2304,
            "time": 2.53521,
            "velocity": 0.3937007874015748
          },
          {
            "duration": 0.21126749999999994,
            "durationTicks": 192,
            "midi": 36,
            "name": "C2",
            "ticks": 2304,
            "time": 2.53521,
            "velocity": 0.3937007874015748
          },
          {
            "duration": 0.10563374999999997,
            "durationTicks": 96,
            "midi": 81,
            "name": "A5",
            "ticks": 2376,
            "time": 2.6144353125000004,
            "velocity": 0.3937007874015748
          },
          {
            "duration": 0.10563374999999997,
            "durationTicks": 96,
            "midi": 80,
            "name": "G#5",
            "ticks": 2448,
            "time": 2.693660625,
            "velocity": 0.3937007874015748
          },
          {
            "duration": 0.21126750000000039,
            "durationTicks": 192,
            "midi": 60,
            "name": "C4",
            "ticks": 2496,
            "time": 2.7464775,
            "velocity": 0.3937007874015748
          },
          {
            "duration": 0.21126750000000039,
            "durationTicks": 192,
            "midi": 58,
            "name": "A#3",
            "ticks": 2496,
            "time": 2.7464775,
            "velocity": 0.3937007874015748
          },
          {
            "duration": 0.21126750000000039,
            "durationTicks": 192,
            "midi": 77,
            "name": "F5",
            "ticks": 2496,
            "time": 2.7464775,
            "velocity": 0.3937007874015748
          },
          {
            "duration": 0.21126750000000039,
            "durationTicks": 192,
            "midi": 55,
            "name": "G3",
            "ticks": 2496,
            "time": 2.7464775,
            "velocity": 0.3937007874015748
          },
          {
            "duration": 0.21126749999999994,
            "durationTicks": 192,
            "midi": 43,
            "name": "G2",
            "ticks": 2688,
            "time": 2.9577450000000005,
            "velocity": 0.3937007874015748
          },
          {
            "duration": 0.21126749999999994,
            "durationTicks": 192,
            "midi": 55,
            "name": "G3",
            "ticks": 2688,
            "time": 2.9577450000000005,
            "velocity": 0.3937007874015748
          },
          {
            "duration": 0.4225349999999999,
            "durationTicks": 384,
            "midi": 79,
            "name": "G5",
            "ticks": 2688,
            "time": 2.9577450000000005,
            "velocity": 0.3937007874015748
          },
          {
            "duration": 0.4225349999999999,
            "durationTicks": 384,
            "midi": 76,
            "name": "E5",
            "ticks": 2688,
            "time": 2.9577450000000005,
            "velocity": 0.3937007874015748
          },
          {
            "duration": 0.4225349999999999,
            "durationTicks": 384,
            "midi": 72,
            "name": "C5",
            "ticks": 2688,
            "time": 2.9577450000000005,
            "velocity": 0.3937007874015748
          },
          {
            "duration": 0.4225349999999999,
            "durationTicks": 384,
            "midi": 67,
            "name": "G4",
            "ticks": 2688,
            "time": 2.9577450000000005,
            "velocity": 0.3937007874015748
          },
          {
            "duration": 0.21126749999999994,
            "durationTicks": 192,
            "midi": 60,
            "name": "C4",
            "ticks": 2880,
            "time": 3.1690125000000005,
            "velocity": 0.3937007874015748
          },
          {
            "duration": 0.21126749999999994,
            "durationTicks": 192,
            "midi": 55,
            "name": "G3",
            "ticks": 2880,
            "time": 3.1690125000000005,
            "velocity": 0.3937007874015748
          },
          {
            "duration": 0.21126749999999994,
            "durationTicks": 192,
            "midi": 58,
            "name": "A#3",
            "ticks": 2880,
            "time": 3.1690125000000005,
            "velocity": 0.3937007874015748
          },
          {
            "duration": 0.21126749999999994,
            "durationTicks": 192,
            "midi": 52,
            "name": "E3",
            "ticks": 3072,
            "time": 3.3802800000000004,
            "velocity": 0.3937007874015748
          },
          {
            "duration": 0.21126749999999994,
            "durationTicks": 192,
            "midi": 40,
            "name": "E2",
            "ticks": 3072,
            "time": 3.3802800000000004,
            "velocity": 0.3937007874015748
          },
          {
            "duration": 0.21126749999999994,
            "durationTicks": 192,
            "midi": 60,
            "name": "C4",
            "ticks": 3264,
            "time": 3.5915475000000003,
            "velocity": 0.3937007874015748
          },
          {
            "duration": 0.21126749999999994,
            "durationTicks": 192,
            "midi": 58,
            "name": "A#3",
            "ticks": 3264,
            "time": 3.5915475000000003,
            "velocity": 0.3937007874015748
          },
          {
            "duration": 0.21126749999999994,
            "durationTicks": 192,
            "midi": 55,
            "name": "G3",
            "ticks": 3264,
            "time": 3.5915475000000003,
            "velocity": 0.3937007874015748
          },
          {
            "duration": 0.21126750000000039,
            "durationTicks": 192,
            "midi": 55,
            "name": "G3",
            "ticks": 3456,
            "time": 3.8028150000000003,
            "velocity": 0.3937007874015748
          },
          {
            "duration": 0.21126750000000039,
            "durationTicks": 192,
            "midi": 43,
            "name": "G2",
            "ticks": 3456,
            "time": 3.8028150000000003,
            "velocity": 0.3937007874015748
          },
          {
            "duration": 0.21126750000000039,
            "durationTicks": 192,
            "midi": 79,
            "name": "G5",
            "ticks": 3456,
            "time": 3.8028150000000003,
            "velocity": 0.3937007874015748
          },
          {
            "duration": 0.21126750000000039,
            "durationTicks": 192,
            "midi": 76,
            "name": "E5",
            "ticks": 3456,
            "time": 3.8028150000000003,
            "velocity": 0.3937007874015748
          },
          {
            "duration": 0.21126750000000039,
            "durationTicks": 192,
            "midi": 82,
            "name": "A#5",
            "ticks": 3456,
            "time": 3.8028150000000003,
            "velocity": 0.3937007874015748
          },
          {
            "duration": 0.21126749999999994,
            "durationTicks": 192,
            "midi": 58,
            "name": "A#3",
            "ticks": 3648,
            "time": 4.014082500000001,
            "velocity": 0.3937007874015748
          },
          {
            "duration": 0.21126749999999994,
            "durationTicks": 192,
            "midi": 60,
            "name": "C4",
            "ticks": 3648,
            "time": 4.014082500000001,
            "velocity": 0.3937007874015748
          },
          {
            "duration": 0.21126749999999994,
            "durationTicks": 192,
            "midi": 76,
            "name": "E5",
            "ticks": 3648,
            "time": 4.014082500000001,
            "velocity": 0.3937007874015748
          },
          {
            "duration": 0.21126749999999994,
            "durationTicks": 192,
            "midi": 55,
            "name": "G3",
            "ticks": 3648,
            "time": 4.014082500000001,
            "velocity": 0.3937007874015748
          },
          {
            "duration": 0.21126749999999994,
            "durationTicks": 192,
            "midi": 82,
            "name": "A#5",
            "ticks": 3648,
            "time": 4.014082500000001,
            "velocity": 0.3937007874015748
          },
          {
            "duration": 0.21126749999999994,
            "durationTicks": 192,
            "midi": 79,
            "name": "G5",
            "ticks": 3648,
            "time": 4.014082500000001,
            "velocity": 0.3937007874015748
          },
          {
            "duration": 0.21126749999999994,
            "durationTicks": 192,
            "midi": 48,
            "name": "C3",
            "ticks": 3840,
            "time": 4.225350000000001,
            "velocity": 0.3937007874015748
          },
          {
            "duration": 0.10563374999999997,
            "durationTicks": 96,
            "midi": 85,
            "name": "C#6",
            "ticks": 3840,
            "time": 4.225350000000001,
            "velocity": 0.3937007874015748
          },
          {
            "duration": 0.21126749999999994,
            "durationTicks": 192,
            "midi": 36,
            "name": "C2",
            "ticks": 3840,
            "time": 4.225350000000001,
            "velocity": 0.3937007874015748
          },
          {
            "duration": 0.10563374999999997,
            "durationTicks": 96,
            "midi": 87,
            "name": "D#6",
            "ticks": 3912,
            "time": 4.304575312500001,
            "velocity": 0.3937007874015748
          },
          {
            "duration": 0.10563374999999997,
            "durationTicks": 96,
            "midi": 85,
            "name": "C#6",
            "ticks": 3984,
            "time": 4.383800625,
            "velocity": 0.3937007874015748
          },
          {
            "duration": 0.21126749999999994,
            "durationTicks": 192,
            "midi": 55,
            "name": "G3",
            "ticks": 4032,
            "time": 4.4366175000000005,
            "velocity": 0.3937007874015748
          },
          {
            "duration": 0.21126749999999994,
            "durationTicks": 192,
            "midi": 58,
            "name": "A#3",
            "ticks": 4032,
            "time": 4.4366175000000005,
            "velocity": 0.3937007874015748
          },
          {
            "duration": 0.21126749999999994,
            "durationTicks": 192,
            "midi": 60,
            "name": "C4",
            "ticks": 4032,
            "time": 4.4366175000000005,
            "velocity": 0.3937007874015748
          },
          {
            "duration": 0.10563374999999997,
            "durationTicks": 96,
            "midi": 84,
            "name": "C6",
            "ticks": 4056,
            "time": 4.4630259375,
            "velocity": 0.3937007874015748
          },
          {
            "duration": 0.10563374999999997,
            "durationTicks": 96,
            "midi": 82,
            "name": "A#5",
            "ticks": 4128,
            "time": 4.5422512500000005,
            "velocity": 0.3937007874015748
          },
          {
            "duration": 0.21126749999999994,
            "durationTicks": 192,
            "midi": 43,
            "name": "G2",
            "ticks": 4224,
            "time": 4.6478850000000005,
            "velocity": 0.3937007874015748
          },
          {
            "duration": 0.21126749999999994,
            "durationTicks": 192,
            "midi": 55,
            "name": "G3",
            "ticks": 4224,
            "time": 4.6478850000000005,
            "velocity": 0.3937007874015748
          },
          {
            "duration": 0.21126749999999994,
            "durationTicks": 192,
            "midi": 84,
            "name": "C6",
            "ticks": 4224,
            "time": 4.6478850000000005,
            "velocity": 0.3937007874015748
          },
          {
            "duration": 0.21126749999999994,
            "durationTicks": 192,
            "midi": 79,
            "name": "G5",
            "ticks": 4224,
            "time": 4.6478850000000005,
            "velocity": 0.3937007874015748
          },
          {
            "duration": 0.21126749999999994,
            "durationTicks": 192,
            "midi": 76,
            "name": "E5",
            "ticks": 4224,
            "time": 4.6478850000000005,
            "velocity": 0.3937007874015748
          },
          {
            "duration": 0.21126749999999994,
            "durationTicks": 192,
            "midi": 79,
            "name": "G5",
            "ticks": 4416,
            "time": 4.8591525,
            "velocity": 0.3937007874015748
          },
          {
            "duration": 0.21126749999999994,
            "durationTicks": 192,
            "midi": 60,
            "name": "C4",
            "ticks": 4416,
            "time": 4.8591525,
            "velocity": 0.3937007874015748
          },
          {
            "duration": 0.21126749999999994,
            "durationTicks": 192,
            "midi": 55,
            "name": "G3",
            "ticks": 4416,
            "time": 4.8591525,
            "velocity": 0.3937007874015748
          },
          {
            "duration": 0.21126749999999994,
            "durationTicks": 192,
            "midi": 76,
            "name": "E5",
            "ticks": 4416,
            "time": 4.8591525,
            "velocity": 0.3937007874015748
          },
          {
            "duration": 0.21126749999999994,
            "durationTicks": 192,
            "midi": 84,
            "name": "C6",
            "ticks": 4416,
            "time": 4.8591525,
            "velocity": 0.3937007874015748
          },
          {
            "duration": 0.21126749999999994,
            "durationTicks": 192,
            "midi": 58,
            "name": "A#3",
            "ticks": 4416,
            "time": 4.8591525,
            "velocity": 0.3937007874015748
          },
          {
            "duration": 0.21126749999999994,
            "durationTicks": 192,
            "midi": 48,
            "name": "C3",
            "ticks": 4608,
            "time": 5.07042,
            "velocity": 0.3937007874015748
          },
          {
            "duration": 0.21126749999999994,
            "durationTicks": 192,
            "midi": 36,
            "name": "C2",
            "ticks": 4608,
            "time": 5.07042,
            "velocity": 0.3937007874015748
          },
          {
            "duration": 0.10563374999999997,
            "durationTicks": 96,
            "midi": 85,
            "name": "C#6",
            "ticks": 4608,
            "time": 5.07042,
            "velocity": 0.3937007874015748
          },
          {
            "duration": 0.10563374999999997,
            "durationTicks": 96,
            "midi": 87,
            "name": "D#6",
            "ticks": 4680,
            "time": 5.149645312500001,
            "velocity": 0.3937007874015748
          },
          {
            "duration": 0.10563374999999997,
            "durationTicks": 96,
            "midi": 85,
            "name": "C#6",
            "ticks": 4752,
            "time": 5.228870625000001,
            "velocity": 0.3937007874015748
          },
          {
            "duration": 0.21126749999999994,
            "durationTicks": 192,
            "midi": 60,
            "name": "C4",
            "ticks": 4800,
            "time": 5.2816875,
            "velocity": 0.3937007874015748
          },
          {
            "duration": 0.21126749999999994,
            "durationTicks": 192,
            "midi": 58,
            "name": "A#3",
            "ticks": 4800,
            "time": 5.2816875,
            "velocity": 0.3937007874015748
          },
          {
            "duration": 0.21126749999999994,
            "durationTicks": 192,
            "midi": 55,
            "name": "G3",
            "ticks": 4800,
            "time": 5.2816875,
            "velocity": 0.3937007874015748
          },
          {
            "duration": 0.10563374999999997,
            "durationTicks": 96,
            "midi": 84,
            "name": "C6",
            "ticks": 4824,
            "time": 5.308095937500001,
            "velocity": 0.3937007874015748
          },
          {
            "duration": 0.10563374999999997,
            "durationTicks": 96,
            "midi": 82,
            "name": "A#5",
            "ticks": 4896,
            "time": 5.38732125,
            "velocity": 0.3937007874015748
          },
          {
            "duration": 0.21126750000000083,
            "durationTicks": 192,
            "midi": 80,
            "name": "G#5",
            "ticks": 4992,
            "time": 5.492955,
            "velocity": 0.3937007874015748
          },
          {
            "duration": 0.21126750000000083,
            "durationTicks": 192,
            "midi": 40,
            "name": "E2",
            "ticks": 4992,
            "time": 5.492955,
            "velocity": 0.3937007874015748
          },
          {
            "duration": 0.21126750000000083,
            "durationTicks": 192,
            "midi": 76,
            "name": "E5",
            "ticks": 4992,
            "time": 5.492955,
            "velocity": 0.3937007874015748
          },
          {
            "duration": 0.21126750000000083,
            "durationTicks": 192,
            "midi": 72,
            "name": "C5",
            "ticks": 4992,
            "time": 5.492955,
            "velocity": 0.3937007874015748
          },
          {
            "duration": 0.21126750000000083,
            "durationTicks": 192,
            "midi": 52,
            "name": "E3",
            "ticks": 4992,
            "time": 5.492955,
            "velocity": 0.3937007874015748
          },
          {
            "duration": 0.21126749999999994,
            "durationTicks": 192,
            "midi": 72,
            "name": "C5",
            "ticks": 5184,
            "time": 5.704222500000001,
            "velocity": 0.3937007874015748
          },
          {
            "duration": 0.21126749999999994,
            "durationTicks": 192,
            "midi": 76,
            "name": "E5",
            "ticks": 5184,
            "time": 5.704222500000001,
            "velocity": 0.3937007874015748
          },
          {
            "duration": 0.21126749999999994,
            "durationTicks": 192,
            "midi": 55,
            "name": "G3",
            "ticks": 5184,
            "time": 5.704222500000001,
            "velocity": 0.3937007874015748
          },
          {
            "duration": 0.21126749999999994,
            "durationTicks": 192,
            "midi": 58,
            "name": "A#3",
            "ticks": 5184,
            "time": 5.704222500000001,
            "velocity": 0.3937007874015748
          },
          {
            "duration": 0.21126749999999994,
            "durationTicks": 192,
            "midi": 60,
            "name": "C4",
            "ticks": 5184,
            "time": 5.704222500000001,
            "velocity": 0.3937007874015748
          },
          {
            "duration": 0.21126749999999994,
            "durationTicks": 192,
            "midi": 80,
            "name": "G#5",
            "ticks": 5184,
            "time": 5.704222500000001,
            "velocity": 0.3937007874015748
          },
          {
            "duration": 0.21126749999999994,
            "durationTicks": 192,
            "midi": 43,
            "name": "G2",
            "ticks": 5376,
            "time": 5.915490000000001,
            "velocity": 0.3937007874015748
          },
          {
            "duration": 0.10563374999999997,
            "durationTicks": 96,
            "midi": 82,
            "name": "A#5",
            "ticks": 5376,
            "time": 5.915490000000001,
            "velocity": 0.3937007874015748
          },
          {
            "duration": 0.21126749999999994,
            "durationTicks": 192,
            "midi": 55,
            "name": "G3",
            "ticks": 5376,
            "time": 5.915490000000001,
            "velocity": 0.3937007874015748
          },
          {
            "duration": 0.10563374999999997,
            "durationTicks": 96,
            "midi": 84,
            "name": "C6",
            "ticks": 5472,
            "time": 6.021123750000001,
            "velocity": 0.3937007874015748
          },
          {
            "duration": 0.21126749999999994,
            "durationTicks": 192,
            "midi": 58,
            "name": "A#3",
            "ticks": 5568,
            "time": 6.126757500000001,
            "velocity": 0.3937007874015748
          },
          {
            "duration": 0.21126749999999994,
            "durationTicks": 192,
            "midi": 60,
            "name": "C4",
            "ticks": 5568,
            "time": 6.126757500000001,
            "velocity": 0.3937007874015748
          },
          {
            "duration": 0.21126749999999994,
            "durationTicks": 192,
            "midi": 55,
            "name": "G3",
            "ticks": 5568,
            "time": 6.126757500000001,
            "velocity": 0.3937007874015748
          },
          {
            "duration": 0.10563374999999997,
            "durationTicks": 96,
            "midi": 82,
            "name": "A#5",
            "ticks": 5568,
            "time": 6.126757500000001,
            "velocity": 0.3937007874015748
          },
          {
            "duration": 0.10563374999999997,
            "durationTicks": 96,
            "midi": 79,
            "name": "G5",
            "ticks": 5664,
            "time": 6.232391250000001,
            "velocity": 0.3937007874015748
          },
          {
            "duration": 0.4225349999999999,
            "durationTicks": 384,
            "midi": 72,
            "name": "C5",
            "ticks": 5760,
            "time": 6.338025000000001,
            "velocity": 0.3937007874015748
          },
          {
            "duration": 0.4225349999999999,
            "durationTicks": 384,
            "midi": 68,
            "name": "G#4",
            "ticks": 5760,
            "time": 6.338025000000001,
            "velocity": 0.3937007874015748
          },
          {
            "duration": 0.4225349999999999,
            "durationTicks": 384,
            "midi": 77,
            "name": "F5",
            "ticks": 5760,
            "time": 6.338025000000001,
            "velocity": 0.3937007874015748
          },
          {
            "duration": 0.21126749999999994,
            "durationTicks": 192,
            "midi": 56,
            "name": "G#3",
            "ticks": 5760,
            "time": 6.338025000000001,
            "velocity": 0.3937007874015748
          },
          {
            "duration": 0.21126749999999994,
            "durationTicks": 192,
            "midi": 44,
            "name": "G#2",
            "ticks": 5760,
            "time": 6.338025000000001,
            "velocity": 0.3937007874015748
          },
          {
            "duration": 0.21126749999999994,
            "durationTicks": 192,
            "midi": 56,
            "name": "G#3",
            "ticks": 5952,
            "time": 6.549292500000001,
            "velocity": 0.3937007874015748
          },
          {
            "duration": 0.21126749999999994,
            "durationTicks": 192,
            "midi": 48,
            "name": "C3",
            "ticks": 5952,
            "time": 6.549292500000001,
            "velocity": 0.3937007874015748
          },
          {
            "duration": 0.21126749999999994,
            "durationTicks": 192,
            "midi": 53,
            "name": "F3",
            "ticks": 5952,
            "time": 6.549292500000001,
            "velocity": 0.3937007874015748
          },
          {
            "duration": 0.21126749999999994,
            "durationTicks": 192,
            "midi": 36,
            "name": "C2",
            "ticks": 6144,
            "time": 6.760560000000001,
            "velocity": 0.3937007874015748
          },
          {
            "duration": 0.21126749999999994,
            "durationTicks": 192,
            "midi": 48,
            "name": "C3",
            "ticks": 6144,
            "time": 6.760560000000001,
            "velocity": 0.3937007874015748
          },
          {
            "duration": 0.21126749999999994,
            "durationTicks": 192,
            "midi": 60,
            "name": "C4",
            "ticks": 6144,
            "time": 6.760560000000001,
            "velocity": 0.3937007874015748
          },
          {
            "duration": 0.21126749999999994,
            "durationTicks": 192,
            "midi": 72,
            "name": "C5",
            "ticks": 6144,
            "time": 6.760560000000001,
            "velocity": 0.3937007874015748
          },
          {
            "duration": 0.21126749999999994,
            "durationTicks": 192,
            "midi": 53,
            "name": "F3",
            "ticks": 6336,
            "time": 6.971827500000001,
            "velocity": 0.3937007874015748
          },
          {
            "duration": 0.21126749999999994,
            "durationTicks": 192,
            "midi": 48,
            "name": "C3",
            "ticks": 6336,
            "time": 6.971827500000001,
            "velocity": 0.3937007874015748
          },
          {
            "duration": 0.21126749999999994,
            "durationTicks": 192,
            "midi": 56,
            "name": "G#3",
            "ticks": 6336,
            "time": 6.971827500000001,
            "velocity": 0.3937007874015748
          },
          {
            "duration": 0.10563374999999997,
            "durationTicks": 96,
            "midi": 75,
            "name": "D#5",
            "ticks": 6432,
            "time": 7.077461250000001,
            "velocity": 0.3937007874015748
          },
          {
            "duration": 0.10563374999999997,
            "durationTicks": 96,
            "midi": 76,
            "name": "E5",
            "ticks": 6480,
            "time": 7.130278125000001,
            "velocity": 0.3937007874015748
          },
          {
            "duration": 0.21126749999999994,
            "durationTicks": 192,
            "midi": 77,
            "name": "F5",
            "ticks": 6528,
            "time": 7.183095000000001,
            "velocity": 0.3937007874015748
          },
          {
            "duration": 0.21126749999999994,
            "durationTicks": 192,
            "midi": 65,
            "name": "F4",
            "ticks": 6528,
            "time": 7.183095000000001,
            "velocity": 0.3937007874015748
          },
          {
            "duration": 0.21126749999999994,
            "durationTicks": 192,
            "midi": 41,
            "name": "F2",
            "ticks": 6528,
            "time": 7.183095000000001,
            "velocity": 0.3937007874015748
          },
          {
            "duration": 0.21126749999999994,
            "durationTicks": 192,
            "midi": 53,
            "name": "F3",
            "ticks": 6528,
            "time": 7.183095000000001,
            "velocity": 0.3937007874015748
          },
          {
            "duration": 0.21126749999999994,
            "durationTicks": 192,
            "midi": 72,
            "name": "C5",
            "ticks": 6528,
            "time": 7.183095000000001,
            "velocity": 0.3937007874015748
          },
          {
            "duration": 0.21126749999999994,
            "durationTicks": 192,
            "midi": 56,
            "name": "G#3",
            "ticks": 6720,
            "time": 7.394362500000001,
            "velocity": 0.3937007874015748
          },
          {
            "duration": 0.21126749999999994,
            "durationTicks": 192,
            "midi": 53,
            "name": "F3",
            "ticks": 6720,
            "time": 7.394362500000001,
            "velocity": 0.3937007874015748
          },
          {
            "duration": 0.21126749999999994,
            "durationTicks": 192,
            "midi": 65,
            "name": "F4",
            "ticks": 6720,
            "time": 7.394362500000001,
            "velocity": 0.3937007874015748
          },
          {
            "duration": 0.21126749999999994,
            "durationTicks": 192,
            "midi": 48,
            "name": "C3",
            "ticks": 6720,
            "time": 7.394362500000001,
            "velocity": 0.3937007874015748
          },
          {
            "duration": 0.21126749999999994,
            "durationTicks": 192,
            "midi": 72,
            "name": "C5",
            "ticks": 6720,
            "time": 7.394362500000001,
            "velocity": 0.3937007874015748
          },
          {
            "duration": 0.21126749999999994,
            "durationTicks": 192,
            "midi": 77,
            "name": "F5",
            "ticks": 6720,
            "time": 7.394362500000001,
            "velocity": 0.3937007874015748
          },
          {
            "duration": 0.21126749999999994,
            "durationTicks": 192,
            "midi": 36,
            "name": "C2",
            "ticks": 6912,
            "time": 7.605630000000001,
            "velocity": 0.3937007874015748
          },
          {
            "duration": 0.21126749999999994,
            "durationTicks": 192,
            "midi": 48,
            "name": "C3",
            "ticks": 6912,
            "time": 7.605630000000001,
            "velocity": 0.3937007874015748
          },
          {
            "duration": 0.10563374999999997,
            "durationTicks": 96,
            "midi": 72,
            "name": "C5",
            "ticks": 6912,
            "time": 7.605630000000001,
            "velocity": 0.3937007874015748
          },
          {
            "duration": 0.10563374999999997,
            "durationTicks": 96,
            "midi": 74,
            "name": "D5",
            "ticks": 7008,
            "time": 7.7112637500000005,
            "velocity": 0.3937007874015748
          },
          {
            "duration": 0.10563375000000086,
            "durationTicks": 96,
            "midi": 75,
            "name": "D#5",
            "ticks": 7104,
            "time": 7.8168975000000005,
            "velocity": 0.3937007874015748
          },
          {
            "duration": 0.21126750000000083,
            "durationTicks": 192,
            "midi": 56,
            "name": "G#3",
            "ticks": 7104,
            "time": 7.8168975000000005,
            "velocity": 0.3937007874015748
          },
          {
            "duration": 0.21126750000000083,
            "durationTicks": 192,
            "midi": 48,
            "name": "C3",
            "ticks": 7104,
            "time": 7.8168975000000005,
            "velocity": 0.3937007874015748
          },
          {
            "duration": 0.21126750000000083,
            "durationTicks": 192,
            "midi": 53,
            "name": "F3",
            "ticks": 7104,
            "time": 7.8168975000000005,
            "velocity": 0.3937007874015748
          },
          {
            "duration": 0.10563374999999997,
            "durationTicks": 96,
            "midi": 76,
            "name": "E5",
            "ticks": 7200,
            "time": 7.922531250000001,
            "velocity": 0.3937007874015748
          },
          {
            "duration": 0.21126749999999994,
            "durationTicks": 192,
            "midi": 53,
            "name": "F3",
            "ticks": 7296,
            "time": 8.028165000000001,
            "velocity": 0.3937007874015748
          },
          {
            "duration": 0.21126749999999994,
            "durationTicks": 192,
            "midi": 41,
            "name": "F2",
            "ticks": 7296,
            "time": 8.028165000000001,
            "velocity": 0.3937007874015748
          },
          {
            "duration": 0.21126749999999994,
            "durationTicks": 192,
            "midi": 77,
            "name": "F5",
            "ticks": 7296,
            "time": 8.028165000000001,
            "velocity": 0.3937007874015748
          },
          {
            "duration": 0.21126749999999994,
            "durationTicks": 192,
            "midi": 72,
            "name": "C5",
            "ticks": 7296,
            "time": 8.028165000000001,
            "velocity": 0.3937007874015748
          },
          {
            "duration": 0.21126749999999994,
            "durationTicks": 192,
            "midi": 65,
            "name": "F4",
            "ticks": 7296,
            "time": 8.028165000000001,
            "velocity": 0.3937007874015748
          },
          {
            "duration": 0.21126749999999994,
            "durationTicks": 192,
            "midi": 48,
            "name": "C3",
            "ticks": 7488,
            "time": 8.239432500000001,
            "velocity": 0.3937007874015748
          },
          {
            "duration": 0.21126749999999994,
            "durationTicks": 192,
            "midi": 72,
            "name": "C5",
            "ticks": 7488,
            "time": 8.239432500000001,
            "velocity": 0.3937007874015748
          },
          {
            "duration": 0.21126749999999994,
            "durationTicks": 192,
            "midi": 56,
            "name": "G#3",
            "ticks": 7488,
            "time": 8.239432500000001,
            "velocity": 0.3937007874015748
          },
          {
            "duration": 0.21126749999999994,
            "durationTicks": 192,
            "midi": 65,
            "name": "F4",
            "ticks": 7488,
            "time": 8.239432500000001,
            "velocity": 0.3937007874015748
          },
          {
            "duration": 0.21126749999999994,
            "durationTicks": 192,
            "midi": 77,
            "name": "F5",
            "ticks": 7488,
            "time": 8.239432500000001,
            "velocity": 0.3937007874015748
          },
          {
            "duration": 0.21126749999999994,
            "durationTicks": 192,
            "midi": 53,
            "name": "F3",
            "ticks": 7488,
            "time": 8.239432500000001,
            "velocity": 0.3937007874015748
          },
          {
            "duration": 0.21126749999999994,
            "durationTicks": 192,
            "midi": 77,
            "name": "F5",
            "ticks": 7680,
            "time": 8.450700000000001,
            "velocity": 0.3937007874015748
          },
          {
            "duration": 0.21126749999999994,
            "durationTicks": 192,
            "midi": 80,
            "name": "G#5",
            "ticks": 7680,
            "time": 8.450700000000001,
            "velocity": 0.3937007874015748
          },
          {
            "duration": 0.21126749999999994,
            "durationTicks": 192,
            "midi": 36,
            "name": "C2",
            "ticks": 7680,
            "time": 8.450700000000001,
            "velocity": 0.3937007874015748
          },
          {
            "duration": 0.21126749999999994,
            "durationTicks": 192,
            "midi": 72,
            "name": "C5",
            "ticks": 7680,
            "time": 8.450700000000001,
            "velocity": 0.3937007874015748
          },
          {
            "duration": 0.21126749999999994,
            "durationTicks": 192,
            "midi": 48,
            "name": "C3",
            "ticks": 7680,
            "time": 8.450700000000001,
            "velocity": 0.3937007874015748
          },
          {
            "duration": 0.21126749999999994,
            "durationTicks": 192,
            "midi": 48,
            "name": "C3",
            "ticks": 7872,
            "time": 8.661967500000001,
            "velocity": 0.3937007874015748
          },
          {
            "duration": 0.21126749999999994,
            "durationTicks": 192,
            "midi": 53,
            "name": "F3",
            "ticks": 7872,
            "time": 8.661967500000001,
            "velocity": 0.3937007874015748
          },
          {
            "duration": 0.10563374999999908,
            "durationTicks": 96,
            "midi": 79,
            "name": "G5",
            "ticks": 7872,
            "time": 8.661967500000001,
            "velocity": 0.3937007874015748
          },
          {
            "duration": 0.21126749999999994,
            "durationTicks": 192,
            "midi": 56,
            "name": "G#3",
            "ticks": 7872,
            "time": 8.661967500000001,
            "velocity": 0.3937007874015748
          },
          {
            "duration": 0.10563375000000086,
            "durationTicks": 96,
            "midi": 77,
            "name": "F5",
            "ticks": 7968,
            "time": 8.76760125,
            "velocity": 0.3937007874015748
          },
          {
            "duration": 0.21126749999999994,
            "durationTicks": 192,
            "midi": 55,
            "name": "G3",
            "ticks": 8064,
            "time": 8.873235000000001,
            "velocity": 0.3937007874015748
          },
          {
            "duration": 0.21126749999999994,
            "durationTicks": 192,
            "midi": 76,
            "name": "E5",
            "ticks": 8064,
            "time": 8.873235000000001,
            "velocity": 0.3937007874015748
          },
          {
            "duration": 0.21126749999999994,
            "durationTicks": 192,
            "midi": 79,
            "name": "G5",
            "ticks": 8064,
            "time": 8.873235000000001,
            "velocity": 0.3937007874015748
          },
          {
            "duration": 0.21126749999999994,
            "durationTicks": 192,
            "midi": 72,
            "name": "C5",
            "ticks": 8064,
            "time": 8.873235000000001,
            "velocity": 0.3937007874015748
          },
          {
            "duration": 0.21126749999999994,
            "durationTicks": 192,
            "midi": 43,
            "name": "G2",
            "ticks": 8064,
            "time": 8.873235000000001,
            "velocity": 0.3937007874015748
          },
          {
            "duration": 0.21126749999999994,
            "durationTicks": 192,
            "midi": 79,
            "name": "G5",
            "ticks": 8256,
            "time": 9.084502500000001,
            "velocity": 0.3937007874015748
          },
          {
            "duration": 0.21126749999999994,
            "durationTicks": 192,
            "midi": 72,
            "name": "C5",
            "ticks": 8256,
            "time": 9.084502500000001,
            "velocity": 0.3937007874015748
          },
          {
            "duration": 0.21126749999999994,
            "durationTicks": 192,
            "midi": 60,
            "name": "C4",
            "ticks": 8256,
            "time": 9.084502500000001,
            "velocity": 0.3937007874015748
          },
          {
            "duration": 0.21126749999999994,
            "durationTicks": 192,
            "midi": 76,
            "name": "E5",
            "ticks": 8256,
            "time": 9.084502500000001,
            "velocity": 0.3937007874015748
          },
          {
            "duration": 0.21126749999999994,
            "durationTicks": 192,
            "midi": 55,
            "name": "G3",
            "ticks": 8256,
            "time": 9.084502500000001,
            "velocity": 0.3937007874015748
          },
          {
            "duration": 0.21126749999999994,
            "durationTicks": 192,
            "midi": 58,
            "name": "A#3",
            "ticks": 8256,
            "time": 9.084502500000001,
            "velocity": 0.3937007874015748
          },
          {
            "duration": 0.21126749999999994,
            "durationTicks": 192,
            "midi": 43,
            "name": "G2",
            "ticks": 8448,
            "time": 9.295770000000001,
            "velocity": 0.3937007874015748
          },
          {
            "duration": 0.10563375000000086,
            "durationTicks": 96,
            "midi": 80,
            "name": "G#5",
            "ticks": 8448,
            "time": 9.295770000000001,
            "velocity": 0.3937007874015748
          },
          {
            "duration": 0.21126749999999994,
            "durationTicks": 192,
            "midi": 55,
            "name": "G3",
            "ticks": 8448,
            "time": 9.295770000000001,
            "velocity": 0.3937007874015748
          },
          {
            "duration": 0.10563374999999908,
            "durationTicks": 96,
            "midi": 82,
            "name": "A#5",
            "ticks": 8520,
            "time": 9.374995312500001,
            "velocity": 0.3937007874015748
          },
          {
            "duration": 0.10563374999999908,
            "durationTicks": 96,
            "midi": 80,
            "name": "G#5",
            "ticks": 8592,
            "time": 9.454220625000001,
            "velocity": 0.3937007874015748
          },
          {
            "duration": 0.21126749999999994,
            "durationTicks": 192,
            "midi": 60,
            "name": "C4",
            "ticks": 8640,
            "time": 9.507037500000001,
            "velocity": 0.3937007874015748
          },
          {
            "duration": 0.21126749999999994,
            "durationTicks": 192,
            "midi": 77,
            "name": "F5",
            "ticks": 8640,
            "time": 9.507037500000001,
            "velocity": 0.3937007874015748
          },
          {
            "duration": 0.21126749999999994,
            "durationTicks": 192,
            "midi": 55,
            "name": "G3",
            "ticks": 8640,
            "time": 9.507037500000001,
            "velocity": 0.3937007874015748
          },
          {
            "duration": 0.21126749999999994,
            "durationTicks": 192,
            "midi": 58,
            "name": "A#3",
            "ticks": 8640,
            "time": 9.507037500000001,
            "velocity": 0.3937007874015748
          },
          {
            "duration": 0.21126749999999994,
            "durationTicks": 192,
            "midi": 48,
            "name": "C3",
            "ticks": 8832,
            "time": 9.718305,
            "velocity": 0.3937007874015748
          },
          {
            "duration": 0.4225349999999999,
            "durationTicks": 384,
            "midi": 76,
            "name": "E5",
            "ticks": 8832,
            "time": 9.718305,
            "velocity": 0.3937007874015748
          },
          {
            "duration": 0.4225349999999999,
            "durationTicks": 384,
            "midi": 79,
            "name": "G5",
            "ticks": 8832,
            "time": 9.718305,
            "velocity": 0.3937007874015748
          },
          {
            "duration": 0.4225349999999999,
            "durationTicks": 384,
            "midi": 72,
            "name": "C5",
            "ticks": 8832,
            "time": 9.718305,
            "velocity": 0.3937007874015748
          },
          {
            "duration": 0.21126749999999994,
            "durationTicks": 192,
            "midi": 36,
            "name": "C2",
            "ticks": 8832,
            "time": 9.718305,
            "velocity": 0.3937007874015748
          },
          {
            "duration": 0.4225349999999999,
            "durationTicks": 384,
            "midi": 67,
            "name": "G4",
            "ticks": 8832,
            "time": 9.718305,
            "velocity": 0.3937007874015748
          },
          {
            "duration": 0.21126749999999994,
            "durationTicks": 192,
            "midi": 55,
            "name": "G3",
            "ticks": 9024,
            "time": 9.9295725,
            "velocity": 0.3937007874015748
          },
          {
            "duration": 0.21126749999999994,
            "durationTicks": 192,
            "midi": 60,
            "name": "C4",
            "ticks": 9024,
            "time": 9.9295725,
            "velocity": 0.3937007874015748
          },
          {
            "duration": 0.21126749999999994,
            "durationTicks": 192,
            "midi": 58,
            "name": "A#3",
            "ticks": 9024,
            "time": 9.9295725,
            "velocity": 0.3937007874015748
          },
          {
            "duration": 0.21126749999999994,
            "durationTicks": 192,
            "midi": 36,
            "name": "C2",
            "ticks": 9216,
            "time": 10.14084,
            "velocity": 0.3937007874015748
          },
          {
            "duration": 0.21126749999999994,
            "durationTicks": 192,
            "midi": 48,
            "name": "C3",
            "ticks": 9216,
            "time": 10.14084,
            "velocity": 0.3937007874015748
          },
          {
            "duration": 0.21126749999999994,
            "durationTicks": 192,
            "midi": 60,
            "name": "C4",
            "ticks": 9408,
            "time": 10.3521075,
            "velocity": 0.3937007874015748
          },
          {
            "duration": 0.21126749999999994,
            "durationTicks": 192,
            "midi": 58,
            "name": "A#3",
            "ticks": 9408,
            "time": 10.3521075,
            "velocity": 0.3937007874015748
          },
          {
            "duration": 0.21126749999999994,
            "durationTicks": 192,
            "midi": 55,
            "name": "G3",
            "ticks": 9408,
            "time": 10.3521075,
            "velocity": 0.3937007874015748
          },
          {
            "duration": 0.21126749999999994,
            "durationTicks": 192,
            "midi": 76,
            "name": "E5",
            "ticks": 9600,
            "time": 10.563375,
            "velocity": 0.3937007874015748
          },
          {
            "duration": 0.21126749999999994,
            "durationTicks": 192,
            "midi": 43,
            "name": "G2",
            "ticks": 9600,
            "time": 10.563375,
            "velocity": 0.3937007874015748
          },
          {
            "duration": 0.21126749999999994,
            "durationTicks": 192,
            "midi": 85,
            "name": "C#6",
            "ticks": 9600,
            "time": 10.563375,
            "velocity": 0.3937007874015748
          },
          {
            "duration": 0.21126749999999994,
            "durationTicks": 192,
            "midi": 82,
            "name": "A#5",
            "ticks": 9600,
            "time": 10.563375,
            "velocity": 0.3937007874015748
          },
          {
            "duration": 0.21126749999999994,
            "durationTicks": 192,
            "midi": 55,
            "name": "G3",
            "ticks": 9600,
            "time": 10.563375,
            "velocity": 0.3937007874015748
          },
          {
            "duration": 0.21126749999999994,
            "durationTicks": 192,
            "midi": 58,
            "name": "A#3",
            "ticks": 9792,
            "time": 10.7746425,
            "velocity": 0.3937007874015748
          },
          {
            "duration": 0.21126749999999994,
            "durationTicks": 192,
            "midi": 60,
            "name": "C4",
            "ticks": 9792,
            "time": 10.7746425,
            "velocity": 0.3937007874015748
          },
          {
            "duration": 0.21126749999999994,
            "durationTicks": 192,
            "midi": 76,
            "name": "E5",
            "ticks": 9792,
            "time": 10.7746425,
            "velocity": 0.3937007874015748
          },
          {
            "duration": 0.21126749999999994,
            "durationTicks": 192,
            "midi": 85,
            "name": "C#6",
            "ticks": 9792,
            "time": 10.7746425,
            "velocity": 0.3937007874015748
          },
          {
            "duration": 0.21126749999999994,
            "durationTicks": 192,
            "midi": 55,
            "name": "G3",
            "ticks": 9792,
            "time": 10.7746425,
            "velocity": 0.3937007874015748
          },
          {
            "duration": 0.21126749999999994,
            "durationTicks": 192,
            "midi": 82,
            "name": "A#5",
            "ticks": 9792,
            "time": 10.7746425,
            "velocity": 0.3937007874015748
          },
          {
            "duration": 0.10563375000000086,
            "durationTicks": 96,
            "midi": 85,
            "name": "C#6",
            "ticks": 9984,
            "time": 10.98591,
            "velocity": 0.3937007874015748
          },
          {
            "duration": 0.21126749999999994,
            "durationTicks": 192,
            "midi": 36,
            "name": "C2",
            "ticks": 9984,
            "time": 10.98591,
            "velocity": 0.3937007874015748
          },
          {
            "duration": 0.21126749999999994,
            "durationTicks": 192,
            "midi": 48,
            "name": "C3",
            "ticks": 9984,
            "time": 10.98591,
            "velocity": 0.3937007874015748
          },
          {
            "duration": 0.10563375000000086,
            "durationTicks": 96,
            "midi": 87,
            "name": "D#6",
            "ticks": 10056,
            "time": 11.0651353125,
            "velocity": 0.3937007874015748
          },
          {
            "duration": 0.10563375000000086,
            "durationTicks": 96,
            "midi": 85,
            "name": "C#6",
            "ticks": 10128,
            "time": 11.144360625000001,
            "velocity": 0.3937007874015748
          },
          {
            "duration": 0.21126750000000172,
            "durationTicks": 192,
            "midi": 60,
            "name": "C4",
            "ticks": 10176,
            "time": 11.1971775,
            "velocity": 0.3937007874015748
          },
          {
            "duration": 0.21126750000000172,
            "durationTicks": 192,
            "midi": 55,
            "name": "G3",
            "ticks": 10176,
            "time": 11.1971775,
            "velocity": 0.3937007874015748
          },
          {
            "duration": 0.21126750000000172,
            "durationTicks": 192,
            "midi": 58,
            "name": "A#3",
            "ticks": 10176,
            "time": 11.1971775,
            "velocity": 0.3937007874015748
          },
          {
            "duration": 0.10563375000000086,
            "durationTicks": 96,
            "midi": 84,
            "name": "C6",
            "ticks": 10200,
            "time": 11.223585937500001,
            "velocity": 0.3937007874015748
          },
          {
            "duration": 0.10563375000000086,
            "durationTicks": 96,
            "midi": 82,
            "name": "A#5",
            "ticks": 10272,
            "time": 11.302811250000001,
            "velocity": 0.3937007874015748
          },
          {
            "duration": 0.21126749999999994,
            "durationTicks": 192,
            "midi": 52,
            "name": "E3",
            "ticks": 10368,
            "time": 11.408445000000002,
            "velocity": 0.3937007874015748
          },
          {
            "duration": 0.21126749999999994,
            "durationTicks": 192,
            "midi": 40,
            "name": "E2",
            "ticks": 10368,
            "time": 11.408445000000002,
            "velocity": 0.3937007874015748
          },
          {
            "duration": 0.21126749999999994,
            "durationTicks": 192,
            "midi": 72,
            "name": "C5",
            "ticks": 10368,
            "time": 11.408445000000002,
            "velocity": 0.3937007874015748
          },
          {
            "duration": 0.21126749999999994,
            "durationTicks": 192,
            "midi": 84,
            "name": "C6",
            "ticks": 10368,
            "time": 11.408445000000002,
            "velocity": 0.3937007874015748
          },
          {
            "duration": 0.21126749999999994,
            "durationTicks": 192,
            "midi": 60,
            "name": "C4",
            "ticks": 10560,
            "time": 11.619712500000002,
            "velocity": 0.3937007874015748
          },
          {
            "duration": 0.21126749999999994,
            "durationTicks": 192,
            "midi": 58,
            "name": "A#3",
            "ticks": 10560,
            "time": 11.619712500000002,
            "velocity": 0.3937007874015748
          },
          {
            "duration": 0.21126749999999994,
            "durationTicks": 192,
            "midi": 84,
            "name": "C6",
            "ticks": 10560,
            "time": 11.619712500000002,
            "velocity": 0.3937007874015748
          },
          {
            "duration": 0.21126749999999994,
            "durationTicks": 192,
            "midi": 72,
            "name": "C5",
            "ticks": 10560,
            "time": 11.619712500000002,
            "velocity": 0.3937007874015748
          },
          {
            "duration": 0.21126749999999994,
            "durationTicks": 192,
            "midi": 76,
            "name": "E5",
            "ticks": 10560,
            "time": 11.619712500000002,
            "velocity": 0.3937007874015748
          },
          {
            "duration": 0.21126749999999994,
            "durationTicks": 192,
            "midi": 55,
            "name": "G3",
            "ticks": 10560,
            "time": 11.619712500000002,
            "velocity": 0.3937007874015748
          },
          {
            "duration": 0.21126749999999994,
            "durationTicks": 192,
            "midi": 79,
            "name": "G5",
            "ticks": 10560,
            "time": 11.619712500000002,
            "velocity": 0.3937007874015748
          },
          {
            "duration": 0.21126749999999994,
            "durationTicks": 192,
            "midi": 48,
            "name": "C3",
            "ticks": 10752,
            "time": 11.830980000000002,
            "velocity": 0.3937007874015748
          },
          {
            "duration": 0.21126749999999994,
            "durationTicks": 192,
            "midi": 36,
            "name": "C2",
            "ticks": 10752,
            "time": 11.830980000000002,
            "velocity": 0.3937007874015748
          },
          {
            "duration": 0.10563374999999908,
            "durationTicks": 96,
            "midi": 84,
            "name": "C6",
            "ticks": 10752,
            "time": 11.830980000000002,
            "velocity": 0.3937007874015748
          },
          {
            "duration": 0.10563375000000086,
            "durationTicks": 96,
            "midi": 85,
            "name": "C#6",
            "ticks": 10848,
            "time": 11.936613750000001,
            "velocity": 0.3937007874015748
          },
          {
            "duration": 0.21126749999999994,
            "durationTicks": 192,
            "midi": 55,
            "name": "G3",
            "ticks": 10944,
            "time": 12.042247500000002,
            "velocity": 0.3937007874015748
          },
          {
            "duration": 0.21126749999999994,
            "durationTicks": 192,
            "midi": 60,
            "name": "C4",
            "ticks": 10944,
            "time": 12.042247500000002,
            "velocity": 0.3937007874015748
          },
          {
            "duration": 0.10563374999999908,
            "durationTicks": 96,
            "midi": 84,
            "name": "C6",
            "ticks": 10944,
            "time": 12.042247500000002,
            "velocity": 0.3937007874015748
          },
          {
            "duration": 0.21126749999999994,
            "durationTicks": 192,
            "midi": 58,
            "name": "A#3",
            "ticks": 10944,
            "time": 12.042247500000002,
            "velocity": 0.3937007874015748
          },
          {
            "duration": 0.10563375000000086,
            "durationTicks": 96,
            "midi": 82,
            "name": "A#5",
            "ticks": 11040,
            "time": 12.147881250000001,
            "velocity": 0.3937007874015748
          },
          {
            "duration": 0.21126749999999994,
            "durationTicks": 192,
            "midi": 48,
            "name": "C3",
            "ticks": 11136,
            "time": 12.253515000000002,
            "velocity": 0.3937007874015748
          },
          {
            "duration": 0.21126749999999994,
            "durationTicks": 192,
            "midi": 76,
            "name": "E5",
            "ticks": 11136,
            "time": 12.253515000000002,
            "velocity": 0.3937007874015748
          },
          {
            "duration": 0.21126749999999994,
            "durationTicks": 192,
            "midi": 36,
            "name": "C2",
            "ticks": 11136,
            "time": 12.253515000000002,
            "velocity": 0.3937007874015748
          },
          {
            "duration": 0.21126749999999994,
            "durationTicks": 192,
            "midi": 72,
            "name": "C5",
            "ticks": 11136,
            "time": 12.253515000000002,
            "velocity": 0.3937007874015748
          },
          {
            "duration": 0.21126749999999994,
            "durationTicks": 192,
            "midi": 80,
            "name": "G#5",
            "ticks": 11136,
            "time": 12.253515000000002,
            "velocity": 0.3937007874015748
          },
          {
            "duration": 0.21126749999999994,
            "durationTicks": 192,
            "midi": 72,
            "name": "C5",
            "ticks": 11328,
            "time": 12.464782500000002,
            "velocity": 0.3937007874015748
          },
          {
            "duration": 0.21126749999999994,
            "durationTicks": 192,
            "midi": 58,
            "name": "A#3",
            "ticks": 11328,
            "time": 12.464782500000002,
            "velocity": 0.3937007874015748
          },
          {
            "duration": 0.21126749999999994,
            "durationTicks": 192,
            "midi": 80,
            "name": "G#5",
            "ticks": 11328,
            "time": 12.464782500000002,
            "velocity": 0.3937007874015748
          },
          {
            "duration": 0.21126749999999994,
            "durationTicks": 192,
            "midi": 60,
            "name": "C4",
            "ticks": 11328,
            "time": 12.464782500000002,
            "velocity": 0.3937007874015748
          },
          {
            "duration": 0.21126749999999994,
            "durationTicks": 192,
            "midi": 64,
            "name": "E4",
            "ticks": 11328,
            "time": 12.464782500000002,
            "velocity": 0.3937007874015748
          },
          {
            "duration": 0.21126749999999994,
            "durationTicks": 192,
            "midi": 76,
            "name": "E5",
            "ticks": 11328,
            "time": 12.464782500000002,
            "velocity": 0.3937007874015748
          },
          {
            "duration": 0.21126749999999994,
            "durationTicks": 192,
            "midi": 36,
            "name": "C2",
            "ticks": 11520,
            "time": 12.676050000000002,
            "velocity": 0.3937007874015748
          },
          {
            "duration": 0.21126749999999994,
            "durationTicks": 192,
            "midi": 48,
            "name": "C3",
            "ticks": 11520,
            "time": 12.676050000000002,
            "velocity": 0.3937007874015748
          },
          {
            "duration": 0.10563374999999908,
            "durationTicks": 96,
            "midi": 82,
            "name": "A#5",
            "ticks": 11520,
            "time": 12.676050000000002,
            "velocity": 0.3937007874015748
          },
          {
            "duration": 0.10563375000000086,
            "durationTicks": 96,
            "midi": 84,
            "name": "C6",
            "ticks": 11616,
            "time": 12.781683750000001,
            "velocity": 0.3937007874015748
          },
          {
            "duration": 0.10563374999999908,
            "durationTicks": 96,
            "midi": 82,
            "name": "A#5",
            "ticks": 11712,
            "time": 12.887317500000002,
            "velocity": 0.3937007874015748
          },
          {
            "duration": 0.21126749999999994,
            "durationTicks": 192,
            "midi": 58,
            "name": "A#3",
            "ticks": 11712,
            "time": 12.887317500000002,
            "velocity": 0.3937007874015748
          },
          {
            "duration": 0.21126749999999994,
            "durationTicks": 192,
            "midi": 64,
            "name": "E4",
            "ticks": 11712,
            "time": 12.887317500000002,
            "velocity": 0.3937007874015748
          },
          {
            "duration": 0.21126749999999994,
            "durationTicks": 192,
            "midi": 60,
            "name": "C4",
            "ticks": 11712,
            "time": 12.887317500000002,
            "velocity": 0.3937007874015748
          },
          {
            "duration": 0.10563375000000086,
            "durationTicks": 96,
            "midi": 79,
            "name": "G5",
            "ticks": 11808,
            "time": 12.99295125,
            "velocity": 0.3937007874015748
          },
          {
            "duration": 0.21126749999999994,
            "durationTicks": 192,
            "midi": 53,
            "name": "F3",
            "ticks": 11904,
            "time": 13.098585000000002,
            "velocity": 0.3937007874015748
          },
          {
            "duration": 0.21126749999999994,
            "durationTicks": 192,
            "midi": 41,
            "name": "F2",
            "ticks": 11904,
            "time": 13.098585000000002,
            "velocity": 0.3937007874015748
          },
          {
            "duration": 0.21126749999999994,
            "durationTicks": 192,
            "midi": 68,
            "name": "G#4",
            "ticks": 11904,
            "time": 13.098585000000002,
            "velocity": 0.3937007874015748
          },
          {
            "duration": 0.21126749999999994,
            "durationTicks": 192,
            "midi": 72,
            "name": "C5",
            "ticks": 11904,
            "time": 13.098585000000002,
            "velocity": 0.3937007874015748
          },
          {
            "duration": 0.21126749999999994,
            "durationTicks": 192,
            "midi": 77,
            "name": "F5",
            "ticks": 11904,
            "time": 13.098585000000002,
            "velocity": 0.3937007874015748
          },
          {
            "duration": 0.21126749999999994,
            "durationTicks": 192,
            "midi": 76,
            "name": "E5",
            "ticks": 12288,
            "time": 13.521120000000002,
            "velocity": 0.3937007874015748
          },
          {
            "duration": 0.21126749999999994,
            "durationTicks": 192,
            "midi": 84,
            "name": "C6",
            "ticks": 12288,
            "time": 13.521120000000002,
            "velocity": 0.3937007874015748
          },
          {
            "duration": 0.21126749999999994,
            "durationTicks": 192,
            "midi": 79,
            "name": "G5",
            "ticks": 12288,
            "time": 13.521120000000002,
            "velocity": 0.3937007874015748
          },
          {
            "duration": 0.4225349999999999,
            "durationTicks": 384,
            "midi": 36,
            "name": "C2",
            "ticks": 12288,
            "time": 13.521120000000002,
            "velocity": 0.3937007874015748
          },
          {
            "duration": 0.21126749999999994,
            "durationTicks": 192,
            "midi": 72,
            "name": "C5",
            "ticks": 12288,
            "time": 13.521120000000002,
            "velocity": 0.3937007874015748
          },
          {
            "duration": 0.21126749999999994,
            "durationTicks": 192,
            "midi": 82,
            "name": "A#5",
            "ticks": 12288,
            "time": 13.521120000000002,
            "velocity": 0.3937007874015748
          },
          {
            "duration": 0.4225349999999999,
            "durationTicks": 384,
            "midi": 48,
            "name": "C3",
            "ticks": 12288,
            "time": 13.521120000000002,
            "velocity": 0.3937007874015748
          },
          {
            "duration": 0.3169012500000008,
            "durationTicks": 288,
            "midi": 72,
            "name": "C5",
            "ticks": 12672,
            "time": 13.943655000000001,
            "velocity": 0.3937007874015748
          },
          {
            "duration": 0.3169012500000008,
            "durationTicks": 288,
            "midi": 77,
            "name": "F5",
            "ticks": 12672,
            "time": 13.943655000000001,
            "velocity": 0.3937007874015748
          },
          {
            "duration": 0.21126749999999994,
            "durationTicks": 192,
            "midi": 53,
            "name": "F3",
            "ticks": 12672,
            "time": 13.943655000000001,
            "velocity": 0.3937007874015748
          },
          {
            "duration": 0.3169012500000008,
            "durationTicks": 288,
            "midi": 80,
            "name": "G#5",
            "ticks": 12672,
            "time": 13.943655000000001,
            "velocity": 0.3937007874015748
          },
          {
            "duration": 0.3169012500000008,
            "durationTicks": 288,
            "midi": 84,
            "name": "C6",
            "ticks": 12672,
            "time": 13.943655000000001,
            "velocity": 0.3937007874015748
          },
          {
            "duration": 0.21126749999999994,
            "durationTicks": 192,
            "midi": 41,
            "name": "F2",
            "ticks": 12672,
            "time": 13.943655000000001,
            "velocity": 0.3937007874015748
          },
          {
            "duration": 0.21126749999999994,
            "durationTicks": 192,
            "midi": 48,
            "name": "C3",
            "ticks": 12864,
            "time": 14.154922500000001,
            "velocity": 0.3937007874015748
          },
          {
            "duration": 0.21126749999999994,
            "durationTicks": 192,
            "midi": 56,
            "name": "G#3",
            "ticks": 12864,
            "time": 14.154922500000001,
            "velocity": 0.3937007874015748
          },
          {
            "duration": 0.21126749999999994,
            "durationTicks": 192,
            "midi": 53,
            "name": "F3",
            "ticks": 12864,
            "time": 14.154922500000001,
            "velocity": 0.3937007874015748
          },
          {
            "duration": 0.3169012500000008,
            "durationTicks": 288,
            "midi": 72,
            "name": "C5",
            "ticks": 13056,
            "time": 14.366190000000001,
            "velocity": 0.3937007874015748
          },
          {
            "duration": 0.3169012500000008,
            "durationTicks": 288,
            "midi": 77,
            "name": "F5",
            "ticks": 13056,
            "time": 14.366190000000001,
            "velocity": 0.3937007874015748
          },
          {
            "duration": 0.3169012500000008,
            "durationTicks": 288,
            "midi": 80,
            "name": "G#5",
            "ticks": 13056,
            "time": 14.366190000000001,
            "velocity": 0.3937007874015748
          },
          {
            "duration": 0.21126749999999994,
            "durationTicks": 192,
            "midi": 36,
            "name": "C2",
            "ticks": 13056,
            "time": 14.366190000000001,
            "velocity": 0.3937007874015748
          },
          {
            "duration": 0.21126749999999994,
            "durationTicks": 192,
            "midi": 48,
            "name": "C3",
            "ticks": 13056,
            "time": 14.366190000000001,
            "velocity": 0.3937007874015748
          },
          {
            "duration": 0.3169012500000008,
            "durationTicks": 288,
            "midi": 84,
            "name": "C6",
            "ticks": 13056,
            "time": 14.366190000000001,
            "velocity": 0.3937007874015748
          },
          {
            "duration": 0.21126749999999994,
            "durationTicks": 192,
            "midi": 56,
            "name": "G#3",
            "ticks": 13248,
            "time": 14.577457500000001,
            "velocity": 0.3937007874015748
          },
          {
            "duration": 0.21126749999999994,
            "durationTicks": 192,
            "midi": 48,
            "name": "C3",
            "ticks": 13248,
            "time": 14.577457500000001,
            "velocity": 0.3937007874015748
          },
          {
            "duration": 0.21126749999999994,
            "durationTicks": 192,
            "midi": 53,
            "name": "F3",
            "ticks": 13248,
            "time": 14.577457500000001,
            "velocity": 0.3937007874015748
          },
          {
            "duration": 0.10563375000000086,
            "durationTicks": 96,
            "midi": 87,
            "name": "D#6",
            "ticks": 13392,
            "time": 14.735908125000002,
            "velocity": 0.3937007874015748
          },
          {
            "duration": 0.10563374999999908,
            "durationTicks": 96,
            "midi": 88,
            "name": "E6",
            "ticks": 13416,
            "time": 14.762316562500002,
            "velocity": 0.3937007874015748
          },
          {
            "duration": 0.4225349999999999,
            "durationTicks": 384,
            "midi": 89,
            "name": "F6",
            "ticks": 13440,
            "time": 14.788725000000001,
            "velocity": 0.3937007874015748
          },
          {
            "duration": 0.4225349999999999,
            "durationTicks": 384,
            "midi": 77,
            "name": "F5",
            "ticks": 13440,
            "time": 14.788725000000001,
            "velocity": 0.3937007874015748
          },
          {
            "duration": 0.21126749999999994,
            "durationTicks": 192,
            "midi": 41,
            "name": "F2",
            "ticks": 13440,
            "time": 14.788725000000001,
            "velocity": 0.3937007874015748
          },
          {
            "duration": 0.21126749999999994,
            "durationTicks": 192,
            "midi": 29,
            "name": "F1",
            "ticks": 13440,
            "time": 14.788725000000001,
            "velocity": 0.3937007874015748
          },
          {
            "duration": 0.21126749999999994,
            "durationTicks": 192,
            "midi": 53,
            "name": "F3",
            "ticks": 13632,
            "time": 14.999992500000001,
            "velocity": 0.3937007874015748
          },
          {
            "duration": 0.21126749999999994,
            "durationTicks": 192,
            "midi": 56,
            "name": "G#3",
            "ticks": 13632,
            "time": 14.999992500000001,
            "velocity": 0.3937007874015748
          },
          {
            "duration": 0.21126749999999994,
            "durationTicks": 192,
            "midi": 48,
            "name": "C3",
            "ticks": 13632,
            "time": 14.999992500000001,
            "velocity": 0.3937007874015748
          },
          {
            "duration": 0.21126749999999994,
            "durationTicks": 192,
            "midi": 32,
            "name": "G#1",
            "ticks": 13824,
            "time": 15.211260000000001,
            "velocity": 0.3937007874015748
          },
          {
            "duration": 0.21126749999999994,
            "durationTicks": 192,
            "midi": 44,
            "name": "G#2",
            "ticks": 13824,
            "time": 15.211260000000001,
            "velocity": 0.3937007874015748
          },
          {
            "duration": 0.4225349999999999,
            "durationTicks": 384,
            "midi": 72,
            "name": "C5",
            "ticks": 13824,
            "time": 15.211260000000001,
            "velocity": 0.3937007874015748
          },
          {
            "duration": 0.4225349999999999,
            "durationTicks": 384,
            "midi": 84,
            "name": "C6",
            "ticks": 13824,
            "time": 15.211260000000001,
            "velocity": 0.3937007874015748
          },
          {
            "duration": 0.4225349999999999,
            "durationTicks": 384,
            "midi": 77,
            "name": "F5",
            "ticks": 13824,
            "time": 15.211260000000001,
            "velocity": 0.3937007874015748
          },
          {
            "duration": 0.21126749999999994,
            "durationTicks": 192,
            "midi": 56,
            "name": "G#3",
            "ticks": 14016,
            "time": 15.422527500000001,
            "velocity": 0.3937007874015748
          },
          {
            "duration": 0.21126749999999994,
            "durationTicks": 192,
            "midi": 48,
            "name": "C3",
            "ticks": 14016,
            "time": 15.422527500000001,
            "velocity": 0.3937007874015748
          },
          {
            "duration": 0.21126749999999994,
            "durationTicks": 192,
            "midi": 53,
            "name": "F3",
            "ticks": 14016,
            "time": 15.422527500000001,
            "velocity": 0.3937007874015748
          },
          {
            "duration": 0.21126750000000172,
            "durationTicks": 192,
            "midi": 43,
            "name": "G2",
            "ticks": 14208,
            "time": 15.633795000000001,
            "velocity": 0.3937007874015748
          },
          {
            "duration": 0.21126750000000172,
            "durationTicks": 192,
            "midi": 79,
            "name": "G5",
            "ticks": 14208,
            "time": 15.633795000000001,
            "velocity": 0.3937007874015748
          },
          {
            "duration": 0.21126750000000172,
            "durationTicks": 192,
            "midi": 75,
            "name": "D#5",
            "ticks": 14208,
            "time": 15.633795000000001,
            "velocity": 0.3937007874015748
          },
          {
            "duration": 0.21126750000000172,
            "durationTicks": 192,
            "midi": 87,
            "name": "D#6",
            "ticks": 14208,
            "time": 15.633795000000001,
            "velocity": 0.3937007874015748
          },
          {
            "duration": 0.21126750000000172,
            "durationTicks": 192,
            "midi": 31,
            "name": "G1",
            "ticks": 14208,
            "time": 15.633795000000001,
            "velocity": 0.3937007874015748
          },
          {
            "duration": 0.21126749999999994,
            "durationTicks": 192,
            "midi": 85,
            "name": "C#6",
            "ticks": 14400,
            "time": 15.845062500000003,
            "velocity": 0.3937007874015748
          },
          {
            "duration": 0.21126749999999994,
            "durationTicks": 192,
            "midi": 58,
            "name": "A#3",
            "ticks": 14400,
            "time": 15.845062500000003,
            "velocity": 0.3937007874015748
          },
          {
            "duration": 0.21126749999999994,
            "durationTicks": 192,
            "midi": 61,
            "name": "C#4",
            "ticks": 14400,
            "time": 15.845062500000003,
            "velocity": 0.3937007874015748
          },
          {
            "duration": 0.21126749999999994,
            "durationTicks": 192,
            "midi": 55,
            "name": "G3",
            "ticks": 14400,
            "time": 15.845062500000003,
            "velocity": 0.3937007874015748
          },
          {
            "duration": 0.21126749999999994,
            "durationTicks": 192,
            "midi": 73,
            "name": "C#5",
            "ticks": 14400,
            "time": 15.845062500000003,
            "velocity": 0.3937007874015748
          },
          {
            "duration": 0.21126749999999817,
            "durationTicks": 192,
            "midi": 31,
            "name": "G1",
            "ticks": 14592,
            "time": 16.056330000000003,
            "velocity": 0.3937007874015748
          },
          {
            "duration": 0.21126749999999817,
            "durationTicks": 192,
            "midi": 43,
            "name": "G2",
            "ticks": 14592,
            "time": 16.056330000000003,
            "velocity": 0.3937007874015748
          },
          {
            "duration": 0.21126749999999817,
            "durationTicks": 192,
            "midi": 72,
            "name": "C5",
            "ticks": 14592,
            "time": 16.056330000000003,
            "velocity": 0.3937007874015748
          },
          {
            "duration": 0.21126749999999817,
            "durationTicks": 192,
            "midi": 84,
            "name": "C6",
            "ticks": 14592,
            "time": 16.056330000000003,
            "velocity": 0.3937007874015748
          },
          {
            "duration": 0.21126750000000172,
            "durationTicks": 192,
            "midi": 55,
            "name": "G3",
            "ticks": 14784,
            "time": 16.2675975,
            "velocity": 0.3937007874015748
          },
          {
            "duration": 0.21126750000000172,
            "durationTicks": 192,
            "midi": 85,
            "name": "C#6",
            "ticks": 14784,
            "time": 16.2675975,
            "velocity": 0.3937007874015748
          },
          {
            "duration": 0.21126750000000172,
            "durationTicks": 192,
            "midi": 58,
            "name": "A#3",
            "ticks": 14784,
            "time": 16.2675975,
            "velocity": 0.3937007874015748
          },
          {
            "duration": 0.21126750000000172,
            "durationTicks": 192,
            "midi": 61,
            "name": "C#4",
            "ticks": 14784,
            "time": 16.2675975,
            "velocity": 0.3937007874015748
          },
          {
            "duration": 0.21126750000000172,
            "durationTicks": 192,
            "midi": 73,
            "name": "C#5",
            "ticks": 14784,
            "time": 16.2675975,
            "velocity": 0.3937007874015748
          },
          {
            "duration": 0.4225349999999999,
            "durationTicks": 384,
            "midi": 70,
            "name": "A#4",
            "ticks": 14976,
            "time": 16.478865000000003,
            "velocity": 0.3937007874015748
          },
          {
            "duration": 0.21126749999999817,
            "durationTicks": 192,
            "midi": 46,
            "name": "A#2",
            "ticks": 14976,
            "time": 16.478865000000003,
            "velocity": 0.3937007874015748
          },
          {
            "duration": 0.21126749999999817,
            "durationTicks": 192,
            "midi": 34,
            "name": "A#1",
            "ticks": 14976,
            "time": 16.478865000000003,
            "velocity": 0.3937007874015748
          },
          {
            "duration": 0.4225349999999999,
            "durationTicks": 384,
            "midi": 79,
            "name": "G5",
            "ticks": 14976,
            "time": 16.478865000000003,
            "velocity": 0.3937007874015748
          },
          {
            "duration": 0.4225349999999999,
            "durationTicks": 384,
            "midi": 76,
            "name": "E5",
            "ticks": 14976,
            "time": 16.478865000000003,
            "velocity": 0.3937007874015748
          },
          {
            "duration": 0.4225349999999999,
            "durationTicks": 384,
            "midi": 82,
            "name": "A#5",
            "ticks": 14976,
            "time": 16.478865000000003,
            "velocity": 0.3937007874015748
          },
          {
            "duration": 0.21126750000000172,
            "durationTicks": 192,
            "midi": 58,
            "name": "A#3",
            "ticks": 15168,
            "time": 16.6901325,
            "velocity": 0.3937007874015748
          },
          {
            "duration": 0.21126750000000172,
            "durationTicks": 192,
            "midi": 55,
            "name": "G3",
            "ticks": 15168,
            "time": 16.6901325,
            "velocity": 0.3937007874015748
          },
          {
            "duration": 0.21126750000000172,
            "durationTicks": 192,
            "midi": 61,
            "name": "C#4",
            "ticks": 15168,
            "time": 16.6901325,
            "velocity": 0.3937007874015748
          },
          {
            "duration": 0.21126749999999817,
            "durationTicks": 192,
            "midi": 31,
            "name": "G1",
            "ticks": 15360,
            "time": 16.901400000000002,
            "velocity": 0.3937007874015748
          },
          {
            "duration": 0.21126749999999817,
            "durationTicks": 192,
            "midi": 43,
            "name": "G2",
            "ticks": 15360,
            "time": 16.901400000000002,
            "velocity": 0.3937007874015748
          },
          {
            "duration": 0.21126750000000172,
            "durationTicks": 192,
            "midi": 32,
            "name": "G#1",
            "ticks": 15552,
            "time": 17.1126675,
            "velocity": 0.3937007874015748
          },
          {
            "duration": 0.21126750000000172,
            "durationTicks": 192,
            "midi": 44,
            "name": "G#2",
            "ticks": 15552,
            "time": 17.1126675,
            "velocity": 0.3937007874015748
          },
          {
            "duration": 0.21126749999999817,
            "durationTicks": 192,
            "midi": 46,
            "name": "A#2",
            "ticks": 15744,
            "time": 17.323935000000002,
            "velocity": 0.3937007874015748
          },
          {
            "duration": 0.4225349999999999,
            "durationTicks": 384,
            "midi": 85,
            "name": "C#6",
            "ticks": 15744,
            "time": 17.323935000000002,
            "velocity": 0.3937007874015748
          },
          {
            "duration": 0.8450699999999998,
            "durationTicks": 768,
            "midi": 73,
            "name": "C#5",
            "ticks": 15744,
            "time": 17.323935000000002,
            "velocity": 0.3937007874015748
          },
          {
            "duration": 0.21126749999999817,
            "durationTicks": 192,
            "midi": 34,
            "name": "A#1",
            "ticks": 15744,
            "time": 17.323935000000002,
            "velocity": 0.3937007874015748
          },
          {
            "duration": 0.4225349999999999,
            "durationTicks": 384,
            "midi": 82,
            "name": "A#5",
            "ticks": 15744,
            "time": 17.323935000000002,
            "velocity": 0.3937007874015748
          },
          {
            "duration": 0.8450699999999998,
            "durationTicks": 768,
            "midi": 79,
            "name": "G5",
            "ticks": 15744,
            "time": 17.323935000000002,
            "velocity": 0.3937007874015748
          },
          {
            "duration": 0.21126750000000172,
            "durationTicks": 192,
            "midi": 61,
            "name": "C#4",
            "ticks": 15936,
            "time": 17.5352025,
            "velocity": 0.3937007874015748
          },
          {
            "duration": 0.21126750000000172,
            "durationTicks": 192,
            "midi": 58,
            "name": "A#3",
            "ticks": 15936,
            "time": 17.5352025,
            "velocity": 0.3937007874015748
          },
          {
            "duration": 0.21126750000000172,
            "durationTicks": 192,
            "midi": 55,
            "name": "G3",
            "ticks": 15936,
            "time": 17.5352025,
            "velocity": 0.3937007874015748
          },
          {
            "duration": 0.21126749999999817,
            "durationTicks": 192,
            "midi": 46,
            "name": "A#2",
            "ticks": 16128,
            "time": 17.746470000000002,
            "velocity": 0.3937007874015748
          },
          {
            "duration": 0.4225349999999999,
            "durationTicks": 384,
            "midi": 82,
            "name": "A#5",
            "ticks": 16128,
            "time": 17.746470000000002,
            "velocity": 0.3937007874015748
          },
          {
            "duration": 0.21126749999999817,
            "durationTicks": 192,
            "midi": 34,
            "name": "A#1",
            "ticks": 16128,
            "time": 17.746470000000002,
            "velocity": 0.3937007874015748
          },
          {
            "duration": 0.21126750000000172,
            "durationTicks": 192,
            "midi": 55,
            "name": "G3",
            "ticks": 16320,
            "time": 17.9577375,
            "velocity": 0.3937007874015748
          },
          {
            "duration": 0.21126750000000172,
            "durationTicks": 192,
            "midi": 58,
            "name": "A#3",
            "ticks": 16320,
            "time": 17.9577375,
            "velocity": 0.3937007874015748
          },
          {
            "duration": 0.21126750000000172,
            "durationTicks": 192,
            "midi": 61,
            "name": "C#4",
            "ticks": 16320,
            "time": 17.9577375,
            "velocity": 0.3937007874015748
          },
          {
            "duration": 0.21126750000000172,
            "durationTicks": 192,
            "midi": 85,
            "name": "C#6",
            "ticks": 16320,
            "time": 17.9577375,
            "velocity": 0.3937007874015748
          },
          {
            "duration": 0.21126750000000172,
            "durationTicks": 192,
            "midi": 75,
            "name": "D#5",
            "ticks": 16512,
            "time": 18.169005000000002,
            "velocity": 0.3937007874015748
          },
          {
            "duration": 0.21126750000000172,
            "durationTicks": 192,
            "midi": 43,
            "name": "G2",
            "ticks": 16512,
            "time": 18.169005000000002,
            "velocity": 0.3937007874015748
          },
          {
            "duration": 0.21126750000000172,
            "durationTicks": 192,
            "midi": 31,
            "name": "G1",
            "ticks": 16512,
            "time": 18.169005000000002,
            "velocity": 0.3937007874015748
          },
          {
            "duration": 0.21126750000000172,
            "durationTicks": 192,
            "midi": 87,
            "name": "D#6",
            "ticks": 16512,
            "time": 18.169005000000002,
            "velocity": 0.3937007874015748
          },
          {
            "duration": 0.21126749999999817,
            "durationTicks": 192,
            "midi": 85,
            "name": "C#6",
            "ticks": 16704,
            "time": 18.380272500000004,
            "velocity": 0.3937007874015748
          },
          {
            "duration": 0.21126749999999817,
            "durationTicks": 192,
            "midi": 73,
            "name": "C#5",
            "ticks": 16704,
            "time": 18.380272500000004,
            "velocity": 0.3937007874015748
          },
          {
            "duration": 0.21126749999999817,
            "durationTicks": 192,
            "midi": 55,
            "name": "G3",
            "ticks": 16704,
            "time": 18.380272500000004,
            "velocity": 0.3937007874015748
          },
          {
            "duration": 0.21126749999999817,
            "durationTicks": 192,
            "midi": 58,
            "name": "A#3",
            "ticks": 16704,
            "time": 18.380272500000004,
            "velocity": 0.3937007874015748
          },
          {
            "duration": 0.21126749999999817,
            "durationTicks": 192,
            "midi": 61,
            "name": "C#4",
            "ticks": 16704,
            "time": 18.380272500000004,
            "velocity": 0.3937007874015748
          },
          {
            "duration": 0.21126750000000172,
            "durationTicks": 192,
            "midi": 72,
            "name": "C5",
            "ticks": 16896,
            "time": 18.591540000000002,
            "velocity": 0.3937007874015748
          },
          {
            "duration": 0.21126750000000172,
            "durationTicks": 192,
            "midi": 32,
            "name": "G#1",
            "ticks": 16896,
            "time": 18.591540000000002,
            "velocity": 0.3937007874015748
          },
          {
            "duration": 0.21126750000000172,
            "durationTicks": 192,
            "midi": 84,
            "name": "C6",
            "ticks": 16896,
            "time": 18.591540000000002,
            "velocity": 0.3937007874015748
          },
          {
            "duration": 0.21126750000000172,
            "durationTicks": 192,
            "midi": 44,
            "name": "G#2",
            "ticks": 16896,
            "time": 18.591540000000002,
            "velocity": 0.3937007874015748
          },
          {
            "duration": 0.21126749999999817,
            "durationTicks": 192,
            "midi": 34,
            "name": "A#1",
            "ticks": 17088,
            "time": 18.802807500000004,
            "velocity": 0.3937007874015748
          },
          {
            "duration": 0.21126749999999817,
            "durationTicks": 192,
            "midi": 85,
            "name": "C#6",
            "ticks": 17088,
            "time": 18.802807500000004,
            "velocity": 0.3937007874015748
          },
          {
            "duration": 0.21126749999999817,
            "durationTicks": 192,
            "midi": 73,
            "name": "C#5",
            "ticks": 17088,
            "time": 18.802807500000004,
            "velocity": 0.3937007874015748
          },
          {
            "duration": 0.21126749999999817,
            "durationTicks": 192,
            "midi": 46,
            "name": "A#2",
            "ticks": 17088,
            "time": 18.802807500000004,
            "velocity": 0.3937007874015748
          },
          {
            "duration": 0.21126750000000172,
            "durationTicks": 192,
            "midi": 36,
            "name": "C2",
            "ticks": 17280,
            "time": 19.014075000000002,
            "velocity": 0.3937007874015748
          },
          {
            "duration": 0.21126750000000172,
            "durationTicks": 192,
            "midi": 72,
            "name": "C5",
            "ticks": 17280,
            "time": 19.014075000000002,
            "velocity": 0.3937007874015748
          },
          {
            "duration": 0.21126750000000172,
            "durationTicks": 192,
            "midi": 48,
            "name": "C3",
            "ticks": 17280,
            "time": 19.014075000000002,
            "velocity": 0.3937007874015748
          },
          {
            "duration": 0.21126750000000172,
            "durationTicks": 192,
            "midi": 84,
            "name": "C6",
            "ticks": 17280,
            "time": 19.014075000000002,
            "velocity": 0.3937007874015748
          },
          {
            "duration": 0.21126749999999817,
            "durationTicks": 192,
            "midi": 58,
            "name": "A#3",
            "ticks": 17472,
            "time": 19.225342500000004,
            "velocity": 0.3937007874015748
          },
          {
            "duration": 0.21126749999999817,
            "durationTicks": 192,
            "midi": 52,
            "name": "E3",
            "ticks": 17472,
            "time": 19.225342500000004,
            "velocity": 0.3937007874015748
          },
          {
            "duration": 0.21126749999999817,
            "durationTicks": 192,
            "midi": 84,
            "name": "C6",
            "ticks": 17472,
            "time": 19.225342500000004,
            "velocity": 0.3937007874015748
          },
          {
            "duration": 0.21126749999999817,
            "durationTicks": 192,
            "midi": 80,
            "name": "G#5",
            "ticks": 17472,
            "time": 19.225342500000004,
            "velocity": 0.3937007874015748
          },
          {
            "duration": 0.21126749999999817,
            "durationTicks": 192,
            "midi": 72,
            "name": "C5",
            "ticks": 17472,
            "time": 19.225342500000004,
            "velocity": 0.3937007874015748
          },
          {
            "duration": 0.21126749999999817,
            "durationTicks": 192,
            "midi": 48,
            "name": "C3",
            "ticks": 17472,
            "time": 19.225342500000004,
            "velocity": 0.3937007874015748
          },
          {
            "duration": 0.21126750000000172,
            "durationTicks": 192,
            "midi": 82,
            "name": "A#5",
            "ticks": 17664,
            "time": 19.43661,
            "velocity": 0.3937007874015748
          },
          {
            "duration": 0.21126750000000172,
            "durationTicks": 192,
            "midi": 70,
            "name": "A#4",
            "ticks": 17664,
            "time": 19.43661,
            "velocity": 0.3937007874015748
          },
          {
            "duration": 0.21126750000000172,
            "durationTicks": 192,
            "midi": 79,
            "name": "G5",
            "ticks": 17664,
            "time": 19.43661,
            "velocity": 0.3937007874015748
          },
          {
            "duration": 0.21126750000000172,
            "durationTicks": 192,
            "midi": 43,
            "name": "G2",
            "ticks": 17664,
            "time": 19.43661,
            "velocity": 0.3937007874015748
          },
          {
            "duration": 0.21126750000000172,
            "durationTicks": 192,
            "midi": 55,
            "name": "G3",
            "ticks": 17664,
            "time": 19.43661,
            "velocity": 0.3937007874015748
          },
          {
            "duration": 0.21126749999999817,
            "durationTicks": 192,
            "midi": 52,
            "name": "E3",
            "ticks": 17856,
            "time": 19.647877500000003,
            "velocity": 0.3937007874015748
          },
          {
            "duration": 0.21126749999999817,
            "durationTicks": 192,
            "midi": 48,
            "name": "C3",
            "ticks": 17856,
            "time": 19.647877500000003,
            "velocity": 0.3937007874015748
          },
          {
            "duration": 0.21126749999999817,
            "durationTicks": 192,
            "midi": 58,
            "name": "A#3",
            "ticks": 17856,
            "time": 19.647877500000003,
            "velocity": 0.3937007874015748
          },
          {
            "duration": 0.21126749999999817,
            "durationTicks": 192,
            "midi": 77,
            "name": "F5",
            "ticks": 17856,
            "time": 19.647877500000003,
            "velocity": 0.3937007874015748
          },
          {
            "duration": 0.21126749999999817,
            "durationTicks": 192,
            "midi": 68,
            "name": "G#4",
            "ticks": 17856,
            "time": 19.647877500000003,
            "velocity": 0.3937007874015748
          },
          {
            "duration": 0.21126749999999817,
            "durationTicks": 192,
            "midi": 80,
            "name": "G#5",
            "ticks": 17856,
            "time": 19.647877500000003,
            "velocity": 0.3937007874015748
          },
          {
            "duration": 0.21126750000000172,
            "durationTicks": 192,
            "midi": 76,
            "name": "E5",
            "ticks": 18048,
            "time": 19.859145,
            "velocity": 0.3937007874015748
          },
          {
            "duration": 0.21126750000000172,
            "durationTicks": 192,
            "midi": 84,
            "name": "C6",
            "ticks": 18048,
            "time": 19.859145,
            "velocity": 0.3937007874015748
          },
          {
            "duration": 0.21126750000000172,
            "durationTicks": 192,
            "midi": 48,
            "name": "C3",
            "ticks": 18048,
            "time": 19.859145,
            "velocity": 0.3937007874015748
          },
          {
            "duration": 0.21126750000000172,
            "durationTicks": 192,
            "midi": 36,
            "name": "C2",
            "ticks": 18048,
            "time": 19.859145,
            "velocity": 0.3937007874015748
          },
          {
            "duration": 0.21126750000000172,
            "durationTicks": 192,
            "midi": 72,
            "name": "C5",
            "ticks": 18048,
            "time": 19.859145,
            "velocity": 0.3937007874015748
          },
          {
            "duration": 0.21126749999999817,
            "durationTicks": 192,
            "midi": 73,
            "name": "C#5",
            "ticks": 18240,
            "time": 20.070412500000003,
            "velocity": 0.3937007874015748
          },
          {
            "duration": 0.21126749999999817,
            "durationTicks": 192,
            "midi": 70,
            "name": "A#4",
            "ticks": 18240,
            "time": 20.070412500000003,
            "velocity": 0.3937007874015748
          },
          {
            "duration": 0.21126749999999817,
            "durationTicks": 192,
            "midi": 55,
            "name": "G3",
            "ticks": 18240,
            "time": 20.070412500000003,
            "velocity": 0.3937007874015748
          },
          {
            "duration": 0.21126749999999817,
            "durationTicks": 192,
            "midi": 52,
            "name": "E3",
            "ticks": 18240,
            "time": 20.070412500000003,
            "velocity": 0.3937007874015748
          },
          {
            "duration": 0.21126749999999817,
            "durationTicks": 192,
            "midi": 48,
            "name": "C3",
            "ticks": 18240,
            "time": 20.070412500000003,
            "velocity": 0.3937007874015748
          },
          {
            "duration": 0.21126749999999817,
            "durationTicks": 192,
            "midi": 82,
            "name": "A#5",
            "ticks": 18240,
            "time": 20.070412500000003,
            "velocity": 0.3937007874015748
          },
          {
            "duration": 0.21126750000000172,
            "durationTicks": 192,
            "midi": 50,
            "name": "D3",
            "ticks": 18432,
            "time": 20.28168,
            "velocity": 0.3937007874015748
          },
          {
            "duration": 0.21126750000000172,
            "durationTicks": 192,
            "midi": 68,
            "name": "G#4",
            "ticks": 18432,
            "time": 20.28168,
            "velocity": 0.3937007874015748
          },
          {
            "duration": 0.21126750000000172,
            "durationTicks": 192,
            "midi": 38,
            "name": "D2",
            "ticks": 18432,
            "time": 20.28168,
            "velocity": 0.3937007874015748
          },
          {
            "duration": 0.21126750000000172,
            "durationTicks": 192,
            "midi": 80,
            "name": "G#5",
            "ticks": 18432,
            "time": 20.28168,
            "velocity": 0.3937007874015748
          },
          {
            "duration": 0.21126750000000172,
            "durationTicks": 192,
            "midi": 72,
            "name": "C5",
            "ticks": 18432,
            "time": 20.28168,
            "velocity": 0.3937007874015748
          },
          {
            "duration": 0.21126749999999817,
            "durationTicks": 192,
            "midi": 52,
            "name": "E3",
            "ticks": 18624,
            "time": 20.492947500000003,
            "velocity": 0.3937007874015748
          },
          {
            "duration": 0.21126749999999817,
            "durationTicks": 192,
            "midi": 67,
            "name": "G4",
            "ticks": 18624,
            "time": 20.492947500000003,
            "velocity": 0.3937007874015748
          },
          {
            "duration": 0.21126749999999817,
            "durationTicks": 192,
            "midi": 70,
            "name": "A#4",
            "ticks": 18624,
            "time": 20.492947500000003,
            "velocity": 0.3937007874015748
          },
          {
            "duration": 0.21126749999999817,
            "durationTicks": 192,
            "midi": 79,
            "name": "G5",
            "ticks": 18624,
            "time": 20.492947500000003,
            "velocity": 0.3937007874015748
          },
          {
            "duration": 0.21126749999999817,
            "durationTicks": 192,
            "midi": 40,
            "name": "E2",
            "ticks": 18624,
            "time": 20.492947500000003,
            "velocity": 0.3937007874015748
          },
          {
            "duration": 0.4225349999999999,
            "durationTicks": 384,
            "midi": 84,
            "name": "C6",
            "ticks": 18816,
            "time": 20.704215,
            "velocity": 0.3937007874015748
          },
          {
            "duration": 0.4225349999999999,
            "durationTicks": 384,
            "midi": 77,
            "name": "F5",
            "ticks": 18816,
            "time": 20.704215,
            "velocity": 0.3937007874015748
          },
          {
            "duration": 0.4225349999999999,
            "durationTicks": 384,
            "midi": 80,
            "name": "G#5",
            "ticks": 18816,
            "time": 20.704215,
            "velocity": 0.3937007874015748
          },
          {
            "duration": 0.4225349999999999,
            "durationTicks": 384,
            "midi": 72,
            "name": "C5",
            "ticks": 18816,
            "time": 20.704215,
            "velocity": 0.3937007874015748
          },
          {
            "duration": 0.21126750000000172,
            "durationTicks": 192,
            "midi": 53,
            "name": "F3",
            "ticks": 18816,
            "time": 20.704215,
            "velocity": 0.3937007874015748
          },
          {
            "duration": 0.21126750000000172,
            "durationTicks": 192,
            "midi": 41,
            "name": "F2",
            "ticks": 18816,
            "time": 20.704215,
            "velocity": 0.3937007874015748
          },
          {
            "duration": 0.21126749999999817,
            "durationTicks": 192,
            "midi": 53,
            "name": "F3",
            "ticks": 19008,
            "time": 20.915482500000003,
            "velocity": 0.3937007874015748
          },
          {
            "duration": 0.21126749999999817,
            "durationTicks": 192,
            "midi": 48,
            "name": "C3",
            "ticks": 19008,
            "time": 20.915482500000003,
            "velocity": 0.3937007874015748
          },
          {
            "duration": 0.21126749999999817,
            "durationTicks": 192,
            "midi": 56,
            "name": "G#3",
            "ticks": 19008,
            "time": 20.915482500000003,
            "velocity": 0.3937007874015748
          },
          {
            "duration": 0.4225349999999999,
            "durationTicks": 384,
            "midi": 80,
            "name": "G#5",
            "ticks": 19200,
            "time": 21.12675,
            "velocity": 0.3937007874015748
          },
          {
            "duration": 0.21126750000000172,
            "durationTicks": 192,
            "midi": 48,
            "name": "C3",
            "ticks": 19200,
            "time": 21.12675,
            "velocity": 0.3937007874015748
          },
          {
            "duration": 0.4225349999999999,
            "durationTicks": 384,
            "midi": 77,
            "name": "F5",
            "ticks": 19200,
            "time": 21.12675,
            "velocity": 0.3937007874015748
          },
          {
            "duration": 0.21126750000000172,
            "durationTicks": 192,
            "midi": 36,
            "name": "C2",
            "ticks": 19200,
            "time": 21.12675,
            "velocity": 0.3937007874015748
          },
          {
            "duration": 0.4225349999999999,
            "durationTicks": 384,
            "midi": 84,
            "name": "C6",
            "ticks": 19200,
            "time": 21.12675,
            "velocity": 0.3937007874015748
          },
          {
            "duration": 0.4225349999999999,
            "durationTicks": 384,
            "midi": 72,
            "name": "C5",
            "ticks": 19200,
            "time": 21.12675,
            "velocity": 0.3937007874015748
          },
          {
            "duration": 0.21126749999999817,
            "durationTicks": 192,
            "midi": 53,
            "name": "F3",
            "ticks": 19392,
            "time": 21.338017500000003,
            "velocity": 0.3937007874015748
          },
          {
            "duration": 0.21126749999999817,
            "durationTicks": 192,
            "midi": 48,
            "name": "C3",
            "ticks": 19392,
            "time": 21.338017500000003,
            "velocity": 0.3937007874015748
          },
          {
            "duration": 0.21126749999999817,
            "durationTicks": 192,
            "midi": 56,
            "name": "G#3",
            "ticks": 19392,
            "time": 21.338017500000003,
            "velocity": 0.3937007874015748
          },
          {
            "duration": 0.10563374999999908,
            "durationTicks": 96,
            "midi": 87,
            "name": "D#6",
            "ticks": 19536,
            "time": 21.496468125000003,
            "velocity": 0.3937007874015748
          },
          {
            "duration": 0.10563374999999908,
            "durationTicks": 96,
            "midi": 88,
            "name": "E6",
            "ticks": 19560,
            "time": 21.522876562500002,
            "velocity": 0.3937007874015748
          },
          {
            "duration": 0.21126750000000172,
            "durationTicks": 192,
            "midi": 29,
            "name": "F1",
            "ticks": 19584,
            "time": 21.549285,
            "velocity": 0.3937007874015748
          },
          {
            "duration": 0.21126750000000172,
            "durationTicks": 192,
            "midi": 41,
            "name": "F2",
            "ticks": 19584,
            "time": 21.549285,
            "velocity": 0.3937007874015748
          },
          {
            "duration": 0.4225349999999999,
            "durationTicks": 384,
            "midi": 77,
            "name": "F5",
            "ticks": 19584,
            "time": 21.549285,
            "velocity": 0.3937007874015748
          },
          {
            "duration": 0.4225349999999999,
            "durationTicks": 384,
            "midi": 89,
            "name": "F6",
            "ticks": 19584,
            "time": 21.549285,
            "velocity": 0.3937007874015748
          },
          {
            "duration": 0.21126749999999817,
            "durationTicks": 192,
            "midi": 56,
            "name": "G#3",
            "ticks": 19776,
            "time": 21.760552500000003,
            "velocity": 0.3937007874015748
          },
          {
            "duration": 0.21126749999999817,
            "durationTicks": 192,
            "midi": 48,
            "name": "C3",
            "ticks": 19776,
            "time": 21.760552500000003,
            "velocity": 0.3937007874015748
          },
          {
            "duration": 0.21126749999999817,
            "durationTicks": 192,
            "midi": 53,
            "name": "F3",
            "ticks": 19776,
            "time": 21.760552500000003,
            "velocity": 0.3937007874015748
          },
          {
            "duration": 0.4225349999999999,
            "durationTicks": 384,
            "midi": 72,
            "name": "C5",
            "ticks": 19968,
            "time": 21.97182,
            "velocity": 0.3937007874015748
          },
          {
            "duration": 0.4225349999999999,
            "durationTicks": 384,
            "midi": 84,
            "name": "C6",
            "ticks": 19968,
            "time": 21.97182,
            "velocity": 0.3937007874015748
          },
          {
            "duration": 0.21126750000000172,
            "durationTicks": 192,
            "midi": 32,
            "name": "G#1",
            "ticks": 19968,
            "time": 21.97182,
            "velocity": 0.3937007874015748
          },
          {
            "duration": 0.21126750000000172,
            "durationTicks": 192,
            "midi": 44,
            "name": "G#2",
            "ticks": 19968,
            "time": 21.97182,
            "velocity": 0.3937007874015748
          },
          {
            "duration": 0.21126749999999817,
            "durationTicks": 192,
            "midi": 48,
            "name": "C3",
            "ticks": 20160,
            "time": 22.183087500000003,
            "velocity": 0.3937007874015748
          },
          {
            "duration": 0.21126749999999817,
            "durationTicks": 192,
            "midi": 53,
            "name": "F3",
            "ticks": 20160,
            "time": 22.183087500000003,
            "velocity": 0.3937007874015748
          },
          {
            "duration": 0.21126749999999817,
            "durationTicks": 192,
            "midi": 56,
            "name": "G#3",
            "ticks": 20160,
            "time": 22.183087500000003,
            "velocity": 0.3937007874015748
          },
          {
            "duration": 0.21126750000000172,
            "durationTicks": 192,
            "midi": 43,
            "name": "G2",
            "ticks": 20352,
            "time": 22.394355,
            "velocity": 0.3937007874015748
          },
          {
            "duration": 0.21126750000000172,
            "durationTicks": 192,
            "midi": 31,
            "name": "G1",
            "ticks": 20352,
            "time": 22.394355,
            "velocity": 0.3937007874015748
          },
          {
            "duration": 0.21126750000000172,
            "durationTicks": 192,
            "midi": 75,
            "name": "D#5",
            "ticks": 20352,
            "time": 22.394355,
            "velocity": 0.3937007874015748
          },
          {
            "duration": 0.21126750000000172,
            "durationTicks": 192,
            "midi": 87,
            "name": "D#6",
            "ticks": 20352,
            "time": 22.394355,
            "velocity": 0.3937007874015748
          },
          {
            "duration": 0.21126750000000172,
            "durationTicks": 192,
            "midi": 61,
            "name": "C#4",
            "ticks": 20544,
            "time": 22.605622500000003,
            "velocity": 0.3937007874015748
          },
          {
            "duration": 0.21126750000000172,
            "durationTicks": 192,
            "midi": 73,
            "name": "C#5",
            "ticks": 20544,
            "time": 22.605622500000003,
            "velocity": 0.3937007874015748
          },
          {
            "duration": 0.21126750000000172,
            "durationTicks": 192,
            "midi": 58,
            "name": "A#3",
            "ticks": 20544,
            "time": 22.605622500000003,
            "velocity": 0.3937007874015748
          },
          {
            "duration": 0.21126750000000172,
            "durationTicks": 192,
            "midi": 85,
            "name": "C#6",
            "ticks": 20544,
            "time": 22.605622500000003,
            "velocity": 0.3937007874015748
          },
          {
            "duration": 0.21126750000000172,
            "durationTicks": 192,
            "midi": 55,
            "name": "G3",
            "ticks": 20544,
            "time": 22.605622500000003,
            "velocity": 0.3937007874015748
          },
          {
            "duration": 0.21126749999999817,
            "durationTicks": 192,
            "midi": 31,
            "name": "G1",
            "ticks": 20736,
            "time": 22.816890000000004,
            "velocity": 0.3937007874015748
          },
          {
            "duration": 0.21126749999999817,
            "durationTicks": 192,
            "midi": 72,
            "name": "C5",
            "ticks": 20736,
            "time": 22.816890000000004,
            "velocity": 0.3937007874015748
          },
          {
            "duration": 0.21126749999999817,
            "durationTicks": 192,
            "midi": 84,
            "name": "C6",
            "ticks": 20736,
            "time": 22.816890000000004,
            "velocity": 0.3937007874015748
          },
          {
            "duration": 0.21126749999999817,
            "durationTicks": 192,
            "midi": 43,
            "name": "G2",
            "ticks": 20736,
            "time": 22.816890000000004,
            "velocity": 0.3937007874015748
          },
          {
            "duration": 0.21126750000000172,
            "durationTicks": 192,
            "midi": 58,
            "name": "A#3",
            "ticks": 20928,
            "time": 23.028157500000002,
            "velocity": 0.3937007874015748
          },
          {
            "duration": 0.21126750000000172,
            "durationTicks": 192,
            "midi": 61,
            "name": "C#4",
            "ticks": 20928,
            "time": 23.028157500000002,
            "velocity": 0.3937007874015748
          },
          {
            "duration": 0.21126750000000172,
            "durationTicks": 192,
            "midi": 55,
            "name": "G3",
            "ticks": 20928,
            "time": 23.028157500000002,
            "velocity": 0.3937007874015748
          },
          {
            "duration": 0.21126750000000172,
            "durationTicks": 192,
            "midi": 85,
            "name": "C#6",
            "ticks": 20928,
            "time": 23.028157500000002,
            "velocity": 0.3937007874015748
          },
          {
            "duration": 0.21126750000000172,
            "durationTicks": 192,
            "midi": 73,
            "name": "C#5",
            "ticks": 20928,
            "time": 23.028157500000002,
            "velocity": 0.3937007874015748
          },
          {
            "duration": 0.21126749999999817,
            "durationTicks": 192,
            "midi": 34,
            "name": "A#1",
            "ticks": 21120,
            "time": 23.239425000000004,
            "velocity": 0.3937007874015748
          },
          {
            "duration": 0.21126749999999817,
            "durationTicks": 192,
            "midi": 46,
            "name": "A#2",
            "ticks": 21120,
            "time": 23.239425000000004,
            "velocity": 0.3937007874015748
          },
          {
            "duration": 0.4225349999999999,
            "durationTicks": 384,
            "midi": 70,
            "name": "A#4",
            "ticks": 21120,
            "time": 23.239425000000004,
            "velocity": 0.3937007874015748
          },
          {
            "duration": 0.4225349999999999,
            "durationTicks": 384,
            "midi": 76,
            "name": "E5",
            "ticks": 21120,
            "time": 23.239425000000004,
            "velocity": 0.3937007874015748
          },
          {
            "duration": 0.4225349999999999,
            "durationTicks": 384,
            "midi": 82,
            "name": "A#5",
            "ticks": 21120,
            "time": 23.239425000000004,
            "velocity": 0.3937007874015748
          },
          {
            "duration": 0.4225349999999999,
            "durationTicks": 384,
            "midi": 79,
            "name": "G5",
            "ticks": 21120,
            "time": 23.239425000000004,
            "velocity": 0.3937007874015748
          },
          {
            "duration": 0.21126750000000172,
            "durationTicks": 192,
            "midi": 55,
            "name": "G3",
            "ticks": 21312,
            "time": 23.450692500000002,
            "velocity": 0.3937007874015748
          },
          {
            "duration": 0.21126750000000172,
            "durationTicks": 192,
            "midi": 58,
            "name": "A#3",
            "ticks": 21312,
            "time": 23.450692500000002,
            "velocity": 0.3937007874015748
          },
          {
            "duration": 0.21126750000000172,
            "durationTicks": 192,
            "midi": 61,
            "name": "C#4",
            "ticks": 21312,
            "time": 23.450692500000002,
            "velocity": 0.3937007874015748
          },
          {
            "duration": 0.21126749999999817,
            "durationTicks": 192,
            "midi": 37,
            "name": "C#2",
            "ticks": 21504,
            "time": 23.661960000000004,
            "velocity": 0.3937007874015748
          },
          {
            "duration": 0.21126749999999817,
            "durationTicks": 192,
            "midi": 49,
            "name": "C#3",
            "ticks": 21504,
            "time": 23.661960000000004,
            "velocity": 0.3937007874015748
          },
          {
            "duration": 0.21126750000000172,
            "durationTicks": 192,
            "midi": 58,
            "name": "A#3",
            "ticks": 21696,
            "time": 23.873227500000002,
            "velocity": 0.3937007874015748
          },
          {
            "duration": 0.21126750000000172,
            "durationTicks": 192,
            "midi": 55,
            "name": "G3",
            "ticks": 21696,
            "time": 23.873227500000002,
            "velocity": 0.3937007874015748
          },
          {
            "duration": 0.21126750000000172,
            "durationTicks": 192,
            "midi": 61,
            "name": "C#4",
            "ticks": 21696,
            "time": 23.873227500000002,
            "velocity": 0.3937007874015748
          },
          {
            "duration": 0.8450699999999998,
            "durationTicks": 768,
            "midi": 84,
            "name": "C6",
            "ticks": 21888,
            "time": 24.084495000000004,
            "velocity": 0.3937007874015748
          },
          {
            "duration": 0.8450699999999998,
            "durationTicks": 768,
            "midi": 79,
            "name": "G5",
            "ticks": 21888,
            "time": 24.084495000000004,
            "velocity": 0.3937007874015748
          },
          {
            "duration": 0.21126749999999817,
            "durationTicks": 192,
            "midi": 43,
            "name": "G2",
            "ticks": 21888,
            "time": 24.084495000000004,
            "velocity": 0.3937007874015748
          },
          {
            "duration": 0.8450699999999998,
            "durationTicks": 768,
            "midi": 76,
            "name": "E5",
            "ticks": 21888,
            "time": 24.084495000000004,
            "velocity": 0.3937007874015748
          },
          {
            "duration": 0.21126749999999817,
            "durationTicks": 192,
            "midi": 55,
            "name": "G3",
            "ticks": 21888,
            "time": 24.084495000000004,
            "velocity": 0.3937007874015748
          },
          {
            "duration": 0.8450699999999998,
            "durationTicks": 768,
            "midi": 72,
            "name": "C5",
            "ticks": 21888,
            "time": 24.084495000000004,
            "velocity": 0.3937007874015748
          },
          {
            "duration": 0.21126750000000172,
            "durationTicks": 192,
            "midi": 52,
            "name": "E3",
            "ticks": 22080,
            "time": 24.295762500000002,
            "velocity": 0.3937007874015748
          },
          {
            "duration": 0.21126750000000172,
            "durationTicks": 192,
            "midi": 58,
            "name": "A#3",
            "ticks": 22080,
            "time": 24.295762500000002,
            "velocity": 0.3937007874015748
          },
          {
            "duration": 0.21126750000000172,
            "durationTicks": 192,
            "midi": 55,
            "name": "G3",
            "ticks": 22080,
            "time": 24.295762500000002,
            "velocity": 0.3937007874015748
          },
          {
            "duration": 0.21126749999999817,
            "durationTicks": 192,
            "midi": 48,
            "name": "C3",
            "ticks": 22272,
            "time": 24.507030000000004,
            "velocity": 0.3937007874015748
          },
          {
            "duration": 0.21126749999999817,
            "durationTicks": 192,
            "midi": 36,
            "name": "C2",
            "ticks": 22272,
            "time": 24.507030000000004,
            "velocity": 0.3937007874015748
          },
          {
            "duration": 0.21126750000000172,
            "durationTicks": 192,
            "midi": 58,
            "name": "A#3",
            "ticks": 22464,
            "time": 24.718297500000002,
            "velocity": 0.3937007874015748
          },
          {
            "duration": 0.21126750000000172,
            "durationTicks": 192,
            "midi": 52,
            "name": "E3",
            "ticks": 22464,
            "time": 24.718297500000002,
            "velocity": 0.3937007874015748
          },
          {
            "duration": 0.21126750000000172,
            "durationTicks": 192,
            "midi": 55,
            "name": "G3",
            "ticks": 22464,
            "time": 24.718297500000002,
            "velocity": 0.3937007874015748
          },
          {
            "duration": 0.21126749999999817,
            "durationTicks": 192,
            "midi": 52,
            "name": "E3",
            "ticks": 22656,
            "time": 24.929565000000004,
            "velocity": 0.3937007874015748
          },
          {
            "duration": 0.21126749999999817,
            "durationTicks": 192,
            "midi": 40,
            "name": "E2",
            "ticks": 22656,
            "time": 24.929565000000004,
            "velocity": 0.3937007874015748
          },
          {
            "duration": 0.21126749999999817,
            "durationTicks": 192,
            "midi": 70,
            "name": "A#4",
            "ticks": 22656,
            "time": 24.929565000000004,
            "velocity": 0.3937007874015748
          },
          {
            "duration": 0.21126749999999817,
            "durationTicks": 192,
            "midi": 82,
            "name": "A#5",
            "ticks": 22656,
            "time": 24.929565000000004,
            "velocity": 0.3937007874015748
          },
          {
            "duration": 0.21126749999999817,
            "durationTicks": 192,
            "midi": 79,
            "name": "G5",
            "ticks": 22656,
            "time": 24.929565000000004,
            "velocity": 0.3937007874015748
          },
          {
            "duration": 0.21126750000000172,
            "durationTicks": 192,
            "midi": 80,
            "name": "G#5",
            "ticks": 22848,
            "time": 25.140832500000002,
            "velocity": 0.3937007874015748
          },
          {
            "duration": 0.21126750000000172,
            "durationTicks": 192,
            "midi": 77,
            "name": "F5",
            "ticks": 22848,
            "time": 25.140832500000002,
            "velocity": 0.3937007874015748
          },
          {
            "duration": 0.21126750000000172,
            "durationTicks": 192,
            "midi": 36,
            "name": "C2",
            "ticks": 22848,
            "time": 25.140832500000002,
            "velocity": 0.3937007874015748
          },
          {
            "duration": 0.21126750000000172,
            "durationTicks": 192,
            "midi": 48,
            "name": "C3",
            "ticks": 22848,
            "time": 25.140832500000002,
            "velocity": 0.3937007874015748
          },
          {
            "duration": 0.21126750000000172,
            "durationTicks": 192,
            "midi": 68,
            "name": "G#4",
            "ticks": 22848,
            "time": 25.140832500000002,
            "velocity": 0.3937007874015748
          },
          {
            "duration": 0.21126749999999817,
            "durationTicks": 192,
            "midi": 38,
            "name": "D2",
            "ticks": 23040,
            "time": 25.352100000000004,
            "velocity": 0.3937007874015748
          },
          {
            "duration": 0.21126749999999817,
            "durationTicks": 192,
            "midi": 76,
            "name": "E5",
            "ticks": 23040,
            "time": 25.352100000000004,
            "velocity": 0.3937007874015748
          },
          {
            "duration": 0.21126749999999817,
            "durationTicks": 192,
            "midi": 67,
            "name": "G4",
            "ticks": 23040,
            "time": 25.352100000000004,
            "velocity": 0.3937007874015748
          },
          {
            "duration": 0.21126749999999817,
            "durationTicks": 192,
            "midi": 79,
            "name": "G5",
            "ticks": 23040,
            "time": 25.352100000000004,
            "velocity": 0.3937007874015748
          },
          {
            "duration": 0.21126749999999817,
            "durationTicks": 192,
            "midi": 50,
            "name": "D3",
            "ticks": 23040,
            "time": 25.352100000000004,
            "velocity": 0.3937007874015748
          },
          {
            "duration": 0.21126750000000172,
            "durationTicks": 192,
            "midi": 76,
            "name": "E5",
            "ticks": 23232,
            "time": 25.563367500000002,
            "velocity": 0.3937007874015748
          },
          {
            "duration": 0.21126750000000172,
            "durationTicks": 192,
            "midi": 80,
            "name": "G#5",
            "ticks": 23232,
            "time": 25.563367500000002,
            "velocity": 0.3937007874015748
          },
          {
            "duration": 0.21126750000000172,
            "durationTicks": 192,
            "midi": 68,
            "name": "G#4",
            "ticks": 23232,
            "time": 25.563367500000002,
            "velocity": 0.3937007874015748
          },
          {
            "duration": 0.21126750000000172,
            "durationTicks": 192,
            "midi": 40,
            "name": "E2",
            "ticks": 23232,
            "time": 25.563367500000002,
            "velocity": 0.3937007874015748
          },
          {
            "duration": 0.21126750000000172,
            "durationTicks": 192,
            "midi": 52,
            "name": "E3",
            "ticks": 23232,
            "time": 25.563367500000002,
            "velocity": 0.3937007874015748
          },
          {
            "duration": 0.21126749999999817,
            "durationTicks": 192,
            "midi": 41,
            "name": "F2",
            "ticks": 23424,
            "time": 25.774635000000004,
            "velocity": 0.3937007874015748
          },
          {
            "duration": 0.8450699999999998,
            "durationTicks": 768,
            "midi": 65,
            "name": "F4",
            "ticks": 23424,
            "time": 25.774635000000004,
            "velocity": 0.3937007874015748
          },
          {
            "duration": 0.8450699999999998,
            "durationTicks": 768,
            "midi": 77,
            "name": "F5",
            "ticks": 23424,
            "time": 25.774635000000004,
            "velocity": 0.3937007874015748
          },
          {
            "duration": 0.8450699999999998,
            "durationTicks": 768,
            "midi": 68,
            "name": "G#4",
            "ticks": 23424,
            "time": 25.774635000000004,
            "velocity": 0.3937007874015748
          },
          {
            "duration": 0.21126749999999817,
            "durationTicks": 192,
            "midi": 53,
            "name": "F3",
            "ticks": 23424,
            "time": 25.774635000000004,
            "velocity": 0.3937007874015748
          },
          {
            "duration": 0.8450699999999998,
            "durationTicks": 768,
            "midi": 72,
            "name": "C5",
            "ticks": 23424,
            "time": 25.774635000000004,
            "velocity": 0.3937007874015748
          },
          {
            "duration": 0.21126750000000172,
            "durationTicks": 192,
            "midi": 53,
            "name": "F3",
            "ticks": 23616,
            "time": 25.9859025,
            "velocity": 0.3937007874015748
          },
          {
            "duration": 0.21126750000000172,
            "durationTicks": 192,
            "midi": 48,
            "name": "C3",
            "ticks": 23616,
            "time": 25.9859025,
            "velocity": 0.3937007874015748
          },
          {
            "duration": 0.21126749999999817,
            "durationTicks": 192,
            "midi": 48,
            "name": "C3",
            "ticks": 23808,
            "time": 26.197170000000003,
            "velocity": 0.3937007874015748
          },
          {
            "duration": 0.21126749999999817,
            "durationTicks": 192,
            "midi": 36,
            "name": "C2",
            "ticks": 23808,
            "time": 26.197170000000003,
            "velocity": 0.3937007874015748
          },
          {
            "duration": 0.21126750000000172,
            "durationTicks": 192,
            "midi": 48,
            "name": "C3",
            "ticks": 24000,
            "time": 26.4084375,
            "velocity": 0.3937007874015748
          },
          {
            "duration": 0.21126750000000172,
            "durationTicks": 192,
            "midi": 53,
            "name": "F3",
            "ticks": 24000,
            "time": 26.4084375,
            "velocity": 0.3937007874015748
          },
          {
            "duration": 0.4225349999999999,
            "durationTicks": 384,
            "midi": 53,
            "name": "F3",
            "ticks": 24192,
            "time": 26.619705000000003,
            "velocity": 0.3937007874015748
          },
          {
            "duration": 0.4225349999999999,
            "durationTicks": 384,
            "midi": 29,
            "name": "F1",
            "ticks": 24192,
            "time": 26.619705000000003,
            "velocity": 0.3937007874015748
          },
          {
            "duration": 0.4225349999999999,
            "durationTicks": 384,
            "midi": 41,
            "name": "F2",
            "ticks": 24192,
            "time": 26.619705000000003,
            "velocity": 0.3937007874015748
          },
          {
            "duration": 0.21126750000000172,
            "durationTicks": 192,
            "midi": 48,
            "name": "C3",
            "ticks": 24960,
            "time": 27.464775000000003,
            "velocity": 0.3937007874015748
          },
          {
            "duration": 0.21126750000000172,
            "durationTicks": 192,
            "midi": 76,
            "name": "E5",
            "ticks": 24960,
            "time": 27.464775000000003,
            "velocity": 0.3937007874015748
          },
          {
            "duration": 0.10563374999999908,
            "durationTicks": 96,
            "midi": 84,
            "name": "C6",
            "ticks": 24960,
            "time": 27.464775000000003,
            "velocity": 0.3937007874015748
          },
          {
            "duration": 0.21126750000000172,
            "durationTicks": 192,
            "midi": 36,
            "name": "C2",
            "ticks": 24960,
            "time": 27.464775000000003,
            "velocity": 0.3937007874015748
          },
          {
            "duration": 0.10563375000000264,
            "durationTicks": 96,
            "midi": 85,
            "name": "C#6",
            "ticks": 25056,
            "time": 27.570408750000002,
            "velocity": 0.3937007874015748
          },
          {
            "duration": 0.10563374999999908,
            "durationTicks": 96,
            "midi": 84,
            "name": "C6",
            "ticks": 25152,
            "time": 27.676042500000005,
            "velocity": 0.3937007874015748
          },
          {
            "duration": 0.21126749999999817,
            "durationTicks": 192,
            "midi": 58,
            "name": "A#3",
            "ticks": 25152,
            "time": 27.676042500000005,
            "velocity": 0.3937007874015748
          },
          {
            "duration": 0.21126749999999817,
            "durationTicks": 192,
            "midi": 60,
            "name": "C4",
            "ticks": 25152,
            "time": 27.676042500000005,
            "velocity": 0.3937007874015748
          },
          {
            "duration": 0.21126749999999817,
            "durationTicks": 192,
            "midi": 52,
            "name": "E3",
            "ticks": 25152,
            "time": 27.676042500000005,
            "velocity": 0.3937007874015748
          },
          {
            "duration": 0.10563374999999908,
            "durationTicks": 96,
            "midi": 82,
            "name": "A#5",
            "ticks": 25248,
            "time": 27.781676250000004,
            "velocity": 0.3937007874015748
          },
          {
            "duration": 0.10563374999999908,
            "durationTicks": 96,
            "midi": 84,
            "name": "C6",
            "ticks": 25344,
            "time": 27.887310000000003,
            "velocity": 0.3937007874015748
          },
          {
            "duration": 0.10563374999999908,
            "durationTicks": 96,
            "midi": 79,
            "name": "G5",
            "ticks": 25344,
            "time": 27.887310000000003,
            "velocity": 0.3937007874015748
          },
          {
            "duration": 0.21126750000000172,
            "durationTicks": 192,
            "midi": 36,
            "name": "C2",
            "ticks": 25344,
            "time": 27.887310000000003,
            "velocity": 0.3937007874015748
          },
          {
            "duration": 0.21126750000000172,
            "durationTicks": 192,
            "midi": 48,
            "name": "C3",
            "ticks": 25344,
            "time": 27.887310000000003,
            "velocity": 0.3937007874015748
          },
          {
            "duration": 0.10563375000000264,
            "durationTicks": 96,
            "midi": 82,
            "name": "A#5",
            "ticks": 25440,
            "time": 27.992943750000002,
            "velocity": 0.3937007874015748
          },
          {
            "duration": 0.21126749999999817,
            "durationTicks": 192,
            "midi": 60,
            "name": "C4",
            "ticks": 25536,
            "time": 28.098577500000005,
            "velocity": 0.3937007874015748
          },
          {
            "duration": 0.10563374999999908,
            "durationTicks": 96,
            "midi": 80,
            "name": "G#5",
            "ticks": 25536,
            "time": 28.098577500000005,
            "velocity": 0.3937007874015748
          },
          {
            "duration": 0.21126749999999817,
            "durationTicks": 192,
            "midi": 52,
            "name": "E3",
            "ticks": 25536,
            "time": 28.098577500000005,
            "velocity": 0.3937007874015748
          },
          {
            "duration": 0.21126749999999817,
            "durationTicks": 192,
            "midi": 58,
            "name": "A#3",
            "ticks": 25536,
            "time": 28.098577500000005,
            "velocity": 0.3937007874015748
          },
          {
            "duration": 0.10563374999999908,
            "durationTicks": 96,
            "midi": 79,
            "name": "G5",
            "ticks": 25632,
            "time": 28.204211250000004,
            "velocity": 0.3937007874015748
          },
          {
            "duration": 0.21126750000000172,
            "durationTicks": 192,
            "midi": 53,
            "name": "F3",
            "ticks": 25728,
            "time": 28.309845000000003,
            "velocity": 0.3937007874015748
          },
          {
            "duration": 0.21126750000000172,
            "durationTicks": 192,
            "midi": 41,
            "name": "F2",
            "ticks": 25728,
            "time": 28.309845000000003,
            "velocity": 0.3937007874015748
          },
          {
            "duration": 0.21126750000000172,
            "durationTicks": 192,
            "midi": 77,
            "name": "F5",
            "ticks": 25728,
            "time": 28.309845000000003,
            "velocity": 0.3937007874015748
          },
          {
            "duration": 0.21126750000000172,
            "durationTicks": 192,
            "midi": 72,
            "name": "C5",
            "ticks": 25728,
            "time": 28.309845000000003,
            "velocity": 0.3937007874015748
          },
          {
            "duration": 0.10563374999999908,
            "durationTicks": 96,
            "midi": 77,
            "name": "F5",
            "ticks": 26496,
            "time": 29.154915000000003,
            "velocity": 0.3937007874015748
          },
          {
            "duration": 0.21126750000000172,
            "durationTicks": 192,
            "midi": 48,
            "name": "C3",
            "ticks": 26496,
            "time": 29.154915000000003,
            "velocity": 0.3937007874015748
          },
          {
            "duration": 0.21126750000000172,
            "durationTicks": 192,
            "midi": 36,
            "name": "C2",
            "ticks": 26496,
            "time": 29.154915000000003,
            "velocity": 0.3937007874015748
          },
          {
            "duration": 0.10563374999999908,
            "durationTicks": 96,
            "midi": 79,
            "name": "G5",
            "ticks": 26544,
            "time": 29.207731875000004,
            "velocity": 0.3937007874015748
          },
          {
            "duration": 0.10563374999999908,
            "durationTicks": 96,
            "midi": 76,
            "name": "E5",
            "ticks": 26544,
            "time": 29.207731875000004,
            "velocity": 0.3937007874015748
          },
          {
            "duration": 0.21126749999999817,
            "durationTicks": 192,
            "midi": 55,
            "name": "G3",
            "ticks": 26688,
            "time": 29.366182500000004,
            "velocity": 0.3937007874015748
          },
          {
            "duration": 0.10563374999999908,
            "durationTicks": 96,
            "midi": 80,
            "name": "G#5",
            "ticks": 26688,
            "time": 29.366182500000004,
            "velocity": 0.3937007874015748
          },
          {
            "duration": 0.10563374999999908,
            "durationTicks": 96,
            "midi": 76,
            "name": "E5",
            "ticks": 26688,
            "time": 29.366182500000004,
            "velocity": 0.3937007874015748
          },
          {
            "duration": 0.21126749999999817,
            "durationTicks": 192,
            "midi": 60,
            "name": "C4",
            "ticks": 26688,
            "time": 29.366182500000004,
            "velocity": 0.3937007874015748
          },
          {
            "duration": 0.21126749999999817,
            "durationTicks": 192,
            "midi": 58,
            "name": "A#3",
            "ticks": 26688,
            "time": 29.366182500000004,
            "velocity": 0.3937007874015748
          },
          {
            "duration": 0.21126750000000172,
            "durationTicks": 192,
            "midi": 48,
            "name": "C3",
            "ticks": 26880,
            "time": 29.577450000000002,
            "velocity": 0.3937007874015748
          },
          {
            "duration": 0.21126750000000172,
            "durationTicks": 192,
            "midi": 36,
            "name": "C2",
            "ticks": 26880,
            "time": 29.577450000000002,
            "velocity": 0.3937007874015748
          },
          {
            "duration": 0.10563375000000264,
            "durationTicks": 96,
            "midi": 73,
            "name": "C#5",
            "ticks": 26880,
            "time": 29.577450000000002,
            "velocity": 0.3937007874015748
          },
          {
            "duration": 0.10563375000000264,
            "durationTicks": 96,
            "midi": 82,
            "name": "A#5",
            "ticks": 26880,
            "time": 29.577450000000002,
            "velocity": 0.3937007874015748
          },
          {
            "duration": 0.10563374999999908,
            "durationTicks": 96,
            "midi": 84,
            "name": "C6",
            "ticks": 27072,
            "time": 29.788717500000004,
            "velocity": 0.3937007874015748
          },
          {
            "duration": 0.10563374999999908,
            "durationTicks": 96,
            "midi": 72,
            "name": "C5",
            "ticks": 27072,
            "time": 29.788717500000004,
            "velocity": 0.3937007874015748
          },
          {
            "duration": 0.21126749999999817,
            "durationTicks": 192,
            "midi": 60,
            "name": "C4",
            "ticks": 27072,
            "time": 29.788717500000004,
            "velocity": 0.3937007874015748
          },
          {
            "duration": 0.21126749999999817,
            "durationTicks": 192,
            "midi": 55,
            "name": "G3",
            "ticks": 27072,
            "time": 29.788717500000004,
            "velocity": 0.3937007874015748
          },
          {
            "duration": 0.21126749999999817,
            "durationTicks": 192,
            "midi": 58,
            "name": "A#3",
            "ticks": 27072,
            "time": 29.788717500000004,
            "velocity": 0.3937007874015748
          },
          {
            "duration": 0.10563375000000264,
            "durationTicks": 96,
            "midi": 85,
            "name": "C#6",
            "ticks": 27264,
            "time": 29.999985000000002,
            "velocity": 0.3937007874015748
          },
          {
            "duration": 0.10563375000000264,
            "durationTicks": 96,
            "midi": 73,
            "name": "C#5",
            "ticks": 27264,
            "time": 29.999985000000002,
            "velocity": 0.3937007874015748
          },
          {
            "duration": 0.21126750000000172,
            "durationTicks": 192,
            "midi": 43,
            "name": "G2",
            "ticks": 27264,
            "time": 29.999985000000002,
            "velocity": 0.3937007874015748
          },
          {
            "duration": 0.21126750000000172,
            "durationTicks": 192,
            "midi": 55,
            "name": "G3",
            "ticks": 27264,
            "time": 29.999985000000002,
            "velocity": 0.3937007874015748
          },
          {
            "duration": 0.10563374999999908,
            "durationTicks": 96,
            "midi": 70,
            "name": "A#4",
            "ticks": 27456,
            "time": 30.211252500000004,
            "velocity": 0.3937007874015748
          },
          {
            "duration": 0.21126749999999817,
            "durationTicks": 192,
            "midi": 52,
            "name": "E3",
            "ticks": 27456,
            "time": 30.211252500000004,
            "velocity": 0.3937007874015748
          },
          {
            "duration": 0.21126749999999817,
            "durationTicks": 192,
            "midi": 58,
            "name": "A#3",
            "ticks": 27456,
            "time": 30.211252500000004,
            "velocity": 0.3937007874015748
          },
          {
            "duration": 0.21126749999999817,
            "durationTicks": 192,
            "midi": 60,
            "name": "C4",
            "ticks": 27456,
            "time": 30.211252500000004,
            "velocity": 0.3937007874015748
          },
          {
            "duration": 0.10563374999999908,
            "durationTicks": 96,
            "midi": 82,
            "name": "A#5",
            "ticks": 27456,
            "time": 30.211252500000004,
            "velocity": 0.3937007874015748
          },
          {
            "duration": 0.4225349999999999,
            "durationTicks": 384,
            "midi": 84,
            "name": "C6",
            "ticks": 27648,
            "time": 30.422520000000002,
            "velocity": 0.3937007874015748
          },
          {
            "duration": 0.4225349999999999,
            "durationTicks": 384,
            "midi": 72,
            "name": "C5",
            "ticks": 27648,
            "time": 30.422520000000002,
            "velocity": 0.3937007874015748
          },
          {
            "duration": 0.21126750000000172,
            "durationTicks": 192,
            "midi": 43,
            "name": "G2",
            "ticks": 27648,
            "time": 30.422520000000002,
            "velocity": 0.3937007874015748
          },
          {
            "duration": 0.21126750000000172,
            "durationTicks": 192,
            "midi": 31,
            "name": "G1",
            "ticks": 27648,
            "time": 30.422520000000002,
            "velocity": 0.3937007874015748
          },
          {
            "duration": 0.21126749999999817,
            "durationTicks": 192,
            "midi": 52,
            "name": "E3",
            "ticks": 27840,
            "time": 30.633787500000004,
            "velocity": 0.3937007874015748
          },
          {
            "duration": 0.21126749999999817,
            "durationTicks": 192,
            "midi": 60,
            "name": "C4",
            "ticks": 27840,
            "time": 30.633787500000004,
            "velocity": 0.3937007874015748
          },
          {
            "duration": 0.21126749999999817,
            "durationTicks": 192,
            "midi": 58,
            "name": "A#3",
            "ticks": 27840,
            "time": 30.633787500000004,
            "velocity": 0.3937007874015748
          },
          {
            "duration": 0.21126750000000172,
            "durationTicks": 192,
            "midi": 55,
            "name": "G3",
            "ticks": 28032,
            "time": 30.845055000000002,
            "velocity": 0.3937007874015748
          },
          {
            "duration": 0.21126750000000172,
            "durationTicks": 192,
            "midi": 76,
            "name": "E5",
            "ticks": 28032,
            "time": 30.845055000000002,
            "velocity": 0.3937007874015748
          },
          {
            "duration": 0.21126750000000172,
            "durationTicks": 192,
            "midi": 43,
            "name": "G2",
            "ticks": 28032,
            "time": 30.845055000000002,
            "velocity": 0.3937007874015748
          },
          {
            "duration": 0.10563375000000264,
            "durationTicks": 96,
            "midi": 84,
            "name": "C6",
            "ticks": 28032,
            "time": 30.845055000000002,
            "velocity": 0.3937007874015748
          },
          {
            "duration": 0.10563374999999908,
            "durationTicks": 96,
            "midi": 85,
            "name": "C#6",
            "ticks": 28128,
            "time": 30.950688750000005,
            "velocity": 0.3937007874015748
          },
          {
            "duration": 0.21126749999999817,
            "durationTicks": 192,
            "midi": 60,
            "name": "C4",
            "ticks": 28224,
            "time": 31.056322500000004,
            "velocity": 0.3937007874015748
          },
          {
            "duration": 0.21126749999999817,
            "durationTicks": 192,
            "midi": 52,
            "name": "E3",
            "ticks": 28224,
            "time": 31.056322500000004,
            "velocity": 0.3937007874015748
          },
          {
            "duration": 0.21126749999999817,
            "durationTicks": 192,
            "midi": 58,
            "name": "A#3",
            "ticks": 28224,
            "time": 31.056322500000004,
            "velocity": 0.3937007874015748
          },
          {
            "duration": 0.10563374999999908,
            "durationTicks": 96,
            "midi": 84,
            "name": "C6",
            "ticks": 28224,
            "time": 31.056322500000004,
            "velocity": 0.3937007874015748
          },
          {
            "duration": 0.10563374999999908,
            "durationTicks": 96,
            "midi": 82,
            "name": "A#5",
            "ticks": 28320,
            "time": 31.161956250000003,
            "velocity": 0.3937007874015748
          },
          {
            "duration": 0.10563375000000264,
            "durationTicks": 96,
            "midi": 84,
            "name": "C6",
            "ticks": 28416,
            "time": 31.267590000000002,
            "velocity": 0.3937007874015748
          },
          {
            "duration": 0.21126750000000172,
            "durationTicks": 192,
            "midi": 36,
            "name": "C2",
            "ticks": 28416,
            "time": 31.267590000000002,
            "velocity": 0.3937007874015748
          },
          {
            "duration": 0.10563375000000264,
            "durationTicks": 96,
            "midi": 79,
            "name": "G5",
            "ticks": 28416,
            "time": 31.267590000000002,
            "velocity": 0.3937007874015748
          },
          {
            "duration": 0.21126750000000172,
            "durationTicks": 192,
            "midi": 48,
            "name": "C3",
            "ticks": 28416,
            "time": 31.267590000000002,
            "velocity": 0.3937007874015748
          },
          {
            "duration": 0.10563374999999908,
            "durationTicks": 96,
            "midi": 82,
            "name": "A#5",
            "ticks": 28512,
            "time": 31.373223750000005,
            "velocity": 0.3937007874015748
          },
          {
            "duration": 0.21126750000000172,
            "durationTicks": 192,
            "midi": 60,
            "name": "C4",
            "ticks": 28608,
            "time": 31.478857500000004,
            "velocity": 0.3937007874015748
          },
          {
            "duration": 0.21126750000000172,
            "durationTicks": 192,
            "midi": 58,
            "name": "A#3",
            "ticks": 28608,
            "time": 31.478857500000004,
            "velocity": 0.3937007874015748
          },
          {
            "duration": 0.21126750000000172,
            "durationTicks": 192,
            "midi": 52,
            "name": "E3",
            "ticks": 28608,
            "time": 31.478857500000004,
            "velocity": 0.3937007874015748
          },
          {
            "duration": 0.10563374999999908,
            "durationTicks": 96,
            "midi": 80,
            "name": "G#5",
            "ticks": 28608,
            "time": 31.478857500000004,
            "velocity": 0.3937007874015748
          },
          {
            "duration": 0.10563375000000264,
            "durationTicks": 96,
            "midi": 79,
            "name": "G5",
            "ticks": 28704,
            "time": 31.584491250000003,
            "velocity": 0.3937007874015748
          },
          {
            "duration": 0.21126749999999817,
            "durationTicks": 192,
            "midi": 41,
            "name": "F2",
            "ticks": 28800,
            "time": 31.690125000000005,
            "velocity": 0.3937007874015748
          },
          {
            "duration": 0.21126749999999817,
            "durationTicks": 192,
            "midi": 77,
            "name": "F5",
            "ticks": 28800,
            "time": 31.690125000000005,
            "velocity": 0.3937007874015748
          },
          {
            "duration": 0.21126749999999817,
            "durationTicks": 192,
            "midi": 53,
            "name": "F3",
            "ticks": 28800,
            "time": 31.690125000000005,
            "velocity": 0.3937007874015748
          },
          {
            "duration": 0.21126749999999817,
            "durationTicks": 192,
            "midi": 72,
            "name": "C5",
            "ticks": 28800,
            "time": 31.690125000000005,
            "velocity": 0.3937007874015748
          },
          {
            "duration": 0.21126750000000527,
            "durationTicks": 192,
            "midi": 84,
            "name": "C6",
            "ticks": 29568,
            "time": 32.535195,
            "velocity": 0.3937007874015748
          },
          {
            "duration": 0.21126750000000527,
            "durationTicks": 192,
            "midi": 76,
            "name": "E5",
            "ticks": 29568,
            "time": 32.535195,
            "velocity": 0.3937007874015748
          },
          {
            "duration": 0.21126750000000527,
            "durationTicks": 192,
            "midi": 72,
            "name": "C5",
            "ticks": 29568,
            "time": 32.535195,
            "velocity": 0.3937007874015748
          },
          {
            "duration": 0.21126750000000527,
            "durationTicks": 192,
            "midi": 48,
            "name": "C3",
            "ticks": 29568,
            "time": 32.535195,
            "velocity": 0.3937007874015748
          },
          {
            "duration": 0.21126750000000527,
            "durationTicks": 192,
            "midi": 36,
            "name": "C2",
            "ticks": 29568,
            "time": 32.535195,
            "velocity": 0.3937007874015748
          },
          {
            "duration": 0.21126749999999817,
            "durationTicks": 192,
            "midi": 36,
            "name": "C2",
            "ticks": 29760,
            "time": 32.74646250000001,
            "velocity": 0.3937007874015748
          },
          {
            "duration": 0.21126749999999817,
            "durationTicks": 192,
            "midi": 73,
            "name": "C#5",
            "ticks": 29760,
            "time": 32.74646250000001,
            "velocity": 0.3937007874015748
          },
          {
            "duration": 0.21126749999999817,
            "durationTicks": 192,
            "midi": 70,
            "name": "A#4",
            "ticks": 29760,
            "time": 32.74646250000001,
            "velocity": 0.3937007874015748
          },
          {
            "duration": 0.21126749999999817,
            "durationTicks": 192,
            "midi": 82,
            "name": "A#5",
            "ticks": 29760,
            "time": 32.74646250000001,
            "velocity": 0.3937007874015748
          },
          {
            "duration": 0.21126749999999817,
            "durationTicks": 192,
            "midi": 48,
            "name": "C3",
            "ticks": 29760,
            "time": 32.74646250000001,
            "velocity": 0.3937007874015748
          },
          {
            "duration": 0.21126749999999817,
            "durationTicks": 192,
            "midi": 68,
            "name": "G#4",
            "ticks": 29952,
            "time": 32.957730000000005,
            "velocity": 0.3937007874015748
          },
          {
            "duration": 0.21126749999999817,
            "durationTicks": 192,
            "midi": 72,
            "name": "C5",
            "ticks": 29952,
            "time": 32.957730000000005,
            "velocity": 0.3937007874015748
          },
          {
            "duration": 0.21126749999999817,
            "durationTicks": 192,
            "midi": 50,
            "name": "D3",
            "ticks": 29952,
            "time": 32.957730000000005,
            "velocity": 0.3937007874015748
          },
          {
            "duration": 0.21126749999999817,
            "durationTicks": 192,
            "midi": 80,
            "name": "G#5",
            "ticks": 29952,
            "time": 32.957730000000005,
            "velocity": 0.3937007874015748
          },
          {
            "duration": 0.21126749999999817,
            "durationTicks": 192,
            "midi": 38,
            "name": "D2",
            "ticks": 29952,
            "time": 32.957730000000005,
            "velocity": 0.3937007874015748
          },
          {
            "duration": 0.21126749999999817,
            "durationTicks": 192,
            "midi": 70,
            "name": "A#4",
            "ticks": 30144,
            "time": 33.1689975,
            "velocity": 0.3937007874015748
          },
          {
            "duration": 0.21126749999999817,
            "durationTicks": 192,
            "midi": 67,
            "name": "G4",
            "ticks": 30144,
            "time": 33.1689975,
            "velocity": 0.3937007874015748
          },
          {
            "duration": 0.21126749999999817,
            "durationTicks": 192,
            "midi": 52,
            "name": "E3",
            "ticks": 30144,
            "time": 33.1689975,
            "velocity": 0.3937007874015748
          },
          {
            "duration": 0.21126749999999817,
            "durationTicks": 192,
            "midi": 79,
            "name": "G5",
            "ticks": 30144,
            "time": 33.1689975,
            "velocity": 0.3937007874015748
          },
          {
            "duration": 0.21126749999999817,
            "durationTicks": 192,
            "midi": 40,
            "name": "E2",
            "ticks": 30144,
            "time": 33.1689975,
            "velocity": 0.3937007874015748
          },
          {
            "duration": 0.21126750000000527,
            "durationTicks": 192,
            "midi": 41,
            "name": "F2",
            "ticks": 30336,
            "time": 33.380265,
            "velocity": 0.3937007874015748
          },
          {
            "duration": 0.21126750000000527,
            "durationTicks": 192,
            "midi": 65,
            "name": "F4",
            "ticks": 30336,
            "time": 33.380265,
            "velocity": 0.3937007874015748
          },
          {
            "duration": 0.21126750000000527,
            "durationTicks": 192,
            "midi": 68,
            "name": "G#4",
            "ticks": 30336,
            "time": 33.380265,
            "velocity": 0.3937007874015748
          },
          {
            "duration": 0.21126750000000527,
            "durationTicks": 192,
            "midi": 77,
            "name": "F5",
            "ticks": 30336,
            "time": 33.380265,
            "velocity": 0.3937007874015748
          },
          {
            "duration": 0.21126750000000527,
            "durationTicks": 192,
            "midi": 53,
            "name": "F3",
            "ticks": 30336,
            "time": 33.380265,
            "velocity": 0.3937007874015748
          },
          {
            "duration": 0.21126749999999817,
            "durationTicks": 192,
            "midi": 64,
            "name": "E4",
            "ticks": 30720,
            "time": 33.802800000000005,
            "velocity": 0.3937007874015748
          },
          {
            "duration": 0.21126749999999817,
            "durationTicks": 192,
            "midi": 36,
            "name": "C2",
            "ticks": 30720,
            "time": 33.802800000000005,
            "velocity": 0.3937007874015748
          },
          {
            "duration": 0.21126749999999817,
            "durationTicks": 192,
            "midi": 72,
            "name": "C5",
            "ticks": 30720,
            "time": 33.802800000000005,
            "velocity": 0.3937007874015748
          },
          {
            "duration": 0.21126749999999817,
            "durationTicks": 192,
            "midi": 48,
            "name": "C3",
            "ticks": 30720,
            "time": 33.802800000000005,
            "velocity": 0.3937007874015748
          },
          {
            "duration": 0.21126749999999817,
            "durationTicks": 192,
            "midi": 70,
            "name": "A#4",
            "ticks": 30720,
            "time": 33.802800000000005,
            "velocity": 0.3937007874015748
          },
          {
            "duration": 0.10563374999999553,
            "durationTicks": 96,
            "midi": 75,
            "name": "D#5",
            "ticks": 31008,
            "time": 34.119701250000006,
            "velocity": 0.3937007874015748
          },
          {
            "duration": 0.10563375000000264,
            "durationTicks": 96,
            "midi": 76,
            "name": "E5",
            "ticks": 31056,
            "time": 34.172518125,
            "velocity": 0.3937007874015748
          },
          {
            "duration": 0.21126750000000527,
            "durationTicks": 192,
            "midi": 72,
            "name": "C5",
            "ticks": 31104,
            "time": 34.225335,
            "velocity": 0.3937007874015748
          },
          {
            "duration": 0.21126750000000527,
            "durationTicks": 192,
            "midi": 77,
            "name": "F5",
            "ticks": 31104,
            "time": 34.225335,
            "velocity": 0.3937007874015748
          },
          {
            "duration": 0.21126750000000527,
            "durationTicks": 192,
            "midi": 41,
            "name": "F2",
            "ticks": 31104,
            "time": 34.225335,
            "velocity": 0.3937007874015748
          },
          {
            "duration": 0.21126750000000527,
            "durationTicks": 192,
            "midi": 65,
            "name": "F4",
            "ticks": 31104,
            "time": 34.225335,
            "velocity": 0.3937007874015748
          },
          {
            "duration": 0.21126750000000527,
            "durationTicks": 192,
            "midi": 53,
            "name": "F3",
            "ticks": 31104,
            "time": 34.225335,
            "velocity": 0.3937007874015748
          },
          {
            "duration": 0.21126749999999817,
            "durationTicks": 192,
            "midi": 65,
            "name": "F4",
            "ticks": 31296,
            "time": 34.436602500000006,
            "velocity": 0.3937007874015748
          },
          {
            "duration": 0.21126749999999817,
            "durationTicks": 192,
            "midi": 72,
            "name": "C5",
            "ticks": 31296,
            "time": 34.436602500000006,
            "velocity": 0.3937007874015748
          },
          {
            "duration": 0.21126749999999817,
            "durationTicks": 192,
            "midi": 53,
            "name": "F3",
            "ticks": 31296,
            "time": 34.436602500000006,
            "velocity": 0.3937007874015748
          },
          {
            "duration": 0.21126749999999817,
            "durationTicks": 192,
            "midi": 56,
            "name": "G#3",
            "ticks": 31296,
            "time": 34.436602500000006,
            "velocity": 0.3937007874015748
          },
          {
            "duration": 0.21126749999999817,
            "durationTicks": 192,
            "midi": 48,
            "name": "C3",
            "ticks": 31296,
            "time": 34.436602500000006,
            "velocity": 0.3937007874015748
          },
          {
            "duration": 0.21126749999999817,
            "durationTicks": 192,
            "midi": 77,
            "name": "F5",
            "ticks": 31296,
            "time": 34.436602500000006,
            "velocity": 0.3937007874015748
          },
          {
            "duration": 0.21126749999999817,
            "durationTicks": 192,
            "midi": 48,
            "name": "C3",
            "ticks": 31488,
            "time": 34.647870000000005,
            "velocity": 0.3937007874015748
          },
          {
            "duration": 0.21126749999999817,
            "durationTicks": 192,
            "midi": 36,
            "name": "C2",
            "ticks": 31488,
            "time": 34.647870000000005,
            "velocity": 0.3937007874015748
          },
          {
            "duration": 0.10563375000000264,
            "durationTicks": 96,
            "midi": 72,
            "name": "C5",
            "ticks": 31488,
            "time": 34.647870000000005,
            "velocity": 0.3937007874015748
          },
          {
            "duration": 0.10563374999999553,
            "durationTicks": 96,
            "midi": 74,
            "name": "D5",
            "ticks": 31584,
            "time": 34.75350375000001,
            "velocity": 0.3937007874015748
          },
          {
            "duration": 0.21126749999999817,
            "durationTicks": 192,
            "midi": 56,
            "name": "G#3",
            "ticks": 31680,
            "time": 34.8591375,
            "velocity": 0.3937007874015748
          },
          {
            "duration": 0.21126749999999817,
            "durationTicks": 192,
            "midi": 48,
            "name": "C3",
            "ticks": 31680,
            "time": 34.8591375,
            "velocity": 0.3937007874015748
          },
          {
            "duration": 0.10563375000000264,
            "durationTicks": 96,
            "midi": 75,
            "name": "D#5",
            "ticks": 31680,
            "time": 34.8591375,
            "velocity": 0.3937007874015748
          },
          {
            "duration": 0.21126749999999817,
            "durationTicks": 192,
            "midi": 53,
            "name": "F3",
            "ticks": 31680,
            "time": 34.8591375,
            "velocity": 0.3937007874015748
          },
          {
            "duration": 0.10563374999999553,
            "durationTicks": 96,
            "midi": 76,
            "name": "E5",
            "ticks": 31776,
            "time": 34.964771250000005,
            "velocity": 0.3937007874015748
          },
          {
            "duration": 0.21126750000000527,
            "durationTicks": 192,
            "midi": 72,
            "name": "C5",
            "ticks": 31872,
            "time": 35.070405,
            "velocity": 0.3937007874015748
          },
          {
            "duration": 0.21126750000000527,
            "durationTicks": 192,
            "midi": 53,
            "name": "F3",
            "ticks": 31872,
            "time": 35.070405,
            "velocity": 0.3937007874015748
          },
          {
            "duration": 0.21126750000000527,
            "durationTicks": 192,
            "midi": 65,
            "name": "F4",
            "ticks": 31872,
            "time": 35.070405,
            "velocity": 0.3937007874015748
          },
          {
            "duration": 0.21126750000000527,
            "durationTicks": 192,
            "midi": 41,
            "name": "F2",
            "ticks": 31872,
            "time": 35.070405,
            "velocity": 0.3937007874015748
          },
          {
            "duration": 0.21126750000000527,
            "durationTicks": 192,
            "midi": 77,
            "name": "F5",
            "ticks": 31872,
            "time": 35.070405,
            "velocity": 0.3937007874015748
          },
          {
            "duration": 0.21126749999999817,
            "durationTicks": 192,
            "midi": 48,
            "name": "C3",
            "ticks": 32064,
            "time": 35.281672500000006,
            "velocity": 0.3937007874015748
          },
          {
            "duration": 0.21126749999999817,
            "durationTicks": 192,
            "midi": 77,
            "name": "F5",
            "ticks": 32064,
            "time": 35.281672500000006,
            "velocity": 0.3937007874015748
          },
          {
            "duration": 0.21126749999999817,
            "durationTicks": 192,
            "midi": 56,
            "name": "G#3",
            "ticks": 32064,
            "time": 35.281672500000006,
            "velocity": 0.3937007874015748
          },
          {
            "duration": 0.21126749999999817,
            "durationTicks": 192,
            "midi": 72,
            "name": "C5",
            "ticks": 32064,
            "time": 35.281672500000006,
            "velocity": 0.3937007874015748
          },
          {
            "duration": 0.21126749999999817,
            "durationTicks": 192,
            "midi": 65,
            "name": "F4",
            "ticks": 32064,
            "time": 35.281672500000006,
            "velocity": 0.3937007874015748
          },
          {
            "duration": 0.21126749999999817,
            "durationTicks": 192,
            "midi": 53,
            "name": "F3",
            "ticks": 32064,
            "time": 35.281672500000006,
            "velocity": 0.3937007874015748
          },
          {
            "duration": 0.21126749999999817,
            "durationTicks": 192,
            "midi": 48,
            "name": "C3",
            "ticks": 32256,
            "time": 35.492940000000004,
            "velocity": 0.3937007874015748
          },
          {
            "duration": 0.21126749999999817,
            "durationTicks": 192,
            "midi": 80,
            "name": "G#5",
            "ticks": 32256,
            "time": 35.492940000000004,
            "velocity": 0.3937007874015748
          },
          {
            "duration": 0.21126749999999817,
            "durationTicks": 192,
            "midi": 72,
            "name": "C5",
            "ticks": 32256,
            "time": 35.492940000000004,
            "velocity": 0.3937007874015748
          },
          {
            "duration": 0.21126749999999817,
            "durationTicks": 192,
            "midi": 36,
            "name": "C2",
            "ticks": 32256,
            "time": 35.492940000000004,
            "velocity": 0.3937007874015748
          },
          {
            "duration": 0.21126749999999817,
            "durationTicks": 192,
            "midi": 77,
            "name": "F5",
            "ticks": 32256,
            "time": 35.492940000000004,
            "velocity": 0.3937007874015748
          },
          {
            "duration": 0.21126749999999817,
            "durationTicks": 192,
            "midi": 56,
            "name": "G#3",
            "ticks": 32448,
            "time": 35.7042075,
            "velocity": 0.3937007874015748
          },
          {
            "duration": 0.10563375000000264,
            "durationTicks": 96,
            "midi": 79,
            "name": "G5",
            "ticks": 32448,
            "time": 35.7042075,
            "velocity": 0.3937007874015748
          },
          {
            "duration": 0.21126749999999817,
            "durationTicks": 192,
            "midi": 48,
            "name": "C3",
            "ticks": 32448,
            "time": 35.7042075,
            "velocity": 0.3937007874015748
          },
          {
            "duration": 0.21126749999999817,
            "durationTicks": 192,
            "midi": 53,
            "name": "F3",
            "ticks": 32448,
            "time": 35.7042075,
            "velocity": 0.3937007874015748
          },
          {
            "duration": 0.10563374999999553,
            "durationTicks": 96,
            "midi": 77,
            "name": "F5",
            "ticks": 32544,
            "time": 35.809841250000005,
            "velocity": 0.3937007874015748
          },
          {
            "duration": 0.21126750000000527,
            "durationTicks": 192,
            "midi": 79,
            "name": "G5",
            "ticks": 32640,
            "time": 35.915475,
            "velocity": 0.3937007874015748
          },
          {
            "duration": 0.21126750000000527,
            "durationTicks": 192,
            "midi": 43,
            "name": "G2",
            "ticks": 32640,
            "time": 35.915475,
            "velocity": 0.3937007874015748
          },
          {
            "duration": 0.21126750000000527,
            "durationTicks": 192,
            "midi": 72,
            "name": "C5",
            "ticks": 32640,
            "time": 35.915475,
            "velocity": 0.3937007874015748
          },
          {
            "duration": 0.21126750000000527,
            "durationTicks": 192,
            "midi": 55,
            "name": "G3",
            "ticks": 32640,
            "time": 35.915475,
            "velocity": 0.3937007874015748
          },
          {
            "duration": 0.21126750000000527,
            "durationTicks": 192,
            "midi": 76,
            "name": "E5",
            "ticks": 32640,
            "time": 35.915475,
            "velocity": 0.3937007874015748
          },
          {
            "duration": 0.21126749999999817,
            "durationTicks": 192,
            "midi": 76,
            "name": "E5",
            "ticks": 32832,
            "time": 36.126742500000006,
            "velocity": 0.3937007874015748
          },
          {
            "duration": 0.21126749999999817,
            "durationTicks": 192,
            "midi": 72,
            "name": "C5",
            "ticks": 32832,
            "time": 36.126742500000006,
            "velocity": 0.3937007874015748
          },
          {
            "duration": 0.21126749999999817,
            "durationTicks": 192,
            "midi": 55,
            "name": "G3",
            "ticks": 32832,
            "time": 36.126742500000006,
            "velocity": 0.3937007874015748
          },
          {
            "duration": 0.21126749999999817,
            "durationTicks": 192,
            "midi": 79,
            "name": "G5",
            "ticks": 32832,
            "time": 36.126742500000006,
            "velocity": 0.3937007874015748
          },
          {
            "duration": 0.21126749999999817,
            "durationTicks": 192,
            "midi": 60,
            "name": "C4",
            "ticks": 32832,
            "time": 36.126742500000006,
            "velocity": 0.3937007874015748
          },
          {
            "duration": 0.21126749999999817,
            "durationTicks": 192,
            "midi": 58,
            "name": "A#3",
            "ticks": 32832,
            "time": 36.126742500000006,
            "velocity": 0.3937007874015748
          },
          {
            "duration": 0.10563375000000264,
            "durationTicks": 96,
            "midi": 80,
            "name": "G#5",
            "ticks": 33024,
            "time": 36.338010000000004,
            "velocity": 0.3937007874015748
          },
          {
            "duration": 0.21126749999999817,
            "durationTicks": 192,
            "midi": 48,
            "name": "C3",
            "ticks": 33024,
            "time": 36.338010000000004,
            "velocity": 0.3937007874015748
          },
          {
            "duration": 0.21126749999999817,
            "durationTicks": 192,
            "midi": 36,
            "name": "C2",
            "ticks": 33024,
            "time": 36.338010000000004,
            "velocity": 0.3937007874015748
          },
          {
            "duration": 0.10563375000000264,
            "durationTicks": 96,
            "midi": 81,
            "name": "A5",
            "ticks": 33096,
            "time": 36.417235312500004,
            "velocity": 0.3937007874015748
          },
          {
            "duration": 0.10563375000000264,
            "durationTicks": 96,
            "midi": 80,
            "name": "G#5",
            "ticks": 33168,
            "time": 36.496460625000005,
            "velocity": 0.3937007874015748
          },
          {
            "duration": 0.21126750000000527,
            "durationTicks": 192,
            "midi": 58,
            "name": "A#3",
            "ticks": 33216,
            "time": 36.5492775,
            "velocity": 0.3937007874015748
          },
          {
            "duration": 0.21126750000000527,
            "durationTicks": 192,
            "midi": 60,
            "name": "C4",
            "ticks": 33216,
            "time": 36.5492775,
            "velocity": 0.3937007874015748
          },
          {
            "duration": 0.21126750000000527,
            "durationTicks": 192,
            "midi": 77,
            "name": "F5",
            "ticks": 33216,
            "time": 36.5492775,
            "velocity": 0.3937007874015748
          },
          {
            "duration": 0.21126750000000527,
            "durationTicks": 192,
            "midi": 55,
            "name": "G3",
            "ticks": 33216,
            "time": 36.5492775,
            "velocity": 0.3937007874015748
          },
          {
            "duration": 0.42253499999999633,
            "durationTicks": 384,
            "midi": 72,
            "name": "C5",
            "ticks": 33408,
            "time": 36.76054500000001,
            "velocity": 0.3937007874015748
          },
          {
            "duration": 0.42253499999999633,
            "durationTicks": 384,
            "midi": 79,
            "name": "G5",
            "ticks": 33408,
            "time": 36.76054500000001,
            "velocity": 0.3937007874015748
          },
          {
            "duration": 0.42253499999999633,
            "durationTicks": 384,
            "midi": 76,
            "name": "E5",
            "ticks": 33408,
            "time": 36.76054500000001,
            "velocity": 0.3937007874015748
          },
          {
            "duration": 0.21126749999999817,
            "durationTicks": 192,
            "midi": 55,
            "name": "G3",
            "ticks": 33408,
            "time": 36.76054500000001,
            "velocity": 0.3937007874015748
          },
          {
            "duration": 0.21126749999999817,
            "durationTicks": 192,
            "midi": 43,
            "name": "G2",
            "ticks": 33408,
            "time": 36.76054500000001,
            "velocity": 0.3937007874015748
          },
          {
            "duration": 0.42253499999999633,
            "durationTicks": 384,
            "midi": 67,
            "name": "G4",
            "ticks": 33408,
            "time": 36.76054500000001,
            "velocity": 0.3937007874015748
          },
          {
            "duration": 0.21126749999999817,
            "durationTicks": 192,
            "midi": 60,
            "name": "C4",
            "ticks": 33600,
            "time": 36.971812500000006,
            "velocity": 0.3937007874015748
          },
          {
            "duration": 0.21126749999999817,
            "durationTicks": 192,
            "midi": 55,
            "name": "G3",
            "ticks": 33600,
            "time": 36.971812500000006,
            "velocity": 0.3937007874015748
          },
          {
            "duration": 0.21126749999999817,
            "durationTicks": 192,
            "midi": 58,
            "name": "A#3",
            "ticks": 33600,
            "time": 36.971812500000006,
            "velocity": 0.3937007874015748
          },
          {
            "duration": 0.21126749999999817,
            "durationTicks": 192,
            "midi": 52,
            "name": "E3",
            "ticks": 33792,
            "time": 37.183080000000004,
            "velocity": 0.3937007874015748
          },
          {
            "duration": 0.21126749999999817,
            "durationTicks": 192,
            "midi": 40,
            "name": "E2",
            "ticks": 33792,
            "time": 37.183080000000004,
            "velocity": 0.3937007874015748
          },
          {
            "duration": 0.21126750000000527,
            "durationTicks": 192,
            "midi": 58,
            "name": "A#3",
            "ticks": 33984,
            "time": 37.3943475,
            "velocity": 0.3937007874015748
          },
          {
            "duration": 0.21126750000000527,
            "durationTicks": 192,
            "midi": 60,
            "name": "C4",
            "ticks": 33984,
            "time": 37.3943475,
            "velocity": 0.3937007874015748
          },
          {
            "duration": 0.21126750000000527,
            "durationTicks": 192,
            "midi": 55,
            "name": "G3",
            "ticks": 33984,
            "time": 37.3943475,
            "velocity": 0.3937007874015748
          },
          {
            "duration": 0.21126749999999817,
            "durationTicks": 192,
            "midi": 79,
            "name": "G5",
            "ticks": 34176,
            "time": 37.60561500000001,
            "velocity": 0.3937007874015748
          },
          {
            "duration": 0.21126749999999817,
            "durationTicks": 192,
            "midi": 76,
            "name": "E5",
            "ticks": 34176,
            "time": 37.60561500000001,
            "velocity": 0.3937007874015748
          },
          {
            "duration": 0.21126749999999817,
            "durationTicks": 192,
            "midi": 55,
            "name": "G3",
            "ticks": 34176,
            "time": 37.60561500000001,
            "velocity": 0.3937007874015748
          },
          {
            "duration": 0.21126749999999817,
            "durationTicks": 192,
            "midi": 43,
            "name": "G2",
            "ticks": 34176,
            "time": 37.60561500000001,
            "velocity": 0.3937007874015748
          },
          {
            "duration": 0.21126749999999817,
            "durationTicks": 192,
            "midi": 82,
            "name": "A#5",
            "ticks": 34176,
            "time": 37.60561500000001,
            "velocity": 0.3937007874015748
          },
          {
            "duration": 0.21126749999999817,
            "durationTicks": 192,
            "midi": 58,
            "name": "A#3",
            "ticks": 34368,
            "time": 37.816882500000006,
            "velocity": 0.3937007874015748
          },
          {
            "duration": 0.21126749999999817,
            "durationTicks": 192,
            "midi": 82,
            "name": "A#5",
            "ticks": 34368,
            "time": 37.816882500000006,
            "velocity": 0.3937007874015748
          },
          {
            "duration": 0.21126749999999817,
            "durationTicks": 192,
            "midi": 79,
            "name": "G5",
            "ticks": 34368,
            "time": 37.816882500000006,
            "velocity": 0.3937007874015748
          },
          {
            "duration": 0.21126749999999817,
            "durationTicks": 192,
            "midi": 76,
            "name": "E5",
            "ticks": 34368,
            "time": 37.816882500000006,
            "velocity": 0.3937007874015748
          },
          {
            "duration": 0.21126749999999817,
            "durationTicks": 192,
            "midi": 60,
            "name": "C4",
            "ticks": 34368,
            "time": 37.816882500000006,
            "velocity": 0.3937007874015748
          },
          {
            "duration": 0.21126749999999817,
            "durationTicks": 192,
            "midi": 55,
            "name": "G3",
            "ticks": 34368,
            "time": 37.816882500000006,
            "velocity": 0.3937007874015748
          },
          {
            "duration": 0.21126749999999817,
            "durationTicks": 192,
            "midi": 48,
            "name": "C3",
            "ticks": 34560,
            "time": 38.028150000000004,
            "velocity": 0.3937007874015748
          },
          {
            "duration": 0.21126749999999817,
            "durationTicks": 192,
            "midi": 36,
            "name": "C2",
            "ticks": 34560,
            "time": 38.028150000000004,
            "velocity": 0.3937007874015748
          },
          {
            "duration": 0.10563375000000264,
            "durationTicks": 96,
            "midi": 85,
            "name": "C#6",
            "ticks": 34560,
            "time": 38.028150000000004,
            "velocity": 0.3937007874015748
          },
          {
            "duration": 0.10563375000000264,
            "durationTicks": 96,
            "midi": 87,
            "name": "D#6",
            "ticks": 34632,
            "time": 38.107375312500004,
            "velocity": 0.3937007874015748
          },
          {
            "duration": 0.10563375000000264,
            "durationTicks": 96,
            "midi": 85,
            "name": "C#6",
            "ticks": 34704,
            "time": 38.186600625000004,
            "velocity": 0.3937007874015748
          },
          {
            "duration": 0.21126750000000527,
            "durationTicks": 192,
            "midi": 58,
            "name": "A#3",
            "ticks": 34752,
            "time": 38.2394175,
            "velocity": 0.3937007874015748
          },
          {
            "duration": 0.21126750000000527,
            "durationTicks": 192,
            "midi": 60,
            "name": "C4",
            "ticks": 34752,
            "time": 38.2394175,
            "velocity": 0.3937007874015748
          },
          {
            "duration": 0.21126750000000527,
            "durationTicks": 192,
            "midi": 55,
            "name": "G3",
            "ticks": 34752,
            "time": 38.2394175,
            "velocity": 0.3937007874015748
          },
          {
            "duration": 0.10563375000000264,
            "durationTicks": 96,
            "midi": 84,
            "name": "C6",
            "ticks": 34776,
            "time": 38.265825937500004,
            "velocity": 0.3937007874015748
          },
          {
            "duration": 0.10563375000000264,
            "durationTicks": 96,
            "midi": 82,
            "name": "A#5",
            "ticks": 34848,
            "time": 38.345051250000004,
            "velocity": 0.3937007874015748
          },
          {
            "duration": 0.21126749999999817,
            "durationTicks": 192,
            "midi": 55,
            "name": "G3",
            "ticks": 34944,
            "time": 38.45068500000001,
            "velocity": 0.3937007874015748
          },
          {
            "duration": 0.21126749999999817,
            "durationTicks": 192,
            "midi": 43,
            "name": "G2",
            "ticks": 34944,
            "time": 38.45068500000001,
            "velocity": 0.3937007874015748
          },
          {
            "duration": 0.21126749999999817,
            "durationTicks": 192,
            "midi": 76,
            "name": "E5",
            "ticks": 34944,
            "time": 38.45068500000001,
            "velocity": 0.3937007874015748
          },
          {
            "duration": 0.21126749999999817,
            "durationTicks": 192,
            "midi": 79,
            "name": "G5",
            "ticks": 34944,
            "time": 38.45068500000001,
            "velocity": 0.3937007874015748
          },
          {
            "duration": 0.21126749999999817,
            "durationTicks": 192,
            "midi": 84,
            "name": "C6",
            "ticks": 34944,
            "time": 38.45068500000001,
            "velocity": 0.3937007874015748
          },
          {
            "duration": 0.21126749999999817,
            "durationTicks": 192,
            "midi": 76,
            "name": "E5",
            "ticks": 35136,
            "time": 38.661952500000005,
            "velocity": 0.3937007874015748
          },
          {
            "duration": 0.21126749999999817,
            "durationTicks": 192,
            "midi": 84,
            "name": "C6",
            "ticks": 35136,
            "time": 38.661952500000005,
            "velocity": 0.3937007874015748
          },
          {
            "duration": 0.21126749999999817,
            "durationTicks": 192,
            "midi": 55,
            "name": "G3",
            "ticks": 35136,
            "time": 38.661952500000005,
            "velocity": 0.3937007874015748
          },
          {
            "duration": 0.21126749999999817,
            "durationTicks": 192,
            "midi": 60,
            "name": "C4",
            "ticks": 35136,
            "time": 38.661952500000005,
            "velocity": 0.3937007874015748
          },
          {
            "duration": 0.21126749999999817,
            "durationTicks": 192,
            "midi": 79,
            "name": "G5",
            "ticks": 35136,
            "time": 38.661952500000005,
            "velocity": 0.3937007874015748
          },
          {
            "duration": 0.21126749999999817,
            "durationTicks": 192,
            "midi": 58,
            "name": "A#3",
            "ticks": 35136,
            "time": 38.661952500000005,
            "velocity": 0.3937007874015748
          },
          {
            "duration": 0.10563375000000264,
            "durationTicks": 96,
            "midi": 85,
            "name": "C#6",
            "ticks": 35328,
            "time": 38.87322,
            "velocity": 0.3937007874015748
          },
          {
            "duration": 0.21126749999999817,
            "durationTicks": 192,
            "midi": 48,
            "name": "C3",
            "ticks": 35328,
            "time": 38.87322,
            "velocity": 0.3937007874015748
          },
          {
            "duration": 0.21126749999999817,
            "durationTicks": 192,
            "midi": 36,
            "name": "C2",
            "ticks": 35328,
            "time": 38.87322,
            "velocity": 0.3937007874015748
          },
          {
            "duration": 0.10563375000000264,
            "durationTicks": 96,
            "midi": 87,
            "name": "D#6",
            "ticks": 35400,
            "time": 38.952445312500004,
            "velocity": 0.3937007874015748
          },
          {
            "duration": 0.10563375000000264,
            "durationTicks": 96,
            "midi": 85,
            "name": "C#6",
            "ticks": 35472,
            "time": 39.031670625000004,
            "velocity": 0.3937007874015748
          },
          {
            "duration": 0.21126750000000527,
            "durationTicks": 192,
            "midi": 58,
            "name": "A#3",
            "ticks": 35520,
            "time": 39.0844875,
            "velocity": 0.3937007874015748
          },
          {
            "duration": 0.21126750000000527,
            "durationTicks": 192,
            "midi": 60,
            "name": "C4",
            "ticks": 35520,
            "time": 39.0844875,
            "velocity": 0.3937007874015748
          },
          {
            "duration": 0.21126750000000527,
            "durationTicks": 192,
            "midi": 55,
            "name": "G3",
            "ticks": 35520,
            "time": 39.0844875,
            "velocity": 0.3937007874015748
          },
          {
            "duration": 0.10563375000000264,
            "durationTicks": 96,
            "midi": 84,
            "name": "C6",
            "ticks": 35544,
            "time": 39.110895937500004,
            "velocity": 0.3937007874015748
          },
          {
            "duration": 0.10563375000000264,
            "durationTicks": 96,
            "midi": 82,
            "name": "A#5",
            "ticks": 35616,
            "time": 39.190121250000004,
            "velocity": 0.3937007874015748
          },
          {
            "duration": 0.21126749999999817,
            "durationTicks": 192,
            "midi": 72,
            "name": "C5",
            "ticks": 35712,
            "time": 39.29575500000001,
            "velocity": 0.3937007874015748
          },
          {
            "duration": 0.21126749999999817,
            "durationTicks": 192,
            "midi": 52,
            "name": "E3",
            "ticks": 35712,
            "time": 39.29575500000001,
            "velocity": 0.3937007874015748
          },
          {
            "duration": 0.21126749999999817,
            "durationTicks": 192,
            "midi": 76,
            "name": "E5",
            "ticks": 35712,
            "time": 39.29575500000001,
            "velocity": 0.3937007874015748
          },
          {
            "duration": 0.21126749999999817,
            "durationTicks": 192,
            "midi": 80,
            "name": "G#5",
            "ticks": 35712,
            "time": 39.29575500000001,
            "velocity": 0.3937007874015748
          },
          {
            "duration": 0.21126749999999817,
            "durationTicks": 192,
            "midi": 40,
            "name": "E2",
            "ticks": 35712,
            "time": 39.29575500000001,
            "velocity": 0.3937007874015748
          },
          {
            "duration": 0.21126749999999817,
            "durationTicks": 192,
            "midi": 72,
            "name": "C5",
            "ticks": 35904,
            "time": 39.507022500000005,
            "velocity": 0.3937007874015748
          },
          {
            "duration": 0.21126749999999817,
            "durationTicks": 192,
            "midi": 80,
            "name": "G#5",
            "ticks": 35904,
            "time": 39.507022500000005,
            "velocity": 0.3937007874015748
          },
          {
            "duration": 0.21126749999999817,
            "durationTicks": 192,
            "midi": 60,
            "name": "C4",
            "ticks": 35904,
            "time": 39.507022500000005,
            "velocity": 0.3937007874015748
          },
          {
            "duration": 0.21126749999999817,
            "durationTicks": 192,
            "midi": 76,
            "name": "E5",
            "ticks": 35904,
            "time": 39.507022500000005,
            "velocity": 0.3937007874015748
          },
          {
            "duration": 0.21126749999999817,
            "durationTicks": 192,
            "midi": 58,
            "name": "A#3",
            "ticks": 35904,
            "time": 39.507022500000005,
            "velocity": 0.3937007874015748
          },
          {
            "duration": 0.21126749999999817,
            "durationTicks": 192,
            "midi": 55,
            "name": "G3",
            "ticks": 35904,
            "time": 39.507022500000005,
            "velocity": 0.3937007874015748
          },
          {
            "duration": 0.21126749999999817,
            "durationTicks": 192,
            "midi": 43,
            "name": "G2",
            "ticks": 36096,
            "time": 39.71829,
            "velocity": 0.3937007874015748
          },
          {
            "duration": 0.10563375000000264,
            "durationTicks": 96,
            "midi": 82,
            "name": "A#5",
            "ticks": 36096,
            "time": 39.71829,
            "velocity": 0.3937007874015748
          },
          {
            "duration": 0.21126749999999817,
            "durationTicks": 192,
            "midi": 55,
            "name": "G3",
            "ticks": 36096,
            "time": 39.71829,
            "velocity": 0.3937007874015748
          },
          {
            "duration": 0.10563374999999553,
            "durationTicks": 96,
            "midi": 84,
            "name": "C6",
            "ticks": 36192,
            "time": 39.823923750000006,
            "velocity": 0.3937007874015748
          },
          {
            "duration": 0.21126750000000527,
            "durationTicks": 192,
            "midi": 58,
            "name": "A#3",
            "ticks": 36288,
            "time": 39.9295575,
            "velocity": 0.3937007874015748
          },
          {
            "duration": 0.21126750000000527,
            "durationTicks": 192,
            "midi": 60,
            "name": "C4",
            "ticks": 36288,
            "time": 39.9295575,
            "velocity": 0.3937007874015748
          },
          {
            "duration": 0.21126750000000527,
            "durationTicks": 192,
            "midi": 55,
            "name": "G3",
            "ticks": 36288,
            "time": 39.9295575,
            "velocity": 0.3937007874015748
          },
          {
            "duration": 0.10563375000000264,
            "durationTicks": 96,
            "midi": 82,
            "name": "A#5",
            "ticks": 36288,
            "time": 39.9295575,
            "velocity": 0.3937007874015748
          },
          {
            "duration": 0.10563375000000264,
            "durationTicks": 96,
            "midi": 79,
            "name": "G5",
            "ticks": 36384,
            "time": 40.035191250000004,
            "velocity": 0.3937007874015748
          },
          {
            "duration": 0.21126749999999817,
            "durationTicks": 192,
            "midi": 44,
            "name": "G#2",
            "ticks": 36480,
            "time": 40.14082500000001,
            "velocity": 0.3937007874015748
          },
          {
            "duration": 0.42253499999999633,
            "durationTicks": 384,
            "midi": 72,
            "name": "C5",
            "ticks": 36480,
            "time": 40.14082500000001,
            "velocity": 0.3937007874015748
          },
          {
            "duration": 0.21126749999999817,
            "durationTicks": 192,
            "midi": 56,
            "name": "G#3",
            "ticks": 36480,
            "time": 40.14082500000001,
            "velocity": 0.3937007874015748
          },
          {
            "duration": 0.42253499999999633,
            "durationTicks": 384,
            "midi": 77,
            "name": "F5",
            "ticks": 36480,
            "time": 40.14082500000001,
            "velocity": 0.3937007874015748
          },
          {
            "duration": 0.42253499999999633,
            "durationTicks": 384,
            "midi": 68,
            "name": "G#4",
            "ticks": 36480,
            "time": 40.14082500000001,
            "velocity": 0.3937007874015748
          },
          {
            "duration": 0.21126749999999817,
            "durationTicks": 192,
            "midi": 56,
            "name": "G#3",
            "ticks": 36672,
            "time": 40.352092500000005,
            "velocity": 0.3937007874015748
          },
          {
            "duration": 0.21126749999999817,
            "durationTicks": 192,
            "midi": 53,
            "name": "F3",
            "ticks": 36672,
            "time": 40.352092500000005,
            "velocity": 0.3937007874015748
          },
          {
            "duration": 0.21126749999999817,
            "durationTicks": 192,
            "midi": 48,
            "name": "C3",
            "ticks": 36672,
            "time": 40.352092500000005,
            "velocity": 0.3937007874015748
          },
          {
            "duration": 0.21126750000000527,
            "durationTicks": 192,
            "midi": 72,
            "name": "C5",
            "ticks": 36864,
            "time": 40.56336,
            "velocity": 0.3937007874015748
          },
          {
            "duration": 0.21126750000000527,
            "durationTicks": 192,
            "midi": 60,
            "name": "C4",
            "ticks": 36864,
            "time": 40.56336,
            "velocity": 0.3937007874015748
          },
          {
            "duration": 0.21126750000000527,
            "durationTicks": 192,
            "midi": 36,
            "name": "C2",
            "ticks": 36864,
            "time": 40.56336,
            "velocity": 0.3937007874015748
          },
          {
            "duration": 0.21126750000000527,
            "durationTicks": 192,
            "midi": 48,
            "name": "C3",
            "ticks": 36864,
            "time": 40.56336,
            "velocity": 0.3937007874015748
          },
          {
            "duration": 0.21126749999999817,
            "durationTicks": 192,
            "midi": 48,
            "name": "C3",
            "ticks": 37056,
            "time": 40.77462750000001,
            "velocity": 0.3937007874015748
          },
          {
            "duration": 0.21126749999999817,
            "durationTicks": 192,
            "midi": 56,
            "name": "G#3",
            "ticks": 37056,
            "time": 40.77462750000001,
            "velocity": 0.3937007874015748
          },
          {
            "duration": 0.21126749999999817,
            "durationTicks": 192,
            "midi": 53,
            "name": "F3",
            "ticks": 37056,
            "time": 40.77462750000001,
            "velocity": 0.3937007874015748
          },
          {
            "duration": 0.10563375000000264,
            "durationTicks": 96,
            "midi": 75,
            "name": "D#5",
            "ticks": 37152,
            "time": 40.880261250000004,
            "velocity": 0.3937007874015748
          },
          {
            "duration": 0.10563375000000264,
            "durationTicks": 96,
            "midi": 76,
            "name": "E5",
            "ticks": 37200,
            "time": 40.933078125,
            "velocity": 0.3937007874015748
          },
          {
            "duration": 0.21126749999999817,
            "durationTicks": 192,
            "midi": 53,
            "name": "F3",
            "ticks": 37248,
            "time": 40.985895000000006,
            "velocity": 0.3937007874015748
          },
          {
            "duration": 0.21126749999999817,
            "durationTicks": 192,
            "midi": 77,
            "name": "F5",
            "ticks": 37248,
            "time": 40.985895000000006,
            "velocity": 0.3937007874015748
          },
          {
            "duration": 0.21126749999999817,
            "durationTicks": 192,
            "midi": 41,
            "name": "F2",
            "ticks": 37248,
            "time": 40.985895000000006,
            "velocity": 0.3937007874015748
          },
          {
            "duration": 0.21126749999999817,
            "durationTicks": 192,
            "midi": 72,
            "name": "C5",
            "ticks": 37248,
            "time": 40.985895000000006,
            "velocity": 0.3937007874015748
          },
          {
            "duration": 0.21126749999999817,
            "durationTicks": 192,
            "midi": 65,
            "name": "F4",
            "ticks": 37248,
            "time": 40.985895000000006,
            "velocity": 0.3937007874015748
          },
          {
            "duration": 0.21126749999999817,
            "durationTicks": 192,
            "midi": 53,
            "name": "F3",
            "ticks": 37440,
            "time": 41.197162500000005,
            "velocity": 0.3937007874015748
          },
          {
            "duration": 0.21126749999999817,
            "durationTicks": 192,
            "midi": 72,
            "name": "C5",
            "ticks": 37440,
            "time": 41.197162500000005,
            "velocity": 0.3937007874015748
          },
          {
            "duration": 0.21126749999999817,
            "durationTicks": 192,
            "midi": 48,
            "name": "C3",
            "ticks": 37440,
            "time": 41.197162500000005,
            "velocity": 0.3937007874015748
          },
          {
            "duration": 0.21126749999999817,
            "durationTicks": 192,
            "midi": 65,
            "name": "F4",
            "ticks": 37440,
            "time": 41.197162500000005,
            "velocity": 0.3937007874015748
          },
          {
            "duration": 0.21126749999999817,
            "durationTicks": 192,
            "midi": 56,
            "name": "G#3",
            "ticks": 37440,
            "time": 41.197162500000005,
            "velocity": 0.3937007874015748
          },
          {
            "duration": 0.21126749999999817,
            "durationTicks": 192,
            "midi": 77,
            "name": "F5",
            "ticks": 37440,
            "time": 41.197162500000005,
            "velocity": 0.3937007874015748
          },
          {
            "duration": 0.21126750000000527,
            "durationTicks": 192,
            "midi": 48,
            "name": "C3",
            "ticks": 37632,
            "time": 41.40843,
            "velocity": 0.3937007874015748
          },
          {
            "duration": 0.21126750000000527,
            "durationTicks": 192,
            "midi": 36,
            "name": "C2",
            "ticks": 37632,
            "time": 41.40843,
            "velocity": 0.3937007874015748
          },
          {
            "duration": 0.10563375000000264,
            "durationTicks": 96,
            "midi": 72,
            "name": "C5",
            "ticks": 37632,
            "time": 41.40843,
            "velocity": 0.3937007874015748
          },
          {
            "duration": 0.10563375000000264,
            "durationTicks": 96,
            "midi": 74,
            "name": "D5",
            "ticks": 37728,
            "time": 41.514063750000005,
            "velocity": 0.3937007874015748
          },
          {
            "duration": 0.21126749999999817,
            "durationTicks": 192,
            "midi": 53,
            "name": "F3",
            "ticks": 37824,
            "time": 41.61969750000001,
            "velocity": 0.3937007874015748
          },
          {
            "duration": 0.21126749999999817,
            "durationTicks": 192,
            "midi": 48,
            "name": "C3",
            "ticks": 37824,
            "time": 41.61969750000001,
            "velocity": 0.3937007874015748
          },
          {
            "duration": 0.21126749999999817,
            "durationTicks": 192,
            "midi": 56,
            "name": "G#3",
            "ticks": 37824,
            "time": 41.61969750000001,
            "velocity": 0.3937007874015748
          },
          {
            "duration": 0.10563374999999553,
            "durationTicks": 96,
            "midi": 75,
            "name": "D#5",
            "ticks": 37824,
            "time": 41.61969750000001,
            "velocity": 0.3937007874015748
          },
          {
            "duration": 0.10563375000000264,
            "durationTicks": 96,
            "midi": 76,
            "name": "E5",
            "ticks": 37920,
            "time": 41.72533125,
            "velocity": 0.3937007874015748
          },
          {
            "duration": 0.21126749999999817,
            "durationTicks": 192,
            "midi": 65,
            "name": "F4",
            "ticks": 38016,
            "time": 41.830965000000006,
            "velocity": 0.3937007874015748
          },
          {
            "duration": 0.21126749999999817,
            "durationTicks": 192,
            "midi": 77,
            "name": "F5",
            "ticks": 38016,
            "time": 41.830965000000006,
            "velocity": 0.3937007874015748
          },
          {
            "duration": 0.21126749999999817,
            "durationTicks": 192,
            "midi": 72,
            "name": "C5",
            "ticks": 38016,
            "time": 41.830965000000006,
            "velocity": 0.3937007874015748
          },
          {
            "duration": 0.21126749999999817,
            "durationTicks": 192,
            "midi": 41,
            "name": "F2",
            "ticks": 38016,
            "time": 41.830965000000006,
            "velocity": 0.3937007874015748
          },
          {
            "duration": 0.21126749999999817,
            "durationTicks": 192,
            "midi": 53,
            "name": "F3",
            "ticks": 38016,
            "time": 41.830965000000006,
            "velocity": 0.3937007874015748
          },
          {
            "duration": 0.21126749999999817,
            "durationTicks": 192,
            "midi": 56,
            "name": "G#3",
            "ticks": 38208,
            "time": 42.042232500000004,
            "velocity": 0.3937007874015748
          },
          {
            "duration": 0.21126749999999817,
            "durationTicks": 192,
            "midi": 72,
            "name": "C5",
            "ticks": 38208,
            "time": 42.042232500000004,
            "velocity": 0.3937007874015748
          },
          {
            "duration": 0.21126749999999817,
            "durationTicks": 192,
            "midi": 65,
            "name": "F4",
            "ticks": 38208,
            "time": 42.042232500000004,
            "velocity": 0.3937007874015748
          },
          {
            "duration": 0.21126749999999817,
            "durationTicks": 192,
            "midi": 53,
            "name": "F3",
            "ticks": 38208,
            "time": 42.042232500000004,
            "velocity": 0.3937007874015748
          },
          {
            "duration": 0.21126749999999817,
            "durationTicks": 192,
            "midi": 77,
            "name": "F5",
            "ticks": 38208,
            "time": 42.042232500000004,
            "velocity": 0.3937007874015748
          },
          {
            "duration": 0.21126749999999817,
            "durationTicks": 192,
            "midi": 48,
            "name": "C3",
            "ticks": 38208,
            "time": 42.042232500000004,
            "velocity": 0.3937007874015748
          },
          {
            "duration": 0.21126750000000527,
            "durationTicks": 192,
            "midi": 80,
            "name": "G#5",
            "ticks": 38400,
            "time": 42.2535,
            "velocity": 0.3937007874015748
          },
          {
            "duration": 0.21126750000000527,
            "durationTicks": 192,
            "midi": 77,
            "name": "F5",
            "ticks": 38400,
            "time": 42.2535,
            "velocity": 0.3937007874015748
          },
          {
            "duration": 0.21126750000000527,
            "durationTicks": 192,
            "midi": 48,
            "name": "C3",
            "ticks": 38400,
            "time": 42.2535,
            "velocity": 0.3937007874015748
          },
          {
            "duration": 0.21126750000000527,
            "durationTicks": 192,
            "midi": 36,
            "name": "C2",
            "ticks": 38400,
            "time": 42.2535,
            "velocity": 0.3937007874015748
          },
          {
            "duration": 0.21126750000000527,
            "durationTicks": 192,
            "midi": 72,
            "name": "C5",
            "ticks": 38400,
            "time": 42.2535,
            "velocity": 0.3937007874015748
          },
          {
            "duration": 0.21126749999999817,
            "durationTicks": 192,
            "midi": 53,
            "name": "F3",
            "ticks": 38592,
            "time": 42.46476750000001,
            "velocity": 0.3937007874015748
          },
          {
            "duration": 0.10563374999999553,
            "durationTicks": 96,
            "midi": 79,
            "name": "G5",
            "ticks": 38592,
            "time": 42.46476750000001,
            "velocity": 0.3937007874015748
          },
          {
            "duration": 0.21126749999999817,
            "durationTicks": 192,
            "midi": 56,
            "name": "G#3",
            "ticks": 38592,
            "time": 42.46476750000001,
            "velocity": 0.3937007874015748
          },
          {
            "duration": 0.21126749999999817,
            "durationTicks": 192,
            "midi": 48,
            "name": "C3",
            "ticks": 38592,
            "time": 42.46476750000001,
            "velocity": 0.3937007874015748
          },
          {
            "duration": 0.10563375000000264,
            "durationTicks": 96,
            "midi": 77,
            "name": "F5",
            "ticks": 38688,
            "time": 42.57040125,
            "velocity": 0.3937007874015748
          },
          {
            "duration": 0.21126749999999817,
            "durationTicks": 192,
            "midi": 72,
            "name": "C5",
            "ticks": 38784,
            "time": 42.676035000000006,
            "velocity": 0.3937007874015748
          },
          {
            "duration": 0.21126749999999817,
            "durationTicks": 192,
            "midi": 55,
            "name": "G3",
            "ticks": 38784,
            "time": 42.676035000000006,
            "velocity": 0.3937007874015748
          },
          {
            "duration": 0.21126749999999817,
            "durationTicks": 192,
            "midi": 76,
            "name": "E5",
            "ticks": 38784,
            "time": 42.676035000000006,
            "velocity": 0.3937007874015748
          },
          {
            "duration": 0.21126749999999817,
            "durationTicks": 192,
            "midi": 79,
            "name": "G5",
            "ticks": 38784,
            "time": 42.676035000000006,
            "velocity": 0.3937007874015748
          },
          {
            "duration": 0.21126749999999817,
            "durationTicks": 192,
            "midi": 43,
            "name": "G2",
            "ticks": 38784,
            "time": 42.676035000000006,
            "velocity": 0.3937007874015748
          },
          {
            "duration": 0.21126749999999817,
            "durationTicks": 192,
            "midi": 76,
            "name": "E5",
            "ticks": 38976,
            "time": 42.887302500000004,
            "velocity": 0.3937007874015748
          },
          {
            "duration": 0.21126749999999817,
            "durationTicks": 192,
            "midi": 79,
            "name": "G5",
            "ticks": 38976,
            "time": 42.887302500000004,
            "velocity": 0.3937007874015748
          },
          {
            "duration": 0.21126749999999817,
            "durationTicks": 192,
            "midi": 72,
            "name": "C5",
            "ticks": 38976,
            "time": 42.887302500000004,
            "velocity": 0.3937007874015748
          },
          {
            "duration": 0.21126749999999817,
            "durationTicks": 192,
            "midi": 55,
            "name": "G3",
            "ticks": 38976,
            "time": 42.887302500000004,
            "velocity": 0.3937007874015748
          },
          {
            "duration": 0.21126749999999817,
            "durationTicks": 192,
            "midi": 58,
            "name": "A#3",
            "ticks": 38976,
            "time": 42.887302500000004,
            "velocity": 0.3937007874015748
          },
          {
            "duration": 0.21126749999999817,
            "durationTicks": 192,
            "midi": 60,
            "name": "C4",
            "ticks": 38976,
            "time": 42.887302500000004,
            "velocity": 0.3937007874015748
          },
          {
            "duration": 0.21126750000000527,
            "durationTicks": 192,
            "midi": 43,
            "name": "G2",
            "ticks": 39168,
            "time": 43.09857,
            "velocity": 0.3937007874015748
          },
          {
            "duration": 0.21126750000000527,
            "durationTicks": 192,
            "midi": 55,
            "name": "G3",
            "ticks": 39168,
            "time": 43.09857,
            "velocity": 0.3937007874015748
          },
          {
            "duration": 0.10563375000000264,
            "durationTicks": 96,
            "midi": 80,
            "name": "G#5",
            "ticks": 39168,
            "time": 43.09857,
            "velocity": 0.3937007874015748
          },
          {
            "duration": 0.10563375000000264,
            "durationTicks": 96,
            "midi": 82,
            "name": "A#5",
            "ticks": 39240,
            "time": 43.1777953125,
            "velocity": 0.3937007874015748
          },
          {
            "duration": 0.10563375000000264,
            "durationTicks": 96,
            "midi": 80,
            "name": "G#5",
            "ticks": 39312,
            "time": 43.257020625,
            "velocity": 0.3937007874015748
          },
          {
            "duration": 0.21126749999999817,
            "durationTicks": 192,
            "midi": 77,
            "name": "F5",
            "ticks": 39360,
            "time": 43.30983750000001,
            "velocity": 0.3937007874015748
          },
          {
            "duration": 0.21126749999999817,
            "durationTicks": 192,
            "midi": 60,
            "name": "C4",
            "ticks": 39360,
            "time": 43.30983750000001,
            "velocity": 0.3937007874015748
          },
          {
            "duration": 0.21126749999999817,
            "durationTicks": 192,
            "midi": 58,
            "name": "A#3",
            "ticks": 39360,
            "time": 43.30983750000001,
            "velocity": 0.3937007874015748
          },
          {
            "duration": 0.21126749999999817,
            "durationTicks": 192,
            "midi": 55,
            "name": "G3",
            "ticks": 39360,
            "time": 43.30983750000001,
            "velocity": 0.3937007874015748
          },
          {
            "duration": 0.21126749999999817,
            "durationTicks": 192,
            "midi": 36,
            "name": "C2",
            "ticks": 39552,
            "time": 43.521105000000006,
            "velocity": 0.3937007874015748
          },
          {
            "duration": 0.21126749999999817,
            "durationTicks": 192,
            "midi": 48,
            "name": "C3",
            "ticks": 39552,
            "time": 43.521105000000006,
            "velocity": 0.3937007874015748
          },
          {
            "duration": 0.42253499999999633,
            "durationTicks": 384,
            "midi": 79,
            "name": "G5",
            "ticks": 39552,
            "time": 43.521105000000006,
            "velocity": 0.3937007874015748
          },
          {
            "duration": 0.42253499999999633,
            "durationTicks": 384,
            "midi": 72,
            "name": "C5",
            "ticks": 39552,
            "time": 43.521105000000006,
            "velocity": 0.3937007874015748
          },
          {
            "duration": 0.42253499999999633,
            "durationTicks": 384,
            "midi": 76,
            "name": "E5",
            "ticks": 39552,
            "time": 43.521105000000006,
            "velocity": 0.3937007874015748
          },
          {
            "duration": 0.42253499999999633,
            "durationTicks": 384,
            "midi": 67,
            "name": "G4",
            "ticks": 39552,
            "time": 43.521105000000006,
            "velocity": 0.3937007874015748
          },
          {
            "duration": 0.21126749999999817,
            "durationTicks": 192,
            "midi": 60,
            "name": "C4",
            "ticks": 39744,
            "time": 43.732372500000004,
            "velocity": 0.3937007874015748
          },
          {
            "duration": 0.21126749999999817,
            "durationTicks": 192,
            "midi": 55,
            "name": "G3",
            "ticks": 39744,
            "time": 43.732372500000004,
            "velocity": 0.3937007874015748
          },
          {
            "duration": 0.21126749999999817,
            "durationTicks": 192,
            "midi": 58,
            "name": "A#3",
            "ticks": 39744,
            "time": 43.732372500000004,
            "velocity": 0.3937007874015748
          },
          {
            "duration": 0.21126750000000527,
            "durationTicks": 192,
            "midi": 48,
            "name": "C3",
            "ticks": 39936,
            "time": 43.94364,
            "velocity": 0.3937007874015748
          },
          {
            "duration": 0.21126750000000527,
            "durationTicks": 192,
            "midi": 36,
            "name": "C2",
            "ticks": 39936,
            "time": 43.94364,
            "velocity": 0.3937007874015748
          },
          {
            "duration": 0.21126749999999817,
            "durationTicks": 192,
            "midi": 60,
            "name": "C4",
            "ticks": 40128,
            "time": 44.15490750000001,
            "velocity": 0.3937007874015748
          },
          {
            "duration": 0.21126749999999817,
            "durationTicks": 192,
            "midi": 55,
            "name": "G3",
            "ticks": 40128,
            "time": 44.15490750000001,
            "velocity": 0.3937007874015748
          },
          {
            "duration": 0.21126749999999817,
            "durationTicks": 192,
            "midi": 58,
            "name": "A#3",
            "ticks": 40128,
            "time": 44.15490750000001,
            "velocity": 0.3937007874015748
          },
          {
            "duration": 0.21126749999999817,
            "durationTicks": 192,
            "midi": 82,
            "name": "A#5",
            "ticks": 40320,
            "time": 44.366175000000005,
            "velocity": 0.3937007874015748
          },
          {
            "duration": 0.21126749999999817,
            "durationTicks": 192,
            "midi": 43,
            "name": "G2",
            "ticks": 40320,
            "time": 44.366175000000005,
            "velocity": 0.3937007874015748
          },
          {
            "duration": 0.21126749999999817,
            "durationTicks": 192,
            "midi": 85,
            "name": "C#6",
            "ticks": 40320,
            "time": 44.366175000000005,
            "velocity": 0.3937007874015748
          },
          {
            "duration": 0.21126749999999817,
            "durationTicks": 192,
            "midi": 55,
            "name": "G3",
            "ticks": 40320,
            "time": 44.366175000000005,
            "velocity": 0.3937007874015748
          },
          {
            "duration": 0.21126749999999817,
            "durationTicks": 192,
            "midi": 76,
            "name": "E5",
            "ticks": 40320,
            "time": 44.366175000000005,
            "velocity": 0.3937007874015748
          },
          {
            "duration": 0.21126749999999817,
            "durationTicks": 192,
            "midi": 76,
            "name": "E5",
            "ticks": 40512,
            "time": 44.577442500000004,
            "velocity": 0.3937007874015748
          },
          {
            "duration": 0.21126749999999817,
            "durationTicks": 192,
            "midi": 55,
            "name": "G3",
            "ticks": 40512,
            "time": 44.577442500000004,
            "velocity": 0.3937007874015748
          },
          {
            "duration": 0.21126749999999817,
            "durationTicks": 192,
            "midi": 82,
            "name": "A#5",
            "ticks": 40512,
            "time": 44.577442500000004,
            "velocity": 0.3937007874015748
          },
          {
            "duration": 0.21126749999999817,
            "durationTicks": 192,
            "midi": 58,
            "name": "A#3",
            "ticks": 40512,
            "time": 44.577442500000004,
            "velocity": 0.3937007874015748
          },
          {
            "duration": 0.21126749999999817,
            "durationTicks": 192,
            "midi": 60,
            "name": "C4",
            "ticks": 40512,
            "time": 44.577442500000004,
            "velocity": 0.3937007874015748
          },
          {
            "duration": 0.21126749999999817,
            "durationTicks": 192,
            "midi": 85,
            "name": "C#6",
            "ticks": 40512,
            "time": 44.577442500000004,
            "velocity": 0.3937007874015748
          },
          {
            "duration": 0.10563375000000264,
            "durationTicks": 96,
            "midi": 85,
            "name": "C#6",
            "ticks": 40704,
            "time": 44.78871,
            "velocity": 0.3937007874015748
          },
          {
            "duration": 0.21126750000000527,
            "durationTicks": 192,
            "midi": 36,
            "name": "C2",
            "ticks": 40704,
            "time": 44.78871,
            "velocity": 0.3937007874015748
          },
          {
            "duration": 0.21126750000000527,
            "durationTicks": 192,
            "midi": 48,
            "name": "C3",
            "ticks": 40704,
            "time": 44.78871,
            "velocity": 0.3937007874015748
          },
          {
            "duration": 0.10563375000000264,
            "durationTicks": 96,
            "midi": 87,
            "name": "D#6",
            "ticks": 40776,
            "time": 44.8679353125,
            "velocity": 0.3937007874015748
          },
          {
            "duration": 0.10563375000000264,
            "durationTicks": 96,
            "midi": 85,
            "name": "C#6",
            "ticks": 40848,
            "time": 44.947160625,
            "velocity": 0.3937007874015748
          },
          {
            "duration": 0.21126749999999817,
            "durationTicks": 192,
            "midi": 60,
            "name": "C4",
            "ticks": 40896,
            "time": 44.99997750000001,
            "velocity": 0.3937007874015748
          },
          {
            "duration": 0.21126749999999817,
            "durationTicks": 192,
            "midi": 58,
            "name": "A#3",
            "ticks": 40896,
            "time": 44.99997750000001,
            "velocity": 0.3937007874015748
          },
          {
            "duration": 0.21126749999999817,
            "durationTicks": 192,
            "midi": 55,
            "name": "G3",
            "ticks": 40896,
            "time": 44.99997750000001,
            "velocity": 0.3937007874015748
          },
          {
            "duration": 0.10563375000000264,
            "durationTicks": 96,
            "midi": 84,
            "name": "C6",
            "ticks": 40920,
            "time": 45.0263859375,
            "velocity": 0.3937007874015748
          },
          {
            "duration": 0.10563375000000264,
            "durationTicks": 96,
            "midi": 82,
            "name": "A#5",
            "ticks": 40992,
            "time": 45.10561125,
            "velocity": 0.3937007874015748
          },
          {
            "duration": 0.21126749999999817,
            "durationTicks": 192,
            "midi": 72,
            "name": "C5",
            "ticks": 41088,
            "time": 45.211245000000005,
            "velocity": 0.3937007874015748
          },
          {
            "duration": 0.21126749999999817,
            "durationTicks": 192,
            "midi": 84,
            "name": "C6",
            "ticks": 41088,
            "time": 45.211245000000005,
            "velocity": 0.3937007874015748
          },
          {
            "duration": 0.21126749999999817,
            "durationTicks": 192,
            "midi": 40,
            "name": "E2",
            "ticks": 41088,
            "time": 45.211245000000005,
            "velocity": 0.3937007874015748
          },
          {
            "duration": 0.21126749999999817,
            "durationTicks": 192,
            "midi": 52,
            "name": "E3",
            "ticks": 41088,
            "time": 45.211245000000005,
            "velocity": 0.3937007874015748
          },
          {
            "duration": 0.21126750000000527,
            "durationTicks": 192,
            "midi": 58,
            "name": "A#3",
            "ticks": 41280,
            "time": 45.4225125,
            "velocity": 0.3937007874015748
          },
          {
            "duration": 0.21126750000000527,
            "durationTicks": 192,
            "midi": 79,
            "name": "G5",
            "ticks": 41280,
            "time": 45.4225125,
            "velocity": 0.3937007874015748
          },
          {
            "duration": 0.21126750000000527,
            "durationTicks": 192,
            "midi": 60,
            "name": "C4",
            "ticks": 41280,
            "time": 45.4225125,
            "velocity": 0.3937007874015748
          },
          {
            "duration": 0.21126750000000527,
            "durationTicks": 192,
            "midi": 84,
            "name": "C6",
            "ticks": 41280,
            "time": 45.4225125,
            "velocity": 0.3937007874015748
          },
          {
            "duration": 0.21126750000000527,
            "durationTicks": 192,
            "midi": 76,
            "name": "E5",
            "ticks": 41280,
            "time": 45.4225125,
            "velocity": 0.3937007874015748
          },
          {
            "duration": 0.21126750000000527,
            "durationTicks": 192,
            "midi": 72,
            "name": "C5",
            "ticks": 41280,
            "time": 45.4225125,
            "velocity": 0.3937007874015748
          },
          {
            "duration": 0.21126750000000527,
            "durationTicks": 192,
            "midi": 55,
            "name": "G3",
            "ticks": 41280,
            "time": 45.4225125,
            "velocity": 0.3937007874015748
          },
          {
            "duration": 0.10563374999999553,
            "durationTicks": 96,
            "midi": 84,
            "name": "C6",
            "ticks": 41472,
            "time": 45.63378000000001,
            "velocity": 0.3937007874015748
          },
          {
            "duration": 0.21126749999999817,
            "durationTicks": 192,
            "midi": 36,
            "name": "C2",
            "ticks": 41472,
            "time": 45.63378000000001,
            "velocity": 0.3937007874015748
          },
          {
            "duration": 0.21126749999999817,
            "durationTicks": 192,
            "midi": 48,
            "name": "C3",
            "ticks": 41472,
            "time": 45.63378000000001,
            "velocity": 0.3937007874015748
          },
          {
            "duration": 0.10563375000000264,
            "durationTicks": 96,
            "midi": 85,
            "name": "C#6",
            "ticks": 41568,
            "time": 45.739413750000004,
            "velocity": 0.3937007874015748
          },
          {
            "duration": 0.10563374999999553,
            "durationTicks": 96,
            "midi": 84,
            "name": "C6",
            "ticks": 41664,
            "time": 45.84504750000001,
            "velocity": 0.3937007874015748
          },
          {
            "duration": 0.21126749999999817,
            "durationTicks": 192,
            "midi": 55,
            "name": "G3",
            "ticks": 41664,
            "time": 45.84504750000001,
            "velocity": 0.3937007874015748
          },
          {
            "duration": 0.21126749999999817,
            "durationTicks": 192,
            "midi": 58,
            "name": "A#3",
            "ticks": 41664,
            "time": 45.84504750000001,
            "velocity": 0.3937007874015748
          },
          {
            "duration": 0.21126749999999817,
            "durationTicks": 192,
            "midi": 60,
            "name": "C4",
            "ticks": 41664,
            "time": 45.84504750000001,
            "velocity": 0.3937007874015748
          },
          {
            "duration": 0.10563375000000264,
            "durationTicks": 96,
            "midi": 82,
            "name": "A#5",
            "ticks": 41760,
            "time": 45.95068125,
            "velocity": 0.3937007874015748
          },
          {
            "duration": 0.21126749999999817,
            "durationTicks": 192,
            "midi": 36,
            "name": "C2",
            "ticks": 41856,
            "time": 46.056315000000005,
            "velocity": 0.3937007874015748
          },
          {
            "duration": 0.21126749999999817,
            "durationTicks": 192,
            "midi": 48,
            "name": "C3",
            "ticks": 41856,
            "time": 46.056315000000005,
            "velocity": 0.3937007874015748
          },
          {
            "duration": 0.21126749999999817,
            "durationTicks": 192,
            "midi": 80,
            "name": "G#5",
            "ticks": 41856,
            "time": 46.056315000000005,
            "velocity": 0.3937007874015748
          },
          {
            "duration": 0.21126749999999817,
            "durationTicks": 192,
            "midi": 76,
            "name": "E5",
            "ticks": 41856,
            "time": 46.056315000000005,
            "velocity": 0.3937007874015748
          },
          {
            "duration": 0.21126749999999817,
            "durationTicks": 192,
            "midi": 72,
            "name": "C5",
            "ticks": 41856,
            "time": 46.056315000000005,
            "velocity": 0.3937007874015748
          },
          {
            "duration": 0.21126750000000527,
            "durationTicks": 192,
            "midi": 76,
            "name": "E5",
            "ticks": 42048,
            "time": 46.2675825,
            "velocity": 0.3937007874015748
          },
          {
            "duration": 0.21126750000000527,
            "durationTicks": 192,
            "midi": 72,
            "name": "C5",
            "ticks": 42048,
            "time": 46.2675825,
            "velocity": 0.3937007874015748
          },
          {
            "duration": 0.21126750000000527,
            "durationTicks": 192,
            "midi": 60,
            "name": "C4",
            "ticks": 42048,
            "time": 46.2675825,
            "velocity": 0.3937007874015748
          },
          {
            "duration": 0.21126750000000527,
            "durationTicks": 192,
            "midi": 64,
            "name": "E4",
            "ticks": 42048,
            "time": 46.2675825,
            "velocity": 0.3937007874015748
          },
          {
            "duration": 0.21126750000000527,
            "durationTicks": 192,
            "midi": 80,
            "name": "G#5",
            "ticks": 42048,
            "time": 46.2675825,
            "velocity": 0.3937007874015748
          },
          {
            "duration": 0.21126750000000527,
            "durationTicks": 192,
            "midi": 58,
            "name": "A#3",
            "ticks": 42048,
            "time": 46.2675825,
            "velocity": 0.3937007874015748
          },
          {
            "duration": 0.21126749999999817,
            "durationTicks": 192,
            "midi": 48,
            "name": "C3",
            "ticks": 42240,
            "time": 46.47885000000001,
            "velocity": 0.3937007874015748
          },
          {
            "duration": 0.21126749999999817,
            "durationTicks": 192,
            "midi": 36,
            "name": "C2",
            "ticks": 42240,
            "time": 46.47885000000001,
            "velocity": 0.3937007874015748
          },
          {
            "duration": 0.10563374999999553,
            "durationTicks": 96,
            "midi": 82,
            "name": "A#5",
            "ticks": 42240,
            "time": 46.47885000000001,
            "velocity": 0.3937007874015748
          },
          {
            "duration": 0.10563375000000264,
            "durationTicks": 96,
            "midi": 84,
            "name": "C6",
            "ticks": 42336,
            "time": 46.584483750000004,
            "velocity": 0.3937007874015748
          },
          {
            "duration": 0.10563374999999553,
            "durationTicks": 96,
            "midi": 82,
            "name": "A#5",
            "ticks": 42432,
            "time": 46.69011750000001,
            "velocity": 0.3937007874015748
          },
          {
            "duration": 0.21126749999999817,
            "durationTicks": 192,
            "midi": 58,
            "name": "A#3",
            "ticks": 42432,
            "time": 46.69011750000001,
            "velocity": 0.3937007874015748
          },
          {
            "duration": 0.21126749999999817,
            "durationTicks": 192,
            "midi": 60,
            "name": "C4",
            "ticks": 42432,
            "time": 46.69011750000001,
            "velocity": 0.3937007874015748
          },
          {
            "duration": 0.21126749999999817,
            "durationTicks": 192,
            "midi": 64,
            "name": "E4",
            "ticks": 42432,
            "time": 46.69011750000001,
            "velocity": 0.3937007874015748
          },
          {
            "duration": 0.10563375000000264,
            "durationTicks": 96,
            "midi": 79,
            "name": "G5",
            "ticks": 42528,
            "time": 46.79575125,
            "velocity": 0.3937007874015748
          },
          {
            "duration": 0.21126749999999817,
            "durationTicks": 192,
            "midi": 68,
            "name": "G#4",
            "ticks": 42624,
            "time": 46.901385000000005,
            "velocity": 0.3937007874015748
          },
          {
            "duration": 0.21126749999999817,
            "durationTicks": 192,
            "midi": 53,
            "name": "F3",
            "ticks": 42624,
            "time": 46.901385000000005,
            "velocity": 0.3937007874015748
          },
          {
            "duration": 0.21126749999999817,
            "durationTicks": 192,
            "midi": 41,
            "name": "F2",
            "ticks": 42624,
            "time": 46.901385000000005,
            "velocity": 0.3937007874015748
          },
          {
            "duration": 0.21126749999999817,
            "durationTicks": 192,
            "midi": 72,
            "name": "C5",
            "ticks": 42624,
            "time": 46.901385000000005,
            "velocity": 0.3937007874015748
          },
          {
            "duration": 0.21126749999999817,
            "durationTicks": 192,
            "midi": 77,
            "name": "F5",
            "ticks": 42624,
            "time": 46.901385000000005,
            "velocity": 0.3937007874015748
          },
          {
            "duration": 0.42253499999999633,
            "durationTicks": 384,
            "midi": 48,
            "name": "C3",
            "ticks": 43008,
            "time": 47.32392000000001,
            "velocity": 0.3937007874015748
          },
          {
            "duration": 0.42253499999999633,
            "durationTicks": 384,
            "midi": 36,
            "name": "C2",
            "ticks": 43008,
            "time": 47.32392000000001,
            "velocity": 0.3937007874015748
          },
          {
            "duration": 0.21126749999999817,
            "durationTicks": 192,
            "midi": 84,
            "name": "C6",
            "ticks": 43008,
            "time": 47.32392000000001,
            "velocity": 0.3937007874015748
          },
          {
            "duration": 0.21126749999999817,
            "durationTicks": 192,
            "midi": 79,
            "name": "G5",
            "ticks": 43008,
            "time": 47.32392000000001,
            "velocity": 0.3937007874015748
          },
          {
            "duration": 0.21126749999999817,
            "durationTicks": 192,
            "midi": 82,
            "name": "A#5",
            "ticks": 43008,
            "time": 47.32392000000001,
            "velocity": 0.3937007874015748
          },
          {
            "duration": 0.21126749999999817,
            "durationTicks": 192,
            "midi": 76,
            "name": "E5",
            "ticks": 43008,
            "time": 47.32392000000001,
            "velocity": 0.3937007874015748
          },
          {
            "duration": 0.21126749999999817,
            "durationTicks": 192,
            "midi": 72,
            "name": "C5",
            "ticks": 43008,
            "time": 47.32392000000001,
            "velocity": 0.3937007874015748
          },
          {
            "duration": 0.3169012500000008,
            "durationTicks": 288,
            "midi": 80,
            "name": "G#5",
            "ticks": 43392,
            "time": 47.746455000000005,
            "velocity": 0.3937007874015748
          },
          {
            "duration": 0.3169012500000008,
            "durationTicks": 288,
            "midi": 84,
            "name": "C6",
            "ticks": 43392,
            "time": 47.746455000000005,
            "velocity": 0.3937007874015748
          },
          {
            "duration": 0.21126749999999817,
            "durationTicks": 192,
            "midi": 53,
            "name": "F3",
            "ticks": 43392,
            "time": 47.746455000000005,
            "velocity": 0.3937007874015748
          },
          {
            "duration": 0.3169012500000008,
            "durationTicks": 288,
            "midi": 72,
            "name": "C5",
            "ticks": 43392,
            "time": 47.746455000000005,
            "velocity": 0.3937007874015748
          },
          {
            "duration": 0.21126749999999817,
            "durationTicks": 192,
            "midi": 41,
            "name": "F2",
            "ticks": 43392,
            "time": 47.746455000000005,
            "velocity": 0.3937007874015748
          },
          {
            "duration": 0.3169012500000008,
            "durationTicks": 288,
            "midi": 77,
            "name": "F5",
            "ticks": 43392,
            "time": 47.746455000000005,
            "velocity": 0.3937007874015748
          },
          {
            "duration": 0.21126750000000527,
            "durationTicks": 192,
            "midi": 56,
            "name": "G#3",
            "ticks": 43584,
            "time": 47.9577225,
            "velocity": 0.3937007874015748
          },
          {
            "duration": 0.21126750000000527,
            "durationTicks": 192,
            "midi": 53,
            "name": "F3",
            "ticks": 43584,
            "time": 47.9577225,
            "velocity": 0.3937007874015748
          },
          {
            "duration": 0.21126750000000527,
            "durationTicks": 192,
            "midi": 48,
            "name": "C3",
            "ticks": 43584,
            "time": 47.9577225,
            "velocity": 0.3937007874015748
          },
          {
            "duration": 0.21126749999999817,
            "durationTicks": 192,
            "midi": 48,
            "name": "C3",
            "ticks": 43776,
            "time": 48.16899000000001,
            "velocity": 0.3937007874015748
          },
          {
            "duration": 0.3169012500000008,
            "durationTicks": 288,
            "midi": 80,
            "name": "G#5",
            "ticks": 43776,
            "time": 48.16899000000001,
            "velocity": 0.3937007874015748
          },
          {
            "duration": 0.3169012500000008,
            "durationTicks": 288,
            "midi": 77,
            "name": "F5",
            "ticks": 43776,
            "time": 48.16899000000001,
            "velocity": 0.3937007874015748
          },
          {
            "duration": 0.3169012500000008,
            "durationTicks": 288,
            "midi": 84,
            "name": "C6",
            "ticks": 43776,
            "time": 48.16899000000001,
            "velocity": 0.3937007874015748
          },
          {
            "duration": 0.3169012500000008,
            "durationTicks": 288,
            "midi": 72,
            "name": "C5",
            "ticks": 43776,
            "time": 48.16899000000001,
            "velocity": 0.3937007874015748
          },
          {
            "duration": 0.21126749999999817,
            "durationTicks": 192,
            "midi": 36,
            "name": "C2",
            "ticks": 43776,
            "time": 48.16899000000001,
            "velocity": 0.3937007874015748
          },
          {
            "duration": 0.21126749999999817,
            "durationTicks": 192,
            "midi": 53,
            "name": "F3",
            "ticks": 43968,
            "time": 48.380257500000006,
            "velocity": 0.3937007874015748
          },
          {
            "duration": 0.21126749999999817,
            "durationTicks": 192,
            "midi": 56,
            "name": "G#3",
            "ticks": 43968,
            "time": 48.380257500000006,
            "velocity": 0.3937007874015748
          },
          {
            "duration": 0.21126749999999817,
            "durationTicks": 192,
            "midi": 48,
            "name": "C3",
            "ticks": 43968,
            "time": 48.380257500000006,
            "velocity": 0.3937007874015748
          },
          {
            "duration": 0.10563375000000264,
            "durationTicks": 96,
            "midi": 87,
            "name": "D#6",
            "ticks": 44112,
            "time": 48.53870812500001,
            "velocity": 0.3937007874015748
          },
          {
            "duration": 0.10563374999999553,
            "durationTicks": 96,
            "midi": 88,
            "name": "E6",
            "ticks": 44136,
            "time": 48.56511656250001,
            "velocity": 0.3937007874015748
          },
          {
            "duration": 0.21126749999999817,
            "durationTicks": 192,
            "midi": 29,
            "name": "F1",
            "ticks": 44160,
            "time": 48.591525000000004,
            "velocity": 0.3937007874015748
          },
          {
            "duration": 0.42253500000000344,
            "durationTicks": 384,
            "midi": 77,
            "name": "F5",
            "ticks": 44160,
            "time": 48.591525000000004,
            "velocity": 0.3937007874015748
          },
          {
            "duration": 0.21126749999999817,
            "durationTicks": 192,
            "midi": 41,
            "name": "F2",
            "ticks": 44160,
            "time": 48.591525000000004,
            "velocity": 0.3937007874015748
          },
          {
            "duration": 0.42253500000000344,
            "durationTicks": 384,
            "midi": 89,
            "name": "F6",
            "ticks": 44160,
            "time": 48.591525000000004,
            "velocity": 0.3937007874015748
          },
          {
            "duration": 0.21126750000000527,
            "durationTicks": 192,
            "midi": 48,
            "name": "C3",
            "ticks": 44352,
            "time": 48.8027925,
            "velocity": 0.3937007874015748
          },
          {
            "duration": 0.21126750000000527,
            "durationTicks": 192,
            "midi": 56,
            "name": "G#3",
            "ticks": 44352,
            "time": 48.8027925,
            "velocity": 0.3937007874015748
          },
          {
            "duration": 0.21126750000000527,
            "durationTicks": 192,
            "midi": 53,
            "name": "F3",
            "ticks": 44352,
            "time": 48.8027925,
            "velocity": 0.3937007874015748
          },
          {
            "duration": 0.21126749999999817,
            "durationTicks": 192,
            "midi": 44,
            "name": "G#2",
            "ticks": 44544,
            "time": 49.01406000000001,
            "velocity": 0.3937007874015748
          },
          {
            "duration": 0.21126749999999817,
            "durationTicks": 192,
            "midi": 32,
            "name": "G#1",
            "ticks": 44544,
            "time": 49.01406000000001,
            "velocity": 0.3937007874015748
          },
          {
            "duration": 0.42253499999999633,
            "durationTicks": 384,
            "midi": 77,
            "name": "F5",
            "ticks": 44544,
            "time": 49.01406000000001,
            "velocity": 0.3937007874015748
          },
          {
            "duration": 0.42253499999999633,
            "durationTicks": 384,
            "midi": 84,
            "name": "C6",
            "ticks": 44544,
            "time": 49.01406000000001,
            "velocity": 0.3937007874015748
          },
          {
            "duration": 0.42253499999999633,
            "durationTicks": 384,
            "midi": 72,
            "name": "C5",
            "ticks": 44544,
            "time": 49.01406000000001,
            "velocity": 0.3937007874015748
          },
          {
            "duration": 0.21126749999999817,
            "durationTicks": 192,
            "midi": 56,
            "name": "G#3",
            "ticks": 44736,
            "time": 49.225327500000006,
            "velocity": 0.3937007874015748
          },
          {
            "duration": 0.21126749999999817,
            "durationTicks": 192,
            "midi": 48,
            "name": "C3",
            "ticks": 44736,
            "time": 49.225327500000006,
            "velocity": 0.3937007874015748
          },
          {
            "duration": 0.21126749999999817,
            "durationTicks": 192,
            "midi": 53,
            "name": "F3",
            "ticks": 44736,
            "time": 49.225327500000006,
            "velocity": 0.3937007874015748
          },
          {
            "duration": 0.21126750000000527,
            "durationTicks": 192,
            "midi": 87,
            "name": "D#6",
            "ticks": 44928,
            "time": 49.436595000000004,
            "velocity": 0.3937007874015748
          },
          {
            "duration": 0.21126750000000527,
            "durationTicks": 192,
            "midi": 79,
            "name": "G5",
            "ticks": 44928,
            "time": 49.436595000000004,
            "velocity": 0.3937007874015748
          },
          {
            "duration": 0.21126750000000527,
            "durationTicks": 192,
            "midi": 75,
            "name": "D#5",
            "ticks": 44928,
            "time": 49.436595000000004,
            "velocity": 0.3937007874015748
          },
          {
            "duration": 0.21126750000000527,
            "durationTicks": 192,
            "midi": 43,
            "name": "G2",
            "ticks": 44928,
            "time": 49.436595000000004,
            "velocity": 0.3937007874015748
          },
          {
            "duration": 0.21126750000000527,
            "durationTicks": 192,
            "midi": 31,
            "name": "G1",
            "ticks": 44928,
            "time": 49.436595000000004,
            "velocity": 0.3937007874015748
          },
          {
            "duration": 0.21126749999999817,
            "durationTicks": 192,
            "midi": 73,
            "name": "C#5",
            "ticks": 45120,
            "time": 49.64786250000001,
            "velocity": 0.3937007874015748
          },
          {
            "duration": 0.21126749999999817,
            "durationTicks": 192,
            "midi": 58,
            "name": "A#3",
            "ticks": 45120,
            "time": 49.64786250000001,
            "velocity": 0.3937007874015748
          },
          {
            "duration": 0.21126749999999817,
            "durationTicks": 192,
            "midi": 55,
            "name": "G3",
            "ticks": 45120,
            "time": 49.64786250000001,
            "velocity": 0.3937007874015748
          },
          {
            "duration": 0.21126749999999817,
            "durationTicks": 192,
            "midi": 85,
            "name": "C#6",
            "ticks": 45120,
            "time": 49.64786250000001,
            "velocity": 0.3937007874015748
          },
          {
            "duration": 0.21126749999999817,
            "durationTicks": 192,
            "midi": 61,
            "name": "C#4",
            "ticks": 45120,
            "time": 49.64786250000001,
            "velocity": 0.3937007874015748
          },
          {
            "duration": 0.21126749999999817,
            "durationTicks": 192,
            "midi": 72,
            "name": "C5",
            "ticks": 45312,
            "time": 49.85913000000001,
            "velocity": 0.3937007874015748
          },
          {
            "duration": 0.21126749999999817,
            "durationTicks": 192,
            "midi": 43,
            "name": "G2",
            "ticks": 45312,
            "time": 49.85913000000001,
            "velocity": 0.3937007874015748
          },
          {
            "duration": 0.21126749999999817,
            "durationTicks": 192,
            "midi": 31,
            "name": "G1",
            "ticks": 45312,
            "time": 49.85913000000001,
            "velocity": 0.3937007874015748
          },
          {
            "duration": 0.21126749999999817,
            "durationTicks": 192,
            "midi": 84,
            "name": "C6",
            "ticks": 45312,
            "time": 49.85913000000001,
            "velocity": 0.3937007874015748
          },
          {
            "duration": 0.21126749999999817,
            "durationTicks": 192,
            "midi": 55,
            "name": "G3",
            "ticks": 45504,
            "time": 50.070397500000006,
            "velocity": 0.3937007874015748
          },
          {
            "duration": 0.21126749999999817,
            "durationTicks": 192,
            "midi": 58,
            "name": "A#3",
            "ticks": 45504,
            "time": 50.070397500000006,
            "velocity": 0.3937007874015748
          },
          {
            "duration": 0.21126749999999817,
            "durationTicks": 192,
            "midi": 85,
            "name": "C#6",
            "ticks": 45504,
            "time": 50.070397500000006,
            "velocity": 0.3937007874015748
          },
          {
            "duration": 0.21126749999999817,
            "durationTicks": 192,
            "midi": 73,
            "name": "C#5",
            "ticks": 45504,
            "time": 50.070397500000006,
            "velocity": 0.3937007874015748
          },
          {
            "duration": 0.21126749999999817,
            "durationTicks": 192,
            "midi": 61,
            "name": "C#4",
            "ticks": 45504,
            "time": 50.070397500000006,
            "velocity": 0.3937007874015748
          },
          {
            "duration": 0.42253500000000344,
            "durationTicks": 384,
            "midi": 70,
            "name": "A#4",
            "ticks": 45696,
            "time": 50.281665000000004,
            "velocity": 0.3937007874015748
          },
          {
            "duration": 0.42253500000000344,
            "durationTicks": 384,
            "midi": 79,
            "name": "G5",
            "ticks": 45696,
            "time": 50.281665000000004,
            "velocity": 0.3937007874015748
          },
          {
            "duration": 0.21126750000000527,
            "durationTicks": 192,
            "midi": 34,
            "name": "A#1",
            "ticks": 45696,
            "time": 50.281665000000004,
            "velocity": 0.3937007874015748
          },
          {
            "duration": 0.21126750000000527,
            "durationTicks": 192,
            "midi": 46,
            "name": "A#2",
            "ticks": 45696,
            "time": 50.281665000000004,
            "velocity": 0.3937007874015748
          },
          {
            "duration": 0.42253500000000344,
            "durationTicks": 384,
            "midi": 82,
            "name": "A#5",
            "ticks": 45696,
            "time": 50.281665000000004,
            "velocity": 0.3937007874015748
          },
          {
            "duration": 0.42253500000000344,
            "durationTicks": 384,
            "midi": 76,
            "name": "E5",
            "ticks": 45696,
            "time": 50.281665000000004,
            "velocity": 0.3937007874015748
          },
          {
            "duration": 0.21126749999999817,
            "durationTicks": 192,
            "midi": 61,
            "name": "C#4",
            "ticks": 45888,
            "time": 50.49293250000001,
            "velocity": 0.3937007874015748
          },
          {
            "duration": 0.21126749999999817,
            "durationTicks": 192,
            "midi": 58,
            "name": "A#3",
            "ticks": 45888,
            "time": 50.49293250000001,
            "velocity": 0.3937007874015748
          },
          {
            "duration": 0.21126749999999817,
            "durationTicks": 192,
            "midi": 55,
            "name": "G3",
            "ticks": 45888,
            "time": 50.49293250000001,
            "velocity": 0.3937007874015748
          },
          {
            "duration": 0.21126749999999817,
            "durationTicks": 192,
            "midi": 31,
            "name": "G1",
            "ticks": 46080,
            "time": 50.70420000000001,
            "velocity": 0.3937007874015748
          },
          {
            "duration": 0.21126749999999817,
            "durationTicks": 192,
            "midi": 43,
            "name": "G2",
            "ticks": 46080,
            "time": 50.70420000000001,
            "velocity": 0.3937007874015748
          },
          {
            "duration": 0.21126749999999817,
            "durationTicks": 192,
            "midi": 32,
            "name": "G#1",
            "ticks": 46272,
            "time": 50.915467500000005,
            "velocity": 0.3937007874015748
          },
          {
            "duration": 0.21126749999999817,
            "durationTicks": 192,
            "midi": 44,
            "name": "G#2",
            "ticks": 46272,
            "time": 50.915467500000005,
            "velocity": 0.3937007874015748
          },
          {
            "duration": 0.8450699999999998,
            "durationTicks": 768,
            "midi": 79,
            "name": "G5",
            "ticks": 46464,
            "time": 51.126735000000004,
            "velocity": 0.3937007874015748
          },
          {
            "duration": 0.8450699999999998,
            "durationTicks": 768,
            "midi": 73,
            "name": "C#5",
            "ticks": 46464,
            "time": 51.126735000000004,
            "velocity": 0.3937007874015748
          },
          {
            "duration": 0.42253500000000344,
            "durationTicks": 384,
            "midi": 85,
            "name": "C#6",
            "ticks": 46464,
            "time": 51.126735000000004,
            "velocity": 0.3937007874015748
          },
          {
            "duration": 0.42253500000000344,
            "durationTicks": 384,
            "midi": 82,
            "name": "A#5",
            "ticks": 46464,
            "time": 51.126735000000004,
            "velocity": 0.3937007874015748
          },
          {
            "duration": 0.21126750000000527,
            "durationTicks": 192,
            "midi": 46,
            "name": "A#2",
            "ticks": 46464,
            "time": 51.126735000000004,
            "velocity": 0.3937007874015748
          },
          {
            "duration": 0.21126750000000527,
            "durationTicks": 192,
            "midi": 34,
            "name": "A#1",
            "ticks": 46464,
            "time": 51.126735000000004,
            "velocity": 0.3937007874015748
          },
          {
            "duration": 0.21126749999999817,
            "durationTicks": 192,
            "midi": 61,
            "name": "C#4",
            "ticks": 46656,
            "time": 51.33800250000001,
            "velocity": 0.3937007874015748
          },
          {
            "duration": 0.21126749999999817,
            "durationTicks": 192,
            "midi": 58,
            "name": "A#3",
            "ticks": 46656,
            "time": 51.33800250000001,
            "velocity": 0.3937007874015748
          },
          {
            "duration": 0.21126749999999817,
            "durationTicks": 192,
            "midi": 55,
            "name": "G3",
            "ticks": 46656,
            "time": 51.33800250000001,
            "velocity": 0.3937007874015748
          },
          {
            "duration": 0.21126749999999817,
            "durationTicks": 192,
            "midi": 34,
            "name": "A#1",
            "ticks": 46848,
            "time": 51.54927000000001,
            "velocity": 0.3937007874015748
          },
          {
            "duration": 0.21126749999999817,
            "durationTicks": 192,
            "midi": 46,
            "name": "A#2",
            "ticks": 46848,
            "time": 51.54927000000001,
            "velocity": 0.3937007874015748
          },
          {
            "duration": 0.42253499999999633,
            "durationTicks": 384,
            "midi": 82,
            "name": "A#5",
            "ticks": 46848,
            "time": 51.54927000000001,
            "velocity": 0.3937007874015748
          },
          {
            "duration": 0.21126749999999817,
            "durationTicks": 192,
            "midi": 61,
            "name": "C#4",
            "ticks": 47040,
            "time": 51.760537500000005,
            "velocity": 0.3937007874015748
          },
          {
            "duration": 0.21126749999999817,
            "durationTicks": 192,
            "midi": 58,
            "name": "A#3",
            "ticks": 47040,
            "time": 51.760537500000005,
            "velocity": 0.3937007874015748
          },
          {
            "duration": 0.21126749999999817,
            "durationTicks": 192,
            "midi": 55,
            "name": "G3",
            "ticks": 47040,
            "time": 51.760537500000005,
            "velocity": 0.3937007874015748
          },
          {
            "duration": 0.21126749999999817,
            "durationTicks": 192,
            "midi": 85,
            "name": "C#6",
            "ticks": 47040,
            "time": 51.760537500000005,
            "velocity": 0.3937007874015748
          },
          {
            "duration": 0.21126750000000527,
            "durationTicks": 192,
            "midi": 87,
            "name": "D#6",
            "ticks": 47232,
            "time": 51.971805,
            "velocity": 0.3937007874015748
          },
          {
            "duration": 0.21126750000000527,
            "durationTicks": 192,
            "midi": 75,
            "name": "D#5",
            "ticks": 47232,
            "time": 51.971805,
            "velocity": 0.3937007874015748
          },
          {
            "duration": 0.21126750000000527,
            "durationTicks": 192,
            "midi": 31,
            "name": "G1",
            "ticks": 47232,
            "time": 51.971805,
            "velocity": 0.3937007874015748
          },
          {
            "duration": 0.21126750000000527,
            "durationTicks": 192,
            "midi": 43,
            "name": "G2",
            "ticks": 47232,
            "time": 51.971805,
            "velocity": 0.3937007874015748
          },
          {
            "duration": 0.21126749999999817,
            "durationTicks": 192,
            "midi": 61,
            "name": "C#4",
            "ticks": 47424,
            "time": 52.18307250000001,
            "velocity": 0.3937007874015748
          },
          {
            "duration": 0.21126749999999817,
            "durationTicks": 192,
            "midi": 85,
            "name": "C#6",
            "ticks": 47424,
            "time": 52.18307250000001,
            "velocity": 0.3937007874015748
          },
          {
            "duration": 0.21126749999999817,
            "durationTicks": 192,
            "midi": 73,
            "name": "C#5",
            "ticks": 47424,
            "time": 52.18307250000001,
            "velocity": 0.3937007874015748
          },
          {
            "duration": 0.21126749999999817,
            "durationTicks": 192,
            "midi": 58,
            "name": "A#3",
            "ticks": 47424,
            "time": 52.18307250000001,
            "velocity": 0.3937007874015748
          },
          {
            "duration": 0.21126749999999817,
            "durationTicks": 192,
            "midi": 55,
            "name": "G3",
            "ticks": 47424,
            "time": 52.18307250000001,
            "velocity": 0.3937007874015748
          },
          {
            "duration": 0.21126749999999817,
            "durationTicks": 192,
            "midi": 32,
            "name": "G#1",
            "ticks": 47616,
            "time": 52.39434000000001,
            "velocity": 0.3937007874015748
          },
          {
            "duration": 0.21126749999999817,
            "durationTicks": 192,
            "midi": 44,
            "name": "G#2",
            "ticks": 47616,
            "time": 52.39434000000001,
            "velocity": 0.3937007874015748
          },
          {
            "duration": 0.21126749999999817,
            "durationTicks": 192,
            "midi": 72,
            "name": "C5",
            "ticks": 47616,
            "time": 52.39434000000001,
            "velocity": 0.3937007874015748
          },
          {
            "duration": 0.21126749999999817,
            "durationTicks": 192,
            "midi": 84,
            "name": "C6",
            "ticks": 47616,
            "time": 52.39434000000001,
            "velocity": 0.3937007874015748
          },
          {
            "duration": 0.21126749999999817,
            "durationTicks": 192,
            "midi": 85,
            "name": "C#6",
            "ticks": 47808,
            "time": 52.605607500000005,
            "velocity": 0.3937007874015748
          },
          {
            "duration": 0.21126749999999817,
            "durationTicks": 192,
            "midi": 73,
            "name": "C#5",
            "ticks": 47808,
            "time": 52.605607500000005,
            "velocity": 0.3937007874015748
          },
          {
            "duration": 0.21126749999999817,
            "durationTicks": 192,
            "midi": 46,
            "name": "A#2",
            "ticks": 47808,
            "time": 52.605607500000005,
            "velocity": 0.3937007874015748
          },
          {
            "duration": 0.21126749999999817,
            "durationTicks": 192,
            "midi": 34,
            "name": "A#1",
            "ticks": 47808,
            "time": 52.605607500000005,
            "velocity": 0.3937007874015748
          },
          {
            "duration": 0.21126750000000527,
            "durationTicks": 192,
            "midi": 84,
            "name": "C6",
            "ticks": 48000,
            "time": 52.816875,
            "velocity": 0.3937007874015748
          },
          {
            "duration": 0.21126750000000527,
            "durationTicks": 192,
            "midi": 72,
            "name": "C5",
            "ticks": 48000,
            "time": 52.816875,
            "velocity": 0.3937007874015748
          },
          {
            "duration": 0.21126750000000527,
            "durationTicks": 192,
            "midi": 48,
            "name": "C3",
            "ticks": 48000,
            "time": 52.816875,
            "velocity": 0.3937007874015748
          },
          {
            "duration": 0.21126750000000527,
            "durationTicks": 192,
            "midi": 36,
            "name": "C2",
            "ticks": 48000,
            "time": 52.816875,
            "velocity": 0.3937007874015748
          },
          {
            "duration": 0.21126749999999817,
            "durationTicks": 192,
            "midi": 72,
            "name": "C5",
            "ticks": 48192,
            "time": 53.02814250000001,
            "velocity": 0.3937007874015748
          },
          {
            "duration": 0.21126749999999817,
            "durationTicks": 192,
            "midi": 84,
            "name": "C6",
            "ticks": 48192,
            "time": 53.02814250000001,
            "velocity": 0.3937007874015748
          },
          {
            "duration": 0.21126749999999817,
            "durationTicks": 192,
            "midi": 80,
            "name": "G#5",
            "ticks": 48192,
            "time": 53.02814250000001,
            "velocity": 0.3937007874015748
          },
          {
            "duration": 0.21126749999999817,
            "durationTicks": 192,
            "midi": 48,
            "name": "C3",
            "ticks": 48192,
            "time": 53.02814250000001,
            "velocity": 0.3937007874015748
          },
          {
            "duration": 0.21126749999999817,
            "durationTicks": 192,
            "midi": 52,
            "name": "E3",
            "ticks": 48192,
            "time": 53.02814250000001,
            "velocity": 0.3937007874015748
          },
          {
            "duration": 0.21126749999999817,
            "durationTicks": 192,
            "midi": 58,
            "name": "A#3",
            "ticks": 48192,
            "time": 53.02814250000001,
            "velocity": 0.3937007874015748
          },
          {
            "duration": 0.21126749999999817,
            "durationTicks": 192,
            "midi": 43,
            "name": "G2",
            "ticks": 48384,
            "time": 53.23941000000001,
            "velocity": 0.3937007874015748
          },
          {
            "duration": 0.21126749999999817,
            "durationTicks": 192,
            "midi": 55,
            "name": "G3",
            "ticks": 48384,
            "time": 53.23941000000001,
            "velocity": 0.3937007874015748
          },
          {
            "duration": 0.21126749999999817,
            "durationTicks": 192,
            "midi": 82,
            "name": "A#5",
            "ticks": 48384,
            "time": 53.23941000000001,
            "velocity": 0.3937007874015748
          },
          {
            "duration": 0.21126749999999817,
            "durationTicks": 192,
            "midi": 70,
            "name": "A#4",
            "ticks": 48384,
            "time": 53.23941000000001,
            "velocity": 0.3937007874015748
          },
          {
            "duration": 0.21126749999999817,
            "durationTicks": 192,
            "midi": 79,
            "name": "G5",
            "ticks": 48384,
            "time": 53.23941000000001,
            "velocity": 0.3937007874015748
          },
          {
            "duration": 0.21126749999999817,
            "durationTicks": 192,
            "midi": 77,
            "name": "F5",
            "ticks": 48576,
            "time": 53.450677500000005,
            "velocity": 0.3937007874015748
          },
          {
            "duration": 0.21126749999999817,
            "durationTicks": 192,
            "midi": 80,
            "name": "G#5",
            "ticks": 48576,
            "time": 53.450677500000005,
            "velocity": 0.3937007874015748
          },
          {
            "duration": 0.21126749999999817,
            "durationTicks": 192,
            "midi": 52,
            "name": "E3",
            "ticks": 48576,
            "time": 53.450677500000005,
            "velocity": 0.3937007874015748
          },
          {
            "duration": 0.21126749999999817,
            "durationTicks": 192,
            "midi": 58,
            "name": "A#3",
            "ticks": 48576,
            "time": 53.450677500000005,
            "velocity": 0.3937007874015748
          },
          {
            "duration": 0.21126749999999817,
            "durationTicks": 192,
            "midi": 48,
            "name": "C3",
            "ticks": 48576,
            "time": 53.450677500000005,
            "velocity": 0.3937007874015748
          },
          {
            "duration": 0.21126749999999817,
            "durationTicks": 192,
            "midi": 68,
            "name": "G#4",
            "ticks": 48576,
            "time": 53.450677500000005,
            "velocity": 0.3937007874015748
          },
          {
            "duration": 0.21126750000000527,
            "durationTicks": 192,
            "midi": 76,
            "name": "E5",
            "ticks": 48768,
            "time": 53.661945,
            "velocity": 0.3937007874015748
          },
          {
            "duration": 0.21126750000000527,
            "durationTicks": 192,
            "midi": 48,
            "name": "C3",
            "ticks": 48768,
            "time": 53.661945,
            "velocity": 0.3937007874015748
          },
          {
            "duration": 0.21126750000000527,
            "durationTicks": 192,
            "midi": 36,
            "name": "C2",
            "ticks": 48768,
            "time": 53.661945,
            "velocity": 0.3937007874015748
          },
          {
            "duration": 0.21126750000000527,
            "durationTicks": 192,
            "midi": 72,
            "name": "C5",
            "ticks": 48768,
            "time": 53.661945,
            "velocity": 0.3937007874015748
          },
          {
            "duration": 0.21126750000000527,
            "durationTicks": 192,
            "midi": 84,
            "name": "C6",
            "ticks": 48768,
            "time": 53.661945,
            "velocity": 0.3937007874015748
          },
          {
            "duration": 0.21126749999999817,
            "durationTicks": 192,
            "midi": 52,
            "name": "E3",
            "ticks": 48960,
            "time": 53.87321250000001,
            "velocity": 0.3937007874015748
          },
          {
            "duration": 0.21126749999999817,
            "durationTicks": 192,
            "midi": 55,
            "name": "G3",
            "ticks": 48960,
            "time": 53.87321250000001,
            "velocity": 0.3937007874015748
          },
          {
            "duration": 0.21126749999999817,
            "durationTicks": 192,
            "midi": 73,
            "name": "C#5",
            "ticks": 48960,
            "time": 53.87321250000001,
            "velocity": 0.3937007874015748
          },
          {
            "duration": 0.21126749999999817,
            "durationTicks": 192,
            "midi": 82,
            "name": "A#5",
            "ticks": 48960,
            "time": 53.87321250000001,
            "velocity": 0.3937007874015748
          },
          {
            "duration": 0.21126749999999817,
            "durationTicks": 192,
            "midi": 70,
            "name": "A#4",
            "ticks": 48960,
            "time": 53.87321250000001,
            "velocity": 0.3937007874015748
          },
          {
            "duration": 0.21126749999999817,
            "durationTicks": 192,
            "midi": 48,
            "name": "C3",
            "ticks": 48960,
            "time": 53.87321250000001,
            "velocity": 0.3937007874015748
          },
          {
            "duration": 0.21126749999999817,
            "durationTicks": 192,
            "midi": 38,
            "name": "D2",
            "ticks": 49152,
            "time": 54.084480000000006,
            "velocity": 0.3937007874015748
          },
          {
            "duration": 0.21126749999999817,
            "durationTicks": 192,
            "midi": 50,
            "name": "D3",
            "ticks": 49152,
            "time": 54.084480000000006,
            "velocity": 0.3937007874015748
          },
          {
            "duration": 0.21126749999999817,
            "durationTicks": 192,
            "midi": 68,
            "name": "G#4",
            "ticks": 49152,
            "time": 54.084480000000006,
            "velocity": 0.3937007874015748
          },
          {
            "duration": 0.21126749999999817,
            "durationTicks": 192,
            "midi": 72,
            "name": "C5",
            "ticks": 49152,
            "time": 54.084480000000006,
            "velocity": 0.3937007874015748
          },
          {
            "duration": 0.21126749999999817,
            "durationTicks": 192,
            "midi": 80,
            "name": "G#5",
            "ticks": 49152,
            "time": 54.084480000000006,
            "velocity": 0.3937007874015748
          },
          {
            "duration": 0.21126750000000527,
            "durationTicks": 192,
            "midi": 67,
            "name": "G4",
            "ticks": 49344,
            "time": 54.295747500000004,
            "velocity": 0.3937007874015748
          },
          {
            "duration": 0.21126750000000527,
            "durationTicks": 192,
            "midi": 79,
            "name": "G5",
            "ticks": 49344,
            "time": 54.295747500000004,
            "velocity": 0.3937007874015748
          },
          {
            "duration": 0.21126750000000527,
            "durationTicks": 192,
            "midi": 52,
            "name": "E3",
            "ticks": 49344,
            "time": 54.295747500000004,
            "velocity": 0.3937007874015748
          },
          {
            "duration": 0.21126750000000527,
            "durationTicks": 192,
            "midi": 40,
            "name": "E2",
            "ticks": 49344,
            "time": 54.295747500000004,
            "velocity": 0.3937007874015748
          },
          {
            "duration": 0.21126750000000527,
            "durationTicks": 192,
            "midi": 70,
            "name": "A#4",
            "ticks": 49344,
            "time": 54.295747500000004,
            "velocity": 0.3937007874015748
          },
          {
            "duration": 0.42253499999999633,
            "durationTicks": 384,
            "midi": 84,
            "name": "C6",
            "ticks": 49536,
            "time": 54.50701500000001,
            "velocity": 0.3937007874015748
          },
          {
            "duration": 0.42253499999999633,
            "durationTicks": 384,
            "midi": 77,
            "name": "F5",
            "ticks": 49536,
            "time": 54.50701500000001,
            "velocity": 0.3937007874015748
          },
          {
            "duration": 0.42253499999999633,
            "durationTicks": 384,
            "midi": 80,
            "name": "G#5",
            "ticks": 49536,
            "time": 54.50701500000001,
            "velocity": 0.3937007874015748
          },
          {
            "duration": 0.42253499999999633,
            "durationTicks": 384,
            "midi": 72,
            "name": "C5",
            "ticks": 49536,
            "time": 54.50701500000001,
            "velocity": 0.3937007874015748
          },
          {
            "duration": 0.21126749999999817,
            "durationTicks": 192,
            "midi": 41,
            "name": "F2",
            "ticks": 49536,
            "time": 54.50701500000001,
            "velocity": 0.3937007874015748
          },
          {
            "duration": 0.21126749999999817,
            "durationTicks": 192,
            "midi": 53,
            "name": "F3",
            "ticks": 49536,
            "time": 54.50701500000001,
            "velocity": 0.3937007874015748
          },
          {
            "duration": 0.21126749999999817,
            "durationTicks": 192,
            "midi": 48,
            "name": "C3",
            "ticks": 49728,
            "time": 54.71828250000001,
            "velocity": 0.3937007874015748
          },
          {
            "duration": 0.21126749999999817,
            "durationTicks": 192,
            "midi": 53,
            "name": "F3",
            "ticks": 49728,
            "time": 54.71828250000001,
            "velocity": 0.3937007874015748
          },
          {
            "duration": 0.21126749999999817,
            "durationTicks": 192,
            "midi": 56,
            "name": "G#3",
            "ticks": 49728,
            "time": 54.71828250000001,
            "velocity": 0.3937007874015748
          },
          {
            "duration": 0.42253500000000344,
            "durationTicks": 384,
            "midi": 84,
            "name": "C6",
            "ticks": 49920,
            "time": 54.929550000000006,
            "velocity": 0.3937007874015748
          },
          {
            "duration": 0.42253500000000344,
            "durationTicks": 384,
            "midi": 77,
            "name": "F5",
            "ticks": 49920,
            "time": 54.929550000000006,
            "velocity": 0.3937007874015748
          },
          {
            "duration": 0.42253500000000344,
            "durationTicks": 384,
            "midi": 80,
            "name": "G#5",
            "ticks": 49920,
            "time": 54.929550000000006,
            "velocity": 0.3937007874015748
          },
          {
            "duration": 0.42253500000000344,
            "durationTicks": 384,
            "midi": 72,
            "name": "C5",
            "ticks": 49920,
            "time": 54.929550000000006,
            "velocity": 0.3937007874015748
          },
          {
            "duration": 0.21126749999999817,
            "durationTicks": 192,
            "midi": 48,
            "name": "C3",
            "ticks": 49920,
            "time": 54.929550000000006,
            "velocity": 0.3937007874015748
          },
          {
            "duration": 0.21126749999999817,
            "durationTicks": 192,
            "midi": 36,
            "name": "C2",
            "ticks": 49920,
            "time": 54.929550000000006,
            "velocity": 0.3937007874015748
          },
          {
            "duration": 0.21126750000000527,
            "durationTicks": 192,
            "midi": 48,
            "name": "C3",
            "ticks": 50112,
            "time": 55.140817500000004,
            "velocity": 0.3937007874015748
          },
          {
            "duration": 0.21126750000000527,
            "durationTicks": 192,
            "midi": 56,
            "name": "G#3",
            "ticks": 50112,
            "time": 55.140817500000004,
            "velocity": 0.3937007874015748
          },
          {
            "duration": 0.21126750000000527,
            "durationTicks": 192,
            "midi": 53,
            "name": "F3",
            "ticks": 50112,
            "time": 55.140817500000004,
            "velocity": 0.3937007874015748
          },
          {
            "duration": 0.10563375000000264,
            "durationTicks": 96,
            "midi": 87,
            "name": "D#6",
            "ticks": 50256,
            "time": 55.299268125000005,
            "velocity": 0.3937007874015748
          },
          {
            "duration": 0.10563375000000264,
            "durationTicks": 96,
            "midi": 88,
            "name": "E6",
            "ticks": 50280,
            "time": 55.32567656250001,
            "velocity": 0.3937007874015748
          },
          {
            "duration": 0.21126749999999817,
            "durationTicks": 192,
            "midi": 29,
            "name": "F1",
            "ticks": 50304,
            "time": 55.35208500000001,
            "velocity": 0.3937007874015748
          },
          {
            "duration": 0.42253499999999633,
            "durationTicks": 384,
            "midi": 89,
            "name": "F6",
            "ticks": 50304,
            "time": 55.35208500000001,
            "velocity": 0.3937007874015748
          },
          {
            "duration": 0.42253499999999633,
            "durationTicks": 384,
            "midi": 77,
            "name": "F5",
            "ticks": 50304,
            "time": 55.35208500000001,
            "velocity": 0.3937007874015748
          },
          {
            "duration": 0.21126749999999817,
            "durationTicks": 192,
            "midi": 41,
            "name": "F2",
            "ticks": 50304,
            "time": 55.35208500000001,
            "velocity": 0.3937007874015748
          },
          {
            "duration": 0.21126749999999817,
            "durationTicks": 192,
            "midi": 48,
            "name": "C3",
            "ticks": 50496,
            "time": 55.56335250000001,
            "velocity": 0.3937007874015748
          },
          {
            "duration": 0.21126749999999817,
            "durationTicks": 192,
            "midi": 56,
            "name": "G#3",
            "ticks": 50496,
            "time": 55.56335250000001,
            "velocity": 0.3937007874015748
          },
          {
            "duration": 0.21126749999999817,
            "durationTicks": 192,
            "midi": 53,
            "name": "F3",
            "ticks": 50496,
            "time": 55.56335250000001,
            "velocity": 0.3937007874015748
          },
          {
            "duration": 0.21126749999999817,
            "durationTicks": 192,
            "midi": 44,
            "name": "G#2",
            "ticks": 50688,
            "time": 55.774620000000006,
            "velocity": 0.3937007874015748
          },
          {
            "duration": 0.42253500000000344,
            "durationTicks": 384,
            "midi": 84,
            "name": "C6",
            "ticks": 50688,
            "time": 55.774620000000006,
            "velocity": 0.3937007874015748
          },
          {
            "duration": 0.42253500000000344,
            "durationTicks": 384,
            "midi": 72,
            "name": "C5",
            "ticks": 50688,
            "time": 55.774620000000006,
            "velocity": 0.3937007874015748
          },
          {
            "duration": 0.21126749999999817,
            "durationTicks": 192,
            "midi": 32,
            "name": "G#1",
            "ticks": 50688,
            "time": 55.774620000000006,
            "velocity": 0.3937007874015748
          },
          {
            "duration": 0.21126750000000527,
            "durationTicks": 192,
            "midi": 48,
            "name": "C3",
            "ticks": 50880,
            "time": 55.985887500000004,
            "velocity": 0.3937007874015748
          },
          {
            "duration": 0.21126750000000527,
            "durationTicks": 192,
            "midi": 53,
            "name": "F3",
            "ticks": 50880,
            "time": 55.985887500000004,
            "velocity": 0.3937007874015748
          },
          {
            "duration": 0.21126750000000527,
            "durationTicks": 192,
            "midi": 56,
            "name": "G#3",
            "ticks": 50880,
            "time": 55.985887500000004,
            "velocity": 0.3937007874015748
          },
          {
            "duration": 0.21126749999999817,
            "durationTicks": 192,
            "midi": 43,
            "name": "G2",
            "ticks": 51072,
            "time": 56.19715500000001,
            "velocity": 0.3937007874015748
          },
          {
            "duration": 0.21126749999999817,
            "durationTicks": 192,
            "midi": 75,
            "name": "D#5",
            "ticks": 51072,
            "time": 56.19715500000001,
            "velocity": 0.3937007874015748
          },
          {
            "duration": 0.21126749999999817,
            "durationTicks": 192,
            "midi": 31,
            "name": "G1",
            "ticks": 51072,
            "time": 56.19715500000001,
            "velocity": 0.3937007874015748
          },
          {
            "duration": 0.21126749999999817,
            "durationTicks": 192,
            "midi": 87,
            "name": "D#6",
            "ticks": 51072,
            "time": 56.19715500000001,
            "velocity": 0.3937007874015748
          },
          {
            "duration": 0.21126749999999817,
            "durationTicks": 192,
            "midi": 61,
            "name": "C#4",
            "ticks": 51264,
            "time": 56.40842250000001,
            "velocity": 0.3937007874015748
          },
          {
            "duration": 0.21126749999999817,
            "durationTicks": 192,
            "midi": 58,
            "name": "A#3",
            "ticks": 51264,
            "time": 56.40842250000001,
            "velocity": 0.3937007874015748
          },
          {
            "duration": 0.21126749999999817,
            "durationTicks": 192,
            "midi": 85,
            "name": "C#6",
            "ticks": 51264,
            "time": 56.40842250000001,
            "velocity": 0.3937007874015748
          },
          {
            "duration": 0.21126749999999817,
            "durationTicks": 192,
            "midi": 73,
            "name": "C#5",
            "ticks": 51264,
            "time": 56.40842250000001,
            "velocity": 0.3937007874015748
          },
          {
            "duration": 0.21126749999999817,
            "durationTicks": 192,
            "midi": 55,
            "name": "G3",
            "ticks": 51264,
            "time": 56.40842250000001,
            "velocity": 0.3937007874015748
          },
          {
            "duration": 0.21126749999999817,
            "durationTicks": 192,
            "midi": 43,
            "name": "G2",
            "ticks": 51456,
            "time": 56.619690000000006,
            "velocity": 0.3937007874015748
          },
          {
            "duration": 0.21126749999999817,
            "durationTicks": 192,
            "midi": 84,
            "name": "C6",
            "ticks": 51456,
            "time": 56.619690000000006,
            "velocity": 0.3937007874015748
          },
          {
            "duration": 0.21126749999999817,
            "durationTicks": 192,
            "midi": 72,
            "name": "C5",
            "ticks": 51456,
            "time": 56.619690000000006,
            "velocity": 0.3937007874015748
          },
          {
            "duration": 0.21126749999999817,
            "durationTicks": 192,
            "midi": 31,
            "name": "G1",
            "ticks": 51456,
            "time": 56.619690000000006,
            "velocity": 0.3937007874015748
          },
          {
            "duration": 0.21126750000000527,
            "durationTicks": 192,
            "midi": 61,
            "name": "C#4",
            "ticks": 51648,
            "time": 56.830957500000004,
            "velocity": 0.3937007874015748
          },
          {
            "duration": 0.21126750000000527,
            "durationTicks": 192,
            "midi": 58,
            "name": "A#3",
            "ticks": 51648,
            "time": 56.830957500000004,
            "velocity": 0.3937007874015748
          },
          {
            "duration": 0.21126750000000527,
            "durationTicks": 192,
            "midi": 85,
            "name": "C#6",
            "ticks": 51648,
            "time": 56.830957500000004,
            "velocity": 0.3937007874015748
          },
          {
            "duration": 0.21126750000000527,
            "durationTicks": 192,
            "midi": 55,
            "name": "G3",
            "ticks": 51648,
            "time": 56.830957500000004,
            "velocity": 0.3937007874015748
          },
          {
            "duration": 0.21126750000000527,
            "durationTicks": 192,
            "midi": 73,
            "name": "C#5",
            "ticks": 51648,
            "time": 56.830957500000004,
            "velocity": 0.3937007874015748
          },
          {
            "duration": 0.42253499999999633,
            "durationTicks": 384,
            "midi": 79,
            "name": "G5",
            "ticks": 51840,
            "time": 57.04222500000001,
            "velocity": 0.3937007874015748
          },
          {
            "duration": 0.42253499999999633,
            "durationTicks": 384,
            "midi": 76,
            "name": "E5",
            "ticks": 51840,
            "time": 57.04222500000001,
            "velocity": 0.3937007874015748
          },
          {
            "duration": 0.21126749999999817,
            "durationTicks": 192,
            "midi": 46,
            "name": "A#2",
            "ticks": 51840,
            "time": 57.04222500000001,
            "velocity": 0.3937007874015748
          },
          {
            "duration": 0.42253499999999633,
            "durationTicks": 384,
            "midi": 70,
            "name": "A#4",
            "ticks": 51840,
            "time": 57.04222500000001,
            "velocity": 0.3937007874015748
          },
          {
            "duration": 0.21126749999999817,
            "durationTicks": 192,
            "midi": 34,
            "name": "A#1",
            "ticks": 51840,
            "time": 57.04222500000001,
            "velocity": 0.3937007874015748
          },
          {
            "duration": 0.42253499999999633,
            "durationTicks": 384,
            "midi": 82,
            "name": "A#5",
            "ticks": 51840,
            "time": 57.04222500000001,
            "velocity": 0.3937007874015748
          },
          {
            "duration": 0.21126749999999817,
            "durationTicks": 192,
            "midi": 55,
            "name": "G3",
            "ticks": 52032,
            "time": 57.25349250000001,
            "velocity": 0.3937007874015748
          },
          {
            "duration": 0.21126749999999817,
            "durationTicks": 192,
            "midi": 61,
            "name": "C#4",
            "ticks": 52032,
            "time": 57.25349250000001,
            "velocity": 0.3937007874015748
          },
          {
            "duration": 0.21126749999999817,
            "durationTicks": 192,
            "midi": 58,
            "name": "A#3",
            "ticks": 52032,
            "time": 57.25349250000001,
            "velocity": 0.3937007874015748
          },
          {
            "duration": 0.21126749999999817,
            "durationTicks": 192,
            "midi": 49,
            "name": "C#3",
            "ticks": 52224,
            "time": 57.464760000000005,
            "velocity": 0.3937007874015748
          },
          {
            "duration": 0.21126749999999817,
            "durationTicks": 192,
            "midi": 37,
            "name": "C#2",
            "ticks": 52224,
            "time": 57.464760000000005,
            "velocity": 0.3937007874015748
          },
          {
            "duration": 0.21126750000000527,
            "durationTicks": 192,
            "midi": 61,
            "name": "C#4",
            "ticks": 52416,
            "time": 57.676027500000004,
            "velocity": 0.3937007874015748
          },
          {
            "duration": 0.21126750000000527,
            "durationTicks": 192,
            "midi": 58,
            "name": "A#3",
            "ticks": 52416,
            "time": 57.676027500000004,
            "velocity": 0.3937007874015748
          },
          {
            "duration": 0.21126750000000527,
            "durationTicks": 192,
            "midi": 55,
            "name": "G3",
            "ticks": 52416,
            "time": 57.676027500000004,
            "velocity": 0.3937007874015748
          },
          {
            "duration": 0.8450699999999998,
            "durationTicks": 768,
            "midi": 76,
            "name": "E5",
            "ticks": 52608,
            "time": 57.88729500000001,
            "velocity": 0.3937007874015748
          },
          {
            "duration": 0.8450699999999998,
            "durationTicks": 768,
            "midi": 79,
            "name": "G5",
            "ticks": 52608,
            "time": 57.88729500000001,
            "velocity": 0.3937007874015748
          },
          {
            "duration": 0.8450699999999998,
            "durationTicks": 768,
            "midi": 84,
            "name": "C6",
            "ticks": 52608,
            "time": 57.88729500000001,
            "velocity": 0.3937007874015748
          },
          {
            "duration": 0.21126749999999817,
            "durationTicks": 192,
            "midi": 43,
            "name": "G2",
            "ticks": 52608,
            "time": 57.88729500000001,
            "velocity": 0.3937007874015748
          },
          {
            "duration": 0.21126749999999817,
            "durationTicks": 192,
            "midi": 55,
            "name": "G3",
            "ticks": 52608,
            "time": 57.88729500000001,
            "velocity": 0.3937007874015748
          },
          {
            "duration": 0.8450699999999998,
            "durationTicks": 768,
            "midi": 72,
            "name": "C5",
            "ticks": 52608,
            "time": 57.88729500000001,
            "velocity": 0.3937007874015748
          },
          {
            "duration": 0.21126749999999817,
            "durationTicks": 192,
            "midi": 55,
            "name": "G3",
            "ticks": 52800,
            "time": 58.09856250000001,
            "velocity": 0.3937007874015748
          },
          {
            "duration": 0.21126749999999817,
            "durationTicks": 192,
            "midi": 52,
            "name": "E3",
            "ticks": 52800,
            "time": 58.09856250000001,
            "velocity": 0.3937007874015748
          },
          {
            "duration": 0.21126749999999817,
            "durationTicks": 192,
            "midi": 58,
            "name": "A#3",
            "ticks": 52800,
            "time": 58.09856250000001,
            "velocity": 0.3937007874015748
          },
          {
            "duration": 0.21126749999999817,
            "durationTicks": 192,
            "midi": 36,
            "name": "C2",
            "ticks": 52992,
            "time": 58.309830000000005,
            "velocity": 0.3937007874015748
          },
          {
            "duration": 0.21126749999999817,
            "durationTicks": 192,
            "midi": 48,
            "name": "C3",
            "ticks": 52992,
            "time": 58.309830000000005,
            "velocity": 0.3937007874015748
          },
          {
            "duration": 0.21126750000000527,
            "durationTicks": 192,
            "midi": 52,
            "name": "E3",
            "ticks": 53184,
            "time": 58.5210975,
            "velocity": 0.3937007874015748
          },
          {
            "duration": 0.21126750000000527,
            "durationTicks": 192,
            "midi": 55,
            "name": "G3",
            "ticks": 53184,
            "time": 58.5210975,
            "velocity": 0.3937007874015748
          },
          {
            "duration": 0.21126750000000527,
            "durationTicks": 192,
            "midi": 58,
            "name": "A#3",
            "ticks": 53184,
            "time": 58.5210975,
            "velocity": 0.3937007874015748
          },
          {
            "duration": 0.21126749999999817,
            "durationTicks": 192,
            "midi": 52,
            "name": "E3",
            "ticks": 53376,
            "time": 58.73236500000001,
            "velocity": 0.3937007874015748
          },
          {
            "duration": 0.21126749999999817,
            "durationTicks": 192,
            "midi": 79,
            "name": "G5",
            "ticks": 53376,
            "time": 58.73236500000001,
            "velocity": 0.3937007874015748
          },
          {
            "duration": 0.21126749999999817,
            "durationTicks": 192,
            "midi": 70,
            "name": "A#4",
            "ticks": 53376,
            "time": 58.73236500000001,
            "velocity": 0.3937007874015748
          },
          {
            "duration": 0.21126749999999817,
            "durationTicks": 192,
            "midi": 40,
            "name": "E2",
            "ticks": 53376,
            "time": 58.73236500000001,
            "velocity": 0.3937007874015748
          },
          {
            "duration": 0.21126749999999817,
            "durationTicks": 192,
            "midi": 82,
            "name": "A#5",
            "ticks": 53376,
            "time": 58.73236500000001,
            "velocity": 0.3937007874015748
          },
          {
            "duration": 0.21126749999999817,
            "durationTicks": 192,
            "midi": 48,
            "name": "C3",
            "ticks": 53568,
            "time": 58.94363250000001,
            "velocity": 0.3937007874015748
          },
          {
            "duration": 0.21126749999999817,
            "durationTicks": 192,
            "midi": 68,
            "name": "G#4",
            "ticks": 53568,
            "time": 58.94363250000001,
            "velocity": 0.3937007874015748
          },
          {
            "duration": 0.21126749999999817,
            "durationTicks": 192,
            "midi": 80,
            "name": "G#5",
            "ticks": 53568,
            "time": 58.94363250000001,
            "velocity": 0.3937007874015748
          },
          {
            "duration": 0.21126749999999817,
            "durationTicks": 192,
            "midi": 77,
            "name": "F5",
            "ticks": 53568,
            "time": 58.94363250000001,
            "velocity": 0.3937007874015748
          },
          {
            "duration": 0.21126749999999817,
            "durationTicks": 192,
            "midi": 36,
            "name": "C2",
            "ticks": 53568,
            "time": 58.94363250000001,
            "velocity": 0.3937007874015748
          },
          {
            "duration": 0.21126750000000527,
            "durationTicks": 192,
            "midi": 67,
            "name": "G4",
            "ticks": 53760,
            "time": 59.154900000000005,
            "velocity": 0.3937007874015748
          },
          {
            "duration": 0.21126750000000527,
            "durationTicks": 192,
            "midi": 50,
            "name": "D3",
            "ticks": 53760,
            "time": 59.154900000000005,
            "velocity": 0.3937007874015748
          },
          {
            "duration": 0.21126750000000527,
            "durationTicks": 192,
            "midi": 76,
            "name": "E5",
            "ticks": 53760,
            "time": 59.154900000000005,
            "velocity": 0.3937007874015748
          },
          {
            "duration": 0.21126750000000527,
            "durationTicks": 192,
            "midi": 79,
            "name": "G5",
            "ticks": 53760,
            "time": 59.154900000000005,
            "velocity": 0.3937007874015748
          },
          {
            "duration": 0.21126750000000527,
            "durationTicks": 192,
            "midi": 38,
            "name": "D2",
            "ticks": 53760,
            "time": 59.154900000000005,
            "velocity": 0.3937007874015748
          },
          {
            "duration": 0.21126749999999817,
            "durationTicks": 192,
            "midi": 76,
            "name": "E5",
            "ticks": 53952,
            "time": 59.36616750000001,
            "velocity": 0.3937007874015748
          },
          {
            "duration": 0.21126749999999817,
            "durationTicks": 192,
            "midi": 40,
            "name": "E2",
            "ticks": 53952,
            "time": 59.36616750000001,
            "velocity": 0.3937007874015748
          },
          {
            "duration": 0.21126749999999817,
            "durationTicks": 192,
            "midi": 68,
            "name": "G#4",
            "ticks": 53952,
            "time": 59.36616750000001,
            "velocity": 0.3937007874015748
          },
          {
            "duration": 0.21126749999999817,
            "durationTicks": 192,
            "midi": 80,
            "name": "G#5",
            "ticks": 53952,
            "time": 59.36616750000001,
            "velocity": 0.3937007874015748
          },
          {
            "duration": 0.21126749999999817,
            "durationTicks": 192,
            "midi": 52,
            "name": "E3",
            "ticks": 53952,
            "time": 59.36616750000001,
            "velocity": 0.3937007874015748
          },
          {
            "duration": 0.21126749999999817,
            "durationTicks": 192,
            "midi": 53,
            "name": "F3",
            "ticks": 54144,
            "time": 59.57743500000001,
            "velocity": 0.3937007874015748
          },
          {
            "duration": 0.8450699999999998,
            "durationTicks": 768,
            "midi": 77,
            "name": "F5",
            "ticks": 54144,
            "time": 59.57743500000001,
            "velocity": 0.3937007874015748
          },
          {
            "duration": 0.21126749999999817,
            "durationTicks": 192,
            "midi": 41,
            "name": "F2",
            "ticks": 54144,
            "time": 59.57743500000001,
            "velocity": 0.3937007874015748
          },
          {
            "duration": 0.8450699999999998,
            "durationTicks": 768,
            "midi": 68,
            "name": "G#4",
            "ticks": 54144,
            "time": 59.57743500000001,
            "velocity": 0.3937007874015748
          },
          {
            "duration": 0.8450699999999998,
            "durationTicks": 768,
            "midi": 72,
            "name": "C5",
            "ticks": 54144,
            "time": 59.57743500000001,
            "velocity": 0.3937007874015748
          },
          {
            "duration": 0.8450699999999998,
            "durationTicks": 768,
            "midi": 65,
            "name": "F4",
            "ticks": 54144,
            "time": 59.57743500000001,
            "velocity": 0.3937007874015748
          },
          {
            "duration": 0.21126749999999817,
            "durationTicks": 192,
            "midi": 53,
            "name": "F3",
            "ticks": 54336,
            "time": 59.78870250000001,
            "velocity": 0.3937007874015748
          },
          {
            "duration": 0.21126749999999817,
            "durationTicks": 192,
            "midi": 48,
            "name": "C3",
            "ticks": 54336,
            "time": 59.78870250000001,
            "velocity": 0.3937007874015748
          },
          {
            "duration": 0.21126750000000527,
            "durationTicks": 192,
            "midi": 48,
            "name": "C3",
            "ticks": 54528,
            "time": 59.999970000000005,
            "velocity": 0.3937007874015748
          },
          {
            "duration": 0.21126750000000527,
            "durationTicks": 192,
            "midi": 36,
            "name": "C2",
            "ticks": 54528,
            "time": 59.999970000000005,
            "velocity": 0.3937007874015748
          },
          {
            "duration": 0.21126749999999817,
            "durationTicks": 192,
            "midi": 53,
            "name": "F3",
            "ticks": 54720,
            "time": 60.21123750000001,
            "velocity": 0.3937007874015748
          },
          {
            "duration": 0.21126749999999817,
            "durationTicks": 192,
            "midi": 48,
            "name": "C3",
            "ticks": 54720,
            "time": 60.21123750000001,
            "velocity": 0.3937007874015748
          },
          {
            "duration": 0.42253499999999633,
            "durationTicks": 384,
            "midi": 29,
            "name": "F1",
            "ticks": 54912,
            "time": 60.42250500000001,
            "velocity": 0.3937007874015748
          },
          {
            "duration": 0.42253499999999633,
            "durationTicks": 384,
            "midi": 53,
            "name": "F3",
            "ticks": 54912,
            "time": 60.42250500000001,
            "velocity": 0.3937007874015748
          },
          {
            "duration": 0.42253499999999633,
            "durationTicks": 384,
            "midi": 41,
            "name": "F2",
            "ticks": 54912,
            "time": 60.42250500000001,
            "velocity": 0.3937007874015748
          },
          {
            "duration": 0.21126749999999817,
            "durationTicks": 192,
            "midi": 76,
            "name": "E5",
            "ticks": 55680,
            "time": 61.26757500000001,
            "velocity": 0.3937007874015748
          },
          {
            "duration": 0.21126749999999817,
            "durationTicks": 192,
            "midi": 36,
            "name": "C2",
            "ticks": 55680,
            "time": 61.26757500000001,
            "velocity": 0.3937007874015748
          },
          {
            "duration": 0.10563375000000264,
            "durationTicks": 96,
            "midi": 84,
            "name": "C6",
            "ticks": 55680,
            "time": 61.26757500000001,
            "velocity": 0.3937007874015748
          },
          {
            "duration": 0.21126749999999817,
            "durationTicks": 192,
            "midi": 48,
            "name": "C3",
            "ticks": 55680,
            "time": 61.26757500000001,
            "velocity": 0.3937007874015748
          },
          {
            "duration": 0.10563374999999553,
            "durationTicks": 96,
            "midi": 85,
            "name": "C#6",
            "ticks": 55776,
            "time": 61.37320875000001,
            "velocity": 0.3937007874015748
          },
          {
            "duration": 0.21126749999999817,
            "durationTicks": 192,
            "midi": 60,
            "name": "C4",
            "ticks": 55872,
            "time": 61.478842500000006,
            "velocity": 0.3937007874015748
          },
          {
            "duration": 0.10563375000000264,
            "durationTicks": 96,
            "midi": 84,
            "name": "C6",
            "ticks": 55872,
            "time": 61.478842500000006,
            "velocity": 0.3937007874015748
          },
          {
            "duration": 0.21126749999999817,
            "durationTicks": 192,
            "midi": 58,
            "name": "A#3",
            "ticks": 55872,
            "time": 61.478842500000006,
            "velocity": 0.3937007874015748
          },
          {
            "duration": 0.21126749999999817,
            "durationTicks": 192,
            "midi": 52,
            "name": "E3",
            "ticks": 55872,
            "time": 61.478842500000006,
            "velocity": 0.3937007874015748
          },
          {
            "duration": 0.10563374999999553,
            "durationTicks": 96,
            "midi": 82,
            "name": "A#5",
            "ticks": 55968,
            "time": 61.58447625000001,
            "velocity": 0.3937007874015748
          },
          {
            "duration": 0.10563375000000264,
            "durationTicks": 96,
            "midi": 79,
            "name": "G5",
            "ticks": 56064,
            "time": 61.690110000000004,
            "velocity": 0.3937007874015748
          },
          {
            "duration": 0.21126750000000527,
            "durationTicks": 192,
            "midi": 48,
            "name": "C3",
            "ticks": 56064,
            "time": 61.690110000000004,
            "velocity": 0.3937007874015748
          },
          {
            "duration": 0.21126750000000527,
            "durationTicks": 192,
            "midi": 36,
            "name": "C2",
            "ticks": 56064,
            "time": 61.690110000000004,
            "velocity": 0.3937007874015748
          },
          {
            "duration": 0.10563375000000264,
            "durationTicks": 96,
            "midi": 84,
            "name": "C6",
            "ticks": 56064,
            "time": 61.690110000000004,
            "velocity": 0.3937007874015748
          },
          {
            "duration": 0.10563375000000264,
            "durationTicks": 96,
            "midi": 82,
            "name": "A#5",
            "ticks": 56160,
            "time": 61.79574375000001,
            "velocity": 0.3937007874015748
          },
          {
            "duration": 0.21126749999999817,
            "durationTicks": 192,
            "midi": 58,
            "name": "A#3",
            "ticks": 56256,
            "time": 61.90137750000001,
            "velocity": 0.3937007874015748
          },
          {
            "duration": 0.21126749999999817,
            "durationTicks": 192,
            "midi": 52,
            "name": "E3",
            "ticks": 56256,
            "time": 61.90137750000001,
            "velocity": 0.3937007874015748
          },
          {
            "duration": 0.10563374999999553,
            "durationTicks": 96,
            "midi": 80,
            "name": "G#5",
            "ticks": 56256,
            "time": 61.90137750000001,
            "velocity": 0.3937007874015748
          },
          {
            "duration": 0.21126749999999817,
            "durationTicks": 192,
            "midi": 60,
            "name": "C4",
            "ticks": 56256,
            "time": 61.90137750000001,
            "velocity": 0.3937007874015748
          },
          {
            "duration": 0.10563375000000264,
            "durationTicks": 96,
            "midi": 79,
            "name": "G5",
            "ticks": 56352,
            "time": 62.007011250000005,
            "velocity": 0.3937007874015748
          },
          {
            "duration": 0.21126749999999817,
            "durationTicks": 192,
            "midi": 41,
            "name": "F2",
            "ticks": 56448,
            "time": 62.11264500000001,
            "velocity": 0.3937007874015748
          },
          {
            "duration": 0.21126749999999817,
            "durationTicks": 192,
            "midi": 53,
            "name": "F3",
            "ticks": 56448,
            "time": 62.11264500000001,
            "velocity": 0.3937007874015748
          },
          {
            "duration": 0.21126749999999817,
            "durationTicks": 192,
            "midi": 72,
            "name": "C5",
            "ticks": 56448,
            "time": 62.11264500000001,
            "velocity": 0.3937007874015748
          },
          {
            "duration": 0.21126749999999817,
            "durationTicks": 192,
            "midi": 77,
            "name": "F5",
            "ticks": 56448,
            "time": 62.11264500000001,
            "velocity": 0.3937007874015748
          },
          {
            "duration": 0.10563375000000264,
            "durationTicks": 96,
            "midi": 77,
            "name": "F5",
            "ticks": 57216,
            "time": 62.95771500000001,
            "velocity": 0.3937007874015748
          },
          {
            "duration": 0.21126749999999817,
            "durationTicks": 192,
            "midi": 36,
            "name": "C2",
            "ticks": 57216,
            "time": 62.95771500000001,
            "velocity": 0.3937007874015748
          },
          {
            "duration": 0.21126749999999817,
            "durationTicks": 192,
            "midi": 48,
            "name": "C3",
            "ticks": 57216,
            "time": 62.95771500000001,
            "velocity": 0.3937007874015748
          },
          {
            "duration": 0.10563375000000264,
            "durationTicks": 96,
            "midi": 76,
            "name": "E5",
            "ticks": 57264,
            "time": 63.010531875000005,
            "velocity": 0.3937007874015748
          },
          {
            "duration": 0.10563375000000264,
            "durationTicks": 96,
            "midi": 79,
            "name": "G5",
            "ticks": 57264,
            "time": 63.010531875000005,
            "velocity": 0.3937007874015748
          },
          {
            "duration": 0.10563375000000264,
            "durationTicks": 96,
            "midi": 76,
            "name": "E5",
            "ticks": 57408,
            "time": 63.168982500000006,
            "velocity": 0.3937007874015748
          },
          {
            "duration": 0.21126750000000527,
            "durationTicks": 192,
            "midi": 58,
            "name": "A#3",
            "ticks": 57408,
            "time": 63.168982500000006,
            "velocity": 0.3937007874015748
          },
          {
            "duration": 0.10563375000000264,
            "durationTicks": 96,
            "midi": 80,
            "name": "G#5",
            "ticks": 57408,
            "time": 63.168982500000006,
            "velocity": 0.3937007874015748
          },
          {
            "duration": 0.21126750000000527,
            "durationTicks": 192,
            "midi": 55,
            "name": "G3",
            "ticks": 57408,
            "time": 63.168982500000006,
            "velocity": 0.3937007874015748
          },
          {
            "duration": 0.21126750000000527,
            "durationTicks": 192,
            "midi": 60,
            "name": "C4",
            "ticks": 57408,
            "time": 63.168982500000006,
            "velocity": 0.3937007874015748
          },
          {
            "duration": 0.10563374999999553,
            "durationTicks": 96,
            "midi": 82,
            "name": "A#5",
            "ticks": 57600,
            "time": 63.38025000000001,
            "velocity": 0.3937007874015748
          },
          {
            "duration": 0.21126749999999817,
            "durationTicks": 192,
            "midi": 48,
            "name": "C3",
            "ticks": 57600,
            "time": 63.38025000000001,
            "velocity": 0.3937007874015748
          },
          {
            "duration": 0.21126749999999817,
            "durationTicks": 192,
            "midi": 36,
            "name": "C2",
            "ticks": 57600,
            "time": 63.38025000000001,
            "velocity": 0.3937007874015748
          },
          {
            "duration": 0.10563374999999553,
            "durationTicks": 96,
            "midi": 73,
            "name": "C#5",
            "ticks": 57600,
            "time": 63.38025000000001,
            "velocity": 0.3937007874015748
          },
          {
            "duration": 0.10563374999999553,
            "durationTicks": 96,
            "midi": 84,
            "name": "C6",
            "ticks": 57792,
            "time": 63.59151750000001,
            "velocity": 0.3937007874015748
          },
          {
            "duration": 0.10563374999999553,
            "durationTicks": 96,
            "midi": 72,
            "name": "C5",
            "ticks": 57792,
            "time": 63.59151750000001,
            "velocity": 0.3937007874015748
          },
          {
            "duration": 0.21126749999999817,
            "durationTicks": 192,
            "midi": 60,
            "name": "C4",
            "ticks": 57792,
            "time": 63.59151750000001,
            "velocity": 0.3937007874015748
          },
          {
            "duration": 0.21126749999999817,
            "durationTicks": 192,
            "midi": 58,
            "name": "A#3",
            "ticks": 57792,
            "time": 63.59151750000001,
            "velocity": 0.3937007874015748
          },
          {
            "duration": 0.21126749999999817,
            "durationTicks": 192,
            "midi": 55,
            "name": "G3",
            "ticks": 57792,
            "time": 63.59151750000001,
            "velocity": 0.3937007874015748
          },
          {
            "duration": 0.21126749999999817,
            "durationTicks": 192,
            "midi": 55,
            "name": "G3",
            "ticks": 57984,
            "time": 63.80278500000001,
            "velocity": 0.3937007874015748
          },
          {
            "duration": 0.21126749999999817,
            "durationTicks": 192,
            "midi": 43,
            "name": "G2",
            "ticks": 57984,
            "time": 63.80278500000001,
            "velocity": 0.3937007874015748
          },
          {
            "duration": 0.10563375000000264,
            "durationTicks": 96,
            "midi": 73,
            "name": "C#5",
            "ticks": 57984,
            "time": 63.80278500000001,
            "velocity": 0.3937007874015748
          },
          {
            "duration": 0.10563375000000264,
            "durationTicks": 96,
            "midi": 85,
            "name": "C#6",
            "ticks": 57984,
            "time": 63.80278500000001,
            "velocity": 0.3937007874015748
          },
          {
            "duration": 0.21126750000000527,
            "durationTicks": 192,
            "midi": 58,
            "name": "A#3",
            "ticks": 58176,
            "time": 64.0140525,
            "velocity": 0.3937007874015748
          },
          {
            "duration": 0.21126750000000527,
            "durationTicks": 192,
            "midi": 52,
            "name": "E3",
            "ticks": 58176,
            "time": 64.0140525,
            "velocity": 0.3937007874015748
          },
          {
            "duration": 0.10563374999999553,
            "durationTicks": 96,
            "midi": 70,
            "name": "A#4",
            "ticks": 58176,
            "time": 64.0140525,
            "velocity": 0.3937007874015748
          },
          {
            "duration": 0.10563374999999553,
            "durationTicks": 96,
            "midi": 82,
            "name": "A#5",
            "ticks": 58176,
            "time": 64.0140525,
            "velocity": 0.3937007874015748
          },
          {
            "duration": 0.21126750000000527,
            "durationTicks": 192,
            "midi": 60,
            "name": "C4",
            "ticks": 58176,
            "time": 64.0140525,
            "velocity": 0.3937007874015748
          },
          {
            "duration": 0.21126749999999106,
            "durationTicks": 192,
            "midi": 43,
            "name": "G2",
            "ticks": 58368,
            "time": 64.22532000000001,
            "velocity": 0.3937007874015748
          },
          {
            "duration": 0.42253499999999633,
            "durationTicks": 384,
            "midi": 72,
            "name": "C5",
            "ticks": 58368,
            "time": 64.22532000000001,
            "velocity": 0.3937007874015748
          },
          {
            "duration": 0.42253499999999633,
            "durationTicks": 384,
            "midi": 84,
            "name": "C6",
            "ticks": 58368,
            "time": 64.22532000000001,
            "velocity": 0.3937007874015748
          },
          {
            "duration": 0.21126749999999106,
            "durationTicks": 192,
            "midi": 31,
            "name": "G1",
            "ticks": 58368,
            "time": 64.22532000000001,
            "velocity": 0.3937007874015748
          },
          {
            "duration": 0.21126750000000527,
            "durationTicks": 192,
            "midi": 60,
            "name": "C4",
            "ticks": 58560,
            "time": 64.4365875,
            "velocity": 0.3937007874015748
          },
          {
            "duration": 0.21126750000000527,
            "durationTicks": 192,
            "midi": 52,
            "name": "E3",
            "ticks": 58560,
            "time": 64.4365875,
            "velocity": 0.3937007874015748
          },
          {
            "duration": 0.21126750000000527,
            "durationTicks": 192,
            "midi": 58,
            "name": "A#3",
            "ticks": 58560,
            "time": 64.4365875,
            "velocity": 0.3937007874015748
          },
          {
            "duration": 0.21126750000000527,
            "durationTicks": 192,
            "midi": 76,
            "name": "E5",
            "ticks": 58752,
            "time": 64.647855,
            "velocity": 0.3937007874015748
          },
          {
            "duration": 0.10563374999999553,
            "durationTicks": 96,
            "midi": 84,
            "name": "C6",
            "ticks": 58752,
            "time": 64.647855,
            "velocity": 0.3937007874015748
          },
          {
            "duration": 0.21126750000000527,
            "durationTicks": 192,
            "midi": 55,
            "name": "G3",
            "ticks": 58752,
            "time": 64.647855,
            "velocity": 0.3937007874015748
          },
          {
            "duration": 0.21126750000000527,
            "durationTicks": 192,
            "midi": 43,
            "name": "G2",
            "ticks": 58752,
            "time": 64.647855,
            "velocity": 0.3937007874015748
          },
          {
            "duration": 0.10563375000000974,
            "durationTicks": 96,
            "midi": 85,
            "name": "C#6",
            "ticks": 58848,
            "time": 64.75348875,
            "velocity": 0.3937007874015748
          },
          {
            "duration": 0.21126749999999106,
            "durationTicks": 192,
            "midi": 60,
            "name": "C4",
            "ticks": 58944,
            "time": 64.85912250000001,
            "velocity": 0.3937007874015748
          },
          {
            "duration": 0.21126749999999106,
            "durationTicks": 192,
            "midi": 58,
            "name": "A#3",
            "ticks": 58944,
            "time": 64.85912250000001,
            "velocity": 0.3937007874015748
          },
          {
            "duration": 0.21126749999999106,
            "durationTicks": 192,
            "midi": 52,
            "name": "E3",
            "ticks": 58944,
            "time": 64.85912250000001,
            "velocity": 0.3937007874015748
          },
          {
            "duration": 0.10563374999999553,
            "durationTicks": 96,
            "midi": 84,
            "name": "C6",
            "ticks": 58944,
            "time": 64.85912250000001,
            "velocity": 0.3937007874015748
          },
          {
            "duration": 0.10563374999999553,
            "durationTicks": 96,
            "midi": 82,
            "name": "A#5",
            "ticks": 59040,
            "time": 64.96475625000001,
            "velocity": 0.3937007874015748
          },
          {
            "duration": 0.21126750000000527,
            "durationTicks": 192,
            "midi": 48,
            "name": "C3",
            "ticks": 59136,
            "time": 65.07039,
            "velocity": 0.3937007874015748
          },
          {
            "duration": 0.21126750000000527,
            "durationTicks": 192,
            "midi": 36,
            "name": "C2",
            "ticks": 59136,
            "time": 65.07039,
            "velocity": 0.3937007874015748
          },
          {
            "duration": 0.10563375000000974,
            "durationTicks": 96,
            "midi": 79,
            "name": "G5",
            "ticks": 59136,
            "time": 65.07039,
            "velocity": 0.3937007874015748
          },
          {
            "duration": 0.10563375000000974,
            "durationTicks": 96,
            "midi": 84,
            "name": "C6",
            "ticks": 59136,
            "time": 65.07039,
            "velocity": 0.3937007874015748
          },
          {
            "duration": 0.10563374999999553,
            "durationTicks": 96,
            "midi": 82,
            "name": "A#5",
            "ticks": 59232,
            "time": 65.17602375000001,
            "velocity": 0.3937007874015748
          },
          {
            "duration": 0.21126750000000527,
            "durationTicks": 192,
            "midi": 52,
            "name": "E3",
            "ticks": 59328,
            "time": 65.28165750000001,
            "velocity": 0.3937007874015748
          },
          {
            "duration": 0.21126750000000527,
            "durationTicks": 192,
            "midi": 58,
            "name": "A#3",
            "ticks": 59328,
            "time": 65.28165750000001,
            "velocity": 0.3937007874015748
          },
          {
            "duration": 0.21126750000000527,
            "durationTicks": 192,
            "midi": 60,
            "name": "C4",
            "ticks": 59328,
            "time": 65.28165750000001,
            "velocity": 0.3937007874015748
          },
          {
            "duration": 0.10563374999999553,
            "durationTicks": 96,
            "midi": 80,
            "name": "G#5",
            "ticks": 59328,
            "time": 65.28165750000001,
            "velocity": 0.3937007874015748
          },
          {
            "duration": 0.10563375000000974,
            "durationTicks": 96,
            "midi": 79,
            "name": "G5",
            "ticks": 59424,
            "time": 65.38729125,
            "velocity": 0.3937007874015748
          },
          {
            "duration": 0.21126749999999106,
            "durationTicks": 192,
            "midi": 41,
            "name": "F2",
            "ticks": 59520,
            "time": 65.49292500000001,
            "velocity": 0.3937007874015748
          },
          {
            "duration": 0.21126749999999106,
            "durationTicks": 192,
            "midi": 72,
            "name": "C5",
            "ticks": 59520,
            "time": 65.49292500000001,
            "velocity": 0.3937007874015748
          },
          {
            "duration": 0.21126749999999106,
            "durationTicks": 192,
            "midi": 77,
            "name": "F5",
            "ticks": 59520,
            "time": 65.49292500000001,
            "velocity": 0.3937007874015748
          },
          {
            "duration": 0.21126749999999106,
            "durationTicks": 192,
            "midi": 53,
            "name": "F3",
            "ticks": 59520,
            "time": 65.49292500000001,
            "velocity": 0.3937007874015748
          },
          {
            "duration": 0.21126750000000527,
            "durationTicks": 192,
            "midi": 84,
            "name": "C6",
            "ticks": 60288,
            "time": 66.337995,
            "velocity": 0.3937007874015748
          },
          {
            "duration": 0.21126750000000527,
            "durationTicks": 192,
            "midi": 36,
            "name": "C2",
            "ticks": 60288,
            "time": 66.337995,
            "velocity": 0.3937007874015748
          },
          {
            "duration": 0.21126750000000527,
            "durationTicks": 192,
            "midi": 76,
            "name": "E5",
            "ticks": 60288,
            "time": 66.337995,
            "velocity": 0.3937007874015748
          },
          {
            "duration": 0.21126750000000527,
            "durationTicks": 192,
            "midi": 72,
            "name": "C5",
            "ticks": 60288,
            "time": 66.337995,
            "velocity": 0.3937007874015748
          },
          {
            "duration": 0.21126750000000527,
            "durationTicks": 192,
            "midi": 48,
            "name": "C3",
            "ticks": 60288,
            "time": 66.337995,
            "velocity": 0.3937007874015748
          },
          {
            "duration": 0.21126749999999106,
            "durationTicks": 192,
            "midi": 73,
            "name": "C#5",
            "ticks": 60480,
            "time": 66.54926250000001,
            "velocity": 0.3937007874015748
          },
          {
            "duration": 0.21126749999999106,
            "durationTicks": 192,
            "midi": 48,
            "name": "C3",
            "ticks": 60480,
            "time": 66.54926250000001,
            "velocity": 0.3937007874015748
          },
          {
            "duration": 0.21126749999999106,
            "durationTicks": 192,
            "midi": 70,
            "name": "A#4",
            "ticks": 60480,
            "time": 66.54926250000001,
            "velocity": 0.3937007874015748
          },
          {
            "duration": 0.21126749999999106,
            "durationTicks": 192,
            "midi": 82,
            "name": "A#5",
            "ticks": 60480,
            "time": 66.54926250000001,
            "velocity": 0.3937007874015748
          },
          {
            "duration": 0.21126749999999106,
            "durationTicks": 192,
            "midi": 36,
            "name": "C2",
            "ticks": 60480,
            "time": 66.54926250000001,
            "velocity": 0.3937007874015748
          },
          {
            "duration": 0.21126750000000527,
            "durationTicks": 192,
            "midi": 50,
            "name": "D3",
            "ticks": 60672,
            "time": 66.76053,
            "velocity": 0.3937007874015748
          },
          {
            "duration": 0.21126750000000527,
            "durationTicks": 192,
            "midi": 72,
            "name": "C5",
            "ticks": 60672,
            "time": 66.76053,
            "velocity": 0.3937007874015748
          },
          {
            "duration": 0.21126750000000527,
            "durationTicks": 192,
            "midi": 38,
            "name": "D2",
            "ticks": 60672,
            "time": 66.76053,
            "velocity": 0.3937007874015748
          },
          {
            "duration": 0.21126750000000527,
            "durationTicks": 192,
            "midi": 68,
            "name": "G#4",
            "ticks": 60672,
            "time": 66.76053,
            "velocity": 0.3937007874015748
          },
          {
            "duration": 0.21126750000000527,
            "durationTicks": 192,
            "midi": 80,
            "name": "G#5",
            "ticks": 60672,
            "time": 66.76053,
            "velocity": 0.3937007874015748
          },
          {
            "duration": 0.21126750000000527,
            "durationTicks": 192,
            "midi": 70,
            "name": "A#4",
            "ticks": 60864,
            "time": 66.97179750000001,
            "velocity": 0.3937007874015748
          },
          {
            "duration": 0.21126750000000527,
            "durationTicks": 192,
            "midi": 67,
            "name": "G4",
            "ticks": 60864,
            "time": 66.97179750000001,
            "velocity": 0.3937007874015748
          },
          {
            "duration": 0.21126750000000527,
            "durationTicks": 192,
            "midi": 52,
            "name": "E3",
            "ticks": 60864,
            "time": 66.97179750000001,
            "velocity": 0.3937007874015748
          },
          {
            "duration": 0.21126750000000527,
            "durationTicks": 192,
            "midi": 79,
            "name": "G5",
            "ticks": 60864,
            "time": 66.97179750000001,
            "velocity": 0.3937007874015748
          },
          {
            "duration": 0.21126750000000527,
            "durationTicks": 192,
            "midi": 40,
            "name": "E2",
            "ticks": 60864,
            "time": 66.97179750000001,
            "velocity": 0.3937007874015748
          },
          {
            "duration": 0.21126749999999106,
            "durationTicks": 192,
            "midi": 77,
            "name": "F5",
            "ticks": 61056,
            "time": 67.18306500000001,
            "velocity": 0.3937007874015748
          },
          {
            "duration": 0.21126749999999106,
            "durationTicks": 192,
            "midi": 41,
            "name": "F2",
            "ticks": 61056,
            "time": 67.18306500000001,
            "velocity": 0.3937007874015748
          },
          {
            "duration": 0.21126749999999106,
            "durationTicks": 192,
            "midi": 65,
            "name": "F4",
            "ticks": 61056,
            "time": 67.18306500000001,
            "velocity": 0.3937007874015748
          },
          {
            "duration": 0.21126749999999106,
            "durationTicks": 192,
            "midi": 53,
            "name": "F3",
            "ticks": 61056,
            "time": 67.18306500000001,
            "velocity": 0.3937007874015748
          },
          {
            "duration": 0.21126749999999106,
            "durationTicks": 192,
            "midi": 68,
            "name": "G#4",
            "ticks": 61056,
            "time": 67.18306500000001,
            "velocity": 0.3937007874015748
          }
        ],
        "endOfTrackTicks": 61248
      },
      {
        "channel": 1,
        "controlChanges": {},
        "pitchBends": [],
        "instrument": {
          "family": "brass",
          "number": 57,
          "name": "trombone"
        },
        "name": "Trombone",
        "notes": [
          {
            "duration": 0.21126750000000002,
            "durationTicks": 192,
            "midi": 64,
            "name": "E4",
            "ticks": 0,
            "time": 0,
            "velocity": 0.3937007874015748
          },
          {
            "duration": 0.21126750000000002,
            "durationTicks": 192,
            "midi": 48,
            "name": "C3",
            "ticks": 0,
            "time": 0,
            "velocity": 0.3937007874015748
          },
          {
            "duration": 0.21126750000000002,
            "durationTicks": 192,
            "midi": 72,
            "name": "C5",
            "ticks": 0,
            "time": 0,
            "velocity": 0.3937007874015748
          },
          {
            "duration": 0.21126750000000002,
            "durationTicks": 192,
            "midi": 36,
            "name": "C2",
            "ticks": 0,
            "time": 0,
            "velocity": 0.3937007874015748
          },
          {
            "duration": 0.21126750000000002,
            "durationTicks": 192,
            "midi": 70,
            "name": "A#4",
            "ticks": 0,
            "time": 0,
            "velocity": 0.3937007874015748
          },
          {
            "duration": 0.10563375000000003,
            "durationTicks": 96,
            "midi": 75,
            "name": "D#5",
            "ticks": 288,
            "time": 0.31690125,
            "velocity": 0.3937007874015748
          },
          {
            "duration": 0.10563374999999997,
            "durationTicks": 96,
            "midi": 76,
            "name": "E5",
            "ticks": 336,
            "time": 0.36971812500000006,
            "velocity": 0.3937007874015748
          },
          {
            "duration": 0.2112675,
            "durationTicks": 192,
            "midi": 65,
            "name": "F4",
            "ticks": 384,
            "time": 0.42253500000000005,
            "velocity": 0.3937007874015748
          },
          {
            "duration": 0.2112675,
            "durationTicks": 192,
            "midi": 53,
            "name": "F3",
            "ticks": 384,
            "time": 0.42253500000000005,
            "velocity": 0.3937007874015748
          },
          {
            "duration": 0.2112675,
            "durationTicks": 192,
            "midi": 41,
            "name": "F2",
            "ticks": 384,
            "time": 0.42253500000000005,
            "velocity": 0.3937007874015748
          },
          {
            "duration": 0.2112675,
            "durationTicks": 192,
            "midi": 77,
            "name": "F5",
            "ticks": 384,
            "time": 0.42253500000000005,
            "velocity": 0.3937007874015748
          },
          {
            "duration": 0.2112675,
            "durationTicks": 192,
            "midi": 72,
            "name": "C5",
            "ticks": 384,
            "time": 0.42253500000000005,
            "velocity": 0.3937007874015748
          },
          {
            "duration": 0.21126750000000005,
            "durationTicks": 192,
            "midi": 65,
            "name": "F4",
            "ticks": 576,
            "time": 0.6338025,
            "velocity": 0.3937007874015748
          },
          {
            "duration": 0.21126750000000005,
            "durationTicks": 192,
            "midi": 48,
            "name": "C3",
            "ticks": 576,
            "time": 0.6338025,
            "velocity": 0.3937007874015748
          },
          {
            "duration": 0.21126750000000005,
            "durationTicks": 192,
            "midi": 53,
            "name": "F3",
            "ticks": 576,
            "time": 0.6338025,
            "velocity": 0.3937007874015748
          },
          {
            "duration": 0.21126750000000005,
            "durationTicks": 192,
            "midi": 72,
            "name": "C5",
            "ticks": 576,
            "time": 0.6338025,
            "velocity": 0.3937007874015748
          },
          {
            "duration": 0.21126750000000005,
            "durationTicks": 192,
            "midi": 77,
            "name": "F5",
            "ticks": 576,
            "time": 0.6338025,
            "velocity": 0.3937007874015748
          },
          {
            "duration": 0.21126750000000005,
            "durationTicks": 192,
            "midi": 56,
            "name": "G#3",
            "ticks": 576,
            "time": 0.6338025,
            "velocity": 0.3937007874015748
          },
          {
            "duration": 0.10563374999999997,
            "durationTicks": 96,
            "midi": 72,
            "name": "C5",
            "ticks": 768,
            "time": 0.8450700000000001,
            "velocity": 0.3937007874015748
          },
          {
            "duration": 0.21126750000000005,
            "durationTicks": 192,
            "midi": 36,
            "name": "C2",
            "ticks": 768,
            "time": 0.8450700000000001,
            "velocity": 0.3937007874015748
          },
          {
            "duration": 0.21126750000000005,
            "durationTicks": 192,
            "midi": 48,
            "name": "C3",
            "ticks": 768,
            "time": 0.8450700000000001,
            "velocity": 0.3937007874015748
          },
          {
            "duration": 0.10563375000000008,
            "durationTicks": 96,
            "midi": 74,
            "name": "D5",
            "ticks": 864,
            "time": 0.9507037500000001,
            "velocity": 0.3937007874015748
          },
          {
            "duration": 0.10563374999999997,
            "durationTicks": 96,
            "midi": 75,
            "name": "D#5",
            "ticks": 960,
            "time": 1.0563375000000002,
            "velocity": 0.3937007874015748
          },
          {
            "duration": 0.21126749999999994,
            "durationTicks": 192,
            "midi": 48,
            "name": "C3",
            "ticks": 960,
            "time": 1.0563375000000002,
            "velocity": 0.3937007874015748
          },
          {
            "duration": 0.21126749999999994,
            "durationTicks": 192,
            "midi": 56,
            "name": "G#3",
            "ticks": 960,
            "time": 1.0563375000000002,
            "velocity": 0.3937007874015748
          },
          {
            "duration": 0.21126749999999994,
            "durationTicks": 192,
            "midi": 53,
            "name": "F3",
            "ticks": 960,
            "time": 1.0563375000000002,
            "velocity": 0.3937007874015748
          },
          {
            "duration": 0.10563374999999997,
            "durationTicks": 96,
            "midi": 76,
            "name": "E5",
            "ticks": 1056,
            "time": 1.1619712500000001,
            "velocity": 0.3937007874015748
          },
          {
            "duration": 0.21126750000000016,
            "durationTicks": 192,
            "midi": 41,
            "name": "F2",
            "ticks": 1152,
            "time": 1.267605,
            "velocity": 0.3937007874015748
          },
          {
            "duration": 0.21126750000000016,
            "durationTicks": 192,
            "midi": 53,
            "name": "F3",
            "ticks": 1152,
            "time": 1.267605,
            "velocity": 0.3937007874015748
          },
          {
            "duration": 0.21126750000000016,
            "durationTicks": 192,
            "midi": 77,
            "name": "F5",
            "ticks": 1152,
            "time": 1.267605,
            "velocity": 0.3937007874015748
          },
          {
            "duration": 0.21126750000000016,
            "durationTicks": 192,
            "midi": 65,
            "name": "F4",
            "ticks": 1152,
            "time": 1.267605,
            "velocity": 0.3937007874015748
          },
          {
            "duration": 0.21126750000000016,
            "durationTicks": 192,
            "midi": 72,
            "name": "C5",
            "ticks": 1152,
            "time": 1.267605,
            "velocity": 0.3937007874015748
          },
          {
            "duration": 0.21126749999999994,
            "durationTicks": 192,
            "midi": 65,
            "name": "F4",
            "ticks": 1344,
            "time": 1.4788725000000003,
            "velocity": 0.3937007874015748
          },
          {
            "duration": 0.21126749999999994,
            "durationTicks": 192,
            "midi": 72,
            "name": "C5",
            "ticks": 1344,
            "time": 1.4788725000000003,
            "velocity": 0.3937007874015748
          },
          {
            "duration": 0.21126749999999994,
            "durationTicks": 192,
            "midi": 53,
            "name": "F3",
            "ticks": 1344,
            "time": 1.4788725000000003,
            "velocity": 0.3937007874015748
          },
          {
            "duration": 0.21126749999999994,
            "durationTicks": 192,
            "midi": 48,
            "name": "C3",
            "ticks": 1344,
            "time": 1.4788725000000003,
            "velocity": 0.3937007874015748
          },
          {
            "duration": 0.21126749999999994,
            "durationTicks": 192,
            "midi": 56,
            "name": "G#3",
            "ticks": 1344,
            "time": 1.4788725000000003,
            "velocity": 0.3937007874015748
          },
          {
            "duration": 0.21126749999999994,
            "durationTicks": 192,
            "midi": 77,
            "name": "F5",
            "ticks": 1344,
            "time": 1.4788725000000003,
            "velocity": 0.3937007874015748
          },
          {
            "duration": 0.21126749999999994,
            "durationTicks": 192,
            "midi": 36,
            "name": "C2",
            "ticks": 1536,
            "time": 1.6901400000000002,
            "velocity": 0.3937007874015748
          },
          {
            "duration": 0.21126749999999994,
            "durationTicks": 192,
            "midi": 72,
            "name": "C5",
            "ticks": 1536,
            "time": 1.6901400000000002,
            "velocity": 0.3937007874015748
          },
          {
            "duration": 0.21126749999999994,
            "durationTicks": 192,
            "midi": 77,
            "name": "F5",
            "ticks": 1536,
            "time": 1.6901400000000002,
            "velocity": 0.3937007874015748
          },
          {
            "duration": 0.21126749999999994,
            "durationTicks": 192,
            "midi": 80,
            "name": "G#5",
            "ticks": 1536,
            "time": 1.6901400000000002,
            "velocity": 0.3937007874015748
          },
          {
            "duration": 0.21126749999999994,
            "durationTicks": 192,
            "midi": 48,
            "name": "C3",
            "ticks": 1536,
            "time": 1.6901400000000002,
            "velocity": 0.3937007874015748
          },
          {
            "duration": 0.10563375000000019,
            "durationTicks": 96,
            "midi": 79,
            "name": "G5",
            "ticks": 1728,
            "time": 1.9014075000000001,
            "velocity": 0.3937007874015748
          },
          {
            "duration": 0.21126750000000016,
            "durationTicks": 192,
            "midi": 56,
            "name": "G#3",
            "ticks": 1728,
            "time": 1.9014075000000001,
            "velocity": 0.3937007874015748
          },
          {
            "duration": 0.21126750000000016,
            "durationTicks": 192,
            "midi": 48,
            "name": "C3",
            "ticks": 1728,
            "time": 1.9014075000000001,
            "velocity": 0.3937007874015748
          },
          {
            "duration": 0.21126750000000016,
            "durationTicks": 192,
            "midi": 53,
            "name": "F3",
            "ticks": 1728,
            "time": 1.9014075000000001,
            "velocity": 0.3937007874015748
          },
          {
            "duration": 0.10563374999999997,
            "durationTicks": 96,
            "midi": 77,
            "name": "F5",
            "ticks": 1824,
            "time": 2.0070412500000003,
            "velocity": 0.3937007874015748
          },
          {
            "duration": 0.21126749999999994,
            "durationTicks": 192,
            "midi": 79,
            "name": "G5",
            "ticks": 1920,
            "time": 2.1126750000000003,
            "velocity": 0.3937007874015748
          },
          {
            "duration": 0.21126749999999994,
            "durationTicks": 192,
            "midi": 55,
            "name": "G3",
            "ticks": 1920,
            "time": 2.1126750000000003,
            "velocity": 0.3937007874015748
          },
          {
            "duration": 0.21126749999999994,
            "durationTicks": 192,
            "midi": 72,
            "name": "C5",
            "ticks": 1920,
            "time": 2.1126750000000003,
            "velocity": 0.3937007874015748
          },
          {
            "duration": 0.21126749999999994,
            "durationTicks": 192,
            "midi": 76,
            "name": "E5",
            "ticks": 1920,
            "time": 2.1126750000000003,
            "velocity": 0.3937007874015748
          },
          {
            "duration": 0.21126749999999994,
            "durationTicks": 192,
            "midi": 43,
            "name": "G2",
            "ticks": 1920,
            "time": 2.1126750000000003,
            "velocity": 0.3937007874015748
          },
          {
            "duration": 0.21126749999999994,
            "durationTicks": 192,
            "midi": 60,
            "name": "C4",
            "ticks": 2112,
            "time": 2.3239425000000002,
            "velocity": 0.3937007874015748
          },
          {
            "duration": 0.21126749999999994,
            "durationTicks": 192,
            "midi": 72,
            "name": "C5",
            "ticks": 2112,
            "time": 2.3239425000000002,
            "velocity": 0.3937007874015748
          },
          {
            "duration": 0.21126749999999994,
            "durationTicks": 192,
            "midi": 55,
            "name": "G3",
            "ticks": 2112,
            "time": 2.3239425000000002,
            "velocity": 0.3937007874015748
          },
          {
            "duration": 0.21126749999999994,
            "durationTicks": 192,
            "midi": 76,
            "name": "E5",
            "ticks": 2112,
            "time": 2.3239425000000002,
            "velocity": 0.3937007874015748
          },
          {
            "duration": 0.21126749999999994,
            "durationTicks": 192,
            "midi": 79,
            "name": "G5",
            "ticks": 2112,
            "time": 2.3239425000000002,
            "velocity": 0.3937007874015748
          },
          {
            "duration": 0.21126749999999994,
            "durationTicks": 192,
            "midi": 58,
            "name": "A#3",
            "ticks": 2112,
            "time": 2.3239425000000002,
            "velocity": 0.3937007874015748
          },
          {
            "duration": 0.10563374999999997,
            "durationTicks": 96,
            "midi": 80,
            "name": "G#5",
            "ticks": 2304,
            "time": 2.53521,
            "velocity": 0.3937007874015748
          },
          {
            "duration": 0.21126749999999994,
            "durationTicks": 192,
            "midi": 48,
            "name": "C3",
            "ticks": 2304,
            "time": 2.53521,
            "velocity": 0.3937007874015748
          },
          {
            "duration": 0.21126749999999994,
            "durationTicks": 192,
            "midi": 36,
            "name": "C2",
            "ticks": 2304,
            "time": 2.53521,
            "velocity": 0.3937007874015748
          },
          {
            "duration": 0.10563374999999997,
            "durationTicks": 96,
            "midi": 81,
            "name": "A5",
            "ticks": 2376,
            "time": 2.6144353125000004,
            "velocity": 0.3937007874015748
          },
          {
            "duration": 0.10563374999999997,
            "durationTicks": 96,
            "midi": 80,
            "name": "G#5",
            "ticks": 2448,
            "time": 2.693660625,
            "velocity": 0.3937007874015748
          },
          {
            "duration": 0.21126750000000039,
            "durationTicks": 192,
            "midi": 60,
            "name": "C4",
            "ticks": 2496,
            "time": 2.7464775,
            "velocity": 0.3937007874015748
          },
          {
            "duration": 0.21126750000000039,
            "durationTicks": 192,
            "midi": 58,
            "name": "A#3",
            "ticks": 2496,
            "time": 2.7464775,
            "velocity": 0.3937007874015748
          },
          {
            "duration": 0.21126750000000039,
            "durationTicks": 192,
            "midi": 77,
            "name": "F5",
            "ticks": 2496,
            "time": 2.7464775,
            "velocity": 0.3937007874015748
          },
          {
            "duration": 0.21126750000000039,
            "durationTicks": 192,
            "midi": 55,
            "name": "G3",
            "ticks": 2496,
            "time": 2.7464775,
            "velocity": 0.3937007874015748
          },
          {
            "duration": 0.21126749999999994,
            "durationTicks": 192,
            "midi": 43,
            "name": "G2",
            "ticks": 2688,
            "time": 2.9577450000000005,
            "velocity": 0.3937007874015748
          },
          {
            "duration": 0.21126749999999994,
            "durationTicks": 192,
            "midi": 55,
            "name": "G3",
            "ticks": 2688,
            "time": 2.9577450000000005,
            "velocity": 0.3937007874015748
          },
          {
            "duration": 0.4225349999999999,
            "durationTicks": 384,
            "midi": 79,
            "name": "G5",
            "ticks": 2688,
            "time": 2.9577450000000005,
            "velocity": 0.3937007874015748
          },
          {
            "duration": 0.4225349999999999,
            "durationTicks": 384,
            "midi": 76,
            "name": "E5",
            "ticks": 2688,
            "time": 2.9577450000000005,
            "velocity": 0.3937007874015748
          },
          {
            "duration": 0.4225349999999999,
            "durationTicks": 384,
            "midi": 72,
            "name": "C5",
            "ticks": 2688,
            "time": 2.9577450000000005,
            "velocity": 0.3937007874015748
          },
          {
            "duration": 0.4225349999999999,
            "durationTicks": 384,
            "midi": 67,
            "name": "G4",
            "ticks": 2688,
            "time": 2.9577450000000005,
            "velocity": 0.3937007874015748
          },
          {
            "duration": 0.21126749999999994,
            "durationTicks": 192,
            "midi": 60,
            "name": "C4",
            "ticks": 2880,
            "time": 3.1690125000000005,
            "velocity": 0.3937007874015748
          },
          {
            "duration": 0.21126749999999994,
            "durationTicks": 192,
            "midi": 55,
            "name": "G3",
            "ticks": 2880,
            "time": 3.1690125000000005,
            "velocity": 0.3937007874015748
          },
          {
            "duration": 0.21126749999999994,
            "durationTicks": 192,
            "midi": 58,
            "name": "A#3",
            "ticks": 2880,
            "time": 3.1690125000000005,
            "velocity": 0.3937007874015748
          },
          {
            "duration": 0.21126749999999994,
            "durationTicks": 192,
            "midi": 52,
            "name": "E3",
            "ticks": 3072,
            "time": 3.3802800000000004,
            "velocity": 0.3937007874015748
          },
          {
            "duration": 0.21126749999999994,
            "durationTicks": 192,
            "midi": 40,
            "name": "E2",
            "ticks": 3072,
            "time": 3.3802800000000004,
            "velocity": 0.3937007874015748
          },
          {
            "duration": 0.21126749999999994,
            "durationTicks": 192,
            "midi": 60,
            "name": "C4",
            "ticks": 3264,
            "time": 3.5915475000000003,
            "velocity": 0.3937007874015748
          },
          {
            "duration": 0.21126749999999994,
            "durationTicks": 192,
            "midi": 58,
            "name": "A#3",
            "ticks": 3264,
            "time": 3.5915475000000003,
            "velocity": 0.3937007874015748
          },
          {
            "duration": 0.21126749999999994,
            "durationTicks": 192,
            "midi": 55,
            "name": "G3",
            "ticks": 3264,
            "time": 3.5915475000000003,
            "velocity": 0.3937007874015748
          },
          {
            "duration": 0.21126750000000039,
            "durationTicks": 192,
            "midi": 55,
            "name": "G3",
            "ticks": 3456,
            "time": 3.8028150000000003,
            "velocity": 0.3937007874015748
          },
          {
            "duration": 0.21126750000000039,
            "durationTicks": 192,
            "midi": 43,
            "name": "G2",
            "ticks": 3456,
            "time": 3.8028150000000003,
            "velocity": 0.3937007874015748
          },
          {
            "duration": 0.21126750000000039,
            "durationTicks": 192,
            "midi": 79,
            "name": "G5",
            "ticks": 3456,
            "time": 3.8028150000000003,
            "velocity": 0.3937007874015748
          },
          {
            "duration": 0.21126750000000039,
            "durationTicks": 192,
            "midi": 76,
            "name": "E5",
            "ticks": 3456,
            "time": 3.8028150000000003,
            "velocity": 0.3937007874015748
          },
          {
            "duration": 0.21126750000000039,
            "durationTicks": 192,
            "midi": 82,
            "name": "A#5",
            "ticks": 3456,
            "time": 3.8028150000000003,
            "velocity": 0.3937007874015748
          },
          {
            "duration": 0.21126749999999994,
            "durationTicks": 192,
            "midi": 58,
            "name": "A#3",
            "ticks": 3648,
            "time": 4.014082500000001,
            "velocity": 0.3937007874015748
          },
          {
            "duration": 0.21126749999999994,
            "durationTicks": 192,
            "midi": 60,
            "name": "C4",
            "ticks": 3648,
            "time": 4.014082500000001,
            "velocity": 0.3937007874015748
          },
          {
            "duration": 0.21126749999999994,
            "durationTicks": 192,
            "midi": 76,
            "name": "E5",
            "ticks": 3648,
            "time": 4.014082500000001,
            "velocity": 0.3937007874015748
          },
          {
            "duration": 0.21126749999999994,
            "durationTicks": 192,
            "midi": 55,
            "name": "G3",
            "ticks": 3648,
            "time": 4.014082500000001,
            "velocity": 0.3937007874015748
          },
          {
            "duration": 0.21126749999999994,
            "durationTicks": 192,
            "midi": 82,
            "name": "A#5",
            "ticks": 3648,
            "time": 4.014082500000001,
            "velocity": 0.3937007874015748
          },
          {
            "duration": 0.21126749999999994,
            "durationTicks": 192,
            "midi": 79,
            "name": "G5",
            "ticks": 3648,
            "time": 4.014082500000001,
            "velocity": 0.3937007874015748
          },
          {
            "duration": 0.21126749999999994,
            "durationTicks": 192,
            "midi": 48,
            "name": "C3",
            "ticks": 3840,
            "time": 4.225350000000001,
            "velocity": 0.3937007874015748
          },
          {
            "duration": 0.10563374999999997,
            "durationTicks": 96,
            "midi": 85,
            "name": "C#6",
            "ticks": 3840,
            "time": 4.225350000000001,
            "velocity": 0.3937007874015748
          },
          {
            "duration": 0.21126749999999994,
            "durationTicks": 192,
            "midi": 36,
            "name": "C2",
            "ticks": 3840,
            "time": 4.225350000000001,
            "velocity": 0.3937007874015748
          },
          {
            "duration": 0.10563374999999997,
            "durationTicks": 96,
            "midi": 87,
            "name": "D#6",
            "ticks": 3912,
            "time": 4.304575312500001,
            "velocity": 0.3937007874015748
          },
          {
            "duration": 0.10563374999999997,
            "durationTicks": 96,
            "midi": 85,
            "name": "C#6",
            "ticks": 3984,
            "time": 4.383800625,
            "velocity": 0.3937007874015748
          },
          {
            "duration": 0.21126749999999994,
            "durationTicks": 192,
            "midi": 55,
            "name": "G3",
            "ticks": 4032,
            "time": 4.4366175000000005,
            "velocity": 0.3937007874015748
          },
          {
            "duration": 0.21126749999999994,
            "durationTicks": 192,
            "midi": 58,
            "name": "A#3",
            "ticks": 4032,
            "time": 4.4366175000000005,
            "velocity": 0.3937007874015748
          },
          {
            "duration": 0.21126749999999994,
            "durationTicks": 192,
            "midi": 60,
            "name": "C4",
            "ticks": 4032,
            "time": 4.4366175000000005,
            "velocity": 0.3937007874015748
          },
          {
            "duration": 0.10563374999999997,
            "durationTicks": 96,
            "midi": 84,
            "name": "C6",
            "ticks": 4056,
            "time": 4.4630259375,
            "velocity": 0.3937007874015748
          },
          {
            "duration": 0.10563374999999997,
            "durationTicks": 96,
            "midi": 82,
            "name": "A#5",
            "ticks": 4128,
            "time": 4.5422512500000005,
            "velocity": 0.3937007874015748
          },
          {
            "duration": 0.21126749999999994,
            "durationTicks": 192,
            "midi": 43,
            "name": "G2",
            "ticks": 4224,
            "time": 4.6478850000000005,
            "velocity": 0.3937007874015748
          },
          {
            "duration": 0.21126749999999994,
            "durationTicks": 192,
            "midi": 55,
            "name": "G3",
            "ticks": 4224,
            "time": 4.6478850000000005,
            "velocity": 0.3937007874015748
          },
          {
            "duration": 0.21126749999999994,
            "durationTicks": 192,
            "midi": 84,
            "name": "C6",
            "ticks": 4224,
            "time": 4.6478850000000005,
            "velocity": 0.3937007874015748
          },
          {
            "duration": 0.21126749999999994,
            "durationTicks": 192,
            "midi": 79,
            "name": "G5",
            "ticks": 4224,
            "time": 4.6478850000000005,
            "velocity": 0.3937007874015748
          },
          {
            "duration": 0.21126749999999994,
            "durationTicks": 192,
            "midi": 76,
            "name": "E5",
            "ticks": 4224,
            "time": 4.6478850000000005,
            "velocity": 0.3937007874015748
          },
          {
            "duration": 0.21126749999999994,
            "durationTicks": 192,
            "midi": 79,
            "name": "G5",
            "ticks": 4416,
            "time": 4.8591525,
            "velocity": 0.3937007874015748
          },
          {
            "duration": 0.21126749999999994,
            "durationTicks": 192,
            "midi": 60,
            "name": "C4",
            "ticks": 4416,
            "time": 4.8591525,
            "velocity": 0.3937007874015748
          },
          {
            "duration": 0.21126749999999994,
            "durationTicks": 192,
            "midi": 55,
            "name": "G3",
            "ticks": 4416,
            "time": 4.8591525,
            "velocity": 0.3937007874015748
          },
          {
            "duration": 0.21126749999999994,
            "durationTicks": 192,
            "midi": 76,
            "name": "E5",
            "ticks": 4416,
            "time": 4.8591525,
            "velocity": 0.3937007874015748
          },
          {
            "duration": 0.21126749999999994,
            "durationTicks": 192,
            "midi": 84,
            "name": "C6",
            "ticks": 4416,
            "time": 4.8591525,
            "velocity": 0.3937007874015748
          },
          {
            "duration": 0.21126749999999994,
            "durationTicks": 192,
            "midi": 58,
            "name": "A#3",
            "ticks": 4416,
            "time": 4.8591525,
            "velocity": 0.3937007874015748
          },
          {
            "duration": 0.21126749999999994,
            "durationTicks": 192,
            "midi": 48,
            "name": "C3",
            "ticks": 4608,
            "time": 5.07042,
            "velocity": 0.3937007874015748
          },
          {
            "duration": 0.21126749999999994,
            "durationTicks": 192,
            "midi": 36,
            "name": "C2",
            "ticks": 4608,
            "time": 5.07042,
            "velocity": 0.3937007874015748
          },
          {
            "duration": 0.10563374999999997,
            "durationTicks": 96,
            "midi": 85,
            "name": "C#6",
            "ticks": 4608,
            "time": 5.07042,
            "velocity": 0.3937007874015748
          },
          {
            "duration": 0.10563374999999997,
            "durationTicks": 96,
            "midi": 87,
            "name": "D#6",
            "ticks": 4680,
            "time": 5.149645312500001,
            "velocity": 0.3937007874015748
          },
          {
            "duration": 0.10563374999999997,
            "durationTicks": 96,
            "midi": 85,
            "name": "C#6",
            "ticks": 4752,
            "time": 5.228870625000001,
            "velocity": 0.3937007874015748
          },
          {
            "duration": 0.21126749999999994,
            "durationTicks": 192,
            "midi": 60,
            "name": "C4",
            "ticks": 4800,
            "time": 5.2816875,
            "velocity": 0.3937007874015748
          },
          {
            "duration": 0.21126749999999994,
            "durationTicks": 192,
            "midi": 58,
            "name": "A#3",
            "ticks": 4800,
            "time": 5.2816875,
            "velocity": 0.3937007874015748
          },
          {
            "duration": 0.21126749999999994,
            "durationTicks": 192,
            "midi": 55,
            "name": "G3",
            "ticks": 4800,
            "time": 5.2816875,
            "velocity": 0.3937007874015748
          },
          {
            "duration": 0.10563374999999997,
            "durationTicks": 96,
            "midi": 84,
            "name": "C6",
            "ticks": 4824,
            "time": 5.308095937500001,
            "velocity": 0.3937007874015748
          },
          {
            "duration": 0.10563374999999997,
            "durationTicks": 96,
            "midi": 82,
            "name": "A#5",
            "ticks": 4896,
            "time": 5.38732125,
            "velocity": 0.3937007874015748
          },
          {
            "duration": 0.21126750000000083,
            "durationTicks": 192,
            "midi": 80,
            "name": "G#5",
            "ticks": 4992,
            "time": 5.492955,
            "velocity": 0.3937007874015748
          },
          {
            "duration": 0.21126750000000083,
            "durationTicks": 192,
            "midi": 40,
            "name": "E2",
            "ticks": 4992,
            "time": 5.492955,
            "velocity": 0.3937007874015748
          },
          {
            "duration": 0.21126750000000083,
            "durationTicks": 192,
            "midi": 76,
            "name": "E5",
            "ticks": 4992,
            "time": 5.492955,
            "velocity": 0.3937007874015748
          },
          {
            "duration": 0.21126750000000083,
            "durationTicks": 192,
            "midi": 72,
            "name": "C5",
            "ticks": 4992,
            "time": 5.492955,
            "velocity": 0.3937007874015748
          },
          {
            "duration": 0.21126750000000083,
            "durationTicks": 192,
            "midi": 52,
            "name": "E3",
            "ticks": 4992,
            "time": 5.492955,
            "velocity": 0.3937007874015748
          },
          {
            "duration": 0.21126749999999994,
            "durationTicks": 192,
            "midi": 72,
            "name": "C5",
            "ticks": 5184,
            "time": 5.704222500000001,
            "velocity": 0.3937007874015748
          },
          {
            "duration": 0.21126749999999994,
            "durationTicks": 192,
            "midi": 76,
            "name": "E5",
            "ticks": 5184,
            "time": 5.704222500000001,
            "velocity": 0.3937007874015748
          },
          {
            "duration": 0.21126749999999994,
            "durationTicks": 192,
            "midi": 55,
            "name": "G3",
            "ticks": 5184,
            "time": 5.704222500000001,
            "velocity": 0.3937007874015748
          },
          {
            "duration": 0.21126749999999994,
            "durationTicks": 192,
            "midi": 58,
            "name": "A#3",
            "ticks": 5184,
            "time": 5.704222500000001,
            "velocity": 0.3937007874015748
          },
          {
            "duration": 0.21126749999999994,
            "durationTicks": 192,
            "midi": 60,
            "name": "C4",
            "ticks": 5184,
            "time": 5.704222500000001,
            "velocity": 0.3937007874015748
          },
          {
            "duration": 0.21126749999999994,
            "durationTicks": 192,
            "midi": 80,
            "name": "G#5",
            "ticks": 5184,
            "time": 5.704222500000001,
            "velocity": 0.3937007874015748
          },
          {
            "duration": 0.21126749999999994,
            "durationTicks": 192,
            "midi": 43,
            "name": "G2",
            "ticks": 5376,
            "time": 5.915490000000001,
            "velocity": 0.3937007874015748
          },
          {
            "duration": 0.10563374999999997,
            "durationTicks": 96,
            "midi": 82,
            "name": "A#5",
            "ticks": 5376,
            "time": 5.915490000000001,
            "velocity": 0.3937007874015748
          },
          {
            "duration": 0.21126749999999994,
            "durationTicks": 192,
            "midi": 55,
            "name": "G3",
            "ticks": 5376,
            "time": 5.915490000000001,
            "velocity": 0.3937007874015748
          },
          {
            "duration": 0.10563374999999997,
            "durationTicks": 96,
            "midi": 84,
            "name": "C6",
            "ticks": 5472,
            "time": 6.021123750000001,
            "velocity": 0.3937007874015748
          },
          {
            "duration": 0.21126749999999994,
            "durationTicks": 192,
            "midi": 58,
            "name": "A#3",
            "ticks": 5568,
            "time": 6.126757500000001,
            "velocity": 0.3937007874015748
          },
          {
            "duration": 0.21126749999999994,
            "durationTicks": 192,
            "midi": 60,
            "name": "C4",
            "ticks": 5568,
            "time": 6.126757500000001,
            "velocity": 0.3937007874015748
          },
          {
            "duration": 0.21126749999999994,
            "durationTicks": 192,
            "midi": 55,
            "name": "G3",
            "ticks": 5568,
            "time": 6.126757500000001,
            "velocity": 0.3937007874015748
          },
          {
            "duration": 0.10563374999999997,
            "durationTicks": 96,
            "midi": 82,
            "name": "A#5",
            "ticks": 5568,
            "time": 6.126757500000001,
            "velocity": 0.3937007874015748
          },
          {
            "duration": 0.10563374999999997,
            "durationTicks": 96,
            "midi": 79,
            "name": "G5",
            "ticks": 5664,
            "time": 6.232391250000001,
            "velocity": 0.3937007874015748
          },
          {
            "duration": 0.4225349999999999,
            "durationTicks": 384,
            "midi": 72,
            "name": "C5",
            "ticks": 5760,
            "time": 6.338025000000001,
            "velocity": 0.3937007874015748
          },
          {
            "duration": 0.4225349999999999,
            "durationTicks": 384,
            "midi": 68,
            "name": "G#4",
            "ticks": 5760,
            "time": 6.338025000000001,
            "velocity": 0.3937007874015748
          },
          {
            "duration": 0.4225349999999999,
            "durationTicks": 384,
            "midi": 77,
            "name": "F5",
            "ticks": 5760,
            "time": 6.338025000000001,
            "velocity": 0.3937007874015748
          },
          {
            "duration": 0.21126749999999994,
            "durationTicks": 192,
            "midi": 56,
            "name": "G#3",
            "ticks": 5760,
            "time": 6.338025000000001,
            "velocity": 0.3937007874015748
          },
          {
            "duration": 0.21126749999999994,
            "durationTicks": 192,
            "midi": 44,
            "name": "G#2",
            "ticks": 5760,
            "time": 6.338025000000001,
            "velocity": 0.3937007874015748
          },
          {
            "duration": 0.21126749999999994,
            "durationTicks": 192,
            "midi": 56,
            "name": "G#3",
            "ticks": 5952,
            "time": 6.549292500000001,
            "velocity": 0.3937007874015748
          },
          {
            "duration": 0.21126749999999994,
            "durationTicks": 192,
            "midi": 48,
            "name": "C3",
            "ticks": 5952,
            "time": 6.549292500000001,
            "velocity": 0.3937007874015748
          },
          {
            "duration": 0.21126749999999994,
            "durationTicks": 192,
            "midi": 53,
            "name": "F3",
            "ticks": 5952,
            "time": 6.549292500000001,
            "velocity": 0.3937007874015748
          },
          {
            "duration": 0.21126749999999994,
            "durationTicks": 192,
            "midi": 36,
            "name": "C2",
            "ticks": 6144,
            "time": 6.760560000000001,
            "velocity": 0.3937007874015748
          },
          {
            "duration": 0.21126749999999994,
            "durationTicks": 192,
            "midi": 48,
            "name": "C3",
            "ticks": 6144,
            "time": 6.760560000000001,
            "velocity": 0.3937007874015748
          },
          {
            "duration": 0.21126749999999994,
            "durationTicks": 192,
            "midi": 60,
            "name": "C4",
            "ticks": 6144,
            "time": 6.760560000000001,
            "velocity": 0.3937007874015748
          },
          {
            "duration": 0.21126749999999994,
            "durationTicks": 192,
            "midi": 72,
            "name": "C5",
            "ticks": 6144,
            "time": 6.760560000000001,
            "velocity": 0.3937007874015748
          },
          {
            "duration": 0.21126749999999994,
            "durationTicks": 192,
            "midi": 53,
            "name": "F3",
            "ticks": 6336,
            "time": 6.971827500000001,
            "velocity": 0.3937007874015748
          },
          {
            "duration": 0.21126749999999994,
            "durationTicks": 192,
            "midi": 48,
            "name": "C3",
            "ticks": 6336,
            "time": 6.971827500000001,
            "velocity": 0.3937007874015748
          },
          {
            "duration": 0.21126749999999994,
            "durationTicks": 192,
            "midi": 56,
            "name": "G#3",
            "ticks": 6336,
            "time": 6.971827500000001,
            "velocity": 0.3937007874015748
          },
          {
            "duration": 0.10563374999999997,
            "durationTicks": 96,
            "midi": 75,
            "name": "D#5",
            "ticks": 6432,
            "time": 7.077461250000001,
            "velocity": 0.3937007874015748
          },
          {
            "duration": 0.10563374999999997,
            "durationTicks": 96,
            "midi": 76,
            "name": "E5",
            "ticks": 6480,
            "time": 7.130278125000001,
            "velocity": 0.3937007874015748
          },
          {
            "duration": 0.21126749999999994,
            "durationTicks": 192,
            "midi": 77,
            "name": "F5",
            "ticks": 6528,
            "time": 7.183095000000001,
            "velocity": 0.3937007874015748
          },
          {
            "duration": 0.21126749999999994,
            "durationTicks": 192,
            "midi": 65,
            "name": "F4",
            "ticks": 6528,
            "time": 7.183095000000001,
            "velocity": 0.3937007874015748
          },
          {
            "duration": 0.21126749999999994,
            "durationTicks": 192,
            "midi": 41,
            "name": "F2",
            "ticks": 6528,
            "time": 7.183095000000001,
            "velocity": 0.3937007874015748
          },
          {
            "duration": 0.21126749999999994,
            "durationTicks": 192,
            "midi": 53,
            "name": "F3",
            "ticks": 6528,
            "time": 7.183095000000001,
            "velocity": 0.3937007874015748
          },
          {
            "duration": 0.21126749999999994,
            "durationTicks": 192,
            "midi": 72,
            "name": "C5",
            "ticks": 6528,
            "time": 7.183095000000001,
            "velocity": 0.3937007874015748
          },
          {
            "duration": 0.21126749999999994,
            "durationTicks": 192,
            "midi": 56,
            "name": "G#3",
            "ticks": 6720,
            "time": 7.394362500000001,
            "velocity": 0.3937007874015748
          },
          {
            "duration": 0.21126749999999994,
            "durationTicks": 192,
            "midi": 53,
            "name": "F3",
            "ticks": 6720,
            "time": 7.394362500000001,
            "velocity": 0.3937007874015748
          },
          {
            "duration": 0.21126749999999994,
            "durationTicks": 192,
            "midi": 65,
            "name": "F4",
            "ticks": 6720,
            "time": 7.394362500000001,
            "velocity": 0.3937007874015748
          },
          {
            "duration": 0.21126749999999994,
            "durationTicks": 192,
            "midi": 48,
            "name": "C3",
            "ticks": 6720,
            "time": 7.394362500000001,
            "velocity": 0.3937007874015748
          },
          {
            "duration": 0.21126749999999994,
            "durationTicks": 192,
            "midi": 72,
            "name": "C5",
            "ticks": 6720,
            "time": 7.394362500000001,
            "velocity": 0.3937007874015748
          },
          {
            "duration": 0.21126749999999994,
            "durationTicks": 192,
            "midi": 77,
            "name": "F5",
            "ticks": 6720,
            "time": 7.394362500000001,
            "velocity": 0.3937007874015748
          },
          {
            "duration": 0.21126749999999994,
            "durationTicks": 192,
            "midi": 36,
            "name": "C2",
            "ticks": 6912,
            "time": 7.605630000000001,
            "velocity": 0.3937007874015748
          },
          {
            "duration": 0.21126749999999994,
            "durationTicks": 192,
            "midi": 48,
            "name": "C3",
            "ticks": 6912,
            "time": 7.605630000000001,
            "velocity": 0.3937007874015748
          },
          {
            "duration": 0.10563374999999997,
            "durationTicks": 96,
            "midi": 72,
            "name": "C5",
            "ticks": 6912,
            "time": 7.605630000000001,
            "velocity": 0.3937007874015748
          },
          {
            "duration": 0.10563374999999997,
            "durationTicks": 96,
            "midi": 74,
            "name": "D5",
            "ticks": 7008,
            "time": 7.7112637500000005,
            "velocity": 0.3937007874015748
          },
          {
            "duration": 0.10563375000000086,
            "durationTicks": 96,
            "midi": 75,
            "name": "D#5",
            "ticks": 7104,
            "time": 7.8168975000000005,
            "velocity": 0.3937007874015748
          },
          {
            "duration": 0.21126750000000083,
            "durationTicks": 192,
            "midi": 56,
            "name": "G#3",
            "ticks": 7104,
            "time": 7.8168975000000005,
            "velocity": 0.3937007874015748
          },
          {
            "duration": 0.21126750000000083,
            "durationTicks": 192,
            "midi": 48,
            "name": "C3",
            "ticks": 7104,
            "time": 7.8168975000000005,
            "velocity": 0.3937007874015748
          },
          {
            "duration": 0.21126750000000083,
            "durationTicks": 192,
            "midi": 53,
            "name": "F3",
            "ticks": 7104,
            "time": 7.8168975000000005,
            "velocity": 0.3937007874015748
          },
          {
            "duration": 0.10563374999999997,
            "durationTicks": 96,
            "midi": 76,
            "name": "E5",
            "ticks": 7200,
            "time": 7.922531250000001,
            "velocity": 0.3937007874015748
          },
          {
            "duration": 0.21126749999999994,
            "durationTicks": 192,
            "midi": 53,
            "name": "F3",
            "ticks": 7296,
            "time": 8.028165000000001,
            "velocity": 0.3937007874015748
          },
          {
            "duration": 0.21126749999999994,
            "durationTicks": 192,
            "midi": 41,
            "name": "F2",
            "ticks": 7296,
            "time": 8.028165000000001,
            "velocity": 0.3937007874015748
          },
          {
            "duration": 0.21126749999999994,
            "durationTicks": 192,
            "midi": 77,
            "name": "F5",
            "ticks": 7296,
            "time": 8.028165000000001,
            "velocity": 0.3937007874015748
          },
          {
            "duration": 0.21126749999999994,
            "durationTicks": 192,
            "midi": 72,
            "name": "C5",
            "ticks": 7296,
            "time": 8.028165000000001,
            "velocity": 0.3937007874015748
          },
          {
            "duration": 0.21126749999999994,
            "durationTicks": 192,
            "midi": 65,
            "name": "F4",
            "ticks": 7296,
            "time": 8.028165000000001,
            "velocity": 0.3937007874015748
          },
          {
            "duration": 0.21126749999999994,
            "durationTicks": 192,
            "midi": 48,
            "name": "C3",
            "ticks": 7488,
            "time": 8.239432500000001,
            "velocity": 0.3937007874015748
          },
          {
            "duration": 0.21126749999999994,
            "durationTicks": 192,
            "midi": 72,
            "name": "C5",
            "ticks": 7488,
            "time": 8.239432500000001,
            "velocity": 0.3937007874015748
          },
          {
            "duration": 0.21126749999999994,
            "durationTicks": 192,
            "midi": 56,
            "name": "G#3",
            "ticks": 7488,
            "time": 8.239432500000001,
            "velocity": 0.3937007874015748
          },
          {
            "duration": 0.21126749999999994,
            "durationTicks": 192,
            "midi": 65,
            "name": "F4",
            "ticks": 7488,
            "time": 8.239432500000001,
            "velocity": 0.3937007874015748
          },
          {
            "duration": 0.21126749999999994,
            "durationTicks": 192,
            "midi": 77,
            "name": "F5",
            "ticks": 7488,
            "time": 8.239432500000001,
            "velocity": 0.3937007874015748
          },
          {
            "duration": 0.21126749999999994,
            "durationTicks": 192,
            "midi": 53,
            "name": "F3",
            "ticks": 7488,
            "time": 8.239432500000001,
            "velocity": 0.3937007874015748
          },
          {
            "duration": 0.21126749999999994,
            "durationTicks": 192,
            "midi": 77,
            "name": "F5",
            "ticks": 7680,
            "time": 8.450700000000001,
            "velocity": 0.3937007874015748
          },
          {
            "duration": 0.21126749999999994,
            "durationTicks": 192,
            "midi": 80,
            "name": "G#5",
            "ticks": 7680,
            "time": 8.450700000000001,
            "velocity": 0.3937007874015748
          },
          {
            "duration": 0.21126749999999994,
            "durationTicks": 192,
            "midi": 36,
            "name": "C2",
            "ticks": 7680,
            "time": 8.450700000000001,
            "velocity": 0.3937007874015748
          },
          {
            "duration": 0.21126749999999994,
            "durationTicks": 192,
            "midi": 72,
            "name": "C5",
            "ticks": 7680,
            "time": 8.450700000000001,
            "velocity": 0.3937007874015748
          },
          {
            "duration": 0.21126749999999994,
            "durationTicks": 192,
            "midi": 48,
            "name": "C3",
            "ticks": 7680,
            "time": 8.450700000000001,
            "velocity": 0.3937007874015748
          },
          {
            "duration": 0.21126749999999994,
            "durationTicks": 192,
            "midi": 48,
            "name": "C3",
            "ticks": 7872,
            "time": 8.661967500000001,
            "velocity": 0.3937007874015748
          },
          {
            "duration": 0.21126749999999994,
            "durationTicks": 192,
            "midi": 53,
            "name": "F3",
            "ticks": 7872,
            "time": 8.661967500000001,
            "velocity": 0.3937007874015748
          },
          {
            "duration": 0.10563374999999908,
            "durationTicks": 96,
            "midi": 79,
            "name": "G5",
            "ticks": 7872,
            "time": 8.661967500000001,
            "velocity": 0.3937007874015748
          },
          {
            "duration": 0.21126749999999994,
            "durationTicks": 192,
            "midi": 56,
            "name": "G#3",
            "ticks": 7872,
            "time": 8.661967500000001,
            "velocity": 0.3937007874015748
          },
          {
            "duration": 0.10563375000000086,
            "durationTicks": 96,
            "midi": 77,
            "name": "F5",
            "ticks": 7968,
            "time": 8.76760125,
            "velocity": 0.3937007874015748
          },
          {
            "duration": 0.21126749999999994,
            "durationTicks": 192,
            "midi": 55,
            "name": "G3",
            "ticks": 8064,
            "time": 8.873235000000001,
            "velocity": 0.3937007874015748
          },
          {
            "duration": 0.21126749999999994,
            "durationTicks": 192,
            "midi": 76,
            "name": "E5",
            "ticks": 8064,
            "time": 8.873235000000001,
            "velocity": 0.3937007874015748
          },
          {
            "duration": 0.21126749999999994,
            "durationTicks": 192,
            "midi": 79,
            "name": "G5",
            "ticks": 8064,
            "time": 8.873235000000001,
            "velocity": 0.3937007874015748
          },
          {
            "duration": 0.21126749999999994,
            "durationTicks": 192,
            "midi": 72,
            "name": "C5",
            "ticks": 8064,
            "time": 8.873235000000001,
            "velocity": 0.3937007874015748
          },
          {
            "duration": 0.21126749999999994,
            "durationTicks": 192,
            "midi": 43,
            "name": "G2",
            "ticks": 8064,
            "time": 8.873235000000001,
            "velocity": 0.3937007874015748
          },
          {
            "duration": 0.21126749999999994,
            "durationTicks": 192,
            "midi": 79,
            "name": "G5",
            "ticks": 8256,
            "time": 9.084502500000001,
            "velocity": 0.3937007874015748
          },
          {
            "duration": 0.21126749999999994,
            "durationTicks": 192,
            "midi": 72,
            "name": "C5",
            "ticks": 8256,
            "time": 9.084502500000001,
            "velocity": 0.3937007874015748
          },
          {
            "duration": 0.21126749999999994,
            "durationTicks": 192,
            "midi": 60,
            "name": "C4",
            "ticks": 8256,
            "time": 9.084502500000001,
            "velocity": 0.3937007874015748
          },
          {
            "duration": 0.21126749999999994,
            "durationTicks": 192,
            "midi": 76,
            "name": "E5",
            "ticks": 8256,
            "time": 9.084502500000001,
            "velocity": 0.3937007874015748
          },
          {
            "duration": 0.21126749999999994,
            "durationTicks": 192,
            "midi": 55,
            "name": "G3",
            "ticks": 8256,
            "time": 9.084502500000001,
            "velocity": 0.3937007874015748
          },
          {
            "duration": 0.21126749999999994,
            "durationTicks": 192,
            "midi": 58,
            "name": "A#3",
            "ticks": 8256,
            "time": 9.084502500000001,
            "velocity": 0.3937007874015748
          },
          {
            "duration": 0.21126749999999994,
            "durationTicks": 192,
            "midi": 43,
            "name": "G2",
            "ticks": 8448,
            "time": 9.295770000000001,
            "velocity": 0.3937007874015748
          },
          {
            "duration": 0.10563375000000086,
            "durationTicks": 96,
            "midi": 80,
            "name": "G#5",
            "ticks": 8448,
            "time": 9.295770000000001,
            "velocity": 0.3937007874015748
          },
          {
            "duration": 0.21126749999999994,
            "durationTicks": 192,
            "midi": 55,
            "name": "G3",
            "ticks": 8448,
            "time": 9.295770000000001,
            "velocity": 0.3937007874015748
          },
          {
            "duration": 0.10563374999999908,
            "durationTicks": 96,
            "midi": 82,
            "name": "A#5",
            "ticks": 8520,
            "time": 9.374995312500001,
            "velocity": 0.3937007874015748
          },
          {
            "duration": 0.10563374999999908,
            "durationTicks": 96,
            "midi": 80,
            "name": "G#5",
            "ticks": 8592,
            "time": 9.454220625000001,
            "velocity": 0.3937007874015748
          },
          {
            "duration": 0.21126749999999994,
            "durationTicks": 192,
            "midi": 60,
            "name": "C4",
            "ticks": 8640,
            "time": 9.507037500000001,
            "velocity": 0.3937007874015748
          },
          {
            "duration": 0.21126749999999994,
            "durationTicks": 192,
            "midi": 77,
            "name": "F5",
            "ticks": 8640,
            "time": 9.507037500000001,
            "velocity": 0.3937007874015748
          },
          {
            "duration": 0.21126749999999994,
            "durationTicks": 192,
            "midi": 55,
            "name": "G3",
            "ticks": 8640,
            "time": 9.507037500000001,
            "velocity": 0.3937007874015748
          },
          {
            "duration": 0.21126749999999994,
            "durationTicks": 192,
            "midi": 58,
            "name": "A#3",
            "ticks": 8640,
            "time": 9.507037500000001,
            "velocity": 0.3937007874015748
          },
          {
            "duration": 0.21126749999999994,
            "durationTicks": 192,
            "midi": 48,
            "name": "C3",
            "ticks": 8832,
            "time": 9.718305,
            "velocity": 0.3937007874015748
          },
          {
            "duration": 0.4225349999999999,
            "durationTicks": 384,
            "midi": 76,
            "name": "E5",
            "ticks": 8832,
            "time": 9.718305,
            "velocity": 0.3937007874015748
          },
          {
            "duration": 0.4225349999999999,
            "durationTicks": 384,
            "midi": 79,
            "name": "G5",
            "ticks": 8832,
            "time": 9.718305,
            "velocity": 0.3937007874015748
          },
          {
            "duration": 0.4225349999999999,
            "durationTicks": 384,
            "midi": 72,
            "name": "C5",
            "ticks": 8832,
            "time": 9.718305,
            "velocity": 0.3937007874015748
          },
          {
            "duration": 0.21126749999999994,
            "durationTicks": 192,
            "midi": 36,
            "name": "C2",
            "ticks": 8832,
            "time": 9.718305,
            "velocity": 0.3937007874015748
          },
          {
            "duration": 0.4225349999999999,
            "durationTicks": 384,
            "midi": 67,
            "name": "G4",
            "ticks": 8832,
            "time": 9.718305,
            "velocity": 0.3937007874015748
          },
          {
            "duration": 0.21126749999999994,
            "durationTicks": 192,
            "midi": 55,
            "name": "G3",
            "ticks": 9024,
            "time": 9.9295725,
            "velocity": 0.3937007874015748
          },
          {
            "duration": 0.21126749999999994,
            "durationTicks": 192,
            "midi": 60,
            "name": "C4",
            "ticks": 9024,
            "time": 9.9295725,
            "velocity": 0.3937007874015748
          },
          {
            "duration": 0.21126749999999994,
            "durationTicks": 192,
            "midi": 58,
            "name": "A#3",
            "ticks": 9024,
            "time": 9.9295725,
            "velocity": 0.3937007874015748
          },
          {
            "duration": 0.21126749999999994,
            "durationTicks": 192,
            "midi": 36,
            "name": "C2",
            "ticks": 9216,
            "time": 10.14084,
            "velocity": 0.3937007874015748
          },
          {
            "duration": 0.21126749999999994,
            "durationTicks": 192,
            "midi": 48,
            "name": "C3",
            "ticks": 9216,
            "time": 10.14084,
            "velocity": 0.3937007874015748
          },
          {
            "duration": 0.21126749999999994,
            "durationTicks": 192,
            "midi": 60,
            "name": "C4",
            "ticks": 9408,
            "time": 10.3521075,
            "velocity": 0.3937007874015748
          },
          {
            "duration": 0.21126749999999994,
            "durationTicks": 192,
            "midi": 58,
            "name": "A#3",
            "ticks": 9408,
            "time": 10.3521075,
            "velocity": 0.3937007874015748
          },
          {
            "duration": 0.21126749999999994,
            "durationTicks": 192,
            "midi": 55,
            "name": "G3",
            "ticks": 9408,
            "time": 10.3521075,
            "velocity": 0.3937007874015748
          },
          {
            "duration": 0.21126749999999994,
            "durationTicks": 192,
            "midi": 76,
            "name": "E5",
            "ticks": 9600,
            "time": 10.563375,
            "velocity": 0.3937007874015748
          },
          {
            "duration": 0.21126749999999994,
            "durationTicks": 192,
            "midi": 43,
            "name": "G2",
            "ticks": 9600,
            "time": 10.563375,
            "velocity": 0.3937007874015748
          },
          {
            "duration": 0.21126749999999994,
            "durationTicks": 192,
            "midi": 85,
            "name": "C#6",
            "ticks": 9600,
            "time": 10.563375,
            "velocity": 0.3937007874015748
          },
          {
            "duration": 0.21126749999999994,
            "durationTicks": 192,
            "midi": 82,
            "name": "A#5",
            "ticks": 9600,
            "time": 10.563375,
            "velocity": 0.3937007874015748
          },
          {
            "duration": 0.21126749999999994,
            "durationTicks": 192,
            "midi": 55,
            "name": "G3",
            "ticks": 9600,
            "time": 10.563375,
            "velocity": 0.3937007874015748
          },
          {
            "duration": 0.21126749999999994,
            "durationTicks": 192,
            "midi": 58,
            "name": "A#3",
            "ticks": 9792,
            "time": 10.7746425,
            "velocity": 0.3937007874015748
          },
          {
            "duration": 0.21126749999999994,
            "durationTicks": 192,
            "midi": 60,
            "name": "C4",
            "ticks": 9792,
            "time": 10.7746425,
            "velocity": 0.3937007874015748
          },
          {
            "duration": 0.21126749999999994,
            "durationTicks": 192,
            "midi": 76,
            "name": "E5",
            "ticks": 9792,
            "time": 10.7746425,
            "velocity": 0.3937007874015748
          },
          {
            "duration": 0.21126749999999994,
            "durationTicks": 192,
            "midi": 85,
            "name": "C#6",
            "ticks": 9792,
            "time": 10.7746425,
            "velocity": 0.3937007874015748
          },
          {
            "duration": 0.21126749999999994,
            "durationTicks": 192,
            "midi": 55,
            "name": "G3",
            "ticks": 9792,
            "time": 10.7746425,
            "velocity": 0.3937007874015748
          },
          {
            "duration": 0.21126749999999994,
            "durationTicks": 192,
            "midi": 82,
            "name": "A#5",
            "ticks": 9792,
            "time": 10.7746425,
            "velocity": 0.3937007874015748
          },
          {
            "duration": 0.10563375000000086,
            "durationTicks": 96,
            "midi": 85,
            "name": "C#6",
            "ticks": 9984,
            "time": 10.98591,
            "velocity": 0.3937007874015748
          },
          {
            "duration": 0.21126749999999994,
            "durationTicks": 192,
            "midi": 36,
            "name": "C2",
            "ticks": 9984,
            "time": 10.98591,
            "velocity": 0.3937007874015748
          },
          {
            "duration": 0.21126749999999994,
            "durationTicks": 192,
            "midi": 48,
            "name": "C3",
            "ticks": 9984,
            "time": 10.98591,
            "velocity": 0.3937007874015748
          },
          {
            "duration": 0.10563375000000086,
            "durationTicks": 96,
            "midi": 87,
            "name": "D#6",
            "ticks": 10056,
            "time": 11.0651353125,
            "velocity": 0.3937007874015748
          },
          {
            "duration": 0.10563375000000086,
            "durationTicks": 96,
            "midi": 85,
            "name": "C#6",
            "ticks": 10128,
            "time": 11.144360625000001,
            "velocity": 0.3937007874015748
          },
          {
            "duration": 0.21126750000000172,
            "durationTicks": 192,
            "midi": 60,
            "name": "C4",
            "ticks": 10176,
            "time": 11.1971775,
            "velocity": 0.3937007874015748
          },
          {
            "duration": 0.21126750000000172,
            "durationTicks": 192,
            "midi": 55,
            "name": "G3",
            "ticks": 10176,
            "time": 11.1971775,
            "velocity": 0.3937007874015748
          },
          {
            "duration": 0.21126750000000172,
            "durationTicks": 192,
            "midi": 58,
            "name": "A#3",
            "ticks": 10176,
            "time": 11.1971775,
            "velocity": 0.3937007874015748
          },
          {
            "duration": 0.10563375000000086,
            "durationTicks": 96,
            "midi": 84,
            "name": "C6",
            "ticks": 10200,
            "time": 11.223585937500001,
            "velocity": 0.3937007874015748
          },
          {
            "duration": 0.10563375000000086,
            "durationTicks": 96,
            "midi": 82,
            "name": "A#5",
            "ticks": 10272,
            "time": 11.302811250000001,
            "velocity": 0.3937007874015748
          },
          {
            "duration": 0.21126749999999994,
            "durationTicks": 192,
            "midi": 52,
            "name": "E3",
            "ticks": 10368,
            "time": 11.408445000000002,
            "velocity": 0.3937007874015748
          },
          {
            "duration": 0.21126749999999994,
            "durationTicks": 192,
            "midi": 40,
            "name": "E2",
            "ticks": 10368,
            "time": 11.408445000000002,
            "velocity": 0.3937007874015748
          },
          {
            "duration": 0.21126749999999994,
            "durationTicks": 192,
            "midi": 72,
            "name": "C5",
            "ticks": 10368,
            "time": 11.408445000000002,
            "velocity": 0.3937007874015748
          },
          {
            "duration": 0.21126749999999994,
            "durationTicks": 192,
            "midi": 84,
            "name": "C6",
            "ticks": 10368,
            "time": 11.408445000000002,
            "velocity": 0.3937007874015748
          },
          {
            "duration": 0.21126749999999994,
            "durationTicks": 192,
            "midi": 60,
            "name": "C4",
            "ticks": 10560,
            "time": 11.619712500000002,
            "velocity": 0.3937007874015748
          },
          {
            "duration": 0.21126749999999994,
            "durationTicks": 192,
            "midi": 58,
            "name": "A#3",
            "ticks": 10560,
            "time": 11.619712500000002,
            "velocity": 0.3937007874015748
          },
          {
            "duration": 0.21126749999999994,
            "durationTicks": 192,
            "midi": 84,
            "name": "C6",
            "ticks": 10560,
            "time": 11.619712500000002,
            "velocity": 0.3937007874015748
          },
          {
            "duration": 0.21126749999999994,
            "durationTicks": 192,
            "midi": 72,
            "name": "C5",
            "ticks": 10560,
            "time": 11.619712500000002,
            "velocity": 0.3937007874015748
          },
          {
            "duration": 0.21126749999999994,
            "durationTicks": 192,
            "midi": 76,
            "name": "E5",
            "ticks": 10560,
            "time": 11.619712500000002,
            "velocity": 0.3937007874015748
          },
          {
            "duration": 0.21126749999999994,
            "durationTicks": 192,
            "midi": 55,
            "name": "G3",
            "ticks": 10560,
            "time": 11.619712500000002,
            "velocity": 0.3937007874015748
          },
          {
            "duration": 0.21126749999999994,
            "durationTicks": 192,
            "midi": 79,
            "name": "G5",
            "ticks": 10560,
            "time": 11.619712500000002,
            "velocity": 0.3937007874015748
          },
          {
            "duration": 0.21126749999999994,
            "durationTicks": 192,
            "midi": 48,
            "name": "C3",
            "ticks": 10752,
            "time": 11.830980000000002,
            "velocity": 0.3937007874015748
          },
          {
            "duration": 0.21126749999999994,
            "durationTicks": 192,
            "midi": 36,
            "name": "C2",
            "ticks": 10752,
            "time": 11.830980000000002,
            "velocity": 0.3937007874015748
          },
          {
            "duration": 0.10563374999999908,
            "durationTicks": 96,
            "midi": 84,
            "name": "C6",
            "ticks": 10752,
            "time": 11.830980000000002,
            "velocity": 0.3937007874015748
          },
          {
            "duration": 0.10563375000000086,
            "durationTicks": 96,
            "midi": 85,
            "name": "C#6",
            "ticks": 10848,
            "time": 11.936613750000001,
            "velocity": 0.3937007874015748
          },
          {
            "duration": 0.21126749999999994,
            "durationTicks": 192,
            "midi": 55,
            "name": "G3",
            "ticks": 10944,
            "time": 12.042247500000002,
            "velocity": 0.3937007874015748
          },
          {
            "duration": 0.21126749999999994,
            "durationTicks": 192,
            "midi": 60,
            "name": "C4",
            "ticks": 10944,
            "time": 12.042247500000002,
            "velocity": 0.3937007874015748
          },
          {
            "duration": 0.10563374999999908,
            "durationTicks": 96,
            "midi": 84,
            "name": "C6",
            "ticks": 10944,
            "time": 12.042247500000002,
            "velocity": 0.3937007874015748
          },
          {
            "duration": 0.21126749999999994,
            "durationTicks": 192,
            "midi": 58,
            "name": "A#3",
            "ticks": 10944,
            "time": 12.042247500000002,
            "velocity": 0.3937007874015748
          },
          {
            "duration": 0.10563375000000086,
            "durationTicks": 96,
            "midi": 82,
            "name": "A#5",
            "ticks": 11040,
            "time": 12.147881250000001,
            "velocity": 0.3937007874015748
          },
          {
            "duration": 0.21126749999999994,
            "durationTicks": 192,
            "midi": 48,
            "name": "C3",
            "ticks": 11136,
            "time": 12.253515000000002,
            "velocity": 0.3937007874015748
          },
          {
            "duration": 0.21126749999999994,
            "durationTicks": 192,
            "midi": 76,
            "name": "E5",
            "ticks": 11136,
            "time": 12.253515000000002,
            "velocity": 0.3937007874015748
          },
          {
            "duration": 0.21126749999999994,
            "durationTicks": 192,
            "midi": 36,
            "name": "C2",
            "ticks": 11136,
            "time": 12.253515000000002,
            "velocity": 0.3937007874015748
          },
          {
            "duration": 0.21126749999999994,
            "durationTicks": 192,
            "midi": 72,
            "name": "C5",
            "ticks": 11136,
            "time": 12.253515000000002,
            "velocity": 0.3937007874015748
          },
          {
            "duration": 0.21126749999999994,
            "durationTicks": 192,
            "midi": 80,
            "name": "G#5",
            "ticks": 11136,
            "time": 12.253515000000002,
            "velocity": 0.3937007874015748
          },
          {
            "duration": 0.21126749999999994,
            "durationTicks": 192,
            "midi": 72,
            "name": "C5",
            "ticks": 11328,
            "time": 12.464782500000002,
            "velocity": 0.3937007874015748
          },
          {
            "duration": 0.21126749999999994,
            "durationTicks": 192,
            "midi": 58,
            "name": "A#3",
            "ticks": 11328,
            "time": 12.464782500000002,
            "velocity": 0.3937007874015748
          },
          {
            "duration": 0.21126749999999994,
            "durationTicks": 192,
            "midi": 80,
            "name": "G#5",
            "ticks": 11328,
            "time": 12.464782500000002,
            "velocity": 0.3937007874015748
          },
          {
            "duration": 0.21126749999999994,
            "durationTicks": 192,
            "midi": 60,
            "name": "C4",
            "ticks": 11328,
            "time": 12.464782500000002,
            "velocity": 0.3937007874015748
          },
          {
            "duration": 0.21126749999999994,
            "durationTicks": 192,
            "midi": 64,
            "name": "E4",
            "ticks": 11328,
            "time": 12.464782500000002,
            "velocity": 0.3937007874015748
          },
          {
            "duration": 0.21126749999999994,
            "durationTicks": 192,
            "midi": 76,
            "name": "E5",
            "ticks": 11328,
            "time": 12.464782500000002,
            "velocity": 0.3937007874015748
          },
          {
            "duration": 0.21126749999999994,
            "durationTicks": 192,
            "midi": 36,
            "name": "C2",
            "ticks": 11520,
            "time": 12.676050000000002,
            "velocity": 0.3937007874015748
          },
          {
            "duration": 0.21126749999999994,
            "durationTicks": 192,
            "midi": 48,
            "name": "C3",
            "ticks": 11520,
            "time": 12.676050000000002,
            "velocity": 0.3937007874015748
          },
          {
            "duration": 0.10563374999999908,
            "durationTicks": 96,
            "midi": 82,
            "name": "A#5",
            "ticks": 11520,
            "time": 12.676050000000002,
            "velocity": 0.3937007874015748
          },
          {
            "duration": 0.10563375000000086,
            "durationTicks": 96,
            "midi": 84,
            "name": "C6",
            "ticks": 11616,
            "time": 12.781683750000001,
            "velocity": 0.3937007874015748
          },
          {
            "duration": 0.10563374999999908,
            "durationTicks": 96,
            "midi": 82,
            "name": "A#5",
            "ticks": 11712,
            "time": 12.887317500000002,
            "velocity": 0.3937007874015748
          },
          {
            "duration": 0.21126749999999994,
            "durationTicks": 192,
            "midi": 58,
            "name": "A#3",
            "ticks": 11712,
            "time": 12.887317500000002,
            "velocity": 0.3937007874015748
          },
          {
            "duration": 0.21126749999999994,
            "durationTicks": 192,
            "midi": 64,
            "name": "E4",
            "ticks": 11712,
            "time": 12.887317500000002,
            "velocity": 0.3937007874015748
          },
          {
            "duration": 0.21126749999999994,
            "durationTicks": 192,
            "midi": 60,
            "name": "C4",
            "ticks": 11712,
            "time": 12.887317500000002,
            "velocity": 0.3937007874015748
          },
          {
            "duration": 0.10563375000000086,
            "durationTicks": 96,
            "midi": 79,
            "name": "G5",
            "ticks": 11808,
            "time": 12.99295125,
            "velocity": 0.3937007874015748
          },
          {
            "duration": 0.21126749999999994,
            "durationTicks": 192,
            "midi": 53,
            "name": "F3",
            "ticks": 11904,
            "time": 13.098585000000002,
            "velocity": 0.3937007874015748
          },
          {
            "duration": 0.21126749999999994,
            "durationTicks": 192,
            "midi": 41,
            "name": "F2",
            "ticks": 11904,
            "time": 13.098585000000002,
            "velocity": 0.3937007874015748
          },
          {
            "duration": 0.21126749999999994,
            "durationTicks": 192,
            "midi": 68,
            "name": "G#4",
            "ticks": 11904,
            "time": 13.098585000000002,
            "velocity": 0.3937007874015748
          },
          {
            "duration": 0.21126749999999994,
            "durationTicks": 192,
            "midi": 72,
            "name": "C5",
            "ticks": 11904,
            "time": 13.098585000000002,
            "velocity": 0.3937007874015748
          },
          {
            "duration": 0.21126749999999994,
            "durationTicks": 192,
            "midi": 77,
            "name": "F5",
            "ticks": 11904,
            "time": 13.098585000000002,
            "velocity": 0.3937007874015748
          },
          {
            "duration": 0.21126749999999994,
            "durationTicks": 192,
            "midi": 76,
            "name": "E5",
            "ticks": 12288,
            "time": 13.521120000000002,
            "velocity": 0.3937007874015748
          },
          {
            "duration": 0.21126749999999994,
            "durationTicks": 192,
            "midi": 84,
            "name": "C6",
            "ticks": 12288,
            "time": 13.521120000000002,
            "velocity": 0.3937007874015748
          },
          {
            "duration": 0.21126749999999994,
            "durationTicks": 192,
            "midi": 79,
            "name": "G5",
            "ticks": 12288,
            "time": 13.521120000000002,
            "velocity": 0.3937007874015748
          },
          {
            "duration": 0.4225349999999999,
            "durationTicks": 384,
            "midi": 36,
            "name": "C2",
            "ticks": 12288,
            "time": 13.521120000000002,
            "velocity": 0.3937007874015748
          },
          {
            "duration": 0.21126749999999994,
            "durationTicks": 192,
            "midi": 72,
            "name": "C5",
            "ticks": 12288,
            "time": 13.521120000000002,
            "velocity": 0.3937007874015748
          },
          {
            "duration": 0.21126749999999994,
            "durationTicks": 192,
            "midi": 82,
            "name": "A#5",
            "ticks": 12288,
            "time": 13.521120000000002,
            "velocity": 0.3937007874015748
          },
          {
            "duration": 0.4225349999999999,
            "durationTicks": 384,
            "midi": 48,
            "name": "C3",
            "ticks": 12288,
            "time": 13.521120000000002,
            "velocity": 0.3937007874015748
          },
          {
            "duration": 0.3169012500000008,
            "durationTicks": 288,
            "midi": 72,
            "name": "C5",
            "ticks": 12672,
            "time": 13.943655000000001,
            "velocity": 0.3937007874015748
          },
          {
            "duration": 0.3169012500000008,
            "durationTicks": 288,
            "midi": 77,
            "name": "F5",
            "ticks": 12672,
            "time": 13.943655000000001,
            "velocity": 0.3937007874015748
          },
          {
            "duration": 0.21126749999999994,
            "durationTicks": 192,
            "midi": 53,
            "name": "F3",
            "ticks": 12672,
            "time": 13.943655000000001,
            "velocity": 0.3937007874015748
          },
          {
            "duration": 0.3169012500000008,
            "durationTicks": 288,
            "midi": 80,
            "name": "G#5",
            "ticks": 12672,
            "time": 13.943655000000001,
            "velocity": 0.3937007874015748
          },
          {
            "duration": 0.3169012500000008,
            "durationTicks": 288,
            "midi": 84,
            "name": "C6",
            "ticks": 12672,
            "time": 13.943655000000001,
            "velocity": 0.3937007874015748
          },
          {
            "duration": 0.21126749999999994,
            "durationTicks": 192,
            "midi": 41,
            "name": "F2",
            "ticks": 12672,
            "time": 13.943655000000001,
            "velocity": 0.3937007874015748
          },
          {
            "duration": 0.21126749999999994,
            "durationTicks": 192,
            "midi": 48,
            "name": "C3",
            "ticks": 12864,
            "time": 14.154922500000001,
            "velocity": 0.3937007874015748
          },
          {
            "duration": 0.21126749999999994,
            "durationTicks": 192,
            "midi": 56,
            "name": "G#3",
            "ticks": 12864,
            "time": 14.154922500000001,
            "velocity": 0.3937007874015748
          },
          {
            "duration": 0.21126749999999994,
            "durationTicks": 192,
            "midi": 53,
            "name": "F3",
            "ticks": 12864,
            "time": 14.154922500000001,
            "velocity": 0.3937007874015748
          },
          {
            "duration": 0.3169012500000008,
            "durationTicks": 288,
            "midi": 72,
            "name": "C5",
            "ticks": 13056,
            "time": 14.366190000000001,
            "velocity": 0.3937007874015748
          },
          {
            "duration": 0.3169012500000008,
            "durationTicks": 288,
            "midi": 77,
            "name": "F5",
            "ticks": 13056,
            "time": 14.366190000000001,
            "velocity": 0.3937007874015748
          },
          {
            "duration": 0.3169012500000008,
            "durationTicks": 288,
            "midi": 80,
            "name": "G#5",
            "ticks": 13056,
            "time": 14.366190000000001,
            "velocity": 0.3937007874015748
          },
          {
            "duration": 0.21126749999999994,
            "durationTicks": 192,
            "midi": 36,
            "name": "C2",
            "ticks": 13056,
            "time": 14.366190000000001,
            "velocity": 0.3937007874015748
          },
          {
            "duration": 0.21126749999999994,
            "durationTicks": 192,
            "midi": 48,
            "name": "C3",
            "ticks": 13056,
            "time": 14.366190000000001,
            "velocity": 0.3937007874015748
          },
          {
            "duration": 0.3169012500000008,
            "durationTicks": 288,
            "midi": 84,
            "name": "C6",
            "ticks": 13056,
            "time": 14.366190000000001,
            "velocity": 0.3937007874015748
          },
          {
            "duration": 0.21126749999999994,
            "durationTicks": 192,
            "midi": 56,
            "name": "G#3",
            "ticks": 13248,
            "time": 14.577457500000001,
            "velocity": 0.3937007874015748
          },
          {
            "duration": 0.21126749999999994,
            "durationTicks": 192,
            "midi": 48,
            "name": "C3",
            "ticks": 13248,
            "time": 14.577457500000001,
            "velocity": 0.3937007874015748
          },
          {
            "duration": 0.21126749999999994,
            "durationTicks": 192,
            "midi": 53,
            "name": "F3",
            "ticks": 13248,
            "time": 14.577457500000001,
            "velocity": 0.3937007874015748
          },
          {
            "duration": 0.10563375000000086,
            "durationTicks": 96,
            "midi": 87,
            "name": "D#6",
            "ticks": 13392,
            "time": 14.735908125000002,
            "velocity": 0.3937007874015748
          },
          {
            "duration": 0.10563374999999908,
            "durationTicks": 96,
            "midi": 88,
            "name": "E6",
            "ticks": 13416,
            "time": 14.762316562500002,
            "velocity": 0.3937007874015748
          },
          {
            "duration": 0.4225349999999999,
            "durationTicks": 384,
            "midi": 89,
            "name": "F6",
            "ticks": 13440,
            "time": 14.788725000000001,
            "velocity": 0.3937007874015748
          },
          {
            "duration": 0.4225349999999999,
            "durationTicks": 384,
            "midi": 77,
            "name": "F5",
            "ticks": 13440,
            "time": 14.788725000000001,
            "velocity": 0.3937007874015748
          },
          {
            "duration": 0.21126749999999994,
            "durationTicks": 192,
            "midi": 41,
            "name": "F2",
            "ticks": 13440,
            "time": 14.788725000000001,
            "velocity": 0.3937007874015748
          },
          {
            "duration": 0.21126749999999994,
            "durationTicks": 192,
            "midi": 29,
            "name": "F1",
            "ticks": 13440,
            "time": 14.788725000000001,
            "velocity": 0.3937007874015748
          },
          {
            "duration": 0.21126749999999994,
            "durationTicks": 192,
            "midi": 53,
            "name": "F3",
            "ticks": 13632,
            "time": 14.999992500000001,
            "velocity": 0.3937007874015748
          },
          {
            "duration": 0.21126749999999994,
            "durationTicks": 192,
            "midi": 56,
            "name": "G#3",
            "ticks": 13632,
            "time": 14.999992500000001,
            "velocity": 0.3937007874015748
          },
          {
            "duration": 0.21126749999999994,
            "durationTicks": 192,
            "midi": 48,
            "name": "C3",
            "ticks": 13632,
            "time": 14.999992500000001,
            "velocity": 0.3937007874015748
          },
          {
            "duration": 0.21126749999999994,
            "durationTicks": 192,
            "midi": 32,
            "name": "G#1",
            "ticks": 13824,
            "time": 15.211260000000001,
            "velocity": 0.3937007874015748
          },
          {
            "duration": 0.21126749999999994,
            "durationTicks": 192,
            "midi": 44,
            "name": "G#2",
            "ticks": 13824,
            "time": 15.211260000000001,
            "velocity": 0.3937007874015748
          },
          {
            "duration": 0.4225349999999999,
            "durationTicks": 384,
            "midi": 72,
            "name": "C5",
            "ticks": 13824,
            "time": 15.211260000000001,
            "velocity": 0.3937007874015748
          },
          {
            "duration": 0.4225349999999999,
            "durationTicks": 384,
            "midi": 84,
            "name": "C6",
            "ticks": 13824,
            "time": 15.211260000000001,
            "velocity": 0.3937007874015748
          },
          {
            "duration": 0.4225349999999999,
            "durationTicks": 384,
            "midi": 77,
            "name": "F5",
            "ticks": 13824,
            "time": 15.211260000000001,
            "velocity": 0.3937007874015748
          },
          {
            "duration": 0.21126749999999994,
            "durationTicks": 192,
            "midi": 56,
            "name": "G#3",
            "ticks": 14016,
            "time": 15.422527500000001,
            "velocity": 0.3937007874015748
          },
          {
            "duration": 0.21126749999999994,
            "durationTicks": 192,
            "midi": 48,
            "name": "C3",
            "ticks": 14016,
            "time": 15.422527500000001,
            "velocity": 0.3937007874015748
          },
          {
            "duration": 0.21126749999999994,
            "durationTicks": 192,
            "midi": 53,
            "name": "F3",
            "ticks": 14016,
            "time": 15.422527500000001,
            "velocity": 0.3937007874015748
          },
          {
            "duration": 0.21126750000000172,
            "durationTicks": 192,
            "midi": 43,
            "name": "G2",
            "ticks": 14208,
            "time": 15.633795000000001,
            "velocity": 0.3937007874015748
          },
          {
            "duration": 0.21126750000000172,
            "durationTicks": 192,
            "midi": 79,
            "name": "G5",
            "ticks": 14208,
            "time": 15.633795000000001,
            "velocity": 0.3937007874015748
          },
          {
            "duration": 0.21126750000000172,
            "durationTicks": 192,
            "midi": 75,
            "name": "D#5",
            "ticks": 14208,
            "time": 15.633795000000001,
            "velocity": 0.3937007874015748
          },
          {
            "duration": 0.21126750000000172,
            "durationTicks": 192,
            "midi": 87,
            "name": "D#6",
            "ticks": 14208,
            "time": 15.633795000000001,
            "velocity": 0.3937007874015748
          },
          {
            "duration": 0.21126750000000172,
            "durationTicks": 192,
            "midi": 31,
            "name": "G1",
            "ticks": 14208,
            "time": 15.633795000000001,
            "velocity": 0.3937007874015748
          },
          {
            "duration": 0.21126749999999994,
            "durationTicks": 192,
            "midi": 85,
            "name": "C#6",
            "ticks": 14400,
            "time": 15.845062500000003,
            "velocity": 0.3937007874015748
          },
          {
            "duration": 0.21126749999999994,
            "durationTicks": 192,
            "midi": 58,
            "name": "A#3",
            "ticks": 14400,
            "time": 15.845062500000003,
            "velocity": 0.3937007874015748
          },
          {
            "duration": 0.21126749999999994,
            "durationTicks": 192,
            "midi": 61,
            "name": "C#4",
            "ticks": 14400,
            "time": 15.845062500000003,
            "velocity": 0.3937007874015748
          },
          {
            "duration": 0.21126749999999994,
            "durationTicks": 192,
            "midi": 55,
            "name": "G3",
            "ticks": 14400,
            "time": 15.845062500000003,
            "velocity": 0.3937007874015748
          },
          {
            "duration": 0.21126749999999994,
            "durationTicks": 192,
            "midi": 73,
            "name": "C#5",
            "ticks": 14400,
            "time": 15.845062500000003,
            "velocity": 0.3937007874015748
          },
          {
            "duration": 0.21126749999999817,
            "durationTicks": 192,
            "midi": 31,
            "name": "G1",
            "ticks": 14592,
            "time": 16.056330000000003,
            "velocity": 0.3937007874015748
          },
          {
            "duration": 0.21126749999999817,
            "durationTicks": 192,
            "midi": 43,
            "name": "G2",
            "ticks": 14592,
            "time": 16.056330000000003,
            "velocity": 0.3937007874015748
          },
          {
            "duration": 0.21126749999999817,
            "durationTicks": 192,
            "midi": 72,
            "name": "C5",
            "ticks": 14592,
            "time": 16.056330000000003,
            "velocity": 0.3937007874015748
          },
          {
            "duration": 0.21126749999999817,
            "durationTicks": 192,
            "midi": 84,
            "name": "C6",
            "ticks": 14592,
            "time": 16.056330000000003,
            "velocity": 0.3937007874015748
          },
          {
            "duration": 0.21126750000000172,
            "durationTicks": 192,
            "midi": 55,
            "name": "G3",
            "ticks": 14784,
            "time": 16.2675975,
            "velocity": 0.3937007874015748
          },
          {
            "duration": 0.21126750000000172,
            "durationTicks": 192,
            "midi": 85,
            "name": "C#6",
            "ticks": 14784,
            "time": 16.2675975,
            "velocity": 0.3937007874015748
          },
          {
            "duration": 0.21126750000000172,
            "durationTicks": 192,
            "midi": 58,
            "name": "A#3",
            "ticks": 14784,
            "time": 16.2675975,
            "velocity": 0.3937007874015748
          },
          {
            "duration": 0.21126750000000172,
            "durationTicks": 192,
            "midi": 61,
            "name": "C#4",
            "ticks": 14784,
            "time": 16.2675975,
            "velocity": 0.3937007874015748
          },
          {
            "duration": 0.21126750000000172,
            "durationTicks": 192,
            "midi": 73,
            "name": "C#5",
            "ticks": 14784,
            "time": 16.2675975,
            "velocity": 0.3937007874015748
          },
          {
            "duration": 0.4225349999999999,
            "durationTicks": 384,
            "midi": 70,
            "name": "A#4",
            "ticks": 14976,
            "time": 16.478865000000003,
            "velocity": 0.3937007874015748
          },
          {
            "duration": 0.21126749999999817,
            "durationTicks": 192,
            "midi": 46,
            "name": "A#2",
            "ticks": 14976,
            "time": 16.478865000000003,
            "velocity": 0.3937007874015748
          },
          {
            "duration": 0.21126749999999817,
            "durationTicks": 192,
            "midi": 34,
            "name": "A#1",
            "ticks": 14976,
            "time": 16.478865000000003,
            "velocity": 0.3937007874015748
          },
          {
            "duration": 0.4225349999999999,
            "durationTicks": 384,
            "midi": 79,
            "name": "G5",
            "ticks": 14976,
            "time": 16.478865000000003,
            "velocity": 0.3937007874015748
          },
          {
            "duration": 0.4225349999999999,
            "durationTicks": 384,
            "midi": 76,
            "name": "E5",
            "ticks": 14976,
            "time": 16.478865000000003,
            "velocity": 0.3937007874015748
          },
          {
            "duration": 0.4225349999999999,
            "durationTicks": 384,
            "midi": 82,
            "name": "A#5",
            "ticks": 14976,
            "time": 16.478865000000003,
            "velocity": 0.3937007874015748
          },
          {
            "duration": 0.21126750000000172,
            "durationTicks": 192,
            "midi": 58,
            "name": "A#3",
            "ticks": 15168,
            "time": 16.6901325,
            "velocity": 0.3937007874015748
          },
          {
            "duration": 0.21126750000000172,
            "durationTicks": 192,
            "midi": 55,
            "name": "G3",
            "ticks": 15168,
            "time": 16.6901325,
            "velocity": 0.3937007874015748
          },
          {
            "duration": 0.21126750000000172,
            "durationTicks": 192,
            "midi": 61,
            "name": "C#4",
            "ticks": 15168,
            "time": 16.6901325,
            "velocity": 0.3937007874015748
          },
          {
            "duration": 0.21126749999999817,
            "durationTicks": 192,
            "midi": 31,
            "name": "G1",
            "ticks": 15360,
            "time": 16.901400000000002,
            "velocity": 0.3937007874015748
          },
          {
            "duration": 0.21126749999999817,
            "durationTicks": 192,
            "midi": 43,
            "name": "G2",
            "ticks": 15360,
            "time": 16.901400000000002,
            "velocity": 0.3937007874015748
          },
          {
            "duration": 0.21126750000000172,
            "durationTicks": 192,
            "midi": 32,
            "name": "G#1",
            "ticks": 15552,
            "time": 17.1126675,
            "velocity": 0.3937007874015748
          },
          {
            "duration": 0.21126750000000172,
            "durationTicks": 192,
            "midi": 44,
            "name": "G#2",
            "ticks": 15552,
            "time": 17.1126675,
            "velocity": 0.3937007874015748
          },
          {
            "duration": 0.21126749999999817,
            "durationTicks": 192,
            "midi": 46,
            "name": "A#2",
            "ticks": 15744,
            "time": 17.323935000000002,
            "velocity": 0.3937007874015748
          },
          {
            "duration": 0.4225349999999999,
            "durationTicks": 384,
            "midi": 85,
            "name": "C#6",
            "ticks": 15744,
            "time": 17.323935000000002,
            "velocity": 0.3937007874015748
          },
          {
            "duration": 0.8450699999999998,
            "durationTicks": 768,
            "midi": 73,
            "name": "C#5",
            "ticks": 15744,
            "time": 17.323935000000002,
            "velocity": 0.3937007874015748
          },
          {
            "duration": 0.21126749999999817,
            "durationTicks": 192,
            "midi": 34,
            "name": "A#1",
            "ticks": 15744,
            "time": 17.323935000000002,
            "velocity": 0.3937007874015748
          },
          {
            "duration": 0.4225349999999999,
            "durationTicks": 384,
            "midi": 82,
            "name": "A#5",
            "ticks": 15744,
            "time": 17.323935000000002,
            "velocity": 0.3937007874015748
          },
          {
            "duration": 0.8450699999999998,
            "durationTicks": 768,
            "midi": 79,
            "name": "G5",
            "ticks": 15744,
            "time": 17.323935000000002,
            "velocity": 0.3937007874015748
          },
          {
            "duration": 0.21126750000000172,
            "durationTicks": 192,
            "midi": 61,
            "name": "C#4",
            "ticks": 15936,
            "time": 17.5352025,
            "velocity": 0.3937007874015748
          },
          {
            "duration": 0.21126750000000172,
            "durationTicks": 192,
            "midi": 58,
            "name": "A#3",
            "ticks": 15936,
            "time": 17.5352025,
            "velocity": 0.3937007874015748
          },
          {
            "duration": 0.21126750000000172,
            "durationTicks": 192,
            "midi": 55,
            "name": "G3",
            "ticks": 15936,
            "time": 17.5352025,
            "velocity": 0.3937007874015748
          },
          {
            "duration": 0.21126749999999817,
            "durationTicks": 192,
            "midi": 46,
            "name": "A#2",
            "ticks": 16128,
            "time": 17.746470000000002,
            "velocity": 0.3937007874015748
          },
          {
            "duration": 0.4225349999999999,
            "durationTicks": 384,
            "midi": 82,
            "name": "A#5",
            "ticks": 16128,
            "time": 17.746470000000002,
            "velocity": 0.3937007874015748
          },
          {
            "duration": 0.21126749999999817,
            "durationTicks": 192,
            "midi": 34,
            "name": "A#1",
            "ticks": 16128,
            "time": 17.746470000000002,
            "velocity": 0.3937007874015748
          },
          {
            "duration": 0.21126750000000172,
            "durationTicks": 192,
            "midi": 55,
            "name": "G3",
            "ticks": 16320,
            "time": 17.9577375,
            "velocity": 0.3937007874015748
          },
          {
            "duration": 0.21126750000000172,
            "durationTicks": 192,
            "midi": 58,
            "name": "A#3",
            "ticks": 16320,
            "time": 17.9577375,
            "velocity": 0.3937007874015748
          },
          {
            "duration": 0.21126750000000172,
            "durationTicks": 192,
            "midi": 61,
            "name": "C#4",
            "ticks": 16320,
            "time": 17.9577375,
            "velocity": 0.3937007874015748
          },
          {
            "duration": 0.21126750000000172,
            "durationTicks": 192,
            "midi": 85,
            "name": "C#6",
            "ticks": 16320,
            "time": 17.9577375,
            "velocity": 0.3937007874015748
          },
          {
            "duration": 0.21126750000000172,
            "durationTicks": 192,
            "midi": 75,
            "name": "D#5",
            "ticks": 16512,
            "time": 18.169005000000002,
            "velocity": 0.3937007874015748
          },
          {
            "duration": 0.21126750000000172,
            "durationTicks": 192,
            "midi": 43,
            "name": "G2",
            "ticks": 16512,
            "time": 18.169005000000002,
            "velocity": 0.3937007874015748
          },
          {
            "duration": 0.21126750000000172,
            "durationTicks": 192,
            "midi": 31,
            "name": "G1",
            "ticks": 16512,
            "time": 18.169005000000002,
            "velocity": 0.3937007874015748
          },
          {
            "duration": 0.21126750000000172,
            "durationTicks": 192,
            "midi": 87,
            "name": "D#6",
            "ticks": 16512,
            "time": 18.169005000000002,
            "velocity": 0.3937007874015748
          },
          {
            "duration": 0.21126749999999817,
            "durationTicks": 192,
            "midi": 85,
            "name": "C#6",
            "ticks": 16704,
            "time": 18.380272500000004,
            "velocity": 0.3937007874015748
          },
          {
            "duration": 0.21126749999999817,
            "durationTicks": 192,
            "midi": 73,
            "name": "C#5",
            "ticks": 16704,
            "time": 18.380272500000004,
            "velocity": 0.3937007874015748
          },
          {
            "duration": 0.21126749999999817,
            "durationTicks": 192,
            "midi": 55,
            "name": "G3",
            "ticks": 16704,
            "time": 18.380272500000004,
            "velocity": 0.3937007874015748
          },
          {
            "duration": 0.21126749999999817,
            "durationTicks": 192,
            "midi": 58,
            "name": "A#3",
            "ticks": 16704,
            "time": 18.380272500000004,
            "velocity": 0.3937007874015748
          },
          {
            "duration": 0.21126749999999817,
            "durationTicks": 192,
            "midi": 61,
            "name": "C#4",
            "ticks": 16704,
            "time": 18.380272500000004,
            "velocity": 0.3937007874015748
          },
          {
            "duration": 0.21126750000000172,
            "durationTicks": 192,
            "midi": 72,
            "name": "C5",
            "ticks": 16896,
            "time": 18.591540000000002,
            "velocity": 0.3937007874015748
          },
          {
            "duration": 0.21126750000000172,
            "durationTicks": 192,
            "midi": 32,
            "name": "G#1",
            "ticks": 16896,
            "time": 18.591540000000002,
            "velocity": 0.3937007874015748
          },
          {
            "duration": 0.21126750000000172,
            "durationTicks": 192,
            "midi": 84,
            "name": "C6",
            "ticks": 16896,
            "time": 18.591540000000002,
            "velocity": 0.3937007874015748
          },
          {
            "duration": 0.21126750000000172,
            "durationTicks": 192,
            "midi": 44,
            "name": "G#2",
            "ticks": 16896,
            "time": 18.591540000000002,
            "velocity": 0.3937007874015748
          },
          {
            "duration": 0.21126749999999817,
            "durationTicks": 192,
            "midi": 34,
            "name": "A#1",
            "ticks": 17088,
            "time": 18.802807500000004,
            "velocity": 0.3937007874015748
          },
          {
            "duration": 0.21126749999999817,
            "durationTicks": 192,
            "midi": 85,
            "name": "C#6",
            "ticks": 17088,
            "time": 18.802807500000004,
            "velocity": 0.3937007874015748
          },
          {
            "duration": 0.21126749999999817,
            "durationTicks": 192,
            "midi": 73,
            "name": "C#5",
            "ticks": 17088,
            "time": 18.802807500000004,
            "velocity": 0.3937007874015748
          },
          {
            "duration": 0.21126749999999817,
            "durationTicks": 192,
            "midi": 46,
            "name": "A#2",
            "ticks": 17088,
            "time": 18.802807500000004,
            "velocity": 0.3937007874015748
          },
          {
            "duration": 0.21126750000000172,
            "durationTicks": 192,
            "midi": 36,
            "name": "C2",
            "ticks": 17280,
            "time": 19.014075000000002,
            "velocity": 0.3937007874015748
          },
          {
            "duration": 0.21126750000000172,
            "durationTicks": 192,
            "midi": 72,
            "name": "C5",
            "ticks": 17280,
            "time": 19.014075000000002,
            "velocity": 0.3937007874015748
          },
          {
            "duration": 0.21126750000000172,
            "durationTicks": 192,
            "midi": 48,
            "name": "C3",
            "ticks": 17280,
            "time": 19.014075000000002,
            "velocity": 0.3937007874015748
          },
          {
            "duration": 0.21126750000000172,
            "durationTicks": 192,
            "midi": 84,
            "name": "C6",
            "ticks": 17280,
            "time": 19.014075000000002,
            "velocity": 0.3937007874015748
          },
          {
            "duration": 0.21126749999999817,
            "durationTicks": 192,
            "midi": 58,
            "name": "A#3",
            "ticks": 17472,
            "time": 19.225342500000004,
            "velocity": 0.3937007874015748
          },
          {
            "duration": 0.21126749999999817,
            "durationTicks": 192,
            "midi": 52,
            "name": "E3",
            "ticks": 17472,
            "time": 19.225342500000004,
            "velocity": 0.3937007874015748
          },
          {
            "duration": 0.21126749999999817,
            "durationTicks": 192,
            "midi": 84,
            "name": "C6",
            "ticks": 17472,
            "time": 19.225342500000004,
            "velocity": 0.3937007874015748
          },
          {
            "duration": 0.21126749999999817,
            "durationTicks": 192,
            "midi": 80,
            "name": "G#5",
            "ticks": 17472,
            "time": 19.225342500000004,
            "velocity": 0.3937007874015748
          },
          {
            "duration": 0.21126749999999817,
            "durationTicks": 192,
            "midi": 72,
            "name": "C5",
            "ticks": 17472,
            "time": 19.225342500000004,
            "velocity": 0.3937007874015748
          },
          {
            "duration": 0.21126749999999817,
            "durationTicks": 192,
            "midi": 48,
            "name": "C3",
            "ticks": 17472,
            "time": 19.225342500000004,
            "velocity": 0.3937007874015748
          },
          {
            "duration": 0.21126750000000172,
            "durationTicks": 192,
            "midi": 82,
            "name": "A#5",
            "ticks": 17664,
            "time": 19.43661,
            "velocity": 0.3937007874015748
          },
          {
            "duration": 0.21126750000000172,
            "durationTicks": 192,
            "midi": 70,
            "name": "A#4",
            "ticks": 17664,
            "time": 19.43661,
            "velocity": 0.3937007874015748
          },
          {
            "duration": 0.21126750000000172,
            "durationTicks": 192,
            "midi": 79,
            "name": "G5",
            "ticks": 17664,
            "time": 19.43661,
            "velocity": 0.3937007874015748
          },
          {
            "duration": 0.21126750000000172,
            "durationTicks": 192,
            "midi": 43,
            "name": "G2",
            "ticks": 17664,
            "time": 19.43661,
            "velocity": 0.3937007874015748
          },
          {
            "duration": 0.21126750000000172,
            "durationTicks": 192,
            "midi": 55,
            "name": "G3",
            "ticks": 17664,
            "time": 19.43661,
            "velocity": 0.3937007874015748
          },
          {
            "duration": 0.21126749999999817,
            "durationTicks": 192,
            "midi": 52,
            "name": "E3",
            "ticks": 17856,
            "time": 19.647877500000003,
            "velocity": 0.3937007874015748
          },
          {
            "duration": 0.21126749999999817,
            "durationTicks": 192,
            "midi": 48,
            "name": "C3",
            "ticks": 17856,
            "time": 19.647877500000003,
            "velocity": 0.3937007874015748
          },
          {
            "duration": 0.21126749999999817,
            "durationTicks": 192,
            "midi": 58,
            "name": "A#3",
            "ticks": 17856,
            "time": 19.647877500000003,
            "velocity": 0.3937007874015748
          },
          {
            "duration": 0.21126749999999817,
            "durationTicks": 192,
            "midi": 77,
            "name": "F5",
            "ticks": 17856,
            "time": 19.647877500000003,
            "velocity": 0.3937007874015748
          },
          {
            "duration": 0.21126749999999817,
            "durationTicks": 192,
            "midi": 68,
            "name": "G#4",
            "ticks": 17856,
            "time": 19.647877500000003,
            "velocity": 0.3937007874015748
          },
          {
            "duration": 0.21126749999999817,
            "durationTicks": 192,
            "midi": 80,
            "name": "G#5",
            "ticks": 17856,
            "time": 19.647877500000003,
            "velocity": 0.3937007874015748
          },
          {
            "duration": 0.21126750000000172,
            "durationTicks": 192,
            "midi": 76,
            "name": "E5",
            "ticks": 18048,
            "time": 19.859145,
            "velocity": 0.3937007874015748
          },
          {
            "duration": 0.21126750000000172,
            "durationTicks": 192,
            "midi": 84,
            "name": "C6",
            "ticks": 18048,
            "time": 19.859145,
            "velocity": 0.3937007874015748
          },
          {
            "duration": 0.21126750000000172,
            "durationTicks": 192,
            "midi": 48,
            "name": "C3",
            "ticks": 18048,
            "time": 19.859145,
            "velocity": 0.3937007874015748
          },
          {
            "duration": 0.21126750000000172,
            "durationTicks": 192,
            "midi": 36,
            "name": "C2",
            "ticks": 18048,
            "time": 19.859145,
            "velocity": 0.3937007874015748
          },
          {
            "duration": 0.21126750000000172,
            "durationTicks": 192,
            "midi": 72,
            "name": "C5",
            "ticks": 18048,
            "time": 19.859145,
            "velocity": 0.3937007874015748
          },
          {
            "duration": 0.21126749999999817,
            "durationTicks": 192,
            "midi": 73,
            "name": "C#5",
            "ticks": 18240,
            "time": 20.070412500000003,
            "velocity": 0.3937007874015748
          },
          {
            "duration": 0.21126749999999817,
            "durationTicks": 192,
            "midi": 70,
            "name": "A#4",
            "ticks": 18240,
            "time": 20.070412500000003,
            "velocity": 0.3937007874015748
          },
          {
            "duration": 0.21126749999999817,
            "durationTicks": 192,
            "midi": 55,
            "name": "G3",
            "ticks": 18240,
            "time": 20.070412500000003,
            "velocity": 0.3937007874015748
          },
          {
            "duration": 0.21126749999999817,
            "durationTicks": 192,
            "midi": 52,
            "name": "E3",
            "ticks": 18240,
            "time": 20.070412500000003,
            "velocity": 0.3937007874015748
          },
          {
            "duration": 0.21126749999999817,
            "durationTicks": 192,
            "midi": 48,
            "name": "C3",
            "ticks": 18240,
            "time": 20.070412500000003,
            "velocity": 0.3937007874015748
          },
          {
            "duration": 0.21126749999999817,
            "durationTicks": 192,
            "midi": 82,
            "name": "A#5",
            "ticks": 18240,
            "time": 20.070412500000003,
            "velocity": 0.3937007874015748
          },
          {
            "duration": 0.21126750000000172,
            "durationTicks": 192,
            "midi": 50,
            "name": "D3",
            "ticks": 18432,
            "time": 20.28168,
            "velocity": 0.3937007874015748
          },
          {
            "duration": 0.21126750000000172,
            "durationTicks": 192,
            "midi": 68,
            "name": "G#4",
            "ticks": 18432,
            "time": 20.28168,
            "velocity": 0.3937007874015748
          },
          {
            "duration": 0.21126750000000172,
            "durationTicks": 192,
            "midi": 38,
            "name": "D2",
            "ticks": 18432,
            "time": 20.28168,
            "velocity": 0.3937007874015748
          },
          {
            "duration": 0.21126750000000172,
            "durationTicks": 192,
            "midi": 80,
            "name": "G#5",
            "ticks": 18432,
            "time": 20.28168,
            "velocity": 0.3937007874015748
          },
          {
            "duration": 0.21126750000000172,
            "durationTicks": 192,
            "midi": 72,
            "name": "C5",
            "ticks": 18432,
            "time": 20.28168,
            "velocity": 0.3937007874015748
          },
          {
            "duration": 0.21126749999999817,
            "durationTicks": 192,
            "midi": 52,
            "name": "E3",
            "ticks": 18624,
            "time": 20.492947500000003,
            "velocity": 0.3937007874015748
          },
          {
            "duration": 0.21126749999999817,
            "durationTicks": 192,
            "midi": 67,
            "name": "G4",
            "ticks": 18624,
            "time": 20.492947500000003,
            "velocity": 0.3937007874015748
          },
          {
            "duration": 0.21126749999999817,
            "durationTicks": 192,
            "midi": 70,
            "name": "A#4",
            "ticks": 18624,
            "time": 20.492947500000003,
            "velocity": 0.3937007874015748
          },
          {
            "duration": 0.21126749999999817,
            "durationTicks": 192,
            "midi": 79,
            "name": "G5",
            "ticks": 18624,
            "time": 20.492947500000003,
            "velocity": 0.3937007874015748
          },
          {
            "duration": 0.21126749999999817,
            "durationTicks": 192,
            "midi": 40,
            "name": "E2",
            "ticks": 18624,
            "time": 20.492947500000003,
            "velocity": 0.3937007874015748
          },
          {
            "duration": 0.4225349999999999,
            "durationTicks": 384,
            "midi": 84,
            "name": "C6",
            "ticks": 18816,
            "time": 20.704215,
            "velocity": 0.3937007874015748
          },
          {
            "duration": 0.4225349999999999,
            "durationTicks": 384,
            "midi": 77,
            "name": "F5",
            "ticks": 18816,
            "time": 20.704215,
            "velocity": 0.3937007874015748
          },
          {
            "duration": 0.4225349999999999,
            "durationTicks": 384,
            "midi": 80,
            "name": "G#5",
            "ticks": 18816,
            "time": 20.704215,
            "velocity": 0.3937007874015748
          },
          {
            "duration": 0.4225349999999999,
            "durationTicks": 384,
            "midi": 72,
            "name": "C5",
            "ticks": 18816,
            "time": 20.704215,
            "velocity": 0.3937007874015748
          },
          {
            "duration": 0.21126750000000172,
            "durationTicks": 192,
            "midi": 53,
            "name": "F3",
            "ticks": 18816,
            "time": 20.704215,
            "velocity": 0.3937007874015748
          },
          {
            "duration": 0.21126750000000172,
            "durationTicks": 192,
            "midi": 41,
            "name": "F2",
            "ticks": 18816,
            "time": 20.704215,
            "velocity": 0.3937007874015748
          },
          {
            "duration": 0.21126749999999817,
            "durationTicks": 192,
            "midi": 53,
            "name": "F3",
            "ticks": 19008,
            "time": 20.915482500000003,
            "velocity": 0.3937007874015748
          },
          {
            "duration": 0.21126749999999817,
            "durationTicks": 192,
            "midi": 48,
            "name": "C3",
            "ticks": 19008,
            "time": 20.915482500000003,
            "velocity": 0.3937007874015748
          },
          {
            "duration": 0.21126749999999817,
            "durationTicks": 192,
            "midi": 56,
            "name": "G#3",
            "ticks": 19008,
            "time": 20.915482500000003,
            "velocity": 0.3937007874015748
          },
          {
            "duration": 0.4225349999999999,
            "durationTicks": 384,
            "midi": 80,
            "name": "G#5",
            "ticks": 19200,
            "time": 21.12675,
            "velocity": 0.3937007874015748
          },
          {
            "duration": 0.21126750000000172,
            "durationTicks": 192,
            "midi": 48,
            "name": "C3",
            "ticks": 19200,
            "time": 21.12675,
            "velocity": 0.3937007874015748
          },
          {
            "duration": 0.4225349999999999,
            "durationTicks": 384,
            "midi": 77,
            "name": "F5",
            "ticks": 19200,
            "time": 21.12675,
            "velocity": 0.3937007874015748
          },
          {
            "duration": 0.21126750000000172,
            "durationTicks": 192,
            "midi": 36,
            "name": "C2",
            "ticks": 19200,
            "time": 21.12675,
            "velocity": 0.3937007874015748
          },
          {
            "duration": 0.4225349999999999,
            "durationTicks": 384,
            "midi": 84,
            "name": "C6",
            "ticks": 19200,
            "time": 21.12675,
            "velocity": 0.3937007874015748
          },
          {
            "duration": 0.4225349999999999,
            "durationTicks": 384,
            "midi": 72,
            "name": "C5",
            "ticks": 19200,
            "time": 21.12675,
            "velocity": 0.3937007874015748
          },
          {
            "duration": 0.21126749999999817,
            "durationTicks": 192,
            "midi": 53,
            "name": "F3",
            "ticks": 19392,
            "time": 21.338017500000003,
            "velocity": 0.3937007874015748
          },
          {
            "duration": 0.21126749999999817,
            "durationTicks": 192,
            "midi": 48,
            "name": "C3",
            "ticks": 19392,
            "time": 21.338017500000003,
            "velocity": 0.3937007874015748
          },
          {
            "duration": 0.21126749999999817,
            "durationTicks": 192,
            "midi": 56,
            "name": "G#3",
            "ticks": 19392,
            "time": 21.338017500000003,
            "velocity": 0.3937007874015748
          },
          {
            "duration": 0.10563374999999908,
            "durationTicks": 96,
            "midi": 87,
            "name": "D#6",
            "ticks": 19536,
            "time": 21.496468125000003,
            "velocity": 0.3937007874015748
          },
          {
            "duration": 0.10563374999999908,
            "durationTicks": 96,
            "midi": 88,
            "name": "E6",
            "ticks": 19560,
            "time": 21.522876562500002,
            "velocity": 0.3937007874015748
          },
          {
            "duration": 0.21126750000000172,
            "durationTicks": 192,
            "midi": 29,
            "name": "F1",
            "ticks": 19584,
            "time": 21.549285,
            "velocity": 0.3937007874015748
          },
          {
            "duration": 0.21126750000000172,
            "durationTicks": 192,
            "midi": 41,
            "name": "F2",
            "ticks": 19584,
            "time": 21.549285,
            "velocity": 0.3937007874015748
          },
          {
            "duration": 0.4225349999999999,
            "durationTicks": 384,
            "midi": 77,
            "name": "F5",
            "ticks": 19584,
            "time": 21.549285,
            "velocity": 0.3937007874015748
          },
          {
            "duration": 0.4225349999999999,
            "durationTicks": 384,
            "midi": 89,
            "name": "F6",
            "ticks": 19584,
            "time": 21.549285,
            "velocity": 0.3937007874015748
          },
          {
            "duration": 0.21126749999999817,
            "durationTicks": 192,
            "midi": 56,
            "name": "G#3",
            "ticks": 19776,
            "time": 21.760552500000003,
            "velocity": 0.3937007874015748
          },
          {
            "duration": 0.21126749999999817,
            "durationTicks": 192,
            "midi": 48,
            "name": "C3",
            "ticks": 19776,
            "time": 21.760552500000003,
            "velocity": 0.3937007874015748
          },
          {
            "duration": 0.21126749999999817,
            "durationTicks": 192,
            "midi": 53,
            "name": "F3",
            "ticks": 19776,
            "time": 21.760552500000003,
            "velocity": 0.3937007874015748
          },
          {
            "duration": 0.4225349999999999,
            "durationTicks": 384,
            "midi": 72,
            "name": "C5",
            "ticks": 19968,
            "time": 21.97182,
            "velocity": 0.3937007874015748
          },
          {
            "duration": 0.4225349999999999,
            "durationTicks": 384,
            "midi": 84,
            "name": "C6",
            "ticks": 19968,
            "time": 21.97182,
            "velocity": 0.3937007874015748
          },
          {
            "duration": 0.21126750000000172,
            "durationTicks": 192,
            "midi": 32,
            "name": "G#1",
            "ticks": 19968,
            "time": 21.97182,
            "velocity": 0.3937007874015748
          },
          {
            "duration": 0.21126750000000172,
            "durationTicks": 192,
            "midi": 44,
            "name": "G#2",
            "ticks": 19968,
            "time": 21.97182,
            "velocity": 0.3937007874015748
          },
          {
            "duration": 0.21126749999999817,
            "durationTicks": 192,
            "midi": 48,
            "name": "C3",
            "ticks": 20160,
            "time": 22.183087500000003,
            "velocity": 0.3937007874015748
          },
          {
            "duration": 0.21126749999999817,
            "durationTicks": 192,
            "midi": 53,
            "name": "F3",
            "ticks": 20160,
            "time": 22.183087500000003,
            "velocity": 0.3937007874015748
          },
          {
            "duration": 0.21126749999999817,
            "durationTicks": 192,
            "midi": 56,
            "name": "G#3",
            "ticks": 20160,
            "time": 22.183087500000003,
            "velocity": 0.3937007874015748
          },
          {
            "duration": 0.21126750000000172,
            "durationTicks": 192,
            "midi": 43,
            "name": "G2",
            "ticks": 20352,
            "time": 22.394355,
            "velocity": 0.3937007874015748
          },
          {
            "duration": 0.21126750000000172,
            "durationTicks": 192,
            "midi": 31,
            "name": "G1",
            "ticks": 20352,
            "time": 22.394355,
            "velocity": 0.3937007874015748
          },
          {
            "duration": 0.21126750000000172,
            "durationTicks": 192,
            "midi": 75,
            "name": "D#5",
            "ticks": 20352,
            "time": 22.394355,
            "velocity": 0.3937007874015748
          },
          {
            "duration": 0.21126750000000172,
            "durationTicks": 192,
            "midi": 87,
            "name": "D#6",
            "ticks": 20352,
            "time": 22.394355,
            "velocity": 0.3937007874015748
          },
          {
            "duration": 0.21126750000000172,
            "durationTicks": 192,
            "midi": 61,
            "name": "C#4",
            "ticks": 20544,
            "time": 22.605622500000003,
            "velocity": 0.3937007874015748
          },
          {
            "duration": 0.21126750000000172,
            "durationTicks": 192,
            "midi": 73,
            "name": "C#5",
            "ticks": 20544,
            "time": 22.605622500000003,
            "velocity": 0.3937007874015748
          },
          {
            "duration": 0.21126750000000172,
            "durationTicks": 192,
            "midi": 58,
            "name": "A#3",
            "ticks": 20544,
            "time": 22.605622500000003,
            "velocity": 0.3937007874015748
          },
          {
            "duration": 0.21126750000000172,
            "durationTicks": 192,
            "midi": 85,
            "name": "C#6",
            "ticks": 20544,
            "time": 22.605622500000003,
            "velocity": 0.3937007874015748
          },
          {
            "duration": 0.21126750000000172,
            "durationTicks": 192,
            "midi": 55,
            "name": "G3",
            "ticks": 20544,
            "time": 22.605622500000003,
            "velocity": 0.3937007874015748
          },
          {
            "duration": 0.21126749999999817,
            "durationTicks": 192,
            "midi": 31,
            "name": "G1",
            "ticks": 20736,
            "time": 22.816890000000004,
            "velocity": 0.3937007874015748
          },
          {
            "duration": 0.21126749999999817,
            "durationTicks": 192,
            "midi": 72,
            "name": "C5",
            "ticks": 20736,
            "time": 22.816890000000004,
            "velocity": 0.3937007874015748
          },
          {
            "duration": 0.21126749999999817,
            "durationTicks": 192,
            "midi": 84,
            "name": "C6",
            "ticks": 20736,
            "time": 22.816890000000004,
            "velocity": 0.3937007874015748
          },
          {
            "duration": 0.21126749999999817,
            "durationTicks": 192,
            "midi": 43,
            "name": "G2",
            "ticks": 20736,
            "time": 22.816890000000004,
            "velocity": 0.3937007874015748
          },
          {
            "duration": 0.21126750000000172,
            "durationTicks": 192,
            "midi": 58,
            "name": "A#3",
            "ticks": 20928,
            "time": 23.028157500000002,
            "velocity": 0.3937007874015748
          },
          {
            "duration": 0.21126750000000172,
            "durationTicks": 192,
            "midi": 61,
            "name": "C#4",
            "ticks": 20928,
            "time": 23.028157500000002,
            "velocity": 0.3937007874015748
          },
          {
            "duration": 0.21126750000000172,
            "durationTicks": 192,
            "midi": 55,
            "name": "G3",
            "ticks": 20928,
            "time": 23.028157500000002,
            "velocity": 0.3937007874015748
          },
          {
            "duration": 0.21126750000000172,
            "durationTicks": 192,
            "midi": 85,
            "name": "C#6",
            "ticks": 20928,
            "time": 23.028157500000002,
            "velocity": 0.3937007874015748
          },
          {
            "duration": 0.21126750000000172,
            "durationTicks": 192,
            "midi": 73,
            "name": "C#5",
            "ticks": 20928,
            "time": 23.028157500000002,
            "velocity": 0.3937007874015748
          },
          {
            "duration": 0.21126749999999817,
            "durationTicks": 192,
            "midi": 34,
            "name": "A#1",
            "ticks": 21120,
            "time": 23.239425000000004,
            "velocity": 0.3937007874015748
          },
          {
            "duration": 0.21126749999999817,
            "durationTicks": 192,
            "midi": 46,
            "name": "A#2",
            "ticks": 21120,
            "time": 23.239425000000004,
            "velocity": 0.3937007874015748
          },
          {
            "duration": 0.4225349999999999,
            "durationTicks": 384,
            "midi": 70,
            "name": "A#4",
            "ticks": 21120,
            "time": 23.239425000000004,
            "velocity": 0.3937007874015748
          },
          {
            "duration": 0.4225349999999999,
            "durationTicks": 384,
            "midi": 76,
            "name": "E5",
            "ticks": 21120,
            "time": 23.239425000000004,
            "velocity": 0.3937007874015748
          },
          {
            "duration": 0.4225349999999999,
            "durationTicks": 384,
            "midi": 82,
            "name": "A#5",
            "ticks": 21120,
            "time": 23.239425000000004,
            "velocity": 0.3937007874015748
          },
          {
            "duration": 0.4225349999999999,
            "durationTicks": 384,
            "midi": 79,
            "name": "G5",
            "ticks": 21120,
            "time": 23.239425000000004,
            "velocity": 0.3937007874015748
          },
          {
            "duration": 0.21126750000000172,
            "durationTicks": 192,
            "midi": 55,
            "name": "G3",
            "ticks": 21312,
            "time": 23.450692500000002,
            "velocity": 0.3937007874015748
          },
          {
            "duration": 0.21126750000000172,
            "durationTicks": 192,
            "midi": 58,
            "name": "A#3",
            "ticks": 21312,
            "time": 23.450692500000002,
            "velocity": 0.3937007874015748
          },
          {
            "duration": 0.21126750000000172,
            "durationTicks": 192,
            "midi": 61,
            "name": "C#4",
            "ticks": 21312,
            "time": 23.450692500000002,
            "velocity": 0.3937007874015748
          },
          {
            "duration": 0.21126749999999817,
            "durationTicks": 192,
            "midi": 37,
            "name": "C#2",
            "ticks": 21504,
            "time": 23.661960000000004,
            "velocity": 0.3937007874015748
          },
          {
            "duration": 0.21126749999999817,
            "durationTicks": 192,
            "midi": 49,
            "name": "C#3",
            "ticks": 21504,
            "time": 23.661960000000004,
            "velocity": 0.3937007874015748
          },
          {
            "duration": 0.21126750000000172,
            "durationTicks": 192,
            "midi": 58,
            "name": "A#3",
            "ticks": 21696,
            "time": 23.873227500000002,
            "velocity": 0.3937007874015748
          },
          {
            "duration": 0.21126750000000172,
            "durationTicks": 192,
            "midi": 55,
            "name": "G3",
            "ticks": 21696,
            "time": 23.873227500000002,
            "velocity": 0.3937007874015748
          },
          {
            "duration": 0.21126750000000172,
            "durationTicks": 192,
            "midi": 61,
            "name": "C#4",
            "ticks": 21696,
            "time": 23.873227500000002,
            "velocity": 0.3937007874015748
          },
          {
            "duration": 0.8450699999999998,
            "durationTicks": 768,
            "midi": 84,
            "name": "C6",
            "ticks": 21888,
            "time": 24.084495000000004,
            "velocity": 0.3937007874015748
          },
          {
            "duration": 0.8450699999999998,
            "durationTicks": 768,
            "midi": 79,
            "name": "G5",
            "ticks": 21888,
            "time": 24.084495000000004,
            "velocity": 0.3937007874015748
          },
          {
            "duration": 0.21126749999999817,
            "durationTicks": 192,
            "midi": 43,
            "name": "G2",
            "ticks": 21888,
            "time": 24.084495000000004,
            "velocity": 0.3937007874015748
          },
          {
            "duration": 0.8450699999999998,
            "durationTicks": 768,
            "midi": 76,
            "name": "E5",
            "ticks": 21888,
            "time": 24.084495000000004,
            "velocity": 0.3937007874015748
          },
          {
            "duration": 0.21126749999999817,
            "durationTicks": 192,
            "midi": 55,
            "name": "G3",
            "ticks": 21888,
            "time": 24.084495000000004,
            "velocity": 0.3937007874015748
          },
          {
            "duration": 0.8450699999999998,
            "durationTicks": 768,
            "midi": 72,
            "name": "C5",
            "ticks": 21888,
            "time": 24.084495000000004,
            "velocity": 0.3937007874015748
          },
          {
            "duration": 0.21126750000000172,
            "durationTicks": 192,
            "midi": 52,
            "name": "E3",
            "ticks": 22080,
            "time": 24.295762500000002,
            "velocity": 0.3937007874015748
          },
          {
            "duration": 0.21126750000000172,
            "durationTicks": 192,
            "midi": 58,
            "name": "A#3",
            "ticks": 22080,
            "time": 24.295762500000002,
            "velocity": 0.3937007874015748
          },
          {
            "duration": 0.21126750000000172,
            "durationTicks": 192,
            "midi": 55,
            "name": "G3",
            "ticks": 22080,
            "time": 24.295762500000002,
            "velocity": 0.3937007874015748
          },
          {
            "duration": 0.21126749999999817,
            "durationTicks": 192,
            "midi": 48,
            "name": "C3",
            "ticks": 22272,
            "time": 24.507030000000004,
            "velocity": 0.3937007874015748
          },
          {
            "duration": 0.21126749999999817,
            "durationTicks": 192,
            "midi": 36,
            "name": "C2",
            "ticks": 22272,
            "time": 24.507030000000004,
            "velocity": 0.3937007874015748
          },
          {
            "duration": 0.21126750000000172,
            "durationTicks": 192,
            "midi": 58,
            "name": "A#3",
            "ticks": 22464,
            "time": 24.718297500000002,
            "velocity": 0.3937007874015748
          },
          {
            "duration": 0.21126750000000172,
            "durationTicks": 192,
            "midi": 52,
            "name": "E3",
            "ticks": 22464,
            "time": 24.718297500000002,
            "velocity": 0.3937007874015748
          },
          {
            "duration": 0.21126750000000172,
            "durationTicks": 192,
            "midi": 55,
            "name": "G3",
            "ticks": 22464,
            "time": 24.718297500000002,
            "velocity": 0.3937007874015748
          },
          {
            "duration": 0.21126749999999817,
            "durationTicks": 192,
            "midi": 52,
            "name": "E3",
            "ticks": 22656,
            "time": 24.929565000000004,
            "velocity": 0.3937007874015748
          },
          {
            "duration": 0.21126749999999817,
            "durationTicks": 192,
            "midi": 40,
            "name": "E2",
            "ticks": 22656,
            "time": 24.929565000000004,
            "velocity": 0.3937007874015748
          },
          {
            "duration": 0.21126749999999817,
            "durationTicks": 192,
            "midi": 70,
            "name": "A#4",
            "ticks": 22656,
            "time": 24.929565000000004,
            "velocity": 0.3937007874015748
          },
          {
            "duration": 0.21126749999999817,
            "durationTicks": 192,
            "midi": 82,
            "name": "A#5",
            "ticks": 22656,
            "time": 24.929565000000004,
            "velocity": 0.3937007874015748
          },
          {
            "duration": 0.21126749999999817,
            "durationTicks": 192,
            "midi": 79,
            "name": "G5",
            "ticks": 22656,
            "time": 24.929565000000004,
            "velocity": 0.3937007874015748
          },
          {
            "duration": 0.21126750000000172,
            "durationTicks": 192,
            "midi": 80,
            "name": "G#5",
            "ticks": 22848,
            "time": 25.140832500000002,
            "velocity": 0.3937007874015748
          },
          {
            "duration": 0.21126750000000172,
            "durationTicks": 192,
            "midi": 77,
            "name": "F5",
            "ticks": 22848,
            "time": 25.140832500000002,
            "velocity": 0.3937007874015748
          },
          {
            "duration": 0.21126750000000172,
            "durationTicks": 192,
            "midi": 36,
            "name": "C2",
            "ticks": 22848,
            "time": 25.140832500000002,
            "velocity": 0.3937007874015748
          },
          {
            "duration": 0.21126750000000172,
            "durationTicks": 192,
            "midi": 48,
            "name": "C3",
            "ticks": 22848,
            "time": 25.140832500000002,
            "velocity": 0.3937007874015748
          },
          {
            "duration": 0.21126750000000172,
            "durationTicks": 192,
            "midi": 68,
            "name": "G#4",
            "ticks": 22848,
            "time": 25.140832500000002,
            "velocity": 0.3937007874015748
          },
          {
            "duration": 0.21126749999999817,
            "durationTicks": 192,
            "midi": 38,
            "name": "D2",
            "ticks": 23040,
            "time": 25.352100000000004,
            "velocity": 0.3937007874015748
          },
          {
            "duration": 0.21126749999999817,
            "durationTicks": 192,
            "midi": 76,
            "name": "E5",
            "ticks": 23040,
            "time": 25.352100000000004,
            "velocity": 0.3937007874015748
          },
          {
            "duration": 0.21126749999999817,
            "durationTicks": 192,
            "midi": 67,
            "name": "G4",
            "ticks": 23040,
            "time": 25.352100000000004,
            "velocity": 0.3937007874015748
          },
          {
            "duration": 0.21126749999999817,
            "durationTicks": 192,
            "midi": 79,
            "name": "G5",
            "ticks": 23040,
            "time": 25.352100000000004,
            "velocity": 0.3937007874015748
          },
          {
            "duration": 0.21126749999999817,
            "durationTicks": 192,
            "midi": 50,
            "name": "D3",
            "ticks": 23040,
            "time": 25.352100000000004,
            "velocity": 0.3937007874015748
          },
          {
            "duration": 0.21126750000000172,
            "durationTicks": 192,
            "midi": 76,
            "name": "E5",
            "ticks": 23232,
            "time": 25.563367500000002,
            "velocity": 0.3937007874015748
          },
          {
            "duration": 0.21126750000000172,
            "durationTicks": 192,
            "midi": 80,
            "name": "G#5",
            "ticks": 23232,
            "time": 25.563367500000002,
            "velocity": 0.3937007874015748
          },
          {
            "duration": 0.21126750000000172,
            "durationTicks": 192,
            "midi": 68,
            "name": "G#4",
            "ticks": 23232,
            "time": 25.563367500000002,
            "velocity": 0.3937007874015748
          },
          {
            "duration": 0.21126750000000172,
            "durationTicks": 192,
            "midi": 40,
            "name": "E2",
            "ticks": 23232,
            "time": 25.563367500000002,
            "velocity": 0.3937007874015748
          },
          {
            "duration": 0.21126750000000172,
            "durationTicks": 192,
            "midi": 52,
            "name": "E3",
            "ticks": 23232,
            "time": 25.563367500000002,
            "velocity": 0.3937007874015748
          },
          {
            "duration": 0.21126749999999817,
            "durationTicks": 192,
            "midi": 41,
            "name": "F2",
            "ticks": 23424,
            "time": 25.774635000000004,
            "velocity": 0.3937007874015748
          },
          {
            "duration": 0.8450699999999998,
            "durationTicks": 768,
            "midi": 65,
            "name": "F4",
            "ticks": 23424,
            "time": 25.774635000000004,
            "velocity": 0.3937007874015748
          },
          {
            "duration": 0.8450699999999998,
            "durationTicks": 768,
            "midi": 77,
            "name": "F5",
            "ticks": 23424,
            "time": 25.774635000000004,
            "velocity": 0.3937007874015748
          },
          {
            "duration": 0.8450699999999998,
            "durationTicks": 768,
            "midi": 68,
            "name": "G#4",
            "ticks": 23424,
            "time": 25.774635000000004,
            "velocity": 0.3937007874015748
          },
          {
            "duration": 0.21126749999999817,
            "durationTicks": 192,
            "midi": 53,
            "name": "F3",
            "ticks": 23424,
            "time": 25.774635000000004,
            "velocity": 0.3937007874015748
          },
          {
            "duration": 0.8450699999999998,
            "durationTicks": 768,
            "midi": 72,
            "name": "C5",
            "ticks": 23424,
            "time": 25.774635000000004,
            "velocity": 0.3937007874015748
          },
          {
            "duration": 0.21126750000000172,
            "durationTicks": 192,
            "midi": 53,
            "name": "F3",
            "ticks": 23616,
            "time": 25.9859025,
            "velocity": 0.3937007874015748
          },
          {
            "duration": 0.21126750000000172,
            "durationTicks": 192,
            "midi": 48,
            "name": "C3",
            "ticks": 23616,
            "time": 25.9859025,
            "velocity": 0.3937007874015748
          },
          {
            "duration": 0.21126749999999817,
            "durationTicks": 192,
            "midi": 48,
            "name": "C3",
            "ticks": 23808,
            "time": 26.197170000000003,
            "velocity": 0.3937007874015748
          },
          {
            "duration": 0.21126749999999817,
            "durationTicks": 192,
            "midi": 36,
            "name": "C2",
            "ticks": 23808,
            "time": 26.197170000000003,
            "velocity": 0.3937007874015748
          },
          {
            "duration": 0.21126750000000172,
            "durationTicks": 192,
            "midi": 48,
            "name": "C3",
            "ticks": 24000,
            "time": 26.4084375,
            "velocity": 0.3937007874015748
          },
          {
            "duration": 0.21126750000000172,
            "durationTicks": 192,
            "midi": 53,
            "name": "F3",
            "ticks": 24000,
            "time": 26.4084375,
            "velocity": 0.3937007874015748
          },
          {
            "duration": 0.4225349999999999,
            "durationTicks": 384,
            "midi": 53,
            "name": "F3",
            "ticks": 24192,
            "time": 26.619705000000003,
            "velocity": 0.3937007874015748
          },
          {
            "duration": 0.4225349999999999,
            "durationTicks": 384,
            "midi": 29,
            "name": "F1",
            "ticks": 24192,
            "time": 26.619705000000003,
            "velocity": 0.3937007874015748
          },
          {
            "duration": 0.4225349999999999,
            "durationTicks": 384,
            "midi": 41,
            "name": "F2",
            "ticks": 24192,
            "time": 26.619705000000003,
            "velocity": 0.3937007874015748
          },
          {
            "duration": 0.21126750000000172,
            "durationTicks": 192,
            "midi": 48,
            "name": "C3",
            "ticks": 24960,
            "time": 27.464775000000003,
            "velocity": 0.3937007874015748
          },
          {
            "duration": 0.21126750000000172,
            "durationTicks": 192,
            "midi": 76,
            "name": "E5",
            "ticks": 24960,
            "time": 27.464775000000003,
            "velocity": 0.3937007874015748
          },
          {
            "duration": 0.10563374999999908,
            "durationTicks": 96,
            "midi": 84,
            "name": "C6",
            "ticks": 24960,
            "time": 27.464775000000003,
            "velocity": 0.3937007874015748
          },
          {
            "duration": 0.21126750000000172,
            "durationTicks": 192,
            "midi": 36,
            "name": "C2",
            "ticks": 24960,
            "time": 27.464775000000003,
            "velocity": 0.3937007874015748
          },
          {
            "duration": 0.10563375000000264,
            "durationTicks": 96,
            "midi": 85,
            "name": "C#6",
            "ticks": 25056,
            "time": 27.570408750000002,
            "velocity": 0.3937007874015748
          },
          {
            "duration": 0.10563374999999908,
            "durationTicks": 96,
            "midi": 84,
            "name": "C6",
            "ticks": 25152,
            "time": 27.676042500000005,
            "velocity": 0.3937007874015748
          },
          {
            "duration": 0.21126749999999817,
            "durationTicks": 192,
            "midi": 58,
            "name": "A#3",
            "ticks": 25152,
            "time": 27.676042500000005,
            "velocity": 0.3937007874015748
          },
          {
            "duration": 0.21126749999999817,
            "durationTicks": 192,
            "midi": 60,
            "name": "C4",
            "ticks": 25152,
            "time": 27.676042500000005,
            "velocity": 0.3937007874015748
          },
          {
            "duration": 0.21126749999999817,
            "durationTicks": 192,
            "midi": 52,
            "name": "E3",
            "ticks": 25152,
            "time": 27.676042500000005,
            "velocity": 0.3937007874015748
          },
          {
            "duration": 0.10563374999999908,
            "durationTicks": 96,
            "midi": 82,
            "name": "A#5",
            "ticks": 25248,
            "time": 27.781676250000004,
            "velocity": 0.3937007874015748
          },
          {
            "duration": 0.10563374999999908,
            "durationTicks": 96,
            "midi": 84,
            "name": "C6",
            "ticks": 25344,
            "time": 27.887310000000003,
            "velocity": 0.3937007874015748
          },
          {
            "duration": 0.10563374999999908,
            "durationTicks": 96,
            "midi": 79,
            "name": "G5",
            "ticks": 25344,
            "time": 27.887310000000003,
            "velocity": 0.3937007874015748
          },
          {
            "duration": 0.21126750000000172,
            "durationTicks": 192,
            "midi": 36,
            "name": "C2",
            "ticks": 25344,
            "time": 27.887310000000003,
            "velocity": 0.3937007874015748
          },
          {
            "duration": 0.21126750000000172,
            "durationTicks": 192,
            "midi": 48,
            "name": "C3",
            "ticks": 25344,
            "time": 27.887310000000003,
            "velocity": 0.3937007874015748
          },
          {
            "duration": 0.10563375000000264,
            "durationTicks": 96,
            "midi": 82,
            "name": "A#5",
            "ticks": 25440,
            "time": 27.992943750000002,
            "velocity": 0.3937007874015748
          },
          {
            "duration": 0.21126749999999817,
            "durationTicks": 192,
            "midi": 60,
            "name": "C4",
            "ticks": 25536,
            "time": 28.098577500000005,
            "velocity": 0.3937007874015748
          },
          {
            "duration": 0.10563374999999908,
            "durationTicks": 96,
            "midi": 80,
            "name": "G#5",
            "ticks": 25536,
            "time": 28.098577500000005,
            "velocity": 0.3937007874015748
          },
          {
            "duration": 0.21126749999999817,
            "durationTicks": 192,
            "midi": 52,
            "name": "E3",
            "ticks": 25536,
            "time": 28.098577500000005,
            "velocity": 0.3937007874015748
          },
          {
            "duration": 0.21126749999999817,
            "durationTicks": 192,
            "midi": 58,
            "name": "A#3",
            "ticks": 25536,
            "time": 28.098577500000005,
            "velocity": 0.3937007874015748
          },
          {
            "duration": 0.10563374999999908,
            "durationTicks": 96,
            "midi": 79,
            "name": "G5",
            "ticks": 25632,
            "time": 28.204211250000004,
            "velocity": 0.3937007874015748
          },
          {
            "duration": 0.21126750000000172,
            "durationTicks": 192,
            "midi": 53,
            "name": "F3",
            "ticks": 25728,
            "time": 28.309845000000003,
            "velocity": 0.3937007874015748
          },
          {
            "duration": 0.21126750000000172,
            "durationTicks": 192,
            "midi": 41,
            "name": "F2",
            "ticks": 25728,
            "time": 28.309845000000003,
            "velocity": 0.3937007874015748
          },
          {
            "duration": 0.21126750000000172,
            "durationTicks": 192,
            "midi": 77,
            "name": "F5",
            "ticks": 25728,
            "time": 28.309845000000003,
            "velocity": 0.3937007874015748
          },
          {
            "duration": 0.21126750000000172,
            "durationTicks": 192,
            "midi": 72,
            "name": "C5",
            "ticks": 25728,
            "time": 28.309845000000003,
            "velocity": 0.3937007874015748
          },
          {
            "duration": 0.10563374999999908,
            "durationTicks": 96,
            "midi": 77,
            "name": "F5",
            "ticks": 26496,
            "time": 29.154915000000003,
            "velocity": 0.3937007874015748
          },
          {
            "duration": 0.21126750000000172,
            "durationTicks": 192,
            "midi": 48,
            "name": "C3",
            "ticks": 26496,
            "time": 29.154915000000003,
            "velocity": 0.3937007874015748
          },
          {
            "duration": 0.21126750000000172,
            "durationTicks": 192,
            "midi": 36,
            "name": "C2",
            "ticks": 26496,
            "time": 29.154915000000003,
            "velocity": 0.3937007874015748
          },
          {
            "duration": 0.10563374999999908,
            "durationTicks": 96,
            "midi": 79,
            "name": "G5",
            "ticks": 26544,
            "time": 29.207731875000004,
            "velocity": 0.3937007874015748
          },
          {
            "duration": 0.10563374999999908,
            "durationTicks": 96,
            "midi": 76,
            "name": "E5",
            "ticks": 26544,
            "time": 29.207731875000004,
            "velocity": 0.3937007874015748
          },
          {
            "duration": 0.21126749999999817,
            "durationTicks": 192,
            "midi": 55,
            "name": "G3",
            "ticks": 26688,
            "time": 29.366182500000004,
            "velocity": 0.3937007874015748
          },
          {
            "duration": 0.10563374999999908,
            "durationTicks": 96,
            "midi": 80,
            "name": "G#5",
            "ticks": 26688,
            "time": 29.366182500000004,
            "velocity": 0.3937007874015748
          },
          {
            "duration": 0.10563374999999908,
            "durationTicks": 96,
            "midi": 76,
            "name": "E5",
            "ticks": 26688,
            "time": 29.366182500000004,
            "velocity": 0.3937007874015748
          },
          {
            "duration": 0.21126749999999817,
            "durationTicks": 192,
            "midi": 60,
            "name": "C4",
            "ticks": 26688,
            "time": 29.366182500000004,
            "velocity": 0.3937007874015748
          },
          {
            "duration": 0.21126749999999817,
            "durationTicks": 192,
            "midi": 58,
            "name": "A#3",
            "ticks": 26688,
            "time": 29.366182500000004,
            "velocity": 0.3937007874015748
          },
          {
            "duration": 0.21126750000000172,
            "durationTicks": 192,
            "midi": 48,
            "name": "C3",
            "ticks": 26880,
            "time": 29.577450000000002,
            "velocity": 0.3937007874015748
          },
          {
            "duration": 0.21126750000000172,
            "durationTicks": 192,
            "midi": 36,
            "name": "C2",
            "ticks": 26880,
            "time": 29.577450000000002,
            "velocity": 0.3937007874015748
          },
          {
            "duration": 0.10563375000000264,
            "durationTicks": 96,
            "midi": 73,
            "name": "C#5",
            "ticks": 26880,
            "time": 29.577450000000002,
            "velocity": 0.3937007874015748
          },
          {
            "duration": 0.10563375000000264,
            "durationTicks": 96,
            "midi": 82,
            "name": "A#5",
            "ticks": 26880,
            "time": 29.577450000000002,
            "velocity": 0.3937007874015748
          },
          {
            "duration": 0.10563374999999908,
            "durationTicks": 96,
            "midi": 84,
            "name": "C6",
            "ticks": 27072,
            "time": 29.788717500000004,
            "velocity": 0.3937007874015748
          },
          {
            "duration": 0.10563374999999908,
            "durationTicks": 96,
            "midi": 72,
            "name": "C5",
            "ticks": 27072,
            "time": 29.788717500000004,
            "velocity": 0.3937007874015748
          },
          {
            "duration": 0.21126749999999817,
            "durationTicks": 192,
            "midi": 60,
            "name": "C4",
            "ticks": 27072,
            "time": 29.788717500000004,
            "velocity": 0.3937007874015748
          },
          {
            "duration": 0.21126749999999817,
            "durationTicks": 192,
            "midi": 55,
            "name": "G3",
            "ticks": 27072,
            "time": 29.788717500000004,
            "velocity": 0.3937007874015748
          },
          {
            "duration": 0.21126749999999817,
            "durationTicks": 192,
            "midi": 58,
            "name": "A#3",
            "ticks": 27072,
            "time": 29.788717500000004,
            "velocity": 0.3937007874015748
          },
          {
            "duration": 0.10563375000000264,
            "durationTicks": 96,
            "midi": 85,
            "name": "C#6",
            "ticks": 27264,
            "time": 29.999985000000002,
            "velocity": 0.3937007874015748
          },
          {
            "duration": 0.10563375000000264,
            "durationTicks": 96,
            "midi": 73,
            "name": "C#5",
            "ticks": 27264,
            "time": 29.999985000000002,
            "velocity": 0.3937007874015748
          },
          {
            "duration": 0.21126750000000172,
            "durationTicks": 192,
            "midi": 43,
            "name": "G2",
            "ticks": 27264,
            "time": 29.999985000000002,
            "velocity": 0.3937007874015748
          },
          {
            "duration": 0.21126750000000172,
            "durationTicks": 192,
            "midi": 55,
            "name": "G3",
            "ticks": 27264,
            "time": 29.999985000000002,
            "velocity": 0.3937007874015748
          },
          {
            "duration": 0.10563374999999908,
            "durationTicks": 96,
            "midi": 70,
            "name": "A#4",
            "ticks": 27456,
            "time": 30.211252500000004,
            "velocity": 0.3937007874015748
          },
          {
            "duration": 0.21126749999999817,
            "durationTicks": 192,
            "midi": 52,
            "name": "E3",
            "ticks": 27456,
            "time": 30.211252500000004,
            "velocity": 0.3937007874015748
          },
          {
            "duration": 0.21126749999999817,
            "durationTicks": 192,
            "midi": 58,
            "name": "A#3",
            "ticks": 27456,
            "time": 30.211252500000004,
            "velocity": 0.3937007874015748
          },
          {
            "duration": 0.21126749999999817,
            "durationTicks": 192,
            "midi": 60,
            "name": "C4",
            "ticks": 27456,
            "time": 30.211252500000004,
            "velocity": 0.3937007874015748
          },
          {
            "duration": 0.10563374999999908,
            "durationTicks": 96,
            "midi": 82,
            "name": "A#5",
            "ticks": 27456,
            "time": 30.211252500000004,
            "velocity": 0.3937007874015748
          },
          {
            "duration": 0.4225349999999999,
            "durationTicks": 384,
            "midi": 84,
            "name": "C6",
            "ticks": 27648,
            "time": 30.422520000000002,
            "velocity": 0.3937007874015748
          },
          {
            "duration": 0.4225349999999999,
            "durationTicks": 384,
            "midi": 72,
            "name": "C5",
            "ticks": 27648,
            "time": 30.422520000000002,
            "velocity": 0.3937007874015748
          },
          {
            "duration": 0.21126750000000172,
            "durationTicks": 192,
            "midi": 43,
            "name": "G2",
            "ticks": 27648,
            "time": 30.422520000000002,
            "velocity": 0.3937007874015748
          },
          {
            "duration": 0.21126750000000172,
            "durationTicks": 192,
            "midi": 31,
            "name": "G1",
            "ticks": 27648,
            "time": 30.422520000000002,
            "velocity": 0.3937007874015748
          },
          {
            "duration": 0.21126749999999817,
            "durationTicks": 192,
            "midi": 52,
            "name": "E3",
            "ticks": 27840,
            "time": 30.633787500000004,
            "velocity": 0.3937007874015748
          },
          {
            "duration": 0.21126749999999817,
            "durationTicks": 192,
            "midi": 60,
            "name": "C4",
            "ticks": 27840,
            "time": 30.633787500000004,
            "velocity": 0.3937007874015748
          },
          {
            "duration": 0.21126749999999817,
            "durationTicks": 192,
            "midi": 58,
            "name": "A#3",
            "ticks": 27840,
            "time": 30.633787500000004,
            "velocity": 0.3937007874015748
          },
          {
            "duration": 0.21126750000000172,
            "durationTicks": 192,
            "midi": 55,
            "name": "G3",
            "ticks": 28032,
            "time": 30.845055000000002,
            "velocity": 0.3937007874015748
          },
          {
            "duration": 0.21126750000000172,
            "durationTicks": 192,
            "midi": 76,
            "name": "E5",
            "ticks": 28032,
            "time": 30.845055000000002,
            "velocity": 0.3937007874015748
          },
          {
            "duration": 0.21126750000000172,
            "durationTicks": 192,
            "midi": 43,
            "name": "G2",
            "ticks": 28032,
            "time": 30.845055000000002,
            "velocity": 0.3937007874015748
          },
          {
            "duration": 0.10563375000000264,
            "durationTicks": 96,
            "midi": 84,
            "name": "C6",
            "ticks": 28032,
            "time": 30.845055000000002,
            "velocity": 0.3937007874015748
          },
          {
            "duration": 0.10563374999999908,
            "durationTicks": 96,
            "midi": 85,
            "name": "C#6",
            "ticks": 28128,
            "time": 30.950688750000005,
            "velocity": 0.3937007874015748
          },
          {
            "duration": 0.21126749999999817,
            "durationTicks": 192,
            "midi": 60,
            "name": "C4",
            "ticks": 28224,
            "time": 31.056322500000004,
            "velocity": 0.3937007874015748
          },
          {
            "duration": 0.21126749999999817,
            "durationTicks": 192,
            "midi": 52,
            "name": "E3",
            "ticks": 28224,
            "time": 31.056322500000004,
            "velocity": 0.3937007874015748
          },
          {
            "duration": 0.21126749999999817,
            "durationTicks": 192,
            "midi": 58,
            "name": "A#3",
            "ticks": 28224,
            "time": 31.056322500000004,
            "velocity": 0.3937007874015748
          },
          {
            "duration": 0.10563374999999908,
            "durationTicks": 96,
            "midi": 84,
            "name": "C6",
            "ticks": 28224,
            "time": 31.056322500000004,
            "velocity": 0.3937007874015748
          },
          {
            "duration": 0.10563374999999908,
            "durationTicks": 96,
            "midi": 82,
            "name": "A#5",
            "ticks": 28320,
            "time": 31.161956250000003,
            "velocity": 0.3937007874015748
          },
          {
            "duration": 0.10563375000000264,
            "durationTicks": 96,
            "midi": 84,
            "name": "C6",
            "ticks": 28416,
            "time": 31.267590000000002,
            "velocity": 0.3937007874015748
          },
          {
            "duration": 0.21126750000000172,
            "durationTicks": 192,
            "midi": 36,
            "name": "C2",
            "ticks": 28416,
            "time": 31.267590000000002,
            "velocity": 0.3937007874015748
          },
          {
            "duration": 0.10563375000000264,
            "durationTicks": 96,
            "midi": 79,
            "name": "G5",
            "ticks": 28416,
            "time": 31.267590000000002,
            "velocity": 0.3937007874015748
          },
          {
            "duration": 0.21126750000000172,
            "durationTicks": 192,
            "midi": 48,
            "name": "C3",
            "ticks": 28416,
            "time": 31.267590000000002,
            "velocity": 0.3937007874015748
          },
          {
            "duration": 0.10563374999999908,
            "durationTicks": 96,
            "midi": 82,
            "name": "A#5",
            "ticks": 28512,
            "time": 31.373223750000005,
            "velocity": 0.3937007874015748
          },
          {
            "duration": 0.21126750000000172,
            "durationTicks": 192,
            "midi": 60,
            "name": "C4",
            "ticks": 28608,
            "time": 31.478857500000004,
            "velocity": 0.3937007874015748
          },
          {
            "duration": 0.21126750000000172,
            "durationTicks": 192,
            "midi": 58,
            "name": "A#3",
            "ticks": 28608,
            "time": 31.478857500000004,
            "velocity": 0.3937007874015748
          },
          {
            "duration": 0.21126750000000172,
            "durationTicks": 192,
            "midi": 52,
            "name": "E3",
            "ticks": 28608,
            "time": 31.478857500000004,
            "velocity": 0.3937007874015748
          },
          {
            "duration": 0.10563374999999908,
            "durationTicks": 96,
            "midi": 80,
            "name": "G#5",
            "ticks": 28608,
            "time": 31.478857500000004,
            "velocity": 0.3937007874015748
          },
          {
            "duration": 0.10563375000000264,
            "durationTicks": 96,
            "midi": 79,
            "name": "G5",
            "ticks": 28704,
            "time": 31.584491250000003,
            "velocity": 0.3937007874015748
          },
          {
            "duration": 0.21126749999999817,
            "durationTicks": 192,
            "midi": 41,
            "name": "F2",
            "ticks": 28800,
            "time": 31.690125000000005,
            "velocity": 0.3937007874015748
          },
          {
            "duration": 0.21126749999999817,
            "durationTicks": 192,
            "midi": 77,
            "name": "F5",
            "ticks": 28800,
            "time": 31.690125000000005,
            "velocity": 0.3937007874015748
          },
          {
            "duration": 0.21126749999999817,
            "durationTicks": 192,
            "midi": 53,
            "name": "F3",
            "ticks": 28800,
            "time": 31.690125000000005,
            "velocity": 0.3937007874015748
          },
          {
            "duration": 0.21126749999999817,
            "durationTicks": 192,
            "midi": 72,
            "name": "C5",
            "ticks": 28800,
            "time": 31.690125000000005,
            "velocity": 0.3937007874015748
          },
          {
            "duration": 0.21126750000000527,
            "durationTicks": 192,
            "midi": 84,
            "name": "C6",
            "ticks": 29568,
            "time": 32.535195,
            "velocity": 0.3937007874015748
          },
          {
            "duration": 0.21126750000000527,
            "durationTicks": 192,
            "midi": 76,
            "name": "E5",
            "ticks": 29568,
            "time": 32.535195,
            "velocity": 0.3937007874015748
          },
          {
            "duration": 0.21126750000000527,
            "durationTicks": 192,
            "midi": 72,
            "name": "C5",
            "ticks": 29568,
            "time": 32.535195,
            "velocity": 0.3937007874015748
          },
          {
            "duration": 0.21126750000000527,
            "durationTicks": 192,
            "midi": 48,
            "name": "C3",
            "ticks": 29568,
            "time": 32.535195,
            "velocity": 0.3937007874015748
          },
          {
            "duration": 0.21126750000000527,
            "durationTicks": 192,
            "midi": 36,
            "name": "C2",
            "ticks": 29568,
            "time": 32.535195,
            "velocity": 0.3937007874015748
          },
          {
            "duration": 0.21126749999999817,
            "durationTicks": 192,
            "midi": 36,
            "name": "C2",
            "ticks": 29760,
            "time": 32.74646250000001,
            "velocity": 0.3937007874015748
          },
          {
            "duration": 0.21126749999999817,
            "durationTicks": 192,
            "midi": 73,
            "name": "C#5",
            "ticks": 29760,
            "time": 32.74646250000001,
            "velocity": 0.3937007874015748
          },
          {
            "duration": 0.21126749999999817,
            "durationTicks": 192,
            "midi": 70,
            "name": "A#4",
            "ticks": 29760,
            "time": 32.74646250000001,
            "velocity": 0.3937007874015748
          },
          {
            "duration": 0.21126749999999817,
            "durationTicks": 192,
            "midi": 82,
            "name": "A#5",
            "ticks": 29760,
            "time": 32.74646250000001,
            "velocity": 0.3937007874015748
          },
          {
            "duration": 0.21126749999999817,
            "durationTicks": 192,
            "midi": 48,
            "name": "C3",
            "ticks": 29760,
            "time": 32.74646250000001,
            "velocity": 0.3937007874015748
          },
          {
            "duration": 0.21126749999999817,
            "durationTicks": 192,
            "midi": 68,
            "name": "G#4",
            "ticks": 29952,
            "time": 32.957730000000005,
            "velocity": 0.3937007874015748
          },
          {
            "duration": 0.21126749999999817,
            "durationTicks": 192,
            "midi": 72,
            "name": "C5",
            "ticks": 29952,
            "time": 32.957730000000005,
            "velocity": 0.3937007874015748
          },
          {
            "duration": 0.21126749999999817,
            "durationTicks": 192,
            "midi": 50,
            "name": "D3",
            "ticks": 29952,
            "time": 32.957730000000005,
            "velocity": 0.3937007874015748
          },
          {
            "duration": 0.21126749999999817,
            "durationTicks": 192,
            "midi": 80,
            "name": "G#5",
            "ticks": 29952,
            "time": 32.957730000000005,
            "velocity": 0.3937007874015748
          },
          {
            "duration": 0.21126749999999817,
            "durationTicks": 192,
            "midi": 38,
            "name": "D2",
            "ticks": 29952,
            "time": 32.957730000000005,
            "velocity": 0.3937007874015748
          },
          {
            "duration": 0.21126749999999817,
            "durationTicks": 192,
            "midi": 70,
            "name": "A#4",
            "ticks": 30144,
            "time": 33.1689975,
            "velocity": 0.3937007874015748
          },
          {
            "duration": 0.21126749999999817,
            "durationTicks": 192,
            "midi": 67,
            "name": "G4",
            "ticks": 30144,
            "time": 33.1689975,
            "velocity": 0.3937007874015748
          },
          {
            "duration": 0.21126749999999817,
            "durationTicks": 192,
            "midi": 52,
            "name": "E3",
            "ticks": 30144,
            "time": 33.1689975,
            "velocity": 0.3937007874015748
          },
          {
            "duration": 0.21126749999999817,
            "durationTicks": 192,
            "midi": 79,
            "name": "G5",
            "ticks": 30144,
            "time": 33.1689975,
            "velocity": 0.3937007874015748
          },
          {
            "duration": 0.21126749999999817,
            "durationTicks": 192,
            "midi": 40,
            "name": "E2",
            "ticks": 30144,
            "time": 33.1689975,
            "velocity": 0.3937007874015748
          },
          {
            "duration": 0.21126750000000527,
            "durationTicks": 192,
            "midi": 41,
            "name": "F2",
            "ticks": 30336,
            "time": 33.380265,
            "velocity": 0.3937007874015748
          },
          {
            "duration": 0.21126750000000527,
            "durationTicks": 192,
            "midi": 65,
            "name": "F4",
            "ticks": 30336,
            "time": 33.380265,
            "velocity": 0.3937007874015748
          },
          {
            "duration": 0.21126750000000527,
            "durationTicks": 192,
            "midi": 68,
            "name": "G#4",
            "ticks": 30336,
            "time": 33.380265,
            "velocity": 0.3937007874015748
          },
          {
            "duration": 0.21126750000000527,
            "durationTicks": 192,
            "midi": 77,
            "name": "F5",
            "ticks": 30336,
            "time": 33.380265,
            "velocity": 0.3937007874015748
          },
          {
            "duration": 0.21126750000000527,
            "durationTicks": 192,
            "midi": 53,
            "name": "F3",
            "ticks": 30336,
            "time": 33.380265,
            "velocity": 0.3937007874015748
          },
          {
            "duration": 0.21126749999999817,
            "durationTicks": 192,
            "midi": 64,
            "name": "E4",
            "ticks": 30720,
            "time": 33.802800000000005,
            "velocity": 0.3937007874015748
          },
          {
            "duration": 0.21126749999999817,
            "durationTicks": 192,
            "midi": 36,
            "name": "C2",
            "ticks": 30720,
            "time": 33.802800000000005,
            "velocity": 0.3937007874015748
          },
          {
            "duration": 0.21126749999999817,
            "durationTicks": 192,
            "midi": 72,
            "name": "C5",
            "ticks": 30720,
            "time": 33.802800000000005,
            "velocity": 0.3937007874015748
          },
          {
            "duration": 0.21126749999999817,
            "durationTicks": 192,
            "midi": 48,
            "name": "C3",
            "ticks": 30720,
            "time": 33.802800000000005,
            "velocity": 0.3937007874015748
          },
          {
            "duration": 0.21126749999999817,
            "durationTicks": 192,
            "midi": 70,
            "name": "A#4",
            "ticks": 30720,
            "time": 33.802800000000005,
            "velocity": 0.3937007874015748
          },
          {
            "duration": 0.10563374999999553,
            "durationTicks": 96,
            "midi": 75,
            "name": "D#5",
            "ticks": 31008,
            "time": 34.119701250000006,
            "velocity": 0.3937007874015748
          },
          {
            "duration": 0.10563375000000264,
            "durationTicks": 96,
            "midi": 76,
            "name": "E5",
            "ticks": 31056,
            "time": 34.172518125,
            "velocity": 0.3937007874015748
          },
          {
            "duration": 0.21126750000000527,
            "durationTicks": 192,
            "midi": 72,
            "name": "C5",
            "ticks": 31104,
            "time": 34.225335,
            "velocity": 0.3937007874015748
          },
          {
            "duration": 0.21126750000000527,
            "durationTicks": 192,
            "midi": 77,
            "name": "F5",
            "ticks": 31104,
            "time": 34.225335,
            "velocity": 0.3937007874015748
          },
          {
            "duration": 0.21126750000000527,
            "durationTicks": 192,
            "midi": 41,
            "name": "F2",
            "ticks": 31104,
            "time": 34.225335,
            "velocity": 0.3937007874015748
          },
          {
            "duration": 0.21126750000000527,
            "durationTicks": 192,
            "midi": 65,
            "name": "F4",
            "ticks": 31104,
            "time": 34.225335,
            "velocity": 0.3937007874015748
          },
          {
            "duration": 0.21126750000000527,
            "durationTicks": 192,
            "midi": 53,
            "name": "F3",
            "ticks": 31104,
            "time": 34.225335,
            "velocity": 0.3937007874015748
          },
          {
            "duration": 0.21126749999999817,
            "durationTicks": 192,
            "midi": 65,
            "name": "F4",
            "ticks": 31296,
            "time": 34.436602500000006,
            "velocity": 0.3937007874015748
          },
          {
            "duration": 0.21126749999999817,
            "durationTicks": 192,
            "midi": 72,
            "name": "C5",
            "ticks": 31296,
            "time": 34.436602500000006,
            "velocity": 0.3937007874015748
          },
          {
            "duration": 0.21126749999999817,
            "durationTicks": 192,
            "midi": 53,
            "name": "F3",
            "ticks": 31296,
            "time": 34.436602500000006,
            "velocity": 0.3937007874015748
          },
          {
            "duration": 0.21126749999999817,
            "durationTicks": 192,
            "midi": 56,
            "name": "G#3",
            "ticks": 31296,
            "time": 34.436602500000006,
            "velocity": 0.3937007874015748
          },
          {
            "duration": 0.21126749999999817,
            "durationTicks": 192,
            "midi": 48,
            "name": "C3",
            "ticks": 31296,
            "time": 34.436602500000006,
            "velocity": 0.3937007874015748
          },
          {
            "duration": 0.21126749999999817,
            "durationTicks": 192,
            "midi": 77,
            "name": "F5",
            "ticks": 31296,
            "time": 34.436602500000006,
            "velocity": 0.3937007874015748
          },
          {
            "duration": 0.21126749999999817,
            "durationTicks": 192,
            "midi": 48,
            "name": "C3",
            "ticks": 31488,
            "time": 34.647870000000005,
            "velocity": 0.3937007874015748
          },
          {
            "duration": 0.21126749999999817,
            "durationTicks": 192,
            "midi": 36,
            "name": "C2",
            "ticks": 31488,
            "time": 34.647870000000005,
            "velocity": 0.3937007874015748
          },
          {
            "duration": 0.10563375000000264,
            "durationTicks": 96,
            "midi": 72,
            "name": "C5",
            "ticks": 31488,
            "time": 34.647870000000005,
            "velocity": 0.3937007874015748
          },
          {
            "duration": 0.10563374999999553,
            "durationTicks": 96,
            "midi": 74,
            "name": "D5",
            "ticks": 31584,
            "time": 34.75350375000001,
            "velocity": 0.3937007874015748
          },
          {
            "duration": 0.21126749999999817,
            "durationTicks": 192,
            "midi": 56,
            "name": "G#3",
            "ticks": 31680,
            "time": 34.8591375,
            "velocity": 0.3937007874015748
          },
          {
            "duration": 0.21126749999999817,
            "durationTicks": 192,
            "midi": 48,
            "name": "C3",
            "ticks": 31680,
            "time": 34.8591375,
            "velocity": 0.3937007874015748
          },
          {
            "duration": 0.10563375000000264,
            "durationTicks": 96,
            "midi": 75,
            "name": "D#5",
            "ticks": 31680,
            "time": 34.8591375,
            "velocity": 0.3937007874015748
          },
          {
            "duration": 0.21126749999999817,
            "durationTicks": 192,
            "midi": 53,
            "name": "F3",
            "ticks": 31680,
            "time": 34.8591375,
            "velocity": 0.3937007874015748
          },
          {
            "duration": 0.10563374999999553,
            "durationTicks": 96,
            "midi": 76,
            "name": "E5",
            "ticks": 31776,
            "time": 34.964771250000005,
            "velocity": 0.3937007874015748
          },
          {
            "duration": 0.21126750000000527,
            "durationTicks": 192,
            "midi": 72,
            "name": "C5",
            "ticks": 31872,
            "time": 35.070405,
            "velocity": 0.3937007874015748
          },
          {
            "duration": 0.21126750000000527,
            "durationTicks": 192,
            "midi": 53,
            "name": "F3",
            "ticks": 31872,
            "time": 35.070405,
            "velocity": 0.3937007874015748
          },
          {
            "duration": 0.21126750000000527,
            "durationTicks": 192,
            "midi": 65,
            "name": "F4",
            "ticks": 31872,
            "time": 35.070405,
            "velocity": 0.3937007874015748
          },
          {
            "duration": 0.21126750000000527,
            "durationTicks": 192,
            "midi": 41,
            "name": "F2",
            "ticks": 31872,
            "time": 35.070405,
            "velocity": 0.3937007874015748
          },
          {
            "duration": 0.21126750000000527,
            "durationTicks": 192,
            "midi": 77,
            "name": "F5",
            "ticks": 31872,
            "time": 35.070405,
            "velocity": 0.3937007874015748
          },
          {
            "duration": 0.21126749999999817,
            "durationTicks": 192,
            "midi": 48,
            "name": "C3",
            "ticks": 32064,
            "time": 35.281672500000006,
            "velocity": 0.3937007874015748
          },
          {
            "duration": 0.21126749999999817,
            "durationTicks": 192,
            "midi": 77,
            "name": "F5",
            "ticks": 32064,
            "time": 35.281672500000006,
            "velocity": 0.3937007874015748
          },
          {
            "duration": 0.21126749999999817,
            "durationTicks": 192,
            "midi": 56,
            "name": "G#3",
            "ticks": 32064,
            "time": 35.281672500000006,
            "velocity": 0.3937007874015748
          },
          {
            "duration": 0.21126749999999817,
            "durationTicks": 192,
            "midi": 72,
            "name": "C5",
            "ticks": 32064,
            "time": 35.281672500000006,
            "velocity": 0.3937007874015748
          },
          {
            "duration": 0.21126749999999817,
            "durationTicks": 192,
            "midi": 65,
            "name": "F4",
            "ticks": 32064,
            "time": 35.281672500000006,
            "velocity": 0.3937007874015748
          },
          {
            "duration": 0.21126749999999817,
            "durationTicks": 192,
            "midi": 53,
            "name": "F3",
            "ticks": 32064,
            "time": 35.281672500000006,
            "velocity": 0.3937007874015748
          },
          {
            "duration": 0.21126749999999817,
            "durationTicks": 192,
            "midi": 48,
            "name": "C3",
            "ticks": 32256,
            "time": 35.492940000000004,
            "velocity": 0.3937007874015748
          },
          {
            "duration": 0.21126749999999817,
            "durationTicks": 192,
            "midi": 80,
            "name": "G#5",
            "ticks": 32256,
            "time": 35.492940000000004,
            "velocity": 0.3937007874015748
          },
          {
            "duration": 0.21126749999999817,
            "durationTicks": 192,
            "midi": 72,
            "name": "C5",
            "ticks": 32256,
            "time": 35.492940000000004,
            "velocity": 0.3937007874015748
          },
          {
            "duration": 0.21126749999999817,
            "durationTicks": 192,
            "midi": 36,
            "name": "C2",
            "ticks": 32256,
            "time": 35.492940000000004,
            "velocity": 0.3937007874015748
          },
          {
            "duration": 0.21126749999999817,
            "durationTicks": 192,
            "midi": 77,
            "name": "F5",
            "ticks": 32256,
            "time": 35.492940000000004,
            "velocity": 0.3937007874015748
          },
          {
            "duration": 0.21126749999999817,
            "durationTicks": 192,
            "midi": 56,
            "name": "G#3",
            "ticks": 32448,
            "time": 35.7042075,
            "velocity": 0.3937007874015748
          },
          {
            "duration": 0.10563375000000264,
            "durationTicks": 96,
            "midi": 79,
            "name": "G5",
            "ticks": 32448,
            "time": 35.7042075,
            "velocity": 0.3937007874015748
          },
          {
            "duration": 0.21126749999999817,
            "durationTicks": 192,
            "midi": 48,
            "name": "C3",
            "ticks": 32448,
            "time": 35.7042075,
            "velocity": 0.3937007874015748
          },
          {
            "duration": 0.21126749999999817,
            "durationTicks": 192,
            "midi": 53,
            "name": "F3",
            "ticks": 32448,
            "time": 35.7042075,
            "velocity": 0.3937007874015748
          },
          {
            "duration": 0.10563374999999553,
            "durationTicks": 96,
            "midi": 77,
            "name": "F5",
            "ticks": 32544,
            "time": 35.809841250000005,
            "velocity": 0.3937007874015748
          },
          {
            "duration": 0.21126750000000527,
            "durationTicks": 192,
            "midi": 79,
            "name": "G5",
            "ticks": 32640,
            "time": 35.915475,
            "velocity": 0.3937007874015748
          },
          {
            "duration": 0.21126750000000527,
            "durationTicks": 192,
            "midi": 43,
            "name": "G2",
            "ticks": 32640,
            "time": 35.915475,
            "velocity": 0.3937007874015748
          },
          {
            "duration": 0.21126750000000527,
            "durationTicks": 192,
            "midi": 72,
            "name": "C5",
            "ticks": 32640,
            "time": 35.915475,
            "velocity": 0.3937007874015748
          },
          {
            "duration": 0.21126750000000527,
            "durationTicks": 192,
            "midi": 55,
            "name": "G3",
            "ticks": 32640,
            "time": 35.915475,
            "velocity": 0.3937007874015748
          },
          {
            "duration": 0.21126750000000527,
            "durationTicks": 192,
            "midi": 76,
            "name": "E5",
            "ticks": 32640,
            "time": 35.915475,
            "velocity": 0.3937007874015748
          },
          {
            "duration": 0.21126749999999817,
            "durationTicks": 192,
            "midi": 76,
            "name": "E5",
            "ticks": 32832,
            "time": 36.126742500000006,
            "velocity": 0.3937007874015748
          },
          {
            "duration": 0.21126749999999817,
            "durationTicks": 192,
            "midi": 72,
            "name": "C5",
            "ticks": 32832,
            "time": 36.126742500000006,
            "velocity": 0.3937007874015748
          },
          {
            "duration": 0.21126749999999817,
            "durationTicks": 192,
            "midi": 55,
            "name": "G3",
            "ticks": 32832,
            "time": 36.126742500000006,
            "velocity": 0.3937007874015748
          },
          {
            "duration": 0.21126749999999817,
            "durationTicks": 192,
            "midi": 79,
            "name": "G5",
            "ticks": 32832,
            "time": 36.126742500000006,
            "velocity": 0.3937007874015748
          },
          {
            "duration": 0.21126749999999817,
            "durationTicks": 192,
            "midi": 60,
            "name": "C4",
            "ticks": 32832,
            "time": 36.126742500000006,
            "velocity": 0.3937007874015748
          },
          {
            "duration": 0.21126749999999817,
            "durationTicks": 192,
            "midi": 58,
            "name": "A#3",
            "ticks": 32832,
            "time": 36.126742500000006,
            "velocity": 0.3937007874015748
          },
          {
            "duration": 0.10563375000000264,
            "durationTicks": 96,
            "midi": 80,
            "name": "G#5",
            "ticks": 33024,
            "time": 36.338010000000004,
            "velocity": 0.3937007874015748
          },
          {
            "duration": 0.21126749999999817,
            "durationTicks": 192,
            "midi": 48,
            "name": "C3",
            "ticks": 33024,
            "time": 36.338010000000004,
            "velocity": 0.3937007874015748
          },
          {
            "duration": 0.21126749999999817,
            "durationTicks": 192,
            "midi": 36,
            "name": "C2",
            "ticks": 33024,
            "time": 36.338010000000004,
            "velocity": 0.3937007874015748
          },
          {
            "duration": 0.10563375000000264,
            "durationTicks": 96,
            "midi": 81,
            "name": "A5",
            "ticks": 33096,
            "time": 36.417235312500004,
            "velocity": 0.3937007874015748
          },
          {
            "duration": 0.10563375000000264,
            "durationTicks": 96,
            "midi": 80,
            "name": "G#5",
            "ticks": 33168,
            "time": 36.496460625000005,
            "velocity": 0.3937007874015748
          },
          {
            "duration": 0.21126750000000527,
            "durationTicks": 192,
            "midi": 58,
            "name": "A#3",
            "ticks": 33216,
            "time": 36.5492775,
            "velocity": 0.3937007874015748
          },
          {
            "duration": 0.21126750000000527,
            "durationTicks": 192,
            "midi": 60,
            "name": "C4",
            "ticks": 33216,
            "time": 36.5492775,
            "velocity": 0.3937007874015748
          },
          {
            "duration": 0.21126750000000527,
            "durationTicks": 192,
            "midi": 77,
            "name": "F5",
            "ticks": 33216,
            "time": 36.5492775,
            "velocity": 0.3937007874015748
          },
          {
            "duration": 0.21126750000000527,
            "durationTicks": 192,
            "midi": 55,
            "name": "G3",
            "ticks": 33216,
            "time": 36.5492775,
            "velocity": 0.3937007874015748
          },
          {
            "duration": 0.42253499999999633,
            "durationTicks": 384,
            "midi": 72,
            "name": "C5",
            "ticks": 33408,
            "time": 36.76054500000001,
            "velocity": 0.3937007874015748
          },
          {
            "duration": 0.42253499999999633,
            "durationTicks": 384,
            "midi": 79,
            "name": "G5",
            "ticks": 33408,
            "time": 36.76054500000001,
            "velocity": 0.3937007874015748
          },
          {
            "duration": 0.42253499999999633,
            "durationTicks": 384,
            "midi": 76,
            "name": "E5",
            "ticks": 33408,
            "time": 36.76054500000001,
            "velocity": 0.3937007874015748
          },
          {
            "duration": 0.21126749999999817,
            "durationTicks": 192,
            "midi": 55,
            "name": "G3",
            "ticks": 33408,
            "time": 36.76054500000001,
            "velocity": 0.3937007874015748
          },
          {
            "duration": 0.21126749999999817,
            "durationTicks": 192,
            "midi": 43,
            "name": "G2",
            "ticks": 33408,
            "time": 36.76054500000001,
            "velocity": 0.3937007874015748
          },
          {
            "duration": 0.42253499999999633,
            "durationTicks": 384,
            "midi": 67,
            "name": "G4",
            "ticks": 33408,
            "time": 36.76054500000001,
            "velocity": 0.3937007874015748
          },
          {
            "duration": 0.21126749999999817,
            "durationTicks": 192,
            "midi": 60,
            "name": "C4",
            "ticks": 33600,
            "time": 36.971812500000006,
            "velocity": 0.3937007874015748
          },
          {
            "duration": 0.21126749999999817,
            "durationTicks": 192,
            "midi": 55,
            "name": "G3",
            "ticks": 33600,
            "time": 36.971812500000006,
            "velocity": 0.3937007874015748
          },
          {
            "duration": 0.21126749999999817,
            "durationTicks": 192,
            "midi": 58,
            "name": "A#3",
            "ticks": 33600,
            "time": 36.971812500000006,
            "velocity": 0.3937007874015748
          },
          {
            "duration": 0.21126749999999817,
            "durationTicks": 192,
            "midi": 52,
            "name": "E3",
            "ticks": 33792,
            "time": 37.183080000000004,
            "velocity": 0.3937007874015748
          },
          {
            "duration": 0.21126749999999817,
            "durationTicks": 192,
            "midi": 40,
            "name": "E2",
            "ticks": 33792,
            "time": 37.183080000000004,
            "velocity": 0.3937007874015748
          },
          {
            "duration": 0.21126750000000527,
            "durationTicks": 192,
            "midi": 58,
            "name": "A#3",
            "ticks": 33984,
            "time": 37.3943475,
            "velocity": 0.3937007874015748
          },
          {
            "duration": 0.21126750000000527,
            "durationTicks": 192,
            "midi": 60,
            "name": "C4",
            "ticks": 33984,
            "time": 37.3943475,
            "velocity": 0.3937007874015748
          },
          {
            "duration": 0.21126750000000527,
            "durationTicks": 192,
            "midi": 55,
            "name": "G3",
            "ticks": 33984,
            "time": 37.3943475,
            "velocity": 0.3937007874015748
          },
          {
            "duration": 0.21126749999999817,
            "durationTicks": 192,
            "midi": 79,
            "name": "G5",
            "ticks": 34176,
            "time": 37.60561500000001,
            "velocity": 0.3937007874015748
          },
          {
            "duration": 0.21126749999999817,
            "durationTicks": 192,
            "midi": 76,
            "name": "E5",
            "ticks": 34176,
            "time": 37.60561500000001,
            "velocity": 0.3937007874015748
          },
          {
            "duration": 0.21126749999999817,
            "durationTicks": 192,
            "midi": 55,
            "name": "G3",
            "ticks": 34176,
            "time": 37.60561500000001,
            "velocity": 0.3937007874015748
          },
          {
            "duration": 0.21126749999999817,
            "durationTicks": 192,
            "midi": 43,
            "name": "G2",
            "ticks": 34176,
            "time": 37.60561500000001,
            "velocity": 0.3937007874015748
          },
          {
            "duration": 0.21126749999999817,
            "durationTicks": 192,
            "midi": 82,
            "name": "A#5",
            "ticks": 34176,
            "time": 37.60561500000001,
            "velocity": 0.3937007874015748
          },
          {
            "duration": 0.21126749999999817,
            "durationTicks": 192,
            "midi": 58,
            "name": "A#3",
            "ticks": 34368,
            "time": 37.816882500000006,
            "velocity": 0.3937007874015748
          },
          {
            "duration": 0.21126749999999817,
            "durationTicks": 192,
            "midi": 82,
            "name": "A#5",
            "ticks": 34368,
            "time": 37.816882500000006,
            "velocity": 0.3937007874015748
          },
          {
            "duration": 0.21126749999999817,
            "durationTicks": 192,
            "midi": 79,
            "name": "G5",
            "ticks": 34368,
            "time": 37.816882500000006,
            "velocity": 0.3937007874015748
          },
          {
            "duration": 0.21126749999999817,
            "durationTicks": 192,
            "midi": 76,
            "name": "E5",
            "ticks": 34368,
            "time": 37.816882500000006,
            "velocity": 0.3937007874015748
          },
          {
            "duration": 0.21126749999999817,
            "durationTicks": 192,
            "midi": 60,
            "name": "C4",
            "ticks": 34368,
            "time": 37.816882500000006,
            "velocity": 0.3937007874015748
          },
          {
            "duration": 0.21126749999999817,
            "durationTicks": 192,
            "midi": 55,
            "name": "G3",
            "ticks": 34368,
            "time": 37.816882500000006,
            "velocity": 0.3937007874015748
          },
          {
            "duration": 0.21126749999999817,
            "durationTicks": 192,
            "midi": 48,
            "name": "C3",
            "ticks": 34560,
            "time": 38.028150000000004,
            "velocity": 0.3937007874015748
          },
          {
            "duration": 0.21126749999999817,
            "durationTicks": 192,
            "midi": 36,
            "name": "C2",
            "ticks": 34560,
            "time": 38.028150000000004,
            "velocity": 0.3937007874015748
          },
          {
            "duration": 0.10563375000000264,
            "durationTicks": 96,
            "midi": 85,
            "name": "C#6",
            "ticks": 34560,
            "time": 38.028150000000004,
            "velocity": 0.3937007874015748
          },
          {
            "duration": 0.10563375000000264,
            "durationTicks": 96,
            "midi": 87,
            "name": "D#6",
            "ticks": 34632,
            "time": 38.107375312500004,
            "velocity": 0.3937007874015748
          },
          {
            "duration": 0.10563375000000264,
            "durationTicks": 96,
            "midi": 85,
            "name": "C#6",
            "ticks": 34704,
            "time": 38.186600625000004,
            "velocity": 0.3937007874015748
          },
          {
            "duration": 0.21126750000000527,
            "durationTicks": 192,
            "midi": 58,
            "name": "A#3",
            "ticks": 34752,
            "time": 38.2394175,
            "velocity": 0.3937007874015748
          },
          {
            "duration": 0.21126750000000527,
            "durationTicks": 192,
            "midi": 60,
            "name": "C4",
            "ticks": 34752,
            "time": 38.2394175,
            "velocity": 0.3937007874015748
          },
          {
            "duration": 0.21126750000000527,
            "durationTicks": 192,
            "midi": 55,
            "name": "G3",
            "ticks": 34752,
            "time": 38.2394175,
            "velocity": 0.3937007874015748
          },
          {
            "duration": 0.10563375000000264,
            "durationTicks": 96,
            "midi": 84,
            "name": "C6",
            "ticks": 34776,
            "time": 38.265825937500004,
            "velocity": 0.3937007874015748
          },
          {
            "duration": 0.10563375000000264,
            "durationTicks": 96,
            "midi": 82,
            "name": "A#5",
            "ticks": 34848,
            "time": 38.345051250000004,
            "velocity": 0.3937007874015748
          },
          {
            "duration": 0.21126749999999817,
            "durationTicks": 192,
            "midi": 55,
            "name": "G3",
            "ticks": 34944,
            "time": 38.45068500000001,
            "velocity": 0.3937007874015748
          },
          {
            "duration": 0.21126749999999817,
            "durationTicks": 192,
            "midi": 43,
            "name": "G2",
            "ticks": 34944,
            "time": 38.45068500000001,
            "velocity": 0.3937007874015748
          },
          {
            "duration": 0.21126749999999817,
            "durationTicks": 192,
            "midi": 76,
            "name": "E5",
            "ticks": 34944,
            "time": 38.45068500000001,
            "velocity": 0.3937007874015748
          },
          {
            "duration": 0.21126749999999817,
            "durationTicks": 192,
            "midi": 79,
            "name": "G5",
            "ticks": 34944,
            "time": 38.45068500000001,
            "velocity": 0.3937007874015748
          },
          {
            "duration": 0.21126749999999817,
            "durationTicks": 192,
            "midi": 84,
            "name": "C6",
            "ticks": 34944,
            "time": 38.45068500000001,
            "velocity": 0.3937007874015748
          },
          {
            "duration": 0.21126749999999817,
            "durationTicks": 192,
            "midi": 76,
            "name": "E5",
            "ticks": 35136,
            "time": 38.661952500000005,
            "velocity": 0.3937007874015748
          },
          {
            "duration": 0.21126749999999817,
            "durationTicks": 192,
            "midi": 84,
            "name": "C6",
            "ticks": 35136,
            "time": 38.661952500000005,
            "velocity": 0.3937007874015748
          },
          {
            "duration": 0.21126749999999817,
            "durationTicks": 192,
            "midi": 55,
            "name": "G3",
            "ticks": 35136,
            "time": 38.661952500000005,
            "velocity": 0.3937007874015748
          },
          {
            "duration": 0.21126749999999817,
            "durationTicks": 192,
            "midi": 60,
            "name": "C4",
            "ticks": 35136,
            "time": 38.661952500000005,
            "velocity": 0.3937007874015748
          },
          {
            "duration": 0.21126749999999817,
            "durationTicks": 192,
            "midi": 79,
            "name": "G5",
            "ticks": 35136,
            "time": 38.661952500000005,
            "velocity": 0.3937007874015748
          },
          {
            "duration": 0.21126749999999817,
            "durationTicks": 192,
            "midi": 58,
            "name": "A#3",
            "ticks": 35136,
            "time": 38.661952500000005,
            "velocity": 0.3937007874015748
          },
          {
            "duration": 0.10563375000000264,
            "durationTicks": 96,
            "midi": 85,
            "name": "C#6",
            "ticks": 35328,
            "time": 38.87322,
            "velocity": 0.3937007874015748
          },
          {
            "duration": 0.21126749999999817,
            "durationTicks": 192,
            "midi": 48,
            "name": "C3",
            "ticks": 35328,
            "time": 38.87322,
            "velocity": 0.3937007874015748
          },
          {
            "duration": 0.21126749999999817,
            "durationTicks": 192,
            "midi": 36,
            "name": "C2",
            "ticks": 35328,
            "time": 38.87322,
            "velocity": 0.3937007874015748
          },
          {
            "duration": 0.10563375000000264,
            "durationTicks": 96,
            "midi": 87,
            "name": "D#6",
            "ticks": 35400,
            "time": 38.952445312500004,
            "velocity": 0.3937007874015748
          },
          {
            "duration": 0.10563375000000264,
            "durationTicks": 96,
            "midi": 85,
            "name": "C#6",
            "ticks": 35472,
            "time": 39.031670625000004,
            "velocity": 0.3937007874015748
          },
          {
            "duration": 0.21126750000000527,
            "durationTicks": 192,
            "midi": 58,
            "name": "A#3",
            "ticks": 35520,
            "time": 39.0844875,
            "velocity": 0.3937007874015748
          },
          {
            "duration": 0.21126750000000527,
            "durationTicks": 192,
            "midi": 60,
            "name": "C4",
            "ticks": 35520,
            "time": 39.0844875,
            "velocity": 0.3937007874015748
          },
          {
            "duration": 0.21126750000000527,
            "durationTicks": 192,
            "midi": 55,
            "name": "G3",
            "ticks": 35520,
            "time": 39.0844875,
            "velocity": 0.3937007874015748
          },
          {
            "duration": 0.10563375000000264,
            "durationTicks": 96,
            "midi": 84,
            "name": "C6",
            "ticks": 35544,
            "time": 39.110895937500004,
            "velocity": 0.3937007874015748
          },
          {
            "duration": 0.10563375000000264,
            "durationTicks": 96,
            "midi": 82,
            "name": "A#5",
            "ticks": 35616,
            "time": 39.190121250000004,
            "velocity": 0.3937007874015748
          },
          {
            "duration": 0.21126749999999817,
            "durationTicks": 192,
            "midi": 72,
            "name": "C5",
            "ticks": 35712,
            "time": 39.29575500000001,
            "velocity": 0.3937007874015748
          },
          {
            "duration": 0.21126749999999817,
            "durationTicks": 192,
            "midi": 52,
            "name": "E3",
            "ticks": 35712,
            "time": 39.29575500000001,
            "velocity": 0.3937007874015748
          },
          {
            "duration": 0.21126749999999817,
            "durationTicks": 192,
            "midi": 76,
            "name": "E5",
            "ticks": 35712,
            "time": 39.29575500000001,
            "velocity": 0.3937007874015748
          },
          {
            "duration": 0.21126749999999817,
            "durationTicks": 192,
            "midi": 80,
            "name": "G#5",
            "ticks": 35712,
            "time": 39.29575500000001,
            "velocity": 0.3937007874015748
          },
          {
            "duration": 0.21126749999999817,
            "durationTicks": 192,
            "midi": 40,
            "name": "E2",
            "ticks": 35712,
            "time": 39.29575500000001,
            "velocity": 0.3937007874015748
          },
          {
            "duration": 0.21126749999999817,
            "durationTicks": 192,
            "midi": 72,
            "name": "C5",
            "ticks": 35904,
            "time": 39.507022500000005,
            "velocity": 0.3937007874015748
          },
          {
            "duration": 0.21126749999999817,
            "durationTicks": 192,
            "midi": 80,
            "name": "G#5",
            "ticks": 35904,
            "time": 39.507022500000005,
            "velocity": 0.3937007874015748
          },
          {
            "duration": 0.21126749999999817,
            "durationTicks": 192,
            "midi": 60,
            "name": "C4",
            "ticks": 35904,
            "time": 39.507022500000005,
            "velocity": 0.3937007874015748
          },
          {
            "duration": 0.21126749999999817,
            "durationTicks": 192,
            "midi": 76,
            "name": "E5",
            "ticks": 35904,
            "time": 39.507022500000005,
            "velocity": 0.3937007874015748
          },
          {
            "duration": 0.21126749999999817,
            "durationTicks": 192,
            "midi": 58,
            "name": "A#3",
            "ticks": 35904,
            "time": 39.507022500000005,
            "velocity": 0.3937007874015748
          },
          {
            "duration": 0.21126749999999817,
            "durationTicks": 192,
            "midi": 55,
            "name": "G3",
            "ticks": 35904,
            "time": 39.507022500000005,
            "velocity": 0.3937007874015748
          },
          {
            "duration": 0.21126749999999817,
            "durationTicks": 192,
            "midi": 43,
            "name": "G2",
            "ticks": 36096,
            "time": 39.71829,
            "velocity": 0.3937007874015748
          },
          {
            "duration": 0.10563375000000264,
            "durationTicks": 96,
            "midi": 82,
            "name": "A#5",
            "ticks": 36096,
            "time": 39.71829,
            "velocity": 0.3937007874015748
          },
          {
            "duration": 0.21126749999999817,
            "durationTicks": 192,
            "midi": 55,
            "name": "G3",
            "ticks": 36096,
            "time": 39.71829,
            "velocity": 0.3937007874015748
          },
          {
            "duration": 0.10563374999999553,
            "durationTicks": 96,
            "midi": 84,
            "name": "C6",
            "ticks": 36192,
            "time": 39.823923750000006,
            "velocity": 0.3937007874015748
          },
          {
            "duration": 0.21126750000000527,
            "durationTicks": 192,
            "midi": 58,
            "name": "A#3",
            "ticks": 36288,
            "time": 39.9295575,
            "velocity": 0.3937007874015748
          },
          {
            "duration": 0.21126750000000527,
            "durationTicks": 192,
            "midi": 60,
            "name": "C4",
            "ticks": 36288,
            "time": 39.9295575,
            "velocity": 0.3937007874015748
          },
          {
            "duration": 0.21126750000000527,
            "durationTicks": 192,
            "midi": 55,
            "name": "G3",
            "ticks": 36288,
            "time": 39.9295575,
            "velocity": 0.3937007874015748
          },
          {
            "duration": 0.10563375000000264,
            "durationTicks": 96,
            "midi": 82,
            "name": "A#5",
            "ticks": 36288,
            "time": 39.9295575,
            "velocity": 0.3937007874015748
          },
          {
            "duration": 0.10563375000000264,
            "durationTicks": 96,
            "midi": 79,
            "name": "G5",
            "ticks": 36384,
            "time": 40.035191250000004,
            "velocity": 0.3937007874015748
          },
          {
            "duration": 0.21126749999999817,
            "durationTicks": 192,
            "midi": 44,
            "name": "G#2",
            "ticks": 36480,
            "time": 40.14082500000001,
            "velocity": 0.3937007874015748
          },
          {
            "duration": 0.42253499999999633,
            "durationTicks": 384,
            "midi": 72,
            "name": "C5",
            "ticks": 36480,
            "time": 40.14082500000001,
            "velocity": 0.3937007874015748
          },
          {
            "duration": 0.21126749999999817,
            "durationTicks": 192,
            "midi": 56,
            "name": "G#3",
            "ticks": 36480,
            "time": 40.14082500000001,
            "velocity": 0.3937007874015748
          },
          {
            "duration": 0.42253499999999633,
            "durationTicks": 384,
            "midi": 77,
            "name": "F5",
            "ticks": 36480,
            "time": 40.14082500000001,
            "velocity": 0.3937007874015748
          },
          {
            "duration": 0.42253499999999633,
            "durationTicks": 384,
            "midi": 68,
            "name": "G#4",
            "ticks": 36480,
            "time": 40.14082500000001,
            "velocity": 0.3937007874015748
          },
          {
            "duration": 0.21126749999999817,
            "durationTicks": 192,
            "midi": 56,
            "name": "G#3",
            "ticks": 36672,
            "time": 40.352092500000005,
            "velocity": 0.3937007874015748
          },
          {
            "duration": 0.21126749999999817,
            "durationTicks": 192,
            "midi": 53,
            "name": "F3",
            "ticks": 36672,
            "time": 40.352092500000005,
            "velocity": 0.3937007874015748
          },
          {
            "duration": 0.21126749999999817,
            "durationTicks": 192,
            "midi": 48,
            "name": "C3",
            "ticks": 36672,
            "time": 40.352092500000005,
            "velocity": 0.3937007874015748
          },
          {
            "duration": 0.21126750000000527,
            "durationTicks": 192,
            "midi": 72,
            "name": "C5",
            "ticks": 36864,
            "time": 40.56336,
            "velocity": 0.3937007874015748
          },
          {
            "duration": 0.21126750000000527,
            "durationTicks": 192,
            "midi": 60,
            "name": "C4",
            "ticks": 36864,
            "time": 40.56336,
            "velocity": 0.3937007874015748
          },
          {
            "duration": 0.21126750000000527,
            "durationTicks": 192,
            "midi": 36,
            "name": "C2",
            "ticks": 36864,
            "time": 40.56336,
            "velocity": 0.3937007874015748
          },
          {
            "duration": 0.21126750000000527,
            "durationTicks": 192,
            "midi": 48,
            "name": "C3",
            "ticks": 36864,
            "time": 40.56336,
            "velocity": 0.3937007874015748
          },
          {
            "duration": 0.21126749999999817,
            "durationTicks": 192,
            "midi": 48,
            "name": "C3",
            "ticks": 37056,
            "time": 40.77462750000001,
            "velocity": 0.3937007874015748
          },
          {
            "duration": 0.21126749999999817,
            "durationTicks": 192,
            "midi": 56,
            "name": "G#3",
            "ticks": 37056,
            "time": 40.77462750000001,
            "velocity": 0.3937007874015748
          },
          {
            "duration": 0.21126749999999817,
            "durationTicks": 192,
            "midi": 53,
            "name": "F3",
            "ticks": 37056,
            "time": 40.77462750000001,
            "velocity": 0.3937007874015748
          },
          {
            "duration": 0.10563375000000264,
            "durationTicks": 96,
            "midi": 75,
            "name": "D#5",
            "ticks": 37152,
            "time": 40.880261250000004,
            "velocity": 0.3937007874015748
          },
          {
            "duration": 0.10563375000000264,
            "durationTicks": 96,
            "midi": 76,
            "name": "E5",
            "ticks": 37200,
            "time": 40.933078125,
            "velocity": 0.3937007874015748
          },
          {
            "duration": 0.21126749999999817,
            "durationTicks": 192,
            "midi": 53,
            "name": "F3",
            "ticks": 37248,
            "time": 40.985895000000006,
            "velocity": 0.3937007874015748
          },
          {
            "duration": 0.21126749999999817,
            "durationTicks": 192,
            "midi": 77,
            "name": "F5",
            "ticks": 37248,
            "time": 40.985895000000006,
            "velocity": 0.3937007874015748
          },
          {
            "duration": 0.21126749999999817,
            "durationTicks": 192,
            "midi": 41,
            "name": "F2",
            "ticks": 37248,
            "time": 40.985895000000006,
            "velocity": 0.3937007874015748
          },
          {
            "duration": 0.21126749999999817,
            "durationTicks": 192,
            "midi": 72,
            "name": "C5",
            "ticks": 37248,
            "time": 40.985895000000006,
            "velocity": 0.3937007874015748
          },
          {
            "duration": 0.21126749999999817,
            "durationTicks": 192,
            "midi": 65,
            "name": "F4",
            "ticks": 37248,
            "time": 40.985895000000006,
            "velocity": 0.3937007874015748
          },
          {
            "duration": 0.21126749999999817,
            "durationTicks": 192,
            "midi": 53,
            "name": "F3",
            "ticks": 37440,
            "time": 41.197162500000005,
            "velocity": 0.3937007874015748
          },
          {
            "duration": 0.21126749999999817,
            "durationTicks": 192,
            "midi": 72,
            "name": "C5",
            "ticks": 37440,
            "time": 41.197162500000005,
            "velocity": 0.3937007874015748
          },
          {
            "duration": 0.21126749999999817,
            "durationTicks": 192,
            "midi": 48,
            "name": "C3",
            "ticks": 37440,
            "time": 41.197162500000005,
            "velocity": 0.3937007874015748
          },
          {
            "duration": 0.21126749999999817,
            "durationTicks": 192,
            "midi": 65,
            "name": "F4",
            "ticks": 37440,
            "time": 41.197162500000005,
            "velocity": 0.3937007874015748
          },
          {
            "duration": 0.21126749999999817,
            "durationTicks": 192,
            "midi": 56,
            "name": "G#3",
            "ticks": 37440,
            "time": 41.197162500000005,
            "velocity": 0.3937007874015748
          },
          {
            "duration": 0.21126749999999817,
            "durationTicks": 192,
            "midi": 77,
            "name": "F5",
            "ticks": 37440,
            "time": 41.197162500000005,
            "velocity": 0.3937007874015748
          },
          {
            "duration": 0.21126750000000527,
            "durationTicks": 192,
            "midi": 48,
            "name": "C3",
            "ticks": 37632,
            "time": 41.40843,
            "velocity": 0.3937007874015748
          },
          {
            "duration": 0.21126750000000527,
            "durationTicks": 192,
            "midi": 36,
            "name": "C2",
            "ticks": 37632,
            "time": 41.40843,
            "velocity": 0.3937007874015748
          },
          {
            "duration": 0.10563375000000264,
            "durationTicks": 96,
            "midi": 72,
            "name": "C5",
            "ticks": 37632,
            "time": 41.40843,
            "velocity": 0.3937007874015748
          },
          {
            "duration": 0.10563375000000264,
            "durationTicks": 96,
            "midi": 74,
            "name": "D5",
            "ticks": 37728,
            "time": 41.514063750000005,
            "velocity": 0.3937007874015748
          },
          {
            "duration": 0.21126749999999817,
            "durationTicks": 192,
            "midi": 53,
            "name": "F3",
            "ticks": 37824,
            "time": 41.61969750000001,
            "velocity": 0.3937007874015748
          },
          {
            "duration": 0.21126749999999817,
            "durationTicks": 192,
            "midi": 48,
            "name": "C3",
            "ticks": 37824,
            "time": 41.61969750000001,
            "velocity": 0.3937007874015748
          },
          {
            "duration": 0.21126749999999817,
            "durationTicks": 192,
            "midi": 56,
            "name": "G#3",
            "ticks": 37824,
            "time": 41.61969750000001,
            "velocity": 0.3937007874015748
          },
          {
            "duration": 0.10563374999999553,
            "durationTicks": 96,
            "midi": 75,
            "name": "D#5",
            "ticks": 37824,
            "time": 41.61969750000001,
            "velocity": 0.3937007874015748
          },
          {
            "duration": 0.10563375000000264,
            "durationTicks": 96,
            "midi": 76,
            "name": "E5",
            "ticks": 37920,
            "time": 41.72533125,
            "velocity": 0.3937007874015748
          },
          {
            "duration": 0.21126749999999817,
            "durationTicks": 192,
            "midi": 65,
            "name": "F4",
            "ticks": 38016,
            "time": 41.830965000000006,
            "velocity": 0.3937007874015748
          },
          {
            "duration": 0.21126749999999817,
            "durationTicks": 192,
            "midi": 77,
            "name": "F5",
            "ticks": 38016,
            "time": 41.830965000000006,
            "velocity": 0.3937007874015748
          },
          {
            "duration": 0.21126749999999817,
            "durationTicks": 192,
            "midi": 72,
            "name": "C5",
            "ticks": 38016,
            "time": 41.830965000000006,
            "velocity": 0.3937007874015748
          },
          {
            "duration": 0.21126749999999817,
            "durationTicks": 192,
            "midi": 41,
            "name": "F2",
            "ticks": 38016,
            "time": 41.830965000000006,
            "velocity": 0.3937007874015748
          },
          {
            "duration": 0.21126749999999817,
            "durationTicks": 192,
            "midi": 53,
            "name": "F3",
            "ticks": 38016,
            "time": 41.830965000000006,
            "velocity": 0.3937007874015748
          },
          {
            "duration": 0.21126749999999817,
            "durationTicks": 192,
            "midi": 56,
            "name": "G#3",
            "ticks": 38208,
            "time": 42.042232500000004,
            "velocity": 0.3937007874015748
          },
          {
            "duration": 0.21126749999999817,
            "durationTicks": 192,
            "midi": 72,
            "name": "C5",
            "ticks": 38208,
            "time": 42.042232500000004,
            "velocity": 0.3937007874015748
          },
          {
            "duration": 0.21126749999999817,
            "durationTicks": 192,
            "midi": 65,
            "name": "F4",
            "ticks": 38208,
            "time": 42.042232500000004,
            "velocity": 0.3937007874015748
          },
          {
            "duration": 0.21126749999999817,
            "durationTicks": 192,
            "midi": 53,
            "name": "F3",
            "ticks": 38208,
            "time": 42.042232500000004,
            "velocity": 0.3937007874015748
          },
          {
            "duration": 0.21126749999999817,
            "durationTicks": 192,
            "midi": 77,
            "name": "F5",
            "ticks": 38208,
            "time": 42.042232500000004,
            "velocity": 0.3937007874015748
          },
          {
            "duration": 0.21126749999999817,
            "durationTicks": 192,
            "midi": 48,
            "name": "C3",
            "ticks": 38208,
            "time": 42.042232500000004,
            "velocity": 0.3937007874015748
          },
          {
            "duration": 0.21126750000000527,
            "durationTicks": 192,
            "midi": 80,
            "name": "G#5",
            "ticks": 38400,
            "time": 42.2535,
            "velocity": 0.3937007874015748
          },
          {
            "duration": 0.21126750000000527,
            "durationTicks": 192,
            "midi": 77,
            "name": "F5",
            "ticks": 38400,
            "time": 42.2535,
            "velocity": 0.3937007874015748
          },
          {
            "duration": 0.21126750000000527,
            "durationTicks": 192,
            "midi": 48,
            "name": "C3",
            "ticks": 38400,
            "time": 42.2535,
            "velocity": 0.3937007874015748
          },
          {
            "duration": 0.21126750000000527,
            "durationTicks": 192,
            "midi": 36,
            "name": "C2",
            "ticks": 38400,
            "time": 42.2535,
            "velocity": 0.3937007874015748
          },
          {
            "duration": 0.21126750000000527,
            "durationTicks": 192,
            "midi": 72,
            "name": "C5",
            "ticks": 38400,
            "time": 42.2535,
            "velocity": 0.3937007874015748
          },
          {
            "duration": 0.21126749999999817,
            "durationTicks": 192,
            "midi": 53,
            "name": "F3",
            "ticks": 38592,
            "time": 42.46476750000001,
            "velocity": 0.3937007874015748
          },
          {
            "duration": 0.10563374999999553,
            "durationTicks": 96,
            "midi": 79,
            "name": "G5",
            "ticks": 38592,
            "time": 42.46476750000001,
            "velocity": 0.3937007874015748
          },
          {
            "duration": 0.21126749999999817,
            "durationTicks": 192,
            "midi": 56,
            "name": "G#3",
            "ticks": 38592,
            "time": 42.46476750000001,
            "velocity": 0.3937007874015748
          },
          {
            "duration": 0.21126749999999817,
            "durationTicks": 192,
            "midi": 48,
            "name": "C3",
            "ticks": 38592,
            "time": 42.46476750000001,
            "velocity": 0.3937007874015748
          },
          {
            "duration": 0.10563375000000264,
            "durationTicks": 96,
            "midi": 77,
            "name": "F5",
            "ticks": 38688,
            "time": 42.57040125,
            "velocity": 0.3937007874015748
          },
          {
            "duration": 0.21126749999999817,
            "durationTicks": 192,
            "midi": 72,
            "name": "C5",
            "ticks": 38784,
            "time": 42.676035000000006,
            "velocity": 0.3937007874015748
          },
          {
            "duration": 0.21126749999999817,
            "durationTicks": 192,
            "midi": 55,
            "name": "G3",
            "ticks": 38784,
            "time": 42.676035000000006,
            "velocity": 0.3937007874015748
          },
          {
            "duration": 0.21126749999999817,
            "durationTicks": 192,
            "midi": 76,
            "name": "E5",
            "ticks": 38784,
            "time": 42.676035000000006,
            "velocity": 0.3937007874015748
          },
          {
            "duration": 0.21126749999999817,
            "durationTicks": 192,
            "midi": 79,
            "name": "G5",
            "ticks": 38784,
            "time": 42.676035000000006,
            "velocity": 0.3937007874015748
          },
          {
            "duration": 0.21126749999999817,
            "durationTicks": 192,
            "midi": 43,
            "name": "G2",
            "ticks": 38784,
            "time": 42.676035000000006,
            "velocity": 0.3937007874015748
          },
          {
            "duration": 0.21126749999999817,
            "durationTicks": 192,
            "midi": 76,
            "name": "E5",
            "ticks": 38976,
            "time": 42.887302500000004,
            "velocity": 0.3937007874015748
          },
          {
            "duration": 0.21126749999999817,
            "durationTicks": 192,
            "midi": 79,
            "name": "G5",
            "ticks": 38976,
            "time": 42.887302500000004,
            "velocity": 0.3937007874015748
          },
          {
            "duration": 0.21126749999999817,
            "durationTicks": 192,
            "midi": 72,
            "name": "C5",
            "ticks": 38976,
            "time": 42.887302500000004,
            "velocity": 0.3937007874015748
          },
          {
            "duration": 0.21126749999999817,
            "durationTicks": 192,
            "midi": 55,
            "name": "G3",
            "ticks": 38976,
            "time": 42.887302500000004,
            "velocity": 0.3937007874015748
          },
          {
            "duration": 0.21126749999999817,
            "durationTicks": 192,
            "midi": 58,
            "name": "A#3",
            "ticks": 38976,
            "time": 42.887302500000004,
            "velocity": 0.3937007874015748
          },
          {
            "duration": 0.21126749999999817,
            "durationTicks": 192,
            "midi": 60,
            "name": "C4",
            "ticks": 38976,
            "time": 42.887302500000004,
            "velocity": 0.3937007874015748
          },
          {
            "duration": 0.21126750000000527,
            "durationTicks": 192,
            "midi": 43,
            "name": "G2",
            "ticks": 39168,
            "time": 43.09857,
            "velocity": 0.3937007874015748
          },
          {
            "duration": 0.21126750000000527,
            "durationTicks": 192,
            "midi": 55,
            "name": "G3",
            "ticks": 39168,
            "time": 43.09857,
            "velocity": 0.3937007874015748
          },
          {
            "duration": 0.10563375000000264,
            "durationTicks": 96,
            "midi": 80,
            "name": "G#5",
            "ticks": 39168,
            "time": 43.09857,
            "velocity": 0.3937007874015748
          },
          {
            "duration": 0.10563375000000264,
            "durationTicks": 96,
            "midi": 82,
            "name": "A#5",
            "ticks": 39240,
            "time": 43.1777953125,
            "velocity": 0.3937007874015748
          },
          {
            "duration": 0.10563375000000264,
            "durationTicks": 96,
            "midi": 80,
            "name": "G#5",
            "ticks": 39312,
            "time": 43.257020625,
            "velocity": 0.3937007874015748
          },
          {
            "duration": 0.21126749999999817,
            "durationTicks": 192,
            "midi": 77,
            "name": "F5",
            "ticks": 39360,
            "time": 43.30983750000001,
            "velocity": 0.3937007874015748
          },
          {
            "duration": 0.21126749999999817,
            "durationTicks": 192,
            "midi": 60,
            "name": "C4",
            "ticks": 39360,
            "time": 43.30983750000001,
            "velocity": 0.3937007874015748
          },
          {
            "duration": 0.21126749999999817,
            "durationTicks": 192,
            "midi": 58,
            "name": "A#3",
            "ticks": 39360,
            "time": 43.30983750000001,
            "velocity": 0.3937007874015748
          },
          {
            "duration": 0.21126749999999817,
            "durationTicks": 192,
            "midi": 55,
            "name": "G3",
            "ticks": 39360,
            "time": 43.30983750000001,
            "velocity": 0.3937007874015748
          },
          {
            "duration": 0.21126749999999817,
            "durationTicks": 192,
            "midi": 36,
            "name": "C2",
            "ticks": 39552,
            "time": 43.521105000000006,
            "velocity": 0.3937007874015748
          },
          {
            "duration": 0.21126749999999817,
            "durationTicks": 192,
            "midi": 48,
            "name": "C3",
            "ticks": 39552,
            "time": 43.521105000000006,
            "velocity": 0.3937007874015748
          },
          {
            "duration": 0.42253499999999633,
            "durationTicks": 384,
            "midi": 79,
            "name": "G5",
            "ticks": 39552,
            "time": 43.521105000000006,
            "velocity": 0.3937007874015748
          },
          {
            "duration": 0.42253499999999633,
            "durationTicks": 384,
            "midi": 72,
            "name": "C5",
            "ticks": 39552,
            "time": 43.521105000000006,
            "velocity": 0.3937007874015748
          },
          {
            "duration": 0.42253499999999633,
            "durationTicks": 384,
            "midi": 76,
            "name": "E5",
            "ticks": 39552,
            "time": 43.521105000000006,
            "velocity": 0.3937007874015748
          },
          {
            "duration": 0.42253499999999633,
            "durationTicks": 384,
            "midi": 67,
            "name": "G4",
            "ticks": 39552,
            "time": 43.521105000000006,
            "velocity": 0.3937007874015748
          },
          {
            "duration": 0.21126749999999817,
            "durationTicks": 192,
            "midi": 60,
            "name": "C4",
            "ticks": 39744,
            "time": 43.732372500000004,
            "velocity": 0.3937007874015748
          },
          {
            "duration": 0.21126749999999817,
            "durationTicks": 192,
            "midi": 55,
            "name": "G3",
            "ticks": 39744,
            "time": 43.732372500000004,
            "velocity": 0.3937007874015748
          },
          {
            "duration": 0.21126749999999817,
            "durationTicks": 192,
            "midi": 58,
            "name": "A#3",
            "ticks": 39744,
            "time": 43.732372500000004,
            "velocity": 0.3937007874015748
          },
          {
            "duration": 0.21126750000000527,
            "durationTicks": 192,
            "midi": 48,
            "name": "C3",
            "ticks": 39936,
            "time": 43.94364,
            "velocity": 0.3937007874015748
          },
          {
            "duration": 0.21126750000000527,
            "durationTicks": 192,
            "midi": 36,
            "name": "C2",
            "ticks": 39936,
            "time": 43.94364,
            "velocity": 0.3937007874015748
          },
          {
            "duration": 0.21126749999999817,
            "durationTicks": 192,
            "midi": 60,
            "name": "C4",
            "ticks": 40128,
            "time": 44.15490750000001,
            "velocity": 0.3937007874015748
          },
          {
            "duration": 0.21126749999999817,
            "durationTicks": 192,
            "midi": 55,
            "name": "G3",
            "ticks": 40128,
            "time": 44.15490750000001,
            "velocity": 0.3937007874015748
          },
          {
            "duration": 0.21126749999999817,
            "durationTicks": 192,
            "midi": 58,
            "name": "A#3",
            "ticks": 40128,
            "time": 44.15490750000001,
            "velocity": 0.3937007874015748
          },
          {
            "duration": 0.21126749999999817,
            "durationTicks": 192,
            "midi": 82,
            "name": "A#5",
            "ticks": 40320,
            "time": 44.366175000000005,
            "velocity": 0.3937007874015748
          },
          {
            "duration": 0.21126749999999817,
            "durationTicks": 192,
            "midi": 43,
            "name": "G2",
            "ticks": 40320,
            "time": 44.366175000000005,
            "velocity": 0.3937007874015748
          },
          {
            "duration": 0.21126749999999817,
            "durationTicks": 192,
            "midi": 85,
            "name": "C#6",
            "ticks": 40320,
            "time": 44.366175000000005,
            "velocity": 0.3937007874015748
          },
          {
            "duration": 0.21126749999999817,
            "durationTicks": 192,
            "midi": 55,
            "name": "G3",
            "ticks": 40320,
            "time": 44.366175000000005,
            "velocity": 0.3937007874015748
          },
          {
            "duration": 0.21126749999999817,
            "durationTicks": 192,
            "midi": 76,
            "name": "E5",
            "ticks": 40320,
            "time": 44.366175000000005,
            "velocity": 0.3937007874015748
          },
          {
            "duration": 0.21126749999999817,
            "durationTicks": 192,
            "midi": 76,
            "name": "E5",
            "ticks": 40512,
            "time": 44.577442500000004,
            "velocity": 0.3937007874015748
          },
          {
            "duration": 0.21126749999999817,
            "durationTicks": 192,
            "midi": 55,
            "name": "G3",
            "ticks": 40512,
            "time": 44.577442500000004,
            "velocity": 0.3937007874015748
          },
          {
            "duration": 0.21126749999999817,
            "durationTicks": 192,
            "midi": 82,
            "name": "A#5",
            "ticks": 40512,
            "time": 44.577442500000004,
            "velocity": 0.3937007874015748
          },
          {
            "duration": 0.21126749999999817,
            "durationTicks": 192,
            "midi": 58,
            "name": "A#3",
            "ticks": 40512,
            "time": 44.577442500000004,
            "velocity": 0.3937007874015748
          },
          {
            "duration": 0.21126749999999817,
            "durationTicks": 192,
            "midi": 60,
            "name": "C4",
            "ticks": 40512,
            "time": 44.577442500000004,
            "velocity": 0.3937007874015748
          },
          {
            "duration": 0.21126749999999817,
            "durationTicks": 192,
            "midi": 85,
            "name": "C#6",
            "ticks": 40512,
            "time": 44.577442500000004,
            "velocity": 0.3937007874015748
          },
          {
            "duration": 0.10563375000000264,
            "durationTicks": 96,
            "midi": 85,
            "name": "C#6",
            "ticks": 40704,
            "time": 44.78871,
            "velocity": 0.3937007874015748
          },
          {
            "duration": 0.21126750000000527,
            "durationTicks": 192,
            "midi": 36,
            "name": "C2",
            "ticks": 40704,
            "time": 44.78871,
            "velocity": 0.3937007874015748
          },
          {
            "duration": 0.21126750000000527,
            "durationTicks": 192,
            "midi": 48,
            "name": "C3",
            "ticks": 40704,
            "time": 44.78871,
            "velocity": 0.3937007874015748
          },
          {
            "duration": 0.10563375000000264,
            "durationTicks": 96,
            "midi": 87,
            "name": "D#6",
            "ticks": 40776,
            "time": 44.8679353125,
            "velocity": 0.3937007874015748
          },
          {
            "duration": 0.10563375000000264,
            "durationTicks": 96,
            "midi": 85,
            "name": "C#6",
            "ticks": 40848,
            "time": 44.947160625,
            "velocity": 0.3937007874015748
          },
          {
            "duration": 0.21126749999999817,
            "durationTicks": 192,
            "midi": 60,
            "name": "C4",
            "ticks": 40896,
            "time": 44.99997750000001,
            "velocity": 0.3937007874015748
          },
          {
            "duration": 0.21126749999999817,
            "durationTicks": 192,
            "midi": 58,
            "name": "A#3",
            "ticks": 40896,
            "time": 44.99997750000001,
            "velocity": 0.3937007874015748
          },
          {
            "duration": 0.21126749999999817,
            "durationTicks": 192,
            "midi": 55,
            "name": "G3",
            "ticks": 40896,
            "time": 44.99997750000001,
            "velocity": 0.3937007874015748
          },
          {
            "duration": 0.10563375000000264,
            "durationTicks": 96,
            "midi": 84,
            "name": "C6",
            "ticks": 40920,
            "time": 45.0263859375,
            "velocity": 0.3937007874015748
          },
          {
            "duration": 0.10563375000000264,
            "durationTicks": 96,
            "midi": 82,
            "name": "A#5",
            "ticks": 40992,
            "time": 45.10561125,
            "velocity": 0.3937007874015748
          },
          {
            "duration": 0.21126749999999817,
            "durationTicks": 192,
            "midi": 72,
            "name": "C5",
            "ticks": 41088,
            "time": 45.211245000000005,
            "velocity": 0.3937007874015748
          },
          {
            "duration": 0.21126749999999817,
            "durationTicks": 192,
            "midi": 84,
            "name": "C6",
            "ticks": 41088,
            "time": 45.211245000000005,
            "velocity": 0.3937007874015748
          },
          {
            "duration": 0.21126749999999817,
            "durationTicks": 192,
            "midi": 40,
            "name": "E2",
            "ticks": 41088,
            "time": 45.211245000000005,
            "velocity": 0.3937007874015748
          },
          {
            "duration": 0.21126749999999817,
            "durationTicks": 192,
            "midi": 52,
            "name": "E3",
            "ticks": 41088,
            "time": 45.211245000000005,
            "velocity": 0.3937007874015748
          },
          {
            "duration": 0.21126750000000527,
            "durationTicks": 192,
            "midi": 58,
            "name": "A#3",
            "ticks": 41280,
            "time": 45.4225125,
            "velocity": 0.3937007874015748
          },
          {
            "duration": 0.21126750000000527,
            "durationTicks": 192,
            "midi": 79,
            "name": "G5",
            "ticks": 41280,
            "time": 45.4225125,
            "velocity": 0.3937007874015748
          },
          {
            "duration": 0.21126750000000527,
            "durationTicks": 192,
            "midi": 60,
            "name": "C4",
            "ticks": 41280,
            "time": 45.4225125,
            "velocity": 0.3937007874015748
          },
          {
            "duration": 0.21126750000000527,
            "durationTicks": 192,
            "midi": 84,
            "name": "C6",
            "ticks": 41280,
            "time": 45.4225125,
            "velocity": 0.3937007874015748
          },
          {
            "duration": 0.21126750000000527,
            "durationTicks": 192,
            "midi": 76,
            "name": "E5",
            "ticks": 41280,
            "time": 45.4225125,
            "velocity": 0.3937007874015748
          },
          {
            "duration": 0.21126750000000527,
            "durationTicks": 192,
            "midi": 72,
            "name": "C5",
            "ticks": 41280,
            "time": 45.4225125,
            "velocity": 0.3937007874015748
          },
          {
            "duration": 0.21126750000000527,
            "durationTicks": 192,
            "midi": 55,
            "name": "G3",
            "ticks": 41280,
            "time": 45.4225125,
            "velocity": 0.3937007874015748
          },
          {
            "duration": 0.10563374999999553,
            "durationTicks": 96,
            "midi": 84,
            "name": "C6",
            "ticks": 41472,
            "time": 45.63378000000001,
            "velocity": 0.3937007874015748
          },
          {
            "duration": 0.21126749999999817,
            "durationTicks": 192,
            "midi": 36,
            "name": "C2",
            "ticks": 41472,
            "time": 45.63378000000001,
            "velocity": 0.3937007874015748
          },
          {
            "duration": 0.21126749999999817,
            "durationTicks": 192,
            "midi": 48,
            "name": "C3",
            "ticks": 41472,
            "time": 45.63378000000001,
            "velocity": 0.3937007874015748
          },
          {
            "duration": 0.10563375000000264,
            "durationTicks": 96,
            "midi": 85,
            "name": "C#6",
            "ticks": 41568,
            "time": 45.739413750000004,
            "velocity": 0.3937007874015748
          },
          {
            "duration": 0.10563374999999553,
            "durationTicks": 96,
            "midi": 84,
            "name": "C6",
            "ticks": 41664,
            "time": 45.84504750000001,
            "velocity": 0.3937007874015748
          },
          {
            "duration": 0.21126749999999817,
            "durationTicks": 192,
            "midi": 55,
            "name": "G3",
            "ticks": 41664,
            "time": 45.84504750000001,
            "velocity": 0.3937007874015748
          },
          {
            "duration": 0.21126749999999817,
            "durationTicks": 192,
            "midi": 58,
            "name": "A#3",
            "ticks": 41664,
            "time": 45.84504750000001,
            "velocity": 0.3937007874015748
          },
          {
            "duration": 0.21126749999999817,
            "durationTicks": 192,
            "midi": 60,
            "name": "C4",
            "ticks": 41664,
            "time": 45.84504750000001,
            "velocity": 0.3937007874015748
          },
          {
            "duration": 0.10563375000000264,
            "durationTicks": 96,
            "midi": 82,
            "name": "A#5",
            "ticks": 41760,
            "time": 45.95068125,
            "velocity": 0.3937007874015748
          },
          {
            "duration": 0.21126749999999817,
            "durationTicks": 192,
            "midi": 36,
            "name": "C2",
            "ticks": 41856,
            "time": 46.056315000000005,
            "velocity": 0.3937007874015748
          },
          {
            "duration": 0.21126749999999817,
            "durationTicks": 192,
            "midi": 48,
            "name": "C3",
            "ticks": 41856,
            "time": 46.056315000000005,
            "velocity": 0.3937007874015748
          },
          {
            "duration": 0.21126749999999817,
            "durationTicks": 192,
            "midi": 80,
            "name": "G#5",
            "ticks": 41856,
            "time": 46.056315000000005,
            "velocity": 0.3937007874015748
          },
          {
            "duration": 0.21126749999999817,
            "durationTicks": 192,
            "midi": 76,
            "name": "E5",
            "ticks": 41856,
            "time": 46.056315000000005,
            "velocity": 0.3937007874015748
          },
          {
            "duration": 0.21126749999999817,
            "durationTicks": 192,
            "midi": 72,
            "name": "C5",
            "ticks": 41856,
            "time": 46.056315000000005,
            "velocity": 0.3937007874015748
          },
          {
            "duration": 0.21126750000000527,
            "durationTicks": 192,
            "midi": 76,
            "name": "E5",
            "ticks": 42048,
            "time": 46.2675825,
            "velocity": 0.3937007874015748
          },
          {
            "duration": 0.21126750000000527,
            "durationTicks": 192,
            "midi": 72,
            "name": "C5",
            "ticks": 42048,
            "time": 46.2675825,
            "velocity": 0.3937007874015748
          },
          {
            "duration": 0.21126750000000527,
            "durationTicks": 192,
            "midi": 60,
            "name": "C4",
            "ticks": 42048,
            "time": 46.2675825,
            "velocity": 0.3937007874015748
          },
          {
            "duration": 0.21126750000000527,
            "durationTicks": 192,
            "midi": 64,
            "name": "E4",
            "ticks": 42048,
            "time": 46.2675825,
            "velocity": 0.3937007874015748
          },
          {
            "duration": 0.21126750000000527,
            "durationTicks": 192,
            "midi": 80,
            "name": "G#5",
            "ticks": 42048,
            "time": 46.2675825,
            "velocity": 0.3937007874015748
          },
          {
            "duration": 0.21126750000000527,
            "durationTicks": 192,
            "midi": 58,
            "name": "A#3",
            "ticks": 42048,
            "time": 46.2675825,
            "velocity": 0.3937007874015748
          },
          {
            "duration": 0.21126749999999817,
            "durationTicks": 192,
            "midi": 48,
            "name": "C3",
            "ticks": 42240,
            "time": 46.47885000000001,
            "velocity": 0.3937007874015748
          },
          {
            "duration": 0.21126749999999817,
            "durationTicks": 192,
            "midi": 36,
            "name": "C2",
            "ticks": 42240,
            "time": 46.47885000000001,
            "velocity": 0.3937007874015748
          },
          {
            "duration": 0.10563374999999553,
            "durationTicks": 96,
            "midi": 82,
            "name": "A#5",
            "ticks": 42240,
            "time": 46.47885000000001,
            "velocity": 0.3937007874015748
          },
          {
            "duration": 0.10563375000000264,
            "durationTicks": 96,
            "midi": 84,
            "name": "C6",
            "ticks": 42336,
            "time": 46.584483750000004,
            "velocity": 0.3937007874015748
          },
          {
            "duration": 0.10563374999999553,
            "durationTicks": 96,
            "midi": 82,
            "name": "A#5",
            "ticks": 42432,
            "time": 46.69011750000001,
            "velocity": 0.3937007874015748
          },
          {
            "duration": 0.21126749999999817,
            "durationTicks": 192,
            "midi": 58,
            "name": "A#3",
            "ticks": 42432,
            "time": 46.69011750000001,
            "velocity": 0.3937007874015748
          },
          {
            "duration": 0.21126749999999817,
            "durationTicks": 192,
            "midi": 60,
            "name": "C4",
            "ticks": 42432,
            "time": 46.69011750000001,
            "velocity": 0.3937007874015748
          },
          {
            "duration": 0.21126749999999817,
            "durationTicks": 192,
            "midi": 64,
            "name": "E4",
            "ticks": 42432,
            "time": 46.69011750000001,
            "velocity": 0.3937007874015748
          },
          {
            "duration": 0.10563375000000264,
            "durationTicks": 96,
            "midi": 79,
            "name": "G5",
            "ticks": 42528,
            "time": 46.79575125,
            "velocity": 0.3937007874015748
          },
          {
            "duration": 0.21126749999999817,
            "durationTicks": 192,
            "midi": 68,
            "name": "G#4",
            "ticks": 42624,
            "time": 46.901385000000005,
            "velocity": 0.3937007874015748
          },
          {
            "duration": 0.21126749999999817,
            "durationTicks": 192,
            "midi": 53,
            "name": "F3",
            "ticks": 42624,
            "time": 46.901385000000005,
            "velocity": 0.3937007874015748
          },
          {
            "duration": 0.21126749999999817,
            "durationTicks": 192,
            "midi": 41,
            "name": "F2",
            "ticks": 42624,
            "time": 46.901385000000005,
            "velocity": 0.3937007874015748
          },
          {
            "duration": 0.21126749999999817,
            "durationTicks": 192,
            "midi": 72,
            "name": "C5",
            "ticks": 42624,
            "time": 46.901385000000005,
            "velocity": 0.3937007874015748
          },
          {
            "duration": 0.21126749999999817,
            "durationTicks": 192,
            "midi": 77,
            "name": "F5",
            "ticks": 42624,
            "time": 46.901385000000005,
            "velocity": 0.3937007874015748
          },
          {
            "duration": 0.42253499999999633,
            "durationTicks": 384,
            "midi": 48,
            "name": "C3",
            "ticks": 43008,
            "time": 47.32392000000001,
            "velocity": 0.3937007874015748
          },
          {
            "duration": 0.42253499999999633,
            "durationTicks": 384,
            "midi": 36,
            "name": "C2",
            "ticks": 43008,
            "time": 47.32392000000001,
            "velocity": 0.3937007874015748
          },
          {
            "duration": 0.21126749999999817,
            "durationTicks": 192,
            "midi": 84,
            "name": "C6",
            "ticks": 43008,
            "time": 47.32392000000001,
            "velocity": 0.3937007874015748
          },
          {
            "duration": 0.21126749999999817,
            "durationTicks": 192,
            "midi": 79,
            "name": "G5",
            "ticks": 43008,
            "time": 47.32392000000001,
            "velocity": 0.3937007874015748
          },
          {
            "duration": 0.21126749999999817,
            "durationTicks": 192,
            "midi": 82,
            "name": "A#5",
            "ticks": 43008,
            "time": 47.32392000000001,
            "velocity": 0.3937007874015748
          },
          {
            "duration": 0.21126749999999817,
            "durationTicks": 192,
            "midi": 76,
            "name": "E5",
            "ticks": 43008,
            "time": 47.32392000000001,
            "velocity": 0.3937007874015748
          },
          {
            "duration": 0.21126749999999817,
            "durationTicks": 192,
            "midi": 72,
            "name": "C5",
            "ticks": 43008,
            "time": 47.32392000000001,
            "velocity": 0.3937007874015748
          },
          {
            "duration": 0.3169012500000008,
            "durationTicks": 288,
            "midi": 80,
            "name": "G#5",
            "ticks": 43392,
            "time": 47.746455000000005,
            "velocity": 0.3937007874015748
          },
          {
            "duration": 0.3169012500000008,
            "durationTicks": 288,
            "midi": 84,
            "name": "C6",
            "ticks": 43392,
            "time": 47.746455000000005,
            "velocity": 0.3937007874015748
          },
          {
            "duration": 0.21126749999999817,
            "durationTicks": 192,
            "midi": 53,
            "name": "F3",
            "ticks": 43392,
            "time": 47.746455000000005,
            "velocity": 0.3937007874015748
          },
          {
            "duration": 0.3169012500000008,
            "durationTicks": 288,
            "midi": 72,
            "name": "C5",
            "ticks": 43392,
            "time": 47.746455000000005,
            "velocity": 0.3937007874015748
          },
          {
            "duration": 0.21126749999999817,
            "durationTicks": 192,
            "midi": 41,
            "name": "F2",
            "ticks": 43392,
            "time": 47.746455000000005,
            "velocity": 0.3937007874015748
          },
          {
            "duration": 0.3169012500000008,
            "durationTicks": 288,
            "midi": 77,
            "name": "F5",
            "ticks": 43392,
            "time": 47.746455000000005,
            "velocity": 0.3937007874015748
          },
          {
            "duration": 0.21126750000000527,
            "durationTicks": 192,
            "midi": 56,
            "name": "G#3",
            "ticks": 43584,
            "time": 47.9577225,
            "velocity": 0.3937007874015748
          },
          {
            "duration": 0.21126750000000527,
            "durationTicks": 192,
            "midi": 53,
            "name": "F3",
            "ticks": 43584,
            "time": 47.9577225,
            "velocity": 0.3937007874015748
          },
          {
            "duration": 0.21126750000000527,
            "durationTicks": 192,
            "midi": 48,
            "name": "C3",
            "ticks": 43584,
            "time": 47.9577225,
            "velocity": 0.3937007874015748
          },
          {
            "duration": 0.21126749999999817,
            "durationTicks": 192,
            "midi": 48,
            "name": "C3",
            "ticks": 43776,
            "time": 48.16899000000001,
            "velocity": 0.3937007874015748
          },
          {
            "duration": 0.3169012500000008,
            "durationTicks": 288,
            "midi": 80,
            "name": "G#5",
            "ticks": 43776,
            "time": 48.16899000000001,
            "velocity": 0.3937007874015748
          },
          {
            "duration": 0.3169012500000008,
            "durationTicks": 288,
            "midi": 77,
            "name": "F5",
            "ticks": 43776,
            "time": 48.16899000000001,
            "velocity": 0.3937007874015748
          },
          {
            "duration": 0.3169012500000008,
            "durationTicks": 288,
            "midi": 84,
            "name": "C6",
            "ticks": 43776,
            "time": 48.16899000000001,
            "velocity": 0.3937007874015748
          },
          {
            "duration": 0.3169012500000008,
            "durationTicks": 288,
            "midi": 72,
            "name": "C5",
            "ticks": 43776,
            "time": 48.16899000000001,
            "velocity": 0.3937007874015748
          },
          {
            "duration": 0.21126749999999817,
            "durationTicks": 192,
            "midi": 36,
            "name": "C2",
            "ticks": 43776,
            "time": 48.16899000000001,
            "velocity": 0.3937007874015748
          },
          {
            "duration": 0.21126749999999817,
            "durationTicks": 192,
            "midi": 53,
            "name": "F3",
            "ticks": 43968,
            "time": 48.380257500000006,
            "velocity": 0.3937007874015748
          },
          {
            "duration": 0.21126749999999817,
            "durationTicks": 192,
            "midi": 56,
            "name": "G#3",
            "ticks": 43968,
            "time": 48.380257500000006,
            "velocity": 0.3937007874015748
          },
          {
            "duration": 0.21126749999999817,
            "durationTicks": 192,
            "midi": 48,
            "name": "C3",
            "ticks": 43968,
            "time": 48.380257500000006,
            "velocity": 0.3937007874015748
          },
          {
            "duration": 0.10563375000000264,
            "durationTicks": 96,
            "midi": 87,
            "name": "D#6",
            "ticks": 44112,
            "time": 48.53870812500001,
            "velocity": 0.3937007874015748
          },
          {
            "duration": 0.10563374999999553,
            "durationTicks": 96,
            "midi": 88,
            "name": "E6",
            "ticks": 44136,
            "time": 48.56511656250001,
            "velocity": 0.3937007874015748
          },
          {
            "duration": 0.21126749999999817,
            "durationTicks": 192,
            "midi": 29,
            "name": "F1",
            "ticks": 44160,
            "time": 48.591525000000004,
            "velocity": 0.3937007874015748
          },
          {
            "duration": 0.42253500000000344,
            "durationTicks": 384,
            "midi": 77,
            "name": "F5",
            "ticks": 44160,
            "time": 48.591525000000004,
            "velocity": 0.3937007874015748
          },
          {
            "duration": 0.21126749999999817,
            "durationTicks": 192,
            "midi": 41,
            "name": "F2",
            "ticks": 44160,
            "time": 48.591525000000004,
            "velocity": 0.3937007874015748
          },
          {
            "duration": 0.42253500000000344,
            "durationTicks": 384,
            "midi": 89,
            "name": "F6",
            "ticks": 44160,
            "time": 48.591525000000004,
            "velocity": 0.3937007874015748
          },
          {
            "duration": 0.21126750000000527,
            "durationTicks": 192,
            "midi": 48,
            "name": "C3",
            "ticks": 44352,
            "time": 48.8027925,
            "velocity": 0.3937007874015748
          },
          {
            "duration": 0.21126750000000527,
            "durationTicks": 192,
            "midi": 56,
            "name": "G#3",
            "ticks": 44352,
            "time": 48.8027925,
            "velocity": 0.3937007874015748
          },
          {
            "duration": 0.21126750000000527,
            "durationTicks": 192,
            "midi": 53,
            "name": "F3",
            "ticks": 44352,
            "time": 48.8027925,
            "velocity": 0.3937007874015748
          },
          {
            "duration": 0.21126749999999817,
            "durationTicks": 192,
            "midi": 44,
            "name": "G#2",
            "ticks": 44544,
            "time": 49.01406000000001,
            "velocity": 0.3937007874015748
          },
          {
            "duration": 0.21126749999999817,
            "durationTicks": 192,
            "midi": 32,
            "name": "G#1",
            "ticks": 44544,
            "time": 49.01406000000001,
            "velocity": 0.3937007874015748
          },
          {
            "duration": 0.42253499999999633,
            "durationTicks": 384,
            "midi": 77,
            "name": "F5",
            "ticks": 44544,
            "time": 49.01406000000001,
            "velocity": 0.3937007874015748
          },
          {
            "duration": 0.42253499999999633,
            "durationTicks": 384,
            "midi": 84,
            "name": "C6",
            "ticks": 44544,
            "time": 49.01406000000001,
            "velocity": 0.3937007874015748
          },
          {
            "duration": 0.42253499999999633,
            "durationTicks": 384,
            "midi": 72,
            "name": "C5",
            "ticks": 44544,
            "time": 49.01406000000001,
            "velocity": 0.3937007874015748
          },
          {
            "duration": 0.21126749999999817,
            "durationTicks": 192,
            "midi": 56,
            "name": "G#3",
            "ticks": 44736,
            "time": 49.225327500000006,
            "velocity": 0.3937007874015748
          },
          {
            "duration": 0.21126749999999817,
            "durationTicks": 192,
            "midi": 48,
            "name": "C3",
            "ticks": 44736,
            "time": 49.225327500000006,
            "velocity": 0.3937007874015748
          },
          {
            "duration": 0.21126749999999817,
            "durationTicks": 192,
            "midi": 53,
            "name": "F3",
            "ticks": 44736,
            "time": 49.225327500000006,
            "velocity": 0.3937007874015748
          },
          {
            "duration": 0.21126750000000527,
            "durationTicks": 192,
            "midi": 87,
            "name": "D#6",
            "ticks": 44928,
            "time": 49.436595000000004,
            "velocity": 0.3937007874015748
          },
          {
            "duration": 0.21126750000000527,
            "durationTicks": 192,
            "midi": 79,
            "name": "G5",
            "ticks": 44928,
            "time": 49.436595000000004,
            "velocity": 0.3937007874015748
          },
          {
            "duration": 0.21126750000000527,
            "durationTicks": 192,
            "midi": 75,
            "name": "D#5",
            "ticks": 44928,
            "time": 49.436595000000004,
            "velocity": 0.3937007874015748
          },
          {
            "duration": 0.21126750000000527,
            "durationTicks": 192,
            "midi": 43,
            "name": "G2",
            "ticks": 44928,
            "time": 49.436595000000004,
            "velocity": 0.3937007874015748
          },
          {
            "duration": 0.21126750000000527,
            "durationTicks": 192,
            "midi": 31,
            "name": "G1",
            "ticks": 44928,
            "time": 49.436595000000004,
            "velocity": 0.3937007874015748
          },
          {
            "duration": 0.21126749999999817,
            "durationTicks": 192,
            "midi": 73,
            "name": "C#5",
            "ticks": 45120,
            "time": 49.64786250000001,
            "velocity": 0.3937007874015748
          },
          {
            "duration": 0.21126749999999817,
            "durationTicks": 192,
            "midi": 58,
            "name": "A#3",
            "ticks": 45120,
            "time": 49.64786250000001,
            "velocity": 0.3937007874015748
          },
          {
            "duration": 0.21126749999999817,
            "durationTicks": 192,
            "midi": 55,
            "name": "G3",
            "ticks": 45120,
            "time": 49.64786250000001,
            "velocity": 0.3937007874015748
          },
          {
            "duration": 0.21126749999999817,
            "durationTicks": 192,
            "midi": 85,
            "name": "C#6",
            "ticks": 45120,
            "time": 49.64786250000001,
            "velocity": 0.3937007874015748
          },
          {
            "duration": 0.21126749999999817,
            "durationTicks": 192,
            "midi": 61,
            "name": "C#4",
            "ticks": 45120,
            "time": 49.64786250000001,
            "velocity": 0.3937007874015748
          },
          {
            "duration": 0.21126749999999817,
            "durationTicks": 192,
            "midi": 72,
            "name": "C5",
            "ticks": 45312,
            "time": 49.85913000000001,
            "velocity": 0.3937007874015748
          },
          {
            "duration": 0.21126749999999817,
            "durationTicks": 192,
            "midi": 43,
            "name": "G2",
            "ticks": 45312,
            "time": 49.85913000000001,
            "velocity": 0.3937007874015748
          },
          {
            "duration": 0.21126749999999817,
            "durationTicks": 192,
            "midi": 31,
            "name": "G1",
            "ticks": 45312,
            "time": 49.85913000000001,
            "velocity": 0.3937007874015748
          },
          {
            "duration": 0.21126749999999817,
            "durationTicks": 192,
            "midi": 84,
            "name": "C6",
            "ticks": 45312,
            "time": 49.85913000000001,
            "velocity": 0.3937007874015748
          },
          {
            "duration": 0.21126749999999817,
            "durationTicks": 192,
            "midi": 55,
            "name": "G3",
            "ticks": 45504,
            "time": 50.070397500000006,
            "velocity": 0.3937007874015748
          },
          {
            "duration": 0.21126749999999817,
            "durationTicks": 192,
            "midi": 58,
            "name": "A#3",
            "ticks": 45504,
            "time": 50.070397500000006,
            "velocity": 0.3937007874015748
          },
          {
            "duration": 0.21126749999999817,
            "durationTicks": 192,
            "midi": 85,
            "name": "C#6",
            "ticks": 45504,
            "time": 50.070397500000006,
            "velocity": 0.3937007874015748
          },
          {
            "duration": 0.21126749999999817,
            "durationTicks": 192,
            "midi": 73,
            "name": "C#5",
            "ticks": 45504,
            "time": 50.070397500000006,
            "velocity": 0.3937007874015748
          },
          {
            "duration": 0.21126749999999817,
            "durationTicks": 192,
            "midi": 61,
            "name": "C#4",
            "ticks": 45504,
            "time": 50.070397500000006,
            "velocity": 0.3937007874015748
          },
          {
            "duration": 0.42253500000000344,
            "durationTicks": 384,
            "midi": 70,
            "name": "A#4",
            "ticks": 45696,
            "time": 50.281665000000004,
            "velocity": 0.3937007874015748
          },
          {
            "duration": 0.42253500000000344,
            "durationTicks": 384,
            "midi": 79,
            "name": "G5",
            "ticks": 45696,
            "time": 50.281665000000004,
            "velocity": 0.3937007874015748
          },
          {
            "duration": 0.21126750000000527,
            "durationTicks": 192,
            "midi": 34,
            "name": "A#1",
            "ticks": 45696,
            "time": 50.281665000000004,
            "velocity": 0.3937007874015748
          },
          {
            "duration": 0.21126750000000527,
            "durationTicks": 192,
            "midi": 46,
            "name": "A#2",
            "ticks": 45696,
            "time": 50.281665000000004,
            "velocity": 0.3937007874015748
          },
          {
            "duration": 0.42253500000000344,
            "durationTicks": 384,
            "midi": 82,
            "name": "A#5",
            "ticks": 45696,
            "time": 50.281665000000004,
            "velocity": 0.3937007874015748
          },
          {
            "duration": 0.42253500000000344,
            "durationTicks": 384,
            "midi": 76,
            "name": "E5",
            "ticks": 45696,
            "time": 50.281665000000004,
            "velocity": 0.3937007874015748
          },
          {
            "duration": 0.21126749999999817,
            "durationTicks": 192,
            "midi": 61,
            "name": "C#4",
            "ticks": 45888,
            "time": 50.49293250000001,
            "velocity": 0.3937007874015748
          },
          {
            "duration": 0.21126749999999817,
            "durationTicks": 192,
            "midi": 58,
            "name": "A#3",
            "ticks": 45888,
            "time": 50.49293250000001,
            "velocity": 0.3937007874015748
          },
          {
            "duration": 0.21126749999999817,
            "durationTicks": 192,
            "midi": 55,
            "name": "G3",
            "ticks": 45888,
            "time": 50.49293250000001,
            "velocity": 0.3937007874015748
          },
          {
            "duration": 0.21126749999999817,
            "durationTicks": 192,
            "midi": 31,
            "name": "G1",
            "ticks": 46080,
            "time": 50.70420000000001,
            "velocity": 0.3937007874015748
          },
          {
            "duration": 0.21126749999999817,
            "durationTicks": 192,
            "midi": 43,
            "name": "G2",
            "ticks": 46080,
            "time": 50.70420000000001,
            "velocity": 0.3937007874015748
          },
          {
            "duration": 0.21126749999999817,
            "durationTicks": 192,
            "midi": 32,
            "name": "G#1",
            "ticks": 46272,
            "time": 50.915467500000005,
            "velocity": 0.3937007874015748
          },
          {
            "duration": 0.21126749999999817,
            "durationTicks": 192,
            "midi": 44,
            "name": "G#2",
            "ticks": 46272,
            "time": 50.915467500000005,
            "velocity": 0.3937007874015748
          },
          {
            "duration": 0.8450699999999998,
            "durationTicks": 768,
            "midi": 79,
            "name": "G5",
            "ticks": 46464,
            "time": 51.126735000000004,
            "velocity": 0.3937007874015748
          },
          {
            "duration": 0.8450699999999998,
            "durationTicks": 768,
            "midi": 73,
            "name": "C#5",
            "ticks": 46464,
            "time": 51.126735000000004,
            "velocity": 0.3937007874015748
          },
          {
            "duration": 0.42253500000000344,
            "durationTicks": 384,
            "midi": 85,
            "name": "C#6",
            "ticks": 46464,
            "time": 51.126735000000004,
            "velocity": 0.3937007874015748
          },
          {
            "duration": 0.42253500000000344,
            "durationTicks": 384,
            "midi": 82,
            "name": "A#5",
            "ticks": 46464,
            "time": 51.126735000000004,
            "velocity": 0.3937007874015748
          },
          {
            "duration": 0.21126750000000527,
            "durationTicks": 192,
            "midi": 46,
            "name": "A#2",
            "ticks": 46464,
            "time": 51.126735000000004,
            "velocity": 0.3937007874015748
          },
          {
            "duration": 0.21126750000000527,
            "durationTicks": 192,
            "midi": 34,
            "name": "A#1",
            "ticks": 46464,
            "time": 51.126735000000004,
            "velocity": 0.3937007874015748
          },
          {
            "duration": 0.21126749999999817,
            "durationTicks": 192,
            "midi": 61,
            "name": "C#4",
            "ticks": 46656,
            "time": 51.33800250000001,
            "velocity": 0.3937007874015748
          },
          {
            "duration": 0.21126749999999817,
            "durationTicks": 192,
            "midi": 58,
            "name": "A#3",
            "ticks": 46656,
            "time": 51.33800250000001,
            "velocity": 0.3937007874015748
          },
          {
            "duration": 0.21126749999999817,
            "durationTicks": 192,
            "midi": 55,
            "name": "G3",
            "ticks": 46656,
            "time": 51.33800250000001,
            "velocity": 0.3937007874015748
          },
          {
            "duration": 0.21126749999999817,
            "durationTicks": 192,
            "midi": 34,
            "name": "A#1",
            "ticks": 46848,
            "time": 51.54927000000001,
            "velocity": 0.3937007874015748
          },
          {
            "duration": 0.21126749999999817,
            "durationTicks": 192,
            "midi": 46,
            "name": "A#2",
            "ticks": 46848,
            "time": 51.54927000000001,
            "velocity": 0.3937007874015748
          },
          {
            "duration": 0.42253499999999633,
            "durationTicks": 384,
            "midi": 82,
            "name": "A#5",
            "ticks": 46848,
            "time": 51.54927000000001,
            "velocity": 0.3937007874015748
          },
          {
            "duration": 0.21126749999999817,
            "durationTicks": 192,
            "midi": 61,
            "name": "C#4",
            "ticks": 47040,
            "time": 51.760537500000005,
            "velocity": 0.3937007874015748
          },
          {
            "duration": 0.21126749999999817,
            "durationTicks": 192,
            "midi": 58,
            "name": "A#3",
            "ticks": 47040,
            "time": 51.760537500000005,
            "velocity": 0.3937007874015748
          },
          {
            "duration": 0.21126749999999817,
            "durationTicks": 192,
            "midi": 55,
            "name": "G3",
            "ticks": 47040,
            "time": 51.760537500000005,
            "velocity": 0.3937007874015748
          },
          {
            "duration": 0.21126749999999817,
            "durationTicks": 192,
            "midi": 85,
            "name": "C#6",
            "ticks": 47040,
            "time": 51.760537500000005,
            "velocity": 0.3937007874015748
          },
          {
            "duration": 0.21126750000000527,
            "durationTicks": 192,
            "midi": 87,
            "name": "D#6",
            "ticks": 47232,
            "time": 51.971805,
            "velocity": 0.3937007874015748
          },
          {
            "duration": 0.21126750000000527,
            "durationTicks": 192,
            "midi": 75,
            "name": "D#5",
            "ticks": 47232,
            "time": 51.971805,
            "velocity": 0.3937007874015748
          },
          {
            "duration": 0.21126750000000527,
            "durationTicks": 192,
            "midi": 31,
            "name": "G1",
            "ticks": 47232,
            "time": 51.971805,
            "velocity": 0.3937007874015748
          },
          {
            "duration": 0.21126750000000527,
            "durationTicks": 192,
            "midi": 43,
            "name": "G2",
            "ticks": 47232,
            "time": 51.971805,
            "velocity": 0.3937007874015748
          },
          {
            "duration": 0.21126749999999817,
            "durationTicks": 192,
            "midi": 61,
            "name": "C#4",
            "ticks": 47424,
            "time": 52.18307250000001,
            "velocity": 0.3937007874015748
          },
          {
            "duration": 0.21126749999999817,
            "durationTicks": 192,
            "midi": 85,
            "name": "C#6",
            "ticks": 47424,
            "time": 52.18307250000001,
            "velocity": 0.3937007874015748
          },
          {
            "duration": 0.21126749999999817,
            "durationTicks": 192,
            "midi": 73,
            "name": "C#5",
            "ticks": 47424,
            "time": 52.18307250000001,
            "velocity": 0.3937007874015748
          },
          {
            "duration": 0.21126749999999817,
            "durationTicks": 192,
            "midi": 58,
            "name": "A#3",
            "ticks": 47424,
            "time": 52.18307250000001,
            "velocity": 0.3937007874015748
          },
          {
            "duration": 0.21126749999999817,
            "durationTicks": 192,
            "midi": 55,
            "name": "G3",
            "ticks": 47424,
            "time": 52.18307250000001,
            "velocity": 0.3937007874015748
          },
          {
            "duration": 0.21126749999999817,
            "durationTicks": 192,
            "midi": 32,
            "name": "G#1",
            "ticks": 47616,
            "time": 52.39434000000001,
            "velocity": 0.3937007874015748
          },
          {
            "duration": 0.21126749999999817,
            "durationTicks": 192,
            "midi": 44,
            "name": "G#2",
            "ticks": 47616,
            "time": 52.39434000000001,
            "velocity": 0.3937007874015748
          },
          {
            "duration": 0.21126749999999817,
            "durationTicks": 192,
            "midi": 72,
            "name": "C5",
            "ticks": 47616,
            "time": 52.39434000000001,
            "velocity": 0.3937007874015748
          },
          {
            "duration": 0.21126749999999817,
            "durationTicks": 192,
            "midi": 84,
            "name": "C6",
            "ticks": 47616,
            "time": 52.39434000000001,
            "velocity": 0.3937007874015748
          },
          {
            "duration": 0.21126749999999817,
            "durationTicks": 192,
            "midi": 85,
            "name": "C#6",
            "ticks": 47808,
            "time": 52.605607500000005,
            "velocity": 0.3937007874015748
          },
          {
            "duration": 0.21126749999999817,
            "durationTicks": 192,
            "midi": 73,
            "name": "C#5",
            "ticks": 47808,
            "time": 52.605607500000005,
            "velocity": 0.3937007874015748
          },
          {
            "duration": 0.21126749999999817,
            "durationTicks": 192,
            "midi": 46,
            "name": "A#2",
            "ticks": 47808,
            "time": 52.605607500000005,
            "velocity": 0.3937007874015748
          },
          {
            "duration": 0.21126749999999817,
            "durationTicks": 192,
            "midi": 34,
            "name": "A#1",
            "ticks": 47808,
            "time": 52.605607500000005,
            "velocity": 0.3937007874015748
          },
          {
            "duration": 0.21126750000000527,
            "durationTicks": 192,
            "midi": 84,
            "name": "C6",
            "ticks": 48000,
            "time": 52.816875,
            "velocity": 0.3937007874015748
          },
          {
            "duration": 0.21126750000000527,
            "durationTicks": 192,
            "midi": 72,
            "name": "C5",
            "ticks": 48000,
            "time": 52.816875,
            "velocity": 0.3937007874015748
          },
          {
            "duration": 0.21126750000000527,
            "durationTicks": 192,
            "midi": 48,
            "name": "C3",
            "ticks": 48000,
            "time": 52.816875,
            "velocity": 0.3937007874015748
          },
          {
            "duration": 0.21126750000000527,
            "durationTicks": 192,
            "midi": 36,
            "name": "C2",
            "ticks": 48000,
            "time": 52.816875,
            "velocity": 0.3937007874015748
          },
          {
            "duration": 0.21126749999999817,
            "durationTicks": 192,
            "midi": 72,
            "name": "C5",
            "ticks": 48192,
            "time": 53.02814250000001,
            "velocity": 0.3937007874015748
          },
          {
            "duration": 0.21126749999999817,
            "durationTicks": 192,
            "midi": 84,
            "name": "C6",
            "ticks": 48192,
            "time": 53.02814250000001,
            "velocity": 0.3937007874015748
          },
          {
            "duration": 0.21126749999999817,
            "durationTicks": 192,
            "midi": 80,
            "name": "G#5",
            "ticks": 48192,
            "time": 53.02814250000001,
            "velocity": 0.3937007874015748
          },
          {
            "duration": 0.21126749999999817,
            "durationTicks": 192,
            "midi": 48,
            "name": "C3",
            "ticks": 48192,
            "time": 53.02814250000001,
            "velocity": 0.3937007874015748
          },
          {
            "duration": 0.21126749999999817,
            "durationTicks": 192,
            "midi": 52,
            "name": "E3",
            "ticks": 48192,
            "time": 53.02814250000001,
            "velocity": 0.3937007874015748
          },
          {
            "duration": 0.21126749999999817,
            "durationTicks": 192,
            "midi": 58,
            "name": "A#3",
            "ticks": 48192,
            "time": 53.02814250000001,
            "velocity": 0.3937007874015748
          },
          {
            "duration": 0.21126749999999817,
            "durationTicks": 192,
            "midi": 43,
            "name": "G2",
            "ticks": 48384,
            "time": 53.23941000000001,
            "velocity": 0.3937007874015748
          },
          {
            "duration": 0.21126749999999817,
            "durationTicks": 192,
            "midi": 55,
            "name": "G3",
            "ticks": 48384,
            "time": 53.23941000000001,
            "velocity": 0.3937007874015748
          },
          {
            "duration": 0.21126749999999817,
            "durationTicks": 192,
            "midi": 82,
            "name": "A#5",
            "ticks": 48384,
            "time": 53.23941000000001,
            "velocity": 0.3937007874015748
          },
          {
            "duration": 0.21126749999999817,
            "durationTicks": 192,
            "midi": 70,
            "name": "A#4",
            "ticks": 48384,
            "time": 53.23941000000001,
            "velocity": 0.3937007874015748
          },
          {
            "duration": 0.21126749999999817,
            "durationTicks": 192,
            "midi": 79,
            "name": "G5",
            "ticks": 48384,
            "time": 53.23941000000001,
            "velocity": 0.3937007874015748
          },
          {
            "duration": 0.21126749999999817,
            "durationTicks": 192,
            "midi": 77,
            "name": "F5",
            "ticks": 48576,
            "time": 53.450677500000005,
            "velocity": 0.3937007874015748
          },
          {
            "duration": 0.21126749999999817,
            "durationTicks": 192,
            "midi": 80,
            "name": "G#5",
            "ticks": 48576,
            "time": 53.450677500000005,
            "velocity": 0.3937007874015748
          },
          {
            "duration": 0.21126749999999817,
            "durationTicks": 192,
            "midi": 52,
            "name": "E3",
            "ticks": 48576,
            "time": 53.450677500000005,
            "velocity": 0.3937007874015748
          },
          {
            "duration": 0.21126749999999817,
            "durationTicks": 192,
            "midi": 58,
            "name": "A#3",
            "ticks": 48576,
            "time": 53.450677500000005,
            "velocity": 0.3937007874015748
          },
          {
            "duration": 0.21126749999999817,
            "durationTicks": 192,
            "midi": 48,
            "name": "C3",
            "ticks": 48576,
            "time": 53.450677500000005,
            "velocity": 0.3937007874015748
          },
          {
            "duration": 0.21126749999999817,
            "durationTicks": 192,
            "midi": 68,
            "name": "G#4",
            "ticks": 48576,
            "time": 53.450677500000005,
            "velocity": 0.3937007874015748
          },
          {
            "duration": 0.21126750000000527,
            "durationTicks": 192,
            "midi": 76,
            "name": "E5",
            "ticks": 48768,
            "time": 53.661945,
            "velocity": 0.3937007874015748
          },
          {
            "duration": 0.21126750000000527,
            "durationTicks": 192,
            "midi": 48,
            "name": "C3",
            "ticks": 48768,
            "time": 53.661945,
            "velocity": 0.3937007874015748
          },
          {
            "duration": 0.21126750000000527,
            "durationTicks": 192,
            "midi": 36,
            "name": "C2",
            "ticks": 48768,
            "time": 53.661945,
            "velocity": 0.3937007874015748
          },
          {
            "duration": 0.21126750000000527,
            "durationTicks": 192,
            "midi": 72,
            "name": "C5",
            "ticks": 48768,
            "time": 53.661945,
            "velocity": 0.3937007874015748
          },
          {
            "duration": 0.21126750000000527,
            "durationTicks": 192,
            "midi": 84,
            "name": "C6",
            "ticks": 48768,
            "time": 53.661945,
            "velocity": 0.3937007874015748
          },
          {
            "duration": 0.21126749999999817,
            "durationTicks": 192,
            "midi": 52,
            "name": "E3",
            "ticks": 48960,
            "time": 53.87321250000001,
            "velocity": 0.3937007874015748
          },
          {
            "duration": 0.21126749999999817,
            "durationTicks": 192,
            "midi": 55,
            "name": "G3",
            "ticks": 48960,
            "time": 53.87321250000001,
            "velocity": 0.3937007874015748
          },
          {
            "duration": 0.21126749999999817,
            "durationTicks": 192,
            "midi": 73,
            "name": "C#5",
            "ticks": 48960,
            "time": 53.87321250000001,
            "velocity": 0.3937007874015748
          },
          {
            "duration": 0.21126749999999817,
            "durationTicks": 192,
            "midi": 82,
            "name": "A#5",
            "ticks": 48960,
            "time": 53.87321250000001,
            "velocity": 0.3937007874015748
          },
          {
            "duration": 0.21126749999999817,
            "durationTicks": 192,
            "midi": 70,
            "name": "A#4",
            "ticks": 48960,
            "time": 53.87321250000001,
            "velocity": 0.3937007874015748
          },
          {
            "duration": 0.21126749999999817,
            "durationTicks": 192,
            "midi": 48,
            "name": "C3",
            "ticks": 48960,
            "time": 53.87321250000001,
            "velocity": 0.3937007874015748
          },
          {
            "duration": 0.21126749999999817,
            "durationTicks": 192,
            "midi": 38,
            "name": "D2",
            "ticks": 49152,
            "time": 54.084480000000006,
            "velocity": 0.3937007874015748
          },
          {
            "duration": 0.21126749999999817,
            "durationTicks": 192,
            "midi": 50,
            "name": "D3",
            "ticks": 49152,
            "time": 54.084480000000006,
            "velocity": 0.3937007874015748
          },
          {
            "duration": 0.21126749999999817,
            "durationTicks": 192,
            "midi": 68,
            "name": "G#4",
            "ticks": 49152,
            "time": 54.084480000000006,
            "velocity": 0.3937007874015748
          },
          {
            "duration": 0.21126749999999817,
            "durationTicks": 192,
            "midi": 72,
            "name": "C5",
            "ticks": 49152,
            "time": 54.084480000000006,
            "velocity": 0.3937007874015748
          },
          {
            "duration": 0.21126749999999817,
            "durationTicks": 192,
            "midi": 80,
            "name": "G#5",
            "ticks": 49152,
            "time": 54.084480000000006,
            "velocity": 0.3937007874015748
          },
          {
            "duration": 0.21126750000000527,
            "durationTicks": 192,
            "midi": 67,
            "name": "G4",
            "ticks": 49344,
            "time": 54.295747500000004,
            "velocity": 0.3937007874015748
          },
          {
            "duration": 0.21126750000000527,
            "durationTicks": 192,
            "midi": 79,
            "name": "G5",
            "ticks": 49344,
            "time": 54.295747500000004,
            "velocity": 0.3937007874015748
          },
          {
            "duration": 0.21126750000000527,
            "durationTicks": 192,
            "midi": 52,
            "name": "E3",
            "ticks": 49344,
            "time": 54.295747500000004,
            "velocity": 0.3937007874015748
          },
          {
            "duration": 0.21126750000000527,
            "durationTicks": 192,
            "midi": 40,
            "name": "E2",
            "ticks": 49344,
            "time": 54.295747500000004,
            "velocity": 0.3937007874015748
          },
          {
            "duration": 0.21126750000000527,
            "durationTicks": 192,
            "midi": 70,
            "name": "A#4",
            "ticks": 49344,
            "time": 54.295747500000004,
            "velocity": 0.3937007874015748
          },
          {
            "duration": 0.42253499999999633,
            "durationTicks": 384,
            "midi": 84,
            "name": "C6",
            "ticks": 49536,
            "time": 54.50701500000001,
            "velocity": 0.3937007874015748
          },
          {
            "duration": 0.42253499999999633,
            "durationTicks": 384,
            "midi": 77,
            "name": "F5",
            "ticks": 49536,
            "time": 54.50701500000001,
            "velocity": 0.3937007874015748
          },
          {
            "duration": 0.42253499999999633,
            "durationTicks": 384,
            "midi": 80,
            "name": "G#5",
            "ticks": 49536,
            "time": 54.50701500000001,
            "velocity": 0.3937007874015748
          },
          {
            "duration": 0.42253499999999633,
            "durationTicks": 384,
            "midi": 72,
            "name": "C5",
            "ticks": 49536,
            "time": 54.50701500000001,
            "velocity": 0.3937007874015748
          },
          {
            "duration": 0.21126749999999817,
            "durationTicks": 192,
            "midi": 41,
            "name": "F2",
            "ticks": 49536,
            "time": 54.50701500000001,
            "velocity": 0.3937007874015748
          },
          {
            "duration": 0.21126749999999817,
            "durationTicks": 192,
            "midi": 53,
            "name": "F3",
            "ticks": 49536,
            "time": 54.50701500000001,
            "velocity": 0.3937007874015748
          },
          {
            "duration": 0.21126749999999817,
            "durationTicks": 192,
            "midi": 48,
            "name": "C3",
            "ticks": 49728,
            "time": 54.71828250000001,
            "velocity": 0.3937007874015748
          },
          {
            "duration": 0.21126749999999817,
            "durationTicks": 192,
            "midi": 53,
            "name": "F3",
            "ticks": 49728,
            "time": 54.71828250000001,
            "velocity": 0.3937007874015748
          },
          {
            "duration": 0.21126749999999817,
            "durationTicks": 192,
            "midi": 56,
            "name": "G#3",
            "ticks": 49728,
            "time": 54.71828250000001,
            "velocity": 0.3937007874015748
          },
          {
            "duration": 0.42253500000000344,
            "durationTicks": 384,
            "midi": 84,
            "name": "C6",
            "ticks": 49920,
            "time": 54.929550000000006,
            "velocity": 0.3937007874015748
          },
          {
            "duration": 0.42253500000000344,
            "durationTicks": 384,
            "midi": 77,
            "name": "F5",
            "ticks": 49920,
            "time": 54.929550000000006,
            "velocity": 0.3937007874015748
          },
          {
            "duration": 0.42253500000000344,
            "durationTicks": 384,
            "midi": 80,
            "name": "G#5",
            "ticks": 49920,
            "time": 54.929550000000006,
            "velocity": 0.3937007874015748
          },
          {
            "duration": 0.42253500000000344,
            "durationTicks": 384,
            "midi": 72,
            "name": "C5",
            "ticks": 49920,
            "time": 54.929550000000006,
            "velocity": 0.3937007874015748
          },
          {
            "duration": 0.21126749999999817,
            "durationTicks": 192,
            "midi": 48,
            "name": "C3",
            "ticks": 49920,
            "time": 54.929550000000006,
            "velocity": 0.3937007874015748
          },
          {
            "duration": 0.21126749999999817,
            "durationTicks": 192,
            "midi": 36,
            "name": "C2",
            "ticks": 49920,
            "time": 54.929550000000006,
            "velocity": 0.3937007874015748
          },
          {
            "duration": 0.21126750000000527,
            "durationTicks": 192,
            "midi": 48,
            "name": "C3",
            "ticks": 50112,
            "time": 55.140817500000004,
            "velocity": 0.3937007874015748
          },
          {
            "duration": 0.21126750000000527,
            "durationTicks": 192,
            "midi": 56,
            "name": "G#3",
            "ticks": 50112,
            "time": 55.140817500000004,
            "velocity": 0.3937007874015748
          },
          {
            "duration": 0.21126750000000527,
            "durationTicks": 192,
            "midi": 53,
            "name": "F3",
            "ticks": 50112,
            "time": 55.140817500000004,
            "velocity": 0.3937007874015748
          },
          {
            "duration": 0.10563375000000264,
            "durationTicks": 96,
            "midi": 87,
            "name": "D#6",
            "ticks": 50256,
            "time": 55.299268125000005,
            "velocity": 0.3937007874015748
          },
          {
            "duration": 0.10563375000000264,
            "durationTicks": 96,
            "midi": 88,
            "name": "E6",
            "ticks": 50280,
            "time": 55.32567656250001,
            "velocity": 0.3937007874015748
          },
          {
            "duration": 0.21126749999999817,
            "durationTicks": 192,
            "midi": 29,
            "name": "F1",
            "ticks": 50304,
            "time": 55.35208500000001,
            "velocity": 0.3937007874015748
          },
          {
            "duration": 0.42253499999999633,
            "durationTicks": 384,
            "midi": 89,
            "name": "F6",
            "ticks": 50304,
            "time": 55.35208500000001,
            "velocity": 0.3937007874015748
          },
          {
            "duration": 0.42253499999999633,
            "durationTicks": 384,
            "midi": 77,
            "name": "F5",
            "ticks": 50304,
            "time": 55.35208500000001,
            "velocity": 0.3937007874015748
          },
          {
            "duration": 0.21126749999999817,
            "durationTicks": 192,
            "midi": 41,
            "name": "F2",
            "ticks": 50304,
            "time": 55.35208500000001,
            "velocity": 0.3937007874015748
          },
          {
            "duration": 0.21126749999999817,
            "durationTicks": 192,
            "midi": 48,
            "name": "C3",
            "ticks": 50496,
            "time": 55.56335250000001,
            "velocity": 0.3937007874015748
          },
          {
            "duration": 0.21126749999999817,
            "durationTicks": 192,
            "midi": 56,
            "name": "G#3",
            "ticks": 50496,
            "time": 55.56335250000001,
            "velocity": 0.3937007874015748
          },
          {
            "duration": 0.21126749999999817,
            "durationTicks": 192,
            "midi": 53,
            "name": "F3",
            "ticks": 50496,
            "time": 55.56335250000001,
            "velocity": 0.3937007874015748
          },
          {
            "duration": 0.21126749999999817,
            "durationTicks": 192,
            "midi": 44,
            "name": "G#2",
            "ticks": 50688,
            "time": 55.774620000000006,
            "velocity": 0.3937007874015748
          },
          {
            "duration": 0.42253500000000344,
            "durationTicks": 384,
            "midi": 84,
            "name": "C6",
            "ticks": 50688,
            "time": 55.774620000000006,
            "velocity": 0.3937007874015748
          },
          {
            "duration": 0.42253500000000344,
            "durationTicks": 384,
            "midi": 72,
            "name": "C5",
            "ticks": 50688,
            "time": 55.774620000000006,
            "velocity": 0.3937007874015748
          },
          {
            "duration": 0.21126749999999817,
            "durationTicks": 192,
            "midi": 32,
            "name": "G#1",
            "ticks": 50688,
            "time": 55.774620000000006,
            "velocity": 0.3937007874015748
          },
          {
            "duration": 0.21126750000000527,
            "durationTicks": 192,
            "midi": 48,
            "name": "C3",
            "ticks": 50880,
            "time": 55.985887500000004,
            "velocity": 0.3937007874015748
          },
          {
            "duration": 0.21126750000000527,
            "durationTicks": 192,
            "midi": 53,
            "name": "F3",
            "ticks": 50880,
            "time": 55.985887500000004,
            "velocity": 0.3937007874015748
          },
          {
            "duration": 0.21126750000000527,
            "durationTicks": 192,
            "midi": 56,
            "name": "G#3",
            "ticks": 50880,
            "time": 55.985887500000004,
            "velocity": 0.3937007874015748
          },
          {
            "duration": 0.21126749999999817,
            "durationTicks": 192,
            "midi": 43,
            "name": "G2",
            "ticks": 51072,
            "time": 56.19715500000001,
            "velocity": 0.3937007874015748
          },
          {
            "duration": 0.21126749999999817,
            "durationTicks": 192,
            "midi": 75,
            "name": "D#5",
            "ticks": 51072,
            "time": 56.19715500000001,
            "velocity": 0.3937007874015748
          },
          {
            "duration": 0.21126749999999817,
            "durationTicks": 192,
            "midi": 31,
            "name": "G1",
            "ticks": 51072,
            "time": 56.19715500000001,
            "velocity": 0.3937007874015748
          },
          {
            "duration": 0.21126749999999817,
            "durationTicks": 192,
            "midi": 87,
            "name": "D#6",
            "ticks": 51072,
            "time": 56.19715500000001,
            "velocity": 0.3937007874015748
          },
          {
            "duration": 0.21126749999999817,
            "durationTicks": 192,
            "midi": 61,
            "name": "C#4",
            "ticks": 51264,
            "time": 56.40842250000001,
            "velocity": 0.3937007874015748
          },
          {
            "duration": 0.21126749999999817,
            "durationTicks": 192,
            "midi": 58,
            "name": "A#3",
            "ticks": 51264,
            "time": 56.40842250000001,
            "velocity": 0.3937007874015748
          },
          {
            "duration": 0.21126749999999817,
            "durationTicks": 192,
            "midi": 85,
            "name": "C#6",
            "ticks": 51264,
            "time": 56.40842250000001,
            "velocity": 0.3937007874015748
          },
          {
            "duration": 0.21126749999999817,
            "durationTicks": 192,
            "midi": 73,
            "name": "C#5",
            "ticks": 51264,
            "time": 56.40842250000001,
            "velocity": 0.3937007874015748
          },
          {
            "duration": 0.21126749999999817,
            "durationTicks": 192,
            "midi": 55,
            "name": "G3",
            "ticks": 51264,
            "time": 56.40842250000001,
            "velocity": 0.3937007874015748
          },
          {
            "duration": 0.21126749999999817,
            "durationTicks": 192,
            "midi": 43,
            "name": "G2",
            "ticks": 51456,
            "time": 56.619690000000006,
            "velocity": 0.3937007874015748
          },
          {
            "duration": 0.21126749999999817,
            "durationTicks": 192,
            "midi": 84,
            "name": "C6",
            "ticks": 51456,
            "time": 56.619690000000006,
            "velocity": 0.3937007874015748
          },
          {
            "duration": 0.21126749999999817,
            "durationTicks": 192,
            "midi": 72,
            "name": "C5",
            "ticks": 51456,
            "time": 56.619690000000006,
            "velocity": 0.3937007874015748
          },
          {
            "duration": 0.21126749999999817,
            "durationTicks": 192,
            "midi": 31,
            "name": "G1",
            "ticks": 51456,
            "time": 56.619690000000006,
            "velocity": 0.3937007874015748
          },
          {
            "duration": 0.21126750000000527,
            "durationTicks": 192,
            "midi": 61,
            "name": "C#4",
            "ticks": 51648,
            "time": 56.830957500000004,
            "velocity": 0.3937007874015748
          },
          {
            "duration": 0.21126750000000527,
            "durationTicks": 192,
            "midi": 58,
            "name": "A#3",
            "ticks": 51648,
            "time": 56.830957500000004,
            "velocity": 0.3937007874015748
          },
          {
            "duration": 0.21126750000000527,
            "durationTicks": 192,
            "midi": 85,
            "name": "C#6",
            "ticks": 51648,
            "time": 56.830957500000004,
            "velocity": 0.3937007874015748
          },
          {
            "duration": 0.21126750000000527,
            "durationTicks": 192,
            "midi": 55,
            "name": "G3",
            "ticks": 51648,
            "time": 56.830957500000004,
            "velocity": 0.3937007874015748
          },
          {
            "duration": 0.21126750000000527,
            "durationTicks": 192,
            "midi": 73,
            "name": "C#5",
            "ticks": 51648,
            "time": 56.830957500000004,
            "velocity": 0.3937007874015748
          },
          {
            "duration": 0.42253499999999633,
            "durationTicks": 384,
            "midi": 79,
            "name": "G5",
            "ticks": 51840,
            "time": 57.04222500000001,
            "velocity": 0.3937007874015748
          },
          {
            "duration": 0.42253499999999633,
            "durationTicks": 384,
            "midi": 76,
            "name": "E5",
            "ticks": 51840,
            "time": 57.04222500000001,
            "velocity": 0.3937007874015748
          },
          {
            "duration": 0.21126749999999817,
            "durationTicks": 192,
            "midi": 46,
            "name": "A#2",
            "ticks": 51840,
            "time": 57.04222500000001,
            "velocity": 0.3937007874015748
          },
          {
            "duration": 0.42253499999999633,
            "durationTicks": 384,
            "midi": 70,
            "name": "A#4",
            "ticks": 51840,
            "time": 57.04222500000001,
            "velocity": 0.3937007874015748
          },
          {
            "duration": 0.21126749999999817,
            "durationTicks": 192,
            "midi": 34,
            "name": "A#1",
            "ticks": 51840,
            "time": 57.04222500000001,
            "velocity": 0.3937007874015748
          },
          {
            "duration": 0.42253499999999633,
            "durationTicks": 384,
            "midi": 82,
            "name": "A#5",
            "ticks": 51840,
            "time": 57.04222500000001,
            "velocity": 0.3937007874015748
          },
          {
            "duration": 0.21126749999999817,
            "durationTicks": 192,
            "midi": 55,
            "name": "G3",
            "ticks": 52032,
            "time": 57.25349250000001,
            "velocity": 0.3937007874015748
          },
          {
            "duration": 0.21126749999999817,
            "durationTicks": 192,
            "midi": 61,
            "name": "C#4",
            "ticks": 52032,
            "time": 57.25349250000001,
            "velocity": 0.3937007874015748
          },
          {
            "duration": 0.21126749999999817,
            "durationTicks": 192,
            "midi": 58,
            "name": "A#3",
            "ticks": 52032,
            "time": 57.25349250000001,
            "velocity": 0.3937007874015748
          },
          {
            "duration": 0.21126749999999817,
            "durationTicks": 192,
            "midi": 49,
            "name": "C#3",
            "ticks": 52224,
            "time": 57.464760000000005,
            "velocity": 0.3937007874015748
          },
          {
            "duration": 0.21126749999999817,
            "durationTicks": 192,
            "midi": 37,
            "name": "C#2",
            "ticks": 52224,
            "time": 57.464760000000005,
            "velocity": 0.3937007874015748
          },
          {
            "duration": 0.21126750000000527,
            "durationTicks": 192,
            "midi": 61,
            "name": "C#4",
            "ticks": 52416,
            "time": 57.676027500000004,
            "velocity": 0.3937007874015748
          },
          {
            "duration": 0.21126750000000527,
            "durationTicks": 192,
            "midi": 58,
            "name": "A#3",
            "ticks": 52416,
            "time": 57.676027500000004,
            "velocity": 0.3937007874015748
          },
          {
            "duration": 0.21126750000000527,
            "durationTicks": 192,
            "midi": 55,
            "name": "G3",
            "ticks": 52416,
            "time": 57.676027500000004,
            "velocity": 0.3937007874015748
          },
          {
            "duration": 0.8450699999999998,
            "durationTicks": 768,
            "midi": 76,
            "name": "E5",
            "ticks": 52608,
            "time": 57.88729500000001,
            "velocity": 0.3937007874015748
          },
          {
            "duration": 0.8450699999999998,
            "durationTicks": 768,
            "midi": 79,
            "name": "G5",
            "ticks": 52608,
            "time": 57.88729500000001,
            "velocity": 0.3937007874015748
          },
          {
            "duration": 0.8450699999999998,
            "durationTicks": 768,
            "midi": 84,
            "name": "C6",
            "ticks": 52608,
            "time": 57.88729500000001,
            "velocity": 0.3937007874015748
          },
          {
            "duration": 0.21126749999999817,
            "durationTicks": 192,
            "midi": 43,
            "name": "G2",
            "ticks": 52608,
            "time": 57.88729500000001,
            "velocity": 0.3937007874015748
          },
          {
            "duration": 0.21126749999999817,
            "durationTicks": 192,
            "midi": 55,
            "name": "G3",
            "ticks": 52608,
            "time": 57.88729500000001,
            "velocity": 0.3937007874015748
          },
          {
            "duration": 0.8450699999999998,
            "durationTicks": 768,
            "midi": 72,
            "name": "C5",
            "ticks": 52608,
            "time": 57.88729500000001,
            "velocity": 0.3937007874015748
          },
          {
            "duration": 0.21126749999999817,
            "durationTicks": 192,
            "midi": 55,
            "name": "G3",
            "ticks": 52800,
            "time": 58.09856250000001,
            "velocity": 0.3937007874015748
          },
          {
            "duration": 0.21126749999999817,
            "durationTicks": 192,
            "midi": 52,
            "name": "E3",
            "ticks": 52800,
            "time": 58.09856250000001,
            "velocity": 0.3937007874015748
          },
          {
            "duration": 0.21126749999999817,
            "durationTicks": 192,
            "midi": 58,
            "name": "A#3",
            "ticks": 52800,
            "time": 58.09856250000001,
            "velocity": 0.3937007874015748
          },
          {
            "duration": 0.21126749999999817,
            "durationTicks": 192,
            "midi": 36,
            "name": "C2",
            "ticks": 52992,
            "time": 58.309830000000005,
            "velocity": 0.3937007874015748
          },
          {
            "duration": 0.21126749999999817,
            "durationTicks": 192,
            "midi": 48,
            "name": "C3",
            "ticks": 52992,
            "time": 58.309830000000005,
            "velocity": 0.3937007874015748
          },
          {
            "duration": 0.21126750000000527,
            "durationTicks": 192,
            "midi": 52,
            "name": "E3",
            "ticks": 53184,
            "time": 58.5210975,
            "velocity": 0.3937007874015748
          },
          {
            "duration": 0.21126750000000527,
            "durationTicks": 192,
            "midi": 55,
            "name": "G3",
            "ticks": 53184,
            "time": 58.5210975,
            "velocity": 0.3937007874015748
          },
          {
            "duration": 0.21126750000000527,
            "durationTicks": 192,
            "midi": 58,
            "name": "A#3",
            "ticks": 53184,
            "time": 58.5210975,
            "velocity": 0.3937007874015748
          },
          {
            "duration": 0.21126749999999817,
            "durationTicks": 192,
            "midi": 52,
            "name": "E3",
            "ticks": 53376,
            "time": 58.73236500000001,
            "velocity": 0.3937007874015748
          },
          {
            "duration": 0.21126749999999817,
            "durationTicks": 192,
            "midi": 79,
            "name": "G5",
            "ticks": 53376,
            "time": 58.73236500000001,
            "velocity": 0.3937007874015748
          },
          {
            "duration": 0.21126749999999817,
            "durationTicks": 192,
            "midi": 70,
            "name": "A#4",
            "ticks": 53376,
            "time": 58.73236500000001,
            "velocity": 0.3937007874015748
          },
          {
            "duration": 0.21126749999999817,
            "durationTicks": 192,
            "midi": 40,
            "name": "E2",
            "ticks": 53376,
            "time": 58.73236500000001,
            "velocity": 0.3937007874015748
          },
          {
            "duration": 0.21126749999999817,
            "durationTicks": 192,
            "midi": 82,
            "name": "A#5",
            "ticks": 53376,
            "time": 58.73236500000001,
            "velocity": 0.3937007874015748
          },
          {
            "duration": 0.21126749999999817,
            "durationTicks": 192,
            "midi": 48,
            "name": "C3",
            "ticks": 53568,
            "time": 58.94363250000001,
            "velocity": 0.3937007874015748
          },
          {
            "duration": 0.21126749999999817,
            "durationTicks": 192,
            "midi": 68,
            "name": "G#4",
            "ticks": 53568,
            "time": 58.94363250000001,
            "velocity": 0.3937007874015748
          },
          {
            "duration": 0.21126749999999817,
            "durationTicks": 192,
            "midi": 80,
            "name": "G#5",
            "ticks": 53568,
            "time": 58.94363250000001,
            "velocity": 0.3937007874015748
          },
          {
            "duration": 0.21126749999999817,
            "durationTicks": 192,
            "midi": 77,
            "name": "F5",
            "ticks": 53568,
            "time": 58.94363250000001,
            "velocity": 0.3937007874015748
          },
          {
            "duration": 0.21126749999999817,
            "durationTicks": 192,
            "midi": 36,
            "name": "C2",
            "ticks": 53568,
            "time": 58.94363250000001,
            "velocity": 0.3937007874015748
          },
          {
            "duration": 0.21126750000000527,
            "durationTicks": 192,
            "midi": 67,
            "name": "G4",
            "ticks": 53760,
            "time": 59.154900000000005,
            "velocity": 0.3937007874015748
          },
          {
            "duration": 0.21126750000000527,
            "durationTicks": 192,
            "midi": 50,
            "name": "D3",
            "ticks": 53760,
            "time": 59.154900000000005,
            "velocity": 0.3937007874015748
          },
          {
            "duration": 0.21126750000000527,
            "durationTicks": 192,
            "midi": 76,
            "name": "E5",
            "ticks": 53760,
            "time": 59.154900000000005,
            "velocity": 0.3937007874015748
          },
          {
            "duration": 0.21126750000000527,
            "durationTicks": 192,
            "midi": 79,
            "name": "G5",
            "ticks": 53760,
            "time": 59.154900000000005,
            "velocity": 0.3937007874015748
          },
          {
            "duration": 0.21126750000000527,
            "durationTicks": 192,
            "midi": 38,
            "name": "D2",
            "ticks": 53760,
            "time": 59.154900000000005,
            "velocity": 0.3937007874015748
          },
          {
            "duration": 0.21126749999999817,
            "durationTicks": 192,
            "midi": 76,
            "name": "E5",
            "ticks": 53952,
            "time": 59.36616750000001,
            "velocity": 0.3937007874015748
          },
          {
            "duration": 0.21126749999999817,
            "durationTicks": 192,
            "midi": 40,
            "name": "E2",
            "ticks": 53952,
            "time": 59.36616750000001,
            "velocity": 0.3937007874015748
          },
          {
            "duration": 0.21126749999999817,
            "durationTicks": 192,
            "midi": 68,
            "name": "G#4",
            "ticks": 53952,
            "time": 59.36616750000001,
            "velocity": 0.3937007874015748
          },
          {
            "duration": 0.21126749999999817,
            "durationTicks": 192,
            "midi": 80,
            "name": "G#5",
            "ticks": 53952,
            "time": 59.36616750000001,
            "velocity": 0.3937007874015748
          },
          {
            "duration": 0.21126749999999817,
            "durationTicks": 192,
            "midi": 52,
            "name": "E3",
            "ticks": 53952,
            "time": 59.36616750000001,
            "velocity": 0.3937007874015748
          },
          {
            "duration": 0.21126749999999817,
            "durationTicks": 192,
            "midi": 53,
            "name": "F3",
            "ticks": 54144,
            "time": 59.57743500000001,
            "velocity": 0.3937007874015748
          },
          {
            "duration": 0.8450699999999998,
            "durationTicks": 768,
            "midi": 77,
            "name": "F5",
            "ticks": 54144,
            "time": 59.57743500000001,
            "velocity": 0.3937007874015748
          },
          {
            "duration": 0.21126749999999817,
            "durationTicks": 192,
            "midi": 41,
            "name": "F2",
            "ticks": 54144,
            "time": 59.57743500000001,
            "velocity": 0.3937007874015748
          },
          {
            "duration": 0.8450699999999998,
            "durationTicks": 768,
            "midi": 68,
            "name": "G#4",
            "ticks": 54144,
            "time": 59.57743500000001,
            "velocity": 0.3937007874015748
          },
          {
            "duration": 0.8450699999999998,
            "durationTicks": 768,
            "midi": 72,
            "name": "C5",
            "ticks": 54144,
            "time": 59.57743500000001,
            "velocity": 0.3937007874015748
          },
          {
            "duration": 0.8450699999999998,
            "durationTicks": 768,
            "midi": 65,
            "name": "F4",
            "ticks": 54144,
            "time": 59.57743500000001,
            "velocity": 0.3937007874015748
          },
          {
            "duration": 0.21126749999999817,
            "durationTicks": 192,
            "midi": 53,
            "name": "F3",
            "ticks": 54336,
            "time": 59.78870250000001,
            "velocity": 0.3937007874015748
          },
          {
            "duration": 0.21126749999999817,
            "durationTicks": 192,
            "midi": 48,
            "name": "C3",
            "ticks": 54336,
            "time": 59.78870250000001,
            "velocity": 0.3937007874015748
          },
          {
            "duration": 0.21126750000000527,
            "durationTicks": 192,
            "midi": 48,
            "name": "C3",
            "ticks": 54528,
            "time": 59.999970000000005,
            "velocity": 0.3937007874015748
          },
          {
            "duration": 0.21126750000000527,
            "durationTicks": 192,
            "midi": 36,
            "name": "C2",
            "ticks": 54528,
            "time": 59.999970000000005,
            "velocity": 0.3937007874015748
          },
          {
            "duration": 0.21126749999999817,
            "durationTicks": 192,
            "midi": 53,
            "name": "F3",
            "ticks": 54720,
            "time": 60.21123750000001,
            "velocity": 0.3937007874015748
          },
          {
            "duration": 0.21126749999999817,
            "durationTicks": 192,
            "midi": 48,
            "name": "C3",
            "ticks": 54720,
            "time": 60.21123750000001,
            "velocity": 0.3937007874015748
          },
          {
            "duration": 0.42253499999999633,
            "durationTicks": 384,
            "midi": 29,
            "name": "F1",
            "ticks": 54912,
            "time": 60.42250500000001,
            "velocity": 0.3937007874015748
          },
          {
            "duration": 0.42253499999999633,
            "durationTicks": 384,
            "midi": 53,
            "name": "F3",
            "ticks": 54912,
            "time": 60.42250500000001,
            "velocity": 0.3937007874015748
          },
          {
            "duration": 0.42253499999999633,
            "durationTicks": 384,
            "midi": 41,
            "name": "F2",
            "ticks": 54912,
            "time": 60.42250500000001,
            "velocity": 0.3937007874015748
          },
          {
            "duration": 0.21126749999999817,
            "durationTicks": 192,
            "midi": 76,
            "name": "E5",
            "ticks": 55680,
            "time": 61.26757500000001,
            "velocity": 0.3937007874015748
          },
          {
            "duration": 0.21126749999999817,
            "durationTicks": 192,
            "midi": 36,
            "name": "C2",
            "ticks": 55680,
            "time": 61.26757500000001,
            "velocity": 0.3937007874015748
          },
          {
            "duration": 0.10563375000000264,
            "durationTicks": 96,
            "midi": 84,
            "name": "C6",
            "ticks": 55680,
            "time": 61.26757500000001,
            "velocity": 0.3937007874015748
          },
          {
            "duration": 0.21126749999999817,
            "durationTicks": 192,
            "midi": 48,
            "name": "C3",
            "ticks": 55680,
            "time": 61.26757500000001,
            "velocity": 0.3937007874015748
          },
          {
            "duration": 0.10563374999999553,
            "durationTicks": 96,
            "midi": 85,
            "name": "C#6",
            "ticks": 55776,
            "time": 61.37320875000001,
            "velocity": 0.3937007874015748
          },
          {
            "duration": 0.21126749999999817,
            "durationTicks": 192,
            "midi": 60,
            "name": "C4",
            "ticks": 55872,
            "time": 61.478842500000006,
            "velocity": 0.3937007874015748
          },
          {
            "duration": 0.10563375000000264,
            "durationTicks": 96,
            "midi": 84,
            "name": "C6",
            "ticks": 55872,
            "time": 61.478842500000006,
            "velocity": 0.3937007874015748
          },
          {
            "duration": 0.21126749999999817,
            "durationTicks": 192,
            "midi": 58,
            "name": "A#3",
            "ticks": 55872,
            "time": 61.478842500000006,
            "velocity": 0.3937007874015748
          },
          {
            "duration": 0.21126749999999817,
            "durationTicks": 192,
            "midi": 52,
            "name": "E3",
            "ticks": 55872,
            "time": 61.478842500000006,
            "velocity": 0.3937007874015748
          },
          {
            "duration": 0.10563374999999553,
            "durationTicks": 96,
            "midi": 82,
            "name": "A#5",
            "ticks": 55968,
            "time": 61.58447625000001,
            "velocity": 0.3937007874015748
          },
          {
            "duration": 0.10563375000000264,
            "durationTicks": 96,
            "midi": 79,
            "name": "G5",
            "ticks": 56064,
            "time": 61.690110000000004,
            "velocity": 0.3937007874015748
          },
          {
            "duration": 0.21126750000000527,
            "durationTicks": 192,
            "midi": 48,
            "name": "C3",
            "ticks": 56064,
            "time": 61.690110000000004,
            "velocity": 0.3937007874015748
          },
          {
            "duration": 0.21126750000000527,
            "durationTicks": 192,
            "midi": 36,
            "name": "C2",
            "ticks": 56064,
            "time": 61.690110000000004,
            "velocity": 0.3937007874015748
          },
          {
            "duration": 0.10563375000000264,
            "durationTicks": 96,
            "midi": 84,
            "name": "C6",
            "ticks": 56064,
            "time": 61.690110000000004,
            "velocity": 0.3937007874015748
          },
          {
            "duration": 0.10563375000000264,
            "durationTicks": 96,
            "midi": 82,
            "name": "A#5",
            "ticks": 56160,
            "time": 61.79574375000001,
            "velocity": 0.3937007874015748
          },
          {
            "duration": 0.21126749999999817,
            "durationTicks": 192,
            "midi": 58,
            "name": "A#3",
            "ticks": 56256,
            "time": 61.90137750000001,
            "velocity": 0.3937007874015748
          },
          {
            "duration": 0.21126749999999817,
            "durationTicks": 192,
            "midi": 52,
            "name": "E3",
            "ticks": 56256,
            "time": 61.90137750000001,
            "velocity": 0.3937007874015748
          },
          {
            "duration": 0.10563374999999553,
            "durationTicks": 96,
            "midi": 80,
            "name": "G#5",
            "ticks": 56256,
            "time": 61.90137750000001,
            "velocity": 0.3937007874015748
          },
          {
            "duration": 0.21126749999999817,
            "durationTicks": 192,
            "midi": 60,
            "name": "C4",
            "ticks": 56256,
            "time": 61.90137750000001,
            "velocity": 0.3937007874015748
          },
          {
            "duration": 0.10563375000000264,
            "durationTicks": 96,
            "midi": 79,
            "name": "G5",
            "ticks": 56352,
            "time": 62.007011250000005,
            "velocity": 0.3937007874015748
          },
          {
            "duration": 0.21126749999999817,
            "durationTicks": 192,
            "midi": 41,
            "name": "F2",
            "ticks": 56448,
            "time": 62.11264500000001,
            "velocity": 0.3937007874015748
          },
          {
            "duration": 0.21126749999999817,
            "durationTicks": 192,
            "midi": 53,
            "name": "F3",
            "ticks": 56448,
            "time": 62.11264500000001,
            "velocity": 0.3937007874015748
          },
          {
            "duration": 0.21126749999999817,
            "durationTicks": 192,
            "midi": 72,
            "name": "C5",
            "ticks": 56448,
            "time": 62.11264500000001,
            "velocity": 0.3937007874015748
          },
          {
            "duration": 0.21126749999999817,
            "durationTicks": 192,
            "midi": 77,
            "name": "F5",
            "ticks": 56448,
            "time": 62.11264500000001,
            "velocity": 0.3937007874015748
          },
          {
            "duration": 0.10563375000000264,
            "durationTicks": 96,
            "midi": 77,
            "name": "F5",
            "ticks": 57216,
            "time": 62.95771500000001,
            "velocity": 0.3937007874015748
          },
          {
            "duration": 0.21126749999999817,
            "durationTicks": 192,
            "midi": 36,
            "name": "C2",
            "ticks": 57216,
            "time": 62.95771500000001,
            "velocity": 0.3937007874015748
          },
          {
            "duration": 0.21126749999999817,
            "durationTicks": 192,
            "midi": 48,
            "name": "C3",
            "ticks": 57216,
            "time": 62.95771500000001,
            "velocity": 0.3937007874015748
          },
          {
            "duration": 0.10563375000000264,
            "durationTicks": 96,
            "midi": 76,
            "name": "E5",
            "ticks": 57264,
            "time": 63.010531875000005,
            "velocity": 0.3937007874015748
          },
          {
            "duration": 0.10563375000000264,
            "durationTicks": 96,
            "midi": 79,
            "name": "G5",
            "ticks": 57264,
            "time": 63.010531875000005,
            "velocity": 0.3937007874015748
          },
          {
            "duration": 0.10563375000000264,
            "durationTicks": 96,
            "midi": 76,
            "name": "E5",
            "ticks": 57408,
            "time": 63.168982500000006,
            "velocity": 0.3937007874015748
          },
          {
            "duration": 0.21126750000000527,
            "durationTicks": 192,
            "midi": 58,
            "name": "A#3",
            "ticks": 57408,
            "time": 63.168982500000006,
            "velocity": 0.3937007874015748
          },
          {
            "duration": 0.10563375000000264,
            "durationTicks": 96,
            "midi": 80,
            "name": "G#5",
            "ticks": 57408,
            "time": 63.168982500000006,
            "velocity": 0.3937007874015748
          },
          {
            "duration": 0.21126750000000527,
            "durationTicks": 192,
            "midi": 55,
            "name": "G3",
            "ticks": 57408,
            "time": 63.168982500000006,
            "velocity": 0.3937007874015748
          },
          {
            "duration": 0.21126750000000527,
            "durationTicks": 192,
            "midi": 60,
            "name": "C4",
            "ticks": 57408,
            "time": 63.168982500000006,
            "velocity": 0.3937007874015748
          },
          {
            "duration": 0.10563374999999553,
            "durationTicks": 96,
            "midi": 82,
            "name": "A#5",
            "ticks": 57600,
            "time": 63.38025000000001,
            "velocity": 0.3937007874015748
          },
          {
            "duration": 0.21126749999999817,
            "durationTicks": 192,
            "midi": 48,
            "name": "C3",
            "ticks": 57600,
            "time": 63.38025000000001,
            "velocity": 0.3937007874015748
          },
          {
            "duration": 0.21126749999999817,
            "durationTicks": 192,
            "midi": 36,
            "name": "C2",
            "ticks": 57600,
            "time": 63.38025000000001,
            "velocity": 0.3937007874015748
          },
          {
            "duration": 0.10563374999999553,
            "durationTicks": 96,
            "midi": 73,
            "name": "C#5",
            "ticks": 57600,
            "time": 63.38025000000001,
            "velocity": 0.3937007874015748
          },
          {
            "duration": 0.10563374999999553,
            "durationTicks": 96,
            "midi": 84,
            "name": "C6",
            "ticks": 57792,
            "time": 63.59151750000001,
            "velocity": 0.3937007874015748
          },
          {
            "duration": 0.10563374999999553,
            "durationTicks": 96,
            "midi": 72,
            "name": "C5",
            "ticks": 57792,
            "time": 63.59151750000001,
            "velocity": 0.3937007874015748
          },
          {
            "duration": 0.21126749999999817,
            "durationTicks": 192,
            "midi": 60,
            "name": "C4",
            "ticks": 57792,
            "time": 63.59151750000001,
            "velocity": 0.3937007874015748
          },
          {
            "duration": 0.21126749999999817,
            "durationTicks": 192,
            "midi": 58,
            "name": "A#3",
            "ticks": 57792,
            "time": 63.59151750000001,
            "velocity": 0.3937007874015748
          },
          {
            "duration": 0.21126749999999817,
            "durationTicks": 192,
            "midi": 55,
            "name": "G3",
            "ticks": 57792,
            "time": 63.59151750000001,
            "velocity": 0.3937007874015748
          },
          {
            "duration": 0.21126749999999817,
            "durationTicks": 192,
            "midi": 55,
            "name": "G3",
            "ticks": 57984,
            "time": 63.80278500000001,
            "velocity": 0.3937007874015748
          },
          {
            "duration": 0.21126749999999817,
            "durationTicks": 192,
            "midi": 43,
            "name": "G2",
            "ticks": 57984,
            "time": 63.80278500000001,
            "velocity": 0.3937007874015748
          },
          {
            "duration": 0.10563375000000264,
            "durationTicks": 96,
            "midi": 73,
            "name": "C#5",
            "ticks": 57984,
            "time": 63.80278500000001,
            "velocity": 0.3937007874015748
          },
          {
            "duration": 0.10563375000000264,
            "durationTicks": 96,
            "midi": 85,
            "name": "C#6",
            "ticks": 57984,
            "time": 63.80278500000001,
            "velocity": 0.3937007874015748
          },
          {
            "duration": 0.21126750000000527,
            "durationTicks": 192,
            "midi": 58,
            "name": "A#3",
            "ticks": 58176,
            "time": 64.0140525,
            "velocity": 0.3937007874015748
          },
          {
            "duration": 0.21126750000000527,
            "durationTicks": 192,
            "midi": 52,
            "name": "E3",
            "ticks": 58176,
            "time": 64.0140525,
            "velocity": 0.3937007874015748
          },
          {
            "duration": 0.10563374999999553,
            "durationTicks": 96,
            "midi": 70,
            "name": "A#4",
            "ticks": 58176,
            "time": 64.0140525,
            "velocity": 0.3937007874015748
          },
          {
            "duration": 0.10563374999999553,
            "durationTicks": 96,
            "midi": 82,
            "name": "A#5",
            "ticks": 58176,
            "time": 64.0140525,
            "velocity": 0.3937007874015748
          },
          {
            "duration": 0.21126750000000527,
            "durationTicks": 192,
            "midi": 60,
            "name": "C4",
            "ticks": 58176,
            "time": 64.0140525,
            "velocity": 0.3937007874015748
          },
          {
            "duration": 0.21126749999999106,
            "durationTicks": 192,
            "midi": 43,
            "name": "G2",
            "ticks": 58368,
            "time": 64.22532000000001,
            "velocity": 0.3937007874015748
          },
          {
            "duration": 0.42253499999999633,
            "durationTicks": 384,
            "midi": 72,
            "name": "C5",
            "ticks": 58368,
            "time": 64.22532000000001,
            "velocity": 0.3937007874015748
          },
          {
            "duration": 0.42253499999999633,
            "durationTicks": 384,
            "midi": 84,
            "name": "C6",
            "ticks": 58368,
            "time": 64.22532000000001,
            "velocity": 0.3937007874015748
          },
          {
            "duration": 0.21126749999999106,
            "durationTicks": 192,
            "midi": 31,
            "name": "G1",
            "ticks": 58368,
            "time": 64.22532000000001,
            "velocity": 0.3937007874015748
          },
          {
            "duration": 0.21126750000000527,
            "durationTicks": 192,
            "midi": 60,
            "name": "C4",
            "ticks": 58560,
            "time": 64.4365875,
            "velocity": 0.3937007874015748
          },
          {
            "duration": 0.21126750000000527,
            "durationTicks": 192,
            "midi": 52,
            "name": "E3",
            "ticks": 58560,
            "time": 64.4365875,
            "velocity": 0.3937007874015748
          },
          {
            "duration": 0.21126750000000527,
            "durationTicks": 192,
            "midi": 58,
            "name": "A#3",
            "ticks": 58560,
            "time": 64.4365875,
            "velocity": 0.3937007874015748
          },
          {
            "duration": 0.21126750000000527,
            "durationTicks": 192,
            "midi": 76,
            "name": "E5",
            "ticks": 58752,
            "time": 64.647855,
            "velocity": 0.3937007874015748
          },
          {
            "duration": 0.10563374999999553,
            "durationTicks": 96,
            "midi": 84,
            "name": "C6",
            "ticks": 58752,
            "time": 64.647855,
            "velocity": 0.3937007874015748
          },
          {
            "duration": 0.21126750000000527,
            "durationTicks": 192,
            "midi": 55,
            "name": "G3",
            "ticks": 58752,
            "time": 64.647855,
            "velocity": 0.3937007874015748
          },
          {
            "duration": 0.21126750000000527,
            "durationTicks": 192,
            "midi": 43,
            "name": "G2",
            "ticks": 58752,
            "time": 64.647855,
            "velocity": 0.3937007874015748
          },
          {
            "duration": 0.10563375000000974,
            "durationTicks": 96,
            "midi": 85,
            "name": "C#6",
            "ticks": 58848,
            "time": 64.75348875,
            "velocity": 0.3937007874015748
          },
          {
            "duration": 0.21126749999999106,
            "durationTicks": 192,
            "midi": 60,
            "name": "C4",
            "ticks": 58944,
            "time": 64.85912250000001,
            "velocity": 0.3937007874015748
          },
          {
            "duration": 0.21126749999999106,
            "durationTicks": 192,
            "midi": 58,
            "name": "A#3",
            "ticks": 58944,
            "time": 64.85912250000001,
            "velocity": 0.3937007874015748
          },
          {
            "duration": 0.21126749999999106,
            "durationTicks": 192,
            "midi": 52,
            "name": "E3",
            "ticks": 58944,
            "time": 64.85912250000001,
            "velocity": 0.3937007874015748
          },
          {
            "duration": 0.10563374999999553,
            "durationTicks": 96,
            "midi": 84,
            "name": "C6",
            "ticks": 58944,
            "time": 64.85912250000001,
            "velocity": 0.3937007874015748
          },
          {
            "duration": 0.10563374999999553,
            "durationTicks": 96,
            "midi": 82,
            "name": "A#5",
            "ticks": 59040,
            "time": 64.96475625000001,
            "velocity": 0.3937007874015748
          },
          {
            "duration": 0.21126750000000527,
            "durationTicks": 192,
            "midi": 48,
            "name": "C3",
            "ticks": 59136,
            "time": 65.07039,
            "velocity": 0.3937007874015748
          },
          {
            "duration": 0.21126750000000527,
            "durationTicks": 192,
            "midi": 36,
            "name": "C2",
            "ticks": 59136,
            "time": 65.07039,
            "velocity": 0.3937007874015748
          },
          {
            "duration": 0.10563375000000974,
            "durationTicks": 96,
            "midi": 79,
            "name": "G5",
            "ticks": 59136,
            "time": 65.07039,
            "velocity": 0.3937007874015748
          },
          {
            "duration": 0.10563375000000974,
            "durationTicks": 96,
            "midi": 84,
            "name": "C6",
            "ticks": 59136,
            "time": 65.07039,
            "velocity": 0.3937007874015748
          },
          {
            "duration": 0.10563374999999553,
            "durationTicks": 96,
            "midi": 82,
            "name": "A#5",
            "ticks": 59232,
            "time": 65.17602375000001,
            "velocity": 0.3937007874015748
          },
          {
            "duration": 0.21126750000000527,
            "durationTicks": 192,
            "midi": 52,
            "name": "E3",
            "ticks": 59328,
            "time": 65.28165750000001,
            "velocity": 0.3937007874015748
          },
          {
            "duration": 0.21126750000000527,
            "durationTicks": 192,
            "midi": 58,
            "name": "A#3",
            "ticks": 59328,
            "time": 65.28165750000001,
            "velocity": 0.3937007874015748
          },
          {
            "duration": 0.21126750000000527,
            "durationTicks": 192,
            "midi": 60,
            "name": "C4",
            "ticks": 59328,
            "time": 65.28165750000001,
            "velocity": 0.3937007874015748
          },
          {
            "duration": 0.10563374999999553,
            "durationTicks": 96,
            "midi": 80,
            "name": "G#5",
            "ticks": 59328,
            "time": 65.28165750000001,
            "velocity": 0.3937007874015748
          },
          {
            "duration": 0.10563375000000974,
            "durationTicks": 96,
            "midi": 79,
            "name": "G5",
            "ticks": 59424,
            "time": 65.38729125,
            "velocity": 0.3937007874015748
          },
          {
            "duration": 0.21126749999999106,
            "durationTicks": 192,
            "midi": 41,
            "name": "F2",
            "ticks": 59520,
            "time": 65.49292500000001,
            "velocity": 0.3937007874015748
          },
          {
            "duration": 0.21126749999999106,
            "durationTicks": 192,
            "midi": 72,
            "name": "C5",
            "ticks": 59520,
            "time": 65.49292500000001,
            "velocity": 0.3937007874015748
          },
          {
            "duration": 0.21126749999999106,
            "durationTicks": 192,
            "midi": 77,
            "name": "F5",
            "ticks": 59520,
            "time": 65.49292500000001,
            "velocity": 0.3937007874015748
          },
          {
            "duration": 0.21126749999999106,
            "durationTicks": 192,
            "midi": 53,
            "name": "F3",
            "ticks": 59520,
            "time": 65.49292500000001,
            "velocity": 0.3937007874015748
          },
          {
            "duration": 0.21126750000000527,
            "durationTicks": 192,
            "midi": 84,
            "name": "C6",
            "ticks": 60288,
            "time": 66.337995,
            "velocity": 0.3937007874015748
          },
          {
            "duration": 0.21126750000000527,
            "durationTicks": 192,
            "midi": 36,
            "name": "C2",
            "ticks": 60288,
            "time": 66.337995,
            "velocity": 0.3937007874015748
          },
          {
            "duration": 0.21126750000000527,
            "durationTicks": 192,
            "midi": 76,
            "name": "E5",
            "ticks": 60288,
            "time": 66.337995,
            "velocity": 0.3937007874015748
          },
          {
            "duration": 0.21126750000000527,
            "durationTicks": 192,
            "midi": 72,
            "name": "C5",
            "ticks": 60288,
            "time": 66.337995,
            "velocity": 0.3937007874015748
          },
          {
            "duration": 0.21126750000000527,
            "durationTicks": 192,
            "midi": 48,
            "name": "C3",
            "ticks": 60288,
            "time": 66.337995,
            "velocity": 0.3937007874015748
          },
          {
            "duration": 0.21126749999999106,
            "durationTicks": 192,
            "midi": 73,
            "name": "C#5",
            "ticks": 60480,
            "time": 66.54926250000001,
            "velocity": 0.3937007874015748
          },
          {
            "duration": 0.21126749999999106,
            "durationTicks": 192,
            "midi": 48,
            "name": "C3",
            "ticks": 60480,
            "time": 66.54926250000001,
            "velocity": 0.3937007874015748
          },
          {
            "duration": 0.21126749999999106,
            "durationTicks": 192,
            "midi": 70,
            "name": "A#4",
            "ticks": 60480,
            "time": 66.54926250000001,
            "velocity": 0.3937007874015748
          },
          {
            "duration": 0.21126749999999106,
            "durationTicks": 192,
            "midi": 82,
            "name": "A#5",
            "ticks": 60480,
            "time": 66.54926250000001,
            "velocity": 0.3937007874015748
          },
          {
            "duration": 0.21126749999999106,
            "durationTicks": 192,
            "midi": 36,
            "name": "C2",
            "ticks": 60480,
            "time": 66.54926250000001,
            "velocity": 0.3937007874015748
          },
          {
            "duration": 0.21126750000000527,
            "durationTicks": 192,
            "midi": 50,
            "name": "D3",
            "ticks": 60672,
            "time": 66.76053,
            "velocity": 0.3937007874015748
          },
          {
            "duration": 0.21126750000000527,
            "durationTicks": 192,
            "midi": 72,
            "name": "C5",
            "ticks": 60672,
            "time": 66.76053,
            "velocity": 0.3937007874015748
          },
          {
            "duration": 0.21126750000000527,
            "durationTicks": 192,
            "midi": 38,
            "name": "D2",
            "ticks": 60672,
            "time": 66.76053,
            "velocity": 0.3937007874015748
          },
          {
            "duration": 0.21126750000000527,
            "durationTicks": 192,
            "midi": 68,
            "name": "G#4",
            "ticks": 60672,
            "time": 66.76053,
            "velocity": 0.3937007874015748
          },
          {
            "duration": 0.21126750000000527,
            "durationTicks": 192,
            "midi": 80,
            "name": "G#5",
            "ticks": 60672,
            "time": 66.76053,
            "velocity": 0.3937007874015748
          },
          {
            "duration": 0.21126750000000527,
            "durationTicks": 192,
            "midi": 70,
            "name": "A#4",
            "ticks": 60864,
            "time": 66.97179750000001,
            "velocity": 0.3937007874015748
          },
          {
            "duration": 0.21126750000000527,
            "durationTicks": 192,
            "midi": 67,
            "name": "G4",
            "ticks": 60864,
            "time": 66.97179750000001,
            "velocity": 0.3937007874015748
          },
          {
            "duration": 0.21126750000000527,
            "durationTicks": 192,
            "midi": 52,
            "name": "E3",
            "ticks": 60864,
            "time": 66.97179750000001,
            "velocity": 0.3937007874015748
          },
          {
            "duration": 0.21126750000000527,
            "durationTicks": 192,
            "midi": 79,
            "name": "G5",
            "ticks": 60864,
            "time": 66.97179750000001,
            "velocity": 0.3937007874015748
          },
          {
            "duration": 0.21126750000000527,
            "durationTicks": 192,
            "midi": 40,
            "name": "E2",
            "ticks": 60864,
            "time": 66.97179750000001,
            "velocity": 0.3937007874015748
          },
          {
            "duration": 0.21126749999999106,
            "durationTicks": 192,
            "midi": 77,
            "name": "F5",
            "ticks": 61056,
            "time": 67.18306500000001,
            "velocity": 0.3937007874015748
          },
          {
            "duration": 0.21126749999999106,
            "durationTicks": 192,
            "midi": 41,
            "name": "F2",
            "ticks": 61056,
            "time": 67.18306500000001,
            "velocity": 0.3937007874015748
          },
          {
            "duration": 0.21126749999999106,
            "durationTicks": 192,
            "midi": 65,
            "name": "F4",
            "ticks": 61056,
            "time": 67.18306500000001,
            "velocity": 0.3937007874015748
          },
          {
            "duration": 0.21126749999999106,
            "durationTicks": 192,
            "midi": 53,
            "name": "F3",
            "ticks": 61056,
            "time": 67.18306500000001,
            "velocity": 0.3937007874015748
          },
          {
            "duration": 0.21126749999999106,
            "durationTicks": 192,
            "midi": 68,
            "name": "G#4",
            "ticks": 61056,
            "time": 67.18306500000001,
            "velocity": 0.3937007874015748
          }
        ],
        "endOfTrackTicks": 61248
      },
      {
        "channel": 2,
        "controlChanges": {},
        "pitchBends": [],
        "instrument": {
          "family": "strings",
          "number": 45,
          "name": "pizzicato strings"
        },
        "name": "Pizzicato",
        "notes": [
          {
            "duration": 0.21126750000000002,
            "durationTicks": 192,
            "midi": 64,
            "name": "E4",
            "ticks": 0,
            "time": 0,
            "velocity": 0.3937007874015748
          },
          {
            "duration": 0.21126750000000002,
            "durationTicks": 192,
            "midi": 48,
            "name": "C3",
            "ticks": 0,
            "time": 0,
            "velocity": 0.3937007874015748
          },
          {
            "duration": 0.21126750000000002,
            "durationTicks": 192,
            "midi": 72,
            "name": "C5",
            "ticks": 0,
            "time": 0,
            "velocity": 0.3937007874015748
          },
          {
            "duration": 0.21126750000000002,
            "durationTicks": 192,
            "midi": 36,
            "name": "C2",
            "ticks": 0,
            "time": 0,
            "velocity": 0.3937007874015748
          },
          {
            "duration": 0.21126750000000002,
            "durationTicks": 192,
            "midi": 70,
            "name": "A#4",
            "ticks": 0,
            "time": 0,
            "velocity": 0.3937007874015748
          },
          {
            "duration": 0.05281687500000004,
            "durationTicks": 48,
            "midi": 75,
            "name": "D#5",
            "ticks": 288,
            "time": 0.31690125,
            "velocity": 0.3937007874015748
          },
          {
            "duration": 0.052816874999999985,
            "durationTicks": 48,
            "midi": 76,
            "name": "E5",
            "ticks": 336,
            "time": 0.36971812500000006,
            "velocity": 0.3937007874015748
          },
          {
            "duration": 0.2112675,
            "durationTicks": 192,
            "midi": 65,
            "name": "F4",
            "ticks": 384,
            "time": 0.42253500000000005,
            "velocity": 0.3937007874015748
          },
          {
            "duration": 0.2112675,
            "durationTicks": 192,
            "midi": 41,
            "name": "F2",
            "ticks": 384,
            "time": 0.42253500000000005,
            "velocity": 0.3937007874015748
          },
          {
            "duration": 0.2112675,
            "durationTicks": 192,
            "midi": 77,
            "name": "F5",
            "ticks": 384,
            "time": 0.42253500000000005,
            "velocity": 0.3937007874015748
          },
          {
            "duration": 0.2112675,
            "durationTicks": 192,
            "midi": 72,
            "name": "C5",
            "ticks": 384,
            "time": 0.42253500000000005,
            "velocity": 0.3937007874015748
          },
          {
            "duration": 0.2112675,
            "durationTicks": 192,
            "midi": 53,
            "name": "F3",
            "ticks": 384,
            "time": 0.42253500000000005,
            "velocity": 0.3937007874015748
          },
          {
            "duration": 0.21126750000000005,
            "durationTicks": 192,
            "midi": 53,
            "name": "F3",
            "ticks": 576,
            "time": 0.6338025,
            "velocity": 0.3937007874015748
          },
          {
            "duration": 0.21126750000000005,
            "durationTicks": 192,
            "midi": 72,
            "name": "C5",
            "ticks": 576,
            "time": 0.6338025,
            "velocity": 0.3937007874015748
          },
          {
            "duration": 0.21126750000000005,
            "durationTicks": 192,
            "midi": 56,
            "name": "G#3",
            "ticks": 576,
            "time": 0.6338025,
            "velocity": 0.3937007874015748
          },
          {
            "duration": 0.21126750000000005,
            "durationTicks": 192,
            "midi": 48,
            "name": "C3",
            "ticks": 576,
            "time": 0.6338025,
            "velocity": 0.3937007874015748
          },
          {
            "duration": 0.21126750000000005,
            "durationTicks": 192,
            "midi": 65,
            "name": "F4",
            "ticks": 576,
            "time": 0.6338025,
            "velocity": 0.3937007874015748
          },
          {
            "duration": 0.21126750000000005,
            "durationTicks": 192,
            "midi": 77,
            "name": "F5",
            "ticks": 576,
            "time": 0.6338025,
            "velocity": 0.3937007874015748
          },
          {
            "duration": 0.21126750000000005,
            "durationTicks": 192,
            "midi": 36,
            "name": "C2",
            "ticks": 768,
            "time": 0.8450700000000001,
            "velocity": 0.3937007874015748
          },
          {
            "duration": 0.10563374999999997,
            "durationTicks": 96,
            "midi": 72,
            "name": "C5",
            "ticks": 768,
            "time": 0.8450700000000001,
            "velocity": 0.3937007874015748
          },
          {
            "duration": 0.21126750000000005,
            "durationTicks": 192,
            "midi": 48,
            "name": "C3",
            "ticks": 768,
            "time": 0.8450700000000001,
            "velocity": 0.3937007874015748
          },
          {
            "duration": 0.10563375000000008,
            "durationTicks": 96,
            "midi": 74,
            "name": "D5",
            "ticks": 864,
            "time": 0.9507037500000001,
            "velocity": 0.3937007874015748
          },
          {
            "duration": 0.21126749999999994,
            "durationTicks": 192,
            "midi": 53,
            "name": "F3",
            "ticks": 960,
            "time": 1.0563375000000002,
            "velocity": 0.3937007874015748
          },
          {
            "duration": 0.21126749999999994,
            "durationTicks": 192,
            "midi": 56,
            "name": "G#3",
            "ticks": 960,
            "time": 1.0563375000000002,
            "velocity": 0.3937007874015748
          },
          {
            "duration": 0.10563374999999997,
            "durationTicks": 96,
            "midi": 75,
            "name": "D#5",
            "ticks": 960,
            "time": 1.0563375000000002,
            "velocity": 0.3937007874015748
          },
          {
            "duration": 0.21126749999999994,
            "durationTicks": 192,
            "midi": 48,
            "name": "C3",
            "ticks": 960,
            "time": 1.0563375000000002,
            "velocity": 0.3937007874015748
          },
          {
            "duration": 0.10563374999999997,
            "durationTicks": 96,
            "midi": 76,
            "name": "E5",
            "ticks": 1056,
            "time": 1.1619712500000001,
            "velocity": 0.3937007874015748
          },
          {
            "duration": 0.21126750000000016,
            "durationTicks": 192,
            "midi": 41,
            "name": "F2",
            "ticks": 1152,
            "time": 1.267605,
            "velocity": 0.3937007874015748
          },
          {
            "duration": 0.21126750000000016,
            "durationTicks": 192,
            "midi": 53,
            "name": "F3",
            "ticks": 1152,
            "time": 1.267605,
            "velocity": 0.3937007874015748
          },
          {
            "duration": 0.21126750000000016,
            "durationTicks": 192,
            "midi": 77,
            "name": "F5",
            "ticks": 1152,
            "time": 1.267605,
            "velocity": 0.3937007874015748
          },
          {
            "duration": 0.21126750000000016,
            "durationTicks": 192,
            "midi": 65,
            "name": "F4",
            "ticks": 1152,
            "time": 1.267605,
            "velocity": 0.3937007874015748
          },
          {
            "duration": 0.21126750000000016,
            "durationTicks": 192,
            "midi": 72,
            "name": "C5",
            "ticks": 1152,
            "time": 1.267605,
            "velocity": 0.3937007874015748
          },
          {
            "duration": 0.21126749999999994,
            "durationTicks": 192,
            "midi": 65,
            "name": "F4",
            "ticks": 1344,
            "time": 1.4788725000000003,
            "velocity": 0.3937007874015748
          },
          {
            "duration": 0.21126749999999994,
            "durationTicks": 192,
            "midi": 72,
            "name": "C5",
            "ticks": 1344,
            "time": 1.4788725000000003,
            "velocity": 0.3937007874015748
          },
          {
            "duration": 0.21126749999999994,
            "durationTicks": 192,
            "midi": 53,
            "name": "F3",
            "ticks": 1344,
            "time": 1.4788725000000003,
            "velocity": 0.3937007874015748
          },
          {
            "duration": 0.21126749999999994,
            "durationTicks": 192,
            "midi": 48,
            "name": "C3",
            "ticks": 1344,
            "time": 1.4788725000000003,
            "velocity": 0.3937007874015748
          },
          {
            "duration": 0.21126749999999994,
            "durationTicks": 192,
            "midi": 56,
            "name": "G#3",
            "ticks": 1344,
            "time": 1.4788725000000003,
            "velocity": 0.3937007874015748
          },
          {
            "duration": 0.21126749999999994,
            "durationTicks": 192,
            "midi": 77,
            "name": "F5",
            "ticks": 1344,
            "time": 1.4788725000000003,
            "velocity": 0.3937007874015748
          },
          {
            "duration": 0.21126749999999994,
            "durationTicks": 192,
            "midi": 36,
            "name": "C2",
            "ticks": 1536,
            "time": 1.6901400000000002,
            "velocity": 0.3937007874015748
          },
          {
            "duration": 0.21126749999999994,
            "durationTicks": 192,
            "midi": 72,
            "name": "C5",
            "ticks": 1536,
            "time": 1.6901400000000002,
            "velocity": 0.3937007874015748
          },
          {
            "duration": 0.21126749999999994,
            "durationTicks": 192,
            "midi": 77,
            "name": "F5",
            "ticks": 1536,
            "time": 1.6901400000000002,
            "velocity": 0.3937007874015748
          },
          {
            "duration": 0.21126749999999994,
            "durationTicks": 192,
            "midi": 80,
            "name": "G#5",
            "ticks": 1536,
            "time": 1.6901400000000002,
            "velocity": 0.3937007874015748
          },
          {
            "duration": 0.21126749999999994,
            "durationTicks": 192,
            "midi": 48,
            "name": "C3",
            "ticks": 1536,
            "time": 1.6901400000000002,
            "velocity": 0.3937007874015748
          },
          {
            "duration": 0.10563375000000019,
            "durationTicks": 96,
            "midi": 79,
            "name": "G5",
            "ticks": 1728,
            "time": 1.9014075000000001,
            "velocity": 0.3937007874015748
          },
          {
            "duration": 0.21126750000000016,
            "durationTicks": 192,
            "midi": 48,
            "name": "C3",
            "ticks": 1728,
            "time": 1.9014075000000001,
            "velocity": 0.3937007874015748
          },
          {
            "duration": 0.21126750000000016,
            "durationTicks": 192,
            "midi": 56,
            "name": "G#3",
            "ticks": 1728,
            "time": 1.9014075000000001,
            "velocity": 0.3937007874015748
          },
          {
            "duration": 0.21126750000000016,
            "durationTicks": 192,
            "midi": 53,
            "name": "F3",
            "ticks": 1728,
            "time": 1.9014075000000001,
            "velocity": 0.3937007874015748
          },
          {
            "duration": 0.10563374999999997,
            "durationTicks": 96,
            "midi": 77,
            "name": "F5",
            "ticks": 1824,
            "time": 2.0070412500000003,
            "velocity": 0.3937007874015748
          },
          {
            "duration": 0.21126749999999994,
            "durationTicks": 192,
            "midi": 79,
            "name": "G5",
            "ticks": 1920,
            "time": 2.1126750000000003,
            "velocity": 0.3937007874015748
          },
          {
            "duration": 0.21126749999999994,
            "durationTicks": 192,
            "midi": 55,
            "name": "G3",
            "ticks": 1920,
            "time": 2.1126750000000003,
            "velocity": 0.3937007874015748
          },
          {
            "duration": 0.21126749999999994,
            "durationTicks": 192,
            "midi": 72,
            "name": "C5",
            "ticks": 1920,
            "time": 2.1126750000000003,
            "velocity": 0.3937007874015748
          },
          {
            "duration": 0.21126749999999994,
            "durationTicks": 192,
            "midi": 76,
            "name": "E5",
            "ticks": 1920,
            "time": 2.1126750000000003,
            "velocity": 0.3937007874015748
          },
          {
            "duration": 0.21126749999999994,
            "durationTicks": 192,
            "midi": 43,
            "name": "G2",
            "ticks": 1920,
            "time": 2.1126750000000003,
            "velocity": 0.3937007874015748
          },
          {
            "duration": 0.21126749999999994,
            "durationTicks": 192,
            "midi": 79,
            "name": "G5",
            "ticks": 2112,
            "time": 2.3239425000000002,
            "velocity": 0.3937007874015748
          },
          {
            "duration": 0.21126749999999994,
            "durationTicks": 192,
            "midi": 60,
            "name": "C4",
            "ticks": 2112,
            "time": 2.3239425000000002,
            "velocity": 0.3937007874015748
          },
          {
            "duration": 0.21126749999999994,
            "durationTicks": 192,
            "midi": 76,
            "name": "E5",
            "ticks": 2112,
            "time": 2.3239425000000002,
            "velocity": 0.3937007874015748
          },
          {
            "duration": 0.21126749999999994,
            "durationTicks": 192,
            "midi": 72,
            "name": "C5",
            "ticks": 2112,
            "time": 2.3239425000000002,
            "velocity": 0.3937007874015748
          },
          {
            "duration": 0.21126749999999994,
            "durationTicks": 192,
            "midi": 58,
            "name": "A#3",
            "ticks": 2112,
            "time": 2.3239425000000002,
            "velocity": 0.3937007874015748
          },
          {
            "duration": 0.21126749999999994,
            "durationTicks": 192,
            "midi": 55,
            "name": "G3",
            "ticks": 2112,
            "time": 2.3239425000000002,
            "velocity": 0.3937007874015748
          },
          {
            "duration": 0.052816874999999985,
            "durationTicks": 48,
            "midi": 80,
            "name": "G#5",
            "ticks": 2304,
            "time": 2.53521,
            "velocity": 0.3937007874015748
          },
          {
            "duration": 0.21126749999999994,
            "durationTicks": 192,
            "midi": 48,
            "name": "C3",
            "ticks": 2304,
            "time": 2.53521,
            "velocity": 0.3937007874015748
          },
          {
            "duration": 0.21126749999999994,
            "durationTicks": 192,
            "midi": 36,
            "name": "C2",
            "ticks": 2304,
            "time": 2.53521,
            "velocity": 0.3937007874015748
          },
          {
            "duration": 0.052816874999999985,
            "durationTicks": 48,
            "midi": 81,
            "name": "A5",
            "ticks": 2376,
            "time": 2.6144353125000004,
            "velocity": 0.3937007874015748
          },
          {
            "duration": 0.052816874999999985,
            "durationTicks": 48,
            "midi": 80,
            "name": "G#5",
            "ticks": 2448,
            "time": 2.693660625,
            "velocity": 0.3937007874015748
          },
          {
            "duration": 0.21126750000000039,
            "durationTicks": 192,
            "midi": 60,
            "name": "C4",
            "ticks": 2496,
            "time": 2.7464775,
            "velocity": 0.3937007874015748
          },
          {
            "duration": 0.21126750000000039,
            "durationTicks": 192,
            "midi": 58,
            "name": "A#3",
            "ticks": 2496,
            "time": 2.7464775,
            "velocity": 0.3937007874015748
          },
          {
            "duration": 0.21126750000000039,
            "durationTicks": 192,
            "midi": 77,
            "name": "F5",
            "ticks": 2496,
            "time": 2.7464775,
            "velocity": 0.3937007874015748
          },
          {
            "duration": 0.21126750000000039,
            "durationTicks": 192,
            "midi": 55,
            "name": "G3",
            "ticks": 2496,
            "time": 2.7464775,
            "velocity": 0.3937007874015748
          },
          {
            "duration": 0.21126749999999994,
            "durationTicks": 192,
            "midi": 43,
            "name": "G2",
            "ticks": 2688,
            "time": 2.9577450000000005,
            "velocity": 0.3937007874015748
          },
          {
            "duration": 0.4225349999999999,
            "durationTicks": 384,
            "midi": 67,
            "name": "G4",
            "ticks": 2688,
            "time": 2.9577450000000005,
            "velocity": 0.3937007874015748
          },
          {
            "duration": 0.21126749999999994,
            "durationTicks": 192,
            "midi": 55,
            "name": "G3",
            "ticks": 2688,
            "time": 2.9577450000000005,
            "velocity": 0.3937007874015748
          },
          {
            "duration": 0.4225349999999999,
            "durationTicks": 384,
            "midi": 79,
            "name": "G5",
            "ticks": 2688,
            "time": 2.9577450000000005,
            "velocity": 0.3937007874015748
          },
          {
            "duration": 0.4225349999999999,
            "durationTicks": 384,
            "midi": 72,
            "name": "C5",
            "ticks": 2688,
            "time": 2.9577450000000005,
            "velocity": 0.3937007874015748
          },
          {
            "duration": 0.4225349999999999,
            "durationTicks": 384,
            "midi": 76,
            "name": "E5",
            "ticks": 2688,
            "time": 2.9577450000000005,
            "velocity": 0.3937007874015748
          },
          {
            "duration": 0.21126749999999994,
            "durationTicks": 192,
            "midi": 60,
            "name": "C4",
            "ticks": 2880,
            "time": 3.1690125000000005,
            "velocity": 0.3937007874015748
          },
          {
            "duration": 0.21126749999999994,
            "durationTicks": 192,
            "midi": 55,
            "name": "G3",
            "ticks": 2880,
            "time": 3.1690125000000005,
            "velocity": 0.3937007874015748
          },
          {
            "duration": 0.21126749999999994,
            "durationTicks": 192,
            "midi": 58,
            "name": "A#3",
            "ticks": 2880,
            "time": 3.1690125000000005,
            "velocity": 0.3937007874015748
          },
          {
            "duration": 0.21126749999999994,
            "durationTicks": 192,
            "midi": 52,
            "name": "E3",
            "ticks": 3072,
            "time": 3.3802800000000004,
            "velocity": 0.3937007874015748
          },
          {
            "duration": 0.21126749999999994,
            "durationTicks": 192,
            "midi": 40,
            "name": "E2",
            "ticks": 3072,
            "time": 3.3802800000000004,
            "velocity": 0.3937007874015748
          },
          {
            "duration": 0.21126749999999994,
            "durationTicks": 192,
            "midi": 60,
            "name": "C4",
            "ticks": 3264,
            "time": 3.5915475000000003,
            "velocity": 0.3937007874015748
          },
          {
            "duration": 0.21126749999999994,
            "durationTicks": 192,
            "midi": 58,
            "name": "A#3",
            "ticks": 3264,
            "time": 3.5915475000000003,
            "velocity": 0.3937007874015748
          },
          {
            "duration": 0.21126749999999994,
            "durationTicks": 192,
            "midi": 55,
            "name": "G3",
            "ticks": 3264,
            "time": 3.5915475000000003,
            "velocity": 0.3937007874015748
          },
          {
            "duration": 0.21126750000000039,
            "durationTicks": 192,
            "midi": 55,
            "name": "G3",
            "ticks": 3456,
            "time": 3.8028150000000003,
            "velocity": 0.3937007874015748
          },
          {
            "duration": 0.21126750000000039,
            "durationTicks": 192,
            "midi": 43,
            "name": "G2",
            "ticks": 3456,
            "time": 3.8028150000000003,
            "velocity": 0.3937007874015748
          },
          {
            "duration": 0.21126750000000039,
            "durationTicks": 192,
            "midi": 79,
            "name": "G5",
            "ticks": 3456,
            "time": 3.8028150000000003,
            "velocity": 0.3937007874015748
          },
          {
            "duration": 0.21126750000000039,
            "durationTicks": 192,
            "midi": 76,
            "name": "E5",
            "ticks": 3456,
            "time": 3.8028150000000003,
            "velocity": 0.3937007874015748
          },
          {
            "duration": 0.21126750000000039,
            "durationTicks": 192,
            "midi": 82,
            "name": "A#5",
            "ticks": 3456,
            "time": 3.8028150000000003,
            "velocity": 0.3937007874015748
          },
          {
            "duration": 0.21126749999999994,
            "durationTicks": 192,
            "midi": 76,
            "name": "E5",
            "ticks": 3648,
            "time": 4.014082500000001,
            "velocity": 0.3937007874015748
          },
          {
            "duration": 0.21126749999999994,
            "durationTicks": 192,
            "midi": 55,
            "name": "G3",
            "ticks": 3648,
            "time": 4.014082500000001,
            "velocity": 0.3937007874015748
          },
          {
            "duration": 0.21126749999999994,
            "durationTicks": 192,
            "midi": 82,
            "name": "A#5",
            "ticks": 3648,
            "time": 4.014082500000001,
            "velocity": 0.3937007874015748
          },
          {
            "duration": 0.21126749999999994,
            "durationTicks": 192,
            "midi": 79,
            "name": "G5",
            "ticks": 3648,
            "time": 4.014082500000001,
            "velocity": 0.3937007874015748
          },
          {
            "duration": 0.21126749999999994,
            "durationTicks": 192,
            "midi": 60,
            "name": "C4",
            "ticks": 3648,
            "time": 4.014082500000001,
            "velocity": 0.3937007874015748
          },
          {
            "duration": 0.21126749999999994,
            "durationTicks": 192,
            "midi": 58,
            "name": "A#3",
            "ticks": 3648,
            "time": 4.014082500000001,
            "velocity": 0.3937007874015748
          },
          {
            "duration": 0.05281687499999954,
            "durationTicks": 48,
            "midi": 85,
            "name": "C#6",
            "ticks": 3840,
            "time": 4.225350000000001,
            "velocity": 0.3937007874015748
          },
          {
            "duration": 0.21126749999999994,
            "durationTicks": 192,
            "midi": 48,
            "name": "C3",
            "ticks": 3840,
            "time": 4.225350000000001,
            "velocity": 0.3937007874015748
          },
          {
            "duration": 0.21126749999999994,
            "durationTicks": 192,
            "midi": 36,
            "name": "C2",
            "ticks": 3840,
            "time": 4.225350000000001,
            "velocity": 0.3937007874015748
          },
          {
            "duration": 0.05281687499999954,
            "durationTicks": 48,
            "midi": 87,
            "name": "D#6",
            "ticks": 3912,
            "time": 4.304575312500001,
            "velocity": 0.3937007874015748
          },
          {
            "duration": 0.05281687500000043,
            "durationTicks": 48,
            "midi": 85,
            "name": "C#6",
            "ticks": 3984,
            "time": 4.383800625,
            "velocity": 0.3937007874015748
          },
          {
            "duration": 0.21126749999999994,
            "durationTicks": 192,
            "midi": 58,
            "name": "A#3",
            "ticks": 4032,
            "time": 4.4366175000000005,
            "velocity": 0.3937007874015748
          },
          {
            "duration": 0.21126749999999994,
            "durationTicks": 192,
            "midi": 55,
            "name": "G3",
            "ticks": 4032,
            "time": 4.4366175000000005,
            "velocity": 0.3937007874015748
          },
          {
            "duration": 0.21126749999999994,
            "durationTicks": 192,
            "midi": 60,
            "name": "C4",
            "ticks": 4032,
            "time": 4.4366175000000005,
            "velocity": 0.3937007874015748
          },
          {
            "duration": 0.05281687500000043,
            "durationTicks": 48,
            "midi": 84,
            "name": "C6",
            "ticks": 4056,
            "time": 4.4630259375,
            "velocity": 0.3937007874015748
          },
          {
            "duration": 0.10563374999999997,
            "durationTicks": 96,
            "midi": 82,
            "name": "A#5",
            "ticks": 4128,
            "time": 4.5422512500000005,
            "velocity": 0.3937007874015748
          },
          {
            "duration": 0.21126749999999994,
            "durationTicks": 192,
            "midi": 43,
            "name": "G2",
            "ticks": 4224,
            "time": 4.6478850000000005,
            "velocity": 0.3937007874015748
          },
          {
            "duration": 0.21126749999999994,
            "durationTicks": 192,
            "midi": 55,
            "name": "G3",
            "ticks": 4224,
            "time": 4.6478850000000005,
            "velocity": 0.3937007874015748
          },
          {
            "duration": 0.21126749999999994,
            "durationTicks": 192,
            "midi": 76,
            "name": "E5",
            "ticks": 4224,
            "time": 4.6478850000000005,
            "velocity": 0.3937007874015748
          },
          {
            "duration": 0.21126749999999994,
            "durationTicks": 192,
            "midi": 79,
            "name": "G5",
            "ticks": 4224,
            "time": 4.6478850000000005,
            "velocity": 0.3937007874015748
          },
          {
            "duration": 0.21126749999999994,
            "durationTicks": 192,
            "midi": 84,
            "name": "C6",
            "ticks": 4224,
            "time": 4.6478850000000005,
            "velocity": 0.3937007874015748
          },
          {
            "duration": 0.21126749999999994,
            "durationTicks": 192,
            "midi": 79,
            "name": "G5",
            "ticks": 4416,
            "time": 4.8591525,
            "velocity": 0.3937007874015748
          },
          {
            "duration": 0.21126749999999994,
            "durationTicks": 192,
            "midi": 60,
            "name": "C4",
            "ticks": 4416,
            "time": 4.8591525,
            "velocity": 0.3937007874015748
          },
          {
            "duration": 0.21126749999999994,
            "durationTicks": 192,
            "midi": 55,
            "name": "G3",
            "ticks": 4416,
            "time": 4.8591525,
            "velocity": 0.3937007874015748
          },
          {
            "duration": 0.21126749999999994,
            "durationTicks": 192,
            "midi": 76,
            "name": "E5",
            "ticks": 4416,
            "time": 4.8591525,
            "velocity": 0.3937007874015748
          },
          {
            "duration": 0.21126749999999994,
            "durationTicks": 192,
            "midi": 58,
            "name": "A#3",
            "ticks": 4416,
            "time": 4.8591525,
            "velocity": 0.3937007874015748
          },
          {
            "duration": 0.21126749999999994,
            "durationTicks": 192,
            "midi": 84,
            "name": "C6",
            "ticks": 4416,
            "time": 4.8591525,
            "velocity": 0.3937007874015748
          },
          {
            "duration": 0.21126749999999994,
            "durationTicks": 192,
            "midi": 36,
            "name": "C2",
            "ticks": 4608,
            "time": 5.07042,
            "velocity": 0.3937007874015748
          },
          {
            "duration": 0.05281687500000043,
            "durationTicks": 48,
            "midi": 85,
            "name": "C#6",
            "ticks": 4608,
            "time": 5.07042,
            "velocity": 0.3937007874015748
          },
          {
            "duration": 0.21126749999999994,
            "durationTicks": 192,
            "midi": 48,
            "name": "C3",
            "ticks": 4608,
            "time": 5.07042,
            "velocity": 0.3937007874015748
          },
          {
            "duration": 0.05281687500000043,
            "durationTicks": 48,
            "midi": 87,
            "name": "D#6",
            "ticks": 4680,
            "time": 5.149645312500001,
            "velocity": 0.3937007874015748
          },
          {
            "duration": 0.05281687499999954,
            "durationTicks": 48,
            "midi": 85,
            "name": "C#6",
            "ticks": 4752,
            "time": 5.228870625000001,
            "velocity": 0.3937007874015748
          },
          {
            "duration": 0.21126749999999994,
            "durationTicks": 192,
            "midi": 60,
            "name": "C4",
            "ticks": 4800,
            "time": 5.2816875,
            "velocity": 0.3937007874015748
          },
          {
            "duration": 0.21126749999999994,
            "durationTicks": 192,
            "midi": 58,
            "name": "A#3",
            "ticks": 4800,
            "time": 5.2816875,
            "velocity": 0.3937007874015748
          },
          {
            "duration": 0.21126749999999994,
            "durationTicks": 192,
            "midi": 55,
            "name": "G3",
            "ticks": 4800,
            "time": 5.2816875,
            "velocity": 0.3937007874015748
          },
          {
            "duration": 0.05281687499999954,
            "durationTicks": 48,
            "midi": 84,
            "name": "C6",
            "ticks": 4824,
            "time": 5.308095937500001,
            "velocity": 0.3937007874015748
          },
          {
            "duration": 0.10563374999999997,
            "durationTicks": 96,
            "midi": 82,
            "name": "A#5",
            "ticks": 4896,
            "time": 5.38732125,
            "velocity": 0.3937007874015748
          },
          {
            "duration": 0.21126750000000083,
            "durationTicks": 192,
            "midi": 80,
            "name": "G#5",
            "ticks": 4992,
            "time": 5.492955,
            "velocity": 0.3937007874015748
          },
          {
            "duration": 0.21126750000000083,
            "durationTicks": 192,
            "midi": 40,
            "name": "E2",
            "ticks": 4992,
            "time": 5.492955,
            "velocity": 0.3937007874015748
          },
          {
            "duration": 0.21126750000000083,
            "durationTicks": 192,
            "midi": 76,
            "name": "E5",
            "ticks": 4992,
            "time": 5.492955,
            "velocity": 0.3937007874015748
          },
          {
            "duration": 0.21126750000000083,
            "durationTicks": 192,
            "midi": 52,
            "name": "E3",
            "ticks": 4992,
            "time": 5.492955,
            "velocity": 0.3937007874015748
          },
          {
            "duration": 0.21126750000000083,
            "durationTicks": 192,
            "midi": 72,
            "name": "C5",
            "ticks": 4992,
            "time": 5.492955,
            "velocity": 0.3937007874015748
          },
          {
            "duration": 0.21126749999999994,
            "durationTicks": 192,
            "midi": 80,
            "name": "G#5",
            "ticks": 5184,
            "time": 5.704222500000001,
            "velocity": 0.3937007874015748
          },
          {
            "duration": 0.21126749999999994,
            "durationTicks": 192,
            "midi": 72,
            "name": "C5",
            "ticks": 5184,
            "time": 5.704222500000001,
            "velocity": 0.3937007874015748
          },
          {
            "duration": 0.21126749999999994,
            "durationTicks": 192,
            "midi": 60,
            "name": "C4",
            "ticks": 5184,
            "time": 5.704222500000001,
            "velocity": 0.3937007874015748
          },
          {
            "duration": 0.21126749999999994,
            "durationTicks": 192,
            "midi": 76,
            "name": "E5",
            "ticks": 5184,
            "time": 5.704222500000001,
            "velocity": 0.3937007874015748
          },
          {
            "duration": 0.21126749999999994,
            "durationTicks": 192,
            "midi": 55,
            "name": "G3",
            "ticks": 5184,
            "time": 5.704222500000001,
            "velocity": 0.3937007874015748
          },
          {
            "duration": 0.21126749999999994,
            "durationTicks": 192,
            "midi": 58,
            "name": "A#3",
            "ticks": 5184,
            "time": 5.704222500000001,
            "velocity": 0.3937007874015748
          },
          {
            "duration": 0.21126749999999994,
            "durationTicks": 192,
            "midi": 43,
            "name": "G2",
            "ticks": 5376,
            "time": 5.915490000000001,
            "velocity": 0.3937007874015748
          },
          {
            "duration": 0.21126749999999994,
            "durationTicks": 192,
            "midi": 55,
            "name": "G3",
            "ticks": 5376,
            "time": 5.915490000000001,
            "velocity": 0.3937007874015748
          },
          {
            "duration": 0.10563374999999997,
            "durationTicks": 96,
            "midi": 82,
            "name": "A#5",
            "ticks": 5376,
            "time": 5.915490000000001,
            "velocity": 0.3937007874015748
          },
          {
            "duration": 0.10563374999999997,
            "durationTicks": 96,
            "midi": 84,
            "name": "C6",
            "ticks": 5472,
            "time": 6.021123750000001,
            "velocity": 0.3937007874015748
          },
          {
            "duration": 0.21126749999999994,
            "durationTicks": 192,
            "midi": 60,
            "name": "C4",
            "ticks": 5568,
            "time": 6.126757500000001,
            "velocity": 0.3937007874015748
          },
          {
            "duration": 0.21126749999999994,
            "durationTicks": 192,
            "midi": 55,
            "name": "G3",
            "ticks": 5568,
            "time": 6.126757500000001,
            "velocity": 0.3937007874015748
          },
          {
            "duration": 0.21126749999999994,
            "durationTicks": 192,
            "midi": 58,
            "name": "A#3",
            "ticks": 5568,
            "time": 6.126757500000001,
            "velocity": 0.3937007874015748
          },
          {
            "duration": 0.10563374999999997,
            "durationTicks": 96,
            "midi": 82,
            "name": "A#5",
            "ticks": 5568,
            "time": 6.126757500000001,
            "velocity": 0.3937007874015748
          },
          {
            "duration": 0.10563374999999997,
            "durationTicks": 96,
            "midi": 79,
            "name": "G5",
            "ticks": 5664,
            "time": 6.232391250000001,
            "velocity": 0.3937007874015748
          },
          {
            "duration": 0.4225349999999999,
            "durationTicks": 384,
            "midi": 68,
            "name": "G#4",
            "ticks": 5760,
            "time": 6.338025000000001,
            "velocity": 0.3937007874015748
          },
          {
            "duration": 0.4225349999999999,
            "durationTicks": 384,
            "midi": 72,
            "name": "C5",
            "ticks": 5760,
            "time": 6.338025000000001,
            "velocity": 0.3937007874015748
          },
          {
            "duration": 0.4225349999999999,
            "durationTicks": 384,
            "midi": 77,
            "name": "F5",
            "ticks": 5760,
            "time": 6.338025000000001,
            "velocity": 0.3937007874015748
          },
          {
            "duration": 0.21126749999999994,
            "durationTicks": 192,
            "midi": 56,
            "name": "G#3",
            "ticks": 5760,
            "time": 6.338025000000001,
            "velocity": 0.3937007874015748
          },
          {
            "duration": 0.21126749999999994,
            "durationTicks": 192,
            "midi": 44,
            "name": "G#2",
            "ticks": 5760,
            "time": 6.338025000000001,
            "velocity": 0.3937007874015748
          },
          {
            "duration": 0.21126749999999994,
            "durationTicks": 192,
            "midi": 48,
            "name": "C3",
            "ticks": 5952,
            "time": 6.549292500000001,
            "velocity": 0.3937007874015748
          },
          {
            "duration": 0.21126749999999994,
            "durationTicks": 192,
            "midi": 56,
            "name": "G#3",
            "ticks": 5952,
            "time": 6.549292500000001,
            "velocity": 0.3937007874015748
          },
          {
            "duration": 0.21126749999999994,
            "durationTicks": 192,
            "midi": 53,
            "name": "F3",
            "ticks": 5952,
            "time": 6.549292500000001,
            "velocity": 0.3937007874015748
          },
          {
            "duration": 0.21126749999999994,
            "durationTicks": 192,
            "midi": 36,
            "name": "C2",
            "ticks": 6144,
            "time": 6.760560000000001,
            "velocity": 0.3937007874015748
          },
          {
            "duration": 0.21126749999999994,
            "durationTicks": 192,
            "midi": 48,
            "name": "C3",
            "ticks": 6144,
            "time": 6.760560000000001,
            "velocity": 0.3937007874015748
          },
          {
            "duration": 0.21126749999999994,
            "durationTicks": 192,
            "midi": 60,
            "name": "C4",
            "ticks": 6144,
            "time": 6.760560000000001,
            "velocity": 0.3937007874015748
          },
          {
            "duration": 0.21126749999999994,
            "durationTicks": 192,
            "midi": 72,
            "name": "C5",
            "ticks": 6144,
            "time": 6.760560000000001,
            "velocity": 0.3937007874015748
          },
          {
            "duration": 0.21126749999999994,
            "durationTicks": 192,
            "midi": 53,
            "name": "F3",
            "ticks": 6336,
            "time": 6.971827500000001,
            "velocity": 0.3937007874015748
          },
          {
            "duration": 0.21126749999999994,
            "durationTicks": 192,
            "midi": 48,
            "name": "C3",
            "ticks": 6336,
            "time": 6.971827500000001,
            "velocity": 0.3937007874015748
          },
          {
            "duration": 0.21126749999999994,
            "durationTicks": 192,
            "midi": 56,
            "name": "G#3",
            "ticks": 6336,
            "time": 6.971827500000001,
            "velocity": 0.3937007874015748
          },
          {
            "duration": 0.05281687500000043,
            "durationTicks": 48,
            "midi": 75,
            "name": "D#5",
            "ticks": 6432,
            "time": 7.077461250000001,
            "velocity": 0.3937007874015748
          },
          {
            "duration": 0.05281687499999954,
            "durationTicks": 48,
            "midi": 76,
            "name": "E5",
            "ticks": 6480,
            "time": 7.130278125000001,
            "velocity": 0.3937007874015748
          },
          {
            "duration": 0.21126749999999994,
            "durationTicks": 192,
            "midi": 77,
            "name": "F5",
            "ticks": 6528,
            "time": 7.183095000000001,
            "velocity": 0.3937007874015748
          },
          {
            "duration": 0.21126749999999994,
            "durationTicks": 192,
            "midi": 72,
            "name": "C5",
            "ticks": 6528,
            "time": 7.183095000000001,
            "velocity": 0.3937007874015748
          },
          {
            "duration": 0.21126749999999994,
            "durationTicks": 192,
            "midi": 65,
            "name": "F4",
            "ticks": 6528,
            "time": 7.183095000000001,
            "velocity": 0.3937007874015748
          },
          {
            "duration": 0.21126749999999994,
            "durationTicks": 192,
            "midi": 41,
            "name": "F2",
            "ticks": 6528,
            "time": 7.183095000000001,
            "velocity": 0.3937007874015748
          },
          {
            "duration": 0.21126749999999994,
            "durationTicks": 192,
            "midi": 53,
            "name": "F3",
            "ticks": 6528,
            "time": 7.183095000000001,
            "velocity": 0.3937007874015748
          },
          {
            "duration": 0.21126749999999994,
            "durationTicks": 192,
            "midi": 53,
            "name": "F3",
            "ticks": 6720,
            "time": 7.394362500000001,
            "velocity": 0.3937007874015748
          },
          {
            "duration": 0.21126749999999994,
            "durationTicks": 192,
            "midi": 56,
            "name": "G#3",
            "ticks": 6720,
            "time": 7.394362500000001,
            "velocity": 0.3937007874015748
          },
          {
            "duration": 0.21126749999999994,
            "durationTicks": 192,
            "midi": 77,
            "name": "F5",
            "ticks": 6720,
            "time": 7.394362500000001,
            "velocity": 0.3937007874015748
          },
          {
            "duration": 0.21126749999999994,
            "durationTicks": 192,
            "midi": 72,
            "name": "C5",
            "ticks": 6720,
            "time": 7.394362500000001,
            "velocity": 0.3937007874015748
          },
          {
            "duration": 0.21126749999999994,
            "durationTicks": 192,
            "midi": 48,
            "name": "C3",
            "ticks": 6720,
            "time": 7.394362500000001,
            "velocity": 0.3937007874015748
          },
          {
            "duration": 0.21126749999999994,
            "durationTicks": 192,
            "midi": 65,
            "name": "F4",
            "ticks": 6720,
            "time": 7.394362500000001,
            "velocity": 0.3937007874015748
          },
          {
            "duration": 0.10563374999999997,
            "durationTicks": 96,
            "midi": 72,
            "name": "C5",
            "ticks": 6912,
            "time": 7.605630000000001,
            "velocity": 0.3937007874015748
          },
          {
            "duration": 0.21126749999999994,
            "durationTicks": 192,
            "midi": 36,
            "name": "C2",
            "ticks": 6912,
            "time": 7.605630000000001,
            "velocity": 0.3937007874015748
          },
          {
            "duration": 0.21126749999999994,
            "durationTicks": 192,
            "midi": 48,
            "name": "C3",
            "ticks": 6912,
            "time": 7.605630000000001,
            "velocity": 0.3937007874015748
          },
          {
            "duration": 0.10563374999999997,
            "durationTicks": 96,
            "midi": 74,
            "name": "D5",
            "ticks": 7008,
            "time": 7.7112637500000005,
            "velocity": 0.3937007874015748
          },
          {
            "duration": 0.10563375000000086,
            "durationTicks": 96,
            "midi": 75,
            "name": "D#5",
            "ticks": 7104,
            "time": 7.8168975000000005,
            "velocity": 0.3937007874015748
          },
          {
            "duration": 0.21126750000000083,
            "durationTicks": 192,
            "midi": 56,
            "name": "G#3",
            "ticks": 7104,
            "time": 7.8168975000000005,
            "velocity": 0.3937007874015748
          },
          {
            "duration": 0.21126750000000083,
            "durationTicks": 192,
            "midi": 48,
            "name": "C3",
            "ticks": 7104,
            "time": 7.8168975000000005,
            "velocity": 0.3937007874015748
          },
          {
            "duration": 0.21126750000000083,
            "durationTicks": 192,
            "midi": 53,
            "name": "F3",
            "ticks": 7104,
            "time": 7.8168975000000005,
            "velocity": 0.3937007874015748
          },
          {
            "duration": 0.10563374999999997,
            "durationTicks": 96,
            "midi": 76,
            "name": "E5",
            "ticks": 7200,
            "time": 7.922531250000001,
            "velocity": 0.3937007874015748
          },
          {
            "duration": 0.21126749999999994,
            "durationTicks": 192,
            "midi": 41,
            "name": "F2",
            "ticks": 7296,
            "time": 8.028165000000001,
            "velocity": 0.3937007874015748
          },
          {
            "duration": 0.21126749999999994,
            "durationTicks": 192,
            "midi": 72,
            "name": "C5",
            "ticks": 7296,
            "time": 8.028165000000001,
            "velocity": 0.3937007874015748
          },
          {
            "duration": 0.21126749999999994,
            "durationTicks": 192,
            "midi": 77,
            "name": "F5",
            "ticks": 7296,
            "time": 8.028165000000001,
            "velocity": 0.3937007874015748
          },
          {
            "duration": 0.21126749999999994,
            "durationTicks": 192,
            "midi": 65,
            "name": "F4",
            "ticks": 7296,
            "time": 8.028165000000001,
            "velocity": 0.3937007874015748
          },
          {
            "duration": 0.21126749999999994,
            "durationTicks": 192,
            "midi": 53,
            "name": "F3",
            "ticks": 7296,
            "time": 8.028165000000001,
            "velocity": 0.3937007874015748
          },
          {
            "duration": 0.21126749999999994,
            "durationTicks": 192,
            "midi": 72,
            "name": "C5",
            "ticks": 7488,
            "time": 8.239432500000001,
            "velocity": 0.3937007874015748
          },
          {
            "duration": 0.21126749999999994,
            "durationTicks": 192,
            "midi": 48,
            "name": "C3",
            "ticks": 7488,
            "time": 8.239432500000001,
            "velocity": 0.3937007874015748
          },
          {
            "duration": 0.21126749999999994,
            "durationTicks": 192,
            "midi": 56,
            "name": "G#3",
            "ticks": 7488,
            "time": 8.239432500000001,
            "velocity": 0.3937007874015748
          },
          {
            "duration": 0.21126749999999994,
            "durationTicks": 192,
            "midi": 65,
            "name": "F4",
            "ticks": 7488,
            "time": 8.239432500000001,
            "velocity": 0.3937007874015748
          },
          {
            "duration": 0.21126749999999994,
            "durationTicks": 192,
            "midi": 77,
            "name": "F5",
            "ticks": 7488,
            "time": 8.239432500000001,
            "velocity": 0.3937007874015748
          },
          {
            "duration": 0.21126749999999994,
            "durationTicks": 192,
            "midi": 53,
            "name": "F3",
            "ticks": 7488,
            "time": 8.239432500000001,
            "velocity": 0.3937007874015748
          },
          {
            "duration": 0.21126749999999994,
            "durationTicks": 192,
            "midi": 77,
            "name": "F5",
            "ticks": 7680,
            "time": 8.450700000000001,
            "velocity": 0.3937007874015748
          },
          {
            "duration": 0.21126749999999994,
            "durationTicks": 192,
            "midi": 80,
            "name": "G#5",
            "ticks": 7680,
            "time": 8.450700000000001,
            "velocity": 0.3937007874015748
          },
          {
            "duration": 0.21126749999999994,
            "durationTicks": 192,
            "midi": 36,
            "name": "C2",
            "ticks": 7680,
            "time": 8.450700000000001,
            "velocity": 0.3937007874015748
          },
          {
            "duration": 0.21126749999999994,
            "durationTicks": 192,
            "midi": 72,
            "name": "C5",
            "ticks": 7680,
            "time": 8.450700000000001,
            "velocity": 0.3937007874015748
          },
          {
            "duration": 0.21126749999999994,
            "durationTicks": 192,
            "midi": 48,
            "name": "C3",
            "ticks": 7680,
            "time": 8.450700000000001,
            "velocity": 0.3937007874015748
          },
          {
            "duration": 0.21126749999999994,
            "durationTicks": 192,
            "midi": 48,
            "name": "C3",
            "ticks": 7872,
            "time": 8.661967500000001,
            "velocity": 0.3937007874015748
          },
          {
            "duration": 0.21126749999999994,
            "durationTicks": 192,
            "midi": 53,
            "name": "F3",
            "ticks": 7872,
            "time": 8.661967500000001,
            "velocity": 0.3937007874015748
          },
          {
            "duration": 0.10563374999999908,
            "durationTicks": 96,
            "midi": 79,
            "name": "G5",
            "ticks": 7872,
            "time": 8.661967500000001,
            "velocity": 0.3937007874015748
          },
          {
            "duration": 0.21126749999999994,
            "durationTicks": 192,
            "midi": 56,
            "name": "G#3",
            "ticks": 7872,
            "time": 8.661967500000001,
            "velocity": 0.3937007874015748
          },
          {
            "duration": 0.10563375000000086,
            "durationTicks": 96,
            "midi": 77,
            "name": "F5",
            "ticks": 7968,
            "time": 8.76760125,
            "velocity": 0.3937007874015748
          },
          {
            "duration": 0.21126749999999994,
            "durationTicks": 192,
            "midi": 79,
            "name": "G5",
            "ticks": 8064,
            "time": 8.873235000000001,
            "velocity": 0.3937007874015748
          },
          {
            "duration": 0.21126749999999994,
            "durationTicks": 192,
            "midi": 76,
            "name": "E5",
            "ticks": 8064,
            "time": 8.873235000000001,
            "velocity": 0.3937007874015748
          },
          {
            "duration": 0.21126749999999994,
            "durationTicks": 192,
            "midi": 43,
            "name": "G2",
            "ticks": 8064,
            "time": 8.873235000000001,
            "velocity": 0.3937007874015748
          },
          {
            "duration": 0.21126749999999994,
            "durationTicks": 192,
            "midi": 55,
            "name": "G3",
            "ticks": 8064,
            "time": 8.873235000000001,
            "velocity": 0.3937007874015748
          },
          {
            "duration": 0.21126749999999994,
            "durationTicks": 192,
            "midi": 72,
            "name": "C5",
            "ticks": 8064,
            "time": 8.873235000000001,
            "velocity": 0.3937007874015748
          },
          {
            "duration": 0.21126749999999994,
            "durationTicks": 192,
            "midi": 58,
            "name": "A#3",
            "ticks": 8256,
            "time": 9.084502500000001,
            "velocity": 0.3937007874015748
          },
          {
            "duration": 0.21126749999999994,
            "durationTicks": 192,
            "midi": 55,
            "name": "G3",
            "ticks": 8256,
            "time": 9.084502500000001,
            "velocity": 0.3937007874015748
          },
          {
            "duration": 0.21126749999999994,
            "durationTicks": 192,
            "midi": 72,
            "name": "C5",
            "ticks": 8256,
            "time": 9.084502500000001,
            "velocity": 0.3937007874015748
          },
          {
            "duration": 0.21126749999999994,
            "durationTicks": 192,
            "midi": 76,
            "name": "E5",
            "ticks": 8256,
            "time": 9.084502500000001,
            "velocity": 0.3937007874015748
          },
          {
            "duration": 0.21126749999999994,
            "durationTicks": 192,
            "midi": 60,
            "name": "C4",
            "ticks": 8256,
            "time": 9.084502500000001,
            "velocity": 0.3937007874015748
          },
          {
            "duration": 0.21126749999999994,
            "durationTicks": 192,
            "midi": 79,
            "name": "G5",
            "ticks": 8256,
            "time": 9.084502500000001,
            "velocity": 0.3937007874015748
          },
          {
            "duration": 0.05281687499999954,
            "durationTicks": 48,
            "midi": 80,
            "name": "G#5",
            "ticks": 8448,
            "time": 9.295770000000001,
            "velocity": 0.3937007874015748
          },
          {
            "duration": 0.21126749999999994,
            "durationTicks": 192,
            "midi": 55,
            "name": "G3",
            "ticks": 8448,
            "time": 9.295770000000001,
            "velocity": 0.3937007874015748
          },
          {
            "duration": 0.21126749999999994,
            "durationTicks": 192,
            "midi": 43,
            "name": "G2",
            "ticks": 8448,
            "time": 9.295770000000001,
            "velocity": 0.3937007874015748
          },
          {
            "duration": 0.05281687499999954,
            "durationTicks": 48,
            "midi": 82,
            "name": "A#5",
            "ticks": 8520,
            "time": 9.374995312500001,
            "velocity": 0.3937007874015748
          },
          {
            "duration": 0.05281687499999954,
            "durationTicks": 48,
            "midi": 80,
            "name": "G#5",
            "ticks": 8592,
            "time": 9.454220625000001,
            "velocity": 0.3937007874015748
          },
          {
            "duration": 0.21126749999999994,
            "durationTicks": 192,
            "midi": 55,
            "name": "G3",
            "ticks": 8640,
            "time": 9.507037500000001,
            "velocity": 0.3937007874015748
          },
          {
            "duration": 0.21126749999999994,
            "durationTicks": 192,
            "midi": 77,
            "name": "F5",
            "ticks": 8640,
            "time": 9.507037500000001,
            "velocity": 0.3937007874015748
          },
          {
            "duration": 0.21126749999999994,
            "durationTicks": 192,
            "midi": 60,
            "name": "C4",
            "ticks": 8640,
            "time": 9.507037500000001,
            "velocity": 0.3937007874015748
          },
          {
            "duration": 0.21126749999999994,
            "durationTicks": 192,
            "midi": 58,
            "name": "A#3",
            "ticks": 8640,
            "time": 9.507037500000001,
            "velocity": 0.3937007874015748
          },
          {
            "duration": 0.4225349999999999,
            "durationTicks": 384,
            "midi": 76,
            "name": "E5",
            "ticks": 8832,
            "time": 9.718305,
            "velocity": 0.3937007874015748
          },
          {
            "duration": 0.4225349999999999,
            "durationTicks": 384,
            "midi": 72,
            "name": "C5",
            "ticks": 8832,
            "time": 9.718305,
            "velocity": 0.3937007874015748
          },
          {
            "duration": 0.4225349999999999,
            "durationTicks": 384,
            "midi": 67,
            "name": "G4",
            "ticks": 8832,
            "time": 9.718305,
            "velocity": 0.3937007874015748
          },
          {
            "duration": 0.21126749999999994,
            "durationTicks": 192,
            "midi": 36,
            "name": "C2",
            "ticks": 8832,
            "time": 9.718305,
            "velocity": 0.3937007874015748
          },
          {
            "duration": 0.21126749999999994,
            "durationTicks": 192,
            "midi": 48,
            "name": "C3",
            "ticks": 8832,
            "time": 9.718305,
            "velocity": 0.3937007874015748
          },
          {
            "duration": 0.4225349999999999,
            "durationTicks": 384,
            "midi": 79,
            "name": "G5",
            "ticks": 8832,
            "time": 9.718305,
            "velocity": 0.3937007874015748
          },
          {
            "duration": 0.21126749999999994,
            "durationTicks": 192,
            "midi": 60,
            "name": "C4",
            "ticks": 9024,
            "time": 9.9295725,
            "velocity": 0.3937007874015748
          },
          {
            "duration": 0.21126749999999994,
            "durationTicks": 192,
            "midi": 55,
            "name": "G3",
            "ticks": 9024,
            "time": 9.9295725,
            "velocity": 0.3937007874015748
          },
          {
            "duration": 0.21126749999999994,
            "durationTicks": 192,
            "midi": 58,
            "name": "A#3",
            "ticks": 9024,
            "time": 9.9295725,
            "velocity": 0.3937007874015748
          },
          {
            "duration": 0.21126749999999994,
            "durationTicks": 192,
            "midi": 48,
            "name": "C3",
            "ticks": 9216,
            "time": 10.14084,
            "velocity": 0.3937007874015748
          },
          {
            "duration": 0.21126749999999994,
            "durationTicks": 192,
            "midi": 36,
            "name": "C2",
            "ticks": 9216,
            "time": 10.14084,
            "velocity": 0.3937007874015748
          },
          {
            "duration": 0.21126749999999994,
            "durationTicks": 192,
            "midi": 60,
            "name": "C4",
            "ticks": 9408,
            "time": 10.3521075,
            "velocity": 0.3937007874015748
          },
          {
            "duration": 0.21126749999999994,
            "durationTicks": 192,
            "midi": 58,
            "name": "A#3",
            "ticks": 9408,
            "time": 10.3521075,
            "velocity": 0.3937007874015748
          },
          {
            "duration": 0.21126749999999994,
            "durationTicks": 192,
            "midi": 55,
            "name": "G3",
            "ticks": 9408,
            "time": 10.3521075,
            "velocity": 0.3937007874015748
          },
          {
            "duration": 0.21126749999999994,
            "durationTicks": 192,
            "midi": 76,
            "name": "E5",
            "ticks": 9600,
            "time": 10.563375,
            "velocity": 0.3937007874015748
          },
          {
            "duration": 0.21126749999999994,
            "durationTicks": 192,
            "midi": 43,
            "name": "G2",
            "ticks": 9600,
            "time": 10.563375,
            "velocity": 0.3937007874015748
          },
          {
            "duration": 0.21126749999999994,
            "durationTicks": 192,
            "midi": 85,
            "name": "C#6",
            "ticks": 9600,
            "time": 10.563375,
            "velocity": 0.3937007874015748
          },
          {
            "duration": 0.21126749999999994,
            "durationTicks": 192,
            "midi": 82,
            "name": "A#5",
            "ticks": 9600,
            "time": 10.563375,
            "velocity": 0.3937007874015748
          },
          {
            "duration": 0.21126749999999994,
            "durationTicks": 192,
            "midi": 55,
            "name": "G3",
            "ticks": 9600,
            "time": 10.563375,
            "velocity": 0.3937007874015748
          },
          {
            "duration": 0.21126749999999994,
            "durationTicks": 192,
            "midi": 85,
            "name": "C#6",
            "ticks": 9792,
            "time": 10.7746425,
            "velocity": 0.3937007874015748
          },
          {
            "duration": 0.21126749999999994,
            "durationTicks": 192,
            "midi": 55,
            "name": "G3",
            "ticks": 9792,
            "time": 10.7746425,
            "velocity": 0.3937007874015748
          },
          {
            "duration": 0.21126749999999994,
            "durationTicks": 192,
            "midi": 76,
            "name": "E5",
            "ticks": 9792,
            "time": 10.7746425,
            "velocity": 0.3937007874015748
          },
          {
            "duration": 0.21126749999999994,
            "durationTicks": 192,
            "midi": 60,
            "name": "C4",
            "ticks": 9792,
            "time": 10.7746425,
            "velocity": 0.3937007874015748
          },
          {
            "duration": 0.21126749999999994,
            "durationTicks": 192,
            "midi": 58,
            "name": "A#3",
            "ticks": 9792,
            "time": 10.7746425,
            "velocity": 0.3937007874015748
          },
          {
            "duration": 0.21126749999999994,
            "durationTicks": 192,
            "midi": 82,
            "name": "A#5",
            "ticks": 9792,
            "time": 10.7746425,
            "velocity": 0.3937007874015748
          },
          {
            "duration": 0.05281687500000132,
            "durationTicks": 48,
            "midi": 85,
            "name": "C#6",
            "ticks": 9984,
            "time": 10.98591,
            "velocity": 0.3937007874015748
          },
          {
            "duration": 0.21126749999999994,
            "durationTicks": 192,
            "midi": 36,
            "name": "C2",
            "ticks": 9984,
            "time": 10.98591,
            "velocity": 0.3937007874015748
          },
          {
            "duration": 0.21126749999999994,
            "durationTicks": 192,
            "midi": 48,
            "name": "C3",
            "ticks": 9984,
            "time": 10.98591,
            "velocity": 0.3937007874015748
          },
          {
            "duration": 0.05281687500000132,
            "durationTicks": 48,
            "midi": 87,
            "name": "D#6",
            "ticks": 10056,
            "time": 11.0651353125,
            "velocity": 0.3937007874015748
          },
          {
            "duration": 0.05281687499999954,
            "durationTicks": 48,
            "midi": 85,
            "name": "C#6",
            "ticks": 10128,
            "time": 11.144360625000001,
            "velocity": 0.3937007874015748
          },
          {
            "duration": 0.21126750000000172,
            "durationTicks": 192,
            "midi": 60,
            "name": "C4",
            "ticks": 10176,
            "time": 11.1971775,
            "velocity": 0.3937007874015748
          },
          {
            "duration": 0.21126750000000172,
            "durationTicks": 192,
            "midi": 55,
            "name": "G3",
            "ticks": 10176,
            "time": 11.1971775,
            "velocity": 0.3937007874015748
          },
          {
            "duration": 0.21126750000000172,
            "durationTicks": 192,
            "midi": 58,
            "name": "A#3",
            "ticks": 10176,
            "time": 11.1971775,
            "velocity": 0.3937007874015748
          },
          {
            "duration": 0.05281687499999954,
            "durationTicks": 48,
            "midi": 84,
            "name": "C6",
            "ticks": 10200,
            "time": 11.223585937500001,
            "velocity": 0.3937007874015748
          },
          {
            "duration": 0.10563375000000086,
            "durationTicks": 96,
            "midi": 82,
            "name": "A#5",
            "ticks": 10272,
            "time": 11.302811250000001,
            "velocity": 0.3937007874015748
          },
          {
            "duration": 0.21126749999999994,
            "durationTicks": 192,
            "midi": 84,
            "name": "C6",
            "ticks": 10368,
            "time": 11.408445000000002,
            "velocity": 0.3937007874015748
          },
          {
            "duration": 0.21126749999999994,
            "durationTicks": 192,
            "midi": 40,
            "name": "E2",
            "ticks": 10368,
            "time": 11.408445000000002,
            "velocity": 0.3937007874015748
          },
          {
            "duration": 0.21126749999999994,
            "durationTicks": 192,
            "midi": 52,
            "name": "E3",
            "ticks": 10368,
            "time": 11.408445000000002,
            "velocity": 0.3937007874015748
          },
          {
            "duration": 0.21126749999999994,
            "durationTicks": 192,
            "midi": 72,
            "name": "C5",
            "ticks": 10368,
            "time": 11.408445000000002,
            "velocity": 0.3937007874015748
          },
          {
            "duration": 0.21126749999999994,
            "durationTicks": 192,
            "midi": 60,
            "name": "C4",
            "ticks": 10560,
            "time": 11.619712500000002,
            "velocity": 0.3937007874015748
          },
          {
            "duration": 0.21126749999999994,
            "durationTicks": 192,
            "midi": 58,
            "name": "A#3",
            "ticks": 10560,
            "time": 11.619712500000002,
            "velocity": 0.3937007874015748
          },
          {
            "duration": 0.21126749999999994,
            "durationTicks": 192,
            "midi": 79,
            "name": "G5",
            "ticks": 10560,
            "time": 11.619712500000002,
            "velocity": 0.3937007874015748
          },
          {
            "duration": 0.21126749999999994,
            "durationTicks": 192,
            "midi": 72,
            "name": "C5",
            "ticks": 10560,
            "time": 11.619712500000002,
            "velocity": 0.3937007874015748
          },
          {
            "duration": 0.21126749999999994,
            "durationTicks": 192,
            "midi": 84,
            "name": "C6",
            "ticks": 10560,
            "time": 11.619712500000002,
            "velocity": 0.3937007874015748
          },
          {
            "duration": 0.21126749999999994,
            "durationTicks": 192,
            "midi": 76,
            "name": "E5",
            "ticks": 10560,
            "time": 11.619712500000002,
            "velocity": 0.3937007874015748
          },
          {
            "duration": 0.21126749999999994,
            "durationTicks": 192,
            "midi": 55,
            "name": "G3",
            "ticks": 10560,
            "time": 11.619712500000002,
            "velocity": 0.3937007874015748
          },
          {
            "duration": 0.21126749999999994,
            "durationTicks": 192,
            "midi": 48,
            "name": "C3",
            "ticks": 10752,
            "time": 11.830980000000002,
            "velocity": 0.3937007874015748
          },
          {
            "duration": 0.10563374999999908,
            "durationTicks": 96,
            "midi": 84,
            "name": "C6",
            "ticks": 10752,
            "time": 11.830980000000002,
            "velocity": 0.3937007874015748
          },
          {
            "duration": 0.21126749999999994,
            "durationTicks": 192,
            "midi": 36,
            "name": "C2",
            "ticks": 10752,
            "time": 11.830980000000002,
            "velocity": 0.3937007874015748
          },
          {
            "duration": 0.10563375000000086,
            "durationTicks": 96,
            "midi": 85,
            "name": "C#6",
            "ticks": 10848,
            "time": 11.936613750000001,
            "velocity": 0.3937007874015748
          },
          {
            "duration": 0.21126749999999994,
            "durationTicks": 192,
            "midi": 60,
            "name": "C4",
            "ticks": 10944,
            "time": 12.042247500000002,
            "velocity": 0.3937007874015748
          },
          {
            "duration": 0.21126749999999994,
            "durationTicks": 192,
            "midi": 58,
            "name": "A#3",
            "ticks": 10944,
            "time": 12.042247500000002,
            "velocity": 0.3937007874015748
          },
          {
            "duration": 0.21126749999999994,
            "durationTicks": 192,
            "midi": 55,
            "name": "G3",
            "ticks": 10944,
            "time": 12.042247500000002,
            "velocity": 0.3937007874015748
          },
          {
            "duration": 0.10563374999999908,
            "durationTicks": 96,
            "midi": 84,
            "name": "C6",
            "ticks": 10944,
            "time": 12.042247500000002,
            "velocity": 0.3937007874015748
          },
          {
            "duration": 0.10563375000000086,
            "durationTicks": 96,
            "midi": 82,
            "name": "A#5",
            "ticks": 11040,
            "time": 12.147881250000001,
            "velocity": 0.3937007874015748
          },
          {
            "duration": 0.21126749999999994,
            "durationTicks": 192,
            "midi": 76,
            "name": "E5",
            "ticks": 11136,
            "time": 12.253515000000002,
            "velocity": 0.3937007874015748
          },
          {
            "duration": 0.21126749999999994,
            "durationTicks": 192,
            "midi": 48,
            "name": "C3",
            "ticks": 11136,
            "time": 12.253515000000002,
            "velocity": 0.3937007874015748
          },
          {
            "duration": 0.21126749999999994,
            "durationTicks": 192,
            "midi": 80,
            "name": "G#5",
            "ticks": 11136,
            "time": 12.253515000000002,
            "velocity": 0.3937007874015748
          },
          {
            "duration": 0.21126749999999994,
            "durationTicks": 192,
            "midi": 72,
            "name": "C5",
            "ticks": 11136,
            "time": 12.253515000000002,
            "velocity": 0.3937007874015748
          },
          {
            "duration": 0.21126749999999994,
            "durationTicks": 192,
            "midi": 36,
            "name": "C2",
            "ticks": 11136,
            "time": 12.253515000000002,
            "velocity": 0.3937007874015748
          },
          {
            "duration": 0.21126749999999994,
            "durationTicks": 192,
            "midi": 72,
            "name": "C5",
            "ticks": 11328,
            "time": 12.464782500000002,
            "velocity": 0.3937007874015748
          },
          {
            "duration": 0.21126749999999994,
            "durationTicks": 192,
            "midi": 58,
            "name": "A#3",
            "ticks": 11328,
            "time": 12.464782500000002,
            "velocity": 0.3937007874015748
          },
          {
            "duration": 0.21126749999999994,
            "durationTicks": 192,
            "midi": 80,
            "name": "G#5",
            "ticks": 11328,
            "time": 12.464782500000002,
            "velocity": 0.3937007874015748
          },
          {
            "duration": 0.21126749999999994,
            "durationTicks": 192,
            "midi": 60,
            "name": "C4",
            "ticks": 11328,
            "time": 12.464782500000002,
            "velocity": 0.3937007874015748
          },
          {
            "duration": 0.21126749999999994,
            "durationTicks": 192,
            "midi": 64,
            "name": "E4",
            "ticks": 11328,
            "time": 12.464782500000002,
            "velocity": 0.3937007874015748
          },
          {
            "duration": 0.21126749999999994,
            "durationTicks": 192,
            "midi": 76,
            "name": "E5",
            "ticks": 11328,
            "time": 12.464782500000002,
            "velocity": 0.3937007874015748
          },
          {
            "duration": 0.21126749999999994,
            "durationTicks": 192,
            "midi": 36,
            "name": "C2",
            "ticks": 11520,
            "time": 12.676050000000002,
            "velocity": 0.3937007874015748
          },
          {
            "duration": 0.21126749999999994,
            "durationTicks": 192,
            "midi": 48,
            "name": "C3",
            "ticks": 11520,
            "time": 12.676050000000002,
            "velocity": 0.3937007874015748
          },
          {
            "duration": 0.10563374999999908,
            "durationTicks": 96,
            "midi": 82,
            "name": "A#5",
            "ticks": 11520,
            "time": 12.676050000000002,
            "velocity": 0.3937007874015748
          },
          {
            "duration": 0.10563375000000086,
            "durationTicks": 96,
            "midi": 84,
            "name": "C6",
            "ticks": 11616,
            "time": 12.781683750000001,
            "velocity": 0.3937007874015748
          },
          {
            "duration": 0.10563374999999908,
            "durationTicks": 96,
            "midi": 82,
            "name": "A#5",
            "ticks": 11712,
            "time": 12.887317500000002,
            "velocity": 0.3937007874015748
          },
          {
            "duration": 0.21126749999999994,
            "durationTicks": 192,
            "midi": 58,
            "name": "A#3",
            "ticks": 11712,
            "time": 12.887317500000002,
            "velocity": 0.3937007874015748
          },
          {
            "duration": 0.21126749999999994,
            "durationTicks": 192,
            "midi": 60,
            "name": "C4",
            "ticks": 11712,
            "time": 12.887317500000002,
            "velocity": 0.3937007874015748
          },
          {
            "duration": 0.21126749999999994,
            "durationTicks": 192,
            "midi": 64,
            "name": "E4",
            "ticks": 11712,
            "time": 12.887317500000002,
            "velocity": 0.3937007874015748
          },
          {
            "duration": 0.10563375000000086,
            "durationTicks": 96,
            "midi": 79,
            "name": "G5",
            "ticks": 11808,
            "time": 12.99295125,
            "velocity": 0.3937007874015748
          },
          {
            "duration": 0.21126749999999994,
            "durationTicks": 192,
            "midi": 72,
            "name": "C5",
            "ticks": 11904,
            "time": 13.098585000000002,
            "velocity": 0.3937007874015748
          },
          {
            "duration": 0.21126749999999994,
            "durationTicks": 192,
            "midi": 41,
            "name": "F2",
            "ticks": 11904,
            "time": 13.098585000000002,
            "velocity": 0.3937007874015748
          },
          {
            "duration": 0.21126749999999994,
            "durationTicks": 192,
            "midi": 77,
            "name": "F5",
            "ticks": 11904,
            "time": 13.098585000000002,
            "velocity": 0.3937007874015748
          },
          {
            "duration": 0.21126749999999994,
            "durationTicks": 192,
            "midi": 68,
            "name": "G#4",
            "ticks": 11904,
            "time": 13.098585000000002,
            "velocity": 0.3937007874015748
          },
          {
            "duration": 0.21126749999999994,
            "durationTicks": 192,
            "midi": 53,
            "name": "F3",
            "ticks": 11904,
            "time": 13.098585000000002,
            "velocity": 0.3937007874015748
          },
          {
            "duration": 0.21126749999999994,
            "durationTicks": 192,
            "midi": 79,
            "name": "G5",
            "ticks": 12288,
            "time": 13.521120000000002,
            "velocity": 0.3937007874015748
          },
          {
            "duration": 0.4225349999999999,
            "durationTicks": 384,
            "midi": 36,
            "name": "C2",
            "ticks": 12288,
            "time": 13.521120000000002,
            "velocity": 0.3937007874015748
          },
          {
            "duration": 0.21126749999999994,
            "durationTicks": 192,
            "midi": 82,
            "name": "A#5",
            "ticks": 12288,
            "time": 13.521120000000002,
            "velocity": 0.3937007874015748
          },
          {
            "duration": 0.4225349999999999,
            "durationTicks": 384,
            "midi": 48,
            "name": "C3",
            "ticks": 12288,
            "time": 13.521120000000002,
            "velocity": 0.3937007874015748
          },
          {
            "duration": 0.21126749999999994,
            "durationTicks": 192,
            "midi": 84,
            "name": "C6",
            "ticks": 12288,
            "time": 13.521120000000002,
            "velocity": 0.3937007874015748
          },
          {
            "duration": 0.21126749999999994,
            "durationTicks": 192,
            "midi": 76,
            "name": "E5",
            "ticks": 12288,
            "time": 13.521120000000002,
            "velocity": 0.3937007874015748
          },
          {
            "duration": 0.21126749999999994,
            "durationTicks": 192,
            "midi": 72,
            "name": "C5",
            "ticks": 12288,
            "time": 13.521120000000002,
            "velocity": 0.3937007874015748
          },
          {
            "duration": 0.3169012500000008,
            "durationTicks": 288,
            "midi": 80,
            "name": "G#5",
            "ticks": 12672,
            "time": 13.943655000000001,
            "velocity": 0.3937007874015748
          },
          {
            "duration": 0.21126749999999994,
            "durationTicks": 192,
            "midi": 41,
            "name": "F2",
            "ticks": 12672,
            "time": 13.943655000000001,
            "velocity": 0.3937007874015748
          },
          {
            "duration": 0.3169012500000008,
            "durationTicks": 288,
            "midi": 84,
            "name": "C6",
            "ticks": 12672,
            "time": 13.943655000000001,
            "velocity": 0.3937007874015748
          },
          {
            "duration": 0.3169012500000008,
            "durationTicks": 288,
            "midi": 77,
            "name": "F5",
            "ticks": 12672,
            "time": 13.943655000000001,
            "velocity": 0.3937007874015748
          },
          {
            "duration": 0.3169012500000008,
            "durationTicks": 288,
            "midi": 72,
            "name": "C5",
            "ticks": 12672,
            "time": 13.943655000000001,
            "velocity": 0.3937007874015748
          },
          {
            "duration": 0.21126749999999994,
            "durationTicks": 192,
            "midi": 53,
            "name": "F3",
            "ticks": 12672,
            "time": 13.943655000000001,
            "velocity": 0.3937007874015748
          },
          {
            "duration": 0.21126749999999994,
            "durationTicks": 192,
            "midi": 56,
            "name": "G#3",
            "ticks": 12864,
            "time": 14.154922500000001,
            "velocity": 0.3937007874015748
          },
          {
            "duration": 0.21126749999999994,
            "durationTicks": 192,
            "midi": 48,
            "name": "C3",
            "ticks": 12864,
            "time": 14.154922500000001,
            "velocity": 0.3937007874015748
          },
          {
            "duration": 0.21126749999999994,
            "durationTicks": 192,
            "midi": 53,
            "name": "F3",
            "ticks": 12864,
            "time": 14.154922500000001,
            "velocity": 0.3937007874015748
          },
          {
            "duration": 0.3169012500000008,
            "durationTicks": 288,
            "midi": 72,
            "name": "C5",
            "ticks": 13056,
            "time": 14.366190000000001,
            "velocity": 0.3937007874015748
          },
          {
            "duration": 0.21126749999999994,
            "durationTicks": 192,
            "midi": 48,
            "name": "C3",
            "ticks": 13056,
            "time": 14.366190000000001,
            "velocity": 0.3937007874015748
          },
          {
            "duration": 0.3169012500000008,
            "durationTicks": 288,
            "midi": 84,
            "name": "C6",
            "ticks": 13056,
            "time": 14.366190000000001,
            "velocity": 0.3937007874015748
          },
          {
            "duration": 0.3169012500000008,
            "durationTicks": 288,
            "midi": 77,
            "name": "F5",
            "ticks": 13056,
            "time": 14.366190000000001,
            "velocity": 0.3937007874015748
          },
          {
            "duration": 0.3169012500000008,
            "durationTicks": 288,
            "midi": 80,
            "name": "G#5",
            "ticks": 13056,
            "time": 14.366190000000001,
            "velocity": 0.3937007874015748
          },
          {
            "duration": 0.21126749999999994,
            "durationTicks": 192,
            "midi": 36,
            "name": "C2",
            "ticks": 13056,
            "time": 14.366190000000001,
            "velocity": 0.3937007874015748
          },
          {
            "duration": 0.21126749999999994,
            "durationTicks": 192,
            "midi": 48,
            "name": "C3",
            "ticks": 13248,
            "time": 14.577457500000001,
            "velocity": 0.3937007874015748
          },
          {
            "duration": 0.21126749999999994,
            "durationTicks": 192,
            "midi": 53,
            "name": "F3",
            "ticks": 13248,
            "time": 14.577457500000001,
            "velocity": 0.3937007874015748
          },
          {
            "duration": 0.21126749999999994,
            "durationTicks": 192,
            "midi": 56,
            "name": "G#3",
            "ticks": 13248,
            "time": 14.577457500000001,
            "velocity": 0.3937007874015748
          },
          {
            "duration": 0.02640843750000066,
            "durationTicks": 24,
            "midi": 87,
            "name": "D#6",
            "ticks": 13392,
            "time": 14.735908125000002,
            "velocity": 0.3937007874015748
          },
          {
            "duration": 0.026408437499998882,
            "durationTicks": 24,
            "midi": 88,
            "name": "E6",
            "ticks": 13416,
            "time": 14.762316562500002,
            "velocity": 0.3937007874015748
          },
          {
            "duration": 0.21126749999999994,
            "durationTicks": 192,
            "midi": 29,
            "name": "F1",
            "ticks": 13440,
            "time": 14.788725000000001,
            "velocity": 0.3937007874015748
          },
          {
            "duration": 0.4225349999999999,
            "durationTicks": 384,
            "midi": 89,
            "name": "F6",
            "ticks": 13440,
            "time": 14.788725000000001,
            "velocity": 0.3937007874015748
          },
          {
            "duration": 0.4225349999999999,
            "durationTicks": 384,
            "midi": 77,
            "name": "F5",
            "ticks": 13440,
            "time": 14.788725000000001,
            "velocity": 0.3937007874015748
          },
          {
            "duration": 0.21126749999999994,
            "durationTicks": 192,
            "midi": 41,
            "name": "F2",
            "ticks": 13440,
            "time": 14.788725000000001,
            "velocity": 0.3937007874015748
          },
          {
            "duration": 0.21126749999999994,
            "durationTicks": 192,
            "midi": 56,
            "name": "G#3",
            "ticks": 13632,
            "time": 14.999992500000001,
            "velocity": 0.3937007874015748
          },
          {
            "duration": 0.21126749999999994,
            "durationTicks": 192,
            "midi": 48,
            "name": "C3",
            "ticks": 13632,
            "time": 14.999992500000001,
            "velocity": 0.3937007874015748
          },
          {
            "duration": 0.21126749999999994,
            "durationTicks": 192,
            "midi": 53,
            "name": "F3",
            "ticks": 13632,
            "time": 14.999992500000001,
            "velocity": 0.3937007874015748
          },
          {
            "duration": 0.21126749999999994,
            "durationTicks": 192,
            "midi": 44,
            "name": "G#2",
            "ticks": 13824,
            "time": 15.211260000000001,
            "velocity": 0.3937007874015748
          },
          {
            "duration": 0.21126749999999994,
            "durationTicks": 192,
            "midi": 32,
            "name": "G#1",
            "ticks": 13824,
            "time": 15.211260000000001,
            "velocity": 0.3937007874015748
          },
          {
            "duration": 0.4225349999999999,
            "durationTicks": 384,
            "midi": 77,
            "name": "F5",
            "ticks": 13824,
            "time": 15.211260000000001,
            "velocity": 0.3937007874015748
          },
          {
            "duration": 0.4225349999999999,
            "durationTicks": 384,
            "midi": 72,
            "name": "C5",
            "ticks": 13824,
            "time": 15.211260000000001,
            "velocity": 0.3937007874015748
          },
          {
            "duration": 0.4225349999999999,
            "durationTicks": 384,
            "midi": 84,
            "name": "C6",
            "ticks": 13824,
            "time": 15.211260000000001,
            "velocity": 0.3937007874015748
          },
          {
            "duration": 0.21126749999999994,
            "durationTicks": 192,
            "midi": 48,
            "name": "C3",
            "ticks": 14016,
            "time": 15.422527500000001,
            "velocity": 0.3937007874015748
          },
          {
            "duration": 0.21126749999999994,
            "durationTicks": 192,
            "midi": 56,
            "name": "G#3",
            "ticks": 14016,
            "time": 15.422527500000001,
            "velocity": 0.3937007874015748
          },
          {
            "duration": 0.21126749999999994,
            "durationTicks": 192,
            "midi": 53,
            "name": "F3",
            "ticks": 14016,
            "time": 15.422527500000001,
            "velocity": 0.3937007874015748
          },
          {
            "duration": 0.21126750000000172,
            "durationTicks": 192,
            "midi": 87,
            "name": "D#6",
            "ticks": 14208,
            "time": 15.633795000000001,
            "velocity": 0.3937007874015748
          },
          {
            "duration": 0.21126750000000172,
            "durationTicks": 192,
            "midi": 79,
            "name": "G5",
            "ticks": 14208,
            "time": 15.633795000000001,
            "velocity": 0.3937007874015748
          },
          {
            "duration": 0.21126750000000172,
            "durationTicks": 192,
            "midi": 75,
            "name": "D#5",
            "ticks": 14208,
            "time": 15.633795000000001,
            "velocity": 0.3937007874015748
          },
          {
            "duration": 0.21126750000000172,
            "durationTicks": 192,
            "midi": 31,
            "name": "G1",
            "ticks": 14208,
            "time": 15.633795000000001,
            "velocity": 0.3937007874015748
          },
          {
            "duration": 0.21126750000000172,
            "durationTicks": 192,
            "midi": 43,
            "name": "G2",
            "ticks": 14208,
            "time": 15.633795000000001,
            "velocity": 0.3937007874015748
          },
          {
            "duration": 0.21126749999999994,
            "durationTicks": 192,
            "midi": 73,
            "name": "C#5",
            "ticks": 14400,
            "time": 15.845062500000003,
            "velocity": 0.3937007874015748
          },
          {
            "duration": 0.21126749999999994,
            "durationTicks": 192,
            "midi": 55,
            "name": "G3",
            "ticks": 14400,
            "time": 15.845062500000003,
            "velocity": 0.3937007874015748
          },
          {
            "duration": 0.21126749999999994,
            "durationTicks": 192,
            "midi": 85,
            "name": "C#6",
            "ticks": 14400,
            "time": 15.845062500000003,
            "velocity": 0.3937007874015748
          },
          {
            "duration": 0.21126749999999994,
            "durationTicks": 192,
            "midi": 61,
            "name": "C#4",
            "ticks": 14400,
            "time": 15.845062500000003,
            "velocity": 0.3937007874015748
          },
          {
            "duration": 0.21126749999999994,
            "durationTicks": 192,
            "midi": 58,
            "name": "A#3",
            "ticks": 14400,
            "time": 15.845062500000003,
            "velocity": 0.3937007874015748
          },
          {
            "duration": 0.21126749999999817,
            "durationTicks": 192,
            "midi": 72,
            "name": "C5",
            "ticks": 14592,
            "time": 16.056330000000003,
            "velocity": 0.3937007874015748
          },
          {
            "duration": 0.21126749999999817,
            "durationTicks": 192,
            "midi": 31,
            "name": "G1",
            "ticks": 14592,
            "time": 16.056330000000003,
            "velocity": 0.3937007874015748
          },
          {
            "duration": 0.21126749999999817,
            "durationTicks": 192,
            "midi": 43,
            "name": "G2",
            "ticks": 14592,
            "time": 16.056330000000003,
            "velocity": 0.3937007874015748
          },
          {
            "duration": 0.21126749999999817,
            "durationTicks": 192,
            "midi": 84,
            "name": "C6",
            "ticks": 14592,
            "time": 16.056330000000003,
            "velocity": 0.3937007874015748
          },
          {
            "duration": 0.21126750000000172,
            "durationTicks": 192,
            "midi": 58,
            "name": "A#3",
            "ticks": 14784,
            "time": 16.2675975,
            "velocity": 0.3937007874015748
          },
          {
            "duration": 0.21126750000000172,
            "durationTicks": 192,
            "midi": 73,
            "name": "C#5",
            "ticks": 14784,
            "time": 16.2675975,
            "velocity": 0.3937007874015748
          },
          {
            "duration": 0.21126750000000172,
            "durationTicks": 192,
            "midi": 55,
            "name": "G3",
            "ticks": 14784,
            "time": 16.2675975,
            "velocity": 0.3937007874015748
          },
          {
            "duration": 0.21126750000000172,
            "durationTicks": 192,
            "midi": 85,
            "name": "C#6",
            "ticks": 14784,
            "time": 16.2675975,
            "velocity": 0.3937007874015748
          },
          {
            "duration": 0.21126750000000172,
            "durationTicks": 192,
            "midi": 61,
            "name": "C#4",
            "ticks": 14784,
            "time": 16.2675975,
            "velocity": 0.3937007874015748
          },
          {
            "duration": 0.4225349999999999,
            "durationTicks": 384,
            "midi": 76,
            "name": "E5",
            "ticks": 14976,
            "time": 16.478865000000003,
            "velocity": 0.3937007874015748
          },
          {
            "duration": 0.4225349999999999,
            "durationTicks": 384,
            "midi": 79,
            "name": "G5",
            "ticks": 14976,
            "time": 16.478865000000003,
            "velocity": 0.3937007874015748
          },
          {
            "duration": 0.21126749999999817,
            "durationTicks": 192,
            "midi": 34,
            "name": "A#1",
            "ticks": 14976,
            "time": 16.478865000000003,
            "velocity": 0.3937007874015748
          },
          {
            "duration": 0.21126749999999817,
            "durationTicks": 192,
            "midi": 46,
            "name": "A#2",
            "ticks": 14976,
            "time": 16.478865000000003,
            "velocity": 0.3937007874015748
          },
          {
            "duration": 0.4225349999999999,
            "durationTicks": 384,
            "midi": 70,
            "name": "A#4",
            "ticks": 14976,
            "time": 16.478865000000003,
            "velocity": 0.3937007874015748
          },
          {
            "duration": 0.4225349999999999,
            "durationTicks": 384,
            "midi": 82,
            "name": "A#5",
            "ticks": 14976,
            "time": 16.478865000000003,
            "velocity": 0.3937007874015748
          },
          {
            "duration": 0.21126750000000172,
            "durationTicks": 192,
            "midi": 58,
            "name": "A#3",
            "ticks": 15168,
            "time": 16.6901325,
            "velocity": 0.3937007874015748
          },
          {
            "duration": 0.21126750000000172,
            "durationTicks": 192,
            "midi": 55,
            "name": "G3",
            "ticks": 15168,
            "time": 16.6901325,
            "velocity": 0.3937007874015748
          },
          {
            "duration": 0.21126750000000172,
            "durationTicks": 192,
            "midi": 61,
            "name": "C#4",
            "ticks": 15168,
            "time": 16.6901325,
            "velocity": 0.3937007874015748
          },
          {
            "duration": 0.21126749999999817,
            "durationTicks": 192,
            "midi": 31,
            "name": "G1",
            "ticks": 15360,
            "time": 16.901400000000002,
            "velocity": 0.3937007874015748
          },
          {
            "duration": 0.21126749999999817,
            "durationTicks": 192,
            "midi": 43,
            "name": "G2",
            "ticks": 15360,
            "time": 16.901400000000002,
            "velocity": 0.3937007874015748
          },
          {
            "duration": 0.21126750000000172,
            "durationTicks": 192,
            "midi": 44,
            "name": "G#2",
            "ticks": 15552,
            "time": 17.1126675,
            "velocity": 0.3937007874015748
          },
          {
            "duration": 0.21126750000000172,
            "durationTicks": 192,
            "midi": 32,
            "name": "G#1",
            "ticks": 15552,
            "time": 17.1126675,
            "velocity": 0.3937007874015748
          },
          {
            "duration": 0.21126749999999817,
            "durationTicks": 192,
            "midi": 46,
            "name": "A#2",
            "ticks": 15744,
            "time": 17.323935000000002,
            "velocity": 0.3937007874015748
          },
          {
            "duration": 0.21126749999999817,
            "durationTicks": 192,
            "midi": 34,
            "name": "A#1",
            "ticks": 15744,
            "time": 17.323935000000002,
            "velocity": 0.3937007874015748
          },
          {
            "duration": 0.8450699999999998,
            "durationTicks": 768,
            "midi": 73,
            "name": "C#5",
            "ticks": 15744,
            "time": 17.323935000000002,
            "velocity": 0.3937007874015748
          },
          {
            "duration": 0.4225349999999999,
            "durationTicks": 384,
            "midi": 85,
            "name": "C#6",
            "ticks": 15744,
            "time": 17.323935000000002,
            "velocity": 0.3937007874015748
          },
          {
            "duration": 0.4225349999999999,
            "durationTicks": 384,
            "midi": 82,
            "name": "A#5",
            "ticks": 15744,
            "time": 17.323935000000002,
            "velocity": 0.3937007874015748
          },
          {
            "duration": 0.8450699999999998,
            "durationTicks": 768,
            "midi": 79,
            "name": "G5",
            "ticks": 15744,
            "time": 17.323935000000002,
            "velocity": 0.3937007874015748
          },
          {
            "duration": 0.21126750000000172,
            "durationTicks": 192,
            "midi": 58,
            "name": "A#3",
            "ticks": 15936,
            "time": 17.5352025,
            "velocity": 0.3937007874015748
          },
          {
            "duration": 0.21126750000000172,
            "durationTicks": 192,
            "midi": 61,
            "name": "C#4",
            "ticks": 15936,
            "time": 17.5352025,
            "velocity": 0.3937007874015748
          },
          {
            "duration": 0.21126750000000172,
            "durationTicks": 192,
            "midi": 55,
            "name": "G3",
            "ticks": 15936,
            "time": 17.5352025,
            "velocity": 0.3937007874015748
          },
          {
            "duration": 0.21126749999999817,
            "durationTicks": 192,
            "midi": 46,
            "name": "A#2",
            "ticks": 16128,
            "time": 17.746470000000002,
            "velocity": 0.3937007874015748
          },
          {
            "duration": 0.4225349999999999,
            "durationTicks": 384,
            "midi": 82,
            "name": "A#5",
            "ticks": 16128,
            "time": 17.746470000000002,
            "velocity": 0.3937007874015748
          },
          {
            "duration": 0.21126749999999817,
            "durationTicks": 192,
            "midi": 34,
            "name": "A#1",
            "ticks": 16128,
            "time": 17.746470000000002,
            "velocity": 0.3937007874015748
          },
          {
            "duration": 0.21126750000000172,
            "durationTicks": 192,
            "midi": 61,
            "name": "C#4",
            "ticks": 16320,
            "time": 17.9577375,
            "velocity": 0.3937007874015748
          },
          {
            "duration": 0.21126750000000172,
            "durationTicks": 192,
            "midi": 58,
            "name": "A#3",
            "ticks": 16320,
            "time": 17.9577375,
            "velocity": 0.3937007874015748
          },
          {
            "duration": 0.21126750000000172,
            "durationTicks": 192,
            "midi": 55,
            "name": "G3",
            "ticks": 16320,
            "time": 17.9577375,
            "velocity": 0.3937007874015748
          },
          {
            "duration": 0.21126750000000172,
            "durationTicks": 192,
            "midi": 85,
            "name": "C#6",
            "ticks": 16320,
            "time": 17.9577375,
            "velocity": 0.3937007874015748
          },
          {
            "duration": 0.21126750000000172,
            "durationTicks": 192,
            "midi": 75,
            "name": "D#5",
            "ticks": 16512,
            "time": 18.169005000000002,
            "velocity": 0.3937007874015748
          },
          {
            "duration": 0.21126750000000172,
            "durationTicks": 192,
            "midi": 87,
            "name": "D#6",
            "ticks": 16512,
            "time": 18.169005000000002,
            "velocity": 0.3937007874015748
          },
          {
            "duration": 0.21126750000000172,
            "durationTicks": 192,
            "midi": 43,
            "name": "G2",
            "ticks": 16512,
            "time": 18.169005000000002,
            "velocity": 0.3937007874015748
          },
          {
            "duration": 0.21126750000000172,
            "durationTicks": 192,
            "midi": 31,
            "name": "G1",
            "ticks": 16512,
            "time": 18.169005000000002,
            "velocity": 0.3937007874015748
          },
          {
            "duration": 0.21126749999999817,
            "durationTicks": 192,
            "midi": 85,
            "name": "C#6",
            "ticks": 16704,
            "time": 18.380272500000004,
            "velocity": 0.3937007874015748
          },
          {
            "duration": 0.21126749999999817,
            "durationTicks": 192,
            "midi": 55,
            "name": "G3",
            "ticks": 16704,
            "time": 18.380272500000004,
            "velocity": 0.3937007874015748
          },
          {
            "duration": 0.21126749999999817,
            "durationTicks": 192,
            "midi": 58,
            "name": "A#3",
            "ticks": 16704,
            "time": 18.380272500000004,
            "velocity": 0.3937007874015748
          },
          {
            "duration": 0.21126749999999817,
            "durationTicks": 192,
            "midi": 61,
            "name": "C#4",
            "ticks": 16704,
            "time": 18.380272500000004,
            "velocity": 0.3937007874015748
          },
          {
            "duration": 0.21126749999999817,
            "durationTicks": 192,
            "midi": 73,
            "name": "C#5",
            "ticks": 16704,
            "time": 18.380272500000004,
            "velocity": 0.3937007874015748
          },
          {
            "duration": 0.21126750000000172,
            "durationTicks": 192,
            "midi": 32,
            "name": "G#1",
            "ticks": 16896,
            "time": 18.591540000000002,
            "velocity": 0.3937007874015748
          },
          {
            "duration": 0.21126750000000172,
            "durationTicks": 192,
            "midi": 72,
            "name": "C5",
            "ticks": 16896,
            "time": 18.591540000000002,
            "velocity": 0.3937007874015748
          },
          {
            "duration": 0.21126750000000172,
            "durationTicks": 192,
            "midi": 44,
            "name": "G#2",
            "ticks": 16896,
            "time": 18.591540000000002,
            "velocity": 0.3937007874015748
          },
          {
            "duration": 0.21126750000000172,
            "durationTicks": 192,
            "midi": 84,
            "name": "C6",
            "ticks": 16896,
            "time": 18.591540000000002,
            "velocity": 0.3937007874015748
          },
          {
            "duration": 0.21126749999999817,
            "durationTicks": 192,
            "midi": 73,
            "name": "C#5",
            "ticks": 17088,
            "time": 18.802807500000004,
            "velocity": 0.3937007874015748
          },
          {
            "duration": 0.21126749999999817,
            "durationTicks": 192,
            "midi": 46,
            "name": "A#2",
            "ticks": 17088,
            "time": 18.802807500000004,
            "velocity": 0.3937007874015748
          },
          {
            "duration": 0.21126749999999817,
            "durationTicks": 192,
            "midi": 34,
            "name": "A#1",
            "ticks": 17088,
            "time": 18.802807500000004,
            "velocity": 0.3937007874015748
          },
          {
            "duration": 0.21126749999999817,
            "durationTicks": 192,
            "midi": 85,
            "name": "C#6",
            "ticks": 17088,
            "time": 18.802807500000004,
            "velocity": 0.3937007874015748
          },
          {
            "duration": 0.21126750000000172,
            "durationTicks": 192,
            "midi": 72,
            "name": "C5",
            "ticks": 17280,
            "time": 19.014075000000002,
            "velocity": 0.3937007874015748
          },
          {
            "duration": 0.21126750000000172,
            "durationTicks": 192,
            "midi": 84,
            "name": "C6",
            "ticks": 17280,
            "time": 19.014075000000002,
            "velocity": 0.3937007874015748
          },
          {
            "duration": 0.21126750000000172,
            "durationTicks": 192,
            "midi": 36,
            "name": "C2",
            "ticks": 17280,
            "time": 19.014075000000002,
            "velocity": 0.3937007874015748
          },
          {
            "duration": 0.21126750000000172,
            "durationTicks": 192,
            "midi": 48,
            "name": "C3",
            "ticks": 17280,
            "time": 19.014075000000002,
            "velocity": 0.3937007874015748
          },
          {
            "duration": 0.21126749999999817,
            "durationTicks": 192,
            "midi": 52,
            "name": "E3",
            "ticks": 17472,
            "time": 19.225342500000004,
            "velocity": 0.3937007874015748
          },
          {
            "duration": 0.21126749999999817,
            "durationTicks": 192,
            "midi": 72,
            "name": "C5",
            "ticks": 17472,
            "time": 19.225342500000004,
            "velocity": 0.3937007874015748
          },
          {
            "duration": 0.21126749999999817,
            "durationTicks": 192,
            "midi": 80,
            "name": "G#5",
            "ticks": 17472,
            "time": 19.225342500000004,
            "velocity": 0.3937007874015748
          },
          {
            "duration": 0.21126749999999817,
            "durationTicks": 192,
            "midi": 48,
            "name": "C3",
            "ticks": 17472,
            "time": 19.225342500000004,
            "velocity": 0.3937007874015748
          },
          {
            "duration": 0.21126749999999817,
            "durationTicks": 192,
            "midi": 58,
            "name": "A#3",
            "ticks": 17472,
            "time": 19.225342500000004,
            "velocity": 0.3937007874015748
          },
          {
            "duration": 0.21126749999999817,
            "durationTicks": 192,
            "midi": 84,
            "name": "C6",
            "ticks": 17472,
            "time": 19.225342500000004,
            "velocity": 0.3937007874015748
          },
          {
            "duration": 0.21126750000000172,
            "durationTicks": 192,
            "midi": 79,
            "name": "G5",
            "ticks": 17664,
            "time": 19.43661,
            "velocity": 0.3937007874015748
          },
          {
            "duration": 0.21126750000000172,
            "durationTicks": 192,
            "midi": 55,
            "name": "G3",
            "ticks": 17664,
            "time": 19.43661,
            "velocity": 0.3937007874015748
          },
          {
            "duration": 0.21126750000000172,
            "durationTicks": 192,
            "midi": 82,
            "name": "A#5",
            "ticks": 17664,
            "time": 19.43661,
            "velocity": 0.3937007874015748
          },
          {
            "duration": 0.21126750000000172,
            "durationTicks": 192,
            "midi": 70,
            "name": "A#4",
            "ticks": 17664,
            "time": 19.43661,
            "velocity": 0.3937007874015748
          },
          {
            "duration": 0.21126750000000172,
            "durationTicks": 192,
            "midi": 43,
            "name": "G2",
            "ticks": 17664,
            "time": 19.43661,
            "velocity": 0.3937007874015748
          },
          {
            "duration": 0.21126749999999817,
            "durationTicks": 192,
            "midi": 80,
            "name": "G#5",
            "ticks": 17856,
            "time": 19.647877500000003,
            "velocity": 0.3937007874015748
          },
          {
            "duration": 0.21126749999999817,
            "durationTicks": 192,
            "midi": 68,
            "name": "G#4",
            "ticks": 17856,
            "time": 19.647877500000003,
            "velocity": 0.3937007874015748
          },
          {
            "duration": 0.21126749999999817,
            "durationTicks": 192,
            "midi": 77,
            "name": "F5",
            "ticks": 17856,
            "time": 19.647877500000003,
            "velocity": 0.3937007874015748
          },
          {
            "duration": 0.21126749999999817,
            "durationTicks": 192,
            "midi": 48,
            "name": "C3",
            "ticks": 17856,
            "time": 19.647877500000003,
            "velocity": 0.3937007874015748
          },
          {
            "duration": 0.21126749999999817,
            "durationTicks": 192,
            "midi": 58,
            "name": "A#3",
            "ticks": 17856,
            "time": 19.647877500000003,
            "velocity": 0.3937007874015748
          },
          {
            "duration": 0.21126749999999817,
            "durationTicks": 192,
            "midi": 52,
            "name": "E3",
            "ticks": 17856,
            "time": 19.647877500000003,
            "velocity": 0.3937007874015748
          },
          {
            "duration": 0.21126750000000172,
            "durationTicks": 192,
            "midi": 84,
            "name": "C6",
            "ticks": 18048,
            "time": 19.859145,
            "velocity": 0.3937007874015748
          },
          {
            "duration": 0.21126750000000172,
            "durationTicks": 192,
            "midi": 36,
            "name": "C2",
            "ticks": 18048,
            "time": 19.859145,
            "velocity": 0.3937007874015748
          },
          {
            "duration": 0.21126750000000172,
            "durationTicks": 192,
            "midi": 72,
            "name": "C5",
            "ticks": 18048,
            "time": 19.859145,
            "velocity": 0.3937007874015748
          },
          {
            "duration": 0.21126750000000172,
            "durationTicks": 192,
            "midi": 76,
            "name": "E5",
            "ticks": 18048,
            "time": 19.859145,
            "velocity": 0.3937007874015748
          },
          {
            "duration": 0.21126750000000172,
            "durationTicks": 192,
            "midi": 48,
            "name": "C3",
            "ticks": 18048,
            "time": 19.859145,
            "velocity": 0.3937007874015748
          },
          {
            "duration": 0.21126749999999817,
            "durationTicks": 192,
            "midi": 55,
            "name": "G3",
            "ticks": 18240,
            "time": 20.070412500000003,
            "velocity": 0.3937007874015748
          },
          {
            "duration": 0.21126749999999817,
            "durationTicks": 192,
            "midi": 73,
            "name": "C#5",
            "ticks": 18240,
            "time": 20.070412500000003,
            "velocity": 0.3937007874015748
          },
          {
            "duration": 0.21126749999999817,
            "durationTicks": 192,
            "midi": 52,
            "name": "E3",
            "ticks": 18240,
            "time": 20.070412500000003,
            "velocity": 0.3937007874015748
          },
          {
            "duration": 0.21126749999999817,
            "durationTicks": 192,
            "midi": 48,
            "name": "C3",
            "ticks": 18240,
            "time": 20.070412500000003,
            "velocity": 0.3937007874015748
          },
          {
            "duration": 0.21126749999999817,
            "durationTicks": 192,
            "midi": 82,
            "name": "A#5",
            "ticks": 18240,
            "time": 20.070412500000003,
            "velocity": 0.3937007874015748
          },
          {
            "duration": 0.21126749999999817,
            "durationTicks": 192,
            "midi": 70,
            "name": "A#4",
            "ticks": 18240,
            "time": 20.070412500000003,
            "velocity": 0.3937007874015748
          },
          {
            "duration": 0.21126750000000172,
            "durationTicks": 192,
            "midi": 72,
            "name": "C5",
            "ticks": 18432,
            "time": 20.28168,
            "velocity": 0.3937007874015748
          },
          {
            "duration": 0.21126750000000172,
            "durationTicks": 192,
            "midi": 68,
            "name": "G#4",
            "ticks": 18432,
            "time": 20.28168,
            "velocity": 0.3937007874015748
          },
          {
            "duration": 0.21126750000000172,
            "durationTicks": 192,
            "midi": 50,
            "name": "D3",
            "ticks": 18432,
            "time": 20.28168,
            "velocity": 0.3937007874015748
          },
          {
            "duration": 0.21126750000000172,
            "durationTicks": 192,
            "midi": 80,
            "name": "G#5",
            "ticks": 18432,
            "time": 20.28168,
            "velocity": 0.3937007874015748
          },
          {
            "duration": 0.21126750000000172,
            "durationTicks": 192,
            "midi": 38,
            "name": "D2",
            "ticks": 18432,
            "time": 20.28168,
            "velocity": 0.3937007874015748
          },
          {
            "duration": 0.21126749999999817,
            "durationTicks": 192,
            "midi": 70,
            "name": "A#4",
            "ticks": 18624,
            "time": 20.492947500000003,
            "velocity": 0.3937007874015748
          },
          {
            "duration": 0.21126749999999817,
            "durationTicks": 192,
            "midi": 79,
            "name": "G5",
            "ticks": 18624,
            "time": 20.492947500000003,
            "velocity": 0.3937007874015748
          },
          {
            "duration": 0.21126749999999817,
            "durationTicks": 192,
            "midi": 67,
            "name": "G4",
            "ticks": 18624,
            "time": 20.492947500000003,
            "velocity": 0.3937007874015748
          },
          {
            "duration": 0.21126749999999817,
            "durationTicks": 192,
            "midi": 40,
            "name": "E2",
            "ticks": 18624,
            "time": 20.492947500000003,
            "velocity": 0.3937007874015748
          },
          {
            "duration": 0.21126749999999817,
            "durationTicks": 192,
            "midi": 52,
            "name": "E3",
            "ticks": 18624,
            "time": 20.492947500000003,
            "velocity": 0.3937007874015748
          },
          {
            "duration": 0.4225349999999999,
            "durationTicks": 384,
            "midi": 80,
            "name": "G#5",
            "ticks": 18816,
            "time": 20.704215,
            "velocity": 0.3937007874015748
          },
          {
            "duration": 0.21126750000000172,
            "durationTicks": 192,
            "midi": 41,
            "name": "F2",
            "ticks": 18816,
            "time": 20.704215,
            "velocity": 0.3937007874015748
          },
          {
            "duration": 0.4225349999999999,
            "durationTicks": 384,
            "midi": 77,
            "name": "F5",
            "ticks": 18816,
            "time": 20.704215,
            "velocity": 0.3937007874015748
          },
          {
            "duration": 0.4225349999999999,
            "durationTicks": 384,
            "midi": 84,
            "name": "C6",
            "ticks": 18816,
            "time": 20.704215,
            "velocity": 0.3937007874015748
          },
          {
            "duration": 0.4225349999999999,
            "durationTicks": 384,
            "midi": 72,
            "name": "C5",
            "ticks": 18816,
            "time": 20.704215,
            "velocity": 0.3937007874015748
          },
          {
            "duration": 0.21126750000000172,
            "durationTicks": 192,
            "midi": 53,
            "name": "F3",
            "ticks": 18816,
            "time": 20.704215,
            "velocity": 0.3937007874015748
          },
          {
            "duration": 0.21126749999999817,
            "durationTicks": 192,
            "midi": 53,
            "name": "F3",
            "ticks": 19008,
            "time": 20.915482500000003,
            "velocity": 0.3937007874015748
          },
          {
            "duration": 0.21126749999999817,
            "durationTicks": 192,
            "midi": 56,
            "name": "G#3",
            "ticks": 19008,
            "time": 20.915482500000003,
            "velocity": 0.3937007874015748
          },
          {
            "duration": 0.21126749999999817,
            "durationTicks": 192,
            "midi": 48,
            "name": "C3",
            "ticks": 19008,
            "time": 20.915482500000003,
            "velocity": 0.3937007874015748
          },
          {
            "duration": 0.4225349999999999,
            "durationTicks": 384,
            "midi": 77,
            "name": "F5",
            "ticks": 19200,
            "time": 21.12675,
            "velocity": 0.3937007874015748
          },
          {
            "duration": 0.21126750000000172,
            "durationTicks": 192,
            "midi": 48,
            "name": "C3",
            "ticks": 19200,
            "time": 21.12675,
            "velocity": 0.3937007874015748
          },
          {
            "duration": 0.21126750000000172,
            "durationTicks": 192,
            "midi": 36,
            "name": "C2",
            "ticks": 19200,
            "time": 21.12675,
            "velocity": 0.3937007874015748
          },
          {
            "duration": 0.4225349999999999,
            "durationTicks": 384,
            "midi": 72,
            "name": "C5",
            "ticks": 19200,
            "time": 21.12675,
            "velocity": 0.3937007874015748
          },
          {
            "duration": 0.4225349999999999,
            "durationTicks": 384,
            "midi": 80,
            "name": "G#5",
            "ticks": 19200,
            "time": 21.12675,
            "velocity": 0.3937007874015748
          },
          {
            "duration": 0.4225349999999999,
            "durationTicks": 384,
            "midi": 84,
            "name": "C6",
            "ticks": 19200,
            "time": 21.12675,
            "velocity": 0.3937007874015748
          },
          {
            "duration": 0.21126749999999817,
            "durationTicks": 192,
            "midi": 53,
            "name": "F3",
            "ticks": 19392,
            "time": 21.338017500000003,
            "velocity": 0.3937007874015748
          },
          {
            "duration": 0.21126749999999817,
            "durationTicks": 192,
            "midi": 56,
            "name": "G#3",
            "ticks": 19392,
            "time": 21.338017500000003,
            "velocity": 0.3937007874015748
          },
          {
            "duration": 0.21126749999999817,
            "durationTicks": 192,
            "midi": 48,
            "name": "C3",
            "ticks": 19392,
            "time": 21.338017500000003,
            "velocity": 0.3937007874015748
          },
          {
            "duration": 0.026408437499998882,
            "durationTicks": 24,
            "midi": 87,
            "name": "D#6",
            "ticks": 19536,
            "time": 21.496468125000003,
            "velocity": 0.3937007874015748
          },
          {
            "duration": 0.026408437499998882,
            "durationTicks": 24,
            "midi": 88,
            "name": "E6",
            "ticks": 19560,
            "time": 21.522876562500002,
            "velocity": 0.3937007874015748
          },
          {
            "duration": 0.4225349999999999,
            "durationTicks": 384,
            "midi": 77,
            "name": "F5",
            "ticks": 19584,
            "time": 21.549285,
            "velocity": 0.3937007874015748
          },
          {
            "duration": 0.4225349999999999,
            "durationTicks": 384,
            "midi": 89,
            "name": "F6",
            "ticks": 19584,
            "time": 21.549285,
            "velocity": 0.3937007874015748
          },
          {
            "duration": 0.21126750000000172,
            "durationTicks": 192,
            "midi": 29,
            "name": "F1",
            "ticks": 19584,
            "time": 21.549285,
            "velocity": 0.3937007874015748
          },
          {
            "duration": 0.21126750000000172,
            "durationTicks": 192,
            "midi": 41,
            "name": "F2",
            "ticks": 19584,
            "time": 21.549285,
            "velocity": 0.3937007874015748
          },
          {
            "duration": 0.21126749999999817,
            "durationTicks": 192,
            "midi": 53,
            "name": "F3",
            "ticks": 19776,
            "time": 21.760552500000003,
            "velocity": 0.3937007874015748
          },
          {
            "duration": 0.21126749999999817,
            "durationTicks": 192,
            "midi": 48,
            "name": "C3",
            "ticks": 19776,
            "time": 21.760552500000003,
            "velocity": 0.3937007874015748
          },
          {
            "duration": 0.21126749999999817,
            "durationTicks": 192,
            "midi": 56,
            "name": "G#3",
            "ticks": 19776,
            "time": 21.760552500000003,
            "velocity": 0.3937007874015748
          },
          {
            "duration": 0.21126750000000172,
            "durationTicks": 192,
            "midi": 44,
            "name": "G#2",
            "ticks": 19968,
            "time": 21.97182,
            "velocity": 0.3937007874015748
          },
          {
            "duration": 0.21126750000000172,
            "durationTicks": 192,
            "midi": 32,
            "name": "G#1",
            "ticks": 19968,
            "time": 21.97182,
            "velocity": 0.3937007874015748
          },
          {
            "duration": 0.4225349999999999,
            "durationTicks": 384,
            "midi": 84,
            "name": "C6",
            "ticks": 19968,
            "time": 21.97182,
            "velocity": 0.3937007874015748
          },
          {
            "duration": 0.4225349999999999,
            "durationTicks": 384,
            "midi": 72,
            "name": "C5",
            "ticks": 19968,
            "time": 21.97182,
            "velocity": 0.3937007874015748
          },
          {
            "duration": 0.21126749999999817,
            "durationTicks": 192,
            "midi": 48,
            "name": "C3",
            "ticks": 20160,
            "time": 22.183087500000003,
            "velocity": 0.3937007874015748
          },
          {
            "duration": 0.21126749999999817,
            "durationTicks": 192,
            "midi": 56,
            "name": "G#3",
            "ticks": 20160,
            "time": 22.183087500000003,
            "velocity": 0.3937007874015748
          },
          {
            "duration": 0.21126749999999817,
            "durationTicks": 192,
            "midi": 53,
            "name": "F3",
            "ticks": 20160,
            "time": 22.183087500000003,
            "velocity": 0.3937007874015748
          },
          {
            "duration": 0.21126750000000172,
            "durationTicks": 192,
            "midi": 75,
            "name": "D#5",
            "ticks": 20352,
            "time": 22.394355,
            "velocity": 0.3937007874015748
          },
          {
            "duration": 0.21126750000000172,
            "durationTicks": 192,
            "midi": 87,
            "name": "D#6",
            "ticks": 20352,
            "time": 22.394355,
            "velocity": 0.3937007874015748
          },
          {
            "duration": 0.21126750000000172,
            "durationTicks": 192,
            "midi": 43,
            "name": "G2",
            "ticks": 20352,
            "time": 22.394355,
            "velocity": 0.3937007874015748
          },
          {
            "duration": 0.21126750000000172,
            "durationTicks": 192,
            "midi": 31,
            "name": "G1",
            "ticks": 20352,
            "time": 22.394355,
            "velocity": 0.3937007874015748
          },
          {
            "duration": 0.21126750000000172,
            "durationTicks": 192,
            "midi": 61,
            "name": "C#4",
            "ticks": 20544,
            "time": 22.605622500000003,
            "velocity": 0.3937007874015748
          },
          {
            "duration": 0.21126750000000172,
            "durationTicks": 192,
            "midi": 73,
            "name": "C#5",
            "ticks": 20544,
            "time": 22.605622500000003,
            "velocity": 0.3937007874015748
          },
          {
            "duration": 0.21126750000000172,
            "durationTicks": 192,
            "midi": 55,
            "name": "G3",
            "ticks": 20544,
            "time": 22.605622500000003,
            "velocity": 0.3937007874015748
          },
          {
            "duration": 0.21126750000000172,
            "durationTicks": 192,
            "midi": 58,
            "name": "A#3",
            "ticks": 20544,
            "time": 22.605622500000003,
            "velocity": 0.3937007874015748
          },
          {
            "duration": 0.21126750000000172,
            "durationTicks": 192,
            "midi": 85,
            "name": "C#6",
            "ticks": 20544,
            "time": 22.605622500000003,
            "velocity": 0.3937007874015748
          },
          {
            "duration": 0.21126749999999817,
            "durationTicks": 192,
            "midi": 31,
            "name": "G1",
            "ticks": 20736,
            "time": 22.816890000000004,
            "velocity": 0.3937007874015748
          },
          {
            "duration": 0.21126749999999817,
            "durationTicks": 192,
            "midi": 84,
            "name": "C6",
            "ticks": 20736,
            "time": 22.816890000000004,
            "velocity": 0.3937007874015748
          },
          {
            "duration": 0.21126749999999817,
            "durationTicks": 192,
            "midi": 72,
            "name": "C5",
            "ticks": 20736,
            "time": 22.816890000000004,
            "velocity": 0.3937007874015748
          },
          {
            "duration": 0.21126749999999817,
            "durationTicks": 192,
            "midi": 43,
            "name": "G2",
            "ticks": 20736,
            "time": 22.816890000000004,
            "velocity": 0.3937007874015748
          },
          {
            "duration": 0.21126750000000172,
            "durationTicks": 192,
            "midi": 58,
            "name": "A#3",
            "ticks": 20928,
            "time": 23.028157500000002,
            "velocity": 0.3937007874015748
          },
          {
            "duration": 0.21126750000000172,
            "durationTicks": 192,
            "midi": 61,
            "name": "C#4",
            "ticks": 20928,
            "time": 23.028157500000002,
            "velocity": 0.3937007874015748
          },
          {
            "duration": 0.21126750000000172,
            "durationTicks": 192,
            "midi": 73,
            "name": "C#5",
            "ticks": 20928,
            "time": 23.028157500000002,
            "velocity": 0.3937007874015748
          },
          {
            "duration": 0.21126750000000172,
            "durationTicks": 192,
            "midi": 85,
            "name": "C#6",
            "ticks": 20928,
            "time": 23.028157500000002,
            "velocity": 0.3937007874015748
          },
          {
            "duration": 0.21126750000000172,
            "durationTicks": 192,
            "midi": 55,
            "name": "G3",
            "ticks": 20928,
            "time": 23.028157500000002,
            "velocity": 0.3937007874015748
          },
          {
            "duration": 0.21126749999999817,
            "durationTicks": 192,
            "midi": 34,
            "name": "A#1",
            "ticks": 21120,
            "time": 23.239425000000004,
            "velocity": 0.3937007874015748
          },
          {
            "duration": 0.4225349999999999,
            "durationTicks": 384,
            "midi": 76,
            "name": "E5",
            "ticks": 21120,
            "time": 23.239425000000004,
            "velocity": 0.3937007874015748
          },
          {
            "duration": 0.4225349999999999,
            "durationTicks": 384,
            "midi": 79,
            "name": "G5",
            "ticks": 21120,
            "time": 23.239425000000004,
            "velocity": 0.3937007874015748
          },
          {
            "duration": 0.4225349999999999,
            "durationTicks": 384,
            "midi": 82,
            "name": "A#5",
            "ticks": 21120,
            "time": 23.239425000000004,
            "velocity": 0.3937007874015748
          },
          {
            "duration": 0.21126749999999817,
            "durationTicks": 192,
            "midi": 46,
            "name": "A#2",
            "ticks": 21120,
            "time": 23.239425000000004,
            "velocity": 0.3937007874015748
          },
          {
            "duration": 0.4225349999999999,
            "durationTicks": 384,
            "midi": 70,
            "name": "A#4",
            "ticks": 21120,
            "time": 23.239425000000004,
            "velocity": 0.3937007874015748
          },
          {
            "duration": 0.21126750000000172,
            "durationTicks": 192,
            "midi": 58,
            "name": "A#3",
            "ticks": 21312,
            "time": 23.450692500000002,
            "velocity": 0.3937007874015748
          },
          {
            "duration": 0.21126750000000172,
            "durationTicks": 192,
            "midi": 55,
            "name": "G3",
            "ticks": 21312,
            "time": 23.450692500000002,
            "velocity": 0.3937007874015748
          },
          {
            "duration": 0.21126750000000172,
            "durationTicks": 192,
            "midi": 61,
            "name": "C#4",
            "ticks": 21312,
            "time": 23.450692500000002,
            "velocity": 0.3937007874015748
          },
          {
            "duration": 0.21126749999999817,
            "durationTicks": 192,
            "midi": 37,
            "name": "C#2",
            "ticks": 21504,
            "time": 23.661960000000004,
            "velocity": 0.3937007874015748
          },
          {
            "duration": 0.21126749999999817,
            "durationTicks": 192,
            "midi": 49,
            "name": "C#3",
            "ticks": 21504,
            "time": 23.661960000000004,
            "velocity": 0.3937007874015748
          },
          {
            "duration": 0.21126750000000172,
            "durationTicks": 192,
            "midi": 58,
            "name": "A#3",
            "ticks": 21696,
            "time": 23.873227500000002,
            "velocity": 0.3937007874015748
          },
          {
            "duration": 0.21126750000000172,
            "durationTicks": 192,
            "midi": 55,
            "name": "G3",
            "ticks": 21696,
            "time": 23.873227500000002,
            "velocity": 0.3937007874015748
          },
          {
            "duration": 0.21126750000000172,
            "durationTicks": 192,
            "midi": 61,
            "name": "C#4",
            "ticks": 21696,
            "time": 23.873227500000002,
            "velocity": 0.3937007874015748
          },
          {
            "duration": 0.21126749999999817,
            "durationTicks": 192,
            "midi": 55,
            "name": "G3",
            "ticks": 21888,
            "time": 24.084495000000004,
            "velocity": 0.3937007874015748
          },
          {
            "duration": 0.8450699999999998,
            "durationTicks": 768,
            "midi": 72,
            "name": "C5",
            "ticks": 21888,
            "time": 24.084495000000004,
            "velocity": 0.3937007874015748
          },
          {
            "duration": 0.8450699999999998,
            "durationTicks": 768,
            "midi": 84,
            "name": "C6",
            "ticks": 21888,
            "time": 24.084495000000004,
            "velocity": 0.3937007874015748
          },
          {
            "duration": 0.8450699999999998,
            "durationTicks": 768,
            "midi": 79,
            "name": "G5",
            "ticks": 21888,
            "time": 24.084495000000004,
            "velocity": 0.3937007874015748
          },
          {
            "duration": 0.8450699999999998,
            "durationTicks": 768,
            "midi": 76,
            "name": "E5",
            "ticks": 21888,
            "time": 24.084495000000004,
            "velocity": 0.3937007874015748
          },
          {
            "duration": 0.21126749999999817,
            "durationTicks": 192,
            "midi": 43,
            "name": "G2",
            "ticks": 21888,
            "time": 24.084495000000004,
            "velocity": 0.3937007874015748
          },
          {
            "duration": 0.21126750000000172,
            "durationTicks": 192,
            "midi": 52,
            "name": "E3",
            "ticks": 22080,
            "time": 24.295762500000002,
            "velocity": 0.3937007874015748
          },
          {
            "duration": 0.21126750000000172,
            "durationTicks": 192,
            "midi": 55,
            "name": "G3",
            "ticks": 22080,
            "time": 24.295762500000002,
            "velocity": 0.3937007874015748
          },
          {
            "duration": 0.21126750000000172,
            "durationTicks": 192,
            "midi": 58,
            "name": "A#3",
            "ticks": 22080,
            "time": 24.295762500000002,
            "velocity": 0.3937007874015748
          },
          {
            "duration": 0.21126749999999817,
            "durationTicks": 192,
            "midi": 36,
            "name": "C2",
            "ticks": 22272,
            "time": 24.507030000000004,
            "velocity": 0.3937007874015748
          },
          {
            "duration": 0.21126749999999817,
            "durationTicks": 192,
            "midi": 48,
            "name": "C3",
            "ticks": 22272,
            "time": 24.507030000000004,
            "velocity": 0.3937007874015748
          },
          {
            "duration": 0.21126750000000172,
            "durationTicks": 192,
            "midi": 52,
            "name": "E3",
            "ticks": 22464,
            "time": 24.718297500000002,
            "velocity": 0.3937007874015748
          },
          {
            "duration": 0.21126750000000172,
            "durationTicks": 192,
            "midi": 58,
            "name": "A#3",
            "ticks": 22464,
            "time": 24.718297500000002,
            "velocity": 0.3937007874015748
          },
          {
            "duration": 0.21126750000000172,
            "durationTicks": 192,
            "midi": 55,
            "name": "G3",
            "ticks": 22464,
            "time": 24.718297500000002,
            "velocity": 0.3937007874015748
          },
          {
            "duration": 0.21126749999999817,
            "durationTicks": 192,
            "midi": 40,
            "name": "E2",
            "ticks": 22656,
            "time": 24.929565000000004,
            "velocity": 0.3937007874015748
          },
          {
            "duration": 0.21126749999999817,
            "durationTicks": 192,
            "midi": 70,
            "name": "A#4",
            "ticks": 22656,
            "time": 24.929565000000004,
            "velocity": 0.3937007874015748
          },
          {
            "duration": 0.21126749999999817,
            "durationTicks": 192,
            "midi": 82,
            "name": "A#5",
            "ticks": 22656,
            "time": 24.929565000000004,
            "velocity": 0.3937007874015748
          },
          {
            "duration": 0.21126749999999817,
            "durationTicks": 192,
            "midi": 79,
            "name": "G5",
            "ticks": 22656,
            "time": 24.929565000000004,
            "velocity": 0.3937007874015748
          },
          {
            "duration": 0.21126749999999817,
            "durationTicks": 192,
            "midi": 52,
            "name": "E3",
            "ticks": 22656,
            "time": 24.929565000000004,
            "velocity": 0.3937007874015748
          },
          {
            "duration": 0.21126750000000172,
            "durationTicks": 192,
            "midi": 80,
            "name": "G#5",
            "ticks": 22848,
            "time": 25.140832500000002,
            "velocity": 0.3937007874015748
          },
          {
            "duration": 0.21126750000000172,
            "durationTicks": 192,
            "midi": 36,
            "name": "C2",
            "ticks": 22848,
            "time": 25.140832500000002,
            "velocity": 0.3937007874015748
          },
          {
            "duration": 0.21126750000000172,
            "durationTicks": 192,
            "midi": 48,
            "name": "C3",
            "ticks": 22848,
            "time": 25.140832500000002,
            "velocity": 0.3937007874015748
          },
          {
            "duration": 0.21126750000000172,
            "durationTicks": 192,
            "midi": 77,
            "name": "F5",
            "ticks": 22848,
            "time": 25.140832500000002,
            "velocity": 0.3937007874015748
          },
          {
            "duration": 0.21126750000000172,
            "durationTicks": 192,
            "midi": 68,
            "name": "G#4",
            "ticks": 22848,
            "time": 25.140832500000002,
            "velocity": 0.3937007874015748
          },
          {
            "duration": 0.21126749999999817,
            "durationTicks": 192,
            "midi": 38,
            "name": "D2",
            "ticks": 23040,
            "time": 25.352100000000004,
            "velocity": 0.3937007874015748
          },
          {
            "duration": 0.21126749999999817,
            "durationTicks": 192,
            "midi": 67,
            "name": "G4",
            "ticks": 23040,
            "time": 25.352100000000004,
            "velocity": 0.3937007874015748
          },
          {
            "duration": 0.21126749999999817,
            "durationTicks": 192,
            "midi": 79,
            "name": "G5",
            "ticks": 23040,
            "time": 25.352100000000004,
            "velocity": 0.3937007874015748
          },
          {
            "duration": 0.21126749999999817,
            "durationTicks": 192,
            "midi": 76,
            "name": "E5",
            "ticks": 23040,
            "time": 25.352100000000004,
            "velocity": 0.3937007874015748
          },
          {
            "duration": 0.21126749999999817,
            "durationTicks": 192,
            "midi": 50,
            "name": "D3",
            "ticks": 23040,
            "time": 25.352100000000004,
            "velocity": 0.3937007874015748
          },
          {
            "duration": 0.21126750000000172,
            "durationTicks": 192,
            "midi": 76,
            "name": "E5",
            "ticks": 23232,
            "time": 25.563367500000002,
            "velocity": 0.3937007874015748
          },
          {
            "duration": 0.21126750000000172,
            "durationTicks": 192,
            "midi": 80,
            "name": "G#5",
            "ticks": 23232,
            "time": 25.563367500000002,
            "velocity": 0.3937007874015748
          },
          {
            "duration": 0.21126750000000172,
            "durationTicks": 192,
            "midi": 40,
            "name": "E2",
            "ticks": 23232,
            "time": 25.563367500000002,
            "velocity": 0.3937007874015748
          },
          {
            "duration": 0.21126750000000172,
            "durationTicks": 192,
            "midi": 52,
            "name": "E3",
            "ticks": 23232,
            "time": 25.563367500000002,
            "velocity": 0.3937007874015748
          },
          {
            "duration": 0.21126750000000172,
            "durationTicks": 192,
            "midi": 68,
            "name": "G#4",
            "ticks": 23232,
            "time": 25.563367500000002,
            "velocity": 0.3937007874015748
          },
          {
            "duration": 0.8450699999999998,
            "durationTicks": 768,
            "midi": 77,
            "name": "F5",
            "ticks": 23424,
            "time": 25.774635000000004,
            "velocity": 0.3937007874015748
          },
          {
            "duration": 0.8450699999999998,
            "durationTicks": 768,
            "midi": 65,
            "name": "F4",
            "ticks": 23424,
            "time": 25.774635000000004,
            "velocity": 0.3937007874015748
          },
          {
            "duration": 0.8450699999999998,
            "durationTicks": 768,
            "midi": 72,
            "name": "C5",
            "ticks": 23424,
            "time": 25.774635000000004,
            "velocity": 0.3937007874015748
          },
          {
            "duration": 0.8450699999999998,
            "durationTicks": 768,
            "midi": 68,
            "name": "G#4",
            "ticks": 23424,
            "time": 25.774635000000004,
            "velocity": 0.3937007874015748
          },
          {
            "duration": 0.21126749999999817,
            "durationTicks": 192,
            "midi": 41,
            "name": "F2",
            "ticks": 23424,
            "time": 25.774635000000004,
            "velocity": 0.3937007874015748
          },
          {
            "duration": 0.21126749999999817,
            "durationTicks": 192,
            "midi": 53,
            "name": "F3",
            "ticks": 23424,
            "time": 25.774635000000004,
            "velocity": 0.3937007874015748
          },
          {
            "duration": 0.21126750000000172,
            "durationTicks": 192,
            "midi": 53,
            "name": "F3",
            "ticks": 23616,
            "time": 25.9859025,
            "velocity": 0.3937007874015748
          },
          {
            "duration": 0.21126750000000172,
            "durationTicks": 192,
            "midi": 48,
            "name": "C3",
            "ticks": 23616,
            "time": 25.9859025,
            "velocity": 0.3937007874015748
          },
          {
            "duration": 0.21126749999999817,
            "durationTicks": 192,
            "midi": 36,
            "name": "C2",
            "ticks": 23808,
            "time": 26.197170000000003,
            "velocity": 0.3937007874015748
          },
          {
            "duration": 0.21126749999999817,
            "durationTicks": 192,
            "midi": 48,
            "name": "C3",
            "ticks": 23808,
            "time": 26.197170000000003,
            "velocity": 0.3937007874015748
          },
          {
            "duration": 0.21126750000000172,
            "durationTicks": 192,
            "midi": 53,
            "name": "F3",
            "ticks": 24000,
            "time": 26.4084375,
            "velocity": 0.3937007874015748
          },
          {
            "duration": 0.21126750000000172,
            "durationTicks": 192,
            "midi": 48,
            "name": "C3",
            "ticks": 24000,
            "time": 26.4084375,
            "velocity": 0.3937007874015748
          },
          {
            "duration": 0.4225349999999999,
            "durationTicks": 384,
            "midi": 53,
            "name": "F3",
            "ticks": 24192,
            "time": 26.619705000000003,
            "velocity": 0.3937007874015748
          },
          {
            "duration": 0.4225349999999999,
            "durationTicks": 384,
            "midi": 29,
            "name": "F1",
            "ticks": 24192,
            "time": 26.619705000000003,
            "velocity": 0.3937007874015748
          },
          {
            "duration": 0.4225349999999999,
            "durationTicks": 384,
            "midi": 41,
            "name": "F2",
            "ticks": 24192,
            "time": 26.619705000000003,
            "velocity": 0.3937007874015748
          },
          {
            "duration": 0.21126750000000172,
            "durationTicks": 192,
            "midi": 76,
            "name": "E5",
            "ticks": 24960,
            "time": 27.464775000000003,
            "velocity": 0.3937007874015748
          },
          {
            "duration": 0.10563374999999908,
            "durationTicks": 96,
            "midi": 84,
            "name": "C6",
            "ticks": 24960,
            "time": 27.464775000000003,
            "velocity": 0.3937007874015748
          },
          {
            "duration": 0.21126750000000172,
            "durationTicks": 192,
            "midi": 36,
            "name": "C2",
            "ticks": 24960,
            "time": 27.464775000000003,
            "velocity": 0.3937007874015748
          },
          {
            "duration": 0.21126750000000172,
            "durationTicks": 192,
            "midi": 48,
            "name": "C3",
            "ticks": 24960,
            "time": 27.464775000000003,
            "velocity": 0.3937007874015748
          },
          {
            "duration": 0.10563375000000264,
            "durationTicks": 96,
            "midi": 85,
            "name": "C#6",
            "ticks": 25056,
            "time": 27.570408750000002,
            "velocity": 0.3937007874015748
          },
          {
            "duration": 0.21126749999999817,
            "durationTicks": 192,
            "midi": 52,
            "name": "E3",
            "ticks": 25152,
            "time": 27.676042500000005,
            "velocity": 0.3937007874015748
          },
          {
            "duration": 0.21126749999999817,
            "durationTicks": 192,
            "midi": 58,
            "name": "A#3",
            "ticks": 25152,
            "time": 27.676042500000005,
            "velocity": 0.3937007874015748
          },
          {
            "duration": 0.21126749999999817,
            "durationTicks": 192,
            "midi": 60,
            "name": "C4",
            "ticks": 25152,
            "time": 27.676042500000005,
            "velocity": 0.3937007874015748
          },
          {
            "duration": 0.10563374999999908,
            "durationTicks": 96,
            "midi": 84,
            "name": "C6",
            "ticks": 25152,
            "time": 27.676042500000005,
            "velocity": 0.3937007874015748
          },
          {
            "duration": 0.10563374999999908,
            "durationTicks": 96,
            "midi": 82,
            "name": "A#5",
            "ticks": 25248,
            "time": 27.781676250000004,
            "velocity": 0.3937007874015748
          },
          {
            "duration": 0.10563374999999908,
            "durationTicks": 96,
            "midi": 84,
            "name": "C6",
            "ticks": 25344,
            "time": 27.887310000000003,
            "velocity": 0.3937007874015748
          },
          {
            "duration": 0.10563374999999908,
            "durationTicks": 96,
            "midi": 79,
            "name": "G5",
            "ticks": 25344,
            "time": 27.887310000000003,
            "velocity": 0.3937007874015748
          },
          {
            "duration": 0.21126750000000172,
            "durationTicks": 192,
            "midi": 48,
            "name": "C3",
            "ticks": 25344,
            "time": 27.887310000000003,
            "velocity": 0.3937007874015748
          },
          {
            "duration": 0.21126750000000172,
            "durationTicks": 192,
            "midi": 36,
            "name": "C2",
            "ticks": 25344,
            "time": 27.887310000000003,
            "velocity": 0.3937007874015748
          },
          {
            "duration": 0.10563375000000264,
            "durationTicks": 96,
            "midi": 82,
            "name": "A#5",
            "ticks": 25440,
            "time": 27.992943750000002,
            "velocity": 0.3937007874015748
          },
          {
            "duration": 0.21126749999999817,
            "durationTicks": 192,
            "midi": 58,
            "name": "A#3",
            "ticks": 25536,
            "time": 28.098577500000005,
            "velocity": 0.3937007874015748
          },
          {
            "duration": 0.21126749999999817,
            "durationTicks": 192,
            "midi": 52,
            "name": "E3",
            "ticks": 25536,
            "time": 28.098577500000005,
            "velocity": 0.3937007874015748
          },
          {
            "duration": 0.10563374999999908,
            "durationTicks": 96,
            "midi": 80,
            "name": "G#5",
            "ticks": 25536,
            "time": 28.098577500000005,
            "velocity": 0.3937007874015748
          },
          {
            "duration": 0.10563374999999908,
            "durationTicks": 96,
            "midi": 79,
            "name": "G5",
            "ticks": 25632,
            "time": 28.204211250000004,
            "velocity": 0.3937007874015748
          },
          {
            "duration": 0.21126750000000172,
            "durationTicks": 192,
            "midi": 41,
            "name": "F2",
            "ticks": 25728,
            "time": 28.309845000000003,
            "velocity": 0.3937007874015748
          },
          {
            "duration": 0.21126750000000172,
            "durationTicks": 192,
            "midi": 77,
            "name": "F5",
            "ticks": 25728,
            "time": 28.309845000000003,
            "velocity": 0.3937007874015748
          },
          {
            "duration": 0.21126750000000172,
            "durationTicks": 192,
            "midi": 72,
            "name": "C5",
            "ticks": 25728,
            "time": 28.309845000000003,
            "velocity": 0.3937007874015748
          },
          {
            "duration": 0.21126750000000172,
            "durationTicks": 192,
            "midi": 53,
            "name": "F3",
            "ticks": 25728,
            "time": 28.309845000000003,
            "velocity": 0.3937007874015748
          },
          {
            "duration": 0.21126750000000172,
            "durationTicks": 192,
            "midi": 48,
            "name": "C3",
            "ticks": 26496,
            "time": 29.154915000000003,
            "velocity": 0.3937007874015748
          },
          {
            "duration": 0.21126750000000172,
            "durationTicks": 192,
            "midi": 36,
            "name": "C2",
            "ticks": 26496,
            "time": 29.154915000000003,
            "velocity": 0.3937007874015748
          },
          {
            "duration": 0.10563374999999908,
            "durationTicks": 96,
            "midi": 77,
            "name": "F5",
            "ticks": 26496,
            "time": 29.154915000000003,
            "velocity": 0.3937007874015748
          },
          {
            "duration": 0.10563374999999908,
            "durationTicks": 96,
            "midi": 79,
            "name": "G5",
            "ticks": 26544,
            "time": 29.207731875000004,
            "velocity": 0.3937007874015748
          },
          {
            "duration": 0.10563374999999908,
            "durationTicks": 96,
            "midi": 76,
            "name": "E5",
            "ticks": 26544,
            "time": 29.207731875000004,
            "velocity": 0.3937007874015748
          },
          {
            "duration": 0.21126749999999817,
            "durationTicks": 192,
            "midi": 58,
            "name": "A#3",
            "ticks": 26688,
            "time": 29.366182500000004,
            "velocity": 0.3937007874015748
          },
          {
            "duration": 0.21126749999999817,
            "durationTicks": 192,
            "midi": 60,
            "name": "C4",
            "ticks": 26688,
            "time": 29.366182500000004,
            "velocity": 0.3937007874015748
          },
          {
            "duration": 0.21126749999999817,
            "durationTicks": 192,
            "midi": 55,
            "name": "G3",
            "ticks": 26688,
            "time": 29.366182500000004,
            "velocity": 0.3937007874015748
          },
          {
            "duration": 0.10563374999999908,
            "durationTicks": 96,
            "midi": 76,
            "name": "E5",
            "ticks": 26688,
            "time": 29.366182500000004,
            "velocity": 0.3937007874015748
          },
          {
            "duration": 0.10563374999999908,
            "durationTicks": 96,
            "midi": 80,
            "name": "G#5",
            "ticks": 26688,
            "time": 29.366182500000004,
            "velocity": 0.3937007874015748
          },
          {
            "duration": 0.21126750000000172,
            "durationTicks": 192,
            "midi": 48,
            "name": "C3",
            "ticks": 26880,
            "time": 29.577450000000002,
            "velocity": 0.3937007874015748
          },
          {
            "duration": 0.21126750000000172,
            "durationTicks": 192,
            "midi": 36,
            "name": "C2",
            "ticks": 26880,
            "time": 29.577450000000002,
            "velocity": 0.3937007874015748
          },
          {
            "duration": 0.10563375000000264,
            "durationTicks": 96,
            "midi": 73,
            "name": "C#5",
            "ticks": 26880,
            "time": 29.577450000000002,
            "velocity": 0.3937007874015748
          },
          {
            "duration": 0.10563375000000264,
            "durationTicks": 96,
            "midi": 82,
            "name": "A#5",
            "ticks": 26880,
            "time": 29.577450000000002,
            "velocity": 0.3937007874015748
          },
          {
            "duration": 0.10563374999999908,
            "durationTicks": 96,
            "midi": 72,
            "name": "C5",
            "ticks": 27072,
            "time": 29.788717500000004,
            "velocity": 0.3937007874015748
          },
          {
            "duration": 0.10563374999999908,
            "durationTicks": 96,
            "midi": 84,
            "name": "C6",
            "ticks": 27072,
            "time": 29.788717500000004,
            "velocity": 0.3937007874015748
          },
          {
            "duration": 0.21126749999999817,
            "durationTicks": 192,
            "midi": 55,
            "name": "G3",
            "ticks": 27072,
            "time": 29.788717500000004,
            "velocity": 0.3937007874015748
          },
          {
            "duration": 0.21126749999999817,
            "durationTicks": 192,
            "midi": 58,
            "name": "A#3",
            "ticks": 27072,
            "time": 29.788717500000004,
            "velocity": 0.3937007874015748
          },
          {
            "duration": 0.21126749999999817,
            "durationTicks": 192,
            "midi": 60,
            "name": "C4",
            "ticks": 27072,
            "time": 29.788717500000004,
            "velocity": 0.3937007874015748
          },
          {
            "duration": 0.10563375000000264,
            "durationTicks": 96,
            "midi": 85,
            "name": "C#6",
            "ticks": 27264,
            "time": 29.999985000000002,
            "velocity": 0.3937007874015748
          },
          {
            "duration": 0.10563375000000264,
            "durationTicks": 96,
            "midi": 73,
            "name": "C#5",
            "ticks": 27264,
            "time": 29.999985000000002,
            "velocity": 0.3937007874015748
          },
          {
            "duration": 0.21126750000000172,
            "durationTicks": 192,
            "midi": 43,
            "name": "G2",
            "ticks": 27264,
            "time": 29.999985000000002,
            "velocity": 0.3937007874015748
          },
          {
            "duration": 0.21126750000000172,
            "durationTicks": 192,
            "midi": 55,
            "name": "G3",
            "ticks": 27264,
            "time": 29.999985000000002,
            "velocity": 0.3937007874015748
          },
          {
            "duration": 0.10563374999999908,
            "durationTicks": 96,
            "midi": 82,
            "name": "A#5",
            "ticks": 27456,
            "time": 30.211252500000004,
            "velocity": 0.3937007874015748
          },
          {
            "duration": 0.21126749999999817,
            "durationTicks": 192,
            "midi": 58,
            "name": "A#3",
            "ticks": 27456,
            "time": 30.211252500000004,
            "velocity": 0.3937007874015748
          },
          {
            "duration": 0.10563374999999908,
            "durationTicks": 96,
            "midi": 70,
            "name": "A#4",
            "ticks": 27456,
            "time": 30.211252500000004,
            "velocity": 0.3937007874015748
          },
          {
            "duration": 0.21126749999999817,
            "durationTicks": 192,
            "midi": 60,
            "name": "C4",
            "ticks": 27456,
            "time": 30.211252500000004,
            "velocity": 0.3937007874015748
          },
          {
            "duration": 0.21126749999999817,
            "durationTicks": 192,
            "midi": 52,
            "name": "E3",
            "ticks": 27456,
            "time": 30.211252500000004,
            "velocity": 0.3937007874015748
          },
          {
            "duration": 0.4225349999999999,
            "durationTicks": 384,
            "midi": 84,
            "name": "C6",
            "ticks": 27648,
            "time": 30.422520000000002,
            "velocity": 0.3937007874015748
          },
          {
            "duration": 0.21126750000000172,
            "durationTicks": 192,
            "midi": 43,
            "name": "G2",
            "ticks": 27648,
            "time": 30.422520000000002,
            "velocity": 0.3937007874015748
          },
          {
            "duration": 0.4225349999999999,
            "durationTicks": 384,
            "midi": 72,
            "name": "C5",
            "ticks": 27648,
            "time": 30.422520000000002,
            "velocity": 0.3937007874015748
          },
          {
            "duration": 0.21126750000000172,
            "durationTicks": 192,
            "midi": 31,
            "name": "G1",
            "ticks": 27648,
            "time": 30.422520000000002,
            "velocity": 0.3937007874015748
          },
          {
            "duration": 0.21126749999999817,
            "durationTicks": 192,
            "midi": 58,
            "name": "A#3",
            "ticks": 27840,
            "time": 30.633787500000004,
            "velocity": 0.3937007874015748
          },
          {
            "duration": 0.21126749999999817,
            "durationTicks": 192,
            "midi": 52,
            "name": "E3",
            "ticks": 27840,
            "time": 30.633787500000004,
            "velocity": 0.3937007874015748
          },
          {
            "duration": 0.21126749999999817,
            "durationTicks": 192,
            "midi": 60,
            "name": "C4",
            "ticks": 27840,
            "time": 30.633787500000004,
            "velocity": 0.3937007874015748
          },
          {
            "duration": 0.10563375000000264,
            "durationTicks": 96,
            "midi": 84,
            "name": "C6",
            "ticks": 28032,
            "time": 30.845055000000002,
            "velocity": 0.3937007874015748
          },
          {
            "duration": 0.21126750000000172,
            "durationTicks": 192,
            "midi": 43,
            "name": "G2",
            "ticks": 28032,
            "time": 30.845055000000002,
            "velocity": 0.3937007874015748
          },
          {
            "duration": 0.21126750000000172,
            "durationTicks": 192,
            "midi": 76,
            "name": "E5",
            "ticks": 28032,
            "time": 30.845055000000002,
            "velocity": 0.3937007874015748
          },
          {
            "duration": 0.21126750000000172,
            "durationTicks": 192,
            "midi": 55,
            "name": "G3",
            "ticks": 28032,
            "time": 30.845055000000002,
            "velocity": 0.3937007874015748
          },
          {
            "duration": 0.10563374999999908,
            "durationTicks": 96,
            "midi": 85,
            "name": "C#6",
            "ticks": 28128,
            "time": 30.950688750000005,
            "velocity": 0.3937007874015748
          },
          {
            "duration": 0.21126749999999817,
            "durationTicks": 192,
            "midi": 52,
            "name": "E3",
            "ticks": 28224,
            "time": 31.056322500000004,
            "velocity": 0.3937007874015748
          },
          {
            "duration": 0.21126749999999817,
            "durationTicks": 192,
            "midi": 58,
            "name": "A#3",
            "ticks": 28224,
            "time": 31.056322500000004,
            "velocity": 0.3937007874015748
          },
          {
            "duration": 0.10563374999999908,
            "durationTicks": 96,
            "midi": 84,
            "name": "C6",
            "ticks": 28224,
            "time": 31.056322500000004,
            "velocity": 0.3937007874015748
          },
          {
            "duration": 0.21126749999999817,
            "durationTicks": 192,
            "midi": 60,
            "name": "C4",
            "ticks": 28224,
            "time": 31.056322500000004,
            "velocity": 0.3937007874015748
          },
          {
            "duration": 0.10563374999999908,
            "durationTicks": 96,
            "midi": 82,
            "name": "A#5",
            "ticks": 28320,
            "time": 31.161956250000003,
            "velocity": 0.3937007874015748
          },
          {
            "duration": 0.21126750000000172,
            "durationTicks": 192,
            "midi": 48,
            "name": "C3",
            "ticks": 28416,
            "time": 31.267590000000002,
            "velocity": 0.3937007874015748
          },
          {
            "duration": 0.10563375000000264,
            "durationTicks": 96,
            "midi": 79,
            "name": "G5",
            "ticks": 28416,
            "time": 31.267590000000002,
            "velocity": 0.3937007874015748
          },
          {
            "duration": 0.10563375000000264,
            "durationTicks": 96,
            "midi": 84,
            "name": "C6",
            "ticks": 28416,
            "time": 31.267590000000002,
            "velocity": 0.3937007874015748
          },
          {
            "duration": 0.21126750000000172,
            "durationTicks": 192,
            "midi": 36,
            "name": "C2",
            "ticks": 28416,
            "time": 31.267590000000002,
            "velocity": 0.3937007874015748
          },
          {
            "duration": 0.10563374999999908,
            "durationTicks": 96,
            "midi": 82,
            "name": "A#5",
            "ticks": 28512,
            "time": 31.373223750000005,
            "velocity": 0.3937007874015748
          },
          {
            "duration": 0.21126750000000172,
            "durationTicks": 192,
            "midi": 58,
            "name": "A#3",
            "ticks": 28608,
            "time": 31.478857500000004,
            "velocity": 0.3937007874015748
          },
          {
            "duration": 0.10563374999999908,
            "durationTicks": 96,
            "midi": 80,
            "name": "G#5",
            "ticks": 28608,
            "time": 31.478857500000004,
            "velocity": 0.3937007874015748
          },
          {
            "duration": 0.21126750000000172,
            "durationTicks": 192,
            "midi": 60,
            "name": "C4",
            "ticks": 28608,
            "time": 31.478857500000004,
            "velocity": 0.3937007874015748
          },
          {
            "duration": 0.21126750000000172,
            "durationTicks": 192,
            "midi": 52,
            "name": "E3",
            "ticks": 28608,
            "time": 31.478857500000004,
            "velocity": 0.3937007874015748
          },
          {
            "duration": 0.10563375000000264,
            "durationTicks": 96,
            "midi": 79,
            "name": "G5",
            "ticks": 28704,
            "time": 31.584491250000003,
            "velocity": 0.3937007874015748
          },
          {
            "duration": 0.21126749999999817,
            "durationTicks": 192,
            "midi": 53,
            "name": "F3",
            "ticks": 28800,
            "time": 31.690125000000005,
            "velocity": 0.3937007874015748
          },
          {
            "duration": 0.21126749999999817,
            "durationTicks": 192,
            "midi": 41,
            "name": "F2",
            "ticks": 28800,
            "time": 31.690125000000005,
            "velocity": 0.3937007874015748
          },
          {
            "duration": 0.21126749999999817,
            "durationTicks": 192,
            "midi": 72,
            "name": "C5",
            "ticks": 28800,
            "time": 31.690125000000005,
            "velocity": 0.3937007874015748
          },
          {
            "duration": 0.21126749999999817,
            "durationTicks": 192,
            "midi": 77,
            "name": "F5",
            "ticks": 28800,
            "time": 31.690125000000005,
            "velocity": 0.3937007874015748
          },
          {
            "duration": 0.21126750000000527,
            "durationTicks": 192,
            "midi": 76,
            "name": "E5",
            "ticks": 29568,
            "time": 32.535195,
            "velocity": 0.3937007874015748
          },
          {
            "duration": 0.21126750000000527,
            "durationTicks": 192,
            "midi": 36,
            "name": "C2",
            "ticks": 29568,
            "time": 32.535195,
            "velocity": 0.3937007874015748
          },
          {
            "duration": 0.21126750000000527,
            "durationTicks": 192,
            "midi": 48,
            "name": "C3",
            "ticks": 29568,
            "time": 32.535195,
            "velocity": 0.3937007874015748
          },
          {
            "duration": 0.21126750000000527,
            "durationTicks": 192,
            "midi": 72,
            "name": "C5",
            "ticks": 29568,
            "time": 32.535195,
            "velocity": 0.3937007874015748
          },
          {
            "duration": 0.21126750000000527,
            "durationTicks": 192,
            "midi": 84,
            "name": "C6",
            "ticks": 29568,
            "time": 32.535195,
            "velocity": 0.3937007874015748
          },
          {
            "duration": 0.21126749999999817,
            "durationTicks": 192,
            "midi": 36,
            "name": "C2",
            "ticks": 29760,
            "time": 32.74646250000001,
            "velocity": 0.3937007874015748
          },
          {
            "duration": 0.21126749999999817,
            "durationTicks": 192,
            "midi": 73,
            "name": "C#5",
            "ticks": 29760,
            "time": 32.74646250000001,
            "velocity": 0.3937007874015748
          },
          {
            "duration": 0.21126749999999817,
            "durationTicks": 192,
            "midi": 70,
            "name": "A#4",
            "ticks": 29760,
            "time": 32.74646250000001,
            "velocity": 0.3937007874015748
          },
          {
            "duration": 0.21126749999999817,
            "durationTicks": 192,
            "midi": 82,
            "name": "A#5",
            "ticks": 29760,
            "time": 32.74646250000001,
            "velocity": 0.3937007874015748
          },
          {
            "duration": 0.21126749999999817,
            "durationTicks": 192,
            "midi": 48,
            "name": "C3",
            "ticks": 29760,
            "time": 32.74646250000001,
            "velocity": 0.3937007874015748
          },
          {
            "duration": 0.21126749999999817,
            "durationTicks": 192,
            "midi": 38,
            "name": "D2",
            "ticks": 29952,
            "time": 32.957730000000005,
            "velocity": 0.3937007874015748
          },
          {
            "duration": 0.21126749999999817,
            "durationTicks": 192,
            "midi": 80,
            "name": "G#5",
            "ticks": 29952,
            "time": 32.957730000000005,
            "velocity": 0.3937007874015748
          },
          {
            "duration": 0.21126749999999817,
            "durationTicks": 192,
            "midi": 50,
            "name": "D3",
            "ticks": 29952,
            "time": 32.957730000000005,
            "velocity": 0.3937007874015748
          },
          {
            "duration": 0.21126749999999817,
            "durationTicks": 192,
            "midi": 68,
            "name": "G#4",
            "ticks": 29952,
            "time": 32.957730000000005,
            "velocity": 0.3937007874015748
          },
          {
            "duration": 0.21126749999999817,
            "durationTicks": 192,
            "midi": 72,
            "name": "C5",
            "ticks": 29952,
            "time": 32.957730000000005,
            "velocity": 0.3937007874015748
          },
          {
            "duration": 0.21126749999999817,
            "durationTicks": 192,
            "midi": 70,
            "name": "A#4",
            "ticks": 30144,
            "time": 33.1689975,
            "velocity": 0.3937007874015748
          },
          {
            "duration": 0.21126749999999817,
            "durationTicks": 192,
            "midi": 40,
            "name": "E2",
            "ticks": 30144,
            "time": 33.1689975,
            "velocity": 0.3937007874015748
          },
          {
            "duration": 0.21126749999999817,
            "durationTicks": 192,
            "midi": 67,
            "name": "G4",
            "ticks": 30144,
            "time": 33.1689975,
            "velocity": 0.3937007874015748
          },
          {
            "duration": 0.21126749999999817,
            "durationTicks": 192,
            "midi": 79,
            "name": "G5",
            "ticks": 30144,
            "time": 33.1689975,
            "velocity": 0.3937007874015748
          },
          {
            "duration": 0.21126749999999817,
            "durationTicks": 192,
            "midi": 52,
            "name": "E3",
            "ticks": 30144,
            "time": 33.1689975,
            "velocity": 0.3937007874015748
          },
          {
            "duration": 0.21126750000000527,
            "durationTicks": 192,
            "midi": 65,
            "name": "F4",
            "ticks": 30336,
            "time": 33.380265,
            "velocity": 0.3937007874015748
          },
          {
            "duration": 0.21126750000000527,
            "durationTicks": 192,
            "midi": 68,
            "name": "G#4",
            "ticks": 30336,
            "time": 33.380265,
            "velocity": 0.3937007874015748
          },
          {
            "duration": 0.21126750000000527,
            "durationTicks": 192,
            "midi": 53,
            "name": "F3",
            "ticks": 30336,
            "time": 33.380265,
            "velocity": 0.3937007874015748
          },
          {
            "duration": 0.21126750000000527,
            "durationTicks": 192,
            "midi": 41,
            "name": "F2",
            "ticks": 30336,
            "time": 33.380265,
            "velocity": 0.3937007874015748
          },
          {
            "duration": 0.21126750000000527,
            "durationTicks": 192,
            "midi": 77,
            "name": "F5",
            "ticks": 30336,
            "time": 33.380265,
            "velocity": 0.3937007874015748
          },
          {
            "duration": 0.21126749999999817,
            "durationTicks": 192,
            "midi": 72,
            "name": "C5",
            "ticks": 30720,
            "time": 33.802800000000005,
            "velocity": 0.3937007874015748
          },
          {
            "duration": 0.21126749999999817,
            "durationTicks": 192,
            "midi": 70,
            "name": "A#4",
            "ticks": 30720,
            "time": 33.802800000000005,
            "velocity": 0.3937007874015748
          },
          {
            "duration": 0.21126749999999817,
            "durationTicks": 192,
            "midi": 36,
            "name": "C2",
            "ticks": 30720,
            "time": 33.802800000000005,
            "velocity": 0.3937007874015748
          },
          {
            "duration": 0.21126749999999817,
            "durationTicks": 192,
            "midi": 48,
            "name": "C3",
            "ticks": 30720,
            "time": 33.802800000000005,
            "velocity": 0.3937007874015748
          },
          {
            "duration": 0.21126749999999817,
            "durationTicks": 192,
            "midi": 64,
            "name": "E4",
            "ticks": 30720,
            "time": 33.802800000000005,
            "velocity": 0.3937007874015748
          },
          {
            "duration": 0.052816874999997765,
            "durationTicks": 48,
            "midi": 75,
            "name": "D#5",
            "ticks": 31008,
            "time": 34.119701250000006,
            "velocity": 0.3937007874015748
          },
          {
            "duration": 0.052816874999997765,
            "durationTicks": 48,
            "midi": 76,
            "name": "E5",
            "ticks": 31056,
            "time": 34.172518125,
            "velocity": 0.3937007874015748
          },
          {
            "duration": 0.21126750000000527,
            "durationTicks": 192,
            "midi": 72,
            "name": "C5",
            "ticks": 31104,
            "time": 34.225335,
            "velocity": 0.3937007874015748
          },
          {
            "duration": 0.21126750000000527,
            "durationTicks": 192,
            "midi": 77,
            "name": "F5",
            "ticks": 31104,
            "time": 34.225335,
            "velocity": 0.3937007874015748
          },
          {
            "duration": 0.21126750000000527,
            "durationTicks": 192,
            "midi": 41,
            "name": "F2",
            "ticks": 31104,
            "time": 34.225335,
            "velocity": 0.3937007874015748
          },
          {
            "duration": 0.21126750000000527,
            "durationTicks": 192,
            "midi": 65,
            "name": "F4",
            "ticks": 31104,
            "time": 34.225335,
            "velocity": 0.3937007874015748
          },
          {
            "duration": 0.21126750000000527,
            "durationTicks": 192,
            "midi": 53,
            "name": "F3",
            "ticks": 31104,
            "time": 34.225335,
            "velocity": 0.3937007874015748
          },
          {
            "duration": 0.21126749999999817,
            "durationTicks": 192,
            "midi": 65,
            "name": "F4",
            "ticks": 31296,
            "time": 34.436602500000006,
            "velocity": 0.3937007874015748
          },
          {
            "duration": 0.21126749999999817,
            "durationTicks": 192,
            "midi": 72,
            "name": "C5",
            "ticks": 31296,
            "time": 34.436602500000006,
            "velocity": 0.3937007874015748
          },
          {
            "duration": 0.21126749999999817,
            "durationTicks": 192,
            "midi": 53,
            "name": "F3",
            "ticks": 31296,
            "time": 34.436602500000006,
            "velocity": 0.3937007874015748
          },
          {
            "duration": 0.21126749999999817,
            "durationTicks": 192,
            "midi": 56,
            "name": "G#3",
            "ticks": 31296,
            "time": 34.436602500000006,
            "velocity": 0.3937007874015748
          },
          {
            "duration": 0.21126749999999817,
            "durationTicks": 192,
            "midi": 48,
            "name": "C3",
            "ticks": 31296,
            "time": 34.436602500000006,
            "velocity": 0.3937007874015748
          },
          {
            "duration": 0.21126749999999817,
            "durationTicks": 192,
            "midi": 77,
            "name": "F5",
            "ticks": 31296,
            "time": 34.436602500000006,
            "velocity": 0.3937007874015748
          },
          {
            "duration": 0.21126749999999817,
            "durationTicks": 192,
            "midi": 36,
            "name": "C2",
            "ticks": 31488,
            "time": 34.647870000000005,
            "velocity": 0.3937007874015748
          },
          {
            "duration": 0.10563375000000264,
            "durationTicks": 96,
            "midi": 72,
            "name": "C5",
            "ticks": 31488,
            "time": 34.647870000000005,
            "velocity": 0.3937007874015748
          },
          {
            "duration": 0.21126749999999817,
            "durationTicks": 192,
            "midi": 48,
            "name": "C3",
            "ticks": 31488,
            "time": 34.647870000000005,
            "velocity": 0.3937007874015748
          },
          {
            "duration": 0.10563374999999553,
            "durationTicks": 96,
            "midi": 74,
            "name": "D5",
            "ticks": 31584,
            "time": 34.75350375000001,
            "velocity": 0.3937007874015748
          },
          {
            "duration": 0.21126749999999817,
            "durationTicks": 192,
            "midi": 48,
            "name": "C3",
            "ticks": 31680,
            "time": 34.8591375,
            "velocity": 0.3937007874015748
          },
          {
            "duration": 0.21126749999999817,
            "durationTicks": 192,
            "midi": 53,
            "name": "F3",
            "ticks": 31680,
            "time": 34.8591375,
            "velocity": 0.3937007874015748
          },
          {
            "duration": 0.10563375000000264,
            "durationTicks": 96,
            "midi": 75,
            "name": "D#5",
            "ticks": 31680,
            "time": 34.8591375,
            "velocity": 0.3937007874015748
          },
          {
            "duration": 0.21126749999999817,
            "durationTicks": 192,
            "midi": 56,
            "name": "G#3",
            "ticks": 31680,
            "time": 34.8591375,
            "velocity": 0.3937007874015748
          },
          {
            "duration": 0.10563374999999553,
            "durationTicks": 96,
            "midi": 76,
            "name": "E5",
            "ticks": 31776,
            "time": 34.964771250000005,
            "velocity": 0.3937007874015748
          },
          {
            "duration": 0.21126750000000527,
            "durationTicks": 192,
            "midi": 41,
            "name": "F2",
            "ticks": 31872,
            "time": 35.070405,
            "velocity": 0.3937007874015748
          },
          {
            "duration": 0.21126750000000527,
            "durationTicks": 192,
            "midi": 65,
            "name": "F4",
            "ticks": 31872,
            "time": 35.070405,
            "velocity": 0.3937007874015748
          },
          {
            "duration": 0.21126750000000527,
            "durationTicks": 192,
            "midi": 53,
            "name": "F3",
            "ticks": 31872,
            "time": 35.070405,
            "velocity": 0.3937007874015748
          },
          {
            "duration": 0.21126750000000527,
            "durationTicks": 192,
            "midi": 77,
            "name": "F5",
            "ticks": 31872,
            "time": 35.070405,
            "velocity": 0.3937007874015748
          },
          {
            "duration": 0.21126750000000527,
            "durationTicks": 192,
            "midi": 72,
            "name": "C5",
            "ticks": 31872,
            "time": 35.070405,
            "velocity": 0.3937007874015748
          },
          {
            "duration": 0.21126749999999817,
            "durationTicks": 192,
            "midi": 48,
            "name": "C3",
            "ticks": 32064,
            "time": 35.281672500000006,
            "velocity": 0.3937007874015748
          },
          {
            "duration": 0.21126749999999817,
            "durationTicks": 192,
            "midi": 56,
            "name": "G#3",
            "ticks": 32064,
            "time": 35.281672500000006,
            "velocity": 0.3937007874015748
          },
          {
            "duration": 0.21126749999999817,
            "durationTicks": 192,
            "midi": 77,
            "name": "F5",
            "ticks": 32064,
            "time": 35.281672500000006,
            "velocity": 0.3937007874015748
          },
          {
            "duration": 0.21126749999999817,
            "durationTicks": 192,
            "midi": 72,
            "name": "C5",
            "ticks": 32064,
            "time": 35.281672500000006,
            "velocity": 0.3937007874015748
          },
          {
            "duration": 0.21126749999999817,
            "durationTicks": 192,
            "midi": 65,
            "name": "F4",
            "ticks": 32064,
            "time": 35.281672500000006,
            "velocity": 0.3937007874015748
          },
          {
            "duration": 0.21126749999999817,
            "durationTicks": 192,
            "midi": 53,
            "name": "F3",
            "ticks": 32064,
            "time": 35.281672500000006,
            "velocity": 0.3937007874015748
          },
          {
            "duration": 0.21126749999999817,
            "durationTicks": 192,
            "midi": 48,
            "name": "C3",
            "ticks": 32256,
            "time": 35.492940000000004,
            "velocity": 0.3937007874015748
          },
          {
            "duration": 0.21126749999999817,
            "durationTicks": 192,
            "midi": 80,
            "name": "G#5",
            "ticks": 32256,
            "time": 35.492940000000004,
            "velocity": 0.3937007874015748
          },
          {
            "duration": 0.21126749999999817,
            "durationTicks": 192,
            "midi": 72,
            "name": "C5",
            "ticks": 32256,
            "time": 35.492940000000004,
            "velocity": 0.3937007874015748
          },
          {
            "duration": 0.21126749999999817,
            "durationTicks": 192,
            "midi": 77,
            "name": "F5",
            "ticks": 32256,
            "time": 35.492940000000004,
            "velocity": 0.3937007874015748
          },
          {
            "duration": 0.21126749999999817,
            "durationTicks": 192,
            "midi": 36,
            "name": "C2",
            "ticks": 32256,
            "time": 35.492940000000004,
            "velocity": 0.3937007874015748
          },
          {
            "duration": 0.21126749999999817,
            "durationTicks": 192,
            "midi": 48,
            "name": "C3",
            "ticks": 32448,
            "time": 35.7042075,
            "velocity": 0.3937007874015748
          },
          {
            "duration": 0.21126749999999817,
            "durationTicks": 192,
            "midi": 53,
            "name": "F3",
            "ticks": 32448,
            "time": 35.7042075,
            "velocity": 0.3937007874015748
          },
          {
            "duration": 0.21126749999999817,
            "durationTicks": 192,
            "midi": 56,
            "name": "G#3",
            "ticks": 32448,
            "time": 35.7042075,
            "velocity": 0.3937007874015748
          },
          {
            "duration": 0.10563375000000264,
            "durationTicks": 96,
            "midi": 79,
            "name": "G5",
            "ticks": 32448,
            "time": 35.7042075,
            "velocity": 0.3937007874015748
          },
          {
            "duration": 0.10563374999999553,
            "durationTicks": 96,
            "midi": 77,
            "name": "F5",
            "ticks": 32544,
            "time": 35.809841250000005,
            "velocity": 0.3937007874015748
          },
          {
            "duration": 0.21126750000000527,
            "durationTicks": 192,
            "midi": 76,
            "name": "E5",
            "ticks": 32640,
            "time": 35.915475,
            "velocity": 0.3937007874015748
          },
          {
            "duration": 0.21126750000000527,
            "durationTicks": 192,
            "midi": 55,
            "name": "G3",
            "ticks": 32640,
            "time": 35.915475,
            "velocity": 0.3937007874015748
          },
          {
            "duration": 0.21126750000000527,
            "durationTicks": 192,
            "midi": 43,
            "name": "G2",
            "ticks": 32640,
            "time": 35.915475,
            "velocity": 0.3937007874015748
          },
          {
            "duration": 0.21126750000000527,
            "durationTicks": 192,
            "midi": 79,
            "name": "G5",
            "ticks": 32640,
            "time": 35.915475,
            "velocity": 0.3937007874015748
          },
          {
            "duration": 0.21126750000000527,
            "durationTicks": 192,
            "midi": 72,
            "name": "C5",
            "ticks": 32640,
            "time": 35.915475,
            "velocity": 0.3937007874015748
          },
          {
            "duration": 0.21126749999999817,
            "durationTicks": 192,
            "midi": 79,
            "name": "G5",
            "ticks": 32832,
            "time": 36.126742500000006,
            "velocity": 0.3937007874015748
          },
          {
            "duration": 0.21126749999999817,
            "durationTicks": 192,
            "midi": 60,
            "name": "C4",
            "ticks": 32832,
            "time": 36.126742500000006,
            "velocity": 0.3937007874015748
          },
          {
            "duration": 0.21126749999999817,
            "durationTicks": 192,
            "midi": 58,
            "name": "A#3",
            "ticks": 32832,
            "time": 36.126742500000006,
            "velocity": 0.3937007874015748
          },
          {
            "duration": 0.21126749999999817,
            "durationTicks": 192,
            "midi": 55,
            "name": "G3",
            "ticks": 32832,
            "time": 36.126742500000006,
            "velocity": 0.3937007874015748
          },
          {
            "duration": 0.21126749999999817,
            "durationTicks": 192,
            "midi": 72,
            "name": "C5",
            "ticks": 32832,
            "time": 36.126742500000006,
            "velocity": 0.3937007874015748
          },
          {
            "duration": 0.21126749999999817,
            "durationTicks": 192,
            "midi": 76,
            "name": "E5",
            "ticks": 32832,
            "time": 36.126742500000006,
            "velocity": 0.3937007874015748
          },
          {
            "duration": 0.21126749999999817,
            "durationTicks": 192,
            "midi": 36,
            "name": "C2",
            "ticks": 33024,
            "time": 36.338010000000004,
            "velocity": 0.3937007874015748
          },
          {
            "duration": 0.052816874999997765,
            "durationTicks": 48,
            "midi": 80,
            "name": "G#5",
            "ticks": 33024,
            "time": 36.338010000000004,
            "velocity": 0.3937007874015748
          },
          {
            "duration": 0.21126749999999817,
            "durationTicks": 192,
            "midi": 48,
            "name": "C3",
            "ticks": 33024,
            "time": 36.338010000000004,
            "velocity": 0.3937007874015748
          },
          {
            "duration": 0.052816874999997765,
            "durationTicks": 48,
            "midi": 81,
            "name": "A5",
            "ticks": 33096,
            "time": 36.417235312500004,
            "velocity": 0.3937007874015748
          },
          {
            "duration": 0.052816874999997765,
            "durationTicks": 48,
            "midi": 80,
            "name": "G#5",
            "ticks": 33168,
            "time": 36.496460625000005,
            "velocity": 0.3937007874015748
          },
          {
            "duration": 0.21126750000000527,
            "durationTicks": 192,
            "midi": 77,
            "name": "F5",
            "ticks": 33216,
            "time": 36.5492775,
            "velocity": 0.3937007874015748
          },
          {
            "duration": 0.21126750000000527,
            "durationTicks": 192,
            "midi": 55,
            "name": "G3",
            "ticks": 33216,
            "time": 36.5492775,
            "velocity": 0.3937007874015748
          },
          {
            "duration": 0.21126750000000527,
            "durationTicks": 192,
            "midi": 60,
            "name": "C4",
            "ticks": 33216,
            "time": 36.5492775,
            "velocity": 0.3937007874015748
          },
          {
            "duration": 0.21126750000000527,
            "durationTicks": 192,
            "midi": 58,
            "name": "A#3",
            "ticks": 33216,
            "time": 36.5492775,
            "velocity": 0.3937007874015748
          },
          {
            "duration": 0.42253499999999633,
            "durationTicks": 384,
            "midi": 76,
            "name": "E5",
            "ticks": 33408,
            "time": 36.76054500000001,
            "velocity": 0.3937007874015748
          },
          {
            "duration": 0.42253499999999633,
            "durationTicks": 384,
            "midi": 67,
            "name": "G4",
            "ticks": 33408,
            "time": 36.76054500000001,
            "velocity": 0.3937007874015748
          },
          {
            "duration": 0.21126749999999817,
            "durationTicks": 192,
            "midi": 43,
            "name": "G2",
            "ticks": 33408,
            "time": 36.76054500000001,
            "velocity": 0.3937007874015748
          },
          {
            "duration": 0.42253499999999633,
            "durationTicks": 384,
            "midi": 79,
            "name": "G5",
            "ticks": 33408,
            "time": 36.76054500000001,
            "velocity": 0.3937007874015748
          },
          {
            "duration": 0.42253499999999633,
            "durationTicks": 384,
            "midi": 72,
            "name": "C5",
            "ticks": 33408,
            "time": 36.76054500000001,
            "velocity": 0.3937007874015748
          },
          {
            "duration": 0.21126749999999817,
            "durationTicks": 192,
            "midi": 55,
            "name": "G3",
            "ticks": 33408,
            "time": 36.76054500000001,
            "velocity": 0.3937007874015748
          },
          {
            "duration": 0.21126749999999817,
            "durationTicks": 192,
            "midi": 58,
            "name": "A#3",
            "ticks": 33600,
            "time": 36.971812500000006,
            "velocity": 0.3937007874015748
          },
          {
            "duration": 0.21126749999999817,
            "durationTicks": 192,
            "midi": 60,
            "name": "C4",
            "ticks": 33600,
            "time": 36.971812500000006,
            "velocity": 0.3937007874015748
          },
          {
            "duration": 0.21126749999999817,
            "durationTicks": 192,
            "midi": 55,
            "name": "G3",
            "ticks": 33600,
            "time": 36.971812500000006,
            "velocity": 0.3937007874015748
          },
          {
            "duration": 0.21126749999999817,
            "durationTicks": 192,
            "midi": 52,
            "name": "E3",
            "ticks": 33792,
            "time": 37.183080000000004,
            "velocity": 0.3937007874015748
          },
          {
            "duration": 0.21126749999999817,
            "durationTicks": 192,
            "midi": 40,
            "name": "E2",
            "ticks": 33792,
            "time": 37.183080000000004,
            "velocity": 0.3937007874015748
          },
          {
            "duration": 0.21126750000000527,
            "durationTicks": 192,
            "midi": 58,
            "name": "A#3",
            "ticks": 33984,
            "time": 37.3943475,
            "velocity": 0.3937007874015748
          },
          {
            "duration": 0.21126750000000527,
            "durationTicks": 192,
            "midi": 60,
            "name": "C4",
            "ticks": 33984,
            "time": 37.3943475,
            "velocity": 0.3937007874015748
          },
          {
            "duration": 0.21126750000000527,
            "durationTicks": 192,
            "midi": 55,
            "name": "G3",
            "ticks": 33984,
            "time": 37.3943475,
            "velocity": 0.3937007874015748
          },
          {
            "duration": 0.21126749999999817,
            "durationTicks": 192,
            "midi": 76,
            "name": "E5",
            "ticks": 34176,
            "time": 37.60561500000001,
            "velocity": 0.3937007874015748
          },
          {
            "duration": 0.21126749999999817,
            "durationTicks": 192,
            "midi": 79,
            "name": "G5",
            "ticks": 34176,
            "time": 37.60561500000001,
            "velocity": 0.3937007874015748
          },
          {
            "duration": 0.21126749999999817,
            "durationTicks": 192,
            "midi": 55,
            "name": "G3",
            "ticks": 34176,
            "time": 37.60561500000001,
            "velocity": 0.3937007874015748
          },
          {
            "duration": 0.21126749999999817,
            "durationTicks": 192,
            "midi": 43,
            "name": "G2",
            "ticks": 34176,
            "time": 37.60561500000001,
            "velocity": 0.3937007874015748
          },
          {
            "duration": 0.21126749999999817,
            "durationTicks": 192,
            "midi": 82,
            "name": "A#5",
            "ticks": 34176,
            "time": 37.60561500000001,
            "velocity": 0.3937007874015748
          },
          {
            "duration": 0.21126749999999817,
            "durationTicks": 192,
            "midi": 76,
            "name": "E5",
            "ticks": 34368,
            "time": 37.816882500000006,
            "velocity": 0.3937007874015748
          },
          {
            "duration": 0.21126749999999817,
            "durationTicks": 192,
            "midi": 82,
            "name": "A#5",
            "ticks": 34368,
            "time": 37.816882500000006,
            "velocity": 0.3937007874015748
          },
          {
            "duration": 0.21126749999999817,
            "durationTicks": 192,
            "midi": 60,
            "name": "C4",
            "ticks": 34368,
            "time": 37.816882500000006,
            "velocity": 0.3937007874015748
          },
          {
            "duration": 0.21126749999999817,
            "durationTicks": 192,
            "midi": 55,
            "name": "G3",
            "ticks": 34368,
            "time": 37.816882500000006,
            "velocity": 0.3937007874015748
          },
          {
            "duration": 0.21126749999999817,
            "durationTicks": 192,
            "midi": 79,
            "name": "G5",
            "ticks": 34368,
            "time": 37.816882500000006,
            "velocity": 0.3937007874015748
          },
          {
            "duration": 0.21126749999999817,
            "durationTicks": 192,
            "midi": 58,
            "name": "A#3",
            "ticks": 34368,
            "time": 37.816882500000006,
            "velocity": 0.3937007874015748
          },
          {
            "duration": 0.21126749999999817,
            "durationTicks": 192,
            "midi": 48,
            "name": "C3",
            "ticks": 34560,
            "time": 38.028150000000004,
            "velocity": 0.3937007874015748
          },
          {
            "duration": 0.052816874999997765,
            "durationTicks": 48,
            "midi": 85,
            "name": "C#6",
            "ticks": 34560,
            "time": 38.028150000000004,
            "velocity": 0.3937007874015748
          },
          {
            "duration": 0.21126749999999817,
            "durationTicks": 192,
            "midi": 36,
            "name": "C2",
            "ticks": 34560,
            "time": 38.028150000000004,
            "velocity": 0.3937007874015748
          },
          {
            "duration": 0.052816874999997765,
            "durationTicks": 48,
            "midi": 87,
            "name": "D#6",
            "ticks": 34632,
            "time": 38.107375312500004,
            "velocity": 0.3937007874015748
          },
          {
            "duration": 0.052816874999997765,
            "durationTicks": 48,
            "midi": 85,
            "name": "C#6",
            "ticks": 34704,
            "time": 38.186600625000004,
            "velocity": 0.3937007874015748
          },
          {
            "duration": 0.21126750000000527,
            "durationTicks": 192,
            "midi": 60,
            "name": "C4",
            "ticks": 34752,
            "time": 38.2394175,
            "velocity": 0.3937007874015748
          },
          {
            "duration": 0.21126750000000527,
            "durationTicks": 192,
            "midi": 58,
            "name": "A#3",
            "ticks": 34752,
            "time": 38.2394175,
            "velocity": 0.3937007874015748
          },
          {
            "duration": 0.21126750000000527,
            "durationTicks": 192,
            "midi": 55,
            "name": "G3",
            "ticks": 34752,
            "time": 38.2394175,
            "velocity": 0.3937007874015748
          },
          {
            "duration": 0.052816874999997765,
            "durationTicks": 48,
            "midi": 84,
            "name": "C6",
            "ticks": 34776,
            "time": 38.265825937500004,
            "velocity": 0.3937007874015748
          },
          {
            "duration": 0.10563375000000264,
            "durationTicks": 96,
            "midi": 82,
            "name": "A#5",
            "ticks": 34848,
            "time": 38.345051250000004,
            "velocity": 0.3937007874015748
          },
          {
            "duration": 0.21126749999999817,
            "durationTicks": 192,
            "midi": 79,
            "name": "G5",
            "ticks": 34944,
            "time": 38.45068500000001,
            "velocity": 0.3937007874015748
          },
          {
            "duration": 0.21126749999999817,
            "durationTicks": 192,
            "midi": 84,
            "name": "C6",
            "ticks": 34944,
            "time": 38.45068500000001,
            "velocity": 0.3937007874015748
          },
          {
            "duration": 0.21126749999999817,
            "durationTicks": 192,
            "midi": 76,
            "name": "E5",
            "ticks": 34944,
            "time": 38.45068500000001,
            "velocity": 0.3937007874015748
          },
          {
            "duration": 0.21126749999999817,
            "durationTicks": 192,
            "midi": 55,
            "name": "G3",
            "ticks": 34944,
            "time": 38.45068500000001,
            "velocity": 0.3937007874015748
          },
          {
            "duration": 0.21126749999999817,
            "durationTicks": 192,
            "midi": 43,
            "name": "G2",
            "ticks": 34944,
            "time": 38.45068500000001,
            "velocity": 0.3937007874015748
          },
          {
            "duration": 0.21126749999999817,
            "durationTicks": 192,
            "midi": 79,
            "name": "G5",
            "ticks": 35136,
            "time": 38.661952500000005,
            "velocity": 0.3937007874015748
          },
          {
            "duration": 0.21126749999999817,
            "durationTicks": 192,
            "midi": 58,
            "name": "A#3",
            "ticks": 35136,
            "time": 38.661952500000005,
            "velocity": 0.3937007874015748
          },
          {
            "duration": 0.21126749999999817,
            "durationTicks": 192,
            "midi": 55,
            "name": "G3",
            "ticks": 35136,
            "time": 38.661952500000005,
            "velocity": 0.3937007874015748
          },
          {
            "duration": 0.21126749999999817,
            "durationTicks": 192,
            "midi": 76,
            "name": "E5",
            "ticks": 35136,
            "time": 38.661952500000005,
            "velocity": 0.3937007874015748
          },
          {
            "duration": 0.21126749999999817,
            "durationTicks": 192,
            "midi": 84,
            "name": "C6",
            "ticks": 35136,
            "time": 38.661952500000005,
            "velocity": 0.3937007874015748
          },
          {
            "duration": 0.21126749999999817,
            "durationTicks": 192,
            "midi": 60,
            "name": "C4",
            "ticks": 35136,
            "time": 38.661952500000005,
            "velocity": 0.3937007874015748
          },
          {
            "duration": 0.21126749999999817,
            "durationTicks": 192,
            "midi": 36,
            "name": "C2",
            "ticks": 35328,
            "time": 38.87322,
            "velocity": 0.3937007874015748
          },
          {
            "duration": 0.052816874999997765,
            "durationTicks": 48,
            "midi": 85,
            "name": "C#6",
            "ticks": 35328,
            "time": 38.87322,
            "velocity": 0.3937007874015748
          },
          {
            "duration": 0.21126749999999817,
            "durationTicks": 192,
            "midi": 48,
            "name": "C3",
            "ticks": 35328,
            "time": 38.87322,
            "velocity": 0.3937007874015748
          },
          {
            "duration": 0.052816874999997765,
            "durationTicks": 48,
            "midi": 87,
            "name": "D#6",
            "ticks": 35400,
            "time": 38.952445312500004,
            "velocity": 0.3937007874015748
          },
          {
            "duration": 0.052816874999997765,
            "durationTicks": 48,
            "midi": 85,
            "name": "C#6",
            "ticks": 35472,
            "time": 39.031670625000004,
            "velocity": 0.3937007874015748
          },
          {
            "duration": 0.21126750000000527,
            "durationTicks": 192,
            "midi": 55,
            "name": "G3",
            "ticks": 35520,
            "time": 39.0844875,
            "velocity": 0.3937007874015748
          },
          {
            "duration": 0.21126750000000527,
            "durationTicks": 192,
            "midi": 60,
            "name": "C4",
            "ticks": 35520,
            "time": 39.0844875,
            "velocity": 0.3937007874015748
          },
          {
            "duration": 0.21126750000000527,
            "durationTicks": 192,
            "midi": 58,
            "name": "A#3",
            "ticks": 35520,
            "time": 39.0844875,
            "velocity": 0.3937007874015748
          },
          {
            "duration": 0.052816874999997765,
            "durationTicks": 48,
            "midi": 84,
            "name": "C6",
            "ticks": 35544,
            "time": 39.110895937500004,
            "velocity": 0.3937007874015748
          },
          {
            "duration": 0.10563375000000264,
            "durationTicks": 96,
            "midi": 82,
            "name": "A#5",
            "ticks": 35616,
            "time": 39.190121250000004,
            "velocity": 0.3937007874015748
          },
          {
            "duration": 0.21126749999999817,
            "durationTicks": 192,
            "midi": 52,
            "name": "E3",
            "ticks": 35712,
            "time": 39.29575500000001,
            "velocity": 0.3937007874015748
          },
          {
            "duration": 0.21126749999999817,
            "durationTicks": 192,
            "midi": 40,
            "name": "E2",
            "ticks": 35712,
            "time": 39.29575500000001,
            "velocity": 0.3937007874015748
          },
          {
            "duration": 0.21126749999999817,
            "durationTicks": 192,
            "midi": 80,
            "name": "G#5",
            "ticks": 35712,
            "time": 39.29575500000001,
            "velocity": 0.3937007874015748
          },
          {
            "duration": 0.21126749999999817,
            "durationTicks": 192,
            "midi": 72,
            "name": "C5",
            "ticks": 35712,
            "time": 39.29575500000001,
            "velocity": 0.3937007874015748
          },
          {
            "duration": 0.21126749999999817,
            "durationTicks": 192,
            "midi": 76,
            "name": "E5",
            "ticks": 35712,
            "time": 39.29575500000001,
            "velocity": 0.3937007874015748
          },
          {
            "duration": 0.21126749999999817,
            "durationTicks": 192,
            "midi": 55,
            "name": "G3",
            "ticks": 35904,
            "time": 39.507022500000005,
            "velocity": 0.3937007874015748
          },
          {
            "duration": 0.21126749999999817,
            "durationTicks": 192,
            "midi": 72,
            "name": "C5",
            "ticks": 35904,
            "time": 39.507022500000005,
            "velocity": 0.3937007874015748
          },
          {
            "duration": 0.21126749999999817,
            "durationTicks": 192,
            "midi": 60,
            "name": "C4",
            "ticks": 35904,
            "time": 39.507022500000005,
            "velocity": 0.3937007874015748
          },
          {
            "duration": 0.21126749999999817,
            "durationTicks": 192,
            "midi": 80,
            "name": "G#5",
            "ticks": 35904,
            "time": 39.507022500000005,
            "velocity": 0.3937007874015748
          },
          {
            "duration": 0.21126749999999817,
            "durationTicks": 192,
            "midi": 76,
            "name": "E5",
            "ticks": 35904,
            "time": 39.507022500000005,
            "velocity": 0.3937007874015748
          },
          {
            "duration": 0.21126749999999817,
            "durationTicks": 192,
            "midi": 58,
            "name": "A#3",
            "ticks": 35904,
            "time": 39.507022500000005,
            "velocity": 0.3937007874015748
          },
          {
            "duration": 0.21126749999999817,
            "durationTicks": 192,
            "midi": 43,
            "name": "G2",
            "ticks": 36096,
            "time": 39.71829,
            "velocity": 0.3937007874015748
          },
          {
            "duration": 0.10563375000000264,
            "durationTicks": 96,
            "midi": 82,
            "name": "A#5",
            "ticks": 36096,
            "time": 39.71829,
            "velocity": 0.3937007874015748
          },
          {
            "duration": 0.21126749999999817,
            "durationTicks": 192,
            "midi": 55,
            "name": "G3",
            "ticks": 36096,
            "time": 39.71829,
            "velocity": 0.3937007874015748
          },
          {
            "duration": 0.10563374999999553,
            "durationTicks": 96,
            "midi": 84,
            "name": "C6",
            "ticks": 36192,
            "time": 39.823923750000006,
            "velocity": 0.3937007874015748
          },
          {
            "duration": 0.21126750000000527,
            "durationTicks": 192,
            "midi": 58,
            "name": "A#3",
            "ticks": 36288,
            "time": 39.9295575,
            "velocity": 0.3937007874015748
          },
          {
            "duration": 0.21126750000000527,
            "durationTicks": 192,
            "midi": 60,
            "name": "C4",
            "ticks": 36288,
            "time": 39.9295575,
            "velocity": 0.3937007874015748
          },
          {
            "duration": 0.21126750000000527,
            "durationTicks": 192,
            "midi": 55,
            "name": "G3",
            "ticks": 36288,
            "time": 39.9295575,
            "velocity": 0.3937007874015748
          },
          {
            "duration": 0.10563375000000264,
            "durationTicks": 96,
            "midi": 82,
            "name": "A#5",
            "ticks": 36288,
            "time": 39.9295575,
            "velocity": 0.3937007874015748
          },
          {
            "duration": 0.10563375000000264,
            "durationTicks": 96,
            "midi": 79,
            "name": "G5",
            "ticks": 36384,
            "time": 40.035191250000004,
            "velocity": 0.3937007874015748
          },
          {
            "duration": 0.21126749999999817,
            "durationTicks": 192,
            "midi": 44,
            "name": "G#2",
            "ticks": 36480,
            "time": 40.14082500000001,
            "velocity": 0.3937007874015748
          },
          {
            "duration": 0.42253499999999633,
            "durationTicks": 384,
            "midi": 72,
            "name": "C5",
            "ticks": 36480,
            "time": 40.14082500000001,
            "velocity": 0.3937007874015748
          },
          {
            "duration": 0.42253499999999633,
            "durationTicks": 384,
            "midi": 68,
            "name": "G#4",
            "ticks": 36480,
            "time": 40.14082500000001,
            "velocity": 0.3937007874015748
          },
          {
            "duration": 0.21126749999999817,
            "durationTicks": 192,
            "midi": 56,
            "name": "G#3",
            "ticks": 36480,
            "time": 40.14082500000001,
            "velocity": 0.3937007874015748
          },
          {
            "duration": 0.42253499999999633,
            "durationTicks": 384,
            "midi": 77,
            "name": "F5",
            "ticks": 36480,
            "time": 40.14082500000001,
            "velocity": 0.3937007874015748
          },
          {
            "duration": 0.21126749999999817,
            "durationTicks": 192,
            "midi": 56,
            "name": "G#3",
            "ticks": 36672,
            "time": 40.352092500000005,
            "velocity": 0.3937007874015748
          },
          {
            "duration": 0.21126749999999817,
            "durationTicks": 192,
            "midi": 48,
            "name": "C3",
            "ticks": 36672,
            "time": 40.352092500000005,
            "velocity": 0.3937007874015748
          },
          {
            "duration": 0.21126749999999817,
            "durationTicks": 192,
            "midi": 53,
            "name": "F3",
            "ticks": 36672,
            "time": 40.352092500000005,
            "velocity": 0.3937007874015748
          },
          {
            "duration": 0.21126750000000527,
            "durationTicks": 192,
            "midi": 60,
            "name": "C4",
            "ticks": 36864,
            "time": 40.56336,
            "velocity": 0.3937007874015748
          },
          {
            "duration": 0.21126750000000527,
            "durationTicks": 192,
            "midi": 72,
            "name": "C5",
            "ticks": 36864,
            "time": 40.56336,
            "velocity": 0.3937007874015748
          },
          {
            "duration": 0.21126750000000527,
            "durationTicks": 192,
            "midi": 36,
            "name": "C2",
            "ticks": 36864,
            "time": 40.56336,
            "velocity": 0.3937007874015748
          },
          {
            "duration": 0.21126750000000527,
            "durationTicks": 192,
            "midi": 48,
            "name": "C3",
            "ticks": 36864,
            "time": 40.56336,
            "velocity": 0.3937007874015748
          },
          {
            "duration": 0.21126749999999817,
            "durationTicks": 192,
            "midi": 53,
            "name": "F3",
            "ticks": 37056,
            "time": 40.77462750000001,
            "velocity": 0.3937007874015748
          },
          {
            "duration": 0.21126749999999817,
            "durationTicks": 192,
            "midi": 48,
            "name": "C3",
            "ticks": 37056,
            "time": 40.77462750000001,
            "velocity": 0.3937007874015748
          },
          {
            "duration": 0.21126749999999817,
            "durationTicks": 192,
            "midi": 56,
            "name": "G#3",
            "ticks": 37056,
            "time": 40.77462750000001,
            "velocity": 0.3937007874015748
          },
          {
            "duration": 0.052816874999997765,
            "durationTicks": 48,
            "midi": 75,
            "name": "D#5",
            "ticks": 37152,
            "time": 40.880261250000004,
            "velocity": 0.3937007874015748
          },
          {
            "duration": 0.05281687500000487,
            "durationTicks": 48,
            "midi": 76,
            "name": "E5",
            "ticks": 37200,
            "time": 40.933078125,
            "velocity": 0.3937007874015748
          },
          {
            "duration": 0.21126749999999817,
            "durationTicks": 192,
            "midi": 53,
            "name": "F3",
            "ticks": 37248,
            "time": 40.985895000000006,
            "velocity": 0.3937007874015748
          },
          {
            "duration": 0.21126749999999817,
            "durationTicks": 192,
            "midi": 65,
            "name": "F4",
            "ticks": 37248,
            "time": 40.985895000000006,
            "velocity": 0.3937007874015748
          },
          {
            "duration": 0.21126749999999817,
            "durationTicks": 192,
            "midi": 77,
            "name": "F5",
            "ticks": 37248,
            "time": 40.985895000000006,
            "velocity": 0.3937007874015748
          },
          {
            "duration": 0.21126749999999817,
            "durationTicks": 192,
            "midi": 41,
            "name": "F2",
            "ticks": 37248,
            "time": 40.985895000000006,
            "velocity": 0.3937007874015748
          },
          {
            "duration": 0.21126749999999817,
            "durationTicks": 192,
            "midi": 72,
            "name": "C5",
            "ticks": 37248,
            "time": 40.985895000000006,
            "velocity": 0.3937007874015748
          },
          {
            "duration": 0.21126749999999817,
            "durationTicks": 192,
            "midi": 77,
            "name": "F5",
            "ticks": 37440,
            "time": 41.197162500000005,
            "velocity": 0.3937007874015748
          },
          {
            "duration": 0.21126749999999817,
            "durationTicks": 192,
            "midi": 56,
            "name": "G#3",
            "ticks": 37440,
            "time": 41.197162500000005,
            "velocity": 0.3937007874015748
          },
          {
            "duration": 0.21126749999999817,
            "durationTicks": 192,
            "midi": 48,
            "name": "C3",
            "ticks": 37440,
            "time": 41.197162500000005,
            "velocity": 0.3937007874015748
          },
          {
            "duration": 0.21126749999999817,
            "durationTicks": 192,
            "midi": 65,
            "name": "F4",
            "ticks": 37440,
            "time": 41.197162500000005,
            "velocity": 0.3937007874015748
          },
          {
            "duration": 0.21126749999999817,
            "durationTicks": 192,
            "midi": 72,
            "name": "C5",
            "ticks": 37440,
            "time": 41.197162500000005,
            "velocity": 0.3937007874015748
          },
          {
            "duration": 0.21126749999999817,
            "durationTicks": 192,
            "midi": 53,
            "name": "F3",
            "ticks": 37440,
            "time": 41.197162500000005,
            "velocity": 0.3937007874015748
          },
          {
            "duration": 0.21126750000000527,
            "durationTicks": 192,
            "midi": 36,
            "name": "C2",
            "ticks": 37632,
            "time": 41.40843,
            "velocity": 0.3937007874015748
          },
          {
            "duration": 0.21126750000000527,
            "durationTicks": 192,
            "midi": 48,
            "name": "C3",
            "ticks": 37632,
            "time": 41.40843,
            "velocity": 0.3937007874015748
          },
          {
            "duration": 0.10563375000000264,
            "durationTicks": 96,
            "midi": 72,
            "name": "C5",
            "ticks": 37632,
            "time": 41.40843,
            "velocity": 0.3937007874015748
          },
          {
            "duration": 0.10563375000000264,
            "durationTicks": 96,
            "midi": 74,
            "name": "D5",
            "ticks": 37728,
            "time": 41.514063750000005,
            "velocity": 0.3937007874015748
          },
          {
            "duration": 0.21126749999999817,
            "durationTicks": 192,
            "midi": 56,
            "name": "G#3",
            "ticks": 37824,
            "time": 41.61969750000001,
            "velocity": 0.3937007874015748
          },
          {
            "duration": 0.21126749999999817,
            "durationTicks": 192,
            "midi": 48,
            "name": "C3",
            "ticks": 37824,
            "time": 41.61969750000001,
            "velocity": 0.3937007874015748
          },
          {
            "duration": 0.10563374999999553,
            "durationTicks": 96,
            "midi": 75,
            "name": "D#5",
            "ticks": 37824,
            "time": 41.61969750000001,
            "velocity": 0.3937007874015748
          },
          {
            "duration": 0.21126749999999817,
            "durationTicks": 192,
            "midi": 53,
            "name": "F3",
            "ticks": 37824,
            "time": 41.61969750000001,
            "velocity": 0.3937007874015748
          },
          {
            "duration": 0.10563375000000264,
            "durationTicks": 96,
            "midi": 76,
            "name": "E5",
            "ticks": 37920,
            "time": 41.72533125,
            "velocity": 0.3937007874015748
          },
          {
            "duration": 0.21126749999999817,
            "durationTicks": 192,
            "midi": 41,
            "name": "F2",
            "ticks": 38016,
            "time": 41.830965000000006,
            "velocity": 0.3937007874015748
          },
          {
            "duration": 0.21126749999999817,
            "durationTicks": 192,
            "midi": 53,
            "name": "F3",
            "ticks": 38016,
            "time": 41.830965000000006,
            "velocity": 0.3937007874015748
          },
          {
            "duration": 0.21126749999999817,
            "durationTicks": 192,
            "midi": 77,
            "name": "F5",
            "ticks": 38016,
            "time": 41.830965000000006,
            "velocity": 0.3937007874015748
          },
          {
            "duration": 0.21126749999999817,
            "durationTicks": 192,
            "midi": 65,
            "name": "F4",
            "ticks": 38016,
            "time": 41.830965000000006,
            "velocity": 0.3937007874015748
          },
          {
            "duration": 0.21126749999999817,
            "durationTicks": 192,
            "midi": 72,
            "name": "C5",
            "ticks": 38016,
            "time": 41.830965000000006,
            "velocity": 0.3937007874015748
          },
          {
            "duration": 0.21126749999999817,
            "durationTicks": 192,
            "midi": 56,
            "name": "G#3",
            "ticks": 38208,
            "time": 42.042232500000004,
            "velocity": 0.3937007874015748
          },
          {
            "duration": 0.21126749999999817,
            "durationTicks": 192,
            "midi": 72,
            "name": "C5",
            "ticks": 38208,
            "time": 42.042232500000004,
            "velocity": 0.3937007874015748
          },
          {
            "duration": 0.21126749999999817,
            "durationTicks": 192,
            "midi": 65,
            "name": "F4",
            "ticks": 38208,
            "time": 42.042232500000004,
            "velocity": 0.3937007874015748
          },
          {
            "duration": 0.21126749999999817,
            "durationTicks": 192,
            "midi": 53,
            "name": "F3",
            "ticks": 38208,
            "time": 42.042232500000004,
            "velocity": 0.3937007874015748
          },
          {
            "duration": 0.21126749999999817,
            "durationTicks": 192,
            "midi": 48,
            "name": "C3",
            "ticks": 38208,
            "time": 42.042232500000004,
            "velocity": 0.3937007874015748
          },
          {
            "duration": 0.21126749999999817,
            "durationTicks": 192,
            "midi": 77,
            "name": "F5",
            "ticks": 38208,
            "time": 42.042232500000004,
            "velocity": 0.3937007874015748
          },
          {
            "duration": 0.21126750000000527,
            "durationTicks": 192,
            "midi": 80,
            "name": "G#5",
            "ticks": 38400,
            "time": 42.2535,
            "velocity": 0.3937007874015748
          },
          {
            "duration": 0.21126750000000527,
            "durationTicks": 192,
            "midi": 77,
            "name": "F5",
            "ticks": 38400,
            "time": 42.2535,
            "velocity": 0.3937007874015748
          },
          {
            "duration": 0.21126750000000527,
            "durationTicks": 192,
            "midi": 36,
            "name": "C2",
            "ticks": 38400,
            "time": 42.2535,
            "velocity": 0.3937007874015748
          },
          {
            "duration": 0.21126750000000527,
            "durationTicks": 192,
            "midi": 72,
            "name": "C5",
            "ticks": 38400,
            "time": 42.2535,
            "velocity": 0.3937007874015748
          },
          {
            "duration": 0.21126750000000527,
            "durationTicks": 192,
            "midi": 48,
            "name": "C3",
            "ticks": 38400,
            "time": 42.2535,
            "velocity": 0.3937007874015748
          },
          {
            "duration": 0.21126749999999817,
            "durationTicks": 192,
            "midi": 56,
            "name": "G#3",
            "ticks": 38592,
            "time": 42.46476750000001,
            "velocity": 0.3937007874015748
          },
          {
            "duration": 0.10563374999999553,
            "durationTicks": 96,
            "midi": 79,
            "name": "G5",
            "ticks": 38592,
            "time": 42.46476750000001,
            "velocity": 0.3937007874015748
          },
          {
            "duration": 0.21126749999999817,
            "durationTicks": 192,
            "midi": 48,
            "name": "C3",
            "ticks": 38592,
            "time": 42.46476750000001,
            "velocity": 0.3937007874015748
          },
          {
            "duration": 0.21126749999999817,
            "durationTicks": 192,
            "midi": 53,
            "name": "F3",
            "ticks": 38592,
            "time": 42.46476750000001,
            "velocity": 0.3937007874015748
          },
          {
            "duration": 0.10563375000000264,
            "durationTicks": 96,
            "midi": 77,
            "name": "F5",
            "ticks": 38688,
            "time": 42.57040125,
            "velocity": 0.3937007874015748
          },
          {
            "duration": 0.21126749999999817,
            "durationTicks": 192,
            "midi": 55,
            "name": "G3",
            "ticks": 38784,
            "time": 42.676035000000006,
            "velocity": 0.3937007874015748
          },
          {
            "duration": 0.21126749999999817,
            "durationTicks": 192,
            "midi": 72,
            "name": "C5",
            "ticks": 38784,
            "time": 42.676035000000006,
            "velocity": 0.3937007874015748
          },
          {
            "duration": 0.21126749999999817,
            "durationTicks": 192,
            "midi": 76,
            "name": "E5",
            "ticks": 38784,
            "time": 42.676035000000006,
            "velocity": 0.3937007874015748
          },
          {
            "duration": 0.21126749999999817,
            "durationTicks": 192,
            "midi": 79,
            "name": "G5",
            "ticks": 38784,
            "time": 42.676035000000006,
            "velocity": 0.3937007874015748
          },
          {
            "duration": 0.21126749999999817,
            "durationTicks": 192,
            "midi": 43,
            "name": "G2",
            "ticks": 38784,
            "time": 42.676035000000006,
            "velocity": 0.3937007874015748
          },
          {
            "duration": 0.21126749999999817,
            "durationTicks": 192,
            "midi": 72,
            "name": "C5",
            "ticks": 38976,
            "time": 42.887302500000004,
            "velocity": 0.3937007874015748
          },
          {
            "duration": 0.21126749999999817,
            "durationTicks": 192,
            "midi": 55,
            "name": "G3",
            "ticks": 38976,
            "time": 42.887302500000004,
            "velocity": 0.3937007874015748
          },
          {
            "duration": 0.21126749999999817,
            "durationTicks": 192,
            "midi": 76,
            "name": "E5",
            "ticks": 38976,
            "time": 42.887302500000004,
            "velocity": 0.3937007874015748
          },
          {
            "duration": 0.21126749999999817,
            "durationTicks": 192,
            "midi": 58,
            "name": "A#3",
            "ticks": 38976,
            "time": 42.887302500000004,
            "velocity": 0.3937007874015748
          },
          {
            "duration": 0.21126749999999817,
            "durationTicks": 192,
            "midi": 60,
            "name": "C4",
            "ticks": 38976,
            "time": 42.887302500000004,
            "velocity": 0.3937007874015748
          },
          {
            "duration": 0.21126749999999817,
            "durationTicks": 192,
            "midi": 79,
            "name": "G5",
            "ticks": 38976,
            "time": 42.887302500000004,
            "velocity": 0.3937007874015748
          },
          {
            "duration": 0.21126750000000527,
            "durationTicks": 192,
            "midi": 55,
            "name": "G3",
            "ticks": 39168,
            "time": 43.09857,
            "velocity": 0.3937007874015748
          },
          {
            "duration": 0.05281687500000487,
            "durationTicks": 48,
            "midi": 80,
            "name": "G#5",
            "ticks": 39168,
            "time": 43.09857,
            "velocity": 0.3937007874015748
          },
          {
            "duration": 0.21126750000000527,
            "durationTicks": 192,
            "midi": 43,
            "name": "G2",
            "ticks": 39168,
            "time": 43.09857,
            "velocity": 0.3937007874015748
          },
          {
            "duration": 0.05281687500000487,
            "durationTicks": 48,
            "midi": 82,
            "name": "A#5",
            "ticks": 39240,
            "time": 43.1777953125,
            "velocity": 0.3937007874015748
          },
          {
            "duration": 0.05281687500000487,
            "durationTicks": 48,
            "midi": 80,
            "name": "G#5",
            "ticks": 39312,
            "time": 43.257020625,
            "velocity": 0.3937007874015748
          },
          {
            "duration": 0.21126749999999817,
            "durationTicks": 192,
            "midi": 77,
            "name": "F5",
            "ticks": 39360,
            "time": 43.30983750000001,
            "velocity": 0.3937007874015748
          },
          {
            "duration": 0.21126749999999817,
            "durationTicks": 192,
            "midi": 58,
            "name": "A#3",
            "ticks": 39360,
            "time": 43.30983750000001,
            "velocity": 0.3937007874015748
          },
          {
            "duration": 0.21126749999999817,
            "durationTicks": 192,
            "midi": 55,
            "name": "G3",
            "ticks": 39360,
            "time": 43.30983750000001,
            "velocity": 0.3937007874015748
          },
          {
            "duration": 0.21126749999999817,
            "durationTicks": 192,
            "midi": 60,
            "name": "C4",
            "ticks": 39360,
            "time": 43.30983750000001,
            "velocity": 0.3937007874015748
          },
          {
            "duration": 0.42253499999999633,
            "durationTicks": 384,
            "midi": 76,
            "name": "E5",
            "ticks": 39552,
            "time": 43.521105000000006,
            "velocity": 0.3937007874015748
          },
          {
            "duration": 0.42253499999999633,
            "durationTicks": 384,
            "midi": 72,
            "name": "C5",
            "ticks": 39552,
            "time": 43.521105000000006,
            "velocity": 0.3937007874015748
          },
          {
            "duration": 0.42253499999999633,
            "durationTicks": 384,
            "midi": 79,
            "name": "G5",
            "ticks": 39552,
            "time": 43.521105000000006,
            "velocity": 0.3937007874015748
          },
          {
            "duration": 0.21126749999999817,
            "durationTicks": 192,
            "midi": 48,
            "name": "C3",
            "ticks": 39552,
            "time": 43.521105000000006,
            "velocity": 0.3937007874015748
          },
          {
            "duration": 0.21126749999999817,
            "durationTicks": 192,
            "midi": 36,
            "name": "C2",
            "ticks": 39552,
            "time": 43.521105000000006,
            "velocity": 0.3937007874015748
          },
          {
            "duration": 0.42253499999999633,
            "durationTicks": 384,
            "midi": 67,
            "name": "G4",
            "ticks": 39552,
            "time": 43.521105000000006,
            "velocity": 0.3937007874015748
          },
          {
            "duration": 0.21126749999999817,
            "durationTicks": 192,
            "midi": 60,
            "name": "C4",
            "ticks": 39744,
            "time": 43.732372500000004,
            "velocity": 0.3937007874015748
          },
          {
            "duration": 0.21126749999999817,
            "durationTicks": 192,
            "midi": 55,
            "name": "G3",
            "ticks": 39744,
            "time": 43.732372500000004,
            "velocity": 0.3937007874015748
          },
          {
            "duration": 0.21126749999999817,
            "durationTicks": 192,
            "midi": 58,
            "name": "A#3",
            "ticks": 39744,
            "time": 43.732372500000004,
            "velocity": 0.3937007874015748
          },
          {
            "duration": 0.21126750000000527,
            "durationTicks": 192,
            "midi": 36,
            "name": "C2",
            "ticks": 39936,
            "time": 43.94364,
            "velocity": 0.3937007874015748
          },
          {
            "duration": 0.21126750000000527,
            "durationTicks": 192,
            "midi": 48,
            "name": "C3",
            "ticks": 39936,
            "time": 43.94364,
            "velocity": 0.3937007874015748
          },
          {
            "duration": 0.21126749999999817,
            "durationTicks": 192,
            "midi": 58,
            "name": "A#3",
            "ticks": 40128,
            "time": 44.15490750000001,
            "velocity": 0.3937007874015748
          },
          {
            "duration": 0.21126749999999817,
            "durationTicks": 192,
            "midi": 60,
            "name": "C4",
            "ticks": 40128,
            "time": 44.15490750000001,
            "velocity": 0.3937007874015748
          },
          {
            "duration": 0.21126749999999817,
            "durationTicks": 192,
            "midi": 55,
            "name": "G3",
            "ticks": 40128,
            "time": 44.15490750000001,
            "velocity": 0.3937007874015748
          },
          {
            "duration": 0.21126749999999817,
            "durationTicks": 192,
            "midi": 82,
            "name": "A#5",
            "ticks": 40320,
            "time": 44.366175000000005,
            "velocity": 0.3937007874015748
          },
          {
            "duration": 0.21126749999999817,
            "durationTicks": 192,
            "midi": 55,
            "name": "G3",
            "ticks": 40320,
            "time": 44.366175000000005,
            "velocity": 0.3937007874015748
          },
          {
            "duration": 0.21126749999999817,
            "durationTicks": 192,
            "midi": 43,
            "name": "G2",
            "ticks": 40320,
            "time": 44.366175000000005,
            "velocity": 0.3937007874015748
          },
          {
            "duration": 0.21126749999999817,
            "durationTicks": 192,
            "midi": 76,
            "name": "E5",
            "ticks": 40320,
            "time": 44.366175000000005,
            "velocity": 0.3937007874015748
          },
          {
            "duration": 0.21126749999999817,
            "durationTicks": 192,
            "midi": 85,
            "name": "C#6",
            "ticks": 40320,
            "time": 44.366175000000005,
            "velocity": 0.3937007874015748
          },
          {
            "duration": 0.21126749999999817,
            "durationTicks": 192,
            "midi": 60,
            "name": "C4",
            "ticks": 40512,
            "time": 44.577442500000004,
            "velocity": 0.3937007874015748
          },
          {
            "duration": 0.21126749999999817,
            "durationTicks": 192,
            "midi": 58,
            "name": "A#3",
            "ticks": 40512,
            "time": 44.577442500000004,
            "velocity": 0.3937007874015748
          },
          {
            "duration": 0.21126749999999817,
            "durationTicks": 192,
            "midi": 76,
            "name": "E5",
            "ticks": 40512,
            "time": 44.577442500000004,
            "velocity": 0.3937007874015748
          },
          {
            "duration": 0.21126749999999817,
            "durationTicks": 192,
            "midi": 82,
            "name": "A#5",
            "ticks": 40512,
            "time": 44.577442500000004,
            "velocity": 0.3937007874015748
          },
          {
            "duration": 0.21126749999999817,
            "durationTicks": 192,
            "midi": 85,
            "name": "C#6",
            "ticks": 40512,
            "time": 44.577442500000004,
            "velocity": 0.3937007874015748
          },
          {
            "duration": 0.21126749999999817,
            "durationTicks": 192,
            "midi": 55,
            "name": "G3",
            "ticks": 40512,
            "time": 44.577442500000004,
            "velocity": 0.3937007874015748
          },
          {
            "duration": 0.05281687500000487,
            "durationTicks": 48,
            "midi": 85,
            "name": "C#6",
            "ticks": 40704,
            "time": 44.78871,
            "velocity": 0.3937007874015748
          },
          {
            "duration": 0.21126750000000527,
            "durationTicks": 192,
            "midi": 48,
            "name": "C3",
            "ticks": 40704,
            "time": 44.78871,
            "velocity": 0.3937007874015748
          },
          {
            "duration": 0.21126750000000527,
            "durationTicks": 192,
            "midi": 36,
            "name": "C2",
            "ticks": 40704,
            "time": 44.78871,
            "velocity": 0.3937007874015748
          },
          {
            "duration": 0.05281687500000487,
            "durationTicks": 48,
            "midi": 87,
            "name": "D#6",
            "ticks": 40776,
            "time": 44.8679353125,
            "velocity": 0.3937007874015748
          },
          {
            "duration": 0.05281687500000487,
            "durationTicks": 48,
            "midi": 85,
            "name": "C#6",
            "ticks": 40848,
            "time": 44.947160625,
            "velocity": 0.3937007874015748
          },
          {
            "duration": 0.21126749999999817,
            "durationTicks": 192,
            "midi": 55,
            "name": "G3",
            "ticks": 40896,
            "time": 44.99997750000001,
            "velocity": 0.3937007874015748
          },
          {
            "duration": 0.21126749999999817,
            "durationTicks": 192,
            "midi": 58,
            "name": "A#3",
            "ticks": 40896,
            "time": 44.99997750000001,
            "velocity": 0.3937007874015748
          },
          {
            "duration": 0.21126749999999817,
            "durationTicks": 192,
            "midi": 60,
            "name": "C4",
            "ticks": 40896,
            "time": 44.99997750000001,
            "velocity": 0.3937007874015748
          },
          {
            "duration": 0.05281687500000487,
            "durationTicks": 48,
            "midi": 84,
            "name": "C6",
            "ticks": 40920,
            "time": 45.0263859375,
            "velocity": 0.3937007874015748
          },
          {
            "duration": 0.10563375000000264,
            "durationTicks": 96,
            "midi": 82,
            "name": "A#5",
            "ticks": 40992,
            "time": 45.10561125,
            "velocity": 0.3937007874015748
          },
          {
            "duration": 0.21126749999999817,
            "durationTicks": 192,
            "midi": 52,
            "name": "E3",
            "ticks": 41088,
            "time": 45.211245000000005,
            "velocity": 0.3937007874015748
          },
          {
            "duration": 0.21126749999999817,
            "durationTicks": 192,
            "midi": 40,
            "name": "E2",
            "ticks": 41088,
            "time": 45.211245000000005,
            "velocity": 0.3937007874015748
          },
          {
            "duration": 0.21126749999999817,
            "durationTicks": 192,
            "midi": 84,
            "name": "C6",
            "ticks": 41088,
            "time": 45.211245000000005,
            "velocity": 0.3937007874015748
          },
          {
            "duration": 0.21126749999999817,
            "durationTicks": 192,
            "midi": 72,
            "name": "C5",
            "ticks": 41088,
            "time": 45.211245000000005,
            "velocity": 0.3937007874015748
          },
          {
            "duration": 0.21126750000000527,
            "durationTicks": 192,
            "midi": 84,
            "name": "C6",
            "ticks": 41280,
            "time": 45.4225125,
            "velocity": 0.3937007874015748
          },
          {
            "duration": 0.21126750000000527,
            "durationTicks": 192,
            "midi": 55,
            "name": "G3",
            "ticks": 41280,
            "time": 45.4225125,
            "velocity": 0.3937007874015748
          },
          {
            "duration": 0.21126750000000527,
            "durationTicks": 192,
            "midi": 60,
            "name": "C4",
            "ticks": 41280,
            "time": 45.4225125,
            "velocity": 0.3937007874015748
          },
          {
            "duration": 0.21126750000000527,
            "durationTicks": 192,
            "midi": 76,
            "name": "E5",
            "ticks": 41280,
            "time": 45.4225125,
            "velocity": 0.3937007874015748
          },
          {
            "duration": 0.21126750000000527,
            "durationTicks": 192,
            "midi": 72,
            "name": "C5",
            "ticks": 41280,
            "time": 45.4225125,
            "velocity": 0.3937007874015748
          },
          {
            "duration": 0.21126750000000527,
            "durationTicks": 192,
            "midi": 79,
            "name": "G5",
            "ticks": 41280,
            "time": 45.4225125,
            "velocity": 0.3937007874015748
          },
          {
            "duration": 0.21126750000000527,
            "durationTicks": 192,
            "midi": 58,
            "name": "A#3",
            "ticks": 41280,
            "time": 45.4225125,
            "velocity": 0.3937007874015748
          },
          {
            "duration": 0.21126749999999817,
            "durationTicks": 192,
            "midi": 48,
            "name": "C3",
            "ticks": 41472,
            "time": 45.63378000000001,
            "velocity": 0.3937007874015748
          },
          {
            "duration": 0.21126749999999817,
            "durationTicks": 192,
            "midi": 36,
            "name": "C2",
            "ticks": 41472,
            "time": 45.63378000000001,
            "velocity": 0.3937007874015748
          },
          {
            "duration": 0.10563374999999553,
            "durationTicks": 96,
            "midi": 84,
            "name": "C6",
            "ticks": 41472,
            "time": 45.63378000000001,
            "velocity": 0.3937007874015748
          },
          {
            "duration": 0.10563375000000264,
            "durationTicks": 96,
            "midi": 85,
            "name": "C#6",
            "ticks": 41568,
            "time": 45.739413750000004,
            "velocity": 0.3937007874015748
          },
          {
            "duration": 0.10563374999999553,
            "durationTicks": 96,
            "midi": 84,
            "name": "C6",
            "ticks": 41664,
            "time": 45.84504750000001,
            "velocity": 0.3937007874015748
          },
          {
            "duration": 0.21126749999999817,
            "durationTicks": 192,
            "midi": 55,
            "name": "G3",
            "ticks": 41664,
            "time": 45.84504750000001,
            "velocity": 0.3937007874015748
          },
          {
            "duration": 0.21126749999999817,
            "durationTicks": 192,
            "midi": 58,
            "name": "A#3",
            "ticks": 41664,
            "time": 45.84504750000001,
            "velocity": 0.3937007874015748
          },
          {
            "duration": 0.21126749999999817,
            "durationTicks": 192,
            "midi": 60,
            "name": "C4",
            "ticks": 41664,
            "time": 45.84504750000001,
            "velocity": 0.3937007874015748
          },
          {
            "duration": 0.10563375000000264,
            "durationTicks": 96,
            "midi": 82,
            "name": "A#5",
            "ticks": 41760,
            "time": 45.95068125,
            "velocity": 0.3937007874015748
          },
          {
            "duration": 0.21126749999999817,
            "durationTicks": 192,
            "midi": 72,
            "name": "C5",
            "ticks": 41856,
            "time": 46.056315000000005,
            "velocity": 0.3937007874015748
          },
          {
            "duration": 0.21126749999999817,
            "durationTicks": 192,
            "midi": 36,
            "name": "C2",
            "ticks": 41856,
            "time": 46.056315000000005,
            "velocity": 0.3937007874015748
          },
          {
            "duration": 0.21126749999999817,
            "durationTicks": 192,
            "midi": 80,
            "name": "G#5",
            "ticks": 41856,
            "time": 46.056315000000005,
            "velocity": 0.3937007874015748
          },
          {
            "duration": 0.21126749999999817,
            "durationTicks": 192,
            "midi": 48,
            "name": "C3",
            "ticks": 41856,
            "time": 46.056315000000005,
            "velocity": 0.3937007874015748
          },
          {
            "duration": 0.21126749999999817,
            "durationTicks": 192,
            "midi": 76,
            "name": "E5",
            "ticks": 41856,
            "time": 46.056315000000005,
            "velocity": 0.3937007874015748
          },
          {
            "duration": 0.21126750000000527,
            "durationTicks": 192,
            "midi": 76,
            "name": "E5",
            "ticks": 42048,
            "time": 46.2675825,
            "velocity": 0.3937007874015748
          },
          {
            "duration": 0.21126750000000527,
            "durationTicks": 192,
            "midi": 72,
            "name": "C5",
            "ticks": 42048,
            "time": 46.2675825,
            "velocity": 0.3937007874015748
          },
          {
            "duration": 0.21126750000000527,
            "durationTicks": 192,
            "midi": 58,
            "name": "A#3",
            "ticks": 42048,
            "time": 46.2675825,
            "velocity": 0.3937007874015748
          },
          {
            "duration": 0.21126750000000527,
            "durationTicks": 192,
            "midi": 64,
            "name": "E4",
            "ticks": 42048,
            "time": 46.2675825,
            "velocity": 0.3937007874015748
          },
          {
            "duration": 0.21126750000000527,
            "durationTicks": 192,
            "midi": 80,
            "name": "G#5",
            "ticks": 42048,
            "time": 46.2675825,
            "velocity": 0.3937007874015748
          },
          {
            "duration": 0.21126750000000527,
            "durationTicks": 192,
            "midi": 60,
            "name": "C4",
            "ticks": 42048,
            "time": 46.2675825,
            "velocity": 0.3937007874015748
          },
          {
            "duration": 0.21126749999999817,
            "durationTicks": 192,
            "midi": 48,
            "name": "C3",
            "ticks": 42240,
            "time": 46.47885000000001,
            "velocity": 0.3937007874015748
          },
          {
            "duration": 0.10563374999999553,
            "durationTicks": 96,
            "midi": 82,
            "name": "A#5",
            "ticks": 42240,
            "time": 46.47885000000001,
            "velocity": 0.3937007874015748
          },
          {
            "duration": 0.21126749999999817,
            "durationTicks": 192,
            "midi": 36,
            "name": "C2",
            "ticks": 42240,
            "time": 46.47885000000001,
            "velocity": 0.3937007874015748
          },
          {
            "duration": 0.10563375000000264,
            "durationTicks": 96,
            "midi": 84,
            "name": "C6",
            "ticks": 42336,
            "time": 46.584483750000004,
            "velocity": 0.3937007874015748
          },
          {
            "duration": 0.21126749999999817,
            "durationTicks": 192,
            "midi": 64,
            "name": "E4",
            "ticks": 42432,
            "time": 46.69011750000001,
            "velocity": 0.3937007874015748
          },
          {
            "duration": 0.21126749999999817,
            "durationTicks": 192,
            "midi": 60,
            "name": "C4",
            "ticks": 42432,
            "time": 46.69011750000001,
            "velocity": 0.3937007874015748
          },
          {
            "duration": 0.21126749999999817,
            "durationTicks": 192,
            "midi": 58,
            "name": "A#3",
            "ticks": 42432,
            "time": 46.69011750000001,
            "velocity": 0.3937007874015748
          },
          {
            "duration": 0.10563374999999553,
            "durationTicks": 96,
            "midi": 82,
            "name": "A#5",
            "ticks": 42432,
            "time": 46.69011750000001,
            "velocity": 0.3937007874015748
          },
          {
            "duration": 0.10563375000000264,
            "durationTicks": 96,
            "midi": 79,
            "name": "G5",
            "ticks": 42528,
            "time": 46.79575125,
            "velocity": 0.3937007874015748
          },
          {
            "duration": 0.21126749999999817,
            "durationTicks": 192,
            "midi": 72,
            "name": "C5",
            "ticks": 42624,
            "time": 46.901385000000005,
            "velocity": 0.3937007874015748
          },
          {
            "duration": 0.21126749999999817,
            "durationTicks": 192,
            "midi": 77,
            "name": "F5",
            "ticks": 42624,
            "time": 46.901385000000005,
            "velocity": 0.3937007874015748
          },
          {
            "duration": 0.21126749999999817,
            "durationTicks": 192,
            "midi": 53,
            "name": "F3",
            "ticks": 42624,
            "time": 46.901385000000005,
            "velocity": 0.3937007874015748
          },
          {
            "duration": 0.21126749999999817,
            "durationTicks": 192,
            "midi": 68,
            "name": "G#4",
            "ticks": 42624,
            "time": 46.901385000000005,
            "velocity": 0.3937007874015748
          },
          {
            "duration": 0.21126749999999817,
            "durationTicks": 192,
            "midi": 41,
            "name": "F2",
            "ticks": 42624,
            "time": 46.901385000000005,
            "velocity": 0.3937007874015748
          },
          {
            "duration": 0.21126749999999817,
            "durationTicks": 192,
            "midi": 82,
            "name": "A#5",
            "ticks": 43008,
            "time": 47.32392000000001,
            "velocity": 0.3937007874015748
          },
          {
            "duration": 0.21126749999999817,
            "durationTicks": 192,
            "midi": 76,
            "name": "E5",
            "ticks": 43008,
            "time": 47.32392000000001,
            "velocity": 0.3937007874015748
          },
          {
            "duration": 0.21126749999999817,
            "durationTicks": 192,
            "midi": 72,
            "name": "C5",
            "ticks": 43008,
            "time": 47.32392000000001,
            "velocity": 0.3937007874015748
          },
          {
            "duration": 0.21126749999999817,
            "durationTicks": 192,
            "midi": 79,
            "name": "G5",
            "ticks": 43008,
            "time": 47.32392000000001,
            "velocity": 0.3937007874015748
          },
          {
            "duration": 0.42253499999999633,
            "durationTicks": 384,
            "midi": 36,
            "name": "C2",
            "ticks": 43008,
            "time": 47.32392000000001,
            "velocity": 0.3937007874015748
          },
          {
            "duration": 0.42253499999999633,
            "durationTicks": 384,
            "midi": 48,
            "name": "C3",
            "ticks": 43008,
            "time": 47.32392000000001,
            "velocity": 0.3937007874015748
          },
          {
            "duration": 0.21126749999999817,
            "durationTicks": 192,
            "midi": 84,
            "name": "C6",
            "ticks": 43008,
            "time": 47.32392000000001,
            "velocity": 0.3937007874015748
          },
          {
            "duration": 0.21126749999999817,
            "durationTicks": 192,
            "midi": 53,
            "name": "F3",
            "ticks": 43392,
            "time": 47.746455000000005,
            "velocity": 0.3937007874015748
          },
          {
            "duration": 0.21126749999999817,
            "durationTicks": 192,
            "midi": 41,
            "name": "F2",
            "ticks": 43392,
            "time": 47.746455000000005,
            "velocity": 0.3937007874015748
          },
          {
            "duration": 0.3169012500000008,
            "durationTicks": 288,
            "midi": 77,
            "name": "F5",
            "ticks": 43392,
            "time": 47.746455000000005,
            "velocity": 0.3937007874015748
          },
          {
            "duration": 0.3169012500000008,
            "durationTicks": 288,
            "midi": 84,
            "name": "C6",
            "ticks": 43392,
            "time": 47.746455000000005,
            "velocity": 0.3937007874015748
          },
          {
            "duration": 0.3169012500000008,
            "durationTicks": 288,
            "midi": 80,
            "name": "G#5",
            "ticks": 43392,
            "time": 47.746455000000005,
            "velocity": 0.3937007874015748
          },
          {
            "duration": 0.3169012500000008,
            "durationTicks": 288,
            "midi": 72,
            "name": "C5",
            "ticks": 43392,
            "time": 47.746455000000005,
            "velocity": 0.3937007874015748
          },
          {
            "duration": 0.21126750000000527,
            "durationTicks": 192,
            "midi": 48,
            "name": "C3",
            "ticks": 43584,
            "time": 47.9577225,
            "velocity": 0.3937007874015748
          },
          {
            "duration": 0.21126750000000527,
            "durationTicks": 192,
            "midi": 53,
            "name": "F3",
            "ticks": 43584,
            "time": 47.9577225,
            "velocity": 0.3937007874015748
          },
          {
            "duration": 0.21126750000000527,
            "durationTicks": 192,
            "midi": 56,
            "name": "G#3",
            "ticks": 43584,
            "time": 47.9577225,
            "velocity": 0.3937007874015748
          },
          {
            "duration": 0.21126749999999817,
            "durationTicks": 192,
            "midi": 48,
            "name": "C3",
            "ticks": 43776,
            "time": 48.16899000000001,
            "velocity": 0.3937007874015748
          },
          {
            "duration": 0.21126749999999817,
            "durationTicks": 192,
            "midi": 36,
            "name": "C2",
            "ticks": 43776,
            "time": 48.16899000000001,
            "velocity": 0.3937007874015748
          },
          {
            "duration": 0.3169012500000008,
            "durationTicks": 288,
            "midi": 72,
            "name": "C5",
            "ticks": 43776,
            "time": 48.16899000000001,
            "velocity": 0.3937007874015748
          },
          {
            "duration": 0.3169012500000008,
            "durationTicks": 288,
            "midi": 84,
            "name": "C6",
            "ticks": 43776,
            "time": 48.16899000000001,
            "velocity": 0.3937007874015748
          },
          {
            "duration": 0.3169012500000008,
            "durationTicks": 288,
            "midi": 77,
            "name": "F5",
            "ticks": 43776,
            "time": 48.16899000000001,
            "velocity": 0.3937007874015748
          },
          {
            "duration": 0.3169012500000008,
            "durationTicks": 288,
            "midi": 80,
            "name": "G#5",
            "ticks": 43776,
            "time": 48.16899000000001,
            "velocity": 0.3937007874015748
          },
          {
            "duration": 0.21126749999999817,
            "durationTicks": 192,
            "midi": 48,
            "name": "C3",
            "ticks": 43968,
            "time": 48.380257500000006,
            "velocity": 0.3937007874015748
          },
          {
            "duration": 0.21126749999999817,
            "durationTicks": 192,
            "midi": 56,
            "name": "G#3",
            "ticks": 43968,
            "time": 48.380257500000006,
            "velocity": 0.3937007874015748
          },
          {
            "duration": 0.21126749999999817,
            "durationTicks": 192,
            "midi": 53,
            "name": "F3",
            "ticks": 43968,
            "time": 48.380257500000006,
            "velocity": 0.3937007874015748
          },
          {
            "duration": 0.026408437500002435,
            "durationTicks": 24,
            "midi": 87,
            "name": "D#6",
            "ticks": 44112,
            "time": 48.53870812500001,
            "velocity": 0.3937007874015748
          },
          {
            "duration": 0.02640843749999533,
            "durationTicks": 24,
            "midi": 88,
            "name": "E6",
            "ticks": 44136,
            "time": 48.56511656250001,
            "velocity": 0.3937007874015748
          },
          {
            "duration": 0.21126749999999817,
            "durationTicks": 192,
            "midi": 41,
            "name": "F2",
            "ticks": 44160,
            "time": 48.591525000000004,
            "velocity": 0.3937007874015748
          },
          {
            "duration": 0.42253500000000344,
            "durationTicks": 384,
            "midi": 77,
            "name": "F5",
            "ticks": 44160,
            "time": 48.591525000000004,
            "velocity": 0.3937007874015748
          },
          {
            "duration": 0.42253500000000344,
            "durationTicks": 384,
            "midi": 89,
            "name": "F6",
            "ticks": 44160,
            "time": 48.591525000000004,
            "velocity": 0.3937007874015748
          },
          {
            "duration": 0.21126749999999817,
            "durationTicks": 192,
            "midi": 29,
            "name": "F1",
            "ticks": 44160,
            "time": 48.591525000000004,
            "velocity": 0.3937007874015748
          },
          {
            "duration": 0.21126750000000527,
            "durationTicks": 192,
            "midi": 48,
            "name": "C3",
            "ticks": 44352,
            "time": 48.8027925,
            "velocity": 0.3937007874015748
          },
          {
            "duration": 0.21126750000000527,
            "durationTicks": 192,
            "midi": 56,
            "name": "G#3",
            "ticks": 44352,
            "time": 48.8027925,
            "velocity": 0.3937007874015748
          },
          {
            "duration": 0.21126750000000527,
            "durationTicks": 192,
            "midi": 53,
            "name": "F3",
            "ticks": 44352,
            "time": 48.8027925,
            "velocity": 0.3937007874015748
          },
          {
            "duration": 0.42253499999999633,
            "durationTicks": 384,
            "midi": 72,
            "name": "C5",
            "ticks": 44544,
            "time": 49.01406000000001,
            "velocity": 0.3937007874015748
          },
          {
            "duration": 0.42253499999999633,
            "durationTicks": 384,
            "midi": 77,
            "name": "F5",
            "ticks": 44544,
            "time": 49.01406000000001,
            "velocity": 0.3937007874015748
          },
          {
            "duration": 0.21126749999999817,
            "durationTicks": 192,
            "midi": 32,
            "name": "G#1",
            "ticks": 44544,
            "time": 49.01406000000001,
            "velocity": 0.3937007874015748
          },
          {
            "duration": 0.21126749999999817,
            "durationTicks": 192,
            "midi": 44,
            "name": "G#2",
            "ticks": 44544,
            "time": 49.01406000000001,
            "velocity": 0.3937007874015748
          },
          {
            "duration": 0.42253499999999633,
            "durationTicks": 384,
            "midi": 84,
            "name": "C6",
            "ticks": 44544,
            "time": 49.01406000000001,
            "velocity": 0.3937007874015748
          },
          {
            "duration": 0.21126749999999817,
            "durationTicks": 192,
            "midi": 48,
            "name": "C3",
            "ticks": 44736,
            "time": 49.225327500000006,
            "velocity": 0.3937007874015748
          },
          {
            "duration": 0.21126749999999817,
            "durationTicks": 192,
            "midi": 56,
            "name": "G#3",
            "ticks": 44736,
            "time": 49.225327500000006,
            "velocity": 0.3937007874015748
          },
          {
            "duration": 0.21126749999999817,
            "durationTicks": 192,
            "midi": 53,
            "name": "F3",
            "ticks": 44736,
            "time": 49.225327500000006,
            "velocity": 0.3937007874015748
          },
          {
            "duration": 0.21126750000000527,
            "durationTicks": 192,
            "midi": 31,
            "name": "G1",
            "ticks": 44928,
            "time": 49.436595000000004,
            "velocity": 0.3937007874015748
          },
          {
            "duration": 0.21126750000000527,
            "durationTicks": 192,
            "midi": 87,
            "name": "D#6",
            "ticks": 44928,
            "time": 49.436595000000004,
            "velocity": 0.3937007874015748
          },
          {
            "duration": 0.21126750000000527,
            "durationTicks": 192,
            "midi": 75,
            "name": "D#5",
            "ticks": 44928,
            "time": 49.436595000000004,
            "velocity": 0.3937007874015748
          },
          {
            "duration": 0.21126750000000527,
            "durationTicks": 192,
            "midi": 79,
            "name": "G5",
            "ticks": 44928,
            "time": 49.436595000000004,
            "velocity": 0.3937007874015748
          },
          {
            "duration": 0.21126750000000527,
            "durationTicks": 192,
            "midi": 43,
            "name": "G2",
            "ticks": 44928,
            "time": 49.436595000000004,
            "velocity": 0.3937007874015748
          },
          {
            "duration": 0.21126749999999817,
            "durationTicks": 192,
            "midi": 73,
            "name": "C#5",
            "ticks": 45120,
            "time": 49.64786250000001,
            "velocity": 0.3937007874015748
          },
          {
            "duration": 0.21126749999999817,
            "durationTicks": 192,
            "midi": 85,
            "name": "C#6",
            "ticks": 45120,
            "time": 49.64786250000001,
            "velocity": 0.3937007874015748
          },
          {
            "duration": 0.21126749999999817,
            "durationTicks": 192,
            "midi": 61,
            "name": "C#4",
            "ticks": 45120,
            "time": 49.64786250000001,
            "velocity": 0.3937007874015748
          },
          {
            "duration": 0.21126749999999817,
            "durationTicks": 192,
            "midi": 58,
            "name": "A#3",
            "ticks": 45120,
            "time": 49.64786250000001,
            "velocity": 0.3937007874015748
          },
          {
            "duration": 0.21126749999999817,
            "durationTicks": 192,
            "midi": 55,
            "name": "G3",
            "ticks": 45120,
            "time": 49.64786250000001,
            "velocity": 0.3937007874015748
          },
          {
            "duration": 0.21126749999999817,
            "durationTicks": 192,
            "midi": 43,
            "name": "G2",
            "ticks": 45312,
            "time": 49.85913000000001,
            "velocity": 0.3937007874015748
          },
          {
            "duration": 0.21126749999999817,
            "durationTicks": 192,
            "midi": 31,
            "name": "G1",
            "ticks": 45312,
            "time": 49.85913000000001,
            "velocity": 0.3937007874015748
          },
          {
            "duration": 0.21126749999999817,
            "durationTicks": 192,
            "midi": 84,
            "name": "C6",
            "ticks": 45312,
            "time": 49.85913000000001,
            "velocity": 0.3937007874015748
          },
          {
            "duration": 0.21126749999999817,
            "durationTicks": 192,
            "midi": 72,
            "name": "C5",
            "ticks": 45312,
            "time": 49.85913000000001,
            "velocity": 0.3937007874015748
          },
          {
            "duration": 0.21126749999999817,
            "durationTicks": 192,
            "midi": 55,
            "name": "G3",
            "ticks": 45504,
            "time": 50.070397500000006,
            "velocity": 0.3937007874015748
          },
          {
            "duration": 0.21126749999999817,
            "durationTicks": 192,
            "midi": 58,
            "name": "A#3",
            "ticks": 45504,
            "time": 50.070397500000006,
            "velocity": 0.3937007874015748
          },
          {
            "duration": 0.21126749999999817,
            "durationTicks": 192,
            "midi": 73,
            "name": "C#5",
            "ticks": 45504,
            "time": 50.070397500000006,
            "velocity": 0.3937007874015748
          },
          {
            "duration": 0.21126749999999817,
            "durationTicks": 192,
            "midi": 85,
            "name": "C#6",
            "ticks": 45504,
            "time": 50.070397500000006,
            "velocity": 0.3937007874015748
          },
          {
            "duration": 0.21126749999999817,
            "durationTicks": 192,
            "midi": 61,
            "name": "C#4",
            "ticks": 45504,
            "time": 50.070397500000006,
            "velocity": 0.3937007874015748
          },
          {
            "duration": 0.42253500000000344,
            "durationTicks": 384,
            "midi": 76,
            "name": "E5",
            "ticks": 45696,
            "time": 50.281665000000004,
            "velocity": 0.3937007874015748
          },
          {
            "duration": 0.21126750000000527,
            "durationTicks": 192,
            "midi": 34,
            "name": "A#1",
            "ticks": 45696,
            "time": 50.281665000000004,
            "velocity": 0.3937007874015748
          },
          {
            "duration": 0.21126750000000527,
            "durationTicks": 192,
            "midi": 46,
            "name": "A#2",
            "ticks": 45696,
            "time": 50.281665000000004,
            "velocity": 0.3937007874015748
          },
          {
            "duration": 0.42253500000000344,
            "durationTicks": 384,
            "midi": 70,
            "name": "A#4",
            "ticks": 45696,
            "time": 50.281665000000004,
            "velocity": 0.3937007874015748
          },
          {
            "duration": 0.42253500000000344,
            "durationTicks": 384,
            "midi": 82,
            "name": "A#5",
            "ticks": 45696,
            "time": 50.281665000000004,
            "velocity": 0.3937007874015748
          },
          {
            "duration": 0.42253500000000344,
            "durationTicks": 384,
            "midi": 79,
            "name": "G5",
            "ticks": 45696,
            "time": 50.281665000000004,
            "velocity": 0.3937007874015748
          },
          {
            "duration": 0.21126749999999817,
            "durationTicks": 192,
            "midi": 55,
            "name": "G3",
            "ticks": 45888,
            "time": 50.49293250000001,
            "velocity": 0.3937007874015748
          },
          {
            "duration": 0.21126749999999817,
            "durationTicks": 192,
            "midi": 58,
            "name": "A#3",
            "ticks": 45888,
            "time": 50.49293250000001,
            "velocity": 0.3937007874015748
          },
          {
            "duration": 0.21126749999999817,
            "durationTicks": 192,
            "midi": 61,
            "name": "C#4",
            "ticks": 45888,
            "time": 50.49293250000001,
            "velocity": 0.3937007874015748
          },
          {
            "duration": 0.21126749999999817,
            "durationTicks": 192,
            "midi": 31,
            "name": "G1",
            "ticks": 46080,
            "time": 50.70420000000001,
            "velocity": 0.3937007874015748
          },
          {
            "duration": 0.21126749999999817,
            "durationTicks": 192,
            "midi": 43,
            "name": "G2",
            "ticks": 46080,
            "time": 50.70420000000001,
            "velocity": 0.3937007874015748
          },
          {
            "duration": 0.21126749999999817,
            "durationTicks": 192,
            "midi": 32,
            "name": "G#1",
            "ticks": 46272,
            "time": 50.915467500000005,
            "velocity": 0.3937007874015748
          },
          {
            "duration": 0.21126749999999817,
            "durationTicks": 192,
            "midi": 44,
            "name": "G#2",
            "ticks": 46272,
            "time": 50.915467500000005,
            "velocity": 0.3937007874015748
          },
          {
            "duration": 0.8450699999999998,
            "durationTicks": 768,
            "midi": 79,
            "name": "G5",
            "ticks": 46464,
            "time": 51.126735000000004,
            "velocity": 0.3937007874015748
          },
          {
            "duration": 0.42253500000000344,
            "durationTicks": 384,
            "midi": 85,
            "name": "C#6",
            "ticks": 46464,
            "time": 51.126735000000004,
            "velocity": 0.3937007874015748
          },
          {
            "duration": 0.8450699999999998,
            "durationTicks": 768,
            "midi": 73,
            "name": "C#5",
            "ticks": 46464,
            "time": 51.126735000000004,
            "velocity": 0.3937007874015748
          },
          {
            "duration": 0.42253500000000344,
            "durationTicks": 384,
            "midi": 82,
            "name": "A#5",
            "ticks": 46464,
            "time": 51.126735000000004,
            "velocity": 0.3937007874015748
          },
          {
            "duration": 0.21126750000000527,
            "durationTicks": 192,
            "midi": 46,
            "name": "A#2",
            "ticks": 46464,
            "time": 51.126735000000004,
            "velocity": 0.3937007874015748
          },
          {
            "duration": 0.21126750000000527,
            "durationTicks": 192,
            "midi": 34,
            "name": "A#1",
            "ticks": 46464,
            "time": 51.126735000000004,
            "velocity": 0.3937007874015748
          },
          {
            "duration": 0.21126749999999817,
            "durationTicks": 192,
            "midi": 61,
            "name": "C#4",
            "ticks": 46656,
            "time": 51.33800250000001,
            "velocity": 0.3937007874015748
          },
          {
            "duration": 0.21126749999999817,
            "durationTicks": 192,
            "midi": 58,
            "name": "A#3",
            "ticks": 46656,
            "time": 51.33800250000001,
            "velocity": 0.3937007874015748
          },
          {
            "duration": 0.21126749999999817,
            "durationTicks": 192,
            "midi": 55,
            "name": "G3",
            "ticks": 46656,
            "time": 51.33800250000001,
            "velocity": 0.3937007874015748
          },
          {
            "duration": 0.21126749999999817,
            "durationTicks": 192,
            "midi": 46,
            "name": "A#2",
            "ticks": 46848,
            "time": 51.54927000000001,
            "velocity": 0.3937007874015748
          },
          {
            "duration": 0.21126749999999817,
            "durationTicks": 192,
            "midi": 34,
            "name": "A#1",
            "ticks": 46848,
            "time": 51.54927000000001,
            "velocity": 0.3937007874015748
          },
          {
            "duration": 0.42253499999999633,
            "durationTicks": 384,
            "midi": 82,
            "name": "A#5",
            "ticks": 46848,
            "time": 51.54927000000001,
            "velocity": 0.3937007874015748
          },
          {
            "duration": 0.21126749999999817,
            "durationTicks": 192,
            "midi": 58,
            "name": "A#3",
            "ticks": 47040,
            "time": 51.760537500000005,
            "velocity": 0.3937007874015748
          },
          {
            "duration": 0.21126749999999817,
            "durationTicks": 192,
            "midi": 85,
            "name": "C#6",
            "ticks": 47040,
            "time": 51.760537500000005,
            "velocity": 0.3937007874015748
          },
          {
            "duration": 0.21126749999999817,
            "durationTicks": 192,
            "midi": 55,
            "name": "G3",
            "ticks": 47040,
            "time": 51.760537500000005,
            "velocity": 0.3937007874015748
          },
          {
            "duration": 0.21126749999999817,
            "durationTicks": 192,
            "midi": 61,
            "name": "C#4",
            "ticks": 47040,
            "time": 51.760537500000005,
            "velocity": 0.3937007874015748
          },
          {
            "duration": 0.21126750000000527,
            "durationTicks": 192,
            "midi": 43,
            "name": "G2",
            "ticks": 47232,
            "time": 51.971805,
            "velocity": 0.3937007874015748
          },
          {
            "duration": 0.21126750000000527,
            "durationTicks": 192,
            "midi": 87,
            "name": "D#6",
            "ticks": 47232,
            "time": 51.971805,
            "velocity": 0.3937007874015748
          },
          {
            "duration": 0.21126750000000527,
            "durationTicks": 192,
            "midi": 75,
            "name": "D#5",
            "ticks": 47232,
            "time": 51.971805,
            "velocity": 0.3937007874015748
          },
          {
            "duration": 0.21126750000000527,
            "durationTicks": 192,
            "midi": 31,
            "name": "G1",
            "ticks": 47232,
            "time": 51.971805,
            "velocity": 0.3937007874015748
          },
          {
            "duration": 0.21126749999999817,
            "durationTicks": 192,
            "midi": 55,
            "name": "G3",
            "ticks": 47424,
            "time": 52.18307250000001,
            "velocity": 0.3937007874015748
          },
          {
            "duration": 0.21126749999999817,
            "durationTicks": 192,
            "midi": 58,
            "name": "A#3",
            "ticks": 47424,
            "time": 52.18307250000001,
            "velocity": 0.3937007874015748
          },
          {
            "duration": 0.21126749999999817,
            "durationTicks": 192,
            "midi": 61,
            "name": "C#4",
            "ticks": 47424,
            "time": 52.18307250000001,
            "velocity": 0.3937007874015748
          },
          {
            "duration": 0.21126749999999817,
            "durationTicks": 192,
            "midi": 73,
            "name": "C#5",
            "ticks": 47424,
            "time": 52.18307250000001,
            "velocity": 0.3937007874015748
          },
          {
            "duration": 0.21126749999999817,
            "durationTicks": 192,
            "midi": 85,
            "name": "C#6",
            "ticks": 47424,
            "time": 52.18307250000001,
            "velocity": 0.3937007874015748
          },
          {
            "duration": 0.21126749999999817,
            "durationTicks": 192,
            "midi": 72,
            "name": "C5",
            "ticks": 47616,
            "time": 52.39434000000001,
            "velocity": 0.3937007874015748
          },
          {
            "duration": 0.21126749999999817,
            "durationTicks": 192,
            "midi": 84,
            "name": "C6",
            "ticks": 47616,
            "time": 52.39434000000001,
            "velocity": 0.3937007874015748
          },
          {
            "duration": 0.21126749999999817,
            "durationTicks": 192,
            "midi": 44,
            "name": "G#2",
            "ticks": 47616,
            "time": 52.39434000000001,
            "velocity": 0.3937007874015748
          },
          {
            "duration": 0.21126749999999817,
            "durationTicks": 192,
            "midi": 32,
            "name": "G#1",
            "ticks": 47616,
            "time": 52.39434000000001,
            "velocity": 0.3937007874015748
          },
          {
            "duration": 0.21126749999999817,
            "durationTicks": 192,
            "midi": 34,
            "name": "A#1",
            "ticks": 47808,
            "time": 52.605607500000005,
            "velocity": 0.3937007874015748
          },
          {
            "duration": 0.21126749999999817,
            "durationTicks": 192,
            "midi": 73,
            "name": "C#5",
            "ticks": 47808,
            "time": 52.605607500000005,
            "velocity": 0.3937007874015748
          },
          {
            "duration": 0.21126749999999817,
            "durationTicks": 192,
            "midi": 85,
            "name": "C#6",
            "ticks": 47808,
            "time": 52.605607500000005,
            "velocity": 0.3937007874015748
          },
          {
            "duration": 0.21126749999999817,
            "durationTicks": 192,
            "midi": 46,
            "name": "A#2",
            "ticks": 47808,
            "time": 52.605607500000005,
            "velocity": 0.3937007874015748
          },
          {
            "duration": 0.21126750000000527,
            "durationTicks": 192,
            "midi": 36,
            "name": "C2",
            "ticks": 48000,
            "time": 52.816875,
            "velocity": 0.3937007874015748
          },
          {
            "duration": 0.21126750000000527,
            "durationTicks": 192,
            "midi": 72,
            "name": "C5",
            "ticks": 48000,
            "time": 52.816875,
            "velocity": 0.3937007874015748
          },
          {
            "duration": 0.21126750000000527,
            "durationTicks": 192,
            "midi": 84,
            "name": "C6",
            "ticks": 48000,
            "time": 52.816875,
            "velocity": 0.3937007874015748
          },
          {
            "duration": 0.21126750000000527,
            "durationTicks": 192,
            "midi": 48,
            "name": "C3",
            "ticks": 48000,
            "time": 52.816875,
            "velocity": 0.3937007874015748
          },
          {
            "duration": 0.21126749999999817,
            "durationTicks": 192,
            "midi": 72,
            "name": "C5",
            "ticks": 48192,
            "time": 53.02814250000001,
            "velocity": 0.3937007874015748
          },
          {
            "duration": 0.21126749999999817,
            "durationTicks": 192,
            "midi": 84,
            "name": "C6",
            "ticks": 48192,
            "time": 53.02814250000001,
            "velocity": 0.3937007874015748
          },
          {
            "duration": 0.21126749999999817,
            "durationTicks": 192,
            "midi": 58,
            "name": "A#3",
            "ticks": 48192,
            "time": 53.02814250000001,
            "velocity": 0.3937007874015748
          },
          {
            "duration": 0.21126749999999817,
            "durationTicks": 192,
            "midi": 48,
            "name": "C3",
            "ticks": 48192,
            "time": 53.02814250000001,
            "velocity": 0.3937007874015748
          },
          {
            "duration": 0.21126749999999817,
            "durationTicks": 192,
            "midi": 52,
            "name": "E3",
            "ticks": 48192,
            "time": 53.02814250000001,
            "velocity": 0.3937007874015748
          },
          {
            "duration": 0.21126749999999817,
            "durationTicks": 192,
            "midi": 80,
            "name": "G#5",
            "ticks": 48192,
            "time": 53.02814250000001,
            "velocity": 0.3937007874015748
          },
          {
            "duration": 0.21126749999999817,
            "durationTicks": 192,
            "midi": 55,
            "name": "G3",
            "ticks": 48384,
            "time": 53.23941000000001,
            "velocity": 0.3937007874015748
          },
          {
            "duration": 0.21126749999999817,
            "durationTicks": 192,
            "midi": 43,
            "name": "G2",
            "ticks": 48384,
            "time": 53.23941000000001,
            "velocity": 0.3937007874015748
          },
          {
            "duration": 0.21126749999999817,
            "durationTicks": 192,
            "midi": 82,
            "name": "A#5",
            "ticks": 48384,
            "time": 53.23941000000001,
            "velocity": 0.3937007874015748
          },
          {
            "duration": 0.21126749999999817,
            "durationTicks": 192,
            "midi": 70,
            "name": "A#4",
            "ticks": 48384,
            "time": 53.23941000000001,
            "velocity": 0.3937007874015748
          },
          {
            "duration": 0.21126749999999817,
            "durationTicks": 192,
            "midi": 79,
            "name": "G5",
            "ticks": 48384,
            "time": 53.23941000000001,
            "velocity": 0.3937007874015748
          },
          {
            "duration": 0.21126749999999817,
            "durationTicks": 192,
            "midi": 68,
            "name": "G#4",
            "ticks": 48576,
            "time": 53.450677500000005,
            "velocity": 0.3937007874015748
          },
          {
            "duration": 0.21126749999999817,
            "durationTicks": 192,
            "midi": 58,
            "name": "A#3",
            "ticks": 48576,
            "time": 53.450677500000005,
            "velocity": 0.3937007874015748
          },
          {
            "duration": 0.21126749999999817,
            "durationTicks": 192,
            "midi": 52,
            "name": "E3",
            "ticks": 48576,
            "time": 53.450677500000005,
            "velocity": 0.3937007874015748
          },
          {
            "duration": 0.21126749999999817,
            "durationTicks": 192,
            "midi": 48,
            "name": "C3",
            "ticks": 48576,
            "time": 53.450677500000005,
            "velocity": 0.3937007874015748
          },
          {
            "duration": 0.21126749999999817,
            "durationTicks": 192,
            "midi": 80,
            "name": "G#5",
            "ticks": 48576,
            "time": 53.450677500000005,
            "velocity": 0.3937007874015748
          },
          {
            "duration": 0.21126749999999817,
            "durationTicks": 192,
            "midi": 77,
            "name": "F5",
            "ticks": 48576,
            "time": 53.450677500000005,
            "velocity": 0.3937007874015748
          },
          {
            "duration": 0.21126750000000527,
            "durationTicks": 192,
            "midi": 72,
            "name": "C5",
            "ticks": 48768,
            "time": 53.661945,
            "velocity": 0.3937007874015748
          },
          {
            "duration": 0.21126750000000527,
            "durationTicks": 192,
            "midi": 36,
            "name": "C2",
            "ticks": 48768,
            "time": 53.661945,
            "velocity": 0.3937007874015748
          },
          {
            "duration": 0.21126750000000527,
            "durationTicks": 192,
            "midi": 84,
            "name": "C6",
            "ticks": 48768,
            "time": 53.661945,
            "velocity": 0.3937007874015748
          },
          {
            "duration": 0.21126750000000527,
            "durationTicks": 192,
            "midi": 76,
            "name": "E5",
            "ticks": 48768,
            "time": 53.661945,
            "velocity": 0.3937007874015748
          },
          {
            "duration": 0.21126750000000527,
            "durationTicks": 192,
            "midi": 48,
            "name": "C3",
            "ticks": 48768,
            "time": 53.661945,
            "velocity": 0.3937007874015748
          },
          {
            "duration": 0.21126749999999817,
            "durationTicks": 192,
            "midi": 73,
            "name": "C#5",
            "ticks": 48960,
            "time": 53.87321250000001,
            "velocity": 0.3937007874015748
          },
          {
            "duration": 0.21126749999999817,
            "durationTicks": 192,
            "midi": 70,
            "name": "A#4",
            "ticks": 48960,
            "time": 53.87321250000001,
            "velocity": 0.3937007874015748
          },
          {
            "duration": 0.21126749999999817,
            "durationTicks": 192,
            "midi": 52,
            "name": "E3",
            "ticks": 48960,
            "time": 53.87321250000001,
            "velocity": 0.3937007874015748
          },
          {
            "duration": 0.21126749999999817,
            "durationTicks": 192,
            "midi": 55,
            "name": "G3",
            "ticks": 48960,
            "time": 53.87321250000001,
            "velocity": 0.3937007874015748
          },
          {
            "duration": 0.21126749999999817,
            "durationTicks": 192,
            "midi": 82,
            "name": "A#5",
            "ticks": 48960,
            "time": 53.87321250000001,
            "velocity": 0.3937007874015748
          },
          {
            "duration": 0.21126749999999817,
            "durationTicks": 192,
            "midi": 48,
            "name": "C3",
            "ticks": 48960,
            "time": 53.87321250000001,
            "velocity": 0.3937007874015748
          },
          {
            "duration": 0.21126749999999817,
            "durationTicks": 192,
            "midi": 38,
            "name": "D2",
            "ticks": 49152,
            "time": 54.084480000000006,
            "velocity": 0.3937007874015748
          },
          {
            "duration": 0.21126749999999817,
            "durationTicks": 192,
            "midi": 50,
            "name": "D3",
            "ticks": 49152,
            "time": 54.084480000000006,
            "velocity": 0.3937007874015748
          },
          {
            "duration": 0.21126749999999817,
            "durationTicks": 192,
            "midi": 80,
            "name": "G#5",
            "ticks": 49152,
            "time": 54.084480000000006,
            "velocity": 0.3937007874015748
          },
          {
            "duration": 0.21126749999999817,
            "durationTicks": 192,
            "midi": 72,
            "name": "C5",
            "ticks": 49152,
            "time": 54.084480000000006,
            "velocity": 0.3937007874015748
          },
          {
            "duration": 0.21126749999999817,
            "durationTicks": 192,
            "midi": 68,
            "name": "G#4",
            "ticks": 49152,
            "time": 54.084480000000006,
            "velocity": 0.3937007874015748
          },
          {
            "duration": 0.21126750000000527,
            "durationTicks": 192,
            "midi": 67,
            "name": "G4",
            "ticks": 49344,
            "time": 54.295747500000004,
            "velocity": 0.3937007874015748
          },
          {
            "duration": 0.21126750000000527,
            "durationTicks": 192,
            "midi": 79,
            "name": "G5",
            "ticks": 49344,
            "time": 54.295747500000004,
            "velocity": 0.3937007874015748
          },
          {
            "duration": 0.21126750000000527,
            "durationTicks": 192,
            "midi": 52,
            "name": "E3",
            "ticks": 49344,
            "time": 54.295747500000004,
            "velocity": 0.3937007874015748
          },
          {
            "duration": 0.21126750000000527,
            "durationTicks": 192,
            "midi": 70,
            "name": "A#4",
            "ticks": 49344,
            "time": 54.295747500000004,
            "velocity": 0.3937007874015748
          },
          {
            "duration": 0.21126750000000527,
            "durationTicks": 192,
            "midi": 40,
            "name": "E2",
            "ticks": 49344,
            "time": 54.295747500000004,
            "velocity": 0.3937007874015748
          },
          {
            "duration": 0.21126749999999817,
            "durationTicks": 192,
            "midi": 53,
            "name": "F3",
            "ticks": 49536,
            "time": 54.50701500000001,
            "velocity": 0.3937007874015748
          },
          {
            "duration": 0.42253499999999633,
            "durationTicks": 384,
            "midi": 80,
            "name": "G#5",
            "ticks": 49536,
            "time": 54.50701500000001,
            "velocity": 0.3937007874015748
          },
          {
            "duration": 0.21126749999999817,
            "durationTicks": 192,
            "midi": 41,
            "name": "F2",
            "ticks": 49536,
            "time": 54.50701500000001,
            "velocity": 0.3937007874015748
          },
          {
            "duration": 0.42253499999999633,
            "durationTicks": 384,
            "midi": 77,
            "name": "F5",
            "ticks": 49536,
            "time": 54.50701500000001,
            "velocity": 0.3937007874015748
          },
          {
            "duration": 0.42253499999999633,
            "durationTicks": 384,
            "midi": 72,
            "name": "C5",
            "ticks": 49536,
            "time": 54.50701500000001,
            "velocity": 0.3937007874015748
          },
          {
            "duration": 0.42253499999999633,
            "durationTicks": 384,
            "midi": 84,
            "name": "C6",
            "ticks": 49536,
            "time": 54.50701500000001,
            "velocity": 0.3937007874015748
          },
          {
            "duration": 0.21126749999999817,
            "durationTicks": 192,
            "midi": 53,
            "name": "F3",
            "ticks": 49728,
            "time": 54.71828250000001,
            "velocity": 0.3937007874015748
          },
          {
            "duration": 0.21126749999999817,
            "durationTicks": 192,
            "midi": 56,
            "name": "G#3",
            "ticks": 49728,
            "time": 54.71828250000001,
            "velocity": 0.3937007874015748
          },
          {
            "duration": 0.21126749999999817,
            "durationTicks": 192,
            "midi": 48,
            "name": "C3",
            "ticks": 49728,
            "time": 54.71828250000001,
            "velocity": 0.3937007874015748
          },
          {
            "duration": 0.21126749999999817,
            "durationTicks": 192,
            "midi": 48,
            "name": "C3",
            "ticks": 49920,
            "time": 54.929550000000006,
            "velocity": 0.3937007874015748
          },
          {
            "duration": 0.42253500000000344,
            "durationTicks": 384,
            "midi": 72,
            "name": "C5",
            "ticks": 49920,
            "time": 54.929550000000006,
            "velocity": 0.3937007874015748
          },
          {
            "duration": 0.42253500000000344,
            "durationTicks": 384,
            "midi": 77,
            "name": "F5",
            "ticks": 49920,
            "time": 54.929550000000006,
            "velocity": 0.3937007874015748
          },
          {
            "duration": 0.42253500000000344,
            "durationTicks": 384,
            "midi": 80,
            "name": "G#5",
            "ticks": 49920,
            "time": 54.929550000000006,
            "velocity": 0.3937007874015748
          },
          {
            "duration": 0.42253500000000344,
            "durationTicks": 384,
            "midi": 84,
            "name": "C6",
            "ticks": 49920,
            "time": 54.929550000000006,
            "velocity": 0.3937007874015748
          },
          {
            "duration": 0.21126749999999817,
            "durationTicks": 192,
            "midi": 36,
            "name": "C2",
            "ticks": 49920,
            "time": 54.929550000000006,
            "velocity": 0.3937007874015748
          },
          {
            "duration": 0.21126750000000527,
            "durationTicks": 192,
            "midi": 53,
            "name": "F3",
            "ticks": 50112,
            "time": 55.140817500000004,
            "velocity": 0.3937007874015748
          },
          {
            "duration": 0.21126750000000527,
            "durationTicks": 192,
            "midi": 48,
            "name": "C3",
            "ticks": 50112,
            "time": 55.140817500000004,
            "velocity": 0.3937007874015748
          },
          {
            "duration": 0.21126750000000527,
            "durationTicks": 192,
            "midi": 56,
            "name": "G#3",
            "ticks": 50112,
            "time": 55.140817500000004,
            "velocity": 0.3937007874015748
          },
          {
            "duration": 0.026408437500002435,
            "durationTicks": 24,
            "midi": 87,
            "name": "D#6",
            "ticks": 50256,
            "time": 55.299268125000005,
            "velocity": 0.3937007874015748
          },
          {
            "duration": 0.026408437500002435,
            "durationTicks": 24,
            "midi": 88,
            "name": "E6",
            "ticks": 50280,
            "time": 55.32567656250001,
            "velocity": 0.3937007874015748
          },
          {
            "duration": 0.42253499999999633,
            "durationTicks": 384,
            "midi": 77,
            "name": "F5",
            "ticks": 50304,
            "time": 55.35208500000001,
            "velocity": 0.3937007874015748
          },
          {
            "duration": 0.42253499999999633,
            "durationTicks": 384,
            "midi": 89,
            "name": "F6",
            "ticks": 50304,
            "time": 55.35208500000001,
            "velocity": 0.3937007874015748
          },
          {
            "duration": 0.21126749999999817,
            "durationTicks": 192,
            "midi": 41,
            "name": "F2",
            "ticks": 50304,
            "time": 55.35208500000001,
            "velocity": 0.3937007874015748
          },
          {
            "duration": 0.21126749999999817,
            "durationTicks": 192,
            "midi": 29,
            "name": "F1",
            "ticks": 50304,
            "time": 55.35208500000001,
            "velocity": 0.3937007874015748
          },
          {
            "duration": 0.21126749999999817,
            "durationTicks": 192,
            "midi": 48,
            "name": "C3",
            "ticks": 50496,
            "time": 55.56335250000001,
            "velocity": 0.3937007874015748
          },
          {
            "duration": 0.21126749999999817,
            "durationTicks": 192,
            "midi": 53,
            "name": "F3",
            "ticks": 50496,
            "time": 55.56335250000001,
            "velocity": 0.3937007874015748
          },
          {
            "duration": 0.21126749999999817,
            "durationTicks": 192,
            "midi": 56,
            "name": "G#3",
            "ticks": 50496,
            "time": 55.56335250000001,
            "velocity": 0.3937007874015748
          },
          {
            "duration": 0.42253500000000344,
            "durationTicks": 384,
            "midi": 84,
            "name": "C6",
            "ticks": 50688,
            "time": 55.774620000000006,
            "velocity": 0.3937007874015748
          },
          {
            "duration": 0.21126749999999817,
            "durationTicks": 192,
            "midi": 32,
            "name": "G#1",
            "ticks": 50688,
            "time": 55.774620000000006,
            "velocity": 0.3937007874015748
          },
          {
            "duration": 0.21126749999999817,
            "durationTicks": 192,
            "midi": 44,
            "name": "G#2",
            "ticks": 50688,
            "time": 55.774620000000006,
            "velocity": 0.3937007874015748
          },
          {
            "duration": 0.42253500000000344,
            "durationTicks": 384,
            "midi": 72,
            "name": "C5",
            "ticks": 50688,
            "time": 55.774620000000006,
            "velocity": 0.3937007874015748
          },
          {
            "duration": 0.21126750000000527,
            "durationTicks": 192,
            "midi": 56,
            "name": "G#3",
            "ticks": 50880,
            "time": 55.985887500000004,
            "velocity": 0.3937007874015748
          },
          {
            "duration": 0.21126750000000527,
            "durationTicks": 192,
            "midi": 48,
            "name": "C3",
            "ticks": 50880,
            "time": 55.985887500000004,
            "velocity": 0.3937007874015748
          },
          {
            "duration": 0.21126750000000527,
            "durationTicks": 192,
            "midi": 53,
            "name": "F3",
            "ticks": 50880,
            "time": 55.985887500000004,
            "velocity": 0.3937007874015748
          },
          {
            "duration": 0.21126749999999817,
            "durationTicks": 192,
            "midi": 43,
            "name": "G2",
            "ticks": 51072,
            "time": 56.19715500000001,
            "velocity": 0.3937007874015748
          },
          {
            "duration": 0.21126749999999817,
            "durationTicks": 192,
            "midi": 75,
            "name": "D#5",
            "ticks": 51072,
            "time": 56.19715500000001,
            "velocity": 0.3937007874015748
          },
          {
            "duration": 0.21126749999999817,
            "durationTicks": 192,
            "midi": 87,
            "name": "D#6",
            "ticks": 51072,
            "time": 56.19715500000001,
            "velocity": 0.3937007874015748
          },
          {
            "duration": 0.21126749999999817,
            "durationTicks": 192,
            "midi": 31,
            "name": "G1",
            "ticks": 51072,
            "time": 56.19715500000001,
            "velocity": 0.3937007874015748
          },
          {
            "duration": 0.21126749999999817,
            "durationTicks": 192,
            "midi": 55,
            "name": "G3",
            "ticks": 51264,
            "time": 56.40842250000001,
            "velocity": 0.3937007874015748
          },
          {
            "duration": 0.21126749999999817,
            "durationTicks": 192,
            "midi": 73,
            "name": "C#5",
            "ticks": 51264,
            "time": 56.40842250000001,
            "velocity": 0.3937007874015748
          },
          {
            "duration": 0.21126749999999817,
            "durationTicks": 192,
            "midi": 58,
            "name": "A#3",
            "ticks": 51264,
            "time": 56.40842250000001,
            "velocity": 0.3937007874015748
          },
          {
            "duration": 0.21126749999999817,
            "durationTicks": 192,
            "midi": 61,
            "name": "C#4",
            "ticks": 51264,
            "time": 56.40842250000001,
            "velocity": 0.3937007874015748
          },
          {
            "duration": 0.21126749999999817,
            "durationTicks": 192,
            "midi": 85,
            "name": "C#6",
            "ticks": 51264,
            "time": 56.40842250000001,
            "velocity": 0.3937007874015748
          },
          {
            "duration": 0.21126749999999817,
            "durationTicks": 192,
            "midi": 31,
            "name": "G1",
            "ticks": 51456,
            "time": 56.619690000000006,
            "velocity": 0.3937007874015748
          },
          {
            "duration": 0.21126749999999817,
            "durationTicks": 192,
            "midi": 43,
            "name": "G2",
            "ticks": 51456,
            "time": 56.619690000000006,
            "velocity": 0.3937007874015748
          },
          {
            "duration": 0.21126749999999817,
            "durationTicks": 192,
            "midi": 84,
            "name": "C6",
            "ticks": 51456,
            "time": 56.619690000000006,
            "velocity": 0.3937007874015748
          },
          {
            "duration": 0.21126749999999817,
            "durationTicks": 192,
            "midi": 72,
            "name": "C5",
            "ticks": 51456,
            "time": 56.619690000000006,
            "velocity": 0.3937007874015748
          },
          {
            "duration": 0.21126750000000527,
            "durationTicks": 192,
            "midi": 73,
            "name": "C#5",
            "ticks": 51648,
            "time": 56.830957500000004,
            "velocity": 0.3937007874015748
          },
          {
            "duration": 0.21126750000000527,
            "durationTicks": 192,
            "midi": 61,
            "name": "C#4",
            "ticks": 51648,
            "time": 56.830957500000004,
            "velocity": 0.3937007874015748
          },
          {
            "duration": 0.21126750000000527,
            "durationTicks": 192,
            "midi": 55,
            "name": "G3",
            "ticks": 51648,
            "time": 56.830957500000004,
            "velocity": 0.3937007874015748
          },
          {
            "duration": 0.21126750000000527,
            "durationTicks": 192,
            "midi": 58,
            "name": "A#3",
            "ticks": 51648,
            "time": 56.830957500000004,
            "velocity": 0.3937007874015748
          },
          {
            "duration": 0.21126750000000527,
            "durationTicks": 192,
            "midi": 85,
            "name": "C#6",
            "ticks": 51648,
            "time": 56.830957500000004,
            "velocity": 0.3937007874015748
          },
          {
            "duration": 0.21126749999999817,
            "durationTicks": 192,
            "midi": 34,
            "name": "A#1",
            "ticks": 51840,
            "time": 57.04222500000001,
            "velocity": 0.3937007874015748
          },
          {
            "duration": 0.42253499999999633,
            "durationTicks": 384,
            "midi": 82,
            "name": "A#5",
            "ticks": 51840,
            "time": 57.04222500000001,
            "velocity": 0.3937007874015748
          },
          {
            "duration": 0.42253499999999633,
            "durationTicks": 384,
            "midi": 79,
            "name": "G5",
            "ticks": 51840,
            "time": 57.04222500000001,
            "velocity": 0.3937007874015748
          },
          {
            "duration": 0.21126749999999817,
            "durationTicks": 192,
            "midi": 46,
            "name": "A#2",
            "ticks": 51840,
            "time": 57.04222500000001,
            "velocity": 0.3937007874015748
          },
          {
            "duration": 0.42253499999999633,
            "durationTicks": 384,
            "midi": 76,
            "name": "E5",
            "ticks": 51840,
            "time": 57.04222500000001,
            "velocity": 0.3937007874015748
          },
          {
            "duration": 0.42253499999999633,
            "durationTicks": 384,
            "midi": 70,
            "name": "A#4",
            "ticks": 51840,
            "time": 57.04222500000001,
            "velocity": 0.3937007874015748
          },
          {
            "duration": 0.21126749999999817,
            "durationTicks": 192,
            "midi": 61,
            "name": "C#4",
            "ticks": 52032,
            "time": 57.25349250000001,
            "velocity": 0.3937007874015748
          },
          {
            "duration": 0.21126749999999817,
            "durationTicks": 192,
            "midi": 58,
            "name": "A#3",
            "ticks": 52032,
            "time": 57.25349250000001,
            "velocity": 0.3937007874015748
          },
          {
            "duration": 0.21126749999999817,
            "durationTicks": 192,
            "midi": 55,
            "name": "G3",
            "ticks": 52032,
            "time": 57.25349250000001,
            "velocity": 0.3937007874015748
          },
          {
            "duration": 0.21126749999999817,
            "durationTicks": 192,
            "midi": 37,
            "name": "C#2",
            "ticks": 52224,
            "time": 57.464760000000005,
            "velocity": 0.3937007874015748
          },
          {
            "duration": 0.21126749999999817,
            "durationTicks": 192,
            "midi": 49,
            "name": "C#3",
            "ticks": 52224,
            "time": 57.464760000000005,
            "velocity": 0.3937007874015748
          },
          {
            "duration": 0.21126750000000527,
            "durationTicks": 192,
            "midi": 61,
            "name": "C#4",
            "ticks": 52416,
            "time": 57.676027500000004,
            "velocity": 0.3937007874015748
          },
          {
            "duration": 0.21126750000000527,
            "durationTicks": 192,
            "midi": 58,
            "name": "A#3",
            "ticks": 52416,
            "time": 57.676027500000004,
            "velocity": 0.3937007874015748
          },
          {
            "duration": 0.21126750000000527,
            "durationTicks": 192,
            "midi": 55,
            "name": "G3",
            "ticks": 52416,
            "time": 57.676027500000004,
            "velocity": 0.3937007874015748
          },
          {
            "duration": 0.21126749999999817,
            "durationTicks": 192,
            "midi": 43,
            "name": "G2",
            "ticks": 52608,
            "time": 57.88729500000001,
            "velocity": 0.3937007874015748
          },
          {
            "duration": 0.21126749999999817,
            "durationTicks": 192,
            "midi": 55,
            "name": "G3",
            "ticks": 52608,
            "time": 57.88729500000001,
            "velocity": 0.3937007874015748
          },
          {
            "duration": 0.8450699999999998,
            "durationTicks": 768,
            "midi": 79,
            "name": "G5",
            "ticks": 52608,
            "time": 57.88729500000001,
            "velocity": 0.3937007874015748
          },
          {
            "duration": 0.8450699999999998,
            "durationTicks": 768,
            "midi": 72,
            "name": "C5",
            "ticks": 52608,
            "time": 57.88729500000001,
            "velocity": 0.3937007874015748
          },
          {
            "duration": 0.8450699999999998,
            "durationTicks": 768,
            "midi": 76,
            "name": "E5",
            "ticks": 52608,
            "time": 57.88729500000001,
            "velocity": 0.3937007874015748
          },
          {
            "duration": 0.8450699999999998,
            "durationTicks": 768,
            "midi": 84,
            "name": "C6",
            "ticks": 52608,
            "time": 57.88729500000001,
            "velocity": 0.3937007874015748
          },
          {
            "duration": 0.21126749999999817,
            "durationTicks": 192,
            "midi": 52,
            "name": "E3",
            "ticks": 52800,
            "time": 58.09856250000001,
            "velocity": 0.3937007874015748
          },
          {
            "duration": 0.21126749999999817,
            "durationTicks": 192,
            "midi": 55,
            "name": "G3",
            "ticks": 52800,
            "time": 58.09856250000001,
            "velocity": 0.3937007874015748
          },
          {
            "duration": 0.21126749999999817,
            "durationTicks": 192,
            "midi": 58,
            "name": "A#3",
            "ticks": 52800,
            "time": 58.09856250000001,
            "velocity": 0.3937007874015748
          },
          {
            "duration": 0.21126749999999817,
            "durationTicks": 192,
            "midi": 48,
            "name": "C3",
            "ticks": 52992,
            "time": 58.309830000000005,
            "velocity": 0.3937007874015748
          },
          {
            "duration": 0.21126749999999817,
            "durationTicks": 192,
            "midi": 36,
            "name": "C2",
            "ticks": 52992,
            "time": 58.309830000000005,
            "velocity": 0.3937007874015748
          },
          {
            "duration": 0.21126750000000527,
            "durationTicks": 192,
            "midi": 58,
            "name": "A#3",
            "ticks": 53184,
            "time": 58.5210975,
            "velocity": 0.3937007874015748
          },
          {
            "duration": 0.21126750000000527,
            "durationTicks": 192,
            "midi": 52,
            "name": "E3",
            "ticks": 53184,
            "time": 58.5210975,
            "velocity": 0.3937007874015748
          },
          {
            "duration": 0.21126750000000527,
            "durationTicks": 192,
            "midi": 55,
            "name": "G3",
            "ticks": 53184,
            "time": 58.5210975,
            "velocity": 0.3937007874015748
          },
          {
            "duration": 0.21126749999999817,
            "durationTicks": 192,
            "midi": 52,
            "name": "E3",
            "ticks": 53376,
            "time": 58.73236500000001,
            "velocity": 0.3937007874015748
          },
          {
            "duration": 0.21126749999999817,
            "durationTicks": 192,
            "midi": 79,
            "name": "G5",
            "ticks": 53376,
            "time": 58.73236500000001,
            "velocity": 0.3937007874015748
          },
          {
            "duration": 0.21126749999999817,
            "durationTicks": 192,
            "midi": 70,
            "name": "A#4",
            "ticks": 53376,
            "time": 58.73236500000001,
            "velocity": 0.3937007874015748
          },
          {
            "duration": 0.21126749999999817,
            "durationTicks": 192,
            "midi": 40,
            "name": "E2",
            "ticks": 53376,
            "time": 58.73236500000001,
            "velocity": 0.3937007874015748
          },
          {
            "duration": 0.21126749999999817,
            "durationTicks": 192,
            "midi": 82,
            "name": "A#5",
            "ticks": 53376,
            "time": 58.73236500000001,
            "velocity": 0.3937007874015748
          },
          {
            "duration": 0.21126749999999817,
            "durationTicks": 192,
            "midi": 77,
            "name": "F5",
            "ticks": 53568,
            "time": 58.94363250000001,
            "velocity": 0.3937007874015748
          },
          {
            "duration": 0.21126749999999817,
            "durationTicks": 192,
            "midi": 80,
            "name": "G#5",
            "ticks": 53568,
            "time": 58.94363250000001,
            "velocity": 0.3937007874015748
          },
          {
            "duration": 0.21126749999999817,
            "durationTicks": 192,
            "midi": 36,
            "name": "C2",
            "ticks": 53568,
            "time": 58.94363250000001,
            "velocity": 0.3937007874015748
          },
          {
            "duration": 0.21126749999999817,
            "durationTicks": 192,
            "midi": 48,
            "name": "C3",
            "ticks": 53568,
            "time": 58.94363250000001,
            "velocity": 0.3937007874015748
          },
          {
            "duration": 0.21126749999999817,
            "durationTicks": 192,
            "midi": 68,
            "name": "G#4",
            "ticks": 53568,
            "time": 58.94363250000001,
            "velocity": 0.3937007874015748
          },
          {
            "duration": 0.21126750000000527,
            "durationTicks": 192,
            "midi": 38,
            "name": "D2",
            "ticks": 53760,
            "time": 59.154900000000005,
            "velocity": 0.3937007874015748
          },
          {
            "duration": 0.21126750000000527,
            "durationTicks": 192,
            "midi": 79,
            "name": "G5",
            "ticks": 53760,
            "time": 59.154900000000005,
            "velocity": 0.3937007874015748
          },
          {
            "duration": 0.21126750000000527,
            "durationTicks": 192,
            "midi": 50,
            "name": "D3",
            "ticks": 53760,
            "time": 59.154900000000005,
            "velocity": 0.3937007874015748
          },
          {
            "duration": 0.21126750000000527,
            "durationTicks": 192,
            "midi": 76,
            "name": "E5",
            "ticks": 53760,
            "time": 59.154900000000005,
            "velocity": 0.3937007874015748
          },
          {
            "duration": 0.21126750000000527,
            "durationTicks": 192,
            "midi": 67,
            "name": "G4",
            "ticks": 53760,
            "time": 59.154900000000005,
            "velocity": 0.3937007874015748
          },
          {
            "duration": 0.21126749999999817,
            "durationTicks": 192,
            "midi": 40,
            "name": "E2",
            "ticks": 53952,
            "time": 59.36616750000001,
            "velocity": 0.3937007874015748
          },
          {
            "duration": 0.21126749999999817,
            "durationTicks": 192,
            "midi": 76,
            "name": "E5",
            "ticks": 53952,
            "time": 59.36616750000001,
            "velocity": 0.3937007874015748
          },
          {
            "duration": 0.21126749999999817,
            "durationTicks": 192,
            "midi": 68,
            "name": "G#4",
            "ticks": 53952,
            "time": 59.36616750000001,
            "velocity": 0.3937007874015748
          },
          {
            "duration": 0.21126749999999817,
            "durationTicks": 192,
            "midi": 52,
            "name": "E3",
            "ticks": 53952,
            "time": 59.36616750000001,
            "velocity": 0.3937007874015748
          },
          {
            "duration": 0.21126749999999817,
            "durationTicks": 192,
            "midi": 80,
            "name": "G#5",
            "ticks": 53952,
            "time": 59.36616750000001,
            "velocity": 0.3937007874015748
          },
          {
            "duration": 0.8450699999999998,
            "durationTicks": 768,
            "midi": 68,
            "name": "G#4",
            "ticks": 54144,
            "time": 59.57743500000001,
            "velocity": 0.3937007874015748
          },
          {
            "duration": 0.8450699999999998,
            "durationTicks": 768,
            "midi": 77,
            "name": "F5",
            "ticks": 54144,
            "time": 59.57743500000001,
            "velocity": 0.3937007874015748
          },
          {
            "duration": 0.8450699999999998,
            "durationTicks": 768,
            "midi": 72,
            "name": "C5",
            "ticks": 54144,
            "time": 59.57743500000001,
            "velocity": 0.3937007874015748
          },
          {
            "duration": 0.8450699999999998,
            "durationTicks": 768,
            "midi": 65,
            "name": "F4",
            "ticks": 54144,
            "time": 59.57743500000001,
            "velocity": 0.3937007874015748
          },
          {
            "duration": 0.21126749999999817,
            "durationTicks": 192,
            "midi": 53,
            "name": "F3",
            "ticks": 54144,
            "time": 59.57743500000001,
            "velocity": 0.3937007874015748
          },
          {
            "duration": 0.21126749999999817,
            "durationTicks": 192,
            "midi": 41,
            "name": "F2",
            "ticks": 54144,
            "time": 59.57743500000001,
            "velocity": 0.3937007874015748
          },
          {
            "duration": 0.21126749999999817,
            "durationTicks": 192,
            "midi": 48,
            "name": "C3",
            "ticks": 54336,
            "time": 59.78870250000001,
            "velocity": 0.3937007874015748
          },
          {
            "duration": 0.21126749999999817,
            "durationTicks": 192,
            "midi": 53,
            "name": "F3",
            "ticks": 54336,
            "time": 59.78870250000001,
            "velocity": 0.3937007874015748
          },
          {
            "duration": 0.21126750000000527,
            "durationTicks": 192,
            "midi": 36,
            "name": "C2",
            "ticks": 54528,
            "time": 59.999970000000005,
            "velocity": 0.3937007874015748
          },
          {
            "duration": 0.21126750000000527,
            "durationTicks": 192,
            "midi": 48,
            "name": "C3",
            "ticks": 54528,
            "time": 59.999970000000005,
            "velocity": 0.3937007874015748
          },
          {
            "duration": 0.21126749999999817,
            "durationTicks": 192,
            "midi": 53,
            "name": "F3",
            "ticks": 54720,
            "time": 60.21123750000001,
            "velocity": 0.3937007874015748
          },
          {
            "duration": 0.21126749999999817,
            "durationTicks": 192,
            "midi": 48,
            "name": "C3",
            "ticks": 54720,
            "time": 60.21123750000001,
            "velocity": 0.3937007874015748
          },
          {
            "duration": 0.42253499999999633,
            "durationTicks": 384,
            "midi": 41,
            "name": "F2",
            "ticks": 54912,
            "time": 60.42250500000001,
            "velocity": 0.3937007874015748
          },
          {
            "duration": 0.42253499999999633,
            "durationTicks": 384,
            "midi": 29,
            "name": "F1",
            "ticks": 54912,
            "time": 60.42250500000001,
            "velocity": 0.3937007874015748
          },
          {
            "duration": 0.42253499999999633,
            "durationTicks": 384,
            "midi": 53,
            "name": "F3",
            "ticks": 54912,
            "time": 60.42250500000001,
            "velocity": 0.3937007874015748
          },
          {
            "duration": 0.21126749999999817,
            "durationTicks": 192,
            "midi": 48,
            "name": "C3",
            "ticks": 55680,
            "time": 61.26757500000001,
            "velocity": 0.3937007874015748
          },
          {
            "duration": 0.21126749999999817,
            "durationTicks": 192,
            "midi": 36,
            "name": "C2",
            "ticks": 55680,
            "time": 61.26757500000001,
            "velocity": 0.3937007874015748
          },
          {
            "duration": 0.21126749999999817,
            "durationTicks": 192,
            "midi": 76,
            "name": "E5",
            "ticks": 55680,
            "time": 61.26757500000001,
            "velocity": 0.3937007874015748
          },
          {
            "duration": 0.10563375000000264,
            "durationTicks": 96,
            "midi": 84,
            "name": "C6",
            "ticks": 55680,
            "time": 61.26757500000001,
            "velocity": 0.3937007874015748
          },
          {
            "duration": 0.10563374999999553,
            "durationTicks": 96,
            "midi": 85,
            "name": "C#6",
            "ticks": 55776,
            "time": 61.37320875000001,
            "velocity": 0.3937007874015748
          },
          {
            "duration": 0.21126749999999817,
            "durationTicks": 192,
            "midi": 52,
            "name": "E3",
            "ticks": 55872,
            "time": 61.478842500000006,
            "velocity": 0.3937007874015748
          },
          {
            "duration": 0.21126749999999817,
            "durationTicks": 192,
            "midi": 58,
            "name": "A#3",
            "ticks": 55872,
            "time": 61.478842500000006,
            "velocity": 0.3937007874015748
          },
          {
            "duration": 0.21126749999999817,
            "durationTicks": 192,
            "midi": 60,
            "name": "C4",
            "ticks": 55872,
            "time": 61.478842500000006,
            "velocity": 0.3937007874015748
          },
          {
            "duration": 0.10563375000000264,
            "durationTicks": 96,
            "midi": 84,
            "name": "C6",
            "ticks": 55872,
            "time": 61.478842500000006,
            "velocity": 0.3937007874015748
          },
          {
            "duration": 0.10563374999999553,
            "durationTicks": 96,
            "midi": 82,
            "name": "A#5",
            "ticks": 55968,
            "time": 61.58447625000001,
            "velocity": 0.3937007874015748
          },
          {
            "duration": 0.21126750000000527,
            "durationTicks": 192,
            "midi": 36,
            "name": "C2",
            "ticks": 56064,
            "time": 61.690110000000004,
            "velocity": 0.3937007874015748
          },
          {
            "duration": 0.10563375000000264,
            "durationTicks": 96,
            "midi": 84,
            "name": "C6",
            "ticks": 56064,
            "time": 61.690110000000004,
            "velocity": 0.3937007874015748
          },
          {
            "duration": 0.10563375000000264,
            "durationTicks": 96,
            "midi": 79,
            "name": "G5",
            "ticks": 56064,
            "time": 61.690110000000004,
            "velocity": 0.3937007874015748
          },
          {
            "duration": 0.21126750000000527,
            "durationTicks": 192,
            "midi": 48,
            "name": "C3",
            "ticks": 56064,
            "time": 61.690110000000004,
            "velocity": 0.3937007874015748
          },
          {
            "duration": 0.10563375000000264,
            "durationTicks": 96,
            "midi": 82,
            "name": "A#5",
            "ticks": 56160,
            "time": 61.79574375000001,
            "velocity": 0.3937007874015748
          },
          {
            "duration": 0.21126749999999817,
            "durationTicks": 192,
            "midi": 52,
            "name": "E3",
            "ticks": 56256,
            "time": 61.90137750000001,
            "velocity": 0.3937007874015748
          },
          {
            "duration": 0.21126749999999817,
            "durationTicks": 192,
            "midi": 60,
            "name": "C4",
            "ticks": 56256,
            "time": 61.90137750000001,
            "velocity": 0.3937007874015748
          },
          {
            "duration": 0.10563374999999553,
            "durationTicks": 96,
            "midi": 80,
            "name": "G#5",
            "ticks": 56256,
            "time": 61.90137750000001,
            "velocity": 0.3937007874015748
          },
          {
            "duration": 0.21126749999999817,
            "durationTicks": 192,
            "midi": 58,
            "name": "A#3",
            "ticks": 56256,
            "time": 61.90137750000001,
            "velocity": 0.3937007874015748
          },
          {
            "duration": 0.10563375000000264,
            "durationTicks": 96,
            "midi": 79,
            "name": "G5",
            "ticks": 56352,
            "time": 62.007011250000005,
            "velocity": 0.3937007874015748
          },
          {
            "duration": 0.21126749999999817,
            "durationTicks": 192,
            "midi": 41,
            "name": "F2",
            "ticks": 56448,
            "time": 62.11264500000001,
            "velocity": 0.3937007874015748
          },
          {
            "duration": 0.21126749999999817,
            "durationTicks": 192,
            "midi": 77,
            "name": "F5",
            "ticks": 56448,
            "time": 62.11264500000001,
            "velocity": 0.3937007874015748
          },
          {
            "duration": 0.21126749999999817,
            "durationTicks": 192,
            "midi": 53,
            "name": "F3",
            "ticks": 56448,
            "time": 62.11264500000001,
            "velocity": 0.3937007874015748
          },
          {
            "duration": 0.21126749999999817,
            "durationTicks": 192,
            "midi": 72,
            "name": "C5",
            "ticks": 56448,
            "time": 62.11264500000001,
            "velocity": 0.3937007874015748
          },
          {
            "duration": 0.21126749999999817,
            "durationTicks": 192,
            "midi": 36,
            "name": "C2",
            "ticks": 57216,
            "time": 62.95771500000001,
            "velocity": 0.3937007874015748
          },
          {
            "duration": 0.10563375000000264,
            "durationTicks": 96,
            "midi": 77,
            "name": "F5",
            "ticks": 57216,
            "time": 62.95771500000001,
            "velocity": 0.3937007874015748
          },
          {
            "duration": 0.21126749999999817,
            "durationTicks": 192,
            "midi": 48,
            "name": "C3",
            "ticks": 57216,
            "time": 62.95771500000001,
            "velocity": 0.3937007874015748
          },
          {
            "duration": 0.10563375000000264,
            "durationTicks": 96,
            "midi": 79,
            "name": "G5",
            "ticks": 57264,
            "time": 63.010531875000005,
            "velocity": 0.3937007874015748
          },
          {
            "duration": 0.10563375000000264,
            "durationTicks": 96,
            "midi": 76,
            "name": "E5",
            "ticks": 57264,
            "time": 63.010531875000005,
            "velocity": 0.3937007874015748
          },
          {
            "duration": 0.10563375000000264,
            "durationTicks": 96,
            "midi": 80,
            "name": "G#5",
            "ticks": 57408,
            "time": 63.168982500000006,
            "velocity": 0.3937007874015748
          },
          {
            "duration": 0.21126750000000527,
            "durationTicks": 192,
            "midi": 55,
            "name": "G3",
            "ticks": 57408,
            "time": 63.168982500000006,
            "velocity": 0.3937007874015748
          },
          {
            "duration": 0.21126750000000527,
            "durationTicks": 192,
            "midi": 60,
            "name": "C4",
            "ticks": 57408,
            "time": 63.168982500000006,
            "velocity": 0.3937007874015748
          },
          {
            "duration": 0.21126750000000527,
            "durationTicks": 192,
            "midi": 58,
            "name": "A#3",
            "ticks": 57408,
            "time": 63.168982500000006,
            "velocity": 0.3937007874015748
          },
          {
            "duration": 0.10563375000000264,
            "durationTicks": 96,
            "midi": 76,
            "name": "E5",
            "ticks": 57408,
            "time": 63.168982500000006,
            "velocity": 0.3937007874015748
          },
          {
            "duration": 0.21126749999999817,
            "durationTicks": 192,
            "midi": 36,
            "name": "C2",
            "ticks": 57600,
            "time": 63.38025000000001,
            "velocity": 0.3937007874015748
          },
          {
            "duration": 0.10563374999999553,
            "durationTicks": 96,
            "midi": 73,
            "name": "C#5",
            "ticks": 57600,
            "time": 63.38025000000001,
            "velocity": 0.3937007874015748
          },
          {
            "duration": 0.21126749999999817,
            "durationTicks": 192,
            "midi": 48,
            "name": "C3",
            "ticks": 57600,
            "time": 63.38025000000001,
            "velocity": 0.3937007874015748
          },
          {
            "duration": 0.10563374999999553,
            "durationTicks": 96,
            "midi": 82,
            "name": "A#5",
            "ticks": 57600,
            "time": 63.38025000000001,
            "velocity": 0.3937007874015748
          },
          {
            "duration": 0.21126749999999817,
            "durationTicks": 192,
            "midi": 60,
            "name": "C4",
            "ticks": 57792,
            "time": 63.59151750000001,
            "velocity": 0.3937007874015748
          },
          {
            "duration": 0.21126749999999817,
            "durationTicks": 192,
            "midi": 58,
            "name": "A#3",
            "ticks": 57792,
            "time": 63.59151750000001,
            "velocity": 0.3937007874015748
          },
          {
            "duration": 0.10563374999999553,
            "durationTicks": 96,
            "midi": 72,
            "name": "C5",
            "ticks": 57792,
            "time": 63.59151750000001,
            "velocity": 0.3937007874015748
          },
          {
            "duration": 0.10563374999999553,
            "durationTicks": 96,
            "midi": 84,
            "name": "C6",
            "ticks": 57792,
            "time": 63.59151750000001,
            "velocity": 0.3937007874015748
          },
          {
            "duration": 0.21126749999999817,
            "durationTicks": 192,
            "midi": 55,
            "name": "G3",
            "ticks": 57792,
            "time": 63.59151750000001,
            "velocity": 0.3937007874015748
          },
          {
            "duration": 0.10563375000000264,
            "durationTicks": 96,
            "midi": 85,
            "name": "C#6",
            "ticks": 57984,
            "time": 63.80278500000001,
            "velocity": 0.3937007874015748
          },
          {
            "duration": 0.21126749999999817,
            "durationTicks": 192,
            "midi": 43,
            "name": "G2",
            "ticks": 57984,
            "time": 63.80278500000001,
            "velocity": 0.3937007874015748
          },
          {
            "duration": 0.21126749999999817,
            "durationTicks": 192,
            "midi": 55,
            "name": "G3",
            "ticks": 57984,
            "time": 63.80278500000001,
            "velocity": 0.3937007874015748
          },
          {
            "duration": 0.10563375000000264,
            "durationTicks": 96,
            "midi": 73,
            "name": "C#5",
            "ticks": 57984,
            "time": 63.80278500000001,
            "velocity": 0.3937007874015748
          },
          {
            "duration": 0.21126750000000527,
            "durationTicks": 192,
            "midi": 60,
            "name": "C4",
            "ticks": 58176,
            "time": 64.0140525,
            "velocity": 0.3937007874015748
          },
          {
            "duration": 0.21126750000000527,
            "durationTicks": 192,
            "midi": 58,
            "name": "A#3",
            "ticks": 58176,
            "time": 64.0140525,
            "velocity": 0.3937007874015748
          },
          {
            "duration": 0.21126750000000527,
            "durationTicks": 192,
            "midi": 52,
            "name": "E3",
            "ticks": 58176,
            "time": 64.0140525,
            "velocity": 0.3937007874015748
          },
          {
            "duration": 0.10563374999999553,
            "durationTicks": 96,
            "midi": 82,
            "name": "A#5",
            "ticks": 58176,
            "time": 64.0140525,
            "velocity": 0.3937007874015748
          },
          {
            "duration": 0.10563374999999553,
            "durationTicks": 96,
            "midi": 70,
            "name": "A#4",
            "ticks": 58176,
            "time": 64.0140525,
            "velocity": 0.3937007874015748
          },
          {
            "duration": 0.42253499999999633,
            "durationTicks": 384,
            "midi": 84,
            "name": "C6",
            "ticks": 58368,
            "time": 64.22532000000001,
            "velocity": 0.3937007874015748
          },
          {
            "duration": 0.21126749999999106,
            "durationTicks": 192,
            "midi": 31,
            "name": "G1",
            "ticks": 58368,
            "time": 64.22532000000001,
            "velocity": 0.3937007874015748
          },
          {
            "duration": 0.21126749999999106,
            "durationTicks": 192,
            "midi": 43,
            "name": "G2",
            "ticks": 58368,
            "time": 64.22532000000001,
            "velocity": 0.3937007874015748
          },
          {
            "duration": 0.42253499999999633,
            "durationTicks": 384,
            "midi": 72,
            "name": "C5",
            "ticks": 58368,
            "time": 64.22532000000001,
            "velocity": 0.3937007874015748
          },
          {
            "duration": 0.21126750000000527,
            "durationTicks": 192,
            "midi": 60,
            "name": "C4",
            "ticks": 58560,
            "time": 64.4365875,
            "velocity": 0.3937007874015748
          },
          {
            "duration": 0.21126750000000527,
            "durationTicks": 192,
            "midi": 52,
            "name": "E3",
            "ticks": 58560,
            "time": 64.4365875,
            "velocity": 0.3937007874015748
          },
          {
            "duration": 0.21126750000000527,
            "durationTicks": 192,
            "midi": 58,
            "name": "A#3",
            "ticks": 58560,
            "time": 64.4365875,
            "velocity": 0.3937007874015748
          },
          {
            "duration": 0.21126750000000527,
            "durationTicks": 192,
            "midi": 76,
            "name": "E5",
            "ticks": 58752,
            "time": 64.647855,
            "velocity": 0.3937007874015748
          },
          {
            "duration": 0.10563374999999553,
            "durationTicks": 96,
            "midi": 84,
            "name": "C6",
            "ticks": 58752,
            "time": 64.647855,
            "velocity": 0.3937007874015748
          },
          {
            "duration": 0.21126750000000527,
            "durationTicks": 192,
            "midi": 55,
            "name": "G3",
            "ticks": 58752,
            "time": 64.647855,
            "velocity": 0.3937007874015748
          },
          {
            "duration": 0.21126750000000527,
            "durationTicks": 192,
            "midi": 43,
            "name": "G2",
            "ticks": 58752,
            "time": 64.647855,
            "velocity": 0.3937007874015748
          },
          {
            "duration": 0.10563375000000974,
            "durationTicks": 96,
            "midi": 85,
            "name": "C#6",
            "ticks": 58848,
            "time": 64.75348875,
            "velocity": 0.3937007874015748
          },
          {
            "duration": 0.21126749999999106,
            "durationTicks": 192,
            "midi": 60,
            "name": "C4",
            "ticks": 58944,
            "time": 64.85912250000001,
            "velocity": 0.3937007874015748
          },
          {
            "duration": 0.21126749999999106,
            "durationTicks": 192,
            "midi": 52,
            "name": "E3",
            "ticks": 58944,
            "time": 64.85912250000001,
            "velocity": 0.3937007874015748
          },
          {
            "duration": 0.21126749999999106,
            "durationTicks": 192,
            "midi": 58,
            "name": "A#3",
            "ticks": 58944,
            "time": 64.85912250000001,
            "velocity": 0.3937007874015748
          },
          {
            "duration": 0.10563374999999553,
            "durationTicks": 96,
            "midi": 84,
            "name": "C6",
            "ticks": 58944,
            "time": 64.85912250000001,
            "velocity": 0.3937007874015748
          },
          {
            "duration": 0.10563374999999553,
            "durationTicks": 96,
            "midi": 82,
            "name": "A#5",
            "ticks": 59040,
            "time": 64.96475625000001,
            "velocity": 0.3937007874015748
          },
          {
            "duration": 0.10563375000000974,
            "durationTicks": 96,
            "midi": 79,
            "name": "G5",
            "ticks": 59136,
            "time": 65.07039,
            "velocity": 0.3937007874015748
          },
          {
            "duration": 0.10563375000000974,
            "durationTicks": 96,
            "midi": 84,
            "name": "C6",
            "ticks": 59136,
            "time": 65.07039,
            "velocity": 0.3937007874015748
          },
          {
            "duration": 0.21126750000000527,
            "durationTicks": 192,
            "midi": 36,
            "name": "C2",
            "ticks": 59136,
            "time": 65.07039,
            "velocity": 0.3937007874015748
          },
          {
            "duration": 0.21126750000000527,
            "durationTicks": 192,
            "midi": 48,
            "name": "C3",
            "ticks": 59136,
            "time": 65.07039,
            "velocity": 0.3937007874015748
          },
          {
            "duration": 0.10563374999999553,
            "durationTicks": 96,
            "midi": 82,
            "name": "A#5",
            "ticks": 59232,
            "time": 65.17602375000001,
            "velocity": 0.3937007874015748
          },
          {
            "duration": 0.21126750000000527,
            "durationTicks": 192,
            "midi": 60,
            "name": "C4",
            "ticks": 59328,
            "time": 65.28165750000001,
            "velocity": 0.3937007874015748
          },
          {
            "duration": 0.21126750000000527,
            "durationTicks": 192,
            "midi": 58,
            "name": "A#3",
            "ticks": 59328,
            "time": 65.28165750000001,
            "velocity": 0.3937007874015748
          },
          {
            "duration": 0.10563374999999553,
            "durationTicks": 96,
            "midi": 80,
            "name": "G#5",
            "ticks": 59328,
            "time": 65.28165750000001,
            "velocity": 0.3937007874015748
          },
          {
            "duration": 0.21126750000000527,
            "durationTicks": 192,
            "midi": 52,
            "name": "E3",
            "ticks": 59328,
            "time": 65.28165750000001,
            "velocity": 0.3937007874015748
          },
          {
            "duration": 0.10563375000000974,
            "durationTicks": 96,
            "midi": 79,
            "name": "G5",
            "ticks": 59424,
            "time": 65.38729125,
            "velocity": 0.3937007874015748
          },
          {
            "duration": 0.21126749999999106,
            "durationTicks": 192,
            "midi": 53,
            "name": "F3",
            "ticks": 59520,
            "time": 65.49292500000001,
            "velocity": 0.3937007874015748
          },
          {
            "duration": 0.21126749999999106,
            "durationTicks": 192,
            "midi": 72,
            "name": "C5",
            "ticks": 59520,
            "time": 65.49292500000001,
            "velocity": 0.3937007874015748
          },
          {
            "duration": 0.21126749999999106,
            "durationTicks": 192,
            "midi": 77,
            "name": "F5",
            "ticks": 59520,
            "time": 65.49292500000001,
            "velocity": 0.3937007874015748
          },
          {
            "duration": 0.21126749999999106,
            "durationTicks": 192,
            "midi": 41,
            "name": "F2",
            "ticks": 59520,
            "time": 65.49292500000001,
            "velocity": 0.3937007874015748
          },
          {
            "duration": 0.21126750000000527,
            "durationTicks": 192,
            "midi": 72,
            "name": "C5",
            "ticks": 60288,
            "time": 66.337995,
            "velocity": 0.3937007874015748
          },
          {
            "duration": 0.21126750000000527,
            "durationTicks": 192,
            "midi": 48,
            "name": "C3",
            "ticks": 60288,
            "time": 66.337995,
            "velocity": 0.3937007874015748
          },
          {
            "duration": 0.21126750000000527,
            "durationTicks": 192,
            "midi": 84,
            "name": "C6",
            "ticks": 60288,
            "time": 66.337995,
            "velocity": 0.3937007874015748
          },
          {
            "duration": 0.21126750000000527,
            "durationTicks": 192,
            "midi": 36,
            "name": "C2",
            "ticks": 60288,
            "time": 66.337995,
            "velocity": 0.3937007874015748
          },
          {
            "duration": 0.21126750000000527,
            "durationTicks": 192,
            "midi": 76,
            "name": "E5",
            "ticks": 60288,
            "time": 66.337995,
            "velocity": 0.3937007874015748
          },
          {
            "duration": 0.21126749999999106,
            "durationTicks": 192,
            "midi": 36,
            "name": "C2",
            "ticks": 60480,
            "time": 66.54926250000001,
            "velocity": 0.3937007874015748
          },
          {
            "duration": 0.21126749999999106,
            "durationTicks": 192,
            "midi": 48,
            "name": "C3",
            "ticks": 60480,
            "time": 66.54926250000001,
            "velocity": 0.3937007874015748
          },
          {
            "duration": 0.21126749999999106,
            "durationTicks": 192,
            "midi": 70,
            "name": "A#4",
            "ticks": 60480,
            "time": 66.54926250000001,
            "velocity": 0.3937007874015748
          },
          {
            "duration": 0.21126749999999106,
            "durationTicks": 192,
            "midi": 82,
            "name": "A#5",
            "ticks": 60480,
            "time": 66.54926250000001,
            "velocity": 0.3937007874015748
          },
          {
            "duration": 0.21126749999999106,
            "durationTicks": 192,
            "midi": 73,
            "name": "C#5",
            "ticks": 60480,
            "time": 66.54926250000001,
            "velocity": 0.3937007874015748
          },
          {
            "duration": 0.21126750000000527,
            "durationTicks": 192,
            "midi": 50,
            "name": "D3",
            "ticks": 60672,
            "time": 66.76053,
            "velocity": 0.3937007874015748
          },
          {
            "duration": 0.21126750000000527,
            "durationTicks": 192,
            "midi": 80,
            "name": "G#5",
            "ticks": 60672,
            "time": 66.76053,
            "velocity": 0.3937007874015748
          },
          {
            "duration": 0.21126750000000527,
            "durationTicks": 192,
            "midi": 38,
            "name": "D2",
            "ticks": 60672,
            "time": 66.76053,
            "velocity": 0.3937007874015748
          },
          {
            "duration": 0.21126750000000527,
            "durationTicks": 192,
            "midi": 72,
            "name": "C5",
            "ticks": 60672,
            "time": 66.76053,
            "velocity": 0.3937007874015748
          },
          {
            "duration": 0.21126750000000527,
            "durationTicks": 192,
            "midi": 68,
            "name": "G#4",
            "ticks": 60672,
            "time": 66.76053,
            "velocity": 0.3937007874015748
          },
          {
            "duration": 0.21126750000000527,
            "durationTicks": 192,
            "midi": 70,
            "name": "A#4",
            "ticks": 60864,
            "time": 66.97179750000001,
            "velocity": 0.3937007874015748
          },
          {
            "duration": 0.21126750000000527,
            "durationTicks": 192,
            "midi": 40,
            "name": "E2",
            "ticks": 60864,
            "time": 66.97179750000001,
            "velocity": 0.3937007874015748
          },
          {
            "duration": 0.21126750000000527,
            "durationTicks": 192,
            "midi": 52,
            "name": "E3",
            "ticks": 60864,
            "time": 66.97179750000001,
            "velocity": 0.3937007874015748
          },
          {
            "duration": 0.21126750000000527,
            "durationTicks": 192,
            "midi": 67,
            "name": "G4",
            "ticks": 60864,
            "time": 66.97179750000001,
            "velocity": 0.3937007874015748
          },
          {
            "duration": 0.21126750000000527,
            "durationTicks": 192,
            "midi": 79,
            "name": "G5",
            "ticks": 60864,
            "time": 66.97179750000001,
            "velocity": 0.3937007874015748
          },
          {
            "duration": 0.21126749999999106,
            "durationTicks": 192,
            "midi": 53,
            "name": "F3",
            "ticks": 61056,
            "time": 67.18306500000001,
            "velocity": 0.3937007874015748
          },
          {
            "duration": 0.21126749999999106,
            "durationTicks": 192,
            "midi": 41,
            "name": "F2",
            "ticks": 61056,
            "time": 67.18306500000001,
            "velocity": 0.3937007874015748
          },
          {
            "duration": 0.21126749999999106,
            "durationTicks": 192,
            "midi": 68,
            "name": "G#4",
            "ticks": 61056,
            "time": 67.18306500000001,
            "velocity": 0.3937007874015748
          },
          {
            "duration": 0.21126749999999106,
            "durationTicks": 192,
            "midi": 77,
            "name": "F5",
            "ticks": 61056,
            "time": 67.18306500000001,
            "velocity": 0.3937007874015748
          },
          {
            "duration": 0.21126749999999106,
            "durationTicks": 192,
            "midi": 65,
            "name": "F4",
            "ticks": 61056,
            "time": 67.18306500000001,
            "velocity": 0.3937007874015748
          }
        ],
        "endOfTrackTicks": 61248
      }
    ]
  }