{
    "header": {
      "keySignatures": [],
      "meta": [],
      "name": "",
      "ppq": 384,
      "tempos": [
        {
          "bpm": 150,
          "ticks": 0
        }
      ],
      "timeSignatures": [
        {
          "ticks": 0,
          "timeSignature": [
            1,
            4
          ],
          "measures": 0
        }
      ]
    },
    "tracks": [
      {
        "channel": 0,
        "controlChanges": {},
        "pitchBends": [],
        "instrument": {
          "family": "synth lead",
          "number": 81,
          "name": "lead 2 (sawtooth)"
        },
        "name": "8-Bit Sawtooth",
        "notes": [
          {
            "duration": 0.1,
            "durationTicks": 96,
            "midi": 47,
            "name": "B2",
            "ticks": 0,
            "time": 0,
            "velocity": 0.3937007874015748
          },
          {
            "duration": 0.8,
            "durationTicks": 768,
            "midi": 59,
            "name": "B3",
            "ticks": 0,
            "time": 0,
            "velocity": 0.3937007874015748
          },
          {
            "duration": 0.1,
            "durationTicks": 96,
            "midi": 52,
            "name": "E3",
            "ticks": 0,
            "time": 0,
            "velocity": 0.3937007874015748
          },
          {
            "duration": 0.1,
            "durationTicks": 96,
            "midi": 28,
            "name": "E1",
            "ticks": 0,
            "time": 0,
            "velocity": 0.3937007874015748
          },
          {
            "duration": 0.1,
            "durationTicks": 96,
            "midi": 40,
            "name": "E2",
            "ticks": 0,
            "time": 0,
            "velocity": 0.3937007874015748
          },
          {
            "duration": 0.1,
            "durationTicks": 96,
            "midi": 28,
            "name": "E1",
            "ticks": 96,
            "time": 0.1,
            "velocity": 0.3937007874015748
          },
          {
            "duration": 0.1,
            "durationTicks": 96,
            "midi": 47,
            "name": "B2",
            "ticks": 96,
            "time": 0.1,
            "velocity": 0.3937007874015748
          },
          {
            "duration": 0.1,
            "durationTicks": 96,
            "midi": 40,
            "name": "E2",
            "ticks": 96,
            "time": 0.1,
            "velocity": 0.3937007874015748
          },
          {
            "duration": 0.1,
            "durationTicks": 96,
            "midi": 52,
            "name": "E3",
            "ticks": 96,
            "time": 0.1,
            "velocity": 0.3937007874015748
          },
          {
            "duration": 0.10000000000000003,
            "durationTicks": 96,
            "midi": 40,
            "name": "E2",
            "ticks": 192,
            "time": 0.2,
            "velocity": 0.3937007874015748
          },
          {
            "duration": 0.10000000000000003,
            "durationTicks": 96,
            "midi": 47,
            "name": "B2",
            "ticks": 192,
            "time": 0.2,
            "velocity": 0.3937007874015748
          },
          {
            "duration": 0.10000000000000003,
            "durationTicks": 96,
            "midi": 28,
            "name": "E1",
            "ticks": 192,
            "time": 0.2,
            "velocity": 0.3937007874015748
          },
          {
            "duration": 0.10000000000000003,
            "durationTicks": 96,
            "midi": 52,
            "name": "E3",
            "ticks": 192,
            "time": 0.2,
            "velocity": 0.3937007874015748
          },
          {
            "duration": 0.09999999999999998,
            "durationTicks": 96,
            "midi": 40,
            "name": "E2",
            "ticks": 288,
            "time": 0.30000000000000004,
            "velocity": 0.3937007874015748
          },
          {
            "duration": 0.09999999999999998,
            "durationTicks": 96,
            "midi": 28,
            "name": "E1",
            "ticks": 288,
            "time": 0.30000000000000004,
            "velocity": 0.3937007874015748
          },
          {
            "duration": 0.09999999999999998,
            "durationTicks": 96,
            "midi": 47,
            "name": "B2",
            "ticks": 288,
            "time": 0.30000000000000004,
            "velocity": 0.3937007874015748
          },
          {
            "duration": 0.09999999999999998,
            "durationTicks": 96,
            "midi": 52,
            "name": "E3",
            "ticks": 288,
            "time": 0.30000000000000004,
            "velocity": 0.3937007874015748
          },
          {
            "duration": 0.09999999999999998,
            "durationTicks": 96,
            "midi": 28,
            "name": "E1",
            "ticks": 384,
            "time": 0.4,
            "velocity": 0.3937007874015748
          },
          {
            "duration": 0.09999999999999998,
            "durationTicks": 96,
            "midi": 52,
            "name": "E3",
            "ticks": 384,
            "time": 0.4,
            "velocity": 0.3937007874015748
          },
          {
            "duration": 0.09999999999999998,
            "durationTicks": 96,
            "midi": 40,
            "name": "E2",
            "ticks": 384,
            "time": 0.4,
            "velocity": 0.3937007874015748
          },
          {
            "duration": 0.09999999999999998,
            "durationTicks": 96,
            "midi": 47,
            "name": "B2",
            "ticks": 384,
            "time": 0.4,
            "velocity": 0.3937007874015748
          },
          {
            "duration": 0.10000000000000009,
            "durationTicks": 96,
            "midi": 28,
            "name": "E1",
            "ticks": 480,
            "time": 0.5,
            "velocity": 0.3937007874015748
          },
          {
            "duration": 0.10000000000000009,
            "durationTicks": 96,
            "midi": 52,
            "name": "E3",
            "ticks": 480,
            "time": 0.5,
            "velocity": 0.3937007874015748
          },
          {
            "duration": 0.10000000000000009,
            "durationTicks": 96,
            "midi": 47,
            "name": "B2",
            "ticks": 480,
            "time": 0.5,
            "velocity": 0.3937007874015748
          },
          {
            "duration": 0.10000000000000009,
            "durationTicks": 96,
            "midi": 40,
            "name": "E2",
            "ticks": 480,
            "time": 0.5,
            "velocity": 0.3937007874015748
          },
          {
            "duration": 0.09999999999999998,
            "durationTicks": 96,
            "midi": 28,
            "name": "E1",
            "ticks": 576,
            "time": 0.6000000000000001,
            "velocity": 0.3937007874015748
          },
          {
            "duration": 0.09999999999999998,
            "durationTicks": 96,
            "midi": 47,
            "name": "B2",
            "ticks": 576,
            "time": 0.6000000000000001,
            "velocity": 0.3937007874015748
          },
          {
            "duration": 0.09999999999999998,
            "durationTicks": 96,
            "midi": 52,
            "name": "E3",
            "ticks": 576,
            "time": 0.6000000000000001,
            "velocity": 0.3937007874015748
          },
          {
            "duration": 0.09999999999999998,
            "durationTicks": 96,
            "midi": 40,
            "name": "E2",
            "ticks": 576,
            "time": 0.6000000000000001,
            "velocity": 0.3937007874015748
          },
          {
            "duration": 0.09999999999999998,
            "durationTicks": 96,
            "midi": 40,
            "name": "E2",
            "ticks": 672,
            "time": 0.7000000000000001,
            "velocity": 0.3937007874015748
          },
          {
            "duration": 0.09999999999999998,
            "durationTicks": 96,
            "midi": 28,
            "name": "E1",
            "ticks": 672,
            "time": 0.7000000000000001,
            "velocity": 0.3937007874015748
          },
          {
            "duration": 0.09999999999999998,
            "durationTicks": 96,
            "midi": 47,
            "name": "B2",
            "ticks": 672,
            "time": 0.7000000000000001,
            "velocity": 0.3937007874015748
          },
          {
            "duration": 0.09999999999999998,
            "durationTicks": 96,
            "midi": 28,
            "name": "E1",
            "ticks": 768,
            "time": 0.8,
            "velocity": 0.3937007874015748
          },
          {
            "duration": 0.09999999999999998,
            "durationTicks": 96,
            "midi": 40,
            "name": "E2",
            "ticks": 768,
            "time": 0.8,
            "velocity": 0.3937007874015748
          },
          {
            "duration": 0.09999999999999998,
            "durationTicks": 96,
            "midi": 72,
            "name": "C5",
            "ticks": 768,
            "time": 0.8,
            "velocity": 0.3937007874015748
          },
          {
            "duration": 0.09999999999999998,
            "durationTicks": 96,
            "midi": 60,
            "name": "C4",
            "ticks": 768,
            "time": 0.8,
            "velocity": 0.3937007874015748
          },
          {
            "duration": 0.09999999999999998,
            "durationTicks": 96,
            "midi": 28,
            "name": "E1",
            "ticks": 864,
            "time": 0.9,
            "velocity": 0.3937007874015748
          },
          {
            "duration": 0.10000000000000009,
            "durationTicks": 96,
            "midi": 71,
            "name": "B4",
            "ticks": 960,
            "time": 1,
            "velocity": 0.3937007874015748
          },
          {
            "duration": 0.10000000000000009,
            "durationTicks": 96,
            "midi": 59,
            "name": "B3",
            "ticks": 960,
            "time": 1,
            "velocity": 0.3937007874015748
          },
          {
            "duration": 0.09999999999999987,
            "durationTicks": 96,
            "midi": 69,
            "name": "A4",
            "ticks": 1152,
            "time": 1.2000000000000002,
            "velocity": 0.3937007874015748
          },
          {
            "duration": 0.09999999999999987,
            "durationTicks": 96,
            "midi": 57,
            "name": "A3",
            "ticks": 1152,
            "time": 1.2000000000000002,
            "velocity": 0.3937007874015748
          },
          {
            "duration": 0.09999999999999987,
            "durationTicks": 96,
            "midi": 72,
            "name": "C5",
            "ticks": 1344,
            "time": 1.4000000000000001,
            "velocity": 0.3937007874015748
          },
          {
            "duration": 0.09999999999999987,
            "durationTicks": 96,
            "midi": 60,
            "name": "C4",
            "ticks": 1344,
            "time": 1.4000000000000001,
            "velocity": 0.3937007874015748
          },
          {
            "duration": 0.10000000000000009,
            "durationTicks": 96,
            "midi": 59,
            "name": "B3",
            "ticks": 1536,
            "time": 1.6,
            "velocity": 0.3937007874015748
          },
          {
            "duration": 0.10000000000000009,
            "durationTicks": 96,
            "midi": 71,
            "name": "B4",
            "ticks": 1536,
            "time": 1.6,
            "velocity": 0.3937007874015748
          },
          {
            "duration": 0.10000000000000009,
            "durationTicks": 96,
            "midi": 57,
            "name": "A3",
            "ticks": 1728,
            "time": 1.8,
            "velocity": 0.3937007874015748
          },
          {
            "duration": 0.10000000000000009,
            "durationTicks": 96,
            "midi": 69,
            "name": "A4",
            "ticks": 1728,
            "time": 1.8,
            "velocity": 0.3937007874015748
          },
          {
            "duration": 0.10000000000000009,
            "durationTicks": 96,
            "midi": 72,
            "name": "C5",
            "ticks": 1920,
            "time": 2,
            "velocity": 0.3937007874015748
          },
          {
            "duration": 0.10000000000000009,
            "durationTicks": 96,
            "midi": 60,
            "name": "C4",
            "ticks": 1920,
            "time": 2,
            "velocity": 0.3937007874015748
          },
          {
            "duration": 0.10000000000000009,
            "durationTicks": 96,
            "midi": 59,
            "name": "B3",
            "ticks": 2112,
            "time": 2.2,
            "velocity": 0.3937007874015748
          },
          {
            "duration": 0.10000000000000009,
            "durationTicks": 96,
            "midi": 71,
            "name": "B4",
            "ticks": 2112,
            "time": 2.2,
            "velocity": 0.3937007874015748
          },
          {
            "duration": 0.09999999999999964,
            "durationTicks": 96,
            "midi": 57,
            "name": "A3",
            "ticks": 2304,
            "time": 2.4000000000000004,
            "velocity": 0.3937007874015748
          },
          {
            "duration": 0.09999999999999964,
            "durationTicks": 96,
            "midi": 69,
            "name": "A4",
            "ticks": 2304,
            "time": 2.4000000000000004,
            "velocity": 0.3937007874015748
          },
          {
            "duration": 0.10000000000000009,
            "durationTicks": 96,
            "midi": 60,
            "name": "C4",
            "ticks": 2496,
            "time": 2.6,
            "velocity": 0.3937007874015748
          },
          {
            "duration": 0.10000000000000009,
            "durationTicks": 96,
            "midi": 72,
            "name": "C5",
            "ticks": 2496,
            "time": 2.6,
            "velocity": 0.3937007874015748
          },
          {
            "duration": 0.10000000000000009,
            "durationTicks": 96,
            "midi": 59,
            "name": "B3",
            "ticks": 2688,
            "time": 2.8000000000000003,
            "velocity": 0.3937007874015748
          },
          {
            "duration": 0.10000000000000009,
            "durationTicks": 96,
            "midi": 71,
            "name": "B4",
            "ticks": 2688,
            "time": 2.8000000000000003,
            "velocity": 0.3937007874015748
          },
          {
            "duration": 0.10000000000000009,
            "durationTicks": 96,
            "midi": 57,
            "name": "A3",
            "ticks": 2880,
            "time": 3,
            "velocity": 0.3937007874015748
          },
          {
            "duration": 0.10000000000000009,
            "durationTicks": 96,
            "midi": 69,
            "name": "A4",
            "ticks": 2880,
            "time": 3,
            "velocity": 0.3937007874015748
          },
          {
            "duration": 0.7000000000000002,
            "durationTicks": 672,
            "midi": 71,
            "name": "B4",
            "ticks": 3072,
            "time": 3.2,
            "velocity": 0.3937007874015748
          },
          {
            "duration": 0.7000000000000002,
            "durationTicks": 672,
            "midi": 71,
            "name": "B4",
            "ticks": 3072,
            "time": 3.2,
            "velocity": 0.3937007874015748
          },
          {
            "duration": 0.10000000000000009,
            "durationTicks": 96,
            "midi": 40,
            "name": "E2",
            "ticks": 3072,
            "time": 3.2,
            "velocity": 0.3937007874015748
          },
          {
            "duration": 0.7000000000000002,
            "durationTicks": 672,
            "midi": 64,
            "name": "E4",
            "ticks": 3072,
            "time": 3.2,
            "velocity": 0.3937007874015748
          },
          {
            "duration": 0.7000000000000002,
            "durationTicks": 672,
            "midi": 64,
            "name": "E4",
            "ticks": 3072,
            "time": 3.2,
            "velocity": 0.3937007874015748
          },
          {
            "duration": 0.10000000000000009,
            "durationTicks": 96,
            "midi": 28,
            "name": "E1",
            "ticks": 3072,
            "time": 3.2,
            "velocity": 0.3937007874015748
          },
          {
            "duration": 0.10000000000000009,
            "durationTicks": 96,
            "midi": 40,
            "name": "E2",
            "ticks": 3168,
            "time": 3.3000000000000003,
            "velocity": 0.3937007874015748
          },
          {
            "duration": 0.10000000000000009,
            "durationTicks": 96,
            "midi": 28,
            "name": "E1",
            "ticks": 3168,
            "time": 3.3000000000000003,
            "velocity": 0.3937007874015748
          },
          {
            "duration": 0.09999999999999964,
            "durationTicks": 96,
            "midi": 28,
            "name": "E1",
            "ticks": 3264,
            "time": 3.4000000000000004,
            "velocity": 0.3937007874015748
          },
          {
            "duration": 0.09999999999999964,
            "durationTicks": 96,
            "midi": 40,
            "name": "E2",
            "ticks": 3264,
            "time": 3.4000000000000004,
            "velocity": 0.3937007874015748
          },
          {
            "duration": 0.10000000000000009,
            "durationTicks": 96,
            "midi": 40,
            "name": "E2",
            "ticks": 3360,
            "time": 3.5,
            "velocity": 0.3937007874015748
          },
          {
            "duration": 0.10000000000000009,
            "durationTicks": 96,
            "midi": 28,
            "name": "E1",
            "ticks": 3360,
            "time": 3.5,
            "velocity": 0.3937007874015748
          },
          {
            "duration": 0.10000000000000009,
            "durationTicks": 96,
            "midi": 28,
            "name": "E1",
            "ticks": 3456,
            "time": 3.6,
            "velocity": 0.3937007874015748
          },
          {
            "duration": 0.10000000000000009,
            "durationTicks": 96,
            "midi": 40,
            "name": "E2",
            "ticks": 3456,
            "time": 3.6,
            "velocity": 0.3937007874015748
          },
          {
            "duration": 0.10000000000000009,
            "durationTicks": 96,
            "midi": 28,
            "name": "E1",
            "ticks": 3552,
            "time": 3.7,
            "velocity": 0.3937007874015748
          },
          {
            "duration": 0.10000000000000009,
            "durationTicks": 96,
            "midi": 40,
            "name": "E2",
            "ticks": 3552,
            "time": 3.7,
            "velocity": 0.3937007874015748
          },
          {
            "duration": 0.10000000000000009,
            "durationTicks": 96,
            "midi": 40,
            "name": "E2",
            "ticks": 3648,
            "time": 3.8000000000000003,
            "velocity": 0.3937007874015748
          },
          {
            "duration": 0.10000000000000009,
            "durationTicks": 96,
            "midi": 28,
            "name": "E1",
            "ticks": 3648,
            "time": 3.8000000000000003,
            "velocity": 0.3937007874015748
          },
          {
            "duration": 0.09999999999999964,
            "durationTicks": 96,
            "midi": 28,
            "name": "E1",
            "ticks": 3744,
            "time": 3.9000000000000004,
            "velocity": 0.3937007874015748
          },
          {
            "duration": 0.10000000000000053,
            "durationTicks": 96,
            "midi": 28,
            "name": "E1",
            "ticks": 3840,
            "time": 4,
            "velocity": 0.3937007874015748
          },
          {
            "duration": 0.2999999999999998,
            "durationTicks": 288,
            "midi": 71,
            "name": "B4",
            "ticks": 3840,
            "time": 4,
            "velocity": 0.3937007874015748
          },
          {
            "duration": 0.8000000000000007,
            "durationTicks": 768,
            "midi": 64,
            "name": "E4",
            "ticks": 3840,
            "time": 4,
            "velocity": 0.3937007874015748
          },
          {
            "duration": 0.10000000000000053,
            "durationTicks": 96,
            "midi": 40,
            "name": "E2",
            "ticks": 3840,
            "time": 4,
            "velocity": 0.3937007874015748
          },
          {
            "duration": 0.10000000000000053,
            "durationTicks": 96,
            "midi": 72,
            "name": "C5",
            "ticks": 3840,
            "time": 4,
            "velocity": 0.3937007874015748
          },
          {
            "duration": 0.8000000000000007,
            "durationTicks": 768,
            "midi": 71,
            "name": "B4",
            "ticks": 3840,
            "time": 4,
            "velocity": 0.3937007874015748
          },
          {
            "duration": 0.8000000000000007,
            "durationTicks": 768,
            "midi": 64,
            "name": "E4",
            "ticks": 3840,
            "time": 4,
            "velocity": 0.3937007874015748
          },
          {
            "duration": 0.10000000000000053,
            "durationTicks": 96,
            "midi": 60,
            "name": "C4",
            "ticks": 3840,
            "time": 4,
            "velocity": 0.3937007874015748
          },
          {
            "duration": 0.09999999999999964,
            "durationTicks": 96,
            "midi": 40,
            "name": "E2",
            "ticks": 3936,
            "time": 4.1000000000000005,
            "velocity": 0.3937007874015748
          },
          {
            "duration": 0.09999999999999964,
            "durationTicks": 96,
            "midi": 28,
            "name": "E1",
            "ticks": 3936,
            "time": 4.1000000000000005,
            "velocity": 0.3937007874015748
          },
          {
            "duration": 0.09999999999999964,
            "durationTicks": 96,
            "midi": 28,
            "name": "E1",
            "ticks": 4032,
            "time": 4.2,
            "velocity": 0.3937007874015748
          },
          {
            "duration": 0.09999999999999964,
            "durationTicks": 96,
            "midi": 59,
            "name": "B3",
            "ticks": 4032,
            "time": 4.2,
            "velocity": 0.3937007874015748
          },
          {
            "duration": 0.6000000000000005,
            "durationTicks": 576,
            "midi": 71,
            "name": "B4",
            "ticks": 4032,
            "time": 4.2,
            "velocity": 0.3937007874015748
          },
          {
            "duration": 0.09999999999999964,
            "durationTicks": 96,
            "midi": 40,
            "name": "E2",
            "ticks": 4032,
            "time": 4.2,
            "velocity": 0.3937007874015748
          },
          {
            "duration": 0.10000000000000053,
            "durationTicks": 96,
            "midi": 40,
            "name": "E2",
            "ticks": 4128,
            "time": 4.3,
            "velocity": 0.3937007874015748
          },
          {
            "duration": 0.10000000000000053,
            "durationTicks": 96,
            "midi": 28,
            "name": "E1",
            "ticks": 4128,
            "time": 4.3,
            "velocity": 0.3937007874015748
          },
          {
            "duration": 0.09999999999999964,
            "durationTicks": 96,
            "midi": 57,
            "name": "A3",
            "ticks": 4224,
            "time": 4.4,
            "velocity": 0.3937007874015748
          },
          {
            "duration": 0.09999999999999964,
            "durationTicks": 96,
            "midi": 40,
            "name": "E2",
            "ticks": 4224,
            "time": 4.4,
            "velocity": 0.3937007874015748
          },
          {
            "duration": 0.09999999999999964,
            "durationTicks": 96,
            "midi": 69,
            "name": "A4",
            "ticks": 4224,
            "time": 4.4,
            "velocity": 0.3937007874015748
          },
          {
            "duration": 0.09999999999999964,
            "durationTicks": 96,
            "midi": 28,
            "name": "E1",
            "ticks": 4224,
            "time": 4.4,
            "velocity": 0.3937007874015748
          },
          {
            "duration": 0.10000000000000053,
            "durationTicks": 96,
            "midi": 40,
            "name": "E2",
            "ticks": 4320,
            "time": 4.5,
            "velocity": 0.3937007874015748
          },
          {
            "duration": 0.10000000000000053,
            "durationTicks": 96,
            "midi": 28,
            "name": "E1",
            "ticks": 4320,
            "time": 4.5,
            "velocity": 0.3937007874015748
          },
          {
            "duration": 0.09999999999999964,
            "durationTicks": 96,
            "midi": 28,
            "name": "E1",
            "ticks": 4416,
            "time": 4.6000000000000005,
            "velocity": 0.3937007874015748
          },
          {
            "duration": 0.09999999999999964,
            "durationTicks": 96,
            "midi": 60,
            "name": "C4",
            "ticks": 4416,
            "time": 4.6000000000000005,
            "velocity": 0.3937007874015748
          },
          {
            "duration": 0.09999999999999964,
            "durationTicks": 96,
            "midi": 40,
            "name": "E2",
            "ticks": 4416,
            "time": 4.6000000000000005,
            "velocity": 0.3937007874015748
          },
          {
            "duration": 0.09999999999999964,
            "durationTicks": 96,
            "midi": 72,
            "name": "C5",
            "ticks": 4416,
            "time": 4.6000000000000005,
            "velocity": 0.3937007874015748
          },
          {
            "duration": 0.10000000000000053,
            "durationTicks": 96,
            "midi": 28,
            "name": "E1",
            "ticks": 4512,
            "time": 4.7,
            "velocity": 0.3937007874015748
          },
          {
            "duration": 0.10000000000000053,
            "durationTicks": 96,
            "midi": 40,
            "name": "E2",
            "ticks": 4512,
            "time": 4.7,
            "velocity": 0.3937007874015748
          },
          {
            "duration": 0.09999999999999964,
            "durationTicks": 96,
            "midi": 71,
            "name": "B4",
            "ticks": 4608,
            "time": 4.800000000000001,
            "velocity": 0.3937007874015748
          },
          {
            "duration": 0.09999999999999964,
            "durationTicks": 96,
            "midi": 59,
            "name": "B3",
            "ticks": 4608,
            "time": 4.800000000000001,
            "velocity": 0.3937007874015748
          },
          {
            "duration": 0.09999999999999964,
            "durationTicks": 96,
            "midi": 28,
            "name": "E1",
            "ticks": 4608,
            "time": 4.800000000000001,
            "velocity": 0.3937007874015748
          },
          {
            "duration": 0.10000000000000053,
            "durationTicks": 96,
            "midi": 69,
            "name": "A4",
            "ticks": 4800,
            "time": 5,
            "velocity": 0.3937007874015748
          },
          {
            "duration": 0.10000000000000053,
            "durationTicks": 96,
            "midi": 57,
            "name": "A3",
            "ticks": 4800,
            "time": 5,
            "velocity": 0.3937007874015748
          },
          {
            "duration": 0.10000000000000053,
            "durationTicks": 96,
            "midi": 72,
            "name": "C5",
            "ticks": 4992,
            "time": 5.2,
            "velocity": 0.3937007874015748
          },
          {
            "duration": 0.10000000000000053,
            "durationTicks": 96,
            "midi": 60,
            "name": "C4",
            "ticks": 4992,
            "time": 5.2,
            "velocity": 0.3937007874015748
          },
          {
            "duration": 0.09999999999999964,
            "durationTicks": 96,
            "midi": 59,
            "name": "B3",
            "ticks": 5184,
            "time": 5.4,
            "velocity": 0.3937007874015748
          },
          {
            "duration": 0.09999999999999964,
            "durationTicks": 96,
            "midi": 71,
            "name": "B4",
            "ticks": 5184,
            "time": 5.4,
            "velocity": 0.3937007874015748
          },
          {
            "duration": 0.09999999999999964,
            "durationTicks": 96,
            "midi": 69,
            "name": "A4",
            "ticks": 5376,
            "time": 5.6000000000000005,
            "velocity": 0.3937007874015748
          },
          {
            "duration": 0.09999999999999964,
            "durationTicks": 96,
            "midi": 57,
            "name": "A3",
            "ticks": 5376,
            "time": 5.6000000000000005,
            "velocity": 0.3937007874015748
          },
          {
            "duration": 0.09999999999999964,
            "durationTicks": 96,
            "midi": 60,
            "name": "C4",
            "ticks": 5568,
            "time": 5.800000000000001,
            "velocity": 0.3937007874015748
          },
          {
            "duration": 0.09999999999999964,
            "durationTicks": 96,
            "midi": 72,
            "name": "C5",
            "ticks": 5568,
            "time": 5.800000000000001,
            "velocity": 0.3937007874015748
          },
          {
            "duration": 0.10000000000000053,
            "durationTicks": 96,
            "midi": 71,
            "name": "B4",
            "ticks": 5760,
            "time": 6,
            "velocity": 0.3937007874015748
          },
          {
            "duration": 0.10000000000000053,
            "durationTicks": 96,
            "midi": 59,
            "name": "B3",
            "ticks": 5760,
            "time": 6,
            "velocity": 0.3937007874015748
          },
          {
            "duration": 0.10000000000000053,
            "durationTicks": 96,
            "midi": 57,
            "name": "A3",
            "ticks": 5952,
            "time": 6.2,
            "velocity": 0.3937007874015748
          },
          {
            "duration": 0.10000000000000053,
            "durationTicks": 96,
            "midi": 69,
            "name": "A4",
            "ticks": 5952,
            "time": 6.2,
            "velocity": 0.3937007874015748
          },
          {
            "duration": 0.09999999999999964,
            "durationTicks": 96,
            "midi": 76,
            "name": "E5",
            "ticks": 6144,
            "time": 6.4,
            "velocity": 0.3937007874015748
          },
          {
            "duration": 0.09999999999999964,
            "durationTicks": 96,
            "midi": 71,
            "name": "B4",
            "ticks": 6144,
            "time": 6.4,
            "velocity": 0.3937007874015748
          },
          {
            "duration": 1.2000000000000002,
            "durationTicks": 1152,
            "midi": 40,
            "name": "E2",
            "ticks": 6144,
            "time": 6.4,
            "velocity": 0.3937007874015748
          },
          {
            "duration": 1.2000000000000002,
            "durationTicks": 1152,
            "midi": 40,
            "name": "E2",
            "ticks": 6144,
            "time": 6.4,
            "velocity": 0.3937007874015748
          },
          {
            "duration": 0.09999999999999964,
            "durationTicks": 96,
            "midi": 28,
            "name": "E1",
            "ticks": 6144,
            "time": 6.4,
            "velocity": 0.3937007874015748
          },
          {
            "duration": 0.09999999999999964,
            "durationTicks": 96,
            "midi": 59,
            "name": "B3",
            "ticks": 6144,
            "time": 6.4,
            "velocity": 0.3937007874015748
          },
          {
            "duration": 1.2000000000000002,
            "durationTicks": 1152,
            "midi": 40,
            "name": "E2",
            "ticks": 6144,
            "time": 6.4,
            "velocity": 0.3937007874015748
          },
          {
            "duration": 0.09999999999999964,
            "durationTicks": 96,
            "midi": 64,
            "name": "E4",
            "ticks": 6144,
            "time": 6.4,
            "velocity": 0.3937007874015748
          },
          {
            "duration": 0.10000000000000053,
            "durationTicks": 96,
            "midi": 64,
            "name": "E4",
            "ticks": 6240,
            "time": 6.5,
            "velocity": 0.3937007874015748
          },
          {
            "duration": 0.10000000000000053,
            "durationTicks": 96,
            "midi": 76,
            "name": "E5",
            "ticks": 6240,
            "time": 6.5,
            "velocity": 0.3937007874015748
          },
          {
            "duration": 0.10000000000000053,
            "durationTicks": 96,
            "midi": 28,
            "name": "E1",
            "ticks": 6240,
            "time": 6.5,
            "velocity": 0.3937007874015748
          },
          {
            "duration": 0.09999999999999964,
            "durationTicks": 96,
            "midi": 64,
            "name": "E4",
            "ticks": 6336,
            "time": 6.6000000000000005,
            "velocity": 0.3937007874015748
          },
          {
            "duration": 0.09999999999999964,
            "durationTicks": 96,
            "midi": 28,
            "name": "E1",
            "ticks": 6336,
            "time": 6.6000000000000005,
            "velocity": 0.3937007874015748
          },
          {
            "duration": 0.09999999999999964,
            "durationTicks": 96,
            "midi": 76,
            "name": "E5",
            "ticks": 6336,
            "time": 6.6000000000000005,
            "velocity": 0.3937007874015748
          },
          {
            "duration": 0.10000000000000053,
            "durationTicks": 96,
            "midi": 64,
            "name": "E4",
            "ticks": 6432,
            "time": 6.7,
            "velocity": 0.3937007874015748
          },
          {
            "duration": 0.10000000000000053,
            "durationTicks": 96,
            "midi": 28,
            "name": "E1",
            "ticks": 6432,
            "time": 6.7,
            "velocity": 0.3937007874015748
          },
          {
            "duration": 0.10000000000000053,
            "durationTicks": 96,
            "midi": 76,
            "name": "E5",
            "ticks": 6432,
            "time": 6.7,
            "velocity": 0.3937007874015748
          },
          {
            "duration": 0.09999999999999964,
            "durationTicks": 96,
            "midi": 71,
            "name": "B4",
            "ticks": 6528,
            "time": 6.800000000000001,
            "velocity": 0.3937007874015748
          },
          {
            "duration": 0.09999999999999964,
            "durationTicks": 96,
            "midi": 64,
            "name": "E4",
            "ticks": 6528,
            "time": 6.800000000000001,
            "velocity": 0.3937007874015748
          },
          {
            "duration": 0.09999999999999964,
            "durationTicks": 96,
            "midi": 28,
            "name": "E1",
            "ticks": 6528,
            "time": 6.800000000000001,
            "velocity": 0.3937007874015748
          },
          {
            "duration": 0.09999999999999964,
            "durationTicks": 96,
            "midi": 59,
            "name": "B3",
            "ticks": 6528,
            "time": 6.800000000000001,
            "velocity": 0.3937007874015748
          },
          {
            "duration": 0.09999999999999964,
            "durationTicks": 96,
            "midi": 76,
            "name": "E5",
            "ticks": 6528,
            "time": 6.800000000000001,
            "velocity": 0.3937007874015748
          },
          {
            "duration": 0.09999999999999964,
            "durationTicks": 96,
            "midi": 64,
            "name": "E4",
            "ticks": 6624,
            "time": 6.9,
            "velocity": 0.3937007874015748
          },
          {
            "duration": 0.09999999999999964,
            "durationTicks": 96,
            "midi": 28,
            "name": "E1",
            "ticks": 6624,
            "time": 6.9,
            "velocity": 0.3937007874015748
          },
          {
            "duration": 0.09999999999999964,
            "durationTicks": 96,
            "midi": 76,
            "name": "E5",
            "ticks": 6624,
            "time": 6.9,
            "velocity": 0.3937007874015748
          },
          {
            "duration": 0.10000000000000053,
            "durationTicks": 96,
            "midi": 64,
            "name": "E4",
            "ticks": 6720,
            "time": 7,
            "velocity": 0.3937007874015748
          },
          {
            "duration": 0.10000000000000053,
            "durationTicks": 96,
            "midi": 76,
            "name": "E5",
            "ticks": 6720,
            "time": 7,
            "velocity": 0.3937007874015748
          },
          {
            "duration": 0.10000000000000053,
            "durationTicks": 96,
            "midi": 28,
            "name": "E1",
            "ticks": 6720,
            "time": 7,
            "velocity": 0.3937007874015748
          },
          {
            "duration": 0.09999999999999964,
            "durationTicks": 96,
            "midi": 28,
            "name": "E1",
            "ticks": 6816,
            "time": 7.1000000000000005,
            "velocity": 0.3937007874015748
          },
          {
            "duration": 0.09999999999999964,
            "durationTicks": 96,
            "midi": 64,
            "name": "E4",
            "ticks": 6816,
            "time": 7.1000000000000005,
            "velocity": 0.3937007874015748
          },
          {
            "duration": 0.09999999999999964,
            "durationTicks": 96,
            "midi": 76,
            "name": "E5",
            "ticks": 6816,
            "time": 7.1000000000000005,
            "velocity": 0.3937007874015748
          },
          {
            "duration": 0.10000000000000053,
            "durationTicks": 96,
            "midi": 28,
            "name": "E1",
            "ticks": 6912,
            "time": 7.2,
            "velocity": 0.3937007874015748
          },
          {
            "duration": 0.10000000000000053,
            "durationTicks": 96,
            "midi": 60,
            "name": "C4",
            "ticks": 6912,
            "time": 7.2,
            "velocity": 0.3937007874015748
          },
          {
            "duration": 0.10000000000000053,
            "durationTicks": 96,
            "midi": 72,
            "name": "C5",
            "ticks": 6912,
            "time": 7.2,
            "velocity": 0.3937007874015748
          },
          {
            "duration": 0.10000000000000053,
            "durationTicks": 96,
            "midi": 88,
            "name": "E6",
            "ticks": 6912,
            "time": 7.2,
            "velocity": 0.3937007874015748
          },
          {
            "duration": 0.10000000000000053,
            "durationTicks": 96,
            "midi": 76,
            "name": "E5",
            "ticks": 6912,
            "time": 7.2,
            "velocity": 0.3937007874015748
          },
          {
            "duration": 0.09999999999999964,
            "durationTicks": 96,
            "midi": 76,
            "name": "E5",
            "ticks": 7008,
            "time": 7.300000000000001,
            "velocity": 0.3937007874015748
          },
          {
            "duration": 0.09999999999999964,
            "durationTicks": 96,
            "midi": 28,
            "name": "E1",
            "ticks": 7008,
            "time": 7.300000000000001,
            "velocity": 0.3937007874015748
          },
          {
            "duration": 0.09999999999999964,
            "durationTicks": 96,
            "midi": 88,
            "name": "E6",
            "ticks": 7008,
            "time": 7.300000000000001,
            "velocity": 0.3937007874015748
          },
          {
            "duration": 0.09999999999999964,
            "durationTicks": 96,
            "midi": 88,
            "name": "E6",
            "ticks": 7104,
            "time": 7.4,
            "velocity": 0.3937007874015748
          },
          {
            "duration": 0.09999999999999964,
            "durationTicks": 96,
            "midi": 28,
            "name": "E1",
            "ticks": 7104,
            "time": 7.4,
            "velocity": 0.3937007874015748
          },
          {
            "duration": 0.09999999999999964,
            "durationTicks": 96,
            "midi": 59,
            "name": "B3",
            "ticks": 7104,
            "time": 7.4,
            "velocity": 0.3937007874015748
          },
          {
            "duration": 0.09999999999999964,
            "durationTicks": 96,
            "midi": 71,
            "name": "B4",
            "ticks": 7104,
            "time": 7.4,
            "velocity": 0.3937007874015748
          },
          {
            "duration": 0.09999999999999964,
            "durationTicks": 96,
            "midi": 76,
            "name": "E5",
            "ticks": 7104,
            "time": 7.4,
            "velocity": 0.3937007874015748
          },
          {
            "duration": 0.10000000000000053,
            "durationTicks": 96,
            "midi": 76,
            "name": "E5",
            "ticks": 7200,
            "time": 7.5,
            "velocity": 0.3937007874015748
          },
          {
            "duration": 0.10000000000000053,
            "durationTicks": 96,
            "midi": 28,
            "name": "E1",
            "ticks": 7200,
            "time": 7.5,
            "velocity": 0.3937007874015748
          },
          {
            "duration": 0.10000000000000053,
            "durationTicks": 96,
            "midi": 88,
            "name": "E6",
            "ticks": 7200,
            "time": 7.5,
            "velocity": 0.3937007874015748
          },
          {
            "duration": 0.09999999999999964,
            "durationTicks": 96,
            "midi": 57,
            "name": "A3",
            "ticks": 7296,
            "time": 7.6000000000000005,
            "velocity": 0.3937007874015748
          },
          {
            "duration": 1.2000000000000002,
            "durationTicks": 1152,
            "midi": 40,
            "name": "E2",
            "ticks": 7296,
            "time": 7.6000000000000005,
            "velocity": 0.3937007874015748
          },
          {
            "duration": 1.2000000000000002,
            "durationTicks": 1152,
            "midi": 40,
            "name": "E2",
            "ticks": 7296,
            "time": 7.6000000000000005,
            "velocity": 0.3937007874015748
          },
          {
            "duration": 0.09999999999999964,
            "durationTicks": 96,
            "midi": 69,
            "name": "A4",
            "ticks": 7296,
            "time": 7.6000000000000005,
            "velocity": 0.3937007874015748
          },
          {
            "duration": 0.09999999999999964,
            "durationTicks": 96,
            "midi": 28,
            "name": "E1",
            "ticks": 7296,
            "time": 7.6000000000000005,
            "velocity": 0.3937007874015748
          },
          {
            "duration": 0.09999999999999964,
            "durationTicks": 96,
            "midi": 76,
            "name": "E5",
            "ticks": 7296,
            "time": 7.6000000000000005,
            "velocity": 0.3937007874015748
          },
          {
            "duration": 1.2000000000000002,
            "durationTicks": 1152,
            "midi": 40,
            "name": "E2",
            "ticks": 7296,
            "time": 7.6000000000000005,
            "velocity": 0.3937007874015748
          },
          {
            "duration": 0.09999999999999964,
            "durationTicks": 96,
            "midi": 88,
            "name": "E6",
            "ticks": 7296,
            "time": 7.6000000000000005,
            "velocity": 0.3937007874015748
          },
          {
            "duration": 0.10000000000000053,
            "durationTicks": 96,
            "midi": 88,
            "name": "E6",
            "ticks": 7392,
            "time": 7.7,
            "velocity": 0.3937007874015748
          },
          {
            "duration": 0.10000000000000053,
            "durationTicks": 96,
            "midi": 76,
            "name": "E5",
            "ticks": 7392,
            "time": 7.7,
            "velocity": 0.3937007874015748
          },
          {
            "duration": 0.10000000000000053,
            "durationTicks": 96,
            "midi": 28,
            "name": "E1",
            "ticks": 7392,
            "time": 7.7,
            "velocity": 0.3937007874015748
          },
          {
            "duration": 0.09999999999999964,
            "durationTicks": 96,
            "midi": 88,
            "name": "E6",
            "ticks": 7488,
            "time": 7.800000000000001,
            "velocity": 0.3937007874015748
          },
          {
            "duration": 0.09999999999999964,
            "durationTicks": 96,
            "midi": 72,
            "name": "C5",
            "ticks": 7488,
            "time": 7.800000000000001,
            "velocity": 0.3937007874015748
          },
          {
            "duration": 0.09999999999999964,
            "durationTicks": 96,
            "midi": 60,
            "name": "C4",
            "ticks": 7488,
            "time": 7.800000000000001,
            "velocity": 0.3937007874015748
          },
          {
            "duration": 0.09999999999999964,
            "durationTicks": 96,
            "midi": 76,
            "name": "E5",
            "ticks": 7488,
            "time": 7.800000000000001,
            "velocity": 0.3937007874015748
          },
          {
            "duration": 0.09999999999999964,
            "durationTicks": 96,
            "midi": 28,
            "name": "E1",
            "ticks": 7488,
            "time": 7.800000000000001,
            "velocity": 0.3937007874015748
          },
          {
            "duration": 0.09999999999999964,
            "durationTicks": 96,
            "midi": 88,
            "name": "E6",
            "ticks": 7584,
            "time": 7.9,
            "velocity": 0.3937007874015748
          },
          {
            "duration": 0.09999999999999964,
            "durationTicks": 96,
            "midi": 28,
            "name": "E1",
            "ticks": 7584,
            "time": 7.9,
            "velocity": 0.3937007874015748
          },
          {
            "duration": 0.09999999999999964,
            "durationTicks": 96,
            "midi": 76,
            "name": "E5",
            "ticks": 7584,
            "time": 7.9,
            "velocity": 0.3937007874015748
          },
          {
            "duration": 0.09999999999999964,
            "durationTicks": 96,
            "midi": 71,
            "name": "B4",
            "ticks": 7680,
            "time": 8,
            "velocity": 0.3937007874015748
          },
          {
            "duration": 0.09999999999999964,
            "durationTicks": 96,
            "midi": 76,
            "name": "E5",
            "ticks": 7680,
            "time": 8,
            "velocity": 0.3937007874015748
          },
          {
            "duration": 0.09999999999999964,
            "durationTicks": 96,
            "midi": 88,
            "name": "E6",
            "ticks": 7680,
            "time": 8,
            "velocity": 0.3937007874015748
          },
          {
            "duration": 0.09999999999999964,
            "durationTicks": 96,
            "midi": 59,
            "name": "B3",
            "ticks": 7680,
            "time": 8,
            "velocity": 0.3937007874015748
          },
          {
            "duration": 0.09999999999999964,
            "durationTicks": 96,
            "midi": 28,
            "name": "E1",
            "ticks": 7680,
            "time": 8,
            "velocity": 0.3937007874015748
          },
          {
            "duration": 0.10000000000000142,
            "durationTicks": 96,
            "midi": 88,
            "name": "E6",
            "ticks": 7776,
            "time": 8.1,
            "velocity": 0.3937007874015748
          },
          {
            "duration": 0.10000000000000142,
            "durationTicks": 96,
            "midi": 76,
            "name": "E5",
            "ticks": 7776,
            "time": 8.1,
            "velocity": 0.3937007874015748
          },
          {
            "duration": 0.10000000000000142,
            "durationTicks": 96,
            "midi": 28,
            "name": "E1",
            "ticks": 7776,
            "time": 8.1,
            "velocity": 0.3937007874015748
          },
          {
            "duration": 0.09999999999999964,
            "durationTicks": 96,
            "midi": 88,
            "name": "E6",
            "ticks": 7872,
            "time": 8.200000000000001,
            "velocity": 0.3937007874015748
          },
          {
            "duration": 0.09999999999999964,
            "durationTicks": 96,
            "midi": 57,
            "name": "A3",
            "ticks": 7872,
            "time": 8.200000000000001,
            "velocity": 0.3937007874015748
          },
          {
            "duration": 0.09999999999999964,
            "durationTicks": 96,
            "midi": 76,
            "name": "E5",
            "ticks": 7872,
            "time": 8.200000000000001,
            "velocity": 0.3937007874015748
          },
          {
            "duration": 0.09999999999999964,
            "durationTicks": 96,
            "midi": 28,
            "name": "E1",
            "ticks": 7872,
            "time": 8.200000000000001,
            "velocity": 0.3937007874015748
          },
          {
            "duration": 0.09999999999999964,
            "durationTicks": 96,
            "midi": 69,
            "name": "A4",
            "ticks": 7872,
            "time": 8.200000000000001,
            "velocity": 0.3937007874015748
          },
          {
            "duration": 0.09999999999999964,
            "durationTicks": 96,
            "midi": 28,
            "name": "E1",
            "ticks": 7968,
            "time": 8.3,
            "velocity": 0.3937007874015748
          },
          {
            "duration": 0.09999999999999964,
            "durationTicks": 96,
            "midi": 88,
            "name": "E6",
            "ticks": 7968,
            "time": 8.3,
            "velocity": 0.3937007874015748
          },
          {
            "duration": 0.09999999999999964,
            "durationTicks": 96,
            "midi": 76,
            "name": "E5",
            "ticks": 7968,
            "time": 8.3,
            "velocity": 0.3937007874015748
          },
          {
            "duration": 0.09999999999999964,
            "durationTicks": 96,
            "midi": 88,
            "name": "E6",
            "ticks": 8064,
            "time": 8.4,
            "velocity": 0.3937007874015748
          },
          {
            "duration": 0.09999999999999964,
            "durationTicks": 96,
            "midi": 28,
            "name": "E1",
            "ticks": 8064,
            "time": 8.4,
            "velocity": 0.3937007874015748
          },
          {
            "duration": 0.09999999999999964,
            "durationTicks": 96,
            "midi": 72,
            "name": "C5",
            "ticks": 8064,
            "time": 8.4,
            "velocity": 0.3937007874015748
          },
          {
            "duration": 0.09999999999999964,
            "durationTicks": 96,
            "midi": 76,
            "name": "E5",
            "ticks": 8064,
            "time": 8.4,
            "velocity": 0.3937007874015748
          },
          {
            "duration": 0.09999999999999964,
            "durationTicks": 96,
            "midi": 60,
            "name": "C4",
            "ticks": 8064,
            "time": 8.4,
            "velocity": 0.3937007874015748
          },
          {
            "duration": 0.09999999999999964,
            "durationTicks": 96,
            "midi": 88,
            "name": "E6",
            "ticks": 8160,
            "time": 8.5,
            "velocity": 0.3937007874015748
          },
          {
            "duration": 0.09999999999999964,
            "durationTicks": 96,
            "midi": 28,
            "name": "E1",
            "ticks": 8160,
            "time": 8.5,
            "velocity": 0.3937007874015748
          },
          {
            "duration": 0.09999999999999964,
            "durationTicks": 96,
            "midi": 76,
            "name": "E5",
            "ticks": 8160,
            "time": 8.5,
            "velocity": 0.3937007874015748
          },
          {
            "duration": 0.10000000000000142,
            "durationTicks": 96,
            "midi": 88,
            "name": "E6",
            "ticks": 8256,
            "time": 8.6,
            "velocity": 0.3937007874015748
          },
          {
            "duration": 0.10000000000000142,
            "durationTicks": 96,
            "midi": 59,
            "name": "B3",
            "ticks": 8256,
            "time": 8.6,
            "velocity": 0.3937007874015748
          },
          {
            "duration": 0.10000000000000142,
            "durationTicks": 96,
            "midi": 28,
            "name": "E1",
            "ticks": 8256,
            "time": 8.6,
            "velocity": 0.3937007874015748
          },
          {
            "duration": 0.10000000000000142,
            "durationTicks": 96,
            "midi": 71,
            "name": "B4",
            "ticks": 8256,
            "time": 8.6,
            "velocity": 0.3937007874015748
          },
          {
            "duration": 0.10000000000000142,
            "durationTicks": 96,
            "midi": 76,
            "name": "E5",
            "ticks": 8256,
            "time": 8.6,
            "velocity": 0.3937007874015748
          },
          {
            "duration": 0.09999999999999964,
            "durationTicks": 96,
            "midi": 88,
            "name": "E6",
            "ticks": 8352,
            "time": 8.700000000000001,
            "velocity": 0.3937007874015748
          },
          {
            "duration": 0.09999999999999964,
            "durationTicks": 96,
            "midi": 28,
            "name": "E1",
            "ticks": 8352,
            "time": 8.700000000000001,
            "velocity": 0.3937007874015748
          },
          {
            "duration": 0.09999999999999964,
            "durationTicks": 96,
            "midi": 76,
            "name": "E5",
            "ticks": 8352,
            "time": 8.700000000000001,
            "velocity": 0.3937007874015748
          },
          {
            "duration": 0.8000000000000007,
            "durationTicks": 768,
            "midi": 40,
            "name": "E2",
            "ticks": 8448,
            "time": 8.8,
            "velocity": 0.3937007874015748
          },
          {
            "duration": 0.09999999999999964,
            "durationTicks": 96,
            "midi": 84,
            "name": "C6",
            "ticks": 8448,
            "time": 8.8,
            "velocity": 0.3937007874015748
          },
          {
            "duration": 0.09999999999999964,
            "durationTicks": 96,
            "midi": 57,
            "name": "A3",
            "ticks": 8448,
            "time": 8.8,
            "velocity": 0.3937007874015748
          },
          {
            "duration": 0.8000000000000007,
            "durationTicks": 768,
            "midi": 40,
            "name": "E2",
            "ticks": 8448,
            "time": 8.8,
            "velocity": 0.3937007874015748
          },
          {
            "duration": 0.09999999999999964,
            "durationTicks": 96,
            "midi": 72,
            "name": "C5",
            "ticks": 8448,
            "time": 8.8,
            "velocity": 0.3937007874015748
          },
          {
            "duration": 0.8000000000000007,
            "durationTicks": 768,
            "midi": 40,
            "name": "E2",
            "ticks": 8448,
            "time": 8.8,
            "velocity": 0.3937007874015748
          },
          {
            "duration": 0.09999999999999964,
            "durationTicks": 96,
            "midi": 28,
            "name": "E1",
            "ticks": 8448,
            "time": 8.8,
            "velocity": 0.3937007874015748
          },
          {
            "duration": 0.09999999999999964,
            "durationTicks": 96,
            "midi": 69,
            "name": "A4",
            "ticks": 8448,
            "time": 8.8,
            "velocity": 0.3937007874015748
          },
          {
            "duration": 0.09999999999999964,
            "durationTicks": 96,
            "midi": 72,
            "name": "C5",
            "ticks": 8544,
            "time": 8.9,
            "velocity": 0.3937007874015748
          },
          {
            "duration": 0.09999999999999964,
            "durationTicks": 96,
            "midi": 28,
            "name": "E1",
            "ticks": 8544,
            "time": 8.9,
            "velocity": 0.3937007874015748
          },
          {
            "duration": 0.09999999999999964,
            "durationTicks": 96,
            "midi": 84,
            "name": "C6",
            "ticks": 8544,
            "time": 8.9,
            "velocity": 0.3937007874015748
          },
          {
            "duration": 0.09999999999999964,
            "durationTicks": 96,
            "midi": 83,
            "name": "B5",
            "ticks": 8640,
            "time": 9,
            "velocity": 0.3937007874015748
          },
          {
            "duration": 0.09999999999999964,
            "durationTicks": 96,
            "midi": 60,
            "name": "C4",
            "ticks": 8640,
            "time": 9,
            "velocity": 0.3937007874015748
          },
          {
            "duration": 0.09999999999999964,
            "durationTicks": 96,
            "midi": 71,
            "name": "B4",
            "ticks": 8640,
            "time": 9,
            "velocity": 0.3937007874015748
          },
          {
            "duration": 0.09999999999999964,
            "durationTicks": 96,
            "midi": 28,
            "name": "E1",
            "ticks": 8640,
            "time": 9,
            "velocity": 0.3937007874015748
          },
          {
            "duration": 0.09999999999999964,
            "durationTicks": 96,
            "midi": 72,
            "name": "C5",
            "ticks": 8640,
            "time": 9,
            "velocity": 0.3937007874015748
          },
          {
            "duration": 0.10000000000000142,
            "durationTicks": 96,
            "midi": 28,
            "name": "E1",
            "ticks": 8736,
            "time": 9.1,
            "velocity": 0.3937007874015748
          },
          {
            "duration": 0.10000000000000142,
            "durationTicks": 96,
            "midi": 71,
            "name": "B4",
            "ticks": 8736,
            "time": 9.1,
            "velocity": 0.3937007874015748
          },
          {
            "duration": 0.10000000000000142,
            "durationTicks": 96,
            "midi": 83,
            "name": "B5",
            "ticks": 8736,
            "time": 9.1,
            "velocity": 0.3937007874015748
          },
          {
            "duration": 0.09999999999999964,
            "durationTicks": 96,
            "midi": 59,
            "name": "B3",
            "ticks": 8832,
            "time": 9.200000000000001,
            "velocity": 0.3937007874015748
          },
          {
            "duration": 0.09999999999999964,
            "durationTicks": 96,
            "midi": 71,
            "name": "B4",
            "ticks": 8832,
            "time": 9.200000000000001,
            "velocity": 0.3937007874015748
          },
          {
            "duration": 0.09999999999999964,
            "durationTicks": 96,
            "midi": 81,
            "name": "A5",
            "ticks": 8832,
            "time": 9.200000000000001,
            "velocity": 0.3937007874015748
          },
          {
            "duration": 0.09999999999999964,
            "durationTicks": 96,
            "midi": 28,
            "name": "E1",
            "ticks": 8832,
            "time": 9.200000000000001,
            "velocity": 0.3937007874015748
          },
          {
            "duration": 0.09999999999999964,
            "durationTicks": 96,
            "midi": 69,
            "name": "A4",
            "ticks": 8832,
            "time": 9.200000000000001,
            "velocity": 0.3937007874015748
          },
          {
            "duration": 0.09999999999999964,
            "durationTicks": 96,
            "midi": 28,
            "name": "E1",
            "ticks": 8928,
            "time": 9.3,
            "velocity": 0.3937007874015748
          },
          {
            "duration": 0.09999999999999964,
            "durationTicks": 96,
            "midi": 81,
            "name": "A5",
            "ticks": 8928,
            "time": 9.3,
            "velocity": 0.3937007874015748
          },
          {
            "duration": 0.09999999999999964,
            "durationTicks": 96,
            "midi": 69,
            "name": "A4",
            "ticks": 8928,
            "time": 9.3,
            "velocity": 0.3937007874015748
          },
          {
            "duration": 0.09999999999999964,
            "durationTicks": 96,
            "midi": 76,
            "name": "E5",
            "ticks": 9024,
            "time": 9.4,
            "velocity": 0.3937007874015748
          },
          {
            "duration": 0.09999999999999964,
            "durationTicks": 96,
            "midi": 69,
            "name": "A4",
            "ticks": 9024,
            "time": 9.4,
            "velocity": 0.3937007874015748
          },
          {
            "duration": 0.09999999999999964,
            "durationTicks": 96,
            "midi": 64,
            "name": "E4",
            "ticks": 9024,
            "time": 9.4,
            "velocity": 0.3937007874015748
          },
          {
            "duration": 0.09999999999999964,
            "durationTicks": 96,
            "midi": 57,
            "name": "A3",
            "ticks": 9024,
            "time": 9.4,
            "velocity": 0.3937007874015748
          },
          {
            "duration": 0.09999999999999964,
            "durationTicks": 96,
            "midi": 28,
            "name": "E1",
            "ticks": 9024,
            "time": 9.4,
            "velocity": 0.3937007874015748
          },
          {
            "duration": 0.10000000000000142,
            "durationTicks": 96,
            "midi": 76,
            "name": "E5",
            "ticks": 9120,
            "time": 9.5,
            "velocity": 0.3937007874015748
          },
          {
            "duration": 0.10000000000000142,
            "durationTicks": 96,
            "midi": 28,
            "name": "E1",
            "ticks": 9120,
            "time": 9.5,
            "velocity": 0.3937007874015748
          },
          {
            "duration": 0.10000000000000142,
            "durationTicks": 96,
            "midi": 64,
            "name": "E4",
            "ticks": 9120,
            "time": 9.5,
            "velocity": 0.3937007874015748
          },
          {
            "duration": 0.09999999999999964,
            "durationTicks": 96,
            "midi": 60,
            "name": "C4",
            "ticks": 9216,
            "time": 9.600000000000001,
            "velocity": 0.3937007874015748
          },
          {
            "duration": 0.09999999999999964,
            "durationTicks": 96,
            "midi": 72,
            "name": "C5",
            "ticks": 9216,
            "time": 9.600000000000001,
            "velocity": 0.3937007874015748
          },
          {
            "duration": 1.1999999999999993,
            "durationTicks": 1152,
            "midi": 36,
            "name": "C2",
            "ticks": 9216,
            "time": 9.600000000000001,
            "velocity": 0.3937007874015748
          },
          {
            "duration": 0.09999999999999964,
            "durationTicks": 96,
            "midi": 74,
            "name": "D5",
            "ticks": 9216,
            "time": 9.600000000000001,
            "velocity": 0.3937007874015748
          },
          {
            "duration": 0.09999999999999964,
            "durationTicks": 96,
            "midi": 24,
            "name": "C1",
            "ticks": 9216,
            "time": 9.600000000000001,
            "velocity": 0.3937007874015748
          },
          {
            "duration": 0.09999999999999964,
            "durationTicks": 96,
            "midi": 62,
            "name": "D4",
            "ticks": 9216,
            "time": 9.600000000000001,
            "velocity": 0.3937007874015748
          },
          {
            "duration": 0.09999999999999964,
            "durationTicks": 96,
            "midi": 24,
            "name": "C1",
            "ticks": 9312,
            "time": 9.700000000000001,
            "velocity": 0.3937007874015748
          },
          {
            "duration": 0.09999999999999964,
            "durationTicks": 96,
            "midi": 74,
            "name": "D5",
            "ticks": 9312,
            "time": 9.700000000000001,
            "velocity": 0.3937007874015748
          },
          {
            "duration": 0.09999999999999964,
            "durationTicks": 96,
            "midi": 62,
            "name": "D4",
            "ticks": 9312,
            "time": 9.700000000000001,
            "velocity": 0.3937007874015748
          },
          {
            "duration": 0.09999999999999964,
            "durationTicks": 96,
            "midi": 62,
            "name": "D4",
            "ticks": 9408,
            "time": 9.8,
            "velocity": 0.3937007874015748
          },
          {
            "duration": 0.09999999999999964,
            "durationTicks": 96,
            "midi": 74,
            "name": "D5",
            "ticks": 9408,
            "time": 9.8,
            "velocity": 0.3937007874015748
          },
          {
            "duration": 0.09999999999999964,
            "durationTicks": 96,
            "midi": 24,
            "name": "C1",
            "ticks": 9408,
            "time": 9.8,
            "velocity": 0.3937007874015748
          },
          {
            "duration": 0.09999999999999964,
            "durationTicks": 96,
            "midi": 62,
            "name": "D4",
            "ticks": 9504,
            "time": 9.9,
            "velocity": 0.3937007874015748
          },
          {
            "duration": 0.09999999999999964,
            "durationTicks": 96,
            "midi": 74,
            "name": "D5",
            "ticks": 9504,
            "time": 9.9,
            "velocity": 0.3937007874015748
          },
          {
            "duration": 0.09999999999999964,
            "durationTicks": 96,
            "midi": 24,
            "name": "C1",
            "ticks": 9504,
            "time": 9.9,
            "velocity": 0.3937007874015748
          },
          {
            "duration": 0.10000000000000142,
            "durationTicks": 96,
            "midi": 62,
            "name": "D4",
            "ticks": 9600,
            "time": 10,
            "velocity": 0.3937007874015748
          },
          {
            "duration": 0.10000000000000142,
            "durationTicks": 96,
            "midi": 60,
            "name": "C4",
            "ticks": 9600,
            "time": 10,
            "velocity": 0.3937007874015748
          },
          {
            "duration": 0.10000000000000142,
            "durationTicks": 96,
            "midi": 74,
            "name": "D5",
            "ticks": 9600,
            "time": 10,
            "velocity": 0.3937007874015748
          },
          {
            "duration": 0.10000000000000142,
            "durationTicks": 96,
            "midi": 24,
            "name": "C1",
            "ticks": 9600,
            "time": 10,
            "velocity": 0.3937007874015748
          },
          {
            "duration": 0.10000000000000142,
            "durationTicks": 96,
            "midi": 72,
            "name": "C5",
            "ticks": 9600,
            "time": 10,
            "velocity": 0.3937007874015748
          },
          {
            "duration": 0.09999999999999964,
            "durationTicks": 96,
            "midi": 62,
            "name": "D4",
            "ticks": 9696,
            "time": 10.100000000000001,
            "velocity": 0.3937007874015748
          },
          {
            "duration": 0.09999999999999964,
            "durationTicks": 96,
            "midi": 74,
            "name": "D5",
            "ticks": 9696,
            "time": 10.100000000000001,
            "velocity": 0.3937007874015748
          },
          {
            "duration": 0.09999999999999964,
            "durationTicks": 96,
            "midi": 24,
            "name": "C1",
            "ticks": 9696,
            "time": 10.100000000000001,
            "velocity": 0.3937007874015748
          },
          {
            "duration": 0.09999999999999964,
            "durationTicks": 96,
            "midi": 24,
            "name": "C1",
            "ticks": 9792,
            "time": 10.200000000000001,
            "velocity": 0.3937007874015748
          },
          {
            "duration": 0.09999999999999964,
            "durationTicks": 96,
            "midi": 62,
            "name": "D4",
            "ticks": 9792,
            "time": 10.200000000000001,
            "velocity": 0.3937007874015748
          },
          {
            "duration": 0.09999999999999964,
            "durationTicks": 96,
            "midi": 74,
            "name": "D5",
            "ticks": 9792,
            "time": 10.200000000000001,
            "velocity": 0.3937007874015748
          },
          {
            "duration": 0.09999999999999964,
            "durationTicks": 96,
            "midi": 62,
            "name": "D4",
            "ticks": 9888,
            "time": 10.3,
            "velocity": 0.3937007874015748
          },
          {
            "duration": 0.09999999999999964,
            "durationTicks": 96,
            "midi": 74,
            "name": "D5",
            "ticks": 9888,
            "time": 10.3,
            "velocity": 0.3937007874015748
          },
          {
            "duration": 0.09999999999999964,
            "durationTicks": 96,
            "midi": 24,
            "name": "C1",
            "ticks": 9888,
            "time": 10.3,
            "velocity": 0.3937007874015748
          },
          {
            "duration": 0.09999999999999964,
            "durationTicks": 96,
            "midi": 24,
            "name": "C1",
            "ticks": 9984,
            "time": 10.4,
            "velocity": 0.3937007874015748
          },
          {
            "duration": 0.09999999999999964,
            "durationTicks": 96,
            "midi": 60,
            "name": "C4",
            "ticks": 9984,
            "time": 10.4,
            "velocity": 0.3937007874015748
          },
          {
            "duration": 0.09999999999999964,
            "durationTicks": 96,
            "midi": 76,
            "name": "E5",
            "ticks": 9984,
            "time": 10.4,
            "velocity": 0.3937007874015748
          },
          {
            "duration": 0.09999999999999964,
            "durationTicks": 96,
            "midi": 64,
            "name": "E4",
            "ticks": 9984,
            "time": 10.4,
            "velocity": 0.3937007874015748
          },
          {
            "duration": 0.10000000000000142,
            "durationTicks": 96,
            "midi": 64,
            "name": "E4",
            "ticks": 10080,
            "time": 10.5,
            "velocity": 0.3937007874015748
          },
          {
            "duration": 0.10000000000000142,
            "durationTicks": 96,
            "midi": 24,
            "name": "C1",
            "ticks": 10080,
            "time": 10.5,
            "velocity": 0.3937007874015748
          },
          {
            "duration": 0.10000000000000142,
            "durationTicks": 96,
            "midi": 76,
            "name": "E5",
            "ticks": 10080,
            "time": 10.5,
            "velocity": 0.3937007874015748
          },
          {
            "duration": 0.09999999999999964,
            "durationTicks": 96,
            "midi": 24,
            "name": "C1",
            "ticks": 10176,
            "time": 10.600000000000001,
            "velocity": 0.3937007874015748
          },
          {
            "duration": 0.09999999999999964,
            "durationTicks": 96,
            "midi": 59,
            "name": "B3",
            "ticks": 10176,
            "time": 10.600000000000001,
            "velocity": 0.3937007874015748
          },
          {
            "duration": 0.09999999999999964,
            "durationTicks": 96,
            "midi": 64,
            "name": "E4",
            "ticks": 10176,
            "time": 10.600000000000001,
            "velocity": 0.3937007874015748
          },
          {
            "duration": 0.09999999999999964,
            "durationTicks": 96,
            "midi": 76,
            "name": "E5",
            "ticks": 10176,
            "time": 10.600000000000001,
            "velocity": 0.3937007874015748
          },
          {
            "duration": 0.09999999999999964,
            "durationTicks": 96,
            "midi": 64,
            "name": "E4",
            "ticks": 10272,
            "time": 10.700000000000001,
            "velocity": 0.3937007874015748
          },
          {
            "duration": 0.09999999999999964,
            "durationTicks": 96,
            "midi": 24,
            "name": "C1",
            "ticks": 10272,
            "time": 10.700000000000001,
            "velocity": 0.3937007874015748
          },
          {
            "duration": 0.09999999999999964,
            "durationTicks": 96,
            "midi": 76,
            "name": "E5",
            "ticks": 10272,
            "time": 10.700000000000001,
            "velocity": 0.3937007874015748
          },
          {
            "duration": 0.09999999999999964,
            "durationTicks": 96,
            "midi": 57,
            "name": "A3",
            "ticks": 10368,
            "time": 10.8,
            "velocity": 0.3937007874015748
          },
          {
            "duration": 0.09999999999999964,
            "durationTicks": 96,
            "midi": 72,
            "name": "C5",
            "ticks": 10368,
            "time": 10.8,
            "velocity": 0.3937007874015748
          },
          {
            "duration": 0.09999999999999964,
            "durationTicks": 96,
            "midi": 24,
            "name": "C1",
            "ticks": 10368,
            "time": 10.8,
            "velocity": 0.3937007874015748
          },
          {
            "duration": 0.09999999999999964,
            "durationTicks": 96,
            "midi": 60,
            "name": "C4",
            "ticks": 10368,
            "time": 10.8,
            "velocity": 0.3937007874015748
          },
          {
            "duration": 0.09999999999999964,
            "durationTicks": 96,
            "midi": 60,
            "name": "C4",
            "ticks": 10368,
            "time": 10.8,
            "velocity": 0.3937007874015748
          },
          {
            "duration": 1.1999999999999993,
            "durationTicks": 1152,
            "midi": 36,
            "name": "C2",
            "ticks": 10368,
            "time": 10.8,
            "velocity": 0.3937007874015748
          },
          {
            "duration": 0.09999999999999964,
            "durationTicks": 96,
            "midi": 64,
            "name": "E4",
            "ticks": 10368,
            "time": 10.8,
            "velocity": 0.3937007874015748
          },
          {
            "duration": 0.09999999999999964,
            "durationTicks": 96,
            "midi": 76,
            "name": "E5",
            "ticks": 10368,
            "time": 10.8,
            "velocity": 0.3937007874015748
          },
          {
            "duration": 0.09999999999999964,
            "durationTicks": 96,
            "midi": 24,
            "name": "C1",
            "ticks": 10464,
            "time": 10.9,
            "velocity": 0.3937007874015748
          },
          {
            "duration": 0.09999999999999964,
            "durationTicks": 96,
            "midi": 64,
            "name": "E4",
            "ticks": 10464,
            "time": 10.9,
            "velocity": 0.3937007874015748
          },
          {
            "duration": 0.09999999999999964,
            "durationTicks": 96,
            "midi": 76,
            "name": "E5",
            "ticks": 10464,
            "time": 10.9,
            "velocity": 0.3937007874015748
          },
          {
            "duration": 0.10000000000000142,
            "durationTicks": 96,
            "midi": 24,
            "name": "C1",
            "ticks": 10560,
            "time": 11,
            "velocity": 0.3937007874015748
          },
          {
            "duration": 0.10000000000000142,
            "durationTicks": 96,
            "midi": 60,
            "name": "C4",
            "ticks": 10560,
            "time": 11,
            "velocity": 0.3937007874015748
          },
          {
            "duration": 0.10000000000000142,
            "durationTicks": 96,
            "midi": 76,
            "name": "E5",
            "ticks": 10560,
            "time": 11,
            "velocity": 0.3937007874015748
          },
          {
            "duration": 0.10000000000000142,
            "durationTicks": 96,
            "midi": 64,
            "name": "E4",
            "ticks": 10560,
            "time": 11,
            "velocity": 0.3937007874015748
          },
          {
            "duration": 0.09999999999999964,
            "durationTicks": 96,
            "midi": 24,
            "name": "C1",
            "ticks": 10656,
            "time": 11.100000000000001,
            "velocity": 0.3937007874015748
          },
          {
            "duration": 0.09999999999999964,
            "durationTicks": 96,
            "midi": 76,
            "name": "E5",
            "ticks": 10656,
            "time": 11.100000000000001,
            "velocity": 0.3937007874015748
          },
          {
            "duration": 0.09999999999999964,
            "durationTicks": 96,
            "midi": 64,
            "name": "E4",
            "ticks": 10656,
            "time": 11.100000000000001,
            "velocity": 0.3937007874015748
          },
          {
            "duration": 0.09999999999999964,
            "durationTicks": 96,
            "midi": 60,
            "name": "C4",
            "ticks": 10752,
            "time": 11.200000000000001,
            "velocity": 0.3937007874015748
          },
          {
            "duration": 0.09999999999999964,
            "durationTicks": 96,
            "midi": 59,
            "name": "B3",
            "ticks": 10752,
            "time": 11.200000000000001,
            "velocity": 0.3937007874015748
          },
          {
            "duration": 0.09999999999999964,
            "durationTicks": 96,
            "midi": 24,
            "name": "C1",
            "ticks": 10752,
            "time": 11.200000000000001,
            "velocity": 0.3937007874015748
          },
          {
            "duration": 0.09999999999999964,
            "durationTicks": 96,
            "midi": 76,
            "name": "E5",
            "ticks": 10752,
            "time": 11.200000000000001,
            "velocity": 0.3937007874015748
          },
          {
            "duration": 0.09999999999999964,
            "durationTicks": 96,
            "midi": 64,
            "name": "E4",
            "ticks": 10752,
            "time": 11.200000000000001,
            "velocity": 0.3937007874015748
          },
          {
            "duration": 0.09999999999999964,
            "durationTicks": 96,
            "midi": 76,
            "name": "E5",
            "ticks": 10848,
            "time": 11.3,
            "velocity": 0.3937007874015748
          },
          {
            "duration": 0.09999999999999964,
            "durationTicks": 96,
            "midi": 64,
            "name": "E4",
            "ticks": 10848,
            "time": 11.3,
            "velocity": 0.3937007874015748
          },
          {
            "duration": 0.09999999999999964,
            "durationTicks": 96,
            "midi": 24,
            "name": "C1",
            "ticks": 10848,
            "time": 11.3,
            "velocity": 0.3937007874015748
          },
          {
            "duration": 0.09999999999999964,
            "durationTicks": 96,
            "midi": 24,
            "name": "C1",
            "ticks": 10944,
            "time": 11.4,
            "velocity": 0.3937007874015748
          },
          {
            "duration": 0.09999999999999964,
            "durationTicks": 96,
            "midi": 64,
            "name": "E4",
            "ticks": 10944,
            "time": 11.4,
            "velocity": 0.3937007874015748
          },
          {
            "duration": 0.09999999999999964,
            "durationTicks": 96,
            "midi": 57,
            "name": "A3",
            "ticks": 10944,
            "time": 11.4,
            "velocity": 0.3937007874015748
          },
          {
            "duration": 0.09999999999999964,
            "durationTicks": 96,
            "midi": 76,
            "name": "E5",
            "ticks": 10944,
            "time": 11.4,
            "velocity": 0.3937007874015748
          },
          {
            "duration": 0.10000000000000142,
            "durationTicks": 96,
            "midi": 64,
            "name": "E4",
            "ticks": 11040,
            "time": 11.5,
            "velocity": 0.3937007874015748
          },
          {
            "duration": 0.10000000000000142,
            "durationTicks": 96,
            "midi": 76,
            "name": "E5",
            "ticks": 11040,
            "time": 11.5,
            "velocity": 0.3937007874015748
          },
          {
            "duration": 0.10000000000000142,
            "durationTicks": 96,
            "midi": 24,
            "name": "C1",
            "ticks": 11040,
            "time": 11.5,
            "velocity": 0.3937007874015748
          },
          {
            "duration": 0.09999999999999964,
            "durationTicks": 96,
            "midi": 72,
            "name": "C5",
            "ticks": 11136,
            "time": 11.600000000000001,
            "velocity": 0.3937007874015748
          },
          {
            "duration": 0.09999999999999964,
            "durationTicks": 96,
            "midi": 64,
            "name": "E4",
            "ticks": 11136,
            "time": 11.600000000000001,
            "velocity": 0.3937007874015748
          },
          {
            "duration": 0.09999999999999964,
            "durationTicks": 96,
            "midi": 24,
            "name": "C1",
            "ticks": 11136,
            "time": 11.600000000000001,
            "velocity": 0.3937007874015748
          },
          {
            "duration": 0.09999999999999964,
            "durationTicks": 96,
            "midi": 60,
            "name": "C4",
            "ticks": 11136,
            "time": 11.600000000000001,
            "velocity": 0.3937007874015748
          },
          {
            "duration": 0.09999999999999964,
            "durationTicks": 96,
            "midi": 60,
            "name": "C4",
            "ticks": 11136,
            "time": 11.600000000000001,
            "velocity": 0.3937007874015748
          },
          {
            "duration": 0.09999999999999964,
            "durationTicks": 96,
            "midi": 76,
            "name": "E5",
            "ticks": 11136,
            "time": 11.600000000000001,
            "velocity": 0.3937007874015748
          },
          {
            "duration": 0.09999999999999964,
            "durationTicks": 96,
            "midi": 76,
            "name": "E5",
            "ticks": 11232,
            "time": 11.700000000000001,
            "velocity": 0.3937007874015748
          },
          {
            "duration": 0.09999999999999964,
            "durationTicks": 96,
            "midi": 64,
            "name": "E4",
            "ticks": 11232,
            "time": 11.700000000000001,
            "velocity": 0.3937007874015748
          },
          {
            "duration": 0.09999999999999964,
            "durationTicks": 96,
            "midi": 24,
            "name": "C1",
            "ticks": 11232,
            "time": 11.700000000000001,
            "velocity": 0.3937007874015748
          },
          {
            "duration": 0.09999999999999964,
            "durationTicks": 96,
            "midi": 59,
            "name": "B3",
            "ticks": 11328,
            "time": 11.8,
            "velocity": 0.3937007874015748
          },
          {
            "duration": 0.09999999999999964,
            "durationTicks": 96,
            "midi": 24,
            "name": "C1",
            "ticks": 11328,
            "time": 11.8,
            "velocity": 0.3937007874015748
          },
          {
            "duration": 0.09999999999999964,
            "durationTicks": 96,
            "midi": 64,
            "name": "E4",
            "ticks": 11328,
            "time": 11.8,
            "velocity": 0.3937007874015748
          },
          {
            "duration": 0.09999999999999964,
            "durationTicks": 96,
            "midi": 76,
            "name": "E5",
            "ticks": 11328,
            "time": 11.8,
            "velocity": 0.3937007874015748
          },
          {
            "duration": 0.09999999999999964,
            "durationTicks": 96,
            "midi": 24,
            "name": "C1",
            "ticks": 11424,
            "time": 11.9,
            "velocity": 0.3937007874015748
          },
          {
            "duration": 0.09999999999999964,
            "durationTicks": 96,
            "midi": 64,
            "name": "E4",
            "ticks": 11424,
            "time": 11.9,
            "velocity": 0.3937007874015748
          },
          {
            "duration": 0.09999999999999964,
            "durationTicks": 96,
            "midi": 76,
            "name": "E5",
            "ticks": 11424,
            "time": 11.9,
            "velocity": 0.3937007874015748
          },
          {
            "duration": 0.8000000000000007,
            "durationTicks": 768,
            "midi": 36,
            "name": "C2",
            "ticks": 11520,
            "time": 12,
            "velocity": 0.3937007874015748
          },
          {
            "duration": 0.10000000000000142,
            "durationTicks": 96,
            "midi": 57,
            "name": "A3",
            "ticks": 11520,
            "time": 12,
            "velocity": 0.3937007874015748
          },
          {
            "duration": 0.10000000000000142,
            "durationTicks": 96,
            "midi": 76,
            "name": "E5",
            "ticks": 11520,
            "time": 12,
            "velocity": 0.3937007874015748
          },
          {
            "duration": 0.10000000000000142,
            "durationTicks": 96,
            "midi": 64,
            "name": "E4",
            "ticks": 11520,
            "time": 12,
            "velocity": 0.3937007874015748
          },
          {
            "duration": 0.10000000000000142,
            "durationTicks": 96,
            "midi": 60,
            "name": "C4",
            "ticks": 11520,
            "time": 12,
            "velocity": 0.3937007874015748
          },
          {
            "duration": 0.10000000000000142,
            "durationTicks": 96,
            "midi": 24,
            "name": "C1",
            "ticks": 11520,
            "time": 12,
            "velocity": 0.3937007874015748
          },
          {
            "duration": 0.09999999999999964,
            "durationTicks": 96,
            "midi": 76,
            "name": "E5",
            "ticks": 11616,
            "time": 12.100000000000001,
            "velocity": 0.3937007874015748
          },
          {
            "duration": 0.09999999999999964,
            "durationTicks": 96,
            "midi": 24,
            "name": "C1",
            "ticks": 11616,
            "time": 12.100000000000001,
            "velocity": 0.3937007874015748
          },
          {
            "duration": 0.09999999999999964,
            "durationTicks": 96,
            "midi": 64,
            "name": "E4",
            "ticks": 11616,
            "time": 12.100000000000001,
            "velocity": 0.3937007874015748
          },
          {
            "duration": 0.09999999999999964,
            "durationTicks": 96,
            "midi": 64,
            "name": "E4",
            "ticks": 11712,
            "time": 12.200000000000001,
            "velocity": 0.3937007874015748
          },
          {
            "duration": 0.09999999999999964,
            "durationTicks": 96,
            "midi": 60,
            "name": "C4",
            "ticks": 11712,
            "time": 12.200000000000001,
            "velocity": 0.3937007874015748
          },
          {
            "duration": 0.09999999999999964,
            "durationTicks": 96,
            "midi": 76,
            "name": "E5",
            "ticks": 11712,
            "time": 12.200000000000001,
            "velocity": 0.3937007874015748
          },
          {
            "duration": 0.09999999999999964,
            "durationTicks": 96,
            "midi": 24,
            "name": "C1",
            "ticks": 11712,
            "time": 12.200000000000001,
            "velocity": 0.3937007874015748
          },
          {
            "duration": 0.09999999999999964,
            "durationTicks": 96,
            "midi": 64,
            "name": "E4",
            "ticks": 11808,
            "time": 12.3,
            "velocity": 0.3937007874015748
          },
          {
            "duration": 0.09999999999999964,
            "durationTicks": 96,
            "midi": 24,
            "name": "C1",
            "ticks": 11808,
            "time": 12.3,
            "velocity": 0.3937007874015748
          },
          {
            "duration": 0.09999999999999964,
            "durationTicks": 96,
            "midi": 76,
            "name": "E5",
            "ticks": 11808,
            "time": 12.3,
            "velocity": 0.3937007874015748
          },
          {
            "duration": 0.09999999999999964,
            "durationTicks": 96,
            "midi": 72,
            "name": "C5",
            "ticks": 11904,
            "time": 12.4,
            "velocity": 0.3937007874015748
          },
          {
            "duration": 0.09999999999999964,
            "durationTicks": 96,
            "midi": 59,
            "name": "B3",
            "ticks": 11904,
            "time": 12.4,
            "velocity": 0.3937007874015748
          },
          {
            "duration": 0.09999999999999964,
            "durationTicks": 96,
            "midi": 60,
            "name": "C4",
            "ticks": 11904,
            "time": 12.4,
            "velocity": 0.3937007874015748
          },
          {
            "duration": 0.09999999999999964,
            "durationTicks": 96,
            "midi": 60,
            "name": "C4",
            "ticks": 11904,
            "time": 12.4,
            "velocity": 0.3937007874015748
          },
          {
            "duration": 0.09999999999999964,
            "durationTicks": 96,
            "midi": 76,
            "name": "E5",
            "ticks": 11904,
            "time": 12.4,
            "velocity": 0.3937007874015748
          },
          {
            "duration": 0.09999999999999964,
            "durationTicks": 96,
            "midi": 64,
            "name": "E4",
            "ticks": 11904,
            "time": 12.4,
            "velocity": 0.3937007874015748
          },
          {
            "duration": 0.09999999999999964,
            "durationTicks": 96,
            "midi": 24,
            "name": "C1",
            "ticks": 11904,
            "time": 12.4,
            "velocity": 0.3937007874015748
          },
          {
            "duration": 0.10000000000000142,
            "durationTicks": 96,
            "midi": 76,
            "name": "E5",
            "ticks": 12000,
            "time": 12.5,
            "velocity": 0.3937007874015748
          },
          {
            "duration": 0.10000000000000142,
            "durationTicks": 96,
            "midi": 64,
            "name": "E4",
            "ticks": 12000,
            "time": 12.5,
            "velocity": 0.3937007874015748
          },
          {
            "duration": 0.10000000000000142,
            "durationTicks": 96,
            "midi": 24,
            "name": "C1",
            "ticks": 12000,
            "time": 12.5,
            "velocity": 0.3937007874015748
          },
          {
            "duration": 0.09999999999999964,
            "durationTicks": 96,
            "midi": 76,
            "name": "E5",
            "ticks": 12096,
            "time": 12.600000000000001,
            "velocity": 0.3937007874015748
          },
          {
            "duration": 0.09999999999999964,
            "durationTicks": 96,
            "midi": 64,
            "name": "E4",
            "ticks": 12096,
            "time": 12.600000000000001,
            "velocity": 0.3937007874015748
          },
          {
            "duration": 0.09999999999999964,
            "durationTicks": 96,
            "midi": 57,
            "name": "A3",
            "ticks": 12096,
            "time": 12.600000000000001,
            "velocity": 0.3937007874015748
          },
          {
            "duration": 0.09999999999999964,
            "durationTicks": 96,
            "midi": 24,
            "name": "C1",
            "ticks": 12096,
            "time": 12.600000000000001,
            "velocity": 0.3937007874015748
          },
          {
            "duration": 0.09999999999999964,
            "durationTicks": 96,
            "midi": 76,
            "name": "E5",
            "ticks": 12192,
            "time": 12.700000000000001,
            "velocity": 0.3937007874015748
          },
          {
            "duration": 0.09999999999999964,
            "durationTicks": 96,
            "midi": 24,
            "name": "C1",
            "ticks": 12192,
            "time": 12.700000000000001,
            "velocity": 0.3937007874015748
          },
          {
            "duration": 0.09999999999999964,
            "durationTicks": 96,
            "midi": 64,
            "name": "E4",
            "ticks": 12192,
            "time": 12.700000000000001,
            "velocity": 0.3937007874015748
          },
          {
            "duration": 0.09999999999999964,
            "durationTicks": 96,
            "midi": 64,
            "name": "E4",
            "ticks": 12288,
            "time": 12.8,
            "velocity": 0.3937007874015748
          },
          {
            "duration": 0.09999999999999964,
            "durationTicks": 96,
            "midi": 76,
            "name": "E5",
            "ticks": 12288,
            "time": 12.8,
            "velocity": 0.3937007874015748
          },
          {
            "duration": 1.1999999999999993,
            "durationTicks": 1152,
            "midi": 40,
            "name": "E2",
            "ticks": 12288,
            "time": 12.8,
            "velocity": 0.3937007874015748
          },
          {
            "duration": 0.09999999999999964,
            "durationTicks": 96,
            "midi": 71,
            "name": "B4",
            "ticks": 12288,
            "time": 12.8,
            "velocity": 0.3937007874015748
          },
          {
            "duration": 0.09999999999999964,
            "durationTicks": 96,
            "midi": 59,
            "name": "B3",
            "ticks": 12288,
            "time": 12.8,
            "velocity": 0.3937007874015748
          },
          {
            "duration": 0.09999999999999964,
            "durationTicks": 96,
            "midi": 28,
            "name": "E1",
            "ticks": 12288,
            "time": 12.8,
            "velocity": 0.3937007874015748
          },
          {
            "duration": 1.1999999999999993,
            "durationTicks": 1152,
            "midi": 40,
            "name": "E2",
            "ticks": 12288,
            "time": 12.8,
            "velocity": 0.3937007874015748
          },
          {
            "duration": 1.1999999999999993,
            "durationTicks": 1152,
            "midi": 40,
            "name": "E2",
            "ticks": 12288,
            "time": 12.8,
            "velocity": 0.3937007874015748
          },
          {
            "duration": 0.09999999999999964,
            "durationTicks": 96,
            "midi": 64,
            "name": "E4",
            "ticks": 12384,
            "time": 12.9,
            "velocity": 0.3937007874015748
          },
          {
            "duration": 0.09999999999999964,
            "durationTicks": 96,
            "midi": 76,
            "name": "E5",
            "ticks": 12384,
            "time": 12.9,
            "velocity": 0.3937007874015748
          },
          {
            "duration": 0.09999999999999964,
            "durationTicks": 96,
            "midi": 28,
            "name": "E1",
            "ticks": 12384,
            "time": 12.9,
            "velocity": 0.3937007874015748
          },
          {
            "duration": 0.10000000000000142,
            "durationTicks": 96,
            "midi": 64,
            "name": "E4",
            "ticks": 12480,
            "time": 13,
            "velocity": 0.3937007874015748
          },
          {
            "duration": 0.10000000000000142,
            "durationTicks": 96,
            "midi": 76,
            "name": "E5",
            "ticks": 12480,
            "time": 13,
            "velocity": 0.3937007874015748
          },
          {
            "duration": 0.10000000000000142,
            "durationTicks": 96,
            "midi": 28,
            "name": "E1",
            "ticks": 12480,
            "time": 13,
            "velocity": 0.3937007874015748
          },
          {
            "duration": 0.09999999999999964,
            "durationTicks": 96,
            "midi": 28,
            "name": "E1",
            "ticks": 12576,
            "time": 13.100000000000001,
            "velocity": 0.3937007874015748
          },
          {
            "duration": 0.09999999999999964,
            "durationTicks": 96,
            "midi": 76,
            "name": "E5",
            "ticks": 12576,
            "time": 13.100000000000001,
            "velocity": 0.3937007874015748
          },
          {
            "duration": 0.09999999999999964,
            "durationTicks": 96,
            "midi": 64,
            "name": "E4",
            "ticks": 12576,
            "time": 13.100000000000001,
            "velocity": 0.3937007874015748
          },
          {
            "duration": 0.09999999999999964,
            "durationTicks": 96,
            "midi": 71,
            "name": "B4",
            "ticks": 12672,
            "time": 13.200000000000001,
            "velocity": 0.3937007874015748
          },
          {
            "duration": 0.09999999999999964,
            "durationTicks": 96,
            "midi": 28,
            "name": "E1",
            "ticks": 12672,
            "time": 13.200000000000001,
            "velocity": 0.3937007874015748
          },
          {
            "duration": 0.09999999999999964,
            "durationTicks": 96,
            "midi": 59,
            "name": "B3",
            "ticks": 12672,
            "time": 13.200000000000001,
            "velocity": 0.3937007874015748
          },
          {
            "duration": 0.09999999999999964,
            "durationTicks": 96,
            "midi": 64,
            "name": "E4",
            "ticks": 12672,
            "time": 13.200000000000001,
            "velocity": 0.3937007874015748
          },
          {
            "duration": 0.09999999999999964,
            "durationTicks": 96,
            "midi": 76,
            "name": "E5",
            "ticks": 12672,
            "time": 13.200000000000001,
            "velocity": 0.3937007874015748
          },
          {
            "duration": 0.09999999999999964,
            "durationTicks": 96,
            "midi": 28,
            "name": "E1",
            "ticks": 12768,
            "time": 13.3,
            "velocity": 0.3937007874015748
          },
          {
            "duration": 0.09999999999999964,
            "durationTicks": 96,
            "midi": 76,
            "name": "E5",
            "ticks": 12768,
            "time": 13.3,
            "velocity": 0.3937007874015748
          },
          {
            "duration": 0.09999999999999964,
            "durationTicks": 96,
            "midi": 64,
            "name": "E4",
            "ticks": 12768,
            "time": 13.3,
            "velocity": 0.3937007874015748
          },
          {
            "duration": 0.09999999999999964,
            "durationTicks": 96,
            "midi": 64,
            "name": "E4",
            "ticks": 12864,
            "time": 13.4,
            "velocity": 0.3937007874015748
          },
          {
            "duration": 0.09999999999999964,
            "durationTicks": 96,
            "midi": 28,
            "name": "E1",
            "ticks": 12864,
            "time": 13.4,
            "velocity": 0.3937007874015748
          },
          {
            "duration": 0.09999999999999964,
            "durationTicks": 96,
            "midi": 76,
            "name": "E5",
            "ticks": 12864,
            "time": 13.4,
            "velocity": 0.3937007874015748
          },
          {
            "duration": 0.10000000000000142,
            "durationTicks": 96,
            "midi": 76,
            "name": "E5",
            "ticks": 12960,
            "time": 13.5,
            "velocity": 0.3937007874015748
          },
          {
            "duration": 0.10000000000000142,
            "durationTicks": 96,
            "midi": 64,
            "name": "E4",
            "ticks": 12960,
            "time": 13.5,
            "velocity": 0.3937007874015748
          },
          {
            "duration": 0.10000000000000142,
            "durationTicks": 96,
            "midi": 28,
            "name": "E1",
            "ticks": 12960,
            "time": 13.5,
            "velocity": 0.3937007874015748
          },
          {
            "duration": 0.09999999999999964,
            "durationTicks": 96,
            "midi": 28,
            "name": "E1",
            "ticks": 13056,
            "time": 13.600000000000001,
            "velocity": 0.3937007874015748
          },
          {
            "duration": 0.09999999999999964,
            "durationTicks": 96,
            "midi": 72,
            "name": "C5",
            "ticks": 13056,
            "time": 13.600000000000001,
            "velocity": 0.3937007874015748
          },
          {
            "duration": 0.09999999999999964,
            "durationTicks": 96,
            "midi": 88,
            "name": "E6",
            "ticks": 13056,
            "time": 13.600000000000001,
            "velocity": 0.3937007874015748
          },
          {
            "duration": 0.09999999999999964,
            "durationTicks": 96,
            "midi": 76,
            "name": "E5",
            "ticks": 13056,
            "time": 13.600000000000001,
            "velocity": 0.3937007874015748
          },
          {
            "duration": 0.09999999999999964,
            "durationTicks": 96,
            "midi": 60,
            "name": "C4",
            "ticks": 13056,
            "time": 13.600000000000001,
            "velocity": 0.3937007874015748
          },
          {
            "duration": 0.09999999999999964,
            "durationTicks": 96,
            "midi": 88,
            "name": "E6",
            "ticks": 13152,
            "time": 13.700000000000001,
            "velocity": 0.3937007874015748
          },
          {
            "duration": 0.09999999999999964,
            "durationTicks": 96,
            "midi": 28,
            "name": "E1",
            "ticks": 13152,
            "time": 13.700000000000001,
            "velocity": 0.3937007874015748
          },
          {
            "duration": 0.09999999999999964,
            "durationTicks": 96,
            "midi": 76,
            "name": "E5",
            "ticks": 13152,
            "time": 13.700000000000001,
            "velocity": 0.3937007874015748
          },
          {
            "duration": 0.09999999999999964,
            "durationTicks": 96,
            "midi": 59,
            "name": "B3",
            "ticks": 13248,
            "time": 13.8,
            "velocity": 0.3937007874015748
          },
          {
            "duration": 0.09999999999999964,
            "durationTicks": 96,
            "midi": 88,
            "name": "E6",
            "ticks": 13248,
            "time": 13.8,
            "velocity": 0.3937007874015748
          },
          {
            "duration": 0.09999999999999964,
            "durationTicks": 96,
            "midi": 28,
            "name": "E1",
            "ticks": 13248,
            "time": 13.8,
            "velocity": 0.3937007874015748
          },
          {
            "duration": 0.09999999999999964,
            "durationTicks": 96,
            "midi": 76,
            "name": "E5",
            "ticks": 13248,
            "time": 13.8,
            "velocity": 0.3937007874015748
          },
          {
            "duration": 0.09999999999999964,
            "durationTicks": 96,
            "midi": 71,
            "name": "B4",
            "ticks": 13248,
            "time": 13.8,
            "velocity": 0.3937007874015748
          },
          {
            "duration": 0.09999999999999964,
            "durationTicks": 96,
            "midi": 28,
            "name": "E1",
            "ticks": 13344,
            "time": 13.9,
            "velocity": 0.3937007874015748
          },
          {
            "duration": 0.09999999999999964,
            "durationTicks": 96,
            "midi": 76,
            "name": "E5",
            "ticks": 13344,
            "time": 13.9,
            "velocity": 0.3937007874015748
          },
          {
            "duration": 0.09999999999999964,
            "durationTicks": 96,
            "midi": 88,
            "name": "E6",
            "ticks": 13344,
            "time": 13.9,
            "velocity": 0.3937007874015748
          },
          {
            "duration": 0.10000000000000142,
            "durationTicks": 96,
            "midi": 28,
            "name": "E1",
            "ticks": 13440,
            "time": 14,
            "velocity": 0.3937007874015748
          },
          {
            "duration": 0.10000000000000142,
            "durationTicks": 96,
            "midi": 69,
            "name": "A4",
            "ticks": 13440,
            "time": 14,
            "velocity": 0.3937007874015748
          },
          {
            "duration": 1.200000000000001,
            "durationTicks": 1152,
            "midi": 40,
            "name": "E2",
            "ticks": 13440,
            "time": 14,
            "velocity": 0.3937007874015748
          },
          {
            "duration": 1.200000000000001,
            "durationTicks": 1152,
            "midi": 40,
            "name": "E2",
            "ticks": 13440,
            "time": 14,
            "velocity": 0.3937007874015748
          },
          {
            "duration": 0.10000000000000142,
            "durationTicks": 96,
            "midi": 57,
            "name": "A3",
            "ticks": 13440,
            "time": 14,
            "velocity": 0.3937007874015748
          },
          {
            "duration": 1.200000000000001,
            "durationTicks": 1152,
            "midi": 40,
            "name": "E2",
            "ticks": 13440,
            "time": 14,
            "velocity": 0.3937007874015748
          },
          {
            "duration": 0.10000000000000142,
            "durationTicks": 96,
            "midi": 76,
            "name": "E5",
            "ticks": 13440,
            "time": 14,
            "velocity": 0.3937007874015748
          },
          {
            "duration": 0.10000000000000142,
            "durationTicks": 96,
            "midi": 88,
            "name": "E6",
            "ticks": 13440,
            "time": 14,
            "velocity": 0.3937007874015748
          },
          {
            "duration": 0.09999999999999964,
            "durationTicks": 96,
            "midi": 88,
            "name": "E6",
            "ticks": 13536,
            "time": 14.100000000000001,
            "velocity": 0.3937007874015748
          },
          {
            "duration": 0.09999999999999964,
            "durationTicks": 96,
            "midi": 76,
            "name": "E5",
            "ticks": 13536,
            "time": 14.100000000000001,
            "velocity": 0.3937007874015748
          },
          {
            "duration": 0.09999999999999964,
            "durationTicks": 96,
            "midi": 28,
            "name": "E1",
            "ticks": 13536,
            "time": 14.100000000000001,
            "velocity": 0.3937007874015748
          },
          {
            "duration": 0.09999999999999964,
            "durationTicks": 96,
            "midi": 76,
            "name": "E5",
            "ticks": 13632,
            "time": 14.200000000000001,
            "velocity": 0.3937007874015748
          },
          {
            "duration": 0.09999999999999964,
            "durationTicks": 96,
            "midi": 88,
            "name": "E6",
            "ticks": 13632,
            "time": 14.200000000000001,
            "velocity": 0.3937007874015748
          },
          {
            "duration": 0.09999999999999964,
            "durationTicks": 96,
            "midi": 72,
            "name": "C5",
            "ticks": 13632,
            "time": 14.200000000000001,
            "velocity": 0.3937007874015748
          },
          {
            "duration": 0.09999999999999964,
            "durationTicks": 96,
            "midi": 60,
            "name": "C4",
            "ticks": 13632,
            "time": 14.200000000000001,
            "velocity": 0.3937007874015748
          },
          {
            "duration": 0.09999999999999964,
            "durationTicks": 96,
            "midi": 28,
            "name": "E1",
            "ticks": 13632,
            "time": 14.200000000000001,
            "velocity": 0.3937007874015748
          },
          {
            "duration": 0.09999999999999964,
            "durationTicks": 96,
            "midi": 76,
            "name": "E5",
            "ticks": 13728,
            "time": 14.3,
            "velocity": 0.3937007874015748
          },
          {
            "duration": 0.09999999999999964,
            "durationTicks": 96,
            "midi": 28,
            "name": "E1",
            "ticks": 13728,
            "time": 14.3,
            "velocity": 0.3937007874015748
          },
          {
            "duration": 0.09999999999999964,
            "durationTicks": 96,
            "midi": 88,
            "name": "E6",
            "ticks": 13728,
            "time": 14.3,
            "velocity": 0.3937007874015748
          },
          {
            "duration": 0.09999999999999964,
            "durationTicks": 96,
            "midi": 71,
            "name": "B4",
            "ticks": 13824,
            "time": 14.4,
            "velocity": 0.3937007874015748
          },
          {
            "duration": 0.09999999999999964,
            "durationTicks": 96,
            "midi": 88,
            "name": "E6",
            "ticks": 13824,
            "time": 14.4,
            "velocity": 0.3937007874015748
          },
          {
            "duration": 0.09999999999999964,
            "durationTicks": 96,
            "midi": 59,
            "name": "B3",
            "ticks": 13824,
            "time": 14.4,
            "velocity": 0.3937007874015748
          },
          {
            "duration": 0.09999999999999964,
            "durationTicks": 96,
            "midi": 76,
            "name": "E5",
            "ticks": 13824,
            "time": 14.4,
            "velocity": 0.3937007874015748
          },
          {
            "duration": 0.09999999999999964,
            "durationTicks": 96,
            "midi": 28,
            "name": "E1",
            "ticks": 13824,
            "time": 14.4,
            "velocity": 0.3937007874015748
          },
          {
            "duration": 0.10000000000000142,
            "durationTicks": 96,
            "midi": 76,
            "name": "E5",
            "ticks": 13920,
            "time": 14.5,
            "velocity": 0.3937007874015748
          },
          {
            "duration": 0.10000000000000142,
            "durationTicks": 96,
            "midi": 28,
            "name": "E1",
            "ticks": 13920,
            "time": 14.5,
            "velocity": 0.3937007874015748
          },
          {
            "duration": 0.10000000000000142,
            "durationTicks": 96,
            "midi": 88,
            "name": "E6",
            "ticks": 13920,
            "time": 14.5,
            "velocity": 0.3937007874015748
          },
          {
            "duration": 0.09999999999999964,
            "durationTicks": 96,
            "midi": 76,
            "name": "E5",
            "ticks": 14016,
            "time": 14.600000000000001,
            "velocity": 0.3937007874015748
          },
          {
            "duration": 0.09999999999999964,
            "durationTicks": 96,
            "midi": 28,
            "name": "E1",
            "ticks": 14016,
            "time": 14.600000000000001,
            "velocity": 0.3937007874015748
          },
          {
            "duration": 0.09999999999999964,
            "durationTicks": 96,
            "midi": 57,
            "name": "A3",
            "ticks": 14016,
            "time": 14.600000000000001,
            "velocity": 0.3937007874015748
          },
          {
            "duration": 0.09999999999999964,
            "durationTicks": 96,
            "midi": 88,
            "name": "E6",
            "ticks": 14016,
            "time": 14.600000000000001,
            "velocity": 0.3937007874015748
          },
          {
            "duration": 0.09999999999999964,
            "durationTicks": 96,
            "midi": 69,
            "name": "A4",
            "ticks": 14016,
            "time": 14.600000000000001,
            "velocity": 0.3937007874015748
          },
          {
            "duration": 0.09999999999999964,
            "durationTicks": 96,
            "midi": 28,
            "name": "E1",
            "ticks": 14112,
            "time": 14.700000000000001,
            "velocity": 0.3937007874015748
          },
          {
            "duration": 0.09999999999999964,
            "durationTicks": 96,
            "midi": 76,
            "name": "E5",
            "ticks": 14112,
            "time": 14.700000000000001,
            "velocity": 0.3937007874015748
          },
          {
            "duration": 0.09999999999999964,
            "durationTicks": 96,
            "midi": 88,
            "name": "E6",
            "ticks": 14112,
            "time": 14.700000000000001,
            "velocity": 0.3937007874015748
          },
          {
            "duration": 0.09999999999999964,
            "durationTicks": 96,
            "midi": 28,
            "name": "E1",
            "ticks": 14208,
            "time": 14.8,
            "velocity": 0.3937007874015748
          },
          {
            "duration": 0.09999999999999964,
            "durationTicks": 96,
            "midi": 60,
            "name": "C4",
            "ticks": 14208,
            "time": 14.8,
            "velocity": 0.3937007874015748
          },
          {
            "duration": 0.09999999999999964,
            "durationTicks": 96,
            "midi": 88,
            "name": "E6",
            "ticks": 14208,
            "time": 14.8,
            "velocity": 0.3937007874015748
          },
          {
            "duration": 0.09999999999999964,
            "durationTicks": 96,
            "midi": 72,
            "name": "C5",
            "ticks": 14208,
            "time": 14.8,
            "velocity": 0.3937007874015748
          },
          {
            "duration": 0.09999999999999964,
            "durationTicks": 96,
            "midi": 76,
            "name": "E5",
            "ticks": 14208,
            "time": 14.8,
            "velocity": 0.3937007874015748
          },
          {
            "duration": 0.09999999999999964,
            "durationTicks": 96,
            "midi": 76,
            "name": "E5",
            "ticks": 14304,
            "time": 14.9,
            "velocity": 0.3937007874015748
          },
          {
            "duration": 0.09999999999999964,
            "durationTicks": 96,
            "midi": 28,
            "name": "E1",
            "ticks": 14304,
            "time": 14.9,
            "velocity": 0.3937007874015748
          },
          {
            "duration": 0.09999999999999964,
            "durationTicks": 96,
            "midi": 88,
            "name": "E6",
            "ticks": 14304,
            "time": 14.9,
            "velocity": 0.3937007874015748
          },
          {
            "duration": 0.10000000000000142,
            "durationTicks": 96,
            "midi": 59,
            "name": "B3",
            "ticks": 14400,
            "time": 15,
            "velocity": 0.3937007874015748
          },
          {
            "duration": 0.10000000000000142,
            "durationTicks": 96,
            "midi": 76,
            "name": "E5",
            "ticks": 14400,
            "time": 15,
            "velocity": 0.3937007874015748
          },
          {
            "duration": 0.10000000000000142,
            "durationTicks": 96,
            "midi": 88,
            "name": "E6",
            "ticks": 14400,
            "time": 15,
            "velocity": 0.3937007874015748
          },
          {
            "duration": 0.10000000000000142,
            "durationTicks": 96,
            "midi": 28,
            "name": "E1",
            "ticks": 14400,
            "time": 15,
            "velocity": 0.3937007874015748
          },
          {
            "duration": 0.10000000000000142,
            "durationTicks": 96,
            "midi": 71,
            "name": "B4",
            "ticks": 14400,
            "time": 15,
            "velocity": 0.3937007874015748
          },
          {
            "duration": 0.09999999999999964,
            "durationTicks": 96,
            "midi": 28,
            "name": "E1",
            "ticks": 14496,
            "time": 15.100000000000001,
            "velocity": 0.3937007874015748
          },
          {
            "duration": 0.09999999999999964,
            "durationTicks": 96,
            "midi": 88,
            "name": "E6",
            "ticks": 14496,
            "time": 15.100000000000001,
            "velocity": 0.3937007874015748
          },
          {
            "duration": 0.09999999999999964,
            "durationTicks": 96,
            "midi": 76,
            "name": "E5",
            "ticks": 14496,
            "time": 15.100000000000001,
            "velocity": 0.3937007874015748
          },
          {
            "duration": 0.09999999999999964,
            "durationTicks": 96,
            "midi": 57,
            "name": "A3",
            "ticks": 14592,
            "time": 15.200000000000001,
            "velocity": 0.3937007874015748
          },
          {
            "duration": 0.09999999999999964,
            "durationTicks": 96,
            "midi": 28,
            "name": "E1",
            "ticks": 14592,
            "time": 15.200000000000001,
            "velocity": 0.3937007874015748
          },
          {
            "duration": 0.09999999999999964,
            "durationTicks": 96,
            "midi": 69,
            "name": "A4",
            "ticks": 14592,
            "time": 15.200000000000001,
            "velocity": 0.3937007874015748
          },
          {
            "duration": 0.7999999999999989,
            "durationTicks": 768,
            "midi": 40,
            "name": "E2",
            "ticks": 14592,
            "time": 15.200000000000001,
            "velocity": 0.3937007874015748
          },
          {
            "duration": 0.09999999999999964,
            "durationTicks": 96,
            "midi": 84,
            "name": "C6",
            "ticks": 14592,
            "time": 15.200000000000001,
            "velocity": 0.3937007874015748
          },
          {
            "duration": 0.7999999999999989,
            "durationTicks": 768,
            "midi": 40,
            "name": "E2",
            "ticks": 14592,
            "time": 15.200000000000001,
            "velocity": 0.3937007874015748
          },
          {
            "duration": 0.7999999999999989,
            "durationTicks": 768,
            "midi": 40,
            "name": "E2",
            "ticks": 14592,
            "time": 15.200000000000001,
            "velocity": 0.3937007874015748
          },
          {
            "duration": 0.09999999999999964,
            "durationTicks": 96,
            "midi": 72,
            "name": "C5",
            "ticks": 14592,
            "time": 15.200000000000001,
            "velocity": 0.3937007874015748
          },
          {
            "duration": 0.09999999999999964,
            "durationTicks": 96,
            "midi": 28,
            "name": "E1",
            "ticks": 14688,
            "time": 15.3,
            "velocity": 0.3937007874015748
          },
          {
            "duration": 0.09999999999999964,
            "durationTicks": 96,
            "midi": 72,
            "name": "C5",
            "ticks": 14688,
            "time": 15.3,
            "velocity": 0.3937007874015748
          },
          {
            "duration": 0.09999999999999964,
            "durationTicks": 96,
            "midi": 84,
            "name": "C6",
            "ticks": 14688,
            "time": 15.3,
            "velocity": 0.3937007874015748
          },
          {
            "duration": 0.09999999999999964,
            "durationTicks": 96,
            "midi": 71,
            "name": "B4",
            "ticks": 14784,
            "time": 15.4,
            "velocity": 0.3937007874015748
          },
          {
            "duration": 0.09999999999999964,
            "durationTicks": 96,
            "midi": 60,
            "name": "C4",
            "ticks": 14784,
            "time": 15.4,
            "velocity": 0.3937007874015748
          },
          {
            "duration": 0.09999999999999964,
            "durationTicks": 96,
            "midi": 83,
            "name": "B5",
            "ticks": 14784,
            "time": 15.4,
            "velocity": 0.3937007874015748
          },
          {
            "duration": 0.09999999999999964,
            "durationTicks": 96,
            "midi": 28,
            "name": "E1",
            "ticks": 14784,
            "time": 15.4,
            "velocity": 0.3937007874015748
          },
          {
            "duration": 0.09999999999999964,
            "durationTicks": 96,
            "midi": 72,
            "name": "C5",
            "ticks": 14784,
            "time": 15.4,
            "velocity": 0.3937007874015748
          },
          {
            "duration": 0.10000000000000142,
            "durationTicks": 96,
            "midi": 83,
            "name": "B5",
            "ticks": 14880,
            "time": 15.5,
            "velocity": 0.3937007874015748
          },
          {
            "duration": 0.10000000000000142,
            "durationTicks": 96,
            "midi": 71,
            "name": "B4",
            "ticks": 14880,
            "time": 15.5,
            "velocity": 0.3937007874015748
          },
          {
            "duration": 0.10000000000000142,
            "durationTicks": 96,
            "midi": 28,
            "name": "E1",
            "ticks": 14880,
            "time": 15.5,
            "velocity": 0.3937007874015748
          },
          {
            "duration": 0.09999999999999964,
            "durationTicks": 96,
            "midi": 69,
            "name": "A4",
            "ticks": 14976,
            "time": 15.600000000000001,
            "velocity": 0.3937007874015748
          },
          {
            "duration": 0.09999999999999964,
            "durationTicks": 96,
            "midi": 28,
            "name": "E1",
            "ticks": 14976,
            "time": 15.600000000000001,
            "velocity": 0.3937007874015748
          },
          {
            "duration": 0.09999999999999964,
            "durationTicks": 96,
            "midi": 59,
            "name": "B3",
            "ticks": 14976,
            "time": 15.600000000000001,
            "velocity": 0.3937007874015748
          },
          {
            "duration": 0.09999999999999964,
            "durationTicks": 96,
            "midi": 71,
            "name": "B4",
            "ticks": 14976,
            "time": 15.600000000000001,
            "velocity": 0.3937007874015748
          },
          {
            "duration": 0.09999999999999964,
            "durationTicks": 96,
            "midi": 81,
            "name": "A5",
            "ticks": 14976,
            "time": 15.600000000000001,
            "velocity": 0.3937007874015748
          },
          {
            "duration": 0.09999999999999964,
            "durationTicks": 96,
            "midi": 81,
            "name": "A5",
            "ticks": 15072,
            "time": 15.700000000000001,
            "velocity": 0.3937007874015748
          },
          {
            "duration": 0.09999999999999964,
            "durationTicks": 96,
            "midi": 69,
            "name": "A4",
            "ticks": 15072,
            "time": 15.700000000000001,
            "velocity": 0.3937007874015748
          },
          {
            "duration": 0.09999999999999964,
            "durationTicks": 96,
            "midi": 28,
            "name": "E1",
            "ticks": 15072,
            "time": 15.700000000000001,
            "velocity": 0.3937007874015748
          },
          {
            "duration": 0.09999999999999964,
            "durationTicks": 96,
            "midi": 57,
            "name": "A3",
            "ticks": 15168,
            "time": 15.8,
            "velocity": 0.3937007874015748
          },
          {
            "duration": 0.09999999999999964,
            "durationTicks": 96,
            "midi": 28,
            "name": "E1",
            "ticks": 15168,
            "time": 15.8,
            "velocity": 0.3937007874015748
          },
          {
            "duration": 0.09999999999999964,
            "durationTicks": 96,
            "midi": 64,
            "name": "E4",
            "ticks": 15168,
            "time": 15.8,
            "velocity": 0.3937007874015748
          },
          {
            "duration": 0.09999999999999964,
            "durationTicks": 96,
            "midi": 76,
            "name": "E5",
            "ticks": 15168,
            "time": 15.8,
            "velocity": 0.3937007874015748
          },
          {
            "duration": 0.09999999999999964,
            "durationTicks": 96,
            "midi": 69,
            "name": "A4",
            "ticks": 15168,
            "time": 15.8,
            "velocity": 0.3937007874015748
          },
          {
            "duration": 0.09999999999999964,
            "durationTicks": 96,
            "midi": 76,
            "name": "E5",
            "ticks": 15264,
            "time": 15.9,
            "velocity": 0.3937007874015748
          },
          {
            "duration": 0.09999999999999964,
            "durationTicks": 96,
            "midi": 28,
            "name": "E1",
            "ticks": 15264,
            "time": 15.9,
            "velocity": 0.3937007874015748
          },
          {
            "duration": 0.09999999999999964,
            "durationTicks": 96,
            "midi": 64,
            "name": "E4",
            "ticks": 15264,
            "time": 15.9,
            "velocity": 0.3937007874015748
          },
          {
            "duration": 0.10000000000000142,
            "durationTicks": 96,
            "midi": 72,
            "name": "C5",
            "ticks": 15360,
            "time": 16,
            "velocity": 0.3937007874015748
          },
          {
            "duration": 0.10000000000000142,
            "durationTicks": 96,
            "midi": 62,
            "name": "D4",
            "ticks": 15360,
            "time": 16,
            "velocity": 0.3937007874015748
          },
          {
            "duration": 1.1999999999999993,
            "durationTicks": 1152,
            "midi": 36,
            "name": "C2",
            "ticks": 15360,
            "time": 16,
            "velocity": 0.3937007874015748
          },
          {
            "duration": 0.10000000000000142,
            "durationTicks": 96,
            "midi": 24,
            "name": "C1",
            "ticks": 15360,
            "time": 16,
            "velocity": 0.3937007874015748
          },
          {
            "duration": 0.10000000000000142,
            "durationTicks": 96,
            "midi": 74,
            "name": "D5",
            "ticks": 15360,
            "time": 16,
            "velocity": 0.3937007874015748
          },
          {
            "duration": 0.10000000000000142,
            "durationTicks": 96,
            "midi": 60,
            "name": "C4",
            "ticks": 15360,
            "time": 16,
            "velocity": 0.3937007874015748
          },
          {
            "duration": 0.09999999999999787,
            "durationTicks": 96,
            "midi": 24,
            "name": "C1",
            "ticks": 15456,
            "time": 16.1,
            "velocity": 0.3937007874015748
          },
          {
            "duration": 0.09999999999999787,
            "durationTicks": 96,
            "midi": 74,
            "name": "D5",
            "ticks": 15456,
            "time": 16.1,
            "velocity": 0.3937007874015748
          },
          {
            "duration": 0.09999999999999787,
            "durationTicks": 96,
            "midi": 62,
            "name": "D4",
            "ticks": 15456,
            "time": 16.1,
            "velocity": 0.3937007874015748
          },
          {
            "duration": 0.10000000000000142,
            "durationTicks": 96,
            "midi": 74,
            "name": "D5",
            "ticks": 15552,
            "time": 16.2,
            "velocity": 0.3937007874015748
          },
          {
            "duration": 0.10000000000000142,
            "durationTicks": 96,
            "midi": 62,
            "name": "D4",
            "ticks": 15552,
            "time": 16.2,
            "velocity": 0.3937007874015748
          },
          {
            "duration": 0.10000000000000142,
            "durationTicks": 96,
            "midi": 24,
            "name": "C1",
            "ticks": 15552,
            "time": 16.2,
            "velocity": 0.3937007874015748
          },
          {
            "duration": 0.10000000000000142,
            "durationTicks": 96,
            "midi": 62,
            "name": "D4",
            "ticks": 15648,
            "time": 16.3,
            "velocity": 0.3937007874015748
          },
          {
            "duration": 0.10000000000000142,
            "durationTicks": 96,
            "midi": 24,
            "name": "C1",
            "ticks": 15648,
            "time": 16.3,
            "velocity": 0.3937007874015748
          },
          {
            "duration": 0.10000000000000142,
            "durationTicks": 96,
            "midi": 74,
            "name": "D5",
            "ticks": 15648,
            "time": 16.3,
            "velocity": 0.3937007874015748
          },
          {
            "duration": 0.09999999999999787,
            "durationTicks": 96,
            "midi": 60,
            "name": "C4",
            "ticks": 15744,
            "time": 16.400000000000002,
            "velocity": 0.3937007874015748
          },
          {
            "duration": 0.09999999999999787,
            "durationTicks": 96,
            "midi": 62,
            "name": "D4",
            "ticks": 15744,
            "time": 16.400000000000002,
            "velocity": 0.3937007874015748
          },
          {
            "duration": 0.09999999999999787,
            "durationTicks": 96,
            "midi": 74,
            "name": "D5",
            "ticks": 15744,
            "time": 16.400000000000002,
            "velocity": 0.3937007874015748
          },
          {
            "duration": 0.09999999999999787,
            "durationTicks": 96,
            "midi": 72,
            "name": "C5",
            "ticks": 15744,
            "time": 16.400000000000002,
            "velocity": 0.3937007874015748
          },
          {
            "duration": 0.09999999999999787,
            "durationTicks": 96,
            "midi": 24,
            "name": "C1",
            "ticks": 15744,
            "time": 16.400000000000002,
            "velocity": 0.3937007874015748
          },
          {
            "duration": 0.10000000000000142,
            "durationTicks": 96,
            "midi": 74,
            "name": "D5",
            "ticks": 15840,
            "time": 16.5,
            "velocity": 0.3937007874015748
          },
          {
            "duration": 0.10000000000000142,
            "durationTicks": 96,
            "midi": 24,
            "name": "C1",
            "ticks": 15840,
            "time": 16.5,
            "velocity": 0.3937007874015748
          },
          {
            "duration": 0.10000000000000142,
            "durationTicks": 96,
            "midi": 62,
            "name": "D4",
            "ticks": 15840,
            "time": 16.5,
            "velocity": 0.3937007874015748
          },
          {
            "duration": 0.09999999999999787,
            "durationTicks": 96,
            "midi": 62,
            "name": "D4",
            "ticks": 15936,
            "time": 16.6,
            "velocity": 0.3937007874015748
          },
          {
            "duration": 0.09999999999999787,
            "durationTicks": 96,
            "midi": 24,
            "name": "C1",
            "ticks": 15936,
            "time": 16.6,
            "velocity": 0.3937007874015748
          },
          {
            "duration": 0.09999999999999787,
            "durationTicks": 96,
            "midi": 74,
            "name": "D5",
            "ticks": 15936,
            "time": 16.6,
            "velocity": 0.3937007874015748
          },
          {
            "duration": 0.10000000000000142,
            "durationTicks": 96,
            "midi": 62,
            "name": "D4",
            "ticks": 16032,
            "time": 16.7,
            "velocity": 0.3937007874015748
          },
          {
            "duration": 0.10000000000000142,
            "durationTicks": 96,
            "midi": 74,
            "name": "D5",
            "ticks": 16032,
            "time": 16.7,
            "velocity": 0.3937007874015748
          },
          {
            "duration": 0.10000000000000142,
            "durationTicks": 96,
            "midi": 24,
            "name": "C1",
            "ticks": 16032,
            "time": 16.7,
            "velocity": 0.3937007874015748
          },
          {
            "duration": 0.10000000000000142,
            "durationTicks": 96,
            "midi": 24,
            "name": "C1",
            "ticks": 16128,
            "time": 16.8,
            "velocity": 0.3937007874015748
          },
          {
            "duration": 0.10000000000000142,
            "durationTicks": 96,
            "midi": 64,
            "name": "E4",
            "ticks": 16128,
            "time": 16.8,
            "velocity": 0.3937007874015748
          },
          {
            "duration": 0.10000000000000142,
            "durationTicks": 96,
            "midi": 76,
            "name": "E5",
            "ticks": 16128,
            "time": 16.8,
            "velocity": 0.3937007874015748
          },
          {
            "duration": 0.10000000000000142,
            "durationTicks": 96,
            "midi": 60,
            "name": "C4",
            "ticks": 16128,
            "time": 16.8,
            "velocity": 0.3937007874015748
          },
          {
            "duration": 0.09999999999999787,
            "durationTicks": 96,
            "midi": 64,
            "name": "E4",
            "ticks": 16224,
            "time": 16.900000000000002,
            "velocity": 0.3937007874015748
          },
          {
            "duration": 0.09999999999999787,
            "durationTicks": 96,
            "midi": 76,
            "name": "E5",
            "ticks": 16224,
            "time": 16.900000000000002,
            "velocity": 0.3937007874015748
          },
          {
            "duration": 0.09999999999999787,
            "durationTicks": 96,
            "midi": 24,
            "name": "C1",
            "ticks": 16224,
            "time": 16.900000000000002,
            "velocity": 0.3937007874015748
          },
          {
            "duration": 0.10000000000000142,
            "durationTicks": 96,
            "midi": 64,
            "name": "E4",
            "ticks": 16320,
            "time": 17,
            "velocity": 0.3937007874015748
          },
          {
            "duration": 0.10000000000000142,
            "durationTicks": 96,
            "midi": 76,
            "name": "E5",
            "ticks": 16320,
            "time": 17,
            "velocity": 0.3937007874015748
          },
          {
            "duration": 0.10000000000000142,
            "durationTicks": 96,
            "midi": 24,
            "name": "C1",
            "ticks": 16320,
            "time": 17,
            "velocity": 0.3937007874015748
          },
          {
            "duration": 0.10000000000000142,
            "durationTicks": 96,
            "midi": 59,
            "name": "B3",
            "ticks": 16320,
            "time": 17,
            "velocity": 0.3937007874015748
          },
          {
            "duration": 0.09999999999999787,
            "durationTicks": 96,
            "midi": 24,
            "name": "C1",
            "ticks": 16416,
            "time": 17.1,
            "velocity": 0.3937007874015748
          },
          {
            "duration": 0.09999999999999787,
            "durationTicks": 96,
            "midi": 64,
            "name": "E4",
            "ticks": 16416,
            "time": 17.1,
            "velocity": 0.3937007874015748
          },
          {
            "duration": 0.09999999999999787,
            "durationTicks": 96,
            "midi": 76,
            "name": "E5",
            "ticks": 16416,
            "time": 17.1,
            "velocity": 0.3937007874015748
          },
          {
            "duration": 0.10000000000000142,
            "durationTicks": 96,
            "midi": 24,
            "name": "C1",
            "ticks": 16512,
            "time": 17.2,
            "velocity": 0.3937007874015748
          },
          {
            "duration": 0.10000000000000142,
            "durationTicks": 96,
            "midi": 60,
            "name": "C4",
            "ticks": 16512,
            "time": 17.2,
            "velocity": 0.3937007874015748
          },
          {
            "duration": 0.10000000000000142,
            "durationTicks": 96,
            "midi": 64,
            "name": "E4",
            "ticks": 16512,
            "time": 17.2,
            "velocity": 0.3937007874015748
          },
          {
            "duration": 0.10000000000000142,
            "durationTicks": 96,
            "midi": 60,
            "name": "C4",
            "ticks": 16512,
            "time": 17.2,
            "velocity": 0.3937007874015748
          },
          {
            "duration": 0.10000000000000142,
            "durationTicks": 96,
            "midi": 57,
            "name": "A3",
            "ticks": 16512,
            "time": 17.2,
            "velocity": 0.3937007874015748
          },
          {
            "duration": 0.10000000000000142,
            "durationTicks": 96,
            "midi": 76,
            "name": "E5",
            "ticks": 16512,
            "time": 17.2,
            "velocity": 0.3937007874015748
          },
          {
            "duration": 1.2000000000000028,
            "durationTicks": 1152,
            "midi": 36,
            "name": "C2",
            "ticks": 16512,
            "time": 17.2,
            "velocity": 0.3937007874015748
          },
          {
            "duration": 0.10000000000000142,
            "durationTicks": 96,
            "midi": 72,
            "name": "C5",
            "ticks": 16512,
            "time": 17.2,
            "velocity": 0.3937007874015748
          },
          {
            "duration": 0.10000000000000142,
            "durationTicks": 96,
            "midi": 64,
            "name": "E4",
            "ticks": 16608,
            "time": 17.3,
            "velocity": 0.3937007874015748
          },
          {
            "duration": 0.10000000000000142,
            "durationTicks": 96,
            "midi": 76,
            "name": "E5",
            "ticks": 16608,
            "time": 17.3,
            "velocity": 0.3937007874015748
          },
          {
            "duration": 0.10000000000000142,
            "durationTicks": 96,
            "midi": 24,
            "name": "C1",
            "ticks": 16608,
            "time": 17.3,
            "velocity": 0.3937007874015748
          },
          {
            "duration": 0.09999999999999787,
            "durationTicks": 96,
            "midi": 24,
            "name": "C1",
            "ticks": 16704,
            "time": 17.400000000000002,
            "velocity": 0.3937007874015748
          },
          {
            "duration": 0.09999999999999787,
            "durationTicks": 96,
            "midi": 64,
            "name": "E4",
            "ticks": 16704,
            "time": 17.400000000000002,
            "velocity": 0.3937007874015748
          },
          {
            "duration": 0.09999999999999787,
            "durationTicks": 96,
            "midi": 76,
            "name": "E5",
            "ticks": 16704,
            "time": 17.400000000000002,
            "velocity": 0.3937007874015748
          },
          {
            "duration": 0.09999999999999787,
            "durationTicks": 96,
            "midi": 60,
            "name": "C4",
            "ticks": 16704,
            "time": 17.400000000000002,
            "velocity": 0.3937007874015748
          },
          {
            "duration": 0.10000000000000142,
            "durationTicks": 96,
            "midi": 76,
            "name": "E5",
            "ticks": 16800,
            "time": 17.5,
            "velocity": 0.3937007874015748
          },
          {
            "duration": 0.10000000000000142,
            "durationTicks": 96,
            "midi": 24,
            "name": "C1",
            "ticks": 16800,
            "time": 17.5,
            "velocity": 0.3937007874015748
          },
          {
            "duration": 0.10000000000000142,
            "durationTicks": 96,
            "midi": 64,
            "name": "E4",
            "ticks": 16800,
            "time": 17.5,
            "velocity": 0.3937007874015748
          },
          {
            "duration": 0.09999999999999787,
            "durationTicks": 96,
            "midi": 76,
            "name": "E5",
            "ticks": 16896,
            "time": 17.6,
            "velocity": 0.3937007874015748
          },
          {
            "duration": 0.09999999999999787,
            "durationTicks": 96,
            "midi": 24,
            "name": "C1",
            "ticks": 16896,
            "time": 17.6,
            "velocity": 0.3937007874015748
          },
          {
            "duration": 0.09999999999999787,
            "durationTicks": 96,
            "midi": 60,
            "name": "C4",
            "ticks": 16896,
            "time": 17.6,
            "velocity": 0.3937007874015748
          },
          {
            "duration": 0.09999999999999787,
            "durationTicks": 96,
            "midi": 64,
            "name": "E4",
            "ticks": 16896,
            "time": 17.6,
            "velocity": 0.3937007874015748
          },
          {
            "duration": 0.09999999999999787,
            "durationTicks": 96,
            "midi": 59,
            "name": "B3",
            "ticks": 16896,
            "time": 17.6,
            "velocity": 0.3937007874015748
          },
          {
            "duration": 0.10000000000000142,
            "durationTicks": 96,
            "midi": 76,
            "name": "E5",
            "ticks": 16992,
            "time": 17.7,
            "velocity": 0.3937007874015748
          },
          {
            "duration": 0.10000000000000142,
            "durationTicks": 96,
            "midi": 24,
            "name": "C1",
            "ticks": 16992,
            "time": 17.7,
            "velocity": 0.3937007874015748
          },
          {
            "duration": 0.10000000000000142,
            "durationTicks": 96,
            "midi": 64,
            "name": "E4",
            "ticks": 16992,
            "time": 17.7,
            "velocity": 0.3937007874015748
          },
          {
            "duration": 0.10000000000000142,
            "durationTicks": 96,
            "midi": 64,
            "name": "E4",
            "ticks": 17088,
            "time": 17.8,
            "velocity": 0.3937007874015748
          },
          {
            "duration": 0.10000000000000142,
            "durationTicks": 96,
            "midi": 76,
            "name": "E5",
            "ticks": 17088,
            "time": 17.8,
            "velocity": 0.3937007874015748
          },
          {
            "duration": 0.10000000000000142,
            "durationTicks": 96,
            "midi": 57,
            "name": "A3",
            "ticks": 17088,
            "time": 17.8,
            "velocity": 0.3937007874015748
          },
          {
            "duration": 0.10000000000000142,
            "durationTicks": 96,
            "midi": 24,
            "name": "C1",
            "ticks": 17088,
            "time": 17.8,
            "velocity": 0.3937007874015748
          },
          {
            "duration": 0.09999999999999787,
            "durationTicks": 96,
            "midi": 24,
            "name": "C1",
            "ticks": 17184,
            "time": 17.900000000000002,
            "velocity": 0.3937007874015748
          },
          {
            "duration": 0.09999999999999787,
            "durationTicks": 96,
            "midi": 76,
            "name": "E5",
            "ticks": 17184,
            "time": 17.900000000000002,
            "velocity": 0.3937007874015748
          },
          {
            "duration": 0.09999999999999787,
            "durationTicks": 96,
            "midi": 64,
            "name": "E4",
            "ticks": 17184,
            "time": 17.900000000000002,
            "velocity": 0.3937007874015748
          },
          {
            "duration": 0.10000000000000142,
            "durationTicks": 96,
            "midi": 64,
            "name": "E4",
            "ticks": 17280,
            "time": 18,
            "velocity": 0.3937007874015748
          },
          {
            "duration": 0.10000000000000142,
            "durationTicks": 96,
            "midi": 60,
            "name": "C4",
            "ticks": 17280,
            "time": 18,
            "velocity": 0.3937007874015748
          },
          {
            "duration": 0.10000000000000142,
            "durationTicks": 96,
            "midi": 24,
            "name": "C1",
            "ticks": 17280,
            "time": 18,
            "velocity": 0.3937007874015748
          },
          {
            "duration": 0.10000000000000142,
            "durationTicks": 96,
            "midi": 76,
            "name": "E5",
            "ticks": 17280,
            "time": 18,
            "velocity": 0.3937007874015748
          },
          {
            "duration": 0.10000000000000142,
            "durationTicks": 96,
            "midi": 60,
            "name": "C4",
            "ticks": 17280,
            "time": 18,
            "velocity": 0.3937007874015748
          },
          {
            "duration": 0.10000000000000142,
            "durationTicks": 96,
            "midi": 72,
            "name": "C5",
            "ticks": 17280,
            "time": 18,
            "velocity": 0.3937007874015748
          },
          {
            "duration": 0.09999999999999787,
            "durationTicks": 96,
            "midi": 76,
            "name": "E5",
            "ticks": 17376,
            "time": 18.1,
            "velocity": 0.3937007874015748
          },
          {
            "duration": 0.09999999999999787,
            "durationTicks": 96,
            "midi": 64,
            "name": "E4",
            "ticks": 17376,
            "time": 18.1,
            "velocity": 0.3937007874015748
          },
          {
            "duration": 0.09999999999999787,
            "durationTicks": 96,
            "midi": 24,
            "name": "C1",
            "ticks": 17376,
            "time": 18.1,
            "velocity": 0.3937007874015748
          },
          {
            "duration": 0.10000000000000142,
            "durationTicks": 96,
            "midi": 59,
            "name": "B3",
            "ticks": 17472,
            "time": 18.2,
            "velocity": 0.3937007874015748
          },
          {
            "duration": 0.10000000000000142,
            "durationTicks": 96,
            "midi": 24,
            "name": "C1",
            "ticks": 17472,
            "time": 18.2,
            "velocity": 0.3937007874015748
          },
          {
            "duration": 0.10000000000000142,
            "durationTicks": 96,
            "midi": 64,
            "name": "E4",
            "ticks": 17472,
            "time": 18.2,
            "velocity": 0.3937007874015748
          },
          {
            "duration": 0.10000000000000142,
            "durationTicks": 96,
            "midi": 76,
            "name": "E5",
            "ticks": 17472,
            "time": 18.2,
            "velocity": 0.3937007874015748
          },
          {
            "duration": 0.10000000000000142,
            "durationTicks": 96,
            "midi": 24,
            "name": "C1",
            "ticks": 17568,
            "time": 18.3,
            "velocity": 0.3937007874015748
          },
          {
            "duration": 0.10000000000000142,
            "durationTicks": 96,
            "midi": 64,
            "name": "E4",
            "ticks": 17568,
            "time": 18.3,
            "velocity": 0.3937007874015748
          },
          {
            "duration": 0.10000000000000142,
            "durationTicks": 96,
            "midi": 76,
            "name": "E5",
            "ticks": 17568,
            "time": 18.3,
            "velocity": 0.3937007874015748
          },
          {
            "duration": 0.09999999999999787,
            "durationTicks": 96,
            "midi": 76,
            "name": "E5",
            "ticks": 17664,
            "time": 18.400000000000002,
            "velocity": 0.3937007874015748
          },
          {
            "duration": 0.8000000000000007,
            "durationTicks": 768,
            "midi": 36,
            "name": "C2",
            "ticks": 17664,
            "time": 18.400000000000002,
            "velocity": 0.3937007874015748
          },
          {
            "duration": 0.09999999999999787,
            "durationTicks": 96,
            "midi": 57,
            "name": "A3",
            "ticks": 17664,
            "time": 18.400000000000002,
            "velocity": 0.3937007874015748
          },
          {
            "duration": 0.09999999999999787,
            "durationTicks": 96,
            "midi": 24,
            "name": "C1",
            "ticks": 17664,
            "time": 18.400000000000002,
            "velocity": 0.3937007874015748
          },
          {
            "duration": 0.09999999999999787,
            "durationTicks": 96,
            "midi": 64,
            "name": "E4",
            "ticks": 17664,
            "time": 18.400000000000002,
            "velocity": 0.3937007874015748
          },
          {
            "duration": 0.09999999999999787,
            "durationTicks": 96,
            "midi": 60,
            "name": "C4",
            "ticks": 17664,
            "time": 18.400000000000002,
            "velocity": 0.3937007874015748
          },
          {
            "duration": 0.10000000000000142,
            "durationTicks": 96,
            "midi": 76,
            "name": "E5",
            "ticks": 17760,
            "time": 18.5,
            "velocity": 0.3937007874015748
          },
          {
            "duration": 0.10000000000000142,
            "durationTicks": 96,
            "midi": 64,
            "name": "E4",
            "ticks": 17760,
            "time": 18.5,
            "velocity": 0.3937007874015748
          },
          {
            "duration": 0.10000000000000142,
            "durationTicks": 96,
            "midi": 24,
            "name": "C1",
            "ticks": 17760,
            "time": 18.5,
            "velocity": 0.3937007874015748
          },
          {
            "duration": 0.09999999999999787,
            "durationTicks": 96,
            "midi": 76,
            "name": "E5",
            "ticks": 17856,
            "time": 18.6,
            "velocity": 0.3937007874015748
          },
          {
            "duration": 0.09999999999999787,
            "durationTicks": 96,
            "midi": 60,
            "name": "C4",
            "ticks": 17856,
            "time": 18.6,
            "velocity": 0.3937007874015748
          },
          {
            "duration": 0.09999999999999787,
            "durationTicks": 96,
            "midi": 24,
            "name": "C1",
            "ticks": 17856,
            "time": 18.6,
            "velocity": 0.3937007874015748
          },
          {
            "duration": 0.09999999999999787,
            "durationTicks": 96,
            "midi": 64,
            "name": "E4",
            "ticks": 17856,
            "time": 18.6,
            "velocity": 0.3937007874015748
          },
          {
            "duration": 0.10000000000000142,
            "durationTicks": 96,
            "midi": 76,
            "name": "E5",
            "ticks": 17952,
            "time": 18.7,
            "velocity": 0.3937007874015748
          },
          {
            "duration": 0.10000000000000142,
            "durationTicks": 96,
            "midi": 64,
            "name": "E4",
            "ticks": 17952,
            "time": 18.7,
            "velocity": 0.3937007874015748
          },
          {
            "duration": 0.10000000000000142,
            "durationTicks": 96,
            "midi": 24,
            "name": "C1",
            "ticks": 17952,
            "time": 18.7,
            "velocity": 0.3937007874015748
          },
          {
            "duration": 0.10000000000000142,
            "durationTicks": 96,
            "midi": 59,
            "name": "B3",
            "ticks": 18048,
            "time": 18.8,
            "velocity": 0.3937007874015748
          },
          {
            "duration": 0.10000000000000142,
            "durationTicks": 96,
            "midi": 60,
            "name": "C4",
            "ticks": 18048,
            "time": 18.8,
            "velocity": 0.3937007874015748
          },
          {
            "duration": 0.10000000000000142,
            "durationTicks": 96,
            "midi": 76,
            "name": "E5",
            "ticks": 18048,
            "time": 18.8,
            "velocity": 0.3937007874015748
          },
          {
            "duration": 0.10000000000000142,
            "durationTicks": 96,
            "midi": 60,
            "name": "C4",
            "ticks": 18048,
            "time": 18.8,
            "velocity": 0.3937007874015748
          },
          {
            "duration": 0.10000000000000142,
            "durationTicks": 96,
            "midi": 64,
            "name": "E4",
            "ticks": 18048,
            "time": 18.8,
            "velocity": 0.3937007874015748
          },
          {
            "duration": 0.10000000000000142,
            "durationTicks": 96,
            "midi": 24,
            "name": "C1",
            "ticks": 18048,
            "time": 18.8,
            "velocity": 0.3937007874015748
          },
          {
            "duration": 0.10000000000000142,
            "durationTicks": 96,
            "midi": 72,
            "name": "C5",
            "ticks": 18048,
            "time": 18.8,
            "velocity": 0.3937007874015748
          },
          {
            "duration": 0.09999999999999787,
            "durationTicks": 96,
            "midi": 24,
            "name": "C1",
            "ticks": 18144,
            "time": 18.900000000000002,
            "velocity": 0.3937007874015748
          },
          {
            "duration": 0.09999999999999787,
            "durationTicks": 96,
            "midi": 64,
            "name": "E4",
            "ticks": 18144,
            "time": 18.900000000000002,
            "velocity": 0.3937007874015748
          },
          {
            "duration": 0.09999999999999787,
            "durationTicks": 96,
            "midi": 76,
            "name": "E5",
            "ticks": 18144,
            "time": 18.900000000000002,
            "velocity": 0.3937007874015748
          },
          {
            "duration": 0.10000000000000142,
            "durationTicks": 96,
            "midi": 24,
            "name": "C1",
            "ticks": 18240,
            "time": 19,
            "velocity": 0.3937007874015748
          },
          {
            "duration": 0.10000000000000142,
            "durationTicks": 96,
            "midi": 57,
            "name": "A3",
            "ticks": 18240,
            "time": 19,
            "velocity": 0.3937007874015748
          },
          {
            "duration": 0.10000000000000142,
            "durationTicks": 96,
            "midi": 76,
            "name": "E5",
            "ticks": 18240,
            "time": 19,
            "velocity": 0.3937007874015748
          },
          {
            "duration": 0.10000000000000142,
            "durationTicks": 96,
            "midi": 64,
            "name": "E4",
            "ticks": 18240,
            "time": 19,
            "velocity": 0.3937007874015748
          },
          {
            "duration": 0.10000000000000142,
            "durationTicks": 96,
            "midi": 24,
            "name": "C1",
            "ticks": 18336,
            "time": 19.1,
            "velocity": 0.3937007874015748
          },
          {
            "duration": 0.10000000000000142,
            "durationTicks": 96,
            "midi": 64,
            "name": "E4",
            "ticks": 18336,
            "time": 19.1,
            "velocity": 0.3937007874015748
          },
          {
            "duration": 0.10000000000000142,
            "durationTicks": 96,
            "midi": 76,
            "name": "E5",
            "ticks": 18336,
            "time": 19.1,
            "velocity": 0.3937007874015748
          }
        ],
        "endOfTrackTicks": 18432
      },
      {
        "channel": 1,
        "controlChanges": {},
        "pitchBends": [],
        "instrument": {
          "family": "pipe",
          "number": 73,
          "name": "flute"
        },
        "name": "Flute",
        "notes": [
          {
            "duration": 1.1999999999999993,
            "durationTicks": 1152,
            "midi": 36,
            "name": "C2",
            "ticks": 9216,
            "time": 9.600000000000001,
            "velocity": 0.3464566929133858
          },
          {
            "duration": 1.1999999999999993,
            "durationTicks": 1152,
            "midi": 36,
            "name": "C2",
            "ticks": 9216,
            "time": 9.600000000000001,
            "velocity": 0.3464566929133858
          },
          {
            "duration": 1.1999999999999993,
            "durationTicks": 1152,
            "midi": 36,
            "name": "C2",
            "ticks": 10368,
            "time": 10.8,
            "velocity": 0.3464566929133858
          },
          {
            "duration": 1.1999999999999993,
            "durationTicks": 1152,
            "midi": 36,
            "name": "C2",
            "ticks": 10368,
            "time": 10.8,
            "velocity": 0.3464566929133858
          },
          {
            "duration": 0.8000000000000007,
            "durationTicks": 768,
            "midi": 36,
            "name": "C2",
            "ticks": 11520,
            "time": 12,
            "velocity": 0.3464566929133858
          },
          {
            "duration": 0.8000000000000007,
            "durationTicks": 768,
            "midi": 36,
            "name": "C2",
            "ticks": 11520,
            "time": 12,
            "velocity": 0.3464566929133858
          },
          {
            "duration": 1.1999999999999993,
            "durationTicks": 1152,
            "midi": 36,
            "name": "C2",
            "ticks": 15360,
            "time": 16,
            "velocity": 0.3464566929133858
          },
          {
            "duration": 1.1999999999999993,
            "durationTicks": 1152,
            "midi": 36,
            "name": "C2",
            "ticks": 15360,
            "time": 16,
            "velocity": 0.3464566929133858
          },
          {
            "duration": 1.2000000000000028,
            "durationTicks": 1152,
            "midi": 36,
            "name": "C2",
            "ticks": 16512,
            "time": 17.2,
            "velocity": 0.3464566929133858
          },
          {
            "duration": 1.2000000000000028,
            "durationTicks": 1152,
            "midi": 36,
            "name": "C2",
            "ticks": 16512,
            "time": 17.2,
            "velocity": 0.3464566929133858
          },
          {
            "duration": 0.8000000000000007,
            "durationTicks": 768,
            "midi": 36,
            "name": "C2",
            "ticks": 17664,
            "time": 18.400000000000002,
            "velocity": 0.3464566929133858
          },
          {
            "duration": 0.8000000000000007,
            "durationTicks": 768,
            "midi": 36,
            "name": "C2",
            "ticks": 17664,
            "time": 18.400000000000002,
            "velocity": 0.3464566929133858
          }
        ],
        "endOfTrackTicks": 18432
      },
      {
        "channel": 9,
        "controlChanges": {},
        "pitchBends": [],
        "instrument": {
          "family": "drums",
          "number": 0,
          "name": "standard kit"
        },
        "name": "Electric Drum Kit",
        "notes": [
          {
            "duration": 0.09999999999999998,
            "durationTicks": 96,
            "midi": 39,
            "name": "D#2",
            "ticks": 768,
            "time": 0.8,
            "velocity": 0.5669291338582677
          },
          {
            "duration": 0.09999999999999964,
            "durationTicks": 96,
            "midi": 39,
            "name": "D#2",
            "ticks": 2304,
            "time": 2.4000000000000004,
            "velocity": 0.5669291338582677
          },
          {
            "duration": 0.10000000000000009,
            "durationTicks": 96,
            "midi": 39,
            "name": "D#2",
            "ticks": 2880,
            "time": 3,
            "velocity": 0.5669291338582677
          },
          {
            "duration": 0.10000000000000053,
            "durationTicks": 96,
            "midi": 39,
            "name": "D#2",
            "ticks": 3840,
            "time": 4,
            "velocity": 0.5669291338582677
          },
          {
            "duration": 0.09999999999999964,
            "durationTicks": 96,
            "midi": 39,
            "name": "D#2",
            "ticks": 5376,
            "time": 5.6000000000000005,
            "velocity": 0.5669291338582677
          },
          {
            "duration": 0.10000000000000053,
            "durationTicks": 96,
            "midi": 39,
            "name": "D#2",
            "ticks": 6912,
            "time": 7.2,
            "velocity": 0.5669291338582677
          },
          {
            "duration": 0.09999999999999964,
            "durationTicks": 96,
            "midi": 39,
            "name": "D#2",
            "ticks": 8448,
            "time": 8.8,
            "velocity": 0.5669291338582677
          },
          {
            "duration": 0.09999999999999964,
            "durationTicks": 96,
            "midi": 39,
            "name": "D#2",
            "ticks": 9984,
            "time": 10.4,
            "velocity": 0.5669291338582677
          },
          {
            "duration": 0.10000000000000142,
            "durationTicks": 96,
            "midi": 39,
            "name": "D#2",
            "ticks": 11520,
            "time": 12,
            "velocity": 0.5669291338582677
          },
          {
            "duration": 0.09999999999999964,
            "durationTicks": 96,
            "midi": 39,
            "name": "D#2",
            "ticks": 13056,
            "time": 13.600000000000001,
            "velocity": 0.5669291338582677
          },
          {
            "duration": 0.09999999999999964,
            "durationTicks": 96,
            "midi": 39,
            "name": "D#2",
            "ticks": 14592,
            "time": 15.200000000000001,
            "velocity": 0.5669291338582677
          },
          {
            "duration": 0.10000000000000142,
            "durationTicks": 96,
            "midi": 39,
            "name": "D#2",
            "ticks": 16128,
            "time": 16.8,
            "velocity": 0.5669291338582677
          },
          {
            "duration": 0.09999999999999787,
            "durationTicks": 96,
            "midi": 39,
            "name": "D#2",
            "ticks": 17664,
            "time": 18.400000000000002,
            "velocity": 0.5669291338582677
          }
        ],
        "endOfTrackTicks": 17760
      },
      {
        "channel": 9,
        "controlChanges": {},
        "pitchBends": [],
        "instrument": {
          "family": "drums",
          "number": 0,
          "name": "standard kit"
        },
        "name": "808 Drum Kit",
        "notes": [
          {
            "duration": 0.09999999999999987,
            "durationTicks": 96,
            "midi": 0,
            "name": "C-1",
            "ticks": 1344,
            "time": 1.4000000000000001,
            "velocity": 0.14960629921259844
          },
          {
            "duration": 0.10000000000000009,
            "durationTicks": 96,
            "midi": 0,
            "name": "C-1",
            "ticks": 1728,
            "time": 1.8,
            "velocity": 0.14960629921259844
          },
          {
            "duration": 0.09999999999999964,
            "durationTicks": 96,
            "midi": 0,
            "name": "C-1",
            "ticks": 4416,
            "time": 4.6000000000000005,
            "velocity": 0.14960629921259844
          },
          {
            "duration": 0.10000000000000053,
            "durationTicks": 96,
            "midi": 0,
            "name": "C-1",
            "ticks": 4800,
            "time": 5,
            "velocity": 0.14960629921259844
          },
          {
            "duration": 0.09999999999999964,
            "durationTicks": 96,
            "midi": 0,
            "name": "C-1",
            "ticks": 5568,
            "time": 5.800000000000001,
            "velocity": 0.14960629921259844
          },
          {
            "duration": 0.05000000000000071,
            "durationTicks": 48,
            "midi": 0,
            "name": "C-1",
            "ticks": 5760,
            "time": 6,
            "velocity": 0.14960629921259844
          },
          {
            "duration": 0.04999999999999982,
            "durationTicks": 48,
            "midi": 0,
            "name": "C-1",
            "ticks": 5808,
            "time": 6.050000000000001,
            "velocity": 0.14960629921259844
          },
          {
            "duration": 0.04999999999999982,
            "durationTicks": 48,
            "midi": 0,
            "name": "C-1",
            "ticks": 5856,
            "time": 6.1000000000000005,
            "velocity": 0.14960629921259844
          },
          {
            "duration": 0.04999999999999982,
            "durationTicks": 48,
            "midi": 0,
            "name": "C-1",
            "ticks": 5904,
            "time": 6.15,
            "velocity": 0.14960629921259844
          },
          {
            "duration": 0.09999999999999964,
            "durationTicks": 96,
            "midi": 0,
            "name": "C-1",
            "ticks": 6144,
            "time": 6.4,
            "velocity": 0.14960629921259844
          },
          {
            "duration": 0.09999999999999964,
            "durationTicks": 96,
            "midi": 0,
            "name": "C-1",
            "ticks": 6336,
            "time": 6.6000000000000005,
            "velocity": 0.14960629921259844
          },
          {
            "duration": 0.09999999999999964,
            "durationTicks": 96,
            "midi": 0,
            "name": "C-1",
            "ticks": 6528,
            "time": 6.800000000000001,
            "velocity": 0.14960629921259844
          },
          {
            "duration": 0.10000000000000053,
            "durationTicks": 96,
            "midi": 0,
            "name": "C-1",
            "ticks": 6720,
            "time": 7,
            "velocity": 0.14960629921259844
          },
          {
            "duration": 0.09999999999999964,
            "durationTicks": 96,
            "midi": 0,
            "name": "C-1",
            "ticks": 7296,
            "time": 7.6000000000000005,
            "velocity": 0.14960629921259844
          },
          {
            "duration": 0.09999999999999964,
            "durationTicks": 96,
            "midi": 0,
            "name": "C-1",
            "ticks": 7872,
            "time": 8.200000000000001,
            "velocity": 0.14960629921259844
          },
          {
            "duration": 0.09999999999999964,
            "durationTicks": 96,
            "midi": 0,
            "name": "C-1",
            "ticks": 8064,
            "time": 8.4,
            "velocity": 0.14960629921259844
          },
          {
            "duration": 0.10000000000000142,
            "durationTicks": 96,
            "midi": 0,
            "name": "C-1",
            "ticks": 8256,
            "time": 8.6,
            "velocity": 0.14960629921259844
          },
          {
            "duration": 0.09999999999999964,
            "durationTicks": 96,
            "midi": 0,
            "name": "C-1",
            "ticks": 8448,
            "time": 8.8,
            "velocity": 0.14960629921259844
          },
          {
            "duration": 0.09999999999999964,
            "durationTicks": 96,
            "midi": 0,
            "name": "C-1",
            "ticks": 8832,
            "time": 9.200000000000001,
            "velocity": 0.14960629921259844
          },
          {
            "duration": 0.09999999999999964,
            "durationTicks": 96,
            "midi": 0,
            "name": "C-1",
            "ticks": 9216,
            "time": 9.600000000000001,
            "velocity": 0.14960629921259844
          },
          {
            "duration": 0.09999999999999964,
            "durationTicks": 96,
            "midi": 0,
            "name": "C-1",
            "ticks": 9408,
            "time": 9.8,
            "velocity": 0.14960629921259844
          },
          {
            "duration": 0.10000000000000142,
            "durationTicks": 96,
            "midi": 0,
            "name": "C-1",
            "ticks": 9600,
            "time": 10,
            "velocity": 0.14960629921259844
          },
          {
            "duration": 0.09999999999999964,
            "durationTicks": 96,
            "midi": 0,
            "name": "C-1",
            "ticks": 9792,
            "time": 10.200000000000001,
            "velocity": 0.14960629921259844
          },
          {
            "duration": 0.09999999999999964,
            "durationTicks": 96,
            "midi": 0,
            "name": "C-1",
            "ticks": 10368,
            "time": 10.8,
            "velocity": 0.14960629921259844
          },
          {
            "duration": 0.09999999999999964,
            "durationTicks": 96,
            "midi": 0,
            "name": "C-1",
            "ticks": 10944,
            "time": 11.4,
            "velocity": 0.14960629921259844
          },
          {
            "duration": 0.049999999999998934,
            "durationTicks": 48,
            "midi": 0,
            "name": "C-1",
            "ticks": 11136,
            "time": 11.600000000000001,
            "velocity": 0.14960629921259844
          },
          {
            "duration": 0.09999999999999964,
            "durationTicks": 96,
            "midi": 0,
            "name": "C-1",
            "ticks": 11136,
            "time": 11.600000000000001,
            "velocity": 0.14960629921259844
          },
          {
            "duration": 0.049999999999998934,
            "durationTicks": 48,
            "midi": 0,
            "name": "C-1",
            "ticks": 11232,
            "time": 11.700000000000001,
            "velocity": 0.14960629921259844
          },
          {
            "duration": 0.049999999999998934,
            "durationTicks": 48,
            "midi": 0,
            "name": "C-1",
            "ticks": 11232,
            "time": 11.700000000000001,
            "velocity": 0.14960629921259844
          },
          {
            "duration": 0.05000000000000071,
            "durationTicks": 48,
            "midi": 0,
            "name": "C-1",
            "ticks": 11280,
            "time": 11.75,
            "velocity": 0.14960629921259844
          },
          {
            "duration": 0.09999999999999964,
            "durationTicks": 96,
            "midi": 0,
            "name": "C-1",
            "ticks": 11328,
            "time": 11.8,
            "velocity": 0.14960629921259844
          },
          {
            "duration": 0.05000000000000071,
            "durationTicks": 48,
            "midi": 0,
            "name": "C-1",
            "ticks": 11520,
            "time": 12,
            "velocity": 0.14960629921259844
          },
          {
            "duration": 0.10000000000000142,
            "durationTicks": 96,
            "midi": 0,
            "name": "C-1",
            "ticks": 11520,
            "time": 12,
            "velocity": 0.14960629921259844
          },
          {
            "duration": 0.05000000000000071,
            "durationTicks": 48,
            "midi": 0,
            "name": "C-1",
            "ticks": 11904,
            "time": 12.4,
            "velocity": 0.14960629921259844
          },
          {
            "duration": 0.09999999999999964,
            "durationTicks": 96,
            "midi": 0,
            "name": "C-1",
            "ticks": 11904,
            "time": 12.4,
            "velocity": 0.14960629921259844
          },
          {
            "duration": 0.049999999999998934,
            "durationTicks": 48,
            "midi": 0,
            "name": "C-1",
            "ticks": 11952,
            "time": 12.450000000000001,
            "velocity": 0.14960629921259844
          },
          {
            "duration": 0.05000000000000071,
            "durationTicks": 48,
            "midi": 0,
            "name": "C-1",
            "ticks": 12000,
            "time": 12.5,
            "velocity": 0.14960629921259844
          },
          {
            "duration": 0.05000000000000071,
            "durationTicks": 48,
            "midi": 0,
            "name": "C-1",
            "ticks": 12048,
            "time": 12.55,
            "velocity": 0.14960629921259844
          },
          {
            "duration": 0.09999999999999964,
            "durationTicks": 96,
            "midi": 0,
            "name": "C-1",
            "ticks": 12288,
            "time": 12.8,
            "velocity": 0.14960629921259844
          },
          {
            "duration": 0.10000000000000142,
            "durationTicks": 96,
            "midi": 0,
            "name": "C-1",
            "ticks": 12480,
            "time": 13,
            "velocity": 0.14960629921259844
          },
          {
            "duration": 0.09999999999999964,
            "durationTicks": 96,
            "midi": 0,
            "name": "C-1",
            "ticks": 12672,
            "time": 13.200000000000001,
            "velocity": 0.14960629921259844
          },
          {
            "duration": 0.09999999999999964,
            "durationTicks": 96,
            "midi": 0,
            "name": "C-1",
            "ticks": 12864,
            "time": 13.4,
            "velocity": 0.14960629921259844
          },
          {
            "duration": 0.10000000000000142,
            "durationTicks": 96,
            "midi": 0,
            "name": "C-1",
            "ticks": 13440,
            "time": 14,
            "velocity": 0.14960629921259844
          },
          {
            "duration": 0.09999999999999964,
            "durationTicks": 96,
            "midi": 0,
            "name": "C-1",
            "ticks": 14016,
            "time": 14.600000000000001,
            "velocity": 0.14960629921259844
          },
          {
            "duration": 0.09999999999999964,
            "durationTicks": 96,
            "midi": 0,
            "name": "C-1",
            "ticks": 14208,
            "time": 14.8,
            "velocity": 0.14960629921259844
          },
          {
            "duration": 0.10000000000000142,
            "durationTicks": 96,
            "midi": 0,
            "name": "C-1",
            "ticks": 14400,
            "time": 15,
            "velocity": 0.14960629921259844
          },
          {
            "duration": 0.09999999999999964,
            "durationTicks": 96,
            "midi": 0,
            "name": "C-1",
            "ticks": 14592,
            "time": 15.200000000000001,
            "velocity": 0.14960629921259844
          },
          {
            "duration": 0.09999999999999964,
            "durationTicks": 96,
            "midi": 0,
            "name": "C-1",
            "ticks": 14976,
            "time": 15.600000000000001,
            "velocity": 0.14960629921259844
          },
          {
            "duration": 0.10000000000000142,
            "durationTicks": 96,
            "midi": 0,
            "name": "C-1",
            "ticks": 15360,
            "time": 16,
            "velocity": 0.14960629921259844
          },
          {
            "duration": 0.10000000000000142,
            "durationTicks": 96,
            "midi": 0,
            "name": "C-1",
            "ticks": 15552,
            "time": 16.2,
            "velocity": 0.14960629921259844
          },
          {
            "duration": 0.09999999999999787,
            "durationTicks": 96,
            "midi": 0,
            "name": "C-1",
            "ticks": 15744,
            "time": 16.400000000000002,
            "velocity": 0.14960629921259844
          },
          {
            "duration": 0.09999999999999787,
            "durationTicks": 96,
            "midi": 0,
            "name": "C-1",
            "ticks": 15936,
            "time": 16.6,
            "velocity": 0.14960629921259844
          },
          {
            "duration": 0.10000000000000142,
            "durationTicks": 96,
            "midi": 0,
            "name": "C-1",
            "ticks": 16512,
            "time": 17.2,
            "velocity": 0.14960629921259844
          },
          {
            "duration": 0.10000000000000142,
            "durationTicks": 96,
            "midi": 0,
            "name": "C-1",
            "ticks": 17088,
            "time": 17.8,
            "velocity": 0.14960629921259844
          },
          {
            "duration": 0.10000000000000142,
            "durationTicks": 96,
            "midi": 0,
            "name": "C-1",
            "ticks": 17280,
            "time": 18,
            "velocity": 0.14960629921259844
          },
          {
            "duration": 0.10000000000000142,
            "durationTicks": 96,
            "midi": 0,
            "name": "C-1",
            "ticks": 17472,
            "time": 18.2,
            "velocity": 0.14960629921259844
          },
          {
            "duration": 0.04999999999999716,
            "durationTicks": 48,
            "midi": 0,
            "name": "C-1",
            "ticks": 17664,
            "time": 18.400000000000002,
            "velocity": 0.14960629921259844
          },
          {
            "duration": 0.09999999999999787,
            "durationTicks": 96,
            "midi": 0,
            "name": "C-1",
            "ticks": 17664,
            "time": 18.400000000000002,
            "velocity": 0.14960629921259844
          },
          {
            "duration": 0.05000000000000071,
            "durationTicks": 48,
            "midi": 0,
            "name": "C-1",
            "ticks": 18048,
            "time": 18.8,
            "velocity": 0.14960629921259844
          },
          {
            "duration": 0.10000000000000142,
            "durationTicks": 96,
            "midi": 0,
            "name": "C-1",
            "ticks": 18048,
            "time": 18.8,
            "velocity": 0.14960629921259844
          },
          {
            "duration": 0.05000000000000071,
            "durationTicks": 48,
            "midi": 0,
            "name": "C-1",
            "ticks": 18096,
            "time": 18.85,
            "velocity": 0.14960629921259844
          },
          {
            "duration": 0.04999999999999716,
            "durationTicks": 48,
            "midi": 0,
            "name": "C-1",
            "ticks": 18144,
            "time": 18.900000000000002,
            "velocity": 0.14960629921259844
          },
          {
            "duration": 0.05000000000000071,
            "durationTicks": 48,
            "midi": 0,
            "name": "C-1",
            "ticks": 18192,
            "time": 18.95,
            "velocity": 0.14960629921259844
          }
        ],
        "endOfTrackTicks": 18240
      },
      {
        "channel": 9,
        "controlChanges": {},
        "pitchBends": [],
        "instrument": {
          "family": "drums",
          "number": 0,
          "name": "standard kit"
        },
        "name": "8-Bit Drum Kit",
        "notes": [
          {
            "duration": 0.1,
            "durationTicks": 96,
            "midi": 35,
            "name": "B1",
            "ticks": 0,
            "time": 0,
            "velocity": 0.3937007874015748
          },
          {
            "duration": 0.09999999999999987,
            "durationTicks": 96,
            "midi": 52,
            "name": "E3",
            "ticks": 1344,
            "time": 1.4000000000000001,
            "velocity": 0.3937007874015748
          },
          {
            "duration": 0.10000000000000009,
            "durationTicks": 96,
            "midi": 52,
            "name": "E3",
            "ticks": 1728,
            "time": 1.8,
            "velocity": 0.3937007874015748
          },
          {
            "duration": 0.10000000000000009,
            "durationTicks": 96,
            "midi": 35,
            "name": "B1",
            "ticks": 1920,
            "time": 2,
            "velocity": 0.3937007874015748
          },
          {
            "duration": 0.10000000000000009,
            "durationTicks": 96,
            "midi": 35,
            "name": "B1",
            "ticks": 3072,
            "time": 3.2,
            "velocity": 0.3937007874015748
          },
          {
            "duration": 0.09999999999999964,
            "durationTicks": 96,
            "midi": 52,
            "name": "E3",
            "ticks": 4416,
            "time": 4.6000000000000005,
            "velocity": 0.3937007874015748
          },
          {
            "duration": 0.09999999999999964,
            "durationTicks": 96,
            "midi": 35,
            "name": "B1",
            "ticks": 4608,
            "time": 4.800000000000001,
            "velocity": 0.3937007874015748
          },
          {
            "duration": 0.10000000000000053,
            "durationTicks": 96,
            "midi": 52,
            "name": "E3",
            "ticks": 4800,
            "time": 5,
            "velocity": 0.3937007874015748
          },
          {
            "duration": 0.10000000000000053,
            "durationTicks": 96,
            "midi": 35,
            "name": "B1",
            "ticks": 4992,
            "time": 5.2,
            "velocity": 0.3937007874015748
          },
          {
            "duration": 0.09999999999999964,
            "durationTicks": 96,
            "midi": 35,
            "name": "B1",
            "ticks": 5376,
            "time": 5.6000000000000005,
            "velocity": 0.3937007874015748
          },
          {
            "duration": 0.09999999999999964,
            "durationTicks": 96,
            "midi": 52,
            "name": "E3",
            "ticks": 5568,
            "time": 5.800000000000001,
            "velocity": 0.3937007874015748
          },
          {
            "duration": 0.05000000000000071,
            "durationTicks": 48,
            "midi": 52,
            "name": "E3",
            "ticks": 5760,
            "time": 6,
            "velocity": 0.3937007874015748
          },
          {
            "duration": 0.04999999999999982,
            "durationTicks": 48,
            "midi": 52,
            "name": "E3",
            "ticks": 5808,
            "time": 6.050000000000001,
            "velocity": 0.3937007874015748
          },
          {
            "duration": 0.04999999999999982,
            "durationTicks": 48,
            "midi": 52,
            "name": "E3",
            "ticks": 5856,
            "time": 6.1000000000000005,
            "velocity": 0.3937007874015748
          },
          {
            "duration": 0.04999999999999982,
            "durationTicks": 48,
            "midi": 52,
            "name": "E3",
            "ticks": 5904,
            "time": 6.15,
            "velocity": 0.3937007874015748
          },
          {
            "duration": 0.09999999999999964,
            "durationTicks": 96,
            "midi": 35,
            "name": "B1",
            "ticks": 6144,
            "time": 6.4,
            "velocity": 0.3937007874015748
          },
          {
            "duration": 0.09999999999999964,
            "durationTicks": 96,
            "midi": 42,
            "name": "F#2",
            "ticks": 6144,
            "time": 6.4,
            "velocity": 0.3937007874015748
          },
          {
            "duration": 0.09999999999999964,
            "durationTicks": 96,
            "midi": 42,
            "name": "F#2",
            "ticks": 6336,
            "time": 6.6000000000000005,
            "velocity": 0.3937007874015748
          },
          {
            "duration": 0.09999999999999964,
            "durationTicks": 96,
            "midi": 42,
            "name": "F#2",
            "ticks": 6528,
            "time": 6.800000000000001,
            "velocity": 0.3937007874015748
          },
          {
            "duration": 0.10000000000000053,
            "durationTicks": 96,
            "midi": 42,
            "name": "F#2",
            "ticks": 6720,
            "time": 7,
            "velocity": 0.3937007874015748
          },
          {
            "duration": 0.10000000000000053,
            "durationTicks": 96,
            "midi": 35,
            "name": "B1",
            "ticks": 6720,
            "time": 7,
            "velocity": 0.3937007874015748
          },
          {
            "duration": 0.09999999999999964,
            "durationTicks": 96,
            "midi": 42,
            "name": "F#2",
            "ticks": 7296,
            "time": 7.6000000000000005,
            "velocity": 0.3937007874015748
          },
          {
            "duration": 0.09999999999999964,
            "durationTicks": 96,
            "midi": 35,
            "name": "B1",
            "ticks": 7296,
            "time": 7.6000000000000005,
            "velocity": 0.3937007874015748
          },
          {
            "duration": 0.09999999999999964,
            "durationTicks": 96,
            "midi": 42,
            "name": "F#2",
            "ticks": 7872,
            "time": 8.200000000000001,
            "velocity": 0.3937007874015748
          },
          {
            "duration": 0.09999999999999964,
            "durationTicks": 96,
            "midi": 35,
            "name": "B1",
            "ticks": 7872,
            "time": 8.200000000000001,
            "velocity": 0.3937007874015748
          },
          {
            "duration": 0.09999999999999964,
            "durationTicks": 96,
            "midi": 42,
            "name": "F#2",
            "ticks": 8064,
            "time": 8.4,
            "velocity": 0.3937007874015748
          },
          {
            "duration": 0.09999999999999964,
            "durationTicks": 96,
            "midi": 35,
            "name": "B1",
            "ticks": 8064,
            "time": 8.4,
            "velocity": 0.3937007874015748
          },
          {
            "duration": 0.10000000000000142,
            "durationTicks": 96,
            "midi": 42,
            "name": "F#2",
            "ticks": 8256,
            "time": 8.6,
            "velocity": 0.3937007874015748
          },
          {
            "duration": 0.09999999999999964,
            "durationTicks": 96,
            "midi": 42,
            "name": "F#2",
            "ticks": 8448,
            "time": 8.8,
            "velocity": 0.3937007874015748
          },
          {
            "duration": 0.09999999999999964,
            "durationTicks": 96,
            "midi": 42,
            "name": "F#2",
            "ticks": 8832,
            "time": 9.200000000000001,
            "velocity": 0.3937007874015748
          },
          {
            "duration": 0.09999999999999964,
            "durationTicks": 96,
            "midi": 35,
            "name": "B1",
            "ticks": 8832,
            "time": 9.200000000000001,
            "velocity": 0.3937007874015748
          },
          {
            "duration": 0.09999999999999964,
            "durationTicks": 96,
            "midi": 35,
            "name": "B1",
            "ticks": 9216,
            "time": 9.600000000000001,
            "velocity": 0.3937007874015748
          },
          {
            "duration": 0.09999999999999964,
            "durationTicks": 96,
            "midi": 42,
            "name": "F#2",
            "ticks": 9216,
            "time": 9.600000000000001,
            "velocity": 0.3937007874015748
          },
          {
            "duration": 0.09999999999999964,
            "durationTicks": 96,
            "midi": 42,
            "name": "F#2",
            "ticks": 9408,
            "time": 9.8,
            "velocity": 0.3937007874015748
          },
          {
            "duration": 0.10000000000000142,
            "durationTicks": 96,
            "midi": 42,
            "name": "F#2",
            "ticks": 9600,
            "time": 10,
            "velocity": 0.3937007874015748
          },
          {
            "duration": 0.09999999999999964,
            "durationTicks": 96,
            "midi": 42,
            "name": "F#2",
            "ticks": 9792,
            "time": 10.200000000000001,
            "velocity": 0.3937007874015748
          },
          {
            "duration": 0.09999999999999964,
            "durationTicks": 96,
            "midi": 35,
            "name": "B1",
            "ticks": 9792,
            "time": 10.200000000000001,
            "velocity": 0.3937007874015748
          },
          {
            "duration": 0.09999999999999964,
            "durationTicks": 96,
            "midi": 35,
            "name": "B1",
            "ticks": 10368,
            "time": 10.8,
            "velocity": 0.3937007874015748
          },
          {
            "duration": 0.09999999999999964,
            "durationTicks": 96,
            "midi": 42,
            "name": "F#2",
            "ticks": 10368,
            "time": 10.8,
            "velocity": 0.3937007874015748
          },
          {
            "duration": 0.09999999999999964,
            "durationTicks": 96,
            "midi": 35,
            "name": "B1",
            "ticks": 10944,
            "time": 11.4,
            "velocity": 0.3937007874015748
          },
          {
            "duration": 0.09999999999999964,
            "durationTicks": 96,
            "midi": 42,
            "name": "F#2",
            "ticks": 10944,
            "time": 11.4,
            "velocity": 0.3937007874015748
          },
          {
            "duration": 0.09999999999999964,
            "durationTicks": 96,
            "midi": 35,
            "name": "B1",
            "ticks": 11136,
            "time": 11.600000000000001,
            "velocity": 0.3937007874015748
          },
          {
            "duration": 0.09999999999999964,
            "durationTicks": 96,
            "midi": 42,
            "name": "F#2",
            "ticks": 11136,
            "time": 11.600000000000001,
            "velocity": 0.3937007874015748
          },
          {
            "duration": 0.049999999999998934,
            "durationTicks": 48,
            "midi": 52,
            "name": "E3",
            "ticks": 11136,
            "time": 11.600000000000001,
            "velocity": 0.3937007874015748
          },
          {
            "duration": 0.05000000000000071,
            "durationTicks": 48,
            "midi": 52,
            "name": "E3",
            "ticks": 11184,
            "time": 11.65,
            "velocity": 0.3937007874015748
          },
          {
            "duration": 0.049999999999998934,
            "durationTicks": 48,
            "midi": 52,
            "name": "E3",
            "ticks": 11232,
            "time": 11.700000000000001,
            "velocity": 0.3937007874015748
          },
          {
            "duration": 0.05000000000000071,
            "durationTicks": 48,
            "midi": 52,
            "name": "E3",
            "ticks": 11280,
            "time": 11.75,
            "velocity": 0.3937007874015748
          },
          {
            "duration": 0.09999999999999964,
            "durationTicks": 96,
            "midi": 42,
            "name": "F#2",
            "ticks": 11328,
            "time": 11.8,
            "velocity": 0.3937007874015748
          },
          {
            "duration": 0.10000000000000142,
            "durationTicks": 96,
            "midi": 42,
            "name": "F#2",
            "ticks": 11520,
            "time": 12,
            "velocity": 0.3937007874015748
          },
          {
            "duration": 0.05000000000000071,
            "durationTicks": 48,
            "midi": 52,
            "name": "E3",
            "ticks": 11904,
            "time": 12.4,
            "velocity": 0.3937007874015748
          },
          {
            "duration": 0.09999999999999964,
            "durationTicks": 96,
            "midi": 42,
            "name": "F#2",
            "ticks": 11904,
            "time": 12.4,
            "velocity": 0.3937007874015748
          },
          {
            "duration": 0.049999999999998934,
            "durationTicks": 48,
            "midi": 52,
            "name": "E3",
            "ticks": 11952,
            "time": 12.450000000000001,
            "velocity": 0.3937007874015748
          },
          {
            "duration": 0.05000000000000071,
            "durationTicks": 48,
            "midi": 52,
            "name": "E3",
            "ticks": 12000,
            "time": 12.5,
            "velocity": 0.3937007874015748
          },
          {
            "duration": 0.05000000000000071,
            "durationTicks": 48,
            "midi": 52,
            "name": "E3",
            "ticks": 12048,
            "time": 12.55,
            "velocity": 0.3937007874015748
          },
          {
            "duration": 0.09999999999999964,
            "durationTicks": 96,
            "midi": 35,
            "name": "B1",
            "ticks": 12288,
            "time": 12.8,
            "velocity": 0.3937007874015748
          },
          {
            "duration": 0.09999999999999964,
            "durationTicks": 96,
            "midi": 42,
            "name": "F#2",
            "ticks": 12288,
            "time": 12.8,
            "velocity": 0.3937007874015748
          },
          {
            "duration": 0.10000000000000142,
            "durationTicks": 96,
            "midi": 42,
            "name": "F#2",
            "ticks": 12480,
            "time": 13,
            "velocity": 0.3937007874015748
          },
          {
            "duration": 0.09999999999999964,
            "durationTicks": 96,
            "midi": 42,
            "name": "F#2",
            "ticks": 12672,
            "time": 13.200000000000001,
            "velocity": 0.3937007874015748
          },
          {
            "duration": 0.09999999999999964,
            "durationTicks": 96,
            "midi": 42,
            "name": "F#2",
            "ticks": 12864,
            "time": 13.4,
            "velocity": 0.3937007874015748
          },
          {
            "duration": 0.09999999999999964,
            "durationTicks": 96,
            "midi": 35,
            "name": "B1",
            "ticks": 12864,
            "time": 13.4,
            "velocity": 0.3937007874015748
          },
          {
            "duration": 0.10000000000000142,
            "durationTicks": 96,
            "midi": 35,
            "name": "B1",
            "ticks": 13440,
            "time": 14,
            "velocity": 0.3937007874015748
          },
          {
            "duration": 0.10000000000000142,
            "durationTicks": 96,
            "midi": 42,
            "name": "F#2",
            "ticks": 13440,
            "time": 14,
            "velocity": 0.3937007874015748
          },
          {
            "duration": 0.09999999999999964,
            "durationTicks": 96,
            "midi": 42,
            "name": "F#2",
            "ticks": 14016,
            "time": 14.600000000000001,
            "velocity": 0.3937007874015748
          },
          {
            "duration": 0.09999999999999964,
            "durationTicks": 96,
            "midi": 35,
            "name": "B1",
            "ticks": 14016,
            "time": 14.600000000000001,
            "velocity": 0.3937007874015748
          },
          {
            "duration": 0.09999999999999964,
            "durationTicks": 96,
            "midi": 35,
            "name": "B1",
            "ticks": 14208,
            "time": 14.8,
            "velocity": 0.3937007874015748
          },
          {
            "duration": 0.09999999999999964,
            "durationTicks": 96,
            "midi": 42,
            "name": "F#2",
            "ticks": 14208,
            "time": 14.8,
            "velocity": 0.3937007874015748
          },
          {
            "duration": 0.10000000000000142,
            "durationTicks": 96,
            "midi": 42,
            "name": "F#2",
            "ticks": 14400,
            "time": 15,
            "velocity": 0.3937007874015748
          },
          {
            "duration": 0.09999999999999964,
            "durationTicks": 96,
            "midi": 42,
            "name": "F#2",
            "ticks": 14592,
            "time": 15.200000000000001,
            "velocity": 0.3937007874015748
          },
          {
            "duration": 0.09999999999999964,
            "durationTicks": 96,
            "midi": 35,
            "name": "B1",
            "ticks": 14976,
            "time": 15.600000000000001,
            "velocity": 0.3937007874015748
          },
          {
            "duration": 0.09999999999999964,
            "durationTicks": 96,
            "midi": 42,
            "name": "F#2",
            "ticks": 14976,
            "time": 15.600000000000001,
            "velocity": 0.3937007874015748
          },
          {
            "duration": 0.10000000000000142,
            "durationTicks": 96,
            "midi": 42,
            "name": "F#2",
            "ticks": 15360,
            "time": 16,
            "velocity": 0.3937007874015748
          },
          {
            "duration": 0.10000000000000142,
            "durationTicks": 96,
            "midi": 35,
            "name": "B1",
            "ticks": 15360,
            "time": 16,
            "velocity": 0.3937007874015748
          },
          {
            "duration": 0.10000000000000142,
            "durationTicks": 96,
            "midi": 42,
            "name": "F#2",
            "ticks": 15552,
            "time": 16.2,
            "velocity": 0.3937007874015748
          },
          {
            "duration": 0.09999999999999787,
            "durationTicks": 96,
            "midi": 42,
            "name": "F#2",
            "ticks": 15744,
            "time": 16.400000000000002,
            "velocity": 0.3937007874015748
          },
          {
            "duration": 0.09999999999999787,
            "durationTicks": 96,
            "midi": 42,
            "name": "F#2",
            "ticks": 15936,
            "time": 16.6,
            "velocity": 0.3937007874015748
          },
          {
            "duration": 0.09999999999999787,
            "durationTicks": 96,
            "midi": 35,
            "name": "B1",
            "ticks": 15936,
            "time": 16.6,
            "velocity": 0.3937007874015748
          },
          {
            "duration": 0.10000000000000142,
            "durationTicks": 96,
            "midi": 42,
            "name": "F#2",
            "ticks": 16512,
            "time": 17.2,
            "velocity": 0.3937007874015748
          },
          {
            "duration": 0.10000000000000142,
            "durationTicks": 96,
            "midi": 35,
            "name": "B1",
            "ticks": 16512,
            "time": 17.2,
            "velocity": 0.3937007874015748
          },
          {
            "duration": 0.10000000000000142,
            "durationTicks": 96,
            "midi": 42,
            "name": "F#2",
            "ticks": 17088,
            "time": 17.8,
            "velocity": 0.3937007874015748
          },
          {
            "duration": 0.10000000000000142,
            "durationTicks": 96,
            "midi": 35,
            "name": "B1",
            "ticks": 17088,
            "time": 17.8,
            "velocity": 0.3937007874015748
          },
          {
            "duration": 0.10000000000000142,
            "durationTicks": 96,
            "midi": 35,
            "name": "B1",
            "ticks": 17280,
            "time": 18,
            "velocity": 0.3937007874015748
          },
          {
            "duration": 0.10000000000000142,
            "durationTicks": 96,
            "midi": 42,
            "name": "F#2",
            "ticks": 17280,
            "time": 18,
            "velocity": 0.3937007874015748
          },
          {
            "duration": 0.10000000000000142,
            "durationTicks": 96,
            "midi": 42,
            "name": "F#2",
            "ticks": 17472,
            "time": 18.2,
            "velocity": 0.3937007874015748
          },
          {
            "duration": 0.09999999999999787,
            "durationTicks": 96,
            "midi": 42,
            "name": "F#2",
            "ticks": 17664,
            "time": 18.400000000000002,
            "velocity": 0.3937007874015748
          },
          {
            "duration": 0.04999999999999716,
            "durationTicks": 48,
            "midi": 52,
            "name": "E3",
            "ticks": 17664,
            "time": 18.400000000000002,
            "velocity": 0.3937007874015748
          },
          {
            "duration": 0.05000000000000071,
            "durationTicks": 48,
            "midi": 52,
            "name": "E3",
            "ticks": 18048,
            "time": 18.8,
            "velocity": 0.3937007874015748
          },
          {
            "duration": 0.10000000000000142,
            "durationTicks": 96,
            "midi": 42,
            "name": "F#2",
            "ticks": 18048,
            "time": 18.8,
            "velocity": 0.3937007874015748
          },
          {
            "duration": 0.05000000000000071,
            "durationTicks": 48,
            "midi": 52,
            "name": "E3",
            "ticks": 18096,
            "time": 18.85,
            "velocity": 0.3937007874015748
          },
          {
            "duration": 0.09999999999999787,
            "durationTicks": 96,
            "midi": 42,
            "name": "F#2",
            "ticks": 18144,
            "time": 18.900000000000002,
            "velocity": 0.3937007874015748
          },
          {
            "duration": 0.04999999999999716,
            "durationTicks": 48,
            "midi": 52,
            "name": "E3",
            "ticks": 18144,
            "time": 18.900000000000002,
            "velocity": 0.3937007874015748
          },
          {
            "duration": 0.05000000000000071,
            "durationTicks": 48,
            "midi": 52,
            "name": "E3",
            "ticks": 18192,
            "time": 18.95,
            "velocity": 0.3937007874015748
          }
        ],
        "endOfTrackTicks": 18240
      },
      {
        "channel": 9,
        "controlChanges": {},
        "pitchBends": [],
        "instrument": {
          "family": "drums",
          "number": 255
        },
        "name": "2013 Drum Kit",
        "notes": [
          {
            "duration": 0.1,
            "durationTicks": 96,
            "midi": 36,
            "name": "C2",
            "ticks": 0,
            "time": 0,
            "velocity": 0.3937007874015748
          },
          {
            "duration": 0.10000000000000009,
            "durationTicks": 96,
            "midi": 36,
            "name": "C2",
            "ticks": 1920,
            "time": 2,
            "velocity": 0.3937007874015748
          },
          {
            "duration": 0.10000000000000009,
            "durationTicks": 96,
            "midi": 36,
            "name": "C2",
            "ticks": 3072,
            "time": 3.2,
            "velocity": 0.3937007874015748
          },
          {
            "duration": 0.09999999999999964,
            "durationTicks": 96,
            "midi": 36,
            "name": "C2",
            "ticks": 4608,
            "time": 4.800000000000001,
            "velocity": 0.3937007874015748
          },
          {
            "duration": 0.10000000000000053,
            "durationTicks": 96,
            "midi": 36,
            "name": "C2",
            "ticks": 4992,
            "time": 5.2,
            "velocity": 0.3937007874015748
          },
          {
            "duration": 0.09999999999999964,
            "durationTicks": 96,
            "midi": 36,
            "name": "C2",
            "ticks": 5376,
            "time": 5.6000000000000005,
            "velocity": 0.3937007874015748
          },
          {
            "duration": 0.09999999999999964,
            "durationTicks": 96,
            "midi": 36,
            "name": "C2",
            "ticks": 6144,
            "time": 6.4,
            "velocity": 0.3937007874015748
          },
          {
            "duration": 0.10000000000000053,
            "durationTicks": 96,
            "midi": 36,
            "name": "C2",
            "ticks": 6720,
            "time": 7,
            "velocity": 0.3937007874015748
          },
          {
            "duration": 0.09999999999999964,
            "durationTicks": 96,
            "midi": 36,
            "name": "C2",
            "ticks": 7296,
            "time": 7.6000000000000005,
            "velocity": 0.3937007874015748
          },
          {
            "duration": 0.09999999999999964,
            "durationTicks": 96,
            "midi": 36,
            "name": "C2",
            "ticks": 7872,
            "time": 8.200000000000001,
            "velocity": 0.3937007874015748
          },
          {
            "duration": 0.09999999999999964,
            "durationTicks": 96,
            "midi": 36,
            "name": "C2",
            "ticks": 8064,
            "time": 8.4,
            "velocity": 0.3937007874015748
          },
          {
            "duration": 0.09999999999999964,
            "durationTicks": 96,
            "midi": 36,
            "name": "C2",
            "ticks": 8832,
            "time": 9.200000000000001,
            "velocity": 0.3937007874015748
          },
          {
            "duration": 0.09999999999999964,
            "durationTicks": 96,
            "midi": 36,
            "name": "C2",
            "ticks": 9216,
            "time": 9.600000000000001,
            "velocity": 0.3937007874015748
          },
          {
            "duration": 0.09999999999999964,
            "durationTicks": 96,
            "midi": 36,
            "name": "C2",
            "ticks": 9792,
            "time": 10.200000000000001,
            "velocity": 0.3937007874015748
          },
          {
            "duration": 0.09999999999999964,
            "durationTicks": 96,
            "midi": 36,
            "name": "C2",
            "ticks": 10368,
            "time": 10.8,
            "velocity": 0.3937007874015748
          },
          {
            "duration": 0.09999999999999964,
            "durationTicks": 96,
            "midi": 36,
            "name": "C2",
            "ticks": 10944,
            "time": 11.4,
            "velocity": 0.3937007874015748
          },
          {
            "duration": 0.09999999999999964,
            "durationTicks": 96,
            "midi": 36,
            "name": "C2",
            "ticks": 11136,
            "time": 11.600000000000001,
            "velocity": 0.3937007874015748
          },
          {
            "duration": 0.09999999999999964,
            "durationTicks": 96,
            "midi": 36,
            "name": "C2",
            "ticks": 11904,
            "time": 12.4,
            "velocity": 0.3937007874015748
          },
          {
            "duration": 0.09999999999999964,
            "durationTicks": 96,
            "midi": 36,
            "name": "C2",
            "ticks": 12288,
            "time": 12.8,
            "velocity": 0.3937007874015748
          },
          {
            "duration": 0.09999999999999964,
            "durationTicks": 96,
            "midi": 36,
            "name": "C2",
            "ticks": 12864,
            "time": 13.4,
            "velocity": 0.3937007874015748
          },
          {
            "duration": 0.10000000000000142,
            "durationTicks": 96,
            "midi": 36,
            "name": "C2",
            "ticks": 13440,
            "time": 14,
            "velocity": 0.3937007874015748
          },
          {
            "duration": 0.09999999999999964,
            "durationTicks": 96,
            "midi": 36,
            "name": "C2",
            "ticks": 14016,
            "time": 14.600000000000001,
            "velocity": 0.3937007874015748
          },
          {
            "duration": 0.09999999999999964,
            "durationTicks": 96,
            "midi": 36,
            "name": "C2",
            "ticks": 14208,
            "time": 14.8,
            "velocity": 0.3937007874015748
          },
          {
            "duration": 0.09999999999999964,
            "durationTicks": 96,
            "midi": 36,
            "name": "C2",
            "ticks": 14976,
            "time": 15.600000000000001,
            "velocity": 0.3937007874015748
          },
          {
            "duration": 0.10000000000000142,
            "durationTicks": 96,
            "midi": 36,
            "name": "C2",
            "ticks": 15360,
            "time": 16,
            "velocity": 0.3937007874015748
          },
          {
            "duration": 0.09999999999999787,
            "durationTicks": 96,
            "midi": 36,
            "name": "C2",
            "ticks": 15936,
            "time": 16.6,
            "velocity": 0.3937007874015748
          },
          {
            "duration": 0.10000000000000142,
            "durationTicks": 96,
            "midi": 36,
            "name": "C2",
            "ticks": 16512,
            "time": 17.2,
            "velocity": 0.3937007874015748
          },
          {
            "duration": 0.10000000000000142,
            "durationTicks": 96,
            "midi": 36,
            "name": "C2",
            "ticks": 17088,
            "time": 17.8,
            "velocity": 0.3937007874015748
          },
          {
            "duration": 0.10000000000000142,
            "durationTicks": 96,
            "midi": 36,
            "name": "C2",
            "ticks": 17280,
            "time": 18,
            "velocity": 0.3937007874015748
          },
          {
            "duration": 0.10000000000000142,
            "durationTicks": 96,
            "midi": 36,
            "name": "C2",
            "ticks": 18048,
            "time": 18.8,
            "velocity": 0.3937007874015748
          }
        ],
        "endOfTrackTicks": 18144
      }
    ]
  }