{
    "header": {
      "keySignatures": [],
      "meta": [],
      "name": "",
      "ppq": 384,
      "tempos": [
        {
          "bpm": 113.00009605008164,
          "ticks": 0
        }
      ],
      "timeSignatures": [
        {
          "ticks": 0,
          "timeSignature": [
            1,
            4
          ],
          "measures": 0
        }
      ]
    },
    "tracks": [
      {
        "channel": 0,
        "controlChanges": {},
        "pitchBends": [],
        "instrument": {
          "family": "guitar",
          "number": 24,
          "name": "acoustic guitar (nylon)"
        },
        "name": "Acoustic Guitar",
        "notes": [
          {
            "duration": 0.1327432500000043,
            "durationTicks": 96,
            "midi": 54,
            "name": "F#3",
            "ticks": 56160,
            "time": 77.65480125,
            "velocity": 0.29133858267716534
          },
          {
            "duration": 0.1327432500000043,
            "durationTicks": 96,
            "midi": 44,
            "name": "G#2",
            "ticks": 56448,
            "time": 78.053031,
            "velocity": 0.3937007874015748
          },
          {
            "duration": 0.1327432500000043,
            "durationTicks": 96,
            "midi": 44,
            "name": "G#2",
            "ticks": 56736,
            "time": 78.45126075,
            "velocity": 0.3937007874015748
          },
          {
            "duration": 0.1327432500000043,
            "durationTicks": 96,
            "midi": 44,
            "name": "G#2",
            "ticks": 56928,
            "time": 78.71674725,
            "velocity": 0.3937007874015748
          },
          {
            "duration": 0.1327432499999901,
            "durationTicks": 96,
            "midi": 44,
            "name": "G#2",
            "ticks": 57216,
            "time": 79.11497700000001,
            "velocity": 0.3937007874015748
          },
          {
            "duration": 0.1327432499999901,
            "durationTicks": 96,
            "midi": 44,
            "name": "G#2",
            "ticks": 57504,
            "time": 79.51320675000001,
            "velocity": 0.3937007874015748
          },
          {
            "duration": 0.1327432500000043,
            "durationTicks": 96,
            "midi": 44,
            "name": "G#2",
            "ticks": 57696,
            "time": 79.77869325,
            "velocity": 0.3937007874015748
          },
          {
            "duration": 0.1327432500000043,
            "durationTicks": 96,
            "midi": 44,
            "name": "G#2",
            "ticks": 57984,
            "time": 80.176923,
            "velocity": 0.3937007874015748
          },
          {
            "duration": 0.1327432500000043,
            "durationTicks": 96,
            "midi": 44,
            "name": "G#2",
            "ticks": 58272,
            "time": 80.57515275,
            "velocity": 0.3937007874015748
          },
          {
            "duration": 0.1327432499999901,
            "durationTicks": 96,
            "midi": 44,
            "name": "G#2",
            "ticks": 58464,
            "time": 80.84063925000001,
            "velocity": 0.3937007874015748
          },
          {
            "duration": 0.1327432499999901,
            "durationTicks": 96,
            "midi": 44,
            "name": "G#2",
            "ticks": 58752,
            "time": 81.23886900000001,
            "velocity": 0.3937007874015748
          },
          {
            "duration": 0.1327432500000043,
            "durationTicks": 96,
            "midi": 44,
            "name": "G#2",
            "ticks": 59040,
            "time": 81.63709875,
            "velocity": 0.3937007874015748
          },
          {
            "duration": 0.1327432500000043,
            "durationTicks": 96,
            "midi": 44,
            "name": "G#2",
            "ticks": 59232,
            "time": 81.90258525,
            "velocity": 0.3937007874015748
          },
          {
            "duration": 0.1327432500000043,
            "durationTicks": 96,
            "midi": 44,
            "name": "G#2",
            "ticks": 59520,
            "time": 82.300815,
            "velocity": 0.3937007874015748
          },
          {
            "duration": 0.1327432500000043,
            "durationTicks": 96,
            "midi": 44,
            "name": "G#2",
            "ticks": 59808,
            "time": 82.69904475,
            "velocity": 0.3937007874015748
          },
          {
            "duration": 0.1327432499999901,
            "durationTicks": 96,
            "midi": 44,
            "name": "G#2",
            "ticks": 60000,
            "time": 82.96453125000001,
            "velocity": 0.3937007874015748
          },
          {
            "duration": 0.1327432500000043,
            "durationTicks": 96,
            "midi": 44,
            "name": "G#2",
            "ticks": 60288,
            "time": 83.362761,
            "velocity": 0.3937007874015748
          },
          {
            "duration": 0.1327432500000043,
            "durationTicks": 96,
            "midi": 44,
            "name": "G#2",
            "ticks": 60576,
            "time": 83.76099075,
            "velocity": 0.3937007874015748
          },
          {
            "duration": 0.1327432500000043,
            "durationTicks": 96,
            "midi": 44,
            "name": "G#2",
            "ticks": 60768,
            "time": 84.02647725,
            "velocity": 0.3937007874015748
          },
          {
            "duration": 0.1327432500000043,
            "durationTicks": 96,
            "midi": 44,
            "name": "G#2",
            "ticks": 61056,
            "time": 84.424707,
            "velocity": 0.3937007874015748
          },
          {
            "duration": 0.1327432499999901,
            "durationTicks": 96,
            "midi": 44,
            "name": "G#2",
            "ticks": 61344,
            "time": 84.82293675000001,
            "velocity": 0.3937007874015748
          },
          {
            "duration": 0.1327432500000043,
            "durationTicks": 96,
            "midi": 44,
            "name": "G#2",
            "ticks": 61536,
            "time": 85.08842325,
            "velocity": 0.3937007874015748
          },
          {
            "duration": 0.1327432500000043,
            "durationTicks": 96,
            "midi": 56,
            "name": "G#3",
            "ticks": 61824,
            "time": 85.486653,
            "velocity": 0.29133858267716534
          },
          {
            "duration": 0.1327432500000043,
            "durationTicks": 96,
            "midi": 58,
            "name": "A#3",
            "ticks": 62016,
            "time": 85.7521395,
            "velocity": 0.29133858267716534
          },
          {
            "duration": 0.1327432500000043,
            "durationTicks": 96,
            "midi": 61,
            "name": "C#4",
            "ticks": 62112,
            "time": 85.88488275,
            "velocity": 0.29133858267716534
          },
          {
            "duration": 0.1327432499999901,
            "durationTicks": 96,
            "midi": 54,
            "name": "F#3",
            "ticks": 62304,
            "time": 86.15036925000001,
            "velocity": 0.29133858267716534
          },
          {
            "duration": 0.1327432500000043,
            "durationTicks": 96,
            "midi": 53,
            "name": "F3",
            "ticks": 62400,
            "time": 86.2831125,
            "velocity": 0.29133858267716534
          },
          {
            "duration": 0.1327432500000043,
            "durationTicks": 96,
            "midi": 56,
            "name": "G#3",
            "ticks": 74208,
            "time": 102.61053225,
            "velocity": 0.29133858267716534
          },
          {
            "duration": 0.1327432499999901,
            "durationTicks": 96,
            "midi": 61,
            "name": "C#4",
            "ticks": 74304,
            "time": 102.74327550000001,
            "velocity": 0.29133858267716534
          },
          {
            "duration": 0.1327432500000043,
            "durationTicks": 96,
            "midi": 61,
            "name": "C#4",
            "ticks": 74400,
            "time": 102.87601875,
            "velocity": 0.1968503937007874
          },
          {
            "duration": 0.1327432499999901,
            "durationTicks": 96,
            "midi": 54,
            "name": "F#3",
            "ticks": 74592,
            "time": 103.14150525000001,
            "velocity": 0.29133858267716534
          },
          {
            "duration": 0.1327432500000043,
            "durationTicks": 96,
            "midi": 56,
            "name": "G#3",
            "ticks": 86496,
            "time": 119.60166825,
            "velocity": 0.29133858267716534
          },
          {
            "duration": 0.1327432500000043,
            "durationTicks": 96,
            "midi": 61,
            "name": "C#4",
            "ticks": 86592,
            "time": 119.73441150000001,
            "velocity": 0.29133858267716534
          },
          {
            "duration": 0.1327432499999901,
            "durationTicks": 96,
            "midi": 61,
            "name": "C#4",
            "ticks": 86688,
            "time": 119.86715475000001,
            "velocity": 0.29133858267716534
          },
          {
            "duration": 0.1327432500000043,
            "durationTicks": 96,
            "midi": 56,
            "name": "G#3",
            "ticks": 86784,
            "time": 119.999898,
            "velocity": 0.1968503937007874
          },
          {
            "duration": 0.2654864999999944,
            "durationTicks": 192,
            "midi": 70,
            "name": "A#4",
            "ticks": 86976,
            "time": 120.26538450000001,
            "velocity": 0.3937007874015748
          },
          {
            "duration": 0.2654864999999944,
            "durationTicks": 192,
            "midi": 65,
            "name": "F4",
            "ticks": 86976,
            "time": 120.26538450000001,
            "velocity": 0.3937007874015748
          },
          {
            "duration": 0.2654864999999944,
            "durationTicks": 192,
            "midi": 61,
            "name": "C#4",
            "ticks": 86976,
            "time": 120.26538450000001,
            "velocity": 0.3937007874015748
          },
          {
            "duration": 0.1327432500000043,
            "durationTicks": 96,
            "midi": 61,
            "name": "C#4",
            "ticks": 87264,
            "time": 120.66361425000001,
            "velocity": 0.3937007874015748
          },
          {
            "duration": 0.1327432500000043,
            "durationTicks": 96,
            "midi": 65,
            "name": "F4",
            "ticks": 87264,
            "time": 120.66361425000001,
            "velocity": 0.3937007874015748
          },
          {
            "duration": 0.1327432500000043,
            "durationTicks": 96,
            "midi": 70,
            "name": "A#4",
            "ticks": 87264,
            "time": 120.66361425000001,
            "velocity": 0.3937007874015748
          },
          {
            "duration": 0.1327432500000043,
            "durationTicks": 96,
            "midi": 61,
            "name": "C#4",
            "ticks": 87552,
            "time": 121.06184400000001,
            "velocity": 0.3937007874015748
          },
          {
            "duration": 0.1327432500000043,
            "durationTicks": 96,
            "midi": 70,
            "name": "A#4",
            "ticks": 87552,
            "time": 121.06184400000001,
            "velocity": 0.3937007874015748
          },
          {
            "duration": 0.1327432500000043,
            "durationTicks": 96,
            "midi": 65,
            "name": "F4",
            "ticks": 87552,
            "time": 121.06184400000001,
            "velocity": 0.3937007874015748
          },
          {
            "duration": 0.2654865000000086,
            "durationTicks": 192,
            "midi": 65,
            "name": "F4",
            "ticks": 87744,
            "time": 121.3273305,
            "velocity": 0.3937007874015748
          },
          {
            "duration": 0.2654865000000086,
            "durationTicks": 192,
            "midi": 61,
            "name": "C#4",
            "ticks": 87744,
            "time": 121.3273305,
            "velocity": 0.3937007874015748
          },
          {
            "duration": 0.2654865000000086,
            "durationTicks": 192,
            "midi": 70,
            "name": "A#4",
            "ticks": 87744,
            "time": 121.3273305,
            "velocity": 0.3937007874015748
          },
          {
            "duration": 0.1327432500000043,
            "durationTicks": 96,
            "midi": 39,
            "name": "D#2",
            "ticks": 87840,
            "time": 121.46007375,
            "velocity": 0.2204724409448819
          },
          {
            "duration": 0.1327432499999901,
            "durationTicks": 96,
            "midi": 41,
            "name": "F2",
            "ticks": 87936,
            "time": 121.59281700000001,
            "velocity": 0.29133858267716534
          },
          {
            "duration": 0.1327432500000043,
            "durationTicks": 96,
            "midi": 61,
            "name": "C#4",
            "ticks": 88032,
            "time": 121.72556025,
            "velocity": 0.3937007874015748
          },
          {
            "duration": 0.1327432500000043,
            "durationTicks": 96,
            "midi": 70,
            "name": "A#4",
            "ticks": 88032,
            "time": 121.72556025,
            "velocity": 0.3937007874015748
          },
          {
            "duration": 0.1327432500000043,
            "durationTicks": 96,
            "midi": 65,
            "name": "F4",
            "ticks": 88032,
            "time": 121.72556025,
            "velocity": 0.3937007874015748
          },
          {
            "duration": 0.1327432500000043,
            "durationTicks": 96,
            "midi": 41,
            "name": "F2",
            "ticks": 88032,
            "time": 121.72556025,
            "velocity": 0.14173228346456693
          },
          {
            "duration": 0.1327432500000043,
            "durationTicks": 96,
            "midi": 44,
            "name": "G#2",
            "ticks": 88128,
            "time": 121.8583035,
            "velocity": 0.29133858267716534
          },
          {
            "duration": 0.1327432499999901,
            "durationTicks": 96,
            "midi": 46,
            "name": "A#2",
            "ticks": 88224,
            "time": 121.99104675000001,
            "velocity": 0.29133858267716534
          },
          {
            "duration": 0.1327432500000043,
            "durationTicks": 96,
            "midi": 65,
            "name": "F4",
            "ticks": 88320,
            "time": 122.12379,
            "velocity": 0.3937007874015748
          },
          {
            "duration": 0.1327432500000043,
            "durationTicks": 96,
            "midi": 70,
            "name": "A#4",
            "ticks": 88320,
            "time": 122.12379,
            "velocity": 0.3937007874015748
          },
          {
            "duration": 0.1327432500000043,
            "durationTicks": 96,
            "midi": 61,
            "name": "C#4",
            "ticks": 88320,
            "time": 122.12379,
            "velocity": 0.3937007874015748
          },
          {
            "duration": 0.1327432500000043,
            "durationTicks": 96,
            "midi": 46,
            "name": "A#2",
            "ticks": 88416,
            "time": 122.25653325,
            "velocity": 0.29133858267716534
          },
          {
            "duration": 0.1327432500000043,
            "durationTicks": 96,
            "midi": 46,
            "name": "A#2",
            "ticks": 89376,
            "time": 123.58396575,
            "velocity": 0.14173228346456693
          },
          {
            "duration": 0.1327432500000043,
            "durationTicks": 96,
            "midi": 46,
            "name": "A#2",
            "ticks": 89472,
            "time": 123.71670900000001,
            "velocity": 0.29133858267716534
          },
          {
            "duration": 0.1327432499999901,
            "durationTicks": 96,
            "midi": 46,
            "name": "A#2",
            "ticks": 89568,
            "time": 123.84945225000001,
            "velocity": 0.2204724409448819
          },
          {
            "duration": 0.1327432500000043,
            "durationTicks": 96,
            "midi": 49,
            "name": "C#3",
            "ticks": 89664,
            "time": 123.9821955,
            "velocity": 0.29133858267716534
          },
          {
            "duration": 0.1327432500000043,
            "durationTicks": 96,
            "midi": 51,
            "name": "D#3",
            "ticks": 89760,
            "time": 124.11493875000001,
            "velocity": 0.29133858267716534
          },
          {
            "duration": 0.1327432500000043,
            "durationTicks": 96,
            "midi": 51,
            "name": "D#3",
            "ticks": 89952,
            "time": 124.38042525,
            "velocity": 0.29133858267716534
          },
          {
            "duration": 0.2654864999999944,
            "durationTicks": 192,
            "midi": 65,
            "name": "F4",
            "ticks": 90048,
            "time": 124.5131685,
            "velocity": 0.3937007874015748
          },
          {
            "duration": 0.2654864999999944,
            "durationTicks": 192,
            "midi": 61,
            "name": "C#4",
            "ticks": 90048,
            "time": 124.5131685,
            "velocity": 0.3937007874015748
          },
          {
            "duration": 0.2654864999999944,
            "durationTicks": 192,
            "midi": 70,
            "name": "A#4",
            "ticks": 90048,
            "time": 124.5131685,
            "velocity": 0.3937007874015748
          },
          {
            "duration": 0.1327432500000043,
            "durationTicks": 96,
            "midi": 61,
            "name": "C#4",
            "ticks": 90336,
            "time": 124.91139825,
            "velocity": 0.3937007874015748
          },
          {
            "duration": 0.1327432500000043,
            "durationTicks": 96,
            "midi": 70,
            "name": "A#4",
            "ticks": 90336,
            "time": 124.91139825,
            "velocity": 0.3937007874015748
          },
          {
            "duration": 0.1327432500000043,
            "durationTicks": 96,
            "midi": 65,
            "name": "F4",
            "ticks": 90336,
            "time": 124.91139825,
            "velocity": 0.3937007874015748
          },
          {
            "duration": 0.1327432500000043,
            "durationTicks": 96,
            "midi": 70,
            "name": "A#4",
            "ticks": 90624,
            "time": 125.309628,
            "velocity": 0.3937007874015748
          },
          {
            "duration": 0.1327432500000043,
            "durationTicks": 96,
            "midi": 65,
            "name": "F4",
            "ticks": 90624,
            "time": 125.309628,
            "velocity": 0.3937007874015748
          },
          {
            "duration": 0.1327432500000043,
            "durationTicks": 96,
            "midi": 61,
            "name": "C#4",
            "ticks": 90624,
            "time": 125.309628,
            "velocity": 0.3937007874015748
          },
          {
            "duration": 0.2654864999999944,
            "durationTicks": 192,
            "midi": 61,
            "name": "C#4",
            "ticks": 90816,
            "time": 125.57511450000001,
            "velocity": 0.3937007874015748
          },
          {
            "duration": 0.2654864999999944,
            "durationTicks": 192,
            "midi": 70,
            "name": "A#4",
            "ticks": 90816,
            "time": 125.57511450000001,
            "velocity": 0.3937007874015748
          },
          {
            "duration": 0.2654864999999944,
            "durationTicks": 192,
            "midi": 65,
            "name": "F4",
            "ticks": 90816,
            "time": 125.57511450000001,
            "velocity": 0.3937007874015748
          },
          {
            "duration": 0.1327432500000043,
            "durationTicks": 96,
            "midi": 39,
            "name": "D#2",
            "ticks": 90912,
            "time": 125.70785775,
            "velocity": 0.2204724409448819
          },
          {
            "duration": 0.1327432500000043,
            "durationTicks": 96,
            "midi": 41,
            "name": "F2",
            "ticks": 91008,
            "time": 125.840601,
            "velocity": 0.29133858267716534
          },
          {
            "duration": 0.1327432499999901,
            "durationTicks": 96,
            "midi": 65,
            "name": "F4",
            "ticks": 91104,
            "time": 125.97334425000001,
            "velocity": 0.3937007874015748
          },
          {
            "duration": 0.1327432499999901,
            "durationTicks": 96,
            "midi": 41,
            "name": "F2",
            "ticks": 91104,
            "time": 125.97334425000001,
            "velocity": 0.14173228346456693
          },
          {
            "duration": 0.1327432499999901,
            "durationTicks": 96,
            "midi": 70,
            "name": "A#4",
            "ticks": 91104,
            "time": 125.97334425000001,
            "velocity": 0.3937007874015748
          },
          {
            "duration": 0.1327432499999901,
            "durationTicks": 96,
            "midi": 61,
            "name": "C#4",
            "ticks": 91104,
            "time": 125.97334425000001,
            "velocity": 0.3937007874015748
          },
          {
            "duration": 0.1327432500000043,
            "durationTicks": 96,
            "midi": 44,
            "name": "G#2",
            "ticks": 91200,
            "time": 126.1060875,
            "velocity": 0.29133858267716534
          },
          {
            "duration": 0.1327432500000043,
            "durationTicks": 96,
            "midi": 46,
            "name": "A#2",
            "ticks": 91296,
            "time": 126.23883075,
            "velocity": 0.29133858267716534
          },
          {
            "duration": 0.1327432499999901,
            "durationTicks": 96,
            "midi": 61,
            "name": "C#4",
            "ticks": 91392,
            "time": 126.37157400000001,
            "velocity": 0.3937007874015748
          },
          {
            "duration": 0.1327432499999901,
            "durationTicks": 96,
            "midi": 65,
            "name": "F4",
            "ticks": 91392,
            "time": 126.37157400000001,
            "velocity": 0.3937007874015748
          },
          {
            "duration": 0.1327432499999901,
            "durationTicks": 96,
            "midi": 70,
            "name": "A#4",
            "ticks": 91392,
            "time": 126.37157400000001,
            "velocity": 0.3937007874015748
          },
          {
            "duration": 0.1327432500000043,
            "durationTicks": 96,
            "midi": 46,
            "name": "A#2",
            "ticks": 91488,
            "time": 126.50431725,
            "velocity": 0.29133858267716534
          },
          {
            "duration": 0.1327432500000043,
            "durationTicks": 96,
            "midi": 46,
            "name": "A#2",
            "ticks": 92448,
            "time": 127.83174975,
            "velocity": 0.14173228346456693
          },
          {
            "duration": 0.1327432500000043,
            "durationTicks": 96,
            "midi": 46,
            "name": "A#2",
            "ticks": 92544,
            "time": 127.964493,
            "velocity": 0.29133858267716534
          },
          {
            "duration": 0.1327432500000043,
            "durationTicks": 96,
            "midi": 46,
            "name": "A#2",
            "ticks": 92640,
            "time": 128.09723625,
            "velocity": 0.2204724409448819
          },
          {
            "duration": 0.1327432500000043,
            "durationTicks": 96,
            "midi": 49,
            "name": "C#3",
            "ticks": 92736,
            "time": 128.2299795,
            "velocity": 0.29133858267716534
          },
          {
            "duration": 0.1327432499999759,
            "durationTicks": 96,
            "midi": 51,
            "name": "D#3",
            "ticks": 92832,
            "time": 128.36272275000002,
            "velocity": 0.29133858267716534
          },
          {
            "duration": 0.1327432500000043,
            "durationTicks": 96,
            "midi": 51,
            "name": "D#3",
            "ticks": 93024,
            "time": 128.62820925,
            "velocity": 0.29133858267716534
          },
          {
            "duration": 0.2654865000000086,
            "durationTicks": 192,
            "midi": 70,
            "name": "A#4",
            "ticks": 93120,
            "time": 128.7609525,
            "velocity": 0.3937007874015748
          },
          {
            "duration": 0.2654865000000086,
            "durationTicks": 192,
            "midi": 61,
            "name": "C#4",
            "ticks": 93120,
            "time": 128.7609525,
            "velocity": 0.3937007874015748
          },
          {
            "duration": 0.2654865000000086,
            "durationTicks": 192,
            "midi": 65,
            "name": "F4",
            "ticks": 93120,
            "time": 128.7609525,
            "velocity": 0.3937007874015748
          },
          {
            "duration": 0.1327432500000043,
            "durationTicks": 96,
            "midi": 65,
            "name": "F4",
            "ticks": 93408,
            "time": 129.15918225000001,
            "velocity": 0.3937007874015748
          },
          {
            "duration": 0.1327432500000043,
            "durationTicks": 96,
            "midi": 70,
            "name": "A#4",
            "ticks": 93408,
            "time": 129.15918225000001,
            "velocity": 0.3937007874015748
          },
          {
            "duration": 0.1327432500000043,
            "durationTicks": 96,
            "midi": 61,
            "name": "C#4",
            "ticks": 93408,
            "time": 129.15918225000001,
            "velocity": 0.3937007874015748
          },
          {
            "duration": 0.1327432500000043,
            "durationTicks": 96,
            "midi": 65,
            "name": "F4",
            "ticks": 93696,
            "time": 129.557412,
            "velocity": 0.3937007874015748
          },
          {
            "duration": 0.1327432500000043,
            "durationTicks": 96,
            "midi": 70,
            "name": "A#4",
            "ticks": 93696,
            "time": 129.557412,
            "velocity": 0.3937007874015748
          },
          {
            "duration": 0.1327432500000043,
            "durationTicks": 96,
            "midi": 61,
            "name": "C#4",
            "ticks": 93696,
            "time": 129.557412,
            "velocity": 0.3937007874015748
          },
          {
            "duration": 0.2654865000000086,
            "durationTicks": 192,
            "midi": 61,
            "name": "C#4",
            "ticks": 93888,
            "time": 129.8228985,
            "velocity": 0.3937007874015748
          },
          {
            "duration": 0.2654865000000086,
            "durationTicks": 192,
            "midi": 65,
            "name": "F4",
            "ticks": 93888,
            "time": 129.8228985,
            "velocity": 0.3937007874015748
          },
          {
            "duration": 0.2654865000000086,
            "durationTicks": 192,
            "midi": 70,
            "name": "A#4",
            "ticks": 93888,
            "time": 129.8228985,
            "velocity": 0.3937007874015748
          },
          {
            "duration": 0.1327432500000043,
            "durationTicks": 96,
            "midi": 39,
            "name": "D#2",
            "ticks": 93984,
            "time": 129.95564175,
            "velocity": 0.2204724409448819
          },
          {
            "duration": 0.1327432500000043,
            "durationTicks": 96,
            "midi": 41,
            "name": "F2",
            "ticks": 94080,
            "time": 130.08838500000002,
            "velocity": 0.29133858267716534
          },
          {
            "duration": 0.1327432499999759,
            "durationTicks": 96,
            "midi": 41,
            "name": "F2",
            "ticks": 94176,
            "time": 130.22112825000002,
            "velocity": 0.14173228346456693
          },
          {
            "duration": 0.1327432499999759,
            "durationTicks": 96,
            "midi": 65,
            "name": "F4",
            "ticks": 94176,
            "time": 130.22112825000002,
            "velocity": 0.3937007874015748
          },
          {
            "duration": 0.1327432499999759,
            "durationTicks": 96,
            "midi": 70,
            "name": "A#4",
            "ticks": 94176,
            "time": 130.22112825000002,
            "velocity": 0.3937007874015748
          },
          {
            "duration": 0.1327432499999759,
            "durationTicks": 96,
            "midi": 61,
            "name": "C#4",
            "ticks": 94176,
            "time": 130.22112825000002,
            "velocity": 0.3937007874015748
          },
          {
            "duration": 0.1327432500000043,
            "durationTicks": 96,
            "midi": 44,
            "name": "G#2",
            "ticks": 94272,
            "time": 130.3538715,
            "velocity": 0.29133858267716534
          },
          {
            "duration": 0.1327432500000043,
            "durationTicks": 96,
            "midi": 46,
            "name": "A#2",
            "ticks": 94368,
            "time": 130.48661475,
            "velocity": 0.29133858267716534
          },
          {
            "duration": 0.1327432500000043,
            "durationTicks": 96,
            "midi": 70,
            "name": "A#4",
            "ticks": 94464,
            "time": 130.619358,
            "velocity": 0.3937007874015748
          },
          {
            "duration": 0.1327432500000043,
            "durationTicks": 96,
            "midi": 65,
            "name": "F4",
            "ticks": 94464,
            "time": 130.619358,
            "velocity": 0.3937007874015748
          },
          {
            "duration": 0.1327432500000043,
            "durationTicks": 96,
            "midi": 61,
            "name": "C#4",
            "ticks": 94464,
            "time": 130.619358,
            "velocity": 0.3937007874015748
          },
          {
            "duration": 0.1327432500000043,
            "durationTicks": 96,
            "midi": 46,
            "name": "A#2",
            "ticks": 94560,
            "time": 130.75210125,
            "velocity": 0.29133858267716534
          },
          {
            "duration": 0.1327432500000043,
            "durationTicks": 96,
            "midi": 46,
            "name": "A#2",
            "ticks": 95520,
            "time": 132.07953375,
            "velocity": 0.14173228346456693
          },
          {
            "duration": 0.1327432500000043,
            "durationTicks": 96,
            "midi": 46,
            "name": "A#2",
            "ticks": 95616,
            "time": 132.212277,
            "velocity": 0.29133858267716534
          },
          {
            "duration": 0.1327432500000043,
            "durationTicks": 96,
            "midi": 46,
            "name": "A#2",
            "ticks": 95712,
            "time": 132.34502025,
            "velocity": 0.2204724409448819
          },
          {
            "duration": 0.1327432500000043,
            "durationTicks": 96,
            "midi": 49,
            "name": "C#3",
            "ticks": 95808,
            "time": 132.4777635,
            "velocity": 0.29133858267716534
          },
          {
            "duration": 0.1327432500000043,
            "durationTicks": 96,
            "midi": 51,
            "name": "D#3",
            "ticks": 95904,
            "time": 132.61050675,
            "velocity": 0.29133858267716534
          },
          {
            "duration": 0.1327432500000043,
            "durationTicks": 96,
            "midi": 51,
            "name": "D#3",
            "ticks": 96096,
            "time": 132.87599325,
            "velocity": 0.29133858267716534
          },
          {
            "duration": 0.2654865000000086,
            "durationTicks": 192,
            "midi": 61,
            "name": "C#4",
            "ticks": 96192,
            "time": 133.0087365,
            "velocity": 0.3937007874015748
          },
          {
            "duration": 0.2654865000000086,
            "durationTicks": 192,
            "midi": 70,
            "name": "A#4",
            "ticks": 96192,
            "time": 133.0087365,
            "velocity": 0.3937007874015748
          },
          {
            "duration": 0.2654865000000086,
            "durationTicks": 192,
            "midi": 65,
            "name": "F4",
            "ticks": 96192,
            "time": 133.0087365,
            "velocity": 0.3937007874015748
          },
          {
            "duration": 0.1327432500000043,
            "durationTicks": 96,
            "midi": 61,
            "name": "C#4",
            "ticks": 96480,
            "time": 133.40696625,
            "velocity": 0.3937007874015748
          },
          {
            "duration": 0.1327432500000043,
            "durationTicks": 96,
            "midi": 65,
            "name": "F4",
            "ticks": 96480,
            "time": 133.40696625,
            "velocity": 0.3937007874015748
          },
          {
            "duration": 0.1327432500000043,
            "durationTicks": 96,
            "midi": 70,
            "name": "A#4",
            "ticks": 96480,
            "time": 133.40696625,
            "velocity": 0.3937007874015748
          },
          {
            "duration": 0.1327432500000043,
            "durationTicks": 96,
            "midi": 61,
            "name": "C#4",
            "ticks": 96768,
            "time": 133.805196,
            "velocity": 0.3937007874015748
          },
          {
            "duration": 0.1327432500000043,
            "durationTicks": 96,
            "midi": 70,
            "name": "A#4",
            "ticks": 96768,
            "time": 133.805196,
            "velocity": 0.3937007874015748
          },
          {
            "duration": 0.1327432500000043,
            "durationTicks": 96,
            "midi": 65,
            "name": "F4",
            "ticks": 96768,
            "time": 133.805196,
            "velocity": 0.3937007874015748
          },
          {
            "duration": 0.2654865000000086,
            "durationTicks": 192,
            "midi": 65,
            "name": "F4",
            "ticks": 96960,
            "time": 134.0706825,
            "velocity": 0.3937007874015748
          },
          {
            "duration": 0.2654865000000086,
            "durationTicks": 192,
            "midi": 61,
            "name": "C#4",
            "ticks": 96960,
            "time": 134.0706825,
            "velocity": 0.3937007874015748
          },
          {
            "duration": 0.2654865000000086,
            "durationTicks": 192,
            "midi": 70,
            "name": "A#4",
            "ticks": 96960,
            "time": 134.0706825,
            "velocity": 0.3937007874015748
          },
          {
            "duration": 0.1327432500000043,
            "durationTicks": 96,
            "midi": 39,
            "name": "D#2",
            "ticks": 97056,
            "time": 134.20342575,
            "velocity": 0.2204724409448819
          },
          {
            "duration": 0.1327432500000043,
            "durationTicks": 96,
            "midi": 41,
            "name": "F2",
            "ticks": 97152,
            "time": 134.336169,
            "velocity": 0.29133858267716534
          },
          {
            "duration": 0.1327432500000043,
            "durationTicks": 96,
            "midi": 61,
            "name": "C#4",
            "ticks": 97248,
            "time": 134.46891225000002,
            "velocity": 0.3937007874015748
          },
          {
            "duration": 0.1327432500000043,
            "durationTicks": 96,
            "midi": 70,
            "name": "A#4",
            "ticks": 97248,
            "time": 134.46891225000002,
            "velocity": 0.3937007874015748
          },
          {
            "duration": 0.1327432500000043,
            "durationTicks": 96,
            "midi": 41,
            "name": "F2",
            "ticks": 97248,
            "time": 134.46891225000002,
            "velocity": 0.14173228346456693
          },
          {
            "duration": 0.1327432500000043,
            "durationTicks": 96,
            "midi": 65,
            "name": "F4",
            "ticks": 97248,
            "time": 134.46891225000002,
            "velocity": 0.3937007874015748
          },
          {
            "duration": 0.1327432499999759,
            "durationTicks": 96,
            "midi": 44,
            "name": "G#2",
            "ticks": 97344,
            "time": 134.60165550000002,
            "velocity": 0.29133858267716534
          },
          {
            "duration": 0.1327432500000043,
            "durationTicks": 96,
            "midi": 46,
            "name": "A#2",
            "ticks": 97440,
            "time": 134.73439875,
            "velocity": 0.29133858267716534
          },
          {
            "duration": 0.1327432500000043,
            "durationTicks": 96,
            "midi": 70,
            "name": "A#4",
            "ticks": 97536,
            "time": 134.867142,
            "velocity": 0.3937007874015748
          },
          {
            "duration": 0.1327432500000043,
            "durationTicks": 96,
            "midi": 61,
            "name": "C#4",
            "ticks": 97536,
            "time": 134.867142,
            "velocity": 0.3937007874015748
          },
          {
            "duration": 0.1327432500000043,
            "durationTicks": 96,
            "midi": 65,
            "name": "F4",
            "ticks": 97536,
            "time": 134.867142,
            "velocity": 0.3937007874015748
          },
          {
            "duration": 0.1327432500000043,
            "durationTicks": 96,
            "midi": 46,
            "name": "A#2",
            "ticks": 97632,
            "time": 134.99988525,
            "velocity": 0.29133858267716534
          },
          {
            "duration": 0.1327432499999759,
            "durationTicks": 96,
            "midi": 46,
            "name": "A#2",
            "ticks": 98592,
            "time": 136.32731775000002,
            "velocity": 0.14173228346456693
          },
          {
            "duration": 0.1327432500000043,
            "durationTicks": 96,
            "midi": 46,
            "name": "A#2",
            "ticks": 98688,
            "time": 136.460061,
            "velocity": 0.29133858267716534
          },
          {
            "duration": 0.1327432500000043,
            "durationTicks": 96,
            "midi": 46,
            "name": "A#2",
            "ticks": 98784,
            "time": 136.59280425,
            "velocity": 0.2204724409448819
          },
          {
            "duration": 0.1327432500000043,
            "durationTicks": 96,
            "midi": 49,
            "name": "C#3",
            "ticks": 98880,
            "time": 136.7255475,
            "velocity": 0.29133858267716534
          },
          {
            "duration": 0.1327432500000043,
            "durationTicks": 96,
            "midi": 51,
            "name": "D#3",
            "ticks": 98976,
            "time": 136.85829075,
            "velocity": 0.29133858267716534
          },
          {
            "duration": 0.1327432500000043,
            "durationTicks": 96,
            "midi": 54,
            "name": "F#3",
            "ticks": 111456,
            "time": 154.11491325,
            "velocity": 0.29133858267716534
          },
          {
            "duration": 0.1327432500000043,
            "durationTicks": 96,
            "midi": 44,
            "name": "G#2",
            "ticks": 111744,
            "time": 154.513143,
            "velocity": 0.3937007874015748
          },
          {
            "duration": 0.1327432500000043,
            "durationTicks": 96,
            "midi": 44,
            "name": "G#2",
            "ticks": 112032,
            "time": 154.91137275,
            "velocity": 0.3937007874015748
          },
          {
            "duration": 0.1327432500000043,
            "durationTicks": 96,
            "midi": 44,
            "name": "G#2",
            "ticks": 112224,
            "time": 155.17685925,
            "velocity": 0.3937007874015748
          },
          {
            "duration": 0.1327432499999759,
            "durationTicks": 96,
            "midi": 44,
            "name": "G#2",
            "ticks": 112512,
            "time": 155.57508900000002,
            "velocity": 0.3937007874015748
          },
          {
            "duration": 0.1327432500000043,
            "durationTicks": 96,
            "midi": 44,
            "name": "G#2",
            "ticks": 112800,
            "time": 155.97331875,
            "velocity": 0.3937007874015748
          },
          {
            "duration": 0.1327432500000043,
            "durationTicks": 96,
            "midi": 44,
            "name": "G#2",
            "ticks": 112992,
            "time": 156.23880525,
            "velocity": 0.3937007874015748
          },
          {
            "duration": 0.1327432500000043,
            "durationTicks": 96,
            "midi": 44,
            "name": "G#2",
            "ticks": 113280,
            "time": 156.637035,
            "velocity": 0.3937007874015748
          },
          {
            "duration": 0.1327432500000043,
            "durationTicks": 96,
            "midi": 44,
            "name": "G#2",
            "ticks": 113568,
            "time": 157.03526475,
            "velocity": 0.3937007874015748
          },
          {
            "duration": 0.1327432499999759,
            "durationTicks": 96,
            "midi": 44,
            "name": "G#2",
            "ticks": 113760,
            "time": 157.30075125000002,
            "velocity": 0.3937007874015748
          },
          {
            "duration": 0.1327432500000043,
            "durationTicks": 96,
            "midi": 44,
            "name": "G#2",
            "ticks": 114048,
            "time": 157.698981,
            "velocity": 0.3937007874015748
          },
          {
            "duration": 0.1327432500000043,
            "durationTicks": 96,
            "midi": 44,
            "name": "G#2",
            "ticks": 114336,
            "time": 158.09721075000002,
            "velocity": 0.3937007874015748
          },
          {
            "duration": 0.1327432500000043,
            "durationTicks": 96,
            "midi": 44,
            "name": "G#2",
            "ticks": 114528,
            "time": 158.36269725,
            "velocity": 0.3937007874015748
          },
          {
            "duration": 0.1327432500000043,
            "durationTicks": 96,
            "midi": 44,
            "name": "G#2",
            "ticks": 114816,
            "time": 158.760927,
            "velocity": 0.3937007874015748
          },
          {
            "duration": 0.1327432499999759,
            "durationTicks": 96,
            "midi": 44,
            "name": "G#2",
            "ticks": 115104,
            "time": 159.15915675000002,
            "velocity": 0.3937007874015748
          },
          {
            "duration": 0.1327432500000043,
            "durationTicks": 96,
            "midi": 44,
            "name": "G#2",
            "ticks": 115296,
            "time": 159.42464325,
            "velocity": 0.3937007874015748
          },
          {
            "duration": 0.1327432500000043,
            "durationTicks": 96,
            "midi": 44,
            "name": "G#2",
            "ticks": 115584,
            "time": 159.82287300000002,
            "velocity": 0.3937007874015748
          },
          {
            "duration": 0.1327432500000043,
            "durationTicks": 96,
            "midi": 44,
            "name": "G#2",
            "ticks": 115872,
            "time": 160.22110275,
            "velocity": 0.3937007874015748
          },
          {
            "duration": 0.1327432500000043,
            "durationTicks": 96,
            "midi": 44,
            "name": "G#2",
            "ticks": 116064,
            "time": 160.48658925,
            "velocity": 0.3937007874015748
          },
          {
            "duration": 0.1327432499999759,
            "durationTicks": 96,
            "midi": 44,
            "name": "G#2",
            "ticks": 116352,
            "time": 160.88481900000002,
            "velocity": 0.3937007874015748
          },
          {
            "duration": 0.1327432500000043,
            "durationTicks": 96,
            "midi": 44,
            "name": "G#2",
            "ticks": 116640,
            "time": 161.28304875,
            "velocity": 0.3937007874015748
          },
          {
            "duration": 0.1327432500000043,
            "durationTicks": 96,
            "midi": 44,
            "name": "G#2",
            "ticks": 116832,
            "time": 161.54853525000001,
            "velocity": 0.3937007874015748
          },
          {
            "duration": 0.1327432500000043,
            "durationTicks": 96,
            "midi": 56,
            "name": "G#3",
            "ticks": 117120,
            "time": 161.946765,
            "velocity": 0.29133858267716534
          },
          {
            "duration": 0.1327432500000043,
            "durationTicks": 96,
            "midi": 58,
            "name": "A#3",
            "ticks": 117312,
            "time": 162.2122515,
            "velocity": 0.29133858267716534
          },
          {
            "duration": 0.1327432500000043,
            "durationTicks": 96,
            "midi": 61,
            "name": "C#4",
            "ticks": 117408,
            "time": 162.34499475,
            "velocity": 0.29133858267716534
          },
          {
            "duration": 0.1327432499999759,
            "durationTicks": 96,
            "midi": 54,
            "name": "F#3",
            "ticks": 117600,
            "time": 162.61048125000002,
            "velocity": 0.29133858267716534
          },
          {
            "duration": 0.1327432500000043,
            "durationTicks": 96,
            "midi": 53,
            "name": "F3",
            "ticks": 117696,
            "time": 162.7432245,
            "velocity": 0.29133858267716534
          },
          {
            "duration": 0.1327432500000043,
            "durationTicks": 96,
            "midi": 61,
            "name": "C#4",
            "ticks": 123456,
            "time": 170.7078195,
            "velocity": 0.29133858267716534
          },
          {
            "duration": 0.1327432500000043,
            "durationTicks": 96,
            "midi": 61,
            "name": "C#4",
            "ticks": 123552,
            "time": 170.84056275,
            "velocity": 0.1968503937007874
          },
          {
            "duration": 0.1327432500000043,
            "durationTicks": 96,
            "midi": 54,
            "name": "F#3",
            "ticks": 123744,
            "time": 171.10604925,
            "velocity": 0.29133858267716534
          },
          {
            "duration": 0.1327432500000043,
            "durationTicks": 96,
            "midi": 56,
            "name": "G#3",
            "ticks": 129504,
            "time": 179.07064425000002,
            "velocity": 0.29133858267716534
          },
          {
            "duration": 0.1327432500000043,
            "durationTicks": 96,
            "midi": 61,
            "name": "C#4",
            "ticks": 129600,
            "time": 179.20338750000002,
            "velocity": 0.29133858267716534
          },
          {
            "duration": 0.1327432499999759,
            "durationTicks": 96,
            "midi": 61,
            "name": "C#4",
            "ticks": 129696,
            "time": 179.33613075000002,
            "velocity": 0.1968503937007874
          },
          {
            "duration": 0.1327432500000043,
            "durationTicks": 96,
            "midi": 54,
            "name": "F#3",
            "ticks": 129888,
            "time": 179.60161725,
            "velocity": 0.29133858267716534
          },
          {
            "duration": 0.1327432500000043,
            "durationTicks": 96,
            "midi": 61,
            "name": "C#4",
            "ticks": 135744,
            "time": 187.6989555,
            "velocity": 0.29133858267716534
          },
          {
            "duration": 0.1327432500000043,
            "durationTicks": 96,
            "midi": 61,
            "name": "C#4",
            "ticks": 135840,
            "time": 187.83169875000002,
            "velocity": 0.1968503937007874
          },
          {
            "duration": 0.1327432499999759,
            "durationTicks": 96,
            "midi": 54,
            "name": "F#3",
            "ticks": 136032,
            "time": 188.09718525000002,
            "velocity": 0.29133858267716534
          },
          {
            "duration": 0.1327432500000043,
            "durationTicks": 96,
            "midi": 56,
            "name": "G#3",
            "ticks": 141792,
            "time": 196.06178025,
            "velocity": 0.29133858267716534
          },
          {
            "duration": 0.1327432500000043,
            "durationTicks": 96,
            "midi": 61,
            "name": "C#4",
            "ticks": 141888,
            "time": 196.1945235,
            "velocity": 0.29133858267716534
          },
          {
            "duration": 0.1327432500000043,
            "durationTicks": 96,
            "midi": 61,
            "name": "C#4",
            "ticks": 141984,
            "time": 196.32726675,
            "velocity": 0.1968503937007874
          },
          {
            "duration": 0.1327432500000043,
            "durationTicks": 96,
            "midi": 54,
            "name": "F#3",
            "ticks": 142176,
            "time": 196.59275325000002,
            "velocity": 0.29133858267716534
          },
          {
            "duration": 0.1327432499999759,
            "durationTicks": 96,
            "midi": 61,
            "name": "C#4",
            "ticks": 148032,
            "time": 204.69009150000002,
            "velocity": 0.29133858267716534
          },
          {
            "duration": 0.1327432500000043,
            "durationTicks": 96,
            "midi": 61,
            "name": "C#4",
            "ticks": 148128,
            "time": 204.82283475,
            "velocity": 0.1968503937007874
          },
          {
            "duration": 0.1327432500000043,
            "durationTicks": 96,
            "midi": 54,
            "name": "F#3",
            "ticks": 148320,
            "time": 205.08832125,
            "velocity": 0.29133858267716534
          },
          {
            "duration": 0.1327432500000043,
            "durationTicks": 96,
            "midi": 56,
            "name": "G#3",
            "ticks": 154080,
            "time": 213.05291625,
            "velocity": 0.29133858267716534
          },
          {
            "duration": 0.1327432500000043,
            "durationTicks": 96,
            "midi": 61,
            "name": "C#4",
            "ticks": 154176,
            "time": 213.1856595,
            "velocity": 0.29133858267716534
          },
          {
            "duration": 0.1327432500000043,
            "durationTicks": 96,
            "midi": 61,
            "name": "C#4",
            "ticks": 154272,
            "time": 213.31840275000002,
            "velocity": 0.1968503937007874
          },
          {
            "duration": 0.1327432500000043,
            "durationTicks": 96,
            "midi": 54,
            "name": "F#3",
            "ticks": 154464,
            "time": 213.58388925,
            "velocity": 0.29133858267716534
          }
        ],
        "endOfTrackTicks": 154560
      },
      {
        "channel": 9,
        "controlChanges": {},
        "pitchBends": [],
        "instrument": {
          "family": "drums",
          "number": 0,
          "name": "standard kit"
        },
        "name": "Drum Kit",
        "notes": [
          {
            "duration": 0.13274325,
            "durationTicks": 96,
            "midi": 50,
            "name": "D3",
            "ticks": 0,
            "time": 0,
            "velocity": 0.7874015748031497
          },
          {
            "duration": 0.13274325,
            "durationTicks": 96,
            "midi": 50,
            "name": "D3",
            "ticks": 0,
            "time": 0,
            "velocity": 0.7874015748031497
          },
          {
            "duration": 0.13274325,
            "durationTicks": 96,
            "midi": 27,
            "name": "D#1",
            "ticks": 0,
            "time": 0,
            "velocity": 0.7874015748031497
          },
          {
            "duration": 0.13274325,
            "durationTicks": 96,
            "midi": 50,
            "name": "D3",
            "ticks": 96,
            "time": 0.13274325,
            "velocity": 0.7874015748031497
          },
          {
            "duration": 0.13274325,
            "durationTicks": 96,
            "midi": 27,
            "name": "D#1",
            "ticks": 96,
            "time": 0.13274325,
            "velocity": 0.7874015748031497
          },
          {
            "duration": 0.13274324999999998,
            "durationTicks": 96,
            "midi": 50,
            "name": "D3",
            "ticks": 288,
            "time": 0.39822975000000005,
            "velocity": 0.7874015748031497
          },
          {
            "duration": 0.13274324999999998,
            "durationTicks": 96,
            "midi": 27,
            "name": "D#1",
            "ticks": 288,
            "time": 0.39822975000000005,
            "velocity": 0.7874015748031497
          },
          {
            "duration": 0.13274324999999998,
            "durationTicks": 96,
            "midi": 27,
            "name": "D#1",
            "ticks": 384,
            "time": 0.530973,
            "velocity": 0.7874015748031497
          },
          {
            "duration": 0.13274324999999998,
            "durationTicks": 96,
            "midi": 48,
            "name": "C3",
            "ticks": 384,
            "time": 0.530973,
            "velocity": 0.7874015748031497
          },
          {
            "duration": 0.1327432500000001,
            "durationTicks": 96,
            "midi": 27,
            "name": "D#1",
            "ticks": 480,
            "time": 0.66371625,
            "velocity": 0.7874015748031497
          },
          {
            "duration": 0.1327432500000001,
            "durationTicks": 96,
            "midi": 48,
            "name": "C3",
            "ticks": 480,
            "time": 0.66371625,
            "velocity": 0.7874015748031497
          },
          {
            "duration": 0.13274324999999998,
            "durationTicks": 96,
            "midi": 27,
            "name": "D#1",
            "ticks": 672,
            "time": 0.9292027500000001,
            "velocity": 0.7874015748031497
          },
          {
            "duration": 0.13274324999999998,
            "durationTicks": 96,
            "midi": 48,
            "name": "C3",
            "ticks": 672,
            "time": 0.9292027500000001,
            "velocity": 0.7874015748031497
          },
          {
            "duration": 0.1327432500000001,
            "durationTicks": 96,
            "midi": 47,
            "name": "B2",
            "ticks": 768,
            "time": 1.061946,
            "velocity": 0.7874015748031497
          },
          {
            "duration": 0.1327432500000001,
            "durationTicks": 96,
            "midi": 27,
            "name": "D#1",
            "ticks": 768,
            "time": 1.061946,
            "velocity": 0.7874015748031497
          },
          {
            "duration": 0.13274324999999987,
            "durationTicks": 96,
            "midi": 47,
            "name": "B2",
            "ticks": 864,
            "time": 1.1946892500000001,
            "velocity": 0.7874015748031497
          },
          {
            "duration": 0.13274324999999987,
            "durationTicks": 96,
            "midi": 27,
            "name": "D#1",
            "ticks": 864,
            "time": 1.1946892500000001,
            "velocity": 0.7874015748031497
          }
        ],
        "endOfTrackTicks": 960
      },
      {
        "channel": 1,
        "controlChanges": {},
        "pitchBends": [],
        "instrument": {
          "family": "synth lead",
          "number": 80,
          "name": "lead 1 (square)"
        },
        "name": "Smooth Synth",
        "notes": [
          {
            "duration": 0.5309729999999995,
            "durationTicks": 384,
            "midi": 58,
            "name": "A#3",
            "ticks": 17856,
            "time": 24.690244500000002,
            "velocity": 0.3937007874015748
          },
          {
            "duration": 0.5309729999999995,
            "durationTicks": 384,
            "midi": 61,
            "name": "C#4",
            "ticks": 17856,
            "time": 24.690244500000002,
            "velocity": 0.3937007874015748
          },
          {
            "duration": 0.5309729999999995,
            "durationTicks": 384,
            "midi": 65,
            "name": "F4",
            "ticks": 17856,
            "time": 24.690244500000002,
            "velocity": 0.3937007874015748
          },
          {
            "duration": 1.1946892499999997,
            "durationTicks": 864,
            "midi": 63,
            "name": "D#4",
            "ticks": 18432,
            "time": 25.486704000000003,
            "velocity": 0.3937007874015748
          },
          {
            "duration": 1.1946892499999997,
            "durationTicks": 864,
            "midi": 56,
            "name": "G#3",
            "ticks": 18432,
            "time": 25.486704000000003,
            "velocity": 0.3937007874015748
          },
          {
            "duration": 1.1946892499999997,
            "durationTicks": 864,
            "midi": 60,
            "name": "C4",
            "ticks": 18432,
            "time": 25.486704000000003,
            "velocity": 0.3937007874015748
          },
          {
            "duration": 0.2654865000000015,
            "durationTicks": 192,
            "midi": 68,
            "name": "G#4",
            "ticks": 19008,
            "time": 26.2831635,
            "velocity": 0.3937007874015748
          },
          {
            "duration": 1.3274325000000005,
            "durationTicks": 960,
            "midi": 63,
            "name": "D#4",
            "ticks": 19200,
            "time": 26.548650000000002,
            "velocity": 0.3937007874015748
          },
          {
            "duration": 0.5309729999999959,
            "durationTicks": 384,
            "midi": 58,
            "name": "A#3",
            "ticks": 24000,
            "time": 33.185812500000004,
            "velocity": 0.3937007874015748
          },
          {
            "duration": 0.5309729999999959,
            "durationTicks": 384,
            "midi": 65,
            "name": "F4",
            "ticks": 24000,
            "time": 33.185812500000004,
            "velocity": 0.3937007874015748
          },
          {
            "duration": 0.5309729999999959,
            "durationTicks": 384,
            "midi": 61,
            "name": "C#4",
            "ticks": 24000,
            "time": 33.185812500000004,
            "velocity": 0.3937007874015748
          },
          {
            "duration": 1.1946892500000033,
            "durationTicks": 864,
            "midi": 56,
            "name": "G#3",
            "ticks": 24576,
            "time": 33.982272,
            "velocity": 0.3937007874015748
          },
          {
            "duration": 1.1946892500000033,
            "durationTicks": 864,
            "midi": 63,
            "name": "D#4",
            "ticks": 24576,
            "time": 33.982272,
            "velocity": 0.3937007874015748
          },
          {
            "duration": 1.1946892500000033,
            "durationTicks": 864,
            "midi": 60,
            "name": "C4",
            "ticks": 24576,
            "time": 33.982272,
            "velocity": 0.3937007874015748
          },
          {
            "duration": 1.8584054999999964,
            "durationTicks": 1344,
            "midi": 66,
            "name": "F#4",
            "ticks": 25536,
            "time": 35.3097045,
            "velocity": 0.29133858267716534
          },
          {
            "duration": 1.8584054999999964,
            "durationTicks": 1344,
            "midi": 63,
            "name": "D#4",
            "ticks": 25536,
            "time": 35.3097045,
            "velocity": 0.29133858267716534
          },
          {
            "duration": 1.8584054999999964,
            "durationTicks": 1344,
            "midi": 70,
            "name": "A#4",
            "ticks": 25536,
            "time": 35.3097045,
            "velocity": 0.29133858267716534
          },
          {
            "duration": 1.8584055000000035,
            "durationTicks": 1344,
            "midi": 60,
            "name": "C4",
            "ticks": 27072,
            "time": 37.4335965,
            "velocity": 0.29133858267716534
          },
          {
            "duration": 1.8584055000000035,
            "durationTicks": 1344,
            "midi": 68,
            "name": "G#4",
            "ticks": 27072,
            "time": 37.4335965,
            "velocity": 0.29133858267716534
          },
          {
            "duration": 1.8584055000000035,
            "durationTicks": 1344,
            "midi": 63,
            "name": "D#4",
            "ticks": 27072,
            "time": 37.4335965,
            "velocity": 0.29133858267716534
          },
          {
            "duration": 1.8584054999999964,
            "durationTicks": 1344,
            "midi": 70,
            "name": "A#4",
            "ticks": 28608,
            "time": 39.557488500000005,
            "velocity": 0.29133858267716534
          },
          {
            "duration": 1.8584054999999964,
            "durationTicks": 1344,
            "midi": 63,
            "name": "D#4",
            "ticks": 28608,
            "time": 39.557488500000005,
            "velocity": 0.29133858267716534
          },
          {
            "duration": 1.8584054999999964,
            "durationTicks": 1344,
            "midi": 66,
            "name": "F#4",
            "ticks": 28608,
            "time": 39.557488500000005,
            "velocity": 0.29133858267716534
          },
          {
            "duration": 0.1327432499999972,
            "durationTicks": 96,
            "midi": 70,
            "name": "A#4",
            "ticks": 30144,
            "time": 41.6813805,
            "velocity": 0.29133858267716534
          },
          {
            "duration": 0.1327432499999972,
            "durationTicks": 96,
            "midi": 63,
            "name": "D#4",
            "ticks": 30144,
            "time": 41.6813805,
            "velocity": 0.29133858267716534
          },
          {
            "duration": 0.1327432499999972,
            "durationTicks": 96,
            "midi": 66,
            "name": "F#4",
            "ticks": 30144,
            "time": 41.6813805,
            "velocity": 0.29133858267716534
          },
          {
            "duration": 0.1327432499999972,
            "durationTicks": 96,
            "midi": 66,
            "name": "F#4",
            "ticks": 30432,
            "time": 42.07961025,
            "velocity": 0.29133858267716534
          },
          {
            "duration": 0.1327432499999972,
            "durationTicks": 96,
            "midi": 63,
            "name": "D#4",
            "ticks": 30432,
            "time": 42.07961025,
            "velocity": 0.29133858267716534
          },
          {
            "duration": 0.1327432499999972,
            "durationTicks": 96,
            "midi": 70,
            "name": "A#4",
            "ticks": 30432,
            "time": 42.07961025,
            "velocity": 0.29133858267716534
          },
          {
            "duration": 0.530973000000003,
            "durationTicks": 384,
            "midi": 60,
            "name": "C4",
            "ticks": 30720,
            "time": 42.47784,
            "velocity": 0.29133858267716534
          },
          {
            "duration": 0.530973000000003,
            "durationTicks": 384,
            "midi": 68,
            "name": "G#4",
            "ticks": 30720,
            "time": 42.47784,
            "velocity": 0.29133858267716534
          },
          {
            "duration": 0.530973000000003,
            "durationTicks": 384,
            "midi": 63,
            "name": "D#4",
            "ticks": 30720,
            "time": 42.47784,
            "velocity": 0.29133858267716534
          },
          {
            "duration": 0.3982297500000058,
            "durationTicks": 288,
            "midi": 63,
            "name": "D#4",
            "ticks": 31488,
            "time": 43.539786,
            "velocity": 0.3937007874015748
          },
          {
            "duration": 1.061946000000006,
            "durationTicks": 768,
            "midi": 56,
            "name": "G#3",
            "ticks": 46848,
            "time": 64.778706,
            "velocity": 0.3937007874015748
          },
          {
            "duration": 0.530973000000003,
            "durationTicks": 384,
            "midi": 58,
            "name": "A#3",
            "ticks": 48576,
            "time": 67.1680845,
            "velocity": 0.3937007874015748
          },
          {
            "duration": 0.530973000000003,
            "durationTicks": 384,
            "midi": 61,
            "name": "C#4",
            "ticks": 48576,
            "time": 67.1680845,
            "velocity": 0.3937007874015748
          },
          {
            "duration": 0.530973000000003,
            "durationTicks": 384,
            "midi": 65,
            "name": "F4",
            "ticks": 48576,
            "time": 67.1680845,
            "velocity": 0.3937007874015748
          },
          {
            "duration": 1.1946892499999962,
            "durationTicks": 864,
            "midi": 56,
            "name": "G#3",
            "ticks": 49152,
            "time": 67.964544,
            "velocity": 0.3937007874015748
          },
          {
            "duration": 1.1946892499999962,
            "durationTicks": 864,
            "midi": 63,
            "name": "D#4",
            "ticks": 49152,
            "time": 67.964544,
            "velocity": 0.3937007874015748
          },
          {
            "duration": 1.1946892499999962,
            "durationTicks": 864,
            "midi": 60,
            "name": "C4",
            "ticks": 49152,
            "time": 67.964544,
            "velocity": 0.3937007874015748
          },
          {
            "duration": 0.3982297499999987,
            "durationTicks": 288,
            "midi": 63,
            "name": "D#4",
            "ticks": 49920,
            "time": 69.02649000000001,
            "velocity": 0.3937007874015748
          },
          {
            "duration": 0.1327432500000043,
            "durationTicks": 96,
            "midi": 65,
            "name": "F4",
            "ticks": 50304,
            "time": 69.557463,
            "velocity": 0.3937007874015748
          },
          {
            "duration": 0.2654864999999944,
            "durationTicks": 192,
            "midi": 63,
            "name": "D#4",
            "ticks": 50496,
            "time": 69.82294950000001,
            "velocity": 0.3937007874015748
          },
          {
            "duration": 0.2654865000000086,
            "durationTicks": 192,
            "midi": 61,
            "name": "C#4",
            "ticks": 50688,
            "time": 70.088436,
            "velocity": 0.3937007874015748
          },
          {
            "duration": 0.9292027500000017,
            "durationTicks": 672,
            "midi": 56,
            "name": "G#3",
            "ticks": 52992,
            "time": 73.274274,
            "velocity": 0.3937007874015748
          },
          {
            "duration": 0.530973000000003,
            "durationTicks": 384,
            "midi": 65,
            "name": "F4",
            "ticks": 54720,
            "time": 75.6636525,
            "velocity": 0.3937007874015748
          },
          {
            "duration": 0.530973000000003,
            "durationTicks": 384,
            "midi": 61,
            "name": "C#4",
            "ticks": 54720,
            "time": 75.6636525,
            "velocity": 0.3937007874015748
          },
          {
            "duration": 0.530973000000003,
            "durationTicks": 384,
            "midi": 58,
            "name": "A#3",
            "ticks": 54720,
            "time": 75.6636525,
            "velocity": 0.3937007874015748
          },
          {
            "duration": 1.1946892499999962,
            "durationTicks": 864,
            "midi": 56,
            "name": "G#3",
            "ticks": 55296,
            "time": 76.46011200000001,
            "velocity": 0.3937007874015748
          },
          {
            "duration": 1.1946892499999962,
            "durationTicks": 864,
            "midi": 63,
            "name": "D#4",
            "ticks": 55296,
            "time": 76.46011200000001,
            "velocity": 0.3937007874015748
          },
          {
            "duration": 1.1946892499999962,
            "durationTicks": 864,
            "midi": 60,
            "name": "C4",
            "ticks": 55296,
            "time": 76.46011200000001,
            "velocity": 0.3937007874015748
          },
          {
            "duration": 0.530973000000003,
            "durationTicks": 384,
            "midi": 65,
            "name": "F4",
            "ticks": 56064,
            "time": 77.522058,
            "velocity": 0.3937007874015748
          },
          {
            "duration": 1.8584054999999893,
            "durationTicks": 1344,
            "midi": 66,
            "name": "F#4",
            "ticks": 56256,
            "time": 77.78754450000001,
            "velocity": 0.29133858267716534
          },
          {
            "duration": 0.6637162499999931,
            "durationTicks": 480,
            "midi": 63,
            "name": "D#4",
            "ticks": 56256,
            "time": 77.78754450000001,
            "velocity": 0.29133858267716534
          },
          {
            "duration": 1.8584054999999893,
            "durationTicks": 1344,
            "midi": 70,
            "name": "A#4",
            "ticks": 56256,
            "time": 77.78754450000001,
            "velocity": 0.29133858267716534
          },
          {
            "duration": 1.5929189999999949,
            "durationTicks": 1152,
            "midi": 63,
            "name": "D#4",
            "ticks": 56448,
            "time": 78.053031,
            "velocity": 0.3937007874015748
          },
          {
            "duration": 1.8584055000000035,
            "durationTicks": 1344,
            "midi": 63,
            "name": "D#4",
            "ticks": 57792,
            "time": 79.91143650000001,
            "velocity": 0.29133858267716534
          },
          {
            "duration": 1.8584055000000035,
            "durationTicks": 1344,
            "midi": 60,
            "name": "C4",
            "ticks": 57792,
            "time": 79.91143650000001,
            "velocity": 0.29133858267716534
          },
          {
            "duration": 1.8584055000000035,
            "durationTicks": 1344,
            "midi": 68,
            "name": "G#4",
            "ticks": 57792,
            "time": 79.91143650000001,
            "velocity": 0.29133858267716534
          },
          {
            "duration": 1.8584055000000035,
            "durationTicks": 1344,
            "midi": 70,
            "name": "A#4",
            "ticks": 59328,
            "time": 82.0353285,
            "velocity": 0.29133858267716534
          },
          {
            "duration": 1.8584055000000035,
            "durationTicks": 1344,
            "midi": 63,
            "name": "D#4",
            "ticks": 59328,
            "time": 82.0353285,
            "velocity": 0.29133858267716534
          },
          {
            "duration": 1.8584055000000035,
            "durationTicks": 1344,
            "midi": 66,
            "name": "F#4",
            "ticks": 59328,
            "time": 82.0353285,
            "velocity": 0.29133858267716534
          },
          {
            "duration": 0.1327432500000043,
            "durationTicks": 96,
            "midi": 63,
            "name": "D#4",
            "ticks": 60864,
            "time": 84.1592205,
            "velocity": 0.29133858267716534
          },
          {
            "duration": 0.1327432500000043,
            "durationTicks": 96,
            "midi": 66,
            "name": "F#4",
            "ticks": 60864,
            "time": 84.1592205,
            "velocity": 0.29133858267716534
          },
          {
            "duration": 0.1327432500000043,
            "durationTicks": 96,
            "midi": 70,
            "name": "A#4",
            "ticks": 60864,
            "time": 84.1592205,
            "velocity": 0.29133858267716534
          },
          {
            "duration": 0.1327432500000043,
            "durationTicks": 96,
            "midi": 63,
            "name": "D#4",
            "ticks": 61152,
            "time": 84.55745025,
            "velocity": 0.29133858267716534
          },
          {
            "duration": 0.1327432500000043,
            "durationTicks": 96,
            "midi": 66,
            "name": "F#4",
            "ticks": 61152,
            "time": 84.55745025,
            "velocity": 0.29133858267716534
          },
          {
            "duration": 0.1327432500000043,
            "durationTicks": 96,
            "midi": 70,
            "name": "A#4",
            "ticks": 61152,
            "time": 84.55745025,
            "velocity": 0.29133858267716534
          },
          {
            "duration": 0.530973000000003,
            "durationTicks": 384,
            "midi": 63,
            "name": "D#4",
            "ticks": 61440,
            "time": 84.95568,
            "velocity": 0.29133858267716534
          },
          {
            "duration": 0.530973000000003,
            "durationTicks": 384,
            "midi": 60,
            "name": "C4",
            "ticks": 61440,
            "time": 84.95568,
            "velocity": 0.29133858267716534
          },
          {
            "duration": 0.530973000000003,
            "durationTicks": 384,
            "midi": 68,
            "name": "G#4",
            "ticks": 61440,
            "time": 84.95568,
            "velocity": 0.29133858267716534
          },
          {
            "duration": 1.061946000000006,
            "durationTicks": 768,
            "midi": 56,
            "name": "G#3",
            "ticks": 102144,
            "time": 141.238818,
            "velocity": 0.3937007874015748
          },
          {
            "duration": 0.5309730000000172,
            "durationTicks": 384,
            "midi": 61,
            "name": "C#4",
            "ticks": 103872,
            "time": 143.6281965,
            "velocity": 0.3937007874015748
          },
          {
            "duration": 0.5309730000000172,
            "durationTicks": 384,
            "midi": 58,
            "name": "A#3",
            "ticks": 103872,
            "time": 143.6281965,
            "velocity": 0.3937007874015748
          },
          {
            "duration": 0.5309730000000172,
            "durationTicks": 384,
            "midi": 65,
            "name": "F4",
            "ticks": 103872,
            "time": 143.6281965,
            "velocity": 0.3937007874015748
          },
          {
            "duration": 1.1946892500000104,
            "durationTicks": 864,
            "midi": 60,
            "name": "C4",
            "ticks": 104448,
            "time": 144.424656,
            "velocity": 0.3937007874015748
          },
          {
            "duration": 1.1946892500000104,
            "durationTicks": 864,
            "midi": 63,
            "name": "D#4",
            "ticks": 104448,
            "time": 144.424656,
            "velocity": 0.3937007874015748
          },
          {
            "duration": 1.1946892500000104,
            "durationTicks": 864,
            "midi": 56,
            "name": "G#3",
            "ticks": 104448,
            "time": 144.424656,
            "velocity": 0.3937007874015748
          },
          {
            "duration": 0.3982297500000129,
            "durationTicks": 288,
            "midi": 63,
            "name": "D#4",
            "ticks": 105216,
            "time": 145.486602,
            "velocity": 0.3937007874015748
          },
          {
            "duration": 0.1327432500000043,
            "durationTicks": 96,
            "midi": 65,
            "name": "F4",
            "ticks": 105600,
            "time": 146.017575,
            "velocity": 0.3937007874015748
          },
          {
            "duration": 0.2654865000000086,
            "durationTicks": 192,
            "midi": 63,
            "name": "D#4",
            "ticks": 105792,
            "time": 146.2830615,
            "velocity": 0.3937007874015748
          },
          {
            "duration": 0.2654865000000086,
            "durationTicks": 192,
            "midi": 61,
            "name": "C#4",
            "ticks": 105984,
            "time": 146.548548,
            "velocity": 0.3937007874015748
          },
          {
            "duration": 0.9292027500000017,
            "durationTicks": 672,
            "midi": 56,
            "name": "G#3",
            "ticks": 108288,
            "time": 149.734386,
            "velocity": 0.3937007874015748
          },
          {
            "duration": 0.5309729999999888,
            "durationTicks": 384,
            "midi": 58,
            "name": "A#3",
            "ticks": 110016,
            "time": 152.12376450000002,
            "velocity": 0.3937007874015748
          },
          {
            "duration": 0.5309729999999888,
            "durationTicks": 384,
            "midi": 65,
            "name": "F4",
            "ticks": 110016,
            "time": 152.12376450000002,
            "velocity": 0.3937007874015748
          },
          {
            "duration": 0.5309729999999888,
            "durationTicks": 384,
            "midi": 61,
            "name": "C#4",
            "ticks": 110016,
            "time": 152.12376450000002,
            "velocity": 0.3937007874015748
          },
          {
            "duration": 1.194689249999982,
            "durationTicks": 864,
            "midi": 56,
            "name": "G#3",
            "ticks": 110592,
            "time": 152.92022400000002,
            "velocity": 0.3937007874015748
          },
          {
            "duration": 1.194689249999982,
            "durationTicks": 864,
            "midi": 60,
            "name": "C4",
            "ticks": 110592,
            "time": 152.92022400000002,
            "velocity": 0.3937007874015748
          },
          {
            "duration": 1.194689249999982,
            "durationTicks": 864,
            "midi": 63,
            "name": "D#4",
            "ticks": 110592,
            "time": 152.92022400000002,
            "velocity": 0.3937007874015748
          },
          {
            "duration": 0.5309730000000172,
            "durationTicks": 384,
            "midi": 65,
            "name": "F4",
            "ticks": 111360,
            "time": 153.98217,
            "velocity": 0.3937007874015748
          },
          {
            "duration": 0.6637162499999931,
            "durationTicks": 480,
            "midi": 63,
            "name": "D#4",
            "ticks": 111552,
            "time": 154.2476565,
            "velocity": 0.29133858267716534
          },
          {
            "duration": 1.8584055000000035,
            "durationTicks": 1344,
            "midi": 70,
            "name": "A#4",
            "ticks": 111552,
            "time": 154.2476565,
            "velocity": 0.29133858267716534
          },
          {
            "duration": 1.8584055000000035,
            "durationTicks": 1344,
            "midi": 66,
            "name": "F#4",
            "ticks": 111552,
            "time": 154.2476565,
            "velocity": 0.29133858267716534
          },
          {
            "duration": 1.5929189999999949,
            "durationTicks": 1152,
            "midi": 63,
            "name": "D#4",
            "ticks": 111744,
            "time": 154.513143,
            "velocity": 0.3937007874015748
          },
          {
            "duration": 1.8584055000000035,
            "durationTicks": 1344,
            "midi": 60,
            "name": "C4",
            "ticks": 113088,
            "time": 156.37154850000002,
            "velocity": 0.29133858267716534
          },
          {
            "duration": 1.8584055000000035,
            "durationTicks": 1344,
            "midi": 68,
            "name": "G#4",
            "ticks": 113088,
            "time": 156.37154850000002,
            "velocity": 0.29133858267716534
          },
          {
            "duration": 1.8584055000000035,
            "durationTicks": 1344,
            "midi": 63,
            "name": "D#4",
            "ticks": 113088,
            "time": 156.37154850000002,
            "velocity": 0.29133858267716534
          },
          {
            "duration": 1.8584055000000035,
            "durationTicks": 1344,
            "midi": 63,
            "name": "D#4",
            "ticks": 114624,
            "time": 158.4954405,
            "velocity": 0.29133858267716534
          },
          {
            "duration": 1.8584055000000035,
            "durationTicks": 1344,
            "midi": 70,
            "name": "A#4",
            "ticks": 114624,
            "time": 158.4954405,
            "velocity": 0.29133858267716534
          },
          {
            "duration": 1.8584055000000035,
            "durationTicks": 1344,
            "midi": 66,
            "name": "F#4",
            "ticks": 114624,
            "time": 158.4954405,
            "velocity": 0.29133858267716534
          },
          {
            "duration": 0.1327432500000043,
            "durationTicks": 96,
            "midi": 70,
            "name": "A#4",
            "ticks": 116160,
            "time": 160.6193325,
            "velocity": 0.29133858267716534
          },
          {
            "duration": 0.1327432500000043,
            "durationTicks": 96,
            "midi": 63,
            "name": "D#4",
            "ticks": 116160,
            "time": 160.6193325,
            "velocity": 0.29133858267716534
          },
          {
            "duration": 0.1327432500000043,
            "durationTicks": 96,
            "midi": 66,
            "name": "F#4",
            "ticks": 116160,
            "time": 160.6193325,
            "velocity": 0.29133858267716534
          },
          {
            "duration": 0.1327432500000043,
            "durationTicks": 96,
            "midi": 63,
            "name": "D#4",
            "ticks": 116448,
            "time": 161.01756225,
            "velocity": 0.29133858267716534
          },
          {
            "duration": 0.1327432500000043,
            "durationTicks": 96,
            "midi": 66,
            "name": "F#4",
            "ticks": 116448,
            "time": 161.01756225,
            "velocity": 0.29133858267716534
          },
          {
            "duration": 0.1327432500000043,
            "durationTicks": 96,
            "midi": 70,
            "name": "A#4",
            "ticks": 116448,
            "time": 161.01756225,
            "velocity": 0.29133858267716534
          },
          {
            "duration": 0.5309729999999888,
            "durationTicks": 384,
            "midi": 63,
            "name": "D#4",
            "ticks": 116736,
            "time": 161.415792,
            "velocity": 0.29133858267716534
          },
          {
            "duration": 0.5309729999999888,
            "durationTicks": 384,
            "midi": 60,
            "name": "C4",
            "ticks": 116736,
            "time": 161.415792,
            "velocity": 0.29133858267716534
          },
          {
            "duration": 0.5309729999999888,
            "durationTicks": 384,
            "midi": 68,
            "name": "G#4",
            "ticks": 116736,
            "time": 161.415792,
            "velocity": 0.29133858267716534
          },
          {
            "duration": 0.3982297499999845,
            "durationTicks": 288,
            "midi": 63,
            "name": "D#4",
            "ticks": 117504,
            "time": 162.47773800000002,
            "velocity": 0.3937007874015748
          }
        ],
        "endOfTrackTicks": 117792
      },
      {
        "channel": 2,
        "controlChanges": {},
        "pitchBends": [],
        "instrument": {
          "family": "piano",
          "number": 3,
          "name": "honky-tonk piano"
        },
        "name": "Ragtime Piano",
        "notes": [
          {
            "duration": 0.2654865000000015,
            "durationTicks": 192,
            "midi": 58,
            "name": "A#3",
            "ticks": 13632,
            "time": 18.8495415,
            "velocity": 0.7874015748031497
          },
          {
            "duration": 0.1327432499999972,
            "durationTicks": 96,
            "midi": 60,
            "name": "C4",
            "ticks": 13824,
            "time": 19.115028000000002,
            "velocity": 0.7874015748031497
          },
          {
            "duration": 0.2654865000000015,
            "durationTicks": 192,
            "midi": 61,
            "name": "C#4",
            "ticks": 14016,
            "time": 19.3805145,
            "velocity": 0.7874015748031497
          },
          {
            "duration": 0.13274325000000076,
            "durationTicks": 96,
            "midi": 61,
            "name": "C#4",
            "ticks": 14208,
            "time": 19.646001000000002,
            "velocity": 0.7874015748031497
          },
          {
            "duration": 0.2654865000000015,
            "durationTicks": 192,
            "midi": 63,
            "name": "D#4",
            "ticks": 14400,
            "time": 19.9114875,
            "velocity": 0.7874015748031497
          },
          {
            "duration": 1.8584055,
            "durationTicks": 1344,
            "midi": 58,
            "name": "A#3",
            "ticks": 14592,
            "time": 20.176974,
            "velocity": 0.7874015748031497
          },
          {
            "duration": 0.26548649999999796,
            "durationTicks": 192,
            "midi": 58,
            "name": "A#3",
            "ticks": 16512,
            "time": 22.831839000000002,
            "velocity": 0.7874015748031497
          },
          {
            "duration": 0.2654865000000015,
            "durationTicks": 192,
            "midi": 58,
            "name": "A#3",
            "ticks": 16704,
            "time": 23.0973255,
            "velocity": 0.7874015748031497
          },
          {
            "duration": 0.26548649999999796,
            "durationTicks": 192,
            "midi": 60,
            "name": "C4",
            "ticks": 16896,
            "time": 23.362812,
            "velocity": 0.7874015748031497
          },
          {
            "duration": 0.2654865000000015,
            "durationTicks": 192,
            "midi": 61,
            "name": "C#4",
            "ticks": 17088,
            "time": 23.6282985,
            "velocity": 0.7874015748031497
          },
          {
            "duration": 0.2654865000000015,
            "durationTicks": 192,
            "midi": 58,
            "name": "A#3",
            "ticks": 17280,
            "time": 23.893785,
            "velocity": 0.7874015748031497
          },
          {
            "duration": 0.2654865000000015,
            "durationTicks": 192,
            "midi": 56,
            "name": "G#3",
            "ticks": 17664,
            "time": 24.424758,
            "velocity": 0.7874015748031497
          },
          {
            "duration": 0.26548649999999796,
            "durationTicks": 192,
            "midi": 68,
            "name": "G#4",
            "ticks": 17856,
            "time": 24.690244500000002,
            "velocity": 0.7874015748031497
          },
          {
            "duration": 0.2654865000000015,
            "durationTicks": 192,
            "midi": 68,
            "name": "G#4",
            "ticks": 18240,
            "time": 25.2212175,
            "velocity": 0.7874015748031497
          },
          {
            "duration": 1.327432499999997,
            "durationTicks": 960,
            "midi": 63,
            "name": "D#4",
            "ticks": 18432,
            "time": 25.486704000000003,
            "velocity": 0.7874015748031497
          },
          {
            "duration": 0.2654865000000015,
            "durationTicks": 192,
            "midi": 68,
            "name": "G#4",
            "ticks": 18624,
            "time": 25.7521905,
            "velocity": 0.7874015748031497
          },
          {
            "duration": 1.3274325000000005,
            "durationTicks": 960,
            "midi": 63,
            "name": "D#4",
            "ticks": 18816,
            "time": 26.017677000000003,
            "velocity": 0.7874015748031497
          },
          {
            "duration": 0.13274325000000076,
            "durationTicks": 96,
            "midi": 58,
            "name": "A#3",
            "ticks": 19584,
            "time": 27.079623,
            "velocity": 0.7874015748031497
          },
          {
            "duration": 0.26548649999999796,
            "durationTicks": 192,
            "midi": 58,
            "name": "A#3",
            "ticks": 19776,
            "time": 27.345109500000003,
            "velocity": 0.7874015748031497
          },
          {
            "duration": 0.2654865000000015,
            "durationTicks": 192,
            "midi": 60,
            "name": "C4",
            "ticks": 19968,
            "time": 27.610596,
            "velocity": 0.7874015748031497
          },
          {
            "duration": 0.1327432499999972,
            "durationTicks": 96,
            "midi": 61,
            "name": "C#4",
            "ticks": 20160,
            "time": 27.876082500000003,
            "velocity": 0.7874015748031497
          },
          {
            "duration": 0.13274325000000076,
            "durationTicks": 96,
            "midi": 58,
            "name": "A#3",
            "ticks": 20352,
            "time": 28.141569,
            "velocity": 0.7874015748031497
          },
          {
            "duration": 0.26548649999999796,
            "durationTicks": 192,
            "midi": 61,
            "name": "C#4",
            "ticks": 20544,
            "time": 28.407055500000002,
            "velocity": 0.7874015748031497
          },
          {
            "duration": 0.2654865000000015,
            "durationTicks": 192,
            "midi": 63,
            "name": "D#4",
            "ticks": 20736,
            "time": 28.672542,
            "velocity": 0.7874015748031497
          },
          {
            "duration": 0.26548649999999796,
            "durationTicks": 192,
            "midi": 60,
            "name": "C4",
            "ticks": 21120,
            "time": 29.203515000000003,
            "velocity": 0.7874015748031497
          },
          {
            "duration": 0.2654865000000015,
            "durationTicks": 192,
            "midi": 58,
            "name": "A#3",
            "ticks": 21312,
            "time": 29.4690015,
            "velocity": 0.7874015748031497
          },
          {
            "duration": 1.1946892499999997,
            "durationTicks": 864,
            "midi": 56,
            "name": "G#3",
            "ticks": 21504,
            "time": 29.734488000000002,
            "velocity": 0.7874015748031497
          },
          {
            "duration": 0.2654865000000015,
            "durationTicks": 192,
            "midi": 58,
            "name": "A#3",
            "ticks": 22656,
            "time": 31.327407,
            "velocity": 0.7874015748031497
          },
          {
            "duration": 0.26548649999999796,
            "durationTicks": 192,
            "midi": 58,
            "name": "A#3",
            "ticks": 22848,
            "time": 31.592893500000002,
            "velocity": 0.7874015748031497
          },
          {
            "duration": 0.26548649999999796,
            "durationTicks": 192,
            "midi": 60,
            "name": "C4",
            "ticks": 23040,
            "time": 31.85838,
            "velocity": 0.7874015748031497
          },
          {
            "duration": 0.1327432500000043,
            "durationTicks": 96,
            "midi": 61,
            "name": "C#4",
            "ticks": 23232,
            "time": 32.1238665,
            "velocity": 0.7874015748031497
          },
          {
            "duration": 0.2654865000000015,
            "durationTicks": 192,
            "midi": 58,
            "name": "A#3",
            "ticks": 23424,
            "time": 32.389353,
            "velocity": 0.7874015748031497
          },
          {
            "duration": 0.2654865000000015,
            "durationTicks": 192,
            "midi": 56,
            "name": "G#3",
            "ticks": 23616,
            "time": 32.6548395,
            "velocity": 0.7874015748031497
          },
          {
            "duration": 0.2654864999999944,
            "durationTicks": 192,
            "midi": 63,
            "name": "D#4",
            "ticks": 24000,
            "time": 33.185812500000004,
            "velocity": 0.7874015748031497
          },
          {
            "duration": 0.2654865000000015,
            "durationTicks": 192,
            "midi": 63,
            "name": "D#4",
            "ticks": 24192,
            "time": 33.451299,
            "velocity": 0.7874015748031497
          },
          {
            "duration": 0.2654865000000015,
            "durationTicks": 192,
            "midi": 63,
            "name": "D#4",
            "ticks": 24384,
            "time": 33.7167855,
            "velocity": 0.7874015748031497
          },
          {
            "duration": 0.2654865000000015,
            "durationTicks": 192,
            "midi": 65,
            "name": "F4",
            "ticks": 24576,
            "time": 33.982272,
            "velocity": 0.7874015748031497
          },
          {
            "duration": 0.5309729999999959,
            "durationTicks": 384,
            "midi": 63,
            "name": "D#4",
            "ticks": 24768,
            "time": 34.2477585,
            "velocity": 0.7874015748031497
          },
          {
            "duration": 1.3274325000000005,
            "durationTicks": 960,
            "midi": 61,
            "name": "C#4",
            "ticks": 25536,
            "time": 35.3097045,
            "velocity": 0.7874015748031497
          },
          {
            "duration": 0.1327432499999972,
            "durationTicks": 96,
            "midi": 63,
            "name": "D#4",
            "ticks": 26496,
            "time": 36.637137,
            "velocity": 0.7874015748031497
          },
          {
            "duration": 0.2654864999999944,
            "durationTicks": 192,
            "midi": 65,
            "name": "F4",
            "ticks": 26688,
            "time": 36.902623500000004,
            "velocity": 0.7874015748031497
          },
          {
            "duration": 0.1327432500000043,
            "durationTicks": 96,
            "midi": 61,
            "name": "C#4",
            "ticks": 26880,
            "time": 37.16811,
            "velocity": 0.7874015748031497
          },
          {
            "duration": 0.2654865000000015,
            "durationTicks": 192,
            "midi": 63,
            "name": "D#4",
            "ticks": 27072,
            "time": 37.4335965,
            "velocity": 0.7874015748031497
          },
          {
            "duration": 0.2654865000000015,
            "durationTicks": 192,
            "midi": 63,
            "name": "D#4",
            "ticks": 27264,
            "time": 37.699083,
            "velocity": 0.7874015748031497
          },
          {
            "duration": 0.2654865000000015,
            "durationTicks": 192,
            "midi": 63,
            "name": "D#4",
            "ticks": 27456,
            "time": 37.9645695,
            "velocity": 0.7874015748031497
          },
          {
            "duration": 0.2654864999999944,
            "durationTicks": 192,
            "midi": 65,
            "name": "F4",
            "ticks": 27648,
            "time": 38.230056000000005,
            "velocity": 0.7874015748031497
          },
          {
            "duration": 0.530973000000003,
            "durationTicks": 384,
            "midi": 63,
            "name": "D#4",
            "ticks": 27840,
            "time": 38.4955425,
            "velocity": 0.7874015748031497
          },
          {
            "duration": 0.6637162500000002,
            "durationTicks": 480,
            "midi": 56,
            "name": "G#3",
            "ticks": 28224,
            "time": 39.0265155,
            "velocity": 0.7874015748031497
          },
          {
            "duration": 0.2654865000000015,
            "durationTicks": 192,
            "midi": 58,
            "name": "A#3",
            "ticks": 29376,
            "time": 40.619434500000004,
            "velocity": 0.7874015748031497
          },
          {
            "duration": 0.2654864999999944,
            "durationTicks": 192,
            "midi": 60,
            "name": "C4",
            "ticks": 29568,
            "time": 40.884921000000006,
            "velocity": 0.7874015748031497
          },
          {
            "duration": 0.2654865000000015,
            "durationTicks": 192,
            "midi": 61,
            "name": "C#4",
            "ticks": 29760,
            "time": 41.1504075,
            "velocity": 0.7874015748031497
          },
          {
            "duration": 0.2654865000000015,
            "durationTicks": 192,
            "midi": 58,
            "name": "A#3",
            "ticks": 29952,
            "time": 41.415894,
            "velocity": 0.7874015748031497
          },
          {
            "duration": 0.2654864999999944,
            "durationTicks": 192,
            "midi": 63,
            "name": "D#4",
            "ticks": 30336,
            "time": 41.946867000000005,
            "velocity": 0.7874015748031497
          },
          {
            "duration": 0.1327432500000043,
            "durationTicks": 96,
            "midi": 65,
            "name": "F4",
            "ticks": 30528,
            "time": 42.2123535,
            "velocity": 0.7874015748031497
          },
          {
            "duration": 0.3982297499999987,
            "durationTicks": 288,
            "midi": 63,
            "name": "D#4",
            "ticks": 30720,
            "time": 42.47784,
            "velocity": 0.7874015748031497
          },
          {
            "duration": 0.3982297499999987,
            "durationTicks": 288,
            "midi": 63,
            "name": "D#4",
            "ticks": 31104,
            "time": 43.008813,
            "velocity": 0.7874015748031497
          },
          {
            "duration": 0.1327432499999972,
            "durationTicks": 96,
            "midi": 56,
            "name": "G#3",
            "ticks": 31296,
            "time": 43.274299500000005,
            "velocity": 0.7874015748031497
          },
          {
            "duration": 0.1327432499999972,
            "durationTicks": 96,
            "midi": 58,
            "name": "A#3",
            "ticks": 31392,
            "time": 43.40704275,
            "velocity": 0.7874015748031497
          },
          {
            "duration": 0.1327432500000043,
            "durationTicks": 96,
            "midi": 61,
            "name": "C#4",
            "ticks": 31488,
            "time": 43.539786,
            "velocity": 0.7874015748031497
          },
          {
            "duration": 0.1327432499999972,
            "durationTicks": 96,
            "midi": 58,
            "name": "A#3",
            "ticks": 31584,
            "time": 43.672529250000004,
            "velocity": 0.7874015748031497
          },
          {
            "duration": 0.2654865000000015,
            "durationTicks": 192,
            "midi": 65,
            "name": "F4",
            "ticks": 31680,
            "time": 43.8052725,
            "velocity": 0.7874015748031497
          },
          {
            "duration": 0.3982297500000058,
            "durationTicks": 288,
            "midi": 65,
            "name": "F4",
            "ticks": 31968,
            "time": 44.20350225,
            "velocity": 0.7874015748031497
          },
          {
            "duration": 0.5309729999999959,
            "durationTicks": 384,
            "midi": 63,
            "name": "D#4",
            "ticks": 32256,
            "time": 44.601732000000005,
            "velocity": 0.7874015748031497
          },
          {
            "duration": 0.1327432499999972,
            "durationTicks": 96,
            "midi": 56,
            "name": "G#3",
            "ticks": 32832,
            "time": 45.3981915,
            "velocity": 0.7874015748031497
          },
          {
            "duration": 0.1327432500000043,
            "durationTicks": 96,
            "midi": 58,
            "name": "A#3",
            "ticks": 32928,
            "time": 45.53093475,
            "velocity": 0.7874015748031497
          },
          {
            "duration": 0.1327432499999972,
            "durationTicks": 96,
            "midi": 60,
            "name": "C4",
            "ticks": 33024,
            "time": 45.663678000000004,
            "velocity": 0.7874015748031497
          },
          {
            "duration": 0.1327432500000043,
            "durationTicks": 96,
            "midi": 58,
            "name": "A#3",
            "ticks": 33120,
            "time": 45.79642125,
            "velocity": 0.7874015748031497
          },
          {
            "duration": 0.2654864999999944,
            "durationTicks": 192,
            "midi": 63,
            "name": "D#4",
            "ticks": 33216,
            "time": 45.929164500000006,
            "velocity": 0.7874015748031497
          },
          {
            "duration": 0.3982297499999987,
            "durationTicks": 288,
            "midi": 63,
            "name": "D#4",
            "ticks": 33504,
            "time": 46.327394250000005,
            "velocity": 0.7874015748031497
          },
          {
            "duration": 0.5309729999999959,
            "durationTicks": 384,
            "midi": 61,
            "name": "C#4",
            "ticks": 33792,
            "time": 46.725624,
            "velocity": 0.7874015748031497
          },
          {
            "duration": 0.1327432500000043,
            "durationTicks": 96,
            "midi": 56,
            "name": "G#3",
            "ticks": 34368,
            "time": 47.5220835,
            "velocity": 0.7874015748031497
          },
          {
            "duration": 0.1327432499999972,
            "durationTicks": 96,
            "midi": 58,
            "name": "A#3",
            "ticks": 34464,
            "time": 47.654826750000005,
            "velocity": 0.7874015748031497
          },
          {
            "duration": 0.1327432499999972,
            "durationTicks": 96,
            "midi": 61,
            "name": "C#4",
            "ticks": 34560,
            "time": 47.78757,
            "velocity": 0.7874015748031497
          },
          {
            "duration": 0.1327432500000043,
            "durationTicks": 96,
            "midi": 58,
            "name": "A#3",
            "ticks": 34656,
            "time": 47.92031325,
            "velocity": 0.7874015748031497
          },
          {
            "duration": 0.5309729999999959,
            "durationTicks": 384,
            "midi": 61,
            "name": "C#4",
            "ticks": 34752,
            "time": 48.053056500000004,
            "velocity": 0.7874015748031497
          },
          {
            "duration": 0.2654865000000015,
            "durationTicks": 192,
            "midi": 63,
            "name": "D#4",
            "ticks": 35136,
            "time": 48.5840295,
            "velocity": 0.7874015748031497
          },
          {
            "duration": 0.530973000000003,
            "durationTicks": 384,
            "midi": 58,
            "name": "A#3",
            "ticks": 35328,
            "time": 48.849516,
            "velocity": 0.7874015748031497
          },
          {
            "duration": 0.2654865000000015,
            "durationTicks": 192,
            "midi": 56,
            "name": "G#3",
            "ticks": 35712,
            "time": 49.380489000000004,
            "velocity": 0.7874015748031497
          },
          {
            "duration": 0.2654865000000015,
            "durationTicks": 192,
            "midi": 56,
            "name": "G#3",
            "ticks": 36096,
            "time": 49.911462,
            "velocity": 0.7874015748031497
          },
          {
            "duration": 0.2654865000000015,
            "durationTicks": 192,
            "midi": 63,
            "name": "D#4",
            "ticks": 36288,
            "time": 50.1769485,
            "velocity": 0.7874015748031497
          },
          {
            "duration": 0.5309729999999959,
            "durationTicks": 384,
            "midi": 61,
            "name": "C#4",
            "ticks": 36672,
            "time": 50.707921500000005,
            "velocity": 0.7874015748031497
          },
          {
            "duration": 0.1327432499999972,
            "durationTicks": 96,
            "midi": 56,
            "name": "G#3",
            "ticks": 37440,
            "time": 51.769867500000004,
            "velocity": 0.7874015748031497
          },
          {
            "duration": 0.1327432500000043,
            "durationTicks": 96,
            "midi": 58,
            "name": "A#3",
            "ticks": 37536,
            "time": 51.90261075,
            "velocity": 0.7874015748031497
          },
          {
            "duration": 0.1327432499999972,
            "durationTicks": 96,
            "midi": 61,
            "name": "C#4",
            "ticks": 37632,
            "time": 52.035354000000005,
            "velocity": 0.7874015748031497
          },
          {
            "duration": 0.1327432499999972,
            "durationTicks": 96,
            "midi": 58,
            "name": "A#3",
            "ticks": 37728,
            "time": 52.16809725,
            "velocity": 0.7874015748031497
          },
          {
            "duration": 0.2654865000000015,
            "durationTicks": 192,
            "midi": 65,
            "name": "F4",
            "ticks": 37824,
            "time": 52.3008405,
            "velocity": 0.7874015748031497
          },
          {
            "duration": 0.2654864999999944,
            "durationTicks": 192,
            "midi": 65,
            "name": "F4",
            "ticks": 38112,
            "time": 52.699070250000005,
            "velocity": 0.7874015748031497
          },
          {
            "duration": 0.5309729999999959,
            "durationTicks": 384,
            "midi": 63,
            "name": "D#4",
            "ticks": 38400,
            "time": 53.097300000000004,
            "velocity": 0.7874015748031497
          },
          {
            "duration": 0.1327432500000043,
            "durationTicks": 96,
            "midi": 56,
            "name": "G#3",
            "ticks": 38976,
            "time": 53.8937595,
            "velocity": 0.7874015748031497
          },
          {
            "duration": 0.1327432499999972,
            "durationTicks": 96,
            "midi": 58,
            "name": "A#3",
            "ticks": 39072,
            "time": 54.026502750000006,
            "velocity": 0.7874015748031497
          },
          {
            "duration": 0.1327432499999972,
            "durationTicks": 96,
            "midi": 60,
            "name": "C4",
            "ticks": 39168,
            "time": 54.159246,
            "velocity": 0.7874015748031497
          },
          {
            "duration": 0.1327432500000043,
            "durationTicks": 96,
            "midi": 58,
            "name": "A#3",
            "ticks": 39264,
            "time": 54.29198925,
            "velocity": 0.7874015748031497
          },
          {
            "duration": 0.5309729999999959,
            "durationTicks": 384,
            "midi": 68,
            "name": "G#4",
            "ticks": 39360,
            "time": 54.424732500000005,
            "velocity": 0.7874015748031497
          },
          {
            "duration": 0.2654865000000015,
            "durationTicks": 192,
            "midi": 60,
            "name": "C4",
            "ticks": 39744,
            "time": 54.9557055,
            "velocity": 0.7874015748031497
          },
          {
            "duration": 0.6637162500000002,
            "durationTicks": 480,
            "midi": 61,
            "name": "C#4",
            "ticks": 39936,
            "time": 55.221192,
            "velocity": 0.7874015748031497
          },
          {
            "duration": 0.1327432500000043,
            "durationTicks": 96,
            "midi": 56,
            "name": "G#3",
            "ticks": 40512,
            "time": 56.0176515,
            "velocity": 0.7874015748031497
          },
          {
            "duration": 0.1327432499999972,
            "durationTicks": 96,
            "midi": 58,
            "name": "A#3",
            "ticks": 40608,
            "time": 56.150394750000004,
            "velocity": 0.7874015748031497
          },
          {
            "duration": 0.1327432500000043,
            "durationTicks": 96,
            "midi": 61,
            "name": "C#4",
            "ticks": 40704,
            "time": 56.283138,
            "velocity": 0.7874015748031497
          },
          {
            "duration": 0.1327432499999972,
            "durationTicks": 96,
            "midi": 58,
            "name": "A#3",
            "ticks": 40800,
            "time": 56.415881250000005,
            "velocity": 0.7874015748031497
          },
          {
            "duration": 0.530973000000003,
            "durationTicks": 384,
            "midi": 61,
            "name": "C#4",
            "ticks": 40896,
            "time": 56.5486245,
            "velocity": 0.7874015748031497
          },
          {
            "duration": 0.2654864999999944,
            "durationTicks": 192,
            "midi": 63,
            "name": "D#4",
            "ticks": 41280,
            "time": 57.079597500000006,
            "velocity": 0.7874015748031497
          },
          {
            "duration": 0.7964595000000045,
            "durationTicks": 576,
            "midi": 58,
            "name": "A#3",
            "ticks": 41472,
            "time": 57.345084,
            "velocity": 0.7874015748031497
          },
          {
            "duration": 0.2654864999999944,
            "durationTicks": 192,
            "midi": 56,
            "name": "G#3",
            "ticks": 42240,
            "time": 58.407030000000006,
            "velocity": 0.7874015748031497
          },
          {
            "duration": 0.530973000000003,
            "durationTicks": 384,
            "midi": 61,
            "name": "C#4",
            "ticks": 42432,
            "time": 58.6725165,
            "velocity": 0.7874015748031497
          },
          {
            "duration": 0.530973000000003,
            "durationTicks": 384,
            "midi": 61,
            "name": "C#4",
            "ticks": 42816,
            "time": 59.2034895,
            "velocity": 0.7874015748031497
          },
          {
            "duration": 0.2654865000000015,
            "durationTicks": 192,
            "midi": 60,
            "name": "C4",
            "ticks": 44160,
            "time": 61.061895,
            "velocity": 0.7874015748031497
          },
          {
            "duration": 0.2654865000000015,
            "durationTicks": 192,
            "midi": 61,
            "name": "C#4",
            "ticks": 44352,
            "time": 61.3273815,
            "velocity": 0.7874015748031497
          },
          {
            "duration": 0.1327432499999972,
            "durationTicks": 96,
            "midi": 58,
            "name": "A#3",
            "ticks": 44544,
            "time": 61.592868,
            "velocity": 0.7874015748031497
          },
          {
            "duration": 0.2654865000000015,
            "durationTicks": 192,
            "midi": 61,
            "name": "C#4",
            "ticks": 44736,
            "time": 61.858354500000004,
            "velocity": 0.7874015748031497
          },
          {
            "duration": 0.3982297499999987,
            "durationTicks": 288,
            "midi": 63,
            "name": "D#4",
            "ticks": 44928,
            "time": 62.123841000000006,
            "velocity": 0.7874015748031497
          },
          {
            "duration": 0.1327432499999972,
            "durationTicks": 96,
            "midi": 60,
            "name": "C4",
            "ticks": 45696,
            "time": 63.185787000000005,
            "velocity": 0.7874015748031497
          },
          {
            "duration": 0.2654864999999944,
            "durationTicks": 192,
            "midi": 58,
            "name": "A#3",
            "ticks": 45888,
            "time": 63.451273500000006,
            "velocity": 0.7874015748031497
          },
          {
            "duration": 1.061945999999999,
            "durationTicks": 768,
            "midi": 56,
            "name": "G#3",
            "ticks": 46080,
            "time": 63.71676,
            "velocity": 0.7874015748031497
          },
          {
            "duration": 1.061946000000006,
            "durationTicks": 768,
            "midi": 56,
            "name": "G#3",
            "ticks": 46464,
            "time": 64.247733,
            "velocity": 0.7874015748031497
          },
          {
            "duration": 0.2654864999999944,
            "durationTicks": 192,
            "midi": 58,
            "name": "A#3",
            "ticks": 47232,
            "time": 65.309679,
            "velocity": 0.7874015748031497
          },
          {
            "duration": 0.1327432500000043,
            "durationTicks": 96,
            "midi": 58,
            "name": "A#3",
            "ticks": 47424,
            "time": 65.5751655,
            "velocity": 0.7874015748031497
          },
          {
            "duration": 0.2654864999999944,
            "durationTicks": 192,
            "midi": 60,
            "name": "C4",
            "ticks": 47616,
            "time": 65.840652,
            "velocity": 0.7874015748031497
          },
          {
            "duration": 0.1327432500000043,
            "durationTicks": 96,
            "midi": 61,
            "name": "C#4",
            "ticks": 47808,
            "time": 66.1061385,
            "velocity": 0.7874015748031497
          },
          {
            "duration": 0.2654864999999944,
            "durationTicks": 192,
            "midi": 58,
            "name": "A#3",
            "ticks": 48000,
            "time": 66.37162500000001,
            "velocity": 0.7874015748031497
          },
          {
            "duration": 0.3982297499999987,
            "durationTicks": 288,
            "midi": 56,
            "name": "G#3",
            "ticks": 48192,
            "time": 66.6371115,
            "velocity": 0.7874015748031497
          },
          {
            "duration": 0.2654865000000086,
            "durationTicks": 192,
            "midi": 68,
            "name": "G#4",
            "ticks": 48768,
            "time": 67.433571,
            "velocity": 0.7874015748031497
          },
          {
            "duration": 0.1327432499999901,
            "durationTicks": 96,
            "midi": 68,
            "name": "G#4",
            "ticks": 48960,
            "time": 67.69905750000001,
            "velocity": 0.7874015748031497
          },
          {
            "duration": 0.3982297499999987,
            "durationTicks": 288,
            "midi": 63,
            "name": "D#4",
            "ticks": 49152,
            "time": 67.964544,
            "velocity": 0.7874015748031497
          },
          {
            "duration": 0.3982297499999987,
            "durationTicks": 288,
            "midi": 63,
            "name": "D#4",
            "ticks": 49536,
            "time": 68.495517,
            "velocity": 0.7874015748031497
          },
          {
            "duration": 0.1327432499999901,
            "durationTicks": 96,
            "midi": 65,
            "name": "F4",
            "ticks": 49536,
            "time": 68.495517,
            "velocity": 0.7874015748031497
          },
          {
            "duration": 0.2654865000000086,
            "durationTicks": 192,
            "midi": 63,
            "name": "D#4",
            "ticks": 49728,
            "time": 68.7610035,
            "velocity": 0.7874015748031497
          },
          {
            "duration": 0.2654864999999944,
            "durationTicks": 192,
            "midi": 61,
            "name": "C#4",
            "ticks": 49920,
            "time": 69.02649000000001,
            "velocity": 0.7874015748031497
          },
          {
            "duration": 0.1327432499999901,
            "durationTicks": 96,
            "midi": 65,
            "name": "F4",
            "ticks": 49920,
            "time": 69.02649000000001,
            "velocity": 0.7874015748031497
          },
          {
            "duration": 0.2654864999999944,
            "durationTicks": 192,
            "midi": 63,
            "name": "D#4",
            "ticks": 50112,
            "time": 69.2919765,
            "velocity": 0.7874015748031497
          },
          {
            "duration": 0.1327432500000043,
            "durationTicks": 96,
            "midi": 60,
            "name": "C4",
            "ticks": 50304,
            "time": 69.557463,
            "velocity": 0.7874015748031497
          },
          {
            "duration": 0.2654865000000086,
            "durationTicks": 192,
            "midi": 61,
            "name": "C#4",
            "ticks": 50304,
            "time": 69.557463,
            "velocity": 0.7874015748031497
          },
          {
            "duration": 0.2654864999999944,
            "durationTicks": 192,
            "midi": 61,
            "name": "C#4",
            "ticks": 50496,
            "time": 69.82294950000001,
            "velocity": 0.7874015748031497
          },
          {
            "duration": 0.1327432500000043,
            "durationTicks": 96,
            "midi": 58,
            "name": "A#3",
            "ticks": 50688,
            "time": 70.088436,
            "velocity": 0.7874015748031497
          },
          {
            "duration": 0.1327432499999901,
            "durationTicks": 96,
            "midi": 61,
            "name": "C#4",
            "ticks": 50880,
            "time": 70.35392250000001,
            "velocity": 0.7874015748031497
          },
          {
            "duration": 0.2654864999999944,
            "durationTicks": 192,
            "midi": 58,
            "name": "A#3",
            "ticks": 51072,
            "time": 70.619409,
            "velocity": 0.7874015748031497
          },
          {
            "duration": 0.1327432500000043,
            "durationTicks": 96,
            "midi": 61,
            "name": "C#4",
            "ticks": 51264,
            "time": 70.8848955,
            "velocity": 0.7874015748031497
          },
          {
            "duration": 0.1327432499999901,
            "durationTicks": 96,
            "midi": 63,
            "name": "D#4",
            "ticks": 51456,
            "time": 71.15038200000001,
            "velocity": 0.7874015748031497
          },
          {
            "duration": 0.2654864999999944,
            "durationTicks": 192,
            "midi": 60,
            "name": "C4",
            "ticks": 51840,
            "time": 71.68135500000001,
            "velocity": 0.7874015748031497
          },
          {
            "duration": 0.2654864999999944,
            "durationTicks": 192,
            "midi": 58,
            "name": "A#3",
            "ticks": 52032,
            "time": 71.9468415,
            "velocity": 0.7874015748031497
          },
          {
            "duration": 0.9292027500000017,
            "durationTicks": 672,
            "midi": 56,
            "name": "G#3",
            "ticks": 52224,
            "time": 72.212328,
            "velocity": 0.7874015748031497
          },
          {
            "duration": 0.9292027500000017,
            "durationTicks": 672,
            "midi": 56,
            "name": "G#3",
            "ticks": 52608,
            "time": 72.743301,
            "velocity": 0.7874015748031497
          },
          {
            "duration": 0.2654864999999944,
            "durationTicks": 192,
            "midi": 58,
            "name": "A#3",
            "ticks": 53376,
            "time": 73.80524700000001,
            "velocity": 0.7874015748031497
          },
          {
            "duration": 0.2654864999999944,
            "durationTicks": 192,
            "midi": 58,
            "name": "A#3",
            "ticks": 53568,
            "time": 74.0707335,
            "velocity": 0.7874015748031497
          },
          {
            "duration": 0.1327432500000043,
            "durationTicks": 96,
            "midi": 60,
            "name": "C4",
            "ticks": 53760,
            "time": 74.33622,
            "velocity": 0.7874015748031497
          },
          {
            "duration": 0.2654864999999944,
            "durationTicks": 192,
            "midi": 61,
            "name": "C#4",
            "ticks": 53952,
            "time": 74.6017065,
            "velocity": 0.7874015748031497
          },
          {
            "duration": 0.2654865000000086,
            "durationTicks": 192,
            "midi": 58,
            "name": "A#3",
            "ticks": 54144,
            "time": 74.867193,
            "velocity": 0.7874015748031497
          },
          {
            "duration": 0.3982297499999987,
            "durationTicks": 288,
            "midi": 56,
            "name": "G#3",
            "ticks": 54336,
            "time": 75.13267950000001,
            "velocity": 0.7874015748031497
          },
          {
            "duration": 0.2654864999999944,
            "durationTicks": 192,
            "midi": 63,
            "name": "D#4",
            "ticks": 54912,
            "time": 75.929139,
            "velocity": 0.7874015748031497
          },
          {
            "duration": 0.1327432500000043,
            "durationTicks": 96,
            "midi": 65,
            "name": "F4",
            "ticks": 55104,
            "time": 76.1946255,
            "velocity": 0.7874015748031497
          },
          {
            "duration": 0.5309729999999888,
            "durationTicks": 384,
            "midi": 65,
            "name": "F4",
            "ticks": 55296,
            "time": 76.46011200000001,
            "velocity": 0.7874015748031497
          },
          {
            "duration": 0.530973000000003,
            "durationTicks": 384,
            "midi": 65,
            "name": "F4",
            "ticks": 55680,
            "time": 76.991085,
            "velocity": 0.7874015748031497
          },
          {
            "duration": 0.3982297500000129,
            "durationTicks": 288,
            "midi": 63,
            "name": "D#4",
            "ticks": 55680,
            "time": 76.991085,
            "velocity": 0.7874015748031497
          },
          {
            "duration": 0.3982297499999987,
            "durationTicks": 288,
            "midi": 63,
            "name": "D#4",
            "ticks": 56064,
            "time": 77.522058,
            "velocity": 0.7874015748031497
          },
          {
            "duration": 1.3274325000000005,
            "durationTicks": 960,
            "midi": 61,
            "name": "C#4",
            "ticks": 56256,
            "time": 77.78754450000001,
            "velocity": 0.7874015748031497
          },
          {
            "duration": 0.1327432499999901,
            "durationTicks": 96,
            "midi": 63,
            "name": "D#4",
            "ticks": 57216,
            "time": 79.11497700000001,
            "velocity": 0.7874015748031497
          },
          {
            "duration": 0.2654864999999944,
            "durationTicks": 192,
            "midi": 65,
            "name": "F4",
            "ticks": 57408,
            "time": 79.3804635,
            "velocity": 0.7874015748031497
          },
          {
            "duration": 0.3982297499999987,
            "durationTicks": 288,
            "midi": 63,
            "name": "D#4",
            "ticks": 57600,
            "time": 79.64595,
            "velocity": 0.7874015748031497
          },
          {
            "duration": 0.2654865000000086,
            "durationTicks": 192,
            "midi": 63,
            "name": "D#4",
            "ticks": 57984,
            "time": 80.176923,
            "velocity": 0.7874015748031497
          },
          {
            "duration": 0.2654864999999944,
            "durationTicks": 192,
            "midi": 63,
            "name": "D#4",
            "ticks": 58176,
            "time": 80.44240950000001,
            "velocity": 0.7874015748031497
          },
          {
            "duration": 0.1327432500000043,
            "durationTicks": 96,
            "midi": 65,
            "name": "F4",
            "ticks": 58368,
            "time": 80.707896,
            "velocity": 0.7874015748031497
          },
          {
            "duration": 0.530973000000003,
            "durationTicks": 384,
            "midi": 63,
            "name": "D#4",
            "ticks": 58560,
            "time": 80.9733825,
            "velocity": 0.7874015748031497
          },
          {
            "duration": 0.9292027500000017,
            "durationTicks": 672,
            "midi": 56,
            "name": "G#3",
            "ticks": 58944,
            "time": 81.5043555,
            "velocity": 0.7874015748031497
          },
          {
            "duration": 0.1327432500000043,
            "durationTicks": 96,
            "midi": 56,
            "name": "G#3",
            "ticks": 59904,
            "time": 82.831788,
            "velocity": 0.7874015748031497
          },
          {
            "duration": 0.2654865000000086,
            "durationTicks": 192,
            "midi": 58,
            "name": "A#3",
            "ticks": 60096,
            "time": 83.0972745,
            "velocity": 0.7874015748031497
          },
          {
            "duration": 0.2654864999999944,
            "durationTicks": 192,
            "midi": 60,
            "name": "C4",
            "ticks": 60288,
            "time": 83.362761,
            "velocity": 0.7874015748031497
          },
          {
            "duration": 0.2654865000000086,
            "durationTicks": 192,
            "midi": 61,
            "name": "C#4",
            "ticks": 60480,
            "time": 83.6282475,
            "velocity": 0.7874015748031497
          },
          {
            "duration": 0.2654864999999944,
            "durationTicks": 192,
            "midi": 58,
            "name": "A#3",
            "ticks": 60672,
            "time": 83.89373400000001,
            "velocity": 0.7874015748031497
          },
          {
            "duration": 0.2654865000000086,
            "durationTicks": 192,
            "midi": 63,
            "name": "D#4",
            "ticks": 61056,
            "time": 84.424707,
            "velocity": 0.7874015748031497
          },
          {
            "duration": 0.2654864999999944,
            "durationTicks": 192,
            "midi": 65,
            "name": "F4",
            "ticks": 61248,
            "time": 84.6901935,
            "velocity": 0.7874015748031497
          },
          {
            "duration": 0.3982297499999987,
            "durationTicks": 288,
            "midi": 63,
            "name": "D#4",
            "ticks": 61440,
            "time": 84.95568,
            "velocity": 0.7874015748031497
          },
          {
            "duration": 0.1327432500000043,
            "durationTicks": 96,
            "midi": 56,
            "name": "G#3",
            "ticks": 62016,
            "time": 85.7521395,
            "velocity": 0.7874015748031497
          },
          {
            "duration": 0.1327432500000043,
            "durationTicks": 96,
            "midi": 58,
            "name": "A#3",
            "ticks": 62112,
            "time": 85.88488275,
            "velocity": 0.7874015748031497
          },
          {
            "duration": 0.1327432500000043,
            "durationTicks": 96,
            "midi": 61,
            "name": "C#4",
            "ticks": 62208,
            "time": 86.017626,
            "velocity": 0.7874015748031497
          },
          {
            "duration": 0.1327432499999901,
            "durationTicks": 96,
            "midi": 58,
            "name": "A#3",
            "ticks": 62304,
            "time": 86.15036925000001,
            "velocity": 0.7874015748031497
          },
          {
            "duration": 0.2654865000000086,
            "durationTicks": 192,
            "midi": 65,
            "name": "F4",
            "ticks": 62400,
            "time": 86.2831125,
            "velocity": 0.7874015748031497
          },
          {
            "duration": 0.3982297499999987,
            "durationTicks": 288,
            "midi": 65,
            "name": "F4",
            "ticks": 62688,
            "time": 86.68134225,
            "velocity": 0.7874015748031497
          },
          {
            "duration": 0.530973000000003,
            "durationTicks": 384,
            "midi": 63,
            "name": "D#4",
            "ticks": 62976,
            "time": 87.079572,
            "velocity": 0.7874015748031497
          },
          {
            "duration": 0.1327432499999901,
            "durationTicks": 96,
            "midi": 56,
            "name": "G#3",
            "ticks": 63552,
            "time": 87.87603150000001,
            "velocity": 0.7874015748031497
          },
          {
            "duration": 0.1327432500000043,
            "durationTicks": 96,
            "midi": 58,
            "name": "A#3",
            "ticks": 63648,
            "time": 88.00877475,
            "velocity": 0.7874015748031497
          },
          {
            "duration": 0.1327432500000043,
            "durationTicks": 96,
            "midi": 60,
            "name": "C4",
            "ticks": 63744,
            "time": 88.141518,
            "velocity": 0.7874015748031497
          },
          {
            "duration": 0.1327432499999901,
            "durationTicks": 96,
            "midi": 58,
            "name": "A#3",
            "ticks": 63840,
            "time": 88.27426125000001,
            "velocity": 0.7874015748031497
          },
          {
            "duration": 0.2654865000000086,
            "durationTicks": 192,
            "midi": 63,
            "name": "D#4",
            "ticks": 63936,
            "time": 88.4070045,
            "velocity": 0.7874015748031497
          },
          {
            "duration": 0.3982297500000129,
            "durationTicks": 288,
            "midi": 63,
            "name": "D#4",
            "ticks": 64224,
            "time": 88.80523425,
            "velocity": 0.7874015748031497
          },
          {
            "duration": 0.5309729999999888,
            "durationTicks": 384,
            "midi": 61,
            "name": "C#4",
            "ticks": 64512,
            "time": 89.20346400000001,
            "velocity": 0.7874015748031497
          },
          {
            "duration": 0.1327432499999901,
            "durationTicks": 96,
            "midi": 56,
            "name": "G#3",
            "ticks": 65088,
            "time": 89.99992350000001,
            "velocity": 0.7874015748031497
          },
          {
            "duration": 0.1327432500000043,
            "durationTicks": 96,
            "midi": 58,
            "name": "A#3",
            "ticks": 65184,
            "time": 90.13266675,
            "velocity": 0.7874015748031497
          },
          {
            "duration": 0.1327432500000043,
            "durationTicks": 96,
            "midi": 61,
            "name": "C#4",
            "ticks": 65280,
            "time": 90.26541,
            "velocity": 0.7874015748031497
          },
          {
            "duration": 0.1327432500000043,
            "durationTicks": 96,
            "midi": 58,
            "name": "A#3",
            "ticks": 65376,
            "time": 90.39815325000001,
            "velocity": 0.7874015748031497
          },
          {
            "duration": 0.5309729999999888,
            "durationTicks": 384,
            "midi": 61,
            "name": "C#4",
            "ticks": 65472,
            "time": 90.53089650000001,
            "velocity": 0.7874015748031497
          },
          {
            "duration": 0.2654865000000086,
            "durationTicks": 192,
            "midi": 63,
            "name": "D#4",
            "ticks": 65856,
            "time": 91.0618695,
            "velocity": 0.7874015748031497
          },
          {
            "duration": 0.530973000000003,
            "durationTicks": 384,
            "midi": 58,
            "name": "A#3",
            "ticks": 66048,
            "time": 91.32735600000001,
            "velocity": 0.7874015748031497
          },
          {
            "duration": 0.2654864999999944,
            "durationTicks": 192,
            "midi": 56,
            "name": "G#3",
            "ticks": 66432,
            "time": 91.85832900000001,
            "velocity": 0.7874015748031497
          },
          {
            "duration": 0.2654865000000086,
            "durationTicks": 192,
            "midi": 56,
            "name": "G#3",
            "ticks": 66816,
            "time": 92.389302,
            "velocity": 0.7874015748031497
          },
          {
            "duration": 0.2654864999999944,
            "durationTicks": 192,
            "midi": 63,
            "name": "D#4",
            "ticks": 67008,
            "time": 92.65478850000001,
            "velocity": 0.7874015748031497
          },
          {
            "duration": 0.530973000000003,
            "durationTicks": 384,
            "midi": 61,
            "name": "C#4",
            "ticks": 67392,
            "time": 93.1857615,
            "velocity": 0.7874015748031497
          },
          {
            "duration": 0.1327432500000043,
            "durationTicks": 96,
            "midi": 56,
            "name": "G#3",
            "ticks": 68160,
            "time": 94.2477075,
            "velocity": 0.7874015748031497
          },
          {
            "duration": 0.1327432499999901,
            "durationTicks": 96,
            "midi": 58,
            "name": "A#3",
            "ticks": 68256,
            "time": 94.38045075000001,
            "velocity": 0.7874015748031497
          },
          {
            "duration": 0.1327432500000043,
            "durationTicks": 96,
            "midi": 61,
            "name": "C#4",
            "ticks": 68352,
            "time": 94.513194,
            "velocity": 0.7874015748031497
          },
          {
            "duration": 0.1327432500000043,
            "durationTicks": 96,
            "midi": 58,
            "name": "A#3",
            "ticks": 68448,
            "time": 94.64593725,
            "velocity": 0.7874015748031497
          },
          {
            "duration": 0.2654864999999944,
            "durationTicks": 192,
            "midi": 65,
            "name": "F4",
            "ticks": 68544,
            "time": 94.77868050000001,
            "velocity": 0.7874015748031497
          },
          {
            "duration": 0.2654864999999944,
            "durationTicks": 192,
            "midi": 65,
            "name": "F4",
            "ticks": 68832,
            "time": 95.17691025,
            "velocity": 0.7874015748031497
          },
          {
            "duration": 0.530973000000003,
            "durationTicks": 384,
            "midi": 63,
            "name": "D#4",
            "ticks": 69120,
            "time": 95.57514,
            "velocity": 0.7874015748031497
          },
          {
            "duration": 0.1327432500000043,
            "durationTicks": 96,
            "midi": 56,
            "name": "G#3",
            "ticks": 69696,
            "time": 96.3715995,
            "velocity": 0.7874015748031497
          },
          {
            "duration": 0.1327432500000043,
            "durationTicks": 96,
            "midi": 58,
            "name": "A#3",
            "ticks": 69792,
            "time": 96.50434275,
            "velocity": 0.7874015748031497
          },
          {
            "duration": 0.1327432499999901,
            "durationTicks": 96,
            "midi": 60,
            "name": "C4",
            "ticks": 69888,
            "time": 96.63708600000001,
            "velocity": 0.7874015748031497
          },
          {
            "duration": 0.1327432500000043,
            "durationTicks": 96,
            "midi": 58,
            "name": "A#3",
            "ticks": 69984,
            "time": 96.76982925,
            "velocity": 0.7874015748031497
          },
          {
            "duration": 0.530973000000003,
            "durationTicks": 384,
            "midi": 68,
            "name": "G#4",
            "ticks": 70080,
            "time": 96.9025725,
            "velocity": 0.7874015748031497
          },
          {
            "duration": 0.2654864999999944,
            "durationTicks": 192,
            "midi": 60,
            "name": "C4",
            "ticks": 70464,
            "time": 97.43354550000001,
            "velocity": 0.7874015748031497
          },
          {
            "duration": 0.6637162500000073,
            "durationTicks": 480,
            "midi": 61,
            "name": "C#4",
            "ticks": 70656,
            "time": 97.699032,
            "velocity": 0.7874015748031497
          },
          {
            "duration": 0.1327432500000043,
            "durationTicks": 96,
            "midi": 56,
            "name": "G#3",
            "ticks": 71232,
            "time": 98.4954915,
            "velocity": 0.7874015748031497
          },
          {
            "duration": 0.1327432500000043,
            "durationTicks": 96,
            "midi": 58,
            "name": "A#3",
            "ticks": 71328,
            "time": 98.62823475,
            "velocity": 0.7874015748031497
          },
          {
            "duration": 0.1327432499999901,
            "durationTicks": 96,
            "midi": 61,
            "name": "C#4",
            "ticks": 71424,
            "time": 98.76097800000001,
            "velocity": 0.7874015748031497
          },
          {
            "duration": 0.1327432500000043,
            "durationTicks": 96,
            "midi": 58,
            "name": "A#3",
            "ticks": 71520,
            "time": 98.89372125,
            "velocity": 0.7874015748031497
          },
          {
            "duration": 0.530973000000003,
            "durationTicks": 384,
            "midi": 61,
            "name": "C#4",
            "ticks": 71616,
            "time": 99.0264645,
            "velocity": 0.7874015748031497
          },
          {
            "duration": 0.2654864999999944,
            "durationTicks": 192,
            "midi": 63,
            "name": "D#4",
            "ticks": 72000,
            "time": 99.5574375,
            "velocity": 0.7874015748031497
          },
          {
            "duration": 0.7964595000000116,
            "durationTicks": 576,
            "midi": 58,
            "name": "A#3",
            "ticks": 72192,
            "time": 99.822924,
            "velocity": 0.7874015748031497
          },
          {
            "duration": 0.2654864999999944,
            "durationTicks": 192,
            "midi": 56,
            "name": "G#3",
            "ticks": 72960,
            "time": 100.88487,
            "velocity": 0.7874015748031497
          },
          {
            "duration": 0.530973000000003,
            "durationTicks": 384,
            "midi": 61,
            "name": "C#4",
            "ticks": 73152,
            "time": 101.1503565,
            "velocity": 0.7874015748031497
          },
          {
            "duration": 0.530973000000003,
            "durationTicks": 384,
            "midi": 61,
            "name": "C#4",
            "ticks": 73536,
            "time": 101.6813295,
            "velocity": 0.7874015748031497
          },
          {
            "duration": 0.1327432499999901,
            "durationTicks": 96,
            "midi": 56,
            "name": "G#3",
            "ticks": 74304,
            "time": 102.74327550000001,
            "velocity": 0.7874015748031497
          },
          {
            "duration": 0.1327432500000043,
            "durationTicks": 96,
            "midi": 58,
            "name": "A#3",
            "ticks": 74400,
            "time": 102.87601875,
            "velocity": 0.7874015748031497
          },
          {
            "duration": 0.1327432500000043,
            "durationTicks": 96,
            "midi": 61,
            "name": "C#4",
            "ticks": 74496,
            "time": 103.008762,
            "velocity": 0.7874015748031497
          },
          {
            "duration": 0.1327432499999901,
            "durationTicks": 96,
            "midi": 58,
            "name": "A#3",
            "ticks": 74592,
            "time": 103.14150525000001,
            "velocity": 0.7874015748031497
          },
          {
            "duration": 0.2654865000000086,
            "durationTicks": 192,
            "midi": 65,
            "name": "F4",
            "ticks": 74688,
            "time": 103.2742485,
            "velocity": 0.7874015748031497
          },
          {
            "duration": 0.3982297499999987,
            "durationTicks": 288,
            "midi": 65,
            "name": "F4",
            "ticks": 74976,
            "time": 103.67247825000001,
            "velocity": 0.7874015748031497
          },
          {
            "duration": 0.5309729999999888,
            "durationTicks": 384,
            "midi": 63,
            "name": "D#4",
            "ticks": 75264,
            "time": 104.07070800000001,
            "velocity": 0.7874015748031497
          },
          {
            "duration": 0.1327432500000043,
            "durationTicks": 96,
            "midi": 56,
            "name": "G#3",
            "ticks": 75840,
            "time": 104.86716750000001,
            "velocity": 0.7874015748031497
          },
          {
            "duration": 0.1327432499999901,
            "durationTicks": 96,
            "midi": 58,
            "name": "A#3",
            "ticks": 75936,
            "time": 104.99991075000001,
            "velocity": 0.7874015748031497
          },
          {
            "duration": 0.1327432500000043,
            "durationTicks": 96,
            "midi": 60,
            "name": "C4",
            "ticks": 76032,
            "time": 105.132654,
            "velocity": 0.7874015748031497
          },
          {
            "duration": 0.1327432500000043,
            "durationTicks": 96,
            "midi": 58,
            "name": "A#3",
            "ticks": 76128,
            "time": 105.26539725,
            "velocity": 0.7874015748031497
          },
          {
            "duration": 0.2654864999999944,
            "durationTicks": 192,
            "midi": 63,
            "name": "D#4",
            "ticks": 76224,
            "time": 105.39814050000001,
            "velocity": 0.7874015748031497
          },
          {
            "duration": 0.3982297499999987,
            "durationTicks": 288,
            "midi": 63,
            "name": "D#4",
            "ticks": 76512,
            "time": 105.79637025000001,
            "velocity": 0.7874015748031497
          },
          {
            "duration": 0.530973000000003,
            "durationTicks": 384,
            "midi": 61,
            "name": "C#4",
            "ticks": 76800,
            "time": 106.19460000000001,
            "velocity": 0.7874015748031497
          },
          {
            "duration": 0.1327432500000043,
            "durationTicks": 96,
            "midi": 56,
            "name": "G#3",
            "ticks": 77376,
            "time": 106.9910595,
            "velocity": 0.7874015748031497
          },
          {
            "duration": 0.1327432499999901,
            "durationTicks": 96,
            "midi": 58,
            "name": "A#3",
            "ticks": 77472,
            "time": 107.12380275000001,
            "velocity": 0.7874015748031497
          },
          {
            "duration": 0.1327432500000043,
            "durationTicks": 96,
            "midi": 61,
            "name": "C#4",
            "ticks": 77568,
            "time": 107.256546,
            "velocity": 0.7874015748031497
          },
          {
            "duration": 0.1327432500000043,
            "durationTicks": 96,
            "midi": 58,
            "name": "A#3",
            "ticks": 77664,
            "time": 107.38928925,
            "velocity": 0.7874015748031497
          },
          {
            "duration": 0.530973000000003,
            "durationTicks": 384,
            "midi": 61,
            "name": "C#4",
            "ticks": 77760,
            "time": 107.52203250000001,
            "velocity": 0.7874015748031497
          },
          {
            "duration": 0.2654864999999944,
            "durationTicks": 192,
            "midi": 63,
            "name": "D#4",
            "ticks": 78144,
            "time": 108.05300550000001,
            "velocity": 0.7874015748031497
          },
          {
            "duration": 0.530973000000003,
            "durationTicks": 384,
            "midi": 58,
            "name": "A#3",
            "ticks": 78336,
            "time": 108.318492,
            "velocity": 0.7874015748031497
          },
          {
            "duration": 0.2654864999999944,
            "durationTicks": 192,
            "midi": 56,
            "name": "G#3",
            "ticks": 78720,
            "time": 108.84946500000001,
            "velocity": 0.7874015748031497
          },
          {
            "duration": 0.2654864999999944,
            "durationTicks": 192,
            "midi": 56,
            "name": "G#3",
            "ticks": 79104,
            "time": 109.38043800000001,
            "velocity": 0.7874015748031497
          },
          {
            "duration": 0.2654864999999944,
            "durationTicks": 192,
            "midi": 63,
            "name": "D#4",
            "ticks": 79296,
            "time": 109.6459245,
            "velocity": 0.7874015748031497
          },
          {
            "duration": 0.530973000000003,
            "durationTicks": 384,
            "midi": 61,
            "name": "C#4",
            "ticks": 79680,
            "time": 110.17689750000001,
            "velocity": 0.7874015748031497
          },
          {
            "duration": 0.1327432500000043,
            "durationTicks": 96,
            "midi": 56,
            "name": "G#3",
            "ticks": 80448,
            "time": 111.2388435,
            "velocity": 0.7874015748031497
          },
          {
            "duration": 0.1327432500000043,
            "durationTicks": 96,
            "midi": 58,
            "name": "A#3",
            "ticks": 80544,
            "time": 111.37158675,
            "velocity": 0.7874015748031497
          },
          {
            "duration": 0.1327432499999901,
            "durationTicks": 96,
            "midi": 61,
            "name": "C#4",
            "ticks": 80640,
            "time": 111.50433000000001,
            "velocity": 0.7874015748031497
          },
          {
            "duration": 0.1327432500000043,
            "durationTicks": 96,
            "midi": 58,
            "name": "A#3",
            "ticks": 80736,
            "time": 111.63707325,
            "velocity": 0.7874015748031497
          },
          {
            "duration": 0.2654864999999944,
            "durationTicks": 192,
            "midi": 65,
            "name": "F4",
            "ticks": 80832,
            "time": 111.7698165,
            "velocity": 0.7874015748031497
          },
          {
            "duration": 0.2654865000000086,
            "durationTicks": 192,
            "midi": 65,
            "name": "F4",
            "ticks": 81120,
            "time": 112.16804625,
            "velocity": 0.7874015748031497
          },
          {
            "duration": 0.530973000000003,
            "durationTicks": 384,
            "midi": 63,
            "name": "D#4",
            "ticks": 81408,
            "time": 112.566276,
            "velocity": 0.7874015748031497
          },
          {
            "duration": 0.1327432500000043,
            "durationTicks": 96,
            "midi": 56,
            "name": "G#3",
            "ticks": 81984,
            "time": 113.3627355,
            "velocity": 0.7874015748031497
          },
          {
            "duration": 0.1327432500000043,
            "durationTicks": 96,
            "midi": 58,
            "name": "A#3",
            "ticks": 82080,
            "time": 113.49547875,
            "velocity": 0.7874015748031497
          },
          {
            "duration": 0.1327432500000043,
            "durationTicks": 96,
            "midi": 60,
            "name": "C4",
            "ticks": 82176,
            "time": 113.62822200000001,
            "velocity": 0.7874015748031497
          },
          {
            "duration": 0.1327432499999901,
            "durationTicks": 96,
            "midi": 58,
            "name": "A#3",
            "ticks": 82272,
            "time": 113.76096525000001,
            "velocity": 0.7874015748031497
          },
          {
            "duration": 0.530973000000003,
            "durationTicks": 384,
            "midi": 68,
            "name": "G#4",
            "ticks": 82368,
            "time": 113.8937085,
            "velocity": 0.7874015748031497
          },
          {
            "duration": 0.2654864999999944,
            "durationTicks": 192,
            "midi": 60,
            "name": "C4",
            "ticks": 82752,
            "time": 114.4246815,
            "velocity": 0.7874015748031497
          },
          {
            "duration": 0.6637162500000073,
            "durationTicks": 480,
            "midi": 61,
            "name": "C#4",
            "ticks": 82944,
            "time": 114.690168,
            "velocity": 0.7874015748031497
          },
          {
            "duration": 0.1327432499999901,
            "durationTicks": 96,
            "midi": 56,
            "name": "G#3",
            "ticks": 83520,
            "time": 115.48662750000001,
            "velocity": 0.7874015748031497
          },
          {
            "duration": 0.1327432500000043,
            "durationTicks": 96,
            "midi": 58,
            "name": "A#3",
            "ticks": 83616,
            "time": 115.61937075,
            "velocity": 0.7874015748031497
          },
          {
            "duration": 0.1327432500000043,
            "durationTicks": 96,
            "midi": 61,
            "name": "C#4",
            "ticks": 83712,
            "time": 115.752114,
            "velocity": 0.7874015748031497
          },
          {
            "duration": 0.1327432499999901,
            "durationTicks": 96,
            "midi": 58,
            "name": "A#3",
            "ticks": 83808,
            "time": 115.88485725000001,
            "velocity": 0.7874015748031497
          },
          {
            "duration": 0.530973000000003,
            "durationTicks": 384,
            "midi": 61,
            "name": "C#4",
            "ticks": 83904,
            "time": 116.0176005,
            "velocity": 0.7874015748031497
          },
          {
            "duration": 0.2654865000000086,
            "durationTicks": 192,
            "midi": 63,
            "name": "D#4",
            "ticks": 84288,
            "time": 116.5485735,
            "velocity": 0.7874015748031497
          },
          {
            "duration": 0.7964594999999974,
            "durationTicks": 576,
            "midi": 58,
            "name": "A#3",
            "ticks": 84480,
            "time": 116.81406000000001,
            "velocity": 0.7874015748031497
          },
          {
            "duration": 0.2654865000000086,
            "durationTicks": 192,
            "midi": 56,
            "name": "G#3",
            "ticks": 85248,
            "time": 117.876006,
            "velocity": 0.7874015748031497
          },
          {
            "duration": 0.5309729999999888,
            "durationTicks": 384,
            "midi": 61,
            "name": "C#4",
            "ticks": 85440,
            "time": 118.14149250000001,
            "velocity": 0.7874015748031497
          },
          {
            "duration": 0.530973000000003,
            "durationTicks": 384,
            "midi": 61,
            "name": "C#4",
            "ticks": 85824,
            "time": 118.6724655,
            "velocity": 0.7874015748031497
          },
          {
            "duration": 0.1327432500000043,
            "durationTicks": 96,
            "midi": 56,
            "name": "G#3",
            "ticks": 93312,
            "time": 129.026439,
            "velocity": 0.7874015748031497
          },
          {
            "duration": 0.1327432500000043,
            "durationTicks": 96,
            "midi": 58,
            "name": "A#3",
            "ticks": 93408,
            "time": 129.15918225000001,
            "velocity": 0.7874015748031497
          },
          {
            "duration": 0.1327432499999759,
            "durationTicks": 96,
            "midi": 61,
            "name": "C#4",
            "ticks": 93504,
            "time": 129.29192550000002,
            "velocity": 0.7874015748031497
          },
          {
            "duration": 0.1327432500000043,
            "durationTicks": 96,
            "midi": 58,
            "name": "A#3",
            "ticks": 93600,
            "time": 129.42466875,
            "velocity": 0.7874015748031497
          },
          {
            "duration": 0.2654865000000086,
            "durationTicks": 192,
            "midi": 65,
            "name": "F4",
            "ticks": 93696,
            "time": 129.557412,
            "velocity": 0.7874015748031497
          },
          {
            "duration": 0.1327432500000043,
            "durationTicks": 96,
            "midi": 56,
            "name": "G#3",
            "ticks": 93888,
            "time": 129.8228985,
            "velocity": 0.7874015748031497
          },
          {
            "duration": 0.1327432500000043,
            "durationTicks": 96,
            "midi": 58,
            "name": "A#3",
            "ticks": 93984,
            "time": 129.95564175,
            "velocity": 0.7874015748031497
          },
          {
            "duration": 0.1327432500000043,
            "durationTicks": 96,
            "midi": 61,
            "name": "C#4",
            "ticks": 94080,
            "time": 130.08838500000002,
            "velocity": 0.7874015748031497
          },
          {
            "duration": 0.1327432499999759,
            "durationTicks": 96,
            "midi": 58,
            "name": "A#3",
            "ticks": 94176,
            "time": 130.22112825000002,
            "velocity": 0.7874015748031497
          },
          {
            "duration": 0.2654865000000086,
            "durationTicks": 192,
            "midi": 65,
            "name": "F4",
            "ticks": 94272,
            "time": 130.3538715,
            "velocity": 0.7874015748031497
          },
          {
            "duration": 0.1327432500000043,
            "durationTicks": 96,
            "midi": 56,
            "name": "G#3",
            "ticks": 96384,
            "time": 133.274223,
            "velocity": 0.7874015748031497
          },
          {
            "duration": 0.1327432500000043,
            "durationTicks": 96,
            "midi": 58,
            "name": "A#3",
            "ticks": 96480,
            "time": 133.40696625,
            "velocity": 0.7874015748031497
          },
          {
            "duration": 0.1327432500000043,
            "durationTicks": 96,
            "midi": 61,
            "name": "C#4",
            "ticks": 96576,
            "time": 133.53970950000001,
            "velocity": 0.7874015748031497
          },
          {
            "duration": 0.1327432499999759,
            "durationTicks": 96,
            "midi": 58,
            "name": "A#3",
            "ticks": 96672,
            "time": 133.67245275000002,
            "velocity": 0.7874015748031497
          },
          {
            "duration": 0.2654865000000086,
            "durationTicks": 192,
            "midi": 65,
            "name": "F4",
            "ticks": 96768,
            "time": 133.805196,
            "velocity": 0.7874015748031497
          },
          {
            "duration": 0.1327432500000043,
            "durationTicks": 96,
            "midi": 56,
            "name": "G#3",
            "ticks": 96960,
            "time": 134.0706825,
            "velocity": 0.7874015748031497
          },
          {
            "duration": 0.1327432500000043,
            "durationTicks": 96,
            "midi": 58,
            "name": "A#3",
            "ticks": 97056,
            "time": 134.20342575,
            "velocity": 0.7874015748031497
          },
          {
            "duration": 0.1327432500000043,
            "durationTicks": 96,
            "midi": 61,
            "name": "C#4",
            "ticks": 97152,
            "time": 134.336169,
            "velocity": 0.7874015748031497
          },
          {
            "duration": 0.1327432500000043,
            "durationTicks": 96,
            "midi": 58,
            "name": "A#3",
            "ticks": 97248,
            "time": 134.46891225000002,
            "velocity": 0.7874015748031497
          },
          {
            "duration": 0.2654864999999802,
            "durationTicks": 192,
            "midi": 65,
            "name": "F4",
            "ticks": 97344,
            "time": 134.60165550000002,
            "velocity": 0.7874015748031497
          },
          {
            "duration": 0.2654865000000086,
            "durationTicks": 192,
            "midi": 60,
            "name": "C4",
            "ticks": 99456,
            "time": 137.522007,
            "velocity": 0.7874015748031497
          },
          {
            "duration": 0.2654865000000086,
            "durationTicks": 192,
            "midi": 61,
            "name": "C#4",
            "ticks": 99648,
            "time": 137.7874935,
            "velocity": 0.7874015748031497
          },
          {
            "duration": 0.1327432499999759,
            "durationTicks": 96,
            "midi": 58,
            "name": "A#3",
            "ticks": 99840,
            "time": 138.05298000000002,
            "velocity": 0.7874015748031497
          },
          {
            "duration": 0.2654865000000086,
            "durationTicks": 192,
            "midi": 61,
            "name": "C#4",
            "ticks": 100032,
            "time": 138.3184665,
            "velocity": 0.7874015748031497
          },
          {
            "duration": 0.3982297500000129,
            "durationTicks": 288,
            "midi": 63,
            "name": "D#4",
            "ticks": 100224,
            "time": 138.583953,
            "velocity": 0.7874015748031497
          },
          {
            "duration": 0.1327432500000043,
            "durationTicks": 96,
            "midi": 60,
            "name": "C4",
            "ticks": 100992,
            "time": 139.64589900000001,
            "velocity": 0.7874015748031497
          },
          {
            "duration": 0.2654865000000086,
            "durationTicks": 192,
            "midi": 58,
            "name": "A#3",
            "ticks": 101184,
            "time": 139.9113855,
            "velocity": 0.7874015748031497
          },
          {
            "duration": 1.061946000000006,
            "durationTicks": 768,
            "midi": 56,
            "name": "G#3",
            "ticks": 101376,
            "time": 140.176872,
            "velocity": 0.7874015748031497
          },
          {
            "duration": 1.0619459999999776,
            "durationTicks": 768,
            "midi": 56,
            "name": "G#3",
            "ticks": 101760,
            "time": 140.70784500000002,
            "velocity": 0.7874015748031497
          },
          {
            "duration": 0.2654865000000086,
            "durationTicks": 192,
            "midi": 58,
            "name": "A#3",
            "ticks": 102528,
            "time": 141.769791,
            "velocity": 0.7874015748031497
          },
          {
            "duration": 0.1327432500000043,
            "durationTicks": 96,
            "midi": 58,
            "name": "A#3",
            "ticks": 102720,
            "time": 142.0352775,
            "velocity": 0.7874015748031497
          },
          {
            "duration": 0.2654864999999802,
            "durationTicks": 192,
            "midi": 60,
            "name": "C4",
            "ticks": 102912,
            "time": 142.30076400000002,
            "velocity": 0.7874015748031497
          },
          {
            "duration": 0.1327432500000043,
            "durationTicks": 96,
            "midi": 61,
            "name": "C#4",
            "ticks": 103104,
            "time": 142.5662505,
            "velocity": 0.7874015748031497
          },
          {
            "duration": 0.2654865000000086,
            "durationTicks": 192,
            "midi": 58,
            "name": "A#3",
            "ticks": 103296,
            "time": 142.831737,
            "velocity": 0.7874015748031497
          },
          {
            "duration": 0.3982297499999845,
            "durationTicks": 288,
            "midi": 56,
            "name": "G#3",
            "ticks": 103488,
            "time": 143.0972235,
            "velocity": 0.7874015748031497
          },
          {
            "duration": 0.2654865000000086,
            "durationTicks": 192,
            "midi": 68,
            "name": "G#4",
            "ticks": 104064,
            "time": 143.893683,
            "velocity": 0.7874015748031497
          },
          {
            "duration": 0.1327432499999759,
            "durationTicks": 96,
            "midi": 68,
            "name": "G#4",
            "ticks": 104256,
            "time": 144.15916950000002,
            "velocity": 0.7874015748031497
          },
          {
            "duration": 0.3982297500000129,
            "durationTicks": 288,
            "midi": 63,
            "name": "D#4",
            "ticks": 104448,
            "time": 144.424656,
            "velocity": 0.7874015748031497
          },
          {
            "duration": 0.1327432500000043,
            "durationTicks": 96,
            "midi": 65,
            "name": "F4",
            "ticks": 104832,
            "time": 144.95562900000002,
            "velocity": 0.7874015748031497
          },
          {
            "duration": 0.3982297499999845,
            "durationTicks": 288,
            "midi": 63,
            "name": "D#4",
            "ticks": 104832,
            "time": 144.95562900000002,
            "velocity": 0.7874015748031497
          },
          {
            "duration": 0.2654865000000086,
            "durationTicks": 192,
            "midi": 63,
            "name": "D#4",
            "ticks": 105024,
            "time": 145.2211155,
            "velocity": 0.7874015748031497
          },
          {
            "duration": 0.2654865000000086,
            "durationTicks": 192,
            "midi": 61,
            "name": "C#4",
            "ticks": 105216,
            "time": 145.486602,
            "velocity": 0.7874015748031497
          },
          {
            "duration": 0.1327432500000043,
            "durationTicks": 96,
            "midi": 65,
            "name": "F4",
            "ticks": 105216,
            "time": 145.486602,
            "velocity": 0.7874015748031497
          },
          {
            "duration": 0.2654864999999802,
            "durationTicks": 192,
            "midi": 63,
            "name": "D#4",
            "ticks": 105408,
            "time": 145.7520885,
            "velocity": 0.7874015748031497
          },
          {
            "duration": 0.2654865000000086,
            "durationTicks": 192,
            "midi": 61,
            "name": "C#4",
            "ticks": 105600,
            "time": 146.017575,
            "velocity": 0.7874015748031497
          },
          {
            "duration": 0.1327432500000043,
            "durationTicks": 96,
            "midi": 60,
            "name": "C4",
            "ticks": 105600,
            "time": 146.017575,
            "velocity": 0.7874015748031497
          },
          {
            "duration": 0.2654865000000086,
            "durationTicks": 192,
            "midi": 61,
            "name": "C#4",
            "ticks": 105792,
            "time": 146.2830615,
            "velocity": 0.7874015748031497
          },
          {
            "duration": 0.1327432500000043,
            "durationTicks": 96,
            "midi": 58,
            "name": "A#3",
            "ticks": 105984,
            "time": 146.548548,
            "velocity": 0.7874015748031497
          },
          {
            "duration": 0.1327432499999759,
            "durationTicks": 96,
            "midi": 61,
            "name": "C#4",
            "ticks": 106176,
            "time": 146.81403450000002,
            "velocity": 0.7874015748031497
          },
          {
            "duration": 0.2654865000000086,
            "durationTicks": 192,
            "midi": 58,
            "name": "A#3",
            "ticks": 106368,
            "time": 147.079521,
            "velocity": 0.7874015748031497
          },
          {
            "duration": 0.1327432500000043,
            "durationTicks": 96,
            "midi": 61,
            "name": "C#4",
            "ticks": 106560,
            "time": 147.3450075,
            "velocity": 0.7874015748031497
          },
          {
            "duration": 0.1327432500000043,
            "durationTicks": 96,
            "midi": 63,
            "name": "D#4",
            "ticks": 106752,
            "time": 147.61049400000002,
            "velocity": 0.7874015748031497
          },
          {
            "duration": 0.2654865000000086,
            "durationTicks": 192,
            "midi": 60,
            "name": "C4",
            "ticks": 107136,
            "time": 148.141467,
            "velocity": 0.7874015748031497
          },
          {
            "duration": 0.2654864999999802,
            "durationTicks": 192,
            "midi": 58,
            "name": "A#3",
            "ticks": 107328,
            "time": 148.40695350000001,
            "velocity": 0.7874015748031497
          },
          {
            "duration": 0.9292027500000017,
            "durationTicks": 672,
            "midi": 56,
            "name": "G#3",
            "ticks": 107520,
            "time": 148.67244,
            "velocity": 0.7874015748031497
          },
          {
            "duration": 0.9292027500000017,
            "durationTicks": 672,
            "midi": 56,
            "name": "G#3",
            "ticks": 107904,
            "time": 149.203413,
            "velocity": 0.7874015748031497
          },
          {
            "duration": 0.2654864999999802,
            "durationTicks": 192,
            "midi": 58,
            "name": "A#3",
            "ticks": 108672,
            "time": 150.26535900000002,
            "velocity": 0.7874015748031497
          },
          {
            "duration": 0.2654865000000086,
            "durationTicks": 192,
            "midi": 58,
            "name": "A#3",
            "ticks": 108864,
            "time": 150.5308455,
            "velocity": 0.7874015748031497
          },
          {
            "duration": 0.1327432500000043,
            "durationTicks": 96,
            "midi": 60,
            "name": "C4",
            "ticks": 109056,
            "time": 150.796332,
            "velocity": 0.7874015748031497
          },
          {
            "duration": 0.2654864999999802,
            "durationTicks": 192,
            "midi": 61,
            "name": "C#4",
            "ticks": 109248,
            "time": 151.06181850000002,
            "velocity": 0.7874015748031497
          },
          {
            "duration": 0.2654865000000086,
            "durationTicks": 192,
            "midi": 58,
            "name": "A#3",
            "ticks": 109440,
            "time": 151.327305,
            "velocity": 0.7874015748031497
          },
          {
            "duration": 0.3982297500000129,
            "durationTicks": 288,
            "midi": 56,
            "name": "G#3",
            "ticks": 109632,
            "time": 151.5927915,
            "velocity": 0.7874015748031497
          },
          {
            "duration": 0.2654865000000086,
            "durationTicks": 192,
            "midi": 63,
            "name": "D#4",
            "ticks": 110208,
            "time": 152.389251,
            "velocity": 0.7874015748031497
          },
          {
            "duration": 0.1327432500000043,
            "durationTicks": 96,
            "midi": 65,
            "name": "F4",
            "ticks": 110400,
            "time": 152.6547375,
            "velocity": 0.7874015748031497
          },
          {
            "duration": 0.5309729999999888,
            "durationTicks": 384,
            "midi": 65,
            "name": "F4",
            "ticks": 110592,
            "time": 152.92022400000002,
            "velocity": 0.7874015748031497
          },
          {
            "duration": 0.5309729999999888,
            "durationTicks": 384,
            "midi": 65,
            "name": "F4",
            "ticks": 110976,
            "time": 153.451197,
            "velocity": 0.7874015748031497
          },
          {
            "duration": 0.3982297500000129,
            "durationTicks": 288,
            "midi": 63,
            "name": "D#4",
            "ticks": 110976,
            "time": 153.451197,
            "velocity": 0.7874015748031497
          },
          {
            "duration": 0.3982297500000129,
            "durationTicks": 288,
            "midi": 63,
            "name": "D#4",
            "ticks": 111360,
            "time": 153.98217,
            "velocity": 0.7874015748031497
          },
          {
            "duration": 1.3274325000000147,
            "durationTicks": 960,
            "midi": 61,
            "name": "C#4",
            "ticks": 111552,
            "time": 154.2476565,
            "velocity": 0.7874015748031497
          },
          {
            "duration": 0.1327432499999759,
            "durationTicks": 96,
            "midi": 63,
            "name": "D#4",
            "ticks": 112512,
            "time": 155.57508900000002,
            "velocity": 0.7874015748031497
          },
          {
            "duration": 0.2654865000000086,
            "durationTicks": 192,
            "midi": 65,
            "name": "F4",
            "ticks": 112704,
            "time": 155.8405755,
            "velocity": 0.7874015748031497
          },
          {
            "duration": 0.1327432500000043,
            "durationTicks": 96,
            "midi": 61,
            "name": "C#4",
            "ticks": 112896,
            "time": 156.106062,
            "velocity": 0.7874015748031497
          },
          {
            "duration": 0.2654864999999802,
            "durationTicks": 192,
            "midi": 63,
            "name": "D#4",
            "ticks": 113088,
            "time": 156.37154850000002,
            "velocity": 0.7874015748031497
          },
          {
            "duration": 0.2654865000000086,
            "durationTicks": 192,
            "midi": 63,
            "name": "D#4",
            "ticks": 113280,
            "time": 156.637035,
            "velocity": 0.7874015748031497
          },
          {
            "duration": 0.2654865000000086,
            "durationTicks": 192,
            "midi": 63,
            "name": "D#4",
            "ticks": 113472,
            "time": 156.9025215,
            "velocity": 0.7874015748031497
          },
          {
            "duration": 0.2654864999999802,
            "durationTicks": 192,
            "midi": 65,
            "name": "F4",
            "ticks": 113664,
            "time": 157.16800800000001,
            "velocity": 0.7874015748031497
          },
          {
            "duration": 0.5309730000000172,
            "durationTicks": 384,
            "midi": 63,
            "name": "D#4",
            "ticks": 113856,
            "time": 157.4334945,
            "velocity": 0.7874015748031497
          },
          {
            "duration": 0.6637162499999931,
            "durationTicks": 480,
            "midi": 56,
            "name": "G#3",
            "ticks": 114240,
            "time": 157.9644675,
            "velocity": 0.7874015748031497
          },
          {
            "duration": 0.2654865000000086,
            "durationTicks": 192,
            "midi": 58,
            "name": "A#3",
            "ticks": 115392,
            "time": 159.5573865,
            "velocity": 0.7874015748031497
          },
          {
            "duration": 0.2654864999999802,
            "durationTicks": 192,
            "midi": 60,
            "name": "C4",
            "ticks": 115584,
            "time": 159.82287300000002,
            "velocity": 0.7874015748031497
          },
          {
            "duration": 0.2654865000000086,
            "durationTicks": 192,
            "midi": 61,
            "name": "C#4",
            "ticks": 115776,
            "time": 160.0883595,
            "velocity": 0.7874015748031497
          },
          {
            "duration": 0.2654865000000086,
            "durationTicks": 192,
            "midi": 58,
            "name": "A#3",
            "ticks": 115968,
            "time": 160.353846,
            "velocity": 0.7874015748031497
          },
          {
            "duration": 0.2654864999999802,
            "durationTicks": 192,
            "midi": 63,
            "name": "D#4",
            "ticks": 116352,
            "time": 160.88481900000002,
            "velocity": 0.7874015748031497
          },
          {
            "duration": 0.1327432500000043,
            "durationTicks": 96,
            "midi": 65,
            "name": "F4",
            "ticks": 116544,
            "time": 161.1503055,
            "velocity": 0.7874015748031497
          },
          {
            "duration": 0.3982297499999845,
            "durationTicks": 288,
            "midi": 63,
            "name": "D#4",
            "ticks": 116736,
            "time": 161.415792,
            "velocity": 0.7874015748031497
          },
          {
            "duration": 0.3982297500000129,
            "durationTicks": 288,
            "midi": 63,
            "name": "D#4",
            "ticks": 117120,
            "time": 161.946765,
            "velocity": 0.7874015748031497
          },
          {
            "duration": 0.1327432500000043,
            "durationTicks": 96,
            "midi": 56,
            "name": "G#3",
            "ticks": 117312,
            "time": 162.2122515,
            "velocity": 0.7874015748031497
          },
          {
            "duration": 0.1327432500000043,
            "durationTicks": 96,
            "midi": 58,
            "name": "A#3",
            "ticks": 117408,
            "time": 162.34499475,
            "velocity": 0.7874015748031497
          },
          {
            "duration": 0.1327432500000043,
            "durationTicks": 96,
            "midi": 61,
            "name": "C#4",
            "ticks": 117504,
            "time": 162.47773800000002,
            "velocity": 0.7874015748031497
          },
          {
            "duration": 0.1327432499999759,
            "durationTicks": 96,
            "midi": 58,
            "name": "A#3",
            "ticks": 117600,
            "time": 162.61048125000002,
            "velocity": 0.7874015748031497
          },
          {
            "duration": 0.2654865000000086,
            "durationTicks": 192,
            "midi": 65,
            "name": "F4",
            "ticks": 117696,
            "time": 162.7432245,
            "velocity": 0.7874015748031497
          },
          {
            "duration": 0.3982297500000129,
            "durationTicks": 288,
            "midi": 65,
            "name": "F4",
            "ticks": 117984,
            "time": 163.14145425,
            "velocity": 0.7874015748031497
          },
          {
            "duration": 0.5309729999999888,
            "durationTicks": 384,
            "midi": 63,
            "name": "D#4",
            "ticks": 118272,
            "time": 163.53968400000002,
            "velocity": 0.7874015748031497
          },
          {
            "duration": 0.1327432499999759,
            "durationTicks": 96,
            "midi": 56,
            "name": "G#3",
            "ticks": 118848,
            "time": 164.33614350000002,
            "velocity": 0.7874015748031497
          },
          {
            "duration": 0.1327432500000043,
            "durationTicks": 96,
            "midi": 58,
            "name": "A#3",
            "ticks": 118944,
            "time": 164.46888675,
            "velocity": 0.7874015748031497
          },
          {
            "duration": 0.1327432500000043,
            "durationTicks": 96,
            "midi": 60,
            "name": "C4",
            "ticks": 119040,
            "time": 164.60163,
            "velocity": 0.7874015748031497
          },
          {
            "duration": 0.1327432500000043,
            "durationTicks": 96,
            "midi": 58,
            "name": "A#3",
            "ticks": 119136,
            "time": 164.73437325,
            "velocity": 0.7874015748031497
          },
          {
            "duration": 0.2654865000000086,
            "durationTicks": 192,
            "midi": 63,
            "name": "D#4",
            "ticks": 119232,
            "time": 164.8671165,
            "velocity": 0.7874015748031497
          },
          {
            "duration": 0.3982297499999845,
            "durationTicks": 288,
            "midi": 63,
            "name": "D#4",
            "ticks": 119520,
            "time": 165.26534625000002,
            "velocity": 0.7874015748031497
          },
          {
            "duration": 0.5309729999999888,
            "durationTicks": 384,
            "midi": 61,
            "name": "C#4",
            "ticks": 119808,
            "time": 165.663576,
            "velocity": 0.7874015748031497
          },
          {
            "duration": 0.1327432500000043,
            "durationTicks": 96,
            "midi": 56,
            "name": "G#3",
            "ticks": 120384,
            "time": 166.4600355,
            "velocity": 0.7874015748031497
          },
          {
            "duration": 0.1327432500000043,
            "durationTicks": 96,
            "midi": 58,
            "name": "A#3",
            "ticks": 120480,
            "time": 166.59277875,
            "velocity": 0.7874015748031497
          },
          {
            "duration": 0.1327432500000043,
            "durationTicks": 96,
            "midi": 61,
            "name": "C#4",
            "ticks": 120576,
            "time": 166.725522,
            "velocity": 0.7874015748031497
          },
          {
            "duration": 0.1327432500000043,
            "durationTicks": 96,
            "midi": 58,
            "name": "A#3",
            "ticks": 120672,
            "time": 166.85826525000002,
            "velocity": 0.7874015748031497
          },
          {
            "duration": 0.5309729999999888,
            "durationTicks": 384,
            "midi": 61,
            "name": "C#4",
            "ticks": 120768,
            "time": 166.99100850000002,
            "velocity": 0.7874015748031497
          },
          {
            "duration": 0.2654865000000086,
            "durationTicks": 192,
            "midi": 63,
            "name": "D#4",
            "ticks": 121152,
            "time": 167.5219815,
            "velocity": 0.7874015748031497
          },
          {
            "duration": 0.5309729999999888,
            "durationTicks": 384,
            "midi": 58,
            "name": "A#3",
            "ticks": 121344,
            "time": 167.78746800000002,
            "velocity": 0.7874015748031497
          },
          {
            "duration": 0.2654865000000086,
            "durationTicks": 192,
            "midi": 56,
            "name": "G#3",
            "ticks": 121728,
            "time": 168.318441,
            "velocity": 0.7874015748031497
          },
          {
            "duration": 0.2654865000000086,
            "durationTicks": 192,
            "midi": 56,
            "name": "G#3",
            "ticks": 122112,
            "time": 168.849414,
            "velocity": 0.7874015748031497
          },
          {
            "duration": 0.2654865000000086,
            "durationTicks": 192,
            "midi": 63,
            "name": "D#4",
            "ticks": 122304,
            "time": 169.1149005,
            "velocity": 0.7874015748031497
          },
          {
            "duration": 0.5309729999999888,
            "durationTicks": 384,
            "midi": 61,
            "name": "C#4",
            "ticks": 122688,
            "time": 169.64587350000002,
            "velocity": 0.7874015748031497
          },
          {
            "duration": 0.1327432500000043,
            "durationTicks": 96,
            "midi": 56,
            "name": "G#3",
            "ticks": 123456,
            "time": 170.7078195,
            "velocity": 0.7874015748031497
          },
          {
            "duration": 0.1327432500000043,
            "durationTicks": 96,
            "midi": 58,
            "name": "A#3",
            "ticks": 123552,
            "time": 170.84056275,
            "velocity": 0.7874015748031497
          },
          {
            "duration": 0.1327432500000043,
            "durationTicks": 96,
            "midi": 61,
            "name": "C#4",
            "ticks": 123648,
            "time": 170.973306,
            "velocity": 0.7874015748031497
          },
          {
            "duration": 0.1327432500000043,
            "durationTicks": 96,
            "midi": 58,
            "name": "A#3",
            "ticks": 123744,
            "time": 171.10604925,
            "velocity": 0.7874015748031497
          },
          {
            "duration": 0.2654864999999802,
            "durationTicks": 192,
            "midi": 65,
            "name": "F4",
            "ticks": 123840,
            "time": 171.23879250000002,
            "velocity": 0.7874015748031497
          },
          {
            "duration": 0.2654865000000086,
            "durationTicks": 192,
            "midi": 65,
            "name": "F4",
            "ticks": 124128,
            "time": 171.63702225,
            "velocity": 0.7874015748031497
          },
          {
            "duration": 0.5309729999999888,
            "durationTicks": 384,
            "midi": 63,
            "name": "D#4",
            "ticks": 124416,
            "time": 172.035252,
            "velocity": 0.7874015748031497
          },
          {
            "duration": 0.1327432500000043,
            "durationTicks": 96,
            "midi": 56,
            "name": "G#3",
            "ticks": 124992,
            "time": 172.8317115,
            "velocity": 0.7874015748031497
          },
          {
            "duration": 0.1327432500000043,
            "durationTicks": 96,
            "midi": 58,
            "name": "A#3",
            "ticks": 125088,
            "time": 172.96445475000002,
            "velocity": 0.7874015748031497
          },
          {
            "duration": 0.1327432499999759,
            "durationTicks": 96,
            "midi": 60,
            "name": "C4",
            "ticks": 125184,
            "time": 173.09719800000002,
            "velocity": 0.7874015748031497
          },
          {
            "duration": 0.1327432500000043,
            "durationTicks": 96,
            "midi": 58,
            "name": "A#3",
            "ticks": 125280,
            "time": 173.22994125,
            "velocity": 0.7874015748031497
          },
          {
            "duration": 0.5309730000000172,
            "durationTicks": 384,
            "midi": 68,
            "name": "G#4",
            "ticks": 125376,
            "time": 173.3626845,
            "velocity": 0.7874015748031497
          },
          {
            "duration": 0.2654864999999802,
            "durationTicks": 192,
            "midi": 60,
            "name": "C4",
            "ticks": 125760,
            "time": 173.89365750000002,
            "velocity": 0.7874015748031497
          },
          {
            "duration": 0.6637162500000215,
            "durationTicks": 480,
            "midi": 61,
            "name": "C#4",
            "ticks": 125952,
            "time": 174.159144,
            "velocity": 0.7874015748031497
          },
          {
            "duration": 0.1327432500000043,
            "durationTicks": 96,
            "midi": 56,
            "name": "G#3",
            "ticks": 126528,
            "time": 174.9556035,
            "velocity": 0.7874015748031497
          },
          {
            "duration": 0.1327432500000043,
            "durationTicks": 96,
            "midi": 58,
            "name": "A#3",
            "ticks": 126624,
            "time": 175.08834675,
            "velocity": 0.7874015748031497
          },
          {
            "duration": 0.1327432500000043,
            "durationTicks": 96,
            "midi": 61,
            "name": "C#4",
            "ticks": 126720,
            "time": 175.22109,
            "velocity": 0.7874015748031497
          },
          {
            "duration": 0.1327432500000043,
            "durationTicks": 96,
            "midi": 58,
            "name": "A#3",
            "ticks": 126816,
            "time": 175.35383325,
            "velocity": 0.7874015748031497
          },
          {
            "duration": 0.5309729999999888,
            "durationTicks": 384,
            "midi": 61,
            "name": "C#4",
            "ticks": 126912,
            "time": 175.4865765,
            "velocity": 0.7874015748031497
          },
          {
            "duration": 0.2654865000000086,
            "durationTicks": 192,
            "midi": 63,
            "name": "D#4",
            "ticks": 127296,
            "time": 176.0175495,
            "velocity": 0.7874015748031497
          },
          {
            "duration": 0.7964594999999974,
            "durationTicks": 576,
            "midi": 58,
            "name": "A#3",
            "ticks": 127488,
            "time": 176.283036,
            "velocity": 0.7874015748031497
          },
          {
            "duration": 0.2654864999999802,
            "durationTicks": 192,
            "midi": 56,
            "name": "G#3",
            "ticks": 128256,
            "time": 177.34498200000002,
            "velocity": 0.7874015748031497
          },
          {
            "duration": 0.5309730000000172,
            "durationTicks": 384,
            "midi": 61,
            "name": "C#4",
            "ticks": 128448,
            "time": 177.6104685,
            "velocity": 0.7874015748031497
          },
          {
            "duration": 0.5309729999999888,
            "durationTicks": 384,
            "midi": 61,
            "name": "C#4",
            "ticks": 128832,
            "time": 178.1414415,
            "velocity": 0.7874015748031497
          },
          {
            "duration": 0.1327432500000043,
            "durationTicks": 96,
            "midi": 56,
            "name": "G#3",
            "ticks": 129600,
            "time": 179.20338750000002,
            "velocity": 0.7874015748031497
          },
          {
            "duration": 0.1327432499999759,
            "durationTicks": 96,
            "midi": 58,
            "name": "A#3",
            "ticks": 129696,
            "time": 179.33613075000002,
            "velocity": 0.7874015748031497
          },
          {
            "duration": 0.1327432500000043,
            "durationTicks": 96,
            "midi": 61,
            "name": "C#4",
            "ticks": 129792,
            "time": 179.468874,
            "velocity": 0.7874015748031497
          },
          {
            "duration": 0.1327432500000043,
            "durationTicks": 96,
            "midi": 58,
            "name": "A#3",
            "ticks": 129888,
            "time": 179.60161725,
            "velocity": 0.7874015748031497
          },
          {
            "duration": 0.2654865000000086,
            "durationTicks": 192,
            "midi": 65,
            "name": "F4",
            "ticks": 129984,
            "time": 179.7343605,
            "velocity": 0.7874015748031497
          },
          {
            "duration": 0.3982297499999845,
            "durationTicks": 288,
            "midi": 65,
            "name": "F4",
            "ticks": 130272,
            "time": 180.13259025000002,
            "velocity": 0.7874015748031497
          },
          {
            "duration": 0.5309730000000172,
            "durationTicks": 384,
            "midi": 63,
            "name": "D#4",
            "ticks": 130560,
            "time": 180.53082,
            "velocity": 0.7874015748031497
          },
          {
            "duration": 0.1327432500000043,
            "durationTicks": 96,
            "midi": 56,
            "name": "G#3",
            "ticks": 131136,
            "time": 181.3272795,
            "velocity": 0.7874015748031497
          },
          {
            "duration": 0.1327432500000043,
            "durationTicks": 96,
            "midi": 58,
            "name": "A#3",
            "ticks": 131232,
            "time": 181.46002275,
            "velocity": 0.7874015748031497
          },
          {
            "duration": 0.1327432500000043,
            "durationTicks": 96,
            "midi": 60,
            "name": "C4",
            "ticks": 131328,
            "time": 181.592766,
            "velocity": 0.7874015748031497
          },
          {
            "duration": 0.1327432500000043,
            "durationTicks": 96,
            "midi": 58,
            "name": "A#3",
            "ticks": 131424,
            "time": 181.72550925000002,
            "velocity": 0.7874015748031497
          },
          {
            "duration": 0.2654864999999802,
            "durationTicks": 192,
            "midi": 63,
            "name": "D#4",
            "ticks": 131520,
            "time": 181.85825250000002,
            "velocity": 0.7874015748031497
          },
          {
            "duration": 0.3982297500000129,
            "durationTicks": 288,
            "midi": 63,
            "name": "D#4",
            "ticks": 131808,
            "time": 182.25648225,
            "velocity": 0.7874015748031497
          },
          {
            "duration": 0.5309729999999888,
            "durationTicks": 384,
            "midi": 61,
            "name": "C#4",
            "ticks": 132096,
            "time": 182.65471200000002,
            "velocity": 0.7874015748031497
          },
          {
            "duration": 0.1327432500000043,
            "durationTicks": 96,
            "midi": 56,
            "name": "G#3",
            "ticks": 132672,
            "time": 183.45117150000002,
            "velocity": 0.7874015748031497
          },
          {
            "duration": 0.1327432500000043,
            "durationTicks": 96,
            "midi": 58,
            "name": "A#3",
            "ticks": 132768,
            "time": 183.58391475000002,
            "velocity": 0.7874015748031497
          },
          {
            "duration": 0.1327432499999759,
            "durationTicks": 96,
            "midi": 61,
            "name": "C#4",
            "ticks": 132864,
            "time": 183.71665800000002,
            "velocity": 0.7874015748031497
          },
          {
            "duration": 0.1327432500000043,
            "durationTicks": 96,
            "midi": 58,
            "name": "A#3",
            "ticks": 132960,
            "time": 183.84940125,
            "velocity": 0.7874015748031497
          },
          {
            "duration": 0.5309730000000172,
            "durationTicks": 384,
            "midi": 61,
            "name": "C#4",
            "ticks": 133056,
            "time": 183.9821445,
            "velocity": 0.7874015748031497
          },
          {
            "duration": 0.2654864999999802,
            "durationTicks": 192,
            "midi": 63,
            "name": "D#4",
            "ticks": 133440,
            "time": 184.51311750000002,
            "velocity": 0.7874015748031497
          },
          {
            "duration": 0.5309730000000172,
            "durationTicks": 384,
            "midi": 58,
            "name": "A#3",
            "ticks": 133632,
            "time": 184.778604,
            "velocity": 0.7874015748031497
          },
          {
            "duration": 0.2654864999999802,
            "durationTicks": 192,
            "midi": 56,
            "name": "G#3",
            "ticks": 134016,
            "time": 185.30957700000002,
            "velocity": 0.7874015748031497
          },
          {
            "duration": 0.2654865000000086,
            "durationTicks": 192,
            "midi": 56,
            "name": "G#3",
            "ticks": 134400,
            "time": 185.84055,
            "velocity": 0.7874015748031497
          },
          {
            "duration": 0.2654864999999802,
            "durationTicks": 192,
            "midi": 63,
            "name": "D#4",
            "ticks": 134592,
            "time": 186.10603650000002,
            "velocity": 0.7874015748031497
          },
          {
            "duration": 0.5309730000000172,
            "durationTicks": 384,
            "midi": 61,
            "name": "C#4",
            "ticks": 134976,
            "time": 186.6370095,
            "velocity": 0.7874015748031497
          },
          {
            "duration": 0.1327432500000043,
            "durationTicks": 96,
            "midi": 56,
            "name": "G#3",
            "ticks": 135744,
            "time": 187.6989555,
            "velocity": 0.7874015748031497
          },
          {
            "duration": 0.1327432500000043,
            "durationTicks": 96,
            "midi": 58,
            "name": "A#3",
            "ticks": 135840,
            "time": 187.83169875000002,
            "velocity": 0.7874015748031497
          },
          {
            "duration": 0.1327432500000043,
            "durationTicks": 96,
            "midi": 61,
            "name": "C#4",
            "ticks": 135936,
            "time": 187.96444200000002,
            "velocity": 0.7874015748031497
          },
          {
            "duration": 0.1327432499999759,
            "durationTicks": 96,
            "midi": 58,
            "name": "A#3",
            "ticks": 136032,
            "time": 188.09718525000002,
            "velocity": 0.7874015748031497
          },
          {
            "duration": 0.2654865000000086,
            "durationTicks": 192,
            "midi": 65,
            "name": "F4",
            "ticks": 136128,
            "time": 188.2299285,
            "velocity": 0.7874015748031497
          },
          {
            "duration": 0.2654865000000086,
            "durationTicks": 192,
            "midi": 65,
            "name": "F4",
            "ticks": 136416,
            "time": 188.62815825,
            "velocity": 0.7874015748031497
          },
          {
            "duration": 0.5309730000000172,
            "durationTicks": 384,
            "midi": 63,
            "name": "D#4",
            "ticks": 136704,
            "time": 189.026388,
            "velocity": 0.7874015748031497
          },
          {
            "duration": 0.1327432499999759,
            "durationTicks": 96,
            "midi": 56,
            "name": "G#3",
            "ticks": 137280,
            "time": 189.82284750000002,
            "velocity": 0.7874015748031497
          },
          {
            "duration": 0.1327432500000043,
            "durationTicks": 96,
            "midi": 58,
            "name": "A#3",
            "ticks": 137376,
            "time": 189.95559075,
            "velocity": 0.7874015748031497
          },
          {
            "duration": 0.1327432500000043,
            "durationTicks": 96,
            "midi": 60,
            "name": "C4",
            "ticks": 137472,
            "time": 190.088334,
            "velocity": 0.7874015748031497
          },
          {
            "duration": 0.1327432500000043,
            "durationTicks": 96,
            "midi": 58,
            "name": "A#3",
            "ticks": 137568,
            "time": 190.22107725,
            "velocity": 0.7874015748031497
          },
          {
            "duration": 0.5309729999999888,
            "durationTicks": 384,
            "midi": 68,
            "name": "G#4",
            "ticks": 137664,
            "time": 190.3538205,
            "velocity": 0.7874015748031497
          },
          {
            "duration": 0.2654865000000086,
            "durationTicks": 192,
            "midi": 60,
            "name": "C4",
            "ticks": 138048,
            "time": 190.8847935,
            "velocity": 0.7874015748031497
          },
          {
            "duration": 0.6637162499999931,
            "durationTicks": 480,
            "midi": 61,
            "name": "C#4",
            "ticks": 138240,
            "time": 191.15028,
            "velocity": 0.7874015748031497
          },
          {
            "duration": 0.1327432500000043,
            "durationTicks": 96,
            "midi": 56,
            "name": "G#3",
            "ticks": 138816,
            "time": 191.9467395,
            "velocity": 0.7874015748031497
          },
          {
            "duration": 0.1327432500000043,
            "durationTicks": 96,
            "midi": 58,
            "name": "A#3",
            "ticks": 138912,
            "time": 192.07948275,
            "velocity": 0.7874015748031497
          },
          {
            "duration": 0.1327432500000043,
            "durationTicks": 96,
            "midi": 61,
            "name": "C#4",
            "ticks": 139008,
            "time": 192.21222600000002,
            "velocity": 0.7874015748031497
          },
          {
            "duration": 0.1327432500000043,
            "durationTicks": 96,
            "midi": 58,
            "name": "A#3",
            "ticks": 139104,
            "time": 192.34496925000002,
            "velocity": 0.7874015748031497
          },
          {
            "duration": 0.5309729999999888,
            "durationTicks": 384,
            "midi": 61,
            "name": "C#4",
            "ticks": 139200,
            "time": 192.47771250000002,
            "velocity": 0.7874015748031497
          },
          {
            "duration": 0.2654865000000086,
            "durationTicks": 192,
            "midi": 63,
            "name": "D#4",
            "ticks": 139584,
            "time": 193.0086855,
            "velocity": 0.7874015748031497
          },
          {
            "duration": 0.7964594999999974,
            "durationTicks": 576,
            "midi": 58,
            "name": "A#3",
            "ticks": 139776,
            "time": 193.27417200000002,
            "velocity": 0.7874015748031497
          },
          {
            "duration": 0.2654865000000086,
            "durationTicks": 192,
            "midi": 56,
            "name": "G#3",
            "ticks": 140544,
            "time": 194.336118,
            "velocity": 0.7874015748031497
          },
          {
            "duration": 0.5309729999999888,
            "durationTicks": 384,
            "midi": 61,
            "name": "C#4",
            "ticks": 140736,
            "time": 194.6016045,
            "velocity": 0.7874015748031497
          },
          {
            "duration": 0.5309730000000172,
            "durationTicks": 384,
            "midi": 61,
            "name": "C#4",
            "ticks": 141120,
            "time": 195.1325775,
            "velocity": 0.7874015748031497
          },
          {
            "duration": 0.1327432500000043,
            "durationTicks": 96,
            "midi": 56,
            "name": "G#3",
            "ticks": 141888,
            "time": 196.1945235,
            "velocity": 0.7874015748031497
          },
          {
            "duration": 0.1327432500000043,
            "durationTicks": 96,
            "midi": 58,
            "name": "A#3",
            "ticks": 141984,
            "time": 196.32726675,
            "velocity": 0.7874015748031497
          },
          {
            "duration": 0.1327432500000043,
            "durationTicks": 96,
            "midi": 61,
            "name": "C#4",
            "ticks": 142080,
            "time": 196.46001,
            "velocity": 0.7874015748031497
          },
          {
            "duration": 0.1327432500000043,
            "durationTicks": 96,
            "midi": 58,
            "name": "A#3",
            "ticks": 142176,
            "time": 196.59275325000002,
            "velocity": 0.7874015748031497
          },
          {
            "duration": 0.2654864999999802,
            "durationTicks": 192,
            "midi": 65,
            "name": "F4",
            "ticks": 142272,
            "time": 196.72549650000002,
            "velocity": 0.7874015748031497
          },
          {
            "duration": 0.3982297500000129,
            "durationTicks": 288,
            "midi": 65,
            "name": "F4",
            "ticks": 142560,
            "time": 197.12372625,
            "velocity": 0.7874015748031497
          },
          {
            "duration": 0.5309729999999888,
            "durationTicks": 384,
            "midi": 63,
            "name": "D#4",
            "ticks": 142848,
            "time": 197.52195600000002,
            "velocity": 0.7874015748031497
          },
          {
            "duration": 0.1327432500000043,
            "durationTicks": 96,
            "midi": 56,
            "name": "G#3",
            "ticks": 143424,
            "time": 198.31841550000001,
            "velocity": 0.7874015748031497
          },
          {
            "duration": 0.1327432500000043,
            "durationTicks": 96,
            "midi": 58,
            "name": "A#3",
            "ticks": 143520,
            "time": 198.45115875000002,
            "velocity": 0.7874015748031497
          },
          {
            "duration": 0.1327432499999759,
            "durationTicks": 96,
            "midi": 60,
            "name": "C4",
            "ticks": 143616,
            "time": 198.58390200000002,
            "velocity": 0.7874015748031497
          },
          {
            "duration": 0.1327432500000043,
            "durationTicks": 96,
            "midi": 58,
            "name": "A#3",
            "ticks": 143712,
            "time": 198.71664525,
            "velocity": 0.7874015748031497
          },
          {
            "duration": 0.2654865000000086,
            "durationTicks": 192,
            "midi": 63,
            "name": "D#4",
            "ticks": 143808,
            "time": 198.8493885,
            "velocity": 0.7874015748031497
          },
          {
            "duration": 0.3982297499999845,
            "durationTicks": 288,
            "midi": 63,
            "name": "D#4",
            "ticks": 144096,
            "time": 199.24761825000002,
            "velocity": 0.7874015748031497
          },
          {
            "duration": 0.5309730000000172,
            "durationTicks": 384,
            "midi": 61,
            "name": "C#4",
            "ticks": 144384,
            "time": 199.645848,
            "velocity": 0.7874015748031497
          },
          {
            "duration": 0.1327432500000043,
            "durationTicks": 96,
            "midi": 56,
            "name": "G#3",
            "ticks": 144960,
            "time": 200.4423075,
            "velocity": 0.7874015748031497
          },
          {
            "duration": 0.1327432500000043,
            "durationTicks": 96,
            "midi": 58,
            "name": "A#3",
            "ticks": 145056,
            "time": 200.57505075,
            "velocity": 0.7874015748031497
          },
          {
            "duration": 0.1327432500000043,
            "durationTicks": 96,
            "midi": 61,
            "name": "C#4",
            "ticks": 145152,
            "time": 200.707794,
            "velocity": 0.7874015748031497
          },
          {
            "duration": 0.1327432500000043,
            "durationTicks": 96,
            "midi": 58,
            "name": "A#3",
            "ticks": 145248,
            "time": 200.84053725,
            "velocity": 0.7874015748031497
          },
          {
            "duration": 0.5309729999999888,
            "durationTicks": 384,
            "midi": 61,
            "name": "C#4",
            "ticks": 145344,
            "time": 200.97328050000002,
            "velocity": 0.7874015748031497
          },
          {
            "duration": 0.2654865000000086,
            "durationTicks": 192,
            "midi": 63,
            "name": "D#4",
            "ticks": 145728,
            "time": 201.5042535,
            "velocity": 0.7874015748031497
          },
          {
            "duration": 0.5309729999999888,
            "durationTicks": 384,
            "midi": 58,
            "name": "A#3",
            "ticks": 145920,
            "time": 201.76974,
            "velocity": 0.7874015748031497
          },
          {
            "duration": 0.2654865000000086,
            "durationTicks": 192,
            "midi": 56,
            "name": "G#3",
            "ticks": 146304,
            "time": 202.300713,
            "velocity": 0.7874015748031497
          },
          {
            "duration": 0.2654864999999802,
            "durationTicks": 192,
            "midi": 56,
            "name": "G#3",
            "ticks": 146688,
            "time": 202.83168600000002,
            "velocity": 0.7874015748031497
          },
          {
            "duration": 0.2654865000000086,
            "durationTicks": 192,
            "midi": 63,
            "name": "D#4",
            "ticks": 146880,
            "time": 203.0971725,
            "velocity": 0.7874015748031497
          },
          {
            "duration": 0.5309729999999888,
            "durationTicks": 384,
            "midi": 61,
            "name": "C#4",
            "ticks": 147264,
            "time": 203.62814550000002,
            "velocity": 0.7874015748031497
          },
          {
            "duration": 0.1327432499999759,
            "durationTicks": 96,
            "midi": 56,
            "name": "G#3",
            "ticks": 148032,
            "time": 204.69009150000002,
            "velocity": 0.7874015748031497
          },
          {
            "duration": 0.1327432500000043,
            "durationTicks": 96,
            "midi": 58,
            "name": "A#3",
            "ticks": 148128,
            "time": 204.82283475,
            "velocity": 0.7874015748031497
          },
          {
            "duration": 0.1327432500000043,
            "durationTicks": 96,
            "midi": 61,
            "name": "C#4",
            "ticks": 148224,
            "time": 204.955578,
            "velocity": 0.7874015748031497
          },
          {
            "duration": 0.1327432500000043,
            "durationTicks": 96,
            "midi": 58,
            "name": "A#3",
            "ticks": 148320,
            "time": 205.08832125,
            "velocity": 0.7874015748031497
          },
          {
            "duration": 0.2654865000000086,
            "durationTicks": 192,
            "midi": 65,
            "name": "F4",
            "ticks": 148416,
            "time": 205.2210645,
            "velocity": 0.7874015748031497
          },
          {
            "duration": 0.2654864999999802,
            "durationTicks": 192,
            "midi": 65,
            "name": "F4",
            "ticks": 148704,
            "time": 205.61929425000002,
            "velocity": 0.7874015748031497
          },
          {
            "duration": 0.5309729999999888,
            "durationTicks": 384,
            "midi": 63,
            "name": "D#4",
            "ticks": 148992,
            "time": 206.017524,
            "velocity": 0.7874015748031497
          },
          {
            "duration": 0.1327432500000043,
            "durationTicks": 96,
            "midi": 56,
            "name": "G#3",
            "ticks": 149568,
            "time": 206.8139835,
            "velocity": 0.7874015748031497
          },
          {
            "duration": 0.1327432500000043,
            "durationTicks": 96,
            "midi": 58,
            "name": "A#3",
            "ticks": 149664,
            "time": 206.94672675,
            "velocity": 0.7874015748031497
          },
          {
            "duration": 0.1327432500000043,
            "durationTicks": 96,
            "midi": 60,
            "name": "C4",
            "ticks": 149760,
            "time": 207.07947000000001,
            "velocity": 0.7874015748031497
          },
          {
            "duration": 0.1327432500000043,
            "durationTicks": 96,
            "midi": 58,
            "name": "A#3",
            "ticks": 149856,
            "time": 207.21221325000002,
            "velocity": 0.7874015748031497
          },
          {
            "duration": 0.5309729999999888,
            "durationTicks": 384,
            "midi": 68,
            "name": "G#4",
            "ticks": 149952,
            "time": 207.34495650000002,
            "velocity": 0.7874015748031497
          },
          {
            "duration": 0.2654865000000086,
            "durationTicks": 192,
            "midi": 60,
            "name": "C4",
            "ticks": 150336,
            "time": 207.8759295,
            "velocity": 0.7874015748031497
          },
          {
            "duration": 0.6637162499999931,
            "durationTicks": 480,
            "midi": 61,
            "name": "C#4",
            "ticks": 150528,
            "time": 208.14141600000002,
            "velocity": 0.7874015748031497
          },
          {
            "duration": 0.1327432500000043,
            "durationTicks": 96,
            "midi": 56,
            "name": "G#3",
            "ticks": 151104,
            "time": 208.93787550000002,
            "velocity": 0.7874015748031497
          },
          {
            "duration": 0.1327432499999759,
            "durationTicks": 96,
            "midi": 58,
            "name": "A#3",
            "ticks": 151200,
            "time": 209.07061875000002,
            "velocity": 0.7874015748031497
          },
          {
            "duration": 0.1327432500000043,
            "durationTicks": 96,
            "midi": 61,
            "name": "C#4",
            "ticks": 151296,
            "time": 209.203362,
            "velocity": 0.7874015748031497
          },
          {
            "duration": 0.1327432500000043,
            "durationTicks": 96,
            "midi": 58,
            "name": "A#3",
            "ticks": 151392,
            "time": 209.33610525,
            "velocity": 0.7874015748031497
          },
          {
            "duration": 0.5309730000000172,
            "durationTicks": 384,
            "midi": 61,
            "name": "C#4",
            "ticks": 151488,
            "time": 209.4688485,
            "velocity": 0.7874015748031497
          },
          {
            "duration": 0.2654864999999802,
            "durationTicks": 192,
            "midi": 63,
            "name": "D#4",
            "ticks": 151872,
            "time": 209.99982150000002,
            "velocity": 0.7874015748031497
          },
          {
            "duration": 0.7964594999999974,
            "durationTicks": 576,
            "midi": 58,
            "name": "A#3",
            "ticks": 152064,
            "time": 210.265308,
            "velocity": 0.7874015748031497
          },
          {
            "duration": 0.2654865000000086,
            "durationTicks": 192,
            "midi": 56,
            "name": "G#3",
            "ticks": 152832,
            "time": 211.327254,
            "velocity": 0.7874015748031497
          },
          {
            "duration": 0.5309729999999888,
            "durationTicks": 384,
            "midi": 61,
            "name": "C#4",
            "ticks": 153024,
            "time": 211.59274050000002,
            "velocity": 0.7874015748031497
          },
          {
            "duration": 0.5309730000000172,
            "durationTicks": 384,
            "midi": 61,
            "name": "C#4",
            "ticks": 153408,
            "time": 212.1237135,
            "velocity": 0.7874015748031497
          }
        ],
        "endOfTrackTicks": 153792
      },
      {
        "channel": 9,
        "controlChanges": {},
        "pitchBends": [],
        "instrument": {
          "family": "drums",
          "number": 0,
          "name": "standard kit"
        },
        "name": "Electric Drum Kit",
        "notes": [
          {
            "duration": 0.06637162500000016,
            "durationTicks": 48,
            "midi": 60,
            "name": "C4",
            "ticks": 960,
            "time": 1.3274325,
            "velocity": 0.29133858267716534
          },
          {
            "duration": 0.06637162500000016,
            "durationTicks": 48,
            "midi": 36,
            "name": "C2",
            "ticks": 960,
            "time": 1.3274325,
            "velocity": 0.3937007874015748
          },
          {
            "duration": 0.06637162500000016,
            "durationTicks": 48,
            "midi": 42,
            "name": "F#2",
            "ticks": 960,
            "time": 1.3274325,
            "velocity": 0.29133858267716534
          },
          {
            "duration": 0.06637162500000016,
            "durationTicks": 48,
            "midi": 82,
            "name": "A#5",
            "ticks": 960,
            "time": 1.3274325,
            "velocity": 0.29133858267716534
          },
          {
            "duration": 0.06637162499999993,
            "durationTicks": 48,
            "midi": 82,
            "name": "A#5",
            "ticks": 1056,
            "time": 1.46017575,
            "velocity": 0.14173228346456693
          },
          {
            "duration": 0.06637162499999993,
            "durationTicks": 48,
            "midi": 82,
            "name": "A#5",
            "ticks": 1152,
            "time": 1.5929190000000002,
            "velocity": 0.29133858267716534
          },
          {
            "duration": 0.06637162499999993,
            "durationTicks": 48,
            "midi": 70,
            "name": "A#4",
            "ticks": 1152,
            "time": 1.5929190000000002,
            "velocity": 0.29133858267716534
          },
          {
            "duration": 0.06637162499999993,
            "durationTicks": 48,
            "midi": 46,
            "name": "A#2",
            "ticks": 1152,
            "time": 1.5929190000000002,
            "velocity": 0.29133858267716534
          },
          {
            "duration": 0.06637162499999993,
            "durationTicks": 48,
            "midi": 82,
            "name": "A#5",
            "ticks": 1248,
            "time": 1.72566225,
            "velocity": 0.29133858267716534
          },
          {
            "duration": 0.06637162499999993,
            "durationTicks": 48,
            "midi": 60,
            "name": "C4",
            "ticks": 1248,
            "time": 1.72566225,
            "velocity": 0.29133858267716534
          },
          {
            "duration": 0.06637162499999993,
            "durationTicks": 48,
            "midi": 38,
            "name": "D2",
            "ticks": 1344,
            "time": 1.8584055000000002,
            "velocity": 0.29133858267716534
          },
          {
            "duration": 0.06637162499999993,
            "durationTicks": 48,
            "midi": 42,
            "name": "F#2",
            "ticks": 1344,
            "time": 1.8584055000000002,
            "velocity": 0.29133858267716534
          },
          {
            "duration": 0.06637162499999993,
            "durationTicks": 48,
            "midi": 60,
            "name": "C4",
            "ticks": 1344,
            "time": 1.8584055000000002,
            "velocity": 0.29133858267716534
          },
          {
            "duration": 0.06637162499999993,
            "durationTicks": 48,
            "midi": 39,
            "name": "D#2",
            "ticks": 1344,
            "time": 1.8584055000000002,
            "velocity": 0.3937007874015748
          },
          {
            "duration": 0.06637162499999993,
            "durationTicks": 48,
            "midi": 36,
            "name": "C2",
            "ticks": 1344,
            "time": 1.8584055000000002,
            "velocity": 0.3937007874015748
          },
          {
            "duration": 0.06637162500000016,
            "durationTicks": 48,
            "midi": 60,
            "name": "C4",
            "ticks": 1440,
            "time": 1.99114875,
            "velocity": 0.29133858267716534
          },
          {
            "duration": 0.06637162499999993,
            "durationTicks": 48,
            "midi": 70,
            "name": "A#4",
            "ticks": 1536,
            "time": 2.123892,
            "velocity": 0.29133858267716534
          },
          {
            "duration": 0.06637162499999993,
            "durationTicks": 48,
            "midi": 63,
            "name": "D#4",
            "ticks": 1536,
            "time": 2.123892,
            "velocity": 0.29133858267716534
          },
          {
            "duration": 0.06637162499999993,
            "durationTicks": 48,
            "midi": 42,
            "name": "F#2",
            "ticks": 1536,
            "time": 2.123892,
            "velocity": 0.3937007874015748
          },
          {
            "duration": 0.06637162499999993,
            "durationTicks": 48,
            "midi": 42,
            "name": "F#2",
            "ticks": 1632,
            "time": 2.25663525,
            "velocity": 0.3937007874015748
          },
          {
            "duration": 0.06637162499999993,
            "durationTicks": 48,
            "midi": 70,
            "name": "A#4",
            "ticks": 1632,
            "time": 2.25663525,
            "velocity": 0.29133858267716534
          },
          {
            "duration": 0.06637162499999993,
            "durationTicks": 48,
            "midi": 60,
            "name": "C4",
            "ticks": 1728,
            "time": 2.3893785000000003,
            "velocity": 0.29133858267716534
          },
          {
            "duration": 0.06637162499999993,
            "durationTicks": 48,
            "midi": 36,
            "name": "C2",
            "ticks": 1728,
            "time": 2.3893785000000003,
            "velocity": 0.3937007874015748
          },
          {
            "duration": 0.06637162499999993,
            "durationTicks": 48,
            "midi": 42,
            "name": "F#2",
            "ticks": 1728,
            "time": 2.3893785000000003,
            "velocity": 0.29133858267716534
          },
          {
            "duration": 0.06637162499999993,
            "durationTicks": 48,
            "midi": 70,
            "name": "A#4",
            "ticks": 1920,
            "time": 2.654865,
            "velocity": 0.29133858267716534
          },
          {
            "duration": 0.06637162499999993,
            "durationTicks": 48,
            "midi": 46,
            "name": "A#2",
            "ticks": 1920,
            "time": 2.654865,
            "velocity": 0.29133858267716534
          },
          {
            "duration": 0.06637162499999993,
            "durationTicks": 48,
            "midi": 60,
            "name": "C4",
            "ticks": 2016,
            "time": 2.7876082500000003,
            "velocity": 0.29133858267716534
          },
          {
            "duration": 0.06637162499999993,
            "durationTicks": 48,
            "midi": 60,
            "name": "C4",
            "ticks": 2112,
            "time": 2.9203515,
            "velocity": 0.29133858267716534
          },
          {
            "duration": 0.06637162499999993,
            "durationTicks": 48,
            "midi": 38,
            "name": "D2",
            "ticks": 2112,
            "time": 2.9203515,
            "velocity": 0.29133858267716534
          },
          {
            "duration": 0.06637162499999993,
            "durationTicks": 48,
            "midi": 36,
            "name": "C2",
            "ticks": 2112,
            "time": 2.9203515,
            "velocity": 0.3937007874015748
          },
          {
            "duration": 0.06637162499999993,
            "durationTicks": 48,
            "midi": 39,
            "name": "D#2",
            "ticks": 2112,
            "time": 2.9203515,
            "velocity": 0.3937007874015748
          },
          {
            "duration": 0.06637162499999993,
            "durationTicks": 48,
            "midi": 42,
            "name": "F#2",
            "ticks": 2112,
            "time": 2.9203515,
            "velocity": 0.29133858267716534
          },
          {
            "duration": 0.06637162499999993,
            "durationTicks": 48,
            "midi": 60,
            "name": "C4",
            "ticks": 2208,
            "time": 3.05309475,
            "velocity": 0.29133858267716534
          },
          {
            "duration": 0.06637162499999993,
            "durationTicks": 48,
            "midi": 63,
            "name": "D#4",
            "ticks": 2304,
            "time": 3.1858380000000004,
            "velocity": 0.29133858267716534
          },
          {
            "duration": 0.06637162499999993,
            "durationTicks": 48,
            "midi": 70,
            "name": "A#4",
            "ticks": 2304,
            "time": 3.1858380000000004,
            "velocity": 0.29133858267716534
          },
          {
            "duration": 0.06637162499999993,
            "durationTicks": 48,
            "midi": 46,
            "name": "A#2",
            "ticks": 2304,
            "time": 3.1858380000000004,
            "velocity": 0.29133858267716534
          },
          {
            "duration": 0.06637162499999993,
            "durationTicks": 48,
            "midi": 70,
            "name": "A#4",
            "ticks": 2400,
            "time": 3.3185812500000003,
            "velocity": 0.29133858267716534
          },
          {
            "duration": 0.06637162499999993,
            "durationTicks": 48,
            "midi": 60,
            "name": "C4",
            "ticks": 2496,
            "time": 3.4513245,
            "velocity": 0.29133858267716534
          },
          {
            "duration": 0.06637162499999993,
            "durationTicks": 48,
            "midi": 36,
            "name": "C2",
            "ticks": 2496,
            "time": 3.4513245,
            "velocity": 0.3937007874015748
          },
          {
            "duration": 0.06637162499999993,
            "durationTicks": 48,
            "midi": 42,
            "name": "F#2",
            "ticks": 2496,
            "time": 3.4513245,
            "velocity": 0.29133858267716534
          },
          {
            "duration": 0.06637162499999993,
            "durationTicks": 48,
            "midi": 70,
            "name": "A#4",
            "ticks": 2688,
            "time": 3.7168110000000003,
            "velocity": 0.29133858267716534
          },
          {
            "duration": 0.06637162499999993,
            "durationTicks": 48,
            "midi": 46,
            "name": "A#2",
            "ticks": 2688,
            "time": 3.7168110000000003,
            "velocity": 0.29133858267716534
          },
          {
            "duration": 0.06637162499999993,
            "durationTicks": 48,
            "midi": 60,
            "name": "C4",
            "ticks": 2784,
            "time": 3.84955425,
            "velocity": 0.29133858267716534
          },
          {
            "duration": 0.06637162499999993,
            "durationTicks": 48,
            "midi": 42,
            "name": "F#2",
            "ticks": 2880,
            "time": 3.9822975,
            "velocity": 0.29133858267716534
          },
          {
            "duration": 0.06637162499999993,
            "durationTicks": 48,
            "midi": 36,
            "name": "C2",
            "ticks": 2880,
            "time": 3.9822975,
            "velocity": 0.3937007874015748
          },
          {
            "duration": 0.06637162499999993,
            "durationTicks": 48,
            "midi": 38,
            "name": "D2",
            "ticks": 2880,
            "time": 3.9822975,
            "velocity": 0.29133858267716534
          },
          {
            "duration": 0.06637162499999993,
            "durationTicks": 48,
            "midi": 39,
            "name": "D#2",
            "ticks": 2880,
            "time": 3.9822975,
            "velocity": 0.3937007874015748
          },
          {
            "duration": 0.06637162499999993,
            "durationTicks": 48,
            "midi": 60,
            "name": "C4",
            "ticks": 2880,
            "time": 3.9822975,
            "velocity": 0.29133858267716534
          },
          {
            "duration": 0.06637162499999949,
            "durationTicks": 48,
            "midi": 60,
            "name": "C4",
            "ticks": 2976,
            "time": 4.11504075,
            "velocity": 0.29133858267716534
          },
          {
            "duration": 0.06637162500000038,
            "durationTicks": 48,
            "midi": 63,
            "name": "D#4",
            "ticks": 3072,
            "time": 4.247784,
            "velocity": 0.29133858267716534
          },
          {
            "duration": 0.06637162500000038,
            "durationTicks": 48,
            "midi": 46,
            "name": "A#2",
            "ticks": 3072,
            "time": 4.247784,
            "velocity": 0.29133858267716534
          },
          {
            "duration": 0.06637162500000038,
            "durationTicks": 48,
            "midi": 70,
            "name": "A#4",
            "ticks": 3072,
            "time": 4.247784,
            "velocity": 0.29133858267716534
          },
          {
            "duration": 0.06637162500000038,
            "durationTicks": 48,
            "midi": 70,
            "name": "A#4",
            "ticks": 3168,
            "time": 4.38052725,
            "velocity": 0.29133858267716534
          },
          {
            "duration": 0.06637162500000038,
            "durationTicks": 48,
            "midi": 42,
            "name": "F#2",
            "ticks": 3264,
            "time": 4.5132705,
            "velocity": 0.29133858267716534
          },
          {
            "duration": 0.06637162500000038,
            "durationTicks": 48,
            "midi": 60,
            "name": "C4",
            "ticks": 3264,
            "time": 4.5132705,
            "velocity": 0.29133858267716534
          },
          {
            "duration": 0.06637162500000038,
            "durationTicks": 48,
            "midi": 36,
            "name": "C2",
            "ticks": 3264,
            "time": 4.5132705,
            "velocity": 0.3937007874015748
          },
          {
            "duration": 0.06637162499999949,
            "durationTicks": 48,
            "midi": 70,
            "name": "A#4",
            "ticks": 3456,
            "time": 4.778757000000001,
            "velocity": 0.29133858267716534
          },
          {
            "duration": 0.06637162499999949,
            "durationTicks": 48,
            "midi": 46,
            "name": "A#2",
            "ticks": 3456,
            "time": 4.778757000000001,
            "velocity": 0.29133858267716534
          },
          {
            "duration": 0.06637162499999949,
            "durationTicks": 48,
            "midi": 60,
            "name": "C4",
            "ticks": 3552,
            "time": 4.9115002500000005,
            "velocity": 0.29133858267716534
          },
          {
            "duration": 0.06637162500000038,
            "durationTicks": 48,
            "midi": 36,
            "name": "C2",
            "ticks": 3648,
            "time": 5.0442435,
            "velocity": 0.3937007874015748
          },
          {
            "duration": 0.06637162500000038,
            "durationTicks": 48,
            "midi": 39,
            "name": "D#2",
            "ticks": 3648,
            "time": 5.0442435,
            "velocity": 0.3937007874015748
          },
          {
            "duration": 0.06637162500000038,
            "durationTicks": 48,
            "midi": 38,
            "name": "D2",
            "ticks": 3648,
            "time": 5.0442435,
            "velocity": 0.29133858267716534
          },
          {
            "duration": 0.06637162500000038,
            "durationTicks": 48,
            "midi": 42,
            "name": "F#2",
            "ticks": 3648,
            "time": 5.0442435,
            "velocity": 0.29133858267716534
          },
          {
            "duration": 0.06637162500000038,
            "durationTicks": 48,
            "midi": 60,
            "name": "C4",
            "ticks": 3648,
            "time": 5.0442435,
            "velocity": 0.29133858267716534
          },
          {
            "duration": 0.06637162500000038,
            "durationTicks": 48,
            "midi": 60,
            "name": "C4",
            "ticks": 3744,
            "time": 5.17698675,
            "velocity": 0.29133858267716534
          },
          {
            "duration": 0.06637162500000038,
            "durationTicks": 48,
            "midi": 63,
            "name": "D#4",
            "ticks": 3840,
            "time": 5.30973,
            "velocity": 0.29133858267716534
          },
          {
            "duration": 0.06637162500000038,
            "durationTicks": 48,
            "midi": 70,
            "name": "A#4",
            "ticks": 3840,
            "time": 5.30973,
            "velocity": 0.29133858267716534
          },
          {
            "duration": 0.06637162500000038,
            "durationTicks": 48,
            "midi": 46,
            "name": "A#2",
            "ticks": 3840,
            "time": 5.30973,
            "velocity": 0.29133858267716534
          },
          {
            "duration": 0.06637162500000038,
            "durationTicks": 48,
            "midi": 70,
            "name": "A#4",
            "ticks": 3936,
            "time": 5.44247325,
            "velocity": 0.29133858267716534
          },
          {
            "duration": 0.06637162499999949,
            "durationTicks": 48,
            "midi": 42,
            "name": "F#2",
            "ticks": 4032,
            "time": 5.575216500000001,
            "velocity": 0.29133858267716534
          },
          {
            "duration": 0.06637162499999949,
            "durationTicks": 48,
            "midi": 82,
            "name": "A#5",
            "ticks": 4032,
            "time": 5.575216500000001,
            "velocity": 0.29133858267716534
          },
          {
            "duration": 0.06637162499999949,
            "durationTicks": 48,
            "midi": 60,
            "name": "C4",
            "ticks": 4032,
            "time": 5.575216500000001,
            "velocity": 0.29133858267716534
          },
          {
            "duration": 0.06637162499999949,
            "durationTicks": 48,
            "midi": 36,
            "name": "C2",
            "ticks": 4032,
            "time": 5.575216500000001,
            "velocity": 0.3937007874015748
          },
          {
            "duration": 0.06637162499999949,
            "durationTicks": 48,
            "midi": 82,
            "name": "A#5",
            "ticks": 4128,
            "time": 5.7079597500000006,
            "velocity": 0.14173228346456693
          },
          {
            "duration": 0.06637162499999949,
            "durationTicks": 48,
            "midi": 46,
            "name": "A#2",
            "ticks": 4224,
            "time": 5.840703,
            "velocity": 0.29133858267716534
          },
          {
            "duration": 0.06637162499999949,
            "durationTicks": 48,
            "midi": 70,
            "name": "A#4",
            "ticks": 4224,
            "time": 5.840703,
            "velocity": 0.29133858267716534
          },
          {
            "duration": 0.06637162499999949,
            "durationTicks": 48,
            "midi": 82,
            "name": "A#5",
            "ticks": 4224,
            "time": 5.840703,
            "velocity": 0.29133858267716534
          },
          {
            "duration": 0.06637162500000038,
            "durationTicks": 48,
            "midi": 82,
            "name": "A#5",
            "ticks": 4320,
            "time": 5.97344625,
            "velocity": 0.29133858267716534
          },
          {
            "duration": 0.06637162500000038,
            "durationTicks": 48,
            "midi": 60,
            "name": "C4",
            "ticks": 4320,
            "time": 5.97344625,
            "velocity": 0.29133858267716534
          },
          {
            "duration": 0.06637162500000038,
            "durationTicks": 48,
            "midi": 38,
            "name": "D2",
            "ticks": 4416,
            "time": 6.1061895,
            "velocity": 0.29133858267716534
          },
          {
            "duration": 0.06637162500000038,
            "durationTicks": 48,
            "midi": 36,
            "name": "C2",
            "ticks": 4416,
            "time": 6.1061895,
            "velocity": 0.3937007874015748
          },
          {
            "duration": 0.06637162500000038,
            "durationTicks": 48,
            "midi": 39,
            "name": "D#2",
            "ticks": 4416,
            "time": 6.1061895,
            "velocity": 0.3937007874015748
          },
          {
            "duration": 0.06637162500000038,
            "durationTicks": 48,
            "midi": 42,
            "name": "F#2",
            "ticks": 4416,
            "time": 6.1061895,
            "velocity": 0.29133858267716534
          },
          {
            "duration": 0.06637162500000038,
            "durationTicks": 48,
            "midi": 60,
            "name": "C4",
            "ticks": 4416,
            "time": 6.1061895,
            "velocity": 0.29133858267716534
          },
          {
            "duration": 0.06637162500000038,
            "durationTicks": 48,
            "midi": 60,
            "name": "C4",
            "ticks": 4512,
            "time": 6.23893275,
            "velocity": 0.29133858267716534
          },
          {
            "duration": 0.06637162499999949,
            "durationTicks": 48,
            "midi": 70,
            "name": "A#4",
            "ticks": 4608,
            "time": 6.371676000000001,
            "velocity": 0.29133858267716534
          },
          {
            "duration": 0.06637162499999949,
            "durationTicks": 48,
            "midi": 42,
            "name": "F#2",
            "ticks": 4608,
            "time": 6.371676000000001,
            "velocity": 0.3937007874015748
          },
          {
            "duration": 0.06637162499999949,
            "durationTicks": 48,
            "midi": 63,
            "name": "D#4",
            "ticks": 4608,
            "time": 6.371676000000001,
            "velocity": 0.29133858267716534
          },
          {
            "duration": 0.06637162499999949,
            "durationTicks": 48,
            "midi": 42,
            "name": "F#2",
            "ticks": 4704,
            "time": 6.504419250000001,
            "velocity": 0.3937007874015748
          },
          {
            "duration": 0.06637162499999949,
            "durationTicks": 48,
            "midi": 70,
            "name": "A#4",
            "ticks": 4704,
            "time": 6.504419250000001,
            "velocity": 0.29133858267716534
          },
          {
            "duration": 0.06637162499999949,
            "durationTicks": 48,
            "midi": 60,
            "name": "C4",
            "ticks": 4800,
            "time": 6.6371625000000005,
            "velocity": 0.29133858267716534
          },
          {
            "duration": 0.06637162499999949,
            "durationTicks": 48,
            "midi": 36,
            "name": "C2",
            "ticks": 4800,
            "time": 6.6371625000000005,
            "velocity": 0.3937007874015748
          },
          {
            "duration": 0.06637162499999949,
            "durationTicks": 48,
            "midi": 42,
            "name": "F#2",
            "ticks": 4800,
            "time": 6.6371625000000005,
            "velocity": 0.29133858267716534
          },
          {
            "duration": 0.06637162500000038,
            "durationTicks": 48,
            "midi": 46,
            "name": "A#2",
            "ticks": 4992,
            "time": 6.902649,
            "velocity": 0.29133858267716534
          },
          {
            "duration": 0.06637162500000038,
            "durationTicks": 48,
            "midi": 70,
            "name": "A#4",
            "ticks": 4992,
            "time": 6.902649,
            "velocity": 0.29133858267716534
          },
          {
            "duration": 0.06637162500000038,
            "durationTicks": 48,
            "midi": 60,
            "name": "C4",
            "ticks": 5088,
            "time": 7.03539225,
            "velocity": 0.29133858267716534
          },
          {
            "duration": 0.06637162500000038,
            "durationTicks": 48,
            "midi": 36,
            "name": "C2",
            "ticks": 5184,
            "time": 7.1681355,
            "velocity": 0.3937007874015748
          },
          {
            "duration": 0.06637162500000038,
            "durationTicks": 48,
            "midi": 39,
            "name": "D#2",
            "ticks": 5184,
            "time": 7.1681355,
            "velocity": 0.3937007874015748
          },
          {
            "duration": 0.06637162500000038,
            "durationTicks": 48,
            "midi": 42,
            "name": "F#2",
            "ticks": 5184,
            "time": 7.1681355,
            "velocity": 0.29133858267716534
          },
          {
            "duration": 0.06637162500000038,
            "durationTicks": 48,
            "midi": 38,
            "name": "D2",
            "ticks": 5184,
            "time": 7.1681355,
            "velocity": 0.29133858267716534
          },
          {
            "duration": 0.06637162500000038,
            "durationTicks": 48,
            "midi": 60,
            "name": "C4",
            "ticks": 5184,
            "time": 7.1681355,
            "velocity": 0.29133858267716534
          },
          {
            "duration": 0.06637162499999949,
            "durationTicks": 48,
            "midi": 60,
            "name": "C4",
            "ticks": 5280,
            "time": 7.300878750000001,
            "velocity": 0.29133858267716534
          },
          {
            "duration": 0.06637162499999949,
            "durationTicks": 48,
            "midi": 63,
            "name": "D#4",
            "ticks": 5376,
            "time": 7.433622000000001,
            "velocity": 0.29133858267716534
          },
          {
            "duration": 0.06637162499999949,
            "durationTicks": 48,
            "midi": 70,
            "name": "A#4",
            "ticks": 5376,
            "time": 7.433622000000001,
            "velocity": 0.29133858267716534
          },
          {
            "duration": 0.06637162499999949,
            "durationTicks": 48,
            "midi": 46,
            "name": "A#2",
            "ticks": 5376,
            "time": 7.433622000000001,
            "velocity": 0.29133858267716534
          },
          {
            "duration": 0.06637162499999949,
            "durationTicks": 48,
            "midi": 70,
            "name": "A#4",
            "ticks": 5472,
            "time": 7.5663652500000005,
            "velocity": 0.29133858267716534
          },
          {
            "duration": 0.06637162500000038,
            "durationTicks": 48,
            "midi": 60,
            "name": "C4",
            "ticks": 5568,
            "time": 7.6991085,
            "velocity": 0.29133858267716534
          },
          {
            "duration": 0.06637162500000038,
            "durationTicks": 48,
            "midi": 36,
            "name": "C2",
            "ticks": 5568,
            "time": 7.6991085,
            "velocity": 0.3937007874015748
          },
          {
            "duration": 0.06637162500000038,
            "durationTicks": 48,
            "midi": 42,
            "name": "F#2",
            "ticks": 5568,
            "time": 7.6991085,
            "velocity": 0.29133858267716534
          },
          {
            "duration": 0.06637162499999949,
            "durationTicks": 48,
            "midi": 70,
            "name": "A#4",
            "ticks": 5760,
            "time": 7.964595,
            "velocity": 0.29133858267716534
          },
          {
            "duration": 0.06637162499999949,
            "durationTicks": 48,
            "midi": 46,
            "name": "A#2",
            "ticks": 5760,
            "time": 7.964595,
            "velocity": 0.29133858267716534
          },
          {
            "duration": 0.06637162500000038,
            "durationTicks": 48,
            "midi": 60,
            "name": "C4",
            "ticks": 5856,
            "time": 8.09733825,
            "velocity": 0.29133858267716534
          },
          {
            "duration": 0.06637162500000038,
            "durationTicks": 48,
            "midi": 38,
            "name": "D2",
            "ticks": 5952,
            "time": 8.2300815,
            "velocity": 0.29133858267716534
          },
          {
            "duration": 0.06637162500000038,
            "durationTicks": 48,
            "midi": 42,
            "name": "F#2",
            "ticks": 5952,
            "time": 8.2300815,
            "velocity": 0.29133858267716534
          },
          {
            "duration": 0.06637162500000038,
            "durationTicks": 48,
            "midi": 36,
            "name": "C2",
            "ticks": 5952,
            "time": 8.2300815,
            "velocity": 0.3937007874015748
          },
          {
            "duration": 0.06637162500000038,
            "durationTicks": 48,
            "midi": 39,
            "name": "D#2",
            "ticks": 5952,
            "time": 8.2300815,
            "velocity": 0.3937007874015748
          },
          {
            "duration": 0.06637162500000038,
            "durationTicks": 48,
            "midi": 60,
            "name": "C4",
            "ticks": 5952,
            "time": 8.2300815,
            "velocity": 0.29133858267716534
          },
          {
            "duration": 0.06637162500000038,
            "durationTicks": 48,
            "midi": 60,
            "name": "C4",
            "ticks": 6048,
            "time": 8.36282475,
            "velocity": 0.29133858267716534
          },
          {
            "duration": 0.06637162500000038,
            "durationTicks": 48,
            "midi": 46,
            "name": "A#2",
            "ticks": 6144,
            "time": 8.495568,
            "velocity": 0.29133858267716534
          },
          {
            "duration": 0.06637162500000038,
            "durationTicks": 48,
            "midi": 70,
            "name": "A#4",
            "ticks": 6144,
            "time": 8.495568,
            "velocity": 0.29133858267716534
          },
          {
            "duration": 0.06637162500000038,
            "durationTicks": 48,
            "midi": 63,
            "name": "D#4",
            "ticks": 6144,
            "time": 8.495568,
            "velocity": 0.29133858267716534
          },
          {
            "duration": 0.0663716249999986,
            "durationTicks": 48,
            "midi": 70,
            "name": "A#4",
            "ticks": 6240,
            "time": 8.628311250000001,
            "velocity": 0.29133858267716534
          },
          {
            "duration": 0.06637162500000038,
            "durationTicks": 48,
            "midi": 36,
            "name": "C2",
            "ticks": 6336,
            "time": 8.7610545,
            "velocity": 0.3937007874015748
          },
          {
            "duration": 0.06637162500000038,
            "durationTicks": 48,
            "midi": 42,
            "name": "F#2",
            "ticks": 6336,
            "time": 8.7610545,
            "velocity": 0.29133858267716534
          },
          {
            "duration": 0.06637162500000038,
            "durationTicks": 48,
            "midi": 60,
            "name": "C4",
            "ticks": 6336,
            "time": 8.7610545,
            "velocity": 0.29133858267716534
          },
          {
            "duration": 0.06637162500000038,
            "durationTicks": 48,
            "midi": 46,
            "name": "A#2",
            "ticks": 6528,
            "time": 9.026541,
            "velocity": 0.29133858267716534
          },
          {
            "duration": 0.06637162500000038,
            "durationTicks": 48,
            "midi": 70,
            "name": "A#4",
            "ticks": 6528,
            "time": 9.026541,
            "velocity": 0.29133858267716534
          },
          {
            "duration": 0.06637162500000038,
            "durationTicks": 48,
            "midi": 60,
            "name": "C4",
            "ticks": 6624,
            "time": 9.15928425,
            "velocity": 0.29133858267716534
          },
          {
            "duration": 0.06637162500000038,
            "durationTicks": 48,
            "midi": 38,
            "name": "D2",
            "ticks": 6720,
            "time": 9.2920275,
            "velocity": 0.29133858267716534
          },
          {
            "duration": 0.06637162500000038,
            "durationTicks": 48,
            "midi": 60,
            "name": "C4",
            "ticks": 6720,
            "time": 9.2920275,
            "velocity": 0.29133858267716534
          },
          {
            "duration": 0.06637162500000038,
            "durationTicks": 48,
            "midi": 36,
            "name": "C2",
            "ticks": 6720,
            "time": 9.2920275,
            "velocity": 0.3937007874015748
          },
          {
            "duration": 0.06637162500000038,
            "durationTicks": 48,
            "midi": 39,
            "name": "D#2",
            "ticks": 6720,
            "time": 9.2920275,
            "velocity": 0.3937007874015748
          },
          {
            "duration": 0.06637162500000038,
            "durationTicks": 48,
            "midi": 42,
            "name": "F#2",
            "ticks": 6720,
            "time": 9.2920275,
            "velocity": 0.29133858267716534
          },
          {
            "duration": 0.06637162500000038,
            "durationTicks": 48,
            "midi": 60,
            "name": "C4",
            "ticks": 6816,
            "time": 9.42477075,
            "velocity": 0.29133858267716534
          },
          {
            "duration": 0.0663716249999986,
            "durationTicks": 48,
            "midi": 70,
            "name": "A#4",
            "ticks": 6912,
            "time": 9.557514000000001,
            "velocity": 0.29133858267716534
          },
          {
            "duration": 0.0663716249999986,
            "durationTicks": 48,
            "midi": 46,
            "name": "A#2",
            "ticks": 6912,
            "time": 9.557514000000001,
            "velocity": 0.29133858267716534
          },
          {
            "duration": 0.0663716249999986,
            "durationTicks": 48,
            "midi": 63,
            "name": "D#4",
            "ticks": 6912,
            "time": 9.557514000000001,
            "velocity": 0.29133858267716534
          },
          {
            "duration": 0.06637162500000038,
            "durationTicks": 48,
            "midi": 70,
            "name": "A#4",
            "ticks": 7008,
            "time": 9.69025725,
            "velocity": 0.29133858267716534
          },
          {
            "duration": 0.06637162500000038,
            "durationTicks": 48,
            "midi": 36,
            "name": "C2",
            "ticks": 7104,
            "time": 9.823000500000001,
            "velocity": 0.3937007874015748
          },
          {
            "duration": 0.06637162500000038,
            "durationTicks": 48,
            "midi": 82,
            "name": "A#5",
            "ticks": 7104,
            "time": 9.823000500000001,
            "velocity": 0.29133858267716534
          },
          {
            "duration": 0.06637162500000038,
            "durationTicks": 48,
            "midi": 42,
            "name": "F#2",
            "ticks": 7104,
            "time": 9.823000500000001,
            "velocity": 0.29133858267716534
          },
          {
            "duration": 0.06637162500000038,
            "durationTicks": 48,
            "midi": 60,
            "name": "C4",
            "ticks": 7104,
            "time": 9.823000500000001,
            "velocity": 0.29133858267716534
          },
          {
            "duration": 0.06637162500000038,
            "durationTicks": 48,
            "midi": 82,
            "name": "A#5",
            "ticks": 7200,
            "time": 9.95574375,
            "velocity": 0.14173228346456693
          },
          {
            "duration": 0.06637162500000038,
            "durationTicks": 48,
            "midi": 46,
            "name": "A#2",
            "ticks": 7296,
            "time": 10.088487,
            "velocity": 0.29133858267716534
          },
          {
            "duration": 0.06637162500000038,
            "durationTicks": 48,
            "midi": 70,
            "name": "A#4",
            "ticks": 7296,
            "time": 10.088487,
            "velocity": 0.29133858267716534
          },
          {
            "duration": 0.06637162500000038,
            "durationTicks": 48,
            "midi": 82,
            "name": "A#5",
            "ticks": 7296,
            "time": 10.088487,
            "velocity": 0.29133858267716534
          },
          {
            "duration": 0.0663716249999986,
            "durationTicks": 48,
            "midi": 82,
            "name": "A#5",
            "ticks": 7392,
            "time": 10.221230250000001,
            "velocity": 0.29133858267716534
          },
          {
            "duration": 0.0663716249999986,
            "durationTicks": 48,
            "midi": 60,
            "name": "C4",
            "ticks": 7392,
            "time": 10.221230250000001,
            "velocity": 0.29133858267716534
          },
          {
            "duration": 0.06637162500000038,
            "durationTicks": 48,
            "midi": 60,
            "name": "C4",
            "ticks": 7488,
            "time": 10.3539735,
            "velocity": 0.29133858267716534
          },
          {
            "duration": 0.06637162500000038,
            "durationTicks": 48,
            "midi": 38,
            "name": "D2",
            "ticks": 7488,
            "time": 10.3539735,
            "velocity": 0.29133858267716534
          },
          {
            "duration": 0.06637162500000038,
            "durationTicks": 48,
            "midi": 42,
            "name": "F#2",
            "ticks": 7488,
            "time": 10.3539735,
            "velocity": 0.29133858267716534
          },
          {
            "duration": 0.06637162500000038,
            "durationTicks": 48,
            "midi": 36,
            "name": "C2",
            "ticks": 7488,
            "time": 10.3539735,
            "velocity": 0.3937007874015748
          },
          {
            "duration": 0.06637162500000038,
            "durationTicks": 48,
            "midi": 39,
            "name": "D#2",
            "ticks": 7488,
            "time": 10.3539735,
            "velocity": 0.3937007874015748
          },
          {
            "duration": 0.0663716249999986,
            "durationTicks": 48,
            "midi": 60,
            "name": "C4",
            "ticks": 7584,
            "time": 10.486716750000001,
            "velocity": 0.29133858267716534
          },
          {
            "duration": 0.06637162500000038,
            "durationTicks": 48,
            "midi": 63,
            "name": "D#4",
            "ticks": 7680,
            "time": 10.61946,
            "velocity": 0.29133858267716534
          },
          {
            "duration": 0.06637162500000038,
            "durationTicks": 48,
            "midi": 70,
            "name": "A#4",
            "ticks": 7680,
            "time": 10.61946,
            "velocity": 0.29133858267716534
          },
          {
            "duration": 0.06637162500000038,
            "durationTicks": 48,
            "midi": 42,
            "name": "F#2",
            "ticks": 7680,
            "time": 10.61946,
            "velocity": 0.3937007874015748
          },
          {
            "duration": 0.06637162500000038,
            "durationTicks": 48,
            "midi": 42,
            "name": "F#2",
            "ticks": 7776,
            "time": 10.75220325,
            "velocity": 0.3937007874015748
          },
          {
            "duration": 0.06637162500000038,
            "durationTicks": 48,
            "midi": 70,
            "name": "A#4",
            "ticks": 7776,
            "time": 10.75220325,
            "velocity": 0.29133858267716534
          },
          {
            "duration": 0.06637162500000038,
            "durationTicks": 48,
            "midi": 60,
            "name": "C4",
            "ticks": 7872,
            "time": 10.8849465,
            "velocity": 0.29133858267716534
          },
          {
            "duration": 0.06637162500000038,
            "durationTicks": 48,
            "midi": 42,
            "name": "F#2",
            "ticks": 7872,
            "time": 10.8849465,
            "velocity": 0.29133858267716534
          },
          {
            "duration": 0.06637162500000038,
            "durationTicks": 48,
            "midi": 36,
            "name": "C2",
            "ticks": 7872,
            "time": 10.8849465,
            "velocity": 0.3937007874015748
          },
          {
            "duration": 0.0663716249999986,
            "durationTicks": 48,
            "midi": 70,
            "name": "A#4",
            "ticks": 8064,
            "time": 11.150433000000001,
            "velocity": 0.29133858267716534
          },
          {
            "duration": 0.0663716249999986,
            "durationTicks": 48,
            "midi": 46,
            "name": "A#2",
            "ticks": 8064,
            "time": 11.150433000000001,
            "velocity": 0.29133858267716534
          },
          {
            "duration": 0.06637162500000038,
            "durationTicks": 48,
            "midi": 60,
            "name": "C4",
            "ticks": 8160,
            "time": 11.28317625,
            "velocity": 0.29133858267716534
          },
          {
            "duration": 0.06637162500000038,
            "durationTicks": 48,
            "midi": 39,
            "name": "D#2",
            "ticks": 8256,
            "time": 11.415919500000001,
            "velocity": 0.3937007874015748
          },
          {
            "duration": 0.06637162500000038,
            "durationTicks": 48,
            "midi": 38,
            "name": "D2",
            "ticks": 8256,
            "time": 11.415919500000001,
            "velocity": 0.29133858267716534
          },
          {
            "duration": 0.06637162500000038,
            "durationTicks": 48,
            "midi": 36,
            "name": "C2",
            "ticks": 8256,
            "time": 11.415919500000001,
            "velocity": 0.3937007874015748
          },
          {
            "duration": 0.06637162500000038,
            "durationTicks": 48,
            "midi": 42,
            "name": "F#2",
            "ticks": 8256,
            "time": 11.415919500000001,
            "velocity": 0.29133858267716534
          },
          {
            "duration": 0.06637162500000038,
            "durationTicks": 48,
            "midi": 60,
            "name": "C4",
            "ticks": 8256,
            "time": 11.415919500000001,
            "velocity": 0.29133858267716534
          },
          {
            "duration": 0.06637162500000038,
            "durationTicks": 48,
            "midi": 60,
            "name": "C4",
            "ticks": 8352,
            "time": 11.54866275,
            "velocity": 0.29133858267716534
          },
          {
            "duration": 0.06637162500000038,
            "durationTicks": 48,
            "midi": 46,
            "name": "A#2",
            "ticks": 8448,
            "time": 11.681406,
            "velocity": 0.29133858267716534
          },
          {
            "duration": 0.06637162500000038,
            "durationTicks": 48,
            "midi": 63,
            "name": "D#4",
            "ticks": 8448,
            "time": 11.681406,
            "velocity": 0.29133858267716534
          },
          {
            "duration": 0.06637162500000038,
            "durationTicks": 48,
            "midi": 70,
            "name": "A#4",
            "ticks": 8448,
            "time": 11.681406,
            "velocity": 0.29133858267716534
          },
          {
            "duration": 0.06637162500000038,
            "durationTicks": 48,
            "midi": 70,
            "name": "A#4",
            "ticks": 8544,
            "time": 11.81414925,
            "velocity": 0.29133858267716534
          },
          {
            "duration": 0.06637162500000038,
            "durationTicks": 48,
            "midi": 60,
            "name": "C4",
            "ticks": 8640,
            "time": 11.9468925,
            "velocity": 0.29133858267716534
          },
          {
            "duration": 0.06637162500000038,
            "durationTicks": 48,
            "midi": 36,
            "name": "C2",
            "ticks": 8640,
            "time": 11.9468925,
            "velocity": 0.3937007874015748
          },
          {
            "duration": 0.06637162500000038,
            "durationTicks": 48,
            "midi": 42,
            "name": "F#2",
            "ticks": 8640,
            "time": 11.9468925,
            "velocity": 0.29133858267716534
          },
          {
            "duration": 0.06637162500000038,
            "durationTicks": 48,
            "midi": 70,
            "name": "A#4",
            "ticks": 8832,
            "time": 12.212379,
            "velocity": 0.29133858267716534
          },
          {
            "duration": 0.06637162500000038,
            "durationTicks": 48,
            "midi": 46,
            "name": "A#2",
            "ticks": 8832,
            "time": 12.212379,
            "velocity": 0.29133858267716534
          },
          {
            "duration": 0.06637162500000038,
            "durationTicks": 48,
            "midi": 60,
            "name": "C4",
            "ticks": 8928,
            "time": 12.345122250000001,
            "velocity": 0.29133858267716534
          },
          {
            "duration": 0.06637162500000038,
            "durationTicks": 48,
            "midi": 36,
            "name": "C2",
            "ticks": 9024,
            "time": 12.4778655,
            "velocity": 0.3937007874015748
          },
          {
            "duration": 0.06637162500000038,
            "durationTicks": 48,
            "midi": 60,
            "name": "C4",
            "ticks": 9024,
            "time": 12.4778655,
            "velocity": 0.29133858267716534
          },
          {
            "duration": 0.06637162500000038,
            "durationTicks": 48,
            "midi": 42,
            "name": "F#2",
            "ticks": 9024,
            "time": 12.4778655,
            "velocity": 0.29133858267716534
          },
          {
            "duration": 0.06637162500000038,
            "durationTicks": 48,
            "midi": 38,
            "name": "D2",
            "ticks": 9024,
            "time": 12.4778655,
            "velocity": 0.29133858267716534
          },
          {
            "duration": 0.06637162500000038,
            "durationTicks": 48,
            "midi": 39,
            "name": "D#2",
            "ticks": 9024,
            "time": 12.4778655,
            "velocity": 0.3937007874015748
          },
          {
            "duration": 0.06637162500000038,
            "durationTicks": 48,
            "midi": 60,
            "name": "C4",
            "ticks": 9120,
            "time": 12.61060875,
            "velocity": 0.29133858267716534
          },
          {
            "duration": 0.0663716249999986,
            "durationTicks": 48,
            "midi": 63,
            "name": "D#4",
            "ticks": 9216,
            "time": 12.743352000000002,
            "velocity": 0.29133858267716534
          },
          {
            "duration": 0.0663716249999986,
            "durationTicks": 48,
            "midi": 70,
            "name": "A#4",
            "ticks": 9216,
            "time": 12.743352000000002,
            "velocity": 0.29133858267716534
          },
          {
            "duration": 0.0663716249999986,
            "durationTicks": 48,
            "midi": 46,
            "name": "A#2",
            "ticks": 9216,
            "time": 12.743352000000002,
            "velocity": 0.29133858267716534
          },
          {
            "duration": 0.06637162500000038,
            "durationTicks": 48,
            "midi": 70,
            "name": "A#4",
            "ticks": 9312,
            "time": 12.87609525,
            "velocity": 0.29133858267716534
          },
          {
            "duration": 0.0663716249999986,
            "durationTicks": 48,
            "midi": 36,
            "name": "C2",
            "ticks": 9408,
            "time": 13.008838500000001,
            "velocity": 0.3937007874015748
          },
          {
            "duration": 0.0663716249999986,
            "durationTicks": 48,
            "midi": 42,
            "name": "F#2",
            "ticks": 9408,
            "time": 13.008838500000001,
            "velocity": 0.29133858267716534
          },
          {
            "duration": 0.0663716249999986,
            "durationTicks": 48,
            "midi": 60,
            "name": "C4",
            "ticks": 9408,
            "time": 13.008838500000001,
            "velocity": 0.29133858267716534
          },
          {
            "duration": 0.06637162500000038,
            "durationTicks": 48,
            "midi": 46,
            "name": "A#2",
            "ticks": 9600,
            "time": 13.274325000000001,
            "velocity": 0.29133858267716534
          },
          {
            "duration": 0.06637162500000038,
            "durationTicks": 48,
            "midi": 70,
            "name": "A#4",
            "ticks": 9600,
            "time": 13.274325000000001,
            "velocity": 0.29133858267716534
          },
          {
            "duration": 0.06637162500000038,
            "durationTicks": 48,
            "midi": 60,
            "name": "C4",
            "ticks": 9696,
            "time": 13.40706825,
            "velocity": 0.29133858267716534
          },
          {
            "duration": 0.06637162500000038,
            "durationTicks": 48,
            "midi": 39,
            "name": "D#2",
            "ticks": 9792,
            "time": 13.5398115,
            "velocity": 0.3937007874015748
          },
          {
            "duration": 0.06637162500000038,
            "durationTicks": 48,
            "midi": 60,
            "name": "C4",
            "ticks": 9792,
            "time": 13.5398115,
            "velocity": 0.29133858267716534
          },
          {
            "duration": 0.06637162500000038,
            "durationTicks": 48,
            "midi": 36,
            "name": "C2",
            "ticks": 9792,
            "time": 13.5398115,
            "velocity": 0.3937007874015748
          },
          {
            "duration": 0.06637162500000038,
            "durationTicks": 48,
            "midi": 38,
            "name": "D2",
            "ticks": 9792,
            "time": 13.5398115,
            "velocity": 0.29133858267716534
          },
          {
            "duration": 0.06637162500000038,
            "durationTicks": 48,
            "midi": 42,
            "name": "F#2",
            "ticks": 9792,
            "time": 13.5398115,
            "velocity": 0.29133858267716534
          },
          {
            "duration": 0.0663716249999986,
            "durationTicks": 48,
            "midi": 60,
            "name": "C4",
            "ticks": 9888,
            "time": 13.672554750000002,
            "velocity": 0.29133858267716534
          },
          {
            "duration": 0.06637162500000038,
            "durationTicks": 48,
            "midi": 63,
            "name": "D#4",
            "ticks": 9984,
            "time": 13.805298,
            "velocity": 0.29133858267716534
          },
          {
            "duration": 0.06637162500000038,
            "durationTicks": 48,
            "midi": 46,
            "name": "A#2",
            "ticks": 9984,
            "time": 13.805298,
            "velocity": 0.29133858267716534
          },
          {
            "duration": 0.06637162500000038,
            "durationTicks": 48,
            "midi": 70,
            "name": "A#4",
            "ticks": 9984,
            "time": 13.805298,
            "velocity": 0.29133858267716534
          },
          {
            "duration": 0.0663716249999986,
            "durationTicks": 48,
            "midi": 70,
            "name": "A#4",
            "ticks": 10080,
            "time": 13.938041250000001,
            "velocity": 0.29133858267716534
          },
          {
            "duration": 0.06637162500000038,
            "durationTicks": 48,
            "midi": 60,
            "name": "C4",
            "ticks": 10176,
            "time": 14.0707845,
            "velocity": 0.29133858267716534
          },
          {
            "duration": 0.06637162500000038,
            "durationTicks": 48,
            "midi": 36,
            "name": "C2",
            "ticks": 10176,
            "time": 14.0707845,
            "velocity": 0.3937007874015748
          },
          {
            "duration": 0.06637162500000038,
            "durationTicks": 48,
            "midi": 82,
            "name": "A#5",
            "ticks": 10176,
            "time": 14.0707845,
            "velocity": 0.29133858267716534
          },
          {
            "duration": 0.06637162500000038,
            "durationTicks": 48,
            "midi": 42,
            "name": "F#2",
            "ticks": 10176,
            "time": 14.0707845,
            "velocity": 0.29133858267716534
          },
          {
            "duration": 0.06637162500000038,
            "durationTicks": 48,
            "midi": 82,
            "name": "A#5",
            "ticks": 10272,
            "time": 14.203527750000001,
            "velocity": 0.14173228346456693
          },
          {
            "duration": 0.06637162500000038,
            "durationTicks": 48,
            "midi": 82,
            "name": "A#5",
            "ticks": 10368,
            "time": 14.336271,
            "velocity": 0.29133858267716534
          },
          {
            "duration": 0.06637162500000038,
            "durationTicks": 48,
            "midi": 46,
            "name": "A#2",
            "ticks": 10368,
            "time": 14.336271,
            "velocity": 0.29133858267716534
          },
          {
            "duration": 0.06637162500000038,
            "durationTicks": 48,
            "midi": 70,
            "name": "A#4",
            "ticks": 10368,
            "time": 14.336271,
            "velocity": 0.29133858267716534
          },
          {
            "duration": 0.06637162500000038,
            "durationTicks": 48,
            "midi": 82,
            "name": "A#5",
            "ticks": 10464,
            "time": 14.46901425,
            "velocity": 0.29133858267716534
          },
          {
            "duration": 0.06637162500000038,
            "durationTicks": 48,
            "midi": 60,
            "name": "C4",
            "ticks": 10464,
            "time": 14.46901425,
            "velocity": 0.29133858267716534
          },
          {
            "duration": 0.0663716249999986,
            "durationTicks": 48,
            "midi": 36,
            "name": "C2",
            "ticks": 10560,
            "time": 14.601757500000001,
            "velocity": 0.3937007874015748
          },
          {
            "duration": 0.0663716249999986,
            "durationTicks": 48,
            "midi": 38,
            "name": "D2",
            "ticks": 10560,
            "time": 14.601757500000001,
            "velocity": 0.29133858267716534
          },
          {
            "duration": 0.0663716249999986,
            "durationTicks": 48,
            "midi": 60,
            "name": "C4",
            "ticks": 10560,
            "time": 14.601757500000001,
            "velocity": 0.29133858267716534
          },
          {
            "duration": 0.0663716249999986,
            "durationTicks": 48,
            "midi": 42,
            "name": "F#2",
            "ticks": 10560,
            "time": 14.601757500000001,
            "velocity": 0.29133858267716534
          },
          {
            "duration": 0.0663716249999986,
            "durationTicks": 48,
            "midi": 39,
            "name": "D#2",
            "ticks": 10560,
            "time": 14.601757500000001,
            "velocity": 0.3937007874015748
          },
          {
            "duration": 0.06637162500000038,
            "durationTicks": 48,
            "midi": 60,
            "name": "C4",
            "ticks": 10656,
            "time": 14.73450075,
            "velocity": 0.29133858267716534
          },
          {
            "duration": 0.06637162500000038,
            "durationTicks": 48,
            "midi": 42,
            "name": "F#2",
            "ticks": 10752,
            "time": 14.867244000000001,
            "velocity": 0.3937007874015748
          },
          {
            "duration": 0.06637162500000038,
            "durationTicks": 48,
            "midi": 70,
            "name": "A#4",
            "ticks": 10752,
            "time": 14.867244000000001,
            "velocity": 0.29133858267716534
          },
          {
            "duration": 0.06637162500000038,
            "durationTicks": 48,
            "midi": 63,
            "name": "D#4",
            "ticks": 10752,
            "time": 14.867244000000001,
            "velocity": 0.29133858267716534
          },
          {
            "duration": 0.06637162500000038,
            "durationTicks": 48,
            "midi": 42,
            "name": "F#2",
            "ticks": 10848,
            "time": 14.99998725,
            "velocity": 0.3937007874015748
          },
          {
            "duration": 0.06637162500000038,
            "durationTicks": 48,
            "midi": 70,
            "name": "A#4",
            "ticks": 10848,
            "time": 14.99998725,
            "velocity": 0.29133858267716534
          },
          {
            "duration": 0.06637162500000038,
            "durationTicks": 48,
            "midi": 60,
            "name": "C4",
            "ticks": 10944,
            "time": 15.132730500000001,
            "velocity": 0.29133858267716534
          },
          {
            "duration": 0.06637162500000038,
            "durationTicks": 48,
            "midi": 42,
            "name": "F#2",
            "ticks": 10944,
            "time": 15.132730500000001,
            "velocity": 0.29133858267716534
          },
          {
            "duration": 0.06637162500000038,
            "durationTicks": 48,
            "midi": 36,
            "name": "C2",
            "ticks": 10944,
            "time": 15.132730500000001,
            "velocity": 0.3937007874015748
          },
          {
            "duration": 0.06637162500000038,
            "durationTicks": 48,
            "midi": 70,
            "name": "A#4",
            "ticks": 11136,
            "time": 15.398217,
            "velocity": 0.29133858267716534
          },
          {
            "duration": 0.06637162500000038,
            "durationTicks": 48,
            "midi": 46,
            "name": "A#2",
            "ticks": 11136,
            "time": 15.398217,
            "velocity": 0.29133858267716534
          },
          {
            "duration": 0.0663716249999986,
            "durationTicks": 48,
            "midi": 60,
            "name": "C4",
            "ticks": 11232,
            "time": 15.530960250000001,
            "velocity": 0.29133858267716534
          },
          {
            "duration": 0.06637162500000038,
            "durationTicks": 48,
            "midi": 42,
            "name": "F#2",
            "ticks": 11328,
            "time": 15.6637035,
            "velocity": 0.29133858267716534
          },
          {
            "duration": 0.06637162500000038,
            "durationTicks": 48,
            "midi": 36,
            "name": "C2",
            "ticks": 11328,
            "time": 15.6637035,
            "velocity": 0.3937007874015748
          },
          {
            "duration": 0.06637162500000038,
            "durationTicks": 48,
            "midi": 60,
            "name": "C4",
            "ticks": 11328,
            "time": 15.6637035,
            "velocity": 0.29133858267716534
          },
          {
            "duration": 0.06637162500000038,
            "durationTicks": 48,
            "midi": 38,
            "name": "D2",
            "ticks": 11328,
            "time": 15.6637035,
            "velocity": 0.29133858267716534
          },
          {
            "duration": 0.06637162500000038,
            "durationTicks": 48,
            "midi": 39,
            "name": "D#2",
            "ticks": 11328,
            "time": 15.6637035,
            "velocity": 0.3937007874015748
          },
          {
            "duration": 0.06637162500000038,
            "durationTicks": 48,
            "midi": 60,
            "name": "C4",
            "ticks": 11424,
            "time": 15.796446750000001,
            "velocity": 0.29133858267716534
          },
          {
            "duration": 0.06637162500000038,
            "durationTicks": 48,
            "midi": 63,
            "name": "D#4",
            "ticks": 11520,
            "time": 15.92919,
            "velocity": 0.29133858267716534
          },
          {
            "duration": 0.06637162500000038,
            "durationTicks": 48,
            "midi": 70,
            "name": "A#4",
            "ticks": 11520,
            "time": 15.92919,
            "velocity": 0.29133858267716534
          },
          {
            "duration": 0.06637162500000038,
            "durationTicks": 48,
            "midi": 46,
            "name": "A#2",
            "ticks": 11520,
            "time": 15.92919,
            "velocity": 0.29133858267716534
          },
          {
            "duration": 0.06637162500000215,
            "durationTicks": 48,
            "midi": 70,
            "name": "A#4",
            "ticks": 11616,
            "time": 16.06193325,
            "velocity": 0.29133858267716534
          },
          {
            "duration": 0.06637162500000215,
            "durationTicks": 48,
            "midi": 42,
            "name": "F#2",
            "ticks": 11712,
            "time": 16.1946765,
            "velocity": 0.29133858267716534
          },
          {
            "duration": 0.06637162500000215,
            "durationTicks": 48,
            "midi": 60,
            "name": "C4",
            "ticks": 11712,
            "time": 16.1946765,
            "velocity": 0.29133858267716534
          },
          {
            "duration": 0.06637162500000215,
            "durationTicks": 48,
            "midi": 36,
            "name": "C2",
            "ticks": 11712,
            "time": 16.1946765,
            "velocity": 0.3937007874015748
          },
          {
            "duration": 0.0663716249999986,
            "durationTicks": 48,
            "midi": 70,
            "name": "A#4",
            "ticks": 11904,
            "time": 16.460163,
            "velocity": 0.29133858267716534
          },
          {
            "duration": 0.0663716249999986,
            "durationTicks": 48,
            "midi": 46,
            "name": "A#2",
            "ticks": 11904,
            "time": 16.460163,
            "velocity": 0.29133858267716534
          },
          {
            "duration": 0.0663716249999986,
            "durationTicks": 48,
            "midi": 60,
            "name": "C4",
            "ticks": 12000,
            "time": 16.592906250000002,
            "velocity": 0.29133858267716534
          },
          {
            "duration": 0.06637162500000215,
            "durationTicks": 48,
            "midi": 36,
            "name": "C2",
            "ticks": 12096,
            "time": 16.7256495,
            "velocity": 0.3937007874015748
          },
          {
            "duration": 0.06637162500000215,
            "durationTicks": 48,
            "midi": 39,
            "name": "D#2",
            "ticks": 12096,
            "time": 16.7256495,
            "velocity": 0.3937007874015748
          },
          {
            "duration": 0.06637162500000215,
            "durationTicks": 48,
            "midi": 60,
            "name": "C4",
            "ticks": 12096,
            "time": 16.7256495,
            "velocity": 0.29133858267716534
          },
          {
            "duration": 0.06637162500000215,
            "durationTicks": 48,
            "midi": 42,
            "name": "F#2",
            "ticks": 12096,
            "time": 16.7256495,
            "velocity": 0.29133858267716534
          },
          {
            "duration": 0.06637162500000215,
            "durationTicks": 48,
            "midi": 38,
            "name": "D2",
            "ticks": 12096,
            "time": 16.7256495,
            "velocity": 0.29133858267716534
          },
          {
            "duration": 0.06637162500000215,
            "durationTicks": 48,
            "midi": 60,
            "name": "C4",
            "ticks": 12192,
            "time": 16.85839275,
            "velocity": 0.29133858267716534
          },
          {
            "duration": 0.0663716249999986,
            "durationTicks": 48,
            "midi": 70,
            "name": "A#4",
            "ticks": 12288,
            "time": 16.991136,
            "velocity": 0.29133858267716534
          },
          {
            "duration": 0.0663716249999986,
            "durationTicks": 48,
            "midi": 63,
            "name": "D#4",
            "ticks": 12288,
            "time": 16.991136,
            "velocity": 0.29133858267716534
          },
          {
            "duration": 0.0663716249999986,
            "durationTicks": 48,
            "midi": 46,
            "name": "A#2",
            "ticks": 12288,
            "time": 16.991136,
            "velocity": 0.29133858267716534
          },
          {
            "duration": 0.0663716249999986,
            "durationTicks": 48,
            "midi": 70,
            "name": "A#4",
            "ticks": 12384,
            "time": 17.12387925,
            "velocity": 0.29133858267716534
          },
          {
            "duration": 0.0663716249999986,
            "durationTicks": 48,
            "midi": 36,
            "name": "C2",
            "ticks": 12480,
            "time": 17.256622500000002,
            "velocity": 0.3937007874015748
          },
          {
            "duration": 0.0663716249999986,
            "durationTicks": 48,
            "midi": 42,
            "name": "F#2",
            "ticks": 12480,
            "time": 17.256622500000002,
            "velocity": 0.29133858267716534
          },
          {
            "duration": 0.0663716249999986,
            "durationTicks": 48,
            "midi": 60,
            "name": "C4",
            "ticks": 12480,
            "time": 17.256622500000002,
            "velocity": 0.29133858267716534
          },
          {
            "duration": 0.06637162500000215,
            "durationTicks": 48,
            "midi": 70,
            "name": "A#4",
            "ticks": 12672,
            "time": 17.522109,
            "velocity": 0.29133858267716534
          },
          {
            "duration": 0.06637162500000215,
            "durationTicks": 48,
            "midi": 46,
            "name": "A#2",
            "ticks": 12672,
            "time": 17.522109,
            "velocity": 0.29133858267716534
          },
          {
            "duration": 0.0663716249999986,
            "durationTicks": 48,
            "midi": 60,
            "name": "C4",
            "ticks": 12768,
            "time": 17.65485225,
            "velocity": 0.29133858267716534
          },
          {
            "duration": 0.0663716249999986,
            "durationTicks": 48,
            "midi": 39,
            "name": "D#2",
            "ticks": 12864,
            "time": 17.787595500000002,
            "velocity": 0.3937007874015748
          },
          {
            "duration": 0.0663716249999986,
            "durationTicks": 48,
            "midi": 36,
            "name": "C2",
            "ticks": 12864,
            "time": 17.787595500000002,
            "velocity": 0.3937007874015748
          },
          {
            "duration": 0.0663716249999986,
            "durationTicks": 48,
            "midi": 38,
            "name": "D2",
            "ticks": 12864,
            "time": 17.787595500000002,
            "velocity": 0.29133858267716534
          },
          {
            "duration": 0.0663716249999986,
            "durationTicks": 48,
            "midi": 60,
            "name": "C4",
            "ticks": 12864,
            "time": 17.787595500000002,
            "velocity": 0.29133858267716534
          },
          {
            "duration": 0.0663716249999986,
            "durationTicks": 48,
            "midi": 42,
            "name": "F#2",
            "ticks": 12864,
            "time": 17.787595500000002,
            "velocity": 0.29133858267716534
          },
          {
            "duration": 0.0663716249999986,
            "durationTicks": 48,
            "midi": 60,
            "name": "C4",
            "ticks": 12960,
            "time": 17.920338750000003,
            "velocity": 0.29133858267716534
          },
          {
            "duration": 0.06637162500000215,
            "durationTicks": 48,
            "midi": 70,
            "name": "A#4",
            "ticks": 13056,
            "time": 18.053082,
            "velocity": 0.29133858267716534
          },
          {
            "duration": 0.06637162500000215,
            "durationTicks": 48,
            "midi": 63,
            "name": "D#4",
            "ticks": 13056,
            "time": 18.053082,
            "velocity": 0.29133858267716534
          },
          {
            "duration": 0.06637162500000215,
            "durationTicks": 48,
            "midi": 46,
            "name": "A#2",
            "ticks": 13056,
            "time": 18.053082,
            "velocity": 0.29133858267716534
          },
          {
            "duration": 0.0663716249999986,
            "durationTicks": 48,
            "midi": 70,
            "name": "A#4",
            "ticks": 13152,
            "time": 18.18582525,
            "velocity": 0.29133858267716534
          },
          {
            "duration": 0.0663716249999986,
            "durationTicks": 48,
            "midi": 60,
            "name": "C4",
            "ticks": 13248,
            "time": 18.3185685,
            "velocity": 0.29133858267716534
          },
          {
            "duration": 0.0663716249999986,
            "durationTicks": 48,
            "midi": 36,
            "name": "C2",
            "ticks": 13248,
            "time": 18.3185685,
            "velocity": 0.3937007874015748
          },
          {
            "duration": 0.0663716249999986,
            "durationTicks": 48,
            "midi": 42,
            "name": "F#2",
            "ticks": 13248,
            "time": 18.3185685,
            "velocity": 0.29133858267716534
          },
          {
            "duration": 0.0663716249999986,
            "durationTicks": 48,
            "midi": 82,
            "name": "A#5",
            "ticks": 13248,
            "time": 18.3185685,
            "velocity": 0.29133858267716534
          },
          {
            "duration": 0.0663716249999986,
            "durationTicks": 48,
            "midi": 82,
            "name": "A#5",
            "ticks": 13344,
            "time": 18.451311750000002,
            "velocity": 0.14173228346456693
          },
          {
            "duration": 0.06637162500000215,
            "durationTicks": 48,
            "midi": 46,
            "name": "A#2",
            "ticks": 13440,
            "time": 18.584055,
            "velocity": 0.29133858267716534
          },
          {
            "duration": 0.06637162500000215,
            "durationTicks": 48,
            "midi": 70,
            "name": "A#4",
            "ticks": 13440,
            "time": 18.584055,
            "velocity": 0.29133858267716534
          },
          {
            "duration": 0.06637162500000215,
            "durationTicks": 48,
            "midi": 82,
            "name": "A#5",
            "ticks": 13440,
            "time": 18.584055,
            "velocity": 0.29133858267716534
          },
          {
            "duration": 0.06637162500000215,
            "durationTicks": 48,
            "midi": 60,
            "name": "C4",
            "ticks": 13536,
            "time": 18.71679825,
            "velocity": 0.29133858267716534
          },
          {
            "duration": 0.06637162500000215,
            "durationTicks": 48,
            "midi": 82,
            "name": "A#5",
            "ticks": 13536,
            "time": 18.71679825,
            "velocity": 0.29133858267716534
          },
          {
            "duration": 0.0663716249999986,
            "durationTicks": 48,
            "midi": 38,
            "name": "D2",
            "ticks": 13632,
            "time": 18.8495415,
            "velocity": 0.29133858267716534
          },
          {
            "duration": 0.0663716249999986,
            "durationTicks": 48,
            "midi": 39,
            "name": "D#2",
            "ticks": 13632,
            "time": 18.8495415,
            "velocity": 0.3937007874015748
          },
          {
            "duration": 0.0663716249999986,
            "durationTicks": 48,
            "midi": 36,
            "name": "C2",
            "ticks": 13632,
            "time": 18.8495415,
            "velocity": 0.3937007874015748
          },
          {
            "duration": 0.0663716249999986,
            "durationTicks": 48,
            "midi": 42,
            "name": "F#2",
            "ticks": 13632,
            "time": 18.8495415,
            "velocity": 0.29133858267716534
          },
          {
            "duration": 0.0663716249999986,
            "durationTicks": 48,
            "midi": 60,
            "name": "C4",
            "ticks": 13632,
            "time": 18.8495415,
            "velocity": 0.29133858267716534
          },
          {
            "duration": 0.0663716249999986,
            "durationTicks": 48,
            "midi": 60,
            "name": "C4",
            "ticks": 13728,
            "time": 18.98228475,
            "velocity": 0.29133858267716534
          },
          {
            "duration": 0.0663716249999986,
            "durationTicks": 48,
            "midi": 42,
            "name": "F#2",
            "ticks": 13824,
            "time": 19.115028000000002,
            "velocity": 0.3937007874015748
          },
          {
            "duration": 0.0663716249999986,
            "durationTicks": 48,
            "midi": 70,
            "name": "A#4",
            "ticks": 13824,
            "time": 19.115028000000002,
            "velocity": 0.29133858267716534
          },
          {
            "duration": 0.0663716249999986,
            "durationTicks": 48,
            "midi": 63,
            "name": "D#4",
            "ticks": 13824,
            "time": 19.115028000000002,
            "velocity": 0.29133858267716534
          },
          {
            "duration": 0.06637162500000215,
            "durationTicks": 48,
            "midi": 70,
            "name": "A#4",
            "ticks": 13920,
            "time": 19.24777125,
            "velocity": 0.29133858267716534
          },
          {
            "duration": 0.06637162500000215,
            "durationTicks": 48,
            "midi": 42,
            "name": "F#2",
            "ticks": 13920,
            "time": 19.24777125,
            "velocity": 0.3937007874015748
          },
          {
            "duration": 0.06637162500000215,
            "durationTicks": 48,
            "midi": 60,
            "name": "C4",
            "ticks": 14016,
            "time": 19.3805145,
            "velocity": 0.29133858267716534
          },
          {
            "duration": 0.06637162500000215,
            "durationTicks": 48,
            "midi": 36,
            "name": "C2",
            "ticks": 14016,
            "time": 19.3805145,
            "velocity": 0.3937007874015748
          },
          {
            "duration": 0.06637162500000215,
            "durationTicks": 48,
            "midi": 42,
            "name": "F#2",
            "ticks": 14016,
            "time": 19.3805145,
            "velocity": 0.29133858267716534
          },
          {
            "duration": 0.0663716249999986,
            "durationTicks": 48,
            "midi": 70,
            "name": "A#4",
            "ticks": 14208,
            "time": 19.646001000000002,
            "velocity": 0.29133858267716534
          },
          {
            "duration": 0.0663716249999986,
            "durationTicks": 48,
            "midi": 46,
            "name": "A#2",
            "ticks": 14208,
            "time": 19.646001000000002,
            "velocity": 0.29133858267716534
          },
          {
            "duration": 0.0663716249999986,
            "durationTicks": 48,
            "midi": 60,
            "name": "C4",
            "ticks": 14304,
            "time": 19.778744250000003,
            "velocity": 0.29133858267716534
          },
          {
            "duration": 0.06637162500000215,
            "durationTicks": 48,
            "midi": 42,
            "name": "F#2",
            "ticks": 14400,
            "time": 19.9114875,
            "velocity": 0.29133858267716534
          },
          {
            "duration": 0.06637162500000215,
            "durationTicks": 48,
            "midi": 36,
            "name": "C2",
            "ticks": 14400,
            "time": 19.9114875,
            "velocity": 0.3937007874015748
          },
          {
            "duration": 0.06637162500000215,
            "durationTicks": 48,
            "midi": 38,
            "name": "D2",
            "ticks": 14400,
            "time": 19.9114875,
            "velocity": 0.29133858267716534
          },
          {
            "duration": 0.06637162500000215,
            "durationTicks": 48,
            "midi": 60,
            "name": "C4",
            "ticks": 14400,
            "time": 19.9114875,
            "velocity": 0.29133858267716534
          },
          {
            "duration": 0.06637162500000215,
            "durationTicks": 48,
            "midi": 39,
            "name": "D#2",
            "ticks": 14400,
            "time": 19.9114875,
            "velocity": 0.3937007874015748
          },
          {
            "duration": 0.06637162500000215,
            "durationTicks": 48,
            "midi": 60,
            "name": "C4",
            "ticks": 14496,
            "time": 20.04423075,
            "velocity": 0.29133858267716534
          },
          {
            "duration": 0.0663716249999986,
            "durationTicks": 48,
            "midi": 46,
            "name": "A#2",
            "ticks": 14592,
            "time": 20.176974,
            "velocity": 0.29133858267716534
          },
          {
            "duration": 0.0663716249999986,
            "durationTicks": 48,
            "midi": 63,
            "name": "D#4",
            "ticks": 14592,
            "time": 20.176974,
            "velocity": 0.29133858267716534
          },
          {
            "duration": 0.0663716249999986,
            "durationTicks": 48,
            "midi": 70,
            "name": "A#4",
            "ticks": 14592,
            "time": 20.176974,
            "velocity": 0.29133858267716534
          },
          {
            "duration": 0.0663716249999986,
            "durationTicks": 48,
            "midi": 70,
            "name": "A#4",
            "ticks": 14688,
            "time": 20.309717250000002,
            "velocity": 0.29133858267716534
          },
          {
            "duration": 0.0663716249999986,
            "durationTicks": 48,
            "midi": 60,
            "name": "C4",
            "ticks": 14784,
            "time": 20.442460500000003,
            "velocity": 0.29133858267716534
          },
          {
            "duration": 0.0663716249999986,
            "durationTicks": 48,
            "midi": 36,
            "name": "C2",
            "ticks": 14784,
            "time": 20.442460500000003,
            "velocity": 0.3937007874015748
          },
          {
            "duration": 0.0663716249999986,
            "durationTicks": 48,
            "midi": 42,
            "name": "F#2",
            "ticks": 14784,
            "time": 20.442460500000003,
            "velocity": 0.29133858267716534
          },
          {
            "duration": 0.0663716249999986,
            "durationTicks": 48,
            "midi": 46,
            "name": "A#2",
            "ticks": 14976,
            "time": 20.707947,
            "velocity": 0.29133858267716534
          },
          {
            "duration": 0.0663716249999986,
            "durationTicks": 48,
            "midi": 70,
            "name": "A#4",
            "ticks": 14976,
            "time": 20.707947,
            "velocity": 0.29133858267716534
          },
          {
            "duration": 0.0663716249999986,
            "durationTicks": 48,
            "midi": 60,
            "name": "C4",
            "ticks": 15072,
            "time": 20.84069025,
            "velocity": 0.29133858267716534
          },
          {
            "duration": 0.0663716249999986,
            "durationTicks": 48,
            "midi": 38,
            "name": "D2",
            "ticks": 15168,
            "time": 20.973433500000002,
            "velocity": 0.29133858267716534
          },
          {
            "duration": 0.0663716249999986,
            "durationTicks": 48,
            "midi": 39,
            "name": "D#2",
            "ticks": 15168,
            "time": 20.973433500000002,
            "velocity": 0.3937007874015748
          },
          {
            "duration": 0.0663716249999986,
            "durationTicks": 48,
            "midi": 36,
            "name": "C2",
            "ticks": 15168,
            "time": 20.973433500000002,
            "velocity": 0.3937007874015748
          },
          {
            "duration": 0.0663716249999986,
            "durationTicks": 48,
            "midi": 60,
            "name": "C4",
            "ticks": 15168,
            "time": 20.973433500000002,
            "velocity": 0.29133858267716534
          },
          {
            "duration": 0.0663716249999986,
            "durationTicks": 48,
            "midi": 42,
            "name": "F#2",
            "ticks": 15168,
            "time": 20.973433500000002,
            "velocity": 0.29133858267716534
          },
          {
            "duration": 0.06637162500000215,
            "durationTicks": 48,
            "midi": 60,
            "name": "C4",
            "ticks": 15264,
            "time": 21.10617675,
            "velocity": 0.29133858267716534
          },
          {
            "duration": 0.06637162500000215,
            "durationTicks": 48,
            "midi": 63,
            "name": "D#4",
            "ticks": 15360,
            "time": 21.23892,
            "velocity": 0.29133858267716534
          },
          {
            "duration": 0.06637162500000215,
            "durationTicks": 48,
            "midi": 70,
            "name": "A#4",
            "ticks": 15360,
            "time": 21.23892,
            "velocity": 0.29133858267716534
          },
          {
            "duration": 0.06637162500000215,
            "durationTicks": 48,
            "midi": 46,
            "name": "A#2",
            "ticks": 15360,
            "time": 21.23892,
            "velocity": 0.29133858267716534
          },
          {
            "duration": 0.0663716249999986,
            "durationTicks": 48,
            "midi": 70,
            "name": "A#4",
            "ticks": 15456,
            "time": 21.37166325,
            "velocity": 0.29133858267716534
          },
          {
            "duration": 0.0663716249999986,
            "durationTicks": 48,
            "midi": 42,
            "name": "F#2",
            "ticks": 15552,
            "time": 21.5044065,
            "velocity": 0.29133858267716534
          },
          {
            "duration": 0.0663716249999986,
            "durationTicks": 48,
            "midi": 60,
            "name": "C4",
            "ticks": 15552,
            "time": 21.5044065,
            "velocity": 0.29133858267716534
          },
          {
            "duration": 0.0663716249999986,
            "durationTicks": 48,
            "midi": 36,
            "name": "C2",
            "ticks": 15552,
            "time": 21.5044065,
            "velocity": 0.3937007874015748
          },
          {
            "duration": 0.06637162500000215,
            "durationTicks": 48,
            "midi": 46,
            "name": "A#2",
            "ticks": 15744,
            "time": 21.769893,
            "velocity": 0.29133858267716534
          },
          {
            "duration": 0.06637162500000215,
            "durationTicks": 48,
            "midi": 70,
            "name": "A#4",
            "ticks": 15744,
            "time": 21.769893,
            "velocity": 0.29133858267716534
          },
          {
            "duration": 0.06637162500000215,
            "durationTicks": 48,
            "midi": 60,
            "name": "C4",
            "ticks": 15840,
            "time": 21.90263625,
            "velocity": 0.29133858267716534
          },
          {
            "duration": 0.0663716249999986,
            "durationTicks": 48,
            "midi": 38,
            "name": "D2",
            "ticks": 15936,
            "time": 22.0353795,
            "velocity": 0.29133858267716534
          },
          {
            "duration": 0.0663716249999986,
            "durationTicks": 48,
            "midi": 39,
            "name": "D#2",
            "ticks": 15936,
            "time": 22.0353795,
            "velocity": 0.3937007874015748
          },
          {
            "duration": 0.0663716249999986,
            "durationTicks": 48,
            "midi": 60,
            "name": "C4",
            "ticks": 15936,
            "time": 22.0353795,
            "velocity": 0.29133858267716534
          },
          {
            "duration": 0.0663716249999986,
            "durationTicks": 48,
            "midi": 36,
            "name": "C2",
            "ticks": 15936,
            "time": 22.0353795,
            "velocity": 0.3937007874015748
          },
          {
            "duration": 0.0663716249999986,
            "durationTicks": 48,
            "midi": 42,
            "name": "F#2",
            "ticks": 15936,
            "time": 22.0353795,
            "velocity": 0.29133858267716534
          },
          {
            "duration": 0.0663716249999986,
            "durationTicks": 48,
            "midi": 60,
            "name": "C4",
            "ticks": 16032,
            "time": 22.168122750000002,
            "velocity": 0.29133858267716534
          },
          {
            "duration": 0.0663716249999986,
            "durationTicks": 48,
            "midi": 70,
            "name": "A#4",
            "ticks": 16128,
            "time": 22.300866000000003,
            "velocity": 0.29133858267716534
          },
          {
            "duration": 0.0663716249999986,
            "durationTicks": 48,
            "midi": 63,
            "name": "D#4",
            "ticks": 16128,
            "time": 22.300866000000003,
            "velocity": 0.29133858267716534
          },
          {
            "duration": 0.0663716249999986,
            "durationTicks": 48,
            "midi": 46,
            "name": "A#2",
            "ticks": 16128,
            "time": 22.300866000000003,
            "velocity": 0.29133858267716534
          },
          {
            "duration": 0.06637162500000215,
            "durationTicks": 48,
            "midi": 70,
            "name": "A#4",
            "ticks": 16224,
            "time": 22.43360925,
            "velocity": 0.29133858267716534
          },
          {
            "duration": 0.06637162500000215,
            "durationTicks": 48,
            "midi": 82,
            "name": "A#5",
            "ticks": 16320,
            "time": 22.5663525,
            "velocity": 0.29133858267716534
          },
          {
            "duration": 0.06637162500000215,
            "durationTicks": 48,
            "midi": 42,
            "name": "F#2",
            "ticks": 16320,
            "time": 22.5663525,
            "velocity": 0.29133858267716534
          },
          {
            "duration": 0.06637162500000215,
            "durationTicks": 48,
            "midi": 36,
            "name": "C2",
            "ticks": 16320,
            "time": 22.5663525,
            "velocity": 0.3937007874015748
          },
          {
            "duration": 0.06637162500000215,
            "durationTicks": 48,
            "midi": 60,
            "name": "C4",
            "ticks": 16320,
            "time": 22.5663525,
            "velocity": 0.29133858267716534
          },
          {
            "duration": 0.0663716249999986,
            "durationTicks": 48,
            "midi": 82,
            "name": "A#5",
            "ticks": 16416,
            "time": 22.69909575,
            "velocity": 0.14173228346456693
          },
          {
            "duration": 0.0663716249999986,
            "durationTicks": 48,
            "midi": 82,
            "name": "A#5",
            "ticks": 16512,
            "time": 22.831839000000002,
            "velocity": 0.29133858267716534
          },
          {
            "duration": 0.0663716249999986,
            "durationTicks": 48,
            "midi": 46,
            "name": "A#2",
            "ticks": 16512,
            "time": 22.831839000000002,
            "velocity": 0.29133858267716534
          },
          {
            "duration": 0.0663716249999986,
            "durationTicks": 48,
            "midi": 70,
            "name": "A#4",
            "ticks": 16512,
            "time": 22.831839000000002,
            "velocity": 0.29133858267716534
          },
          {
            "duration": 0.0663716249999986,
            "durationTicks": 48,
            "midi": 60,
            "name": "C4",
            "ticks": 16608,
            "time": 22.964582250000003,
            "velocity": 0.29133858267716534
          },
          {
            "duration": 0.0663716249999986,
            "durationTicks": 48,
            "midi": 82,
            "name": "A#5",
            "ticks": 16608,
            "time": 22.964582250000003,
            "velocity": 0.29133858267716534
          },
          {
            "duration": 0.06637162500000215,
            "durationTicks": 48,
            "midi": 39,
            "name": "D#2",
            "ticks": 16704,
            "time": 23.0973255,
            "velocity": 0.3937007874015748
          },
          {
            "duration": 0.06637162500000215,
            "durationTicks": 48,
            "midi": 38,
            "name": "D2",
            "ticks": 16704,
            "time": 23.0973255,
            "velocity": 0.29133858267716534
          },
          {
            "duration": 0.06637162500000215,
            "durationTicks": 48,
            "midi": 42,
            "name": "F#2",
            "ticks": 16704,
            "time": 23.0973255,
            "velocity": 0.29133858267716534
          },
          {
            "duration": 0.06637162500000215,
            "durationTicks": 48,
            "midi": 36,
            "name": "C2",
            "ticks": 16704,
            "time": 23.0973255,
            "velocity": 0.3937007874015748
          },
          {
            "duration": 0.06637162500000215,
            "durationTicks": 48,
            "midi": 60,
            "name": "C4",
            "ticks": 16704,
            "time": 23.0973255,
            "velocity": 0.29133858267716534
          },
          {
            "duration": 0.0663716249999986,
            "durationTicks": 48,
            "midi": 60,
            "name": "C4",
            "ticks": 16800,
            "time": 23.23006875,
            "velocity": 0.29133858267716534
          },
          {
            "duration": 0.0663716249999986,
            "durationTicks": 48,
            "midi": 63,
            "name": "D#4",
            "ticks": 16896,
            "time": 23.362812,
            "velocity": 0.29133858267716534
          },
          {
            "duration": 0.0663716249999986,
            "durationTicks": 48,
            "midi": 70,
            "name": "A#4",
            "ticks": 16896,
            "time": 23.362812,
            "velocity": 0.29133858267716534
          },
          {
            "duration": 0.0663716249999986,
            "durationTicks": 48,
            "midi": 42,
            "name": "F#2",
            "ticks": 16896,
            "time": 23.362812,
            "velocity": 0.3937007874015748
          },
          {
            "duration": 0.0663716249999986,
            "durationTicks": 48,
            "midi": 42,
            "name": "F#2",
            "ticks": 16992,
            "time": 23.495555250000002,
            "velocity": 0.3937007874015748
          },
          {
            "duration": 0.0663716249999986,
            "durationTicks": 48,
            "midi": 70,
            "name": "A#4",
            "ticks": 16992,
            "time": 23.495555250000002,
            "velocity": 0.29133858267716534
          },
          {
            "duration": 0.06637162500000215,
            "durationTicks": 48,
            "midi": 60,
            "name": "C4",
            "ticks": 17088,
            "time": 23.6282985,
            "velocity": 0.29133858267716534
          },
          {
            "duration": 0.06637162500000215,
            "durationTicks": 48,
            "midi": 42,
            "name": "F#2",
            "ticks": 17088,
            "time": 23.6282985,
            "velocity": 0.29133858267716534
          },
          {
            "duration": 0.06637162500000215,
            "durationTicks": 48,
            "midi": 36,
            "name": "C2",
            "ticks": 17088,
            "time": 23.6282985,
            "velocity": 0.3937007874015748
          },
          {
            "duration": 0.0663716249999986,
            "durationTicks": 48,
            "midi": 46,
            "name": "A#2",
            "ticks": 17280,
            "time": 23.893785,
            "velocity": 0.29133858267716534
          },
          {
            "duration": 0.0663716249999986,
            "durationTicks": 48,
            "midi": 70,
            "name": "A#4",
            "ticks": 17280,
            "time": 23.893785,
            "velocity": 0.29133858267716534
          },
          {
            "duration": 0.0663716249999986,
            "durationTicks": 48,
            "midi": 60,
            "name": "C4",
            "ticks": 17376,
            "time": 24.026528250000002,
            "velocity": 0.29133858267716534
          },
          {
            "duration": 0.0663716249999986,
            "durationTicks": 48,
            "midi": 42,
            "name": "F#2",
            "ticks": 17472,
            "time": 24.159271500000003,
            "velocity": 0.29133858267716534
          },
          {
            "duration": 0.0663716249999986,
            "durationTicks": 48,
            "midi": 38,
            "name": "D2",
            "ticks": 17472,
            "time": 24.159271500000003,
            "velocity": 0.29133858267716534
          },
          {
            "duration": 0.0663716249999986,
            "durationTicks": 48,
            "midi": 36,
            "name": "C2",
            "ticks": 17472,
            "time": 24.159271500000003,
            "velocity": 0.3937007874015748
          },
          {
            "duration": 0.0663716249999986,
            "durationTicks": 48,
            "midi": 60,
            "name": "C4",
            "ticks": 17472,
            "time": 24.159271500000003,
            "velocity": 0.29133858267716534
          },
          {
            "duration": 0.0663716249999986,
            "durationTicks": 48,
            "midi": 39,
            "name": "D#2",
            "ticks": 17472,
            "time": 24.159271500000003,
            "velocity": 0.3937007874015748
          },
          {
            "duration": 0.06637162500000215,
            "durationTicks": 48,
            "midi": 60,
            "name": "C4",
            "ticks": 17568,
            "time": 24.29201475,
            "velocity": 0.29133858267716534
          },
          {
            "duration": 0.06637162500000215,
            "durationTicks": 48,
            "midi": 63,
            "name": "D#4",
            "ticks": 17664,
            "time": 24.424758,
            "velocity": 0.29133858267716534
          },
          {
            "duration": 0.06637162500000215,
            "durationTicks": 48,
            "midi": 46,
            "name": "A#2",
            "ticks": 17664,
            "time": 24.424758,
            "velocity": 0.29133858267716534
          },
          {
            "duration": 0.06637162500000215,
            "durationTicks": 48,
            "midi": 70,
            "name": "A#4",
            "ticks": 17664,
            "time": 24.424758,
            "velocity": 0.29133858267716534
          },
          {
            "duration": 0.0663716249999986,
            "durationTicks": 48,
            "midi": 70,
            "name": "A#4",
            "ticks": 17760,
            "time": 24.55750125,
            "velocity": 0.29133858267716534
          },
          {
            "duration": 0.0663716249999986,
            "durationTicks": 48,
            "midi": 36,
            "name": "C2",
            "ticks": 17856,
            "time": 24.690244500000002,
            "velocity": 0.3937007874015748
          },
          {
            "duration": 0.0663716249999986,
            "durationTicks": 48,
            "midi": 42,
            "name": "F#2",
            "ticks": 17856,
            "time": 24.690244500000002,
            "velocity": 0.29133858267716534
          },
          {
            "duration": 0.0663716249999986,
            "durationTicks": 48,
            "midi": 60,
            "name": "C4",
            "ticks": 17856,
            "time": 24.690244500000002,
            "velocity": 0.29133858267716534
          },
          {
            "duration": 0.06637162500000215,
            "durationTicks": 48,
            "midi": 46,
            "name": "A#2",
            "ticks": 18048,
            "time": 24.955731,
            "velocity": 0.29133858267716534
          },
          {
            "duration": 0.06637162500000215,
            "durationTicks": 48,
            "midi": 70,
            "name": "A#4",
            "ticks": 18048,
            "time": 24.955731,
            "velocity": 0.29133858267716534
          },
          {
            "duration": 0.06637162500000215,
            "durationTicks": 48,
            "midi": 60,
            "name": "C4",
            "ticks": 18144,
            "time": 25.08847425,
            "velocity": 0.29133858267716534
          },
          {
            "duration": 0.0663716249999986,
            "durationTicks": 48,
            "midi": 42,
            "name": "F#2",
            "ticks": 18240,
            "time": 25.2212175,
            "velocity": 0.29133858267716534
          },
          {
            "duration": 0.0663716249999986,
            "durationTicks": 48,
            "midi": 60,
            "name": "C4",
            "ticks": 18240,
            "time": 25.2212175,
            "velocity": 0.29133858267716534
          },
          {
            "duration": 0.0663716249999986,
            "durationTicks": 48,
            "midi": 39,
            "name": "D#2",
            "ticks": 18240,
            "time": 25.2212175,
            "velocity": 0.3937007874015748
          },
          {
            "duration": 0.0663716249999986,
            "durationTicks": 48,
            "midi": 38,
            "name": "D2",
            "ticks": 18240,
            "time": 25.2212175,
            "velocity": 0.29133858267716534
          },
          {
            "duration": 0.0663716249999986,
            "durationTicks": 48,
            "midi": 36,
            "name": "C2",
            "ticks": 18240,
            "time": 25.2212175,
            "velocity": 0.3937007874015748
          },
          {
            "duration": 0.0663716249999986,
            "durationTicks": 48,
            "midi": 60,
            "name": "C4",
            "ticks": 18336,
            "time": 25.353960750000002,
            "velocity": 0.29133858267716534
          },
          {
            "duration": 0.0663716249999986,
            "durationTicks": 48,
            "midi": 70,
            "name": "A#4",
            "ticks": 18432,
            "time": 25.486704000000003,
            "velocity": 0.29133858267716534
          },
          {
            "duration": 0.0663716249999986,
            "durationTicks": 48,
            "midi": 63,
            "name": "D#4",
            "ticks": 18432,
            "time": 25.486704000000003,
            "velocity": 0.29133858267716534
          },
          {
            "duration": 0.0663716249999986,
            "durationTicks": 48,
            "midi": 46,
            "name": "A#2",
            "ticks": 18432,
            "time": 25.486704000000003,
            "velocity": 0.29133858267716534
          },
          {
            "duration": 0.06637162500000215,
            "durationTicks": 48,
            "midi": 70,
            "name": "A#4",
            "ticks": 18528,
            "time": 25.61944725,
            "velocity": 0.29133858267716534
          },
          {
            "duration": 0.0663716249999986,
            "durationTicks": 48,
            "midi": 36,
            "name": "C2",
            "ticks": 18624,
            "time": 25.7521905,
            "velocity": 0.3937007874015748
          },
          {
            "duration": 0.0663716249999986,
            "durationTicks": 48,
            "midi": 42,
            "name": "F#2",
            "ticks": 18624,
            "time": 25.7521905,
            "velocity": 0.29133858267716534
          },
          {
            "duration": 0.0663716249999986,
            "durationTicks": 48,
            "midi": 60,
            "name": "C4",
            "ticks": 18624,
            "time": 25.7521905,
            "velocity": 0.29133858267716534
          },
          {
            "duration": 0.0663716249999986,
            "durationTicks": 48,
            "midi": 46,
            "name": "A#2",
            "ticks": 18816,
            "time": 26.017677000000003,
            "velocity": 0.29133858267716534
          },
          {
            "duration": 0.0663716249999986,
            "durationTicks": 48,
            "midi": 70,
            "name": "A#4",
            "ticks": 18816,
            "time": 26.017677000000003,
            "velocity": 0.29133858267716534
          },
          {
            "duration": 0.06637162500000215,
            "durationTicks": 48,
            "midi": 60,
            "name": "C4",
            "ticks": 18912,
            "time": 26.15042025,
            "velocity": 0.29133858267716534
          },
          {
            "duration": 0.06637162500000215,
            "durationTicks": 48,
            "midi": 60,
            "name": "C4",
            "ticks": 19008,
            "time": 26.2831635,
            "velocity": 0.29133858267716534
          },
          {
            "duration": 0.06637162500000215,
            "durationTicks": 48,
            "midi": 42,
            "name": "F#2",
            "ticks": 19008,
            "time": 26.2831635,
            "velocity": 0.29133858267716534
          },
          {
            "duration": 0.06637162500000215,
            "durationTicks": 48,
            "midi": 39,
            "name": "D#2",
            "ticks": 19008,
            "time": 26.2831635,
            "velocity": 0.3937007874015748
          },
          {
            "duration": 0.06637162500000215,
            "durationTicks": 48,
            "midi": 36,
            "name": "C2",
            "ticks": 19008,
            "time": 26.2831635,
            "velocity": 0.3937007874015748
          },
          {
            "duration": 0.06637162500000215,
            "durationTicks": 48,
            "midi": 38,
            "name": "D2",
            "ticks": 19008,
            "time": 26.2831635,
            "velocity": 0.29133858267716534
          },
          {
            "duration": 0.0663716249999986,
            "durationTicks": 48,
            "midi": 60,
            "name": "C4",
            "ticks": 19104,
            "time": 26.41590675,
            "velocity": 0.29133858267716534
          },
          {
            "duration": 0.0663716249999986,
            "durationTicks": 48,
            "midi": 63,
            "name": "D#4",
            "ticks": 19200,
            "time": 26.548650000000002,
            "velocity": 0.29133858267716534
          },
          {
            "duration": 0.0663716249999986,
            "durationTicks": 48,
            "midi": 46,
            "name": "A#2",
            "ticks": 19200,
            "time": 26.548650000000002,
            "velocity": 0.29133858267716534
          },
          {
            "duration": 0.0663716249999986,
            "durationTicks": 48,
            "midi": 70,
            "name": "A#4",
            "ticks": 19200,
            "time": 26.548650000000002,
            "velocity": 0.29133858267716534
          },
          {
            "duration": 0.0663716249999986,
            "durationTicks": 48,
            "midi": 70,
            "name": "A#4",
            "ticks": 19296,
            "time": 26.681393250000003,
            "velocity": 0.29133858267716534
          },
          {
            "duration": 0.06637162500000215,
            "durationTicks": 48,
            "midi": 82,
            "name": "A#5",
            "ticks": 19392,
            "time": 26.8141365,
            "velocity": 0.29133858267716534
          },
          {
            "duration": 0.06637162500000215,
            "durationTicks": 48,
            "midi": 36,
            "name": "C2",
            "ticks": 19392,
            "time": 26.8141365,
            "velocity": 0.3937007874015748
          },
          {
            "duration": 0.06637162500000215,
            "durationTicks": 48,
            "midi": 42,
            "name": "F#2",
            "ticks": 19392,
            "time": 26.8141365,
            "velocity": 0.29133858267716534
          },
          {
            "duration": 0.06637162500000215,
            "durationTicks": 48,
            "midi": 60,
            "name": "C4",
            "ticks": 19392,
            "time": 26.8141365,
            "velocity": 0.29133858267716534
          },
          {
            "duration": 0.06637162500000215,
            "durationTicks": 48,
            "midi": 82,
            "name": "A#5",
            "ticks": 19488,
            "time": 26.94687975,
            "velocity": 0.14173228346456693
          },
          {
            "duration": 0.0663716249999986,
            "durationTicks": 48,
            "midi": 46,
            "name": "A#2",
            "ticks": 19584,
            "time": 27.079623,
            "velocity": 0.29133858267716534
          },
          {
            "duration": 0.0663716249999986,
            "durationTicks": 48,
            "midi": 70,
            "name": "A#4",
            "ticks": 19584,
            "time": 27.079623,
            "velocity": 0.29133858267716534
          },
          {
            "duration": 0.0663716249999986,
            "durationTicks": 48,
            "midi": 82,
            "name": "A#5",
            "ticks": 19584,
            "time": 27.079623,
            "velocity": 0.29133858267716534
          },
          {
            "duration": 0.0663716249999986,
            "durationTicks": 48,
            "midi": 60,
            "name": "C4",
            "ticks": 19680,
            "time": 27.212366250000002,
            "velocity": 0.29133858267716534
          },
          {
            "duration": 0.0663716249999986,
            "durationTicks": 48,
            "midi": 82,
            "name": "A#5",
            "ticks": 19680,
            "time": 27.212366250000002,
            "velocity": 0.29133858267716534
          },
          {
            "duration": 0.0663716249999986,
            "durationTicks": 48,
            "midi": 38,
            "name": "D2",
            "ticks": 19776,
            "time": 27.345109500000003,
            "velocity": 0.29133858267716534
          },
          {
            "duration": 0.0663716249999986,
            "durationTicks": 48,
            "midi": 42,
            "name": "F#2",
            "ticks": 19776,
            "time": 27.345109500000003,
            "velocity": 0.29133858267716534
          },
          {
            "duration": 0.0663716249999986,
            "durationTicks": 48,
            "midi": 60,
            "name": "C4",
            "ticks": 19776,
            "time": 27.345109500000003,
            "velocity": 0.29133858267716534
          },
          {
            "duration": 0.0663716249999986,
            "durationTicks": 48,
            "midi": 39,
            "name": "D#2",
            "ticks": 19776,
            "time": 27.345109500000003,
            "velocity": 0.3937007874015748
          },
          {
            "duration": 0.0663716249999986,
            "durationTicks": 48,
            "midi": 36,
            "name": "C2",
            "ticks": 19776,
            "time": 27.345109500000003,
            "velocity": 0.3937007874015748
          },
          {
            "duration": 0.06637162500000215,
            "durationTicks": 48,
            "midi": 60,
            "name": "C4",
            "ticks": 19872,
            "time": 27.47785275,
            "velocity": 0.29133858267716534
          },
          {
            "duration": 0.06637162500000215,
            "durationTicks": 48,
            "midi": 70,
            "name": "A#4",
            "ticks": 19968,
            "time": 27.610596,
            "velocity": 0.29133858267716534
          },
          {
            "duration": 0.06637162500000215,
            "durationTicks": 48,
            "midi": 42,
            "name": "F#2",
            "ticks": 19968,
            "time": 27.610596,
            "velocity": 0.3937007874015748
          },
          {
            "duration": 0.06637162500000215,
            "durationTicks": 48,
            "midi": 63,
            "name": "D#4",
            "ticks": 19968,
            "time": 27.610596,
            "velocity": 0.29133858267716534
          },
          {
            "duration": 0.0663716249999986,
            "durationTicks": 48,
            "midi": 70,
            "name": "A#4",
            "ticks": 20064,
            "time": 27.743339250000002,
            "velocity": 0.29133858267716534
          },
          {
            "duration": 0.0663716249999986,
            "durationTicks": 48,
            "midi": 42,
            "name": "F#2",
            "ticks": 20064,
            "time": 27.743339250000002,
            "velocity": 0.3937007874015748
          },
          {
            "duration": 0.0663716249999986,
            "durationTicks": 48,
            "midi": 36,
            "name": "C2",
            "ticks": 20160,
            "time": 27.876082500000003,
            "velocity": 0.3937007874015748
          },
          {
            "duration": 0.0663716249999986,
            "durationTicks": 48,
            "midi": 60,
            "name": "C4",
            "ticks": 20160,
            "time": 27.876082500000003,
            "velocity": 0.29133858267716534
          },
          {
            "duration": 0.0663716249999986,
            "durationTicks": 48,
            "midi": 42,
            "name": "F#2",
            "ticks": 20160,
            "time": 27.876082500000003,
            "velocity": 0.29133858267716534
          },
          {
            "duration": 0.06637162500000215,
            "durationTicks": 48,
            "midi": 70,
            "name": "A#4",
            "ticks": 20352,
            "time": 28.141569,
            "velocity": 0.29133858267716534
          },
          {
            "duration": 0.06637162500000215,
            "durationTicks": 48,
            "midi": 46,
            "name": "A#2",
            "ticks": 20352,
            "time": 28.141569,
            "velocity": 0.29133858267716534
          },
          {
            "duration": 0.0663716249999986,
            "durationTicks": 48,
            "midi": 60,
            "name": "C4",
            "ticks": 20448,
            "time": 28.27431225,
            "velocity": 0.29133858267716534
          },
          {
            "duration": 0.0663716249999986,
            "durationTicks": 48,
            "midi": 39,
            "name": "D#2",
            "ticks": 20544,
            "time": 28.407055500000002,
            "velocity": 0.3937007874015748
          },
          {
            "duration": 0.0663716249999986,
            "durationTicks": 48,
            "midi": 60,
            "name": "C4",
            "ticks": 20544,
            "time": 28.407055500000002,
            "velocity": 0.29133858267716534
          },
          {
            "duration": 0.0663716249999986,
            "durationTicks": 48,
            "midi": 42,
            "name": "F#2",
            "ticks": 20544,
            "time": 28.407055500000002,
            "velocity": 0.29133858267716534
          },
          {
            "duration": 0.0663716249999986,
            "durationTicks": 48,
            "midi": 36,
            "name": "C2",
            "ticks": 20544,
            "time": 28.407055500000002,
            "velocity": 0.3937007874015748
          },
          {
            "duration": 0.0663716249999986,
            "durationTicks": 48,
            "midi": 38,
            "name": "D2",
            "ticks": 20544,
            "time": 28.407055500000002,
            "velocity": 0.29133858267716534
          },
          {
            "duration": 0.0663716249999986,
            "durationTicks": 48,
            "midi": 60,
            "name": "C4",
            "ticks": 20640,
            "time": 28.539798750000003,
            "velocity": 0.29133858267716534
          },
          {
            "duration": 0.06637162500000215,
            "durationTicks": 48,
            "midi": 63,
            "name": "D#4",
            "ticks": 20736,
            "time": 28.672542,
            "velocity": 0.29133858267716534
          },
          {
            "duration": 0.06637162500000215,
            "durationTicks": 48,
            "midi": 70,
            "name": "A#4",
            "ticks": 20736,
            "time": 28.672542,
            "velocity": 0.29133858267716534
          },
          {
            "duration": 0.06637162500000215,
            "durationTicks": 48,
            "midi": 46,
            "name": "A#2",
            "ticks": 20736,
            "time": 28.672542,
            "velocity": 0.29133858267716534
          },
          {
            "duration": 0.06637162500000215,
            "durationTicks": 48,
            "midi": 70,
            "name": "A#4",
            "ticks": 20832,
            "time": 28.80528525,
            "velocity": 0.29133858267716534
          },
          {
            "duration": 0.0663716249999986,
            "durationTicks": 48,
            "midi": 36,
            "name": "C2",
            "ticks": 20928,
            "time": 28.9380285,
            "velocity": 0.3937007874015748
          },
          {
            "duration": 0.0663716249999986,
            "durationTicks": 48,
            "midi": 42,
            "name": "F#2",
            "ticks": 20928,
            "time": 28.9380285,
            "velocity": 0.29133858267716534
          },
          {
            "duration": 0.0663716249999986,
            "durationTicks": 48,
            "midi": 60,
            "name": "C4",
            "ticks": 20928,
            "time": 28.9380285,
            "velocity": 0.29133858267716534
          },
          {
            "duration": 0.0663716249999986,
            "durationTicks": 48,
            "midi": 46,
            "name": "A#2",
            "ticks": 21120,
            "time": 29.203515000000003,
            "velocity": 0.29133858267716534
          },
          {
            "duration": 0.0663716249999986,
            "durationTicks": 48,
            "midi": 70,
            "name": "A#4",
            "ticks": 21120,
            "time": 29.203515000000003,
            "velocity": 0.29133858267716534
          },
          {
            "duration": 0.06637162500000215,
            "durationTicks": 48,
            "midi": 60,
            "name": "C4",
            "ticks": 21216,
            "time": 29.33625825,
            "velocity": 0.29133858267716534
          },
          {
            "duration": 0.06637162500000215,
            "durationTicks": 48,
            "midi": 36,
            "name": "C2",
            "ticks": 21312,
            "time": 29.4690015,
            "velocity": 0.3937007874015748
          },
          {
            "duration": 0.06637162500000215,
            "durationTicks": 48,
            "midi": 60,
            "name": "C4",
            "ticks": 21312,
            "time": 29.4690015,
            "velocity": 0.29133858267716534
          },
          {
            "duration": 0.06637162500000215,
            "durationTicks": 48,
            "midi": 38,
            "name": "D2",
            "ticks": 21312,
            "time": 29.4690015,
            "velocity": 0.29133858267716534
          },
          {
            "duration": 0.06637162500000215,
            "durationTicks": 48,
            "midi": 42,
            "name": "F#2",
            "ticks": 21312,
            "time": 29.4690015,
            "velocity": 0.29133858267716534
          },
          {
            "duration": 0.06637162500000215,
            "durationTicks": 48,
            "midi": 39,
            "name": "D#2",
            "ticks": 21312,
            "time": 29.4690015,
            "velocity": 0.3937007874015748
          },
          {
            "duration": 0.0663716249999986,
            "durationTicks": 48,
            "midi": 60,
            "name": "C4",
            "ticks": 21408,
            "time": 29.60174475,
            "velocity": 0.29133858267716534
          },
          {
            "duration": 0.0663716249999986,
            "durationTicks": 48,
            "midi": 63,
            "name": "D#4",
            "ticks": 21504,
            "time": 29.734488000000002,
            "velocity": 0.29133858267716534
          },
          {
            "duration": 0.0663716249999986,
            "durationTicks": 48,
            "midi": 70,
            "name": "A#4",
            "ticks": 21504,
            "time": 29.734488000000002,
            "velocity": 0.29133858267716534
          },
          {
            "duration": 0.0663716249999986,
            "durationTicks": 48,
            "midi": 46,
            "name": "A#2",
            "ticks": 21504,
            "time": 29.734488000000002,
            "velocity": 0.29133858267716534
          },
          {
            "duration": 0.0663716249999986,
            "durationTicks": 48,
            "midi": 70,
            "name": "A#4",
            "ticks": 21600,
            "time": 29.867231250000003,
            "velocity": 0.29133858267716534
          },
          {
            "duration": 0.06637162500000215,
            "durationTicks": 48,
            "midi": 36,
            "name": "C2",
            "ticks": 21696,
            "time": 29.9999745,
            "velocity": 0.3937007874015748
          },
          {
            "duration": 0.06637162500000215,
            "durationTicks": 48,
            "midi": 42,
            "name": "F#2",
            "ticks": 21696,
            "time": 29.9999745,
            "velocity": 0.29133858267716534
          },
          {
            "duration": 0.06637162500000215,
            "durationTicks": 48,
            "midi": 60,
            "name": "C4",
            "ticks": 21696,
            "time": 29.9999745,
            "velocity": 0.29133858267716534
          },
          {
            "duration": 0.0663716249999986,
            "durationTicks": 48,
            "midi": 46,
            "name": "A#2",
            "ticks": 21888,
            "time": 30.265461000000002,
            "velocity": 0.29133858267716534
          },
          {
            "duration": 0.0663716249999986,
            "durationTicks": 48,
            "midi": 70,
            "name": "A#4",
            "ticks": 21888,
            "time": 30.265461000000002,
            "velocity": 0.29133858267716534
          },
          {
            "duration": 0.0663716249999986,
            "durationTicks": 48,
            "midi": 60,
            "name": "C4",
            "ticks": 21984,
            "time": 30.398204250000003,
            "velocity": 0.29133858267716534
          },
          {
            "duration": 0.06637162500000215,
            "durationTicks": 48,
            "midi": 38,
            "name": "D2",
            "ticks": 22080,
            "time": 30.5309475,
            "velocity": 0.29133858267716534
          },
          {
            "duration": 0.06637162500000215,
            "durationTicks": 48,
            "midi": 39,
            "name": "D#2",
            "ticks": 22080,
            "time": 30.5309475,
            "velocity": 0.3937007874015748
          },
          {
            "duration": 0.06637162500000215,
            "durationTicks": 48,
            "midi": 42,
            "name": "F#2",
            "ticks": 22080,
            "time": 30.5309475,
            "velocity": 0.29133858267716534
          },
          {
            "duration": 0.06637162500000215,
            "durationTicks": 48,
            "midi": 36,
            "name": "C2",
            "ticks": 22080,
            "time": 30.5309475,
            "velocity": 0.3937007874015748
          },
          {
            "duration": 0.06637162500000215,
            "durationTicks": 48,
            "midi": 60,
            "name": "C4",
            "ticks": 22080,
            "time": 30.5309475,
            "velocity": 0.29133858267716534
          },
          {
            "duration": 0.06637162500000215,
            "durationTicks": 48,
            "midi": 60,
            "name": "C4",
            "ticks": 22176,
            "time": 30.66369075,
            "velocity": 0.29133858267716534
          },
          {
            "duration": 0.0663716249999986,
            "durationTicks": 48,
            "midi": 63,
            "name": "D#4",
            "ticks": 22272,
            "time": 30.796434,
            "velocity": 0.29133858267716534
          },
          {
            "duration": 0.0663716249999986,
            "durationTicks": 48,
            "midi": 46,
            "name": "A#2",
            "ticks": 22272,
            "time": 30.796434,
            "velocity": 0.29133858267716534
          },
          {
            "duration": 0.0663716249999986,
            "durationTicks": 48,
            "midi": 70,
            "name": "A#4",
            "ticks": 22272,
            "time": 30.796434,
            "velocity": 0.29133858267716534
          },
          {
            "duration": 0.0663716249999986,
            "durationTicks": 48,
            "midi": 70,
            "name": "A#4",
            "ticks": 22368,
            "time": 30.929177250000002,
            "velocity": 0.29133858267716534
          },
          {
            "duration": 0.0663716249999986,
            "durationTicks": 48,
            "midi": 82,
            "name": "A#5",
            "ticks": 22464,
            "time": 31.061920500000003,
            "velocity": 0.29133858267716534
          },
          {
            "duration": 0.0663716249999986,
            "durationTicks": 48,
            "midi": 36,
            "name": "C2",
            "ticks": 22464,
            "time": 31.061920500000003,
            "velocity": 0.3937007874015748
          },
          {
            "duration": 0.0663716249999986,
            "durationTicks": 48,
            "midi": 42,
            "name": "F#2",
            "ticks": 22464,
            "time": 31.061920500000003,
            "velocity": 0.29133858267716534
          },
          {
            "duration": 0.0663716249999986,
            "durationTicks": 48,
            "midi": 60,
            "name": "C4",
            "ticks": 22464,
            "time": 31.061920500000003,
            "velocity": 0.29133858267716534
          },
          {
            "duration": 0.06637162500000215,
            "durationTicks": 48,
            "midi": 82,
            "name": "A#5",
            "ticks": 22560,
            "time": 31.19466375,
            "velocity": 0.14173228346456693
          },
          {
            "duration": 0.06637162500000215,
            "durationTicks": 48,
            "midi": 46,
            "name": "A#2",
            "ticks": 22656,
            "time": 31.327407,
            "velocity": 0.29133858267716534
          },
          {
            "duration": 0.06637162500000215,
            "durationTicks": 48,
            "midi": 70,
            "name": "A#4",
            "ticks": 22656,
            "time": 31.327407,
            "velocity": 0.29133858267716534
          },
          {
            "duration": 0.06637162500000215,
            "durationTicks": 48,
            "midi": 82,
            "name": "A#5",
            "ticks": 22656,
            "time": 31.327407,
            "velocity": 0.29133858267716534
          },
          {
            "duration": 0.0663716249999986,
            "durationTicks": 48,
            "midi": 82,
            "name": "A#5",
            "ticks": 22752,
            "time": 31.46015025,
            "velocity": 0.29133858267716534
          },
          {
            "duration": 0.0663716249999986,
            "durationTicks": 48,
            "midi": 60,
            "name": "C4",
            "ticks": 22752,
            "time": 31.46015025,
            "velocity": 0.29133858267716534
          },
          {
            "duration": 0.0663716249999986,
            "durationTicks": 48,
            "midi": 60,
            "name": "C4",
            "ticks": 22848,
            "time": 31.592893500000002,
            "velocity": 0.29133858267716534
          },
          {
            "duration": 0.0663716249999986,
            "durationTicks": 48,
            "midi": 38,
            "name": "D2",
            "ticks": 22848,
            "time": 31.592893500000002,
            "velocity": 0.29133858267716534
          },
          {
            "duration": 0.0663716249999986,
            "durationTicks": 48,
            "midi": 39,
            "name": "D#2",
            "ticks": 22848,
            "time": 31.592893500000002,
            "velocity": 0.3937007874015748
          },
          {
            "duration": 0.0663716249999986,
            "durationTicks": 48,
            "midi": 36,
            "name": "C2",
            "ticks": 22848,
            "time": 31.592893500000002,
            "velocity": 0.3937007874015748
          },
          {
            "duration": 0.0663716249999986,
            "durationTicks": 48,
            "midi": 42,
            "name": "F#2",
            "ticks": 22848,
            "time": 31.592893500000002,
            "velocity": 0.29133858267716534
          },
          {
            "duration": 0.0663716249999986,
            "durationTicks": 48,
            "midi": 60,
            "name": "C4",
            "ticks": 22944,
            "time": 31.725636750000003,
            "velocity": 0.29133858267716534
          },
          {
            "duration": 0.06637162500000215,
            "durationTicks": 48,
            "midi": 42,
            "name": "F#2",
            "ticks": 23040,
            "time": 31.85838,
            "velocity": 0.3937007874015748
          },
          {
            "duration": 0.06637162500000215,
            "durationTicks": 48,
            "midi": 70,
            "name": "A#4",
            "ticks": 23040,
            "time": 31.85838,
            "velocity": 0.29133858267716534
          },
          {
            "duration": 0.06637162500000215,
            "durationTicks": 48,
            "midi": 63,
            "name": "D#4",
            "ticks": 23040,
            "time": 31.85838,
            "velocity": 0.29133858267716534
          },
          {
            "duration": 0.06637162500000215,
            "durationTicks": 48,
            "midi": 70,
            "name": "A#4",
            "ticks": 23136,
            "time": 31.99112325,
            "velocity": 0.29133858267716534
          },
          {
            "duration": 0.06637162500000215,
            "durationTicks": 48,
            "midi": 42,
            "name": "F#2",
            "ticks": 23136,
            "time": 31.99112325,
            "velocity": 0.3937007874015748
          },
          {
            "duration": 0.06637162500000215,
            "durationTicks": 48,
            "midi": 60,
            "name": "C4",
            "ticks": 23232,
            "time": 32.1238665,
            "velocity": 0.29133858267716534
          },
          {
            "duration": 0.06637162500000215,
            "durationTicks": 48,
            "midi": 42,
            "name": "F#2",
            "ticks": 23232,
            "time": 32.1238665,
            "velocity": 0.29133858267716534
          },
          {
            "duration": 0.06637162500000215,
            "durationTicks": 48,
            "midi": 36,
            "name": "C2",
            "ticks": 23232,
            "time": 32.1238665,
            "velocity": 0.3937007874015748
          },
          {
            "duration": 0.06637162500000215,
            "durationTicks": 48,
            "midi": 46,
            "name": "A#2",
            "ticks": 23424,
            "time": 32.389353,
            "velocity": 0.29133858267716534
          },
          {
            "duration": 0.06637162500000215,
            "durationTicks": 48,
            "midi": 70,
            "name": "A#4",
            "ticks": 23424,
            "time": 32.389353,
            "velocity": 0.29133858267716534
          },
          {
            "duration": 0.06637162499999505,
            "durationTicks": 48,
            "midi": 60,
            "name": "C4",
            "ticks": 23520,
            "time": 32.522096250000004,
            "velocity": 0.29133858267716534
          },
          {
            "duration": 0.06637162500000215,
            "durationTicks": 48,
            "midi": 36,
            "name": "C2",
            "ticks": 23616,
            "time": 32.6548395,
            "velocity": 0.3937007874015748
          },
          {
            "duration": 0.06637162500000215,
            "durationTicks": 48,
            "midi": 60,
            "name": "C4",
            "ticks": 23616,
            "time": 32.6548395,
            "velocity": 0.29133858267716534
          },
          {
            "duration": 0.06637162500000215,
            "durationTicks": 48,
            "midi": 38,
            "name": "D2",
            "ticks": 23616,
            "time": 32.6548395,
            "velocity": 0.29133858267716534
          },
          {
            "duration": 0.06637162500000215,
            "durationTicks": 48,
            "midi": 39,
            "name": "D#2",
            "ticks": 23616,
            "time": 32.6548395,
            "velocity": 0.3937007874015748
          },
          {
            "duration": 0.06637162500000215,
            "durationTicks": 48,
            "midi": 42,
            "name": "F#2",
            "ticks": 23616,
            "time": 32.6548395,
            "velocity": 0.29133858267716534
          },
          {
            "duration": 0.06637162500000215,
            "durationTicks": 48,
            "midi": 60,
            "name": "C4",
            "ticks": 23712,
            "time": 32.78758275,
            "velocity": 0.29133858267716534
          },
          {
            "duration": 0.06637162500000215,
            "durationTicks": 48,
            "midi": 46,
            "name": "A#2",
            "ticks": 23808,
            "time": 32.920326,
            "velocity": 0.29133858267716534
          },
          {
            "duration": 0.06637162500000215,
            "durationTicks": 48,
            "midi": 70,
            "name": "A#4",
            "ticks": 23808,
            "time": 32.920326,
            "velocity": 0.29133858267716534
          },
          {
            "duration": 0.06637162500000215,
            "durationTicks": 48,
            "midi": 63,
            "name": "D#4",
            "ticks": 23808,
            "time": 32.920326,
            "velocity": 0.29133858267716534
          },
          {
            "duration": 0.06637162500000215,
            "durationTicks": 48,
            "midi": 70,
            "name": "A#4",
            "ticks": 23904,
            "time": 33.05306925,
            "velocity": 0.29133858267716534
          },
          {
            "duration": 0.06637162499999505,
            "durationTicks": 48,
            "midi": 36,
            "name": "C2",
            "ticks": 24000,
            "time": 33.185812500000004,
            "velocity": 0.3937007874015748
          },
          {
            "duration": 0.06637162499999505,
            "durationTicks": 48,
            "midi": 60,
            "name": "C4",
            "ticks": 24000,
            "time": 33.185812500000004,
            "velocity": 0.29133858267716534
          },
          {
            "duration": 0.06637162499999505,
            "durationTicks": 48,
            "midi": 42,
            "name": "F#2",
            "ticks": 24000,
            "time": 33.185812500000004,
            "velocity": 0.29133858267716534
          },
          {
            "duration": 0.06637162500000215,
            "durationTicks": 48,
            "midi": 46,
            "name": "A#2",
            "ticks": 24192,
            "time": 33.451299,
            "velocity": 0.29133858267716534
          },
          {
            "duration": 0.06637162500000215,
            "durationTicks": 48,
            "midi": 70,
            "name": "A#4",
            "ticks": 24192,
            "time": 33.451299,
            "velocity": 0.29133858267716534
          },
          {
            "duration": 0.06637162500000215,
            "durationTicks": 48,
            "midi": 60,
            "name": "C4",
            "ticks": 24288,
            "time": 33.58404225,
            "velocity": 0.29133858267716534
          },
          {
            "duration": 0.06637162500000215,
            "durationTicks": 48,
            "midi": 39,
            "name": "D#2",
            "ticks": 24384,
            "time": 33.7167855,
            "velocity": 0.3937007874015748
          },
          {
            "duration": 0.06637162500000215,
            "durationTicks": 48,
            "midi": 36,
            "name": "C2",
            "ticks": 24384,
            "time": 33.7167855,
            "velocity": 0.3937007874015748
          },
          {
            "duration": 0.06637162500000215,
            "durationTicks": 48,
            "midi": 60,
            "name": "C4",
            "ticks": 24384,
            "time": 33.7167855,
            "velocity": 0.29133858267716534
          },
          {
            "duration": 0.06637162500000215,
            "durationTicks": 48,
            "midi": 42,
            "name": "F#2",
            "ticks": 24384,
            "time": 33.7167855,
            "velocity": 0.29133858267716534
          },
          {
            "duration": 0.06637162500000215,
            "durationTicks": 48,
            "midi": 38,
            "name": "D2",
            "ticks": 24384,
            "time": 33.7167855,
            "velocity": 0.29133858267716534
          },
          {
            "duration": 0.06637162499999505,
            "durationTicks": 48,
            "midi": 60,
            "name": "C4",
            "ticks": 24480,
            "time": 33.849528750000005,
            "velocity": 0.29133858267716534
          },
          {
            "duration": 0.06637162500000215,
            "durationTicks": 48,
            "midi": 46,
            "name": "A#2",
            "ticks": 24576,
            "time": 33.982272,
            "velocity": 0.29133858267716534
          },
          {
            "duration": 0.06637162500000215,
            "durationTicks": 48,
            "midi": 70,
            "name": "A#4",
            "ticks": 24576,
            "time": 33.982272,
            "velocity": 0.29133858267716534
          },
          {
            "duration": 0.06637162500000215,
            "durationTicks": 48,
            "midi": 63,
            "name": "D#4",
            "ticks": 24576,
            "time": 33.982272,
            "velocity": 0.29133858267716534
          },
          {
            "duration": 0.06637162500000215,
            "durationTicks": 48,
            "midi": 70,
            "name": "A#4",
            "ticks": 24672,
            "time": 34.11501525,
            "velocity": 0.29133858267716534
          },
          {
            "duration": 0.06637162499999505,
            "durationTicks": 48,
            "midi": 60,
            "name": "C4",
            "ticks": 24768,
            "time": 34.2477585,
            "velocity": 0.29133858267716534
          },
          {
            "duration": 0.06637162499999505,
            "durationTicks": 48,
            "midi": 42,
            "name": "F#2",
            "ticks": 24768,
            "time": 34.2477585,
            "velocity": 0.29133858267716534
          },
          {
            "duration": 0.06637162499999505,
            "durationTicks": 48,
            "midi": 36,
            "name": "C2",
            "ticks": 24768,
            "time": 34.2477585,
            "velocity": 0.3937007874015748
          },
          {
            "duration": 0.06637162499999505,
            "durationTicks": 48,
            "midi": 70,
            "name": "A#4",
            "ticks": 24960,
            "time": 34.513245000000005,
            "velocity": 0.29133858267716534
          },
          {
            "duration": 0.06637162499999505,
            "durationTicks": 48,
            "midi": 46,
            "name": "A#2",
            "ticks": 24960,
            "time": 34.513245000000005,
            "velocity": 0.29133858267716534
          },
          {
            "duration": 0.06637162500000215,
            "durationTicks": 48,
            "midi": 60,
            "name": "C4",
            "ticks": 25056,
            "time": 34.64598825,
            "velocity": 0.29133858267716534
          },
          {
            "duration": 0.06637162500000215,
            "durationTicks": 48,
            "midi": 42,
            "name": "F#2",
            "ticks": 25152,
            "time": 34.7787315,
            "velocity": 0.29133858267716534
          },
          {
            "duration": 0.06637162500000215,
            "durationTicks": 48,
            "midi": 36,
            "name": "C2",
            "ticks": 25152,
            "time": 34.7787315,
            "velocity": 0.3937007874015748
          },
          {
            "duration": 0.06637162500000215,
            "durationTicks": 48,
            "midi": 39,
            "name": "D#2",
            "ticks": 25152,
            "time": 34.7787315,
            "velocity": 0.3937007874015748
          },
          {
            "duration": 0.06637162500000215,
            "durationTicks": 48,
            "midi": 60,
            "name": "C4",
            "ticks": 25152,
            "time": 34.7787315,
            "velocity": 0.29133858267716534
          },
          {
            "duration": 0.06637162500000215,
            "durationTicks": 48,
            "midi": 38,
            "name": "D2",
            "ticks": 25152,
            "time": 34.7787315,
            "velocity": 0.29133858267716534
          },
          {
            "duration": 0.06637162499999505,
            "durationTicks": 48,
            "midi": 60,
            "name": "C4",
            "ticks": 25248,
            "time": 34.911474750000004,
            "velocity": 0.29133858267716534
          },
          {
            "duration": 0.06637162500000215,
            "durationTicks": 48,
            "midi": 70,
            "name": "A#4",
            "ticks": 25344,
            "time": 35.044218,
            "velocity": 0.29133858267716534
          },
          {
            "duration": 0.06637162500000215,
            "durationTicks": 48,
            "midi": 63,
            "name": "D#4",
            "ticks": 25344,
            "time": 35.044218,
            "velocity": 0.29133858267716534
          },
          {
            "duration": 0.06637162500000215,
            "durationTicks": 48,
            "midi": 46,
            "name": "A#2",
            "ticks": 25344,
            "time": 35.044218,
            "velocity": 0.29133858267716534
          },
          {
            "duration": 0.06637162499999505,
            "durationTicks": 48,
            "midi": 70,
            "name": "A#4",
            "ticks": 25440,
            "time": 35.176961250000005,
            "velocity": 0.29133858267716534
          },
          {
            "duration": 0.06637162500000215,
            "durationTicks": 48,
            "midi": 60,
            "name": "C4",
            "ticks": 25536,
            "time": 35.3097045,
            "velocity": 0.29133858267716534
          },
          {
            "duration": 0.06637162500000215,
            "durationTicks": 48,
            "midi": 36,
            "name": "C2",
            "ticks": 25536,
            "time": 35.3097045,
            "velocity": 0.3937007874015748
          },
          {
            "duration": 0.06637162500000215,
            "durationTicks": 48,
            "midi": 42,
            "name": "F#2",
            "ticks": 25536,
            "time": 35.3097045,
            "velocity": 0.29133858267716534
          },
          {
            "duration": 0.06637162500000215,
            "durationTicks": 48,
            "midi": 82,
            "name": "A#5",
            "ticks": 25536,
            "time": 35.3097045,
            "velocity": 0.29133858267716534
          },
          {
            "duration": 0.06637162500000215,
            "durationTicks": 48,
            "midi": 82,
            "name": "A#5",
            "ticks": 25632,
            "time": 35.44244775,
            "velocity": 0.14173228346456693
          },
          {
            "duration": 0.06637162499999505,
            "durationTicks": 48,
            "midi": 46,
            "name": "A#2",
            "ticks": 25728,
            "time": 35.575191000000004,
            "velocity": 0.29133858267716534
          },
          {
            "duration": 0.06637162499999505,
            "durationTicks": 48,
            "midi": 70,
            "name": "A#4",
            "ticks": 25728,
            "time": 35.575191000000004,
            "velocity": 0.29133858267716534
          },
          {
            "duration": 0.06637162499999505,
            "durationTicks": 48,
            "midi": 82,
            "name": "A#5",
            "ticks": 25728,
            "time": 35.575191000000004,
            "velocity": 0.29133858267716534
          },
          {
            "duration": 0.06637162500000215,
            "durationTicks": 48,
            "midi": 82,
            "name": "A#5",
            "ticks": 25824,
            "time": 35.70793425,
            "velocity": 0.29133858267716534
          },
          {
            "duration": 0.06637162500000215,
            "durationTicks": 48,
            "midi": 60,
            "name": "C4",
            "ticks": 25824,
            "time": 35.70793425,
            "velocity": 0.29133858267716534
          },
          {
            "duration": 0.06637162499999505,
            "durationTicks": 48,
            "midi": 36,
            "name": "C2",
            "ticks": 25920,
            "time": 35.840677500000005,
            "velocity": 0.3937007874015748
          },
          {
            "duration": 0.06637162499999505,
            "durationTicks": 48,
            "midi": 39,
            "name": "D#2",
            "ticks": 25920,
            "time": 35.840677500000005,
            "velocity": 0.3937007874015748
          },
          {
            "duration": 0.06637162499999505,
            "durationTicks": 48,
            "midi": 42,
            "name": "F#2",
            "ticks": 25920,
            "time": 35.840677500000005,
            "velocity": 0.29133858267716534
          },
          {
            "duration": 0.06637162499999505,
            "durationTicks": 48,
            "midi": 38,
            "name": "D2",
            "ticks": 25920,
            "time": 35.840677500000005,
            "velocity": 0.29133858267716534
          },
          {
            "duration": 0.06637162499999505,
            "durationTicks": 48,
            "midi": 60,
            "name": "C4",
            "ticks": 25920,
            "time": 35.840677500000005,
            "velocity": 0.29133858267716534
          },
          {
            "duration": 0.06637162500000215,
            "durationTicks": 48,
            "midi": 60,
            "name": "C4",
            "ticks": 26016,
            "time": 35.97342075,
            "velocity": 0.29133858267716534
          },
          {
            "duration": 0.06637162500000215,
            "durationTicks": 48,
            "midi": 63,
            "name": "D#4",
            "ticks": 26112,
            "time": 36.106164,
            "velocity": 0.29133858267716534
          },
          {
            "duration": 0.06637162500000215,
            "durationTicks": 48,
            "midi": 70,
            "name": "A#4",
            "ticks": 26112,
            "time": 36.106164,
            "velocity": 0.29133858267716534
          },
          {
            "duration": 0.06637162500000215,
            "durationTicks": 48,
            "midi": 42,
            "name": "F#2",
            "ticks": 26112,
            "time": 36.106164,
            "velocity": 0.3937007874015748
          },
          {
            "duration": 0.06637162499999505,
            "durationTicks": 48,
            "midi": 70,
            "name": "A#4",
            "ticks": 26208,
            "time": 36.238907250000004,
            "velocity": 0.29133858267716534
          },
          {
            "duration": 0.06637162499999505,
            "durationTicks": 48,
            "midi": 42,
            "name": "F#2",
            "ticks": 26208,
            "time": 36.238907250000004,
            "velocity": 0.3937007874015748
          },
          {
            "duration": 0.06637162500000215,
            "durationTicks": 48,
            "midi": 42,
            "name": "F#2",
            "ticks": 26304,
            "time": 36.3716505,
            "velocity": 0.29133858267716534
          },
          {
            "duration": 0.06637162500000215,
            "durationTicks": 48,
            "midi": 60,
            "name": "C4",
            "ticks": 26304,
            "time": 36.3716505,
            "velocity": 0.29133858267716534
          },
          {
            "duration": 0.06637162500000215,
            "durationTicks": 48,
            "midi": 36,
            "name": "C2",
            "ticks": 26304,
            "time": 36.3716505,
            "velocity": 0.3937007874015748
          },
          {
            "duration": 0.06637162500000215,
            "durationTicks": 48,
            "midi": 46,
            "name": "A#2",
            "ticks": 26496,
            "time": 36.637137,
            "velocity": 0.29133858267716534
          },
          {
            "duration": 0.06637162500000215,
            "durationTicks": 48,
            "midi": 70,
            "name": "A#4",
            "ticks": 26496,
            "time": 36.637137,
            "velocity": 0.29133858267716534
          },
          {
            "duration": 0.06637162500000215,
            "durationTicks": 48,
            "midi": 60,
            "name": "C4",
            "ticks": 26592,
            "time": 36.76988025,
            "velocity": 0.29133858267716534
          },
          {
            "duration": 0.06637162499999505,
            "durationTicks": 48,
            "midi": 38,
            "name": "D2",
            "ticks": 26688,
            "time": 36.902623500000004,
            "velocity": 0.29133858267716534
          },
          {
            "duration": 0.06637162499999505,
            "durationTicks": 48,
            "midi": 42,
            "name": "F#2",
            "ticks": 26688,
            "time": 36.902623500000004,
            "velocity": 0.29133858267716534
          },
          {
            "duration": 0.06637162499999505,
            "durationTicks": 48,
            "midi": 60,
            "name": "C4",
            "ticks": 26688,
            "time": 36.902623500000004,
            "velocity": 0.29133858267716534
          },
          {
            "duration": 0.06637162499999505,
            "durationTicks": 48,
            "midi": 39,
            "name": "D#2",
            "ticks": 26688,
            "time": 36.902623500000004,
            "velocity": 0.3937007874015748
          },
          {
            "duration": 0.06637162499999505,
            "durationTicks": 48,
            "midi": 36,
            "name": "C2",
            "ticks": 26688,
            "time": 36.902623500000004,
            "velocity": 0.3937007874015748
          },
          {
            "duration": 0.06637162500000215,
            "durationTicks": 48,
            "midi": 60,
            "name": "C4",
            "ticks": 26784,
            "time": 37.03536675,
            "velocity": 0.29133858267716534
          },
          {
            "duration": 0.06637162500000215,
            "durationTicks": 48,
            "midi": 46,
            "name": "A#2",
            "ticks": 26880,
            "time": 37.16811,
            "velocity": 0.29133858267716534
          },
          {
            "duration": 0.06637162500000215,
            "durationTicks": 48,
            "midi": 63,
            "name": "D#4",
            "ticks": 26880,
            "time": 37.16811,
            "velocity": 0.29133858267716534
          },
          {
            "duration": 0.06637162500000215,
            "durationTicks": 48,
            "midi": 70,
            "name": "A#4",
            "ticks": 26880,
            "time": 37.16811,
            "velocity": 0.29133858267716534
          },
          {
            "duration": 0.06637162500000215,
            "durationTicks": 48,
            "midi": 70,
            "name": "A#4",
            "ticks": 26976,
            "time": 37.30085325,
            "velocity": 0.29133858267716534
          },
          {
            "duration": 0.06637162500000215,
            "durationTicks": 48,
            "midi": 60,
            "name": "C4",
            "ticks": 27072,
            "time": 37.4335965,
            "velocity": 0.29133858267716534
          },
          {
            "duration": 0.06637162500000215,
            "durationTicks": 48,
            "midi": 36,
            "name": "C2",
            "ticks": 27072,
            "time": 37.4335965,
            "velocity": 0.3937007874015748
          },
          {
            "duration": 0.06637162500000215,
            "durationTicks": 48,
            "midi": 42,
            "name": "F#2",
            "ticks": 27072,
            "time": 37.4335965,
            "velocity": 0.29133858267716534
          },
          {
            "duration": 0.06637162500000215,
            "durationTicks": 48,
            "midi": 70,
            "name": "A#4",
            "ticks": 27264,
            "time": 37.699083,
            "velocity": 0.29133858267716534
          },
          {
            "duration": 0.06637162500000215,
            "durationTicks": 48,
            "midi": 46,
            "name": "A#2",
            "ticks": 27264,
            "time": 37.699083,
            "velocity": 0.29133858267716534
          },
          {
            "duration": 0.06637162500000215,
            "durationTicks": 48,
            "midi": 60,
            "name": "C4",
            "ticks": 27360,
            "time": 37.83182625,
            "velocity": 0.29133858267716534
          },
          {
            "duration": 0.06637162500000215,
            "durationTicks": 48,
            "midi": 38,
            "name": "D2",
            "ticks": 27456,
            "time": 37.9645695,
            "velocity": 0.29133858267716534
          },
          {
            "duration": 0.06637162500000215,
            "durationTicks": 48,
            "midi": 42,
            "name": "F#2",
            "ticks": 27456,
            "time": 37.9645695,
            "velocity": 0.29133858267716534
          },
          {
            "duration": 0.06637162500000215,
            "durationTicks": 48,
            "midi": 36,
            "name": "C2",
            "ticks": 27456,
            "time": 37.9645695,
            "velocity": 0.3937007874015748
          },
          {
            "duration": 0.06637162500000215,
            "durationTicks": 48,
            "midi": 39,
            "name": "D#2",
            "ticks": 27456,
            "time": 37.9645695,
            "velocity": 0.3937007874015748
          },
          {
            "duration": 0.06637162500000215,
            "durationTicks": 48,
            "midi": 60,
            "name": "C4",
            "ticks": 27456,
            "time": 37.9645695,
            "velocity": 0.29133858267716534
          },
          {
            "duration": 0.06637162500000215,
            "durationTicks": 48,
            "midi": 60,
            "name": "C4",
            "ticks": 27552,
            "time": 38.09731275,
            "velocity": 0.29133858267716534
          },
          {
            "duration": 0.06637162499999505,
            "durationTicks": 48,
            "midi": 63,
            "name": "D#4",
            "ticks": 27648,
            "time": 38.230056000000005,
            "velocity": 0.29133858267716534
          },
          {
            "duration": 0.06637162499999505,
            "durationTicks": 48,
            "midi": 46,
            "name": "A#2",
            "ticks": 27648,
            "time": 38.230056000000005,
            "velocity": 0.29133858267716534
          },
          {
            "duration": 0.06637162499999505,
            "durationTicks": 48,
            "midi": 70,
            "name": "A#4",
            "ticks": 27648,
            "time": 38.230056000000005,
            "velocity": 0.29133858267716534
          },
          {
            "duration": 0.06637162500000215,
            "durationTicks": 48,
            "midi": 70,
            "name": "A#4",
            "ticks": 27744,
            "time": 38.36279925,
            "velocity": 0.29133858267716534
          },
          {
            "duration": 0.06637162500000215,
            "durationTicks": 48,
            "midi": 42,
            "name": "F#2",
            "ticks": 27840,
            "time": 38.4955425,
            "velocity": 0.29133858267716534
          },
          {
            "duration": 0.06637162500000215,
            "durationTicks": 48,
            "midi": 60,
            "name": "C4",
            "ticks": 27840,
            "time": 38.4955425,
            "velocity": 0.29133858267716534
          },
          {
            "duration": 0.06637162500000215,
            "durationTicks": 48,
            "midi": 36,
            "name": "C2",
            "ticks": 27840,
            "time": 38.4955425,
            "velocity": 0.3937007874015748
          },
          {
            "duration": 0.06637162500000215,
            "durationTicks": 48,
            "midi": 46,
            "name": "A#2",
            "ticks": 28032,
            "time": 38.761029,
            "velocity": 0.29133858267716534
          },
          {
            "duration": 0.06637162500000215,
            "durationTicks": 48,
            "midi": 70,
            "name": "A#4",
            "ticks": 28032,
            "time": 38.761029,
            "velocity": 0.29133858267716534
          },
          {
            "duration": 0.06637162499999505,
            "durationTicks": 48,
            "midi": 60,
            "name": "C4",
            "ticks": 28128,
            "time": 38.893772250000005,
            "velocity": 0.29133858267716534
          },
          {
            "duration": 0.06637162500000215,
            "durationTicks": 48,
            "midi": 42,
            "name": "F#2",
            "ticks": 28224,
            "time": 39.0265155,
            "velocity": 0.29133858267716534
          },
          {
            "duration": 0.06637162500000215,
            "durationTicks": 48,
            "midi": 38,
            "name": "D2",
            "ticks": 28224,
            "time": 39.0265155,
            "velocity": 0.29133858267716534
          },
          {
            "duration": 0.06637162500000215,
            "durationTicks": 48,
            "midi": 39,
            "name": "D#2",
            "ticks": 28224,
            "time": 39.0265155,
            "velocity": 0.3937007874015748
          },
          {
            "duration": 0.06637162500000215,
            "durationTicks": 48,
            "midi": 36,
            "name": "C2",
            "ticks": 28224,
            "time": 39.0265155,
            "velocity": 0.3937007874015748
          },
          {
            "duration": 0.06637162500000215,
            "durationTicks": 48,
            "midi": 60,
            "name": "C4",
            "ticks": 28224,
            "time": 39.0265155,
            "velocity": 0.29133858267716534
          },
          {
            "duration": 0.06637162500000215,
            "durationTicks": 48,
            "midi": 60,
            "name": "C4",
            "ticks": 28320,
            "time": 39.15925875,
            "velocity": 0.29133858267716534
          },
          {
            "duration": 0.06637162499999505,
            "durationTicks": 48,
            "midi": 46,
            "name": "A#2",
            "ticks": 28416,
            "time": 39.292002000000004,
            "velocity": 0.29133858267716534
          },
          {
            "duration": 0.06637162499999505,
            "durationTicks": 48,
            "midi": 70,
            "name": "A#4",
            "ticks": 28416,
            "time": 39.292002000000004,
            "velocity": 0.29133858267716534
          },
          {
            "duration": 0.06637162499999505,
            "durationTicks": 48,
            "midi": 63,
            "name": "D#4",
            "ticks": 28416,
            "time": 39.292002000000004,
            "velocity": 0.29133858267716534
          },
          {
            "duration": 0.06637162500000215,
            "durationTicks": 48,
            "midi": 70,
            "name": "A#4",
            "ticks": 28512,
            "time": 39.42474525,
            "velocity": 0.29133858267716534
          },
          {
            "duration": 0.06637162499999505,
            "durationTicks": 48,
            "midi": 82,
            "name": "A#5",
            "ticks": 28608,
            "time": 39.557488500000005,
            "velocity": 0.29133858267716534
          },
          {
            "duration": 0.06637162499999505,
            "durationTicks": 48,
            "midi": 42,
            "name": "F#2",
            "ticks": 28608,
            "time": 39.557488500000005,
            "velocity": 0.29133858267716534
          },
          {
            "duration": 0.06637162499999505,
            "durationTicks": 48,
            "midi": 60,
            "name": "C4",
            "ticks": 28608,
            "time": 39.557488500000005,
            "velocity": 0.29133858267716534
          },
          {
            "duration": 0.06637162499999505,
            "durationTicks": 48,
            "midi": 36,
            "name": "C2",
            "ticks": 28608,
            "time": 39.557488500000005,
            "velocity": 0.3937007874015748
          },
          {
            "duration": 0.06637162500000215,
            "durationTicks": 48,
            "midi": 82,
            "name": "A#5",
            "ticks": 28704,
            "time": 39.69023175,
            "velocity": 0.14173228346456693
          },
          {
            "duration": 0.06637162500000215,
            "durationTicks": 48,
            "midi": 46,
            "name": "A#2",
            "ticks": 28800,
            "time": 39.822975,
            "velocity": 0.29133858267716534
          },
          {
            "duration": 0.06637162500000215,
            "durationTicks": 48,
            "midi": 70,
            "name": "A#4",
            "ticks": 28800,
            "time": 39.822975,
            "velocity": 0.29133858267716534
          },
          {
            "duration": 0.06637162500000215,
            "durationTicks": 48,
            "midi": 82,
            "name": "A#5",
            "ticks": 28800,
            "time": 39.822975,
            "velocity": 0.29133858267716534
          },
          {
            "duration": 0.06637162499999505,
            "durationTicks": 48,
            "midi": 82,
            "name": "A#5",
            "ticks": 28896,
            "time": 39.955718250000004,
            "velocity": 0.29133858267716534
          },
          {
            "duration": 0.06637162499999505,
            "durationTicks": 48,
            "midi": 60,
            "name": "C4",
            "ticks": 28896,
            "time": 39.955718250000004,
            "velocity": 0.29133858267716534
          },
          {
            "duration": 0.06637162500000215,
            "durationTicks": 48,
            "midi": 60,
            "name": "C4",
            "ticks": 28992,
            "time": 40.0884615,
            "velocity": 0.29133858267716534
          },
          {
            "duration": 0.06637162500000215,
            "durationTicks": 48,
            "midi": 42,
            "name": "F#2",
            "ticks": 28992,
            "time": 40.0884615,
            "velocity": 0.29133858267716534
          },
          {
            "duration": 0.06637162500000215,
            "durationTicks": 48,
            "midi": 36,
            "name": "C2",
            "ticks": 28992,
            "time": 40.0884615,
            "velocity": 0.3937007874015748
          },
          {
            "duration": 0.06637162500000215,
            "durationTicks": 48,
            "midi": 39,
            "name": "D#2",
            "ticks": 28992,
            "time": 40.0884615,
            "velocity": 0.3937007874015748
          },
          {
            "duration": 0.06637162500000215,
            "durationTicks": 48,
            "midi": 38,
            "name": "D2",
            "ticks": 28992,
            "time": 40.0884615,
            "velocity": 0.29133858267716534
          },
          {
            "duration": 0.06637162499999505,
            "durationTicks": 48,
            "midi": 60,
            "name": "C4",
            "ticks": 29088,
            "time": 40.221204750000005,
            "velocity": 0.29133858267716534
          },
          {
            "duration": 0.06637162500000215,
            "durationTicks": 48,
            "midi": 63,
            "name": "D#4",
            "ticks": 29184,
            "time": 40.353948,
            "velocity": 0.29133858267716534
          },
          {
            "duration": 0.06637162500000215,
            "durationTicks": 48,
            "midi": 70,
            "name": "A#4",
            "ticks": 29184,
            "time": 40.353948,
            "velocity": 0.29133858267716534
          },
          {
            "duration": 0.06637162500000215,
            "durationTicks": 48,
            "midi": 42,
            "name": "F#2",
            "ticks": 29184,
            "time": 40.353948,
            "velocity": 0.3937007874015748
          },
          {
            "duration": 0.06637162500000215,
            "durationTicks": 48,
            "midi": 42,
            "name": "F#2",
            "ticks": 29280,
            "time": 40.48669125,
            "velocity": 0.3937007874015748
          },
          {
            "duration": 0.06637162500000215,
            "durationTicks": 48,
            "midi": 70,
            "name": "A#4",
            "ticks": 29280,
            "time": 40.48669125,
            "velocity": 0.29133858267716534
          },
          {
            "duration": 0.06637162499999505,
            "durationTicks": 48,
            "midi": 60,
            "name": "C4",
            "ticks": 29376,
            "time": 40.619434500000004,
            "velocity": 0.29133858267716534
          },
          {
            "duration": 0.06637162499999505,
            "durationTicks": 48,
            "midi": 36,
            "name": "C2",
            "ticks": 29376,
            "time": 40.619434500000004,
            "velocity": 0.3937007874015748
          },
          {
            "duration": 0.06637162499999505,
            "durationTicks": 48,
            "midi": 42,
            "name": "F#2",
            "ticks": 29376,
            "time": 40.619434500000004,
            "velocity": 0.29133858267716534
          },
          {
            "duration": 0.06637162499999505,
            "durationTicks": 48,
            "midi": 70,
            "name": "A#4",
            "ticks": 29568,
            "time": 40.884921000000006,
            "velocity": 0.29133858267716534
          },
          {
            "duration": 0.06637162499999505,
            "durationTicks": 48,
            "midi": 46,
            "name": "A#2",
            "ticks": 29568,
            "time": 40.884921000000006,
            "velocity": 0.29133858267716534
          },
          {
            "duration": 0.06637162500000215,
            "durationTicks": 48,
            "midi": 60,
            "name": "C4",
            "ticks": 29664,
            "time": 41.01766425,
            "velocity": 0.29133858267716534
          },
          {
            "duration": 0.06637162500000215,
            "durationTicks": 48,
            "midi": 60,
            "name": "C4",
            "ticks": 29760,
            "time": 41.1504075,
            "velocity": 0.29133858267716534
          },
          {
            "duration": 0.06637162500000215,
            "durationTicks": 48,
            "midi": 39,
            "name": "D#2",
            "ticks": 29760,
            "time": 41.1504075,
            "velocity": 0.3937007874015748
          },
          {
            "duration": 0.06637162500000215,
            "durationTicks": 48,
            "midi": 38,
            "name": "D2",
            "ticks": 29760,
            "time": 41.1504075,
            "velocity": 0.29133858267716534
          },
          {
            "duration": 0.06637162500000215,
            "durationTicks": 48,
            "midi": 36,
            "name": "C2",
            "ticks": 29760,
            "time": 41.1504075,
            "velocity": 0.3937007874015748
          },
          {
            "duration": 0.06637162500000215,
            "durationTicks": 48,
            "midi": 42,
            "name": "F#2",
            "ticks": 29760,
            "time": 41.1504075,
            "velocity": 0.29133858267716534
          },
          {
            "duration": 0.06637162499999505,
            "durationTicks": 48,
            "midi": 60,
            "name": "C4",
            "ticks": 29856,
            "time": 41.283150750000004,
            "velocity": 0.29133858267716534
          },
          {
            "duration": 0.06637162500000215,
            "durationTicks": 48,
            "midi": 63,
            "name": "D#4",
            "ticks": 29952,
            "time": 41.415894,
            "velocity": 0.29133858267716534
          },
          {
            "duration": 0.06637162500000215,
            "durationTicks": 48,
            "midi": 70,
            "name": "A#4",
            "ticks": 29952,
            "time": 41.415894,
            "velocity": 0.29133858267716534
          },
          {
            "duration": 0.06637162500000215,
            "durationTicks": 48,
            "midi": 46,
            "name": "A#2",
            "ticks": 29952,
            "time": 41.415894,
            "velocity": 0.29133858267716534
          },
          {
            "duration": 0.06637162500000215,
            "durationTicks": 48,
            "midi": 70,
            "name": "A#4",
            "ticks": 30048,
            "time": 41.54863725,
            "velocity": 0.29133858267716534
          },
          {
            "duration": 0.06637162500000215,
            "durationTicks": 48,
            "midi": 60,
            "name": "C4",
            "ticks": 30144,
            "time": 41.6813805,
            "velocity": 0.29133858267716534
          },
          {
            "duration": 0.06637162500000215,
            "durationTicks": 48,
            "midi": 36,
            "name": "C2",
            "ticks": 30144,
            "time": 41.6813805,
            "velocity": 0.3937007874015748
          },
          {
            "duration": 0.06637162500000215,
            "durationTicks": 48,
            "midi": 42,
            "name": "F#2",
            "ticks": 30144,
            "time": 41.6813805,
            "velocity": 0.29133858267716534
          },
          {
            "duration": 0.06637162499999505,
            "durationTicks": 48,
            "midi": 70,
            "name": "A#4",
            "ticks": 30336,
            "time": 41.946867000000005,
            "velocity": 0.29133858267716534
          },
          {
            "duration": 0.06637162499999505,
            "durationTicks": 48,
            "midi": 46,
            "name": "A#2",
            "ticks": 30336,
            "time": 41.946867000000005,
            "velocity": 0.29133858267716534
          },
          {
            "duration": 0.06637162500000215,
            "durationTicks": 48,
            "midi": 60,
            "name": "C4",
            "ticks": 30432,
            "time": 42.07961025,
            "velocity": 0.29133858267716534
          },
          {
            "duration": 0.06637162500000215,
            "durationTicks": 48,
            "midi": 36,
            "name": "C2",
            "ticks": 30528,
            "time": 42.2123535,
            "velocity": 0.3937007874015748
          },
          {
            "duration": 0.06637162500000215,
            "durationTicks": 48,
            "midi": 38,
            "name": "D2",
            "ticks": 30528,
            "time": 42.2123535,
            "velocity": 0.29133858267716534
          },
          {
            "duration": 0.06637162500000215,
            "durationTicks": 48,
            "midi": 60,
            "name": "C4",
            "ticks": 30528,
            "time": 42.2123535,
            "velocity": 0.29133858267716534
          },
          {
            "duration": 0.06637162500000215,
            "durationTicks": 48,
            "midi": 42,
            "name": "F#2",
            "ticks": 30528,
            "time": 42.2123535,
            "velocity": 0.29133858267716534
          },
          {
            "duration": 0.06637162500000215,
            "durationTicks": 48,
            "midi": 39,
            "name": "D#2",
            "ticks": 30528,
            "time": 42.2123535,
            "velocity": 0.3937007874015748
          },
          {
            "duration": 0.06637162500000215,
            "durationTicks": 48,
            "midi": 60,
            "name": "C4",
            "ticks": 30624,
            "time": 42.34509675,
            "velocity": 0.29133858267716534
          },
          {
            "duration": 0.06637162500000215,
            "durationTicks": 48,
            "midi": 46,
            "name": "A#2",
            "ticks": 30720,
            "time": 42.47784,
            "velocity": 0.29133858267716534
          },
          {
            "duration": 0.06637162500000215,
            "durationTicks": 48,
            "midi": 70,
            "name": "A#4",
            "ticks": 30720,
            "time": 42.47784,
            "velocity": 0.29133858267716534
          },
          {
            "duration": 0.06637162500000215,
            "durationTicks": 48,
            "midi": 63,
            "name": "D#4",
            "ticks": 30720,
            "time": 42.47784,
            "velocity": 0.29133858267716534
          },
          {
            "duration": 0.06637162499999505,
            "durationTicks": 48,
            "midi": 70,
            "name": "A#4",
            "ticks": 30816,
            "time": 42.610583250000005,
            "velocity": 0.29133858267716534
          },
          {
            "duration": 0.06637162500000215,
            "durationTicks": 48,
            "midi": 36,
            "name": "C2",
            "ticks": 30912,
            "time": 42.7433265,
            "velocity": 0.3937007874015748
          },
          {
            "duration": 0.06637162500000215,
            "durationTicks": 48,
            "midi": 42,
            "name": "F#2",
            "ticks": 30912,
            "time": 42.7433265,
            "velocity": 0.29133858267716534
          },
          {
            "duration": 0.06637162500000215,
            "durationTicks": 48,
            "midi": 60,
            "name": "C4",
            "ticks": 30912,
            "time": 42.7433265,
            "velocity": 0.29133858267716534
          },
          {
            "duration": 0.06637162500000215,
            "durationTicks": 48,
            "midi": 46,
            "name": "A#2",
            "ticks": 31104,
            "time": 43.008813,
            "velocity": 0.29133858267716534
          },
          {
            "duration": 0.06637162500000215,
            "durationTicks": 48,
            "midi": 70,
            "name": "A#4",
            "ticks": 31104,
            "time": 43.008813,
            "velocity": 0.29133858267716534
          },
          {
            "duration": 0.06637162500000215,
            "durationTicks": 48,
            "midi": 60,
            "name": "C4",
            "ticks": 31200,
            "time": 43.14155625,
            "velocity": 0.29133858267716534
          },
          {
            "duration": 0.06637162499999505,
            "durationTicks": 48,
            "midi": 36,
            "name": "C2",
            "ticks": 31296,
            "time": 43.274299500000005,
            "velocity": 0.3937007874015748
          },
          {
            "duration": 0.06637162499999505,
            "durationTicks": 48,
            "midi": 60,
            "name": "C4",
            "ticks": 31296,
            "time": 43.274299500000005,
            "velocity": 0.29133858267716534
          },
          {
            "duration": 0.06637162499999505,
            "durationTicks": 48,
            "midi": 38,
            "name": "D2",
            "ticks": 31296,
            "time": 43.274299500000005,
            "velocity": 0.29133858267716534
          },
          {
            "duration": 0.06637162499999505,
            "durationTicks": 48,
            "midi": 39,
            "name": "D#2",
            "ticks": 31296,
            "time": 43.274299500000005,
            "velocity": 0.3937007874015748
          },
          {
            "duration": 0.06637162499999505,
            "durationTicks": 48,
            "midi": 42,
            "name": "F#2",
            "ticks": 31296,
            "time": 43.274299500000005,
            "velocity": 0.29133858267716534
          },
          {
            "duration": 0.06637162500000215,
            "durationTicks": 48,
            "midi": 60,
            "name": "C4",
            "ticks": 31392,
            "time": 43.40704275,
            "velocity": 0.29133858267716534
          },
          {
            "duration": 0.06637162500000215,
            "durationTicks": 48,
            "midi": 63,
            "name": "D#4",
            "ticks": 31488,
            "time": 43.539786,
            "velocity": 0.29133858267716534
          },
          {
            "duration": 0.06637162500000215,
            "durationTicks": 48,
            "midi": 70,
            "name": "A#4",
            "ticks": 31488,
            "time": 43.539786,
            "velocity": 0.29133858267716534
          },
          {
            "duration": 0.06637162500000215,
            "durationTicks": 48,
            "midi": 46,
            "name": "A#2",
            "ticks": 31488,
            "time": 43.539786,
            "velocity": 0.29133858267716534
          },
          {
            "duration": 0.06637162499999505,
            "durationTicks": 48,
            "midi": 70,
            "name": "A#4",
            "ticks": 31584,
            "time": 43.672529250000004,
            "velocity": 0.29133858267716534
          },
          {
            "duration": 0.06637162500000215,
            "durationTicks": 48,
            "midi": 60,
            "name": "C4",
            "ticks": 31680,
            "time": 43.8052725,
            "velocity": 0.29133858267716534
          },
          {
            "duration": 0.06637162500000215,
            "durationTicks": 48,
            "midi": 82,
            "name": "A#5",
            "ticks": 31680,
            "time": 43.8052725,
            "velocity": 0.29133858267716534
          },
          {
            "duration": 0.06637162500000215,
            "durationTicks": 48,
            "midi": 42,
            "name": "F#2",
            "ticks": 31680,
            "time": 43.8052725,
            "velocity": 0.29133858267716534
          },
          {
            "duration": 0.06637162500000215,
            "durationTicks": 48,
            "midi": 36,
            "name": "C2",
            "ticks": 31680,
            "time": 43.8052725,
            "velocity": 0.3937007874015748
          },
          {
            "duration": 0.06637162499999505,
            "durationTicks": 48,
            "midi": 82,
            "name": "A#5",
            "ticks": 31776,
            "time": 43.938015750000005,
            "velocity": 0.14173228346456693
          },
          {
            "duration": 0.06637162500000215,
            "durationTicks": 48,
            "midi": 82,
            "name": "A#5",
            "ticks": 31872,
            "time": 44.070759,
            "velocity": 0.29133858267716534
          },
          {
            "duration": 0.06637162500000215,
            "durationTicks": 48,
            "midi": 46,
            "name": "A#2",
            "ticks": 31872,
            "time": 44.070759,
            "velocity": 0.29133858267716534
          },
          {
            "duration": 0.06637162500000215,
            "durationTicks": 48,
            "midi": 70,
            "name": "A#4",
            "ticks": 31872,
            "time": 44.070759,
            "velocity": 0.29133858267716534
          },
          {
            "duration": 0.06637162500000215,
            "durationTicks": 48,
            "midi": 82,
            "name": "A#5",
            "ticks": 31968,
            "time": 44.20350225,
            "velocity": 0.29133858267716534
          },
          {
            "duration": 0.06637162500000215,
            "durationTicks": 48,
            "midi": 60,
            "name": "C4",
            "ticks": 31968,
            "time": 44.20350225,
            "velocity": 0.29133858267716534
          },
          {
            "duration": 0.06637162499999505,
            "durationTicks": 48,
            "midi": 39,
            "name": "D#2",
            "ticks": 32064,
            "time": 44.336245500000004,
            "velocity": 0.3937007874015748
          },
          {
            "duration": 0.06637162499999505,
            "durationTicks": 48,
            "midi": 38,
            "name": "D2",
            "ticks": 32064,
            "time": 44.336245500000004,
            "velocity": 0.29133858267716534
          },
          {
            "duration": 0.06637162499999505,
            "durationTicks": 48,
            "midi": 60,
            "name": "C4",
            "ticks": 32064,
            "time": 44.336245500000004,
            "velocity": 0.29133858267716534
          },
          {
            "duration": 0.06637162499999505,
            "durationTicks": 48,
            "midi": 36,
            "name": "C2",
            "ticks": 32064,
            "time": 44.336245500000004,
            "velocity": 0.3937007874015748
          },
          {
            "duration": 0.06637162499999505,
            "durationTicks": 48,
            "midi": 42,
            "name": "F#2",
            "ticks": 32064,
            "time": 44.336245500000004,
            "velocity": 0.29133858267716534
          },
          {
            "duration": 0.06637162500000215,
            "durationTicks": 48,
            "midi": 60,
            "name": "C4",
            "ticks": 32160,
            "time": 44.46898875,
            "velocity": 0.29133858267716534
          },
          {
            "duration": 0.06637162499999505,
            "durationTicks": 48,
            "midi": 70,
            "name": "A#4",
            "ticks": 32256,
            "time": 44.601732000000005,
            "velocity": 0.29133858267716534
          },
          {
            "duration": 0.06637162499999505,
            "durationTicks": 48,
            "midi": 63,
            "name": "D#4",
            "ticks": 32256,
            "time": 44.601732000000005,
            "velocity": 0.29133858267716534
          },
          {
            "duration": 0.06637162499999505,
            "durationTicks": 48,
            "midi": 42,
            "name": "F#2",
            "ticks": 32256,
            "time": 44.601732000000005,
            "velocity": 0.3937007874015748
          },
          {
            "duration": 0.06637162500000215,
            "durationTicks": 48,
            "midi": 42,
            "name": "F#2",
            "ticks": 32352,
            "time": 44.73447525,
            "velocity": 0.3937007874015748
          },
          {
            "duration": 0.06637162500000215,
            "durationTicks": 48,
            "midi": 70,
            "name": "A#4",
            "ticks": 32352,
            "time": 44.73447525,
            "velocity": 0.29133858267716534
          },
          {
            "duration": 0.06637162500000215,
            "durationTicks": 48,
            "midi": 60,
            "name": "C4",
            "ticks": 32448,
            "time": 44.8672185,
            "velocity": 0.29133858267716534
          },
          {
            "duration": 0.06637162500000215,
            "durationTicks": 48,
            "midi": 42,
            "name": "F#2",
            "ticks": 32448,
            "time": 44.8672185,
            "velocity": 0.29133858267716534
          },
          {
            "duration": 0.06637162500000215,
            "durationTicks": 48,
            "midi": 36,
            "name": "C2",
            "ticks": 32448,
            "time": 44.8672185,
            "velocity": 0.3937007874015748
          },
          {
            "duration": 0.06637162500000215,
            "durationTicks": 48,
            "midi": 70,
            "name": "A#4",
            "ticks": 32640,
            "time": 45.132705,
            "velocity": 0.29133858267716534
          },
          {
            "duration": 0.06637162500000215,
            "durationTicks": 48,
            "midi": 46,
            "name": "A#2",
            "ticks": 32640,
            "time": 45.132705,
            "velocity": 0.29133858267716534
          },
          {
            "duration": 0.06637162499999505,
            "durationTicks": 48,
            "midi": 60,
            "name": "C4",
            "ticks": 32736,
            "time": 45.265448250000006,
            "velocity": 0.29133858267716534
          },
          {
            "duration": 0.06637162500000215,
            "durationTicks": 48,
            "midi": 36,
            "name": "C2",
            "ticks": 32832,
            "time": 45.3981915,
            "velocity": 0.3937007874015748
          },
          {
            "duration": 0.06637162500000215,
            "durationTicks": 48,
            "midi": 39,
            "name": "D#2",
            "ticks": 32832,
            "time": 45.3981915,
            "velocity": 0.3937007874015748
          },
          {
            "duration": 0.06637162500000215,
            "durationTicks": 48,
            "midi": 38,
            "name": "D2",
            "ticks": 32832,
            "time": 45.3981915,
            "velocity": 0.29133858267716534
          },
          {
            "duration": 0.06637162500000215,
            "durationTicks": 48,
            "midi": 60,
            "name": "C4",
            "ticks": 32832,
            "time": 45.3981915,
            "velocity": 0.29133858267716534
          },
          {
            "duration": 0.06637162500000215,
            "durationTicks": 48,
            "midi": 42,
            "name": "F#2",
            "ticks": 32832,
            "time": 45.3981915,
            "velocity": 0.29133858267716534
          },
          {
            "duration": 0.06637162500000215,
            "durationTicks": 48,
            "midi": 60,
            "name": "C4",
            "ticks": 32928,
            "time": 45.53093475,
            "velocity": 0.29133858267716534
          },
          {
            "duration": 0.06637162499999505,
            "durationTicks": 48,
            "midi": 46,
            "name": "A#2",
            "ticks": 33024,
            "time": 45.663678000000004,
            "velocity": 0.29133858267716534
          },
          {
            "duration": 0.06637162499999505,
            "durationTicks": 48,
            "midi": 63,
            "name": "D#4",
            "ticks": 33024,
            "time": 45.663678000000004,
            "velocity": 0.29133858267716534
          },
          {
            "duration": 0.06637162499999505,
            "durationTicks": 48,
            "midi": 70,
            "name": "A#4",
            "ticks": 33024,
            "time": 45.663678000000004,
            "velocity": 0.29133858267716534
          },
          {
            "duration": 0.06637162500000215,
            "durationTicks": 48,
            "midi": 70,
            "name": "A#4",
            "ticks": 33120,
            "time": 45.79642125,
            "velocity": 0.29133858267716534
          },
          {
            "duration": 0.06637162499999505,
            "durationTicks": 48,
            "midi": 60,
            "name": "C4",
            "ticks": 33216,
            "time": 45.929164500000006,
            "velocity": 0.29133858267716534
          },
          {
            "duration": 0.06637162499999505,
            "durationTicks": 48,
            "midi": 36,
            "name": "C2",
            "ticks": 33216,
            "time": 45.929164500000006,
            "velocity": 0.3937007874015748
          },
          {
            "duration": 0.06637162499999505,
            "durationTicks": 48,
            "midi": 42,
            "name": "F#2",
            "ticks": 33216,
            "time": 45.929164500000006,
            "velocity": 0.29133858267716534
          },
          {
            "duration": 0.06637162500000215,
            "durationTicks": 48,
            "midi": 46,
            "name": "A#2",
            "ticks": 33408,
            "time": 46.194651,
            "velocity": 0.29133858267716534
          },
          {
            "duration": 0.06637162500000215,
            "durationTicks": 48,
            "midi": 70,
            "name": "A#4",
            "ticks": 33408,
            "time": 46.194651,
            "velocity": 0.29133858267716534
          },
          {
            "duration": 0.06637162499999505,
            "durationTicks": 48,
            "midi": 60,
            "name": "C4",
            "ticks": 33504,
            "time": 46.327394250000005,
            "velocity": 0.29133858267716534
          },
          {
            "duration": 0.06637162500000215,
            "durationTicks": 48,
            "midi": 36,
            "name": "C2",
            "ticks": 33600,
            "time": 46.4601375,
            "velocity": 0.3937007874015748
          },
          {
            "duration": 0.06637162500000215,
            "durationTicks": 48,
            "midi": 39,
            "name": "D#2",
            "ticks": 33600,
            "time": 46.4601375,
            "velocity": 0.3937007874015748
          },
          {
            "duration": 0.06637162500000215,
            "durationTicks": 48,
            "midi": 38,
            "name": "D2",
            "ticks": 33600,
            "time": 46.4601375,
            "velocity": 0.29133858267716534
          },
          {
            "duration": 0.06637162500000215,
            "durationTicks": 48,
            "midi": 42,
            "name": "F#2",
            "ticks": 33600,
            "time": 46.4601375,
            "velocity": 0.29133858267716534
          },
          {
            "duration": 0.06637162500000215,
            "durationTicks": 48,
            "midi": 60,
            "name": "C4",
            "ticks": 33600,
            "time": 46.4601375,
            "velocity": 0.29133858267716534
          },
          {
            "duration": 0.06637162500000215,
            "durationTicks": 48,
            "midi": 60,
            "name": "C4",
            "ticks": 33696,
            "time": 46.59288075,
            "velocity": 0.29133858267716534
          },
          {
            "duration": 0.06637162500000215,
            "durationTicks": 48,
            "midi": 63,
            "name": "D#4",
            "ticks": 33792,
            "time": 46.725624,
            "velocity": 0.29133858267716534
          },
          {
            "duration": 0.06637162500000215,
            "durationTicks": 48,
            "midi": 70,
            "name": "A#4",
            "ticks": 33792,
            "time": 46.725624,
            "velocity": 0.29133858267716534
          },
          {
            "duration": 0.06637162500000215,
            "durationTicks": 48,
            "midi": 46,
            "name": "A#2",
            "ticks": 33792,
            "time": 46.725624,
            "velocity": 0.29133858267716534
          },
          {
            "duration": 0.06637162500000215,
            "durationTicks": 48,
            "midi": 70,
            "name": "A#4",
            "ticks": 33888,
            "time": 46.85836725,
            "velocity": 0.29133858267716534
          },
          {
            "duration": 0.06637162499999505,
            "durationTicks": 48,
            "midi": 36,
            "name": "C2",
            "ticks": 33984,
            "time": 46.991110500000005,
            "velocity": 0.3937007874015748
          },
          {
            "duration": 0.06637162499999505,
            "durationTicks": 48,
            "midi": 42,
            "name": "F#2",
            "ticks": 33984,
            "time": 46.991110500000005,
            "velocity": 0.29133858267716534
          },
          {
            "duration": 0.06637162499999505,
            "durationTicks": 48,
            "midi": 60,
            "name": "C4",
            "ticks": 33984,
            "time": 46.991110500000005,
            "velocity": 0.29133858267716534
          },
          {
            "duration": 0.06637162500000215,
            "durationTicks": 48,
            "midi": 46,
            "name": "A#2",
            "ticks": 34176,
            "time": 47.256597,
            "velocity": 0.29133858267716534
          },
          {
            "duration": 0.06637162500000215,
            "durationTicks": 48,
            "midi": 70,
            "name": "A#4",
            "ticks": 34176,
            "time": 47.256597,
            "velocity": 0.29133858267716534
          },
          {
            "duration": 0.06637162500000215,
            "durationTicks": 48,
            "midi": 60,
            "name": "C4",
            "ticks": 34272,
            "time": 47.389340250000004,
            "velocity": 0.29133858267716534
          },
          {
            "duration": 0.06637162500000215,
            "durationTicks": 48,
            "midi": 60,
            "name": "C4",
            "ticks": 34368,
            "time": 47.5220835,
            "velocity": 0.29133858267716534
          },
          {
            "duration": 0.06637162500000215,
            "durationTicks": 48,
            "midi": 38,
            "name": "D2",
            "ticks": 34368,
            "time": 47.5220835,
            "velocity": 0.29133858267716534
          },
          {
            "duration": 0.06637162500000215,
            "durationTicks": 48,
            "midi": 39,
            "name": "D#2",
            "ticks": 34368,
            "time": 47.5220835,
            "velocity": 0.3937007874015748
          },
          {
            "duration": 0.06637162500000215,
            "durationTicks": 48,
            "midi": 36,
            "name": "C2",
            "ticks": 34368,
            "time": 47.5220835,
            "velocity": 0.3937007874015748
          },
          {
            "duration": 0.06637162500000215,
            "durationTicks": 48,
            "midi": 42,
            "name": "F#2",
            "ticks": 34368,
            "time": 47.5220835,
            "velocity": 0.29133858267716534
          },
          {
            "duration": 0.06637162499999505,
            "durationTicks": 48,
            "midi": 60,
            "name": "C4",
            "ticks": 34464,
            "time": 47.654826750000005,
            "velocity": 0.29133858267716534
          },
          {
            "duration": 0.06637162500000215,
            "durationTicks": 48,
            "midi": 63,
            "name": "D#4",
            "ticks": 34560,
            "time": 47.78757,
            "velocity": 0.29133858267716534
          },
          {
            "duration": 0.06637162500000215,
            "durationTicks": 48,
            "midi": 46,
            "name": "A#2",
            "ticks": 34560,
            "time": 47.78757,
            "velocity": 0.29133858267716534
          },
          {
            "duration": 0.06637162500000215,
            "durationTicks": 48,
            "midi": 70,
            "name": "A#4",
            "ticks": 34560,
            "time": 47.78757,
            "velocity": 0.29133858267716534
          },
          {
            "duration": 0.06637162500000215,
            "durationTicks": 48,
            "midi": 70,
            "name": "A#4",
            "ticks": 34656,
            "time": 47.92031325,
            "velocity": 0.29133858267716534
          },
          {
            "duration": 0.06637162500000215,
            "durationTicks": 48,
            "midi": 82,
            "name": "A#5",
            "ticks": 34752,
            "time": 48.053056500000004,
            "velocity": 0.29133858267716534
          },
          {
            "duration": 0.06637162500000215,
            "durationTicks": 48,
            "midi": 36,
            "name": "C2",
            "ticks": 34752,
            "time": 48.053056500000004,
            "velocity": 0.3937007874015748
          },
          {
            "duration": 0.06637162500000215,
            "durationTicks": 48,
            "midi": 60,
            "name": "C4",
            "ticks": 34752,
            "time": 48.053056500000004,
            "velocity": 0.29133858267716534
          },
          {
            "duration": 0.06637162500000215,
            "durationTicks": 48,
            "midi": 42,
            "name": "F#2",
            "ticks": 34752,
            "time": 48.053056500000004,
            "velocity": 0.29133858267716534
          },
          {
            "duration": 0.06637162500000215,
            "durationTicks": 48,
            "midi": 82,
            "name": "A#5",
            "ticks": 34848,
            "time": 48.18579975,
            "velocity": 0.14173228346456693
          },
          {
            "duration": 0.06637162499999505,
            "durationTicks": 48,
            "midi": 82,
            "name": "A#5",
            "ticks": 34944,
            "time": 48.318543000000005,
            "velocity": 0.29133858267716534
          },
          {
            "duration": 0.06637162499999505,
            "durationTicks": 48,
            "midi": 46,
            "name": "A#2",
            "ticks": 34944,
            "time": 48.318543000000005,
            "velocity": 0.29133858267716534
          },
          {
            "duration": 0.06637162499999505,
            "durationTicks": 48,
            "midi": 70,
            "name": "A#4",
            "ticks": 34944,
            "time": 48.318543000000005,
            "velocity": 0.29133858267716534
          },
          {
            "duration": 0.06637162500000215,
            "durationTicks": 48,
            "midi": 82,
            "name": "A#5",
            "ticks": 35040,
            "time": 48.45128625,
            "velocity": 0.29133858267716534
          },
          {
            "duration": 0.06637162500000215,
            "durationTicks": 48,
            "midi": 60,
            "name": "C4",
            "ticks": 35040,
            "time": 48.45128625,
            "velocity": 0.29133858267716534
          },
          {
            "duration": 0.06637162500000215,
            "durationTicks": 48,
            "midi": 38,
            "name": "D2",
            "ticks": 35136,
            "time": 48.5840295,
            "velocity": 0.29133858267716534
          },
          {
            "duration": 0.06637162500000215,
            "durationTicks": 48,
            "midi": 42,
            "name": "F#2",
            "ticks": 35136,
            "time": 48.5840295,
            "velocity": 0.29133858267716534
          },
          {
            "duration": 0.06637162500000215,
            "durationTicks": 48,
            "midi": 60,
            "name": "C4",
            "ticks": 35136,
            "time": 48.5840295,
            "velocity": 0.29133858267716534
          },
          {
            "duration": 0.06637162500000215,
            "durationTicks": 48,
            "midi": 39,
            "name": "D#2",
            "ticks": 35136,
            "time": 48.5840295,
            "velocity": 0.3937007874015748
          },
          {
            "duration": 0.06637162500000215,
            "durationTicks": 48,
            "midi": 36,
            "name": "C2",
            "ticks": 35136,
            "time": 48.5840295,
            "velocity": 0.3937007874015748
          },
          {
            "duration": 0.06637162499999505,
            "durationTicks": 48,
            "midi": 60,
            "name": "C4",
            "ticks": 35232,
            "time": 48.716772750000004,
            "velocity": 0.29133858267716534
          },
          {
            "duration": 0.06637162500000215,
            "durationTicks": 48,
            "midi": 42,
            "name": "F#2",
            "ticks": 35328,
            "time": 48.849516,
            "velocity": 0.3937007874015748
          },
          {
            "duration": 0.06637162500000215,
            "durationTicks": 48,
            "midi": 70,
            "name": "A#4",
            "ticks": 35328,
            "time": 48.849516,
            "velocity": 0.29133858267716534
          },
          {
            "duration": 0.06637162500000215,
            "durationTicks": 48,
            "midi": 63,
            "name": "D#4",
            "ticks": 35328,
            "time": 48.849516,
            "velocity": 0.29133858267716534
          },
          {
            "duration": 0.06637162499999505,
            "durationTicks": 48,
            "midi": 70,
            "name": "A#4",
            "ticks": 35424,
            "time": 48.982259250000006,
            "velocity": 0.29133858267716534
          },
          {
            "duration": 0.06637162499999505,
            "durationTicks": 48,
            "midi": 42,
            "name": "F#2",
            "ticks": 35424,
            "time": 48.982259250000006,
            "velocity": 0.3937007874015748
          },
          {
            "duration": 0.06637162500000215,
            "durationTicks": 48,
            "midi": 36,
            "name": "C2",
            "ticks": 35520,
            "time": 49.1150025,
            "velocity": 0.3937007874015748
          },
          {
            "duration": 0.06637162500000215,
            "durationTicks": 48,
            "midi": 60,
            "name": "C4",
            "ticks": 35520,
            "time": 49.1150025,
            "velocity": 0.29133858267716534
          },
          {
            "duration": 0.06637162500000215,
            "durationTicks": 48,
            "midi": 42,
            "name": "F#2",
            "ticks": 35520,
            "time": 49.1150025,
            "velocity": 0.29133858267716534
          },
          {
            "duration": 0.06637162499999505,
            "durationTicks": 48,
            "midi": 70,
            "name": "A#4",
            "ticks": 35712,
            "time": 49.380489000000004,
            "velocity": 0.29133858267716534
          },
          {
            "duration": 0.06637162499999505,
            "durationTicks": 48,
            "midi": 46,
            "name": "A#2",
            "ticks": 35712,
            "time": 49.380489000000004,
            "velocity": 0.29133858267716534
          },
          {
            "duration": 0.06637162500000215,
            "durationTicks": 48,
            "midi": 60,
            "name": "C4",
            "ticks": 35808,
            "time": 49.51323225,
            "velocity": 0.29133858267716534
          },
          {
            "duration": 0.06637162499999505,
            "durationTicks": 48,
            "midi": 36,
            "name": "C2",
            "ticks": 35904,
            "time": 49.645975500000006,
            "velocity": 0.3937007874015748
          },
          {
            "duration": 0.06637162499999505,
            "durationTicks": 48,
            "midi": 39,
            "name": "D#2",
            "ticks": 35904,
            "time": 49.645975500000006,
            "velocity": 0.3937007874015748
          },
          {
            "duration": 0.06637162499999505,
            "durationTicks": 48,
            "midi": 38,
            "name": "D2",
            "ticks": 35904,
            "time": 49.645975500000006,
            "velocity": 0.29133858267716534
          },
          {
            "duration": 0.06637162499999505,
            "durationTicks": 48,
            "midi": 42,
            "name": "F#2",
            "ticks": 35904,
            "time": 49.645975500000006,
            "velocity": 0.29133858267716534
          },
          {
            "duration": 0.06637162499999505,
            "durationTicks": 48,
            "midi": 60,
            "name": "C4",
            "ticks": 35904,
            "time": 49.645975500000006,
            "velocity": 0.29133858267716534
          },
          {
            "duration": 0.06637162500000215,
            "durationTicks": 48,
            "midi": 60,
            "name": "C4",
            "ticks": 36000,
            "time": 49.77871875,
            "velocity": 0.29133858267716534
          },
          {
            "duration": 0.06637162500000215,
            "durationTicks": 48,
            "midi": 63,
            "name": "D#4",
            "ticks": 36096,
            "time": 49.911462,
            "velocity": 0.29133858267716534
          },
          {
            "duration": 0.06637162500000215,
            "durationTicks": 48,
            "midi": 70,
            "name": "A#4",
            "ticks": 36096,
            "time": 49.911462,
            "velocity": 0.29133858267716534
          },
          {
            "duration": 0.06637162500000215,
            "durationTicks": 48,
            "midi": 46,
            "name": "A#2",
            "ticks": 36096,
            "time": 49.911462,
            "velocity": 0.29133858267716534
          },
          {
            "duration": 0.06637162499999505,
            "durationTicks": 48,
            "midi": 70,
            "name": "A#4",
            "ticks": 36192,
            "time": 50.044205250000005,
            "velocity": 0.29133858267716534
          },
          {
            "duration": 0.06637162500000215,
            "durationTicks": 48,
            "midi": 36,
            "name": "C2",
            "ticks": 36288,
            "time": 50.1769485,
            "velocity": 0.3937007874015748
          },
          {
            "duration": 0.06637162500000215,
            "durationTicks": 48,
            "midi": 42,
            "name": "F#2",
            "ticks": 36288,
            "time": 50.1769485,
            "velocity": 0.29133858267716534
          },
          {
            "duration": 0.06637162500000215,
            "durationTicks": 48,
            "midi": 60,
            "name": "C4",
            "ticks": 36288,
            "time": 50.1769485,
            "velocity": 0.29133858267716534
          },
          {
            "duration": 0.06637162500000215,
            "durationTicks": 48,
            "midi": 46,
            "name": "A#2",
            "ticks": 36480,
            "time": 50.442435,
            "velocity": 0.29133858267716534
          },
          {
            "duration": 0.06637162500000215,
            "durationTicks": 48,
            "midi": 70,
            "name": "A#4",
            "ticks": 36480,
            "time": 50.442435,
            "velocity": 0.29133858267716534
          },
          {
            "duration": 0.06637162500000215,
            "durationTicks": 48,
            "midi": 60,
            "name": "C4",
            "ticks": 36576,
            "time": 50.57517825,
            "velocity": 0.29133858267716534
          },
          {
            "duration": 0.06637162499999505,
            "durationTicks": 48,
            "midi": 60,
            "name": "C4",
            "ticks": 36672,
            "time": 50.707921500000005,
            "velocity": 0.29133858267716534
          },
          {
            "duration": 0.06637162499999505,
            "durationTicks": 48,
            "midi": 36,
            "name": "C2",
            "ticks": 36672,
            "time": 50.707921500000005,
            "velocity": 0.3937007874015748
          },
          {
            "duration": 0.06637162499999505,
            "durationTicks": 48,
            "midi": 42,
            "name": "F#2",
            "ticks": 36672,
            "time": 50.707921500000005,
            "velocity": 0.29133858267716534
          },
          {
            "duration": 0.06637162499999505,
            "durationTicks": 48,
            "midi": 38,
            "name": "D2",
            "ticks": 36672,
            "time": 50.707921500000005,
            "velocity": 0.29133858267716534
          },
          {
            "duration": 0.06637162499999505,
            "durationTicks": 48,
            "midi": 39,
            "name": "D#2",
            "ticks": 36672,
            "time": 50.707921500000005,
            "velocity": 0.3937007874015748
          },
          {
            "duration": 0.06637162500000215,
            "durationTicks": 48,
            "midi": 60,
            "name": "C4",
            "ticks": 36768,
            "time": 50.84066475,
            "velocity": 0.29133858267716534
          },
          {
            "duration": 0.06637162499999505,
            "durationTicks": 48,
            "midi": 63,
            "name": "D#4",
            "ticks": 36864,
            "time": 50.973408000000006,
            "velocity": 0.29133858267716534
          },
          {
            "duration": 0.06637162499999505,
            "durationTicks": 48,
            "midi": 46,
            "name": "A#2",
            "ticks": 36864,
            "time": 50.973408000000006,
            "velocity": 0.29133858267716534
          },
          {
            "duration": 0.06637162499999505,
            "durationTicks": 48,
            "midi": 70,
            "name": "A#4",
            "ticks": 36864,
            "time": 50.973408000000006,
            "velocity": 0.29133858267716534
          },
          {
            "duration": 0.06637162500000215,
            "durationTicks": 48,
            "midi": 70,
            "name": "A#4",
            "ticks": 36960,
            "time": 51.10615125,
            "velocity": 0.29133858267716534
          },
          {
            "duration": 0.06637162500000215,
            "durationTicks": 48,
            "midi": 36,
            "name": "C2",
            "ticks": 37056,
            "time": 51.2388945,
            "velocity": 0.3937007874015748
          },
          {
            "duration": 0.06637162500000215,
            "durationTicks": 48,
            "midi": 42,
            "name": "F#2",
            "ticks": 37056,
            "time": 51.2388945,
            "velocity": 0.29133858267716534
          },
          {
            "duration": 0.06637162500000215,
            "durationTicks": 48,
            "midi": 60,
            "name": "C4",
            "ticks": 37056,
            "time": 51.2388945,
            "velocity": 0.29133858267716534
          },
          {
            "duration": 0.06637162500000215,
            "durationTicks": 48,
            "midi": 70,
            "name": "A#4",
            "ticks": 37248,
            "time": 51.504381,
            "velocity": 0.29133858267716534
          },
          {
            "duration": 0.06637162500000215,
            "durationTicks": 48,
            "midi": 46,
            "name": "A#2",
            "ticks": 37248,
            "time": 51.504381,
            "velocity": 0.29133858267716534
          },
          {
            "duration": 0.06637162500000215,
            "durationTicks": 48,
            "midi": 60,
            "name": "C4",
            "ticks": 37344,
            "time": 51.63712425,
            "velocity": 0.29133858267716534
          },
          {
            "duration": 0.06637162500000215,
            "durationTicks": 48,
            "midi": 39,
            "name": "D#2",
            "ticks": 37440,
            "time": 51.769867500000004,
            "velocity": 0.3937007874015748
          },
          {
            "duration": 0.06637162500000215,
            "durationTicks": 48,
            "midi": 38,
            "name": "D2",
            "ticks": 37440,
            "time": 51.769867500000004,
            "velocity": 0.29133858267716534
          },
          {
            "duration": 0.06637162500000215,
            "durationTicks": 48,
            "midi": 42,
            "name": "F#2",
            "ticks": 37440,
            "time": 51.769867500000004,
            "velocity": 0.29133858267716534
          },
          {
            "duration": 0.06637162500000215,
            "durationTicks": 48,
            "midi": 60,
            "name": "C4",
            "ticks": 37440,
            "time": 51.769867500000004,
            "velocity": 0.29133858267716534
          },
          {
            "duration": 0.06637162500000215,
            "durationTicks": 48,
            "midi": 36,
            "name": "C2",
            "ticks": 37440,
            "time": 51.769867500000004,
            "velocity": 0.3937007874015748
          },
          {
            "duration": 0.06637162500000215,
            "durationTicks": 48,
            "midi": 60,
            "name": "C4",
            "ticks": 37536,
            "time": 51.90261075,
            "velocity": 0.29133858267716534
          },
          {
            "duration": 0.06637162499999505,
            "durationTicks": 48,
            "midi": 63,
            "name": "D#4",
            "ticks": 37632,
            "time": 52.035354000000005,
            "velocity": 0.29133858267716534
          },
          {
            "duration": 0.06637162499999505,
            "durationTicks": 48,
            "midi": 46,
            "name": "A#2",
            "ticks": 37632,
            "time": 52.035354000000005,
            "velocity": 0.29133858267716534
          },
          {
            "duration": 0.06637162499999505,
            "durationTicks": 48,
            "midi": 70,
            "name": "A#4",
            "ticks": 37632,
            "time": 52.035354000000005,
            "velocity": 0.29133858267716534
          },
          {
            "duration": 0.06637162500000215,
            "durationTicks": 48,
            "midi": 70,
            "name": "A#4",
            "ticks": 37728,
            "time": 52.16809725,
            "velocity": 0.29133858267716534
          },
          {
            "duration": 0.06637162500000215,
            "durationTicks": 48,
            "midi": 82,
            "name": "A#5",
            "ticks": 37824,
            "time": 52.3008405,
            "velocity": 0.29133858267716534
          },
          {
            "duration": 0.06637162500000215,
            "durationTicks": 48,
            "midi": 60,
            "name": "C4",
            "ticks": 37824,
            "time": 52.3008405,
            "velocity": 0.29133858267716534
          },
          {
            "duration": 0.06637162500000215,
            "durationTicks": 48,
            "midi": 36,
            "name": "C2",
            "ticks": 37824,
            "time": 52.3008405,
            "velocity": 0.3937007874015748
          },
          {
            "duration": 0.06637162500000215,
            "durationTicks": 48,
            "midi": 42,
            "name": "F#2",
            "ticks": 37824,
            "time": 52.3008405,
            "velocity": 0.29133858267716534
          },
          {
            "duration": 0.06637162500000215,
            "durationTicks": 48,
            "midi": 82,
            "name": "A#5",
            "ticks": 37920,
            "time": 52.433583750000004,
            "velocity": 0.14173228346456693
          },
          {
            "duration": 0.06637162500000215,
            "durationTicks": 48,
            "midi": 70,
            "name": "A#4",
            "ticks": 38016,
            "time": 52.566327,
            "velocity": 0.29133858267716534
          },
          {
            "duration": 0.06637162500000215,
            "durationTicks": 48,
            "midi": 46,
            "name": "A#2",
            "ticks": 38016,
            "time": 52.566327,
            "velocity": 0.29133858267716534
          },
          {
            "duration": 0.06637162500000215,
            "durationTicks": 48,
            "midi": 82,
            "name": "A#5",
            "ticks": 38016,
            "time": 52.566327,
            "velocity": 0.29133858267716534
          },
          {
            "duration": 0.06637162499999505,
            "durationTicks": 48,
            "midi": 82,
            "name": "A#5",
            "ticks": 38112,
            "time": 52.699070250000005,
            "velocity": 0.29133858267716534
          },
          {
            "duration": 0.06637162499999505,
            "durationTicks": 48,
            "midi": 60,
            "name": "C4",
            "ticks": 38112,
            "time": 52.699070250000005,
            "velocity": 0.29133858267716534
          },
          {
            "duration": 0.06637162500000215,
            "durationTicks": 48,
            "midi": 39,
            "name": "D#2",
            "ticks": 38208,
            "time": 52.8318135,
            "velocity": 0.3937007874015748
          },
          {
            "duration": 0.06637162500000215,
            "durationTicks": 48,
            "midi": 60,
            "name": "C4",
            "ticks": 38208,
            "time": 52.8318135,
            "velocity": 0.29133858267716534
          },
          {
            "duration": 0.06637162500000215,
            "durationTicks": 48,
            "midi": 38,
            "name": "D2",
            "ticks": 38208,
            "time": 52.8318135,
            "velocity": 0.29133858267716534
          },
          {
            "duration": 0.06637162500000215,
            "durationTicks": 48,
            "midi": 42,
            "name": "F#2",
            "ticks": 38208,
            "time": 52.8318135,
            "velocity": 0.29133858267716534
          },
          {
            "duration": 0.06637162500000215,
            "durationTicks": 48,
            "midi": 36,
            "name": "C2",
            "ticks": 38208,
            "time": 52.8318135,
            "velocity": 0.3937007874015748
          },
          {
            "duration": 0.06637162500000215,
            "durationTicks": 48,
            "midi": 60,
            "name": "C4",
            "ticks": 38304,
            "time": 52.96455675,
            "velocity": 0.29133858267716534
          },
          {
            "duration": 0.06637162500000215,
            "durationTicks": 48,
            "midi": 42,
            "name": "F#2",
            "ticks": 38400,
            "time": 53.097300000000004,
            "velocity": 0.3937007874015748
          },
          {
            "duration": 0.06637162500000215,
            "durationTicks": 48,
            "midi": 70,
            "name": "A#4",
            "ticks": 38400,
            "time": 53.097300000000004,
            "velocity": 0.29133858267716534
          },
          {
            "duration": 0.06637162500000215,
            "durationTicks": 48,
            "midi": 63,
            "name": "D#4",
            "ticks": 38400,
            "time": 53.097300000000004,
            "velocity": 0.29133858267716534
          },
          {
            "duration": 0.06637162500000215,
            "durationTicks": 48,
            "midi": 70,
            "name": "A#4",
            "ticks": 38496,
            "time": 53.23004325,
            "velocity": 0.29133858267716534
          },
          {
            "duration": 0.06637162500000215,
            "durationTicks": 48,
            "midi": 42,
            "name": "F#2",
            "ticks": 38496,
            "time": 53.23004325,
            "velocity": 0.3937007874015748
          },
          {
            "duration": 0.06637162499999505,
            "durationTicks": 48,
            "midi": 42,
            "name": "F#2",
            "ticks": 38592,
            "time": 53.362786500000006,
            "velocity": 0.29133858267716534
          },
          {
            "duration": 0.06637162499999505,
            "durationTicks": 48,
            "midi": 60,
            "name": "C4",
            "ticks": 38592,
            "time": 53.362786500000006,
            "velocity": 0.29133858267716534
          },
          {
            "duration": 0.06637162499999505,
            "durationTicks": 48,
            "midi": 36,
            "name": "C2",
            "ticks": 38592,
            "time": 53.362786500000006,
            "velocity": 0.3937007874015748
          },
          {
            "duration": 0.06637162500000215,
            "durationTicks": 48,
            "midi": 46,
            "name": "A#2",
            "ticks": 38784,
            "time": 53.628273,
            "velocity": 0.29133858267716534
          },
          {
            "duration": 0.06637162500000215,
            "durationTicks": 48,
            "midi": 70,
            "name": "A#4",
            "ticks": 38784,
            "time": 53.628273,
            "velocity": 0.29133858267716534
          },
          {
            "duration": 0.06637162499999505,
            "durationTicks": 48,
            "midi": 60,
            "name": "C4",
            "ticks": 38880,
            "time": 53.761016250000004,
            "velocity": 0.29133858267716534
          },
          {
            "duration": 0.06637162500000215,
            "durationTicks": 48,
            "midi": 39,
            "name": "D#2",
            "ticks": 38976,
            "time": 53.8937595,
            "velocity": 0.3937007874015748
          },
          {
            "duration": 0.06637162500000215,
            "durationTicks": 48,
            "midi": 38,
            "name": "D2",
            "ticks": 38976,
            "time": 53.8937595,
            "velocity": 0.29133858267716534
          },
          {
            "duration": 0.06637162500000215,
            "durationTicks": 48,
            "midi": 60,
            "name": "C4",
            "ticks": 38976,
            "time": 53.8937595,
            "velocity": 0.29133858267716534
          },
          {
            "duration": 0.06637162500000215,
            "durationTicks": 48,
            "midi": 36,
            "name": "C2",
            "ticks": 38976,
            "time": 53.8937595,
            "velocity": 0.3937007874015748
          },
          {
            "duration": 0.06637162500000215,
            "durationTicks": 48,
            "midi": 42,
            "name": "F#2",
            "ticks": 38976,
            "time": 53.8937595,
            "velocity": 0.29133858267716534
          },
          {
            "duration": 0.06637162499999505,
            "durationTicks": 48,
            "midi": 60,
            "name": "C4",
            "ticks": 39072,
            "time": 54.026502750000006,
            "velocity": 0.29133858267716534
          },
          {
            "duration": 0.06637162500000215,
            "durationTicks": 48,
            "midi": 63,
            "name": "D#4",
            "ticks": 39168,
            "time": 54.159246,
            "velocity": 0.29133858267716534
          },
          {
            "duration": 0.06637162500000215,
            "durationTicks": 48,
            "midi": 46,
            "name": "A#2",
            "ticks": 39168,
            "time": 54.159246,
            "velocity": 0.29133858267716534
          },
          {
            "duration": 0.06637162500000215,
            "durationTicks": 48,
            "midi": 70,
            "name": "A#4",
            "ticks": 39168,
            "time": 54.159246,
            "velocity": 0.29133858267716534
          },
          {
            "duration": 0.06637162500000215,
            "durationTicks": 48,
            "midi": 70,
            "name": "A#4",
            "ticks": 39264,
            "time": 54.29198925,
            "velocity": 0.29133858267716534
          },
          {
            "duration": 0.06637162499999505,
            "durationTicks": 48,
            "midi": 36,
            "name": "C2",
            "ticks": 39360,
            "time": 54.424732500000005,
            "velocity": 0.3937007874015748
          },
          {
            "duration": 0.06637162499999505,
            "durationTicks": 48,
            "midi": 42,
            "name": "F#2",
            "ticks": 39360,
            "time": 54.424732500000005,
            "velocity": 0.29133858267716534
          },
          {
            "duration": 0.06637162499999505,
            "durationTicks": 48,
            "midi": 60,
            "name": "C4",
            "ticks": 39360,
            "time": 54.424732500000005,
            "velocity": 0.29133858267716534
          },
          {
            "duration": 0.06637162499999505,
            "durationTicks": 48,
            "midi": 46,
            "name": "A#2",
            "ticks": 39552,
            "time": 54.690219000000006,
            "velocity": 0.29133858267716534
          },
          {
            "duration": 0.06637162499999505,
            "durationTicks": 48,
            "midi": 70,
            "name": "A#4",
            "ticks": 39552,
            "time": 54.690219000000006,
            "velocity": 0.29133858267716534
          },
          {
            "duration": 0.06637162500000215,
            "durationTicks": 48,
            "midi": 60,
            "name": "C4",
            "ticks": 39648,
            "time": 54.82296225,
            "velocity": 0.29133858267716534
          },
          {
            "duration": 0.06637162500000215,
            "durationTicks": 48,
            "midi": 36,
            "name": "C2",
            "ticks": 39744,
            "time": 54.9557055,
            "velocity": 0.3937007874015748
          },
          {
            "duration": 0.06637162500000215,
            "durationTicks": 48,
            "midi": 42,
            "name": "F#2",
            "ticks": 39744,
            "time": 54.9557055,
            "velocity": 0.29133858267716534
          },
          {
            "duration": 0.06637162500000215,
            "durationTicks": 48,
            "midi": 39,
            "name": "D#2",
            "ticks": 39744,
            "time": 54.9557055,
            "velocity": 0.3937007874015748
          },
          {
            "duration": 0.06637162500000215,
            "durationTicks": 48,
            "midi": 60,
            "name": "C4",
            "ticks": 39744,
            "time": 54.9557055,
            "velocity": 0.29133858267716534
          },
          {
            "duration": 0.06637162500000215,
            "durationTicks": 48,
            "midi": 38,
            "name": "D2",
            "ticks": 39744,
            "time": 54.9557055,
            "velocity": 0.29133858267716534
          },
          {
            "duration": 0.06637162499999505,
            "durationTicks": 48,
            "midi": 60,
            "name": "C4",
            "ticks": 39840,
            "time": 55.088448750000005,
            "velocity": 0.29133858267716534
          },
          {
            "duration": 0.06637162500000215,
            "durationTicks": 48,
            "midi": 63,
            "name": "D#4",
            "ticks": 39936,
            "time": 55.221192,
            "velocity": 0.29133858267716534
          },
          {
            "duration": 0.06637162500000215,
            "durationTicks": 48,
            "midi": 46,
            "name": "A#2",
            "ticks": 39936,
            "time": 55.221192,
            "velocity": 0.29133858267716534
          },
          {
            "duration": 0.06637162500000215,
            "durationTicks": 48,
            "midi": 70,
            "name": "A#4",
            "ticks": 39936,
            "time": 55.221192,
            "velocity": 0.29133858267716534
          },
          {
            "duration": 0.06637162499999505,
            "durationTicks": 48,
            "midi": 70,
            "name": "A#4",
            "ticks": 40032,
            "time": 55.353935250000006,
            "velocity": 0.29133858267716534
          },
          {
            "duration": 0.06637162500000215,
            "durationTicks": 48,
            "midi": 36,
            "name": "C2",
            "ticks": 40128,
            "time": 55.486678500000004,
            "velocity": 0.3937007874015748
          },
          {
            "duration": 0.06637162500000215,
            "durationTicks": 48,
            "midi": 42,
            "name": "F#2",
            "ticks": 40128,
            "time": 55.486678500000004,
            "velocity": 0.29133858267716534
          },
          {
            "duration": 0.06637162500000215,
            "durationTicks": 48,
            "midi": 60,
            "name": "C4",
            "ticks": 40128,
            "time": 55.486678500000004,
            "velocity": 0.29133858267716534
          },
          {
            "duration": 0.06637162499999505,
            "durationTicks": 48,
            "midi": 70,
            "name": "A#4",
            "ticks": 40320,
            "time": 55.752165000000005,
            "velocity": 0.29133858267716534
          },
          {
            "duration": 0.06637162499999505,
            "durationTicks": 48,
            "midi": 46,
            "name": "A#2",
            "ticks": 40320,
            "time": 55.752165000000005,
            "velocity": 0.29133858267716534
          },
          {
            "duration": 0.06637162500000215,
            "durationTicks": 48,
            "midi": 60,
            "name": "C4",
            "ticks": 40416,
            "time": 55.88490825,
            "velocity": 0.29133858267716534
          },
          {
            "duration": 0.06637162500000215,
            "durationTicks": 48,
            "midi": 39,
            "name": "D#2",
            "ticks": 40512,
            "time": 56.0176515,
            "velocity": 0.3937007874015748
          },
          {
            "duration": 0.06637162500000215,
            "durationTicks": 48,
            "midi": 36,
            "name": "C2",
            "ticks": 40512,
            "time": 56.0176515,
            "velocity": 0.3937007874015748
          },
          {
            "duration": 0.06637162500000215,
            "durationTicks": 48,
            "midi": 60,
            "name": "C4",
            "ticks": 40512,
            "time": 56.0176515,
            "velocity": 0.29133858267716534
          },
          {
            "duration": 0.06637162500000215,
            "durationTicks": 48,
            "midi": 42,
            "name": "F#2",
            "ticks": 40512,
            "time": 56.0176515,
            "velocity": 0.29133858267716534
          },
          {
            "duration": 0.06637162500000215,
            "durationTicks": 48,
            "midi": 38,
            "name": "D2",
            "ticks": 40512,
            "time": 56.0176515,
            "velocity": 0.29133858267716534
          },
          {
            "duration": 0.06637162500000215,
            "durationTicks": 48,
            "midi": 60,
            "name": "C4",
            "ticks": 40608,
            "time": 56.150394750000004,
            "velocity": 0.29133858267716534
          },
          {
            "duration": 0.06637162500000215,
            "durationTicks": 48,
            "midi": 70,
            "name": "A#4",
            "ticks": 40704,
            "time": 56.283138,
            "velocity": 0.29133858267716534
          },
          {
            "duration": 0.06637162500000215,
            "durationTicks": 48,
            "midi": 63,
            "name": "D#4",
            "ticks": 40704,
            "time": 56.283138,
            "velocity": 0.29133858267716534
          },
          {
            "duration": 0.06637162500000215,
            "durationTicks": 48,
            "midi": 46,
            "name": "A#2",
            "ticks": 40704,
            "time": 56.283138,
            "velocity": 0.29133858267716534
          },
          {
            "duration": 0.06637162499999505,
            "durationTicks": 48,
            "midi": 70,
            "name": "A#4",
            "ticks": 40800,
            "time": 56.415881250000005,
            "velocity": 0.29133858267716534
          },
          {
            "duration": 0.06637162500000215,
            "durationTicks": 48,
            "midi": 60,
            "name": "C4",
            "ticks": 40896,
            "time": 56.5486245,
            "velocity": 0.29133858267716534
          },
          {
            "duration": 0.06637162500000215,
            "durationTicks": 48,
            "midi": 36,
            "name": "C2",
            "ticks": 40896,
            "time": 56.5486245,
            "velocity": 0.3937007874015748
          },
          {
            "duration": 0.06637162500000215,
            "durationTicks": 48,
            "midi": 82,
            "name": "A#5",
            "ticks": 40896,
            "time": 56.5486245,
            "velocity": 0.29133858267716534
          },
          {
            "duration": 0.06637162500000215,
            "durationTicks": 48,
            "midi": 42,
            "name": "F#2",
            "ticks": 40896,
            "time": 56.5486245,
            "velocity": 0.29133858267716534
          },
          {
            "duration": 0.06637162500000215,
            "durationTicks": 48,
            "midi": 82,
            "name": "A#5",
            "ticks": 40992,
            "time": 56.68136775,
            "velocity": 0.14173228346456693
          },
          {
            "duration": 0.06637162500000215,
            "durationTicks": 48,
            "midi": 70,
            "name": "A#4",
            "ticks": 41088,
            "time": 56.814111000000004,
            "velocity": 0.29133858267716534
          },
          {
            "duration": 0.06637162500000215,
            "durationTicks": 48,
            "midi": 82,
            "name": "A#5",
            "ticks": 41088,
            "time": 56.814111000000004,
            "velocity": 0.29133858267716534
          },
          {
            "duration": 0.06637162500000215,
            "durationTicks": 48,
            "midi": 46,
            "name": "A#2",
            "ticks": 41088,
            "time": 56.814111000000004,
            "velocity": 0.29133858267716534
          },
          {
            "duration": 0.06637162500000215,
            "durationTicks": 48,
            "midi": 60,
            "name": "C4",
            "ticks": 41184,
            "time": 56.94685425,
            "velocity": 0.29133858267716534
          },
          {
            "duration": 0.06637162500000215,
            "durationTicks": 48,
            "midi": 82,
            "name": "A#5",
            "ticks": 41184,
            "time": 56.94685425,
            "velocity": 0.29133858267716534
          },
          {
            "duration": 0.06637162499999505,
            "durationTicks": 48,
            "midi": 60,
            "name": "C4",
            "ticks": 41280,
            "time": 57.079597500000006,
            "velocity": 0.29133858267716534
          },
          {
            "duration": 0.06637162499999505,
            "durationTicks": 48,
            "midi": 42,
            "name": "F#2",
            "ticks": 41280,
            "time": 57.079597500000006,
            "velocity": 0.29133858267716534
          },
          {
            "duration": 0.06637162499999505,
            "durationTicks": 48,
            "midi": 36,
            "name": "C2",
            "ticks": 41280,
            "time": 57.079597500000006,
            "velocity": 0.3937007874015748
          },
          {
            "duration": 0.06637162499999505,
            "durationTicks": 48,
            "midi": 39,
            "name": "D#2",
            "ticks": 41280,
            "time": 57.079597500000006,
            "velocity": 0.3937007874015748
          },
          {
            "duration": 0.06637162499999505,
            "durationTicks": 48,
            "midi": 38,
            "name": "D2",
            "ticks": 41280,
            "time": 57.079597500000006,
            "velocity": 0.29133858267716534
          },
          {
            "duration": 0.06637162500000215,
            "durationTicks": 48,
            "midi": 60,
            "name": "C4",
            "ticks": 41376,
            "time": 57.21234075,
            "velocity": 0.29133858267716534
          },
          {
            "duration": 0.06637162500000215,
            "durationTicks": 48,
            "midi": 70,
            "name": "A#4",
            "ticks": 41472,
            "time": 57.345084,
            "velocity": 0.29133858267716534
          },
          {
            "duration": 0.06637162500000215,
            "durationTicks": 48,
            "midi": 63,
            "name": "D#4",
            "ticks": 41472,
            "time": 57.345084,
            "velocity": 0.29133858267716534
          },
          {
            "duration": 0.06637162500000215,
            "durationTicks": 48,
            "midi": 42,
            "name": "F#2",
            "ticks": 41472,
            "time": 57.345084,
            "velocity": 0.3937007874015748
          },
          {
            "duration": 0.06637162500000215,
            "durationTicks": 48,
            "midi": 70,
            "name": "A#4",
            "ticks": 41568,
            "time": 57.477827250000004,
            "velocity": 0.29133858267716534
          },
          {
            "duration": 0.06637162500000215,
            "durationTicks": 48,
            "midi": 42,
            "name": "F#2",
            "ticks": 41568,
            "time": 57.477827250000004,
            "velocity": 0.3937007874015748
          },
          {
            "duration": 0.06637162500000215,
            "durationTicks": 48,
            "midi": 36,
            "name": "C2",
            "ticks": 41664,
            "time": 57.6105705,
            "velocity": 0.3937007874015748
          },
          {
            "duration": 0.06637162500000215,
            "durationTicks": 48,
            "midi": 42,
            "name": "F#2",
            "ticks": 41664,
            "time": 57.6105705,
            "velocity": 0.29133858267716534
          },
          {
            "duration": 0.06637162500000215,
            "durationTicks": 48,
            "midi": 60,
            "name": "C4",
            "ticks": 41664,
            "time": 57.6105705,
            "velocity": 0.29133858267716534
          },
          {
            "duration": 0.06637162500000215,
            "durationTicks": 48,
            "midi": 70,
            "name": "A#4",
            "ticks": 41856,
            "time": 57.876057,
            "velocity": 0.29133858267716534
          },
          {
            "duration": 0.06637162500000215,
            "durationTicks": 48,
            "midi": 46,
            "name": "A#2",
            "ticks": 41856,
            "time": 57.876057,
            "velocity": 0.29133858267716534
          },
          {
            "duration": 0.06637162500000215,
            "durationTicks": 48,
            "midi": 60,
            "name": "C4",
            "ticks": 41952,
            "time": 58.00880025,
            "velocity": 0.29133858267716534
          },
          {
            "duration": 0.06637162500000215,
            "durationTicks": 48,
            "midi": 38,
            "name": "D2",
            "ticks": 42048,
            "time": 58.141543500000004,
            "velocity": 0.29133858267716534
          },
          {
            "duration": 0.06637162500000215,
            "durationTicks": 48,
            "midi": 36,
            "name": "C2",
            "ticks": 42048,
            "time": 58.141543500000004,
            "velocity": 0.3937007874015748
          },
          {
            "duration": 0.06637162500000215,
            "durationTicks": 48,
            "midi": 42,
            "name": "F#2",
            "ticks": 42048,
            "time": 58.141543500000004,
            "velocity": 0.29133858267716534
          },
          {
            "duration": 0.06637162500000215,
            "durationTicks": 48,
            "midi": 60,
            "name": "C4",
            "ticks": 42048,
            "time": 58.141543500000004,
            "velocity": 0.29133858267716534
          },
          {
            "duration": 0.06637162500000215,
            "durationTicks": 48,
            "midi": 39,
            "name": "D#2",
            "ticks": 42048,
            "time": 58.141543500000004,
            "velocity": 0.3937007874015748
          },
          {
            "duration": 0.06637162500000215,
            "durationTicks": 48,
            "midi": 60,
            "name": "C4",
            "ticks": 42144,
            "time": 58.27428675,
            "velocity": 0.29133858267716534
          },
          {
            "duration": 0.06637162499999505,
            "durationTicks": 48,
            "midi": 46,
            "name": "A#2",
            "ticks": 42240,
            "time": 58.407030000000006,
            "velocity": 0.29133858267716534
          },
          {
            "duration": 0.06637162499999505,
            "durationTicks": 48,
            "midi": 63,
            "name": "D#4",
            "ticks": 42240,
            "time": 58.407030000000006,
            "velocity": 0.29133858267716534
          },
          {
            "duration": 0.06637162499999505,
            "durationTicks": 48,
            "midi": 70,
            "name": "A#4",
            "ticks": 42240,
            "time": 58.407030000000006,
            "velocity": 0.29133858267716534
          },
          {
            "duration": 0.06637162500000215,
            "durationTicks": 48,
            "midi": 70,
            "name": "A#4",
            "ticks": 42336,
            "time": 58.53977325,
            "velocity": 0.29133858267716534
          },
          {
            "duration": 0.06637162500000215,
            "durationTicks": 48,
            "midi": 60,
            "name": "C4",
            "ticks": 42432,
            "time": 58.6725165,
            "velocity": 0.29133858267716534
          },
          {
            "duration": 0.06637162500000215,
            "durationTicks": 48,
            "midi": 42,
            "name": "F#2",
            "ticks": 42432,
            "time": 58.6725165,
            "velocity": 0.29133858267716534
          },
          {
            "duration": 0.06637162500000215,
            "durationTicks": 48,
            "midi": 36,
            "name": "C2",
            "ticks": 42432,
            "time": 58.6725165,
            "velocity": 0.3937007874015748
          },
          {
            "duration": 0.06637162500000215,
            "durationTicks": 48,
            "midi": 46,
            "name": "A#2",
            "ticks": 42624,
            "time": 58.938003,
            "velocity": 0.29133858267716534
          },
          {
            "duration": 0.06637162500000215,
            "durationTicks": 48,
            "midi": 70,
            "name": "A#4",
            "ticks": 42624,
            "time": 58.938003,
            "velocity": 0.29133858267716534
          },
          {
            "duration": 0.06637162499999505,
            "durationTicks": 48,
            "midi": 60,
            "name": "C4",
            "ticks": 42720,
            "time": 59.070746250000006,
            "velocity": 0.29133858267716534
          },
          {
            "duration": 0.06637162500000215,
            "durationTicks": 48,
            "midi": 36,
            "name": "C2",
            "ticks": 42816,
            "time": 59.2034895,
            "velocity": 0.3937007874015748
          },
          {
            "duration": 0.06637162500000215,
            "durationTicks": 48,
            "midi": 60,
            "name": "C4",
            "ticks": 42816,
            "time": 59.2034895,
            "velocity": 0.29133858267716534
          },
          {
            "duration": 0.06637162500000215,
            "durationTicks": 48,
            "midi": 39,
            "name": "D#2",
            "ticks": 42816,
            "time": 59.2034895,
            "velocity": 0.3937007874015748
          },
          {
            "duration": 0.06637162500000215,
            "durationTicks": 48,
            "midi": 38,
            "name": "D2",
            "ticks": 42816,
            "time": 59.2034895,
            "velocity": 0.29133858267716534
          },
          {
            "duration": 0.06637162500000215,
            "durationTicks": 48,
            "midi": 42,
            "name": "F#2",
            "ticks": 42816,
            "time": 59.2034895,
            "velocity": 0.29133858267716534
          },
          {
            "duration": 0.06637162500000215,
            "durationTicks": 48,
            "midi": 60,
            "name": "C4",
            "ticks": 42912,
            "time": 59.33623275,
            "velocity": 0.29133858267716534
          },
          {
            "duration": 0.06637162499999505,
            "durationTicks": 48,
            "midi": 70,
            "name": "A#4",
            "ticks": 43008,
            "time": 59.468976000000005,
            "velocity": 0.29133858267716534
          },
          {
            "duration": 0.06637162499999505,
            "durationTicks": 48,
            "midi": 63,
            "name": "D#4",
            "ticks": 43008,
            "time": 59.468976000000005,
            "velocity": 0.29133858267716534
          },
          {
            "duration": 0.06637162499999505,
            "durationTicks": 48,
            "midi": 46,
            "name": "A#2",
            "ticks": 43008,
            "time": 59.468976000000005,
            "velocity": 0.29133858267716534
          },
          {
            "duration": 0.06637162500000215,
            "durationTicks": 48,
            "midi": 70,
            "name": "A#4",
            "ticks": 43104,
            "time": 59.60171925,
            "velocity": 0.29133858267716534
          },
          {
            "duration": 0.06637162499999505,
            "durationTicks": 48,
            "midi": 36,
            "name": "C2",
            "ticks": 43200,
            "time": 59.73446250000001,
            "velocity": 0.3937007874015748
          },
          {
            "duration": 0.06637162499999505,
            "durationTicks": 48,
            "midi": 42,
            "name": "F#2",
            "ticks": 43200,
            "time": 59.73446250000001,
            "velocity": 0.29133858267716534
          },
          {
            "duration": 0.06637162499999505,
            "durationTicks": 48,
            "midi": 60,
            "name": "C4",
            "ticks": 43200,
            "time": 59.73446250000001,
            "velocity": 0.29133858267716534
          },
          {
            "duration": 0.06637162500000215,
            "durationTicks": 48,
            "midi": 46,
            "name": "A#2",
            "ticks": 43392,
            "time": 59.999949,
            "velocity": 0.29133858267716534
          },
          {
            "duration": 0.06637162500000215,
            "durationTicks": 48,
            "midi": 70,
            "name": "A#4",
            "ticks": 43392,
            "time": 59.999949,
            "velocity": 0.29133858267716534
          },
          {
            "duration": 0.06637162499999505,
            "durationTicks": 48,
            "midi": 60,
            "name": "C4",
            "ticks": 43488,
            "time": 60.132692250000005,
            "velocity": 0.29133858267716534
          },
          {
            "duration": 0.06637162500000215,
            "durationTicks": 48,
            "midi": 38,
            "name": "D2",
            "ticks": 43584,
            "time": 60.2654355,
            "velocity": 0.29133858267716534
          },
          {
            "duration": 0.06637162500000215,
            "durationTicks": 48,
            "midi": 39,
            "name": "D#2",
            "ticks": 43584,
            "time": 60.2654355,
            "velocity": 0.3937007874015748
          },
          {
            "duration": 0.06637162500000215,
            "durationTicks": 48,
            "midi": 60,
            "name": "C4",
            "ticks": 43584,
            "time": 60.2654355,
            "velocity": 0.29133858267716534
          },
          {
            "duration": 0.06637162500000215,
            "durationTicks": 48,
            "midi": 36,
            "name": "C2",
            "ticks": 43584,
            "time": 60.2654355,
            "velocity": 0.3937007874015748
          },
          {
            "duration": 0.06637162500000215,
            "durationTicks": 48,
            "midi": 42,
            "name": "F#2",
            "ticks": 43584,
            "time": 60.2654355,
            "velocity": 0.29133858267716534
          },
          {
            "duration": 0.06637162499999505,
            "durationTicks": 48,
            "midi": 60,
            "name": "C4",
            "ticks": 43680,
            "time": 60.39817875000001,
            "velocity": 0.29133858267716534
          },
          {
            "duration": 0.06637162500000215,
            "durationTicks": 48,
            "midi": 46,
            "name": "A#2",
            "ticks": 43776,
            "time": 60.530922000000004,
            "velocity": 0.29133858267716534
          },
          {
            "duration": 0.06637162500000215,
            "durationTicks": 48,
            "midi": 63,
            "name": "D#4",
            "ticks": 43776,
            "time": 60.530922000000004,
            "velocity": 0.29133858267716534
          },
          {
            "duration": 0.06637162500000215,
            "durationTicks": 48,
            "midi": 70,
            "name": "A#4",
            "ticks": 43776,
            "time": 60.530922000000004,
            "velocity": 0.29133858267716534
          },
          {
            "duration": 0.06637162500000215,
            "durationTicks": 48,
            "midi": 70,
            "name": "A#4",
            "ticks": 43872,
            "time": 60.66366525,
            "velocity": 0.29133858267716534
          },
          {
            "duration": 0.06637162499999505,
            "durationTicks": 48,
            "midi": 42,
            "name": "F#2",
            "ticks": 43968,
            "time": 60.796408500000005,
            "velocity": 0.29133858267716534
          },
          {
            "duration": 0.06637162499999505,
            "durationTicks": 48,
            "midi": 60,
            "name": "C4",
            "ticks": 43968,
            "time": 60.796408500000005,
            "velocity": 0.29133858267716534
          },
          {
            "duration": 0.06637162499999505,
            "durationTicks": 48,
            "midi": 36,
            "name": "C2",
            "ticks": 43968,
            "time": 60.796408500000005,
            "velocity": 0.3937007874015748
          },
          {
            "duration": 0.06637162499999505,
            "durationTicks": 48,
            "midi": 82,
            "name": "A#5",
            "ticks": 43968,
            "time": 60.796408500000005,
            "velocity": 0.29133858267716534
          },
          {
            "duration": 0.06637162500000215,
            "durationTicks": 48,
            "midi": 82,
            "name": "A#5",
            "ticks": 44064,
            "time": 60.92915175,
            "velocity": 0.14173228346456693
          },
          {
            "duration": 0.06637162500000215,
            "durationTicks": 48,
            "midi": 82,
            "name": "A#5",
            "ticks": 44160,
            "time": 61.061895,
            "velocity": 0.29133858267716534
          },
          {
            "duration": 0.06637162500000215,
            "durationTicks": 48,
            "midi": 70,
            "name": "A#4",
            "ticks": 44160,
            "time": 61.061895,
            "velocity": 0.29133858267716534
          },
          {
            "duration": 0.06637162500000215,
            "durationTicks": 48,
            "midi": 46,
            "name": "A#2",
            "ticks": 44160,
            "time": 61.061895,
            "velocity": 0.29133858267716534
          },
          {
            "duration": 0.06637162500000215,
            "durationTicks": 48,
            "midi": 82,
            "name": "A#5",
            "ticks": 44256,
            "time": 61.194638250000004,
            "velocity": 0.29133858267716534
          },
          {
            "duration": 0.06637162500000215,
            "durationTicks": 48,
            "midi": 60,
            "name": "C4",
            "ticks": 44256,
            "time": 61.194638250000004,
            "velocity": 0.29133858267716534
          },
          {
            "duration": 0.06637162500000215,
            "durationTicks": 48,
            "midi": 38,
            "name": "D2",
            "ticks": 44352,
            "time": 61.3273815,
            "velocity": 0.29133858267716534
          },
          {
            "duration": 0.06637162500000215,
            "durationTicks": 48,
            "midi": 60,
            "name": "C4",
            "ticks": 44352,
            "time": 61.3273815,
            "velocity": 0.29133858267716534
          },
          {
            "duration": 0.06637162500000215,
            "durationTicks": 48,
            "midi": 39,
            "name": "D#2",
            "ticks": 44352,
            "time": 61.3273815,
            "velocity": 0.3937007874015748
          },
          {
            "duration": 0.06637162500000215,
            "durationTicks": 48,
            "midi": 36,
            "name": "C2",
            "ticks": 44352,
            "time": 61.3273815,
            "velocity": 0.3937007874015748
          },
          {
            "duration": 0.06637162500000215,
            "durationTicks": 48,
            "midi": 42,
            "name": "F#2",
            "ticks": 44352,
            "time": 61.3273815,
            "velocity": 0.29133858267716534
          },
          {
            "duration": 0.06637162499999505,
            "durationTicks": 48,
            "midi": 60,
            "name": "C4",
            "ticks": 44448,
            "time": 61.460124750000006,
            "velocity": 0.29133858267716534
          },
          {
            "duration": 0.06637162500000215,
            "durationTicks": 48,
            "midi": 70,
            "name": "A#4",
            "ticks": 44544,
            "time": 61.592868,
            "velocity": 0.29133858267716534
          },
          {
            "duration": 0.06637162500000215,
            "durationTicks": 48,
            "midi": 63,
            "name": "D#4",
            "ticks": 44544,
            "time": 61.592868,
            "velocity": 0.29133858267716534
          },
          {
            "duration": 0.06637162500000215,
            "durationTicks": 48,
            "midi": 42,
            "name": "F#2",
            "ticks": 44544,
            "time": 61.592868,
            "velocity": 0.3937007874015748
          },
          {
            "duration": 0.06637162500000215,
            "durationTicks": 48,
            "midi": 42,
            "name": "F#2",
            "ticks": 44640,
            "time": 61.72561125,
            "velocity": 0.3937007874015748
          },
          {
            "duration": 0.06637162500000215,
            "durationTicks": 48,
            "midi": 70,
            "name": "A#4",
            "ticks": 44640,
            "time": 61.72561125,
            "velocity": 0.29133858267716534
          },
          {
            "duration": 0.06637162500000215,
            "durationTicks": 48,
            "midi": 42,
            "name": "F#2",
            "ticks": 44736,
            "time": 61.858354500000004,
            "velocity": 0.29133858267716534
          },
          {
            "duration": 0.06637162500000215,
            "durationTicks": 48,
            "midi": 60,
            "name": "C4",
            "ticks": 44736,
            "time": 61.858354500000004,
            "velocity": 0.29133858267716534
          },
          {
            "duration": 0.06637162500000215,
            "durationTicks": 48,
            "midi": 36,
            "name": "C2",
            "ticks": 44736,
            "time": 61.858354500000004,
            "velocity": 0.3937007874015748
          },
          {
            "duration": 0.06637162499999505,
            "durationTicks": 48,
            "midi": 70,
            "name": "A#4",
            "ticks": 44928,
            "time": 62.123841000000006,
            "velocity": 0.29133858267716534
          },
          {
            "duration": 0.06637162499999505,
            "durationTicks": 48,
            "midi": 46,
            "name": "A#2",
            "ticks": 44928,
            "time": 62.123841000000006,
            "velocity": 0.29133858267716534
          },
          {
            "duration": 0.06637162500000215,
            "durationTicks": 48,
            "midi": 60,
            "name": "C4",
            "ticks": 45024,
            "time": 62.25658425,
            "velocity": 0.29133858267716534
          },
          {
            "duration": 0.06637162500000215,
            "durationTicks": 48,
            "midi": 38,
            "name": "D2",
            "ticks": 45120,
            "time": 62.3893275,
            "velocity": 0.29133858267716534
          },
          {
            "duration": 0.06637162500000215,
            "durationTicks": 48,
            "midi": 36,
            "name": "C2",
            "ticks": 45120,
            "time": 62.3893275,
            "velocity": 0.3937007874015748
          },
          {
            "duration": 0.06637162500000215,
            "durationTicks": 48,
            "midi": 39,
            "name": "D#2",
            "ticks": 45120,
            "time": 62.3893275,
            "velocity": 0.3937007874015748
          },
          {
            "duration": 0.06637162500000215,
            "durationTicks": 48,
            "midi": 42,
            "name": "F#2",
            "ticks": 45120,
            "time": 62.3893275,
            "velocity": 0.29133858267716534
          },
          {
            "duration": 0.06637162500000215,
            "durationTicks": 48,
            "midi": 60,
            "name": "C4",
            "ticks": 45120,
            "time": 62.3893275,
            "velocity": 0.29133858267716534
          },
          {
            "duration": 0.06637162500000215,
            "durationTicks": 48,
            "midi": 60,
            "name": "C4",
            "ticks": 45216,
            "time": 62.522070750000005,
            "velocity": 0.29133858267716534
          },
          {
            "duration": 0.06637162500000215,
            "durationTicks": 48,
            "midi": 70,
            "name": "A#4",
            "ticks": 45312,
            "time": 62.654814,
            "velocity": 0.29133858267716534
          },
          {
            "duration": 0.06637162500000215,
            "durationTicks": 48,
            "midi": 46,
            "name": "A#2",
            "ticks": 45312,
            "time": 62.654814,
            "velocity": 0.29133858267716534
          },
          {
            "duration": 0.06637162500000215,
            "durationTicks": 48,
            "midi": 63,
            "name": "D#4",
            "ticks": 45312,
            "time": 62.654814,
            "velocity": 0.29133858267716534
          },
          {
            "duration": 0.06637162499999505,
            "durationTicks": 48,
            "midi": 70,
            "name": "A#4",
            "ticks": 45408,
            "time": 62.787557250000006,
            "velocity": 0.29133858267716534
          },
          {
            "duration": 0.06637162500000215,
            "durationTicks": 48,
            "midi": 42,
            "name": "F#2",
            "ticks": 45504,
            "time": 62.9203005,
            "velocity": 0.29133858267716534
          },
          {
            "duration": 0.06637162500000215,
            "durationTicks": 48,
            "midi": 60,
            "name": "C4",
            "ticks": 45504,
            "time": 62.9203005,
            "velocity": 0.29133858267716534
          },
          {
            "duration": 0.06637162500000215,
            "durationTicks": 48,
            "midi": 36,
            "name": "C2",
            "ticks": 45504,
            "time": 62.9203005,
            "velocity": 0.3937007874015748
          },
          {
            "duration": 0.06637162499999505,
            "durationTicks": 48,
            "midi": 46,
            "name": "A#2",
            "ticks": 45696,
            "time": 63.185787000000005,
            "velocity": 0.29133858267716534
          },
          {
            "duration": 0.06637162499999505,
            "durationTicks": 48,
            "midi": 70,
            "name": "A#4",
            "ticks": 45696,
            "time": 63.185787000000005,
            "velocity": 0.29133858267716534
          },
          {
            "duration": 0.06637162500000215,
            "durationTicks": 48,
            "midi": 60,
            "name": "C4",
            "ticks": 45792,
            "time": 63.31853025,
            "velocity": 0.29133858267716534
          },
          {
            "duration": 0.06637162499999505,
            "durationTicks": 48,
            "midi": 39,
            "name": "D#2",
            "ticks": 45888,
            "time": 63.451273500000006,
            "velocity": 0.3937007874015748
          },
          {
            "duration": 0.06637162499999505,
            "durationTicks": 48,
            "midi": 60,
            "name": "C4",
            "ticks": 45888,
            "time": 63.451273500000006,
            "velocity": 0.29133858267716534
          },
          {
            "duration": 0.06637162499999505,
            "durationTicks": 48,
            "midi": 42,
            "name": "F#2",
            "ticks": 45888,
            "time": 63.451273500000006,
            "velocity": 0.29133858267716534
          },
          {
            "duration": 0.06637162499999505,
            "durationTicks": 48,
            "midi": 38,
            "name": "D2",
            "ticks": 45888,
            "time": 63.451273500000006,
            "velocity": 0.29133858267716534
          },
          {
            "duration": 0.06637162499999505,
            "durationTicks": 48,
            "midi": 36,
            "name": "C2",
            "ticks": 45888,
            "time": 63.451273500000006,
            "velocity": 0.3937007874015748
          },
          {
            "duration": 0.06637162500000215,
            "durationTicks": 48,
            "midi": 60,
            "name": "C4",
            "ticks": 45984,
            "time": 63.58401675,
            "velocity": 0.29133858267716534
          },
          {
            "duration": 0.06637162500000215,
            "durationTicks": 48,
            "midi": 46,
            "name": "A#2",
            "ticks": 46080,
            "time": 63.71676,
            "velocity": 0.29133858267716534
          },
          {
            "duration": 0.06637162500000215,
            "durationTicks": 48,
            "midi": 70,
            "name": "A#4",
            "ticks": 46080,
            "time": 63.71676,
            "velocity": 0.29133858267716534
          },
          {
            "duration": 0.06637162500000215,
            "durationTicks": 48,
            "midi": 63,
            "name": "D#4",
            "ticks": 46080,
            "time": 63.71676,
            "velocity": 0.29133858267716534
          },
          {
            "duration": 0.06637162499999505,
            "durationTicks": 48,
            "midi": 70,
            "name": "A#4",
            "ticks": 46176,
            "time": 63.849503250000005,
            "velocity": 0.29133858267716534
          },
          {
            "duration": 0.06637162500000215,
            "durationTicks": 48,
            "midi": 36,
            "name": "C2",
            "ticks": 46272,
            "time": 63.9822465,
            "velocity": 0.3937007874015748
          },
          {
            "duration": 0.06637162500000215,
            "durationTicks": 48,
            "midi": 42,
            "name": "F#2",
            "ticks": 46272,
            "time": 63.9822465,
            "velocity": 0.29133858267716534
          },
          {
            "duration": 0.06637162500000215,
            "durationTicks": 48,
            "midi": 60,
            "name": "C4",
            "ticks": 46272,
            "time": 63.9822465,
            "velocity": 0.29133858267716534
          },
          {
            "duration": 0.06637162500000215,
            "durationTicks": 48,
            "midi": 70,
            "name": "A#4",
            "ticks": 46464,
            "time": 64.247733,
            "velocity": 0.29133858267716534
          },
          {
            "duration": 0.06637162500000215,
            "durationTicks": 48,
            "midi": 46,
            "name": "A#2",
            "ticks": 46464,
            "time": 64.247733,
            "velocity": 0.29133858267716534
          },
          {
            "duration": 0.06637162500000215,
            "durationTicks": 48,
            "midi": 60,
            "name": "C4",
            "ticks": 46560,
            "time": 64.38047625,
            "velocity": 0.29133858267716534
          },
          {
            "duration": 0.06637162500000215,
            "durationTicks": 48,
            "midi": 39,
            "name": "D#2",
            "ticks": 46656,
            "time": 64.5132195,
            "velocity": 0.3937007874015748
          },
          {
            "duration": 0.06637162500000215,
            "durationTicks": 48,
            "midi": 60,
            "name": "C4",
            "ticks": 46656,
            "time": 64.5132195,
            "velocity": 0.29133858267716534
          },
          {
            "duration": 0.06637162500000215,
            "durationTicks": 48,
            "midi": 38,
            "name": "D2",
            "ticks": 46656,
            "time": 64.5132195,
            "velocity": 0.29133858267716534
          },
          {
            "duration": 0.06637162500000215,
            "durationTicks": 48,
            "midi": 36,
            "name": "C2",
            "ticks": 46656,
            "time": 64.5132195,
            "velocity": 0.3937007874015748
          },
          {
            "duration": 0.06637162500000215,
            "durationTicks": 48,
            "midi": 42,
            "name": "F#2",
            "ticks": 46656,
            "time": 64.5132195,
            "velocity": 0.29133858267716534
          },
          {
            "duration": 0.06637162499998794,
            "durationTicks": 48,
            "midi": 60,
            "name": "C4",
            "ticks": 46752,
            "time": 64.64596275000001,
            "velocity": 0.29133858267716534
          },
          {
            "duration": 0.06637162500000215,
            "durationTicks": 48,
            "midi": 63,
            "name": "D#4",
            "ticks": 46848,
            "time": 64.778706,
            "velocity": 0.29133858267716534
          },
          {
            "duration": 0.06637162500000215,
            "durationTicks": 48,
            "midi": 70,
            "name": "A#4",
            "ticks": 46848,
            "time": 64.778706,
            "velocity": 0.29133858267716534
          },
          {
            "duration": 0.06637162500000215,
            "durationTicks": 48,
            "midi": 46,
            "name": "A#2",
            "ticks": 46848,
            "time": 64.778706,
            "velocity": 0.29133858267716534
          },
          {
            "duration": 0.06637162500000215,
            "durationTicks": 48,
            "midi": 70,
            "name": "A#4",
            "ticks": 46944,
            "time": 64.91144925,
            "velocity": 0.29133858267716534
          },
          {
            "duration": 0.06637162500000215,
            "durationTicks": 48,
            "midi": 42,
            "name": "F#2",
            "ticks": 47040,
            "time": 65.04419250000001,
            "velocity": 0.29133858267716534
          },
          {
            "duration": 0.06637162500000215,
            "durationTicks": 48,
            "midi": 60,
            "name": "C4",
            "ticks": 47040,
            "time": 65.04419250000001,
            "velocity": 0.29133858267716534
          },
          {
            "duration": 0.06637162500000215,
            "durationTicks": 48,
            "midi": 36,
            "name": "C2",
            "ticks": 47040,
            "time": 65.04419250000001,
            "velocity": 0.3937007874015748
          },
          {
            "duration": 0.06637162500000215,
            "durationTicks": 48,
            "midi": 82,
            "name": "A#5",
            "ticks": 47040,
            "time": 65.04419250000001,
            "velocity": 0.29133858267716534
          },
          {
            "duration": 0.06637162500000215,
            "durationTicks": 48,
            "midi": 82,
            "name": "A#5",
            "ticks": 47136,
            "time": 65.17693575,
            "velocity": 0.14173228346456693
          },
          {
            "duration": 0.06637162500000215,
            "durationTicks": 48,
            "midi": 70,
            "name": "A#4",
            "ticks": 47232,
            "time": 65.309679,
            "velocity": 0.29133858267716534
          },
          {
            "duration": 0.06637162500000215,
            "durationTicks": 48,
            "midi": 82,
            "name": "A#5",
            "ticks": 47232,
            "time": 65.309679,
            "velocity": 0.29133858267716534
          },
          {
            "duration": 0.06637162500000215,
            "durationTicks": 48,
            "midi": 46,
            "name": "A#2",
            "ticks": 47232,
            "time": 65.309679,
            "velocity": 0.29133858267716534
          },
          {
            "duration": 0.06637162500000215,
            "durationTicks": 48,
            "midi": 82,
            "name": "A#5",
            "ticks": 47328,
            "time": 65.44242225,
            "velocity": 0.29133858267716534
          },
          {
            "duration": 0.06637162500000215,
            "durationTicks": 48,
            "midi": 60,
            "name": "C4",
            "ticks": 47328,
            "time": 65.44242225,
            "velocity": 0.29133858267716534
          },
          {
            "duration": 0.06637162500000215,
            "durationTicks": 48,
            "midi": 36,
            "name": "C2",
            "ticks": 47424,
            "time": 65.5751655,
            "velocity": 0.3937007874015748
          },
          {
            "duration": 0.06637162500000215,
            "durationTicks": 48,
            "midi": 39,
            "name": "D#2",
            "ticks": 47424,
            "time": 65.5751655,
            "velocity": 0.3937007874015748
          },
          {
            "duration": 0.06637162500000215,
            "durationTicks": 48,
            "midi": 42,
            "name": "F#2",
            "ticks": 47424,
            "time": 65.5751655,
            "velocity": 0.29133858267716534
          },
          {
            "duration": 0.06637162500000215,
            "durationTicks": 48,
            "midi": 38,
            "name": "D2",
            "ticks": 47424,
            "time": 65.5751655,
            "velocity": 0.29133858267716534
          },
          {
            "duration": 0.06637162500000215,
            "durationTicks": 48,
            "midi": 60,
            "name": "C4",
            "ticks": 47424,
            "time": 65.5751655,
            "velocity": 0.29133858267716534
          },
          {
            "duration": 0.06637162500000215,
            "durationTicks": 48,
            "midi": 60,
            "name": "C4",
            "ticks": 47520,
            "time": 65.70790875,
            "velocity": 0.29133858267716534
          },
          {
            "duration": 0.06637162500000215,
            "durationTicks": 48,
            "midi": 70,
            "name": "A#4",
            "ticks": 47616,
            "time": 65.840652,
            "velocity": 0.29133858267716534
          },
          {
            "duration": 0.06637162500000215,
            "durationTicks": 48,
            "midi": 42,
            "name": "F#2",
            "ticks": 47616,
            "time": 65.840652,
            "velocity": 0.3937007874015748
          },
          {
            "duration": 0.06637162500000215,
            "durationTicks": 48,
            "midi": 63,
            "name": "D#4",
            "ticks": 47616,
            "time": 65.840652,
            "velocity": 0.29133858267716534
          },
          {
            "duration": 0.06637162499998794,
            "durationTicks": 48,
            "midi": 70,
            "name": "A#4",
            "ticks": 47712,
            "time": 65.97339525000001,
            "velocity": 0.29133858267716534
          },
          {
            "duration": 0.06637162499998794,
            "durationTicks": 48,
            "midi": 42,
            "name": "F#2",
            "ticks": 47712,
            "time": 65.97339525000001,
            "velocity": 0.3937007874015748
          },
          {
            "duration": 0.06637162500000215,
            "durationTicks": 48,
            "midi": 36,
            "name": "C2",
            "ticks": 47808,
            "time": 66.1061385,
            "velocity": 0.3937007874015748
          },
          {
            "duration": 0.06637162500000215,
            "durationTicks": 48,
            "midi": 60,
            "name": "C4",
            "ticks": 47808,
            "time": 66.1061385,
            "velocity": 0.29133858267716534
          },
          {
            "duration": 0.06637162500000215,
            "durationTicks": 48,
            "midi": 42,
            "name": "F#2",
            "ticks": 47808,
            "time": 66.1061385,
            "velocity": 0.29133858267716534
          },
          {
            "duration": 0.06637162499998794,
            "durationTicks": 48,
            "midi": 70,
            "name": "A#4",
            "ticks": 48000,
            "time": 66.37162500000001,
            "velocity": 0.29133858267716534
          },
          {
            "duration": 0.06637162499998794,
            "durationTicks": 48,
            "midi": 46,
            "name": "A#2",
            "ticks": 48000,
            "time": 66.37162500000001,
            "velocity": 0.29133858267716534
          },
          {
            "duration": 0.06637162500000215,
            "durationTicks": 48,
            "midi": 60,
            "name": "C4",
            "ticks": 48096,
            "time": 66.50436825,
            "velocity": 0.29133858267716534
          },
          {
            "duration": 0.06637162500000215,
            "durationTicks": 48,
            "midi": 36,
            "name": "C2",
            "ticks": 48192,
            "time": 66.6371115,
            "velocity": 0.3937007874015748
          },
          {
            "duration": 0.06637162500000215,
            "durationTicks": 48,
            "midi": 39,
            "name": "D#2",
            "ticks": 48192,
            "time": 66.6371115,
            "velocity": 0.3937007874015748
          },
          {
            "duration": 0.06637162500000215,
            "durationTicks": 48,
            "midi": 38,
            "name": "D2",
            "ticks": 48192,
            "time": 66.6371115,
            "velocity": 0.29133858267716534
          },
          {
            "duration": 0.06637162500000215,
            "durationTicks": 48,
            "midi": 42,
            "name": "F#2",
            "ticks": 48192,
            "time": 66.6371115,
            "velocity": 0.29133858267716534
          },
          {
            "duration": 0.06637162500000215,
            "durationTicks": 48,
            "midi": 60,
            "name": "C4",
            "ticks": 48192,
            "time": 66.6371115,
            "velocity": 0.29133858267716534
          },
          {
            "duration": 0.06637162500000215,
            "durationTicks": 48,
            "midi": 60,
            "name": "C4",
            "ticks": 48288,
            "time": 66.76985475000001,
            "velocity": 0.29133858267716534
          },
          {
            "duration": 0.06637162500000215,
            "durationTicks": 48,
            "midi": 46,
            "name": "A#2",
            "ticks": 48384,
            "time": 66.902598,
            "velocity": 0.29133858267716534
          },
          {
            "duration": 0.06637162500000215,
            "durationTicks": 48,
            "midi": 63,
            "name": "D#4",
            "ticks": 48384,
            "time": 66.902598,
            "velocity": 0.29133858267716534
          },
          {
            "duration": 0.06637162500000215,
            "durationTicks": 48,
            "midi": 70,
            "name": "A#4",
            "ticks": 48384,
            "time": 66.902598,
            "velocity": 0.29133858267716534
          },
          {
            "duration": 0.06637162500000215,
            "durationTicks": 48,
            "midi": 70,
            "name": "A#4",
            "ticks": 48480,
            "time": 67.03534125,
            "velocity": 0.29133858267716534
          },
          {
            "duration": 0.06637162500000215,
            "durationTicks": 48,
            "midi": 36,
            "name": "C2",
            "ticks": 48576,
            "time": 67.1680845,
            "velocity": 0.3937007874015748
          },
          {
            "duration": 0.06637162500000215,
            "durationTicks": 48,
            "midi": 42,
            "name": "F#2",
            "ticks": 48576,
            "time": 67.1680845,
            "velocity": 0.29133858267716534
          },
          {
            "duration": 0.06637162500000215,
            "durationTicks": 48,
            "midi": 60,
            "name": "C4",
            "ticks": 48576,
            "time": 67.1680845,
            "velocity": 0.29133858267716534
          },
          {
            "duration": 0.06637162500000215,
            "durationTicks": 48,
            "midi": 70,
            "name": "A#4",
            "ticks": 48768,
            "time": 67.433571,
            "velocity": 0.29133858267716534
          },
          {
            "duration": 0.06637162500000215,
            "durationTicks": 48,
            "midi": 46,
            "name": "A#2",
            "ticks": 48768,
            "time": 67.433571,
            "velocity": 0.29133858267716534
          },
          {
            "duration": 0.06637162500000215,
            "durationTicks": 48,
            "midi": 60,
            "name": "C4",
            "ticks": 48864,
            "time": 67.56631425,
            "velocity": 0.29133858267716534
          },
          {
            "duration": 0.06637162499998794,
            "durationTicks": 48,
            "midi": 39,
            "name": "D#2",
            "ticks": 48960,
            "time": 67.69905750000001,
            "velocity": 0.3937007874015748
          },
          {
            "duration": 0.06637162499998794,
            "durationTicks": 48,
            "midi": 36,
            "name": "C2",
            "ticks": 48960,
            "time": 67.69905750000001,
            "velocity": 0.3937007874015748
          },
          {
            "duration": 0.06637162499998794,
            "durationTicks": 48,
            "midi": 60,
            "name": "C4",
            "ticks": 48960,
            "time": 67.69905750000001,
            "velocity": 0.29133858267716534
          },
          {
            "duration": 0.06637162499998794,
            "durationTicks": 48,
            "midi": 38,
            "name": "D2",
            "ticks": 48960,
            "time": 67.69905750000001,
            "velocity": 0.29133858267716534
          },
          {
            "duration": 0.06637162499998794,
            "durationTicks": 48,
            "midi": 42,
            "name": "F#2",
            "ticks": 48960,
            "time": 67.69905750000001,
            "velocity": 0.29133858267716534
          },
          {
            "duration": 0.06637162500000215,
            "durationTicks": 48,
            "midi": 60,
            "name": "C4",
            "ticks": 49056,
            "time": 67.83180075,
            "velocity": 0.29133858267716534
          },
          {
            "duration": 0.06637162500000215,
            "durationTicks": 48,
            "midi": 70,
            "name": "A#4",
            "ticks": 49152,
            "time": 67.964544,
            "velocity": 0.29133858267716534
          },
          {
            "duration": 0.06637162500000215,
            "durationTicks": 48,
            "midi": 63,
            "name": "D#4",
            "ticks": 49152,
            "time": 67.964544,
            "velocity": 0.29133858267716534
          },
          {
            "duration": 0.06637162500000215,
            "durationTicks": 48,
            "midi": 46,
            "name": "A#2",
            "ticks": 49152,
            "time": 67.964544,
            "velocity": 0.29133858267716534
          },
          {
            "duration": 0.06637162500000215,
            "durationTicks": 48,
            "midi": 70,
            "name": "A#4",
            "ticks": 49248,
            "time": 68.09728725000001,
            "velocity": 0.29133858267716534
          },
          {
            "duration": 0.06637162500000215,
            "durationTicks": 48,
            "midi": 60,
            "name": "C4",
            "ticks": 49344,
            "time": 68.2300305,
            "velocity": 0.29133858267716534
          },
          {
            "duration": 0.06637162500000215,
            "durationTicks": 48,
            "midi": 42,
            "name": "F#2",
            "ticks": 49344,
            "time": 68.2300305,
            "velocity": 0.29133858267716534
          },
          {
            "duration": 0.06637162500000215,
            "durationTicks": 48,
            "midi": 36,
            "name": "C2",
            "ticks": 49344,
            "time": 68.2300305,
            "velocity": 0.3937007874015748
          },
          {
            "duration": 0.06637162500000215,
            "durationTicks": 48,
            "midi": 70,
            "name": "A#4",
            "ticks": 49536,
            "time": 68.495517,
            "velocity": 0.29133858267716534
          },
          {
            "duration": 0.06637162500000215,
            "durationTicks": 48,
            "midi": 46,
            "name": "A#2",
            "ticks": 49536,
            "time": 68.495517,
            "velocity": 0.29133858267716534
          },
          {
            "duration": 0.06637162500000215,
            "durationTicks": 48,
            "midi": 60,
            "name": "C4",
            "ticks": 49632,
            "time": 68.62826025,
            "velocity": 0.29133858267716534
          },
          {
            "duration": 0.06637162500000215,
            "durationTicks": 48,
            "midi": 36,
            "name": "C2",
            "ticks": 49728,
            "time": 68.7610035,
            "velocity": 0.3937007874015748
          },
          {
            "duration": 0.06637162500000215,
            "durationTicks": 48,
            "midi": 38,
            "name": "D2",
            "ticks": 49728,
            "time": 68.7610035,
            "velocity": 0.29133858267716534
          },
          {
            "duration": 0.06637162500000215,
            "durationTicks": 48,
            "midi": 42,
            "name": "F#2",
            "ticks": 49728,
            "time": 68.7610035,
            "velocity": 0.29133858267716534
          },
          {
            "duration": 0.06637162500000215,
            "durationTicks": 48,
            "midi": 60,
            "name": "C4",
            "ticks": 49728,
            "time": 68.7610035,
            "velocity": 0.29133858267716534
          },
          {
            "duration": 0.06637162500000215,
            "durationTicks": 48,
            "midi": 39,
            "name": "D#2",
            "ticks": 49728,
            "time": 68.7610035,
            "velocity": 0.3937007874015748
          },
          {
            "duration": 0.06637162500000215,
            "durationTicks": 48,
            "midi": 60,
            "name": "C4",
            "ticks": 49824,
            "time": 68.89374675,
            "velocity": 0.29133858267716534
          },
          {
            "duration": 0.06637162499998794,
            "durationTicks": 48,
            "midi": 70,
            "name": "A#4",
            "ticks": 49920,
            "time": 69.02649000000001,
            "velocity": 0.29133858267716534
          },
          {
            "duration": 0.06637162499998794,
            "durationTicks": 48,
            "midi": 63,
            "name": "D#4",
            "ticks": 49920,
            "time": 69.02649000000001,
            "velocity": 0.29133858267716534
          },
          {
            "duration": 0.06637162499998794,
            "durationTicks": 48,
            "midi": 46,
            "name": "A#2",
            "ticks": 49920,
            "time": 69.02649000000001,
            "velocity": 0.29133858267716534
          },
          {
            "duration": 0.06637162500000215,
            "durationTicks": 48,
            "midi": 70,
            "name": "A#4",
            "ticks": 50016,
            "time": 69.15923325,
            "velocity": 0.29133858267716534
          },
          {
            "duration": 0.06637162500000215,
            "durationTicks": 48,
            "midi": 82,
            "name": "A#5",
            "ticks": 50112,
            "time": 69.2919765,
            "velocity": 0.29133858267716534
          },
          {
            "duration": 0.06637162500000215,
            "durationTicks": 48,
            "midi": 42,
            "name": "F#2",
            "ticks": 50112,
            "time": 69.2919765,
            "velocity": 0.29133858267716534
          },
          {
            "duration": 0.06637162500000215,
            "durationTicks": 48,
            "midi": 36,
            "name": "C2",
            "ticks": 50112,
            "time": 69.2919765,
            "velocity": 0.3937007874015748
          },
          {
            "duration": 0.06637162500000215,
            "durationTicks": 48,
            "midi": 60,
            "name": "C4",
            "ticks": 50112,
            "time": 69.2919765,
            "velocity": 0.29133858267716534
          },
          {
            "duration": 0.06637162500000215,
            "durationTicks": 48,
            "midi": 82,
            "name": "A#5",
            "ticks": 50208,
            "time": 69.42471975000001,
            "velocity": 0.14173228346456693
          },
          {
            "duration": 0.06637162500000215,
            "durationTicks": 48,
            "midi": 46,
            "name": "A#2",
            "ticks": 50304,
            "time": 69.557463,
            "velocity": 0.29133858267716534
          },
          {
            "duration": 0.06637162500000215,
            "durationTicks": 48,
            "midi": 70,
            "name": "A#4",
            "ticks": 50304,
            "time": 69.557463,
            "velocity": 0.29133858267716534
          },
          {
            "duration": 0.06637162500000215,
            "durationTicks": 48,
            "midi": 82,
            "name": "A#5",
            "ticks": 50304,
            "time": 69.557463,
            "velocity": 0.29133858267716534
          },
          {
            "duration": 0.06637162500000215,
            "durationTicks": 48,
            "midi": 82,
            "name": "A#5",
            "ticks": 50400,
            "time": 69.69020625,
            "velocity": 0.29133858267716534
          },
          {
            "duration": 0.06637162500000215,
            "durationTicks": 48,
            "midi": 60,
            "name": "C4",
            "ticks": 50400,
            "time": 69.69020625,
            "velocity": 0.29133858267716534
          },
          {
            "duration": 0.06637162500000215,
            "durationTicks": 48,
            "midi": 38,
            "name": "D2",
            "ticks": 50496,
            "time": 69.82294950000001,
            "velocity": 0.29133858267716534
          },
          {
            "duration": 0.06637162500000215,
            "durationTicks": 48,
            "midi": 39,
            "name": "D#2",
            "ticks": 50496,
            "time": 69.82294950000001,
            "velocity": 0.3937007874015748
          },
          {
            "duration": 0.06637162500000215,
            "durationTicks": 48,
            "midi": 42,
            "name": "F#2",
            "ticks": 50496,
            "time": 69.82294950000001,
            "velocity": 0.29133858267716534
          },
          {
            "duration": 0.06637162500000215,
            "durationTicks": 48,
            "midi": 36,
            "name": "C2",
            "ticks": 50496,
            "time": 69.82294950000001,
            "velocity": 0.3937007874015748
          },
          {
            "duration": 0.06637162500000215,
            "durationTicks": 48,
            "midi": 60,
            "name": "C4",
            "ticks": 50496,
            "time": 69.82294950000001,
            "velocity": 0.29133858267716534
          },
          {
            "duration": 0.06637162500000215,
            "durationTicks": 48,
            "midi": 60,
            "name": "C4",
            "ticks": 50592,
            "time": 69.95569275,
            "velocity": 0.29133858267716534
          },
          {
            "duration": 0.06637162500000215,
            "durationTicks": 48,
            "midi": 42,
            "name": "F#2",
            "ticks": 50688,
            "time": 70.088436,
            "velocity": 0.3937007874015748
          },
          {
            "duration": 0.06637162500000215,
            "durationTicks": 48,
            "midi": 70,
            "name": "A#4",
            "ticks": 50688,
            "time": 70.088436,
            "velocity": 0.29133858267716534
          },
          {
            "duration": 0.06637162500000215,
            "durationTicks": 48,
            "midi": 63,
            "name": "D#4",
            "ticks": 50688,
            "time": 70.088436,
            "velocity": 0.29133858267716534
          },
          {
            "duration": 0.06637162500000215,
            "durationTicks": 48,
            "midi": 42,
            "name": "F#2",
            "ticks": 50784,
            "time": 70.22117925,
            "velocity": 0.3937007874015748
          },
          {
            "duration": 0.06637162500000215,
            "durationTicks": 48,
            "midi": 70,
            "name": "A#4",
            "ticks": 50784,
            "time": 70.22117925,
            "velocity": 0.29133858267716534
          },
          {
            "duration": 0.06637162499998794,
            "durationTicks": 48,
            "midi": 60,
            "name": "C4",
            "ticks": 50880,
            "time": 70.35392250000001,
            "velocity": 0.29133858267716534
          },
          {
            "duration": 0.06637162499998794,
            "durationTicks": 48,
            "midi": 36,
            "name": "C2",
            "ticks": 50880,
            "time": 70.35392250000001,
            "velocity": 0.3937007874015748
          },
          {
            "duration": 0.06637162499998794,
            "durationTicks": 48,
            "midi": 42,
            "name": "F#2",
            "ticks": 50880,
            "time": 70.35392250000001,
            "velocity": 0.29133858267716534
          },
          {
            "duration": 0.06637162500000215,
            "durationTicks": 48,
            "midi": 70,
            "name": "A#4",
            "ticks": 51072,
            "time": 70.619409,
            "velocity": 0.29133858267716534
          },
          {
            "duration": 0.06637162500000215,
            "durationTicks": 48,
            "midi": 46,
            "name": "A#2",
            "ticks": 51072,
            "time": 70.619409,
            "velocity": 0.29133858267716534
          },
          {
            "duration": 0.06637162499998794,
            "durationTicks": 48,
            "midi": 60,
            "name": "C4",
            "ticks": 51168,
            "time": 70.75215225000001,
            "velocity": 0.29133858267716534
          },
          {
            "duration": 0.06637162500000215,
            "durationTicks": 48,
            "midi": 36,
            "name": "C2",
            "ticks": 51264,
            "time": 70.8848955,
            "velocity": 0.3937007874015748
          },
          {
            "duration": 0.06637162500000215,
            "durationTicks": 48,
            "midi": 42,
            "name": "F#2",
            "ticks": 51264,
            "time": 70.8848955,
            "velocity": 0.29133858267716534
          },
          {
            "duration": 0.06637162500000215,
            "durationTicks": 48,
            "midi": 39,
            "name": "D#2",
            "ticks": 51264,
            "time": 70.8848955,
            "velocity": 0.3937007874015748
          },
          {
            "duration": 0.06637162500000215,
            "durationTicks": 48,
            "midi": 60,
            "name": "C4",
            "ticks": 51264,
            "time": 70.8848955,
            "velocity": 0.29133858267716534
          },
          {
            "duration": 0.06637162500000215,
            "durationTicks": 48,
            "midi": 38,
            "name": "D2",
            "ticks": 51264,
            "time": 70.8848955,
            "velocity": 0.29133858267716534
          },
          {
            "duration": 0.06637162500000215,
            "durationTicks": 48,
            "midi": 60,
            "name": "C4",
            "ticks": 51360,
            "time": 71.01763875,
            "velocity": 0.29133858267716534
          },
          {
            "duration": 0.06637162500000215,
            "durationTicks": 48,
            "midi": 70,
            "name": "A#4",
            "ticks": 51456,
            "time": 71.15038200000001,
            "velocity": 0.29133858267716534
          },
          {
            "duration": 0.06637162500000215,
            "durationTicks": 48,
            "midi": 46,
            "name": "A#2",
            "ticks": 51456,
            "time": 71.15038200000001,
            "velocity": 0.29133858267716534
          },
          {
            "duration": 0.06637162500000215,
            "durationTicks": 48,
            "midi": 63,
            "name": "D#4",
            "ticks": 51456,
            "time": 71.15038200000001,
            "velocity": 0.29133858267716534
          },
          {
            "duration": 0.06637162500000215,
            "durationTicks": 48,
            "midi": 70,
            "name": "A#4",
            "ticks": 51552,
            "time": 71.28312525,
            "velocity": 0.29133858267716534
          },
          {
            "duration": 0.06637162500000215,
            "durationTicks": 48,
            "midi": 60,
            "name": "C4",
            "ticks": 51648,
            "time": 71.4158685,
            "velocity": 0.29133858267716534
          },
          {
            "duration": 0.06637162500000215,
            "durationTicks": 48,
            "midi": 36,
            "name": "C2",
            "ticks": 51648,
            "time": 71.4158685,
            "velocity": 0.3937007874015748
          },
          {
            "duration": 0.06637162500000215,
            "durationTicks": 48,
            "midi": 42,
            "name": "F#2",
            "ticks": 51648,
            "time": 71.4158685,
            "velocity": 0.29133858267716534
          },
          {
            "duration": 0.06637162499998794,
            "durationTicks": 48,
            "midi": 46,
            "name": "A#2",
            "ticks": 51840,
            "time": 71.68135500000001,
            "velocity": 0.29133858267716534
          },
          {
            "duration": 0.06637162499998794,
            "durationTicks": 48,
            "midi": 70,
            "name": "A#4",
            "ticks": 51840,
            "time": 71.68135500000001,
            "velocity": 0.29133858267716534
          },
          {
            "duration": 0.06637162500000215,
            "durationTicks": 48,
            "midi": 60,
            "name": "C4",
            "ticks": 51936,
            "time": 71.81409825,
            "velocity": 0.29133858267716534
          },
          {
            "duration": 0.06637162500000215,
            "durationTicks": 48,
            "midi": 36,
            "name": "C2",
            "ticks": 52032,
            "time": 71.9468415,
            "velocity": 0.3937007874015748
          },
          {
            "duration": 0.06637162500000215,
            "durationTicks": 48,
            "midi": 39,
            "name": "D#2",
            "ticks": 52032,
            "time": 71.9468415,
            "velocity": 0.3937007874015748
          },
          {
            "duration": 0.06637162500000215,
            "durationTicks": 48,
            "midi": 60,
            "name": "C4",
            "ticks": 52032,
            "time": 71.9468415,
            "velocity": 0.29133858267716534
          },
          {
            "duration": 0.06637162500000215,
            "durationTicks": 48,
            "midi": 42,
            "name": "F#2",
            "ticks": 52032,
            "time": 71.9468415,
            "velocity": 0.29133858267716534
          },
          {
            "duration": 0.06637162500000215,
            "durationTicks": 48,
            "midi": 38,
            "name": "D2",
            "ticks": 52032,
            "time": 71.9468415,
            "velocity": 0.29133858267716534
          },
          {
            "duration": 0.06637162499998794,
            "durationTicks": 48,
            "midi": 60,
            "name": "C4",
            "ticks": 52128,
            "time": 72.07958475000001,
            "velocity": 0.29133858267716534
          },
          {
            "duration": 0.06637162500000215,
            "durationTicks": 48,
            "midi": 63,
            "name": "D#4",
            "ticks": 52224,
            "time": 72.212328,
            "velocity": 0.29133858267716534
          },
          {
            "duration": 0.06637162500000215,
            "durationTicks": 48,
            "midi": 46,
            "name": "A#2",
            "ticks": 52224,
            "time": 72.212328,
            "velocity": 0.29133858267716534
          },
          {
            "duration": 0.06637162500000215,
            "durationTicks": 48,
            "midi": 70,
            "name": "A#4",
            "ticks": 52224,
            "time": 72.212328,
            "velocity": 0.29133858267716534
          },
          {
            "duration": 0.06637162500000215,
            "durationTicks": 48,
            "midi": 70,
            "name": "A#4",
            "ticks": 52320,
            "time": 72.34507125,
            "velocity": 0.29133858267716534
          },
          {
            "duration": 0.06637162500000215,
            "durationTicks": 48,
            "midi": 42,
            "name": "F#2",
            "ticks": 52416,
            "time": 72.47781450000001,
            "velocity": 0.29133858267716534
          },
          {
            "duration": 0.06637162500000215,
            "durationTicks": 48,
            "midi": 36,
            "name": "C2",
            "ticks": 52416,
            "time": 72.47781450000001,
            "velocity": 0.3937007874015748
          },
          {
            "duration": 0.06637162500000215,
            "durationTicks": 48,
            "midi": 60,
            "name": "C4",
            "ticks": 52416,
            "time": 72.47781450000001,
            "velocity": 0.29133858267716534
          },
          {
            "duration": 0.06637162500000215,
            "durationTicks": 48,
            "midi": 46,
            "name": "A#2",
            "ticks": 52608,
            "time": 72.743301,
            "velocity": 0.29133858267716534
          },
          {
            "duration": 0.06637162500000215,
            "durationTicks": 48,
            "midi": 70,
            "name": "A#4",
            "ticks": 52608,
            "time": 72.743301,
            "velocity": 0.29133858267716534
          },
          {
            "duration": 0.06637162500000215,
            "durationTicks": 48,
            "midi": 60,
            "name": "C4",
            "ticks": 52704,
            "time": 72.87604425,
            "velocity": 0.29133858267716534
          },
          {
            "duration": 0.06637162500000215,
            "durationTicks": 48,
            "midi": 39,
            "name": "D#2",
            "ticks": 52800,
            "time": 73.0087875,
            "velocity": 0.3937007874015748
          },
          {
            "duration": 0.06637162500000215,
            "durationTicks": 48,
            "midi": 38,
            "name": "D2",
            "ticks": 52800,
            "time": 73.0087875,
            "velocity": 0.29133858267716534
          },
          {
            "duration": 0.06637162500000215,
            "durationTicks": 48,
            "midi": 42,
            "name": "F#2",
            "ticks": 52800,
            "time": 73.0087875,
            "velocity": 0.29133858267716534
          },
          {
            "duration": 0.06637162500000215,
            "durationTicks": 48,
            "midi": 60,
            "name": "C4",
            "ticks": 52800,
            "time": 73.0087875,
            "velocity": 0.29133858267716534
          },
          {
            "duration": 0.06637162500000215,
            "durationTicks": 48,
            "midi": 36,
            "name": "C2",
            "ticks": 52800,
            "time": 73.0087875,
            "velocity": 0.3937007874015748
          },
          {
            "duration": 0.06637162500000215,
            "durationTicks": 48,
            "midi": 60,
            "name": "C4",
            "ticks": 52896,
            "time": 73.14153075,
            "velocity": 0.29133858267716534
          },
          {
            "duration": 0.06637162500000215,
            "durationTicks": 48,
            "midi": 46,
            "name": "A#2",
            "ticks": 52992,
            "time": 73.274274,
            "velocity": 0.29133858267716534
          },
          {
            "duration": 0.06637162500000215,
            "durationTicks": 48,
            "midi": 63,
            "name": "D#4",
            "ticks": 52992,
            "time": 73.274274,
            "velocity": 0.29133858267716534
          },
          {
            "duration": 0.06637162500000215,
            "durationTicks": 48,
            "midi": 70,
            "name": "A#4",
            "ticks": 52992,
            "time": 73.274274,
            "velocity": 0.29133858267716534
          },
          {
            "duration": 0.06637162499998794,
            "durationTicks": 48,
            "midi": 70,
            "name": "A#4",
            "ticks": 53088,
            "time": 73.40701725000001,
            "velocity": 0.29133858267716534
          },
          {
            "duration": 0.06637162500000215,
            "durationTicks": 48,
            "midi": 36,
            "name": "C2",
            "ticks": 53184,
            "time": 73.5397605,
            "velocity": 0.3937007874015748
          },
          {
            "duration": 0.06637162500000215,
            "durationTicks": 48,
            "midi": 82,
            "name": "A#5",
            "ticks": 53184,
            "time": 73.5397605,
            "velocity": 0.29133858267716534
          },
          {
            "duration": 0.06637162500000215,
            "durationTicks": 48,
            "midi": 42,
            "name": "F#2",
            "ticks": 53184,
            "time": 73.5397605,
            "velocity": 0.29133858267716534
          },
          {
            "duration": 0.06637162500000215,
            "durationTicks": 48,
            "midi": 60,
            "name": "C4",
            "ticks": 53184,
            "time": 73.5397605,
            "velocity": 0.29133858267716534
          },
          {
            "duration": 0.06637162500000215,
            "durationTicks": 48,
            "midi": 82,
            "name": "A#5",
            "ticks": 53280,
            "time": 73.67250375,
            "velocity": 0.14173228346456693
          },
          {
            "duration": 0.06637162500000215,
            "durationTicks": 48,
            "midi": 46,
            "name": "A#2",
            "ticks": 53376,
            "time": 73.80524700000001,
            "velocity": 0.29133858267716534
          },
          {
            "duration": 0.06637162500000215,
            "durationTicks": 48,
            "midi": 82,
            "name": "A#5",
            "ticks": 53376,
            "time": 73.80524700000001,
            "velocity": 0.29133858267716534
          },
          {
            "duration": 0.06637162500000215,
            "durationTicks": 48,
            "midi": 70,
            "name": "A#4",
            "ticks": 53376,
            "time": 73.80524700000001,
            "velocity": 0.29133858267716534
          },
          {
            "duration": 0.06637162500000215,
            "durationTicks": 48,
            "midi": 82,
            "name": "A#5",
            "ticks": 53472,
            "time": 73.93799025,
            "velocity": 0.29133858267716534
          },
          {
            "duration": 0.06637162500000215,
            "durationTicks": 48,
            "midi": 60,
            "name": "C4",
            "ticks": 53472,
            "time": 73.93799025,
            "velocity": 0.29133858267716534
          },
          {
            "duration": 0.06637162500000215,
            "durationTicks": 48,
            "midi": 42,
            "name": "F#2",
            "ticks": 53568,
            "time": 74.0707335,
            "velocity": 0.29133858267716534
          },
          {
            "duration": 0.06637162500000215,
            "durationTicks": 48,
            "midi": 60,
            "name": "C4",
            "ticks": 53568,
            "time": 74.0707335,
            "velocity": 0.29133858267716534
          },
          {
            "duration": 0.06637162500000215,
            "durationTicks": 48,
            "midi": 39,
            "name": "D#2",
            "ticks": 53568,
            "time": 74.0707335,
            "velocity": 0.3937007874015748
          },
          {
            "duration": 0.06637162500000215,
            "durationTicks": 48,
            "midi": 36,
            "name": "C2",
            "ticks": 53568,
            "time": 74.0707335,
            "velocity": 0.3937007874015748
          },
          {
            "duration": 0.06637162500000215,
            "durationTicks": 48,
            "midi": 38,
            "name": "D2",
            "ticks": 53568,
            "time": 74.0707335,
            "velocity": 0.29133858267716534
          },
          {
            "duration": 0.06637162500000215,
            "durationTicks": 48,
            "midi": 60,
            "name": "C4",
            "ticks": 53664,
            "time": 74.20347675000001,
            "velocity": 0.29133858267716534
          },
          {
            "duration": 0.06637162500000215,
            "durationTicks": 48,
            "midi": 70,
            "name": "A#4",
            "ticks": 53760,
            "time": 74.33622,
            "velocity": 0.29133858267716534
          },
          {
            "duration": 0.06637162500000215,
            "durationTicks": 48,
            "midi": 63,
            "name": "D#4",
            "ticks": 53760,
            "time": 74.33622,
            "velocity": 0.29133858267716534
          },
          {
            "duration": 0.06637162500000215,
            "durationTicks": 48,
            "midi": 42,
            "name": "F#2",
            "ticks": 53760,
            "time": 74.33622,
            "velocity": 0.3937007874015748
          },
          {
            "duration": 0.06637162500000215,
            "durationTicks": 48,
            "midi": 70,
            "name": "A#4",
            "ticks": 53856,
            "time": 74.46896325,
            "velocity": 0.29133858267716534
          },
          {
            "duration": 0.06637162500000215,
            "durationTicks": 48,
            "midi": 42,
            "name": "F#2",
            "ticks": 53856,
            "time": 74.46896325,
            "velocity": 0.3937007874015748
          },
          {
            "duration": 0.06637162500000215,
            "durationTicks": 48,
            "midi": 60,
            "name": "C4",
            "ticks": 53952,
            "time": 74.6017065,
            "velocity": 0.29133858267716534
          },
          {
            "duration": 0.06637162500000215,
            "durationTicks": 48,
            "midi": 36,
            "name": "C2",
            "ticks": 53952,
            "time": 74.6017065,
            "velocity": 0.3937007874015748
          },
          {
            "duration": 0.06637162500000215,
            "durationTicks": 48,
            "midi": 42,
            "name": "F#2",
            "ticks": 53952,
            "time": 74.6017065,
            "velocity": 0.29133858267716534
          },
          {
            "duration": 0.06637162500000215,
            "durationTicks": 48,
            "midi": 46,
            "name": "A#2",
            "ticks": 54144,
            "time": 74.867193,
            "velocity": 0.29133858267716534
          },
          {
            "duration": 0.06637162500000215,
            "durationTicks": 48,
            "midi": 70,
            "name": "A#4",
            "ticks": 54144,
            "time": 74.867193,
            "velocity": 0.29133858267716534
          },
          {
            "duration": 0.06637162500000215,
            "durationTicks": 48,
            "midi": 60,
            "name": "C4",
            "ticks": 54240,
            "time": 74.99993625,
            "velocity": 0.29133858267716534
          },
          {
            "duration": 0.06637162500000215,
            "durationTicks": 48,
            "midi": 36,
            "name": "C2",
            "ticks": 54336,
            "time": 75.13267950000001,
            "velocity": 0.3937007874015748
          },
          {
            "duration": 0.06637162500000215,
            "durationTicks": 48,
            "midi": 42,
            "name": "F#2",
            "ticks": 54336,
            "time": 75.13267950000001,
            "velocity": 0.29133858267716534
          },
          {
            "duration": 0.06637162500000215,
            "durationTicks": 48,
            "midi": 38,
            "name": "D2",
            "ticks": 54336,
            "time": 75.13267950000001,
            "velocity": 0.29133858267716534
          },
          {
            "duration": 0.06637162500000215,
            "durationTicks": 48,
            "midi": 60,
            "name": "C4",
            "ticks": 54336,
            "time": 75.13267950000001,
            "velocity": 0.29133858267716534
          },
          {
            "duration": 0.06637162500000215,
            "durationTicks": 48,
            "midi": 39,
            "name": "D#2",
            "ticks": 54336,
            "time": 75.13267950000001,
            "velocity": 0.3937007874015748
          },
          {
            "duration": 0.06637162500000215,
            "durationTicks": 48,
            "midi": 60,
            "name": "C4",
            "ticks": 54432,
            "time": 75.26542275,
            "velocity": 0.29133858267716534
          },
          {
            "duration": 0.06637162500000215,
            "durationTicks": 48,
            "midi": 63,
            "name": "D#4",
            "ticks": 54528,
            "time": 75.398166,
            "velocity": 0.29133858267716534
          },
          {
            "duration": 0.06637162500000215,
            "durationTicks": 48,
            "midi": 46,
            "name": "A#2",
            "ticks": 54528,
            "time": 75.398166,
            "velocity": 0.29133858267716534
          },
          {
            "duration": 0.06637162500000215,
            "durationTicks": 48,
            "midi": 70,
            "name": "A#4",
            "ticks": 54528,
            "time": 75.398166,
            "velocity": 0.29133858267716534
          },
          {
            "duration": 0.06637162500000215,
            "durationTicks": 48,
            "midi": 70,
            "name": "A#4",
            "ticks": 54624,
            "time": 75.53090925000001,
            "velocity": 0.29133858267716534
          },
          {
            "duration": 0.06637162500000215,
            "durationTicks": 48,
            "midi": 60,
            "name": "C4",
            "ticks": 54720,
            "time": 75.6636525,
            "velocity": 0.29133858267716534
          },
          {
            "duration": 0.06637162500000215,
            "durationTicks": 48,
            "midi": 42,
            "name": "F#2",
            "ticks": 54720,
            "time": 75.6636525,
            "velocity": 0.29133858267716534
          },
          {
            "duration": 0.06637162500000215,
            "durationTicks": 48,
            "midi": 36,
            "name": "C2",
            "ticks": 54720,
            "time": 75.6636525,
            "velocity": 0.3937007874015748
          },
          {
            "duration": 0.06637162500000215,
            "durationTicks": 48,
            "midi": 70,
            "name": "A#4",
            "ticks": 54912,
            "time": 75.929139,
            "velocity": 0.29133858267716534
          },
          {
            "duration": 0.06637162500000215,
            "durationTicks": 48,
            "midi": 46,
            "name": "A#2",
            "ticks": 54912,
            "time": 75.929139,
            "velocity": 0.29133858267716534
          },
          {
            "duration": 0.06637162499998794,
            "durationTicks": 48,
            "midi": 60,
            "name": "C4",
            "ticks": 55008,
            "time": 76.06188225000001,
            "velocity": 0.29133858267716534
          },
          {
            "duration": 0.06637162500000215,
            "durationTicks": 48,
            "midi": 36,
            "name": "C2",
            "ticks": 55104,
            "time": 76.1946255,
            "velocity": 0.3937007874015748
          },
          {
            "duration": 0.06637162500000215,
            "durationTicks": 48,
            "midi": 42,
            "name": "F#2",
            "ticks": 55104,
            "time": 76.1946255,
            "velocity": 0.29133858267716534
          },
          {
            "duration": 0.06637162500000215,
            "durationTicks": 48,
            "midi": 38,
            "name": "D2",
            "ticks": 55104,
            "time": 76.1946255,
            "velocity": 0.29133858267716534
          },
          {
            "duration": 0.06637162500000215,
            "durationTicks": 48,
            "midi": 39,
            "name": "D#2",
            "ticks": 55104,
            "time": 76.1946255,
            "velocity": 0.3937007874015748
          },
          {
            "duration": 0.06637162500000215,
            "durationTicks": 48,
            "midi": 60,
            "name": "C4",
            "ticks": 55104,
            "time": 76.1946255,
            "velocity": 0.29133858267716534
          },
          {
            "duration": 0.06637162500000215,
            "durationTicks": 48,
            "midi": 60,
            "name": "C4",
            "ticks": 55200,
            "time": 76.32736875,
            "velocity": 0.29133858267716534
          },
          {
            "duration": 0.06637162499998794,
            "durationTicks": 48,
            "midi": 46,
            "name": "A#2",
            "ticks": 55296,
            "time": 76.46011200000001,
            "velocity": 0.29133858267716534
          },
          {
            "duration": 0.06637162499998794,
            "durationTicks": 48,
            "midi": 70,
            "name": "A#4",
            "ticks": 55296,
            "time": 76.46011200000001,
            "velocity": 0.29133858267716534
          },
          {
            "duration": 0.06637162499998794,
            "durationTicks": 48,
            "midi": 63,
            "name": "D#4",
            "ticks": 55296,
            "time": 76.46011200000001,
            "velocity": 0.29133858267716534
          },
          {
            "duration": 0.06637162500000215,
            "durationTicks": 48,
            "midi": 70,
            "name": "A#4",
            "ticks": 55392,
            "time": 76.59285525,
            "velocity": 0.29133858267716534
          },
          {
            "duration": 0.06637162500000215,
            "durationTicks": 48,
            "midi": 60,
            "name": "C4",
            "ticks": 55488,
            "time": 76.7255985,
            "velocity": 0.29133858267716534
          },
          {
            "duration": 0.06637162500000215,
            "durationTicks": 48,
            "midi": 36,
            "name": "C2",
            "ticks": 55488,
            "time": 76.7255985,
            "velocity": 0.3937007874015748
          },
          {
            "duration": 0.06637162500000215,
            "durationTicks": 48,
            "midi": 42,
            "name": "F#2",
            "ticks": 55488,
            "time": 76.7255985,
            "velocity": 0.29133858267716534
          },
          {
            "duration": 0.06637162500000215,
            "durationTicks": 48,
            "midi": 46,
            "name": "A#2",
            "ticks": 55680,
            "time": 76.991085,
            "velocity": 0.29133858267716534
          },
          {
            "duration": 0.06637162500000215,
            "durationTicks": 48,
            "midi": 70,
            "name": "A#4",
            "ticks": 55680,
            "time": 76.991085,
            "velocity": 0.29133858267716534
          },
          {
            "duration": 0.06637162500000215,
            "durationTicks": 48,
            "midi": 60,
            "name": "C4",
            "ticks": 55776,
            "time": 77.12382825,
            "velocity": 0.29133858267716534
          },
          {
            "duration": 0.06637162500000215,
            "durationTicks": 48,
            "midi": 39,
            "name": "D#2",
            "ticks": 55872,
            "time": 77.2565715,
            "velocity": 0.3937007874015748
          },
          {
            "duration": 0.06637162500000215,
            "durationTicks": 48,
            "midi": 42,
            "name": "F#2",
            "ticks": 55872,
            "time": 77.2565715,
            "velocity": 0.29133858267716534
          },
          {
            "duration": 0.06637162500000215,
            "durationTicks": 48,
            "midi": 38,
            "name": "D2",
            "ticks": 55872,
            "time": 77.2565715,
            "velocity": 0.29133858267716534
          },
          {
            "duration": 0.06637162500000215,
            "durationTicks": 48,
            "midi": 36,
            "name": "C2",
            "ticks": 55872,
            "time": 77.2565715,
            "velocity": 0.3937007874015748
          },
          {
            "duration": 0.06637162500000215,
            "durationTicks": 48,
            "midi": 60,
            "name": "C4",
            "ticks": 55872,
            "time": 77.2565715,
            "velocity": 0.29133858267716534
          },
          {
            "duration": 0.06637162499998794,
            "durationTicks": 48,
            "midi": 60,
            "name": "C4",
            "ticks": 55968,
            "time": 77.38931475000001,
            "velocity": 0.29133858267716534
          },
          {
            "duration": 0.06637162500000215,
            "durationTicks": 48,
            "midi": 70,
            "name": "A#4",
            "ticks": 56064,
            "time": 77.522058,
            "velocity": 0.29133858267716534
          },
          {
            "duration": 0.06637162500000215,
            "durationTicks": 48,
            "midi": 63,
            "name": "D#4",
            "ticks": 56064,
            "time": 77.522058,
            "velocity": 0.29133858267716534
          },
          {
            "duration": 0.06637162500000215,
            "durationTicks": 48,
            "midi": 46,
            "name": "A#2",
            "ticks": 56064,
            "time": 77.522058,
            "velocity": 0.29133858267716534
          },
          {
            "duration": 0.06637162500000215,
            "durationTicks": 48,
            "midi": 70,
            "name": "A#4",
            "ticks": 56160,
            "time": 77.65480125,
            "velocity": 0.29133858267716534
          },
          {
            "duration": 0.06637162499998794,
            "durationTicks": 48,
            "midi": 36,
            "name": "C2",
            "ticks": 56256,
            "time": 77.78754450000001,
            "velocity": 0.3937007874015748
          },
          {
            "duration": 0.06637162499998794,
            "durationTicks": 48,
            "midi": 60,
            "name": "C4",
            "ticks": 56256,
            "time": 77.78754450000001,
            "velocity": 0.29133858267716534
          },
          {
            "duration": 0.06637162499998794,
            "durationTicks": 48,
            "midi": 42,
            "name": "F#2",
            "ticks": 56256,
            "time": 77.78754450000001,
            "velocity": 0.29133858267716534
          },
          {
            "duration": 0.06637162499998794,
            "durationTicks": 48,
            "midi": 82,
            "name": "A#5",
            "ticks": 56256,
            "time": 77.78754450000001,
            "velocity": 0.29133858267716534
          },
          {
            "duration": 0.06637162500000215,
            "durationTicks": 48,
            "midi": 82,
            "name": "A#5",
            "ticks": 56352,
            "time": 77.92028775,
            "velocity": 0.14173228346456693
          },
          {
            "duration": 0.06637162500000215,
            "durationTicks": 48,
            "midi": 46,
            "name": "A#2",
            "ticks": 56448,
            "time": 78.053031,
            "velocity": 0.29133858267716534
          },
          {
            "duration": 0.06637162500000215,
            "durationTicks": 48,
            "midi": 82,
            "name": "A#5",
            "ticks": 56448,
            "time": 78.053031,
            "velocity": 0.29133858267716534
          },
          {
            "duration": 0.06637162500000215,
            "durationTicks": 48,
            "midi": 70,
            "name": "A#4",
            "ticks": 56448,
            "time": 78.053031,
            "velocity": 0.29133858267716534
          },
          {
            "duration": 0.06637162500000215,
            "durationTicks": 48,
            "midi": 82,
            "name": "A#5",
            "ticks": 56544,
            "time": 78.18577425000001,
            "velocity": 0.29133858267716534
          },
          {
            "duration": 0.06637162500000215,
            "durationTicks": 48,
            "midi": 60,
            "name": "C4",
            "ticks": 56544,
            "time": 78.18577425000001,
            "velocity": 0.29133858267716534
          },
          {
            "duration": 0.06637162500000215,
            "durationTicks": 48,
            "midi": 36,
            "name": "C2",
            "ticks": 56640,
            "time": 78.3185175,
            "velocity": 0.3937007874015748
          },
          {
            "duration": 0.06637162500000215,
            "durationTicks": 48,
            "midi": 39,
            "name": "D#2",
            "ticks": 56640,
            "time": 78.3185175,
            "velocity": 0.3937007874015748
          },
          {
            "duration": 0.06637162500000215,
            "durationTicks": 48,
            "midi": 60,
            "name": "C4",
            "ticks": 56640,
            "time": 78.3185175,
            "velocity": 0.29133858267716534
          },
          {
            "duration": 0.06637162500000215,
            "durationTicks": 48,
            "midi": 38,
            "name": "D2",
            "ticks": 56640,
            "time": 78.3185175,
            "velocity": 0.29133858267716534
          },
          {
            "duration": 0.06637162500000215,
            "durationTicks": 48,
            "midi": 42,
            "name": "F#2",
            "ticks": 56640,
            "time": 78.3185175,
            "velocity": 0.29133858267716534
          },
          {
            "duration": 0.06637162500000215,
            "durationTicks": 48,
            "midi": 60,
            "name": "C4",
            "ticks": 56736,
            "time": 78.45126075,
            "velocity": 0.29133858267716534
          },
          {
            "duration": 0.06637162500000215,
            "durationTicks": 48,
            "midi": 63,
            "name": "D#4",
            "ticks": 56832,
            "time": 78.58400400000001,
            "velocity": 0.29133858267716534
          },
          {
            "duration": 0.06637162500000215,
            "durationTicks": 48,
            "midi": 70,
            "name": "A#4",
            "ticks": 56832,
            "time": 78.58400400000001,
            "velocity": 0.29133858267716534
          },
          {
            "duration": 0.06637162500000215,
            "durationTicks": 48,
            "midi": 42,
            "name": "F#2",
            "ticks": 56832,
            "time": 78.58400400000001,
            "velocity": 0.3937007874015748
          },
          {
            "duration": 0.06637162500000215,
            "durationTicks": 48,
            "midi": 42,
            "name": "F#2",
            "ticks": 56928,
            "time": 78.71674725,
            "velocity": 0.3937007874015748
          },
          {
            "duration": 0.06637162500000215,
            "durationTicks": 48,
            "midi": 70,
            "name": "A#4",
            "ticks": 56928,
            "time": 78.71674725,
            "velocity": 0.29133858267716534
          },
          {
            "duration": 0.06637162500000215,
            "durationTicks": 48,
            "midi": 42,
            "name": "F#2",
            "ticks": 57024,
            "time": 78.8494905,
            "velocity": 0.29133858267716534
          },
          {
            "duration": 0.06637162500000215,
            "durationTicks": 48,
            "midi": 60,
            "name": "C4",
            "ticks": 57024,
            "time": 78.8494905,
            "velocity": 0.29133858267716534
          },
          {
            "duration": 0.06637162500000215,
            "durationTicks": 48,
            "midi": 36,
            "name": "C2",
            "ticks": 57024,
            "time": 78.8494905,
            "velocity": 0.3937007874015748
          },
          {
            "duration": 0.06637162499998794,
            "durationTicks": 48,
            "midi": 70,
            "name": "A#4",
            "ticks": 57216,
            "time": 79.11497700000001,
            "velocity": 0.29133858267716534
          },
          {
            "duration": 0.06637162499998794,
            "durationTicks": 48,
            "midi": 46,
            "name": "A#2",
            "ticks": 57216,
            "time": 79.11497700000001,
            "velocity": 0.29133858267716534
          },
          {
            "duration": 0.06637162500000215,
            "durationTicks": 48,
            "midi": 60,
            "name": "C4",
            "ticks": 57312,
            "time": 79.24772025,
            "velocity": 0.29133858267716534
          },
          {
            "duration": 0.06637162500000215,
            "durationTicks": 48,
            "midi": 39,
            "name": "D#2",
            "ticks": 57408,
            "time": 79.3804635,
            "velocity": 0.3937007874015748
          },
          {
            "duration": 0.06637162500000215,
            "durationTicks": 48,
            "midi": 38,
            "name": "D2",
            "ticks": 57408,
            "time": 79.3804635,
            "velocity": 0.29133858267716534
          },
          {
            "duration": 0.06637162500000215,
            "durationTicks": 48,
            "midi": 36,
            "name": "C2",
            "ticks": 57408,
            "time": 79.3804635,
            "velocity": 0.3937007874015748
          },
          {
            "duration": 0.06637162500000215,
            "durationTicks": 48,
            "midi": 42,
            "name": "F#2",
            "ticks": 57408,
            "time": 79.3804635,
            "velocity": 0.29133858267716534
          },
          {
            "duration": 0.06637162500000215,
            "durationTicks": 48,
            "midi": 60,
            "name": "C4",
            "ticks": 57408,
            "time": 79.3804635,
            "velocity": 0.29133858267716534
          },
          {
            "duration": 0.06637162500000215,
            "durationTicks": 48,
            "midi": 60,
            "name": "C4",
            "ticks": 57504,
            "time": 79.51320675000001,
            "velocity": 0.29133858267716534
          },
          {
            "duration": 0.06637162500000215,
            "durationTicks": 48,
            "midi": 70,
            "name": "A#4",
            "ticks": 57600,
            "time": 79.64595,
            "velocity": 0.29133858267716534
          },
          {
            "duration": 0.06637162500000215,
            "durationTicks": 48,
            "midi": 46,
            "name": "A#2",
            "ticks": 57600,
            "time": 79.64595,
            "velocity": 0.29133858267716534
          },
          {
            "duration": 0.06637162500000215,
            "durationTicks": 48,
            "midi": 63,
            "name": "D#4",
            "ticks": 57600,
            "time": 79.64595,
            "velocity": 0.29133858267716534
          },
          {
            "duration": 0.06637162500000215,
            "durationTicks": 48,
            "midi": 70,
            "name": "A#4",
            "ticks": 57696,
            "time": 79.77869325,
            "velocity": 0.29133858267716534
          },
          {
            "duration": 0.06637162500000215,
            "durationTicks": 48,
            "midi": 60,
            "name": "C4",
            "ticks": 57792,
            "time": 79.91143650000001,
            "velocity": 0.29133858267716534
          },
          {
            "duration": 0.06637162500000215,
            "durationTicks": 48,
            "midi": 42,
            "name": "F#2",
            "ticks": 57792,
            "time": 79.91143650000001,
            "velocity": 0.29133858267716534
          },
          {
            "duration": 0.06637162500000215,
            "durationTicks": 48,
            "midi": 36,
            "name": "C2",
            "ticks": 57792,
            "time": 79.91143650000001,
            "velocity": 0.3937007874015748
          },
          {
            "duration": 0.06637162500000215,
            "durationTicks": 48,
            "midi": 70,
            "name": "A#4",
            "ticks": 57984,
            "time": 80.176923,
            "velocity": 0.29133858267716534
          },
          {
            "duration": 0.06637162500000215,
            "durationTicks": 48,
            "midi": 46,
            "name": "A#2",
            "ticks": 57984,
            "time": 80.176923,
            "velocity": 0.29133858267716534
          },
          {
            "duration": 0.06637162500000215,
            "durationTicks": 48,
            "midi": 60,
            "name": "C4",
            "ticks": 58080,
            "time": 80.30966625,
            "velocity": 0.29133858267716534
          },
          {
            "duration": 0.06637162499998794,
            "durationTicks": 48,
            "midi": 39,
            "name": "D#2",
            "ticks": 58176,
            "time": 80.44240950000001,
            "velocity": 0.3937007874015748
          },
          {
            "duration": 0.06637162499998794,
            "durationTicks": 48,
            "midi": 38,
            "name": "D2",
            "ticks": 58176,
            "time": 80.44240950000001,
            "velocity": 0.29133858267716534
          },
          {
            "duration": 0.06637162499998794,
            "durationTicks": 48,
            "midi": 60,
            "name": "C4",
            "ticks": 58176,
            "time": 80.44240950000001,
            "velocity": 0.29133858267716534
          },
          {
            "duration": 0.06637162499998794,
            "durationTicks": 48,
            "midi": 42,
            "name": "F#2",
            "ticks": 58176,
            "time": 80.44240950000001,
            "velocity": 0.29133858267716534
          },
          {
            "duration": 0.06637162499998794,
            "durationTicks": 48,
            "midi": 36,
            "name": "C2",
            "ticks": 58176,
            "time": 80.44240950000001,
            "velocity": 0.3937007874015748
          },
          {
            "duration": 0.06637162500000215,
            "durationTicks": 48,
            "midi": 60,
            "name": "C4",
            "ticks": 58272,
            "time": 80.57515275,
            "velocity": 0.29133858267716534
          },
          {
            "duration": 0.06637162500000215,
            "durationTicks": 48,
            "midi": 46,
            "name": "A#2",
            "ticks": 58368,
            "time": 80.707896,
            "velocity": 0.29133858267716534
          },
          {
            "duration": 0.06637162500000215,
            "durationTicks": 48,
            "midi": 70,
            "name": "A#4",
            "ticks": 58368,
            "time": 80.707896,
            "velocity": 0.29133858267716534
          },
          {
            "duration": 0.06637162500000215,
            "durationTicks": 48,
            "midi": 63,
            "name": "D#4",
            "ticks": 58368,
            "time": 80.707896,
            "velocity": 0.29133858267716534
          },
          {
            "duration": 0.06637162499998794,
            "durationTicks": 48,
            "midi": 70,
            "name": "A#4",
            "ticks": 58464,
            "time": 80.84063925000001,
            "velocity": 0.29133858267716534
          },
          {
            "duration": 0.06637162500000215,
            "durationTicks": 48,
            "midi": 36,
            "name": "C2",
            "ticks": 58560,
            "time": 80.9733825,
            "velocity": 0.3937007874015748
          },
          {
            "duration": 0.06637162500000215,
            "durationTicks": 48,
            "midi": 42,
            "name": "F#2",
            "ticks": 58560,
            "time": 80.9733825,
            "velocity": 0.29133858267716534
          },
          {
            "duration": 0.06637162500000215,
            "durationTicks": 48,
            "midi": 60,
            "name": "C4",
            "ticks": 58560,
            "time": 80.9733825,
            "velocity": 0.29133858267716534
          },
          {
            "duration": 0.06637162500000215,
            "durationTicks": 48,
            "midi": 46,
            "name": "A#2",
            "ticks": 58752,
            "time": 81.23886900000001,
            "velocity": 0.29133858267716534
          },
          {
            "duration": 0.06637162500000215,
            "durationTicks": 48,
            "midi": 70,
            "name": "A#4",
            "ticks": 58752,
            "time": 81.23886900000001,
            "velocity": 0.29133858267716534
          },
          {
            "duration": 0.06637162500000215,
            "durationTicks": 48,
            "midi": 60,
            "name": "C4",
            "ticks": 58848,
            "time": 81.37161225,
            "velocity": 0.29133858267716534
          },
          {
            "duration": 0.06637162500000215,
            "durationTicks": 48,
            "midi": 39,
            "name": "D#2",
            "ticks": 58944,
            "time": 81.5043555,
            "velocity": 0.3937007874015748
          },
          {
            "duration": 0.06637162500000215,
            "durationTicks": 48,
            "midi": 60,
            "name": "C4",
            "ticks": 58944,
            "time": 81.5043555,
            "velocity": 0.29133858267716534
          },
          {
            "duration": 0.06637162500000215,
            "durationTicks": 48,
            "midi": 36,
            "name": "C2",
            "ticks": 58944,
            "time": 81.5043555,
            "velocity": 0.3937007874015748
          },
          {
            "duration": 0.06637162500000215,
            "durationTicks": 48,
            "midi": 42,
            "name": "F#2",
            "ticks": 58944,
            "time": 81.5043555,
            "velocity": 0.29133858267716534
          },
          {
            "duration": 0.06637162500000215,
            "durationTicks": 48,
            "midi": 38,
            "name": "D2",
            "ticks": 58944,
            "time": 81.5043555,
            "velocity": 0.29133858267716534
          },
          {
            "duration": 0.06637162500000215,
            "durationTicks": 48,
            "midi": 60,
            "name": "C4",
            "ticks": 59040,
            "time": 81.63709875,
            "velocity": 0.29133858267716534
          },
          {
            "duration": 0.06637162499998794,
            "durationTicks": 48,
            "midi": 70,
            "name": "A#4",
            "ticks": 59136,
            "time": 81.76984200000001,
            "velocity": 0.29133858267716534
          },
          {
            "duration": 0.06637162499998794,
            "durationTicks": 48,
            "midi": 46,
            "name": "A#2",
            "ticks": 59136,
            "time": 81.76984200000001,
            "velocity": 0.29133858267716534
          },
          {
            "duration": 0.06637162499998794,
            "durationTicks": 48,
            "midi": 63,
            "name": "D#4",
            "ticks": 59136,
            "time": 81.76984200000001,
            "velocity": 0.29133858267716534
          },
          {
            "duration": 0.06637162500000215,
            "durationTicks": 48,
            "midi": 70,
            "name": "A#4",
            "ticks": 59232,
            "time": 81.90258525,
            "velocity": 0.29133858267716534
          },
          {
            "duration": 0.06637162500000215,
            "durationTicks": 48,
            "midi": 60,
            "name": "C4",
            "ticks": 59328,
            "time": 82.0353285,
            "velocity": 0.29133858267716534
          },
          {
            "duration": 0.06637162500000215,
            "durationTicks": 48,
            "midi": 42,
            "name": "F#2",
            "ticks": 59328,
            "time": 82.0353285,
            "velocity": 0.29133858267716534
          },
          {
            "duration": 0.06637162500000215,
            "durationTicks": 48,
            "midi": 36,
            "name": "C2",
            "ticks": 59328,
            "time": 82.0353285,
            "velocity": 0.3937007874015748
          },
          {
            "duration": 0.06637162500000215,
            "durationTicks": 48,
            "midi": 82,
            "name": "A#5",
            "ticks": 59328,
            "time": 82.0353285,
            "velocity": 0.29133858267716534
          },
          {
            "duration": 0.06637162499998794,
            "durationTicks": 48,
            "midi": 82,
            "name": "A#5",
            "ticks": 59424,
            "time": 82.16807175000001,
            "velocity": 0.14173228346456693
          },
          {
            "duration": 0.06637162500000215,
            "durationTicks": 48,
            "midi": 70,
            "name": "A#4",
            "ticks": 59520,
            "time": 82.300815,
            "velocity": 0.29133858267716534
          },
          {
            "duration": 0.06637162500000215,
            "durationTicks": 48,
            "midi": 46,
            "name": "A#2",
            "ticks": 59520,
            "time": 82.300815,
            "velocity": 0.29133858267716534
          },
          {
            "duration": 0.06637162500000215,
            "durationTicks": 48,
            "midi": 82,
            "name": "A#5",
            "ticks": 59520,
            "time": 82.300815,
            "velocity": 0.29133858267716534
          },
          {
            "duration": 0.06637162500000215,
            "durationTicks": 48,
            "midi": 82,
            "name": "A#5",
            "ticks": 59616,
            "time": 82.43355825,
            "velocity": 0.29133858267716534
          },
          {
            "duration": 0.06637162500000215,
            "durationTicks": 48,
            "midi": 60,
            "name": "C4",
            "ticks": 59616,
            "time": 82.43355825,
            "velocity": 0.29133858267716534
          },
          {
            "duration": 0.06637162500000215,
            "durationTicks": 48,
            "midi": 60,
            "name": "C4",
            "ticks": 59712,
            "time": 82.56630150000001,
            "velocity": 0.29133858267716534
          },
          {
            "duration": 0.06637162500000215,
            "durationTicks": 48,
            "midi": 36,
            "name": "C2",
            "ticks": 59712,
            "time": 82.56630150000001,
            "velocity": 0.3937007874015748
          },
          {
            "duration": 0.06637162500000215,
            "durationTicks": 48,
            "midi": 38,
            "name": "D2",
            "ticks": 59712,
            "time": 82.56630150000001,
            "velocity": 0.29133858267716534
          },
          {
            "duration": 0.06637162500000215,
            "durationTicks": 48,
            "midi": 39,
            "name": "D#2",
            "ticks": 59712,
            "time": 82.56630150000001,
            "velocity": 0.3937007874015748
          },
          {
            "duration": 0.06637162500000215,
            "durationTicks": 48,
            "midi": 42,
            "name": "F#2",
            "ticks": 59712,
            "time": 82.56630150000001,
            "velocity": 0.29133858267716534
          },
          {
            "duration": 0.06637162500000215,
            "durationTicks": 48,
            "midi": 60,
            "name": "C4",
            "ticks": 59808,
            "time": 82.69904475,
            "velocity": 0.29133858267716534
          },
          {
            "duration": 0.06637162500000215,
            "durationTicks": 48,
            "midi": 42,
            "name": "F#2",
            "ticks": 59904,
            "time": 82.831788,
            "velocity": 0.3937007874015748
          },
          {
            "duration": 0.06637162500000215,
            "durationTicks": 48,
            "midi": 70,
            "name": "A#4",
            "ticks": 59904,
            "time": 82.831788,
            "velocity": 0.29133858267716534
          },
          {
            "duration": 0.06637162500000215,
            "durationTicks": 48,
            "midi": 63,
            "name": "D#4",
            "ticks": 59904,
            "time": 82.831788,
            "velocity": 0.29133858267716534
          },
          {
            "duration": 0.06637162500000215,
            "durationTicks": 48,
            "midi": 70,
            "name": "A#4",
            "ticks": 60000,
            "time": 82.96453125000001,
            "velocity": 0.29133858267716534
          },
          {
            "duration": 0.06637162500000215,
            "durationTicks": 48,
            "midi": 42,
            "name": "F#2",
            "ticks": 60000,
            "time": 82.96453125000001,
            "velocity": 0.3937007874015748
          },
          {
            "duration": 0.06637162500000215,
            "durationTicks": 48,
            "midi": 42,
            "name": "F#2",
            "ticks": 60096,
            "time": 83.0972745,
            "velocity": 0.29133858267716534
          },
          {
            "duration": 0.06637162500000215,
            "durationTicks": 48,
            "midi": 60,
            "name": "C4",
            "ticks": 60096,
            "time": 83.0972745,
            "velocity": 0.29133858267716534
          },
          {
            "duration": 0.06637162500000215,
            "durationTicks": 48,
            "midi": 36,
            "name": "C2",
            "ticks": 60096,
            "time": 83.0972745,
            "velocity": 0.3937007874015748
          },
          {
            "duration": 0.06637162500000215,
            "durationTicks": 48,
            "midi": 70,
            "name": "A#4",
            "ticks": 60288,
            "time": 83.362761,
            "velocity": 0.29133858267716534
          },
          {
            "duration": 0.06637162500000215,
            "durationTicks": 48,
            "midi": 46,
            "name": "A#2",
            "ticks": 60288,
            "time": 83.362761,
            "velocity": 0.29133858267716534
          },
          {
            "duration": 0.06637162499998794,
            "durationTicks": 48,
            "midi": 60,
            "name": "C4",
            "ticks": 60384,
            "time": 83.49550425000001,
            "velocity": 0.29133858267716534
          },
          {
            "duration": 0.06637162500000215,
            "durationTicks": 48,
            "midi": 39,
            "name": "D#2",
            "ticks": 60480,
            "time": 83.6282475,
            "velocity": 0.3937007874015748
          },
          {
            "duration": 0.06637162500000215,
            "durationTicks": 48,
            "midi": 38,
            "name": "D2",
            "ticks": 60480,
            "time": 83.6282475,
            "velocity": 0.29133858267716534
          },
          {
            "duration": 0.06637162500000215,
            "durationTicks": 48,
            "midi": 36,
            "name": "C2",
            "ticks": 60480,
            "time": 83.6282475,
            "velocity": 0.3937007874015748
          },
          {
            "duration": 0.06637162500000215,
            "durationTicks": 48,
            "midi": 42,
            "name": "F#2",
            "ticks": 60480,
            "time": 83.6282475,
            "velocity": 0.29133858267716534
          },
          {
            "duration": 0.06637162500000215,
            "durationTicks": 48,
            "midi": 60,
            "name": "C4",
            "ticks": 60480,
            "time": 83.6282475,
            "velocity": 0.29133858267716534
          },
          {
            "duration": 0.06637162500000215,
            "durationTicks": 48,
            "midi": 60,
            "name": "C4",
            "ticks": 60576,
            "time": 83.76099075,
            "velocity": 0.29133858267716534
          },
          {
            "duration": 0.06637162500000215,
            "durationTicks": 48,
            "midi": 70,
            "name": "A#4",
            "ticks": 60672,
            "time": 83.89373400000001,
            "velocity": 0.29133858267716534
          },
          {
            "duration": 0.06637162500000215,
            "durationTicks": 48,
            "midi": 46,
            "name": "A#2",
            "ticks": 60672,
            "time": 83.89373400000001,
            "velocity": 0.29133858267716534
          },
          {
            "duration": 0.06637162500000215,
            "durationTicks": 48,
            "midi": 63,
            "name": "D#4",
            "ticks": 60672,
            "time": 83.89373400000001,
            "velocity": 0.29133858267716534
          },
          {
            "duration": 0.06637162500000215,
            "durationTicks": 48,
            "midi": 70,
            "name": "A#4",
            "ticks": 60768,
            "time": 84.02647725,
            "velocity": 0.29133858267716534
          },
          {
            "duration": 0.06637162500000215,
            "durationTicks": 48,
            "midi": 36,
            "name": "C2",
            "ticks": 60864,
            "time": 84.1592205,
            "velocity": 0.3937007874015748
          },
          {
            "duration": 0.06637162500000215,
            "durationTicks": 48,
            "midi": 60,
            "name": "C4",
            "ticks": 60864,
            "time": 84.1592205,
            "velocity": 0.29133858267716534
          },
          {
            "duration": 0.06637162500000215,
            "durationTicks": 48,
            "midi": 42,
            "name": "F#2",
            "ticks": 60864,
            "time": 84.1592205,
            "velocity": 0.29133858267716534
          },
          {
            "duration": 0.06637162500000215,
            "durationTicks": 48,
            "midi": 70,
            "name": "A#4",
            "ticks": 61056,
            "time": 84.424707,
            "velocity": 0.29133858267716534
          },
          {
            "duration": 0.06637162500000215,
            "durationTicks": 48,
            "midi": 46,
            "name": "A#2",
            "ticks": 61056,
            "time": 84.424707,
            "velocity": 0.29133858267716534
          },
          {
            "duration": 0.06637162500000215,
            "durationTicks": 48,
            "midi": 60,
            "name": "C4",
            "ticks": 61152,
            "time": 84.55745025,
            "velocity": 0.29133858267716534
          },
          {
            "duration": 0.06637162500000215,
            "durationTicks": 48,
            "midi": 38,
            "name": "D2",
            "ticks": 61248,
            "time": 84.6901935,
            "velocity": 0.29133858267716534
          },
          {
            "duration": 0.06637162500000215,
            "durationTicks": 48,
            "midi": 60,
            "name": "C4",
            "ticks": 61248,
            "time": 84.6901935,
            "velocity": 0.29133858267716534
          },
          {
            "duration": 0.06637162500000215,
            "durationTicks": 48,
            "midi": 42,
            "name": "F#2",
            "ticks": 61248,
            "time": 84.6901935,
            "velocity": 0.29133858267716534
          },
          {
            "duration": 0.06637162500000215,
            "durationTicks": 48,
            "midi": 39,
            "name": "D#2",
            "ticks": 61248,
            "time": 84.6901935,
            "velocity": 0.3937007874015748
          },
          {
            "duration": 0.06637162500000215,
            "durationTicks": 48,
            "midi": 36,
            "name": "C2",
            "ticks": 61248,
            "time": 84.6901935,
            "velocity": 0.3937007874015748
          },
          {
            "duration": 0.06637162499998794,
            "durationTicks": 48,
            "midi": 60,
            "name": "C4",
            "ticks": 61344,
            "time": 84.82293675000001,
            "velocity": 0.29133858267716534
          },
          {
            "duration": 0.06637162500000215,
            "durationTicks": 48,
            "midi": 70,
            "name": "A#4",
            "ticks": 61440,
            "time": 84.95568,
            "velocity": 0.29133858267716534
          },
          {
            "duration": 0.06637162500000215,
            "durationTicks": 48,
            "midi": 63,
            "name": "D#4",
            "ticks": 61440,
            "time": 84.95568,
            "velocity": 0.29133858267716534
          },
          {
            "duration": 0.06637162500000215,
            "durationTicks": 48,
            "midi": 46,
            "name": "A#2",
            "ticks": 61440,
            "time": 84.95568,
            "velocity": 0.29133858267716534
          },
          {
            "duration": 0.06637162500000215,
            "durationTicks": 48,
            "midi": 70,
            "name": "A#4",
            "ticks": 61536,
            "time": 85.08842325,
            "velocity": 0.29133858267716534
          },
          {
            "duration": 0.06637162499998794,
            "durationTicks": 48,
            "midi": 36,
            "name": "C2",
            "ticks": 61632,
            "time": 85.22116650000001,
            "velocity": 0.3937007874015748
          },
          {
            "duration": 0.06637162499998794,
            "durationTicks": 48,
            "midi": 60,
            "name": "C4",
            "ticks": 61632,
            "time": 85.22116650000001,
            "velocity": 0.29133858267716534
          },
          {
            "duration": 0.06637162499998794,
            "durationTicks": 48,
            "midi": 42,
            "name": "F#2",
            "ticks": 61632,
            "time": 85.22116650000001,
            "velocity": 0.29133858267716534
          },
          {
            "duration": 0.06637162500000215,
            "durationTicks": 48,
            "midi": 70,
            "name": "A#4",
            "ticks": 61824,
            "time": 85.486653,
            "velocity": 0.29133858267716534
          },
          {
            "duration": 0.06637162500000215,
            "durationTicks": 48,
            "midi": 46,
            "name": "A#2",
            "ticks": 61824,
            "time": 85.486653,
            "velocity": 0.29133858267716534
          },
          {
            "duration": 0.06637162500000215,
            "durationTicks": 48,
            "midi": 60,
            "name": "C4",
            "ticks": 61920,
            "time": 85.61939625000001,
            "velocity": 0.29133858267716534
          },
          {
            "duration": 0.06637162500000215,
            "durationTicks": 48,
            "midi": 60,
            "name": "C4",
            "ticks": 62016,
            "time": 85.7521395,
            "velocity": 0.29133858267716534
          },
          {
            "duration": 0.06637162500000215,
            "durationTicks": 48,
            "midi": 38,
            "name": "D2",
            "ticks": 62016,
            "time": 85.7521395,
            "velocity": 0.29133858267716534
          },
          {
            "duration": 0.06637162500000215,
            "durationTicks": 48,
            "midi": 39,
            "name": "D#2",
            "ticks": 62016,
            "time": 85.7521395,
            "velocity": 0.3937007874015748
          },
          {
            "duration": 0.06637162500000215,
            "durationTicks": 48,
            "midi": 36,
            "name": "C2",
            "ticks": 62016,
            "time": 85.7521395,
            "velocity": 0.3937007874015748
          },
          {
            "duration": 0.06637162500000215,
            "durationTicks": 48,
            "midi": 42,
            "name": "F#2",
            "ticks": 62016,
            "time": 85.7521395,
            "velocity": 0.29133858267716534
          },
          {
            "duration": 0.06637162500000215,
            "durationTicks": 48,
            "midi": 60,
            "name": "C4",
            "ticks": 62112,
            "time": 85.88488275,
            "velocity": 0.29133858267716534
          },
          {
            "duration": 0.06637162500000215,
            "durationTicks": 48,
            "midi": 63,
            "name": "D#4",
            "ticks": 62208,
            "time": 86.017626,
            "velocity": 0.29133858267716534
          },
          {
            "duration": 0.06637162500000215,
            "durationTicks": 48,
            "midi": 46,
            "name": "A#2",
            "ticks": 62208,
            "time": 86.017626,
            "velocity": 0.29133858267716534
          },
          {
            "duration": 0.06637162500000215,
            "durationTicks": 48,
            "midi": 70,
            "name": "A#4",
            "ticks": 62208,
            "time": 86.017626,
            "velocity": 0.29133858267716534
          },
          {
            "duration": 0.06637162499998794,
            "durationTicks": 48,
            "midi": 70,
            "name": "A#4",
            "ticks": 62304,
            "time": 86.15036925000001,
            "velocity": 0.29133858267716534
          },
          {
            "duration": 0.06637162500000215,
            "durationTicks": 48,
            "midi": 82,
            "name": "A#5",
            "ticks": 62400,
            "time": 86.2831125,
            "velocity": 0.29133858267716534
          },
          {
            "duration": 0.06637162500000215,
            "durationTicks": 48,
            "midi": 42,
            "name": "F#2",
            "ticks": 62400,
            "time": 86.2831125,
            "velocity": 0.29133858267716534
          },
          {
            "duration": 0.06637162500000215,
            "durationTicks": 48,
            "midi": 36,
            "name": "C2",
            "ticks": 62400,
            "time": 86.2831125,
            "velocity": 0.3937007874015748
          },
          {
            "duration": 0.06637162500000215,
            "durationTicks": 48,
            "midi": 60,
            "name": "C4",
            "ticks": 62400,
            "time": 86.2831125,
            "velocity": 0.29133858267716534
          },
          {
            "duration": 0.06637162500000215,
            "durationTicks": 48,
            "midi": 82,
            "name": "A#5",
            "ticks": 62496,
            "time": 86.41585575,
            "velocity": 0.14173228346456693
          },
          {
            "duration": 0.06637162499998794,
            "durationTicks": 48,
            "midi": 82,
            "name": "A#5",
            "ticks": 62592,
            "time": 86.54859900000001,
            "velocity": 0.29133858267716534
          },
          {
            "duration": 0.06637162499998794,
            "durationTicks": 48,
            "midi": 70,
            "name": "A#4",
            "ticks": 62592,
            "time": 86.54859900000001,
            "velocity": 0.29133858267716534
          },
          {
            "duration": 0.06637162499998794,
            "durationTicks": 48,
            "midi": 46,
            "name": "A#2",
            "ticks": 62592,
            "time": 86.54859900000001,
            "velocity": 0.29133858267716534
          },
          {
            "duration": 0.06637162500000215,
            "durationTicks": 48,
            "midi": 60,
            "name": "C4",
            "ticks": 62688,
            "time": 86.68134225,
            "velocity": 0.29133858267716534
          },
          {
            "duration": 0.06637162500000215,
            "durationTicks": 48,
            "midi": 82,
            "name": "A#5",
            "ticks": 62688,
            "time": 86.68134225,
            "velocity": 0.29133858267716534
          },
          {
            "duration": 0.06637162500000215,
            "durationTicks": 48,
            "midi": 38,
            "name": "D2",
            "ticks": 62784,
            "time": 86.8140855,
            "velocity": 0.29133858267716534
          },
          {
            "duration": 0.06637162500000215,
            "durationTicks": 48,
            "midi": 42,
            "name": "F#2",
            "ticks": 62784,
            "time": 86.8140855,
            "velocity": 0.29133858267716534
          },
          {
            "duration": 0.06637162500000215,
            "durationTicks": 48,
            "midi": 60,
            "name": "C4",
            "ticks": 62784,
            "time": 86.8140855,
            "velocity": 0.29133858267716534
          },
          {
            "duration": 0.06637162500000215,
            "durationTicks": 48,
            "midi": 39,
            "name": "D#2",
            "ticks": 62784,
            "time": 86.8140855,
            "velocity": 0.3937007874015748
          },
          {
            "duration": 0.06637162500000215,
            "durationTicks": 48,
            "midi": 36,
            "name": "C2",
            "ticks": 62784,
            "time": 86.8140855,
            "velocity": 0.3937007874015748
          },
          {
            "duration": 0.06637162500000215,
            "durationTicks": 48,
            "midi": 60,
            "name": "C4",
            "ticks": 62880,
            "time": 86.94682875000001,
            "velocity": 0.29133858267716534
          },
          {
            "duration": 0.06637162500000215,
            "durationTicks": 48,
            "midi": 42,
            "name": "F#2",
            "ticks": 62976,
            "time": 87.079572,
            "velocity": 0.3937007874015748
          },
          {
            "duration": 0.06637162500000215,
            "durationTicks": 48,
            "midi": 70,
            "name": "A#4",
            "ticks": 62976,
            "time": 87.079572,
            "velocity": 0.29133858267716534
          },
          {
            "duration": 0.06637162500000215,
            "durationTicks": 48,
            "midi": 63,
            "name": "D#4",
            "ticks": 62976,
            "time": 87.079572,
            "velocity": 0.29133858267716534
          },
          {
            "duration": 0.06637162500000215,
            "durationTicks": 48,
            "midi": 42,
            "name": "F#2",
            "ticks": 63072,
            "time": 87.21231525,
            "velocity": 0.3937007874015748
          },
          {
            "duration": 0.06637162500000215,
            "durationTicks": 48,
            "midi": 70,
            "name": "A#4",
            "ticks": 63072,
            "time": 87.21231525,
            "velocity": 0.29133858267716534
          },
          {
            "duration": 0.06637162500000215,
            "durationTicks": 48,
            "midi": 42,
            "name": "F#2",
            "ticks": 63168,
            "time": 87.34505850000001,
            "velocity": 0.29133858267716534
          },
          {
            "duration": 0.06637162500000215,
            "durationTicks": 48,
            "midi": 60,
            "name": "C4",
            "ticks": 63168,
            "time": 87.34505850000001,
            "velocity": 0.29133858267716534
          },
          {
            "duration": 0.06637162500000215,
            "durationTicks": 48,
            "midi": 36,
            "name": "C2",
            "ticks": 63168,
            "time": 87.34505850000001,
            "velocity": 0.3937007874015748
          },
          {
            "duration": 0.06637162500000215,
            "durationTicks": 48,
            "midi": 46,
            "name": "A#2",
            "ticks": 63360,
            "time": 87.610545,
            "velocity": 0.29133858267716534
          },
          {
            "duration": 0.06637162500000215,
            "durationTicks": 48,
            "midi": 70,
            "name": "A#4",
            "ticks": 63360,
            "time": 87.610545,
            "velocity": 0.29133858267716534
          },
          {
            "duration": 0.06637162500000215,
            "durationTicks": 48,
            "midi": 60,
            "name": "C4",
            "ticks": 63456,
            "time": 87.74328825,
            "velocity": 0.29133858267716534
          },
          {
            "duration": 0.06637162499998794,
            "durationTicks": 48,
            "midi": 60,
            "name": "C4",
            "ticks": 63552,
            "time": 87.87603150000001,
            "velocity": 0.29133858267716534
          },
          {
            "duration": 0.06637162499998794,
            "durationTicks": 48,
            "midi": 38,
            "name": "D2",
            "ticks": 63552,
            "time": 87.87603150000001,
            "velocity": 0.29133858267716534
          },
          {
            "duration": 0.06637162499998794,
            "durationTicks": 48,
            "midi": 39,
            "name": "D#2",
            "ticks": 63552,
            "time": 87.87603150000001,
            "velocity": 0.3937007874015748
          },
          {
            "duration": 0.06637162499998794,
            "durationTicks": 48,
            "midi": 36,
            "name": "C2",
            "ticks": 63552,
            "time": 87.87603150000001,
            "velocity": 0.3937007874015748
          },
          {
            "duration": 0.06637162499998794,
            "durationTicks": 48,
            "midi": 42,
            "name": "F#2",
            "ticks": 63552,
            "time": 87.87603150000001,
            "velocity": 0.29133858267716534
          },
          {
            "duration": 0.06637162500000215,
            "durationTicks": 48,
            "midi": 60,
            "name": "C4",
            "ticks": 63648,
            "time": 88.00877475,
            "velocity": 0.29133858267716534
          },
          {
            "duration": 0.06637162500000215,
            "durationTicks": 48,
            "midi": 46,
            "name": "A#2",
            "ticks": 63744,
            "time": 88.141518,
            "velocity": 0.29133858267716534
          },
          {
            "duration": 0.06637162500000215,
            "durationTicks": 48,
            "midi": 63,
            "name": "D#4",
            "ticks": 63744,
            "time": 88.141518,
            "velocity": 0.29133858267716534
          },
          {
            "duration": 0.06637162500000215,
            "durationTicks": 48,
            "midi": 70,
            "name": "A#4",
            "ticks": 63744,
            "time": 88.141518,
            "velocity": 0.29133858267716534
          },
          {
            "duration": 0.06637162500000215,
            "durationTicks": 48,
            "midi": 70,
            "name": "A#4",
            "ticks": 63840,
            "time": 88.27426125000001,
            "velocity": 0.29133858267716534
          },
          {
            "duration": 0.06637162500000215,
            "durationTicks": 48,
            "midi": 42,
            "name": "F#2",
            "ticks": 63936,
            "time": 88.4070045,
            "velocity": 0.29133858267716534
          },
          {
            "duration": 0.06637162500000215,
            "durationTicks": 48,
            "midi": 60,
            "name": "C4",
            "ticks": 63936,
            "time": 88.4070045,
            "velocity": 0.29133858267716534
          },
          {
            "duration": 0.06637162500000215,
            "durationTicks": 48,
            "midi": 36,
            "name": "C2",
            "ticks": 63936,
            "time": 88.4070045,
            "velocity": 0.3937007874015748
          },
          {
            "duration": 0.06637162500000215,
            "durationTicks": 48,
            "midi": 70,
            "name": "A#4",
            "ticks": 64128,
            "time": 88.67249100000001,
            "velocity": 0.29133858267716534
          },
          {
            "duration": 0.06637162500000215,
            "durationTicks": 48,
            "midi": 46,
            "name": "A#2",
            "ticks": 64128,
            "time": 88.67249100000001,
            "velocity": 0.29133858267716534
          },
          {
            "duration": 0.06637162500000215,
            "durationTicks": 48,
            "midi": 60,
            "name": "C4",
            "ticks": 64224,
            "time": 88.80523425,
            "velocity": 0.29133858267716534
          },
          {
            "duration": 0.06637162500000215,
            "durationTicks": 48,
            "midi": 38,
            "name": "D2",
            "ticks": 64320,
            "time": 88.9379775,
            "velocity": 0.29133858267716534
          },
          {
            "duration": 0.06637162500000215,
            "durationTicks": 48,
            "midi": 36,
            "name": "C2",
            "ticks": 64320,
            "time": 88.9379775,
            "velocity": 0.3937007874015748
          },
          {
            "duration": 0.06637162500000215,
            "durationTicks": 48,
            "midi": 60,
            "name": "C4",
            "ticks": 64320,
            "time": 88.9379775,
            "velocity": 0.29133858267716534
          },
          {
            "duration": 0.06637162500000215,
            "durationTicks": 48,
            "midi": 42,
            "name": "F#2",
            "ticks": 64320,
            "time": 88.9379775,
            "velocity": 0.29133858267716534
          },
          {
            "duration": 0.06637162500000215,
            "durationTicks": 48,
            "midi": 39,
            "name": "D#2",
            "ticks": 64320,
            "time": 88.9379775,
            "velocity": 0.3937007874015748
          },
          {
            "duration": 0.06637162500000215,
            "durationTicks": 48,
            "midi": 60,
            "name": "C4",
            "ticks": 64416,
            "time": 89.07072075,
            "velocity": 0.29133858267716534
          },
          {
            "duration": 0.06637162499998794,
            "durationTicks": 48,
            "midi": 70,
            "name": "A#4",
            "ticks": 64512,
            "time": 89.20346400000001,
            "velocity": 0.29133858267716534
          },
          {
            "duration": 0.06637162499998794,
            "durationTicks": 48,
            "midi": 46,
            "name": "A#2",
            "ticks": 64512,
            "time": 89.20346400000001,
            "velocity": 0.29133858267716534
          },
          {
            "duration": 0.06637162499998794,
            "durationTicks": 48,
            "midi": 63,
            "name": "D#4",
            "ticks": 64512,
            "time": 89.20346400000001,
            "velocity": 0.29133858267716534
          },
          {
            "duration": 0.06637162500000215,
            "durationTicks": 48,
            "midi": 70,
            "name": "A#4",
            "ticks": 64608,
            "time": 89.33620725,
            "velocity": 0.29133858267716534
          },
          {
            "duration": 0.06637162500000215,
            "durationTicks": 48,
            "midi": 60,
            "name": "C4",
            "ticks": 64704,
            "time": 89.4689505,
            "velocity": 0.29133858267716534
          },
          {
            "duration": 0.06637162500000215,
            "durationTicks": 48,
            "midi": 36,
            "name": "C2",
            "ticks": 64704,
            "time": 89.4689505,
            "velocity": 0.3937007874015748
          },
          {
            "duration": 0.06637162500000215,
            "durationTicks": 48,
            "midi": 42,
            "name": "F#2",
            "ticks": 64704,
            "time": 89.4689505,
            "velocity": 0.29133858267716534
          },
          {
            "duration": 0.06637162500000215,
            "durationTicks": 48,
            "midi": 46,
            "name": "A#2",
            "ticks": 64896,
            "time": 89.734437,
            "velocity": 0.29133858267716534
          },
          {
            "duration": 0.06637162500000215,
            "durationTicks": 48,
            "midi": 70,
            "name": "A#4",
            "ticks": 64896,
            "time": 89.734437,
            "velocity": 0.29133858267716534
          },
          {
            "duration": 0.06637162500000215,
            "durationTicks": 48,
            "midi": 60,
            "name": "C4",
            "ticks": 64992,
            "time": 89.86718025,
            "velocity": 0.29133858267716534
          },
          {
            "duration": 0.06637162500000215,
            "durationTicks": 48,
            "midi": 60,
            "name": "C4",
            "ticks": 65088,
            "time": 89.99992350000001,
            "velocity": 0.29133858267716534
          },
          {
            "duration": 0.06637162500000215,
            "durationTicks": 48,
            "midi": 38,
            "name": "D2",
            "ticks": 65088,
            "time": 89.99992350000001,
            "velocity": 0.29133858267716534
          },
          {
            "duration": 0.06637162500000215,
            "durationTicks": 48,
            "midi": 42,
            "name": "F#2",
            "ticks": 65088,
            "time": 89.99992350000001,
            "velocity": 0.29133858267716534
          },
          {
            "duration": 0.06637162500000215,
            "durationTicks": 48,
            "midi": 39,
            "name": "D#2",
            "ticks": 65088,
            "time": 89.99992350000001,
            "velocity": 0.3937007874015748
          },
          {
            "duration": 0.06637162500000215,
            "durationTicks": 48,
            "midi": 36,
            "name": "C2",
            "ticks": 65088,
            "time": 89.99992350000001,
            "velocity": 0.3937007874015748
          },
          {
            "duration": 0.06637162500000215,
            "durationTicks": 48,
            "midi": 60,
            "name": "C4",
            "ticks": 65184,
            "time": 90.13266675,
            "velocity": 0.29133858267716534
          },
          {
            "duration": 0.06637162500000215,
            "durationTicks": 48,
            "midi": 63,
            "name": "D#4",
            "ticks": 65280,
            "time": 90.26541,
            "velocity": 0.29133858267716534
          },
          {
            "duration": 0.06637162500000215,
            "durationTicks": 48,
            "midi": 46,
            "name": "A#2",
            "ticks": 65280,
            "time": 90.26541,
            "velocity": 0.29133858267716534
          },
          {
            "duration": 0.06637162500000215,
            "durationTicks": 48,
            "midi": 70,
            "name": "A#4",
            "ticks": 65280,
            "time": 90.26541,
            "velocity": 0.29133858267716534
          },
          {
            "duration": 0.06637162500000215,
            "durationTicks": 48,
            "midi": 70,
            "name": "A#4",
            "ticks": 65376,
            "time": 90.39815325000001,
            "velocity": 0.29133858267716534
          },
          {
            "duration": 0.06637162499998794,
            "durationTicks": 48,
            "midi": 60,
            "name": "C4",
            "ticks": 65472,
            "time": 90.53089650000001,
            "velocity": 0.29133858267716534
          },
          {
            "duration": 0.06637162499998794,
            "durationTicks": 48,
            "midi": 36,
            "name": "C2",
            "ticks": 65472,
            "time": 90.53089650000001,
            "velocity": 0.3937007874015748
          },
          {
            "duration": 0.06637162499998794,
            "durationTicks": 48,
            "midi": 82,
            "name": "A#5",
            "ticks": 65472,
            "time": 90.53089650000001,
            "velocity": 0.29133858267716534
          },
          {
            "duration": 0.06637162499998794,
            "durationTicks": 48,
            "midi": 42,
            "name": "F#2",
            "ticks": 65472,
            "time": 90.53089650000001,
            "velocity": 0.29133858267716534
          },
          {
            "duration": 0.06637162500000215,
            "durationTicks": 48,
            "midi": 82,
            "name": "A#5",
            "ticks": 65568,
            "time": 90.66363975,
            "velocity": 0.14173228346456693
          },
          {
            "duration": 0.06637162500000215,
            "durationTicks": 48,
            "midi": 82,
            "name": "A#5",
            "ticks": 65664,
            "time": 90.796383,
            "velocity": 0.29133858267716534
          },
          {
            "duration": 0.06637162500000215,
            "durationTicks": 48,
            "midi": 70,
            "name": "A#4",
            "ticks": 65664,
            "time": 90.796383,
            "velocity": 0.29133858267716534
          },
          {
            "duration": 0.06637162500000215,
            "durationTicks": 48,
            "midi": 46,
            "name": "A#2",
            "ticks": 65664,
            "time": 90.796383,
            "velocity": 0.29133858267716534
          },
          {
            "duration": 0.06637162499998794,
            "durationTicks": 48,
            "midi": 60,
            "name": "C4",
            "ticks": 65760,
            "time": 90.92912625000001,
            "velocity": 0.29133858267716534
          },
          {
            "duration": 0.06637162499998794,
            "durationTicks": 48,
            "midi": 82,
            "name": "A#5",
            "ticks": 65760,
            "time": 90.92912625000001,
            "velocity": 0.29133858267716534
          },
          {
            "duration": 0.06637162500000215,
            "durationTicks": 48,
            "midi": 39,
            "name": "D#2",
            "ticks": 65856,
            "time": 91.0618695,
            "velocity": 0.3937007874015748
          },
          {
            "duration": 0.06637162500000215,
            "durationTicks": 48,
            "midi": 36,
            "name": "C2",
            "ticks": 65856,
            "time": 91.0618695,
            "velocity": 0.3937007874015748
          },
          {
            "duration": 0.06637162500000215,
            "durationTicks": 48,
            "midi": 38,
            "name": "D2",
            "ticks": 65856,
            "time": 91.0618695,
            "velocity": 0.29133858267716534
          },
          {
            "duration": 0.06637162500000215,
            "durationTicks": 48,
            "midi": 42,
            "name": "F#2",
            "ticks": 65856,
            "time": 91.0618695,
            "velocity": 0.29133858267716534
          },
          {
            "duration": 0.06637162500000215,
            "durationTicks": 48,
            "midi": 60,
            "name": "C4",
            "ticks": 65856,
            "time": 91.0618695,
            "velocity": 0.29133858267716534
          },
          {
            "duration": 0.06637162500000215,
            "durationTicks": 48,
            "midi": 60,
            "name": "C4",
            "ticks": 65952,
            "time": 91.19461275,
            "velocity": 0.29133858267716534
          },
          {
            "duration": 0.06637162500000215,
            "durationTicks": 48,
            "midi": 70,
            "name": "A#4",
            "ticks": 66048,
            "time": 91.32735600000001,
            "velocity": 0.29133858267716534
          },
          {
            "duration": 0.06637162500000215,
            "durationTicks": 48,
            "midi": 63,
            "name": "D#4",
            "ticks": 66048,
            "time": 91.32735600000001,
            "velocity": 0.29133858267716534
          },
          {
            "duration": 0.06637162500000215,
            "durationTicks": 48,
            "midi": 42,
            "name": "F#2",
            "ticks": 66048,
            "time": 91.32735600000001,
            "velocity": 0.3937007874015748
          },
          {
            "duration": 0.06637162500000215,
            "durationTicks": 48,
            "midi": 42,
            "name": "F#2",
            "ticks": 66144,
            "time": 91.46009925,
            "velocity": 0.3937007874015748
          },
          {
            "duration": 0.06637162500000215,
            "durationTicks": 48,
            "midi": 70,
            "name": "A#4",
            "ticks": 66144,
            "time": 91.46009925,
            "velocity": 0.29133858267716534
          },
          {
            "duration": 0.06637162500000215,
            "durationTicks": 48,
            "midi": 36,
            "name": "C2",
            "ticks": 66240,
            "time": 91.5928425,
            "velocity": 0.3937007874015748
          },
          {
            "duration": 0.06637162500000215,
            "durationTicks": 48,
            "midi": 42,
            "name": "F#2",
            "ticks": 66240,
            "time": 91.5928425,
            "velocity": 0.29133858267716534
          },
          {
            "duration": 0.06637162500000215,
            "durationTicks": 48,
            "midi": 60,
            "name": "C4",
            "ticks": 66240,
            "time": 91.5928425,
            "velocity": 0.29133858267716534
          },
          {
            "duration": 0.06637162499998794,
            "durationTicks": 48,
            "midi": 70,
            "name": "A#4",
            "ticks": 66432,
            "time": 91.85832900000001,
            "velocity": 0.29133858267716534
          },
          {
            "duration": 0.06637162499998794,
            "durationTicks": 48,
            "midi": 46,
            "name": "A#2",
            "ticks": 66432,
            "time": 91.85832900000001,
            "velocity": 0.29133858267716534
          },
          {
            "duration": 0.06637162500000215,
            "durationTicks": 48,
            "midi": 60,
            "name": "C4",
            "ticks": 66528,
            "time": 91.99107225,
            "velocity": 0.29133858267716534
          },
          {
            "duration": 0.06637162500000215,
            "durationTicks": 48,
            "midi": 60,
            "name": "C4",
            "ticks": 66624,
            "time": 92.1238155,
            "velocity": 0.29133858267716534
          },
          {
            "duration": 0.06637162500000215,
            "durationTicks": 48,
            "midi": 36,
            "name": "C2",
            "ticks": 66624,
            "time": 92.1238155,
            "velocity": 0.3937007874015748
          },
          {
            "duration": 0.06637162500000215,
            "durationTicks": 48,
            "midi": 38,
            "name": "D2",
            "ticks": 66624,
            "time": 92.1238155,
            "velocity": 0.29133858267716534
          },
          {
            "duration": 0.06637162500000215,
            "durationTicks": 48,
            "midi": 39,
            "name": "D#2",
            "ticks": 66624,
            "time": 92.1238155,
            "velocity": 0.3937007874015748
          },
          {
            "duration": 0.06637162500000215,
            "durationTicks": 48,
            "midi": 42,
            "name": "F#2",
            "ticks": 66624,
            "time": 92.1238155,
            "velocity": 0.29133858267716534
          },
          {
            "duration": 0.06637162499998794,
            "durationTicks": 48,
            "midi": 60,
            "name": "C4",
            "ticks": 66720,
            "time": 92.25655875000001,
            "velocity": 0.29133858267716534
          },
          {
            "duration": 0.06637162500000215,
            "durationTicks": 48,
            "midi": 46,
            "name": "A#2",
            "ticks": 66816,
            "time": 92.389302,
            "velocity": 0.29133858267716534
          },
          {
            "duration": 0.06637162500000215,
            "durationTicks": 48,
            "midi": 70,
            "name": "A#4",
            "ticks": 66816,
            "time": 92.389302,
            "velocity": 0.29133858267716534
          },
          {
            "duration": 0.06637162500000215,
            "durationTicks": 48,
            "midi": 63,
            "name": "D#4",
            "ticks": 66816,
            "time": 92.389302,
            "velocity": 0.29133858267716534
          },
          {
            "duration": 0.06637162500000215,
            "durationTicks": 48,
            "midi": 70,
            "name": "A#4",
            "ticks": 66912,
            "time": 92.52204525,
            "velocity": 0.29133858267716534
          },
          {
            "duration": 0.06637162500000215,
            "durationTicks": 48,
            "midi": 36,
            "name": "C2",
            "ticks": 67008,
            "time": 92.65478850000001,
            "velocity": 0.3937007874015748
          },
          {
            "duration": 0.06637162500000215,
            "durationTicks": 48,
            "midi": 60,
            "name": "C4",
            "ticks": 67008,
            "time": 92.65478850000001,
            "velocity": 0.29133858267716534
          },
          {
            "duration": 0.06637162500000215,
            "durationTicks": 48,
            "midi": 42,
            "name": "F#2",
            "ticks": 67008,
            "time": 92.65478850000001,
            "velocity": 0.29133858267716534
          },
          {
            "duration": 0.06637162500000215,
            "durationTicks": 48,
            "midi": 70,
            "name": "A#4",
            "ticks": 67200,
            "time": 92.920275,
            "velocity": 0.29133858267716534
          },
          {
            "duration": 0.06637162500000215,
            "durationTicks": 48,
            "midi": 46,
            "name": "A#2",
            "ticks": 67200,
            "time": 92.920275,
            "velocity": 0.29133858267716534
          },
          {
            "duration": 0.06637162500000215,
            "durationTicks": 48,
            "midi": 60,
            "name": "C4",
            "ticks": 67296,
            "time": 93.05301825000001,
            "velocity": 0.29133858267716534
          },
          {
            "duration": 0.06637162500000215,
            "durationTicks": 48,
            "midi": 38,
            "name": "D2",
            "ticks": 67392,
            "time": 93.1857615,
            "velocity": 0.29133858267716534
          },
          {
            "duration": 0.06637162500000215,
            "durationTicks": 48,
            "midi": 39,
            "name": "D#2",
            "ticks": 67392,
            "time": 93.1857615,
            "velocity": 0.3937007874015748
          },
          {
            "duration": 0.06637162500000215,
            "durationTicks": 48,
            "midi": 36,
            "name": "C2",
            "ticks": 67392,
            "time": 93.1857615,
            "velocity": 0.3937007874015748
          },
          {
            "duration": 0.06637162500000215,
            "durationTicks": 48,
            "midi": 60,
            "name": "C4",
            "ticks": 67392,
            "time": 93.1857615,
            "velocity": 0.29133858267716534
          },
          {
            "duration": 0.06637162500000215,
            "durationTicks": 48,
            "midi": 42,
            "name": "F#2",
            "ticks": 67392,
            "time": 93.1857615,
            "velocity": 0.29133858267716534
          },
          {
            "duration": 0.06637162500000215,
            "durationTicks": 48,
            "midi": 60,
            "name": "C4",
            "ticks": 67488,
            "time": 93.31850475,
            "velocity": 0.29133858267716534
          },
          {
            "duration": 0.06637162500000215,
            "durationTicks": 48,
            "midi": 63,
            "name": "D#4",
            "ticks": 67584,
            "time": 93.451248,
            "velocity": 0.29133858267716534
          },
          {
            "duration": 0.06637162500000215,
            "durationTicks": 48,
            "midi": 46,
            "name": "A#2",
            "ticks": 67584,
            "time": 93.451248,
            "velocity": 0.29133858267716534
          },
          {
            "duration": 0.06637162500000215,
            "durationTicks": 48,
            "midi": 70,
            "name": "A#4",
            "ticks": 67584,
            "time": 93.451248,
            "velocity": 0.29133858267716534
          },
          {
            "duration": 0.06637162499998794,
            "durationTicks": 48,
            "midi": 70,
            "name": "A#4",
            "ticks": 67680,
            "time": 93.58399125000001,
            "velocity": 0.29133858267716534
          },
          {
            "duration": 0.06637162500000215,
            "durationTicks": 48,
            "midi": 42,
            "name": "F#2",
            "ticks": 67776,
            "time": 93.7167345,
            "velocity": 0.29133858267716534
          },
          {
            "duration": 0.06637162500000215,
            "durationTicks": 48,
            "midi": 60,
            "name": "C4",
            "ticks": 67776,
            "time": 93.7167345,
            "velocity": 0.29133858267716534
          },
          {
            "duration": 0.06637162500000215,
            "durationTicks": 48,
            "midi": 36,
            "name": "C2",
            "ticks": 67776,
            "time": 93.7167345,
            "velocity": 0.3937007874015748
          },
          {
            "duration": 0.06637162500000215,
            "durationTicks": 48,
            "midi": 46,
            "name": "A#2",
            "ticks": 67968,
            "time": 93.98222100000001,
            "velocity": 0.29133858267716534
          },
          {
            "duration": 0.06637162500000215,
            "durationTicks": 48,
            "midi": 70,
            "name": "A#4",
            "ticks": 67968,
            "time": 93.98222100000001,
            "velocity": 0.29133858267716534
          },
          {
            "duration": 0.06637162500000215,
            "durationTicks": 48,
            "midi": 60,
            "name": "C4",
            "ticks": 68064,
            "time": 94.11496425,
            "velocity": 0.29133858267716534
          },
          {
            "duration": 0.06637162500000215,
            "durationTicks": 48,
            "midi": 38,
            "name": "D2",
            "ticks": 68160,
            "time": 94.2477075,
            "velocity": 0.29133858267716534
          },
          {
            "duration": 0.06637162500000215,
            "durationTicks": 48,
            "midi": 36,
            "name": "C2",
            "ticks": 68160,
            "time": 94.2477075,
            "velocity": 0.3937007874015748
          },
          {
            "duration": 0.06637162500000215,
            "durationTicks": 48,
            "midi": 39,
            "name": "D#2",
            "ticks": 68160,
            "time": 94.2477075,
            "velocity": 0.3937007874015748
          },
          {
            "duration": 0.06637162500000215,
            "durationTicks": 48,
            "midi": 42,
            "name": "F#2",
            "ticks": 68160,
            "time": 94.2477075,
            "velocity": 0.29133858267716534
          },
          {
            "duration": 0.06637162500000215,
            "durationTicks": 48,
            "midi": 60,
            "name": "C4",
            "ticks": 68160,
            "time": 94.2477075,
            "velocity": 0.29133858267716534
          },
          {
            "duration": 0.06637162500000215,
            "durationTicks": 48,
            "midi": 60,
            "name": "C4",
            "ticks": 68256,
            "time": 94.38045075000001,
            "velocity": 0.29133858267716534
          },
          {
            "duration": 0.06637162500000215,
            "durationTicks": 48,
            "midi": 70,
            "name": "A#4",
            "ticks": 68352,
            "time": 94.513194,
            "velocity": 0.29133858267716534
          },
          {
            "duration": 0.06637162500000215,
            "durationTicks": 48,
            "midi": 63,
            "name": "D#4",
            "ticks": 68352,
            "time": 94.513194,
            "velocity": 0.29133858267716534
          },
          {
            "duration": 0.06637162500000215,
            "durationTicks": 48,
            "midi": 46,
            "name": "A#2",
            "ticks": 68352,
            "time": 94.513194,
            "velocity": 0.29133858267716534
          },
          {
            "duration": 0.06637162500000215,
            "durationTicks": 48,
            "midi": 70,
            "name": "A#4",
            "ticks": 68448,
            "time": 94.64593725,
            "velocity": 0.29133858267716534
          },
          {
            "duration": 0.06637162500000215,
            "durationTicks": 48,
            "midi": 82,
            "name": "A#5",
            "ticks": 68544,
            "time": 94.77868050000001,
            "velocity": 0.29133858267716534
          },
          {
            "duration": 0.06637162500000215,
            "durationTicks": 48,
            "midi": 42,
            "name": "F#2",
            "ticks": 68544,
            "time": 94.77868050000001,
            "velocity": 0.29133858267716534
          },
          {
            "duration": 0.06637162500000215,
            "durationTicks": 48,
            "midi": 60,
            "name": "C4",
            "ticks": 68544,
            "time": 94.77868050000001,
            "velocity": 0.29133858267716534
          },
          {
            "duration": 0.06637162500000215,
            "durationTicks": 48,
            "midi": 36,
            "name": "C2",
            "ticks": 68544,
            "time": 94.77868050000001,
            "velocity": 0.3937007874015748
          },
          {
            "duration": 0.06637162499998794,
            "durationTicks": 48,
            "midi": 82,
            "name": "A#5",
            "ticks": 68640,
            "time": 94.91142375000001,
            "velocity": 0.14173228346456693
          },
          {
            "duration": 0.06637162500000215,
            "durationTicks": 48,
            "midi": 70,
            "name": "A#4",
            "ticks": 68736,
            "time": 95.044167,
            "velocity": 0.29133858267716534
          },
          {
            "duration": 0.06637162500000215,
            "durationTicks": 48,
            "midi": 46,
            "name": "A#2",
            "ticks": 68736,
            "time": 95.044167,
            "velocity": 0.29133858267716534
          },
          {
            "duration": 0.06637162500000215,
            "durationTicks": 48,
            "midi": 82,
            "name": "A#5",
            "ticks": 68736,
            "time": 95.044167,
            "velocity": 0.29133858267716534
          },
          {
            "duration": 0.06637162500000215,
            "durationTicks": 48,
            "midi": 60,
            "name": "C4",
            "ticks": 68832,
            "time": 95.17691025,
            "velocity": 0.29133858267716534
          },
          {
            "duration": 0.06637162500000215,
            "durationTicks": 48,
            "midi": 82,
            "name": "A#5",
            "ticks": 68832,
            "time": 95.17691025,
            "velocity": 0.29133858267716534
          },
          {
            "duration": 0.06637162499998794,
            "durationTicks": 48,
            "midi": 36,
            "name": "C2",
            "ticks": 68928,
            "time": 95.30965350000001,
            "velocity": 0.3937007874015748
          },
          {
            "duration": 0.06637162499998794,
            "durationTicks": 48,
            "midi": 39,
            "name": "D#2",
            "ticks": 68928,
            "time": 95.30965350000001,
            "velocity": 0.3937007874015748
          },
          {
            "duration": 0.06637162499998794,
            "durationTicks": 48,
            "midi": 42,
            "name": "F#2",
            "ticks": 68928,
            "time": 95.30965350000001,
            "velocity": 0.29133858267716534
          },
          {
            "duration": 0.06637162499998794,
            "durationTicks": 48,
            "midi": 38,
            "name": "D2",
            "ticks": 68928,
            "time": 95.30965350000001,
            "velocity": 0.29133858267716534
          },
          {
            "duration": 0.06637162499998794,
            "durationTicks": 48,
            "midi": 60,
            "name": "C4",
            "ticks": 68928,
            "time": 95.30965350000001,
            "velocity": 0.29133858267716534
          },
          {
            "duration": 0.06637162500000215,
            "durationTicks": 48,
            "midi": 60,
            "name": "C4",
            "ticks": 69024,
            "time": 95.44239675,
            "velocity": 0.29133858267716534
          },
          {
            "duration": 0.06637162500000215,
            "durationTicks": 48,
            "midi": 42,
            "name": "F#2",
            "ticks": 69120,
            "time": 95.57514,
            "velocity": 0.3937007874015748
          },
          {
            "duration": 0.06637162500000215,
            "durationTicks": 48,
            "midi": 70,
            "name": "A#4",
            "ticks": 69120,
            "time": 95.57514,
            "velocity": 0.29133858267716534
          },
          {
            "duration": 0.06637162500000215,
            "durationTicks": 48,
            "midi": 63,
            "name": "D#4",
            "ticks": 69120,
            "time": 95.57514,
            "velocity": 0.29133858267716534
          },
          {
            "duration": 0.06637162500000215,
            "durationTicks": 48,
            "midi": 70,
            "name": "A#4",
            "ticks": 69216,
            "time": 95.70788325000001,
            "velocity": 0.29133858267716534
          },
          {
            "duration": 0.06637162500000215,
            "durationTicks": 48,
            "midi": 42,
            "name": "F#2",
            "ticks": 69216,
            "time": 95.70788325000001,
            "velocity": 0.3937007874015748
          },
          {
            "duration": 0.06637162500000215,
            "durationTicks": 48,
            "midi": 42,
            "name": "F#2",
            "ticks": 69312,
            "time": 95.8406265,
            "velocity": 0.29133858267716534
          },
          {
            "duration": 0.06637162500000215,
            "durationTicks": 48,
            "midi": 60,
            "name": "C4",
            "ticks": 69312,
            "time": 95.8406265,
            "velocity": 0.29133858267716534
          },
          {
            "duration": 0.06637162500000215,
            "durationTicks": 48,
            "midi": 36,
            "name": "C2",
            "ticks": 69312,
            "time": 95.8406265,
            "velocity": 0.3937007874015748
          },
          {
            "duration": 0.06637162500000215,
            "durationTicks": 48,
            "midi": 70,
            "name": "A#4",
            "ticks": 69504,
            "time": 96.10611300000001,
            "velocity": 0.29133858267716534
          },
          {
            "duration": 0.06637162500000215,
            "durationTicks": 48,
            "midi": 46,
            "name": "A#2",
            "ticks": 69504,
            "time": 96.10611300000001,
            "velocity": 0.29133858267716534
          },
          {
            "duration": 0.06637162499998794,
            "durationTicks": 48,
            "midi": 60,
            "name": "C4",
            "ticks": 69600,
            "time": 96.23885625000001,
            "velocity": 0.29133858267716534
          },
          {
            "duration": 0.06637162500000215,
            "durationTicks": 48,
            "midi": 60,
            "name": "C4",
            "ticks": 69696,
            "time": 96.3715995,
            "velocity": 0.29133858267716534
          },
          {
            "duration": 0.06637162500000215,
            "durationTicks": 48,
            "midi": 39,
            "name": "D#2",
            "ticks": 69696,
            "time": 96.3715995,
            "velocity": 0.3937007874015748
          },
          {
            "duration": 0.06637162500000215,
            "durationTicks": 48,
            "midi": 38,
            "name": "D2",
            "ticks": 69696,
            "time": 96.3715995,
            "velocity": 0.29133858267716534
          },
          {
            "duration": 0.06637162500000215,
            "durationTicks": 48,
            "midi": 42,
            "name": "F#2",
            "ticks": 69696,
            "time": 96.3715995,
            "velocity": 0.29133858267716534
          },
          {
            "duration": 0.06637162500000215,
            "durationTicks": 48,
            "midi": 36,
            "name": "C2",
            "ticks": 69696,
            "time": 96.3715995,
            "velocity": 0.3937007874015748
          },
          {
            "duration": 0.06637162500000215,
            "durationTicks": 48,
            "midi": 60,
            "name": "C4",
            "ticks": 69792,
            "time": 96.50434275,
            "velocity": 0.29133858267716534
          },
          {
            "duration": 0.06637162499998794,
            "durationTicks": 48,
            "midi": 70,
            "name": "A#4",
            "ticks": 69888,
            "time": 96.63708600000001,
            "velocity": 0.29133858267716534
          },
          {
            "duration": 0.06637162499998794,
            "durationTicks": 48,
            "midi": 46,
            "name": "A#2",
            "ticks": 69888,
            "time": 96.63708600000001,
            "velocity": 0.29133858267716534
          },
          {
            "duration": 0.06637162499998794,
            "durationTicks": 48,
            "midi": 63,
            "name": "D#4",
            "ticks": 69888,
            "time": 96.63708600000001,
            "velocity": 0.29133858267716534
          },
          {
            "duration": 0.06637162500000215,
            "durationTicks": 48,
            "midi": 70,
            "name": "A#4",
            "ticks": 69984,
            "time": 96.76982925,
            "velocity": 0.29133858267716534
          },
          {
            "duration": 0.06637162500000215,
            "durationTicks": 48,
            "midi": 42,
            "name": "F#2",
            "ticks": 70080,
            "time": 96.9025725,
            "velocity": 0.29133858267716534
          },
          {
            "duration": 0.06637162500000215,
            "durationTicks": 48,
            "midi": 60,
            "name": "C4",
            "ticks": 70080,
            "time": 96.9025725,
            "velocity": 0.29133858267716534
          },
          {
            "duration": 0.06637162500000215,
            "durationTicks": 48,
            "midi": 36,
            "name": "C2",
            "ticks": 70080,
            "time": 96.9025725,
            "velocity": 0.3937007874015748
          },
          {
            "duration": 0.06637162500000215,
            "durationTicks": 48,
            "midi": 70,
            "name": "A#4",
            "ticks": 70272,
            "time": 97.168059,
            "velocity": 0.29133858267716534
          },
          {
            "duration": 0.06637162500000215,
            "durationTicks": 48,
            "midi": 46,
            "name": "A#2",
            "ticks": 70272,
            "time": 97.168059,
            "velocity": 0.29133858267716534
          },
          {
            "duration": 0.06637162500000215,
            "durationTicks": 48,
            "midi": 60,
            "name": "C4",
            "ticks": 70368,
            "time": 97.30080225,
            "velocity": 0.29133858267716534
          },
          {
            "duration": 0.06637162500000215,
            "durationTicks": 48,
            "midi": 38,
            "name": "D2",
            "ticks": 70464,
            "time": 97.43354550000001,
            "velocity": 0.29133858267716534
          },
          {
            "duration": 0.06637162500000215,
            "durationTicks": 48,
            "midi": 60,
            "name": "C4",
            "ticks": 70464,
            "time": 97.43354550000001,
            "velocity": 0.29133858267716534
          },
          {
            "duration": 0.06637162500000215,
            "durationTicks": 48,
            "midi": 39,
            "name": "D#2",
            "ticks": 70464,
            "time": 97.43354550000001,
            "velocity": 0.3937007874015748
          },
          {
            "duration": 0.06637162500000215,
            "durationTicks": 48,
            "midi": 42,
            "name": "F#2",
            "ticks": 70464,
            "time": 97.43354550000001,
            "velocity": 0.29133858267716534
          },
          {
            "duration": 0.06637162500000215,
            "durationTicks": 48,
            "midi": 36,
            "name": "C2",
            "ticks": 70464,
            "time": 97.43354550000001,
            "velocity": 0.3937007874015748
          },
          {
            "duration": 0.06637162500000215,
            "durationTicks": 48,
            "midi": 60,
            "name": "C4",
            "ticks": 70560,
            "time": 97.56628875,
            "velocity": 0.29133858267716534
          },
          {
            "duration": 0.06637162500000215,
            "durationTicks": 48,
            "midi": 46,
            "name": "A#2",
            "ticks": 70656,
            "time": 97.699032,
            "velocity": 0.29133858267716534
          },
          {
            "duration": 0.06637162500000215,
            "durationTicks": 48,
            "midi": 63,
            "name": "D#4",
            "ticks": 70656,
            "time": 97.699032,
            "velocity": 0.29133858267716534
          },
          {
            "duration": 0.06637162500000215,
            "durationTicks": 48,
            "midi": 70,
            "name": "A#4",
            "ticks": 70656,
            "time": 97.699032,
            "velocity": 0.29133858267716534
          },
          {
            "duration": 0.06637162500000215,
            "durationTicks": 48,
            "midi": 70,
            "name": "A#4",
            "ticks": 70752,
            "time": 97.83177525,
            "velocity": 0.29133858267716534
          },
          {
            "duration": 0.06637162499998794,
            "durationTicks": 48,
            "midi": 60,
            "name": "C4",
            "ticks": 70848,
            "time": 97.96451850000001,
            "velocity": 0.29133858267716534
          },
          {
            "duration": 0.06637162499998794,
            "durationTicks": 48,
            "midi": 36,
            "name": "C2",
            "ticks": 70848,
            "time": 97.96451850000001,
            "velocity": 0.3937007874015748
          },
          {
            "duration": 0.06637162499998794,
            "durationTicks": 48,
            "midi": 42,
            "name": "F#2",
            "ticks": 70848,
            "time": 97.96451850000001,
            "velocity": 0.29133858267716534
          },
          {
            "duration": 0.06637162500000215,
            "durationTicks": 48,
            "midi": 70,
            "name": "A#4",
            "ticks": 71040,
            "time": 98.230005,
            "velocity": 0.29133858267716534
          },
          {
            "duration": 0.06637162500000215,
            "durationTicks": 48,
            "midi": 46,
            "name": "A#2",
            "ticks": 71040,
            "time": 98.230005,
            "velocity": 0.29133858267716534
          },
          {
            "duration": 0.06637162500000215,
            "durationTicks": 48,
            "midi": 60,
            "name": "C4",
            "ticks": 71136,
            "time": 98.36274825000001,
            "velocity": 0.29133858267716534
          },
          {
            "duration": 0.06637162500000215,
            "durationTicks": 48,
            "midi": 36,
            "name": "C2",
            "ticks": 71232,
            "time": 98.4954915,
            "velocity": 0.3937007874015748
          },
          {
            "duration": 0.06637162500000215,
            "durationTicks": 48,
            "midi": 39,
            "name": "D#2",
            "ticks": 71232,
            "time": 98.4954915,
            "velocity": 0.3937007874015748
          },
          {
            "duration": 0.06637162500000215,
            "durationTicks": 48,
            "midi": 42,
            "name": "F#2",
            "ticks": 71232,
            "time": 98.4954915,
            "velocity": 0.29133858267716534
          },
          {
            "duration": 0.06637162500000215,
            "durationTicks": 48,
            "midi": 38,
            "name": "D2",
            "ticks": 71232,
            "time": 98.4954915,
            "velocity": 0.29133858267716534
          },
          {
            "duration": 0.06637162500000215,
            "durationTicks": 48,
            "midi": 60,
            "name": "C4",
            "ticks": 71232,
            "time": 98.4954915,
            "velocity": 0.29133858267716534
          },
          {
            "duration": 0.06637162500000215,
            "durationTicks": 48,
            "midi": 60,
            "name": "C4",
            "ticks": 71328,
            "time": 98.62823475,
            "velocity": 0.29133858267716534
          },
          {
            "duration": 0.06637162500000215,
            "durationTicks": 48,
            "midi": 46,
            "name": "A#2",
            "ticks": 71424,
            "time": 98.76097800000001,
            "velocity": 0.29133858267716534
          },
          {
            "duration": 0.06637162500000215,
            "durationTicks": 48,
            "midi": 63,
            "name": "D#4",
            "ticks": 71424,
            "time": 98.76097800000001,
            "velocity": 0.29133858267716534
          },
          {
            "duration": 0.06637162500000215,
            "durationTicks": 48,
            "midi": 70,
            "name": "A#4",
            "ticks": 71424,
            "time": 98.76097800000001,
            "velocity": 0.29133858267716534
          },
          {
            "duration": 0.06637162500000215,
            "durationTicks": 48,
            "midi": 70,
            "name": "A#4",
            "ticks": 71520,
            "time": 98.89372125,
            "velocity": 0.29133858267716534
          },
          {
            "duration": 0.06637162500000215,
            "durationTicks": 48,
            "midi": 60,
            "name": "C4",
            "ticks": 71616,
            "time": 99.0264645,
            "velocity": 0.29133858267716534
          },
          {
            "duration": 0.06637162500000215,
            "durationTicks": 48,
            "midi": 42,
            "name": "F#2",
            "ticks": 71616,
            "time": 99.0264645,
            "velocity": 0.29133858267716534
          },
          {
            "duration": 0.06637162500000215,
            "durationTicks": 48,
            "midi": 82,
            "name": "A#5",
            "ticks": 71616,
            "time": 99.0264645,
            "velocity": 0.29133858267716534
          },
          {
            "duration": 0.06637162500000215,
            "durationTicks": 48,
            "midi": 36,
            "name": "C2",
            "ticks": 71616,
            "time": 99.0264645,
            "velocity": 0.3937007874015748
          },
          {
            "duration": 0.06637162500000215,
            "durationTicks": 48,
            "midi": 82,
            "name": "A#5",
            "ticks": 71712,
            "time": 99.15920775000001,
            "velocity": 0.14173228346456693
          },
          {
            "duration": 0.06637162499998794,
            "durationTicks": 48,
            "midi": 82,
            "name": "A#5",
            "ticks": 71808,
            "time": 99.29195100000001,
            "velocity": 0.29133858267716534
          },
          {
            "duration": 0.06637162499998794,
            "durationTicks": 48,
            "midi": 46,
            "name": "A#2",
            "ticks": 71808,
            "time": 99.29195100000001,
            "velocity": 0.29133858267716534
          },
          {
            "duration": 0.06637162499998794,
            "durationTicks": 48,
            "midi": 70,
            "name": "A#4",
            "ticks": 71808,
            "time": 99.29195100000001,
            "velocity": 0.29133858267716534
          },
          {
            "duration": 0.06637162500000215,
            "durationTicks": 48,
            "midi": 82,
            "name": "A#5",
            "ticks": 71904,
            "time": 99.42469425,
            "velocity": 0.29133858267716534
          },
          {
            "duration": 0.06637162500000215,
            "durationTicks": 48,
            "midi": 60,
            "name": "C4",
            "ticks": 71904,
            "time": 99.42469425,
            "velocity": 0.29133858267716534
          },
          {
            "duration": 0.06637162500000215,
            "durationTicks": 48,
            "midi": 60,
            "name": "C4",
            "ticks": 72000,
            "time": 99.5574375,
            "velocity": 0.29133858267716534
          },
          {
            "duration": 0.06637162500000215,
            "durationTicks": 48,
            "midi": 42,
            "name": "F#2",
            "ticks": 72000,
            "time": 99.5574375,
            "velocity": 0.29133858267716534
          },
          {
            "duration": 0.06637162500000215,
            "durationTicks": 48,
            "midi": 38,
            "name": "D2",
            "ticks": 72000,
            "time": 99.5574375,
            "velocity": 0.29133858267716534
          },
          {
            "duration": 0.06637162500000215,
            "durationTicks": 48,
            "midi": 39,
            "name": "D#2",
            "ticks": 72000,
            "time": 99.5574375,
            "velocity": 0.3937007874015748
          },
          {
            "duration": 0.06637162500000215,
            "durationTicks": 48,
            "midi": 36,
            "name": "C2",
            "ticks": 72000,
            "time": 99.5574375,
            "velocity": 0.3937007874015748
          },
          {
            "duration": 0.06637162499998794,
            "durationTicks": 48,
            "midi": 60,
            "name": "C4",
            "ticks": 72096,
            "time": 99.69018075000001,
            "velocity": 0.29133858267716534
          },
          {
            "duration": 0.06637162500000215,
            "durationTicks": 48,
            "midi": 42,
            "name": "F#2",
            "ticks": 72192,
            "time": 99.822924,
            "velocity": 0.3937007874015748
          },
          {
            "duration": 0.06637162500000215,
            "durationTicks": 48,
            "midi": 70,
            "name": "A#4",
            "ticks": 72192,
            "time": 99.822924,
            "velocity": 0.29133858267716534
          },
          {
            "duration": 0.06637162500000215,
            "durationTicks": 48,
            "midi": 63,
            "name": "D#4",
            "ticks": 72192,
            "time": 99.822924,
            "velocity": 0.29133858267716534
          },
          {
            "duration": 0.06637162500000215,
            "durationTicks": 48,
            "midi": 70,
            "name": "A#4",
            "ticks": 72288,
            "time": 99.95566725,
            "velocity": 0.29133858267716534
          },
          {
            "duration": 0.06637162500000215,
            "durationTicks": 48,
            "midi": 42,
            "name": "F#2",
            "ticks": 72288,
            "time": 99.95566725,
            "velocity": 0.3937007874015748
          },
          {
            "duration": 0.06637162500000215,
            "durationTicks": 48,
            "midi": 42,
            "name": "F#2",
            "ticks": 72384,
            "time": 100.08841050000001,
            "velocity": 0.29133858267716534
          },
          {
            "duration": 0.06637162500000215,
            "durationTicks": 48,
            "midi": 36,
            "name": "C2",
            "ticks": 72384,
            "time": 100.08841050000001,
            "velocity": 0.3937007874015748
          },
          {
            "duration": 0.06637162500000215,
            "durationTicks": 48,
            "midi": 60,
            "name": "C4",
            "ticks": 72384,
            "time": 100.08841050000001,
            "velocity": 0.29133858267716534
          },
          {
            "duration": 0.06637162500000215,
            "durationTicks": 48,
            "midi": 70,
            "name": "A#4",
            "ticks": 72576,
            "time": 100.353897,
            "velocity": 0.29133858267716534
          },
          {
            "duration": 0.06637162500000215,
            "durationTicks": 48,
            "midi": 46,
            "name": "A#2",
            "ticks": 72576,
            "time": 100.353897,
            "velocity": 0.29133858267716534
          },
          {
            "duration": 0.06637162500000215,
            "durationTicks": 48,
            "midi": 60,
            "name": "C4",
            "ticks": 72672,
            "time": 100.48664025000001,
            "velocity": 0.29133858267716534
          },
          {
            "duration": 0.06637162499998794,
            "durationTicks": 48,
            "midi": 38,
            "name": "D2",
            "ticks": 72768,
            "time": 100.61938350000001,
            "velocity": 0.29133858267716534
          },
          {
            "duration": 0.06637162499998794,
            "durationTicks": 48,
            "midi": 60,
            "name": "C4",
            "ticks": 72768,
            "time": 100.61938350000001,
            "velocity": 0.29133858267716534
          },
          {
            "duration": 0.06637162499998794,
            "durationTicks": 48,
            "midi": 39,
            "name": "D#2",
            "ticks": 72768,
            "time": 100.61938350000001,
            "velocity": 0.3937007874015748
          },
          {
            "duration": 0.06637162499998794,
            "durationTicks": 48,
            "midi": 36,
            "name": "C2",
            "ticks": 72768,
            "time": 100.61938350000001,
            "velocity": 0.3937007874015748
          },
          {
            "duration": 0.06637162499998794,
            "durationTicks": 48,
            "midi": 42,
            "name": "F#2",
            "ticks": 72768,
            "time": 100.61938350000001,
            "velocity": 0.29133858267716534
          },
          {
            "duration": 0.06637162500000215,
            "durationTicks": 48,
            "midi": 60,
            "name": "C4",
            "ticks": 72864,
            "time": 100.75212675,
            "velocity": 0.29133858267716534
          },
          {
            "duration": 0.06637162500000215,
            "durationTicks": 48,
            "midi": 70,
            "name": "A#4",
            "ticks": 72960,
            "time": 100.88487,
            "velocity": 0.29133858267716534
          },
          {
            "duration": 0.06637162500000215,
            "durationTicks": 48,
            "midi": 46,
            "name": "A#2",
            "ticks": 72960,
            "time": 100.88487,
            "velocity": 0.29133858267716534
          },
          {
            "duration": 0.06637162500000215,
            "durationTicks": 48,
            "midi": 63,
            "name": "D#4",
            "ticks": 72960,
            "time": 100.88487,
            "velocity": 0.29133858267716534
          },
          {
            "duration": 0.06637162499998794,
            "durationTicks": 48,
            "midi": 70,
            "name": "A#4",
            "ticks": 73056,
            "time": 101.01761325000001,
            "velocity": 0.29133858267716534
          },
          {
            "duration": 0.06637162500000215,
            "durationTicks": 48,
            "midi": 36,
            "name": "C2",
            "ticks": 73152,
            "time": 101.1503565,
            "velocity": 0.3937007874015748
          },
          {
            "duration": 0.06637162500000215,
            "durationTicks": 48,
            "midi": 42,
            "name": "F#2",
            "ticks": 73152,
            "time": 101.1503565,
            "velocity": 0.29133858267716534
          },
          {
            "duration": 0.06637162500000215,
            "durationTicks": 48,
            "midi": 60,
            "name": "C4",
            "ticks": 73152,
            "time": 101.1503565,
            "velocity": 0.29133858267716534
          },
          {
            "duration": 0.06637162500000215,
            "durationTicks": 48,
            "midi": 46,
            "name": "A#2",
            "ticks": 73344,
            "time": 101.41584300000001,
            "velocity": 0.29133858267716534
          },
          {
            "duration": 0.06637162500000215,
            "durationTicks": 48,
            "midi": 70,
            "name": "A#4",
            "ticks": 73344,
            "time": 101.41584300000001,
            "velocity": 0.29133858267716534
          },
          {
            "duration": 0.06637162500000215,
            "durationTicks": 48,
            "midi": 60,
            "name": "C4",
            "ticks": 73440,
            "time": 101.54858625,
            "velocity": 0.29133858267716534
          },
          {
            "duration": 0.06637162500000215,
            "durationTicks": 48,
            "midi": 42,
            "name": "F#2",
            "ticks": 73536,
            "time": 101.6813295,
            "velocity": 0.29133858267716534
          },
          {
            "duration": 0.06637162500000215,
            "durationTicks": 48,
            "midi": 60,
            "name": "C4",
            "ticks": 73536,
            "time": 101.6813295,
            "velocity": 0.29133858267716534
          },
          {
            "duration": 0.06637162500000215,
            "durationTicks": 48,
            "midi": 38,
            "name": "D2",
            "ticks": 73536,
            "time": 101.6813295,
            "velocity": 0.29133858267716534
          },
          {
            "duration": 0.06637162500000215,
            "durationTicks": 48,
            "midi": 36,
            "name": "C2",
            "ticks": 73536,
            "time": 101.6813295,
            "velocity": 0.3937007874015748
          },
          {
            "duration": 0.06637162500000215,
            "durationTicks": 48,
            "midi": 39,
            "name": "D#2",
            "ticks": 73536,
            "time": 101.6813295,
            "velocity": 0.3937007874015748
          },
          {
            "duration": 0.06637162500000215,
            "durationTicks": 48,
            "midi": 60,
            "name": "C4",
            "ticks": 73632,
            "time": 101.81407275000001,
            "velocity": 0.29133858267716534
          },
          {
            "duration": 0.06637162499998794,
            "durationTicks": 48,
            "midi": 46,
            "name": "A#2",
            "ticks": 73728,
            "time": 101.94681600000001,
            "velocity": 0.29133858267716534
          },
          {
            "duration": 0.06637162499998794,
            "durationTicks": 48,
            "midi": 70,
            "name": "A#4",
            "ticks": 73728,
            "time": 101.94681600000001,
            "velocity": 0.29133858267716534
          },
          {
            "duration": 0.06637162499998794,
            "durationTicks": 48,
            "midi": 63,
            "name": "D#4",
            "ticks": 73728,
            "time": 101.94681600000001,
            "velocity": 0.29133858267716534
          },
          {
            "duration": 0.06637162500000215,
            "durationTicks": 48,
            "midi": 70,
            "name": "A#4",
            "ticks": 73824,
            "time": 102.07955925,
            "velocity": 0.29133858267716534
          },
          {
            "duration": 0.06637162500000215,
            "durationTicks": 48,
            "midi": 60,
            "name": "C4",
            "ticks": 73920,
            "time": 102.2123025,
            "velocity": 0.29133858267716534
          },
          {
            "duration": 0.06637162500000215,
            "durationTicks": 48,
            "midi": 36,
            "name": "C2",
            "ticks": 73920,
            "time": 102.2123025,
            "velocity": 0.3937007874015748
          },
          {
            "duration": 0.06637162500000215,
            "durationTicks": 48,
            "midi": 42,
            "name": "F#2",
            "ticks": 73920,
            "time": 102.2123025,
            "velocity": 0.29133858267716534
          },
          {
            "duration": 0.06637162500000215,
            "durationTicks": 48,
            "midi": 70,
            "name": "A#4",
            "ticks": 74112,
            "time": 102.477789,
            "velocity": 0.29133858267716534
          },
          {
            "duration": 0.06637162500000215,
            "durationTicks": 48,
            "midi": 46,
            "name": "A#2",
            "ticks": 74112,
            "time": 102.477789,
            "velocity": 0.29133858267716534
          },
          {
            "duration": 0.06637162500000215,
            "durationTicks": 48,
            "midi": 60,
            "name": "C4",
            "ticks": 74208,
            "time": 102.61053225,
            "velocity": 0.29133858267716534
          },
          {
            "duration": 0.06637162500000215,
            "durationTicks": 48,
            "midi": 36,
            "name": "C2",
            "ticks": 74304,
            "time": 102.74327550000001,
            "velocity": 0.3937007874015748
          },
          {
            "duration": 0.06637162500000215,
            "durationTicks": 48,
            "midi": 39,
            "name": "D#2",
            "ticks": 74304,
            "time": 102.74327550000001,
            "velocity": 0.3937007874015748
          },
          {
            "duration": 0.06637162500000215,
            "durationTicks": 48,
            "midi": 60,
            "name": "C4",
            "ticks": 74304,
            "time": 102.74327550000001,
            "velocity": 0.29133858267716534
          },
          {
            "duration": 0.06637162500000215,
            "durationTicks": 48,
            "midi": 38,
            "name": "D2",
            "ticks": 74304,
            "time": 102.74327550000001,
            "velocity": 0.29133858267716534
          },
          {
            "duration": 0.06637162500000215,
            "durationTicks": 48,
            "midi": 42,
            "name": "F#2",
            "ticks": 74304,
            "time": 102.74327550000001,
            "velocity": 0.29133858267716534
          },
          {
            "duration": 0.06637162500000215,
            "durationTicks": 48,
            "midi": 60,
            "name": "C4",
            "ticks": 74400,
            "time": 102.87601875,
            "velocity": 0.29133858267716534
          },
          {
            "duration": 0.06637162500000215,
            "durationTicks": 48,
            "midi": 46,
            "name": "A#2",
            "ticks": 74496,
            "time": 103.008762,
            "velocity": 0.29133858267716534
          },
          {
            "duration": 0.06637162500000215,
            "durationTicks": 48,
            "midi": 70,
            "name": "A#4",
            "ticks": 74496,
            "time": 103.008762,
            "velocity": 0.29133858267716534
          },
          {
            "duration": 0.06637162500000215,
            "durationTicks": 48,
            "midi": 63,
            "name": "D#4",
            "ticks": 74496,
            "time": 103.008762,
            "velocity": 0.29133858267716534
          },
          {
            "duration": 0.06637162500000215,
            "durationTicks": 48,
            "midi": 70,
            "name": "A#4",
            "ticks": 74592,
            "time": 103.14150525000001,
            "velocity": 0.29133858267716534
          },
          {
            "duration": 0.06637162500000215,
            "durationTicks": 48,
            "midi": 60,
            "name": "C4",
            "ticks": 74688,
            "time": 103.2742485,
            "velocity": 0.29133858267716534
          },
          {
            "duration": 0.06637162500000215,
            "durationTicks": 48,
            "midi": 36,
            "name": "C2",
            "ticks": 74688,
            "time": 103.2742485,
            "velocity": 0.3937007874015748
          },
          {
            "duration": 0.06637162500000215,
            "durationTicks": 48,
            "midi": 42,
            "name": "F#2",
            "ticks": 74688,
            "time": 103.2742485,
            "velocity": 0.29133858267716534
          },
          {
            "duration": 0.06637162500000215,
            "durationTicks": 48,
            "midi": 82,
            "name": "A#5",
            "ticks": 74688,
            "time": 103.2742485,
            "velocity": 0.29133858267716534
          },
          {
            "duration": 0.06637162500000215,
            "durationTicks": 48,
            "midi": 82,
            "name": "A#5",
            "ticks": 74784,
            "time": 103.40699175,
            "velocity": 0.14173228346456693
          },
          {
            "duration": 0.06637162500000215,
            "durationTicks": 48,
            "midi": 82,
            "name": "A#5",
            "ticks": 74880,
            "time": 103.53973500000001,
            "velocity": 0.29133858267716534
          },
          {
            "duration": 0.06637162500000215,
            "durationTicks": 48,
            "midi": 70,
            "name": "A#4",
            "ticks": 74880,
            "time": 103.53973500000001,
            "velocity": 0.29133858267716534
          },
          {
            "duration": 0.06637162500000215,
            "durationTicks": 48,
            "midi": 46,
            "name": "A#2",
            "ticks": 74880,
            "time": 103.53973500000001,
            "velocity": 0.29133858267716534
          },
          {
            "duration": 0.06637162499998794,
            "durationTicks": 48,
            "midi": 82,
            "name": "A#5",
            "ticks": 74976,
            "time": 103.67247825000001,
            "velocity": 0.29133858267716534
          },
          {
            "duration": 0.06637162499998794,
            "durationTicks": 48,
            "midi": 60,
            "name": "C4",
            "ticks": 74976,
            "time": 103.67247825000001,
            "velocity": 0.29133858267716534
          },
          {
            "duration": 0.06637162500000215,
            "durationTicks": 48,
            "midi": 38,
            "name": "D2",
            "ticks": 75072,
            "time": 103.8052215,
            "velocity": 0.29133858267716534
          },
          {
            "duration": 0.06637162500000215,
            "durationTicks": 48,
            "midi": 60,
            "name": "C4",
            "ticks": 75072,
            "time": 103.8052215,
            "velocity": 0.29133858267716534
          },
          {
            "duration": 0.06637162500000215,
            "durationTicks": 48,
            "midi": 39,
            "name": "D#2",
            "ticks": 75072,
            "time": 103.8052215,
            "velocity": 0.3937007874015748
          },
          {
            "duration": 0.06637162500000215,
            "durationTicks": 48,
            "midi": 36,
            "name": "C2",
            "ticks": 75072,
            "time": 103.8052215,
            "velocity": 0.3937007874015748
          },
          {
            "duration": 0.06637162500000215,
            "durationTicks": 48,
            "midi": 42,
            "name": "F#2",
            "ticks": 75072,
            "time": 103.8052215,
            "velocity": 0.29133858267716534
          },
          {
            "duration": 0.06637162500000215,
            "durationTicks": 48,
            "midi": 60,
            "name": "C4",
            "ticks": 75168,
            "time": 103.93796475,
            "velocity": 0.29133858267716534
          },
          {
            "duration": 0.06637162500000215,
            "durationTicks": 48,
            "midi": 42,
            "name": "F#2",
            "ticks": 75264,
            "time": 104.07070800000001,
            "velocity": 0.3937007874015748
          },
          {
            "duration": 0.06637162500000215,
            "durationTicks": 48,
            "midi": 70,
            "name": "A#4",
            "ticks": 75264,
            "time": 104.07070800000001,
            "velocity": 0.29133858267716534
          },
          {
            "duration": 0.06637162500000215,
            "durationTicks": 48,
            "midi": 63,
            "name": "D#4",
            "ticks": 75264,
            "time": 104.07070800000001,
            "velocity": 0.29133858267716534
          },
          {
            "duration": 0.06637162500000215,
            "durationTicks": 48,
            "midi": 70,
            "name": "A#4",
            "ticks": 75360,
            "time": 104.20345125,
            "velocity": 0.29133858267716534
          },
          {
            "duration": 0.06637162500000215,
            "durationTicks": 48,
            "midi": 42,
            "name": "F#2",
            "ticks": 75360,
            "time": 104.20345125,
            "velocity": 0.3937007874015748
          },
          {
            "duration": 0.06637162500000215,
            "durationTicks": 48,
            "midi": 42,
            "name": "F#2",
            "ticks": 75456,
            "time": 104.3361945,
            "velocity": 0.29133858267716534
          },
          {
            "duration": 0.06637162500000215,
            "durationTicks": 48,
            "midi": 60,
            "name": "C4",
            "ticks": 75456,
            "time": 104.3361945,
            "velocity": 0.29133858267716534
          },
          {
            "duration": 0.06637162500000215,
            "durationTicks": 48,
            "midi": 36,
            "name": "C2",
            "ticks": 75456,
            "time": 104.3361945,
            "velocity": 0.3937007874015748
          },
          {
            "duration": 0.06637162500000215,
            "durationTicks": 48,
            "midi": 46,
            "name": "A#2",
            "ticks": 75648,
            "time": 104.601681,
            "velocity": 0.29133858267716534
          },
          {
            "duration": 0.06637162500000215,
            "durationTicks": 48,
            "midi": 70,
            "name": "A#4",
            "ticks": 75648,
            "time": 104.601681,
            "velocity": 0.29133858267716534
          },
          {
            "duration": 0.06637162500000215,
            "durationTicks": 48,
            "midi": 60,
            "name": "C4",
            "ticks": 75744,
            "time": 104.73442425,
            "velocity": 0.29133858267716534
          },
          {
            "duration": 0.06637162500000215,
            "durationTicks": 48,
            "midi": 42,
            "name": "F#2",
            "ticks": 75840,
            "time": 104.86716750000001,
            "velocity": 0.29133858267716534
          },
          {
            "duration": 0.06637162500000215,
            "durationTicks": 48,
            "midi": 36,
            "name": "C2",
            "ticks": 75840,
            "time": 104.86716750000001,
            "velocity": 0.3937007874015748
          },
          {
            "duration": 0.06637162500000215,
            "durationTicks": 48,
            "midi": 38,
            "name": "D2",
            "ticks": 75840,
            "time": 104.86716750000001,
            "velocity": 0.29133858267716534
          },
          {
            "duration": 0.06637162500000215,
            "durationTicks": 48,
            "midi": 60,
            "name": "C4",
            "ticks": 75840,
            "time": 104.86716750000001,
            "velocity": 0.29133858267716534
          },
          {
            "duration": 0.06637162500000215,
            "durationTicks": 48,
            "midi": 39,
            "name": "D#2",
            "ticks": 75840,
            "time": 104.86716750000001,
            "velocity": 0.3937007874015748
          },
          {
            "duration": 0.06637162499998794,
            "durationTicks": 48,
            "midi": 60,
            "name": "C4",
            "ticks": 75936,
            "time": 104.99991075000001,
            "velocity": 0.29133858267716534
          },
          {
            "duration": 0.06637162500000215,
            "durationTicks": 48,
            "midi": 46,
            "name": "A#2",
            "ticks": 76032,
            "time": 105.132654,
            "velocity": 0.29133858267716534
          },
          {
            "duration": 0.06637162500000215,
            "durationTicks": 48,
            "midi": 70,
            "name": "A#4",
            "ticks": 76032,
            "time": 105.132654,
            "velocity": 0.29133858267716534
          },
          {
            "duration": 0.06637162500000215,
            "durationTicks": 48,
            "midi": 63,
            "name": "D#4",
            "ticks": 76032,
            "time": 105.132654,
            "velocity": 0.29133858267716534
          },
          {
            "duration": 0.06637162500000215,
            "durationTicks": 48,
            "midi": 70,
            "name": "A#4",
            "ticks": 76128,
            "time": 105.26539725,
            "velocity": 0.29133858267716534
          },
          {
            "duration": 0.06637162499998794,
            "durationTicks": 48,
            "midi": 42,
            "name": "F#2",
            "ticks": 76224,
            "time": 105.39814050000001,
            "velocity": 0.29133858267716534
          },
          {
            "duration": 0.06637162499998794,
            "durationTicks": 48,
            "midi": 36,
            "name": "C2",
            "ticks": 76224,
            "time": 105.39814050000001,
            "velocity": 0.3937007874015748
          },
          {
            "duration": 0.06637162499998794,
            "durationTicks": 48,
            "midi": 60,
            "name": "C4",
            "ticks": 76224,
            "time": 105.39814050000001,
            "velocity": 0.29133858267716534
          },
          {
            "duration": 0.06637162500000215,
            "durationTicks": 48,
            "midi": 46,
            "name": "A#2",
            "ticks": 76416,
            "time": 105.663627,
            "velocity": 0.29133858267716534
          },
          {
            "duration": 0.06637162500000215,
            "durationTicks": 48,
            "midi": 70,
            "name": "A#4",
            "ticks": 76416,
            "time": 105.663627,
            "velocity": 0.29133858267716534
          },
          {
            "duration": 0.06637162500000215,
            "durationTicks": 48,
            "midi": 60,
            "name": "C4",
            "ticks": 76512,
            "time": 105.79637025000001,
            "velocity": 0.29133858267716534
          },
          {
            "duration": 0.06637162500000215,
            "durationTicks": 48,
            "midi": 39,
            "name": "D#2",
            "ticks": 76608,
            "time": 105.9291135,
            "velocity": 0.3937007874015748
          },
          {
            "duration": 0.06637162500000215,
            "durationTicks": 48,
            "midi": 42,
            "name": "F#2",
            "ticks": 76608,
            "time": 105.9291135,
            "velocity": 0.29133858267716534
          },
          {
            "duration": 0.06637162500000215,
            "durationTicks": 48,
            "midi": 38,
            "name": "D2",
            "ticks": 76608,
            "time": 105.9291135,
            "velocity": 0.29133858267716534
          },
          {
            "duration": 0.06637162500000215,
            "durationTicks": 48,
            "midi": 36,
            "name": "C2",
            "ticks": 76608,
            "time": 105.9291135,
            "velocity": 0.3937007874015748
          },
          {
            "duration": 0.06637162500000215,
            "durationTicks": 48,
            "midi": 60,
            "name": "C4",
            "ticks": 76608,
            "time": 105.9291135,
            "velocity": 0.29133858267716534
          },
          {
            "duration": 0.06637162500000215,
            "durationTicks": 48,
            "midi": 60,
            "name": "C4",
            "ticks": 76704,
            "time": 106.06185675,
            "velocity": 0.29133858267716534
          },
          {
            "duration": 0.06637162500000215,
            "durationTicks": 48,
            "midi": 70,
            "name": "A#4",
            "ticks": 76800,
            "time": 106.19460000000001,
            "velocity": 0.29133858267716534
          },
          {
            "duration": 0.06637162500000215,
            "durationTicks": 48,
            "midi": 46,
            "name": "A#2",
            "ticks": 76800,
            "time": 106.19460000000001,
            "velocity": 0.29133858267716534
          },
          {
            "duration": 0.06637162500000215,
            "durationTicks": 48,
            "midi": 63,
            "name": "D#4",
            "ticks": 76800,
            "time": 106.19460000000001,
            "velocity": 0.29133858267716534
          },
          {
            "duration": 0.06637162499998794,
            "durationTicks": 48,
            "midi": 70,
            "name": "A#4",
            "ticks": 76896,
            "time": 106.32734325000001,
            "velocity": 0.29133858267716534
          },
          {
            "duration": 0.06637162500000215,
            "durationTicks": 48,
            "midi": 36,
            "name": "C2",
            "ticks": 76992,
            "time": 106.4600865,
            "velocity": 0.3937007874015748
          },
          {
            "duration": 0.06637162500000215,
            "durationTicks": 48,
            "midi": 42,
            "name": "F#2",
            "ticks": 76992,
            "time": 106.4600865,
            "velocity": 0.29133858267716534
          },
          {
            "duration": 0.06637162500000215,
            "durationTicks": 48,
            "midi": 60,
            "name": "C4",
            "ticks": 76992,
            "time": 106.4600865,
            "velocity": 0.29133858267716534
          },
          {
            "duration": 0.06637162499998794,
            "durationTicks": 48,
            "midi": 46,
            "name": "A#2",
            "ticks": 77184,
            "time": 106.72557300000001,
            "velocity": 0.29133858267716534
          },
          {
            "duration": 0.06637162499998794,
            "durationTicks": 48,
            "midi": 70,
            "name": "A#4",
            "ticks": 77184,
            "time": 106.72557300000001,
            "velocity": 0.29133858267716534
          },
          {
            "duration": 0.06637162500000215,
            "durationTicks": 48,
            "midi": 60,
            "name": "C4",
            "ticks": 77280,
            "time": 106.85831625,
            "velocity": 0.29133858267716534
          },
          {
            "duration": 0.06637162500000215,
            "durationTicks": 48,
            "midi": 42,
            "name": "F#2",
            "ticks": 77376,
            "time": 106.9910595,
            "velocity": 0.29133858267716534
          },
          {
            "duration": 0.06637162500000215,
            "durationTicks": 48,
            "midi": 60,
            "name": "C4",
            "ticks": 77376,
            "time": 106.9910595,
            "velocity": 0.29133858267716534
          },
          {
            "duration": 0.06637162500000215,
            "durationTicks": 48,
            "midi": 38,
            "name": "D2",
            "ticks": 77376,
            "time": 106.9910595,
            "velocity": 0.29133858267716534
          },
          {
            "duration": 0.06637162500000215,
            "durationTicks": 48,
            "midi": 39,
            "name": "D#2",
            "ticks": 77376,
            "time": 106.9910595,
            "velocity": 0.3937007874015748
          },
          {
            "duration": 0.06637162500000215,
            "durationTicks": 48,
            "midi": 36,
            "name": "C2",
            "ticks": 77376,
            "time": 106.9910595,
            "velocity": 0.3937007874015748
          },
          {
            "duration": 0.06637162500000215,
            "durationTicks": 48,
            "midi": 60,
            "name": "C4",
            "ticks": 77472,
            "time": 107.12380275000001,
            "velocity": 0.29133858267716534
          },
          {
            "duration": 0.06637162500000215,
            "durationTicks": 48,
            "midi": 63,
            "name": "D#4",
            "ticks": 77568,
            "time": 107.256546,
            "velocity": 0.29133858267716534
          },
          {
            "duration": 0.06637162500000215,
            "durationTicks": 48,
            "midi": 46,
            "name": "A#2",
            "ticks": 77568,
            "time": 107.256546,
            "velocity": 0.29133858267716534
          },
          {
            "duration": 0.06637162500000215,
            "durationTicks": 48,
            "midi": 70,
            "name": "A#4",
            "ticks": 77568,
            "time": 107.256546,
            "velocity": 0.29133858267716534
          },
          {
            "duration": 0.06637162500000215,
            "durationTicks": 48,
            "midi": 70,
            "name": "A#4",
            "ticks": 77664,
            "time": 107.38928925,
            "velocity": 0.29133858267716534
          },
          {
            "duration": 0.06637162500000215,
            "durationTicks": 48,
            "midi": 36,
            "name": "C2",
            "ticks": 77760,
            "time": 107.52203250000001,
            "velocity": 0.3937007874015748
          },
          {
            "duration": 0.06637162500000215,
            "durationTicks": 48,
            "midi": 42,
            "name": "F#2",
            "ticks": 77760,
            "time": 107.52203250000001,
            "velocity": 0.29133858267716534
          },
          {
            "duration": 0.06637162500000215,
            "durationTicks": 48,
            "midi": 82,
            "name": "A#5",
            "ticks": 77760,
            "time": 107.52203250000001,
            "velocity": 0.29133858267716534
          },
          {
            "duration": 0.06637162500000215,
            "durationTicks": 48,
            "midi": 60,
            "name": "C4",
            "ticks": 77760,
            "time": 107.52203250000001,
            "velocity": 0.29133858267716534
          },
          {
            "duration": 0.06637162500000215,
            "durationTicks": 48,
            "midi": 82,
            "name": "A#5",
            "ticks": 77856,
            "time": 107.65477575,
            "velocity": 0.14173228346456693
          },
          {
            "duration": 0.06637162500000215,
            "durationTicks": 48,
            "midi": 46,
            "name": "A#2",
            "ticks": 77952,
            "time": 107.787519,
            "velocity": 0.29133858267716534
          },
          {
            "duration": 0.06637162500000215,
            "durationTicks": 48,
            "midi": 82,
            "name": "A#5",
            "ticks": 77952,
            "time": 107.787519,
            "velocity": 0.29133858267716534
          },
          {
            "duration": 0.06637162500000215,
            "durationTicks": 48,
            "midi": 70,
            "name": "A#4",
            "ticks": 77952,
            "time": 107.787519,
            "velocity": 0.29133858267716534
          },
          {
            "duration": 0.06637162500000215,
            "durationTicks": 48,
            "midi": 82,
            "name": "A#5",
            "ticks": 78048,
            "time": 107.92026225000001,
            "velocity": 0.29133858267716534
          },
          {
            "duration": 0.06637162500000215,
            "durationTicks": 48,
            "midi": 60,
            "name": "C4",
            "ticks": 78048,
            "time": 107.92026225000001,
            "velocity": 0.29133858267716534
          },
          {
            "duration": 0.06637162499998794,
            "durationTicks": 48,
            "midi": 60,
            "name": "C4",
            "ticks": 78144,
            "time": 108.05300550000001,
            "velocity": 0.29133858267716534
          },
          {
            "duration": 0.06637162499998794,
            "durationTicks": 48,
            "midi": 39,
            "name": "D#2",
            "ticks": 78144,
            "time": 108.05300550000001,
            "velocity": 0.3937007874015748
          },
          {
            "duration": 0.06637162499998794,
            "durationTicks": 48,
            "midi": 38,
            "name": "D2",
            "ticks": 78144,
            "time": 108.05300550000001,
            "velocity": 0.29133858267716534
          },
          {
            "duration": 0.06637162499998794,
            "durationTicks": 48,
            "midi": 42,
            "name": "F#2",
            "ticks": 78144,
            "time": 108.05300550000001,
            "velocity": 0.29133858267716534
          },
          {
            "duration": 0.06637162499998794,
            "durationTicks": 48,
            "midi": 36,
            "name": "C2",
            "ticks": 78144,
            "time": 108.05300550000001,
            "velocity": 0.3937007874015748
          },
          {
            "duration": 0.06637162500000215,
            "durationTicks": 48,
            "midi": 60,
            "name": "C4",
            "ticks": 78240,
            "time": 108.18574875,
            "velocity": 0.29133858267716534
          },
          {
            "duration": 0.06637162500000215,
            "durationTicks": 48,
            "midi": 42,
            "name": "F#2",
            "ticks": 78336,
            "time": 108.318492,
            "velocity": 0.3937007874015748
          },
          {
            "duration": 0.06637162500000215,
            "durationTicks": 48,
            "midi": 63,
            "name": "D#4",
            "ticks": 78336,
            "time": 108.318492,
            "velocity": 0.29133858267716534
          },
          {
            "duration": 0.06637162500000215,
            "durationTicks": 48,
            "midi": 70,
            "name": "A#4",
            "ticks": 78336,
            "time": 108.318492,
            "velocity": 0.29133858267716534
          },
          {
            "duration": 0.06637162500000215,
            "durationTicks": 48,
            "midi": 42,
            "name": "F#2",
            "ticks": 78432,
            "time": 108.45123525000001,
            "velocity": 0.3937007874015748
          },
          {
            "duration": 0.06637162500000215,
            "durationTicks": 48,
            "midi": 70,
            "name": "A#4",
            "ticks": 78432,
            "time": 108.45123525000001,
            "velocity": 0.29133858267716534
          },
          {
            "duration": 0.06637162500000215,
            "durationTicks": 48,
            "midi": 42,
            "name": "F#2",
            "ticks": 78528,
            "time": 108.5839785,
            "velocity": 0.29133858267716534
          },
          {
            "duration": 0.06637162500000215,
            "durationTicks": 48,
            "midi": 60,
            "name": "C4",
            "ticks": 78528,
            "time": 108.5839785,
            "velocity": 0.29133858267716534
          },
          {
            "duration": 0.06637162500000215,
            "durationTicks": 48,
            "midi": 36,
            "name": "C2",
            "ticks": 78528,
            "time": 108.5839785,
            "velocity": 0.3937007874015748
          },
          {
            "duration": 0.06637162500000215,
            "durationTicks": 48,
            "midi": 70,
            "name": "A#4",
            "ticks": 78720,
            "time": 108.84946500000001,
            "velocity": 0.29133858267716534
          },
          {
            "duration": 0.06637162500000215,
            "durationTicks": 48,
            "midi": 46,
            "name": "A#2",
            "ticks": 78720,
            "time": 108.84946500000001,
            "velocity": 0.29133858267716534
          },
          {
            "duration": 0.06637162500000215,
            "durationTicks": 48,
            "midi": 60,
            "name": "C4",
            "ticks": 78816,
            "time": 108.98220825,
            "velocity": 0.29133858267716534
          },
          {
            "duration": 0.06637162500000215,
            "durationTicks": 48,
            "midi": 42,
            "name": "F#2",
            "ticks": 78912,
            "time": 109.1149515,
            "velocity": 0.29133858267716534
          },
          {
            "duration": 0.06637162500000215,
            "durationTicks": 48,
            "midi": 38,
            "name": "D2",
            "ticks": 78912,
            "time": 109.1149515,
            "velocity": 0.29133858267716534
          },
          {
            "duration": 0.06637162500000215,
            "durationTicks": 48,
            "midi": 36,
            "name": "C2",
            "ticks": 78912,
            "time": 109.1149515,
            "velocity": 0.3937007874015748
          },
          {
            "duration": 0.06637162500000215,
            "durationTicks": 48,
            "midi": 60,
            "name": "C4",
            "ticks": 78912,
            "time": 109.1149515,
            "velocity": 0.29133858267716534
          },
          {
            "duration": 0.06637162500000215,
            "durationTicks": 48,
            "midi": 39,
            "name": "D#2",
            "ticks": 78912,
            "time": 109.1149515,
            "velocity": 0.3937007874015748
          },
          {
            "duration": 0.06637162500000215,
            "durationTicks": 48,
            "midi": 60,
            "name": "C4",
            "ticks": 79008,
            "time": 109.24769475000001,
            "velocity": 0.29133858267716534
          },
          {
            "duration": 0.06637162499998794,
            "durationTicks": 48,
            "midi": 46,
            "name": "A#2",
            "ticks": 79104,
            "time": 109.38043800000001,
            "velocity": 0.29133858267716534
          },
          {
            "duration": 0.06637162499998794,
            "durationTicks": 48,
            "midi": 63,
            "name": "D#4",
            "ticks": 79104,
            "time": 109.38043800000001,
            "velocity": 0.29133858267716534
          },
          {
            "duration": 0.06637162499998794,
            "durationTicks": 48,
            "midi": 70,
            "name": "A#4",
            "ticks": 79104,
            "time": 109.38043800000001,
            "velocity": 0.29133858267716534
          },
          {
            "duration": 0.06637162500000215,
            "durationTicks": 48,
            "midi": 70,
            "name": "A#4",
            "ticks": 79200,
            "time": 109.51318125,
            "velocity": 0.29133858267716534
          },
          {
            "duration": 0.06637162500000215,
            "durationTicks": 48,
            "midi": 36,
            "name": "C2",
            "ticks": 79296,
            "time": 109.6459245,
            "velocity": 0.3937007874015748
          },
          {
            "duration": 0.06637162500000215,
            "durationTicks": 48,
            "midi": 42,
            "name": "F#2",
            "ticks": 79296,
            "time": 109.6459245,
            "velocity": 0.29133858267716534
          },
          {
            "duration": 0.06637162500000215,
            "durationTicks": 48,
            "midi": 60,
            "name": "C4",
            "ticks": 79296,
            "time": 109.6459245,
            "velocity": 0.29133858267716534
          },
          {
            "duration": 0.06637162500000215,
            "durationTicks": 48,
            "midi": 46,
            "name": "A#2",
            "ticks": 79488,
            "time": 109.911411,
            "velocity": 0.29133858267716534
          },
          {
            "duration": 0.06637162500000215,
            "durationTicks": 48,
            "midi": 70,
            "name": "A#4",
            "ticks": 79488,
            "time": 109.911411,
            "velocity": 0.29133858267716534
          },
          {
            "duration": 0.06637162500000215,
            "durationTicks": 48,
            "midi": 60,
            "name": "C4",
            "ticks": 79584,
            "time": 110.04415425,
            "velocity": 0.29133858267716534
          },
          {
            "duration": 0.06637162500000215,
            "durationTicks": 48,
            "midi": 42,
            "name": "F#2",
            "ticks": 79680,
            "time": 110.17689750000001,
            "velocity": 0.29133858267716534
          },
          {
            "duration": 0.06637162500000215,
            "durationTicks": 48,
            "midi": 38,
            "name": "D2",
            "ticks": 79680,
            "time": 110.17689750000001,
            "velocity": 0.29133858267716534
          },
          {
            "duration": 0.06637162500000215,
            "durationTicks": 48,
            "midi": 60,
            "name": "C4",
            "ticks": 79680,
            "time": 110.17689750000001,
            "velocity": 0.29133858267716534
          },
          {
            "duration": 0.06637162500000215,
            "durationTicks": 48,
            "midi": 39,
            "name": "D#2",
            "ticks": 79680,
            "time": 110.17689750000001,
            "velocity": 0.3937007874015748
          },
          {
            "duration": 0.06637162500000215,
            "durationTicks": 48,
            "midi": 36,
            "name": "C2",
            "ticks": 79680,
            "time": 110.17689750000001,
            "velocity": 0.3937007874015748
          },
          {
            "duration": 0.06637162500000215,
            "durationTicks": 48,
            "midi": 60,
            "name": "C4",
            "ticks": 79776,
            "time": 110.30964075,
            "velocity": 0.29133858267716534
          },
          {
            "duration": 0.06637162500000215,
            "durationTicks": 48,
            "midi": 70,
            "name": "A#4",
            "ticks": 79872,
            "time": 110.442384,
            "velocity": 0.29133858267716534
          },
          {
            "duration": 0.06637162500000215,
            "durationTicks": 48,
            "midi": 63,
            "name": "D#4",
            "ticks": 79872,
            "time": 110.442384,
            "velocity": 0.29133858267716534
          },
          {
            "duration": 0.06637162500000215,
            "durationTicks": 48,
            "midi": 46,
            "name": "A#2",
            "ticks": 79872,
            "time": 110.442384,
            "velocity": 0.29133858267716534
          },
          {
            "duration": 0.06637162500000215,
            "durationTicks": 48,
            "midi": 70,
            "name": "A#4",
            "ticks": 79968,
            "time": 110.57512725000001,
            "velocity": 0.29133858267716534
          },
          {
            "duration": 0.06637162499998794,
            "durationTicks": 48,
            "midi": 36,
            "name": "C2",
            "ticks": 80064,
            "time": 110.70787050000001,
            "velocity": 0.3937007874015748
          },
          {
            "duration": 0.06637162499998794,
            "durationTicks": 48,
            "midi": 42,
            "name": "F#2",
            "ticks": 80064,
            "time": 110.70787050000001,
            "velocity": 0.29133858267716534
          },
          {
            "duration": 0.06637162499998794,
            "durationTicks": 48,
            "midi": 60,
            "name": "C4",
            "ticks": 80064,
            "time": 110.70787050000001,
            "velocity": 0.29133858267716534
          },
          {
            "duration": 0.06637162500000215,
            "durationTicks": 48,
            "midi": 70,
            "name": "A#4",
            "ticks": 80256,
            "time": 110.97335700000001,
            "velocity": 0.29133858267716534
          },
          {
            "duration": 0.06637162500000215,
            "durationTicks": 48,
            "midi": 46,
            "name": "A#2",
            "ticks": 80256,
            "time": 110.97335700000001,
            "velocity": 0.29133858267716534
          },
          {
            "duration": 0.06637162499998794,
            "durationTicks": 48,
            "midi": 60,
            "name": "C4",
            "ticks": 80352,
            "time": 111.10610025000001,
            "velocity": 0.29133858267716534
          },
          {
            "duration": 0.06637162500000215,
            "durationTicks": 48,
            "midi": 60,
            "name": "C4",
            "ticks": 80448,
            "time": 111.2388435,
            "velocity": 0.29133858267716534
          },
          {
            "duration": 0.06637162500000215,
            "durationTicks": 48,
            "midi": 42,
            "name": "F#2",
            "ticks": 80448,
            "time": 111.2388435,
            "velocity": 0.29133858267716534
          },
          {
            "duration": 0.06637162500000215,
            "durationTicks": 48,
            "midi": 36,
            "name": "C2",
            "ticks": 80448,
            "time": 111.2388435,
            "velocity": 0.3937007874015748
          },
          {
            "duration": 0.06637162500000215,
            "durationTicks": 48,
            "midi": 39,
            "name": "D#2",
            "ticks": 80448,
            "time": 111.2388435,
            "velocity": 0.3937007874015748
          },
          {
            "duration": 0.06637162500000215,
            "durationTicks": 48,
            "midi": 38,
            "name": "D2",
            "ticks": 80448,
            "time": 111.2388435,
            "velocity": 0.29133858267716534
          },
          {
            "duration": 0.06637162500000215,
            "durationTicks": 48,
            "midi": 60,
            "name": "C4",
            "ticks": 80544,
            "time": 111.37158675,
            "velocity": 0.29133858267716534
          },
          {
            "duration": 0.06637162500000215,
            "durationTicks": 48,
            "midi": 70,
            "name": "A#4",
            "ticks": 80640,
            "time": 111.50433000000001,
            "velocity": 0.29133858267716534
          },
          {
            "duration": 0.06637162500000215,
            "durationTicks": 48,
            "midi": 63,
            "name": "D#4",
            "ticks": 80640,
            "time": 111.50433000000001,
            "velocity": 0.29133858267716534
          },
          {
            "duration": 0.06637162500000215,
            "durationTicks": 48,
            "midi": 46,
            "name": "A#2",
            "ticks": 80640,
            "time": 111.50433000000001,
            "velocity": 0.29133858267716534
          },
          {
            "duration": 0.06637162500000215,
            "durationTicks": 48,
            "midi": 70,
            "name": "A#4",
            "ticks": 80736,
            "time": 111.63707325,
            "velocity": 0.29133858267716534
          },
          {
            "duration": 0.06637162500000215,
            "durationTicks": 48,
            "midi": 42,
            "name": "F#2",
            "ticks": 80832,
            "time": 111.7698165,
            "velocity": 0.29133858267716534
          },
          {
            "duration": 0.06637162500000215,
            "durationTicks": 48,
            "midi": 60,
            "name": "C4",
            "ticks": 80832,
            "time": 111.7698165,
            "velocity": 0.29133858267716534
          },
          {
            "duration": 0.06637162500000215,
            "durationTicks": 48,
            "midi": 36,
            "name": "C2",
            "ticks": 80832,
            "time": 111.7698165,
            "velocity": 0.3937007874015748
          },
          {
            "duration": 0.06637162500000215,
            "durationTicks": 48,
            "midi": 82,
            "name": "A#5",
            "ticks": 80832,
            "time": 111.7698165,
            "velocity": 0.29133858267716534
          },
          {
            "duration": 0.06637162500000215,
            "durationTicks": 48,
            "midi": 82,
            "name": "A#5",
            "ticks": 80928,
            "time": 111.90255975000001,
            "velocity": 0.14173228346456693
          },
          {
            "duration": 0.06637162500000215,
            "durationTicks": 48,
            "midi": 46,
            "name": "A#2",
            "ticks": 81024,
            "time": 112.035303,
            "velocity": 0.29133858267716534
          },
          {
            "duration": 0.06637162500000215,
            "durationTicks": 48,
            "midi": 82,
            "name": "A#5",
            "ticks": 81024,
            "time": 112.035303,
            "velocity": 0.29133858267716534
          },
          {
            "duration": 0.06637162500000215,
            "durationTicks": 48,
            "midi": 70,
            "name": "A#4",
            "ticks": 81024,
            "time": 112.035303,
            "velocity": 0.29133858267716534
          },
          {
            "duration": 0.06637162500000215,
            "durationTicks": 48,
            "midi": 82,
            "name": "A#5",
            "ticks": 81120,
            "time": 112.16804625,
            "velocity": 0.29133858267716534
          },
          {
            "duration": 0.06637162500000215,
            "durationTicks": 48,
            "midi": 60,
            "name": "C4",
            "ticks": 81120,
            "time": 112.16804625,
            "velocity": 0.29133858267716534
          },
          {
            "duration": 0.06637162500000215,
            "durationTicks": 48,
            "midi": 39,
            "name": "D#2",
            "ticks": 81216,
            "time": 112.30078950000001,
            "velocity": 0.3937007874015748
          },
          {
            "duration": 0.06637162500000215,
            "durationTicks": 48,
            "midi": 36,
            "name": "C2",
            "ticks": 81216,
            "time": 112.30078950000001,
            "velocity": 0.3937007874015748
          },
          {
            "duration": 0.06637162500000215,
            "durationTicks": 48,
            "midi": 38,
            "name": "D2",
            "ticks": 81216,
            "time": 112.30078950000001,
            "velocity": 0.29133858267716534
          },
          {
            "duration": 0.06637162500000215,
            "durationTicks": 48,
            "midi": 42,
            "name": "F#2",
            "ticks": 81216,
            "time": 112.30078950000001,
            "velocity": 0.29133858267716534
          },
          {
            "duration": 0.06637162500000215,
            "durationTicks": 48,
            "midi": 60,
            "name": "C4",
            "ticks": 81216,
            "time": 112.30078950000001,
            "velocity": 0.29133858267716534
          },
          {
            "duration": 0.06637162499998794,
            "durationTicks": 48,
            "midi": 60,
            "name": "C4",
            "ticks": 81312,
            "time": 112.43353275000001,
            "velocity": 0.29133858267716534
          },
          {
            "duration": 0.06637162500000215,
            "durationTicks": 48,
            "midi": 42,
            "name": "F#2",
            "ticks": 81408,
            "time": 112.566276,
            "velocity": 0.3937007874015748
          },
          {
            "duration": 0.06637162500000215,
            "durationTicks": 48,
            "midi": 70,
            "name": "A#4",
            "ticks": 81408,
            "time": 112.566276,
            "velocity": 0.29133858267716534
          },
          {
            "duration": 0.06637162500000215,
            "durationTicks": 48,
            "midi": 63,
            "name": "D#4",
            "ticks": 81408,
            "time": 112.566276,
            "velocity": 0.29133858267716534
          },
          {
            "duration": 0.06637162500000215,
            "durationTicks": 48,
            "midi": 42,
            "name": "F#2",
            "ticks": 81504,
            "time": 112.69901925,
            "velocity": 0.3937007874015748
          },
          {
            "duration": 0.06637162500000215,
            "durationTicks": 48,
            "midi": 70,
            "name": "A#4",
            "ticks": 81504,
            "time": 112.69901925,
            "velocity": 0.29133858267716534
          },
          {
            "duration": 0.06637162500000215,
            "durationTicks": 48,
            "midi": 42,
            "name": "F#2",
            "ticks": 81600,
            "time": 112.83176250000001,
            "velocity": 0.29133858267716534
          },
          {
            "duration": 0.06637162500000215,
            "durationTicks": 48,
            "midi": 60,
            "name": "C4",
            "ticks": 81600,
            "time": 112.83176250000001,
            "velocity": 0.29133858267716534
          },
          {
            "duration": 0.06637162500000215,
            "durationTicks": 48,
            "midi": 36,
            "name": "C2",
            "ticks": 81600,
            "time": 112.83176250000001,
            "velocity": 0.3937007874015748
          },
          {
            "duration": 0.06637162500000215,
            "durationTicks": 48,
            "midi": 70,
            "name": "A#4",
            "ticks": 81792,
            "time": 113.097249,
            "velocity": 0.29133858267716534
          },
          {
            "duration": 0.06637162500000215,
            "durationTicks": 48,
            "midi": 46,
            "name": "A#2",
            "ticks": 81792,
            "time": 113.097249,
            "velocity": 0.29133858267716534
          },
          {
            "duration": 0.06637162500000215,
            "durationTicks": 48,
            "midi": 60,
            "name": "C4",
            "ticks": 81888,
            "time": 113.22999225000001,
            "velocity": 0.29133858267716534
          },
          {
            "duration": 0.06637162500000215,
            "durationTicks": 48,
            "midi": 42,
            "name": "F#2",
            "ticks": 81984,
            "time": 113.3627355,
            "velocity": 0.29133858267716534
          },
          {
            "duration": 0.06637162500000215,
            "durationTicks": 48,
            "midi": 60,
            "name": "C4",
            "ticks": 81984,
            "time": 113.3627355,
            "velocity": 0.29133858267716534
          },
          {
            "duration": 0.06637162500000215,
            "durationTicks": 48,
            "midi": 39,
            "name": "D#2",
            "ticks": 81984,
            "time": 113.3627355,
            "velocity": 0.3937007874015748
          },
          {
            "duration": 0.06637162500000215,
            "durationTicks": 48,
            "midi": 36,
            "name": "C2",
            "ticks": 81984,
            "time": 113.3627355,
            "velocity": 0.3937007874015748
          },
          {
            "duration": 0.06637162500000215,
            "durationTicks": 48,
            "midi": 38,
            "name": "D2",
            "ticks": 81984,
            "time": 113.3627355,
            "velocity": 0.29133858267716534
          },
          {
            "duration": 0.06637162500000215,
            "durationTicks": 48,
            "midi": 60,
            "name": "C4",
            "ticks": 82080,
            "time": 113.49547875,
            "velocity": 0.29133858267716534
          },
          {
            "duration": 0.06637162500000215,
            "durationTicks": 48,
            "midi": 63,
            "name": "D#4",
            "ticks": 82176,
            "time": 113.62822200000001,
            "velocity": 0.29133858267716534
          },
          {
            "duration": 0.06637162500000215,
            "durationTicks": 48,
            "midi": 70,
            "name": "A#4",
            "ticks": 82176,
            "time": 113.62822200000001,
            "velocity": 0.29133858267716534
          },
          {
            "duration": 0.06637162500000215,
            "durationTicks": 48,
            "midi": 46,
            "name": "A#2",
            "ticks": 82176,
            "time": 113.62822200000001,
            "velocity": 0.29133858267716534
          },
          {
            "duration": 0.06637162499998794,
            "durationTicks": 48,
            "midi": 70,
            "name": "A#4",
            "ticks": 82272,
            "time": 113.76096525000001,
            "velocity": 0.29133858267716534
          },
          {
            "duration": 0.06637162500000215,
            "durationTicks": 48,
            "midi": 36,
            "name": "C2",
            "ticks": 82368,
            "time": 113.8937085,
            "velocity": 0.3937007874015748
          },
          {
            "duration": 0.06637162500000215,
            "durationTicks": 48,
            "midi": 42,
            "name": "F#2",
            "ticks": 82368,
            "time": 113.8937085,
            "velocity": 0.29133858267716534
          },
          {
            "duration": 0.06637162500000215,
            "durationTicks": 48,
            "midi": 60,
            "name": "C4",
            "ticks": 82368,
            "time": 113.8937085,
            "velocity": 0.29133858267716534
          },
          {
            "duration": 0.06637162499998794,
            "durationTicks": 48,
            "midi": 46,
            "name": "A#2",
            "ticks": 82560,
            "time": 114.15919500000001,
            "velocity": 0.29133858267716534
          },
          {
            "duration": 0.06637162499998794,
            "durationTicks": 48,
            "midi": 70,
            "name": "A#4",
            "ticks": 82560,
            "time": 114.15919500000001,
            "velocity": 0.29133858267716534
          },
          {
            "duration": 0.06637162500000215,
            "durationTicks": 48,
            "midi": 60,
            "name": "C4",
            "ticks": 82656,
            "time": 114.29193825,
            "velocity": 0.29133858267716534
          },
          {
            "duration": 0.06637162500000215,
            "durationTicks": 48,
            "midi": 36,
            "name": "C2",
            "ticks": 82752,
            "time": 114.4246815,
            "velocity": 0.3937007874015748
          },
          {
            "duration": 0.06637162500000215,
            "durationTicks": 48,
            "midi": 38,
            "name": "D2",
            "ticks": 82752,
            "time": 114.4246815,
            "velocity": 0.29133858267716534
          },
          {
            "duration": 0.06637162500000215,
            "durationTicks": 48,
            "midi": 60,
            "name": "C4",
            "ticks": 82752,
            "time": 114.4246815,
            "velocity": 0.29133858267716534
          },
          {
            "duration": 0.06637162500000215,
            "durationTicks": 48,
            "midi": 42,
            "name": "F#2",
            "ticks": 82752,
            "time": 114.4246815,
            "velocity": 0.29133858267716534
          },
          {
            "duration": 0.06637162500000215,
            "durationTicks": 48,
            "midi": 39,
            "name": "D#2",
            "ticks": 82752,
            "time": 114.4246815,
            "velocity": 0.3937007874015748
          },
          {
            "duration": 0.06637162500000215,
            "durationTicks": 48,
            "midi": 60,
            "name": "C4",
            "ticks": 82848,
            "time": 114.55742475000001,
            "velocity": 0.29133858267716534
          },
          {
            "duration": 0.06637162500000215,
            "durationTicks": 48,
            "midi": 46,
            "name": "A#2",
            "ticks": 82944,
            "time": 114.690168,
            "velocity": 0.29133858267716534
          },
          {
            "duration": 0.06637162500000215,
            "durationTicks": 48,
            "midi": 70,
            "name": "A#4",
            "ticks": 82944,
            "time": 114.690168,
            "velocity": 0.29133858267716534
          },
          {
            "duration": 0.06637162500000215,
            "durationTicks": 48,
            "midi": 63,
            "name": "D#4",
            "ticks": 82944,
            "time": 114.690168,
            "velocity": 0.29133858267716534
          },
          {
            "duration": 0.06637162500000215,
            "durationTicks": 48,
            "midi": 70,
            "name": "A#4",
            "ticks": 83040,
            "time": 114.82291125,
            "velocity": 0.29133858267716534
          },
          {
            "duration": 0.06637162500000215,
            "durationTicks": 48,
            "midi": 60,
            "name": "C4",
            "ticks": 83136,
            "time": 114.95565450000001,
            "velocity": 0.29133858267716534
          },
          {
            "duration": 0.06637162500000215,
            "durationTicks": 48,
            "midi": 42,
            "name": "F#2",
            "ticks": 83136,
            "time": 114.95565450000001,
            "velocity": 0.29133858267716534
          },
          {
            "duration": 0.06637162500000215,
            "durationTicks": 48,
            "midi": 36,
            "name": "C2",
            "ticks": 83136,
            "time": 114.95565450000001,
            "velocity": 0.3937007874015748
          },
          {
            "duration": 0.06637162500000215,
            "durationTicks": 48,
            "midi": 70,
            "name": "A#4",
            "ticks": 83328,
            "time": 115.221141,
            "velocity": 0.29133858267716534
          },
          {
            "duration": 0.06637162500000215,
            "durationTicks": 48,
            "midi": 46,
            "name": "A#2",
            "ticks": 83328,
            "time": 115.221141,
            "velocity": 0.29133858267716534
          },
          {
            "duration": 0.06637162500000215,
            "durationTicks": 48,
            "midi": 60,
            "name": "C4",
            "ticks": 83424,
            "time": 115.35388425000001,
            "velocity": 0.29133858267716534
          },
          {
            "duration": 0.06637162499998794,
            "durationTicks": 48,
            "midi": 60,
            "name": "C4",
            "ticks": 83520,
            "time": 115.48662750000001,
            "velocity": 0.29133858267716534
          },
          {
            "duration": 0.06637162499998794,
            "durationTicks": 48,
            "midi": 39,
            "name": "D#2",
            "ticks": 83520,
            "time": 115.48662750000001,
            "velocity": 0.3937007874015748
          },
          {
            "duration": 0.06637162499998794,
            "durationTicks": 48,
            "midi": 42,
            "name": "F#2",
            "ticks": 83520,
            "time": 115.48662750000001,
            "velocity": 0.29133858267716534
          },
          {
            "duration": 0.06637162499998794,
            "durationTicks": 48,
            "midi": 38,
            "name": "D2",
            "ticks": 83520,
            "time": 115.48662750000001,
            "velocity": 0.29133858267716534
          },
          {
            "duration": 0.06637162499998794,
            "durationTicks": 48,
            "midi": 36,
            "name": "C2",
            "ticks": 83520,
            "time": 115.48662750000001,
            "velocity": 0.3937007874015748
          },
          {
            "duration": 0.06637162500000215,
            "durationTicks": 48,
            "midi": 60,
            "name": "C4",
            "ticks": 83616,
            "time": 115.61937075,
            "velocity": 0.29133858267716534
          },
          {
            "duration": 0.06637162500000215,
            "durationTicks": 48,
            "midi": 46,
            "name": "A#2",
            "ticks": 83712,
            "time": 115.752114,
            "velocity": 0.29133858267716534
          },
          {
            "duration": 0.06637162500000215,
            "durationTicks": 48,
            "midi": 63,
            "name": "D#4",
            "ticks": 83712,
            "time": 115.752114,
            "velocity": 0.29133858267716534
          },
          {
            "duration": 0.06637162500000215,
            "durationTicks": 48,
            "midi": 70,
            "name": "A#4",
            "ticks": 83712,
            "time": 115.752114,
            "velocity": 0.29133858267716534
          },
          {
            "duration": 0.06637162500000215,
            "durationTicks": 48,
            "midi": 70,
            "name": "A#4",
            "ticks": 83808,
            "time": 115.88485725000001,
            "velocity": 0.29133858267716534
          },
          {
            "duration": 0.06637162500000215,
            "durationTicks": 48,
            "midi": 36,
            "name": "C2",
            "ticks": 83904,
            "time": 116.0176005,
            "velocity": 0.3937007874015748
          },
          {
            "duration": 0.06637162500000215,
            "durationTicks": 48,
            "midi": 82,
            "name": "A#5",
            "ticks": 83904,
            "time": 116.0176005,
            "velocity": 0.29133858267716534
          },
          {
            "duration": 0.06637162500000215,
            "durationTicks": 48,
            "midi": 42,
            "name": "F#2",
            "ticks": 83904,
            "time": 116.0176005,
            "velocity": 0.29133858267716534
          },
          {
            "duration": 0.06637162500000215,
            "durationTicks": 48,
            "midi": 60,
            "name": "C4",
            "ticks": 83904,
            "time": 116.0176005,
            "velocity": 0.29133858267716534
          },
          {
            "duration": 0.06637162500000215,
            "durationTicks": 48,
            "midi": 82,
            "name": "A#5",
            "ticks": 84000,
            "time": 116.15034375,
            "velocity": 0.14173228346456693
          },
          {
            "duration": 0.06637162500000215,
            "durationTicks": 48,
            "midi": 82,
            "name": "A#5",
            "ticks": 84096,
            "time": 116.28308700000001,
            "velocity": 0.29133858267716534
          },
          {
            "duration": 0.06637162500000215,
            "durationTicks": 48,
            "midi": 46,
            "name": "A#2",
            "ticks": 84096,
            "time": 116.28308700000001,
            "velocity": 0.29133858267716534
          },
          {
            "duration": 0.06637162500000215,
            "durationTicks": 48,
            "midi": 70,
            "name": "A#4",
            "ticks": 84096,
            "time": 116.28308700000001,
            "velocity": 0.29133858267716534
          },
          {
            "duration": 0.06637162499998794,
            "durationTicks": 48,
            "midi": 82,
            "name": "A#5",
            "ticks": 84192,
            "time": 116.41583025000001,
            "velocity": 0.29133858267716534
          },
          {
            "duration": 0.06637162499998794,
            "durationTicks": 48,
            "midi": 60,
            "name": "C4",
            "ticks": 84192,
            "time": 116.41583025000001,
            "velocity": 0.29133858267716534
          },
          {
            "duration": 0.06637162500000215,
            "durationTicks": 48,
            "midi": 36,
            "name": "C2",
            "ticks": 84288,
            "time": 116.5485735,
            "velocity": 0.3937007874015748
          },
          {
            "duration": 0.06637162500000215,
            "durationTicks": 48,
            "midi": 39,
            "name": "D#2",
            "ticks": 84288,
            "time": 116.5485735,
            "velocity": 0.3937007874015748
          },
          {
            "duration": 0.06637162500000215,
            "durationTicks": 48,
            "midi": 60,
            "name": "C4",
            "ticks": 84288,
            "time": 116.5485735,
            "velocity": 0.29133858267716534
          },
          {
            "duration": 0.06637162500000215,
            "durationTicks": 48,
            "midi": 38,
            "name": "D2",
            "ticks": 84288,
            "time": 116.5485735,
            "velocity": 0.29133858267716534
          },
          {
            "duration": 0.06637162500000215,
            "durationTicks": 48,
            "midi": 42,
            "name": "F#2",
            "ticks": 84288,
            "time": 116.5485735,
            "velocity": 0.29133858267716534
          },
          {
            "duration": 0.06637162500000215,
            "durationTicks": 48,
            "midi": 60,
            "name": "C4",
            "ticks": 84384,
            "time": 116.68131675000001,
            "velocity": 0.29133858267716534
          },
          {
            "duration": 0.06637162499998794,
            "durationTicks": 48,
            "midi": 42,
            "name": "F#2",
            "ticks": 84480,
            "time": 116.81406000000001,
            "velocity": 0.3937007874015748
          },
          {
            "duration": 0.06637162499998794,
            "durationTicks": 48,
            "midi": 63,
            "name": "D#4",
            "ticks": 84480,
            "time": 116.81406000000001,
            "velocity": 0.29133858267716534
          },
          {
            "duration": 0.06637162499998794,
            "durationTicks": 48,
            "midi": 70,
            "name": "A#4",
            "ticks": 84480,
            "time": 116.81406000000001,
            "velocity": 0.29133858267716534
          },
          {
            "duration": 0.06637162500000215,
            "durationTicks": 48,
            "midi": 42,
            "name": "F#2",
            "ticks": 84576,
            "time": 116.94680325,
            "velocity": 0.3937007874015748
          },
          {
            "duration": 0.06637162500000215,
            "durationTicks": 48,
            "midi": 70,
            "name": "A#4",
            "ticks": 84576,
            "time": 116.94680325,
            "velocity": 0.29133858267716534
          },
          {
            "duration": 0.06637162500000215,
            "durationTicks": 48,
            "midi": 42,
            "name": "F#2",
            "ticks": 84672,
            "time": 117.0795465,
            "velocity": 0.29133858267716534
          },
          {
            "duration": 0.06637162500000215,
            "durationTicks": 48,
            "midi": 60,
            "name": "C4",
            "ticks": 84672,
            "time": 117.0795465,
            "velocity": 0.29133858267716534
          },
          {
            "duration": 0.06637162500000215,
            "durationTicks": 48,
            "midi": 36,
            "name": "C2",
            "ticks": 84672,
            "time": 117.0795465,
            "velocity": 0.3937007874015748
          },
          {
            "duration": 0.06637162500000215,
            "durationTicks": 48,
            "midi": 70,
            "name": "A#4",
            "ticks": 84864,
            "time": 117.345033,
            "velocity": 0.29133858267716534
          },
          {
            "duration": 0.06637162500000215,
            "durationTicks": 48,
            "midi": 46,
            "name": "A#2",
            "ticks": 84864,
            "time": 117.345033,
            "velocity": 0.29133858267716534
          },
          {
            "duration": 0.06637162500000215,
            "durationTicks": 48,
            "midi": 60,
            "name": "C4",
            "ticks": 84960,
            "time": 117.47777625,
            "velocity": 0.29133858267716534
          },
          {
            "duration": 0.06637162500000215,
            "durationTicks": 48,
            "midi": 60,
            "name": "C4",
            "ticks": 85056,
            "time": 117.61051950000001,
            "velocity": 0.29133858267716534
          },
          {
            "duration": 0.06637162500000215,
            "durationTicks": 48,
            "midi": 39,
            "name": "D#2",
            "ticks": 85056,
            "time": 117.61051950000001,
            "velocity": 0.3937007874015748
          },
          {
            "duration": 0.06637162500000215,
            "durationTicks": 48,
            "midi": 42,
            "name": "F#2",
            "ticks": 85056,
            "time": 117.61051950000001,
            "velocity": 0.29133858267716534
          },
          {
            "duration": 0.06637162500000215,
            "durationTicks": 48,
            "midi": 36,
            "name": "C2",
            "ticks": 85056,
            "time": 117.61051950000001,
            "velocity": 0.3937007874015748
          },
          {
            "duration": 0.06637162500000215,
            "durationTicks": 48,
            "midi": 38,
            "name": "D2",
            "ticks": 85056,
            "time": 117.61051950000001,
            "velocity": 0.29133858267716534
          },
          {
            "duration": 0.06637162500000215,
            "durationTicks": 48,
            "midi": 60,
            "name": "C4",
            "ticks": 85152,
            "time": 117.74326275,
            "velocity": 0.29133858267716534
          },
          {
            "duration": 0.06637162500000215,
            "durationTicks": 48,
            "midi": 63,
            "name": "D#4",
            "ticks": 85248,
            "time": 117.876006,
            "velocity": 0.29133858267716534
          },
          {
            "duration": 0.06637162500000215,
            "durationTicks": 48,
            "midi": 70,
            "name": "A#4",
            "ticks": 85248,
            "time": 117.876006,
            "velocity": 0.29133858267716534
          },
          {
            "duration": 0.06637162500000215,
            "durationTicks": 48,
            "midi": 46,
            "name": "A#2",
            "ticks": 85248,
            "time": 117.876006,
            "velocity": 0.29133858267716534
          },
          {
            "duration": 0.06637162500000215,
            "durationTicks": 48,
            "midi": 70,
            "name": "A#4",
            "ticks": 85344,
            "time": 118.00874925000001,
            "velocity": 0.29133858267716534
          },
          {
            "duration": 0.06637162499998794,
            "durationTicks": 48,
            "midi": 60,
            "name": "C4",
            "ticks": 85440,
            "time": 118.14149250000001,
            "velocity": 0.29133858267716534
          },
          {
            "duration": 0.06637162499998794,
            "durationTicks": 48,
            "midi": 42,
            "name": "F#2",
            "ticks": 85440,
            "time": 118.14149250000001,
            "velocity": 0.29133858267716534
          },
          {
            "duration": 0.06637162499998794,
            "durationTicks": 48,
            "midi": 36,
            "name": "C2",
            "ticks": 85440,
            "time": 118.14149250000001,
            "velocity": 0.3937007874015748
          },
          {
            "duration": 0.06637162500000215,
            "durationTicks": 48,
            "midi": 70,
            "name": "A#4",
            "ticks": 85632,
            "time": 118.406979,
            "velocity": 0.29133858267716534
          },
          {
            "duration": 0.06637162500000215,
            "durationTicks": 48,
            "midi": 46,
            "name": "A#2",
            "ticks": 85632,
            "time": 118.406979,
            "velocity": 0.29133858267716534
          },
          {
            "duration": 0.06637162500000215,
            "durationTicks": 48,
            "midi": 60,
            "name": "C4",
            "ticks": 85728,
            "time": 118.53972225000001,
            "velocity": 0.29133858267716534
          },
          {
            "duration": 0.06637162500000215,
            "durationTicks": 48,
            "midi": 60,
            "name": "C4",
            "ticks": 85824,
            "time": 118.6724655,
            "velocity": 0.29133858267716534
          },
          {
            "duration": 0.06637162500000215,
            "durationTicks": 48,
            "midi": 42,
            "name": "F#2",
            "ticks": 85824,
            "time": 118.6724655,
            "velocity": 0.29133858267716534
          },
          {
            "duration": 0.06637162500000215,
            "durationTicks": 48,
            "midi": 38,
            "name": "D2",
            "ticks": 85824,
            "time": 118.6724655,
            "velocity": 0.29133858267716534
          },
          {
            "duration": 0.06637162500000215,
            "durationTicks": 48,
            "midi": 39,
            "name": "D#2",
            "ticks": 85824,
            "time": 118.6724655,
            "velocity": 0.3937007874015748
          },
          {
            "duration": 0.06637162500000215,
            "durationTicks": 48,
            "midi": 36,
            "name": "C2",
            "ticks": 85824,
            "time": 118.6724655,
            "velocity": 0.3937007874015748
          },
          {
            "duration": 0.06637162500000215,
            "durationTicks": 48,
            "midi": 60,
            "name": "C4",
            "ticks": 85920,
            "time": 118.80520875,
            "velocity": 0.29133858267716534
          },
          {
            "duration": 0.06637162500000215,
            "durationTicks": 48,
            "midi": 46,
            "name": "A#2",
            "ticks": 86016,
            "time": 118.93795200000001,
            "velocity": 0.29133858267716534
          },
          {
            "duration": 0.06637162500000215,
            "durationTicks": 48,
            "midi": 70,
            "name": "A#4",
            "ticks": 86016,
            "time": 118.93795200000001,
            "velocity": 0.29133858267716534
          },
          {
            "duration": 0.06637162500000215,
            "durationTicks": 48,
            "midi": 63,
            "name": "D#4",
            "ticks": 86016,
            "time": 118.93795200000001,
            "velocity": 0.29133858267716534
          },
          {
            "duration": 0.06637162500000215,
            "durationTicks": 48,
            "midi": 70,
            "name": "A#4",
            "ticks": 86112,
            "time": 119.07069525,
            "velocity": 0.29133858267716534
          },
          {
            "duration": 0.06637162500000215,
            "durationTicks": 48,
            "midi": 36,
            "name": "C2",
            "ticks": 86208,
            "time": 119.2034385,
            "velocity": 0.3937007874015748
          },
          {
            "duration": 0.06637162500000215,
            "durationTicks": 48,
            "midi": 42,
            "name": "F#2",
            "ticks": 86208,
            "time": 119.2034385,
            "velocity": 0.29133858267716534
          },
          {
            "duration": 0.06637162500000215,
            "durationTicks": 48,
            "midi": 60,
            "name": "C4",
            "ticks": 86208,
            "time": 119.2034385,
            "velocity": 0.29133858267716534
          },
          {
            "duration": 0.06637162499998794,
            "durationTicks": 48,
            "midi": 46,
            "name": "A#2",
            "ticks": 86400,
            "time": 119.46892500000001,
            "velocity": 0.29133858267716534
          },
          {
            "duration": 0.06637162499998794,
            "durationTicks": 48,
            "midi": 70,
            "name": "A#4",
            "ticks": 86400,
            "time": 119.46892500000001,
            "velocity": 0.29133858267716534
          },
          {
            "duration": 0.06637162500000215,
            "durationTicks": 48,
            "midi": 60,
            "name": "C4",
            "ticks": 86496,
            "time": 119.60166825,
            "velocity": 0.29133858267716534
          },
          {
            "duration": 0.06637162500000215,
            "durationTicks": 48,
            "midi": 60,
            "name": "C4",
            "ticks": 86592,
            "time": 119.73441150000001,
            "velocity": 0.29133858267716534
          },
          {
            "duration": 0.06637162500000215,
            "durationTicks": 48,
            "midi": 38,
            "name": "D2",
            "ticks": 86592,
            "time": 119.73441150000001,
            "velocity": 0.29133858267716534
          },
          {
            "duration": 0.06637162500000215,
            "durationTicks": 48,
            "midi": 39,
            "name": "D#2",
            "ticks": 86592,
            "time": 119.73441150000001,
            "velocity": 0.3937007874015748
          },
          {
            "duration": 0.06637162500000215,
            "durationTicks": 48,
            "midi": 36,
            "name": "C2",
            "ticks": 86592,
            "time": 119.73441150000001,
            "velocity": 0.3937007874015748
          },
          {
            "duration": 0.06637162500000215,
            "durationTicks": 48,
            "midi": 42,
            "name": "F#2",
            "ticks": 86592,
            "time": 119.73441150000001,
            "velocity": 0.29133858267716534
          },
          {
            "duration": 0.06637162499998794,
            "durationTicks": 48,
            "midi": 60,
            "name": "C4",
            "ticks": 86688,
            "time": 119.86715475000001,
            "velocity": 0.29133858267716534
          },
          {
            "duration": 0.06637162500000215,
            "durationTicks": 48,
            "midi": 46,
            "name": "A#2",
            "ticks": 86784,
            "time": 119.999898,
            "velocity": 0.29133858267716534
          },
          {
            "duration": 0.06637162500000215,
            "durationTicks": 48,
            "midi": 63,
            "name": "D#4",
            "ticks": 86784,
            "time": 119.999898,
            "velocity": 0.29133858267716534
          },
          {
            "duration": 0.06637162500000215,
            "durationTicks": 48,
            "midi": 70,
            "name": "A#4",
            "ticks": 86784,
            "time": 119.999898,
            "velocity": 0.29133858267716534
          },
          {
            "duration": 0.06637162500000215,
            "durationTicks": 48,
            "midi": 70,
            "name": "A#4",
            "ticks": 86880,
            "time": 120.13264125,
            "velocity": 0.29133858267716534
          },
          {
            "duration": 0.06637162500000215,
            "durationTicks": 48,
            "midi": 36,
            "name": "C2",
            "ticks": 86976,
            "time": 120.26538450000001,
            "velocity": 0.3937007874015748
          },
          {
            "duration": 0.06637162500000215,
            "durationTicks": 48,
            "midi": 60,
            "name": "C4",
            "ticks": 86976,
            "time": 120.26538450000001,
            "velocity": 0.29133858267716534
          },
          {
            "duration": 0.06637162500000215,
            "durationTicks": 48,
            "midi": 42,
            "name": "F#2",
            "ticks": 86976,
            "time": 120.26538450000001,
            "velocity": 0.29133858267716534
          },
          {
            "duration": 0.06637162500000215,
            "durationTicks": 48,
            "midi": 82,
            "name": "A#5",
            "ticks": 86976,
            "time": 120.26538450000001,
            "velocity": 0.29133858267716534
          },
          {
            "duration": 0.06637162500000215,
            "durationTicks": 48,
            "midi": 82,
            "name": "A#5",
            "ticks": 87072,
            "time": 120.39812775,
            "velocity": 0.14173228346456693
          },
          {
            "duration": 0.06637162500000215,
            "durationTicks": 48,
            "midi": 82,
            "name": "A#5",
            "ticks": 87168,
            "time": 120.530871,
            "velocity": 0.29133858267716534
          },
          {
            "duration": 0.06637162500000215,
            "durationTicks": 48,
            "midi": 46,
            "name": "A#2",
            "ticks": 87168,
            "time": 120.530871,
            "velocity": 0.29133858267716534
          },
          {
            "duration": 0.06637162500000215,
            "durationTicks": 48,
            "midi": 70,
            "name": "A#4",
            "ticks": 87168,
            "time": 120.530871,
            "velocity": 0.29133858267716534
          },
          {
            "duration": 0.06637162500000215,
            "durationTicks": 48,
            "midi": 82,
            "name": "A#5",
            "ticks": 87264,
            "time": 120.66361425000001,
            "velocity": 0.29133858267716534
          },
          {
            "duration": 0.06637162500000215,
            "durationTicks": 48,
            "midi": 60,
            "name": "C4",
            "ticks": 87264,
            "time": 120.66361425000001,
            "velocity": 0.29133858267716534
          },
          {
            "duration": 0.06637162499998794,
            "durationTicks": 48,
            "midi": 36,
            "name": "C2",
            "ticks": 87360,
            "time": 120.79635750000001,
            "velocity": 0.3937007874015748
          },
          {
            "duration": 0.06637162499998794,
            "durationTicks": 48,
            "midi": 60,
            "name": "C4",
            "ticks": 87360,
            "time": 120.79635750000001,
            "velocity": 0.29133858267716534
          },
          {
            "duration": 0.06637162499998794,
            "durationTicks": 48,
            "midi": 38,
            "name": "D2",
            "ticks": 87360,
            "time": 120.79635750000001,
            "velocity": 0.29133858267716534
          },
          {
            "duration": 0.06637162499998794,
            "durationTicks": 48,
            "midi": 39,
            "name": "D#2",
            "ticks": 87360,
            "time": 120.79635750000001,
            "velocity": 0.3937007874015748
          },
          {
            "duration": 0.06637162499998794,
            "durationTicks": 48,
            "midi": 42,
            "name": "F#2",
            "ticks": 87360,
            "time": 120.79635750000001,
            "velocity": 0.29133858267716534
          },
          {
            "duration": 0.06637162500000215,
            "durationTicks": 48,
            "midi": 60,
            "name": "C4",
            "ticks": 87456,
            "time": 120.92910075,
            "velocity": 0.29133858267716534
          },
          {
            "duration": 0.06637162500000215,
            "durationTicks": 48,
            "midi": 42,
            "name": "F#2",
            "ticks": 87552,
            "time": 121.06184400000001,
            "velocity": 0.3937007874015748
          },
          {
            "duration": 0.06637162500000215,
            "durationTicks": 48,
            "midi": 70,
            "name": "A#4",
            "ticks": 87552,
            "time": 121.06184400000001,
            "velocity": 0.29133858267716534
          },
          {
            "duration": 0.06637162500000215,
            "durationTicks": 48,
            "midi": 63,
            "name": "D#4",
            "ticks": 87552,
            "time": 121.06184400000001,
            "velocity": 0.29133858267716534
          },
          {
            "duration": 0.06637162499998794,
            "durationTicks": 48,
            "midi": 70,
            "name": "A#4",
            "ticks": 87648,
            "time": 121.19458725000001,
            "velocity": 0.29133858267716534
          },
          {
            "duration": 0.06637162499998794,
            "durationTicks": 48,
            "midi": 42,
            "name": "F#2",
            "ticks": 87648,
            "time": 121.19458725000001,
            "velocity": 0.3937007874015748
          },
          {
            "duration": 0.06637162500000215,
            "durationTicks": 48,
            "midi": 42,
            "name": "F#2",
            "ticks": 87744,
            "time": 121.3273305,
            "velocity": 0.29133858267716534
          },
          {
            "duration": 0.06637162500000215,
            "durationTicks": 48,
            "midi": 60,
            "name": "C4",
            "ticks": 87744,
            "time": 121.3273305,
            "velocity": 0.29133858267716534
          },
          {
            "duration": 0.06637162500000215,
            "durationTicks": 48,
            "midi": 36,
            "name": "C2",
            "ticks": 87744,
            "time": 121.3273305,
            "velocity": 0.3937007874015748
          },
          {
            "duration": 0.06637162500000215,
            "durationTicks": 48,
            "midi": 46,
            "name": "A#2",
            "ticks": 87936,
            "time": 121.59281700000001,
            "velocity": 0.29133858267716534
          },
          {
            "duration": 0.06637162500000215,
            "durationTicks": 48,
            "midi": 70,
            "name": "A#4",
            "ticks": 87936,
            "time": 121.59281700000001,
            "velocity": 0.29133858267716534
          },
          {
            "duration": 0.06637162500000215,
            "durationTicks": 48,
            "midi": 60,
            "name": "C4",
            "ticks": 88032,
            "time": 121.72556025,
            "velocity": 0.29133858267716534
          },
          {
            "duration": 0.06637162500000215,
            "durationTicks": 48,
            "midi": 60,
            "name": "C4",
            "ticks": 88128,
            "time": 121.8583035,
            "velocity": 0.29133858267716534
          },
          {
            "duration": 0.06637162500000215,
            "durationTicks": 48,
            "midi": 42,
            "name": "F#2",
            "ticks": 88128,
            "time": 121.8583035,
            "velocity": 0.29133858267716534
          },
          {
            "duration": 0.06637162500000215,
            "durationTicks": 48,
            "midi": 39,
            "name": "D#2",
            "ticks": 88128,
            "time": 121.8583035,
            "velocity": 0.3937007874015748
          },
          {
            "duration": 0.06637162500000215,
            "durationTicks": 48,
            "midi": 36,
            "name": "C2",
            "ticks": 88128,
            "time": 121.8583035,
            "velocity": 0.3937007874015748
          },
          {
            "duration": 0.06637162500000215,
            "durationTicks": 48,
            "midi": 38,
            "name": "D2",
            "ticks": 88128,
            "time": 121.8583035,
            "velocity": 0.29133858267716534
          },
          {
            "duration": 0.06637162500000215,
            "durationTicks": 48,
            "midi": 60,
            "name": "C4",
            "ticks": 88224,
            "time": 121.99104675000001,
            "velocity": 0.29133858267716534
          },
          {
            "duration": 0.06637162500000215,
            "durationTicks": 48,
            "midi": 46,
            "name": "A#2",
            "ticks": 88320,
            "time": 122.12379,
            "velocity": 0.29133858267716534
          },
          {
            "duration": 0.06637162500000215,
            "durationTicks": 48,
            "midi": 63,
            "name": "D#4",
            "ticks": 88320,
            "time": 122.12379,
            "velocity": 0.29133858267716534
          },
          {
            "duration": 0.06637162500000215,
            "durationTicks": 48,
            "midi": 70,
            "name": "A#4",
            "ticks": 88320,
            "time": 122.12379,
            "velocity": 0.29133858267716534
          },
          {
            "duration": 0.06637162500000215,
            "durationTicks": 48,
            "midi": 70,
            "name": "A#4",
            "ticks": 88416,
            "time": 122.25653325,
            "velocity": 0.29133858267716534
          },
          {
            "duration": 0.06637162500000215,
            "durationTicks": 48,
            "midi": 42,
            "name": "F#2",
            "ticks": 88512,
            "time": 122.38927650000001,
            "velocity": 0.29133858267716534
          },
          {
            "duration": 0.06637162500000215,
            "durationTicks": 48,
            "midi": 36,
            "name": "C2",
            "ticks": 88512,
            "time": 122.38927650000001,
            "velocity": 0.3937007874015748
          },
          {
            "duration": 0.06637162500000215,
            "durationTicks": 48,
            "midi": 60,
            "name": "C4",
            "ticks": 88512,
            "time": 122.38927650000001,
            "velocity": 0.29133858267716534
          },
          {
            "duration": 0.06637162500000215,
            "durationTicks": 48,
            "midi": 46,
            "name": "A#2",
            "ticks": 88704,
            "time": 122.654763,
            "velocity": 0.29133858267716534
          },
          {
            "duration": 0.06637162500000215,
            "durationTicks": 48,
            "midi": 70,
            "name": "A#4",
            "ticks": 88704,
            "time": 122.654763,
            "velocity": 0.29133858267716534
          },
          {
            "duration": 0.06637162500000215,
            "durationTicks": 48,
            "midi": 60,
            "name": "C4",
            "ticks": 88800,
            "time": 122.78750625,
            "velocity": 0.29133858267716534
          },
          {
            "duration": 0.06637162500000215,
            "durationTicks": 48,
            "midi": 60,
            "name": "C4",
            "ticks": 88896,
            "time": 122.92024950000001,
            "velocity": 0.29133858267716534
          },
          {
            "duration": 0.06637162500000215,
            "durationTicks": 48,
            "midi": 36,
            "name": "C2",
            "ticks": 88896,
            "time": 122.92024950000001,
            "velocity": 0.3937007874015748
          },
          {
            "duration": 0.06637162500000215,
            "durationTicks": 48,
            "midi": 42,
            "name": "F#2",
            "ticks": 88896,
            "time": 122.92024950000001,
            "velocity": 0.29133858267716534
          },
          {
            "duration": 0.06637162500000215,
            "durationTicks": 48,
            "midi": 38,
            "name": "D2",
            "ticks": 88896,
            "time": 122.92024950000001,
            "velocity": 0.29133858267716534
          },
          {
            "duration": 0.06637162500000215,
            "durationTicks": 48,
            "midi": 39,
            "name": "D#2",
            "ticks": 88896,
            "time": 122.92024950000001,
            "velocity": 0.3937007874015748
          },
          {
            "duration": 0.06637162500000215,
            "durationTicks": 48,
            "midi": 60,
            "name": "C4",
            "ticks": 88992,
            "time": 123.05299275,
            "velocity": 0.29133858267716534
          },
          {
            "duration": 0.06637162500000215,
            "durationTicks": 48,
            "midi": 46,
            "name": "A#2",
            "ticks": 89088,
            "time": 123.185736,
            "velocity": 0.29133858267716534
          },
          {
            "duration": 0.06637162500000215,
            "durationTicks": 48,
            "midi": 70,
            "name": "A#4",
            "ticks": 89088,
            "time": 123.185736,
            "velocity": 0.29133858267716534
          },
          {
            "duration": 0.06637162500000215,
            "durationTicks": 48,
            "midi": 63,
            "name": "D#4",
            "ticks": 89088,
            "time": 123.185736,
            "velocity": 0.29133858267716534
          },
          {
            "duration": 0.06637162500000215,
            "durationTicks": 48,
            "midi": 70,
            "name": "A#4",
            "ticks": 89184,
            "time": 123.31847925000001,
            "velocity": 0.29133858267716534
          },
          {
            "duration": 0.06637162500000215,
            "durationTicks": 48,
            "midi": 60,
            "name": "C4",
            "ticks": 89280,
            "time": 123.4512225,
            "velocity": 0.29133858267716534
          },
          {
            "duration": 0.06637162500000215,
            "durationTicks": 48,
            "midi": 36,
            "name": "C2",
            "ticks": 89280,
            "time": 123.4512225,
            "velocity": 0.3937007874015748
          },
          {
            "duration": 0.06637162500000215,
            "durationTicks": 48,
            "midi": 42,
            "name": "F#2",
            "ticks": 89280,
            "time": 123.4512225,
            "velocity": 0.29133858267716534
          },
          {
            "duration": 0.06637162500000215,
            "durationTicks": 48,
            "midi": 46,
            "name": "A#2",
            "ticks": 89472,
            "time": 123.71670900000001,
            "velocity": 0.29133858267716534
          },
          {
            "duration": 0.06637162500000215,
            "durationTicks": 48,
            "midi": 70,
            "name": "A#4",
            "ticks": 89472,
            "time": 123.71670900000001,
            "velocity": 0.29133858267716534
          },
          {
            "duration": 0.06637162499998794,
            "durationTicks": 48,
            "midi": 60,
            "name": "C4",
            "ticks": 89568,
            "time": 123.84945225000001,
            "velocity": 0.29133858267716534
          },
          {
            "duration": 0.06637162500000215,
            "durationTicks": 48,
            "midi": 39,
            "name": "D#2",
            "ticks": 89664,
            "time": 123.9821955,
            "velocity": 0.3937007874015748
          },
          {
            "duration": 0.06637162500000215,
            "durationTicks": 48,
            "midi": 38,
            "name": "D2",
            "ticks": 89664,
            "time": 123.9821955,
            "velocity": 0.29133858267716534
          },
          {
            "duration": 0.06637162500000215,
            "durationTicks": 48,
            "midi": 36,
            "name": "C2",
            "ticks": 89664,
            "time": 123.9821955,
            "velocity": 0.3937007874015748
          },
          {
            "duration": 0.06637162500000215,
            "durationTicks": 48,
            "midi": 60,
            "name": "C4",
            "ticks": 89664,
            "time": 123.9821955,
            "velocity": 0.29133858267716534
          },
          {
            "duration": 0.06637162500000215,
            "durationTicks": 48,
            "midi": 42,
            "name": "F#2",
            "ticks": 89664,
            "time": 123.9821955,
            "velocity": 0.29133858267716534
          },
          {
            "duration": 0.06637162500000215,
            "durationTicks": 48,
            "midi": 60,
            "name": "C4",
            "ticks": 89760,
            "time": 124.11493875000001,
            "velocity": 0.29133858267716534
          },
          {
            "duration": 0.06637162499998794,
            "durationTicks": 48,
            "midi": 70,
            "name": "A#4",
            "ticks": 89856,
            "time": 124.24768200000001,
            "velocity": 0.29133858267716534
          },
          {
            "duration": 0.06637162499998794,
            "durationTicks": 48,
            "midi": 46,
            "name": "A#2",
            "ticks": 89856,
            "time": 124.24768200000001,
            "velocity": 0.29133858267716534
          },
          {
            "duration": 0.06637162499998794,
            "durationTicks": 48,
            "midi": 63,
            "name": "D#4",
            "ticks": 89856,
            "time": 124.24768200000001,
            "velocity": 0.29133858267716534
          },
          {
            "duration": 0.06637162500000215,
            "durationTicks": 48,
            "midi": 70,
            "name": "A#4",
            "ticks": 89952,
            "time": 124.38042525,
            "velocity": 0.29133858267716534
          },
          {
            "duration": 0.06637162500000215,
            "durationTicks": 48,
            "midi": 42,
            "name": "F#2",
            "ticks": 90048,
            "time": 124.5131685,
            "velocity": 0.29133858267716534
          },
          {
            "duration": 0.06637162500000215,
            "durationTicks": 48,
            "midi": 36,
            "name": "C2",
            "ticks": 90048,
            "time": 124.5131685,
            "velocity": 0.3937007874015748
          },
          {
            "duration": 0.06637162500000215,
            "durationTicks": 48,
            "midi": 60,
            "name": "C4",
            "ticks": 90048,
            "time": 124.5131685,
            "velocity": 0.29133858267716534
          },
          {
            "duration": 0.06637162500000215,
            "durationTicks": 48,
            "midi": 82,
            "name": "A#5",
            "ticks": 90048,
            "time": 124.5131685,
            "velocity": 0.29133858267716534
          },
          {
            "duration": 0.06637162500000215,
            "durationTicks": 48,
            "midi": 82,
            "name": "A#5",
            "ticks": 90144,
            "time": 124.64591175000001,
            "velocity": 0.14173228346456693
          },
          {
            "duration": 0.06637162500000215,
            "durationTicks": 48,
            "midi": 46,
            "name": "A#2",
            "ticks": 90240,
            "time": 124.778655,
            "velocity": 0.29133858267716534
          },
          {
            "duration": 0.06637162500000215,
            "durationTicks": 48,
            "midi": 70,
            "name": "A#4",
            "ticks": 90240,
            "time": 124.778655,
            "velocity": 0.29133858267716534
          },
          {
            "duration": 0.06637162500000215,
            "durationTicks": 48,
            "midi": 82,
            "name": "A#5",
            "ticks": 90240,
            "time": 124.778655,
            "velocity": 0.29133858267716534
          },
          {
            "duration": 0.06637162500000215,
            "durationTicks": 48,
            "midi": 82,
            "name": "A#5",
            "ticks": 90336,
            "time": 124.91139825,
            "velocity": 0.29133858267716534
          },
          {
            "duration": 0.06637162500000215,
            "durationTicks": 48,
            "midi": 60,
            "name": "C4",
            "ticks": 90336,
            "time": 124.91139825,
            "velocity": 0.29133858267716534
          },
          {
            "duration": 0.06637162500000215,
            "durationTicks": 48,
            "midi": 60,
            "name": "C4",
            "ticks": 90432,
            "time": 125.04414150000001,
            "velocity": 0.29133858267716534
          },
          {
            "duration": 0.06637162500000215,
            "durationTicks": 48,
            "midi": 42,
            "name": "F#2",
            "ticks": 90432,
            "time": 125.04414150000001,
            "velocity": 0.29133858267716534
          },
          {
            "duration": 0.06637162500000215,
            "durationTicks": 48,
            "midi": 38,
            "name": "D2",
            "ticks": 90432,
            "time": 125.04414150000001,
            "velocity": 0.29133858267716534
          },
          {
            "duration": 0.06637162500000215,
            "durationTicks": 48,
            "midi": 39,
            "name": "D#2",
            "ticks": 90432,
            "time": 125.04414150000001,
            "velocity": 0.3937007874015748
          },
          {
            "duration": 0.06637162500000215,
            "durationTicks": 48,
            "midi": 36,
            "name": "C2",
            "ticks": 90432,
            "time": 125.04414150000001,
            "velocity": 0.3937007874015748
          },
          {
            "duration": 0.06637162499998794,
            "durationTicks": 48,
            "midi": 60,
            "name": "C4",
            "ticks": 90528,
            "time": 125.17688475000001,
            "velocity": 0.29133858267716534
          },
          {
            "duration": 0.06637162500000215,
            "durationTicks": 48,
            "midi": 70,
            "name": "A#4",
            "ticks": 90624,
            "time": 125.309628,
            "velocity": 0.29133858267716534
          },
          {
            "duration": 0.06637162500000215,
            "durationTicks": 48,
            "midi": 42,
            "name": "F#2",
            "ticks": 90624,
            "time": 125.309628,
            "velocity": 0.3937007874015748
          },
          {
            "duration": 0.06637162500000215,
            "durationTicks": 48,
            "midi": 63,
            "name": "D#4",
            "ticks": 90624,
            "time": 125.309628,
            "velocity": 0.29133858267716534
          },
          {
            "duration": 0.06637162500000215,
            "durationTicks": 48,
            "midi": 42,
            "name": "F#2",
            "ticks": 90720,
            "time": 125.44237125000001,
            "velocity": 0.3937007874015748
          },
          {
            "duration": 0.06637162500000215,
            "durationTicks": 48,
            "midi": 70,
            "name": "A#4",
            "ticks": 90720,
            "time": 125.44237125000001,
            "velocity": 0.29133858267716534
          },
          {
            "duration": 0.06637162499998794,
            "durationTicks": 48,
            "midi": 60,
            "name": "C4",
            "ticks": 90816,
            "time": 125.57511450000001,
            "velocity": 0.29133858267716534
          },
          {
            "duration": 0.06637162499998794,
            "durationTicks": 48,
            "midi": 36,
            "name": "C2",
            "ticks": 90816,
            "time": 125.57511450000001,
            "velocity": 0.3937007874015748
          },
          {
            "duration": 0.06637162499998794,
            "durationTicks": 48,
            "midi": 42,
            "name": "F#2",
            "ticks": 90816,
            "time": 125.57511450000001,
            "velocity": 0.29133858267716534
          },
          {
            "duration": 0.06637162500000215,
            "durationTicks": 48,
            "midi": 70,
            "name": "A#4",
            "ticks": 91008,
            "time": 125.840601,
            "velocity": 0.29133858267716534
          },
          {
            "duration": 0.06637162500000215,
            "durationTicks": 48,
            "midi": 46,
            "name": "A#2",
            "ticks": 91008,
            "time": 125.840601,
            "velocity": 0.29133858267716534
          },
          {
            "duration": 0.06637162500000215,
            "durationTicks": 48,
            "midi": 60,
            "name": "C4",
            "ticks": 91104,
            "time": 125.97334425000001,
            "velocity": 0.29133858267716534
          },
          {
            "duration": 0.06637162500000215,
            "durationTicks": 48,
            "midi": 42,
            "name": "F#2",
            "ticks": 91200,
            "time": 126.1060875,
            "velocity": 0.29133858267716534
          },
          {
            "duration": 0.06637162500000215,
            "durationTicks": 48,
            "midi": 38,
            "name": "D2",
            "ticks": 91200,
            "time": 126.1060875,
            "velocity": 0.29133858267716534
          },
          {
            "duration": 0.06637162500000215,
            "durationTicks": 48,
            "midi": 39,
            "name": "D#2",
            "ticks": 91200,
            "time": 126.1060875,
            "velocity": 0.3937007874015748
          },
          {
            "duration": 0.06637162500000215,
            "durationTicks": 48,
            "midi": 60,
            "name": "C4",
            "ticks": 91200,
            "time": 126.1060875,
            "velocity": 0.29133858267716534
          },
          {
            "duration": 0.06637162500000215,
            "durationTicks": 48,
            "midi": 36,
            "name": "C2",
            "ticks": 91200,
            "time": 126.1060875,
            "velocity": 0.3937007874015748
          },
          {
            "duration": 0.06637162500000215,
            "durationTicks": 48,
            "midi": 60,
            "name": "C4",
            "ticks": 91296,
            "time": 126.23883075,
            "velocity": 0.29133858267716534
          },
          {
            "duration": 0.06637162500000215,
            "durationTicks": 48,
            "midi": 70,
            "name": "A#4",
            "ticks": 91392,
            "time": 126.37157400000001,
            "velocity": 0.29133858267716534
          },
          {
            "duration": 0.06637162500000215,
            "durationTicks": 48,
            "midi": 46,
            "name": "A#2",
            "ticks": 91392,
            "time": 126.37157400000001,
            "velocity": 0.29133858267716534
          },
          {
            "duration": 0.06637162500000215,
            "durationTicks": 48,
            "midi": 63,
            "name": "D#4",
            "ticks": 91392,
            "time": 126.37157400000001,
            "velocity": 0.29133858267716534
          },
          {
            "duration": 0.06637162500000215,
            "durationTicks": 48,
            "midi": 70,
            "name": "A#4",
            "ticks": 91488,
            "time": 126.50431725,
            "velocity": 0.29133858267716534
          },
          {
            "duration": 0.06637162500000215,
            "durationTicks": 48,
            "midi": 60,
            "name": "C4",
            "ticks": 91584,
            "time": 126.6370605,
            "velocity": 0.29133858267716534
          },
          {
            "duration": 0.06637162500000215,
            "durationTicks": 48,
            "midi": 42,
            "name": "F#2",
            "ticks": 91584,
            "time": 126.6370605,
            "velocity": 0.29133858267716534
          },
          {
            "duration": 0.06637162500000215,
            "durationTicks": 48,
            "midi": 36,
            "name": "C2",
            "ticks": 91584,
            "time": 126.6370605,
            "velocity": 0.3937007874015748
          },
          {
            "duration": 0.06637162499998794,
            "durationTicks": 48,
            "midi": 46,
            "name": "A#2",
            "ticks": 91776,
            "time": 126.90254700000001,
            "velocity": 0.29133858267716534
          },
          {
            "duration": 0.06637162499998794,
            "durationTicks": 48,
            "midi": 70,
            "name": "A#4",
            "ticks": 91776,
            "time": 126.90254700000001,
            "velocity": 0.29133858267716534
          },
          {
            "duration": 0.06637162500000215,
            "durationTicks": 48,
            "midi": 60,
            "name": "C4",
            "ticks": 91872,
            "time": 127.03529025,
            "velocity": 0.29133858267716534
          },
          {
            "duration": 0.06637162500000215,
            "durationTicks": 48,
            "midi": 38,
            "name": "D2",
            "ticks": 91968,
            "time": 127.1680335,
            "velocity": 0.29133858267716534
          },
          {
            "duration": 0.06637162500000215,
            "durationTicks": 48,
            "midi": 39,
            "name": "D#2",
            "ticks": 91968,
            "time": 127.1680335,
            "velocity": 0.3937007874015748
          },
          {
            "duration": 0.06637162500000215,
            "durationTicks": 48,
            "midi": 36,
            "name": "C2",
            "ticks": 91968,
            "time": 127.1680335,
            "velocity": 0.3937007874015748
          },
          {
            "duration": 0.06637162500000215,
            "durationTicks": 48,
            "midi": 60,
            "name": "C4",
            "ticks": 91968,
            "time": 127.1680335,
            "velocity": 0.29133858267716534
          },
          {
            "duration": 0.06637162500000215,
            "durationTicks": 48,
            "midi": 42,
            "name": "F#2",
            "ticks": 91968,
            "time": 127.1680335,
            "velocity": 0.29133858267716534
          },
          {
            "duration": 0.06637162500000215,
            "durationTicks": 48,
            "midi": 60,
            "name": "C4",
            "ticks": 92064,
            "time": 127.30077675000001,
            "velocity": 0.29133858267716534
          },
          {
            "duration": 0.06637162500000215,
            "durationTicks": 48,
            "midi": 70,
            "name": "A#4",
            "ticks": 92160,
            "time": 127.43352,
            "velocity": 0.29133858267716534
          },
          {
            "duration": 0.06637162500000215,
            "durationTicks": 48,
            "midi": 46,
            "name": "A#2",
            "ticks": 92160,
            "time": 127.43352,
            "velocity": 0.29133858267716534
          },
          {
            "duration": 0.06637162500000215,
            "durationTicks": 48,
            "midi": 63,
            "name": "D#4",
            "ticks": 92160,
            "time": 127.43352,
            "velocity": 0.29133858267716534
          },
          {
            "duration": 0.06637162500000215,
            "durationTicks": 48,
            "midi": 70,
            "name": "A#4",
            "ticks": 92256,
            "time": 127.56626325,
            "velocity": 0.29133858267716534
          },
          {
            "duration": 0.06637162500000215,
            "durationTicks": 48,
            "midi": 36,
            "name": "C2",
            "ticks": 92352,
            "time": 127.69900650000001,
            "velocity": 0.3937007874015748
          },
          {
            "duration": 0.06637162500000215,
            "durationTicks": 48,
            "midi": 60,
            "name": "C4",
            "ticks": 92352,
            "time": 127.69900650000001,
            "velocity": 0.29133858267716534
          },
          {
            "duration": 0.06637162500000215,
            "durationTicks": 48,
            "midi": 42,
            "name": "F#2",
            "ticks": 92352,
            "time": 127.69900650000001,
            "velocity": 0.29133858267716534
          },
          {
            "duration": 0.06637162500001637,
            "durationTicks": 48,
            "midi": 46,
            "name": "A#2",
            "ticks": 92544,
            "time": 127.964493,
            "velocity": 0.29133858267716534
          },
          {
            "duration": 0.06637162500001637,
            "durationTicks": 48,
            "midi": 70,
            "name": "A#4",
            "ticks": 92544,
            "time": 127.964493,
            "velocity": 0.29133858267716534
          },
          {
            "duration": 0.06637162499998794,
            "durationTicks": 48,
            "midi": 60,
            "name": "C4",
            "ticks": 92640,
            "time": 128.09723625,
            "velocity": 0.29133858267716534
          },
          {
            "duration": 0.06637162499998794,
            "durationTicks": 48,
            "midi": 42,
            "name": "F#2",
            "ticks": 92736,
            "time": 128.2299795,
            "velocity": 0.29133858267716534
          },
          {
            "duration": 0.06637162499998794,
            "durationTicks": 48,
            "midi": 39,
            "name": "D#2",
            "ticks": 92736,
            "time": 128.2299795,
            "velocity": 0.3937007874015748
          },
          {
            "duration": 0.06637162499998794,
            "durationTicks": 48,
            "midi": 36,
            "name": "C2",
            "ticks": 92736,
            "time": 128.2299795,
            "velocity": 0.3937007874015748
          },
          {
            "duration": 0.06637162499998794,
            "durationTicks": 48,
            "midi": 60,
            "name": "C4",
            "ticks": 92736,
            "time": 128.2299795,
            "velocity": 0.29133858267716534
          },
          {
            "duration": 0.06637162499998794,
            "durationTicks": 48,
            "midi": 38,
            "name": "D2",
            "ticks": 92736,
            "time": 128.2299795,
            "velocity": 0.29133858267716534
          },
          {
            "duration": 0.06637162499998794,
            "durationTicks": 48,
            "midi": 60,
            "name": "C4",
            "ticks": 92832,
            "time": 128.36272275000002,
            "velocity": 0.29133858267716534
          },
          {
            "duration": 0.06637162500001637,
            "durationTicks": 48,
            "midi": 70,
            "name": "A#4",
            "ticks": 92928,
            "time": 128.495466,
            "velocity": 0.29133858267716534
          },
          {
            "duration": 0.06637162500001637,
            "durationTicks": 48,
            "midi": 63,
            "name": "D#4",
            "ticks": 92928,
            "time": 128.495466,
            "velocity": 0.29133858267716534
          },
          {
            "duration": 0.06637162500001637,
            "durationTicks": 48,
            "midi": 46,
            "name": "A#2",
            "ticks": 92928,
            "time": 128.495466,
            "velocity": 0.29133858267716534
          },
          {
            "duration": 0.06637162500001637,
            "durationTicks": 48,
            "midi": 70,
            "name": "A#4",
            "ticks": 93024,
            "time": 128.62820925,
            "velocity": 0.29133858267716534
          },
          {
            "duration": 0.06637162500001637,
            "durationTicks": 48,
            "midi": 60,
            "name": "C4",
            "ticks": 93120,
            "time": 128.7609525,
            "velocity": 0.29133858267716534
          },
          {
            "duration": 0.06637162500001637,
            "durationTicks": 48,
            "midi": 36,
            "name": "C2",
            "ticks": 93120,
            "time": 128.7609525,
            "velocity": 0.3937007874015748
          },
          {
            "duration": 0.06637162500001637,
            "durationTicks": 48,
            "midi": 82,
            "name": "A#5",
            "ticks": 93120,
            "time": 128.7609525,
            "velocity": 0.29133858267716534
          },
          {
            "duration": 0.06637162500001637,
            "durationTicks": 48,
            "midi": 42,
            "name": "F#2",
            "ticks": 93120,
            "time": 128.7609525,
            "velocity": 0.29133858267716534
          },
          {
            "duration": 0.06637162499998794,
            "durationTicks": 48,
            "midi": 82,
            "name": "A#5",
            "ticks": 93216,
            "time": 128.89369575,
            "velocity": 0.14173228346456693
          },
          {
            "duration": 0.06637162499998794,
            "durationTicks": 48,
            "midi": 82,
            "name": "A#5",
            "ticks": 93312,
            "time": 129.026439,
            "velocity": 0.29133858267716534
          },
          {
            "duration": 0.06637162499998794,
            "durationTicks": 48,
            "midi": 46,
            "name": "A#2",
            "ticks": 93312,
            "time": 129.026439,
            "velocity": 0.29133858267716534
          },
          {
            "duration": 0.06637162499998794,
            "durationTicks": 48,
            "midi": 70,
            "name": "A#4",
            "ticks": 93312,
            "time": 129.026439,
            "velocity": 0.29133858267716534
          },
          {
            "duration": 0.06637162499998794,
            "durationTicks": 48,
            "midi": 82,
            "name": "A#5",
            "ticks": 93408,
            "time": 129.15918225000001,
            "velocity": 0.29133858267716534
          },
          {
            "duration": 0.06637162499998794,
            "durationTicks": 48,
            "midi": 60,
            "name": "C4",
            "ticks": 93408,
            "time": 129.15918225000001,
            "velocity": 0.29133858267716534
          },
          {
            "duration": 0.06637162499998794,
            "durationTicks": 48,
            "midi": 39,
            "name": "D#2",
            "ticks": 93504,
            "time": 129.29192550000002,
            "velocity": 0.3937007874015748
          },
          {
            "duration": 0.06637162499998794,
            "durationTicks": 48,
            "midi": 36,
            "name": "C2",
            "ticks": 93504,
            "time": 129.29192550000002,
            "velocity": 0.3937007874015748
          },
          {
            "duration": 0.06637162499998794,
            "durationTicks": 48,
            "midi": 38,
            "name": "D2",
            "ticks": 93504,
            "time": 129.29192550000002,
            "velocity": 0.29133858267716534
          },
          {
            "duration": 0.06637162499998794,
            "durationTicks": 48,
            "midi": 42,
            "name": "F#2",
            "ticks": 93504,
            "time": 129.29192550000002,
            "velocity": 0.29133858267716534
          },
          {
            "duration": 0.06637162499998794,
            "durationTicks": 48,
            "midi": 60,
            "name": "C4",
            "ticks": 93504,
            "time": 129.29192550000002,
            "velocity": 0.29133858267716534
          },
          {
            "duration": 0.06637162500001637,
            "durationTicks": 48,
            "midi": 60,
            "name": "C4",
            "ticks": 93600,
            "time": 129.42466875,
            "velocity": 0.29133858267716534
          },
          {
            "duration": 0.06637162500001637,
            "durationTicks": 48,
            "midi": 70,
            "name": "A#4",
            "ticks": 93696,
            "time": 129.557412,
            "velocity": 0.29133858267716534
          },
          {
            "duration": 0.06637162500001637,
            "durationTicks": 48,
            "midi": 63,
            "name": "D#4",
            "ticks": 93696,
            "time": 129.557412,
            "velocity": 0.29133858267716534
          },
          {
            "duration": 0.06637162500001637,
            "durationTicks": 48,
            "midi": 42,
            "name": "F#2",
            "ticks": 93696,
            "time": 129.557412,
            "velocity": 0.3937007874015748
          },
          {
            "duration": 0.06637162500001637,
            "durationTicks": 48,
            "midi": 42,
            "name": "F#2",
            "ticks": 93792,
            "time": 129.69015525,
            "velocity": 0.3937007874015748
          },
          {
            "duration": 0.06637162500001637,
            "durationTicks": 48,
            "midi": 70,
            "name": "A#4",
            "ticks": 93792,
            "time": 129.69015525,
            "velocity": 0.29133858267716534
          },
          {
            "duration": 0.06637162499998794,
            "durationTicks": 48,
            "midi": 36,
            "name": "C2",
            "ticks": 93888,
            "time": 129.8228985,
            "velocity": 0.3937007874015748
          },
          {
            "duration": 0.06637162499998794,
            "durationTicks": 48,
            "midi": 60,
            "name": "C4",
            "ticks": 93888,
            "time": 129.8228985,
            "velocity": 0.29133858267716534
          },
          {
            "duration": 0.06637162499998794,
            "durationTicks": 48,
            "midi": 42,
            "name": "F#2",
            "ticks": 93888,
            "time": 129.8228985,
            "velocity": 0.29133858267716534
          },
          {
            "duration": 0.06637162499998794,
            "durationTicks": 48,
            "midi": 70,
            "name": "A#4",
            "ticks": 94080,
            "time": 130.08838500000002,
            "velocity": 0.29133858267716534
          },
          {
            "duration": 0.06637162499998794,
            "durationTicks": 48,
            "midi": 46,
            "name": "A#2",
            "ticks": 94080,
            "time": 130.08838500000002,
            "velocity": 0.29133858267716534
          },
          {
            "duration": 0.06637162499998794,
            "durationTicks": 48,
            "midi": 60,
            "name": "C4",
            "ticks": 94176,
            "time": 130.22112825000002,
            "velocity": 0.29133858267716534
          },
          {
            "duration": 0.06637162500001637,
            "durationTicks": 48,
            "midi": 36,
            "name": "C2",
            "ticks": 94272,
            "time": 130.3538715,
            "velocity": 0.3937007874015748
          },
          {
            "duration": 0.06637162500001637,
            "durationTicks": 48,
            "midi": 39,
            "name": "D#2",
            "ticks": 94272,
            "time": 130.3538715,
            "velocity": 0.3937007874015748
          },
          {
            "duration": 0.06637162500001637,
            "durationTicks": 48,
            "midi": 42,
            "name": "F#2",
            "ticks": 94272,
            "time": 130.3538715,
            "velocity": 0.29133858267716534
          },
          {
            "duration": 0.06637162500001637,
            "durationTicks": 48,
            "midi": 38,
            "name": "D2",
            "ticks": 94272,
            "time": 130.3538715,
            "velocity": 0.29133858267716534
          },
          {
            "duration": 0.06637162500001637,
            "durationTicks": 48,
            "midi": 60,
            "name": "C4",
            "ticks": 94272,
            "time": 130.3538715,
            "velocity": 0.29133858267716534
          },
          {
            "duration": 0.06637162500001637,
            "durationTicks": 48,
            "midi": 60,
            "name": "C4",
            "ticks": 94368,
            "time": 130.48661475,
            "velocity": 0.29133858267716534
          },
          {
            "duration": 0.06637162499998794,
            "durationTicks": 48,
            "midi": 63,
            "name": "D#4",
            "ticks": 94464,
            "time": 130.619358,
            "velocity": 0.29133858267716534
          },
          {
            "duration": 0.06637162499998794,
            "durationTicks": 48,
            "midi": 46,
            "name": "A#2",
            "ticks": 94464,
            "time": 130.619358,
            "velocity": 0.29133858267716534
          },
          {
            "duration": 0.06637162499998794,
            "durationTicks": 48,
            "midi": 70,
            "name": "A#4",
            "ticks": 94464,
            "time": 130.619358,
            "velocity": 0.29133858267716534
          },
          {
            "duration": 0.06637162499998794,
            "durationTicks": 48,
            "midi": 70,
            "name": "A#4",
            "ticks": 94560,
            "time": 130.75210125,
            "velocity": 0.29133858267716534
          },
          {
            "duration": 0.06637162499998794,
            "durationTicks": 48,
            "midi": 60,
            "name": "C4",
            "ticks": 94656,
            "time": 130.8848445,
            "velocity": 0.29133858267716534
          },
          {
            "duration": 0.06637162499998794,
            "durationTicks": 48,
            "midi": 36,
            "name": "C2",
            "ticks": 94656,
            "time": 130.8848445,
            "velocity": 0.3937007874015748
          },
          {
            "duration": 0.06637162499998794,
            "durationTicks": 48,
            "midi": 42,
            "name": "F#2",
            "ticks": 94656,
            "time": 130.8848445,
            "velocity": 0.29133858267716534
          },
          {
            "duration": 0.06637162500001637,
            "durationTicks": 48,
            "midi": 70,
            "name": "A#4",
            "ticks": 94848,
            "time": 131.150331,
            "velocity": 0.29133858267716534
          },
          {
            "duration": 0.06637162500001637,
            "durationTicks": 48,
            "midi": 46,
            "name": "A#2",
            "ticks": 94848,
            "time": 131.150331,
            "velocity": 0.29133858267716534
          },
          {
            "duration": 0.06637162500001637,
            "durationTicks": 48,
            "midi": 60,
            "name": "C4",
            "ticks": 94944,
            "time": 131.28307425,
            "velocity": 0.29133858267716534
          },
          {
            "duration": 0.06637162500001637,
            "durationTicks": 48,
            "midi": 60,
            "name": "C4",
            "ticks": 95040,
            "time": 131.4158175,
            "velocity": 0.29133858267716534
          },
          {
            "duration": 0.06637162500001637,
            "durationTicks": 48,
            "midi": 42,
            "name": "F#2",
            "ticks": 95040,
            "time": 131.4158175,
            "velocity": 0.29133858267716534
          },
          {
            "duration": 0.06637162500001637,
            "durationTicks": 48,
            "midi": 38,
            "name": "D2",
            "ticks": 95040,
            "time": 131.4158175,
            "velocity": 0.29133858267716534
          },
          {
            "duration": 0.06637162500001637,
            "durationTicks": 48,
            "midi": 39,
            "name": "D#2",
            "ticks": 95040,
            "time": 131.4158175,
            "velocity": 0.3937007874015748
          },
          {
            "duration": 0.06637162500001637,
            "durationTicks": 48,
            "midi": 36,
            "name": "C2",
            "ticks": 95040,
            "time": 131.4158175,
            "velocity": 0.3937007874015748
          },
          {
            "duration": 0.06637162499998794,
            "durationTicks": 48,
            "midi": 60,
            "name": "C4",
            "ticks": 95136,
            "time": 131.54856075,
            "velocity": 0.29133858267716534
          },
          {
            "duration": 0.06637162499998794,
            "durationTicks": 48,
            "midi": 46,
            "name": "A#2",
            "ticks": 95232,
            "time": 131.681304,
            "velocity": 0.29133858267716534
          },
          {
            "duration": 0.06637162499998794,
            "durationTicks": 48,
            "midi": 70,
            "name": "A#4",
            "ticks": 95232,
            "time": 131.681304,
            "velocity": 0.29133858267716534
          },
          {
            "duration": 0.06637162499998794,
            "durationTicks": 48,
            "midi": 63,
            "name": "D#4",
            "ticks": 95232,
            "time": 131.681304,
            "velocity": 0.29133858267716534
          },
          {
            "duration": 0.06637162499998794,
            "durationTicks": 48,
            "midi": 70,
            "name": "A#4",
            "ticks": 95328,
            "time": 131.81404725000002,
            "velocity": 0.29133858267716534
          },
          {
            "duration": 0.06637162499998794,
            "durationTicks": 48,
            "midi": 60,
            "name": "C4",
            "ticks": 95424,
            "time": 131.94679050000002,
            "velocity": 0.29133858267716534
          },
          {
            "duration": 0.06637162499998794,
            "durationTicks": 48,
            "midi": 36,
            "name": "C2",
            "ticks": 95424,
            "time": 131.94679050000002,
            "velocity": 0.3937007874015748
          },
          {
            "duration": 0.06637162499998794,
            "durationTicks": 48,
            "midi": 42,
            "name": "F#2",
            "ticks": 95424,
            "time": 131.94679050000002,
            "velocity": 0.29133858267716534
          },
          {
            "duration": 0.06637162500001637,
            "durationTicks": 48,
            "midi": 70,
            "name": "A#4",
            "ticks": 95616,
            "time": 132.212277,
            "velocity": 0.29133858267716534
          },
          {
            "duration": 0.06637162500001637,
            "durationTicks": 48,
            "midi": 46,
            "name": "A#2",
            "ticks": 95616,
            "time": 132.212277,
            "velocity": 0.29133858267716534
          },
          {
            "duration": 0.06637162500001637,
            "durationTicks": 48,
            "midi": 60,
            "name": "C4",
            "ticks": 95712,
            "time": 132.34502025,
            "velocity": 0.29133858267716534
          },
          {
            "duration": 0.06637162499998794,
            "durationTicks": 48,
            "midi": 38,
            "name": "D2",
            "ticks": 95808,
            "time": 132.4777635,
            "velocity": 0.29133858267716534
          },
          {
            "duration": 0.06637162499998794,
            "durationTicks": 48,
            "midi": 39,
            "name": "D#2",
            "ticks": 95808,
            "time": 132.4777635,
            "velocity": 0.3937007874015748
          },
          {
            "duration": 0.06637162499998794,
            "durationTicks": 48,
            "midi": 60,
            "name": "C4",
            "ticks": 95808,
            "time": 132.4777635,
            "velocity": 0.29133858267716534
          },
          {
            "duration": 0.06637162499998794,
            "durationTicks": 48,
            "midi": 36,
            "name": "C2",
            "ticks": 95808,
            "time": 132.4777635,
            "velocity": 0.3937007874015748
          },
          {
            "duration": 0.06637162499998794,
            "durationTicks": 48,
            "midi": 42,
            "name": "F#2",
            "ticks": 95808,
            "time": 132.4777635,
            "velocity": 0.29133858267716534
          },
          {
            "duration": 0.06637162499998794,
            "durationTicks": 48,
            "midi": 60,
            "name": "C4",
            "ticks": 95904,
            "time": 132.61050675,
            "velocity": 0.29133858267716534
          },
          {
            "duration": 0.06637162499998794,
            "durationTicks": 48,
            "midi": 63,
            "name": "D#4",
            "ticks": 96000,
            "time": 132.74325000000002,
            "velocity": 0.29133858267716534
          },
          {
            "duration": 0.06637162499998794,
            "durationTicks": 48,
            "midi": 46,
            "name": "A#2",
            "ticks": 96000,
            "time": 132.74325000000002,
            "velocity": 0.29133858267716534
          },
          {
            "duration": 0.06637162499998794,
            "durationTicks": 48,
            "midi": 70,
            "name": "A#4",
            "ticks": 96000,
            "time": 132.74325000000002,
            "velocity": 0.29133858267716534
          },
          {
            "duration": 0.06637162500001637,
            "durationTicks": 48,
            "midi": 70,
            "name": "A#4",
            "ticks": 96096,
            "time": 132.87599325,
            "velocity": 0.29133858267716534
          },
          {
            "duration": 0.06637162500001637,
            "durationTicks": 48,
            "midi": 42,
            "name": "F#2",
            "ticks": 96192,
            "time": 133.0087365,
            "velocity": 0.29133858267716534
          },
          {
            "duration": 0.06637162500001637,
            "durationTicks": 48,
            "midi": 60,
            "name": "C4",
            "ticks": 96192,
            "time": 133.0087365,
            "velocity": 0.29133858267716534
          },
          {
            "duration": 0.06637162500001637,
            "durationTicks": 48,
            "midi": 36,
            "name": "C2",
            "ticks": 96192,
            "time": 133.0087365,
            "velocity": 0.3937007874015748
          },
          {
            "duration": 0.06637162500001637,
            "durationTicks": 48,
            "midi": 82,
            "name": "A#5",
            "ticks": 96192,
            "time": 133.0087365,
            "velocity": 0.29133858267716534
          },
          {
            "duration": 0.06637162500001637,
            "durationTicks": 48,
            "midi": 82,
            "name": "A#5",
            "ticks": 96288,
            "time": 133.14147975,
            "velocity": 0.14173228346456693
          },
          {
            "duration": 0.06637162499998794,
            "durationTicks": 48,
            "midi": 46,
            "name": "A#2",
            "ticks": 96384,
            "time": 133.274223,
            "velocity": 0.29133858267716534
          },
          {
            "duration": 0.06637162499998794,
            "durationTicks": 48,
            "midi": 70,
            "name": "A#4",
            "ticks": 96384,
            "time": 133.274223,
            "velocity": 0.29133858267716534
          },
          {
            "duration": 0.06637162499998794,
            "durationTicks": 48,
            "midi": 82,
            "name": "A#5",
            "ticks": 96384,
            "time": 133.274223,
            "velocity": 0.29133858267716534
          },
          {
            "duration": 0.06637162499998794,
            "durationTicks": 48,
            "midi": 60,
            "name": "C4",
            "ticks": 96480,
            "time": 133.40696625,
            "velocity": 0.29133858267716534
          },
          {
            "duration": 0.06637162499998794,
            "durationTicks": 48,
            "midi": 82,
            "name": "A#5",
            "ticks": 96480,
            "time": 133.40696625,
            "velocity": 0.29133858267716534
          },
          {
            "duration": 0.06637162499998794,
            "durationTicks": 48,
            "midi": 38,
            "name": "D2",
            "ticks": 96576,
            "time": 133.53970950000001,
            "velocity": 0.29133858267716534
          },
          {
            "duration": 0.06637162499998794,
            "durationTicks": 48,
            "midi": 42,
            "name": "F#2",
            "ticks": 96576,
            "time": 133.53970950000001,
            "velocity": 0.29133858267716534
          },
          {
            "duration": 0.06637162499998794,
            "durationTicks": 48,
            "midi": 60,
            "name": "C4",
            "ticks": 96576,
            "time": 133.53970950000001,
            "velocity": 0.29133858267716534
          },
          {
            "duration": 0.06637162499998794,
            "durationTicks": 48,
            "midi": 39,
            "name": "D#2",
            "ticks": 96576,
            "time": 133.53970950000001,
            "velocity": 0.3937007874015748
          },
          {
            "duration": 0.06637162499998794,
            "durationTicks": 48,
            "midi": 36,
            "name": "C2",
            "ticks": 96576,
            "time": 133.53970950000001,
            "velocity": 0.3937007874015748
          },
          {
            "duration": 0.06637162499998794,
            "durationTicks": 48,
            "midi": 60,
            "name": "C4",
            "ticks": 96672,
            "time": 133.67245275000002,
            "velocity": 0.29133858267716534
          },
          {
            "duration": 0.06637162500001637,
            "durationTicks": 48,
            "midi": 42,
            "name": "F#2",
            "ticks": 96768,
            "time": 133.805196,
            "velocity": 0.3937007874015748
          },
          {
            "duration": 0.06637162500001637,
            "durationTicks": 48,
            "midi": 70,
            "name": "A#4",
            "ticks": 96768,
            "time": 133.805196,
            "velocity": 0.29133858267716534
          },
          {
            "duration": 0.06637162500001637,
            "durationTicks": 48,
            "midi": 63,
            "name": "D#4",
            "ticks": 96768,
            "time": 133.805196,
            "velocity": 0.29133858267716534
          },
          {
            "duration": 0.06637162500001637,
            "durationTicks": 48,
            "midi": 70,
            "name": "A#4",
            "ticks": 96864,
            "time": 133.93793925,
            "velocity": 0.29133858267716534
          },
          {
            "duration": 0.06637162500001637,
            "durationTicks": 48,
            "midi": 42,
            "name": "F#2",
            "ticks": 96864,
            "time": 133.93793925,
            "velocity": 0.3937007874015748
          },
          {
            "duration": 0.06637162500001637,
            "durationTicks": 48,
            "midi": 42,
            "name": "F#2",
            "ticks": 96960,
            "time": 134.0706825,
            "velocity": 0.29133858267716534
          },
          {
            "duration": 0.06637162500001637,
            "durationTicks": 48,
            "midi": 36,
            "name": "C2",
            "ticks": 96960,
            "time": 134.0706825,
            "velocity": 0.3937007874015748
          },
          {
            "duration": 0.06637162500001637,
            "durationTicks": 48,
            "midi": 60,
            "name": "C4",
            "ticks": 96960,
            "time": 134.0706825,
            "velocity": 0.29133858267716534
          },
          {
            "duration": 0.06637162499998794,
            "durationTicks": 48,
            "midi": 70,
            "name": "A#4",
            "ticks": 97152,
            "time": 134.336169,
            "velocity": 0.29133858267716534
          },
          {
            "duration": 0.06637162499998794,
            "durationTicks": 48,
            "midi": 46,
            "name": "A#2",
            "ticks": 97152,
            "time": 134.336169,
            "velocity": 0.29133858267716534
          },
          {
            "duration": 0.06637162499998794,
            "durationTicks": 48,
            "midi": 60,
            "name": "C4",
            "ticks": 97248,
            "time": 134.46891225000002,
            "velocity": 0.29133858267716534
          },
          {
            "duration": 0.06637162499998794,
            "durationTicks": 48,
            "midi": 39,
            "name": "D#2",
            "ticks": 97344,
            "time": 134.60165550000002,
            "velocity": 0.3937007874015748
          },
          {
            "duration": 0.06637162499998794,
            "durationTicks": 48,
            "midi": 38,
            "name": "D2",
            "ticks": 97344,
            "time": 134.60165550000002,
            "velocity": 0.29133858267716534
          },
          {
            "duration": 0.06637162499998794,
            "durationTicks": 48,
            "midi": 60,
            "name": "C4",
            "ticks": 97344,
            "time": 134.60165550000002,
            "velocity": 0.29133858267716534
          },
          {
            "duration": 0.06637162499998794,
            "durationTicks": 48,
            "midi": 36,
            "name": "C2",
            "ticks": 97344,
            "time": 134.60165550000002,
            "velocity": 0.3937007874015748
          },
          {
            "duration": 0.06637162499998794,
            "durationTicks": 48,
            "midi": 42,
            "name": "F#2",
            "ticks": 97344,
            "time": 134.60165550000002,
            "velocity": 0.29133858267716534
          },
          {
            "duration": 0.06637162500001637,
            "durationTicks": 48,
            "midi": 60,
            "name": "C4",
            "ticks": 97440,
            "time": 134.73439875,
            "velocity": 0.29133858267716534
          },
          {
            "duration": 0.06637162500001637,
            "durationTicks": 48,
            "midi": 46,
            "name": "A#2",
            "ticks": 97536,
            "time": 134.867142,
            "velocity": 0.29133858267716534
          },
          {
            "duration": 0.06637162500001637,
            "durationTicks": 48,
            "midi": 63,
            "name": "D#4",
            "ticks": 97536,
            "time": 134.867142,
            "velocity": 0.29133858267716534
          },
          {
            "duration": 0.06637162500001637,
            "durationTicks": 48,
            "midi": 70,
            "name": "A#4",
            "ticks": 97536,
            "time": 134.867142,
            "velocity": 0.29133858267716534
          },
          {
            "duration": 0.06637162499998794,
            "durationTicks": 48,
            "midi": 70,
            "name": "A#4",
            "ticks": 97632,
            "time": 134.99988525,
            "velocity": 0.29133858267716534
          },
          {
            "duration": 0.06637162499998794,
            "durationTicks": 48,
            "midi": 42,
            "name": "F#2",
            "ticks": 97728,
            "time": 135.1326285,
            "velocity": 0.29133858267716534
          },
          {
            "duration": 0.06637162499998794,
            "durationTicks": 48,
            "midi": 60,
            "name": "C4",
            "ticks": 97728,
            "time": 135.1326285,
            "velocity": 0.29133858267716534
          },
          {
            "duration": 0.06637162499998794,
            "durationTicks": 48,
            "midi": 36,
            "name": "C2",
            "ticks": 97728,
            "time": 135.1326285,
            "velocity": 0.3937007874015748
          },
          {
            "duration": 0.06637162499998794,
            "durationTicks": 48,
            "midi": 70,
            "name": "A#4",
            "ticks": 97920,
            "time": 135.39811500000002,
            "velocity": 0.29133858267716534
          },
          {
            "duration": 0.06637162499998794,
            "durationTicks": 48,
            "midi": 46,
            "name": "A#2",
            "ticks": 97920,
            "time": 135.39811500000002,
            "velocity": 0.29133858267716534
          },
          {
            "duration": 0.06637162500001637,
            "durationTicks": 48,
            "midi": 60,
            "name": "C4",
            "ticks": 98016,
            "time": 135.53085825,
            "velocity": 0.29133858267716534
          },
          {
            "duration": 0.06637162500001637,
            "durationTicks": 48,
            "midi": 36,
            "name": "C2",
            "ticks": 98112,
            "time": 135.6636015,
            "velocity": 0.3937007874015748
          },
          {
            "duration": 0.06637162500001637,
            "durationTicks": 48,
            "midi": 39,
            "name": "D#2",
            "ticks": 98112,
            "time": 135.6636015,
            "velocity": 0.3937007874015748
          },
          {
            "duration": 0.06637162500001637,
            "durationTicks": 48,
            "midi": 42,
            "name": "F#2",
            "ticks": 98112,
            "time": 135.6636015,
            "velocity": 0.29133858267716534
          },
          {
            "duration": 0.06637162500001637,
            "durationTicks": 48,
            "midi": 60,
            "name": "C4",
            "ticks": 98112,
            "time": 135.6636015,
            "velocity": 0.29133858267716534
          },
          {
            "duration": 0.06637162500001637,
            "durationTicks": 48,
            "midi": 38,
            "name": "D2",
            "ticks": 98112,
            "time": 135.6636015,
            "velocity": 0.29133858267716534
          },
          {
            "duration": 0.06637162500001637,
            "durationTicks": 48,
            "midi": 60,
            "name": "C4",
            "ticks": 98208,
            "time": 135.79634475,
            "velocity": 0.29133858267716534
          },
          {
            "duration": 0.06637162499998794,
            "durationTicks": 48,
            "midi": 70,
            "name": "A#4",
            "ticks": 98304,
            "time": 135.929088,
            "velocity": 0.29133858267716534
          },
          {
            "duration": 0.06637162499998794,
            "durationTicks": 48,
            "midi": 63,
            "name": "D#4",
            "ticks": 98304,
            "time": 135.929088,
            "velocity": 0.29133858267716534
          },
          {
            "duration": 0.06637162499998794,
            "durationTicks": 48,
            "midi": 46,
            "name": "A#2",
            "ticks": 98304,
            "time": 135.929088,
            "velocity": 0.29133858267716534
          },
          {
            "duration": 0.06637162499998794,
            "durationTicks": 48,
            "midi": 70,
            "name": "A#4",
            "ticks": 98400,
            "time": 136.06183125,
            "velocity": 0.29133858267716534
          },
          {
            "duration": 0.06637162499998794,
            "durationTicks": 48,
            "midi": 42,
            "name": "F#2",
            "ticks": 98496,
            "time": 136.19457450000002,
            "velocity": 0.29133858267716534
          },
          {
            "duration": 0.06637162499998794,
            "durationTicks": 48,
            "midi": 39,
            "name": "D#2",
            "ticks": 98496,
            "time": 136.19457450000002,
            "velocity": 0.3937007874015748
          },
          {
            "duration": 0.06637162499998794,
            "durationTicks": 48,
            "midi": 60,
            "name": "C4",
            "ticks": 98496,
            "time": 136.19457450000002,
            "velocity": 0.29133858267716534
          },
          {
            "duration": 0.06637162499998794,
            "durationTicks": 48,
            "midi": 36,
            "name": "C2",
            "ticks": 98496,
            "time": 136.19457450000002,
            "velocity": 0.3937007874015748
          },
          {
            "duration": 0.06637162499998794,
            "durationTicks": 48,
            "midi": 39,
            "name": "D#2",
            "ticks": 98592,
            "time": 136.32731775000002,
            "velocity": 0.3937007874015748
          },
          {
            "duration": 0.06637162500001637,
            "durationTicks": 48,
            "midi": 46,
            "name": "A#2",
            "ticks": 98688,
            "time": 136.460061,
            "velocity": 0.29133858267716534
          },
          {
            "duration": 0.06637162500001637,
            "durationTicks": 48,
            "midi": 39,
            "name": "D#2",
            "ticks": 98688,
            "time": 136.460061,
            "velocity": 0.3937007874015748
          },
          {
            "duration": 0.06637162500001637,
            "durationTicks": 48,
            "midi": 70,
            "name": "A#4",
            "ticks": 98688,
            "time": 136.460061,
            "velocity": 0.29133858267716534
          },
          {
            "duration": 0.06637162500001637,
            "durationTicks": 48,
            "midi": 60,
            "name": "C4",
            "ticks": 98784,
            "time": 136.59280425,
            "velocity": 0.29133858267716534
          },
          {
            "duration": 0.06637162500001637,
            "durationTicks": 48,
            "midi": 39,
            "name": "D#2",
            "ticks": 98784,
            "time": 136.59280425,
            "velocity": 0.3937007874015748
          },
          {
            "duration": 0.06637162500001637,
            "durationTicks": 48,
            "midi": 42,
            "name": "F#2",
            "ticks": 98880,
            "time": 136.7255475,
            "velocity": 0.29133858267716534
          },
          {
            "duration": 0.06637162500001637,
            "durationTicks": 48,
            "midi": 36,
            "name": "C2",
            "ticks": 98880,
            "time": 136.7255475,
            "velocity": 0.3937007874015748
          },
          {
            "duration": 0.06637162500001637,
            "durationTicks": 48,
            "midi": 38,
            "name": "D2",
            "ticks": 98880,
            "time": 136.7255475,
            "velocity": 0.29133858267716534
          },
          {
            "duration": 0.06637162500001637,
            "durationTicks": 48,
            "midi": 60,
            "name": "C4",
            "ticks": 98880,
            "time": 136.7255475,
            "velocity": 0.29133858267716534
          },
          {
            "duration": 0.06637162499998794,
            "durationTicks": 48,
            "midi": 60,
            "name": "C4",
            "ticks": 98976,
            "time": 136.85829075,
            "velocity": 0.29133858267716534
          },
          {
            "duration": 0.06637162499998794,
            "durationTicks": 48,
            "midi": 70,
            "name": "A#4",
            "ticks": 99072,
            "time": 136.991034,
            "velocity": 0.29133858267716534
          },
          {
            "duration": 0.06637162499998794,
            "durationTicks": 48,
            "midi": 63,
            "name": "D#4",
            "ticks": 99072,
            "time": 136.991034,
            "velocity": 0.29133858267716534
          },
          {
            "duration": 0.06637162499998794,
            "durationTicks": 48,
            "midi": 46,
            "name": "A#2",
            "ticks": 99072,
            "time": 136.991034,
            "velocity": 0.29133858267716534
          },
          {
            "duration": 0.06637162499998794,
            "durationTicks": 48,
            "midi": 70,
            "name": "A#4",
            "ticks": 99168,
            "time": 137.12377725000002,
            "velocity": 0.29133858267716534
          },
          {
            "duration": 0.06637162500001637,
            "durationTicks": 48,
            "midi": 42,
            "name": "F#2",
            "ticks": 99264,
            "time": 137.2565205,
            "velocity": 0.29133858267716534
          },
          {
            "duration": 0.06637162500001637,
            "durationTicks": 48,
            "midi": 36,
            "name": "C2",
            "ticks": 99264,
            "time": 137.2565205,
            "velocity": 0.3937007874015748
          },
          {
            "duration": 0.06637162500001637,
            "durationTicks": 48,
            "midi": 82,
            "name": "A#5",
            "ticks": 99264,
            "time": 137.2565205,
            "velocity": 0.29133858267716534
          },
          {
            "duration": 0.06637162500001637,
            "durationTicks": 48,
            "midi": 60,
            "name": "C4",
            "ticks": 99264,
            "time": 137.2565205,
            "velocity": 0.29133858267716534
          },
          {
            "duration": 0.06637162500001637,
            "durationTicks": 48,
            "midi": 82,
            "name": "A#5",
            "ticks": 99360,
            "time": 137.38926375,
            "velocity": 0.14173228346456693
          },
          {
            "duration": 0.06637162500001637,
            "durationTicks": 48,
            "midi": 70,
            "name": "A#4",
            "ticks": 99456,
            "time": 137.522007,
            "velocity": 0.29133858267716534
          },
          {
            "duration": 0.06637162500001637,
            "durationTicks": 48,
            "midi": 46,
            "name": "A#2",
            "ticks": 99456,
            "time": 137.522007,
            "velocity": 0.29133858267716534
          },
          {
            "duration": 0.06637162500001637,
            "durationTicks": 48,
            "midi": 82,
            "name": "A#5",
            "ticks": 99456,
            "time": 137.522007,
            "velocity": 0.29133858267716534
          },
          {
            "duration": 0.06637162499998794,
            "durationTicks": 48,
            "midi": 60,
            "name": "C4",
            "ticks": 99552,
            "time": 137.65475025,
            "velocity": 0.29133858267716534
          },
          {
            "duration": 0.06637162499998794,
            "durationTicks": 48,
            "midi": 82,
            "name": "A#5",
            "ticks": 99552,
            "time": 137.65475025,
            "velocity": 0.29133858267716534
          },
          {
            "duration": 0.06637162499998794,
            "durationTicks": 48,
            "midi": 60,
            "name": "C4",
            "ticks": 99648,
            "time": 137.7874935,
            "velocity": 0.29133858267716534
          },
          {
            "duration": 0.06637162499998794,
            "durationTicks": 48,
            "midi": 38,
            "name": "D2",
            "ticks": 99648,
            "time": 137.7874935,
            "velocity": 0.29133858267716534
          },
          {
            "duration": 0.06637162499998794,
            "durationTicks": 48,
            "midi": 39,
            "name": "D#2",
            "ticks": 99648,
            "time": 137.7874935,
            "velocity": 0.3937007874015748
          },
          {
            "duration": 0.06637162499998794,
            "durationTicks": 48,
            "midi": 36,
            "name": "C2",
            "ticks": 99648,
            "time": 137.7874935,
            "velocity": 0.3937007874015748
          },
          {
            "duration": 0.06637162499998794,
            "durationTicks": 48,
            "midi": 42,
            "name": "F#2",
            "ticks": 99648,
            "time": 137.7874935,
            "velocity": 0.29133858267716534
          },
          {
            "duration": 0.06637162499998794,
            "durationTicks": 48,
            "midi": 60,
            "name": "C4",
            "ticks": 99744,
            "time": 137.92023675000002,
            "velocity": 0.29133858267716534
          },
          {
            "duration": 0.06637162499998794,
            "durationTicks": 48,
            "midi": 70,
            "name": "A#4",
            "ticks": 99840,
            "time": 138.05298000000002,
            "velocity": 0.29133858267716534
          },
          {
            "duration": 0.06637162499998794,
            "durationTicks": 48,
            "midi": 63,
            "name": "D#4",
            "ticks": 99840,
            "time": 138.05298000000002,
            "velocity": 0.29133858267716534
          },
          {
            "duration": 0.06637162499998794,
            "durationTicks": 48,
            "midi": 42,
            "name": "F#2",
            "ticks": 99840,
            "time": 138.05298000000002,
            "velocity": 0.3937007874015748
          },
          {
            "duration": 0.06637162500001637,
            "durationTicks": 48,
            "midi": 42,
            "name": "F#2",
            "ticks": 99936,
            "time": 138.18572325,
            "velocity": 0.3937007874015748
          },
          {
            "duration": 0.06637162500001637,
            "durationTicks": 48,
            "midi": 70,
            "name": "A#4",
            "ticks": 99936,
            "time": 138.18572325,
            "velocity": 0.29133858267716534
          },
          {
            "duration": 0.06637162500001637,
            "durationTicks": 48,
            "midi": 42,
            "name": "F#2",
            "ticks": 100032,
            "time": 138.3184665,
            "velocity": 0.29133858267716534
          },
          {
            "duration": 0.06637162500001637,
            "durationTicks": 48,
            "midi": 60,
            "name": "C4",
            "ticks": 100032,
            "time": 138.3184665,
            "velocity": 0.29133858267716534
          },
          {
            "duration": 0.06637162500001637,
            "durationTicks": 48,
            "midi": 36,
            "name": "C2",
            "ticks": 100032,
            "time": 138.3184665,
            "velocity": 0.3937007874015748
          },
          {
            "duration": 0.06637162499998794,
            "durationTicks": 48,
            "midi": 46,
            "name": "A#2",
            "ticks": 100224,
            "time": 138.583953,
            "velocity": 0.29133858267716534
          },
          {
            "duration": 0.06637162499998794,
            "durationTicks": 48,
            "midi": 70,
            "name": "A#4",
            "ticks": 100224,
            "time": 138.583953,
            "velocity": 0.29133858267716534
          },
          {
            "duration": 0.06637162499998794,
            "durationTicks": 48,
            "midi": 60,
            "name": "C4",
            "ticks": 100320,
            "time": 138.71669625,
            "velocity": 0.29133858267716534
          },
          {
            "duration": 0.06637162499998794,
            "durationTicks": 48,
            "midi": 36,
            "name": "C2",
            "ticks": 100416,
            "time": 138.84943950000002,
            "velocity": 0.3937007874015748
          },
          {
            "duration": 0.06637162499998794,
            "durationTicks": 48,
            "midi": 60,
            "name": "C4",
            "ticks": 100416,
            "time": 138.84943950000002,
            "velocity": 0.29133858267716534
          },
          {
            "duration": 0.06637162499998794,
            "durationTicks": 48,
            "midi": 38,
            "name": "D2",
            "ticks": 100416,
            "time": 138.84943950000002,
            "velocity": 0.29133858267716534
          },
          {
            "duration": 0.06637162499998794,
            "durationTicks": 48,
            "midi": 39,
            "name": "D#2",
            "ticks": 100416,
            "time": 138.84943950000002,
            "velocity": 0.3937007874015748
          },
          {
            "duration": 0.06637162499998794,
            "durationTicks": 48,
            "midi": 42,
            "name": "F#2",
            "ticks": 100416,
            "time": 138.84943950000002,
            "velocity": 0.29133858267716534
          },
          {
            "duration": 0.06637162499998794,
            "durationTicks": 48,
            "midi": 60,
            "name": "C4",
            "ticks": 100512,
            "time": 138.98218275000002,
            "velocity": 0.29133858267716534
          },
          {
            "duration": 0.06637162500001637,
            "durationTicks": 48,
            "midi": 46,
            "name": "A#2",
            "ticks": 100608,
            "time": 139.114926,
            "velocity": 0.29133858267716534
          },
          {
            "duration": 0.06637162500001637,
            "durationTicks": 48,
            "midi": 63,
            "name": "D#4",
            "ticks": 100608,
            "time": 139.114926,
            "velocity": 0.29133858267716534
          },
          {
            "duration": 0.06637162500001637,
            "durationTicks": 48,
            "midi": 70,
            "name": "A#4",
            "ticks": 100608,
            "time": 139.114926,
            "velocity": 0.29133858267716534
          },
          {
            "duration": 0.06637162500001637,
            "durationTicks": 48,
            "midi": 70,
            "name": "A#4",
            "ticks": 100704,
            "time": 139.24766925,
            "velocity": 0.29133858267716534
          },
          {
            "duration": 0.06637162499998794,
            "durationTicks": 48,
            "midi": 42,
            "name": "F#2",
            "ticks": 100800,
            "time": 139.3804125,
            "velocity": 0.29133858267716534
          },
          {
            "duration": 0.06637162499998794,
            "durationTicks": 48,
            "midi": 60,
            "name": "C4",
            "ticks": 100800,
            "time": 139.3804125,
            "velocity": 0.29133858267716534
          },
          {
            "duration": 0.06637162499998794,
            "durationTicks": 48,
            "midi": 36,
            "name": "C2",
            "ticks": 100800,
            "time": 139.3804125,
            "velocity": 0.3937007874015748
          },
          {
            "duration": 0.06637162499998794,
            "durationTicks": 48,
            "midi": 70,
            "name": "A#4",
            "ticks": 100992,
            "time": 139.64589900000001,
            "velocity": 0.29133858267716534
          },
          {
            "duration": 0.06637162499998794,
            "durationTicks": 48,
            "midi": 46,
            "name": "A#2",
            "ticks": 100992,
            "time": 139.64589900000001,
            "velocity": 0.29133858267716534
          },
          {
            "duration": 0.06637162499998794,
            "durationTicks": 48,
            "midi": 60,
            "name": "C4",
            "ticks": 101088,
            "time": 139.77864225000002,
            "velocity": 0.29133858267716534
          },
          {
            "duration": 0.06637162500001637,
            "durationTicks": 48,
            "midi": 36,
            "name": "C2",
            "ticks": 101184,
            "time": 139.9113855,
            "velocity": 0.3937007874015748
          },
          {
            "duration": 0.06637162500001637,
            "durationTicks": 48,
            "midi": 60,
            "name": "C4",
            "ticks": 101184,
            "time": 139.9113855,
            "velocity": 0.29133858267716534
          },
          {
            "duration": 0.06637162500001637,
            "durationTicks": 48,
            "midi": 42,
            "name": "F#2",
            "ticks": 101184,
            "time": 139.9113855,
            "velocity": 0.29133858267716534
          },
          {
            "duration": 0.06637162500001637,
            "durationTicks": 48,
            "midi": 38,
            "name": "D2",
            "ticks": 101184,
            "time": 139.9113855,
            "velocity": 0.29133858267716534
          },
          {
            "duration": 0.06637162500001637,
            "durationTicks": 48,
            "midi": 39,
            "name": "D#2",
            "ticks": 101184,
            "time": 139.9113855,
            "velocity": 0.3937007874015748
          },
          {
            "duration": 0.06637162500001637,
            "durationTicks": 48,
            "midi": 60,
            "name": "C4",
            "ticks": 101280,
            "time": 140.04412875,
            "velocity": 0.29133858267716534
          },
          {
            "duration": 0.06637162500001637,
            "durationTicks": 48,
            "midi": 46,
            "name": "A#2",
            "ticks": 101376,
            "time": 140.176872,
            "velocity": 0.29133858267716534
          },
          {
            "duration": 0.06637162500001637,
            "durationTicks": 48,
            "midi": 63,
            "name": "D#4",
            "ticks": 101376,
            "time": 140.176872,
            "velocity": 0.29133858267716534
          },
          {
            "duration": 0.06637162500001637,
            "durationTicks": 48,
            "midi": 70,
            "name": "A#4",
            "ticks": 101376,
            "time": 140.176872,
            "velocity": 0.29133858267716534
          },
          {
            "duration": 0.06637162499998794,
            "durationTicks": 48,
            "midi": 70,
            "name": "A#4",
            "ticks": 101472,
            "time": 140.30961525,
            "velocity": 0.29133858267716534
          },
          {
            "duration": 0.06637162499998794,
            "durationTicks": 48,
            "midi": 60,
            "name": "C4",
            "ticks": 101568,
            "time": 140.4423585,
            "velocity": 0.29133858267716534
          },
          {
            "duration": 0.06637162499998794,
            "durationTicks": 48,
            "midi": 42,
            "name": "F#2",
            "ticks": 101568,
            "time": 140.4423585,
            "velocity": 0.29133858267716534
          },
          {
            "duration": 0.06637162499998794,
            "durationTicks": 48,
            "midi": 36,
            "name": "C2",
            "ticks": 101568,
            "time": 140.4423585,
            "velocity": 0.3937007874015748
          },
          {
            "duration": 0.06637162499998794,
            "durationTicks": 48,
            "midi": 70,
            "name": "A#4",
            "ticks": 101760,
            "time": 140.70784500000002,
            "velocity": 0.29133858267716534
          },
          {
            "duration": 0.06637162499998794,
            "durationTicks": 48,
            "midi": 46,
            "name": "A#2",
            "ticks": 101760,
            "time": 140.70784500000002,
            "velocity": 0.29133858267716534
          },
          {
            "duration": 0.06637162500001637,
            "durationTicks": 48,
            "midi": 60,
            "name": "C4",
            "ticks": 101856,
            "time": 140.84058825,
            "velocity": 0.29133858267716534
          },
          {
            "duration": 0.06637162500001637,
            "durationTicks": 48,
            "midi": 39,
            "name": "D#2",
            "ticks": 101952,
            "time": 140.9733315,
            "velocity": 0.3937007874015748
          },
          {
            "duration": 0.06637162500001637,
            "durationTicks": 48,
            "midi": 38,
            "name": "D2",
            "ticks": 101952,
            "time": 140.9733315,
            "velocity": 0.29133858267716534
          },
          {
            "duration": 0.06637162500001637,
            "durationTicks": 48,
            "midi": 36,
            "name": "C2",
            "ticks": 101952,
            "time": 140.9733315,
            "velocity": 0.3937007874015748
          },
          {
            "duration": 0.06637162500001637,
            "durationTicks": 48,
            "midi": 60,
            "name": "C4",
            "ticks": 101952,
            "time": 140.9733315,
            "velocity": 0.29133858267716534
          },
          {
            "duration": 0.06637162500001637,
            "durationTicks": 48,
            "midi": 42,
            "name": "F#2",
            "ticks": 101952,
            "time": 140.9733315,
            "velocity": 0.29133858267716534
          },
          {
            "duration": 0.06637162500001637,
            "durationTicks": 48,
            "midi": 60,
            "name": "C4",
            "ticks": 102048,
            "time": 141.10607475,
            "velocity": 0.29133858267716534
          },
          {
            "duration": 0.06637162499998794,
            "durationTicks": 48,
            "midi": 63,
            "name": "D#4",
            "ticks": 102144,
            "time": 141.238818,
            "velocity": 0.29133858267716534
          },
          {
            "duration": 0.06637162499998794,
            "durationTicks": 48,
            "midi": 46,
            "name": "A#2",
            "ticks": 102144,
            "time": 141.238818,
            "velocity": 0.29133858267716534
          },
          {
            "duration": 0.06637162499998794,
            "durationTicks": 48,
            "midi": 70,
            "name": "A#4",
            "ticks": 102144,
            "time": 141.238818,
            "velocity": 0.29133858267716534
          },
          {
            "duration": 0.06637162499998794,
            "durationTicks": 48,
            "midi": 70,
            "name": "A#4",
            "ticks": 102240,
            "time": 141.37156125,
            "velocity": 0.29133858267716534
          },
          {
            "duration": 0.06637162499998794,
            "durationTicks": 48,
            "midi": 60,
            "name": "C4",
            "ticks": 102336,
            "time": 141.50430450000002,
            "velocity": 0.29133858267716534
          },
          {
            "duration": 0.06637162499998794,
            "durationTicks": 48,
            "midi": 36,
            "name": "C2",
            "ticks": 102336,
            "time": 141.50430450000002,
            "velocity": 0.3937007874015748
          },
          {
            "duration": 0.06637162499998794,
            "durationTicks": 48,
            "midi": 82,
            "name": "A#5",
            "ticks": 102336,
            "time": 141.50430450000002,
            "velocity": 0.29133858267716534
          },
          {
            "duration": 0.06637162499998794,
            "durationTicks": 48,
            "midi": 42,
            "name": "F#2",
            "ticks": 102336,
            "time": 141.50430450000002,
            "velocity": 0.29133858267716534
          },
          {
            "duration": 0.06637162500001637,
            "durationTicks": 48,
            "midi": 82,
            "name": "A#5",
            "ticks": 102432,
            "time": 141.63704775,
            "velocity": 0.14173228346456693
          },
          {
            "duration": 0.06637162500001637,
            "durationTicks": 48,
            "midi": 46,
            "name": "A#2",
            "ticks": 102528,
            "time": 141.769791,
            "velocity": 0.29133858267716534
          },
          {
            "duration": 0.06637162500001637,
            "durationTicks": 48,
            "midi": 70,
            "name": "A#4",
            "ticks": 102528,
            "time": 141.769791,
            "velocity": 0.29133858267716534
          },
          {
            "duration": 0.06637162500001637,
            "durationTicks": 48,
            "midi": 82,
            "name": "A#5",
            "ticks": 102528,
            "time": 141.769791,
            "velocity": 0.29133858267716534
          },
          {
            "duration": 0.06637162500001637,
            "durationTicks": 48,
            "midi": 82,
            "name": "A#5",
            "ticks": 102624,
            "time": 141.90253425,
            "velocity": 0.29133858267716534
          },
          {
            "duration": 0.06637162500001637,
            "durationTicks": 48,
            "midi": 60,
            "name": "C4",
            "ticks": 102624,
            "time": 141.90253425,
            "velocity": 0.29133858267716534
          },
          {
            "duration": 0.06637162499998794,
            "durationTicks": 48,
            "midi": 60,
            "name": "C4",
            "ticks": 102720,
            "time": 142.0352775,
            "velocity": 0.29133858267716534
          },
          {
            "duration": 0.06637162499998794,
            "durationTicks": 48,
            "midi": 42,
            "name": "F#2",
            "ticks": 102720,
            "time": 142.0352775,
            "velocity": 0.29133858267716534
          },
          {
            "duration": 0.06637162499998794,
            "durationTicks": 48,
            "midi": 36,
            "name": "C2",
            "ticks": 102720,
            "time": 142.0352775,
            "velocity": 0.3937007874015748
          },
          {
            "duration": 0.06637162499998794,
            "durationTicks": 48,
            "midi": 39,
            "name": "D#2",
            "ticks": 102720,
            "time": 142.0352775,
            "velocity": 0.3937007874015748
          },
          {
            "duration": 0.06637162499998794,
            "durationTicks": 48,
            "midi": 38,
            "name": "D2",
            "ticks": 102720,
            "time": 142.0352775,
            "velocity": 0.29133858267716534
          },
          {
            "duration": 0.06637162499998794,
            "durationTicks": 48,
            "midi": 60,
            "name": "C4",
            "ticks": 102816,
            "time": 142.16802075,
            "velocity": 0.29133858267716534
          },
          {
            "duration": 0.06637162499998794,
            "durationTicks": 48,
            "midi": 70,
            "name": "A#4",
            "ticks": 102912,
            "time": 142.30076400000002,
            "velocity": 0.29133858267716534
          },
          {
            "duration": 0.06637162499998794,
            "durationTicks": 48,
            "midi": 42,
            "name": "F#2",
            "ticks": 102912,
            "time": 142.30076400000002,
            "velocity": 0.3937007874015748
          },
          {
            "duration": 0.06637162499998794,
            "durationTicks": 48,
            "midi": 63,
            "name": "D#4",
            "ticks": 102912,
            "time": 142.30076400000002,
            "velocity": 0.29133858267716534
          },
          {
            "duration": 0.06637162499998794,
            "durationTicks": 48,
            "midi": 42,
            "name": "F#2",
            "ticks": 103008,
            "time": 142.43350725000002,
            "velocity": 0.3937007874015748
          },
          {
            "duration": 0.06637162499998794,
            "durationTicks": 48,
            "midi": 70,
            "name": "A#4",
            "ticks": 103008,
            "time": 142.43350725000002,
            "velocity": 0.29133858267716534
          },
          {
            "duration": 0.06637162500001637,
            "durationTicks": 48,
            "midi": 36,
            "name": "C2",
            "ticks": 103104,
            "time": 142.5662505,
            "velocity": 0.3937007874015748
          },
          {
            "duration": 0.06637162500001637,
            "durationTicks": 48,
            "midi": 60,
            "name": "C4",
            "ticks": 103104,
            "time": 142.5662505,
            "velocity": 0.29133858267716534
          },
          {
            "duration": 0.06637162500001637,
            "durationTicks": 48,
            "midi": 42,
            "name": "F#2",
            "ticks": 103104,
            "time": 142.5662505,
            "velocity": 0.29133858267716534
          },
          {
            "duration": 0.06637162500001637,
            "durationTicks": 48,
            "midi": 70,
            "name": "A#4",
            "ticks": 103296,
            "time": 142.831737,
            "velocity": 0.29133858267716534
          },
          {
            "duration": 0.06637162500001637,
            "durationTicks": 48,
            "midi": 46,
            "name": "A#2",
            "ticks": 103296,
            "time": 142.831737,
            "velocity": 0.29133858267716534
          },
          {
            "duration": 0.06637162499998794,
            "durationTicks": 48,
            "midi": 60,
            "name": "C4",
            "ticks": 103392,
            "time": 142.96448025,
            "velocity": 0.29133858267716534
          },
          {
            "duration": 0.06637162499998794,
            "durationTicks": 48,
            "midi": 36,
            "name": "C2",
            "ticks": 103488,
            "time": 143.0972235,
            "velocity": 0.3937007874015748
          },
          {
            "duration": 0.06637162499998794,
            "durationTicks": 48,
            "midi": 42,
            "name": "F#2",
            "ticks": 103488,
            "time": 143.0972235,
            "velocity": 0.29133858267716534
          },
          {
            "duration": 0.06637162499998794,
            "durationTicks": 48,
            "midi": 38,
            "name": "D2",
            "ticks": 103488,
            "time": 143.0972235,
            "velocity": 0.29133858267716534
          },
          {
            "duration": 0.06637162499998794,
            "durationTicks": 48,
            "midi": 60,
            "name": "C4",
            "ticks": 103488,
            "time": 143.0972235,
            "velocity": 0.29133858267716534
          },
          {
            "duration": 0.06637162499998794,
            "durationTicks": 48,
            "midi": 39,
            "name": "D#2",
            "ticks": 103488,
            "time": 143.0972235,
            "velocity": 0.3937007874015748
          },
          {
            "duration": 0.06637162499998794,
            "durationTicks": 48,
            "midi": 60,
            "name": "C4",
            "ticks": 103584,
            "time": 143.22996675000002,
            "velocity": 0.29133858267716534
          },
          {
            "duration": 0.06637162499998794,
            "durationTicks": 48,
            "midi": 63,
            "name": "D#4",
            "ticks": 103680,
            "time": 143.36271000000002,
            "velocity": 0.29133858267716534
          },
          {
            "duration": 0.06637162499998794,
            "durationTicks": 48,
            "midi": 70,
            "name": "A#4",
            "ticks": 103680,
            "time": 143.36271000000002,
            "velocity": 0.29133858267716534
          },
          {
            "duration": 0.06637162499998794,
            "durationTicks": 48,
            "midi": 46,
            "name": "A#2",
            "ticks": 103680,
            "time": 143.36271000000002,
            "velocity": 0.29133858267716534
          },
          {
            "duration": 0.06637162500001637,
            "durationTicks": 48,
            "midi": 70,
            "name": "A#4",
            "ticks": 103776,
            "time": 143.49545325,
            "velocity": 0.29133858267716534
          },
          {
            "duration": 0.06637162500001637,
            "durationTicks": 48,
            "midi": 42,
            "name": "F#2",
            "ticks": 103872,
            "time": 143.6281965,
            "velocity": 0.29133858267716534
          },
          {
            "duration": 0.06637162500001637,
            "durationTicks": 48,
            "midi": 60,
            "name": "C4",
            "ticks": 103872,
            "time": 143.6281965,
            "velocity": 0.29133858267716534
          },
          {
            "duration": 0.06637162500001637,
            "durationTicks": 48,
            "midi": 36,
            "name": "C2",
            "ticks": 103872,
            "time": 143.6281965,
            "velocity": 0.3937007874015748
          },
          {
            "duration": 0.06637162499998794,
            "durationTicks": 48,
            "midi": 46,
            "name": "A#2",
            "ticks": 104064,
            "time": 143.893683,
            "velocity": 0.29133858267716534
          },
          {
            "duration": 0.06637162499998794,
            "durationTicks": 48,
            "midi": 70,
            "name": "A#4",
            "ticks": 104064,
            "time": 143.893683,
            "velocity": 0.29133858267716534
          },
          {
            "duration": 0.06637162499998794,
            "durationTicks": 48,
            "midi": 60,
            "name": "C4",
            "ticks": 104160,
            "time": 144.02642625000001,
            "velocity": 0.29133858267716534
          },
          {
            "duration": 0.06637162499998794,
            "durationTicks": 48,
            "midi": 60,
            "name": "C4",
            "ticks": 104256,
            "time": 144.15916950000002,
            "velocity": 0.29133858267716534
          },
          {
            "duration": 0.06637162499998794,
            "durationTicks": 48,
            "midi": 36,
            "name": "C2",
            "ticks": 104256,
            "time": 144.15916950000002,
            "velocity": 0.3937007874015748
          },
          {
            "duration": 0.06637162499998794,
            "durationTicks": 48,
            "midi": 42,
            "name": "F#2",
            "ticks": 104256,
            "time": 144.15916950000002,
            "velocity": 0.29133858267716534
          },
          {
            "duration": 0.06637162499998794,
            "durationTicks": 48,
            "midi": 38,
            "name": "D2",
            "ticks": 104256,
            "time": 144.15916950000002,
            "velocity": 0.29133858267716534
          },
          {
            "duration": 0.06637162499998794,
            "durationTicks": 48,
            "midi": 39,
            "name": "D#2",
            "ticks": 104256,
            "time": 144.15916950000002,
            "velocity": 0.3937007874015748
          },
          {
            "duration": 0.06637162500001637,
            "durationTicks": 48,
            "midi": 60,
            "name": "C4",
            "ticks": 104352,
            "time": 144.29191275,
            "velocity": 0.29133858267716534
          },
          {
            "duration": 0.06637162500001637,
            "durationTicks": 48,
            "midi": 63,
            "name": "D#4",
            "ticks": 104448,
            "time": 144.424656,
            "velocity": 0.29133858267716534
          },
          {
            "duration": 0.06637162500001637,
            "durationTicks": 48,
            "midi": 46,
            "name": "A#2",
            "ticks": 104448,
            "time": 144.424656,
            "velocity": 0.29133858267716534
          },
          {
            "duration": 0.06637162500001637,
            "durationTicks": 48,
            "midi": 70,
            "name": "A#4",
            "ticks": 104448,
            "time": 144.424656,
            "velocity": 0.29133858267716534
          },
          {
            "duration": 0.06637162500001637,
            "durationTicks": 48,
            "midi": 70,
            "name": "A#4",
            "ticks": 104544,
            "time": 144.55739925,
            "velocity": 0.29133858267716534
          },
          {
            "duration": 0.06637162499998794,
            "durationTicks": 48,
            "midi": 36,
            "name": "C2",
            "ticks": 104640,
            "time": 144.6901425,
            "velocity": 0.3937007874015748
          },
          {
            "duration": 0.06637162499998794,
            "durationTicks": 48,
            "midi": 42,
            "name": "F#2",
            "ticks": 104640,
            "time": 144.6901425,
            "velocity": 0.29133858267716534
          },
          {
            "duration": 0.06637162499998794,
            "durationTicks": 48,
            "midi": 60,
            "name": "C4",
            "ticks": 104640,
            "time": 144.6901425,
            "velocity": 0.29133858267716534
          },
          {
            "duration": 0.06637162499998794,
            "durationTicks": 48,
            "midi": 46,
            "name": "A#2",
            "ticks": 104832,
            "time": 144.95562900000002,
            "velocity": 0.29133858267716534
          },
          {
            "duration": 0.06637162499998794,
            "durationTicks": 48,
            "midi": 70,
            "name": "A#4",
            "ticks": 104832,
            "time": 144.95562900000002,
            "velocity": 0.29133858267716534
          },
          {
            "duration": 0.06637162499998794,
            "durationTicks": 48,
            "midi": 60,
            "name": "C4",
            "ticks": 104928,
            "time": 145.08837225000002,
            "velocity": 0.29133858267716534
          },
          {
            "duration": 0.06637162500001637,
            "durationTicks": 48,
            "midi": 60,
            "name": "C4",
            "ticks": 105024,
            "time": 145.2211155,
            "velocity": 0.29133858267716534
          },
          {
            "duration": 0.06637162500001637,
            "durationTicks": 48,
            "midi": 39,
            "name": "D#2",
            "ticks": 105024,
            "time": 145.2211155,
            "velocity": 0.3937007874015748
          },
          {
            "duration": 0.06637162500001637,
            "durationTicks": 48,
            "midi": 36,
            "name": "C2",
            "ticks": 105024,
            "time": 145.2211155,
            "velocity": 0.3937007874015748
          },
          {
            "duration": 0.06637162500001637,
            "durationTicks": 48,
            "midi": 42,
            "name": "F#2",
            "ticks": 105024,
            "time": 145.2211155,
            "velocity": 0.29133858267716534
          },
          {
            "duration": 0.06637162500001637,
            "durationTicks": 48,
            "midi": 38,
            "name": "D2",
            "ticks": 105024,
            "time": 145.2211155,
            "velocity": 0.29133858267716534
          },
          {
            "duration": 0.06637162500001637,
            "durationTicks": 48,
            "midi": 60,
            "name": "C4",
            "ticks": 105120,
            "time": 145.35385875,
            "velocity": 0.29133858267716534
          },
          {
            "duration": 0.06637162500001637,
            "durationTicks": 48,
            "midi": 46,
            "name": "A#2",
            "ticks": 105216,
            "time": 145.486602,
            "velocity": 0.29133858267716534
          },
          {
            "duration": 0.06637162500001637,
            "durationTicks": 48,
            "midi": 70,
            "name": "A#4",
            "ticks": 105216,
            "time": 145.486602,
            "velocity": 0.29133858267716534
          },
          {
            "duration": 0.06637162500001637,
            "durationTicks": 48,
            "midi": 63,
            "name": "D#4",
            "ticks": 105216,
            "time": 145.486602,
            "velocity": 0.29133858267716534
          },
          {
            "duration": 0.06637162499998794,
            "durationTicks": 48,
            "midi": 70,
            "name": "A#4",
            "ticks": 105312,
            "time": 145.61934525,
            "velocity": 0.29133858267716534
          },
          {
            "duration": 0.06637162499998794,
            "durationTicks": 48,
            "midi": 82,
            "name": "A#5",
            "ticks": 105408,
            "time": 145.7520885,
            "velocity": 0.29133858267716534
          },
          {
            "duration": 0.06637162499998794,
            "durationTicks": 48,
            "midi": 42,
            "name": "F#2",
            "ticks": 105408,
            "time": 145.7520885,
            "velocity": 0.29133858267716534
          },
          {
            "duration": 0.06637162499998794,
            "durationTicks": 48,
            "midi": 60,
            "name": "C4",
            "ticks": 105408,
            "time": 145.7520885,
            "velocity": 0.29133858267716534
          },
          {
            "duration": 0.06637162499998794,
            "durationTicks": 48,
            "midi": 36,
            "name": "C2",
            "ticks": 105408,
            "time": 145.7520885,
            "velocity": 0.3937007874015748
          },
          {
            "duration": 0.06637162499998794,
            "durationTicks": 48,
            "midi": 82,
            "name": "A#5",
            "ticks": 105504,
            "time": 145.88483175000002,
            "velocity": 0.14173228346456693
          },
          {
            "duration": 0.06637162500001637,
            "durationTicks": 48,
            "midi": 46,
            "name": "A#2",
            "ticks": 105600,
            "time": 146.017575,
            "velocity": 0.29133858267716534
          },
          {
            "duration": 0.06637162500001637,
            "durationTicks": 48,
            "midi": 82,
            "name": "A#5",
            "ticks": 105600,
            "time": 146.017575,
            "velocity": 0.29133858267716534
          },
          {
            "duration": 0.06637162500001637,
            "durationTicks": 48,
            "midi": 70,
            "name": "A#4",
            "ticks": 105600,
            "time": 146.017575,
            "velocity": 0.29133858267716534
          },
          {
            "duration": 0.06637162500001637,
            "durationTicks": 48,
            "midi": 60,
            "name": "C4",
            "ticks": 105696,
            "time": 146.15031825,
            "velocity": 0.29133858267716534
          },
          {
            "duration": 0.06637162500001637,
            "durationTicks": 48,
            "midi": 82,
            "name": "A#5",
            "ticks": 105696,
            "time": 146.15031825,
            "velocity": 0.29133858267716534
          },
          {
            "duration": 0.06637162500001637,
            "durationTicks": 48,
            "midi": 36,
            "name": "C2",
            "ticks": 105792,
            "time": 146.2830615,
            "velocity": 0.3937007874015748
          },
          {
            "duration": 0.06637162500001637,
            "durationTicks": 48,
            "midi": 39,
            "name": "D#2",
            "ticks": 105792,
            "time": 146.2830615,
            "velocity": 0.3937007874015748
          },
          {
            "duration": 0.06637162500001637,
            "durationTicks": 48,
            "midi": 42,
            "name": "F#2",
            "ticks": 105792,
            "time": 146.2830615,
            "velocity": 0.29133858267716534
          },
          {
            "duration": 0.06637162500001637,
            "durationTicks": 48,
            "midi": 38,
            "name": "D2",
            "ticks": 105792,
            "time": 146.2830615,
            "velocity": 0.29133858267716534
          },
          {
            "duration": 0.06637162500001637,
            "durationTicks": 48,
            "midi": 60,
            "name": "C4",
            "ticks": 105792,
            "time": 146.2830615,
            "velocity": 0.29133858267716534
          },
          {
            "duration": 0.06637162499998794,
            "durationTicks": 48,
            "midi": 60,
            "name": "C4",
            "ticks": 105888,
            "time": 146.41580475,
            "velocity": 0.29133858267716534
          },
          {
            "duration": 0.06637162499998794,
            "durationTicks": 48,
            "midi": 42,
            "name": "F#2",
            "ticks": 105984,
            "time": 146.548548,
            "velocity": 0.3937007874015748
          },
          {
            "duration": 0.06637162499998794,
            "durationTicks": 48,
            "midi": 63,
            "name": "D#4",
            "ticks": 105984,
            "time": 146.548548,
            "velocity": 0.29133858267716534
          },
          {
            "duration": 0.06637162499998794,
            "durationTicks": 48,
            "midi": 70,
            "name": "A#4",
            "ticks": 105984,
            "time": 146.548548,
            "velocity": 0.29133858267716534
          },
          {
            "duration": 0.06637162499998794,
            "durationTicks": 48,
            "midi": 70,
            "name": "A#4",
            "ticks": 106080,
            "time": 146.68129125000002,
            "velocity": 0.29133858267716534
          },
          {
            "duration": 0.06637162499998794,
            "durationTicks": 48,
            "midi": 42,
            "name": "F#2",
            "ticks": 106080,
            "time": 146.68129125000002,
            "velocity": 0.3937007874015748
          },
          {
            "duration": 0.06637162499998794,
            "durationTicks": 48,
            "midi": 60,
            "name": "C4",
            "ticks": 106176,
            "time": 146.81403450000002,
            "velocity": 0.29133858267716534
          },
          {
            "duration": 0.06637162499998794,
            "durationTicks": 48,
            "midi": 36,
            "name": "C2",
            "ticks": 106176,
            "time": 146.81403450000002,
            "velocity": 0.3937007874015748
          },
          {
            "duration": 0.06637162499998794,
            "durationTicks": 48,
            "midi": 42,
            "name": "F#2",
            "ticks": 106176,
            "time": 146.81403450000002,
            "velocity": 0.29133858267716534
          },
          {
            "duration": 0.06637162500001637,
            "durationTicks": 48,
            "midi": 46,
            "name": "A#2",
            "ticks": 106368,
            "time": 147.079521,
            "velocity": 0.29133858267716534
          },
          {
            "duration": 0.06637162500001637,
            "durationTicks": 48,
            "midi": 70,
            "name": "A#4",
            "ticks": 106368,
            "time": 147.079521,
            "velocity": 0.29133858267716534
          },
          {
            "duration": 0.06637162500001637,
            "durationTicks": 48,
            "midi": 60,
            "name": "C4",
            "ticks": 106464,
            "time": 147.21226425,
            "velocity": 0.29133858267716534
          },
          {
            "duration": 0.06637162499998794,
            "durationTicks": 48,
            "midi": 60,
            "name": "C4",
            "ticks": 106560,
            "time": 147.3450075,
            "velocity": 0.29133858267716534
          },
          {
            "duration": 0.06637162499998794,
            "durationTicks": 48,
            "midi": 38,
            "name": "D2",
            "ticks": 106560,
            "time": 147.3450075,
            "velocity": 0.29133858267716534
          },
          {
            "duration": 0.06637162499998794,
            "durationTicks": 48,
            "midi": 42,
            "name": "F#2",
            "ticks": 106560,
            "time": 147.3450075,
            "velocity": 0.29133858267716534
          },
          {
            "duration": 0.06637162499998794,
            "durationTicks": 48,
            "midi": 39,
            "name": "D#2",
            "ticks": 106560,
            "time": 147.3450075,
            "velocity": 0.3937007874015748
          },
          {
            "duration": 0.06637162499998794,
            "durationTicks": 48,
            "midi": 36,
            "name": "C2",
            "ticks": 106560,
            "time": 147.3450075,
            "velocity": 0.3937007874015748
          },
          {
            "duration": 0.06637162499998794,
            "durationTicks": 48,
            "midi": 60,
            "name": "C4",
            "ticks": 106656,
            "time": 147.47775075,
            "velocity": 0.29133858267716534
          },
          {
            "duration": 0.06637162499998794,
            "durationTicks": 48,
            "midi": 70,
            "name": "A#4",
            "ticks": 106752,
            "time": 147.61049400000002,
            "velocity": 0.29133858267716534
          },
          {
            "duration": 0.06637162499998794,
            "durationTicks": 48,
            "midi": 46,
            "name": "A#2",
            "ticks": 106752,
            "time": 147.61049400000002,
            "velocity": 0.29133858267716534
          },
          {
            "duration": 0.06637162499998794,
            "durationTicks": 48,
            "midi": 63,
            "name": "D#4",
            "ticks": 106752,
            "time": 147.61049400000002,
            "velocity": 0.29133858267716534
          },
          {
            "duration": 0.06637162499998794,
            "durationTicks": 48,
            "midi": 70,
            "name": "A#4",
            "ticks": 106848,
            "time": 147.74323725000002,
            "velocity": 0.29133858267716534
          },
          {
            "duration": 0.06637162500001637,
            "durationTicks": 48,
            "midi": 60,
            "name": "C4",
            "ticks": 106944,
            "time": 147.8759805,
            "velocity": 0.29133858267716534
          },
          {
            "duration": 0.06637162500001637,
            "durationTicks": 48,
            "midi": 36,
            "name": "C2",
            "ticks": 106944,
            "time": 147.8759805,
            "velocity": 0.3937007874015748
          },
          {
            "duration": 0.06637162500001637,
            "durationTicks": 48,
            "midi": 42,
            "name": "F#2",
            "ticks": 106944,
            "time": 147.8759805,
            "velocity": 0.29133858267716534
          },
          {
            "duration": 0.06637162499998794,
            "durationTicks": 48,
            "midi": 70,
            "name": "A#4",
            "ticks": 107136,
            "time": 148.141467,
            "velocity": 0.29133858267716534
          },
          {
            "duration": 0.06637162499998794,
            "durationTicks": 48,
            "midi": 46,
            "name": "A#2",
            "ticks": 107136,
            "time": 148.141467,
            "velocity": 0.29133858267716534
          },
          {
            "duration": 0.06637162499998794,
            "durationTicks": 48,
            "midi": 60,
            "name": "C4",
            "ticks": 107232,
            "time": 148.27421025,
            "velocity": 0.29133858267716534
          },
          {
            "duration": 0.06637162499998794,
            "durationTicks": 48,
            "midi": 60,
            "name": "C4",
            "ticks": 107328,
            "time": 148.40695350000001,
            "velocity": 0.29133858267716534
          },
          {
            "duration": 0.06637162499998794,
            "durationTicks": 48,
            "midi": 38,
            "name": "D2",
            "ticks": 107328,
            "time": 148.40695350000001,
            "velocity": 0.29133858267716534
          },
          {
            "duration": 0.06637162499998794,
            "durationTicks": 48,
            "midi": 42,
            "name": "F#2",
            "ticks": 107328,
            "time": 148.40695350000001,
            "velocity": 0.29133858267716534
          },
          {
            "duration": 0.06637162499998794,
            "durationTicks": 48,
            "midi": 39,
            "name": "D#2",
            "ticks": 107328,
            "time": 148.40695350000001,
            "velocity": 0.3937007874015748
          },
          {
            "duration": 0.06637162499998794,
            "durationTicks": 48,
            "midi": 36,
            "name": "C2",
            "ticks": 107328,
            "time": 148.40695350000001,
            "velocity": 0.3937007874015748
          },
          {
            "duration": 0.06637162499998794,
            "durationTicks": 48,
            "midi": 60,
            "name": "C4",
            "ticks": 107424,
            "time": 148.53969675000002,
            "velocity": 0.29133858267716534
          },
          {
            "duration": 0.06637162500001637,
            "durationTicks": 48,
            "midi": 70,
            "name": "A#4",
            "ticks": 107520,
            "time": 148.67244,
            "velocity": 0.29133858267716534
          },
          {
            "duration": 0.06637162500001637,
            "durationTicks": 48,
            "midi": 63,
            "name": "D#4",
            "ticks": 107520,
            "time": 148.67244,
            "velocity": 0.29133858267716534
          },
          {
            "duration": 0.06637162500001637,
            "durationTicks": 48,
            "midi": 46,
            "name": "A#2",
            "ticks": 107520,
            "time": 148.67244,
            "velocity": 0.29133858267716534
          },
          {
            "duration": 0.06637162500001637,
            "durationTicks": 48,
            "midi": 70,
            "name": "A#4",
            "ticks": 107616,
            "time": 148.80518325,
            "velocity": 0.29133858267716534
          },
          {
            "duration": 0.06637162500001637,
            "durationTicks": 48,
            "midi": 42,
            "name": "F#2",
            "ticks": 107712,
            "time": 148.9379265,
            "velocity": 0.29133858267716534
          },
          {
            "duration": 0.06637162500001637,
            "durationTicks": 48,
            "midi": 60,
            "name": "C4",
            "ticks": 107712,
            "time": 148.9379265,
            "velocity": 0.29133858267716534
          },
          {
            "duration": 0.06637162500001637,
            "durationTicks": 48,
            "midi": 36,
            "name": "C2",
            "ticks": 107712,
            "time": 148.9379265,
            "velocity": 0.3937007874015748
          },
          {
            "duration": 0.06637162499998794,
            "durationTicks": 48,
            "midi": 70,
            "name": "A#4",
            "ticks": 107904,
            "time": 149.203413,
            "velocity": 0.29133858267716534
          },
          {
            "duration": 0.06637162499998794,
            "durationTicks": 48,
            "midi": 46,
            "name": "A#2",
            "ticks": 107904,
            "time": 149.203413,
            "velocity": 0.29133858267716534
          },
          {
            "duration": 0.06637162499998794,
            "durationTicks": 48,
            "midi": 60,
            "name": "C4",
            "ticks": 108000,
            "time": 149.33615625000002,
            "velocity": 0.29133858267716534
          },
          {
            "duration": 0.06637162499998794,
            "durationTicks": 48,
            "midi": 60,
            "name": "C4",
            "ticks": 108096,
            "time": 149.46889950000002,
            "velocity": 0.29133858267716534
          },
          {
            "duration": 0.06637162499998794,
            "durationTicks": 48,
            "midi": 36,
            "name": "C2",
            "ticks": 108096,
            "time": 149.46889950000002,
            "velocity": 0.3937007874015748
          },
          {
            "duration": 0.06637162499998794,
            "durationTicks": 48,
            "midi": 38,
            "name": "D2",
            "ticks": 108096,
            "time": 149.46889950000002,
            "velocity": 0.29133858267716534
          },
          {
            "duration": 0.06637162499998794,
            "durationTicks": 48,
            "midi": 42,
            "name": "F#2",
            "ticks": 108096,
            "time": 149.46889950000002,
            "velocity": 0.29133858267716534
          },
          {
            "duration": 0.06637162499998794,
            "durationTicks": 48,
            "midi": 39,
            "name": "D#2",
            "ticks": 108096,
            "time": 149.46889950000002,
            "velocity": 0.3937007874015748
          },
          {
            "duration": 0.06637162500001637,
            "durationTicks": 48,
            "midi": 60,
            "name": "C4",
            "ticks": 108192,
            "time": 149.60164275,
            "velocity": 0.29133858267716534
          },
          {
            "duration": 0.06637162500001637,
            "durationTicks": 48,
            "midi": 46,
            "name": "A#2",
            "ticks": 108288,
            "time": 149.734386,
            "velocity": 0.29133858267716534
          },
          {
            "duration": 0.06637162500001637,
            "durationTicks": 48,
            "midi": 63,
            "name": "D#4",
            "ticks": 108288,
            "time": 149.734386,
            "velocity": 0.29133858267716534
          },
          {
            "duration": 0.06637162500001637,
            "durationTicks": 48,
            "midi": 70,
            "name": "A#4",
            "ticks": 108288,
            "time": 149.734386,
            "velocity": 0.29133858267716534
          },
          {
            "duration": 0.06637162500001637,
            "durationTicks": 48,
            "midi": 70,
            "name": "A#4",
            "ticks": 108384,
            "time": 149.86712925,
            "velocity": 0.29133858267716534
          },
          {
            "duration": 0.06637162499998794,
            "durationTicks": 48,
            "midi": 60,
            "name": "C4",
            "ticks": 108480,
            "time": 149.9998725,
            "velocity": 0.29133858267716534
          },
          {
            "duration": 0.06637162499998794,
            "durationTicks": 48,
            "midi": 36,
            "name": "C2",
            "ticks": 108480,
            "time": 149.9998725,
            "velocity": 0.3937007874015748
          },
          {
            "duration": 0.06637162499998794,
            "durationTicks": 48,
            "midi": 82,
            "name": "A#5",
            "ticks": 108480,
            "time": 149.9998725,
            "velocity": 0.29133858267716534
          },
          {
            "duration": 0.06637162499998794,
            "durationTicks": 48,
            "midi": 42,
            "name": "F#2",
            "ticks": 108480,
            "time": 149.9998725,
            "velocity": 0.29133858267716534
          },
          {
            "duration": 0.06637162499998794,
            "durationTicks": 48,
            "midi": 82,
            "name": "A#5",
            "ticks": 108576,
            "time": 150.13261575,
            "velocity": 0.14173228346456693
          },
          {
            "duration": 0.06637162499998794,
            "durationTicks": 48,
            "midi": 46,
            "name": "A#2",
            "ticks": 108672,
            "time": 150.26535900000002,
            "velocity": 0.29133858267716534
          },
          {
            "duration": 0.06637162499998794,
            "durationTicks": 48,
            "midi": 70,
            "name": "A#4",
            "ticks": 108672,
            "time": 150.26535900000002,
            "velocity": 0.29133858267716534
          },
          {
            "duration": 0.06637162499998794,
            "durationTicks": 48,
            "midi": 82,
            "name": "A#5",
            "ticks": 108672,
            "time": 150.26535900000002,
            "velocity": 0.29133858267716534
          },
          {
            "duration": 0.06637162499998794,
            "durationTicks": 48,
            "midi": 60,
            "name": "C4",
            "ticks": 108768,
            "time": 150.39810225000002,
            "velocity": 0.29133858267716534
          },
          {
            "duration": 0.06637162499998794,
            "durationTicks": 48,
            "midi": 82,
            "name": "A#5",
            "ticks": 108768,
            "time": 150.39810225000002,
            "velocity": 0.29133858267716534
          },
          {
            "duration": 0.06637162500001637,
            "durationTicks": 48,
            "midi": 36,
            "name": "C2",
            "ticks": 108864,
            "time": 150.5308455,
            "velocity": 0.3937007874015748
          },
          {
            "duration": 0.06637162500001637,
            "durationTicks": 48,
            "midi": 38,
            "name": "D2",
            "ticks": 108864,
            "time": 150.5308455,
            "velocity": 0.29133858267716534
          },
          {
            "duration": 0.06637162500001637,
            "durationTicks": 48,
            "midi": 39,
            "name": "D#2",
            "ticks": 108864,
            "time": 150.5308455,
            "velocity": 0.3937007874015748
          },
          {
            "duration": 0.06637162500001637,
            "durationTicks": 48,
            "midi": 42,
            "name": "F#2",
            "ticks": 108864,
            "time": 150.5308455,
            "velocity": 0.29133858267716534
          },
          {
            "duration": 0.06637162500001637,
            "durationTicks": 48,
            "midi": 60,
            "name": "C4",
            "ticks": 108864,
            "time": 150.5308455,
            "velocity": 0.29133858267716534
          },
          {
            "duration": 0.06637162500001637,
            "durationTicks": 48,
            "midi": 60,
            "name": "C4",
            "ticks": 108960,
            "time": 150.66358875,
            "velocity": 0.29133858267716534
          },
          {
            "duration": 0.06637162499998794,
            "durationTicks": 48,
            "midi": 42,
            "name": "F#2",
            "ticks": 109056,
            "time": 150.796332,
            "velocity": 0.3937007874015748
          },
          {
            "duration": 0.06637162499998794,
            "durationTicks": 48,
            "midi": 63,
            "name": "D#4",
            "ticks": 109056,
            "time": 150.796332,
            "velocity": 0.29133858267716534
          },
          {
            "duration": 0.06637162499998794,
            "durationTicks": 48,
            "midi": 70,
            "name": "A#4",
            "ticks": 109056,
            "time": 150.796332,
            "velocity": 0.29133858267716534
          },
          {
            "duration": 0.06637162499998794,
            "durationTicks": 48,
            "midi": 70,
            "name": "A#4",
            "ticks": 109152,
            "time": 150.92907525,
            "velocity": 0.29133858267716534
          },
          {
            "duration": 0.06637162499998794,
            "durationTicks": 48,
            "midi": 42,
            "name": "F#2",
            "ticks": 109152,
            "time": 150.92907525,
            "velocity": 0.3937007874015748
          },
          {
            "duration": 0.06637162499998794,
            "durationTicks": 48,
            "midi": 36,
            "name": "C2",
            "ticks": 109248,
            "time": 151.06181850000002,
            "velocity": 0.3937007874015748
          },
          {
            "duration": 0.06637162499998794,
            "durationTicks": 48,
            "midi": 60,
            "name": "C4",
            "ticks": 109248,
            "time": 151.06181850000002,
            "velocity": 0.29133858267716534
          },
          {
            "duration": 0.06637162499998794,
            "durationTicks": 48,
            "midi": 42,
            "name": "F#2",
            "ticks": 109248,
            "time": 151.06181850000002,
            "velocity": 0.29133858267716534
          },
          {
            "duration": 0.06637162500001637,
            "durationTicks": 48,
            "midi": 46,
            "name": "A#2",
            "ticks": 109440,
            "time": 151.327305,
            "velocity": 0.29133858267716534
          },
          {
            "duration": 0.06637162500001637,
            "durationTicks": 48,
            "midi": 70,
            "name": "A#4",
            "ticks": 109440,
            "time": 151.327305,
            "velocity": 0.29133858267716534
          },
          {
            "duration": 0.06637162500001637,
            "durationTicks": 48,
            "midi": 60,
            "name": "C4",
            "ticks": 109536,
            "time": 151.46004825,
            "velocity": 0.29133858267716534
          },
          {
            "duration": 0.06637162500001637,
            "durationTicks": 48,
            "midi": 36,
            "name": "C2",
            "ticks": 109632,
            "time": 151.5927915,
            "velocity": 0.3937007874015748
          },
          {
            "duration": 0.06637162500001637,
            "durationTicks": 48,
            "midi": 60,
            "name": "C4",
            "ticks": 109632,
            "time": 151.5927915,
            "velocity": 0.29133858267716534
          },
          {
            "duration": 0.06637162500001637,
            "durationTicks": 48,
            "midi": 42,
            "name": "F#2",
            "ticks": 109632,
            "time": 151.5927915,
            "velocity": 0.29133858267716534
          },
          {
            "duration": 0.06637162500001637,
            "durationTicks": 48,
            "midi": 39,
            "name": "D#2",
            "ticks": 109632,
            "time": 151.5927915,
            "velocity": 0.3937007874015748
          },
          {
            "duration": 0.06637162500001637,
            "durationTicks": 48,
            "midi": 38,
            "name": "D2",
            "ticks": 109632,
            "time": 151.5927915,
            "velocity": 0.29133858267716534
          },
          {
            "duration": 0.06637162499998794,
            "durationTicks": 48,
            "midi": 60,
            "name": "C4",
            "ticks": 109728,
            "time": 151.72553475,
            "velocity": 0.29133858267716534
          },
          {
            "duration": 0.06637162499998794,
            "durationTicks": 48,
            "midi": 63,
            "name": "D#4",
            "ticks": 109824,
            "time": 151.858278,
            "velocity": 0.29133858267716534
          },
          {
            "duration": 0.06637162499998794,
            "durationTicks": 48,
            "midi": 70,
            "name": "A#4",
            "ticks": 109824,
            "time": 151.858278,
            "velocity": 0.29133858267716534
          },
          {
            "duration": 0.06637162499998794,
            "durationTicks": 48,
            "midi": 46,
            "name": "A#2",
            "ticks": 109824,
            "time": 151.858278,
            "velocity": 0.29133858267716534
          },
          {
            "duration": 0.06637162499998794,
            "durationTicks": 48,
            "midi": 70,
            "name": "A#4",
            "ticks": 109920,
            "time": 151.99102125000002,
            "velocity": 0.29133858267716534
          },
          {
            "duration": 0.06637162499998794,
            "durationTicks": 48,
            "midi": 36,
            "name": "C2",
            "ticks": 110016,
            "time": 152.12376450000002,
            "velocity": 0.3937007874015748
          },
          {
            "duration": 0.06637162499998794,
            "durationTicks": 48,
            "midi": 42,
            "name": "F#2",
            "ticks": 110016,
            "time": 152.12376450000002,
            "velocity": 0.29133858267716534
          },
          {
            "duration": 0.06637162499998794,
            "durationTicks": 48,
            "midi": 60,
            "name": "C4",
            "ticks": 110016,
            "time": 152.12376450000002,
            "velocity": 0.29133858267716534
          },
          {
            "duration": 0.06637162500001637,
            "durationTicks": 48,
            "midi": 46,
            "name": "A#2",
            "ticks": 110208,
            "time": 152.389251,
            "velocity": 0.29133858267716534
          },
          {
            "duration": 0.06637162500001637,
            "durationTicks": 48,
            "midi": 70,
            "name": "A#4",
            "ticks": 110208,
            "time": 152.389251,
            "velocity": 0.29133858267716534
          },
          {
            "duration": 0.06637162500001637,
            "durationTicks": 48,
            "midi": 60,
            "name": "C4",
            "ticks": 110304,
            "time": 152.52199425,
            "velocity": 0.29133858267716534
          },
          {
            "duration": 0.06637162499998794,
            "durationTicks": 48,
            "midi": 36,
            "name": "C2",
            "ticks": 110400,
            "time": 152.6547375,
            "velocity": 0.3937007874015748
          },
          {
            "duration": 0.06637162499998794,
            "durationTicks": 48,
            "midi": 39,
            "name": "D#2",
            "ticks": 110400,
            "time": 152.6547375,
            "velocity": 0.3937007874015748
          },
          {
            "duration": 0.06637162499998794,
            "durationTicks": 48,
            "midi": 38,
            "name": "D2",
            "ticks": 110400,
            "time": 152.6547375,
            "velocity": 0.29133858267716534
          },
          {
            "duration": 0.06637162499998794,
            "durationTicks": 48,
            "midi": 42,
            "name": "F#2",
            "ticks": 110400,
            "time": 152.6547375,
            "velocity": 0.29133858267716534
          },
          {
            "duration": 0.06637162499998794,
            "durationTicks": 48,
            "midi": 60,
            "name": "C4",
            "ticks": 110400,
            "time": 152.6547375,
            "velocity": 0.29133858267716534
          },
          {
            "duration": 0.06637162499998794,
            "durationTicks": 48,
            "midi": 60,
            "name": "C4",
            "ticks": 110496,
            "time": 152.78748075000001,
            "velocity": 0.29133858267716534
          },
          {
            "duration": 0.06637162499998794,
            "durationTicks": 48,
            "midi": 63,
            "name": "D#4",
            "ticks": 110592,
            "time": 152.92022400000002,
            "velocity": 0.29133858267716534
          },
          {
            "duration": 0.06637162499998794,
            "durationTicks": 48,
            "midi": 46,
            "name": "A#2",
            "ticks": 110592,
            "time": 152.92022400000002,
            "velocity": 0.29133858267716534
          },
          {
            "duration": 0.06637162499998794,
            "durationTicks": 48,
            "midi": 70,
            "name": "A#4",
            "ticks": 110592,
            "time": 152.92022400000002,
            "velocity": 0.29133858267716534
          },
          {
            "duration": 0.06637162500001637,
            "durationTicks": 48,
            "midi": 70,
            "name": "A#4",
            "ticks": 110688,
            "time": 153.05296725,
            "velocity": 0.29133858267716534
          },
          {
            "duration": 0.06637162500001637,
            "durationTicks": 48,
            "midi": 36,
            "name": "C2",
            "ticks": 110784,
            "time": 153.1857105,
            "velocity": 0.3937007874015748
          },
          {
            "duration": 0.06637162500001637,
            "durationTicks": 48,
            "midi": 42,
            "name": "F#2",
            "ticks": 110784,
            "time": 153.1857105,
            "velocity": 0.29133858267716534
          },
          {
            "duration": 0.06637162500001637,
            "durationTicks": 48,
            "midi": 60,
            "name": "C4",
            "ticks": 110784,
            "time": 153.1857105,
            "velocity": 0.29133858267716534
          },
          {
            "duration": 0.06637162499998794,
            "durationTicks": 48,
            "midi": 70,
            "name": "A#4",
            "ticks": 110976,
            "time": 153.451197,
            "velocity": 0.29133858267716534
          },
          {
            "duration": 0.06637162499998794,
            "durationTicks": 48,
            "midi": 46,
            "name": "A#2",
            "ticks": 110976,
            "time": 153.451197,
            "velocity": 0.29133858267716534
          },
          {
            "duration": 0.06637162499998794,
            "durationTicks": 48,
            "midi": 60,
            "name": "C4",
            "ticks": 111072,
            "time": 153.58394025,
            "velocity": 0.29133858267716534
          },
          {
            "duration": 0.06637162499998794,
            "durationTicks": 48,
            "midi": 60,
            "name": "C4",
            "ticks": 111168,
            "time": 153.71668350000002,
            "velocity": 0.29133858267716534
          },
          {
            "duration": 0.06637162499998794,
            "durationTicks": 48,
            "midi": 38,
            "name": "D2",
            "ticks": 111168,
            "time": 153.71668350000002,
            "velocity": 0.29133858267716534
          },
          {
            "duration": 0.06637162499998794,
            "durationTicks": 48,
            "midi": 39,
            "name": "D#2",
            "ticks": 111168,
            "time": 153.71668350000002,
            "velocity": 0.3937007874015748
          },
          {
            "duration": 0.06637162499998794,
            "durationTicks": 48,
            "midi": 36,
            "name": "C2",
            "ticks": 111168,
            "time": 153.71668350000002,
            "velocity": 0.3937007874015748
          },
          {
            "duration": 0.06637162499998794,
            "durationTicks": 48,
            "midi": 42,
            "name": "F#2",
            "ticks": 111168,
            "time": 153.71668350000002,
            "velocity": 0.29133858267716534
          },
          {
            "duration": 0.06637162499998794,
            "durationTicks": 48,
            "midi": 60,
            "name": "C4",
            "ticks": 111264,
            "time": 153.84942675000002,
            "velocity": 0.29133858267716534
          },
          {
            "duration": 0.06637162500001637,
            "durationTicks": 48,
            "midi": 70,
            "name": "A#4",
            "ticks": 111360,
            "time": 153.98217,
            "velocity": 0.29133858267716534
          },
          {
            "duration": 0.06637162500001637,
            "durationTicks": 48,
            "midi": 63,
            "name": "D#4",
            "ticks": 111360,
            "time": 153.98217,
            "velocity": 0.29133858267716534
          },
          {
            "duration": 0.06637162500001637,
            "durationTicks": 48,
            "midi": 46,
            "name": "A#2",
            "ticks": 111360,
            "time": 153.98217,
            "velocity": 0.29133858267716534
          },
          {
            "duration": 0.06637162500001637,
            "durationTicks": 48,
            "midi": 70,
            "name": "A#4",
            "ticks": 111456,
            "time": 154.11491325,
            "velocity": 0.29133858267716534
          },
          {
            "duration": 0.06637162500001637,
            "durationTicks": 48,
            "midi": 60,
            "name": "C4",
            "ticks": 111552,
            "time": 154.2476565,
            "velocity": 0.29133858267716534
          },
          {
            "duration": 0.06637162500001637,
            "durationTicks": 48,
            "midi": 42,
            "name": "F#2",
            "ticks": 111552,
            "time": 154.2476565,
            "velocity": 0.29133858267716534
          },
          {
            "duration": 0.06637162500001637,
            "durationTicks": 48,
            "midi": 36,
            "name": "C2",
            "ticks": 111552,
            "time": 154.2476565,
            "velocity": 0.3937007874015748
          },
          {
            "duration": 0.06637162500001637,
            "durationTicks": 48,
            "midi": 82,
            "name": "A#5",
            "ticks": 111552,
            "time": 154.2476565,
            "velocity": 0.29133858267716534
          },
          {
            "duration": 0.06637162499998794,
            "durationTicks": 48,
            "midi": 82,
            "name": "A#5",
            "ticks": 111648,
            "time": 154.38039975,
            "velocity": 0.14173228346456693
          },
          {
            "duration": 0.06637162499998794,
            "durationTicks": 48,
            "midi": 46,
            "name": "A#2",
            "ticks": 111744,
            "time": 154.513143,
            "velocity": 0.29133858267716534
          },
          {
            "duration": 0.06637162499998794,
            "durationTicks": 48,
            "midi": 70,
            "name": "A#4",
            "ticks": 111744,
            "time": 154.513143,
            "velocity": 0.29133858267716534
          },
          {
            "duration": 0.06637162499998794,
            "durationTicks": 48,
            "midi": 82,
            "name": "A#5",
            "ticks": 111744,
            "time": 154.513143,
            "velocity": 0.29133858267716534
          },
          {
            "duration": 0.06637162499998794,
            "durationTicks": 48,
            "midi": 82,
            "name": "A#5",
            "ticks": 111840,
            "time": 154.64588625000002,
            "velocity": 0.29133858267716534
          },
          {
            "duration": 0.06637162499998794,
            "durationTicks": 48,
            "midi": 60,
            "name": "C4",
            "ticks": 111840,
            "time": 154.64588625000002,
            "velocity": 0.29133858267716534
          },
          {
            "duration": 0.06637162499998794,
            "durationTicks": 48,
            "midi": 39,
            "name": "D#2",
            "ticks": 111936,
            "time": 154.77862950000002,
            "velocity": 0.3937007874015748
          },
          {
            "duration": 0.06637162499998794,
            "durationTicks": 48,
            "midi": 36,
            "name": "C2",
            "ticks": 111936,
            "time": 154.77862950000002,
            "velocity": 0.3937007874015748
          },
          {
            "duration": 0.06637162499998794,
            "durationTicks": 48,
            "midi": 38,
            "name": "D2",
            "ticks": 111936,
            "time": 154.77862950000002,
            "velocity": 0.29133858267716534
          },
          {
            "duration": 0.06637162499998794,
            "durationTicks": 48,
            "midi": 42,
            "name": "F#2",
            "ticks": 111936,
            "time": 154.77862950000002,
            "velocity": 0.29133858267716534
          },
          {
            "duration": 0.06637162499998794,
            "durationTicks": 48,
            "midi": 60,
            "name": "C4",
            "ticks": 111936,
            "time": 154.77862950000002,
            "velocity": 0.29133858267716534
          },
          {
            "duration": 0.06637162500001637,
            "durationTicks": 48,
            "midi": 60,
            "name": "C4",
            "ticks": 112032,
            "time": 154.91137275,
            "velocity": 0.29133858267716534
          },
          {
            "duration": 0.06637162500001637,
            "durationTicks": 48,
            "midi": 70,
            "name": "A#4",
            "ticks": 112128,
            "time": 155.044116,
            "velocity": 0.29133858267716534
          },
          {
            "duration": 0.06637162500001637,
            "durationTicks": 48,
            "midi": 63,
            "name": "D#4",
            "ticks": 112128,
            "time": 155.044116,
            "velocity": 0.29133858267716534
          },
          {
            "duration": 0.06637162500001637,
            "durationTicks": 48,
            "midi": 42,
            "name": "F#2",
            "ticks": 112128,
            "time": 155.044116,
            "velocity": 0.3937007874015748
          },
          {
            "duration": 0.06637162499998794,
            "durationTicks": 48,
            "midi": 70,
            "name": "A#4",
            "ticks": 112224,
            "time": 155.17685925,
            "velocity": 0.29133858267716534
          },
          {
            "duration": 0.06637162499998794,
            "durationTicks": 48,
            "midi": 42,
            "name": "F#2",
            "ticks": 112224,
            "time": 155.17685925,
            "velocity": 0.3937007874015748
          },
          {
            "duration": 0.06637162499998794,
            "durationTicks": 48,
            "midi": 42,
            "name": "F#2",
            "ticks": 112320,
            "time": 155.3096025,
            "velocity": 0.29133858267716534
          },
          {
            "duration": 0.06637162499998794,
            "durationTicks": 48,
            "midi": 36,
            "name": "C2",
            "ticks": 112320,
            "time": 155.3096025,
            "velocity": 0.3937007874015748
          },
          {
            "duration": 0.06637162499998794,
            "durationTicks": 48,
            "midi": 60,
            "name": "C4",
            "ticks": 112320,
            "time": 155.3096025,
            "velocity": 0.29133858267716534
          },
          {
            "duration": 0.06637162499998794,
            "durationTicks": 48,
            "midi": 46,
            "name": "A#2",
            "ticks": 112512,
            "time": 155.57508900000002,
            "velocity": 0.29133858267716534
          },
          {
            "duration": 0.06637162499998794,
            "durationTicks": 48,
            "midi": 70,
            "name": "A#4",
            "ticks": 112512,
            "time": 155.57508900000002,
            "velocity": 0.29133858267716534
          },
          {
            "duration": 0.06637162500001637,
            "durationTicks": 48,
            "midi": 60,
            "name": "C4",
            "ticks": 112608,
            "time": 155.70783225,
            "velocity": 0.29133858267716534
          },
          {
            "duration": 0.06637162500001637,
            "durationTicks": 48,
            "midi": 42,
            "name": "F#2",
            "ticks": 112704,
            "time": 155.8405755,
            "velocity": 0.29133858267716534
          },
          {
            "duration": 0.06637162500001637,
            "durationTicks": 48,
            "midi": 36,
            "name": "C2",
            "ticks": 112704,
            "time": 155.8405755,
            "velocity": 0.3937007874015748
          },
          {
            "duration": 0.06637162500001637,
            "durationTicks": 48,
            "midi": 60,
            "name": "C4",
            "ticks": 112704,
            "time": 155.8405755,
            "velocity": 0.29133858267716534
          },
          {
            "duration": 0.06637162500001637,
            "durationTicks": 48,
            "midi": 38,
            "name": "D2",
            "ticks": 112704,
            "time": 155.8405755,
            "velocity": 0.29133858267716534
          },
          {
            "duration": 0.06637162500001637,
            "durationTicks": 48,
            "midi": 39,
            "name": "D#2",
            "ticks": 112704,
            "time": 155.8405755,
            "velocity": 0.3937007874015748
          },
          {
            "duration": 0.06637162500001637,
            "durationTicks": 48,
            "midi": 60,
            "name": "C4",
            "ticks": 112800,
            "time": 155.97331875,
            "velocity": 0.29133858267716534
          },
          {
            "duration": 0.06637162499998794,
            "durationTicks": 48,
            "midi": 70,
            "name": "A#4",
            "ticks": 112896,
            "time": 156.106062,
            "velocity": 0.29133858267716534
          },
          {
            "duration": 0.06637162499998794,
            "durationTicks": 48,
            "midi": 46,
            "name": "A#2",
            "ticks": 112896,
            "time": 156.106062,
            "velocity": 0.29133858267716534
          },
          {
            "duration": 0.06637162499998794,
            "durationTicks": 48,
            "midi": 63,
            "name": "D#4",
            "ticks": 112896,
            "time": 156.106062,
            "velocity": 0.29133858267716534
          },
          {
            "duration": 0.06637162499998794,
            "durationTicks": 48,
            "midi": 70,
            "name": "A#4",
            "ticks": 112992,
            "time": 156.23880525,
            "velocity": 0.29133858267716534
          },
          {
            "duration": 0.06637162499998794,
            "durationTicks": 48,
            "midi": 60,
            "name": "C4",
            "ticks": 113088,
            "time": 156.37154850000002,
            "velocity": 0.29133858267716534
          },
          {
            "duration": 0.06637162499998794,
            "durationTicks": 48,
            "midi": 36,
            "name": "C2",
            "ticks": 113088,
            "time": 156.37154850000002,
            "velocity": 0.3937007874015748
          },
          {
            "duration": 0.06637162499998794,
            "durationTicks": 48,
            "midi": 42,
            "name": "F#2",
            "ticks": 113088,
            "time": 156.37154850000002,
            "velocity": 0.29133858267716534
          },
          {
            "duration": 0.06637162500001637,
            "durationTicks": 48,
            "midi": 70,
            "name": "A#4",
            "ticks": 113280,
            "time": 156.637035,
            "velocity": 0.29133858267716534
          },
          {
            "duration": 0.06637162500001637,
            "durationTicks": 48,
            "midi": 46,
            "name": "A#2",
            "ticks": 113280,
            "time": 156.637035,
            "velocity": 0.29133858267716534
          },
          {
            "duration": 0.06637162500001637,
            "durationTicks": 48,
            "midi": 60,
            "name": "C4",
            "ticks": 113376,
            "time": 156.76977825,
            "velocity": 0.29133858267716534
          },
          {
            "duration": 0.06637162500001637,
            "durationTicks": 48,
            "midi": 36,
            "name": "C2",
            "ticks": 113472,
            "time": 156.9025215,
            "velocity": 0.3937007874015748
          },
          {
            "duration": 0.06637162500001637,
            "durationTicks": 48,
            "midi": 60,
            "name": "C4",
            "ticks": 113472,
            "time": 156.9025215,
            "velocity": 0.29133858267716534
          },
          {
            "duration": 0.06637162500001637,
            "durationTicks": 48,
            "midi": 42,
            "name": "F#2",
            "ticks": 113472,
            "time": 156.9025215,
            "velocity": 0.29133858267716534
          },
          {
            "duration": 0.06637162500001637,
            "durationTicks": 48,
            "midi": 38,
            "name": "D2",
            "ticks": 113472,
            "time": 156.9025215,
            "velocity": 0.29133858267716534
          },
          {
            "duration": 0.06637162500001637,
            "durationTicks": 48,
            "midi": 39,
            "name": "D#2",
            "ticks": 113472,
            "time": 156.9025215,
            "velocity": 0.3937007874015748
          },
          {
            "duration": 0.06637162499998794,
            "durationTicks": 48,
            "midi": 60,
            "name": "C4",
            "ticks": 113568,
            "time": 157.03526475,
            "velocity": 0.29133858267716534
          },
          {
            "duration": 0.06637162499998794,
            "durationTicks": 48,
            "midi": 63,
            "name": "D#4",
            "ticks": 113664,
            "time": 157.16800800000001,
            "velocity": 0.29133858267716534
          },
          {
            "duration": 0.06637162499998794,
            "durationTicks": 48,
            "midi": 46,
            "name": "A#2",
            "ticks": 113664,
            "time": 157.16800800000001,
            "velocity": 0.29133858267716534
          },
          {
            "duration": 0.06637162499998794,
            "durationTicks": 48,
            "midi": 70,
            "name": "A#4",
            "ticks": 113664,
            "time": 157.16800800000001,
            "velocity": 0.29133858267716534
          },
          {
            "duration": 0.06637162499998794,
            "durationTicks": 48,
            "midi": 70,
            "name": "A#4",
            "ticks": 113760,
            "time": 157.30075125000002,
            "velocity": 0.29133858267716534
          },
          {
            "duration": 0.06637162500001637,
            "durationTicks": 48,
            "midi": 36,
            "name": "C2",
            "ticks": 113856,
            "time": 157.4334945,
            "velocity": 0.3937007874015748
          },
          {
            "duration": 0.06637162500001637,
            "durationTicks": 48,
            "midi": 42,
            "name": "F#2",
            "ticks": 113856,
            "time": 157.4334945,
            "velocity": 0.29133858267716534
          },
          {
            "duration": 0.06637162500001637,
            "durationTicks": 48,
            "midi": 60,
            "name": "C4",
            "ticks": 113856,
            "time": 157.4334945,
            "velocity": 0.29133858267716534
          },
          {
            "duration": 0.06637162500001637,
            "durationTicks": 48,
            "midi": 70,
            "name": "A#4",
            "ticks": 114048,
            "time": 157.698981,
            "velocity": 0.29133858267716534
          },
          {
            "duration": 0.06637162500001637,
            "durationTicks": 48,
            "midi": 46,
            "name": "A#2",
            "ticks": 114048,
            "time": 157.698981,
            "velocity": 0.29133858267716534
          },
          {
            "duration": 0.06637162499998794,
            "durationTicks": 48,
            "midi": 60,
            "name": "C4",
            "ticks": 114144,
            "time": 157.83172425,
            "velocity": 0.29133858267716534
          },
          {
            "duration": 0.06637162499998794,
            "durationTicks": 48,
            "midi": 36,
            "name": "C2",
            "ticks": 114240,
            "time": 157.9644675,
            "velocity": 0.3937007874015748
          },
          {
            "duration": 0.06637162499998794,
            "durationTicks": 48,
            "midi": 39,
            "name": "D#2",
            "ticks": 114240,
            "time": 157.9644675,
            "velocity": 0.3937007874015748
          },
          {
            "duration": 0.06637162499998794,
            "durationTicks": 48,
            "midi": 60,
            "name": "C4",
            "ticks": 114240,
            "time": 157.9644675,
            "velocity": 0.29133858267716534
          },
          {
            "duration": 0.06637162499998794,
            "durationTicks": 48,
            "midi": 38,
            "name": "D2",
            "ticks": 114240,
            "time": 157.9644675,
            "velocity": 0.29133858267716534
          },
          {
            "duration": 0.06637162499998794,
            "durationTicks": 48,
            "midi": 42,
            "name": "F#2",
            "ticks": 114240,
            "time": 157.9644675,
            "velocity": 0.29133858267716534
          },
          {
            "duration": 0.06637162499998794,
            "durationTicks": 48,
            "midi": 60,
            "name": "C4",
            "ticks": 114336,
            "time": 158.09721075000002,
            "velocity": 0.29133858267716534
          },
          {
            "duration": 0.06637162499998794,
            "durationTicks": 48,
            "midi": 63,
            "name": "D#4",
            "ticks": 114432,
            "time": 158.22995400000002,
            "velocity": 0.29133858267716534
          },
          {
            "duration": 0.06637162499998794,
            "durationTicks": 48,
            "midi": 46,
            "name": "A#2",
            "ticks": 114432,
            "time": 158.22995400000002,
            "velocity": 0.29133858267716534
          },
          {
            "duration": 0.06637162499998794,
            "durationTicks": 48,
            "midi": 70,
            "name": "A#4",
            "ticks": 114432,
            "time": 158.22995400000002,
            "velocity": 0.29133858267716534
          },
          {
            "duration": 0.06637162500001637,
            "durationTicks": 48,
            "midi": 70,
            "name": "A#4",
            "ticks": 114528,
            "time": 158.36269725,
            "velocity": 0.29133858267716534
          },
          {
            "duration": 0.06637162500001637,
            "durationTicks": 48,
            "midi": 42,
            "name": "F#2",
            "ticks": 114624,
            "time": 158.4954405,
            "velocity": 0.29133858267716534
          },
          {
            "duration": 0.06637162500001637,
            "durationTicks": 48,
            "midi": 60,
            "name": "C4",
            "ticks": 114624,
            "time": 158.4954405,
            "velocity": 0.29133858267716534
          },
          {
            "duration": 0.06637162500001637,
            "durationTicks": 48,
            "midi": 36,
            "name": "C2",
            "ticks": 114624,
            "time": 158.4954405,
            "velocity": 0.3937007874015748
          },
          {
            "duration": 0.06637162500001637,
            "durationTicks": 48,
            "midi": 82,
            "name": "A#5",
            "ticks": 114624,
            "time": 158.4954405,
            "velocity": 0.29133858267716534
          },
          {
            "duration": 0.06637162500001637,
            "durationTicks": 48,
            "midi": 82,
            "name": "A#5",
            "ticks": 114720,
            "time": 158.62818375,
            "velocity": 0.14173228346456693
          },
          {
            "duration": 0.06637162499998794,
            "durationTicks": 48,
            "midi": 46,
            "name": "A#2",
            "ticks": 114816,
            "time": 158.760927,
            "velocity": 0.29133858267716534
          },
          {
            "duration": 0.06637162499998794,
            "durationTicks": 48,
            "midi": 82,
            "name": "A#5",
            "ticks": 114816,
            "time": 158.760927,
            "velocity": 0.29133858267716534
          },
          {
            "duration": 0.06637162499998794,
            "durationTicks": 48,
            "midi": 70,
            "name": "A#4",
            "ticks": 114816,
            "time": 158.760927,
            "velocity": 0.29133858267716534
          },
          {
            "duration": 0.06637162499998794,
            "durationTicks": 48,
            "midi": 60,
            "name": "C4",
            "ticks": 114912,
            "time": 158.89367025,
            "velocity": 0.29133858267716534
          },
          {
            "duration": 0.06637162499998794,
            "durationTicks": 48,
            "midi": 82,
            "name": "A#5",
            "ticks": 114912,
            "time": 158.89367025,
            "velocity": 0.29133858267716534
          },
          {
            "duration": 0.06637162499998794,
            "durationTicks": 48,
            "midi": 42,
            "name": "F#2",
            "ticks": 115008,
            "time": 159.02641350000002,
            "velocity": 0.29133858267716534
          },
          {
            "duration": 0.06637162499998794,
            "durationTicks": 48,
            "midi": 38,
            "name": "D2",
            "ticks": 115008,
            "time": 159.02641350000002,
            "velocity": 0.29133858267716534
          },
          {
            "duration": 0.06637162499998794,
            "durationTicks": 48,
            "midi": 60,
            "name": "C4",
            "ticks": 115008,
            "time": 159.02641350000002,
            "velocity": 0.29133858267716534
          },
          {
            "duration": 0.06637162499998794,
            "durationTicks": 48,
            "midi": 39,
            "name": "D#2",
            "ticks": 115008,
            "time": 159.02641350000002,
            "velocity": 0.3937007874015748
          },
          {
            "duration": 0.06637162499998794,
            "durationTicks": 48,
            "midi": 36,
            "name": "C2",
            "ticks": 115008,
            "time": 159.02641350000002,
            "velocity": 0.3937007874015748
          },
          {
            "duration": 0.06637162499998794,
            "durationTicks": 48,
            "midi": 60,
            "name": "C4",
            "ticks": 115104,
            "time": 159.15915675000002,
            "velocity": 0.29133858267716534
          },
          {
            "duration": 0.06637162500001637,
            "durationTicks": 48,
            "midi": 70,
            "name": "A#4",
            "ticks": 115200,
            "time": 159.2919,
            "velocity": 0.29133858267716534
          },
          {
            "duration": 0.06637162500001637,
            "durationTicks": 48,
            "midi": 63,
            "name": "D#4",
            "ticks": 115200,
            "time": 159.2919,
            "velocity": 0.29133858267716534
          },
          {
            "duration": 0.06637162500001637,
            "durationTicks": 48,
            "midi": 42,
            "name": "F#2",
            "ticks": 115200,
            "time": 159.2919,
            "velocity": 0.3937007874015748
          },
          {
            "duration": 0.06637162500001637,
            "durationTicks": 48,
            "midi": 70,
            "name": "A#4",
            "ticks": 115296,
            "time": 159.42464325,
            "velocity": 0.29133858267716534
          },
          {
            "duration": 0.06637162500001637,
            "durationTicks": 48,
            "midi": 42,
            "name": "F#2",
            "ticks": 115296,
            "time": 159.42464325,
            "velocity": 0.3937007874015748
          },
          {
            "duration": 0.06637162499998794,
            "durationTicks": 48,
            "midi": 36,
            "name": "C2",
            "ticks": 115392,
            "time": 159.5573865,
            "velocity": 0.3937007874015748
          },
          {
            "duration": 0.06637162499998794,
            "durationTicks": 48,
            "midi": 42,
            "name": "F#2",
            "ticks": 115392,
            "time": 159.5573865,
            "velocity": 0.29133858267716534
          },
          {
            "duration": 0.06637162499998794,
            "durationTicks": 48,
            "midi": 60,
            "name": "C4",
            "ticks": 115392,
            "time": 159.5573865,
            "velocity": 0.29133858267716534
          },
          {
            "duration": 0.06637162499998794,
            "durationTicks": 48,
            "midi": 70,
            "name": "A#4",
            "ticks": 115584,
            "time": 159.82287300000002,
            "velocity": 0.29133858267716534
          },
          {
            "duration": 0.06637162499998794,
            "durationTicks": 48,
            "midi": 46,
            "name": "A#2",
            "ticks": 115584,
            "time": 159.82287300000002,
            "velocity": 0.29133858267716534
          },
          {
            "duration": 0.06637162499998794,
            "durationTicks": 48,
            "midi": 60,
            "name": "C4",
            "ticks": 115680,
            "time": 159.95561625000002,
            "velocity": 0.29133858267716534
          },
          {
            "duration": 0.06637162500001637,
            "durationTicks": 48,
            "midi": 38,
            "name": "D2",
            "ticks": 115776,
            "time": 160.0883595,
            "velocity": 0.29133858267716534
          },
          {
            "duration": 0.06637162500001637,
            "durationTicks": 48,
            "midi": 36,
            "name": "C2",
            "ticks": 115776,
            "time": 160.0883595,
            "velocity": 0.3937007874015748
          },
          {
            "duration": 0.06637162500001637,
            "durationTicks": 48,
            "midi": 42,
            "name": "F#2",
            "ticks": 115776,
            "time": 160.0883595,
            "velocity": 0.29133858267716534
          },
          {
            "duration": 0.06637162500001637,
            "durationTicks": 48,
            "midi": 60,
            "name": "C4",
            "ticks": 115776,
            "time": 160.0883595,
            "velocity": 0.29133858267716534
          },
          {
            "duration": 0.06637162500001637,
            "durationTicks": 48,
            "midi": 39,
            "name": "D#2",
            "ticks": 115776,
            "time": 160.0883595,
            "velocity": 0.3937007874015748
          },
          {
            "duration": 0.06637162500001637,
            "durationTicks": 48,
            "midi": 60,
            "name": "C4",
            "ticks": 115872,
            "time": 160.22110275,
            "velocity": 0.29133858267716534
          },
          {
            "duration": 0.06637162500001637,
            "durationTicks": 48,
            "midi": 63,
            "name": "D#4",
            "ticks": 115968,
            "time": 160.353846,
            "velocity": 0.29133858267716534
          },
          {
            "duration": 0.06637162500001637,
            "durationTicks": 48,
            "midi": 46,
            "name": "A#2",
            "ticks": 115968,
            "time": 160.353846,
            "velocity": 0.29133858267716534
          },
          {
            "duration": 0.06637162500001637,
            "durationTicks": 48,
            "midi": 70,
            "name": "A#4",
            "ticks": 115968,
            "time": 160.353846,
            "velocity": 0.29133858267716534
          },
          {
            "duration": 0.06637162499998794,
            "durationTicks": 48,
            "midi": 70,
            "name": "A#4",
            "ticks": 116064,
            "time": 160.48658925,
            "velocity": 0.29133858267716534
          },
          {
            "duration": 0.06637162499998794,
            "durationTicks": 48,
            "midi": 42,
            "name": "F#2",
            "ticks": 116160,
            "time": 160.6193325,
            "velocity": 0.29133858267716534
          },
          {
            "duration": 0.06637162499998794,
            "durationTicks": 48,
            "midi": 60,
            "name": "C4",
            "ticks": 116160,
            "time": 160.6193325,
            "velocity": 0.29133858267716534
          },
          {
            "duration": 0.06637162499998794,
            "durationTicks": 48,
            "midi": 36,
            "name": "C2",
            "ticks": 116160,
            "time": 160.6193325,
            "velocity": 0.3937007874015748
          },
          {
            "duration": 0.06637162499998794,
            "durationTicks": 48,
            "midi": 70,
            "name": "A#4",
            "ticks": 116352,
            "time": 160.88481900000002,
            "velocity": 0.29133858267716534
          },
          {
            "duration": 0.06637162499998794,
            "durationTicks": 48,
            "midi": 46,
            "name": "A#2",
            "ticks": 116352,
            "time": 160.88481900000002,
            "velocity": 0.29133858267716534
          },
          {
            "duration": 0.06637162500001637,
            "durationTicks": 48,
            "midi": 60,
            "name": "C4",
            "ticks": 116448,
            "time": 161.01756225,
            "velocity": 0.29133858267716534
          },
          {
            "duration": 0.06637162500001637,
            "durationTicks": 48,
            "midi": 38,
            "name": "D2",
            "ticks": 116544,
            "time": 161.1503055,
            "velocity": 0.29133858267716534
          },
          {
            "duration": 0.06637162500001637,
            "durationTicks": 48,
            "midi": 39,
            "name": "D#2",
            "ticks": 116544,
            "time": 161.1503055,
            "velocity": 0.3937007874015748
          },
          {
            "duration": 0.06637162500001637,
            "durationTicks": 48,
            "midi": 36,
            "name": "C2",
            "ticks": 116544,
            "time": 161.1503055,
            "velocity": 0.3937007874015748
          },
          {
            "duration": 0.06637162500001637,
            "durationTicks": 48,
            "midi": 60,
            "name": "C4",
            "ticks": 116544,
            "time": 161.1503055,
            "velocity": 0.29133858267716534
          },
          {
            "duration": 0.06637162500001637,
            "durationTicks": 48,
            "midi": 42,
            "name": "F#2",
            "ticks": 116544,
            "time": 161.1503055,
            "velocity": 0.29133858267716534
          },
          {
            "duration": 0.06637162500001637,
            "durationTicks": 48,
            "midi": 60,
            "name": "C4",
            "ticks": 116640,
            "time": 161.28304875,
            "velocity": 0.29133858267716534
          },
          {
            "duration": 0.06637162499998794,
            "durationTicks": 48,
            "midi": 63,
            "name": "D#4",
            "ticks": 116736,
            "time": 161.415792,
            "velocity": 0.29133858267716534
          },
          {
            "duration": 0.06637162499998794,
            "durationTicks": 48,
            "midi": 46,
            "name": "A#2",
            "ticks": 116736,
            "time": 161.415792,
            "velocity": 0.29133858267716534
          },
          {
            "duration": 0.06637162499998794,
            "durationTicks": 48,
            "midi": 70,
            "name": "A#4",
            "ticks": 116736,
            "time": 161.415792,
            "velocity": 0.29133858267716534
          },
          {
            "duration": 0.06637162499998794,
            "durationTicks": 48,
            "midi": 70,
            "name": "A#4",
            "ticks": 116832,
            "time": 161.54853525000001,
            "velocity": 0.29133858267716534
          },
          {
            "duration": 0.06637162499998794,
            "durationTicks": 48,
            "midi": 60,
            "name": "C4",
            "ticks": 116928,
            "time": 161.68127850000002,
            "velocity": 0.29133858267716534
          },
          {
            "duration": 0.06637162499998794,
            "durationTicks": 48,
            "midi": 36,
            "name": "C2",
            "ticks": 116928,
            "time": 161.68127850000002,
            "velocity": 0.3937007874015748
          },
          {
            "duration": 0.06637162499998794,
            "durationTicks": 48,
            "midi": 42,
            "name": "F#2",
            "ticks": 116928,
            "time": 161.68127850000002,
            "velocity": 0.29133858267716534
          },
          {
            "duration": 0.06637162500001637,
            "durationTicks": 48,
            "midi": 39,
            "name": "D#2",
            "ticks": 117024,
            "time": 161.81402175,
            "velocity": 0.3937007874015748
          },
          {
            "duration": 0.06637162500001637,
            "durationTicks": 48,
            "midi": 46,
            "name": "A#2",
            "ticks": 117120,
            "time": 161.946765,
            "velocity": 0.29133858267716534
          },
          {
            "duration": 0.06637162500001637,
            "durationTicks": 48,
            "midi": 70,
            "name": "A#4",
            "ticks": 117120,
            "time": 161.946765,
            "velocity": 0.29133858267716534
          },
          {
            "duration": 0.06637162500001637,
            "durationTicks": 48,
            "midi": 60,
            "name": "C4",
            "ticks": 117216,
            "time": 162.07950825,
            "velocity": 0.29133858267716534
          },
          {
            "duration": 0.06637162499998794,
            "durationTicks": 48,
            "midi": 60,
            "name": "C4",
            "ticks": 117312,
            "time": 162.2122515,
            "velocity": 0.29133858267716534
          },
          {
            "duration": 0.06637162499998794,
            "durationTicks": 48,
            "midi": 38,
            "name": "D2",
            "ticks": 117312,
            "time": 162.2122515,
            "velocity": 0.29133858267716534
          },
          {
            "duration": 0.06637162499998794,
            "durationTicks": 48,
            "midi": 42,
            "name": "F#2",
            "ticks": 117312,
            "time": 162.2122515,
            "velocity": 0.29133858267716534
          },
          {
            "duration": 0.06637162499998794,
            "durationTicks": 48,
            "midi": 39,
            "name": "D#2",
            "ticks": 117312,
            "time": 162.2122515,
            "velocity": 0.3937007874015748
          },
          {
            "duration": 0.06637162499998794,
            "durationTicks": 48,
            "midi": 36,
            "name": "C2",
            "ticks": 117312,
            "time": 162.2122515,
            "velocity": 0.3937007874015748
          },
          {
            "duration": 0.06637162499998794,
            "durationTicks": 48,
            "midi": 60,
            "name": "C4",
            "ticks": 117408,
            "time": 162.34499475,
            "velocity": 0.29133858267716534
          },
          {
            "duration": 0.06637162499998794,
            "durationTicks": 48,
            "midi": 70,
            "name": "A#4",
            "ticks": 117504,
            "time": 162.47773800000002,
            "velocity": 0.29133858267716534
          },
          {
            "duration": 0.06637162499998794,
            "durationTicks": 48,
            "midi": 46,
            "name": "A#2",
            "ticks": 117504,
            "time": 162.47773800000002,
            "velocity": 0.29133858267716534
          },
          {
            "duration": 0.06637162499998794,
            "durationTicks": 48,
            "midi": 63,
            "name": "D#4",
            "ticks": 117504,
            "time": 162.47773800000002,
            "velocity": 0.29133858267716534
          },
          {
            "duration": 0.06637162499998794,
            "durationTicks": 48,
            "midi": 70,
            "name": "A#4",
            "ticks": 117600,
            "time": 162.61048125000002,
            "velocity": 0.29133858267716534
          },
          {
            "duration": 0.06637162500001637,
            "durationTicks": 48,
            "midi": 82,
            "name": "A#5",
            "ticks": 117696,
            "time": 162.7432245,
            "velocity": 0.29133858267716534
          },
          {
            "duration": 0.06637162500001637,
            "durationTicks": 48,
            "midi": 42,
            "name": "F#2",
            "ticks": 117696,
            "time": 162.7432245,
            "velocity": 0.29133858267716534
          },
          {
            "duration": 0.06637162500001637,
            "durationTicks": 48,
            "midi": 60,
            "name": "C4",
            "ticks": 117696,
            "time": 162.7432245,
            "velocity": 0.29133858267716534
          },
          {
            "duration": 0.06637162500001637,
            "durationTicks": 48,
            "midi": 36,
            "name": "C2",
            "ticks": 117696,
            "time": 162.7432245,
            "velocity": 0.3937007874015748
          },
          {
            "duration": 0.06637162500001637,
            "durationTicks": 48,
            "midi": 82,
            "name": "A#5",
            "ticks": 117792,
            "time": 162.87596775,
            "velocity": 0.14173228346456693
          },
          {
            "duration": 0.06637162500001637,
            "durationTicks": 48,
            "midi": 82,
            "name": "A#5",
            "ticks": 117888,
            "time": 163.008711,
            "velocity": 0.29133858267716534
          },
          {
            "duration": 0.06637162500001637,
            "durationTicks": 48,
            "midi": 46,
            "name": "A#2",
            "ticks": 117888,
            "time": 163.008711,
            "velocity": 0.29133858267716534
          },
          {
            "duration": 0.06637162500001637,
            "durationTicks": 48,
            "midi": 70,
            "name": "A#4",
            "ticks": 117888,
            "time": 163.008711,
            "velocity": 0.29133858267716534
          },
          {
            "duration": 0.06637162499998794,
            "durationTicks": 48,
            "midi": 82,
            "name": "A#5",
            "ticks": 117984,
            "time": 163.14145425,
            "velocity": 0.29133858267716534
          },
          {
            "duration": 0.06637162499998794,
            "durationTicks": 48,
            "midi": 60,
            "name": "C4",
            "ticks": 117984,
            "time": 163.14145425,
            "velocity": 0.29133858267716534
          },
          {
            "duration": 0.06637162499998794,
            "durationTicks": 48,
            "midi": 36,
            "name": "C2",
            "ticks": 118080,
            "time": 163.2741975,
            "velocity": 0.3937007874015748
          },
          {
            "duration": 0.06637162499998794,
            "durationTicks": 48,
            "midi": 39,
            "name": "D#2",
            "ticks": 118080,
            "time": 163.2741975,
            "velocity": 0.3937007874015748
          },
          {
            "duration": 0.06637162499998794,
            "durationTicks": 48,
            "midi": 60,
            "name": "C4",
            "ticks": 118080,
            "time": 163.2741975,
            "velocity": 0.29133858267716534
          },
          {
            "duration": 0.06637162499998794,
            "durationTicks": 48,
            "midi": 38,
            "name": "D2",
            "ticks": 118080,
            "time": 163.2741975,
            "velocity": 0.29133858267716534
          },
          {
            "duration": 0.06637162499998794,
            "durationTicks": 48,
            "midi": 42,
            "name": "F#2",
            "ticks": 118080,
            "time": 163.2741975,
            "velocity": 0.29133858267716534
          },
          {
            "duration": 0.06637162499998794,
            "durationTicks": 48,
            "midi": 60,
            "name": "C4",
            "ticks": 118176,
            "time": 163.40694075000002,
            "velocity": 0.29133858267716534
          },
          {
            "duration": 0.06637162499998794,
            "durationTicks": 48,
            "midi": 70,
            "name": "A#4",
            "ticks": 118272,
            "time": 163.53968400000002,
            "velocity": 0.29133858267716534
          },
          {
            "duration": 0.06637162499998794,
            "durationTicks": 48,
            "midi": 63,
            "name": "D#4",
            "ticks": 118272,
            "time": 163.53968400000002,
            "velocity": 0.29133858267716534
          },
          {
            "duration": 0.06637162499998794,
            "durationTicks": 48,
            "midi": 42,
            "name": "F#2",
            "ticks": 118272,
            "time": 163.53968400000002,
            "velocity": 0.3937007874015748
          },
          {
            "duration": 0.06637162500001637,
            "durationTicks": 48,
            "midi": 42,
            "name": "F#2",
            "ticks": 118368,
            "time": 163.67242725,
            "velocity": 0.3937007874015748
          },
          {
            "duration": 0.06637162500001637,
            "durationTicks": 48,
            "midi": 70,
            "name": "A#4",
            "ticks": 118368,
            "time": 163.67242725,
            "velocity": 0.29133858267716534
          },
          {
            "duration": 0.06637162500001637,
            "durationTicks": 48,
            "midi": 60,
            "name": "C4",
            "ticks": 118464,
            "time": 163.8051705,
            "velocity": 0.29133858267716534
          },
          {
            "duration": 0.06637162500001637,
            "durationTicks": 48,
            "midi": 42,
            "name": "F#2",
            "ticks": 118464,
            "time": 163.8051705,
            "velocity": 0.29133858267716534
          },
          {
            "duration": 0.06637162500001637,
            "durationTicks": 48,
            "midi": 36,
            "name": "C2",
            "ticks": 118464,
            "time": 163.8051705,
            "velocity": 0.3937007874015748
          },
          {
            "duration": 0.06637162499998794,
            "durationTicks": 48,
            "midi": 70,
            "name": "A#4",
            "ticks": 118656,
            "time": 164.070657,
            "velocity": 0.29133858267716534
          },
          {
            "duration": 0.06637162499998794,
            "durationTicks": 48,
            "midi": 46,
            "name": "A#2",
            "ticks": 118656,
            "time": 164.070657,
            "velocity": 0.29133858267716534
          },
          {
            "duration": 0.06637162499998794,
            "durationTicks": 48,
            "midi": 60,
            "name": "C4",
            "ticks": 118752,
            "time": 164.20340025000002,
            "velocity": 0.29133858267716534
          },
          {
            "duration": 0.06637162499998794,
            "durationTicks": 48,
            "midi": 39,
            "name": "D#2",
            "ticks": 118848,
            "time": 164.33614350000002,
            "velocity": 0.3937007874015748
          },
          {
            "duration": 0.06637162499998794,
            "durationTicks": 48,
            "midi": 38,
            "name": "D2",
            "ticks": 118848,
            "time": 164.33614350000002,
            "velocity": 0.29133858267716534
          },
          {
            "duration": 0.06637162499998794,
            "durationTicks": 48,
            "midi": 36,
            "name": "C2",
            "ticks": 118848,
            "time": 164.33614350000002,
            "velocity": 0.3937007874015748
          },
          {
            "duration": 0.06637162499998794,
            "durationTicks": 48,
            "midi": 42,
            "name": "F#2",
            "ticks": 118848,
            "time": 164.33614350000002,
            "velocity": 0.29133858267716534
          },
          {
            "duration": 0.06637162499998794,
            "durationTicks": 48,
            "midi": 60,
            "name": "C4",
            "ticks": 118848,
            "time": 164.33614350000002,
            "velocity": 0.29133858267716534
          },
          {
            "duration": 0.06637162500001637,
            "durationTicks": 48,
            "midi": 60,
            "name": "C4",
            "ticks": 118944,
            "time": 164.46888675,
            "velocity": 0.29133858267716534
          },
          {
            "duration": 0.06637162500001637,
            "durationTicks": 48,
            "midi": 63,
            "name": "D#4",
            "ticks": 119040,
            "time": 164.60163,
            "velocity": 0.29133858267716534
          },
          {
            "duration": 0.06637162500001637,
            "durationTicks": 48,
            "midi": 70,
            "name": "A#4",
            "ticks": 119040,
            "time": 164.60163,
            "velocity": 0.29133858267716534
          },
          {
            "duration": 0.06637162500001637,
            "durationTicks": 48,
            "midi": 46,
            "name": "A#2",
            "ticks": 119040,
            "time": 164.60163,
            "velocity": 0.29133858267716534
          },
          {
            "duration": 0.06637162500001637,
            "durationTicks": 48,
            "midi": 70,
            "name": "A#4",
            "ticks": 119136,
            "time": 164.73437325,
            "velocity": 0.29133858267716534
          },
          {
            "duration": 0.06637162499998794,
            "durationTicks": 48,
            "midi": 42,
            "name": "F#2",
            "ticks": 119232,
            "time": 164.8671165,
            "velocity": 0.29133858267716534
          },
          {
            "duration": 0.06637162499998794,
            "durationTicks": 48,
            "midi": 60,
            "name": "C4",
            "ticks": 119232,
            "time": 164.8671165,
            "velocity": 0.29133858267716534
          },
          {
            "duration": 0.06637162499998794,
            "durationTicks": 48,
            "midi": 36,
            "name": "C2",
            "ticks": 119232,
            "time": 164.8671165,
            "velocity": 0.3937007874015748
          },
          {
            "duration": 0.06637162499998794,
            "durationTicks": 48,
            "midi": 46,
            "name": "A#2",
            "ticks": 119424,
            "time": 165.13260300000002,
            "velocity": 0.29133858267716534
          },
          {
            "duration": 0.06637162499998794,
            "durationTicks": 48,
            "midi": 70,
            "name": "A#4",
            "ticks": 119424,
            "time": 165.13260300000002,
            "velocity": 0.29133858267716534
          },
          {
            "duration": 0.06637162499998794,
            "durationTicks": 48,
            "midi": 60,
            "name": "C4",
            "ticks": 119520,
            "time": 165.26534625000002,
            "velocity": 0.29133858267716534
          },
          {
            "duration": 0.06637162500001637,
            "durationTicks": 48,
            "midi": 36,
            "name": "C2",
            "ticks": 119616,
            "time": 165.3980895,
            "velocity": 0.3937007874015748
          },
          {
            "duration": 0.06637162500001637,
            "durationTicks": 48,
            "midi": 39,
            "name": "D#2",
            "ticks": 119616,
            "time": 165.3980895,
            "velocity": 0.3937007874015748
          },
          {
            "duration": 0.06637162500001637,
            "durationTicks": 48,
            "midi": 42,
            "name": "F#2",
            "ticks": 119616,
            "time": 165.3980895,
            "velocity": 0.29133858267716534
          },
          {
            "duration": 0.06637162500001637,
            "durationTicks": 48,
            "midi": 60,
            "name": "C4",
            "ticks": 119616,
            "time": 165.3980895,
            "velocity": 0.29133858267716534
          },
          {
            "duration": 0.06637162500001637,
            "durationTicks": 48,
            "midi": 38,
            "name": "D2",
            "ticks": 119616,
            "time": 165.3980895,
            "velocity": 0.29133858267716534
          },
          {
            "duration": 0.06637162500001637,
            "durationTicks": 48,
            "midi": 60,
            "name": "C4",
            "ticks": 119712,
            "time": 165.53083275,
            "velocity": 0.29133858267716534
          },
          {
            "duration": 0.06637162500001637,
            "durationTicks": 48,
            "midi": 46,
            "name": "A#2",
            "ticks": 119808,
            "time": 165.663576,
            "velocity": 0.29133858267716534
          },
          {
            "duration": 0.06637162500001637,
            "durationTicks": 48,
            "midi": 70,
            "name": "A#4",
            "ticks": 119808,
            "time": 165.663576,
            "velocity": 0.29133858267716534
          },
          {
            "duration": 0.06637162500001637,
            "durationTicks": 48,
            "midi": 63,
            "name": "D#4",
            "ticks": 119808,
            "time": 165.663576,
            "velocity": 0.29133858267716534
          },
          {
            "duration": 0.06637162499998794,
            "durationTicks": 48,
            "midi": 70,
            "name": "A#4",
            "ticks": 119904,
            "time": 165.79631925,
            "velocity": 0.29133858267716534
          },
          {
            "duration": 0.06637162499998794,
            "durationTicks": 48,
            "midi": 42,
            "name": "F#2",
            "ticks": 120000,
            "time": 165.92906250000001,
            "velocity": 0.29133858267716534
          },
          {
            "duration": 0.06637162499998794,
            "durationTicks": 48,
            "midi": 60,
            "name": "C4",
            "ticks": 120000,
            "time": 165.92906250000001,
            "velocity": 0.29133858267716534
          },
          {
            "duration": 0.06637162499998794,
            "durationTicks": 48,
            "midi": 36,
            "name": "C2",
            "ticks": 120000,
            "time": 165.92906250000001,
            "velocity": 0.3937007874015748
          },
          {
            "duration": 0.06637162500001637,
            "durationTicks": 48,
            "midi": 46,
            "name": "A#2",
            "ticks": 120192,
            "time": 166.194549,
            "velocity": 0.29133858267716534
          },
          {
            "duration": 0.06637162500001637,
            "durationTicks": 48,
            "midi": 70,
            "name": "A#4",
            "ticks": 120192,
            "time": 166.194549,
            "velocity": 0.29133858267716534
          },
          {
            "duration": 0.06637162500001637,
            "durationTicks": 48,
            "midi": 60,
            "name": "C4",
            "ticks": 120288,
            "time": 166.32729225,
            "velocity": 0.29133858267716534
          },
          {
            "duration": 0.06637162500001637,
            "durationTicks": 48,
            "midi": 39,
            "name": "D#2",
            "ticks": 120384,
            "time": 166.4600355,
            "velocity": 0.3937007874015748
          },
          {
            "duration": 0.06637162500001637,
            "durationTicks": 48,
            "midi": 60,
            "name": "C4",
            "ticks": 120384,
            "time": 166.4600355,
            "velocity": 0.29133858267716534
          },
          {
            "duration": 0.06637162500001637,
            "durationTicks": 48,
            "midi": 38,
            "name": "D2",
            "ticks": 120384,
            "time": 166.4600355,
            "velocity": 0.29133858267716534
          },
          {
            "duration": 0.06637162500001637,
            "durationTicks": 48,
            "midi": 36,
            "name": "C2",
            "ticks": 120384,
            "time": 166.4600355,
            "velocity": 0.3937007874015748
          },
          {
            "duration": 0.06637162500001637,
            "durationTicks": 48,
            "midi": 42,
            "name": "F#2",
            "ticks": 120384,
            "time": 166.4600355,
            "velocity": 0.29133858267716534
          },
          {
            "duration": 0.06637162499998794,
            "durationTicks": 48,
            "midi": 60,
            "name": "C4",
            "ticks": 120480,
            "time": 166.59277875,
            "velocity": 0.29133858267716534
          },
          {
            "duration": 0.06637162499998794,
            "durationTicks": 48,
            "midi": 70,
            "name": "A#4",
            "ticks": 120576,
            "time": 166.725522,
            "velocity": 0.29133858267716534
          },
          {
            "duration": 0.06637162499998794,
            "durationTicks": 48,
            "midi": 46,
            "name": "A#2",
            "ticks": 120576,
            "time": 166.725522,
            "velocity": 0.29133858267716534
          },
          {
            "duration": 0.06637162499998794,
            "durationTicks": 48,
            "midi": 63,
            "name": "D#4",
            "ticks": 120576,
            "time": 166.725522,
            "velocity": 0.29133858267716534
          },
          {
            "duration": 0.06637162499998794,
            "durationTicks": 48,
            "midi": 70,
            "name": "A#4",
            "ticks": 120672,
            "time": 166.85826525000002,
            "velocity": 0.29133858267716534
          },
          {
            "duration": 0.06637162499998794,
            "durationTicks": 48,
            "midi": 82,
            "name": "A#5",
            "ticks": 120768,
            "time": 166.99100850000002,
            "velocity": 0.29133858267716534
          },
          {
            "duration": 0.06637162499998794,
            "durationTicks": 48,
            "midi": 42,
            "name": "F#2",
            "ticks": 120768,
            "time": 166.99100850000002,
            "velocity": 0.29133858267716534
          },
          {
            "duration": 0.06637162499998794,
            "durationTicks": 48,
            "midi": 60,
            "name": "C4",
            "ticks": 120768,
            "time": 166.99100850000002,
            "velocity": 0.29133858267716534
          },
          {
            "duration": 0.06637162499998794,
            "durationTicks": 48,
            "midi": 36,
            "name": "C2",
            "ticks": 120768,
            "time": 166.99100850000002,
            "velocity": 0.3937007874015748
          },
          {
            "duration": 0.06637162500001637,
            "durationTicks": 48,
            "midi": 82,
            "name": "A#5",
            "ticks": 120864,
            "time": 167.12375175,
            "velocity": 0.14173228346456693
          },
          {
            "duration": 0.06637162500001637,
            "durationTicks": 48,
            "midi": 70,
            "name": "A#4",
            "ticks": 120960,
            "time": 167.256495,
            "velocity": 0.29133858267716534
          },
          {
            "duration": 0.06637162500001637,
            "durationTicks": 48,
            "midi": 82,
            "name": "A#5",
            "ticks": 120960,
            "time": 167.256495,
            "velocity": 0.29133858267716534
          },
          {
            "duration": 0.06637162500001637,
            "durationTicks": 48,
            "midi": 46,
            "name": "A#2",
            "ticks": 120960,
            "time": 167.256495,
            "velocity": 0.29133858267716534
          },
          {
            "duration": 0.06637162500001637,
            "durationTicks": 48,
            "midi": 60,
            "name": "C4",
            "ticks": 121056,
            "time": 167.38923825,
            "velocity": 0.29133858267716534
          },
          {
            "duration": 0.06637162500001637,
            "durationTicks": 48,
            "midi": 82,
            "name": "A#5",
            "ticks": 121056,
            "time": 167.38923825,
            "velocity": 0.29133858267716534
          },
          {
            "duration": 0.06637162499998794,
            "durationTicks": 48,
            "midi": 38,
            "name": "D2",
            "ticks": 121152,
            "time": 167.5219815,
            "velocity": 0.29133858267716534
          },
          {
            "duration": 0.06637162499998794,
            "durationTicks": 48,
            "midi": 39,
            "name": "D#2",
            "ticks": 121152,
            "time": 167.5219815,
            "velocity": 0.3937007874015748
          },
          {
            "duration": 0.06637162499998794,
            "durationTicks": 48,
            "midi": 42,
            "name": "F#2",
            "ticks": 121152,
            "time": 167.5219815,
            "velocity": 0.29133858267716534
          },
          {
            "duration": 0.06637162499998794,
            "durationTicks": 48,
            "midi": 36,
            "name": "C2",
            "ticks": 121152,
            "time": 167.5219815,
            "velocity": 0.3937007874015748
          },
          {
            "duration": 0.06637162499998794,
            "durationTicks": 48,
            "midi": 60,
            "name": "C4",
            "ticks": 121152,
            "time": 167.5219815,
            "velocity": 0.29133858267716534
          },
          {
            "duration": 0.06637162499998794,
            "durationTicks": 48,
            "midi": 60,
            "name": "C4",
            "ticks": 121248,
            "time": 167.65472475,
            "velocity": 0.29133858267716534
          },
          {
            "duration": 0.06637162499998794,
            "durationTicks": 48,
            "midi": 42,
            "name": "F#2",
            "ticks": 121344,
            "time": 167.78746800000002,
            "velocity": 0.3937007874015748
          },
          {
            "duration": 0.06637162499998794,
            "durationTicks": 48,
            "midi": 70,
            "name": "A#4",
            "ticks": 121344,
            "time": 167.78746800000002,
            "velocity": 0.29133858267716534
          },
          {
            "duration": 0.06637162499998794,
            "durationTicks": 48,
            "midi": 63,
            "name": "D#4",
            "ticks": 121344,
            "time": 167.78746800000002,
            "velocity": 0.29133858267716534
          },
          {
            "duration": 0.06637162499998794,
            "durationTicks": 48,
            "midi": 70,
            "name": "A#4",
            "ticks": 121440,
            "time": 167.92021125000002,
            "velocity": 0.29133858267716534
          },
          {
            "duration": 0.06637162499998794,
            "durationTicks": 48,
            "midi": 42,
            "name": "F#2",
            "ticks": 121440,
            "time": 167.92021125000002,
            "velocity": 0.3937007874015748
          },
          {
            "duration": 0.06637162500001637,
            "durationTicks": 48,
            "midi": 60,
            "name": "C4",
            "ticks": 121536,
            "time": 168.0529545,
            "velocity": 0.29133858267716534
          },
          {
            "duration": 0.06637162500001637,
            "durationTicks": 48,
            "midi": 42,
            "name": "F#2",
            "ticks": 121536,
            "time": 168.0529545,
            "velocity": 0.29133858267716534
          },
          {
            "duration": 0.06637162500001637,
            "durationTicks": 48,
            "midi": 36,
            "name": "C2",
            "ticks": 121536,
            "time": 168.0529545,
            "velocity": 0.3937007874015748
          },
          {
            "duration": 0.06637162499998794,
            "durationTicks": 48,
            "midi": 46,
            "name": "A#2",
            "ticks": 121728,
            "time": 168.318441,
            "velocity": 0.29133858267716534
          },
          {
            "duration": 0.06637162499998794,
            "durationTicks": 48,
            "midi": 70,
            "name": "A#4",
            "ticks": 121728,
            "time": 168.318441,
            "velocity": 0.29133858267716534
          },
          {
            "duration": 0.06637162499998794,
            "durationTicks": 48,
            "midi": 60,
            "name": "C4",
            "ticks": 121824,
            "time": 168.45118425,
            "velocity": 0.29133858267716534
          },
          {
            "duration": 0.06637162499998794,
            "durationTicks": 48,
            "midi": 36,
            "name": "C2",
            "ticks": 121920,
            "time": 168.58392750000002,
            "velocity": 0.3937007874015748
          },
          {
            "duration": 0.06637162499998794,
            "durationTicks": 48,
            "midi": 42,
            "name": "F#2",
            "ticks": 121920,
            "time": 168.58392750000002,
            "velocity": 0.29133858267716534
          },
          {
            "duration": 0.06637162499998794,
            "durationTicks": 48,
            "midi": 38,
            "name": "D2",
            "ticks": 121920,
            "time": 168.58392750000002,
            "velocity": 0.29133858267716534
          },
          {
            "duration": 0.06637162499998794,
            "durationTicks": 48,
            "midi": 60,
            "name": "C4",
            "ticks": 121920,
            "time": 168.58392750000002,
            "velocity": 0.29133858267716534
          },
          {
            "duration": 0.06637162499998794,
            "durationTicks": 48,
            "midi": 39,
            "name": "D#2",
            "ticks": 121920,
            "time": 168.58392750000002,
            "velocity": 0.3937007874015748
          },
          {
            "duration": 0.06637162499998794,
            "durationTicks": 48,
            "midi": 60,
            "name": "C4",
            "ticks": 122016,
            "time": 168.71667075000002,
            "velocity": 0.29133858267716534
          },
          {
            "duration": 0.06637162500001637,
            "durationTicks": 48,
            "midi": 63,
            "name": "D#4",
            "ticks": 122112,
            "time": 168.849414,
            "velocity": 0.29133858267716534
          },
          {
            "duration": 0.06637162500001637,
            "durationTicks": 48,
            "midi": 70,
            "name": "A#4",
            "ticks": 122112,
            "time": 168.849414,
            "velocity": 0.29133858267716534
          },
          {
            "duration": 0.06637162500001637,
            "durationTicks": 48,
            "midi": 46,
            "name": "A#2",
            "ticks": 122112,
            "time": 168.849414,
            "velocity": 0.29133858267716534
          },
          {
            "duration": 0.06637162500001637,
            "durationTicks": 48,
            "midi": 70,
            "name": "A#4",
            "ticks": 122208,
            "time": 168.98215725,
            "velocity": 0.29133858267716534
          },
          {
            "duration": 0.06637162500001637,
            "durationTicks": 48,
            "midi": 60,
            "name": "C4",
            "ticks": 122304,
            "time": 169.1149005,
            "velocity": 0.29133858267716534
          },
          {
            "duration": 0.06637162500001637,
            "durationTicks": 48,
            "midi": 36,
            "name": "C2",
            "ticks": 122304,
            "time": 169.1149005,
            "velocity": 0.3937007874015748
          },
          {
            "duration": 0.06637162500001637,
            "durationTicks": 48,
            "midi": 42,
            "name": "F#2",
            "ticks": 122304,
            "time": 169.1149005,
            "velocity": 0.29133858267716534
          },
          {
            "duration": 0.06637162499998794,
            "durationTicks": 48,
            "midi": 46,
            "name": "A#2",
            "ticks": 122496,
            "time": 169.380387,
            "velocity": 0.29133858267716534
          },
          {
            "duration": 0.06637162499998794,
            "durationTicks": 48,
            "midi": 70,
            "name": "A#4",
            "ticks": 122496,
            "time": 169.380387,
            "velocity": 0.29133858267716534
          },
          {
            "duration": 0.06637162499998794,
            "durationTicks": 48,
            "midi": 60,
            "name": "C4",
            "ticks": 122592,
            "time": 169.51313025000002,
            "velocity": 0.29133858267716534
          },
          {
            "duration": 0.06637162499998794,
            "durationTicks": 48,
            "midi": 36,
            "name": "C2",
            "ticks": 122688,
            "time": 169.64587350000002,
            "velocity": 0.3937007874015748
          },
          {
            "duration": 0.06637162499998794,
            "durationTicks": 48,
            "midi": 60,
            "name": "C4",
            "ticks": 122688,
            "time": 169.64587350000002,
            "velocity": 0.29133858267716534
          },
          {
            "duration": 0.06637162499998794,
            "durationTicks": 48,
            "midi": 39,
            "name": "D#2",
            "ticks": 122688,
            "time": 169.64587350000002,
            "velocity": 0.3937007874015748
          },
          {
            "duration": 0.06637162499998794,
            "durationTicks": 48,
            "midi": 42,
            "name": "F#2",
            "ticks": 122688,
            "time": 169.64587350000002,
            "velocity": 0.29133858267716534
          },
          {
            "duration": 0.06637162499998794,
            "durationTicks": 48,
            "midi": 38,
            "name": "D2",
            "ticks": 122688,
            "time": 169.64587350000002,
            "velocity": 0.29133858267716534
          },
          {
            "duration": 0.06637162500001637,
            "durationTicks": 48,
            "midi": 60,
            "name": "C4",
            "ticks": 122784,
            "time": 169.77861675,
            "velocity": 0.29133858267716534
          },
          {
            "duration": 0.06637162500001637,
            "durationTicks": 48,
            "midi": 46,
            "name": "A#2",
            "ticks": 122880,
            "time": 169.91136,
            "velocity": 0.29133858267716534
          },
          {
            "duration": 0.06637162500001637,
            "durationTicks": 48,
            "midi": 63,
            "name": "D#4",
            "ticks": 122880,
            "time": 169.91136,
            "velocity": 0.29133858267716534
          },
          {
            "duration": 0.06637162500001637,
            "durationTicks": 48,
            "midi": 70,
            "name": "A#4",
            "ticks": 122880,
            "time": 169.91136,
            "velocity": 0.29133858267716534
          },
          {
            "duration": 0.06637162500001637,
            "durationTicks": 48,
            "midi": 70,
            "name": "A#4",
            "ticks": 122976,
            "time": 170.04410325,
            "velocity": 0.29133858267716534
          },
          {
            "duration": 0.06637162499998794,
            "durationTicks": 48,
            "midi": 42,
            "name": "F#2",
            "ticks": 123072,
            "time": 170.1768465,
            "velocity": 0.29133858267716534
          },
          {
            "duration": 0.06637162499998794,
            "durationTicks": 48,
            "midi": 60,
            "name": "C4",
            "ticks": 123072,
            "time": 170.1768465,
            "velocity": 0.29133858267716534
          },
          {
            "duration": 0.06637162499998794,
            "durationTicks": 48,
            "midi": 36,
            "name": "C2",
            "ticks": 123072,
            "time": 170.1768465,
            "velocity": 0.3937007874015748
          },
          {
            "duration": 0.06637162499998794,
            "durationTicks": 48,
            "midi": 46,
            "name": "A#2",
            "ticks": 123264,
            "time": 170.44233300000002,
            "velocity": 0.29133858267716534
          },
          {
            "duration": 0.06637162499998794,
            "durationTicks": 48,
            "midi": 70,
            "name": "A#4",
            "ticks": 123264,
            "time": 170.44233300000002,
            "velocity": 0.29133858267716534
          },
          {
            "duration": 0.06637162500001637,
            "durationTicks": 48,
            "midi": 60,
            "name": "C4",
            "ticks": 123360,
            "time": 170.57507625,
            "velocity": 0.29133858267716534
          },
          {
            "duration": 0.06637162500001637,
            "durationTicks": 48,
            "midi": 36,
            "name": "C2",
            "ticks": 123456,
            "time": 170.7078195,
            "velocity": 0.3937007874015748
          },
          {
            "duration": 0.06637162500001637,
            "durationTicks": 48,
            "midi": 60,
            "name": "C4",
            "ticks": 123456,
            "time": 170.7078195,
            "velocity": 0.29133858267716534
          },
          {
            "duration": 0.06637162500001637,
            "durationTicks": 48,
            "midi": 38,
            "name": "D2",
            "ticks": 123456,
            "time": 170.7078195,
            "velocity": 0.29133858267716534
          },
          {
            "duration": 0.06637162500001637,
            "durationTicks": 48,
            "midi": 39,
            "name": "D#2",
            "ticks": 123456,
            "time": 170.7078195,
            "velocity": 0.3937007874015748
          },
          {
            "duration": 0.06637162500001637,
            "durationTicks": 48,
            "midi": 42,
            "name": "F#2",
            "ticks": 123456,
            "time": 170.7078195,
            "velocity": 0.29133858267716534
          },
          {
            "duration": 0.06637162500001637,
            "durationTicks": 48,
            "midi": 60,
            "name": "C4",
            "ticks": 123552,
            "time": 170.84056275,
            "velocity": 0.29133858267716534
          },
          {
            "duration": 0.06637162499998794,
            "durationTicks": 48,
            "midi": 70,
            "name": "A#4",
            "ticks": 123648,
            "time": 170.973306,
            "velocity": 0.29133858267716534
          },
          {
            "duration": 0.06637162499998794,
            "durationTicks": 48,
            "midi": 63,
            "name": "D#4",
            "ticks": 123648,
            "time": 170.973306,
            "velocity": 0.29133858267716534
          },
          {
            "duration": 0.06637162499998794,
            "durationTicks": 48,
            "midi": 46,
            "name": "A#2",
            "ticks": 123648,
            "time": 170.973306,
            "velocity": 0.29133858267716534
          },
          {
            "duration": 0.06637162499998794,
            "durationTicks": 48,
            "midi": 70,
            "name": "A#4",
            "ticks": 123744,
            "time": 171.10604925,
            "velocity": 0.29133858267716534
          },
          {
            "duration": 0.06637162499998794,
            "durationTicks": 48,
            "midi": 60,
            "name": "C4",
            "ticks": 123840,
            "time": 171.23879250000002,
            "velocity": 0.29133858267716534
          },
          {
            "duration": 0.06637162499998794,
            "durationTicks": 48,
            "midi": 82,
            "name": "A#5",
            "ticks": 123840,
            "time": 171.23879250000002,
            "velocity": 0.29133858267716534
          },
          {
            "duration": 0.06637162499998794,
            "durationTicks": 48,
            "midi": 36,
            "name": "C2",
            "ticks": 123840,
            "time": 171.23879250000002,
            "velocity": 0.3937007874015748
          },
          {
            "duration": 0.06637162499998794,
            "durationTicks": 48,
            "midi": 42,
            "name": "F#2",
            "ticks": 123840,
            "time": 171.23879250000002,
            "velocity": 0.29133858267716534
          },
          {
            "duration": 0.06637162499998794,
            "durationTicks": 48,
            "midi": 82,
            "name": "A#5",
            "ticks": 123936,
            "time": 171.37153575000002,
            "velocity": 0.14173228346456693
          },
          {
            "duration": 0.06637162500001637,
            "durationTicks": 48,
            "midi": 46,
            "name": "A#2",
            "ticks": 124032,
            "time": 171.504279,
            "velocity": 0.29133858267716534
          },
          {
            "duration": 0.06637162500001637,
            "durationTicks": 48,
            "midi": 70,
            "name": "A#4",
            "ticks": 124032,
            "time": 171.504279,
            "velocity": 0.29133858267716534
          },
          {
            "duration": 0.06637162500001637,
            "durationTicks": 48,
            "midi": 82,
            "name": "A#5",
            "ticks": 124032,
            "time": 171.504279,
            "velocity": 0.29133858267716534
          },
          {
            "duration": 0.06637162500001637,
            "durationTicks": 48,
            "midi": 60,
            "name": "C4",
            "ticks": 124128,
            "time": 171.63702225,
            "velocity": 0.29133858267716534
          },
          {
            "duration": 0.06637162500001637,
            "durationTicks": 48,
            "midi": 82,
            "name": "A#5",
            "ticks": 124128,
            "time": 171.63702225,
            "velocity": 0.29133858267716534
          },
          {
            "duration": 0.06637162500001637,
            "durationTicks": 48,
            "midi": 38,
            "name": "D2",
            "ticks": 124224,
            "time": 171.7697655,
            "velocity": 0.29133858267716534
          },
          {
            "duration": 0.06637162500001637,
            "durationTicks": 48,
            "midi": 42,
            "name": "F#2",
            "ticks": 124224,
            "time": 171.7697655,
            "velocity": 0.29133858267716534
          },
          {
            "duration": 0.06637162500001637,
            "durationTicks": 48,
            "midi": 60,
            "name": "C4",
            "ticks": 124224,
            "time": 171.7697655,
            "velocity": 0.29133858267716534
          },
          {
            "duration": 0.06637162500001637,
            "durationTicks": 48,
            "midi": 39,
            "name": "D#2",
            "ticks": 124224,
            "time": 171.7697655,
            "velocity": 0.3937007874015748
          },
          {
            "duration": 0.06637162500001637,
            "durationTicks": 48,
            "midi": 36,
            "name": "C2",
            "ticks": 124224,
            "time": 171.7697655,
            "velocity": 0.3937007874015748
          },
          {
            "duration": 0.06637162499998794,
            "durationTicks": 48,
            "midi": 60,
            "name": "C4",
            "ticks": 124320,
            "time": 171.90250875,
            "velocity": 0.29133858267716534
          },
          {
            "duration": 0.06637162499998794,
            "durationTicks": 48,
            "midi": 42,
            "name": "F#2",
            "ticks": 124416,
            "time": 172.035252,
            "velocity": 0.3937007874015748
          },
          {
            "duration": 0.06637162499998794,
            "durationTicks": 48,
            "midi": 70,
            "name": "A#4",
            "ticks": 124416,
            "time": 172.035252,
            "velocity": 0.29133858267716534
          },
          {
            "duration": 0.06637162499998794,
            "durationTicks": 48,
            "midi": 63,
            "name": "D#4",
            "ticks": 124416,
            "time": 172.035252,
            "velocity": 0.29133858267716534
          },
          {
            "duration": 0.06637162499998794,
            "durationTicks": 48,
            "midi": 42,
            "name": "F#2",
            "ticks": 124512,
            "time": 172.16799525000002,
            "velocity": 0.3937007874015748
          },
          {
            "duration": 0.06637162499998794,
            "durationTicks": 48,
            "midi": 70,
            "name": "A#4",
            "ticks": 124512,
            "time": 172.16799525000002,
            "velocity": 0.29133858267716534
          },
          {
            "duration": 0.06637162499998794,
            "durationTicks": 48,
            "midi": 36,
            "name": "C2",
            "ticks": 124608,
            "time": 172.30073850000002,
            "velocity": 0.3937007874015748
          },
          {
            "duration": 0.06637162499998794,
            "durationTicks": 48,
            "midi": 42,
            "name": "F#2",
            "ticks": 124608,
            "time": 172.30073850000002,
            "velocity": 0.29133858267716534
          },
          {
            "duration": 0.06637162499998794,
            "durationTicks": 48,
            "midi": 60,
            "name": "C4",
            "ticks": 124608,
            "time": 172.30073850000002,
            "velocity": 0.29133858267716534
          },
          {
            "duration": 0.06637162500001637,
            "durationTicks": 48,
            "midi": 70,
            "name": "A#4",
            "ticks": 124800,
            "time": 172.566225,
            "velocity": 0.29133858267716534
          },
          {
            "duration": 0.06637162500001637,
            "durationTicks": 48,
            "midi": 46,
            "name": "A#2",
            "ticks": 124800,
            "time": 172.566225,
            "velocity": 0.29133858267716534
          },
          {
            "duration": 0.06637162499998794,
            "durationTicks": 48,
            "midi": 60,
            "name": "C4",
            "ticks": 124896,
            "time": 172.69896825,
            "velocity": 0.29133858267716534
          },
          {
            "duration": 0.06637162499998794,
            "durationTicks": 48,
            "midi": 39,
            "name": "D#2",
            "ticks": 124992,
            "time": 172.8317115,
            "velocity": 0.3937007874015748
          },
          {
            "duration": 0.06637162499998794,
            "durationTicks": 48,
            "midi": 38,
            "name": "D2",
            "ticks": 124992,
            "time": 172.8317115,
            "velocity": 0.29133858267716534
          },
          {
            "duration": 0.06637162499998794,
            "durationTicks": 48,
            "midi": 36,
            "name": "C2",
            "ticks": 124992,
            "time": 172.8317115,
            "velocity": 0.3937007874015748
          },
          {
            "duration": 0.06637162499998794,
            "durationTicks": 48,
            "midi": 42,
            "name": "F#2",
            "ticks": 124992,
            "time": 172.8317115,
            "velocity": 0.29133858267716534
          },
          {
            "duration": 0.06637162499998794,
            "durationTicks": 48,
            "midi": 60,
            "name": "C4",
            "ticks": 124992,
            "time": 172.8317115,
            "velocity": 0.29133858267716534
          },
          {
            "duration": 0.06637162499998794,
            "durationTicks": 48,
            "midi": 60,
            "name": "C4",
            "ticks": 125088,
            "time": 172.96445475000002,
            "velocity": 0.29133858267716534
          },
          {
            "duration": 0.06637162499998794,
            "durationTicks": 48,
            "midi": 46,
            "name": "A#2",
            "ticks": 125184,
            "time": 173.09719800000002,
            "velocity": 0.29133858267716534
          },
          {
            "duration": 0.06637162499998794,
            "durationTicks": 48,
            "midi": 63,
            "name": "D#4",
            "ticks": 125184,
            "time": 173.09719800000002,
            "velocity": 0.29133858267716534
          },
          {
            "duration": 0.06637162499998794,
            "durationTicks": 48,
            "midi": 70,
            "name": "A#4",
            "ticks": 125184,
            "time": 173.09719800000002,
            "velocity": 0.29133858267716534
          },
          {
            "duration": 0.06637162500001637,
            "durationTicks": 48,
            "midi": 70,
            "name": "A#4",
            "ticks": 125280,
            "time": 173.22994125,
            "velocity": 0.29133858267716534
          },
          {
            "duration": 0.06637162500001637,
            "durationTicks": 48,
            "midi": 36,
            "name": "C2",
            "ticks": 125376,
            "time": 173.3626845,
            "velocity": 0.3937007874015748
          },
          {
            "duration": 0.06637162500001637,
            "durationTicks": 48,
            "midi": 42,
            "name": "F#2",
            "ticks": 125376,
            "time": 173.3626845,
            "velocity": 0.29133858267716534
          },
          {
            "duration": 0.06637162500001637,
            "durationTicks": 48,
            "midi": 60,
            "name": "C4",
            "ticks": 125376,
            "time": 173.3626845,
            "velocity": 0.29133858267716534
          },
          {
            "duration": 0.06637162499998794,
            "durationTicks": 48,
            "midi": 70,
            "name": "A#4",
            "ticks": 125568,
            "time": 173.628171,
            "velocity": 0.29133858267716534
          },
          {
            "duration": 0.06637162499998794,
            "durationTicks": 48,
            "midi": 46,
            "name": "A#2",
            "ticks": 125568,
            "time": 173.628171,
            "velocity": 0.29133858267716534
          },
          {
            "duration": 0.06637162499998794,
            "durationTicks": 48,
            "midi": 60,
            "name": "C4",
            "ticks": 125664,
            "time": 173.76091425,
            "velocity": 0.29133858267716534
          },
          {
            "duration": 0.06637162499998794,
            "durationTicks": 48,
            "midi": 38,
            "name": "D2",
            "ticks": 125760,
            "time": 173.89365750000002,
            "velocity": 0.29133858267716534
          },
          {
            "duration": 0.06637162499998794,
            "durationTicks": 48,
            "midi": 42,
            "name": "F#2",
            "ticks": 125760,
            "time": 173.89365750000002,
            "velocity": 0.29133858267716534
          },
          {
            "duration": 0.06637162499998794,
            "durationTicks": 48,
            "midi": 60,
            "name": "C4",
            "ticks": 125760,
            "time": 173.89365750000002,
            "velocity": 0.29133858267716534
          },
          {
            "duration": 0.06637162499998794,
            "durationTicks": 48,
            "midi": 36,
            "name": "C2",
            "ticks": 125760,
            "time": 173.89365750000002,
            "velocity": 0.3937007874015748
          },
          {
            "duration": 0.06637162499998794,
            "durationTicks": 48,
            "midi": 39,
            "name": "D#2",
            "ticks": 125760,
            "time": 173.89365750000002,
            "velocity": 0.3937007874015748
          },
          {
            "duration": 0.06637162499998794,
            "durationTicks": 48,
            "midi": 60,
            "name": "C4",
            "ticks": 125856,
            "time": 174.02640075000002,
            "velocity": 0.29133858267716534
          },
          {
            "duration": 0.06637162500001637,
            "durationTicks": 48,
            "midi": 46,
            "name": "A#2",
            "ticks": 125952,
            "time": 174.159144,
            "velocity": 0.29133858267716534
          },
          {
            "duration": 0.06637162500001637,
            "durationTicks": 48,
            "midi": 63,
            "name": "D#4",
            "ticks": 125952,
            "time": 174.159144,
            "velocity": 0.29133858267716534
          },
          {
            "duration": 0.06637162500001637,
            "durationTicks": 48,
            "midi": 70,
            "name": "A#4",
            "ticks": 125952,
            "time": 174.159144,
            "velocity": 0.29133858267716534
          },
          {
            "duration": 0.06637162500001637,
            "durationTicks": 48,
            "midi": 70,
            "name": "A#4",
            "ticks": 126048,
            "time": 174.29188725,
            "velocity": 0.29133858267716534
          },
          {
            "duration": 0.06637162500001637,
            "durationTicks": 48,
            "midi": 36,
            "name": "C2",
            "ticks": 126144,
            "time": 174.4246305,
            "velocity": 0.3937007874015748
          },
          {
            "duration": 0.06637162500001637,
            "durationTicks": 48,
            "midi": 60,
            "name": "C4",
            "ticks": 126144,
            "time": 174.4246305,
            "velocity": 0.29133858267716534
          },
          {
            "duration": 0.06637162500001637,
            "durationTicks": 48,
            "midi": 42,
            "name": "F#2",
            "ticks": 126144,
            "time": 174.4246305,
            "velocity": 0.29133858267716534
          },
          {
            "duration": 0.06637162499998794,
            "durationTicks": 48,
            "midi": 70,
            "name": "A#4",
            "ticks": 126336,
            "time": 174.69011700000001,
            "velocity": 0.29133858267716534
          },
          {
            "duration": 0.06637162499998794,
            "durationTicks": 48,
            "midi": 46,
            "name": "A#2",
            "ticks": 126336,
            "time": 174.69011700000001,
            "velocity": 0.29133858267716534
          },
          {
            "duration": 0.06637162499998794,
            "durationTicks": 48,
            "midi": 60,
            "name": "C4",
            "ticks": 126432,
            "time": 174.82286025000002,
            "velocity": 0.29133858267716534
          },
          {
            "duration": 0.06637162500001637,
            "durationTicks": 48,
            "midi": 42,
            "name": "F#2",
            "ticks": 126528,
            "time": 174.9556035,
            "velocity": 0.29133858267716534
          },
          {
            "duration": 0.06637162500001637,
            "durationTicks": 48,
            "midi": 60,
            "name": "C4",
            "ticks": 126528,
            "time": 174.9556035,
            "velocity": 0.29133858267716534
          },
          {
            "duration": 0.06637162500001637,
            "durationTicks": 48,
            "midi": 38,
            "name": "D2",
            "ticks": 126528,
            "time": 174.9556035,
            "velocity": 0.29133858267716534
          },
          {
            "duration": 0.06637162500001637,
            "durationTicks": 48,
            "midi": 39,
            "name": "D#2",
            "ticks": 126528,
            "time": 174.9556035,
            "velocity": 0.3937007874015748
          },
          {
            "duration": 0.06637162500001637,
            "durationTicks": 48,
            "midi": 36,
            "name": "C2",
            "ticks": 126528,
            "time": 174.9556035,
            "velocity": 0.3937007874015748
          },
          {
            "duration": 0.06637162500001637,
            "durationTicks": 48,
            "midi": 60,
            "name": "C4",
            "ticks": 126624,
            "time": 175.08834675,
            "velocity": 0.29133858267716534
          },
          {
            "duration": 0.06637162500001637,
            "durationTicks": 48,
            "midi": 46,
            "name": "A#2",
            "ticks": 126720,
            "time": 175.22109,
            "velocity": 0.29133858267716534
          },
          {
            "duration": 0.06637162500001637,
            "durationTicks": 48,
            "midi": 70,
            "name": "A#4",
            "ticks": 126720,
            "time": 175.22109,
            "velocity": 0.29133858267716534
          },
          {
            "duration": 0.06637162500001637,
            "durationTicks": 48,
            "midi": 63,
            "name": "D#4",
            "ticks": 126720,
            "time": 175.22109,
            "velocity": 0.29133858267716534
          },
          {
            "duration": 0.06637162499998794,
            "durationTicks": 48,
            "midi": 70,
            "name": "A#4",
            "ticks": 126816,
            "time": 175.35383325,
            "velocity": 0.29133858267716534
          },
          {
            "duration": 0.06637162499998794,
            "durationTicks": 48,
            "midi": 82,
            "name": "A#5",
            "ticks": 126912,
            "time": 175.4865765,
            "velocity": 0.29133858267716534
          },
          {
            "duration": 0.06637162499998794,
            "durationTicks": 48,
            "midi": 42,
            "name": "F#2",
            "ticks": 126912,
            "time": 175.4865765,
            "velocity": 0.29133858267716534
          },
          {
            "duration": 0.06637162499998794,
            "durationTicks": 48,
            "midi": 36,
            "name": "C2",
            "ticks": 126912,
            "time": 175.4865765,
            "velocity": 0.3937007874015748
          },
          {
            "duration": 0.06637162499998794,
            "durationTicks": 48,
            "midi": 60,
            "name": "C4",
            "ticks": 126912,
            "time": 175.4865765,
            "velocity": 0.29133858267716534
          },
          {
            "duration": 0.06637162499998794,
            "durationTicks": 48,
            "midi": 82,
            "name": "A#5",
            "ticks": 127008,
            "time": 175.61931975000002,
            "velocity": 0.14173228346456693
          },
          {
            "duration": 0.06637162499998794,
            "durationTicks": 48,
            "midi": 82,
            "name": "A#5",
            "ticks": 127104,
            "time": 175.75206300000002,
            "velocity": 0.29133858267716534
          },
          {
            "duration": 0.06637162499998794,
            "durationTicks": 48,
            "midi": 70,
            "name": "A#4",
            "ticks": 127104,
            "time": 175.75206300000002,
            "velocity": 0.29133858267716534
          },
          {
            "duration": 0.06637162499998794,
            "durationTicks": 48,
            "midi": 46,
            "name": "A#2",
            "ticks": 127104,
            "time": 175.75206300000002,
            "velocity": 0.29133858267716534
          },
          {
            "duration": 0.06637162500001637,
            "durationTicks": 48,
            "midi": 60,
            "name": "C4",
            "ticks": 127200,
            "time": 175.88480625,
            "velocity": 0.29133858267716534
          },
          {
            "duration": 0.06637162500001637,
            "durationTicks": 48,
            "midi": 82,
            "name": "A#5",
            "ticks": 127200,
            "time": 175.88480625,
            "velocity": 0.29133858267716534
          },
          {
            "duration": 0.06637162500001637,
            "durationTicks": 48,
            "midi": 60,
            "name": "C4",
            "ticks": 127296,
            "time": 176.0175495,
            "velocity": 0.29133858267716534
          },
          {
            "duration": 0.06637162500001637,
            "durationTicks": 48,
            "midi": 36,
            "name": "C2",
            "ticks": 127296,
            "time": 176.0175495,
            "velocity": 0.3937007874015748
          },
          {
            "duration": 0.06637162500001637,
            "durationTicks": 48,
            "midi": 39,
            "name": "D#2",
            "ticks": 127296,
            "time": 176.0175495,
            "velocity": 0.3937007874015748
          },
          {
            "duration": 0.06637162500001637,
            "durationTicks": 48,
            "midi": 38,
            "name": "D2",
            "ticks": 127296,
            "time": 176.0175495,
            "velocity": 0.29133858267716534
          },
          {
            "duration": 0.06637162500001637,
            "durationTicks": 48,
            "midi": 42,
            "name": "F#2",
            "ticks": 127296,
            "time": 176.0175495,
            "velocity": 0.29133858267716534
          },
          {
            "duration": 0.06637162500001637,
            "durationTicks": 48,
            "midi": 60,
            "name": "C4",
            "ticks": 127392,
            "time": 176.15029275,
            "velocity": 0.29133858267716534
          },
          {
            "duration": 0.06637162499998794,
            "durationTicks": 48,
            "midi": 63,
            "name": "D#4",
            "ticks": 127488,
            "time": 176.283036,
            "velocity": 0.29133858267716534
          },
          {
            "duration": 0.06637162499998794,
            "durationTicks": 48,
            "midi": 42,
            "name": "F#2",
            "ticks": 127488,
            "time": 176.283036,
            "velocity": 0.3937007874015748
          },
          {
            "duration": 0.06637162499998794,
            "durationTicks": 48,
            "midi": 70,
            "name": "A#4",
            "ticks": 127488,
            "time": 176.283036,
            "velocity": 0.29133858267716534
          },
          {
            "duration": 0.06637162499998794,
            "durationTicks": 48,
            "midi": 42,
            "name": "F#2",
            "ticks": 127584,
            "time": 176.41577925,
            "velocity": 0.3937007874015748
          },
          {
            "duration": 0.06637162499998794,
            "durationTicks": 48,
            "midi": 70,
            "name": "A#4",
            "ticks": 127584,
            "time": 176.41577925,
            "velocity": 0.29133858267716534
          },
          {
            "duration": 0.06637162499998794,
            "durationTicks": 48,
            "midi": 42,
            "name": "F#2",
            "ticks": 127680,
            "time": 176.54852250000002,
            "velocity": 0.29133858267716534
          },
          {
            "duration": 0.06637162499998794,
            "durationTicks": 48,
            "midi": 60,
            "name": "C4",
            "ticks": 127680,
            "time": 176.54852250000002,
            "velocity": 0.29133858267716534
          },
          {
            "duration": 0.06637162499998794,
            "durationTicks": 48,
            "midi": 36,
            "name": "C2",
            "ticks": 127680,
            "time": 176.54852250000002,
            "velocity": 0.3937007874015748
          },
          {
            "duration": 0.06637162500001637,
            "durationTicks": 48,
            "midi": 46,
            "name": "A#2",
            "ticks": 127872,
            "time": 176.814009,
            "velocity": 0.29133858267716534
          },
          {
            "duration": 0.06637162500001637,
            "durationTicks": 48,
            "midi": 70,
            "name": "A#4",
            "ticks": 127872,
            "time": 176.814009,
            "velocity": 0.29133858267716534
          },
          {
            "duration": 0.06637162500001637,
            "durationTicks": 48,
            "midi": 60,
            "name": "C4",
            "ticks": 127968,
            "time": 176.94675225,
            "velocity": 0.29133858267716534
          },
          {
            "duration": 0.06637162500001637,
            "durationTicks": 48,
            "midi": 39,
            "name": "D#2",
            "ticks": 128064,
            "time": 177.0794955,
            "velocity": 0.3937007874015748
          },
          {
            "duration": 0.06637162500001637,
            "durationTicks": 48,
            "midi": 42,
            "name": "F#2",
            "ticks": 128064,
            "time": 177.0794955,
            "velocity": 0.29133858267716534
          },
          {
            "duration": 0.06637162500001637,
            "durationTicks": 48,
            "midi": 38,
            "name": "D2",
            "ticks": 128064,
            "time": 177.0794955,
            "velocity": 0.29133858267716534
          },
          {
            "duration": 0.06637162500001637,
            "durationTicks": 48,
            "midi": 60,
            "name": "C4",
            "ticks": 128064,
            "time": 177.0794955,
            "velocity": 0.29133858267716534
          },
          {
            "duration": 0.06637162500001637,
            "durationTicks": 48,
            "midi": 36,
            "name": "C2",
            "ticks": 128064,
            "time": 177.0794955,
            "velocity": 0.3937007874015748
          },
          {
            "duration": 0.06637162499998794,
            "durationTicks": 48,
            "midi": 60,
            "name": "C4",
            "ticks": 128160,
            "time": 177.21223875,
            "velocity": 0.29133858267716534
          },
          {
            "duration": 0.06637162499998794,
            "durationTicks": 48,
            "midi": 63,
            "name": "D#4",
            "ticks": 128256,
            "time": 177.34498200000002,
            "velocity": 0.29133858267716534
          },
          {
            "duration": 0.06637162499998794,
            "durationTicks": 48,
            "midi": 70,
            "name": "A#4",
            "ticks": 128256,
            "time": 177.34498200000002,
            "velocity": 0.29133858267716534
          },
          {
            "duration": 0.06637162499998794,
            "durationTicks": 48,
            "midi": 46,
            "name": "A#2",
            "ticks": 128256,
            "time": 177.34498200000002,
            "velocity": 0.29133858267716534
          },
          {
            "duration": 0.06637162499998794,
            "durationTicks": 48,
            "midi": 70,
            "name": "A#4",
            "ticks": 128352,
            "time": 177.47772525000002,
            "velocity": 0.29133858267716534
          },
          {
            "duration": 0.06637162500001637,
            "durationTicks": 48,
            "midi": 42,
            "name": "F#2",
            "ticks": 128448,
            "time": 177.6104685,
            "velocity": 0.29133858267716534
          },
          {
            "duration": 0.06637162500001637,
            "durationTicks": 48,
            "midi": 60,
            "name": "C4",
            "ticks": 128448,
            "time": 177.6104685,
            "velocity": 0.29133858267716534
          },
          {
            "duration": 0.06637162500001637,
            "durationTicks": 48,
            "midi": 36,
            "name": "C2",
            "ticks": 128448,
            "time": 177.6104685,
            "velocity": 0.3937007874015748
          },
          {
            "duration": 0.06637162500001637,
            "durationTicks": 48,
            "midi": 70,
            "name": "A#4",
            "ticks": 128640,
            "time": 177.875955,
            "velocity": 0.29133858267716534
          },
          {
            "duration": 0.06637162500001637,
            "durationTicks": 48,
            "midi": 46,
            "name": "A#2",
            "ticks": 128640,
            "time": 177.875955,
            "velocity": 0.29133858267716534
          },
          {
            "duration": 0.06637162499998794,
            "durationTicks": 48,
            "midi": 60,
            "name": "C4",
            "ticks": 128736,
            "time": 178.00869825,
            "velocity": 0.29133858267716534
          },
          {
            "duration": 0.06637162499998794,
            "durationTicks": 48,
            "midi": 36,
            "name": "C2",
            "ticks": 128832,
            "time": 178.1414415,
            "velocity": 0.3937007874015748
          },
          {
            "duration": 0.06637162499998794,
            "durationTicks": 48,
            "midi": 38,
            "name": "D2",
            "ticks": 128832,
            "time": 178.1414415,
            "velocity": 0.29133858267716534
          },
          {
            "duration": 0.06637162499998794,
            "durationTicks": 48,
            "midi": 39,
            "name": "D#2",
            "ticks": 128832,
            "time": 178.1414415,
            "velocity": 0.3937007874015748
          },
          {
            "duration": 0.06637162499998794,
            "durationTicks": 48,
            "midi": 60,
            "name": "C4",
            "ticks": 128832,
            "time": 178.1414415,
            "velocity": 0.29133858267716534
          },
          {
            "duration": 0.06637162499998794,
            "durationTicks": 48,
            "midi": 42,
            "name": "F#2",
            "ticks": 128832,
            "time": 178.1414415,
            "velocity": 0.29133858267716534
          },
          {
            "duration": 0.06637162499998794,
            "durationTicks": 48,
            "midi": 60,
            "name": "C4",
            "ticks": 128928,
            "time": 178.27418475000002,
            "velocity": 0.29133858267716534
          },
          {
            "duration": 0.06637162499998794,
            "durationTicks": 48,
            "midi": 70,
            "name": "A#4",
            "ticks": 129024,
            "time": 178.40692800000002,
            "velocity": 0.29133858267716534
          },
          {
            "duration": 0.06637162499998794,
            "durationTicks": 48,
            "midi": 46,
            "name": "A#2",
            "ticks": 129024,
            "time": 178.40692800000002,
            "velocity": 0.29133858267716534
          },
          {
            "duration": 0.06637162499998794,
            "durationTicks": 48,
            "midi": 63,
            "name": "D#4",
            "ticks": 129024,
            "time": 178.40692800000002,
            "velocity": 0.29133858267716534
          },
          {
            "duration": 0.06637162500001637,
            "durationTicks": 48,
            "midi": 70,
            "name": "A#4",
            "ticks": 129120,
            "time": 178.53967125,
            "velocity": 0.29133858267716534
          },
          {
            "duration": 0.06637162500001637,
            "durationTicks": 48,
            "midi": 60,
            "name": "C4",
            "ticks": 129216,
            "time": 178.6724145,
            "velocity": 0.29133858267716534
          },
          {
            "duration": 0.06637162500001637,
            "durationTicks": 48,
            "midi": 42,
            "name": "F#2",
            "ticks": 129216,
            "time": 178.6724145,
            "velocity": 0.29133858267716534
          },
          {
            "duration": 0.06637162500001637,
            "durationTicks": 48,
            "midi": 36,
            "name": "C2",
            "ticks": 129216,
            "time": 178.6724145,
            "velocity": 0.3937007874015748
          },
          {
            "duration": 0.06637162499998794,
            "durationTicks": 48,
            "midi": 70,
            "name": "A#4",
            "ticks": 129408,
            "time": 178.937901,
            "velocity": 0.29133858267716534
          },
          {
            "duration": 0.06637162499998794,
            "durationTicks": 48,
            "midi": 46,
            "name": "A#2",
            "ticks": 129408,
            "time": 178.937901,
            "velocity": 0.29133858267716534
          },
          {
            "duration": 0.06637162499998794,
            "durationTicks": 48,
            "midi": 60,
            "name": "C4",
            "ticks": 129504,
            "time": 179.07064425000002,
            "velocity": 0.29133858267716534
          },
          {
            "duration": 0.06637162499998794,
            "durationTicks": 48,
            "midi": 60,
            "name": "C4",
            "ticks": 129600,
            "time": 179.20338750000002,
            "velocity": 0.29133858267716534
          },
          {
            "duration": 0.06637162499998794,
            "durationTicks": 48,
            "midi": 38,
            "name": "D2",
            "ticks": 129600,
            "time": 179.20338750000002,
            "velocity": 0.29133858267716534
          },
          {
            "duration": 0.06637162499998794,
            "durationTicks": 48,
            "midi": 36,
            "name": "C2",
            "ticks": 129600,
            "time": 179.20338750000002,
            "velocity": 0.3937007874015748
          },
          {
            "duration": 0.06637162499998794,
            "durationTicks": 48,
            "midi": 42,
            "name": "F#2",
            "ticks": 129600,
            "time": 179.20338750000002,
            "velocity": 0.29133858267716534
          },
          {
            "duration": 0.06637162499998794,
            "durationTicks": 48,
            "midi": 39,
            "name": "D#2",
            "ticks": 129600,
            "time": 179.20338750000002,
            "velocity": 0.3937007874015748
          },
          {
            "duration": 0.06637162499998794,
            "durationTicks": 48,
            "midi": 60,
            "name": "C4",
            "ticks": 129696,
            "time": 179.33613075000002,
            "velocity": 0.29133858267716534
          },
          {
            "duration": 0.06637162500001637,
            "durationTicks": 48,
            "midi": 70,
            "name": "A#4",
            "ticks": 129792,
            "time": 179.468874,
            "velocity": 0.29133858267716534
          },
          {
            "duration": 0.06637162500001637,
            "durationTicks": 48,
            "midi": 63,
            "name": "D#4",
            "ticks": 129792,
            "time": 179.468874,
            "velocity": 0.29133858267716534
          },
          {
            "duration": 0.06637162500001637,
            "durationTicks": 48,
            "midi": 46,
            "name": "A#2",
            "ticks": 129792,
            "time": 179.468874,
            "velocity": 0.29133858267716534
          },
          {
            "duration": 0.06637162500001637,
            "durationTicks": 48,
            "midi": 70,
            "name": "A#4",
            "ticks": 129888,
            "time": 179.60161725,
            "velocity": 0.29133858267716534
          },
          {
            "duration": 0.06637162499998794,
            "durationTicks": 48,
            "midi": 82,
            "name": "A#5",
            "ticks": 129984,
            "time": 179.7343605,
            "velocity": 0.29133858267716534
          },
          {
            "duration": 0.06637162499998794,
            "durationTicks": 48,
            "midi": 42,
            "name": "F#2",
            "ticks": 129984,
            "time": 179.7343605,
            "velocity": 0.29133858267716534
          },
          {
            "duration": 0.06637162499998794,
            "durationTicks": 48,
            "midi": 60,
            "name": "C4",
            "ticks": 129984,
            "time": 179.7343605,
            "velocity": 0.29133858267716534
          },
          {
            "duration": 0.06637162499998794,
            "durationTicks": 48,
            "midi": 36,
            "name": "C2",
            "ticks": 129984,
            "time": 179.7343605,
            "velocity": 0.3937007874015748
          },
          {
            "duration": 0.06637162499998794,
            "durationTicks": 48,
            "midi": 82,
            "name": "A#5",
            "ticks": 130080,
            "time": 179.86710375,
            "velocity": 0.14173228346456693
          },
          {
            "duration": 0.06637162499998794,
            "durationTicks": 48,
            "midi": 46,
            "name": "A#2",
            "ticks": 130176,
            "time": 179.99984700000002,
            "velocity": 0.29133858267716534
          },
          {
            "duration": 0.06637162499998794,
            "durationTicks": 48,
            "midi": 70,
            "name": "A#4",
            "ticks": 130176,
            "time": 179.99984700000002,
            "velocity": 0.29133858267716534
          },
          {
            "duration": 0.06637162499998794,
            "durationTicks": 48,
            "midi": 82,
            "name": "A#5",
            "ticks": 130176,
            "time": 179.99984700000002,
            "velocity": 0.29133858267716534
          },
          {
            "duration": 0.06637162499998794,
            "durationTicks": 48,
            "midi": 60,
            "name": "C4",
            "ticks": 130272,
            "time": 180.13259025000002,
            "velocity": 0.29133858267716534
          },
          {
            "duration": 0.06637162499998794,
            "durationTicks": 48,
            "midi": 82,
            "name": "A#5",
            "ticks": 130272,
            "time": 180.13259025000002,
            "velocity": 0.29133858267716534
          },
          {
            "duration": 0.06637162500001637,
            "durationTicks": 48,
            "midi": 36,
            "name": "C2",
            "ticks": 130368,
            "time": 180.2653335,
            "velocity": 0.3937007874015748
          },
          {
            "duration": 0.06637162500001637,
            "durationTicks": 48,
            "midi": 39,
            "name": "D#2",
            "ticks": 130368,
            "time": 180.2653335,
            "velocity": 0.3937007874015748
          },
          {
            "duration": 0.06637162500001637,
            "durationTicks": 48,
            "midi": 42,
            "name": "F#2",
            "ticks": 130368,
            "time": 180.2653335,
            "velocity": 0.29133858267716534
          },
          {
            "duration": 0.06637162500001637,
            "durationTicks": 48,
            "midi": 38,
            "name": "D2",
            "ticks": 130368,
            "time": 180.2653335,
            "velocity": 0.29133858267716534
          },
          {
            "duration": 0.06637162500001637,
            "durationTicks": 48,
            "midi": 60,
            "name": "C4",
            "ticks": 130368,
            "time": 180.2653335,
            "velocity": 0.29133858267716534
          },
          {
            "duration": 0.06637162500001637,
            "durationTicks": 48,
            "midi": 60,
            "name": "C4",
            "ticks": 130464,
            "time": 180.39807675,
            "velocity": 0.29133858267716534
          },
          {
            "duration": 0.06637162500001637,
            "durationTicks": 48,
            "midi": 63,
            "name": "D#4",
            "ticks": 130560,
            "time": 180.53082,
            "velocity": 0.29133858267716534
          },
          {
            "duration": 0.06637162500001637,
            "durationTicks": 48,
            "midi": 70,
            "name": "A#4",
            "ticks": 130560,
            "time": 180.53082,
            "velocity": 0.29133858267716534
          },
          {
            "duration": 0.06637162500001637,
            "durationTicks": 48,
            "midi": 42,
            "name": "F#2",
            "ticks": 130560,
            "time": 180.53082,
            "velocity": 0.3937007874015748
          },
          {
            "duration": 0.06637162499998794,
            "durationTicks": 48,
            "midi": 42,
            "name": "F#2",
            "ticks": 130656,
            "time": 180.66356325,
            "velocity": 0.3937007874015748
          },
          {
            "duration": 0.06637162499998794,
            "durationTicks": 48,
            "midi": 70,
            "name": "A#4",
            "ticks": 130656,
            "time": 180.66356325,
            "velocity": 0.29133858267716534
          },
          {
            "duration": 0.06637162499998794,
            "durationTicks": 48,
            "midi": 60,
            "name": "C4",
            "ticks": 130752,
            "time": 180.79630650000001,
            "velocity": 0.29133858267716534
          },
          {
            "duration": 0.06637162499998794,
            "durationTicks": 48,
            "midi": 36,
            "name": "C2",
            "ticks": 130752,
            "time": 180.79630650000001,
            "velocity": 0.3937007874015748
          },
          {
            "duration": 0.06637162499998794,
            "durationTicks": 48,
            "midi": 42,
            "name": "F#2",
            "ticks": 130752,
            "time": 180.79630650000001,
            "velocity": 0.29133858267716534
          },
          {
            "duration": 0.06637162499998794,
            "durationTicks": 48,
            "midi": 70,
            "name": "A#4",
            "ticks": 130944,
            "time": 181.06179300000002,
            "velocity": 0.29133858267716534
          },
          {
            "duration": 0.06637162499998794,
            "durationTicks": 48,
            "midi": 46,
            "name": "A#2",
            "ticks": 130944,
            "time": 181.06179300000002,
            "velocity": 0.29133858267716534
          },
          {
            "duration": 0.06637162500001637,
            "durationTicks": 48,
            "midi": 60,
            "name": "C4",
            "ticks": 131040,
            "time": 181.19453625,
            "velocity": 0.29133858267716534
          },
          {
            "duration": 0.06637162500001637,
            "durationTicks": 48,
            "midi": 38,
            "name": "D2",
            "ticks": 131136,
            "time": 181.3272795,
            "velocity": 0.29133858267716534
          },
          {
            "duration": 0.06637162500001637,
            "durationTicks": 48,
            "midi": 60,
            "name": "C4",
            "ticks": 131136,
            "time": 181.3272795,
            "velocity": 0.29133858267716534
          },
          {
            "duration": 0.06637162500001637,
            "durationTicks": 48,
            "midi": 39,
            "name": "D#2",
            "ticks": 131136,
            "time": 181.3272795,
            "velocity": 0.3937007874015748
          },
          {
            "duration": 0.06637162500001637,
            "durationTicks": 48,
            "midi": 36,
            "name": "C2",
            "ticks": 131136,
            "time": 181.3272795,
            "velocity": 0.3937007874015748
          },
          {
            "duration": 0.06637162500001637,
            "durationTicks": 48,
            "midi": 42,
            "name": "F#2",
            "ticks": 131136,
            "time": 181.3272795,
            "velocity": 0.29133858267716534
          },
          {
            "duration": 0.06637162500001637,
            "durationTicks": 48,
            "midi": 60,
            "name": "C4",
            "ticks": 131232,
            "time": 181.46002275,
            "velocity": 0.29133858267716534
          },
          {
            "duration": 0.06637162499998794,
            "durationTicks": 48,
            "midi": 63,
            "name": "D#4",
            "ticks": 131328,
            "time": 181.592766,
            "velocity": 0.29133858267716534
          },
          {
            "duration": 0.06637162499998794,
            "durationTicks": 48,
            "midi": 46,
            "name": "A#2",
            "ticks": 131328,
            "time": 181.592766,
            "velocity": 0.29133858267716534
          },
          {
            "duration": 0.06637162499998794,
            "durationTicks": 48,
            "midi": 70,
            "name": "A#4",
            "ticks": 131328,
            "time": 181.592766,
            "velocity": 0.29133858267716534
          },
          {
            "duration": 0.06637162499998794,
            "durationTicks": 48,
            "midi": 70,
            "name": "A#4",
            "ticks": 131424,
            "time": 181.72550925000002,
            "velocity": 0.29133858267716534
          },
          {
            "duration": 0.06637162499998794,
            "durationTicks": 48,
            "midi": 42,
            "name": "F#2",
            "ticks": 131520,
            "time": 181.85825250000002,
            "velocity": 0.29133858267716534
          },
          {
            "duration": 0.06637162499998794,
            "durationTicks": 48,
            "midi": 60,
            "name": "C4",
            "ticks": 131520,
            "time": 181.85825250000002,
            "velocity": 0.29133858267716534
          },
          {
            "duration": 0.06637162499998794,
            "durationTicks": 48,
            "midi": 36,
            "name": "C2",
            "ticks": 131520,
            "time": 181.85825250000002,
            "velocity": 0.3937007874015748
          },
          {
            "duration": 0.06637162500001637,
            "durationTicks": 48,
            "midi": 70,
            "name": "A#4",
            "ticks": 131712,
            "time": 182.123739,
            "velocity": 0.29133858267716534
          },
          {
            "duration": 0.06637162500001637,
            "durationTicks": 48,
            "midi": 46,
            "name": "A#2",
            "ticks": 131712,
            "time": 182.123739,
            "velocity": 0.29133858267716534
          },
          {
            "duration": 0.06637162500001637,
            "durationTicks": 48,
            "midi": 60,
            "name": "C4",
            "ticks": 131808,
            "time": 182.25648225,
            "velocity": 0.29133858267716534
          },
          {
            "duration": 0.06637162499998794,
            "durationTicks": 48,
            "midi": 42,
            "name": "F#2",
            "ticks": 131904,
            "time": 182.3892255,
            "velocity": 0.29133858267716534
          },
          {
            "duration": 0.06637162499998794,
            "durationTicks": 48,
            "midi": 60,
            "name": "C4",
            "ticks": 131904,
            "time": 182.3892255,
            "velocity": 0.29133858267716534
          },
          {
            "duration": 0.06637162499998794,
            "durationTicks": 48,
            "midi": 39,
            "name": "D#2",
            "ticks": 131904,
            "time": 182.3892255,
            "velocity": 0.3937007874015748
          },
          {
            "duration": 0.06637162499998794,
            "durationTicks": 48,
            "midi": 36,
            "name": "C2",
            "ticks": 131904,
            "time": 182.3892255,
            "velocity": 0.3937007874015748
          },
          {
            "duration": 0.06637162499998794,
            "durationTicks": 48,
            "midi": 38,
            "name": "D2",
            "ticks": 131904,
            "time": 182.3892255,
            "velocity": 0.29133858267716534
          },
          {
            "duration": 0.06637162499998794,
            "durationTicks": 48,
            "midi": 60,
            "name": "C4",
            "ticks": 132000,
            "time": 182.52196875,
            "velocity": 0.29133858267716534
          },
          {
            "duration": 0.06637162499998794,
            "durationTicks": 48,
            "midi": 70,
            "name": "A#4",
            "ticks": 132096,
            "time": 182.65471200000002,
            "velocity": 0.29133858267716534
          },
          {
            "duration": 0.06637162499998794,
            "durationTicks": 48,
            "midi": 63,
            "name": "D#4",
            "ticks": 132096,
            "time": 182.65471200000002,
            "velocity": 0.29133858267716534
          },
          {
            "duration": 0.06637162499998794,
            "durationTicks": 48,
            "midi": 46,
            "name": "A#2",
            "ticks": 132096,
            "time": 182.65471200000002,
            "velocity": 0.29133858267716534
          },
          {
            "duration": 0.06637162499998794,
            "durationTicks": 48,
            "midi": 70,
            "name": "A#4",
            "ticks": 132192,
            "time": 182.78745525000002,
            "velocity": 0.29133858267716534
          },
          {
            "duration": 0.06637162500001637,
            "durationTicks": 48,
            "midi": 60,
            "name": "C4",
            "ticks": 132288,
            "time": 182.9201985,
            "velocity": 0.29133858267716534
          },
          {
            "duration": 0.06637162500001637,
            "durationTicks": 48,
            "midi": 36,
            "name": "C2",
            "ticks": 132288,
            "time": 182.9201985,
            "velocity": 0.3937007874015748
          },
          {
            "duration": 0.06637162500001637,
            "durationTicks": 48,
            "midi": 42,
            "name": "F#2",
            "ticks": 132288,
            "time": 182.9201985,
            "velocity": 0.29133858267716534
          },
          {
            "duration": 0.06637162500001637,
            "durationTicks": 48,
            "midi": 46,
            "name": "A#2",
            "ticks": 132480,
            "time": 183.185685,
            "velocity": 0.29133858267716534
          },
          {
            "duration": 0.06637162500001637,
            "durationTicks": 48,
            "midi": 70,
            "name": "A#4",
            "ticks": 132480,
            "time": 183.185685,
            "velocity": 0.29133858267716534
          },
          {
            "duration": 0.06637162499998794,
            "durationTicks": 48,
            "midi": 60,
            "name": "C4",
            "ticks": 132576,
            "time": 183.31842825,
            "velocity": 0.29133858267716534
          },
          {
            "duration": 0.06637162499998794,
            "durationTicks": 48,
            "midi": 36,
            "name": "C2",
            "ticks": 132672,
            "time": 183.45117150000002,
            "velocity": 0.3937007874015748
          },
          {
            "duration": 0.06637162499998794,
            "durationTicks": 48,
            "midi": 60,
            "name": "C4",
            "ticks": 132672,
            "time": 183.45117150000002,
            "velocity": 0.29133858267716534
          },
          {
            "duration": 0.06637162499998794,
            "durationTicks": 48,
            "midi": 42,
            "name": "F#2",
            "ticks": 132672,
            "time": 183.45117150000002,
            "velocity": 0.29133858267716534
          },
          {
            "duration": 0.06637162499998794,
            "durationTicks": 48,
            "midi": 38,
            "name": "D2",
            "ticks": 132672,
            "time": 183.45117150000002,
            "velocity": 0.29133858267716534
          },
          {
            "duration": 0.06637162499998794,
            "durationTicks": 48,
            "midi": 39,
            "name": "D#2",
            "ticks": 132672,
            "time": 183.45117150000002,
            "velocity": 0.3937007874015748
          },
          {
            "duration": 0.06637162499998794,
            "durationTicks": 48,
            "midi": 60,
            "name": "C4",
            "ticks": 132768,
            "time": 183.58391475000002,
            "velocity": 0.29133858267716534
          },
          {
            "duration": 0.06637162499998794,
            "durationTicks": 48,
            "midi": 70,
            "name": "A#4",
            "ticks": 132864,
            "time": 183.71665800000002,
            "velocity": 0.29133858267716534
          },
          {
            "duration": 0.06637162499998794,
            "durationTicks": 48,
            "midi": 46,
            "name": "A#2",
            "ticks": 132864,
            "time": 183.71665800000002,
            "velocity": 0.29133858267716534
          },
          {
            "duration": 0.06637162499998794,
            "durationTicks": 48,
            "midi": 63,
            "name": "D#4",
            "ticks": 132864,
            "time": 183.71665800000002,
            "velocity": 0.29133858267716534
          },
          {
            "duration": 0.06637162500001637,
            "durationTicks": 48,
            "midi": 70,
            "name": "A#4",
            "ticks": 132960,
            "time": 183.84940125,
            "velocity": 0.29133858267716534
          },
          {
            "duration": 0.06637162500001637,
            "durationTicks": 48,
            "midi": 60,
            "name": "C4",
            "ticks": 133056,
            "time": 183.9821445,
            "velocity": 0.29133858267716534
          },
          {
            "duration": 0.06637162500001637,
            "durationTicks": 48,
            "midi": 82,
            "name": "A#5",
            "ticks": 133056,
            "time": 183.9821445,
            "velocity": 0.29133858267716534
          },
          {
            "duration": 0.06637162500001637,
            "durationTicks": 48,
            "midi": 42,
            "name": "F#2",
            "ticks": 133056,
            "time": 183.9821445,
            "velocity": 0.29133858267716534
          },
          {
            "duration": 0.06637162500001637,
            "durationTicks": 48,
            "midi": 36,
            "name": "C2",
            "ticks": 133056,
            "time": 183.9821445,
            "velocity": 0.3937007874015748
          },
          {
            "duration": 0.06637162499998794,
            "durationTicks": 48,
            "midi": 82,
            "name": "A#5",
            "ticks": 133152,
            "time": 184.11488775,
            "velocity": 0.14173228346456693
          },
          {
            "duration": 0.06637162499998794,
            "durationTicks": 48,
            "midi": 70,
            "name": "A#4",
            "ticks": 133248,
            "time": 184.247631,
            "velocity": 0.29133858267716534
          },
          {
            "duration": 0.06637162499998794,
            "durationTicks": 48,
            "midi": 82,
            "name": "A#5",
            "ticks": 133248,
            "time": 184.247631,
            "velocity": 0.29133858267716534
          },
          {
            "duration": 0.06637162499998794,
            "durationTicks": 48,
            "midi": 46,
            "name": "A#2",
            "ticks": 133248,
            "time": 184.247631,
            "velocity": 0.29133858267716534
          },
          {
            "duration": 0.06637162499998794,
            "durationTicks": 48,
            "midi": 60,
            "name": "C4",
            "ticks": 133344,
            "time": 184.38037425000002,
            "velocity": 0.29133858267716534
          },
          {
            "duration": 0.06637162499998794,
            "durationTicks": 48,
            "midi": 82,
            "name": "A#5",
            "ticks": 133344,
            "time": 184.38037425000002,
            "velocity": 0.29133858267716534
          },
          {
            "duration": 0.06637162499998794,
            "durationTicks": 48,
            "midi": 36,
            "name": "C2",
            "ticks": 133440,
            "time": 184.51311750000002,
            "velocity": 0.3937007874015748
          },
          {
            "duration": 0.06637162499998794,
            "durationTicks": 48,
            "midi": 39,
            "name": "D#2",
            "ticks": 133440,
            "time": 184.51311750000002,
            "velocity": 0.3937007874015748
          },
          {
            "duration": 0.06637162499998794,
            "durationTicks": 48,
            "midi": 42,
            "name": "F#2",
            "ticks": 133440,
            "time": 184.51311750000002,
            "velocity": 0.29133858267716534
          },
          {
            "duration": 0.06637162499998794,
            "durationTicks": 48,
            "midi": 38,
            "name": "D2",
            "ticks": 133440,
            "time": 184.51311750000002,
            "velocity": 0.29133858267716534
          },
          {
            "duration": 0.06637162499998794,
            "durationTicks": 48,
            "midi": 60,
            "name": "C4",
            "ticks": 133440,
            "time": 184.51311750000002,
            "velocity": 0.29133858267716534
          },
          {
            "duration": 0.06637162500001637,
            "durationTicks": 48,
            "midi": 60,
            "name": "C4",
            "ticks": 133536,
            "time": 184.64586075,
            "velocity": 0.29133858267716534
          },
          {
            "duration": 0.06637162500001637,
            "durationTicks": 48,
            "midi": 70,
            "name": "A#4",
            "ticks": 133632,
            "time": 184.778604,
            "velocity": 0.29133858267716534
          },
          {
            "duration": 0.06637162500001637,
            "durationTicks": 48,
            "midi": 42,
            "name": "F#2",
            "ticks": 133632,
            "time": 184.778604,
            "velocity": 0.3937007874015748
          },
          {
            "duration": 0.06637162500001637,
            "durationTicks": 48,
            "midi": 63,
            "name": "D#4",
            "ticks": 133632,
            "time": 184.778604,
            "velocity": 0.29133858267716534
          },
          {
            "duration": 0.06637162500001637,
            "durationTicks": 48,
            "midi": 70,
            "name": "A#4",
            "ticks": 133728,
            "time": 184.91134725,
            "velocity": 0.29133858267716534
          },
          {
            "duration": 0.06637162500001637,
            "durationTicks": 48,
            "midi": 42,
            "name": "F#2",
            "ticks": 133728,
            "time": 184.91134725,
            "velocity": 0.3937007874015748
          },
          {
            "duration": 0.06637162499998794,
            "durationTicks": 48,
            "midi": 60,
            "name": "C4",
            "ticks": 133824,
            "time": 185.0440905,
            "velocity": 0.29133858267716534
          },
          {
            "duration": 0.06637162499998794,
            "durationTicks": 48,
            "midi": 36,
            "name": "C2",
            "ticks": 133824,
            "time": 185.0440905,
            "velocity": 0.3937007874015748
          },
          {
            "duration": 0.06637162499998794,
            "durationTicks": 48,
            "midi": 42,
            "name": "F#2",
            "ticks": 133824,
            "time": 185.0440905,
            "velocity": 0.29133858267716534
          },
          {
            "duration": 0.06637162499998794,
            "durationTicks": 48,
            "midi": 46,
            "name": "A#2",
            "ticks": 134016,
            "time": 185.30957700000002,
            "velocity": 0.29133858267716534
          },
          {
            "duration": 0.06637162499998794,
            "durationTicks": 48,
            "midi": 70,
            "name": "A#4",
            "ticks": 134016,
            "time": 185.30957700000002,
            "velocity": 0.29133858267716534
          },
          {
            "duration": 0.06637162499998794,
            "durationTicks": 48,
            "midi": 60,
            "name": "C4",
            "ticks": 134112,
            "time": 185.44232025000002,
            "velocity": 0.29133858267716534
          },
          {
            "duration": 0.06637162500001637,
            "durationTicks": 48,
            "midi": 39,
            "name": "D#2",
            "ticks": 134208,
            "time": 185.5750635,
            "velocity": 0.3937007874015748
          },
          {
            "duration": 0.06637162500001637,
            "durationTicks": 48,
            "midi": 38,
            "name": "D2",
            "ticks": 134208,
            "time": 185.5750635,
            "velocity": 0.29133858267716534
          },
          {
            "duration": 0.06637162500001637,
            "durationTicks": 48,
            "midi": 60,
            "name": "C4",
            "ticks": 134208,
            "time": 185.5750635,
            "velocity": 0.29133858267716534
          },
          {
            "duration": 0.06637162500001637,
            "durationTicks": 48,
            "midi": 42,
            "name": "F#2",
            "ticks": 134208,
            "time": 185.5750635,
            "velocity": 0.29133858267716534
          },
          {
            "duration": 0.06637162500001637,
            "durationTicks": 48,
            "midi": 36,
            "name": "C2",
            "ticks": 134208,
            "time": 185.5750635,
            "velocity": 0.3937007874015748
          },
          {
            "duration": 0.06637162500001637,
            "durationTicks": 48,
            "midi": 60,
            "name": "C4",
            "ticks": 134304,
            "time": 185.70780675,
            "velocity": 0.29133858267716534
          },
          {
            "duration": 0.06637162500001637,
            "durationTicks": 48,
            "midi": 70,
            "name": "A#4",
            "ticks": 134400,
            "time": 185.84055,
            "velocity": 0.29133858267716534
          },
          {
            "duration": 0.06637162500001637,
            "durationTicks": 48,
            "midi": 46,
            "name": "A#2",
            "ticks": 134400,
            "time": 185.84055,
            "velocity": 0.29133858267716534
          },
          {
            "duration": 0.06637162500001637,
            "durationTicks": 48,
            "midi": 63,
            "name": "D#4",
            "ticks": 134400,
            "time": 185.84055,
            "velocity": 0.29133858267716534
          },
          {
            "duration": 0.06637162499998794,
            "durationTicks": 48,
            "midi": 70,
            "name": "A#4",
            "ticks": 134496,
            "time": 185.97329325,
            "velocity": 0.29133858267716534
          },
          {
            "duration": 0.06637162499998794,
            "durationTicks": 48,
            "midi": 60,
            "name": "C4",
            "ticks": 134592,
            "time": 186.10603650000002,
            "velocity": 0.29133858267716534
          },
          {
            "duration": 0.06637162499998794,
            "durationTicks": 48,
            "midi": 36,
            "name": "C2",
            "ticks": 134592,
            "time": 186.10603650000002,
            "velocity": 0.3937007874015748
          },
          {
            "duration": 0.06637162499998794,
            "durationTicks": 48,
            "midi": 42,
            "name": "F#2",
            "ticks": 134592,
            "time": 186.10603650000002,
            "velocity": 0.29133858267716534
          },
          {
            "duration": 0.06637162500001637,
            "durationTicks": 48,
            "midi": 70,
            "name": "A#4",
            "ticks": 134784,
            "time": 186.371523,
            "velocity": 0.29133858267716534
          },
          {
            "duration": 0.06637162500001637,
            "durationTicks": 48,
            "midi": 46,
            "name": "A#2",
            "ticks": 134784,
            "time": 186.371523,
            "velocity": 0.29133858267716534
          },
          {
            "duration": 0.06637162500001637,
            "durationTicks": 48,
            "midi": 60,
            "name": "C4",
            "ticks": 134880,
            "time": 186.50426625,
            "velocity": 0.29133858267716534
          },
          {
            "duration": 0.06637162500001637,
            "durationTicks": 48,
            "midi": 42,
            "name": "F#2",
            "ticks": 134976,
            "time": 186.6370095,
            "velocity": 0.29133858267716534
          },
          {
            "duration": 0.06637162500001637,
            "durationTicks": 48,
            "midi": 60,
            "name": "C4",
            "ticks": 134976,
            "time": 186.6370095,
            "velocity": 0.29133858267716534
          },
          {
            "duration": 0.06637162500001637,
            "durationTicks": 48,
            "midi": 38,
            "name": "D2",
            "ticks": 134976,
            "time": 186.6370095,
            "velocity": 0.29133858267716534
          },
          {
            "duration": 0.06637162500001637,
            "durationTicks": 48,
            "midi": 39,
            "name": "D#2",
            "ticks": 134976,
            "time": 186.6370095,
            "velocity": 0.3937007874015748
          },
          {
            "duration": 0.06637162500001637,
            "durationTicks": 48,
            "midi": 36,
            "name": "C2",
            "ticks": 134976,
            "time": 186.6370095,
            "velocity": 0.3937007874015748
          },
          {
            "duration": 0.06637162499998794,
            "durationTicks": 48,
            "midi": 60,
            "name": "C4",
            "ticks": 135072,
            "time": 186.76975275,
            "velocity": 0.29133858267716534
          },
          {
            "duration": 0.06637162499998794,
            "durationTicks": 48,
            "midi": 70,
            "name": "A#4",
            "ticks": 135168,
            "time": 186.902496,
            "velocity": 0.29133858267716534
          },
          {
            "duration": 0.06637162499998794,
            "durationTicks": 48,
            "midi": 63,
            "name": "D#4",
            "ticks": 135168,
            "time": 186.902496,
            "velocity": 0.29133858267716534
          },
          {
            "duration": 0.06637162499998794,
            "durationTicks": 48,
            "midi": 46,
            "name": "A#2",
            "ticks": 135168,
            "time": 186.902496,
            "velocity": 0.29133858267716534
          },
          {
            "duration": 0.06637162499998794,
            "durationTicks": 48,
            "midi": 70,
            "name": "A#4",
            "ticks": 135264,
            "time": 187.03523925000002,
            "velocity": 0.29133858267716534
          },
          {
            "duration": 0.06637162499998794,
            "durationTicks": 48,
            "midi": 42,
            "name": "F#2",
            "ticks": 135360,
            "time": 187.16798250000002,
            "velocity": 0.29133858267716534
          },
          {
            "duration": 0.06637162499998794,
            "durationTicks": 48,
            "midi": 36,
            "name": "C2",
            "ticks": 135360,
            "time": 187.16798250000002,
            "velocity": 0.3937007874015748
          },
          {
            "duration": 0.06637162499998794,
            "durationTicks": 48,
            "midi": 60,
            "name": "C4",
            "ticks": 135360,
            "time": 187.16798250000002,
            "velocity": 0.29133858267716534
          },
          {
            "duration": 0.06637162500001637,
            "durationTicks": 48,
            "midi": 70,
            "name": "A#4",
            "ticks": 135552,
            "time": 187.433469,
            "velocity": 0.29133858267716534
          },
          {
            "duration": 0.06637162500001637,
            "durationTicks": 48,
            "midi": 46,
            "name": "A#2",
            "ticks": 135552,
            "time": 187.433469,
            "velocity": 0.29133858267716534
          },
          {
            "duration": 0.06637162500001637,
            "durationTicks": 48,
            "midi": 60,
            "name": "C4",
            "ticks": 135648,
            "time": 187.56621225,
            "velocity": 0.29133858267716534
          },
          {
            "duration": 0.06637162499998794,
            "durationTicks": 48,
            "midi": 38,
            "name": "D2",
            "ticks": 135744,
            "time": 187.6989555,
            "velocity": 0.29133858267716534
          },
          {
            "duration": 0.06637162499998794,
            "durationTicks": 48,
            "midi": 36,
            "name": "C2",
            "ticks": 135744,
            "time": 187.6989555,
            "velocity": 0.3937007874015748
          },
          {
            "duration": 0.06637162499998794,
            "durationTicks": 48,
            "midi": 42,
            "name": "F#2",
            "ticks": 135744,
            "time": 187.6989555,
            "velocity": 0.29133858267716534
          },
          {
            "duration": 0.06637162499998794,
            "durationTicks": 48,
            "midi": 60,
            "name": "C4",
            "ticks": 135744,
            "time": 187.6989555,
            "velocity": 0.29133858267716534
          },
          {
            "duration": 0.06637162499998794,
            "durationTicks": 48,
            "midi": 39,
            "name": "D#2",
            "ticks": 135744,
            "time": 187.6989555,
            "velocity": 0.3937007874015748
          },
          {
            "duration": 0.06637162499998794,
            "durationTicks": 48,
            "midi": 60,
            "name": "C4",
            "ticks": 135840,
            "time": 187.83169875000002,
            "velocity": 0.29133858267716534
          },
          {
            "duration": 0.06637162499998794,
            "durationTicks": 48,
            "midi": 46,
            "name": "A#2",
            "ticks": 135936,
            "time": 187.96444200000002,
            "velocity": 0.29133858267716534
          },
          {
            "duration": 0.06637162499998794,
            "durationTicks": 48,
            "midi": 63,
            "name": "D#4",
            "ticks": 135936,
            "time": 187.96444200000002,
            "velocity": 0.29133858267716534
          },
          {
            "duration": 0.06637162499998794,
            "durationTicks": 48,
            "midi": 70,
            "name": "A#4",
            "ticks": 135936,
            "time": 187.96444200000002,
            "velocity": 0.29133858267716534
          },
          {
            "duration": 0.06637162499998794,
            "durationTicks": 48,
            "midi": 70,
            "name": "A#4",
            "ticks": 136032,
            "time": 188.09718525000002,
            "velocity": 0.29133858267716534
          },
          {
            "duration": 0.06637162500001637,
            "durationTicks": 48,
            "midi": 36,
            "name": "C2",
            "ticks": 136128,
            "time": 188.2299285,
            "velocity": 0.3937007874015748
          },
          {
            "duration": 0.06637162500001637,
            "durationTicks": 48,
            "midi": 42,
            "name": "F#2",
            "ticks": 136128,
            "time": 188.2299285,
            "velocity": 0.29133858267716534
          },
          {
            "duration": 0.06637162500001637,
            "durationTicks": 48,
            "midi": 82,
            "name": "A#5",
            "ticks": 136128,
            "time": 188.2299285,
            "velocity": 0.29133858267716534
          },
          {
            "duration": 0.06637162500001637,
            "durationTicks": 48,
            "midi": 60,
            "name": "C4",
            "ticks": 136128,
            "time": 188.2299285,
            "velocity": 0.29133858267716534
          },
          {
            "duration": 0.06637162500001637,
            "durationTicks": 48,
            "midi": 82,
            "name": "A#5",
            "ticks": 136224,
            "time": 188.36267175,
            "velocity": 0.14173228346456693
          },
          {
            "duration": 0.06637162499998794,
            "durationTicks": 48,
            "midi": 46,
            "name": "A#2",
            "ticks": 136320,
            "time": 188.495415,
            "velocity": 0.29133858267716534
          },
          {
            "duration": 0.06637162499998794,
            "durationTicks": 48,
            "midi": 70,
            "name": "A#4",
            "ticks": 136320,
            "time": 188.495415,
            "velocity": 0.29133858267716534
          },
          {
            "duration": 0.06637162499998794,
            "durationTicks": 48,
            "midi": 82,
            "name": "A#5",
            "ticks": 136320,
            "time": 188.495415,
            "velocity": 0.29133858267716534
          },
          {
            "duration": 0.06637162499998794,
            "durationTicks": 48,
            "midi": 60,
            "name": "C4",
            "ticks": 136416,
            "time": 188.62815825,
            "velocity": 0.29133858267716534
          },
          {
            "duration": 0.06637162499998794,
            "durationTicks": 48,
            "midi": 82,
            "name": "A#5",
            "ticks": 136416,
            "time": 188.62815825,
            "velocity": 0.29133858267716534
          },
          {
            "duration": 0.06637162499998794,
            "durationTicks": 48,
            "midi": 36,
            "name": "C2",
            "ticks": 136512,
            "time": 188.76090150000002,
            "velocity": 0.3937007874015748
          },
          {
            "duration": 0.06637162499998794,
            "durationTicks": 48,
            "midi": 38,
            "name": "D2",
            "ticks": 136512,
            "time": 188.76090150000002,
            "velocity": 0.29133858267716534
          },
          {
            "duration": 0.06637162499998794,
            "durationTicks": 48,
            "midi": 39,
            "name": "D#2",
            "ticks": 136512,
            "time": 188.76090150000002,
            "velocity": 0.3937007874015748
          },
          {
            "duration": 0.06637162499998794,
            "durationTicks": 48,
            "midi": 42,
            "name": "F#2",
            "ticks": 136512,
            "time": 188.76090150000002,
            "velocity": 0.29133858267716534
          },
          {
            "duration": 0.06637162499998794,
            "durationTicks": 48,
            "midi": 60,
            "name": "C4",
            "ticks": 136512,
            "time": 188.76090150000002,
            "velocity": 0.29133858267716534
          },
          {
            "duration": 0.06637162499998794,
            "durationTicks": 48,
            "midi": 60,
            "name": "C4",
            "ticks": 136608,
            "time": 188.89364475000002,
            "velocity": 0.29133858267716534
          },
          {
            "duration": 0.06637162500001637,
            "durationTicks": 48,
            "midi": 63,
            "name": "D#4",
            "ticks": 136704,
            "time": 189.026388,
            "velocity": 0.29133858267716534
          },
          {
            "duration": 0.06637162500001637,
            "durationTicks": 48,
            "midi": 42,
            "name": "F#2",
            "ticks": 136704,
            "time": 189.026388,
            "velocity": 0.3937007874015748
          },
          {
            "duration": 0.06637162500001637,
            "durationTicks": 48,
            "midi": 70,
            "name": "A#4",
            "ticks": 136704,
            "time": 189.026388,
            "velocity": 0.29133858267716534
          },
          {
            "duration": 0.06637162500001637,
            "durationTicks": 48,
            "midi": 70,
            "name": "A#4",
            "ticks": 136800,
            "time": 189.15913125,
            "velocity": 0.29133858267716534
          },
          {
            "duration": 0.06637162500001637,
            "durationTicks": 48,
            "midi": 42,
            "name": "F#2",
            "ticks": 136800,
            "time": 189.15913125,
            "velocity": 0.3937007874015748
          },
          {
            "duration": 0.06637162500001637,
            "durationTicks": 48,
            "midi": 36,
            "name": "C2",
            "ticks": 136896,
            "time": 189.2918745,
            "velocity": 0.3937007874015748
          },
          {
            "duration": 0.06637162500001637,
            "durationTicks": 48,
            "midi": 60,
            "name": "C4",
            "ticks": 136896,
            "time": 189.2918745,
            "velocity": 0.29133858267716534
          },
          {
            "duration": 0.06637162500001637,
            "durationTicks": 48,
            "midi": 42,
            "name": "F#2",
            "ticks": 136896,
            "time": 189.2918745,
            "velocity": 0.29133858267716534
          },
          {
            "duration": 0.06637162499998794,
            "durationTicks": 48,
            "midi": 46,
            "name": "A#2",
            "ticks": 137088,
            "time": 189.55736100000001,
            "velocity": 0.29133858267716534
          },
          {
            "duration": 0.06637162499998794,
            "durationTicks": 48,
            "midi": 70,
            "name": "A#4",
            "ticks": 137088,
            "time": 189.55736100000001,
            "velocity": 0.29133858267716534
          },
          {
            "duration": 0.06637162499998794,
            "durationTicks": 48,
            "midi": 60,
            "name": "C4",
            "ticks": 137184,
            "time": 189.69010425000002,
            "velocity": 0.29133858267716534
          },
          {
            "duration": 0.06637162499998794,
            "durationTicks": 48,
            "midi": 36,
            "name": "C2",
            "ticks": 137280,
            "time": 189.82284750000002,
            "velocity": 0.3937007874015748
          },
          {
            "duration": 0.06637162499998794,
            "durationTicks": 48,
            "midi": 39,
            "name": "D#2",
            "ticks": 137280,
            "time": 189.82284750000002,
            "velocity": 0.3937007874015748
          },
          {
            "duration": 0.06637162499998794,
            "durationTicks": 48,
            "midi": 42,
            "name": "F#2",
            "ticks": 137280,
            "time": 189.82284750000002,
            "velocity": 0.29133858267716534
          },
          {
            "duration": 0.06637162499998794,
            "durationTicks": 48,
            "midi": 60,
            "name": "C4",
            "ticks": 137280,
            "time": 189.82284750000002,
            "velocity": 0.29133858267716534
          },
          {
            "duration": 0.06637162499998794,
            "durationTicks": 48,
            "midi": 38,
            "name": "D2",
            "ticks": 137280,
            "time": 189.82284750000002,
            "velocity": 0.29133858267716534
          },
          {
            "duration": 0.06637162500001637,
            "durationTicks": 48,
            "midi": 60,
            "name": "C4",
            "ticks": 137376,
            "time": 189.95559075,
            "velocity": 0.29133858267716534
          },
          {
            "duration": 0.06637162500001637,
            "durationTicks": 48,
            "midi": 63,
            "name": "D#4",
            "ticks": 137472,
            "time": 190.088334,
            "velocity": 0.29133858267716534
          },
          {
            "duration": 0.06637162500001637,
            "durationTicks": 48,
            "midi": 70,
            "name": "A#4",
            "ticks": 137472,
            "time": 190.088334,
            "velocity": 0.29133858267716534
          },
          {
            "duration": 0.06637162500001637,
            "durationTicks": 48,
            "midi": 46,
            "name": "A#2",
            "ticks": 137472,
            "time": 190.088334,
            "velocity": 0.29133858267716534
          },
          {
            "duration": 0.06637162500001637,
            "durationTicks": 48,
            "midi": 70,
            "name": "A#4",
            "ticks": 137568,
            "time": 190.22107725,
            "velocity": 0.29133858267716534
          },
          {
            "duration": 0.06637162499998794,
            "durationTicks": 48,
            "midi": 60,
            "name": "C4",
            "ticks": 137664,
            "time": 190.3538205,
            "velocity": 0.29133858267716534
          },
          {
            "duration": 0.06637162499998794,
            "durationTicks": 48,
            "midi": 36,
            "name": "C2",
            "ticks": 137664,
            "time": 190.3538205,
            "velocity": 0.3937007874015748
          },
          {
            "duration": 0.06637162499998794,
            "durationTicks": 48,
            "midi": 42,
            "name": "F#2",
            "ticks": 137664,
            "time": 190.3538205,
            "velocity": 0.29133858267716534
          },
          {
            "duration": 0.06637162499998794,
            "durationTicks": 48,
            "midi": 46,
            "name": "A#2",
            "ticks": 137856,
            "time": 190.61930700000002,
            "velocity": 0.29133858267716534
          },
          {
            "duration": 0.06637162499998794,
            "durationTicks": 48,
            "midi": 70,
            "name": "A#4",
            "ticks": 137856,
            "time": 190.61930700000002,
            "velocity": 0.29133858267716534
          },
          {
            "duration": 0.06637162500001637,
            "durationTicks": 48,
            "midi": 60,
            "name": "C4",
            "ticks": 137952,
            "time": 190.75205025,
            "velocity": 0.29133858267716534
          },
          {
            "duration": 0.06637162500001637,
            "durationTicks": 48,
            "midi": 39,
            "name": "D#2",
            "ticks": 138048,
            "time": 190.8847935,
            "velocity": 0.3937007874015748
          },
          {
            "duration": 0.06637162500001637,
            "durationTicks": 48,
            "midi": 38,
            "name": "D2",
            "ticks": 138048,
            "time": 190.8847935,
            "velocity": 0.29133858267716534
          },
          {
            "duration": 0.06637162500001637,
            "durationTicks": 48,
            "midi": 42,
            "name": "F#2",
            "ticks": 138048,
            "time": 190.8847935,
            "velocity": 0.29133858267716534
          },
          {
            "duration": 0.06637162500001637,
            "durationTicks": 48,
            "midi": 60,
            "name": "C4",
            "ticks": 138048,
            "time": 190.8847935,
            "velocity": 0.29133858267716534
          },
          {
            "duration": 0.06637162500001637,
            "durationTicks": 48,
            "midi": 36,
            "name": "C2",
            "ticks": 138048,
            "time": 190.8847935,
            "velocity": 0.3937007874015748
          },
          {
            "duration": 0.06637162500001637,
            "durationTicks": 48,
            "midi": 60,
            "name": "C4",
            "ticks": 138144,
            "time": 191.01753675,
            "velocity": 0.29133858267716534
          },
          {
            "duration": 0.06637162499998794,
            "durationTicks": 48,
            "midi": 70,
            "name": "A#4",
            "ticks": 138240,
            "time": 191.15028,
            "velocity": 0.29133858267716534
          },
          {
            "duration": 0.06637162499998794,
            "durationTicks": 48,
            "midi": 63,
            "name": "D#4",
            "ticks": 138240,
            "time": 191.15028,
            "velocity": 0.29133858267716534
          },
          {
            "duration": 0.06637162499998794,
            "durationTicks": 48,
            "midi": 46,
            "name": "A#2",
            "ticks": 138240,
            "time": 191.15028,
            "velocity": 0.29133858267716534
          },
          {
            "duration": 0.06637162499998794,
            "durationTicks": 48,
            "midi": 70,
            "name": "A#4",
            "ticks": 138336,
            "time": 191.28302325,
            "velocity": 0.29133858267716534
          },
          {
            "duration": 0.06637162499998794,
            "durationTicks": 48,
            "midi": 60,
            "name": "C4",
            "ticks": 138432,
            "time": 191.41576650000002,
            "velocity": 0.29133858267716534
          },
          {
            "duration": 0.06637162499998794,
            "durationTicks": 48,
            "midi": 36,
            "name": "C2",
            "ticks": 138432,
            "time": 191.41576650000002,
            "velocity": 0.3937007874015748
          },
          {
            "duration": 0.06637162499998794,
            "durationTicks": 48,
            "midi": 42,
            "name": "F#2",
            "ticks": 138432,
            "time": 191.41576650000002,
            "velocity": 0.29133858267716534
          },
          {
            "duration": 0.06637162500001637,
            "durationTicks": 48,
            "midi": 46,
            "name": "A#2",
            "ticks": 138624,
            "time": 191.681253,
            "velocity": 0.29133858267716534
          },
          {
            "duration": 0.06637162500001637,
            "durationTicks": 48,
            "midi": 70,
            "name": "A#4",
            "ticks": 138624,
            "time": 191.681253,
            "velocity": 0.29133858267716534
          },
          {
            "duration": 0.06637162500001637,
            "durationTicks": 48,
            "midi": 60,
            "name": "C4",
            "ticks": 138720,
            "time": 191.81399625,
            "velocity": 0.29133858267716534
          },
          {
            "duration": 0.06637162500001637,
            "durationTicks": 48,
            "midi": 42,
            "name": "F#2",
            "ticks": 138816,
            "time": 191.9467395,
            "velocity": 0.29133858267716534
          },
          {
            "duration": 0.06637162500001637,
            "durationTicks": 48,
            "midi": 60,
            "name": "C4",
            "ticks": 138816,
            "time": 191.9467395,
            "velocity": 0.29133858267716534
          },
          {
            "duration": 0.06637162500001637,
            "durationTicks": 48,
            "midi": 38,
            "name": "D2",
            "ticks": 138816,
            "time": 191.9467395,
            "velocity": 0.29133858267716534
          },
          {
            "duration": 0.06637162500001637,
            "durationTicks": 48,
            "midi": 39,
            "name": "D#2",
            "ticks": 138816,
            "time": 191.9467395,
            "velocity": 0.3937007874015748
          },
          {
            "duration": 0.06637162500001637,
            "durationTicks": 48,
            "midi": 36,
            "name": "C2",
            "ticks": 138816,
            "time": 191.9467395,
            "velocity": 0.3937007874015748
          },
          {
            "duration": 0.06637162499998794,
            "durationTicks": 48,
            "midi": 60,
            "name": "C4",
            "ticks": 138912,
            "time": 192.07948275,
            "velocity": 0.29133858267716534
          },
          {
            "duration": 0.06637162499998794,
            "durationTicks": 48,
            "midi": 46,
            "name": "A#2",
            "ticks": 139008,
            "time": 192.21222600000002,
            "velocity": 0.29133858267716534
          },
          {
            "duration": 0.06637162499998794,
            "durationTicks": 48,
            "midi": 70,
            "name": "A#4",
            "ticks": 139008,
            "time": 192.21222600000002,
            "velocity": 0.29133858267716534
          },
          {
            "duration": 0.06637162499998794,
            "durationTicks": 48,
            "midi": 63,
            "name": "D#4",
            "ticks": 139008,
            "time": 192.21222600000002,
            "velocity": 0.29133858267716534
          },
          {
            "duration": 0.06637162499998794,
            "durationTicks": 48,
            "midi": 70,
            "name": "A#4",
            "ticks": 139104,
            "time": 192.34496925000002,
            "velocity": 0.29133858267716534
          },
          {
            "duration": 0.06637162499998794,
            "durationTicks": 48,
            "midi": 42,
            "name": "F#2",
            "ticks": 139200,
            "time": 192.47771250000002,
            "velocity": 0.29133858267716534
          },
          {
            "duration": 0.06637162499998794,
            "durationTicks": 48,
            "midi": 36,
            "name": "C2",
            "ticks": 139200,
            "time": 192.47771250000002,
            "velocity": 0.3937007874015748
          },
          {
            "duration": 0.06637162499998794,
            "durationTicks": 48,
            "midi": 82,
            "name": "A#5",
            "ticks": 139200,
            "time": 192.47771250000002,
            "velocity": 0.29133858267716534
          },
          {
            "duration": 0.06637162499998794,
            "durationTicks": 48,
            "midi": 60,
            "name": "C4",
            "ticks": 139200,
            "time": 192.47771250000002,
            "velocity": 0.29133858267716534
          },
          {
            "duration": 0.06637162500001637,
            "durationTicks": 48,
            "midi": 82,
            "name": "A#5",
            "ticks": 139296,
            "time": 192.61045575,
            "velocity": 0.14173228346456693
          },
          {
            "duration": 0.06637162500001637,
            "durationTicks": 48,
            "midi": 70,
            "name": "A#4",
            "ticks": 139392,
            "time": 192.743199,
            "velocity": 0.29133858267716534
          },
          {
            "duration": 0.06637162500001637,
            "durationTicks": 48,
            "midi": 82,
            "name": "A#5",
            "ticks": 139392,
            "time": 192.743199,
            "velocity": 0.29133858267716534
          },
          {
            "duration": 0.06637162500001637,
            "durationTicks": 48,
            "midi": 46,
            "name": "A#2",
            "ticks": 139392,
            "time": 192.743199,
            "velocity": 0.29133858267716534
          },
          {
            "duration": 0.06637162499998794,
            "durationTicks": 48,
            "midi": 82,
            "name": "A#5",
            "ticks": 139488,
            "time": 192.87594225,
            "velocity": 0.29133858267716534
          },
          {
            "duration": 0.06637162499998794,
            "durationTicks": 48,
            "midi": 60,
            "name": "C4",
            "ticks": 139488,
            "time": 192.87594225,
            "velocity": 0.29133858267716534
          },
          {
            "duration": 0.06637162499998794,
            "durationTicks": 48,
            "midi": 38,
            "name": "D2",
            "ticks": 139584,
            "time": 193.0086855,
            "velocity": 0.29133858267716534
          },
          {
            "duration": 0.06637162499998794,
            "durationTicks": 48,
            "midi": 60,
            "name": "C4",
            "ticks": 139584,
            "time": 193.0086855,
            "velocity": 0.29133858267716534
          },
          {
            "duration": 0.06637162499998794,
            "durationTicks": 48,
            "midi": 39,
            "name": "D#2",
            "ticks": 139584,
            "time": 193.0086855,
            "velocity": 0.3937007874015748
          },
          {
            "duration": 0.06637162499998794,
            "durationTicks": 48,
            "midi": 36,
            "name": "C2",
            "ticks": 139584,
            "time": 193.0086855,
            "velocity": 0.3937007874015748
          },
          {
            "duration": 0.06637162499998794,
            "durationTicks": 48,
            "midi": 42,
            "name": "F#2",
            "ticks": 139584,
            "time": 193.0086855,
            "velocity": 0.29133858267716534
          },
          {
            "duration": 0.06637162499998794,
            "durationTicks": 48,
            "midi": 60,
            "name": "C4",
            "ticks": 139680,
            "time": 193.14142875000002,
            "velocity": 0.29133858267716534
          },
          {
            "duration": 0.06637162499998794,
            "durationTicks": 48,
            "midi": 63,
            "name": "D#4",
            "ticks": 139776,
            "time": 193.27417200000002,
            "velocity": 0.29133858267716534
          },
          {
            "duration": 0.06637162499998794,
            "durationTicks": 48,
            "midi": 42,
            "name": "F#2",
            "ticks": 139776,
            "time": 193.27417200000002,
            "velocity": 0.3937007874015748
          },
          {
            "duration": 0.06637162499998794,
            "durationTicks": 48,
            "midi": 70,
            "name": "A#4",
            "ticks": 139776,
            "time": 193.27417200000002,
            "velocity": 0.29133858267716534
          },
          {
            "duration": 0.06637162500001637,
            "durationTicks": 48,
            "midi": 70,
            "name": "A#4",
            "ticks": 139872,
            "time": 193.40691525,
            "velocity": 0.29133858267716534
          },
          {
            "duration": 0.06637162500001637,
            "durationTicks": 48,
            "midi": 42,
            "name": "F#2",
            "ticks": 139872,
            "time": 193.40691525,
            "velocity": 0.3937007874015748
          },
          {
            "duration": 0.06637162500001637,
            "durationTicks": 48,
            "midi": 60,
            "name": "C4",
            "ticks": 139968,
            "time": 193.5396585,
            "velocity": 0.29133858267716534
          },
          {
            "duration": 0.06637162500001637,
            "durationTicks": 48,
            "midi": 42,
            "name": "F#2",
            "ticks": 139968,
            "time": 193.5396585,
            "velocity": 0.29133858267716534
          },
          {
            "duration": 0.06637162500001637,
            "durationTicks": 48,
            "midi": 36,
            "name": "C2",
            "ticks": 139968,
            "time": 193.5396585,
            "velocity": 0.3937007874015748
          },
          {
            "duration": 0.06637162499998794,
            "durationTicks": 48,
            "midi": 70,
            "name": "A#4",
            "ticks": 140160,
            "time": 193.805145,
            "velocity": 0.29133858267716534
          },
          {
            "duration": 0.06637162499998794,
            "durationTicks": 48,
            "midi": 46,
            "name": "A#2",
            "ticks": 140160,
            "time": 193.805145,
            "velocity": 0.29133858267716534
          },
          {
            "duration": 0.06637162499998794,
            "durationTicks": 48,
            "midi": 60,
            "name": "C4",
            "ticks": 140256,
            "time": 193.93788825000001,
            "velocity": 0.29133858267716534
          },
          {
            "duration": 0.06637162499998794,
            "durationTicks": 48,
            "midi": 39,
            "name": "D#2",
            "ticks": 140352,
            "time": 194.07063150000002,
            "velocity": 0.3937007874015748
          },
          {
            "duration": 0.06637162499998794,
            "durationTicks": 48,
            "midi": 60,
            "name": "C4",
            "ticks": 140352,
            "time": 194.07063150000002,
            "velocity": 0.29133858267716534
          },
          {
            "duration": 0.06637162499998794,
            "durationTicks": 48,
            "midi": 38,
            "name": "D2",
            "ticks": 140352,
            "time": 194.07063150000002,
            "velocity": 0.29133858267716534
          },
          {
            "duration": 0.06637162499998794,
            "durationTicks": 48,
            "midi": 36,
            "name": "C2",
            "ticks": 140352,
            "time": 194.07063150000002,
            "velocity": 0.3937007874015748
          },
          {
            "duration": 0.06637162499998794,
            "durationTicks": 48,
            "midi": 42,
            "name": "F#2",
            "ticks": 140352,
            "time": 194.07063150000002,
            "velocity": 0.29133858267716534
          },
          {
            "duration": 0.06637162499998794,
            "durationTicks": 48,
            "midi": 60,
            "name": "C4",
            "ticks": 140448,
            "time": 194.20337475000002,
            "velocity": 0.29133858267716534
          },
          {
            "duration": 0.06637162500001637,
            "durationTicks": 48,
            "midi": 70,
            "name": "A#4",
            "ticks": 140544,
            "time": 194.336118,
            "velocity": 0.29133858267716534
          },
          {
            "duration": 0.06637162500001637,
            "durationTicks": 48,
            "midi": 46,
            "name": "A#2",
            "ticks": 140544,
            "time": 194.336118,
            "velocity": 0.29133858267716534
          },
          {
            "duration": 0.06637162500001637,
            "durationTicks": 48,
            "midi": 63,
            "name": "D#4",
            "ticks": 140544,
            "time": 194.336118,
            "velocity": 0.29133858267716534
          },
          {
            "duration": 0.06637162500001637,
            "durationTicks": 48,
            "midi": 70,
            "name": "A#4",
            "ticks": 140640,
            "time": 194.46886125,
            "velocity": 0.29133858267716534
          },
          {
            "duration": 0.06637162500001637,
            "durationTicks": 48,
            "midi": 36,
            "name": "C2",
            "ticks": 140736,
            "time": 194.6016045,
            "velocity": 0.3937007874015748
          },
          {
            "duration": 0.06637162500001637,
            "durationTicks": 48,
            "midi": 42,
            "name": "F#2",
            "ticks": 140736,
            "time": 194.6016045,
            "velocity": 0.29133858267716534
          },
          {
            "duration": 0.06637162500001637,
            "durationTicks": 48,
            "midi": 60,
            "name": "C4",
            "ticks": 140736,
            "time": 194.6016045,
            "velocity": 0.29133858267716534
          },
          {
            "duration": 0.06637162499998794,
            "durationTicks": 48,
            "midi": 70,
            "name": "A#4",
            "ticks": 140928,
            "time": 194.86709100000002,
            "velocity": 0.29133858267716534
          },
          {
            "duration": 0.06637162499998794,
            "durationTicks": 48,
            "midi": 46,
            "name": "A#2",
            "ticks": 140928,
            "time": 194.86709100000002,
            "velocity": 0.29133858267716534
          },
          {
            "duration": 0.06637162499998794,
            "durationTicks": 48,
            "midi": 60,
            "name": "C4",
            "ticks": 141024,
            "time": 194.99983425000002,
            "velocity": 0.29133858267716534
          },
          {
            "duration": 0.06637162500001637,
            "durationTicks": 48,
            "midi": 42,
            "name": "F#2",
            "ticks": 141120,
            "time": 195.1325775,
            "velocity": 0.29133858267716534
          },
          {
            "duration": 0.06637162500001637,
            "durationTicks": 48,
            "midi": 60,
            "name": "C4",
            "ticks": 141120,
            "time": 195.1325775,
            "velocity": 0.29133858267716534
          },
          {
            "duration": 0.06637162500001637,
            "durationTicks": 48,
            "midi": 39,
            "name": "D#2",
            "ticks": 141120,
            "time": 195.1325775,
            "velocity": 0.3937007874015748
          },
          {
            "duration": 0.06637162500001637,
            "durationTicks": 48,
            "midi": 38,
            "name": "D2",
            "ticks": 141120,
            "time": 195.1325775,
            "velocity": 0.29133858267716534
          },
          {
            "duration": 0.06637162500001637,
            "durationTicks": 48,
            "midi": 36,
            "name": "C2",
            "ticks": 141120,
            "time": 195.1325775,
            "velocity": 0.3937007874015748
          },
          {
            "duration": 0.06637162500001637,
            "durationTicks": 48,
            "midi": 60,
            "name": "C4",
            "ticks": 141216,
            "time": 195.26532075,
            "velocity": 0.29133858267716534
          },
          {
            "duration": 0.06637162500001637,
            "durationTicks": 48,
            "midi": 63,
            "name": "D#4",
            "ticks": 141312,
            "time": 195.398064,
            "velocity": 0.29133858267716534
          },
          {
            "duration": 0.06637162500001637,
            "durationTicks": 48,
            "midi": 70,
            "name": "A#4",
            "ticks": 141312,
            "time": 195.398064,
            "velocity": 0.29133858267716534
          },
          {
            "duration": 0.06637162500001637,
            "durationTicks": 48,
            "midi": 46,
            "name": "A#2",
            "ticks": 141312,
            "time": 195.398064,
            "velocity": 0.29133858267716534
          },
          {
            "duration": 0.06637162499998794,
            "durationTicks": 48,
            "midi": 70,
            "name": "A#4",
            "ticks": 141408,
            "time": 195.53080725,
            "velocity": 0.29133858267716534
          },
          {
            "duration": 0.06637162499998794,
            "durationTicks": 48,
            "midi": 42,
            "name": "F#2",
            "ticks": 141504,
            "time": 195.6635505,
            "velocity": 0.29133858267716534
          },
          {
            "duration": 0.06637162499998794,
            "durationTicks": 48,
            "midi": 36,
            "name": "C2",
            "ticks": 141504,
            "time": 195.6635505,
            "velocity": 0.3937007874015748
          },
          {
            "duration": 0.06637162499998794,
            "durationTicks": 48,
            "midi": 60,
            "name": "C4",
            "ticks": 141504,
            "time": 195.6635505,
            "velocity": 0.29133858267716534
          },
          {
            "duration": 0.06637162499998794,
            "durationTicks": 48,
            "midi": 46,
            "name": "A#2",
            "ticks": 141696,
            "time": 195.92903700000002,
            "velocity": 0.29133858267716534
          },
          {
            "duration": 0.06637162499998794,
            "durationTicks": 48,
            "midi": 70,
            "name": "A#4",
            "ticks": 141696,
            "time": 195.92903700000002,
            "velocity": 0.29133858267716534
          },
          {
            "duration": 0.06637162500001637,
            "durationTicks": 48,
            "midi": 60,
            "name": "C4",
            "ticks": 141792,
            "time": 196.06178025,
            "velocity": 0.29133858267716534
          },
          {
            "duration": 0.06637162500001637,
            "durationTicks": 48,
            "midi": 39,
            "name": "D#2",
            "ticks": 141888,
            "time": 196.1945235,
            "velocity": 0.3937007874015748
          },
          {
            "duration": 0.06637162500001637,
            "durationTicks": 48,
            "midi": 36,
            "name": "C2",
            "ticks": 141888,
            "time": 196.1945235,
            "velocity": 0.3937007874015748
          },
          {
            "duration": 0.06637162500001637,
            "durationTicks": 48,
            "midi": 42,
            "name": "F#2",
            "ticks": 141888,
            "time": 196.1945235,
            "velocity": 0.29133858267716534
          },
          {
            "duration": 0.06637162500001637,
            "durationTicks": 48,
            "midi": 60,
            "name": "C4",
            "ticks": 141888,
            "time": 196.1945235,
            "velocity": 0.29133858267716534
          },
          {
            "duration": 0.06637162500001637,
            "durationTicks": 48,
            "midi": 38,
            "name": "D2",
            "ticks": 141888,
            "time": 196.1945235,
            "velocity": 0.29133858267716534
          },
          {
            "duration": 0.06637162500001637,
            "durationTicks": 48,
            "midi": 60,
            "name": "C4",
            "ticks": 141984,
            "time": 196.32726675,
            "velocity": 0.29133858267716534
          },
          {
            "duration": 0.06637162500001637,
            "durationTicks": 48,
            "midi": 39,
            "name": "D#2",
            "ticks": 141984,
            "time": 196.32726675,
            "velocity": 0.3937007874015748
          },
          {
            "duration": 0.06637162499998794,
            "durationTicks": 48,
            "midi": 63,
            "name": "D#4",
            "ticks": 142080,
            "time": 196.46001,
            "velocity": 0.29133858267716534
          },
          {
            "duration": 0.06637162499998794,
            "durationTicks": 48,
            "midi": 70,
            "name": "A#4",
            "ticks": 142080,
            "time": 196.46001,
            "velocity": 0.29133858267716534
          },
          {
            "duration": 0.06637162499998794,
            "durationTicks": 48,
            "midi": 46,
            "name": "A#2",
            "ticks": 142080,
            "time": 196.46001,
            "velocity": 0.29133858267716534
          },
          {
            "duration": 0.06637162499998794,
            "durationTicks": 48,
            "midi": 70,
            "name": "A#4",
            "ticks": 142176,
            "time": 196.59275325000002,
            "velocity": 0.29133858267716534
          },
          {
            "duration": 0.06637162499998794,
            "durationTicks": 48,
            "midi": 82,
            "name": "A#5",
            "ticks": 142272,
            "time": 196.72549650000002,
            "velocity": 0.29133858267716534
          },
          {
            "duration": 0.06637162499998794,
            "durationTicks": 48,
            "midi": 60,
            "name": "C4",
            "ticks": 142272,
            "time": 196.72549650000002,
            "velocity": 0.29133858267716534
          },
          {
            "duration": 0.06637162499998794,
            "durationTicks": 48,
            "midi": 36,
            "name": "C2",
            "ticks": 142272,
            "time": 196.72549650000002,
            "velocity": 0.3937007874015748
          },
          {
            "duration": 0.06637162499998794,
            "durationTicks": 48,
            "midi": 42,
            "name": "F#2",
            "ticks": 142272,
            "time": 196.72549650000002,
            "velocity": 0.29133858267716534
          },
          {
            "duration": 0.06637162499998794,
            "durationTicks": 48,
            "midi": 82,
            "name": "A#5",
            "ticks": 142368,
            "time": 196.85823975000002,
            "velocity": 0.14173228346456693
          },
          {
            "duration": 0.06637162500001637,
            "durationTicks": 48,
            "midi": 82,
            "name": "A#5",
            "ticks": 142464,
            "time": 196.990983,
            "velocity": 0.29133858267716534
          },
          {
            "duration": 0.06637162500001637,
            "durationTicks": 48,
            "midi": 70,
            "name": "A#4",
            "ticks": 142464,
            "time": 196.990983,
            "velocity": 0.29133858267716534
          },
          {
            "duration": 0.06637162500001637,
            "durationTicks": 48,
            "midi": 46,
            "name": "A#2",
            "ticks": 142464,
            "time": 196.990983,
            "velocity": 0.29133858267716534
          },
          {
            "duration": 0.06637162500001637,
            "durationTicks": 48,
            "midi": 60,
            "name": "C4",
            "ticks": 142560,
            "time": 197.12372625,
            "velocity": 0.29133858267716534
          },
          {
            "duration": 0.06637162500001637,
            "durationTicks": 48,
            "midi": 82,
            "name": "A#5",
            "ticks": 142560,
            "time": 197.12372625,
            "velocity": 0.29133858267716534
          },
          {
            "duration": 0.06637162499998794,
            "durationTicks": 48,
            "midi": 60,
            "name": "C4",
            "ticks": 142656,
            "time": 197.2564695,
            "velocity": 0.29133858267716534
          },
          {
            "duration": 0.06637162499998794,
            "durationTicks": 48,
            "midi": 42,
            "name": "F#2",
            "ticks": 142656,
            "time": 197.2564695,
            "velocity": 0.29133858267716534
          },
          {
            "duration": 0.06637162499998794,
            "durationTicks": 48,
            "midi": 39,
            "name": "D#2",
            "ticks": 142656,
            "time": 197.2564695,
            "velocity": 0.3937007874015748
          },
          {
            "duration": 0.06637162499998794,
            "durationTicks": 48,
            "midi": 36,
            "name": "C2",
            "ticks": 142656,
            "time": 197.2564695,
            "velocity": 0.3937007874015748
          },
          {
            "duration": 0.06637162499998794,
            "durationTicks": 48,
            "midi": 38,
            "name": "D2",
            "ticks": 142656,
            "time": 197.2564695,
            "velocity": 0.29133858267716534
          },
          {
            "duration": 0.06637162499998794,
            "durationTicks": 48,
            "midi": 60,
            "name": "C4",
            "ticks": 142752,
            "time": 197.38921275,
            "velocity": 0.29133858267716534
          },
          {
            "duration": 0.06637162499998794,
            "durationTicks": 48,
            "midi": 70,
            "name": "A#4",
            "ticks": 142848,
            "time": 197.52195600000002,
            "velocity": 0.29133858267716534
          },
          {
            "duration": 0.06637162499998794,
            "durationTicks": 48,
            "midi": 63,
            "name": "D#4",
            "ticks": 142848,
            "time": 197.52195600000002,
            "velocity": 0.29133858267716534
          },
          {
            "duration": 0.06637162499998794,
            "durationTicks": 48,
            "midi": 42,
            "name": "F#2",
            "ticks": 142848,
            "time": 197.52195600000002,
            "velocity": 0.3937007874015748
          },
          {
            "duration": 0.06637162499998794,
            "durationTicks": 48,
            "midi": 70,
            "name": "A#4",
            "ticks": 142944,
            "time": 197.65469925000002,
            "velocity": 0.29133858267716534
          },
          {
            "duration": 0.06637162499998794,
            "durationTicks": 48,
            "midi": 42,
            "name": "F#2",
            "ticks": 142944,
            "time": 197.65469925000002,
            "velocity": 0.3937007874015748
          },
          {
            "duration": 0.06637162500001637,
            "durationTicks": 48,
            "midi": 42,
            "name": "F#2",
            "ticks": 143040,
            "time": 197.7874425,
            "velocity": 0.29133858267716534
          },
          {
            "duration": 0.06637162500001637,
            "durationTicks": 48,
            "midi": 60,
            "name": "C4",
            "ticks": 143040,
            "time": 197.7874425,
            "velocity": 0.29133858267716534
          },
          {
            "duration": 0.06637162500001637,
            "durationTicks": 48,
            "midi": 36,
            "name": "C2",
            "ticks": 143040,
            "time": 197.7874425,
            "velocity": 0.3937007874015748
          },
          {
            "duration": 0.06637162500001637,
            "durationTicks": 48,
            "midi": 46,
            "name": "A#2",
            "ticks": 143232,
            "time": 198.052929,
            "velocity": 0.29133858267716534
          },
          {
            "duration": 0.06637162500001637,
            "durationTicks": 48,
            "midi": 70,
            "name": "A#4",
            "ticks": 143232,
            "time": 198.052929,
            "velocity": 0.29133858267716534
          },
          {
            "duration": 0.06637162499998794,
            "durationTicks": 48,
            "midi": 60,
            "name": "C4",
            "ticks": 143328,
            "time": 198.18567225,
            "velocity": 0.29133858267716534
          },
          {
            "duration": 0.06637162499998794,
            "durationTicks": 48,
            "midi": 39,
            "name": "D#2",
            "ticks": 143424,
            "time": 198.31841550000001,
            "velocity": 0.3937007874015748
          },
          {
            "duration": 0.06637162499998794,
            "durationTicks": 48,
            "midi": 60,
            "name": "C4",
            "ticks": 143424,
            "time": 198.31841550000001,
            "velocity": 0.29133858267716534
          },
          {
            "duration": 0.06637162499998794,
            "durationTicks": 48,
            "midi": 42,
            "name": "F#2",
            "ticks": 143424,
            "time": 198.31841550000001,
            "velocity": 0.29133858267716534
          },
          {
            "duration": 0.06637162499998794,
            "durationTicks": 48,
            "midi": 36,
            "name": "C2",
            "ticks": 143424,
            "time": 198.31841550000001,
            "velocity": 0.3937007874015748
          },
          {
            "duration": 0.06637162499998794,
            "durationTicks": 48,
            "midi": 38,
            "name": "D2",
            "ticks": 143424,
            "time": 198.31841550000001,
            "velocity": 0.29133858267716534
          },
          {
            "duration": 0.06637162499998794,
            "durationTicks": 48,
            "midi": 60,
            "name": "C4",
            "ticks": 143520,
            "time": 198.45115875000002,
            "velocity": 0.29133858267716534
          },
          {
            "duration": 0.06637162499998794,
            "durationTicks": 48,
            "midi": 46,
            "name": "A#2",
            "ticks": 143616,
            "time": 198.58390200000002,
            "velocity": 0.29133858267716534
          },
          {
            "duration": 0.06637162499998794,
            "durationTicks": 48,
            "midi": 70,
            "name": "A#4",
            "ticks": 143616,
            "time": 198.58390200000002,
            "velocity": 0.29133858267716534
          },
          {
            "duration": 0.06637162499998794,
            "durationTicks": 48,
            "midi": 63,
            "name": "D#4",
            "ticks": 143616,
            "time": 198.58390200000002,
            "velocity": 0.29133858267716534
          },
          {
            "duration": 0.06637162500001637,
            "durationTicks": 48,
            "midi": 70,
            "name": "A#4",
            "ticks": 143712,
            "time": 198.71664525,
            "velocity": 0.29133858267716534
          },
          {
            "duration": 0.06637162500001637,
            "durationTicks": 48,
            "midi": 60,
            "name": "C4",
            "ticks": 143808,
            "time": 198.8493885,
            "velocity": 0.29133858267716534
          },
          {
            "duration": 0.06637162500001637,
            "durationTicks": 48,
            "midi": 42,
            "name": "F#2",
            "ticks": 143808,
            "time": 198.8493885,
            "velocity": 0.29133858267716534
          },
          {
            "duration": 0.06637162500001637,
            "durationTicks": 48,
            "midi": 36,
            "name": "C2",
            "ticks": 143808,
            "time": 198.8493885,
            "velocity": 0.3937007874015748
          },
          {
            "duration": 0.06637162499998794,
            "durationTicks": 48,
            "midi": 46,
            "name": "A#2",
            "ticks": 144000,
            "time": 199.114875,
            "velocity": 0.29133858267716534
          },
          {
            "duration": 0.06637162499998794,
            "durationTicks": 48,
            "midi": 70,
            "name": "A#4",
            "ticks": 144000,
            "time": 199.114875,
            "velocity": 0.29133858267716534
          },
          {
            "duration": 0.06637162499998794,
            "durationTicks": 48,
            "midi": 60,
            "name": "C4",
            "ticks": 144096,
            "time": 199.24761825000002,
            "velocity": 0.29133858267716534
          },
          {
            "duration": 0.06637162499998794,
            "durationTicks": 48,
            "midi": 36,
            "name": "C2",
            "ticks": 144192,
            "time": 199.38036150000002,
            "velocity": 0.3937007874015748
          },
          {
            "duration": 0.06637162499998794,
            "durationTicks": 48,
            "midi": 38,
            "name": "D2",
            "ticks": 144192,
            "time": 199.38036150000002,
            "velocity": 0.29133858267716534
          },
          {
            "duration": 0.06637162499998794,
            "durationTicks": 48,
            "midi": 60,
            "name": "C4",
            "ticks": 144192,
            "time": 199.38036150000002,
            "velocity": 0.29133858267716534
          },
          {
            "duration": 0.06637162499998794,
            "durationTicks": 48,
            "midi": 39,
            "name": "D#2",
            "ticks": 144192,
            "time": 199.38036150000002,
            "velocity": 0.3937007874015748
          },
          {
            "duration": 0.06637162499998794,
            "durationTicks": 48,
            "midi": 42,
            "name": "F#2",
            "ticks": 144192,
            "time": 199.38036150000002,
            "velocity": 0.29133858267716534
          },
          {
            "duration": 0.06637162500001637,
            "durationTicks": 48,
            "midi": 60,
            "name": "C4",
            "ticks": 144288,
            "time": 199.51310475,
            "velocity": 0.29133858267716534
          },
          {
            "duration": 0.06637162500001637,
            "durationTicks": 48,
            "midi": 63,
            "name": "D#4",
            "ticks": 144384,
            "time": 199.645848,
            "velocity": 0.29133858267716534
          },
          {
            "duration": 0.06637162500001637,
            "durationTicks": 48,
            "midi": 46,
            "name": "A#2",
            "ticks": 144384,
            "time": 199.645848,
            "velocity": 0.29133858267716534
          },
          {
            "duration": 0.06637162500001637,
            "durationTicks": 48,
            "midi": 70,
            "name": "A#4",
            "ticks": 144384,
            "time": 199.645848,
            "velocity": 0.29133858267716534
          },
          {
            "duration": 0.06637162500001637,
            "durationTicks": 48,
            "midi": 70,
            "name": "A#4",
            "ticks": 144480,
            "time": 199.77859125,
            "velocity": 0.29133858267716534
          },
          {
            "duration": 0.06637162499998794,
            "durationTicks": 48,
            "midi": 36,
            "name": "C2",
            "ticks": 144576,
            "time": 199.9113345,
            "velocity": 0.3937007874015748
          },
          {
            "duration": 0.06637162499998794,
            "durationTicks": 48,
            "midi": 42,
            "name": "F#2",
            "ticks": 144576,
            "time": 199.9113345,
            "velocity": 0.29133858267716534
          },
          {
            "duration": 0.06637162499998794,
            "durationTicks": 48,
            "midi": 60,
            "name": "C4",
            "ticks": 144576,
            "time": 199.9113345,
            "velocity": 0.29133858267716534
          },
          {
            "duration": 0.06637162499998794,
            "durationTicks": 48,
            "midi": 70,
            "name": "A#4",
            "ticks": 144768,
            "time": 200.17682100000002,
            "velocity": 0.29133858267716534
          },
          {
            "duration": 0.06637162499998794,
            "durationTicks": 48,
            "midi": 46,
            "name": "A#2",
            "ticks": 144768,
            "time": 200.17682100000002,
            "velocity": 0.29133858267716534
          },
          {
            "duration": 0.06637162499998794,
            "durationTicks": 48,
            "midi": 60,
            "name": "C4",
            "ticks": 144864,
            "time": 200.30956425000002,
            "velocity": 0.29133858267716534
          },
          {
            "duration": 0.06637162500001637,
            "durationTicks": 48,
            "midi": 38,
            "name": "D2",
            "ticks": 144960,
            "time": 200.4423075,
            "velocity": 0.29133858267716534
          },
          {
            "duration": 0.06637162500001637,
            "durationTicks": 48,
            "midi": 42,
            "name": "F#2",
            "ticks": 144960,
            "time": 200.4423075,
            "velocity": 0.29133858267716534
          },
          {
            "duration": 0.06637162500001637,
            "durationTicks": 48,
            "midi": 39,
            "name": "D#2",
            "ticks": 144960,
            "time": 200.4423075,
            "velocity": 0.3937007874015748
          },
          {
            "duration": 0.06637162500001637,
            "durationTicks": 48,
            "midi": 60,
            "name": "C4",
            "ticks": 144960,
            "time": 200.4423075,
            "velocity": 0.29133858267716534
          },
          {
            "duration": 0.06637162500001637,
            "durationTicks": 48,
            "midi": 36,
            "name": "C2",
            "ticks": 144960,
            "time": 200.4423075,
            "velocity": 0.3937007874015748
          },
          {
            "duration": 0.06637162500001637,
            "durationTicks": 48,
            "midi": 60,
            "name": "C4",
            "ticks": 145056,
            "time": 200.57505075,
            "velocity": 0.29133858267716534
          },
          {
            "duration": 0.06637162500001637,
            "durationTicks": 48,
            "midi": 70,
            "name": "A#4",
            "ticks": 145152,
            "time": 200.707794,
            "velocity": 0.29133858267716534
          },
          {
            "duration": 0.06637162500001637,
            "durationTicks": 48,
            "midi": 46,
            "name": "A#2",
            "ticks": 145152,
            "time": 200.707794,
            "velocity": 0.29133858267716534
          },
          {
            "duration": 0.06637162500001637,
            "durationTicks": 48,
            "midi": 63,
            "name": "D#4",
            "ticks": 145152,
            "time": 200.707794,
            "velocity": 0.29133858267716534
          },
          {
            "duration": 0.06637162499998794,
            "durationTicks": 48,
            "midi": 70,
            "name": "A#4",
            "ticks": 145248,
            "time": 200.84053725,
            "velocity": 0.29133858267716534
          },
          {
            "duration": 0.06637162499998794,
            "durationTicks": 48,
            "midi": 60,
            "name": "C4",
            "ticks": 145344,
            "time": 200.97328050000002,
            "velocity": 0.29133858267716534
          },
          {
            "duration": 0.06637162499998794,
            "durationTicks": 48,
            "midi": 36,
            "name": "C2",
            "ticks": 145344,
            "time": 200.97328050000002,
            "velocity": 0.3937007874015748
          },
          {
            "duration": 0.06637162499998794,
            "durationTicks": 48,
            "midi": 82,
            "name": "A#5",
            "ticks": 145344,
            "time": 200.97328050000002,
            "velocity": 0.29133858267716534
          },
          {
            "duration": 0.06637162499998794,
            "durationTicks": 48,
            "midi": 42,
            "name": "F#2",
            "ticks": 145344,
            "time": 200.97328050000002,
            "velocity": 0.29133858267716534
          },
          {
            "duration": 0.06637162499998794,
            "durationTicks": 48,
            "midi": 82,
            "name": "A#5",
            "ticks": 145440,
            "time": 201.10602375000002,
            "velocity": 0.14173228346456693
          },
          {
            "duration": 0.06637162499998794,
            "durationTicks": 48,
            "midi": 46,
            "name": "A#2",
            "ticks": 145536,
            "time": 201.23876700000002,
            "velocity": 0.29133858267716534
          },
          {
            "duration": 0.06637162499998794,
            "durationTicks": 48,
            "midi": 82,
            "name": "A#5",
            "ticks": 145536,
            "time": 201.23876700000002,
            "velocity": 0.29133858267716534
          },
          {
            "duration": 0.06637162499998794,
            "durationTicks": 48,
            "midi": 70,
            "name": "A#4",
            "ticks": 145536,
            "time": 201.23876700000002,
            "velocity": 0.29133858267716534
          },
          {
            "duration": 0.06637162500001637,
            "durationTicks": 48,
            "midi": 60,
            "name": "C4",
            "ticks": 145632,
            "time": 201.37151025,
            "velocity": 0.29133858267716534
          },
          {
            "duration": 0.06637162500001637,
            "durationTicks": 48,
            "midi": 82,
            "name": "A#5",
            "ticks": 145632,
            "time": 201.37151025,
            "velocity": 0.29133858267716534
          },
          {
            "duration": 0.06637162500001637,
            "durationTicks": 48,
            "midi": 39,
            "name": "D#2",
            "ticks": 145728,
            "time": 201.5042535,
            "velocity": 0.3937007874015748
          },
          {
            "duration": 0.06637162500001637,
            "durationTicks": 48,
            "midi": 42,
            "name": "F#2",
            "ticks": 145728,
            "time": 201.5042535,
            "velocity": 0.29133858267716534
          },
          {
            "duration": 0.06637162500001637,
            "durationTicks": 48,
            "midi": 36,
            "name": "C2",
            "ticks": 145728,
            "time": 201.5042535,
            "velocity": 0.3937007874015748
          },
          {
            "duration": 0.06637162500001637,
            "durationTicks": 48,
            "midi": 38,
            "name": "D2",
            "ticks": 145728,
            "time": 201.5042535,
            "velocity": 0.29133858267716534
          },
          {
            "duration": 0.06637162500001637,
            "durationTicks": 48,
            "midi": 60,
            "name": "C4",
            "ticks": 145728,
            "time": 201.5042535,
            "velocity": 0.29133858267716534
          },
          {
            "duration": 0.06637162499998794,
            "durationTicks": 48,
            "midi": 60,
            "name": "C4",
            "ticks": 145824,
            "time": 201.63699675,
            "velocity": 0.29133858267716534
          },
          {
            "duration": 0.06637162499998794,
            "durationTicks": 48,
            "midi": 70,
            "name": "A#4",
            "ticks": 145920,
            "time": 201.76974,
            "velocity": 0.29133858267716534
          },
          {
            "duration": 0.06637162499998794,
            "durationTicks": 48,
            "midi": 42,
            "name": "F#2",
            "ticks": 145920,
            "time": 201.76974,
            "velocity": 0.3937007874015748
          },
          {
            "duration": 0.06637162499998794,
            "durationTicks": 48,
            "midi": 63,
            "name": "D#4",
            "ticks": 145920,
            "time": 201.76974,
            "velocity": 0.29133858267716534
          },
          {
            "duration": 0.06637162499998794,
            "durationTicks": 48,
            "midi": 70,
            "name": "A#4",
            "ticks": 146016,
            "time": 201.90248325000002,
            "velocity": 0.29133858267716534
          },
          {
            "duration": 0.06637162499998794,
            "durationTicks": 48,
            "midi": 42,
            "name": "F#2",
            "ticks": 146016,
            "time": 201.90248325000002,
            "velocity": 0.3937007874015748
          },
          {
            "duration": 0.06637162499998794,
            "durationTicks": 48,
            "midi": 42,
            "name": "F#2",
            "ticks": 146112,
            "time": 202.03522650000002,
            "velocity": 0.29133858267716534
          },
          {
            "duration": 0.06637162499998794,
            "durationTicks": 48,
            "midi": 36,
            "name": "C2",
            "ticks": 146112,
            "time": 202.03522650000002,
            "velocity": 0.3937007874015748
          },
          {
            "duration": 0.06637162499998794,
            "durationTicks": 48,
            "midi": 60,
            "name": "C4",
            "ticks": 146112,
            "time": 202.03522650000002,
            "velocity": 0.29133858267716534
          },
          {
            "duration": 0.06637162500001637,
            "durationTicks": 48,
            "midi": 70,
            "name": "A#4",
            "ticks": 146304,
            "time": 202.300713,
            "velocity": 0.29133858267716534
          },
          {
            "duration": 0.06637162500001637,
            "durationTicks": 48,
            "midi": 46,
            "name": "A#2",
            "ticks": 146304,
            "time": 202.300713,
            "velocity": 0.29133858267716534
          },
          {
            "duration": 0.06637162500001637,
            "durationTicks": 48,
            "midi": 60,
            "name": "C4",
            "ticks": 146400,
            "time": 202.43345625,
            "velocity": 0.29133858267716534
          },
          {
            "duration": 0.06637162499998794,
            "durationTicks": 48,
            "midi": 36,
            "name": "C2",
            "ticks": 146496,
            "time": 202.5661995,
            "velocity": 0.3937007874015748
          },
          {
            "duration": 0.06637162499998794,
            "durationTicks": 48,
            "midi": 60,
            "name": "C4",
            "ticks": 146496,
            "time": 202.5661995,
            "velocity": 0.29133858267716534
          },
          {
            "duration": 0.06637162499998794,
            "durationTicks": 48,
            "midi": 42,
            "name": "F#2",
            "ticks": 146496,
            "time": 202.5661995,
            "velocity": 0.29133858267716534
          },
          {
            "duration": 0.06637162499998794,
            "durationTicks": 48,
            "midi": 38,
            "name": "D2",
            "ticks": 146496,
            "time": 202.5661995,
            "velocity": 0.29133858267716534
          },
          {
            "duration": 0.06637162499998794,
            "durationTicks": 48,
            "midi": 39,
            "name": "D#2",
            "ticks": 146496,
            "time": 202.5661995,
            "velocity": 0.3937007874015748
          },
          {
            "duration": 0.06637162499998794,
            "durationTicks": 48,
            "midi": 60,
            "name": "C4",
            "ticks": 146592,
            "time": 202.69894275000001,
            "velocity": 0.29133858267716534
          },
          {
            "duration": 0.06637162499998794,
            "durationTicks": 48,
            "midi": 46,
            "name": "A#2",
            "ticks": 146688,
            "time": 202.83168600000002,
            "velocity": 0.29133858267716534
          },
          {
            "duration": 0.06637162499998794,
            "durationTicks": 48,
            "midi": 63,
            "name": "D#4",
            "ticks": 146688,
            "time": 202.83168600000002,
            "velocity": 0.29133858267716534
          },
          {
            "duration": 0.06637162499998794,
            "durationTicks": 48,
            "midi": 70,
            "name": "A#4",
            "ticks": 146688,
            "time": 202.83168600000002,
            "velocity": 0.29133858267716534
          },
          {
            "duration": 0.06637162499998794,
            "durationTicks": 48,
            "midi": 70,
            "name": "A#4",
            "ticks": 146784,
            "time": 202.96442925000002,
            "velocity": 0.29133858267716534
          },
          {
            "duration": 0.06637162500001637,
            "durationTicks": 48,
            "midi": 60,
            "name": "C4",
            "ticks": 146880,
            "time": 203.0971725,
            "velocity": 0.29133858267716534
          },
          {
            "duration": 0.06637162500001637,
            "durationTicks": 48,
            "midi": 36,
            "name": "C2",
            "ticks": 146880,
            "time": 203.0971725,
            "velocity": 0.3937007874015748
          },
          {
            "duration": 0.06637162500001637,
            "durationTicks": 48,
            "midi": 42,
            "name": "F#2",
            "ticks": 146880,
            "time": 203.0971725,
            "velocity": 0.29133858267716534
          },
          {
            "duration": 0.06637162500001637,
            "durationTicks": 48,
            "midi": 70,
            "name": "A#4",
            "ticks": 147072,
            "time": 203.362659,
            "velocity": 0.29133858267716534
          },
          {
            "duration": 0.06637162500001637,
            "durationTicks": 48,
            "midi": 46,
            "name": "A#2",
            "ticks": 147072,
            "time": 203.362659,
            "velocity": 0.29133858267716534
          },
          {
            "duration": 0.06637162499998794,
            "durationTicks": 48,
            "midi": 60,
            "name": "C4",
            "ticks": 147168,
            "time": 203.49540225,
            "velocity": 0.29133858267716534
          },
          {
            "duration": 0.06637162499998794,
            "durationTicks": 48,
            "midi": 36,
            "name": "C2",
            "ticks": 147264,
            "time": 203.62814550000002,
            "velocity": 0.3937007874015748
          },
          {
            "duration": 0.06637162499998794,
            "durationTicks": 48,
            "midi": 39,
            "name": "D#2",
            "ticks": 147264,
            "time": 203.62814550000002,
            "velocity": 0.3937007874015748
          },
          {
            "duration": 0.06637162499998794,
            "durationTicks": 48,
            "midi": 42,
            "name": "F#2",
            "ticks": 147264,
            "time": 203.62814550000002,
            "velocity": 0.29133858267716534
          },
          {
            "duration": 0.06637162499998794,
            "durationTicks": 48,
            "midi": 60,
            "name": "C4",
            "ticks": 147264,
            "time": 203.62814550000002,
            "velocity": 0.29133858267716534
          },
          {
            "duration": 0.06637162499998794,
            "durationTicks": 48,
            "midi": 38,
            "name": "D2",
            "ticks": 147264,
            "time": 203.62814550000002,
            "velocity": 0.29133858267716534
          },
          {
            "duration": 0.06637162499998794,
            "durationTicks": 48,
            "midi": 60,
            "name": "C4",
            "ticks": 147360,
            "time": 203.76088875000002,
            "velocity": 0.29133858267716534
          },
          {
            "duration": 0.06637162499998794,
            "durationTicks": 48,
            "midi": 46,
            "name": "A#2",
            "ticks": 147456,
            "time": 203.89363200000003,
            "velocity": 0.29133858267716534
          },
          {
            "duration": 0.06637162499998794,
            "durationTicks": 48,
            "midi": 70,
            "name": "A#4",
            "ticks": 147456,
            "time": 203.89363200000003,
            "velocity": 0.29133858267716534
          },
          {
            "duration": 0.06637162499998794,
            "durationTicks": 48,
            "midi": 63,
            "name": "D#4",
            "ticks": 147456,
            "time": 203.89363200000003,
            "velocity": 0.29133858267716534
          },
          {
            "duration": 0.06637162500001637,
            "durationTicks": 48,
            "midi": 70,
            "name": "A#4",
            "ticks": 147552,
            "time": 204.02637525,
            "velocity": 0.29133858267716534
          },
          {
            "duration": 0.06637162500001637,
            "durationTicks": 48,
            "midi": 36,
            "name": "C2",
            "ticks": 147648,
            "time": 204.1591185,
            "velocity": 0.3937007874015748
          },
          {
            "duration": 0.06637162500001637,
            "durationTicks": 48,
            "midi": 42,
            "name": "F#2",
            "ticks": 147648,
            "time": 204.1591185,
            "velocity": 0.29133858267716534
          },
          {
            "duration": 0.06637162500001637,
            "durationTicks": 48,
            "midi": 60,
            "name": "C4",
            "ticks": 147648,
            "time": 204.1591185,
            "velocity": 0.29133858267716534
          },
          {
            "duration": 0.06637162499998794,
            "durationTicks": 48,
            "midi": 46,
            "name": "A#2",
            "ticks": 147840,
            "time": 204.424605,
            "velocity": 0.29133858267716534
          },
          {
            "duration": 0.06637162499998794,
            "durationTicks": 48,
            "midi": 70,
            "name": "A#4",
            "ticks": 147840,
            "time": 204.424605,
            "velocity": 0.29133858267716534
          },
          {
            "duration": 0.06637162499998794,
            "durationTicks": 48,
            "midi": 60,
            "name": "C4",
            "ticks": 147936,
            "time": 204.55734825000002,
            "velocity": 0.29133858267716534
          },
          {
            "duration": 0.06637162499998794,
            "durationTicks": 48,
            "midi": 60,
            "name": "C4",
            "ticks": 148032,
            "time": 204.69009150000002,
            "velocity": 0.29133858267716534
          },
          {
            "duration": 0.06637162499998794,
            "durationTicks": 48,
            "midi": 36,
            "name": "C2",
            "ticks": 148032,
            "time": 204.69009150000002,
            "velocity": 0.3937007874015748
          },
          {
            "duration": 0.06637162499998794,
            "durationTicks": 48,
            "midi": 38,
            "name": "D2",
            "ticks": 148032,
            "time": 204.69009150000002,
            "velocity": 0.29133858267716534
          },
          {
            "duration": 0.06637162499998794,
            "durationTicks": 48,
            "midi": 39,
            "name": "D#2",
            "ticks": 148032,
            "time": 204.69009150000002,
            "velocity": 0.3937007874015748
          },
          {
            "duration": 0.06637162499998794,
            "durationTicks": 48,
            "midi": 42,
            "name": "F#2",
            "ticks": 148032,
            "time": 204.69009150000002,
            "velocity": 0.29133858267716534
          },
          {
            "duration": 0.06637162500001637,
            "durationTicks": 48,
            "midi": 60,
            "name": "C4",
            "ticks": 148128,
            "time": 204.82283475,
            "velocity": 0.29133858267716534
          },
          {
            "duration": 0.06637162500001637,
            "durationTicks": 48,
            "midi": 46,
            "name": "A#2",
            "ticks": 148224,
            "time": 204.955578,
            "velocity": 0.29133858267716534
          },
          {
            "duration": 0.06637162500001637,
            "durationTicks": 48,
            "midi": 70,
            "name": "A#4",
            "ticks": 148224,
            "time": 204.955578,
            "velocity": 0.29133858267716534
          },
          {
            "duration": 0.06637162500001637,
            "durationTicks": 48,
            "midi": 63,
            "name": "D#4",
            "ticks": 148224,
            "time": 204.955578,
            "velocity": 0.29133858267716534
          },
          {
            "duration": 0.06637162500001637,
            "durationTicks": 48,
            "midi": 70,
            "name": "A#4",
            "ticks": 148320,
            "time": 205.08832125,
            "velocity": 0.29133858267716534
          },
          {
            "duration": 0.06637162499998794,
            "durationTicks": 48,
            "midi": 60,
            "name": "C4",
            "ticks": 148416,
            "time": 205.2210645,
            "velocity": 0.29133858267716534
          },
          {
            "duration": 0.06637162499998794,
            "durationTicks": 48,
            "midi": 42,
            "name": "F#2",
            "ticks": 148416,
            "time": 205.2210645,
            "velocity": 0.29133858267716534
          },
          {
            "duration": 0.06637162499998794,
            "durationTicks": 48,
            "midi": 82,
            "name": "A#5",
            "ticks": 148416,
            "time": 205.2210645,
            "velocity": 0.29133858267716534
          },
          {
            "duration": 0.06637162499998794,
            "durationTicks": 48,
            "midi": 36,
            "name": "C2",
            "ticks": 148416,
            "time": 205.2210645,
            "velocity": 0.3937007874015748
          },
          {
            "duration": 0.06637162499998794,
            "durationTicks": 48,
            "midi": 82,
            "name": "A#5",
            "ticks": 148512,
            "time": 205.35380775000002,
            "velocity": 0.14173228346456693
          },
          {
            "duration": 0.06637162499998794,
            "durationTicks": 48,
            "midi": 46,
            "name": "A#2",
            "ticks": 148608,
            "time": 205.48655100000002,
            "velocity": 0.29133858267716534
          },
          {
            "duration": 0.06637162499998794,
            "durationTicks": 48,
            "midi": 70,
            "name": "A#4",
            "ticks": 148608,
            "time": 205.48655100000002,
            "velocity": 0.29133858267716534
          },
          {
            "duration": 0.06637162499998794,
            "durationTicks": 48,
            "midi": 82,
            "name": "A#5",
            "ticks": 148608,
            "time": 205.48655100000002,
            "velocity": 0.29133858267716534
          },
          {
            "duration": 0.06637162499998794,
            "durationTicks": 48,
            "midi": 60,
            "name": "C4",
            "ticks": 148704,
            "time": 205.61929425000002,
            "velocity": 0.29133858267716534
          },
          {
            "duration": 0.06637162499998794,
            "durationTicks": 48,
            "midi": 82,
            "name": "A#5",
            "ticks": 148704,
            "time": 205.61929425000002,
            "velocity": 0.29133858267716534
          },
          {
            "duration": 0.06637162500001637,
            "durationTicks": 48,
            "midi": 36,
            "name": "C2",
            "ticks": 148800,
            "time": 205.7520375,
            "velocity": 0.3937007874015748
          },
          {
            "duration": 0.06637162500001637,
            "durationTicks": 48,
            "midi": 38,
            "name": "D2",
            "ticks": 148800,
            "time": 205.7520375,
            "velocity": 0.29133858267716534
          },
          {
            "duration": 0.06637162500001637,
            "durationTicks": 48,
            "midi": 42,
            "name": "F#2",
            "ticks": 148800,
            "time": 205.7520375,
            "velocity": 0.29133858267716534
          },
          {
            "duration": 0.06637162500001637,
            "durationTicks": 48,
            "midi": 60,
            "name": "C4",
            "ticks": 148800,
            "time": 205.7520375,
            "velocity": 0.29133858267716534
          },
          {
            "duration": 0.06637162500001637,
            "durationTicks": 48,
            "midi": 39,
            "name": "D#2",
            "ticks": 148800,
            "time": 205.7520375,
            "velocity": 0.3937007874015748
          },
          {
            "duration": 0.06637162500001637,
            "durationTicks": 48,
            "midi": 60,
            "name": "C4",
            "ticks": 148896,
            "time": 205.88478075,
            "velocity": 0.29133858267716534
          },
          {
            "duration": 0.06637162500001637,
            "durationTicks": 48,
            "midi": 42,
            "name": "F#2",
            "ticks": 148992,
            "time": 206.017524,
            "velocity": 0.3937007874015748
          },
          {
            "duration": 0.06637162500001637,
            "durationTicks": 48,
            "midi": 70,
            "name": "A#4",
            "ticks": 148992,
            "time": 206.017524,
            "velocity": 0.29133858267716534
          },
          {
            "duration": 0.06637162500001637,
            "durationTicks": 48,
            "midi": 63,
            "name": "D#4",
            "ticks": 148992,
            "time": 206.017524,
            "velocity": 0.29133858267716534
          },
          {
            "duration": 0.06637162499998794,
            "durationTicks": 48,
            "midi": 70,
            "name": "A#4",
            "ticks": 149088,
            "time": 206.15026725,
            "velocity": 0.29133858267716534
          },
          {
            "duration": 0.06637162499998794,
            "durationTicks": 48,
            "midi": 42,
            "name": "F#2",
            "ticks": 149088,
            "time": 206.15026725,
            "velocity": 0.3937007874015748
          },
          {
            "duration": 0.06637162499998794,
            "durationTicks": 48,
            "midi": 36,
            "name": "C2",
            "ticks": 149184,
            "time": 206.28301050000002,
            "velocity": 0.3937007874015748
          },
          {
            "duration": 0.06637162499998794,
            "durationTicks": 48,
            "midi": 60,
            "name": "C4",
            "ticks": 149184,
            "time": 206.28301050000002,
            "velocity": 0.29133858267716534
          },
          {
            "duration": 0.06637162499998794,
            "durationTicks": 48,
            "midi": 42,
            "name": "F#2",
            "ticks": 149184,
            "time": 206.28301050000002,
            "velocity": 0.29133858267716534
          },
          {
            "duration": 0.06637162500001637,
            "durationTicks": 48,
            "midi": 70,
            "name": "A#4",
            "ticks": 149376,
            "time": 206.548497,
            "velocity": 0.29133858267716534
          },
          {
            "duration": 0.06637162500001637,
            "durationTicks": 48,
            "midi": 46,
            "name": "A#2",
            "ticks": 149376,
            "time": 206.548497,
            "velocity": 0.29133858267716534
          },
          {
            "duration": 0.06637162500001637,
            "durationTicks": 48,
            "midi": 60,
            "name": "C4",
            "ticks": 149472,
            "time": 206.68124025,
            "velocity": 0.29133858267716534
          },
          {
            "duration": 0.06637162500001637,
            "durationTicks": 48,
            "midi": 39,
            "name": "D#2",
            "ticks": 149568,
            "time": 206.8139835,
            "velocity": 0.3937007874015748
          },
          {
            "duration": 0.06637162500001637,
            "durationTicks": 48,
            "midi": 36,
            "name": "C2",
            "ticks": 149568,
            "time": 206.8139835,
            "velocity": 0.3937007874015748
          },
          {
            "duration": 0.06637162500001637,
            "durationTicks": 48,
            "midi": 38,
            "name": "D2",
            "ticks": 149568,
            "time": 206.8139835,
            "velocity": 0.29133858267716534
          },
          {
            "duration": 0.06637162500001637,
            "durationTicks": 48,
            "midi": 42,
            "name": "F#2",
            "ticks": 149568,
            "time": 206.8139835,
            "velocity": 0.29133858267716534
          },
          {
            "duration": 0.06637162500001637,
            "durationTicks": 48,
            "midi": 60,
            "name": "C4",
            "ticks": 149568,
            "time": 206.8139835,
            "velocity": 0.29133858267716534
          },
          {
            "duration": 0.06637162499998794,
            "durationTicks": 48,
            "midi": 60,
            "name": "C4",
            "ticks": 149664,
            "time": 206.94672675,
            "velocity": 0.29133858267716534
          },
          {
            "duration": 0.06637162499998794,
            "durationTicks": 48,
            "midi": 46,
            "name": "A#2",
            "ticks": 149760,
            "time": 207.07947000000001,
            "velocity": 0.29133858267716534
          },
          {
            "duration": 0.06637162499998794,
            "durationTicks": 48,
            "midi": 63,
            "name": "D#4",
            "ticks": 149760,
            "time": 207.07947000000001,
            "velocity": 0.29133858267716534
          },
          {
            "duration": 0.06637162499998794,
            "durationTicks": 48,
            "midi": 70,
            "name": "A#4",
            "ticks": 149760,
            "time": 207.07947000000001,
            "velocity": 0.29133858267716534
          },
          {
            "duration": 0.06637162499998794,
            "durationTicks": 48,
            "midi": 70,
            "name": "A#4",
            "ticks": 149856,
            "time": 207.21221325000002,
            "velocity": 0.29133858267716534
          },
          {
            "duration": 0.06637162499998794,
            "durationTicks": 48,
            "midi": 36,
            "name": "C2",
            "ticks": 149952,
            "time": 207.34495650000002,
            "velocity": 0.3937007874015748
          },
          {
            "duration": 0.06637162499998794,
            "durationTicks": 48,
            "midi": 42,
            "name": "F#2",
            "ticks": 149952,
            "time": 207.34495650000002,
            "velocity": 0.29133858267716534
          },
          {
            "duration": 0.06637162499998794,
            "durationTicks": 48,
            "midi": 60,
            "name": "C4",
            "ticks": 149952,
            "time": 207.34495650000002,
            "velocity": 0.29133858267716534
          },
          {
            "duration": 0.06637162500001637,
            "durationTicks": 48,
            "midi": 70,
            "name": "A#4",
            "ticks": 150144,
            "time": 207.610443,
            "velocity": 0.29133858267716534
          },
          {
            "duration": 0.06637162500001637,
            "durationTicks": 48,
            "midi": 46,
            "name": "A#2",
            "ticks": 150144,
            "time": 207.610443,
            "velocity": 0.29133858267716534
          },
          {
            "duration": 0.06637162500001637,
            "durationTicks": 48,
            "midi": 60,
            "name": "C4",
            "ticks": 150240,
            "time": 207.74318625,
            "velocity": 0.29133858267716534
          },
          {
            "duration": 0.06637162499998794,
            "durationTicks": 48,
            "midi": 36,
            "name": "C2",
            "ticks": 150336,
            "time": 207.8759295,
            "velocity": 0.3937007874015748
          },
          {
            "duration": 0.06637162499998794,
            "durationTicks": 48,
            "midi": 60,
            "name": "C4",
            "ticks": 150336,
            "time": 207.8759295,
            "velocity": 0.29133858267716534
          },
          {
            "duration": 0.06637162499998794,
            "durationTicks": 48,
            "midi": 42,
            "name": "F#2",
            "ticks": 150336,
            "time": 207.8759295,
            "velocity": 0.29133858267716534
          },
          {
            "duration": 0.06637162499998794,
            "durationTicks": 48,
            "midi": 38,
            "name": "D2",
            "ticks": 150336,
            "time": 207.8759295,
            "velocity": 0.29133858267716534
          },
          {
            "duration": 0.06637162499998794,
            "durationTicks": 48,
            "midi": 39,
            "name": "D#2",
            "ticks": 150336,
            "time": 207.8759295,
            "velocity": 0.3937007874015748
          },
          {
            "duration": 0.06637162499998794,
            "durationTicks": 48,
            "midi": 60,
            "name": "C4",
            "ticks": 150432,
            "time": 208.00867275000002,
            "velocity": 0.29133858267716534
          },
          {
            "duration": 0.06637162499998794,
            "durationTicks": 48,
            "midi": 46,
            "name": "A#2",
            "ticks": 150528,
            "time": 208.14141600000002,
            "velocity": 0.29133858267716534
          },
          {
            "duration": 0.06637162499998794,
            "durationTicks": 48,
            "midi": 70,
            "name": "A#4",
            "ticks": 150528,
            "time": 208.14141600000002,
            "velocity": 0.29133858267716534
          },
          {
            "duration": 0.06637162499998794,
            "durationTicks": 48,
            "midi": 63,
            "name": "D#4",
            "ticks": 150528,
            "time": 208.14141600000002,
            "velocity": 0.29133858267716534
          },
          {
            "duration": 0.06637162499998794,
            "durationTicks": 48,
            "midi": 70,
            "name": "A#4",
            "ticks": 150624,
            "time": 208.27415925000003,
            "velocity": 0.29133858267716534
          },
          {
            "duration": 0.06637162500001637,
            "durationTicks": 48,
            "midi": 60,
            "name": "C4",
            "ticks": 150720,
            "time": 208.4069025,
            "velocity": 0.29133858267716534
          },
          {
            "duration": 0.06637162500001637,
            "durationTicks": 48,
            "midi": 42,
            "name": "F#2",
            "ticks": 150720,
            "time": 208.4069025,
            "velocity": 0.29133858267716534
          },
          {
            "duration": 0.06637162500001637,
            "durationTicks": 48,
            "midi": 36,
            "name": "C2",
            "ticks": 150720,
            "time": 208.4069025,
            "velocity": 0.3937007874015748
          },
          {
            "duration": 0.06637162499998794,
            "durationTicks": 48,
            "midi": 70,
            "name": "A#4",
            "ticks": 150912,
            "time": 208.672389,
            "velocity": 0.29133858267716534
          },
          {
            "duration": 0.06637162499998794,
            "durationTicks": 48,
            "midi": 46,
            "name": "A#2",
            "ticks": 150912,
            "time": 208.672389,
            "velocity": 0.29133858267716534
          },
          {
            "duration": 0.06637162499998794,
            "durationTicks": 48,
            "midi": 60,
            "name": "C4",
            "ticks": 151008,
            "time": 208.80513225,
            "velocity": 0.29133858267716534
          },
          {
            "duration": 0.06637162499998794,
            "durationTicks": 48,
            "midi": 39,
            "name": "D#2",
            "ticks": 151104,
            "time": 208.93787550000002,
            "velocity": 0.3937007874015748
          },
          {
            "duration": 0.06637162499998794,
            "durationTicks": 48,
            "midi": 38,
            "name": "D2",
            "ticks": 151104,
            "time": 208.93787550000002,
            "velocity": 0.29133858267716534
          },
          {
            "duration": 0.06637162499998794,
            "durationTicks": 48,
            "midi": 42,
            "name": "F#2",
            "ticks": 151104,
            "time": 208.93787550000002,
            "velocity": 0.29133858267716534
          },
          {
            "duration": 0.06637162499998794,
            "durationTicks": 48,
            "midi": 60,
            "name": "C4",
            "ticks": 151104,
            "time": 208.93787550000002,
            "velocity": 0.29133858267716534
          },
          {
            "duration": 0.06637162499998794,
            "durationTicks": 48,
            "midi": 36,
            "name": "C2",
            "ticks": 151104,
            "time": 208.93787550000002,
            "velocity": 0.3937007874015748
          },
          {
            "duration": 0.06637162499998794,
            "durationTicks": 48,
            "midi": 60,
            "name": "C4",
            "ticks": 151200,
            "time": 209.07061875000002,
            "velocity": 0.29133858267716534
          },
          {
            "duration": 0.06637162500001637,
            "durationTicks": 48,
            "midi": 70,
            "name": "A#4",
            "ticks": 151296,
            "time": 209.203362,
            "velocity": 0.29133858267716534
          },
          {
            "duration": 0.06637162500001637,
            "durationTicks": 48,
            "midi": 46,
            "name": "A#2",
            "ticks": 151296,
            "time": 209.203362,
            "velocity": 0.29133858267716534
          },
          {
            "duration": 0.06637162500001637,
            "durationTicks": 48,
            "midi": 63,
            "name": "D#4",
            "ticks": 151296,
            "time": 209.203362,
            "velocity": 0.29133858267716534
          },
          {
            "duration": 0.06637162500001637,
            "durationTicks": 48,
            "midi": 70,
            "name": "A#4",
            "ticks": 151392,
            "time": 209.33610525,
            "velocity": 0.29133858267716534
          },
          {
            "duration": 0.06637162500001637,
            "durationTicks": 48,
            "midi": 36,
            "name": "C2",
            "ticks": 151488,
            "time": 209.4688485,
            "velocity": 0.3937007874015748
          },
          {
            "duration": 0.06637162500001637,
            "durationTicks": 48,
            "midi": 82,
            "name": "A#5",
            "ticks": 151488,
            "time": 209.4688485,
            "velocity": 0.29133858267716534
          },
          {
            "duration": 0.06637162500001637,
            "durationTicks": 48,
            "midi": 42,
            "name": "F#2",
            "ticks": 151488,
            "time": 209.4688485,
            "velocity": 0.29133858267716534
          },
          {
            "duration": 0.06637162500001637,
            "durationTicks": 48,
            "midi": 60,
            "name": "C4",
            "ticks": 151488,
            "time": 209.4688485,
            "velocity": 0.29133858267716534
          },
          {
            "duration": 0.06637162499998794,
            "durationTicks": 48,
            "midi": 82,
            "name": "A#5",
            "ticks": 151584,
            "time": 209.60159175,
            "velocity": 0.14173228346456693
          },
          {
            "duration": 0.06637162499998794,
            "durationTicks": 48,
            "midi": 46,
            "name": "A#2",
            "ticks": 151680,
            "time": 209.73433500000002,
            "velocity": 0.29133858267716534
          },
          {
            "duration": 0.06637162499998794,
            "durationTicks": 48,
            "midi": 70,
            "name": "A#4",
            "ticks": 151680,
            "time": 209.73433500000002,
            "velocity": 0.29133858267716534
          },
          {
            "duration": 0.06637162499998794,
            "durationTicks": 48,
            "midi": 82,
            "name": "A#5",
            "ticks": 151680,
            "time": 209.73433500000002,
            "velocity": 0.29133858267716534
          },
          {
            "duration": 0.06637162499998794,
            "durationTicks": 48,
            "midi": 82,
            "name": "A#5",
            "ticks": 151776,
            "time": 209.86707825000002,
            "velocity": 0.29133858267716534
          },
          {
            "duration": 0.06637162499998794,
            "durationTicks": 48,
            "midi": 60,
            "name": "C4",
            "ticks": 151776,
            "time": 209.86707825000002,
            "velocity": 0.29133858267716534
          },
          {
            "duration": 0.06637162499998794,
            "durationTicks": 48,
            "midi": 60,
            "name": "C4",
            "ticks": 151872,
            "time": 209.99982150000002,
            "velocity": 0.29133858267716534
          },
          {
            "duration": 0.06637162499998794,
            "durationTicks": 48,
            "midi": 39,
            "name": "D#2",
            "ticks": 151872,
            "time": 209.99982150000002,
            "velocity": 0.3937007874015748
          },
          {
            "duration": 0.06637162499998794,
            "durationTicks": 48,
            "midi": 36,
            "name": "C2",
            "ticks": 151872,
            "time": 209.99982150000002,
            "velocity": 0.3937007874015748
          },
          {
            "duration": 0.06637162499998794,
            "durationTicks": 48,
            "midi": 38,
            "name": "D2",
            "ticks": 151872,
            "time": 209.99982150000002,
            "velocity": 0.29133858267716534
          },
          {
            "duration": 0.06637162499998794,
            "durationTicks": 48,
            "midi": 42,
            "name": "F#2",
            "ticks": 151872,
            "time": 209.99982150000002,
            "velocity": 0.29133858267716534
          },
          {
            "duration": 0.06637162500001637,
            "durationTicks": 48,
            "midi": 60,
            "name": "C4",
            "ticks": 151968,
            "time": 210.13256475,
            "velocity": 0.29133858267716534
          },
          {
            "duration": 0.06637162500001637,
            "durationTicks": 48,
            "midi": 70,
            "name": "A#4",
            "ticks": 152064,
            "time": 210.265308,
            "velocity": 0.29133858267716534
          },
          {
            "duration": 0.06637162500001637,
            "durationTicks": 48,
            "midi": 63,
            "name": "D#4",
            "ticks": 152064,
            "time": 210.265308,
            "velocity": 0.29133858267716534
          },
          {
            "duration": 0.06637162500001637,
            "durationTicks": 48,
            "midi": 42,
            "name": "F#2",
            "ticks": 152064,
            "time": 210.265308,
            "velocity": 0.3937007874015748
          },
          {
            "duration": 0.06637162500001637,
            "durationTicks": 48,
            "midi": 70,
            "name": "A#4",
            "ticks": 152160,
            "time": 210.39805125,
            "velocity": 0.29133858267716534
          },
          {
            "duration": 0.06637162500001637,
            "durationTicks": 48,
            "midi": 42,
            "name": "F#2",
            "ticks": 152160,
            "time": 210.39805125,
            "velocity": 0.3937007874015748
          },
          {
            "duration": 0.06637162499998794,
            "durationTicks": 48,
            "midi": 42,
            "name": "F#2",
            "ticks": 152256,
            "time": 210.5307945,
            "velocity": 0.29133858267716534
          },
          {
            "duration": 0.06637162499998794,
            "durationTicks": 48,
            "midi": 60,
            "name": "C4",
            "ticks": 152256,
            "time": 210.5307945,
            "velocity": 0.29133858267716534
          },
          {
            "duration": 0.06637162499998794,
            "durationTicks": 48,
            "midi": 36,
            "name": "C2",
            "ticks": 152256,
            "time": 210.5307945,
            "velocity": 0.3937007874015748
          },
          {
            "duration": 0.06637162499998794,
            "durationTicks": 48,
            "midi": 46,
            "name": "A#2",
            "ticks": 152448,
            "time": 210.79628100000002,
            "velocity": 0.29133858267716534
          },
          {
            "duration": 0.06637162499998794,
            "durationTicks": 48,
            "midi": 70,
            "name": "A#4",
            "ticks": 152448,
            "time": 210.79628100000002,
            "velocity": 0.29133858267716534
          },
          {
            "duration": 0.06637162500001637,
            "durationTicks": 48,
            "midi": 60,
            "name": "C4",
            "ticks": 152544,
            "time": 210.92902425,
            "velocity": 0.29133858267716534
          },
          {
            "duration": 0.06637162500001637,
            "durationTicks": 48,
            "midi": 42,
            "name": "F#2",
            "ticks": 152640,
            "time": 211.0617675,
            "velocity": 0.29133858267716534
          },
          {
            "duration": 0.06637162500001637,
            "durationTicks": 48,
            "midi": 38,
            "name": "D2",
            "ticks": 152640,
            "time": 211.0617675,
            "velocity": 0.29133858267716534
          },
          {
            "duration": 0.06637162500001637,
            "durationTicks": 48,
            "midi": 60,
            "name": "C4",
            "ticks": 152640,
            "time": 211.0617675,
            "velocity": 0.29133858267716534
          },
          {
            "duration": 0.06637162500001637,
            "durationTicks": 48,
            "midi": 39,
            "name": "D#2",
            "ticks": 152640,
            "time": 211.0617675,
            "velocity": 0.3937007874015748
          },
          {
            "duration": 0.06637162500001637,
            "durationTicks": 48,
            "midi": 36,
            "name": "C2",
            "ticks": 152640,
            "time": 211.0617675,
            "velocity": 0.3937007874015748
          },
          {
            "duration": 0.06637162500001637,
            "durationTicks": 48,
            "midi": 60,
            "name": "C4",
            "ticks": 152736,
            "time": 211.19451075,
            "velocity": 0.29133858267716534
          },
          {
            "duration": 0.06637162499998794,
            "durationTicks": 48,
            "midi": 46,
            "name": "A#2",
            "ticks": 152832,
            "time": 211.327254,
            "velocity": 0.29133858267716534
          },
          {
            "duration": 0.06637162499998794,
            "durationTicks": 48,
            "midi": 70,
            "name": "A#4",
            "ticks": 152832,
            "time": 211.327254,
            "velocity": 0.29133858267716534
          },
          {
            "duration": 0.06637162499998794,
            "durationTicks": 48,
            "midi": 63,
            "name": "D#4",
            "ticks": 152832,
            "time": 211.327254,
            "velocity": 0.29133858267716534
          },
          {
            "duration": 0.06637162499998794,
            "durationTicks": 48,
            "midi": 70,
            "name": "A#4",
            "ticks": 152928,
            "time": 211.45999725000001,
            "velocity": 0.29133858267716534
          },
          {
            "duration": 0.06637162499998794,
            "durationTicks": 48,
            "midi": 36,
            "name": "C2",
            "ticks": 153024,
            "time": 211.59274050000002,
            "velocity": 0.3937007874015748
          },
          {
            "duration": 0.06637162499998794,
            "durationTicks": 48,
            "midi": 42,
            "name": "F#2",
            "ticks": 153024,
            "time": 211.59274050000002,
            "velocity": 0.29133858267716534
          },
          {
            "duration": 0.06637162499998794,
            "durationTicks": 48,
            "midi": 60,
            "name": "C4",
            "ticks": 153024,
            "time": 211.59274050000002,
            "velocity": 0.29133858267716534
          },
          {
            "duration": 0.06637162500001637,
            "durationTicks": 48,
            "midi": 46,
            "name": "A#2",
            "ticks": 153216,
            "time": 211.858227,
            "velocity": 0.29133858267716534
          },
          {
            "duration": 0.06637162500001637,
            "durationTicks": 48,
            "midi": 70,
            "name": "A#4",
            "ticks": 153216,
            "time": 211.858227,
            "velocity": 0.29133858267716534
          },
          {
            "duration": 0.06637162500001637,
            "durationTicks": 48,
            "midi": 60,
            "name": "C4",
            "ticks": 153312,
            "time": 211.99097025,
            "velocity": 0.29133858267716534
          },
          {
            "duration": 0.06637162500001637,
            "durationTicks": 48,
            "midi": 39,
            "name": "D#2",
            "ticks": 153408,
            "time": 212.1237135,
            "velocity": 0.3937007874015748
          },
          {
            "duration": 0.06637162500001637,
            "durationTicks": 48,
            "midi": 60,
            "name": "C4",
            "ticks": 153408,
            "time": 212.1237135,
            "velocity": 0.29133858267716534
          },
          {
            "duration": 0.06637162500001637,
            "durationTicks": 48,
            "midi": 42,
            "name": "F#2",
            "ticks": 153408,
            "time": 212.1237135,
            "velocity": 0.29133858267716534
          },
          {
            "duration": 0.06637162500001637,
            "durationTicks": 48,
            "midi": 38,
            "name": "D2",
            "ticks": 153408,
            "time": 212.1237135,
            "velocity": 0.29133858267716534
          },
          {
            "duration": 0.06637162500001637,
            "durationTicks": 48,
            "midi": 36,
            "name": "C2",
            "ticks": 153408,
            "time": 212.1237135,
            "velocity": 0.3937007874015748
          },
          {
            "duration": 0.06637162499998794,
            "durationTicks": 48,
            "midi": 60,
            "name": "C4",
            "ticks": 153504,
            "time": 212.25645675,
            "velocity": 0.29133858267716534
          },
          {
            "duration": 0.06637162499998794,
            "durationTicks": 48,
            "midi": 46,
            "name": "A#2",
            "ticks": 153600,
            "time": 212.38920000000002,
            "velocity": 0.29133858267716534
          },
          {
            "duration": 0.06637162499998794,
            "durationTicks": 48,
            "midi": 70,
            "name": "A#4",
            "ticks": 153600,
            "time": 212.38920000000002,
            "velocity": 0.29133858267716534
          },
          {
            "duration": 0.06637162499998794,
            "durationTicks": 48,
            "midi": 63,
            "name": "D#4",
            "ticks": 153600,
            "time": 212.38920000000002,
            "velocity": 0.29133858267716534
          },
          {
            "duration": 0.06637162499998794,
            "durationTicks": 48,
            "midi": 70,
            "name": "A#4",
            "ticks": 153696,
            "time": 212.52194325000002,
            "velocity": 0.29133858267716534
          },
          {
            "duration": 0.06637162499998794,
            "durationTicks": 48,
            "midi": 42,
            "name": "F#2",
            "ticks": 153792,
            "time": 212.65468650000003,
            "velocity": 0.29133858267716534
          },
          {
            "duration": 0.06637162499998794,
            "durationTicks": 48,
            "midi": 60,
            "name": "C4",
            "ticks": 153792,
            "time": 212.65468650000003,
            "velocity": 0.29133858267716534
          },
          {
            "duration": 0.06637162499998794,
            "durationTicks": 48,
            "midi": 36,
            "name": "C2",
            "ticks": 153792,
            "time": 212.65468650000003,
            "velocity": 0.3937007874015748
          },
          {
            "duration": 0.06637162500001637,
            "durationTicks": 48,
            "midi": 46,
            "name": "A#2",
            "ticks": 153984,
            "time": 212.920173,
            "velocity": 0.29133858267716534
          },
          {
            "duration": 0.06637162500001637,
            "durationTicks": 48,
            "midi": 70,
            "name": "A#4",
            "ticks": 153984,
            "time": 212.920173,
            "velocity": 0.29133858267716534
          },
          {
            "duration": 0.06637162499998794,
            "durationTicks": 48,
            "midi": 60,
            "name": "C4",
            "ticks": 154080,
            "time": 213.05291625,
            "velocity": 0.29133858267716534
          },
          {
            "duration": 0.06637162499998794,
            "durationTicks": 48,
            "midi": 36,
            "name": "C2",
            "ticks": 154176,
            "time": 213.1856595,
            "velocity": 0.3937007874015748
          },
          {
            "duration": 0.06637162499998794,
            "durationTicks": 48,
            "midi": 39,
            "name": "D#2",
            "ticks": 154176,
            "time": 213.1856595,
            "velocity": 0.3937007874015748
          },
          {
            "duration": 0.06637162499998794,
            "durationTicks": 48,
            "midi": 60,
            "name": "C4",
            "ticks": 154176,
            "time": 213.1856595,
            "velocity": 0.29133858267716534
          },
          {
            "duration": 0.06637162499998794,
            "durationTicks": 48,
            "midi": 42,
            "name": "F#2",
            "ticks": 154176,
            "time": 213.1856595,
            "velocity": 0.29133858267716534
          },
          {
            "duration": 0.06637162499998794,
            "durationTicks": 48,
            "midi": 38,
            "name": "D2",
            "ticks": 154176,
            "time": 213.1856595,
            "velocity": 0.29133858267716534
          },
          {
            "duration": 0.06637162499998794,
            "durationTicks": 48,
            "midi": 60,
            "name": "C4",
            "ticks": 154272,
            "time": 213.31840275000002,
            "velocity": 0.29133858267716534
          },
          {
            "duration": 0.06637162499998794,
            "durationTicks": 48,
            "midi": 70,
            "name": "A#4",
            "ticks": 154368,
            "time": 213.45114600000002,
            "velocity": 0.29133858267716534
          },
          {
            "duration": 0.06637162499998794,
            "durationTicks": 48,
            "midi": 63,
            "name": "D#4",
            "ticks": 154368,
            "time": 213.45114600000002,
            "velocity": 0.29133858267716534
          },
          {
            "duration": 0.06637162499998794,
            "durationTicks": 48,
            "midi": 46,
            "name": "A#2",
            "ticks": 154368,
            "time": 213.45114600000002,
            "velocity": 0.29133858267716534
          },
          {
            "duration": 0.06637162500001637,
            "durationTicks": 48,
            "midi": 70,
            "name": "A#4",
            "ticks": 154464,
            "time": 213.58388925,
            "velocity": 0.29133858267716534
          }
        ],
        "endOfTrackTicks": 154512
      },
      {
        "channel": 3,
        "controlChanges": {},
        "pitchBends": [],
        "instrument": {
          "family": "guitar",
          "number": 28,
          "name": "electric guitar (muted)"
        },
        "name": "Muted E-Guitar",
        "notes": [
          {
            "duration": 0.1327432500000001,
            "durationTicks": 96,
            "midi": 27,
            "name": "D#1",
            "ticks": 960,
            "time": 1.3274325,
            "velocity": 0.44881889763779526
          },
          {
            "duration": 0.13274324999999987,
            "durationTicks": 96,
            "midi": 27,
            "name": "D#1",
            "ticks": 1152,
            "time": 1.5929190000000002,
            "velocity": 0.44881889763779526
          },
          {
            "duration": 0.1327432500000001,
            "durationTicks": 96,
            "midi": 27,
            "name": "D#1",
            "ticks": 1248,
            "time": 1.72566225,
            "velocity": 0.44881889763779526
          },
          {
            "duration": 0.1327432500000001,
            "durationTicks": 96,
            "midi": 36,
            "name": "C2",
            "ticks": 1440,
            "time": 1.99114875,
            "velocity": 0.44881889763779526
          },
          {
            "duration": 0.13274324999999987,
            "durationTicks": 96,
            "midi": 34,
            "name": "A#1",
            "ticks": 1536,
            "time": 2.123892,
            "velocity": 0.44881889763779526
          },
          {
            "duration": 0.13274324999999987,
            "durationTicks": 96,
            "midi": 32,
            "name": "G#1",
            "ticks": 1728,
            "time": 2.3893785000000003,
            "velocity": 0.44881889763779526
          },
          {
            "duration": 0.1327432500000003,
            "durationTicks": 96,
            "midi": 32,
            "name": "G#1",
            "ticks": 1920,
            "time": 2.654865,
            "velocity": 0.44881889763779526
          },
          {
            "duration": 0.13274324999999987,
            "durationTicks": 96,
            "midi": 27,
            "name": "D#1",
            "ticks": 2304,
            "time": 3.1858380000000004,
            "velocity": 0.44881889763779526
          },
          {
            "duration": 0.13274324999999987,
            "durationTicks": 96,
            "midi": 32,
            "name": "G#1",
            "ticks": 2400,
            "time": 3.3185812500000003,
            "velocity": 0.44881889763779526
          },
          {
            "duration": 0.13274324999999987,
            "durationTicks": 96,
            "midi": 29,
            "name": "F1",
            "ticks": 2496,
            "time": 3.4513245,
            "velocity": 0.44881889763779526
          },
          {
            "duration": 0.13274324999999987,
            "durationTicks": 96,
            "midi": 29,
            "name": "F1",
            "ticks": 2688,
            "time": 3.7168110000000003,
            "velocity": 0.44881889763779526
          },
          {
            "duration": 0.13274324999999987,
            "durationTicks": 96,
            "midi": 29,
            "name": "F1",
            "ticks": 2784,
            "time": 3.84955425,
            "velocity": 0.44881889763779526
          },
          {
            "duration": 0.13274324999999987,
            "durationTicks": 96,
            "midi": 36,
            "name": "C2",
            "ticks": 2976,
            "time": 4.11504075,
            "velocity": 0.44881889763779526
          },
          {
            "duration": 0.13274324999999987,
            "durationTicks": 96,
            "midi": 34,
            "name": "A#1",
            "ticks": 3072,
            "time": 4.247784,
            "velocity": 0.44881889763779526
          },
          {
            "duration": 0.13274324999999987,
            "durationTicks": 96,
            "midi": 34,
            "name": "A#1",
            "ticks": 3456,
            "time": 4.778757000000001,
            "velocity": 0.44881889763779526
          },
          {
            "duration": 0.13274324999999987,
            "durationTicks": 96,
            "midi": 34,
            "name": "A#1",
            "ticks": 3552,
            "time": 4.9115002500000005,
            "velocity": 0.44881889763779526
          },
          {
            "duration": 0.13274324999999987,
            "durationTicks": 96,
            "midi": 36,
            "name": "C2",
            "ticks": 3744,
            "time": 5.17698675,
            "velocity": 0.44881889763779526
          },
          {
            "duration": 0.13274325000000076,
            "durationTicks": 96,
            "midi": 34,
            "name": "A#1",
            "ticks": 3936,
            "time": 5.44247325,
            "velocity": 0.44881889763779526
          },
          {
            "duration": 0.13274324999999987,
            "durationTicks": 96,
            "midi": 27,
            "name": "D#1",
            "ticks": 4032,
            "time": 5.575216500000001,
            "velocity": 0.44881889763779526
          },
          {
            "duration": 0.13274324999999987,
            "durationTicks": 96,
            "midi": 27,
            "name": "D#1",
            "ticks": 4224,
            "time": 5.840703,
            "velocity": 0.44881889763779526
          },
          {
            "duration": 0.13274324999999987,
            "durationTicks": 96,
            "midi": 27,
            "name": "D#1",
            "ticks": 4320,
            "time": 5.97344625,
            "velocity": 0.44881889763779526
          },
          {
            "duration": 0.13274325000000076,
            "durationTicks": 96,
            "midi": 36,
            "name": "C2",
            "ticks": 4512,
            "time": 6.23893275,
            "velocity": 0.44881889763779526
          },
          {
            "duration": 0.13274324999999987,
            "durationTicks": 96,
            "midi": 34,
            "name": "A#1",
            "ticks": 4608,
            "time": 6.371676000000001,
            "velocity": 0.44881889763779526
          },
          {
            "duration": 0.13274324999999987,
            "durationTicks": 96,
            "midi": 32,
            "name": "G#1",
            "ticks": 4800,
            "time": 6.6371625000000005,
            "velocity": 0.44881889763779526
          },
          {
            "duration": 0.13274324999999987,
            "durationTicks": 96,
            "midi": 32,
            "name": "G#1",
            "ticks": 4992,
            "time": 6.902649,
            "velocity": 0.44881889763779526
          },
          {
            "duration": 0.13274324999999987,
            "durationTicks": 96,
            "midi": 32,
            "name": "G#1",
            "ticks": 5376,
            "time": 7.433622000000001,
            "velocity": 0.44881889763779526
          },
          {
            "duration": 0.13274324999999987,
            "durationTicks": 96,
            "midi": 32,
            "name": "G#1",
            "ticks": 5472,
            "time": 7.5663652500000005,
            "velocity": 0.44881889763779526
          },
          {
            "duration": 0.13274324999999987,
            "durationTicks": 96,
            "midi": 29,
            "name": "F1",
            "ticks": 5568,
            "time": 7.6991085,
            "velocity": 0.44881889763779526
          },
          {
            "duration": 0.13274324999999987,
            "durationTicks": 96,
            "midi": 29,
            "name": "F1",
            "ticks": 5760,
            "time": 7.964595,
            "velocity": 0.44881889763779526
          },
          {
            "duration": 0.13274325000000076,
            "durationTicks": 96,
            "midi": 29,
            "name": "F1",
            "ticks": 5856,
            "time": 8.09733825,
            "velocity": 0.44881889763779526
          },
          {
            "duration": 0.13274325000000076,
            "durationTicks": 96,
            "midi": 36,
            "name": "C2",
            "ticks": 6048,
            "time": 8.36282475,
            "velocity": 0.44881889763779526
          },
          {
            "duration": 0.13274325000000076,
            "durationTicks": 96,
            "midi": 34,
            "name": "A#1",
            "ticks": 6144,
            "time": 8.495568,
            "velocity": 0.44881889763779526
          },
          {
            "duration": 0.13274325000000076,
            "durationTicks": 96,
            "midi": 32,
            "name": "G#1",
            "ticks": 6528,
            "time": 9.026541,
            "velocity": 0.44881889763779526
          },
          {
            "duration": 0.13274325000000076,
            "durationTicks": 96,
            "midi": 34,
            "name": "A#1",
            "ticks": 6720,
            "time": 9.2920275,
            "velocity": 0.44881889763779526
          },
          {
            "duration": 0.13274325000000076,
            "durationTicks": 96,
            "midi": 32,
            "name": "G#1",
            "ticks": 6816,
            "time": 9.42477075,
            "velocity": 0.44881889763779526
          },
          {
            "duration": 0.13274325000000076,
            "durationTicks": 96,
            "midi": 37,
            "name": "C#2",
            "ticks": 7008,
            "time": 9.69025725,
            "velocity": 0.44881889763779526
          },
          {
            "duration": 0.13274324999999898,
            "durationTicks": 96,
            "midi": 27,
            "name": "D#1",
            "ticks": 7104,
            "time": 9.823000500000001,
            "velocity": 0.44881889763779526
          },
          {
            "duration": 0.13274325000000076,
            "durationTicks": 96,
            "midi": 27,
            "name": "D#1",
            "ticks": 7296,
            "time": 10.088487,
            "velocity": 0.44881889763779526
          },
          {
            "duration": 0.13274324999999898,
            "durationTicks": 96,
            "midi": 27,
            "name": "D#1",
            "ticks": 7392,
            "time": 10.221230250000001,
            "velocity": 0.44881889763779526
          },
          {
            "duration": 0.13274324999999898,
            "durationTicks": 96,
            "midi": 36,
            "name": "C2",
            "ticks": 7584,
            "time": 10.486716750000001,
            "velocity": 0.44881889763779526
          },
          {
            "duration": 0.13274325000000076,
            "durationTicks": 96,
            "midi": 34,
            "name": "A#1",
            "ticks": 7680,
            "time": 10.61946,
            "velocity": 0.44881889763779526
          },
          {
            "duration": 0.13274325000000076,
            "durationTicks": 96,
            "midi": 32,
            "name": "G#1",
            "ticks": 7872,
            "time": 10.8849465,
            "velocity": 0.44881889763779526
          },
          {
            "duration": 0.13274324999999898,
            "durationTicks": 96,
            "midi": 32,
            "name": "G#1",
            "ticks": 8064,
            "time": 11.150433000000001,
            "velocity": 0.44881889763779526
          },
          {
            "duration": 0.13274324999999898,
            "durationTicks": 96,
            "midi": 27,
            "name": "D#1",
            "ticks": 8448,
            "time": 11.681406,
            "velocity": 0.44881889763779526
          },
          {
            "duration": 0.13274325000000076,
            "durationTicks": 96,
            "midi": 32,
            "name": "G#1",
            "ticks": 8544,
            "time": 11.81414925,
            "velocity": 0.44881889763779526
          },
          {
            "duration": 0.13274325000000076,
            "durationTicks": 96,
            "midi": 29,
            "name": "F1",
            "ticks": 8640,
            "time": 11.9468925,
            "velocity": 0.44881889763779526
          },
          {
            "duration": 0.13274325000000076,
            "durationTicks": 96,
            "midi": 29,
            "name": "F1",
            "ticks": 8832,
            "time": 12.212379,
            "velocity": 0.44881889763779526
          },
          {
            "duration": 0.13274324999999898,
            "durationTicks": 96,
            "midi": 29,
            "name": "F1",
            "ticks": 8928,
            "time": 12.345122250000001,
            "velocity": 0.44881889763779526
          },
          {
            "duration": 0.13274325000000076,
            "durationTicks": 96,
            "midi": 36,
            "name": "C2",
            "ticks": 9120,
            "time": 12.61060875,
            "velocity": 0.44881889763779526
          },
          {
            "duration": 0.13274324999999898,
            "durationTicks": 96,
            "midi": 34,
            "name": "A#1",
            "ticks": 9216,
            "time": 12.743352000000002,
            "velocity": 0.44881889763779526
          },
          {
            "duration": 0.13274324999999898,
            "durationTicks": 96,
            "midi": 34,
            "name": "A#1",
            "ticks": 9600,
            "time": 13.274325000000001,
            "velocity": 0.44881889763779526
          },
          {
            "duration": 0.13274325000000076,
            "durationTicks": 96,
            "midi": 34,
            "name": "A#1",
            "ticks": 9696,
            "time": 13.40706825,
            "velocity": 0.44881889763779526
          },
          {
            "duration": 0.13274324999999898,
            "durationTicks": 96,
            "midi": 36,
            "name": "C2",
            "ticks": 9888,
            "time": 13.672554750000002,
            "velocity": 0.44881889763779526
          },
          {
            "duration": 0.13274324999999898,
            "durationTicks": 96,
            "midi": 34,
            "name": "A#1",
            "ticks": 10080,
            "time": 13.938041250000001,
            "velocity": 0.44881889763779526
          },
          {
            "duration": 0.13274325000000076,
            "durationTicks": 96,
            "midi": 27,
            "name": "D#1",
            "ticks": 10176,
            "time": 14.0707845,
            "velocity": 0.44881889763779526
          },
          {
            "duration": 0.13274325000000076,
            "durationTicks": 96,
            "midi": 27,
            "name": "D#1",
            "ticks": 10368,
            "time": 14.336271,
            "velocity": 0.44881889763779526
          },
          {
            "duration": 0.13274325000000076,
            "durationTicks": 96,
            "midi": 27,
            "name": "D#1",
            "ticks": 10464,
            "time": 14.46901425,
            "velocity": 0.44881889763779526
          },
          {
            "duration": 0.13274325000000076,
            "durationTicks": 96,
            "midi": 36,
            "name": "C2",
            "ticks": 10656,
            "time": 14.73450075,
            "velocity": 0.44881889763779526
          },
          {
            "duration": 0.13274324999999898,
            "durationTicks": 96,
            "midi": 34,
            "name": "A#1",
            "ticks": 10752,
            "time": 14.867244000000001,
            "velocity": 0.44881889763779526
          },
          {
            "duration": 0.13274324999999898,
            "durationTicks": 96,
            "midi": 32,
            "name": "G#1",
            "ticks": 10944,
            "time": 15.132730500000001,
            "velocity": 0.44881889763779526
          },
          {
            "duration": 0.13274325000000076,
            "durationTicks": 96,
            "midi": 32,
            "name": "G#1",
            "ticks": 11136,
            "time": 15.398217,
            "velocity": 0.44881889763779526
          },
          {
            "duration": 0.13274324999999898,
            "durationTicks": 96,
            "midi": 32,
            "name": "G#1",
            "ticks": 11520,
            "time": 15.92919,
            "velocity": 0.44881889763779526
          },
          {
            "duration": 0.13274325000000076,
            "durationTicks": 96,
            "midi": 32,
            "name": "G#1",
            "ticks": 11616,
            "time": 16.06193325,
            "velocity": 0.44881889763779526
          },
          {
            "duration": 0.13274325000000076,
            "durationTicks": 96,
            "midi": 29,
            "name": "F1",
            "ticks": 11712,
            "time": 16.1946765,
            "velocity": 0.44881889763779526
          },
          {
            "duration": 0.13274325000000076,
            "durationTicks": 96,
            "midi": 29,
            "name": "F1",
            "ticks": 11904,
            "time": 16.460163,
            "velocity": 0.44881889763779526
          },
          {
            "duration": 0.1327432499999972,
            "durationTicks": 96,
            "midi": 29,
            "name": "F1",
            "ticks": 12000,
            "time": 16.592906250000002,
            "velocity": 0.44881889763779526
          },
          {
            "duration": 0.13274325000000076,
            "durationTicks": 96,
            "midi": 36,
            "name": "C2",
            "ticks": 12192,
            "time": 16.85839275,
            "velocity": 0.44881889763779526
          },
          {
            "duration": 0.13274325000000076,
            "durationTicks": 96,
            "midi": 34,
            "name": "A#1",
            "ticks": 12288,
            "time": 16.991136,
            "velocity": 0.44881889763779526
          },
          {
            "duration": 0.13274325000000076,
            "durationTicks": 96,
            "midi": 32,
            "name": "G#1",
            "ticks": 12672,
            "time": 17.522109,
            "velocity": 0.44881889763779526
          },
          {
            "duration": 0.13274325000000076,
            "durationTicks": 96,
            "midi": 34,
            "name": "A#1",
            "ticks": 12864,
            "time": 17.787595500000002,
            "velocity": 0.44881889763779526
          },
          {
            "duration": 0.1327432499999972,
            "durationTicks": 96,
            "midi": 32,
            "name": "G#1",
            "ticks": 12960,
            "time": 17.920338750000003,
            "velocity": 0.44881889763779526
          },
          {
            "duration": 0.13274325000000076,
            "durationTicks": 96,
            "midi": 37,
            "name": "C#2",
            "ticks": 13152,
            "time": 18.18582525,
            "velocity": 0.44881889763779526
          },
          {
            "duration": 0.13274325000000076,
            "durationTicks": 96,
            "midi": 34,
            "name": "A#1",
            "ticks": 13248,
            "time": 18.3185685,
            "velocity": 0.44881889763779526
          },
          {
            "duration": 0.13274325000000076,
            "durationTicks": 96,
            "midi": 34,
            "name": "A#1",
            "ticks": 13440,
            "time": 18.584055,
            "velocity": 0.44881889763779526
          },
          {
            "duration": 0.13274325000000076,
            "durationTicks": 96,
            "midi": 34,
            "name": "A#1",
            "ticks": 13536,
            "time": 18.71679825,
            "velocity": 0.44881889763779526
          },
          {
            "duration": 0.13274325000000076,
            "durationTicks": 96,
            "midi": 37,
            "name": "C#2",
            "ticks": 13728,
            "time": 18.98228475,
            "velocity": 0.44881889763779526
          },
          {
            "duration": 0.1327432499999972,
            "durationTicks": 96,
            "midi": 36,
            "name": "C2",
            "ticks": 13824,
            "time": 19.115028000000002,
            "velocity": 0.44881889763779526
          },
          {
            "duration": 0.13274325000000076,
            "durationTicks": 96,
            "midi": 32,
            "name": "G#1",
            "ticks": 14016,
            "time": 19.3805145,
            "velocity": 0.44881889763779526
          },
          {
            "duration": 0.13274325000000076,
            "durationTicks": 96,
            "midi": 34,
            "name": "A#1",
            "ticks": 14208,
            "time": 19.646001000000002,
            "velocity": 0.44881889763779526
          },
          {
            "duration": 0.13274325000000076,
            "durationTicks": 96,
            "midi": 29,
            "name": "F1",
            "ticks": 14592,
            "time": 20.176974,
            "velocity": 0.44881889763779526
          },
          {
            "duration": 0.13274325000000076,
            "durationTicks": 96,
            "midi": 34,
            "name": "A#1",
            "ticks": 14688,
            "time": 20.309717250000002,
            "velocity": 0.44881889763779526
          },
          {
            "duration": 0.1327432499999972,
            "durationTicks": 96,
            "midi": 34,
            "name": "A#1",
            "ticks": 14784,
            "time": 20.442460500000003,
            "velocity": 0.44881889763779526
          },
          {
            "duration": 0.13274325000000076,
            "durationTicks": 96,
            "midi": 32,
            "name": "G#1",
            "ticks": 14976,
            "time": 20.707947,
            "velocity": 0.44881889763779526
          },
          {
            "duration": 0.13274325000000076,
            "durationTicks": 96,
            "midi": 34,
            "name": "A#1",
            "ticks": 15072,
            "time": 20.84069025,
            "velocity": 0.44881889763779526
          },
          {
            "duration": 0.13274325000000076,
            "durationTicks": 96,
            "midi": 37,
            "name": "C#2",
            "ticks": 15264,
            "time": 21.10617675,
            "velocity": 0.44881889763779526
          },
          {
            "duration": 0.13274325000000076,
            "durationTicks": 96,
            "midi": 36,
            "name": "C2",
            "ticks": 15360,
            "time": 21.23892,
            "velocity": 0.44881889763779526
          },
          {
            "duration": 0.1327432499999972,
            "durationTicks": 96,
            "midi": 29,
            "name": "F1",
            "ticks": 16128,
            "time": 22.300866000000003,
            "velocity": 0.44881889763779526
          },
          {
            "duration": 0.13274325000000076,
            "durationTicks": 96,
            "midi": 34,
            "name": "A#1",
            "ticks": 16224,
            "time": 22.43360925,
            "velocity": 0.44881889763779526
          },
          {
            "duration": 0.13274325000000076,
            "durationTicks": 96,
            "midi": 34,
            "name": "A#1",
            "ticks": 16320,
            "time": 22.5663525,
            "velocity": 0.44881889763779526
          },
          {
            "duration": 0.13274325000000076,
            "durationTicks": 96,
            "midi": 32,
            "name": "G#1",
            "ticks": 16512,
            "time": 22.831839000000002,
            "velocity": 0.44881889763779526
          },
          {
            "duration": 0.1327432499999972,
            "durationTicks": 96,
            "midi": 34,
            "name": "A#1",
            "ticks": 16608,
            "time": 22.964582250000003,
            "velocity": 0.44881889763779526
          },
          {
            "duration": 0.13274325000000076,
            "durationTicks": 96,
            "midi": 37,
            "name": "C#2",
            "ticks": 16800,
            "time": 23.23006875,
            "velocity": 0.44881889763779526
          },
          {
            "duration": 0.13274325000000076,
            "durationTicks": 96,
            "midi": 36,
            "name": "C2",
            "ticks": 16896,
            "time": 23.362812,
            "velocity": 0.44881889763779526
          },
          {
            "duration": 0.13274325000000076,
            "durationTicks": 96,
            "midi": 32,
            "name": "G#1",
            "ticks": 17088,
            "time": 23.6282985,
            "velocity": 0.44881889763779526
          },
          {
            "duration": 0.13274325000000076,
            "durationTicks": 96,
            "midi": 34,
            "name": "A#1",
            "ticks": 17280,
            "time": 23.893785,
            "velocity": 0.44881889763779526
          },
          {
            "duration": 0.13274325000000076,
            "durationTicks": 96,
            "midi": 34,
            "name": "A#1",
            "ticks": 17664,
            "time": 24.424758,
            "velocity": 0.44881889763779526
          },
          {
            "duration": 0.13274325000000076,
            "durationTicks": 96,
            "midi": 34,
            "name": "A#1",
            "ticks": 17760,
            "time": 24.55750125,
            "velocity": 0.44881889763779526
          },
          {
            "duration": 0.13274325000000076,
            "durationTicks": 96,
            "midi": 27,
            "name": "D#1",
            "ticks": 17856,
            "time": 24.690244500000002,
            "velocity": 0.44881889763779526
          },
          {
            "duration": 0.13274325000000076,
            "durationTicks": 96,
            "midi": 27,
            "name": "D#1",
            "ticks": 18048,
            "time": 24.955731,
            "velocity": 0.44881889763779526
          },
          {
            "duration": 0.13274325000000076,
            "durationTicks": 96,
            "midi": 27,
            "name": "D#1",
            "ticks": 18144,
            "time": 25.08847425,
            "velocity": 0.44881889763779526
          },
          {
            "duration": 0.13274325000000076,
            "durationTicks": 96,
            "midi": 27,
            "name": "D#1",
            "ticks": 18336,
            "time": 25.353960750000002,
            "velocity": 0.44881889763779526
          },
          {
            "duration": 0.1327432499999972,
            "durationTicks": 96,
            "midi": 32,
            "name": "G#1",
            "ticks": 18432,
            "time": 25.486704000000003,
            "velocity": 0.44881889763779526
          },
          {
            "duration": 0.1327432499999972,
            "durationTicks": 96,
            "midi": 32,
            "name": "G#1",
            "ticks": 18816,
            "time": 26.017677000000003,
            "velocity": 0.44881889763779526
          },
          {
            "duration": 0.13274325000000076,
            "durationTicks": 96,
            "midi": 32,
            "name": "G#1",
            "ticks": 18912,
            "time": 26.15042025,
            "velocity": 0.44881889763779526
          },
          {
            "duration": 0.13274325000000076,
            "durationTicks": 96,
            "midi": 29,
            "name": "F1",
            "ticks": 19200,
            "time": 26.548650000000002,
            "velocity": 0.44881889763779526
          },
          {
            "duration": 0.1327432499999972,
            "durationTicks": 96,
            "midi": 32,
            "name": "G#1",
            "ticks": 19296,
            "time": 26.681393250000003,
            "velocity": 0.44881889763779526
          },
          {
            "duration": 0.13274325000000076,
            "durationTicks": 96,
            "midi": 34,
            "name": "A#1",
            "ticks": 19392,
            "time": 26.8141365,
            "velocity": 0.44881889763779526
          },
          {
            "duration": 0.13274325000000076,
            "durationTicks": 96,
            "midi": 34,
            "name": "A#1",
            "ticks": 19584,
            "time": 27.079623,
            "velocity": 0.44881889763779526
          },
          {
            "duration": 0.13274325000000076,
            "durationTicks": 96,
            "midi": 34,
            "name": "A#1",
            "ticks": 19680,
            "time": 27.212366250000002,
            "velocity": 0.44881889763779526
          },
          {
            "duration": 0.13274325000000076,
            "durationTicks": 96,
            "midi": 37,
            "name": "C#2",
            "ticks": 19872,
            "time": 27.47785275,
            "velocity": 0.44881889763779526
          },
          {
            "duration": 0.13274325000000076,
            "durationTicks": 96,
            "midi": 36,
            "name": "C2",
            "ticks": 19968,
            "time": 27.610596,
            "velocity": 0.44881889763779526
          },
          {
            "duration": 0.1327432499999972,
            "durationTicks": 96,
            "midi": 32,
            "name": "G#1",
            "ticks": 20160,
            "time": 27.876082500000003,
            "velocity": 0.44881889763779526
          },
          {
            "duration": 0.13274325000000076,
            "durationTicks": 96,
            "midi": 34,
            "name": "A#1",
            "ticks": 20352,
            "time": 28.141569,
            "velocity": 0.44881889763779526
          },
          {
            "duration": 0.13274325000000076,
            "durationTicks": 96,
            "midi": 29,
            "name": "F1",
            "ticks": 20736,
            "time": 28.672542,
            "velocity": 0.44881889763779526
          },
          {
            "duration": 0.13274325000000076,
            "durationTicks": 96,
            "midi": 34,
            "name": "A#1",
            "ticks": 20832,
            "time": 28.80528525,
            "velocity": 0.44881889763779526
          },
          {
            "duration": 0.13274325000000076,
            "durationTicks": 96,
            "midi": 34,
            "name": "A#1",
            "ticks": 20928,
            "time": 28.9380285,
            "velocity": 0.44881889763779526
          },
          {
            "duration": 0.1327432499999972,
            "durationTicks": 96,
            "midi": 32,
            "name": "G#1",
            "ticks": 21120,
            "time": 29.203515000000003,
            "velocity": 0.44881889763779526
          },
          {
            "duration": 0.13274325000000076,
            "durationTicks": 96,
            "midi": 34,
            "name": "A#1",
            "ticks": 21216,
            "time": 29.33625825,
            "velocity": 0.44881889763779526
          },
          {
            "duration": 0.13274325000000076,
            "durationTicks": 96,
            "midi": 37,
            "name": "C#2",
            "ticks": 21408,
            "time": 29.60174475,
            "velocity": 0.44881889763779526
          },
          {
            "duration": 0.13274325000000076,
            "durationTicks": 96,
            "midi": 36,
            "name": "C2",
            "ticks": 21504,
            "time": 29.734488000000002,
            "velocity": 0.44881889763779526
          },
          {
            "duration": 0.13274325000000076,
            "durationTicks": 96,
            "midi": 29,
            "name": "F1",
            "ticks": 22272,
            "time": 30.796434,
            "velocity": 0.44881889763779526
          },
          {
            "duration": 0.13274325000000076,
            "durationTicks": 96,
            "midi": 34,
            "name": "A#1",
            "ticks": 22368,
            "time": 30.929177250000002,
            "velocity": 0.44881889763779526
          },
          {
            "duration": 0.1327432499999972,
            "durationTicks": 96,
            "midi": 34,
            "name": "A#1",
            "ticks": 22464,
            "time": 31.061920500000003,
            "velocity": 0.44881889763779526
          },
          {
            "duration": 0.13274325000000076,
            "durationTicks": 96,
            "midi": 32,
            "name": "G#1",
            "ticks": 22656,
            "time": 31.327407,
            "velocity": 0.44881889763779526
          },
          {
            "duration": 0.13274325000000076,
            "durationTicks": 96,
            "midi": 34,
            "name": "A#1",
            "ticks": 22752,
            "time": 31.46015025,
            "velocity": 0.44881889763779526
          },
          {
            "duration": 0.1327432499999972,
            "durationTicks": 96,
            "midi": 37,
            "name": "C#2",
            "ticks": 22944,
            "time": 31.725636750000003,
            "velocity": 0.44881889763779526
          },
          {
            "duration": 0.13274325000000076,
            "durationTicks": 96,
            "midi": 36,
            "name": "C2",
            "ticks": 23040,
            "time": 31.85838,
            "velocity": 0.44881889763779526
          },
          {
            "duration": 0.1327432500000043,
            "durationTicks": 96,
            "midi": 32,
            "name": "G#1",
            "ticks": 23232,
            "time": 32.1238665,
            "velocity": 0.44881889763779526
          },
          {
            "duration": 0.1327432500000043,
            "durationTicks": 96,
            "midi": 34,
            "name": "A#1",
            "ticks": 23424,
            "time": 32.389353,
            "velocity": 0.44881889763779526
          },
          {
            "duration": 0.1327432499999972,
            "durationTicks": 96,
            "midi": 34,
            "name": "A#1",
            "ticks": 23808,
            "time": 32.920326,
            "velocity": 0.44881889763779526
          },
          {
            "duration": 0.1327432500000043,
            "durationTicks": 96,
            "midi": 34,
            "name": "A#1",
            "ticks": 23904,
            "time": 33.05306925,
            "velocity": 0.44881889763779526
          },
          {
            "duration": 0.1327432499999972,
            "durationTicks": 96,
            "midi": 27,
            "name": "D#1",
            "ticks": 24000,
            "time": 33.185812500000004,
            "velocity": 0.44881889763779526
          },
          {
            "duration": 0.1327432500000043,
            "durationTicks": 96,
            "midi": 27,
            "name": "D#1",
            "ticks": 24192,
            "time": 33.451299,
            "velocity": 0.44881889763779526
          },
          {
            "duration": 0.1327432499999972,
            "durationTicks": 96,
            "midi": 27,
            "name": "D#1",
            "ticks": 24288,
            "time": 33.58404225,
            "velocity": 0.44881889763779526
          },
          {
            "duration": 0.1327432499999972,
            "durationTicks": 96,
            "midi": 27,
            "name": "D#1",
            "ticks": 24480,
            "time": 33.849528750000005,
            "velocity": 0.44881889763779526
          },
          {
            "duration": 0.1327432499999972,
            "durationTicks": 96,
            "midi": 32,
            "name": "G#1",
            "ticks": 24576,
            "time": 33.982272,
            "velocity": 0.44881889763779526
          },
          {
            "duration": 0.1327432499999972,
            "durationTicks": 96,
            "midi": 32,
            "name": "G#1",
            "ticks": 24960,
            "time": 34.513245000000005,
            "velocity": 0.44881889763779526
          },
          {
            "duration": 0.1327432499999972,
            "durationTicks": 96,
            "midi": 32,
            "name": "G#1",
            "ticks": 25056,
            "time": 34.64598825,
            "velocity": 0.44881889763779526
          },
          {
            "duration": 0.1327432500000043,
            "durationTicks": 96,
            "midi": 29,
            "name": "F1",
            "ticks": 25344,
            "time": 35.044218,
            "velocity": 0.44881889763779526
          },
          {
            "duration": 0.1327432499999972,
            "durationTicks": 96,
            "midi": 32,
            "name": "G#1",
            "ticks": 25440,
            "time": 35.176961250000005,
            "velocity": 0.44881889763779526
          },
          {
            "duration": 0.1327432499999972,
            "durationTicks": 96,
            "midi": 34,
            "name": "A#1",
            "ticks": 25536,
            "time": 35.3097045,
            "velocity": 0.44881889763779526
          },
          {
            "duration": 0.1327432499999972,
            "durationTicks": 96,
            "midi": 34,
            "name": "A#1",
            "ticks": 25728,
            "time": 35.575191000000004,
            "velocity": 0.44881889763779526
          },
          {
            "duration": 0.1327432500000043,
            "durationTicks": 96,
            "midi": 34,
            "name": "A#1",
            "ticks": 25824,
            "time": 35.70793425,
            "velocity": 0.44881889763779526
          },
          {
            "duration": 0.1327432499999972,
            "durationTicks": 96,
            "midi": 37,
            "name": "C#2",
            "ticks": 26016,
            "time": 35.97342075,
            "velocity": 0.44881889763779526
          },
          {
            "duration": 0.1327432500000043,
            "durationTicks": 96,
            "midi": 36,
            "name": "C2",
            "ticks": 26112,
            "time": 36.106164,
            "velocity": 0.44881889763779526
          },
          {
            "duration": 0.1327432499999972,
            "durationTicks": 96,
            "midi": 32,
            "name": "G#1",
            "ticks": 26304,
            "time": 36.3716505,
            "velocity": 0.44881889763779526
          },
          {
            "duration": 0.1327432499999972,
            "durationTicks": 96,
            "midi": 34,
            "name": "A#1",
            "ticks": 26496,
            "time": 36.637137,
            "velocity": 0.44881889763779526
          },
          {
            "duration": 0.1327432500000043,
            "durationTicks": 96,
            "midi": 29,
            "name": "F1",
            "ticks": 26880,
            "time": 37.16811,
            "velocity": 0.44881889763779526
          },
          {
            "duration": 0.1327432499999972,
            "durationTicks": 96,
            "midi": 34,
            "name": "A#1",
            "ticks": 26976,
            "time": 37.30085325,
            "velocity": 0.44881889763779526
          },
          {
            "duration": 0.1327432500000043,
            "durationTicks": 96,
            "midi": 34,
            "name": "A#1",
            "ticks": 27072,
            "time": 37.4335965,
            "velocity": 0.44881889763779526
          },
          {
            "duration": 0.1327432499999972,
            "durationTicks": 96,
            "midi": 32,
            "name": "G#1",
            "ticks": 27264,
            "time": 37.699083,
            "velocity": 0.44881889763779526
          },
          {
            "duration": 0.1327432500000043,
            "durationTicks": 96,
            "midi": 34,
            "name": "A#1",
            "ticks": 27360,
            "time": 37.83182625,
            "velocity": 0.44881889763779526
          },
          {
            "duration": 0.1327432500000043,
            "durationTicks": 96,
            "midi": 37,
            "name": "C#2",
            "ticks": 27552,
            "time": 38.09731275,
            "velocity": 0.44881889763779526
          },
          {
            "duration": 0.1327432499999972,
            "durationTicks": 96,
            "midi": 36,
            "name": "C2",
            "ticks": 27648,
            "time": 38.230056000000005,
            "velocity": 0.44881889763779526
          },
          {
            "duration": 0.1327432499999972,
            "durationTicks": 96,
            "midi": 29,
            "name": "F1",
            "ticks": 28416,
            "time": 39.292002000000004,
            "velocity": 0.44881889763779526
          },
          {
            "duration": 0.1327432500000043,
            "durationTicks": 96,
            "midi": 34,
            "name": "A#1",
            "ticks": 28512,
            "time": 39.42474525,
            "velocity": 0.44881889763779526
          },
          {
            "duration": 0.1327432499999972,
            "durationTicks": 96,
            "midi": 34,
            "name": "A#1",
            "ticks": 28608,
            "time": 39.557488500000005,
            "velocity": 0.44881889763779526
          },
          {
            "duration": 0.1327432500000043,
            "durationTicks": 96,
            "midi": 32,
            "name": "G#1",
            "ticks": 28800,
            "time": 39.822975,
            "velocity": 0.44881889763779526
          },
          {
            "duration": 0.1327432499999972,
            "durationTicks": 96,
            "midi": 34,
            "name": "A#1",
            "ticks": 28896,
            "time": 39.955718250000004,
            "velocity": 0.44881889763779526
          },
          {
            "duration": 0.1327432499999972,
            "durationTicks": 96,
            "midi": 37,
            "name": "C#2",
            "ticks": 29088,
            "time": 40.221204750000005,
            "velocity": 0.44881889763779526
          },
          {
            "duration": 0.1327432499999972,
            "durationTicks": 96,
            "midi": 36,
            "name": "C2",
            "ticks": 29184,
            "time": 40.353948,
            "velocity": 0.44881889763779526
          },
          {
            "duration": 0.1327432499999972,
            "durationTicks": 96,
            "midi": 32,
            "name": "G#1",
            "ticks": 29376,
            "time": 40.619434500000004,
            "velocity": 0.44881889763779526
          },
          {
            "duration": 0.1327432499999972,
            "durationTicks": 96,
            "midi": 34,
            "name": "A#1",
            "ticks": 29568,
            "time": 40.884921000000006,
            "velocity": 0.44881889763779526
          },
          {
            "duration": 0.1327432499999972,
            "durationTicks": 96,
            "midi": 29,
            "name": "F1",
            "ticks": 29952,
            "time": 41.415894,
            "velocity": 0.44881889763779526
          },
          {
            "duration": 0.1327432500000043,
            "durationTicks": 96,
            "midi": 34,
            "name": "A#1",
            "ticks": 30048,
            "time": 41.54863725,
            "velocity": 0.44881889763779526
          },
          {
            "duration": 0.1327432499999972,
            "durationTicks": 96,
            "midi": 34,
            "name": "A#1",
            "ticks": 30144,
            "time": 41.6813805,
            "velocity": 0.44881889763779526
          },
          {
            "duration": 0.1327432499999972,
            "durationTicks": 96,
            "midi": 32,
            "name": "G#1",
            "ticks": 30336,
            "time": 41.946867000000005,
            "velocity": 0.44881889763779526
          },
          {
            "duration": 0.1327432499999972,
            "durationTicks": 96,
            "midi": 34,
            "name": "A#1",
            "ticks": 30432,
            "time": 42.07961025,
            "velocity": 0.44881889763779526
          },
          {
            "duration": 0.1327432499999972,
            "durationTicks": 96,
            "midi": 37,
            "name": "C#2",
            "ticks": 30624,
            "time": 42.34509675,
            "velocity": 0.44881889763779526
          },
          {
            "duration": 0.1327432500000043,
            "durationTicks": 96,
            "midi": 36,
            "name": "C2",
            "ticks": 30720,
            "time": 42.47784,
            "velocity": 0.44881889763779526
          },
          {
            "duration": 0.1327432500000043,
            "durationTicks": 96,
            "midi": 29,
            "name": "F1",
            "ticks": 31488,
            "time": 43.539786,
            "velocity": 0.44881889763779526
          },
          {
            "duration": 0.1327432499999972,
            "durationTicks": 96,
            "midi": 32,
            "name": "G#1",
            "ticks": 31584,
            "time": 43.672529250000004,
            "velocity": 0.44881889763779526
          },
          {
            "duration": 0.1327432500000043,
            "durationTicks": 96,
            "midi": 27,
            "name": "D#1",
            "ticks": 31680,
            "time": 43.8052725,
            "velocity": 0.44881889763779526
          },
          {
            "duration": 0.1327432499999972,
            "durationTicks": 96,
            "midi": 27,
            "name": "D#1",
            "ticks": 31872,
            "time": 44.070759,
            "velocity": 0.44881889763779526
          },
          {
            "duration": 0.1327432500000043,
            "durationTicks": 96,
            "midi": 27,
            "name": "D#1",
            "ticks": 31968,
            "time": 44.20350225,
            "velocity": 0.44881889763779526
          },
          {
            "duration": 0.1327432500000043,
            "durationTicks": 96,
            "midi": 36,
            "name": "C2",
            "ticks": 32160,
            "time": 44.46898875,
            "velocity": 0.44881889763779526
          },
          {
            "duration": 0.1327432499999972,
            "durationTicks": 96,
            "midi": 34,
            "name": "A#1",
            "ticks": 32256,
            "time": 44.601732000000005,
            "velocity": 0.44881889763779526
          },
          {
            "duration": 0.1327432500000043,
            "durationTicks": 96,
            "midi": 32,
            "name": "G#1",
            "ticks": 32448,
            "time": 44.8672185,
            "velocity": 0.44881889763779526
          },
          {
            "duration": 0.1327432500000043,
            "durationTicks": 96,
            "midi": 32,
            "name": "G#1",
            "ticks": 32640,
            "time": 45.132705,
            "velocity": 0.44881889763779526
          },
          {
            "duration": 0.1327432499999972,
            "durationTicks": 96,
            "midi": 27,
            "name": "D#1",
            "ticks": 33024,
            "time": 45.663678000000004,
            "velocity": 0.44881889763779526
          },
          {
            "duration": 0.1327432500000043,
            "durationTicks": 96,
            "midi": 32,
            "name": "G#1",
            "ticks": 33120,
            "time": 45.79642125,
            "velocity": 0.44881889763779526
          },
          {
            "duration": 0.1327432499999972,
            "durationTicks": 96,
            "midi": 29,
            "name": "F1",
            "ticks": 33216,
            "time": 45.929164500000006,
            "velocity": 0.44881889763779526
          },
          {
            "duration": 0.1327432500000043,
            "durationTicks": 96,
            "midi": 29,
            "name": "F1",
            "ticks": 33408,
            "time": 46.194651,
            "velocity": 0.44881889763779526
          },
          {
            "duration": 0.1327432499999972,
            "durationTicks": 96,
            "midi": 29,
            "name": "F1",
            "ticks": 33504,
            "time": 46.327394250000005,
            "velocity": 0.44881889763779526
          },
          {
            "duration": 0.1327432500000043,
            "durationTicks": 96,
            "midi": 36,
            "name": "C2",
            "ticks": 33696,
            "time": 46.59288075,
            "velocity": 0.44881889763779526
          },
          {
            "duration": 0.1327432499999972,
            "durationTicks": 96,
            "midi": 34,
            "name": "A#1",
            "ticks": 33792,
            "time": 46.725624,
            "velocity": 0.44881889763779526
          },
          {
            "duration": 0.1327432500000043,
            "durationTicks": 96,
            "midi": 34,
            "name": "A#1",
            "ticks": 34176,
            "time": 47.256597,
            "velocity": 0.44881889763779526
          },
          {
            "duration": 0.1327432499999972,
            "durationTicks": 96,
            "midi": 34,
            "name": "A#1",
            "ticks": 34272,
            "time": 47.389340250000004,
            "velocity": 0.44881889763779526
          },
          {
            "duration": 0.1327432499999972,
            "durationTicks": 96,
            "midi": 36,
            "name": "C2",
            "ticks": 34464,
            "time": 47.654826750000005,
            "velocity": 0.44881889763779526
          },
          {
            "duration": 0.1327432500000043,
            "durationTicks": 96,
            "midi": 34,
            "name": "A#1",
            "ticks": 34656,
            "time": 47.92031325,
            "velocity": 0.44881889763779526
          },
          {
            "duration": 0.1327432499999972,
            "durationTicks": 96,
            "midi": 27,
            "name": "D#1",
            "ticks": 34752,
            "time": 48.053056500000004,
            "velocity": 0.44881889763779526
          },
          {
            "duration": 0.1327432499999972,
            "durationTicks": 96,
            "midi": 27,
            "name": "D#1",
            "ticks": 34944,
            "time": 48.318543000000005,
            "velocity": 0.44881889763779526
          },
          {
            "duration": 0.1327432499999972,
            "durationTicks": 96,
            "midi": 27,
            "name": "D#1",
            "ticks": 35040,
            "time": 48.45128625,
            "velocity": 0.44881889763779526
          },
          {
            "duration": 0.1327432499999972,
            "durationTicks": 96,
            "midi": 36,
            "name": "C2",
            "ticks": 35232,
            "time": 48.716772750000004,
            "velocity": 0.44881889763779526
          },
          {
            "duration": 0.1327432500000043,
            "durationTicks": 96,
            "midi": 34,
            "name": "A#1",
            "ticks": 35328,
            "time": 48.849516,
            "velocity": 0.44881889763779526
          },
          {
            "duration": 0.1327432499999972,
            "durationTicks": 96,
            "midi": 32,
            "name": "G#1",
            "ticks": 35520,
            "time": 49.1150025,
            "velocity": 0.44881889763779526
          },
          {
            "duration": 0.1327432499999972,
            "durationTicks": 96,
            "midi": 32,
            "name": "G#1",
            "ticks": 35712,
            "time": 49.380489000000004,
            "velocity": 0.44881889763779526
          },
          {
            "duration": 0.1327432500000043,
            "durationTicks": 96,
            "midi": 32,
            "name": "G#1",
            "ticks": 36096,
            "time": 49.911462,
            "velocity": 0.44881889763779526
          },
          {
            "duration": 0.1327432499999972,
            "durationTicks": 96,
            "midi": 32,
            "name": "G#1",
            "ticks": 36192,
            "time": 50.044205250000005,
            "velocity": 0.44881889763779526
          },
          {
            "duration": 0.1327432500000043,
            "durationTicks": 96,
            "midi": 29,
            "name": "F1",
            "ticks": 36288,
            "time": 50.1769485,
            "velocity": 0.44881889763779526
          },
          {
            "duration": 0.1327432499999972,
            "durationTicks": 96,
            "midi": 29,
            "name": "F1",
            "ticks": 36480,
            "time": 50.442435,
            "velocity": 0.44881889763779526
          },
          {
            "duration": 0.1327432500000043,
            "durationTicks": 96,
            "midi": 29,
            "name": "F1",
            "ticks": 36576,
            "time": 50.57517825,
            "velocity": 0.44881889763779526
          },
          {
            "duration": 0.1327432500000043,
            "durationTicks": 96,
            "midi": 36,
            "name": "C2",
            "ticks": 36768,
            "time": 50.84066475,
            "velocity": 0.44881889763779526
          },
          {
            "duration": 0.1327432499999972,
            "durationTicks": 96,
            "midi": 34,
            "name": "A#1",
            "ticks": 36864,
            "time": 50.973408000000006,
            "velocity": 0.44881889763779526
          },
          {
            "duration": 0.1327432499999972,
            "durationTicks": 96,
            "midi": 32,
            "name": "G#1",
            "ticks": 37248,
            "time": 51.504381,
            "velocity": 0.44881889763779526
          },
          {
            "duration": 0.1327432499999972,
            "durationTicks": 96,
            "midi": 34,
            "name": "A#1",
            "ticks": 37440,
            "time": 51.769867500000004,
            "velocity": 0.44881889763779526
          },
          {
            "duration": 0.1327432500000043,
            "durationTicks": 96,
            "midi": 32,
            "name": "G#1",
            "ticks": 37536,
            "time": 51.90261075,
            "velocity": 0.44881889763779526
          },
          {
            "duration": 0.1327432499999972,
            "durationTicks": 96,
            "midi": 37,
            "name": "C#2",
            "ticks": 37728,
            "time": 52.16809725,
            "velocity": 0.44881889763779526
          },
          {
            "duration": 0.1327432500000043,
            "durationTicks": 96,
            "midi": 27,
            "name": "D#1",
            "ticks": 37824,
            "time": 52.3008405,
            "velocity": 0.44881889763779526
          },
          {
            "duration": 0.1327432500000043,
            "durationTicks": 96,
            "midi": 27,
            "name": "D#1",
            "ticks": 38016,
            "time": 52.566327,
            "velocity": 0.44881889763779526
          },
          {
            "duration": 0.1327432499999972,
            "durationTicks": 96,
            "midi": 27,
            "name": "D#1",
            "ticks": 38112,
            "time": 52.699070250000005,
            "velocity": 0.44881889763779526
          },
          {
            "duration": 0.1327432500000043,
            "durationTicks": 96,
            "midi": 36,
            "name": "C2",
            "ticks": 38304,
            "time": 52.96455675,
            "velocity": 0.44881889763779526
          },
          {
            "duration": 0.1327432499999972,
            "durationTicks": 96,
            "midi": 34,
            "name": "A#1",
            "ticks": 38400,
            "time": 53.097300000000004,
            "velocity": 0.44881889763779526
          },
          {
            "duration": 0.1327432499999972,
            "durationTicks": 96,
            "midi": 32,
            "name": "G#1",
            "ticks": 38592,
            "time": 53.362786500000006,
            "velocity": 0.44881889763779526
          },
          {
            "duration": 0.1327432500000043,
            "durationTicks": 96,
            "midi": 32,
            "name": "G#1",
            "ticks": 38784,
            "time": 53.628273,
            "velocity": 0.44881889763779526
          },
          {
            "duration": 0.1327432499999972,
            "durationTicks": 96,
            "midi": 27,
            "name": "D#1",
            "ticks": 39168,
            "time": 54.159246,
            "velocity": 0.44881889763779526
          },
          {
            "duration": 0.1327432500000043,
            "durationTicks": 96,
            "midi": 32,
            "name": "G#1",
            "ticks": 39264,
            "time": 54.29198925,
            "velocity": 0.44881889763779526
          },
          {
            "duration": 0.1327432499999972,
            "durationTicks": 96,
            "midi": 29,
            "name": "F1",
            "ticks": 39360,
            "time": 54.424732500000005,
            "velocity": 0.44881889763779526
          },
          {
            "duration": 0.1327432499999972,
            "durationTicks": 96,
            "midi": 29,
            "name": "F1",
            "ticks": 39552,
            "time": 54.690219000000006,
            "velocity": 0.44881889763779526
          },
          {
            "duration": 0.1327432499999972,
            "durationTicks": 96,
            "midi": 29,
            "name": "F1",
            "ticks": 39648,
            "time": 54.82296225,
            "velocity": 0.44881889763779526
          },
          {
            "duration": 0.1327432499999972,
            "durationTicks": 96,
            "midi": 36,
            "name": "C2",
            "ticks": 39840,
            "time": 55.088448750000005,
            "velocity": 0.44881889763779526
          },
          {
            "duration": 0.1327432500000043,
            "durationTicks": 96,
            "midi": 34,
            "name": "A#1",
            "ticks": 39936,
            "time": 55.221192,
            "velocity": 0.44881889763779526
          },
          {
            "duration": 0.1327432499999972,
            "durationTicks": 96,
            "midi": 34,
            "name": "A#1",
            "ticks": 40320,
            "time": 55.752165000000005,
            "velocity": 0.44881889763779526
          },
          {
            "duration": 0.1327432499999972,
            "durationTicks": 96,
            "midi": 34,
            "name": "A#1",
            "ticks": 40416,
            "time": 55.88490825,
            "velocity": 0.44881889763779526
          },
          {
            "duration": 0.1327432499999972,
            "durationTicks": 96,
            "midi": 36,
            "name": "C2",
            "ticks": 40608,
            "time": 56.150394750000004,
            "velocity": 0.44881889763779526
          },
          {
            "duration": 0.1327432499999972,
            "durationTicks": 96,
            "midi": 34,
            "name": "A#1",
            "ticks": 40800,
            "time": 56.415881250000005,
            "velocity": 0.44881889763779526
          },
          {
            "duration": 0.1327432499999972,
            "durationTicks": 96,
            "midi": 27,
            "name": "D#1",
            "ticks": 40896,
            "time": 56.5486245,
            "velocity": 0.44881889763779526
          },
          {
            "duration": 0.1327432499999972,
            "durationTicks": 96,
            "midi": 27,
            "name": "D#1",
            "ticks": 41088,
            "time": 56.814111000000004,
            "velocity": 0.44881889763779526
          },
          {
            "duration": 0.1327432500000043,
            "durationTicks": 96,
            "midi": 27,
            "name": "D#1",
            "ticks": 41184,
            "time": 56.94685425,
            "velocity": 0.44881889763779526
          },
          {
            "duration": 0.1327432499999972,
            "durationTicks": 96,
            "midi": 36,
            "name": "C2",
            "ticks": 41376,
            "time": 57.21234075,
            "velocity": 0.44881889763779526
          },
          {
            "duration": 0.1327432500000043,
            "durationTicks": 96,
            "midi": 34,
            "name": "A#1",
            "ticks": 41472,
            "time": 57.345084,
            "velocity": 0.44881889763779526
          },
          {
            "duration": 0.1327432500000043,
            "durationTicks": 96,
            "midi": 32,
            "name": "G#1",
            "ticks": 41664,
            "time": 57.6105705,
            "velocity": 0.44881889763779526
          },
          {
            "duration": 0.1327432499999972,
            "durationTicks": 96,
            "midi": 32,
            "name": "G#1",
            "ticks": 41856,
            "time": 57.876057,
            "velocity": 0.44881889763779526
          },
          {
            "duration": 0.1327432499999972,
            "durationTicks": 96,
            "midi": 32,
            "name": "G#1",
            "ticks": 42240,
            "time": 58.407030000000006,
            "velocity": 0.44881889763779526
          },
          {
            "duration": 0.1327432499999972,
            "durationTicks": 96,
            "midi": 32,
            "name": "G#1",
            "ticks": 42336,
            "time": 58.53977325,
            "velocity": 0.44881889763779526
          },
          {
            "duration": 0.1327432500000043,
            "durationTicks": 96,
            "midi": 29,
            "name": "F1",
            "ticks": 42432,
            "time": 58.6725165,
            "velocity": 0.44881889763779526
          },
          {
            "duration": 0.1327432500000043,
            "durationTicks": 96,
            "midi": 29,
            "name": "F1",
            "ticks": 42624,
            "time": 58.938003,
            "velocity": 0.44881889763779526
          },
          {
            "duration": 0.1327432499999972,
            "durationTicks": 96,
            "midi": 29,
            "name": "F1",
            "ticks": 42720,
            "time": 59.070746250000006,
            "velocity": 0.44881889763779526
          },
          {
            "duration": 0.1327432500000043,
            "durationTicks": 96,
            "midi": 36,
            "name": "C2",
            "ticks": 42912,
            "time": 59.33623275,
            "velocity": 0.44881889763779526
          },
          {
            "duration": 0.1327432499999972,
            "durationTicks": 96,
            "midi": 34,
            "name": "A#1",
            "ticks": 43008,
            "time": 59.468976000000005,
            "velocity": 0.44881889763779526
          },
          {
            "duration": 0.1327432500000043,
            "durationTicks": 96,
            "midi": 32,
            "name": "G#1",
            "ticks": 43392,
            "time": 59.999949,
            "velocity": 0.44881889763779526
          },
          {
            "duration": 0.1327432500000043,
            "durationTicks": 96,
            "midi": 34,
            "name": "A#1",
            "ticks": 43584,
            "time": 60.2654355,
            "velocity": 0.44881889763779526
          },
          {
            "duration": 0.1327432499999972,
            "durationTicks": 96,
            "midi": 32,
            "name": "G#1",
            "ticks": 43680,
            "time": 60.39817875000001,
            "velocity": 0.44881889763779526
          },
          {
            "duration": 0.1327432500000043,
            "durationTicks": 96,
            "midi": 37,
            "name": "C#2",
            "ticks": 43872,
            "time": 60.66366525,
            "velocity": 0.44881889763779526
          },
          {
            "duration": 0.1327432499999972,
            "durationTicks": 96,
            "midi": 34,
            "name": "A#1",
            "ticks": 43968,
            "time": 60.796408500000005,
            "velocity": 0.44881889763779526
          },
          {
            "duration": 0.1327432500000043,
            "durationTicks": 96,
            "midi": 34,
            "name": "A#1",
            "ticks": 44160,
            "time": 61.061895,
            "velocity": 0.44881889763779526
          },
          {
            "duration": 0.1327432499999972,
            "durationTicks": 96,
            "midi": 34,
            "name": "A#1",
            "ticks": 44256,
            "time": 61.194638250000004,
            "velocity": 0.44881889763779526
          },
          {
            "duration": 0.1327432499999972,
            "durationTicks": 96,
            "midi": 37,
            "name": "C#2",
            "ticks": 44448,
            "time": 61.460124750000006,
            "velocity": 0.44881889763779526
          },
          {
            "duration": 0.1327432499999972,
            "durationTicks": 96,
            "midi": 36,
            "name": "C2",
            "ticks": 44544,
            "time": 61.592868,
            "velocity": 0.44881889763779526
          },
          {
            "duration": 0.1327432499999972,
            "durationTicks": 96,
            "midi": 32,
            "name": "G#1",
            "ticks": 44736,
            "time": 61.858354500000004,
            "velocity": 0.44881889763779526
          },
          {
            "duration": 0.1327432499999972,
            "durationTicks": 96,
            "midi": 34,
            "name": "A#1",
            "ticks": 44928,
            "time": 62.123841000000006,
            "velocity": 0.44881889763779526
          },
          {
            "duration": 0.1327432500000043,
            "durationTicks": 96,
            "midi": 29,
            "name": "F1",
            "ticks": 45312,
            "time": 62.654814,
            "velocity": 0.44881889763779526
          },
          {
            "duration": 0.1327432499999972,
            "durationTicks": 96,
            "midi": 34,
            "name": "A#1",
            "ticks": 45408,
            "time": 62.787557250000006,
            "velocity": 0.44881889763779526
          },
          {
            "duration": 0.1327432499999972,
            "durationTicks": 96,
            "midi": 34,
            "name": "A#1",
            "ticks": 45504,
            "time": 62.9203005,
            "velocity": 0.44881889763779526
          },
          {
            "duration": 0.1327432499999972,
            "durationTicks": 96,
            "midi": 32,
            "name": "G#1",
            "ticks": 45696,
            "time": 63.185787000000005,
            "velocity": 0.44881889763779526
          },
          {
            "duration": 0.1327432500000043,
            "durationTicks": 96,
            "midi": 34,
            "name": "A#1",
            "ticks": 45792,
            "time": 63.31853025,
            "velocity": 0.44881889763779526
          },
          {
            "duration": 0.1327432499999972,
            "durationTicks": 96,
            "midi": 37,
            "name": "C#2",
            "ticks": 45984,
            "time": 63.58401675,
            "velocity": 0.44881889763779526
          },
          {
            "duration": 0.1327432500000043,
            "durationTicks": 96,
            "midi": 36,
            "name": "C2",
            "ticks": 46080,
            "time": 63.71676,
            "velocity": 0.44881889763779526
          },
          {
            "duration": 0.1327432500000043,
            "durationTicks": 96,
            "midi": 29,
            "name": "F1",
            "ticks": 46848,
            "time": 64.778706,
            "velocity": 0.44881889763779526
          },
          {
            "duration": 0.1327432500000043,
            "durationTicks": 96,
            "midi": 34,
            "name": "A#1",
            "ticks": 46944,
            "time": 64.91144925,
            "velocity": 0.44881889763779526
          },
          {
            "duration": 0.1327432499999901,
            "durationTicks": 96,
            "midi": 34,
            "name": "A#1",
            "ticks": 47040,
            "time": 65.04419250000001,
            "velocity": 0.44881889763779526
          },
          {
            "duration": 0.1327432500000043,
            "durationTicks": 96,
            "midi": 32,
            "name": "G#1",
            "ticks": 47232,
            "time": 65.309679,
            "velocity": 0.44881889763779526
          },
          {
            "duration": 0.1327432499999901,
            "durationTicks": 96,
            "midi": 34,
            "name": "A#1",
            "ticks": 47328,
            "time": 65.44242225,
            "velocity": 0.44881889763779526
          },
          {
            "duration": 0.1327432500000043,
            "durationTicks": 96,
            "midi": 37,
            "name": "C#2",
            "ticks": 47520,
            "time": 65.70790875,
            "velocity": 0.44881889763779526
          },
          {
            "duration": 0.1327432500000043,
            "durationTicks": 96,
            "midi": 36,
            "name": "C2",
            "ticks": 47616,
            "time": 65.840652,
            "velocity": 0.44881889763779526
          },
          {
            "duration": 0.1327432500000043,
            "durationTicks": 96,
            "midi": 32,
            "name": "G#1",
            "ticks": 47808,
            "time": 66.1061385,
            "velocity": 0.44881889763779526
          },
          {
            "duration": 0.1327432499999901,
            "durationTicks": 96,
            "midi": 34,
            "name": "A#1",
            "ticks": 48000,
            "time": 66.37162500000001,
            "velocity": 0.44881889763779526
          },
          {
            "duration": 0.1327432500000043,
            "durationTicks": 96,
            "midi": 34,
            "name": "A#1",
            "ticks": 48384,
            "time": 66.902598,
            "velocity": 0.44881889763779526
          },
          {
            "duration": 0.1327432500000043,
            "durationTicks": 96,
            "midi": 34,
            "name": "A#1",
            "ticks": 48480,
            "time": 67.03534125,
            "velocity": 0.44881889763779526
          },
          {
            "duration": 0.1327432500000043,
            "durationTicks": 96,
            "midi": 27,
            "name": "D#1",
            "ticks": 48576,
            "time": 67.1680845,
            "velocity": 0.44881889763779526
          },
          {
            "duration": 0.1327432500000043,
            "durationTicks": 96,
            "midi": 27,
            "name": "D#1",
            "ticks": 48768,
            "time": 67.433571,
            "velocity": 0.44881889763779526
          },
          {
            "duration": 0.1327432500000043,
            "durationTicks": 96,
            "midi": 27,
            "name": "D#1",
            "ticks": 48864,
            "time": 67.56631425,
            "velocity": 0.44881889763779526
          },
          {
            "duration": 0.1327432500000043,
            "durationTicks": 96,
            "midi": 27,
            "name": "D#1",
            "ticks": 49056,
            "time": 67.83180075,
            "velocity": 0.44881889763779526
          },
          {
            "duration": 0.1327432500000043,
            "durationTicks": 96,
            "midi": 32,
            "name": "G#1",
            "ticks": 49152,
            "time": 67.964544,
            "velocity": 0.44881889763779526
          },
          {
            "duration": 0.1327432499999901,
            "durationTicks": 96,
            "midi": 32,
            "name": "G#1",
            "ticks": 49536,
            "time": 68.495517,
            "velocity": 0.44881889763779526
          },
          {
            "duration": 0.1327432500000043,
            "durationTicks": 96,
            "midi": 32,
            "name": "G#1",
            "ticks": 49632,
            "time": 68.62826025,
            "velocity": 0.44881889763779526
          },
          {
            "duration": 0.1327432499999901,
            "durationTicks": 96,
            "midi": 29,
            "name": "F1",
            "ticks": 49920,
            "time": 69.02649000000001,
            "velocity": 0.44881889763779526
          },
          {
            "duration": 0.1327432500000043,
            "durationTicks": 96,
            "midi": 32,
            "name": "G#1",
            "ticks": 50016,
            "time": 69.15923325,
            "velocity": 0.44881889763779526
          },
          {
            "duration": 0.1327432500000043,
            "durationTicks": 96,
            "midi": 34,
            "name": "A#1",
            "ticks": 50112,
            "time": 69.2919765,
            "velocity": 0.44881889763779526
          },
          {
            "duration": 0.1327432500000043,
            "durationTicks": 96,
            "midi": 34,
            "name": "A#1",
            "ticks": 50304,
            "time": 69.557463,
            "velocity": 0.44881889763779526
          },
          {
            "duration": 0.1327432500000043,
            "durationTicks": 96,
            "midi": 34,
            "name": "A#1",
            "ticks": 50400,
            "time": 69.69020625,
            "velocity": 0.44881889763779526
          },
          {
            "duration": 0.1327432500000043,
            "durationTicks": 96,
            "midi": 37,
            "name": "C#2",
            "ticks": 50592,
            "time": 69.95569275,
            "velocity": 0.44881889763779526
          },
          {
            "duration": 0.1327432500000043,
            "durationTicks": 96,
            "midi": 36,
            "name": "C2",
            "ticks": 50688,
            "time": 70.088436,
            "velocity": 0.44881889763779526
          },
          {
            "duration": 0.1327432499999901,
            "durationTicks": 96,
            "midi": 32,
            "name": "G#1",
            "ticks": 50880,
            "time": 70.35392250000001,
            "velocity": 0.44881889763779526
          },
          {
            "duration": 0.1327432500000043,
            "durationTicks": 96,
            "midi": 34,
            "name": "A#1",
            "ticks": 51072,
            "time": 70.619409,
            "velocity": 0.44881889763779526
          },
          {
            "duration": 0.1327432499999901,
            "durationTicks": 96,
            "midi": 29,
            "name": "F1",
            "ticks": 51456,
            "time": 71.15038200000001,
            "velocity": 0.44881889763779526
          },
          {
            "duration": 0.1327432500000043,
            "durationTicks": 96,
            "midi": 34,
            "name": "A#1",
            "ticks": 51552,
            "time": 71.28312525,
            "velocity": 0.44881889763779526
          },
          {
            "duration": 0.1327432500000043,
            "durationTicks": 96,
            "midi": 34,
            "name": "A#1",
            "ticks": 51648,
            "time": 71.4158685,
            "velocity": 0.44881889763779526
          },
          {
            "duration": 0.1327432499999901,
            "durationTicks": 96,
            "midi": 32,
            "name": "G#1",
            "ticks": 51840,
            "time": 71.68135500000001,
            "velocity": 0.44881889763779526
          },
          {
            "duration": 0.1327432500000043,
            "durationTicks": 96,
            "midi": 34,
            "name": "A#1",
            "ticks": 51936,
            "time": 71.81409825,
            "velocity": 0.44881889763779526
          },
          {
            "duration": 0.1327432499999901,
            "durationTicks": 96,
            "midi": 37,
            "name": "C#2",
            "ticks": 52128,
            "time": 72.07958475000001,
            "velocity": 0.44881889763779526
          },
          {
            "duration": 0.1327432500000043,
            "durationTicks": 96,
            "midi": 36,
            "name": "C2",
            "ticks": 52224,
            "time": 72.212328,
            "velocity": 0.44881889763779526
          },
          {
            "duration": 0.1327432500000043,
            "durationTicks": 96,
            "midi": 29,
            "name": "F1",
            "ticks": 52992,
            "time": 73.274274,
            "velocity": 0.44881889763779526
          },
          {
            "duration": 0.1327432499999901,
            "durationTicks": 96,
            "midi": 34,
            "name": "A#1",
            "ticks": 53088,
            "time": 73.40701725000001,
            "velocity": 0.44881889763779526
          },
          {
            "duration": 0.1327432500000043,
            "durationTicks": 96,
            "midi": 34,
            "name": "A#1",
            "ticks": 53184,
            "time": 73.5397605,
            "velocity": 0.44881889763779526
          },
          {
            "duration": 0.1327432499999901,
            "durationTicks": 96,
            "midi": 32,
            "name": "G#1",
            "ticks": 53376,
            "time": 73.80524700000001,
            "velocity": 0.44881889763779526
          },
          {
            "duration": 0.1327432500000043,
            "durationTicks": 96,
            "midi": 34,
            "name": "A#1",
            "ticks": 53472,
            "time": 73.93799025,
            "velocity": 0.44881889763779526
          },
          {
            "duration": 0.1327432499999901,
            "durationTicks": 96,
            "midi": 37,
            "name": "C#2",
            "ticks": 53664,
            "time": 74.20347675000001,
            "velocity": 0.44881889763779526
          },
          {
            "duration": 0.1327432500000043,
            "durationTicks": 96,
            "midi": 36,
            "name": "C2",
            "ticks": 53760,
            "time": 74.33622,
            "velocity": 0.44881889763779526
          },
          {
            "duration": 0.1327432500000043,
            "durationTicks": 96,
            "midi": 32,
            "name": "G#1",
            "ticks": 53952,
            "time": 74.6017065,
            "velocity": 0.44881889763779526
          },
          {
            "duration": 0.1327432500000043,
            "durationTicks": 96,
            "midi": 34,
            "name": "A#1",
            "ticks": 54144,
            "time": 74.867193,
            "velocity": 0.44881889763779526
          },
          {
            "duration": 0.1327432500000043,
            "durationTicks": 96,
            "midi": 34,
            "name": "A#1",
            "ticks": 54528,
            "time": 75.398166,
            "velocity": 0.44881889763779526
          },
          {
            "duration": 0.1327432499999901,
            "durationTicks": 96,
            "midi": 34,
            "name": "A#1",
            "ticks": 54624,
            "time": 75.53090925000001,
            "velocity": 0.44881889763779526
          },
          {
            "duration": 0.1327432500000043,
            "durationTicks": 96,
            "midi": 27,
            "name": "D#1",
            "ticks": 54720,
            "time": 75.6636525,
            "velocity": 0.44881889763779526
          },
          {
            "duration": 0.1327432500000043,
            "durationTicks": 96,
            "midi": 27,
            "name": "D#1",
            "ticks": 54912,
            "time": 75.929139,
            "velocity": 0.44881889763779526
          },
          {
            "duration": 0.1327432499999901,
            "durationTicks": 96,
            "midi": 27,
            "name": "D#1",
            "ticks": 55008,
            "time": 76.06188225000001,
            "velocity": 0.44881889763779526
          },
          {
            "duration": 0.1327432500000043,
            "durationTicks": 96,
            "midi": 27,
            "name": "D#1",
            "ticks": 55200,
            "time": 76.32736875,
            "velocity": 0.44881889763779526
          },
          {
            "duration": 0.1327432499999901,
            "durationTicks": 96,
            "midi": 32,
            "name": "G#1",
            "ticks": 55296,
            "time": 76.46011200000001,
            "velocity": 0.44881889763779526
          },
          {
            "duration": 0.1327432500000043,
            "durationTicks": 96,
            "midi": 32,
            "name": "G#1",
            "ticks": 55680,
            "time": 76.991085,
            "velocity": 0.44881889763779526
          },
          {
            "duration": 0.1327432500000043,
            "durationTicks": 96,
            "midi": 32,
            "name": "G#1",
            "ticks": 55776,
            "time": 77.12382825,
            "velocity": 0.44881889763779526
          },
          {
            "duration": 0.1327432500000043,
            "durationTicks": 96,
            "midi": 29,
            "name": "F1",
            "ticks": 56064,
            "time": 77.522058,
            "velocity": 0.44881889763779526
          },
          {
            "duration": 0.1327432500000043,
            "durationTicks": 96,
            "midi": 32,
            "name": "G#1",
            "ticks": 56160,
            "time": 77.65480125,
            "velocity": 0.44881889763779526
          },
          {
            "duration": 0.1327432499999901,
            "durationTicks": 96,
            "midi": 34,
            "name": "A#1",
            "ticks": 56256,
            "time": 77.78754450000001,
            "velocity": 0.44881889763779526
          },
          {
            "duration": 0.1327432500000043,
            "durationTicks": 96,
            "midi": 34,
            "name": "A#1",
            "ticks": 56448,
            "time": 78.053031,
            "velocity": 0.44881889763779526
          },
          {
            "duration": 0.1327432499999901,
            "durationTicks": 96,
            "midi": 34,
            "name": "A#1",
            "ticks": 56544,
            "time": 78.18577425000001,
            "velocity": 0.44881889763779526
          },
          {
            "duration": 0.1327432500000043,
            "durationTicks": 96,
            "midi": 37,
            "name": "C#2",
            "ticks": 56736,
            "time": 78.45126075,
            "velocity": 0.44881889763779526
          },
          {
            "duration": 0.1327432499999901,
            "durationTicks": 96,
            "midi": 36,
            "name": "C2",
            "ticks": 56832,
            "time": 78.58400400000001,
            "velocity": 0.44881889763779526
          },
          {
            "duration": 0.1327432500000043,
            "durationTicks": 96,
            "midi": 32,
            "name": "G#1",
            "ticks": 57024,
            "time": 78.8494905,
            "velocity": 0.44881889763779526
          },
          {
            "duration": 0.1327432499999901,
            "durationTicks": 96,
            "midi": 34,
            "name": "A#1",
            "ticks": 57216,
            "time": 79.11497700000001,
            "velocity": 0.44881889763779526
          },
          {
            "duration": 0.1327432500000043,
            "durationTicks": 96,
            "midi": 29,
            "name": "F1",
            "ticks": 57600,
            "time": 79.64595,
            "velocity": 0.44881889763779526
          },
          {
            "duration": 0.1327432500000043,
            "durationTicks": 96,
            "midi": 34,
            "name": "A#1",
            "ticks": 57696,
            "time": 79.77869325,
            "velocity": 0.44881889763779526
          },
          {
            "duration": 0.1327432499999901,
            "durationTicks": 96,
            "midi": 34,
            "name": "A#1",
            "ticks": 57792,
            "time": 79.91143650000001,
            "velocity": 0.44881889763779526
          },
          {
            "duration": 0.1327432500000043,
            "durationTicks": 96,
            "midi": 32,
            "name": "G#1",
            "ticks": 57984,
            "time": 80.176923,
            "velocity": 0.44881889763779526
          },
          {
            "duration": 0.1327432500000043,
            "durationTicks": 96,
            "midi": 34,
            "name": "A#1",
            "ticks": 58080,
            "time": 80.30966625,
            "velocity": 0.44881889763779526
          },
          {
            "duration": 0.1327432500000043,
            "durationTicks": 96,
            "midi": 37,
            "name": "C#2",
            "ticks": 58272,
            "time": 80.57515275,
            "velocity": 0.44881889763779526
          },
          {
            "duration": 0.1327432500000043,
            "durationTicks": 96,
            "midi": 36,
            "name": "C2",
            "ticks": 58368,
            "time": 80.707896,
            "velocity": 0.44881889763779526
          },
          {
            "duration": 0.1327432499999901,
            "durationTicks": 96,
            "midi": 29,
            "name": "F1",
            "ticks": 59136,
            "time": 81.76984200000001,
            "velocity": 0.44881889763779526
          },
          {
            "duration": 0.1327432500000043,
            "durationTicks": 96,
            "midi": 34,
            "name": "A#1",
            "ticks": 59232,
            "time": 81.90258525,
            "velocity": 0.44881889763779526
          },
          {
            "duration": 0.1327432500000043,
            "durationTicks": 96,
            "midi": 34,
            "name": "A#1",
            "ticks": 59328,
            "time": 82.0353285,
            "velocity": 0.44881889763779526
          },
          {
            "duration": 0.1327432500000043,
            "durationTicks": 96,
            "midi": 32,
            "name": "G#1",
            "ticks": 59520,
            "time": 82.300815,
            "velocity": 0.44881889763779526
          },
          {
            "duration": 0.1327432500000043,
            "durationTicks": 96,
            "midi": 34,
            "name": "A#1",
            "ticks": 59616,
            "time": 82.43355825,
            "velocity": 0.44881889763779526
          },
          {
            "duration": 0.1327432500000043,
            "durationTicks": 96,
            "midi": 37,
            "name": "C#2",
            "ticks": 59808,
            "time": 82.69904475,
            "velocity": 0.44881889763779526
          },
          {
            "duration": 0.1327432500000043,
            "durationTicks": 96,
            "midi": 36,
            "name": "C2",
            "ticks": 59904,
            "time": 82.831788,
            "velocity": 0.44881889763779526
          },
          {
            "duration": 0.1327432500000043,
            "durationTicks": 96,
            "midi": 32,
            "name": "G#1",
            "ticks": 60096,
            "time": 83.0972745,
            "velocity": 0.44881889763779526
          },
          {
            "duration": 0.1327432500000043,
            "durationTicks": 96,
            "midi": 34,
            "name": "A#1",
            "ticks": 60288,
            "time": 83.362761,
            "velocity": 0.44881889763779526
          },
          {
            "duration": 0.1327432499999901,
            "durationTicks": 96,
            "midi": 29,
            "name": "F1",
            "ticks": 60672,
            "time": 83.89373400000001,
            "velocity": 0.44881889763779526
          },
          {
            "duration": 0.1327432500000043,
            "durationTicks": 96,
            "midi": 34,
            "name": "A#1",
            "ticks": 60768,
            "time": 84.02647725,
            "velocity": 0.44881889763779526
          },
          {
            "duration": 0.1327432500000043,
            "durationTicks": 96,
            "midi": 34,
            "name": "A#1",
            "ticks": 60864,
            "time": 84.1592205,
            "velocity": 0.44881889763779526
          },
          {
            "duration": 0.1327432500000043,
            "durationTicks": 96,
            "midi": 32,
            "name": "G#1",
            "ticks": 61056,
            "time": 84.424707,
            "velocity": 0.44881889763779526
          },
          {
            "duration": 0.1327432500000043,
            "durationTicks": 96,
            "midi": 34,
            "name": "A#1",
            "ticks": 61152,
            "time": 84.55745025,
            "velocity": 0.44881889763779526
          },
          {
            "duration": 0.1327432499999901,
            "durationTicks": 96,
            "midi": 37,
            "name": "C#2",
            "ticks": 61344,
            "time": 84.82293675000001,
            "velocity": 0.44881889763779526
          },
          {
            "duration": 0.1327432500000043,
            "durationTicks": 96,
            "midi": 36,
            "name": "C2",
            "ticks": 61440,
            "time": 84.95568,
            "velocity": 0.44881889763779526
          },
          {
            "duration": 0.1327432500000043,
            "durationTicks": 96,
            "midi": 29,
            "name": "F1",
            "ticks": 62208,
            "time": 86.017626,
            "velocity": 0.44881889763779526
          },
          {
            "duration": 0.1327432499999901,
            "durationTicks": 96,
            "midi": 32,
            "name": "G#1",
            "ticks": 62304,
            "time": 86.15036925000001,
            "velocity": 0.44881889763779526
          },
          {
            "duration": 0.1327432500000043,
            "durationTicks": 96,
            "midi": 27,
            "name": "D#1",
            "ticks": 62400,
            "time": 86.2831125,
            "velocity": 0.44881889763779526
          },
          {
            "duration": 0.1327432499999901,
            "durationTicks": 96,
            "midi": 27,
            "name": "D#1",
            "ticks": 62592,
            "time": 86.54859900000001,
            "velocity": 0.44881889763779526
          },
          {
            "duration": 0.1327432500000043,
            "durationTicks": 96,
            "midi": 27,
            "name": "D#1",
            "ticks": 62688,
            "time": 86.68134225,
            "velocity": 0.44881889763779526
          },
          {
            "duration": 0.1327432499999901,
            "durationTicks": 96,
            "midi": 36,
            "name": "C2",
            "ticks": 62880,
            "time": 86.94682875000001,
            "velocity": 0.44881889763779526
          },
          {
            "duration": 0.1327432500000043,
            "durationTicks": 96,
            "midi": 34,
            "name": "A#1",
            "ticks": 62976,
            "time": 87.079572,
            "velocity": 0.44881889763779526
          },
          {
            "duration": 0.1327432499999901,
            "durationTicks": 96,
            "midi": 32,
            "name": "G#1",
            "ticks": 63168,
            "time": 87.34505850000001,
            "velocity": 0.44881889763779526
          },
          {
            "duration": 0.1327432500000043,
            "durationTicks": 96,
            "midi": 32,
            "name": "G#1",
            "ticks": 63360,
            "time": 87.610545,
            "velocity": 0.44881889763779526
          },
          {
            "duration": 0.1327432500000043,
            "durationTicks": 96,
            "midi": 27,
            "name": "D#1",
            "ticks": 63744,
            "time": 88.141518,
            "velocity": 0.44881889763779526
          },
          {
            "duration": 0.1327432499999901,
            "durationTicks": 96,
            "midi": 32,
            "name": "G#1",
            "ticks": 63840,
            "time": 88.27426125000001,
            "velocity": 0.44881889763779526
          },
          {
            "duration": 0.1327432500000043,
            "durationTicks": 96,
            "midi": 29,
            "name": "F1",
            "ticks": 63936,
            "time": 88.4070045,
            "velocity": 0.44881889763779526
          },
          {
            "duration": 0.1327432499999901,
            "durationTicks": 96,
            "midi": 29,
            "name": "F1",
            "ticks": 64128,
            "time": 88.67249100000001,
            "velocity": 0.44881889763779526
          },
          {
            "duration": 0.1327432500000043,
            "durationTicks": 96,
            "midi": 29,
            "name": "F1",
            "ticks": 64224,
            "time": 88.80523425,
            "velocity": 0.44881889763779526
          },
          {
            "duration": 0.1327432500000043,
            "durationTicks": 96,
            "midi": 36,
            "name": "C2",
            "ticks": 64416,
            "time": 89.07072075,
            "velocity": 0.44881889763779526
          },
          {
            "duration": 0.1327432499999901,
            "durationTicks": 96,
            "midi": 34,
            "name": "A#1",
            "ticks": 64512,
            "time": 89.20346400000001,
            "velocity": 0.44881889763779526
          },
          {
            "duration": 0.1327432500000043,
            "durationTicks": 96,
            "midi": 34,
            "name": "A#1",
            "ticks": 64896,
            "time": 89.734437,
            "velocity": 0.44881889763779526
          },
          {
            "duration": 0.1327432500000043,
            "durationTicks": 96,
            "midi": 34,
            "name": "A#1",
            "ticks": 64992,
            "time": 89.86718025,
            "velocity": 0.44881889763779526
          },
          {
            "duration": 0.1327432500000043,
            "durationTicks": 96,
            "midi": 36,
            "name": "C2",
            "ticks": 65184,
            "time": 90.13266675,
            "velocity": 0.44881889763779526
          },
          {
            "duration": 0.1327432500000043,
            "durationTicks": 96,
            "midi": 34,
            "name": "A#1",
            "ticks": 65376,
            "time": 90.39815325000001,
            "velocity": 0.44881889763779526
          },
          {
            "duration": 0.1327432499999901,
            "durationTicks": 96,
            "midi": 27,
            "name": "D#1",
            "ticks": 65472,
            "time": 90.53089650000001,
            "velocity": 0.44881889763779526
          },
          {
            "duration": 0.1327432500000043,
            "durationTicks": 96,
            "midi": 27,
            "name": "D#1",
            "ticks": 65664,
            "time": 90.796383,
            "velocity": 0.44881889763779526
          },
          {
            "duration": 0.1327432499999901,
            "durationTicks": 96,
            "midi": 27,
            "name": "D#1",
            "ticks": 65760,
            "time": 90.92912625000001,
            "velocity": 0.44881889763779526
          },
          {
            "duration": 0.1327432500000043,
            "durationTicks": 96,
            "midi": 36,
            "name": "C2",
            "ticks": 65952,
            "time": 91.19461275,
            "velocity": 0.44881889763779526
          },
          {
            "duration": 0.1327432499999901,
            "durationTicks": 96,
            "midi": 34,
            "name": "A#1",
            "ticks": 66048,
            "time": 91.32735600000001,
            "velocity": 0.44881889763779526
          },
          {
            "duration": 0.1327432500000043,
            "durationTicks": 96,
            "midi": 32,
            "name": "G#1",
            "ticks": 66240,
            "time": 91.5928425,
            "velocity": 0.44881889763779526
          },
          {
            "duration": 0.1327432499999901,
            "durationTicks": 96,
            "midi": 32,
            "name": "G#1",
            "ticks": 66432,
            "time": 91.85832900000001,
            "velocity": 0.44881889763779526
          },
          {
            "duration": 0.1327432500000043,
            "durationTicks": 96,
            "midi": 32,
            "name": "G#1",
            "ticks": 66816,
            "time": 92.389302,
            "velocity": 0.44881889763779526
          },
          {
            "duration": 0.1327432500000043,
            "durationTicks": 96,
            "midi": 32,
            "name": "G#1",
            "ticks": 66912,
            "time": 92.52204525,
            "velocity": 0.44881889763779526
          },
          {
            "duration": 0.1327432499999901,
            "durationTicks": 96,
            "midi": 29,
            "name": "F1",
            "ticks": 67008,
            "time": 92.65478850000001,
            "velocity": 0.44881889763779526
          },
          {
            "duration": 0.1327432500000043,
            "durationTicks": 96,
            "midi": 29,
            "name": "F1",
            "ticks": 67200,
            "time": 92.920275,
            "velocity": 0.44881889763779526
          },
          {
            "duration": 0.1327432499999901,
            "durationTicks": 96,
            "midi": 29,
            "name": "F1",
            "ticks": 67296,
            "time": 93.05301825000001,
            "velocity": 0.44881889763779526
          },
          {
            "duration": 0.1327432500000043,
            "durationTicks": 96,
            "midi": 36,
            "name": "C2",
            "ticks": 67488,
            "time": 93.31850475,
            "velocity": 0.44881889763779526
          },
          {
            "duration": 0.1327432500000043,
            "durationTicks": 96,
            "midi": 34,
            "name": "A#1",
            "ticks": 67584,
            "time": 93.451248,
            "velocity": 0.44881889763779526
          },
          {
            "duration": 0.1327432499999901,
            "durationTicks": 96,
            "midi": 32,
            "name": "G#1",
            "ticks": 67968,
            "time": 93.98222100000001,
            "velocity": 0.44881889763779526
          },
          {
            "duration": 0.1327432500000043,
            "durationTicks": 96,
            "midi": 34,
            "name": "A#1",
            "ticks": 68160,
            "time": 94.2477075,
            "velocity": 0.44881889763779526
          },
          {
            "duration": 0.1327432499999901,
            "durationTicks": 96,
            "midi": 32,
            "name": "G#1",
            "ticks": 68256,
            "time": 94.38045075000001,
            "velocity": 0.44881889763779526
          },
          {
            "duration": 0.1327432500000043,
            "durationTicks": 96,
            "midi": 37,
            "name": "C#2",
            "ticks": 68448,
            "time": 94.64593725,
            "velocity": 0.44881889763779526
          },
          {
            "duration": 0.1327432500000043,
            "durationTicks": 96,
            "midi": 27,
            "name": "D#1",
            "ticks": 68544,
            "time": 94.77868050000001,
            "velocity": 0.44881889763779526
          },
          {
            "duration": 0.1327432500000043,
            "durationTicks": 96,
            "midi": 27,
            "name": "D#1",
            "ticks": 68736,
            "time": 95.044167,
            "velocity": 0.44881889763779526
          },
          {
            "duration": 0.1327432500000043,
            "durationTicks": 96,
            "midi": 27,
            "name": "D#1",
            "ticks": 68832,
            "time": 95.17691025,
            "velocity": 0.44881889763779526
          },
          {
            "duration": 0.1327432500000043,
            "durationTicks": 96,
            "midi": 36,
            "name": "C2",
            "ticks": 69024,
            "time": 95.44239675,
            "velocity": 0.44881889763779526
          },
          {
            "duration": 0.1327432500000043,
            "durationTicks": 96,
            "midi": 34,
            "name": "A#1",
            "ticks": 69120,
            "time": 95.57514,
            "velocity": 0.44881889763779526
          },
          {
            "duration": 0.1327432500000043,
            "durationTicks": 96,
            "midi": 32,
            "name": "G#1",
            "ticks": 69312,
            "time": 95.8406265,
            "velocity": 0.44881889763779526
          },
          {
            "duration": 0.1327432500000043,
            "durationTicks": 96,
            "midi": 32,
            "name": "G#1",
            "ticks": 69504,
            "time": 96.10611300000001,
            "velocity": 0.44881889763779526
          },
          {
            "duration": 0.1327432499999901,
            "durationTicks": 96,
            "midi": 27,
            "name": "D#1",
            "ticks": 69888,
            "time": 96.63708600000001,
            "velocity": 0.44881889763779526
          },
          {
            "duration": 0.1327432500000043,
            "durationTicks": 96,
            "midi": 32,
            "name": "G#1",
            "ticks": 69984,
            "time": 96.76982925,
            "velocity": 0.44881889763779526
          },
          {
            "duration": 0.1327432500000043,
            "durationTicks": 96,
            "midi": 29,
            "name": "F1",
            "ticks": 70080,
            "time": 96.9025725,
            "velocity": 0.44881889763779526
          },
          {
            "duration": 0.1327432500000043,
            "durationTicks": 96,
            "midi": 29,
            "name": "F1",
            "ticks": 70272,
            "time": 97.168059,
            "velocity": 0.44881889763779526
          },
          {
            "duration": 0.1327432500000043,
            "durationTicks": 96,
            "midi": 29,
            "name": "F1",
            "ticks": 70368,
            "time": 97.30080225,
            "velocity": 0.44881889763779526
          },
          {
            "duration": 0.1327432500000043,
            "durationTicks": 96,
            "midi": 36,
            "name": "C2",
            "ticks": 70560,
            "time": 97.56628875,
            "velocity": 0.44881889763779526
          },
          {
            "duration": 0.1327432500000043,
            "durationTicks": 96,
            "midi": 34,
            "name": "A#1",
            "ticks": 70656,
            "time": 97.699032,
            "velocity": 0.44881889763779526
          },
          {
            "duration": 0.1327432500000043,
            "durationTicks": 96,
            "midi": 34,
            "name": "A#1",
            "ticks": 71040,
            "time": 98.230005,
            "velocity": 0.44881889763779526
          },
          {
            "duration": 0.1327432499999901,
            "durationTicks": 96,
            "midi": 34,
            "name": "A#1",
            "ticks": 71136,
            "time": 98.36274825000001,
            "velocity": 0.44881889763779526
          },
          {
            "duration": 0.1327432500000043,
            "durationTicks": 96,
            "midi": 36,
            "name": "C2",
            "ticks": 71328,
            "time": 98.62823475,
            "velocity": 0.44881889763779526
          },
          {
            "duration": 0.1327432500000043,
            "durationTicks": 96,
            "midi": 34,
            "name": "A#1",
            "ticks": 71520,
            "time": 98.89372125,
            "velocity": 0.44881889763779526
          },
          {
            "duration": 0.1327432500000043,
            "durationTicks": 96,
            "midi": 27,
            "name": "D#1",
            "ticks": 71616,
            "time": 99.0264645,
            "velocity": 0.44881889763779526
          },
          {
            "duration": 0.1327432499999901,
            "durationTicks": 96,
            "midi": 27,
            "name": "D#1",
            "ticks": 71808,
            "time": 99.29195100000001,
            "velocity": 0.44881889763779526
          },
          {
            "duration": 0.1327432500000043,
            "durationTicks": 96,
            "midi": 27,
            "name": "D#1",
            "ticks": 71904,
            "time": 99.42469425,
            "velocity": 0.44881889763779526
          },
          {
            "duration": 0.1327432499999901,
            "durationTicks": 96,
            "midi": 36,
            "name": "C2",
            "ticks": 72096,
            "time": 99.69018075000001,
            "velocity": 0.44881889763779526
          },
          {
            "duration": 0.1327432500000043,
            "durationTicks": 96,
            "midi": 34,
            "name": "A#1",
            "ticks": 72192,
            "time": 99.822924,
            "velocity": 0.44881889763779526
          },
          {
            "duration": 0.1327432499999901,
            "durationTicks": 96,
            "midi": 32,
            "name": "G#1",
            "ticks": 72384,
            "time": 100.08841050000001,
            "velocity": 0.44881889763779526
          },
          {
            "duration": 0.1327432500000043,
            "durationTicks": 96,
            "midi": 32,
            "name": "G#1",
            "ticks": 72576,
            "time": 100.353897,
            "velocity": 0.44881889763779526
          },
          {
            "duration": 0.1327432500000043,
            "durationTicks": 96,
            "midi": 32,
            "name": "G#1",
            "ticks": 72960,
            "time": 100.88487,
            "velocity": 0.44881889763779526
          },
          {
            "duration": 0.1327432499999901,
            "durationTicks": 96,
            "midi": 32,
            "name": "G#1",
            "ticks": 73056,
            "time": 101.01761325000001,
            "velocity": 0.44881889763779526
          },
          {
            "duration": 0.1327432500000043,
            "durationTicks": 96,
            "midi": 29,
            "name": "F1",
            "ticks": 73152,
            "time": 101.1503565,
            "velocity": 0.44881889763779526
          },
          {
            "duration": 0.1327432499999901,
            "durationTicks": 96,
            "midi": 29,
            "name": "F1",
            "ticks": 73344,
            "time": 101.41584300000001,
            "velocity": 0.44881889763779526
          },
          {
            "duration": 0.1327432500000043,
            "durationTicks": 96,
            "midi": 29,
            "name": "F1",
            "ticks": 73440,
            "time": 101.54858625,
            "velocity": 0.44881889763779526
          },
          {
            "duration": 0.1327432500000043,
            "durationTicks": 96,
            "midi": 36,
            "name": "C2",
            "ticks": 73632,
            "time": 101.81407275000001,
            "velocity": 0.44881889763779526
          },
          {
            "duration": 0.1327432499999901,
            "durationTicks": 96,
            "midi": 34,
            "name": "A#1",
            "ticks": 73728,
            "time": 101.94681600000001,
            "velocity": 0.44881889763779526
          },
          {
            "duration": 0.1327432500000043,
            "durationTicks": 96,
            "midi": 32,
            "name": "G#1",
            "ticks": 74112,
            "time": 102.477789,
            "velocity": 0.44881889763779526
          },
          {
            "duration": 0.1327432499999901,
            "durationTicks": 96,
            "midi": 34,
            "name": "A#1",
            "ticks": 74304,
            "time": 102.74327550000001,
            "velocity": 0.44881889763779526
          },
          {
            "duration": 0.1327432500000043,
            "durationTicks": 96,
            "midi": 32,
            "name": "G#1",
            "ticks": 74400,
            "time": 102.87601875,
            "velocity": 0.44881889763779526
          },
          {
            "duration": 0.1327432499999901,
            "durationTicks": 96,
            "midi": 37,
            "name": "C#2",
            "ticks": 74592,
            "time": 103.14150525000001,
            "velocity": 0.44881889763779526
          },
          {
            "duration": 0.1327432500000043,
            "durationTicks": 96,
            "midi": 27,
            "name": "D#1",
            "ticks": 74688,
            "time": 103.2742485,
            "velocity": 0.44881889763779526
          },
          {
            "duration": 0.1327432500000043,
            "durationTicks": 96,
            "midi": 27,
            "name": "D#1",
            "ticks": 74880,
            "time": 103.53973500000001,
            "velocity": 0.44881889763779526
          },
          {
            "duration": 0.1327432499999901,
            "durationTicks": 96,
            "midi": 27,
            "name": "D#1",
            "ticks": 74976,
            "time": 103.67247825000001,
            "velocity": 0.44881889763779526
          },
          {
            "duration": 0.1327432500000043,
            "durationTicks": 96,
            "midi": 36,
            "name": "C2",
            "ticks": 75168,
            "time": 103.93796475,
            "velocity": 0.44881889763779526
          },
          {
            "duration": 0.1327432499999901,
            "durationTicks": 96,
            "midi": 34,
            "name": "A#1",
            "ticks": 75264,
            "time": 104.07070800000001,
            "velocity": 0.44881889763779526
          },
          {
            "duration": 0.1327432500000043,
            "durationTicks": 96,
            "midi": 32,
            "name": "G#1",
            "ticks": 75456,
            "time": 104.3361945,
            "velocity": 0.44881889763779526
          },
          {
            "duration": 0.1327432500000043,
            "durationTicks": 96,
            "midi": 32,
            "name": "G#1",
            "ticks": 75648,
            "time": 104.601681,
            "velocity": 0.44881889763779526
          },
          {
            "duration": 0.1327432500000043,
            "durationTicks": 96,
            "midi": 27,
            "name": "D#1",
            "ticks": 76032,
            "time": 105.132654,
            "velocity": 0.44881889763779526
          },
          {
            "duration": 0.1327432500000043,
            "durationTicks": 96,
            "midi": 32,
            "name": "G#1",
            "ticks": 76128,
            "time": 105.26539725,
            "velocity": 0.44881889763779526
          },
          {
            "duration": 0.1327432499999901,
            "durationTicks": 96,
            "midi": 29,
            "name": "F1",
            "ticks": 76224,
            "time": 105.39814050000001,
            "velocity": 0.44881889763779526
          },
          {
            "duration": 0.1327432500000043,
            "durationTicks": 96,
            "midi": 29,
            "name": "F1",
            "ticks": 76416,
            "time": 105.663627,
            "velocity": 0.44881889763779526
          },
          {
            "duration": 0.1327432499999901,
            "durationTicks": 96,
            "midi": 29,
            "name": "F1",
            "ticks": 76512,
            "time": 105.79637025000001,
            "velocity": 0.44881889763779526
          },
          {
            "duration": 0.1327432500000043,
            "durationTicks": 96,
            "midi": 36,
            "name": "C2",
            "ticks": 76704,
            "time": 106.06185675,
            "velocity": 0.44881889763779526
          },
          {
            "duration": 0.1327432500000043,
            "durationTicks": 96,
            "midi": 34,
            "name": "A#1",
            "ticks": 76800,
            "time": 106.19460000000001,
            "velocity": 0.44881889763779526
          },
          {
            "duration": 0.1327432499999901,
            "durationTicks": 96,
            "midi": 34,
            "name": "A#1",
            "ticks": 77184,
            "time": 106.72557300000001,
            "velocity": 0.44881889763779526
          },
          {
            "duration": 0.1327432500000043,
            "durationTicks": 96,
            "midi": 34,
            "name": "A#1",
            "ticks": 77280,
            "time": 106.85831625,
            "velocity": 0.44881889763779526
          },
          {
            "duration": 0.1327432499999901,
            "durationTicks": 96,
            "midi": 36,
            "name": "C2",
            "ticks": 77472,
            "time": 107.12380275000001,
            "velocity": 0.44881889763779526
          },
          {
            "duration": 0.1327432500000043,
            "durationTicks": 96,
            "midi": 34,
            "name": "A#1",
            "ticks": 77664,
            "time": 107.38928925,
            "velocity": 0.44881889763779526
          },
          {
            "duration": 0.1327432499999901,
            "durationTicks": 96,
            "midi": 27,
            "name": "D#1",
            "ticks": 77760,
            "time": 107.52203250000001,
            "velocity": 0.44881889763779526
          },
          {
            "duration": 0.1327432500000043,
            "durationTicks": 96,
            "midi": 27,
            "name": "D#1",
            "ticks": 77952,
            "time": 107.787519,
            "velocity": 0.44881889763779526
          },
          {
            "duration": 0.1327432500000043,
            "durationTicks": 96,
            "midi": 27,
            "name": "D#1",
            "ticks": 78048,
            "time": 107.92026225000001,
            "velocity": 0.44881889763779526
          },
          {
            "duration": 0.1327432500000043,
            "durationTicks": 96,
            "midi": 36,
            "name": "C2",
            "ticks": 78240,
            "time": 108.18574875,
            "velocity": 0.44881889763779526
          },
          {
            "duration": 0.1327432500000043,
            "durationTicks": 96,
            "midi": 34,
            "name": "A#1",
            "ticks": 78336,
            "time": 108.318492,
            "velocity": 0.44881889763779526
          },
          {
            "duration": 0.1327432500000043,
            "durationTicks": 96,
            "midi": 32,
            "name": "G#1",
            "ticks": 78528,
            "time": 108.5839785,
            "velocity": 0.44881889763779526
          },
          {
            "duration": 0.1327432499999901,
            "durationTicks": 96,
            "midi": 32,
            "name": "G#1",
            "ticks": 78720,
            "time": 108.84946500000001,
            "velocity": 0.44881889763779526
          },
          {
            "duration": 0.1327432499999901,
            "durationTicks": 96,
            "midi": 32,
            "name": "G#1",
            "ticks": 79104,
            "time": 109.38043800000001,
            "velocity": 0.44881889763779526
          },
          {
            "duration": 0.1327432500000043,
            "durationTicks": 96,
            "midi": 32,
            "name": "G#1",
            "ticks": 79200,
            "time": 109.51318125,
            "velocity": 0.44881889763779526
          },
          {
            "duration": 0.1327432500000043,
            "durationTicks": 96,
            "midi": 29,
            "name": "F1",
            "ticks": 79296,
            "time": 109.6459245,
            "velocity": 0.44881889763779526
          },
          {
            "duration": 0.1327432500000043,
            "durationTicks": 96,
            "midi": 29,
            "name": "F1",
            "ticks": 79488,
            "time": 109.911411,
            "velocity": 0.44881889763779526
          },
          {
            "duration": 0.1327432500000043,
            "durationTicks": 96,
            "midi": 29,
            "name": "F1",
            "ticks": 79584,
            "time": 110.04415425,
            "velocity": 0.44881889763779526
          },
          {
            "duration": 0.1327432500000043,
            "durationTicks": 96,
            "midi": 36,
            "name": "C2",
            "ticks": 79776,
            "time": 110.30964075,
            "velocity": 0.44881889763779526
          },
          {
            "duration": 0.1327432500000043,
            "durationTicks": 96,
            "midi": 34,
            "name": "A#1",
            "ticks": 79872,
            "time": 110.442384,
            "velocity": 0.44881889763779526
          },
          {
            "duration": 0.1327432500000043,
            "durationTicks": 96,
            "midi": 32,
            "name": "G#1",
            "ticks": 80256,
            "time": 110.97335700000001,
            "velocity": 0.44881889763779526
          },
          {
            "duration": 0.1327432500000043,
            "durationTicks": 96,
            "midi": 34,
            "name": "A#1",
            "ticks": 80448,
            "time": 111.2388435,
            "velocity": 0.44881889763779526
          },
          {
            "duration": 0.1327432500000043,
            "durationTicks": 96,
            "midi": 32,
            "name": "G#1",
            "ticks": 80544,
            "time": 111.37158675,
            "velocity": 0.44881889763779526
          },
          {
            "duration": 0.1327432500000043,
            "durationTicks": 96,
            "midi": 37,
            "name": "C#2",
            "ticks": 80736,
            "time": 111.63707325,
            "velocity": 0.44881889763779526
          },
          {
            "duration": 0.1327432500000043,
            "durationTicks": 96,
            "midi": 27,
            "name": "D#1",
            "ticks": 80832,
            "time": 111.7698165,
            "velocity": 0.44881889763779526
          },
          {
            "duration": 0.1327432500000043,
            "durationTicks": 96,
            "midi": 27,
            "name": "D#1",
            "ticks": 81024,
            "time": 112.035303,
            "velocity": 0.44881889763779526
          },
          {
            "duration": 0.1327432500000043,
            "durationTicks": 96,
            "midi": 27,
            "name": "D#1",
            "ticks": 81120,
            "time": 112.16804625,
            "velocity": 0.44881889763779526
          },
          {
            "duration": 0.1327432499999901,
            "durationTicks": 96,
            "midi": 36,
            "name": "C2",
            "ticks": 81312,
            "time": 112.43353275000001,
            "velocity": 0.44881889763779526
          },
          {
            "duration": 0.1327432500000043,
            "durationTicks": 96,
            "midi": 34,
            "name": "A#1",
            "ticks": 81408,
            "time": 112.566276,
            "velocity": 0.44881889763779526
          },
          {
            "duration": 0.1327432499999901,
            "durationTicks": 96,
            "midi": 32,
            "name": "G#1",
            "ticks": 81600,
            "time": 112.83176250000001,
            "velocity": 0.44881889763779526
          },
          {
            "duration": 0.1327432500000043,
            "durationTicks": 96,
            "midi": 32,
            "name": "G#1",
            "ticks": 81792,
            "time": 113.097249,
            "velocity": 0.44881889763779526
          },
          {
            "duration": 0.1327432500000043,
            "durationTicks": 96,
            "midi": 27,
            "name": "D#1",
            "ticks": 82176,
            "time": 113.62822200000001,
            "velocity": 0.44881889763779526
          },
          {
            "duration": 0.1327432499999901,
            "durationTicks": 96,
            "midi": 32,
            "name": "G#1",
            "ticks": 82272,
            "time": 113.76096525000001,
            "velocity": 0.44881889763779526
          },
          {
            "duration": 0.1327432500000043,
            "durationTicks": 96,
            "midi": 29,
            "name": "F1",
            "ticks": 82368,
            "time": 113.8937085,
            "velocity": 0.44881889763779526
          },
          {
            "duration": 0.1327432499999901,
            "durationTicks": 96,
            "midi": 29,
            "name": "F1",
            "ticks": 82560,
            "time": 114.15919500000001,
            "velocity": 0.44881889763779526
          },
          {
            "duration": 0.1327432500000043,
            "durationTicks": 96,
            "midi": 29,
            "name": "F1",
            "ticks": 82656,
            "time": 114.29193825,
            "velocity": 0.44881889763779526
          },
          {
            "duration": 0.1327432499999901,
            "durationTicks": 96,
            "midi": 36,
            "name": "C2",
            "ticks": 82848,
            "time": 114.55742475000001,
            "velocity": 0.44881889763779526
          },
          {
            "duration": 0.1327432500000043,
            "durationTicks": 96,
            "midi": 34,
            "name": "A#1",
            "ticks": 82944,
            "time": 114.690168,
            "velocity": 0.44881889763779526
          },
          {
            "duration": 0.1327432500000043,
            "durationTicks": 96,
            "midi": 34,
            "name": "A#1",
            "ticks": 83328,
            "time": 115.221141,
            "velocity": 0.44881889763779526
          },
          {
            "duration": 0.1327432500000043,
            "durationTicks": 96,
            "midi": 34,
            "name": "A#1",
            "ticks": 83424,
            "time": 115.35388425000001,
            "velocity": 0.44881889763779526
          },
          {
            "duration": 0.1327432500000043,
            "durationTicks": 96,
            "midi": 36,
            "name": "C2",
            "ticks": 83616,
            "time": 115.61937075,
            "velocity": 0.44881889763779526
          },
          {
            "duration": 0.1327432499999901,
            "durationTicks": 96,
            "midi": 34,
            "name": "A#1",
            "ticks": 83808,
            "time": 115.88485725000001,
            "velocity": 0.44881889763779526
          },
          {
            "duration": 0.1327432500000043,
            "durationTicks": 96,
            "midi": 27,
            "name": "D#1",
            "ticks": 83904,
            "time": 116.0176005,
            "velocity": 0.44881889763779526
          },
          {
            "duration": 0.1327432500000043,
            "durationTicks": 96,
            "midi": 27,
            "name": "D#1",
            "ticks": 84096,
            "time": 116.28308700000001,
            "velocity": 0.44881889763779526
          },
          {
            "duration": 0.1327432499999901,
            "durationTicks": 96,
            "midi": 27,
            "name": "D#1",
            "ticks": 84192,
            "time": 116.41583025000001,
            "velocity": 0.44881889763779526
          },
          {
            "duration": 0.1327432500000043,
            "durationTicks": 96,
            "midi": 36,
            "name": "C2",
            "ticks": 84384,
            "time": 116.68131675000001,
            "velocity": 0.44881889763779526
          },
          {
            "duration": 0.1327432499999901,
            "durationTicks": 96,
            "midi": 34,
            "name": "A#1",
            "ticks": 84480,
            "time": 116.81406000000001,
            "velocity": 0.44881889763779526
          },
          {
            "duration": 0.1327432500000043,
            "durationTicks": 96,
            "midi": 32,
            "name": "G#1",
            "ticks": 84672,
            "time": 117.0795465,
            "velocity": 0.44881889763779526
          },
          {
            "duration": 0.1327432500000043,
            "durationTicks": 96,
            "midi": 32,
            "name": "G#1",
            "ticks": 84864,
            "time": 117.345033,
            "velocity": 0.44881889763779526
          },
          {
            "duration": 0.1327432500000043,
            "durationTicks": 96,
            "midi": 32,
            "name": "G#1",
            "ticks": 85248,
            "time": 117.876006,
            "velocity": 0.44881889763779526
          },
          {
            "duration": 0.1327432500000043,
            "durationTicks": 96,
            "midi": 32,
            "name": "G#1",
            "ticks": 85344,
            "time": 118.00874925000001,
            "velocity": 0.44881889763779526
          },
          {
            "duration": 0.1327432499999901,
            "durationTicks": 96,
            "midi": 29,
            "name": "F1",
            "ticks": 85440,
            "time": 118.14149250000001,
            "velocity": 0.44881889763779526
          },
          {
            "duration": 0.1327432500000043,
            "durationTicks": 96,
            "midi": 29,
            "name": "F1",
            "ticks": 85632,
            "time": 118.406979,
            "velocity": 0.44881889763779526
          },
          {
            "duration": 0.1327432499999901,
            "durationTicks": 96,
            "midi": 29,
            "name": "F1",
            "ticks": 85728,
            "time": 118.53972225000001,
            "velocity": 0.44881889763779526
          },
          {
            "duration": 0.1327432500000043,
            "durationTicks": 96,
            "midi": 36,
            "name": "C2",
            "ticks": 85920,
            "time": 118.80520875,
            "velocity": 0.44881889763779526
          },
          {
            "duration": 0.1327432499999901,
            "durationTicks": 96,
            "midi": 34,
            "name": "A#1",
            "ticks": 86016,
            "time": 118.93795200000001,
            "velocity": 0.44881889763779526
          },
          {
            "duration": 0.1327432499999901,
            "durationTicks": 96,
            "midi": 32,
            "name": "G#1",
            "ticks": 86400,
            "time": 119.46892500000001,
            "velocity": 0.44881889763779526
          },
          {
            "duration": 0.1327432500000043,
            "durationTicks": 96,
            "midi": 34,
            "name": "A#1",
            "ticks": 86592,
            "time": 119.73441150000001,
            "velocity": 0.44881889763779526
          },
          {
            "duration": 0.1327432499999901,
            "durationTicks": 96,
            "midi": 32,
            "name": "G#1",
            "ticks": 86688,
            "time": 119.86715475000001,
            "velocity": 0.44881889763779526
          },
          {
            "duration": 0.1327432500000043,
            "durationTicks": 96,
            "midi": 37,
            "name": "C#2",
            "ticks": 86880,
            "time": 120.13264125,
            "velocity": 0.44881889763779526
          },
          {
            "duration": 0.1327432499999901,
            "durationTicks": 96,
            "midi": 39,
            "name": "D#2",
            "ticks": 86976,
            "time": 120.26538450000001,
            "velocity": 0.44881889763779526
          },
          {
            "duration": 0.1327432500000043,
            "durationTicks": 96,
            "midi": 37,
            "name": "C#2",
            "ticks": 87168,
            "time": 120.530871,
            "velocity": 0.44881889763779526
          },
          {
            "duration": 0.1327432500000043,
            "durationTicks": 96,
            "midi": 39,
            "name": "D#2",
            "ticks": 87264,
            "time": 120.66361425000001,
            "velocity": 0.44881889763779526
          },
          {
            "duration": 0.1327432500000043,
            "durationTicks": 96,
            "midi": 42,
            "name": "F#2",
            "ticks": 87456,
            "time": 120.92910075,
            "velocity": 0.44881889763779526
          },
          {
            "duration": 0.1327432500000043,
            "durationTicks": 96,
            "midi": 41,
            "name": "F2",
            "ticks": 87552,
            "time": 121.06184400000001,
            "velocity": 0.44881889763779526
          },
          {
            "duration": 0.1327432500000043,
            "durationTicks": 96,
            "midi": 37,
            "name": "C#2",
            "ticks": 87744,
            "time": 121.3273305,
            "velocity": 0.44881889763779526
          },
          {
            "duration": 0.1327432499999901,
            "durationTicks": 96,
            "midi": 39,
            "name": "D#2",
            "ticks": 87936,
            "time": 121.59281700000001,
            "velocity": 0.44881889763779526
          },
          {
            "duration": 0.1327432500000043,
            "durationTicks": 96,
            "midi": 29,
            "name": "F1",
            "ticks": 88320,
            "time": 122.12379,
            "velocity": 0.44881889763779526
          },
          {
            "duration": 0.1327432500000043,
            "durationTicks": 96,
            "midi": 32,
            "name": "G#1",
            "ticks": 88416,
            "time": 122.25653325,
            "velocity": 0.44881889763779526
          },
          {
            "duration": 0.1327432500000043,
            "durationTicks": 96,
            "midi": 34,
            "name": "A#1",
            "ticks": 88512,
            "time": 122.38927650000001,
            "velocity": 0.44881889763779526
          },
          {
            "duration": 0.1327432500000043,
            "durationTicks": 96,
            "midi": 32,
            "name": "G#1",
            "ticks": 88704,
            "time": 122.654763,
            "velocity": 0.44881889763779526
          },
          {
            "duration": 0.1327432500000043,
            "durationTicks": 96,
            "midi": 34,
            "name": "A#1",
            "ticks": 88800,
            "time": 122.78750625,
            "velocity": 0.44881889763779526
          },
          {
            "duration": 0.1327432500000043,
            "durationTicks": 96,
            "midi": 37,
            "name": "C#2",
            "ticks": 88992,
            "time": 123.05299275,
            "velocity": 0.44881889763779526
          },
          {
            "duration": 0.1327432500000043,
            "durationTicks": 96,
            "midi": 36,
            "name": "C2",
            "ticks": 89088,
            "time": 123.185736,
            "velocity": 0.44881889763779526
          },
          {
            "duration": 0.1327432499999901,
            "durationTicks": 96,
            "midi": 34,
            "name": "A#1",
            "ticks": 89856,
            "time": 124.24768200000001,
            "velocity": 0.44881889763779526
          },
          {
            "duration": 0.1327432500000043,
            "durationTicks": 96,
            "midi": 37,
            "name": "C#2",
            "ticks": 89952,
            "time": 124.38042525,
            "velocity": 0.44881889763779526
          },
          {
            "duration": 0.1327432500000043,
            "durationTicks": 96,
            "midi": 39,
            "name": "D#2",
            "ticks": 90048,
            "time": 124.5131685,
            "velocity": 0.44881889763779526
          },
          {
            "duration": 0.1327432500000043,
            "durationTicks": 96,
            "midi": 37,
            "name": "C#2",
            "ticks": 90240,
            "time": 124.778655,
            "velocity": 0.44881889763779526
          },
          {
            "duration": 0.1327432500000043,
            "durationTicks": 96,
            "midi": 39,
            "name": "D#2",
            "ticks": 90336,
            "time": 124.91139825,
            "velocity": 0.44881889763779526
          },
          {
            "duration": 0.1327432499999901,
            "durationTicks": 96,
            "midi": 42,
            "name": "F#2",
            "ticks": 90528,
            "time": 125.17688475000001,
            "velocity": 0.44881889763779526
          },
          {
            "duration": 0.1327432500000043,
            "durationTicks": 96,
            "midi": 41,
            "name": "F2",
            "ticks": 90624,
            "time": 125.309628,
            "velocity": 0.44881889763779526
          },
          {
            "duration": 0.1327432499999901,
            "durationTicks": 96,
            "midi": 37,
            "name": "C#2",
            "ticks": 90816,
            "time": 125.57511450000001,
            "velocity": 0.44881889763779526
          },
          {
            "duration": 0.1327432500000043,
            "durationTicks": 96,
            "midi": 39,
            "name": "D#2",
            "ticks": 91008,
            "time": 125.840601,
            "velocity": 0.44881889763779526
          },
          {
            "duration": 0.1327432499999901,
            "durationTicks": 96,
            "midi": 29,
            "name": "F1",
            "ticks": 91392,
            "time": 126.37157400000001,
            "velocity": 0.44881889763779526
          },
          {
            "duration": 0.1327432500000043,
            "durationTicks": 96,
            "midi": 32,
            "name": "G#1",
            "ticks": 91488,
            "time": 126.50431725,
            "velocity": 0.44881889763779526
          },
          {
            "duration": 0.1327432500000043,
            "durationTicks": 96,
            "midi": 34,
            "name": "A#1",
            "ticks": 91584,
            "time": 126.6370605,
            "velocity": 0.44881889763779526
          },
          {
            "duration": 0.1327432499999901,
            "durationTicks": 96,
            "midi": 32,
            "name": "G#1",
            "ticks": 91776,
            "time": 126.90254700000001,
            "velocity": 0.44881889763779526
          },
          {
            "duration": 0.1327432500000043,
            "durationTicks": 96,
            "midi": 34,
            "name": "A#1",
            "ticks": 91872,
            "time": 127.03529025,
            "velocity": 0.44881889763779526
          },
          {
            "duration": 0.1327432499999901,
            "durationTicks": 96,
            "midi": 37,
            "name": "C#2",
            "ticks": 92064,
            "time": 127.30077675000001,
            "velocity": 0.44881889763779526
          },
          {
            "duration": 0.1327432500000043,
            "durationTicks": 96,
            "midi": 36,
            "name": "C2",
            "ticks": 92160,
            "time": 127.43352,
            "velocity": 0.44881889763779526
          },
          {
            "duration": 0.1327432500000043,
            "durationTicks": 96,
            "midi": 34,
            "name": "A#1",
            "ticks": 92928,
            "time": 128.495466,
            "velocity": 0.44881889763779526
          },
          {
            "duration": 0.1327432500000043,
            "durationTicks": 96,
            "midi": 37,
            "name": "C#2",
            "ticks": 93024,
            "time": 128.62820925,
            "velocity": 0.44881889763779526
          },
          {
            "duration": 0.1327432500000043,
            "durationTicks": 96,
            "midi": 39,
            "name": "D#2",
            "ticks": 93120,
            "time": 128.7609525,
            "velocity": 0.44881889763779526
          },
          {
            "duration": 0.1327432500000043,
            "durationTicks": 96,
            "midi": 37,
            "name": "C#2",
            "ticks": 93312,
            "time": 129.026439,
            "velocity": 0.44881889763779526
          },
          {
            "duration": 0.1327432500000043,
            "durationTicks": 96,
            "midi": 39,
            "name": "D#2",
            "ticks": 93408,
            "time": 129.15918225000001,
            "velocity": 0.44881889763779526
          },
          {
            "duration": 0.1327432500000043,
            "durationTicks": 96,
            "midi": 42,
            "name": "F#2",
            "ticks": 93600,
            "time": 129.42466875,
            "velocity": 0.44881889763779526
          },
          {
            "duration": 0.1327432500000043,
            "durationTicks": 96,
            "midi": 41,
            "name": "F2",
            "ticks": 93696,
            "time": 129.557412,
            "velocity": 0.44881889763779526
          },
          {
            "duration": 0.1327432500000043,
            "durationTicks": 96,
            "midi": 37,
            "name": "C#2",
            "ticks": 93888,
            "time": 129.8228985,
            "velocity": 0.44881889763779526
          },
          {
            "duration": 0.1327432500000043,
            "durationTicks": 96,
            "midi": 39,
            "name": "D#2",
            "ticks": 94080,
            "time": 130.08838500000002,
            "velocity": 0.44881889763779526
          },
          {
            "duration": 0.1327432500000043,
            "durationTicks": 96,
            "midi": 29,
            "name": "F1",
            "ticks": 94464,
            "time": 130.619358,
            "velocity": 0.44881889763779526
          },
          {
            "duration": 0.1327432500000043,
            "durationTicks": 96,
            "midi": 32,
            "name": "G#1",
            "ticks": 94560,
            "time": 130.75210125,
            "velocity": 0.44881889763779526
          },
          {
            "duration": 0.1327432500000043,
            "durationTicks": 96,
            "midi": 34,
            "name": "A#1",
            "ticks": 94656,
            "time": 130.8848445,
            "velocity": 0.44881889763779526
          },
          {
            "duration": 0.1327432500000043,
            "durationTicks": 96,
            "midi": 32,
            "name": "G#1",
            "ticks": 94848,
            "time": 131.150331,
            "velocity": 0.44881889763779526
          },
          {
            "duration": 0.1327432500000043,
            "durationTicks": 96,
            "midi": 34,
            "name": "A#1",
            "ticks": 94944,
            "time": 131.28307425,
            "velocity": 0.44881889763779526
          },
          {
            "duration": 0.1327432500000043,
            "durationTicks": 96,
            "midi": 37,
            "name": "C#2",
            "ticks": 95136,
            "time": 131.54856075,
            "velocity": 0.44881889763779526
          },
          {
            "duration": 0.1327432500000043,
            "durationTicks": 96,
            "midi": 36,
            "name": "C2",
            "ticks": 95232,
            "time": 131.681304,
            "velocity": 0.44881889763779526
          },
          {
            "duration": 0.1327432499999759,
            "durationTicks": 96,
            "midi": 34,
            "name": "A#1",
            "ticks": 96000,
            "time": 132.74325000000002,
            "velocity": 0.44881889763779526
          },
          {
            "duration": 0.1327432500000043,
            "durationTicks": 96,
            "midi": 37,
            "name": "C#2",
            "ticks": 96096,
            "time": 132.87599325,
            "velocity": 0.44881889763779526
          },
          {
            "duration": 0.1327432500000043,
            "durationTicks": 96,
            "midi": 39,
            "name": "D#2",
            "ticks": 96192,
            "time": 133.0087365,
            "velocity": 0.44881889763779526
          },
          {
            "duration": 0.1327432500000043,
            "durationTicks": 96,
            "midi": 37,
            "name": "C#2",
            "ticks": 96384,
            "time": 133.274223,
            "velocity": 0.44881889763779526
          },
          {
            "duration": 0.1327432500000043,
            "durationTicks": 96,
            "midi": 39,
            "name": "D#2",
            "ticks": 96480,
            "time": 133.40696625,
            "velocity": 0.44881889763779526
          },
          {
            "duration": 0.1327432499999759,
            "durationTicks": 96,
            "midi": 42,
            "name": "F#2",
            "ticks": 96672,
            "time": 133.67245275000002,
            "velocity": 0.44881889763779526
          },
          {
            "duration": 0.1327432500000043,
            "durationTicks": 96,
            "midi": 41,
            "name": "F2",
            "ticks": 96768,
            "time": 133.805196,
            "velocity": 0.44881889763779526
          },
          {
            "duration": 0.1327432500000043,
            "durationTicks": 96,
            "midi": 37,
            "name": "C#2",
            "ticks": 96960,
            "time": 134.0706825,
            "velocity": 0.44881889763779526
          },
          {
            "duration": 0.1327432500000043,
            "durationTicks": 96,
            "midi": 39,
            "name": "D#2",
            "ticks": 97152,
            "time": 134.336169,
            "velocity": 0.44881889763779526
          },
          {
            "duration": 0.1327432500000043,
            "durationTicks": 96,
            "midi": 29,
            "name": "F1",
            "ticks": 97536,
            "time": 134.867142,
            "velocity": 0.44881889763779526
          },
          {
            "duration": 0.1327432500000043,
            "durationTicks": 96,
            "midi": 32,
            "name": "G#1",
            "ticks": 97632,
            "time": 134.99988525,
            "velocity": 0.44881889763779526
          },
          {
            "duration": 0.1327432500000043,
            "durationTicks": 96,
            "midi": 34,
            "name": "A#1",
            "ticks": 97728,
            "time": 135.1326285,
            "velocity": 0.44881889763779526
          },
          {
            "duration": 0.1327432499999759,
            "durationTicks": 96,
            "midi": 32,
            "name": "G#1",
            "ticks": 97920,
            "time": 135.39811500000002,
            "velocity": 0.44881889763779526
          },
          {
            "duration": 0.1327432500000043,
            "durationTicks": 96,
            "midi": 34,
            "name": "A#1",
            "ticks": 98016,
            "time": 135.53085825,
            "velocity": 0.44881889763779526
          },
          {
            "duration": 0.1327432500000043,
            "durationTicks": 96,
            "midi": 37,
            "name": "C#2",
            "ticks": 98208,
            "time": 135.79634475,
            "velocity": 0.44881889763779526
          },
          {
            "duration": 0.1327432500000043,
            "durationTicks": 96,
            "midi": 36,
            "name": "C2",
            "ticks": 98304,
            "time": 135.929088,
            "velocity": 0.44881889763779526
          },
          {
            "duration": 0.1327432500000043,
            "durationTicks": 96,
            "midi": 34,
            "name": "A#1",
            "ticks": 99072,
            "time": 136.991034,
            "velocity": 0.44881889763779526
          },
          {
            "duration": 0.1327432499999759,
            "durationTicks": 96,
            "midi": 37,
            "name": "C#2",
            "ticks": 99168,
            "time": 137.12377725000002,
            "velocity": 0.44881889763779526
          },
          {
            "duration": 0.1327432500000043,
            "durationTicks": 96,
            "midi": 34,
            "name": "A#1",
            "ticks": 111552,
            "time": 154.2476565,
            "velocity": 0.44881889763779526
          },
          {
            "duration": 0.1327432500000043,
            "durationTicks": 96,
            "midi": 34,
            "name": "A#1",
            "ticks": 111744,
            "time": 154.513143,
            "velocity": 0.44881889763779526
          },
          {
            "duration": 0.1327432500000043,
            "durationTicks": 96,
            "midi": 34,
            "name": "A#1",
            "ticks": 111840,
            "time": 154.64588625000002,
            "velocity": 0.44881889763779526
          },
          {
            "duration": 0.1327432500000043,
            "durationTicks": 96,
            "midi": 37,
            "name": "C#2",
            "ticks": 112032,
            "time": 154.91137275,
            "velocity": 0.44881889763779526
          },
          {
            "duration": 0.1327432500000043,
            "durationTicks": 96,
            "midi": 36,
            "name": "C2",
            "ticks": 112128,
            "time": 155.044116,
            "velocity": 0.44881889763779526
          },
          {
            "duration": 0.1327432500000043,
            "durationTicks": 96,
            "midi": 32,
            "name": "G#1",
            "ticks": 112320,
            "time": 155.3096025,
            "velocity": 0.44881889763779526
          },
          {
            "duration": 0.1327432499999759,
            "durationTicks": 96,
            "midi": 34,
            "name": "A#1",
            "ticks": 112512,
            "time": 155.57508900000002,
            "velocity": 0.44881889763779526
          },
          {
            "duration": 0.1327432500000043,
            "durationTicks": 96,
            "midi": 29,
            "name": "F1",
            "ticks": 112896,
            "time": 156.106062,
            "velocity": 0.44881889763779526
          },
          {
            "duration": 0.1327432500000043,
            "durationTicks": 96,
            "midi": 34,
            "name": "A#1",
            "ticks": 112992,
            "time": 156.23880525,
            "velocity": 0.44881889763779526
          },
          {
            "duration": 0.1327432500000043,
            "durationTicks": 96,
            "midi": 34,
            "name": "A#1",
            "ticks": 113088,
            "time": 156.37154850000002,
            "velocity": 0.44881889763779526
          },
          {
            "duration": 0.1327432500000043,
            "durationTicks": 96,
            "midi": 32,
            "name": "G#1",
            "ticks": 113280,
            "time": 156.637035,
            "velocity": 0.44881889763779526
          },
          {
            "duration": 0.1327432500000043,
            "durationTicks": 96,
            "midi": 34,
            "name": "A#1",
            "ticks": 113376,
            "time": 156.76977825,
            "velocity": 0.44881889763779526
          },
          {
            "duration": 0.1327432500000043,
            "durationTicks": 96,
            "midi": 37,
            "name": "C#2",
            "ticks": 113568,
            "time": 157.03526475,
            "velocity": 0.44881889763779526
          },
          {
            "duration": 0.1327432500000043,
            "durationTicks": 96,
            "midi": 36,
            "name": "C2",
            "ticks": 113664,
            "time": 157.16800800000001,
            "velocity": 0.44881889763779526
          },
          {
            "duration": 0.1327432499999759,
            "durationTicks": 96,
            "midi": 29,
            "name": "F1",
            "ticks": 114432,
            "time": 158.22995400000002,
            "velocity": 0.44881889763779526
          },
          {
            "duration": 0.1327432500000043,
            "durationTicks": 96,
            "midi": 34,
            "name": "A#1",
            "ticks": 114528,
            "time": 158.36269725,
            "velocity": 0.44881889763779526
          },
          {
            "duration": 0.1327432500000043,
            "durationTicks": 96,
            "midi": 34,
            "name": "A#1",
            "ticks": 114624,
            "time": 158.4954405,
            "velocity": 0.44881889763779526
          },
          {
            "duration": 0.1327432500000043,
            "durationTicks": 96,
            "midi": 32,
            "name": "G#1",
            "ticks": 114816,
            "time": 158.760927,
            "velocity": 0.44881889763779526
          },
          {
            "duration": 0.1327432500000043,
            "durationTicks": 96,
            "midi": 34,
            "name": "A#1",
            "ticks": 114912,
            "time": 158.89367025,
            "velocity": 0.44881889763779526
          },
          {
            "duration": 0.1327432499999759,
            "durationTicks": 96,
            "midi": 37,
            "name": "C#2",
            "ticks": 115104,
            "time": 159.15915675000002,
            "velocity": 0.44881889763779526
          },
          {
            "duration": 0.1327432500000043,
            "durationTicks": 96,
            "midi": 36,
            "name": "C2",
            "ticks": 115200,
            "time": 159.2919,
            "velocity": 0.44881889763779526
          },
          {
            "duration": 0.1327432500000043,
            "durationTicks": 96,
            "midi": 32,
            "name": "G#1",
            "ticks": 115392,
            "time": 159.5573865,
            "velocity": 0.44881889763779526
          },
          {
            "duration": 0.1327432500000043,
            "durationTicks": 96,
            "midi": 34,
            "name": "A#1",
            "ticks": 115584,
            "time": 159.82287300000002,
            "velocity": 0.44881889763779526
          },
          {
            "duration": 0.1327432500000043,
            "durationTicks": 96,
            "midi": 29,
            "name": "F1",
            "ticks": 115968,
            "time": 160.353846,
            "velocity": 0.44881889763779526
          },
          {
            "duration": 0.1327432500000043,
            "durationTicks": 96,
            "midi": 34,
            "name": "A#1",
            "ticks": 116064,
            "time": 160.48658925,
            "velocity": 0.44881889763779526
          },
          {
            "duration": 0.1327432500000043,
            "durationTicks": 96,
            "midi": 34,
            "name": "A#1",
            "ticks": 116160,
            "time": 160.6193325,
            "velocity": 0.44881889763779526
          },
          {
            "duration": 0.1327432499999759,
            "durationTicks": 96,
            "midi": 32,
            "name": "G#1",
            "ticks": 116352,
            "time": 160.88481900000002,
            "velocity": 0.44881889763779526
          },
          {
            "duration": 0.1327432500000043,
            "durationTicks": 96,
            "midi": 34,
            "name": "A#1",
            "ticks": 116448,
            "time": 161.01756225,
            "velocity": 0.44881889763779526
          },
          {
            "duration": 0.1327432500000043,
            "durationTicks": 96,
            "midi": 37,
            "name": "C#2",
            "ticks": 116640,
            "time": 161.28304875,
            "velocity": 0.44881889763779526
          },
          {
            "duration": 0.1327432500000043,
            "durationTicks": 96,
            "midi": 36,
            "name": "C2",
            "ticks": 116736,
            "time": 161.415792,
            "velocity": 0.44881889763779526
          },
          {
            "duration": 0.1327432500000043,
            "durationTicks": 96,
            "midi": 29,
            "name": "F1",
            "ticks": 117504,
            "time": 162.47773800000002,
            "velocity": 0.44881889763779526
          },
          {
            "duration": 0.1327432499999759,
            "durationTicks": 96,
            "midi": 32,
            "name": "G#1",
            "ticks": 117600,
            "time": 162.61048125000002,
            "velocity": 0.44881889763779526
          },
          {
            "duration": 0.1327432500000043,
            "durationTicks": 96,
            "midi": 27,
            "name": "D#1",
            "ticks": 117696,
            "time": 162.7432245,
            "velocity": 0.44881889763779526
          },
          {
            "duration": 0.1327432500000043,
            "durationTicks": 96,
            "midi": 27,
            "name": "D#1",
            "ticks": 117888,
            "time": 163.008711,
            "velocity": 0.44881889763779526
          },
          {
            "duration": 0.1327432500000043,
            "durationTicks": 96,
            "midi": 27,
            "name": "D#1",
            "ticks": 117984,
            "time": 163.14145425,
            "velocity": 0.44881889763779526
          },
          {
            "duration": 0.1327432500000043,
            "durationTicks": 96,
            "midi": 36,
            "name": "C2",
            "ticks": 118176,
            "time": 163.40694075000002,
            "velocity": 0.44881889763779526
          },
          {
            "duration": 0.1327432499999759,
            "durationTicks": 96,
            "midi": 34,
            "name": "A#1",
            "ticks": 118272,
            "time": 163.53968400000002,
            "velocity": 0.44881889763779526
          },
          {
            "duration": 0.1327432500000043,
            "durationTicks": 96,
            "midi": 32,
            "name": "G#1",
            "ticks": 118464,
            "time": 163.8051705,
            "velocity": 0.44881889763779526
          },
          {
            "duration": 0.1327432500000043,
            "durationTicks": 96,
            "midi": 32,
            "name": "G#1",
            "ticks": 118656,
            "time": 164.070657,
            "velocity": 0.44881889763779526
          },
          {
            "duration": 0.1327432500000043,
            "durationTicks": 96,
            "midi": 27,
            "name": "D#1",
            "ticks": 119040,
            "time": 164.60163,
            "velocity": 0.44881889763779526
          },
          {
            "duration": 0.1327432500000043,
            "durationTicks": 96,
            "midi": 32,
            "name": "G#1",
            "ticks": 119136,
            "time": 164.73437325,
            "velocity": 0.44881889763779526
          },
          {
            "duration": 0.1327432500000043,
            "durationTicks": 96,
            "midi": 29,
            "name": "F1",
            "ticks": 119232,
            "time": 164.8671165,
            "velocity": 0.44881889763779526
          },
          {
            "duration": 0.1327432500000043,
            "durationTicks": 96,
            "midi": 29,
            "name": "F1",
            "ticks": 119424,
            "time": 165.13260300000002,
            "velocity": 0.44881889763779526
          },
          {
            "duration": 0.1327432499999759,
            "durationTicks": 96,
            "midi": 29,
            "name": "F1",
            "ticks": 119520,
            "time": 165.26534625000002,
            "velocity": 0.44881889763779526
          },
          {
            "duration": 0.1327432500000043,
            "durationTicks": 96,
            "midi": 36,
            "name": "C2",
            "ticks": 119712,
            "time": 165.53083275,
            "velocity": 0.44881889763779526
          },
          {
            "duration": 0.1327432500000043,
            "durationTicks": 96,
            "midi": 34,
            "name": "A#1",
            "ticks": 119808,
            "time": 165.663576,
            "velocity": 0.44881889763779526
          },
          {
            "duration": 0.1327432500000043,
            "durationTicks": 96,
            "midi": 34,
            "name": "A#1",
            "ticks": 120192,
            "time": 166.194549,
            "velocity": 0.44881889763779526
          },
          {
            "duration": 0.1327432500000043,
            "durationTicks": 96,
            "midi": 34,
            "name": "A#1",
            "ticks": 120288,
            "time": 166.32729225,
            "velocity": 0.44881889763779526
          },
          {
            "duration": 0.1327432500000043,
            "durationTicks": 96,
            "midi": 36,
            "name": "C2",
            "ticks": 120480,
            "time": 166.59277875,
            "velocity": 0.44881889763779526
          },
          {
            "duration": 0.1327432500000043,
            "durationTicks": 96,
            "midi": 34,
            "name": "A#1",
            "ticks": 120672,
            "time": 166.85826525000002,
            "velocity": 0.44881889763779526
          },
          {
            "duration": 0.1327432499999759,
            "durationTicks": 96,
            "midi": 27,
            "name": "D#1",
            "ticks": 120768,
            "time": 166.99100850000002,
            "velocity": 0.44881889763779526
          },
          {
            "duration": 0.1327432500000043,
            "durationTicks": 96,
            "midi": 27,
            "name": "D#1",
            "ticks": 120960,
            "time": 167.256495,
            "velocity": 0.44881889763779526
          },
          {
            "duration": 0.1327432500000043,
            "durationTicks": 96,
            "midi": 27,
            "name": "D#1",
            "ticks": 121056,
            "time": 167.38923825,
            "velocity": 0.44881889763779526
          },
          {
            "duration": 0.1327432500000043,
            "durationTicks": 96,
            "midi": 36,
            "name": "C2",
            "ticks": 121248,
            "time": 167.65472475,
            "velocity": 0.44881889763779526
          },
          {
            "duration": 0.1327432500000043,
            "durationTicks": 96,
            "midi": 34,
            "name": "A#1",
            "ticks": 121344,
            "time": 167.78746800000002,
            "velocity": 0.44881889763779526
          },
          {
            "duration": 0.1327432500000043,
            "durationTicks": 96,
            "midi": 32,
            "name": "G#1",
            "ticks": 121536,
            "time": 168.0529545,
            "velocity": 0.44881889763779526
          },
          {
            "duration": 0.1327432500000043,
            "durationTicks": 96,
            "midi": 32,
            "name": "G#1",
            "ticks": 121728,
            "time": 168.318441,
            "velocity": 0.44881889763779526
          },
          {
            "duration": 0.1327432500000043,
            "durationTicks": 96,
            "midi": 32,
            "name": "G#1",
            "ticks": 122112,
            "time": 168.849414,
            "velocity": 0.44881889763779526
          },
          {
            "duration": 0.1327432500000043,
            "durationTicks": 96,
            "midi": 32,
            "name": "G#1",
            "ticks": 122208,
            "time": 168.98215725,
            "velocity": 0.44881889763779526
          },
          {
            "duration": 0.1327432500000043,
            "durationTicks": 96,
            "midi": 29,
            "name": "F1",
            "ticks": 122304,
            "time": 169.1149005,
            "velocity": 0.44881889763779526
          },
          {
            "duration": 0.1327432500000043,
            "durationTicks": 96,
            "midi": 29,
            "name": "F1",
            "ticks": 122496,
            "time": 169.380387,
            "velocity": 0.44881889763779526
          },
          {
            "duration": 0.1327432500000043,
            "durationTicks": 96,
            "midi": 29,
            "name": "F1",
            "ticks": 122592,
            "time": 169.51313025000002,
            "velocity": 0.44881889763779526
          },
          {
            "duration": 0.1327432500000043,
            "durationTicks": 96,
            "midi": 36,
            "name": "C2",
            "ticks": 122784,
            "time": 169.77861675,
            "velocity": 0.44881889763779526
          },
          {
            "duration": 0.1327432500000043,
            "durationTicks": 96,
            "midi": 34,
            "name": "A#1",
            "ticks": 122880,
            "time": 169.91136,
            "velocity": 0.44881889763779526
          },
          {
            "duration": 0.1327432499999759,
            "durationTicks": 96,
            "midi": 32,
            "name": "G#1",
            "ticks": 123264,
            "time": 170.44233300000002,
            "velocity": 0.44881889763779526
          },
          {
            "duration": 0.1327432500000043,
            "durationTicks": 96,
            "midi": 34,
            "name": "A#1",
            "ticks": 123456,
            "time": 170.7078195,
            "velocity": 0.44881889763779526
          },
          {
            "duration": 0.1327432500000043,
            "durationTicks": 96,
            "midi": 32,
            "name": "G#1",
            "ticks": 123552,
            "time": 170.84056275,
            "velocity": 0.44881889763779526
          },
          {
            "duration": 0.1327432500000043,
            "durationTicks": 96,
            "midi": 37,
            "name": "C#2",
            "ticks": 123744,
            "time": 171.10604925,
            "velocity": 0.44881889763779526
          },
          {
            "duration": 0.1327432500000043,
            "durationTicks": 96,
            "midi": 27,
            "name": "D#1",
            "ticks": 123840,
            "time": 171.23879250000002,
            "velocity": 0.44881889763779526
          },
          {
            "duration": 0.1327432500000043,
            "durationTicks": 96,
            "midi": 27,
            "name": "D#1",
            "ticks": 124032,
            "time": 171.504279,
            "velocity": 0.44881889763779526
          },
          {
            "duration": 0.1327432500000043,
            "durationTicks": 96,
            "midi": 27,
            "name": "D#1",
            "ticks": 124128,
            "time": 171.63702225,
            "velocity": 0.44881889763779526
          },
          {
            "duration": 0.1327432500000043,
            "durationTicks": 96,
            "midi": 36,
            "name": "C2",
            "ticks": 124320,
            "time": 171.90250875,
            "velocity": 0.44881889763779526
          },
          {
            "duration": 0.1327432500000043,
            "durationTicks": 96,
            "midi": 34,
            "name": "A#1",
            "ticks": 124416,
            "time": 172.035252,
            "velocity": 0.44881889763779526
          },
          {
            "duration": 0.1327432499999759,
            "durationTicks": 96,
            "midi": 32,
            "name": "G#1",
            "ticks": 124608,
            "time": 172.30073850000002,
            "velocity": 0.44881889763779526
          },
          {
            "duration": 0.1327432500000043,
            "durationTicks": 96,
            "midi": 32,
            "name": "G#1",
            "ticks": 124800,
            "time": 172.566225,
            "velocity": 0.44881889763779526
          },
          {
            "duration": 0.1327432499999759,
            "durationTicks": 96,
            "midi": 27,
            "name": "D#1",
            "ticks": 125184,
            "time": 173.09719800000002,
            "velocity": 0.44881889763779526
          },
          {
            "duration": 0.1327432500000043,
            "durationTicks": 96,
            "midi": 32,
            "name": "G#1",
            "ticks": 125280,
            "time": 173.22994125,
            "velocity": 0.44881889763779526
          },
          {
            "duration": 0.1327432500000043,
            "durationTicks": 96,
            "midi": 29,
            "name": "F1",
            "ticks": 125376,
            "time": 173.3626845,
            "velocity": 0.44881889763779526
          },
          {
            "duration": 0.1327432500000043,
            "durationTicks": 96,
            "midi": 29,
            "name": "F1",
            "ticks": 125568,
            "time": 173.628171,
            "velocity": 0.44881889763779526
          },
          {
            "duration": 0.1327432500000043,
            "durationTicks": 96,
            "midi": 29,
            "name": "F1",
            "ticks": 125664,
            "time": 173.76091425,
            "velocity": 0.44881889763779526
          },
          {
            "duration": 0.1327432499999759,
            "durationTicks": 96,
            "midi": 36,
            "name": "C2",
            "ticks": 125856,
            "time": 174.02640075000002,
            "velocity": 0.44881889763779526
          },
          {
            "duration": 0.1327432500000043,
            "durationTicks": 96,
            "midi": 34,
            "name": "A#1",
            "ticks": 125952,
            "time": 174.159144,
            "velocity": 0.44881889763779526
          },
          {
            "duration": 0.1327432500000043,
            "durationTicks": 96,
            "midi": 34,
            "name": "A#1",
            "ticks": 126336,
            "time": 174.69011700000001,
            "velocity": 0.44881889763779526
          },
          {
            "duration": 0.1327432499999759,
            "durationTicks": 96,
            "midi": 34,
            "name": "A#1",
            "ticks": 126432,
            "time": 174.82286025000002,
            "velocity": 0.44881889763779526
          },
          {
            "duration": 0.1327432500000043,
            "durationTicks": 96,
            "midi": 36,
            "name": "C2",
            "ticks": 126624,
            "time": 175.08834675,
            "velocity": 0.44881889763779526
          },
          {
            "duration": 0.1327432500000043,
            "durationTicks": 96,
            "midi": 34,
            "name": "A#1",
            "ticks": 126816,
            "time": 175.35383325,
            "velocity": 0.44881889763779526
          },
          {
            "duration": 0.1327432500000043,
            "durationTicks": 96,
            "midi": 27,
            "name": "D#1",
            "ticks": 126912,
            "time": 175.4865765,
            "velocity": 0.44881889763779526
          },
          {
            "duration": 0.1327432499999759,
            "durationTicks": 96,
            "midi": 27,
            "name": "D#1",
            "ticks": 127104,
            "time": 175.75206300000002,
            "velocity": 0.44881889763779526
          },
          {
            "duration": 0.1327432500000043,
            "durationTicks": 96,
            "midi": 27,
            "name": "D#1",
            "ticks": 127200,
            "time": 175.88480625,
            "velocity": 0.44881889763779526
          },
          {
            "duration": 0.1327432500000043,
            "durationTicks": 96,
            "midi": 36,
            "name": "C2",
            "ticks": 127392,
            "time": 176.15029275,
            "velocity": 0.44881889763779526
          },
          {
            "duration": 0.1327432500000043,
            "durationTicks": 96,
            "midi": 34,
            "name": "A#1",
            "ticks": 127488,
            "time": 176.283036,
            "velocity": 0.44881889763779526
          },
          {
            "duration": 0.1327432500000043,
            "durationTicks": 96,
            "midi": 32,
            "name": "G#1",
            "ticks": 127680,
            "time": 176.54852250000002,
            "velocity": 0.44881889763779526
          },
          {
            "duration": 0.1327432500000043,
            "durationTicks": 96,
            "midi": 32,
            "name": "G#1",
            "ticks": 127872,
            "time": 176.814009,
            "velocity": 0.44881889763779526
          },
          {
            "duration": 0.1327432500000043,
            "durationTicks": 96,
            "midi": 32,
            "name": "G#1",
            "ticks": 128256,
            "time": 177.34498200000002,
            "velocity": 0.44881889763779526
          },
          {
            "duration": 0.1327432499999759,
            "durationTicks": 96,
            "midi": 32,
            "name": "G#1",
            "ticks": 128352,
            "time": 177.47772525000002,
            "velocity": 0.44881889763779526
          },
          {
            "duration": 0.1327432500000043,
            "durationTicks": 96,
            "midi": 29,
            "name": "F1",
            "ticks": 128448,
            "time": 177.6104685,
            "velocity": 0.44881889763779526
          },
          {
            "duration": 0.1327432500000043,
            "durationTicks": 96,
            "midi": 29,
            "name": "F1",
            "ticks": 128640,
            "time": 177.875955,
            "velocity": 0.44881889763779526
          },
          {
            "duration": 0.1327432500000043,
            "durationTicks": 96,
            "midi": 29,
            "name": "F1",
            "ticks": 128736,
            "time": 178.00869825,
            "velocity": 0.44881889763779526
          },
          {
            "duration": 0.1327432500000043,
            "durationTicks": 96,
            "midi": 36,
            "name": "C2",
            "ticks": 128928,
            "time": 178.27418475000002,
            "velocity": 0.44881889763779526
          },
          {
            "duration": 0.1327432499999759,
            "durationTicks": 96,
            "midi": 34,
            "name": "A#1",
            "ticks": 129024,
            "time": 178.40692800000002,
            "velocity": 0.44881889763779526
          },
          {
            "duration": 0.1327432500000043,
            "durationTicks": 96,
            "midi": 32,
            "name": "G#1",
            "ticks": 129408,
            "time": 178.937901,
            "velocity": 0.44881889763779526
          },
          {
            "duration": 0.1327432500000043,
            "durationTicks": 96,
            "midi": 34,
            "name": "A#1",
            "ticks": 129600,
            "time": 179.20338750000002,
            "velocity": 0.44881889763779526
          },
          {
            "duration": 0.1327432499999759,
            "durationTicks": 96,
            "midi": 32,
            "name": "G#1",
            "ticks": 129696,
            "time": 179.33613075000002,
            "velocity": 0.44881889763779526
          },
          {
            "duration": 0.1327432500000043,
            "durationTicks": 96,
            "midi": 37,
            "name": "C#2",
            "ticks": 129888,
            "time": 179.60161725,
            "velocity": 0.44881889763779526
          },
          {
            "duration": 0.1327432500000043,
            "durationTicks": 96,
            "midi": 27,
            "name": "D#1",
            "ticks": 129984,
            "time": 179.7343605,
            "velocity": 0.44881889763779526
          },
          {
            "duration": 0.1327432500000043,
            "durationTicks": 96,
            "midi": 27,
            "name": "D#1",
            "ticks": 130176,
            "time": 179.99984700000002,
            "velocity": 0.44881889763779526
          },
          {
            "duration": 0.1327432499999759,
            "durationTicks": 96,
            "midi": 27,
            "name": "D#1",
            "ticks": 130272,
            "time": 180.13259025000002,
            "velocity": 0.44881889763779526
          },
          {
            "duration": 0.1327432500000043,
            "durationTicks": 96,
            "midi": 36,
            "name": "C2",
            "ticks": 130464,
            "time": 180.39807675,
            "velocity": 0.44881889763779526
          },
          {
            "duration": 0.1327432500000043,
            "durationTicks": 96,
            "midi": 34,
            "name": "A#1",
            "ticks": 130560,
            "time": 180.53082,
            "velocity": 0.44881889763779526
          },
          {
            "duration": 0.1327432500000043,
            "durationTicks": 96,
            "midi": 32,
            "name": "G#1",
            "ticks": 130752,
            "time": 180.79630650000001,
            "velocity": 0.44881889763779526
          },
          {
            "duration": 0.1327432499999759,
            "durationTicks": 96,
            "midi": 32,
            "name": "G#1",
            "ticks": 130944,
            "time": 181.06179300000002,
            "velocity": 0.44881889763779526
          },
          {
            "duration": 0.1327432500000043,
            "durationTicks": 96,
            "midi": 27,
            "name": "D#1",
            "ticks": 131328,
            "time": 181.592766,
            "velocity": 0.44881889763779526
          },
          {
            "duration": 0.1327432500000043,
            "durationTicks": 96,
            "midi": 32,
            "name": "G#1",
            "ticks": 131424,
            "time": 181.72550925000002,
            "velocity": 0.44881889763779526
          },
          {
            "duration": 0.1327432499999759,
            "durationTicks": 96,
            "midi": 29,
            "name": "F1",
            "ticks": 131520,
            "time": 181.85825250000002,
            "velocity": 0.44881889763779526
          },
          {
            "duration": 0.1327432500000043,
            "durationTicks": 96,
            "midi": 29,
            "name": "F1",
            "ticks": 131712,
            "time": 182.123739,
            "velocity": 0.44881889763779526
          },
          {
            "duration": 0.1327432500000043,
            "durationTicks": 96,
            "midi": 29,
            "name": "F1",
            "ticks": 131808,
            "time": 182.25648225,
            "velocity": 0.44881889763779526
          },
          {
            "duration": 0.1327432500000043,
            "durationTicks": 96,
            "midi": 36,
            "name": "C2",
            "ticks": 132000,
            "time": 182.52196875,
            "velocity": 0.44881889763779526
          },
          {
            "duration": 0.1327432500000043,
            "durationTicks": 96,
            "midi": 34,
            "name": "A#1",
            "ticks": 132096,
            "time": 182.65471200000002,
            "velocity": 0.44881889763779526
          },
          {
            "duration": 0.1327432500000043,
            "durationTicks": 96,
            "midi": 34,
            "name": "A#1",
            "ticks": 132480,
            "time": 183.185685,
            "velocity": 0.44881889763779526
          },
          {
            "duration": 0.1327432500000043,
            "durationTicks": 96,
            "midi": 34,
            "name": "A#1",
            "ticks": 132576,
            "time": 183.31842825,
            "velocity": 0.44881889763779526
          },
          {
            "duration": 0.1327432500000043,
            "durationTicks": 96,
            "midi": 36,
            "name": "C2",
            "ticks": 132768,
            "time": 183.58391475000002,
            "velocity": 0.44881889763779526
          },
          {
            "duration": 0.1327432500000043,
            "durationTicks": 96,
            "midi": 34,
            "name": "A#1",
            "ticks": 132960,
            "time": 183.84940125,
            "velocity": 0.44881889763779526
          },
          {
            "duration": 0.1327432500000043,
            "durationTicks": 96,
            "midi": 27,
            "name": "D#1",
            "ticks": 133056,
            "time": 183.9821445,
            "velocity": 0.44881889763779526
          },
          {
            "duration": 0.1327432500000043,
            "durationTicks": 96,
            "midi": 27,
            "name": "D#1",
            "ticks": 133248,
            "time": 184.247631,
            "velocity": 0.44881889763779526
          },
          {
            "duration": 0.1327432500000043,
            "durationTicks": 96,
            "midi": 27,
            "name": "D#1",
            "ticks": 133344,
            "time": 184.38037425000002,
            "velocity": 0.44881889763779526
          },
          {
            "duration": 0.1327432500000043,
            "durationTicks": 96,
            "midi": 36,
            "name": "C2",
            "ticks": 133536,
            "time": 184.64586075,
            "velocity": 0.44881889763779526
          },
          {
            "duration": 0.1327432500000043,
            "durationTicks": 96,
            "midi": 34,
            "name": "A#1",
            "ticks": 133632,
            "time": 184.778604,
            "velocity": 0.44881889763779526
          },
          {
            "duration": 0.1327432500000043,
            "durationTicks": 96,
            "midi": 32,
            "name": "G#1",
            "ticks": 133824,
            "time": 185.0440905,
            "velocity": 0.44881889763779526
          },
          {
            "duration": 0.1327432500000043,
            "durationTicks": 96,
            "midi": 32,
            "name": "G#1",
            "ticks": 134016,
            "time": 185.30957700000002,
            "velocity": 0.44881889763779526
          },
          {
            "duration": 0.1327432500000043,
            "durationTicks": 96,
            "midi": 32,
            "name": "G#1",
            "ticks": 134400,
            "time": 185.84055,
            "velocity": 0.44881889763779526
          },
          {
            "duration": 0.1327432500000043,
            "durationTicks": 96,
            "midi": 32,
            "name": "G#1",
            "ticks": 134496,
            "time": 185.97329325,
            "velocity": 0.44881889763779526
          },
          {
            "duration": 0.1327432500000043,
            "durationTicks": 96,
            "midi": 29,
            "name": "F1",
            "ticks": 134592,
            "time": 186.10603650000002,
            "velocity": 0.44881889763779526
          },
          {
            "duration": 0.1327432500000043,
            "durationTicks": 96,
            "midi": 29,
            "name": "F1",
            "ticks": 134784,
            "time": 186.371523,
            "velocity": 0.44881889763779526
          },
          {
            "duration": 0.1327432500000043,
            "durationTicks": 96,
            "midi": 29,
            "name": "F1",
            "ticks": 134880,
            "time": 186.50426625,
            "velocity": 0.44881889763779526
          },
          {
            "duration": 0.1327432500000043,
            "durationTicks": 96,
            "midi": 36,
            "name": "C2",
            "ticks": 135072,
            "time": 186.76975275,
            "velocity": 0.44881889763779526
          },
          {
            "duration": 0.1327432500000043,
            "durationTicks": 96,
            "midi": 34,
            "name": "A#1",
            "ticks": 135168,
            "time": 186.902496,
            "velocity": 0.44881889763779526
          },
          {
            "duration": 0.1327432500000043,
            "durationTicks": 96,
            "midi": 32,
            "name": "G#1",
            "ticks": 135552,
            "time": 187.433469,
            "velocity": 0.44881889763779526
          },
          {
            "duration": 0.1327432500000043,
            "durationTicks": 96,
            "midi": 34,
            "name": "A#1",
            "ticks": 135744,
            "time": 187.6989555,
            "velocity": 0.44881889763779526
          },
          {
            "duration": 0.1327432500000043,
            "durationTicks": 96,
            "midi": 32,
            "name": "G#1",
            "ticks": 135840,
            "time": 187.83169875000002,
            "velocity": 0.44881889763779526
          },
          {
            "duration": 0.1327432499999759,
            "durationTicks": 96,
            "midi": 37,
            "name": "C#2",
            "ticks": 136032,
            "time": 188.09718525000002,
            "velocity": 0.44881889763779526
          },
          {
            "duration": 0.1327432500000043,
            "durationTicks": 96,
            "midi": 27,
            "name": "D#1",
            "ticks": 136128,
            "time": 188.2299285,
            "velocity": 0.44881889763779526
          },
          {
            "duration": 0.1327432500000043,
            "durationTicks": 96,
            "midi": 27,
            "name": "D#1",
            "ticks": 136320,
            "time": 188.495415,
            "velocity": 0.44881889763779526
          },
          {
            "duration": 0.1327432500000043,
            "durationTicks": 96,
            "midi": 27,
            "name": "D#1",
            "ticks": 136416,
            "time": 188.62815825,
            "velocity": 0.44881889763779526
          },
          {
            "duration": 0.1327432499999759,
            "durationTicks": 96,
            "midi": 36,
            "name": "C2",
            "ticks": 136608,
            "time": 188.89364475000002,
            "velocity": 0.44881889763779526
          },
          {
            "duration": 0.1327432500000043,
            "durationTicks": 96,
            "midi": 34,
            "name": "A#1",
            "ticks": 136704,
            "time": 189.026388,
            "velocity": 0.44881889763779526
          },
          {
            "duration": 0.1327432500000043,
            "durationTicks": 96,
            "midi": 32,
            "name": "G#1",
            "ticks": 136896,
            "time": 189.2918745,
            "velocity": 0.44881889763779526
          },
          {
            "duration": 0.1327432500000043,
            "durationTicks": 96,
            "midi": 32,
            "name": "G#1",
            "ticks": 137088,
            "time": 189.55736100000001,
            "velocity": 0.44881889763779526
          },
          {
            "duration": 0.1327432500000043,
            "durationTicks": 96,
            "midi": 27,
            "name": "D#1",
            "ticks": 137472,
            "time": 190.088334,
            "velocity": 0.44881889763779526
          },
          {
            "duration": 0.1327432500000043,
            "durationTicks": 96,
            "midi": 32,
            "name": "G#1",
            "ticks": 137568,
            "time": 190.22107725,
            "velocity": 0.44881889763779526
          },
          {
            "duration": 0.1327432500000043,
            "durationTicks": 96,
            "midi": 29,
            "name": "F1",
            "ticks": 137664,
            "time": 190.3538205,
            "velocity": 0.44881889763779526
          },
          {
            "duration": 0.1327432499999759,
            "durationTicks": 96,
            "midi": 29,
            "name": "F1",
            "ticks": 137856,
            "time": 190.61930700000002,
            "velocity": 0.44881889763779526
          },
          {
            "duration": 0.1327432500000043,
            "durationTicks": 96,
            "midi": 29,
            "name": "F1",
            "ticks": 137952,
            "time": 190.75205025,
            "velocity": 0.44881889763779526
          },
          {
            "duration": 0.1327432500000043,
            "durationTicks": 96,
            "midi": 36,
            "name": "C2",
            "ticks": 138144,
            "time": 191.01753675,
            "velocity": 0.44881889763779526
          },
          {
            "duration": 0.1327432500000043,
            "durationTicks": 96,
            "midi": 34,
            "name": "A#1",
            "ticks": 138240,
            "time": 191.15028,
            "velocity": 0.44881889763779526
          },
          {
            "duration": 0.1327432500000043,
            "durationTicks": 96,
            "midi": 34,
            "name": "A#1",
            "ticks": 138624,
            "time": 191.681253,
            "velocity": 0.44881889763779526
          },
          {
            "duration": 0.1327432500000043,
            "durationTicks": 96,
            "midi": 34,
            "name": "A#1",
            "ticks": 138720,
            "time": 191.81399625,
            "velocity": 0.44881889763779526
          },
          {
            "duration": 0.1327432500000043,
            "durationTicks": 96,
            "midi": 36,
            "name": "C2",
            "ticks": 138912,
            "time": 192.07948275,
            "velocity": 0.44881889763779526
          },
          {
            "duration": 0.1327432500000043,
            "durationTicks": 96,
            "midi": 34,
            "name": "A#1",
            "ticks": 139104,
            "time": 192.34496925000002,
            "velocity": 0.44881889763779526
          },
          {
            "duration": 0.1327432499999759,
            "durationTicks": 96,
            "midi": 27,
            "name": "D#1",
            "ticks": 139200,
            "time": 192.47771250000002,
            "velocity": 0.44881889763779526
          },
          {
            "duration": 0.1327432500000043,
            "durationTicks": 96,
            "midi": 27,
            "name": "D#1",
            "ticks": 139392,
            "time": 192.743199,
            "velocity": 0.44881889763779526
          },
          {
            "duration": 0.1327432500000043,
            "durationTicks": 96,
            "midi": 27,
            "name": "D#1",
            "ticks": 139488,
            "time": 192.87594225,
            "velocity": 0.44881889763779526
          },
          {
            "duration": 0.1327432500000043,
            "durationTicks": 96,
            "midi": 36,
            "name": "C2",
            "ticks": 139680,
            "time": 193.14142875000002,
            "velocity": 0.44881889763779526
          },
          {
            "duration": 0.1327432499999759,
            "durationTicks": 96,
            "midi": 34,
            "name": "A#1",
            "ticks": 139776,
            "time": 193.27417200000002,
            "velocity": 0.44881889763779526
          },
          {
            "duration": 0.1327432500000043,
            "durationTicks": 96,
            "midi": 32,
            "name": "G#1",
            "ticks": 139968,
            "time": 193.5396585,
            "velocity": 0.44881889763779526
          },
          {
            "duration": 0.1327432500000043,
            "durationTicks": 96,
            "midi": 32,
            "name": "G#1",
            "ticks": 140160,
            "time": 193.805145,
            "velocity": 0.44881889763779526
          },
          {
            "duration": 0.1327432500000043,
            "durationTicks": 96,
            "midi": 32,
            "name": "G#1",
            "ticks": 140544,
            "time": 194.336118,
            "velocity": 0.44881889763779526
          },
          {
            "duration": 0.1327432500000043,
            "durationTicks": 96,
            "midi": 32,
            "name": "G#1",
            "ticks": 140640,
            "time": 194.46886125,
            "velocity": 0.44881889763779526
          },
          {
            "duration": 0.1327432500000043,
            "durationTicks": 96,
            "midi": 29,
            "name": "F1",
            "ticks": 140736,
            "time": 194.6016045,
            "velocity": 0.44881889763779526
          },
          {
            "duration": 0.1327432500000043,
            "durationTicks": 96,
            "midi": 29,
            "name": "F1",
            "ticks": 140928,
            "time": 194.86709100000002,
            "velocity": 0.44881889763779526
          },
          {
            "duration": 0.1327432499999759,
            "durationTicks": 96,
            "midi": 29,
            "name": "F1",
            "ticks": 141024,
            "time": 194.99983425000002,
            "velocity": 0.44881889763779526
          },
          {
            "duration": 0.1327432500000043,
            "durationTicks": 96,
            "midi": 36,
            "name": "C2",
            "ticks": 141216,
            "time": 195.26532075,
            "velocity": 0.44881889763779526
          },
          {
            "duration": 0.1327432500000043,
            "durationTicks": 96,
            "midi": 34,
            "name": "A#1",
            "ticks": 141312,
            "time": 195.398064,
            "velocity": 0.44881889763779526
          },
          {
            "duration": 0.1327432499999759,
            "durationTicks": 96,
            "midi": 32,
            "name": "G#1",
            "ticks": 141696,
            "time": 195.92903700000002,
            "velocity": 0.44881889763779526
          },
          {
            "duration": 0.1327432500000043,
            "durationTicks": 96,
            "midi": 34,
            "name": "A#1",
            "ticks": 141888,
            "time": 196.1945235,
            "velocity": 0.44881889763779526
          },
          {
            "duration": 0.1327432500000043,
            "durationTicks": 96,
            "midi": 32,
            "name": "G#1",
            "ticks": 141984,
            "time": 196.32726675,
            "velocity": 0.44881889763779526
          },
          {
            "duration": 0.1327432500000043,
            "durationTicks": 96,
            "midi": 37,
            "name": "C#2",
            "ticks": 142176,
            "time": 196.59275325000002,
            "velocity": 0.44881889763779526
          },
          {
            "duration": 0.1327432500000043,
            "durationTicks": 96,
            "midi": 27,
            "name": "D#1",
            "ticks": 142272,
            "time": 196.72549650000002,
            "velocity": 0.44881889763779526
          },
          {
            "duration": 0.1327432500000043,
            "durationTicks": 96,
            "midi": 27,
            "name": "D#1",
            "ticks": 142464,
            "time": 196.990983,
            "velocity": 0.44881889763779526
          },
          {
            "duration": 0.1327432500000043,
            "durationTicks": 96,
            "midi": 27,
            "name": "D#1",
            "ticks": 142560,
            "time": 197.12372625,
            "velocity": 0.44881889763779526
          },
          {
            "duration": 0.1327432500000043,
            "durationTicks": 96,
            "midi": 36,
            "name": "C2",
            "ticks": 142752,
            "time": 197.38921275,
            "velocity": 0.44881889763779526
          },
          {
            "duration": 0.1327432500000043,
            "durationTicks": 96,
            "midi": 34,
            "name": "A#1",
            "ticks": 142848,
            "time": 197.52195600000002,
            "velocity": 0.44881889763779526
          },
          {
            "duration": 0.1327432500000043,
            "durationTicks": 96,
            "midi": 32,
            "name": "G#1",
            "ticks": 143040,
            "time": 197.7874425,
            "velocity": 0.44881889763779526
          },
          {
            "duration": 0.1327432500000043,
            "durationTicks": 96,
            "midi": 32,
            "name": "G#1",
            "ticks": 143232,
            "time": 198.052929,
            "velocity": 0.44881889763779526
          },
          {
            "duration": 0.1327432499999759,
            "durationTicks": 96,
            "midi": 27,
            "name": "D#1",
            "ticks": 143616,
            "time": 198.58390200000002,
            "velocity": 0.44881889763779526
          },
          {
            "duration": 0.1327432500000043,
            "durationTicks": 96,
            "midi": 32,
            "name": "G#1",
            "ticks": 143712,
            "time": 198.71664525,
            "velocity": 0.44881889763779526
          },
          {
            "duration": 0.1327432500000043,
            "durationTicks": 96,
            "midi": 29,
            "name": "F1",
            "ticks": 143808,
            "time": 198.8493885,
            "velocity": 0.44881889763779526
          },
          {
            "duration": 0.1327432500000043,
            "durationTicks": 96,
            "midi": 29,
            "name": "F1",
            "ticks": 144000,
            "time": 199.114875,
            "velocity": 0.44881889763779526
          },
          {
            "duration": 0.1327432500000043,
            "durationTicks": 96,
            "midi": 29,
            "name": "F1",
            "ticks": 144096,
            "time": 199.24761825000002,
            "velocity": 0.44881889763779526
          },
          {
            "duration": 0.1327432500000043,
            "durationTicks": 96,
            "midi": 36,
            "name": "C2",
            "ticks": 144288,
            "time": 199.51310475,
            "velocity": 0.44881889763779526
          },
          {
            "duration": 0.1327432500000043,
            "durationTicks": 96,
            "midi": 34,
            "name": "A#1",
            "ticks": 144384,
            "time": 199.645848,
            "velocity": 0.44881889763779526
          },
          {
            "duration": 0.1327432500000043,
            "durationTicks": 96,
            "midi": 34,
            "name": "A#1",
            "ticks": 144768,
            "time": 200.17682100000002,
            "velocity": 0.44881889763779526
          },
          {
            "duration": 0.1327432499999759,
            "durationTicks": 96,
            "midi": 34,
            "name": "A#1",
            "ticks": 144864,
            "time": 200.30956425000002,
            "velocity": 0.44881889763779526
          },
          {
            "duration": 0.1327432500000043,
            "durationTicks": 96,
            "midi": 36,
            "name": "C2",
            "ticks": 145056,
            "time": 200.57505075,
            "velocity": 0.44881889763779526
          },
          {
            "duration": 0.1327432500000043,
            "durationTicks": 96,
            "midi": 34,
            "name": "A#1",
            "ticks": 145248,
            "time": 200.84053725,
            "velocity": 0.44881889763779526
          },
          {
            "duration": 0.1327432500000043,
            "durationTicks": 96,
            "midi": 27,
            "name": "D#1",
            "ticks": 145344,
            "time": 200.97328050000002,
            "velocity": 0.44881889763779526
          },
          {
            "duration": 0.1327432499999759,
            "durationTicks": 96,
            "midi": 27,
            "name": "D#1",
            "ticks": 145536,
            "time": 201.23876700000002,
            "velocity": 0.44881889763779526
          },
          {
            "duration": 0.1327432500000043,
            "durationTicks": 96,
            "midi": 27,
            "name": "D#1",
            "ticks": 145632,
            "time": 201.37151025,
            "velocity": 0.44881889763779526
          },
          {
            "duration": 0.1327432500000043,
            "durationTicks": 96,
            "midi": 36,
            "name": "C2",
            "ticks": 145824,
            "time": 201.63699675,
            "velocity": 0.44881889763779526
          },
          {
            "duration": 0.1327432500000043,
            "durationTicks": 96,
            "midi": 34,
            "name": "A#1",
            "ticks": 145920,
            "time": 201.76974,
            "velocity": 0.44881889763779526
          },
          {
            "duration": 0.1327432499999759,
            "durationTicks": 96,
            "midi": 32,
            "name": "G#1",
            "ticks": 146112,
            "time": 202.03522650000002,
            "velocity": 0.44881889763779526
          },
          {
            "duration": 0.1327432500000043,
            "durationTicks": 96,
            "midi": 32,
            "name": "G#1",
            "ticks": 146304,
            "time": 202.300713,
            "velocity": 0.44881889763779526
          },
          {
            "duration": 0.1327432500000043,
            "durationTicks": 96,
            "midi": 32,
            "name": "G#1",
            "ticks": 146688,
            "time": 202.83168600000002,
            "velocity": 0.44881889763779526
          },
          {
            "duration": 0.1327432499999759,
            "durationTicks": 96,
            "midi": 32,
            "name": "G#1",
            "ticks": 146784,
            "time": 202.96442925000002,
            "velocity": 0.44881889763779526
          },
          {
            "duration": 0.1327432500000043,
            "durationTicks": 96,
            "midi": 29,
            "name": "F1",
            "ticks": 146880,
            "time": 203.0971725,
            "velocity": 0.44881889763779526
          },
          {
            "duration": 0.1327432500000043,
            "durationTicks": 96,
            "midi": 29,
            "name": "F1",
            "ticks": 147072,
            "time": 203.362659,
            "velocity": 0.44881889763779526
          },
          {
            "duration": 0.1327432500000043,
            "durationTicks": 96,
            "midi": 29,
            "name": "F1",
            "ticks": 147168,
            "time": 203.49540225,
            "velocity": 0.44881889763779526
          },
          {
            "duration": 0.1327432500000043,
            "durationTicks": 96,
            "midi": 36,
            "name": "C2",
            "ticks": 147360,
            "time": 203.76088875000002,
            "velocity": 0.44881889763779526
          },
          {
            "duration": 0.1327432499999759,
            "durationTicks": 96,
            "midi": 34,
            "name": "A#1",
            "ticks": 147456,
            "time": 203.89363200000003,
            "velocity": 0.44881889763779526
          },
          {
            "duration": 0.1327432500000043,
            "durationTicks": 96,
            "midi": 32,
            "name": "G#1",
            "ticks": 147840,
            "time": 204.424605,
            "velocity": 0.44881889763779526
          },
          {
            "duration": 0.1327432499999759,
            "durationTicks": 96,
            "midi": 34,
            "name": "A#1",
            "ticks": 148032,
            "time": 204.69009150000002,
            "velocity": 0.44881889763779526
          },
          {
            "duration": 0.1327432500000043,
            "durationTicks": 96,
            "midi": 32,
            "name": "G#1",
            "ticks": 148128,
            "time": 204.82283475,
            "velocity": 0.44881889763779526
          },
          {
            "duration": 0.1327432500000043,
            "durationTicks": 96,
            "midi": 37,
            "name": "C#2",
            "ticks": 148320,
            "time": 205.08832125,
            "velocity": 0.44881889763779526
          },
          {
            "duration": 0.1327432500000043,
            "durationTicks": 96,
            "midi": 27,
            "name": "D#1",
            "ticks": 148416,
            "time": 205.2210645,
            "velocity": 0.44881889763779526
          },
          {
            "duration": 0.1327432500000043,
            "durationTicks": 96,
            "midi": 27,
            "name": "D#1",
            "ticks": 148608,
            "time": 205.48655100000002,
            "velocity": 0.44881889763779526
          },
          {
            "duration": 0.1327432499999759,
            "durationTicks": 96,
            "midi": 27,
            "name": "D#1",
            "ticks": 148704,
            "time": 205.61929425000002,
            "velocity": 0.44881889763779526
          },
          {
            "duration": 0.1327432500000043,
            "durationTicks": 96,
            "midi": 36,
            "name": "C2",
            "ticks": 148896,
            "time": 205.88478075,
            "velocity": 0.44881889763779526
          },
          {
            "duration": 0.1327432500000043,
            "durationTicks": 96,
            "midi": 34,
            "name": "A#1",
            "ticks": 148992,
            "time": 206.017524,
            "velocity": 0.44881889763779526
          },
          {
            "duration": 0.1327432500000043,
            "durationTicks": 96,
            "midi": 32,
            "name": "G#1",
            "ticks": 149184,
            "time": 206.28301050000002,
            "velocity": 0.44881889763779526
          },
          {
            "duration": 0.1327432500000043,
            "durationTicks": 96,
            "midi": 32,
            "name": "G#1",
            "ticks": 149376,
            "time": 206.548497,
            "velocity": 0.44881889763779526
          },
          {
            "duration": 0.1327432500000043,
            "durationTicks": 96,
            "midi": 27,
            "name": "D#1",
            "ticks": 149760,
            "time": 207.07947000000001,
            "velocity": 0.44881889763779526
          },
          {
            "duration": 0.1327432500000043,
            "durationTicks": 96,
            "midi": 32,
            "name": "G#1",
            "ticks": 149856,
            "time": 207.21221325000002,
            "velocity": 0.44881889763779526
          },
          {
            "duration": 0.1327432499999759,
            "durationTicks": 96,
            "midi": 29,
            "name": "F1",
            "ticks": 149952,
            "time": 207.34495650000002,
            "velocity": 0.44881889763779526
          },
          {
            "duration": 0.1327432500000043,
            "durationTicks": 96,
            "midi": 29,
            "name": "F1",
            "ticks": 150144,
            "time": 207.610443,
            "velocity": 0.44881889763779526
          },
          {
            "duration": 0.1327432500000043,
            "durationTicks": 96,
            "midi": 29,
            "name": "F1",
            "ticks": 150240,
            "time": 207.74318625,
            "velocity": 0.44881889763779526
          },
          {
            "duration": 0.1327432500000043,
            "durationTicks": 96,
            "midi": 36,
            "name": "C2",
            "ticks": 150432,
            "time": 208.00867275000002,
            "velocity": 0.44881889763779526
          },
          {
            "duration": 0.1327432500000043,
            "durationTicks": 96,
            "midi": 34,
            "name": "A#1",
            "ticks": 150528,
            "time": 208.14141600000002,
            "velocity": 0.44881889763779526
          },
          {
            "duration": 0.1327432500000043,
            "durationTicks": 96,
            "midi": 34,
            "name": "A#1",
            "ticks": 150912,
            "time": 208.672389,
            "velocity": 0.44881889763779526
          },
          {
            "duration": 0.1327432500000043,
            "durationTicks": 96,
            "midi": 34,
            "name": "A#1",
            "ticks": 151008,
            "time": 208.80513225,
            "velocity": 0.44881889763779526
          },
          {
            "duration": 0.1327432499999759,
            "durationTicks": 96,
            "midi": 36,
            "name": "C2",
            "ticks": 151200,
            "time": 209.07061875000002,
            "velocity": 0.44881889763779526
          },
          {
            "duration": 0.1327432500000043,
            "durationTicks": 96,
            "midi": 34,
            "name": "A#1",
            "ticks": 151392,
            "time": 209.33610525,
            "velocity": 0.44881889763779526
          },
          {
            "duration": 0.1327432500000043,
            "durationTicks": 96,
            "midi": 27,
            "name": "D#1",
            "ticks": 151488,
            "time": 209.4688485,
            "velocity": 0.44881889763779526
          },
          {
            "duration": 0.1327432500000043,
            "durationTicks": 96,
            "midi": 27,
            "name": "D#1",
            "ticks": 151680,
            "time": 209.73433500000002,
            "velocity": 0.44881889763779526
          },
          {
            "duration": 0.1327432500000043,
            "durationTicks": 96,
            "midi": 27,
            "name": "D#1",
            "ticks": 151776,
            "time": 209.86707825000002,
            "velocity": 0.44881889763779526
          },
          {
            "duration": 0.1327432500000043,
            "durationTicks": 96,
            "midi": 36,
            "name": "C2",
            "ticks": 151968,
            "time": 210.13256475,
            "velocity": 0.44881889763779526
          },
          {
            "duration": 0.1327432500000043,
            "durationTicks": 96,
            "midi": 34,
            "name": "A#1",
            "ticks": 152064,
            "time": 210.265308,
            "velocity": 0.44881889763779526
          },
          {
            "duration": 0.1327432500000043,
            "durationTicks": 96,
            "midi": 32,
            "name": "G#1",
            "ticks": 152256,
            "time": 210.5307945,
            "velocity": 0.44881889763779526
          },
          {
            "duration": 0.1327432499999759,
            "durationTicks": 96,
            "midi": 32,
            "name": "G#1",
            "ticks": 152448,
            "time": 210.79628100000002,
            "velocity": 0.44881889763779526
          },
          {
            "duration": 0.1327432500000043,
            "durationTicks": 96,
            "midi": 32,
            "name": "G#1",
            "ticks": 152832,
            "time": 211.327254,
            "velocity": 0.44881889763779526
          },
          {
            "duration": 0.1327432500000043,
            "durationTicks": 96,
            "midi": 32,
            "name": "G#1",
            "ticks": 152928,
            "time": 211.45999725000001,
            "velocity": 0.44881889763779526
          },
          {
            "duration": 0.1327432500000043,
            "durationTicks": 96,
            "midi": 29,
            "name": "F1",
            "ticks": 153024,
            "time": 211.59274050000002,
            "velocity": 0.44881889763779526
          },
          {
            "duration": 0.1327432500000043,
            "durationTicks": 96,
            "midi": 29,
            "name": "F1",
            "ticks": 153216,
            "time": 211.858227,
            "velocity": 0.44881889763779526
          },
          {
            "duration": 0.1327432500000043,
            "durationTicks": 96,
            "midi": 29,
            "name": "F1",
            "ticks": 153312,
            "time": 211.99097025,
            "velocity": 0.44881889763779526
          },
          {
            "duration": 0.1327432500000043,
            "durationTicks": 96,
            "midi": 36,
            "name": "C2",
            "ticks": 153504,
            "time": 212.25645675,
            "velocity": 0.44881889763779526
          },
          {
            "duration": 0.1327432500000043,
            "durationTicks": 96,
            "midi": 34,
            "name": "A#1",
            "ticks": 153600,
            "time": 212.38920000000002,
            "velocity": 0.44881889763779526
          },
          {
            "duration": 0.1327432500000043,
            "durationTicks": 96,
            "midi": 32,
            "name": "G#1",
            "ticks": 153984,
            "time": 212.920173,
            "velocity": 0.44881889763779526
          },
          {
            "duration": 0.1327432500000043,
            "durationTicks": 96,
            "midi": 34,
            "name": "A#1",
            "ticks": 154176,
            "time": 213.1856595,
            "velocity": 0.44881889763779526
          },
          {
            "duration": 0.1327432500000043,
            "durationTicks": 96,
            "midi": 32,
            "name": "G#1",
            "ticks": 154272,
            "time": 213.31840275000002,
            "velocity": 0.44881889763779526
          },
          {
            "duration": 0.1327432500000043,
            "durationTicks": 96,
            "midi": 37,
            "name": "C#2",
            "ticks": 154464,
            "time": 213.58388925,
            "velocity": 0.44881889763779526
          }
        ],
        "endOfTrackTicks": 154560
      },
      {
        "channel": 4,
        "controlChanges": {},
        "pitchBends": [],
        "instrument": {
          "family": "piano",
          "number": 0,
          "name": "acoustic grand piano"
        },
        "name": "Grand Piano",
        "notes": [
          {
            "duration": 0.2654865000000015,
            "durationTicks": 192,
            "midi": 58,
            "name": "A#3",
            "ticks": 13632,
            "time": 18.8495415,
            "velocity": 0.7874015748031497
          },
          {
            "duration": 0.1327432499999972,
            "durationTicks": 96,
            "midi": 60,
            "name": "C4",
            "ticks": 13824,
            "time": 19.115028000000002,
            "velocity": 0.7874015748031497
          },
          {
            "duration": 0.2654865000000015,
            "durationTicks": 192,
            "midi": 61,
            "name": "C#4",
            "ticks": 14016,
            "time": 19.3805145,
            "velocity": 0.7874015748031497
          },
          {
            "duration": 0.13274325000000076,
            "durationTicks": 96,
            "midi": 61,
            "name": "C#4",
            "ticks": 14208,
            "time": 19.646001000000002,
            "velocity": 0.7874015748031497
          },
          {
            "duration": 0.2654865000000015,
            "durationTicks": 192,
            "midi": 63,
            "name": "D#4",
            "ticks": 14400,
            "time": 19.9114875,
            "velocity": 0.7874015748031497
          },
          {
            "duration": 1.8584055,
            "durationTicks": 1344,
            "midi": 58,
            "name": "A#3",
            "ticks": 14592,
            "time": 20.176974,
            "velocity": 0.7874015748031497
          },
          {
            "duration": 0.26548649999999796,
            "durationTicks": 192,
            "midi": 58,
            "name": "A#3",
            "ticks": 16512,
            "time": 22.831839000000002,
            "velocity": 0.7874015748031497
          },
          {
            "duration": 0.2654865000000015,
            "durationTicks": 192,
            "midi": 58,
            "name": "A#3",
            "ticks": 16704,
            "time": 23.0973255,
            "velocity": 0.7874015748031497
          },
          {
            "duration": 0.26548649999999796,
            "durationTicks": 192,
            "midi": 60,
            "name": "C4",
            "ticks": 16896,
            "time": 23.362812,
            "velocity": 0.7874015748031497
          },
          {
            "duration": 0.2654865000000015,
            "durationTicks": 192,
            "midi": 61,
            "name": "C#4",
            "ticks": 17088,
            "time": 23.6282985,
            "velocity": 0.7874015748031497
          },
          {
            "duration": 0.2654865000000015,
            "durationTicks": 192,
            "midi": 58,
            "name": "A#3",
            "ticks": 17280,
            "time": 23.893785,
            "velocity": 0.7874015748031497
          },
          {
            "duration": 0.2654865000000015,
            "durationTicks": 192,
            "midi": 56,
            "name": "G#3",
            "ticks": 17664,
            "time": 24.424758,
            "velocity": 0.7874015748031497
          },
          {
            "duration": 0.26548649999999796,
            "durationTicks": 192,
            "midi": 68,
            "name": "G#4",
            "ticks": 17856,
            "time": 24.690244500000002,
            "velocity": 0.7874015748031497
          },
          {
            "duration": 0.2654865000000015,
            "durationTicks": 192,
            "midi": 68,
            "name": "G#4",
            "ticks": 18240,
            "time": 25.2212175,
            "velocity": 0.7874015748031497
          },
          {
            "duration": 1.327432499999997,
            "durationTicks": 960,
            "midi": 63,
            "name": "D#4",
            "ticks": 18432,
            "time": 25.486704000000003,
            "velocity": 0.7874015748031497
          },
          {
            "duration": 0.2654865000000015,
            "durationTicks": 192,
            "midi": 68,
            "name": "G#4",
            "ticks": 18624,
            "time": 25.7521905,
            "velocity": 0.7874015748031497
          },
          {
            "duration": 1.3274325000000005,
            "durationTicks": 960,
            "midi": 63,
            "name": "D#4",
            "ticks": 18816,
            "time": 26.017677000000003,
            "velocity": 0.7874015748031497
          },
          {
            "duration": 0.13274325000000076,
            "durationTicks": 96,
            "midi": 58,
            "name": "A#3",
            "ticks": 19584,
            "time": 27.079623,
            "velocity": 0.7874015748031497
          },
          {
            "duration": 0.26548649999999796,
            "durationTicks": 192,
            "midi": 58,
            "name": "A#3",
            "ticks": 19776,
            "time": 27.345109500000003,
            "velocity": 0.7874015748031497
          },
          {
            "duration": 0.2654865000000015,
            "durationTicks": 192,
            "midi": 60,
            "name": "C4",
            "ticks": 19968,
            "time": 27.610596,
            "velocity": 0.7874015748031497
          },
          {
            "duration": 0.1327432499999972,
            "durationTicks": 96,
            "midi": 61,
            "name": "C#4",
            "ticks": 20160,
            "time": 27.876082500000003,
            "velocity": 0.7874015748031497
          },
          {
            "duration": 0.13274325000000076,
            "durationTicks": 96,
            "midi": 58,
            "name": "A#3",
            "ticks": 20352,
            "time": 28.141569,
            "velocity": 0.7874015748031497
          },
          {
            "duration": 0.26548649999999796,
            "durationTicks": 192,
            "midi": 61,
            "name": "C#4",
            "ticks": 20544,
            "time": 28.407055500000002,
            "velocity": 0.7874015748031497
          },
          {
            "duration": 0.2654865000000015,
            "durationTicks": 192,
            "midi": 63,
            "name": "D#4",
            "ticks": 20736,
            "time": 28.672542,
            "velocity": 0.7874015748031497
          },
          {
            "duration": 0.26548649999999796,
            "durationTicks": 192,
            "midi": 60,
            "name": "C4",
            "ticks": 21120,
            "time": 29.203515000000003,
            "velocity": 0.7874015748031497
          },
          {
            "duration": 0.2654865000000015,
            "durationTicks": 192,
            "midi": 58,
            "name": "A#3",
            "ticks": 21312,
            "time": 29.4690015,
            "velocity": 0.7874015748031497
          },
          {
            "duration": 1.1946892499999997,
            "durationTicks": 864,
            "midi": 56,
            "name": "G#3",
            "ticks": 21504,
            "time": 29.734488000000002,
            "velocity": 0.7874015748031497
          },
          {
            "duration": 0.2654865000000015,
            "durationTicks": 192,
            "midi": 58,
            "name": "A#3",
            "ticks": 22656,
            "time": 31.327407,
            "velocity": 0.7874015748031497
          },
          {
            "duration": 0.26548649999999796,
            "durationTicks": 192,
            "midi": 58,
            "name": "A#3",
            "ticks": 22848,
            "time": 31.592893500000002,
            "velocity": 0.7874015748031497
          },
          {
            "duration": 0.26548649999999796,
            "durationTicks": 192,
            "midi": 60,
            "name": "C4",
            "ticks": 23040,
            "time": 31.85838,
            "velocity": 0.7874015748031497
          },
          {
            "duration": 0.1327432500000043,
            "durationTicks": 96,
            "midi": 61,
            "name": "C#4",
            "ticks": 23232,
            "time": 32.1238665,
            "velocity": 0.7874015748031497
          },
          {
            "duration": 0.2654865000000015,
            "durationTicks": 192,
            "midi": 58,
            "name": "A#3",
            "ticks": 23424,
            "time": 32.389353,
            "velocity": 0.7874015748031497
          },
          {
            "duration": 0.2654865000000015,
            "durationTicks": 192,
            "midi": 56,
            "name": "G#3",
            "ticks": 23616,
            "time": 32.6548395,
            "velocity": 0.7874015748031497
          },
          {
            "duration": 0.2654864999999944,
            "durationTicks": 192,
            "midi": 63,
            "name": "D#4",
            "ticks": 24000,
            "time": 33.185812500000004,
            "velocity": 0.7874015748031497
          },
          {
            "duration": 0.2654865000000015,
            "durationTicks": 192,
            "midi": 63,
            "name": "D#4",
            "ticks": 24192,
            "time": 33.451299,
            "velocity": 0.7874015748031497
          },
          {
            "duration": 0.2654865000000015,
            "durationTicks": 192,
            "midi": 63,
            "name": "D#4",
            "ticks": 24384,
            "time": 33.7167855,
            "velocity": 0.7874015748031497
          },
          {
            "duration": 0.2654865000000015,
            "durationTicks": 192,
            "midi": 65,
            "name": "F4",
            "ticks": 24576,
            "time": 33.982272,
            "velocity": 0.7874015748031497
          },
          {
            "duration": 0.5309729999999959,
            "durationTicks": 384,
            "midi": 63,
            "name": "D#4",
            "ticks": 24768,
            "time": 34.2477585,
            "velocity": 0.7874015748031497
          },
          {
            "duration": 1.3274325000000005,
            "durationTicks": 960,
            "midi": 61,
            "name": "C#4",
            "ticks": 25536,
            "time": 35.3097045,
            "velocity": 0.7874015748031497
          },
          {
            "duration": 0.1327432499999972,
            "durationTicks": 96,
            "midi": 63,
            "name": "D#4",
            "ticks": 26496,
            "time": 36.637137,
            "velocity": 0.7874015748031497
          },
          {
            "duration": 0.2654864999999944,
            "durationTicks": 192,
            "midi": 65,
            "name": "F4",
            "ticks": 26688,
            "time": 36.902623500000004,
            "velocity": 0.7874015748031497
          },
          {
            "duration": 0.1327432500000043,
            "durationTicks": 96,
            "midi": 61,
            "name": "C#4",
            "ticks": 26880,
            "time": 37.16811,
            "velocity": 0.7874015748031497
          },
          {
            "duration": 0.2654865000000015,
            "durationTicks": 192,
            "midi": 63,
            "name": "D#4",
            "ticks": 27072,
            "time": 37.4335965,
            "velocity": 0.7874015748031497
          },
          {
            "duration": 0.2654865000000015,
            "durationTicks": 192,
            "midi": 63,
            "name": "D#4",
            "ticks": 27264,
            "time": 37.699083,
            "velocity": 0.7874015748031497
          },
          {
            "duration": 0.2654865000000015,
            "durationTicks": 192,
            "midi": 63,
            "name": "D#4",
            "ticks": 27456,
            "time": 37.9645695,
            "velocity": 0.7874015748031497
          },
          {
            "duration": 0.2654864999999944,
            "durationTicks": 192,
            "midi": 65,
            "name": "F4",
            "ticks": 27648,
            "time": 38.230056000000005,
            "velocity": 0.7874015748031497
          },
          {
            "duration": 0.530973000000003,
            "durationTicks": 384,
            "midi": 63,
            "name": "D#4",
            "ticks": 27840,
            "time": 38.4955425,
            "velocity": 0.7874015748031497
          },
          {
            "duration": 0.6637162500000002,
            "durationTicks": 480,
            "midi": 56,
            "name": "G#3",
            "ticks": 28224,
            "time": 39.0265155,
            "velocity": 0.7874015748031497
          },
          {
            "duration": 0.2654865000000015,
            "durationTicks": 192,
            "midi": 58,
            "name": "A#3",
            "ticks": 29376,
            "time": 40.619434500000004,
            "velocity": 0.7874015748031497
          },
          {
            "duration": 0.2654864999999944,
            "durationTicks": 192,
            "midi": 60,
            "name": "C4",
            "ticks": 29568,
            "time": 40.884921000000006,
            "velocity": 0.7874015748031497
          },
          {
            "duration": 0.2654865000000015,
            "durationTicks": 192,
            "midi": 61,
            "name": "C#4",
            "ticks": 29760,
            "time": 41.1504075,
            "velocity": 0.7874015748031497
          },
          {
            "duration": 0.2654865000000015,
            "durationTicks": 192,
            "midi": 58,
            "name": "A#3",
            "ticks": 29952,
            "time": 41.415894,
            "velocity": 0.7874015748031497
          },
          {
            "duration": 0.2654864999999944,
            "durationTicks": 192,
            "midi": 63,
            "name": "D#4",
            "ticks": 30336,
            "time": 41.946867000000005,
            "velocity": 0.7874015748031497
          },
          {
            "duration": 0.1327432500000043,
            "durationTicks": 96,
            "midi": 65,
            "name": "F4",
            "ticks": 30528,
            "time": 42.2123535,
            "velocity": 0.7874015748031497
          },
          {
            "duration": 0.3982297499999987,
            "durationTicks": 288,
            "midi": 63,
            "name": "D#4",
            "ticks": 30720,
            "time": 42.47784,
            "velocity": 0.7874015748031497
          },
          {
            "duration": 0.3982297499999987,
            "durationTicks": 288,
            "midi": 63,
            "name": "D#4",
            "ticks": 31104,
            "time": 43.008813,
            "velocity": 0.7874015748031497
          },
          {
            "duration": 0.1327432499999972,
            "durationTicks": 96,
            "midi": 56,
            "name": "G#3",
            "ticks": 31296,
            "time": 43.274299500000005,
            "velocity": 0.7874015748031497
          },
          {
            "duration": 0.1327432499999972,
            "durationTicks": 96,
            "midi": 58,
            "name": "A#3",
            "ticks": 31392,
            "time": 43.40704275,
            "velocity": 0.7874015748031497
          },
          {
            "duration": 0.1327432500000043,
            "durationTicks": 96,
            "midi": 61,
            "name": "C#4",
            "ticks": 31488,
            "time": 43.539786,
            "velocity": 0.7874015748031497
          },
          {
            "duration": 0.1327432499999972,
            "durationTicks": 96,
            "midi": 58,
            "name": "A#3",
            "ticks": 31584,
            "time": 43.672529250000004,
            "velocity": 0.7874015748031497
          },
          {
            "duration": 0.2654865000000015,
            "durationTicks": 192,
            "midi": 65,
            "name": "F4",
            "ticks": 31680,
            "time": 43.8052725,
            "velocity": 0.7874015748031497
          },
          {
            "duration": 0.3982297500000058,
            "durationTicks": 288,
            "midi": 65,
            "name": "F4",
            "ticks": 31968,
            "time": 44.20350225,
            "velocity": 0.7874015748031497
          },
          {
            "duration": 0.5309729999999959,
            "durationTicks": 384,
            "midi": 63,
            "name": "D#4",
            "ticks": 32256,
            "time": 44.601732000000005,
            "velocity": 0.7874015748031497
          },
          {
            "duration": 0.1327432499999972,
            "durationTicks": 96,
            "midi": 56,
            "name": "G#3",
            "ticks": 32832,
            "time": 45.3981915,
            "velocity": 0.7874015748031497
          },
          {
            "duration": 0.1327432500000043,
            "durationTicks": 96,
            "midi": 58,
            "name": "A#3",
            "ticks": 32928,
            "time": 45.53093475,
            "velocity": 0.7874015748031497
          },
          {
            "duration": 0.1327432499999972,
            "durationTicks": 96,
            "midi": 60,
            "name": "C4",
            "ticks": 33024,
            "time": 45.663678000000004,
            "velocity": 0.7874015748031497
          },
          {
            "duration": 0.1327432500000043,
            "durationTicks": 96,
            "midi": 58,
            "name": "A#3",
            "ticks": 33120,
            "time": 45.79642125,
            "velocity": 0.7874015748031497
          },
          {
            "duration": 0.2654864999999944,
            "durationTicks": 192,
            "midi": 63,
            "name": "D#4",
            "ticks": 33216,
            "time": 45.929164500000006,
            "velocity": 0.7874015748031497
          },
          {
            "duration": 0.3982297499999987,
            "durationTicks": 288,
            "midi": 63,
            "name": "D#4",
            "ticks": 33504,
            "time": 46.327394250000005,
            "velocity": 0.7874015748031497
          },
          {
            "duration": 0.5309729999999959,
            "durationTicks": 384,
            "midi": 61,
            "name": "C#4",
            "ticks": 33792,
            "time": 46.725624,
            "velocity": 0.7874015748031497
          },
          {
            "duration": 0.1327432500000043,
            "durationTicks": 96,
            "midi": 56,
            "name": "G#3",
            "ticks": 34368,
            "time": 47.5220835,
            "velocity": 0.7874015748031497
          },
          {
            "duration": 0.1327432499999972,
            "durationTicks": 96,
            "midi": 58,
            "name": "A#3",
            "ticks": 34464,
            "time": 47.654826750000005,
            "velocity": 0.7874015748031497
          },
          {
            "duration": 0.1327432499999972,
            "durationTicks": 96,
            "midi": 61,
            "name": "C#4",
            "ticks": 34560,
            "time": 47.78757,
            "velocity": 0.7874015748031497
          },
          {
            "duration": 0.1327432500000043,
            "durationTicks": 96,
            "midi": 58,
            "name": "A#3",
            "ticks": 34656,
            "time": 47.92031325,
            "velocity": 0.7874015748031497
          },
          {
            "duration": 0.5309729999999959,
            "durationTicks": 384,
            "midi": 61,
            "name": "C#4",
            "ticks": 34752,
            "time": 48.053056500000004,
            "velocity": 0.7874015748031497
          },
          {
            "duration": 0.2654865000000015,
            "durationTicks": 192,
            "midi": 63,
            "name": "D#4",
            "ticks": 35136,
            "time": 48.5840295,
            "velocity": 0.7874015748031497
          },
          {
            "duration": 0.530973000000003,
            "durationTicks": 384,
            "midi": 58,
            "name": "A#3",
            "ticks": 35328,
            "time": 48.849516,
            "velocity": 0.7874015748031497
          },
          {
            "duration": 0.2654865000000015,
            "durationTicks": 192,
            "midi": 56,
            "name": "G#3",
            "ticks": 35712,
            "time": 49.380489000000004,
            "velocity": 0.7874015748031497
          },
          {
            "duration": 0.2654865000000015,
            "durationTicks": 192,
            "midi": 56,
            "name": "G#3",
            "ticks": 36096,
            "time": 49.911462,
            "velocity": 0.7874015748031497
          },
          {
            "duration": 0.2654865000000015,
            "durationTicks": 192,
            "midi": 63,
            "name": "D#4",
            "ticks": 36288,
            "time": 50.1769485,
            "velocity": 0.7874015748031497
          },
          {
            "duration": 0.5309729999999959,
            "durationTicks": 384,
            "midi": 61,
            "name": "C#4",
            "ticks": 36672,
            "time": 50.707921500000005,
            "velocity": 0.7874015748031497
          },
          {
            "duration": 0.1327432499999972,
            "durationTicks": 96,
            "midi": 56,
            "name": "G#3",
            "ticks": 37440,
            "time": 51.769867500000004,
            "velocity": 0.7874015748031497
          },
          {
            "duration": 0.1327432500000043,
            "durationTicks": 96,
            "midi": 58,
            "name": "A#3",
            "ticks": 37536,
            "time": 51.90261075,
            "velocity": 0.7874015748031497
          },
          {
            "duration": 0.1327432499999972,
            "durationTicks": 96,
            "midi": 61,
            "name": "C#4",
            "ticks": 37632,
            "time": 52.035354000000005,
            "velocity": 0.7874015748031497
          },
          {
            "duration": 0.1327432499999972,
            "durationTicks": 96,
            "midi": 58,
            "name": "A#3",
            "ticks": 37728,
            "time": 52.16809725,
            "velocity": 0.7874015748031497
          },
          {
            "duration": 0.2654865000000015,
            "durationTicks": 192,
            "midi": 65,
            "name": "F4",
            "ticks": 37824,
            "time": 52.3008405,
            "velocity": 0.7874015748031497
          },
          {
            "duration": 0.2654864999999944,
            "durationTicks": 192,
            "midi": 65,
            "name": "F4",
            "ticks": 38112,
            "time": 52.699070250000005,
            "velocity": 0.7874015748031497
          },
          {
            "duration": 0.5309729999999959,
            "durationTicks": 384,
            "midi": 63,
            "name": "D#4",
            "ticks": 38400,
            "time": 53.097300000000004,
            "velocity": 0.7874015748031497
          },
          {
            "duration": 0.1327432500000043,
            "durationTicks": 96,
            "midi": 56,
            "name": "G#3",
            "ticks": 38976,
            "time": 53.8937595,
            "velocity": 0.7874015748031497
          },
          {
            "duration": 0.1327432499999972,
            "durationTicks": 96,
            "midi": 58,
            "name": "A#3",
            "ticks": 39072,
            "time": 54.026502750000006,
            "velocity": 0.7874015748031497
          },
          {
            "duration": 0.1327432499999972,
            "durationTicks": 96,
            "midi": 60,
            "name": "C4",
            "ticks": 39168,
            "time": 54.159246,
            "velocity": 0.7874015748031497
          },
          {
            "duration": 0.1327432500000043,
            "durationTicks": 96,
            "midi": 58,
            "name": "A#3",
            "ticks": 39264,
            "time": 54.29198925,
            "velocity": 0.7874015748031497
          },
          {
            "duration": 0.5309729999999959,
            "durationTicks": 384,
            "midi": 68,
            "name": "G#4",
            "ticks": 39360,
            "time": 54.424732500000005,
            "velocity": 0.7874015748031497
          },
          {
            "duration": 0.2654865000000015,
            "durationTicks": 192,
            "midi": 60,
            "name": "C4",
            "ticks": 39744,
            "time": 54.9557055,
            "velocity": 0.7874015748031497
          },
          {
            "duration": 0.6637162500000002,
            "durationTicks": 480,
            "midi": 61,
            "name": "C#4",
            "ticks": 39936,
            "time": 55.221192,
            "velocity": 0.7874015748031497
          },
          {
            "duration": 0.1327432500000043,
            "durationTicks": 96,
            "midi": 56,
            "name": "G#3",
            "ticks": 40512,
            "time": 56.0176515,
            "velocity": 0.7874015748031497
          },
          {
            "duration": 0.1327432499999972,
            "durationTicks": 96,
            "midi": 58,
            "name": "A#3",
            "ticks": 40608,
            "time": 56.150394750000004,
            "velocity": 0.7874015748031497
          },
          {
            "duration": 0.1327432500000043,
            "durationTicks": 96,
            "midi": 61,
            "name": "C#4",
            "ticks": 40704,
            "time": 56.283138,
            "velocity": 0.7874015748031497
          },
          {
            "duration": 0.1327432499999972,
            "durationTicks": 96,
            "midi": 58,
            "name": "A#3",
            "ticks": 40800,
            "time": 56.415881250000005,
            "velocity": 0.7874015748031497
          },
          {
            "duration": 0.530973000000003,
            "durationTicks": 384,
            "midi": 61,
            "name": "C#4",
            "ticks": 40896,
            "time": 56.5486245,
            "velocity": 0.7874015748031497
          },
          {
            "duration": 0.2654864999999944,
            "durationTicks": 192,
            "midi": 63,
            "name": "D#4",
            "ticks": 41280,
            "time": 57.079597500000006,
            "velocity": 0.7874015748031497
          },
          {
            "duration": 0.7964595000000045,
            "durationTicks": 576,
            "midi": 58,
            "name": "A#3",
            "ticks": 41472,
            "time": 57.345084,
            "velocity": 0.7874015748031497
          },
          {
            "duration": 0.2654864999999944,
            "durationTicks": 192,
            "midi": 56,
            "name": "G#3",
            "ticks": 42240,
            "time": 58.407030000000006,
            "velocity": 0.7874015748031497
          },
          {
            "duration": 0.530973000000003,
            "durationTicks": 384,
            "midi": 61,
            "name": "C#4",
            "ticks": 42432,
            "time": 58.6725165,
            "velocity": 0.7874015748031497
          },
          {
            "duration": 0.530973000000003,
            "durationTicks": 384,
            "midi": 61,
            "name": "C#4",
            "ticks": 42816,
            "time": 59.2034895,
            "velocity": 0.7874015748031497
          },
          {
            "duration": 0.2654865000000015,
            "durationTicks": 192,
            "midi": 60,
            "name": "C4",
            "ticks": 44160,
            "time": 61.061895,
            "velocity": 0.7874015748031497
          },
          {
            "duration": 0.2654865000000015,
            "durationTicks": 192,
            "midi": 61,
            "name": "C#4",
            "ticks": 44352,
            "time": 61.3273815,
            "velocity": 0.7874015748031497
          },
          {
            "duration": 0.1327432499999972,
            "durationTicks": 96,
            "midi": 58,
            "name": "A#3",
            "ticks": 44544,
            "time": 61.592868,
            "velocity": 0.7874015748031497
          },
          {
            "duration": 0.2654865000000015,
            "durationTicks": 192,
            "midi": 61,
            "name": "C#4",
            "ticks": 44736,
            "time": 61.858354500000004,
            "velocity": 0.7874015748031497
          },
          {
            "duration": 0.3982297499999987,
            "durationTicks": 288,
            "midi": 63,
            "name": "D#4",
            "ticks": 44928,
            "time": 62.123841000000006,
            "velocity": 0.7874015748031497
          },
          {
            "duration": 0.1327432499999972,
            "durationTicks": 96,
            "midi": 60,
            "name": "C4",
            "ticks": 45696,
            "time": 63.185787000000005,
            "velocity": 0.7874015748031497
          },
          {
            "duration": 0.2654864999999944,
            "durationTicks": 192,
            "midi": 58,
            "name": "A#3",
            "ticks": 45888,
            "time": 63.451273500000006,
            "velocity": 0.7874015748031497
          },
          {
            "duration": 1.061945999999999,
            "durationTicks": 768,
            "midi": 56,
            "name": "G#3",
            "ticks": 46080,
            "time": 63.71676,
            "velocity": 0.7874015748031497
          },
          {
            "duration": 1.061946000000006,
            "durationTicks": 768,
            "midi": 56,
            "name": "G#3",
            "ticks": 46464,
            "time": 64.247733,
            "velocity": 0.7874015748031497
          },
          {
            "duration": 0.2654864999999944,
            "durationTicks": 192,
            "midi": 58,
            "name": "A#3",
            "ticks": 47232,
            "time": 65.309679,
            "velocity": 0.7874015748031497
          },
          {
            "duration": 0.1327432500000043,
            "durationTicks": 96,
            "midi": 58,
            "name": "A#3",
            "ticks": 47424,
            "time": 65.5751655,
            "velocity": 0.7874015748031497
          },
          {
            "duration": 0.2654864999999944,
            "durationTicks": 192,
            "midi": 60,
            "name": "C4",
            "ticks": 47616,
            "time": 65.840652,
            "velocity": 0.7874015748031497
          },
          {
            "duration": 0.1327432500000043,
            "durationTicks": 96,
            "midi": 61,
            "name": "C#4",
            "ticks": 47808,
            "time": 66.1061385,
            "velocity": 0.7874015748031497
          },
          {
            "duration": 0.2654864999999944,
            "durationTicks": 192,
            "midi": 58,
            "name": "A#3",
            "ticks": 48000,
            "time": 66.37162500000001,
            "velocity": 0.7874015748031497
          },
          {
            "duration": 0.3982297499999987,
            "durationTicks": 288,
            "midi": 56,
            "name": "G#3",
            "ticks": 48192,
            "time": 66.6371115,
            "velocity": 0.7874015748031497
          },
          {
            "duration": 0.2654865000000086,
            "durationTicks": 192,
            "midi": 68,
            "name": "G#4",
            "ticks": 48768,
            "time": 67.433571,
            "velocity": 0.7874015748031497
          },
          {
            "duration": 0.1327432499999901,
            "durationTicks": 96,
            "midi": 68,
            "name": "G#4",
            "ticks": 48960,
            "time": 67.69905750000001,
            "velocity": 0.7874015748031497
          },
          {
            "duration": 0.3982297499999987,
            "durationTicks": 288,
            "midi": 63,
            "name": "D#4",
            "ticks": 49152,
            "time": 67.964544,
            "velocity": 0.7874015748031497
          },
          {
            "duration": 0.3982297499999987,
            "durationTicks": 288,
            "midi": 63,
            "name": "D#4",
            "ticks": 49536,
            "time": 68.495517,
            "velocity": 0.7874015748031497
          },
          {
            "duration": 0.1327432499999901,
            "durationTicks": 96,
            "midi": 65,
            "name": "F4",
            "ticks": 49536,
            "time": 68.495517,
            "velocity": 0.7874015748031497
          },
          {
            "duration": 0.2654865000000086,
            "durationTicks": 192,
            "midi": 63,
            "name": "D#4",
            "ticks": 49728,
            "time": 68.7610035,
            "velocity": 0.7874015748031497
          },
          {
            "duration": 0.2654864999999944,
            "durationTicks": 192,
            "midi": 61,
            "name": "C#4",
            "ticks": 49920,
            "time": 69.02649000000001,
            "velocity": 0.7874015748031497
          },
          {
            "duration": 0.1327432499999901,
            "durationTicks": 96,
            "midi": 65,
            "name": "F4",
            "ticks": 49920,
            "time": 69.02649000000001,
            "velocity": 0.7874015748031497
          },
          {
            "duration": 0.2654864999999944,
            "durationTicks": 192,
            "midi": 63,
            "name": "D#4",
            "ticks": 50112,
            "time": 69.2919765,
            "velocity": 0.7874015748031497
          },
          {
            "duration": 0.1327432500000043,
            "durationTicks": 96,
            "midi": 60,
            "name": "C4",
            "ticks": 50304,
            "time": 69.557463,
            "velocity": 0.7874015748031497
          },
          {
            "duration": 0.2654865000000086,
            "durationTicks": 192,
            "midi": 61,
            "name": "C#4",
            "ticks": 50304,
            "time": 69.557463,
            "velocity": 0.7874015748031497
          },
          {
            "duration": 0.2654864999999944,
            "durationTicks": 192,
            "midi": 61,
            "name": "C#4",
            "ticks": 50496,
            "time": 69.82294950000001,
            "velocity": 0.7874015748031497
          },
          {
            "duration": 0.1327432500000043,
            "durationTicks": 96,
            "midi": 58,
            "name": "A#3",
            "ticks": 50688,
            "time": 70.088436,
            "velocity": 0.7874015748031497
          },
          {
            "duration": 0.1327432499999901,
            "durationTicks": 96,
            "midi": 61,
            "name": "C#4",
            "ticks": 50880,
            "time": 70.35392250000001,
            "velocity": 0.7874015748031497
          },
          {
            "duration": 0.2654864999999944,
            "durationTicks": 192,
            "midi": 58,
            "name": "A#3",
            "ticks": 51072,
            "time": 70.619409,
            "velocity": 0.7874015748031497
          },
          {
            "duration": 0.1327432500000043,
            "durationTicks": 96,
            "midi": 61,
            "name": "C#4",
            "ticks": 51264,
            "time": 70.8848955,
            "velocity": 0.7874015748031497
          },
          {
            "duration": 0.1327432499999901,
            "durationTicks": 96,
            "midi": 63,
            "name": "D#4",
            "ticks": 51456,
            "time": 71.15038200000001,
            "velocity": 0.7874015748031497
          },
          {
            "duration": 0.2654864999999944,
            "durationTicks": 192,
            "midi": 60,
            "name": "C4",
            "ticks": 51840,
            "time": 71.68135500000001,
            "velocity": 0.7874015748031497
          },
          {
            "duration": 0.2654864999999944,
            "durationTicks": 192,
            "midi": 58,
            "name": "A#3",
            "ticks": 52032,
            "time": 71.9468415,
            "velocity": 0.7874015748031497
          },
          {
            "duration": 0.9292027500000017,
            "durationTicks": 672,
            "midi": 56,
            "name": "G#3",
            "ticks": 52224,
            "time": 72.212328,
            "velocity": 0.7874015748031497
          },
          {
            "duration": 0.9292027500000017,
            "durationTicks": 672,
            "midi": 56,
            "name": "G#3",
            "ticks": 52608,
            "time": 72.743301,
            "velocity": 0.7874015748031497
          },
          {
            "duration": 0.2654864999999944,
            "durationTicks": 192,
            "midi": 58,
            "name": "A#3",
            "ticks": 53376,
            "time": 73.80524700000001,
            "velocity": 0.7874015748031497
          },
          {
            "duration": 0.2654864999999944,
            "durationTicks": 192,
            "midi": 58,
            "name": "A#3",
            "ticks": 53568,
            "time": 74.0707335,
            "velocity": 0.7874015748031497
          },
          {
            "duration": 0.1327432500000043,
            "durationTicks": 96,
            "midi": 60,
            "name": "C4",
            "ticks": 53760,
            "time": 74.33622,
            "velocity": 0.7874015748031497
          },
          {
            "duration": 0.2654864999999944,
            "durationTicks": 192,
            "midi": 61,
            "name": "C#4",
            "ticks": 53952,
            "time": 74.6017065,
            "velocity": 0.7874015748031497
          },
          {
            "duration": 0.2654865000000086,
            "durationTicks": 192,
            "midi": 58,
            "name": "A#3",
            "ticks": 54144,
            "time": 74.867193,
            "velocity": 0.7874015748031497
          },
          {
            "duration": 0.3982297499999987,
            "durationTicks": 288,
            "midi": 56,
            "name": "G#3",
            "ticks": 54336,
            "time": 75.13267950000001,
            "velocity": 0.7874015748031497
          },
          {
            "duration": 0.2654864999999944,
            "durationTicks": 192,
            "midi": 63,
            "name": "D#4",
            "ticks": 54912,
            "time": 75.929139,
            "velocity": 0.7874015748031497
          },
          {
            "duration": 0.1327432500000043,
            "durationTicks": 96,
            "midi": 65,
            "name": "F4",
            "ticks": 55104,
            "time": 76.1946255,
            "velocity": 0.7874015748031497
          },
          {
            "duration": 0.5309729999999888,
            "durationTicks": 384,
            "midi": 65,
            "name": "F4",
            "ticks": 55296,
            "time": 76.46011200000001,
            "velocity": 0.7874015748031497
          },
          {
            "duration": 0.530973000000003,
            "durationTicks": 384,
            "midi": 65,
            "name": "F4",
            "ticks": 55680,
            "time": 76.991085,
            "velocity": 0.7874015748031497
          },
          {
            "duration": 0.3982297500000129,
            "durationTicks": 288,
            "midi": 63,
            "name": "D#4",
            "ticks": 55680,
            "time": 76.991085,
            "velocity": 0.7874015748031497
          },
          {
            "duration": 0.3982297499999987,
            "durationTicks": 288,
            "midi": 63,
            "name": "D#4",
            "ticks": 56064,
            "time": 77.522058,
            "velocity": 0.7874015748031497
          },
          {
            "duration": 1.3274325000000005,
            "durationTicks": 960,
            "midi": 61,
            "name": "C#4",
            "ticks": 56256,
            "time": 77.78754450000001,
            "velocity": 0.7874015748031497
          },
          {
            "duration": 0.1327432499999901,
            "durationTicks": 96,
            "midi": 63,
            "name": "D#4",
            "ticks": 57216,
            "time": 79.11497700000001,
            "velocity": 0.7874015748031497
          },
          {
            "duration": 0.2654864999999944,
            "durationTicks": 192,
            "midi": 65,
            "name": "F4",
            "ticks": 57408,
            "time": 79.3804635,
            "velocity": 0.7874015748031497
          },
          {
            "duration": 0.3982297499999987,
            "durationTicks": 288,
            "midi": 63,
            "name": "D#4",
            "ticks": 57600,
            "time": 79.64595,
            "velocity": 0.7874015748031497
          },
          {
            "duration": 0.2654865000000086,
            "durationTicks": 192,
            "midi": 63,
            "name": "D#4",
            "ticks": 57984,
            "time": 80.176923,
            "velocity": 0.7874015748031497
          },
          {
            "duration": 0.2654864999999944,
            "durationTicks": 192,
            "midi": 63,
            "name": "D#4",
            "ticks": 58176,
            "time": 80.44240950000001,
            "velocity": 0.7874015748031497
          },
          {
            "duration": 0.1327432500000043,
            "durationTicks": 96,
            "midi": 65,
            "name": "F4",
            "ticks": 58368,
            "time": 80.707896,
            "velocity": 0.7874015748031497
          },
          {
            "duration": 0.530973000000003,
            "durationTicks": 384,
            "midi": 63,
            "name": "D#4",
            "ticks": 58560,
            "time": 80.9733825,
            "velocity": 0.7874015748031497
          },
          {
            "duration": 0.9292027500000017,
            "durationTicks": 672,
            "midi": 56,
            "name": "G#3",
            "ticks": 58944,
            "time": 81.5043555,
            "velocity": 0.7874015748031497
          },
          {
            "duration": 0.1327432500000043,
            "durationTicks": 96,
            "midi": 56,
            "name": "G#3",
            "ticks": 59904,
            "time": 82.831788,
            "velocity": 0.7874015748031497
          },
          {
            "duration": 0.2654865000000086,
            "durationTicks": 192,
            "midi": 58,
            "name": "A#3",
            "ticks": 60096,
            "time": 83.0972745,
            "velocity": 0.7874015748031497
          },
          {
            "duration": 0.2654864999999944,
            "durationTicks": 192,
            "midi": 60,
            "name": "C4",
            "ticks": 60288,
            "time": 83.362761,
            "velocity": 0.7874015748031497
          },
          {
            "duration": 0.2654865000000086,
            "durationTicks": 192,
            "midi": 61,
            "name": "C#4",
            "ticks": 60480,
            "time": 83.6282475,
            "velocity": 0.7874015748031497
          },
          {
            "duration": 0.2654864999999944,
            "durationTicks": 192,
            "midi": 58,
            "name": "A#3",
            "ticks": 60672,
            "time": 83.89373400000001,
            "velocity": 0.7874015748031497
          },
          {
            "duration": 0.2654865000000086,
            "durationTicks": 192,
            "midi": 63,
            "name": "D#4",
            "ticks": 61056,
            "time": 84.424707,
            "velocity": 0.7874015748031497
          },
          {
            "duration": 0.2654864999999944,
            "durationTicks": 192,
            "midi": 65,
            "name": "F4",
            "ticks": 61248,
            "time": 84.6901935,
            "velocity": 0.7874015748031497
          },
          {
            "duration": 0.3982297499999987,
            "durationTicks": 288,
            "midi": 63,
            "name": "D#4",
            "ticks": 61440,
            "time": 84.95568,
            "velocity": 0.7874015748031497
          },
          {
            "duration": 0.1327432500000043,
            "durationTicks": 96,
            "midi": 56,
            "name": "G#3",
            "ticks": 62016,
            "time": 85.7521395,
            "velocity": 0.7874015748031497
          },
          {
            "duration": 0.1327432500000043,
            "durationTicks": 96,
            "midi": 58,
            "name": "A#3",
            "ticks": 62112,
            "time": 85.88488275,
            "velocity": 0.7874015748031497
          },
          {
            "duration": 0.1327432500000043,
            "durationTicks": 96,
            "midi": 61,
            "name": "C#4",
            "ticks": 62208,
            "time": 86.017626,
            "velocity": 0.7874015748031497
          },
          {
            "duration": 0.1327432499999901,
            "durationTicks": 96,
            "midi": 58,
            "name": "A#3",
            "ticks": 62304,
            "time": 86.15036925000001,
            "velocity": 0.7874015748031497
          },
          {
            "duration": 0.2654865000000086,
            "durationTicks": 192,
            "midi": 65,
            "name": "F4",
            "ticks": 62400,
            "time": 86.2831125,
            "velocity": 0.7874015748031497
          },
          {
            "duration": 0.3982297499999987,
            "durationTicks": 288,
            "midi": 65,
            "name": "F4",
            "ticks": 62688,
            "time": 86.68134225,
            "velocity": 0.7874015748031497
          },
          {
            "duration": 0.530973000000003,
            "durationTicks": 384,
            "midi": 63,
            "name": "D#4",
            "ticks": 62976,
            "time": 87.079572,
            "velocity": 0.7874015748031497
          },
          {
            "duration": 0.1327432499999901,
            "durationTicks": 96,
            "midi": 56,
            "name": "G#3",
            "ticks": 63552,
            "time": 87.87603150000001,
            "velocity": 0.7874015748031497
          },
          {
            "duration": 0.1327432500000043,
            "durationTicks": 96,
            "midi": 58,
            "name": "A#3",
            "ticks": 63648,
            "time": 88.00877475,
            "velocity": 0.7874015748031497
          },
          {
            "duration": 0.1327432500000043,
            "durationTicks": 96,
            "midi": 60,
            "name": "C4",
            "ticks": 63744,
            "time": 88.141518,
            "velocity": 0.7874015748031497
          },
          {
            "duration": 0.1327432499999901,
            "durationTicks": 96,
            "midi": 58,
            "name": "A#3",
            "ticks": 63840,
            "time": 88.27426125000001,
            "velocity": 0.7874015748031497
          },
          {
            "duration": 0.2654865000000086,
            "durationTicks": 192,
            "midi": 63,
            "name": "D#4",
            "ticks": 63936,
            "time": 88.4070045,
            "velocity": 0.7874015748031497
          },
          {
            "duration": 0.3982297500000129,
            "durationTicks": 288,
            "midi": 63,
            "name": "D#4",
            "ticks": 64224,
            "time": 88.80523425,
            "velocity": 0.7874015748031497
          },
          {
            "duration": 0.5309729999999888,
            "durationTicks": 384,
            "midi": 61,
            "name": "C#4",
            "ticks": 64512,
            "time": 89.20346400000001,
            "velocity": 0.7874015748031497
          },
          {
            "duration": 0.1327432499999901,
            "durationTicks": 96,
            "midi": 56,
            "name": "G#3",
            "ticks": 65088,
            "time": 89.99992350000001,
            "velocity": 0.7874015748031497
          },
          {
            "duration": 0.1327432500000043,
            "durationTicks": 96,
            "midi": 58,
            "name": "A#3",
            "ticks": 65184,
            "time": 90.13266675,
            "velocity": 0.7874015748031497
          },
          {
            "duration": 0.1327432500000043,
            "durationTicks": 96,
            "midi": 61,
            "name": "C#4",
            "ticks": 65280,
            "time": 90.26541,
            "velocity": 0.7874015748031497
          },
          {
            "duration": 0.1327432500000043,
            "durationTicks": 96,
            "midi": 58,
            "name": "A#3",
            "ticks": 65376,
            "time": 90.39815325000001,
            "velocity": 0.7874015748031497
          },
          {
            "duration": 0.5309729999999888,
            "durationTicks": 384,
            "midi": 61,
            "name": "C#4",
            "ticks": 65472,
            "time": 90.53089650000001,
            "velocity": 0.7874015748031497
          },
          {
            "duration": 0.2654865000000086,
            "durationTicks": 192,
            "midi": 63,
            "name": "D#4",
            "ticks": 65856,
            "time": 91.0618695,
            "velocity": 0.7874015748031497
          },
          {
            "duration": 0.530973000000003,
            "durationTicks": 384,
            "midi": 58,
            "name": "A#3",
            "ticks": 66048,
            "time": 91.32735600000001,
            "velocity": 0.7874015748031497
          },
          {
            "duration": 0.2654864999999944,
            "durationTicks": 192,
            "midi": 56,
            "name": "G#3",
            "ticks": 66432,
            "time": 91.85832900000001,
            "velocity": 0.7874015748031497
          },
          {
            "duration": 0.2654865000000086,
            "durationTicks": 192,
            "midi": 56,
            "name": "G#3",
            "ticks": 66816,
            "time": 92.389302,
            "velocity": 0.7874015748031497
          },
          {
            "duration": 0.2654864999999944,
            "durationTicks": 192,
            "midi": 63,
            "name": "D#4",
            "ticks": 67008,
            "time": 92.65478850000001,
            "velocity": 0.7874015748031497
          },
          {
            "duration": 0.530973000000003,
            "durationTicks": 384,
            "midi": 61,
            "name": "C#4",
            "ticks": 67392,
            "time": 93.1857615,
            "velocity": 0.7874015748031497
          },
          {
            "duration": 0.1327432500000043,
            "durationTicks": 96,
            "midi": 56,
            "name": "G#3",
            "ticks": 68160,
            "time": 94.2477075,
            "velocity": 0.7874015748031497
          },
          {
            "duration": 0.1327432499999901,
            "durationTicks": 96,
            "midi": 58,
            "name": "A#3",
            "ticks": 68256,
            "time": 94.38045075000001,
            "velocity": 0.7874015748031497
          },
          {
            "duration": 0.1327432500000043,
            "durationTicks": 96,
            "midi": 61,
            "name": "C#4",
            "ticks": 68352,
            "time": 94.513194,
            "velocity": 0.7874015748031497
          },
          {
            "duration": 0.1327432500000043,
            "durationTicks": 96,
            "midi": 58,
            "name": "A#3",
            "ticks": 68448,
            "time": 94.64593725,
            "velocity": 0.7874015748031497
          },
          {
            "duration": 0.2654864999999944,
            "durationTicks": 192,
            "midi": 65,
            "name": "F4",
            "ticks": 68544,
            "time": 94.77868050000001,
            "velocity": 0.7874015748031497
          },
          {
            "duration": 0.2654864999999944,
            "durationTicks": 192,
            "midi": 65,
            "name": "F4",
            "ticks": 68832,
            "time": 95.17691025,
            "velocity": 0.7874015748031497
          },
          {
            "duration": 0.530973000000003,
            "durationTicks": 384,
            "midi": 63,
            "name": "D#4",
            "ticks": 69120,
            "time": 95.57514,
            "velocity": 0.7874015748031497
          },
          {
            "duration": 0.1327432500000043,
            "durationTicks": 96,
            "midi": 56,
            "name": "G#3",
            "ticks": 69696,
            "time": 96.3715995,
            "velocity": 0.7874015748031497
          },
          {
            "duration": 0.1327432500000043,
            "durationTicks": 96,
            "midi": 58,
            "name": "A#3",
            "ticks": 69792,
            "time": 96.50434275,
            "velocity": 0.7874015748031497
          },
          {
            "duration": 0.1327432499999901,
            "durationTicks": 96,
            "midi": 60,
            "name": "C4",
            "ticks": 69888,
            "time": 96.63708600000001,
            "velocity": 0.7874015748031497
          },
          {
            "duration": 0.1327432500000043,
            "durationTicks": 96,
            "midi": 58,
            "name": "A#3",
            "ticks": 69984,
            "time": 96.76982925,
            "velocity": 0.7874015748031497
          },
          {
            "duration": 0.530973000000003,
            "durationTicks": 384,
            "midi": 68,
            "name": "G#4",
            "ticks": 70080,
            "time": 96.9025725,
            "velocity": 0.7874015748031497
          },
          {
            "duration": 0.2654864999999944,
            "durationTicks": 192,
            "midi": 60,
            "name": "C4",
            "ticks": 70464,
            "time": 97.43354550000001,
            "velocity": 0.7874015748031497
          },
          {
            "duration": 0.6637162500000073,
            "durationTicks": 480,
            "midi": 61,
            "name": "C#4",
            "ticks": 70656,
            "time": 97.699032,
            "velocity": 0.7874015748031497
          },
          {
            "duration": 0.1327432500000043,
            "durationTicks": 96,
            "midi": 56,
            "name": "G#3",
            "ticks": 71232,
            "time": 98.4954915,
            "velocity": 0.7874015748031497
          },
          {
            "duration": 0.1327432500000043,
            "durationTicks": 96,
            "midi": 58,
            "name": "A#3",
            "ticks": 71328,
            "time": 98.62823475,
            "velocity": 0.7874015748031497
          },
          {
            "duration": 0.1327432499999901,
            "durationTicks": 96,
            "midi": 61,
            "name": "C#4",
            "ticks": 71424,
            "time": 98.76097800000001,
            "velocity": 0.7874015748031497
          },
          {
            "duration": 0.1327432500000043,
            "durationTicks": 96,
            "midi": 58,
            "name": "A#3",
            "ticks": 71520,
            "time": 98.89372125,
            "velocity": 0.7874015748031497
          },
          {
            "duration": 0.530973000000003,
            "durationTicks": 384,
            "midi": 61,
            "name": "C#4",
            "ticks": 71616,
            "time": 99.0264645,
            "velocity": 0.7874015748031497
          },
          {
            "duration": 0.2654864999999944,
            "durationTicks": 192,
            "midi": 63,
            "name": "D#4",
            "ticks": 72000,
            "time": 99.5574375,
            "velocity": 0.7874015748031497
          },
          {
            "duration": 0.7964595000000116,
            "durationTicks": 576,
            "midi": 58,
            "name": "A#3",
            "ticks": 72192,
            "time": 99.822924,
            "velocity": 0.7874015748031497
          },
          {
            "duration": 0.2654864999999944,
            "durationTicks": 192,
            "midi": 56,
            "name": "G#3",
            "ticks": 72960,
            "time": 100.88487,
            "velocity": 0.7874015748031497
          },
          {
            "duration": 0.530973000000003,
            "durationTicks": 384,
            "midi": 61,
            "name": "C#4",
            "ticks": 73152,
            "time": 101.1503565,
            "velocity": 0.7874015748031497
          },
          {
            "duration": 0.530973000000003,
            "durationTicks": 384,
            "midi": 61,
            "name": "C#4",
            "ticks": 73536,
            "time": 101.6813295,
            "velocity": 0.7874015748031497
          },
          {
            "duration": 0.1327432499999901,
            "durationTicks": 96,
            "midi": 56,
            "name": "G#3",
            "ticks": 74304,
            "time": 102.74327550000001,
            "velocity": 0.7874015748031497
          },
          {
            "duration": 0.1327432500000043,
            "durationTicks": 96,
            "midi": 58,
            "name": "A#3",
            "ticks": 74400,
            "time": 102.87601875,
            "velocity": 0.7874015748031497
          },
          {
            "duration": 0.1327432500000043,
            "durationTicks": 96,
            "midi": 61,
            "name": "C#4",
            "ticks": 74496,
            "time": 103.008762,
            "velocity": 0.7874015748031497
          },
          {
            "duration": 0.1327432499999901,
            "durationTicks": 96,
            "midi": 58,
            "name": "A#3",
            "ticks": 74592,
            "time": 103.14150525000001,
            "velocity": 0.7874015748031497
          },
          {
            "duration": 0.2654865000000086,
            "durationTicks": 192,
            "midi": 65,
            "name": "F4",
            "ticks": 74688,
            "time": 103.2742485,
            "velocity": 0.7874015748031497
          },
          {
            "duration": 0.3982297499999987,
            "durationTicks": 288,
            "midi": 65,
            "name": "F4",
            "ticks": 74976,
            "time": 103.67247825000001,
            "velocity": 0.7874015748031497
          },
          {
            "duration": 0.5309729999999888,
            "durationTicks": 384,
            "midi": 63,
            "name": "D#4",
            "ticks": 75264,
            "time": 104.07070800000001,
            "velocity": 0.7874015748031497
          },
          {
            "duration": 0.1327432500000043,
            "durationTicks": 96,
            "midi": 56,
            "name": "G#3",
            "ticks": 75840,
            "time": 104.86716750000001,
            "velocity": 0.7874015748031497
          },
          {
            "duration": 0.1327432499999901,
            "durationTicks": 96,
            "midi": 58,
            "name": "A#3",
            "ticks": 75936,
            "time": 104.99991075000001,
            "velocity": 0.7874015748031497
          },
          {
            "duration": 0.1327432500000043,
            "durationTicks": 96,
            "midi": 60,
            "name": "C4",
            "ticks": 76032,
            "time": 105.132654,
            "velocity": 0.7874015748031497
          },
          {
            "duration": 0.1327432500000043,
            "durationTicks": 96,
            "midi": 58,
            "name": "A#3",
            "ticks": 76128,
            "time": 105.26539725,
            "velocity": 0.7874015748031497
          },
          {
            "duration": 0.2654864999999944,
            "durationTicks": 192,
            "midi": 63,
            "name": "D#4",
            "ticks": 76224,
            "time": 105.39814050000001,
            "velocity": 0.7874015748031497
          },
          {
            "duration": 0.3982297499999987,
            "durationTicks": 288,
            "midi": 63,
            "name": "D#4",
            "ticks": 76512,
            "time": 105.79637025000001,
            "velocity": 0.7874015748031497
          },
          {
            "duration": 0.530973000000003,
            "durationTicks": 384,
            "midi": 61,
            "name": "C#4",
            "ticks": 76800,
            "time": 106.19460000000001,
            "velocity": 0.7874015748031497
          },
          {
            "duration": 0.1327432500000043,
            "durationTicks": 96,
            "midi": 56,
            "name": "G#3",
            "ticks": 77376,
            "time": 106.9910595,
            "velocity": 0.7874015748031497
          },
          {
            "duration": 0.1327432499999901,
            "durationTicks": 96,
            "midi": 58,
            "name": "A#3",
            "ticks": 77472,
            "time": 107.12380275000001,
            "velocity": 0.7874015748031497
          },
          {
            "duration": 0.1327432500000043,
            "durationTicks": 96,
            "midi": 61,
            "name": "C#4",
            "ticks": 77568,
            "time": 107.256546,
            "velocity": 0.7874015748031497
          },
          {
            "duration": 0.1327432500000043,
            "durationTicks": 96,
            "midi": 58,
            "name": "A#3",
            "ticks": 77664,
            "time": 107.38928925,
            "velocity": 0.7874015748031497
          },
          {
            "duration": 0.530973000000003,
            "durationTicks": 384,
            "midi": 61,
            "name": "C#4",
            "ticks": 77760,
            "time": 107.52203250000001,
            "velocity": 0.7874015748031497
          },
          {
            "duration": 0.2654864999999944,
            "durationTicks": 192,
            "midi": 63,
            "name": "D#4",
            "ticks": 78144,
            "time": 108.05300550000001,
            "velocity": 0.7874015748031497
          },
          {
            "duration": 0.530973000000003,
            "durationTicks": 384,
            "midi": 58,
            "name": "A#3",
            "ticks": 78336,
            "time": 108.318492,
            "velocity": 0.7874015748031497
          },
          {
            "duration": 0.2654864999999944,
            "durationTicks": 192,
            "midi": 56,
            "name": "G#3",
            "ticks": 78720,
            "time": 108.84946500000001,
            "velocity": 0.7874015748031497
          },
          {
            "duration": 0.2654864999999944,
            "durationTicks": 192,
            "midi": 56,
            "name": "G#3",
            "ticks": 79104,
            "time": 109.38043800000001,
            "velocity": 0.7874015748031497
          },
          {
            "duration": 0.2654864999999944,
            "durationTicks": 192,
            "midi": 63,
            "name": "D#4",
            "ticks": 79296,
            "time": 109.6459245,
            "velocity": 0.7874015748031497
          },
          {
            "duration": 0.530973000000003,
            "durationTicks": 384,
            "midi": 61,
            "name": "C#4",
            "ticks": 79680,
            "time": 110.17689750000001,
            "velocity": 0.7874015748031497
          },
          {
            "duration": 0.1327432500000043,
            "durationTicks": 96,
            "midi": 56,
            "name": "G#3",
            "ticks": 80448,
            "time": 111.2388435,
            "velocity": 0.7874015748031497
          },
          {
            "duration": 0.1327432500000043,
            "durationTicks": 96,
            "midi": 58,
            "name": "A#3",
            "ticks": 80544,
            "time": 111.37158675,
            "velocity": 0.7874015748031497
          },
          {
            "duration": 0.1327432499999901,
            "durationTicks": 96,
            "midi": 61,
            "name": "C#4",
            "ticks": 80640,
            "time": 111.50433000000001,
            "velocity": 0.7874015748031497
          },
          {
            "duration": 0.1327432500000043,
            "durationTicks": 96,
            "midi": 58,
            "name": "A#3",
            "ticks": 80736,
            "time": 111.63707325,
            "velocity": 0.7874015748031497
          },
          {
            "duration": 0.2654864999999944,
            "durationTicks": 192,
            "midi": 65,
            "name": "F4",
            "ticks": 80832,
            "time": 111.7698165,
            "velocity": 0.7874015748031497
          },
          {
            "duration": 0.2654865000000086,
            "durationTicks": 192,
            "midi": 65,
            "name": "F4",
            "ticks": 81120,
            "time": 112.16804625,
            "velocity": 0.7874015748031497
          },
          {
            "duration": 0.530973000000003,
            "durationTicks": 384,
            "midi": 63,
            "name": "D#4",
            "ticks": 81408,
            "time": 112.566276,
            "velocity": 0.7874015748031497
          },
          {
            "duration": 0.1327432500000043,
            "durationTicks": 96,
            "midi": 56,
            "name": "G#3",
            "ticks": 81984,
            "time": 113.3627355,
            "velocity": 0.7874015748031497
          },
          {
            "duration": 0.1327432500000043,
            "durationTicks": 96,
            "midi": 58,
            "name": "A#3",
            "ticks": 82080,
            "time": 113.49547875,
            "velocity": 0.7874015748031497
          },
          {
            "duration": 0.1327432500000043,
            "durationTicks": 96,
            "midi": 60,
            "name": "C4",
            "ticks": 82176,
            "time": 113.62822200000001,
            "velocity": 0.7874015748031497
          },
          {
            "duration": 0.1327432499999901,
            "durationTicks": 96,
            "midi": 58,
            "name": "A#3",
            "ticks": 82272,
            "time": 113.76096525000001,
            "velocity": 0.7874015748031497
          },
          {
            "duration": 0.530973000000003,
            "durationTicks": 384,
            "midi": 68,
            "name": "G#4",
            "ticks": 82368,
            "time": 113.8937085,
            "velocity": 0.7874015748031497
          },
          {
            "duration": 0.2654864999999944,
            "durationTicks": 192,
            "midi": 60,
            "name": "C4",
            "ticks": 82752,
            "time": 114.4246815,
            "velocity": 0.7874015748031497
          },
          {
            "duration": 0.6637162500000073,
            "durationTicks": 480,
            "midi": 61,
            "name": "C#4",
            "ticks": 82944,
            "time": 114.690168,
            "velocity": 0.7874015748031497
          },
          {
            "duration": 0.1327432499999901,
            "durationTicks": 96,
            "midi": 56,
            "name": "G#3",
            "ticks": 83520,
            "time": 115.48662750000001,
            "velocity": 0.7874015748031497
          },
          {
            "duration": 0.1327432500000043,
            "durationTicks": 96,
            "midi": 58,
            "name": "A#3",
            "ticks": 83616,
            "time": 115.61937075,
            "velocity": 0.7874015748031497
          },
          {
            "duration": 0.1327432500000043,
            "durationTicks": 96,
            "midi": 61,
            "name": "C#4",
            "ticks": 83712,
            "time": 115.752114,
            "velocity": 0.7874015748031497
          },
          {
            "duration": 0.1327432499999901,
            "durationTicks": 96,
            "midi": 58,
            "name": "A#3",
            "ticks": 83808,
            "time": 115.88485725000001,
            "velocity": 0.7874015748031497
          },
          {
            "duration": 0.530973000000003,
            "durationTicks": 384,
            "midi": 61,
            "name": "C#4",
            "ticks": 83904,
            "time": 116.0176005,
            "velocity": 0.7874015748031497
          },
          {
            "duration": 0.2654865000000086,
            "durationTicks": 192,
            "midi": 63,
            "name": "D#4",
            "ticks": 84288,
            "time": 116.5485735,
            "velocity": 0.7874015748031497
          },
          {
            "duration": 0.7964594999999974,
            "durationTicks": 576,
            "midi": 58,
            "name": "A#3",
            "ticks": 84480,
            "time": 116.81406000000001,
            "velocity": 0.7874015748031497
          },
          {
            "duration": 0.2654865000000086,
            "durationTicks": 192,
            "midi": 56,
            "name": "G#3",
            "ticks": 85248,
            "time": 117.876006,
            "velocity": 0.7874015748031497
          },
          {
            "duration": 0.5309729999999888,
            "durationTicks": 384,
            "midi": 61,
            "name": "C#4",
            "ticks": 85440,
            "time": 118.14149250000001,
            "velocity": 0.7874015748031497
          },
          {
            "duration": 0.530973000000003,
            "durationTicks": 384,
            "midi": 61,
            "name": "C#4",
            "ticks": 85824,
            "time": 118.6724655,
            "velocity": 0.7874015748031497
          },
          {
            "duration": 0.1327432500000043,
            "durationTicks": 96,
            "midi": 56,
            "name": "G#3",
            "ticks": 93312,
            "time": 129.026439,
            "velocity": 0.7874015748031497
          },
          {
            "duration": 0.1327432500000043,
            "durationTicks": 96,
            "midi": 58,
            "name": "A#3",
            "ticks": 93408,
            "time": 129.15918225000001,
            "velocity": 0.7874015748031497
          },
          {
            "duration": 0.1327432499999759,
            "durationTicks": 96,
            "midi": 61,
            "name": "C#4",
            "ticks": 93504,
            "time": 129.29192550000002,
            "velocity": 0.7874015748031497
          },
          {
            "duration": 0.1327432500000043,
            "durationTicks": 96,
            "midi": 58,
            "name": "A#3",
            "ticks": 93600,
            "time": 129.42466875,
            "velocity": 0.7874015748031497
          },
          {
            "duration": 0.2654865000000086,
            "durationTicks": 192,
            "midi": 65,
            "name": "F4",
            "ticks": 93696,
            "time": 129.557412,
            "velocity": 0.7874015748031497
          },
          {
            "duration": 0.1327432500000043,
            "durationTicks": 96,
            "midi": 56,
            "name": "G#3",
            "ticks": 93888,
            "time": 129.8228985,
            "velocity": 0.7874015748031497
          },
          {
            "duration": 0.1327432500000043,
            "durationTicks": 96,
            "midi": 58,
            "name": "A#3",
            "ticks": 93984,
            "time": 129.95564175,
            "velocity": 0.7874015748031497
          },
          {
            "duration": 0.1327432500000043,
            "durationTicks": 96,
            "midi": 61,
            "name": "C#4",
            "ticks": 94080,
            "time": 130.08838500000002,
            "velocity": 0.7874015748031497
          },
          {
            "duration": 0.1327432499999759,
            "durationTicks": 96,
            "midi": 58,
            "name": "A#3",
            "ticks": 94176,
            "time": 130.22112825000002,
            "velocity": 0.7874015748031497
          },
          {
            "duration": 0.2654865000000086,
            "durationTicks": 192,
            "midi": 65,
            "name": "F4",
            "ticks": 94272,
            "time": 130.3538715,
            "velocity": 0.7874015748031497
          },
          {
            "duration": 0.1327432500000043,
            "durationTicks": 96,
            "midi": 56,
            "name": "G#3",
            "ticks": 96384,
            "time": 133.274223,
            "velocity": 0.7874015748031497
          },
          {
            "duration": 0.1327432500000043,
            "durationTicks": 96,
            "midi": 58,
            "name": "A#3",
            "ticks": 96480,
            "time": 133.40696625,
            "velocity": 0.7874015748031497
          },
          {
            "duration": 0.1327432500000043,
            "durationTicks": 96,
            "midi": 61,
            "name": "C#4",
            "ticks": 96576,
            "time": 133.53970950000001,
            "velocity": 0.7874015748031497
          },
          {
            "duration": 0.1327432499999759,
            "durationTicks": 96,
            "midi": 58,
            "name": "A#3",
            "ticks": 96672,
            "time": 133.67245275000002,
            "velocity": 0.7874015748031497
          },
          {
            "duration": 0.2654865000000086,
            "durationTicks": 192,
            "midi": 65,
            "name": "F4",
            "ticks": 96768,
            "time": 133.805196,
            "velocity": 0.7874015748031497
          },
          {
            "duration": 0.1327432500000043,
            "durationTicks": 96,
            "midi": 56,
            "name": "G#3",
            "ticks": 96960,
            "time": 134.0706825,
            "velocity": 0.7874015748031497
          },
          {
            "duration": 0.1327432500000043,
            "durationTicks": 96,
            "midi": 58,
            "name": "A#3",
            "ticks": 97056,
            "time": 134.20342575,
            "velocity": 0.7874015748031497
          },
          {
            "duration": 0.1327432500000043,
            "durationTicks": 96,
            "midi": 61,
            "name": "C#4",
            "ticks": 97152,
            "time": 134.336169,
            "velocity": 0.7874015748031497
          },
          {
            "duration": 0.1327432500000043,
            "durationTicks": 96,
            "midi": 58,
            "name": "A#3",
            "ticks": 97248,
            "time": 134.46891225000002,
            "velocity": 0.7874015748031497
          },
          {
            "duration": 0.2654864999999802,
            "durationTicks": 192,
            "midi": 65,
            "name": "F4",
            "ticks": 97344,
            "time": 134.60165550000002,
            "velocity": 0.7874015748031497
          },
          {
            "duration": 0.2654865000000086,
            "durationTicks": 192,
            "midi": 60,
            "name": "C4",
            "ticks": 99456,
            "time": 137.522007,
            "velocity": 0.7874015748031497
          },
          {
            "duration": 0.2654865000000086,
            "durationTicks": 192,
            "midi": 61,
            "name": "C#4",
            "ticks": 99648,
            "time": 137.7874935,
            "velocity": 0.7874015748031497
          },
          {
            "duration": 0.1327432499999759,
            "durationTicks": 96,
            "midi": 58,
            "name": "A#3",
            "ticks": 99840,
            "time": 138.05298000000002,
            "velocity": 0.7874015748031497
          },
          {
            "duration": 0.2654865000000086,
            "durationTicks": 192,
            "midi": 61,
            "name": "C#4",
            "ticks": 100032,
            "time": 138.3184665,
            "velocity": 0.7874015748031497
          },
          {
            "duration": 0.3982297500000129,
            "durationTicks": 288,
            "midi": 63,
            "name": "D#4",
            "ticks": 100224,
            "time": 138.583953,
            "velocity": 0.7874015748031497
          },
          {
            "duration": 0.1327432500000043,
            "durationTicks": 96,
            "midi": 60,
            "name": "C4",
            "ticks": 100992,
            "time": 139.64589900000001,
            "velocity": 0.7874015748031497
          },
          {
            "duration": 0.2654865000000086,
            "durationTicks": 192,
            "midi": 58,
            "name": "A#3",
            "ticks": 101184,
            "time": 139.9113855,
            "velocity": 0.7874015748031497
          },
          {
            "duration": 1.061946000000006,
            "durationTicks": 768,
            "midi": 56,
            "name": "G#3",
            "ticks": 101376,
            "time": 140.176872,
            "velocity": 0.7874015748031497
          },
          {
            "duration": 1.0619459999999776,
            "durationTicks": 768,
            "midi": 56,
            "name": "G#3",
            "ticks": 101760,
            "time": 140.70784500000002,
            "velocity": 0.7874015748031497
          },
          {
            "duration": 0.2654865000000086,
            "durationTicks": 192,
            "midi": 58,
            "name": "A#3",
            "ticks": 102528,
            "time": 141.769791,
            "velocity": 0.7874015748031497
          },
          {
            "duration": 0.1327432500000043,
            "durationTicks": 96,
            "midi": 58,
            "name": "A#3",
            "ticks": 102720,
            "time": 142.0352775,
            "velocity": 0.7874015748031497
          },
          {
            "duration": 0.2654864999999802,
            "durationTicks": 192,
            "midi": 60,
            "name": "C4",
            "ticks": 102912,
            "time": 142.30076400000002,
            "velocity": 0.7874015748031497
          },
          {
            "duration": 0.1327432500000043,
            "durationTicks": 96,
            "midi": 61,
            "name": "C#4",
            "ticks": 103104,
            "time": 142.5662505,
            "velocity": 0.7874015748031497
          },
          {
            "duration": 0.2654865000000086,
            "durationTicks": 192,
            "midi": 58,
            "name": "A#3",
            "ticks": 103296,
            "time": 142.831737,
            "velocity": 0.7874015748031497
          },
          {
            "duration": 0.3982297499999845,
            "durationTicks": 288,
            "midi": 56,
            "name": "G#3",
            "ticks": 103488,
            "time": 143.0972235,
            "velocity": 0.7874015748031497
          },
          {
            "duration": 0.2654865000000086,
            "durationTicks": 192,
            "midi": 68,
            "name": "G#4",
            "ticks": 104064,
            "time": 143.893683,
            "velocity": 0.7874015748031497
          },
          {
            "duration": 0.1327432499999759,
            "durationTicks": 96,
            "midi": 68,
            "name": "G#4",
            "ticks": 104256,
            "time": 144.15916950000002,
            "velocity": 0.7874015748031497
          },
          {
            "duration": 0.3982297500000129,
            "durationTicks": 288,
            "midi": 63,
            "name": "D#4",
            "ticks": 104448,
            "time": 144.424656,
            "velocity": 0.7874015748031497
          },
          {
            "duration": 0.1327432500000043,
            "durationTicks": 96,
            "midi": 65,
            "name": "F4",
            "ticks": 104832,
            "time": 144.95562900000002,
            "velocity": 0.7874015748031497
          },
          {
            "duration": 0.3982297499999845,
            "durationTicks": 288,
            "midi": 63,
            "name": "D#4",
            "ticks": 104832,
            "time": 144.95562900000002,
            "velocity": 0.7874015748031497
          },
          {
            "duration": 0.2654865000000086,
            "durationTicks": 192,
            "midi": 63,
            "name": "D#4",
            "ticks": 105024,
            "time": 145.2211155,
            "velocity": 0.7874015748031497
          },
          {
            "duration": 0.2654865000000086,
            "durationTicks": 192,
            "midi": 61,
            "name": "C#4",
            "ticks": 105216,
            "time": 145.486602,
            "velocity": 0.7874015748031497
          },
          {
            "duration": 0.1327432500000043,
            "durationTicks": 96,
            "midi": 65,
            "name": "F4",
            "ticks": 105216,
            "time": 145.486602,
            "velocity": 0.7874015748031497
          },
          {
            "duration": 0.2654864999999802,
            "durationTicks": 192,
            "midi": 63,
            "name": "D#4",
            "ticks": 105408,
            "time": 145.7520885,
            "velocity": 0.7874015748031497
          },
          {
            "duration": 0.2654865000000086,
            "durationTicks": 192,
            "midi": 61,
            "name": "C#4",
            "ticks": 105600,
            "time": 146.017575,
            "velocity": 0.7874015748031497
          },
          {
            "duration": 0.1327432500000043,
            "durationTicks": 96,
            "midi": 60,
            "name": "C4",
            "ticks": 105600,
            "time": 146.017575,
            "velocity": 0.7874015748031497
          },
          {
            "duration": 0.2654865000000086,
            "durationTicks": 192,
            "midi": 61,
            "name": "C#4",
            "ticks": 105792,
            "time": 146.2830615,
            "velocity": 0.7874015748031497
          },
          {
            "duration": 0.1327432500000043,
            "durationTicks": 96,
            "midi": 58,
            "name": "A#3",
            "ticks": 105984,
            "time": 146.548548,
            "velocity": 0.7874015748031497
          },
          {
            "duration": 0.1327432499999759,
            "durationTicks": 96,
            "midi": 61,
            "name": "C#4",
            "ticks": 106176,
            "time": 146.81403450000002,
            "velocity": 0.7874015748031497
          },
          {
            "duration": 0.2654865000000086,
            "durationTicks": 192,
            "midi": 58,
            "name": "A#3",
            "ticks": 106368,
            "time": 147.079521,
            "velocity": 0.7874015748031497
          },
          {
            "duration": 0.1327432500000043,
            "durationTicks": 96,
            "midi": 61,
            "name": "C#4",
            "ticks": 106560,
            "time": 147.3450075,
            "velocity": 0.7874015748031497
          },
          {
            "duration": 0.1327432500000043,
            "durationTicks": 96,
            "midi": 63,
            "name": "D#4",
            "ticks": 106752,
            "time": 147.61049400000002,
            "velocity": 0.7874015748031497
          },
          {
            "duration": 0.2654865000000086,
            "durationTicks": 192,
            "midi": 60,
            "name": "C4",
            "ticks": 107136,
            "time": 148.141467,
            "velocity": 0.7874015748031497
          },
          {
            "duration": 0.2654864999999802,
            "durationTicks": 192,
            "midi": 58,
            "name": "A#3",
            "ticks": 107328,
            "time": 148.40695350000001,
            "velocity": 0.7874015748031497
          },
          {
            "duration": 0.9292027500000017,
            "durationTicks": 672,
            "midi": 56,
            "name": "G#3",
            "ticks": 107520,
            "time": 148.67244,
            "velocity": 0.7874015748031497
          },
          {
            "duration": 0.9292027500000017,
            "durationTicks": 672,
            "midi": 56,
            "name": "G#3",
            "ticks": 107904,
            "time": 149.203413,
            "velocity": 0.7874015748031497
          },
          {
            "duration": 0.2654864999999802,
            "durationTicks": 192,
            "midi": 58,
            "name": "A#3",
            "ticks": 108672,
            "time": 150.26535900000002,
            "velocity": 0.7874015748031497
          },
          {
            "duration": 0.2654865000000086,
            "durationTicks": 192,
            "midi": 58,
            "name": "A#3",
            "ticks": 108864,
            "time": 150.5308455,
            "velocity": 0.7874015748031497
          },
          {
            "duration": 0.1327432500000043,
            "durationTicks": 96,
            "midi": 60,
            "name": "C4",
            "ticks": 109056,
            "time": 150.796332,
            "velocity": 0.7874015748031497
          },
          {
            "duration": 0.2654864999999802,
            "durationTicks": 192,
            "midi": 61,
            "name": "C#4",
            "ticks": 109248,
            "time": 151.06181850000002,
            "velocity": 0.7874015748031497
          },
          {
            "duration": 0.2654865000000086,
            "durationTicks": 192,
            "midi": 58,
            "name": "A#3",
            "ticks": 109440,
            "time": 151.327305,
            "velocity": 0.7874015748031497
          },
          {
            "duration": 0.3982297500000129,
            "durationTicks": 288,
            "midi": 56,
            "name": "G#3",
            "ticks": 109632,
            "time": 151.5927915,
            "velocity": 0.7874015748031497
          },
          {
            "duration": 0.2654865000000086,
            "durationTicks": 192,
            "midi": 63,
            "name": "D#4",
            "ticks": 110208,
            "time": 152.389251,
            "velocity": 0.7874015748031497
          },
          {
            "duration": 0.1327432500000043,
            "durationTicks": 96,
            "midi": 65,
            "name": "F4",
            "ticks": 110400,
            "time": 152.6547375,
            "velocity": 0.7874015748031497
          },
          {
            "duration": 0.5309729999999888,
            "durationTicks": 384,
            "midi": 65,
            "name": "F4",
            "ticks": 110592,
            "time": 152.92022400000002,
            "velocity": 0.7874015748031497
          },
          {
            "duration": 0.5309729999999888,
            "durationTicks": 384,
            "midi": 65,
            "name": "F4",
            "ticks": 110976,
            "time": 153.451197,
            "velocity": 0.7874015748031497
          },
          {
            "duration": 0.3982297500000129,
            "durationTicks": 288,
            "midi": 63,
            "name": "D#4",
            "ticks": 110976,
            "time": 153.451197,
            "velocity": 0.7874015748031497
          },
          {
            "duration": 0.3982297500000129,
            "durationTicks": 288,
            "midi": 63,
            "name": "D#4",
            "ticks": 111360,
            "time": 153.98217,
            "velocity": 0.7874015748031497
          },
          {
            "duration": 1.3274325000000147,
            "durationTicks": 960,
            "midi": 61,
            "name": "C#4",
            "ticks": 111552,
            "time": 154.2476565,
            "velocity": 0.7874015748031497
          },
          {
            "duration": 0.1327432499999759,
            "durationTicks": 96,
            "midi": 63,
            "name": "D#4",
            "ticks": 112512,
            "time": 155.57508900000002,
            "velocity": 0.7874015748031497
          },
          {
            "duration": 0.2654865000000086,
            "durationTicks": 192,
            "midi": 65,
            "name": "F4",
            "ticks": 112704,
            "time": 155.8405755,
            "velocity": 0.7874015748031497
          },
          {
            "duration": 0.1327432500000043,
            "durationTicks": 96,
            "midi": 61,
            "name": "C#4",
            "ticks": 112896,
            "time": 156.106062,
            "velocity": 0.7874015748031497
          },
          {
            "duration": 0.2654864999999802,
            "durationTicks": 192,
            "midi": 63,
            "name": "D#4",
            "ticks": 113088,
            "time": 156.37154850000002,
            "velocity": 0.7874015748031497
          },
          {
            "duration": 0.2654865000000086,
            "durationTicks": 192,
            "midi": 63,
            "name": "D#4",
            "ticks": 113280,
            "time": 156.637035,
            "velocity": 0.7874015748031497
          },
          {
            "duration": 0.2654865000000086,
            "durationTicks": 192,
            "midi": 63,
            "name": "D#4",
            "ticks": 113472,
            "time": 156.9025215,
            "velocity": 0.7874015748031497
          },
          {
            "duration": 0.2654864999999802,
            "durationTicks": 192,
            "midi": 65,
            "name": "F4",
            "ticks": 113664,
            "time": 157.16800800000001,
            "velocity": 0.7874015748031497
          },
          {
            "duration": 0.5309730000000172,
            "durationTicks": 384,
            "midi": 63,
            "name": "D#4",
            "ticks": 113856,
            "time": 157.4334945,
            "velocity": 0.7874015748031497
          },
          {
            "duration": 0.6637162499999931,
            "durationTicks": 480,
            "midi": 56,
            "name": "G#3",
            "ticks": 114240,
            "time": 157.9644675,
            "velocity": 0.7874015748031497
          },
          {
            "duration": 0.2654865000000086,
            "durationTicks": 192,
            "midi": 58,
            "name": "A#3",
            "ticks": 115392,
            "time": 159.5573865,
            "velocity": 0.7874015748031497
          },
          {
            "duration": 0.2654864999999802,
            "durationTicks": 192,
            "midi": 60,
            "name": "C4",
            "ticks": 115584,
            "time": 159.82287300000002,
            "velocity": 0.7874015748031497
          },
          {
            "duration": 0.2654865000000086,
            "durationTicks": 192,
            "midi": 61,
            "name": "C#4",
            "ticks": 115776,
            "time": 160.0883595,
            "velocity": 0.7874015748031497
          },
          {
            "duration": 0.2654865000000086,
            "durationTicks": 192,
            "midi": 58,
            "name": "A#3",
            "ticks": 115968,
            "time": 160.353846,
            "velocity": 0.7874015748031497
          },
          {
            "duration": 0.2654864999999802,
            "durationTicks": 192,
            "midi": 63,
            "name": "D#4",
            "ticks": 116352,
            "time": 160.88481900000002,
            "velocity": 0.7874015748031497
          },
          {
            "duration": 0.1327432500000043,
            "durationTicks": 96,
            "midi": 65,
            "name": "F4",
            "ticks": 116544,
            "time": 161.1503055,
            "velocity": 0.7874015748031497
          },
          {
            "duration": 0.3982297499999845,
            "durationTicks": 288,
            "midi": 63,
            "name": "D#4",
            "ticks": 116736,
            "time": 161.415792,
            "velocity": 0.7874015748031497
          },
          {
            "duration": 0.3982297500000129,
            "durationTicks": 288,
            "midi": 63,
            "name": "D#4",
            "ticks": 117120,
            "time": 161.946765,
            "velocity": 0.7874015748031497
          },
          {
            "duration": 0.1327432500000043,
            "durationTicks": 96,
            "midi": 56,
            "name": "G#3",
            "ticks": 117312,
            "time": 162.2122515,
            "velocity": 0.7874015748031497
          },
          {
            "duration": 0.1327432500000043,
            "durationTicks": 96,
            "midi": 58,
            "name": "A#3",
            "ticks": 117408,
            "time": 162.34499475,
            "velocity": 0.7874015748031497
          },
          {
            "duration": 0.1327432500000043,
            "durationTicks": 96,
            "midi": 61,
            "name": "C#4",
            "ticks": 117504,
            "time": 162.47773800000002,
            "velocity": 0.7874015748031497
          },
          {
            "duration": 0.1327432499999759,
            "durationTicks": 96,
            "midi": 58,
            "name": "A#3",
            "ticks": 117600,
            "time": 162.61048125000002,
            "velocity": 0.7874015748031497
          },
          {
            "duration": 0.2654865000000086,
            "durationTicks": 192,
            "midi": 65,
            "name": "F4",
            "ticks": 117696,
            "time": 162.7432245,
            "velocity": 0.7874015748031497
          },
          {
            "duration": 0.3982297500000129,
            "durationTicks": 288,
            "midi": 65,
            "name": "F4",
            "ticks": 117984,
            "time": 163.14145425,
            "velocity": 0.7874015748031497
          },
          {
            "duration": 0.5309729999999888,
            "durationTicks": 384,
            "midi": 63,
            "name": "D#4",
            "ticks": 118272,
            "time": 163.53968400000002,
            "velocity": 0.7874015748031497
          },
          {
            "duration": 0.1327432499999759,
            "durationTicks": 96,
            "midi": 56,
            "name": "G#3",
            "ticks": 118848,
            "time": 164.33614350000002,
            "velocity": 0.7874015748031497
          },
          {
            "duration": 0.1327432500000043,
            "durationTicks": 96,
            "midi": 58,
            "name": "A#3",
            "ticks": 118944,
            "time": 164.46888675,
            "velocity": 0.7874015748031497
          },
          {
            "duration": 0.1327432500000043,
            "durationTicks": 96,
            "midi": 60,
            "name": "C4",
            "ticks": 119040,
            "time": 164.60163,
            "velocity": 0.7874015748031497
          },
          {
            "duration": 0.1327432500000043,
            "durationTicks": 96,
            "midi": 58,
            "name": "A#3",
            "ticks": 119136,
            "time": 164.73437325,
            "velocity": 0.7874015748031497
          },
          {
            "duration": 0.2654865000000086,
            "durationTicks": 192,
            "midi": 63,
            "name": "D#4",
            "ticks": 119232,
            "time": 164.8671165,
            "velocity": 0.7874015748031497
          },
          {
            "duration": 0.3982297499999845,
            "durationTicks": 288,
            "midi": 63,
            "name": "D#4",
            "ticks": 119520,
            "time": 165.26534625000002,
            "velocity": 0.7874015748031497
          },
          {
            "duration": 0.5309729999999888,
            "durationTicks": 384,
            "midi": 61,
            "name": "C#4",
            "ticks": 119808,
            "time": 165.663576,
            "velocity": 0.7874015748031497
          },
          {
            "duration": 0.1327432500000043,
            "durationTicks": 96,
            "midi": 56,
            "name": "G#3",
            "ticks": 120384,
            "time": 166.4600355,
            "velocity": 0.7874015748031497
          },
          {
            "duration": 0.1327432500000043,
            "durationTicks": 96,
            "midi": 58,
            "name": "A#3",
            "ticks": 120480,
            "time": 166.59277875,
            "velocity": 0.7874015748031497
          },
          {
            "duration": 0.1327432500000043,
            "durationTicks": 96,
            "midi": 61,
            "name": "C#4",
            "ticks": 120576,
            "time": 166.725522,
            "velocity": 0.7874015748031497
          },
          {
            "duration": 0.1327432500000043,
            "durationTicks": 96,
            "midi": 58,
            "name": "A#3",
            "ticks": 120672,
            "time": 166.85826525000002,
            "velocity": 0.7874015748031497
          },
          {
            "duration": 0.5309729999999888,
            "durationTicks": 384,
            "midi": 61,
            "name": "C#4",
            "ticks": 120768,
            "time": 166.99100850000002,
            "velocity": 0.7874015748031497
          },
          {
            "duration": 0.2654865000000086,
            "durationTicks": 192,
            "midi": 63,
            "name": "D#4",
            "ticks": 121152,
            "time": 167.5219815,
            "velocity": 0.7874015748031497
          },
          {
            "duration": 0.5309729999999888,
            "durationTicks": 384,
            "midi": 58,
            "name": "A#3",
            "ticks": 121344,
            "time": 167.78746800000002,
            "velocity": 0.7874015748031497
          },
          {
            "duration": 0.2654865000000086,
            "durationTicks": 192,
            "midi": 56,
            "name": "G#3",
            "ticks": 121728,
            "time": 168.318441,
            "velocity": 0.7874015748031497
          },
          {
            "duration": 0.2654865000000086,
            "durationTicks": 192,
            "midi": 56,
            "name": "G#3",
            "ticks": 122112,
            "time": 168.849414,
            "velocity": 0.7874015748031497
          },
          {
            "duration": 0.2654865000000086,
            "durationTicks": 192,
            "midi": 63,
            "name": "D#4",
            "ticks": 122304,
            "time": 169.1149005,
            "velocity": 0.7874015748031497
          },
          {
            "duration": 0.5309729999999888,
            "durationTicks": 384,
            "midi": 61,
            "name": "C#4",
            "ticks": 122688,
            "time": 169.64587350000002,
            "velocity": 0.7874015748031497
          },
          {
            "duration": 0.1327432500000043,
            "durationTicks": 96,
            "midi": 56,
            "name": "G#3",
            "ticks": 123456,
            "time": 170.7078195,
            "velocity": 0.7874015748031497
          },
          {
            "duration": 0.1327432500000043,
            "durationTicks": 96,
            "midi": 58,
            "name": "A#3",
            "ticks": 123552,
            "time": 170.84056275,
            "velocity": 0.7874015748031497
          },
          {
            "duration": 0.1327432500000043,
            "durationTicks": 96,
            "midi": 61,
            "name": "C#4",
            "ticks": 123648,
            "time": 170.973306,
            "velocity": 0.7874015748031497
          },
          {
            "duration": 0.1327432500000043,
            "durationTicks": 96,
            "midi": 58,
            "name": "A#3",
            "ticks": 123744,
            "time": 171.10604925,
            "velocity": 0.7874015748031497
          },
          {
            "duration": 0.2654864999999802,
            "durationTicks": 192,
            "midi": 65,
            "name": "F4",
            "ticks": 123840,
            "time": 171.23879250000002,
            "velocity": 0.7874015748031497
          },
          {
            "duration": 0.2654865000000086,
            "durationTicks": 192,
            "midi": 65,
            "name": "F4",
            "ticks": 124128,
            "time": 171.63702225,
            "velocity": 0.7874015748031497
          },
          {
            "duration": 0.5309729999999888,
            "durationTicks": 384,
            "midi": 63,
            "name": "D#4",
            "ticks": 124416,
            "time": 172.035252,
            "velocity": 0.7874015748031497
          },
          {
            "duration": 0.1327432500000043,
            "durationTicks": 96,
            "midi": 56,
            "name": "G#3",
            "ticks": 124992,
            "time": 172.8317115,
            "velocity": 0.7874015748031497
          },
          {
            "duration": 0.1327432500000043,
            "durationTicks": 96,
            "midi": 58,
            "name": "A#3",
            "ticks": 125088,
            "time": 172.96445475000002,
            "velocity": 0.7874015748031497
          },
          {
            "duration": 0.1327432499999759,
            "durationTicks": 96,
            "midi": 60,
            "name": "C4",
            "ticks": 125184,
            "time": 173.09719800000002,
            "velocity": 0.7874015748031497
          },
          {
            "duration": 0.1327432500000043,
            "durationTicks": 96,
            "midi": 58,
            "name": "A#3",
            "ticks": 125280,
            "time": 173.22994125,
            "velocity": 0.7874015748031497
          },
          {
            "duration": 0.5309730000000172,
            "durationTicks": 384,
            "midi": 68,
            "name": "G#4",
            "ticks": 125376,
            "time": 173.3626845,
            "velocity": 0.7874015748031497
          },
          {
            "duration": 0.2654864999999802,
            "durationTicks": 192,
            "midi": 60,
            "name": "C4",
            "ticks": 125760,
            "time": 173.89365750000002,
            "velocity": 0.7874015748031497
          },
          {
            "duration": 0.6637162500000215,
            "durationTicks": 480,
            "midi": 61,
            "name": "C#4",
            "ticks": 125952,
            "time": 174.159144,
            "velocity": 0.7874015748031497
          },
          {
            "duration": 0.1327432500000043,
            "durationTicks": 96,
            "midi": 56,
            "name": "G#3",
            "ticks": 126528,
            "time": 174.9556035,
            "velocity": 0.7874015748031497
          },
          {
            "duration": 0.1327432500000043,
            "durationTicks": 96,
            "midi": 58,
            "name": "A#3",
            "ticks": 126624,
            "time": 175.08834675,
            "velocity": 0.7874015748031497
          },
          {
            "duration": 0.1327432500000043,
            "durationTicks": 96,
            "midi": 61,
            "name": "C#4",
            "ticks": 126720,
            "time": 175.22109,
            "velocity": 0.7874015748031497
          },
          {
            "duration": 0.1327432500000043,
            "durationTicks": 96,
            "midi": 58,
            "name": "A#3",
            "ticks": 126816,
            "time": 175.35383325,
            "velocity": 0.7874015748031497
          },
          {
            "duration": 0.5309729999999888,
            "durationTicks": 384,
            "midi": 61,
            "name": "C#4",
            "ticks": 126912,
            "time": 175.4865765,
            "velocity": 0.7874015748031497
          },
          {
            "duration": 0.2654865000000086,
            "durationTicks": 192,
            "midi": 63,
            "name": "D#4",
            "ticks": 127296,
            "time": 176.0175495,
            "velocity": 0.7874015748031497
          },
          {
            "duration": 0.7964594999999974,
            "durationTicks": 576,
            "midi": 58,
            "name": "A#3",
            "ticks": 127488,
            "time": 176.283036,
            "velocity": 0.7874015748031497
          },
          {
            "duration": 0.2654864999999802,
            "durationTicks": 192,
            "midi": 56,
            "name": "G#3",
            "ticks": 128256,
            "time": 177.34498200000002,
            "velocity": 0.7874015748031497
          },
          {
            "duration": 0.5309730000000172,
            "durationTicks": 384,
            "midi": 61,
            "name": "C#4",
            "ticks": 128448,
            "time": 177.6104685,
            "velocity": 0.7874015748031497
          },
          {
            "duration": 0.5309729999999888,
            "durationTicks": 384,
            "midi": 61,
            "name": "C#4",
            "ticks": 128832,
            "time": 178.1414415,
            "velocity": 0.7874015748031497
          },
          {
            "duration": 0.1327432500000043,
            "durationTicks": 96,
            "midi": 56,
            "name": "G#3",
            "ticks": 129600,
            "time": 179.20338750000002,
            "velocity": 0.7874015748031497
          },
          {
            "duration": 0.1327432499999759,
            "durationTicks": 96,
            "midi": 58,
            "name": "A#3",
            "ticks": 129696,
            "time": 179.33613075000002,
            "velocity": 0.7874015748031497
          },
          {
            "duration": 0.1327432500000043,
            "durationTicks": 96,
            "midi": 61,
            "name": "C#4",
            "ticks": 129792,
            "time": 179.468874,
            "velocity": 0.7874015748031497
          },
          {
            "duration": 0.1327432500000043,
            "durationTicks": 96,
            "midi": 58,
            "name": "A#3",
            "ticks": 129888,
            "time": 179.60161725,
            "velocity": 0.7874015748031497
          },
          {
            "duration": 0.2654865000000086,
            "durationTicks": 192,
            "midi": 65,
            "name": "F4",
            "ticks": 129984,
            "time": 179.7343605,
            "velocity": 0.7874015748031497
          },
          {
            "duration": 0.3982297499999845,
            "durationTicks": 288,
            "midi": 65,
            "name": "F4",
            "ticks": 130272,
            "time": 180.13259025000002,
            "velocity": 0.7874015748031497
          },
          {
            "duration": 0.5309730000000172,
            "durationTicks": 384,
            "midi": 63,
            "name": "D#4",
            "ticks": 130560,
            "time": 180.53082,
            "velocity": 0.7874015748031497
          },
          {
            "duration": 0.1327432500000043,
            "durationTicks": 96,
            "midi": 56,
            "name": "G#3",
            "ticks": 131136,
            "time": 181.3272795,
            "velocity": 0.7874015748031497
          },
          {
            "duration": 0.1327432500000043,
            "durationTicks": 96,
            "midi": 58,
            "name": "A#3",
            "ticks": 131232,
            "time": 181.46002275,
            "velocity": 0.7874015748031497
          },
          {
            "duration": 0.1327432500000043,
            "durationTicks": 96,
            "midi": 60,
            "name": "C4",
            "ticks": 131328,
            "time": 181.592766,
            "velocity": 0.7874015748031497
          },
          {
            "duration": 0.1327432500000043,
            "durationTicks": 96,
            "midi": 58,
            "name": "A#3",
            "ticks": 131424,
            "time": 181.72550925000002,
            "velocity": 0.7874015748031497
          },
          {
            "duration": 0.2654864999999802,
            "durationTicks": 192,
            "midi": 63,
            "name": "D#4",
            "ticks": 131520,
            "time": 181.85825250000002,
            "velocity": 0.7874015748031497
          },
          {
            "duration": 0.3982297500000129,
            "durationTicks": 288,
            "midi": 63,
            "name": "D#4",
            "ticks": 131808,
            "time": 182.25648225,
            "velocity": 0.7874015748031497
          },
          {
            "duration": 0.5309729999999888,
            "durationTicks": 384,
            "midi": 61,
            "name": "C#4",
            "ticks": 132096,
            "time": 182.65471200000002,
            "velocity": 0.7874015748031497
          },
          {
            "duration": 0.1327432500000043,
            "durationTicks": 96,
            "midi": 56,
            "name": "G#3",
            "ticks": 132672,
            "time": 183.45117150000002,
            "velocity": 0.7874015748031497
          },
          {
            "duration": 0.1327432500000043,
            "durationTicks": 96,
            "midi": 58,
            "name": "A#3",
            "ticks": 132768,
            "time": 183.58391475000002,
            "velocity": 0.7874015748031497
          },
          {
            "duration": 0.1327432499999759,
            "durationTicks": 96,
            "midi": 61,
            "name": "C#4",
            "ticks": 132864,
            "time": 183.71665800000002,
            "velocity": 0.7874015748031497
          },
          {
            "duration": 0.1327432500000043,
            "durationTicks": 96,
            "midi": 58,
            "name": "A#3",
            "ticks": 132960,
            "time": 183.84940125,
            "velocity": 0.7874015748031497
          },
          {
            "duration": 0.5309730000000172,
            "durationTicks": 384,
            "midi": 61,
            "name": "C#4",
            "ticks": 133056,
            "time": 183.9821445,
            "velocity": 0.7874015748031497
          },
          {
            "duration": 0.2654864999999802,
            "durationTicks": 192,
            "midi": 63,
            "name": "D#4",
            "ticks": 133440,
            "time": 184.51311750000002,
            "velocity": 0.7874015748031497
          },
          {
            "duration": 0.5309730000000172,
            "durationTicks": 384,
            "midi": 58,
            "name": "A#3",
            "ticks": 133632,
            "time": 184.778604,
            "velocity": 0.7874015748031497
          },
          {
            "duration": 0.2654864999999802,
            "durationTicks": 192,
            "midi": 56,
            "name": "G#3",
            "ticks": 134016,
            "time": 185.30957700000002,
            "velocity": 0.7874015748031497
          },
          {
            "duration": 0.2654865000000086,
            "durationTicks": 192,
            "midi": 56,
            "name": "G#3",
            "ticks": 134400,
            "time": 185.84055,
            "velocity": 0.7874015748031497
          },
          {
            "duration": 0.2654864999999802,
            "durationTicks": 192,
            "midi": 63,
            "name": "D#4",
            "ticks": 134592,
            "time": 186.10603650000002,
            "velocity": 0.7874015748031497
          },
          {
            "duration": 0.5309730000000172,
            "durationTicks": 384,
            "midi": 61,
            "name": "C#4",
            "ticks": 134976,
            "time": 186.6370095,
            "velocity": 0.7874015748031497
          },
          {
            "duration": 0.1327432500000043,
            "durationTicks": 96,
            "midi": 56,
            "name": "G#3",
            "ticks": 135744,
            "time": 187.6989555,
            "velocity": 0.7874015748031497
          },
          {
            "duration": 0.1327432500000043,
            "durationTicks": 96,
            "midi": 58,
            "name": "A#3",
            "ticks": 135840,
            "time": 187.83169875000002,
            "velocity": 0.7874015748031497
          },
          {
            "duration": 0.1327432500000043,
            "durationTicks": 96,
            "midi": 61,
            "name": "C#4",
            "ticks": 135936,
            "time": 187.96444200000002,
            "velocity": 0.7874015748031497
          },
          {
            "duration": 0.1327432499999759,
            "durationTicks": 96,
            "midi": 58,
            "name": "A#3",
            "ticks": 136032,
            "time": 188.09718525000002,
            "velocity": 0.7874015748031497
          },
          {
            "duration": 0.2654865000000086,
            "durationTicks": 192,
            "midi": 65,
            "name": "F4",
            "ticks": 136128,
            "time": 188.2299285,
            "velocity": 0.7874015748031497
          },
          {
            "duration": 0.2654865000000086,
            "durationTicks": 192,
            "midi": 65,
            "name": "F4",
            "ticks": 136416,
            "time": 188.62815825,
            "velocity": 0.7874015748031497
          },
          {
            "duration": 0.5309730000000172,
            "durationTicks": 384,
            "midi": 63,
            "name": "D#4",
            "ticks": 136704,
            "time": 189.026388,
            "velocity": 0.7874015748031497
          },
          {
            "duration": 0.1327432499999759,
            "durationTicks": 96,
            "midi": 56,
            "name": "G#3",
            "ticks": 137280,
            "time": 189.82284750000002,
            "velocity": 0.7874015748031497
          },
          {
            "duration": 0.1327432500000043,
            "durationTicks": 96,
            "midi": 58,
            "name": "A#3",
            "ticks": 137376,
            "time": 189.95559075,
            "velocity": 0.7874015748031497
          },
          {
            "duration": 0.1327432500000043,
            "durationTicks": 96,
            "midi": 60,
            "name": "C4",
            "ticks": 137472,
            "time": 190.088334,
            "velocity": 0.7874015748031497
          },
          {
            "duration": 0.1327432500000043,
            "durationTicks": 96,
            "midi": 58,
            "name": "A#3",
            "ticks": 137568,
            "time": 190.22107725,
            "velocity": 0.7874015748031497
          },
          {
            "duration": 0.5309729999999888,
            "durationTicks": 384,
            "midi": 68,
            "name": "G#4",
            "ticks": 137664,
            "time": 190.3538205,
            "velocity": 0.7874015748031497
          },
          {
            "duration": 0.2654865000000086,
            "durationTicks": 192,
            "midi": 60,
            "name": "C4",
            "ticks": 138048,
            "time": 190.8847935,
            "velocity": 0.7874015748031497
          },
          {
            "duration": 0.6637162499999931,
            "durationTicks": 480,
            "midi": 61,
            "name": "C#4",
            "ticks": 138240,
            "time": 191.15028,
            "velocity": 0.7874015748031497
          },
          {
            "duration": 0.1327432500000043,
            "durationTicks": 96,
            "midi": 56,
            "name": "G#3",
            "ticks": 138816,
            "time": 191.9467395,
            "velocity": 0.7874015748031497
          },
          {
            "duration": 0.1327432500000043,
            "durationTicks": 96,
            "midi": 58,
            "name": "A#3",
            "ticks": 138912,
            "time": 192.07948275,
            "velocity": 0.7874015748031497
          },
          {
            "duration": 0.1327432500000043,
            "durationTicks": 96,
            "midi": 61,
            "name": "C#4",
            "ticks": 139008,
            "time": 192.21222600000002,
            "velocity": 0.7874015748031497
          },
          {
            "duration": 0.1327432500000043,
            "durationTicks": 96,
            "midi": 58,
            "name": "A#3",
            "ticks": 139104,
            "time": 192.34496925000002,
            "velocity": 0.7874015748031497
          },
          {
            "duration": 0.5309729999999888,
            "durationTicks": 384,
            "midi": 61,
            "name": "C#4",
            "ticks": 139200,
            "time": 192.47771250000002,
            "velocity": 0.7874015748031497
          },
          {
            "duration": 0.2654865000000086,
            "durationTicks": 192,
            "midi": 63,
            "name": "D#4",
            "ticks": 139584,
            "time": 193.0086855,
            "velocity": 0.7874015748031497
          },
          {
            "duration": 0.7964594999999974,
            "durationTicks": 576,
            "midi": 58,
            "name": "A#3",
            "ticks": 139776,
            "time": 193.27417200000002,
            "velocity": 0.7874015748031497
          },
          {
            "duration": 0.2654865000000086,
            "durationTicks": 192,
            "midi": 56,
            "name": "G#3",
            "ticks": 140544,
            "time": 194.336118,
            "velocity": 0.7874015748031497
          },
          {
            "duration": 0.5309729999999888,
            "durationTicks": 384,
            "midi": 61,
            "name": "C#4",
            "ticks": 140736,
            "time": 194.6016045,
            "velocity": 0.7874015748031497
          },
          {
            "duration": 0.5309730000000172,
            "durationTicks": 384,
            "midi": 61,
            "name": "C#4",
            "ticks": 141120,
            "time": 195.1325775,
            "velocity": 0.7874015748031497
          },
          {
            "duration": 0.1327432500000043,
            "durationTicks": 96,
            "midi": 56,
            "name": "G#3",
            "ticks": 141888,
            "time": 196.1945235,
            "velocity": 0.7874015748031497
          },
          {
            "duration": 0.1327432500000043,
            "durationTicks": 96,
            "midi": 58,
            "name": "A#3",
            "ticks": 141984,
            "time": 196.32726675,
            "velocity": 0.7874015748031497
          },
          {
            "duration": 0.1327432500000043,
            "durationTicks": 96,
            "midi": 61,
            "name": "C#4",
            "ticks": 142080,
            "time": 196.46001,
            "velocity": 0.7874015748031497
          },
          {
            "duration": 0.1327432500000043,
            "durationTicks": 96,
            "midi": 58,
            "name": "A#3",
            "ticks": 142176,
            "time": 196.59275325000002,
            "velocity": 0.7874015748031497
          },
          {
            "duration": 0.2654864999999802,
            "durationTicks": 192,
            "midi": 65,
            "name": "F4",
            "ticks": 142272,
            "time": 196.72549650000002,
            "velocity": 0.7874015748031497
          },
          {
            "duration": 0.3982297500000129,
            "durationTicks": 288,
            "midi": 65,
            "name": "F4",
            "ticks": 142560,
            "time": 197.12372625,
            "velocity": 0.7874015748031497
          },
          {
            "duration": 0.5309729999999888,
            "durationTicks": 384,
            "midi": 63,
            "name": "D#4",
            "ticks": 142848,
            "time": 197.52195600000002,
            "velocity": 0.7874015748031497
          },
          {
            "duration": 0.1327432500000043,
            "durationTicks": 96,
            "midi": 56,
            "name": "G#3",
            "ticks": 143424,
            "time": 198.31841550000001,
            "velocity": 0.7874015748031497
          },
          {
            "duration": 0.1327432500000043,
            "durationTicks": 96,
            "midi": 58,
            "name": "A#3",
            "ticks": 143520,
            "time": 198.45115875000002,
            "velocity": 0.7874015748031497
          },
          {
            "duration": 0.1327432499999759,
            "durationTicks": 96,
            "midi": 60,
            "name": "C4",
            "ticks": 143616,
            "time": 198.58390200000002,
            "velocity": 0.7874015748031497
          },
          {
            "duration": 0.1327432500000043,
            "durationTicks": 96,
            "midi": 58,
            "name": "A#3",
            "ticks": 143712,
            "time": 198.71664525,
            "velocity": 0.7874015748031497
          },
          {
            "duration": 0.2654865000000086,
            "durationTicks": 192,
            "midi": 63,
            "name": "D#4",
            "ticks": 143808,
            "time": 198.8493885,
            "velocity": 0.7874015748031497
          },
          {
            "duration": 0.3982297499999845,
            "durationTicks": 288,
            "midi": 63,
            "name": "D#4",
            "ticks": 144096,
            "time": 199.24761825000002,
            "velocity": 0.7874015748031497
          },
          {
            "duration": 0.5309730000000172,
            "durationTicks": 384,
            "midi": 61,
            "name": "C#4",
            "ticks": 144384,
            "time": 199.645848,
            "velocity": 0.7874015748031497
          },
          {
            "duration": 0.1327432500000043,
            "durationTicks": 96,
            "midi": 56,
            "name": "G#3",
            "ticks": 144960,
            "time": 200.4423075,
            "velocity": 0.7874015748031497
          },
          {
            "duration": 0.1327432500000043,
            "durationTicks": 96,
            "midi": 58,
            "name": "A#3",
            "ticks": 145056,
            "time": 200.57505075,
            "velocity": 0.7874015748031497
          },
          {
            "duration": 0.1327432500000043,
            "durationTicks": 96,
            "midi": 61,
            "name": "C#4",
            "ticks": 145152,
            "time": 200.707794,
            "velocity": 0.7874015748031497
          },
          {
            "duration": 0.1327432500000043,
            "durationTicks": 96,
            "midi": 58,
            "name": "A#3",
            "ticks": 145248,
            "time": 200.84053725,
            "velocity": 0.7874015748031497
          },
          {
            "duration": 0.5309729999999888,
            "durationTicks": 384,
            "midi": 61,
            "name": "C#4",
            "ticks": 145344,
            "time": 200.97328050000002,
            "velocity": 0.7874015748031497
          },
          {
            "duration": 0.2654865000000086,
            "durationTicks": 192,
            "midi": 63,
            "name": "D#4",
            "ticks": 145728,
            "time": 201.5042535,
            "velocity": 0.7874015748031497
          },
          {
            "duration": 0.5309729999999888,
            "durationTicks": 384,
            "midi": 58,
            "name": "A#3",
            "ticks": 145920,
            "time": 201.76974,
            "velocity": 0.7874015748031497
          },
          {
            "duration": 0.2654865000000086,
            "durationTicks": 192,
            "midi": 56,
            "name": "G#3",
            "ticks": 146304,
            "time": 202.300713,
            "velocity": 0.7874015748031497
          },
          {
            "duration": 0.2654864999999802,
            "durationTicks": 192,
            "midi": 56,
            "name": "G#3",
            "ticks": 146688,
            "time": 202.83168600000002,
            "velocity": 0.7874015748031497
          },
          {
            "duration": 0.2654865000000086,
            "durationTicks": 192,
            "midi": 63,
            "name": "D#4",
            "ticks": 146880,
            "time": 203.0971725,
            "velocity": 0.7874015748031497
          },
          {
            "duration": 0.5309729999999888,
            "durationTicks": 384,
            "midi": 61,
            "name": "C#4",
            "ticks": 147264,
            "time": 203.62814550000002,
            "velocity": 0.7874015748031497
          },
          {
            "duration": 0.1327432499999759,
            "durationTicks": 96,
            "midi": 56,
            "name": "G#3",
            "ticks": 148032,
            "time": 204.69009150000002,
            "velocity": 0.7874015748031497
          },
          {
            "duration": 0.1327432500000043,
            "durationTicks": 96,
            "midi": 58,
            "name": "A#3",
            "ticks": 148128,
            "time": 204.82283475,
            "velocity": 0.7874015748031497
          },
          {
            "duration": 0.1327432500000043,
            "durationTicks": 96,
            "midi": 61,
            "name": "C#4",
            "ticks": 148224,
            "time": 204.955578,
            "velocity": 0.7874015748031497
          },
          {
            "duration": 0.1327432500000043,
            "durationTicks": 96,
            "midi": 58,
            "name": "A#3",
            "ticks": 148320,
            "time": 205.08832125,
            "velocity": 0.7874015748031497
          },
          {
            "duration": 0.2654865000000086,
            "durationTicks": 192,
            "midi": 65,
            "name": "F4",
            "ticks": 148416,
            "time": 205.2210645,
            "velocity": 0.7874015748031497
          },
          {
            "duration": 0.2654864999999802,
            "durationTicks": 192,
            "midi": 65,
            "name": "F4",
            "ticks": 148704,
            "time": 205.61929425000002,
            "velocity": 0.7874015748031497
          },
          {
            "duration": 0.5309729999999888,
            "durationTicks": 384,
            "midi": 63,
            "name": "D#4",
            "ticks": 148992,
            "time": 206.017524,
            "velocity": 0.7874015748031497
          },
          {
            "duration": 0.1327432500000043,
            "durationTicks": 96,
            "midi": 56,
            "name": "G#3",
            "ticks": 149568,
            "time": 206.8139835,
            "velocity": 0.7874015748031497
          },
          {
            "duration": 0.1327432500000043,
            "durationTicks": 96,
            "midi": 58,
            "name": "A#3",
            "ticks": 149664,
            "time": 206.94672675,
            "velocity": 0.7874015748031497
          },
          {
            "duration": 0.1327432500000043,
            "durationTicks": 96,
            "midi": 60,
            "name": "C4",
            "ticks": 149760,
            "time": 207.07947000000001,
            "velocity": 0.7874015748031497
          },
          {
            "duration": 0.1327432500000043,
            "durationTicks": 96,
            "midi": 58,
            "name": "A#3",
            "ticks": 149856,
            "time": 207.21221325000002,
            "velocity": 0.7874015748031497
          },
          {
            "duration": 0.5309729999999888,
            "durationTicks": 384,
            "midi": 68,
            "name": "G#4",
            "ticks": 149952,
            "time": 207.34495650000002,
            "velocity": 0.7874015748031497
          },
          {
            "duration": 0.2654865000000086,
            "durationTicks": 192,
            "midi": 60,
            "name": "C4",
            "ticks": 150336,
            "time": 207.8759295,
            "velocity": 0.7874015748031497
          },
          {
            "duration": 0.6637162499999931,
            "durationTicks": 480,
            "midi": 61,
            "name": "C#4",
            "ticks": 150528,
            "time": 208.14141600000002,
            "velocity": 0.7874015748031497
          },
          {
            "duration": 0.1327432500000043,
            "durationTicks": 96,
            "midi": 56,
            "name": "G#3",
            "ticks": 151104,
            "time": 208.93787550000002,
            "velocity": 0.7874015748031497
          },
          {
            "duration": 0.1327432499999759,
            "durationTicks": 96,
            "midi": 58,
            "name": "A#3",
            "ticks": 151200,
            "time": 209.07061875000002,
            "velocity": 0.7874015748031497
          },
          {
            "duration": 0.1327432500000043,
            "durationTicks": 96,
            "midi": 61,
            "name": "C#4",
            "ticks": 151296,
            "time": 209.203362,
            "velocity": 0.7874015748031497
          },
          {
            "duration": 0.1327432500000043,
            "durationTicks": 96,
            "midi": 58,
            "name": "A#3",
            "ticks": 151392,
            "time": 209.33610525,
            "velocity": 0.7874015748031497
          },
          {
            "duration": 0.5309730000000172,
            "durationTicks": 384,
            "midi": 61,
            "name": "C#4",
            "ticks": 151488,
            "time": 209.4688485,
            "velocity": 0.7874015748031497
          },
          {
            "duration": 0.2654864999999802,
            "durationTicks": 192,
            "midi": 63,
            "name": "D#4",
            "ticks": 151872,
            "time": 209.99982150000002,
            "velocity": 0.7874015748031497
          },
          {
            "duration": 0.7964594999999974,
            "durationTicks": 576,
            "midi": 58,
            "name": "A#3",
            "ticks": 152064,
            "time": 210.265308,
            "velocity": 0.7874015748031497
          },
          {
            "duration": 0.2654865000000086,
            "durationTicks": 192,
            "midi": 56,
            "name": "G#3",
            "ticks": 152832,
            "time": 211.327254,
            "velocity": 0.7874015748031497
          },
          {
            "duration": 0.5309729999999888,
            "durationTicks": 384,
            "midi": 61,
            "name": "C#4",
            "ticks": 153024,
            "time": 211.59274050000002,
            "velocity": 0.7874015748031497
          },
          {
            "duration": 0.5309730000000172,
            "durationTicks": 384,
            "midi": 61,
            "name": "C#4",
            "ticks": 153408,
            "time": 212.1237135,
            "velocity": 0.7874015748031497
          }
        ],
        "endOfTrackTicks": 153792
      },
      {
        "channel": 9,
        "controlChanges": {},
        "pitchBends": [],
        "instrument": {
          "family": "drums",
          "number": 0,
          "name": "standard kit"
        },
        "name": "909 Drum Kit",
        "notes": [
          {
            "duration": 0.1327432500000043,
            "durationTicks": 96,
            "midi": 0,
            "name": "C-1",
            "ticks": 158112,
            "time": 218.62813275000002,
            "velocity": 0.3937007874015748
          }
        ],
        "endOfTrackTicks": 158208
      },
      {
        "channel": 5,
        "controlChanges": {},
        "pitchBends": [],
        "instrument": {
          "family": "piano",
          "number": 0,
          "name": "acoustic grand piano"
        },
        "name": "Electric Piano",
        "notes": [
          {
            "duration": 0.2654865000000015,
            "durationTicks": 192,
            "midi": 73,
            "name": "C#5",
            "ticks": 31680,
            "time": 43.8052725,
            "velocity": 0.7874015748031497
          },
          {
            "duration": 0.2654865000000015,
            "durationTicks": 192,
            "midi": 65,
            "name": "F4",
            "ticks": 31680,
            "time": 43.8052725,
            "velocity": 0.7874015748031497
          },
          {
            "duration": 0.2654865000000015,
            "durationTicks": 192,
            "midi": 68,
            "name": "G#4",
            "ticks": 31680,
            "time": 43.8052725,
            "velocity": 0.7874015748031497
          },
          {
            "duration": 0.3982297500000058,
            "durationTicks": 288,
            "midi": 73,
            "name": "C#5",
            "ticks": 31968,
            "time": 44.20350225,
            "velocity": 0.7874015748031497
          },
          {
            "duration": 0.3982297500000058,
            "durationTicks": 288,
            "midi": 68,
            "name": "G#4",
            "ticks": 31968,
            "time": 44.20350225,
            "velocity": 0.7874015748031497
          },
          {
            "duration": 0.3982297500000058,
            "durationTicks": 288,
            "midi": 65,
            "name": "F4",
            "ticks": 31968,
            "time": 44.20350225,
            "velocity": 0.7874015748031497
          },
          {
            "duration": 0.2654864999999944,
            "durationTicks": 192,
            "midi": 72,
            "name": "C5",
            "ticks": 32256,
            "time": 44.601732000000005,
            "velocity": 0.7874015748031497
          },
          {
            "duration": 0.2654864999999944,
            "durationTicks": 192,
            "midi": 68,
            "name": "G#4",
            "ticks": 32256,
            "time": 44.601732000000005,
            "velocity": 0.7874015748031497
          },
          {
            "duration": 0.2654864999999944,
            "durationTicks": 192,
            "midi": 63,
            "name": "D#4",
            "ticks": 32256,
            "time": 44.601732000000005,
            "velocity": 0.7874015748031497
          },
          {
            "duration": 0.2654864999999944,
            "durationTicks": 192,
            "midi": 68,
            "name": "G#4",
            "ticks": 33216,
            "time": 45.929164500000006,
            "velocity": 0.7874015748031497
          },
          {
            "duration": 0.2654864999999944,
            "durationTicks": 192,
            "midi": 72,
            "name": "C5",
            "ticks": 33216,
            "time": 45.929164500000006,
            "velocity": 0.7874015748031497
          },
          {
            "duration": 0.2654864999999944,
            "durationTicks": 192,
            "midi": 63,
            "name": "D#4",
            "ticks": 33216,
            "time": 45.929164500000006,
            "velocity": 0.7874015748031497
          },
          {
            "duration": 0.3982297499999987,
            "durationTicks": 288,
            "midi": 72,
            "name": "C5",
            "ticks": 33504,
            "time": 46.327394250000005,
            "velocity": 0.7874015748031497
          },
          {
            "duration": 0.3982297499999987,
            "durationTicks": 288,
            "midi": 68,
            "name": "G#4",
            "ticks": 33504,
            "time": 46.327394250000005,
            "velocity": 0.7874015748031497
          },
          {
            "duration": 0.3982297499999987,
            "durationTicks": 288,
            "midi": 63,
            "name": "D#4",
            "ticks": 33504,
            "time": 46.327394250000005,
            "velocity": 0.7874015748031497
          },
          {
            "duration": 0.5309729999999959,
            "durationTicks": 384,
            "midi": 65,
            "name": "F4",
            "ticks": 33792,
            "time": 46.725624,
            "velocity": 0.7874015748031497
          },
          {
            "duration": 0.5309729999999959,
            "durationTicks": 384,
            "midi": 61,
            "name": "C#4",
            "ticks": 33792,
            "time": 46.725624,
            "velocity": 0.7874015748031497
          },
          {
            "duration": 0.5309729999999959,
            "durationTicks": 384,
            "midi": 70,
            "name": "A#4",
            "ticks": 33792,
            "time": 46.725624,
            "velocity": 0.7874015748031497
          },
          {
            "duration": 0.2654865000000015,
            "durationTicks": 192,
            "midi": 63,
            "name": "D#4",
            "ticks": 36096,
            "time": 49.911462,
            "velocity": 0.7874015748031497
          },
          {
            "duration": 0.2654865000000015,
            "durationTicks": 192,
            "midi": 68,
            "name": "G#4",
            "ticks": 36096,
            "time": 49.911462,
            "velocity": 0.7874015748031497
          },
          {
            "duration": 0.2654865000000015,
            "durationTicks": 192,
            "midi": 60,
            "name": "C4",
            "ticks": 36096,
            "time": 49.911462,
            "velocity": 0.7874015748031497
          },
          {
            "duration": 0.2654865000000015,
            "durationTicks": 192,
            "midi": 72,
            "name": "C5",
            "ticks": 36288,
            "time": 50.1769485,
            "velocity": 0.7874015748031497
          },
          {
            "duration": 0.2654865000000015,
            "durationTicks": 192,
            "midi": 68,
            "name": "G#4",
            "ticks": 36288,
            "time": 50.1769485,
            "velocity": 0.7874015748031497
          },
          {
            "duration": 0.2654865000000015,
            "durationTicks": 192,
            "midi": 63,
            "name": "D#4",
            "ticks": 36288,
            "time": 50.1769485,
            "velocity": 0.7874015748031497
          },
          {
            "duration": 0.7964594999999974,
            "durationTicks": 576,
            "midi": 65,
            "name": "F4",
            "ticks": 36672,
            "time": 50.707921500000005,
            "velocity": 0.7874015748031497
          },
          {
            "duration": 0.7964594999999974,
            "durationTicks": 576,
            "midi": 68,
            "name": "G#4",
            "ticks": 36672,
            "time": 50.707921500000005,
            "velocity": 0.7874015748031497
          },
          {
            "duration": 0.7964594999999974,
            "durationTicks": 576,
            "midi": 73,
            "name": "C#5",
            "ticks": 36672,
            "time": 50.707921500000005,
            "velocity": 0.7874015748031497
          },
          {
            "duration": 0.2654865000000015,
            "durationTicks": 192,
            "midi": 65,
            "name": "F4",
            "ticks": 37824,
            "time": 52.3008405,
            "velocity": 0.7874015748031497
          },
          {
            "duration": 0.2654865000000015,
            "durationTicks": 192,
            "midi": 73,
            "name": "C#5",
            "ticks": 37824,
            "time": 52.3008405,
            "velocity": 0.7874015748031497
          },
          {
            "duration": 0.2654865000000015,
            "durationTicks": 192,
            "midi": 68,
            "name": "G#4",
            "ticks": 37824,
            "time": 52.3008405,
            "velocity": 0.7874015748031497
          },
          {
            "duration": 0.2654864999999944,
            "durationTicks": 192,
            "midi": 65,
            "name": "F4",
            "ticks": 38112,
            "time": 52.699070250000005,
            "velocity": 0.7874015748031497
          },
          {
            "duration": 0.2654864999999944,
            "durationTicks": 192,
            "midi": 68,
            "name": "G#4",
            "ticks": 38112,
            "time": 52.699070250000005,
            "velocity": 0.7874015748031497
          },
          {
            "duration": 0.2654864999999944,
            "durationTicks": 192,
            "midi": 73,
            "name": "C#5",
            "ticks": 38112,
            "time": 52.699070250000005,
            "velocity": 0.7874015748031497
          },
          {
            "duration": 0.5309729999999959,
            "durationTicks": 384,
            "midi": 63,
            "name": "D#4",
            "ticks": 38400,
            "time": 53.097300000000004,
            "velocity": 0.7874015748031497
          },
          {
            "duration": 0.5309729999999959,
            "durationTicks": 384,
            "midi": 72,
            "name": "C5",
            "ticks": 38400,
            "time": 53.097300000000004,
            "velocity": 0.7874015748031497
          },
          {
            "duration": 0.5309729999999959,
            "durationTicks": 384,
            "midi": 68,
            "name": "G#4",
            "ticks": 38400,
            "time": 53.097300000000004,
            "velocity": 0.7874015748031497
          },
          {
            "duration": 0.5309729999999959,
            "durationTicks": 384,
            "midi": 63,
            "name": "D#4",
            "ticks": 39360,
            "time": 54.424732500000005,
            "velocity": 0.7874015748031497
          },
          {
            "duration": 0.5309729999999959,
            "durationTicks": 384,
            "midi": 72,
            "name": "C5",
            "ticks": 39360,
            "time": 54.424732500000005,
            "velocity": 0.7874015748031497
          },
          {
            "duration": 0.5309729999999959,
            "durationTicks": 384,
            "midi": 68,
            "name": "G#4",
            "ticks": 39360,
            "time": 54.424732500000005,
            "velocity": 0.7874015748031497
          },
          {
            "duration": 0.2654865000000015,
            "durationTicks": 192,
            "midi": 63,
            "name": "D#4",
            "ticks": 39744,
            "time": 54.9557055,
            "velocity": 0.7874015748031497
          },
          {
            "duration": 0.2654865000000015,
            "durationTicks": 192,
            "midi": 72,
            "name": "C5",
            "ticks": 39744,
            "time": 54.9557055,
            "velocity": 0.7874015748031497
          },
          {
            "duration": 0.2654865000000015,
            "durationTicks": 192,
            "midi": 68,
            "name": "G#4",
            "ticks": 39744,
            "time": 54.9557055,
            "velocity": 0.7874015748031497
          },
          {
            "duration": 0.6637162500000002,
            "durationTicks": 480,
            "midi": 70,
            "name": "A#4",
            "ticks": 39936,
            "time": 55.221192,
            "velocity": 0.7874015748031497
          },
          {
            "duration": 0.6637162500000002,
            "durationTicks": 480,
            "midi": 65,
            "name": "F4",
            "ticks": 39936,
            "time": 55.221192,
            "velocity": 0.7874015748031497
          },
          {
            "duration": 0.6637162500000002,
            "durationTicks": 480,
            "midi": 61,
            "name": "C#4",
            "ticks": 39936,
            "time": 55.221192,
            "velocity": 0.7874015748031497
          },
          {
            "duration": 0.3982297500000058,
            "durationTicks": 288,
            "midi": 72,
            "name": "C5",
            "ticks": 42432,
            "time": 58.6725165,
            "velocity": 0.7874015748031497
          },
          {
            "duration": 0.3982297500000058,
            "durationTicks": 288,
            "midi": 63,
            "name": "D#4",
            "ticks": 42432,
            "time": 58.6725165,
            "velocity": 0.7874015748031497
          },
          {
            "duration": 0.3982297500000058,
            "durationTicks": 288,
            "midi": 68,
            "name": "G#4",
            "ticks": 42432,
            "time": 58.6725165,
            "velocity": 0.7874015748031497
          },
          {
            "duration": 1.061945999999999,
            "durationTicks": 768,
            "midi": 65,
            "name": "F4",
            "ticks": 42816,
            "time": 59.2034895,
            "velocity": 0.7874015748031497
          },
          {
            "duration": 1.061945999999999,
            "durationTicks": 768,
            "midi": 73,
            "name": "C#5",
            "ticks": 42816,
            "time": 59.2034895,
            "velocity": 0.7874015748031497
          },
          {
            "duration": 1.061945999999999,
            "durationTicks": 768,
            "midi": 68,
            "name": "G#4",
            "ticks": 42816,
            "time": 59.2034895,
            "velocity": 0.7874015748031497
          },
          {
            "duration": 0.2654865000000086,
            "durationTicks": 192,
            "midi": 73,
            "name": "C#5",
            "ticks": 62400,
            "time": 86.2831125,
            "velocity": 0.7874015748031497
          },
          {
            "duration": 0.2654865000000086,
            "durationTicks": 192,
            "midi": 65,
            "name": "F4",
            "ticks": 62400,
            "time": 86.2831125,
            "velocity": 0.7874015748031497
          },
          {
            "duration": 0.2654865000000086,
            "durationTicks": 192,
            "midi": 68,
            "name": "G#4",
            "ticks": 62400,
            "time": 86.2831125,
            "velocity": 0.7874015748031497
          },
          {
            "duration": 0.3982297499999987,
            "durationTicks": 288,
            "midi": 68,
            "name": "G#4",
            "ticks": 62688,
            "time": 86.68134225,
            "velocity": 0.7874015748031497
          },
          {
            "duration": 0.3982297499999987,
            "durationTicks": 288,
            "midi": 73,
            "name": "C#5",
            "ticks": 62688,
            "time": 86.68134225,
            "velocity": 0.7874015748031497
          },
          {
            "duration": 0.3982297499999987,
            "durationTicks": 288,
            "midi": 65,
            "name": "F4",
            "ticks": 62688,
            "time": 86.68134225,
            "velocity": 0.7874015748031497
          },
          {
            "duration": 0.2654865000000086,
            "durationTicks": 192,
            "midi": 68,
            "name": "G#4",
            "ticks": 62976,
            "time": 87.079572,
            "velocity": 0.7874015748031497
          },
          {
            "duration": 0.2654865000000086,
            "durationTicks": 192,
            "midi": 72,
            "name": "C5",
            "ticks": 62976,
            "time": 87.079572,
            "velocity": 0.7874015748031497
          },
          {
            "duration": 0.2654865000000086,
            "durationTicks": 192,
            "midi": 63,
            "name": "D#4",
            "ticks": 62976,
            "time": 87.079572,
            "velocity": 0.7874015748031497
          },
          {
            "duration": 0.2654865000000086,
            "durationTicks": 192,
            "midi": 68,
            "name": "G#4",
            "ticks": 63936,
            "time": 88.4070045,
            "velocity": 0.7874015748031497
          },
          {
            "duration": 0.2654865000000086,
            "durationTicks": 192,
            "midi": 72,
            "name": "C5",
            "ticks": 63936,
            "time": 88.4070045,
            "velocity": 0.7874015748031497
          },
          {
            "duration": 0.2654865000000086,
            "durationTicks": 192,
            "midi": 63,
            "name": "D#4",
            "ticks": 63936,
            "time": 88.4070045,
            "velocity": 0.7874015748031497
          },
          {
            "duration": 0.3982297500000129,
            "durationTicks": 288,
            "midi": 68,
            "name": "G#4",
            "ticks": 64224,
            "time": 88.80523425,
            "velocity": 0.7874015748031497
          },
          {
            "duration": 0.3982297500000129,
            "durationTicks": 288,
            "midi": 63,
            "name": "D#4",
            "ticks": 64224,
            "time": 88.80523425,
            "velocity": 0.7874015748031497
          },
          {
            "duration": 0.3982297500000129,
            "durationTicks": 288,
            "midi": 72,
            "name": "C5",
            "ticks": 64224,
            "time": 88.80523425,
            "velocity": 0.7874015748031497
          },
          {
            "duration": 0.5309729999999888,
            "durationTicks": 384,
            "midi": 70,
            "name": "A#4",
            "ticks": 64512,
            "time": 89.20346400000001,
            "velocity": 0.7874015748031497
          },
          {
            "duration": 0.5309729999999888,
            "durationTicks": 384,
            "midi": 65,
            "name": "F4",
            "ticks": 64512,
            "time": 89.20346400000001,
            "velocity": 0.7874015748031497
          },
          {
            "duration": 0.5309729999999888,
            "durationTicks": 384,
            "midi": 61,
            "name": "C#4",
            "ticks": 64512,
            "time": 89.20346400000001,
            "velocity": 0.7874015748031497
          },
          {
            "duration": 0.2654865000000086,
            "durationTicks": 192,
            "midi": 63,
            "name": "D#4",
            "ticks": 66816,
            "time": 92.389302,
            "velocity": 0.7874015748031497
          },
          {
            "duration": 0.2654865000000086,
            "durationTicks": 192,
            "midi": 60,
            "name": "C4",
            "ticks": 66816,
            "time": 92.389302,
            "velocity": 0.7874015748031497
          },
          {
            "duration": 0.2654865000000086,
            "durationTicks": 192,
            "midi": 68,
            "name": "G#4",
            "ticks": 66816,
            "time": 92.389302,
            "velocity": 0.7874015748031497
          },
          {
            "duration": 0.2654864999999944,
            "durationTicks": 192,
            "midi": 63,
            "name": "D#4",
            "ticks": 67008,
            "time": 92.65478850000001,
            "velocity": 0.7874015748031497
          },
          {
            "duration": 0.2654864999999944,
            "durationTicks": 192,
            "midi": 68,
            "name": "G#4",
            "ticks": 67008,
            "time": 92.65478850000001,
            "velocity": 0.7874015748031497
          },
          {
            "duration": 0.2654864999999944,
            "durationTicks": 192,
            "midi": 72,
            "name": "C5",
            "ticks": 67008,
            "time": 92.65478850000001,
            "velocity": 0.7874015748031497
          },
          {
            "duration": 0.7964595000000116,
            "durationTicks": 576,
            "midi": 68,
            "name": "G#4",
            "ticks": 67392,
            "time": 93.1857615,
            "velocity": 0.7874015748031497
          },
          {
            "duration": 0.7964595000000116,
            "durationTicks": 576,
            "midi": 73,
            "name": "C#5",
            "ticks": 67392,
            "time": 93.1857615,
            "velocity": 0.7874015748031497
          },
          {
            "duration": 0.7964595000000116,
            "durationTicks": 576,
            "midi": 65,
            "name": "F4",
            "ticks": 67392,
            "time": 93.1857615,
            "velocity": 0.7874015748031497
          },
          {
            "duration": 0.2654864999999944,
            "durationTicks": 192,
            "midi": 65,
            "name": "F4",
            "ticks": 68544,
            "time": 94.77868050000001,
            "velocity": 0.7874015748031497
          },
          {
            "duration": 0.2654864999999944,
            "durationTicks": 192,
            "midi": 68,
            "name": "G#4",
            "ticks": 68544,
            "time": 94.77868050000001,
            "velocity": 0.7874015748031497
          },
          {
            "duration": 0.2654864999999944,
            "durationTicks": 192,
            "midi": 73,
            "name": "C#5",
            "ticks": 68544,
            "time": 94.77868050000001,
            "velocity": 0.7874015748031497
          },
          {
            "duration": 0.2654864999999944,
            "durationTicks": 192,
            "midi": 68,
            "name": "G#4",
            "ticks": 68832,
            "time": 95.17691025,
            "velocity": 0.7874015748031497
          },
          {
            "duration": 0.2654864999999944,
            "durationTicks": 192,
            "midi": 73,
            "name": "C#5",
            "ticks": 68832,
            "time": 95.17691025,
            "velocity": 0.7874015748031497
          },
          {
            "duration": 0.2654864999999944,
            "durationTicks": 192,
            "midi": 65,
            "name": "F4",
            "ticks": 68832,
            "time": 95.17691025,
            "velocity": 0.7874015748031497
          },
          {
            "duration": 0.530973000000003,
            "durationTicks": 384,
            "midi": 68,
            "name": "G#4",
            "ticks": 69120,
            "time": 95.57514,
            "velocity": 0.7874015748031497
          },
          {
            "duration": 0.530973000000003,
            "durationTicks": 384,
            "midi": 72,
            "name": "C5",
            "ticks": 69120,
            "time": 95.57514,
            "velocity": 0.7874015748031497
          },
          {
            "duration": 0.530973000000003,
            "durationTicks": 384,
            "midi": 63,
            "name": "D#4",
            "ticks": 69120,
            "time": 95.57514,
            "velocity": 0.7874015748031497
          },
          {
            "duration": 0.530973000000003,
            "durationTicks": 384,
            "midi": 63,
            "name": "D#4",
            "ticks": 70080,
            "time": 96.9025725,
            "velocity": 0.7874015748031497
          },
          {
            "duration": 0.530973000000003,
            "durationTicks": 384,
            "midi": 68,
            "name": "G#4",
            "ticks": 70080,
            "time": 96.9025725,
            "velocity": 0.7874015748031497
          },
          {
            "duration": 0.530973000000003,
            "durationTicks": 384,
            "midi": 72,
            "name": "C5",
            "ticks": 70080,
            "time": 96.9025725,
            "velocity": 0.7874015748031497
          },
          {
            "duration": 0.2654864999999944,
            "durationTicks": 192,
            "midi": 68,
            "name": "G#4",
            "ticks": 70464,
            "time": 97.43354550000001,
            "velocity": 0.7874015748031497
          },
          {
            "duration": 0.2654864999999944,
            "durationTicks": 192,
            "midi": 72,
            "name": "C5",
            "ticks": 70464,
            "time": 97.43354550000001,
            "velocity": 0.7874015748031497
          },
          {
            "duration": 0.2654864999999944,
            "durationTicks": 192,
            "midi": 63,
            "name": "D#4",
            "ticks": 70464,
            "time": 97.43354550000001,
            "velocity": 0.7874015748031497
          },
          {
            "duration": 0.6637162500000073,
            "durationTicks": 480,
            "midi": 65,
            "name": "F4",
            "ticks": 70656,
            "time": 97.699032,
            "velocity": 0.7874015748031497
          },
          {
            "duration": 0.6637162500000073,
            "durationTicks": 480,
            "midi": 61,
            "name": "C#4",
            "ticks": 70656,
            "time": 97.699032,
            "velocity": 0.7874015748031497
          },
          {
            "duration": 0.6637162500000073,
            "durationTicks": 480,
            "midi": 70,
            "name": "A#4",
            "ticks": 70656,
            "time": 97.699032,
            "velocity": 0.7874015748031497
          },
          {
            "duration": 0.3982297499999987,
            "durationTicks": 288,
            "midi": 68,
            "name": "G#4",
            "ticks": 73152,
            "time": 101.1503565,
            "velocity": 0.7874015748031497
          },
          {
            "duration": 0.3982297499999987,
            "durationTicks": 288,
            "midi": 72,
            "name": "C5",
            "ticks": 73152,
            "time": 101.1503565,
            "velocity": 0.7874015748031497
          },
          {
            "duration": 0.3982297499999987,
            "durationTicks": 288,
            "midi": 63,
            "name": "D#4",
            "ticks": 73152,
            "time": 101.1503565,
            "velocity": 0.7874015748031497
          },
          {
            "duration": 1.061946000000006,
            "durationTicks": 768,
            "midi": 73,
            "name": "C#5",
            "ticks": 73536,
            "time": 101.6813295,
            "velocity": 0.7874015748031497
          },
          {
            "duration": 1.061946000000006,
            "durationTicks": 768,
            "midi": 65,
            "name": "F4",
            "ticks": 73536,
            "time": 101.6813295,
            "velocity": 0.7874015748031497
          },
          {
            "duration": 1.061946000000006,
            "durationTicks": 768,
            "midi": 68,
            "name": "G#4",
            "ticks": 73536,
            "time": 101.6813295,
            "velocity": 0.7874015748031497
          },
          {
            "duration": 0.2654865000000086,
            "durationTicks": 192,
            "midi": 68,
            "name": "G#4",
            "ticks": 74688,
            "time": 103.2742485,
            "velocity": 0.7874015748031497
          },
          {
            "duration": 0.2654865000000086,
            "durationTicks": 192,
            "midi": 73,
            "name": "C#5",
            "ticks": 74688,
            "time": 103.2742485,
            "velocity": 0.7874015748031497
          },
          {
            "duration": 0.2654865000000086,
            "durationTicks": 192,
            "midi": 65,
            "name": "F4",
            "ticks": 74688,
            "time": 103.2742485,
            "velocity": 0.7874015748031497
          },
          {
            "duration": 0.3982297499999987,
            "durationTicks": 288,
            "midi": 68,
            "name": "G#4",
            "ticks": 74976,
            "time": 103.67247825000001,
            "velocity": 0.7874015748031497
          },
          {
            "duration": 0.3982297499999987,
            "durationTicks": 288,
            "midi": 73,
            "name": "C#5",
            "ticks": 74976,
            "time": 103.67247825000001,
            "velocity": 0.7874015748031497
          },
          {
            "duration": 0.3982297499999987,
            "durationTicks": 288,
            "midi": 65,
            "name": "F4",
            "ticks": 74976,
            "time": 103.67247825000001,
            "velocity": 0.7874015748031497
          },
          {
            "duration": 0.2654864999999944,
            "durationTicks": 192,
            "midi": 68,
            "name": "G#4",
            "ticks": 75264,
            "time": 104.07070800000001,
            "velocity": 0.7874015748031497
          },
          {
            "duration": 0.2654864999999944,
            "durationTicks": 192,
            "midi": 63,
            "name": "D#4",
            "ticks": 75264,
            "time": 104.07070800000001,
            "velocity": 0.7874015748031497
          },
          {
            "duration": 0.2654864999999944,
            "durationTicks": 192,
            "midi": 72,
            "name": "C5",
            "ticks": 75264,
            "time": 104.07070800000001,
            "velocity": 0.7874015748031497
          },
          {
            "duration": 0.2654864999999944,
            "durationTicks": 192,
            "midi": 72,
            "name": "C5",
            "ticks": 76224,
            "time": 105.39814050000001,
            "velocity": 0.7874015748031497
          },
          {
            "duration": 0.2654864999999944,
            "durationTicks": 192,
            "midi": 63,
            "name": "D#4",
            "ticks": 76224,
            "time": 105.39814050000001,
            "velocity": 0.7874015748031497
          },
          {
            "duration": 0.2654864999999944,
            "durationTicks": 192,
            "midi": 68,
            "name": "G#4",
            "ticks": 76224,
            "time": 105.39814050000001,
            "velocity": 0.7874015748031497
          },
          {
            "duration": 0.3982297499999987,
            "durationTicks": 288,
            "midi": 68,
            "name": "G#4",
            "ticks": 76512,
            "time": 105.79637025000001,
            "velocity": 0.7874015748031497
          },
          {
            "duration": 0.3982297499999987,
            "durationTicks": 288,
            "midi": 63,
            "name": "D#4",
            "ticks": 76512,
            "time": 105.79637025000001,
            "velocity": 0.7874015748031497
          },
          {
            "duration": 0.3982297499999987,
            "durationTicks": 288,
            "midi": 72,
            "name": "C5",
            "ticks": 76512,
            "time": 105.79637025000001,
            "velocity": 0.7874015748031497
          },
          {
            "duration": 0.530973000000003,
            "durationTicks": 384,
            "midi": 61,
            "name": "C#4",
            "ticks": 76800,
            "time": 106.19460000000001,
            "velocity": 0.7874015748031497
          },
          {
            "duration": 0.530973000000003,
            "durationTicks": 384,
            "midi": 70,
            "name": "A#4",
            "ticks": 76800,
            "time": 106.19460000000001,
            "velocity": 0.7874015748031497
          },
          {
            "duration": 0.530973000000003,
            "durationTicks": 384,
            "midi": 65,
            "name": "F4",
            "ticks": 76800,
            "time": 106.19460000000001,
            "velocity": 0.7874015748031497
          },
          {
            "duration": 0.2654864999999944,
            "durationTicks": 192,
            "midi": 60,
            "name": "C4",
            "ticks": 79104,
            "time": 109.38043800000001,
            "velocity": 0.7874015748031497
          },
          {
            "duration": 0.2654864999999944,
            "durationTicks": 192,
            "midi": 68,
            "name": "G#4",
            "ticks": 79104,
            "time": 109.38043800000001,
            "velocity": 0.7874015748031497
          },
          {
            "duration": 0.2654864999999944,
            "durationTicks": 192,
            "midi": 63,
            "name": "D#4",
            "ticks": 79104,
            "time": 109.38043800000001,
            "velocity": 0.7874015748031497
          },
          {
            "duration": 0.2654864999999944,
            "durationTicks": 192,
            "midi": 72,
            "name": "C5",
            "ticks": 79296,
            "time": 109.6459245,
            "velocity": 0.7874015748031497
          },
          {
            "duration": 0.2654864999999944,
            "durationTicks": 192,
            "midi": 63,
            "name": "D#4",
            "ticks": 79296,
            "time": 109.6459245,
            "velocity": 0.7874015748031497
          },
          {
            "duration": 0.2654864999999944,
            "durationTicks": 192,
            "midi": 68,
            "name": "G#4",
            "ticks": 79296,
            "time": 109.6459245,
            "velocity": 0.7874015748031497
          },
          {
            "duration": 0.7964594999999974,
            "durationTicks": 576,
            "midi": 73,
            "name": "C#5",
            "ticks": 79680,
            "time": 110.17689750000001,
            "velocity": 0.7874015748031497
          },
          {
            "duration": 0.7964594999999974,
            "durationTicks": 576,
            "midi": 68,
            "name": "G#4",
            "ticks": 79680,
            "time": 110.17689750000001,
            "velocity": 0.7874015748031497
          },
          {
            "duration": 0.7964594999999974,
            "durationTicks": 576,
            "midi": 65,
            "name": "F4",
            "ticks": 79680,
            "time": 110.17689750000001,
            "velocity": 0.7874015748031497
          },
          {
            "duration": 0.2654864999999944,
            "durationTicks": 192,
            "midi": 68,
            "name": "G#4",
            "ticks": 80832,
            "time": 111.7698165,
            "velocity": 0.7874015748031497
          },
          {
            "duration": 0.2654864999999944,
            "durationTicks": 192,
            "midi": 65,
            "name": "F4",
            "ticks": 80832,
            "time": 111.7698165,
            "velocity": 0.7874015748031497
          },
          {
            "duration": 0.2654864999999944,
            "durationTicks": 192,
            "midi": 73,
            "name": "C#5",
            "ticks": 80832,
            "time": 111.7698165,
            "velocity": 0.7874015748031497
          },
          {
            "duration": 0.2654865000000086,
            "durationTicks": 192,
            "midi": 68,
            "name": "G#4",
            "ticks": 81120,
            "time": 112.16804625,
            "velocity": 0.7874015748031497
          },
          {
            "duration": 0.2654865000000086,
            "durationTicks": 192,
            "midi": 65,
            "name": "F4",
            "ticks": 81120,
            "time": 112.16804625,
            "velocity": 0.7874015748031497
          },
          {
            "duration": 0.2654865000000086,
            "durationTicks": 192,
            "midi": 73,
            "name": "C#5",
            "ticks": 81120,
            "time": 112.16804625,
            "velocity": 0.7874015748031497
          },
          {
            "duration": 0.530973000000003,
            "durationTicks": 384,
            "midi": 68,
            "name": "G#4",
            "ticks": 81408,
            "time": 112.566276,
            "velocity": 0.7874015748031497
          },
          {
            "duration": 0.530973000000003,
            "durationTicks": 384,
            "midi": 72,
            "name": "C5",
            "ticks": 81408,
            "time": 112.566276,
            "velocity": 0.7874015748031497
          },
          {
            "duration": 0.530973000000003,
            "durationTicks": 384,
            "midi": 63,
            "name": "D#4",
            "ticks": 81408,
            "time": 112.566276,
            "velocity": 0.7874015748031497
          },
          {
            "duration": 0.530973000000003,
            "durationTicks": 384,
            "midi": 72,
            "name": "C5",
            "ticks": 82368,
            "time": 113.8937085,
            "velocity": 0.7874015748031497
          },
          {
            "duration": 0.530973000000003,
            "durationTicks": 384,
            "midi": 63,
            "name": "D#4",
            "ticks": 82368,
            "time": 113.8937085,
            "velocity": 0.7874015748031497
          },
          {
            "duration": 0.530973000000003,
            "durationTicks": 384,
            "midi": 68,
            "name": "G#4",
            "ticks": 82368,
            "time": 113.8937085,
            "velocity": 0.7874015748031497
          },
          {
            "duration": 0.2654864999999944,
            "durationTicks": 192,
            "midi": 72,
            "name": "C5",
            "ticks": 82752,
            "time": 114.4246815,
            "velocity": 0.7874015748031497
          },
          {
            "duration": 0.2654864999999944,
            "durationTicks": 192,
            "midi": 68,
            "name": "G#4",
            "ticks": 82752,
            "time": 114.4246815,
            "velocity": 0.7874015748031497
          },
          {
            "duration": 0.2654864999999944,
            "durationTicks": 192,
            "midi": 63,
            "name": "D#4",
            "ticks": 82752,
            "time": 114.4246815,
            "velocity": 0.7874015748031497
          },
          {
            "duration": 0.6637162500000073,
            "durationTicks": 480,
            "midi": 70,
            "name": "A#4",
            "ticks": 82944,
            "time": 114.690168,
            "velocity": 0.7874015748031497
          },
          {
            "duration": 0.6637162500000073,
            "durationTicks": 480,
            "midi": 65,
            "name": "F4",
            "ticks": 82944,
            "time": 114.690168,
            "velocity": 0.7874015748031497
          },
          {
            "duration": 0.6637162500000073,
            "durationTicks": 480,
            "midi": 61,
            "name": "C#4",
            "ticks": 82944,
            "time": 114.690168,
            "velocity": 0.7874015748031497
          },
          {
            "duration": 0.3982297499999987,
            "durationTicks": 288,
            "midi": 72,
            "name": "C5",
            "ticks": 85440,
            "time": 118.14149250000001,
            "velocity": 0.7874015748031497
          },
          {
            "duration": 0.3982297499999987,
            "durationTicks": 288,
            "midi": 68,
            "name": "G#4",
            "ticks": 85440,
            "time": 118.14149250000001,
            "velocity": 0.7874015748031497
          },
          {
            "duration": 0.3982297499999987,
            "durationTicks": 288,
            "midi": 63,
            "name": "D#4",
            "ticks": 85440,
            "time": 118.14149250000001,
            "velocity": 0.7874015748031497
          },
          {
            "duration": 1.061946000000006,
            "durationTicks": 768,
            "midi": 73,
            "name": "C#5",
            "ticks": 85824,
            "time": 118.6724655,
            "velocity": 0.7874015748031497
          },
          {
            "duration": 1.061946000000006,
            "durationTicks": 768,
            "midi": 65,
            "name": "F4",
            "ticks": 85824,
            "time": 118.6724655,
            "velocity": 0.7874015748031497
          },
          {
            "duration": 1.061946000000006,
            "durationTicks": 768,
            "midi": 68,
            "name": "G#4",
            "ticks": 85824,
            "time": 118.6724655,
            "velocity": 0.7874015748031497
          },
          {
            "duration": 0.2654864999999944,
            "durationTicks": 192,
            "midi": 65,
            "name": "F4",
            "ticks": 88512,
            "time": 122.38927650000001,
            "velocity": 0.7874015748031497
          },
          {
            "duration": 0.2654864999999944,
            "durationTicks": 192,
            "midi": 73,
            "name": "C#5",
            "ticks": 88512,
            "time": 122.38927650000001,
            "velocity": 0.7874015748031497
          },
          {
            "duration": 0.2654864999999944,
            "durationTicks": 192,
            "midi": 68,
            "name": "G#4",
            "ticks": 88512,
            "time": 122.38927650000001,
            "velocity": 0.7874015748031497
          },
          {
            "duration": 0.3982297499999987,
            "durationTicks": 288,
            "midi": 65,
            "name": "F4",
            "ticks": 88800,
            "time": 122.78750625,
            "velocity": 0.7874015748031497
          },
          {
            "duration": 0.3982297499999987,
            "durationTicks": 288,
            "midi": 68,
            "name": "G#4",
            "ticks": 88800,
            "time": 122.78750625,
            "velocity": 0.7874015748031497
          },
          {
            "duration": 0.3982297499999987,
            "durationTicks": 288,
            "midi": 73,
            "name": "C#5",
            "ticks": 88800,
            "time": 122.78750625,
            "velocity": 0.7874015748031497
          },
          {
            "duration": 0.2654864999999944,
            "durationTicks": 192,
            "midi": 68,
            "name": "G#4",
            "ticks": 89088,
            "time": 123.185736,
            "velocity": 0.7874015748031497
          },
          {
            "duration": 0.2654864999999944,
            "durationTicks": 192,
            "midi": 63,
            "name": "D#4",
            "ticks": 89088,
            "time": 123.185736,
            "velocity": 0.7874015748031497
          },
          {
            "duration": 0.2654864999999944,
            "durationTicks": 192,
            "midi": 72,
            "name": "C5",
            "ticks": 89088,
            "time": 123.185736,
            "velocity": 0.7874015748031497
          },
          {
            "duration": 0.2654865000000086,
            "durationTicks": 192,
            "midi": 73,
            "name": "C#5",
            "ticks": 91584,
            "time": 126.6370605,
            "velocity": 0.7874015748031497
          },
          {
            "duration": 0.2654865000000086,
            "durationTicks": 192,
            "midi": 65,
            "name": "F4",
            "ticks": 91584,
            "time": 126.6370605,
            "velocity": 0.7874015748031497
          },
          {
            "duration": 0.2654865000000086,
            "durationTicks": 192,
            "midi": 68,
            "name": "G#4",
            "ticks": 91584,
            "time": 126.6370605,
            "velocity": 0.7874015748031497
          },
          {
            "duration": 0.3982297499999987,
            "durationTicks": 288,
            "midi": 68,
            "name": "G#4",
            "ticks": 91872,
            "time": 127.03529025,
            "velocity": 0.7874015748031497
          },
          {
            "duration": 0.3982297499999987,
            "durationTicks": 288,
            "midi": 73,
            "name": "C#5",
            "ticks": 91872,
            "time": 127.03529025,
            "velocity": 0.7874015748031497
          },
          {
            "duration": 0.3982297499999987,
            "durationTicks": 288,
            "midi": 65,
            "name": "F4",
            "ticks": 91872,
            "time": 127.03529025,
            "velocity": 0.7874015748031497
          },
          {
            "duration": 0.2654865000000086,
            "durationTicks": 192,
            "midi": 72,
            "name": "C5",
            "ticks": 92160,
            "time": 127.43352,
            "velocity": 0.7874015748031497
          },
          {
            "duration": 0.2654865000000086,
            "durationTicks": 192,
            "midi": 63,
            "name": "D#4",
            "ticks": 92160,
            "time": 127.43352,
            "velocity": 0.7874015748031497
          },
          {
            "duration": 0.2654865000000086,
            "durationTicks": 192,
            "midi": 68,
            "name": "G#4",
            "ticks": 92160,
            "time": 127.43352,
            "velocity": 0.7874015748031497
          },
          {
            "duration": 0.2654864999999802,
            "durationTicks": 192,
            "midi": 68,
            "name": "G#4",
            "ticks": 94656,
            "time": 130.8848445,
            "velocity": 0.7874015748031497
          },
          {
            "duration": 0.2654864999999802,
            "durationTicks": 192,
            "midi": 65,
            "name": "F4",
            "ticks": 94656,
            "time": 130.8848445,
            "velocity": 0.7874015748031497
          },
          {
            "duration": 0.2654864999999802,
            "durationTicks": 192,
            "midi": 73,
            "name": "C#5",
            "ticks": 94656,
            "time": 130.8848445,
            "velocity": 0.7874015748031497
          },
          {
            "duration": 0.3982297500000129,
            "durationTicks": 288,
            "midi": 68,
            "name": "G#4",
            "ticks": 94944,
            "time": 131.28307425,
            "velocity": 0.7874015748031497
          },
          {
            "duration": 0.3982297500000129,
            "durationTicks": 288,
            "midi": 73,
            "name": "C#5",
            "ticks": 94944,
            "time": 131.28307425,
            "velocity": 0.7874015748031497
          },
          {
            "duration": 0.3982297500000129,
            "durationTicks": 288,
            "midi": 65,
            "name": "F4",
            "ticks": 94944,
            "time": 131.28307425,
            "velocity": 0.7874015748031497
          },
          {
            "duration": 0.2654865000000086,
            "durationTicks": 192,
            "midi": 72,
            "name": "C5",
            "ticks": 95232,
            "time": 131.681304,
            "velocity": 0.7874015748031497
          },
          {
            "duration": 0.2654865000000086,
            "durationTicks": 192,
            "midi": 63,
            "name": "D#4",
            "ticks": 95232,
            "time": 131.681304,
            "velocity": 0.7874015748031497
          },
          {
            "duration": 0.2654865000000086,
            "durationTicks": 192,
            "midi": 68,
            "name": "G#4",
            "ticks": 95232,
            "time": 131.681304,
            "velocity": 0.7874015748031497
          },
          {
            "duration": 0.2654865000000086,
            "durationTicks": 192,
            "midi": 73,
            "name": "C#5",
            "ticks": 97728,
            "time": 135.1326285,
            "velocity": 0.7874015748031497
          },
          {
            "duration": 0.2654865000000086,
            "durationTicks": 192,
            "midi": 65,
            "name": "F4",
            "ticks": 97728,
            "time": 135.1326285,
            "velocity": 0.7874015748031497
          },
          {
            "duration": 0.2654865000000086,
            "durationTicks": 192,
            "midi": 68,
            "name": "G#4",
            "ticks": 97728,
            "time": 135.1326285,
            "velocity": 0.7874015748031497
          },
          {
            "duration": 0.3982297500000129,
            "durationTicks": 288,
            "midi": 65,
            "name": "F4",
            "ticks": 98016,
            "time": 135.53085825,
            "velocity": 0.7874015748031497
          },
          {
            "duration": 0.3982297500000129,
            "durationTicks": 288,
            "midi": 73,
            "name": "C#5",
            "ticks": 98016,
            "time": 135.53085825,
            "velocity": 0.7874015748031497
          },
          {
            "duration": 0.3982297500000129,
            "durationTicks": 288,
            "midi": 68,
            "name": "G#4",
            "ticks": 98016,
            "time": 135.53085825,
            "velocity": 0.7874015748031497
          },
          {
            "duration": 0.2654865000000086,
            "durationTicks": 192,
            "midi": 63,
            "name": "D#4",
            "ticks": 98304,
            "time": 135.929088,
            "velocity": 0.7874015748031497
          },
          {
            "duration": 0.2654865000000086,
            "durationTicks": 192,
            "midi": 72,
            "name": "C5",
            "ticks": 98304,
            "time": 135.929088,
            "velocity": 0.7874015748031497
          },
          {
            "duration": 0.2654865000000086,
            "durationTicks": 192,
            "midi": 68,
            "name": "G#4",
            "ticks": 98304,
            "time": 135.929088,
            "velocity": 0.7874015748031497
          },
          {
            "duration": 0.2654865000000086,
            "durationTicks": 192,
            "midi": 73,
            "name": "C#5",
            "ticks": 117696,
            "time": 162.7432245,
            "velocity": 0.7874015748031497
          },
          {
            "duration": 0.2654865000000086,
            "durationTicks": 192,
            "midi": 65,
            "name": "F4",
            "ticks": 117696,
            "time": 162.7432245,
            "velocity": 0.7874015748031497
          },
          {
            "duration": 0.2654865000000086,
            "durationTicks": 192,
            "midi": 68,
            "name": "G#4",
            "ticks": 117696,
            "time": 162.7432245,
            "velocity": 0.7874015748031497
          },
          {
            "duration": 0.3982297500000129,
            "durationTicks": 288,
            "midi": 73,
            "name": "C#5",
            "ticks": 117984,
            "time": 163.14145425,
            "velocity": 0.7874015748031497
          },
          {
            "duration": 0.3982297500000129,
            "durationTicks": 288,
            "midi": 65,
            "name": "F4",
            "ticks": 117984,
            "time": 163.14145425,
            "velocity": 0.7874015748031497
          },
          {
            "duration": 0.3982297500000129,
            "durationTicks": 288,
            "midi": 68,
            "name": "G#4",
            "ticks": 117984,
            "time": 163.14145425,
            "velocity": 0.7874015748031497
          },
          {
            "duration": 0.2654864999999802,
            "durationTicks": 192,
            "midi": 63,
            "name": "D#4",
            "ticks": 118272,
            "time": 163.53968400000002,
            "velocity": 0.7874015748031497
          },
          {
            "duration": 0.2654864999999802,
            "durationTicks": 192,
            "midi": 72,
            "name": "C5",
            "ticks": 118272,
            "time": 163.53968400000002,
            "velocity": 0.7874015748031497
          },
          {
            "duration": 0.2654864999999802,
            "durationTicks": 192,
            "midi": 68,
            "name": "G#4",
            "ticks": 118272,
            "time": 163.53968400000002,
            "velocity": 0.7874015748031497
          },
          {
            "duration": 0.2654865000000086,
            "durationTicks": 192,
            "midi": 72,
            "name": "C5",
            "ticks": 119232,
            "time": 164.8671165,
            "velocity": 0.7874015748031497
          },
          {
            "duration": 0.2654865000000086,
            "durationTicks": 192,
            "midi": 68,
            "name": "G#4",
            "ticks": 119232,
            "time": 164.8671165,
            "velocity": 0.7874015748031497
          },
          {
            "duration": 0.2654865000000086,
            "durationTicks": 192,
            "midi": 63,
            "name": "D#4",
            "ticks": 119232,
            "time": 164.8671165,
            "velocity": 0.7874015748031497
          },
          {
            "duration": 0.3982297499999845,
            "durationTicks": 288,
            "midi": 72,
            "name": "C5",
            "ticks": 119520,
            "time": 165.26534625000002,
            "velocity": 0.7874015748031497
          },
          {
            "duration": 0.3982297499999845,
            "durationTicks": 288,
            "midi": 68,
            "name": "G#4",
            "ticks": 119520,
            "time": 165.26534625000002,
            "velocity": 0.7874015748031497
          },
          {
            "duration": 0.3982297499999845,
            "durationTicks": 288,
            "midi": 63,
            "name": "D#4",
            "ticks": 119520,
            "time": 165.26534625000002,
            "velocity": 0.7874015748031497
          },
          {
            "duration": 0.5309729999999888,
            "durationTicks": 384,
            "midi": 65,
            "name": "F4",
            "ticks": 119808,
            "time": 165.663576,
            "velocity": 0.7874015748031497
          },
          {
            "duration": 0.5309729999999888,
            "durationTicks": 384,
            "midi": 61,
            "name": "C#4",
            "ticks": 119808,
            "time": 165.663576,
            "velocity": 0.7874015748031497
          },
          {
            "duration": 0.5309729999999888,
            "durationTicks": 384,
            "midi": 70,
            "name": "A#4",
            "ticks": 119808,
            "time": 165.663576,
            "velocity": 0.7874015748031497
          },
          {
            "duration": 0.2654865000000086,
            "durationTicks": 192,
            "midi": 63,
            "name": "D#4",
            "ticks": 122112,
            "time": 168.849414,
            "velocity": 0.7874015748031497
          },
          {
            "duration": 0.2654865000000086,
            "durationTicks": 192,
            "midi": 68,
            "name": "G#4",
            "ticks": 122112,
            "time": 168.849414,
            "velocity": 0.7874015748031497
          },
          {
            "duration": 0.2654865000000086,
            "durationTicks": 192,
            "midi": 60,
            "name": "C4",
            "ticks": 122112,
            "time": 168.849414,
            "velocity": 0.7874015748031497
          },
          {
            "duration": 0.2654865000000086,
            "durationTicks": 192,
            "midi": 68,
            "name": "G#4",
            "ticks": 122304,
            "time": 169.1149005,
            "velocity": 0.7874015748031497
          },
          {
            "duration": 0.2654865000000086,
            "durationTicks": 192,
            "midi": 72,
            "name": "C5",
            "ticks": 122304,
            "time": 169.1149005,
            "velocity": 0.7874015748031497
          },
          {
            "duration": 0.2654865000000086,
            "durationTicks": 192,
            "midi": 63,
            "name": "D#4",
            "ticks": 122304,
            "time": 169.1149005,
            "velocity": 0.7874015748031497
          },
          {
            "duration": 0.7964594999999974,
            "durationTicks": 576,
            "midi": 73,
            "name": "C#5",
            "ticks": 122688,
            "time": 169.64587350000002,
            "velocity": 0.7874015748031497
          },
          {
            "duration": 0.7964594999999974,
            "durationTicks": 576,
            "midi": 68,
            "name": "G#4",
            "ticks": 122688,
            "time": 169.64587350000002,
            "velocity": 0.7874015748031497
          },
          {
            "duration": 0.7964594999999974,
            "durationTicks": 576,
            "midi": 65,
            "name": "F4",
            "ticks": 122688,
            "time": 169.64587350000002,
            "velocity": 0.7874015748031497
          },
          {
            "duration": 0.2654864999999802,
            "durationTicks": 192,
            "midi": 65,
            "name": "F4",
            "ticks": 123840,
            "time": 171.23879250000002,
            "velocity": 0.7874015748031497
          },
          {
            "duration": 0.2654864999999802,
            "durationTicks": 192,
            "midi": 73,
            "name": "C#5",
            "ticks": 123840,
            "time": 171.23879250000002,
            "velocity": 0.7874015748031497
          },
          {
            "duration": 0.2654864999999802,
            "durationTicks": 192,
            "midi": 68,
            "name": "G#4",
            "ticks": 123840,
            "time": 171.23879250000002,
            "velocity": 0.7874015748031497
          },
          {
            "duration": 0.2654865000000086,
            "durationTicks": 192,
            "midi": 65,
            "name": "F4",
            "ticks": 124128,
            "time": 171.63702225,
            "velocity": 0.7874015748031497
          },
          {
            "duration": 0.2654865000000086,
            "durationTicks": 192,
            "midi": 73,
            "name": "C#5",
            "ticks": 124128,
            "time": 171.63702225,
            "velocity": 0.7874015748031497
          },
          {
            "duration": 0.2654865000000086,
            "durationTicks": 192,
            "midi": 68,
            "name": "G#4",
            "ticks": 124128,
            "time": 171.63702225,
            "velocity": 0.7874015748031497
          },
          {
            "duration": 0.5309729999999888,
            "durationTicks": 384,
            "midi": 63,
            "name": "D#4",
            "ticks": 124416,
            "time": 172.035252,
            "velocity": 0.7874015748031497
          },
          {
            "duration": 0.5309729999999888,
            "durationTicks": 384,
            "midi": 68,
            "name": "G#4",
            "ticks": 124416,
            "time": 172.035252,
            "velocity": 0.7874015748031497
          },
          {
            "duration": 0.5309729999999888,
            "durationTicks": 384,
            "midi": 72,
            "name": "C5",
            "ticks": 124416,
            "time": 172.035252,
            "velocity": 0.7874015748031497
          },
          {
            "duration": 0.5309730000000172,
            "durationTicks": 384,
            "midi": 68,
            "name": "G#4",
            "ticks": 125376,
            "time": 173.3626845,
            "velocity": 0.7874015748031497
          },
          {
            "duration": 0.5309730000000172,
            "durationTicks": 384,
            "midi": 72,
            "name": "C5",
            "ticks": 125376,
            "time": 173.3626845,
            "velocity": 0.7874015748031497
          },
          {
            "duration": 0.5309730000000172,
            "durationTicks": 384,
            "midi": 63,
            "name": "D#4",
            "ticks": 125376,
            "time": 173.3626845,
            "velocity": 0.7874015748031497
          },
          {
            "duration": 0.2654864999999802,
            "durationTicks": 192,
            "midi": 63,
            "name": "D#4",
            "ticks": 125760,
            "time": 173.89365750000002,
            "velocity": 0.7874015748031497
          },
          {
            "duration": 0.2654864999999802,
            "durationTicks": 192,
            "midi": 72,
            "name": "C5",
            "ticks": 125760,
            "time": 173.89365750000002,
            "velocity": 0.7874015748031497
          },
          {
            "duration": 0.2654864999999802,
            "durationTicks": 192,
            "midi": 68,
            "name": "G#4",
            "ticks": 125760,
            "time": 173.89365750000002,
            "velocity": 0.7874015748031497
          },
          {
            "duration": 0.6637162500000215,
            "durationTicks": 480,
            "midi": 61,
            "name": "C#4",
            "ticks": 125952,
            "time": 174.159144,
            "velocity": 0.7874015748031497
          },
          {
            "duration": 0.6637162500000215,
            "durationTicks": 480,
            "midi": 70,
            "name": "A#4",
            "ticks": 125952,
            "time": 174.159144,
            "velocity": 0.7874015748031497
          },
          {
            "duration": 0.6637162500000215,
            "durationTicks": 480,
            "midi": 65,
            "name": "F4",
            "ticks": 125952,
            "time": 174.159144,
            "velocity": 0.7874015748031497
          },
          {
            "duration": 0.3982297500000129,
            "durationTicks": 288,
            "midi": 63,
            "name": "D#4",
            "ticks": 128448,
            "time": 177.6104685,
            "velocity": 0.7874015748031497
          },
          {
            "duration": 0.3982297500000129,
            "durationTicks": 288,
            "midi": 68,
            "name": "G#4",
            "ticks": 128448,
            "time": 177.6104685,
            "velocity": 0.7874015748031497
          },
          {
            "duration": 0.3982297500000129,
            "durationTicks": 288,
            "midi": 72,
            "name": "C5",
            "ticks": 128448,
            "time": 177.6104685,
            "velocity": 0.7874015748031497
          },
          {
            "duration": 1.061946000000006,
            "durationTicks": 768,
            "midi": 65,
            "name": "F4",
            "ticks": 128832,
            "time": 178.1414415,
            "velocity": 0.7874015748031497
          },
          {
            "duration": 1.061946000000006,
            "durationTicks": 768,
            "midi": 68,
            "name": "G#4",
            "ticks": 128832,
            "time": 178.1414415,
            "velocity": 0.7874015748031497
          },
          {
            "duration": 1.061946000000006,
            "durationTicks": 768,
            "midi": 73,
            "name": "C#5",
            "ticks": 128832,
            "time": 178.1414415,
            "velocity": 0.7874015748031497
          },
          {
            "duration": 0.2654865000000086,
            "durationTicks": 192,
            "midi": 68,
            "name": "G#4",
            "ticks": 129984,
            "time": 179.7343605,
            "velocity": 0.7874015748031497
          },
          {
            "duration": 0.2654865000000086,
            "durationTicks": 192,
            "midi": 65,
            "name": "F4",
            "ticks": 129984,
            "time": 179.7343605,
            "velocity": 0.7874015748031497
          },
          {
            "duration": 0.2654865000000086,
            "durationTicks": 192,
            "midi": 73,
            "name": "C#5",
            "ticks": 129984,
            "time": 179.7343605,
            "velocity": 0.7874015748031497
          },
          {
            "duration": 0.3982297499999845,
            "durationTicks": 288,
            "midi": 68,
            "name": "G#4",
            "ticks": 130272,
            "time": 180.13259025000002,
            "velocity": 0.7874015748031497
          },
          {
            "duration": 0.3982297499999845,
            "durationTicks": 288,
            "midi": 73,
            "name": "C#5",
            "ticks": 130272,
            "time": 180.13259025000002,
            "velocity": 0.7874015748031497
          },
          {
            "duration": 0.3982297499999845,
            "durationTicks": 288,
            "midi": 65,
            "name": "F4",
            "ticks": 130272,
            "time": 180.13259025000002,
            "velocity": 0.7874015748031497
          },
          {
            "duration": 0.2654865000000086,
            "durationTicks": 192,
            "midi": 68,
            "name": "G#4",
            "ticks": 130560,
            "time": 180.53082,
            "velocity": 0.7874015748031497
          },
          {
            "duration": 0.2654865000000086,
            "durationTicks": 192,
            "midi": 72,
            "name": "C5",
            "ticks": 130560,
            "time": 180.53082,
            "velocity": 0.7874015748031497
          },
          {
            "duration": 0.2654865000000086,
            "durationTicks": 192,
            "midi": 63,
            "name": "D#4",
            "ticks": 130560,
            "time": 180.53082,
            "velocity": 0.7874015748031497
          },
          {
            "duration": 0.2654864999999802,
            "durationTicks": 192,
            "midi": 68,
            "name": "G#4",
            "ticks": 131520,
            "time": 181.85825250000002,
            "velocity": 0.7874015748031497
          },
          {
            "duration": 0.2654864999999802,
            "durationTicks": 192,
            "midi": 72,
            "name": "C5",
            "ticks": 131520,
            "time": 181.85825250000002,
            "velocity": 0.7874015748031497
          },
          {
            "duration": 0.2654864999999802,
            "durationTicks": 192,
            "midi": 63,
            "name": "D#4",
            "ticks": 131520,
            "time": 181.85825250000002,
            "velocity": 0.7874015748031497
          },
          {
            "duration": 0.3982297500000129,
            "durationTicks": 288,
            "midi": 72,
            "name": "C5",
            "ticks": 131808,
            "time": 182.25648225,
            "velocity": 0.7874015748031497
          },
          {
            "duration": 0.3982297500000129,
            "durationTicks": 288,
            "midi": 68,
            "name": "G#4",
            "ticks": 131808,
            "time": 182.25648225,
            "velocity": 0.7874015748031497
          },
          {
            "duration": 0.3982297500000129,
            "durationTicks": 288,
            "midi": 63,
            "name": "D#4",
            "ticks": 131808,
            "time": 182.25648225,
            "velocity": 0.7874015748031497
          },
          {
            "duration": 0.5309729999999888,
            "durationTicks": 384,
            "midi": 65,
            "name": "F4",
            "ticks": 132096,
            "time": 182.65471200000002,
            "velocity": 0.7874015748031497
          },
          {
            "duration": 0.5309729999999888,
            "durationTicks": 384,
            "midi": 61,
            "name": "C#4",
            "ticks": 132096,
            "time": 182.65471200000002,
            "velocity": 0.7874015748031497
          },
          {
            "duration": 0.5309729999999888,
            "durationTicks": 384,
            "midi": 70,
            "name": "A#4",
            "ticks": 132096,
            "time": 182.65471200000002,
            "velocity": 0.7874015748031497
          },
          {
            "duration": 0.2654865000000086,
            "durationTicks": 192,
            "midi": 60,
            "name": "C4",
            "ticks": 134400,
            "time": 185.84055,
            "velocity": 0.7874015748031497
          },
          {
            "duration": 0.2654865000000086,
            "durationTicks": 192,
            "midi": 68,
            "name": "G#4",
            "ticks": 134400,
            "time": 185.84055,
            "velocity": 0.7874015748031497
          },
          {
            "duration": 0.2654865000000086,
            "durationTicks": 192,
            "midi": 63,
            "name": "D#4",
            "ticks": 134400,
            "time": 185.84055,
            "velocity": 0.7874015748031497
          },
          {
            "duration": 0.2654864999999802,
            "durationTicks": 192,
            "midi": 68,
            "name": "G#4",
            "ticks": 134592,
            "time": 186.10603650000002,
            "velocity": 0.7874015748031497
          },
          {
            "duration": 0.2654864999999802,
            "durationTicks": 192,
            "midi": 72,
            "name": "C5",
            "ticks": 134592,
            "time": 186.10603650000002,
            "velocity": 0.7874015748031497
          },
          {
            "duration": 0.2654864999999802,
            "durationTicks": 192,
            "midi": 63,
            "name": "D#4",
            "ticks": 134592,
            "time": 186.10603650000002,
            "velocity": 0.7874015748031497
          },
          {
            "duration": 0.7964594999999974,
            "durationTicks": 576,
            "midi": 73,
            "name": "C#5",
            "ticks": 134976,
            "time": 186.6370095,
            "velocity": 0.7874015748031497
          },
          {
            "duration": 0.7964594999999974,
            "durationTicks": 576,
            "midi": 65,
            "name": "F4",
            "ticks": 134976,
            "time": 186.6370095,
            "velocity": 0.7874015748031497
          },
          {
            "duration": 0.7964594999999974,
            "durationTicks": 576,
            "midi": 68,
            "name": "G#4",
            "ticks": 134976,
            "time": 186.6370095,
            "velocity": 0.7874015748031497
          },
          {
            "duration": 0.2654865000000086,
            "durationTicks": 192,
            "midi": 65,
            "name": "F4",
            "ticks": 136128,
            "time": 188.2299285,
            "velocity": 0.7874015748031497
          },
          {
            "duration": 0.2654865000000086,
            "durationTicks": 192,
            "midi": 68,
            "name": "G#4",
            "ticks": 136128,
            "time": 188.2299285,
            "velocity": 0.7874015748031497
          },
          {
            "duration": 0.2654865000000086,
            "durationTicks": 192,
            "midi": 73,
            "name": "C#5",
            "ticks": 136128,
            "time": 188.2299285,
            "velocity": 0.7874015748031497
          },
          {
            "duration": 0.2654865000000086,
            "durationTicks": 192,
            "midi": 68,
            "name": "G#4",
            "ticks": 136416,
            "time": 188.62815825,
            "velocity": 0.7874015748031497
          },
          {
            "duration": 0.2654865000000086,
            "durationTicks": 192,
            "midi": 65,
            "name": "F4",
            "ticks": 136416,
            "time": 188.62815825,
            "velocity": 0.7874015748031497
          },
          {
            "duration": 0.2654865000000086,
            "durationTicks": 192,
            "midi": 73,
            "name": "C#5",
            "ticks": 136416,
            "time": 188.62815825,
            "velocity": 0.7874015748031497
          },
          {
            "duration": 0.5309730000000172,
            "durationTicks": 384,
            "midi": 72,
            "name": "C5",
            "ticks": 136704,
            "time": 189.026388,
            "velocity": 0.7874015748031497
          },
          {
            "duration": 0.5309730000000172,
            "durationTicks": 384,
            "midi": 63,
            "name": "D#4",
            "ticks": 136704,
            "time": 189.026388,
            "velocity": 0.7874015748031497
          },
          {
            "duration": 0.5309730000000172,
            "durationTicks": 384,
            "midi": 68,
            "name": "G#4",
            "ticks": 136704,
            "time": 189.026388,
            "velocity": 0.7874015748031497
          },
          {
            "duration": 0.5309729999999888,
            "durationTicks": 384,
            "midi": 72,
            "name": "C5",
            "ticks": 137664,
            "time": 190.3538205,
            "velocity": 0.7874015748031497
          },
          {
            "duration": 0.5309729999999888,
            "durationTicks": 384,
            "midi": 63,
            "name": "D#4",
            "ticks": 137664,
            "time": 190.3538205,
            "velocity": 0.7874015748031497
          },
          {
            "duration": 0.5309729999999888,
            "durationTicks": 384,
            "midi": 68,
            "name": "G#4",
            "ticks": 137664,
            "time": 190.3538205,
            "velocity": 0.7874015748031497
          },
          {
            "duration": 0.2654865000000086,
            "durationTicks": 192,
            "midi": 68,
            "name": "G#4",
            "ticks": 138048,
            "time": 190.8847935,
            "velocity": 0.7874015748031497
          },
          {
            "duration": 0.2654865000000086,
            "durationTicks": 192,
            "midi": 63,
            "name": "D#4",
            "ticks": 138048,
            "time": 190.8847935,
            "velocity": 0.7874015748031497
          },
          {
            "duration": 0.2654865000000086,
            "durationTicks": 192,
            "midi": 72,
            "name": "C5",
            "ticks": 138048,
            "time": 190.8847935,
            "velocity": 0.7874015748031497
          },
          {
            "duration": 0.6637162499999931,
            "durationTicks": 480,
            "midi": 61,
            "name": "C#4",
            "ticks": 138240,
            "time": 191.15028,
            "velocity": 0.7874015748031497
          },
          {
            "duration": 0.6637162499999931,
            "durationTicks": 480,
            "midi": 70,
            "name": "A#4",
            "ticks": 138240,
            "time": 191.15028,
            "velocity": 0.7874015748031497
          },
          {
            "duration": 0.6637162499999931,
            "durationTicks": 480,
            "midi": 65,
            "name": "F4",
            "ticks": 138240,
            "time": 191.15028,
            "velocity": 0.7874015748031497
          },
          {
            "duration": 0.3982297500000129,
            "durationTicks": 288,
            "midi": 68,
            "name": "G#4",
            "ticks": 140736,
            "time": 194.6016045,
            "velocity": 0.7874015748031497
          },
          {
            "duration": 0.3982297500000129,
            "durationTicks": 288,
            "midi": 72,
            "name": "C5",
            "ticks": 140736,
            "time": 194.6016045,
            "velocity": 0.7874015748031497
          },
          {
            "duration": 0.3982297500000129,
            "durationTicks": 288,
            "midi": 63,
            "name": "D#4",
            "ticks": 140736,
            "time": 194.6016045,
            "velocity": 0.7874015748031497
          },
          {
            "duration": 1.061946000000006,
            "durationTicks": 768,
            "midi": 73,
            "name": "C#5",
            "ticks": 141120,
            "time": 195.1325775,
            "velocity": 0.7874015748031497
          },
          {
            "duration": 1.061946000000006,
            "durationTicks": 768,
            "midi": 65,
            "name": "F4",
            "ticks": 141120,
            "time": 195.1325775,
            "velocity": 0.7874015748031497
          },
          {
            "duration": 1.061946000000006,
            "durationTicks": 768,
            "midi": 68,
            "name": "G#4",
            "ticks": 141120,
            "time": 195.1325775,
            "velocity": 0.7874015748031497
          },
          {
            "duration": 0.2654864999999802,
            "durationTicks": 192,
            "midi": 65,
            "name": "F4",
            "ticks": 142272,
            "time": 196.72549650000002,
            "velocity": 0.7874015748031497
          },
          {
            "duration": 0.2654864999999802,
            "durationTicks": 192,
            "midi": 73,
            "name": "C#5",
            "ticks": 142272,
            "time": 196.72549650000002,
            "velocity": 0.7874015748031497
          },
          {
            "duration": 0.2654864999999802,
            "durationTicks": 192,
            "midi": 68,
            "name": "G#4",
            "ticks": 142272,
            "time": 196.72549650000002,
            "velocity": 0.7874015748031497
          },
          {
            "duration": 0.3982297500000129,
            "durationTicks": 288,
            "midi": 65,
            "name": "F4",
            "ticks": 142560,
            "time": 197.12372625,
            "velocity": 0.7874015748031497
          },
          {
            "duration": 0.3982297500000129,
            "durationTicks": 288,
            "midi": 68,
            "name": "G#4",
            "ticks": 142560,
            "time": 197.12372625,
            "velocity": 0.7874015748031497
          },
          {
            "duration": 0.3982297500000129,
            "durationTicks": 288,
            "midi": 73,
            "name": "C#5",
            "ticks": 142560,
            "time": 197.12372625,
            "velocity": 0.7874015748031497
          },
          {
            "duration": 0.2654864999999802,
            "durationTicks": 192,
            "midi": 63,
            "name": "D#4",
            "ticks": 142848,
            "time": 197.52195600000002,
            "velocity": 0.7874015748031497
          },
          {
            "duration": 0.2654864999999802,
            "durationTicks": 192,
            "midi": 72,
            "name": "C5",
            "ticks": 142848,
            "time": 197.52195600000002,
            "velocity": 0.7874015748031497
          },
          {
            "duration": 0.2654864999999802,
            "durationTicks": 192,
            "midi": 68,
            "name": "G#4",
            "ticks": 142848,
            "time": 197.52195600000002,
            "velocity": 0.7874015748031497
          },
          {
            "duration": 0.2654865000000086,
            "durationTicks": 192,
            "midi": 68,
            "name": "G#4",
            "ticks": 143808,
            "time": 198.8493885,
            "velocity": 0.7874015748031497
          },
          {
            "duration": 0.2654865000000086,
            "durationTicks": 192,
            "midi": 72,
            "name": "C5",
            "ticks": 143808,
            "time": 198.8493885,
            "velocity": 0.7874015748031497
          },
          {
            "duration": 0.2654865000000086,
            "durationTicks": 192,
            "midi": 63,
            "name": "D#4",
            "ticks": 143808,
            "time": 198.8493885,
            "velocity": 0.7874015748031497
          },
          {
            "duration": 0.3982297499999845,
            "durationTicks": 288,
            "midi": 72,
            "name": "C5",
            "ticks": 144096,
            "time": 199.24761825000002,
            "velocity": 0.7874015748031497
          },
          {
            "duration": 0.3982297499999845,
            "durationTicks": 288,
            "midi": 63,
            "name": "D#4",
            "ticks": 144096,
            "time": 199.24761825000002,
            "velocity": 0.7874015748031497
          },
          {
            "duration": 0.3982297499999845,
            "durationTicks": 288,
            "midi": 68,
            "name": "G#4",
            "ticks": 144096,
            "time": 199.24761825000002,
            "velocity": 0.7874015748031497
          },
          {
            "duration": 0.5309730000000172,
            "durationTicks": 384,
            "midi": 70,
            "name": "A#4",
            "ticks": 144384,
            "time": 199.645848,
            "velocity": 0.7874015748031497
          },
          {
            "duration": 0.5309730000000172,
            "durationTicks": 384,
            "midi": 65,
            "name": "F4",
            "ticks": 144384,
            "time": 199.645848,
            "velocity": 0.7874015748031497
          },
          {
            "duration": 0.5309730000000172,
            "durationTicks": 384,
            "midi": 61,
            "name": "C#4",
            "ticks": 144384,
            "time": 199.645848,
            "velocity": 0.7874015748031497
          },
          {
            "duration": 0.2654864999999802,
            "durationTicks": 192,
            "midi": 60,
            "name": "C4",
            "ticks": 146688,
            "time": 202.83168600000002,
            "velocity": 0.7874015748031497
          },
          {
            "duration": 0.2654864999999802,
            "durationTicks": 192,
            "midi": 63,
            "name": "D#4",
            "ticks": 146688,
            "time": 202.83168600000002,
            "velocity": 0.7874015748031497
          },
          {
            "duration": 0.2654864999999802,
            "durationTicks": 192,
            "midi": 68,
            "name": "G#4",
            "ticks": 146688,
            "time": 202.83168600000002,
            "velocity": 0.7874015748031497
          },
          {
            "duration": 0.2654865000000086,
            "durationTicks": 192,
            "midi": 63,
            "name": "D#4",
            "ticks": 146880,
            "time": 203.0971725,
            "velocity": 0.7874015748031497
          },
          {
            "duration": 0.2654865000000086,
            "durationTicks": 192,
            "midi": 72,
            "name": "C5",
            "ticks": 146880,
            "time": 203.0971725,
            "velocity": 0.7874015748031497
          },
          {
            "duration": 0.2654865000000086,
            "durationTicks": 192,
            "midi": 68,
            "name": "G#4",
            "ticks": 146880,
            "time": 203.0971725,
            "velocity": 0.7874015748031497
          },
          {
            "duration": 0.7964594999999974,
            "durationTicks": 576,
            "midi": 68,
            "name": "G#4",
            "ticks": 147264,
            "time": 203.62814550000002,
            "velocity": 0.7874015748031497
          },
          {
            "duration": 0.7964594999999974,
            "durationTicks": 576,
            "midi": 73,
            "name": "C#5",
            "ticks": 147264,
            "time": 203.62814550000002,
            "velocity": 0.7874015748031497
          },
          {
            "duration": 0.7964594999999974,
            "durationTicks": 576,
            "midi": 65,
            "name": "F4",
            "ticks": 147264,
            "time": 203.62814550000002,
            "velocity": 0.7874015748031497
          },
          {
            "duration": 0.2654865000000086,
            "durationTicks": 192,
            "midi": 68,
            "name": "G#4",
            "ticks": 148416,
            "time": 205.2210645,
            "velocity": 0.7874015748031497
          },
          {
            "duration": 0.2654865000000086,
            "durationTicks": 192,
            "midi": 65,
            "name": "F4",
            "ticks": 148416,
            "time": 205.2210645,
            "velocity": 0.7874015748031497
          },
          {
            "duration": 0.2654865000000086,
            "durationTicks": 192,
            "midi": 73,
            "name": "C#5",
            "ticks": 148416,
            "time": 205.2210645,
            "velocity": 0.7874015748031497
          },
          {
            "duration": 0.2654864999999802,
            "durationTicks": 192,
            "midi": 65,
            "name": "F4",
            "ticks": 148704,
            "time": 205.61929425000002,
            "velocity": 0.7874015748031497
          },
          {
            "duration": 0.2654864999999802,
            "durationTicks": 192,
            "midi": 68,
            "name": "G#4",
            "ticks": 148704,
            "time": 205.61929425000002,
            "velocity": 0.7874015748031497
          },
          {
            "duration": 0.2654864999999802,
            "durationTicks": 192,
            "midi": 73,
            "name": "C#5",
            "ticks": 148704,
            "time": 205.61929425000002,
            "velocity": 0.7874015748031497
          },
          {
            "duration": 0.5309729999999888,
            "durationTicks": 384,
            "midi": 72,
            "name": "C5",
            "ticks": 148992,
            "time": 206.017524,
            "velocity": 0.7874015748031497
          },
          {
            "duration": 0.5309729999999888,
            "durationTicks": 384,
            "midi": 63,
            "name": "D#4",
            "ticks": 148992,
            "time": 206.017524,
            "velocity": 0.7874015748031497
          },
          {
            "duration": 0.5309729999999888,
            "durationTicks": 384,
            "midi": 68,
            "name": "G#4",
            "ticks": 148992,
            "time": 206.017524,
            "velocity": 0.7874015748031497
          },
          {
            "duration": 0.5309729999999888,
            "durationTicks": 384,
            "midi": 63,
            "name": "D#4",
            "ticks": 149952,
            "time": 207.34495650000002,
            "velocity": 0.7874015748031497
          },
          {
            "duration": 0.5309729999999888,
            "durationTicks": 384,
            "midi": 68,
            "name": "G#4",
            "ticks": 149952,
            "time": 207.34495650000002,
            "velocity": 0.7874015748031497
          },
          {
            "duration": 0.5309729999999888,
            "durationTicks": 384,
            "midi": 72,
            "name": "C5",
            "ticks": 149952,
            "time": 207.34495650000002,
            "velocity": 0.7874015748031497
          },
          {
            "duration": 0.2654865000000086,
            "durationTicks": 192,
            "midi": 72,
            "name": "C5",
            "ticks": 150336,
            "time": 207.8759295,
            "velocity": 0.7874015748031497
          },
          {
            "duration": 0.2654865000000086,
            "durationTicks": 192,
            "midi": 63,
            "name": "D#4",
            "ticks": 150336,
            "time": 207.8759295,
            "velocity": 0.7874015748031497
          },
          {
            "duration": 0.2654865000000086,
            "durationTicks": 192,
            "midi": 68,
            "name": "G#4",
            "ticks": 150336,
            "time": 207.8759295,
            "velocity": 0.7874015748031497
          },
          {
            "duration": 0.6637162499999931,
            "durationTicks": 480,
            "midi": 70,
            "name": "A#4",
            "ticks": 150528,
            "time": 208.14141600000002,
            "velocity": 0.7874015748031497
          },
          {
            "duration": 0.6637162499999931,
            "durationTicks": 480,
            "midi": 61,
            "name": "C#4",
            "ticks": 150528,
            "time": 208.14141600000002,
            "velocity": 0.7874015748031497
          },
          {
            "duration": 0.6637162499999931,
            "durationTicks": 480,
            "midi": 65,
            "name": "F4",
            "ticks": 150528,
            "time": 208.14141600000002,
            "velocity": 0.7874015748031497
          },
          {
            "duration": 0.3982297499999845,
            "durationTicks": 288,
            "midi": 72,
            "name": "C5",
            "ticks": 153024,
            "time": 211.59274050000002,
            "velocity": 0.7874015748031497
          },
          {
            "duration": 0.3982297499999845,
            "durationTicks": 288,
            "midi": 63,
            "name": "D#4",
            "ticks": 153024,
            "time": 211.59274050000002,
            "velocity": 0.7874015748031497
          },
          {
            "duration": 0.3982297499999845,
            "durationTicks": 288,
            "midi": 68,
            "name": "G#4",
            "ticks": 153024,
            "time": 211.59274050000002,
            "velocity": 0.7874015748031497
          },
          {
            "duration": 1.061946000000006,
            "durationTicks": 768,
            "midi": 65,
            "name": "F4",
            "ticks": 153408,
            "time": 212.1237135,
            "velocity": 0.7874015748031497
          },
          {
            "duration": 1.061946000000006,
            "durationTicks": 768,
            "midi": 68,
            "name": "G#4",
            "ticks": 153408,
            "time": 212.1237135,
            "velocity": 0.7874015748031497
          },
          {
            "duration": 1.061946000000006,
            "durationTicks": 768,
            "midi": 73,
            "name": "C#5",
            "ticks": 153408,
            "time": 212.1237135,
            "velocity": 0.7874015748031497
          }
        ],
        "endOfTrackTicks": 154176
      },
      {
        "channel": 6,
        "controlChanges": {},
        "pitchBends": [],
        "instrument": {
          "family": "strings",
          "number": 40,
          "name": "violin"
        },
        "name": "Violin (Sustain)",
        "notes": [
          {
            "duration": 0.13274325000000076,
            "durationTicks": 96,
            "midi": 80,
            "name": "G#5",
            "ticks": 6528,
            "time": 9.026541,
            "velocity": 0.3937007874015748
          },
          {
            "duration": 0.13274325000000076,
            "durationTicks": 96,
            "midi": 68,
            "name": "G#4",
            "ticks": 6528,
            "time": 9.026541,
            "velocity": 0.3937007874015748
          },
          {
            "duration": 0.13274324999999898,
            "durationTicks": 96,
            "midi": 80,
            "name": "G#5",
            "ticks": 6624,
            "time": 9.15928425,
            "velocity": 0.29133858267716534
          },
          {
            "duration": 0.13274324999999898,
            "durationTicks": 96,
            "midi": 68,
            "name": "G#4",
            "ticks": 6624,
            "time": 9.15928425,
            "velocity": 0.29133858267716534
          },
          {
            "duration": 0.13274325000000076,
            "durationTicks": 96,
            "midi": 68,
            "name": "G#4",
            "ticks": 6720,
            "time": 9.2920275,
            "velocity": 0.3937007874015748
          },
          {
            "duration": 0.13274325000000076,
            "durationTicks": 96,
            "midi": 80,
            "name": "G#5",
            "ticks": 6720,
            "time": 9.2920275,
            "velocity": 0.3937007874015748
          },
          {
            "duration": 0.13274325000000076,
            "durationTicks": 96,
            "midi": 82,
            "name": "A#5",
            "ticks": 6720,
            "time": 9.2920275,
            "velocity": 0.3937007874015748
          },
          {
            "duration": 0.13274325000000076,
            "durationTicks": 96,
            "midi": 70,
            "name": "A#4",
            "ticks": 6720,
            "time": 9.2920275,
            "velocity": 0.3937007874015748
          },
          {
            "duration": 0.13274325000000076,
            "durationTicks": 96,
            "midi": 68,
            "name": "G#4",
            "ticks": 6816,
            "time": 9.42477075,
            "velocity": 0.29133858267716534
          },
          {
            "duration": 0.13274325000000076,
            "durationTicks": 96,
            "midi": 85,
            "name": "C#6",
            "ticks": 6816,
            "time": 9.42477075,
            "velocity": 0.3937007874015748
          },
          {
            "duration": 0.13274325000000076,
            "durationTicks": 96,
            "midi": 73,
            "name": "C#5",
            "ticks": 6816,
            "time": 9.42477075,
            "velocity": 0.3937007874015748
          },
          {
            "duration": 0.13274325000000076,
            "durationTicks": 96,
            "midi": 80,
            "name": "G#5",
            "ticks": 6816,
            "time": 9.42477075,
            "velocity": 0.29133858267716534
          },
          {
            "duration": 0.13274324999999898,
            "durationTicks": 96,
            "midi": 70,
            "name": "A#4",
            "ticks": 6912,
            "time": 9.557514000000001,
            "velocity": 0.3937007874015748
          },
          {
            "duration": 0.13274324999999898,
            "durationTicks": 96,
            "midi": 82,
            "name": "A#5",
            "ticks": 6912,
            "time": 9.557514000000001,
            "velocity": 0.3937007874015748
          },
          {
            "duration": 0.13274325000000076,
            "durationTicks": 96,
            "midi": 73,
            "name": "C#5",
            "ticks": 7008,
            "time": 9.69025725,
            "velocity": 0.3937007874015748
          },
          {
            "duration": 0.13274325000000076,
            "durationTicks": 96,
            "midi": 85,
            "name": "C#6",
            "ticks": 7008,
            "time": 9.69025725,
            "velocity": 0.3937007874015748
          },
          {
            "duration": 0.13274325000000076,
            "durationTicks": 96,
            "midi": 73,
            "name": "C#5",
            "ticks": 7008,
            "time": 9.69025725,
            "velocity": 0.3937007874015748
          },
          {
            "duration": 0.13274325000000076,
            "durationTicks": 96,
            "midi": 85,
            "name": "C#6",
            "ticks": 7008,
            "time": 9.69025725,
            "velocity": 0.3937007874015748
          },
          {
            "duration": 0.13274325000000076,
            "durationTicks": 96,
            "midi": 73,
            "name": "C#5",
            "ticks": 7200,
            "time": 9.95574375,
            "velocity": 0.3937007874015748
          },
          {
            "duration": 0.13274325000000076,
            "durationTicks": 96,
            "midi": 85,
            "name": "C#6",
            "ticks": 7200,
            "time": 9.95574375,
            "velocity": 0.3937007874015748
          },
          {
            "duration": 0.1327432499999972,
            "durationTicks": 96,
            "midi": 85,
            "name": "C#6",
            "ticks": 12480,
            "time": 17.256622500000002,
            "velocity": 0.3937007874015748
          },
          {
            "duration": 0.1327432499999972,
            "durationTicks": 96,
            "midi": 73,
            "name": "C#5",
            "ticks": 12480,
            "time": 17.256622500000002,
            "velocity": 0.3937007874015748
          },
          {
            "duration": 0.13274325000000076,
            "durationTicks": 96,
            "midi": 73,
            "name": "C#5",
            "ticks": 12576,
            "time": 17.38936575,
            "velocity": 0.3937007874015748
          },
          {
            "duration": 0.13274325000000076,
            "durationTicks": 96,
            "midi": 85,
            "name": "C#6",
            "ticks": 12576,
            "time": 17.38936575,
            "velocity": 0.3937007874015748
          },
          {
            "duration": 0.13274325000000076,
            "durationTicks": 96,
            "midi": 85,
            "name": "C#6",
            "ticks": 12672,
            "time": 17.522109,
            "velocity": 0.3937007874015748
          },
          {
            "duration": 0.13274325000000076,
            "durationTicks": 96,
            "midi": 73,
            "name": "C#5",
            "ticks": 12672,
            "time": 17.522109,
            "velocity": 0.3937007874015748
          },
          {
            "duration": 0.13274325000000076,
            "durationTicks": 96,
            "midi": 85,
            "name": "C#6",
            "ticks": 12768,
            "time": 17.65485225,
            "velocity": 0.3937007874015748
          },
          {
            "duration": 0.13274325000000076,
            "durationTicks": 96,
            "midi": 73,
            "name": "C#5",
            "ticks": 12768,
            "time": 17.65485225,
            "velocity": 0.3937007874015748
          },
          {
            "duration": 0.13274325000000076,
            "durationTicks": 96,
            "midi": 85,
            "name": "C#6",
            "ticks": 12864,
            "time": 17.787595500000002,
            "velocity": 0.3937007874015748
          },
          {
            "duration": 0.13274325000000076,
            "durationTicks": 96,
            "midi": 73,
            "name": "C#5",
            "ticks": 12864,
            "time": 17.787595500000002,
            "velocity": 0.3937007874015748
          },
          {
            "duration": 0.1327432499999972,
            "durationTicks": 96,
            "midi": 73,
            "name": "C#5",
            "ticks": 12960,
            "time": 17.920338750000003,
            "velocity": 0.3937007874015748
          },
          {
            "duration": 0.1327432499999972,
            "durationTicks": 96,
            "midi": 85,
            "name": "C#6",
            "ticks": 12960,
            "time": 17.920338750000003,
            "velocity": 0.3937007874015748
          },
          {
            "duration": 0.13274325000000076,
            "durationTicks": 96,
            "midi": 85,
            "name": "C#6",
            "ticks": 13056,
            "time": 18.053082,
            "velocity": 0.3937007874015748
          },
          {
            "duration": 0.13274325000000076,
            "durationTicks": 96,
            "midi": 73,
            "name": "C#5",
            "ticks": 13056,
            "time": 18.053082,
            "velocity": 0.3937007874015748
          },
          {
            "duration": 0.13274325000000076,
            "durationTicks": 96,
            "midi": 73,
            "name": "C#5",
            "ticks": 13152,
            "time": 18.18582525,
            "velocity": 0.3937007874015748
          },
          {
            "duration": 0.13274325000000076,
            "durationTicks": 96,
            "midi": 85,
            "name": "C#6",
            "ticks": 13152,
            "time": 18.18582525,
            "velocity": 0.3937007874015748
          },
          {
            "duration": 0.13274325000000076,
            "durationTicks": 96,
            "midi": 73,
            "name": "C#5",
            "ticks": 13152,
            "time": 18.18582525,
            "velocity": 0.3937007874015748
          },
          {
            "duration": 0.13274325000000076,
            "durationTicks": 96,
            "midi": 85,
            "name": "C#6",
            "ticks": 13152,
            "time": 18.18582525,
            "velocity": 0.3937007874015748
          },
          {
            "duration": 0.1327432499999972,
            "durationTicks": 96,
            "midi": 85,
            "name": "C#6",
            "ticks": 13344,
            "time": 18.451311750000002,
            "velocity": 0.3937007874015748
          },
          {
            "duration": 0.1327432499999972,
            "durationTicks": 96,
            "midi": 73,
            "name": "C#5",
            "ticks": 13344,
            "time": 18.451311750000002,
            "velocity": 0.3937007874015748
          },
          {
            "duration": 2.1238920000000014,
            "durationTicks": 1536,
            "midi": 80,
            "name": "G#5",
            "ticks": 22464,
            "time": 31.061920500000003,
            "velocity": 0.3937007874015748
          },
          {
            "duration": 2.1238920000000014,
            "durationTicks": 1536,
            "midi": 68,
            "name": "G#4",
            "ticks": 22464,
            "time": 31.061920500000003,
            "velocity": 0.3937007874015748
          },
          {
            "duration": 2.123891999999998,
            "durationTicks": 1536,
            "midi": 68,
            "name": "G#4",
            "ticks": 22656,
            "time": 31.327407,
            "velocity": 0.3937007874015748
          },
          {
            "duration": 2.123891999999998,
            "durationTicks": 1536,
            "midi": 80,
            "name": "G#5",
            "ticks": 22656,
            "time": 31.327407,
            "velocity": 0.3937007874015748
          },
          {
            "duration": 0.2654865000000015,
            "durationTicks": 192,
            "midi": 65,
            "name": "F4",
            "ticks": 24192,
            "time": 33.451299,
            "velocity": 0.3937007874015748
          },
          {
            "duration": 0.2654865000000015,
            "durationTicks": 192,
            "midi": 77,
            "name": "F5",
            "ticks": 24192,
            "time": 33.451299,
            "velocity": 0.3937007874015748
          },
          {
            "duration": 0.2654865000000015,
            "durationTicks": 192,
            "midi": 77,
            "name": "F5",
            "ticks": 24384,
            "time": 33.7167855,
            "velocity": 0.3937007874015748
          },
          {
            "duration": 0.2654865000000015,
            "durationTicks": 192,
            "midi": 65,
            "name": "F4",
            "ticks": 24384,
            "time": 33.7167855,
            "velocity": 0.3937007874015748
          },
          {
            "duration": 0.2654865000000015,
            "durationTicks": 192,
            "midi": 63,
            "name": "D#4",
            "ticks": 24576,
            "time": 33.982272,
            "velocity": 0.3937007874015748
          },
          {
            "duration": 0.2654865000000015,
            "durationTicks": 192,
            "midi": 75,
            "name": "D#5",
            "ticks": 24576,
            "time": 33.982272,
            "velocity": 0.3937007874015748
          },
          {
            "duration": 0.2654865000000015,
            "durationTicks": 192,
            "midi": 75,
            "name": "D#5",
            "ticks": 24768,
            "time": 34.2477585,
            "velocity": 0.3937007874015748
          },
          {
            "duration": 0.2654865000000015,
            "durationTicks": 192,
            "midi": 63,
            "name": "D#4",
            "ticks": 24768,
            "time": 34.2477585,
            "velocity": 0.3937007874015748
          },
          {
            "duration": 0.2654864999999944,
            "durationTicks": 192,
            "midi": 61,
            "name": "C#4",
            "ticks": 24960,
            "time": 34.513245000000005,
            "velocity": 0.3937007874015748
          },
          {
            "duration": 0.2654864999999944,
            "durationTicks": 192,
            "midi": 73,
            "name": "C#5",
            "ticks": 24960,
            "time": 34.513245000000005,
            "velocity": 0.3937007874015748
          },
          {
            "duration": 0.2654865000000015,
            "durationTicks": 192,
            "midi": 61,
            "name": "C#4",
            "ticks": 25152,
            "time": 34.7787315,
            "velocity": 0.3937007874015748
          },
          {
            "duration": 0.2654865000000015,
            "durationTicks": 192,
            "midi": 73,
            "name": "C#5",
            "ticks": 25152,
            "time": 34.7787315,
            "velocity": 0.3937007874015748
          },
          {
            "duration": 0.530973000000003,
            "durationTicks": 384,
            "midi": 58,
            "name": "A#3",
            "ticks": 25344,
            "time": 35.044218,
            "velocity": 0.3937007874015748
          },
          {
            "duration": 0.530973000000003,
            "durationTicks": 384,
            "midi": 70,
            "name": "A#4",
            "ticks": 25344,
            "time": 35.044218,
            "velocity": 0.3937007874015748
          },
          {
            "duration": 0.530973000000003,
            "durationTicks": 384,
            "midi": 70,
            "name": "A#4",
            "ticks": 25536,
            "time": 35.3097045,
            "velocity": 0.3937007874015748
          },
          {
            "duration": 0.530973000000003,
            "durationTicks": 384,
            "midi": 58,
            "name": "A#3",
            "ticks": 25536,
            "time": 35.3097045,
            "velocity": 0.3937007874015748
          },
          {
            "duration": 0.1327432499999972,
            "durationTicks": 96,
            "midi": 68,
            "name": "G#4",
            "ticks": 31104,
            "time": 43.008813,
            "velocity": 0.3937007874015748
          },
          {
            "duration": 0.1327432499999972,
            "durationTicks": 96,
            "midi": 80,
            "name": "G#5",
            "ticks": 31104,
            "time": 43.008813,
            "velocity": 0.3937007874015748
          },
          {
            "duration": 0.1327432500000043,
            "durationTicks": 96,
            "midi": 80,
            "name": "G#5",
            "ticks": 31200,
            "time": 43.14155625,
            "velocity": 0.29133858267716534
          },
          {
            "duration": 0.1327432500000043,
            "durationTicks": 96,
            "midi": 68,
            "name": "G#4",
            "ticks": 31200,
            "time": 43.14155625,
            "velocity": 0.29133858267716534
          },
          {
            "duration": 0.1327432499999972,
            "durationTicks": 96,
            "midi": 68,
            "name": "G#4",
            "ticks": 31296,
            "time": 43.274299500000005,
            "velocity": 0.3937007874015748
          },
          {
            "duration": 0.1327432499999972,
            "durationTicks": 96,
            "midi": 80,
            "name": "G#5",
            "ticks": 31296,
            "time": 43.274299500000005,
            "velocity": 0.3937007874015748
          },
          {
            "duration": 0.1327432499999972,
            "durationTicks": 96,
            "midi": 82,
            "name": "A#5",
            "ticks": 31296,
            "time": 43.274299500000005,
            "velocity": 0.3937007874015748
          },
          {
            "duration": 0.1327432499999972,
            "durationTicks": 96,
            "midi": 70,
            "name": "A#4",
            "ticks": 31296,
            "time": 43.274299500000005,
            "velocity": 0.3937007874015748
          },
          {
            "duration": 0.1327432499999972,
            "durationTicks": 96,
            "midi": 80,
            "name": "G#5",
            "ticks": 31392,
            "time": 43.40704275,
            "velocity": 0.29133858267716534
          },
          {
            "duration": 0.1327432499999972,
            "durationTicks": 96,
            "midi": 73,
            "name": "C#5",
            "ticks": 31392,
            "time": 43.40704275,
            "velocity": 0.3937007874015748
          },
          {
            "duration": 0.1327432499999972,
            "durationTicks": 96,
            "midi": 85,
            "name": "C#6",
            "ticks": 31392,
            "time": 43.40704275,
            "velocity": 0.3937007874015748
          },
          {
            "duration": 0.1327432499999972,
            "durationTicks": 96,
            "midi": 68,
            "name": "G#4",
            "ticks": 31392,
            "time": 43.40704275,
            "velocity": 0.29133858267716534
          },
          {
            "duration": 0.1327432500000043,
            "durationTicks": 96,
            "midi": 70,
            "name": "A#4",
            "ticks": 31488,
            "time": 43.539786,
            "velocity": 0.3937007874015748
          },
          {
            "duration": 0.1327432500000043,
            "durationTicks": 96,
            "midi": 82,
            "name": "A#5",
            "ticks": 31488,
            "time": 43.539786,
            "velocity": 0.3937007874015748
          },
          {
            "duration": 0.1327432499999972,
            "durationTicks": 96,
            "midi": 85,
            "name": "C#6",
            "ticks": 31584,
            "time": 43.672529250000004,
            "velocity": 0.3937007874015748
          },
          {
            "duration": 0.1327432499999972,
            "durationTicks": 96,
            "midi": 73,
            "name": "C#5",
            "ticks": 31584,
            "time": 43.672529250000004,
            "velocity": 0.3937007874015748
          },
          {
            "duration": 0.1327432499999972,
            "durationTicks": 96,
            "midi": 85,
            "name": "C#6",
            "ticks": 31584,
            "time": 43.672529250000004,
            "velocity": 0.3937007874015748
          },
          {
            "duration": 0.1327432499999972,
            "durationTicks": 96,
            "midi": 73,
            "name": "C#5",
            "ticks": 31584,
            "time": 43.672529250000004,
            "velocity": 0.3937007874015748
          },
          {
            "duration": 0.1327432499999972,
            "durationTicks": 96,
            "midi": 85,
            "name": "C#6",
            "ticks": 31776,
            "time": 43.938015750000005,
            "velocity": 0.3937007874015748
          },
          {
            "duration": 0.1327432499999972,
            "durationTicks": 96,
            "midi": 73,
            "name": "C#5",
            "ticks": 31776,
            "time": 43.938015750000005,
            "velocity": 0.3937007874015748
          },
          {
            "duration": 0.1327432499999972,
            "durationTicks": 96,
            "midi": 80,
            "name": "G#5",
            "ticks": 37248,
            "time": 51.504381,
            "velocity": 0.3937007874015748
          },
          {
            "duration": 0.1327432499999972,
            "durationTicks": 96,
            "midi": 68,
            "name": "G#4",
            "ticks": 37248,
            "time": 51.504381,
            "velocity": 0.3937007874015748
          },
          {
            "duration": 0.1327432500000043,
            "durationTicks": 96,
            "midi": 80,
            "name": "G#5",
            "ticks": 37344,
            "time": 51.63712425,
            "velocity": 0.29133858267716534
          },
          {
            "duration": 0.1327432500000043,
            "durationTicks": 96,
            "midi": 68,
            "name": "G#4",
            "ticks": 37344,
            "time": 51.63712425,
            "velocity": 0.29133858267716534
          },
          {
            "duration": 0.1327432499999972,
            "durationTicks": 96,
            "midi": 80,
            "name": "G#5",
            "ticks": 37440,
            "time": 51.769867500000004,
            "velocity": 0.3937007874015748
          },
          {
            "duration": 0.1327432499999972,
            "durationTicks": 96,
            "midi": 70,
            "name": "A#4",
            "ticks": 37440,
            "time": 51.769867500000004,
            "velocity": 0.3937007874015748
          },
          {
            "duration": 0.1327432499999972,
            "durationTicks": 96,
            "midi": 82,
            "name": "A#5",
            "ticks": 37440,
            "time": 51.769867500000004,
            "velocity": 0.3937007874015748
          },
          {
            "duration": 0.1327432499999972,
            "durationTicks": 96,
            "midi": 68,
            "name": "G#4",
            "ticks": 37440,
            "time": 51.769867500000004,
            "velocity": 0.3937007874015748
          },
          {
            "duration": 0.1327432500000043,
            "durationTicks": 96,
            "midi": 73,
            "name": "C#5",
            "ticks": 37536,
            "time": 51.90261075,
            "velocity": 0.3937007874015748
          },
          {
            "duration": 0.1327432500000043,
            "durationTicks": 96,
            "midi": 85,
            "name": "C#6",
            "ticks": 37536,
            "time": 51.90261075,
            "velocity": 0.3937007874015748
          },
          {
            "duration": 0.1327432500000043,
            "durationTicks": 96,
            "midi": 80,
            "name": "G#5",
            "ticks": 37536,
            "time": 51.90261075,
            "velocity": 0.29133858267716534
          },
          {
            "duration": 0.1327432500000043,
            "durationTicks": 96,
            "midi": 68,
            "name": "G#4",
            "ticks": 37536,
            "time": 51.90261075,
            "velocity": 0.29133858267716534
          },
          {
            "duration": 0.1327432499999972,
            "durationTicks": 96,
            "midi": 82,
            "name": "A#5",
            "ticks": 37632,
            "time": 52.035354000000005,
            "velocity": 0.3937007874015748
          },
          {
            "duration": 0.1327432499999972,
            "durationTicks": 96,
            "midi": 70,
            "name": "A#4",
            "ticks": 37632,
            "time": 52.035354000000005,
            "velocity": 0.3937007874015748
          },
          {
            "duration": 0.1327432499999972,
            "durationTicks": 96,
            "midi": 73,
            "name": "C#5",
            "ticks": 37728,
            "time": 52.16809725,
            "velocity": 0.3937007874015748
          },
          {
            "duration": 0.1327432499999972,
            "durationTicks": 96,
            "midi": 73,
            "name": "C#5",
            "ticks": 37728,
            "time": 52.16809725,
            "velocity": 0.3937007874015748
          },
          {
            "duration": 0.1327432499999972,
            "durationTicks": 96,
            "midi": 85,
            "name": "C#6",
            "ticks": 37728,
            "time": 52.16809725,
            "velocity": 0.3937007874015748
          },
          {
            "duration": 0.1327432499999972,
            "durationTicks": 96,
            "midi": 85,
            "name": "C#6",
            "ticks": 37728,
            "time": 52.16809725,
            "velocity": 0.3937007874015748
          },
          {
            "duration": 0.1327432499999972,
            "durationTicks": 96,
            "midi": 73,
            "name": "C#5",
            "ticks": 37920,
            "time": 52.433583750000004,
            "velocity": 0.3937007874015748
          },
          {
            "duration": 0.1327432499999972,
            "durationTicks": 96,
            "midi": 85,
            "name": "C#6",
            "ticks": 37920,
            "time": 52.433583750000004,
            "velocity": 0.3937007874015748
          },
          {
            "duration": 0.1327432499999972,
            "durationTicks": 96,
            "midi": 73,
            "name": "C#5",
            "ticks": 43200,
            "time": 59.73446250000001,
            "velocity": 0.3937007874015748
          },
          {
            "duration": 0.1327432499999972,
            "durationTicks": 96,
            "midi": 85,
            "name": "C#6",
            "ticks": 43200,
            "time": 59.73446250000001,
            "velocity": 0.3937007874015748
          },
          {
            "duration": 0.1327432499999972,
            "durationTicks": 96,
            "midi": 73,
            "name": "C#5",
            "ticks": 43296,
            "time": 59.867205750000004,
            "velocity": 0.3937007874015748
          },
          {
            "duration": 0.1327432499999972,
            "durationTicks": 96,
            "midi": 85,
            "name": "C#6",
            "ticks": 43296,
            "time": 59.867205750000004,
            "velocity": 0.3937007874015748
          },
          {
            "duration": 0.1327432500000043,
            "durationTicks": 96,
            "midi": 85,
            "name": "C#6",
            "ticks": 43392,
            "time": 59.999949,
            "velocity": 0.3937007874015748
          },
          {
            "duration": 0.1327432500000043,
            "durationTicks": 96,
            "midi": 73,
            "name": "C#5",
            "ticks": 43392,
            "time": 59.999949,
            "velocity": 0.3937007874015748
          },
          {
            "duration": 0.1327432499999972,
            "durationTicks": 96,
            "midi": 85,
            "name": "C#6",
            "ticks": 43488,
            "time": 60.132692250000005,
            "velocity": 0.3937007874015748
          },
          {
            "duration": 0.1327432499999972,
            "durationTicks": 96,
            "midi": 73,
            "name": "C#5",
            "ticks": 43488,
            "time": 60.132692250000005,
            "velocity": 0.3937007874015748
          },
          {
            "duration": 0.1327432500000043,
            "durationTicks": 96,
            "midi": 73,
            "name": "C#5",
            "ticks": 43584,
            "time": 60.2654355,
            "velocity": 0.3937007874015748
          },
          {
            "duration": 0.1327432500000043,
            "durationTicks": 96,
            "midi": 85,
            "name": "C#6",
            "ticks": 43584,
            "time": 60.2654355,
            "velocity": 0.3937007874015748
          },
          {
            "duration": 0.1327432499999972,
            "durationTicks": 96,
            "midi": 73,
            "name": "C#5",
            "ticks": 43680,
            "time": 60.39817875000001,
            "velocity": 0.3937007874015748
          },
          {
            "duration": 0.1327432499999972,
            "durationTicks": 96,
            "midi": 85,
            "name": "C#6",
            "ticks": 43680,
            "time": 60.39817875000001,
            "velocity": 0.3937007874015748
          },
          {
            "duration": 0.1327432499999972,
            "durationTicks": 96,
            "midi": 85,
            "name": "C#6",
            "ticks": 43776,
            "time": 60.530922000000004,
            "velocity": 0.3937007874015748
          },
          {
            "duration": 0.1327432499999972,
            "durationTicks": 96,
            "midi": 73,
            "name": "C#5",
            "ticks": 43776,
            "time": 60.530922000000004,
            "velocity": 0.3937007874015748
          },
          {
            "duration": 0.1327432500000043,
            "durationTicks": 96,
            "midi": 85,
            "name": "C#6",
            "ticks": 43872,
            "time": 60.66366525,
            "velocity": 0.3937007874015748
          },
          {
            "duration": 0.1327432500000043,
            "durationTicks": 96,
            "midi": 73,
            "name": "C#5",
            "ticks": 43872,
            "time": 60.66366525,
            "velocity": 0.3937007874015748
          },
          {
            "duration": 0.1327432500000043,
            "durationTicks": 96,
            "midi": 85,
            "name": "C#6",
            "ticks": 43872,
            "time": 60.66366525,
            "velocity": 0.3937007874015748
          },
          {
            "duration": 0.1327432500000043,
            "durationTicks": 96,
            "midi": 73,
            "name": "C#5",
            "ticks": 43872,
            "time": 60.66366525,
            "velocity": 0.3937007874015748
          },
          {
            "duration": 0.1327432499999972,
            "durationTicks": 96,
            "midi": 73,
            "name": "C#5",
            "ticks": 44064,
            "time": 60.92915175,
            "velocity": 0.3937007874015748
          },
          {
            "duration": 0.1327432499999972,
            "durationTicks": 96,
            "midi": 85,
            "name": "C#6",
            "ticks": 44064,
            "time": 60.92915175,
            "velocity": 0.3937007874015748
          },
          {
            "duration": 2.123891999999998,
            "durationTicks": 1536,
            "midi": 68,
            "name": "G#4",
            "ticks": 53184,
            "time": 73.5397605,
            "velocity": 0.3937007874015748
          },
          {
            "duration": 2.123891999999998,
            "durationTicks": 1536,
            "midi": 80,
            "name": "G#5",
            "ticks": 53184,
            "time": 73.5397605,
            "velocity": 0.3937007874015748
          },
          {
            "duration": 2.123891999999998,
            "durationTicks": 1536,
            "midi": 68,
            "name": "G#4",
            "ticks": 53376,
            "time": 73.80524700000001,
            "velocity": 0.3937007874015748
          },
          {
            "duration": 2.123891999999998,
            "durationTicks": 1536,
            "midi": 80,
            "name": "G#5",
            "ticks": 53376,
            "time": 73.80524700000001,
            "velocity": 0.3937007874015748
          },
          {
            "duration": 0.2654864999999944,
            "durationTicks": 192,
            "midi": 77,
            "name": "F5",
            "ticks": 54912,
            "time": 75.929139,
            "velocity": 0.3937007874015748
          },
          {
            "duration": 0.2654864999999944,
            "durationTicks": 192,
            "midi": 65,
            "name": "F4",
            "ticks": 54912,
            "time": 75.929139,
            "velocity": 0.3937007874015748
          },
          {
            "duration": 0.2654865000000086,
            "durationTicks": 192,
            "midi": 65,
            "name": "F4",
            "ticks": 55104,
            "time": 76.1946255,
            "velocity": 0.3937007874015748
          },
          {
            "duration": 0.2654865000000086,
            "durationTicks": 192,
            "midi": 77,
            "name": "F5",
            "ticks": 55104,
            "time": 76.1946255,
            "velocity": 0.3937007874015748
          },
          {
            "duration": 0.2654864999999944,
            "durationTicks": 192,
            "midi": 75,
            "name": "D#5",
            "ticks": 55296,
            "time": 76.46011200000001,
            "velocity": 0.3937007874015748
          },
          {
            "duration": 0.2654864999999944,
            "durationTicks": 192,
            "midi": 63,
            "name": "D#4",
            "ticks": 55296,
            "time": 76.46011200000001,
            "velocity": 0.3937007874015748
          },
          {
            "duration": 0.2654864999999944,
            "durationTicks": 192,
            "midi": 75,
            "name": "D#5",
            "ticks": 55488,
            "time": 76.7255985,
            "velocity": 0.3937007874015748
          },
          {
            "duration": 0.2654864999999944,
            "durationTicks": 192,
            "midi": 63,
            "name": "D#4",
            "ticks": 55488,
            "time": 76.7255985,
            "velocity": 0.3937007874015748
          },
          {
            "duration": 0.2654865000000086,
            "durationTicks": 192,
            "midi": 73,
            "name": "C#5",
            "ticks": 55680,
            "time": 76.991085,
            "velocity": 0.3937007874015748
          },
          {
            "duration": 0.2654865000000086,
            "durationTicks": 192,
            "midi": 61,
            "name": "C#4",
            "ticks": 55680,
            "time": 76.991085,
            "velocity": 0.3937007874015748
          },
          {
            "duration": 0.2654864999999944,
            "durationTicks": 192,
            "midi": 61,
            "name": "C#4",
            "ticks": 55872,
            "time": 77.2565715,
            "velocity": 0.3937007874015748
          },
          {
            "duration": 0.2654864999999944,
            "durationTicks": 192,
            "midi": 73,
            "name": "C#5",
            "ticks": 55872,
            "time": 77.2565715,
            "velocity": 0.3937007874015748
          },
          {
            "duration": 0.530973000000003,
            "durationTicks": 384,
            "midi": 58,
            "name": "A#3",
            "ticks": 56064,
            "time": 77.522058,
            "velocity": 0.3937007874015748
          },
          {
            "duration": 0.530973000000003,
            "durationTicks": 384,
            "midi": 70,
            "name": "A#4",
            "ticks": 56064,
            "time": 77.522058,
            "velocity": 0.3937007874015748
          },
          {
            "duration": 0.5309729999999888,
            "durationTicks": 384,
            "midi": 58,
            "name": "A#3",
            "ticks": 56256,
            "time": 77.78754450000001,
            "velocity": 0.3937007874015748
          },
          {
            "duration": 0.5309729999999888,
            "durationTicks": 384,
            "midi": 70,
            "name": "A#4",
            "ticks": 56256,
            "time": 77.78754450000001,
            "velocity": 0.3937007874015748
          },
          {
            "duration": 0.1327432500000043,
            "durationTicks": 96,
            "midi": 68,
            "name": "G#4",
            "ticks": 61824,
            "time": 85.486653,
            "velocity": 0.3937007874015748
          },
          {
            "duration": 0.1327432500000043,
            "durationTicks": 96,
            "midi": 80,
            "name": "G#5",
            "ticks": 61824,
            "time": 85.486653,
            "velocity": 0.3937007874015748
          },
          {
            "duration": 0.1327432499999901,
            "durationTicks": 96,
            "midi": 68,
            "name": "G#4",
            "ticks": 61920,
            "time": 85.61939625000001,
            "velocity": 0.29133858267716534
          },
          {
            "duration": 0.1327432499999901,
            "durationTicks": 96,
            "midi": 80,
            "name": "G#5",
            "ticks": 61920,
            "time": 85.61939625000001,
            "velocity": 0.29133858267716534
          },
          {
            "duration": 0.1327432500000043,
            "durationTicks": 96,
            "midi": 70,
            "name": "A#4",
            "ticks": 62016,
            "time": 85.7521395,
            "velocity": 0.3937007874015748
          },
          {
            "duration": 0.1327432500000043,
            "durationTicks": 96,
            "midi": 80,
            "name": "G#5",
            "ticks": 62016,
            "time": 85.7521395,
            "velocity": 0.3937007874015748
          },
          {
            "duration": 0.1327432500000043,
            "durationTicks": 96,
            "midi": 82,
            "name": "A#5",
            "ticks": 62016,
            "time": 85.7521395,
            "velocity": 0.3937007874015748
          },
          {
            "duration": 0.1327432500000043,
            "durationTicks": 96,
            "midi": 68,
            "name": "G#4",
            "ticks": 62016,
            "time": 85.7521395,
            "velocity": 0.3937007874015748
          },
          {
            "duration": 0.1327432500000043,
            "durationTicks": 96,
            "midi": 68,
            "name": "G#4",
            "ticks": 62112,
            "time": 85.88488275,
            "velocity": 0.29133858267716534
          },
          {
            "duration": 0.1327432500000043,
            "durationTicks": 96,
            "midi": 73,
            "name": "C#5",
            "ticks": 62112,
            "time": 85.88488275,
            "velocity": 0.3937007874015748
          },
          {
            "duration": 0.1327432500000043,
            "durationTicks": 96,
            "midi": 85,
            "name": "C#6",
            "ticks": 62112,
            "time": 85.88488275,
            "velocity": 0.3937007874015748
          },
          {
            "duration": 0.1327432500000043,
            "durationTicks": 96,
            "midi": 80,
            "name": "G#5",
            "ticks": 62112,
            "time": 85.88488275,
            "velocity": 0.29133858267716534
          },
          {
            "duration": 0.1327432500000043,
            "durationTicks": 96,
            "midi": 70,
            "name": "A#4",
            "ticks": 62208,
            "time": 86.017626,
            "velocity": 0.3937007874015748
          },
          {
            "duration": 0.1327432500000043,
            "durationTicks": 96,
            "midi": 82,
            "name": "A#5",
            "ticks": 62208,
            "time": 86.017626,
            "velocity": 0.3937007874015748
          },
          {
            "duration": 0.1327432499999901,
            "durationTicks": 96,
            "midi": 85,
            "name": "C#6",
            "ticks": 62304,
            "time": 86.15036925000001,
            "velocity": 0.3937007874015748
          },
          {
            "duration": 0.1327432499999901,
            "durationTicks": 96,
            "midi": 73,
            "name": "C#5",
            "ticks": 62304,
            "time": 86.15036925000001,
            "velocity": 0.3937007874015748
          },
          {
            "duration": 0.1327432499999901,
            "durationTicks": 96,
            "midi": 85,
            "name": "C#6",
            "ticks": 62304,
            "time": 86.15036925000001,
            "velocity": 0.3937007874015748
          },
          {
            "duration": 0.1327432499999901,
            "durationTicks": 96,
            "midi": 73,
            "name": "C#5",
            "ticks": 62304,
            "time": 86.15036925000001,
            "velocity": 0.3937007874015748
          },
          {
            "duration": 0.1327432500000043,
            "durationTicks": 96,
            "midi": 85,
            "name": "C#6",
            "ticks": 62496,
            "time": 86.41585575,
            "velocity": 0.3937007874015748
          },
          {
            "duration": 0.1327432500000043,
            "durationTicks": 96,
            "midi": 73,
            "name": "C#5",
            "ticks": 62496,
            "time": 86.41585575,
            "velocity": 0.3937007874015748
          },
          {
            "duration": 0.1327432499999901,
            "durationTicks": 96,
            "midi": 80,
            "name": "G#5",
            "ticks": 67968,
            "time": 93.98222100000001,
            "velocity": 0.3937007874015748
          },
          {
            "duration": 0.1327432499999901,
            "durationTicks": 96,
            "midi": 68,
            "name": "G#4",
            "ticks": 67968,
            "time": 93.98222100000001,
            "velocity": 0.3937007874015748
          },
          {
            "duration": 0.1327432500000043,
            "durationTicks": 96,
            "midi": 80,
            "name": "G#5",
            "ticks": 68064,
            "time": 94.11496425,
            "velocity": 0.29133858267716534
          },
          {
            "duration": 0.1327432500000043,
            "durationTicks": 96,
            "midi": 68,
            "name": "G#4",
            "ticks": 68064,
            "time": 94.11496425,
            "velocity": 0.29133858267716534
          },
          {
            "duration": 0.1327432500000043,
            "durationTicks": 96,
            "midi": 68,
            "name": "G#4",
            "ticks": 68160,
            "time": 94.2477075,
            "velocity": 0.3937007874015748
          },
          {
            "duration": 0.1327432500000043,
            "durationTicks": 96,
            "midi": 80,
            "name": "G#5",
            "ticks": 68160,
            "time": 94.2477075,
            "velocity": 0.3937007874015748
          },
          {
            "duration": 0.1327432500000043,
            "durationTicks": 96,
            "midi": 82,
            "name": "A#5",
            "ticks": 68160,
            "time": 94.2477075,
            "velocity": 0.3937007874015748
          },
          {
            "duration": 0.1327432500000043,
            "durationTicks": 96,
            "midi": 70,
            "name": "A#4",
            "ticks": 68160,
            "time": 94.2477075,
            "velocity": 0.3937007874015748
          },
          {
            "duration": 0.1327432499999901,
            "durationTicks": 96,
            "midi": 73,
            "name": "C#5",
            "ticks": 68256,
            "time": 94.38045075000001,
            "velocity": 0.3937007874015748
          },
          {
            "duration": 0.1327432499999901,
            "durationTicks": 96,
            "midi": 85,
            "name": "C#6",
            "ticks": 68256,
            "time": 94.38045075000001,
            "velocity": 0.3937007874015748
          },
          {
            "duration": 0.1327432499999901,
            "durationTicks": 96,
            "midi": 80,
            "name": "G#5",
            "ticks": 68256,
            "time": 94.38045075000001,
            "velocity": 0.29133858267716534
          },
          {
            "duration": 0.1327432499999901,
            "durationTicks": 96,
            "midi": 68,
            "name": "G#4",
            "ticks": 68256,
            "time": 94.38045075000001,
            "velocity": 0.29133858267716534
          },
          {
            "duration": 0.1327432500000043,
            "durationTicks": 96,
            "midi": 70,
            "name": "A#4",
            "ticks": 68352,
            "time": 94.513194,
            "velocity": 0.3937007874015748
          },
          {
            "duration": 0.1327432500000043,
            "durationTicks": 96,
            "midi": 82,
            "name": "A#5",
            "ticks": 68352,
            "time": 94.513194,
            "velocity": 0.3937007874015748
          },
          {
            "duration": 0.1327432500000043,
            "durationTicks": 96,
            "midi": 73,
            "name": "C#5",
            "ticks": 68448,
            "time": 94.64593725,
            "velocity": 0.3937007874015748
          },
          {
            "duration": 0.1327432500000043,
            "durationTicks": 96,
            "midi": 73,
            "name": "C#5",
            "ticks": 68448,
            "time": 94.64593725,
            "velocity": 0.3937007874015748
          },
          {
            "duration": 0.1327432500000043,
            "durationTicks": 96,
            "midi": 85,
            "name": "C#6",
            "ticks": 68448,
            "time": 94.64593725,
            "velocity": 0.3937007874015748
          },
          {
            "duration": 0.1327432500000043,
            "durationTicks": 96,
            "midi": 85,
            "name": "C#6",
            "ticks": 68448,
            "time": 94.64593725,
            "velocity": 0.3937007874015748
          },
          {
            "duration": 0.1327432499999901,
            "durationTicks": 96,
            "midi": 85,
            "name": "C#6",
            "ticks": 68640,
            "time": 94.91142375000001,
            "velocity": 0.3937007874015748
          },
          {
            "duration": 0.1327432499999901,
            "durationTicks": 96,
            "midi": 73,
            "name": "C#5",
            "ticks": 68640,
            "time": 94.91142375000001,
            "velocity": 0.3937007874015748
          },
          {
            "duration": 0.1327432500000043,
            "durationTicks": 96,
            "midi": 73,
            "name": "C#5",
            "ticks": 73920,
            "time": 102.2123025,
            "velocity": 0.3937007874015748
          },
          {
            "duration": 0.1327432500000043,
            "durationTicks": 96,
            "midi": 85,
            "name": "C#6",
            "ticks": 73920,
            "time": 102.2123025,
            "velocity": 0.3937007874015748
          },
          {
            "duration": 0.1327432499999901,
            "durationTicks": 96,
            "midi": 85,
            "name": "C#6",
            "ticks": 74016,
            "time": 102.34504575000001,
            "velocity": 0.3937007874015748
          },
          {
            "duration": 0.1327432499999901,
            "durationTicks": 96,
            "midi": 73,
            "name": "C#5",
            "ticks": 74016,
            "time": 102.34504575000001,
            "velocity": 0.3937007874015748
          },
          {
            "duration": 0.1327432500000043,
            "durationTicks": 96,
            "midi": 73,
            "name": "C#5",
            "ticks": 74112,
            "time": 102.477789,
            "velocity": 0.3937007874015748
          },
          {
            "duration": 0.1327432500000043,
            "durationTicks": 96,
            "midi": 85,
            "name": "C#6",
            "ticks": 74112,
            "time": 102.477789,
            "velocity": 0.3937007874015748
          },
          {
            "duration": 0.1327432500000043,
            "durationTicks": 96,
            "midi": 85,
            "name": "C#6",
            "ticks": 74208,
            "time": 102.61053225,
            "velocity": 0.3937007874015748
          },
          {
            "duration": 0.1327432500000043,
            "durationTicks": 96,
            "midi": 73,
            "name": "C#5",
            "ticks": 74208,
            "time": 102.61053225,
            "velocity": 0.3937007874015748
          },
          {
            "duration": 0.1327432499999901,
            "durationTicks": 96,
            "midi": 85,
            "name": "C#6",
            "ticks": 74304,
            "time": 102.74327550000001,
            "velocity": 0.3937007874015748
          },
          {
            "duration": 0.1327432499999901,
            "durationTicks": 96,
            "midi": 73,
            "name": "C#5",
            "ticks": 74304,
            "time": 102.74327550000001,
            "velocity": 0.3937007874015748
          },
          {
            "duration": 0.1327432500000043,
            "durationTicks": 96,
            "midi": 73,
            "name": "C#5",
            "ticks": 74400,
            "time": 102.87601875,
            "velocity": 0.3937007874015748
          },
          {
            "duration": 0.1327432500000043,
            "durationTicks": 96,
            "midi": 85,
            "name": "C#6",
            "ticks": 74400,
            "time": 102.87601875,
            "velocity": 0.3937007874015748
          },
          {
            "duration": 0.1327432500000043,
            "durationTicks": 96,
            "midi": 85,
            "name": "C#6",
            "ticks": 74496,
            "time": 103.008762,
            "velocity": 0.3937007874015748
          },
          {
            "duration": 0.1327432500000043,
            "durationTicks": 96,
            "midi": 73,
            "name": "C#5",
            "ticks": 74496,
            "time": 103.008762,
            "velocity": 0.3937007874015748
          },
          {
            "duration": 0.1327432499999901,
            "durationTicks": 96,
            "midi": 85,
            "name": "C#6",
            "ticks": 74592,
            "time": 103.14150525000001,
            "velocity": 0.3937007874015748
          },
          {
            "duration": 0.1327432499999901,
            "durationTicks": 96,
            "midi": 73,
            "name": "C#5",
            "ticks": 74592,
            "time": 103.14150525000001,
            "velocity": 0.3937007874015748
          },
          {
            "duration": 0.1327432499999901,
            "durationTicks": 96,
            "midi": 85,
            "name": "C#6",
            "ticks": 74592,
            "time": 103.14150525000001,
            "velocity": 0.3937007874015748
          },
          {
            "duration": 0.1327432499999901,
            "durationTicks": 96,
            "midi": 73,
            "name": "C#5",
            "ticks": 74592,
            "time": 103.14150525000001,
            "velocity": 0.3937007874015748
          },
          {
            "duration": 0.1327432500000043,
            "durationTicks": 96,
            "midi": 85,
            "name": "C#6",
            "ticks": 74784,
            "time": 103.40699175,
            "velocity": 0.3937007874015748
          },
          {
            "duration": 0.1327432500000043,
            "durationTicks": 96,
            "midi": 73,
            "name": "C#5",
            "ticks": 74784,
            "time": 103.40699175,
            "velocity": 0.3937007874015748
          },
          {
            "duration": 0.1327432500000043,
            "durationTicks": 96,
            "midi": 80,
            "name": "G#5",
            "ticks": 80256,
            "time": 110.97335700000001,
            "velocity": 0.3937007874015748
          },
          {
            "duration": 0.1327432500000043,
            "durationTicks": 96,
            "midi": 68,
            "name": "G#4",
            "ticks": 80256,
            "time": 110.97335700000001,
            "velocity": 0.3937007874015748
          },
          {
            "duration": 0.1327432499999901,
            "durationTicks": 96,
            "midi": 80,
            "name": "G#5",
            "ticks": 80352,
            "time": 111.10610025000001,
            "velocity": 0.29133858267716534
          },
          {
            "duration": 0.1327432499999901,
            "durationTicks": 96,
            "midi": 68,
            "name": "G#4",
            "ticks": 80352,
            "time": 111.10610025000001,
            "velocity": 0.29133858267716534
          },
          {
            "duration": 0.1327432500000043,
            "durationTicks": 96,
            "midi": 80,
            "name": "G#5",
            "ticks": 80448,
            "time": 111.2388435,
            "velocity": 0.3937007874015748
          },
          {
            "duration": 0.1327432500000043,
            "durationTicks": 96,
            "midi": 68,
            "name": "G#4",
            "ticks": 80448,
            "time": 111.2388435,
            "velocity": 0.3937007874015748
          },
          {
            "duration": 0.1327432500000043,
            "durationTicks": 96,
            "midi": 70,
            "name": "A#4",
            "ticks": 80448,
            "time": 111.2388435,
            "velocity": 0.3937007874015748
          },
          {
            "duration": 0.1327432500000043,
            "durationTicks": 96,
            "midi": 82,
            "name": "A#5",
            "ticks": 80448,
            "time": 111.2388435,
            "velocity": 0.3937007874015748
          },
          {
            "duration": 0.1327432500000043,
            "durationTicks": 96,
            "midi": 85,
            "name": "C#6",
            "ticks": 80544,
            "time": 111.37158675,
            "velocity": 0.3937007874015748
          },
          {
            "duration": 0.1327432500000043,
            "durationTicks": 96,
            "midi": 80,
            "name": "G#5",
            "ticks": 80544,
            "time": 111.37158675,
            "velocity": 0.29133858267716534
          },
          {
            "duration": 0.1327432500000043,
            "durationTicks": 96,
            "midi": 73,
            "name": "C#5",
            "ticks": 80544,
            "time": 111.37158675,
            "velocity": 0.3937007874015748
          },
          {
            "duration": 0.1327432500000043,
            "durationTicks": 96,
            "midi": 68,
            "name": "G#4",
            "ticks": 80544,
            "time": 111.37158675,
            "velocity": 0.29133858267716534
          },
          {
            "duration": 0.1327432499999901,
            "durationTicks": 96,
            "midi": 70,
            "name": "A#4",
            "ticks": 80640,
            "time": 111.50433000000001,
            "velocity": 0.3937007874015748
          },
          {
            "duration": 0.1327432499999901,
            "durationTicks": 96,
            "midi": 82,
            "name": "A#5",
            "ticks": 80640,
            "time": 111.50433000000001,
            "velocity": 0.3937007874015748
          },
          {
            "duration": 0.1327432500000043,
            "durationTicks": 96,
            "midi": 85,
            "name": "C#6",
            "ticks": 80736,
            "time": 111.63707325,
            "velocity": 0.3937007874015748
          },
          {
            "duration": 0.1327432500000043,
            "durationTicks": 96,
            "midi": 73,
            "name": "C#5",
            "ticks": 80736,
            "time": 111.63707325,
            "velocity": 0.3937007874015748
          },
          {
            "duration": 0.1327432500000043,
            "durationTicks": 96,
            "midi": 73,
            "name": "C#5",
            "ticks": 80736,
            "time": 111.63707325,
            "velocity": 0.3937007874015748
          },
          {
            "duration": 0.1327432500000043,
            "durationTicks": 96,
            "midi": 85,
            "name": "C#6",
            "ticks": 80736,
            "time": 111.63707325,
            "velocity": 0.3937007874015748
          },
          {
            "duration": 0.1327432499999901,
            "durationTicks": 96,
            "midi": 85,
            "name": "C#6",
            "ticks": 80928,
            "time": 111.90255975000001,
            "velocity": 0.3937007874015748
          },
          {
            "duration": 0.1327432499999901,
            "durationTicks": 96,
            "midi": 73,
            "name": "C#5",
            "ticks": 80928,
            "time": 111.90255975000001,
            "velocity": 0.3937007874015748
          },
          {
            "duration": 0.1327432500000043,
            "durationTicks": 96,
            "midi": 85,
            "name": "C#6",
            "ticks": 86208,
            "time": 119.2034385,
            "velocity": 0.3937007874015748
          },
          {
            "duration": 0.1327432500000043,
            "durationTicks": 96,
            "midi": 73,
            "name": "C#5",
            "ticks": 86208,
            "time": 119.2034385,
            "velocity": 0.3937007874015748
          },
          {
            "duration": 0.1327432500000043,
            "durationTicks": 96,
            "midi": 85,
            "name": "C#6",
            "ticks": 86304,
            "time": 119.33618175000001,
            "velocity": 0.3937007874015748
          },
          {
            "duration": 0.1327432500000043,
            "durationTicks": 96,
            "midi": 73,
            "name": "C#5",
            "ticks": 86304,
            "time": 119.33618175000001,
            "velocity": 0.3937007874015748
          },
          {
            "duration": 0.1327432499999901,
            "durationTicks": 96,
            "midi": 73,
            "name": "C#5",
            "ticks": 86400,
            "time": 119.46892500000001,
            "velocity": 0.3937007874015748
          },
          {
            "duration": 0.1327432499999901,
            "durationTicks": 96,
            "midi": 85,
            "name": "C#6",
            "ticks": 86400,
            "time": 119.46892500000001,
            "velocity": 0.3937007874015748
          },
          {
            "duration": 0.1327432500000043,
            "durationTicks": 96,
            "midi": 73,
            "name": "C#5",
            "ticks": 86496,
            "time": 119.60166825,
            "velocity": 0.3937007874015748
          },
          {
            "duration": 0.1327432500000043,
            "durationTicks": 96,
            "midi": 85,
            "name": "C#6",
            "ticks": 86496,
            "time": 119.60166825,
            "velocity": 0.3937007874015748
          },
          {
            "duration": 0.1327432500000043,
            "durationTicks": 96,
            "midi": 85,
            "name": "C#6",
            "ticks": 86592,
            "time": 119.73441150000001,
            "velocity": 0.3937007874015748
          },
          {
            "duration": 0.1327432500000043,
            "durationTicks": 96,
            "midi": 73,
            "name": "C#5",
            "ticks": 86592,
            "time": 119.73441150000001,
            "velocity": 0.3937007874015748
          },
          {
            "duration": 0.1327432499999901,
            "durationTicks": 96,
            "midi": 85,
            "name": "C#6",
            "ticks": 86688,
            "time": 119.86715475000001,
            "velocity": 0.3937007874015748
          },
          {
            "duration": 0.1327432499999901,
            "durationTicks": 96,
            "midi": 73,
            "name": "C#5",
            "ticks": 86688,
            "time": 119.86715475000001,
            "velocity": 0.3937007874015748
          },
          {
            "duration": 0.1327432500000043,
            "durationTicks": 96,
            "midi": 85,
            "name": "C#6",
            "ticks": 86784,
            "time": 119.999898,
            "velocity": 0.3937007874015748
          },
          {
            "duration": 0.1327432500000043,
            "durationTicks": 96,
            "midi": 73,
            "name": "C#5",
            "ticks": 86784,
            "time": 119.999898,
            "velocity": 0.3937007874015748
          },
          {
            "duration": 0.1327432500000043,
            "durationTicks": 96,
            "midi": 73,
            "name": "C#5",
            "ticks": 86880,
            "time": 120.13264125,
            "velocity": 0.3937007874015748
          },
          {
            "duration": 0.1327432500000043,
            "durationTicks": 96,
            "midi": 85,
            "name": "C#6",
            "ticks": 86880,
            "time": 120.13264125,
            "velocity": 0.3937007874015748
          },
          {
            "duration": 0.1327432500000043,
            "durationTicks": 96,
            "midi": 73,
            "name": "C#5",
            "ticks": 86880,
            "time": 120.13264125,
            "velocity": 0.3937007874015748
          },
          {
            "duration": 0.1327432500000043,
            "durationTicks": 96,
            "midi": 85,
            "name": "C#6",
            "ticks": 86880,
            "time": 120.13264125,
            "velocity": 0.3937007874015748
          },
          {
            "duration": 0.1327432500000043,
            "durationTicks": 96,
            "midi": 73,
            "name": "C#5",
            "ticks": 87072,
            "time": 120.39812775,
            "velocity": 0.3937007874015748
          },
          {
            "duration": 0.1327432500000043,
            "durationTicks": 96,
            "midi": 85,
            "name": "C#6",
            "ticks": 87072,
            "time": 120.39812775,
            "velocity": 0.3937007874015748
          },
          {
            "duration": 0.1327432499999759,
            "durationTicks": 96,
            "midi": 68,
            "name": "G#4",
            "ticks": 123264,
            "time": 170.44233300000002,
            "velocity": 0.3937007874015748
          },
          {
            "duration": 0.1327432499999759,
            "durationTicks": 96,
            "midi": 80,
            "name": "G#5",
            "ticks": 123264,
            "time": 170.44233300000002,
            "velocity": 0.3937007874015748
          },
          {
            "duration": 0.1327432500000043,
            "durationTicks": 96,
            "midi": 68,
            "name": "G#4",
            "ticks": 123360,
            "time": 170.57507625,
            "velocity": 0.29133858267716534
          },
          {
            "duration": 0.1327432500000043,
            "durationTicks": 96,
            "midi": 80,
            "name": "G#5",
            "ticks": 123360,
            "time": 170.57507625,
            "velocity": 0.29133858267716534
          },
          {
            "duration": 0.1327432500000043,
            "durationTicks": 96,
            "midi": 70,
            "name": "A#4",
            "ticks": 123456,
            "time": 170.7078195,
            "velocity": 0.3937007874015748
          },
          {
            "duration": 0.1327432500000043,
            "durationTicks": 96,
            "midi": 68,
            "name": "G#4",
            "ticks": 123456,
            "time": 170.7078195,
            "velocity": 0.3937007874015748
          },
          {
            "duration": 0.1327432500000043,
            "durationTicks": 96,
            "midi": 82,
            "name": "A#5",
            "ticks": 123456,
            "time": 170.7078195,
            "velocity": 0.3937007874015748
          },
          {
            "duration": 0.1327432500000043,
            "durationTicks": 96,
            "midi": 80,
            "name": "G#5",
            "ticks": 123456,
            "time": 170.7078195,
            "velocity": 0.3937007874015748
          },
          {
            "duration": 0.1327432500000043,
            "durationTicks": 96,
            "midi": 73,
            "name": "C#5",
            "ticks": 123552,
            "time": 170.84056275,
            "velocity": 0.3937007874015748
          },
          {
            "duration": 0.1327432500000043,
            "durationTicks": 96,
            "midi": 85,
            "name": "C#6",
            "ticks": 123552,
            "time": 170.84056275,
            "velocity": 0.3937007874015748
          },
          {
            "duration": 0.1327432500000043,
            "durationTicks": 96,
            "midi": 80,
            "name": "G#5",
            "ticks": 123552,
            "time": 170.84056275,
            "velocity": 0.29133858267716534
          },
          {
            "duration": 0.1327432500000043,
            "durationTicks": 96,
            "midi": 68,
            "name": "G#4",
            "ticks": 123552,
            "time": 170.84056275,
            "velocity": 0.29133858267716534
          },
          {
            "duration": 0.1327432500000043,
            "durationTicks": 96,
            "midi": 82,
            "name": "A#5",
            "ticks": 123648,
            "time": 170.973306,
            "velocity": 0.3937007874015748
          },
          {
            "duration": 0.1327432500000043,
            "durationTicks": 96,
            "midi": 70,
            "name": "A#4",
            "ticks": 123648,
            "time": 170.973306,
            "velocity": 0.3937007874015748
          },
          {
            "duration": 0.1327432500000043,
            "durationTicks": 96,
            "midi": 73,
            "name": "C#5",
            "ticks": 123744,
            "time": 171.10604925,
            "velocity": 0.3937007874015748
          },
          {
            "duration": 0.1327432500000043,
            "durationTicks": 96,
            "midi": 85,
            "name": "C#6",
            "ticks": 123744,
            "time": 171.10604925,
            "velocity": 0.3937007874015748
          },
          {
            "duration": 0.1327432500000043,
            "durationTicks": 96,
            "midi": 85,
            "name": "C#6",
            "ticks": 123744,
            "time": 171.10604925,
            "velocity": 0.3937007874015748
          },
          {
            "duration": 0.1327432500000043,
            "durationTicks": 96,
            "midi": 73,
            "name": "C#5",
            "ticks": 123744,
            "time": 171.10604925,
            "velocity": 0.3937007874015748
          },
          {
            "duration": 0.1327432499999759,
            "durationTicks": 96,
            "midi": 85,
            "name": "C#6",
            "ticks": 123936,
            "time": 171.37153575000002,
            "velocity": 0.3937007874015748
          },
          {
            "duration": 0.1327432499999759,
            "durationTicks": 96,
            "midi": 73,
            "name": "C#5",
            "ticks": 123936,
            "time": 171.37153575000002,
            "velocity": 0.3937007874015748
          },
          {
            "duration": 0.1327432500000043,
            "durationTicks": 96,
            "midi": 73,
            "name": "C#5",
            "ticks": 129216,
            "time": 178.6724145,
            "velocity": 0.3937007874015748
          },
          {
            "duration": 0.1327432500000043,
            "durationTicks": 96,
            "midi": 85,
            "name": "C#6",
            "ticks": 129216,
            "time": 178.6724145,
            "velocity": 0.3937007874015748
          },
          {
            "duration": 0.1327432500000043,
            "durationTicks": 96,
            "midi": 73,
            "name": "C#5",
            "ticks": 129312,
            "time": 178.80515775,
            "velocity": 0.3937007874015748
          },
          {
            "duration": 0.1327432500000043,
            "durationTicks": 96,
            "midi": 85,
            "name": "C#6",
            "ticks": 129312,
            "time": 178.80515775,
            "velocity": 0.3937007874015748
          },
          {
            "duration": 0.1327432500000043,
            "durationTicks": 96,
            "midi": 73,
            "name": "C#5",
            "ticks": 129408,
            "time": 178.937901,
            "velocity": 0.3937007874015748
          },
          {
            "duration": 0.1327432500000043,
            "durationTicks": 96,
            "midi": 85,
            "name": "C#6",
            "ticks": 129408,
            "time": 178.937901,
            "velocity": 0.3937007874015748
          },
          {
            "duration": 0.1327432500000043,
            "durationTicks": 96,
            "midi": 85,
            "name": "C#6",
            "ticks": 129504,
            "time": 179.07064425000002,
            "velocity": 0.3937007874015748
          },
          {
            "duration": 0.1327432500000043,
            "durationTicks": 96,
            "midi": 73,
            "name": "C#5",
            "ticks": 129504,
            "time": 179.07064425000002,
            "velocity": 0.3937007874015748
          },
          {
            "duration": 0.1327432500000043,
            "durationTicks": 96,
            "midi": 85,
            "name": "C#6",
            "ticks": 129600,
            "time": 179.20338750000002,
            "velocity": 0.3937007874015748
          },
          {
            "duration": 0.1327432500000043,
            "durationTicks": 96,
            "midi": 73,
            "name": "C#5",
            "ticks": 129600,
            "time": 179.20338750000002,
            "velocity": 0.3937007874015748
          },
          {
            "duration": 0.1327432499999759,
            "durationTicks": 96,
            "midi": 73,
            "name": "C#5",
            "ticks": 129696,
            "time": 179.33613075000002,
            "velocity": 0.3937007874015748
          },
          {
            "duration": 0.1327432499999759,
            "durationTicks": 96,
            "midi": 85,
            "name": "C#6",
            "ticks": 129696,
            "time": 179.33613075000002,
            "velocity": 0.3937007874015748
          },
          {
            "duration": 0.1327432500000043,
            "durationTicks": 96,
            "midi": 85,
            "name": "C#6",
            "ticks": 129792,
            "time": 179.468874,
            "velocity": 0.3937007874015748
          },
          {
            "duration": 0.1327432500000043,
            "durationTicks": 96,
            "midi": 73,
            "name": "C#5",
            "ticks": 129792,
            "time": 179.468874,
            "velocity": 0.3937007874015748
          },
          {
            "duration": 0.1327432500000043,
            "durationTicks": 96,
            "midi": 73,
            "name": "C#5",
            "ticks": 129888,
            "time": 179.60161725,
            "velocity": 0.3937007874015748
          },
          {
            "duration": 0.1327432500000043,
            "durationTicks": 96,
            "midi": 85,
            "name": "C#6",
            "ticks": 129888,
            "time": 179.60161725,
            "velocity": 0.3937007874015748
          },
          {
            "duration": 0.1327432500000043,
            "durationTicks": 96,
            "midi": 73,
            "name": "C#5",
            "ticks": 129888,
            "time": 179.60161725,
            "velocity": 0.3937007874015748
          },
          {
            "duration": 0.1327432500000043,
            "durationTicks": 96,
            "midi": 85,
            "name": "C#6",
            "ticks": 129888,
            "time": 179.60161725,
            "velocity": 0.3937007874015748
          },
          {
            "duration": 0.1327432500000043,
            "durationTicks": 96,
            "midi": 85,
            "name": "C#6",
            "ticks": 130080,
            "time": 179.86710375,
            "velocity": 0.3937007874015748
          },
          {
            "duration": 0.1327432500000043,
            "durationTicks": 96,
            "midi": 73,
            "name": "C#5",
            "ticks": 130080,
            "time": 179.86710375,
            "velocity": 0.3937007874015748
          },
          {
            "duration": 0.1327432500000043,
            "durationTicks": 96,
            "midi": 80,
            "name": "G#5",
            "ticks": 135552,
            "time": 187.433469,
            "velocity": 0.3937007874015748
          },
          {
            "duration": 0.1327432500000043,
            "durationTicks": 96,
            "midi": 68,
            "name": "G#4",
            "ticks": 135552,
            "time": 187.433469,
            "velocity": 0.3937007874015748
          },
          {
            "duration": 0.1327432500000043,
            "durationTicks": 96,
            "midi": 80,
            "name": "G#5",
            "ticks": 135648,
            "time": 187.56621225,
            "velocity": 0.29133858267716534
          },
          {
            "duration": 0.1327432500000043,
            "durationTicks": 96,
            "midi": 68,
            "name": "G#4",
            "ticks": 135648,
            "time": 187.56621225,
            "velocity": 0.29133858267716534
          },
          {
            "duration": 0.1327432500000043,
            "durationTicks": 96,
            "midi": 68,
            "name": "G#4",
            "ticks": 135744,
            "time": 187.6989555,
            "velocity": 0.3937007874015748
          },
          {
            "duration": 0.1327432500000043,
            "durationTicks": 96,
            "midi": 70,
            "name": "A#4",
            "ticks": 135744,
            "time": 187.6989555,
            "velocity": 0.3937007874015748
          },
          {
            "duration": 0.1327432500000043,
            "durationTicks": 96,
            "midi": 82,
            "name": "A#5",
            "ticks": 135744,
            "time": 187.6989555,
            "velocity": 0.3937007874015748
          },
          {
            "duration": 0.1327432500000043,
            "durationTicks": 96,
            "midi": 80,
            "name": "G#5",
            "ticks": 135744,
            "time": 187.6989555,
            "velocity": 0.3937007874015748
          },
          {
            "duration": 0.1327432500000043,
            "durationTicks": 96,
            "midi": 68,
            "name": "G#4",
            "ticks": 135840,
            "time": 187.83169875000002,
            "velocity": 0.29133858267716534
          },
          {
            "duration": 0.1327432500000043,
            "durationTicks": 96,
            "midi": 73,
            "name": "C#5",
            "ticks": 135840,
            "time": 187.83169875000002,
            "velocity": 0.3937007874015748
          },
          {
            "duration": 0.1327432500000043,
            "durationTicks": 96,
            "midi": 85,
            "name": "C#6",
            "ticks": 135840,
            "time": 187.83169875000002,
            "velocity": 0.3937007874015748
          },
          {
            "duration": 0.1327432500000043,
            "durationTicks": 96,
            "midi": 80,
            "name": "G#5",
            "ticks": 135840,
            "time": 187.83169875000002,
            "velocity": 0.29133858267716534
          },
          {
            "duration": 0.1327432500000043,
            "durationTicks": 96,
            "midi": 82,
            "name": "A#5",
            "ticks": 135936,
            "time": 187.96444200000002,
            "velocity": 0.3937007874015748
          },
          {
            "duration": 0.1327432500000043,
            "durationTicks": 96,
            "midi": 70,
            "name": "A#4",
            "ticks": 135936,
            "time": 187.96444200000002,
            "velocity": 0.3937007874015748
          },
          {
            "duration": 0.1327432499999759,
            "durationTicks": 96,
            "midi": 85,
            "name": "C#6",
            "ticks": 136032,
            "time": 188.09718525000002,
            "velocity": 0.3937007874015748
          },
          {
            "duration": 0.1327432499999759,
            "durationTicks": 96,
            "midi": 73,
            "name": "C#5",
            "ticks": 136032,
            "time": 188.09718525000002,
            "velocity": 0.3937007874015748
          },
          {
            "duration": 0.1327432499999759,
            "durationTicks": 96,
            "midi": 85,
            "name": "C#6",
            "ticks": 136032,
            "time": 188.09718525000002,
            "velocity": 0.3937007874015748
          },
          {
            "duration": 0.1327432499999759,
            "durationTicks": 96,
            "midi": 73,
            "name": "C#5",
            "ticks": 136032,
            "time": 188.09718525000002,
            "velocity": 0.3937007874015748
          },
          {
            "duration": 0.1327432500000043,
            "durationTicks": 96,
            "midi": 85,
            "name": "C#6",
            "ticks": 136224,
            "time": 188.36267175,
            "velocity": 0.3937007874015748
          },
          {
            "duration": 0.1327432500000043,
            "durationTicks": 96,
            "midi": 73,
            "name": "C#5",
            "ticks": 136224,
            "time": 188.36267175,
            "velocity": 0.3937007874015748
          },
          {
            "duration": 0.1327432500000043,
            "durationTicks": 96,
            "midi": 73,
            "name": "C#5",
            "ticks": 141504,
            "time": 195.6635505,
            "velocity": 0.3937007874015748
          },
          {
            "duration": 0.1327432500000043,
            "durationTicks": 96,
            "midi": 85,
            "name": "C#6",
            "ticks": 141504,
            "time": 195.6635505,
            "velocity": 0.3937007874015748
          },
          {
            "duration": 0.1327432500000043,
            "durationTicks": 96,
            "midi": 73,
            "name": "C#5",
            "ticks": 141600,
            "time": 195.79629375000002,
            "velocity": 0.3937007874015748
          },
          {
            "duration": 0.1327432500000043,
            "durationTicks": 96,
            "midi": 85,
            "name": "C#6",
            "ticks": 141600,
            "time": 195.79629375000002,
            "velocity": 0.3937007874015748
          },
          {
            "duration": 0.1327432499999759,
            "durationTicks": 96,
            "midi": 73,
            "name": "C#5",
            "ticks": 141696,
            "time": 195.92903700000002,
            "velocity": 0.3937007874015748
          },
          {
            "duration": 0.1327432499999759,
            "durationTicks": 96,
            "midi": 85,
            "name": "C#6",
            "ticks": 141696,
            "time": 195.92903700000002,
            "velocity": 0.3937007874015748
          },
          {
            "duration": 0.1327432500000043,
            "durationTicks": 96,
            "midi": 73,
            "name": "C#5",
            "ticks": 141792,
            "time": 196.06178025,
            "velocity": 0.3937007874015748
          },
          {
            "duration": 0.1327432500000043,
            "durationTicks": 96,
            "midi": 85,
            "name": "C#6",
            "ticks": 141792,
            "time": 196.06178025,
            "velocity": 0.3937007874015748
          },
          {
            "duration": 0.1327432500000043,
            "durationTicks": 96,
            "midi": 85,
            "name": "C#6",
            "ticks": 141888,
            "time": 196.1945235,
            "velocity": 0.3937007874015748
          },
          {
            "duration": 0.1327432500000043,
            "durationTicks": 96,
            "midi": 73,
            "name": "C#5",
            "ticks": 141888,
            "time": 196.1945235,
            "velocity": 0.3937007874015748
          },
          {
            "duration": 0.1327432500000043,
            "durationTicks": 96,
            "midi": 73,
            "name": "C#5",
            "ticks": 141984,
            "time": 196.32726675,
            "velocity": 0.3937007874015748
          },
          {
            "duration": 0.1327432500000043,
            "durationTicks": 96,
            "midi": 85,
            "name": "C#6",
            "ticks": 141984,
            "time": 196.32726675,
            "velocity": 0.3937007874015748
          },
          {
            "duration": 0.1327432500000043,
            "durationTicks": 96,
            "midi": 73,
            "name": "C#5",
            "ticks": 142080,
            "time": 196.46001,
            "velocity": 0.3937007874015748
          },
          {
            "duration": 0.1327432500000043,
            "durationTicks": 96,
            "midi": 85,
            "name": "C#6",
            "ticks": 142080,
            "time": 196.46001,
            "velocity": 0.3937007874015748
          },
          {
            "duration": 0.1327432500000043,
            "durationTicks": 96,
            "midi": 85,
            "name": "C#6",
            "ticks": 142176,
            "time": 196.59275325000002,
            "velocity": 0.3937007874015748
          },
          {
            "duration": 0.1327432500000043,
            "durationTicks": 96,
            "midi": 73,
            "name": "C#5",
            "ticks": 142176,
            "time": 196.59275325000002,
            "velocity": 0.3937007874015748
          },
          {
            "duration": 0.1327432500000043,
            "durationTicks": 96,
            "midi": 85,
            "name": "C#6",
            "ticks": 142176,
            "time": 196.59275325000002,
            "velocity": 0.3937007874015748
          },
          {
            "duration": 0.1327432500000043,
            "durationTicks": 96,
            "midi": 73,
            "name": "C#5",
            "ticks": 142176,
            "time": 196.59275325000002,
            "velocity": 0.3937007874015748
          },
          {
            "duration": 0.1327432499999759,
            "durationTicks": 96,
            "midi": 85,
            "name": "C#6",
            "ticks": 142368,
            "time": 196.85823975000002,
            "velocity": 0.3937007874015748
          },
          {
            "duration": 0.1327432499999759,
            "durationTicks": 96,
            "midi": 73,
            "name": "C#5",
            "ticks": 142368,
            "time": 196.85823975000002,
            "velocity": 0.3937007874015748
          },
          {
            "duration": 0.1327432500000043,
            "durationTicks": 96,
            "midi": 80,
            "name": "G#5",
            "ticks": 147840,
            "time": 204.424605,
            "velocity": 0.3937007874015748
          },
          {
            "duration": 0.1327432500000043,
            "durationTicks": 96,
            "midi": 68,
            "name": "G#4",
            "ticks": 147840,
            "time": 204.424605,
            "velocity": 0.3937007874015748
          },
          {
            "duration": 0.1327432500000043,
            "durationTicks": 96,
            "midi": 68,
            "name": "G#4",
            "ticks": 147936,
            "time": 204.55734825000002,
            "velocity": 0.29133858267716534
          },
          {
            "duration": 0.1327432500000043,
            "durationTicks": 96,
            "midi": 80,
            "name": "G#5",
            "ticks": 147936,
            "time": 204.55734825000002,
            "velocity": 0.29133858267716534
          },
          {
            "duration": 0.1327432499999759,
            "durationTicks": 96,
            "midi": 70,
            "name": "A#4",
            "ticks": 148032,
            "time": 204.69009150000002,
            "velocity": 0.3937007874015748
          },
          {
            "duration": 0.1327432499999759,
            "durationTicks": 96,
            "midi": 68,
            "name": "G#4",
            "ticks": 148032,
            "time": 204.69009150000002,
            "velocity": 0.3937007874015748
          },
          {
            "duration": 0.1327432499999759,
            "durationTicks": 96,
            "midi": 82,
            "name": "A#5",
            "ticks": 148032,
            "time": 204.69009150000002,
            "velocity": 0.3937007874015748
          },
          {
            "duration": 0.1327432499999759,
            "durationTicks": 96,
            "midi": 80,
            "name": "G#5",
            "ticks": 148032,
            "time": 204.69009150000002,
            "velocity": 0.3937007874015748
          },
          {
            "duration": 0.1327432500000043,
            "durationTicks": 96,
            "midi": 85,
            "name": "C#6",
            "ticks": 148128,
            "time": 204.82283475,
            "velocity": 0.3937007874015748
          },
          {
            "duration": 0.1327432500000043,
            "durationTicks": 96,
            "midi": 73,
            "name": "C#5",
            "ticks": 148128,
            "time": 204.82283475,
            "velocity": 0.3937007874015748
          },
          {
            "duration": 0.1327432500000043,
            "durationTicks": 96,
            "midi": 68,
            "name": "G#4",
            "ticks": 148128,
            "time": 204.82283475,
            "velocity": 0.29133858267716534
          },
          {
            "duration": 0.1327432500000043,
            "durationTicks": 96,
            "midi": 80,
            "name": "G#5",
            "ticks": 148128,
            "time": 204.82283475,
            "velocity": 0.29133858267716534
          },
          {
            "duration": 0.1327432500000043,
            "durationTicks": 96,
            "midi": 82,
            "name": "A#5",
            "ticks": 148224,
            "time": 204.955578,
            "velocity": 0.3937007874015748
          },
          {
            "duration": 0.1327432500000043,
            "durationTicks": 96,
            "midi": 70,
            "name": "A#4",
            "ticks": 148224,
            "time": 204.955578,
            "velocity": 0.3937007874015748
          },
          {
            "duration": 0.1327432500000043,
            "durationTicks": 96,
            "midi": 73,
            "name": "C#5",
            "ticks": 148320,
            "time": 205.08832125,
            "velocity": 0.3937007874015748
          },
          {
            "duration": 0.1327432500000043,
            "durationTicks": 96,
            "midi": 85,
            "name": "C#6",
            "ticks": 148320,
            "time": 205.08832125,
            "velocity": 0.3937007874015748
          },
          {
            "duration": 0.1327432500000043,
            "durationTicks": 96,
            "midi": 85,
            "name": "C#6",
            "ticks": 148320,
            "time": 205.08832125,
            "velocity": 0.3937007874015748
          },
          {
            "duration": 0.1327432500000043,
            "durationTicks": 96,
            "midi": 73,
            "name": "C#5",
            "ticks": 148320,
            "time": 205.08832125,
            "velocity": 0.3937007874015748
          },
          {
            "duration": 0.1327432500000043,
            "durationTicks": 96,
            "midi": 73,
            "name": "C#5",
            "ticks": 148512,
            "time": 205.35380775000002,
            "velocity": 0.3937007874015748
          },
          {
            "duration": 0.1327432500000043,
            "durationTicks": 96,
            "midi": 85,
            "name": "C#6",
            "ticks": 148512,
            "time": 205.35380775000002,
            "velocity": 0.3937007874015748
          },
          {
            "duration": 0.1327432499999759,
            "durationTicks": 96,
            "midi": 85,
            "name": "C#6",
            "ticks": 153792,
            "time": 212.65468650000003,
            "velocity": 0.3937007874015748
          },
          {
            "duration": 0.1327432499999759,
            "durationTicks": 96,
            "midi": 73,
            "name": "C#5",
            "ticks": 153792,
            "time": 212.65468650000003,
            "velocity": 0.3937007874015748
          },
          {
            "duration": 0.1327432500000043,
            "durationTicks": 96,
            "midi": 85,
            "name": "C#6",
            "ticks": 153888,
            "time": 212.78742975,
            "velocity": 0.3937007874015748
          },
          {
            "duration": 0.1327432500000043,
            "durationTicks": 96,
            "midi": 73,
            "name": "C#5",
            "ticks": 153888,
            "time": 212.78742975,
            "velocity": 0.3937007874015748
          },
          {
            "duration": 0.1327432500000043,
            "durationTicks": 96,
            "midi": 73,
            "name": "C#5",
            "ticks": 153984,
            "time": 212.920173,
            "velocity": 0.3937007874015748
          },
          {
            "duration": 0.1327432500000043,
            "durationTicks": 96,
            "midi": 85,
            "name": "C#6",
            "ticks": 153984,
            "time": 212.920173,
            "velocity": 0.3937007874015748
          },
          {
            "duration": 0.1327432500000043,
            "durationTicks": 96,
            "midi": 85,
            "name": "C#6",
            "ticks": 154080,
            "time": 213.05291625,
            "velocity": 0.3937007874015748
          },
          {
            "duration": 0.1327432500000043,
            "durationTicks": 96,
            "midi": 73,
            "name": "C#5",
            "ticks": 154080,
            "time": 213.05291625,
            "velocity": 0.3937007874015748
          },
          {
            "duration": 0.1327432500000043,
            "durationTicks": 96,
            "midi": 73,
            "name": "C#5",
            "ticks": 154176,
            "time": 213.1856595,
            "velocity": 0.3937007874015748
          },
          {
            "duration": 0.1327432500000043,
            "durationTicks": 96,
            "midi": 85,
            "name": "C#6",
            "ticks": 154176,
            "time": 213.1856595,
            "velocity": 0.3937007874015748
          },
          {
            "duration": 0.1327432500000043,
            "durationTicks": 96,
            "midi": 85,
            "name": "C#6",
            "ticks": 154272,
            "time": 213.31840275000002,
            "velocity": 0.3937007874015748
          },
          {
            "duration": 0.1327432500000043,
            "durationTicks": 96,
            "midi": 73,
            "name": "C#5",
            "ticks": 154272,
            "time": 213.31840275000002,
            "velocity": 0.3937007874015748
          },
          {
            "duration": 0.1327432499999759,
            "durationTicks": 96,
            "midi": 85,
            "name": "C#6",
            "ticks": 154368,
            "time": 213.45114600000002,
            "velocity": 0.3937007874015748
          },
          {
            "duration": 0.1327432499999759,
            "durationTicks": 96,
            "midi": 73,
            "name": "C#5",
            "ticks": 154368,
            "time": 213.45114600000002,
            "velocity": 0.3937007874015748
          },
          {
            "duration": 0.1327432500000043,
            "durationTicks": 96,
            "midi": 85,
            "name": "C#6",
            "ticks": 154464,
            "time": 213.58388925,
            "velocity": 0.3937007874015748
          },
          {
            "duration": 0.1327432500000043,
            "durationTicks": 96,
            "midi": 85,
            "name": "C#6",
            "ticks": 154464,
            "time": 213.58388925,
            "velocity": 0.3937007874015748
          },
          {
            "duration": 0.1327432500000043,
            "durationTicks": 96,
            "midi": 73,
            "name": "C#5",
            "ticks": 154464,
            "time": 213.58388925,
            "velocity": 0.3937007874015748
          },
          {
            "duration": 0.1327432500000043,
            "durationTicks": 96,
            "midi": 73,
            "name": "C#5",
            "ticks": 154464,
            "time": 213.58388925,
            "velocity": 0.3937007874015748
          }
        ],
        "endOfTrackTicks": 154560
      },
      {
        "channel": 7,
        "controlChanges": {},
        "pitchBends": [],
        "instrument": {
          "family": "strings",
          "number": 43,
          "name": "contrabass"
        },
        "name": "Strings (Sustain)",
        "notes": [
          {
            "duration": 0.7964595000000001,
            "durationTicks": 576,
            "midi": 54,
            "name": "F#3",
            "ticks": 960,
            "time": 1.3274325,
            "velocity": 0.09448818897637795
          },
          {
            "duration": 0.7964595000000001,
            "durationTicks": 576,
            "midi": 61,
            "name": "C#4",
            "ticks": 960,
            "time": 1.3274325,
            "velocity": 0.09448818897637795
          },
          {
            "duration": 0.7964595000000001,
            "durationTicks": 576,
            "midi": 58,
            "name": "A#3",
            "ticks": 960,
            "time": 1.3274325,
            "velocity": 0.09448818897637795
          },
          {
            "duration": 0.7964595000000001,
            "durationTicks": 576,
            "midi": 85,
            "name": "C#6",
            "ticks": 960,
            "time": 1.3274325,
            "velocity": 0.09448818897637795
          },
          {
            "duration": 0.7964595000000001,
            "durationTicks": 576,
            "midi": 61,
            "name": "C#4",
            "ticks": 960,
            "time": 1.3274325,
            "velocity": 0.09448818897637795
          },
          {
            "duration": 0.7964595000000001,
            "durationTicks": 576,
            "midi": 73,
            "name": "C#5",
            "ticks": 960,
            "time": 1.3274325,
            "velocity": 0.09448818897637795
          },
          {
            "duration": 0.7964595000000001,
            "durationTicks": 576,
            "midi": 58,
            "name": "A#3",
            "ticks": 960,
            "time": 1.3274325,
            "velocity": 0.09448818897637795
          },
          {
            "duration": 0.7964595000000001,
            "durationTicks": 576,
            "midi": 60,
            "name": "C4",
            "ticks": 1536,
            "time": 2.123892,
            "velocity": 0.09448818897637795
          },
          {
            "duration": 1.3274325,
            "durationTicks": 960,
            "midi": 56,
            "name": "G#3",
            "ticks": 1536,
            "time": 2.123892,
            "velocity": 0.09448818897637795
          },
          {
            "duration": 0.7964595000000001,
            "durationTicks": 576,
            "midi": 75,
            "name": "D#5",
            "ticks": 1536,
            "time": 2.123892,
            "velocity": 0.09448818897637795
          },
          {
            "duration": 1.3274325,
            "durationTicks": 960,
            "midi": 60,
            "name": "C4",
            "ticks": 1536,
            "time": 2.123892,
            "velocity": 0.09448818897637795
          },
          {
            "duration": 0.7964595000000001,
            "durationTicks": 576,
            "midi": 87,
            "name": "D#6",
            "ticks": 1536,
            "time": 2.123892,
            "velocity": 0.09448818897637795
          },
          {
            "duration": 0.7964595000000001,
            "durationTicks": 576,
            "midi": 63,
            "name": "D#4",
            "ticks": 1536,
            "time": 2.123892,
            "velocity": 0.09448818897637795
          },
          {
            "duration": 1.3274325,
            "durationTicks": 960,
            "midi": 63,
            "name": "D#4",
            "ticks": 1536,
            "time": 2.123892,
            "velocity": 0.09448818897637795
          },
          {
            "duration": 0.5309729999999999,
            "durationTicks": 384,
            "midi": 56,
            "name": "G#3",
            "ticks": 2112,
            "time": 2.9203515,
            "velocity": 0.07086614173228346
          },
          {
            "duration": 0.5309729999999999,
            "durationTicks": 384,
            "midi": 51,
            "name": "D#3",
            "ticks": 2112,
            "time": 2.9203515,
            "velocity": 0.07086614173228346
          },
          {
            "duration": 0.5309729999999999,
            "durationTicks": 384,
            "midi": 68,
            "name": "G#4",
            "ticks": 2112,
            "time": 2.9203515,
            "velocity": 0.07086614173228346
          },
          {
            "duration": 0.5309729999999999,
            "durationTicks": 384,
            "midi": 80,
            "name": "G#5",
            "ticks": 2112,
            "time": 2.9203515,
            "velocity": 0.07086614173228346
          },
          {
            "duration": 0.7964595000000001,
            "durationTicks": 576,
            "midi": 60,
            "name": "C4",
            "ticks": 2496,
            "time": 3.4513245,
            "velocity": 0.09448818897637795
          },
          {
            "duration": 0.7964595000000001,
            "durationTicks": 576,
            "midi": 63,
            "name": "D#4",
            "ticks": 2496,
            "time": 3.4513245,
            "velocity": 0.09448818897637795
          },
          {
            "duration": 0.7964595000000001,
            "durationTicks": 576,
            "midi": 56,
            "name": "G#3",
            "ticks": 2496,
            "time": 3.4513245,
            "velocity": 0.09448818897637795
          },
          {
            "duration": 0.7964595000000001,
            "durationTicks": 576,
            "midi": 87,
            "name": "D#6",
            "ticks": 2496,
            "time": 3.4513245,
            "velocity": 0.09448818897637795
          },
          {
            "duration": 0.7964595000000001,
            "durationTicks": 576,
            "midi": 63,
            "name": "D#4",
            "ticks": 2496,
            "time": 3.4513245,
            "velocity": 0.09448818897637795
          },
          {
            "duration": 0.7964595000000001,
            "durationTicks": 576,
            "midi": 60,
            "name": "C4",
            "ticks": 2496,
            "time": 3.4513245,
            "velocity": 0.09448818897637795
          },
          {
            "duration": 0.7964595000000001,
            "durationTicks": 576,
            "midi": 75,
            "name": "D#5",
            "ticks": 2496,
            "time": 3.4513245,
            "velocity": 0.09448818897637795
          },
          {
            "duration": 1.3274325000000005,
            "durationTicks": 960,
            "midi": 58,
            "name": "A#3",
            "ticks": 3072,
            "time": 4.247784,
            "velocity": 0.09448818897637795
          },
          {
            "duration": 0.7964595000000001,
            "durationTicks": 576,
            "midi": 61,
            "name": "C#4",
            "ticks": 3072,
            "time": 4.247784,
            "velocity": 0.09448818897637795
          },
          {
            "duration": 1.3274325000000005,
            "durationTicks": 960,
            "midi": 53,
            "name": "F3",
            "ticks": 3072,
            "time": 4.247784,
            "velocity": 0.09448818897637795
          },
          {
            "duration": 0.7964595000000001,
            "durationTicks": 576,
            "midi": 89,
            "name": "F6",
            "ticks": 3072,
            "time": 4.247784,
            "velocity": 0.09448818897637795
          },
          {
            "duration": 0.7964595000000001,
            "durationTicks": 576,
            "midi": 77,
            "name": "F5",
            "ticks": 3072,
            "time": 4.247784,
            "velocity": 0.09448818897637795
          },
          {
            "duration": 1.3274325000000005,
            "durationTicks": 960,
            "midi": 61,
            "name": "C#4",
            "ticks": 3072,
            "time": 4.247784,
            "velocity": 0.09448818897637795
          },
          {
            "duration": 0.7964595000000001,
            "durationTicks": 576,
            "midi": 65,
            "name": "F4",
            "ticks": 3072,
            "time": 4.247784,
            "velocity": 0.09448818897637795
          },
          {
            "duration": 0.13274324999999987,
            "durationTicks": 96,
            "midi": 92,
            "name": "G#6",
            "ticks": 3648,
            "time": 5.0442435,
            "velocity": 0.09448818897637795
          },
          {
            "duration": 0.13274324999999987,
            "durationTicks": 96,
            "midi": 80,
            "name": "G#5",
            "ticks": 3648,
            "time": 5.0442435,
            "velocity": 0.09448818897637795
          },
          {
            "duration": 0.13274324999999987,
            "durationTicks": 96,
            "midi": 90,
            "name": "F#6",
            "ticks": 3744,
            "time": 5.17698675,
            "velocity": 0.09448818897637795
          },
          {
            "duration": 0.13274324999999987,
            "durationTicks": 96,
            "midi": 78,
            "name": "F#5",
            "ticks": 3744,
            "time": 5.17698675,
            "velocity": 0.09448818897637795
          },
          {
            "duration": 0.13274324999999987,
            "durationTicks": 96,
            "midi": 77,
            "name": "F5",
            "ticks": 3840,
            "time": 5.30973,
            "velocity": 0.09448818897637795
          },
          {
            "duration": 0.13274324999999987,
            "durationTicks": 96,
            "midi": 89,
            "name": "F6",
            "ticks": 3840,
            "time": 5.30973,
            "velocity": 0.09448818897637795
          },
          {
            "duration": 0.13274325000000076,
            "durationTicks": 96,
            "midi": 73,
            "name": "C#5",
            "ticks": 3936,
            "time": 5.44247325,
            "velocity": 0.09448818897637795
          },
          {
            "duration": 0.13274325000000076,
            "durationTicks": 96,
            "midi": 85,
            "name": "C#6",
            "ticks": 3936,
            "time": 5.44247325,
            "velocity": 0.09448818897637795
          },
          {
            "duration": 0.7964595000000001,
            "durationTicks": 576,
            "midi": 85,
            "name": "C#6",
            "ticks": 4032,
            "time": 5.575216500000001,
            "velocity": 0.09448818897637795
          },
          {
            "duration": 0.7964595000000001,
            "durationTicks": 576,
            "midi": 73,
            "name": "C#5",
            "ticks": 4032,
            "time": 5.575216500000001,
            "velocity": 0.09448818897637795
          },
          {
            "duration": 0.7964595000000001,
            "durationTicks": 576,
            "midi": 61,
            "name": "C#4",
            "ticks": 4032,
            "time": 5.575216500000001,
            "velocity": 0.09448818897637795
          },
          {
            "duration": 0.7964595000000001,
            "durationTicks": 576,
            "midi": 58,
            "name": "A#3",
            "ticks": 4032,
            "time": 5.575216500000001,
            "velocity": 0.09448818897637795
          },
          {
            "duration": 0.7964595000000001,
            "durationTicks": 576,
            "midi": 54,
            "name": "F#3",
            "ticks": 4032,
            "time": 5.575216500000001,
            "velocity": 0.09448818897637795
          },
          {
            "duration": 0.7964595000000001,
            "durationTicks": 576,
            "midi": 61,
            "name": "C#4",
            "ticks": 4032,
            "time": 5.575216500000001,
            "velocity": 0.09448818897637795
          },
          {
            "duration": 0.7964595000000001,
            "durationTicks": 576,
            "midi": 58,
            "name": "A#3",
            "ticks": 4032,
            "time": 5.575216500000001,
            "velocity": 0.09448818897637795
          },
          {
            "duration": 0.7964594999999992,
            "durationTicks": 576,
            "midi": 87,
            "name": "D#6",
            "ticks": 4608,
            "time": 6.371676000000001,
            "velocity": 0.09448818897637795
          },
          {
            "duration": 1.3274324999999996,
            "durationTicks": 960,
            "midi": 56,
            "name": "G#3",
            "ticks": 4608,
            "time": 6.371676000000001,
            "velocity": 0.09448818897637795
          },
          {
            "duration": 0.7964594999999992,
            "durationTicks": 576,
            "midi": 60,
            "name": "C4",
            "ticks": 4608,
            "time": 6.371676000000001,
            "velocity": 0.09448818897637795
          },
          {
            "duration": 1.3274324999999996,
            "durationTicks": 960,
            "midi": 60,
            "name": "C4",
            "ticks": 4608,
            "time": 6.371676000000001,
            "velocity": 0.09448818897637795
          },
          {
            "duration": 0.7964594999999992,
            "durationTicks": 576,
            "midi": 63,
            "name": "D#4",
            "ticks": 4608,
            "time": 6.371676000000001,
            "velocity": 0.09448818897637795
          },
          {
            "duration": 0.7964594999999992,
            "durationTicks": 576,
            "midi": 75,
            "name": "D#5",
            "ticks": 4608,
            "time": 6.371676000000001,
            "velocity": 0.09448818897637795
          },
          {
            "duration": 1.3274324999999996,
            "durationTicks": 960,
            "midi": 63,
            "name": "D#4",
            "ticks": 4608,
            "time": 6.371676000000001,
            "velocity": 0.09448818897637795
          },
          {
            "duration": 1.3274325000000005,
            "durationTicks": 960,
            "midi": 56,
            "name": "G#3",
            "ticks": 5184,
            "time": 7.1681355,
            "velocity": 0.07086614173228346
          },
          {
            "duration": 1.5929190000000002,
            "durationTicks": 1152,
            "midi": 68,
            "name": "G#4",
            "ticks": 5184,
            "time": 7.1681355,
            "velocity": 0.07086614173228346
          },
          {
            "duration": 1.5929190000000002,
            "durationTicks": 1152,
            "midi": 80,
            "name": "G#5",
            "ticks": 5184,
            "time": 7.1681355,
            "velocity": 0.07086614173228346
          },
          {
            "duration": 1.5929190000000002,
            "durationTicks": 1152,
            "midi": 51,
            "name": "D#3",
            "ticks": 5184,
            "time": 7.1681355,
            "velocity": 0.07086614173228346
          },
          {
            "duration": 0.7964595000000001,
            "durationTicks": 576,
            "midi": 63,
            "name": "D#4",
            "ticks": 5568,
            "time": 7.6991085,
            "velocity": 0.09448818897637795
          },
          {
            "duration": 0.7964595000000001,
            "durationTicks": 576,
            "midi": 60,
            "name": "C4",
            "ticks": 5568,
            "time": 7.6991085,
            "velocity": 0.09448818897637795
          },
          {
            "duration": 1.0619459999999998,
            "durationTicks": 768,
            "midi": 56,
            "name": "G#3",
            "ticks": 5568,
            "time": 7.6991085,
            "velocity": 0.09448818897637795
          },
          {
            "duration": 1.3274325000000005,
            "durationTicks": 960,
            "midi": 58,
            "name": "A#3",
            "ticks": 6144,
            "time": 8.495568,
            "velocity": 0.09448818897637795
          },
          {
            "duration": 1.3274325000000005,
            "durationTicks": 960,
            "midi": 53,
            "name": "F3",
            "ticks": 6144,
            "time": 8.495568,
            "velocity": 0.09448818897637795
          },
          {
            "duration": 1.3274325000000005,
            "durationTicks": 960,
            "midi": 61,
            "name": "C#4",
            "ticks": 6144,
            "time": 8.495568,
            "velocity": 0.09448818897637795
          },
          {
            "duration": 0.13274325000000076,
            "durationTicks": 96,
            "midi": 80,
            "name": "G#5",
            "ticks": 6720,
            "time": 9.2920275,
            "velocity": 0.09448818897637795
          },
          {
            "duration": 0.13274325000000076,
            "durationTicks": 96,
            "midi": 92,
            "name": "G#6",
            "ticks": 6720,
            "time": 9.2920275,
            "velocity": 0.09448818897637795
          },
          {
            "duration": 0.13274325000000076,
            "durationTicks": 96,
            "midi": 90,
            "name": "F#6",
            "ticks": 6816,
            "time": 9.42477075,
            "velocity": 0.09448818897637795
          },
          {
            "duration": 0.13274325000000076,
            "durationTicks": 96,
            "midi": 78,
            "name": "F#5",
            "ticks": 6816,
            "time": 9.42477075,
            "velocity": 0.09448818897637795
          },
          {
            "duration": 0.13274324999999898,
            "durationTicks": 96,
            "midi": 89,
            "name": "F6",
            "ticks": 6912,
            "time": 9.557514000000001,
            "velocity": 0.09448818897637795
          },
          {
            "duration": 0.13274324999999898,
            "durationTicks": 96,
            "midi": 77,
            "name": "F5",
            "ticks": 6912,
            "time": 9.557514000000001,
            "velocity": 0.09448818897637795
          },
          {
            "duration": 0.13274325000000076,
            "durationTicks": 96,
            "midi": 73,
            "name": "C#5",
            "ticks": 7008,
            "time": 9.69025725,
            "velocity": 0.09448818897637795
          },
          {
            "duration": 0.13274325000000076,
            "durationTicks": 96,
            "midi": 85,
            "name": "C#6",
            "ticks": 7008,
            "time": 9.69025725,
            "velocity": 0.09448818897637795
          },
          {
            "duration": 0.7964594999999992,
            "durationTicks": 576,
            "midi": 58,
            "name": "A#3",
            "ticks": 7104,
            "time": 9.823000500000001,
            "velocity": 0.09448818897637795
          },
          {
            "duration": 0.7964594999999992,
            "durationTicks": 576,
            "midi": 61,
            "name": "C#4",
            "ticks": 7104,
            "time": 9.823000500000001,
            "velocity": 0.09448818897637795
          },
          {
            "duration": 2.1238919999999997,
            "durationTicks": 1536,
            "midi": 68,
            "name": "G#4",
            "ticks": 7104,
            "time": 9.823000500000001,
            "velocity": 0.09448818897637795
          },
          {
            "duration": 0.7964594999999992,
            "durationTicks": 576,
            "midi": 61,
            "name": "C#4",
            "ticks": 7104,
            "time": 9.823000500000001,
            "velocity": 0.09448818897637795
          },
          {
            "duration": 0.7964594999999992,
            "durationTicks": 576,
            "midi": 58,
            "name": "A#3",
            "ticks": 7104,
            "time": 9.823000500000001,
            "velocity": 0.09448818897637795
          },
          {
            "duration": 0.7964594999999992,
            "durationTicks": 576,
            "midi": 85,
            "name": "C#6",
            "ticks": 7104,
            "time": 9.823000500000001,
            "velocity": 0.09448818897637795
          },
          {
            "duration": 0.7964594999999992,
            "durationTicks": 576,
            "midi": 54,
            "name": "F#3",
            "ticks": 7104,
            "time": 9.823000500000001,
            "velocity": 0.09448818897637795
          },
          {
            "duration": 0.7964594999999992,
            "durationTicks": 576,
            "midi": 73,
            "name": "C#5",
            "ticks": 7104,
            "time": 9.823000500000001,
            "velocity": 0.09448818897637795
          },
          {
            "duration": 0.796459500000001,
            "durationTicks": 576,
            "midi": 63,
            "name": "D#4",
            "ticks": 7680,
            "time": 10.61946,
            "velocity": 0.09448818897637795
          },
          {
            "duration": 0.796459500000001,
            "durationTicks": 576,
            "midi": 60,
            "name": "C4",
            "ticks": 7680,
            "time": 10.61946,
            "velocity": 0.09448818897637795
          },
          {
            "duration": 0.796459500000001,
            "durationTicks": 576,
            "midi": 87,
            "name": "D#6",
            "ticks": 7680,
            "time": 10.61946,
            "velocity": 0.09448818897637795
          },
          {
            "duration": 1.3274325000000005,
            "durationTicks": 960,
            "midi": 63,
            "name": "D#4",
            "ticks": 7680,
            "time": 10.61946,
            "velocity": 0.09448818897637795
          },
          {
            "duration": 0.796459500000001,
            "durationTicks": 576,
            "midi": 75,
            "name": "D#5",
            "ticks": 7680,
            "time": 10.61946,
            "velocity": 0.09448818897637795
          },
          {
            "duration": 1.3274325000000005,
            "durationTicks": 960,
            "midi": 56,
            "name": "G#3",
            "ticks": 7680,
            "time": 10.61946,
            "velocity": 0.09448818897637795
          },
          {
            "duration": 1.3274325000000005,
            "durationTicks": 960,
            "midi": 60,
            "name": "C4",
            "ticks": 7680,
            "time": 10.61946,
            "velocity": 0.09448818897637795
          },
          {
            "duration": 0.5309729999999995,
            "durationTicks": 384,
            "midi": 80,
            "name": "G#5",
            "ticks": 8256,
            "time": 11.415919500000001,
            "velocity": 0.07086614173228346
          },
          {
            "duration": 0.5309729999999995,
            "durationTicks": 384,
            "midi": 68,
            "name": "G#4",
            "ticks": 8256,
            "time": 11.415919500000001,
            "velocity": 0.07086614173228346
          },
          {
            "duration": 0.5309729999999995,
            "durationTicks": 384,
            "midi": 56,
            "name": "G#3",
            "ticks": 8256,
            "time": 11.415919500000001,
            "velocity": 0.07086614173228346
          },
          {
            "duration": 0.5309729999999995,
            "durationTicks": 384,
            "midi": 51,
            "name": "D#3",
            "ticks": 8256,
            "time": 11.415919500000001,
            "velocity": 0.07086614173228346
          },
          {
            "duration": 0.796459500000001,
            "durationTicks": 576,
            "midi": 63,
            "name": "D#4",
            "ticks": 8640,
            "time": 11.9468925,
            "velocity": 0.09448818897637795
          },
          {
            "duration": 0.796459500000001,
            "durationTicks": 576,
            "midi": 87,
            "name": "D#6",
            "ticks": 8640,
            "time": 11.9468925,
            "velocity": 0.09448818897637795
          },
          {
            "duration": 0.796459500000001,
            "durationTicks": 576,
            "midi": 75,
            "name": "D#5",
            "ticks": 8640,
            "time": 11.9468925,
            "velocity": 0.09448818897637795
          },
          {
            "duration": 0.796459500000001,
            "durationTicks": 576,
            "midi": 60,
            "name": "C4",
            "ticks": 8640,
            "time": 11.9468925,
            "velocity": 0.09448818897637795
          },
          {
            "duration": 0.796459500000001,
            "durationTicks": 576,
            "midi": 60,
            "name": "C4",
            "ticks": 8640,
            "time": 11.9468925,
            "velocity": 0.09448818897637795
          },
          {
            "duration": 0.796459500000001,
            "durationTicks": 576,
            "midi": 63,
            "name": "D#4",
            "ticks": 8640,
            "time": 11.9468925,
            "velocity": 0.09448818897637795
          },
          {
            "duration": 0.796459500000001,
            "durationTicks": 576,
            "midi": 56,
            "name": "G#3",
            "ticks": 8640,
            "time": 11.9468925,
            "velocity": 0.09448818897637795
          },
          {
            "duration": 1.5929190000000002,
            "durationTicks": 1152,
            "midi": 68,
            "name": "G#4",
            "ticks": 8640,
            "time": 11.9468925,
            "velocity": 0.09448818897637795
          },
          {
            "duration": 0.7964594999999992,
            "durationTicks": 576,
            "midi": 89,
            "name": "F6",
            "ticks": 9216,
            "time": 12.743352000000002,
            "velocity": 0.09448818897637795
          },
          {
            "duration": 0.7964594999999992,
            "durationTicks": 576,
            "midi": 77,
            "name": "F5",
            "ticks": 9216,
            "time": 12.743352000000002,
            "velocity": 0.09448818897637795
          },
          {
            "duration": 0.7964594999999992,
            "durationTicks": 576,
            "midi": 65,
            "name": "F4",
            "ticks": 9216,
            "time": 12.743352000000002,
            "velocity": 0.09448818897637795
          },
          {
            "duration": 0.7964594999999992,
            "durationTicks": 576,
            "midi": 61,
            "name": "C#4",
            "ticks": 9216,
            "time": 12.743352000000002,
            "velocity": 0.09448818897637795
          },
          {
            "duration": 1.3274324999999987,
            "durationTicks": 960,
            "midi": 58,
            "name": "A#3",
            "ticks": 9216,
            "time": 12.743352000000002,
            "velocity": 0.09448818897637795
          },
          {
            "duration": 1.3274324999999987,
            "durationTicks": 960,
            "midi": 61,
            "name": "C#4",
            "ticks": 9216,
            "time": 12.743352000000002,
            "velocity": 0.09448818897637795
          },
          {
            "duration": 1.3274324999999987,
            "durationTicks": 960,
            "midi": 53,
            "name": "F3",
            "ticks": 9216,
            "time": 12.743352000000002,
            "velocity": 0.09448818897637795
          },
          {
            "duration": 0.13274325000000076,
            "durationTicks": 96,
            "midi": 80,
            "name": "G#5",
            "ticks": 9792,
            "time": 13.5398115,
            "velocity": 0.09448818897637795
          },
          {
            "duration": 0.13274325000000076,
            "durationTicks": 96,
            "midi": 92,
            "name": "G#6",
            "ticks": 9792,
            "time": 13.5398115,
            "velocity": 0.09448818897637795
          },
          {
            "duration": 0.13274324999999898,
            "durationTicks": 96,
            "midi": 90,
            "name": "F#6",
            "ticks": 9888,
            "time": 13.672554750000002,
            "velocity": 0.09448818897637795
          },
          {
            "duration": 0.13274324999999898,
            "durationTicks": 96,
            "midi": 78,
            "name": "F#5",
            "ticks": 9888,
            "time": 13.672554750000002,
            "velocity": 0.09448818897637795
          },
          {
            "duration": 0.13274325000000076,
            "durationTicks": 96,
            "midi": 89,
            "name": "F6",
            "ticks": 9984,
            "time": 13.805298,
            "velocity": 0.09448818897637795
          },
          {
            "duration": 0.13274325000000076,
            "durationTicks": 96,
            "midi": 77,
            "name": "F5",
            "ticks": 9984,
            "time": 13.805298,
            "velocity": 0.09448818897637795
          },
          {
            "duration": 0.13274324999999898,
            "durationTicks": 96,
            "midi": 85,
            "name": "C#6",
            "ticks": 10080,
            "time": 13.938041250000001,
            "velocity": 0.09448818897637795
          },
          {
            "duration": 0.13274324999999898,
            "durationTicks": 96,
            "midi": 73,
            "name": "C#5",
            "ticks": 10080,
            "time": 13.938041250000001,
            "velocity": 0.09448818897637795
          },
          {
            "duration": 0.796459500000001,
            "durationTicks": 576,
            "midi": 58,
            "name": "A#3",
            "ticks": 10176,
            "time": 14.0707845,
            "velocity": 0.09448818897637795
          },
          {
            "duration": 0.796459500000001,
            "durationTicks": 576,
            "midi": 85,
            "name": "C#6",
            "ticks": 10176,
            "time": 14.0707845,
            "velocity": 0.09448818897637795
          },
          {
            "duration": 0.796459500000001,
            "durationTicks": 576,
            "midi": 61,
            "name": "C#4",
            "ticks": 10176,
            "time": 14.0707845,
            "velocity": 0.09448818897637795
          },
          {
            "duration": 0.796459500000001,
            "durationTicks": 576,
            "midi": 61,
            "name": "C#4",
            "ticks": 10176,
            "time": 14.0707845,
            "velocity": 0.09448818897637795
          },
          {
            "duration": 0.796459500000001,
            "durationTicks": 576,
            "midi": 73,
            "name": "C#5",
            "ticks": 10176,
            "time": 14.0707845,
            "velocity": 0.09448818897637795
          },
          {
            "duration": 0.796459500000001,
            "durationTicks": 576,
            "midi": 58,
            "name": "A#3",
            "ticks": 10176,
            "time": 14.0707845,
            "velocity": 0.09448818897637795
          },
          {
            "duration": 0.796459500000001,
            "durationTicks": 576,
            "midi": 54,
            "name": "F#3",
            "ticks": 10176,
            "time": 14.0707845,
            "velocity": 0.09448818897637795
          },
          {
            "duration": 0.7964594999999992,
            "durationTicks": 576,
            "midi": 60,
            "name": "C4",
            "ticks": 10752,
            "time": 14.867244000000001,
            "velocity": 0.09448818897637795
          },
          {
            "duration": 0.7964594999999992,
            "durationTicks": 576,
            "midi": 63,
            "name": "D#4",
            "ticks": 10752,
            "time": 14.867244000000001,
            "velocity": 0.09448818897637795
          },
          {
            "duration": 0.7964594999999992,
            "durationTicks": 576,
            "midi": 87,
            "name": "D#6",
            "ticks": 10752,
            "time": 14.867244000000001,
            "velocity": 0.09448818897637795
          },
          {
            "duration": 1.061945999999999,
            "durationTicks": 768,
            "midi": 60,
            "name": "C4",
            "ticks": 10752,
            "time": 14.867244000000001,
            "velocity": 0.09448818897637795
          },
          {
            "duration": 0.7964594999999992,
            "durationTicks": 576,
            "midi": 75,
            "name": "D#5",
            "ticks": 10752,
            "time": 14.867244000000001,
            "velocity": 0.09448818897637795
          },
          {
            "duration": 1.061945999999999,
            "durationTicks": 768,
            "midi": 63,
            "name": "D#4",
            "ticks": 10752,
            "time": 14.867244000000001,
            "velocity": 0.09448818897637795
          },
          {
            "duration": 1.061945999999999,
            "durationTicks": 768,
            "midi": 56,
            "name": "G#3",
            "ticks": 10752,
            "time": 14.867244000000001,
            "velocity": 0.09448818897637795
          },
          {
            "duration": 0.796459500000001,
            "durationTicks": 576,
            "midi": 56,
            "name": "G#3",
            "ticks": 11328,
            "time": 15.6637035,
            "velocity": 0.07086614173228346
          },
          {
            "duration": 1.592919000000002,
            "durationTicks": 1152,
            "midi": 51,
            "name": "D#3",
            "ticks": 11328,
            "time": 15.6637035,
            "velocity": 0.07086614173228346
          },
          {
            "duration": 1.592919000000002,
            "durationTicks": 1152,
            "midi": 80,
            "name": "G#5",
            "ticks": 11328,
            "time": 15.6637035,
            "velocity": 0.07086614173228346
          },
          {
            "duration": 1.592919000000002,
            "durationTicks": 1152,
            "midi": 68,
            "name": "G#4",
            "ticks": 11328,
            "time": 15.6637035,
            "velocity": 0.07086614173228346
          },
          {
            "duration": 0.5309730000000012,
            "durationTicks": 384,
            "midi": 63,
            "name": "D#4",
            "ticks": 11520,
            "time": 15.92919,
            "velocity": 0.09448818897637795
          },
          {
            "duration": 0.7964594999999992,
            "durationTicks": 576,
            "midi": 56,
            "name": "G#3",
            "ticks": 11520,
            "time": 15.92919,
            "velocity": 0.09448818897637795
          },
          {
            "duration": 0.5309730000000012,
            "durationTicks": 384,
            "midi": 60,
            "name": "C4",
            "ticks": 11520,
            "time": 15.92919,
            "velocity": 0.09448818897637795
          },
          {
            "duration": 0.26548649999999796,
            "durationTicks": 192,
            "midi": 53,
            "name": "F3",
            "ticks": 11904,
            "time": 16.460163,
            "velocity": 0.09448818897637795
          },
          {
            "duration": 0.26548649999999796,
            "durationTicks": 192,
            "midi": 61,
            "name": "C#4",
            "ticks": 11904,
            "time": 16.460163,
            "velocity": 0.09448818897637795
          },
          {
            "duration": 0.796459500000001,
            "durationTicks": 576,
            "midi": 56,
            "name": "G#3",
            "ticks": 11904,
            "time": 16.460163,
            "velocity": 0.09448818897637795
          },
          {
            "duration": 1.592919000000002,
            "durationTicks": 1152,
            "midi": 61,
            "name": "C#4",
            "ticks": 12096,
            "time": 16.7256495,
            "velocity": 0.09448818897637795
          },
          {
            "duration": 1.592919000000002,
            "durationTicks": 1152,
            "midi": 53,
            "name": "F3",
            "ticks": 12096,
            "time": 16.7256495,
            "velocity": 0.09448818897637795
          },
          {
            "duration": 1.592919000000002,
            "durationTicks": 1152,
            "midi": 56,
            "name": "G#3",
            "ticks": 12096,
            "time": 16.7256495,
            "velocity": 0.09448818897637795
          },
          {
            "duration": 2.1238920000000014,
            "durationTicks": 1536,
            "midi": 61,
            "name": "C#4",
            "ticks": 13248,
            "time": 18.3185685,
            "velocity": 0.09448818897637795
          },
          {
            "duration": 2.1238920000000014,
            "durationTicks": 1536,
            "midi": 65,
            "name": "F4",
            "ticks": 13248,
            "time": 18.3185685,
            "velocity": 0.09448818897637795
          },
          {
            "duration": 2.1238920000000014,
            "durationTicks": 1536,
            "midi": 58,
            "name": "A#3",
            "ticks": 13248,
            "time": 18.3185685,
            "velocity": 0.09448818897637795
          },
          {
            "duration": 2.1238920000000014,
            "durationTicks": 1536,
            "midi": 61,
            "name": "C#4",
            "ticks": 13248,
            "time": 18.3185685,
            "velocity": 0.05511811023622047
          },
          {
            "duration": 2.1238920000000014,
            "durationTicks": 1536,
            "midi": 65,
            "name": "F4",
            "ticks": 13248,
            "time": 18.3185685,
            "velocity": 0.05511811023622047
          },
          {
            "duration": 2.123891999999998,
            "durationTicks": 1536,
            "midi": 63,
            "name": "D#4",
            "ticks": 14784,
            "time": 20.442460500000003,
            "velocity": 0.05511811023622047
          },
          {
            "duration": 2.123891999999998,
            "durationTicks": 1536,
            "midi": 60,
            "name": "C4",
            "ticks": 14784,
            "time": 20.442460500000003,
            "velocity": 0.05511811023622047
          },
          {
            "duration": 2.123891999999998,
            "durationTicks": 1536,
            "midi": 60,
            "name": "C4",
            "ticks": 14784,
            "time": 20.442460500000003,
            "velocity": 0.09448818897637795
          },
          {
            "duration": 2.123891999999998,
            "durationTicks": 1536,
            "midi": 56,
            "name": "G#3",
            "ticks": 14784,
            "time": 20.442460500000003,
            "velocity": 0.09448818897637795
          },
          {
            "duration": 2.123891999999998,
            "durationTicks": 1536,
            "midi": 63,
            "name": "D#4",
            "ticks": 14784,
            "time": 20.442460500000003,
            "velocity": 0.09448818897637795
          },
          {
            "duration": 2.1238920000000014,
            "durationTicks": 1536,
            "midi": 61,
            "name": "C#4",
            "ticks": 16320,
            "time": 22.5663525,
            "velocity": 0.05511811023622047
          },
          {
            "duration": 2.1238920000000014,
            "durationTicks": 1536,
            "midi": 65,
            "name": "F4",
            "ticks": 16320,
            "time": 22.5663525,
            "velocity": 0.05511811023622047
          },
          {
            "duration": 2.1238920000000014,
            "durationTicks": 1536,
            "midi": 58,
            "name": "A#3",
            "ticks": 16320,
            "time": 22.5663525,
            "velocity": 0.09448818897637795
          },
          {
            "duration": 2.1238920000000014,
            "durationTicks": 1536,
            "midi": 61,
            "name": "C#4",
            "ticks": 16320,
            "time": 22.5663525,
            "velocity": 0.09448818897637795
          },
          {
            "duration": 2.1238920000000014,
            "durationTicks": 1536,
            "midi": 65,
            "name": "F4",
            "ticks": 16320,
            "time": 22.5663525,
            "velocity": 0.09448818897637795
          },
          {
            "duration": 2.1238920000000014,
            "durationTicks": 1536,
            "midi": 58,
            "name": "A#3",
            "ticks": 19392,
            "time": 26.8141365,
            "velocity": 0.09448818897637795
          },
          {
            "duration": 2.1238920000000014,
            "durationTicks": 1536,
            "midi": 61,
            "name": "C#4",
            "ticks": 19392,
            "time": 26.8141365,
            "velocity": 0.05511811023622047
          },
          {
            "duration": 2.1238920000000014,
            "durationTicks": 1536,
            "midi": 61,
            "name": "C#4",
            "ticks": 19392,
            "time": 26.8141365,
            "velocity": 0.09448818897637795
          },
          {
            "duration": 2.1238920000000014,
            "durationTicks": 1536,
            "midi": 65,
            "name": "F4",
            "ticks": 19392,
            "time": 26.8141365,
            "velocity": 0.05511811023622047
          },
          {
            "duration": 2.1238920000000014,
            "durationTicks": 1536,
            "midi": 65,
            "name": "F4",
            "ticks": 19392,
            "time": 26.8141365,
            "velocity": 0.09448818897637795
          },
          {
            "duration": 2.1238920000000014,
            "durationTicks": 1536,
            "midi": 60,
            "name": "C4",
            "ticks": 20928,
            "time": 28.9380285,
            "velocity": 0.09448818897637795
          },
          {
            "duration": 2.1238920000000014,
            "durationTicks": 1536,
            "midi": 56,
            "name": "G#3",
            "ticks": 20928,
            "time": 28.9380285,
            "velocity": 0.09448818897637795
          },
          {
            "duration": 2.1238920000000014,
            "durationTicks": 1536,
            "midi": 63,
            "name": "D#4",
            "ticks": 20928,
            "time": 28.9380285,
            "velocity": 0.05511811023622047
          },
          {
            "duration": 2.1238920000000014,
            "durationTicks": 1536,
            "midi": 63,
            "name": "D#4",
            "ticks": 20928,
            "time": 28.9380285,
            "velocity": 0.09448818897637795
          },
          {
            "duration": 2.1238920000000014,
            "durationTicks": 1536,
            "midi": 60,
            "name": "C4",
            "ticks": 20928,
            "time": 28.9380285,
            "velocity": 0.05511811023622047
          },
          {
            "duration": 2.1238920000000014,
            "durationTicks": 1536,
            "midi": 61,
            "name": "C#4",
            "ticks": 22464,
            "time": 31.061920500000003,
            "velocity": 0.05511811023622047
          },
          {
            "duration": 2.1238920000000014,
            "durationTicks": 1536,
            "midi": 65,
            "name": "F4",
            "ticks": 22464,
            "time": 31.061920500000003,
            "velocity": 0.05511811023622047
          },
          {
            "duration": 2.1238920000000014,
            "durationTicks": 1536,
            "midi": 65,
            "name": "F4",
            "ticks": 22464,
            "time": 31.061920500000003,
            "velocity": 0.09448818897637795
          },
          {
            "duration": 2.1238920000000014,
            "durationTicks": 1536,
            "midi": 61,
            "name": "C#4",
            "ticks": 22464,
            "time": 31.061920500000003,
            "velocity": 0.09448818897637795
          },
          {
            "duration": 2.1238920000000014,
            "durationTicks": 1536,
            "midi": 58,
            "name": "A#3",
            "ticks": 22464,
            "time": 31.061920500000003,
            "velocity": 0.09448818897637795
          },
          {
            "duration": 0.7964595000000045,
            "durationTicks": 576,
            "midi": 54,
            "name": "F#3",
            "ticks": 31680,
            "time": 43.8052725,
            "velocity": 0.09448818897637795
          },
          {
            "duration": 0.7964595000000045,
            "durationTicks": 576,
            "midi": 73,
            "name": "C#5",
            "ticks": 31680,
            "time": 43.8052725,
            "velocity": 0.09448818897637795
          },
          {
            "duration": 0.7964595000000045,
            "durationTicks": 576,
            "midi": 61,
            "name": "C#4",
            "ticks": 31680,
            "time": 43.8052725,
            "velocity": 0.09448818897637795
          },
          {
            "duration": 2.123892000000005,
            "durationTicks": 1536,
            "midi": 68,
            "name": "G#4",
            "ticks": 31680,
            "time": 43.8052725,
            "velocity": 0.09448818897637795
          },
          {
            "duration": 0.7964595000000045,
            "durationTicks": 576,
            "midi": 61,
            "name": "C#4",
            "ticks": 31680,
            "time": 43.8052725,
            "velocity": 0.09448818897637795
          },
          {
            "duration": 0.7964595000000045,
            "durationTicks": 576,
            "midi": 85,
            "name": "C#6",
            "ticks": 31680,
            "time": 43.8052725,
            "velocity": 0.09448818897637795
          },
          {
            "duration": 0.7964595000000045,
            "durationTicks": 576,
            "midi": 58,
            "name": "A#3",
            "ticks": 31680,
            "time": 43.8052725,
            "velocity": 0.09448818897637795
          },
          {
            "duration": 0.7964595000000045,
            "durationTicks": 576,
            "midi": 58,
            "name": "A#3",
            "ticks": 31680,
            "time": 43.8052725,
            "velocity": 0.09448818897637795
          },
          {
            "duration": 1.3274325000000005,
            "durationTicks": 960,
            "midi": 56,
            "name": "G#3",
            "ticks": 32256,
            "time": 44.601732000000005,
            "velocity": 0.09448818897637795
          },
          {
            "duration": 0.7964594999999974,
            "durationTicks": 576,
            "midi": 75,
            "name": "D#5",
            "ticks": 32256,
            "time": 44.601732000000005,
            "velocity": 0.09448818897637795
          },
          {
            "duration": 0.7964594999999974,
            "durationTicks": 576,
            "midi": 63,
            "name": "D#4",
            "ticks": 32256,
            "time": 44.601732000000005,
            "velocity": 0.09448818897637795
          },
          {
            "duration": 0.7964594999999974,
            "durationTicks": 576,
            "midi": 60,
            "name": "C4",
            "ticks": 32256,
            "time": 44.601732000000005,
            "velocity": 0.09448818897637795
          },
          {
            "duration": 1.3274325000000005,
            "durationTicks": 960,
            "midi": 63,
            "name": "D#4",
            "ticks": 32256,
            "time": 44.601732000000005,
            "velocity": 0.09448818897637795
          },
          {
            "duration": 0.7964594999999974,
            "durationTicks": 576,
            "midi": 87,
            "name": "D#6",
            "ticks": 32256,
            "time": 44.601732000000005,
            "velocity": 0.09448818897637795
          },
          {
            "duration": 1.3274325000000005,
            "durationTicks": 960,
            "midi": 60,
            "name": "C4",
            "ticks": 32256,
            "time": 44.601732000000005,
            "velocity": 0.09448818897637795
          },
          {
            "duration": 0.530973000000003,
            "durationTicks": 384,
            "midi": 51,
            "name": "D#3",
            "ticks": 32832,
            "time": 45.3981915,
            "velocity": 0.07086614173228346
          },
          {
            "duration": 0.530973000000003,
            "durationTicks": 384,
            "midi": 68,
            "name": "G#4",
            "ticks": 32832,
            "time": 45.3981915,
            "velocity": 0.07086614173228346
          },
          {
            "duration": 0.530973000000003,
            "durationTicks": 384,
            "midi": 80,
            "name": "G#5",
            "ticks": 32832,
            "time": 45.3981915,
            "velocity": 0.07086614173228346
          },
          {
            "duration": 0.530973000000003,
            "durationTicks": 384,
            "midi": 56,
            "name": "G#3",
            "ticks": 32832,
            "time": 45.3981915,
            "velocity": 0.07086614173228346
          },
          {
            "duration": 0.7964594999999974,
            "durationTicks": 576,
            "midi": 60,
            "name": "C4",
            "ticks": 33216,
            "time": 45.929164500000006,
            "velocity": 0.09448818897637795
          },
          {
            "duration": 0.7964594999999974,
            "durationTicks": 576,
            "midi": 63,
            "name": "D#4",
            "ticks": 33216,
            "time": 45.929164500000006,
            "velocity": 0.09448818897637795
          },
          {
            "duration": 0.7964594999999974,
            "durationTicks": 576,
            "midi": 60,
            "name": "C4",
            "ticks": 33216,
            "time": 45.929164500000006,
            "velocity": 0.09448818897637795
          },
          {
            "duration": 1.5929189999999949,
            "durationTicks": 1152,
            "midi": 68,
            "name": "G#4",
            "ticks": 33216,
            "time": 45.929164500000006,
            "velocity": 0.09448818897637795
          },
          {
            "duration": 0.7964594999999974,
            "durationTicks": 576,
            "midi": 63,
            "name": "D#4",
            "ticks": 33216,
            "time": 45.929164500000006,
            "velocity": 0.09448818897637795
          },
          {
            "duration": 0.7964594999999974,
            "durationTicks": 576,
            "midi": 87,
            "name": "D#6",
            "ticks": 33216,
            "time": 45.929164500000006,
            "velocity": 0.09448818897637795
          },
          {
            "duration": 0.7964594999999974,
            "durationTicks": 576,
            "midi": 56,
            "name": "G#3",
            "ticks": 33216,
            "time": 45.929164500000006,
            "velocity": 0.09448818897637795
          },
          {
            "duration": 0.7964594999999974,
            "durationTicks": 576,
            "midi": 75,
            "name": "D#5",
            "ticks": 33216,
            "time": 45.929164500000006,
            "velocity": 0.09448818897637795
          },
          {
            "duration": 0.7964594999999974,
            "durationTicks": 576,
            "midi": 61,
            "name": "C#4",
            "ticks": 33792,
            "time": 46.725624,
            "velocity": 0.09448818897637795
          },
          {
            "duration": 0.7964594999999974,
            "durationTicks": 576,
            "midi": 77,
            "name": "F5",
            "ticks": 33792,
            "time": 46.725624,
            "velocity": 0.09448818897637795
          },
          {
            "duration": 1.3274325000000005,
            "durationTicks": 960,
            "midi": 58,
            "name": "A#3",
            "ticks": 33792,
            "time": 46.725624,
            "velocity": 0.09448818897637795
          },
          {
            "duration": 1.3274325000000005,
            "durationTicks": 960,
            "midi": 53,
            "name": "F3",
            "ticks": 33792,
            "time": 46.725624,
            "velocity": 0.09448818897637795
          },
          {
            "duration": 0.7964594999999974,
            "durationTicks": 576,
            "midi": 65,
            "name": "F4",
            "ticks": 33792,
            "time": 46.725624,
            "velocity": 0.09448818897637795
          },
          {
            "duration": 0.7964594999999974,
            "durationTicks": 576,
            "midi": 89,
            "name": "F6",
            "ticks": 33792,
            "time": 46.725624,
            "velocity": 0.09448818897637795
          },
          {
            "duration": 1.3274325000000005,
            "durationTicks": 960,
            "midi": 61,
            "name": "C#4",
            "ticks": 33792,
            "time": 46.725624,
            "velocity": 0.09448818897637795
          },
          {
            "duration": 0.1327432500000043,
            "durationTicks": 96,
            "midi": 92,
            "name": "G#6",
            "ticks": 34368,
            "time": 47.5220835,
            "velocity": 0.09448818897637795
          },
          {
            "duration": 0.1327432500000043,
            "durationTicks": 96,
            "midi": 80,
            "name": "G#5",
            "ticks": 34368,
            "time": 47.5220835,
            "velocity": 0.09448818897637795
          },
          {
            "duration": 0.1327432499999972,
            "durationTicks": 96,
            "midi": 78,
            "name": "F#5",
            "ticks": 34464,
            "time": 47.654826750000005,
            "velocity": 0.09448818897637795
          },
          {
            "duration": 0.1327432499999972,
            "durationTicks": 96,
            "midi": 90,
            "name": "F#6",
            "ticks": 34464,
            "time": 47.654826750000005,
            "velocity": 0.09448818897637795
          },
          {
            "duration": 0.1327432499999972,
            "durationTicks": 96,
            "midi": 89,
            "name": "F6",
            "ticks": 34560,
            "time": 47.78757,
            "velocity": 0.09448818897637795
          },
          {
            "duration": 0.1327432499999972,
            "durationTicks": 96,
            "midi": 77,
            "name": "F5",
            "ticks": 34560,
            "time": 47.78757,
            "velocity": 0.09448818897637795
          },
          {
            "duration": 0.1327432500000043,
            "durationTicks": 96,
            "midi": 85,
            "name": "C#6",
            "ticks": 34656,
            "time": 47.92031325,
            "velocity": 0.09448818897637795
          },
          {
            "duration": 0.1327432500000043,
            "durationTicks": 96,
            "midi": 73,
            "name": "C#5",
            "ticks": 34656,
            "time": 47.92031325,
            "velocity": 0.09448818897637795
          },
          {
            "duration": 0.7964594999999974,
            "durationTicks": 576,
            "midi": 61,
            "name": "C#4",
            "ticks": 34752,
            "time": 48.053056500000004,
            "velocity": 0.09448818897637795
          },
          {
            "duration": 0.7964594999999974,
            "durationTicks": 576,
            "midi": 58,
            "name": "A#3",
            "ticks": 34752,
            "time": 48.053056500000004,
            "velocity": 0.09448818897637795
          },
          {
            "duration": 0.7964594999999974,
            "durationTicks": 576,
            "midi": 54,
            "name": "F#3",
            "ticks": 34752,
            "time": 48.053056500000004,
            "velocity": 0.09448818897637795
          },
          {
            "duration": 0.7964594999999974,
            "durationTicks": 576,
            "midi": 58,
            "name": "A#3",
            "ticks": 34752,
            "time": 48.053056500000004,
            "velocity": 0.09448818897637795
          },
          {
            "duration": 0.7964594999999974,
            "durationTicks": 576,
            "midi": 61,
            "name": "C#4",
            "ticks": 34752,
            "time": 48.053056500000004,
            "velocity": 0.09448818897637795
          },
          {
            "duration": 0.7964594999999974,
            "durationTicks": 576,
            "midi": 73,
            "name": "C#5",
            "ticks": 34752,
            "time": 48.053056500000004,
            "velocity": 0.09448818897637795
          },
          {
            "duration": 0.7964594999999974,
            "durationTicks": 576,
            "midi": 85,
            "name": "C#6",
            "ticks": 34752,
            "time": 48.053056500000004,
            "velocity": 0.09448818897637795
          },
          {
            "duration": 0.7964595000000045,
            "durationTicks": 576,
            "midi": 60,
            "name": "C4",
            "ticks": 35328,
            "time": 48.849516,
            "velocity": 0.09448818897637795
          },
          {
            "duration": 0.7964595000000045,
            "durationTicks": 576,
            "midi": 63,
            "name": "D#4",
            "ticks": 35328,
            "time": 48.849516,
            "velocity": 0.09448818897637795
          },
          {
            "duration": 1.3274325000000005,
            "durationTicks": 960,
            "midi": 60,
            "name": "C4",
            "ticks": 35328,
            "time": 48.849516,
            "velocity": 0.09448818897637795
          },
          {
            "duration": 1.3274325000000005,
            "durationTicks": 960,
            "midi": 63,
            "name": "D#4",
            "ticks": 35328,
            "time": 48.849516,
            "velocity": 0.09448818897637795
          },
          {
            "duration": 0.7964595000000045,
            "durationTicks": 576,
            "midi": 87,
            "name": "D#6",
            "ticks": 35328,
            "time": 48.849516,
            "velocity": 0.09448818897637795
          },
          {
            "duration": 1.3274325000000005,
            "durationTicks": 960,
            "midi": 56,
            "name": "G#3",
            "ticks": 35328,
            "time": 48.849516,
            "velocity": 0.09448818897637795
          },
          {
            "duration": 0.7964595000000045,
            "durationTicks": 576,
            "midi": 75,
            "name": "D#5",
            "ticks": 35328,
            "time": 48.849516,
            "velocity": 0.09448818897637795
          },
          {
            "duration": 1.5929189999999949,
            "durationTicks": 1152,
            "midi": 68,
            "name": "G#4",
            "ticks": 35904,
            "time": 49.645975500000006,
            "velocity": 0.07086614173228346
          },
          {
            "duration": 1.3274325000000005,
            "durationTicks": 960,
            "midi": 56,
            "name": "G#3",
            "ticks": 35904,
            "time": 49.645975500000006,
            "velocity": 0.07086614173228346
          },
          {
            "duration": 1.5929189999999949,
            "durationTicks": 1152,
            "midi": 51,
            "name": "D#3",
            "ticks": 35904,
            "time": 49.645975500000006,
            "velocity": 0.07086614173228346
          },
          {
            "duration": 1.5929189999999949,
            "durationTicks": 1152,
            "midi": 80,
            "name": "G#5",
            "ticks": 35904,
            "time": 49.645975500000006,
            "velocity": 0.07086614173228346
          },
          {
            "duration": 1.061945999999999,
            "durationTicks": 768,
            "midi": 56,
            "name": "G#3",
            "ticks": 36288,
            "time": 50.1769485,
            "velocity": 0.09448818897637795
          },
          {
            "duration": 0.7964595000000045,
            "durationTicks": 576,
            "midi": 63,
            "name": "D#4",
            "ticks": 36288,
            "time": 50.1769485,
            "velocity": 0.09448818897637795
          },
          {
            "duration": 0.7964595000000045,
            "durationTicks": 576,
            "midi": 60,
            "name": "C4",
            "ticks": 36288,
            "time": 50.1769485,
            "velocity": 0.09448818897637795
          },
          {
            "duration": 1.3274324999999934,
            "durationTicks": 960,
            "midi": 53,
            "name": "F3",
            "ticks": 36864,
            "time": 50.973408000000006,
            "velocity": 0.09448818897637795
          },
          {
            "duration": 1.3274324999999934,
            "durationTicks": 960,
            "midi": 58,
            "name": "A#3",
            "ticks": 36864,
            "time": 50.973408000000006,
            "velocity": 0.09448818897637795
          },
          {
            "duration": 1.3274324999999934,
            "durationTicks": 960,
            "midi": 61,
            "name": "C#4",
            "ticks": 36864,
            "time": 50.973408000000006,
            "velocity": 0.09448818897637795
          },
          {
            "duration": 0.1327432499999972,
            "durationTicks": 96,
            "midi": 92,
            "name": "G#6",
            "ticks": 37440,
            "time": 51.769867500000004,
            "velocity": 0.09448818897637795
          },
          {
            "duration": 0.1327432499999972,
            "durationTicks": 96,
            "midi": 80,
            "name": "G#5",
            "ticks": 37440,
            "time": 51.769867500000004,
            "velocity": 0.09448818897637795
          },
          {
            "duration": 0.1327432500000043,
            "durationTicks": 96,
            "midi": 78,
            "name": "F#5",
            "ticks": 37536,
            "time": 51.90261075,
            "velocity": 0.09448818897637795
          },
          {
            "duration": 0.1327432500000043,
            "durationTicks": 96,
            "midi": 90,
            "name": "F#6",
            "ticks": 37536,
            "time": 51.90261075,
            "velocity": 0.09448818897637795
          },
          {
            "duration": 0.1327432499999972,
            "durationTicks": 96,
            "midi": 77,
            "name": "F5",
            "ticks": 37632,
            "time": 52.035354000000005,
            "velocity": 0.09448818897637795
          },
          {
            "duration": 0.1327432499999972,
            "durationTicks": 96,
            "midi": 89,
            "name": "F6",
            "ticks": 37632,
            "time": 52.035354000000005,
            "velocity": 0.09448818897637795
          },
          {
            "duration": 0.1327432499999972,
            "durationTicks": 96,
            "midi": 73,
            "name": "C#5",
            "ticks": 37728,
            "time": 52.16809725,
            "velocity": 0.09448818897637795
          },
          {
            "duration": 0.1327432499999972,
            "durationTicks": 96,
            "midi": 85,
            "name": "C#6",
            "ticks": 37728,
            "time": 52.16809725,
            "velocity": 0.09448818897637795
          },
          {
            "duration": 0.7964595000000045,
            "durationTicks": 576,
            "midi": 61,
            "name": "C#4",
            "ticks": 37824,
            "time": 52.3008405,
            "velocity": 0.09448818897637795
          },
          {
            "duration": 0.7964595000000045,
            "durationTicks": 576,
            "midi": 61,
            "name": "C#4",
            "ticks": 37824,
            "time": 52.3008405,
            "velocity": 0.09448818897637795
          },
          {
            "duration": 0.7964595000000045,
            "durationTicks": 576,
            "midi": 85,
            "name": "C#6",
            "ticks": 37824,
            "time": 52.3008405,
            "velocity": 0.09448818897637795
          },
          {
            "duration": 0.7964595000000045,
            "durationTicks": 576,
            "midi": 58,
            "name": "A#3",
            "ticks": 37824,
            "time": 52.3008405,
            "velocity": 0.09448818897637795
          },
          {
            "duration": 0.7964595000000045,
            "durationTicks": 576,
            "midi": 73,
            "name": "C#5",
            "ticks": 37824,
            "time": 52.3008405,
            "velocity": 0.09448818897637795
          },
          {
            "duration": 0.7964595000000045,
            "durationTicks": 576,
            "midi": 58,
            "name": "A#3",
            "ticks": 37824,
            "time": 52.3008405,
            "velocity": 0.09448818897637795
          },
          {
            "duration": 2.123892000000005,
            "durationTicks": 1536,
            "midi": 68,
            "name": "G#4",
            "ticks": 37824,
            "time": 52.3008405,
            "velocity": 0.09448818897637795
          },
          {
            "duration": 0.7964595000000045,
            "durationTicks": 576,
            "midi": 54,
            "name": "F#3",
            "ticks": 37824,
            "time": 52.3008405,
            "velocity": 0.09448818897637795
          },
          {
            "duration": 0.7964594999999974,
            "durationTicks": 576,
            "midi": 60,
            "name": "C4",
            "ticks": 38400,
            "time": 53.097300000000004,
            "velocity": 0.09448818897637795
          },
          {
            "duration": 1.3274325000000005,
            "durationTicks": 960,
            "midi": 60,
            "name": "C4",
            "ticks": 38400,
            "time": 53.097300000000004,
            "velocity": 0.09448818897637795
          },
          {
            "duration": 0.7964594999999974,
            "durationTicks": 576,
            "midi": 75,
            "name": "D#5",
            "ticks": 38400,
            "time": 53.097300000000004,
            "velocity": 0.09448818897637795
          },
          {
            "duration": 0.7964594999999974,
            "durationTicks": 576,
            "midi": 63,
            "name": "D#4",
            "ticks": 38400,
            "time": 53.097300000000004,
            "velocity": 0.09448818897637795
          },
          {
            "duration": 0.7964594999999974,
            "durationTicks": 576,
            "midi": 87,
            "name": "D#6",
            "ticks": 38400,
            "time": 53.097300000000004,
            "velocity": 0.09448818897637795
          },
          {
            "duration": 1.3274325000000005,
            "durationTicks": 960,
            "midi": 63,
            "name": "D#4",
            "ticks": 38400,
            "time": 53.097300000000004,
            "velocity": 0.09448818897637795
          },
          {
            "duration": 1.3274325000000005,
            "durationTicks": 960,
            "midi": 56,
            "name": "G#3",
            "ticks": 38400,
            "time": 53.097300000000004,
            "velocity": 0.09448818897637795
          },
          {
            "duration": 0.530973000000003,
            "durationTicks": 384,
            "midi": 80,
            "name": "G#5",
            "ticks": 38976,
            "time": 53.8937595,
            "velocity": 0.07086614173228346
          },
          {
            "duration": 0.530973000000003,
            "durationTicks": 384,
            "midi": 68,
            "name": "G#4",
            "ticks": 38976,
            "time": 53.8937595,
            "velocity": 0.07086614173228346
          },
          {
            "duration": 0.530973000000003,
            "durationTicks": 384,
            "midi": 56,
            "name": "G#3",
            "ticks": 38976,
            "time": 53.8937595,
            "velocity": 0.07086614173228346
          },
          {
            "duration": 0.530973000000003,
            "durationTicks": 384,
            "midi": 51,
            "name": "D#3",
            "ticks": 38976,
            "time": 53.8937595,
            "velocity": 0.07086614173228346
          },
          {
            "duration": 0.7964594999999974,
            "durationTicks": 576,
            "midi": 60,
            "name": "C4",
            "ticks": 39360,
            "time": 54.424732500000005,
            "velocity": 0.09448818897637795
          },
          {
            "duration": 0.7964594999999974,
            "durationTicks": 576,
            "midi": 63,
            "name": "D#4",
            "ticks": 39360,
            "time": 54.424732500000005,
            "velocity": 0.09448818897637795
          },
          {
            "duration": 0.7964594999999974,
            "durationTicks": 576,
            "midi": 75,
            "name": "D#5",
            "ticks": 39360,
            "time": 54.424732500000005,
            "velocity": 0.09448818897637795
          },
          {
            "duration": 1.5929189999999949,
            "durationTicks": 1152,
            "midi": 68,
            "name": "G#4",
            "ticks": 39360,
            "time": 54.424732500000005,
            "velocity": 0.09448818897637795
          },
          {
            "duration": 0.7964594999999974,
            "durationTicks": 576,
            "midi": 56,
            "name": "G#3",
            "ticks": 39360,
            "time": 54.424732500000005,
            "velocity": 0.09448818897637795
          },
          {
            "duration": 0.7964594999999974,
            "durationTicks": 576,
            "midi": 87,
            "name": "D#6",
            "ticks": 39360,
            "time": 54.424732500000005,
            "velocity": 0.09448818897637795
          },
          {
            "duration": 0.7964594999999974,
            "durationTicks": 576,
            "midi": 60,
            "name": "C4",
            "ticks": 39360,
            "time": 54.424732500000005,
            "velocity": 0.09448818897637795
          },
          {
            "duration": 0.7964594999999974,
            "durationTicks": 576,
            "midi": 63,
            "name": "D#4",
            "ticks": 39360,
            "time": 54.424732500000005,
            "velocity": 0.09448818897637795
          },
          {
            "duration": 1.3274325000000005,
            "durationTicks": 960,
            "midi": 53,
            "name": "F3",
            "ticks": 39936,
            "time": 55.221192,
            "velocity": 0.09448818897637795
          },
          {
            "duration": 0.7964594999999974,
            "durationTicks": 576,
            "midi": 77,
            "name": "F5",
            "ticks": 39936,
            "time": 55.221192,
            "velocity": 0.09448818897637795
          },
          {
            "duration": 0.7964594999999974,
            "durationTicks": 576,
            "midi": 61,
            "name": "C#4",
            "ticks": 39936,
            "time": 55.221192,
            "velocity": 0.09448818897637795
          },
          {
            "duration": 0.7964594999999974,
            "durationTicks": 576,
            "midi": 65,
            "name": "F4",
            "ticks": 39936,
            "time": 55.221192,
            "velocity": 0.09448818897637795
          },
          {
            "duration": 1.3274325000000005,
            "durationTicks": 960,
            "midi": 58,
            "name": "A#3",
            "ticks": 39936,
            "time": 55.221192,
            "velocity": 0.09448818897637795
          },
          {
            "duration": 1.3274325000000005,
            "durationTicks": 960,
            "midi": 61,
            "name": "C#4",
            "ticks": 39936,
            "time": 55.221192,
            "velocity": 0.09448818897637795
          },
          {
            "duration": 0.7964594999999974,
            "durationTicks": 576,
            "midi": 89,
            "name": "F6",
            "ticks": 39936,
            "time": 55.221192,
            "velocity": 0.09448818897637795
          },
          {
            "duration": 0.1327432500000043,
            "durationTicks": 96,
            "midi": 80,
            "name": "G#5",
            "ticks": 40512,
            "time": 56.0176515,
            "velocity": 0.09448818897637795
          },
          {
            "duration": 0.1327432500000043,
            "durationTicks": 96,
            "midi": 92,
            "name": "G#6",
            "ticks": 40512,
            "time": 56.0176515,
            "velocity": 0.09448818897637795
          },
          {
            "duration": 0.1327432499999972,
            "durationTicks": 96,
            "midi": 90,
            "name": "F#6",
            "ticks": 40608,
            "time": 56.150394750000004,
            "velocity": 0.09448818897637795
          },
          {
            "duration": 0.1327432499999972,
            "durationTicks": 96,
            "midi": 78,
            "name": "F#5",
            "ticks": 40608,
            "time": 56.150394750000004,
            "velocity": 0.09448818897637795
          },
          {
            "duration": 0.1327432500000043,
            "durationTicks": 96,
            "midi": 89,
            "name": "F6",
            "ticks": 40704,
            "time": 56.283138,
            "velocity": 0.09448818897637795
          },
          {
            "duration": 0.1327432500000043,
            "durationTicks": 96,
            "midi": 77,
            "name": "F5",
            "ticks": 40704,
            "time": 56.283138,
            "velocity": 0.09448818897637795
          },
          {
            "duration": 0.1327432499999972,
            "durationTicks": 96,
            "midi": 73,
            "name": "C#5",
            "ticks": 40800,
            "time": 56.415881250000005,
            "velocity": 0.09448818897637795
          },
          {
            "duration": 0.1327432499999972,
            "durationTicks": 96,
            "midi": 85,
            "name": "C#6",
            "ticks": 40800,
            "time": 56.415881250000005,
            "velocity": 0.09448818897637795
          },
          {
            "duration": 0.7964594999999974,
            "durationTicks": 576,
            "midi": 58,
            "name": "A#3",
            "ticks": 40896,
            "time": 56.5486245,
            "velocity": 0.09448818897637795
          },
          {
            "duration": 0.7964594999999974,
            "durationTicks": 576,
            "midi": 61,
            "name": "C#4",
            "ticks": 40896,
            "time": 56.5486245,
            "velocity": 0.09448818897637795
          },
          {
            "duration": 0.7964594999999974,
            "durationTicks": 576,
            "midi": 61,
            "name": "C#4",
            "ticks": 40896,
            "time": 56.5486245,
            "velocity": 0.09448818897637795
          },
          {
            "duration": 0.7964594999999974,
            "durationTicks": 576,
            "midi": 73,
            "name": "C#5",
            "ticks": 40896,
            "time": 56.5486245,
            "velocity": 0.09448818897637795
          },
          {
            "duration": 0.7964594999999974,
            "durationTicks": 576,
            "midi": 58,
            "name": "A#3",
            "ticks": 40896,
            "time": 56.5486245,
            "velocity": 0.09448818897637795
          },
          {
            "duration": 0.7964594999999974,
            "durationTicks": 576,
            "midi": 54,
            "name": "F#3",
            "ticks": 40896,
            "time": 56.5486245,
            "velocity": 0.09448818897637795
          },
          {
            "duration": 0.7964594999999974,
            "durationTicks": 576,
            "midi": 85,
            "name": "C#6",
            "ticks": 40896,
            "time": 56.5486245,
            "velocity": 0.09448818897637795
          },
          {
            "duration": 0.7964595000000045,
            "durationTicks": 576,
            "midi": 60,
            "name": "C4",
            "ticks": 41472,
            "time": 57.345084,
            "velocity": 0.09448818897637795
          },
          {
            "duration": 0.7964595000000045,
            "durationTicks": 576,
            "midi": 63,
            "name": "D#4",
            "ticks": 41472,
            "time": 57.345084,
            "velocity": 0.09448818897637795
          },
          {
            "duration": 0.7964595000000045,
            "durationTicks": 576,
            "midi": 75,
            "name": "D#5",
            "ticks": 41472,
            "time": 57.345084,
            "velocity": 0.09448818897637795
          },
          {
            "duration": 0.7964595000000045,
            "durationTicks": 576,
            "midi": 87,
            "name": "D#6",
            "ticks": 41472,
            "time": 57.345084,
            "velocity": 0.09448818897637795
          },
          {
            "duration": 1.061946000000006,
            "durationTicks": 768,
            "midi": 56,
            "name": "G#3",
            "ticks": 41472,
            "time": 57.345084,
            "velocity": 0.09448818897637795
          },
          {
            "duration": 1.061946000000006,
            "durationTicks": 768,
            "midi": 63,
            "name": "D#4",
            "ticks": 41472,
            "time": 57.345084,
            "velocity": 0.09448818897637795
          },
          {
            "duration": 1.061946000000006,
            "durationTicks": 768,
            "midi": 60,
            "name": "C4",
            "ticks": 41472,
            "time": 57.345084,
            "velocity": 0.09448818897637795
          },
          {
            "duration": 1.592919000000002,
            "durationTicks": 1152,
            "midi": 51,
            "name": "D#3",
            "ticks": 42048,
            "time": 58.141543500000004,
            "velocity": 0.07086614173228346
          },
          {
            "duration": 1.592919000000002,
            "durationTicks": 1152,
            "midi": 80,
            "name": "G#5",
            "ticks": 42048,
            "time": 58.141543500000004,
            "velocity": 0.07086614173228346
          },
          {
            "duration": 1.592919000000002,
            "durationTicks": 1152,
            "midi": 68,
            "name": "G#4",
            "ticks": 42048,
            "time": 58.141543500000004,
            "velocity": 0.07086614173228346
          },
          {
            "duration": 0.7964594999999974,
            "durationTicks": 576,
            "midi": 56,
            "name": "G#3",
            "ticks": 42048,
            "time": 58.141543500000004,
            "velocity": 0.07086614173228346
          },
          {
            "duration": 0.7964594999999974,
            "durationTicks": 576,
            "midi": 56,
            "name": "G#3",
            "ticks": 42240,
            "time": 58.407030000000006,
            "velocity": 0.09448818897637795
          },
          {
            "duration": 0.5309729999999959,
            "durationTicks": 384,
            "midi": 63,
            "name": "D#4",
            "ticks": 42240,
            "time": 58.407030000000006,
            "velocity": 0.09448818897637795
          },
          {
            "duration": 0.5309729999999959,
            "durationTicks": 384,
            "midi": 60,
            "name": "C4",
            "ticks": 42240,
            "time": 58.407030000000006,
            "velocity": 0.09448818897637795
          },
          {
            "duration": 0.2654865000000015,
            "durationTicks": 192,
            "midi": 61,
            "name": "C#4",
            "ticks": 42624,
            "time": 58.938003,
            "velocity": 0.09448818897637795
          },
          {
            "duration": 0.2654865000000015,
            "durationTicks": 192,
            "midi": 53,
            "name": "F3",
            "ticks": 42624,
            "time": 58.938003,
            "velocity": 0.09448818897637795
          },
          {
            "duration": 0.7964595000000045,
            "durationTicks": 576,
            "midi": 56,
            "name": "G#3",
            "ticks": 42624,
            "time": 58.938003,
            "velocity": 0.09448818897637795
          },
          {
            "duration": 1.592919000000002,
            "durationTicks": 1152,
            "midi": 61,
            "name": "C#4",
            "ticks": 42816,
            "time": 59.2034895,
            "velocity": 0.09448818897637795
          },
          {
            "duration": 1.592919000000002,
            "durationTicks": 1152,
            "midi": 56,
            "name": "G#3",
            "ticks": 42816,
            "time": 59.2034895,
            "velocity": 0.09448818897637795
          },
          {
            "duration": 1.592919000000002,
            "durationTicks": 1152,
            "midi": 53,
            "name": "F3",
            "ticks": 42816,
            "time": 59.2034895,
            "velocity": 0.09448818897637795
          },
          {
            "duration": 2.123891999999998,
            "durationTicks": 1536,
            "midi": 61,
            "name": "C#4",
            "ticks": 43968,
            "time": 60.796408500000005,
            "velocity": 0.09448818897637795
          },
          {
            "duration": 2.123891999999998,
            "durationTicks": 1536,
            "midi": 58,
            "name": "A#3",
            "ticks": 43968,
            "time": 60.796408500000005,
            "velocity": 0.09448818897637795
          },
          {
            "duration": 2.123891999999998,
            "durationTicks": 1536,
            "midi": 65,
            "name": "F4",
            "ticks": 43968,
            "time": 60.796408500000005,
            "velocity": 0.09448818897637795
          },
          {
            "duration": 2.123891999999998,
            "durationTicks": 1536,
            "midi": 61,
            "name": "C#4",
            "ticks": 43968,
            "time": 60.796408500000005,
            "velocity": 0.05511811023622047
          },
          {
            "duration": 2.123891999999998,
            "durationTicks": 1536,
            "midi": 65,
            "name": "F4",
            "ticks": 43968,
            "time": 60.796408500000005,
            "velocity": 0.05511811023622047
          },
          {
            "duration": 2.123892000000005,
            "durationTicks": 1536,
            "midi": 60,
            "name": "C4",
            "ticks": 45504,
            "time": 62.9203005,
            "velocity": 0.05511811023622047
          },
          {
            "duration": 2.123892000000005,
            "durationTicks": 1536,
            "midi": 63,
            "name": "D#4",
            "ticks": 45504,
            "time": 62.9203005,
            "velocity": 0.05511811023622047
          },
          {
            "duration": 2.123892000000005,
            "durationTicks": 1536,
            "midi": 60,
            "name": "C4",
            "ticks": 45504,
            "time": 62.9203005,
            "velocity": 0.09448818897637795
          },
          {
            "duration": 2.123892000000005,
            "durationTicks": 1536,
            "midi": 63,
            "name": "D#4",
            "ticks": 45504,
            "time": 62.9203005,
            "velocity": 0.09448818897637795
          },
          {
            "duration": 2.123892000000005,
            "durationTicks": 1536,
            "midi": 56,
            "name": "G#3",
            "ticks": 45504,
            "time": 62.9203005,
            "velocity": 0.09448818897637795
          },
          {
            "duration": 2.123891999999998,
            "durationTicks": 1536,
            "midi": 61,
            "name": "C#4",
            "ticks": 47040,
            "time": 65.04419250000001,
            "velocity": 0.05511811023622047
          },
          {
            "duration": 2.123891999999998,
            "durationTicks": 1536,
            "midi": 61,
            "name": "C#4",
            "ticks": 47040,
            "time": 65.04419250000001,
            "velocity": 0.09448818897637795
          },
          {
            "duration": 2.123891999999998,
            "durationTicks": 1536,
            "midi": 65,
            "name": "F4",
            "ticks": 47040,
            "time": 65.04419250000001,
            "velocity": 0.09448818897637795
          },
          {
            "duration": 2.123891999999998,
            "durationTicks": 1536,
            "midi": 58,
            "name": "A#3",
            "ticks": 47040,
            "time": 65.04419250000001,
            "velocity": 0.09448818897637795
          },
          {
            "duration": 2.123891999999998,
            "durationTicks": 1536,
            "midi": 65,
            "name": "F4",
            "ticks": 47040,
            "time": 65.04419250000001,
            "velocity": 0.05511811023622047
          },
          {
            "duration": 2.123891999999998,
            "durationTicks": 1536,
            "midi": 65,
            "name": "F4",
            "ticks": 50112,
            "time": 69.2919765,
            "velocity": 0.09448818897637795
          },
          {
            "duration": 2.123891999999998,
            "durationTicks": 1536,
            "midi": 58,
            "name": "A#3",
            "ticks": 50112,
            "time": 69.2919765,
            "velocity": 0.09448818897637795
          },
          {
            "duration": 2.123891999999998,
            "durationTicks": 1536,
            "midi": 65,
            "name": "F4",
            "ticks": 50112,
            "time": 69.2919765,
            "velocity": 0.05511811023622047
          },
          {
            "duration": 2.123891999999998,
            "durationTicks": 1536,
            "midi": 61,
            "name": "C#4",
            "ticks": 50112,
            "time": 69.2919765,
            "velocity": 0.05511811023622047
          },
          {
            "duration": 2.123891999999998,
            "durationTicks": 1536,
            "midi": 61,
            "name": "C#4",
            "ticks": 50112,
            "time": 69.2919765,
            "velocity": 0.09448818897637795
          },
          {
            "duration": 2.123891999999998,
            "durationTicks": 1536,
            "midi": 60,
            "name": "C4",
            "ticks": 51648,
            "time": 71.4158685,
            "velocity": 0.09448818897637795
          },
          {
            "duration": 2.123891999999998,
            "durationTicks": 1536,
            "midi": 63,
            "name": "D#4",
            "ticks": 51648,
            "time": 71.4158685,
            "velocity": 0.05511811023622047
          },
          {
            "duration": 2.123891999999998,
            "durationTicks": 1536,
            "midi": 60,
            "name": "C4",
            "ticks": 51648,
            "time": 71.4158685,
            "velocity": 0.05511811023622047
          },
          {
            "duration": 2.123891999999998,
            "durationTicks": 1536,
            "midi": 63,
            "name": "D#4",
            "ticks": 51648,
            "time": 71.4158685,
            "velocity": 0.09448818897637795
          },
          {
            "duration": 2.123891999999998,
            "durationTicks": 1536,
            "midi": 56,
            "name": "G#3",
            "ticks": 51648,
            "time": 71.4158685,
            "velocity": 0.09448818897637795
          },
          {
            "duration": 2.123891999999998,
            "durationTicks": 1536,
            "midi": 61,
            "name": "C#4",
            "ticks": 53184,
            "time": 73.5397605,
            "velocity": 0.09448818897637795
          },
          {
            "duration": 2.123891999999998,
            "durationTicks": 1536,
            "midi": 65,
            "name": "F4",
            "ticks": 53184,
            "time": 73.5397605,
            "velocity": 0.09448818897637795
          },
          {
            "duration": 2.123891999999998,
            "durationTicks": 1536,
            "midi": 58,
            "name": "A#3",
            "ticks": 53184,
            "time": 73.5397605,
            "velocity": 0.09448818897637795
          },
          {
            "duration": 2.123891999999998,
            "durationTicks": 1536,
            "midi": 65,
            "name": "F4",
            "ticks": 53184,
            "time": 73.5397605,
            "velocity": 0.05511811023622047
          },
          {
            "duration": 2.123891999999998,
            "durationTicks": 1536,
            "midi": 61,
            "name": "C#4",
            "ticks": 53184,
            "time": 73.5397605,
            "velocity": 0.05511811023622047
          },
          {
            "duration": 0.7964594999999974,
            "durationTicks": 576,
            "midi": 61,
            "name": "C#4",
            "ticks": 62400,
            "time": 86.2831125,
            "velocity": 0.09448818897637795
          },
          {
            "duration": 0.7964594999999974,
            "durationTicks": 576,
            "midi": 85,
            "name": "C#6",
            "ticks": 62400,
            "time": 86.2831125,
            "velocity": 0.09448818897637795
          },
          {
            "duration": 0.7964594999999974,
            "durationTicks": 576,
            "midi": 54,
            "name": "F#3",
            "ticks": 62400,
            "time": 86.2831125,
            "velocity": 0.09448818897637795
          },
          {
            "duration": 0.7964594999999974,
            "durationTicks": 576,
            "midi": 61,
            "name": "C#4",
            "ticks": 62400,
            "time": 86.2831125,
            "velocity": 0.09448818897637795
          },
          {
            "duration": 0.7964594999999974,
            "durationTicks": 576,
            "midi": 73,
            "name": "C#5",
            "ticks": 62400,
            "time": 86.2831125,
            "velocity": 0.09448818897637795
          },
          {
            "duration": 0.7964594999999974,
            "durationTicks": 576,
            "midi": 58,
            "name": "A#3",
            "ticks": 62400,
            "time": 86.2831125,
            "velocity": 0.09448818897637795
          },
          {
            "duration": 2.123891999999998,
            "durationTicks": 1536,
            "midi": 68,
            "name": "G#4",
            "ticks": 62400,
            "time": 86.2831125,
            "velocity": 0.09448818897637795
          },
          {
            "duration": 0.7964594999999974,
            "durationTicks": 576,
            "midi": 58,
            "name": "A#3",
            "ticks": 62400,
            "time": 86.2831125,
            "velocity": 0.09448818897637795
          },
          {
            "duration": 0.7964595000000116,
            "durationTicks": 576,
            "midi": 63,
            "name": "D#4",
            "ticks": 62976,
            "time": 87.079572,
            "velocity": 0.09448818897637795
          },
          {
            "duration": 0.7964595000000116,
            "durationTicks": 576,
            "midi": 75,
            "name": "D#5",
            "ticks": 62976,
            "time": 87.079572,
            "velocity": 0.09448818897637795
          },
          {
            "duration": 1.3274325000000005,
            "durationTicks": 960,
            "midi": 56,
            "name": "G#3",
            "ticks": 62976,
            "time": 87.079572,
            "velocity": 0.09448818897637795
          },
          {
            "duration": 1.3274325000000005,
            "durationTicks": 960,
            "midi": 63,
            "name": "D#4",
            "ticks": 62976,
            "time": 87.079572,
            "velocity": 0.09448818897637795
          },
          {
            "duration": 0.7964595000000116,
            "durationTicks": 576,
            "midi": 60,
            "name": "C4",
            "ticks": 62976,
            "time": 87.079572,
            "velocity": 0.09448818897637795
          },
          {
            "duration": 1.3274325000000005,
            "durationTicks": 960,
            "midi": 60,
            "name": "C4",
            "ticks": 62976,
            "time": 87.079572,
            "velocity": 0.09448818897637795
          },
          {
            "duration": 0.7964595000000116,
            "durationTicks": 576,
            "midi": 87,
            "name": "D#6",
            "ticks": 62976,
            "time": 87.079572,
            "velocity": 0.09448818897637795
          },
          {
            "duration": 0.5309729999999888,
            "durationTicks": 384,
            "midi": 51,
            "name": "D#3",
            "ticks": 63552,
            "time": 87.87603150000001,
            "velocity": 0.07086614173228346
          },
          {
            "duration": 0.5309729999999888,
            "durationTicks": 384,
            "midi": 68,
            "name": "G#4",
            "ticks": 63552,
            "time": 87.87603150000001,
            "velocity": 0.07086614173228346
          },
          {
            "duration": 0.5309729999999888,
            "durationTicks": 384,
            "midi": 56,
            "name": "G#3",
            "ticks": 63552,
            "time": 87.87603150000001,
            "velocity": 0.07086614173228346
          },
          {
            "duration": 0.5309729999999888,
            "durationTicks": 384,
            "midi": 80,
            "name": "G#5",
            "ticks": 63552,
            "time": 87.87603150000001,
            "velocity": 0.07086614173228346
          },
          {
            "duration": 0.7964595000000116,
            "durationTicks": 576,
            "midi": 63,
            "name": "D#4",
            "ticks": 63936,
            "time": 88.4070045,
            "velocity": 0.09448818897637795
          },
          {
            "duration": 1.592919000000009,
            "durationTicks": 1152,
            "midi": 68,
            "name": "G#4",
            "ticks": 63936,
            "time": 88.4070045,
            "velocity": 0.09448818897637795
          },
          {
            "duration": 0.7964595000000116,
            "durationTicks": 576,
            "midi": 60,
            "name": "C4",
            "ticks": 63936,
            "time": 88.4070045,
            "velocity": 0.09448818897637795
          },
          {
            "duration": 0.7964595000000116,
            "durationTicks": 576,
            "midi": 63,
            "name": "D#4",
            "ticks": 63936,
            "time": 88.4070045,
            "velocity": 0.09448818897637795
          },
          {
            "duration": 0.7964595000000116,
            "durationTicks": 576,
            "midi": 56,
            "name": "G#3",
            "ticks": 63936,
            "time": 88.4070045,
            "velocity": 0.09448818897637795
          },
          {
            "duration": 0.7964595000000116,
            "durationTicks": 576,
            "midi": 60,
            "name": "C4",
            "ticks": 63936,
            "time": 88.4070045,
            "velocity": 0.09448818897637795
          },
          {
            "duration": 0.7964595000000116,
            "durationTicks": 576,
            "midi": 75,
            "name": "D#5",
            "ticks": 63936,
            "time": 88.4070045,
            "velocity": 0.09448818897637795
          },
          {
            "duration": 0.7964595000000116,
            "durationTicks": 576,
            "midi": 87,
            "name": "D#6",
            "ticks": 63936,
            "time": 88.4070045,
            "velocity": 0.09448818897637795
          },
          {
            "duration": 0.7964594999999974,
            "durationTicks": 576,
            "midi": 65,
            "name": "F4",
            "ticks": 64512,
            "time": 89.20346400000001,
            "velocity": 0.09448818897637795
          },
          {
            "duration": 1.3274325000000005,
            "durationTicks": 960,
            "midi": 58,
            "name": "A#3",
            "ticks": 64512,
            "time": 89.20346400000001,
            "velocity": 0.09448818897637795
          },
          {
            "duration": 0.7964594999999974,
            "durationTicks": 576,
            "midi": 61,
            "name": "C#4",
            "ticks": 64512,
            "time": 89.20346400000001,
            "velocity": 0.09448818897637795
          },
          {
            "duration": 0.7964594999999974,
            "durationTicks": 576,
            "midi": 89,
            "name": "F6",
            "ticks": 64512,
            "time": 89.20346400000001,
            "velocity": 0.09448818897637795
          },
          {
            "duration": 1.3274325000000005,
            "durationTicks": 960,
            "midi": 61,
            "name": "C#4",
            "ticks": 64512,
            "time": 89.20346400000001,
            "velocity": 0.09448818897637795
          },
          {
            "duration": 1.3274325000000005,
            "durationTicks": 960,
            "midi": 53,
            "name": "F3",
            "ticks": 64512,
            "time": 89.20346400000001,
            "velocity": 0.09448818897637795
          },
          {
            "duration": 0.7964594999999974,
            "durationTicks": 576,
            "midi": 77,
            "name": "F5",
            "ticks": 64512,
            "time": 89.20346400000001,
            "velocity": 0.09448818897637795
          },
          {
            "duration": 0.1327432499999901,
            "durationTicks": 96,
            "midi": 92,
            "name": "G#6",
            "ticks": 65088,
            "time": 89.99992350000001,
            "velocity": 0.09448818897637795
          },
          {
            "duration": 0.1327432499999901,
            "durationTicks": 96,
            "midi": 80,
            "name": "G#5",
            "ticks": 65088,
            "time": 89.99992350000001,
            "velocity": 0.09448818897637795
          },
          {
            "duration": 0.1327432500000043,
            "durationTicks": 96,
            "midi": 90,
            "name": "F#6",
            "ticks": 65184,
            "time": 90.13266675,
            "velocity": 0.09448818897637795
          },
          {
            "duration": 0.1327432500000043,
            "durationTicks": 96,
            "midi": 78,
            "name": "F#5",
            "ticks": 65184,
            "time": 90.13266675,
            "velocity": 0.09448818897637795
          },
          {
            "duration": 0.1327432500000043,
            "durationTicks": 96,
            "midi": 89,
            "name": "F6",
            "ticks": 65280,
            "time": 90.26541,
            "velocity": 0.09448818897637795
          },
          {
            "duration": 0.1327432500000043,
            "durationTicks": 96,
            "midi": 77,
            "name": "F5",
            "ticks": 65280,
            "time": 90.26541,
            "velocity": 0.09448818897637795
          },
          {
            "duration": 0.1327432500000043,
            "durationTicks": 96,
            "midi": 73,
            "name": "C#5",
            "ticks": 65376,
            "time": 90.39815325000001,
            "velocity": 0.09448818897637795
          },
          {
            "duration": 0.1327432500000043,
            "durationTicks": 96,
            "midi": 85,
            "name": "C#6",
            "ticks": 65376,
            "time": 90.39815325000001,
            "velocity": 0.09448818897637795
          },
          {
            "duration": 0.7964594999999974,
            "durationTicks": 576,
            "midi": 85,
            "name": "C#6",
            "ticks": 65472,
            "time": 90.53089650000001,
            "velocity": 0.09448818897637795
          },
          {
            "duration": 0.7964594999999974,
            "durationTicks": 576,
            "midi": 58,
            "name": "A#3",
            "ticks": 65472,
            "time": 90.53089650000001,
            "velocity": 0.09448818897637795
          },
          {
            "duration": 0.7964594999999974,
            "durationTicks": 576,
            "midi": 58,
            "name": "A#3",
            "ticks": 65472,
            "time": 90.53089650000001,
            "velocity": 0.09448818897637795
          },
          {
            "duration": 0.7964594999999974,
            "durationTicks": 576,
            "midi": 61,
            "name": "C#4",
            "ticks": 65472,
            "time": 90.53089650000001,
            "velocity": 0.09448818897637795
          },
          {
            "duration": 0.7964594999999974,
            "durationTicks": 576,
            "midi": 61,
            "name": "C#4",
            "ticks": 65472,
            "time": 90.53089650000001,
            "velocity": 0.09448818897637795
          },
          {
            "duration": 0.7964594999999974,
            "durationTicks": 576,
            "midi": 54,
            "name": "F#3",
            "ticks": 65472,
            "time": 90.53089650000001,
            "velocity": 0.09448818897637795
          },
          {
            "duration": 0.7964594999999974,
            "durationTicks": 576,
            "midi": 73,
            "name": "C#5",
            "ticks": 65472,
            "time": 90.53089650000001,
            "velocity": 0.09448818897637795
          },
          {
            "duration": 0.7964594999999974,
            "durationTicks": 576,
            "midi": 63,
            "name": "D#4",
            "ticks": 66048,
            "time": 91.32735600000001,
            "velocity": 0.09448818897637795
          },
          {
            "duration": 0.7964594999999974,
            "durationTicks": 576,
            "midi": 75,
            "name": "D#5",
            "ticks": 66048,
            "time": 91.32735600000001,
            "velocity": 0.09448818897637795
          },
          {
            "duration": 0.7964594999999974,
            "durationTicks": 576,
            "midi": 87,
            "name": "D#6",
            "ticks": 66048,
            "time": 91.32735600000001,
            "velocity": 0.09448818897637795
          },
          {
            "duration": 0.7964594999999974,
            "durationTicks": 576,
            "midi": 60,
            "name": "C4",
            "ticks": 66048,
            "time": 91.32735600000001,
            "velocity": 0.09448818897637795
          },
          {
            "duration": 1.3274325000000005,
            "durationTicks": 960,
            "midi": 63,
            "name": "D#4",
            "ticks": 66048,
            "time": 91.32735600000001,
            "velocity": 0.09448818897637795
          },
          {
            "duration": 1.3274325000000005,
            "durationTicks": 960,
            "midi": 60,
            "name": "C4",
            "ticks": 66048,
            "time": 91.32735600000001,
            "velocity": 0.09448818897637795
          },
          {
            "duration": 1.3274325000000005,
            "durationTicks": 960,
            "midi": 56,
            "name": "G#3",
            "ticks": 66048,
            "time": 91.32735600000001,
            "velocity": 0.09448818897637795
          },
          {
            "duration": 1.3274325000000005,
            "durationTicks": 960,
            "midi": 56,
            "name": "G#3",
            "ticks": 66624,
            "time": 92.1238155,
            "velocity": 0.07086614173228346
          },
          {
            "duration": 1.5929189999999949,
            "durationTicks": 1152,
            "midi": 51,
            "name": "D#3",
            "ticks": 66624,
            "time": 92.1238155,
            "velocity": 0.07086614173228346
          },
          {
            "duration": 1.5929189999999949,
            "durationTicks": 1152,
            "midi": 80,
            "name": "G#5",
            "ticks": 66624,
            "time": 92.1238155,
            "velocity": 0.07086614173228346
          },
          {
            "duration": 1.5929189999999949,
            "durationTicks": 1152,
            "midi": 68,
            "name": "G#4",
            "ticks": 66624,
            "time": 92.1238155,
            "velocity": 0.07086614173228346
          },
          {
            "duration": 0.7964594999999974,
            "durationTicks": 576,
            "midi": 60,
            "name": "C4",
            "ticks": 67008,
            "time": 92.65478850000001,
            "velocity": 0.09448818897637795
          },
          {
            "duration": 0.7964594999999974,
            "durationTicks": 576,
            "midi": 63,
            "name": "D#4",
            "ticks": 67008,
            "time": 92.65478850000001,
            "velocity": 0.09448818897637795
          },
          {
            "duration": 1.0619459999999918,
            "durationTicks": 768,
            "midi": 56,
            "name": "G#3",
            "ticks": 67008,
            "time": 92.65478850000001,
            "velocity": 0.09448818897637795
          },
          {
            "duration": 1.3274325000000005,
            "durationTicks": 960,
            "midi": 53,
            "name": "F3",
            "ticks": 67584,
            "time": 93.451248,
            "velocity": 0.09448818897637795
          },
          {
            "duration": 1.3274325000000005,
            "durationTicks": 960,
            "midi": 58,
            "name": "A#3",
            "ticks": 67584,
            "time": 93.451248,
            "velocity": 0.09448818897637795
          },
          {
            "duration": 1.3274325000000005,
            "durationTicks": 960,
            "midi": 61,
            "name": "C#4",
            "ticks": 67584,
            "time": 93.451248,
            "velocity": 0.09448818897637795
          },
          {
            "duration": 0.1327432500000043,
            "durationTicks": 96,
            "midi": 92,
            "name": "G#6",
            "ticks": 68160,
            "time": 94.2477075,
            "velocity": 0.09448818897637795
          },
          {
            "duration": 0.1327432500000043,
            "durationTicks": 96,
            "midi": 80,
            "name": "G#5",
            "ticks": 68160,
            "time": 94.2477075,
            "velocity": 0.09448818897637795
          },
          {
            "duration": 0.1327432499999901,
            "durationTicks": 96,
            "midi": 78,
            "name": "F#5",
            "ticks": 68256,
            "time": 94.38045075000001,
            "velocity": 0.09448818897637795
          },
          {
            "duration": 0.1327432499999901,
            "durationTicks": 96,
            "midi": 90,
            "name": "F#6",
            "ticks": 68256,
            "time": 94.38045075000001,
            "velocity": 0.09448818897637795
          },
          {
            "duration": 0.1327432500000043,
            "durationTicks": 96,
            "midi": 77,
            "name": "F5",
            "ticks": 68352,
            "time": 94.513194,
            "velocity": 0.09448818897637795
          },
          {
            "duration": 0.1327432500000043,
            "durationTicks": 96,
            "midi": 89,
            "name": "F6",
            "ticks": 68352,
            "time": 94.513194,
            "velocity": 0.09448818897637795
          },
          {
            "duration": 0.1327432500000043,
            "durationTicks": 96,
            "midi": 85,
            "name": "C#6",
            "ticks": 68448,
            "time": 94.64593725,
            "velocity": 0.09448818897637795
          },
          {
            "duration": 0.1327432500000043,
            "durationTicks": 96,
            "midi": 73,
            "name": "C#5",
            "ticks": 68448,
            "time": 94.64593725,
            "velocity": 0.09448818897637795
          },
          {
            "duration": 0.7964594999999974,
            "durationTicks": 576,
            "midi": 85,
            "name": "C#6",
            "ticks": 68544,
            "time": 94.77868050000001,
            "velocity": 0.09448818897637795
          },
          {
            "duration": 0.7964594999999974,
            "durationTicks": 576,
            "midi": 54,
            "name": "F#3",
            "ticks": 68544,
            "time": 94.77868050000001,
            "velocity": 0.09448818897637795
          },
          {
            "duration": 0.7964594999999974,
            "durationTicks": 576,
            "midi": 61,
            "name": "C#4",
            "ticks": 68544,
            "time": 94.77868050000001,
            "velocity": 0.09448818897637795
          },
          {
            "duration": 0.7964594999999974,
            "durationTicks": 576,
            "midi": 61,
            "name": "C#4",
            "ticks": 68544,
            "time": 94.77868050000001,
            "velocity": 0.09448818897637795
          },
          {
            "duration": 0.7964594999999974,
            "durationTicks": 576,
            "midi": 58,
            "name": "A#3",
            "ticks": 68544,
            "time": 94.77868050000001,
            "velocity": 0.09448818897637795
          },
          {
            "duration": 0.7964594999999974,
            "durationTicks": 576,
            "midi": 73,
            "name": "C#5",
            "ticks": 68544,
            "time": 94.77868050000001,
            "velocity": 0.09448818897637795
          },
          {
            "duration": 0.7964594999999974,
            "durationTicks": 576,
            "midi": 58,
            "name": "A#3",
            "ticks": 68544,
            "time": 94.77868050000001,
            "velocity": 0.09448818897637795
          },
          {
            "duration": 2.123891999999998,
            "durationTicks": 1536,
            "midi": 68,
            "name": "G#4",
            "ticks": 68544,
            "time": 94.77868050000001,
            "velocity": 0.09448818897637795
          },
          {
            "duration": 1.3274325000000005,
            "durationTicks": 960,
            "midi": 56,
            "name": "G#3",
            "ticks": 69120,
            "time": 95.57514,
            "velocity": 0.09448818897637795
          },
          {
            "duration": 0.7964594999999974,
            "durationTicks": 576,
            "midi": 63,
            "name": "D#4",
            "ticks": 69120,
            "time": 95.57514,
            "velocity": 0.09448818897637795
          },
          {
            "duration": 0.7964594999999974,
            "durationTicks": 576,
            "midi": 75,
            "name": "D#5",
            "ticks": 69120,
            "time": 95.57514,
            "velocity": 0.09448818897637795
          },
          {
            "duration": 1.3274325000000005,
            "durationTicks": 960,
            "midi": 63,
            "name": "D#4",
            "ticks": 69120,
            "time": 95.57514,
            "velocity": 0.09448818897637795
          },
          {
            "duration": 0.7964594999999974,
            "durationTicks": 576,
            "midi": 87,
            "name": "D#6",
            "ticks": 69120,
            "time": 95.57514,
            "velocity": 0.09448818897637795
          },
          {
            "duration": 0.7964594999999974,
            "durationTicks": 576,
            "midi": 60,
            "name": "C4",
            "ticks": 69120,
            "time": 95.57514,
            "velocity": 0.09448818897637795
          },
          {
            "duration": 1.3274325000000005,
            "durationTicks": 960,
            "midi": 60,
            "name": "C4",
            "ticks": 69120,
            "time": 95.57514,
            "velocity": 0.09448818897637795
          },
          {
            "duration": 0.530973000000003,
            "durationTicks": 384,
            "midi": 56,
            "name": "G#3",
            "ticks": 69696,
            "time": 96.3715995,
            "velocity": 0.07086614173228346
          },
          {
            "duration": 0.530973000000003,
            "durationTicks": 384,
            "midi": 80,
            "name": "G#5",
            "ticks": 69696,
            "time": 96.3715995,
            "velocity": 0.07086614173228346
          },
          {
            "duration": 0.530973000000003,
            "durationTicks": 384,
            "midi": 51,
            "name": "D#3",
            "ticks": 69696,
            "time": 96.3715995,
            "velocity": 0.07086614173228346
          },
          {
            "duration": 0.530973000000003,
            "durationTicks": 384,
            "midi": 68,
            "name": "G#4",
            "ticks": 69696,
            "time": 96.3715995,
            "velocity": 0.07086614173228346
          },
          {
            "duration": 0.7964594999999974,
            "durationTicks": 576,
            "midi": 87,
            "name": "D#6",
            "ticks": 70080,
            "time": 96.9025725,
            "velocity": 0.09448818897637795
          },
          {
            "duration": 0.7964594999999974,
            "durationTicks": 576,
            "midi": 63,
            "name": "D#4",
            "ticks": 70080,
            "time": 96.9025725,
            "velocity": 0.09448818897637795
          },
          {
            "duration": 0.7964594999999974,
            "durationTicks": 576,
            "midi": 75,
            "name": "D#5",
            "ticks": 70080,
            "time": 96.9025725,
            "velocity": 0.09448818897637795
          },
          {
            "duration": 0.7964594999999974,
            "durationTicks": 576,
            "midi": 63,
            "name": "D#4",
            "ticks": 70080,
            "time": 96.9025725,
            "velocity": 0.09448818897637795
          },
          {
            "duration": 0.7964594999999974,
            "durationTicks": 576,
            "midi": 60,
            "name": "C4",
            "ticks": 70080,
            "time": 96.9025725,
            "velocity": 0.09448818897637795
          },
          {
            "duration": 0.7964594999999974,
            "durationTicks": 576,
            "midi": 60,
            "name": "C4",
            "ticks": 70080,
            "time": 96.9025725,
            "velocity": 0.09448818897637795
          },
          {
            "duration": 0.7964594999999974,
            "durationTicks": 576,
            "midi": 56,
            "name": "G#3",
            "ticks": 70080,
            "time": 96.9025725,
            "velocity": 0.09448818897637795
          },
          {
            "duration": 1.5929189999999949,
            "durationTicks": 1152,
            "midi": 68,
            "name": "G#4",
            "ticks": 70080,
            "time": 96.9025725,
            "velocity": 0.09448818897637795
          },
          {
            "duration": 0.7964594999999974,
            "durationTicks": 576,
            "midi": 61,
            "name": "C#4",
            "ticks": 70656,
            "time": 97.699032,
            "velocity": 0.09448818897637795
          },
          {
            "duration": 1.3274325000000005,
            "durationTicks": 960,
            "midi": 61,
            "name": "C#4",
            "ticks": 70656,
            "time": 97.699032,
            "velocity": 0.09448818897637795
          },
          {
            "duration": 1.3274325000000005,
            "durationTicks": 960,
            "midi": 53,
            "name": "F3",
            "ticks": 70656,
            "time": 97.699032,
            "velocity": 0.09448818897637795
          },
          {
            "duration": 0.7964594999999974,
            "durationTicks": 576,
            "midi": 65,
            "name": "F4",
            "ticks": 70656,
            "time": 97.699032,
            "velocity": 0.09448818897637795
          },
          {
            "duration": 0.7964594999999974,
            "durationTicks": 576,
            "midi": 77,
            "name": "F5",
            "ticks": 70656,
            "time": 97.699032,
            "velocity": 0.09448818897637795
          },
          {
            "duration": 1.3274325000000005,
            "durationTicks": 960,
            "midi": 58,
            "name": "A#3",
            "ticks": 70656,
            "time": 97.699032,
            "velocity": 0.09448818897637795
          },
          {
            "duration": 0.7964594999999974,
            "durationTicks": 576,
            "midi": 89,
            "name": "F6",
            "ticks": 70656,
            "time": 97.699032,
            "velocity": 0.09448818897637795
          },
          {
            "duration": 0.1327432500000043,
            "durationTicks": 96,
            "midi": 92,
            "name": "G#6",
            "ticks": 71232,
            "time": 98.4954915,
            "velocity": 0.09448818897637795
          },
          {
            "duration": 0.1327432500000043,
            "durationTicks": 96,
            "midi": 80,
            "name": "G#5",
            "ticks": 71232,
            "time": 98.4954915,
            "velocity": 0.09448818897637795
          },
          {
            "duration": 0.1327432500000043,
            "durationTicks": 96,
            "midi": 90,
            "name": "F#6",
            "ticks": 71328,
            "time": 98.62823475,
            "velocity": 0.09448818897637795
          },
          {
            "duration": 0.1327432500000043,
            "durationTicks": 96,
            "midi": 78,
            "name": "F#5",
            "ticks": 71328,
            "time": 98.62823475,
            "velocity": 0.09448818897637795
          },
          {
            "duration": 0.1327432499999901,
            "durationTicks": 96,
            "midi": 77,
            "name": "F5",
            "ticks": 71424,
            "time": 98.76097800000001,
            "velocity": 0.09448818897637795
          },
          {
            "duration": 0.1327432499999901,
            "durationTicks": 96,
            "midi": 89,
            "name": "F6",
            "ticks": 71424,
            "time": 98.76097800000001,
            "velocity": 0.09448818897637795
          },
          {
            "duration": 0.1327432500000043,
            "durationTicks": 96,
            "midi": 85,
            "name": "C#6",
            "ticks": 71520,
            "time": 98.89372125,
            "velocity": 0.09448818897637795
          },
          {
            "duration": 0.1327432500000043,
            "durationTicks": 96,
            "midi": 73,
            "name": "C#5",
            "ticks": 71520,
            "time": 98.89372125,
            "velocity": 0.09448818897637795
          },
          {
            "duration": 0.7964594999999974,
            "durationTicks": 576,
            "midi": 61,
            "name": "C#4",
            "ticks": 71616,
            "time": 99.0264645,
            "velocity": 0.09448818897637795
          },
          {
            "duration": 0.7964594999999974,
            "durationTicks": 576,
            "midi": 73,
            "name": "C#5",
            "ticks": 71616,
            "time": 99.0264645,
            "velocity": 0.09448818897637795
          },
          {
            "duration": 0.7964594999999974,
            "durationTicks": 576,
            "midi": 54,
            "name": "F#3",
            "ticks": 71616,
            "time": 99.0264645,
            "velocity": 0.09448818897637795
          },
          {
            "duration": 0.7964594999999974,
            "durationTicks": 576,
            "midi": 58,
            "name": "A#3",
            "ticks": 71616,
            "time": 99.0264645,
            "velocity": 0.09448818897637795
          },
          {
            "duration": 0.7964594999999974,
            "durationTicks": 576,
            "midi": 85,
            "name": "C#6",
            "ticks": 71616,
            "time": 99.0264645,
            "velocity": 0.09448818897637795
          },
          {
            "duration": 0.7964594999999974,
            "durationTicks": 576,
            "midi": 58,
            "name": "A#3",
            "ticks": 71616,
            "time": 99.0264645,
            "velocity": 0.09448818897637795
          },
          {
            "duration": 0.7964594999999974,
            "durationTicks": 576,
            "midi": 61,
            "name": "C#4",
            "ticks": 71616,
            "time": 99.0264645,
            "velocity": 0.09448818897637795
          },
          {
            "duration": 0.7964595000000116,
            "durationTicks": 576,
            "midi": 87,
            "name": "D#6",
            "ticks": 72192,
            "time": 99.822924,
            "velocity": 0.09448818897637795
          },
          {
            "duration": 0.7964595000000116,
            "durationTicks": 576,
            "midi": 63,
            "name": "D#4",
            "ticks": 72192,
            "time": 99.822924,
            "velocity": 0.09448818897637795
          },
          {
            "duration": 0.7964595000000116,
            "durationTicks": 576,
            "midi": 75,
            "name": "D#5",
            "ticks": 72192,
            "time": 99.822924,
            "velocity": 0.09448818897637795
          },
          {
            "duration": 1.061946000000006,
            "durationTicks": 768,
            "midi": 63,
            "name": "D#4",
            "ticks": 72192,
            "time": 99.822924,
            "velocity": 0.09448818897637795
          },
          {
            "duration": 0.7964595000000116,
            "durationTicks": 576,
            "midi": 60,
            "name": "C4",
            "ticks": 72192,
            "time": 99.822924,
            "velocity": 0.09448818897637795
          },
          {
            "duration": 1.061946000000006,
            "durationTicks": 768,
            "midi": 56,
            "name": "G#3",
            "ticks": 72192,
            "time": 99.822924,
            "velocity": 0.09448818897637795
          },
          {
            "duration": 1.061946000000006,
            "durationTicks": 768,
            "midi": 60,
            "name": "C4",
            "ticks": 72192,
            "time": 99.822924,
            "velocity": 0.09448818897637795
          },
          {
            "duration": 1.5929189999999949,
            "durationTicks": 1152,
            "midi": 51,
            "name": "D#3",
            "ticks": 72768,
            "time": 100.61938350000001,
            "velocity": 0.07086614173228346
          },
          {
            "duration": 0.7964594999999974,
            "durationTicks": 576,
            "midi": 56,
            "name": "G#3",
            "ticks": 72768,
            "time": 100.61938350000001,
            "velocity": 0.07086614173228346
          },
          {
            "duration": 1.5929189999999949,
            "durationTicks": 1152,
            "midi": 68,
            "name": "G#4",
            "ticks": 72768,
            "time": 100.61938350000001,
            "velocity": 0.07086614173228346
          },
          {
            "duration": 1.5929189999999949,
            "durationTicks": 1152,
            "midi": 80,
            "name": "G#5",
            "ticks": 72768,
            "time": 100.61938350000001,
            "velocity": 0.07086614173228346
          },
          {
            "duration": 0.7964594999999974,
            "durationTicks": 576,
            "midi": 56,
            "name": "G#3",
            "ticks": 72960,
            "time": 100.88487,
            "velocity": 0.09448818897637795
          },
          {
            "duration": 0.530973000000003,
            "durationTicks": 384,
            "midi": 63,
            "name": "D#4",
            "ticks": 72960,
            "time": 100.88487,
            "velocity": 0.09448818897637795
          },
          {
            "duration": 0.530973000000003,
            "durationTicks": 384,
            "midi": 60,
            "name": "C4",
            "ticks": 72960,
            "time": 100.88487,
            "velocity": 0.09448818897637795
          },
          {
            "duration": 0.2654864999999944,
            "durationTicks": 192,
            "midi": 61,
            "name": "C#4",
            "ticks": 73344,
            "time": 101.41584300000001,
            "velocity": 0.09448818897637795
          },
          {
            "duration": 0.7964594999999974,
            "durationTicks": 576,
            "midi": 56,
            "name": "G#3",
            "ticks": 73344,
            "time": 101.41584300000001,
            "velocity": 0.09448818897637795
          },
          {
            "duration": 0.2654864999999944,
            "durationTicks": 192,
            "midi": 53,
            "name": "F3",
            "ticks": 73344,
            "time": 101.41584300000001,
            "velocity": 0.09448818897637795
          },
          {
            "duration": 1.5929189999999949,
            "durationTicks": 1152,
            "midi": 56,
            "name": "G#3",
            "ticks": 73536,
            "time": 101.6813295,
            "velocity": 0.09448818897637795
          },
          {
            "duration": 1.5929189999999949,
            "durationTicks": 1152,
            "midi": 53,
            "name": "F3",
            "ticks": 73536,
            "time": 101.6813295,
            "velocity": 0.09448818897637795
          },
          {
            "duration": 1.5929189999999949,
            "durationTicks": 1152,
            "midi": 61,
            "name": "C#4",
            "ticks": 73536,
            "time": 101.6813295,
            "velocity": 0.09448818897637795
          },
          {
            "duration": 0.7964595000000116,
            "durationTicks": 576,
            "midi": 58,
            "name": "A#3",
            "ticks": 74688,
            "time": 103.2742485,
            "velocity": 0.09448818897637795
          },
          {
            "duration": 0.7964595000000116,
            "durationTicks": 576,
            "midi": 61,
            "name": "C#4",
            "ticks": 74688,
            "time": 103.2742485,
            "velocity": 0.09448818897637795
          },
          {
            "duration": 0.7964595000000116,
            "durationTicks": 576,
            "midi": 85,
            "name": "C#6",
            "ticks": 74688,
            "time": 103.2742485,
            "velocity": 0.09448818897637795
          },
          {
            "duration": 2.123892000000012,
            "durationTicks": 1536,
            "midi": 68,
            "name": "G#4",
            "ticks": 74688,
            "time": 103.2742485,
            "velocity": 0.09448818897637795
          },
          {
            "duration": 0.7964595000000116,
            "durationTicks": 576,
            "midi": 73,
            "name": "C#5",
            "ticks": 74688,
            "time": 103.2742485,
            "velocity": 0.09448818897637795
          },
          {
            "duration": 0.7964595000000116,
            "durationTicks": 576,
            "midi": 61,
            "name": "C#4",
            "ticks": 74688,
            "time": 103.2742485,
            "velocity": 0.09448818897637795
          },
          {
            "duration": 0.7964595000000116,
            "durationTicks": 576,
            "midi": 58,
            "name": "A#3",
            "ticks": 74688,
            "time": 103.2742485,
            "velocity": 0.09448818897637795
          },
          {
            "duration": 0.7964595000000116,
            "durationTicks": 576,
            "midi": 54,
            "name": "F#3",
            "ticks": 74688,
            "time": 103.2742485,
            "velocity": 0.09448818897637795
          },
          {
            "duration": 0.7964594999999974,
            "durationTicks": 576,
            "midi": 63,
            "name": "D#4",
            "ticks": 75264,
            "time": 104.07070800000001,
            "velocity": 0.09448818897637795
          },
          {
            "duration": 1.3274325000000005,
            "durationTicks": 960,
            "midi": 63,
            "name": "D#4",
            "ticks": 75264,
            "time": 104.07070800000001,
            "velocity": 0.09448818897637795
          },
          {
            "duration": 0.7964594999999974,
            "durationTicks": 576,
            "midi": 87,
            "name": "D#6",
            "ticks": 75264,
            "time": 104.07070800000001,
            "velocity": 0.09448818897637795
          },
          {
            "duration": 0.7964594999999974,
            "durationTicks": 576,
            "midi": 75,
            "name": "D#5",
            "ticks": 75264,
            "time": 104.07070800000001,
            "velocity": 0.09448818897637795
          },
          {
            "duration": 0.7964594999999974,
            "durationTicks": 576,
            "midi": 60,
            "name": "C4",
            "ticks": 75264,
            "time": 104.07070800000001,
            "velocity": 0.09448818897637795
          },
          {
            "duration": 1.3274325000000005,
            "durationTicks": 960,
            "midi": 60,
            "name": "C4",
            "ticks": 75264,
            "time": 104.07070800000001,
            "velocity": 0.09448818897637795
          },
          {
            "duration": 1.3274325000000005,
            "durationTicks": 960,
            "midi": 56,
            "name": "G#3",
            "ticks": 75264,
            "time": 104.07070800000001,
            "velocity": 0.09448818897637795
          },
          {
            "duration": 0.530973000000003,
            "durationTicks": 384,
            "midi": 68,
            "name": "G#4",
            "ticks": 75840,
            "time": 104.86716750000001,
            "velocity": 0.07086614173228346
          },
          {
            "duration": 0.530973000000003,
            "durationTicks": 384,
            "midi": 80,
            "name": "G#5",
            "ticks": 75840,
            "time": 104.86716750000001,
            "velocity": 0.07086614173228346
          },
          {
            "duration": 0.530973000000003,
            "durationTicks": 384,
            "midi": 51,
            "name": "D#3",
            "ticks": 75840,
            "time": 104.86716750000001,
            "velocity": 0.07086614173228346
          },
          {
            "duration": 0.530973000000003,
            "durationTicks": 384,
            "midi": 56,
            "name": "G#3",
            "ticks": 75840,
            "time": 104.86716750000001,
            "velocity": 0.07086614173228346
          },
          {
            "duration": 0.7964594999999974,
            "durationTicks": 576,
            "midi": 63,
            "name": "D#4",
            "ticks": 76224,
            "time": 105.39814050000001,
            "velocity": 0.09448818897637795
          },
          {
            "duration": 0.7964594999999974,
            "durationTicks": 576,
            "midi": 63,
            "name": "D#4",
            "ticks": 76224,
            "time": 105.39814050000001,
            "velocity": 0.09448818897637795
          },
          {
            "duration": 0.7964594999999974,
            "durationTicks": 576,
            "midi": 87,
            "name": "D#6",
            "ticks": 76224,
            "time": 105.39814050000001,
            "velocity": 0.09448818897637795
          },
          {
            "duration": 1.5929189999999949,
            "durationTicks": 1152,
            "midi": 68,
            "name": "G#4",
            "ticks": 76224,
            "time": 105.39814050000001,
            "velocity": 0.09448818897637795
          },
          {
            "duration": 0.7964594999999974,
            "durationTicks": 576,
            "midi": 75,
            "name": "D#5",
            "ticks": 76224,
            "time": 105.39814050000001,
            "velocity": 0.09448818897637795
          },
          {
            "duration": 0.7964594999999974,
            "durationTicks": 576,
            "midi": 56,
            "name": "G#3",
            "ticks": 76224,
            "time": 105.39814050000001,
            "velocity": 0.09448818897637795
          },
          {
            "duration": 0.7964594999999974,
            "durationTicks": 576,
            "midi": 60,
            "name": "C4",
            "ticks": 76224,
            "time": 105.39814050000001,
            "velocity": 0.09448818897637795
          },
          {
            "duration": 0.7964594999999974,
            "durationTicks": 576,
            "midi": 60,
            "name": "C4",
            "ticks": 76224,
            "time": 105.39814050000001,
            "velocity": 0.09448818897637795
          },
          {
            "duration": 0.7964594999999974,
            "durationTicks": 576,
            "midi": 61,
            "name": "C#4",
            "ticks": 76800,
            "time": 106.19460000000001,
            "velocity": 0.09448818897637795
          },
          {
            "duration": 0.7964594999999974,
            "durationTicks": 576,
            "midi": 89,
            "name": "F6",
            "ticks": 76800,
            "time": 106.19460000000001,
            "velocity": 0.09448818897637795
          },
          {
            "duration": 0.7964594999999974,
            "durationTicks": 576,
            "midi": 65,
            "name": "F4",
            "ticks": 76800,
            "time": 106.19460000000001,
            "velocity": 0.09448818897637795
          },
          {
            "duration": 1.3274325000000005,
            "durationTicks": 960,
            "midi": 53,
            "name": "F3",
            "ticks": 76800,
            "time": 106.19460000000001,
            "velocity": 0.09448818897637795
          },
          {
            "duration": 1.3274325000000005,
            "durationTicks": 960,
            "midi": 61,
            "name": "C#4",
            "ticks": 76800,
            "time": 106.19460000000001,
            "velocity": 0.09448818897637795
          },
          {
            "duration": 1.3274325000000005,
            "durationTicks": 960,
            "midi": 58,
            "name": "A#3",
            "ticks": 76800,
            "time": 106.19460000000001,
            "velocity": 0.09448818897637795
          },
          {
            "duration": 0.7964594999999974,
            "durationTicks": 576,
            "midi": 77,
            "name": "F5",
            "ticks": 76800,
            "time": 106.19460000000001,
            "velocity": 0.09448818897637795
          },
          {
            "duration": 0.1327432500000043,
            "durationTicks": 96,
            "midi": 92,
            "name": "G#6",
            "ticks": 77376,
            "time": 106.9910595,
            "velocity": 0.09448818897637795
          },
          {
            "duration": 0.1327432500000043,
            "durationTicks": 96,
            "midi": 80,
            "name": "G#5",
            "ticks": 77376,
            "time": 106.9910595,
            "velocity": 0.09448818897637795
          },
          {
            "duration": 0.1327432499999901,
            "durationTicks": 96,
            "midi": 90,
            "name": "F#6",
            "ticks": 77472,
            "time": 107.12380275000001,
            "velocity": 0.09448818897637795
          },
          {
            "duration": 0.1327432499999901,
            "durationTicks": 96,
            "midi": 78,
            "name": "F#5",
            "ticks": 77472,
            "time": 107.12380275000001,
            "velocity": 0.09448818897637795
          },
          {
            "duration": 0.1327432500000043,
            "durationTicks": 96,
            "midi": 77,
            "name": "F5",
            "ticks": 77568,
            "time": 107.256546,
            "velocity": 0.09448818897637795
          },
          {
            "duration": 0.1327432500000043,
            "durationTicks": 96,
            "midi": 89,
            "name": "F6",
            "ticks": 77568,
            "time": 107.256546,
            "velocity": 0.09448818897637795
          },
          {
            "duration": 0.1327432500000043,
            "durationTicks": 96,
            "midi": 73,
            "name": "C#5",
            "ticks": 77664,
            "time": 107.38928925,
            "velocity": 0.09448818897637795
          },
          {
            "duration": 0.1327432500000043,
            "durationTicks": 96,
            "midi": 85,
            "name": "C#6",
            "ticks": 77664,
            "time": 107.38928925,
            "velocity": 0.09448818897637795
          },
          {
            "duration": 0.7964594999999974,
            "durationTicks": 576,
            "midi": 61,
            "name": "C#4",
            "ticks": 77760,
            "time": 107.52203250000001,
            "velocity": 0.09448818897637795
          },
          {
            "duration": 0.7964594999999974,
            "durationTicks": 576,
            "midi": 54,
            "name": "F#3",
            "ticks": 77760,
            "time": 107.52203250000001,
            "velocity": 0.09448818897637795
          },
          {
            "duration": 0.7964594999999974,
            "durationTicks": 576,
            "midi": 58,
            "name": "A#3",
            "ticks": 77760,
            "time": 107.52203250000001,
            "velocity": 0.09448818897637795
          },
          {
            "duration": 0.7964594999999974,
            "durationTicks": 576,
            "midi": 85,
            "name": "C#6",
            "ticks": 77760,
            "time": 107.52203250000001,
            "velocity": 0.09448818897637795
          },
          {
            "duration": 0.7964594999999974,
            "durationTicks": 576,
            "midi": 58,
            "name": "A#3",
            "ticks": 77760,
            "time": 107.52203250000001,
            "velocity": 0.09448818897637795
          },
          {
            "duration": 0.7964594999999974,
            "durationTicks": 576,
            "midi": 61,
            "name": "C#4",
            "ticks": 77760,
            "time": 107.52203250000001,
            "velocity": 0.09448818897637795
          },
          {
            "duration": 0.7964594999999974,
            "durationTicks": 576,
            "midi": 73,
            "name": "C#5",
            "ticks": 77760,
            "time": 107.52203250000001,
            "velocity": 0.09448818897637795
          },
          {
            "duration": 1.3274325000000005,
            "durationTicks": 960,
            "midi": 56,
            "name": "G#3",
            "ticks": 78336,
            "time": 108.318492,
            "velocity": 0.09448818897637795
          },
          {
            "duration": 0.7964594999999974,
            "durationTicks": 576,
            "midi": 60,
            "name": "C4",
            "ticks": 78336,
            "time": 108.318492,
            "velocity": 0.09448818897637795
          },
          {
            "duration": 0.7964594999999974,
            "durationTicks": 576,
            "midi": 75,
            "name": "D#5",
            "ticks": 78336,
            "time": 108.318492,
            "velocity": 0.09448818897637795
          },
          {
            "duration": 0.7964594999999974,
            "durationTicks": 576,
            "midi": 63,
            "name": "D#4",
            "ticks": 78336,
            "time": 108.318492,
            "velocity": 0.09448818897637795
          },
          {
            "duration": 1.3274325000000005,
            "durationTicks": 960,
            "midi": 60,
            "name": "C4",
            "ticks": 78336,
            "time": 108.318492,
            "velocity": 0.09448818897637795
          },
          {
            "duration": 0.7964594999999974,
            "durationTicks": 576,
            "midi": 87,
            "name": "D#6",
            "ticks": 78336,
            "time": 108.318492,
            "velocity": 0.09448818897637795
          },
          {
            "duration": 1.3274325000000005,
            "durationTicks": 960,
            "midi": 63,
            "name": "D#4",
            "ticks": 78336,
            "time": 108.318492,
            "velocity": 0.09448818897637795
          },
          {
            "duration": 1.592919000000009,
            "durationTicks": 1152,
            "midi": 68,
            "name": "G#4",
            "ticks": 78912,
            "time": 109.1149515,
            "velocity": 0.07086614173228346
          },
          {
            "duration": 1.592919000000009,
            "durationTicks": 1152,
            "midi": 80,
            "name": "G#5",
            "ticks": 78912,
            "time": 109.1149515,
            "velocity": 0.07086614173228346
          },
          {
            "duration": 1.3274325000000005,
            "durationTicks": 960,
            "midi": 56,
            "name": "G#3",
            "ticks": 78912,
            "time": 109.1149515,
            "velocity": 0.07086614173228346
          },
          {
            "duration": 1.592919000000009,
            "durationTicks": 1152,
            "midi": 51,
            "name": "D#3",
            "ticks": 78912,
            "time": 109.1149515,
            "velocity": 0.07086614173228346
          },
          {
            "duration": 1.061946000000006,
            "durationTicks": 768,
            "midi": 56,
            "name": "G#3",
            "ticks": 79296,
            "time": 109.6459245,
            "velocity": 0.09448818897637795
          },
          {
            "duration": 0.7964594999999974,
            "durationTicks": 576,
            "midi": 63,
            "name": "D#4",
            "ticks": 79296,
            "time": 109.6459245,
            "velocity": 0.09448818897637795
          },
          {
            "duration": 0.7964594999999974,
            "durationTicks": 576,
            "midi": 60,
            "name": "C4",
            "ticks": 79296,
            "time": 109.6459245,
            "velocity": 0.09448818897637795
          },
          {
            "duration": 1.3274325000000005,
            "durationTicks": 960,
            "midi": 61,
            "name": "C#4",
            "ticks": 79872,
            "time": 110.442384,
            "velocity": 0.09448818897637795
          },
          {
            "duration": 1.3274325000000005,
            "durationTicks": 960,
            "midi": 53,
            "name": "F3",
            "ticks": 79872,
            "time": 110.442384,
            "velocity": 0.09448818897637795
          },
          {
            "duration": 1.3274325000000005,
            "durationTicks": 960,
            "midi": 58,
            "name": "A#3",
            "ticks": 79872,
            "time": 110.442384,
            "velocity": 0.09448818897637795
          },
          {
            "duration": 0.1327432500000043,
            "durationTicks": 96,
            "midi": 92,
            "name": "G#6",
            "ticks": 80448,
            "time": 111.2388435,
            "velocity": 0.09448818897637795
          },
          {
            "duration": 0.1327432500000043,
            "durationTicks": 96,
            "midi": 80,
            "name": "G#5",
            "ticks": 80448,
            "time": 111.2388435,
            "velocity": 0.09448818897637795
          },
          {
            "duration": 0.1327432500000043,
            "durationTicks": 96,
            "midi": 90,
            "name": "F#6",
            "ticks": 80544,
            "time": 111.37158675,
            "velocity": 0.09448818897637795
          },
          {
            "duration": 0.1327432500000043,
            "durationTicks": 96,
            "midi": 78,
            "name": "F#5",
            "ticks": 80544,
            "time": 111.37158675,
            "velocity": 0.09448818897637795
          },
          {
            "duration": 0.1327432499999901,
            "durationTicks": 96,
            "midi": 89,
            "name": "F6",
            "ticks": 80640,
            "time": 111.50433000000001,
            "velocity": 0.09448818897637795
          },
          {
            "duration": 0.1327432499999901,
            "durationTicks": 96,
            "midi": 77,
            "name": "F5",
            "ticks": 80640,
            "time": 111.50433000000001,
            "velocity": 0.09448818897637795
          },
          {
            "duration": 0.1327432500000043,
            "durationTicks": 96,
            "midi": 73,
            "name": "C#5",
            "ticks": 80736,
            "time": 111.63707325,
            "velocity": 0.09448818897637795
          },
          {
            "duration": 0.1327432500000043,
            "durationTicks": 96,
            "midi": 85,
            "name": "C#6",
            "ticks": 80736,
            "time": 111.63707325,
            "velocity": 0.09448818897637795
          },
          {
            "duration": 0.7964594999999974,
            "durationTicks": 576,
            "midi": 58,
            "name": "A#3",
            "ticks": 80832,
            "time": 111.7698165,
            "velocity": 0.09448818897637795
          },
          {
            "duration": 0.7964594999999974,
            "durationTicks": 576,
            "midi": 85,
            "name": "C#6",
            "ticks": 80832,
            "time": 111.7698165,
            "velocity": 0.09448818897637795
          },
          {
            "duration": 0.7964594999999974,
            "durationTicks": 576,
            "midi": 73,
            "name": "C#5",
            "ticks": 80832,
            "time": 111.7698165,
            "velocity": 0.09448818897637795
          },
          {
            "duration": 0.7964594999999974,
            "durationTicks": 576,
            "midi": 54,
            "name": "F#3",
            "ticks": 80832,
            "time": 111.7698165,
            "velocity": 0.09448818897637795
          },
          {
            "duration": 2.123891999999998,
            "durationTicks": 1536,
            "midi": 68,
            "name": "G#4",
            "ticks": 80832,
            "time": 111.7698165,
            "velocity": 0.09448818897637795
          },
          {
            "duration": 0.7964594999999974,
            "durationTicks": 576,
            "midi": 61,
            "name": "C#4",
            "ticks": 80832,
            "time": 111.7698165,
            "velocity": 0.09448818897637795
          },
          {
            "duration": 0.7964594999999974,
            "durationTicks": 576,
            "midi": 58,
            "name": "A#3",
            "ticks": 80832,
            "time": 111.7698165,
            "velocity": 0.09448818897637795
          },
          {
            "duration": 0.7964594999999974,
            "durationTicks": 576,
            "midi": 61,
            "name": "C#4",
            "ticks": 80832,
            "time": 111.7698165,
            "velocity": 0.09448818897637795
          },
          {
            "duration": 0.7964594999999974,
            "durationTicks": 576,
            "midi": 63,
            "name": "D#4",
            "ticks": 81408,
            "time": 112.566276,
            "velocity": 0.09448818897637795
          },
          {
            "duration": 1.3274325000000005,
            "durationTicks": 960,
            "midi": 56,
            "name": "G#3",
            "ticks": 81408,
            "time": 112.566276,
            "velocity": 0.09448818897637795
          },
          {
            "duration": 1.3274325000000005,
            "durationTicks": 960,
            "midi": 63,
            "name": "D#4",
            "ticks": 81408,
            "time": 112.566276,
            "velocity": 0.09448818897637795
          },
          {
            "duration": 0.7964594999999974,
            "durationTicks": 576,
            "midi": 60,
            "name": "C4",
            "ticks": 81408,
            "time": 112.566276,
            "velocity": 0.09448818897637795
          },
          {
            "duration": 0.7964594999999974,
            "durationTicks": 576,
            "midi": 87,
            "name": "D#6",
            "ticks": 81408,
            "time": 112.566276,
            "velocity": 0.09448818897637795
          },
          {
            "duration": 0.7964594999999974,
            "durationTicks": 576,
            "midi": 75,
            "name": "D#5",
            "ticks": 81408,
            "time": 112.566276,
            "velocity": 0.09448818897637795
          },
          {
            "duration": 1.3274325000000005,
            "durationTicks": 960,
            "midi": 60,
            "name": "C4",
            "ticks": 81408,
            "time": 112.566276,
            "velocity": 0.09448818897637795
          },
          {
            "duration": 0.530973000000003,
            "durationTicks": 384,
            "midi": 68,
            "name": "G#4",
            "ticks": 81984,
            "time": 113.3627355,
            "velocity": 0.07086614173228346
          },
          {
            "duration": 0.530973000000003,
            "durationTicks": 384,
            "midi": 51,
            "name": "D#3",
            "ticks": 81984,
            "time": 113.3627355,
            "velocity": 0.07086614173228346
          },
          {
            "duration": 0.530973000000003,
            "durationTicks": 384,
            "midi": 56,
            "name": "G#3",
            "ticks": 81984,
            "time": 113.3627355,
            "velocity": 0.07086614173228346
          },
          {
            "duration": 0.530973000000003,
            "durationTicks": 384,
            "midi": 80,
            "name": "G#5",
            "ticks": 81984,
            "time": 113.3627355,
            "velocity": 0.07086614173228346
          },
          {
            "duration": 0.7964594999999974,
            "durationTicks": 576,
            "midi": 56,
            "name": "G#3",
            "ticks": 82368,
            "time": 113.8937085,
            "velocity": 0.09448818897637795
          },
          {
            "duration": 0.7964594999999974,
            "durationTicks": 576,
            "midi": 60,
            "name": "C4",
            "ticks": 82368,
            "time": 113.8937085,
            "velocity": 0.09448818897637795
          },
          {
            "duration": 0.7964594999999974,
            "durationTicks": 576,
            "midi": 63,
            "name": "D#4",
            "ticks": 82368,
            "time": 113.8937085,
            "velocity": 0.09448818897637795
          },
          {
            "duration": 1.592919000000009,
            "durationTicks": 1152,
            "midi": 68,
            "name": "G#4",
            "ticks": 82368,
            "time": 113.8937085,
            "velocity": 0.09448818897637795
          },
          {
            "duration": 0.7964594999999974,
            "durationTicks": 576,
            "midi": 75,
            "name": "D#5",
            "ticks": 82368,
            "time": 113.8937085,
            "velocity": 0.09448818897637795
          },
          {
            "duration": 0.7964594999999974,
            "durationTicks": 576,
            "midi": 60,
            "name": "C4",
            "ticks": 82368,
            "time": 113.8937085,
            "velocity": 0.09448818897637795
          },
          {
            "duration": 0.7964594999999974,
            "durationTicks": 576,
            "midi": 63,
            "name": "D#4",
            "ticks": 82368,
            "time": 113.8937085,
            "velocity": 0.09448818897637795
          },
          {
            "duration": 0.7964594999999974,
            "durationTicks": 576,
            "midi": 87,
            "name": "D#6",
            "ticks": 82368,
            "time": 113.8937085,
            "velocity": 0.09448818897637795
          },
          {
            "duration": 0.7964595000000116,
            "durationTicks": 576,
            "midi": 77,
            "name": "F5",
            "ticks": 82944,
            "time": 114.690168,
            "velocity": 0.09448818897637795
          },
          {
            "duration": 0.7964595000000116,
            "durationTicks": 576,
            "midi": 89,
            "name": "F6",
            "ticks": 82944,
            "time": 114.690168,
            "velocity": 0.09448818897637795
          },
          {
            "duration": 0.7964595000000116,
            "durationTicks": 576,
            "midi": 61,
            "name": "C#4",
            "ticks": 82944,
            "time": 114.690168,
            "velocity": 0.09448818897637795
          },
          {
            "duration": 0.7964595000000116,
            "durationTicks": 576,
            "midi": 65,
            "name": "F4",
            "ticks": 82944,
            "time": 114.690168,
            "velocity": 0.09448818897637795
          },
          {
            "duration": 1.3274325000000005,
            "durationTicks": 960,
            "midi": 61,
            "name": "C#4",
            "ticks": 82944,
            "time": 114.690168,
            "velocity": 0.09448818897637795
          },
          {
            "duration": 1.3274325000000005,
            "durationTicks": 960,
            "midi": 53,
            "name": "F3",
            "ticks": 82944,
            "time": 114.690168,
            "velocity": 0.09448818897637795
          },
          {
            "duration": 1.3274325000000005,
            "durationTicks": 960,
            "midi": 58,
            "name": "A#3",
            "ticks": 82944,
            "time": 114.690168,
            "velocity": 0.09448818897637795
          },
          {
            "duration": 0.1327432499999901,
            "durationTicks": 96,
            "midi": 80,
            "name": "G#5",
            "ticks": 83520,
            "time": 115.48662750000001,
            "velocity": 0.09448818897637795
          },
          {
            "duration": 0.1327432499999901,
            "durationTicks": 96,
            "midi": 92,
            "name": "G#6",
            "ticks": 83520,
            "time": 115.48662750000001,
            "velocity": 0.09448818897637795
          },
          {
            "duration": 0.1327432500000043,
            "durationTicks": 96,
            "midi": 78,
            "name": "F#5",
            "ticks": 83616,
            "time": 115.61937075,
            "velocity": 0.09448818897637795
          },
          {
            "duration": 0.1327432500000043,
            "durationTicks": 96,
            "midi": 90,
            "name": "F#6",
            "ticks": 83616,
            "time": 115.61937075,
            "velocity": 0.09448818897637795
          },
          {
            "duration": 0.1327432500000043,
            "durationTicks": 96,
            "midi": 77,
            "name": "F5",
            "ticks": 83712,
            "time": 115.752114,
            "velocity": 0.09448818897637795
          },
          {
            "duration": 0.1327432500000043,
            "durationTicks": 96,
            "midi": 89,
            "name": "F6",
            "ticks": 83712,
            "time": 115.752114,
            "velocity": 0.09448818897637795
          },
          {
            "duration": 0.1327432499999901,
            "durationTicks": 96,
            "midi": 73,
            "name": "C#5",
            "ticks": 83808,
            "time": 115.88485725000001,
            "velocity": 0.09448818897637795
          },
          {
            "duration": 0.1327432499999901,
            "durationTicks": 96,
            "midi": 85,
            "name": "C#6",
            "ticks": 83808,
            "time": 115.88485725000001,
            "velocity": 0.09448818897637795
          },
          {
            "duration": 0.7964595000000116,
            "durationTicks": 576,
            "midi": 61,
            "name": "C#4",
            "ticks": 83904,
            "time": 116.0176005,
            "velocity": 0.09448818897637795
          },
          {
            "duration": 0.7964595000000116,
            "durationTicks": 576,
            "midi": 58,
            "name": "A#3",
            "ticks": 83904,
            "time": 116.0176005,
            "velocity": 0.09448818897637795
          },
          {
            "duration": 0.7964595000000116,
            "durationTicks": 576,
            "midi": 58,
            "name": "A#3",
            "ticks": 83904,
            "time": 116.0176005,
            "velocity": 0.09448818897637795
          },
          {
            "duration": 0.7964595000000116,
            "durationTicks": 576,
            "midi": 73,
            "name": "C#5",
            "ticks": 83904,
            "time": 116.0176005,
            "velocity": 0.09448818897637795
          },
          {
            "duration": 0.7964595000000116,
            "durationTicks": 576,
            "midi": 61,
            "name": "C#4",
            "ticks": 83904,
            "time": 116.0176005,
            "velocity": 0.09448818897637795
          },
          {
            "duration": 0.7964595000000116,
            "durationTicks": 576,
            "midi": 54,
            "name": "F#3",
            "ticks": 83904,
            "time": 116.0176005,
            "velocity": 0.09448818897637795
          },
          {
            "duration": 0.7964595000000116,
            "durationTicks": 576,
            "midi": 85,
            "name": "C#6",
            "ticks": 83904,
            "time": 116.0176005,
            "velocity": 0.09448818897637795
          },
          {
            "duration": 0.7964594999999974,
            "durationTicks": 576,
            "midi": 75,
            "name": "D#5",
            "ticks": 84480,
            "time": 116.81406000000001,
            "velocity": 0.09448818897637795
          },
          {
            "duration": 0.7964594999999974,
            "durationTicks": 576,
            "midi": 60,
            "name": "C4",
            "ticks": 84480,
            "time": 116.81406000000001,
            "velocity": 0.09448818897637795
          },
          {
            "duration": 0.7964594999999974,
            "durationTicks": 576,
            "midi": 63,
            "name": "D#4",
            "ticks": 84480,
            "time": 116.81406000000001,
            "velocity": 0.09448818897637795
          },
          {
            "duration": 1.0619459999999918,
            "durationTicks": 768,
            "midi": 56,
            "name": "G#3",
            "ticks": 84480,
            "time": 116.81406000000001,
            "velocity": 0.09448818897637795
          },
          {
            "duration": 1.0619459999999918,
            "durationTicks": 768,
            "midi": 60,
            "name": "C4",
            "ticks": 84480,
            "time": 116.81406000000001,
            "velocity": 0.09448818897637795
          },
          {
            "duration": 0.7964594999999974,
            "durationTicks": 576,
            "midi": 87,
            "name": "D#6",
            "ticks": 84480,
            "time": 116.81406000000001,
            "velocity": 0.09448818897637795
          },
          {
            "duration": 1.0619459999999918,
            "durationTicks": 768,
            "midi": 63,
            "name": "D#4",
            "ticks": 84480,
            "time": 116.81406000000001,
            "velocity": 0.09448818897637795
          },
          {
            "duration": 1.5929189999999949,
            "durationTicks": 1152,
            "midi": 68,
            "name": "G#4",
            "ticks": 85056,
            "time": 117.61051950000001,
            "velocity": 0.07086614173228346
          },
          {
            "duration": 1.5929189999999949,
            "durationTicks": 1152,
            "midi": 51,
            "name": "D#3",
            "ticks": 85056,
            "time": 117.61051950000001,
            "velocity": 0.07086614173228346
          },
          {
            "duration": 0.7964594999999974,
            "durationTicks": 576,
            "midi": 56,
            "name": "G#3",
            "ticks": 85056,
            "time": 117.61051950000001,
            "velocity": 0.07086614173228346
          },
          {
            "duration": 1.5929189999999949,
            "durationTicks": 1152,
            "midi": 80,
            "name": "G#5",
            "ticks": 85056,
            "time": 117.61051950000001,
            "velocity": 0.07086614173228346
          },
          {
            "duration": 0.530973000000003,
            "durationTicks": 384,
            "midi": 60,
            "name": "C4",
            "ticks": 85248,
            "time": 117.876006,
            "velocity": 0.09448818897637795
          },
          {
            "duration": 0.7964594999999974,
            "durationTicks": 576,
            "midi": 56,
            "name": "G#3",
            "ticks": 85248,
            "time": 117.876006,
            "velocity": 0.09448818897637795
          },
          {
            "duration": 0.530973000000003,
            "durationTicks": 384,
            "midi": 63,
            "name": "D#4",
            "ticks": 85248,
            "time": 117.876006,
            "velocity": 0.09448818897637795
          },
          {
            "duration": 0.2654864999999944,
            "durationTicks": 192,
            "midi": 61,
            "name": "C#4",
            "ticks": 85632,
            "time": 118.406979,
            "velocity": 0.09448818897637795
          },
          {
            "duration": 0.7964594999999974,
            "durationTicks": 576,
            "midi": 56,
            "name": "G#3",
            "ticks": 85632,
            "time": 118.406979,
            "velocity": 0.09448818897637795
          },
          {
            "duration": 0.2654864999999944,
            "durationTicks": 192,
            "midi": 53,
            "name": "F3",
            "ticks": 85632,
            "time": 118.406979,
            "velocity": 0.09448818897637795
          },
          {
            "duration": 1.592919000000009,
            "durationTicks": 1152,
            "midi": 53,
            "name": "F3",
            "ticks": 85824,
            "time": 118.6724655,
            "velocity": 0.09448818897637795
          },
          {
            "duration": 1.592919000000009,
            "durationTicks": 1152,
            "midi": 56,
            "name": "G#3",
            "ticks": 85824,
            "time": 118.6724655,
            "velocity": 0.09448818897637795
          },
          {
            "duration": 1.592919000000009,
            "durationTicks": 1152,
            "midi": 61,
            "name": "C#4",
            "ticks": 85824,
            "time": 118.6724655,
            "velocity": 0.09448818897637795
          },
          {
            "duration": 0.530973000000003,
            "durationTicks": 384,
            "midi": 56,
            "name": "G#3",
            "ticks": 86592,
            "time": 119.73441150000001,
            "velocity": 0.09448818897637795
          },
          {
            "duration": 2.123891999999998,
            "durationTicks": 1536,
            "midi": 68,
            "name": "G#4",
            "ticks": 86976,
            "time": 120.26538450000001,
            "velocity": 0.09448818897637795
          },
          {
            "duration": 0.530973000000003,
            "durationTicks": 384,
            "midi": 56,
            "name": "G#3",
            "ticks": 89664,
            "time": 123.9821955,
            "velocity": 0.09448818897637795
          },
          {
            "duration": 2.123891999999998,
            "durationTicks": 1536,
            "midi": 68,
            "name": "G#4",
            "ticks": 90048,
            "time": 124.5131685,
            "velocity": 0.09448818897637795
          },
          {
            "duration": 0.5309729999999888,
            "durationTicks": 384,
            "midi": 56,
            "name": "G#3",
            "ticks": 92736,
            "time": 128.2299795,
            "velocity": 0.09448818897637795
          },
          {
            "duration": 2.123892000000012,
            "durationTicks": 1536,
            "midi": 68,
            "name": "G#4",
            "ticks": 93120,
            "time": 128.7609525,
            "velocity": 0.09448818897637795
          },
          {
            "duration": 0.5309729999999888,
            "durationTicks": 384,
            "midi": 56,
            "name": "G#3",
            "ticks": 95808,
            "time": 132.4777635,
            "velocity": 0.09448818897637795
          },
          {
            "duration": 2.123892000000012,
            "durationTicks": 1536,
            "midi": 68,
            "name": "G#4",
            "ticks": 96192,
            "time": 133.0087365,
            "velocity": 0.09448818897637795
          },
          {
            "duration": 1.3274324999999862,
            "durationTicks": 960,
            "midi": 87,
            "name": "D#6",
            "ticks": 112896,
            "time": 156.106062,
            "velocity": 0.047244094488188976
          },
          {
            "duration": 1.3274324999999862,
            "durationTicks": 960,
            "midi": 75,
            "name": "D#5",
            "ticks": 112896,
            "time": 156.106062,
            "velocity": 0.047244094488188976
          },
          {
            "duration": 0.9292027500000017,
            "durationTicks": 672,
            "midi": 89,
            "name": "F6",
            "ticks": 113856,
            "time": 157.4334945,
            "velocity": 0.047244094488188976
          },
          {
            "duration": 0.9292027500000017,
            "durationTicks": 672,
            "midi": 77,
            "name": "F5",
            "ticks": 113856,
            "time": 157.4334945,
            "velocity": 0.047244094488188976
          },
          {
            "duration": 1.9911487500000078,
            "durationTicks": 1440,
            "midi": 70,
            "name": "A#4",
            "ticks": 114624,
            "time": 158.4954405,
            "velocity": 0.047244094488188976
          },
          {
            "duration": 1.9911487500000078,
            "durationTicks": 1440,
            "midi": 82,
            "name": "A#5",
            "ticks": 114624,
            "time": 158.4954405,
            "velocity": 0.047244094488188976
          },
          {
            "duration": 0.7964595000000259,
            "durationTicks": 576,
            "midi": 73,
            "name": "C#5",
            "ticks": 117696,
            "time": 162.7432245,
            "velocity": 0.09448818897637795
          },
          {
            "duration": 0.7964595000000259,
            "durationTicks": 576,
            "midi": 85,
            "name": "C#6",
            "ticks": 117696,
            "time": 162.7432245,
            "velocity": 0.09448818897637795
          },
          {
            "duration": 0.7964595000000259,
            "durationTicks": 576,
            "midi": 58,
            "name": "A#3",
            "ticks": 117696,
            "time": 162.7432245,
            "velocity": 0.09448818897637795
          },
          {
            "duration": 0.7964595000000259,
            "durationTicks": 576,
            "midi": 61,
            "name": "C#4",
            "ticks": 117696,
            "time": 162.7432245,
            "velocity": 0.09448818897637795
          },
          {
            "duration": 2.123892000000012,
            "durationTicks": 1536,
            "midi": 68,
            "name": "G#4",
            "ticks": 117696,
            "time": 162.7432245,
            "velocity": 0.09448818897637795
          },
          {
            "duration": 0.7964595000000259,
            "durationTicks": 576,
            "midi": 54,
            "name": "F#3",
            "ticks": 117696,
            "time": 162.7432245,
            "velocity": 0.09448818897637795
          },
          {
            "duration": 0.7964595000000259,
            "durationTicks": 576,
            "midi": 61,
            "name": "C#4",
            "ticks": 117696,
            "time": 162.7432245,
            "velocity": 0.09448818897637795
          },
          {
            "duration": 0.7964595000000259,
            "durationTicks": 576,
            "midi": 58,
            "name": "A#3",
            "ticks": 117696,
            "time": 162.7432245,
            "velocity": 0.09448818897637795
          },
          {
            "duration": 0.7964594999999974,
            "durationTicks": 576,
            "midi": 60,
            "name": "C4",
            "ticks": 118272,
            "time": 163.53968400000002,
            "velocity": 0.09448818897637795
          },
          {
            "duration": 0.7964594999999974,
            "durationTicks": 576,
            "midi": 63,
            "name": "D#4",
            "ticks": 118272,
            "time": 163.53968400000002,
            "velocity": 0.09448818897637795
          },
          {
            "duration": 1.3274324999999862,
            "durationTicks": 960,
            "midi": 56,
            "name": "G#3",
            "ticks": 118272,
            "time": 163.53968400000002,
            "velocity": 0.09448818897637795
          },
          {
            "duration": 0.7964594999999974,
            "durationTicks": 576,
            "midi": 87,
            "name": "D#6",
            "ticks": 118272,
            "time": 163.53968400000002,
            "velocity": 0.09448818897637795
          },
          {
            "duration": 1.3274324999999862,
            "durationTicks": 960,
            "midi": 60,
            "name": "C4",
            "ticks": 118272,
            "time": 163.53968400000002,
            "velocity": 0.09448818897637795
          },
          {
            "duration": 0.7964594999999974,
            "durationTicks": 576,
            "midi": 75,
            "name": "D#5",
            "ticks": 118272,
            "time": 163.53968400000002,
            "velocity": 0.09448818897637795
          },
          {
            "duration": 1.3274324999999862,
            "durationTicks": 960,
            "midi": 63,
            "name": "D#4",
            "ticks": 118272,
            "time": 163.53968400000002,
            "velocity": 0.09448818897637795
          },
          {
            "duration": 0.5309729999999888,
            "durationTicks": 384,
            "midi": 56,
            "name": "G#3",
            "ticks": 118848,
            "time": 164.33614350000002,
            "velocity": 0.07086614173228346
          },
          {
            "duration": 0.5309729999999888,
            "durationTicks": 384,
            "midi": 80,
            "name": "G#5",
            "ticks": 118848,
            "time": 164.33614350000002,
            "velocity": 0.07086614173228346
          },
          {
            "duration": 0.5309729999999888,
            "durationTicks": 384,
            "midi": 68,
            "name": "G#4",
            "ticks": 118848,
            "time": 164.33614350000002,
            "velocity": 0.07086614173228346
          },
          {
            "duration": 0.5309729999999888,
            "durationTicks": 384,
            "midi": 51,
            "name": "D#3",
            "ticks": 118848,
            "time": 164.33614350000002,
            "velocity": 0.07086614173228346
          },
          {
            "duration": 0.7964594999999974,
            "durationTicks": 576,
            "midi": 75,
            "name": "D#5",
            "ticks": 119232,
            "time": 164.8671165,
            "velocity": 0.09448818897637795
          },
          {
            "duration": 0.7964594999999974,
            "durationTicks": 576,
            "midi": 60,
            "name": "C4",
            "ticks": 119232,
            "time": 164.8671165,
            "velocity": 0.09448818897637795
          },
          {
            "duration": 0.7964594999999974,
            "durationTicks": 576,
            "midi": 63,
            "name": "D#4",
            "ticks": 119232,
            "time": 164.8671165,
            "velocity": 0.09448818897637795
          },
          {
            "duration": 0.7964594999999974,
            "durationTicks": 576,
            "midi": 60,
            "name": "C4",
            "ticks": 119232,
            "time": 164.8671165,
            "velocity": 0.09448818897637795
          },
          {
            "duration": 1.5929189999999949,
            "durationTicks": 1152,
            "midi": 68,
            "name": "G#4",
            "ticks": 119232,
            "time": 164.8671165,
            "velocity": 0.09448818897637795
          },
          {
            "duration": 0.7964594999999974,
            "durationTicks": 576,
            "midi": 63,
            "name": "D#4",
            "ticks": 119232,
            "time": 164.8671165,
            "velocity": 0.09448818897637795
          },
          {
            "duration": 0.7964594999999974,
            "durationTicks": 576,
            "midi": 87,
            "name": "D#6",
            "ticks": 119232,
            "time": 164.8671165,
            "velocity": 0.09448818897637795
          },
          {
            "duration": 0.7964594999999974,
            "durationTicks": 576,
            "midi": 56,
            "name": "G#3",
            "ticks": 119232,
            "time": 164.8671165,
            "velocity": 0.09448818897637795
          },
          {
            "duration": 0.7964594999999974,
            "durationTicks": 576,
            "midi": 65,
            "name": "F4",
            "ticks": 119808,
            "time": 165.663576,
            "velocity": 0.09448818897637795
          },
          {
            "duration": 1.3274325000000147,
            "durationTicks": 960,
            "midi": 53,
            "name": "F3",
            "ticks": 119808,
            "time": 165.663576,
            "velocity": 0.09448818897637795
          },
          {
            "duration": 1.3274325000000147,
            "durationTicks": 960,
            "midi": 58,
            "name": "A#3",
            "ticks": 119808,
            "time": 165.663576,
            "velocity": 0.09448818897637795
          },
          {
            "duration": 0.7964594999999974,
            "durationTicks": 576,
            "midi": 61,
            "name": "C#4",
            "ticks": 119808,
            "time": 165.663576,
            "velocity": 0.09448818897637795
          },
          {
            "duration": 1.3274325000000147,
            "durationTicks": 960,
            "midi": 61,
            "name": "C#4",
            "ticks": 119808,
            "time": 165.663576,
            "velocity": 0.09448818897637795
          },
          {
            "duration": 0.7964594999999974,
            "durationTicks": 576,
            "midi": 77,
            "name": "F5",
            "ticks": 119808,
            "time": 165.663576,
            "velocity": 0.09448818897637795
          },
          {
            "duration": 0.7964594999999974,
            "durationTicks": 576,
            "midi": 89,
            "name": "F6",
            "ticks": 119808,
            "time": 165.663576,
            "velocity": 0.09448818897637795
          },
          {
            "duration": 0.1327432500000043,
            "durationTicks": 96,
            "midi": 92,
            "name": "G#6",
            "ticks": 120384,
            "time": 166.4600355,
            "velocity": 0.09448818897637795
          },
          {
            "duration": 0.1327432500000043,
            "durationTicks": 96,
            "midi": 80,
            "name": "G#5",
            "ticks": 120384,
            "time": 166.4600355,
            "velocity": 0.09448818897637795
          },
          {
            "duration": 0.1327432500000043,
            "durationTicks": 96,
            "midi": 90,
            "name": "F#6",
            "ticks": 120480,
            "time": 166.59277875,
            "velocity": 0.09448818897637795
          },
          {
            "duration": 0.1327432500000043,
            "durationTicks": 96,
            "midi": 78,
            "name": "F#5",
            "ticks": 120480,
            "time": 166.59277875,
            "velocity": 0.09448818897637795
          },
          {
            "duration": 0.1327432500000043,
            "durationTicks": 96,
            "midi": 89,
            "name": "F6",
            "ticks": 120576,
            "time": 166.725522,
            "velocity": 0.09448818897637795
          },
          {
            "duration": 0.1327432500000043,
            "durationTicks": 96,
            "midi": 77,
            "name": "F5",
            "ticks": 120576,
            "time": 166.725522,
            "velocity": 0.09448818897637795
          },
          {
            "duration": 0.1327432500000043,
            "durationTicks": 96,
            "midi": 73,
            "name": "C#5",
            "ticks": 120672,
            "time": 166.85826525000002,
            "velocity": 0.09448818897637795
          },
          {
            "duration": 0.1327432500000043,
            "durationTicks": 96,
            "midi": 85,
            "name": "C#6",
            "ticks": 120672,
            "time": 166.85826525000002,
            "velocity": 0.09448818897637795
          },
          {
            "duration": 0.7964594999999974,
            "durationTicks": 576,
            "midi": 61,
            "name": "C#4",
            "ticks": 120768,
            "time": 166.99100850000002,
            "velocity": 0.09448818897637795
          },
          {
            "duration": 0.7964594999999974,
            "durationTicks": 576,
            "midi": 85,
            "name": "C#6",
            "ticks": 120768,
            "time": 166.99100850000002,
            "velocity": 0.09448818897637795
          },
          {
            "duration": 0.7964594999999974,
            "durationTicks": 576,
            "midi": 58,
            "name": "A#3",
            "ticks": 120768,
            "time": 166.99100850000002,
            "velocity": 0.09448818897637795
          },
          {
            "duration": 0.7964594999999974,
            "durationTicks": 576,
            "midi": 58,
            "name": "A#3",
            "ticks": 120768,
            "time": 166.99100850000002,
            "velocity": 0.09448818897637795
          },
          {
            "duration": 0.7964594999999974,
            "durationTicks": 576,
            "midi": 73,
            "name": "C#5",
            "ticks": 120768,
            "time": 166.99100850000002,
            "velocity": 0.09448818897637795
          },
          {
            "duration": 0.7964594999999974,
            "durationTicks": 576,
            "midi": 61,
            "name": "C#4",
            "ticks": 120768,
            "time": 166.99100850000002,
            "velocity": 0.09448818897637795
          },
          {
            "duration": 0.7964594999999974,
            "durationTicks": 576,
            "midi": 54,
            "name": "F#3",
            "ticks": 120768,
            "time": 166.99100850000002,
            "velocity": 0.09448818897637795
          },
          {
            "duration": 1.3274324999999862,
            "durationTicks": 960,
            "midi": 56,
            "name": "G#3",
            "ticks": 121344,
            "time": 167.78746800000002,
            "velocity": 0.09448818897637795
          },
          {
            "duration": 0.7964594999999974,
            "durationTicks": 576,
            "midi": 63,
            "name": "D#4",
            "ticks": 121344,
            "time": 167.78746800000002,
            "velocity": 0.09448818897637795
          },
          {
            "duration": 0.7964594999999974,
            "durationTicks": 576,
            "midi": 75,
            "name": "D#5",
            "ticks": 121344,
            "time": 167.78746800000002,
            "velocity": 0.09448818897637795
          },
          {
            "duration": 1.3274324999999862,
            "durationTicks": 960,
            "midi": 63,
            "name": "D#4",
            "ticks": 121344,
            "time": 167.78746800000002,
            "velocity": 0.09448818897637795
          },
          {
            "duration": 0.7964594999999974,
            "durationTicks": 576,
            "midi": 87,
            "name": "D#6",
            "ticks": 121344,
            "time": 167.78746800000002,
            "velocity": 0.09448818897637795
          },
          {
            "duration": 0.7964594999999974,
            "durationTicks": 576,
            "midi": 60,
            "name": "C4",
            "ticks": 121344,
            "time": 167.78746800000002,
            "velocity": 0.09448818897637795
          },
          {
            "duration": 1.3274324999999862,
            "durationTicks": 960,
            "midi": 60,
            "name": "C4",
            "ticks": 121344,
            "time": 167.78746800000002,
            "velocity": 0.09448818897637795
          },
          {
            "duration": 1.3274324999999862,
            "durationTicks": 960,
            "midi": 56,
            "name": "G#3",
            "ticks": 121920,
            "time": 168.58392750000002,
            "velocity": 0.07086614173228346
          },
          {
            "duration": 1.5929189999999949,
            "durationTicks": 1152,
            "midi": 51,
            "name": "D#3",
            "ticks": 121920,
            "time": 168.58392750000002,
            "velocity": 0.07086614173228346
          },
          {
            "duration": 1.5929189999999949,
            "durationTicks": 1152,
            "midi": 68,
            "name": "G#4",
            "ticks": 121920,
            "time": 168.58392750000002,
            "velocity": 0.07086614173228346
          },
          {
            "duration": 1.5929189999999949,
            "durationTicks": 1152,
            "midi": 80,
            "name": "G#5",
            "ticks": 121920,
            "time": 168.58392750000002,
            "velocity": 0.07086614173228346
          },
          {
            "duration": 0.7964594999999974,
            "durationTicks": 576,
            "midi": 63,
            "name": "D#4",
            "ticks": 122304,
            "time": 169.1149005,
            "velocity": 0.09448818897637795
          },
          {
            "duration": 1.061946000000006,
            "durationTicks": 768,
            "midi": 56,
            "name": "G#3",
            "ticks": 122304,
            "time": 169.1149005,
            "velocity": 0.09448818897637795
          },
          {
            "duration": 0.7964594999999974,
            "durationTicks": 576,
            "midi": 60,
            "name": "C4",
            "ticks": 122304,
            "time": 169.1149005,
            "velocity": 0.09448818897637795
          },
          {
            "duration": 1.3274325000000147,
            "durationTicks": 960,
            "midi": 53,
            "name": "F3",
            "ticks": 122880,
            "time": 169.91136,
            "velocity": 0.09448818897637795
          },
          {
            "duration": 1.3274325000000147,
            "durationTicks": 960,
            "midi": 58,
            "name": "A#3",
            "ticks": 122880,
            "time": 169.91136,
            "velocity": 0.09448818897637795
          },
          {
            "duration": 1.3274325000000147,
            "durationTicks": 960,
            "midi": 61,
            "name": "C#4",
            "ticks": 122880,
            "time": 169.91136,
            "velocity": 0.09448818897637795
          },
          {
            "duration": 0.1327432500000043,
            "durationTicks": 96,
            "midi": 92,
            "name": "G#6",
            "ticks": 123456,
            "time": 170.7078195,
            "velocity": 0.09448818897637795
          },
          {
            "duration": 0.1327432500000043,
            "durationTicks": 96,
            "midi": 80,
            "name": "G#5",
            "ticks": 123456,
            "time": 170.7078195,
            "velocity": 0.09448818897637795
          },
          {
            "duration": 0.1327432500000043,
            "durationTicks": 96,
            "midi": 78,
            "name": "F#5",
            "ticks": 123552,
            "time": 170.84056275,
            "velocity": 0.09448818897637795
          },
          {
            "duration": 0.1327432500000043,
            "durationTicks": 96,
            "midi": 90,
            "name": "F#6",
            "ticks": 123552,
            "time": 170.84056275,
            "velocity": 0.09448818897637795
          },
          {
            "duration": 0.1327432500000043,
            "durationTicks": 96,
            "midi": 77,
            "name": "F5",
            "ticks": 123648,
            "time": 170.973306,
            "velocity": 0.09448818897637795
          },
          {
            "duration": 0.1327432500000043,
            "durationTicks": 96,
            "midi": 89,
            "name": "F6",
            "ticks": 123648,
            "time": 170.973306,
            "velocity": 0.09448818897637795
          },
          {
            "duration": 0.1327432500000043,
            "durationTicks": 96,
            "midi": 73,
            "name": "C#5",
            "ticks": 123744,
            "time": 171.10604925,
            "velocity": 0.09448818897637795
          },
          {
            "duration": 0.1327432500000043,
            "durationTicks": 96,
            "midi": 85,
            "name": "C#6",
            "ticks": 123744,
            "time": 171.10604925,
            "velocity": 0.09448818897637795
          },
          {
            "duration": 0.7964594999999974,
            "durationTicks": 576,
            "midi": 58,
            "name": "A#3",
            "ticks": 123840,
            "time": 171.23879250000002,
            "velocity": 0.09448818897637795
          },
          {
            "duration": 0.7964594999999974,
            "durationTicks": 576,
            "midi": 85,
            "name": "C#6",
            "ticks": 123840,
            "time": 171.23879250000002,
            "velocity": 0.09448818897637795
          },
          {
            "duration": 0.7964594999999974,
            "durationTicks": 576,
            "midi": 58,
            "name": "A#3",
            "ticks": 123840,
            "time": 171.23879250000002,
            "velocity": 0.09448818897637795
          },
          {
            "duration": 0.7964594999999974,
            "durationTicks": 576,
            "midi": 61,
            "name": "C#4",
            "ticks": 123840,
            "time": 171.23879250000002,
            "velocity": 0.09448818897637795
          },
          {
            "duration": 2.1238919999999837,
            "durationTicks": 1536,
            "midi": 68,
            "name": "G#4",
            "ticks": 123840,
            "time": 171.23879250000002,
            "velocity": 0.09448818897637795
          },
          {
            "duration": 0.7964594999999974,
            "durationTicks": 576,
            "midi": 61,
            "name": "C#4",
            "ticks": 123840,
            "time": 171.23879250000002,
            "velocity": 0.09448818897637795
          },
          {
            "duration": 0.7964594999999974,
            "durationTicks": 576,
            "midi": 54,
            "name": "F#3",
            "ticks": 123840,
            "time": 171.23879250000002,
            "velocity": 0.09448818897637795
          },
          {
            "duration": 0.7964594999999974,
            "durationTicks": 576,
            "midi": 73,
            "name": "C#5",
            "ticks": 123840,
            "time": 171.23879250000002,
            "velocity": 0.09448818897637795
          },
          {
            "duration": 0.7964594999999974,
            "durationTicks": 576,
            "midi": 63,
            "name": "D#4",
            "ticks": 124416,
            "time": 172.035252,
            "velocity": 0.09448818897637795
          },
          {
            "duration": 1.3274324999999862,
            "durationTicks": 960,
            "midi": 63,
            "name": "D#4",
            "ticks": 124416,
            "time": 172.035252,
            "velocity": 0.09448818897637795
          },
          {
            "duration": 0.7964594999999974,
            "durationTicks": 576,
            "midi": 87,
            "name": "D#6",
            "ticks": 124416,
            "time": 172.035252,
            "velocity": 0.09448818897637795
          },
          {
            "duration": 0.7964594999999974,
            "durationTicks": 576,
            "midi": 60,
            "name": "C4",
            "ticks": 124416,
            "time": 172.035252,
            "velocity": 0.09448818897637795
          },
          {
            "duration": 1.3274324999999862,
            "durationTicks": 960,
            "midi": 60,
            "name": "C4",
            "ticks": 124416,
            "time": 172.035252,
            "velocity": 0.09448818897637795
          },
          {
            "duration": 1.3274324999999862,
            "durationTicks": 960,
            "midi": 56,
            "name": "G#3",
            "ticks": 124416,
            "time": 172.035252,
            "velocity": 0.09448818897637795
          },
          {
            "duration": 0.7964594999999974,
            "durationTicks": 576,
            "midi": 75,
            "name": "D#5",
            "ticks": 124416,
            "time": 172.035252,
            "velocity": 0.09448818897637795
          },
          {
            "duration": 0.5309729999999888,
            "durationTicks": 384,
            "midi": 51,
            "name": "D#3",
            "ticks": 124992,
            "time": 172.8317115,
            "velocity": 0.07086614173228346
          },
          {
            "duration": 0.5309729999999888,
            "durationTicks": 384,
            "midi": 68,
            "name": "G#4",
            "ticks": 124992,
            "time": 172.8317115,
            "velocity": 0.07086614173228346
          },
          {
            "duration": 0.5309729999999888,
            "durationTicks": 384,
            "midi": 80,
            "name": "G#5",
            "ticks": 124992,
            "time": 172.8317115,
            "velocity": 0.07086614173228346
          },
          {
            "duration": 0.5309729999999888,
            "durationTicks": 384,
            "midi": 56,
            "name": "G#3",
            "ticks": 124992,
            "time": 172.8317115,
            "velocity": 0.07086614173228346
          },
          {
            "duration": 0.7964594999999974,
            "durationTicks": 576,
            "midi": 56,
            "name": "G#3",
            "ticks": 125376,
            "time": 173.3626845,
            "velocity": 0.09448818897637795
          },
          {
            "duration": 0.7964594999999974,
            "durationTicks": 576,
            "midi": 60,
            "name": "C4",
            "ticks": 125376,
            "time": 173.3626845,
            "velocity": 0.09448818897637795
          },
          {
            "duration": 0.7964594999999974,
            "durationTicks": 576,
            "midi": 75,
            "name": "D#5",
            "ticks": 125376,
            "time": 173.3626845,
            "velocity": 0.09448818897637795
          },
          {
            "duration": 1.5929189999999949,
            "durationTicks": 1152,
            "midi": 68,
            "name": "G#4",
            "ticks": 125376,
            "time": 173.3626845,
            "velocity": 0.09448818897637795
          },
          {
            "duration": 0.7964594999999974,
            "durationTicks": 576,
            "midi": 63,
            "name": "D#4",
            "ticks": 125376,
            "time": 173.3626845,
            "velocity": 0.09448818897637795
          },
          {
            "duration": 0.7964594999999974,
            "durationTicks": 576,
            "midi": 60,
            "name": "C4",
            "ticks": 125376,
            "time": 173.3626845,
            "velocity": 0.09448818897637795
          },
          {
            "duration": 0.7964594999999974,
            "durationTicks": 576,
            "midi": 87,
            "name": "D#6",
            "ticks": 125376,
            "time": 173.3626845,
            "velocity": 0.09448818897637795
          },
          {
            "duration": 0.7964594999999974,
            "durationTicks": 576,
            "midi": 63,
            "name": "D#4",
            "ticks": 125376,
            "time": 173.3626845,
            "velocity": 0.09448818897637795
          },
          {
            "duration": 1.3274325000000147,
            "durationTicks": 960,
            "midi": 58,
            "name": "A#3",
            "ticks": 125952,
            "time": 174.159144,
            "velocity": 0.09448818897637795
          },
          {
            "duration": 0.7964594999999974,
            "durationTicks": 576,
            "midi": 89,
            "name": "F6",
            "ticks": 125952,
            "time": 174.159144,
            "velocity": 0.09448818897637795
          },
          {
            "duration": 0.7964594999999974,
            "durationTicks": 576,
            "midi": 61,
            "name": "C#4",
            "ticks": 125952,
            "time": 174.159144,
            "velocity": 0.09448818897637795
          },
          {
            "duration": 0.7964594999999974,
            "durationTicks": 576,
            "midi": 77,
            "name": "F5",
            "ticks": 125952,
            "time": 174.159144,
            "velocity": 0.09448818897637795
          },
          {
            "duration": 0.7964594999999974,
            "durationTicks": 576,
            "midi": 65,
            "name": "F4",
            "ticks": 125952,
            "time": 174.159144,
            "velocity": 0.09448818897637795
          },
          {
            "duration": 1.3274325000000147,
            "durationTicks": 960,
            "midi": 61,
            "name": "C#4",
            "ticks": 125952,
            "time": 174.159144,
            "velocity": 0.09448818897637795
          },
          {
            "duration": 1.3274325000000147,
            "durationTicks": 960,
            "midi": 53,
            "name": "F3",
            "ticks": 125952,
            "time": 174.159144,
            "velocity": 0.09448818897637795
          },
          {
            "duration": 0.1327432500000043,
            "durationTicks": 96,
            "midi": 80,
            "name": "G#5",
            "ticks": 126528,
            "time": 174.9556035,
            "velocity": 0.09448818897637795
          },
          {
            "duration": 0.1327432500000043,
            "durationTicks": 96,
            "midi": 92,
            "name": "G#6",
            "ticks": 126528,
            "time": 174.9556035,
            "velocity": 0.09448818897637795
          },
          {
            "duration": 0.1327432500000043,
            "durationTicks": 96,
            "midi": 78,
            "name": "F#5",
            "ticks": 126624,
            "time": 175.08834675,
            "velocity": 0.09448818897637795
          },
          {
            "duration": 0.1327432500000043,
            "durationTicks": 96,
            "midi": 90,
            "name": "F#6",
            "ticks": 126624,
            "time": 175.08834675,
            "velocity": 0.09448818897637795
          },
          {
            "duration": 0.1327432500000043,
            "durationTicks": 96,
            "midi": 77,
            "name": "F5",
            "ticks": 126720,
            "time": 175.22109,
            "velocity": 0.09448818897637795
          },
          {
            "duration": 0.1327432500000043,
            "durationTicks": 96,
            "midi": 89,
            "name": "F6",
            "ticks": 126720,
            "time": 175.22109,
            "velocity": 0.09448818897637795
          },
          {
            "duration": 0.1327432500000043,
            "durationTicks": 96,
            "midi": 85,
            "name": "C#6",
            "ticks": 126816,
            "time": 175.35383325,
            "velocity": 0.09448818897637795
          },
          {
            "duration": 0.1327432500000043,
            "durationTicks": 96,
            "midi": 73,
            "name": "C#5",
            "ticks": 126816,
            "time": 175.35383325,
            "velocity": 0.09448818897637795
          },
          {
            "duration": 0.7964594999999974,
            "durationTicks": 576,
            "midi": 61,
            "name": "C#4",
            "ticks": 126912,
            "time": 175.4865765,
            "velocity": 0.09448818897637795
          },
          {
            "duration": 0.7964594999999974,
            "durationTicks": 576,
            "midi": 58,
            "name": "A#3",
            "ticks": 126912,
            "time": 175.4865765,
            "velocity": 0.09448818897637795
          },
          {
            "duration": 0.7964594999999974,
            "durationTicks": 576,
            "midi": 58,
            "name": "A#3",
            "ticks": 126912,
            "time": 175.4865765,
            "velocity": 0.09448818897637795
          },
          {
            "duration": 0.7964594999999974,
            "durationTicks": 576,
            "midi": 73,
            "name": "C#5",
            "ticks": 126912,
            "time": 175.4865765,
            "velocity": 0.09448818897637795
          },
          {
            "duration": 0.7964594999999974,
            "durationTicks": 576,
            "midi": 85,
            "name": "C#6",
            "ticks": 126912,
            "time": 175.4865765,
            "velocity": 0.09448818897637795
          },
          {
            "duration": 0.7964594999999974,
            "durationTicks": 576,
            "midi": 54,
            "name": "F#3",
            "ticks": 126912,
            "time": 175.4865765,
            "velocity": 0.09448818897637795
          },
          {
            "duration": 0.7964594999999974,
            "durationTicks": 576,
            "midi": 61,
            "name": "C#4",
            "ticks": 126912,
            "time": 175.4865765,
            "velocity": 0.09448818897637795
          },
          {
            "duration": 1.061946000000006,
            "durationTicks": 768,
            "midi": 56,
            "name": "G#3",
            "ticks": 127488,
            "time": 176.283036,
            "velocity": 0.09448818897637795
          },
          {
            "duration": 0.7964594999999974,
            "durationTicks": 576,
            "midi": 87,
            "name": "D#6",
            "ticks": 127488,
            "time": 176.283036,
            "velocity": 0.09448818897637795
          },
          {
            "duration": 0.7964594999999974,
            "durationTicks": 576,
            "midi": 63,
            "name": "D#4",
            "ticks": 127488,
            "time": 176.283036,
            "velocity": 0.09448818897637795
          },
          {
            "duration": 0.7964594999999974,
            "durationTicks": 576,
            "midi": 60,
            "name": "C4",
            "ticks": 127488,
            "time": 176.283036,
            "velocity": 0.09448818897637795
          },
          {
            "duration": 1.061946000000006,
            "durationTicks": 768,
            "midi": 60,
            "name": "C4",
            "ticks": 127488,
            "time": 176.283036,
            "velocity": 0.09448818897637795
          },
          {
            "duration": 1.061946000000006,
            "durationTicks": 768,
            "midi": 63,
            "name": "D#4",
            "ticks": 127488,
            "time": 176.283036,
            "velocity": 0.09448818897637795
          },
          {
            "duration": 0.7964594999999974,
            "durationTicks": 576,
            "midi": 75,
            "name": "D#5",
            "ticks": 127488,
            "time": 176.283036,
            "velocity": 0.09448818897637795
          },
          {
            "duration": 1.5929189999999949,
            "durationTicks": 1152,
            "midi": 68,
            "name": "G#4",
            "ticks": 128064,
            "time": 177.0794955,
            "velocity": 0.07086614173228346
          },
          {
            "duration": 1.5929189999999949,
            "durationTicks": 1152,
            "midi": 80,
            "name": "G#5",
            "ticks": 128064,
            "time": 177.0794955,
            "velocity": 0.07086614173228346
          },
          {
            "duration": 1.5929189999999949,
            "durationTicks": 1152,
            "midi": 51,
            "name": "D#3",
            "ticks": 128064,
            "time": 177.0794955,
            "velocity": 0.07086614173228346
          },
          {
            "duration": 0.7964594999999974,
            "durationTicks": 576,
            "midi": 56,
            "name": "G#3",
            "ticks": 128064,
            "time": 177.0794955,
            "velocity": 0.07086614173228346
          },
          {
            "duration": 0.7964594999999974,
            "durationTicks": 576,
            "midi": 56,
            "name": "G#3",
            "ticks": 128256,
            "time": 177.34498200000002,
            "velocity": 0.09448818897637795
          },
          {
            "duration": 0.5309729999999888,
            "durationTicks": 384,
            "midi": 60,
            "name": "C4",
            "ticks": 128256,
            "time": 177.34498200000002,
            "velocity": 0.09448818897637795
          },
          {
            "duration": 0.5309729999999888,
            "durationTicks": 384,
            "midi": 63,
            "name": "D#4",
            "ticks": 128256,
            "time": 177.34498200000002,
            "velocity": 0.09448818897637795
          },
          {
            "duration": 0.2654865000000086,
            "durationTicks": 192,
            "midi": 61,
            "name": "C#4",
            "ticks": 128640,
            "time": 177.875955,
            "velocity": 0.09448818897637795
          },
          {
            "duration": 0.7964594999999974,
            "durationTicks": 576,
            "midi": 56,
            "name": "G#3",
            "ticks": 128640,
            "time": 177.875955,
            "velocity": 0.09448818897637795
          },
          {
            "duration": 0.2654865000000086,
            "durationTicks": 192,
            "midi": 53,
            "name": "F3",
            "ticks": 128640,
            "time": 177.875955,
            "velocity": 0.09448818897637795
          },
          {
            "duration": 1.5929189999999949,
            "durationTicks": 1152,
            "midi": 56,
            "name": "G#3",
            "ticks": 128832,
            "time": 178.1414415,
            "velocity": 0.09448818897637795
          },
          {
            "duration": 1.5929189999999949,
            "durationTicks": 1152,
            "midi": 61,
            "name": "C#4",
            "ticks": 128832,
            "time": 178.1414415,
            "velocity": 0.09448818897637795
          },
          {
            "duration": 1.5929189999999949,
            "durationTicks": 1152,
            "midi": 53,
            "name": "F3",
            "ticks": 128832,
            "time": 178.1414415,
            "velocity": 0.09448818897637795
          },
          {
            "duration": 0.7964594999999974,
            "durationTicks": 576,
            "midi": 58,
            "name": "A#3",
            "ticks": 129984,
            "time": 179.7343605,
            "velocity": 0.09448818897637795
          },
          {
            "duration": 0.7964594999999974,
            "durationTicks": 576,
            "midi": 61,
            "name": "C#4",
            "ticks": 129984,
            "time": 179.7343605,
            "velocity": 0.09448818897637795
          },
          {
            "duration": 0.7964594999999974,
            "durationTicks": 576,
            "midi": 73,
            "name": "C#5",
            "ticks": 129984,
            "time": 179.7343605,
            "velocity": 0.09448818897637795
          },
          {
            "duration": 0.7964594999999974,
            "durationTicks": 576,
            "midi": 54,
            "name": "F#3",
            "ticks": 129984,
            "time": 179.7343605,
            "velocity": 0.09448818897637795
          },
          {
            "duration": 0.7964594999999974,
            "durationTicks": 576,
            "midi": 61,
            "name": "C#4",
            "ticks": 129984,
            "time": 179.7343605,
            "velocity": 0.09448818897637795
          },
          {
            "duration": 0.7964594999999974,
            "durationTicks": 576,
            "midi": 85,
            "name": "C#6",
            "ticks": 129984,
            "time": 179.7343605,
            "velocity": 0.09448818897637795
          },
          {
            "duration": 2.123892000000012,
            "durationTicks": 1536,
            "midi": 68,
            "name": "G#4",
            "ticks": 129984,
            "time": 179.7343605,
            "velocity": 0.09448818897637795
          },
          {
            "duration": 0.7964594999999974,
            "durationTicks": 576,
            "midi": 58,
            "name": "A#3",
            "ticks": 129984,
            "time": 179.7343605,
            "velocity": 0.09448818897637795
          },
          {
            "duration": 0.7964594999999974,
            "durationTicks": 576,
            "midi": 60,
            "name": "C4",
            "ticks": 130560,
            "time": 180.53082,
            "velocity": 0.09448818897637795
          },
          {
            "duration": 1.3274325000000147,
            "durationTicks": 960,
            "midi": 56,
            "name": "G#3",
            "ticks": 130560,
            "time": 180.53082,
            "velocity": 0.09448818897637795
          },
          {
            "duration": 0.7964594999999974,
            "durationTicks": 576,
            "midi": 75,
            "name": "D#5",
            "ticks": 130560,
            "time": 180.53082,
            "velocity": 0.09448818897637795
          },
          {
            "duration": 0.7964594999999974,
            "durationTicks": 576,
            "midi": 63,
            "name": "D#4",
            "ticks": 130560,
            "time": 180.53082,
            "velocity": 0.09448818897637795
          },
          {
            "duration": 1.3274325000000147,
            "durationTicks": 960,
            "midi": 63,
            "name": "D#4",
            "ticks": 130560,
            "time": 180.53082,
            "velocity": 0.09448818897637795
          },
          {
            "duration": 0.7964594999999974,
            "durationTicks": 576,
            "midi": 87,
            "name": "D#6",
            "ticks": 130560,
            "time": 180.53082,
            "velocity": 0.09448818897637795
          },
          {
            "duration": 1.3274325000000147,
            "durationTicks": 960,
            "midi": 60,
            "name": "C4",
            "ticks": 130560,
            "time": 180.53082,
            "velocity": 0.09448818897637795
          },
          {
            "duration": 0.5309730000000172,
            "durationTicks": 384,
            "midi": 51,
            "name": "D#3",
            "ticks": 131136,
            "time": 181.3272795,
            "velocity": 0.07086614173228346
          },
          {
            "duration": 0.5309730000000172,
            "durationTicks": 384,
            "midi": 68,
            "name": "G#4",
            "ticks": 131136,
            "time": 181.3272795,
            "velocity": 0.07086614173228346
          },
          {
            "duration": 0.5309730000000172,
            "durationTicks": 384,
            "midi": 56,
            "name": "G#3",
            "ticks": 131136,
            "time": 181.3272795,
            "velocity": 0.07086614173228346
          },
          {
            "duration": 0.5309730000000172,
            "durationTicks": 384,
            "midi": 80,
            "name": "G#5",
            "ticks": 131136,
            "time": 181.3272795,
            "velocity": 0.07086614173228346
          },
          {
            "duration": 0.7964594999999974,
            "durationTicks": 576,
            "midi": 63,
            "name": "D#4",
            "ticks": 131520,
            "time": 181.85825250000002,
            "velocity": 0.09448818897637795
          },
          {
            "duration": 0.7964594999999974,
            "durationTicks": 576,
            "midi": 63,
            "name": "D#4",
            "ticks": 131520,
            "time": 181.85825250000002,
            "velocity": 0.09448818897637795
          },
          {
            "duration": 0.7964594999999974,
            "durationTicks": 576,
            "midi": 75,
            "name": "D#5",
            "ticks": 131520,
            "time": 181.85825250000002,
            "velocity": 0.09448818897637795
          },
          {
            "duration": 0.7964594999999974,
            "durationTicks": 576,
            "midi": 60,
            "name": "C4",
            "ticks": 131520,
            "time": 181.85825250000002,
            "velocity": 0.09448818897637795
          },
          {
            "duration": 0.7964594999999974,
            "durationTicks": 576,
            "midi": 56,
            "name": "G#3",
            "ticks": 131520,
            "time": 181.85825250000002,
            "velocity": 0.09448818897637795
          },
          {
            "duration": 0.7964594999999974,
            "durationTicks": 576,
            "midi": 87,
            "name": "D#6",
            "ticks": 131520,
            "time": 181.85825250000002,
            "velocity": 0.09448818897637795
          },
          {
            "duration": 1.5929189999999949,
            "durationTicks": 1152,
            "midi": 68,
            "name": "G#4",
            "ticks": 131520,
            "time": 181.85825250000002,
            "velocity": 0.09448818897637795
          },
          {
            "duration": 0.7964594999999974,
            "durationTicks": 576,
            "midi": 60,
            "name": "C4",
            "ticks": 131520,
            "time": 181.85825250000002,
            "velocity": 0.09448818897637795
          },
          {
            "duration": 0.7964594999999974,
            "durationTicks": 576,
            "midi": 89,
            "name": "F6",
            "ticks": 132096,
            "time": 182.65471200000002,
            "velocity": 0.09448818897637795
          },
          {
            "duration": 0.7964594999999974,
            "durationTicks": 576,
            "midi": 77,
            "name": "F5",
            "ticks": 132096,
            "time": 182.65471200000002,
            "velocity": 0.09448818897637795
          },
          {
            "duration": 1.3274324999999862,
            "durationTicks": 960,
            "midi": 53,
            "name": "F3",
            "ticks": 132096,
            "time": 182.65471200000002,
            "velocity": 0.09448818897637795
          },
          {
            "duration": 0.7964594999999974,
            "durationTicks": 576,
            "midi": 61,
            "name": "C#4",
            "ticks": 132096,
            "time": 182.65471200000002,
            "velocity": 0.09448818897637795
          },
          {
            "duration": 1.3274324999999862,
            "durationTicks": 960,
            "midi": 58,
            "name": "A#3",
            "ticks": 132096,
            "time": 182.65471200000002,
            "velocity": 0.09448818897637795
          },
          {
            "duration": 1.3274324999999862,
            "durationTicks": 960,
            "midi": 61,
            "name": "C#4",
            "ticks": 132096,
            "time": 182.65471200000002,
            "velocity": 0.09448818897637795
          },
          {
            "duration": 0.7964594999999974,
            "durationTicks": 576,
            "midi": 65,
            "name": "F4",
            "ticks": 132096,
            "time": 182.65471200000002,
            "velocity": 0.09448818897637795
          },
          {
            "duration": 0.1327432500000043,
            "durationTicks": 96,
            "midi": 80,
            "name": "G#5",
            "ticks": 132672,
            "time": 183.45117150000002,
            "velocity": 0.09448818897637795
          },
          {
            "duration": 0.1327432500000043,
            "durationTicks": 96,
            "midi": 92,
            "name": "G#6",
            "ticks": 132672,
            "time": 183.45117150000002,
            "velocity": 0.09448818897637795
          },
          {
            "duration": 0.1327432500000043,
            "durationTicks": 96,
            "midi": 90,
            "name": "F#6",
            "ticks": 132768,
            "time": 183.58391475000002,
            "velocity": 0.09448818897637795
          },
          {
            "duration": 0.1327432500000043,
            "durationTicks": 96,
            "midi": 78,
            "name": "F#5",
            "ticks": 132768,
            "time": 183.58391475000002,
            "velocity": 0.09448818897637795
          },
          {
            "duration": 0.1327432499999759,
            "durationTicks": 96,
            "midi": 89,
            "name": "F6",
            "ticks": 132864,
            "time": 183.71665800000002,
            "velocity": 0.09448818897637795
          },
          {
            "duration": 0.1327432499999759,
            "durationTicks": 96,
            "midi": 77,
            "name": "F5",
            "ticks": 132864,
            "time": 183.71665800000002,
            "velocity": 0.09448818897637795
          },
          {
            "duration": 0.1327432500000043,
            "durationTicks": 96,
            "midi": 85,
            "name": "C#6",
            "ticks": 132960,
            "time": 183.84940125,
            "velocity": 0.09448818897637795
          },
          {
            "duration": 0.1327432500000043,
            "durationTicks": 96,
            "midi": 73,
            "name": "C#5",
            "ticks": 132960,
            "time": 183.84940125,
            "velocity": 0.09448818897637795
          },
          {
            "duration": 0.7964594999999974,
            "durationTicks": 576,
            "midi": 85,
            "name": "C#6",
            "ticks": 133056,
            "time": 183.9821445,
            "velocity": 0.09448818897637795
          },
          {
            "duration": 0.7964594999999974,
            "durationTicks": 576,
            "midi": 61,
            "name": "C#4",
            "ticks": 133056,
            "time": 183.9821445,
            "velocity": 0.09448818897637795
          },
          {
            "duration": 0.7964594999999974,
            "durationTicks": 576,
            "midi": 58,
            "name": "A#3",
            "ticks": 133056,
            "time": 183.9821445,
            "velocity": 0.09448818897637795
          },
          {
            "duration": 0.7964594999999974,
            "durationTicks": 576,
            "midi": 61,
            "name": "C#4",
            "ticks": 133056,
            "time": 183.9821445,
            "velocity": 0.09448818897637795
          },
          {
            "duration": 0.7964594999999974,
            "durationTicks": 576,
            "midi": 58,
            "name": "A#3",
            "ticks": 133056,
            "time": 183.9821445,
            "velocity": 0.09448818897637795
          },
          {
            "duration": 0.7964594999999974,
            "durationTicks": 576,
            "midi": 54,
            "name": "F#3",
            "ticks": 133056,
            "time": 183.9821445,
            "velocity": 0.09448818897637795
          },
          {
            "duration": 0.7964594999999974,
            "durationTicks": 576,
            "midi": 73,
            "name": "C#5",
            "ticks": 133056,
            "time": 183.9821445,
            "velocity": 0.09448818897637795
          },
          {
            "duration": 0.7964594999999974,
            "durationTicks": 576,
            "midi": 60,
            "name": "C4",
            "ticks": 133632,
            "time": 184.778604,
            "velocity": 0.09448818897637795
          },
          {
            "duration": 0.7964594999999974,
            "durationTicks": 576,
            "midi": 63,
            "name": "D#4",
            "ticks": 133632,
            "time": 184.778604,
            "velocity": 0.09448818897637795
          },
          {
            "duration": 1.3274325000000147,
            "durationTicks": 960,
            "midi": 56,
            "name": "G#3",
            "ticks": 133632,
            "time": 184.778604,
            "velocity": 0.09448818897637795
          },
          {
            "duration": 0.7964594999999974,
            "durationTicks": 576,
            "midi": 87,
            "name": "D#6",
            "ticks": 133632,
            "time": 184.778604,
            "velocity": 0.09448818897637795
          },
          {
            "duration": 1.3274325000000147,
            "durationTicks": 960,
            "midi": 60,
            "name": "C4",
            "ticks": 133632,
            "time": 184.778604,
            "velocity": 0.09448818897637795
          },
          {
            "duration": 1.3274325000000147,
            "durationTicks": 960,
            "midi": 63,
            "name": "D#4",
            "ticks": 133632,
            "time": 184.778604,
            "velocity": 0.09448818897637795
          },
          {
            "duration": 0.7964594999999974,
            "durationTicks": 576,
            "midi": 75,
            "name": "D#5",
            "ticks": 133632,
            "time": 184.778604,
            "velocity": 0.09448818897637795
          },
          {
            "duration": 1.5929190000000233,
            "durationTicks": 1152,
            "midi": 80,
            "name": "G#5",
            "ticks": 134208,
            "time": 185.5750635,
            "velocity": 0.07086614173228346
          },
          {
            "duration": 1.3274325000000147,
            "durationTicks": 960,
            "midi": 56,
            "name": "G#3",
            "ticks": 134208,
            "time": 185.5750635,
            "velocity": 0.07086614173228346
          },
          {
            "duration": 1.5929190000000233,
            "durationTicks": 1152,
            "midi": 68,
            "name": "G#4",
            "ticks": 134208,
            "time": 185.5750635,
            "velocity": 0.07086614173228346
          },
          {
            "duration": 1.5929190000000233,
            "durationTicks": 1152,
            "midi": 51,
            "name": "D#3",
            "ticks": 134208,
            "time": 185.5750635,
            "velocity": 0.07086614173228346
          },
          {
            "duration": 0.7964594999999974,
            "durationTicks": 576,
            "midi": 60,
            "name": "C4",
            "ticks": 134592,
            "time": 186.10603650000002,
            "velocity": 0.09448818897637795
          },
          {
            "duration": 0.7964594999999974,
            "durationTicks": 576,
            "midi": 63,
            "name": "D#4",
            "ticks": 134592,
            "time": 186.10603650000002,
            "velocity": 0.09448818897637795
          },
          {
            "duration": 1.061946000000006,
            "durationTicks": 768,
            "midi": 56,
            "name": "G#3",
            "ticks": 134592,
            "time": 186.10603650000002,
            "velocity": 0.09448818897637795
          },
          {
            "duration": 1.3274324999999862,
            "durationTicks": 960,
            "midi": 61,
            "name": "C#4",
            "ticks": 135168,
            "time": 186.902496,
            "velocity": 0.09448818897637795
          },
          {
            "duration": 1.3274324999999862,
            "durationTicks": 960,
            "midi": 53,
            "name": "F3",
            "ticks": 135168,
            "time": 186.902496,
            "velocity": 0.09448818897637795
          },
          {
            "duration": 1.3274324999999862,
            "durationTicks": 960,
            "midi": 58,
            "name": "A#3",
            "ticks": 135168,
            "time": 186.902496,
            "velocity": 0.09448818897637795
          },
          {
            "duration": 0.1327432500000043,
            "durationTicks": 96,
            "midi": 92,
            "name": "G#6",
            "ticks": 135744,
            "time": 187.6989555,
            "velocity": 0.09448818897637795
          },
          {
            "duration": 0.1327432500000043,
            "durationTicks": 96,
            "midi": 80,
            "name": "G#5",
            "ticks": 135744,
            "time": 187.6989555,
            "velocity": 0.09448818897637795
          },
          {
            "duration": 0.1327432500000043,
            "durationTicks": 96,
            "midi": 90,
            "name": "F#6",
            "ticks": 135840,
            "time": 187.83169875000002,
            "velocity": 0.09448818897637795
          },
          {
            "duration": 0.1327432500000043,
            "durationTicks": 96,
            "midi": 78,
            "name": "F#5",
            "ticks": 135840,
            "time": 187.83169875000002,
            "velocity": 0.09448818897637795
          },
          {
            "duration": 0.1327432500000043,
            "durationTicks": 96,
            "midi": 89,
            "name": "F6",
            "ticks": 135936,
            "time": 187.96444200000002,
            "velocity": 0.09448818897637795
          },
          {
            "duration": 0.1327432500000043,
            "durationTicks": 96,
            "midi": 77,
            "name": "F5",
            "ticks": 135936,
            "time": 187.96444200000002,
            "velocity": 0.09448818897637795
          },
          {
            "duration": 0.1327432499999759,
            "durationTicks": 96,
            "midi": 73,
            "name": "C#5",
            "ticks": 136032,
            "time": 188.09718525000002,
            "velocity": 0.09448818897637795
          },
          {
            "duration": 0.1327432499999759,
            "durationTicks": 96,
            "midi": 85,
            "name": "C#6",
            "ticks": 136032,
            "time": 188.09718525000002,
            "velocity": 0.09448818897637795
          },
          {
            "duration": 0.7964594999999974,
            "durationTicks": 576,
            "midi": 54,
            "name": "F#3",
            "ticks": 136128,
            "time": 188.2299285,
            "velocity": 0.09448818897637795
          },
          {
            "duration": 0.7964594999999974,
            "durationTicks": 576,
            "midi": 58,
            "name": "A#3",
            "ticks": 136128,
            "time": 188.2299285,
            "velocity": 0.09448818897637795
          },
          {
            "duration": 0.7964594999999974,
            "durationTicks": 576,
            "midi": 61,
            "name": "C#4",
            "ticks": 136128,
            "time": 188.2299285,
            "velocity": 0.09448818897637795
          },
          {
            "duration": 0.7964594999999974,
            "durationTicks": 576,
            "midi": 73,
            "name": "C#5",
            "ticks": 136128,
            "time": 188.2299285,
            "velocity": 0.09448818897637795
          },
          {
            "duration": 0.7964594999999974,
            "durationTicks": 576,
            "midi": 85,
            "name": "C#6",
            "ticks": 136128,
            "time": 188.2299285,
            "velocity": 0.09448818897637795
          },
          {
            "duration": 0.7964594999999974,
            "durationTicks": 576,
            "midi": 61,
            "name": "C#4",
            "ticks": 136128,
            "time": 188.2299285,
            "velocity": 0.09448818897637795
          },
          {
            "duration": 0.7964594999999974,
            "durationTicks": 576,
            "midi": 58,
            "name": "A#3",
            "ticks": 136128,
            "time": 188.2299285,
            "velocity": 0.09448818897637795
          },
          {
            "duration": 2.123892000000012,
            "durationTicks": 1536,
            "midi": 68,
            "name": "G#4",
            "ticks": 136128,
            "time": 188.2299285,
            "velocity": 0.09448818897637795
          },
          {
            "duration": 0.7964595000000259,
            "durationTicks": 576,
            "midi": 63,
            "name": "D#4",
            "ticks": 136704,
            "time": 189.026388,
            "velocity": 0.09448818897637795
          },
          {
            "duration": 0.7964595000000259,
            "durationTicks": 576,
            "midi": 87,
            "name": "D#6",
            "ticks": 136704,
            "time": 189.026388,
            "velocity": 0.09448818897637795
          },
          {
            "duration": 0.7964595000000259,
            "durationTicks": 576,
            "midi": 60,
            "name": "C4",
            "ticks": 136704,
            "time": 189.026388,
            "velocity": 0.09448818897637795
          },
          {
            "duration": 1.3274325000000147,
            "durationTicks": 960,
            "midi": 56,
            "name": "G#3",
            "ticks": 136704,
            "time": 189.026388,
            "velocity": 0.09448818897637795
          },
          {
            "duration": 1.3274325000000147,
            "durationTicks": 960,
            "midi": 63,
            "name": "D#4",
            "ticks": 136704,
            "time": 189.026388,
            "velocity": 0.09448818897637795
          },
          {
            "duration": 0.7964595000000259,
            "durationTicks": 576,
            "midi": 75,
            "name": "D#5",
            "ticks": 136704,
            "time": 189.026388,
            "velocity": 0.09448818897637795
          },
          {
            "duration": 1.3274325000000147,
            "durationTicks": 960,
            "midi": 60,
            "name": "C4",
            "ticks": 136704,
            "time": 189.026388,
            "velocity": 0.09448818897637795
          },
          {
            "duration": 0.5309729999999888,
            "durationTicks": 384,
            "midi": 80,
            "name": "G#5",
            "ticks": 137280,
            "time": 189.82284750000002,
            "velocity": 0.07086614173228346
          },
          {
            "duration": 0.5309729999999888,
            "durationTicks": 384,
            "midi": 68,
            "name": "G#4",
            "ticks": 137280,
            "time": 189.82284750000002,
            "velocity": 0.07086614173228346
          },
          {
            "duration": 0.5309729999999888,
            "durationTicks": 384,
            "midi": 56,
            "name": "G#3",
            "ticks": 137280,
            "time": 189.82284750000002,
            "velocity": 0.07086614173228346
          },
          {
            "duration": 0.5309729999999888,
            "durationTicks": 384,
            "midi": 51,
            "name": "D#3",
            "ticks": 137280,
            "time": 189.82284750000002,
            "velocity": 0.07086614173228346
          },
          {
            "duration": 0.7964594999999974,
            "durationTicks": 576,
            "midi": 87,
            "name": "D#6",
            "ticks": 137664,
            "time": 190.3538205,
            "velocity": 0.09448818897637795
          },
          {
            "duration": 1.5929189999999949,
            "durationTicks": 1152,
            "midi": 68,
            "name": "G#4",
            "ticks": 137664,
            "time": 190.3538205,
            "velocity": 0.09448818897637795
          },
          {
            "duration": 0.7964594999999974,
            "durationTicks": 576,
            "midi": 63,
            "name": "D#4",
            "ticks": 137664,
            "time": 190.3538205,
            "velocity": 0.09448818897637795
          },
          {
            "duration": 0.7964594999999974,
            "durationTicks": 576,
            "midi": 60,
            "name": "C4",
            "ticks": 137664,
            "time": 190.3538205,
            "velocity": 0.09448818897637795
          },
          {
            "duration": 0.7964594999999974,
            "durationTicks": 576,
            "midi": 63,
            "name": "D#4",
            "ticks": 137664,
            "time": 190.3538205,
            "velocity": 0.09448818897637795
          },
          {
            "duration": 0.7964594999999974,
            "durationTicks": 576,
            "midi": 56,
            "name": "G#3",
            "ticks": 137664,
            "time": 190.3538205,
            "velocity": 0.09448818897637795
          },
          {
            "duration": 0.7964594999999974,
            "durationTicks": 576,
            "midi": 60,
            "name": "C4",
            "ticks": 137664,
            "time": 190.3538205,
            "velocity": 0.09448818897637795
          },
          {
            "duration": 0.7964594999999974,
            "durationTicks": 576,
            "midi": 75,
            "name": "D#5",
            "ticks": 137664,
            "time": 190.3538205,
            "velocity": 0.09448818897637795
          },
          {
            "duration": 0.7964594999999974,
            "durationTicks": 576,
            "midi": 89,
            "name": "F6",
            "ticks": 138240,
            "time": 191.15028,
            "velocity": 0.09448818897637795
          },
          {
            "duration": 0.7964594999999974,
            "durationTicks": 576,
            "midi": 77,
            "name": "F5",
            "ticks": 138240,
            "time": 191.15028,
            "velocity": 0.09448818897637795
          },
          {
            "duration": 0.7964594999999974,
            "durationTicks": 576,
            "midi": 61,
            "name": "C#4",
            "ticks": 138240,
            "time": 191.15028,
            "velocity": 0.09448818897637795
          },
          {
            "duration": 0.7964594999999974,
            "durationTicks": 576,
            "midi": 65,
            "name": "F4",
            "ticks": 138240,
            "time": 191.15028,
            "velocity": 0.09448818897637795
          },
          {
            "duration": 1.3274325000000147,
            "durationTicks": 960,
            "midi": 53,
            "name": "F3",
            "ticks": 138240,
            "time": 191.15028,
            "velocity": 0.09448818897637795
          },
          {
            "duration": 1.3274325000000147,
            "durationTicks": 960,
            "midi": 61,
            "name": "C#4",
            "ticks": 138240,
            "time": 191.15028,
            "velocity": 0.09448818897637795
          },
          {
            "duration": 1.3274325000000147,
            "durationTicks": 960,
            "midi": 58,
            "name": "A#3",
            "ticks": 138240,
            "time": 191.15028,
            "velocity": 0.09448818897637795
          },
          {
            "duration": 0.1327432500000043,
            "durationTicks": 96,
            "midi": 92,
            "name": "G#6",
            "ticks": 138816,
            "time": 191.9467395,
            "velocity": 0.09448818897637795
          },
          {
            "duration": 0.1327432500000043,
            "durationTicks": 96,
            "midi": 80,
            "name": "G#5",
            "ticks": 138816,
            "time": 191.9467395,
            "velocity": 0.09448818897637795
          },
          {
            "duration": 0.1327432500000043,
            "durationTicks": 96,
            "midi": 90,
            "name": "F#6",
            "ticks": 138912,
            "time": 192.07948275,
            "velocity": 0.09448818897637795
          },
          {
            "duration": 0.1327432500000043,
            "durationTicks": 96,
            "midi": 78,
            "name": "F#5",
            "ticks": 138912,
            "time": 192.07948275,
            "velocity": 0.09448818897637795
          },
          {
            "duration": 0.1327432500000043,
            "durationTicks": 96,
            "midi": 89,
            "name": "F6",
            "ticks": 139008,
            "time": 192.21222600000002,
            "velocity": 0.09448818897637795
          },
          {
            "duration": 0.1327432500000043,
            "durationTicks": 96,
            "midi": 77,
            "name": "F5",
            "ticks": 139008,
            "time": 192.21222600000002,
            "velocity": 0.09448818897637795
          },
          {
            "duration": 0.1327432500000043,
            "durationTicks": 96,
            "midi": 85,
            "name": "C#6",
            "ticks": 139104,
            "time": 192.34496925000002,
            "velocity": 0.09448818897637795
          },
          {
            "duration": 0.1327432500000043,
            "durationTicks": 96,
            "midi": 73,
            "name": "C#5",
            "ticks": 139104,
            "time": 192.34496925000002,
            "velocity": 0.09448818897637795
          },
          {
            "duration": 0.7964594999999974,
            "durationTicks": 576,
            "midi": 58,
            "name": "A#3",
            "ticks": 139200,
            "time": 192.47771250000002,
            "velocity": 0.09448818897637795
          },
          {
            "duration": 0.7964594999999974,
            "durationTicks": 576,
            "midi": 61,
            "name": "C#4",
            "ticks": 139200,
            "time": 192.47771250000002,
            "velocity": 0.09448818897637795
          },
          {
            "duration": 0.7964594999999974,
            "durationTicks": 576,
            "midi": 61,
            "name": "C#4",
            "ticks": 139200,
            "time": 192.47771250000002,
            "velocity": 0.09448818897637795
          },
          {
            "duration": 0.7964594999999974,
            "durationTicks": 576,
            "midi": 73,
            "name": "C#5",
            "ticks": 139200,
            "time": 192.47771250000002,
            "velocity": 0.09448818897637795
          },
          {
            "duration": 0.7964594999999974,
            "durationTicks": 576,
            "midi": 58,
            "name": "A#3",
            "ticks": 139200,
            "time": 192.47771250000002,
            "velocity": 0.09448818897637795
          },
          {
            "duration": 0.7964594999999974,
            "durationTicks": 576,
            "midi": 54,
            "name": "F#3",
            "ticks": 139200,
            "time": 192.47771250000002,
            "velocity": 0.09448818897637795
          },
          {
            "duration": 0.7964594999999974,
            "durationTicks": 576,
            "midi": 85,
            "name": "C#6",
            "ticks": 139200,
            "time": 192.47771250000002,
            "velocity": 0.09448818897637795
          },
          {
            "duration": 0.7964594999999974,
            "durationTicks": 576,
            "midi": 75,
            "name": "D#5",
            "ticks": 139776,
            "time": 193.27417200000002,
            "velocity": 0.09448818897637795
          },
          {
            "duration": 0.7964594999999974,
            "durationTicks": 576,
            "midi": 87,
            "name": "D#6",
            "ticks": 139776,
            "time": 193.27417200000002,
            "velocity": 0.09448818897637795
          },
          {
            "duration": 1.0619459999999776,
            "durationTicks": 768,
            "midi": 56,
            "name": "G#3",
            "ticks": 139776,
            "time": 193.27417200000002,
            "velocity": 0.09448818897637795
          },
          {
            "duration": 0.7964594999999974,
            "durationTicks": 576,
            "midi": 60,
            "name": "C4",
            "ticks": 139776,
            "time": 193.27417200000002,
            "velocity": 0.09448818897637795
          },
          {
            "duration": 1.0619459999999776,
            "durationTicks": 768,
            "midi": 60,
            "name": "C4",
            "ticks": 139776,
            "time": 193.27417200000002,
            "velocity": 0.09448818897637795
          },
          {
            "duration": 0.7964594999999974,
            "durationTicks": 576,
            "midi": 63,
            "name": "D#4",
            "ticks": 139776,
            "time": 193.27417200000002,
            "velocity": 0.09448818897637795
          },
          {
            "duration": 1.0619459999999776,
            "durationTicks": 768,
            "midi": 63,
            "name": "D#4",
            "ticks": 139776,
            "time": 193.27417200000002,
            "velocity": 0.09448818897637795
          },
          {
            "duration": 0.7964594999999974,
            "durationTicks": 576,
            "midi": 56,
            "name": "G#3",
            "ticks": 140352,
            "time": 194.07063150000002,
            "velocity": 0.07086614173228346
          },
          {
            "duration": 1.5929189999999949,
            "durationTicks": 1152,
            "midi": 68,
            "name": "G#4",
            "ticks": 140352,
            "time": 194.07063150000002,
            "velocity": 0.07086614173228346
          },
          {
            "duration": 1.5929189999999949,
            "durationTicks": 1152,
            "midi": 51,
            "name": "D#3",
            "ticks": 140352,
            "time": 194.07063150000002,
            "velocity": 0.07086614173228346
          },
          {
            "duration": 1.5929189999999949,
            "durationTicks": 1152,
            "midi": 80,
            "name": "G#5",
            "ticks": 140352,
            "time": 194.07063150000002,
            "velocity": 0.07086614173228346
          },
          {
            "duration": 0.5309730000000172,
            "durationTicks": 384,
            "midi": 63,
            "name": "D#4",
            "ticks": 140544,
            "time": 194.336118,
            "velocity": 0.09448818897637795
          },
          {
            "duration": 0.7964594999999974,
            "durationTicks": 576,
            "midi": 56,
            "name": "G#3",
            "ticks": 140544,
            "time": 194.336118,
            "velocity": 0.09448818897637795
          },
          {
            "duration": 0.5309730000000172,
            "durationTicks": 384,
            "midi": 60,
            "name": "C4",
            "ticks": 140544,
            "time": 194.336118,
            "velocity": 0.09448818897637795
          },
          {
            "duration": 0.2654864999999802,
            "durationTicks": 192,
            "midi": 61,
            "name": "C#4",
            "ticks": 140928,
            "time": 194.86709100000002,
            "velocity": 0.09448818897637795
          },
          {
            "duration": 0.7964594999999974,
            "durationTicks": 576,
            "midi": 56,
            "name": "G#3",
            "ticks": 140928,
            "time": 194.86709100000002,
            "velocity": 0.09448818897637795
          },
          {
            "duration": 0.2654864999999802,
            "durationTicks": 192,
            "midi": 53,
            "name": "F3",
            "ticks": 140928,
            "time": 194.86709100000002,
            "velocity": 0.09448818897637795
          },
          {
            "duration": 1.5929190000000233,
            "durationTicks": 1152,
            "midi": 56,
            "name": "G#3",
            "ticks": 141120,
            "time": 195.1325775,
            "velocity": 0.09448818897637795
          },
          {
            "duration": 1.5929190000000233,
            "durationTicks": 1152,
            "midi": 53,
            "name": "F3",
            "ticks": 141120,
            "time": 195.1325775,
            "velocity": 0.09448818897637795
          },
          {
            "duration": 1.5929190000000233,
            "durationTicks": 1152,
            "midi": 61,
            "name": "C#4",
            "ticks": 141120,
            "time": 195.1325775,
            "velocity": 0.09448818897637795
          },
          {
            "duration": 2.1238919999999837,
            "durationTicks": 1536,
            "midi": 68,
            "name": "G#4",
            "ticks": 142272,
            "time": 196.72549650000002,
            "velocity": 0.09448818897637795
          },
          {
            "duration": 0.7964594999999974,
            "durationTicks": 576,
            "midi": 61,
            "name": "C#4",
            "ticks": 142272,
            "time": 196.72549650000002,
            "velocity": 0.09448818897637795
          },
          {
            "duration": 0.7964594999999974,
            "durationTicks": 576,
            "midi": 58,
            "name": "A#3",
            "ticks": 142272,
            "time": 196.72549650000002,
            "velocity": 0.09448818897637795
          },
          {
            "duration": 0.7964594999999974,
            "durationTicks": 576,
            "midi": 85,
            "name": "C#6",
            "ticks": 142272,
            "time": 196.72549650000002,
            "velocity": 0.09448818897637795
          },
          {
            "duration": 0.7964594999999974,
            "durationTicks": 576,
            "midi": 58,
            "name": "A#3",
            "ticks": 142272,
            "time": 196.72549650000002,
            "velocity": 0.09448818897637795
          },
          {
            "duration": 0.7964594999999974,
            "durationTicks": 576,
            "midi": 61,
            "name": "C#4",
            "ticks": 142272,
            "time": 196.72549650000002,
            "velocity": 0.09448818897637795
          },
          {
            "duration": 0.7964594999999974,
            "durationTicks": 576,
            "midi": 73,
            "name": "C#5",
            "ticks": 142272,
            "time": 196.72549650000002,
            "velocity": 0.09448818897637795
          },
          {
            "duration": 0.7964594999999974,
            "durationTicks": 576,
            "midi": 54,
            "name": "F#3",
            "ticks": 142272,
            "time": 196.72549650000002,
            "velocity": 0.09448818897637795
          },
          {
            "duration": 0.7964594999999974,
            "durationTicks": 576,
            "midi": 75,
            "name": "D#5",
            "ticks": 142848,
            "time": 197.52195600000002,
            "velocity": 0.09448818897637795
          },
          {
            "duration": 0.7964594999999974,
            "durationTicks": 576,
            "midi": 63,
            "name": "D#4",
            "ticks": 142848,
            "time": 197.52195600000002,
            "velocity": 0.09448818897637795
          },
          {
            "duration": 0.7964594999999974,
            "durationTicks": 576,
            "midi": 87,
            "name": "D#6",
            "ticks": 142848,
            "time": 197.52195600000002,
            "velocity": 0.09448818897637795
          },
          {
            "duration": 0.7964594999999974,
            "durationTicks": 576,
            "midi": 60,
            "name": "C4",
            "ticks": 142848,
            "time": 197.52195600000002,
            "velocity": 0.09448818897637795
          },
          {
            "duration": 1.3274324999999862,
            "durationTicks": 960,
            "midi": 56,
            "name": "G#3",
            "ticks": 142848,
            "time": 197.52195600000002,
            "velocity": 0.09448818897637795
          },
          {
            "duration": 1.3274324999999862,
            "durationTicks": 960,
            "midi": 63,
            "name": "D#4",
            "ticks": 142848,
            "time": 197.52195600000002,
            "velocity": 0.09448818897637795
          },
          {
            "duration": 1.3274324999999862,
            "durationTicks": 960,
            "midi": 60,
            "name": "C4",
            "ticks": 142848,
            "time": 197.52195600000002,
            "velocity": 0.09448818897637795
          },
          {
            "duration": 0.5309729999999888,
            "durationTicks": 384,
            "midi": 80,
            "name": "G#5",
            "ticks": 143424,
            "time": 198.31841550000001,
            "velocity": 0.07086614173228346
          },
          {
            "duration": 0.5309729999999888,
            "durationTicks": 384,
            "midi": 51,
            "name": "D#3",
            "ticks": 143424,
            "time": 198.31841550000001,
            "velocity": 0.07086614173228346
          },
          {
            "duration": 0.5309729999999888,
            "durationTicks": 384,
            "midi": 68,
            "name": "G#4",
            "ticks": 143424,
            "time": 198.31841550000001,
            "velocity": 0.07086614173228346
          },
          {
            "duration": 0.5309729999999888,
            "durationTicks": 384,
            "midi": 56,
            "name": "G#3",
            "ticks": 143424,
            "time": 198.31841550000001,
            "velocity": 0.07086614173228346
          },
          {
            "duration": 0.7964594999999974,
            "durationTicks": 576,
            "midi": 56,
            "name": "G#3",
            "ticks": 143808,
            "time": 198.8493885,
            "velocity": 0.09448818897637795
          },
          {
            "duration": 1.5929189999999949,
            "durationTicks": 1152,
            "midi": 68,
            "name": "G#4",
            "ticks": 143808,
            "time": 198.8493885,
            "velocity": 0.09448818897637795
          },
          {
            "duration": 0.7964594999999974,
            "durationTicks": 576,
            "midi": 87,
            "name": "D#6",
            "ticks": 143808,
            "time": 198.8493885,
            "velocity": 0.09448818897637795
          },
          {
            "duration": 0.7964594999999974,
            "durationTicks": 576,
            "midi": 63,
            "name": "D#4",
            "ticks": 143808,
            "time": 198.8493885,
            "velocity": 0.09448818897637795
          },
          {
            "duration": 0.7964594999999974,
            "durationTicks": 576,
            "midi": 75,
            "name": "D#5",
            "ticks": 143808,
            "time": 198.8493885,
            "velocity": 0.09448818897637795
          },
          {
            "duration": 0.7964594999999974,
            "durationTicks": 576,
            "midi": 63,
            "name": "D#4",
            "ticks": 143808,
            "time": 198.8493885,
            "velocity": 0.09448818897637795
          },
          {
            "duration": 0.7964594999999974,
            "durationTicks": 576,
            "midi": 60,
            "name": "C4",
            "ticks": 143808,
            "time": 198.8493885,
            "velocity": 0.09448818897637795
          },
          {
            "duration": 0.7964594999999974,
            "durationTicks": 576,
            "midi": 60,
            "name": "C4",
            "ticks": 143808,
            "time": 198.8493885,
            "velocity": 0.09448818897637795
          },
          {
            "duration": 0.7964594999999974,
            "durationTicks": 576,
            "midi": 77,
            "name": "F5",
            "ticks": 144384,
            "time": 199.645848,
            "velocity": 0.09448818897637795
          },
          {
            "duration": 0.7964594999999974,
            "durationTicks": 576,
            "midi": 61,
            "name": "C#4",
            "ticks": 144384,
            "time": 199.645848,
            "velocity": 0.09448818897637795
          },
          {
            "duration": 1.3274325000000147,
            "durationTicks": 960,
            "midi": 58,
            "name": "A#3",
            "ticks": 144384,
            "time": 199.645848,
            "velocity": 0.09448818897637795
          },
          {
            "duration": 0.7964594999999974,
            "durationTicks": 576,
            "midi": 89,
            "name": "F6",
            "ticks": 144384,
            "time": 199.645848,
            "velocity": 0.09448818897637795
          },
          {
            "duration": 1.3274325000000147,
            "durationTicks": 960,
            "midi": 53,
            "name": "F3",
            "ticks": 144384,
            "time": 199.645848,
            "velocity": 0.09448818897637795
          },
          {
            "duration": 0.7964594999999974,
            "durationTicks": 576,
            "midi": 65,
            "name": "F4",
            "ticks": 144384,
            "time": 199.645848,
            "velocity": 0.09448818897637795
          },
          {
            "duration": 1.3274325000000147,
            "durationTicks": 960,
            "midi": 61,
            "name": "C#4",
            "ticks": 144384,
            "time": 199.645848,
            "velocity": 0.09448818897637795
          },
          {
            "duration": 0.1327432500000043,
            "durationTicks": 96,
            "midi": 80,
            "name": "G#5",
            "ticks": 144960,
            "time": 200.4423075,
            "velocity": 0.09448818897637795
          },
          {
            "duration": 0.1327432500000043,
            "durationTicks": 96,
            "midi": 92,
            "name": "G#6",
            "ticks": 144960,
            "time": 200.4423075,
            "velocity": 0.09448818897637795
          },
          {
            "duration": 0.1327432500000043,
            "durationTicks": 96,
            "midi": 78,
            "name": "F#5",
            "ticks": 145056,
            "time": 200.57505075,
            "velocity": 0.09448818897637795
          },
          {
            "duration": 0.1327432500000043,
            "durationTicks": 96,
            "midi": 90,
            "name": "F#6",
            "ticks": 145056,
            "time": 200.57505075,
            "velocity": 0.09448818897637795
          },
          {
            "duration": 0.1327432500000043,
            "durationTicks": 96,
            "midi": 77,
            "name": "F5",
            "ticks": 145152,
            "time": 200.707794,
            "velocity": 0.09448818897637795
          },
          {
            "duration": 0.1327432500000043,
            "durationTicks": 96,
            "midi": 89,
            "name": "F6",
            "ticks": 145152,
            "time": 200.707794,
            "velocity": 0.09448818897637795
          },
          {
            "duration": 0.1327432500000043,
            "durationTicks": 96,
            "midi": 73,
            "name": "C#5",
            "ticks": 145248,
            "time": 200.84053725,
            "velocity": 0.09448818897637795
          },
          {
            "duration": 0.1327432500000043,
            "durationTicks": 96,
            "midi": 85,
            "name": "C#6",
            "ticks": 145248,
            "time": 200.84053725,
            "velocity": 0.09448818897637795
          },
          {
            "duration": 0.7964594999999974,
            "durationTicks": 576,
            "midi": 73,
            "name": "C#5",
            "ticks": 145344,
            "time": 200.97328050000002,
            "velocity": 0.09448818897637795
          },
          {
            "duration": 0.7964594999999974,
            "durationTicks": 576,
            "midi": 58,
            "name": "A#3",
            "ticks": 145344,
            "time": 200.97328050000002,
            "velocity": 0.09448818897637795
          },
          {
            "duration": 0.7964594999999974,
            "durationTicks": 576,
            "midi": 58,
            "name": "A#3",
            "ticks": 145344,
            "time": 200.97328050000002,
            "velocity": 0.09448818897637795
          },
          {
            "duration": 0.7964594999999974,
            "durationTicks": 576,
            "midi": 85,
            "name": "C#6",
            "ticks": 145344,
            "time": 200.97328050000002,
            "velocity": 0.09448818897637795
          },
          {
            "duration": 0.7964594999999974,
            "durationTicks": 576,
            "midi": 61,
            "name": "C#4",
            "ticks": 145344,
            "time": 200.97328050000002,
            "velocity": 0.09448818897637795
          },
          {
            "duration": 0.7964594999999974,
            "durationTicks": 576,
            "midi": 54,
            "name": "F#3",
            "ticks": 145344,
            "time": 200.97328050000002,
            "velocity": 0.09448818897637795
          },
          {
            "duration": 0.7964594999999974,
            "durationTicks": 576,
            "midi": 61,
            "name": "C#4",
            "ticks": 145344,
            "time": 200.97328050000002,
            "velocity": 0.09448818897637795
          },
          {
            "duration": 1.3274324999999862,
            "durationTicks": 960,
            "midi": 56,
            "name": "G#3",
            "ticks": 145920,
            "time": 201.76974,
            "velocity": 0.09448818897637795
          },
          {
            "duration": 0.7964594999999974,
            "durationTicks": 576,
            "midi": 63,
            "name": "D#4",
            "ticks": 145920,
            "time": 201.76974,
            "velocity": 0.09448818897637795
          },
          {
            "duration": 1.3274324999999862,
            "durationTicks": 960,
            "midi": 63,
            "name": "D#4",
            "ticks": 145920,
            "time": 201.76974,
            "velocity": 0.09448818897637795
          },
          {
            "duration": 0.7964594999999974,
            "durationTicks": 576,
            "midi": 60,
            "name": "C4",
            "ticks": 145920,
            "time": 201.76974,
            "velocity": 0.09448818897637795
          },
          {
            "duration": 1.3274324999999862,
            "durationTicks": 960,
            "midi": 60,
            "name": "C4",
            "ticks": 145920,
            "time": 201.76974,
            "velocity": 0.09448818897637795
          },
          {
            "duration": 0.7964594999999974,
            "durationTicks": 576,
            "midi": 87,
            "name": "D#6",
            "ticks": 145920,
            "time": 201.76974,
            "velocity": 0.09448818897637795
          },
          {
            "duration": 0.7964594999999974,
            "durationTicks": 576,
            "midi": 75,
            "name": "D#5",
            "ticks": 145920,
            "time": 201.76974,
            "velocity": 0.09448818897637795
          },
          {
            "duration": 1.5929189999999949,
            "durationTicks": 1152,
            "midi": 51,
            "name": "D#3",
            "ticks": 146496,
            "time": 202.5661995,
            "velocity": 0.07086614173228346
          },
          {
            "duration": 1.5929189999999949,
            "durationTicks": 1152,
            "midi": 80,
            "name": "G#5",
            "ticks": 146496,
            "time": 202.5661995,
            "velocity": 0.07086614173228346
          },
          {
            "duration": 1.3274325000000147,
            "durationTicks": 960,
            "midi": 56,
            "name": "G#3",
            "ticks": 146496,
            "time": 202.5661995,
            "velocity": 0.07086614173228346
          },
          {
            "duration": 1.5929189999999949,
            "durationTicks": 1152,
            "midi": 68,
            "name": "G#4",
            "ticks": 146496,
            "time": 202.5661995,
            "velocity": 0.07086614173228346
          },
          {
            "duration": 0.7964595000000259,
            "durationTicks": 576,
            "midi": 63,
            "name": "D#4",
            "ticks": 146880,
            "time": 203.0971725,
            "velocity": 0.09448818897637795
          },
          {
            "duration": 0.7964595000000259,
            "durationTicks": 576,
            "midi": 60,
            "name": "C4",
            "ticks": 146880,
            "time": 203.0971725,
            "velocity": 0.09448818897637795
          },
          {
            "duration": 1.061946000000006,
            "durationTicks": 768,
            "midi": 56,
            "name": "G#3",
            "ticks": 146880,
            "time": 203.0971725,
            "velocity": 0.09448818897637795
          },
          {
            "duration": 1.3274324999999862,
            "durationTicks": 960,
            "midi": 58,
            "name": "A#3",
            "ticks": 147456,
            "time": 203.89363200000003,
            "velocity": 0.09448818897637795
          },
          {
            "duration": 1.3274324999999862,
            "durationTicks": 960,
            "midi": 53,
            "name": "F3",
            "ticks": 147456,
            "time": 203.89363200000003,
            "velocity": 0.09448818897637795
          },
          {
            "duration": 1.3274324999999862,
            "durationTicks": 960,
            "midi": 61,
            "name": "C#4",
            "ticks": 147456,
            "time": 203.89363200000003,
            "velocity": 0.09448818897637795
          },
          {
            "duration": 0.1327432499999759,
            "durationTicks": 96,
            "midi": 80,
            "name": "G#5",
            "ticks": 148032,
            "time": 204.69009150000002,
            "velocity": 0.09448818897637795
          },
          {
            "duration": 0.1327432499999759,
            "durationTicks": 96,
            "midi": 92,
            "name": "G#6",
            "ticks": 148032,
            "time": 204.69009150000002,
            "velocity": 0.09448818897637795
          },
          {
            "duration": 0.1327432500000043,
            "durationTicks": 96,
            "midi": 78,
            "name": "F#5",
            "ticks": 148128,
            "time": 204.82283475,
            "velocity": 0.09448818897637795
          },
          {
            "duration": 0.1327432500000043,
            "durationTicks": 96,
            "midi": 90,
            "name": "F#6",
            "ticks": 148128,
            "time": 204.82283475,
            "velocity": 0.09448818897637795
          },
          {
            "duration": 0.1327432500000043,
            "durationTicks": 96,
            "midi": 89,
            "name": "F6",
            "ticks": 148224,
            "time": 204.955578,
            "velocity": 0.09448818897637795
          },
          {
            "duration": 0.1327432500000043,
            "durationTicks": 96,
            "midi": 77,
            "name": "F5",
            "ticks": 148224,
            "time": 204.955578,
            "velocity": 0.09448818897637795
          },
          {
            "duration": 0.1327432500000043,
            "durationTicks": 96,
            "midi": 73,
            "name": "C#5",
            "ticks": 148320,
            "time": 205.08832125,
            "velocity": 0.09448818897637795
          },
          {
            "duration": 0.1327432500000043,
            "durationTicks": 96,
            "midi": 85,
            "name": "C#6",
            "ticks": 148320,
            "time": 205.08832125,
            "velocity": 0.09448818897637795
          },
          {
            "duration": 0.7964594999999974,
            "durationTicks": 576,
            "midi": 58,
            "name": "A#3",
            "ticks": 148416,
            "time": 205.2210645,
            "velocity": 0.09448818897637795
          },
          {
            "duration": 0.7964594999999974,
            "durationTicks": 576,
            "midi": 85,
            "name": "C#6",
            "ticks": 148416,
            "time": 205.2210645,
            "velocity": 0.09448818897637795
          },
          {
            "duration": 0.7964594999999974,
            "durationTicks": 576,
            "midi": 58,
            "name": "A#3",
            "ticks": 148416,
            "time": 205.2210645,
            "velocity": 0.09448818897637795
          },
          {
            "duration": 0.7964594999999974,
            "durationTicks": 576,
            "midi": 61,
            "name": "C#4",
            "ticks": 148416,
            "time": 205.2210645,
            "velocity": 0.09448818897637795
          },
          {
            "duration": 0.7964594999999974,
            "durationTicks": 576,
            "midi": 54,
            "name": "F#3",
            "ticks": 148416,
            "time": 205.2210645,
            "velocity": 0.09448818897637795
          },
          {
            "duration": 2.123892000000012,
            "durationTicks": 1536,
            "midi": 68,
            "name": "G#4",
            "ticks": 148416,
            "time": 205.2210645,
            "velocity": 0.09448818897637795
          },
          {
            "duration": 0.7964594999999974,
            "durationTicks": 576,
            "midi": 61,
            "name": "C#4",
            "ticks": 148416,
            "time": 205.2210645,
            "velocity": 0.09448818897637795
          },
          {
            "duration": 0.7964594999999974,
            "durationTicks": 576,
            "midi": 73,
            "name": "C#5",
            "ticks": 148416,
            "time": 205.2210645,
            "velocity": 0.09448818897637795
          },
          {
            "duration": 1.3274325000000147,
            "durationTicks": 960,
            "midi": 56,
            "name": "G#3",
            "ticks": 148992,
            "time": 206.017524,
            "velocity": 0.09448818897637795
          },
          {
            "duration": 0.7964594999999974,
            "durationTicks": 576,
            "midi": 63,
            "name": "D#4",
            "ticks": 148992,
            "time": 206.017524,
            "velocity": 0.09448818897637795
          },
          {
            "duration": 0.7964594999999974,
            "durationTicks": 576,
            "midi": 60,
            "name": "C4",
            "ticks": 148992,
            "time": 206.017524,
            "velocity": 0.09448818897637795
          },
          {
            "duration": 1.3274325000000147,
            "durationTicks": 960,
            "midi": 63,
            "name": "D#4",
            "ticks": 148992,
            "time": 206.017524,
            "velocity": 0.09448818897637795
          },
          {
            "duration": 1.3274325000000147,
            "durationTicks": 960,
            "midi": 60,
            "name": "C4",
            "ticks": 148992,
            "time": 206.017524,
            "velocity": 0.09448818897637795
          },
          {
            "duration": 0.7964594999999974,
            "durationTicks": 576,
            "midi": 75,
            "name": "D#5",
            "ticks": 148992,
            "time": 206.017524,
            "velocity": 0.09448818897637795
          },
          {
            "duration": 0.7964594999999974,
            "durationTicks": 576,
            "midi": 87,
            "name": "D#6",
            "ticks": 148992,
            "time": 206.017524,
            "velocity": 0.09448818897637795
          },
          {
            "duration": 0.5309730000000172,
            "durationTicks": 384,
            "midi": 51,
            "name": "D#3",
            "ticks": 149568,
            "time": 206.8139835,
            "velocity": 0.07086614173228346
          },
          {
            "duration": 0.5309730000000172,
            "durationTicks": 384,
            "midi": 56,
            "name": "G#3",
            "ticks": 149568,
            "time": 206.8139835,
            "velocity": 0.07086614173228346
          },
          {
            "duration": 0.5309730000000172,
            "durationTicks": 384,
            "midi": 68,
            "name": "G#4",
            "ticks": 149568,
            "time": 206.8139835,
            "velocity": 0.07086614173228346
          },
          {
            "duration": 0.5309730000000172,
            "durationTicks": 384,
            "midi": 80,
            "name": "G#5",
            "ticks": 149568,
            "time": 206.8139835,
            "velocity": 0.07086614173228346
          },
          {
            "duration": 0.7964594999999974,
            "durationTicks": 576,
            "midi": 56,
            "name": "G#3",
            "ticks": 149952,
            "time": 207.34495650000002,
            "velocity": 0.09448818897637795
          },
          {
            "duration": 0.7964594999999974,
            "durationTicks": 576,
            "midi": 63,
            "name": "D#4",
            "ticks": 149952,
            "time": 207.34495650000002,
            "velocity": 0.09448818897637795
          },
          {
            "duration": 0.7964594999999974,
            "durationTicks": 576,
            "midi": 60,
            "name": "C4",
            "ticks": 149952,
            "time": 207.34495650000002,
            "velocity": 0.09448818897637795
          },
          {
            "duration": 0.7964594999999974,
            "durationTicks": 576,
            "midi": 87,
            "name": "D#6",
            "ticks": 149952,
            "time": 207.34495650000002,
            "velocity": 0.09448818897637795
          },
          {
            "duration": 0.7964594999999974,
            "durationTicks": 576,
            "midi": 75,
            "name": "D#5",
            "ticks": 149952,
            "time": 207.34495650000002,
            "velocity": 0.09448818897637795
          },
          {
            "duration": 0.7964594999999974,
            "durationTicks": 576,
            "midi": 63,
            "name": "D#4",
            "ticks": 149952,
            "time": 207.34495650000002,
            "velocity": 0.09448818897637795
          },
          {
            "duration": 0.7964594999999974,
            "durationTicks": 576,
            "midi": 60,
            "name": "C4",
            "ticks": 149952,
            "time": 207.34495650000002,
            "velocity": 0.09448818897637795
          },
          {
            "duration": 1.5929189999999949,
            "durationTicks": 1152,
            "midi": 68,
            "name": "G#4",
            "ticks": 149952,
            "time": 207.34495650000002,
            "velocity": 0.09448818897637795
          },
          {
            "duration": 1.3274324999999862,
            "durationTicks": 960,
            "midi": 53,
            "name": "F3",
            "ticks": 150528,
            "time": 208.14141600000002,
            "velocity": 0.09448818897637795
          },
          {
            "duration": 1.3274324999999862,
            "durationTicks": 960,
            "midi": 58,
            "name": "A#3",
            "ticks": 150528,
            "time": 208.14141600000002,
            "velocity": 0.09448818897637795
          },
          {
            "duration": 0.7964594999999974,
            "durationTicks": 576,
            "midi": 61,
            "name": "C#4",
            "ticks": 150528,
            "time": 208.14141600000002,
            "velocity": 0.09448818897637795
          },
          {
            "duration": 1.3274324999999862,
            "durationTicks": 960,
            "midi": 61,
            "name": "C#4",
            "ticks": 150528,
            "time": 208.14141600000002,
            "velocity": 0.09448818897637795
          },
          {
            "duration": 0.7964594999999974,
            "durationTicks": 576,
            "midi": 65,
            "name": "F4",
            "ticks": 150528,
            "time": 208.14141600000002,
            "velocity": 0.09448818897637795
          },
          {
            "duration": 0.7964594999999974,
            "durationTicks": 576,
            "midi": 89,
            "name": "F6",
            "ticks": 150528,
            "time": 208.14141600000002,
            "velocity": 0.09448818897637795
          },
          {
            "duration": 0.7964594999999974,
            "durationTicks": 576,
            "midi": 77,
            "name": "F5",
            "ticks": 150528,
            "time": 208.14141600000002,
            "velocity": 0.09448818897637795
          },
          {
            "duration": 0.1327432500000043,
            "durationTicks": 96,
            "midi": 92,
            "name": "G#6",
            "ticks": 151104,
            "time": 208.93787550000002,
            "velocity": 0.09448818897637795
          },
          {
            "duration": 0.1327432500000043,
            "durationTicks": 96,
            "midi": 80,
            "name": "G#5",
            "ticks": 151104,
            "time": 208.93787550000002,
            "velocity": 0.09448818897637795
          },
          {
            "duration": 0.1327432499999759,
            "durationTicks": 96,
            "midi": 90,
            "name": "F#6",
            "ticks": 151200,
            "time": 209.07061875000002,
            "velocity": 0.09448818897637795
          },
          {
            "duration": 0.1327432499999759,
            "durationTicks": 96,
            "midi": 78,
            "name": "F#5",
            "ticks": 151200,
            "time": 209.07061875000002,
            "velocity": 0.09448818897637795
          },
          {
            "duration": 0.1327432500000043,
            "durationTicks": 96,
            "midi": 77,
            "name": "F5",
            "ticks": 151296,
            "time": 209.203362,
            "velocity": 0.09448818897637795
          },
          {
            "duration": 0.1327432500000043,
            "durationTicks": 96,
            "midi": 89,
            "name": "F6",
            "ticks": 151296,
            "time": 209.203362,
            "velocity": 0.09448818897637795
          },
          {
            "duration": 0.1327432500000043,
            "durationTicks": 96,
            "midi": 73,
            "name": "C#5",
            "ticks": 151392,
            "time": 209.33610525,
            "velocity": 0.09448818897637795
          },
          {
            "duration": 0.1327432500000043,
            "durationTicks": 96,
            "midi": 85,
            "name": "C#6",
            "ticks": 151392,
            "time": 209.33610525,
            "velocity": 0.09448818897637795
          },
          {
            "duration": 0.7964594999999974,
            "durationTicks": 576,
            "midi": 61,
            "name": "C#4",
            "ticks": 151488,
            "time": 209.4688485,
            "velocity": 0.09448818897637795
          },
          {
            "duration": 0.7964594999999974,
            "durationTicks": 576,
            "midi": 58,
            "name": "A#3",
            "ticks": 151488,
            "time": 209.4688485,
            "velocity": 0.09448818897637795
          },
          {
            "duration": 0.7964594999999974,
            "durationTicks": 576,
            "midi": 73,
            "name": "C#5",
            "ticks": 151488,
            "time": 209.4688485,
            "velocity": 0.09448818897637795
          },
          {
            "duration": 0.7964594999999974,
            "durationTicks": 576,
            "midi": 85,
            "name": "C#6",
            "ticks": 151488,
            "time": 209.4688485,
            "velocity": 0.09448818897637795
          },
          {
            "duration": 0.7964594999999974,
            "durationTicks": 576,
            "midi": 61,
            "name": "C#4",
            "ticks": 151488,
            "time": 209.4688485,
            "velocity": 0.09448818897637795
          },
          {
            "duration": 0.7964594999999974,
            "durationTicks": 576,
            "midi": 58,
            "name": "A#3",
            "ticks": 151488,
            "time": 209.4688485,
            "velocity": 0.09448818897637795
          },
          {
            "duration": 0.7964594999999974,
            "durationTicks": 576,
            "midi": 54,
            "name": "F#3",
            "ticks": 151488,
            "time": 209.4688485,
            "velocity": 0.09448818897637795
          },
          {
            "duration": 0.7964594999999974,
            "durationTicks": 576,
            "midi": 63,
            "name": "D#4",
            "ticks": 152064,
            "time": 210.265308,
            "velocity": 0.09448818897637795
          },
          {
            "duration": 0.7964594999999974,
            "durationTicks": 576,
            "midi": 60,
            "name": "C4",
            "ticks": 152064,
            "time": 210.265308,
            "velocity": 0.09448818897637795
          },
          {
            "duration": 0.7964594999999974,
            "durationTicks": 576,
            "midi": 87,
            "name": "D#6",
            "ticks": 152064,
            "time": 210.265308,
            "velocity": 0.09448818897637795
          },
          {
            "duration": 1.061946000000006,
            "durationTicks": 768,
            "midi": 63,
            "name": "D#4",
            "ticks": 152064,
            "time": 210.265308,
            "velocity": 0.09448818897637795
          },
          {
            "duration": 0.7964594999999974,
            "durationTicks": 576,
            "midi": 75,
            "name": "D#5",
            "ticks": 152064,
            "time": 210.265308,
            "velocity": 0.09448818897637795
          },
          {
            "duration": 1.061946000000006,
            "durationTicks": 768,
            "midi": 60,
            "name": "C4",
            "ticks": 152064,
            "time": 210.265308,
            "velocity": 0.09448818897637795
          },
          {
            "duration": 1.061946000000006,
            "durationTicks": 768,
            "midi": 56,
            "name": "G#3",
            "ticks": 152064,
            "time": 210.265308,
            "velocity": 0.09448818897637795
          },
          {
            "duration": 1.5929190000000233,
            "durationTicks": 1152,
            "midi": 51,
            "name": "D#3",
            "ticks": 152640,
            "time": 211.0617675,
            "velocity": 0.07086614173228346
          },
          {
            "duration": 1.5929190000000233,
            "durationTicks": 1152,
            "midi": 68,
            "name": "G#4",
            "ticks": 152640,
            "time": 211.0617675,
            "velocity": 0.07086614173228346
          },
          {
            "duration": 1.5929190000000233,
            "durationTicks": 1152,
            "midi": 80,
            "name": "G#5",
            "ticks": 152640,
            "time": 211.0617675,
            "velocity": 0.07086614173228346
          },
          {
            "duration": 0.7964594999999974,
            "durationTicks": 576,
            "midi": 56,
            "name": "G#3",
            "ticks": 152640,
            "time": 211.0617675,
            "velocity": 0.07086614173228346
          },
          {
            "duration": 0.5309729999999888,
            "durationTicks": 384,
            "midi": 63,
            "name": "D#4",
            "ticks": 152832,
            "time": 211.327254,
            "velocity": 0.09448818897637795
          },
          {
            "duration": 0.7964594999999974,
            "durationTicks": 576,
            "midi": 56,
            "name": "G#3",
            "ticks": 152832,
            "time": 211.327254,
            "velocity": 0.09448818897637795
          },
          {
            "duration": 0.5309729999999888,
            "durationTicks": 384,
            "midi": 60,
            "name": "C4",
            "ticks": 152832,
            "time": 211.327254,
            "velocity": 0.09448818897637795
          },
          {
            "duration": 0.7964595000000259,
            "durationTicks": 576,
            "midi": 56,
            "name": "G#3",
            "ticks": 153216,
            "time": 211.858227,
            "velocity": 0.09448818897637795
          },
          {
            "duration": 0.2654865000000086,
            "durationTicks": 192,
            "midi": 61,
            "name": "C#4",
            "ticks": 153216,
            "time": 211.858227,
            "velocity": 0.09448818897637795
          },
          {
            "duration": 0.2654865000000086,
            "durationTicks": 192,
            "midi": 53,
            "name": "F3",
            "ticks": 153216,
            "time": 211.858227,
            "velocity": 0.09448818897637795
          },
          {
            "duration": 1.5929189999999949,
            "durationTicks": 1152,
            "midi": 53,
            "name": "F3",
            "ticks": 153408,
            "time": 212.1237135,
            "velocity": 0.09448818897637795
          },
          {
            "duration": 1.5929189999999949,
            "durationTicks": 1152,
            "midi": 56,
            "name": "G#3",
            "ticks": 153408,
            "time": 212.1237135,
            "velocity": 0.09448818897637795
          },
          {
            "duration": 1.5929189999999949,
            "durationTicks": 1152,
            "midi": 61,
            "name": "C#4",
            "ticks": 153408,
            "time": 212.1237135,
            "velocity": 0.09448818897637795
          }
        ],
        "endOfTrackTicks": 154560
      }
    ]
  }