{
    "header": {
      "keySignatures": [],
      "meta": [],
      "name": "",
      "ppq": 384,
      "tempos": [
        {
          "bpm": 80,
          "ticks": 0
        }
      ],
      "timeSignatures": [
        {
          "ticks": 0,
          "timeSignature": [
            1,
            4
          ],
          "measures": 0
        }
      ]
    },
    "tracks": [
      {
        "channel": 0,
        "controlChanges": {},
        "pitchBends": [],
        "instrument": {
          "family": "piano",
          "number": 0,
          "name": "acoustic grand piano"
        },
        "name": "Elec. Piano (Classic)",
        "notes": [
          {
            "duration": 0.1875,
            "durationTicks": 96,
            "midi": 48,
            "name": "C3",
            "ticks": 0,
            "time": 0,
            "velocity": 0.3937007874015748
          },
          {
            "duration": 0.1875,
            "durationTicks": 96,
            "midi": 72,
            "name": "C5",
            "ticks": 0,
            "time": 0,
            "velocity": 0.3937007874015748
          },
          {
            "duration": 0.1875,
            "durationTicks": 96,
            "midi": 52,
            "name": "E3",
            "ticks": 192,
            "time": 0.375,
            "velocity": 0.3937007874015748
          },
          {
            "duration": 0.1875,
            "durationTicks": 96,
            "midi": 55,
            "name": "G3",
            "ticks": 192,
            "time": 0.375,
            "velocity": 0.3937007874015748
          },
          {
            "duration": 0.1875,
            "durationTicks": 96,
            "midi": 43,
            "name": "G2",
            "ticks": 384,
            "time": 0.75,
            "velocity": 0.3937007874015748
          },
          {
            "duration": 0.1875,
            "durationTicks": 96,
            "midi": 67,
            "name": "G4",
            "ticks": 384,
            "time": 0.75,
            "velocity": 0.3937007874015748
          },
          {
            "duration": 0.1875,
            "durationTicks": 96,
            "midi": 52,
            "name": "E3",
            "ticks": 576,
            "time": 1.125,
            "velocity": 0.3937007874015748
          },
          {
            "duration": 0.1875,
            "durationTicks": 96,
            "midi": 48,
            "name": "C3",
            "ticks": 576,
            "time": 1.125,
            "velocity": 0.3937007874015748
          },
          {
            "duration": 0.1875,
            "durationTicks": 96,
            "midi": 48,
            "name": "C3",
            "ticks": 768,
            "time": 1.5,
            "velocity": 0.3937007874015748
          },
          {
            "duration": 0.1875,
            "durationTicks": 96,
            "midi": 71,
            "name": "B4",
            "ticks": 768,
            "time": 1.5,
            "velocity": 0.3937007874015748
          },
          {
            "duration": 0.1875,
            "durationTicks": 96,
            "midi": 55,
            "name": "G3",
            "ticks": 960,
            "time": 1.875,
            "velocity": 0.3937007874015748
          },
          {
            "duration": 0.1875,
            "durationTicks": 96,
            "midi": 52,
            "name": "E3",
            "ticks": 960,
            "time": 1.875,
            "velocity": 0.3937007874015748
          },
          {
            "duration": 0.1875,
            "durationTicks": 96,
            "midi": 69,
            "name": "A4",
            "ticks": 1056,
            "time": 2.0625,
            "velocity": 0.3937007874015748
          },
          {
            "duration": 0.1875,
            "durationTicks": 96,
            "midi": 43,
            "name": "G2",
            "ticks": 1152,
            "time": 2.25,
            "velocity": 0.3937007874015748
          },
          {
            "duration": 0.1875,
            "durationTicks": 96,
            "midi": 68,
            "name": "G#4",
            "ticks": 1248,
            "time": 2.4375,
            "velocity": 0.3937007874015748
          },
          {
            "duration": 0.1875,
            "durationTicks": 96,
            "midi": 69,
            "name": "A4",
            "ticks": 1344,
            "time": 2.625,
            "velocity": 0.3937007874015748
          },
          {
            "duration": 0.1875,
            "durationTicks": 96,
            "midi": 52,
            "name": "E3",
            "ticks": 1344,
            "time": 2.625,
            "velocity": 0.3937007874015748
          },
          {
            "duration": 0.1875,
            "durationTicks": 96,
            "midi": 48,
            "name": "C3",
            "ticks": 1344,
            "time": 2.625,
            "velocity": 0.3937007874015748
          },
          {
            "duration": 0.1875,
            "durationTicks": 96,
            "midi": 72,
            "name": "C5",
            "ticks": 1536,
            "time": 3,
            "velocity": 0.3937007874015748
          },
          {
            "duration": 0.1875,
            "durationTicks": 96,
            "midi": 48,
            "name": "C3",
            "ticks": 1536,
            "time": 3,
            "velocity": 0.3937007874015748
          },
          {
            "duration": 0.1875,
            "durationTicks": 96,
            "midi": 52,
            "name": "E3",
            "ticks": 1728,
            "time": 3.375,
            "velocity": 0.3937007874015748
          },
          {
            "duration": 0.1875,
            "durationTicks": 96,
            "midi": 55,
            "name": "G3",
            "ticks": 1728,
            "time": 3.375,
            "velocity": 0.3937007874015748
          },
          {
            "duration": 0.1875,
            "durationTicks": 96,
            "midi": 72,
            "name": "C5",
            "ticks": 1728,
            "time": 3.375,
            "velocity": 0.3937007874015748
          },
          {
            "duration": 0.1875,
            "durationTicks": 96,
            "midi": 43,
            "name": "G2",
            "ticks": 1920,
            "time": 3.75,
            "velocity": 0.3937007874015748
          },
          {
            "duration": 0.1875,
            "durationTicks": 96,
            "midi": 72,
            "name": "C5",
            "ticks": 1920,
            "time": 3.75,
            "velocity": 0.3937007874015748
          },
          {
            "duration": 0.1875,
            "durationTicks": 96,
            "midi": 71,
            "name": "B4",
            "ticks": 2016,
            "time": 3.9375,
            "velocity": 0.3937007874015748
          },
          {
            "duration": 0.1875,
            "durationTicks": 96,
            "midi": 70,
            "name": "A#4",
            "ticks": 2112,
            "time": 4.125,
            "velocity": 0.3937007874015748
          },
          {
            "duration": 0.1875,
            "durationTicks": 96,
            "midi": 52,
            "name": "E3",
            "ticks": 2112,
            "time": 4.125,
            "velocity": 0.3937007874015748
          },
          {
            "duration": 0.1875,
            "durationTicks": 96,
            "midi": 48,
            "name": "C3",
            "ticks": 2112,
            "time": 4.125,
            "velocity": 0.3937007874015748
          },
          {
            "duration": 0.1875,
            "durationTicks": 96,
            "midi": 48,
            "name": "C3",
            "ticks": 2304,
            "time": 4.5,
            "velocity": 0.3937007874015748
          },
          {
            "duration": 0.1875,
            "durationTicks": 96,
            "midi": 72,
            "name": "C5",
            "ticks": 2304,
            "time": 4.5,
            "velocity": 0.3937007874015748
          },
          {
            "duration": 0.1875,
            "durationTicks": 96,
            "midi": 52,
            "name": "E3",
            "ticks": 2496,
            "time": 4.875,
            "velocity": 0.3937007874015748
          },
          {
            "duration": 0.1875,
            "durationTicks": 96,
            "midi": 55,
            "name": "G3",
            "ticks": 2496,
            "time": 4.875,
            "velocity": 0.3937007874015748
          },
          {
            "duration": 0.1875,
            "durationTicks": 96,
            "midi": 74,
            "name": "D5",
            "ticks": 2688,
            "time": 5.25,
            "velocity": 0.3937007874015748
          },
          {
            "duration": 0.1875,
            "durationTicks": 96,
            "midi": 43,
            "name": "G2",
            "ticks": 2688,
            "time": 5.25,
            "velocity": 0.3937007874015748
          },
          {
            "duration": 0.1875,
            "durationTicks": 96,
            "midi": 52,
            "name": "E3",
            "ticks": 2880,
            "time": 5.625,
            "velocity": 0.3937007874015748
          },
          {
            "duration": 0.1875,
            "durationTicks": 96,
            "midi": 48,
            "name": "C3",
            "ticks": 2880,
            "time": 5.625,
            "velocity": 0.3937007874015748
          },
          {
            "duration": 0.1875,
            "durationTicks": 96,
            "midi": 74,
            "name": "D5",
            "ticks": 3072,
            "time": 6,
            "velocity": 0.3937007874015748
          },
          {
            "duration": 0.1875,
            "durationTicks": 96,
            "midi": 41,
            "name": "F2",
            "ticks": 3072,
            "time": 6,
            "velocity": 0.3937007874015748
          },
          {
            "duration": 0.1875,
            "durationTicks": 96,
            "midi": 73,
            "name": "C#5",
            "ticks": 3168,
            "time": 6.1875,
            "velocity": 0.3937007874015748
          },
          {
            "duration": 0.1875,
            "durationTicks": 96,
            "midi": 72,
            "name": "C5",
            "ticks": 3264,
            "time": 6.375,
            "velocity": 0.3937007874015748
          },
          {
            "duration": 0.1875,
            "durationTicks": 96,
            "midi": 48,
            "name": "C3",
            "ticks": 3264,
            "time": 6.375,
            "velocity": 0.3937007874015748
          },
          {
            "duration": 0.1875,
            "durationTicks": 96,
            "midi": 45,
            "name": "A2",
            "ticks": 3264,
            "time": 6.375,
            "velocity": 0.3937007874015748
          },
          {
            "duration": 0.1875,
            "durationTicks": 96,
            "midi": 74,
            "name": "D5",
            "ticks": 3360,
            "time": 6.5625,
            "velocity": 0.3937007874015748
          },
          {
            "duration": 0.1875,
            "durationTicks": 96,
            "midi": 36,
            "name": "C2",
            "ticks": 3456,
            "time": 6.75,
            "velocity": 0.3937007874015748
          },
          {
            "duration": 0.1875,
            "durationTicks": 96,
            "midi": 73,
            "name": "C#5",
            "ticks": 3552,
            "time": 6.9375,
            "velocity": 0.3937007874015748
          },
          {
            "duration": 0.1875,
            "durationTicks": 96,
            "midi": 41,
            "name": "F2",
            "ticks": 3648,
            "time": 7.125,
            "velocity": 0.3937007874015748
          },
          {
            "duration": 0.1875,
            "durationTicks": 96,
            "midi": 45,
            "name": "A2",
            "ticks": 3648,
            "time": 7.125,
            "velocity": 0.3937007874015748
          },
          {
            "duration": 0.1875,
            "durationTicks": 96,
            "midi": 72,
            "name": "C5",
            "ticks": 3648,
            "time": 7.125,
            "velocity": 0.3937007874015748
          },
          {
            "duration": 0.1875,
            "durationTicks": 96,
            "midi": 74,
            "name": "D5",
            "ticks": 3840,
            "time": 7.5,
            "velocity": 0.3937007874015748
          },
          {
            "duration": 0.1875,
            "durationTicks": 96,
            "midi": 41,
            "name": "F2",
            "ticks": 3840,
            "time": 7.5,
            "velocity": 0.3937007874015748
          },
          {
            "duration": 0.1875,
            "durationTicks": 96,
            "midi": 73,
            "name": "C#5",
            "ticks": 3936,
            "time": 7.6875,
            "velocity": 0.3937007874015748
          },
          {
            "duration": 0.1875,
            "durationTicks": 96,
            "midi": 45,
            "name": "A2",
            "ticks": 4032,
            "time": 7.875,
            "velocity": 0.3937007874015748
          },
          {
            "duration": 0.1875,
            "durationTicks": 96,
            "midi": 72,
            "name": "C5",
            "ticks": 4032,
            "time": 7.875,
            "velocity": 0.3937007874015748
          },
          {
            "duration": 0.1875,
            "durationTicks": 96,
            "midi": 48,
            "name": "C3",
            "ticks": 4032,
            "time": 7.875,
            "velocity": 0.3937007874015748
          },
          {
            "duration": 0.1875,
            "durationTicks": 96,
            "midi": 74,
            "name": "D5",
            "ticks": 4128,
            "time": 8.0625,
            "velocity": 0.3937007874015748
          },
          {
            "duration": 0.1875,
            "durationTicks": 96,
            "midi": 36,
            "name": "C2",
            "ticks": 4224,
            "time": 8.25,
            "velocity": 0.3937007874015748
          },
          {
            "duration": 0.1875,
            "durationTicks": 96,
            "midi": 73,
            "name": "C#5",
            "ticks": 4320,
            "time": 8.4375,
            "velocity": 0.3937007874015748
          },
          {
            "duration": 0.1875,
            "durationTicks": 96,
            "midi": 45,
            "name": "A2",
            "ticks": 4416,
            "time": 8.625,
            "velocity": 0.3937007874015748
          },
          {
            "duration": 0.1875,
            "durationTicks": 96,
            "midi": 41,
            "name": "F2",
            "ticks": 4416,
            "time": 8.625,
            "velocity": 0.3937007874015748
          },
          {
            "duration": 0.1875,
            "durationTicks": 96,
            "midi": 72,
            "name": "C5",
            "ticks": 4416,
            "time": 8.625,
            "velocity": 0.3937007874015748
          },
          {
            "duration": 0.1875,
            "durationTicks": 96,
            "midi": 45,
            "name": "A2",
            "ticks": 4608,
            "time": 9,
            "velocity": 0.3937007874015748
          },
          {
            "duration": 0.1875,
            "durationTicks": 96,
            "midi": 72,
            "name": "C5",
            "ticks": 4608,
            "time": 9,
            "velocity": 0.3937007874015748
          },
          {
            "duration": 0.1875,
            "durationTicks": 96,
            "midi": 48,
            "name": "C3",
            "ticks": 4800,
            "time": 9.375,
            "velocity": 0.3937007874015748
          },
          {
            "duration": 0.1875,
            "durationTicks": 96,
            "midi": 52,
            "name": "E3",
            "ticks": 4800,
            "time": 9.375,
            "velocity": 0.3937007874015748
          },
          {
            "duration": 0.1875,
            "durationTicks": 96,
            "midi": 74,
            "name": "D5",
            "ticks": 4896,
            "time": 9.5625,
            "velocity": 0.3937007874015748
          },
          {
            "duration": 0.1875,
            "durationTicks": 96,
            "midi": 38,
            "name": "D2",
            "ticks": 4992,
            "time": 9.75,
            "velocity": 0.3937007874015748
          },
          {
            "duration": 0.1875,
            "durationTicks": 96,
            "midi": 42,
            "name": "F#2",
            "ticks": 5184,
            "time": 10.125,
            "velocity": 0.3937007874015748
          },
          {
            "duration": 0.1875,
            "durationTicks": 96,
            "midi": 45,
            "name": "A2",
            "ticks": 5184,
            "time": 10.125,
            "velocity": 0.3937007874015748
          },
          {
            "duration": 0.1875,
            "durationTicks": 96,
            "midi": 45,
            "name": "A2",
            "ticks": 5376,
            "time": 10.5,
            "velocity": 0.3937007874015748
          },
          {
            "duration": 0.1875,
            "durationTicks": 96,
            "midi": 48,
            "name": "C3",
            "ticks": 5568,
            "time": 10.875,
            "velocity": 0.3937007874015748
          },
          {
            "duration": 0.1875,
            "durationTicks": 96,
            "midi": 52,
            "name": "E3",
            "ticks": 5568,
            "time": 10.875,
            "velocity": 0.3937007874015748
          },
          {
            "duration": 0.1875,
            "durationTicks": 96,
            "midi": 38,
            "name": "D2",
            "ticks": 5760,
            "time": 11.25,
            "velocity": 0.3937007874015748
          },
          {
            "duration": 0.1875,
            "durationTicks": 96,
            "midi": 45,
            "name": "A2",
            "ticks": 5952,
            "time": 11.625,
            "velocity": 0.3937007874015748
          },
          {
            "duration": 0.1875,
            "durationTicks": 96,
            "midi": 42,
            "name": "F#2",
            "ticks": 5952,
            "time": 11.625,
            "velocity": 0.3937007874015748
          }
        ],
        "endOfTrackTicks": 6048
      }
    ]
  }